<?xml version="1.0" encoding="UTF-8" standalone="no"?>
<!DOCTYPE svg PUBLIC "-//W3C//DTD SVG 1.1//EN"
 "http://www.w3.org/Graphics/SVG/1.1/DTD/svg11.dtd">
<!-- Generated by graphviz version 2.44.0 (0)
 -->
<!-- Title: Anti&#45;symmetric Relation Pages: 1 -->
<svg width="2323pt" height="188pt"
 viewBox="0.00 0.00 2323.44 188.00" xmlns="http://www.w3.org/2000/svg" xmlns:xlink="http://www.w3.org/1999/xlink">
<g id="page0,1_graph0" class="graph" transform="scale(1 1) rotate(0) translate(4 184)">
<title>Anti&#45;symmetric Relation</title>
<polygon fill="#132020" stroke="transparent" points="-4,4 -4,-184 2319.44,-184 2319.44,4 -4,4"/>
<!-- Anti&#45;symmetric Relation -->
<g id="node1" class="node">
<title>Anti&#45;symmetric Relation</title>
<g id="a_node1"><a xlink:href="../Anti-symmetric Relation.html" xlink:title="Anti&#45;symmetric Relation" target="_parent">
<path fill="#273434" stroke="#b75867" d="M219.48,-180C219.48,-180 91.48,-180 91.48,-180 85.48,-180 79.48,-174 79.48,-168 79.48,-168 79.48,-156 79.48,-156 79.48,-150 85.48,-144 91.48,-144 91.48,-144 219.48,-144 219.48,-144 225.48,-144 231.48,-150 231.48,-156 231.48,-156 231.48,-168 231.48,-168 231.48,-174 225.48,-180 219.48,-180"/>
<text text-anchor="middle" x="155.48" y="-158.9" font-family="sans" font-size="12.00" fill="#c4c7c7">Anti&#45;symmetric Relation</text>
</a>
</g>
</g>
<!-- Relation -->
<g id="node2" class="node">
<title>Relation</title>
<g id="a_node2"><a xlink:href="../Relation.html" xlink:title="Relation" target="_parent">
<path fill="#273434" stroke="#b75867" d="M983.48,-108C983.48,-108 943.48,-108 943.48,-108 937.48,-108 931.48,-102 931.48,-96 931.48,-96 931.48,-84 931.48,-84 931.48,-78 937.48,-72 943.48,-72 943.48,-72 983.48,-72 983.48,-72 989.48,-72 995.48,-78 995.48,-84 995.48,-84 995.48,-96 995.48,-96 995.48,-102 989.48,-108 983.48,-108"/>
<text text-anchor="middle" x="963.48" y="-86.9" font-family="sans" font-size="12.00" fill="#c4c7c7">Relation</text>
</a>
</g>
</g>
<!-- Anti&#45;symmetric Relation&#45;&gt;Relation -->
<g id="edge1" class="edge">
<title>Anti&#45;symmetric Relation&#45;&gt;Relation</title>
<path fill="none" stroke="#b75867" d="M231.49,-154.41C398.09,-139.98 790.88,-105.95 920.87,-94.69"/>
<polygon fill="#b75867" stroke="#b75867" points="921.54,-98.15 931.2,-93.8 920.94,-91.17 921.54,-98.15"/>
</g>
<!-- Relations -->
<g id="node4" class="node">
<title>Relations</title>
<g id="a_node4"><a xlink:href="../Relations.html" xlink:title="Relations" target="_parent">
<ellipse fill="#273434" stroke="#b75867" cx="42.48" cy="-18" rx="42.45" ry="18"/>
<text text-anchor="middle" x="42.48" y="-14.9" font-family="sans" font-size="12.00" fill="#c4c7c7">Relations</text>
</a>
</g>
</g>
<!-- Anti&#45;symmetric Relation&#45;&gt;Relations -->
<g id="edge3" class="edge">
<title>Anti&#45;symmetric Relation&#45;&gt;Relations</title>
<path fill="none" stroke="#ffffff" d="M135.45,-135.84C112.35,-106.81 75.05,-59.94 55.46,-35.31"/>
<polygon fill="#ffffff" stroke="#ffffff" points="132.88,-138.23 141.85,-143.87 138.36,-133.87 132.88,-138.23"/>
</g>
<!-- Partial order -->
<g id="node5" class="node">
<title>Partial order</title>
<g id="a_node5"><a xlink:href="../Partial order.html" xlink:title="Partial order" target="_parent">
<ellipse fill="#273434" stroke="#b75867" cx="155.48" cy="-18" rx="52.88" ry="18"/>
<text text-anchor="middle" x="155.48" y="-14.9" font-family="sans" font-size="12.00" fill="#c4c7c7">Partial order</text>
</a>
</g>
</g>
<!-- Anti&#45;symmetric Relation&#45;&gt;Partial order -->
<g id="edge4" class="edge">
<title>Anti&#45;symmetric Relation&#45;&gt;Partial order</title>
<path fill="none" stroke="#ffffff" d="M155.48,-133.68C155.48,-104.89 155.48,-60.42 155.48,-36.19"/>
<polygon fill="#ffffff" stroke="#ffffff" points="151.98,-133.87 155.48,-143.87 158.98,-133.87 151.98,-133.87"/>
</g>
<!-- Descartes Product -->
<g id="node3" class="node">
<title>Descartes Product</title>
<g id="a_node3"><a xlink:href="../Descartes Product.html" xlink:title="Descartes Product" target="_parent">
<path fill="#273434" stroke="#b75867" d="M1342.98,-36C1342.98,-36 1247.98,-36 1247.98,-36 1241.98,-36 1235.98,-30 1235.98,-24 1235.98,-24 1235.98,-12 1235.98,-12 1235.98,-6 1241.98,0 1247.98,0 1247.98,0 1342.98,0 1342.98,0 1348.98,0 1354.98,-6 1354.98,-12 1354.98,-12 1354.98,-24 1354.98,-24 1354.98,-30 1348.98,-36 1342.98,-36"/>
<text text-anchor="middle" x="1295.48" y="-14.9" font-family="sans" font-size="12.00" fill="#c4c7c7">Descartes Product</text>
</a>
</g>
</g>
<!-- Relation&#45;&gt;Descartes Product -->
<g id="edge2" class="edge">
<title>Relation&#45;&gt;Descartes Product</title>
<path fill="none" stroke="#b75867" d="M995.55,-82.99C1043.39,-73.94 1136.48,-55.93 1225.66,-36.13"/>
<polygon fill="#b75867" stroke="#b75867" points="1226.68,-39.49 1235.67,-33.9 1225.15,-32.66 1226.68,-39.49"/>
</g>
<!-- Relation&#45;&gt;Relations -->
<g id="edge15" class="edge">
<title>Relation&#45;&gt;Relations</title>
<path fill="none" stroke="#ffffff" d="M920.88,-87.87C769.05,-83.64 254.88,-67.26 93.48,-36 86.79,-34.7 79.77,-32.77 73.15,-30.66"/>
<polygon fill="#ffffff" stroke="#ffffff" points="921.08,-91.38 931.17,-88.16 921.27,-84.38 921.08,-91.38"/>
</g>
<!-- Relation&#45;&gt;Partial order -->
<g id="edge18" class="edge">
<title>Relation&#45;&gt;Partial order</title>
<path fill="none" stroke="#ffffff" d="M921.12,-88.9C806.76,-87.99 482.45,-81.29 217.48,-36 209.55,-34.65 201.18,-32.71 193.24,-30.62"/>
<polygon fill="#ffffff" stroke="#ffffff" points="921.19,-92.4 931.21,-88.96 921.24,-85.4 921.19,-92.4"/>
</g>
<!-- Symmetric Relation -->
<g id="node6" class="node">
<title>Symmetric Relation</title>
<g id="a_node6"><a xlink:href="../Symmetric Relation.html" xlink:title="Symmetric Relation" target="_parent">
<ellipse fill="#273434" stroke="#b75867" cx="1451.48" cy="-18" rx="78.59" ry="18"/>
<text text-anchor="middle" x="1451.48" y="-14.9" font-family="sans" font-size="12.00" fill="#c4c7c7">Symmetric Relation</text>
</a>
</g>
</g>
<!-- Relation&#45;&gt;Symmetric Relation -->
<g id="edge5" class="edge">
<title>Relation&#45;&gt;Symmetric Relation</title>
<path fill="none" stroke="#ffffff" d="M1005.74,-84.28C1078.99,-75.91 1234.19,-57.32 1364.48,-36 1374.35,-34.38 1384.82,-32.49 1394.94,-30.57"/>
<polygon fill="#ffffff" stroke="#ffffff" points="1005.08,-80.83 995.54,-85.44 1005.87,-87.79 1005.08,-80.83"/>
</g>
<!-- Transitive Relation -->
<g id="node7" class="node">
<title>Transitive Relation</title>
<g id="a_node7"><a xlink:href="../Transitive Relation.html" xlink:title="Transitive Relation" target="_parent">
<ellipse fill="#273434" stroke="#b75867" cx="1622.48" cy="-18" rx="74.47" ry="18"/>
<text text-anchor="middle" x="1622.48" y="-14.9" font-family="sans" font-size="12.00" fill="#c4c7c7">Transitive Relation</text>
</a>
</g>
</g>
<!-- Relation&#45;&gt;Transitive Relation -->
<g id="edge6" class="edge">
<title>Relation&#45;&gt;Transitive Relation</title>
<path fill="none" stroke="#ffffff" d="M1005.92,-86.7C1101.56,-81.17 1341.03,-65.36 1539.48,-36 1549.22,-34.56 1559.56,-32.71 1569.5,-30.76"/>
<polygon fill="#ffffff" stroke="#ffffff" points="1005.57,-83.22 995.79,-87.28 1005.97,-90.2 1005.57,-83.22"/>
</g>
<!-- Reflexive Relation -->
<g id="node8" class="node">
<title>Reflexive Relation</title>
<g id="a_node8"><a xlink:href="../Reflexive Relation.html" xlink:title="Reflexive Relation" target="_parent">
<ellipse fill="#273434" stroke="#b75867" cx="1787.48" cy="-18" rx="72.05" ry="18"/>
<text text-anchor="middle" x="1787.48" y="-14.9" font-family="sans" font-size="12.00" fill="#c4c7c7">Reflexive Relation</text>
</a>
</g>
</g>
<!-- Relation&#45;&gt;Reflexive Relation -->
<g id="edge7" class="edge">
<title>Relation&#45;&gt;Reflexive Relation</title>
<path fill="none" stroke="#ffffff" d="M1005.86,-87.95C1119.61,-84.69 1440.94,-72.7 1705.48,-36 1715.41,-34.62 1725.95,-32.75 1736.04,-30.75"/>
<polygon fill="#ffffff" stroke="#ffffff" points="1005.72,-84.45 995.82,-88.23 1005.91,-91.45 1005.72,-84.45"/>
</g>
<!-- Anti&#45;reflexive relation -->
<g id="node9" class="node">
<title>Anti&#45;reflexive relation</title>
<g id="a_node9"><a xlink:href="../Anti-reflexive relation.html" xlink:title="Anti&#45;reflexive relation" target="_parent">
<ellipse fill="#273434" stroke="#b75867" cx="1962.48" cy="-18" rx="84.9" ry="18"/>
<text text-anchor="middle" x="1962.48" y="-14.9" font-family="sans" font-size="12.00" fill="#c4c7c7">Anti&#45;reflexive relation</text>
</a>
</g>
</g>
<!-- Relation&#45;&gt;Anti&#45;reflexive relation -->
<g id="edge8" class="edge">
<title>Relation&#45;&gt;Anti&#45;reflexive relation</title>
<path fill="none" stroke="#ffffff" d="M1005.95,-88.33C1135.65,-85.89 1537.86,-75.43 1868.48,-36 1879.67,-34.66 1891.55,-32.84 1902.97,-30.88"/>
<polygon fill="#ffffff" stroke="#ffffff" points="1005.6,-84.83 995.66,-88.52 1005.72,-91.83 1005.6,-84.83"/>
</g>
<!-- Strongly Anti&#45;symmetric Relation -->
<g id="node10" class="node">
<title>Strongly Anti&#45;symmetric Relation</title>
<g id="a_node10"><a xlink:href="../Strongly Anti-symmetric Relation.html" xlink:title="Strongly Anti&#45;symmetric Relation" target="_parent">
<ellipse fill="#273434" stroke="#b75867" cx="2190.48" cy="-18" rx="124.93" ry="18"/>
<text text-anchor="middle" x="2190.48" y="-14.9" font-family="sans" font-size="12.00" fill="#c4c7c7">Strongly Anti&#45;symmetric Relation</text>
</a>
</g>
</g>
<!-- Relation&#45;&gt;Strongly Anti&#45;symmetric Relation -->
<g id="edge9" class="edge">
<title>Relation&#45;&gt;Strongly Anti&#45;symmetric Relation</title>
<path fill="none" stroke="#ffffff" d="M1006.05,-88.13C1152.43,-84.87 1648.43,-71.72 2056.48,-36 2071.78,-34.66 2088.02,-32.89 2103.72,-31.01"/>
<polygon fill="#ffffff" stroke="#ffffff" points="1005.65,-84.63 995.73,-88.35 1005.8,-91.63 1005.65,-84.63"/>
</g>
<!-- Reflexive Closure -->
<g id="node11" class="node">
<title>Reflexive Closure</title>
<g id="a_node11"><a xlink:href="../Reflexive Closure.html" xlink:title="Reflexive Closure" target="_parent">
<ellipse fill="#273434" stroke="#b75867" cx="296.48" cy="-18" rx="69.62" ry="18"/>
<text text-anchor="middle" x="296.48" y="-14.9" font-family="sans" font-size="12.00" fill="#c4c7c7">Reflexive Closure</text>
</a>
</g>
</g>
<!-- Relation&#45;&gt;Reflexive Closure -->
<g id="edge10" class="edge">
<title>Relation&#45;&gt;Reflexive Closure</title>
<path fill="none" stroke="#ffffff" d="M921.39,-87.02C824.46,-82.07 578.14,-67.23 374.48,-36 365.16,-34.57 355.29,-32.7 345.82,-30.73"/>
<polygon fill="#ffffff" stroke="#ffffff" points="921.22,-90.52 931.38,-87.52 921.57,-83.53 921.22,-90.52"/>
</g>
<!-- Symmetric Closure -->
<g id="node12" class="node">
<title>Symmetric Closure</title>
<g id="a_node12"><a xlink:href="../Symmetric Closure.html" xlink:title="Symmetric Closure" target="_parent">
<ellipse fill="#273434" stroke="#b75867" cx="459.48" cy="-18" rx="75.94" ry="18"/>
<text text-anchor="middle" x="459.48" y="-14.9" font-family="sans" font-size="12.00" fill="#c4c7c7">Symmetric Closure</text>
</a>
</g>
</g>
<!-- Relation&#45;&gt;Symmetric Closure -->
<g id="edge11" class="edge">
<title>Relation&#45;&gt;Symmetric Closure</title>
<path fill="none" stroke="#ffffff" d="M921.1,-84.7C845.16,-76.77 680.97,-58.56 543.48,-36 533.93,-34.43 523.82,-32.57 514.04,-30.65"/>
<polygon fill="#ffffff" stroke="#ffffff" points="920.91,-88.2 931.22,-85.75 921.63,-81.24 920.91,-88.2"/>
</g>
<!-- Relation of Equivalence -->
<g id="node13" class="node">
<title>Relation of Equivalence</title>
<g id="a_node13"><a xlink:href="../Relation of Equivalence.html" xlink:title="Relation of Equivalence" target="_parent">
<ellipse fill="#273434" stroke="#b75867" cx="644.48" cy="-18" rx="91.95" ry="18"/>
<text text-anchor="middle" x="644.48" y="-14.9" font-family="sans" font-size="12.00" fill="#c4c7c7">Relation of Equivalence</text>
</a>
</g>
</g>
<!-- Relation&#45;&gt;Relation of Equivalence -->
<g id="edge12" class="edge">
<title>Relation&#45;&gt;Relation of Equivalence</title>
<path fill="none" stroke="#ffffff" d="M921.51,-79.79C865.62,-67.53 766.46,-45.77 703.17,-31.88"/>
<polygon fill="#ffffff" stroke="#ffffff" points="920.91,-83.24 931.43,-81.97 922.41,-76.41 920.91,-83.24"/>
</g>
<!-- Chain -->
<g id="node14" class="node">
<title>Chain</title>
<g id="a_node14"><a xlink:href="../Chain.html" xlink:title="Chain" target="_parent">
<ellipse fill="#273434" stroke="#b75867" cx="784.48" cy="-18" rx="30.33" ry="18"/>
<text text-anchor="middle" x="784.48" y="-14.9" font-family="sans" font-size="12.00" fill="#c4c7c7">Chain</text>
</a>
</g>
</g>
<!-- Relation&#45;&gt;Chain -->
<g id="edge13" class="edge">
<title>Relation&#45;&gt;Chain</title>
<path fill="none" stroke="#ffffff" d="M921.94,-73.63C894.23,-63.26 857.05,-49.13 824.48,-36 819.16,-33.86 813.47,-31.49 808.1,-29.22"/>
<polygon fill="#ffffff" stroke="#ffffff" points="920.73,-76.91 931.32,-77.13 923.18,-70.35 920.73,-76.91"/>
</g>
<!-- Partial function -->
<g id="node15" class="node">
<title>Partial function</title>
<g id="a_node15"><a xlink:href="../Partial function.html" xlink:title="Partial function" target="_parent">
<ellipse fill="#273434" stroke="#b75867" cx="896.48" cy="-18" rx="63.31" ry="18"/>
<text text-anchor="middle" x="896.48" y="-14.9" font-family="sans" font-size="12.00" fill="#c4c7c7">Partial function</text>
</a>
</g>
</g>
<!-- Relation&#45;&gt;Partial function -->
<g id="edge14" class="edge">
<title>Relation&#45;&gt;Partial function</title>
<path fill="none" stroke="#ffffff" d="M939.9,-64.37C930.79,-54.85 920.6,-44.21 912.39,-35.62"/>
<polygon fill="#ffffff" stroke="#ffffff" points="937.47,-66.89 946.91,-71.7 942.53,-62.05 937.47,-66.89"/>
</g>
<!-- Linear order -->
<g id="node16" class="node">
<title>Linear order</title>
<g id="a_node16"><a xlink:href="../Linear order.html" xlink:title="Linear order" target="_parent">
<ellipse fill="#273434" stroke="#b75867" cx="1030.48" cy="-18" rx="52.88" ry="18"/>
<text text-anchor="middle" x="1030.48" y="-14.9" font-family="sans" font-size="12.00" fill="#c4c7c7">Linear order</text>
</a>
</g>
</g>
<!-- Relation&#45;&gt;Linear order -->
<g id="edge16" class="edge">
<title>Relation&#45;&gt;Linear order</title>
<path fill="none" stroke="#ffffff" d="M987.05,-64.37C996.16,-54.85 1006.35,-44.21 1014.57,-35.62"/>
<polygon fill="#ffffff" stroke="#ffffff" points="984.42,-62.05 980.04,-71.7 989.48,-66.89 984.42,-62.05"/>
</g>
<!-- Total function -->
<g id="node17" class="node">
<title>Total function</title>
<g id="a_node17"><a xlink:href="../Total function.html" xlink:title="Total function" target="_parent">
<ellipse fill="#273434" stroke="#b75867" cx="1159.48" cy="-18" rx="58.46" ry="18"/>
<text text-anchor="middle" x="1159.48" y="-14.9" font-family="sans" font-size="12.00" fill="#c4c7c7">Total function</text>
</a>
</g>
</g>
<!-- Relation&#45;&gt;Total function -->
<g id="edge17" class="edge">
<title>Relation&#45;&gt;Total function</title>
<path fill="none" stroke="#ffffff" d="M1005.27,-74.07C1040.14,-61.62 1089.34,-44.05 1122.72,-32.13"/>
<polygon fill="#ffffff" stroke="#ffffff" points="1004.08,-70.78 995.84,-77.44 1006.44,-77.37 1004.08,-70.78"/>
</g>
</g>
</svg>
