<?xml version="1.0" encoding="UTF-8" standalone="no"?>
<!DOCTYPE svg PUBLIC "-//W3C//DTD SVG 1.1//EN"
 "http://www.w3.org/Graphics/SVG/1.1/DTD/svg11.dtd">
<!-- Generated by graphviz version 2.44.0 (0)
 -->
<!-- Title: Anti&#45;symmetric Relation Pages: 1 -->
<svg width="771pt" height="497pt"
 viewBox="0.00 0.00 771.00 497.00" xmlns="http://www.w3.org/2000/svg" xmlns:xlink="http://www.w3.org/1999/xlink">
<g id="page0,1_graph0" class="graph" transform="scale(1 1) rotate(0) translate(4 493)">
<title>Anti&#45;symmetric Relation</title>
<polygon fill="#132020" stroke="transparent" points="-4,4 -4,-493 767,-493 767,4 -4,4"/>
<!-- Anti&#45;symmetric Relation -->
<g id="node1" class="node">
<title>Anti&#45;symmetric Relation</title>
<g id="a_node1"><a xlink:href="../Anti-symmetric Relation.html" xlink:title="Anti&#45;symmetric Relation" target="_parent">
<path fill="#273434" stroke="#b75867" d="M140,-315C140,-315 12,-315 12,-315 6,-315 0,-309 0,-303 0,-303 0,-291 0,-291 0,-285 6,-279 12,-279 12,-279 140,-279 140,-279 146,-279 152,-285 152,-291 152,-291 152,-303 152,-303 152,-309 146,-315 140,-315"/>
<text text-anchor="middle" x="76" y="-293.9" font-family="sans" font-size="12.00" fill="#c4c7c7">Anti&#45;symmetric Relation</text>
</a>
</g>
</g>
<!-- Relation -->
<g id="node2" class="node">
<title>Relation</title>
<g id="a_node2"><a xlink:href="../Relation.html" xlink:title="Relation" target="_parent">
<path fill="#273434" stroke="#b75867" d="M212,-255C212,-255 172,-255 172,-255 166,-255 160,-249 160,-243 160,-243 160,-231 160,-231 160,-225 166,-219 172,-219 172,-219 212,-219 212,-219 218,-219 224,-225 224,-231 224,-231 224,-243 224,-243 224,-249 218,-255 212,-255"/>
<text text-anchor="middle" x="192" y="-233.9" font-family="sans" font-size="12.00" fill="#c4c7c7">Relation</text>
</a>
</g>
</g>
<!-- Anti&#45;symmetric Relation&#45;&gt;Relation -->
<g id="edge1" class="edge">
<title>Anti&#45;symmetric Relation&#45;&gt;Relation</title>
<path fill="none" stroke="#b75867" d="M111.2,-279C123.66,-272.44 137.85,-264.97 150.78,-258.17"/>
<polygon fill="#b75867" stroke="#b75867" points="152.71,-261.11 159.93,-253.35 149.45,-254.91 152.71,-261.11"/>
</g>
<!-- Relations -->
<g id="node3" class="node">
<title>Relations</title>
<g id="a_node3"><a xlink:href="../Relations.html" xlink:title="Relations" target="_parent">
<path fill="none" stroke="#b75867" d="M314,-315C314,-315 269,-315 269,-315 263,-315 257,-309 257,-303 257,-303 257,-291 257,-291 257,-285 263,-279 269,-279 269,-279 314,-279 314,-279 320,-279 326,-285 326,-291 326,-291 326,-303 326,-303 326,-309 320,-315 314,-315"/>
<text text-anchor="middle" x="291.5" y="-293.9" font-family="sans" font-size="12.00" fill="#c4c7c7">Relations</text>
</a>
</g>
</g>
<!-- Anti&#45;symmetric Relation&#45;&gt;Relations -->
<g id="edge2" class="edge">
<title>Anti&#45;symmetric Relation&#45;&gt;Relations</title>
<path fill="none" stroke="#ffffff" d="M162.46,-297C195.61,-297 231.63,-297 256.99,-297"/>
<polygon fill="#ffffff" stroke="#ffffff" points="162.27,-293.5 152.27,-297 162.27,-300.5 162.27,-293.5"/>
</g>
<!-- Partial order -->
<g id="node4" class="node">
<title>Partial order</title>
<g id="a_node4"><a xlink:href="../Partial order.html" xlink:title="Partial order" target="_parent">
<path fill="none" stroke="#b75867" d="M491.5,-464C491.5,-464 429.5,-464 429.5,-464 423.5,-464 417.5,-458 417.5,-452 417.5,-452 417.5,-440 417.5,-440 417.5,-434 423.5,-428 429.5,-428 429.5,-428 491.5,-428 491.5,-428 497.5,-428 503.5,-434 503.5,-440 503.5,-440 503.5,-452 503.5,-452 503.5,-458 497.5,-464 491.5,-464"/>
<text text-anchor="middle" x="460.5" y="-442.9" font-family="sans" font-size="12.00" fill="#c4c7c7">Partial order</text>
</a>
</g>
</g>
<!-- Anti&#45;symmetric Relation&#45;&gt;Partial order -->
<g id="edge3" class="edge">
<title>Anti&#45;symmetric Relation&#45;&gt;Partial order</title>
<path fill="none" stroke="#ffffff" d="M97.03,-323.27C123.74,-355.99 174.39,-410.44 232,-434 292.77,-458.86 370.39,-456.52 417.45,-451.81"/>
<polygon fill="#ffffff" stroke="#ffffff" points="99.76,-321.07 90.77,-315.45 94.29,-325.45 99.76,-321.07"/>
</g>
<!-- Relation&#45;&gt;Anti&#45;symmetric Relation -->
<g id="edge5" class="edge">
<title>Relation&#45;&gt;Anti&#45;symmetric Relation</title>
<path fill="none" stroke="#ffffff" d="M151.14,-258.7C138.65,-265.32 124.95,-272.52 112.76,-278.88"/>
<polygon fill="#ffffff" stroke="#ffffff" points="152.8,-261.78 159.99,-254 149.51,-255.6 152.8,-261.78"/>
</g>
<!-- Relation&#45;&gt;Relations -->
<g id="edge16" class="edge">
<title>Relation&#45;&gt;Relations</title>
<path fill="none" stroke="#ffffff" d="M216.09,-262.5C221.04,-267.06 226.45,-271.47 232,-275 239.6,-279.83 248.42,-283.84 256.87,-287.06"/>
<polygon fill="#ffffff" stroke="#ffffff" points="218.36,-259.81 208.77,-255.31 213.46,-264.81 218.36,-259.81"/>
</g>
<!-- Relation&#45;&gt;Partial order -->
<g id="edge19" class="edge">
<title>Relation&#45;&gt;Partial order</title>
<path fill="none" stroke="#ffffff" d="M194.76,-265.4C198.35,-313.04 208.28,-405.95 232,-427 238.82,-433.05 353.36,-440.22 417.25,-443.77"/>
<polygon fill="#ffffff" stroke="#ffffff" points="198.23,-264.87 194.04,-255.14 191.25,-265.36 198.23,-264.87"/>
</g>
<!-- Descartes Product -->
<g id="node5" class="node">
<title>Descartes Product</title>
<g id="a_node5"><a xlink:href="../Descartes Product.html" xlink:title="Descartes Product" target="_parent">
<path fill="#273434" stroke="#b75867" d="M339,-36C339,-36 244,-36 244,-36 238,-36 232,-30 232,-24 232,-24 232,-12 232,-12 232,-6 238,0 244,0 244,0 339,0 339,0 345,0 351,-6 351,-12 351,-12 351,-24 351,-24 351,-30 345,-36 339,-36"/>
<text text-anchor="middle" x="291.5" y="-14.9" font-family="sans" font-size="12.00" fill="#c4c7c7">Descartes Product</text>
</a>
</g>
</g>
<!-- Relation&#45;&gt;Descartes Product -->
<g id="edge4" class="edge">
<title>Relation&#45;&gt;Descartes Product</title>
<path fill="none" stroke="#b75867" d="M194.35,-218.96C197.67,-178.97 207.37,-83.62 229.67,-44.83"/>
<polygon fill="#b75867" stroke="#b75867" points="232.79,-46.47 235.62,-36.26 227.04,-42.48 232.79,-46.47"/>
</g>
<!-- Symmetric Relation -->
<g id="node6" class="node">
<title>Symmetric Relation</title>
<g id="a_node6"><a xlink:href="../Symmetric Relation.html" xlink:title="Symmetric Relation" target="_parent">
<path fill="none" stroke="#b75867" d="M512.5,-227C512.5,-227 408.5,-227 408.5,-227 402.5,-227 396.5,-221 396.5,-215 396.5,-215 396.5,-203 396.5,-203 396.5,-197 402.5,-191 408.5,-191 408.5,-191 512.5,-191 512.5,-191 518.5,-191 524.5,-197 524.5,-203 524.5,-203 524.5,-215 524.5,-215 524.5,-221 518.5,-227 512.5,-227"/>
<text text-anchor="middle" x="460.5" y="-205.9" font-family="sans" font-size="12.00" fill="#c4c7c7">Symmetric Relation</text>
</a>
</g>
</g>
<!-- Relation&#45;&gt;Symmetric Relation -->
<g id="edge6" class="edge">
<title>Relation&#45;&gt;Symmetric Relation</title>
<path fill="none" stroke="#ffffff" d="M234.3,-237.69C266.27,-237.74 311.59,-236.76 351,-232 365.82,-230.21 381.6,-227.4 396.42,-224.34"/>
<polygon fill="#ffffff" stroke="#ffffff" points="234.02,-234.19 224,-237.64 233.99,-241.19 234.02,-234.19"/>
</g>
<!-- Transitive Relation -->
<g id="node7" class="node">
<title>Transitive Relation</title>
<g id="a_node7"><a xlink:href="../Transitive Relation.html" xlink:title="Transitive Relation" target="_parent">
<path fill="none" stroke="#b75867" d="M715,-415C715,-415 618,-415 618,-415 612,-415 606,-409 606,-403 606,-403 606,-391 606,-391 606,-385 612,-379 618,-379 618,-379 715,-379 715,-379 721,-379 727,-385 727,-391 727,-391 727,-403 727,-403 727,-409 721,-415 715,-415"/>
<text text-anchor="middle" x="666.5" y="-393.9" font-family="sans" font-size="12.00" fill="#c4c7c7">Transitive Relation</text>
</a>
</g>
</g>
<!-- Relation&#45;&gt;Transitive Relation -->
<g id="edge7" class="edge">
<title>Relation&#45;&gt;Transitive Relation</title>
<path fill="none" stroke="#ffffff" d="M203.2,-264.54C209.92,-280.53 219.74,-300.5 232,-316 277.44,-373.44 290.09,-396.2 359,-421 401.45,-436.27 517.23,-426.51 562,-421 565.64,-420.55 566.44,-419.86 570,-419 581.58,-416.22 593.97,-413.31 605.86,-410.56"/>
<polygon fill="#ffffff" stroke="#ffffff" points="206.41,-263.14 199.43,-255.18 199.92,-265.76 206.41,-263.14"/>
</g>
<!-- Reflexive Relation -->
<g id="node8" class="node">
<title>Reflexive Relation</title>
<g id="a_node8"><a xlink:href="../Reflexive Relation.html" xlink:title="Reflexive Relation" target="_parent">
<path fill="none" stroke="#b75867" d="M713,-341C713,-341 620,-341 620,-341 614,-341 608,-335 608,-329 608,-329 608,-317 608,-317 608,-311 614,-305 620,-305 620,-305 713,-305 713,-305 719,-305 725,-311 725,-317 725,-317 725,-329 725,-329 725,-335 719,-341 713,-341"/>
<text text-anchor="middle" x="666.5" y="-319.9" font-family="sans" font-size="12.00" fill="#c4c7c7">Reflexive Relation</text>
</a>
</g>
</g>
<!-- Relation&#45;&gt;Reflexive Relation -->
<g id="edge8" class="edge">
<title>Relation&#45;&gt;Reflexive Relation</title>
<path fill="none" stroke="#ffffff" d="M194.79,-208.74C198.4,-161.82 208.33,-71.01 232,-51 249.41,-36.28 546.16,-30.65 562,-46 582.36,-65.73 552,-279.1 570,-301 579.4,-312.44 593.44,-318.64 607.88,-321.85"/>
<polygon fill="#ffffff" stroke="#ffffff" points="191.29,-208.62 194.06,-218.85 198.27,-209.13 191.29,-208.62"/>
</g>
<!-- Anti&#45;reflexive relation -->
<g id="node9" class="node">
<title>Anti&#45;reflexive relation</title>
<g id="a_node9"><a xlink:href="../Anti-reflexive relation.html" xlink:title="Anti&#45;reflexive relation" target="_parent">
<path fill="none" stroke="#b75867" d="M517.5,-190C517.5,-190 403.5,-190 403.5,-190 397.5,-190 391.5,-184 391.5,-178 391.5,-178 391.5,-166 391.5,-166 391.5,-160 397.5,-154 403.5,-154 403.5,-154 517.5,-154 517.5,-154 523.5,-154 529.5,-160 529.5,-166 529.5,-166 529.5,-178 529.5,-178 529.5,-184 523.5,-190 517.5,-190"/>
<text text-anchor="middle" x="460.5" y="-168.9" font-family="sans" font-size="12.00" fill="#c4c7c7">Anti&#45;reflexive relation</text>
</a>
</g>
</g>
<!-- Relation&#45;&gt;Anti&#45;reflexive relation -->
<g id="edge9" class="edge">
<title>Relation&#45;&gt;Anti&#45;reflexive relation</title>
<path fill="none" stroke="#ffffff" d="M207.39,-210.47C213.7,-201.45 221.97,-192.31 232,-187 280.8,-161.15 343.96,-159.02 391.35,-162.43"/>
<polygon fill="#ffffff" stroke="#ffffff" points="204.4,-208.65 201.95,-218.96 210.29,-212.43 204.4,-208.65"/>
</g>
<!-- Strongly Anti&#45;symmetric Relation -->
<g id="node10" class="node">
<title>Strongly Anti&#45;symmetric Relation</title>
<g id="a_node10"><a xlink:href="../Strongly Anti-symmetric Relation.html" xlink:title="Strongly Anti&#45;symmetric Relation" target="_parent">
<path fill="none" stroke="#b75867" d="M550,-153C550,-153 371,-153 371,-153 365,-153 359,-147 359,-141 359,-141 359,-129 359,-129 359,-123 365,-117 371,-117 371,-117 550,-117 550,-117 556,-117 562,-123 562,-129 562,-129 562,-141 562,-141 562,-147 556,-153 550,-153"/>
<text text-anchor="middle" x="460.5" y="-131.9" font-family="sans" font-size="12.00" fill="#c4c7c7">Strongly Anti&#45;symmetric Relation</text>
</a>
</g>
</g>
<!-- Relation&#45;&gt;Strongly Anti&#45;symmetric Relation -->
<g id="edge10" class="edge">
<title>Relation&#45;&gt;Strongly Anti&#45;symmetric Relation</title>
<path fill="none" stroke="#ffffff" d="M200.3,-209.2C206.12,-192.76 216,-173.06 232,-162 268.48,-136.79 316.34,-128.42 358.75,-127"/>
<polygon fill="#ffffff" stroke="#ffffff" points="196.91,-208.31 197.19,-218.9 203.58,-210.45 196.91,-208.31"/>
</g>
<!-- Reflexive Closure -->
<g id="node11" class="node">
<title>Reflexive Closure</title>
<g id="a_node11"><a xlink:href="../Reflexive Closure.html" xlink:title="Reflexive Closure" target="_parent">
<path fill="none" stroke="#b75867" d="M505,-301C505,-301 416,-301 416,-301 410,-301 404,-295 404,-289 404,-289 404,-277 404,-277 404,-271 410,-265 416,-265 416,-265 505,-265 505,-265 511,-265 517,-271 517,-277 517,-277 517,-289 517,-289 517,-295 511,-301 505,-301"/>
<text text-anchor="middle" x="460.5" y="-279.9" font-family="sans" font-size="12.00" fill="#c4c7c7">Reflexive Closure</text>
</a>
</g>
</g>
<!-- Relation&#45;&gt;Reflexive Closure -->
<g id="edge11" class="edge">
<title>Relation&#45;&gt;Reflexive Closure</title>
<path fill="none" stroke="#ffffff" d="M234.18,-236.96C277.72,-237.25 341.45,-238.76 351,-245 357.66,-249.35 352.73,-256.12 359,-261 371.76,-270.93 388.05,-276.59 403.79,-279.75"/>
<polygon fill="#ffffff" stroke="#ffffff" points="234.15,-233.46 224.13,-236.91 234.11,-240.46 234.15,-233.46"/>
</g>
<!-- Symmetric Closure -->
<g id="node12" class="node">
<title>Symmetric Closure</title>
<g id="a_node12"><a xlink:href="../Symmetric Closure.html" xlink:title="Symmetric Closure" target="_parent">
<path fill="none" stroke="#b75867" d="M510,-264C510,-264 411,-264 411,-264 405,-264 399,-258 399,-252 399,-252 399,-240 399,-240 399,-234 405,-228 411,-228 411,-228 510,-228 510,-228 516,-228 522,-234 522,-240 522,-240 522,-252 522,-252 522,-258 516,-264 510,-264"/>
<text text-anchor="middle" x="460.5" y="-242.9" font-family="sans" font-size="12.00" fill="#c4c7c7">Symmetric Closure</text>
</a>
</g>
</g>
<!-- Relation&#45;&gt;Symmetric Closure -->
<g id="edge12" class="edge">
<title>Relation&#45;&gt;Symmetric Closure</title>
<path fill="none" stroke="#ffffff" d="M215.24,-212.18C220.3,-208.02 225.98,-204.31 232,-202 281.39,-183.09 307.68,-171.66 351,-202 359.52,-207.97 351.17,-217.15 359,-224 370.09,-233.7 384.47,-239.44 398.87,-242.75"/>
<polygon fill="#ffffff" stroke="#ffffff" points="212.85,-209.62 207.83,-218.95 217.57,-214.79 212.85,-209.62"/>
</g>
<!-- Relation of Equivalence -->
<g id="node13" class="node">
<title>Relation of Equivalence</title>
<g id="a_node13"><a xlink:href="../Relation of Equivalence.html" xlink:title="Relation of Equivalence" target="_parent">
<path fill="none" stroke="#b75867" d="M523,-116C523,-116 398,-116 398,-116 392,-116 386,-110 386,-104 386,-104 386,-92 386,-92 386,-86 392,-80 398,-80 398,-80 523,-80 523,-80 529,-80 535,-86 535,-92 535,-92 535,-104 535,-104 535,-110 529,-116 523,-116"/>
<text text-anchor="middle" x="460.5" y="-94.9" font-family="sans" font-size="12.00" fill="#c4c7c7">Relation of Equivalence</text>
</a>
</g>
</g>
<!-- Relation&#45;&gt;Relation of Equivalence -->
<g id="edge13" class="edge">
<title>Relation&#45;&gt;Relation of Equivalence</title>
<path fill="none" stroke="#ffffff" d="M195.11,-208.56C198.59,-183.34 207.78,-147.55 232,-128 274.62,-93.59 337.09,-87.49 385.79,-89.22"/>
<polygon fill="#ffffff" stroke="#ffffff" points="191.62,-208.31 193.94,-218.65 198.57,-209.12 191.62,-208.31"/>
</g>
<!-- Chain -->
<g id="node14" class="node">
<title>Chain</title>
<g id="a_node14"><a xlink:href="../Chain.html" xlink:title="Chain" target="_parent">
<path fill="none" stroke="#b75867" d="M475.5,-79C475.5,-79 445.5,-79 445.5,-79 439.5,-79 433.5,-73 433.5,-67 433.5,-67 433.5,-55 433.5,-55 433.5,-49 439.5,-43 445.5,-43 445.5,-43 475.5,-43 475.5,-43 481.5,-43 487.5,-49 487.5,-55 487.5,-55 487.5,-67 487.5,-67 487.5,-73 481.5,-79 475.5,-79"/>
<text text-anchor="middle" x="460.5" y="-57.9" font-family="sans" font-size="12.00" fill="#c4c7c7">Chain</text>
</a>
</g>
</g>
<!-- Relation&#45;&gt;Chain -->
<g id="edge14" class="edge">
<title>Relation&#45;&gt;Chain</title>
<path fill="none" stroke="#ffffff" d="M196.71,-208.84C202.34,-170.68 214.3,-105.5 232,-90 288.92,-40.17 386.67,-48.33 433.28,-55.85"/>
<polygon fill="#ffffff" stroke="#ffffff" points="193.23,-208.43 195.29,-218.83 200.16,-209.42 193.23,-208.43"/>
</g>
<!-- Partial function -->
<g id="node15" class="node">
<title>Partial function</title>
<g id="a_node15"><a xlink:href="../Partial function.html" xlink:title="Partial function" target="_parent">
<path fill="none" stroke="#b75867" d="M331,-278C331,-278 252,-278 252,-278 246,-278 240,-272 240,-266 240,-266 240,-254 240,-254 240,-248 246,-242 252,-242 252,-242 331,-242 331,-242 337,-242 343,-248 343,-254 343,-254 343,-266 343,-266 343,-272 337,-278 331,-278"/>
<text text-anchor="middle" x="291.5" y="-256.9" font-family="sans" font-size="12.00" fill="#c4c7c7">Partial function</text>
</a>
</g>
</g>
<!-- Relation&#45;&gt;Partial function -->
<g id="edge15" class="edge">
<title>Relation&#45;&gt;Partial function</title>
<path fill="none" stroke="#ffffff" d="M234.29,-246.74C236.11,-247.17 237.94,-247.6 239.77,-248.03"/>
<polygon fill="#ffffff" stroke="#ffffff" points="234.65,-243.23 224.12,-244.34 233.05,-250.04 234.65,-243.23"/>
</g>
<!-- Linear order -->
<g id="node16" class="node">
<title>Linear order</title>
<g id="a_node16"><a xlink:href="../Linear order.html" xlink:title="Linear order" target="_parent">
<path fill="none" stroke="#b75867" d="M697.5,-304C697.5,-304 635.5,-304 635.5,-304 629.5,-304 623.5,-298 623.5,-292 623.5,-292 623.5,-280 623.5,-280 623.5,-274 629.5,-268 635.5,-268 635.5,-268 697.5,-268 697.5,-268 703.5,-268 709.5,-274 709.5,-280 709.5,-280 709.5,-292 709.5,-292 709.5,-298 703.5,-304 697.5,-304"/>
<text text-anchor="middle" x="666.5" y="-282.9" font-family="sans" font-size="12.00" fill="#c4c7c7">Linear order</text>
</a>
</g>
</g>
<!-- Relation&#45;&gt;Linear order -->
<g id="edge17" class="edge">
<title>Relation&#45;&gt;Linear order</title>
<path fill="none" stroke="#ffffff" d="M194.42,-208.82C197.53,-160.18 206.8,-63.64 232,-43 246.18,-31.38 546.71,-32.89 562,-43 640.8,-95.09 659.8,-220.69 664.22,-267.77"/>
<polygon fill="#ffffff" stroke="#ffffff" points="190.92,-208.8 193.82,-218.99 197.91,-209.21 190.92,-208.8"/>
</g>
<!-- Total function -->
<g id="node17" class="node">
<title>Total function</title>
<g id="a_node17"><a xlink:href="../Total function.html" xlink:title="Total function" target="_parent">
<path fill="none" stroke="#b75867" d="M327,-235C327,-235 256,-235 256,-235 250,-235 244,-229 244,-223 244,-223 244,-211 244,-211 244,-205 250,-199 256,-199 256,-199 327,-199 327,-199 333,-199 339,-205 339,-211 339,-211 339,-223 339,-223 339,-229 333,-235 327,-235"/>
<text text-anchor="middle" x="291.5" y="-213.9" font-family="sans" font-size="12.00" fill="#c4c7c7">Total function</text>
</a>
</g>
</g>
<!-- Relation&#45;&gt;Total function -->
<g id="edge18" class="edge">
<title>Relation&#45;&gt;Total function</title>
<path fill="none" stroke="#ffffff" d="M234.06,-228.58C237.24,-227.92 240.47,-227.26 243.69,-226.6"/>
<polygon fill="#ffffff" stroke="#ffffff" points="233.21,-225.18 224.12,-230.62 234.62,-232.04 233.21,-225.18"/>
</g>
<!-- Relations&#45;&gt;Anti&#45;symmetric Relation -->
<g id="edge34" class="edge">
<title>Relations&#45;&gt;Anti&#45;symmetric Relation</title>
<path fill="none" stroke="#b75867" d="M256.99,-297.56C231.63,-297.72 195.61,-297.78 162.46,-297.74"/>
<polygon fill="#b75867" stroke="#b75867" points="162.28,-294.24 152.27,-297.72 162.27,-301.24 162.28,-294.24"/>
</g>
<!-- Relations&#45;&gt;Relation -->
<g id="edge38" class="edge">
<title>Relations&#45;&gt;Relation</title>
<path fill="none" stroke="#b75867" d="M256.87,-288.02C248.42,-284.84 239.6,-280.83 232,-276 226,-272.18 220.15,-267.33 214.89,-262.35"/>
<polygon fill="#b75867" stroke="#b75867" points="217.19,-259.69 207.65,-255.07 212.22,-264.63 217.19,-259.69"/>
</g>
<!-- Relations&#45;&gt;Partial order -->
<g id="edge23" class="edge">
<title>Relations&#45;&gt;Partial order</title>
<path fill="none" stroke="#b75867" d="M296.81,-315.35C304.37,-343.34 322.8,-396.37 359,-424 372.76,-434.5 390.5,-440.2 407.23,-443.24"/>
<polygon fill="#b75867" stroke="#b75867" points="407.07,-446.75 417.48,-444.8 408.12,-439.83 407.07,-446.75"/>
</g>
<!-- Relations&#45;&gt;Symmetric Relation -->
<g id="edge35" class="edge">
<title>Relations&#45;&gt;Symmetric Relation</title>
<path fill="none" stroke="#b75867" d="M326.19,-290.81C335.45,-287.55 344.67,-282.58 351,-275 363.74,-259.74 345.2,-245.3 359,-231 366.6,-223.13 376.31,-217.76 386.7,-214.16"/>
<polygon fill="#b75867" stroke="#b75867" points="387.77,-217.49 396.38,-211.32 385.8,-210.77 387.77,-217.49"/>
</g>
<!-- Relations&#45;&gt;Transitive Relation -->
<g id="edge32" class="edge">
<title>Relations&#45;&gt;Transitive Relation</title>
<path fill="none" stroke="#b75867" d="M313.41,-315.08C325.8,-324.65 342.29,-335.52 359,-341 401.92,-355.07 518.06,-340.54 562,-351 583.27,-356.06 605.6,-365.41 624.04,-374.36"/>
<polygon fill="#b75867" stroke="#b75867" points="622.52,-377.52 633.04,-378.84 625.65,-371.25 622.52,-377.52"/>
</g>
<!-- Relations&#45;&gt;Reflexive Relation -->
<g id="edge37" class="edge">
<title>Relations&#45;&gt;Reflexive Relation</title>
<path fill="none" stroke="#b75867" d="M326.2,-298.63C393.3,-301.89 539.12,-309.08 562,-311 573.5,-311.96 585.7,-313.19 597.53,-314.5"/>
<polygon fill="#b75867" stroke="#b75867" points="597.48,-318.01 607.81,-315.65 598.27,-311.06 597.48,-318.01"/>
</g>
<!-- Relations&#45;&gt;Anti&#45;reflexive relation -->
<g id="edge36" class="edge">
<title>Relations&#45;&gt;Anti&#45;reflexive relation</title>
<path fill="none" stroke="#b75867" d="M326.28,-291.23C335.66,-287.99 344.92,-282.92 351,-275 362.01,-260.65 346.98,-207.52 359,-194 365.23,-186.99 373.14,-181.93 381.76,-178.32"/>
<polygon fill="#b75867" stroke="#b75867" points="383.09,-181.56 391.36,-174.94 380.77,-174.96 383.09,-181.56"/>
</g>
<!-- Relations&#45;&gt;Strongly Anti&#45;symmetric Relation -->
<g id="edge33" class="edge">
<title>Relations&#45;&gt;Strongly Anti&#45;symmetric Relation</title>
<path fill="none" stroke="#b75867" d="M326.12,-291.45C335.61,-288.22 344.98,-283.1 351,-275 365.09,-256.05 346.47,-191.97 357.65,-161.92"/>
<polygon fill="#b75867" stroke="#b75867" points="360.74,-163.57 362.68,-153.15 354.67,-160.09 360.74,-163.57"/>
</g>
<!-- Relations&#45;&gt;Reflexive Closure -->
<g id="edge28" class="edge">
<title>Relations&#45;&gt;Reflexive Closure</title>
<path fill="none" stroke="#b75867" d="M326.29,-294.17C345.64,-292.55 370.58,-290.45 393.64,-288.52"/>
<polygon fill="#b75867" stroke="#b75867" points="394.06,-292 403.73,-287.68 393.47,-285.02 394.06,-292"/>
</g>
<!-- Relations&#45;&gt;Reflexive Closure -->
<g id="edge31" class="edge">
<title>Relations&#45;&gt;Reflexive Closure</title>
<path fill="none" stroke="#b75867" d="M326.29,-294.78C345.64,-293.28 370.58,-291.23 393.64,-289.26"/>
<polygon fill="#b75867" stroke="#b75867" points="394.07,-292.73 403.73,-288.39 393.46,-285.76 394.07,-292.73"/>
</g>
<!-- Relations&#45;&gt;Symmetric Closure -->
<g id="edge27" class="edge">
<title>Relations&#45;&gt;Symmetric Closure</title>
<path fill="none" stroke="#b75867" d="M326.26,-286.66C334.62,-283.47 343.37,-279.57 351,-275 355.05,-272.57 354.78,-270.13 359,-268 368.31,-263.31 378.59,-259.61 388.92,-256.7"/>
<polygon fill="#b75867" stroke="#b75867" points="390.01,-260.03 398.82,-254.14 388.26,-253.26 390.01,-260.03"/>
</g>
<!-- Relations&#45;&gt;Symmetric Closure -->
<g id="edge29" class="edge">
<title>Relations&#45;&gt;Symmetric Closure</title>
<path fill="none" stroke="#b75867" d="M326.26,-287.62C334.62,-284.47 343.37,-280.57 351,-276 355.05,-273.57 354.78,-271.13 359,-269 368.31,-264.31 378.59,-260.61 388.92,-257.69"/>
<polygon fill="#b75867" stroke="#b75867" points="390.02,-261.02 398.82,-255.11 388.26,-254.24 390.02,-261.02"/>
</g>
<!-- Relations&#45;&gt;Relation of Equivalence -->
<g id="edge25" class="edge">
<title>Relations&#45;&gt;Relation of Equivalence</title>
<path fill="none" stroke="#b75867" d="M326.2,-291.51C335.7,-288.28 345.04,-283.15 351,-275 371.36,-247.16 336.69,-146.3 359,-120 363.88,-114.24 369.9,-109.78 376.53,-106.36"/>
<polygon fill="#b75867" stroke="#b75867" points="378.13,-109.48 385.92,-102.29 375.35,-103.05 378.13,-109.48"/>
</g>
<!-- Relations&#45;&gt;Chain -->
<g id="edge20" class="edge">
<title>Relations&#45;&gt;Chain</title>
<path fill="none" stroke="#b75867" d="M326.25,-291.54C335.75,-288.31 345.08,-283.18 351,-275 363.52,-257.7 345.27,-99.35 359,-83 374.37,-64.7 401.13,-59.52 423.17,-58.74"/>
<polygon fill="#b75867" stroke="#b75867" points="423.25,-62.24 433.23,-58.67 423.2,-55.24 423.25,-62.24"/>
</g>
<!-- Relations&#45;&gt;Linear order -->
<g id="edge22" class="edge">
<title>Relations&#45;&gt;Linear order</title>
<path fill="none" stroke="#b75867" d="M326.33,-297.61C336.8,-297.77 348.38,-297.92 359,-298 449.22,-298.68 471.93,-303.2 562,-298 578.75,-297.03 596.95,-295.19 613.35,-293.24"/>
<polygon fill="#b75867" stroke="#b75867" points="613.8,-296.71 623.3,-292.01 612.94,-289.76 613.8,-296.71"/>
</g>
<!-- Linear extension -->
<g id="node18" class="node">
<title>Linear extension</title>
<g id="a_node18"><a xlink:href="../Linear extension.html" xlink:title="Linear extension" target="_parent">
<path fill="#273434" stroke="#b75867" d="M709.5,-452C709.5,-452 623.5,-452 623.5,-452 617.5,-452 611.5,-446 611.5,-440 611.5,-440 611.5,-428 611.5,-428 611.5,-422 617.5,-416 623.5,-416 623.5,-416 709.5,-416 709.5,-416 715.5,-416 721.5,-422 721.5,-428 721.5,-428 721.5,-440 721.5,-440 721.5,-446 715.5,-452 709.5,-452"/>
<text text-anchor="middle" x="666.5" y="-430.9" font-family="sans" font-size="12.00" fill="#c4c7c7">Linear extension</text>
</a>
</g>
</g>
<!-- Relations&#45;&gt;Linear extension -->
<g id="edge21" class="edge">
<title>Relations&#45;&gt;Linear extension</title>
<path fill="none" stroke="#b75867" d="M296.56,-315.23C303.81,-342.91 321.81,-394.75 359,-418 378.15,-429.97 539.45,-426.79 562,-428 574.62,-428.68 588.11,-429.43 601.03,-430.18"/>
<polygon fill="#b75867" stroke="#b75867" points="601.07,-433.68 611.25,-430.77 601.47,-426.7 601.07,-433.68"/>
</g>
<!-- Class of equivalence -->
<g id="node19" class="node">
<title>Class of equivalence</title>
<g id="a_node19"><a xlink:href="../Class of equivalence.html" xlink:title="Class of equivalence" target="_parent">
<path fill="#273434" stroke="#b75867" d="M514,-344C514,-344 407,-344 407,-344 401,-344 395,-338 395,-332 395,-332 395,-320 395,-320 395,-314 401,-308 407,-308 407,-308 514,-308 514,-308 520,-308 526,-314 526,-320 526,-320 526,-332 526,-332 526,-338 520,-344 514,-344"/>
<text text-anchor="middle" x="460.5" y="-322.9" font-family="sans" font-size="12.00" fill="#c4c7c7">Class of equivalence</text>
</a>
</g>
</g>
<!-- Relations&#45;&gt;Class of equivalence -->
<g id="edge24" class="edge">
<title>Relations&#45;&gt;Class of equivalence</title>
<path fill="none" stroke="#b75867" d="M326.29,-302.87C343.17,-305.8 364.3,-309.47 384.72,-313.01"/>
<polygon fill="#b75867" stroke="#b75867" points="384.22,-316.48 394.67,-314.74 385.42,-309.58 384.22,-316.48"/>
</g>
<!-- Transitive Closure -->
<g id="node20" class="node">
<title>Transitive Closure</title>
<g id="a_node20"><a xlink:href="../Transitive Closure.html" xlink:title="Transitive Closure" target="_parent">
<path fill="#273434" stroke="#b75867" d="M506.5,-421C506.5,-421 414.5,-421 414.5,-421 408.5,-421 402.5,-415 402.5,-409 402.5,-409 402.5,-397 402.5,-397 402.5,-391 408.5,-385 414.5,-385 414.5,-385 506.5,-385 506.5,-385 512.5,-385 518.5,-391 518.5,-397 518.5,-397 518.5,-409 518.5,-409 518.5,-415 512.5,-421 506.5,-421"/>
<text text-anchor="middle" x="460.5" y="-399.9" font-family="sans" font-size="12.00" fill="#c4c7c7">Transitive Closure</text>
</a>
</g>
</g>
<!-- Relations&#45;&gt;Transitive Closure -->
<g id="edge26" class="edge">
<title>Relations&#45;&gt;Transitive Closure</title>
<path fill="none" stroke="#b75867" d="M301.87,-315.13C312.87,-334.55 332.97,-364.74 359,-381 369.12,-387.32 380.8,-391.84 392.54,-395.07"/>
<polygon fill="#b75867" stroke="#b75867" points="391.83,-398.5 402.38,-397.49 393.5,-391.7 391.83,-398.5"/>
</g>
<!-- Relations&#45;&gt;Transitive Closure -->
<g id="edge30" class="edge">
<title>Relations&#45;&gt;Transitive Closure</title>
<path fill="none" stroke="#b75867" d="M301.47,-315.15C312.38,-334.81 332.65,-365.54 359,-382 369.12,-388.32 380.8,-392.84 392.54,-396.05"/>
<polygon fill="#b75867" stroke="#b75867" points="391.83,-399.48 402.38,-398.45 393.49,-392.68 391.83,-399.48"/>
</g>
<!-- Discrete Structures -->
<g id="node21" class="node">
<title>Discrete Structures</title>
<g id="a_node21"><a xlink:href="../Discrete Structures.html" xlink:title="Discrete Structures" target="_parent">
<path fill="none" stroke="#b75867" d="M509.5,-384C509.5,-384 411.5,-384 411.5,-384 405.5,-384 399.5,-378 399.5,-372 399.5,-372 399.5,-360 399.5,-360 399.5,-354 405.5,-348 411.5,-348 411.5,-348 509.5,-348 509.5,-348 515.5,-348 521.5,-354 521.5,-360 521.5,-360 521.5,-372 521.5,-372 521.5,-378 515.5,-384 509.5,-384"/>
<text text-anchor="middle" x="460.5" y="-362.9" font-family="sans" font-size="12.00" fill="#c4c7c7">Discrete Structures</text>
</a>
</g>
</g>
<!-- Relations&#45;&gt;Discrete Structures -->
<g id="edge39" class="edge">
<title>Relations&#45;&gt;Discrete Structures</title>
<path fill="none" stroke="#ffffff" d="M321.42,-321.24C332.57,-329.54 345.81,-338.18 359,-344 371.58,-349.55 385.69,-353.75 399.26,-356.91"/>
<polygon fill="#ffffff" stroke="#ffffff" points="323.39,-318.35 313.33,-315.02 319.12,-323.9 323.39,-318.35"/>
</g>
<!-- Partial order&#45;&gt;Anti&#45;symmetric Relation -->
<g id="edge41" class="edge">
<title>Partial order&#45;&gt;Anti&#45;symmetric Relation</title>
<path fill="none" stroke="#b75867" d="M417.45,-452.54C370.39,-457.52 292.77,-459.86 232,-435 174.02,-411.29 123.1,-356.29 96.53,-323.33"/>
<polygon fill="#b75867" stroke="#b75867" points="98.94,-320.74 90,-315.06 93.45,-325.08 98.94,-320.74"/>
</g>
<!-- Partial order&#45;&gt;Relation -->
<g id="edge43" class="edge">
<title>Partial order&#45;&gt;Relation</title>
<path fill="none" stroke="#b75867" d="M417.25,-444.4C353.36,-441.22 238.82,-434.05 232,-428 208.12,-406.8 198.22,-312.73 194.69,-264.99"/>
<polygon fill="#b75867" stroke="#b75867" points="198.18,-264.74 193.99,-255.01 191.2,-265.22 198.18,-264.74"/>
</g>
<!-- Partial order&#45;&gt;Relations -->
<g id="edge45" class="edge">
<title>Partial order&#45;&gt;Relations</title>
<path fill="none" stroke="#ffffff" d="M407.23,-444.18C390.5,-441.2 372.76,-435.5 359,-425 322.4,-397.06 303.97,-343.18 296.56,-315.06"/>
<polygon fill="#ffffff" stroke="#ffffff" points="407.07,-447.7 417.48,-445.7 408.1,-440.77 407.07,-447.7"/>
</g>
<!-- Partial order&#45;&gt;Transitive Relation -->
<g id="edge40" class="edge">
<title>Partial order&#45;&gt;Transitive Relation</title>
<path fill="none" stroke="#b75867" d="M503.54,-440.12C521.92,-436.71 543.48,-431.55 562,-424 565.88,-422.42 566.13,-420.6 570,-419 578.31,-415.56 587.26,-412.6 596.24,-410.07"/>
<polygon fill="#b75867" stroke="#b75867" points="597.19,-413.44 605.95,-407.5 595.39,-406.68 597.19,-413.44"/>
</g>
<!-- Partial order&#45;&gt;Reflexive Relation -->
<g id="edge42" class="edge">
<title>Partial order&#45;&gt;Reflexive Relation</title>
<path fill="none" stroke="#b75867" d="M503.64,-446.11C523.97,-443.9 547.11,-437.67 562,-422 575.39,-407.91 558.83,-394.91 570,-379 579.6,-365.32 593.7,-354.48 608.13,-346.11"/>
<polygon fill="#b75867" stroke="#b75867" points="610.01,-349.08 617.12,-341.23 606.67,-342.93 610.01,-349.08"/>
</g>
<!-- Partial order&#45;&gt;Linear order -->
<g id="edge46" class="edge">
<title>Partial order&#45;&gt;Linear order</title>
<path fill="none" stroke="#ffffff" d="M514.01,-445.54C531.82,-442.6 550.17,-435.95 562,-422 578.42,-402.63 553.5,-327.31 570,-308 582.93,-292.87 603.99,-286.97 623.05,-285.03"/>
<polygon fill="#ffffff" stroke="#ffffff" points="513.12,-442.13 503.65,-446.88 514.01,-449.07 513.12,-442.13"/>
</g>
<!-- Partial order&#45;&gt;Linear extension -->
<g id="edge44" class="edge">
<title>Partial order&#45;&gt;Linear extension</title>
<path fill="none" stroke="#ffffff" d="M513.99,-442.91C543.82,-441.16 581.12,-438.96 611.25,-437.19"/>
<polygon fill="#ffffff" stroke="#ffffff" points="513.55,-439.43 503.77,-443.51 513.96,-446.42 513.55,-439.43"/>
</g>
<!-- Partial orders have no contours -->
<g id="node22" class="node">
<title>Partial orders have no contours</title>
<g id="a_node22"><a xlink:href="../Partial orders have no contours.html" xlink:title="Partial orders have no contours" target="_parent">
<path fill="none" stroke="#b75867" d="M751,-489C751,-489 582,-489 582,-489 576,-489 570,-483 570,-477 570,-477 570,-465 570,-465 570,-459 576,-453 582,-453 582,-453 751,-453 751,-453 757,-453 763,-459 763,-465 763,-465 763,-477 763,-477 763,-483 757,-489 751,-489"/>
<text text-anchor="middle" x="666.5" y="-467.9" font-family="sans" font-size="12.00" fill="#c4c7c7">Partial orders have no contours</text>
</a>
</g>
</g>
<!-- Partial order&#45;&gt;Partial orders have no contours -->
<g id="edge47" class="edge">
<title>Partial order&#45;&gt;Partial orders have no contours</title>
<path fill="none" stroke="#ffffff" d="M514.06,-452.44C531.14,-454.53 550.65,-456.93 569.87,-459.28"/>
<polygon fill="#ffffff" stroke="#ffffff" points="514.12,-448.92 503.77,-451.18 513.27,-455.87 514.12,-448.92"/>
</g>
</g>
</svg>
