<?xml version="1.0" encoding="UTF-8" standalone="no"?>
<!DOCTYPE svg PUBLIC "-//W3C//DTD SVG 1.1//EN"
 "http://www.w3.org/Graphics/SVG/1.1/DTD/svg11.dtd">
<!-- Generated by graphviz version 2.44.0 (0)
 -->
<!-- Title: Anti&#45;reflexive relation Pages: 1 -->
<svg width="2340pt" height="188pt"
 viewBox="0.00 0.00 2340.42 188.00" xmlns="http://www.w3.org/2000/svg" xmlns:xlink="http://www.w3.org/1999/xlink">
<g id="page0,1_graph0" class="graph" transform="scale(1 1) rotate(0) translate(4 184)">
<title>Anti&#45;reflexive relation</title>
<polygon fill="#132020" stroke="transparent" points="-4,4 -4,-184 2336.42,-184 2336.42,4 -4,4"/>
<!-- Anti&#45;reflexive relation -->
<g id="node1" class="node">
<title>Anti&#45;reflexive relation</title>
<g id="a_node1"><a xlink:href="../Anti-reflexive relation.html" xlink:title="Anti&#45;reflexive relation" target="_parent">
<path fill="#273434" stroke="#b75867" d="M721.48,-180C721.48,-180 607.48,-180 607.48,-180 601.48,-180 595.48,-174 595.48,-168 595.48,-168 595.48,-156 595.48,-156 595.48,-150 601.48,-144 607.48,-144 607.48,-144 721.48,-144 721.48,-144 727.48,-144 733.48,-150 733.48,-156 733.48,-156 733.48,-168 733.48,-168 733.48,-174 727.48,-180 721.48,-180"/>
<text text-anchor="middle" x="664.48" y="-158.9" font-family="sans" font-size="12.00" fill="#c4c7c7">Anti&#45;reflexive relation</text>
</a>
</g>
</g>
<!-- Relation -->
<g id="node2" class="node">
<title>Relation</title>
<g id="a_node2"><a xlink:href="../Relation.html" xlink:title="Relation" target="_parent">
<path fill="#273434" stroke="#b75867" d="M1200.48,-108C1200.48,-108 1160.48,-108 1160.48,-108 1154.48,-108 1148.48,-102 1148.48,-96 1148.48,-96 1148.48,-84 1148.48,-84 1148.48,-78 1154.48,-72 1160.48,-72 1160.48,-72 1200.48,-72 1200.48,-72 1206.48,-72 1212.48,-78 1212.48,-84 1212.48,-84 1212.48,-96 1212.48,-96 1212.48,-102 1206.48,-108 1200.48,-108"/>
<text text-anchor="middle" x="1180.48" y="-86.9" font-family="sans" font-size="12.00" fill="#c4c7c7">Relation</text>
</a>
</g>
</g>
<!-- Anti&#45;reflexive relation&#45;&gt;Relation -->
<g id="edge1" class="edge">
<title>Anti&#45;reflexive relation&#45;&gt;Relation</title>
<path fill="none" stroke="#b75867" d="M733.53,-151.63C842.1,-136.9 1049.49,-108.77 1138.35,-96.71"/>
<polygon fill="#b75867" stroke="#b75867" points="1138.9,-100.17 1148.34,-95.36 1137.96,-93.24 1138.9,-100.17"/>
</g>
<!-- Relations -->
<g id="node4" class="node">
<title>Relations</title>
<g id="a_node4"><a xlink:href="../Relations.html" xlink:title="Relations" target="_parent">
<ellipse fill="#273434" stroke="#b75867" cx="42.48" cy="-18" rx="42.45" ry="18"/>
<text text-anchor="middle" x="42.48" y="-14.9" font-family="sans" font-size="12.00" fill="#c4c7c7">Relations</text>
</a>
</g>
</g>
<!-- Anti&#45;reflexive relation&#45;&gt;Relations -->
<g id="edge3" class="edge">
<title>Anti&#45;reflexive relation&#45;&gt;Relations</title>
<path fill="none" stroke="#ffffff" d="M585.25,-146.42C474.39,-125.39 267.1,-83.8 93.48,-36 87.18,-34.27 80.51,-32.21 74.15,-30.14"/>
<polygon fill="#ffffff" stroke="#ffffff" points="584.87,-149.91 595.34,-148.33 586.17,-143.03 584.87,-149.91"/>
</g>
<!-- Descartes Product -->
<g id="node3" class="node">
<title>Descartes Product</title>
<g id="a_node3"><a xlink:href="../Descartes Product.html" xlink:title="Descartes Product" target="_parent">
<path fill="#273434" stroke="#b75867" d="M209.98,-36C209.98,-36 114.98,-36 114.98,-36 108.98,-36 102.98,-30 102.98,-24 102.98,-24 102.98,-12 102.98,-12 102.98,-6 108.98,0 114.98,0 114.98,0 209.98,0 209.98,0 215.98,0 221.98,-6 221.98,-12 221.98,-12 221.98,-24 221.98,-24 221.98,-30 215.98,-36 209.98,-36"/>
<text text-anchor="middle" x="162.48" y="-14.9" font-family="sans" font-size="12.00" fill="#c4c7c7">Descartes Product</text>
</a>
</g>
</g>
<!-- Relation&#45;&gt;Descartes Product -->
<g id="edge2" class="edge">
<title>Relation&#45;&gt;Descartes Product</title>
<path fill="none" stroke="#b75867" d="M1148.23,-88.02C1006.02,-83.58 433.44,-64.38 232.21,-36.06"/>
<polygon fill="#b75867" stroke="#b75867" points="232.45,-32.56 222.05,-34.57 231.44,-39.48 232.45,-32.56"/>
</g>
<!-- Relation&#45;&gt;Relations -->
<g id="edge14" class="edge">
<title>Relation&#45;&gt;Relations</title>
<path fill="none" stroke="#ffffff" d="M1138.37,-87.63C950.98,-81.42 197.42,-55.48 93.48,-36 86.69,-34.73 79.56,-32.77 72.86,-30.63"/>
<polygon fill="#ffffff" stroke="#ffffff" points="1138.28,-91.13 1148.39,-87.96 1138.51,-84.13 1138.28,-91.13"/>
</g>
<!-- Anti&#45;symmetric Relation -->
<g id="node5" class="node">
<title>Anti&#45;symmetric Relation</title>
<g id="a_node5"><a xlink:href="../Anti-symmetric Relation.html" xlink:title="Anti&#45;symmetric Relation" target="_parent">
<ellipse fill="#273434" stroke="#b75867" cx="333.48" cy="-18" rx="93.64" ry="18"/>
<text text-anchor="middle" x="333.48" y="-14.9" font-family="sans" font-size="12.00" fill="#c4c7c7">Anti&#45;symmetric Relation</text>
</a>
</g>
</g>
<!-- Relation&#45;&gt;Anti&#45;symmetric Relation -->
<g id="edge4" class="edge">
<title>Relation&#45;&gt;Anti&#45;symmetric Relation</title>
<path fill="none" stroke="#ffffff" d="M1138.4,-87.4C1024.72,-82.76 702.06,-67.63 435.48,-36 423.71,-34.6 411.23,-32.8 399.19,-30.89"/>
<polygon fill="#ffffff" stroke="#ffffff" points="1138.29,-90.89 1148.42,-87.8 1138.57,-83.9 1138.29,-90.89"/>
</g>
<!-- Symmetric Relation -->
<g id="node6" class="node">
<title>Symmetric Relation</title>
<g id="a_node6"><a xlink:href="../Symmetric Relation.html" xlink:title="Symmetric Relation" target="_parent">
<ellipse fill="#273434" stroke="#b75867" cx="523.48" cy="-18" rx="78.59" ry="18"/>
<text text-anchor="middle" x="523.48" y="-14.9" font-family="sans" font-size="12.00" fill="#c4c7c7">Symmetric Relation</text>
</a>
</g>
</g>
<!-- Relation&#45;&gt;Symmetric Relation -->
<g id="edge5" class="edge">
<title>Relation&#45;&gt;Symmetric Relation</title>
<path fill="none" stroke="#ffffff" d="M1138.22,-86.49C1043.57,-80.54 807.44,-63.99 611.48,-36 601.15,-34.53 590.21,-32.66 579.67,-30.71"/>
<polygon fill="#ffffff" stroke="#ffffff" points="1138.06,-89.98 1148.26,-87.11 1138.5,-83 1138.06,-89.98"/>
</g>
<!-- Transitive Relation -->
<g id="node7" class="node">
<title>Transitive Relation</title>
<g id="a_node7"><a xlink:href="../Transitive Relation.html" xlink:title="Transitive Relation" target="_parent">
<ellipse fill="#273434" stroke="#b75867" cx="694.48" cy="-18" rx="74.47" ry="18"/>
<text text-anchor="middle" x="694.48" y="-14.9" font-family="sans" font-size="12.00" fill="#c4c7c7">Transitive Relation</text>
</a>
</g>
</g>
<!-- Relation&#45;&gt;Transitive Relation -->
<g id="edge6" class="edge">
<title>Relation&#45;&gt;Transitive Relation</title>
<path fill="none" stroke="#ffffff" d="M1138.09,-84.38C1064.63,-76.16 909.02,-57.79 778.48,-36 768.79,-34.38 758.51,-32.47 748.6,-30.52"/>
<polygon fill="#ffffff" stroke="#ffffff" points="1137.99,-87.89 1148.32,-85.52 1138.77,-80.93 1137.99,-87.89"/>
</g>
<!-- Reflexive Relation -->
<g id="node8" class="node">
<title>Reflexive Relation</title>
<g id="a_node8"><a xlink:href="../Reflexive Relation.html" xlink:title="Reflexive Relation" target="_parent">
<ellipse fill="#273434" stroke="#b75867" cx="859.48" cy="-18" rx="72.05" ry="18"/>
<text text-anchor="middle" x="859.48" y="-14.9" font-family="sans" font-size="12.00" fill="#c4c7c7">Reflexive Relation</text>
</a>
</g>
</g>
<!-- Relation&#45;&gt;Reflexive Relation -->
<g id="edge7" class="edge">
<title>Relation&#45;&gt;Reflexive Relation</title>
<path fill="none" stroke="#ffffff" d="M1138.25,-79.79C1079.98,-67.08 974.94,-44.18 911.77,-30.4"/>
<polygon fill="#ffffff" stroke="#ffffff" points="1137.71,-83.26 1148.23,-81.97 1139.2,-76.42 1137.71,-83.26"/>
</g>
<!-- Strongly Anti&#45;symmetric Relation -->
<g id="node9" class="node">
<title>Strongly Anti&#45;symmetric Relation</title>
<g id="a_node9"><a xlink:href="../Strongly Anti-symmetric Relation.html" xlink:title="Strongly Anti&#45;symmetric Relation" target="_parent">
<ellipse fill="#273434" stroke="#b75867" cx="1074.48" cy="-18" rx="124.93" ry="18"/>
<text text-anchor="middle" x="1074.48" y="-14.9" font-family="sans" font-size="12.00" fill="#c4c7c7">Strongly Anti&#45;symmetric Relation</text>
</a>
</g>
</g>
<!-- Relation&#45;&gt;Strongly Anti&#45;symmetric Relation -->
<g id="edge8" class="edge">
<title>Relation&#45;&gt;Strongly Anti&#45;symmetric Relation</title>
<path fill="none" stroke="#ffffff" d="M1145.99,-66.23C1130.94,-56.28 1113.6,-44.84 1099.77,-35.71"/>
<polygon fill="#ffffff" stroke="#ffffff" points="1144.27,-69.29 1154.54,-71.88 1148.13,-63.44 1144.27,-69.29"/>
</g>
<!-- Reflexive Closure -->
<g id="node10" class="node">
<title>Reflexive Closure</title>
<g id="a_node10"><a xlink:href="../Reflexive Closure.html" xlink:title="Reflexive Closure" target="_parent">
<ellipse fill="#273434" stroke="#b75867" cx="1287.48" cy="-18" rx="69.62" ry="18"/>
<text text-anchor="middle" x="1287.48" y="-14.9" font-family="sans" font-size="12.00" fill="#c4c7c7">Reflexive Closure</text>
</a>
</g>
</g>
<!-- Relation&#45;&gt;Reflexive Closure -->
<g id="edge9" class="edge">
<title>Relation&#45;&gt;Reflexive Closure</title>
<path fill="none" stroke="#ffffff" d="M1215.05,-66.38C1230.7,-56.14 1248.83,-44.28 1263.04,-34.99"/>
<polygon fill="#ffffff" stroke="#ffffff" points="1213.1,-63.47 1206.65,-71.88 1216.94,-69.33 1213.1,-63.47"/>
</g>
<!-- Symmetric Closure -->
<g id="node11" class="node">
<title>Symmetric Closure</title>
<g id="a_node11"><a xlink:href="../Symmetric Closure.html" xlink:title="Symmetric Closure" target="_parent">
<ellipse fill="#273434" stroke="#b75867" cx="1450.48" cy="-18" rx="75.94" ry="18"/>
<text text-anchor="middle" x="1450.48" y="-14.9" font-family="sans" font-size="12.00" fill="#c4c7c7">Symmetric Closure</text>
</a>
</g>
</g>
<!-- Relation&#45;&gt;Symmetric Closure -->
<g id="edge10" class="edge">
<title>Relation&#45;&gt;Symmetric Closure</title>
<path fill="none" stroke="#ffffff" d="M1222.32,-78.15C1270.58,-65.64 1349.86,-45.09 1401.11,-31.8"/>
<polygon fill="#ffffff" stroke="#ffffff" points="1221.31,-74.8 1212.51,-80.7 1223.07,-81.57 1221.31,-74.8"/>
</g>
<!-- Relation of Equivalence -->
<g id="node12" class="node">
<title>Relation of Equivalence</title>
<g id="a_node12"><a xlink:href="../Relation of Equivalence.html" xlink:title="Relation of Equivalence" target="_parent">
<ellipse fill="#273434" stroke="#b75867" cx="1635.48" cy="-18" rx="91.95" ry="18"/>
<text text-anchor="middle" x="1635.48" y="-14.9" font-family="sans" font-size="12.00" fill="#c4c7c7">Relation of Equivalence</text>
</a>
</g>
</g>
<!-- Relation&#45;&gt;Relation of Equivalence -->
<g id="edge11" class="edge">
<title>Relation&#45;&gt;Relation of Equivalence</title>
<path fill="none" stroke="#ffffff" d="M1222.92,-82.95C1289.56,-73.38 1422.74,-54 1535.48,-36 1546.34,-34.27 1557.87,-32.36 1569.08,-30.48"/>
<polygon fill="#ffffff" stroke="#ffffff" points="1222.22,-79.51 1212.81,-84.39 1223.21,-86.44 1222.22,-79.51"/>
</g>
<!-- Chain -->
<g id="node13" class="node">
<title>Chain</title>
<g id="a_node13"><a xlink:href="../Chain.html" xlink:title="Chain" target="_parent">
<ellipse fill="#273434" stroke="#b75867" cx="1775.48" cy="-18" rx="30.33" ry="18"/>
<text text-anchor="middle" x="1775.48" y="-14.9" font-family="sans" font-size="12.00" fill="#c4c7c7">Chain</text>
</a>
</g>
</g>
<!-- Relation&#45;&gt;Chain -->
<g id="edge12" class="edge">
<title>Relation&#45;&gt;Chain</title>
<path fill="none" stroke="#ffffff" d="M1223,-89.47C1317.13,-89.54 1549.59,-84.33 1736.48,-36 1741.91,-34.59 1747.56,-32.53 1752.81,-30.31"/>
<polygon fill="#ffffff" stroke="#ffffff" points="1222.75,-85.97 1212.74,-89.44 1222.73,-92.97 1222.75,-85.97"/>
</g>
<!-- Partial function -->
<g id="node14" class="node">
<title>Partial function</title>
<g id="a_node14"><a xlink:href="../Partial function.html" xlink:title="Partial function" target="_parent">
<ellipse fill="#273434" stroke="#b75867" cx="1887.48" cy="-18" rx="63.31" ry="18"/>
<text text-anchor="middle" x="1887.48" y="-14.9" font-family="sans" font-size="12.00" fill="#c4c7c7">Partial function</text>
</a>
</g>
</g>
<!-- Relation&#45;&gt;Partial function -->
<g id="edge13" class="edge">
<title>Relation&#45;&gt;Partial function</title>
<path fill="none" stroke="#ffffff" d="M1222.9,-87.58C1325.21,-83.71 1593.44,-70.79 1814.48,-36 1823.47,-34.58 1833.01,-32.67 1842.12,-30.64"/>
<polygon fill="#ffffff" stroke="#ffffff" points="1222.53,-84.1 1212.67,-87.96 1222.79,-91.09 1222.53,-84.1"/>
</g>
<!-- Linear order -->
<g id="node15" class="node">
<title>Linear order</title>
<g id="a_node15"><a xlink:href="../Linear order.html" xlink:title="Linear order" target="_parent">
<ellipse fill="#273434" stroke="#b75867" cx="2021.48" cy="-18" rx="52.88" ry="18"/>
<text text-anchor="middle" x="2021.48" y="-14.9" font-family="sans" font-size="12.00" fill="#c4c7c7">Linear order</text>
</a>
</g>
</g>
<!-- Relation&#45;&gt;Linear order -->
<g id="edge15" class="edge">
<title>Relation&#45;&gt;Linear order</title>
<path fill="none" stroke="#ffffff" d="M1222.68,-89.08C1340.26,-88.66 1681.19,-83.13 1959.48,-36 1967.4,-34.66 1975.77,-32.73 1983.71,-30.64"/>
<polygon fill="#ffffff" stroke="#ffffff" points="1222.64,-85.58 1212.65,-89.1 1222.66,-92.58 1222.64,-85.58"/>
</g>
<!-- Total function -->
<g id="node16" class="node">
<title>Total function</title>
<g id="a_node16"><a xlink:href="../Total function.html" xlink:title="Total function" target="_parent">
<ellipse fill="#273434" stroke="#b75867" cx="2150.48" cy="-18" rx="58.46" ry="18"/>
<text text-anchor="middle" x="2150.48" y="-14.9" font-family="sans" font-size="12.00" fill="#c4c7c7">Total function</text>
</a>
</g>
</g>
<!-- Relation&#45;&gt;Total function -->
<g id="edge16" class="edge">
<title>Relation&#45;&gt;Total function</title>
<path fill="none" stroke="#ffffff" d="M1222.99,-89.36C1352.81,-89.84 1755.16,-86.81 2083.48,-36 2091.78,-34.72 2100.55,-32.86 2108.91,-30.85"/>
<polygon fill="#ffffff" stroke="#ffffff" points="1222.72,-85.86 1212.7,-89.31 1222.68,-92.86 1222.72,-85.86"/>
</g>
<!-- Partial order -->
<g id="node17" class="node">
<title>Partial order</title>
<g id="a_node17"><a xlink:href="../Partial order.html" xlink:title="Partial order" target="_parent">
<ellipse fill="#273434" stroke="#b75867" cx="2279.48" cy="-18" rx="52.88" ry="18"/>
<text text-anchor="middle" x="2279.48" y="-14.9" font-family="sans" font-size="12.00" fill="#c4c7c7">Partial order</text>
</a>
</g>
</g>
<!-- Relation&#45;&gt;Partial order -->
<g id="edge17" class="edge">
<title>Relation&#45;&gt;Partial order</title>
<path fill="none" stroke="#ffffff" d="M1222.58,-88.06C1391.58,-84.12 2020.91,-67.59 2217.48,-36 2225.41,-34.72 2233.79,-32.82 2241.73,-30.75"/>
<polygon fill="#ffffff" stroke="#ffffff" points="1222.5,-84.57 1212.58,-88.3 1222.66,-91.56 1222.5,-84.57"/>
</g>
</g>
</svg>
