<?xml version="1.0" encoding="UTF-8" standalone="no"?>
<!DOCTYPE svg PUBLIC "-//W3C//DTD SVG 1.1//EN"
 "http://www.w3.org/Graphics/SVG/1.1/DTD/svg11.dtd">
<!-- Generated by graphviz version 2.44.0 (0)
 -->
<!-- Title: Bad Habit Pages: 1 -->
<svg width="578pt" height="188pt"
 viewBox="0.00 0.00 577.78 188.00" xmlns="http://www.w3.org/2000/svg" xmlns:xlink="http://www.w3.org/1999/xlink">
<g id="page0,1_graph0" class="graph" transform="scale(1 1) rotate(0) translate(4 184)">
<title>Bad Habit</title>
<polygon fill="#132020" stroke="transparent" points="-4,4 -4,-184 573.78,-184 573.78,4 -4,4"/>
<!-- Bad Habit -->
<g id="node1" class="node">
<title>Bad Habit</title>
<g id="a_node1"><a xlink:href="../Bad Habit.html" xlink:title="Bad Habit" target="_parent">
<path fill="#273434" stroke="#b75867" d="M311.5,-180C311.5,-180 262.5,-180 262.5,-180 256.5,-180 250.5,-174 250.5,-168 250.5,-168 250.5,-156 250.5,-156 250.5,-150 256.5,-144 262.5,-144 262.5,-144 311.5,-144 311.5,-144 317.5,-144 323.5,-150 323.5,-156 323.5,-156 323.5,-168 323.5,-168 323.5,-174 317.5,-180 311.5,-180"/>
<text text-anchor="middle" x="287" y="-158.9" font-family="sans" font-size="12.00" fill="#c4c7c7">Bad Habit</text>
</a>
</g>
</g>
<!-- Projects -->
<g id="node2" class="node">
<title>Projects</title>
<g id="a_node2"><a xlink:href="../Projects.html" xlink:title="Projects" target="_parent">
<path fill="#273434" stroke="#b75867" d="M254,-108C254,-108 216,-108 216,-108 210,-108 204,-102 204,-96 204,-96 204,-84 204,-84 204,-78 210,-72 216,-72 216,-72 254,-72 254,-72 260,-72 266,-78 266,-84 266,-84 266,-96 266,-96 266,-102 260,-108 254,-108"/>
<text text-anchor="middle" x="235" y="-86.9" font-family="sans" font-size="12.00" fill="#c4c7c7">Projects</text>
</a>
</g>
</g>
<!-- Bad Habit&#45;&gt;Projects -->
<g id="edge1" class="edge">
<title>Bad Habit&#45;&gt;Projects</title>
<path fill="none" stroke="#b75867" d="M274.15,-143.7C267.97,-135.39 260.46,-125.28 253.68,-116.14"/>
<polygon fill="#b75867" stroke="#b75867" points="256.48,-114.04 247.71,-108.1 250.86,-118.22 256.48,-114.04"/>
</g>
<!-- Org Roam -->
<g id="node7" class="node">
<title>Org Roam</title>
<g id="a_node7"><a xlink:href="../Org Roam.html" xlink:title="Org Roam" target="_parent">
<path fill="#273434" stroke="#b75867" d="M416,-108C416,-108 368,-108 368,-108 362,-108 356,-102 356,-96 356,-96 356,-84 356,-84 356,-78 362,-72 368,-72 368,-72 416,-72 416,-72 422,-72 428,-78 428,-84 428,-84 428,-96 428,-96 428,-102 422,-108 416,-108"/>
<text text-anchor="middle" x="392" y="-86.9" font-family="sans" font-size="12.00" fill="#c4c7c7">Org Roam</text>
</a>
</g>
</g>
<!-- Bad Habit&#45;&gt;Org Roam -->
<g id="edge2" class="edge">
<title>Bad Habit&#45;&gt;Org Roam</title>
<path fill="none" stroke="#b75867" d="M312.69,-143.88C326.29,-134.81 343.17,-123.55 357.86,-113.76"/>
<polygon fill="#b75867" stroke="#b75867" points="359.84,-116.65 366.22,-108.19 355.95,-110.82 359.84,-116.65"/>
</g>
<!-- pulsebinder -->
<g id="node3" class="node">
<title>pulsebinder</title>
<g id="a_node3"><a xlink:href="../pulsebinder.html" xlink:title="pulsebinder" target="_parent">
<path fill="#273434" stroke="#b75867" d="M72,-36C72,-36 12,-36 12,-36 6,-36 0,-30 0,-24 0,-24 0,-12 0,-12 0,-6 6,0 12,0 12,0 72,0 72,0 78,0 84,-6 84,-12 84,-12 84,-24 84,-24 84,-30 78,-36 72,-36"/>
<text text-anchor="middle" x="42" y="-14.9" font-family="sans" font-size="12.00" fill="#c4c7c7">pulsebinder</text>
</a>
</g>
</g>
<!-- Projects&#45;&gt;pulsebinder -->
<g id="edge3" class="edge">
<title>Projects&#45;&gt;pulsebinder</title>
<path fill="none" stroke="#b75867" d="M203.99,-77.75C174.28,-66.98 128.9,-50.52 93.72,-37.76"/>
<polygon fill="#b75867" stroke="#b75867" points="94.68,-34.38 84.09,-34.27 92.3,-40.97 94.68,-34.38"/>
</g>
<!-- kaltemplate -->
<g id="node4" class="node">
<title>kaltemplate</title>
<g id="a_node4"><a xlink:href="../kaltemplate.html" xlink:title="kaltemplate" target="_parent">
<path fill="#273434" stroke="#b75867" d="M176,-36C176,-36 114,-36 114,-36 108,-36 102,-30 102,-24 102,-24 102,-12 102,-12 102,-6 108,0 114,0 114,0 176,0 176,0 182,0 188,-6 188,-12 188,-12 188,-24 188,-24 188,-30 182,-36 176,-36"/>
<text text-anchor="middle" x="145" y="-14.9" font-family="sans" font-size="12.00" fill="#c4c7c7">kaltemplate</text>
</a>
</g>
</g>
<!-- Projects&#45;&gt;kaltemplate -->
<g id="edge4" class="edge">
<title>Projects&#45;&gt;kaltemplate</title>
<path fill="none" stroke="#b75867" d="M212.75,-71.7C201.42,-62.88 187.47,-52.03 175.18,-42.47"/>
<polygon fill="#b75867" stroke="#b75867" points="177.03,-39.48 166.99,-36.1 172.74,-45.01 177.03,-39.48"/>
</g>
<!-- kaltask -->
<g id="node5" class="node">
<title>kaltask</title>
<g id="a_node5"><a xlink:href="../kaltask.html" xlink:title="kaltask" target="_parent">
<path fill="#273434" stroke="#b75867" d="M251.5,-36C251.5,-36 218.5,-36 218.5,-36 212.5,-36 206.5,-30 206.5,-24 206.5,-24 206.5,-12 206.5,-12 206.5,-6 212.5,0 218.5,0 218.5,0 251.5,0 251.5,0 257.5,0 263.5,-6 263.5,-12 263.5,-12 263.5,-24 263.5,-24 263.5,-30 257.5,-36 251.5,-36"/>
<text text-anchor="middle" x="235" y="-14.9" font-family="sans" font-size="12.00" fill="#c4c7c7">kaltask</text>
</a>
</g>
</g>
<!-- Projects&#45;&gt;kaltask -->
<g id="edge5" class="edge">
<title>Projects&#45;&gt;kaltask</title>
<path fill="none" stroke="#b75867" d="M235,-71.7C235,-63.98 235,-54.71 235,-46.11"/>
<polygon fill="#b75867" stroke="#b75867" points="238.5,-46.1 235,-36.1 231.5,-46.1 238.5,-46.1"/>
</g>
<!-- Knowledege Base -->
<g id="node6" class="node">
<title>Knowledege Base</title>
<g id="a_node6"><a xlink:href="../Knowledege Base.html" xlink:title="Knowledege Base" target="_parent">
<path fill="#273434" stroke="#b75867" d="M386.5,-36C386.5,-36 293.5,-36 293.5,-36 287.5,-36 281.5,-30 281.5,-24 281.5,-24 281.5,-12 281.5,-12 281.5,-6 287.5,0 293.5,0 293.5,0 386.5,0 386.5,0 392.5,0 398.5,-6 398.5,-12 398.5,-12 398.5,-24 398.5,-24 398.5,-30 392.5,-36 386.5,-36"/>
<text text-anchor="middle" x="340" y="-14.9" font-family="sans" font-size="12.00" fill="#c4c7c7">Knowledege Base</text>
</a>
</g>
</g>
<!-- Projects&#45;&gt;Knowledege Base -->
<g id="edge6" class="edge">
<title>Projects&#45;&gt;Knowledege Base</title>
<path fill="none" stroke="#b75867" d="M260.69,-71.88C274.29,-62.81 291.17,-51.55 305.86,-41.76"/>
<polygon fill="#b75867" stroke="#b75867" points="307.84,-44.65 314.22,-36.19 303.95,-38.82 307.84,-44.65"/>
</g>
<!-- Org Roam&#45;&gt;Knowledege Base -->
<g id="edge9" class="edge">
<title>Org Roam&#45;&gt;Knowledege Base</title>
<path fill="none" stroke="#ffffff" d="M373.16,-63.64C366.36,-54.49 358.86,-44.38 352.71,-36.1"/>
<polygon fill="#ffffff" stroke="#ffffff" points="370.37,-65.76 379.15,-71.7 375.99,-61.58 370.37,-65.76"/>
</g>
<!-- index -->
<g id="node8" class="node">
<title>index</title>
<g id="a_node8"><a xlink:href="../index.html" xlink:title="index" target="_parent">
<ellipse fill="#273434" stroke="#b75867" cx="445" cy="-18" rx="28.87" ry="18"/>
<text text-anchor="middle" x="445" y="-14.9" font-family="sans" font-size="12.00" fill="#c4c7c7">index</text>
</a>
</g>
</g>
<!-- Org Roam&#45;&gt;index -->
<g id="edge7" class="edge">
<title>Org Roam&#45;&gt;index</title>
<path fill="none" stroke="#ffffff" d="M411.26,-63.56C418.58,-53.89 426.7,-43.17 433.13,-34.67"/>
<polygon fill="#ffffff" stroke="#ffffff" points="408.35,-61.61 405.1,-71.7 413.93,-65.84 408.35,-61.61"/>
</g>
<!-- README -->
<g id="node9" class="node">
<title>README</title>
<g id="a_node9"><a xlink:href="../README.html" xlink:title="README" target="_parent">
<ellipse fill="#273434" stroke="#b75867" cx="531" cy="-18" rx="38.57" ry="18"/>
<text text-anchor="middle" x="531" y="-14.9" font-family="sans" font-size="12.00" fill="#c4c7c7">README</text>
</a>
</g>
</g>
<!-- Org Roam&#45;&gt;README -->
<g id="edge8" class="edge">
<title>Org Roam&#45;&gt;README</title>
<path fill="none" stroke="#ffffff" d="M434.95,-67.37C458.12,-55.7 485.91,-41.7 505.63,-31.78"/>
<polygon fill="#ffffff" stroke="#ffffff" points="433.36,-64.25 426,-71.88 436.51,-70.5 433.36,-64.25"/>
</g>
</g>
</svg>
