<?xml version="1.0" encoding="UTF-8" standalone="no"?>
<!DOCTYPE svg PUBLIC "-//W3C//DTD SVG 1.1//EN"
 "http://www.w3.org/Graphics/SVG/1.1/DTD/svg11.dtd">
<!-- Generated by graphviz version 2.44.0 (0)
 -->
<!-- Title: Chain Pages: 1 -->
<svg width="2032pt" height="332pt"
 viewBox="0.00 0.00 2032.25 332.00" xmlns="http://www.w3.org/2000/svg" xmlns:xlink="http://www.w3.org/1999/xlink">
<g id="page0,1_graph0" class="graph" transform="scale(1 1) rotate(0) translate(4 328)">
<title>Chain</title>
<polygon fill="#132020" stroke="transparent" points="-4,4 -4,-328 2028.25,-328 2028.25,4 -4,4"/>
<!-- Chain -->
<g id="node1" class="node">
<title>Chain</title>
<g id="a_node1"><a xlink:title="Chain">
<path fill="#273434" stroke="#b75867" d="M229.5,-324C229.5,-324 199.5,-324 199.5,-324 193.5,-324 187.5,-318 187.5,-312 187.5,-312 187.5,-300 187.5,-300 187.5,-294 193.5,-288 199.5,-288 199.5,-288 229.5,-288 229.5,-288 235.5,-288 241.5,-294 241.5,-300 241.5,-300 241.5,-312 241.5,-312 241.5,-318 235.5,-324 229.5,-324"/>
<text text-anchor="middle" x="214.5" y="-302.9" font-family="sans" font-size="12.00" fill="#c4c7c7">Chain</text>
</a>
</g>
</g>
<!-- Partial orders have no contours -->
<g id="node2" class="node">
<title>Partial orders have no contours</title>
<g id="a_node2"><a xlink:title="Partial orders have no contours">
<path fill="#273434" stroke="#b75867" d="M299,-252C299,-252 130,-252 130,-252 124,-252 118,-246 118,-240 118,-240 118,-228 118,-228 118,-222 124,-216 130,-216 130,-216 299,-216 299,-216 305,-216 311,-222 311,-228 311,-228 311,-240 311,-240 311,-246 305,-252 299,-252"/>
<text text-anchor="middle" x="214.5" y="-230.9" font-family="sans" font-size="12.00" fill="#c4c7c7">Partial orders have no contours</text>
</a>
</g>
</g>
<!-- Chain&#45;&gt;Partial orders have no contours -->
<g id="edge1" class="edge">
<title>Chain&#45;&gt;Partial orders have no contours</title>
<path fill="none" stroke="#b75867" d="M214.5,-287.7C214.5,-279.98 214.5,-270.71 214.5,-262.11"/>
<polygon fill="#b75867" stroke="#b75867" points="218,-262.1 214.5,-252.1 211,-262.1 218,-262.1"/>
</g>
<!-- Contour -->
<g id="node3" class="node">
<title>Contour</title>
<g id="a_node3"><a xlink:title="Contour">
<path fill="#273434" stroke="#b75867" d="M51,-180C51,-180 12,-180 12,-180 6,-180 0,-174 0,-168 0,-168 0,-156 0,-156 0,-150 6,-144 12,-144 12,-144 51,-144 51,-144 57,-144 63,-150 63,-156 63,-156 63,-168 63,-168 63,-174 57,-180 51,-180"/>
<text text-anchor="middle" x="31.5" y="-158.9" font-family="sans" font-size="12.00" fill="#c4c7c7">Contour</text>
</a>
</g>
</g>
<!-- Chain&#45;&gt;Contour -->
<g id="edge2" class="edge">
<title>Chain&#45;&gt;Contour</title>
<path fill="none" stroke="#b75867" d="M187.41,-297.57C162.59,-288.83 126.31,-272.83 99.5,-252 76.24,-233.93 54.76,-207.98 42.04,-188.77"/>
<polygon fill="#b75867" stroke="#b75867" points="44.95,-186.82 36.68,-180.2 39.01,-190.53 44.95,-186.82"/>
</g>
<!-- Relation -->
<g id="node7" class="node">
<title>Relation</title>
<g id="a_node7"><a xlink:title="Relation">
<path fill="#273434" stroke="#b75867" d="M1210.5,-252C1210.5,-252 1170.5,-252 1170.5,-252 1164.5,-252 1158.5,-246 1158.5,-240 1158.5,-240 1158.5,-228 1158.5,-228 1158.5,-222 1164.5,-216 1170.5,-216 1170.5,-216 1210.5,-216 1210.5,-216 1216.5,-216 1222.5,-222 1222.5,-228 1222.5,-228 1222.5,-240 1222.5,-240 1222.5,-246 1216.5,-252 1210.5,-252"/>
<text text-anchor="middle" x="1190.5" y="-230.9" font-family="sans" font-size="12.00" fill="#c4c7c7">Relation</text>
</a>
</g>
</g>
<!-- Chain&#45;&gt;Relation -->
<g id="edge3" class="edge">
<title>Chain&#45;&gt;Relation</title>
<path fill="none" stroke="#b75867" d="M241.62,-303.05C377.19,-293.33 981.4,-250 1147.9,-238.06"/>
<polygon fill="#b75867" stroke="#b75867" points="1148.5,-241.52 1158.22,-237.31 1148,-234.54 1148.5,-241.52"/>
</g>
<!-- Relations -->
<g id="node9" class="node">
<title>Relations</title>
<g id="a_node9"><a xlink:title="Relations">
<ellipse fill="#273434" stroke="#b75867" cx="432.5" cy="-18" rx="42.45" ry="18"/>
<text text-anchor="middle" x="432.5" y="-14.9" font-family="sans" font-size="12.00" fill="#c4c7c7">Relations</text>
</a>
</g>
</g>
<!-- Chain&#45;&gt;Relations -->
<g id="edge10" class="edge">
<title>Chain&#45;&gt;Relations</title>
<path fill="none" stroke="#ffffff" d="M251.61,-305.36C495.05,-307.32 1857.32,-312.34 1977.5,-180 2068.58,-79.71 2033.19,-122.37 1807.5,-72 1674.89,-42.41 692.08,-23.55 474.9,-19.72"/>
<polygon fill="#ffffff" stroke="#ffffff" points="251.54,-301.86 241.51,-305.27 251.48,-308.86 251.54,-301.86"/>
</g>
<!-- Partial orders have no contours&#45;&gt;Contour -->
<g id="edge4" class="edge">
<title>Partial orders have no contours&#45;&gt;Contour</title>
<path fill="none" stroke="#b75867" d="M166.62,-215.89C141.03,-206.6 108.8,-194.67 73,-180.53"/>
<polygon fill="#b75867" stroke="#b75867" points="73.91,-177.12 63.32,-176.68 71.32,-183.63 73.91,-177.12"/>
</g>
<!-- Partial order -->
<g id="node4" class="node">
<title>Partial order</title>
<g id="a_node4"><a xlink:title="Partial order">
<path fill="#273434" stroke="#b75867" d="M315.5,-108C315.5,-108 253.5,-108 253.5,-108 247.5,-108 241.5,-102 241.5,-96 241.5,-96 241.5,-84 241.5,-84 241.5,-78 247.5,-72 253.5,-72 253.5,-72 315.5,-72 315.5,-72 321.5,-72 327.5,-78 327.5,-84 327.5,-84 327.5,-96 327.5,-96 327.5,-102 321.5,-108 315.5,-108"/>
<text text-anchor="middle" x="284.5" y="-86.9" font-family="sans" font-size="12.00" fill="#c4c7c7">Partial order</text>
</a>
</g>
</g>
<!-- Partial orders have no contours&#45;&gt;Partial order -->
<g id="edge5" class="edge">
<title>Partial orders have no contours&#45;&gt;Partial order</title>
<path fill="none" stroke="#b75867" d="M221.7,-215.72C229.38,-197.62 242.1,-168.48 254.5,-144 258.99,-135.13 264.23,-125.63 269.06,-117.16"/>
<polygon fill="#b75867" stroke="#b75867" points="272.12,-118.86 274.09,-108.44 266.06,-115.36 272.12,-118.86"/>
</g>
<!-- Transitive Relation -->
<g id="node5" class="node">
<title>Transitive Relation</title>
<g id="a_node5"><a xlink:title="Transitive Relation">
<path fill="#273434" stroke="#b75867" d="M190,-180C190,-180 93,-180 93,-180 87,-180 81,-174 81,-168 81,-168 81,-156 81,-156 81,-150 87,-144 93,-144 93,-144 190,-144 190,-144 196,-144 202,-150 202,-156 202,-156 202,-168 202,-168 202,-174 196,-180 190,-180"/>
<text text-anchor="middle" x="141.5" y="-158.9" font-family="sans" font-size="12.00" fill="#c4c7c7">Transitive Relation</text>
</a>
</g>
</g>
<!-- Partial orders have no contours&#45;&gt;Transitive Relation -->
<g id="edge6" class="edge">
<title>Partial orders have no contours&#45;&gt;Transitive Relation</title>
<path fill="none" stroke="#b75867" d="M196.46,-215.7C187.44,-207.05 176.38,-196.45 166.56,-187.03"/>
<polygon fill="#b75867" stroke="#b75867" points="168.98,-184.5 159.34,-180.1 164.13,-189.55 168.98,-184.5"/>
</g>
<!-- Reflexive Relation -->
<g id="node6" class="node">
<title>Reflexive Relation</title>
<g id="a_node6"><a xlink:title="Reflexive Relation">
<path fill="#273434" stroke="#b75867" d="M402,-180C402,-180 309,-180 309,-180 303,-180 297,-174 297,-168 297,-168 297,-156 297,-156 297,-150 303,-144 309,-144 309,-144 402,-144 402,-144 408,-144 414,-150 414,-156 414,-156 414,-168 414,-168 414,-174 408,-180 402,-180"/>
<text text-anchor="middle" x="355.5" y="-158.9" font-family="sans" font-size="12.00" fill="#c4c7c7">Reflexive Relation</text>
</a>
</g>
</g>
<!-- Partial orders have no contours&#45;&gt;Reflexive Relation -->
<g id="edge7" class="edge">
<title>Partial orders have no contours&#45;&gt;Reflexive Relation</title>
<path fill="none" stroke="#b75867" d="M248.99,-215.88C267.94,-206.47 291.63,-194.71 311.86,-184.67"/>
<polygon fill="#b75867" stroke="#b75867" points="313.47,-187.77 320.87,-180.19 310.36,-181.5 313.47,-187.77"/>
</g>
<!-- Contour&#45;&gt;Chain -->
<g id="edge8" class="edge">
<title>Contour&#45;&gt;Chain</title>
<path fill="none" stroke="#b75867" d="M49.68,-180.2C66,-199.57 90.56,-231.06 117.5,-252 135.98,-266.36 158.98,-278.43 178.03,-287.4"/>
<polygon fill="#b75867" stroke="#b75867" points="176.76,-290.67 187.31,-291.68 179.69,-284.31 176.76,-290.67"/>
</g>
<!-- Partial order&#45;&gt;Relations -->
<g id="edge12" class="edge">
<title>Partial order&#45;&gt;Relations</title>
<path fill="none" stroke="#ffffff" d="M329.85,-67.55C354.41,-55.94 383.95,-41.96 405.02,-32"/>
<polygon fill="#ffffff" stroke="#ffffff" points="328.25,-64.44 320.7,-71.88 331.24,-70.76 328.25,-64.44"/>
</g>
<!-- Linear extension -->
<g id="node10" class="node">
<title>Linear extension</title>
<g id="a_node10"><a xlink:title="Linear extension">
<ellipse fill="#273434" stroke="#b75867" cx="180.5" cy="-18" rx="67.93" ry="18"/>
<text text-anchor="middle" x="180.5" y="-14.9" font-family="sans" font-size="12.00" fill="#c4c7c7">Linear extension</text>
</a>
</g>
</g>
<!-- Partial order&#45;&gt;Linear extension -->
<g id="edge11" class="edge">
<title>Partial order&#45;&gt;Linear extension</title>
<path fill="none" stroke="#ffffff" d="M250.47,-66.1C235.36,-55.92 217.93,-44.2 204.25,-34.99"/>
<polygon fill="#ffffff" stroke="#ffffff" points="248.81,-69.2 259.06,-71.88 252.72,-63.39 248.81,-69.2"/>
</g>
<!-- Linear order -->
<g id="node11" class="node">
<title>Linear order</title>
<g id="a_node11"><a xlink:title="Linear order">
<ellipse fill="#273434" stroke="#b75867" cx="319.5" cy="-18" rx="52.88" ry="18"/>
<text text-anchor="middle" x="319.5" y="-14.9" font-family="sans" font-size="12.00" fill="#c4c7c7">Linear order</text>
</a>
</g>
</g>
<!-- Partial order&#45;&gt;Linear order -->
<g id="edge13" class="edge">
<title>Partial order&#45;&gt;Linear order</title>
<path fill="none" stroke="#ffffff" d="M297.74,-62.51C302.17,-53.67 306.98,-44.04 310.95,-36.1"/>
<polygon fill="#ffffff" stroke="#ffffff" points="294.49,-61.19 293.15,-71.7 300.75,-64.32 294.49,-61.19"/>
</g>
<!-- Transitive Relation&#45;&gt;Partial order -->
<g id="edge18" class="edge">
<title>Transitive Relation&#45;&gt;Partial order</title>
<path fill="none" stroke="#ffffff" d="M185.62,-139.4C206.11,-129.37 230.14,-117.61 249.38,-108.19"/>
<polygon fill="#ffffff" stroke="#ffffff" points="183.92,-136.34 176.48,-143.88 187,-142.62 183.92,-136.34"/>
</g>
<!-- Transitive Relation&#45;&gt;Relations -->
<g id="edge16" class="edge">
<title>Transitive Relation&#45;&gt;Relations</title>
<path fill="none" stroke="#ffffff" d="M166.01,-136.4C191.57,-110.83 228.5,-74.22 232.5,-72 292.1,-39 316.01,-54.79 381.5,-36 387.78,-34.2 394.44,-32.11 400.8,-30.03"/>
<polygon fill="#ffffff" stroke="#ffffff" points="163.4,-134.05 158.81,-143.6 168.36,-139 163.4,-134.05"/>
</g>
<!-- Transitive Relation&#45;&gt;Linear order -->
<g id="edge17" class="edge">
<title>Transitive Relation&#45;&gt;Linear order</title>
<path fill="none" stroke="#ffffff" d="M71.67,-140.25C56.94,-132.53 43.24,-122.08 34.5,-108 26.06,-94.41 24.13,-84.18 34.5,-72 67.04,-33.78 208.45,-46.65 257.5,-36 265.03,-34.37 273,-32.38 280.63,-30.34"/>
<polygon fill="#ffffff" stroke="#ffffff" points="70.41,-143.52 80.93,-144.71 73.44,-137.22 70.41,-143.52"/>
</g>
<!-- Transitive Closure -->
<g id="node12" class="node">
<title>Transitive Closure</title>
<g id="a_node12"><a xlink:title="Transitive Closure">
<ellipse fill="#273434" stroke="#b75867" cx="114.5" cy="-90" rx="71.32" ry="18"/>
<text text-anchor="middle" x="114.5" y="-86.9" font-family="sans" font-size="12.00" fill="#c4c7c7">Transitive Closure</text>
</a>
</g>
</g>
<!-- Transitive Relation&#45;&gt;Transitive Closure -->
<g id="edge14" class="edge">
<title>Transitive Relation&#45;&gt;Transitive Closure</title>
<path fill="none" stroke="#ffffff" d="M131.18,-134.23C127.79,-125.46 124.13,-115.96 121.1,-108.1"/>
<polygon fill="#ffffff" stroke="#ffffff" points="127.96,-135.63 134.83,-143.7 134.49,-133.11 127.96,-135.63"/>
</g>
<!-- Relation of Equivalence -->
<g id="node13" class="node">
<title>Relation of Equivalence</title>
<g id="a_node13"><a xlink:title="Relation of Equivalence">
<ellipse fill="#273434" stroke="#b75867" cx="513.5" cy="-90" rx="91.95" ry="18"/>
<text text-anchor="middle" x="513.5" y="-86.9" font-family="sans" font-size="12.00" fill="#c4c7c7">Relation of Equivalence</text>
</a>
</g>
</g>
<!-- Transitive Relation&#45;&gt;Relation of Equivalence -->
<g id="edge15" class="edge">
<title>Transitive Relation&#45;&gt;Relation of Equivalence</title>
<path fill="none" stroke="#ffffff" d="M211.95,-147.74C280.48,-134.85 383.68,-115.43 449.81,-102.98"/>
<polygon fill="#ffffff" stroke="#ffffff" points="211.28,-144.31 202.1,-149.6 212.57,-151.19 211.28,-144.31"/>
</g>
<!-- Reflexive Relation&#45;&gt;Partial order -->
<g id="edge23" class="edge">
<title>Reflexive Relation&#45;&gt;Partial order</title>
<path fill="none" stroke="#ffffff" d="M330.63,-136.48C321.12,-127.11 310.5,-116.64 301.85,-108.1"/>
<polygon fill="#ffffff" stroke="#ffffff" points="328.37,-139.17 337.95,-143.7 333.29,-134.18 328.37,-139.17"/>
</g>
<!-- Reflexive Relation&#45;&gt;Relations -->
<g id="edge21" class="edge">
<title>Reflexive Relation&#45;&gt;Relations</title>
<path fill="none" stroke="#ffffff" d="M369.73,-134.76C385.41,-105.84 410.17,-60.18 423.42,-35.75"/>
<polygon fill="#ffffff" stroke="#ffffff" points="366.48,-133.41 364.79,-143.87 372.63,-136.75 366.48,-133.41"/>
</g>
<!-- Reflexive Relation&#45;&gt;Linear order -->
<g id="edge22" class="edge">
<title>Reflexive Relation&#45;&gt;Linear order</title>
<path fill="none" stroke="#ffffff" d="M350.39,-133.63C346.91,-115.94 341.96,-92.48 336.5,-72 333.27,-59.86 328.93,-46.38 325.45,-36.06"/>
<polygon fill="#ffffff" stroke="#ffffff" points="347.03,-134.66 352.36,-143.82 353.9,-133.34 347.03,-134.66"/>
</g>
<!-- Reflexive Relation&#45;&gt;Relation of Equivalence -->
<g id="edge20" class="edge">
<title>Reflexive Relation&#45;&gt;Relation of Equivalence</title>
<path fill="none" stroke="#ffffff" d="M403.47,-139.75C427.54,-129.08 456.19,-116.39 478.22,-106.63"/>
<polygon fill="#ffffff" stroke="#ffffff" points="401.88,-136.63 394.15,-143.88 404.71,-143.03 401.88,-136.63"/>
</g>
<!-- Reflexive Closure -->
<g id="node14" class="node">
<title>Reflexive Closure</title>
<g id="a_node14"><a xlink:title="Reflexive Closure">
<ellipse fill="#273434" stroke="#b75867" cx="1077.5" cy="-90" rx="69.62" ry="18"/>
<text text-anchor="middle" x="1077.5" y="-86.9" font-family="sans" font-size="12.00" fill="#c4c7c7">Reflexive Closure</text>
</a>
</g>
</g>
<!-- Reflexive Relation&#45;&gt;Reflexive Closure -->
<g id="edge19" class="edge">
<title>Reflexive Relation&#45;&gt;Reflexive Closure</title>
<path fill="none" stroke="#ffffff" d="M424.23,-143.86C642.04,-108.44 890.64,-96.65 1008.67,-92.78"/>
<polygon fill="#ffffff" stroke="#ffffff" points="423.51,-140.43 414.21,-145.51 424.64,-147.34 423.51,-140.43"/>
</g>
<!-- Relation&#45;&gt;Partial order -->
<g id="edge37" class="edge">
<title>Relation&#45;&gt;Partial order</title>
<path fill="none" stroke="#ffffff" d="M1148.19,-232.09C973.72,-228.12 317.91,-211.17 287.5,-180 269.15,-161.19 273.85,-128.11 279.08,-108.01"/>
<polygon fill="#ffffff" stroke="#ffffff" points="1148.19,-235.59 1158.27,-232.31 1148.35,-228.59 1148.19,-235.59"/>
</g>
<!-- Relation&#45;&gt;Transitive Relation -->
<g id="edge26" class="edge">
<title>Relation&#45;&gt;Transitive Relation</title>
<path fill="none" stroke="#ffffff" d="M1148.4,-232.01C1016.33,-228.6 598.53,-215.54 254.5,-180 237.43,-178.24 218.99,-175.72 202.07,-173.17"/>
<polygon fill="#ffffff" stroke="#ffffff" points="1148.41,-235.51 1158.49,-232.26 1148.59,-228.51 1148.41,-235.51"/>
</g>
<!-- Relation&#45;&gt;Reflexive Relation -->
<g id="edge27" class="edge">
<title>Relation&#45;&gt;Reflexive Relation</title>
<path fill="none" stroke="#ffffff" d="M1148.18,-232.74C1031.68,-231.45 696.69,-223.88 422.5,-180 419.77,-179.56 417,-179.07 414.2,-178.53"/>
<polygon fill="#ffffff" stroke="#ffffff" points="1148.41,-236.24 1158.44,-232.84 1148.48,-229.24 1148.41,-236.24"/>
</g>
<!-- Descartes Product -->
<g id="node8" class="node">
<title>Descartes Product</title>
<g id="a_node8"><a xlink:title="Descartes Product">
<path fill="#273434" stroke="#b75867" d="M1444,-180C1444,-180 1349,-180 1349,-180 1343,-180 1337,-174 1337,-168 1337,-168 1337,-156 1337,-156 1337,-150 1343,-144 1349,-144 1349,-144 1444,-144 1444,-144 1450,-144 1456,-150 1456,-156 1456,-156 1456,-168 1456,-168 1456,-174 1450,-180 1444,-180"/>
<text text-anchor="middle" x="1396.5" y="-158.9" font-family="sans" font-size="12.00" fill="#c4c7c7">Descartes Product</text>
</a>
</g>
</g>
<!-- Relation&#45;&gt;Descartes Product -->
<g id="edge9" class="edge">
<title>Relation&#45;&gt;Descartes Product</title>
<path fill="none" stroke="#b75867" d="M1222.69,-222.06C1253.02,-211.76 1299.23,-196.05 1336.38,-183.43"/>
<polygon fill="#b75867" stroke="#b75867" points="1337.76,-186.66 1346.11,-180.12 1335.51,-180.03 1337.76,-186.66"/>
</g>
<!-- Relation&#45;&gt;Relations -->
<g id="edge34" class="edge">
<title>Relation&#45;&gt;Relations</title>
<path fill="none" stroke="#ffffff" d="M1233.03,-233.37C1387.25,-234.28 1910.66,-233.39 1960.5,-180 1971.42,-168.3 1970.72,-156.31 1960.5,-144 1862.92,-26.53 712.27,-19.22 475.09,-18.96"/>
<polygon fill="#ffffff" stroke="#ffffff" points="1232.6,-229.87 1222.58,-233.3 1232.55,-236.87 1232.6,-229.87"/>
</g>
<!-- Relation&#45;&gt;Linear order -->
<g id="edge35" class="edge">
<title>Relation&#45;&gt;Linear order</title>
<path fill="none" stroke="#ffffff" d="M1232.68,-232.6C1312.22,-230.86 1479.66,-222.15 1515.5,-180 1525.86,-167.81 1525.64,-156.38 1515.5,-144 1412.36,-18.12 1318.02,-91.83 1156.5,-72 814.25,-29.98 722.07,-89.92 381.5,-36 373.56,-34.74 365.19,-32.85 357.24,-30.77"/>
<polygon fill="#ffffff" stroke="#ffffff" points="1232.44,-229.11 1222.51,-232.8 1232.58,-236.1 1232.44,-229.11"/>
</g>
<!-- Relation&#45;&gt;Relation of Equivalence -->
<g id="edge32" class="edge">
<title>Relation&#45;&gt;Relation of Equivalence</title>
<path fill="none" stroke="#ffffff" d="M1232.72,-232.59C1325.75,-230.35 1534.81,-217.28 1465.5,-144 1450.77,-128.43 836.69,-103.36 602.74,-94.36"/>
<polygon fill="#ffffff" stroke="#ffffff" points="1232.43,-229.09 1222.5,-232.8 1232.57,-236.09 1232.43,-229.09"/>
</g>
<!-- Relation&#45;&gt;Reflexive Closure -->
<g id="edge30" class="edge">
<title>Relation&#45;&gt;Reflexive Closure</title>
<path fill="none" stroke="#ffffff" d="M1232.94,-232.17C1309.29,-229.68 1465.03,-219.73 1498.5,-180 1508.81,-167.76 1509.08,-156 1498.5,-144 1475.54,-117.96 1258.13,-101.53 1145.08,-94.68"/>
<polygon fill="#ffffff" stroke="#ffffff" points="1232.6,-228.68 1222.71,-232.47 1232.81,-235.67 1232.6,-228.68"/>
</g>
<!-- Anti&#45;symmetric Relation -->
<g id="node15" class="node">
<title>Anti&#45;symmetric Relation</title>
<g id="a_node15"><a xlink:title="Anti&#45;symmetric Relation">
<ellipse fill="#273434" stroke="#b75867" cx="1682.5" cy="-162" rx="93.64" ry="18"/>
<text text-anchor="middle" x="1682.5" y="-158.9" font-family="sans" font-size="12.00" fill="#c4c7c7">Anti&#45;symmetric Relation</text>
</a>
</g>
</g>
<!-- Relation&#45;&gt;Anti&#45;symmetric Relation -->
<g id="edge24" class="edge">
<title>Relation&#45;&gt;Anti&#45;symmetric Relation</title>
<path fill="none" stroke="#ffffff" d="M1232.94,-227.41C1303.77,-218.02 1450.54,-198.31 1574.5,-180 1586.99,-178.16 1600.27,-176.12 1613.1,-174.12"/>
<polygon fill="#ffffff" stroke="#ffffff" points="1232.1,-223.99 1222.64,-228.77 1233.01,-230.93 1232.1,-223.99"/>
</g>
<!-- Symmetric Relation -->
<g id="node16" class="node">
<title>Symmetric Relation</title>
<g id="a_node16"><a xlink:title="Symmetric Relation">
<ellipse fill="#273434" stroke="#b75867" cx="1872.5" cy="-162" rx="78.59" ry="18"/>
<text text-anchor="middle" x="1872.5" y="-158.9" font-family="sans" font-size="12.00" fill="#c4c7c7">Symmetric Relation</text>
</a>
</g>
</g>
<!-- Relation&#45;&gt;Symmetric Relation -->
<g id="edge25" class="edge">
<title>Relation&#45;&gt;Symmetric Relation</title>
<path fill="none" stroke="#ffffff" d="M1232.62,-230.76C1330.2,-225.24 1579.19,-209.26 1785.5,-180 1795.56,-178.57 1806.21,-176.75 1816.49,-174.84"/>
<polygon fill="#ffffff" stroke="#ffffff" points="1232.35,-227.27 1222.56,-231.32 1232.74,-234.26 1232.35,-227.27"/>
</g>
<!-- Anti&#45;reflexive relation -->
<g id="node17" class="node">
<title>Anti&#45;reflexive relation</title>
<g id="a_node17"><a xlink:title="Anti&#45;reflexive relation">
<ellipse fill="#273434" stroke="#b75867" cx="516.5" cy="-162" rx="84.9" ry="18"/>
<text text-anchor="middle" x="516.5" y="-158.9" font-family="sans" font-size="12.00" fill="#c4c7c7">Anti&#45;reflexive relation</text>
</a>
</g>
</g>
<!-- Relation&#45;&gt;Anti&#45;reflexive relation -->
<g id="edge28" class="edge">
<title>Relation&#45;&gt;Anti&#45;reflexive relation</title>
<path fill="none" stroke="#ffffff" d="M1148.15,-230.41C1052.18,-224.26 810.89,-207.22 610.5,-180 599.57,-178.52 587.98,-176.66 576.8,-174.71"/>
<polygon fill="#ffffff" stroke="#ffffff" points="1148.12,-233.91 1158.32,-231.06 1148.56,-226.93 1148.12,-233.91"/>
</g>
<!-- Strongly Anti&#45;symmetric Relation -->
<g id="node18" class="node">
<title>Strongly Anti&#45;symmetric Relation</title>
<g id="a_node18"><a xlink:title="Strongly Anti&#45;symmetric Relation">
<ellipse fill="#273434" stroke="#b75867" cx="744.5" cy="-162" rx="124.93" ry="18"/>
<text text-anchor="middle" x="744.5" y="-158.9" font-family="sans" font-size="12.00" fill="#c4c7c7">Strongly Anti&#45;symmetric Relation</text>
</a>
</g>
</g>
<!-- Relation&#45;&gt;Strongly Anti&#45;symmetric Relation -->
<g id="edge29" class="edge">
<title>Relation&#45;&gt;Strongly Anti&#45;symmetric Relation</title>
<path fill="none" stroke="#ffffff" d="M1148.12,-226.35C1074.28,-214.76 920.86,-190.68 825.89,-175.77"/>
<polygon fill="#ffffff" stroke="#ffffff" points="1148,-229.87 1158.42,-227.97 1149.09,-222.96 1148,-229.87"/>
</g>
<!-- Symmetric Closure -->
<g id="node19" class="node">
<title>Symmetric Closure</title>
<g id="a_node19"><a xlink:title="Symmetric Closure">
<ellipse fill="#273434" stroke="#b75867" cx="963.5" cy="-162" rx="75.94" ry="18"/>
<text text-anchor="middle" x="963.5" y="-158.9" font-family="sans" font-size="12.00" fill="#c4c7c7">Symmetric Closure</text>
</a>
</g>
</g>
<!-- Relation&#45;&gt;Symmetric Closure -->
<g id="edge31" class="edge">
<title>Relation&#45;&gt;Symmetric Closure</title>
<path fill="none" stroke="#ffffff" d="M1148.75,-220.13C1108.78,-207.8 1048.68,-189.27 1007.86,-176.68"/>
<polygon fill="#ffffff" stroke="#ffffff" points="1147.87,-223.52 1158.46,-223.12 1149.93,-216.83 1147.87,-223.52"/>
</g>
<!-- Partial function -->
<g id="node20" class="node">
<title>Partial function</title>
<g id="a_node20"><a xlink:title="Partial function">
<ellipse fill="#273434" stroke="#b75867" cx="1120.5" cy="-162" rx="63.31" ry="18"/>
<text text-anchor="middle" x="1120.5" y="-158.9" font-family="sans" font-size="12.00" fill="#c4c7c7">Partial function</text>
</a>
</g>
</g>
<!-- Relation&#45;&gt;Partial function -->
<g id="edge33" class="edge">
<title>Relation&#45;&gt;Partial function</title>
<path fill="none" stroke="#ffffff" d="M1165.87,-208.37C1156.35,-198.85 1145.71,-188.21 1137.12,-179.62"/>
<polygon fill="#ffffff" stroke="#ffffff" points="1163.65,-211.1 1173.2,-215.7 1168.6,-206.15 1163.65,-211.1"/>
</g>
<!-- Total function -->
<g id="node21" class="node">
<title>Total function</title>
<g id="a_node21"><a xlink:title="Total function">
<ellipse fill="#273434" stroke="#b75867" cx="1260.5" cy="-162" rx="58.46" ry="18"/>
<text text-anchor="middle" x="1260.5" y="-158.9" font-family="sans" font-size="12.00" fill="#c4c7c7">Total function</text>
</a>
</g>
</g>
<!-- Relation&#45;&gt;Total function -->
<g id="edge36" class="edge">
<title>Relation&#45;&gt;Total function</title>
<path fill="none" stroke="#ffffff" d="M1215.13,-208.37C1224.65,-198.85 1235.29,-188.21 1243.88,-179.62"/>
<polygon fill="#ffffff" stroke="#ffffff" points="1212.4,-206.15 1207.8,-215.7 1217.35,-211.1 1212.4,-206.15"/>
</g>
</g>
</svg>
