<?xml version="1.0" encoding="UTF-8" standalone="no"?>
<!DOCTYPE svg PUBLIC "-//W3C//DTD SVG 1.1//EN"
 "http://www.w3.org/Graphics/SVG/1.1/DTD/svg11.dtd">
<!-- Generated by graphviz version 2.44.0 (0)
 -->
<!-- Title: Chebyshev Polynomial Pages: 1 -->
<svg width="770pt" height="192pt"
 viewBox="0.00 0.00 770.00 192.00" xmlns="http://www.w3.org/2000/svg" xmlns:xlink="http://www.w3.org/1999/xlink">
<g id="page0,1_graph0" class="graph" transform="scale(1 1) rotate(0) translate(4 188)">
<title>Chebyshev Polynomial</title>
<polygon fill="#132020" stroke="transparent" points="-4,4 -4,-188 766,-188 766,4 -4,4"/>
<!-- Chebyshev Polynomial -->
<g id="node1" class="node">
<title>Chebyshev Polynomial</title>
<g id="a_node1"><a xlink:href="../Chebyshev Polynomial.html" xlink:title="Chebyshev Polynomial" target="_parent">
<path fill="#273434" stroke="#b75867" d="M133,-91C133,-91 12,-91 12,-91 6,-91 0,-85 0,-79 0,-79 0,-67 0,-67 0,-61 6,-55 12,-55 12,-55 133,-55 133,-55 139,-55 145,-61 145,-67 145,-67 145,-79 145,-79 145,-85 139,-91 133,-91"/>
<text text-anchor="middle" x="72.5" y="-69.9" font-family="sans" font-size="12.00" fill="#c4c7c7">Chebyshev Polynomial</text>
</a>
</g>
</g>
<!-- Recurrent Equations -->
<g id="node2" class="node">
<title>Recurrent Equations</title>
<g id="a_node2"><a xlink:href="../Recurrent Equations.html" xlink:title="Recurrent Equations" target="_parent">
<path fill="#273434" stroke="#b75867" d="M332.5,-110C332.5,-110 225.5,-110 225.5,-110 219.5,-110 213.5,-104 213.5,-98 213.5,-98 213.5,-86 213.5,-86 213.5,-80 219.5,-74 225.5,-74 225.5,-74 332.5,-74 332.5,-74 338.5,-74 344.5,-80 344.5,-86 344.5,-86 344.5,-98 344.5,-98 344.5,-104 338.5,-110 332.5,-110"/>
<text text-anchor="middle" x="279" y="-88.9" font-family="sans" font-size="12.00" fill="#c4c7c7">Recurrent Equations</text>
</a>
</g>
</g>
<!-- Chebyshev Polynomial&#45;&gt;Recurrent Equations -->
<g id="edge1" class="edge">
<title>Chebyshev Polynomial&#45;&gt;Recurrent Equations</title>
<path fill="none" stroke="#b75867" d="M145.02,-79.65C163.87,-81.4 184.25,-83.29 203.25,-85.06"/>
<polygon fill="#b75867" stroke="#b75867" points="203.07,-88.55 213.35,-85.99 203.72,-81.58 203.07,-88.55"/>
</g>
<!-- Extreme points of Chebyshev polynomials -->
<g id="node3" class="node">
<title>Extreme points of Chebyshev polynomials</title>
<g id="a_node3"><a xlink:href="../Extreme points of Chebyshev polynomials.html" xlink:title="Extreme points of Chebyshev polynomials" target="_parent">
<path fill="none" stroke="#b75867" d="M393,-73C393,-73 165,-73 165,-73 159,-73 153,-67 153,-61 153,-61 153,-49 153,-49 153,-43 159,-37 165,-37 165,-37 393,-37 393,-37 399,-37 405,-43 405,-49 405,-49 405,-61 405,-61 405,-67 399,-73 393,-73"/>
<text text-anchor="middle" x="279" y="-51.9" font-family="sans" font-size="12.00" fill="#c4c7c7">Extreme points of Chebyshev polynomials</text>
</a>
</g>
</g>
<!-- Chebyshev Polynomial&#45;&gt;Extreme points of Chebyshev polynomials -->
<g id="edge2" class="edge">
<title>Chebyshev Polynomial&#45;&gt;Extreme points of Chebyshev polynomials</title>
<path fill="none" stroke="#ffffff" d="M152.22,-66.07C152.38,-66.06 152.54,-66.04 152.7,-66.03"/>
<polygon fill="#ffffff" stroke="#ffffff" points="154.68,-62.34 145.02,-66.7 155.29,-69.31 154.68,-62.34"/>
</g>
<!-- Recurrent Equations&#45;&gt;Chebyshev Polynomial -->
<g id="edge7" class="edge">
<title>Recurrent Equations&#45;&gt;Chebyshev Polynomial</title>
<path fill="none" stroke="#ffffff" d="M203.25,-85.78C184.25,-84.05 163.87,-82.15 145.02,-80.36"/>
<polygon fill="#ffffff" stroke="#ffffff" points="203.08,-89.28 213.35,-86.7 203.71,-82.31 203.08,-89.28"/>
</g>
<!-- Set -->
<g id="node4" class="node">
<title>Set</title>
<g id="a_node4"><a xlink:href="../Set.html" xlink:title="Set" target="_parent">
<path fill="#273434" stroke="#b75867" d="M602.5,-184C602.5,-184 572.5,-184 572.5,-184 566.5,-184 560.5,-178 560.5,-172 560.5,-172 560.5,-160 560.5,-160 560.5,-154 566.5,-148 572.5,-148 572.5,-148 602.5,-148 602.5,-148 608.5,-148 614.5,-154 614.5,-160 614.5,-160 614.5,-172 614.5,-172 614.5,-178 608.5,-184 602.5,-184"/>
<text text-anchor="middle" x="587.5" y="-162.9" font-family="sans" font-size="12.00" fill="#c4c7c7">Set</text>
</a>
</g>
</g>
<!-- Recurrent Equations&#45;&gt;Set -->
<g id="edge3" class="edge">
<title>Recurrent Equations&#45;&gt;Set</title>
<path fill="none" stroke="#b75867" d="M318.74,-110.08C344.83,-121.52 380.33,-135.68 413,-144 459.4,-155.82 514.46,-161.42 549.92,-163.99"/>
<polygon fill="#b75867" stroke="#b75867" points="550.04,-167.5 560.26,-164.69 550.52,-160.52 550.04,-167.5"/>
</g>
<!-- Multiset -->
<g id="node5" class="node">
<title>Multiset</title>
<g id="a_node5"><a xlink:href="../Multiset.html" xlink:title="Multiset" target="_parent">
<path fill="#273434" stroke="#b75867" d="M606.5,-147C606.5,-147 568.5,-147 568.5,-147 562.5,-147 556.5,-141 556.5,-135 556.5,-135 556.5,-123 556.5,-123 556.5,-117 562.5,-111 568.5,-111 568.5,-111 606.5,-111 606.5,-111 612.5,-111 618.5,-117 618.5,-123 618.5,-123 618.5,-135 618.5,-135 618.5,-141 612.5,-147 606.5,-147"/>
<text text-anchor="middle" x="587.5" y="-125.9" font-family="sans" font-size="12.00" fill="#c4c7c7">Multiset</text>
</a>
</g>
</g>
<!-- Recurrent Equations&#45;&gt;Multiset -->
<g id="edge4" class="edge">
<title>Recurrent Equations&#45;&gt;Multiset</title>
<path fill="none" stroke="#b75867" d="M344.63,-99.8C405.59,-107.16 495.05,-117.96 546.36,-124.15"/>
<polygon fill="#b75867" stroke="#b75867" points="546.05,-127.64 556.4,-125.37 546.89,-120.69 546.05,-127.64"/>
</g>
<!-- Fundamental Theorem of Algebra -->
<g id="node6" class="node">
<title>Fundamental Theorem of Algebra</title>
<g id="a_node6"><a xlink:href="../Fundamental Theorem of Algebra.html" xlink:title="Fundamental Theorem of Algebra" target="_parent">
<path fill="#273434" stroke="#b75867" d="M680,-110C680,-110 495,-110 495,-110 489,-110 483,-104 483,-98 483,-98 483,-86 483,-86 483,-80 489,-74 495,-74 495,-74 680,-74 680,-74 686,-74 692,-80 692,-86 692,-86 692,-98 692,-98 692,-104 686,-110 680,-110"/>
<text text-anchor="middle" x="587.5" y="-88.9" font-family="sans" font-size="12.00" fill="#c4c7c7">Fundamental Theorem of Algebra</text>
</a>
</g>
</g>
<!-- Recurrent Equations&#45;&gt;Fundamental Theorem of Algebra -->
<g id="edge5" class="edge">
<title>Recurrent Equations&#45;&gt;Fundamental Theorem of Algebra</title>
<path fill="none" stroke="#b75867" d="M344.63,-92C381.78,-92 429.51,-92 472.75,-92"/>
<polygon fill="#b75867" stroke="#b75867" points="472.76,-95.5 482.76,-92 472.76,-88.5 472.76,-95.5"/>
</g>
<!-- Discrete Structures -->
<g id="node7" class="node">
<title>Discrete Structures</title>
<g id="a_node7"><a xlink:href="../Discrete Structures.html" xlink:title="Discrete Structures" target="_parent">
<path fill="none" stroke="#b75867" d="M636.5,-73C636.5,-73 538.5,-73 538.5,-73 532.5,-73 526.5,-67 526.5,-61 526.5,-61 526.5,-49 526.5,-49 526.5,-43 532.5,-37 538.5,-37 538.5,-37 636.5,-37 636.5,-37 642.5,-37 648.5,-43 648.5,-49 648.5,-49 648.5,-61 648.5,-61 648.5,-67 642.5,-73 636.5,-73"/>
<text text-anchor="middle" x="587.5" y="-51.9" font-family="sans" font-size="12.00" fill="#c4c7c7">Discrete Structures</text>
</a>
</g>
</g>
<!-- Recurrent Equations&#45;&gt;Discrete Structures -->
<g id="edge6" class="edge">
<title>Recurrent Equations&#45;&gt;Discrete Structures</title>
<path fill="none" stroke="#ffffff" d="M354.61,-82.99C407.37,-76.62 477.19,-68.2 526.39,-62.26"/>
<polygon fill="#ffffff" stroke="#ffffff" points="354.13,-79.53 344.63,-84.2 354.97,-86.47 354.13,-79.53"/>
</g>
<!-- Extreme points of Chebyshev polynomials&#45;&gt;Chebyshev Polynomial -->
<g id="edge8" class="edge">
<title>Extreme points of Chebyshev polynomials&#45;&gt;Chebyshev Polynomial</title>
<path fill="none" stroke="#b75867" d="M152.7,-66.76C152.54,-66.78 152.38,-66.79 152.22,-66.8"/>
<polygon fill="#b75867" stroke="#b75867" points="154.69,-63.08 145.02,-67.42 155.29,-70.05 154.69,-63.08"/>
</g>
<!-- Fundamental extremal property of Chebyshev polynomials -->
<g id="node8" class="node">
<title>Fundamental extremal property of Chebyshev polynomials</title>
<g id="a_node8"><a xlink:href="../Fundamental extremal property of Chebyshev polynomials.html" xlink:title="Fundamental extremal property of Chebyshev polynomials" target="_parent">
<path fill="none" stroke="#b75867" d="M750,-36C750,-36 425,-36 425,-36 419,-36 413,-30 413,-24 413,-24 413,-12 413,-12 413,-6 419,0 425,0 425,0 750,0 750,0 756,0 762,-6 762,-12 762,-12 762,-24 762,-24 762,-30 756,-36 750,-36"/>
<text text-anchor="middle" x="587.5" y="-14.9" font-family="sans" font-size="12.00" fill="#c4c7c7">Fundamental extremal property of Chebyshev polynomials</text>
</a>
</g>
</g>
<!-- Extreme points of Chebyshev polynomials&#45;&gt;Fundamental extremal property of Chebyshev polynomials -->
<g id="edge9" class="edge">
<title>Extreme points of Chebyshev polynomials&#45;&gt;Fundamental extremal property of Chebyshev polynomials</title>
<path fill="none" stroke="#ffffff" d="M415.09,-38.69C422.44,-37.81 429.84,-36.91 437.23,-36.02"/>
<polygon fill="#ffffff" stroke="#ffffff" points="414.62,-35.22 405.11,-39.9 415.45,-42.17 414.62,-35.22"/>
</g>
</g>
</svg>
