<?xml version="1.0" encoding="UTF-8" standalone="no"?>
<!DOCTYPE svg PUBLIC "-//W3C//DTD SVG 1.1//EN"
 "http://www.w3.org/Graphics/SVG/1.1/DTD/svg11.dtd">
<!-- Generated by graphviz version 2.44.0 (0)
 -->
<!-- Title: Class of equivalence Pages: 1 -->
<svg width="3354pt" height="332pt"
 viewBox="0.00 0.00 3354.12 332.00" xmlns="http://www.w3.org/2000/svg" xmlns:xlink="http://www.w3.org/1999/xlink">
<g id="page0,1_graph0" class="graph" transform="scale(1 1) rotate(0) translate(4 328)">
<title>Class of equivalence</title>
<polygon fill="#132020" stroke="transparent" points="-4,4 -4,-328 3350.12,-328 3350.12,4 -4,4"/>
<!-- Class of equivalence -->
<g id="node1" class="node">
<title>Class of equivalence</title>
<g id="a_node1"><a xlink:href="../Class of equivalence.html" xlink:title="Class of equivalence" target="_parent">
<path fill="#273434" stroke="#b75867" d="M1761.98,-324C1761.98,-324 1654.98,-324 1654.98,-324 1648.98,-324 1642.98,-318 1642.98,-312 1642.98,-312 1642.98,-300 1642.98,-300 1642.98,-294 1648.98,-288 1654.98,-288 1654.98,-288 1761.98,-288 1761.98,-288 1767.98,-288 1773.98,-294 1773.98,-300 1773.98,-300 1773.98,-312 1773.98,-312 1773.98,-318 1767.98,-324 1761.98,-324"/>
<text text-anchor="middle" x="1708.48" y="-302.9" font-family="sans" font-size="12.00" fill="#c4c7c7">Class of equivalence</text>
</a>
</g>
</g>
<!-- Partition -->
<g id="node2" class="node">
<title>Partition</title>
<g id="a_node2"><a xlink:href="../Partition.html" xlink:title="Partition" target="_parent">
<path fill="#273434" stroke="#b75867" d="M1840.98,-180C1840.98,-180 1799.98,-180 1799.98,-180 1793.98,-180 1787.98,-174 1787.98,-168 1787.98,-168 1787.98,-156 1787.98,-156 1787.98,-150 1793.98,-144 1799.98,-144 1799.98,-144 1840.98,-144 1840.98,-144 1846.98,-144 1852.98,-150 1852.98,-156 1852.98,-156 1852.98,-168 1852.98,-168 1852.98,-174 1846.98,-180 1840.98,-180"/>
<text text-anchor="middle" x="1820.48" y="-158.9" font-family="sans" font-size="12.00" fill="#c4c7c7">Partition</text>
</a>
</g>
</g>
<!-- Class of equivalence&#45;&gt;Partition -->
<g id="edge1" class="edge">
<title>Class of equivalence&#45;&gt;Partition</title>
<path fill="none" stroke="#b75867" d="M1734.01,-287.93C1746.93,-278.42 1762.22,-265.74 1773.48,-252 1788.96,-233.09 1801.56,-208.28 1809.79,-189.66"/>
<polygon fill="#b75867" stroke="#b75867" points="1813.09,-190.86 1813.81,-180.29 1806.65,-188.1 1813.09,-190.86"/>
</g>
<!-- Set -->
<g id="node3" class="node">
<title>Set</title>
<g id="a_node3"><a xlink:href="../Set.html" xlink:title="Set" target="_parent">
<path fill="#273434" stroke="#b75867" d="M2320.48,-180C2320.48,-180 2290.48,-180 2290.48,-180 2284.48,-180 2278.48,-174 2278.48,-168 2278.48,-168 2278.48,-156 2278.48,-156 2278.48,-150 2284.48,-144 2290.48,-144 2290.48,-144 2320.48,-144 2320.48,-144 2326.48,-144 2332.48,-150 2332.48,-156 2332.48,-156 2332.48,-168 2332.48,-168 2332.48,-174 2326.48,-180 2320.48,-180"/>
<text text-anchor="middle" x="2305.48" y="-158.9" font-family="sans" font-size="12.00" fill="#c4c7c7">Set</text>
</a>
</g>
</g>
<!-- Class of equivalence&#45;&gt;Set -->
<g id="edge2" class="edge">
<title>Class of equivalence&#45;&gt;Set</title>
<path fill="none" stroke="#b75867" d="M1774.07,-289.4C1899.57,-259.55 2169.96,-195.23 2268.55,-171.78"/>
<polygon fill="#b75867" stroke="#b75867" points="2269.43,-175.17 2278.35,-169.45 2267.81,-168.36 2269.43,-175.17"/>
</g>
<!-- Relation of Equivalence -->
<g id="node4" class="node">
<title>Relation of Equivalence</title>
<g id="a_node4"><a xlink:href="../Relation of Equivalence.html" xlink:title="Relation of Equivalence" target="_parent">
<path fill="#273434" stroke="#b75867" d="M1719.98,-252C1719.98,-252 1594.98,-252 1594.98,-252 1588.98,-252 1582.98,-246 1582.98,-240 1582.98,-240 1582.98,-228 1582.98,-228 1582.98,-222 1588.98,-216 1594.98,-216 1594.98,-216 1719.98,-216 1719.98,-216 1725.98,-216 1731.98,-222 1731.98,-228 1731.98,-228 1731.98,-240 1731.98,-240 1731.98,-246 1725.98,-252 1719.98,-252"/>
<text text-anchor="middle" x="1657.48" y="-230.9" font-family="sans" font-size="12.00" fill="#c4c7c7">Relation of Equivalence</text>
</a>
</g>
</g>
<!-- Class of equivalence&#45;&gt;Relation of Equivalence -->
<g id="edge3" class="edge">
<title>Class of equivalence&#45;&gt;Relation of Equivalence</title>
<path fill="none" stroke="#b75867" d="M1689.95,-287.7C1683.18,-279.56 1675.79,-269.69 1669.67,-260.7"/>
<polygon fill="#b75867" stroke="#b75867" points="1672.45,-258.56 1664.04,-252.1 1666.59,-262.39 1672.45,-258.56"/>
</g>
<!-- Principle of division -->
<g id="node9" class="node">
<title>Principle of division</title>
<g id="a_node9"><a xlink:href="../Principle of division.html" xlink:title="Principle of division" target="_parent">
<ellipse fill="#273434" stroke="#b75867" cx="1817.48" cy="-90" rx="77.63" ry="18"/>
<text text-anchor="middle" x="1817.48" y="-86.9" font-family="sans" font-size="12.00" fill="#c4c7c7">Principle of division</text>
</a>
</g>
</g>
<!-- Class of equivalence&#45;&gt;Principle of division -->
<g id="edge11" class="edge">
<title>Class of equivalence&#45;&gt;Principle of division</title>
<path fill="none" stroke="#ffffff" d="M1725.52,-279.17C1730.71,-270.71 1736.17,-261.14 1740.48,-252 1762.18,-205.98 1754.69,-188.98 1778.48,-144 1785.31,-131.07 1795.06,-117.82 1803.1,-107.8"/>
<polygon fill="#ffffff" stroke="#ffffff" points="1722.43,-277.5 1720.07,-287.83 1728.36,-281.23 1722.43,-277.5"/>
</g>
<!-- Relations -->
<g id="node10" class="node">
<title>Relations</title>
<g id="a_node10"><a xlink:href="../Relations.html" xlink:title="Relations" target="_parent">
<ellipse fill="#273434" stroke="#b75867" cx="42.48" cy="-18" rx="42.45" ry="18"/>
<text text-anchor="middle" x="42.48" y="-14.9" font-family="sans" font-size="12.00" fill="#c4c7c7">Relations</text>
</a>
</g>
</g>
<!-- Class of equivalence&#45;&gt;Relations -->
<g id="edge12" class="edge">
<title>Class of equivalence&#45;&gt;Relations</title>
<path fill="none" stroke="#ffffff" d="M1632.61,-304.49C1359.81,-301.78 430.41,-284.88 155.48,-180 105.98,-161.12 88.66,-152.86 60.48,-108 46.55,-85.84 43.12,-55 42.42,-36.05"/>
<polygon fill="#ffffff" stroke="#ffffff" points="1632.77,-307.99 1642.8,-304.58 1632.83,-300.99 1632.77,-307.99"/>
</g>
<!-- Principle of partitions -->
<g id="node11" class="node">
<title>Principle of partitions</title>
<g id="a_node11"><a xlink:href="../Principle of partitions.html" xlink:title="Principle of partitions" target="_parent">
<ellipse fill="#273434" stroke="#b75867" cx="1997.48" cy="-90" rx="84.17" ry="18"/>
<text text-anchor="middle" x="1997.48" y="-86.9" font-family="sans" font-size="12.00" fill="#c4c7c7">Principle of partitions</text>
</a>
</g>
</g>
<!-- Partition&#45;&gt;Principle of partitions -->
<g id="edge13" class="edge">
<title>Partition&#45;&gt;Principle of partitions</title>
<path fill="none" stroke="#ffffff" d="M1862.91,-144.22C1892.22,-132.63 1930.88,-117.34 1959.24,-106.12"/>
<polygon fill="#ffffff" stroke="#ffffff" points="1861.37,-141.07 1853.35,-148 1863.94,-147.57 1861.37,-141.07"/>
</g>
<!-- Set&#45;&gt;Principle of division -->
<g id="edge17" class="edge">
<title>Set&#45;&gt;Principle of division</title>
<path fill="none" stroke="#ffffff" d="M2267.92,-156.82C2196.79,-148.73 2037.63,-129.79 1904.48,-108 1894.45,-106.36 1883.81,-104.44 1873.54,-102.48"/>
<polygon fill="#ffffff" stroke="#ffffff" points="2267.83,-160.33 2278.16,-157.98 2268.62,-153.38 2267.83,-160.33"/>
</g>
<!-- Set&#45;&gt;Principle of partitions -->
<g id="edge22" class="edge">
<title>Set&#45;&gt;Principle of partitions</title>
<path fill="none" stroke="#ffffff" d="M2268.66,-152.63C2215.12,-140.47 2115.38,-117.8 2052.93,-103.6"/>
<polygon fill="#ffffff" stroke="#ffffff" points="2267.89,-156.05 2278.41,-154.85 2269.44,-149.22 2267.89,-156.05"/>
</g>
<!-- Reflexive Closure -->
<g id="node12" class="node">
<title>Reflexive Closure</title>
<g id="a_node12"><a xlink:href="../Reflexive Closure.html" xlink:title="Reflexive Closure" target="_parent">
<ellipse fill="#273434" stroke="#b75867" cx="1510.48" cy="-18" rx="69.62" ry="18"/>
<text text-anchor="middle" x="1510.48" y="-14.9" font-family="sans" font-size="12.00" fill="#c4c7c7">Reflexive Closure</text>
</a>
</g>
</g>
<!-- Set&#45;&gt;Reflexive Closure -->
<g id="edge14" class="edge">
<title>Set&#45;&gt;Reflexive Closure</title>
<path fill="none" stroke="#ffffff" d="M2268.5,-155.13C2231.23,-148.06 2173.01,-133.78 2128.48,-108 2108.34,-96.35 2111.77,-81.38 2090.48,-72 1988.13,-26.91 1699.17,-51.95 1588.48,-36 1579.15,-34.66 1569.27,-32.83 1559.8,-30.86"/>
<polygon fill="#ffffff" stroke="#ffffff" points="2267.97,-158.59 2278.43,-156.94 2269.22,-151.7 2267.97,-158.59"/>
</g>
<!-- Symmetric Closure -->
<g id="node13" class="node">
<title>Symmetric Closure</title>
<g id="a_node13"><a xlink:href="../Symmetric Closure.html" xlink:title="Symmetric Closure" target="_parent">
<ellipse fill="#273434" stroke="#b75867" cx="1673.48" cy="-18" rx="75.94" ry="18"/>
<text text-anchor="middle" x="1673.48" y="-14.9" font-family="sans" font-size="12.00" fill="#c4c7c7">Symmetric Closure</text>
</a>
</g>
</g>
<!-- Set&#45;&gt;Symmetric Closure -->
<g id="edge15" class="edge">
<title>Set&#45;&gt;Symmetric Closure</title>
<path fill="none" stroke="#ffffff" d="M2342.79,-160.03C2501.03,-155.74 3109.91,-137.37 3137.48,-108 3148.42,-96.33 3148.58,-83.52 3137.48,-72 3088.92,-21.66 2042.62,-18.7 1749.31,-18.86"/>
<polygon fill="#ffffff" stroke="#ffffff" points="2342.51,-156.54 2332.6,-160.3 2342.69,-163.53 2342.51,-156.54"/>
</g>
<!-- Recurrent Equations -->
<g id="node14" class="node">
<title>Recurrent Equations</title>
<g id="a_node14"><a xlink:href="../Recurrent Equations.html" xlink:title="Recurrent Equations" target="_parent">
<ellipse fill="#273434" stroke="#b75867" cx="3265.48" cy="-90" rx="80.78" ry="18"/>
<text text-anchor="middle" x="3265.48" y="-86.9" font-family="sans" font-size="12.00" fill="#c4c7c7">Recurrent Equations</text>
</a>
</g>
</g>
<!-- Set&#45;&gt;Recurrent Equations -->
<g id="edge16" class="edge">
<title>Set&#45;&gt;Recurrent Equations</title>
<path fill="none" stroke="#ffffff" d="M2342.62,-160.26C2462.74,-157.55 2851.45,-146.19 3170.48,-108 3182.45,-106.57 3195.21,-104.59 3207.36,-102.5"/>
<polygon fill="#ffffff" stroke="#ffffff" points="2342.4,-156.77 2332.48,-160.48 2342.56,-163.76 2342.4,-156.77"/>
</g>
<!-- Principle of products -->
<g id="node15" class="node">
<title>Principle of products</title>
<g id="a_node15"><a xlink:href="../Principle of products.html" xlink:title="Principle of products" target="_parent">
<ellipse fill="#273434" stroke="#b75867" cx="2219.48" cy="-90" rx="82.48" ry="18"/>
<text text-anchor="middle" x="2219.48" y="-86.9" font-family="sans" font-size="12.00" fill="#c4c7c7">Principle of products</text>
</a>
</g>
</g>
<!-- Set&#45;&gt;Principle of products -->
<g id="edge18" class="edge">
<title>Set&#45;&gt;Principle of products</title>
<path fill="none" stroke="#ffffff" d="M2276.25,-137.21C2264.3,-127.48 2250.76,-116.46 2239.9,-107.62"/>
<polygon fill="#ffffff" stroke="#ffffff" points="2274.25,-140.1 2284.22,-143.7 2278.67,-134.67 2274.25,-140.1"/>
</g>
<!-- Dirichlet principle -->
<g id="node16" class="node">
<title>Dirichlet principle</title>
<g id="a_node16"><a xlink:href="../Dirichlet principle.html" xlink:title="Dirichlet principle" target="_parent">
<ellipse fill="#273434" stroke="#b75867" cx="2391.48" cy="-90" rx="71.32" ry="18"/>
<text text-anchor="middle" x="2391.48" y="-86.9" font-family="sans" font-size="12.00" fill="#c4c7c7">Dirichlet principle</text>
</a>
</g>
</g>
<!-- Set&#45;&gt;Dirichlet principle -->
<g id="edge19" class="edge">
<title>Set&#45;&gt;Dirichlet principle</title>
<path fill="none" stroke="#ffffff" d="M2334.76,-137.16C2346.81,-127.36 2360.46,-116.25 2371.35,-107.38"/>
<polygon fill="#ffffff" stroke="#ffffff" points="2332.28,-134.67 2326.73,-143.7 2336.7,-140.1 2332.28,-134.67"/>
</g>
<!-- Principle of inclusion and exclusion -->
<g id="node17" class="node">
<title>Principle of inclusion and exclusion</title>
<g id="a_node17"><a xlink:href="../Principle of inclusion and exclusion.html" xlink:title="Principle of inclusion and exclusion" target="_parent">
<ellipse fill="#273434" stroke="#b75867" cx="2613.48" cy="-90" rx="132.2" ry="18"/>
<text text-anchor="middle" x="2613.48" y="-86.9" font-family="sans" font-size="12.00" fill="#c4c7c7">Principle of inclusion and exclusion</text>
</a>
</g>
</g>
<!-- Set&#45;&gt;Principle of inclusion and exclusion -->
<g id="edge20" class="edge">
<title>Set&#45;&gt;Principle of inclusion and exclusion</title>
<path fill="none" stroke="#ffffff" d="M2342.46,-152.59C2393.45,-141.01 2486.14,-119.94 2548.75,-105.71"/>
<polygon fill="#ffffff" stroke="#ffffff" points="2341.51,-149.22 2332.54,-154.85 2343.07,-156.05 2341.51,-149.22"/>
</g>
<!-- Differential Analysis -->
<g id="node18" class="node">
<title>Differential Analysis</title>
<g id="a_node18"><a xlink:href="../Differential Analysis.html" xlink:title="Differential Analysis" target="_parent">
<ellipse fill="#273434" stroke="#b75867" cx="2842.48" cy="-90" rx="78.36" ry="18"/>
<text text-anchor="middle" x="2842.48" y="-86.9" font-family="sans" font-size="12.00" fill="#c4c7c7">Differential Analysis</text>
</a>
</g>
</g>
<!-- Set&#45;&gt;Differential Analysis -->
<g id="edge21" class="edge">
<title>Set&#45;&gt;Differential Analysis</title>
<path fill="none" stroke="#ffffff" d="M2342.82,-157.53C2419.96,-150.15 2602.43,-131.63 2754.48,-108 2764.62,-106.42 2775.39,-104.53 2785.78,-102.59"/>
<polygon fill="#ffffff" stroke="#ffffff" points="2342.27,-154.06 2332.65,-158.49 2342.93,-161.03 2342.27,-154.06"/>
</g>
<!-- Principle of the bijection -->
<g id="node19" class="node">
<title>Principle of the bijection</title>
<g id="a_node19"><a xlink:href="../Principle of the bijection.html" xlink:title="Principle of the bijection" target="_parent">
<ellipse fill="#273434" stroke="#b75867" cx="3033.48" cy="-90" rx="94.6" ry="18"/>
<text text-anchor="middle" x="3033.48" y="-86.9" font-family="sans" font-size="12.00" fill="#c4c7c7">Principle of the bijection</text>
</a>
</g>
</g>
<!-- Set&#45;&gt;Principle of the bijection -->
<g id="edge23" class="edge">
<title>Set&#45;&gt;Principle of the bijection</title>
<path fill="none" stroke="#ffffff" d="M2342.79,-158.84C2439.79,-153.01 2707.7,-135.5 2929.48,-108 2941.46,-106.51 2954.18,-104.66 2966.45,-102.74"/>
<polygon fill="#ffffff" stroke="#ffffff" points="2342.39,-155.36 2332.62,-159.45 2342.81,-162.35 2342.39,-155.36"/>
</g>
<!-- Relation of Equivalence&#45;&gt;Class of equivalence -->
<g id="edge4" class="edge">
<title>Relation of Equivalence&#45;&gt;Class of equivalence</title>
<path fill="none" stroke="#b75867" d="M1675.83,-252.1C1682.59,-260.21 1689.99,-270.08 1696.13,-279.08"/>
<polygon fill="#b75867" stroke="#b75867" points="1693.37,-281.25 1701.78,-287.7 1699.23,-277.41 1693.37,-281.25"/>
</g>
<!-- Relation of Equivalence&#45;&gt;Partition -->
<g id="edge6" class="edge">
<title>Relation of Equivalence&#45;&gt;Partition</title>
<path fill="none" stroke="#b75867" d="M1697.35,-215.88C1722,-205.29 1753.6,-191.72 1778.62,-180.98"/>
<polygon fill="#b75867" stroke="#b75867" points="1780.05,-184.17 1787.86,-177.01 1777.29,-177.74 1780.05,-184.17"/>
</g>
<!-- Relation of Equivalence&#45;&gt;Set -->
<g id="edge5" class="edge">
<title>Relation of Equivalence&#45;&gt;Set</title>
<path fill="none" stroke="#b75867" d="M1732.13,-224.94C1871.12,-209.92 2164.87,-178.19 2268.41,-167"/>
<polygon fill="#b75867" stroke="#b75867" points="2268.82,-170.48 2278.39,-165.93 2268.07,-163.52 2268.82,-170.48"/>
</g>
<!-- Transitive Relation -->
<g id="node5" class="node">
<title>Transitive Relation</title>
<g id="a_node5"><a xlink:href="../Transitive Relation.html" xlink:title="Transitive Relation" target="_parent">
<path fill="#273434" stroke="#b75867" d="M255.98,-108C255.98,-108 158.98,-108 158.98,-108 152.98,-108 146.98,-102 146.98,-96 146.98,-96 146.98,-84 146.98,-84 146.98,-78 152.98,-72 158.98,-72 158.98,-72 255.98,-72 255.98,-72 261.98,-72 267.98,-78 267.98,-84 267.98,-84 267.98,-96 267.98,-96 267.98,-102 261.98,-108 255.98,-108"/>
<text text-anchor="middle" x="207.48" y="-86.9" font-family="sans" font-size="12.00" fill="#c4c7c7">Transitive Relation</text>
</a>
</g>
</g>
<!-- Relation of Equivalence&#45;&gt;Transitive Relation -->
<g id="edge7" class="edge">
<title>Relation of Equivalence&#45;&gt;Transitive Relation</title>
<path fill="none" stroke="#b75867" d="M1582.88,-231.19C1425.75,-226.85 1049.34,-213.56 735.48,-180 533.46,-158.4 480.6,-149.04 278.06,-108.25"/>
<polygon fill="#b75867" stroke="#b75867" points="278.49,-104.77 267.99,-106.22 277.1,-111.63 278.49,-104.77"/>
</g>
<!-- Symmetric Relation -->
<g id="node6" class="node">
<title>Symmetric Relation</title>
<g id="a_node6"><a xlink:href="../Symmetric Relation.html" xlink:title="Symmetric Relation" target="_parent">
<path fill="#273434" stroke="#b75867" d="M1709.48,-108C1709.48,-108 1605.48,-108 1605.48,-108 1599.48,-108 1593.48,-102 1593.48,-96 1593.48,-96 1593.48,-84 1593.48,-84 1593.48,-78 1599.48,-72 1605.48,-72 1605.48,-72 1709.48,-72 1709.48,-72 1715.48,-72 1721.48,-78 1721.48,-84 1721.48,-84 1721.48,-96 1721.48,-96 1721.48,-102 1715.48,-108 1709.48,-108"/>
<text text-anchor="middle" x="1657.48" y="-86.9" font-family="sans" font-size="12.00" fill="#c4c7c7">Symmetric Relation</text>
</a>
</g>
</g>
<!-- Relation of Equivalence&#45;&gt;Symmetric Relation -->
<g id="edge8" class="edge">
<title>Relation of Equivalence&#45;&gt;Symmetric Relation</title>
<path fill="none" stroke="#b75867" d="M1657.48,-215.87C1657.48,-191.67 1657.48,-147.21 1657.48,-118.39"/>
<polygon fill="#b75867" stroke="#b75867" points="1660.98,-118.19 1657.48,-108.19 1653.98,-118.19 1660.98,-118.19"/>
</g>
<!-- Reflexive Relation -->
<g id="node7" class="node">
<title>Reflexive Relation</title>
<g id="a_node7"><a xlink:href="../Reflexive Relation.html" xlink:title="Reflexive Relation" target="_parent">
<path fill="#273434" stroke="#b75867" d="M390.98,-108C390.98,-108 297.98,-108 297.98,-108 291.98,-108 285.98,-102 285.98,-96 285.98,-96 285.98,-84 285.98,-84 285.98,-78 291.98,-72 297.98,-72 297.98,-72 390.98,-72 390.98,-72 396.98,-72 402.98,-78 402.98,-84 402.98,-84 402.98,-96 402.98,-96 402.98,-102 396.98,-108 390.98,-108"/>
<text text-anchor="middle" x="344.48" y="-86.9" font-family="sans" font-size="12.00" fill="#c4c7c7">Reflexive Relation</text>
</a>
</g>
</g>
<!-- Relation of Equivalence&#45;&gt;Reflexive Relation -->
<g id="edge9" class="edge">
<title>Relation of Equivalence&#45;&gt;Reflexive Relation</title>
<path fill="none" stroke="#b75867" d="M1582.73,-227.41C1391.76,-212.67 870.59,-169.63 439.48,-108 430.92,-106.78 421.95,-105.36 413.09,-103.87"/>
<polygon fill="#b75867" stroke="#b75867" points="413.6,-100.4 403.16,-102.17 412.42,-107.3 413.6,-100.4"/>
</g>
<!-- Relation -->
<g id="node8" class="node">
<title>Relation</title>
<g id="a_node8"><a xlink:href="../Relation.html" xlink:title="Relation" target="_parent">
<path fill="#273434" stroke="#b75867" d="M1171.48,-180C1171.48,-180 1131.48,-180 1131.48,-180 1125.48,-180 1119.48,-174 1119.48,-168 1119.48,-168 1119.48,-156 1119.48,-156 1119.48,-150 1125.48,-144 1131.48,-144 1131.48,-144 1171.48,-144 1171.48,-144 1177.48,-144 1183.48,-150 1183.48,-156 1183.48,-156 1183.48,-168 1183.48,-168 1183.48,-174 1177.48,-180 1171.48,-180"/>
<text text-anchor="middle" x="1151.48" y="-158.9" font-family="sans" font-size="12.00" fill="#c4c7c7">Relation</text>
</a>
</g>
</g>
<!-- Relation of Equivalence&#45;&gt;Relation -->
<g id="edge10" class="edge">
<title>Relation of Equivalence&#45;&gt;Relation</title>
<path fill="none" stroke="#b75867" d="M1582.81,-222.67C1475.14,-207.78 1279.79,-180.75 1193.91,-168.87"/>
<polygon fill="#b75867" stroke="#b75867" points="1194.14,-165.37 1183.75,-167.47 1193.18,-172.3 1194.14,-165.37"/>
</g>
<!-- Relation of Equivalence&#45;&gt;Principle of division -->
<g id="edge24" class="edge">
<title>Relation of Equivalence&#45;&gt;Principle of division</title>
<path fill="none" stroke="#ffffff" d="M1679.86,-208.36C1697.09,-189.89 1721.89,-164.39 1745.48,-144 1760.74,-130.8 1779.07,-117.34 1793.41,-107.29"/>
<polygon fill="#ffffff" stroke="#ffffff" points="1677.18,-206.09 1672.96,-215.81 1682.32,-210.85 1677.18,-206.09"/>
</g>
<!-- Relation of Equivalence&#45;&gt;Relations -->
<g id="edge25" class="edge">
<title>Relation of Equivalence&#45;&gt;Relations</title>
<path fill="none" stroke="#ffffff" d="M1572.46,-233.56C1376.17,-233.91 876.5,-229.41 462.48,-180 296.99,-160.25 230.34,-204.51 94.48,-108 69.53,-90.28 54.71,-56.52 47.62,-36.06"/>
<polygon fill="#ffffff" stroke="#ffffff" points="1572.71,-237.06 1582.7,-233.54 1572.69,-230.06 1572.71,-237.06"/>
</g>
<!-- Transitive Relation&#45;&gt;Relations -->
<g id="edge27" class="edge">
<title>Transitive Relation&#45;&gt;Relations</title>
<path fill="none" stroke="#ffffff" d="M157.79,-67.92C129.53,-55.93 95.14,-41.34 71.3,-31.23"/>
<polygon fill="#ffffff" stroke="#ffffff" points="156.54,-71.19 167.11,-71.88 159.27,-64.75 156.54,-71.19"/>
</g>
<!-- Transitive Closure -->
<g id="node20" class="node">
<title>Transitive Closure</title>
<g id="a_node20"><a xlink:href="../Transitive Closure.html" xlink:title="Transitive Closure" target="_parent">
<ellipse fill="#273434" stroke="#b75867" cx="174.48" cy="-18" rx="71.32" ry="18"/>
<text text-anchor="middle" x="174.48" y="-14.9" font-family="sans" font-size="12.00" fill="#c4c7c7">Transitive Closure</text>
</a>
</g>
</g>
<!-- Transitive Relation&#45;&gt;Transitive Closure -->
<g id="edge26" class="edge">
<title>Transitive Relation&#45;&gt;Transitive Closure</title>
<path fill="none" stroke="#ffffff" d="M194.99,-62.51C190.82,-53.67 186.28,-44.04 182.54,-36.1"/>
<polygon fill="#ffffff" stroke="#ffffff" points="191.89,-64.14 199.32,-71.7 198.22,-61.16 191.89,-64.14"/>
</g>
<!-- Linear order -->
<g id="node21" class="node">
<title>Linear order</title>
<g id="a_node21"><a xlink:href="../Linear order.html" xlink:title="Linear order" target="_parent">
<ellipse fill="#273434" stroke="#b75867" cx="696.48" cy="-18" rx="52.88" ry="18"/>
<text text-anchor="middle" x="696.48" y="-14.9" font-family="sans" font-size="12.00" fill="#c4c7c7">Linear order</text>
</a>
</g>
</g>
<!-- Transitive Relation&#45;&gt;Linear order -->
<g id="edge28" class="edge">
<title>Transitive Relation&#45;&gt;Linear order</title>
<path fill="none" stroke="#ffffff" d="M278.37,-71.81C435.88,-45.62 480.48,-64.65 634.48,-36 642.27,-34.55 650.5,-32.6 658.34,-30.53"/>
<polygon fill="#ffffff" stroke="#ffffff" points="277.6,-68.39 268.33,-73.51 278.77,-75.29 277.6,-68.39"/>
</g>
<!-- Partial orders have no contours -->
<g id="node22" class="node">
<title>Partial orders have no contours</title>
<g id="a_node22"><a xlink:href="../Partial orders have no contours.html" xlink:title="Partial orders have no contours" target="_parent">
<ellipse fill="#273434" stroke="#b75867" cx="382.48" cy="-18" rx="118.62" ry="18"/>
<text text-anchor="middle" x="382.48" y="-14.9" font-family="sans" font-size="12.00" fill="#c4c7c7">Partial orders have no contours</text>
</a>
</g>
</g>
<!-- Transitive Relation&#45;&gt;Partial orders have no contours -->
<g id="edge29" class="edge">
<title>Transitive Relation&#45;&gt;Partial orders have no contours</title>
<path fill="none" stroke="#ffffff" d="M259.8,-68.07C286.3,-57.47 317.98,-44.8 342.51,-34.99"/>
<polygon fill="#ffffff" stroke="#ffffff" points="258.27,-64.91 250.29,-71.88 260.87,-71.41 258.27,-64.91"/>
</g>
<!-- Partial order -->
<g id="node23" class="node">
<title>Partial order</title>
<g id="a_node23"><a xlink:href="../Partial order.html" xlink:title="Partial order" target="_parent">
<ellipse fill="#273434" stroke="#b75867" cx="572.48" cy="-18" rx="52.88" ry="18"/>
<text text-anchor="middle" x="572.48" y="-14.9" font-family="sans" font-size="12.00" fill="#c4c7c7">Partial order</text>
</a>
</g>
</g>
<!-- Transitive Relation&#45;&gt;Partial order -->
<g id="edge30" class="edge">
<title>Transitive Relation&#45;&gt;Partial order</title>
<path fill="none" stroke="#ffffff" d="M277.91,-71.81C381.42,-51.76 410.68,-57.28 510.48,-36 518.01,-34.39 525.98,-32.42 533.62,-30.39"/>
<polygon fill="#ffffff" stroke="#ffffff" points="277.12,-68.4 267.99,-73.77 278.48,-75.27 277.12,-68.4"/>
</g>
<!-- Symmetric Relation&#45;&gt;Relations -->
<g id="edge32" class="edge">
<title>Symmetric Relation&#45;&gt;Relations</title>
<path fill="none" stroke="#ffffff" d="M1582.7,-81.09C1548.52,-77.76 1507.49,-74.16 1470.48,-72 1165.11,-54.14 395.89,-88.07 94.48,-36 87.36,-34.77 79.89,-32.77 72.9,-30.57"/>
<polygon fill="#ffffff" stroke="#ffffff" points="1582.78,-84.61 1593.08,-82.11 1583.47,-77.65 1582.78,-84.61"/>
</g>
<!-- Symmetric Relation&#45;&gt;Symmetric Closure -->
<g id="edge31" class="edge">
<title>Symmetric Relation&#45;&gt;Symmetric Closure</title>
<path fill="none" stroke="#ffffff" d="M1663.72,-61.67C1665.69,-53.05 1667.81,-43.79 1669.57,-36.1"/>
<polygon fill="#ffffff" stroke="#ffffff" points="1660.25,-61.17 1661.43,-71.7 1667.07,-62.73 1660.25,-61.17"/>
</g>
<!-- Reflexive Relation&#45;&gt;Relations -->
<g id="edge34" class="edge">
<title>Reflexive Relation&#45;&gt;Relations</title>
<path fill="none" stroke="#ffffff" d="M275.68,-71.9C194.22,-54.18 171.14,-56.03 94.48,-36 87.86,-34.27 80.85,-32.17 74.2,-30.04"/>
<polygon fill="#ffffff" stroke="#ffffff" points="275.39,-75.42 285.91,-74.16 276.9,-68.59 275.39,-75.42"/>
</g>
<!-- Reflexive Relation&#45;&gt;Reflexive Closure -->
<g id="edge33" class="edge">
<title>Reflexive Relation&#45;&gt;Reflexive Closure</title>
<path fill="none" stroke="#ffffff" d="M413.41,-76.83C425.72,-74.97 438.46,-73.26 450.48,-72 822.71,-32.96 1271.59,-22.51 1441.13,-19.85"/>
<polygon fill="#ffffff" stroke="#ffffff" points="412.54,-73.42 403.2,-78.41 413.61,-80.34 412.54,-73.42"/>
</g>
<!-- Reflexive Relation&#45;&gt;Linear order -->
<g id="edge35" class="edge">
<title>Reflexive Relation&#45;&gt;Linear order</title>
<path fill="none" stroke="#ffffff" d="M413.05,-78.19C472.03,-68.49 559.24,-53.16 634.48,-36 641.98,-34.29 649.95,-32.26 657.58,-30.22"/>
<polygon fill="#ffffff" stroke="#ffffff" points="412.41,-74.75 403.1,-79.82 413.54,-81.66 412.41,-74.75"/>
</g>
<!-- Reflexive Relation&#45;&gt;Partial orders have no contours -->
<g id="edge36" class="edge">
<title>Reflexive Relation&#45;&gt;Partial orders have no contours</title>
<path fill="none" stroke="#ffffff" d="M358.7,-62.8C363.55,-53.87 368.83,-44.13 373.19,-36.1"/>
<polygon fill="#ffffff" stroke="#ffffff" points="355.56,-61.24 353.87,-71.7 361.72,-64.58 355.56,-61.24"/>
</g>
<!-- Reflexive Relation&#45;&gt;Partial order -->
<g id="edge37" class="edge">
<title>Reflexive Relation&#45;&gt;Partial order</title>
<path fill="none" stroke="#ffffff" d="M409.74,-68.96C450.19,-56.54 500.72,-41.03 534.65,-30.61"/>
<polygon fill="#ffffff" stroke="#ffffff" points="408.49,-65.68 399.96,-71.97 410.55,-72.38 408.49,-65.68"/>
</g>
<!-- Relation&#45;&gt;Transitive Relation -->
<g id="edge40" class="edge">
<title>Relation&#45;&gt;Transitive Relation</title>
<path fill="none" stroke="#ffffff" d="M1109.42,-161.14C982.75,-160.99 594.04,-156.33 276.48,-108 273.79,-107.59 271.06,-107.13 268.31,-106.62"/>
<polygon fill="#ffffff" stroke="#ffffff" points="1109.47,-164.64 1119.47,-161.14 1109.47,-157.64 1109.47,-164.64"/>
</g>
<!-- Relation&#45;&gt;Symmetric Relation -->
<g id="edge39" class="edge">
<title>Relation&#45;&gt;Symmetric Relation</title>
<path fill="none" stroke="#ffffff" d="M1193.82,-157.05C1270.88,-149.58 1439.02,-131.95 1579.48,-108 1583.98,-107.23 1588.63,-106.38 1593.29,-105.48"/>
<polygon fill="#ffffff" stroke="#ffffff" points="1193.19,-153.6 1183.57,-158.04 1193.86,-160.56 1193.19,-153.6"/>
</g>
<!-- Relation&#45;&gt;Reflexive Relation -->
<g id="edge41" class="edge">
<title>Relation&#45;&gt;Reflexive Relation</title>
<path fill="none" stroke="#ffffff" d="M1109.06,-158.12C957.77,-147.83 451.82,-113.21 417.48,-108 412.84,-107.3 408.07,-106.46 403.29,-105.53"/>
<polygon fill="#ffffff" stroke="#ffffff" points="1109.11,-161.63 1119.33,-158.82 1109.59,-154.65 1109.11,-161.63"/>
</g>
<!-- Relation&#45;&gt;Relations -->
<g id="edge48" class="edge">
<title>Relation&#45;&gt;Relations</title>
<path fill="none" stroke="#ffffff" d="M1109.32,-160.5C929.03,-158.12 227.82,-146.47 137.48,-108 127.86,-103.91 82.53,-59.25 58.13,-34.8"/>
<polygon fill="#ffffff" stroke="#ffffff" points="1109.42,-164 1119.47,-160.63 1109.51,-157 1109.42,-164"/>
</g>
<!-- Relation&#45;&gt;Reflexive Closure -->
<g id="edge44" class="edge">
<title>Relation&#45;&gt;Reflexive Closure</title>
<path fill="none" stroke="#ffffff" d="M1193.78,-160.93C1278.03,-159.83 1462.22,-152.29 1503.48,-108 1521.33,-88.83 1518.66,-56.19 1514.79,-36.21"/>
<polygon fill="#ffffff" stroke="#ffffff" points="1193.5,-157.43 1183.54,-161.04 1193.58,-164.43 1193.5,-157.43"/>
</g>
<!-- Relation&#45;&gt;Symmetric Closure -->
<g id="edge45" class="edge">
<title>Relation&#45;&gt;Symmetric Closure</title>
<path fill="none" stroke="#ffffff" d="M1193.95,-160.41C1264.57,-158.23 1409.7,-148.7 1524.48,-108 1553.79,-97.61 1557.78,-87.96 1584.48,-72 1605.31,-59.54 1628.92,-45.49 1646.59,-34.98"/>
<polygon fill="#ffffff" stroke="#ffffff" points="1193.58,-156.91 1183.68,-160.69 1193.77,-163.91 1193.58,-156.91"/>
</g>
<!-- Relation&#45;&gt;Linear order -->
<g id="edge49" class="edge">
<title>Relation&#45;&gt;Linear order</title>
<path fill="none" stroke="#ffffff" d="M1193.75,-160.45C1272.19,-158.45 1435.48,-149.29 1470.48,-108 1480.82,-95.79 1481.4,-83.69 1470.48,-72 1421.44,-19.49 916.44,-17.69 749.63,-18.55"/>
<polygon fill="#ffffff" stroke="#ffffff" points="1193.64,-156.96 1183.72,-160.68 1193.8,-163.95 1193.64,-156.96"/>
</g>
<!-- Relation&#45;&gt;Partial order -->
<g id="edge51" class="edge">
<title>Relation&#45;&gt;Partial order</title>
<path fill="none" stroke="#ffffff" d="M1109.12,-158.18C958.31,-148.1 456.12,-114.08 450.48,-108 439.6,-96.27 441.7,-85.38 450.48,-72 460.2,-57.18 502.12,-41.08 534.14,-30.56"/>
<polygon fill="#ffffff" stroke="#ffffff" points="1109.15,-161.69 1119.36,-158.87 1109.62,-154.71 1109.15,-161.69"/>
</g>
<!-- Anti&#45;symmetric Relation -->
<g id="node24" class="node">
<title>Anti&#45;symmetric Relation</title>
<g id="a_node24"><a xlink:href="../Anti-symmetric Relation.html" xlink:title="Anti&#45;symmetric Relation" target="_parent">
<ellipse fill="#273434" stroke="#b75867" cx="553.48" cy="-90" rx="93.64" ry="18"/>
<text text-anchor="middle" x="553.48" y="-86.9" font-family="sans" font-size="12.00" fill="#c4c7c7">Anti&#45;symmetric Relation</text>
</a>
</g>
</g>
<!-- Relation&#45;&gt;Anti&#45;symmetric Relation -->
<g id="edge38" class="edge">
<title>Relation&#45;&gt;Anti&#45;symmetric Relation</title>
<path fill="none" stroke="#ffffff" d="M1109.15,-157.29C1023.5,-149.59 823.57,-130.72 656.48,-108 644.8,-106.41 632.42,-104.54 620.43,-102.62"/>
<polygon fill="#ffffff" stroke="#ffffff" points="1108.99,-160.79 1119.26,-158.19 1109.61,-153.81 1108.99,-160.79"/>
</g>
<!-- Anti&#45;reflexive relation -->
<g id="node25" class="node">
<title>Anti&#45;reflexive relation</title>
<g id="a_node25"><a xlink:href="../Anti-reflexive relation.html" xlink:title="Anti&#45;reflexive relation" target="_parent">
<ellipse fill="#273434" stroke="#b75867" cx="750.48" cy="-90" rx="84.9" ry="18"/>
<text text-anchor="middle" x="750.48" y="-86.9" font-family="sans" font-size="12.00" fill="#c4c7c7">Anti&#45;reflexive relation</text>
</a>
</g>
</g>
<!-- Relation&#45;&gt;Anti&#45;reflexive relation -->
<g id="edge42" class="edge">
<title>Relation&#45;&gt;Anti&#45;reflexive relation</title>
<path fill="none" stroke="#ffffff" d="M1109.1,-153.79C1049.86,-143.7 938.94,-124.7 844.48,-108 834.19,-106.18 823.27,-104.23 812.66,-102.32"/>
<polygon fill="#ffffff" stroke="#ffffff" points="1108.75,-157.28 1119.2,-155.51 1109.93,-150.38 1108.75,-157.28"/>
</g>
<!-- Strongly Anti&#45;symmetric Relation -->
<g id="node26" class="node">
<title>Strongly Anti&#45;symmetric Relation</title>
<g id="a_node26"><a xlink:href="../Strongly Anti-symmetric Relation.html" xlink:title="Strongly Anti&#45;symmetric Relation" target="_parent">
<ellipse fill="#273434" stroke="#b75867" cx="978.48" cy="-90" rx="124.93" ry="18"/>
<text text-anchor="middle" x="978.48" y="-86.9" font-family="sans" font-size="12.00" fill="#c4c7c7">Strongly Anti&#45;symmetric Relation</text>
</a>
</g>
</g>
<!-- Relation&#45;&gt;Strongly Anti&#45;symmetric Relation -->
<g id="edge43" class="edge">
<title>Relation&#45;&gt;Strongly Anti&#45;symmetric Relation</title>
<path fill="none" stroke="#ffffff" d="M1109.9,-144.18C1082.11,-132.93 1045.77,-118.23 1018.35,-107.13"/>
<polygon fill="#ffffff" stroke="#ffffff" points="1108.76,-147.49 1119.34,-148 1111.38,-141 1108.76,-147.49"/>
</g>
<!-- Chain -->
<g id="node27" class="node">
<title>Chain</title>
<g id="a_node27"><a xlink:href="../Chain.html" xlink:title="Chain" target="_parent">
<ellipse fill="#273434" stroke="#b75867" cx="1151.48" cy="-90" rx="30.33" ry="18"/>
<text text-anchor="middle" x="1151.48" y="-86.9" font-family="sans" font-size="12.00" fill="#c4c7c7">Chain</text>
</a>
</g>
</g>
<!-- Relation&#45;&gt;Chain -->
<g id="edge46" class="edge">
<title>Relation&#45;&gt;Chain</title>
<path fill="none" stroke="#ffffff" d="M1151.48,-133.67C1151.48,-125.05 1151.48,-115.79 1151.48,-108.1"/>
<polygon fill="#ffffff" stroke="#ffffff" points="1147.98,-133.7 1151.48,-143.7 1154.98,-133.7 1147.98,-133.7"/>
</g>
<!-- Partial function -->
<g id="node28" class="node">
<title>Partial function</title>
<g id="a_node28"><a xlink:href="../Partial function.html" xlink:title="Partial function" target="_parent">
<ellipse fill="#273434" stroke="#b75867" cx="1263.48" cy="-90" rx="63.31" ry="18"/>
<text text-anchor="middle" x="1263.48" y="-86.9" font-family="sans" font-size="12.00" fill="#c4c7c7">Partial function</text>
</a>
</g>
</g>
<!-- Relation&#45;&gt;Partial function -->
<g id="edge47" class="edge">
<title>Relation&#45;&gt;Partial function</title>
<path fill="none" stroke="#ffffff" d="M1187.73,-138.34C1204.24,-128.02 1223.37,-116.07 1238.28,-106.75"/>
<polygon fill="#ffffff" stroke="#ffffff" points="1185.5,-135.61 1178.87,-143.88 1189.21,-141.54 1185.5,-135.61"/>
</g>
<!-- Total function -->
<g id="node29" class="node">
<title>Total function</title>
<g id="a_node29"><a xlink:href="../Total function.html" xlink:title="Total function" target="_parent">
<ellipse fill="#273434" stroke="#b75867" cx="1403.48" cy="-90" rx="58.46" ry="18"/>
<text text-anchor="middle" x="1403.48" y="-86.9" font-family="sans" font-size="12.00" fill="#c4c7c7">Total function</text>
</a>
</g>
</g>
<!-- Relation&#45;&gt;Total function -->
<g id="edge50" class="edge">
<title>Relation&#45;&gt;Total function</title>
<path fill="none" stroke="#ffffff" d="M1193.43,-149.35C1240.02,-136.4 1314.8,-115.63 1361.43,-102.68"/>
<polygon fill="#ffffff" stroke="#ffffff" points="1192.35,-146.01 1183.65,-152.06 1194.22,-152.76 1192.35,-146.01"/>
</g>
</g>
</svg>
