<?xml version="1.0" encoding="UTF-8" standalone="no"?>
<!DOCTYPE svg PUBLIC "-//W3C//DTD SVG 1.1//EN"
 "http://www.w3.org/Graphics/SVG/1.1/DTD/svg11.dtd">
<!-- Generated by graphviz version 2.44.0 (0)
 -->
<!-- Title: Combinatoric principles Pages: 1 -->
<svg width="539pt" height="284pt"
 viewBox="0.00 0.00 539.00 284.00" xmlns="http://www.w3.org/2000/svg" xmlns:xlink="http://www.w3.org/1999/xlink">
<g id="page0,1_graph0" class="graph" transform="scale(1 1) rotate(0) translate(4 280)">
<title>Combinatoric principles</title>
<polygon fill="#132020" stroke="transparent" points="-4,4 -4,-280 535,-280 535,4 -4,4"/>
<!-- Combinatoric principles -->
<g id="node1" class="node">
<title>Combinatoric principles</title>
<g id="a_node1"><a xlink:href="../Combinatoric principles.html" xlink:title="Combinatoric principles" target="_parent">
<path fill="#273434" stroke="#b75867" d="M139,-147C139,-147 12,-147 12,-147 6,-147 0,-141 0,-135 0,-135 0,-123 0,-123 0,-117 6,-111 12,-111 12,-111 139,-111 139,-111 145,-111 151,-117 151,-123 151,-123 151,-135 151,-135 151,-141 145,-147 139,-147"/>
<text text-anchor="middle" x="75.5" y="-125.9" font-family="sans" font-size="12.00" fill="#c4c7c7">Combinatoric principles</text>
</a>
</g>
</g>
<!-- Principle of inclusion and exclusion -->
<g id="node2" class="node">
<title>Principle of inclusion and exclusion</title>
<g id="a_node2"><a xlink:href="../Principle of inclusion and exclusion.html" xlink:title="Principle of inclusion and exclusion" target="_parent">
<path fill="#273434" stroke="#b75867" d="M362,-184C362,-184 171,-184 171,-184 165,-184 159,-178 159,-172 159,-172 159,-160 159,-160 159,-154 165,-148 171,-148 171,-148 362,-148 362,-148 368,-148 374,-154 374,-160 374,-160 374,-172 374,-172 374,-178 368,-184 362,-184"/>
<text text-anchor="middle" x="266.5" y="-162.9" font-family="sans" font-size="12.00" fill="#c4c7c7">Principle of inclusion and exclusion</text>
</a>
</g>
</g>
<!-- Combinatoric principles&#45;&gt;Principle of inclusion and exclusion -->
<g id="edge1" class="edge">
<title>Combinatoric principles&#45;&gt;Principle of inclusion and exclusion</title>
<path fill="none" stroke="#b75867" d="M151.2,-143.62C155.2,-144.41 159.26,-145.2 163.34,-146"/>
<polygon fill="#b75867" stroke="#b75867" points="163,-149.5 173.49,-147.99 164.35,-142.63 163,-149.5"/>
</g>
<!-- Principle of division -->
<g id="node3" class="node">
<title>Principle of division</title>
<g id="a_node3"><a xlink:href="../Principle of division.html" xlink:title="Principle of division" target="_parent">
<path fill="#273434" stroke="#b75867" d="M317.5,-258C317.5,-258 215.5,-258 215.5,-258 209.5,-258 203.5,-252 203.5,-246 203.5,-246 203.5,-234 203.5,-234 203.5,-228 209.5,-222 215.5,-222 215.5,-222 317.5,-222 317.5,-222 323.5,-222 329.5,-228 329.5,-234 329.5,-234 329.5,-246 329.5,-246 329.5,-252 323.5,-258 317.5,-258"/>
<text text-anchor="middle" x="266.5" y="-236.9" font-family="sans" font-size="12.00" fill="#c4c7c7">Principle of division</text>
</a>
</g>
</g>
<!-- Combinatoric principles&#45;&gt;Principle of division -->
<g id="edge2" class="edge">
<title>Combinatoric principles&#45;&gt;Principle of division</title>
<path fill="none" stroke="#b75867" d="M88.11,-147.16C102.27,-167.72 128.17,-200.61 159,-218 169.54,-223.94 181.47,-228.29 193.44,-231.46"/>
<polygon fill="#b75867" stroke="#b75867" points="192.93,-234.94 203.47,-233.87 194.56,-228.13 192.93,-234.94"/>
</g>
<!-- Principle of the bijection -->
<g id="node4" class="node">
<title>Principle of the bijection</title>
<g id="a_node4"><a xlink:href="../Principle of the bijection.html" xlink:title="Principle of the bijection" target="_parent">
<path fill="#273434" stroke="#b75867" d="M331.5,-147C331.5,-147 201.5,-147 201.5,-147 195.5,-147 189.5,-141 189.5,-135 189.5,-135 189.5,-123 189.5,-123 189.5,-117 195.5,-111 201.5,-111 201.5,-111 331.5,-111 331.5,-111 337.5,-111 343.5,-117 343.5,-123 343.5,-123 343.5,-135 343.5,-135 343.5,-141 337.5,-147 331.5,-147"/>
<text text-anchor="middle" x="266.5" y="-125.9" font-family="sans" font-size="12.00" fill="#c4c7c7">Principle of the bijection</text>
</a>
</g>
</g>
<!-- Combinatoric principles&#45;&gt;Principle of the bijection -->
<g id="edge3" class="edge">
<title>Combinatoric principles&#45;&gt;Principle of the bijection</title>
<path fill="none" stroke="#b75867" d="M151.2,-129C160.44,-129 169.95,-129 179.35,-129"/>
<polygon fill="#b75867" stroke="#b75867" points="179.49,-132.5 189.49,-129 179.49,-125.5 179.49,-132.5"/>
</g>
<!-- Principle of products -->
<g id="node5" class="node">
<title>Principle of products</title>
<g id="a_node5"><a xlink:href="../Principle of products.html" xlink:title="Principle of products" target="_parent">
<path fill="#273434" stroke="#b75867" d="M321.5,-221C321.5,-221 211.5,-221 211.5,-221 205.5,-221 199.5,-215 199.5,-209 199.5,-209 199.5,-197 199.5,-197 199.5,-191 205.5,-185 211.5,-185 211.5,-185 321.5,-185 321.5,-185 327.5,-185 333.5,-191 333.5,-197 333.5,-197 333.5,-209 333.5,-209 333.5,-215 327.5,-221 321.5,-221"/>
<text text-anchor="middle" x="266.5" y="-199.9" font-family="sans" font-size="12.00" fill="#c4c7c7">Principle of products</text>
</a>
</g>
</g>
<!-- Combinatoric principles&#45;&gt;Principle of products -->
<g id="edge4" class="edge">
<title>Combinatoric principles&#45;&gt;Principle of products</title>
<path fill="none" stroke="#b75867" d="M100.16,-147.14C116.02,-158.46 137.8,-172.46 159,-181 168.62,-184.88 179.02,-188.1 189.41,-190.78"/>
<polygon fill="#b75867" stroke="#b75867" points="188.81,-194.23 199.36,-193.18 190.46,-187.43 188.81,-194.23"/>
</g>
<!-- Principle of partitions -->
<g id="node6" class="node">
<title>Principle of partitions</title>
<g id="a_node6"><a xlink:href="../Principle of partitions.html" xlink:title="Principle of partitions" target="_parent">
<path fill="#273434" stroke="#b75867" d="M323,-110C323,-110 210,-110 210,-110 204,-110 198,-104 198,-98 198,-98 198,-86 198,-86 198,-80 204,-74 210,-74 210,-74 323,-74 323,-74 329,-74 335,-80 335,-86 335,-86 335,-98 335,-98 335,-104 329,-110 323,-110"/>
<text text-anchor="middle" x="266.5" y="-88.9" font-family="sans" font-size="12.00" fill="#c4c7c7">Principle of partitions</text>
</a>
</g>
</g>
<!-- Combinatoric principles&#45;&gt;Principle of partitions -->
<g id="edge5" class="edge">
<title>Combinatoric principles&#45;&gt;Principle of partitions</title>
<path fill="none" stroke="#b75867" d="M151.2,-114.38C163.21,-112.03 175.67,-109.59 187.75,-107.22"/>
<polygon fill="#b75867" stroke="#b75867" points="188.65,-110.61 197.79,-105.26 187.3,-103.74 188.65,-110.61"/>
</g>
<!-- Dirichlet principle -->
<g id="node7" class="node">
<title>Dirichlet principle</title>
<g id="a_node7"><a xlink:href="../Dirichlet principle.html" xlink:title="Dirichlet principle" target="_parent">
<path fill="#273434" stroke="#b75867" d="M312.5,-73C312.5,-73 220.5,-73 220.5,-73 214.5,-73 208.5,-67 208.5,-61 208.5,-61 208.5,-49 208.5,-49 208.5,-43 214.5,-37 220.5,-37 220.5,-37 312.5,-37 312.5,-37 318.5,-37 324.5,-43 324.5,-49 324.5,-49 324.5,-61 324.5,-61 324.5,-67 318.5,-73 312.5,-73"/>
<text text-anchor="middle" x="266.5" y="-51.9" font-family="sans" font-size="12.00" fill="#c4c7c7">Dirichlet principle</text>
</a>
</g>
</g>
<!-- Combinatoric principles&#45;&gt;Dirichlet principle -->
<g id="edge6" class="edge">
<title>Combinatoric principles&#45;&gt;Dirichlet principle</title>
<path fill="none" stroke="#b75867" d="M100.16,-110.86C116.02,-99.54 137.8,-85.54 159,-77 171.35,-72.02 184.98,-68.12 198.24,-65.07"/>
<polygon fill="#b75867" stroke="#b75867" points="199.25,-68.44 208.29,-62.91 197.77,-61.59 199.25,-68.44"/>
</g>
<!-- Combinatorics -->
<g id="node8" class="node">
<title>Combinatorics</title>
<g id="a_node8"><a xlink:href="../Combinatorics.html" xlink:title="Combinatorics" target="_parent">
<path fill="none" stroke="#b75867" d="M303.5,-36C303.5,-36 229.5,-36 229.5,-36 223.5,-36 217.5,-30 217.5,-24 217.5,-24 217.5,-12 217.5,-12 217.5,-6 223.5,0 229.5,0 229.5,0 303.5,0 303.5,0 309.5,0 315.5,-6 315.5,-12 315.5,-12 315.5,-24 315.5,-24 315.5,-30 309.5,-36 303.5,-36"/>
<text text-anchor="middle" x="266.5" y="-14.9" font-family="sans" font-size="12.00" fill="#c4c7c7">Combinatorics</text>
</a>
</g>
</g>
<!-- Combinatoric principles&#45;&gt;Combinatorics -->
<g id="edge7" class="edge">
<title>Combinatoric principles&#45;&gt;Combinatorics</title>
<path fill="none" stroke="#ffffff" d="M93.96,-102.61C108.83,-82.3 132.02,-55.21 159,-40 176.68,-30.03 198.29,-24.55 217.41,-21.56"/>
<polygon fill="#ffffff" stroke="#ffffff" points="91.05,-100.66 88.11,-110.84 96.76,-104.72 91.05,-100.66"/>
</g>
<!-- Principle of inclusion and exclusion&#45;&gt;Combinatoric principles -->
<g id="edge9" class="edge">
<title>Principle of inclusion and exclusion&#45;&gt;Combinatoric principles</title>
<path fill="none" stroke="#ffffff" d="M159.82,-146.06C156.93,-145.49 154.05,-144.92 151.2,-144.36"/>
<polygon fill="#ffffff" stroke="#ffffff" points="159.21,-149.5 169.7,-148 160.56,-142.63 159.21,-149.5"/>
</g>
<!-- Set -->
<g id="node9" class="node">
<title>Set</title>
<g id="a_node9"><a xlink:href="../Set.html" xlink:title="Set" target="_parent">
<path fill="#273434" stroke="#b75867" d="M471.5,-184C471.5,-184 441.5,-184 441.5,-184 435.5,-184 429.5,-178 429.5,-172 429.5,-172 429.5,-160 429.5,-160 429.5,-154 435.5,-148 441.5,-148 441.5,-148 471.5,-148 471.5,-148 477.5,-148 483.5,-154 483.5,-160 483.5,-160 483.5,-172 483.5,-172 483.5,-178 477.5,-184 471.5,-184"/>
<text text-anchor="middle" x="456.5" y="-162.9" font-family="sans" font-size="12.00" fill="#c4c7c7">Set</text>
</a>
</g>
</g>
<!-- Principle of inclusion and exclusion&#45;&gt;Set -->
<g id="edge8" class="edge">
<title>Principle of inclusion and exclusion&#45;&gt;Set</title>
<path fill="none" stroke="#b75867" d="M374.13,-166C390.35,-166 406.06,-166 419.28,-166"/>
<polygon fill="#b75867" stroke="#b75867" points="419.3,-169.5 429.3,-166 419.3,-162.5 419.3,-169.5"/>
</g>
<!-- Principle of division&#45;&gt;Combinatoric principles -->
<g id="edge13" class="edge">
<title>Principle of division&#45;&gt;Combinatoric principles</title>
<path fill="none" stroke="#ffffff" d="M193.44,-232.45C181.47,-229.29 169.54,-224.94 159,-219 127.8,-201.41 101.66,-167.93 87.61,-147.13"/>
<polygon fill="#ffffff" stroke="#ffffff" points="192.93,-235.92 203.47,-234.83 194.55,-229.11 192.93,-235.92"/>
</g>
<!-- Principle of division&#45;&gt;Set -->
<g id="edge12" class="edge">
<title>Principle of division&#45;&gt;Set</title>
<path fill="none" stroke="#b75867" d="M329.65,-236.48C345.28,-233.2 361.23,-227.56 374,-218 380.05,-213.47 376.59,-208.28 382,-203 392.69,-192.56 406.92,-184.47 420.01,-178.56"/>
<polygon fill="#b75867" stroke="#b75867" points="421.42,-181.76 429.27,-174.64 418.69,-175.31 421.42,-181.76"/>
</g>
<!-- Class of equivalence -->
<g id="node10" class="node">
<title>Class of equivalence</title>
<g id="a_node10"><a xlink:href="../Class of equivalence.html" xlink:title="Class of equivalence" target="_parent">
<path fill="#273434" stroke="#b75867" d="M510,-239C510,-239 403,-239 403,-239 397,-239 391,-233 391,-227 391,-227 391,-215 391,-215 391,-209 397,-203 403,-203 403,-203 510,-203 510,-203 516,-203 522,-209 522,-215 522,-215 522,-227 522,-227 522,-233 516,-239 510,-239"/>
<text text-anchor="middle" x="456.5" y="-217.9" font-family="sans" font-size="12.00" fill="#c4c7c7">Class of equivalence</text>
</a>
</g>
</g>
<!-- Principle of division&#45;&gt;Class of equivalence -->
<g id="edge10" class="edge">
<title>Principle of division&#45;&gt;Class of equivalence</title>
<path fill="none" stroke="#b75867" d="M329.58,-233.73C345.88,-232.08 363.63,-230.29 380.52,-228.58"/>
<polygon fill="#b75867" stroke="#b75867" points="381.31,-232.02 390.91,-227.53 380.61,-225.05 381.31,-232.02"/>
</g>
<!-- Relation of Equivalence -->
<g id="node11" class="node">
<title>Relation of Equivalence</title>
<g id="a_node11"><a xlink:href="../Relation of Equivalence.html" xlink:title="Relation of Equivalence" target="_parent">
<path fill="#273434" stroke="#b75867" d="M519,-276C519,-276 394,-276 394,-276 388,-276 382,-270 382,-264 382,-264 382,-252 382,-252 382,-246 388,-240 394,-240 394,-240 519,-240 519,-240 525,-240 531,-246 531,-252 531,-252 531,-264 531,-264 531,-270 525,-276 519,-276"/>
<text text-anchor="middle" x="456.5" y="-254.9" font-family="sans" font-size="12.00" fill="#c4c7c7">Relation of Equivalence</text>
</a>
</g>
</g>
<!-- Principle of division&#45;&gt;Relation of Equivalence -->
<g id="edge11" class="edge">
<title>Principle of division&#45;&gt;Relation of Equivalence</title>
<path fill="none" stroke="#b75867" d="M329.58,-245.94C343.01,-247.23 357.42,-248.61 371.52,-249.96"/>
<polygon fill="#b75867" stroke="#b75867" points="371.44,-253.47 381.72,-250.94 372.1,-246.5 371.44,-253.47"/>
</g>
<!-- Principle of the bijection&#45;&gt;Combinatoric principles -->
<g id="edge16" class="edge">
<title>Principle of the bijection&#45;&gt;Combinatoric principles</title>
<path fill="none" stroke="#ffffff" d="M179.35,-129.75C169.95,-129.75 160.44,-129.75 151.2,-129.74"/>
<polygon fill="#ffffff" stroke="#ffffff" points="179.49,-133.25 189.49,-129.74 179.48,-126.25 179.49,-133.25"/>
</g>
<!-- Principle of the bijection&#45;&gt;Set -->
<g id="edge15" class="edge">
<title>Principle of the bijection&#45;&gt;Set</title>
<path fill="none" stroke="#b75867" d="M343.7,-144C369.76,-149.13 397.72,-154.63 419.16,-158.85"/>
<polygon fill="#b75867" stroke="#b75867" points="418.64,-162.31 429.13,-160.81 419.99,-155.44 418.64,-162.31"/>
</g>
<!-- Bijective function -->
<g id="node12" class="node">
<title>Bijective function</title>
<g id="a_node12"><a xlink:href="../Bijective function.html" xlink:title="Bijective function" target="_parent">
<path fill="#273434" stroke="#b75867" d="M501.5,-147C501.5,-147 411.5,-147 411.5,-147 405.5,-147 399.5,-141 399.5,-135 399.5,-135 399.5,-123 399.5,-123 399.5,-117 405.5,-111 411.5,-111 411.5,-111 501.5,-111 501.5,-111 507.5,-111 513.5,-117 513.5,-123 513.5,-123 513.5,-135 513.5,-135 513.5,-141 507.5,-147 501.5,-147"/>
<text text-anchor="middle" x="456.5" y="-125.9" font-family="sans" font-size="12.00" fill="#c4c7c7">Bijective function</text>
</a>
</g>
</g>
<!-- Principle of the bijection&#45;&gt;Bijective function -->
<g id="edge14" class="edge">
<title>Principle of the bijection&#45;&gt;Bijective function</title>
<path fill="none" stroke="#b75867" d="M343.7,-129C358.83,-129 374.6,-129 389.37,-129"/>
<polygon fill="#b75867" stroke="#b75867" points="389.41,-132.5 399.41,-129 389.41,-125.5 389.41,-132.5"/>
</g>
<!-- Principle of products&#45;&gt;Combinatoric principles -->
<g id="edge18" class="edge">
<title>Principle of products&#45;&gt;Combinatoric principles</title>
<path fill="none" stroke="#ffffff" d="M189.41,-191.77C179.02,-189.1 168.62,-185.88 159,-182 137.33,-173.27 115.05,-158.84 99.11,-147.24"/>
<polygon fill="#ffffff" stroke="#ffffff" points="188.82,-195.23 199.36,-194.16 190.45,-188.42 188.82,-195.23"/>
</g>
<!-- Principle of products&#45;&gt;Set -->
<g id="edge17" class="edge">
<title>Principle of products&#45;&gt;Set</title>
<path fill="none" stroke="#b75867" d="M333.52,-190.01C362.4,-184.32 395.16,-177.87 419.46,-173.09"/>
<polygon fill="#b75867" stroke="#b75867" points="420.18,-176.52 429.31,-171.15 418.83,-169.65 420.18,-176.52"/>
</g>
<!-- Principle of partitions&#45;&gt;Combinatoric principles -->
<g id="edge21" class="edge">
<title>Principle of partitions&#45;&gt;Combinatoric principles</title>
<path fill="none" stroke="#ffffff" d="M187.75,-107.96C175.67,-110.34 163.21,-112.78 151.2,-115.11"/>
<polygon fill="#ffffff" stroke="#ffffff" points="188.66,-111.35 197.79,-105.98 187.3,-104.48 188.66,-111.35"/>
</g>
<!-- Principle of partitions&#45;&gt;Set -->
<g id="edge20" class="edge">
<title>Principle of partitions&#45;&gt;Set</title>
<path fill="none" stroke="#b75867" d="M335.11,-94.52C349.41,-97.97 363.36,-103.95 374,-114 384.03,-123.48 372.39,-134.1 382,-144 391.83,-154.13 406.12,-159.65 419.49,-162.63"/>
<polygon fill="#b75867" stroke="#b75867" points="418.98,-166.09 429.45,-164.45 420.24,-159.21 418.98,-166.09"/>
</g>
<!-- Partition -->
<g id="node13" class="node">
<title>Partition</title>
<g id="a_node13"><a xlink:href="../Partition.html" xlink:title="Partition" target="_parent">
<path fill="#273434" stroke="#b75867" d="M477,-110C477,-110 436,-110 436,-110 430,-110 424,-104 424,-98 424,-98 424,-86 424,-86 424,-80 430,-74 436,-74 436,-74 477,-74 477,-74 483,-74 489,-80 489,-86 489,-86 489,-98 489,-98 489,-104 483,-110 477,-110"/>
<text text-anchor="middle" x="456.5" y="-88.9" font-family="sans" font-size="12.00" fill="#c4c7c7">Partition</text>
</a>
</g>
</g>
<!-- Principle of partitions&#45;&gt;Partition -->
<g id="edge19" class="edge">
<title>Principle of partitions&#45;&gt;Partition</title>
<path fill="none" stroke="#b75867" d="M335.11,-92C361.4,-92 390.69,-92 413.79,-92"/>
<polygon fill="#b75867" stroke="#b75867" points="413.94,-95.5 423.94,-92 413.94,-88.5 413.94,-95.5"/>
</g>
<!-- Dirichlet principle&#45;&gt;Combinatoric principles -->
<g id="edge24" class="edge">
<title>Dirichlet principle&#45;&gt;Combinatoric principles</title>
<path fill="none" stroke="#ffffff" d="M198.24,-66.05C184.98,-69.12 171.35,-73.02 159,-78 138.27,-86.35 116.98,-99.92 101.23,-110.96"/>
<polygon fill="#ffffff" stroke="#ffffff" points="199.26,-69.41 208.29,-63.87 197.77,-62.57 199.26,-69.41"/>
</g>
<!-- Dirichlet principle&#45;&gt;Set -->
<g id="edge23" class="edge">
<title>Dirichlet principle&#45;&gt;Set</title>
<path fill="none" stroke="#b75867" d="M324.55,-54.18C342.75,-56.89 361.42,-63.3 374,-77 394.29,-99.09 362.69,-121.05 382,-144 391.16,-154.88 405.46,-160.52 419.03,-163.38"/>
<polygon fill="#b75867" stroke="#b75867" points="418.72,-166.88 429.16,-165.08 419.88,-159.98 418.72,-166.88"/>
</g>
<!-- Injective function -->
<g id="node14" class="node">
<title>Injective function</title>
<g id="a_node14"><a xlink:href="../Injective function.html" xlink:title="Injective function" target="_parent">
<path fill="#273434" stroke="#b75867" d="M501.5,-73C501.5,-73 411.5,-73 411.5,-73 405.5,-73 399.5,-67 399.5,-61 399.5,-61 399.5,-49 399.5,-49 399.5,-43 405.5,-37 411.5,-37 411.5,-37 501.5,-37 501.5,-37 507.5,-37 513.5,-43 513.5,-49 513.5,-49 513.5,-61 513.5,-61 513.5,-67 507.5,-73 501.5,-73"/>
<text text-anchor="middle" x="456.5" y="-51.9" font-family="sans" font-size="12.00" fill="#c4c7c7">Injective function</text>
</a>
</g>
</g>
<!-- Dirichlet principle&#45;&gt;Injective function -->
<g id="edge22" class="edge">
<title>Dirichlet principle&#45;&gt;Injective function</title>
<path fill="none" stroke="#b75867" d="M324.67,-55C345,-55 368.06,-55 389.1,-55"/>
<polygon fill="#b75867" stroke="#b75867" points="389.25,-58.5 399.25,-55 389.25,-51.5 389.25,-58.5"/>
</g>
<!-- Combinatorics&#45;&gt;Combinatoric principles -->
<g id="edge25" class="edge">
<title>Combinatorics&#45;&gt;Combinatoric principles</title>
<path fill="none" stroke="#b75867" d="M217.41,-22.48C198.29,-25.55 176.68,-31.03 159,-41 132.34,-56.03 109.38,-82.66 94.5,-102.7"/>
<polygon fill="#b75867" stroke="#b75867" points="91.64,-100.67 88.62,-110.83 97.32,-104.77 91.64,-100.67"/>
</g>
<!-- Discrete Structures -->
<g id="node15" class="node">
<title>Discrete Structures</title>
<g id="a_node15"><a xlink:href="../Discrete Structures.html" xlink:title="Discrete Structures" target="_parent">
<path fill="none" stroke="#b75867" d="M505.5,-36C505.5,-36 407.5,-36 407.5,-36 401.5,-36 395.5,-30 395.5,-24 395.5,-24 395.5,-12 395.5,-12 395.5,-6 401.5,0 407.5,0 407.5,0 505.5,0 505.5,0 511.5,0 517.5,-6 517.5,-12 517.5,-12 517.5,-24 517.5,-24 517.5,-30 511.5,-36 505.5,-36"/>
<text text-anchor="middle" x="456.5" y="-14.9" font-family="sans" font-size="12.00" fill="#c4c7c7">Discrete Structures</text>
</a>
</g>
</g>
<!-- Combinatorics&#45;&gt;Discrete Structures -->
<g id="edge26" class="edge">
<title>Combinatorics&#45;&gt;Discrete Structures</title>
<path fill="none" stroke="#ffffff" d="M326.14,-18C348.2,-18 373.3,-18 395.48,-18"/>
<polygon fill="#ffffff" stroke="#ffffff" points="325.91,-14.5 315.91,-18 325.91,-21.5 325.91,-14.5"/>
</g>
</g>
</svg>
