<?xml version="1.0" encoding="UTF-8" standalone="no"?>
<!DOCTYPE svg PUBLIC "-//W3C//DTD SVG 1.1//EN"
 "http://www.w3.org/Graphics/SVG/1.1/DTD/svg11.dtd">
<!-- Generated by graphviz version 2.44.0 (0)
 -->
<!-- Title: Combinatorics Pages: 1 -->
<svg width="982pt" height="188pt"
 viewBox="0.00 0.00 981.50 188.00" xmlns="http://www.w3.org/2000/svg" xmlns:xlink="http://www.w3.org/1999/xlink">
<g id="page0,1_graph0" class="graph" transform="scale(1 1) rotate(0) translate(4 184)">
<title>Combinatorics</title>
<polygon fill="#132020" stroke="transparent" points="-4,4 -4,-184 977.5,-184 977.5,4 -4,4"/>
<!-- Combinatorics -->
<g id="node1" class="node">
<title>Combinatorics</title>
<g id="a_node1"><a xlink:title="Combinatorics">
<path fill="#273434" stroke="#b75867" d="M656.5,-180C656.5,-180 582.5,-180 582.5,-180 576.5,-180 570.5,-174 570.5,-168 570.5,-168 570.5,-156 570.5,-156 570.5,-150 576.5,-144 582.5,-144 582.5,-144 656.5,-144 656.5,-144 662.5,-144 668.5,-150 668.5,-156 668.5,-156 668.5,-168 668.5,-168 668.5,-174 662.5,-180 656.5,-180"/>
<text text-anchor="middle" x="619.5" y="-158.9" font-family="sans" font-size="12.00" fill="#c4c7c7">Combinatorics</text>
</a>
</g>
</g>
<!-- Combinatoric principles -->
<g id="node2" class="node">
<title>Combinatoric principles</title>
<g id="a_node2"><a xlink:title="Combinatoric principles">
<path fill="#273434" stroke="#b75867" d="M599,-108C599,-108 472,-108 472,-108 466,-108 460,-102 460,-96 460,-96 460,-84 460,-84 460,-78 466,-72 472,-72 472,-72 599,-72 599,-72 605,-72 611,-78 611,-84 611,-84 611,-96 611,-96 611,-102 605,-108 599,-108"/>
<text text-anchor="middle" x="535.5" y="-86.9" font-family="sans" font-size="12.00" fill="#c4c7c7">Combinatoric principles</text>
</a>
</g>
</g>
<!-- Combinatorics&#45;&gt;Combinatoric principles -->
<g id="edge1" class="edge">
<title>Combinatorics&#45;&gt;Combinatoric principles</title>
<path fill="none" stroke="#b75867" d="M598.74,-143.7C588.26,-134.97 575.39,-124.24 564,-114.75"/>
<polygon fill="#b75867" stroke="#b75867" points="565.95,-111.82 556.03,-108.1 561.47,-117.19 565.95,-111.82"/>
</g>
<!-- Discrete Structures -->
<g id="node9" class="node">
<title>Discrete Structures</title>
<g id="a_node9"><a xlink:title="Discrete Structures">
<ellipse fill="#273434" stroke="#b75867" cx="704.5" cy="-90" rx="75.2" ry="18"/>
<text text-anchor="middle" x="704.5" y="-86.9" font-family="sans" font-size="12.00" fill="#c4c7c7">Discrete Structures</text>
</a>
</g>
</g>
<!-- Combinatorics&#45;&gt;Discrete Structures -->
<g id="edge8" class="edge">
<title>Combinatorics&#45;&gt;Discrete Structures</title>
<path fill="none" stroke="#ffffff" d="M648.45,-137.16C660.35,-127.36 673.84,-116.25 684.61,-107.38"/>
<polygon fill="#ffffff" stroke="#ffffff" points="646.01,-134.64 640.51,-143.7 650.46,-140.04 646.01,-134.64"/>
</g>
<!-- Principle of inclusion and exclusion -->
<g id="node3" class="node">
<title>Principle of inclusion and exclusion</title>
<g id="a_node3"><a xlink:title="Principle of inclusion and exclusion">
<path fill="#273434" stroke="#b75867" d="M203,-36C203,-36 12,-36 12,-36 6,-36 0,-30 0,-24 0,-24 0,-12 0,-12 0,-6 6,0 12,0 12,0 203,0 203,0 209,0 215,-6 215,-12 215,-12 215,-24 215,-24 215,-30 209,-36 203,-36"/>
<text text-anchor="middle" x="107.5" y="-14.9" font-family="sans" font-size="12.00" fill="#c4c7c7">Principle of inclusion and exclusion</text>
</a>
</g>
</g>
<!-- Combinatoric principles&#45;&gt;Principle of inclusion and exclusion -->
<g id="edge2" class="edge">
<title>Combinatoric principles&#45;&gt;Principle of inclusion and exclusion</title>
<path fill="none" stroke="#b75867" d="M459.97,-76.65C393.94,-65.85 297.09,-50.01 221.61,-37.66"/>
<polygon fill="#b75867" stroke="#b75867" points="222.01,-34.18 211.58,-36.02 220.88,-41.09 222.01,-34.18"/>
</g>
<!-- Principle of division -->
<g id="node4" class="node">
<title>Principle of division</title>
<g id="a_node4"><a xlink:title="Principle of division">
<path fill="#273434" stroke="#b75867" d="M347.5,-36C347.5,-36 245.5,-36 245.5,-36 239.5,-36 233.5,-30 233.5,-24 233.5,-24 233.5,-12 233.5,-12 233.5,-6 239.5,0 245.5,0 245.5,0 347.5,0 347.5,0 353.5,0 359.5,-6 359.5,-12 359.5,-12 359.5,-24 359.5,-24 359.5,-30 353.5,-36 347.5,-36"/>
<text text-anchor="middle" x="296.5" y="-14.9" font-family="sans" font-size="12.00" fill="#c4c7c7">Principle of division</text>
</a>
</g>
</g>
<!-- Combinatoric principles&#45;&gt;Principle of division -->
<g id="edge3" class="edge">
<title>Combinatoric principles&#45;&gt;Principle of division</title>
<path fill="none" stroke="#b75867" d="M477.34,-71.97C443.37,-62.01 400.32,-49.41 364.74,-38.99"/>
<polygon fill="#b75867" stroke="#b75867" points="365.5,-35.56 354.92,-36.11 363.53,-42.28 365.5,-35.56"/>
</g>
<!-- Principle of the bijection -->
<g id="node5" class="node">
<title>Principle of the bijection</title>
<g id="a_node5"><a xlink:title="Principle of the bijection">
<path fill="#273434" stroke="#b75867" d="M519.5,-36C519.5,-36 389.5,-36 389.5,-36 383.5,-36 377.5,-30 377.5,-24 377.5,-24 377.5,-12 377.5,-12 377.5,-6 383.5,0 389.5,0 389.5,0 519.5,0 519.5,0 525.5,0 531.5,-6 531.5,-12 531.5,-12 531.5,-24 531.5,-24 531.5,-30 525.5,-36 519.5,-36"/>
<text text-anchor="middle" x="454.5" y="-14.9" font-family="sans" font-size="12.00" fill="#c4c7c7">Principle of the bijection</text>
</a>
</g>
</g>
<!-- Combinatoric principles&#45;&gt;Principle of the bijection -->
<g id="edge4" class="edge">
<title>Combinatoric principles&#45;&gt;Principle of the bijection</title>
<path fill="none" stroke="#b75867" d="M515.48,-71.7C505.37,-62.97 492.96,-52.24 481.98,-42.75"/>
<polygon fill="#b75867" stroke="#b75867" points="484.15,-39.99 474.29,-36.1 479.57,-45.29 484.15,-39.99"/>
</g>
<!-- Principle of products -->
<g id="node6" class="node">
<title>Principle of products</title>
<g id="a_node6"><a xlink:title="Principle of products">
<path fill="#273434" stroke="#b75867" d="M671.5,-36C671.5,-36 561.5,-36 561.5,-36 555.5,-36 549.5,-30 549.5,-24 549.5,-24 549.5,-12 549.5,-12 549.5,-6 555.5,0 561.5,0 561.5,0 671.5,0 671.5,0 677.5,0 683.5,-6 683.5,-12 683.5,-12 683.5,-24 683.5,-24 683.5,-30 677.5,-36 671.5,-36"/>
<text text-anchor="middle" x="616.5" y="-14.9" font-family="sans" font-size="12.00" fill="#c4c7c7">Principle of products</text>
</a>
</g>
</g>
<!-- Combinatoric principles&#45;&gt;Principle of products -->
<g id="edge5" class="edge">
<title>Combinatoric principles&#45;&gt;Principle of products</title>
<path fill="none" stroke="#b75867" d="M555.52,-71.7C565.63,-62.97 578.04,-52.24 589.02,-42.75"/>
<polygon fill="#b75867" stroke="#b75867" points="591.43,-45.29 596.71,-36.1 586.85,-39.99 591.43,-45.29"/>
</g>
<!-- Principle of partitions -->
<g id="node7" class="node">
<title>Principle of partitions</title>
<g id="a_node7"><a xlink:title="Principle of partitions">
<path fill="#273434" stroke="#b75867" d="M827,-36C827,-36 714,-36 714,-36 708,-36 702,-30 702,-24 702,-24 702,-12 702,-12 702,-6 708,0 714,0 714,0 827,0 827,0 833,0 839,-6 839,-12 839,-12 839,-24 839,-24 839,-30 833,-36 827,-36"/>
<text text-anchor="middle" x="770.5" y="-14.9" font-family="sans" font-size="12.00" fill="#c4c7c7">Principle of partitions</text>
</a>
</g>
</g>
<!-- Combinatoric principles&#45;&gt;Principle of partitions -->
<g id="edge6" class="edge">
<title>Combinatoric principles&#45;&gt;Principle of partitions</title>
<path fill="none" stroke="#b75867" d="M592.69,-71.97C626.09,-62.01 668.42,-49.41 703.4,-38.99"/>
<polygon fill="#b75867" stroke="#b75867" points="704.47,-42.32 713.06,-36.11 702.47,-35.61 704.47,-42.32"/>
</g>
<!-- Dirichlet principle -->
<g id="node8" class="node">
<title>Dirichlet principle</title>
<g id="a_node8"><a xlink:title="Dirichlet principle">
<path fill="#273434" stroke="#b75867" d="M961.5,-36C961.5,-36 869.5,-36 869.5,-36 863.5,-36 857.5,-30 857.5,-24 857.5,-24 857.5,-12 857.5,-12 857.5,-6 863.5,0 869.5,0 869.5,0 961.5,0 961.5,0 967.5,0 973.5,-6 973.5,-12 973.5,-12 973.5,-24 973.5,-24 973.5,-30 967.5,-36 961.5,-36"/>
<text text-anchor="middle" x="915.5" y="-14.9" font-family="sans" font-size="12.00" fill="#c4c7c7">Dirichlet principle</text>
</a>
</g>
</g>
<!-- Combinatoric principles&#45;&gt;Dirichlet principle -->
<g id="edge7" class="edge">
<title>Combinatoric principles&#45;&gt;Dirichlet principle</title>
<path fill="none" stroke="#b75867" d="M611.01,-73.73C614.22,-73.14 617.39,-72.56 620.5,-72 718.33,-54.5 746.28,-56.49 847.45,-36.11"/>
<polygon fill="#b75867" stroke="#b75867" points="848.37,-39.5 857.47,-34.07 846.97,-32.64 848.37,-39.5"/>
</g>
</g>
</svg>
