<?xml version="1.0" encoding="UTF-8" standalone="no"?>
<!DOCTYPE svg PUBLIC "-//W3C//DTD SVG 1.1//EN"
 "http://www.w3.org/Graphics/SVG/1.1/DTD/svg11.dtd">
<!-- Generated by graphviz version 2.44.0 (0)
 -->
<!-- Title: Computer Architectures Pages: 1 -->
<svg width="159pt" height="116pt"
 viewBox="0.00 0.00 159.00 116.00" xmlns="http://www.w3.org/2000/svg" xmlns:xlink="http://www.w3.org/1999/xlink">
<g id="page0,1_graph0" class="graph" transform="scale(1 1) rotate(0) translate(4 112)">
<title>Computer Architectures</title>
<polygon fill="#132020" stroke="transparent" points="-4,4 -4,-112 155,-112 155,4 -4,4"/>
<!-- Computer Architectures -->
<g id="node1" class="node">
<title>Computer Architectures</title>
<g id="a_node1"><a xlink:href="../Computer Architectures.html" xlink:title="Computer Architectures" target="_parent">
<path fill="#273434" stroke="#b75867" d="M139,-108C139,-108 12,-108 12,-108 6,-108 0,-102 0,-96 0,-96 0,-84 0,-84 0,-78 6,-72 12,-72 12,-72 139,-72 139,-72 145,-72 151,-78 151,-84 151,-84 151,-96 151,-96 151,-102 145,-108 139,-108"/>
<text text-anchor="middle" x="75.5" y="-86.9" font-family="sans" font-size="12.00" fill="#c4c7c7">Computer Architectures</text>
</a>
</g>
</g>
<!-- Knowledege Base -->
<g id="node2" class="node">
<title>Knowledege Base</title>
<g id="a_node2"><a xlink:href="../Knowledege Base.html" xlink:title="Knowledege Base" target="_parent">
<ellipse fill="#273434" stroke="#b75867" cx="75.5" cy="-18" rx="72.05" ry="18"/>
<text text-anchor="middle" x="75.5" y="-14.9" font-family="sans" font-size="12.00" fill="#c4c7c7">Knowledege Base</text>
</a>
</g>
</g>
<!-- Computer Architectures&#45;&gt;Knowledege Base -->
<g id="edge1" class="edge">
<title>Computer Architectures&#45;&gt;Knowledege Base</title>
<path fill="none" stroke="#ffffff" d="M75.5,-61.67C75.5,-53.05 75.5,-43.79 75.5,-36.1"/>
<polygon fill="#ffffff" stroke="#ffffff" points="72,-61.7 75.5,-71.7 79,-61.7 72,-61.7"/>
</g>
</g>
</svg>
