<?xml version="1.0" encoding="UTF-8" standalone="no"?>
<!DOCTYPE svg PUBLIC "-//W3C//DTD SVG 1.1//EN"
 "http://www.w3.org/Graphics/SVG/1.1/DTD/svg11.dtd">
<!-- Generated by graphviz version 2.44.0 (0)
 -->
<!-- Title: Contour Pages: 1 -->
<svg width="2312pt" height="260pt"
 viewBox="0.00 0.00 2312.42 260.00" xmlns="http://www.w3.org/2000/svg" xmlns:xlink="http://www.w3.org/1999/xlink">
<g id="page0,1_graph0" class="graph" transform="scale(1 1) rotate(0) translate(4 256)">
<title>Contour</title>
<polygon fill="#132020" stroke="transparent" points="-4,4 -4,-256 2308.42,-256 2308.42,4 -4,4"/>
<!-- Contour -->
<g id="node1" class="node">
<title>Contour</title>
<g id="a_node1"><a xlink:title="Contour">
<path fill="#273434" stroke="#b75867" d="M554.98,-252C554.98,-252 515.98,-252 515.98,-252 509.98,-252 503.98,-246 503.98,-240 503.98,-240 503.98,-228 503.98,-228 503.98,-222 509.98,-216 515.98,-216 515.98,-216 554.98,-216 554.98,-216 560.98,-216 566.98,-222 566.98,-228 566.98,-228 566.98,-240 566.98,-240 566.98,-246 560.98,-252 554.98,-252"/>
<text text-anchor="middle" x="535.48" y="-230.9" font-family="sans" font-size="12.00" fill="#c4c7c7">Contour</text>
</a>
</g>
</g>
<!-- Chain -->
<g id="node2" class="node">
<title>Chain</title>
<g id="a_node2"><a xlink:title="Chain">
<path fill="#273434" stroke="#b75867" d="M550.48,-180C550.48,-180 520.48,-180 520.48,-180 514.48,-180 508.48,-174 508.48,-168 508.48,-168 508.48,-156 508.48,-156 508.48,-150 514.48,-144 520.48,-144 520.48,-144 550.48,-144 550.48,-144 556.48,-144 562.48,-150 562.48,-156 562.48,-156 562.48,-168 562.48,-168 562.48,-174 556.48,-180 550.48,-180"/>
<text text-anchor="middle" x="535.48" y="-158.9" font-family="sans" font-size="12.00" fill="#c4c7c7">Chain</text>
</a>
</g>
</g>
<!-- Contour&#45;&gt;Chain -->
<g id="edge1" class="edge">
<title>Contour&#45;&gt;Chain</title>
<path fill="none" stroke="#b75867" d="M529.56,-215.7C528.76,-207.98 528.54,-198.71 528.88,-190.11"/>
<polygon fill="#b75867" stroke="#b75867" points="532.37,-190.32 529.58,-180.1 525.39,-189.84 532.37,-190.32"/>
</g>
<!-- Partial orders have no contours -->
<g id="node3" class="node">
<title>Partial orders have no contours</title>
<g id="a_node3"><a xlink:title="Partial orders have no contours">
<path fill="#273434" stroke="#b75867" d="M512.98,-108C512.98,-108 343.98,-108 343.98,-108 337.98,-108 331.98,-102 331.98,-96 331.98,-96 331.98,-84 331.98,-84 331.98,-78 337.98,-72 343.98,-72 343.98,-72 512.98,-72 512.98,-72 518.98,-72 524.98,-78 524.98,-84 524.98,-84 524.98,-96 524.98,-96 524.98,-102 518.98,-108 512.98,-108"/>
<text text-anchor="middle" x="428.48" y="-86.9" font-family="sans" font-size="12.00" fill="#c4c7c7">Partial orders have no contours</text>
</a>
</g>
</g>
<!-- Contour&#45;&gt;Partial orders have no contours -->
<g id="edge5" class="edge">
<title>Contour&#45;&gt;Partial orders have no contours</title>
<path fill="none" stroke="#ffffff" d="M516.3,-207.56C494.68,-178.86 460.09,-132.96 441.43,-108.19"/>
<polygon fill="#ffffff" stroke="#ffffff" points="513.76,-209.99 522.57,-215.87 519.35,-205.78 513.76,-209.99"/>
</g>
<!-- Chain&#45;&gt;Contour -->
<g id="edge3" class="edge">
<title>Chain&#45;&gt;Contour</title>
<path fill="none" stroke="#b75867" d="M541.37,-180.1C542.18,-187.79 542.41,-197.05 542.08,-205.67"/>
<polygon fill="#b75867" stroke="#b75867" points="538.58,-205.48 541.39,-215.7 545.57,-205.96 538.58,-205.48"/>
</g>
<!-- Chain&#45;&gt;Partial orders have no contours -->
<g id="edge2" class="edge">
<title>Chain&#45;&gt;Partial orders have no contours</title>
<path fill="none" stroke="#b75867" d="M509.3,-143.88C495.44,-134.81 478.23,-123.55 463.26,-113.76"/>
<polygon fill="#b75867" stroke="#b75867" points="465.04,-110.74 454.75,-108.19 461.2,-116.59 465.04,-110.74"/>
</g>
<!-- Relation -->
<g id="node4" class="node">
<title>Relation</title>
<g id="a_node4"><a xlink:title="Relation">
<path fill="#273434" stroke="#b75867" d="M1145.48,-108C1145.48,-108 1105.48,-108 1105.48,-108 1099.48,-108 1093.48,-102 1093.48,-96 1093.48,-96 1093.48,-84 1093.48,-84 1093.48,-78 1099.48,-72 1105.48,-72 1105.48,-72 1145.48,-72 1145.48,-72 1151.48,-72 1157.48,-78 1157.48,-84 1157.48,-84 1157.48,-96 1157.48,-96 1157.48,-102 1151.48,-108 1145.48,-108"/>
<text text-anchor="middle" x="1125.48" y="-86.9" font-family="sans" font-size="12.00" fill="#c4c7c7">Relation</text>
</a>
</g>
</g>
<!-- Chain&#45;&gt;Relation -->
<g id="edge4" class="edge">
<title>Chain&#45;&gt;Relation</title>
<path fill="none" stroke="#b75867" d="M562.75,-157.76C656.92,-146.59 968.88,-109.58 1083.1,-96.03"/>
<polygon fill="#b75867" stroke="#b75867" points="1083.69,-99.48 1093.21,-94.83 1082.86,-92.53 1083.69,-99.48"/>
</g>
<!-- Relations -->
<g id="node5" class="node">
<title>Relations</title>
<g id="a_node5"><a xlink:title="Relations">
<ellipse fill="#273434" stroke="#b75867" cx="42.48" cy="-18" rx="42.45" ry="18"/>
<text text-anchor="middle" x="42.48" y="-14.9" font-family="sans" font-size="12.00" fill="#c4c7c7">Relations</text>
</a>
</g>
</g>
<!-- Chain&#45;&gt;Relations -->
<g id="edge6" class="edge">
<title>Chain&#45;&gt;Relations</title>
<path fill="none" stroke="#ffffff" d="M543.85,-133.84C548.08,-114.13 549.57,-88.19 534.48,-72 500.95,-36.04 141.64,-45.84 93.48,-36 86.8,-34.64 79.79,-32.67 73.17,-30.55"/>
<polygon fill="#ffffff" stroke="#ffffff" points="540.39,-133.22 541.38,-143.77 547.19,-134.91 540.39,-133.22"/>
</g>
<!-- Relation&#45;&gt;Relations -->
<g id="edge17" class="edge">
<title>Relation&#45;&gt;Relations</title>
<path fill="none" stroke="#ffffff" d="M1083.19,-87.5C901.48,-80.98 191.73,-54.54 93.48,-36 86.69,-34.72 79.56,-32.76 72.86,-30.62"/>
<polygon fill="#ffffff" stroke="#ffffff" points="1083.29,-91.01 1093.41,-87.87 1083.54,-84.01 1083.29,-91.01"/>
</g>
<!-- Anti&#45;symmetric Relation -->
<g id="node6" class="node">
<title>Anti&#45;symmetric Relation</title>
<g id="a_node6"><a xlink:title="Anti&#45;symmetric Relation">
<ellipse fill="#273434" stroke="#b75867" cx="196.48" cy="-18" rx="93.64" ry="18"/>
<text text-anchor="middle" x="196.48" y="-14.9" font-family="sans" font-size="12.00" fill="#c4c7c7">Anti&#45;symmetric Relation</text>
</a>
</g>
</g>
<!-- Relation&#45;&gt;Anti&#45;symmetric Relation -->
<g id="edge7" class="edge">
<title>Relation&#45;&gt;Anti&#45;symmetric Relation</title>
<path fill="none" stroke="#ffffff" d="M1083.41,-87.81C961.59,-84.03 598.11,-70.48 298.48,-36 286.62,-34.64 274.03,-32.83 261.91,-30.91"/>
<polygon fill="#ffffff" stroke="#ffffff" points="1083.34,-91.31 1093.44,-88.11 1083.55,-84.31 1083.34,-91.31"/>
</g>
<!-- Symmetric Relation -->
<g id="node7" class="node">
<title>Symmetric Relation</title>
<g id="a_node7"><a xlink:title="Symmetric Relation">
<ellipse fill="#273434" stroke="#b75867" cx="386.48" cy="-18" rx="78.59" ry="18"/>
<text text-anchor="middle" x="386.48" y="-14.9" font-family="sans" font-size="12.00" fill="#c4c7c7">Symmetric Relation</text>
</a>
</g>
</g>
<!-- Relation&#45;&gt;Symmetric Relation -->
<g id="edge8" class="edge">
<title>Relation&#45;&gt;Symmetric Relation</title>
<path fill="none" stroke="#ffffff" d="M1083.06,-87.16C978.99,-82.29 702.84,-67.26 474.48,-36 464.15,-34.59 453.2,-32.75 442.66,-30.8"/>
<polygon fill="#ffffff" stroke="#ffffff" points="1083.01,-90.66 1093.16,-87.62 1083.34,-83.67 1083.01,-90.66"/>
</g>
<!-- Transitive Relation -->
<g id="node8" class="node">
<title>Transitive Relation</title>
<g id="a_node8"><a xlink:title="Transitive Relation">
<ellipse fill="#273434" stroke="#b75867" cx="557.48" cy="-18" rx="74.47" ry="18"/>
<text text-anchor="middle" x="557.48" y="-14.9" font-family="sans" font-size="12.00" fill="#c4c7c7">Transitive Relation</text>
</a>
</g>
</g>
<!-- Relation&#45;&gt;Transitive Relation -->
<g id="edge9" class="edge">
<title>Relation&#45;&gt;Transitive Relation</title>
<path fill="none" stroke="#ffffff" d="M1083.14,-85.66C998.78,-78.73 803.88,-61.27 641.48,-36 631.63,-34.47 621.18,-32.57 611.12,-30.61"/>
<polygon fill="#ffffff" stroke="#ffffff" points="1083.09,-89.17 1093.34,-86.5 1083.66,-82.19 1083.09,-89.17"/>
</g>
<!-- Reflexive Relation -->
<g id="node9" class="node">
<title>Reflexive Relation</title>
<g id="a_node9"><a xlink:title="Reflexive Relation">
<ellipse fill="#273434" stroke="#b75867" cx="722.48" cy="-18" rx="72.05" ry="18"/>
<text text-anchor="middle" x="722.48" y="-14.9" font-family="sans" font-size="12.00" fill="#c4c7c7">Reflexive Relation</text>
</a>
</g>
</g>
<!-- Relation&#45;&gt;Reflexive Relation -->
<g id="edge10" class="edge">
<title>Relation&#45;&gt;Reflexive Relation</title>
<path fill="none" stroke="#ffffff" d="M1083.29,-82.66C1021.67,-73.26 903.5,-54.72 803.48,-36 794.3,-34.28 784.55,-32.34 775.13,-30.4"/>
<polygon fill="#ffffff" stroke="#ffffff" points="1082.99,-86.15 1093.4,-84.2 1084.04,-79.23 1082.99,-86.15"/>
</g>
<!-- Anti&#45;reflexive relation -->
<g id="node10" class="node">
<title>Anti&#45;reflexive relation</title>
<g id="a_node10"><a xlink:title="Anti&#45;reflexive relation">
<ellipse fill="#273434" stroke="#b75867" cx="897.48" cy="-18" rx="84.9" ry="18"/>
<text text-anchor="middle" x="897.48" y="-14.9" font-family="sans" font-size="12.00" fill="#c4c7c7">Anti&#45;reflexive relation</text>
</a>
</g>
</g>
<!-- Relation&#45;&gt;Anti&#45;reflexive relation -->
<g id="edge11" class="edge">
<title>Relation&#45;&gt;Anti&#45;reflexive relation</title>
<path fill="none" stroke="#ffffff" d="M1083.67,-76.17C1044.06,-64.01 984.7,-45.78 943.7,-33.19"/>
<polygon fill="#ffffff" stroke="#ffffff" points="1082.71,-79.53 1093.29,-79.12 1084.76,-72.84 1082.71,-79.53"/>
</g>
<!-- Strongly Anti&#45;symmetric Relation -->
<g id="node11" class="node">
<title>Strongly Anti&#45;symmetric Relation</title>
<g id="a_node11"><a xlink:title="Strongly Anti&#45;symmetric Relation">
<ellipse fill="#273434" stroke="#b75867" cx="1125.48" cy="-18" rx="124.93" ry="18"/>
<text text-anchor="middle" x="1125.48" y="-14.9" font-family="sans" font-size="12.00" fill="#c4c7c7">Strongly Anti&#45;symmetric Relation</text>
</a>
</g>
</g>
<!-- Relation&#45;&gt;Strongly Anti&#45;symmetric Relation -->
<g id="edge12" class="edge">
<title>Relation&#45;&gt;Strongly Anti&#45;symmetric Relation</title>
<path fill="none" stroke="#ffffff" d="M1125.48,-61.67C1125.48,-53.05 1125.48,-43.79 1125.48,-36.1"/>
<polygon fill="#ffffff" stroke="#ffffff" points="1121.98,-61.7 1125.48,-71.7 1128.98,-61.7 1121.98,-61.7"/>
</g>
<!-- Reflexive Closure -->
<g id="node12" class="node">
<title>Reflexive Closure</title>
<g id="a_node12"><a xlink:title="Reflexive Closure">
<ellipse fill="#273434" stroke="#b75867" cx="1338.48" cy="-18" rx="69.62" ry="18"/>
<text text-anchor="middle" x="1338.48" y="-14.9" font-family="sans" font-size="12.00" fill="#c4c7c7">Reflexive Closure</text>
</a>
</g>
</g>
<!-- Relation&#45;&gt;Reflexive Closure -->
<g id="edge13" class="edge">
<title>Relation&#45;&gt;Reflexive Closure</title>
<path fill="none" stroke="#ffffff" d="M1167.45,-75.21C1204.98,-62.87 1259.66,-44.9 1297.03,-32.62"/>
<polygon fill="#ffffff" stroke="#ffffff" points="1166.23,-71.92 1157.83,-78.37 1168.42,-78.57 1166.23,-71.92"/>
</g>
<!-- Symmetric Closure -->
<g id="node13" class="node">
<title>Symmetric Closure</title>
<g id="a_node13"><a xlink:title="Symmetric Closure">
<ellipse fill="#273434" stroke="#b75867" cx="1501.48" cy="-18" rx="75.94" ry="18"/>
<text text-anchor="middle" x="1501.48" y="-14.9" font-family="sans" font-size="12.00" fill="#c4c7c7">Symmetric Closure</text>
</a>
</g>
</g>
<!-- Relation&#45;&gt;Symmetric Closure -->
<g id="edge14" class="edge">
<title>Relation&#45;&gt;Symmetric Closure</title>
<path fill="none" stroke="#ffffff" d="M1167.52,-81.64C1224.31,-71.64 1328.64,-53.05 1417.48,-36 1426.68,-34.23 1436.44,-32.31 1445.93,-30.41"/>
<polygon fill="#ffffff" stroke="#ffffff" points="1166.73,-78.23 1157.49,-83.41 1167.94,-85.12 1166.73,-78.23"/>
</g>
<!-- Relation of Equivalence -->
<g id="node14" class="node">
<title>Relation of Equivalence</title>
<g id="a_node14"><a xlink:title="Relation of Equivalence">
<ellipse fill="#273434" stroke="#b75867" cx="1686.48" cy="-18" rx="91.95" ry="18"/>
<text text-anchor="middle" x="1686.48" y="-14.9" font-family="sans" font-size="12.00" fill="#c4c7c7">Relation of Equivalence</text>
</a>
</g>
</g>
<!-- Relation&#45;&gt;Relation of Equivalence -->
<g id="edge15" class="edge">
<title>Relation&#45;&gt;Relation of Equivalence</title>
<path fill="none" stroke="#ffffff" d="M1168.03,-84.88C1249.45,-76.83 1432.86,-57.87 1586.48,-36 1597.63,-34.41 1609.46,-32.55 1620.93,-30.66"/>
<polygon fill="#ffffff" stroke="#ffffff" points="1167.3,-81.44 1157.69,-85.9 1167.98,-88.4 1167.3,-81.44"/>
</g>
<!-- Partial function -->
<g id="node15" class="node">
<title>Partial function</title>
<g id="a_node15"><a xlink:title="Partial function">
<ellipse fill="#273434" stroke="#b75867" cx="1859.48" cy="-18" rx="63.31" ry="18"/>
<text text-anchor="middle" x="1859.48" y="-14.9" font-family="sans" font-size="12.00" fill="#c4c7c7">Partial function</text>
</a>
</g>
</g>
<!-- Relation&#45;&gt;Partial function -->
<g id="edge16" class="edge">
<title>Relation&#45;&gt;Partial function</title>
<path fill="none" stroke="#ffffff" d="M1167.94,-87.84C1273.39,-84.46 1555.4,-72.47 1787.48,-36 1796.23,-34.62 1805.5,-32.76 1814.36,-30.76"/>
<polygon fill="#ffffff" stroke="#ffffff" points="1167.6,-84.34 1157.71,-88.15 1167.82,-91.34 1167.6,-84.34"/>
</g>
<!-- Linear order -->
<g id="node16" class="node">
<title>Linear order</title>
<g id="a_node16"><a xlink:title="Linear order">
<ellipse fill="#273434" stroke="#b75867" cx="1993.48" cy="-18" rx="52.88" ry="18"/>
<text text-anchor="middle" x="1993.48" y="-14.9" font-family="sans" font-size="12.00" fill="#c4c7c7">Linear order</text>
</a>
</g>
</g>
<!-- Relation&#45;&gt;Linear order -->
<g id="edge18" class="edge">
<title>Relation&#45;&gt;Linear order</title>
<path fill="none" stroke="#ffffff" d="M1167.87,-89.21C1288.32,-89.17 1642.53,-84.6 1931.48,-36 1939.4,-34.67 1947.77,-32.74 1955.71,-30.66"/>
<polygon fill="#ffffff" stroke="#ffffff" points="1167.62,-85.71 1157.61,-89.2 1167.61,-92.71 1167.62,-85.71"/>
</g>
<!-- Total function -->
<g id="node17" class="node">
<title>Total function</title>
<g id="a_node17"><a xlink:title="Total function">
<ellipse fill="#273434" stroke="#b75867" cx="2122.48" cy="-18" rx="58.46" ry="18"/>
<text text-anchor="middle" x="2122.48" y="-14.9" font-family="sans" font-size="12.00" fill="#c4c7c7">Total function</text>
</a>
</g>
</g>
<!-- Relation&#45;&gt;Total function -->
<g id="edge19" class="edge">
<title>Relation&#45;&gt;Total function</title>
<path fill="none" stroke="#ffffff" d="M1167.95,-89.46C1300.22,-90.28 1716.22,-88.21 2055.48,-36 2063.78,-34.72 2072.55,-32.87 2080.91,-30.86"/>
<polygon fill="#ffffff" stroke="#ffffff" points="1167.86,-85.96 1157.83,-89.39 1167.81,-92.96 1167.86,-85.96"/>
</g>
<!-- Partial order -->
<g id="node18" class="node">
<title>Partial order</title>
<g id="a_node18"><a xlink:title="Partial order">
<ellipse fill="#273434" stroke="#b75867" cx="2251.48" cy="-18" rx="52.88" ry="18"/>
<text text-anchor="middle" x="2251.48" y="-14.9" font-family="sans" font-size="12.00" fill="#c4c7c7">Partial order</text>
</a>
</g>
</g>
<!-- Relation&#45;&gt;Partial order -->
<g id="edge20" class="edge">
<title>Relation&#45;&gt;Partial order</title>
<path fill="none" stroke="#ffffff" d="M1167.82,-88.12C1339.92,-84.36 1987.45,-68.33 2189.48,-36 2197.41,-34.73 2205.79,-32.83 2213.73,-30.75"/>
<polygon fill="#ffffff" stroke="#ffffff" points="1167.56,-84.63 1157.64,-88.34 1167.71,-91.63 1167.56,-84.63"/>
</g>
</g>
</svg>
