<?xml version="1.0" encoding="UTF-8" standalone="no"?>
<!DOCTYPE svg PUBLIC "-//W3C//DTD SVG 1.1//EN"
 "http://www.w3.org/Graphics/SVG/1.1/DTD/svg11.dtd">
<!-- Generated by graphviz version 2.44.0 (0)
 -->
<!-- Title: Descartes Product Pages: 1 -->
<svg width="410pt" height="562pt"
 viewBox="0.00 0.00 410.00 562.00" xmlns="http://www.w3.org/2000/svg" xmlns:xlink="http://www.w3.org/1999/xlink">
<g id="page0,1_graph0" class="graph" transform="scale(1 1) rotate(0) translate(4 558)">
<title>Descartes Product</title>
<polygon fill="#132020" stroke="transparent" points="-4,4 -4,-558 406,-558 406,4 -4,4"/>
<!-- Descartes Product -->
<g id="node1" class="node">
<title>Descartes Product</title>
<g id="a_node1"><a xlink:href="../Descartes Product.html" xlink:title="Descartes Product" target="_parent">
<path fill="#273434" stroke="#b75867" d="M107,-295C107,-295 12,-295 12,-295 6,-295 0,-289 0,-283 0,-283 0,-271 0,-271 0,-265 6,-259 12,-259 12,-259 107,-259 107,-259 113,-259 119,-265 119,-271 119,-271 119,-283 119,-283 119,-289 113,-295 107,-295"/>
<text text-anchor="middle" x="59.5" y="-273.9" font-family="sans" font-size="12.00" fill="#c4c7c7">Descartes Product</text>
</a>
</g>
</g>
<!-- Relation -->
<g id="node2" class="node">
<title>Relation</title>
<g id="a_node2"><a xlink:href="../Relation.html" xlink:title="Relation" target="_parent">
<path fill="none" stroke="#b75867" d="M179,-295C179,-295 139,-295 139,-295 133,-295 127,-289 127,-283 127,-283 127,-271 127,-271 127,-265 133,-259 139,-259 139,-259 179,-259 179,-259 185,-259 191,-265 191,-271 191,-271 191,-283 191,-283 191,-289 185,-295 179,-295"/>
<text text-anchor="middle" x="159" y="-273.9" font-family="sans" font-size="12.00" fill="#c4c7c7">Relation</text>
</a>
</g>
</g>
<!-- Descartes Product&#45;&gt;Relation -->
<g id="edge1" class="edge">
<title>Descartes Product&#45;&gt;Relation</title>
<path fill="none" stroke="#ffffff" d="M126.32,-277C126.47,-277 126.63,-277 126.78,-277"/>
<polygon fill="#ffffff" stroke="#ffffff" points="129.19,-273.5 119.19,-277 129.19,-280.5 129.19,-273.5"/>
</g>
<!-- Relation&#45;&gt;Descartes Product -->
<g id="edge2" class="edge">
<title>Relation&#45;&gt;Descartes Product</title>
<path fill="none" stroke="#b75867" d="M126.78,-277.71C126.63,-277.71 126.47,-277.71 126.32,-277.71"/>
<polygon fill="#b75867" stroke="#b75867" points="129.17,-274.2 119.19,-277.74 129.2,-281.2 129.17,-274.2"/>
</g>
<!-- Anti&#45;symmetric Relation -->
<g id="node3" class="node">
<title>Anti&#45;symmetric Relation</title>
<g id="a_node3"><a xlink:href="../Anti-symmetric Relation.html" xlink:title="Anti&#45;symmetric Relation" target="_parent">
<path fill="none" stroke="#b75867" d="M364.5,-554C364.5,-554 236.5,-554 236.5,-554 230.5,-554 224.5,-548 224.5,-542 224.5,-542 224.5,-530 224.5,-530 224.5,-524 230.5,-518 236.5,-518 236.5,-518 364.5,-518 364.5,-518 370.5,-518 376.5,-524 376.5,-530 376.5,-530 376.5,-542 376.5,-542 376.5,-548 370.5,-554 364.5,-554"/>
<text text-anchor="middle" x="300.5" y="-532.9" font-family="sans" font-size="12.00" fill="#c4c7c7">Anti&#45;symmetric Relation</text>
</a>
</g>
</g>
<!-- Relation&#45;&gt;Anti&#45;symmetric Relation -->
<g id="edge3" class="edge">
<title>Relation&#45;&gt;Anti&#45;symmetric Relation</title>
<path fill="none" stroke="#ffffff" d="M160.81,-305.53C163,-361.85 170.95,-484.44 199,-514 206.01,-521.39 214.88,-526.57 224.43,-530.17"/>
<polygon fill="#ffffff" stroke="#ffffff" points="164.29,-305.06 160.44,-295.19 157.3,-305.31 164.29,-305.06"/>
</g>
<!-- Symmetric Relation -->
<g id="node4" class="node">
<title>Symmetric Relation</title>
<g id="a_node4"><a xlink:href="../Symmetric Relation.html" xlink:title="Symmetric Relation" target="_parent">
<path fill="none" stroke="#b75867" d="M352.5,-517C352.5,-517 248.5,-517 248.5,-517 242.5,-517 236.5,-511 236.5,-505 236.5,-505 236.5,-493 236.5,-493 236.5,-487 242.5,-481 248.5,-481 248.5,-481 352.5,-481 352.5,-481 358.5,-481 364.5,-487 364.5,-493 364.5,-493 364.5,-505 364.5,-505 364.5,-511 358.5,-517 352.5,-517"/>
<text text-anchor="middle" x="300.5" y="-495.9" font-family="sans" font-size="12.00" fill="#c4c7c7">Symmetric Relation</text>
</a>
</g>
</g>
<!-- Relation&#45;&gt;Symmetric Relation -->
<g id="edge4" class="edge">
<title>Relation&#45;&gt;Symmetric Relation</title>
<path fill="none" stroke="#ffffff" d="M161.75,-305.19C165.4,-354.38 175.5,-452.96 199,-477 208.99,-487.22 222.55,-493.2 236.47,-496.59"/>
<polygon fill="#ffffff" stroke="#ffffff" points="165.24,-304.94 161.05,-295.21 158.26,-305.43 165.24,-304.94"/>
</g>
<!-- Transitive Relation -->
<g id="node5" class="node">
<title>Transitive Relation</title>
<g id="a_node5"><a xlink:href="../Transitive Relation.html" xlink:title="Transitive Relation" target="_parent">
<path fill="none" stroke="#b75867" d="M349,-480C349,-480 252,-480 252,-480 246,-480 240,-474 240,-468 240,-468 240,-456 240,-456 240,-450 246,-444 252,-444 252,-444 349,-444 349,-444 355,-444 361,-450 361,-456 361,-456 361,-468 361,-468 361,-474 355,-480 349,-480"/>
<text text-anchor="middle" x="300.5" y="-458.9" font-family="sans" font-size="12.00" fill="#c4c7c7">Transitive Relation</text>
</a>
</g>
</g>
<!-- Relation&#45;&gt;Transitive Relation -->
<g id="edge5" class="edge">
<title>Relation&#45;&gt;Transitive Relation</title>
<path fill="none" stroke="#ffffff" d="M163.14,-305.24C168.34,-346.78 180.08,-421.44 199,-440 209.97,-450.76 224.91,-456.77 239.91,-460.01"/>
<polygon fill="#ffffff" stroke="#ffffff" points="166.6,-304.71 161.93,-295.2 159.65,-305.55 166.6,-304.71"/>
</g>
<!-- Reflexive Relation -->
<g id="node6" class="node">
<title>Reflexive Relation</title>
<g id="a_node6"><a xlink:href="../Reflexive Relation.html" xlink:title="Reflexive Relation" target="_parent">
<path fill="none" stroke="#b75867" d="M347,-443C347,-443 254,-443 254,-443 248,-443 242,-437 242,-431 242,-431 242,-419 242,-419 242,-413 248,-407 254,-407 254,-407 347,-407 347,-407 353,-407 359,-413 359,-419 359,-419 359,-431 359,-431 359,-437 353,-443 347,-443"/>
<text text-anchor="middle" x="300.5" y="-421.9" font-family="sans" font-size="12.00" fill="#c4c7c7">Reflexive Relation</text>
</a>
</g>
</g>
<!-- Relation&#45;&gt;Reflexive Relation -->
<g id="edge6" class="edge">
<title>Relation&#45;&gt;Reflexive Relation</title>
<path fill="none" stroke="#ffffff" d="M160.89,-305.67C163.39,-334.45 171.79,-378 199,-403 210.71,-413.75 226.42,-419.69 241.94,-422.86"/>
<polygon fill="#ffffff" stroke="#ffffff" points="164.37,-305.17 160.2,-295.43 157.38,-305.64 164.37,-305.17"/>
</g>
<!-- Anti&#45;reflexive relation -->
<g id="node7" class="node">
<title>Anti&#45;reflexive relation</title>
<g id="a_node7"><a xlink:href="../Anti-reflexive relation.html" xlink:title="Anti&#45;reflexive relation" target="_parent">
<path fill="none" stroke="#b75867" d="M357.5,-406C357.5,-406 243.5,-406 243.5,-406 237.5,-406 231.5,-400 231.5,-394 231.5,-394 231.5,-382 231.5,-382 231.5,-376 237.5,-370 243.5,-370 243.5,-370 357.5,-370 357.5,-370 363.5,-370 369.5,-376 369.5,-382 369.5,-382 369.5,-394 369.5,-394 369.5,-400 363.5,-406 357.5,-406"/>
<text text-anchor="middle" x="300.5" y="-384.9" font-family="sans" font-size="12.00" fill="#c4c7c7">Anti&#45;reflexive relation</text>
</a>
</g>
</g>
<!-- Relation&#45;&gt;Anti&#45;reflexive relation -->
<g id="edge7" class="edge">
<title>Relation&#45;&gt;Anti&#45;reflexive relation</title>
<path fill="none" stroke="#ffffff" d="M165.27,-305.11C170.47,-325.01 180.45,-350.79 199,-366 208.32,-373.64 219.72,-378.79 231.44,-382.21"/>
<polygon fill="#ffffff" stroke="#ffffff" points="168.66,-304.25 162.96,-295.32 161.85,-305.85 168.66,-304.25"/>
</g>
<!-- Strongly Anti&#45;symmetric Relation -->
<g id="node8" class="node">
<title>Strongly Anti&#45;symmetric Relation</title>
<g id="a_node8"><a xlink:href="../Strongly Anti-symmetric Relation.html" xlink:title="Strongly Anti&#45;symmetric Relation" target="_parent">
<path fill="none" stroke="#b75867" d="M390,-369C390,-369 211,-369 211,-369 205,-369 199,-363 199,-357 199,-357 199,-345 199,-345 199,-339 205,-333 211,-333 211,-333 390,-333 390,-333 396,-333 402,-339 402,-345 402,-345 402,-357 402,-357 402,-363 396,-369 390,-369"/>
<text text-anchor="middle" x="300.5" y="-347.9" font-family="sans" font-size="12.00" fill="#c4c7c7">Strongly Anti&#45;symmetric Relation</text>
</a>
</g>
</g>
<!-- Relation&#45;&gt;Strongly Anti&#45;symmetric Relation -->
<g id="edge8" class="edge">
<title>Relation&#45;&gt;Strongly Anti&#45;symmetric Relation</title>
<path fill="none" stroke="#ffffff" d="M174.65,-303.77C180.99,-313.06 189.22,-322.71 199,-329 201.1,-330.35 203.28,-331.62 205.51,-332.82"/>
<polygon fill="#ffffff" stroke="#ffffff" points="177.47,-301.67 169.16,-295.09 171.55,-305.42 177.47,-301.67"/>
</g>
<!-- Reflexive Closure -->
<g id="node9" class="node">
<title>Reflexive Closure</title>
<g id="a_node9"><a xlink:href="../Reflexive Closure.html" xlink:title="Reflexive Closure" target="_parent">
<path fill="none" stroke="#b75867" d="M345,-332C345,-332 256,-332 256,-332 250,-332 244,-326 244,-320 244,-320 244,-308 244,-308 244,-302 250,-296 256,-296 256,-296 345,-296 345,-296 351,-296 357,-302 357,-308 357,-308 357,-320 357,-320 357,-326 351,-332 345,-332"/>
<text text-anchor="middle" x="300.5" y="-310.9" font-family="sans" font-size="12.00" fill="#c4c7c7">Reflexive Closure</text>
</a>
</g>
</g>
<!-- Relation&#45;&gt;Reflexive Closure -->
<g id="edge9" class="edge">
<title>Relation&#45;&gt;Reflexive Closure</title>
<path fill="none" stroke="#ffffff" d="M201.24,-292.5C218.27,-297.5 231.43,-300.66 243.82,-303.39"/>
<polygon fill="#ffffff" stroke="#ffffff" points="201.95,-289.06 191.36,-289.53 199.93,-295.76 201.95,-289.06"/>
</g>
<!-- Symmetric Closure -->
<g id="node10" class="node">
<title>Symmetric Closure</title>
<g id="a_node10"><a xlink:href="../Symmetric Closure.html" xlink:title="Symmetric Closure" target="_parent">
<path fill="none" stroke="#b75867" d="M350,-295C350,-295 251,-295 251,-295 245,-295 239,-289 239,-283 239,-283 239,-271 239,-271 239,-265 245,-259 251,-259 251,-259 350,-259 350,-259 356,-259 362,-265 362,-271 362,-271 362,-283 362,-283 362,-289 356,-295 350,-295"/>
<text text-anchor="middle" x="300.5" y="-273.9" font-family="sans" font-size="12.00" fill="#c4c7c7">Symmetric Closure</text>
</a>
</g>
</g>
<!-- Relation&#45;&gt;Symmetric Closure -->
<g id="edge10" class="edge">
<title>Relation&#45;&gt;Symmetric Closure</title>
<path fill="none" stroke="#ffffff" d="M201.64,-277C213.34,-277 226.3,-277 238.86,-277"/>
<polygon fill="#ffffff" stroke="#ffffff" points="201.31,-273.5 191.31,-277 201.31,-280.5 201.31,-273.5"/>
</g>
<!-- Relation of Equivalence -->
<g id="node11" class="node">
<title>Relation of Equivalence</title>
<g id="a_node11"><a xlink:href="../Relation of Equivalence.html" xlink:title="Relation of Equivalence" target="_parent">
<path fill="none" stroke="#b75867" d="M363,-258C363,-258 238,-258 238,-258 232,-258 226,-252 226,-246 226,-246 226,-234 226,-234 226,-228 232,-222 238,-222 238,-222 363,-222 363,-222 369,-222 375,-228 375,-234 375,-234 375,-246 375,-246 375,-252 369,-258 363,-258"/>
<text text-anchor="middle" x="300.5" y="-236.9" font-family="sans" font-size="12.00" fill="#c4c7c7">Relation of Equivalence</text>
</a>
</g>
</g>
<!-- Relation&#45;&gt;Relation of Equivalence -->
<g id="edge11" class="edge">
<title>Relation&#45;&gt;Relation of Equivalence</title>
<path fill="none" stroke="#ffffff" d="M201.09,-261.5C211.64,-258.36 218.77,-256.5 225.89,-254.76"/>
<polygon fill="#ffffff" stroke="#ffffff" points="199.91,-258.2 191.36,-264.47 201.95,-264.9 199.91,-258.2"/>
</g>
<!-- Chain -->
<g id="node12" class="node">
<title>Chain</title>
<g id="a_node12"><a xlink:href="../Chain.html" xlink:title="Chain" target="_parent">
<path fill="none" stroke="#b75867" d="M315.5,-221C315.5,-221 285.5,-221 285.5,-221 279.5,-221 273.5,-215 273.5,-209 273.5,-209 273.5,-197 273.5,-197 273.5,-191 279.5,-185 285.5,-185 285.5,-185 315.5,-185 315.5,-185 321.5,-185 327.5,-191 327.5,-197 327.5,-197 327.5,-209 327.5,-209 327.5,-215 321.5,-221 315.5,-221"/>
<text text-anchor="middle" x="300.5" y="-199.9" font-family="sans" font-size="12.00" fill="#c4c7c7">Chain</text>
</a>
</g>
</g>
<!-- Relation&#45;&gt;Chain -->
<g id="edge12" class="edge">
<title>Relation&#45;&gt;Chain</title>
<path fill="none" stroke="#ffffff" d="M174.65,-250.23C180.99,-240.94 189.22,-231.29 199,-225 221.39,-210.61 251.76,-205.52 273.24,-203.77"/>
<polygon fill="#ffffff" stroke="#ffffff" points="171.55,-248.58 169.16,-258.91 177.47,-252.33 171.55,-248.58"/>
</g>
<!-- Partial function -->
<g id="node13" class="node">
<title>Partial function</title>
<g id="a_node13"><a xlink:href="../Partial function.html" xlink:title="Partial function" target="_parent">
<path fill="none" stroke="#b75867" d="M340,-184C340,-184 261,-184 261,-184 255,-184 249,-178 249,-172 249,-172 249,-160 249,-160 249,-154 255,-148 261,-148 261,-148 340,-148 340,-148 346,-148 352,-154 352,-160 352,-160 352,-172 352,-172 352,-178 346,-184 340,-184"/>
<text text-anchor="middle" x="300.5" y="-162.9" font-family="sans" font-size="12.00" fill="#c4c7c7">Partial function</text>
</a>
</g>
</g>
<!-- Relation&#45;&gt;Partial function -->
<g id="edge13" class="edge">
<title>Relation&#45;&gt;Partial function</title>
<path fill="none" stroke="#ffffff" d="M165.27,-248.89C170.47,-228.99 180.45,-203.21 199,-188 212.95,-176.56 231.54,-170.73 248.93,-167.85"/>
<polygon fill="#ffffff" stroke="#ffffff" points="161.85,-248.15 162.96,-258.68 168.66,-249.75 161.85,-248.15"/>
</g>
<!-- Relations -->
<g id="node14" class="node">
<title>Relations</title>
<g id="a_node14"><a xlink:href="../Relations.html" xlink:title="Relations" target="_parent">
<path fill="none" stroke="#b75867" d="M323,-147C323,-147 278,-147 278,-147 272,-147 266,-141 266,-135 266,-135 266,-123 266,-123 266,-117 272,-111 278,-111 278,-111 323,-111 323,-111 329,-111 335,-117 335,-123 335,-123 335,-135 335,-135 335,-141 329,-147 323,-147"/>
<text text-anchor="middle" x="300.5" y="-125.9" font-family="sans" font-size="12.00" fill="#c4c7c7">Relations</text>
</a>
</g>
</g>
<!-- Relation&#45;&gt;Relations -->
<g id="edge14" class="edge">
<title>Relation&#45;&gt;Relations</title>
<path fill="none" stroke="#ffffff" d="M160.89,-248.33C163.39,-219.55 171.79,-176 199,-151 216.89,-134.57 244.13,-129.38 265.75,-128.14"/>
<polygon fill="#ffffff" stroke="#ffffff" points="157.38,-248.36 160.2,-258.57 164.37,-248.83 157.38,-248.36"/>
</g>
<!-- Linear order -->
<g id="node15" class="node">
<title>Linear order</title>
<g id="a_node15"><a xlink:href="../Linear order.html" xlink:title="Linear order" target="_parent">
<path fill="none" stroke="#b75867" d="M331.5,-110C331.5,-110 269.5,-110 269.5,-110 263.5,-110 257.5,-104 257.5,-98 257.5,-98 257.5,-86 257.5,-86 257.5,-80 263.5,-74 269.5,-74 269.5,-74 331.5,-74 331.5,-74 337.5,-74 343.5,-80 343.5,-86 343.5,-86 343.5,-98 343.5,-98 343.5,-104 337.5,-110 331.5,-110"/>
<text text-anchor="middle" x="300.5" y="-88.9" font-family="sans" font-size="12.00" fill="#c4c7c7">Linear order</text>
</a>
</g>
</g>
<!-- Relation&#45;&gt;Linear order -->
<g id="edge15" class="edge">
<title>Relation&#45;&gt;Linear order</title>
<path fill="none" stroke="#ffffff" d="M163.14,-248.76C168.34,-207.22 180.08,-132.56 199,-114 214.24,-99.05 237.15,-93.27 257.25,-91.35"/>
<polygon fill="#ffffff" stroke="#ffffff" points="159.65,-248.45 161.93,-258.8 166.6,-249.29 159.65,-248.45"/>
</g>
<!-- Total function -->
<g id="node16" class="node">
<title>Total function</title>
<g id="a_node16"><a xlink:href="../Total function.html" xlink:title="Total function" target="_parent">
<path fill="none" stroke="#b75867" d="M336,-73C336,-73 265,-73 265,-73 259,-73 253,-67 253,-61 253,-61 253,-49 253,-49 253,-43 259,-37 265,-37 265,-37 336,-37 336,-37 342,-37 348,-43 348,-49 348,-49 348,-61 348,-61 348,-67 342,-73 336,-73"/>
<text text-anchor="middle" x="300.5" y="-51.9" font-family="sans" font-size="12.00" fill="#c4c7c7">Total function</text>
</a>
</g>
</g>
<!-- Relation&#45;&gt;Total function -->
<g id="edge16" class="edge">
<title>Relation&#45;&gt;Total function</title>
<path fill="none" stroke="#ffffff" d="M161.75,-248.81C165.4,-199.62 175.5,-101.04 199,-77 212.92,-62.76 233.78,-56.75 252.89,-54.5"/>
<polygon fill="#ffffff" stroke="#ffffff" points="158.26,-248.57 161.05,-258.79 165.24,-249.06 158.26,-248.57"/>
</g>
<!-- Partial order -->
<g id="node17" class="node">
<title>Partial order</title>
<g id="a_node17"><a xlink:href="../Partial order.html" xlink:title="Partial order" target="_parent">
<path fill="none" stroke="#b75867" d="M331.5,-36C331.5,-36 269.5,-36 269.5,-36 263.5,-36 257.5,-30 257.5,-24 257.5,-24 257.5,-12 257.5,-12 257.5,-6 263.5,0 269.5,0 269.5,0 331.5,0 331.5,0 337.5,0 343.5,-6 343.5,-12 343.5,-12 343.5,-24 343.5,-24 343.5,-30 337.5,-36 331.5,-36"/>
<text text-anchor="middle" x="300.5" y="-14.9" font-family="sans" font-size="12.00" fill="#c4c7c7">Partial order</text>
</a>
</g>
</g>
<!-- Relation&#45;&gt;Partial order -->
<g id="edge17" class="edge">
<title>Relation&#45;&gt;Partial order</title>
<path fill="none" stroke="#ffffff" d="M160.81,-248.47C163,-192.15 170.95,-69.56 199,-40 213.81,-24.39 236.95,-18.6 257.29,-16.84"/>
<polygon fill="#ffffff" stroke="#ffffff" points="157.3,-248.69 160.44,-258.81 164.29,-248.94 157.3,-248.69"/>
</g>
</g>
</svg>
