<?xml version="1.0" encoding="UTF-8" standalone="no"?>
<!DOCTYPE svg PUBLIC "-//W3C//DTD SVG 1.1//EN"
 "http://www.w3.org/Graphics/SVG/1.1/DTD/svg11.dtd">
<!-- Generated by graphviz version 2.44.0 (0)
 -->
<!-- Title: Design and Analysis of Algorithms Pages: 1 -->
<svg width="214pt" height="116pt"
 viewBox="0.00 0.00 214.00 116.00" xmlns="http://www.w3.org/2000/svg" xmlns:xlink="http://www.w3.org/1999/xlink">
<g id="page0,1_graph0" class="graph" transform="scale(1 1) rotate(0) translate(4 112)">
<title>Design and Analysis of Algorithms</title>
<polygon fill="#132020" stroke="transparent" points="-4,4 -4,-112 210,-112 210,4 -4,4"/>
<!-- Design and Analysis of Algorithms -->
<g id="node1" class="node">
<title>Design and Analysis of Algorithms</title>
<g id="a_node1"><a xlink:href="../Design and Analysis of Algorithms.html" xlink:title="Design and Analysis of Algorithms" target="_parent">
<path fill="#273434" stroke="#b75867" d="M194,-108C194,-108 12,-108 12,-108 6,-108 0,-102 0,-96 0,-96 0,-84 0,-84 0,-78 6,-72 12,-72 12,-72 194,-72 194,-72 200,-72 206,-78 206,-84 206,-84 206,-96 206,-96 206,-102 200,-108 194,-108"/>
<text text-anchor="middle" x="103" y="-86.9" font-family="sans" font-size="12.00" fill="#c4c7c7">Design and Analysis of Algorithms</text>
</a>
</g>
</g>
<!-- Knowledege Base -->
<g id="node2" class="node">
<title>Knowledege Base</title>
<g id="a_node2"><a xlink:href="../Knowledege Base.html" xlink:title="Knowledege Base" target="_parent">
<ellipse fill="#273434" stroke="#b75867" cx="103" cy="-18" rx="72.05" ry="18"/>
<text text-anchor="middle" x="103" y="-14.9" font-family="sans" font-size="12.00" fill="#c4c7c7">Knowledege Base</text>
</a>
</g>
</g>
<!-- Design and Analysis of Algorithms&#45;&gt;Knowledege Base -->
<g id="edge1" class="edge">
<title>Design and Analysis of Algorithms&#45;&gt;Knowledege Base</title>
<path fill="none" stroke="#ffffff" d="M103,-61.67C103,-53.05 103,-43.79 103,-36.1"/>
<polygon fill="#ffffff" stroke="#ffffff" points="99.5,-61.7 103,-71.7 106.5,-61.7 99.5,-61.7"/>
</g>
</g>
</svg>
