<?xml version="1.0" encoding="UTF-8" standalone="no"?>
<!DOCTYPE svg PUBLIC "-//W3C//DTD SVG 1.1//EN"
 "http://www.w3.org/Graphics/SVG/1.1/DTD/svg11.dtd">
<!-- Generated by graphviz version 2.44.0 (0)
 -->
<!-- Title: Differential Equations Pages: 1 -->
<svg width="521pt" height="636pt"
 viewBox="0.00 0.00 521.00 636.00" xmlns="http://www.w3.org/2000/svg" xmlns:xlink="http://www.w3.org/1999/xlink">
<g id="page0,1_graph0" class="graph" transform="scale(1 1) rotate(0) translate(4 632)">
<title>Differential Equations</title>
<polygon fill="#132020" stroke="transparent" points="-4,4 -4,-632 517,-632 517,4 -4,4"/>
<!-- Differential Equations -->
<g id="node1" class="node">
<title>Differential Equations</title>
<g id="a_node1"><a xlink:href="../Differential Equations.html" xlink:title="Differential Equations" target="_parent">
<path fill="#273434" stroke="#b75867" d="M126,-313C126,-313 12,-313 12,-313 6,-313 0,-307 0,-301 0,-301 0,-289 0,-289 0,-283 6,-277 12,-277 12,-277 126,-277 126,-277 132,-277 138,-283 138,-289 138,-289 138,-301 138,-301 138,-307 132,-313 126,-313"/>
<text text-anchor="middle" x="69" y="-291.9" font-family="sans" font-size="12.00" fill="#c4c7c7">Differential Equations</text>
</a>
</g>
</g>
<!-- Knowledege Base -->
<g id="node2" class="node">
<title>Knowledege Base</title>
<g id="a_node2"><a xlink:href="../Knowledege Base.html" xlink:title="Knowledege Base" target="_parent">
<path fill="none" stroke="#b75867" d="M251,-313C251,-313 158,-313 158,-313 152,-313 146,-307 146,-301 146,-301 146,-289 146,-289 146,-283 152,-277 158,-277 158,-277 251,-277 251,-277 257,-277 263,-283 263,-289 263,-289 263,-301 263,-301 263,-307 257,-313 251,-313"/>
<text text-anchor="middle" x="204.5" y="-291.9" font-family="sans" font-size="12.00" fill="#c4c7c7">Knowledege Base</text>
</a>
</g>
</g>
<!-- Differential Equations&#45;&gt;Knowledege Base -->
<g id="edge1" class="edge">
<title>Differential Equations&#45;&gt;Knowledege Base</title>
<path fill="none" stroke="#ffffff" d="M145.51,-295C145.67,-295 145.83,-295 145.99,-295"/>
<polygon fill="#ffffff" stroke="#ffffff" points="148.31,-291.5 138.31,-295 148.31,-298.5 148.31,-291.5"/>
</g>
<!-- Knowledege Base&#45;&gt;Differential Equations -->
<g id="edge9" class="edge">
<title>Knowledege Base&#45;&gt;Differential Equations</title>
<path fill="none" stroke="#b75867" d="M145.99,-295.74C145.83,-295.74 145.67,-295.74 145.51,-295.74"/>
<polygon fill="#b75867" stroke="#b75867" points="148.31,-292.24 138.31,-295.75 148.32,-299.24 148.31,-292.24"/>
</g>
<!-- Computer Architectures -->
<g id="node3" class="node">
<title>Computer Architectures</title>
<g id="a_node3"><a xlink:href="../Computer Architectures.html" xlink:title="Computer Architectures" target="_parent">
<path fill="#273434" stroke="#b75867" d="M455.5,-628C455.5,-628 328.5,-628 328.5,-628 322.5,-628 316.5,-622 316.5,-616 316.5,-616 316.5,-604 316.5,-604 316.5,-598 322.5,-592 328.5,-592 328.5,-592 455.5,-592 455.5,-592 461.5,-592 467.5,-598 467.5,-604 467.5,-604 467.5,-616 467.5,-616 467.5,-622 461.5,-628 455.5,-628"/>
<text text-anchor="middle" x="392" y="-606.9" font-family="sans" font-size="12.00" fill="#c4c7c7">Computer Architectures</text>
</a>
</g>
</g>
<!-- Knowledege Base&#45;&gt;Computer Architectures -->
<g id="edge2" class="edge">
<title>Knowledege Base&#45;&gt;Computer Architectures</title>
<path fill="none" stroke="#b75867" d="M207,-313.36C212.13,-371.4 230.9,-549.42 271,-588 280.89,-597.51 293.45,-603.62 306.71,-607.44"/>
<polygon fill="#b75867" stroke="#b75867" points="305.91,-610.84 316.46,-609.83 307.58,-604.04 305.91,-610.84"/>
</g>
<!-- Numeric Methods -->
<g id="node4" class="node">
<title>Numeric Methods</title>
<g id="a_node4"><a xlink:href="../Numeric Methods.html" xlink:title="Numeric Methods" target="_parent">
<path fill="#273434" stroke="#b75867" d="M438,-591C438,-591 346,-591 346,-591 340,-591 334,-585 334,-579 334,-579 334,-567 334,-567 334,-561 340,-555 346,-555 346,-555 438,-555 438,-555 444,-555 450,-561 450,-567 450,-567 450,-579 450,-579 450,-585 444,-591 438,-591"/>
<text text-anchor="middle" x="392" y="-569.9" font-family="sans" font-size="12.00" fill="#c4c7c7">Numeric Methods</text>
</a>
</g>
</g>
<!-- Knowledege Base&#45;&gt;Numeric Methods -->
<g id="edge3" class="edge">
<title>Knowledege Base&#45;&gt;Numeric Methods</title>
<path fill="none" stroke="#b75867" d="M207.63,-313.26C214.17,-366.2 235.7,-518.06 271,-551 285.24,-564.29 304.74,-570.87 323.88,-573.85"/>
<polygon fill="#b75867" stroke="#b75867" points="323.46,-577.32 333.82,-575.09 324.33,-570.38 323.46,-577.32"/>
</g>
<!-- Design and Analysis of Algorithms -->
<g id="node5" class="node">
<title>Design and Analysis of Algorithms</title>
<g id="a_node5"><a xlink:href="../Design and Analysis of Algorithms.html" xlink:title="Design and Analysis of Algorithms" target="_parent">
<path fill="#273434" stroke="#b75867" d="M483,-554C483,-554 301,-554 301,-554 295,-554 289,-548 289,-542 289,-542 289,-530 289,-530 289,-524 295,-518 301,-518 301,-518 483,-518 483,-518 489,-518 495,-524 495,-530 495,-530 495,-542 495,-542 495,-548 489,-554 483,-554"/>
<text text-anchor="middle" x="392" y="-532.9" font-family="sans" font-size="12.00" fill="#c4c7c7">Design and Analysis of Algorithms</text>
</a>
</g>
</g>
<!-- Knowledege Base&#45;&gt;Design and Analysis of Algorithms -->
<g id="edge4" class="edge">
<title>Knowledege Base&#45;&gt;Design and Analysis of Algorithms</title>
<path fill="none" stroke="#b75867" d="M205.05,-313.29C205.07,-355.6 211.45,-460.63 271,-514 273.85,-516.55 276.89,-518.86 280.09,-520.93"/>
<polygon fill="#b75867" stroke="#b75867" points="278.46,-524.03 288.89,-525.9 281.9,-517.94 278.46,-524.03"/>
</g>
<!-- Logic Programming -->
<g id="node6" class="node">
<title>Logic Programming</title>
<g id="a_node6"><a xlink:href="../Logic Programming.html" xlink:title="Logic Programming" target="_parent">
<path fill="#273434" stroke="#b75867" d="M443,-517C443,-517 341,-517 341,-517 335,-517 329,-511 329,-505 329,-505 329,-493 329,-493 329,-487 335,-481 341,-481 341,-481 443,-481 443,-481 449,-481 455,-487 455,-493 455,-493 455,-505 455,-505 455,-511 449,-517 443,-517"/>
<text text-anchor="middle" x="392" y="-495.9" font-family="sans" font-size="12.00" fill="#c4c7c7">Logic Programming</text>
</a>
</g>
</g>
<!-- Knowledege Base&#45;&gt;Logic Programming -->
<g id="edge5" class="edge">
<title>Knowledege Base&#45;&gt;Logic Programming</title>
<path fill="none" stroke="#b75867" d="M206.31,-313.01C209.01,-349.93 220.67,-434.32 271,-477 284.3,-488.28 301.46,-494.58 318.62,-497.94"/>
<polygon fill="#b75867" stroke="#b75867" points="318.26,-501.42 328.69,-499.59 319.39,-494.52 318.26,-501.42"/>
</g>
<!-- Data Structures -->
<g id="node7" class="node">
<title>Data Structures</title>
<g id="a_node7"><a xlink:href="../Data Structures.html" xlink:title="Data Structures" target="_parent">
<path fill="#273434" stroke="#b75867" d="M432,-480C432,-480 352,-480 352,-480 346,-480 340,-474 340,-468 340,-468 340,-456 340,-456 340,-450 346,-444 352,-444 352,-444 432,-444 432,-444 438,-444 444,-450 444,-456 444,-456 444,-468 444,-468 444,-474 438,-480 432,-480"/>
<text text-anchor="middle" x="392" y="-458.9" font-family="sans" font-size="12.00" fill="#c4c7c7">Data Structures</text>
</a>
</g>
</g>
<!-- Knowledege Base&#45;&gt;Data Structures -->
<g id="edge6" class="edge">
<title>Knowledege Base&#45;&gt;Data Structures</title>
<path fill="none" stroke="#b75867" d="M208.25,-313.48C213.95,-344.8 230.1,-408 271,-440 287.55,-452.95 309.31,-459.17 329.74,-461.92"/>
<polygon fill="#b75867" stroke="#b75867" points="329.63,-465.43 339.95,-463.04 330.39,-458.47 329.63,-465.43"/>
</g>
<!-- Languages, Automata and Computation -->
<g id="node8" class="node">
<title>Languages, Automata and Computation</title>
<g id="a_node8"><a xlink:href="../Languages, Automata and Computation.html" xlink:title="Languages, Automata and Computation" target="_parent">
<path fill="#273434" stroke="#b75867" d="M501,-443C501,-443 283,-443 283,-443 277,-443 271,-437 271,-431 271,-431 271,-419 271,-419 271,-413 277,-407 283,-407 283,-407 501,-407 501,-407 507,-407 513,-413 513,-419 513,-419 513,-431 513,-431 513,-437 507,-443 501,-443"/>
<text text-anchor="middle" x="392" y="-421.9" font-family="sans" font-size="12.00" fill="#c4c7c7">Languages, Automata and Computation</text>
</a>
</g>
</g>
<!-- Knowledege Base&#45;&gt;Languages, Automata and Computation -->
<g id="edge7" class="edge">
<title>Knowledege Base&#45;&gt;Languages, Automata and Computation</title>
<path fill="none" stroke="#b75867" d="M211.23,-313.21C219.32,-335.95 236.27,-374.66 269.01,-400.87"/>
<polygon fill="#b75867" stroke="#b75867" points="267.07,-403.78 277.19,-406.91 271.23,-398.15 267.07,-403.78"/>
</g>
<!-- Operations Research -->
<g id="node9" class="node">
<title>Operations Research</title>
<g id="a_node9"><a xlink:href="../Operations Research.html" xlink:title="Operations Research" target="_parent">
<path fill="#273434" stroke="#b75867" d="M446.5,-406C446.5,-406 337.5,-406 337.5,-406 331.5,-406 325.5,-400 325.5,-394 325.5,-394 325.5,-382 325.5,-382 325.5,-376 331.5,-370 337.5,-370 337.5,-370 446.5,-370 446.5,-370 452.5,-370 458.5,-376 458.5,-382 458.5,-382 458.5,-394 458.5,-394 458.5,-400 452.5,-406 446.5,-406"/>
<text text-anchor="middle" x="392" y="-384.9" font-family="sans" font-size="12.00" fill="#c4c7c7">Operations Research</text>
</a>
</g>
</g>
<!-- Knowledege Base&#45;&gt;Operations Research -->
<g id="edge8" class="edge">
<title>Knowledege Base&#45;&gt;Operations Research</title>
<path fill="none" stroke="#b75867" d="M217.19,-313.26C228.77,-329.77 248.08,-353.38 271,-366 284.47,-373.42 299.95,-378.4 315.22,-381.73"/>
<polygon fill="#b75867" stroke="#b75867" points="314.71,-385.19 325.19,-383.69 316.06,-378.33 314.71,-385.19"/>
</g>
<!-- OOP -->
<g id="node10" class="node">
<title>OOP</title>
<g id="a_node10"><a xlink:href="../OOP.html" xlink:title="OOP" target="_parent">
<path fill="#273434" stroke="#b75867" d="M407,-369C407,-369 377,-369 377,-369 371,-369 365,-363 365,-357 365,-357 365,-345 365,-345 365,-339 371,-333 377,-333 377,-333 407,-333 407,-333 413,-333 419,-339 419,-345 419,-345 419,-357 419,-357 419,-363 413,-369 407,-369"/>
<text text-anchor="middle" x="392" y="-347.9" font-family="sans" font-size="12.00" fill="#c4c7c7">OOP</text>
</a>
</g>
</g>
<!-- Knowledege Base&#45;&gt;OOP -->
<g id="edge10" class="edge">
<title>Knowledege Base&#45;&gt;OOP</title>
<path fill="none" stroke="#b75867" d="M235.65,-313.04C246.49,-318.87 259,-324.89 271,-329 298.23,-338.33 330.36,-343.95 354.52,-347.18"/>
<polygon fill="#b75867" stroke="#b75867" points="354.32,-350.68 364.68,-348.45 355.2,-343.73 354.32,-350.68"/>
</g>
<!-- Discrete Structures -->
<g id="node11" class="node">
<title>Discrete Structures</title>
<g id="a_node11"><a xlink:href="../Discrete Structures.html" xlink:title="Discrete Structures" target="_parent">
<path fill="#273434" stroke="#b75867" d="M441,-332C441,-332 343,-332 343,-332 337,-332 331,-326 331,-320 331,-320 331,-308 331,-308 331,-302 337,-296 343,-296 343,-296 441,-296 441,-296 447,-296 453,-302 453,-308 453,-308 453,-320 453,-320 453,-326 447,-332 441,-332"/>
<text text-anchor="middle" x="392" y="-310.9" font-family="sans" font-size="12.00" fill="#c4c7c7">Discrete Structures</text>
</a>
</g>
</g>
<!-- Knowledege Base&#45;&gt;Discrete Structures -->
<g id="edge11" class="edge">
<title>Knowledege Base&#45;&gt;Discrete Structures</title>
<path fill="none" stroke="#b75867" d="M263.18,-300.91C281.39,-302.77 301.71,-304.85 320.7,-306.8"/>
<polygon fill="#b75867" stroke="#b75867" points="320.49,-310.3 330.79,-307.83 321.2,-303.33 320.49,-310.3"/>
</g>
<!-- Advanced Algebra -->
<g id="node12" class="node">
<title>Advanced Algebra</title>
<g id="a_node12"><a xlink:href="../Advanced Algebra.html" xlink:title="Advanced Algebra" target="_parent">
<path fill="#273434" stroke="#b75867" d="M439.5,-295C439.5,-295 344.5,-295 344.5,-295 338.5,-295 332.5,-289 332.5,-283 332.5,-283 332.5,-271 332.5,-271 332.5,-265 338.5,-259 344.5,-259 344.5,-259 439.5,-259 439.5,-259 445.5,-259 451.5,-265 451.5,-271 451.5,-271 451.5,-283 451.5,-283 451.5,-289 445.5,-295 439.5,-295"/>
<text text-anchor="middle" x="392" y="-273.9" font-family="sans" font-size="12.00" fill="#c4c7c7">Advanced Algebra</text>
</a>
</g>
</g>
<!-- Knowledege Base&#45;&gt;Advanced Algebra -->
<g id="edge12" class="edge">
<title>Knowledege Base&#45;&gt;Advanced Algebra</title>
<path fill="none" stroke="#b75867" d="M263.18,-289.4C281.92,-287.58 302.91,-285.55 322.38,-283.66"/>
<polygon fill="#b75867" stroke="#b75867" points="322.78,-287.14 332.4,-282.69 322.11,-280.17 322.78,-287.14"/>
</g>
<!-- Differential Analysis -->
<g id="node13" class="node">
<title>Differential Analysis</title>
<g id="a_node13"><a xlink:href="../Differential Analysis.html" xlink:title="Differential Analysis" target="_parent">
<path fill="#273434" stroke="#b75867" d="M443.5,-258C443.5,-258 340.5,-258 340.5,-258 334.5,-258 328.5,-252 328.5,-246 328.5,-246 328.5,-234 328.5,-234 328.5,-228 334.5,-222 340.5,-222 340.5,-222 443.5,-222 443.5,-222 449.5,-222 455.5,-228 455.5,-234 455.5,-234 455.5,-246 455.5,-246 455.5,-252 449.5,-258 443.5,-258"/>
<text text-anchor="middle" x="392" y="-236.9" font-family="sans" font-size="12.00" fill="#c4c7c7">Differential Analysis</text>
</a>
</g>
</g>
<!-- Knowledege Base&#45;&gt;Differential Analysis -->
<g id="edge13" class="edge">
<title>Knowledege Base&#45;&gt;Differential Analysis</title>
<path fill="none" stroke="#b75867" d="M237.03,-276.83C247.56,-271.39 259.53,-265.85 271,-262 285.99,-256.97 302.44,-253 318.22,-249.9"/>
<polygon fill="#b75867" stroke="#b75867" points="319.29,-253.26 328.48,-247.99 318.01,-246.38 319.29,-253.26"/>
</g>
<!-- Knowledege Base&#45;&gt;Differential Analysis -->
<g id="edge17" class="edge">
<title>Knowledege Base&#45;&gt;Differential Analysis</title>
<path fill="none" stroke="#b75867" d="M238.7,-276.93C248.82,-271.81 260.14,-266.65 271,-263 285.99,-257.97 302.44,-254 318.22,-250.88"/>
<polygon fill="#b75867" stroke="#b75867" points="319.3,-254.23 328.48,-248.94 318,-247.36 319.3,-254.23"/>
</g>
<!-- Introduction to programming -->
<g id="node14" class="node">
<title>Introduction to programming</title>
<g id="a_node14"><a xlink:href="../Introduction to programming.html" xlink:title="Introduction to programming" target="_parent">
<path fill="#273434" stroke="#b75867" d="M471.5,-221C471.5,-221 312.5,-221 312.5,-221 306.5,-221 300.5,-215 300.5,-209 300.5,-209 300.5,-197 300.5,-197 300.5,-191 306.5,-185 312.5,-185 312.5,-185 471.5,-185 471.5,-185 477.5,-185 483.5,-191 483.5,-197 483.5,-197 483.5,-209 483.5,-209 483.5,-215 477.5,-221 471.5,-221"/>
<text text-anchor="middle" x="392" y="-199.9" font-family="sans" font-size="12.00" fill="#c4c7c7">Introduction to programming</text>
</a>
</g>
</g>
<!-- Knowledege Base&#45;&gt;Introduction to programming -->
<g id="edge14" class="edge">
<title>Knowledege Base&#45;&gt;Introduction to programming</title>
<path fill="none" stroke="#b75867" d="M217.24,-277C228.88,-260.72 248.21,-237.45 271,-225 277.26,-221.58 283.95,-218.68 290.85,-216.22"/>
<polygon fill="#b75867" stroke="#b75867" points="291.94,-219.55 300.37,-213.13 289.78,-212.89 291.94,-219.55"/>
</g>
<!-- Analytic Geometry -->
<g id="node15" class="node">
<title>Analytic Geometry</title>
<g id="a_node15"><a xlink:href="../Analytic Geometry.html" xlink:title="Analytic Geometry" target="_parent">
<path fill="#273434" stroke="#b75867" d="M440.5,-184C440.5,-184 343.5,-184 343.5,-184 337.5,-184 331.5,-178 331.5,-172 331.5,-172 331.5,-160 331.5,-160 331.5,-154 337.5,-148 343.5,-148 343.5,-148 440.5,-148 440.5,-148 446.5,-148 452.5,-154 452.5,-160 452.5,-160 452.5,-172 452.5,-172 452.5,-178 446.5,-184 440.5,-184"/>
<text text-anchor="middle" x="392" y="-162.9" font-family="sans" font-size="12.00" fill="#c4c7c7">Analytic Geometry</text>
</a>
</g>
</g>
<!-- Knowledege Base&#45;&gt;Analytic Geometry -->
<g id="edge15" class="edge">
<title>Knowledege Base&#45;&gt;Analytic Geometry</title>
<path fill="none" stroke="#b75867" d="M211.28,-276.95C220.07,-252.61 239.21,-209.81 271,-188 285.67,-177.93 303.64,-172.1 321.16,-168.81"/>
<polygon fill="#b75867" stroke="#b75867" points="322.08,-172.21 331.39,-167.16 320.96,-165.3 322.08,-172.21"/>
</g>
<!-- Linear Algebra -->
<g id="node16" class="node">
<title>Linear Algebra</title>
<g id="a_node16"><a xlink:href="../Linear Algebra.html" xlink:title="Linear Algebra" target="_parent">
<path fill="#273434" stroke="#b75867" d="M429,-147C429,-147 355,-147 355,-147 349,-147 343,-141 343,-135 343,-135 343,-123 343,-123 343,-117 349,-111 355,-111 355,-111 429,-111 429,-111 435,-111 441,-117 441,-123 441,-123 441,-135 441,-135 441,-141 435,-147 429,-147"/>
<text text-anchor="middle" x="392" y="-125.9" font-family="sans" font-size="12.00" fill="#c4c7c7">Linear Algebra</text>
</a>
</g>
</g>
<!-- Knowledege Base&#45;&gt;Linear Algebra -->
<g id="edge16" class="edge">
<title>Knowledege Base&#45;&gt;Linear Algebra</title>
<path fill="none" stroke="#b75867" d="M208.29,-276.64C214.05,-245.53 230.29,-182.76 271,-151 288.44,-137.39 311.63,-131.22 332.97,-128.69"/>
<polygon fill="#b75867" stroke="#b75867" points="333.31,-132.18 342.94,-127.75 332.65,-125.21 333.31,-132.18"/>
</g>
<!-- Org Roam -->
<g id="node17" class="node">
<title>Org Roam</title>
<g id="a_node17"><a xlink:href="../Org Roam.html" xlink:title="Org Roam" target="_parent">
<path fill="#273434" stroke="#b75867" d="M416,-110C416,-110 368,-110 368,-110 362,-110 356,-104 356,-98 356,-98 356,-86 356,-86 356,-80 362,-74 368,-74 368,-74 416,-74 416,-74 422,-74 428,-80 428,-86 428,-86 428,-98 428,-98 428,-104 422,-110 416,-110"/>
<text text-anchor="middle" x="392" y="-88.9" font-family="sans" font-size="12.00" fill="#c4c7c7">Org Roam</text>
</a>
</g>
</g>
<!-- Knowledege Base&#45;&gt;Org Roam -->
<g id="edge18" class="edge">
<title>Knowledege Base&#45;&gt;Org Roam</title>
<path fill="none" stroke="#b75867" d="M206.37,-276.81C209.17,-239.94 221.01,-156.32 271,-114 291.44,-96.7 320.96,-91.12 345.61,-89.91"/>
<polygon fill="#b75867" stroke="#b75867" points="345.93,-93.4 355.83,-89.63 345.74,-86.4 345.93,-93.4"/>
</g>
<!-- Org&#45;mode -->
<g id="node18" class="node">
<title>Org&#45;mode</title>
<g id="a_node18"><a xlink:href="../Org-mode.html" xlink:title="Org&#45;mode" target="_parent">
<path fill="#273434" stroke="#b75867" d="M417,-73C417,-73 367,-73 367,-73 361,-73 355,-67 355,-61 355,-61 355,-49 355,-49 355,-43 361,-37 367,-37 367,-37 417,-37 417,-37 423,-37 429,-43 429,-49 429,-49 429,-61 429,-61 429,-67 423,-73 417,-73"/>
<text text-anchor="middle" x="392" y="-51.9" font-family="sans" font-size="12.00" fill="#c4c7c7">Org&#45;mode</text>
</a>
</g>
</g>
<!-- Knowledege Base&#45;&gt;Org&#45;mode -->
<g id="edge19" class="edge">
<title>Knowledege Base&#45;&gt;Org&#45;mode</title>
<path fill="none" stroke="#b75867" d="M205.07,-276.79C205.16,-234.67 211.67,-130.11 271,-77 290.82,-59.26 320.06,-53.63 344.72,-52.5"/>
<polygon fill="#b75867" stroke="#b75867" points="345.05,-55.99 354.97,-52.27 344.89,-48.99 345.05,-55.99"/>
</g>
<!-- Projects -->
<g id="node19" class="node">
<title>Projects</title>
<g id="a_node19"><a xlink:href="../Projects.html" xlink:title="Projects" target="_parent">
<path fill="none" stroke="#b75867" d="M411,-36C411,-36 373,-36 373,-36 367,-36 361,-30 361,-24 361,-24 361,-12 361,-12 361,-6 367,0 373,0 373,0 411,0 411,0 417,0 423,-6 423,-12 423,-12 423,-24 423,-24 423,-30 417,-36 411,-36"/>
<text text-anchor="middle" x="392" y="-14.9" font-family="sans" font-size="12.00" fill="#c4c7c7">Projects</text>
</a>
</g>
</g>
<!-- Knowledege Base&#45;&gt;Projects -->
<g id="edge20" class="edge">
<title>Knowledege Base&#45;&gt;Projects</title>
<path fill="none" stroke="#ffffff" d="M208.95,-266.57C216.78,-206.75 237.87,-70.88 271,-40 295.01,-17.61 333.94,-14.27 360.92,-15.12"/>
<polygon fill="#ffffff" stroke="#ffffff" points="205.43,-266.44 207.64,-276.81 212.38,-267.33 205.43,-266.44"/>
</g>
</g>
</svg>
