<?xml version="1.0" encoding="UTF-8" standalone="no"?>
<!DOCTYPE svg PUBLIC "-//W3C//DTD SVG 1.1//EN"
 "http://www.w3.org/Graphics/SVG/1.1/DTD/svg11.dtd">
<!-- Generated by graphviz version 2.44.0 (0)
 -->
<!-- Title: Dirichlet principle Pages: 1 -->
<svg width="2381pt" height="188pt"
 viewBox="0.00 0.00 2381.13 188.00" xmlns="http://www.w3.org/2000/svg" xmlns:xlink="http://www.w3.org/1999/xlink">
<g id="page0,1_graph0" class="graph" transform="scale(1 1) rotate(0) translate(4 184)">
<title>Dirichlet principle</title>
<polygon fill="#132020" stroke="transparent" points="-4,4 -4,-184 2377.13,-184 2377.13,4 -4,4"/>
<!-- Dirichlet principle -->
<g id="node1" class="node">
<title>Dirichlet principle</title>
<g id="a_node1"><a xlink:title="Dirichlet principle">
<path fill="#273434" stroke="#b75867" d="M1218.33,-180C1218.33,-180 1126.33,-180 1126.33,-180 1120.33,-180 1114.33,-174 1114.33,-168 1114.33,-168 1114.33,-156 1114.33,-156 1114.33,-150 1120.33,-144 1126.33,-144 1126.33,-144 1218.33,-144 1218.33,-144 1224.33,-144 1230.33,-150 1230.33,-156 1230.33,-156 1230.33,-168 1230.33,-168 1230.33,-174 1224.33,-180 1218.33,-180"/>
<text text-anchor="middle" x="1172.33" y="-158.9" font-family="sans" font-size="12.00" fill="#c4c7c7">Dirichlet principle</text>
</a>
</g>
</g>
<!-- Injective function -->
<g id="node2" class="node">
<title>Injective function</title>
<g id="a_node2"><a xlink:title="Injective function">
<path fill="#273434" stroke="#b75867" d="M254.33,-108C254.33,-108 164.33,-108 164.33,-108 158.33,-108 152.33,-102 152.33,-96 152.33,-96 152.33,-84 152.33,-84 152.33,-78 158.33,-72 164.33,-72 164.33,-72 254.33,-72 254.33,-72 260.33,-72 266.33,-78 266.33,-84 266.33,-84 266.33,-96 266.33,-96 266.33,-102 260.33,-108 254.33,-108"/>
<text text-anchor="middle" x="209.33" y="-86.9" font-family="sans" font-size="12.00" fill="#c4c7c7">Injective function</text>
</a>
</g>
</g>
<!-- Dirichlet principle&#45;&gt;Injective function -->
<g id="edge1" class="edge">
<title>Dirichlet principle&#45;&gt;Injective function</title>
<path fill="none" stroke="#b75867" d="M1114.26,-156.78C945.62,-144.52 456.5,-108.97 276.68,-95.9"/>
<polygon fill="#b75867" stroke="#b75867" points="276.79,-92.39 266.56,-95.16 276.28,-99.38 276.79,-92.39"/>
</g>
<!-- Set -->
<g id="node3" class="node">
<title>Set</title>
<g id="a_node3"><a xlink:title="Set">
<path fill="#273434" stroke="#b75867" d="M1187.33,-108C1187.33,-108 1157.33,-108 1157.33,-108 1151.33,-108 1145.33,-102 1145.33,-96 1145.33,-96 1145.33,-84 1145.33,-84 1145.33,-78 1151.33,-72 1157.33,-72 1157.33,-72 1187.33,-72 1187.33,-72 1193.33,-72 1199.33,-78 1199.33,-84 1199.33,-84 1199.33,-96 1199.33,-96 1199.33,-102 1193.33,-108 1187.33,-108"/>
<text text-anchor="middle" x="1172.33" y="-86.9" font-family="sans" font-size="12.00" fill="#c4c7c7">Set</text>
</a>
</g>
</g>
<!-- Dirichlet principle&#45;&gt;Set -->
<g id="edge2" class="edge">
<title>Dirichlet principle&#45;&gt;Set</title>
<path fill="none" stroke="#b75867" d="M1172.33,-143.7C1172.33,-135.98 1172.33,-126.71 1172.33,-118.11"/>
<polygon fill="#b75867" stroke="#b75867" points="1175.83,-118.1 1172.33,-108.1 1168.83,-118.1 1175.83,-118.1"/>
</g>
<!-- Combinatoric principles -->
<g id="node4" class="node">
<title>Combinatoric principles</title>
<g id="a_node4"><a xlink:title="Combinatoric principles">
<ellipse fill="#273434" stroke="#b75867" cx="1310.33" cy="-90" rx="92.91" ry="18"/>
<text text-anchor="middle" x="1310.33" y="-86.9" font-family="sans" font-size="12.00" fill="#c4c7c7">Combinatoric principles</text>
</a>
</g>
</g>
<!-- Dirichlet principle&#45;&gt;Combinatoric principles -->
<g id="edge3" class="edge">
<title>Dirichlet principle&#45;&gt;Combinatoric principles</title>
<path fill="none" stroke="#ffffff" d="M1215.24,-139.23C1235.8,-128.8 1259.98,-116.54 1278.81,-106.99"/>
<polygon fill="#ffffff" stroke="#ffffff" points="1213.42,-136.23 1206.09,-143.88 1216.59,-142.47 1213.42,-136.23"/>
</g>
<!-- Linear Algebra -->
<g id="node5" class="node">
<title>Linear Algebra</title>
<g id="a_node5"><a xlink:title="Linear Algebra">
<ellipse fill="#273434" stroke="#b75867" cx="60.33" cy="-18" rx="60.16" ry="18"/>
<text text-anchor="middle" x="60.33" y="-14.9" font-family="sans" font-size="12.00" fill="#c4c7c7">Linear Algebra</text>
</a>
</g>
</g>
<!-- Injective function&#45;&gt;Linear Algebra -->
<g id="edge4" class="edge">
<title>Injective function&#45;&gt;Linear Algebra</title>
<path fill="none" stroke="#ffffff" d="M163.8,-67.61C140.33,-56.59 112.32,-43.43 91.37,-33.58"/>
<polygon fill="#ffffff" stroke="#ffffff" points="162.34,-70.79 172.88,-71.88 165.32,-64.46 162.34,-70.79"/>
</g>
<!-- Bijective function -->
<g id="node6" class="node">
<title>Bijective function</title>
<g id="a_node6"><a xlink:title="Bijective function">
<ellipse fill="#273434" stroke="#b75867" cx="209.33" cy="-18" rx="70.35" ry="18"/>
<text text-anchor="middle" x="209.33" y="-14.9" font-family="sans" font-size="12.00" fill="#c4c7c7">Bijective function</text>
</a>
</g>
</g>
<!-- Injective function&#45;&gt;Bijective function -->
<g id="edge5" class="edge">
<title>Injective function&#45;&gt;Bijective function</title>
<path fill="none" stroke="#ffffff" d="M209.33,-61.67C209.33,-53.05 209.33,-43.79 209.33,-36.1"/>
<polygon fill="#ffffff" stroke="#ffffff" points="205.83,-61.7 209.33,-71.7 212.83,-61.7 205.83,-61.7"/>
</g>
<!-- Reflexive Closure -->
<g id="node7" class="node">
<title>Reflexive Closure</title>
<g id="a_node7"><a xlink:title="Reflexive Closure">
<ellipse fill="#273434" stroke="#b75867" cx="367.33" cy="-18" rx="69.62" ry="18"/>
<text text-anchor="middle" x="367.33" y="-14.9" font-family="sans" font-size="12.00" fill="#c4c7c7">Reflexive Closure</text>
</a>
</g>
</g>
<!-- Set&#45;&gt;Reflexive Closure -->
<g id="edge6" class="edge">
<title>Set&#45;&gt;Reflexive Closure</title>
<path fill="none" stroke="#ffffff" d="M1135.09,-88.15C1027.6,-85.29 707.75,-73.97 445.33,-36 436,-34.65 426.12,-32.82 416.65,-30.86"/>
<polygon fill="#ffffff" stroke="#ffffff" points="1135.02,-91.65 1145.11,-88.41 1135.2,-84.65 1135.02,-91.65"/>
</g>
<!-- Symmetric Closure -->
<g id="node8" class="node">
<title>Symmetric Closure</title>
<g id="a_node8"><a xlink:title="Symmetric Closure">
<ellipse fill="#273434" stroke="#b75867" cx="530.33" cy="-18" rx="75.94" ry="18"/>
<text text-anchor="middle" x="530.33" y="-14.9" font-family="sans" font-size="12.00" fill="#c4c7c7">Symmetric Closure</text>
</a>
</g>
</g>
<!-- Set&#45;&gt;Symmetric Closure -->
<g id="edge7" class="edge">
<title>Set&#45;&gt;Symmetric Closure</title>
<path fill="none" stroke="#ffffff" d="M1134.97,-86.81C1044.98,-81.24 809.27,-64.9 614.33,-36 604.47,-34.54 594.01,-32.68 583.95,-30.73"/>
<polygon fill="#ffffff" stroke="#ffffff" points="1135.01,-90.32 1145.2,-87.44 1135.44,-83.33 1135.01,-90.32"/>
</g>
<!-- Class of equivalence -->
<g id="node9" class="node">
<title>Class of equivalence</title>
<g id="a_node9"><a xlink:title="Class of equivalence">
<ellipse fill="#273434" stroke="#b75867" cx="704.33" cy="-18" rx="80.78" ry="18"/>
<text text-anchor="middle" x="704.33" y="-14.9" font-family="sans" font-size="12.00" fill="#c4c7c7">Class of equivalence</text>
</a>
</g>
</g>
<!-- Set&#45;&gt;Class of equivalence -->
<g id="edge8" class="edge">
<title>Set&#45;&gt;Class of equivalence</title>
<path fill="none" stroke="#ffffff" d="M1134.92,-84.4C1066.81,-75.88 918.08,-56.62 793.33,-36 783.39,-34.36 772.87,-32.47 762.66,-30.57"/>
<polygon fill="#ffffff" stroke="#ffffff" points="1134.79,-87.91 1145.14,-85.67 1135.65,-80.96 1134.79,-87.91"/>
</g>
<!-- Relation of Equivalence -->
<g id="node10" class="node">
<title>Relation of Equivalence</title>
<g id="a_node10"><a xlink:title="Relation of Equivalence">
<ellipse fill="#273434" stroke="#b75867" cx="894.33" cy="-18" rx="91.95" ry="18"/>
<text text-anchor="middle" x="894.33" y="-14.9" font-family="sans" font-size="12.00" fill="#c4c7c7">Relation of Equivalence</text>
</a>
</g>
</g>
<!-- Set&#45;&gt;Relation of Equivalence -->
<g id="edge9" class="edge">
<title>Set&#45;&gt;Relation of Equivalence</title>
<path fill="none" stroke="#ffffff" d="M1135.22,-79.66C1087.29,-67.59 1003.49,-46.49 948.45,-32.63"/>
<polygon fill="#ffffff" stroke="#ffffff" points="1134.61,-83.11 1145.17,-82.16 1136.32,-76.32 1134.61,-83.11"/>
</g>
<!-- Recurrent Equations -->
<g id="node11" class="node">
<title>Recurrent Equations</title>
<g id="a_node11"><a xlink:title="Recurrent Equations">
<ellipse fill="#273434" stroke="#b75867" cx="1084.33" cy="-18" rx="80.78" ry="18"/>
<text text-anchor="middle" x="1084.33" y="-14.9" font-family="sans" font-size="12.00" fill="#c4c7c7">Recurrent Equations</text>
</a>
</g>
</g>
<!-- Set&#45;&gt;Recurrent Equations -->
<g id="edge10" class="edge">
<title>Set&#45;&gt;Recurrent Equations</title>
<path fill="none" stroke="#ffffff" d="M1142.42,-65.21C1130.19,-55.48 1116.34,-44.46 1105.22,-35.62"/>
<polygon fill="#ffffff" stroke="#ffffff" points="1140.57,-68.21 1150.57,-71.7 1144.93,-62.73 1140.57,-68.21"/>
</g>
<!-- Principle of division -->
<g id="node12" class="node">
<title>Principle of division</title>
<g id="a_node12"><a xlink:title="Principle of division">
<ellipse fill="#273434" stroke="#b75867" cx="1260.33" cy="-18" rx="77.63" ry="18"/>
<text text-anchor="middle" x="1260.33" y="-14.9" font-family="sans" font-size="12.00" fill="#c4c7c7">Principle of division</text>
</a>
</g>
</g>
<!-- Set&#45;&gt;Principle of division -->
<g id="edge11" class="edge">
<title>Set&#45;&gt;Principle of division</title>
<path fill="none" stroke="#ffffff" d="M1201.94,-65.44C1214.35,-55.57 1228.48,-44.33 1239.73,-35.38"/>
<polygon fill="#ffffff" stroke="#ffffff" points="1199.73,-62.73 1194.08,-71.7 1204.09,-68.21 1199.73,-62.73"/>
</g>
<!-- Principle of products -->
<g id="node13" class="node">
<title>Principle of products</title>
<g id="a_node13"><a xlink:title="Principle of products">
<ellipse fill="#273434" stroke="#b75867" cx="1438.33" cy="-18" rx="82.48" ry="18"/>
<text text-anchor="middle" x="1438.33" y="-14.9" font-family="sans" font-size="12.00" fill="#c4c7c7">Principle of products</text>
</a>
</g>
</g>
<!-- Set&#45;&gt;Principle of products -->
<g id="edge12" class="edge">
<title>Set&#45;&gt;Principle of products</title>
<path fill="none" stroke="#ffffff" d="M1209.2,-72.15C1251.9,-58.46 1327.45,-41.96 1380.49,-30.85"/>
<polygon fill="#ffffff" stroke="#ffffff" points="1207.95,-68.88 1199.59,-75.38 1210.19,-75.51 1207.95,-68.88"/>
</g>
<!-- Principle of inclusion and exclusion -->
<g id="node14" class="node">
<title>Principle of inclusion and exclusion</title>
<g id="a_node14"><a xlink:title="Principle of inclusion and exclusion">
<ellipse fill="#273434" stroke="#b75867" cx="1671.33" cy="-18" rx="132.2" ry="18"/>
<text text-anchor="middle" x="1671.33" y="-14.9" font-family="sans" font-size="12.00" fill="#c4c7c7">Principle of inclusion and exclusion</text>
</a>
</g>
</g>
<!-- Set&#45;&gt;Principle of inclusion and exclusion -->
<g id="edge13" class="edge">
<title>Set&#45;&gt;Principle of inclusion and exclusion</title>
<path fill="none" stroke="#ffffff" d="M1209.23,-72.29C1348.3,-33.69 1389.92,-52.16 1529.33,-36 1544.37,-34.26 1560.31,-32.38 1575.86,-30.53"/>
<polygon fill="#ffffff" stroke="#ffffff" points="1208.16,-68.95 1199.48,-75.04 1210.06,-75.69 1208.16,-68.95"/>
</g>
<!-- Differential Analysis -->
<g id="node15" class="node">
<title>Differential Analysis</title>
<g id="a_node15"><a xlink:title="Differential Analysis">
<ellipse fill="#273434" stroke="#b75867" cx="1900.33" cy="-18" rx="78.36" ry="18"/>
<text text-anchor="middle" x="1900.33" y="-14.9" font-family="sans" font-size="12.00" fill="#c4c7c7">Differential Analysis</text>
</a>
</g>
</g>
<!-- Set&#45;&gt;Differential Analysis -->
<g id="edge14" class="edge">
<title>Set&#45;&gt;Differential Analysis</title>
<path fill="none" stroke="#ffffff" d="M1209.22,-72.4C1470.76,-6.93 1548.77,-69.17 1812.33,-36 1822.98,-34.66 1834.28,-32.81 1845.11,-30.81"/>
<polygon fill="#ffffff" stroke="#ffffff" points="1208.27,-69.03 1199.44,-74.88 1209.99,-75.81 1208.27,-69.03"/>
</g>
<!-- Principle of partitions -->
<g id="node16" class="node">
<title>Principle of partitions</title>
<g id="a_node16"><a xlink:title="Principle of partitions">
<ellipse fill="#273434" stroke="#b75867" cx="2081.33" cy="-18" rx="84.17" ry="18"/>
<text text-anchor="middle" x="2081.33" y="-14.9" font-family="sans" font-size="12.00" fill="#c4c7c7">Principle of partitions</text>
</a>
</g>
</g>
<!-- Set&#45;&gt;Principle of partitions -->
<g id="edge15" class="edge">
<title>Set&#45;&gt;Principle of partitions</title>
<path fill="none" stroke="#ffffff" d="M1209.28,-72.49C1392.27,-31.09 1818.24,-55.11 1987.33,-36 1998.7,-34.71 2010.77,-32.89 2022.33,-30.9"/>
<polygon fill="#ffffff" stroke="#ffffff" points="1208.34,-69.12 1199.43,-74.84 1209.97,-75.92 1208.34,-69.12"/>
</g>
<!-- Principle of the bijection -->
<g id="node17" class="node">
<title>Principle of the bijection</title>
<g id="a_node17"><a xlink:title="Principle of the bijection">
<ellipse fill="#273434" stroke="#b75867" cx="2278.33" cy="-18" rx="94.6" ry="18"/>
<text text-anchor="middle" x="2278.33" y="-14.9" font-family="sans" font-size="12.00" fill="#c4c7c7">Principle of the bijection</text>
</a>
</g>
</g>
<!-- Set&#45;&gt;Principle of the bijection -->
<g id="edge16" class="edge">
<title>Set&#45;&gt;Principle of the bijection</title>
<path fill="none" stroke="#ffffff" d="M1209.19,-72.51C1432.88,-22.15 1963.71,-57.06 2174.33,-36 2186.71,-34.76 2199.85,-32.98 2212.47,-31.04"/>
<polygon fill="#ffffff" stroke="#ffffff" points="1208.35,-69.12 1199.42,-74.82 1209.96,-75.93 1208.35,-69.12"/>
</g>
</g>
</svg>
