<?xml version="1.0" encoding="UTF-8" standalone="no"?>
<!DOCTYPE svg PUBLIC "-//W3C//DTD SVG 1.1//EN"
 "http://www.w3.org/Graphics/SVG/1.1/DTD/svg11.dtd">
<!-- Generated by graphviz version 2.44.0 (0)
 -->
<!-- Title: Dirichlet principle Pages: 1 -->
<svg width="506pt" height="525pt"
 viewBox="0.00 0.00 506.00 525.00" xmlns="http://www.w3.org/2000/svg" xmlns:xlink="http://www.w3.org/1999/xlink">
<g id="page0,1_graph0" class="graph" transform="scale(1 1) rotate(0) translate(4 521)">
<title>Dirichlet principle</title>
<polygon fill="#132020" stroke="transparent" points="-4,4 -4,-521 502,-521 502,4 -4,4"/>
<!-- Dirichlet principle -->
<g id="node1" class="node">
<title>Dirichlet principle</title>
<g id="a_node1"><a xlink:href="../Dirichlet principle.html" xlink:title="Dirichlet principle" target="_parent">
<path fill="#273434" stroke="#b75867" d="M104,-258C104,-258 12,-258 12,-258 6,-258 0,-252 0,-246 0,-246 0,-234 0,-234 0,-228 6,-222 12,-222 12,-222 104,-222 104,-222 110,-222 116,-228 116,-234 116,-234 116,-246 116,-246 116,-252 110,-258 104,-258"/>
<text text-anchor="middle" x="58" y="-236.9" font-family="sans" font-size="12.00" fill="#c4c7c7">Dirichlet principle</text>
</a>
</g>
</g>
<!-- Injective function -->
<g id="node2" class="node">
<title>Injective function</title>
<g id="a_node2"><a xlink:href="../Injective function.html" xlink:title="Injective function" target="_parent">
<path fill="#273434" stroke="#b75867" d="M244.5,-387C244.5,-387 154.5,-387 154.5,-387 148.5,-387 142.5,-381 142.5,-375 142.5,-375 142.5,-363 142.5,-363 142.5,-357 148.5,-351 154.5,-351 154.5,-351 244.5,-351 244.5,-351 250.5,-351 256.5,-357 256.5,-363 256.5,-363 256.5,-375 256.5,-375 256.5,-381 250.5,-387 244.5,-387"/>
<text text-anchor="middle" x="199.5" y="-365.9" font-family="sans" font-size="12.00" fill="#c4c7c7">Injective function</text>
</a>
</g>
</g>
<!-- Dirichlet principle&#45;&gt;Injective function -->
<g id="edge1" class="edge">
<title>Dirichlet principle&#45;&gt;Injective function</title>
<path fill="none" stroke="#b75867" d="M78.69,-258.21C102.89,-280.59 144.08,-318.67 171.29,-343.84"/>
<polygon fill="#b75867" stroke="#b75867" points="169.19,-346.66 178.91,-350.88 173.94,-341.52 169.19,-346.66"/>
</g>
<!-- Set -->
<g id="node3" class="node">
<title>Set</title>
<g id="a_node3"><a xlink:href="../Set.html" xlink:title="Set" target="_parent">
<path fill="#273434" stroke="#b75867" d="M214.5,-258C214.5,-258 184.5,-258 184.5,-258 178.5,-258 172.5,-252 172.5,-246 172.5,-246 172.5,-234 172.5,-234 172.5,-228 178.5,-222 184.5,-222 184.5,-222 214.5,-222 214.5,-222 220.5,-222 226.5,-228 226.5,-234 226.5,-234 226.5,-246 226.5,-246 226.5,-252 220.5,-258 214.5,-258"/>
<text text-anchor="middle" x="199.5" y="-236.9" font-family="sans" font-size="12.00" fill="#c4c7c7">Set</text>
</a>
</g>
</g>
<!-- Dirichlet principle&#45;&gt;Set -->
<g id="edge2" class="edge">
<title>Dirichlet principle&#45;&gt;Set</title>
<path fill="none" stroke="#b75867" d="M116.14,-240C131.61,-240 147.94,-240 161.94,-240"/>
<polygon fill="#b75867" stroke="#b75867" points="162.14,-243.5 172.14,-240 162.14,-236.5 162.14,-243.5"/>
</g>
<!-- Combinatoric principles -->
<g id="node4" class="node">
<title>Combinatoric principles</title>
<g id="a_node4"><a xlink:href="../Combinatoric principles.html" xlink:title="Combinatoric principles" target="_parent">
<path fill="none" stroke="#b75867" d="M263,-166C263,-166 136,-166 136,-166 130,-166 124,-160 124,-154 124,-154 124,-142 124,-142 124,-136 130,-130 136,-130 136,-130 263,-130 263,-130 269,-130 275,-136 275,-142 275,-142 275,-154 275,-154 275,-160 269,-166 263,-166"/>
<text text-anchor="middle" x="199.5" y="-144.9" font-family="sans" font-size="12.00" fill="#c4c7c7">Combinatoric principles</text>
</a>
</g>
</g>
<!-- Dirichlet principle&#45;&gt;Combinatoric principles -->
<g id="edge3" class="edge">
<title>Dirichlet principle&#45;&gt;Combinatoric principles</title>
<path fill="none" stroke="#ffffff" d="M94.95,-216.29C118.66,-200.66 149.23,-180.49 171,-166.14"/>
<polygon fill="#ffffff" stroke="#ffffff" points="92.98,-213.4 86.56,-221.82 96.84,-219.24 92.98,-213.4"/>
</g>
<!-- Injective function&#45;&gt;Dirichlet principle -->
<g id="edge4" class="edge">
<title>Injective function&#45;&gt;Dirichlet principle</title>
<path fill="none" stroke="#ffffff" d="M170.58,-343.79C143.14,-318.62 102.01,-280.57 78.1,-258.2"/>
<polygon fill="#ffffff" stroke="#ffffff" points="168.53,-346.67 178.27,-350.84 173.26,-341.51 168.53,-346.67"/>
</g>
<!-- Linear Algebra -->
<g id="node5" class="node">
<title>Linear Algebra</title>
<g id="a_node5"><a xlink:href="../Linear Algebra.html" xlink:title="Linear Algebra" target="_parent">
<path fill="none" stroke="#b75867" d="M427.5,-517C427.5,-517 353.5,-517 353.5,-517 347.5,-517 341.5,-511 341.5,-505 341.5,-505 341.5,-493 341.5,-493 341.5,-487 347.5,-481 353.5,-481 353.5,-481 427.5,-481 427.5,-481 433.5,-481 439.5,-487 439.5,-493 439.5,-493 439.5,-505 439.5,-505 439.5,-511 433.5,-517 427.5,-517"/>
<text text-anchor="middle" x="390.5" y="-495.9" font-family="sans" font-size="12.00" fill="#c4c7c7">Linear Algebra</text>
</a>
</g>
</g>
<!-- Injective function&#45;&gt;Linear Algebra -->
<g id="edge5" class="edge">
<title>Injective function&#45;&gt;Linear Algebra</title>
<path fill="none" stroke="#ffffff" d="M213.91,-396.14C227.73,-421.16 251.65,-457.3 283,-477 300.34,-487.9 322.12,-493.51 341.45,-496.36"/>
<polygon fill="#ffffff" stroke="#ffffff" points="216.91,-394.33 209.12,-387.16 210.74,-397.63 216.91,-394.33"/>
</g>
<!-- Bijective function -->
<g id="node6" class="node">
<title>Bijective function</title>
<g id="a_node6"><a xlink:href="../Bijective function.html" xlink:title="Bijective function" target="_parent">
<path fill="none" stroke="#b75867" d="M435.5,-480C435.5,-480 345.5,-480 345.5,-480 339.5,-480 333.5,-474 333.5,-468 333.5,-468 333.5,-456 333.5,-456 333.5,-450 339.5,-444 345.5,-444 345.5,-444 435.5,-444 435.5,-444 441.5,-444 447.5,-450 447.5,-456 447.5,-456 447.5,-468 447.5,-468 447.5,-474 441.5,-480 435.5,-480"/>
<text text-anchor="middle" x="390.5" y="-458.9" font-family="sans" font-size="12.00" fill="#c4c7c7">Bijective function</text>
</a>
</g>
</g>
<!-- Injective function&#45;&gt;Bijective function -->
<g id="edge6" class="edge">
<title>Injective function&#45;&gt;Bijective function</title>
<path fill="none" stroke="#ffffff" d="M223.35,-394.37C238.72,-409.88 260.27,-428.82 283,-440 298.5,-447.63 316.53,-452.61 333.29,-455.87"/>
<polygon fill="#ffffff" stroke="#ffffff" points="225.78,-391.85 216.32,-387.08 220.74,-396.71 225.78,-391.85"/>
</g>
<!-- Set&#45;&gt;Dirichlet principle -->
<g id="edge14" class="edge">
<title>Set&#45;&gt;Dirichlet principle</title>
<path fill="none" stroke="#ffffff" d="M161.94,-240.67C147.94,-240.74 131.61,-240.77 116.14,-240.74"/>
<polygon fill="#ffffff" stroke="#ffffff" points="162.16,-244.17 172.14,-240.6 162.11,-237.17 162.16,-244.17"/>
</g>
<!-- Reflexive Closure -->
<g id="node7" class="node">
<title>Reflexive Closure</title>
<g id="a_node7"><a xlink:href="../Reflexive Closure.html" xlink:title="Reflexive Closure" target="_parent">
<path fill="none" stroke="#b75867" d="M435,-443C435,-443 346,-443 346,-443 340,-443 334,-437 334,-431 334,-431 334,-419 334,-419 334,-413 340,-407 346,-407 346,-407 435,-407 435,-407 441,-407 447,-413 447,-419 447,-419 447,-431 447,-431 447,-437 441,-443 435,-443"/>
<text text-anchor="middle" x="390.5" y="-421.9" font-family="sans" font-size="12.00" fill="#c4c7c7">Reflexive Closure</text>
</a>
</g>
</g>
<!-- Set&#45;&gt;Reflexive Closure -->
<g id="edge7" class="edge">
<title>Set&#45;&gt;Reflexive Closure</title>
<path fill="none" stroke="#ffffff" d="M222.93,-266.14C240.02,-287.53 262.64,-319.31 275,-351 283.5,-372.78 266.89,-386.05 283,-403 296.07,-416.76 315.29,-423.1 333.82,-425.73"/>
<polygon fill="#ffffff" stroke="#ffffff" points="225.49,-263.74 216.46,-258.2 220.06,-268.16 225.49,-263.74"/>
</g>
<!-- Symmetric Closure -->
<g id="node8" class="node">
<title>Symmetric Closure</title>
<g id="a_node8"><a xlink:href="../Symmetric Closure.html" xlink:title="Symmetric Closure" target="_parent">
<path fill="none" stroke="#b75867" d="M440,-406C440,-406 341,-406 341,-406 335,-406 329,-400 329,-394 329,-394 329,-382 329,-382 329,-376 335,-370 341,-370 341,-370 440,-370 440,-370 446,-370 452,-376 452,-382 452,-382 452,-394 452,-394 452,-400 446,-406 440,-406"/>
<text text-anchor="middle" x="390.5" y="-384.9" font-family="sans" font-size="12.00" fill="#c4c7c7">Symmetric Closure</text>
</a>
</g>
</g>
<!-- Set&#45;&gt;Symmetric Closure -->
<g id="edge8" class="edge">
<title>Set&#45;&gt;Symmetric Closure</title>
<path fill="none" stroke="#ffffff" d="M219.28,-266.34C234.83,-288.53 257.18,-321.31 275,-351 278.89,-357.48 276.95,-361.47 283,-366 296.15,-375.84 312.67,-381.53 328.74,-384.76"/>
<polygon fill="#ffffff" stroke="#ffffff" points="222.09,-264.25 213.47,-258.09 216.37,-268.28 222.09,-264.25"/>
</g>
<!-- Class of equivalence -->
<g id="node9" class="node">
<title>Class of equivalence</title>
<g id="a_node9"><a xlink:href="../Class of equivalence.html" xlink:title="Class of equivalence" target="_parent">
<path fill="none" stroke="#b75867" d="M444,-369C444,-369 337,-369 337,-369 331,-369 325,-363 325,-357 325,-357 325,-345 325,-345 325,-339 331,-333 337,-333 337,-333 444,-333 444,-333 450,-333 456,-339 456,-345 456,-345 456,-357 456,-357 456,-363 450,-369 444,-369"/>
<text text-anchor="middle" x="390.5" y="-347.9" font-family="sans" font-size="12.00" fill="#c4c7c7">Class of equivalence</text>
</a>
</g>
</g>
<!-- Set&#45;&gt;Class of equivalence -->
<g id="edge9" class="edge">
<title>Set&#45;&gt;Class of equivalence</title>
<path fill="none" stroke="#ffffff" d="M217.96,-266.39C232.83,-286.7 256.02,-313.79 283,-329 295.74,-336.19 310.53,-341.04 324.96,-344.31"/>
<polygon fill="#ffffff" stroke="#ffffff" points="220.76,-264.28 212.11,-258.16 215.05,-268.34 220.76,-264.28"/>
</g>
<!-- Relation of Equivalence -->
<g id="node10" class="node">
<title>Relation of Equivalence</title>
<g id="a_node10"><a xlink:href="../Relation of Equivalence.html" xlink:title="Relation of Equivalence" target="_parent">
<path fill="none" stroke="#b75867" d="M453,-332C453,-332 328,-332 328,-332 322,-332 316,-326 316,-320 316,-320 316,-308 316,-308 316,-302 322,-296 328,-296 328,-296 453,-296 453,-296 459,-296 465,-302 465,-308 465,-308 465,-320 465,-320 465,-326 459,-332 453,-332"/>
<text text-anchor="middle" x="390.5" y="-310.9" font-family="sans" font-size="12.00" fill="#c4c7c7">Relation of Equivalence</text>
</a>
</g>
</g>
<!-- Set&#45;&gt;Relation of Equivalence -->
<g id="edge10" class="edge">
<title>Set&#45;&gt;Relation of Equivalence</title>
<path fill="none" stroke="#ffffff" d="M232.42,-263.9C247.15,-273.91 265.28,-284.86 283,-292 293.33,-296.16 304.56,-299.58 315.72,-302.36"/>
<polygon fill="#ffffff" stroke="#ffffff" points="234.37,-260.99 224.16,-258.14 230.36,-266.73 234.37,-260.99"/>
</g>
<!-- Recurrent Equations -->
<g id="node11" class="node">
<title>Recurrent Equations</title>
<g id="a_node11"><a xlink:href="../Recurrent Equations.html" xlink:title="Recurrent Equations" target="_parent">
<path fill="none" stroke="#b75867" d="M444,-295C444,-295 337,-295 337,-295 331,-295 325,-289 325,-283 325,-283 325,-271 325,-271 325,-265 331,-259 337,-259 337,-259 444,-259 444,-259 450,-259 456,-265 456,-271 456,-271 456,-283 456,-283 456,-289 450,-295 444,-295"/>
<text text-anchor="middle" x="390.5" y="-273.9" font-family="sans" font-size="12.00" fill="#c4c7c7">Recurrent Equations</text>
</a>
</g>
</g>
<!-- Set&#45;&gt;Recurrent Equations -->
<g id="edge11" class="edge">
<title>Set&#45;&gt;Recurrent Equations</title>
<path fill="none" stroke="#ffffff" d="M236.87,-247.12C261.74,-251.99 295.41,-258.58 324.8,-264.33"/>
<polygon fill="#ffffff" stroke="#ffffff" points="237.27,-243.63 226.78,-245.14 235.92,-250.5 237.27,-243.63"/>
</g>
<!-- Principle of division -->
<g id="node12" class="node">
<title>Principle of division</title>
<g id="a_node12"><a xlink:href="../Principle of division.html" xlink:title="Principle of division" target="_parent">
<path fill="none" stroke="#b75867" d="M441.5,-110C441.5,-110 339.5,-110 339.5,-110 333.5,-110 327.5,-104 327.5,-98 327.5,-98 327.5,-86 327.5,-86 327.5,-80 333.5,-74 339.5,-74 339.5,-74 441.5,-74 441.5,-74 447.5,-74 453.5,-80 453.5,-86 453.5,-86 453.5,-98 453.5,-98 453.5,-104 447.5,-110 441.5,-110"/>
<text text-anchor="middle" x="390.5" y="-88.9" font-family="sans" font-size="12.00" fill="#c4c7c7">Principle of division</text>
</a>
</g>
</g>
<!-- Set&#45;&gt;Principle of division -->
<g id="edge12" class="edge">
<title>Set&#45;&gt;Principle of division</title>
<path fill="none" stroke="#ffffff" d="M234.22,-215.31C249.12,-202.57 265.4,-185.77 275,-167 285.85,-145.79 266.62,-131.29 283,-114 294.56,-101.8 310.95,-95.43 327.42,-92.3"/>
<polygon fill="#ffffff" stroke="#ffffff" points="231.64,-212.9 226.14,-221.95 236.09,-218.3 231.64,-212.9"/>
</g>
<!-- Principle of products -->
<g id="node13" class="node">
<title>Principle of products</title>
<g id="a_node13"><a xlink:href="../Principle of products.html" xlink:title="Principle of products" target="_parent">
<path fill="none" stroke="#b75867" d="M445.5,-73C445.5,-73 335.5,-73 335.5,-73 329.5,-73 323.5,-67 323.5,-61 323.5,-61 323.5,-49 323.5,-49 323.5,-43 329.5,-37 335.5,-37 335.5,-37 445.5,-37 445.5,-37 451.5,-37 457.5,-43 457.5,-49 457.5,-49 457.5,-61 457.5,-61 457.5,-67 451.5,-73 445.5,-73"/>
<text text-anchor="middle" x="390.5" y="-51.9" font-family="sans" font-size="12.00" fill="#c4c7c7">Principle of products</text>
</a>
</g>
</g>
<!-- Set&#45;&gt;Principle of products -->
<g id="edge13" class="edge">
<title>Set&#45;&gt;Principle of products</title>
<path fill="none" stroke="#ffffff" d="M234.74,-215.56C249.75,-202.88 265.98,-186.06 275,-167 283.59,-148.85 269.64,-91.99 283,-77 293.36,-65.37 308.11,-58.95 323.33,-55.59"/>
<polygon fill="#ffffff" stroke="#ffffff" points="232.15,-213.15 226.58,-222.17 236.55,-218.59 232.15,-213.15"/>
</g>
<!-- Principle of inclusion and exclusion -->
<g id="node14" class="node">
<title>Principle of inclusion and exclusion</title>
<g id="a_node14"><a xlink:href="../Principle of inclusion and exclusion.html" xlink:title="Principle of inclusion and exclusion" target="_parent">
<path fill="none" stroke="#b75867" d="M486,-221C486,-221 295,-221 295,-221 289,-221 283,-215 283,-209 283,-209 283,-197 283,-197 283,-191 289,-185 295,-185 295,-185 486,-185 486,-185 492,-185 498,-191 498,-197 498,-197 498,-209 498,-209 498,-215 492,-221 486,-221"/>
<text text-anchor="middle" x="390.5" y="-199.9" font-family="sans" font-size="12.00" fill="#c4c7c7">Principle of inclusion and exclusion</text>
</a>
</g>
</g>
<!-- Set&#45;&gt;Principle of inclusion and exclusion -->
<g id="edge15" class="edge">
<title>Set&#45;&gt;Principle of inclusion and exclusion</title>
<path fill="none" stroke="#ffffff" d="M236.98,-232.86C254.3,-229.47 275.87,-225.25 297.28,-221.05"/>
<polygon fill="#ffffff" stroke="#ffffff" points="235.92,-229.5 226.78,-234.86 237.27,-236.37 235.92,-229.5"/>
</g>
<!-- Differential Analysis -->
<g id="node15" class="node">
<title>Differential Analysis</title>
<g id="a_node15"><a xlink:href="../Differential Analysis.html" xlink:title="Differential Analysis" target="_parent">
<path fill="none" stroke="#b75867" d="M442,-258C442,-258 339,-258 339,-258 333,-258 327,-252 327,-246 327,-246 327,-234 327,-234 327,-228 333,-222 339,-222 339,-222 442,-222 442,-222 448,-222 454,-228 454,-234 454,-234 454,-246 454,-246 454,-252 448,-258 442,-258"/>
<text text-anchor="middle" x="390.5" y="-236.9" font-family="sans" font-size="12.00" fill="#c4c7c7">Differential Analysis</text>
</a>
</g>
</g>
<!-- Set&#45;&gt;Differential Analysis -->
<g id="edge16" class="edge">
<title>Set&#45;&gt;Differential Analysis</title>
<path fill="none" stroke="#ffffff" d="M237.08,-240C262.51,-240 297.04,-240 326.81,-240"/>
<polygon fill="#ffffff" stroke="#ffffff" points="236.78,-236.5 226.78,-240 236.78,-243.5 236.78,-236.5"/>
</g>
<!-- Principle of partitions -->
<g id="node16" class="node">
<title>Principle of partitions</title>
<g id="a_node16"><a xlink:href="../Principle of partitions.html" xlink:title="Principle of partitions" target="_parent">
<path fill="none" stroke="#b75867" d="M447,-184C447,-184 334,-184 334,-184 328,-184 322,-178 322,-172 322,-172 322,-160 322,-160 322,-154 328,-148 334,-148 334,-148 447,-148 447,-148 453,-148 459,-154 459,-160 459,-160 459,-172 459,-172 459,-178 453,-184 447,-184"/>
<text text-anchor="middle" x="390.5" y="-162.9" font-family="sans" font-size="12.00" fill="#c4c7c7">Principle of partitions</text>
</a>
</g>
</g>
<!-- Set&#45;&gt;Principle of partitions -->
<g id="edge17" class="edge">
<title>Set&#45;&gt;Principle of partitions</title>
<path fill="none" stroke="#ffffff" d="M232.42,-216.1C247.15,-206.09 265.28,-195.14 283,-188 295.26,-183.06 308.78,-179.18 321.95,-176.14"/>
<polygon fill="#ffffff" stroke="#ffffff" points="230.36,-213.27 224.16,-221.86 234.37,-219.01 230.36,-213.27"/>
</g>
<!-- Principle of the bijection -->
<g id="node17" class="node">
<title>Principle of the bijection</title>
<g id="a_node17"><a xlink:href="../Principle of the bijection.html" xlink:title="Principle of the bijection" target="_parent">
<path fill="none" stroke="#b75867" d="M455.5,-147C455.5,-147 325.5,-147 325.5,-147 319.5,-147 313.5,-141 313.5,-135 313.5,-135 313.5,-123 313.5,-123 313.5,-117 319.5,-111 325.5,-111 325.5,-111 455.5,-111 455.5,-111 461.5,-111 467.5,-117 467.5,-123 467.5,-123 467.5,-135 467.5,-135 467.5,-141 461.5,-147 455.5,-147"/>
<text text-anchor="middle" x="390.5" y="-125.9" font-family="sans" font-size="12.00" fill="#c4c7c7">Principle of the bijection</text>
</a>
</g>
</g>
<!-- Set&#45;&gt;Principle of the bijection -->
<g id="edge18" class="edge">
<title>Set&#45;&gt;Principle of the bijection</title>
<path fill="none" stroke="#ffffff" d="M230.47,-214.89C245.09,-201.65 262.22,-184.54 275,-167 279.68,-160.57 276.7,-155.85 283,-151 291.91,-144.15 302.42,-139.3 313.33,-135.89"/>
<polygon fill="#ffffff" stroke="#ffffff" points="227.81,-212.57 222.66,-221.83 232.46,-217.81 227.81,-212.57"/>
</g>
<!-- Combinatoric principles&#45;&gt;Dirichlet principle -->
<g id="edge24" class="edge">
<title>Combinatoric principles&#45;&gt;Dirichlet principle</title>
<path fill="none" stroke="#b75867" d="M171.73,-166.26C150.15,-180.66 119.56,-200.86 95.69,-216.47"/>
<polygon fill="#b75867" stroke="#b75867" points="93.69,-213.6 87.23,-222 97.52,-219.46 93.69,-213.6"/>
</g>
<!-- Combinatoric principles&#45;&gt;Principle of division -->
<g id="edge20" class="edge">
<title>Combinatoric principles&#45;&gt;Principle of division</title>
<path fill="none" stroke="#b75867" d="M240.23,-129.86C253.62,-124.23 268.78,-118.36 283,-114 293.96,-110.64 305.71,-107.64 317.26,-105.01"/>
<polygon fill="#b75867" stroke="#b75867" points="318.32,-108.36 327.34,-102.8 316.82,-101.53 318.32,-108.36"/>
</g>
<!-- Combinatoric principles&#45;&gt;Principle of products -->
<g id="edge22" class="edge">
<title>Combinatoric principles&#45;&gt;Principle of products</title>
<path fill="none" stroke="#b75867" d="M216.32,-129.92C231.7,-113.53 256.55,-90.01 283,-77 292.53,-72.31 303.02,-68.62 313.58,-65.71"/>
<polygon fill="#b75867" stroke="#b75867" points="314.44,-69.11 323.28,-63.26 312.73,-62.32 314.44,-69.11"/>
</g>
<!-- Combinatoric principles&#45;&gt;Principle of inclusion and exclusion -->
<g id="edge19" class="edge">
<title>Combinatoric principles&#45;&gt;Principle of inclusion and exclusion</title>
<path fill="none" stroke="#b75867" d="M241.54,-166.07C254.62,-171.38 269.26,-176.87 283,-181 284.44,-181.43 285.9,-181.86 287.36,-182.28"/>
<polygon fill="#b75867" stroke="#b75867" points="286.6,-185.7 297.17,-184.98 288.46,-178.96 286.6,-185.7"/>
</g>
<!-- Combinatoric principles&#45;&gt;Principle of partitions -->
<g id="edge23" class="edge">
<title>Combinatoric principles&#45;&gt;Principle of partitions</title>
<path fill="none" stroke="#b75867" d="M275.2,-155.11C287.21,-156.26 299.67,-157.44 311.75,-158.59"/>
<polygon fill="#b75867" stroke="#b75867" points="311.5,-162.09 321.79,-159.55 312.16,-155.12 311.5,-162.09"/>
</g>
<!-- Combinatoric principles&#45;&gt;Principle of the bijection -->
<g id="edge21" class="edge">
<title>Combinatoric principles&#45;&gt;Principle of the bijection</title>
<path fill="none" stroke="#b75867" d="M275.2,-140.49C284.44,-139.56 293.95,-138.61 303.35,-137.66"/>
<polygon fill="#b75867" stroke="#b75867" points="303.89,-141.12 313.49,-136.64 303.19,-134.16 303.89,-141.12"/>
</g>
<!-- Combinatorics -->
<g id="node18" class="node">
<title>Combinatorics</title>
<g id="a_node18"><a xlink:href="../Combinatorics.html" xlink:title="Combinatorics" target="_parent">
<path fill="none" stroke="#b75867" d="M427.5,-36C427.5,-36 353.5,-36 353.5,-36 347.5,-36 341.5,-30 341.5,-24 341.5,-24 341.5,-12 341.5,-12 341.5,-6 347.5,0 353.5,0 353.5,0 427.5,0 427.5,0 433.5,0 439.5,-6 439.5,-12 439.5,-12 439.5,-24 439.5,-24 439.5,-30 433.5,-36 427.5,-36"/>
<text text-anchor="middle" x="390.5" y="-14.9" font-family="sans" font-size="12.00" fill="#c4c7c7">Combinatorics</text>
</a>
</g>
</g>
<!-- Combinatoric principles&#45;&gt;Combinatorics -->
<g id="edge25" class="edge">
<title>Combinatoric principles&#45;&gt;Combinatorics</title>
<path fill="none" stroke="#ffffff" d="M213.91,-120.86C227.73,-95.84 251.65,-59.7 283,-40 300.34,-29.1 322.12,-23.49 341.45,-20.64"/>
<polygon fill="#ffffff" stroke="#ffffff" points="210.74,-119.37 209.12,-129.84 216.91,-122.67 210.74,-119.37"/>
</g>
</g>
</svg>
