<?xml version="1.0" encoding="UTF-8" standalone="no"?>
<!DOCTYPE svg PUBLIC "-//W3C//DTD SVG 1.1//EN"
 "http://www.w3.org/Graphics/SVG/1.1/DTD/svg11.dtd">
<!-- Generated by graphviz version 2.44.0 (0)
 -->
<!-- Title: Extrapolation Pages: 1 -->
<svg width="835pt" height="260pt"
 viewBox="0.00 0.00 835.23 260.00" xmlns="http://www.w3.org/2000/svg" xmlns:xlink="http://www.w3.org/1999/xlink">
<g id="page0,1_graph0" class="graph" transform="scale(1 1) rotate(0) translate(4 256)">
<title>Extrapolation</title>
<polygon fill="#132020" stroke="transparent" points="-4,4 -4,-256 831.23,-256 831.23,4 -4,4"/>
<!-- Extrapolation -->
<g id="node1" class="node">
<title>Extrapolation</title>
<g id="a_node1"><a xlink:href="../Extrapolation.html" xlink:title="Extrapolation" target="_parent">
<path fill="#273434" stroke="#b75867" d="M544.85,-252C544.85,-252 475.85,-252 475.85,-252 469.85,-252 463.85,-246 463.85,-240 463.85,-240 463.85,-228 463.85,-228 463.85,-222 469.85,-216 475.85,-216 475.85,-216 544.85,-216 544.85,-216 550.85,-216 556.85,-222 556.85,-228 556.85,-228 556.85,-240 556.85,-240 556.85,-246 550.85,-252 544.85,-252"/>
<text text-anchor="middle" x="510.35" y="-230.9" font-family="sans" font-size="12.00" fill="#c4c7c7">Extrapolation</text>
</a>
</g>
</g>
<!-- Lagrange Interpolation -->
<g id="node2" class="node">
<title>Lagrange Interpolation</title>
<g id="a_node2"><a xlink:href="../Lagrange Interpolation.html" xlink:title="Lagrange Interpolation" target="_parent">
<path fill="#273434" stroke="#b75867" d="M571.85,-180C571.85,-180 448.85,-180 448.85,-180 442.85,-180 436.85,-174 436.85,-168 436.85,-168 436.85,-156 436.85,-156 436.85,-150 442.85,-144 448.85,-144 448.85,-144 571.85,-144 571.85,-144 577.85,-144 583.85,-150 583.85,-156 583.85,-156 583.85,-168 583.85,-168 583.85,-174 577.85,-180 571.85,-180"/>
<text text-anchor="middle" x="510.35" y="-158.9" font-family="sans" font-size="12.00" fill="#c4c7c7">Lagrange Interpolation</text>
</a>
</g>
</g>
<!-- Extrapolation&#45;&gt;Lagrange Interpolation -->
<g id="edge1" class="edge">
<title>Extrapolation&#45;&gt;Lagrange Interpolation</title>
<path fill="none" stroke="#b75867" d="M510.35,-215.7C510.35,-207.98 510.35,-198.71 510.35,-190.11"/>
<polygon fill="#b75867" stroke="#b75867" points="513.85,-190.1 510.35,-180.1 506.85,-190.1 513.85,-190.1"/>
</g>
<!-- Lagrange Interpolation Problem -->
<g id="node3" class="node">
<title>Lagrange Interpolation Problem</title>
<g id="a_node3"><a xlink:href="../Lagrange Interpolation Problem.html" xlink:title="Lagrange Interpolation Problem" target="_parent">
<path fill="#273434" stroke="#b75867" d="M408.85,-108C408.85,-108 233.85,-108 233.85,-108 227.85,-108 221.85,-102 221.85,-96 221.85,-96 221.85,-84 221.85,-84 221.85,-78 227.85,-72 233.85,-72 233.85,-72 408.85,-72 408.85,-72 414.85,-72 420.85,-78 420.85,-84 420.85,-84 420.85,-96 420.85,-96 420.85,-102 414.85,-108 408.85,-108"/>
<text text-anchor="middle" x="321.35" y="-86.9" font-family="sans" font-size="12.00" fill="#c4c7c7">Lagrange Interpolation Problem</text>
</a>
</g>
</g>
<!-- Lagrange Interpolation&#45;&gt;Lagrange Interpolation Problem -->
<g id="edge2" class="edge">
<title>Lagrange Interpolation&#45;&gt;Lagrange Interpolation Problem</title>
<path fill="none" stroke="#b75867" d="M464.12,-143.88C437.82,-134.14 404.71,-121.87 376.99,-111.61"/>
<polygon fill="#b75867" stroke="#b75867" points="378.03,-108.26 367.44,-108.07 375.6,-114.82 378.03,-108.26"/>
</g>
<!-- Numeric Methods -->
<g id="node4" class="node">
<title>Numeric Methods</title>
<g id="a_node4"><a xlink:href="../Numeric Methods.html" xlink:title="Numeric Methods" target="_parent">
<ellipse fill="#273434" stroke="#b75867" cx="510.35" cy="-90" rx="71.32" ry="18"/>
<text text-anchor="middle" x="510.35" y="-86.9" font-family="sans" font-size="12.00" fill="#c4c7c7">Numeric Methods</text>
</a>
</g>
</g>
<!-- Lagrange Interpolation&#45;&gt;Numeric Methods -->
<g id="edge3" class="edge">
<title>Lagrange Interpolation&#45;&gt;Numeric Methods</title>
<path fill="none" stroke="#ffffff" d="M510.35,-133.67C510.35,-125.05 510.35,-115.79 510.35,-108.1"/>
<polygon fill="#ffffff" stroke="#ffffff" points="506.85,-133.7 510.35,-143.7 513.85,-133.7 506.85,-133.7"/>
</g>
<!-- Evaluating Interpolation Error -->
<g id="node5" class="node">
<title>Evaluating Interpolation Error</title>
<g id="a_node5"><a xlink:href="../Evaluating Interpolation Error.html" xlink:title="Evaluating Interpolation Error" target="_parent">
<ellipse fill="#273434" stroke="#b75867" cx="713.35" cy="-90" rx="113.77" ry="18"/>
<text text-anchor="middle" x="713.35" y="-86.9" font-family="sans" font-size="12.00" fill="#c4c7c7">Evaluating Interpolation Error</text>
</a>
</g>
</g>
<!-- Lagrange Interpolation&#45;&gt;Evaluating Interpolation Error -->
<g id="edge4" class="edge">
<title>Lagrange Interpolation&#45;&gt;Evaluating Interpolation Error</title>
<path fill="none" stroke="#ffffff" d="M569.31,-140.67C600.86,-129.79 639.1,-116.6 668.25,-106.55"/>
<polygon fill="#ffffff" stroke="#ffffff" points="568.06,-137.4 559.75,-143.97 570.35,-144.01 568.06,-137.4"/>
</g>
<!-- Lagrange Interpolation Polynomial -->
<g id="node6" class="node">
<title>Lagrange Interpolation Polynomial</title>
<g id="a_node6"><a xlink:href="../Lagrange Interpolation Polynomial.html" xlink:title="Lagrange Interpolation Polynomial" target="_parent">
<ellipse fill="#273434" stroke="#b75867" cx="132.35" cy="-18" rx="132.2" ry="18"/>
<text text-anchor="middle" x="132.35" y="-14.9" font-family="sans" font-size="12.00" fill="#c4c7c7">Lagrange Interpolation Polynomial</text>
</a>
</g>
</g>
<!-- Lagrange Interpolation Problem&#45;&gt;Lagrange Interpolation Polynomial -->
<g id="edge5" class="edge">
<title>Lagrange Interpolation Problem&#45;&gt;Lagrange Interpolation Polynomial</title>
<path fill="none" stroke="#ffffff" d="M265.63,-68.36C236.96,-57.74 202.52,-44.99 175.84,-35.11"/>
<polygon fill="#ffffff" stroke="#ffffff" points="264.52,-71.68 275.12,-71.88 266.95,-65.12 264.52,-71.68"/>
</g>
<!-- The Lagrange Interpolation Polynomial of a Polynomial is itself -->
<g id="node7" class="node">
<title>The Lagrange Interpolation Polynomial of a Polynomial is itself</title>
<g id="a_node7"><a xlink:href="../The Lagrange Interpolation Polynomial of a Polynomial is itself.html" xlink:title="The Lagrange Interpolation Polynomial of a Polynomial is itself" target="_parent">
<ellipse fill="#273434" stroke="#b75867" cx="511.35" cy="-18" rx="229" ry="18"/>
<text text-anchor="middle" x="511.35" y="-14.9" font-family="sans" font-size="12.00" fill="#c4c7c7">The Lagrange Interpolation Polynomial of a Polynomial is itself</text>
</a>
</g>
</g>
<!-- Lagrange Interpolation Problem&#45;&gt;The Lagrange Interpolation Polynomial of a Polynomial is itself -->
<g id="edge6" class="edge">
<title>Lagrange Interpolation Problem&#45;&gt;The Lagrange Interpolation Polynomial of a Polynomial is itself</title>
<path fill="none" stroke="#ffffff" d="M377.56,-68.29C405.76,-57.9 439.48,-45.48 466.01,-35.71"/>
<polygon fill="#ffffff" stroke="#ffffff" points="376,-65.13 367.83,-71.88 378.42,-71.7 376,-65.13"/>
</g>
</g>
</svg>
