<?xml version="1.0" encoding="UTF-8" standalone="no"?>
<!DOCTYPE svg PUBLIC "-//W3C//DTD SVG 1.1//EN"
 "http://www.w3.org/Graphics/SVG/1.1/DTD/svg11.dtd">
<!-- Generated by graphviz version 2.44.0 (0)
 -->
<!-- Title: Formula of Lagrange for Interpolation Pages: 1 -->
<svg width="941pt" height="192pt"
 viewBox="0.00 0.00 941.00 192.00" xmlns="http://www.w3.org/2000/svg" xmlns:xlink="http://www.w3.org/1999/xlink">
<g id="page0,1_graph0" class="graph" transform="scale(1 1) rotate(0) translate(4 188)">
<title>Formula of Lagrange for Interpolation</title>
<polygon fill="#132020" stroke="transparent" points="-4,4 -4,-188 937,-188 937,4 -4,4"/>
<!-- Formula of Lagrange for Interpolation -->
<g id="node1" class="node">
<title>Formula of Lagrange for Interpolation</title>
<g id="a_node1"><a xlink:href="../Formula of Lagrange for Interpolation.html" xlink:title="Formula of Lagrange for Interpolation" target="_parent">
<path fill="#273434" stroke="#b75867" d="M219,-81C219,-81 12,-81 12,-81 6,-81 0,-75 0,-69 0,-69 0,-57 0,-57 0,-51 6,-45 12,-45 12,-45 219,-45 219,-45 225,-45 231,-51 231,-57 231,-57 231,-69 231,-69 231,-75 225,-81 219,-81"/>
<text text-anchor="middle" x="115.5" y="-59.9" font-family="sans" font-size="12.00" fill="#c4c7c7">Formula of Lagrange for Interpolation</text>
</a>
</g>
</g>
<!-- Kronecker Delta -->
<g id="node2" class="node">
<title>Kronecker Delta</title>
<g id="a_node2"><a xlink:href="../Kronecker Delta.html" xlink:title="Kronecker Delta" target="_parent">
<path fill="#273434" stroke="#b75867" d="M334,-71C334,-71 251,-71 251,-71 245,-71 239,-65 239,-59 239,-59 239,-47 239,-47 239,-41 245,-35 251,-35 251,-35 334,-35 334,-35 340,-35 346,-41 346,-47 346,-47 346,-59 346,-59 346,-65 340,-71 334,-71"/>
<text text-anchor="middle" x="292.5" y="-49.9" font-family="sans" font-size="12.00" fill="#c4c7c7">Kronecker Delta</text>
</a>
</g>
</g>
<!-- Formula of Lagrange for Interpolation&#45;&gt;Kronecker Delta -->
<g id="edge1" class="edge">
<title>Formula of Lagrange for Interpolation&#45;&gt;Kronecker Delta</title>
<path fill="none" stroke="#b75867" d="M231.27,-56.44C231.44,-56.43 231.6,-56.42 231.76,-56.41"/>
<polygon fill="#b75867" stroke="#b75867" points="229.11,-60.07 238.89,-56.01 228.71,-53.08 229.11,-60.07"/>
</g>
<!-- Lagrange Interpolation Problem -->
<g id="node3" class="node">
<title>Lagrange Interpolation Problem</title>
<g id="a_node3"><a xlink:href="../Lagrange Interpolation Problem.html" xlink:title="Lagrange Interpolation Problem" target="_parent">
<path fill="none" stroke="#b75867" d="M541,-91C541,-91 366,-91 366,-91 360,-91 354,-85 354,-79 354,-79 354,-67 354,-67 354,-61 360,-55 366,-55 366,-55 541,-55 541,-55 547,-55 553,-61 553,-67 553,-67 553,-79 553,-79 553,-85 547,-91 541,-91"/>
<text text-anchor="middle" x="453.5" y="-69.9" font-family="sans" font-size="12.00" fill="#c4c7c7">Lagrange Interpolation Problem</text>
</a>
</g>
</g>
<!-- Formula of Lagrange for Interpolation&#45;&gt;Lagrange Interpolation Problem -->
<g id="edge2" class="edge">
<title>Formula of Lagrange for Interpolation&#45;&gt;Lagrange Interpolation Problem</title>
<path fill="none" stroke="#ffffff" d="M241.27,-68.06C282.61,-69.36 320.44,-70.3 353.9,-71.05"/>
<polygon fill="#ffffff" stroke="#ffffff" points="241.37,-64.56 231.26,-67.74 241.14,-71.56 241.37,-64.56"/>
</g>
<!-- Kronecker Delta&#45;&gt;Formula of Lagrange for Interpolation -->
<g id="edge5" class="edge">
<title>Kronecker Delta&#45;&gt;Formula of Lagrange for Interpolation</title>
<path fill="none" stroke="#ffffff" d="M231.76,-57.13C231.6,-57.14 231.44,-57.15 231.27,-57.16"/>
<polygon fill="#ffffff" stroke="#ffffff" points="229.12,-60.79 238.89,-56.7 228.7,-53.81 229.12,-60.79"/>
</g>
<!-- Kronecker Delta&#45;&gt;Lagrange Interpolation Problem -->
<g id="edge6" class="edge">
<title>Kronecker Delta&#45;&gt;Lagrange Interpolation Problem</title>
<path fill="none" stroke="#ffffff" d="M353.74,-60.58C353.82,-60.59 353.91,-60.6 353.99,-60.61"/>
<polygon fill="#ffffff" stroke="#ffffff" points="356.36,-57.38 346,-59.6 355.49,-64.32 356.36,-57.38"/>
</g>
<!-- Fundamental polynomials of Lagrange -->
<g id="node4" class="node">
<title>Fundamental polynomials of Lagrange</title>
<g id="a_node4"><a xlink:href="../Fundamental polynomials of Lagrange.html" xlink:title="Fundamental polynomials of Lagrange" target="_parent">
<path fill="none" stroke="#b75867" d="M853,-36C853,-36 641,-36 641,-36 635,-36 629,-30 629,-24 629,-24 629,-12 629,-12 629,-6 635,0 641,0 641,0 853,0 853,0 859,0 865,-6 865,-12 865,-12 865,-24 865,-24 865,-30 859,-36 853,-36"/>
<text text-anchor="middle" x="747" y="-14.9" font-family="sans" font-size="12.00" fill="#c4c7c7">Fundamental polynomials of Lagrange</text>
</a>
</g>
</g>
<!-- Kronecker Delta&#45;&gt;Fundamental polynomials of Lagrange -->
<g id="edge3" class="edge">
<title>Kronecker Delta&#45;&gt;Fundamental polynomials of Lagrange</title>
<path fill="none" stroke="#ffffff" d="M356.45,-54.24C427.47,-55.24 535.44,-55.47 553,-48 557.63,-46.03 556.48,-42.2 561,-40 581.8,-29.9 605.42,-23.73 628.65,-20.07"/>
<polygon fill="#ffffff" stroke="#ffffff" points="356.3,-50.73 346.25,-54.08 356.2,-57.73 356.3,-50.73"/>
</g>
<!-- Linear Algebra -->
<g id="node5" class="node">
<title>Linear Algebra</title>
<g id="a_node5"><a xlink:href="../Linear Algebra.html" xlink:title="Linear Algebra" target="_parent">
<path fill="none" stroke="#b75867" d="M490.5,-51C490.5,-51 416.5,-51 416.5,-51 410.5,-51 404.5,-45 404.5,-39 404.5,-39 404.5,-27 404.5,-27 404.5,-21 410.5,-15 416.5,-15 416.5,-15 490.5,-15 490.5,-15 496.5,-15 502.5,-21 502.5,-27 502.5,-27 502.5,-39 502.5,-39 502.5,-45 496.5,-51 490.5,-51"/>
<text text-anchor="middle" x="453.5" y="-29.9" font-family="sans" font-size="12.00" fill="#c4c7c7">Linear Algebra</text>
</a>
</g>
</g>
<!-- Kronecker Delta&#45;&gt;Linear Algebra -->
<g id="edge4" class="edge">
<title>Kronecker Delta&#45;&gt;Linear Algebra</title>
<path fill="none" stroke="#ffffff" d="M356.34,-45.1C372.32,-43.09 389.23,-40.96 404.35,-39.06"/>
<polygon fill="#ffffff" stroke="#ffffff" points="355.49,-41.68 346,-46.4 356.36,-48.62 355.49,-41.68"/>
</g>
<!-- Lagrange Interpolation Problem&#45;&gt;Formula of Lagrange for Interpolation -->
<g id="edge8" class="edge">
<title>Lagrange Interpolation Problem&#45;&gt;Formula of Lagrange for Interpolation</title>
<path fill="none" stroke="#b75867" d="M353.9,-71.99C320.44,-71.29 282.61,-70.36 241.27,-69.06"/>
<polygon fill="#b75867" stroke="#b75867" points="241.37,-65.56 231.26,-68.74 241.14,-72.56 241.37,-65.56"/>
</g>
<!-- Lagrange Interpolation Problem&#45;&gt;Kronecker Delta -->
<g id="edge7" class="edge">
<title>Lagrange Interpolation Problem&#45;&gt;Kronecker Delta</title>
<path fill="none" stroke="#b75867" d="M353.99,-61.34C353.91,-61.33 353.82,-61.32 353.74,-61.31"/>
<polygon fill="#b75867" stroke="#b75867" points="356.37,-58.12 346,-60.31 355.48,-65.06 356.37,-58.12"/>
</g>
<!-- Lagrange Interpolation Problem&#45;&gt;Fundamental polynomials of Lagrange -->
<g id="edge9" class="edge">
<title>Lagrange Interpolation Problem&#45;&gt;Fundamental polynomials of Lagrange</title>
<path fill="none" stroke="#b75867" d="M546.65,-54.8C548.83,-53.61 550.95,-52.35 553,-51 558.05,-47.68 555.78,-43.06 561,-40 578.51,-29.74 598.54,-23.19 618.82,-19.14"/>
<polygon fill="#b75867" stroke="#b75867" points="619.55,-22.56 628.78,-17.35 618.32,-15.67 619.55,-22.56"/>
</g>
<!-- Fundamental Theorem of Algebra -->
<g id="node6" class="node">
<title>Fundamental Theorem of Algebra</title>
<g id="a_node6"><a xlink:href="../Fundamental Theorem of Algebra.html" xlink:title="Fundamental Theorem of Algebra" target="_parent">
<path fill="#273434" stroke="#b75867" d="M839.5,-147C839.5,-147 654.5,-147 654.5,-147 648.5,-147 642.5,-141 642.5,-135 642.5,-135 642.5,-123 642.5,-123 642.5,-117 648.5,-111 654.5,-111 654.5,-111 839.5,-111 839.5,-111 845.5,-111 851.5,-117 851.5,-123 851.5,-123 851.5,-135 851.5,-135 851.5,-141 845.5,-147 839.5,-147"/>
<text text-anchor="middle" x="747" y="-125.9" font-family="sans" font-size="12.00" fill="#c4c7c7">Fundamental Theorem of Algebra</text>
</a>
</g>
</g>
<!-- Lagrange Interpolation Problem&#45;&gt;Fundamental Theorem of Algebra -->
<g id="edge10" class="edge">
<title>Lagrange Interpolation Problem&#45;&gt;Fundamental Theorem of Algebra</title>
<path fill="none" stroke="#b75867" d="M504.35,-91.08C522.04,-96.92 542.22,-102.93 561,-107 583.82,-111.95 608.48,-115.86 632.12,-118.92"/>
<polygon fill="#b75867" stroke="#b75867" points="631.83,-122.41 642.19,-120.18 632.7,-115.46 631.83,-122.41"/>
</g>
<!-- Lagrange Interpolation -->
<g id="node7" class="node">
<title>Lagrange Interpolation</title>
<g id="a_node7"><a xlink:href="../Lagrange Interpolation.html" xlink:title="Lagrange Interpolation" target="_parent">
<path fill="none" stroke="#b75867" d="M808.5,-110C808.5,-110 685.5,-110 685.5,-110 679.5,-110 673.5,-104 673.5,-98 673.5,-98 673.5,-86 673.5,-86 673.5,-80 679.5,-74 685.5,-74 685.5,-74 808.5,-74 808.5,-74 814.5,-74 820.5,-80 820.5,-86 820.5,-86 820.5,-98 820.5,-98 820.5,-104 814.5,-110 808.5,-110"/>
<text text-anchor="middle" x="747" y="-88.9" font-family="sans" font-size="12.00" fill="#c4c7c7">Lagrange Interpolation</text>
</a>
</g>
</g>
<!-- Lagrange Interpolation Problem&#45;&gt;Lagrange Interpolation -->
<g id="edge11" class="edge">
<title>Lagrange Interpolation Problem&#45;&gt;Lagrange Interpolation</title>
<path fill="none" stroke="#ffffff" d="M563.43,-80.1C600.07,-82.49 640.04,-85.09 673.22,-87.26"/>
<polygon fill="#ffffff" stroke="#ffffff" points="563.4,-76.59 553.19,-79.43 562.94,-83.58 563.4,-76.59"/>
</g>
<!-- Lagrange Interpolation Polynomial -->
<g id="node8" class="node">
<title>Lagrange Interpolation Polynomial</title>
<g id="a_node8"><a xlink:href="../Lagrange Interpolation Polynomial.html" xlink:title="Lagrange Interpolation Polynomial" target="_parent">
<path fill="none" stroke="#b75867" d="M842.5,-73C842.5,-73 651.5,-73 651.5,-73 645.5,-73 639.5,-67 639.5,-61 639.5,-61 639.5,-49 639.5,-49 639.5,-43 645.5,-37 651.5,-37 651.5,-37 842.5,-37 842.5,-37 848.5,-37 854.5,-43 854.5,-49 854.5,-49 854.5,-61 854.5,-61 854.5,-67 848.5,-73 842.5,-73"/>
<text text-anchor="middle" x="747" y="-51.9" font-family="sans" font-size="12.00" fill="#c4c7c7">Lagrange Interpolation Polynomial</text>
</a>
</g>
</g>
<!-- Lagrange Interpolation Problem&#45;&gt;Lagrange Interpolation Polynomial -->
<g id="edge12" class="edge">
<title>Lagrange Interpolation Problem&#45;&gt;Lagrange Interpolation Polynomial</title>
<path fill="none" stroke="#ffffff" d="M563.37,-66.28C588.24,-64.74 614.65,-63.11 639.42,-61.58"/>
<polygon fill="#ffffff" stroke="#ffffff" points="562.95,-62.8 553.19,-66.91 563.39,-69.78 562.95,-62.8"/>
</g>
<!-- The Lagrange Interpolation Polynomial of a Polynomial is itself -->
<g id="node9" class="node">
<title>The Lagrange Interpolation Polynomial of a Polynomial is itself</title>
<g id="a_node9"><a xlink:href="../The Lagrange Interpolation Polynomial of a Polynomial is itself.html" xlink:title="The Lagrange Interpolation Polynomial of a Polynomial is itself" target="_parent">
<path fill="none" stroke="#b75867" d="M921,-184C921,-184 573,-184 573,-184 567,-184 561,-178 561,-172 561,-172 561,-160 561,-160 561,-154 567,-148 573,-148 573,-148 921,-148 921,-148 927,-148 933,-154 933,-160 933,-160 933,-172 933,-172 933,-178 927,-184 921,-184"/>
<text text-anchor="middle" x="747" y="-162.9" font-family="sans" font-size="12.00" fill="#c4c7c7">The Lagrange Interpolation Polynomial of a Polynomial is itself</text>
</a>
</g>
</g>
<!-- Lagrange Interpolation Problem&#45;&gt;The Lagrange Interpolation Polynomial of a Polynomial is itself -->
<g id="edge13" class="edge">
<title>Lagrange Interpolation Problem&#45;&gt;The Lagrange Interpolation Polynomial of a Polynomial is itself</title>
<path fill="none" stroke="#ffffff" d="M483.19,-97.59C503.53,-113.59 532.23,-133.39 561,-144 564.79,-145.4 568.66,-146.71 572.58,-147.95"/>
<polygon fill="#ffffff" stroke="#ffffff" points="485.26,-94.77 475.28,-91.23 480.87,-100.22 485.26,-94.77"/>
</g>
</g>
</svg>
