<?xml version="1.0" encoding="UTF-8" standalone="no"?>
<!DOCTYPE svg PUBLIC "-//W3C//DTD SVG 1.1//EN"
 "http://www.w3.org/Graphics/SVG/1.1/DTD/svg11.dtd">
<!-- Generated by graphviz version 2.44.0 (0)
 -->
<!-- Title: Function Approximation Pages: 1 -->
<svg width="691pt" height="188pt"
 viewBox="0.00 0.00 690.91 188.00" xmlns="http://www.w3.org/2000/svg" xmlns:xlink="http://www.w3.org/1999/xlink">
<g id="page0,1_graph0" class="graph" transform="scale(1 1) rotate(0) translate(4 184)">
<title>Function Approximation</title>
<polygon fill="#132020" stroke="transparent" points="-4,4 -4,-184 686.91,-184 686.91,4 -4,4"/>
<!-- Function Approximation -->
<g id="node1" class="node">
<title>Function Approximation</title>
<g id="a_node1"><a xlink:href="../Function Approximation.html" xlink:title="Function Approximation" target="_parent">
<path fill="#273434" stroke="#b75867" d="M394,-180C394,-180 265,-180 265,-180 259,-180 253,-174 253,-168 253,-168 253,-156 253,-156 253,-150 259,-144 265,-144 265,-144 394,-144 394,-144 400,-144 406,-150 406,-156 406,-156 406,-168 406,-168 406,-174 400,-180 394,-180"/>
<text text-anchor="middle" x="329.5" y="-158.9" font-family="sans" font-size="12.00" fill="#c4c7c7">Function Approximation</text>
</a>
</g>
</g>
<!-- Metric Criteria -->
<g id="node2" class="node">
<title>Metric Criteria</title>
<g id="a_node2"><a xlink:href="../Metric Criteria.html" xlink:title="Metric Criteria" target="_parent">
<path fill="#273434" stroke="#b75867" d="M83,-108C83,-108 12,-108 12,-108 6,-108 0,-102 0,-96 0,-96 0,-84 0,-84 0,-78 6,-72 12,-72 12,-72 83,-72 83,-72 89,-72 95,-78 95,-84 95,-84 95,-96 95,-96 95,-102 89,-108 83,-108"/>
<text text-anchor="middle" x="47.5" y="-86.9" font-family="sans" font-size="12.00" fill="#c4c7c7">Metric Criteria</text>
</a>
</g>
</g>
<!-- Function Approximation&#45;&gt;Metric Criteria -->
<g id="edge1" class="edge">
<title>Function Approximation&#45;&gt;Metric Criteria</title>
<path fill="none" stroke="#b75867" d="M252.83,-144.31C211.42,-134.99 159.23,-122.76 104.91,-108.31"/>
<polygon fill="#b75867" stroke="#b75867" points="105.66,-104.89 95.1,-105.68 103.85,-111.65 105.66,-104.89"/>
</g>
<!-- Interpolation Criterion -->
<g id="node4" class="node">
<title>Interpolation Criterion</title>
<g id="a_node4"><a xlink:href="../Interpolation Criterion.html" xlink:title="Interpolation Criterion" target="_parent">
<path fill="#273434" stroke="#b75867" d="M244,-108C244,-108 125,-108 125,-108 119,-108 113,-102 113,-96 113,-96 113,-84 113,-84 113,-78 119,-72 125,-72 125,-72 244,-72 244,-72 250,-72 256,-78 256,-84 256,-84 256,-96 256,-96 256,-102 250,-108 244,-108"/>
<text text-anchor="middle" x="184.5" y="-86.9" font-family="sans" font-size="12.00" fill="#c4c7c7">Interpolation Criterion</text>
</a>
</g>
</g>
<!-- Function Approximation&#45;&gt;Interpolation Criterion -->
<g id="edge2" class="edge">
<title>Function Approximation&#45;&gt;Interpolation Criterion</title>
<path fill="none" stroke="#b75867" d="M294.03,-143.88C274.38,-134.39 249.78,-122.51 228.87,-112.42"/>
<polygon fill="#b75867" stroke="#b75867" points="230.38,-109.26 219.86,-108.07 227.34,-115.57 230.38,-109.26"/>
</g>
<!-- Simple Function -->
<g id="node5" class="node">
<title>Simple Function</title>
<g id="a_node5"><a xlink:href="../Simple Function.html" xlink:title="Simple Function" target="_parent">
<path fill="#273434" stroke="#b75867" d="M372.5,-108C372.5,-108 286.5,-108 286.5,-108 280.5,-108 274.5,-102 274.5,-96 274.5,-96 274.5,-84 274.5,-84 274.5,-78 280.5,-72 286.5,-72 286.5,-72 372.5,-72 372.5,-72 378.5,-72 384.5,-78 384.5,-84 384.5,-84 384.5,-96 384.5,-96 384.5,-102 378.5,-108 372.5,-108"/>
<text text-anchor="middle" x="329.5" y="-86.9" font-family="sans" font-size="12.00" fill="#c4c7c7">Simple Function</text>
</a>
</g>
</g>
<!-- Function Approximation&#45;&gt;Simple Function -->
<g id="edge3" class="edge">
<title>Function Approximation&#45;&gt;Simple Function</title>
<path fill="none" stroke="#b75867" d="M329.5,-143.7C329.5,-135.98 329.5,-126.71 329.5,-118.11"/>
<polygon fill="#b75867" stroke="#b75867" points="333,-118.1 329.5,-108.1 326,-118.1 333,-118.1"/>
</g>
<!-- Complex Function -->
<g id="node7" class="node">
<title>Complex Function</title>
<g id="a_node7"><a xlink:href="../Complex Function.html" xlink:title="Complex Function" target="_parent">
<path fill="#273434" stroke="#b75867" d="M510.5,-108C510.5,-108 414.5,-108 414.5,-108 408.5,-108 402.5,-102 402.5,-96 402.5,-96 402.5,-84 402.5,-84 402.5,-78 408.5,-72 414.5,-72 414.5,-72 510.5,-72 510.5,-72 516.5,-72 522.5,-78 522.5,-84 522.5,-84 522.5,-96 522.5,-96 522.5,-102 516.5,-108 510.5,-108"/>
<text text-anchor="middle" x="462.5" y="-86.9" font-family="sans" font-size="12.00" fill="#c4c7c7">Complex Function</text>
</a>
</g>
</g>
<!-- Function Approximation&#45;&gt;Complex Function -->
<g id="edge4" class="edge">
<title>Function Approximation&#45;&gt;Complex Function</title>
<path fill="none" stroke="#b75867" d="M362.04,-143.88C379.75,-134.55 401.85,-122.92 420.82,-112.94"/>
<polygon fill="#b75867" stroke="#b75867" points="422.62,-115.94 429.84,-108.19 419.36,-109.75 422.62,-115.94"/>
</g>
<!-- Numeric Methods -->
<g id="node8" class="node">
<title>Numeric Methods</title>
<g id="a_node8"><a xlink:href="../Numeric Methods.html" xlink:title="Numeric Methods" target="_parent">
<ellipse fill="#273434" stroke="#b75867" cx="611.5" cy="-90" rx="71.32" ry="18"/>
<text text-anchor="middle" x="611.5" y="-86.9" font-family="sans" font-size="12.00" fill="#c4c7c7">Numeric Methods</text>
</a>
</g>
</g>
<!-- Function Approximation&#45;&gt;Numeric Methods -->
<g id="edge7" class="edge">
<title>Function Approximation&#45;&gt;Numeric Methods</title>
<path fill="none" stroke="#ffffff" d="M407.85,-141.55C457.42,-129.25 519.94,-113.73 562.55,-103.15"/>
<polygon fill="#ffffff" stroke="#ffffff" points="406.99,-138.16 398.12,-143.97 408.67,-144.95 406.99,-138.16"/>
</g>
<!-- Metric -->
<g id="node3" class="node">
<title>Metric</title>
<g id="a_node3"><a xlink:href="../Metric.html" xlink:title="Metric" target="_parent">
<path fill="#273434" stroke="#b75867" d="M62.5,-36C62.5,-36 32.5,-36 32.5,-36 26.5,-36 20.5,-30 20.5,-24 20.5,-24 20.5,-12 20.5,-12 20.5,-6 26.5,0 32.5,0 32.5,0 62.5,0 62.5,0 68.5,0 74.5,-6 74.5,-12 74.5,-12 74.5,-24 74.5,-24 74.5,-30 68.5,-36 62.5,-36"/>
<text text-anchor="middle" x="47.5" y="-14.9" font-family="sans" font-size="12.00" fill="#c4c7c7">Metric</text>
</a>
</g>
</g>
<!-- Metric Criteria&#45;&gt;Metric -->
<g id="edge5" class="edge">
<title>Metric Criteria&#45;&gt;Metric</title>
<path fill="none" stroke="#b75867" d="M47.5,-71.7C47.5,-63.98 47.5,-54.71 47.5,-46.11"/>
<polygon fill="#b75867" stroke="#b75867" points="51,-46.1 47.5,-36.1 44,-46.1 51,-46.1"/>
</g>
<!-- SplineGraph -->
<g id="node6" class="node">
<title>SplineGraph</title>
<g id="a_node6"><a xlink:href="../SplineGraph.html" xlink:title="SplineGraph" target="_parent">
<path fill="#273434" stroke="#b75867" d="M361,-36C361,-36 298,-36 298,-36 292,-36 286,-30 286,-24 286,-24 286,-12 286,-12 286,-6 292,0 298,0 298,0 361,0 361,0 367,0 373,-6 373,-12 373,-12 373,-24 373,-24 373,-30 367,-36 361,-36"/>
<text text-anchor="middle" x="329.5" y="-14.9" font-family="sans" font-size="12.00" fill="#c4c7c7">SplineGraph</text>
</a>
</g>
</g>
<!-- Simple Function&#45;&gt;SplineGraph -->
<g id="edge6" class="edge">
<title>Simple Function&#45;&gt;SplineGraph</title>
<path fill="none" stroke="#b75867" d="M329.5,-71.7C329.5,-63.98 329.5,-54.71 329.5,-46.11"/>
<polygon fill="#b75867" stroke="#b75867" points="333,-46.1 329.5,-36.1 326,-46.1 333,-46.1"/>
</g>
</g>
</svg>
