<?xml version="1.0" encoding="UTF-8" standalone="no"?>
<!DOCTYPE svg PUBLIC "-//W3C//DTD SVG 1.1//EN"
 "http://www.w3.org/Graphics/SVG/1.1/DTD/svg11.dtd">
<!-- Generated by graphviz version 2.44.0 (0)
 -->
<!-- Title: Fundamental polynomials of Lagrange Pages: 1 -->
<svg width="946pt" height="192pt"
 viewBox="0.00 0.00 946.00 192.00" xmlns="http://www.w3.org/2000/svg" xmlns:xlink="http://www.w3.org/1999/xlink">
<g id="page0,1_graph0" class="graph" transform="scale(1 1) rotate(0) translate(4 188)">
<title>Fundamental polynomials of Lagrange</title>
<polygon fill="#132020" stroke="transparent" points="-4,4 -4,-188 942,-188 942,4 -4,4"/>
<!-- Fundamental polynomials of Lagrange -->
<g id="node1" class="node">
<title>Fundamental polynomials of Lagrange</title>
<g id="a_node1"><a xlink:href="../Fundamental polynomials of Lagrange.html" xlink:title="Fundamental polynomials of Lagrange" target="_parent">
<path fill="#273434" stroke="#b75867" d="M224,-95C224,-95 12,-95 12,-95 6,-95 0,-89 0,-83 0,-83 0,-71 0,-71 0,-65 6,-59 12,-59 12,-59 224,-59 224,-59 230,-59 236,-65 236,-71 236,-71 236,-83 236,-83 236,-89 230,-95 224,-95"/>
<text text-anchor="middle" x="118" y="-73.9" font-family="sans" font-size="12.00" fill="#c4c7c7">Fundamental polynomials of Lagrange</text>
</a>
</g>
</g>
<!-- Kronecker Delta -->
<g id="node2" class="node">
<title>Kronecker Delta</title>
<g id="a_node2"><a xlink:href="../Kronecker Delta.html" xlink:title="Kronecker Delta" target="_parent">
<path fill="#273434" stroke="#b75867" d="M339,-85C339,-85 256,-85 256,-85 250,-85 244,-79 244,-73 244,-73 244,-61 244,-61 244,-55 250,-49 256,-49 256,-49 339,-49 339,-49 345,-49 351,-55 351,-61 351,-61 351,-73 351,-73 351,-79 345,-85 339,-85"/>
<text text-anchor="middle" x="297.5" y="-63.9" font-family="sans" font-size="12.00" fill="#c4c7c7">Kronecker Delta</text>
</a>
</g>
</g>
<!-- Fundamental polynomials of Lagrange&#45;&gt;Kronecker Delta -->
<g id="edge1" class="edge">
<title>Fundamental polynomials of Lagrange&#45;&gt;Kronecker Delta</title>
<path fill="none" stroke="#b75867" d="M236.41,-70.39C236.56,-70.38 236.71,-70.37 236.87,-70.36"/>
<polygon fill="#b75867" stroke="#b75867" points="233.86,-74.03 243.65,-69.98 233.47,-67.05 233.86,-74.03"/>
</g>
<!-- Lagrange Interpolation Problem -->
<g id="node3" class="node">
<title>Lagrange Interpolation Problem</title>
<g id="a_node3"><a xlink:href="../Lagrange Interpolation Problem.html" xlink:title="Lagrange Interpolation Problem" target="_parent">
<path fill="none" stroke="#b75867" d="M546,-105C546,-105 371,-105 371,-105 365,-105 359,-99 359,-93 359,-93 359,-81 359,-81 359,-75 365,-69 371,-69 371,-69 546,-69 546,-69 552,-69 558,-75 558,-81 558,-81 558,-93 558,-93 558,-99 552,-105 546,-105"/>
<text text-anchor="middle" x="458.5" y="-83.9" font-family="sans" font-size="12.00" fill="#c4c7c7">Lagrange Interpolation Problem</text>
</a>
</g>
</g>
<!-- Fundamental polynomials of Lagrange&#45;&gt;Lagrange Interpolation Problem -->
<g id="edge2" class="edge">
<title>Fundamental polynomials of Lagrange&#45;&gt;Lagrange Interpolation Problem</title>
<path fill="none" stroke="#ffffff" d="M246.15,-82.06C287.61,-83.34 325.44,-84.28 358.9,-85.03"/>
<polygon fill="#ffffff" stroke="#ffffff" points="246.21,-78.56 236.1,-81.74 245.99,-85.56 246.21,-78.56"/>
</g>
<!-- Kronecker Delta&#45;&gt;Fundamental polynomials of Lagrange -->
<g id="edge3" class="edge">
<title>Kronecker Delta&#45;&gt;Fundamental polynomials of Lagrange</title>
<path fill="none" stroke="#ffffff" d="M236.87,-71.07C236.71,-71.08 236.56,-71.09 236.41,-71.1"/>
<polygon fill="#ffffff" stroke="#ffffff" points="233.87,-74.76 243.65,-70.67 233.46,-67.77 233.87,-74.76"/>
</g>
<!-- Kronecker Delta&#45;&gt;Lagrange Interpolation Problem -->
<g id="edge6" class="edge">
<title>Kronecker Delta&#45;&gt;Lagrange Interpolation Problem</title>
<path fill="none" stroke="#ffffff" d="M358.74,-74.58C358.82,-74.59 358.91,-74.6 358.99,-74.61"/>
<polygon fill="#ffffff" stroke="#ffffff" points="361.36,-71.38 351,-73.6 360.49,-78.32 361.36,-71.38"/>
</g>
<!-- Linear Algebra -->
<g id="node4" class="node">
<title>Linear Algebra</title>
<g id="a_node4"><a xlink:href="../Linear Algebra.html" xlink:title="Linear Algebra" target="_parent">
<path fill="none" stroke="#b75867" d="M495.5,-68C495.5,-68 421.5,-68 421.5,-68 415.5,-68 409.5,-62 409.5,-56 409.5,-56 409.5,-44 409.5,-44 409.5,-38 415.5,-32 421.5,-32 421.5,-32 495.5,-32 495.5,-32 501.5,-32 507.5,-38 507.5,-44 507.5,-44 507.5,-56 507.5,-56 507.5,-62 501.5,-68 495.5,-68"/>
<text text-anchor="middle" x="458.5" y="-46.9" font-family="sans" font-size="12.00" fill="#c4c7c7">Linear Algebra</text>
</a>
</g>
</g>
<!-- Kronecker Delta&#45;&gt;Linear Algebra -->
<g id="edge4" class="edge">
<title>Kronecker Delta&#45;&gt;Linear Algebra</title>
<path fill="none" stroke="#ffffff" d="M361.34,-60.28C377.32,-58.57 394.23,-56.76 409.35,-55.15"/>
<polygon fill="#ffffff" stroke="#ffffff" points="360.57,-56.84 351,-61.39 361.32,-63.8 360.57,-56.84"/>
</g>
<!-- Formula of Lagrange for Interpolation -->
<g id="node5" class="node">
<title>Formula of Lagrange for Interpolation</title>
<g id="a_node5"><a xlink:href="../Formula of Lagrange for Interpolation.html" xlink:title="Formula of Lagrange for Interpolation" target="_parent">
<path fill="none" stroke="#b75867" d="M855.5,-36C855.5,-36 648.5,-36 648.5,-36 642.5,-36 636.5,-30 636.5,-24 636.5,-24 636.5,-12 636.5,-12 636.5,-6 642.5,0 648.5,0 648.5,0 855.5,0 855.5,0 861.5,0 867.5,-6 867.5,-12 867.5,-12 867.5,-24 867.5,-24 867.5,-30 861.5,-36 855.5,-36"/>
<text text-anchor="middle" x="752" y="-14.9" font-family="sans" font-size="12.00" fill="#c4c7c7">Formula of Lagrange for Interpolation</text>
</a>
</g>
</g>
<!-- Kronecker Delta&#45;&gt;Formula of Lagrange for Interpolation -->
<g id="edge5" class="edge">
<title>Kronecker Delta&#45;&gt;Formula of Lagrange for Interpolation</title>
<path fill="none" stroke="#ffffff" d="M331.14,-43.55C339.8,-38.48 349.42,-33.81 359,-31 449.51,-4.49 556.82,-2.86 636.26,-6.95"/>
<polygon fill="#ffffff" stroke="#ffffff" points="329.15,-40.67 322.5,-48.92 332.84,-46.62 329.15,-40.67"/>
</g>
<!-- Lagrange Interpolation Problem&#45;&gt;Fundamental polynomials of Lagrange -->
<g id="edge9" class="edge">
<title>Lagrange Interpolation Problem&#45;&gt;Fundamental polynomials of Lagrange</title>
<path fill="none" stroke="#b75867" d="M358.9,-85.97C325.44,-85.28 287.61,-84.34 246.15,-83.06"/>
<polygon fill="#b75867" stroke="#b75867" points="246.21,-79.56 236.1,-82.74 245.99,-86.56 246.21,-79.56"/>
</g>
<!-- Lagrange Interpolation Problem&#45;&gt;Kronecker Delta -->
<g id="edge7" class="edge">
<title>Lagrange Interpolation Problem&#45;&gt;Kronecker Delta</title>
<path fill="none" stroke="#b75867" d="M358.99,-75.34C358.91,-75.33 358.82,-75.32 358.74,-75.31"/>
<polygon fill="#b75867" stroke="#b75867" points="361.37,-72.12 351,-74.31 360.48,-79.06 361.37,-72.12"/>
</g>
<!-- Lagrange Interpolation Problem&#45;&gt;Formula of Lagrange for Interpolation -->
<g id="edge8" class="edge">
<title>Lagrange Interpolation Problem&#45;&gt;Formula of Lagrange for Interpolation</title>
<path fill="none" stroke="#b75867" d="M553.56,-68.69C555.09,-67.53 556.58,-66.3 558,-65 566.61,-57.13 557,-47.42 566,-40 583.09,-25.9 604.29,-17.77 626.16,-13.43"/>
<polygon fill="#b75867" stroke="#b75867" points="626.99,-16.84 636.25,-11.69 625.8,-9.94 626.99,-16.84"/>
</g>
<!-- Fundamental Theorem of Algebra -->
<g id="node6" class="node">
<title>Fundamental Theorem of Algebra</title>
<g id="a_node6"><a xlink:href="../Fundamental Theorem of Algebra.html" xlink:title="Fundamental Theorem of Algebra" target="_parent">
<path fill="#273434" stroke="#b75867" d="M844.5,-184C844.5,-184 659.5,-184 659.5,-184 653.5,-184 647.5,-178 647.5,-172 647.5,-172 647.5,-160 647.5,-160 647.5,-154 653.5,-148 659.5,-148 659.5,-148 844.5,-148 844.5,-148 850.5,-148 856.5,-154 856.5,-160 856.5,-160 856.5,-172 856.5,-172 856.5,-178 850.5,-184 844.5,-184"/>
<text text-anchor="middle" x="752" y="-162.9" font-family="sans" font-size="12.00" fill="#c4c7c7">Fundamental Theorem of Algebra</text>
</a>
</g>
</g>
<!-- Lagrange Interpolation Problem&#45;&gt;Fundamental Theorem of Algebra -->
<g id="edge10" class="edge">
<title>Lagrange Interpolation Problem&#45;&gt;Fundamental Theorem of Algebra</title>
<path fill="none" stroke="#b75867" d="M486.71,-105.25C507.52,-118.27 537.39,-135 566,-144 588.54,-151.09 613.29,-155.93 637.14,-159.22"/>
<polygon fill="#b75867" stroke="#b75867" points="636.93,-162.72 647.3,-160.54 637.83,-155.78 636.93,-162.72"/>
</g>
<!-- Lagrange Interpolation -->
<g id="node7" class="node">
<title>Lagrange Interpolation</title>
<g id="a_node7"><a xlink:href="../Lagrange Interpolation.html" xlink:title="Lagrange Interpolation" target="_parent">
<path fill="none" stroke="#b75867" d="M813.5,-147C813.5,-147 690.5,-147 690.5,-147 684.5,-147 678.5,-141 678.5,-135 678.5,-135 678.5,-123 678.5,-123 678.5,-117 684.5,-111 690.5,-111 690.5,-111 813.5,-111 813.5,-111 819.5,-111 825.5,-117 825.5,-123 825.5,-123 825.5,-135 825.5,-135 825.5,-141 819.5,-147 813.5,-147"/>
<text text-anchor="middle" x="752" y="-125.9" font-family="sans" font-size="12.00" fill="#c4c7c7">Lagrange Interpolation</text>
</a>
</g>
</g>
<!-- Lagrange Interpolation Problem&#45;&gt;Lagrange Interpolation -->
<g id="edge11" class="edge">
<title>Lagrange Interpolation Problem&#45;&gt;Lagrange Interpolation</title>
<path fill="none" stroke="#ffffff" d="M563.69,-106.64C564.46,-106.76 565.23,-106.88 566,-107 602.93,-112.66 644.19,-117.69 678.36,-121.51"/>
<polygon fill="#ffffff" stroke="#ffffff" points="563.95,-103.14 553.52,-105.01 562.84,-110.05 563.95,-103.14"/>
</g>
<!-- Lagrange Interpolation Polynomial -->
<g id="node8" class="node">
<title>Lagrange Interpolation Polynomial</title>
<g id="a_node8"><a xlink:href="../Lagrange Interpolation Polynomial.html" xlink:title="Lagrange Interpolation Polynomial" target="_parent">
<path fill="none" stroke="#b75867" d="M847.5,-110C847.5,-110 656.5,-110 656.5,-110 650.5,-110 644.5,-104 644.5,-98 644.5,-98 644.5,-86 644.5,-86 644.5,-80 650.5,-74 656.5,-74 656.5,-74 847.5,-74 847.5,-74 853.5,-74 859.5,-80 859.5,-86 859.5,-86 859.5,-98 859.5,-98 859.5,-104 853.5,-110 847.5,-110"/>
<text text-anchor="middle" x="752" y="-88.9" font-family="sans" font-size="12.00" fill="#c4c7c7">Lagrange Interpolation Polynomial</text>
</a>
</g>
</g>
<!-- Lagrange Interpolation Problem&#45;&gt;Lagrange Interpolation Polynomial -->
<g id="edge12" class="edge">
<title>Lagrange Interpolation Problem&#45;&gt;Lagrange Interpolation Polynomial</title>
<path fill="none" stroke="#ffffff" d="M568.37,-88.87C593.24,-89.29 619.65,-89.75 644.42,-90.17"/>
<polygon fill="#ffffff" stroke="#ffffff" points="568.25,-85.36 558.19,-88.69 568.13,-92.36 568.25,-85.36"/>
</g>
<!-- The Lagrange Interpolation Polynomial of a Polynomial is itself -->
<g id="node9" class="node">
<title>The Lagrange Interpolation Polynomial of a Polynomial is itself</title>
<g id="a_node9"><a xlink:href="../The Lagrange Interpolation Polynomial of a Polynomial is itself.html" xlink:title="The Lagrange Interpolation Polynomial of a Polynomial is itself" target="_parent">
<path fill="none" stroke="#b75867" d="M926,-73C926,-73 578,-73 578,-73 572,-73 566,-67 566,-61 566,-61 566,-49 566,-49 566,-43 572,-37 578,-37 578,-37 926,-37 926,-37 932,-37 938,-43 938,-49 938,-49 938,-61 938,-61 938,-67 932,-73 926,-73"/>
<text text-anchor="middle" x="752" y="-51.9" font-family="sans" font-size="12.00" fill="#c4c7c7">The Lagrange Interpolation Polynomial of a Polynomial is itself</text>
</a>
</g>
</g>
<!-- Lagrange Interpolation Problem&#45;&gt;The Lagrange Interpolation Polynomial of a Polynomial is itself -->
<g id="edge13" class="edge">
<title>Lagrange Interpolation Problem&#45;&gt;The Lagrange Interpolation Polynomial of a Polynomial is itself</title>
<path fill="none" stroke="#ffffff" d="M568.35,-75.05C574.45,-74.38 580.64,-73.7 586.87,-73.02"/>
<polygon fill="#ffffff" stroke="#ffffff" points="567.75,-71.6 558.19,-76.17 568.51,-78.55 567.75,-71.6"/>
</g>
</g>
</svg>
