<?xml version="1.0" encoding="UTF-8" standalone="no"?>
<!DOCTYPE svg PUBLIC "-//W3C//DTD SVG 1.1//EN"
 "http://www.w3.org/Graphics/SVG/1.1/DTD/svg11.dtd">
<!-- Generated by graphviz version 2.44.0 (0)
 -->
<!-- Title: Fundamental polynomials of Lagrange Pages: 1 -->
<svg width="695pt" height="188pt"
 viewBox="0.00 0.00 694.70 188.00" xmlns="http://www.w3.org/2000/svg" xmlns:xlink="http://www.w3.org/1999/xlink">
<g id="page0,1_graph0" class="graph" transform="scale(1 1) rotate(0) translate(4 184)">
<title>Fundamental polynomials of Lagrange</title>
<polygon fill="#132020" stroke="transparent" points="-4,4 -4,-184 690.7,-184 690.7,4 -4,4"/>
<!-- Fundamental polynomials of Lagrange -->
<g id="node1" class="node">
<title>Fundamental polynomials of Lagrange</title>
<g id="a_node1"><a xlink:title="Fundamental polynomials of Lagrange">
<path fill="#273434" stroke="#b75867" d="M328.5,-180C328.5,-180 116.5,-180 116.5,-180 110.5,-180 104.5,-174 104.5,-168 104.5,-168 104.5,-156 104.5,-156 104.5,-150 110.5,-144 116.5,-144 116.5,-144 328.5,-144 328.5,-144 334.5,-144 340.5,-150 340.5,-156 340.5,-156 340.5,-168 340.5,-168 340.5,-174 334.5,-180 328.5,-180"/>
<text text-anchor="middle" x="222.5" y="-158.9" font-family="sans" font-size="12.00" fill="#c4c7c7">Fundamental polynomials of Lagrange</text>
</a>
</g>
</g>
<!-- Kronecker Delta -->
<g id="node2" class="node">
<title>Kronecker Delta</title>
<g id="a_node2"><a xlink:title="Kronecker Delta">
<path fill="#273434" stroke="#b75867" d="M335,-108C335,-108 252,-108 252,-108 246,-108 240,-102 240,-96 240,-96 240,-84 240,-84 240,-78 246,-72 252,-72 252,-72 335,-72 335,-72 341,-72 347,-78 347,-84 347,-84 347,-96 347,-96 347,-102 341,-108 335,-108"/>
<text text-anchor="middle" x="293.5" y="-86.9" font-family="sans" font-size="12.00" fill="#c4c7c7">Kronecker Delta</text>
</a>
</g>
</g>
<!-- Fundamental polynomials of Lagrange&#45;&gt;Kronecker Delta -->
<g id="edge1" class="edge">
<title>Fundamental polynomials of Lagrange&#45;&gt;Kronecker Delta</title>
<path fill="none" stroke="#b75867" d="M240.05,-143.7C248.74,-135.14 259.36,-124.66 268.85,-115.3"/>
<polygon fill="#b75867" stroke="#b75867" points="271.49,-117.62 276.15,-108.1 266.57,-112.63 271.49,-117.62"/>
</g>
<!-- Lagrange Interpolation Problem -->
<g id="node3" class="node">
<title>Lagrange Interpolation Problem</title>
<g id="a_node3"><a xlink:title="Lagrange Interpolation Problem">
<ellipse fill="#273434" stroke="#b75867" cx="122.5" cy="-18" rx="122.5" ry="18"/>
<text text-anchor="middle" x="122.5" y="-14.9" font-family="sans" font-size="12.00" fill="#c4c7c7">Lagrange Interpolation Problem</text>
</a>
</g>
</g>
<!-- Fundamental polynomials of Lagrange&#45;&gt;Lagrange Interpolation Problem -->
<g id="edge2" class="edge">
<title>Fundamental polynomials of Lagrange&#45;&gt;Lagrange Interpolation Problem</title>
<path fill="none" stroke="#ffffff" d="M204.59,-135.56C184.37,-106.86 152.05,-60.96 134.61,-36.19"/>
<polygon fill="#ffffff" stroke="#ffffff" points="201.82,-137.71 210.44,-143.87 207.54,-133.68 201.82,-137.71"/>
</g>
<!-- Kronecker Delta&#45;&gt;Lagrange Interpolation Problem -->
<g id="edge5" class="edge">
<title>Kronecker Delta&#45;&gt;Lagrange Interpolation Problem</title>
<path fill="none" stroke="#ffffff" d="M242.41,-68.09C216.61,-57.52 185.78,-44.9 161.85,-35.11"/>
<polygon fill="#ffffff" stroke="#ffffff" points="241.09,-71.33 251.67,-71.88 243.74,-64.85 241.09,-71.33"/>
</g>
<!-- Linear Algebra -->
<g id="node4" class="node">
<title>Linear Algebra</title>
<g id="a_node4"><a xlink:title="Linear Algebra">
<ellipse fill="#273434" stroke="#b75867" cx="323.5" cy="-18" rx="60.16" ry="18"/>
<text text-anchor="middle" x="323.5" y="-14.9" font-family="sans" font-size="12.00" fill="#c4c7c7">Linear Algebra</text>
</a>
</g>
</g>
<!-- Kronecker Delta&#45;&gt;Linear Algebra -->
<g id="edge3" class="edge">
<title>Kronecker Delta&#45;&gt;Linear Algebra</title>
<path fill="none" stroke="#ffffff" d="M304.97,-62.23C308.73,-53.46 312.8,-43.96 316.17,-36.1"/>
<polygon fill="#ffffff" stroke="#ffffff" points="301.64,-61.13 300.92,-71.7 308.07,-63.88 301.64,-61.13"/>
</g>
<!-- Formula of Lagrange for Interpolation -->
<g id="node5" class="node">
<title>Formula of Lagrange for Interpolation</title>
<g id="a_node5"><a xlink:title="Formula of Lagrange for Interpolation">
<ellipse fill="#273434" stroke="#b75867" cx="544.5" cy="-18" rx="142.4" ry="18"/>
<text text-anchor="middle" x="544.5" y="-14.9" font-family="sans" font-size="12.00" fill="#c4c7c7">Formula of Lagrange for Interpolation</text>
</a>
</g>
</g>
<!-- Kronecker Delta&#45;&gt;Formula of Lagrange for Interpolation -->
<g id="edge4" class="edge">
<title>Kronecker Delta&#45;&gt;Formula of Lagrange for Interpolation</title>
<path fill="none" stroke="#ffffff" d="M356.81,-71.34C397.33,-60.04 449.42,-45.52 488.44,-34.64"/>
<polygon fill="#ffffff" stroke="#ffffff" points="355.73,-68.01 347.04,-74.07 357.61,-74.75 355.73,-68.01"/>
</g>
</g>
</svg>
