<?xml version="1.0" encoding="UTF-8" standalone="no"?>
<!DOCTYPE svg PUBLIC "-//W3C//DTD SVG 1.1//EN"
 "http://www.w3.org/Graphics/SVG/1.1/DTD/svg11.dtd">
<!-- Generated by graphviz version 2.44.0 (0)
 -->
<!-- Title: Fundamental extremal property of Chebyshev polynomials Pages: 1 -->
<svg width="357pt" height="188pt"
 viewBox="0.00 0.00 357.00 188.00" xmlns="http://www.w3.org/2000/svg" xmlns:xlink="http://www.w3.org/1999/xlink">
<g id="page0,1_graph0" class="graph" transform="scale(1 1) rotate(0) translate(4 184)">
<title>Fundamental extremal property of Chebyshev polynomials</title>
<polygon fill="#132020" stroke="transparent" points="-4,4 -4,-184 353,-184 353,4 -4,4"/>
<!-- Fundamental extremal property of Chebyshev polynomials -->
<g id="node1" class="node">
<title>Fundamental extremal property of Chebyshev polynomials</title>
<g id="a_node1"><a xlink:href="../Fundamental extremal property of Chebyshev polynomials.html" xlink:title="Fundamental extremal property of Chebyshev polynomials" target="_parent">
<path fill="#273434" stroke="#b75867" d="M337,-180C337,-180 12,-180 12,-180 6,-180 0,-174 0,-168 0,-168 0,-156 0,-156 0,-150 6,-144 12,-144 12,-144 337,-144 337,-144 343,-144 349,-150 349,-156 349,-156 349,-168 349,-168 349,-174 343,-180 337,-180"/>
<text text-anchor="middle" x="174.5" y="-158.9" font-family="sans" font-size="12.00" fill="#c4c7c7">Fundamental extremal property of Chebyshev polynomials</text>
</a>
</g>
</g>
<!-- Extreme points of Chebyshev polynomials -->
<g id="node2" class="node">
<title>Extreme points of Chebyshev polynomials</title>
<g id="a_node2"><a xlink:href="../Extreme points of Chebyshev polynomials.html" xlink:title="Extreme points of Chebyshev polynomials" target="_parent">
<path fill="#273434" stroke="#b75867" d="M288.5,-108C288.5,-108 60.5,-108 60.5,-108 54.5,-108 48.5,-102 48.5,-96 48.5,-96 48.5,-84 48.5,-84 48.5,-78 54.5,-72 60.5,-72 60.5,-72 288.5,-72 288.5,-72 294.5,-72 300.5,-78 300.5,-84 300.5,-84 300.5,-96 300.5,-96 300.5,-102 294.5,-108 288.5,-108"/>
<text text-anchor="middle" x="174.5" y="-86.9" font-family="sans" font-size="12.00" fill="#c4c7c7">Extreme points of Chebyshev polynomials</text>
</a>
</g>
</g>
<!-- Fundamental extremal property of Chebyshev polynomials&#45;&gt;Extreme points of Chebyshev polynomials -->
<g id="edge1" class="edge">
<title>Fundamental extremal property of Chebyshev polynomials&#45;&gt;Extreme points of Chebyshev polynomials</title>
<path fill="none" stroke="#b75867" d="M174.5,-143.7C174.5,-135.98 174.5,-126.71 174.5,-118.11"/>
<polygon fill="#b75867" stroke="#b75867" points="178,-118.1 174.5,-108.1 171,-118.1 178,-118.1"/>
</g>
<!-- Chebyshev Polynomial -->
<g id="node3" class="node">
<title>Chebyshev Polynomial</title>
<g id="a_node3"><a xlink:href="../Chebyshev Polynomial.html" xlink:title="Chebyshev Polynomial" target="_parent">
<path fill="#273434" stroke="#b75867" d="M235,-36C235,-36 114,-36 114,-36 108,-36 102,-30 102,-24 102,-24 102,-12 102,-12 102,-6 108,0 114,0 114,0 235,0 235,0 241,0 247,-6 247,-12 247,-12 247,-24 247,-24 247,-30 241,-36 235,-36"/>
<text text-anchor="middle" x="174.5" y="-14.9" font-family="sans" font-size="12.00" fill="#c4c7c7">Chebyshev Polynomial</text>
</a>
</g>
</g>
<!-- Extreme points of Chebyshev polynomials&#45;&gt;Chebyshev Polynomial -->
<g id="edge2" class="edge">
<title>Extreme points of Chebyshev polynomials&#45;&gt;Chebyshev Polynomial</title>
<path fill="none" stroke="#b75867" d="M174.5,-71.7C174.5,-63.98 174.5,-54.71 174.5,-46.11"/>
<polygon fill="#b75867" stroke="#b75867" points="178,-46.1 174.5,-36.1 171,-46.1 178,-46.1"/>
</g>
</g>
</svg>
