<?xml version="1.0" encoding="UTF-8" standalone="no"?>
<!DOCTYPE svg PUBLIC "-//W3C//DTD SVG 1.1//EN"
 "http://www.w3.org/Graphics/SVG/1.1/DTD/svg11.dtd">
<!-- Generated by graphviz version 2.44.0 (0)
 -->
<!-- Title: index Pages: 1 -->
<svg width="622pt" height="188pt"
 viewBox="0.00 0.00 621.78 188.00" xmlns="http://www.w3.org/2000/svg" xmlns:xlink="http://www.w3.org/1999/xlink">
<g id="page0,1_graph0" class="graph" transform="scale(1 1) rotate(0) translate(4 184)">
<title>index</title>
<polygon fill="#132020" stroke="transparent" points="-4,4 -4,-184 617.78,-184 617.78,4 -4,4"/>
<!-- index -->
<g id="node1" class="node">
<title>index</title>
<g id="a_node1"><a xlink:href="../index.html" xlink:title="index" target="_parent">
<path fill="#273434" stroke="#b75867" d="M461,-180C461,-180 431,-180 431,-180 425,-180 419,-174 419,-168 419,-168 419,-156 419,-156 419,-150 425,-144 431,-144 431,-144 461,-144 461,-144 467,-144 473,-150 473,-156 473,-156 473,-168 473,-168 473,-174 467,-180 461,-180"/>
<text text-anchor="middle" x="446" y="-158.9" font-family="sans" font-size="12.00" fill="#c4c7c7">index</text>
</a>
</g>
</g>
<!-- Subjects -->
<g id="node2" class="node">
<title>Subjects</title>
<g id="a_node2"><a xlink:href="../Subjects.html" xlink:title="Subjects" target="_parent">
<path fill="#273434" stroke="#b75867" d="M423.5,-108C423.5,-108 382.5,-108 382.5,-108 376.5,-108 370.5,-102 370.5,-96 370.5,-96 370.5,-84 370.5,-84 370.5,-78 376.5,-72 382.5,-72 382.5,-72 423.5,-72 423.5,-72 429.5,-72 435.5,-78 435.5,-84 435.5,-84 435.5,-96 435.5,-96 435.5,-102 429.5,-108 423.5,-108"/>
<text text-anchor="middle" x="403" y="-86.9" font-family="sans" font-size="12.00" fill="#c4c7c7">Subjects</text>
</a>
</g>
</g>
<!-- index&#45;&gt;Subjects -->
<g id="edge1" class="edge">
<title>index&#45;&gt;Subjects</title>
<path fill="none" stroke="#b75867" d="M435.37,-143.7C430.37,-135.56 424.31,-125.69 418.79,-116.7"/>
<polygon fill="#b75867" stroke="#b75867" points="421.72,-114.79 413.51,-108.1 415.76,-118.46 421.72,-114.79"/>
</g>
<!-- Org Roam -->
<g id="node7" class="node">
<title>Org Roam</title>
<g id="a_node7"><a xlink:href="../Org Roam.html" xlink:title="Org Roam" target="_parent">
<path fill="#273434" stroke="#b75867" d="M556,-108C556,-108 508,-108 508,-108 502,-108 496,-102 496,-96 496,-96 496,-84 496,-84 496,-78 502,-72 508,-72 508,-72 556,-72 556,-72 562,-72 568,-78 568,-84 568,-84 568,-96 568,-96 568,-102 562,-108 556,-108"/>
<text text-anchor="middle" x="532" y="-86.9" font-family="sans" font-size="12.00" fill="#c4c7c7">Org Roam</text>
</a>
</g>
</g>
<!-- index&#45;&gt;Org Roam -->
<g id="edge2" class="edge">
<title>index&#45;&gt;Org Roam</title>
<path fill="none" stroke="#b75867" d="M467.26,-143.7C478.09,-134.88 491.42,-124.03 503.16,-114.47"/>
<polygon fill="#b75867" stroke="#b75867" points="505.44,-117.13 510.99,-108.1 501.02,-111.7 505.44,-117.13"/>
</g>
<!-- Numeric Methods -->
<g id="node3" class="node">
<title>Numeric Methods</title>
<g id="a_node3"><a xlink:href="../Numeric Methods.html" xlink:title="Numeric Methods" target="_parent">
<path fill="#273434" stroke="#b75867" d="M104,-36C104,-36 12,-36 12,-36 6,-36 0,-30 0,-24 0,-24 0,-12 0,-12 0,-6 6,0 12,0 12,0 104,0 104,0 110,0 116,-6 116,-12 116,-12 116,-24 116,-24 116,-30 110,-36 104,-36"/>
<text text-anchor="middle" x="58" y="-14.9" font-family="sans" font-size="12.00" fill="#c4c7c7">Numeric Methods</text>
</a>
</g>
</g>
<!-- Subjects&#45;&gt;Numeric Methods -->
<g id="edge3" class="edge">
<title>Subjects&#45;&gt;Numeric Methods</title>
<path fill="none" stroke="#b75867" d="M370.34,-83.43C320.04,-74.71 220.37,-56.87 126.05,-36.17"/>
<polygon fill="#b75867" stroke="#b75867" points="126.57,-32.7 116.05,-33.96 125.06,-39.53 126.57,-32.7"/>
</g>
<!-- Discrete Structures -->
<g id="node4" class="node">
<title>Discrete Structures</title>
<g id="a_node4"><a xlink:href="../Discrete Structures.html" xlink:title="Discrete Structures" target="_parent">
<path fill="#273434" stroke="#b75867" d="M244,-36C244,-36 146,-36 146,-36 140,-36 134,-30 134,-24 134,-24 134,-12 134,-12 134,-6 140,0 146,0 146,0 244,0 244,0 250,0 256,-6 256,-12 256,-12 256,-24 256,-24 256,-30 250,-36 244,-36"/>
<text text-anchor="middle" x="195" y="-14.9" font-family="sans" font-size="12.00" fill="#c4c7c7">Discrete Structures</text>
</a>
</g>
</g>
<!-- Subjects&#45;&gt;Discrete Structures -->
<g id="edge4" class="edge">
<title>Subjects&#45;&gt;Discrete Structures</title>
<path fill="none" stroke="#b75867" d="M370.04,-77.91C339.34,-67.57 292.81,-51.92 255.44,-39.34"/>
<polygon fill="#b75867" stroke="#b75867" points="256.25,-35.92 245.65,-36.05 254.02,-42.55 256.25,-35.92"/>
</g>
<!-- Differential Analysis -->
<g id="node5" class="node">
<title>Differential Analysis</title>
<g id="a_node5"><a xlink:href="../Differential Analysis.html" xlink:title="Differential Analysis" target="_parent">
<path fill="#273434" stroke="#b75867" d="M389.5,-36C389.5,-36 286.5,-36 286.5,-36 280.5,-36 274.5,-30 274.5,-24 274.5,-24 274.5,-12 274.5,-12 274.5,-6 280.5,0 286.5,0 286.5,0 389.5,0 389.5,0 395.5,0 401.5,-6 401.5,-12 401.5,-12 401.5,-24 401.5,-24 401.5,-30 395.5,-36 389.5,-36"/>
<text text-anchor="middle" x="338" y="-14.9" font-family="sans" font-size="12.00" fill="#c4c7c7">Differential Analysis</text>
</a>
</g>
</g>
<!-- Subjects&#45;&gt;Differential Analysis -->
<g id="edge5" class="edge">
<title>Subjects&#45;&gt;Differential Analysis</title>
<path fill="none" stroke="#b75867" d="M386.93,-71.7C379.06,-63.22 369.44,-52.86 360.83,-43.58"/>
<polygon fill="#b75867" stroke="#b75867" points="363.25,-41.05 353.88,-36.1 358.12,-45.81 363.25,-41.05"/>
</g>
<!-- Linear Algebra -->
<g id="node6" class="node">
<title>Linear Algebra</title>
<g id="a_node6"><a xlink:href="../Linear Algebra.html" xlink:title="Linear Algebra" target="_parent">
<path fill="#273434" stroke="#b75867" d="M506,-36C506,-36 432,-36 432,-36 426,-36 420,-30 420,-24 420,-24 420,-12 420,-12 420,-6 426,0 432,0 432,0 506,0 506,0 512,0 518,-6 518,-12 518,-12 518,-24 518,-24 518,-30 512,-36 506,-36"/>
<text text-anchor="middle" x="469" y="-14.9" font-family="sans" font-size="12.00" fill="#c4c7c7">Linear Algebra</text>
</a>
</g>
</g>
<!-- Subjects&#45;&gt;Linear Algebra -->
<g id="edge6" class="edge">
<title>Subjects&#45;&gt;Linear Algebra</title>
<path fill="none" stroke="#b75867" d="M419.31,-71.7C427.31,-63.22 437.07,-52.86 445.82,-43.58"/>
<polygon fill="#b75867" stroke="#b75867" points="448.56,-45.78 452.87,-36.1 443.47,-40.98 448.56,-45.78"/>
</g>
<!-- README -->
<g id="node8" class="node">
<title>README</title>
<g id="a_node8"><a xlink:href="../README.html" xlink:title="README" target="_parent">
<ellipse fill="#273434" stroke="#b75867" cx="575" cy="-18" rx="38.57" ry="18"/>
<text text-anchor="middle" x="575" y="-14.9" font-family="sans" font-size="12.00" fill="#c4c7c7">README</text>
</a>
</g>
</g>
<!-- Subjects&#45;&gt;README -->
<g id="edge7" class="edge">
<title>Subjects&#45;&gt;README</title>
<path fill="none" stroke="#ffffff" d="M445.21,-71.82C476.87,-58.94 519.32,-41.66 546.92,-30.43"/>
<polygon fill="#ffffff" stroke="#ffffff" points="443.7,-68.66 435.76,-75.67 446.34,-75.14 443.7,-68.66"/>
</g>
<!-- Org Roam&#45;&gt;README -->
<g id="edge8" class="edge">
<title>Org Roam&#45;&gt;README</title>
<path fill="none" stroke="#ffffff" d="M548.01,-62.94C553.62,-53.8 559.78,-43.78 564.79,-35.62"/>
<polygon fill="#ffffff" stroke="#ffffff" points="544.88,-61.34 542.63,-71.7 550.85,-65.01 544.88,-61.34"/>
</g>
</g>
</svg>
