<?xml version="1.0" encoding="UTF-8" standalone="no"?>
<!DOCTYPE svg PUBLIC "-//W3C//DTD SVG 1.1//EN"
 "http://www.w3.org/Graphics/SVG/1.1/DTD/svg11.dtd">
<!-- Generated by graphviz version 2.44.0 (0)
 -->
<!-- Title: Injective function Pages: 1 -->
<svg width="449pt" height="116pt"
 viewBox="0.00 0.00 448.59 116.00" xmlns="http://www.w3.org/2000/svg" xmlns:xlink="http://www.w3.org/1999/xlink">
<g id="page0,1_graph0" class="graph" transform="scale(1 1) rotate(0) translate(4 112)">
<title>Injective function</title>
<polygon fill="#132020" stroke="transparent" points="-4,4 -4,-112 444.59,-112 444.59,4 -4,4"/>
<!-- Injective function -->
<g id="node1" class="node">
<title>Injective function</title>
<g id="a_node1"><a xlink:title="Injective function">
<path fill="#273434" stroke="#b75867" d="M266.41,-108C266.41,-108 176.41,-108 176.41,-108 170.41,-108 164.41,-102 164.41,-96 164.41,-96 164.41,-84 164.41,-84 164.41,-78 170.41,-72 176.41,-72 176.41,-72 266.41,-72 266.41,-72 272.41,-72 278.41,-78 278.41,-84 278.41,-84 278.41,-96 278.41,-96 278.41,-102 272.41,-108 266.41,-108"/>
<text text-anchor="middle" x="221.41" y="-86.9" font-family="sans" font-size="12.00" fill="#c4c7c7">Injective function</text>
</a>
</g>
</g>
<!-- Dirichlet principle -->
<g id="node2" class="node">
<title>Dirichlet principle</title>
<g id="a_node2"><a xlink:title="Dirichlet principle">
<ellipse fill="#273434" stroke="#b75867" cx="71.41" cy="-18" rx="71.32" ry="18"/>
<text text-anchor="middle" x="71.41" y="-14.9" font-family="sans" font-size="12.00" fill="#c4c7c7">Dirichlet principle</text>
</a>
</g>
</g>
<!-- Injective function&#45;&gt;Dirichlet principle -->
<g id="edge1" class="edge">
<title>Injective function&#45;&gt;Dirichlet principle</title>
<path fill="none" stroke="#ffffff" d="M175.43,-67.54C152.3,-56.75 124.81,-43.92 103.9,-34.16"/>
<polygon fill="#ffffff" stroke="#ffffff" points="174.17,-70.82 184.71,-71.88 177.13,-64.48 174.17,-70.82"/>
</g>
<!-- Linear Algebra -->
<g id="node3" class="node">
<title>Linear Algebra</title>
<g id="a_node3"><a xlink:title="Linear Algebra">
<ellipse fill="#273434" stroke="#b75867" cx="221.41" cy="-18" rx="60.16" ry="18"/>
<text text-anchor="middle" x="221.41" y="-14.9" font-family="sans" font-size="12.00" fill="#c4c7c7">Linear Algebra</text>
</a>
</g>
</g>
<!-- Injective function&#45;&gt;Linear Algebra -->
<g id="edge2" class="edge">
<title>Injective function&#45;&gt;Linear Algebra</title>
<path fill="none" stroke="#ffffff" d="M221.41,-61.67C221.41,-53.05 221.41,-43.79 221.41,-36.1"/>
<polygon fill="#ffffff" stroke="#ffffff" points="217.91,-61.7 221.41,-71.7 224.91,-61.7 217.91,-61.7"/>
</g>
<!-- Bijective function -->
<g id="node4" class="node">
<title>Bijective function</title>
<g id="a_node4"><a xlink:title="Bijective function">
<ellipse fill="#273434" stroke="#b75867" cx="370.41" cy="-18" rx="70.35" ry="18"/>
<text text-anchor="middle" x="370.41" y="-14.9" font-family="sans" font-size="12.00" fill="#c4c7c7">Bijective function</text>
</a>
</g>
</g>
<!-- Injective function&#45;&gt;Bijective function -->
<g id="edge3" class="edge">
<title>Injective function&#45;&gt;Bijective function</title>
<path fill="none" stroke="#ffffff" d="M267.11,-67.53C290.18,-56.69 317.59,-43.81 338.38,-34.05"/>
<polygon fill="#ffffff" stroke="#ffffff" points="265.42,-64.46 257.86,-71.88 268.4,-70.79 265.42,-64.46"/>
</g>
</g>
</svg>
