<?xml version="1.0" encoding="UTF-8" standalone="no"?>
<!DOCTYPE svg PUBLIC "-//W3C//DTD SVG 1.1//EN"
 "http://www.w3.org/Graphics/SVG/1.1/DTD/svg11.dtd">
<!-- Generated by graphviz version 2.44.0 (0)
 -->
<!-- Title: Interpolation Criterion Pages: 1 -->
<svg width="196pt" height="116pt"
 viewBox="0.00 0.00 196.37 116.00" xmlns="http://www.w3.org/2000/svg" xmlns:xlink="http://www.w3.org/1999/xlink">
<g id="page0,1_graph0" class="graph" transform="scale(1 1) rotate(0) translate(4 112)">
<title>Interpolation Criterion</title>
<polygon fill="#132020" stroke="transparent" points="-4,4 -4,-112 192.37,-112 192.37,4 -4,4"/>
<!-- Interpolation Criterion -->
<g id="node1" class="node">
<title>Interpolation Criterion</title>
<g id="a_node1"><a xlink:href="../Interpolation Criterion.html" xlink:title="Interpolation Criterion" target="_parent">
<path fill="#273434" stroke="#b75867" d="M153.68,-108C153.68,-108 34.68,-108 34.68,-108 28.68,-108 22.68,-102 22.68,-96 22.68,-96 22.68,-84 22.68,-84 22.68,-78 28.68,-72 34.68,-72 34.68,-72 153.68,-72 153.68,-72 159.68,-72 165.68,-78 165.68,-84 165.68,-84 165.68,-96 165.68,-96 165.68,-102 159.68,-108 153.68,-108"/>
<text text-anchor="middle" x="94.18" y="-86.9" font-family="sans" font-size="12.00" fill="#c4c7c7">Interpolation Criterion</text>
</a>
</g>
</g>
<!-- Function Approximation -->
<g id="node2" class="node">
<title>Function Approximation</title>
<g id="a_node2"><a xlink:href="../Function Approximation.html" xlink:title="Function Approximation" target="_parent">
<ellipse fill="#273434" stroke="#b75867" cx="94.18" cy="-18" rx="94.37" ry="18"/>
<text text-anchor="middle" x="94.18" y="-14.9" font-family="sans" font-size="12.00" fill="#c4c7c7">Function Approximation</text>
</a>
</g>
</g>
<!-- Interpolation Criterion&#45;&gt;Function Approximation -->
<g id="edge1" class="edge">
<title>Interpolation Criterion&#45;&gt;Function Approximation</title>
<path fill="none" stroke="#ffffff" d="M94.18,-61.67C94.18,-53.05 94.18,-43.79 94.18,-36.1"/>
<polygon fill="#ffffff" stroke="#ffffff" points="90.68,-61.7 94.18,-71.7 97.68,-61.7 90.68,-61.7"/>
</g>
</g>
</svg>
