<?xml version="1.0" encoding="UTF-8" standalone="no"?>
<!DOCTYPE svg PUBLIC "-//W3C//DTD SVG 1.1//EN"
 "http://www.w3.org/Graphics/SVG/1.1/DTD/svg11.dtd">
<!-- Generated by graphviz version 2.44.0 (0)
 -->
<!-- Title: kaltemplate Pages: 1 -->
<svg width="94pt" height="116pt"
 viewBox="0.00 0.00 94.00 116.00" xmlns="http://www.w3.org/2000/svg" xmlns:xlink="http://www.w3.org/1999/xlink">
<g id="page0,1_graph0" class="graph" transform="scale(1 1) rotate(0) translate(4 112)">
<title>kaltemplate</title>
<polygon fill="#132020" stroke="transparent" points="-4,4 -4,-112 90,-112 90,4 -4,4"/>
<!-- kaltemplate -->
<g id="node1" class="node">
<title>kaltemplate</title>
<g id="a_node1"><a xlink:href="../kaltemplate.html" xlink:title="kaltemplate" target="_parent">
<path fill="#273434" stroke="#b75867" d="M74,-108C74,-108 12,-108 12,-108 6,-108 0,-102 0,-96 0,-96 0,-84 0,-84 0,-78 6,-72 12,-72 12,-72 74,-72 74,-72 80,-72 86,-78 86,-84 86,-84 86,-96 86,-96 86,-102 80,-108 74,-108"/>
<text text-anchor="middle" x="43" y="-86.9" font-family="sans" font-size="12.00" fill="#c4c7c7">kaltemplate</text>
</a>
</g>
</g>
<!-- Projects -->
<g id="node2" class="node">
<title>Projects</title>
<g id="a_node2"><a xlink:href="../Projects.html" xlink:title="Projects" target="_parent">
<ellipse fill="#273434" stroke="#b75867" cx="43" cy="-18" rx="38.33" ry="18"/>
<text text-anchor="middle" x="43" y="-14.9" font-family="sans" font-size="12.00" fill="#c4c7c7">Projects</text>
</a>
</g>
</g>
<!-- kaltemplate&#45;&gt;Projects -->
<g id="edge1" class="edge">
<title>kaltemplate&#45;&gt;Projects</title>
<path fill="none" stroke="#ffffff" d="M43,-61.67C43,-53.05 43,-43.79 43,-36.1"/>
<polygon fill="#ffffff" stroke="#ffffff" points="39.5,-61.7 43,-71.7 46.5,-61.7 39.5,-61.7"/>
</g>
</g>
</svg>
