<?xml version="1.0" encoding="UTF-8" standalone="no"?>
<!DOCTYPE svg PUBLIC "-//W3C//DTD SVG 1.1//EN"
 "http://www.w3.org/Graphics/SVG/1.1/DTD/svg11.dtd">
<!-- Generated by graphviz version 2.44.0 (0)
 -->
<!-- Title: kaltask Pages: 1 -->
<svg width="84pt" height="116pt"
 viewBox="0.00 0.00 84.33 116.00" xmlns="http://www.w3.org/2000/svg" xmlns:xlink="http://www.w3.org/1999/xlink">
<g id="page0,1_graph0" class="graph" transform="scale(1 1) rotate(0) translate(4 112)">
<title>kaltask</title>
<polygon fill="#132020" stroke="transparent" points="-4,4 -4,-112 80.33,-112 80.33,4 -4,4"/>
<!-- kaltask -->
<g id="node1" class="node">
<title>kaltask</title>
<g id="a_node1"><a xlink:href="../kaltask.html" xlink:title="kaltask" target="_parent">
<path fill="#273434" stroke="#b75867" d="M54.67,-108C54.67,-108 21.67,-108 21.67,-108 15.67,-108 9.67,-102 9.67,-96 9.67,-96 9.67,-84 9.67,-84 9.67,-78 15.67,-72 21.67,-72 21.67,-72 54.67,-72 54.67,-72 60.67,-72 66.67,-78 66.67,-84 66.67,-84 66.67,-96 66.67,-96 66.67,-102 60.67,-108 54.67,-108"/>
<text text-anchor="middle" x="38.17" y="-86.9" font-family="sans" font-size="12.00" fill="#c4c7c7">kaltask</text>
</a>
</g>
</g>
<!-- Projects -->
<g id="node2" class="node">
<title>Projects</title>
<g id="a_node2"><a xlink:href="../Projects.html" xlink:title="Projects" target="_parent">
<ellipse fill="#273434" stroke="#b75867" cx="38.17" cy="-18" rx="38.33" ry="18"/>
<text text-anchor="middle" x="38.17" y="-14.9" font-family="sans" font-size="12.00" fill="#c4c7c7">Projects</text>
</a>
</g>
</g>
<!-- kaltask&#45;&gt;Projects -->
<g id="edge1" class="edge">
<title>kaltask&#45;&gt;Projects</title>
<path fill="none" stroke="#ffffff" d="M38.17,-61.67C38.17,-53.05 38.17,-43.79 38.17,-36.1"/>
<polygon fill="#ffffff" stroke="#ffffff" points="34.67,-61.7 38.17,-71.7 41.67,-61.7 34.67,-61.7"/>
</g>
</g>
</svg>
