<?xml version="1.0" encoding="UTF-8" standalone="no"?>
<!DOCTYPE svg PUBLIC "-//W3C//DTD SVG 1.1//EN"
 "http://www.w3.org/Graphics/SVG/1.1/DTD/svg11.dtd">
<!-- Generated by graphviz version 2.44.0 (0)
 -->
<!-- Title: Knowledege Base Pages: 1 -->
<svg width="592pt" height="895pt"
 viewBox="0.00 0.00 592.00 895.00" xmlns="http://www.w3.org/2000/svg" xmlns:xlink="http://www.w3.org/1999/xlink">
<g id="page0,1_graph0" class="graph" transform="scale(1 1) rotate(0) translate(4 891)">
<title>Knowledege Base</title>
<polygon fill="#132020" stroke="transparent" points="-4,4 -4,-891 588,-891 588,4 -4,4"/>
<!-- Knowledege Base -->
<g id="node1" class="node">
<title>Knowledege Base</title>
<g id="a_node1"><a xlink:href="../Knowledege Base.html" xlink:title="Knowledege Base" target="_parent">
<path fill="#273434" stroke="#b75867" d="M105,-406C105,-406 12,-406 12,-406 6,-406 0,-400 0,-394 0,-394 0,-382 0,-382 0,-376 6,-370 12,-370 12,-370 105,-370 105,-370 111,-370 117,-376 117,-382 117,-382 117,-394 117,-394 117,-400 111,-406 105,-406"/>
<text text-anchor="middle" x="58.5" y="-384.9" font-family="sans" font-size="12.00" fill="#c4c7c7">Knowledege Base</text>
</a>
</g>
</g>
<!-- Computer Architectures -->
<g id="node2" class="node">
<title>Computer Architectures</title>
<g id="a_node2"><a xlink:href="../Computer Architectures.html" xlink:title="Computer Architectures" target="_parent">
<path fill="#273434" stroke="#b75867" d="M309.5,-702C309.5,-702 182.5,-702 182.5,-702 176.5,-702 170.5,-696 170.5,-690 170.5,-690 170.5,-678 170.5,-678 170.5,-672 176.5,-666 182.5,-666 182.5,-666 309.5,-666 309.5,-666 315.5,-666 321.5,-672 321.5,-678 321.5,-678 321.5,-690 321.5,-690 321.5,-696 315.5,-702 309.5,-702"/>
<text text-anchor="middle" x="246" y="-680.9" font-family="sans" font-size="12.00" fill="#c4c7c7">Computer Architectures</text>
</a>
</g>
</g>
<!-- Knowledege Base&#45;&gt;Computer Architectures -->
<g id="edge1" class="edge">
<title>Knowledege Base&#45;&gt;Computer Architectures</title>
<path fill="none" stroke="#b75867" d="M61.31,-406.34C67.15,-461.83 87.38,-626.33 125,-662 134.8,-671.29 147.16,-677.32 160.2,-681.13"/>
<polygon fill="#b75867" stroke="#b75867" points="159.72,-684.62 170.27,-683.63 161.41,-677.83 159.72,-684.62"/>
</g>
<!-- Numeric Methods -->
<g id="node3" class="node">
<title>Numeric Methods</title>
<g id="a_node3"><a xlink:href="../Numeric Methods.html" xlink:title="Numeric Methods" target="_parent">
<path fill="#273434" stroke="#b75867" d="M292,-665C292,-665 200,-665 200,-665 194,-665 188,-659 188,-653 188,-653 188,-641 188,-641 188,-635 194,-629 200,-629 200,-629 292,-629 292,-629 298,-629 304,-635 304,-641 304,-641 304,-653 304,-653 304,-659 298,-665 292,-665"/>
<text text-anchor="middle" x="246" y="-643.9" font-family="sans" font-size="12.00" fill="#c4c7c7">Numeric Methods</text>
</a>
</g>
</g>
<!-- Knowledege Base&#45;&gt;Numeric Methods -->
<g id="edge2" class="edge">
<title>Knowledege Base&#45;&gt;Numeric Methods</title>
<path fill="none" stroke="#b75867" d="M62.04,-406.35C69.37,-456.64 92.17,-594.95 125,-625 139.37,-638.15 158.9,-644.69 178.03,-647.68"/>
<polygon fill="#b75867" stroke="#b75867" points="177.61,-651.15 187.97,-648.93 178.49,-644.21 177.61,-651.15"/>
</g>
<!-- Design and Analysis of Algorithms -->
<g id="node4" class="node">
<title>Design and Analysis of Algorithms</title>
<g id="a_node4"><a xlink:href="../Design and Analysis of Algorithms.html" xlink:title="Design and Analysis of Algorithms" target="_parent">
<path fill="#273434" stroke="#b75867" d="M337,-517C337,-517 155,-517 155,-517 149,-517 143,-511 143,-505 143,-505 143,-493 143,-493 143,-487 149,-481 155,-481 155,-481 337,-481 337,-481 343,-481 349,-487 349,-493 349,-493 349,-505 349,-505 349,-511 343,-517 337,-517"/>
<text text-anchor="middle" x="246" y="-495.9" font-family="sans" font-size="12.00" fill="#c4c7c7">Design and Analysis of Algorithms</text>
</a>
</g>
</g>
<!-- Knowledege Base&#45;&gt;Design and Analysis of Algorithms -->
<g id="edge3" class="edge">
<title>Knowledege Base&#45;&gt;Design and Analysis of Algorithms</title>
<path fill="none" stroke="#b75867" d="M67.71,-406.26C78,-426.92 97.67,-459.91 125,-477 127.78,-478.74 130.67,-480.35 133.64,-481.84"/>
<polygon fill="#b75867" stroke="#b75867" points="132.2,-485.03 142.75,-485.96 135.08,-478.65 132.2,-485.03"/>
</g>
<!-- Logic Programming -->
<g id="node5" class="node">
<title>Logic Programming</title>
<g id="a_node5"><a xlink:href="../Logic Programming.html" xlink:title="Logic Programming" target="_parent">
<path fill="#273434" stroke="#b75867" d="M297,-480C297,-480 195,-480 195,-480 189,-480 183,-474 183,-468 183,-468 183,-456 183,-456 183,-450 189,-444 195,-444 195,-444 297,-444 297,-444 303,-444 309,-450 309,-456 309,-456 309,-468 309,-468 309,-474 303,-480 297,-480"/>
<text text-anchor="middle" x="246" y="-458.9" font-family="sans" font-size="12.00" fill="#c4c7c7">Logic Programming</text>
</a>
</g>
</g>
<!-- Knowledege Base&#45;&gt;Logic Programming -->
<g id="edge4" class="edge">
<title>Knowledege Base&#45;&gt;Logic Programming</title>
<path fill="none" stroke="#b75867" d="M77.33,-406.18C89.66,-417.67 107.02,-431.84 125,-440 139.85,-446.74 156.63,-451.42 172.83,-454.66"/>
<polygon fill="#b75867" stroke="#b75867" points="172.35,-458.13 182.82,-456.5 173.62,-451.25 172.35,-458.13"/>
</g>
<!-- Data Structures -->
<g id="node6" class="node">
<title>Data Structures</title>
<g id="a_node6"><a xlink:href="../Data Structures.html" xlink:title="Data Structures" target="_parent">
<path fill="#273434" stroke="#b75867" d="M286,-443C286,-443 206,-443 206,-443 200,-443 194,-437 194,-431 194,-431 194,-419 194,-419 194,-413 200,-407 206,-407 206,-407 286,-407 286,-407 292,-407 298,-413 298,-419 298,-419 298,-431 298,-431 298,-437 292,-443 286,-443"/>
<text text-anchor="middle" x="246" y="-421.9" font-family="sans" font-size="12.00" fill="#c4c7c7">Data Structures</text>
</a>
</g>
</g>
<!-- Knowledege Base&#45;&gt;Data Structures -->
<g id="edge5" class="edge">
<title>Knowledege Base&#45;&gt;Data Structures</title>
<path fill="none" stroke="#b75867" d="M117.33,-401.39C119.92,-401.94 122.49,-402.48 125,-403 144.08,-406.93 164.94,-410.88 183.83,-414.32"/>
<polygon fill="#b75867" stroke="#b75867" points="183.35,-417.79 193.81,-416.13 184.59,-410.9 183.35,-417.79"/>
</g>
<!-- Languages, Automata and Computation -->
<g id="node7" class="node">
<title>Languages, Automata and Computation</title>
<g id="a_node7"><a xlink:href="../Languages, Automata and Computation.html" xlink:title="Languages, Automata and Computation" target="_parent">
<path fill="#273434" stroke="#b75867" d="M355,-406C355,-406 137,-406 137,-406 131,-406 125,-400 125,-394 125,-394 125,-382 125,-382 125,-376 131,-370 137,-370 137,-370 355,-370 355,-370 361,-370 367,-376 367,-382 367,-382 367,-394 367,-394 367,-400 361,-406 355,-406"/>
<text text-anchor="middle" x="246" y="-384.9" font-family="sans" font-size="12.00" fill="#c4c7c7">Languages, Automata and Computation</text>
</a>
</g>
</g>
<!-- Knowledege Base&#45;&gt;Languages, Automata and Computation -->
<g id="edge6" class="edge">
<title>Knowledege Base&#45;&gt;Languages, Automata and Computation</title>
<path fill="none" stroke="#b75867" d="M117.18,-388C117.34,-388 117.5,-388 117.66,-388"/>
<polygon fill="#b75867" stroke="#b75867" points="114.95,-391.5 124.95,-388 114.95,-384.5 114.95,-391.5"/>
</g>
<!-- Operations Research -->
<g id="node8" class="node">
<title>Operations Research</title>
<g id="a_node8"><a xlink:href="../Operations Research.html" xlink:title="Operations Research" target="_parent">
<path fill="#273434" stroke="#b75867" d="M300.5,-369C300.5,-369 191.5,-369 191.5,-369 185.5,-369 179.5,-363 179.5,-357 179.5,-357 179.5,-345 179.5,-345 179.5,-339 185.5,-333 191.5,-333 191.5,-333 300.5,-333 300.5,-333 306.5,-333 312.5,-339 312.5,-345 312.5,-345 312.5,-357 312.5,-357 312.5,-363 306.5,-369 300.5,-369"/>
<text text-anchor="middle" x="246" y="-347.9" font-family="sans" font-size="12.00" fill="#c4c7c7">Operations Research</text>
</a>
</g>
</g>
<!-- Knowledege Base&#45;&gt;Operations Research -->
<g id="edge7" class="edge">
<title>Knowledege Base&#45;&gt;Operations Research</title>
<path fill="none" stroke="#b75867" d="M117.33,-374.61C119.92,-374.06 122.49,-373.52 125,-373 139.24,-370.07 154.48,-367.12 169.15,-364.39"/>
<polygon fill="#b75867" stroke="#b75867" points="170,-367.79 179.19,-362.53 168.72,-360.91 170,-367.79"/>
</g>
<!-- Differential Equations -->
<g id="node9" class="node">
<title>Differential Equations</title>
<g id="a_node9"><a xlink:href="../Differential Equations.html" xlink:title="Differential Equations" target="_parent">
<path fill="#273434" stroke="#b75867" d="M303,-332C303,-332 189,-332 189,-332 183,-332 177,-326 177,-320 177,-320 177,-308 177,-308 177,-302 183,-296 189,-296 189,-296 303,-296 303,-296 309,-296 315,-302 315,-308 315,-308 315,-320 315,-320 315,-326 309,-332 303,-332"/>
<text text-anchor="middle" x="246" y="-310.9" font-family="sans" font-size="12.00" fill="#c4c7c7">Differential Equations</text>
</a>
</g>
</g>
<!-- Knowledege Base&#45;&gt;Differential Equations -->
<g id="edge8" class="edge">
<title>Knowledege Base&#45;&gt;Differential Equations</title>
<path fill="none" stroke="#b75867" d="M77.33,-369.82C89.66,-358.33 107.02,-344.16 125,-336 138.08,-330.06 152.66,-325.72 167.02,-322.56"/>
<polygon fill="#b75867" stroke="#b75867" points="167.81,-325.97 176.91,-320.55 166.41,-319.11 167.81,-325.97"/>
</g>
<!-- OOP -->
<g id="node10" class="node">
<title>OOP</title>
<g id="a_node10"><a xlink:href="../OOP.html" xlink:title="OOP" target="_parent">
<path fill="#273434" stroke="#b75867" d="M261,-295C261,-295 231,-295 231,-295 225,-295 219,-289 219,-283 219,-283 219,-271 219,-271 219,-265 225,-259 231,-259 231,-259 261,-259 261,-259 267,-259 273,-265 273,-271 273,-271 273,-283 273,-283 273,-289 267,-295 261,-295"/>
<text text-anchor="middle" x="246" y="-273.9" font-family="sans" font-size="12.00" fill="#c4c7c7">OOP</text>
</a>
</g>
</g>
<!-- Knowledege Base&#45;&gt;OOP -->
<g id="edge9" class="edge">
<title>Knowledege Base&#45;&gt;OOP</title>
<path fill="none" stroke="#b75867" d="M67.71,-369.74C78,-349.08 97.67,-316.09 125,-299 149.98,-283.38 183.25,-278.24 208.43,-276.8"/>
<polygon fill="#b75867" stroke="#b75867" points="208.82,-280.29 218.67,-276.39 208.54,-273.29 208.82,-280.29"/>
</g>
<!-- Discrete Structures -->
<g id="node11" class="node">
<title>Discrete Structures</title>
<g id="a_node11"><a xlink:href="../Discrete Structures.html" xlink:title="Discrete Structures" target="_parent">
<path fill="#273434" stroke="#b75867" d="M295,-628C295,-628 197,-628 197,-628 191,-628 185,-622 185,-616 185,-616 185,-604 185,-604 185,-598 191,-592 197,-592 197,-592 295,-592 295,-592 301,-592 307,-598 307,-604 307,-604 307,-616 307,-616 307,-622 301,-628 295,-628"/>
<text text-anchor="middle" x="246" y="-606.9" font-family="sans" font-size="12.00" fill="#c4c7c7">Discrete Structures</text>
</a>
</g>
</g>
<!-- Knowledege Base&#45;&gt;Discrete Structures -->
<g id="edge10" class="edge">
<title>Knowledege Base&#45;&gt;Discrete Structures</title>
<path fill="none" stroke="#b75867" d="M59.65,-406.22C61.03,-445.85 70.23,-540.18 125,-588 138.8,-600.05 156.97,-606.47 174.98,-609.68"/>
<polygon fill="#b75867" stroke="#b75867" points="174.54,-613.16 184.95,-611.16 175.57,-606.23 174.54,-613.16"/>
</g>
<!-- Advanced Algebra -->
<g id="node12" class="node">
<title>Advanced Algebra</title>
<g id="a_node12"><a xlink:href="../Advanced Algebra.html" xlink:title="Advanced Algebra" target="_parent">
<path fill="#273434" stroke="#b75867" d="M293.5,-258C293.5,-258 198.5,-258 198.5,-258 192.5,-258 186.5,-252 186.5,-246 186.5,-246 186.5,-234 186.5,-234 186.5,-228 192.5,-222 198.5,-222 198.5,-222 293.5,-222 293.5,-222 299.5,-222 305.5,-228 305.5,-234 305.5,-234 305.5,-246 305.5,-246 305.5,-252 299.5,-258 293.5,-258"/>
<text text-anchor="middle" x="246" y="-236.9" font-family="sans" font-size="12.00" fill="#c4c7c7">Advanced Algebra</text>
</a>
</g>
</g>
<!-- Knowledege Base&#45;&gt;Advanced Algebra -->
<g id="edge11" class="edge">
<title>Knowledege Base&#45;&gt;Advanced Algebra</title>
<path fill="none" stroke="#b75867" d="M63.59,-369.65C70.84,-341.68 88.71,-288.81 125,-262 139.8,-251.06 158.39,-245.01 176.48,-241.8"/>
<polygon fill="#b75867" stroke="#b75867" points="177.08,-245.25 186.45,-240.29 176.04,-238.32 177.08,-245.25"/>
</g>
<!-- Differential Analysis -->
<g id="node13" class="node">
<title>Differential Analysis</title>
<g id="a_node13"><a xlink:href="../Differential Analysis.html" xlink:title="Differential Analysis" target="_parent">
<path fill="#273434" stroke="#b75867" d="M297.5,-591C297.5,-591 194.5,-591 194.5,-591 188.5,-591 182.5,-585 182.5,-579 182.5,-579 182.5,-567 182.5,-567 182.5,-561 188.5,-555 194.5,-555 194.5,-555 297.5,-555 297.5,-555 303.5,-555 309.5,-561 309.5,-567 309.5,-567 309.5,-579 309.5,-579 309.5,-585 303.5,-591 297.5,-591"/>
<text text-anchor="middle" x="246" y="-569.9" font-family="sans" font-size="12.00" fill="#c4c7c7">Differential Analysis</text>
</a>
</g>
</g>
<!-- Knowledege Base&#45;&gt;Differential Analysis -->
<g id="edge12" class="edge">
<title>Knowledege Base&#45;&gt;Differential Analysis</title>
<path fill="none" stroke="#b75867" d="M61.27,-406.21C65.56,-440.17 79.77,-513.05 125,-550 138.37,-560.92 155.39,-567.12 172.38,-570.53"/>
<polygon fill="#b75867" stroke="#b75867" points="171.91,-574 182.35,-572.22 173.08,-567.09 171.91,-574"/>
</g>
<!-- Knowledege Base&#45;&gt;Differential Analysis -->
<g id="edge16" class="edge">
<title>Knowledege Base&#45;&gt;Differential Analysis</title>
<path fill="none" stroke="#b75867" d="M61.2,-406.26C65.41,-440.41 79.54,-513.86 125,-551 138.37,-561.92 155.39,-568.12 172.38,-571.49"/>
<polygon fill="#b75867" stroke="#b75867" points="171.91,-574.96 182.35,-573.17 173.07,-568.06 171.91,-574.96"/>
</g>
<!-- Introduction to programming -->
<g id="node14" class="node">
<title>Introduction to programming</title>
<g id="a_node14"><a xlink:href="../Introduction to programming.html" xlink:title="Introduction to programming" target="_parent">
<path fill="#273434" stroke="#b75867" d="M325.5,-221C325.5,-221 166.5,-221 166.5,-221 160.5,-221 154.5,-215 154.5,-209 154.5,-209 154.5,-197 154.5,-197 154.5,-191 160.5,-185 166.5,-185 166.5,-185 325.5,-185 325.5,-185 331.5,-185 337.5,-191 337.5,-197 337.5,-197 337.5,-209 337.5,-209 337.5,-215 331.5,-221 325.5,-221"/>
<text text-anchor="middle" x="246" y="-199.9" font-family="sans" font-size="12.00" fill="#c4c7c7">Introduction to programming</text>
</a>
</g>
</g>
<!-- Knowledege Base&#45;&gt;Introduction to programming -->
<g id="edge13" class="edge">
<title>Knowledege Base&#45;&gt;Introduction to programming</title>
<path fill="none" stroke="#b75867" d="M61.2,-369.74C65.41,-335.59 79.54,-262.14 125,-225 131.05,-220.05 137.86,-216.08 145.07,-212.89"/>
<polygon fill="#b75867" stroke="#b75867" points="146.34,-216.15 154.39,-209.27 143.81,-209.63 146.34,-216.15"/>
</g>
<!-- Analytic Geometry -->
<g id="node15" class="node">
<title>Analytic Geometry</title>
<g id="a_node15"><a xlink:href="../Analytic Geometry.html" xlink:title="Analytic Geometry" target="_parent">
<path fill="#273434" stroke="#b75867" d="M294.5,-184C294.5,-184 197.5,-184 197.5,-184 191.5,-184 185.5,-178 185.5,-172 185.5,-172 185.5,-160 185.5,-160 185.5,-154 191.5,-148 197.5,-148 197.5,-148 294.5,-148 294.5,-148 300.5,-148 306.5,-154 306.5,-160 306.5,-160 306.5,-172 306.5,-172 306.5,-178 300.5,-184 294.5,-184"/>
<text text-anchor="middle" x="246" y="-162.9" font-family="sans" font-size="12.00" fill="#c4c7c7">Analytic Geometry</text>
</a>
</g>
</g>
<!-- Knowledege Base&#45;&gt;Analytic Geometry -->
<g id="edge14" class="edge">
<title>Knowledege Base&#45;&gt;Analytic Geometry</title>
<path fill="none" stroke="#b75867" d="M59.65,-369.78C61.03,-330.15 70.23,-235.82 125,-188 138.87,-175.89 157.15,-169.47 175.25,-166.27"/>
<polygon fill="#b75867" stroke="#b75867" points="175.87,-169.72 185.25,-164.81 174.85,-162.79 175.87,-169.72"/>
</g>
<!-- Linear Algebra -->
<g id="node16" class="node">
<title>Linear Algebra</title>
<g id="a_node16"><a xlink:href="../Linear Algebra.html" xlink:title="Linear Algebra" target="_parent">
<path fill="#273434" stroke="#b75867" d="M283,-554C283,-554 209,-554 209,-554 203,-554 197,-548 197,-542 197,-542 197,-530 197,-530 197,-524 203,-518 209,-518 209,-518 283,-518 283,-518 289,-518 295,-524 295,-530 295,-530 295,-542 295,-542 295,-548 289,-554 283,-554"/>
<text text-anchor="middle" x="246" y="-532.9" font-family="sans" font-size="12.00" fill="#c4c7c7">Linear Algebra</text>
</a>
</g>
</g>
<!-- Knowledege Base&#45;&gt;Linear Algebra -->
<g id="edge15" class="edge">
<title>Knowledege Base&#45;&gt;Linear Algebra</title>
<path fill="none" stroke="#b75867" d="M63.59,-406.35C70.84,-434.32 88.71,-487.19 125,-514 142.64,-527.03 165.64,-533.12 186.79,-535.75"/>
<polygon fill="#b75867" stroke="#b75867" points="186.68,-539.26 196.98,-536.78 187.39,-532.3 186.68,-539.26"/>
</g>
<!-- Org Roam -->
<g id="node17" class="node">
<title>Org Roam</title>
<g id="a_node17"><a xlink:href="../Org Roam.html" xlink:title="Org Roam" target="_parent">
<path fill="#273434" stroke="#b75867" d="M270,-147C270,-147 222,-147 222,-147 216,-147 210,-141 210,-135 210,-135 210,-123 210,-123 210,-117 216,-111 222,-111 222,-111 270,-111 270,-111 276,-111 282,-117 282,-123 282,-123 282,-135 282,-135 282,-141 276,-147 270,-147"/>
<text text-anchor="middle" x="246" y="-125.9" font-family="sans" font-size="12.00" fill="#c4c7c7">Org Roam</text>
</a>
</g>
</g>
<!-- Knowledege Base&#45;&gt;Org Roam -->
<g id="edge17" class="edge">
<title>Knowledege Base&#45;&gt;Org Roam</title>
<path fill="none" stroke="#b75867" d="M62.04,-369.65C69.37,-319.36 92.17,-181.05 125,-151 144.98,-132.71 174.94,-127.2 199.93,-126.27"/>
<polygon fill="#b75867" stroke="#b75867" points="199.99,-129.77 209.93,-126.13 199.88,-122.77 199.99,-129.77"/>
</g>
<!-- Org&#45;mode -->
<g id="node18" class="node">
<title>Org&#45;mode</title>
<g id="a_node18"><a xlink:href="../Org-mode.html" xlink:title="Org&#45;mode" target="_parent">
<path fill="#273434" stroke="#b75867" d="M271,-73C271,-73 221,-73 221,-73 215,-73 209,-67 209,-61 209,-61 209,-49 209,-49 209,-43 215,-37 221,-37 221,-37 271,-37 271,-37 277,-37 283,-43 283,-49 283,-49 283,-61 283,-61 283,-67 277,-73 271,-73"/>
<text text-anchor="middle" x="246" y="-51.9" font-family="sans" font-size="12.00" fill="#c4c7c7">Org&#45;mode</text>
</a>
</g>
</g>
<!-- Knowledege Base&#45;&gt;Org&#45;mode -->
<g id="edge18" class="edge">
<title>Knowledege Base&#45;&gt;Org&#45;mode</title>
<path fill="none" stroke="#b75867" d="M60.73,-369.81C65.19,-309.62 82.51,-118.39 125,-77 144.2,-58.3 173.75,-52.71 198.72,-51.84"/>
<polygon fill="#b75867" stroke="#b75867" points="198.78,-55.34 208.74,-51.73 198.7,-48.34 198.78,-55.34"/>
</g>
<!-- Projects -->
<g id="node19" class="node">
<title>Projects</title>
<g id="a_node19"><a xlink:href="../Projects.html" xlink:title="Projects" target="_parent">
<path fill="none" stroke="#b75867" d="M265,-110C265,-110 227,-110 227,-110 221,-110 215,-104 215,-98 215,-98 215,-86 215,-86 215,-80 221,-74 227,-74 227,-74 265,-74 265,-74 271,-74 277,-80 277,-86 277,-86 277,-98 277,-98 277,-104 271,-110 265,-110"/>
<text text-anchor="middle" x="246" y="-88.9" font-family="sans" font-size="12.00" fill="#c4c7c7">Projects</text>
</a>
</g>
</g>
<!-- Knowledege Base&#45;&gt;Projects -->
<g id="edge19" class="edge">
<title>Knowledege Base&#45;&gt;Projects</title>
<path fill="none" stroke="#ffffff" d="M62.39,-359.62C69.41,-296.56 89.43,-147.72 125,-114 148.82,-91.41 187.79,-88.11 214.83,-89.02"/>
<polygon fill="#ffffff" stroke="#ffffff" points="58.9,-359.34 61.31,-369.66 65.86,-360.1 58.9,-359.34"/>
</g>
<!-- Computer Architectures&#45;&gt;Knowledege Base -->
<g id="edge20" class="edge">
<title>Computer Architectures&#45;&gt;Knowledege Base</title>
<path fill="none" stroke="#ffffff" d="M160.2,-682.12C147.16,-678.32 134.8,-672.29 125,-663 87.29,-627.25 67.05,-462.06 61.26,-406.38"/>
<polygon fill="#ffffff" stroke="#ffffff" points="159.72,-685.6 170.27,-684.6 161.4,-678.81 159.72,-685.6"/>
</g>
<!-- Numeric Methods&#45;&gt;Knowledege Base -->
<g id="edge24" class="edge">
<title>Numeric Methods&#45;&gt;Knowledege Base</title>
<path fill="none" stroke="#ffffff" d="M178.03,-648.63C158.9,-645.69 139.37,-639.15 125,-626 92.02,-595.81 69.15,-456.31 61.93,-406.08"/>
<polygon fill="#ffffff" stroke="#ffffff" points="177.62,-652.11 187.97,-649.85 178.47,-645.16 177.62,-652.11"/>
</g>
<!-- Lagrange Interpolation -->
<g id="node20" class="node">
<title>Lagrange Interpolation</title>
<g id="a_node20"><a xlink:href="../Lagrange Interpolation.html" xlink:title="Lagrange Interpolation" target="_parent">
<path fill="#273434" stroke="#b75867" d="M541,-850C541,-850 418,-850 418,-850 412,-850 406,-844 406,-838 406,-838 406,-826 406,-826 406,-820 412,-814 418,-814 418,-814 541,-814 541,-814 547,-814 553,-820 553,-826 553,-826 553,-838 553,-838 553,-844 547,-850 541,-850"/>
<text text-anchor="middle" x="479.5" y="-828.9" font-family="sans" font-size="12.00" fill="#c4c7c7">Lagrange Interpolation</text>
</a>
</g>
</g>
<!-- Numeric Methods&#45;&gt;Lagrange Interpolation -->
<g id="edge21" class="edge">
<title>Numeric Methods&#45;&gt;Lagrange Interpolation</title>
<path fill="none" stroke="#b75867" d="M304.22,-643.24C327.04,-644.95 351.51,-651.45 367,-669 387.77,-692.53 354.57,-786.18 375,-810 380.87,-816.84 388.28,-821.86 396.44,-825.52"/>
<polygon fill="#b75867" stroke="#b75867" points="395.33,-828.84 405.92,-829.09 397.8,-822.29 395.33,-828.84"/>
</g>
<!-- Function Approximation -->
<g id="node21" class="node">
<title>Function Approximation</title>
<g id="a_node21"><a xlink:href="../Function Approximation.html" xlink:title="Function Approximation" target="_parent">
<path fill="#273434" stroke="#b75867" d="M544,-887C544,-887 415,-887 415,-887 409,-887 403,-881 403,-875 403,-875 403,-863 403,-863 403,-857 409,-851 415,-851 415,-851 544,-851 544,-851 550,-851 556,-857 556,-863 556,-863 556,-875 556,-875 556,-881 550,-887 544,-887"/>
<text text-anchor="middle" x="479.5" y="-865.9" font-family="sans" font-size="12.00" fill="#c4c7c7">Function Approximation</text>
</a>
</g>
</g>
<!-- Numeric Methods&#45;&gt;Function Approximation -->
<g id="edge22" class="edge">
<title>Numeric Methods&#45;&gt;Function Approximation</title>
<path fill="none" stroke="#b75867" d="M304.01,-643.13C326.93,-644.79 351.55,-651.28 367,-669 380.01,-683.92 362.2,-831.9 375,-847 380.18,-853.11 386.59,-857.78 393.68,-861.31"/>
<polygon fill="#b75867" stroke="#b75867" points="392.38,-864.57 402.96,-865.21 395.1,-858.11 392.38,-864.57"/>
</g>
<!-- Subjects -->
<g id="node22" class="node">
<title>Subjects</title>
<g id="a_node22"><a xlink:href="../Subjects.html" xlink:title="Subjects" target="_parent">
<path fill="none" stroke="#b75867" d="M500,-591C500,-591 459,-591 459,-591 453,-591 447,-585 447,-579 447,-579 447,-567 447,-567 447,-561 453,-555 459,-555 459,-555 500,-555 500,-555 506,-555 512,-561 512,-567 512,-567 512,-579 512,-579 512,-585 506,-591 500,-591"/>
<text text-anchor="middle" x="479.5" y="-569.9" font-family="sans" font-size="12.00" fill="#c4c7c7">Subjects</text>
</a>
</g>
</g>
<!-- Numeric Methods&#45;&gt;Subjects -->
<g id="edge23" class="edge">
<title>Numeric Methods&#45;&gt;Subjects</title>
<path fill="none" stroke="#ffffff" d="M314.04,-647.76C333.18,-644.78 352.69,-638.22 367,-625 377.14,-615.64 365,-604.5 375,-595 394.04,-576.91 424.11,-572.16 446.94,-571.5"/>
<polygon fill="#ffffff" stroke="#ffffff" points="313.59,-644.29 304.1,-649.01 314.46,-651.23 313.59,-644.29"/>
</g>
<!-- Design and Analysis of Algorithms&#45;&gt;Knowledege Base -->
<g id="edge25" class="edge">
<title>Design and Analysis of Algorithms&#45;&gt;Knowledege Base</title>
<path fill="none" stroke="#ffffff" d="M133.64,-482.84C130.67,-481.35 127.78,-479.74 125,-478 97.35,-460.71 77.54,-427.13 67.35,-406.24"/>
<polygon fill="#ffffff" stroke="#ffffff" points="132.2,-486.03 142.75,-486.96 135.08,-479.65 132.2,-486.03"/>
</g>
<!-- Logic Programming&#45;&gt;Knowledege Base -->
<g id="edge26" class="edge">
<title>Logic Programming&#45;&gt;Knowledege Base</title>
<path fill="none" stroke="#ffffff" d="M172.83,-455.64C156.63,-452.42 139.85,-447.74 125,-441 106.49,-432.6 88.64,-417.83 76.26,-406.02"/>
<polygon fill="#ffffff" stroke="#ffffff" points="172.35,-459.11 182.82,-457.46 173.61,-452.22 172.35,-459.11"/>
</g>
<!-- Data Structures&#45;&gt;Knowledege Base -->
<g id="edge27" class="edge">
<title>Data Structures&#45;&gt;Knowledege Base</title>
<path fill="none" stroke="#ffffff" d="M183.83,-415.27C164.94,-411.88 144.08,-407.93 125,-404 122.49,-403.48 119.92,-402.94 117.33,-402.39"/>
<polygon fill="#ffffff" stroke="#ffffff" points="183.35,-418.74 193.81,-417.05 184.58,-411.85 183.35,-418.74"/>
</g>
<!-- Languages, Automata and Computation&#45;&gt;Knowledege Base -->
<g id="edge28" class="edge">
<title>Languages, Automata and Computation&#45;&gt;Knowledege Base</title>
<path fill="none" stroke="#ffffff" d="M117.66,-388.7C117.5,-388.7 117.34,-388.7 117.18,-388.7"/>
<polygon fill="#ffffff" stroke="#ffffff" points="114.94,-392.19 124.95,-388.72 114.96,-385.19 114.94,-392.19"/>
</g>
<!-- Operations Research&#45;&gt;Knowledege Base -->
<g id="edge29" class="edge">
<title>Operations Research&#45;&gt;Knowledege Base</title>
<path fill="none" stroke="#ffffff" d="M169.15,-365.37C154.48,-368.12 139.24,-371.07 125,-374 122.49,-374.52 119.92,-375.06 117.33,-375.61"/>
<polygon fill="#ffffff" stroke="#ffffff" points="170,-368.77 179.19,-363.49 168.72,-361.89 170,-368.77"/>
</g>
<!-- Differential Equations&#45;&gt;Knowledege Base -->
<g id="edge30" class="edge">
<title>Differential Equations&#45;&gt;Knowledege Base</title>
<path fill="none" stroke="#ffffff" d="M167.02,-323.54C152.66,-326.72 138.08,-331.06 125,-337 107.42,-344.98 90.42,-358.71 78.15,-369.91"/>
<polygon fill="#ffffff" stroke="#ffffff" points="167.81,-326.95 176.91,-321.51 166.41,-320.09 167.81,-326.95"/>
</g>
<!-- OOP&#45;&gt;Knowledege Base -->
<g id="edge31" class="edge">
<title>OOP&#45;&gt;Knowledege Base</title>
<path fill="none" stroke="#ffffff" d="M208.43,-277.64C183.25,-279.24 149.98,-284.38 125,-300 98,-316.89 78.47,-349.29 68.08,-369.72"/>
<polygon fill="#ffffff" stroke="#ffffff" points="208.85,-281.12 218.67,-277.15 208.51,-274.13 208.85,-281.12"/>
</g>
<!-- Discrete Structures&#45;&gt;Knowledege Base -->
<g id="edge39" class="edge">
<title>Discrete Structures&#45;&gt;Knowledege Base</title>
<path fill="none" stroke="#ffffff" d="M174.98,-610.65C156.97,-607.47 138.8,-601.05 125,-589 69.96,-540.94 60.94,-445.9 59.63,-406.15"/>
<polygon fill="#ffffff" stroke="#ffffff" points="174.55,-614.12 184.95,-612.09 175.55,-607.19 174.55,-614.12"/>
</g>
<!-- Discrete Structures&#45;&gt;Subjects -->
<g id="edge38" class="edge">
<title>Discrete Structures&#45;&gt;Subjects</title>
<path fill="none" stroke="#ffffff" d="M317.1,-598.8C360.24,-591.9 413.45,-583.4 446.69,-578.08"/>
<polygon fill="#ffffff" stroke="#ffffff" points="316.54,-595.34 307.22,-600.38 317.65,-602.25 316.54,-595.34"/>
</g>
<!-- Recurrent Equations -->
<g id="node23" class="node">
<title>Recurrent Equations</title>
<g id="a_node23"><a xlink:href="../Recurrent Equations.html" xlink:title="Recurrent Equations" target="_parent">
<path fill="#273434" stroke="#b75867" d="M533,-702C533,-702 426,-702 426,-702 420,-702 414,-696 414,-690 414,-690 414,-678 414,-678 414,-672 420,-666 426,-666 426,-666 533,-666 533,-666 539,-666 545,-672 545,-678 545,-678 545,-690 545,-690 545,-696 539,-702 533,-702"/>
<text text-anchor="middle" x="479.5" y="-680.9" font-family="sans" font-size="12.00" fill="#c4c7c7">Recurrent Equations</text>
</a>
</g>
</g>
<!-- Discrete Structures&#45;&gt;Recurrent Equations -->
<g id="edge32" class="edge">
<title>Discrete Structures&#45;&gt;Recurrent Equations</title>
<path fill="none" stroke="#b75867" d="M307.18,-608.32C328.42,-610.74 350.97,-617.2 367,-632 377.14,-641.36 365,-652.5 375,-662 383.11,-669.7 393.21,-674.98 403.9,-678.56"/>
<polygon fill="#b75867" stroke="#b75867" points="403.27,-682.02 413.84,-681.39 405.18,-675.29 403.27,-682.02"/>
</g>
<!-- Combinatorics -->
<g id="node24" class="node">
<title>Combinatorics</title>
<g id="a_node24"><a xlink:href="../Combinatorics.html" xlink:title="Combinatorics" target="_parent">
<path fill="#273434" stroke="#b75867" d="M516.5,-665C516.5,-665 442.5,-665 442.5,-665 436.5,-665 430.5,-659 430.5,-653 430.5,-653 430.5,-641 430.5,-641 430.5,-635 436.5,-629 442.5,-629 442.5,-629 516.5,-629 516.5,-629 522.5,-629 528.5,-635 528.5,-641 528.5,-641 528.5,-653 528.5,-653 528.5,-659 522.5,-665 516.5,-665"/>
<text text-anchor="middle" x="479.5" y="-643.9" font-family="sans" font-size="12.00" fill="#c4c7c7">Combinatorics</text>
</a>
</g>
</g>
<!-- Discrete Structures&#45;&gt;Combinatorics -->
<g id="edge33" class="edge">
<title>Discrete Structures&#45;&gt;Combinatorics</title>
<path fill="none" stroke="#b75867" d="M307.22,-619.62C342.09,-625.2 385.78,-632.18 420.3,-637.7"/>
<polygon fill="#b75867" stroke="#b75867" points="419.81,-641.16 430.24,-639.29 420.92,-634.25 419.81,-641.16"/>
</g>
<!-- Functions -->
<g id="node25" class="node">
<title>Functions</title>
<g id="a_node25"><a xlink:href="../Functions.html" xlink:title="Functions" target="_parent">
<path fill="#273434" stroke="#b75867" d="M503.5,-628C503.5,-628 455.5,-628 455.5,-628 449.5,-628 443.5,-622 443.5,-616 443.5,-616 443.5,-604 443.5,-604 443.5,-598 449.5,-592 455.5,-592 455.5,-592 503.5,-592 503.5,-592 509.5,-592 515.5,-598 515.5,-604 515.5,-604 515.5,-616 515.5,-616 515.5,-622 509.5,-628 503.5,-628"/>
<text text-anchor="middle" x="479.5" y="-606.9" font-family="sans" font-size="12.00" fill="#c4c7c7">Functions</text>
</a>
</g>
</g>
<!-- Discrete Structures&#45;&gt;Functions -->
<g id="edge34" class="edge">
<title>Discrete Structures&#45;&gt;Functions</title>
<path fill="none" stroke="#b75867" d="M307.22,-610C346.6,-610 397.23,-610 433.2,-610"/>
<polygon fill="#b75867" stroke="#b75867" points="433.4,-613.5 443.4,-610 433.4,-606.5 433.4,-613.5"/>
</g>
<!-- Relations -->
<g id="node26" class="node">
<title>Relations</title>
<g id="a_node26"><a xlink:href="../Relations.html" xlink:title="Relations" target="_parent">
<path fill="#273434" stroke="#b75867" d="M502,-813C502,-813 457,-813 457,-813 451,-813 445,-807 445,-801 445,-801 445,-789 445,-789 445,-783 451,-777 457,-777 457,-777 502,-777 502,-777 508,-777 514,-783 514,-789 514,-789 514,-801 514,-801 514,-807 508,-813 502,-813"/>
<text text-anchor="middle" x="479.5" y="-791.9" font-family="sans" font-size="12.00" fill="#c4c7c7">Relations</text>
</a>
</g>
</g>
<!-- Discrete Structures&#45;&gt;Relations -->
<g id="edge35" class="edge">
<title>Discrete Structures&#45;&gt;Relations</title>
<path fill="none" stroke="#b75867" d="M307.02,-606.47C329.02,-608.5 352.14,-615.17 367,-632 387.77,-655.53 354.57,-749.18 375,-773 389.49,-789.9 413.45,-795.73 434.67,-797.18"/>
<polygon fill="#b75867" stroke="#b75867" points="434.69,-800.68 444.82,-797.57 434.96,-793.69 434.69,-800.68"/>
</g>
<!-- Logical Equivalences -->
<g id="node27" class="node">
<title>Logical Equivalences</title>
<g id="a_node27"><a xlink:href="../Logical Equivalences.html" xlink:title="Logical Equivalences" target="_parent">
<path fill="#273434" stroke="#b75867" d="M534,-776C534,-776 425,-776 425,-776 419,-776 413,-770 413,-764 413,-764 413,-752 413,-752 413,-746 419,-740 425,-740 425,-740 534,-740 534,-740 540,-740 546,-746 546,-752 546,-752 546,-764 546,-764 546,-770 540,-776 534,-776"/>
<text text-anchor="middle" x="479.5" y="-754.9" font-family="sans" font-size="12.00" fill="#c4c7c7">Logical Equivalences</text>
</a>
</g>
</g>
<!-- Discrete Structures&#45;&gt;Logical Equivalences -->
<g id="edge36" class="edge">
<title>Discrete Structures&#45;&gt;Logical Equivalences</title>
<path fill="none" stroke="#b75867" d="M307.15,-606.65C329.04,-608.74 352.05,-615.4 367,-632 382.51,-649.22 359.73,-718.56 375,-736 382.53,-744.61 392.53,-750.33 403.33,-754.06"/>
<polygon fill="#b75867" stroke="#b75867" points="402.42,-757.44 413,-756.85 404.36,-750.71 402.42,-757.44"/>
</g>
<!-- Logical Operators -->
<g id="node28" class="node">
<title>Logical Operators</title>
<g id="a_node28"><a xlink:href="../Logical Operators.html" xlink:title="Logical Operators" target="_parent">
<path fill="#273434" stroke="#b75867" d="M525.5,-739C525.5,-739 433.5,-739 433.5,-739 427.5,-739 421.5,-733 421.5,-727 421.5,-727 421.5,-715 421.5,-715 421.5,-709 427.5,-703 433.5,-703 433.5,-703 525.5,-703 525.5,-703 531.5,-703 537.5,-709 537.5,-715 537.5,-715 537.5,-727 537.5,-727 537.5,-733 531.5,-739 525.5,-739"/>
<text text-anchor="middle" x="479.5" y="-717.9" font-family="sans" font-size="12.00" fill="#c4c7c7">Logical Operators</text>
</a>
</g>
</g>
<!-- Discrete Structures&#45;&gt;Logical Operators -->
<g id="edge37" class="edge">
<title>Discrete Structures&#45;&gt;Logical Operators</title>
<path fill="none" stroke="#b75867" d="M307.1,-607.01C328.85,-609.18 351.77,-615.79 367,-632 387.53,-653.86 354.78,-676.86 375,-699 384.52,-709.42 397.65,-715.57 411.37,-719.07"/>
<polygon fill="#b75867" stroke="#b75867" points="410.91,-722.55 421.41,-721.18 412.34,-715.7 410.91,-722.55"/>
</g>
<!-- Advanced Algebra&#45;&gt;Knowledege Base -->
<g id="edge40" class="edge">
<title>Advanced Algebra&#45;&gt;Knowledege Base</title>
<path fill="none" stroke="#ffffff" d="M176.48,-242.76C158.39,-246.01 139.8,-252.06 125,-263 88.91,-289.67 71.03,-342.1 63.71,-369.83"/>
<polygon fill="#ffffff" stroke="#ffffff" points="177.1,-246.2 186.45,-241.22 176.03,-239.29 177.1,-246.2"/>
</g>
<!-- Differential Analysis&#45;&gt;Knowledege Base -->
<g id="edge43" class="edge">
<title>Differential Analysis&#45;&gt;Knowledege Base</title>
<path fill="none" stroke="#ffffff" d="M172.38,-572.46C155.39,-569.12 138.37,-562.92 125,-552 79.18,-514.57 65.19,-440.26 61.1,-406.03"/>
<polygon fill="#ffffff" stroke="#ffffff" points="171.91,-575.93 182.35,-574.11 173.06,-569.03 171.91,-575.93"/>
</g>
<!-- Differential Analysis&#45;&gt;Knowledege Base -->
<g id="edge44" class="edge">
<title>Differential Analysis&#45;&gt;Knowledege Base</title>
<path fill="none" stroke="#ffffff" d="M172.38,-573.43C155.39,-570.12 138.37,-563.92 125,-553 78.95,-515.37 65.05,-440.49 61.04,-406.06"/>
<polygon fill="#ffffff" stroke="#ffffff" points="171.92,-576.9 182.35,-575.06 173.05,-569.99 171.92,-576.9"/>
</g>
<!-- Differential Analysis&#45;&gt;Subjects -->
<g id="edge42" class="edge">
<title>Differential Analysis&#45;&gt;Subjects</title>
<path fill="none" stroke="#ffffff" d="M319.72,-573C362.39,-573 414.17,-573 446.73,-573"/>
<polygon fill="#ffffff" stroke="#ffffff" points="319.65,-569.5 309.65,-573 319.65,-576.5 319.65,-569.5"/>
</g>
<!-- Set -->
<g id="node29" class="node">
<title>Set</title>
<g id="a_node29"><a xlink:href="../Set.html" xlink:title="Set" target="_parent">
<path fill="#273434" stroke="#b75867" d="M494.5,-554C494.5,-554 464.5,-554 464.5,-554 458.5,-554 452.5,-548 452.5,-542 452.5,-542 452.5,-530 452.5,-530 452.5,-524 458.5,-518 464.5,-518 464.5,-518 494.5,-518 494.5,-518 500.5,-518 506.5,-524 506.5,-530 506.5,-530 506.5,-542 506.5,-542 506.5,-548 500.5,-554 494.5,-554"/>
<text text-anchor="middle" x="479.5" y="-532.9" font-family="sans" font-size="12.00" fill="#c4c7c7">Set</text>
</a>
</g>
</g>
<!-- Differential Analysis&#45;&gt;Set -->
<g id="edge41" class="edge">
<title>Differential Analysis&#45;&gt;Set</title>
<path fill="none" stroke="#b75867" d="M309.65,-562.99C352.18,-556.19 406.93,-547.44 442.37,-541.78"/>
<polygon fill="#b75867" stroke="#b75867" points="442.94,-545.23 452.27,-540.19 441.84,-538.32 442.94,-545.23"/>
</g>
<!-- Introduction to programming&#45;&gt;Knowledege Base -->
<g id="edge45" class="edge">
<title>Introduction to programming&#45;&gt;Knowledege Base</title>
<path fill="none" stroke="#ffffff" d="M145.07,-213.89C137.86,-217.08 131.05,-221.05 125,-226 79.77,-262.95 65.56,-335.83 61.27,-369.79"/>
<polygon fill="#ffffff" stroke="#ffffff" points="146.35,-217.15 154.39,-210.26 143.81,-210.62 146.35,-217.15"/>
</g>
<!-- Analytic Geometry&#45;&gt;Knowledege Base -->
<g id="edge46" class="edge">
<title>Analytic Geometry&#45;&gt;Knowledege Base</title>
<path fill="none" stroke="#ffffff" d="M175.25,-167.23C157.15,-170.47 138.87,-176.89 125,-189 70.51,-236.58 61.13,-330.2 59.67,-369.72"/>
<polygon fill="#ffffff" stroke="#ffffff" points="175.88,-170.67 185.25,-165.74 174.85,-163.75 175.88,-170.67"/>
</g>
<!-- Linear Algebra&#45;&gt;Knowledege Base -->
<g id="edge54" class="edge">
<title>Linear Algebra&#45;&gt;Knowledege Base</title>
<path fill="none" stroke="#ffffff" d="M186.79,-536.69C165.64,-534.12 142.64,-528.03 125,-515 88.32,-487.9 70.45,-434.16 63.36,-406.07"/>
<polygon fill="#ffffff" stroke="#ffffff" points="186.69,-540.19 196.98,-537.68 187.37,-533.23 186.69,-540.19"/>
</g>
<!-- Linear Algebra&#45;&gt;Subjects -->
<g id="edge53" class="edge">
<title>Linear Algebra&#45;&gt;Subjects</title>
<path fill="none" stroke="#ffffff" d="M305.16,-545.3C350.12,-552.48 410.63,-562.15 446.98,-567.96"/>
<polygon fill="#ffffff" stroke="#ffffff" points="305.68,-541.83 295.25,-543.71 304.57,-548.75 305.68,-541.83"/>
</g>
<!-- Matrix -->
<g id="node30" class="node">
<title>Matrix</title>
<g id="a_node30"><a xlink:href="../Matrix.html" xlink:title="Matrix" target="_parent">
<path fill="#273434" stroke="#b75867" d="M494.5,-406C494.5,-406 464.5,-406 464.5,-406 458.5,-406 452.5,-400 452.5,-394 452.5,-394 452.5,-382 452.5,-382 452.5,-376 458.5,-370 464.5,-370 464.5,-370 494.5,-370 494.5,-370 500.5,-370 506.5,-376 506.5,-382 506.5,-382 506.5,-394 506.5,-394 506.5,-400 500.5,-406 494.5,-406"/>
<text text-anchor="middle" x="479.5" y="-384.9" font-family="sans" font-size="12.00" fill="#c4c7c7">Matrix</text>
</a>
</g>
</g>
<!-- Linear Algebra&#45;&gt;Matrix -->
<g id="edge47" class="edge">
<title>Linear Algebra&#45;&gt;Matrix</title>
<path fill="none" stroke="#b75867" d="M295.19,-540.07C320.26,-539.38 349.28,-533.67 367,-514 382.51,-496.78 359.73,-427.44 375,-410 391.37,-391.3 419.34,-386.22 442.08,-385.59"/>
<polygon fill="#b75867" stroke="#b75867" points="442.1,-389.09 452.1,-385.58 442.1,-382.09 442.1,-389.09"/>
</g>
<!-- Bijective function -->
<g id="node31" class="node">
<title>Bijective function</title>
<g id="a_node31"><a xlink:href="../Bijective function.html" xlink:title="Bijective function" target="_parent">
<path fill="#273434" stroke="#b75867" d="M524.5,-369C524.5,-369 434.5,-369 434.5,-369 428.5,-369 422.5,-363 422.5,-357 422.5,-357 422.5,-345 422.5,-345 422.5,-339 428.5,-333 434.5,-333 434.5,-333 524.5,-333 524.5,-333 530.5,-333 536.5,-339 536.5,-345 536.5,-345 536.5,-357 536.5,-357 536.5,-363 530.5,-369 524.5,-369"/>
<text text-anchor="middle" x="479.5" y="-347.9" font-family="sans" font-size="12.00" fill="#c4c7c7">Bijective function</text>
</a>
</g>
</g>
<!-- Linear Algebra&#45;&gt;Bijective function -->
<g id="edge48" class="edge">
<title>Linear Algebra&#45;&gt;Bijective function</title>
<path fill="none" stroke="#b75867" d="M295.05,-540.22C320.23,-539.61 349.41,-533.93 367,-514 387.77,-490.47 354.57,-396.82 375,-373 384.52,-361.9 398.14,-355.57 412.37,-352.13"/>
<polygon fill="#b75867" stroke="#b75867" points="413.15,-355.54 422.28,-350.18 411.8,-348.68 413.15,-355.54"/>
</g>
<!-- Injective function -->
<g id="node32" class="node">
<title>Injective function</title>
<g id="a_node32"><a xlink:href="../Injective function.html" xlink:title="Injective function" target="_parent">
<path fill="#273434" stroke="#b75867" d="M524.5,-332C524.5,-332 434.5,-332 434.5,-332 428.5,-332 422.5,-326 422.5,-320 422.5,-320 422.5,-308 422.5,-308 422.5,-302 428.5,-296 434.5,-296 434.5,-296 524.5,-296 524.5,-296 530.5,-296 536.5,-302 536.5,-308 536.5,-308 536.5,-320 536.5,-320 536.5,-326 530.5,-332 524.5,-332"/>
<text text-anchor="middle" x="479.5" y="-310.9" font-family="sans" font-size="12.00" fill="#c4c7c7">Injective function</text>
</a>
</g>
</g>
<!-- Linear Algebra&#45;&gt;Injective function -->
<g id="edge49" class="edge">
<title>Linear Algebra&#45;&gt;Injective function</title>
<path fill="none" stroke="#b75867" d="M295.14,-540.3C320.35,-539.71 349.53,-534.03 367,-514 380.01,-499.08 362.2,-351.1 375,-336 384.51,-324.79 398.18,-318.43 412.5,-315"/>
<polygon fill="#b75867" stroke="#b75867" points="413.31,-318.4 422.46,-313.06 411.98,-311.53 413.31,-318.4"/>
</g>
<!-- Surjective function -->
<g id="node33" class="node">
<title>Surjective function</title>
<g id="a_node33"><a xlink:href="../Surjective function.html" xlink:title="Surjective function" target="_parent">
<path fill="#273434" stroke="#b75867" d="M528.5,-517C528.5,-517 430.5,-517 430.5,-517 424.5,-517 418.5,-511 418.5,-505 418.5,-505 418.5,-493 418.5,-493 418.5,-487 424.5,-481 430.5,-481 430.5,-481 528.5,-481 528.5,-481 534.5,-481 540.5,-487 540.5,-493 540.5,-493 540.5,-505 540.5,-505 540.5,-511 534.5,-517 528.5,-517"/>
<text text-anchor="middle" x="479.5" y="-495.9" font-family="sans" font-size="12.00" fill="#c4c7c7">Surjective function</text>
</a>
</g>
</g>
<!-- Linear Algebra&#45;&gt;Surjective function -->
<g id="edge50" class="edge">
<title>Linear Algebra&#45;&gt;Surjective function</title>
<path fill="none" stroke="#b75867" d="M295.25,-528.29C327.95,-523.06 371.71,-516.07 408.26,-510.23"/>
<polygon fill="#b75867" stroke="#b75867" points="409.04,-513.65 418.36,-508.61 407.93,-506.73 409.04,-513.65"/>
</g>
<!-- Kronecker Delta -->
<g id="node34" class="node">
<title>Kronecker Delta</title>
<g id="a_node34"><a xlink:href="../Kronecker Delta.html" xlink:title="Kronecker Delta" target="_parent">
<path fill="#273434" stroke="#b75867" d="M521,-480C521,-480 438,-480 438,-480 432,-480 426,-474 426,-468 426,-468 426,-456 426,-456 426,-450 432,-444 438,-444 438,-444 521,-444 521,-444 527,-444 533,-450 533,-456 533,-456 533,-468 533,-468 533,-474 527,-480 521,-480"/>
<text text-anchor="middle" x="479.5" y="-458.9" font-family="sans" font-size="12.00" fill="#c4c7c7">Kronecker Delta</text>
</a>
</g>
</g>
<!-- Linear Algebra&#45;&gt;Kronecker Delta -->
<g id="edge51" class="edge">
<title>Linear Algebra&#45;&gt;Kronecker Delta</title>
<path fill="none" stroke="#b75867" d="M295.02,-538.67C319.41,-537.45 347.86,-531.68 367,-514 377.14,-504.64 365,-493.5 375,-484 386.14,-473.41 401.06,-467.4 416.09,-464.09"/>
<polygon fill="#b75867" stroke="#b75867" points="416.74,-467.53 425.95,-462.29 415.48,-460.65 416.74,-467.53"/>
</g>
<!-- Fundamental Theorem of Algebra -->
<g id="node35" class="node">
<title>Fundamental Theorem of Algebra</title>
<g id="a_node35"><a xlink:href="../Fundamental Theorem of Algebra.html" xlink:title="Fundamental Theorem of Algebra" target="_parent">
<path fill="#273434" stroke="#b75867" d="M572,-443C572,-443 387,-443 387,-443 381,-443 375,-437 375,-431 375,-431 375,-419 375,-419 375,-413 381,-407 387,-407 387,-407 572,-407 572,-407 578,-407 584,-413 584,-419 584,-419 584,-431 584,-431 584,-437 578,-443 572,-443"/>
<text text-anchor="middle" x="479.5" y="-421.9" font-family="sans" font-size="12.00" fill="#c4c7c7">Fundamental Theorem of Algebra</text>
</a>
</g>
</g>
<!-- Linear Algebra&#45;&gt;Fundamental Theorem of Algebra -->
<g id="edge52" class="edge">
<title>Linear Algebra&#45;&gt;Fundamental Theorem of Algebra</title>
<path fill="none" stroke="#b75867" d="M295.17,-539.76C320.07,-538.95 348.95,-533.22 367,-514 385.37,-494.45 361.09,-473.98 373.03,-451.27"/>
<polygon fill="#b75867" stroke="#b75867" points="375.88,-453.3 378.89,-443.14 370.21,-449.21 375.88,-453.3"/>
</g>
<!-- Org Roam&#45;&gt;Knowledege Base -->
<g id="edge57" class="edge">
<title>Org Roam&#45;&gt;Knowledege Base</title>
<path fill="none" stroke="#ffffff" d="M199.93,-127.15C174.94,-128.2 144.98,-133.71 125,-152 92.25,-181.98 69.48,-319.7 62.09,-369.75"/>
<polygon fill="#ffffff" stroke="#ffffff" points="200.01,-130.65 209.93,-126.94 199.86,-123.65 200.01,-130.65"/>
</g>
<!-- index -->
<g id="node36" class="node">
<title>index</title>
<g id="a_node36"><a xlink:href="../index.html" xlink:title="index" target="_parent">
<path fill="none" stroke="#b75867" d="M494.5,-184C494.5,-184 464.5,-184 464.5,-184 458.5,-184 452.5,-178 452.5,-172 452.5,-172 452.5,-160 452.5,-160 452.5,-154 458.5,-148 464.5,-148 464.5,-148 494.5,-148 494.5,-148 500.5,-148 506.5,-154 506.5,-160 506.5,-160 506.5,-172 506.5,-172 506.5,-178 500.5,-184 494.5,-184"/>
<text text-anchor="middle" x="479.5" y="-162.9" font-family="sans" font-size="12.00" fill="#c4c7c7">index</text>
</a>
</g>
</g>
<!-- Org Roam&#45;&gt;index -->
<g id="edge55" class="edge">
<title>Org Roam&#45;&gt;index</title>
<path fill="none" stroke="#ffffff" d="M292.22,-136.23C339.94,-143.85 413.51,-155.61 452.37,-161.82"/>
<polygon fill="#ffffff" stroke="#ffffff" points="292.59,-132.74 282.16,-134.62 291.48,-139.65 292.59,-132.74"/>
</g>
<!-- Bad Habit -->
<g id="node37" class="node">
<title>Bad Habit</title>
<g id="a_node37"><a xlink:href="../Bad Habit.html" xlink:title="Bad Habit" target="_parent">
<path fill="none" stroke="#b75867" d="M504,-147C504,-147 455,-147 455,-147 449,-147 443,-141 443,-135 443,-135 443,-123 443,-123 443,-117 449,-111 455,-111 455,-111 504,-111 504,-111 510,-111 516,-117 516,-123 516,-123 516,-135 516,-135 516,-141 510,-147 504,-147"/>
<text text-anchor="middle" x="479.5" y="-125.9" font-family="sans" font-size="12.00" fill="#c4c7c7">Bad Habit</text>
</a>
</g>
</g>
<!-- Org Roam&#45;&gt;Bad Habit -->
<g id="edge56" class="edge">
<title>Org Roam&#45;&gt;Bad Habit</title>
<path fill="none" stroke="#ffffff" d="M292.29,-129C336.27,-129 402.16,-129 442.63,-129"/>
<polygon fill="#ffffff" stroke="#ffffff" points="292.16,-125.5 282.16,-129 292.16,-132.5 292.16,-125.5"/>
</g>
<!-- Org&#45;mode&#45;&gt;Knowledege Base -->
<g id="edge58" class="edge">
<title>Org&#45;mode&#45;&gt;Knowledege Base</title>
<path fill="none" stroke="#ffffff" d="M198.72,-52.72C173.75,-53.71 144.2,-59.3 125,-78 82.61,-119.29 65.27,-309.73 60.76,-369.8"/>
<polygon fill="#ffffff" stroke="#ffffff" points="198.8,-56.22 208.74,-52.55 198.68,-49.22 198.8,-56.22"/>
</g>
<!-- Projects&#45;&gt;Knowledege Base -->
<g id="edge62" class="edge">
<title>Projects&#45;&gt;Knowledege Base</title>
<path fill="none" stroke="#b75867" d="M214.83,-89.8C187.79,-89.11 148.82,-92.41 125,-115 89.52,-148.64 69.51,-296.86 62.44,-359.69"/>
<polygon fill="#b75867" stroke="#b75867" points="58.96,-359.38 61.35,-369.7 65.92,-360.14 58.96,-359.38"/>
</g>
<!-- Projects&#45;&gt;Bad Habit -->
<g id="edge63" class="edge">
<title>Projects&#45;&gt;Bad Habit</title>
<path fill="none" stroke="#ffffff" d="M287.31,-98.44C331.26,-105.47 400.92,-116.6 442.91,-123.31"/>
<polygon fill="#ffffff" stroke="#ffffff" points="287.69,-94.96 277.26,-96.84 286.59,-101.87 287.69,-94.96"/>
</g>
<!-- pulsebinder -->
<g id="node38" class="node">
<title>pulsebinder</title>
<g id="a_node38"><a xlink:href="../pulsebinder.html" xlink:title="pulsebinder" target="_parent">
<path fill="#273434" stroke="#b75867" d="M509.5,-110C509.5,-110 449.5,-110 449.5,-110 443.5,-110 437.5,-104 437.5,-98 437.5,-98 437.5,-86 437.5,-86 437.5,-80 443.5,-74 449.5,-74 449.5,-74 509.5,-74 509.5,-74 515.5,-74 521.5,-80 521.5,-86 521.5,-86 521.5,-98 521.5,-98 521.5,-104 515.5,-110 509.5,-110"/>
<text text-anchor="middle" x="479.5" y="-88.9" font-family="sans" font-size="12.00" fill="#c4c7c7">pulsebinder</text>
</a>
</g>
</g>
<!-- Projects&#45;&gt;pulsebinder -->
<g id="edge59" class="edge">
<title>Projects&#45;&gt;pulsebinder</title>
<path fill="none" stroke="#b75867" d="M277.26,-92C315.32,-92 381.23,-92 427.22,-92"/>
<polygon fill="#b75867" stroke="#b75867" points="427.29,-95.5 437.29,-92 427.29,-88.5 427.29,-95.5"/>
</g>
<!-- kaltemplate -->
<g id="node39" class="node">
<title>kaltemplate</title>
<g id="a_node39"><a xlink:href="../kaltemplate.html" xlink:title="kaltemplate" target="_parent">
<path fill="#273434" stroke="#b75867" d="M510.5,-73C510.5,-73 448.5,-73 448.5,-73 442.5,-73 436.5,-67 436.5,-61 436.5,-61 436.5,-49 436.5,-49 436.5,-43 442.5,-37 448.5,-37 448.5,-37 510.5,-37 510.5,-37 516.5,-37 522.5,-43 522.5,-49 522.5,-49 522.5,-61 522.5,-61 522.5,-67 516.5,-73 510.5,-73"/>
<text text-anchor="middle" x="479.5" y="-51.9" font-family="sans" font-size="12.00" fill="#c4c7c7">kaltemplate</text>
</a>
</g>
</g>
<!-- Projects&#45;&gt;kaltemplate -->
<g id="edge60" class="edge">
<title>Projects&#45;&gt;kaltemplate</title>
<path fill="none" stroke="#b75867" d="M277.26,-87.16C315.09,-81.12 380.45,-70.67 426.39,-63.33"/>
<polygon fill="#b75867" stroke="#b75867" points="427.14,-66.75 436.46,-61.72 426.03,-59.84 427.14,-66.75"/>
</g>
<!-- kaltask -->
<g id="node40" class="node">
<title>kaltask</title>
<g id="a_node40"><a xlink:href="../kaltask.html" xlink:title="kaltask" target="_parent">
<path fill="#273434" stroke="#b75867" d="M496,-36C496,-36 463,-36 463,-36 457,-36 451,-30 451,-24 451,-24 451,-12 451,-12 451,-6 457,0 463,0 463,0 496,0 496,0 502,0 508,-6 508,-12 508,-12 508,-24 508,-24 508,-30 502,-36 496,-36"/>
<text text-anchor="middle" x="479.5" y="-14.9" font-family="sans" font-size="12.00" fill="#c4c7c7">kaltask</text>
</a>
</g>
</g>
<!-- Projects&#45;&gt;kaltask -->
<g id="edge61" class="edge">
<title>Projects&#45;&gt;kaltask</title>
<path fill="none" stroke="#b75867" d="M277.04,-94.83C303.98,-95.64 342.88,-92.28 367,-70 377.14,-60.64 365,-49.5 375,-40 392.28,-23.58 418.64,-18.15 440.43,-16.8"/>
<polygon fill="#b75867" stroke="#b75867" points="440.83,-20.28 450.7,-16.42 440.58,-13.29 440.83,-20.28"/>
</g>
</g>
</svg>
