<?xml version="1.0" encoding="UTF-8" standalone="no"?>
<!DOCTYPE svg PUBLIC "-//W3C//DTD SVG 1.1//EN"
 "http://www.w3.org/Graphics/SVG/1.1/DTD/svg11.dtd">
<!-- Generated by graphviz version 2.44.0 (0)
 -->
<!-- Title: Kronecker Delta Pages: 1 -->
<svg width="1004pt" height="116pt"
 viewBox="0.00 0.00 1003.78 116.00" xmlns="http://www.w3.org/2000/svg" xmlns:xlink="http://www.w3.org/1999/xlink">
<g id="page0,1_graph0" class="graph" transform="scale(1 1) rotate(0) translate(4 112)">
<title>Kronecker Delta</title>
<polygon fill="#132020" stroke="transparent" points="-4,4 -4,-112 999.78,-112 999.78,4 -4,4"/>
<!-- Kronecker Delta -->
<g id="node1" class="node">
<title>Kronecker Delta</title>
<g id="a_node1"><a xlink:title="Kronecker Delta">
<path fill="#273434" stroke="#b75867" d="M520.78,-108C520.78,-108 437.78,-108 437.78,-108 431.78,-108 425.78,-102 425.78,-96 425.78,-96 425.78,-84 425.78,-84 425.78,-78 431.78,-72 437.78,-72 437.78,-72 520.78,-72 520.78,-72 526.78,-72 532.78,-78 532.78,-84 532.78,-84 532.78,-96 532.78,-96 532.78,-102 526.78,-108 520.78,-108"/>
<text text-anchor="middle" x="479.28" y="-86.9" font-family="sans" font-size="12.00" fill="#c4c7c7">Kronecker Delta</text>
</a>
</g>
</g>
<!-- Fundamental polynomials of Lagrange -->
<g id="node2" class="node">
<title>Fundamental polynomials of Lagrange</title>
<g id="a_node2"><a xlink:title="Fundamental polynomials of Lagrange">
<ellipse fill="#273434" stroke="#b75867" cx="145.28" cy="-18" rx="145.06" ry="18"/>
<text text-anchor="middle" x="145.28" y="-14.9" font-family="sans" font-size="12.00" fill="#c4c7c7">Fundamental polynomials of Lagrange</text>
</a>
</g>
</g>
<!-- Kronecker Delta&#45;&gt;Fundamental polynomials of Lagrange -->
<g id="edge1" class="edge">
<title>Kronecker Delta&#45;&gt;Fundamental polynomials of Lagrange</title>
<path fill="none" stroke="#ffffff" d="M415.62,-75.66C358.49,-63.69 274.78,-46.14 215.67,-33.75"/>
<polygon fill="#ffffff" stroke="#ffffff" points="415.11,-79.13 425.62,-77.75 416.55,-72.28 415.11,-79.13"/>
</g>
<!-- Linear Algebra -->
<g id="node3" class="node">
<title>Linear Algebra</title>
<g id="a_node3"><a xlink:title="Linear Algebra">
<ellipse fill="#273434" stroke="#b75867" cx="369.28" cy="-18" rx="60.16" ry="18"/>
<text text-anchor="middle" x="369.28" y="-14.9" font-family="sans" font-size="12.00" fill="#c4c7c7">Linear Algebra</text>
</a>
</g>
</g>
<!-- Kronecker Delta&#45;&gt;Linear Algebra -->
<g id="edge2" class="edge">
<title>Kronecker Delta&#45;&gt;Linear Algebra</title>
<path fill="none" stroke="#ffffff" d="M443.61,-66.3C427.27,-55.9 408.33,-43.85 393.66,-34.51"/>
<polygon fill="#ffffff" stroke="#ffffff" points="442.05,-69.46 452.37,-71.88 445.81,-63.55 442.05,-69.46"/>
</g>
<!-- Formula of Lagrange for Interpolation -->
<g id="node4" class="node">
<title>Formula of Lagrange for Interpolation</title>
<g id="a_node4"><a xlink:title="Formula of Lagrange for Interpolation">
<ellipse fill="#273434" stroke="#b75867" cx="590.28" cy="-18" rx="142.4" ry="18"/>
<text text-anchor="middle" x="590.28" y="-14.9" font-family="sans" font-size="12.00" fill="#c4c7c7">Formula of Lagrange for Interpolation</text>
</a>
</g>
</g>
<!-- Kronecker Delta&#45;&gt;Formula of Lagrange for Interpolation -->
<g id="edge3" class="edge">
<title>Kronecker Delta&#45;&gt;Formula of Lagrange for Interpolation</title>
<path fill="none" stroke="#ffffff" d="M514.95,-66.5C530.82,-56.5 549.17,-44.92 563.79,-35.71"/>
<polygon fill="#ffffff" stroke="#ffffff" points="513.02,-63.58 506.43,-71.88 516.76,-69.5 513.02,-63.58"/>
</g>
<!-- Lagrange Interpolation Problem -->
<g id="node5" class="node">
<title>Lagrange Interpolation Problem</title>
<g id="a_node5"><a xlink:title="Lagrange Interpolation Problem">
<ellipse fill="#273434" stroke="#b75867" cx="873.28" cy="-18" rx="122.5" ry="18"/>
<text text-anchor="middle" x="873.28" y="-14.9" font-family="sans" font-size="12.00" fill="#c4c7c7">Lagrange Interpolation Problem</text>
</a>
</g>
</g>
<!-- Kronecker Delta&#45;&gt;Lagrange Interpolation Problem -->
<g id="edge4" class="edge">
<title>Kronecker Delta&#45;&gt;Lagrange Interpolation Problem</title>
<path fill="none" stroke="#ffffff" d="M542.8,-77.72C612.51,-65.33 724.32,-45.46 798.29,-32.32"/>
<polygon fill="#ffffff" stroke="#ffffff" points="542.06,-74.29 532.83,-79.49 543.28,-81.18 542.06,-74.29"/>
</g>
</g>
</svg>
