<?xml version="1.0" encoding="UTF-8" standalone="no"?>
<!DOCTYPE svg PUBLIC "-//W3C//DTD SVG 1.1//EN"
 "http://www.w3.org/Graphics/SVG/1.1/DTD/svg11.dtd">
<!-- Generated by graphviz version 2.44.0 (0)
 -->
<!-- Title: Kronecker Delta Pages: 1 -->
<svg width="946pt" height="306pt"
 viewBox="0.00 0.00 946.00 306.00" xmlns="http://www.w3.org/2000/svg" xmlns:xlink="http://www.w3.org/1999/xlink">
<g id="page0,1_graph0" class="graph" transform="scale(1 1) rotate(0) translate(4 302)">
<title>Kronecker Delta</title>
<polygon fill="#132020" stroke="transparent" points="-4,4 -4,-302 942,-302 942,4 -4,4"/>
<!-- Kronecker Delta -->
<g id="node1" class="node">
<title>Kronecker Delta</title>
<g id="a_node1"><a xlink:href="../Kronecker Delta.html" xlink:title="Kronecker Delta" target="_parent">
<path fill="#273434" stroke="#b75867" d="M95,-261C95,-261 12,-261 12,-261 6,-261 0,-255 0,-249 0,-249 0,-237 0,-237 0,-231 6,-225 12,-225 12,-225 95,-225 95,-225 101,-225 107,-231 107,-237 107,-237 107,-249 107,-249 107,-255 101,-261 95,-261"/>
<text text-anchor="middle" x="53.5" y="-239.9" font-family="sans" font-size="12.00" fill="#c4c7c7">Kronecker Delta</text>
</a>
</g>
</g>
<!-- Fundamental polynomials of Lagrange -->
<g id="node2" class="node">
<title>Fundamental polynomials of Lagrange</title>
<g id="a_node2"><a xlink:href="../Fundamental polynomials of Lagrange.html" xlink:title="Fundamental polynomials of Lagrange" target="_parent">
<path fill="none" stroke="#b75867" d="M339,-251C339,-251 127,-251 127,-251 121,-251 115,-245 115,-239 115,-239 115,-227 115,-227 115,-221 121,-215 127,-215 127,-215 339,-215 339,-215 345,-215 351,-221 351,-227 351,-227 351,-239 351,-239 351,-245 345,-251 339,-251"/>
<text text-anchor="middle" x="233" y="-229.9" font-family="sans" font-size="12.00" fill="#c4c7c7">Fundamental polynomials of Lagrange</text>
</a>
</g>
</g>
<!-- Kronecker Delta&#45;&gt;Fundamental polynomials of Lagrange -->
<g id="edge1" class="edge">
<title>Kronecker Delta&#45;&gt;Fundamental polynomials of Lagrange</title>
<path fill="none" stroke="#ffffff" d="M114.28,-239.63C114.44,-239.62 114.6,-239.61 114.76,-239.61"/>
<polygon fill="#ffffff" stroke="#ffffff" points="117.06,-235.97 107.28,-240.03 117.46,-242.96 117.06,-235.97"/>
</g>
<!-- Linear Algebra -->
<g id="node3" class="node">
<title>Linear Algebra</title>
<g id="a_node3"><a xlink:href="../Linear Algebra.html" xlink:title="Linear Algebra" target="_parent">
<path fill="none" stroke="#b75867" d="M270,-184C270,-184 196,-184 196,-184 190,-184 184,-178 184,-172 184,-172 184,-160 184,-160 184,-154 190,-148 196,-148 196,-148 270,-148 270,-148 276,-148 282,-154 282,-160 282,-160 282,-172 282,-172 282,-178 276,-184 270,-184"/>
<text text-anchor="middle" x="233" y="-162.9" font-family="sans" font-size="12.00" fill="#c4c7c7">Linear Algebra</text>
</a>
</g>
</g>
<!-- Kronecker Delta&#45;&gt;Linear Algebra -->
<g id="edge2" class="edge">
<title>Kronecker Delta&#45;&gt;Linear Algebra</title>
<path fill="none" stroke="#ffffff" d="M100.66,-220.54C105.48,-218.29 110.33,-216.08 115,-214 138.27,-203.66 164.48,-192.83 186.18,-184.09"/>
<polygon fill="#ffffff" stroke="#ffffff" points="99.01,-217.44 91.46,-224.87 102,-223.78 99.01,-217.44"/>
</g>
<!-- Formula of Lagrange for Interpolation -->
<g id="node4" class="node">
<title>Formula of Lagrange for Interpolation</title>
<g id="a_node4"><a xlink:href="../Formula of Lagrange for Interpolation.html" xlink:title="Formula of Lagrange for Interpolation" target="_parent">
<path fill="none" stroke="#b75867" d="M855.5,-298C855.5,-298 648.5,-298 648.5,-298 642.5,-298 636.5,-292 636.5,-286 636.5,-286 636.5,-274 636.5,-274 636.5,-268 642.5,-262 648.5,-262 648.5,-262 855.5,-262 855.5,-262 861.5,-262 867.5,-268 867.5,-274 867.5,-274 867.5,-286 867.5,-286 867.5,-292 861.5,-298 855.5,-298"/>
<text text-anchor="middle" x="752" y="-276.9" font-family="sans" font-size="12.00" fill="#c4c7c7">Formula of Lagrange for Interpolation</text>
</a>
</g>
</g>
<!-- Kronecker Delta&#45;&gt;Formula of Lagrange for Interpolation -->
<g id="edge3" class="edge">
<title>Kronecker Delta&#45;&gt;Formula of Lagrange for Interpolation</title>
<path fill="none" stroke="#ffffff" d="M117.29,-251.13C304.37,-267.41 511.24,-274.59 636.49,-277.74"/>
<polygon fill="#ffffff" stroke="#ffffff" points="117.53,-247.64 107.26,-250.25 116.92,-254.61 117.53,-247.64"/>
</g>
<!-- Lagrange Interpolation Problem -->
<g id="node5" class="node">
<title>Lagrange Interpolation Problem</title>
<g id="a_node5"><a xlink:href="../Lagrange Interpolation Problem.html" xlink:title="Lagrange Interpolation Problem" target="_parent">
<path fill="none" stroke="#b75867" d="M546,-261C546,-261 371,-261 371,-261 365,-261 359,-255 359,-249 359,-249 359,-237 359,-237 359,-231 365,-225 371,-225 371,-225 546,-225 546,-225 552,-225 558,-231 558,-237 558,-237 558,-249 558,-249 558,-255 552,-261 546,-261"/>
<text text-anchor="middle" x="458.5" y="-239.9" font-family="sans" font-size="12.00" fill="#c4c7c7">Lagrange Interpolation Problem</text>
</a>
</g>
</g>
<!-- Kronecker Delta&#45;&gt;Lagrange Interpolation Problem -->
<g id="edge4" class="edge">
<title>Kronecker Delta&#45;&gt;Lagrange Interpolation Problem</title>
<path fill="none" stroke="#ffffff" d="M117.58,-248.04C221.52,-252.21 249.42,-250.38 351,-248 353.59,-247.94 356.22,-247.87 358.87,-247.79"/>
<polygon fill="#ffffff" stroke="#ffffff" points="117.41,-244.53 107.28,-247.62 117.13,-251.53 117.41,-244.53"/>
</g>
<!-- Fundamental polynomials of Lagrange&#45;&gt;Kronecker Delta -->
<g id="edge5" class="edge">
<title>Fundamental polynomials of Lagrange&#45;&gt;Kronecker Delta</title>
<path fill="none" stroke="#b75867" d="M114.76,-240.32C114.6,-240.33 114.44,-240.34 114.28,-240.35"/>
<polygon fill="#b75867" stroke="#b75867" points="117.07,-236.69 107.28,-240.72 117.45,-243.68 117.07,-236.69"/>
</g>
<!-- Fundamental polynomials of Lagrange&#45;&gt;Lagrange Interpolation Problem -->
<g id="edge6" class="edge">
<title>Fundamental polynomials of Lagrange&#45;&gt;Lagrange Interpolation Problem</title>
<path fill="none" stroke="#ffffff" d="M358.41,-238.57C358.57,-238.57 358.73,-238.58 358.89,-238.59"/>
<polygon fill="#ffffff" stroke="#ffffff" points="361.46,-235.2 351.31,-238.25 361.15,-242.19 361.46,-235.2"/>
</g>
<!-- Linear Algebra&#45;&gt;Kronecker Delta -->
<g id="edge11" class="edge">
<title>Linear Algebra&#45;&gt;Kronecker Delta</title>
<path fill="none" stroke="#b75867" d="M188.41,-184.09C166.29,-193.09 139.08,-204.3 115,-215 110.94,-216.8 106.74,-218.72 102.55,-220.66"/>
<polygon fill="#b75867" stroke="#b75867" points="100.98,-217.53 93.4,-224.93 103.94,-223.87 100.98,-217.53"/>
</g>
<!-- Matrix -->
<g id="node6" class="node">
<title>Matrix</title>
<g id="a_node6"><a xlink:href="../Matrix.html" xlink:title="Matrix" target="_parent">
<path fill="#273434" stroke="#b75867" d="M473.5,-221C473.5,-221 443.5,-221 443.5,-221 437.5,-221 431.5,-215 431.5,-209 431.5,-209 431.5,-197 431.5,-197 431.5,-191 437.5,-185 443.5,-185 443.5,-185 473.5,-185 473.5,-185 479.5,-185 485.5,-191 485.5,-197 485.5,-197 485.5,-209 485.5,-209 485.5,-215 479.5,-221 473.5,-221"/>
<text text-anchor="middle" x="458.5" y="-199.9" font-family="sans" font-size="12.00" fill="#c4c7c7">Matrix</text>
</a>
</g>
</g>
<!-- Linear Algebra&#45;&gt;Matrix -->
<g id="edge7" class="edge">
<title>Linear Algebra&#45;&gt;Matrix</title>
<path fill="none" stroke="#b75867" d="M282.22,-173.98C323.98,-180.9 383.46,-190.74 421.27,-197"/>
<polygon fill="#b75867" stroke="#b75867" points="420.89,-200.49 431.32,-198.67 422.03,-193.58 420.89,-200.49"/>
</g>
<!-- Bijective function -->
<g id="node7" class="node">
<title>Bijective function</title>
<g id="a_node7"><a xlink:href="../Bijective function.html" xlink:title="Bijective function" target="_parent">
<path fill="#273434" stroke="#b75867" d="M503.5,-184C503.5,-184 413.5,-184 413.5,-184 407.5,-184 401.5,-178 401.5,-172 401.5,-172 401.5,-160 401.5,-160 401.5,-154 407.5,-148 413.5,-148 413.5,-148 503.5,-148 503.5,-148 509.5,-148 515.5,-154 515.5,-160 515.5,-160 515.5,-172 515.5,-172 515.5,-178 509.5,-184 503.5,-184"/>
<text text-anchor="middle" x="458.5" y="-162.9" font-family="sans" font-size="12.00" fill="#c4c7c7">Bijective function</text>
</a>
</g>
</g>
<!-- Linear Algebra&#45;&gt;Bijective function -->
<g id="edge8" class="edge">
<title>Linear Algebra&#45;&gt;Bijective function</title>
<path fill="none" stroke="#b75867" d="M282.22,-166C314.11,-166 356.32,-166 391.34,-166"/>
<polygon fill="#b75867" stroke="#b75867" points="391.48,-169.5 401.48,-166 391.48,-162.5 391.48,-169.5"/>
</g>
<!-- Injective function -->
<g id="node8" class="node">
<title>Injective function</title>
<g id="a_node8"><a xlink:href="../Injective function.html" xlink:title="Injective function" target="_parent">
<path fill="#273434" stroke="#b75867" d="M503.5,-147C503.5,-147 413.5,-147 413.5,-147 407.5,-147 401.5,-141 401.5,-135 401.5,-135 401.5,-123 401.5,-123 401.5,-117 407.5,-111 413.5,-111 413.5,-111 503.5,-111 503.5,-111 509.5,-111 515.5,-117 515.5,-123 515.5,-123 515.5,-135 515.5,-135 515.5,-141 509.5,-147 503.5,-147"/>
<text text-anchor="middle" x="458.5" y="-125.9" font-family="sans" font-size="12.00" fill="#c4c7c7">Injective function</text>
</a>
</g>
</g>
<!-- Linear Algebra&#45;&gt;Injective function -->
<g id="edge9" class="edge">
<title>Linear Algebra&#45;&gt;Injective function</title>
<path fill="none" stroke="#b75867" d="M282.22,-158.02C314.11,-152.74 356.32,-145.75 391.34,-139.95"/>
<polygon fill="#b75867" stroke="#b75867" points="392.18,-143.36 401.48,-138.27 391.04,-136.45 392.18,-143.36"/>
</g>
<!-- Surjective function -->
<g id="node9" class="node">
<title>Surjective function</title>
<g id="a_node9"><a xlink:href="../Surjective function.html" xlink:title="Surjective function" target="_parent">
<path fill="#273434" stroke="#b75867" d="M507.5,-110C507.5,-110 409.5,-110 409.5,-110 403.5,-110 397.5,-104 397.5,-98 397.5,-98 397.5,-86 397.5,-86 397.5,-80 403.5,-74 409.5,-74 409.5,-74 507.5,-74 507.5,-74 513.5,-74 519.5,-80 519.5,-86 519.5,-86 519.5,-98 519.5,-98 519.5,-104 513.5,-110 507.5,-110"/>
<text text-anchor="middle" x="458.5" y="-88.9" font-family="sans" font-size="12.00" fill="#c4c7c7">Surjective function</text>
</a>
</g>
</g>
<!-- Linear Algebra&#45;&gt;Surjective function -->
<g id="edge10" class="edge">
<title>Linear Algebra&#45;&gt;Surjective function</title>
<path fill="none" stroke="#b75867" d="M272.48,-147.94C296.87,-137.01 329.31,-123.41 359,-114 368.11,-111.11 377.81,-108.46 387.44,-106.06"/>
<polygon fill="#b75867" stroke="#b75867" points="388.51,-109.41 397.41,-103.67 386.87,-102.6 388.51,-109.41"/>
</g>
<!-- Fundamental Theorem of Algebra -->
<g id="node10" class="node">
<title>Fundamental Theorem of Algebra</title>
<g id="a_node10"><a xlink:href="../Fundamental Theorem of Algebra.html" xlink:title="Fundamental Theorem of Algebra" target="_parent">
<path fill="#273434" stroke="#b75867" d="M844.5,-150C844.5,-150 659.5,-150 659.5,-150 653.5,-150 647.5,-144 647.5,-138 647.5,-138 647.5,-126 647.5,-126 647.5,-120 653.5,-114 659.5,-114 659.5,-114 844.5,-114 844.5,-114 850.5,-114 856.5,-120 856.5,-126 856.5,-126 856.5,-138 856.5,-138 856.5,-144 850.5,-150 844.5,-150"/>
<text text-anchor="middle" x="752" y="-128.9" font-family="sans" font-size="12.00" fill="#c4c7c7">Fundamental Theorem of Algebra</text>
</a>
</g>
</g>
<!-- Linear Algebra&#45;&gt;Fundamental Theorem of Algebra -->
<g id="edge12" class="edge">
<title>Linear Algebra&#45;&gt;Fundamental Theorem of Algebra</title>
<path fill="none" stroke="#b75867" d="M280.18,-184.03C301.84,-192.71 327.91,-203.51 351,-214 354.62,-215.64 355.13,-217.09 359,-218 380.52,-223.08 541.42,-232.63 558,-218 579.49,-199.03 545.67,-174.21 566,-154 584.92,-135.2 610.84,-126.22 637.3,-122.7"/>
<polygon fill="#b75867" stroke="#b75867" points="637.88,-126.16 647.45,-121.61 637.14,-119.2 637.88,-126.16"/>
</g>
<!-- Subjects -->
<g id="node11" class="node">
<title>Subjects</title>
<g id="a_node11"><a xlink:href="../Subjects.html" xlink:title="Subjects" target="_parent">
<path fill="none" stroke="#b75867" d="M479,-73C479,-73 438,-73 438,-73 432,-73 426,-67 426,-61 426,-61 426,-49 426,-49 426,-43 432,-37 438,-37 438,-37 479,-37 479,-37 485,-37 491,-43 491,-49 491,-49 491,-61 491,-61 491,-67 485,-73 479,-73"/>
<text text-anchor="middle" x="458.5" y="-51.9" font-family="sans" font-size="12.00" fill="#c4c7c7">Subjects</text>
</a>
</g>
</g>
<!-- Linear Algebra&#45;&gt;Subjects -->
<g id="edge13" class="edge">
<title>Linear Algebra&#45;&gt;Subjects</title>
<path fill="none" stroke="#ffffff" d="M261.75,-141.24C285.84,-121.04 322.49,-93.27 359,-77 380.29,-67.51 406.04,-61.95 425.88,-58.79"/>
<polygon fill="#ffffff" stroke="#ffffff" points="259.43,-138.63 254.09,-147.78 263.97,-143.95 259.43,-138.63"/>
</g>
<!-- Knowledege Base -->
<g id="node12" class="node">
<title>Knowledege Base</title>
<g id="a_node12"><a xlink:href="../Knowledege Base.html" xlink:title="Knowledege Base" target="_parent">
<path fill="none" stroke="#b75867" d="M505,-36C505,-36 412,-36 412,-36 406,-36 400,-30 400,-24 400,-24 400,-12 400,-12 400,-6 406,0 412,0 412,0 505,0 505,0 511,0 517,-6 517,-12 517,-12 517,-24 517,-24 517,-30 511,-36 505,-36"/>
<text text-anchor="middle" x="458.5" y="-14.9" font-family="sans" font-size="12.00" fill="#c4c7c7">Knowledege Base</text>
</a>
</g>
</g>
<!-- Linear Algebra&#45;&gt;Knowledege Base -->
<g id="edge14" class="edge">
<title>Linear Algebra&#45;&gt;Knowledege Base</title>
<path fill="none" stroke="#ffffff" d="M252.66,-139.69C274.69,-110.67 314.07,-64.81 359,-40 371.42,-33.14 385.85,-28.42 399.76,-25.17"/>
<polygon fill="#ffffff" stroke="#ffffff" points="249.82,-137.65 246.65,-147.76 255.43,-141.83 249.82,-137.65"/>
</g>
<!-- Formula of Lagrange for Interpolation&#45;&gt;Kronecker Delta -->
<g id="edge15" class="edge">
<title>Formula of Lagrange for Interpolation&#45;&gt;Kronecker Delta</title>
<path fill="none" stroke="#b75867" d="M636.49,-278.47C511.24,-275.58 304.37,-268.41 117.29,-252.13"/>
<polygon fill="#b75867" stroke="#b75867" points="117.53,-248.64 107.26,-251.25 116.92,-255.61 117.53,-248.64"/>
</g>
<!-- Formula of Lagrange for Interpolation&#45;&gt;Lagrange Interpolation Problem -->
<g id="edge16" class="edge">
<title>Formula of Lagrange for Interpolation&#45;&gt;Lagrange Interpolation Problem</title>
<path fill="none" stroke="#ffffff" d="M626.3,-266.53C606.13,-264.1 585.48,-261.53 566,-259 563.41,-258.66 560.78,-258.32 558.13,-257.97"/>
<polygon fill="#ffffff" stroke="#ffffff" points="626.13,-270.03 636.48,-267.75 626.96,-263.08 626.13,-270.03"/>
</g>
<!-- Lagrange Interpolation Problem&#45;&gt;Kronecker Delta -->
<g id="edge17" class="edge">
<title>Lagrange Interpolation Problem&#45;&gt;Kronecker Delta</title>
<path fill="none" stroke="#b75867" d="M358.87,-248.79C356.22,-248.87 353.59,-248.94 351,-249 249.42,-251.38 221.52,-253.21 117.58,-249.04"/>
<polygon fill="#b75867" stroke="#b75867" points="117.41,-245.53 107.28,-248.62 117.13,-252.53 117.41,-245.53"/>
</g>
<!-- Lagrange Interpolation Problem&#45;&gt;Fundamental polynomials of Lagrange -->
<g id="edge19" class="edge">
<title>Lagrange Interpolation Problem&#45;&gt;Fundamental polynomials of Lagrange</title>
<path fill="none" stroke="#b75867" d="M358.89,-239.33C358.73,-239.33 358.57,-239.32 358.41,-239.31"/>
<polygon fill="#b75867" stroke="#b75867" points="361.46,-235.94 351.31,-239 361.15,-242.94 361.46,-235.94"/>
</g>
<!-- Lagrange Interpolation Problem&#45;&gt;Formula of Lagrange for Interpolation -->
<g id="edge18" class="edge">
<title>Lagrange Interpolation Problem&#45;&gt;Formula of Lagrange for Interpolation</title>
<path fill="none" stroke="#b75867" d="M558.13,-256.97C560.78,-257.32 563.41,-257.66 566,-258 585.48,-260.53 606.13,-263.1 626.3,-265.54"/>
<polygon fill="#b75867" stroke="#b75867" points="626.13,-269.05 636.48,-266.77 626.97,-262.1 626.13,-269.05"/>
</g>
<!-- Lagrange Interpolation Problem&#45;&gt;Fundamental Theorem of Algebra -->
<g id="edge20" class="edge">
<title>Lagrange Interpolation Problem&#45;&gt;Fundamental Theorem of Algebra</title>
<path fill="none" stroke="#b75867" d="M554.31,-224.7C555.59,-223.53 556.83,-222.3 558,-221 578.11,-198.75 544.79,-175.2 566,-154 584.86,-135.14 610.77,-126.15 637.23,-122.63"/>
<polygon fill="#b75867" stroke="#b75867" points="637.81,-126.09 647.38,-121.54 637.06,-119.13 637.81,-126.09"/>
</g>
<!-- Lagrange Interpolation -->
<g id="node13" class="node">
<title>Lagrange Interpolation</title>
<g id="a_node13"><a xlink:href="../Lagrange Interpolation.html" xlink:title="Lagrange Interpolation" target="_parent">
<path fill="none" stroke="#b75867" d="M813.5,-261C813.5,-261 690.5,-261 690.5,-261 684.5,-261 678.5,-255 678.5,-249 678.5,-249 678.5,-237 678.5,-237 678.5,-231 684.5,-225 690.5,-225 690.5,-225 813.5,-225 813.5,-225 819.5,-225 825.5,-231 825.5,-237 825.5,-237 825.5,-249 825.5,-249 825.5,-255 819.5,-261 813.5,-261"/>
<text text-anchor="middle" x="752" y="-239.9" font-family="sans" font-size="12.00" fill="#c4c7c7">Lagrange Interpolation</text>
</a>
</g>
</g>
<!-- Lagrange Interpolation Problem&#45;&gt;Lagrange Interpolation -->
<g id="edge21" class="edge">
<title>Lagrange Interpolation Problem&#45;&gt;Lagrange Interpolation</title>
<path fill="none" stroke="#ffffff" d="M568.43,-243C605.07,-243 645.04,-243 678.22,-243"/>
<polygon fill="#ffffff" stroke="#ffffff" points="568.19,-239.5 558.19,-243 568.19,-246.5 568.19,-239.5"/>
</g>
<!-- Lagrange Interpolation Polynomial -->
<g id="node14" class="node">
<title>Lagrange Interpolation Polynomial</title>
<g id="a_node14"><a xlink:href="../Lagrange Interpolation Polynomial.html" xlink:title="Lagrange Interpolation Polynomial" target="_parent">
<path fill="none" stroke="#b75867" d="M847.5,-224C847.5,-224 656.5,-224 656.5,-224 650.5,-224 644.5,-218 644.5,-212 644.5,-212 644.5,-200 644.5,-200 644.5,-194 650.5,-188 656.5,-188 656.5,-188 847.5,-188 847.5,-188 853.5,-188 859.5,-194 859.5,-200 859.5,-200 859.5,-212 859.5,-212 859.5,-218 853.5,-224 847.5,-224"/>
<text text-anchor="middle" x="752" y="-202.9" font-family="sans" font-size="12.00" fill="#c4c7c7">Lagrange Interpolation Polynomial</text>
</a>
</g>
</g>
<!-- Lagrange Interpolation Problem&#45;&gt;Lagrange Interpolation Polynomial -->
<g id="edge22" class="edge">
<title>Lagrange Interpolation Problem&#45;&gt;Lagrange Interpolation Polynomial</title>
<path fill="none" stroke="#ffffff" d="M568.07,-227.74C596.87,-224.03 621.26,-221.04 644.32,-218.29"/>
<polygon fill="#ffffff" stroke="#ffffff" points="567.6,-224.28 558.13,-229.03 568.5,-231.22 567.6,-224.28"/>
</g>
<!-- The Lagrange Interpolation Polynomial of a Polynomial is itself -->
<g id="node15" class="node">
<title>The Lagrange Interpolation Polynomial of a Polynomial is itself</title>
<g id="a_node15"><a xlink:href="../The Lagrange Interpolation Polynomial of a Polynomial is itself.html" xlink:title="The Lagrange Interpolation Polynomial of a Polynomial is itself" target="_parent">
<path fill="none" stroke="#b75867" d="M926,-187C926,-187 578,-187 578,-187 572,-187 566,-181 566,-175 566,-175 566,-163 566,-163 566,-157 572,-151 578,-151 578,-151 926,-151 926,-151 932,-151 938,-157 938,-163 938,-163 938,-175 938,-175 938,-181 932,-187 926,-187"/>
<text text-anchor="middle" x="752" y="-165.9" font-family="sans" font-size="12.00" fill="#c4c7c7">The Lagrange Interpolation Polynomial of a Polynomial is itself</text>
</a>
</g>
</g>
<!-- Lagrange Interpolation Problem&#45;&gt;The Lagrange Interpolation Polynomial of a Polynomial is itself -->
<g id="edge23" class="edge">
<title>Lagrange Interpolation Problem&#45;&gt;The Lagrange Interpolation Polynomial of a Polynomial is itself</title>
<path fill="none" stroke="#ffffff" d="M559.6,-216.61C563.75,-206.74 557.77,-198.13 566,-191 567.59,-189.62 569.22,-188.3 570.88,-187.03"/>
<polygon fill="#ffffff" stroke="#ffffff" points="556.71,-214.64 553.65,-224.79 562.36,-218.76 556.71,-214.64"/>
</g>
</g>
</svg>
