<?xml version="1.0" encoding="UTF-8" standalone="no"?>
<!DOCTYPE svg PUBLIC "-//W3C//DTD SVG 1.1//EN"
 "http://www.w3.org/Graphics/SVG/1.1/DTD/svg11.dtd">
<!-- Generated by graphviz version 2.44.0 (0)
 -->
<!-- Title: Kronecker Delta Pages: 1 -->
<svg width="1003pt" height="116pt"
 viewBox="0.00 0.00 1003.48 116.00" xmlns="http://www.w3.org/2000/svg" xmlns:xlink="http://www.w3.org/1999/xlink">
<g id="page0,1_graph0" class="graph" transform="scale(1 1) rotate(0) translate(4 112)">
<title>Kronecker Delta</title>
<polygon fill="#132020" stroke="transparent" points="-4,4 -4,-112 999.48,-112 999.48,4 -4,4"/>
<!-- Kronecker Delta -->
<g id="node1" class="node">
<title>Kronecker Delta</title>
<g id="a_node1"><a xlink:href="../Kronecker Delta.html" xlink:title="Kronecker Delta" target="_parent">
<path fill="#273434" stroke="#b75867" d="M510.78,-108C510.78,-108 427.78,-108 427.78,-108 421.78,-108 415.78,-102 415.78,-96 415.78,-96 415.78,-84 415.78,-84 415.78,-78 421.78,-72 427.78,-72 427.78,-72 510.78,-72 510.78,-72 516.78,-72 522.78,-78 522.78,-84 522.78,-84 522.78,-96 522.78,-96 522.78,-102 516.78,-108 510.78,-108"/>
<text text-anchor="middle" x="469.28" y="-86.9" font-family="sans" font-size="12.00" fill="#c4c7c7">Kronecker Delta</text>
</a>
</g>
</g>
<!-- Fundamental polynomials of Lagrange -->
<g id="node2" class="node">
<title>Fundamental polynomials of Lagrange</title>
<g id="a_node2"><a xlink:href="../Fundamental polynomials of Lagrange.html" xlink:title="Fundamental polynomials of Lagrange" target="_parent">
<ellipse fill="#273434" stroke="#b75867" cx="145.28" cy="-18" rx="145.06" ry="18"/>
<text text-anchor="middle" x="145.28" y="-14.9" font-family="sans" font-size="12.00" fill="#c4c7c7">Fundamental polynomials of Lagrange</text>
</a>
</g>
</g>
<!-- Kronecker Delta&#45;&gt;Fundamental polynomials of Lagrange -->
<g id="edge1" class="edge">
<title>Kronecker Delta&#45;&gt;Fundamental polynomials of Lagrange</title>
<path fill="none" stroke="#ffffff" d="M405.77,-75.28C350.58,-63.35 270.81,-46.12 214.11,-33.87"/>
<polygon fill="#ffffff" stroke="#ffffff" points="405.26,-78.75 415.78,-77.44 406.74,-71.91 405.26,-78.75"/>
</g>
<!-- Linear Algebra -->
<g id="node3" class="node">
<title>Linear Algebra</title>
<g id="a_node3"><a xlink:href="../Linear Algebra.html" xlink:title="Linear Algebra" target="_parent">
<ellipse fill="#273434" stroke="#b75867" cx="369.28" cy="-18" rx="60.16" ry="18"/>
<text text-anchor="middle" x="369.28" y="-14.9" font-family="sans" font-size="12.00" fill="#c4c7c7">Linear Algebra</text>
</a>
</g>
</g>
<!-- Kronecker Delta&#45;&gt;Linear Algebra -->
<g id="edge2" class="edge">
<title>Kronecker Delta&#45;&gt;Linear Algebra</title>
<path fill="none" stroke="#ffffff" d="M436.5,-66.05C421.85,-55.8 404.96,-43.98 391.78,-34.75"/>
<polygon fill="#ffffff" stroke="#ffffff" points="434.62,-69.01 444.82,-71.88 438.63,-63.27 434.62,-69.01"/>
</g>
<!-- Lagrange Interpolation Problem -->
<g id="node4" class="node">
<title>Lagrange Interpolation Problem</title>
<g id="a_node4"><a xlink:href="../Lagrange Interpolation Problem.html" xlink:title="Lagrange Interpolation Problem" target="_parent">
<ellipse fill="#273434" stroke="#b75867" cx="570.28" cy="-18" rx="122.5" ry="18"/>
<text text-anchor="middle" x="570.28" y="-14.9" font-family="sans" font-size="12.00" fill="#c4c7c7">Lagrange Interpolation Problem</text>
</a>
</g>
</g>
<!-- Kronecker Delta&#45;&gt;Lagrange Interpolation Problem -->
<g id="edge3" class="edge">
<title>Kronecker Delta&#45;&gt;Lagrange Interpolation Problem</title>
<path fill="none" stroke="#ffffff" d="M502.54,-65.95C516.79,-56.07 533.12,-44.75 546.17,-35.71"/>
<polygon fill="#ffffff" stroke="#ffffff" points="500.21,-63.3 493.99,-71.88 504.2,-69.06 500.21,-63.3"/>
</g>
<!-- Formula of Lagrange for Interpolation -->
<g id="node5" class="node">
<title>Formula of Lagrange for Interpolation</title>
<g id="a_node5"><a xlink:href="../Formula of Lagrange for Interpolation.html" xlink:title="Formula of Lagrange for Interpolation" target="_parent">
<ellipse fill="#273434" stroke="#b75867" cx="853.28" cy="-18" rx="142.4" ry="18"/>
<text text-anchor="middle" x="853.28" y="-14.9" font-family="sans" font-size="12.00" fill="#c4c7c7">Formula of Lagrange for Interpolation</text>
</a>
</g>
</g>
<!-- Kronecker Delta&#45;&gt;Formula of Lagrange for Interpolation -->
<g id="edge4" class="edge">
<title>Kronecker Delta&#45;&gt;Formula of Lagrange for Interpolation</title>
<path fill="none" stroke="#ffffff" d="M533.03,-77.38C599.64,-65.24 704.21,-46.17 775.61,-33.16"/>
<polygon fill="#ffffff" stroke="#ffffff" points="532.29,-73.96 523.08,-79.19 533.54,-80.84 532.29,-73.96"/>
</g>
</g>
</svg>
