<?xml version="1.0" encoding="UTF-8" standalone="no"?>
<!DOCTYPE svg PUBLIC "-//W3C//DTD SVG 1.1//EN"
 "http://www.w3.org/Graphics/SVG/1.1/DTD/svg11.dtd">
<!-- Generated by graphviz version 2.44.0 (0)
 -->
<!-- Title: Lagrange Interpolation Pages: 1 -->
<svg width="1434pt" height="260pt"
 viewBox="0.00 0.00 1434.50 260.00" xmlns="http://www.w3.org/2000/svg" xmlns:xlink="http://www.w3.org/1999/xlink">
<g id="page0,1_graph0" class="graph" transform="scale(1 1) rotate(0) translate(4 256)">
<title>Lagrange Interpolation</title>
<polygon fill="#132020" stroke="transparent" points="-4,4 -4,-256 1430.5,-256 1430.5,4 -4,4"/>
<!-- Lagrange Interpolation -->
<g id="node1" class="node">
<title>Lagrange Interpolation</title>
<g id="a_node1"><a xlink:title="Lagrange Interpolation">
<path fill="#273434" stroke="#b75867" d="M820,-252C820,-252 697,-252 697,-252 691,-252 685,-246 685,-240 685,-240 685,-228 685,-228 685,-222 691,-216 697,-216 697,-216 820,-216 820,-216 826,-216 832,-222 832,-228 832,-228 832,-240 832,-240 832,-246 826,-252 820,-252"/>
<text text-anchor="middle" x="758.5" y="-230.9" font-family="sans" font-size="12.00" fill="#c4c7c7">Lagrange Interpolation</text>
</a>
</g>
</g>
<!-- Lagrange Interpolation Problem -->
<g id="node2" class="node">
<title>Lagrange Interpolation Problem</title>
<g id="a_node2"><a xlink:title="Lagrange Interpolation Problem">
<path fill="#273434" stroke="#b75867" d="M584,-180C584,-180 409,-180 409,-180 403,-180 397,-174 397,-168 397,-168 397,-156 397,-156 397,-150 403,-144 409,-144 409,-144 584,-144 584,-144 590,-144 596,-150 596,-156 596,-156 596,-168 596,-168 596,-174 590,-180 584,-180"/>
<text text-anchor="middle" x="496.5" y="-158.9" font-family="sans" font-size="12.00" fill="#c4c7c7">Lagrange Interpolation Problem</text>
</a>
</g>
</g>
<!-- Lagrange Interpolation&#45;&gt;Lagrange Interpolation Problem -->
<g id="edge1" class="edge">
<title>Lagrange Interpolation&#45;&gt;Lagrange Interpolation Problem</title>
<path fill="none" stroke="#b75867" d="M694.74,-215.97C657.18,-205.93 609.5,-193.19 570.31,-182.72"/>
<polygon fill="#b75867" stroke="#b75867" points="571.11,-179.31 560.54,-180.11 569.3,-186.07 571.11,-179.31"/>
</g>
<!-- Numeric Methods -->
<g id="node7" class="node">
<title>Numeric Methods</title>
<g id="a_node7"><a xlink:title="Numeric Methods">
<ellipse fill="#273434" stroke="#b75867" cx="685.5" cy="-162" rx="71.32" ry="18"/>
<text text-anchor="middle" x="685.5" y="-158.9" font-family="sans" font-size="12.00" fill="#c4c7c7">Numeric Methods</text>
</a>
</g>
</g>
<!-- Lagrange Interpolation&#45;&gt;Numeric Methods -->
<g id="edge6" class="edge">
<title>Lagrange Interpolation&#45;&gt;Numeric Methods</title>
<path fill="none" stroke="#ffffff" d="M733.1,-208.65C723.1,-199.06 711.87,-188.29 702.83,-179.62"/>
<polygon fill="#ffffff" stroke="#ffffff" points="730.81,-211.3 740.46,-215.7 735.66,-206.25 730.81,-211.3"/>
</g>
<!-- Extrapolation -->
<g id="node8" class="node">
<title>Extrapolation</title>
<g id="a_node8"><a xlink:title="Extrapolation">
<ellipse fill="#273434" stroke="#b75867" cx="832.5" cy="-162" rx="57.5" ry="18"/>
<text text-anchor="middle" x="832.5" y="-158.9" font-family="sans" font-size="12.00" fill="#c4c7c7">Extrapolation</text>
</a>
</g>
</g>
<!-- Lagrange Interpolation&#45;&gt;Extrapolation -->
<g id="edge7" class="edge">
<title>Lagrange Interpolation&#45;&gt;Extrapolation</title>
<path fill="none" stroke="#ffffff" d="M784.3,-208.59C794.52,-198.93 805.99,-188.08 815.18,-179.38"/>
<polygon fill="#ffffff" stroke="#ffffff" points="781.65,-206.28 776.79,-215.7 786.46,-211.37 781.65,-206.28"/>
</g>
<!-- Evaluating Interpolation Error -->
<g id="node9" class="node">
<title>Evaluating Interpolation Error</title>
<g id="a_node9"><a xlink:title="Evaluating Interpolation Error">
<ellipse fill="#273434" stroke="#b75867" cx="1021.5" cy="-162" rx="113.77" ry="18"/>
<text text-anchor="middle" x="1021.5" y="-158.9" font-family="sans" font-size="12.00" fill="#c4c7c7">Evaluating Interpolation Error</text>
</a>
</g>
</g>
<!-- Lagrange Interpolation&#45;&gt;Evaluating Interpolation Error -->
<g id="edge8" class="edge">
<title>Lagrange Interpolation&#45;&gt;Evaluating Interpolation Error</title>
<path fill="none" stroke="#ffffff" d="M832.23,-213.38C874.71,-202.07 927.21,-188.1 966.14,-177.73"/>
<polygon fill="#ffffff" stroke="#ffffff" points="831.26,-210.01 822.5,-215.97 833.06,-216.78 831.26,-210.01"/>
</g>
<!-- Kronecker Delta -->
<g id="node3" class="node">
<title>Kronecker Delta</title>
<g id="a_node3"><a xlink:title="Kronecker Delta">
<path fill="#273434" stroke="#b75867" d="M390,-108C390,-108 307,-108 307,-108 301,-108 295,-102 295,-96 295,-96 295,-84 295,-84 295,-78 301,-72 307,-72 307,-72 390,-72 390,-72 396,-72 402,-78 402,-84 402,-84 402,-96 402,-96 402,-102 396,-108 390,-108"/>
<text text-anchor="middle" x="348.5" y="-86.9" font-family="sans" font-size="12.00" fill="#c4c7c7">Kronecker Delta</text>
</a>
</g>
</g>
<!-- Lagrange Interpolation Problem&#45;&gt;Kronecker Delta -->
<g id="edge2" class="edge">
<title>Lagrange Interpolation Problem&#45;&gt;Kronecker Delta</title>
<path fill="none" stroke="#b75867" d="M460.3,-143.88C440.24,-134.39 415.13,-122.51 393.79,-112.42"/>
<polygon fill="#b75867" stroke="#b75867" points="395.12,-109.18 384.59,-108.07 392.13,-115.51 395.12,-109.18"/>
</g>
<!-- Formula of Lagrange for Interpolation -->
<g id="node4" class="node">
<title>Formula of Lagrange for Interpolation</title>
<g id="a_node4"><a xlink:title="Formula of Lagrange for Interpolation">
<path fill="#273434" stroke="#b75867" d="M219,-36C219,-36 12,-36 12,-36 6,-36 0,-30 0,-24 0,-24 0,-12 0,-12 0,-6 6,0 12,0 12,0 219,0 219,0 225,0 231,-6 231,-12 231,-12 231,-24 231,-24 231,-30 225,-36 219,-36"/>
<text text-anchor="middle" x="115.5" y="-14.9" font-family="sans" font-size="12.00" fill="#c4c7c7">Formula of Lagrange for Interpolation</text>
</a>
</g>
</g>
<!-- Lagrange Interpolation Problem&#45;&gt;Formula of Lagrange for Interpolation -->
<g id="edge3" class="edge">
<title>Lagrange Interpolation Problem&#45;&gt;Formula of Lagrange for Interpolation</title>
<path fill="none" stroke="#b75867" d="M409.36,-143.98C370.76,-135.2 325.2,-123.14 285.5,-108 237.56,-89.72 185.77,-61.22 152.11,-41.42"/>
<polygon fill="#b75867" stroke="#b75867" points="153.51,-38.17 143.12,-36.08 149.93,-44.19 153.51,-38.17"/>
</g>
<!-- Fundamental polynomials of Lagrange -->
<g id="node5" class="node">
<title>Fundamental polynomials of Lagrange</title>
<g id="a_node5"><a xlink:title="Fundamental polynomials of Lagrange">
<path fill="#273434" stroke="#b75867" d="M473.5,-36C473.5,-36 261.5,-36 261.5,-36 255.5,-36 249.5,-30 249.5,-24 249.5,-24 249.5,-12 249.5,-12 249.5,-6 255.5,0 261.5,0 261.5,0 473.5,0 473.5,0 479.5,0 485.5,-6 485.5,-12 485.5,-12 485.5,-24 485.5,-24 485.5,-30 479.5,-36 473.5,-36"/>
<text text-anchor="middle" x="367.5" y="-14.9" font-family="sans" font-size="12.00" fill="#c4c7c7">Fundamental polynomials of Lagrange</text>
</a>
</g>
</g>
<!-- Lagrange Interpolation Problem&#45;&gt;Fundamental polynomials of Lagrange -->
<g id="edge4" class="edge">
<title>Lagrange Interpolation Problem&#45;&gt;Fundamental polynomials of Lagrange</title>
<path fill="none" stroke="#b75867" d="M480.94,-143.87C458.28,-118.92 416.06,-72.45 390,-43.77"/>
<polygon fill="#b75867" stroke="#b75867" points="392.43,-41.24 383.12,-36.19 387.25,-45.94 392.43,-41.24"/>
</g>
<!-- Fundamental Theorem of Algebra -->
<g id="node6" class="node">
<title>Fundamental Theorem of Algebra</title>
<g id="a_node6"><a xlink:title="Fundamental Theorem of Algebra">
<path fill="#273434" stroke="#b75867" d="M656,-108C656,-108 471,-108 471,-108 465,-108 459,-102 459,-96 459,-96 459,-84 459,-84 459,-78 465,-72 471,-72 471,-72 656,-72 656,-72 662,-72 668,-78 668,-84 668,-84 668,-96 668,-96 668,-102 662,-108 656,-108"/>
<text text-anchor="middle" x="563.5" y="-86.9" font-family="sans" font-size="12.00" fill="#c4c7c7">Fundamental Theorem of Algebra</text>
</a>
</g>
</g>
<!-- Lagrange Interpolation Problem&#45;&gt;Fundamental Theorem of Algebra -->
<g id="edge5" class="edge">
<title>Lagrange Interpolation Problem&#45;&gt;Fundamental Theorem of Algebra</title>
<path fill="none" stroke="#b75867" d="M513.06,-143.7C521.18,-135.22 531.09,-124.86 539.97,-115.58"/>
<polygon fill="#b75867" stroke="#b75867" points="542.74,-117.75 547.13,-108.1 537.69,-112.91 542.74,-117.75"/>
</g>
<!-- Lagrange Interpolation Polynomial -->
<g id="node10" class="node">
<title>Lagrange Interpolation Polynomial</title>
<g id="a_node10"><a xlink:title="Lagrange Interpolation Polynomial">
<ellipse fill="#273434" stroke="#b75867" cx="818.5" cy="-90" rx="132.2" ry="18"/>
<text text-anchor="middle" x="818.5" y="-86.9" font-family="sans" font-size="12.00" fill="#c4c7c7">Lagrange Interpolation Polynomial</text>
</a>
</g>
</g>
<!-- Lagrange Interpolation Problem&#45;&gt;Lagrange Interpolation Polynomial -->
<g id="edge9" class="edge">
<title>Lagrange Interpolation Problem&#45;&gt;Lagrange Interpolation Polynomial</title>
<path fill="none" stroke="#ffffff" d="M584.86,-141.79C637.48,-130.35 703.2,-116.07 751.52,-105.56"/>
<polygon fill="#ffffff" stroke="#ffffff" points="583.89,-138.42 574.86,-143.97 585.37,-145.26 583.89,-138.42"/>
</g>
<!-- The Lagrange Interpolation Polynomial of a Polynomial is itself -->
<g id="node11" class="node">
<title>The Lagrange Interpolation Polynomial of a Polynomial is itself</title>
<g id="a_node11"><a xlink:title="The Lagrange Interpolation Polynomial of a Polynomial is itself">
<ellipse fill="#273434" stroke="#b75867" cx="1197.5" cy="-90" rx="229" ry="18"/>
<text text-anchor="middle" x="1197.5" y="-86.9" font-family="sans" font-size="12.00" fill="#c4c7c7">The Lagrange Interpolation Polynomial of a Polynomial is itself</text>
</a>
</g>
</g>
<!-- Lagrange Interpolation Problem&#45;&gt;The Lagrange Interpolation Polynomial of a Polynomial is itself -->
<g id="edge10" class="edge">
<title>Lagrange Interpolation Problem&#45;&gt;The Lagrange Interpolation Polynomial of a Polynomial is itself</title>
<path fill="none" stroke="#ffffff" d="M606.2,-143.96C757.39,-125.63 918.27,-111.74 1034.82,-102.68"/>
<polygon fill="#ffffff" stroke="#ffffff" points="605.76,-140.49 596.26,-145.17 606.61,-147.44 605.76,-140.49"/>
</g>
<!-- Kronecker Delta&#45;&gt;Formula of Lagrange for Interpolation -->
<g id="edge13" class="edge">
<title>Kronecker Delta&#45;&gt;Formula of Lagrange for Interpolation</title>
<path fill="none" stroke="#ffffff" d="M285.05,-69.94C249.8,-59.35 206.33,-46.29 172.23,-36.04"/>
<polygon fill="#ffffff" stroke="#ffffff" points="284.17,-73.33 294.75,-72.85 286.18,-66.62 284.17,-73.33"/>
</g>
<!-- Kronecker Delta&#45;&gt;Fundamental polynomials of Lagrange -->
<g id="edge11" class="edge">
<title>Kronecker Delta&#45;&gt;Fundamental polynomials of Lagrange</title>
<path fill="none" stroke="#ffffff" d="M355.84,-61.95C358.2,-53.26 360.75,-43.88 362.86,-36.1"/>
<polygon fill="#ffffff" stroke="#ffffff" points="352.44,-61.13 353.2,-71.7 359.19,-62.96 352.44,-61.13"/>
</g>
<!-- Linear Algebra -->
<g id="node12" class="node">
<title>Linear Algebra</title>
<g id="a_node12"><a xlink:title="Linear Algebra">
<ellipse fill="#273434" stroke="#b75867" cx="563.5" cy="-18" rx="60.16" ry="18"/>
<text text-anchor="middle" x="563.5" y="-14.9" font-family="sans" font-size="12.00" fill="#c4c7c7">Linear Algebra</text>
</a>
</g>
</g>
<!-- Kronecker Delta&#45;&gt;Linear Algebra -->
<g id="edge12" class="edge">
<title>Kronecker Delta&#45;&gt;Linear Algebra</title>
<path fill="none" stroke="#ffffff" d="M410.42,-68.84C447.06,-56.91 492.37,-42.16 524.16,-31.81"/>
<polygon fill="#ffffff" stroke="#ffffff" points="409.25,-65.54 400.82,-71.97 411.41,-72.2 409.25,-65.54"/>
</g>
<!-- Fundamental Theorem of Algebra&#45;&gt;Linear Algebra -->
<g id="edge15" class="edge">
<title>Fundamental Theorem of Algebra&#45;&gt;Linear Algebra</title>
<path fill="none" stroke="#ffffff" d="M563.5,-61.67C563.5,-53.05 563.5,-43.79 563.5,-36.1"/>
<polygon fill="#ffffff" stroke="#ffffff" points="560,-61.7 563.5,-71.7 567,-61.7 560,-61.7"/>
</g>
<!-- Recurrent Equations -->
<g id="node13" class="node">
<title>Recurrent Equations</title>
<g id="a_node13"><a xlink:title="Recurrent Equations">
<ellipse fill="#273434" stroke="#b75867" cx="722.5" cy="-18" rx="80.78" ry="18"/>
<text text-anchor="middle" x="722.5" y="-14.9" font-family="sans" font-size="12.00" fill="#c4c7c7">Recurrent Equations</text>
</a>
</g>
</g>
<!-- Fundamental Theorem of Algebra&#45;&gt;Recurrent Equations -->
<g id="edge14" class="edge">
<title>Fundamental Theorem of Algebra&#45;&gt;Recurrent Equations</title>
<path fill="none" stroke="#ffffff" d="M611.55,-67.84C636.12,-57.03 665.46,-44.11 687.79,-34.28"/>
<polygon fill="#ffffff" stroke="#ffffff" points="610.14,-64.64 602.4,-71.88 612.96,-71.05 610.14,-64.64"/>
</g>
</g>
</svg>
