<?xml version="1.0" encoding="UTF-8" standalone="no"?>
<!DOCTYPE svg PUBLIC "-//W3C//DTD SVG 1.1//EN"
 "http://www.w3.org/Graphics/SVG/1.1/DTD/svg11.dtd">
<!-- Generated by graphviz version 2.44.0 (0)
 -->
<!-- Title: Lagrange Interpolation Pages: 1 -->
<svg width="742pt" height="377pt"
 viewBox="0.00 0.00 742.00 377.00" xmlns="http://www.w3.org/2000/svg" xmlns:xlink="http://www.w3.org/1999/xlink">
<g id="page0,1_graph0" class="graph" transform="scale(1 1) rotate(0) translate(4 373)">
<title>Lagrange Interpolation</title>
<polygon fill="#132020" stroke="transparent" points="-4,4 -4,-373 738,-373 738,4 -4,4"/>
<!-- Lagrange Interpolation -->
<g id="node1" class="node">
<title>Lagrange Interpolation</title>
<g id="a_node1"><a xlink:href="../Lagrange Interpolation.html" xlink:title="Lagrange Interpolation" target="_parent">
<path fill="#273434" stroke="#b75867" d="M135,-110C135,-110 12,-110 12,-110 6,-110 0,-104 0,-98 0,-98 0,-86 0,-86 0,-80 6,-74 12,-74 12,-74 135,-74 135,-74 141,-74 147,-80 147,-86 147,-86 147,-98 147,-98 147,-104 141,-110 135,-110"/>
<text text-anchor="middle" x="73.5" y="-88.9" font-family="sans" font-size="12.00" fill="#c4c7c7">Lagrange Interpolation</text>
</a>
</g>
</g>
<!-- Lagrange Interpolation Problem -->
<g id="node2" class="node">
<title>Lagrange Interpolation Problem</title>
<g id="a_node2"><a xlink:href="../Lagrange Interpolation Problem.html" xlink:title="Lagrange Interpolation Problem" target="_parent">
<path fill="#273434" stroke="#b75867" d="M342,-239C342,-239 167,-239 167,-239 161,-239 155,-233 155,-227 155,-227 155,-215 155,-215 155,-209 161,-203 167,-203 167,-203 342,-203 342,-203 348,-203 354,-209 354,-215 354,-215 354,-227 354,-227 354,-233 348,-239 342,-239"/>
<text text-anchor="middle" x="254.5" y="-217.9" font-family="sans" font-size="12.00" fill="#c4c7c7">Lagrange Interpolation Problem</text>
</a>
</g>
</g>
<!-- Lagrange Interpolation&#45;&gt;Lagrange Interpolation Problem -->
<g id="edge1" class="edge">
<title>Lagrange Interpolation&#45;&gt;Lagrange Interpolation Problem</title>
<path fill="none" stroke="#b75867" d="M99.77,-110.21C131.22,-132.87 185.03,-171.66 219.92,-196.8"/>
<polygon fill="#b75867" stroke="#b75867" points="218.2,-199.88 228.36,-202.88 222.3,-194.2 218.2,-199.88"/>
</g>
<!-- Numeric Methods -->
<g id="node3" class="node">
<title>Numeric Methods</title>
<g id="a_node3"><a xlink:href="../Numeric Methods.html" xlink:title="Numeric Methods" target="_parent">
<path fill="none" stroke="#b75867" d="M300.5,-129C300.5,-129 208.5,-129 208.5,-129 202.5,-129 196.5,-123 196.5,-117 196.5,-117 196.5,-105 196.5,-105 196.5,-99 202.5,-93 208.5,-93 208.5,-93 300.5,-93 300.5,-93 306.5,-93 312.5,-99 312.5,-105 312.5,-105 312.5,-117 312.5,-117 312.5,-123 306.5,-129 300.5,-129"/>
<text text-anchor="middle" x="254.5" y="-107.9" font-family="sans" font-size="12.00" fill="#c4c7c7">Numeric Methods</text>
</a>
</g>
</g>
<!-- Lagrange Interpolation&#45;&gt;Numeric Methods -->
<g id="edge2" class="edge">
<title>Lagrange Interpolation&#45;&gt;Numeric Methods</title>
<path fill="none" stroke="#ffffff" d="M157.11,-100.77C170.34,-102.17 183.77,-103.6 196.24,-104.92"/>
<polygon fill="#ffffff" stroke="#ffffff" points="157.36,-97.28 147.05,-99.7 156.62,-104.24 157.36,-97.28"/>
</g>
<!-- Extrapolation -->
<g id="node4" class="node">
<title>Extrapolation</title>
<g id="a_node4"><a xlink:href="../Extrapolation.html" xlink:title="Extrapolation" target="_parent">
<path fill="none" stroke="#b75867" d="M289,-92C289,-92 220,-92 220,-92 214,-92 208,-86 208,-80 208,-80 208,-68 208,-68 208,-62 214,-56 220,-56 220,-56 289,-56 289,-56 295,-56 301,-62 301,-68 301,-68 301,-80 301,-80 301,-86 295,-92 289,-92"/>
<text text-anchor="middle" x="254.5" y="-70.9" font-family="sans" font-size="12.00" fill="#c4c7c7">Extrapolation</text>
</a>
</g>
</g>
<!-- Lagrange Interpolation&#45;&gt;Extrapolation -->
<g id="edge3" class="edge">
<title>Lagrange Interpolation&#45;&gt;Extrapolation</title>
<path fill="none" stroke="#ffffff" d="M157.24,-83.68C174.65,-81.93 192.41,-80.14 207.85,-78.59"/>
<polygon fill="#ffffff" stroke="#ffffff" points="156.65,-80.22 147.05,-84.7 157.35,-87.19 156.65,-80.22"/>
</g>
<!-- Evaluating Interpolation Error -->
<g id="node5" class="node">
<title>Evaluating Interpolation Error</title>
<g id="a_node5"><a xlink:href="../Evaluating Interpolation Error.html" xlink:title="Evaluating Interpolation Error" target="_parent">
<path fill="none" stroke="#b75867" d="M335,-55C335,-55 174,-55 174,-55 168,-55 162,-49 162,-43 162,-43 162,-31 162,-31 162,-25 168,-19 174,-19 174,-19 335,-19 335,-19 341,-19 347,-25 347,-31 347,-31 347,-43 347,-43 347,-49 341,-55 335,-55"/>
<text text-anchor="middle" x="254.5" y="-33.9" font-family="sans" font-size="12.00" fill="#c4c7c7">Evaluating Interpolation Error</text>
</a>
</g>
</g>
<!-- Lagrange Interpolation&#45;&gt;Evaluating Interpolation Error -->
<g id="edge4" class="edge">
<title>Lagrange Interpolation&#45;&gt;Evaluating Interpolation Error</title>
<path fill="none" stroke="#ffffff" d="M124.38,-70.02C134.41,-66.04 144.95,-62.16 155,-59 159.35,-57.63 163.83,-56.32 168.37,-55.06"/>
<polygon fill="#ffffff" stroke="#ffffff" points="122.91,-66.84 114.96,-73.85 125.54,-73.33 122.91,-66.84"/>
</g>
<!-- Lagrange Interpolation Problem&#45;&gt;Lagrange Interpolation -->
<g id="edge9" class="edge">
<title>Lagrange Interpolation Problem&#45;&gt;Lagrange Interpolation</title>
<path fill="none" stroke="#ffffff" d="M219.02,-196.76C183.83,-171.61 130.08,-132.85 99.01,-110.2"/>
<polygon fill="#ffffff" stroke="#ffffff" points="217.37,-199.88 227.54,-202.84 221.44,-194.18 217.37,-199.88"/>
</g>
<!-- Kronecker Delta -->
<g id="node6" class="node">
<title>Kronecker Delta</title>
<g id="a_node6"><a xlink:href="../Kronecker Delta.html" xlink:title="Kronecker Delta" target="_parent">
<path fill="#273434" stroke="#b75867" d="M589.5,-369C589.5,-369 506.5,-369 506.5,-369 500.5,-369 494.5,-363 494.5,-357 494.5,-357 494.5,-345 494.5,-345 494.5,-339 500.5,-333 506.5,-333 506.5,-333 589.5,-333 589.5,-333 595.5,-333 601.5,-339 601.5,-345 601.5,-345 601.5,-357 601.5,-357 601.5,-363 595.5,-369 589.5,-369"/>
<text text-anchor="middle" x="548" y="-347.9" font-family="sans" font-size="12.00" fill="#c4c7c7">Kronecker Delta</text>
</a>
</g>
</g>
<!-- Lagrange Interpolation Problem&#45;&gt;Kronecker Delta -->
<g id="edge5" class="edge">
<title>Lagrange Interpolation Problem&#45;&gt;Kronecker Delta</title>
<path fill="none" stroke="#b75867" d="M267.41,-239.23C284.86,-264.22 319.9,-308.39 362,-329 399.7,-347.46 446.73,-352.86 483.94,-353.69"/>
<polygon fill="#b75867" stroke="#b75867" points="484.11,-357.2 494.15,-353.81 484.2,-350.2 484.11,-357.2"/>
</g>
<!-- Formula of Lagrange for Interpolation -->
<g id="node7" class="node">
<title>Formula of Lagrange for Interpolation</title>
<g id="a_node7"><a xlink:href="../Formula of Lagrange for Interpolation.html" xlink:title="Formula of Lagrange for Interpolation" target="_parent">
<path fill="#273434" stroke="#b75867" d="M651.5,-332C651.5,-332 444.5,-332 444.5,-332 438.5,-332 432.5,-326 432.5,-320 432.5,-320 432.5,-308 432.5,-308 432.5,-302 438.5,-296 444.5,-296 444.5,-296 651.5,-296 651.5,-296 657.5,-296 663.5,-302 663.5,-308 663.5,-308 663.5,-320 663.5,-320 663.5,-326 657.5,-332 651.5,-332"/>
<text text-anchor="middle" x="548" y="-310.9" font-family="sans" font-size="12.00" fill="#c4c7c7">Formula of Lagrange for Interpolation</text>
</a>
</g>
</g>
<!-- Lagrange Interpolation Problem&#45;&gt;Formula of Lagrange for Interpolation -->
<g id="edge6" class="edge">
<title>Lagrange Interpolation Problem&#45;&gt;Formula of Lagrange for Interpolation</title>
<path fill="none" stroke="#b75867" d="M276.28,-239.23C296.63,-255.96 329.27,-279.93 362,-292 380.91,-298.97 401.57,-303.85 422.01,-307.25"/>
<polygon fill="#b75867" stroke="#b75867" points="421.61,-310.72 432.02,-308.8 422.68,-303.81 421.61,-310.72"/>
</g>
<!-- Fundamental polynomials of Lagrange -->
<g id="node8" class="node">
<title>Fundamental polynomials of Lagrange</title>
<g id="a_node8"><a xlink:href="../Fundamental polynomials of Lagrange.html" xlink:title="Fundamental polynomials of Lagrange" target="_parent">
<path fill="#273434" stroke="#b75867" d="M654,-295C654,-295 442,-295 442,-295 436,-295 430,-289 430,-283 430,-283 430,-271 430,-271 430,-265 436,-259 442,-259 442,-259 654,-259 654,-259 660,-259 666,-265 666,-271 666,-271 666,-283 666,-283 666,-289 660,-295 654,-295"/>
<text text-anchor="middle" x="548" y="-273.9" font-family="sans" font-size="12.00" fill="#c4c7c7">Fundamental polynomials of Lagrange</text>
</a>
</g>
</g>
<!-- Lagrange Interpolation Problem&#45;&gt;Fundamental polynomials of Lagrange -->
<g id="edge7" class="edge">
<title>Lagrange Interpolation Problem&#45;&gt;Fundamental polynomials of Lagrange</title>
<path fill="none" stroke="#b75867" d="M305.35,-239.08C323.04,-244.92 343.22,-250.93 362,-255 380.57,-259.03 400.37,-262.37 419.84,-265.12"/>
<polygon fill="#b75867" stroke="#b75867" points="419.6,-268.62 429.99,-266.51 420.55,-261.69 419.6,-268.62"/>
</g>
<!-- Fundamental Theorem of Algebra -->
<g id="node9" class="node">
<title>Fundamental Theorem of Algebra</title>
<g id="a_node9"><a xlink:href="../Fundamental Theorem of Algebra.html" xlink:title="Fundamental Theorem of Algebra" target="_parent">
<path fill="#273434" stroke="#b75867" d="M640.5,-258C640.5,-258 455.5,-258 455.5,-258 449.5,-258 443.5,-252 443.5,-246 443.5,-246 443.5,-234 443.5,-234 443.5,-228 449.5,-222 455.5,-222 455.5,-222 640.5,-222 640.5,-222 646.5,-222 652.5,-228 652.5,-234 652.5,-234 652.5,-246 652.5,-246 652.5,-252 646.5,-258 640.5,-258"/>
<text text-anchor="middle" x="548" y="-236.9" font-family="sans" font-size="12.00" fill="#c4c7c7">Fundamental Theorem of Algebra</text>
</a>
</g>
</g>
<!-- Lagrange Interpolation Problem&#45;&gt;Fundamental Theorem of Algebra -->
<g id="edge8" class="edge">
<title>Lagrange Interpolation Problem&#45;&gt;Fundamental Theorem of Algebra</title>
<path fill="none" stroke="#b75867" d="M354.19,-227.43C379.56,-229.09 407.06,-230.88 433.13,-232.58"/>
<polygon fill="#b75867" stroke="#b75867" points="433.23,-236.09 443.43,-233.25 433.68,-229.11 433.23,-236.09"/>
</g>
<!-- Lagrange Interpolation Polynomial -->
<g id="node10" class="node">
<title>Lagrange Interpolation Polynomial</title>
<g id="a_node10"><a xlink:href="../Lagrange Interpolation Polynomial.html" xlink:title="Lagrange Interpolation Polynomial" target="_parent">
<path fill="none" stroke="#b75867" d="M643.5,-221C643.5,-221 452.5,-221 452.5,-221 446.5,-221 440.5,-215 440.5,-209 440.5,-209 440.5,-197 440.5,-197 440.5,-191 446.5,-185 452.5,-185 452.5,-185 643.5,-185 643.5,-185 649.5,-185 655.5,-191 655.5,-197 655.5,-197 655.5,-209 655.5,-209 655.5,-215 649.5,-221 643.5,-221"/>
<text text-anchor="middle" x="548" y="-199.9" font-family="sans" font-size="12.00" fill="#c4c7c7">Lagrange Interpolation Polynomial</text>
</a>
</g>
</g>
<!-- Lagrange Interpolation Problem&#45;&gt;Lagrange Interpolation Polynomial -->
<g id="edge10" class="edge">
<title>Lagrange Interpolation Problem&#45;&gt;Lagrange Interpolation Polynomial</title>
<path fill="none" stroke="#ffffff" d="M364.37,-214.28C389.24,-212.74 415.65,-211.11 440.42,-209.58"/>
<polygon fill="#ffffff" stroke="#ffffff" points="363.95,-210.8 354.19,-214.91 364.39,-217.78 363.95,-210.8"/>
</g>
<!-- The Lagrange Interpolation Polynomial of a Polynomial is itself -->
<g id="node11" class="node">
<title>The Lagrange Interpolation Polynomial of a Polynomial is itself</title>
<g id="a_node11"><a xlink:href="../The Lagrange Interpolation Polynomial of a Polynomial is itself.html" xlink:title="The Lagrange Interpolation Polynomial of a Polynomial is itself" target="_parent">
<path fill="none" stroke="#b75867" d="M722,-184C722,-184 374,-184 374,-184 368,-184 362,-178 362,-172 362,-172 362,-160 362,-160 362,-154 368,-148 374,-148 374,-148 722,-148 722,-148 728,-148 734,-154 734,-160 734,-160 734,-172 734,-172 734,-178 728,-184 722,-184"/>
<text text-anchor="middle" x="548" y="-162.9" font-family="sans" font-size="12.00" fill="#c4c7c7">The Lagrange Interpolation Polynomial of a Polynomial is itself</text>
</a>
</g>
</g>
<!-- Lagrange Interpolation Problem&#45;&gt;The Lagrange Interpolation Polynomial of a Polynomial is itself -->
<g id="edge11" class="edge">
<title>Lagrange Interpolation Problem&#45;&gt;The Lagrange Interpolation Polynomial of a Polynomial is itself</title>
<path fill="none" stroke="#ffffff" d="M316.94,-199.88C331.58,-195.43 347.23,-191.14 362,-188 368.64,-186.59 375.44,-185.26 382.33,-184.01"/>
<polygon fill="#ffffff" stroke="#ffffff" points="315.51,-196.66 307,-202.97 317.59,-203.34 315.51,-196.66"/>
</g>
<!-- Numeric Methods&#45;&gt;Lagrange Interpolation -->
<g id="edge12" class="edge">
<title>Numeric Methods&#45;&gt;Lagrange Interpolation</title>
<path fill="none" stroke="#b75867" d="M196.24,-105.63C183.77,-104.34 170.34,-102.93 157.11,-101.52"/>
<polygon fill="#b75867" stroke="#b75867" points="157.36,-98.02 147.05,-100.44 156.62,-104.98 157.36,-98.02"/>
</g>
<!-- Function Approximation -->
<g id="node12" class="node">
<title>Function Approximation</title>
<g id="a_node12"><a xlink:href="../Function Approximation.html" xlink:title="Function Approximation" target="_parent">
<path fill="#273434" stroke="#b75867" d="M612.5,-147C612.5,-147 483.5,-147 483.5,-147 477.5,-147 471.5,-141 471.5,-135 471.5,-135 471.5,-123 471.5,-123 471.5,-117 477.5,-111 483.5,-111 483.5,-111 612.5,-111 612.5,-111 618.5,-111 624.5,-117 624.5,-123 624.5,-123 624.5,-135 624.5,-135 624.5,-141 618.5,-147 612.5,-147"/>
<text text-anchor="middle" x="548" y="-125.9" font-family="sans" font-size="12.00" fill="#c4c7c7">Function Approximation</text>
</a>
</g>
</g>
<!-- Numeric Methods&#45;&gt;Function Approximation -->
<g id="edge13" class="edge">
<title>Numeric Methods&#45;&gt;Function Approximation</title>
<path fill="none" stroke="#b75867" d="M312.74,-114.53C355.08,-117.15 413.45,-120.75 461.33,-123.71"/>
<polygon fill="#b75867" stroke="#b75867" points="461.19,-127.21 471.38,-124.33 461.62,-120.22 461.19,-127.21"/>
</g>
<!-- Subjects -->
<g id="node13" class="node">
<title>Subjects</title>
<g id="a_node13"><a xlink:href="../Subjects.html" xlink:title="Subjects" target="_parent">
<path fill="none" stroke="#b75867" d="M568.5,-110C568.5,-110 527.5,-110 527.5,-110 521.5,-110 515.5,-104 515.5,-98 515.5,-98 515.5,-86 515.5,-86 515.5,-80 521.5,-74 527.5,-74 527.5,-74 568.5,-74 568.5,-74 574.5,-74 580.5,-80 580.5,-86 580.5,-86 580.5,-98 580.5,-98 580.5,-104 574.5,-110 568.5,-110"/>
<text text-anchor="middle" x="548" y="-88.9" font-family="sans" font-size="12.00" fill="#c4c7c7">Subjects</text>
</a>
</g>
</g>
<!-- Numeric Methods&#45;&gt;Subjects -->
<g id="edge14" class="edge">
<title>Numeric Methods&#45;&gt;Subjects</title>
<path fill="none" stroke="#ffffff" d="M322.95,-106.6C383.33,-102.67 469.2,-97.07 515.12,-94.08"/>
<polygon fill="#ffffff" stroke="#ffffff" points="322.49,-103.13 312.74,-107.27 322.95,-110.11 322.49,-103.13"/>
</g>
<!-- Knowledege Base -->
<g id="node14" class="node">
<title>Knowledege Base</title>
<g id="a_node14"><a xlink:href="../Knowledege Base.html" xlink:title="Knowledege Base" target="_parent">
<path fill="none" stroke="#b75867" d="M594.5,-73C594.5,-73 501.5,-73 501.5,-73 495.5,-73 489.5,-67 489.5,-61 489.5,-61 489.5,-49 489.5,-49 489.5,-43 495.5,-37 501.5,-37 501.5,-37 594.5,-37 594.5,-37 600.5,-37 606.5,-43 606.5,-49 606.5,-49 606.5,-61 606.5,-61 606.5,-67 600.5,-73 594.5,-73"/>
<text text-anchor="middle" x="548" y="-51.9" font-family="sans" font-size="12.00" fill="#c4c7c7">Knowledege Base</text>
</a>
</g>
</g>
<!-- Numeric Methods&#45;&gt;Knowledege Base -->
<g id="edge15" class="edge">
<title>Numeric Methods&#45;&gt;Knowledege Base</title>
<path fill="none" stroke="#ffffff" d="M322.51,-103.29C333.65,-100.03 344.61,-95.44 354,-89 359.29,-85.37 356.54,-80.35 362,-77 399.9,-53.73 450.46,-49.11 489.14,-49.82"/>
<polygon fill="#ffffff" stroke="#ffffff" points="321.51,-99.93 312.71,-105.83 323.27,-106.71 321.51,-99.93"/>
</g>
<!-- Extrapolation&#45;&gt;Lagrange Interpolation -->
<g id="edge16" class="edge">
<title>Extrapolation&#45;&gt;Lagrange Interpolation</title>
<path fill="none" stroke="#b75867" d="M207.85,-79.25C192.41,-80.87 174.65,-82.69 157.24,-84.43"/>
<polygon fill="#b75867" stroke="#b75867" points="156.65,-80.97 147.05,-85.44 157.35,-87.93 156.65,-80.97"/>
</g>
<!-- Evaluating Interpolation Error&#45;&gt;Lagrange Interpolation -->
<g id="edge17" class="edge">
<title>Evaluating Interpolation Error&#45;&gt;Lagrange Interpolation</title>
<path fill="none" stroke="#b75867" d="M172.05,-55.05C166.25,-56.62 160.52,-58.27 155,-60 145.7,-62.92 135.96,-66.47 126.61,-70.13"/>
<polygon fill="#b75867" stroke="#b75867" points="125.02,-66.99 117.04,-73.95 127.62,-73.49 125.02,-66.99"/>
</g>
<!-- Rolle Theorem -->
<g id="node15" class="node">
<title>Rolle Theorem</title>
<g id="a_node15"><a xlink:href="../Rolle Theorem.html" xlink:title="Rolle Theorem" target="_parent">
<path fill="#273434" stroke="#b75867" d="M586.5,-36C586.5,-36 509.5,-36 509.5,-36 503.5,-36 497.5,-30 497.5,-24 497.5,-24 497.5,-12 497.5,-12 497.5,-6 503.5,0 509.5,0 509.5,0 586.5,0 586.5,0 592.5,0 598.5,-6 598.5,-12 598.5,-12 598.5,-24 598.5,-24 598.5,-30 592.5,-36 586.5,-36"/>
<text text-anchor="middle" x="548" y="-14.9" font-family="sans" font-size="12.00" fill="#c4c7c7">Rolle Theorem</text>
</a>
</g>
</g>
<!-- Evaluating Interpolation Error&#45;&gt;Rolle Theorem -->
<g id="edge18" class="edge">
<title>Evaluating Interpolation Error&#45;&gt;Rolle Theorem</title>
<path fill="none" stroke="#b75867" d="M347.33,-31.01C392.93,-28.04 446.72,-24.54 486.97,-21.91"/>
<polygon fill="#b75867" stroke="#b75867" points="487.41,-25.39 497.16,-21.25 486.96,-18.41 487.41,-25.39"/>
</g>
</g>
</svg>
