<?xml version="1.0" encoding="UTF-8" standalone="no"?>
<!DOCTYPE svg PUBLIC "-//W3C//DTD SVG 1.1//EN"
 "http://www.w3.org/Graphics/SVG/1.1/DTD/svg11.dtd">
<!-- Generated by graphviz version 2.44.0 (0)
 -->
<!-- Title: Lagrange Interpolation Problem Pages: 1 -->
<svg width="1701pt" height="260pt"
 viewBox="0.00 0.00 1700.69 260.00" xmlns="http://www.w3.org/2000/svg" xmlns:xlink="http://www.w3.org/1999/xlink">
<g id="page0,1_graph0" class="graph" transform="scale(1 1) rotate(0) translate(4 256)">
<title>Lagrange Interpolation Problem</title>
<polygon fill="#132020" stroke="transparent" points="-4,4 -4,-256 1696.69,-256 1696.69,4 -4,4"/>
<!-- Lagrange Interpolation Problem -->
<g id="node1" class="node">
<title>Lagrange Interpolation Problem</title>
<g id="a_node1"><a xlink:href="../Lagrange Interpolation Problem.html" xlink:title="Lagrange Interpolation Problem" target="_parent">
<path fill="#273434" stroke="#b75867" d="M718.2,-252C718.2,-252 543.2,-252 543.2,-252 537.2,-252 531.2,-246 531.2,-240 531.2,-240 531.2,-228 531.2,-228 531.2,-222 537.2,-216 543.2,-216 543.2,-216 718.2,-216 718.2,-216 724.2,-216 730.2,-222 730.2,-228 730.2,-228 730.2,-240 730.2,-240 730.2,-246 724.2,-252 718.2,-252"/>
<text text-anchor="middle" x="630.7" y="-230.9" font-family="sans" font-size="12.00" fill="#c4c7c7">Lagrange Interpolation Problem</text>
</a>
</g>
</g>
<!-- Kronecker Delta -->
<g id="node2" class="node">
<title>Kronecker Delta</title>
<g id="a_node2"><a xlink:href="../Kronecker Delta.html" xlink:title="Kronecker Delta" target="_parent">
<path fill="#273434" stroke="#b75867" d="M305.2,-108C305.2,-108 222.2,-108 222.2,-108 216.2,-108 210.2,-102 210.2,-96 210.2,-96 210.2,-84 210.2,-84 210.2,-78 216.2,-72 222.2,-72 222.2,-72 305.2,-72 305.2,-72 311.2,-72 317.2,-78 317.2,-84 317.2,-84 317.2,-96 317.2,-96 317.2,-102 311.2,-108 305.2,-108"/>
<text text-anchor="middle" x="263.7" y="-86.9" font-family="sans" font-size="12.00" fill="#c4c7c7">Kronecker Delta</text>
</a>
</g>
</g>
<!-- Lagrange Interpolation Problem&#45;&gt;Kronecker Delta -->
<g id="edge1" class="edge">
<title>Lagrange Interpolation Problem&#45;&gt;Kronecker Delta</title>
<path fill="none" stroke="#b75867" d="M530.96,-231.67C365.01,-228.42 46.97,-217.34 12.7,-180 -44.49,-117.7 108.15,-98.99 199.99,-93.39"/>
<polygon fill="#b75867" stroke="#b75867" points="200.26,-96.88 210.05,-92.81 199.86,-89.89 200.26,-96.88"/>
</g>
<!-- Formula of Lagrange for Interpolation -->
<g id="node3" class="node">
<title>Formula of Lagrange for Interpolation</title>
<g id="a_node3"><a xlink:href="../Formula of Lagrange for Interpolation.html" xlink:title="Formula of Lagrange for Interpolation" target="_parent">
<path fill="#273434" stroke="#b75867" d="M241.2,-180C241.2,-180 34.2,-180 34.2,-180 28.2,-180 22.2,-174 22.2,-168 22.2,-168 22.2,-156 22.2,-156 22.2,-150 28.2,-144 34.2,-144 34.2,-144 241.2,-144 241.2,-144 247.2,-144 253.2,-150 253.2,-156 253.2,-156 253.2,-168 253.2,-168 253.2,-174 247.2,-180 241.2,-180"/>
<text text-anchor="middle" x="137.7" y="-158.9" font-family="sans" font-size="12.00" fill="#c4c7c7">Formula of Lagrange for Interpolation</text>
</a>
</g>
</g>
<!-- Lagrange Interpolation Problem&#45;&gt;Formula of Lagrange for Interpolation -->
<g id="edge2" class="edge">
<title>Lagrange Interpolation Problem&#45;&gt;Formula of Lagrange for Interpolation</title>
<path fill="none" stroke="#b75867" d="M530.93,-218.83C453.74,-207.87 346.37,-192.63 263.32,-180.84"/>
<polygon fill="#b75867" stroke="#b75867" points="263.71,-177.36 253.32,-179.42 262.73,-184.29 263.71,-177.36"/>
</g>
<!-- Fundamental polynomials of Lagrange -->
<g id="node4" class="node">
<title>Fundamental polynomials of Lagrange</title>
<g id="a_node4"><a xlink:href="../Fundamental polynomials of Lagrange.html" xlink:title="Fundamental polynomials of Lagrange" target="_parent">
<path fill="#273434" stroke="#b75867" d="M495.7,-180C495.7,-180 283.7,-180 283.7,-180 277.7,-180 271.7,-174 271.7,-168 271.7,-168 271.7,-156 271.7,-156 271.7,-150 277.7,-144 283.7,-144 283.7,-144 495.7,-144 495.7,-144 501.7,-144 507.7,-150 507.7,-156 507.7,-156 507.7,-168 507.7,-168 507.7,-174 501.7,-180 495.7,-180"/>
<text text-anchor="middle" x="389.7" y="-158.9" font-family="sans" font-size="12.00" fill="#c4c7c7">Fundamental polynomials of Lagrange</text>
</a>
</g>
</g>
<!-- Lagrange Interpolation Problem&#45;&gt;Fundamental polynomials of Lagrange -->
<g id="edge3" class="edge">
<title>Lagrange Interpolation Problem&#45;&gt;Fundamental polynomials of Lagrange</title>
<path fill="none" stroke="#b75867" d="M572.05,-215.97C537.79,-206.01 494.38,-193.41 458.51,-182.99"/>
<polygon fill="#b75867" stroke="#b75867" points="459.19,-179.54 448.61,-180.11 457.23,-186.26 459.19,-179.54"/>
</g>
<!-- Fundamental Theorem of Algebra -->
<g id="node5" class="node">
<title>Fundamental Theorem of Algebra</title>
<g id="a_node5"><a xlink:href="../Fundamental Theorem of Algebra.html" xlink:title="Fundamental Theorem of Algebra" target="_parent">
<path fill="#273434" stroke="#b75867" d="M723.2,-180C723.2,-180 538.2,-180 538.2,-180 532.2,-180 526.2,-174 526.2,-168 526.2,-168 526.2,-156 526.2,-156 526.2,-150 532.2,-144 538.2,-144 538.2,-144 723.2,-144 723.2,-144 729.2,-144 735.2,-150 735.2,-156 735.2,-156 735.2,-168 735.2,-168 735.2,-174 729.2,-180 723.2,-180"/>
<text text-anchor="middle" x="630.7" y="-158.9" font-family="sans" font-size="12.00" fill="#c4c7c7">Fundamental Theorem of Algebra</text>
</a>
</g>
</g>
<!-- Lagrange Interpolation Problem&#45;&gt;Fundamental Theorem of Algebra -->
<g id="edge4" class="edge">
<title>Lagrange Interpolation Problem&#45;&gt;Fundamental Theorem of Algebra</title>
<path fill="none" stroke="#b75867" d="M630.7,-215.7C630.7,-207.98 630.7,-198.71 630.7,-190.11"/>
<polygon fill="#b75867" stroke="#b75867" points="634.2,-190.1 630.7,-180.1 627.2,-190.1 634.2,-190.1"/>
</g>
<!-- Lagrange Interpolation -->
<g id="node6" class="node">
<title>Lagrange Interpolation</title>
<g id="a_node6"><a xlink:href="../Lagrange Interpolation.html" xlink:title="Lagrange Interpolation" target="_parent">
<ellipse fill="#273434" stroke="#b75867" cx="843.7" cy="-162" rx="90.48" ry="18"/>
<text text-anchor="middle" x="843.7" y="-158.9" font-family="sans" font-size="12.00" fill="#c4c7c7">Lagrange Interpolation</text>
</a>
</g>
</g>
<!-- Lagrange Interpolation Problem&#45;&gt;Lagrange Interpolation -->
<g id="edge7" class="edge">
<title>Lagrange Interpolation Problem&#45;&gt;Lagrange Interpolation</title>
<path fill="none" stroke="#ffffff" d="M692.37,-212.73C726.42,-201.54 767.93,-187.9 798.86,-177.73"/>
<polygon fill="#ffffff" stroke="#ffffff" points="690.94,-209.52 682.53,-215.97 693.12,-216.17 690.94,-209.52"/>
</g>
<!-- Lagrange Interpolation Polynomial -->
<g id="node7" class="node">
<title>Lagrange Interpolation Polynomial</title>
<g id="a_node7"><a xlink:href="../Lagrange Interpolation Polynomial.html" xlink:title="Lagrange Interpolation Polynomial" target="_parent">
<ellipse fill="#273434" stroke="#b75867" cx="1084.7" cy="-162" rx="132.2" ry="18"/>
<text text-anchor="middle" x="1084.7" y="-158.9" font-family="sans" font-size="12.00" fill="#c4c7c7">Lagrange Interpolation Polynomial</text>
</a>
</g>
</g>
<!-- Lagrange Interpolation Problem&#45;&gt;Lagrange Interpolation Polynomial -->
<g id="edge8" class="edge">
<title>Lagrange Interpolation Problem&#45;&gt;Lagrange Interpolation Polynomial</title>
<path fill="none" stroke="#ffffff" d="M740.44,-216.08C820.44,-203.74 927.22,-187.28 1000.53,-175.98"/>
<polygon fill="#ffffff" stroke="#ffffff" points="739.68,-212.66 730.33,-217.64 740.75,-219.57 739.68,-212.66"/>
</g>
<!-- The Lagrange Interpolation Polynomial of a Polynomial is itself -->
<g id="node8" class="node">
<title>The Lagrange Interpolation Polynomial of a Polynomial is itself</title>
<g id="a_node8"><a xlink:href="../The Lagrange Interpolation Polynomial of a Polynomial is itself.html" xlink:title="The Lagrange Interpolation Polynomial of a Polynomial is itself" target="_parent">
<ellipse fill="#273434" stroke="#b75867" cx="1463.7" cy="-162" rx="229" ry="18"/>
<text text-anchor="middle" x="1463.7" y="-158.9" font-family="sans" font-size="12.00" fill="#c4c7c7">The Lagrange Interpolation Polynomial of a Polynomial is itself</text>
</a>
</g>
</g>
<!-- Lagrange Interpolation Problem&#45;&gt;The Lagrange Interpolation Polynomial of a Polynomial is itself -->
<g id="edge9" class="edge">
<title>Lagrange Interpolation Problem&#45;&gt;The Lagrange Interpolation Polynomial of a Polynomial is itself</title>
<path fill="none" stroke="#ffffff" d="M740.73,-223.75C887.71,-211.4 1148.68,-189.47 1313.61,-175.61"/>
<polygon fill="#ffffff" stroke="#ffffff" points="740.02,-220.3 730.35,-224.63 740.61,-227.28 740.02,-220.3"/>
</g>
<!-- Linear Algebra -->
<g id="node9" class="node">
<title>Linear Algebra</title>
<g id="a_node9"><a xlink:href="../Linear Algebra.html" xlink:title="Linear Algebra" target="_parent">
<ellipse fill="#273434" stroke="#b75867" cx="329.7" cy="-18" rx="60.16" ry="18"/>
<text text-anchor="middle" x="329.7" y="-14.9" font-family="sans" font-size="12.00" fill="#c4c7c7">Linear Algebra</text>
</a>
</g>
</g>
<!-- Kronecker Delta&#45;&gt;Linear Algebra -->
<g id="edge10" class="edge">
<title>Kronecker Delta&#45;&gt;Linear Algebra</title>
<path fill="none" stroke="#ffffff" d="M286.92,-64.37C295.9,-54.85 305.93,-44.21 314.02,-35.62"/>
<polygon fill="#ffffff" stroke="#ffffff" points="284.32,-62.02 280.01,-71.7 289.42,-66.82 284.32,-62.02"/>
</g>
<!-- Formula of Lagrange for Interpolation&#45;&gt;Kronecker Delta -->
<g id="edge5" class="edge">
<title>Formula of Lagrange for Interpolation&#45;&gt;Kronecker Delta</title>
<path fill="none" stroke="#b75867" d="M168.52,-143.88C185.15,-134.64 205.86,-123.13 223.72,-113.21"/>
<polygon fill="#b75867" stroke="#b75867" points="225.71,-116.11 232.75,-108.19 222.31,-109.99 225.71,-116.11"/>
</g>
<!-- Fundamental polynomials of Lagrange&#45;&gt;Kronecker Delta -->
<g id="edge6" class="edge">
<title>Fundamental polynomials of Lagrange&#45;&gt;Kronecker Delta</title>
<path fill="none" stroke="#b75867" d="M358.87,-143.88C342.25,-134.64 321.53,-123.13 303.68,-113.21"/>
<polygon fill="#b75867" stroke="#b75867" points="305.08,-109.99 294.64,-108.19 301.68,-116.11 305.08,-109.99"/>
</g>
<!-- Fundamental Theorem of Algebra&#45;&gt;Linear Algebra -->
<g id="edge12" class="edge">
<title>Fundamental Theorem of Algebra&#45;&gt;Linear Algebra</title>
<path fill="none" stroke="#ffffff" d="M585.24,-139.55C523.29,-110.33 413.98,-58.76 360.67,-33.61"/>
<polygon fill="#ffffff" stroke="#ffffff" points="583.85,-142.77 594.39,-143.87 586.84,-136.44 583.85,-142.77"/>
</g>
<!-- Recurrent Equations -->
<g id="node10" class="node">
<title>Recurrent Equations</title>
<g id="a_node10"><a xlink:href="../Recurrent Equations.html" xlink:title="Recurrent Equations" target="_parent">
<ellipse fill="#273434" stroke="#b75867" cx="630.7" cy="-90" rx="80.78" ry="18"/>
<text text-anchor="middle" x="630.7" y="-86.9" font-family="sans" font-size="12.00" fill="#c4c7c7">Recurrent Equations</text>
</a>
</g>
</g>
<!-- Fundamental Theorem of Algebra&#45;&gt;Recurrent Equations -->
<g id="edge11" class="edge">
<title>Fundamental Theorem of Algebra&#45;&gt;Recurrent Equations</title>
<path fill="none" stroke="#ffffff" d="M630.7,-133.67C630.7,-125.05 630.7,-115.79 630.7,-108.1"/>
<polygon fill="#ffffff" stroke="#ffffff" points="627.2,-133.7 630.7,-143.7 634.2,-133.7 627.2,-133.7"/>
</g>
</g>
</svg>
