<?xml version="1.0" encoding="UTF-8" standalone="no"?>
<!DOCTYPE svg PUBLIC "-//W3C//DTD SVG 1.1//EN"
 "http://www.w3.org/Graphics/SVG/1.1/DTD/svg11.dtd">
<!-- Generated by graphviz version 2.44.0 (0)
 -->
<!-- Title: Lagrange Interpolation Polynomial Pages: 1 -->
<svg width="1180pt" height="260pt"
 viewBox="0.00 0.00 1179.64 260.00" xmlns="http://www.w3.org/2000/svg" xmlns:xlink="http://www.w3.org/1999/xlink">
<g id="page0,1_graph0" class="graph" transform="scale(1 1) rotate(0) translate(4 256)">
<title>Lagrange Interpolation Polynomial</title>
<polygon fill="#132020" stroke="transparent" points="-4,4 -4,-256 1175.64,-256 1175.64,4 -4,4"/>
<!-- Lagrange Interpolation Polynomial -->
<g id="node1" class="node">
<title>Lagrange Interpolation Polynomial</title>
<g id="a_node1"><a xlink:title="Lagrange Interpolation Polynomial">
<path fill="#273434" stroke="#b75867" d="M807.14,-252C807.14,-252 616.14,-252 616.14,-252 610.14,-252 604.14,-246 604.14,-240 604.14,-240 604.14,-228 604.14,-228 604.14,-222 610.14,-216 616.14,-216 616.14,-216 807.14,-216 807.14,-216 813.14,-216 819.14,-222 819.14,-228 819.14,-228 819.14,-240 819.14,-240 819.14,-246 813.14,-252 807.14,-252"/>
<text text-anchor="middle" x="711.64" y="-230.9" font-family="sans" font-size="12.00" fill="#c4c7c7">Lagrange Interpolation Polynomial</text>
</a>
</g>
</g>
<!-- Lagrange Interpolation Problem -->
<g id="node2" class="node">
<title>Lagrange Interpolation Problem</title>
<g id="a_node2"><a xlink:title="Lagrange Interpolation Problem">
<path fill="#273434" stroke="#b75867" d="M735.14,-180C735.14,-180 560.14,-180 560.14,-180 554.14,-180 548.14,-174 548.14,-168 548.14,-168 548.14,-156 548.14,-156 548.14,-150 554.14,-144 560.14,-144 560.14,-144 735.14,-144 735.14,-144 741.14,-144 747.14,-150 747.14,-156 747.14,-156 747.14,-168 747.14,-168 747.14,-174 741.14,-180 735.14,-180"/>
<text text-anchor="middle" x="647.64" y="-158.9" font-family="sans" font-size="12.00" fill="#c4c7c7">Lagrange Interpolation Problem</text>
</a>
</g>
</g>
<!-- Lagrange Interpolation Polynomial&#45;&gt;Lagrange Interpolation Problem -->
<g id="edge1" class="edge">
<title>Lagrange Interpolation Polynomial&#45;&gt;Lagrange Interpolation Problem</title>
<path fill="none" stroke="#b75867" d="M695.82,-215.7C688.07,-207.22 678.6,-196.86 670.12,-187.58"/>
<polygon fill="#b75867" stroke="#b75867" points="672.61,-185.12 663.28,-180.1 667.44,-189.85 672.61,-185.12"/>
</g>
<!-- The Lagrange Interpolation Polynomial of a Polynomial is itself -->
<g id="node7" class="node">
<title>The Lagrange Interpolation Polynomial of a Polynomial is itself</title>
<g id="a_node7"><a xlink:title="The Lagrange Interpolation Polynomial of a Polynomial is itself">
<ellipse fill="#273434" stroke="#b75867" cx="942.64" cy="-90" rx="229" ry="18"/>
<text text-anchor="middle" x="942.64" y="-86.9" font-family="sans" font-size="12.00" fill="#c4c7c7">The Lagrange Interpolation Polynomial of a Polynomial is itself</text>
</a>
</g>
</g>
<!-- Lagrange Interpolation Polynomial&#45;&gt;The Lagrange Interpolation Polynomial of a Polynomial is itself -->
<g id="edge6" class="edge">
<title>Lagrange Interpolation Polynomial&#45;&gt;The Lagrange Interpolation Polynomial of a Polynomial is itself</title>
<path fill="none" stroke="#ffffff" d="M748.04,-210.63C794.36,-182.15 873.37,-133.58 915.04,-107.97"/>
<polygon fill="#ffffff" stroke="#ffffff" points="746.19,-207.65 739.51,-215.87 749.86,-213.62 746.19,-207.65"/>
</g>
<!-- Kronecker Delta -->
<g id="node3" class="node">
<title>Kronecker Delta</title>
<g id="a_node3"><a xlink:title="Kronecker Delta">
<path fill="#273434" stroke="#b75867" d="M409.14,-108C409.14,-108 326.14,-108 326.14,-108 320.14,-108 314.14,-102 314.14,-96 314.14,-96 314.14,-84 314.14,-84 314.14,-78 320.14,-72 326.14,-72 326.14,-72 409.14,-72 409.14,-72 415.14,-72 421.14,-78 421.14,-84 421.14,-84 421.14,-96 421.14,-96 421.14,-102 415.14,-108 409.14,-108"/>
<text text-anchor="middle" x="367.64" y="-86.9" font-family="sans" font-size="12.00" fill="#c4c7c7">Kronecker Delta</text>
</a>
</g>
</g>
<!-- Lagrange Interpolation Problem&#45;&gt;Kronecker Delta -->
<g id="edge2" class="edge">
<title>Lagrange Interpolation Problem&#45;&gt;Kronecker Delta</title>
<path fill="none" stroke="#b75867" d="M575.69,-143.89C535.79,-134.29 485.04,-121.9 431,-108.06"/>
<polygon fill="#b75867" stroke="#b75867" points="431.79,-104.65 421.24,-105.56 430.05,-111.43 431.79,-104.65"/>
</g>
<!-- Formula of Lagrange for Interpolation -->
<g id="node4" class="node">
<title>Formula of Lagrange for Interpolation</title>
<g id="a_node4"><a xlink:title="Formula of Lagrange for Interpolation">
<path fill="#273434" stroke="#b75867" d="M537.14,-36C537.14,-36 330.14,-36 330.14,-36 324.14,-36 318.14,-30 318.14,-24 318.14,-24 318.14,-12 318.14,-12 318.14,-6 324.14,0 330.14,0 330.14,0 537.14,0 537.14,0 543.14,0 549.14,-6 549.14,-12 549.14,-12 549.14,-24 549.14,-24 549.14,-30 543.14,-36 537.14,-36"/>
<text text-anchor="middle" x="433.64" y="-14.9" font-family="sans" font-size="12.00" fill="#c4c7c7">Formula of Lagrange for Interpolation</text>
</a>
</g>
</g>
<!-- Lagrange Interpolation Problem&#45;&gt;Formula of Lagrange for Interpolation -->
<g id="edge3" class="edge">
<title>Lagrange Interpolation Problem&#45;&gt;Formula of Lagrange for Interpolation</title>
<path fill="none" stroke="#b75867" d="M648.91,-143.87C649.4,-123.97 647,-91.39 628.64,-72 615.83,-58.46 580.06,-47.03 542.6,-38.29"/>
<polygon fill="#b75867" stroke="#b75867" points="543.05,-34.81 532.53,-36.01 541.51,-41.63 543.05,-34.81"/>
</g>
<!-- Fundamental polynomials of Lagrange -->
<g id="node5" class="node">
<title>Fundamental polynomials of Lagrange</title>
<g id="a_node5"><a xlink:title="Fundamental polynomials of Lagrange">
<path fill="#273434" stroke="#b75867" d="M791.64,-36C791.64,-36 579.64,-36 579.64,-36 573.64,-36 567.64,-30 567.64,-24 567.64,-24 567.64,-12 567.64,-12 567.64,-6 573.64,0 579.64,0 579.64,0 791.64,0 791.64,0 797.64,0 803.64,-6 803.64,-12 803.64,-12 803.64,-24 803.64,-24 803.64,-30 797.64,-36 791.64,-36"/>
<text text-anchor="middle" x="685.64" y="-14.9" font-family="sans" font-size="12.00" fill="#c4c7c7">Fundamental polynomials of Lagrange</text>
</a>
</g>
</g>
<!-- Lagrange Interpolation Problem&#45;&gt;Fundamental polynomials of Lagrange -->
<g id="edge4" class="edge">
<title>Lagrange Interpolation Problem&#45;&gt;Fundamental polynomials of Lagrange</title>
<path fill="none" stroke="#b75867" d="M652.23,-143.87C658.73,-119.56 670.7,-74.82 678.41,-46.01"/>
<polygon fill="#b75867" stroke="#b75867" points="681.84,-46.75 681.04,-36.19 675.08,-44.94 681.84,-46.75"/>
</g>
<!-- Fundamental Theorem of Algebra -->
<g id="node6" class="node">
<title>Fundamental Theorem of Algebra</title>
<g id="a_node6"><a xlink:title="Fundamental Theorem of Algebra">
<path fill="#273434" stroke="#b75867" d="M284.14,-108C284.14,-108 99.14,-108 99.14,-108 93.14,-108 87.14,-102 87.14,-96 87.14,-96 87.14,-84 87.14,-84 87.14,-78 93.14,-72 99.14,-72 99.14,-72 284.14,-72 284.14,-72 290.14,-72 296.14,-78 296.14,-84 296.14,-84 296.14,-96 296.14,-96 296.14,-102 290.14,-108 284.14,-108"/>
<text text-anchor="middle" x="191.64" y="-86.9" font-family="sans" font-size="12.00" fill="#c4c7c7">Fundamental Theorem of Algebra</text>
</a>
</g>
</g>
<!-- Lagrange Interpolation Problem&#45;&gt;Fundamental Theorem of Algebra -->
<g id="edge5" class="edge">
<title>Lagrange Interpolation Problem&#45;&gt;Fundamental Theorem of Algebra</title>
<path fill="none" stroke="#b75867" d="M548.13,-145.72C476.91,-134.79 380.84,-120.04 306.38,-108.61"/>
<polygon fill="#b75867" stroke="#b75867" points="306.9,-105.15 296.49,-107.09 305.84,-112.07 306.9,-105.15"/>
</g>
<!-- Lagrange Interpolation Problem&#45;&gt;The Lagrange Interpolation Polynomial of a Polynomial is itself -->
<g id="edge8" class="edge">
<title>Lagrange Interpolation Problem&#45;&gt;The Lagrange Interpolation Polynomial of a Polynomial is itself</title>
<path fill="none" stroke="#ffffff" d="M729.29,-141.63C774.9,-130.8 831.08,-117.47 874.34,-107.21"/>
<polygon fill="#ffffff" stroke="#ffffff" points="728.35,-138.25 719.43,-143.97 729.97,-145.06 728.35,-138.25"/>
</g>
<!-- Lagrange Interpolation -->
<g id="node8" class="node">
<title>Lagrange Interpolation</title>
<g id="a_node8"><a xlink:title="Lagrange Interpolation">
<ellipse fill="#273434" stroke="#b75867" cx="529.64" cy="-90" rx="90.48" ry="18"/>
<text text-anchor="middle" x="529.64" y="-86.9" font-family="sans" font-size="12.00" fill="#c4c7c7">Lagrange Interpolation</text>
</a>
</g>
</g>
<!-- Lagrange Interpolation Problem&#45;&gt;Lagrange Interpolation -->
<g id="edge7" class="edge">
<title>Lagrange Interpolation Problem&#45;&gt;Lagrange Interpolation</title>
<path fill="none" stroke="#ffffff" d="M610.06,-138.7C592.82,-128.48 572.77,-116.58 556.99,-107.23"/>
<polygon fill="#ffffff" stroke="#ffffff" points="608.39,-141.78 618.78,-143.88 611.96,-135.76 608.39,-141.78"/>
</g>
<!-- Kronecker Delta&#45;&gt;Formula of Lagrange for Interpolation -->
<g id="edge11" class="edge">
<title>Kronecker Delta&#45;&gt;Formula of Lagrange for Interpolation</title>
<path fill="none" stroke="#ffffff" d="M391.03,-64.2C399.79,-54.9 409.55,-44.55 417.51,-36.1"/>
<polygon fill="#ffffff" stroke="#ffffff" points="388.27,-62.02 383.96,-71.7 393.36,-66.82 388.27,-62.02"/>
</g>
<!-- Kronecker Delta&#45;&gt;Fundamental polynomials of Lagrange -->
<g id="edge9" class="edge">
<title>Kronecker Delta&#45;&gt;Fundamental polynomials of Lagrange</title>
<path fill="none" stroke="#ffffff" d="M431.03,-71.98C492.14,-57.52 550.7,-45.33 597.44,-36.01"/>
<polygon fill="#ffffff" stroke="#ffffff" points="430.12,-68.6 421.2,-74.32 431.74,-75.41 430.12,-68.6"/>
</g>
<!-- Linear Algebra -->
<g id="node9" class="node">
<title>Linear Algebra</title>
<g id="a_node9"><a xlink:title="Linear Algebra">
<ellipse fill="#273434" stroke="#b75867" cx="239.64" cy="-18" rx="60.16" ry="18"/>
<text text-anchor="middle" x="239.64" y="-14.9" font-family="sans" font-size="12.00" fill="#c4c7c7">Linear Algebra</text>
</a>
</g>
</g>
<!-- Kronecker Delta&#45;&gt;Linear Algebra -->
<g id="edge10" class="edge">
<title>Kronecker Delta&#45;&gt;Linear Algebra</title>
<path fill="none" stroke="#ffffff" d="M327.32,-66.95C307.73,-56.23 284.7,-43.64 267.15,-34.05"/>
<polygon fill="#ffffff" stroke="#ffffff" points="325.88,-70.15 336.33,-71.88 329.24,-64.01 325.88,-70.15"/>
</g>
<!-- Fundamental Theorem of Algebra&#45;&gt;Linear Algebra -->
<g id="edge13" class="edge">
<title>Fundamental Theorem of Algebra&#45;&gt;Linear Algebra</title>
<path fill="none" stroke="#ffffff" d="M209.22,-63.36C215.45,-54.28 222.29,-44.3 227.91,-36.1"/>
<polygon fill="#ffffff" stroke="#ffffff" points="206.28,-61.47 203.51,-71.7 212.05,-65.43 206.28,-61.47"/>
</g>
<!-- Recurrent Equations -->
<g id="node10" class="node">
<title>Recurrent Equations</title>
<g id="a_node10"><a xlink:title="Recurrent Equations">
<ellipse fill="#273434" stroke="#b75867" cx="80.64" cy="-18" rx="80.78" ry="18"/>
<text text-anchor="middle" x="80.64" y="-14.9" font-family="sans" font-size="12.00" fill="#c4c7c7">Recurrent Equations</text>
</a>
</g>
</g>
<!-- Fundamental Theorem of Algebra&#45;&gt;Recurrent Equations -->
<g id="edge12" class="edge">
<title>Fundamental Theorem of Algebra&#45;&gt;Recurrent Equations</title>
<path fill="none" stroke="#ffffff" d="M155.84,-66.42C139.73,-56.26 121.07,-44.5 106.37,-35.23"/>
<polygon fill="#ffffff" stroke="#ffffff" points="154.16,-69.5 164.49,-71.88 157.9,-63.58 154.16,-69.5"/>
</g>
</g>
</svg>
