<?xml version="1.0" encoding="UTF-8" standalone="no"?>
<!DOCTYPE svg PUBLIC "-//W3C//DTD SVG 1.1//EN"
 "http://www.w3.org/Graphics/SVG/1.1/DTD/svg11.dtd">
<!-- Generated by graphviz version 2.44.0 (0)
 -->
<!-- Title: Lagrange Interpolation Problem Pages: 1 -->
<svg width="810pt" height="303pt"
 viewBox="0.00 0.00 810.00 303.00" xmlns="http://www.w3.org/2000/svg" xmlns:xlink="http://www.w3.org/1999/xlink">
<g id="page0,1_graph0" class="graph" transform="scale(1 1) rotate(0) translate(4 299)">
<title>Lagrange Interpolation Problem</title>
<polygon fill="#132020" stroke="transparent" points="-4,4 -4,-299 806,-299 806,4 -4,4"/>
<!-- Lagrange Interpolation Problem -->
<g id="node1" class="node">
<title>Lagrange Interpolation Problem</title>
<g id="a_node1"><a xlink:href="../Lagrange Interpolation Problem.html" xlink:title="Lagrange Interpolation Problem" target="_parent">
<path fill="#273434" stroke="#b75867" d="M187,-193C187,-193 12,-193 12,-193 6,-193 0,-187 0,-181 0,-181 0,-169 0,-169 0,-163 6,-157 12,-157 12,-157 187,-157 187,-157 193,-157 199,-163 199,-169 199,-169 199,-181 199,-181 199,-187 193,-193 187,-193"/>
<text text-anchor="middle" x="99.5" y="-171.9" font-family="sans" font-size="12.00" fill="#c4c7c7">Lagrange Interpolation Problem</text>
</a>
</g>
</g>
<!-- Kronecker Delta -->
<g id="node2" class="node">
<title>Kronecker Delta</title>
<g id="a_node2"><a xlink:href="../Kronecker Delta.html" xlink:title="Kronecker Delta" target="_parent">
<path fill="#273434" stroke="#b75867" d="M356,-258C356,-258 273,-258 273,-258 267,-258 261,-252 261,-246 261,-246 261,-234 261,-234 261,-228 267,-222 273,-222 273,-222 356,-222 356,-222 362,-222 368,-228 368,-234 368,-234 368,-246 368,-246 368,-252 362,-258 356,-258"/>
<text text-anchor="middle" x="314.5" y="-236.9" font-family="sans" font-size="12.00" fill="#c4c7c7">Kronecker Delta</text>
</a>
</g>
</g>
<!-- Lagrange Interpolation Problem&#45;&gt;Kronecker Delta -->
<g id="edge1" class="edge">
<title>Lagrange Interpolation Problem&#45;&gt;Kronecker Delta</title>
<path fill="none" stroke="#b75867" d="M148.16,-193.09C166.43,-199.74 187.56,-207.08 207,-213 221.16,-217.31 236.52,-221.49 251.05,-225.22"/>
<polygon fill="#b75867" stroke="#b75867" points="250.4,-228.66 260.95,-227.72 252.12,-221.88 250.4,-228.66"/>
</g>
<!-- Formula of Lagrange for Interpolation -->
<g id="node3" class="node">
<title>Formula of Lagrange for Interpolation</title>
<g id="a_node3"><a xlink:href="../Formula of Lagrange for Interpolation.html" xlink:title="Formula of Lagrange for Interpolation" target="_parent">
<path fill="#273434" stroke="#b75867" d="M719.5,-295C719.5,-295 512.5,-295 512.5,-295 506.5,-295 500.5,-289 500.5,-283 500.5,-283 500.5,-271 500.5,-271 500.5,-265 506.5,-259 512.5,-259 512.5,-259 719.5,-259 719.5,-259 725.5,-259 731.5,-265 731.5,-271 731.5,-271 731.5,-283 731.5,-283 731.5,-289 725.5,-295 719.5,-295"/>
<text text-anchor="middle" x="616" y="-273.9" font-family="sans" font-size="12.00" fill="#c4c7c7">Formula of Lagrange for Interpolation</text>
</a>
</g>
</g>
<!-- Lagrange Interpolation Problem&#45;&gt;Formula of Lagrange for Interpolation -->
<g id="edge2" class="edge">
<title>Lagrange Interpolation Problem&#45;&gt;Formula of Lagrange for Interpolation</title>
<path fill="none" stroke="#b75867" d="M116.46,-193.07C135.64,-213.35 169.92,-245.21 207,-259 297.59,-292.68 407.39,-295.6 490.25,-290.96"/>
<polygon fill="#b75867" stroke="#b75867" points="490.71,-294.44 500.48,-290.34 490.28,-287.45 490.71,-294.44"/>
</g>
<!-- Fundamental polynomials of Lagrange -->
<g id="node4" class="node">
<title>Fundamental polynomials of Lagrange</title>
<g id="a_node4"><a xlink:href="../Fundamental polynomials of Lagrange.html" xlink:title="Fundamental polynomials of Lagrange" target="_parent">
<path fill="#273434" stroke="#b75867" d="M722,-258C722,-258 510,-258 510,-258 504,-258 498,-252 498,-246 498,-246 498,-234 498,-234 498,-228 504,-222 510,-222 510,-222 722,-222 722,-222 728,-222 734,-228 734,-234 734,-234 734,-246 734,-246 734,-252 728,-258 722,-258"/>
<text text-anchor="middle" x="616" y="-236.9" font-family="sans" font-size="12.00" fill="#c4c7c7">Fundamental polynomials of Lagrange</text>
</a>
</g>
</g>
<!-- Lagrange Interpolation Problem&#45;&gt;Fundamental polynomials of Lagrange -->
<g id="edge3" class="edge">
<title>Lagrange Interpolation Problem&#45;&gt;Fundamental polynomials of Lagrange</title>
<path fill="none" stroke="#b75867" d="M199.1,-192.82C201.76,-193.23 204.4,-193.62 207,-194 300.69,-207.62 406.99,-219.49 487.59,-227.76"/>
<polygon fill="#b75867" stroke="#b75867" points="487.49,-231.27 497.79,-228.8 488.2,-224.31 487.49,-231.27"/>
</g>
<!-- Fundamental Theorem of Algebra -->
<g id="node5" class="node">
<title>Fundamental Theorem of Algebra</title>
<g id="a_node5"><a xlink:href="../Fundamental Theorem of Algebra.html" xlink:title="Fundamental Theorem of Algebra" target="_parent">
<path fill="#273434" stroke="#b75867" d="M407,-193C407,-193 222,-193 222,-193 216,-193 210,-187 210,-181 210,-181 210,-169 210,-169 210,-163 216,-157 222,-157 222,-157 407,-157 407,-157 413,-157 419,-163 419,-169 419,-169 419,-181 419,-181 419,-187 413,-193 407,-193"/>
<text text-anchor="middle" x="314.5" y="-171.9" font-family="sans" font-size="12.00" fill="#c4c7c7">Fundamental Theorem of Algebra</text>
</a>
</g>
</g>
<!-- Lagrange Interpolation Problem&#45;&gt;Fundamental Theorem of Algebra -->
<g id="edge4" class="edge">
<title>Lagrange Interpolation Problem&#45;&gt;Fundamental Theorem of Algebra</title>
<path fill="none" stroke="#b75867" d="M199.21,-175C199.43,-175 199.65,-175 199.88,-175"/>
<polygon fill="#b75867" stroke="#b75867" points="200,-178.5 210,-175 200,-171.5 200,-178.5"/>
</g>
<!-- Lagrange Interpolation -->
<g id="node6" class="node">
<title>Lagrange Interpolation</title>
<g id="a_node6"><a xlink:href="../Lagrange Interpolation.html" xlink:title="Lagrange Interpolation" target="_parent">
<path fill="none" stroke="#b75867" d="M376,-147C376,-147 253,-147 253,-147 247,-147 241,-141 241,-135 241,-135 241,-123 241,-123 241,-117 247,-111 253,-111 253,-111 376,-111 376,-111 382,-111 388,-117 388,-123 388,-123 388,-135 388,-135 388,-141 382,-147 376,-147"/>
<text text-anchor="middle" x="314.5" y="-125.9" font-family="sans" font-size="12.00" fill="#c4c7c7">Lagrange Interpolation</text>
</a>
</g>
</g>
<!-- Lagrange Interpolation Problem&#45;&gt;Lagrange Interpolation -->
<g id="edge5" class="edge">
<title>Lagrange Interpolation Problem&#45;&gt;Lagrange Interpolation</title>
<path fill="none" stroke="#ffffff" d="M194.27,-154.75C209.89,-151.38 225.88,-147.92 240.87,-144.68"/>
<polygon fill="#ffffff" stroke="#ffffff" points="193.11,-151.42 184.07,-156.95 194.59,-158.26 193.11,-151.42"/>
</g>
<!-- Lagrange Interpolation Polynomial -->
<g id="node7" class="node">
<title>Lagrange Interpolation Polynomial</title>
<g id="a_node7"><a xlink:href="../Lagrange Interpolation Polynomial.html" xlink:title="Lagrange Interpolation Polynomial" target="_parent">
<path fill="none" stroke="#b75867" d="M410,-97C410,-97 219,-97 219,-97 213,-97 207,-91 207,-85 207,-85 207,-73 207,-73 207,-67 213,-61 219,-61 219,-61 410,-61 410,-61 416,-61 422,-67 422,-73 422,-73 422,-85 422,-85 422,-91 416,-97 410,-97"/>
<text text-anchor="middle" x="314.5" y="-75.9" font-family="sans" font-size="12.00" fill="#c4c7c7">Lagrange Interpolation Polynomial</text>
</a>
</g>
</g>
<!-- Lagrange Interpolation Problem&#45;&gt;Lagrange Interpolation Polynomial -->
<g id="edge6" class="edge">
<title>Lagrange Interpolation Problem&#45;&gt;Lagrange Interpolation Polynomial</title>
<path fill="none" stroke="#ffffff" d="M135.2,-151.12C155.47,-137.97 181.91,-122.1 207,-111 218.83,-105.77 231.76,-101.08 244.41,-97.01"/>
<polygon fill="#ffffff" stroke="#ffffff" points="133.07,-148.34 126.64,-156.76 136.92,-154.19 133.07,-148.34"/>
</g>
<!-- The Lagrange Interpolation Polynomial of a Polynomial is itself -->
<g id="node8" class="node">
<title>The Lagrange Interpolation Polynomial of a Polynomial is itself</title>
<g id="a_node8"><a xlink:href="../The Lagrange Interpolation Polynomial of a Polynomial is itself.html" xlink:title="The Lagrange Interpolation Polynomial of a Polynomial is itself" target="_parent">
<path fill="none" stroke="#b75867" d="M790,-36C790,-36 442,-36 442,-36 436,-36 430,-30 430,-24 430,-24 430,-12 430,-12 430,-6 436,0 442,0 442,0 790,0 790,0 796,0 802,-6 802,-12 802,-12 802,-24 802,-24 802,-30 796,-36 790,-36"/>
<text text-anchor="middle" x="616" y="-14.9" font-family="sans" font-size="12.00" fill="#c4c7c7">The Lagrange Interpolation Polynomial of a Polynomial is itself</text>
</a>
</g>
</g>
<!-- Lagrange Interpolation Problem&#45;&gt;The Lagrange Interpolation Polynomial of a Polynomial is itself -->
<g id="edge7" class="edge">
<title>Lagrange Interpolation Problem&#45;&gt;The Lagrange Interpolation Polynomial of a Polynomial is itself</title>
<path fill="none" stroke="#ffffff" d="M117.24,-147.95C135.62,-120.88 167.8,-80.53 207,-61 274.98,-27.13 357.11,-14.02 429.81,-10.25"/>
<polygon fill="#ffffff" stroke="#ffffff" points="114.14,-146.3 111.55,-156.57 119.98,-150.16 114.14,-146.3"/>
</g>
<!-- Kronecker Delta&#45;&gt;Lagrange Interpolation Problem -->
<g id="edge11" class="edge">
<title>Kronecker Delta&#45;&gt;Lagrange Interpolation Problem</title>
<path fill="none" stroke="#ffffff" d="M251.05,-226.19C236.52,-222.49 221.16,-218.31 207,-214 186.62,-207.8 164.39,-200.03 145.53,-193.05"/>
<polygon fill="#ffffff" stroke="#ffffff" points="250.4,-229.64 260.95,-228.67 252.11,-222.85 250.4,-229.64"/>
</g>
<!-- Kronecker Delta&#45;&gt;Formula of Lagrange for Interpolation -->
<g id="edge10" class="edge">
<title>Kronecker Delta&#45;&gt;Formula of Lagrange for Interpolation</title>
<path fill="none" stroke="#ffffff" d="M378.44,-248.38C395.19,-250.58 413.28,-252.91 430,-255 452.79,-257.85 477.16,-260.81 500.5,-263.6"/>
<polygon fill="#ffffff" stroke="#ffffff" points="378.58,-244.87 368.21,-247.04 377.67,-251.81 378.58,-244.87"/>
</g>
<!-- Kronecker Delta&#45;&gt;Fundamental polynomials of Lagrange -->
<g id="edge8" class="edge">
<title>Kronecker Delta&#45;&gt;Fundamental polynomials of Lagrange</title>
<path fill="none" stroke="#ffffff" d="M378.44,-240C413.07,-240 457.16,-240 497.87,-240"/>
<polygon fill="#ffffff" stroke="#ffffff" points="378.01,-236.5 368.01,-240 378.01,-243.5 378.01,-236.5"/>
</g>
<!-- Linear Algebra -->
<g id="node9" class="node">
<title>Linear Algebra</title>
<g id="a_node9"><a xlink:href="../Linear Algebra.html" xlink:title="Linear Algebra" target="_parent">
<path fill="none" stroke="#b75867" d="M653,-221C653,-221 579,-221 579,-221 573,-221 567,-215 567,-209 567,-209 567,-197 567,-197 567,-191 573,-185 579,-185 579,-185 653,-185 653,-185 659,-185 665,-191 665,-197 665,-197 665,-209 665,-209 665,-215 659,-221 653,-221"/>
<text text-anchor="middle" x="616" y="-199.9" font-family="sans" font-size="12.00" fill="#c4c7c7">Linear Algebra</text>
</a>
</g>
</g>
<!-- Kronecker Delta&#45;&gt;Linear Algebra -->
<g id="edge9" class="edge">
<title>Kronecker Delta&#45;&gt;Linear Algebra</title>
<path fill="none" stroke="#ffffff" d="M378.44,-231.62C395.19,-229.42 413.28,-227.09 430,-225 476.38,-219.2 529.34,-212.94 566.68,-208.59"/>
<polygon fill="#ffffff" stroke="#ffffff" points="377.67,-228.19 368.21,-232.96 378.58,-235.13 377.67,-228.19"/>
</g>
<!-- Formula of Lagrange for Interpolation&#45;&gt;Lagrange Interpolation Problem -->
<g id="edge13" class="edge">
<title>Formula of Lagrange for Interpolation&#45;&gt;Lagrange Interpolation Problem</title>
<path fill="none" stroke="#ffffff" d="M490.25,-291.81C407.39,-296.6 297.59,-293.68 207,-260 169.48,-246.05 134.82,-213.58 115.78,-193.05"/>
<polygon fill="#ffffff" stroke="#ffffff" points="490.71,-295.29 500.48,-291.17 490.28,-288.3 490.71,-295.29"/>
</g>
<!-- Formula of Lagrange for Interpolation&#45;&gt;Kronecker Delta -->
<g id="edge12" class="edge">
<title>Formula of Lagrange for Interpolation&#45;&gt;Kronecker Delta</title>
<path fill="none" stroke="#b75867" d="M500.5,-264.58C477.16,-261.81 452.79,-258.85 430,-256 413.28,-253.91 395.19,-251.58 378.44,-249.35"/>
<polygon fill="#b75867" stroke="#b75867" points="378.59,-245.84 368.21,-247.98 377.66,-252.77 378.59,-245.84"/>
</g>
<!-- Fundamental polynomials of Lagrange&#45;&gt;Lagrange Interpolation Problem -->
<g id="edge15" class="edge">
<title>Fundamental polynomials of Lagrange&#45;&gt;Lagrange Interpolation Problem</title>
<path fill="none" stroke="#ffffff" d="M487.59,-228.62C406.99,-220.49 300.69,-208.62 207,-195 202.73,-194.38 198.36,-193.72 193.95,-193.02"/>
<polygon fill="#ffffff" stroke="#ffffff" points="487.49,-232.13 497.79,-229.64 488.19,-225.16 487.49,-232.13"/>
</g>
<!-- Fundamental polynomials of Lagrange&#45;&gt;Kronecker Delta -->
<g id="edge14" class="edge">
<title>Fundamental polynomials of Lagrange&#45;&gt;Kronecker Delta</title>
<path fill="none" stroke="#b75867" d="M497.87,-240.73C457.16,-240.77 413.07,-240.74 378.44,-240.62"/>
<polygon fill="#b75867" stroke="#b75867" points="378.02,-237.12 368.01,-240.59 378,-244.12 378.02,-237.12"/>
</g>
<!-- Fundamental Theorem of Algebra&#45;&gt;Lagrange Interpolation Problem -->
<g id="edge18" class="edge">
<title>Fundamental Theorem of Algebra&#45;&gt;Lagrange Interpolation Problem</title>
<path fill="none" stroke="#ffffff" d="M199.88,-175.75C199.65,-175.75 199.43,-175.75 199.21,-175.75"/>
<polygon fill="#ffffff" stroke="#ffffff" points="200,-179.25 210,-175.75 200,-172.25 200,-179.25"/>
</g>
<!-- Fundamental Theorem of Algebra&#45;&gt;Linear Algebra -->
<g id="edge17" class="edge">
<title>Fundamental Theorem of Algebra&#45;&gt;Linear Algebra</title>
<path fill="none" stroke="#ffffff" d="M429.47,-185.65C476.98,-190.1 529.61,-195.02 566.64,-198.48"/>
<polygon fill="#ffffff" stroke="#ffffff" points="429.69,-182.16 419.41,-184.71 429.04,-189.13 429.69,-182.16"/>
</g>
<!-- Recurrent Equations -->
<g id="node10" class="node">
<title>Recurrent Equations</title>
<g id="a_node10"><a xlink:href="../Recurrent Equations.html" xlink:title="Recurrent Equations" target="_parent">
<path fill="none" stroke="#b75867" d="M669.5,-184C669.5,-184 562.5,-184 562.5,-184 556.5,-184 550.5,-178 550.5,-172 550.5,-172 550.5,-160 550.5,-160 550.5,-154 556.5,-148 562.5,-148 562.5,-148 669.5,-148 669.5,-148 675.5,-148 681.5,-154 681.5,-160 681.5,-160 681.5,-172 681.5,-172 681.5,-178 675.5,-184 669.5,-184"/>
<text text-anchor="middle" x="616" y="-162.9" font-family="sans" font-size="12.00" fill="#c4c7c7">Recurrent Equations</text>
</a>
</g>
</g>
<!-- Fundamental Theorem of Algebra&#45;&gt;Recurrent Equations -->
<g id="edge16" class="edge">
<title>Fundamental Theorem of Algebra&#45;&gt;Recurrent Equations</title>
<path fill="none" stroke="#ffffff" d="M429.42,-171.58C470.25,-170.35 514.85,-169.01 550.09,-167.95"/>
<polygon fill="#ffffff" stroke="#ffffff" points="429.3,-168.08 419.41,-171.88 429.51,-175.08 429.3,-168.08"/>
</g>
<!-- Lagrange Interpolation&#45;&gt;Lagrange Interpolation Problem -->
<g id="edge19" class="edge">
<title>Lagrange Interpolation&#45;&gt;Lagrange Interpolation Problem</title>
<path fill="none" stroke="#b75867" d="M240.78,-145.42C226.84,-148.46 212.04,-151.67 197.47,-154.8"/>
<polygon fill="#b75867" stroke="#b75867" points="196.48,-151.44 187.44,-156.96 197.95,-158.28 196.48,-151.44"/>
</g>
<!-- Numeric Methods -->
<g id="node11" class="node">
<title>Numeric Methods</title>
<g id="a_node11"><a xlink:href="../Numeric Methods.html" xlink:title="Numeric Methods" target="_parent">
<path fill="none" stroke="#b75867" d="M662,-147C662,-147 570,-147 570,-147 564,-147 558,-141 558,-135 558,-135 558,-123 558,-123 558,-117 564,-111 570,-111 570,-111 662,-111 662,-111 668,-111 674,-117 674,-123 674,-123 674,-135 674,-135 674,-141 668,-147 662,-147"/>
<text text-anchor="middle" x="616" y="-125.9" font-family="sans" font-size="12.00" fill="#c4c7c7">Numeric Methods</text>
</a>
</g>
</g>
<!-- Lagrange Interpolation&#45;&gt;Numeric Methods -->
<g id="edge20" class="edge">
<title>Lagrange Interpolation&#45;&gt;Numeric Methods</title>
<path fill="none" stroke="#ffffff" d="M398.28,-129C448.96,-129 512.52,-129 557.67,-129"/>
<polygon fill="#ffffff" stroke="#ffffff" points="398,-125.5 388,-129 398,-132.5 398,-125.5"/>
</g>
<!-- Extrapolation -->
<g id="node12" class="node">
<title>Extrapolation</title>
<g id="a_node12"><a xlink:href="../Extrapolation.html" xlink:title="Extrapolation" target="_parent">
<path fill="none" stroke="#b75867" d="M650.5,-110C650.5,-110 581.5,-110 581.5,-110 575.5,-110 569.5,-104 569.5,-98 569.5,-98 569.5,-86 569.5,-86 569.5,-80 575.5,-74 581.5,-74 581.5,-74 650.5,-74 650.5,-74 656.5,-74 662.5,-80 662.5,-86 662.5,-86 662.5,-98 662.5,-98 662.5,-104 656.5,-110 650.5,-110"/>
<text text-anchor="middle" x="616" y="-88.9" font-family="sans" font-size="12.00" fill="#c4c7c7">Extrapolation</text>
</a>
</g>
</g>
<!-- Lagrange Interpolation&#45;&gt;Extrapolation -->
<g id="edge21" class="edge">
<title>Lagrange Interpolation&#45;&gt;Extrapolation</title>
<path fill="none" stroke="#ffffff" d="M398.33,-118.03C408.98,-116.65 419.75,-115.28 430,-114 477.5,-108.06 531.91,-101.64 569.37,-97.27"/>
<polygon fill="#ffffff" stroke="#ffffff" points="397.64,-114.59 388.17,-119.35 398.54,-121.53 397.64,-114.59"/>
</g>
<!-- Evaluating Interpolation Error -->
<g id="node13" class="node">
<title>Evaluating Interpolation Error</title>
<g id="a_node13"><a xlink:href="../Evaluating Interpolation Error.html" xlink:title="Evaluating Interpolation Error" target="_parent">
<path fill="none" stroke="#b75867" d="M696.5,-73C696.5,-73 535.5,-73 535.5,-73 529.5,-73 523.5,-67 523.5,-61 523.5,-61 523.5,-49 523.5,-49 523.5,-43 529.5,-37 535.5,-37 535.5,-37 696.5,-37 696.5,-37 702.5,-37 708.5,-43 708.5,-49 708.5,-49 708.5,-61 708.5,-61 708.5,-67 702.5,-73 696.5,-73"/>
<text text-anchor="middle" x="616" y="-51.9" font-family="sans" font-size="12.00" fill="#c4c7c7">Evaluating Interpolation Error</text>
</a>
</g>
</g>
<!-- Lagrange Interpolation&#45;&gt;Evaluating Interpolation Error -->
<g id="edge22" class="edge">
<title>Lagrange Interpolation&#45;&gt;Evaluating Interpolation Error</title>
<path fill="none" stroke="#ffffff" d="M397.6,-113.79C406.51,-109.71 414.91,-104.54 422,-98 429.34,-91.23 422.13,-83.14 430,-77 456.14,-56.61 491,-49.02 523.42,-47.25"/>
<polygon fill="#ffffff" stroke="#ffffff" points="396.08,-110.63 388.15,-117.66 398.73,-117.11 396.08,-110.63"/>
</g>
<!-- Lagrange Interpolation Polynomial&#45;&gt;Lagrange Interpolation Problem -->
<g id="edge23" class="edge">
<title>Lagrange Interpolation Polynomial&#45;&gt;Lagrange Interpolation Problem</title>
<path fill="none" stroke="#b75867" d="M247.52,-97C233.89,-101.32 219.8,-106.34 207,-112 182.43,-122.87 156.55,-138.32 136.46,-151.19"/>
<polygon fill="#b75867" stroke="#b75867" points="134.43,-148.34 127.94,-156.72 138.24,-154.21 134.43,-148.34"/>
</g>
<!-- Lagrange Interpolation Polynomial&#45;&gt;The Lagrange Interpolation Polynomial of a Polynomial is itself -->
<g id="edge24" class="edge">
<title>Lagrange Interpolation Polynomial&#45;&gt;The Lagrange Interpolation Polynomial of a Polynomial is itself</title>
<path fill="none" stroke="#ffffff" d="M370.85,-57.53C389.41,-51.04 410.38,-44.46 430,-40 436.15,-38.6 442.44,-37.29 448.8,-36.06"/>
<polygon fill="#ffffff" stroke="#ffffff" points="369.62,-54.25 361.38,-60.91 371.98,-60.85 369.62,-54.25"/>
</g>
<!-- The Lagrange Interpolation Polynomial of a Polynomial is itself&#45;&gt;Lagrange Interpolation Problem -->
<g id="edge25" class="edge">
<title>The Lagrange Interpolation Polynomial of a Polynomial is itself&#45;&gt;Lagrange Interpolation Problem</title>
<path fill="none" stroke="#b75867" d="M429.81,-11.17C357.11,-15.02 274.98,-28.13 207,-62 168.01,-81.42 135.98,-121.43 117.55,-148.25"/>
<polygon fill="#b75867" stroke="#b75867" points="114.49,-146.53 111.83,-156.79 120.3,-150.43 114.49,-146.53"/>
</g>
<!-- The Lagrange Interpolation Polynomial of a Polynomial is itself&#45;&gt;Lagrange Interpolation Polynomial -->
<g id="edge26" class="edge">
<title>The Lagrange Interpolation Polynomial of a Polynomial is itself&#45;&gt;Lagrange Interpolation Polynomial</title>
<path fill="none" stroke="#b75867" d="M454.21,-36.04C445.99,-37.56 437.89,-39.21 430,-41 411.34,-45.24 391.46,-51.4 373.58,-57.54"/>
<polygon fill="#b75867" stroke="#b75867" points="372.17,-54.32 363.88,-60.93 374.48,-60.93 372.17,-54.32"/>
</g>
</g>
</svg>
