<?xml version="1.0" encoding="UTF-8" standalone="no"?>
<!DOCTYPE svg PUBLIC "-//W3C//DTD SVG 1.1//EN"
 "http://www.w3.org/Graphics/SVG/1.1/DTD/svg11.dtd">
<!-- Generated by graphviz version 2.44.0 (0)
 -->
<!-- Title: Languages, Automata and Computation Pages: 1 -->
<svg width="250pt" height="116pt"
 viewBox="0.00 0.00 250.00 116.00" xmlns="http://www.w3.org/2000/svg" xmlns:xlink="http://www.w3.org/1999/xlink">
<g id="page0,1_graph0" class="graph" transform="scale(1 1) rotate(0) translate(4 112)">
<title>Languages, Automata and Computation</title>
<polygon fill="#132020" stroke="transparent" points="-4,4 -4,-112 246,-112 246,4 -4,4"/>
<!-- Languages, Automata and Computation -->
<g id="node1" class="node">
<title>Languages, Automata and Computation</title>
<g id="a_node1"><a xlink:href="../Languages, Automata and Computation.html" xlink:title="Languages, Automata and Computation" target="_parent">
<path fill="#273434" stroke="#b75867" d="M230,-108C230,-108 12,-108 12,-108 6,-108 0,-102 0,-96 0,-96 0,-84 0,-84 0,-78 6,-72 12,-72 12,-72 230,-72 230,-72 236,-72 242,-78 242,-84 242,-84 242,-96 242,-96 242,-102 236,-108 230,-108"/>
<text text-anchor="middle" x="121" y="-86.9" font-family="sans" font-size="12.00" fill="#c4c7c7">Languages, Automata and Computation</text>
</a>
</g>
</g>
<!-- Knowledege Base -->
<g id="node2" class="node">
<title>Knowledege Base</title>
<g id="a_node2"><a xlink:href="../Knowledege Base.html" xlink:title="Knowledege Base" target="_parent">
<ellipse fill="#273434" stroke="#b75867" cx="121" cy="-18" rx="72.05" ry="18"/>
<text text-anchor="middle" x="121" y="-14.9" font-family="sans" font-size="12.00" fill="#c4c7c7">Knowledege Base</text>
</a>
</g>
</g>
<!-- Languages, Automata and Computation&#45;&gt;Knowledege Base -->
<g id="edge1" class="edge">
<title>Languages, Automata and Computation&#45;&gt;Knowledege Base</title>
<path fill="none" stroke="#ffffff" d="M121,-61.67C121,-53.05 121,-43.79 121,-36.1"/>
<polygon fill="#ffffff" stroke="#ffffff" points="117.5,-61.7 121,-71.7 124.5,-61.7 117.5,-61.7"/>
</g>
</g>
</svg>
