<?xml version="1.0" encoding="UTF-8" standalone="no"?>
<!DOCTYPE svg PUBLIC "-//W3C//DTD SVG 1.1//EN"
 "http://www.w3.org/Graphics/SVG/1.1/DTD/svg11.dtd">
<!-- Generated by graphviz version 2.44.0 (0)
 -->
<!-- Title: Linear extension Pages: 1 -->
<svg width="718pt" height="525pt"
 viewBox="0.00 0.00 718.00 525.00" xmlns="http://www.w3.org/2000/svg" xmlns:xlink="http://www.w3.org/1999/xlink">
<g id="page0,1_graph0" class="graph" transform="scale(1 1) rotate(0) translate(4 521)">
<title>Linear extension</title>
<polygon fill="#132020" stroke="transparent" points="-4,4 -4,-521 714,-521 714,4 -4,4"/>
<!-- Linear extension -->
<g id="node1" class="node">
<title>Linear extension</title>
<g id="a_node1"><a xlink:href="../Linear extension.html" xlink:title="Linear extension" target="_parent">
<path fill="#273434" stroke="#b75867" d="M98,-353C98,-353 12,-353 12,-353 6,-353 0,-347 0,-341 0,-341 0,-329 0,-329 0,-323 6,-317 12,-317 12,-317 98,-317 98,-317 104,-317 110,-323 110,-329 110,-329 110,-341 110,-341 110,-347 104,-353 98,-353"/>
<text text-anchor="middle" x="55" y="-331.9" font-family="sans" font-size="12.00" fill="#c4c7c7">Linear extension</text>
</a>
</g>
</g>
<!-- Linear order -->
<g id="node2" class="node">
<title>Linear order</title>
<g id="a_node2"><a xlink:href="../Linear order.html" xlink:title="Linear order" target="_parent">
<path fill="#273434" stroke="#b75867" d="M192,-353C192,-353 130,-353 130,-353 124,-353 118,-347 118,-341 118,-341 118,-329 118,-329 118,-323 124,-317 130,-317 130,-317 192,-317 192,-317 198,-317 204,-323 204,-329 204,-329 204,-341 204,-341 204,-347 198,-353 192,-353"/>
<text text-anchor="middle" x="161" y="-331.9" font-family="sans" font-size="12.00" fill="#c4c7c7">Linear order</text>
</a>
</g>
</g>
<!-- Linear extension&#45;&gt;Linear order -->
<g id="edge1" class="edge">
<title>Linear extension&#45;&gt;Linear order</title>
<path fill="none" stroke="#b75867" d="M110.13,-335C110.29,-335 110.45,-335 110.61,-335"/>
<polygon fill="#b75867" stroke="#b75867" points="107.79,-338.5 117.79,-335 107.79,-331.5 107.79,-338.5"/>
</g>
<!-- Partial order -->
<g id="node3" class="node">
<title>Partial order</title>
<g id="a_node3"><a xlink:href="../Partial order.html" xlink:title="Partial order" target="_parent">
<path fill="#273434" stroke="#b75867" d="M286,-378C286,-378 224,-378 224,-378 218,-378 212,-372 212,-366 212,-366 212,-354 212,-354 212,-348 218,-342 224,-342 224,-342 286,-342 286,-342 292,-342 298,-348 298,-354 298,-354 298,-366 298,-366 298,-372 292,-378 286,-378"/>
<text text-anchor="middle" x="255" y="-356.9" font-family="sans" font-size="12.00" fill="#c4c7c7">Partial order</text>
</a>
</g>
</g>
<!-- Linear extension&#45;&gt;Partial order -->
<g id="edge2" class="edge">
<title>Linear extension&#45;&gt;Partial order</title>
<path fill="none" stroke="#b75867" d="M110.29,-350.58C112.89,-351.1 115.47,-351.58 118,-352 145.38,-356.51 176.23,-358.56 201.62,-359.47"/>
<polygon fill="#b75867" stroke="#b75867" points="201.68,-362.97 211.78,-359.78 201.89,-355.98 201.68,-362.97"/>
</g>
<!-- Relations -->
<g id="node4" class="node">
<title>Relations</title>
<g id="a_node4"><a xlink:href="../Relations.html" xlink:title="Relations" target="_parent">
<path fill="none" stroke="#b75867" d="M425,-332C425,-332 380,-332 380,-332 374,-332 368,-326 368,-320 368,-320 368,-308 368,-308 368,-302 374,-296 380,-296 380,-296 425,-296 425,-296 431,-296 437,-302 437,-308 437,-308 437,-320 437,-320 437,-326 431,-332 425,-332"/>
<text text-anchor="middle" x="402.5" y="-310.9" font-family="sans" font-size="12.00" fill="#c4c7c7">Relations</text>
</a>
</g>
</g>
<!-- Linear extension&#45;&gt;Relations -->
<g id="edge3" class="edge">
<title>Linear extension&#45;&gt;Relations</title>
<path fill="none" stroke="#ffffff" d="M120.29,-318.9C214.75,-307.02 316.18,-309.63 367.7,-312.05"/>
<polygon fill="#ffffff" stroke="#ffffff" points="119.75,-315.44 110.29,-320.22 120.66,-322.38 119.75,-315.44"/>
</g>
<!-- Linear order&#45;&gt;Linear extension -->
<g id="edge9" class="edge">
<title>Linear order&#45;&gt;Linear extension</title>
<path fill="none" stroke="#ffffff" d="M110.61,-335.75C110.45,-335.75 110.29,-335.75 110.13,-335.75"/>
<polygon fill="#ffffff" stroke="#ffffff" points="107.79,-339.25 117.79,-335.74 107.78,-332.25 107.79,-339.25"/>
</g>
<!-- Linear order&#45;&gt;Partial order -->
<g id="edge4" class="edge">
<title>Linear order&#45;&gt;Partial order</title>
<path fill="none" stroke="#b75867" d="M204.23,-346.48C204.39,-346.52 204.55,-346.56 204.71,-346.61"/>
<polygon fill="#b75867" stroke="#b75867" points="201.33,-349.31 211.9,-348.56 203.17,-342.56 201.33,-349.31"/>
</g>
<!-- Linear order&#45;&gt;Relations -->
<g id="edge10" class="edge">
<title>Linear order&#45;&gt;Relations</title>
<path fill="none" stroke="#ffffff" d="M214.48,-330.4C261.12,-326.31 327.91,-320.45 367.77,-316.96"/>
<polygon fill="#ffffff" stroke="#ffffff" points="213.92,-326.93 204.27,-331.29 214.53,-333.91 213.92,-326.93"/>
</g>
<!-- Transitive Relation -->
<g id="node5" class="node">
<title>Transitive Relation</title>
<g id="a_node5"><a xlink:href="../Transitive Relation.html" xlink:title="Transitive Relation" target="_parent">
<path fill="#273434" stroke="#b75867" d="M657,-406C657,-406 560,-406 560,-406 554,-406 548,-400 548,-394 548,-394 548,-382 548,-382 548,-376 554,-370 560,-370 560,-370 657,-370 657,-370 663,-370 669,-376 669,-382 669,-382 669,-394 669,-394 669,-400 663,-406 657,-406"/>
<text text-anchor="middle" x="608.5" y="-384.9" font-family="sans" font-size="12.00" fill="#c4c7c7">Transitive Relation</text>
</a>
</g>
</g>
<!-- Linear order&#45;&gt;Transitive Relation -->
<g id="edge5" class="edge">
<title>Linear order&#45;&gt;Transitive Relation</title>
<path fill="none" stroke="#b75867" d="M204.28,-334.18C292.17,-332.65 487.45,-330.27 499,-339 508.98,-346.55 497.83,-357.48 507,-366 515.69,-374.08 526.63,-379.44 538.07,-382.96"/>
<polygon fill="#b75867" stroke="#b75867" points="537.2,-386.35 547.76,-385.5 538.98,-379.58 537.2,-386.35"/>
</g>
<!-- Strongly Anti&#45;symmetric Relation -->
<g id="node6" class="node">
<title>Strongly Anti&#45;symmetric Relation</title>
<g id="a_node6"><a xlink:href="../Strongly Anti-symmetric Relation.html" xlink:title="Strongly Anti&#45;symmetric Relation" target="_parent">
<path fill="#273434" stroke="#b75867" d="M698,-36C698,-36 519,-36 519,-36 513,-36 507,-30 507,-24 507,-24 507,-12 507,-12 507,-6 513,0 519,0 519,0 698,0 698,0 704,0 710,-6 710,-12 710,-12 710,-24 710,-24 710,-30 704,-36 698,-36"/>
<text text-anchor="middle" x="608.5" y="-14.9" font-family="sans" font-size="12.00" fill="#c4c7c7">Strongly Anti&#45;symmetric Relation</text>
</a>
</g>
</g>
<!-- Linear order&#45;&gt;Strongly Anti&#45;symmetric Relation -->
<g id="edge6" class="edge">
<title>Linear order&#45;&gt;Strongly Anti&#45;symmetric Relation</title>
<path fill="none" stroke="#b75867" d="M177.06,-316.99C220.72,-266.01 353.49,-119.56 506.47,-40.71"/>
<polygon fill="#b75867" stroke="#b75867" points="508.28,-43.71 515.63,-36.08 505.13,-37.47 508.28,-43.71"/>
</g>
<!-- Reflexive Relation -->
<g id="node7" class="node">
<title>Reflexive Relation</title>
<g id="a_node7"><a xlink:href="../Reflexive Relation.html" xlink:title="Reflexive Relation" target="_parent">
<path fill="#273434" stroke="#b75867" d="M655,-480C655,-480 562,-480 562,-480 556,-480 550,-474 550,-468 550,-468 550,-456 550,-456 550,-450 556,-444 562,-444 562,-444 655,-444 655,-444 661,-444 667,-450 667,-456 667,-456 667,-468 667,-468 667,-474 661,-480 655,-480"/>
<text text-anchor="middle" x="608.5" y="-458.9" font-family="sans" font-size="12.00" fill="#c4c7c7">Reflexive Relation</text>
</a>
</g>
</g>
<!-- Linear order&#45;&gt;Reflexive Relation -->
<g id="edge7" class="edge">
<title>Linear order&#45;&gt;Reflexive Relation</title>
<path fill="none" stroke="#b75867" d="M204.16,-335.41C289.93,-336.67 478.38,-341.74 499,-362 511.43,-374.21 495.4,-427 507,-440 515.59,-449.62 527.33,-455.56 539.75,-459.14"/>
<polygon fill="#b75867" stroke="#b75867" points="539.28,-462.63 549.82,-461.52 540.9,-455.81 539.28,-462.63"/>
</g>
<!-- Relation -->
<g id="node8" class="node">
<title>Relation</title>
<g id="a_node8"><a xlink:href="../Relation.html" xlink:title="Relation" target="_parent">
<path fill="#273434" stroke="#b75867" d="M628.5,-443C628.5,-443 588.5,-443 588.5,-443 582.5,-443 576.5,-437 576.5,-431 576.5,-431 576.5,-419 576.5,-419 576.5,-413 582.5,-407 588.5,-407 588.5,-407 628.5,-407 628.5,-407 634.5,-407 640.5,-413 640.5,-419 640.5,-419 640.5,-431 640.5,-431 640.5,-437 634.5,-443 628.5,-443"/>
<text text-anchor="middle" x="608.5" y="-421.9" font-family="sans" font-size="12.00" fill="#c4c7c7">Relation</text>
</a>
</g>
</g>
<!-- Linear order&#45;&gt;Relation -->
<g id="edge8" class="edge">
<title>Linear order&#45;&gt;Relation</title>
<path fill="none" stroke="#b75867" d="M204.06,-334.43C292.02,-333.44 488.2,-332.32 499,-342 519.36,-360.25 488.51,-382.86 507,-403 521.78,-419.09 545.38,-424.83 566,-426.43"/>
<polygon fill="#b75867" stroke="#b75867" points="565.98,-429.94 576.14,-426.92 566.32,-422.94 565.98,-429.94"/>
</g>
<!-- Partial order&#45;&gt;Linear extension -->
<g id="edge15" class="edge">
<title>Partial order&#45;&gt;Linear extension</title>
<path fill="none" stroke="#ffffff" d="M201.62,-360.37C176.23,-359.56 145.38,-357.51 118,-353 115.47,-352.58 112.89,-352.1 110.29,-351.58"/>
<polygon fill="#ffffff" stroke="#ffffff" points="201.69,-363.88 211.78,-360.64 201.88,-356.88 201.69,-363.88"/>
</g>
<!-- Partial order&#45;&gt;Linear order -->
<g id="edge17" class="edge">
<title>Partial order&#45;&gt;Linear order</title>
<path fill="none" stroke="#ffffff" d="M204.71,-347.35C204.55,-347.31 204.39,-347.27 204.23,-347.22"/>
<polygon fill="#ffffff" stroke="#ffffff" points="201.33,-350.06 211.9,-349.31 203.16,-343.31 201.33,-350.06"/>
</g>
<!-- Partial order&#45;&gt;Relations -->
<g id="edge16" class="edge">
<title>Partial order&#45;&gt;Relations</title>
<path fill="none" stroke="#ffffff" d="M307.57,-338.64C331.46,-330.77 351.32,-325.58 367.57,-321.64"/>
<polygon fill="#ffffff" stroke="#ffffff" points="306.21,-335.41 297.85,-341.92 308.44,-342.04 306.21,-335.41"/>
</g>
<!-- Partial order&#45;&gt;Transitive Relation -->
<g id="edge11" class="edge">
<title>Partial order&#45;&gt;Transitive Relation</title>
<path fill="none" stroke="#b75867" d="M298.01,-359.1C300.71,-359.06 303.4,-359.03 306,-359 391.77,-358.14 418.7,-328.83 499,-359 503.42,-360.66 502.78,-363.87 507,-366 516.65,-370.87 527.34,-374.66 538.06,-377.62"/>
<polygon fill="#b75867" stroke="#b75867" points="537.32,-381.04 547.87,-380.11 539.04,-374.26 537.32,-381.04"/>
</g>
<!-- Partial order&#45;&gt;Reflexive Relation -->
<g id="edge13" class="edge">
<title>Partial order&#45;&gt;Reflexive Relation</title>
<path fill="none" stroke="#b75867" d="M275.05,-378.21C283.85,-385.7 294.81,-393.81 306,-399 381.48,-434 476.58,-449.73 539.57,-456.68"/>
<polygon fill="#b75867" stroke="#b75867" points="539.47,-460.19 549.78,-457.76 540.21,-453.23 539.47,-460.19"/>
</g>
<!-- Partial order&#45;&gt;Relation -->
<g id="edge14" class="edge">
<title>Partial order&#45;&gt;Relation</title>
<path fill="none" stroke="#b75867" d="M298.24,-358.07C363.76,-355.48 483.97,-352.55 499,-365 512.29,-376.01 494.84,-390.75 507,-403 522.28,-418.4 545.69,-424.14 566.07,-425.92"/>
<polygon fill="#b75867" stroke="#b75867" points="565.9,-429.42 576.09,-426.51 566.31,-422.43 565.9,-429.42"/>
</g>
<!-- Anti&#45;symmetric Relation -->
<g id="node9" class="node">
<title>Anti&#45;symmetric Relation</title>
<g id="a_node9"><a xlink:href="../Anti-symmetric Relation.html" xlink:title="Anti&#45;symmetric Relation" target="_parent">
<path fill="#273434" stroke="#b75867" d="M672.5,-517C672.5,-517 544.5,-517 544.5,-517 538.5,-517 532.5,-511 532.5,-505 532.5,-505 532.5,-493 532.5,-493 532.5,-487 538.5,-481 544.5,-481 544.5,-481 672.5,-481 672.5,-481 678.5,-481 684.5,-487 684.5,-493 684.5,-493 684.5,-505 684.5,-505 684.5,-511 678.5,-517 672.5,-517"/>
<text text-anchor="middle" x="608.5" y="-495.9" font-family="sans" font-size="12.00" fill="#c4c7c7">Anti&#45;symmetric Relation</text>
</a>
</g>
</g>
<!-- Partial order&#45;&gt;Anti&#45;symmetric Relation -->
<g id="edge12" class="edge">
<title>Partial order&#45;&gt;Anti&#45;symmetric Relation</title>
<path fill="none" stroke="#b75867" d="M265.2,-378.15C273.76,-393.2 287.91,-414.01 306,-426 370.76,-468.94 458.29,-486.67 522.36,-493.96"/>
<polygon fill="#b75867" stroke="#b75867" points="522.12,-497.45 532.43,-495.04 522.86,-490.49 522.12,-497.45"/>
</g>
<!-- Partial orders have no contours -->
<g id="node10" class="node">
<title>Partial orders have no contours</title>
<g id="a_node10"><a xlink:href="../Partial orders have no contours.html" xlink:title="Partial orders have no contours" target="_parent">
<path fill="none" stroke="#b75867" d="M487,-398C487,-398 318,-398 318,-398 312,-398 306,-392 306,-386 306,-386 306,-374 306,-374 306,-368 312,-362 318,-362 318,-362 487,-362 487,-362 493,-362 499,-368 499,-374 499,-374 499,-386 499,-386 499,-392 493,-398 487,-398"/>
<text text-anchor="middle" x="402.5" y="-376.9" font-family="sans" font-size="12.00" fill="#c4c7c7">Partial orders have no contours</text>
</a>
</g>
</g>
<!-- Partial order&#45;&gt;Partial orders have no contours -->
<g id="edge18" class="edge">
<title>Partial order&#45;&gt;Partial orders have no contours</title>
<path fill="none" stroke="#ffffff" d="M305.31,-366.78C305.47,-366.8 305.64,-366.82 305.8,-366.85"/>
<polygon fill="#ffffff" stroke="#ffffff" points="308.47,-363.68 298.08,-365.78 307.51,-370.61 308.47,-363.68"/>
</g>
<!-- Relations&#45;&gt;Linear extension -->
<g id="edge20" class="edge">
<title>Relations&#45;&gt;Linear extension</title>
<path fill="none" stroke="#b75867" d="M367.7,-312.68C316.18,-310.61 214.75,-308.02 120.29,-319.9"/>
<polygon fill="#b75867" stroke="#b75867" points="119.75,-316.44 110.29,-321.22 120.66,-323.38 119.75,-316.44"/>
</g>
<!-- Relations&#45;&gt;Linear order -->
<g id="edge21" class="edge">
<title>Relations&#45;&gt;Linear order</title>
<path fill="none" stroke="#b75867" d="M367.77,-317.5C327.91,-321.24 261.12,-327.12 214.48,-331.03"/>
<polygon fill="#b75867" stroke="#b75867" points="213.94,-327.56 204.27,-331.88 214.52,-334.54 213.94,-327.56"/>
</g>
<!-- Relations&#45;&gt;Partial order -->
<g id="edge22" class="edge">
<title>Relations&#45;&gt;Partial order</title>
<path fill="none" stroke="#b75867" d="M367.57,-322.53C351.32,-326.56 331.46,-331.77 307.76,-339.57"/>
<polygon fill="#b75867" stroke="#b75867" points="306.48,-336.31 298.12,-342.81 308.72,-342.94 306.48,-336.31"/>
</g>
<!-- Relations&#45;&gt;Transitive Relation -->
<g id="edge31" class="edge">
<title>Relations&#45;&gt;Transitive Relation</title>
<path fill="none" stroke="#b75867" d="M437.18,-313.47C457.59,-314.95 482.73,-320.27 499,-336 508.92,-345.59 497.02,-356.46 507,-366 515.62,-374.24 526.59,-379.68 538.09,-383.22"/>
<polygon fill="#b75867" stroke="#b75867" points="537.27,-386.63 547.83,-385.76 539.04,-379.85 537.27,-386.63"/>
</g>
<!-- Relations&#45;&gt;Strongly Anti&#45;symmetric Relation -->
<g id="edge32" class="edge">
<title>Relations&#45;&gt;Strongly Anti&#45;symmetric Relation</title>
<path fill="none" stroke="#b75867" d="M437.09,-315.81C458.27,-314.97 484.31,-309.87 499,-292 515.4,-272.05 493.14,-93.03 506.42,-45.24"/>
<polygon fill="#b75867" stroke="#b75867" points="509.63,-46.65 510.61,-36.1 503.27,-43.73 509.63,-46.65"/>
</g>
<!-- Relations&#45;&gt;Reflexive Relation -->
<g id="edge36" class="edge">
<title>Relations&#45;&gt;Reflexive Relation</title>
<path fill="none" stroke="#b75867" d="M437.46,-314.73C458.52,-317.12 484.27,-323.91 499,-342 512.8,-358.94 492.62,-423.55 507,-440 515.62,-449.86 527.54,-455.87 540.17,-459.44"/>
<polygon fill="#b75867" stroke="#b75867" points="539.39,-462.85 549.93,-461.71 540.98,-456.04 539.39,-462.85"/>
</g>
<!-- Relations&#45;&gt;Relation -->
<g id="edge37" class="edge">
<title>Relations&#45;&gt;Relation</title>
<path fill="none" stroke="#b75867" d="M437.05,-312.64C457.94,-313.73 483.66,-318.91 499,-336 519.03,-358.32 486.84,-380.79 507,-403 521.69,-419.18 545.29,-424.92 565.93,-426.5"/>
<polygon fill="#b75867" stroke="#b75867" points="565.92,-430.01 576.08,-426.98 566.25,-423.01 565.92,-430.01"/>
</g>
<!-- Relations&#45;&gt;Anti&#45;symmetric Relation -->
<g id="edge33" class="edge">
<title>Relations&#45;&gt;Anti&#45;symmetric Relation</title>
<path fill="none" stroke="#b75867" d="M437.09,-321.75C458.55,-328.58 484.91,-340.84 499,-362 513.19,-383.33 490.26,-457.61 507,-477 511.55,-482.27 517.04,-486.44 523.09,-489.73"/>
<polygon fill="#b75867" stroke="#b75867" points="521.74,-492.97 532.29,-493.95 524.66,-486.6 521.74,-492.97"/>
</g>
<!-- Chain -->
<g id="node11" class="node">
<title>Chain</title>
<g id="a_node11"><a xlink:href="../Chain.html" xlink:title="Chain" target="_parent">
<path fill="#273434" stroke="#b75867" d="M623.5,-110C623.5,-110 593.5,-110 593.5,-110 587.5,-110 581.5,-104 581.5,-98 581.5,-98 581.5,-86 581.5,-86 581.5,-80 587.5,-74 593.5,-74 593.5,-74 623.5,-74 623.5,-74 629.5,-74 635.5,-80 635.5,-86 635.5,-86 635.5,-98 635.5,-98 635.5,-104 629.5,-110 623.5,-110"/>
<text text-anchor="middle" x="608.5" y="-88.9" font-family="sans" font-size="12.00" fill="#c4c7c7">Chain</text>
</a>
</g>
</g>
<!-- Relations&#45;&gt;Chain -->
<g id="edge19" class="edge">
<title>Relations&#45;&gt;Chain</title>
<path fill="none" stroke="#b75867" d="M437.02,-315.75C458.16,-314.88 484.19,-309.78 499,-292 511.67,-276.79 494.24,-129.14 507,-114 522.4,-95.72 549.16,-90.54 571.19,-89.76"/>
<polygon fill="#b75867" stroke="#b75867" points="571.27,-93.26 581.24,-89.68 571.22,-86.26 571.27,-93.26"/>
</g>
<!-- Class of equivalence -->
<g id="node12" class="node">
<title>Class of equivalence</title>
<g id="a_node12"><a xlink:href="../Class of equivalence.html" xlink:title="Class of equivalence" target="_parent">
<path fill="#273434" stroke="#b75867" d="M662,-369C662,-369 555,-369 555,-369 549,-369 543,-363 543,-357 543,-357 543,-345 543,-345 543,-339 549,-333 555,-333 555,-333 662,-333 662,-333 668,-333 674,-339 674,-345 674,-345 674,-357 674,-357 674,-363 668,-369 662,-369"/>
<text text-anchor="middle" x="608.5" y="-347.9" font-family="sans" font-size="12.00" fill="#c4c7c7">Class of equivalence</text>
</a>
</g>
</g>
<!-- Relations&#45;&gt;Class of equivalence -->
<g id="edge23" class="edge">
<title>Relations&#45;&gt;Class of equivalence</title>
<path fill="none" stroke="#b75867" d="M437.19,-320.11C463.13,-324.82 500,-331.5 532.79,-337.45"/>
<polygon fill="#b75867" stroke="#b75867" points="532.36,-340.93 542.83,-339.27 533.61,-334.04 532.36,-340.93"/>
</g>
<!-- Relation of Equivalence -->
<g id="node13" class="node">
<title>Relation of Equivalence</title>
<g id="a_node13"><a xlink:href="../Relation of Equivalence.html" xlink:title="Relation of Equivalence" target="_parent">
<path fill="#273434" stroke="#b75867" d="M671,-295C671,-295 546,-295 546,-295 540,-295 534,-289 534,-283 534,-283 534,-271 534,-271 534,-265 540,-259 546,-259 546,-259 671,-259 671,-259 677,-259 683,-265 683,-271 683,-271 683,-283 683,-283 683,-289 677,-295 671,-295"/>
<text text-anchor="middle" x="608.5" y="-273.9" font-family="sans" font-size="12.00" fill="#c4c7c7">Relation of Equivalence</text>
</a>
</g>
</g>
<!-- Relations&#45;&gt;Relation of Equivalence -->
<g id="edge24" class="edge">
<title>Relations&#45;&gt;Relation of Equivalence</title>
<path fill="none" stroke="#b75867" d="M437.19,-307.89C460.77,-303.61 493.38,-297.7 523.76,-292.19"/>
<polygon fill="#b75867" stroke="#b75867" points="524.74,-295.57 533.96,-290.34 523.5,-288.68 524.74,-295.57"/>
</g>
<!-- Transitive Closure -->
<g id="node14" class="node">
<title>Transitive Closure</title>
<g id="a_node14"><a xlink:href="../Transitive Closure.html" xlink:title="Transitive Closure" target="_parent">
<path fill="#273434" stroke="#b75867" d="M654.5,-258C654.5,-258 562.5,-258 562.5,-258 556.5,-258 550.5,-252 550.5,-246 550.5,-246 550.5,-234 550.5,-234 550.5,-228 556.5,-222 562.5,-222 562.5,-222 654.5,-222 654.5,-222 660.5,-222 666.5,-228 666.5,-234 666.5,-234 666.5,-246 666.5,-246 666.5,-252 660.5,-258 654.5,-258"/>
<text text-anchor="middle" x="608.5" y="-236.9" font-family="sans" font-size="12.00" fill="#c4c7c7">Transitive Closure</text>
</a>
</g>
</g>
<!-- Relations&#45;&gt;Transitive Closure -->
<g id="edge25" class="edge">
<title>Relations&#45;&gt;Transitive Closure</title>
<path fill="none" stroke="#b75867" d="M437.18,-314.53C457.59,-313.05 482.73,-307.73 499,-292 508.92,-282.41 497.02,-271.54 507,-262 516.22,-253.19 528.12,-247.58 540.48,-244.07"/>
<polygon fill="#b75867" stroke="#b75867" points="541.54,-247.42 550.45,-241.69 539.91,-240.61 541.54,-247.42"/>
</g>
<!-- Relations&#45;&gt;Transitive Closure -->
<g id="edge29" class="edge">
<title>Relations&#45;&gt;Transitive Closure</title>
<path fill="none" stroke="#b75867" d="M437.18,-315.39C457.59,-314.05 482.73,-308.73 499,-293 508.92,-283.41 497.02,-272.54 507,-263 516.22,-254.19 528.12,-248.58 540.48,-245.05"/>
<polygon fill="#b75867" stroke="#b75867" points="541.55,-248.39 550.45,-242.65 539.91,-241.59 541.55,-248.39"/>
</g>
<!-- Symmetric Closure -->
<g id="node15" class="node">
<title>Symmetric Closure</title>
<g id="a_node15"><a xlink:href="../Symmetric Closure.html" xlink:title="Symmetric Closure" target="_parent">
<path fill="#273434" stroke="#b75867" d="M658,-221C658,-221 559,-221 559,-221 553,-221 547,-215 547,-209 547,-209 547,-197 547,-197 547,-191 553,-185 559,-185 559,-185 658,-185 658,-185 664,-185 670,-191 670,-197 670,-197 670,-209 670,-209 670,-215 664,-221 658,-221"/>
<text text-anchor="middle" x="608.5" y="-199.9" font-family="sans" font-size="12.00" fill="#c4c7c7">Symmetric Closure</text>
</a>
</g>
</g>
<!-- Relations&#45;&gt;Symmetric Closure -->
<g id="edge26" class="edge">
<title>Relations&#45;&gt;Symmetric Closure</title>
<path fill="none" stroke="#b75867" d="M437.05,-315.36C457.94,-314.27 483.66,-309.09 499,-292 519.03,-269.68 486.84,-247.21 507,-225 515.02,-216.17 525.7,-210.44 537.1,-206.81"/>
<polygon fill="#b75867" stroke="#b75867" points="538.04,-210.18 546.8,-204.23 536.24,-203.42 538.04,-210.18"/>
</g>
<!-- Relations&#45;&gt;Symmetric Closure -->
<g id="edge28" class="edge">
<title>Relations&#45;&gt;Symmetric Closure</title>
<path fill="none" stroke="#b75867" d="M437.05,-316.21C457.94,-315.27 483.66,-310.09 499,-293 519.03,-270.68 486.84,-248.21 507,-226 515.02,-217.17 525.7,-211.44 537.1,-207.79"/>
<polygon fill="#b75867" stroke="#b75867" points="538.05,-211.16 546.8,-205.19 536.24,-204.4 538.05,-211.16"/>
</g>
<!-- Reflexive Closure -->
<g id="node16" class="node">
<title>Reflexive Closure</title>
<g id="a_node16"><a xlink:href="../Reflexive Closure.html" xlink:title="Reflexive Closure" target="_parent">
<path fill="#273434" stroke="#b75867" d="M653,-184C653,-184 564,-184 564,-184 558,-184 552,-178 552,-172 552,-172 552,-160 552,-160 552,-154 558,-148 564,-148 564,-148 653,-148 653,-148 659,-148 665,-154 665,-160 665,-160 665,-172 665,-172 665,-178 659,-184 653,-184"/>
<text text-anchor="middle" x="608.5" y="-162.9" font-family="sans" font-size="12.00" fill="#c4c7c7">Reflexive Closure</text>
</a>
</g>
</g>
<!-- Relations&#45;&gt;Reflexive Closure -->
<g id="edge27" class="edge">
<title>Relations&#45;&gt;Reflexive Closure</title>
<path fill="none" stroke="#b75867" d="M437.3,-315.57C458.28,-314.58 484.02,-309.41 499,-292 514.12,-274.43 491.79,-205.49 507,-188 516.06,-177.59 528.8,-171.46 542.18,-167.97"/>
<polygon fill="#b75867" stroke="#b75867" points="542.94,-171.39 551.99,-165.88 541.48,-164.54 542.94,-171.39"/>
</g>
<!-- Relations&#45;&gt;Reflexive Closure -->
<g id="edge30" class="edge">
<title>Relations&#45;&gt;Reflexive Closure</title>
<path fill="none" stroke="#b75867" d="M437.3,-316.42C458.28,-315.58 484.02,-310.41 499,-293 514.12,-275.43 491.79,-206.49 507,-189 516.06,-178.59 528.8,-172.46 542.18,-168.95"/>
<polygon fill="#b75867" stroke="#b75867" points="542.95,-172.36 551.99,-166.83 541.47,-165.52 542.95,-172.36"/>
</g>
<!-- Symmetric Relation -->
<g id="node17" class="node">
<title>Symmetric Relation</title>
<g id="a_node17"><a xlink:href="../Symmetric Relation.html" xlink:title="Symmetric Relation" target="_parent">
<path fill="#273434" stroke="#b75867" d="M660.5,-147C660.5,-147 556.5,-147 556.5,-147 550.5,-147 544.5,-141 544.5,-135 544.5,-135 544.5,-123 544.5,-123 544.5,-117 550.5,-111 556.5,-111 556.5,-111 660.5,-111 660.5,-111 666.5,-111 672.5,-117 672.5,-123 672.5,-123 672.5,-135 672.5,-135 672.5,-141 666.5,-147 660.5,-147"/>
<text text-anchor="middle" x="608.5" y="-125.9" font-family="sans" font-size="12.00" fill="#c4c7c7">Symmetric Relation</text>
</a>
</g>
</g>
<!-- Relations&#45;&gt;Symmetric Relation -->
<g id="edge34" class="edge">
<title>Relations&#45;&gt;Symmetric Relation</title>
<path fill="none" stroke="#b75867" d="M437.41,-315.67C458.45,-314.72 484.19,-309.56 499,-292 519.23,-268.01 486.64,-174.88 507,-151 514.28,-142.47 524.03,-136.8 534.6,-133.1"/>
<polygon fill="#b75867" stroke="#b75867" points="535.87,-136.37 544.5,-130.23 533.92,-129.65 535.87,-136.37"/>
</g>
<!-- Anti&#45;reflexive relation -->
<g id="node18" class="node">
<title>Anti&#45;reflexive relation</title>
<g id="a_node18"><a xlink:href="../Anti-reflexive relation.html" xlink:title="Anti&#45;reflexive relation" target="_parent">
<path fill="#273434" stroke="#b75867" d="M665.5,-73C665.5,-73 551.5,-73 551.5,-73 545.5,-73 539.5,-67 539.5,-61 539.5,-61 539.5,-49 539.5,-49 539.5,-43 545.5,-37 551.5,-37 551.5,-37 665.5,-37 665.5,-37 671.5,-37 677.5,-43 677.5,-49 677.5,-49 677.5,-61 677.5,-61 677.5,-67 671.5,-73 665.5,-73"/>
<text text-anchor="middle" x="608.5" y="-51.9" font-family="sans" font-size="12.00" fill="#c4c7c7">Anti&#45;reflexive relation</text>
</a>
</g>
</g>
<!-- Relations&#45;&gt;Anti&#45;reflexive relation -->
<g id="edge35" class="edge">
<title>Relations&#45;&gt;Anti&#45;reflexive relation</title>
<path fill="none" stroke="#b75867" d="M437.06,-315.79C458.23,-314.93 484.26,-309.83 499,-292 514.23,-273.58 491.67,-95.34 507,-77 513.1,-69.7 521.01,-64.49 529.71,-60.81"/>
<polygon fill="#b75867" stroke="#b75867" points="531.15,-64.01 539.42,-57.39 528.82,-57.41 531.15,-64.01"/>
</g>
<!-- Discrete Structures -->
<g id="node19" class="node">
<title>Discrete Structures</title>
<g id="a_node19"><a xlink:href="../Discrete Structures.html" xlink:title="Discrete Structures" target="_parent">
<path fill="none" stroke="#b75867" d="M657.5,-332C657.5,-332 559.5,-332 559.5,-332 553.5,-332 547.5,-326 547.5,-320 547.5,-320 547.5,-308 547.5,-308 547.5,-302 553.5,-296 559.5,-296 559.5,-296 657.5,-296 657.5,-296 663.5,-296 669.5,-302 669.5,-308 669.5,-308 669.5,-320 669.5,-320 669.5,-326 663.5,-332 657.5,-332"/>
<text text-anchor="middle" x="608.5" y="-310.9" font-family="sans" font-size="12.00" fill="#c4c7c7">Discrete Structures</text>
</a>
</g>
</g>
<!-- Relations&#45;&gt;Discrete Structures -->
<g id="edge38" class="edge">
<title>Relations&#45;&gt;Discrete Structures</title>
<path fill="none" stroke="#ffffff" d="M447.48,-314C476.66,-314 515.34,-314 547.36,-314"/>
<polygon fill="#ffffff" stroke="#ffffff" points="447.19,-310.5 437.19,-314 447.19,-317.5 447.19,-310.5"/>
</g>
</g>
</svg>
