<?xml version="1.0" encoding="UTF-8" standalone="no"?>
<!DOCTYPE svg PUBLIC "-//W3C//DTD SVG 1.1//EN"
 "http://www.w3.org/Graphics/SVG/1.1/DTD/svg11.dtd">
<!-- Generated by graphviz version 2.44.0 (0)
 -->
<!-- Title: Linear order Pages: 1 -->
<svg width="1926pt" height="404pt"
 viewBox="0.00 0.00 1926.41 404.00" xmlns="http://www.w3.org/2000/svg" xmlns:xlink="http://www.w3.org/1999/xlink">
<g id="page0,1_graph0" class="graph" transform="scale(1 1) rotate(0) translate(4 400)">
<title>Linear order</title>
<polygon fill="#132020" stroke="transparent" points="-4,4 -4,-400 1922.41,-400 1922.41,4 -4,4"/>
<!-- Linear order -->
<g id="node1" class="node">
<title>Linear order</title>
<g id="a_node1"><a xlink:title="Linear order">
<path fill="#273434" stroke="#b75867" d="M1140.41,-396C1140.41,-396 1078.41,-396 1078.41,-396 1072.41,-396 1066.41,-390 1066.41,-384 1066.41,-384 1066.41,-372 1066.41,-372 1066.41,-366 1072.41,-360 1078.41,-360 1078.41,-360 1140.41,-360 1140.41,-360 1146.41,-360 1152.41,-366 1152.41,-372 1152.41,-372 1152.41,-384 1152.41,-384 1152.41,-390 1146.41,-396 1140.41,-396"/>
<text text-anchor="middle" x="1109.41" y="-374.9" font-family="sans" font-size="12.00" fill="#c4c7c7">Linear order</text>
</a>
</g>
</g>
<!-- Partial order -->
<g id="node2" class="node">
<title>Partial order</title>
<g id="a_node2"><a xlink:title="Partial order">
<path fill="#273434" stroke="#b75867" d="M976.41,-324C976.41,-324 914.41,-324 914.41,-324 908.41,-324 902.41,-318 902.41,-312 902.41,-312 902.41,-300 902.41,-300 902.41,-294 908.41,-288 914.41,-288 914.41,-288 976.41,-288 976.41,-288 982.41,-288 988.41,-294 988.41,-300 988.41,-300 988.41,-312 988.41,-312 988.41,-318 982.41,-324 976.41,-324"/>
<text text-anchor="middle" x="945.41" y="-302.9" font-family="sans" font-size="12.00" fill="#c4c7c7">Partial order</text>
</a>
</g>
</g>
<!-- Linear order&#45;&gt;Partial order -->
<g id="edge1" class="edge">
<title>Linear order&#45;&gt;Partial order</title>
<path fill="none" stroke="#b75867" d="M1069.29,-359.88C1046.77,-350.26 1018.49,-338.19 994.64,-328.01"/>
<polygon fill="#b75867" stroke="#b75867" points="995.97,-324.77 985.4,-324.07 993.22,-331.21 995.97,-324.77"/>
</g>
<!-- Transitive Relation -->
<g id="node3" class="node">
<title>Transitive Relation</title>
<g id="a_node3"><a xlink:title="Transitive Relation">
<path fill="#273434" stroke="#b75867" d="M444.91,-252C444.91,-252 347.91,-252 347.91,-252 341.91,-252 335.91,-246 335.91,-240 335.91,-240 335.91,-228 335.91,-228 335.91,-222 341.91,-216 347.91,-216 347.91,-216 444.91,-216 444.91,-216 450.91,-216 456.91,-222 456.91,-228 456.91,-228 456.91,-240 456.91,-240 456.91,-246 450.91,-252 444.91,-252"/>
<text text-anchor="middle" x="396.41" y="-230.9" font-family="sans" font-size="12.00" fill="#c4c7c7">Transitive Relation</text>
</a>
</g>
</g>
<!-- Linear order&#45;&gt;Transitive Relation -->
<g id="edge2" class="edge">
<title>Linear order&#45;&gt;Transitive Relation</title>
<path fill="none" stroke="#b75867" d="M1066.39,-371.17C1002.77,-362.31 879.95,-344.34 776.41,-324 667.76,-302.66 542.98,-272.3 466.94,-253.13"/>
<polygon fill="#b75867" stroke="#b75867" points="467.55,-249.67 456.99,-250.62 465.83,-256.46 467.55,-249.67"/>
</g>
<!-- Reflexive Relation -->
<g id="node5" class="node">
<title>Reflexive Relation</title>
<g id="a_node5"><a xlink:title="Reflexive Relation">
<path fill="#273434" stroke="#b75867" d="M665.91,-252C665.91,-252 572.91,-252 572.91,-252 566.91,-252 560.91,-246 560.91,-240 560.91,-240 560.91,-228 560.91,-228 560.91,-222 566.91,-216 572.91,-216 572.91,-216 665.91,-216 665.91,-216 671.91,-216 677.91,-222 677.91,-228 677.91,-228 677.91,-240 677.91,-240 677.91,-246 671.91,-252 665.91,-252"/>
<text text-anchor="middle" x="619.41" y="-230.9" font-family="sans" font-size="12.00" fill="#c4c7c7">Reflexive Relation</text>
</a>
</g>
</g>
<!-- Linear order&#45;&gt;Reflexive Relation -->
<g id="edge4" class="edge">
<title>Linear order&#45;&gt;Reflexive Relation</title>
<path fill="none" stroke="#b75867" d="M1066.13,-367.37C1022.35,-357.39 952.83,-340.92 893.41,-324 818.3,-302.62 732.9,-274.22 677.69,-255.31"/>
<polygon fill="#b75867" stroke="#b75867" points="678.67,-251.94 668.08,-252.01 676.4,-258.56 678.67,-251.94"/>
</g>
<!-- Relation -->
<g id="node6" class="node">
<title>Relation</title>
<g id="a_node6"><a xlink:title="Relation">
<path fill="#273434" stroke="#b75867" d="M935.41,-180C935.41,-180 895.41,-180 895.41,-180 889.41,-180 883.41,-174 883.41,-168 883.41,-168 883.41,-156 883.41,-156 883.41,-150 889.41,-144 895.41,-144 895.41,-144 935.41,-144 935.41,-144 941.41,-144 947.41,-150 947.41,-156 947.41,-156 947.41,-168 947.41,-168 947.41,-174 941.41,-180 935.41,-180"/>
<text text-anchor="middle" x="915.41" y="-158.9" font-family="sans" font-size="12.00" fill="#c4c7c7">Relation</text>
</a>
</g>
</g>
<!-- Linear order&#45;&gt;Relation -->
<g id="edge5" class="edge">
<title>Linear order&#45;&gt;Relation</title>
<path fill="none" stroke="#b75867" d="M1129.05,-359.97C1162.65,-328.82 1224.02,-261.69 1186.41,-216 1157.93,-181.41 1026.58,-169.08 957.75,-164.94"/>
<polygon fill="#b75867" stroke="#b75867" points="957.85,-161.44 947.67,-164.37 957.45,-168.43 957.85,-161.44"/>
</g>
<!-- Strongly Anti&#45;symmetric Relation -->
<g id="node7" class="node">
<title>Strongly Anti&#45;symmetric Relation</title>
<g id="a_node7"><a xlink:title="Strongly Anti&#45;symmetric Relation">
<path fill="#273434" stroke="#b75867" d="M1424.91,-252C1424.91,-252 1245.91,-252 1245.91,-252 1239.91,-252 1233.91,-246 1233.91,-240 1233.91,-240 1233.91,-228 1233.91,-228 1233.91,-222 1239.91,-216 1245.91,-216 1245.91,-216 1424.91,-216 1424.91,-216 1430.91,-216 1436.91,-222 1436.91,-228 1436.91,-228 1436.91,-240 1436.91,-240 1436.91,-246 1430.91,-252 1424.91,-252"/>
<text text-anchor="middle" x="1335.41" y="-230.9" font-family="sans" font-size="12.00" fill="#c4c7c7">Strongly Anti&#45;symmetric Relation</text>
</a>
</g>
</g>
<!-- Linear order&#45;&gt;Strongly Anti&#45;symmetric Relation -->
<g id="edge3" class="edge">
<title>Linear order&#45;&gt;Strongly Anti&#45;symmetric Relation</title>
<path fill="none" stroke="#b75867" d="M1149.91,-359.9C1171.16,-350.33 1197.29,-337.61 1219.41,-324 1251.37,-304.33 1285.1,-277.7 1307.9,-258.7"/>
<polygon fill="#b75867" stroke="#b75867" points="1310.38,-261.19 1315.78,-252.08 1305.88,-255.83 1310.38,-261.19"/>
</g>
<!-- Linear extension -->
<g id="node9" class="node">
<title>Linear extension</title>
<g id="a_node9"><a xlink:title="Linear extension">
<ellipse fill="#273434" stroke="#b75867" cx="1109.41" cy="-234" rx="67.93" ry="18"/>
<text text-anchor="middle" x="1109.41" y="-230.9" font-family="sans" font-size="12.00" fill="#c4c7c7">Linear extension</text>
</a>
</g>
</g>
<!-- Linear order&#45;&gt;Linear extension -->
<g id="edge14" class="edge">
<title>Linear order&#45;&gt;Linear extension</title>
<path fill="none" stroke="#ffffff" d="M1109.41,-349.68C1109.41,-320.89 1109.41,-276.42 1109.41,-252.19"/>
<polygon fill="#ffffff" stroke="#ffffff" points="1105.91,-349.87 1109.41,-359.87 1112.91,-349.87 1105.91,-349.87"/>
</g>
<!-- Relations -->
<g id="node10" class="node">
<title>Relations</title>
<g id="a_node10"><a xlink:title="Relations">
<ellipse fill="#273434" stroke="#b75867" cx="1738.41" cy="-18" rx="42.45" ry="18"/>
<text text-anchor="middle" x="1738.41" y="-14.9" font-family="sans" font-size="12.00" fill="#c4c7c7">Relations</text>
</a>
</g>
</g>
<!-- Linear order&#45;&gt;Relations -->
<g id="edge15" class="edge">
<title>Linear order&#45;&gt;Relations</title>
<path fill="none" stroke="#ffffff" d="M1162.66,-373.31C1342.83,-360.13 1918.41,-311.98 1918.41,-235 1918.41,-235 1918.41,-235 1918.41,-161 1918.41,-116.68 1906.19,-101.83 1873.41,-72 1846.13,-47.17 1805.86,-33.4 1776.4,-26.17"/>
<polygon fill="#ffffff" stroke="#ffffff" points="1162.34,-369.82 1152.62,-374.04 1162.84,-376.81 1162.34,-369.82"/>
</g>
<!-- Partial order&#45;&gt;Transitive Relation -->
<g id="edge6" class="edge">
<title>Partial order&#45;&gt;Transitive Relation</title>
<path fill="none" stroke="#b75867" d="M902.18,-300.68C821.88,-292.47 644.31,-273.54 495.41,-252 486.19,-250.67 476.5,-249.15 466.94,-247.58"/>
<polygon fill="#b75867" stroke="#b75867" points="467.5,-244.13 457.06,-245.94 466.35,-251.03 467.5,-244.13"/>
</g>
<!-- Anti&#45;symmetric Relation -->
<g id="node4" class="node">
<title>Anti&#45;symmetric Relation</title>
<g id="a_node4"><a xlink:title="Anti&#45;symmetric Relation">
<path fill="#273434" stroke="#b75867" d="M1802.41,-108C1802.41,-108 1674.41,-108 1674.41,-108 1668.41,-108 1662.41,-102 1662.41,-96 1662.41,-96 1662.41,-84 1662.41,-84 1662.41,-78 1668.41,-72 1674.41,-72 1674.41,-72 1802.41,-72 1802.41,-72 1808.41,-72 1814.41,-78 1814.41,-84 1814.41,-84 1814.41,-96 1814.41,-96 1814.41,-102 1808.41,-108 1802.41,-108"/>
<text text-anchor="middle" x="1738.41" y="-86.9" font-family="sans" font-size="12.00" fill="#c4c7c7">Anti&#45;symmetric Relation</text>
</a>
</g>
</g>
<!-- Partial order&#45;&gt;Anti&#45;symmetric Relation -->
<g id="edge7" class="edge">
<title>Partial order&#45;&gt;Anti&#45;symmetric Relation</title>
<path fill="none" stroke="#b75867" d="M957,-287.77C971.88,-267.14 999.71,-233.21 1032.41,-216 1277.41,-87.05 1375.72,-157.77 1652.06,-108.2"/>
<polygon fill="#b75867" stroke="#b75867" points="1652.76,-111.63 1661.97,-106.38 1651.5,-104.74 1652.76,-111.63"/>
</g>
<!-- Partial order&#45;&gt;Reflexive Relation -->
<g id="edge8" class="edge">
<title>Partial order&#45;&gt;Reflexive Relation</title>
<path fill="none" stroke="#b75867" d="M902.12,-295.7C847.45,-283.97 752.76,-263.63 688.15,-249.76"/>
<polygon fill="#b75867" stroke="#b75867" points="688.56,-246.27 678.05,-247.59 687.1,-253.11 688.56,-246.27"/>
</g>
<!-- Partial order&#45;&gt;Relation -->
<g id="edge9" class="edge">
<title>Partial order&#45;&gt;Relation</title>
<path fill="none" stroke="#b75867" d="M941.79,-287.87C936.65,-263.56 927.2,-218.82 921.12,-190.01"/>
<polygon fill="#b75867" stroke="#b75867" points="924.53,-189.25 919.04,-180.19 917.68,-190.7 924.53,-189.25"/>
</g>
<!-- Partial order&#45;&gt;Linear extension -->
<g id="edge16" class="edge">
<title>Partial order&#45;&gt;Linear extension</title>
<path fill="none" stroke="#ffffff" d="M994.83,-283.9C1020.8,-272.82 1051.98,-259.51 1075.25,-249.58"/>
<polygon fill="#ffffff" stroke="#ffffff" points="993.35,-280.73 985.53,-287.88 996.1,-287.17 993.35,-280.73"/>
</g>
<!-- Partial order&#45;&gt;Relations -->
<g id="edge17" class="edge">
<title>Partial order&#45;&gt;Relations</title>
<path fill="none" stroke="#ffffff" d="M962.55,-279.84C978.17,-259.06 1003.23,-230.68 1032.41,-216 1072.03,-196.06 1794.24,-141.42 1823.41,-108 1833.93,-95.95 1831.17,-85.99 1823.41,-72 1812.18,-51.78 1789.68,-38.26 1770.65,-29.94"/>
<polygon fill="#ffffff" stroke="#ffffff" points="959.7,-277.8 956.64,-287.94 965.36,-281.92 959.7,-277.8"/>
</g>
<!-- Partial orders have no contours -->
<g id="node11" class="node">
<title>Partial orders have no contours</title>
<g id="a_node11"><a xlink:title="Partial orders have no contours">
<ellipse fill="#273434" stroke="#b75867" cx="396.41" cy="-162" rx="118.62" ry="18"/>
<text text-anchor="middle" x="396.41" y="-158.9" font-family="sans" font-size="12.00" fill="#c4c7c7">Partial orders have no contours</text>
</a>
</g>
</g>
<!-- Partial order&#45;&gt;Partial orders have no contours -->
<g id="edge18" class="edge">
<title>Partial order&#45;&gt;Partial orders have no contours</title>
<path fill="none" stroke="#ffffff" d="M891.76,-304.29C814.53,-301.83 668.44,-291.75 551.41,-252 500.87,-234.83 448.27,-200.56 419.2,-179.91"/>
<polygon fill="#ffffff" stroke="#ffffff" points="892.1,-307.8 902.2,-304.59 892.3,-300.8 892.1,-307.8"/>
</g>
<!-- Transitive Relation&#45;&gt;Relation -->
<g id="edge10" class="edge">
<title>Transitive Relation&#45;&gt;Relation</title>
<path fill="none" stroke="#b75867" d="M456.96,-224.83C563.42,-210.47 781.55,-181.05 873.28,-168.68"/>
<polygon fill="#b75867" stroke="#b75867" points="873.87,-172.13 883.31,-167.33 872.93,-165.2 873.87,-172.13"/>
</g>
<!-- Transitive Relation&#45;&gt;Relations -->
<g id="edge21" class="edge">
<title>Transitive Relation&#45;&gt;Relations</title>
<path fill="none" stroke="#ffffff" d="M332.21,-212.58C252.57,-184.17 133.7,-129.65 189.41,-72 243.2,-16.34 1451.98,-17.92 1695.78,-18.81"/>
<polygon fill="#ffffff" stroke="#ffffff" points="331.12,-215.91 341.71,-215.92 333.44,-209.31 331.12,-215.91"/>
</g>
<!-- Transitive Relation&#45;&gt;Partial orders have no contours -->
<g id="edge22" class="edge">
<title>Transitive Relation&#45;&gt;Partial orders have no contours</title>
<path fill="none" stroke="#ffffff" d="M396.41,-205.67C396.41,-197.05 396.41,-187.79 396.41,-180.1"/>
<polygon fill="#ffffff" stroke="#ffffff" points="392.91,-205.7 396.41,-215.7 399.91,-205.7 392.91,-205.7"/>
</g>
<!-- Transitive Closure -->
<g id="node12" class="node">
<title>Transitive Closure</title>
<g id="a_node12"><a xlink:title="Transitive Closure">
<ellipse fill="#273434" stroke="#b75867" cx="71.41" cy="-162" rx="71.32" ry="18"/>
<text text-anchor="middle" x="71.41" y="-158.9" font-family="sans" font-size="12.00" fill="#c4c7c7">Transitive Closure</text>
</a>
</g>
</g>
<!-- Transitive Relation&#45;&gt;Transitive Closure -->
<g id="edge19" class="edge">
<title>Transitive Relation&#45;&gt;Transitive Closure</title>
<path fill="none" stroke="#ffffff" d="M325.75,-217.78C264.95,-204.69 178.61,-186.09 123.81,-174.29"/>
<polygon fill="#ffffff" stroke="#ffffff" points="325.15,-221.23 335.66,-219.92 326.62,-214.39 325.15,-221.23"/>
</g>
<!-- Relation of Equivalence -->
<g id="node13" class="node">
<title>Relation of Equivalence</title>
<g id="a_node13"><a xlink:title="Relation of Equivalence">
<ellipse fill="#273434" stroke="#b75867" cx="290.41" cy="-90" rx="91.95" ry="18"/>
<text text-anchor="middle" x="290.41" y="-86.9" font-family="sans" font-size="12.00" fill="#c4c7c7">Relation of Equivalence</text>
</a>
</g>
</g>
<!-- Transitive Relation&#45;&gt;Relation of Equivalence -->
<g id="edge20" class="edge">
<title>Transitive Relation&#45;&gt;Relation of Equivalence</title>
<path fill="none" stroke="#ffffff" d="M325.87,-219.96C303.72,-212.18 281.62,-199.77 268.41,-180 253.73,-158.03 267.34,-127.13 278.72,-108.12"/>
<polygon fill="#ffffff" stroke="#ffffff" points="325.09,-223.38 335.68,-223.11 327.23,-216.72 325.09,-223.38"/>
</g>
<!-- Anti&#45;symmetric Relation&#45;&gt;Relations -->
<g id="edge23" class="edge">
<title>Anti&#45;symmetric Relation&#45;&gt;Relations</title>
<path fill="none" stroke="#ffffff" d="M1738.41,-61.67C1738.41,-53.05 1738.41,-43.79 1738.41,-36.1"/>
<polygon fill="#ffffff" stroke="#ffffff" points="1734.91,-61.7 1738.41,-71.7 1741.91,-61.7 1734.91,-61.7"/>
</g>
<!-- Reflexive Relation&#45;&gt;Relation -->
<g id="edge12" class="edge">
<title>Reflexive Relation&#45;&gt;Relation</title>
<path fill="none" stroke="#b75867" d="M678.24,-219.09C735.81,-205.47 822.09,-185.07 873.17,-172.99"/>
<polygon fill="#b75867" stroke="#b75867" points="874.28,-176.32 883.2,-170.62 872.67,-169.51 874.28,-176.32"/>
</g>
<!-- Reflexive Relation&#45;&gt;Relations -->
<g id="edge26" class="edge">
<title>Reflexive Relation&#45;&gt;Relations</title>
<path fill="none" stroke="#ffffff" d="M607.64,-206.68C597.38,-186.66 580.66,-159.92 558.41,-144 510,-109.36 465.4,-155.41 429.41,-108 419.73,-95.26 418.33,-83.54 429.41,-72 474.26,-25.3 1475.35,-19.74 1695.74,-19.09"/>
<polygon fill="#ffffff" stroke="#ffffff" points="604.61,-208.45 612.15,-215.89 610.9,-205.37 604.61,-208.45"/>
</g>
<!-- Reflexive Relation&#45;&gt;Partial orders have no contours -->
<g id="edge27" class="edge">
<title>Reflexive Relation&#45;&gt;Partial orders have no contours</title>
<path fill="none" stroke="#ffffff" d="M555.5,-212.94C520.55,-201.97 477.91,-188.58 445.58,-178.44"/>
<polygon fill="#ffffff" stroke="#ffffff" points="554.55,-216.31 565.14,-215.97 556.65,-209.63 554.55,-216.31"/>
</g>
<!-- Reflexive Relation&#45;&gt;Relation of Equivalence -->
<g id="edge25" class="edge">
<title>Reflexive Relation&#45;&gt;Relation of Equivalence</title>
<path fill="none" stroke="#ffffff" d="M594.6,-208.48C569.29,-183.66 532.6,-148.34 524.41,-144 495.94,-128.9 416.38,-112.69 357.9,-102.23"/>
<polygon fill="#ffffff" stroke="#ffffff" points="592.46,-211.28 602.05,-215.79 597.37,-206.29 592.46,-211.28"/>
</g>
<!-- Reflexive Closure -->
<g id="node14" class="node">
<title>Reflexive Closure</title>
<g id="a_node14"><a xlink:title="Reflexive Closure">
<ellipse fill="#273434" stroke="#b75867" cx="508.41" cy="-90" rx="69.62" ry="18"/>
<text text-anchor="middle" x="508.41" y="-86.9" font-family="sans" font-size="12.00" fill="#c4c7c7">Reflexive Closure</text>
</a>
</g>
</g>
<!-- Reflexive Relation&#45;&gt;Reflexive Closure -->
<g id="edge24" class="edge">
<title>Reflexive Relation&#45;&gt;Reflexive Closure</title>
<path fill="none" stroke="#ffffff" d="M617.39,-205.88C614.79,-186.95 608.88,-161.96 595.41,-144 582.57,-126.88 562.43,-114.1 544.76,-105.39"/>
<polygon fill="#ffffff" stroke="#ffffff" points="613.92,-206.42 618.54,-215.96 620.88,-205.63 613.92,-206.42"/>
</g>
<!-- Relation&#45;&gt;Anti&#45;symmetric Relation -->
<g id="edge28" class="edge">
<title>Relation&#45;&gt;Anti&#45;symmetric Relation</title>
<path fill="none" stroke="#ffffff" d="M957.51,-144.88C958.82,-144.56 960.12,-144.27 961.41,-144 1263.06,-81.91 1347.83,-146.3 1653.41,-108 1656.25,-107.64 1659.13,-107.25 1662.04,-106.82"/>
<polygon fill="#ffffff" stroke="#ffffff" points="956.11,-141.64 947.47,-147.76 958.05,-148.37 956.11,-141.64"/>
</g>
<!-- Descartes Product -->
<g id="node8" class="node">
<title>Descartes Product</title>
<g id="a_node8"><a xlink:title="Descartes Product">
<path fill="#273434" stroke="#b75867" d="M1098.91,-108C1098.91,-108 1003.91,-108 1003.91,-108 997.91,-108 991.91,-102 991.91,-96 991.91,-96 991.91,-84 991.91,-84 991.91,-78 997.91,-72 1003.91,-72 1003.91,-72 1098.91,-72 1098.91,-72 1104.91,-72 1110.91,-78 1110.91,-84 1110.91,-84 1110.91,-96 1110.91,-96 1110.91,-102 1104.91,-108 1098.91,-108"/>
<text text-anchor="middle" x="1051.41" y="-86.9" font-family="sans" font-size="12.00" fill="#c4c7c7">Descartes Product</text>
</a>
</g>
</g>
<!-- Relation&#45;&gt;Descartes Product -->
<g id="edge13" class="edge">
<title>Relation&#45;&gt;Descartes Product</title>
<path fill="none" stroke="#b75867" d="M947.64,-144.41C965.95,-134.99 989.09,-123.07 1008.88,-112.89"/>
<polygon fill="#b75867" stroke="#b75867" points="1010.7,-115.89 1017.99,-108.2 1007.5,-109.67 1010.7,-115.89"/>
</g>
<!-- Relation&#45;&gt;Relations -->
<g id="edge36" class="edge">
<title>Relation&#45;&gt;Relations</title>
<path fill="none" stroke="#ffffff" d="M872.92,-157.57C796.94,-149.95 650.5,-127.69 703.41,-72 738.13,-35.46 1505.36,-22.28 1695.88,-19.56"/>
<polygon fill="#ffffff" stroke="#ffffff" points="872.85,-161.07 883.14,-158.54 873.52,-154.11 872.85,-161.07"/>
</g>
<!-- Relation&#45;&gt;Relation of Equivalence -->
<g id="edge33" class="edge">
<title>Relation&#45;&gt;Relation of Equivalence</title>
<path fill="none" stroke="#ffffff" d="M873.3,-156.6C789.01,-147.74 593.51,-126.98 429.41,-108 408.76,-105.61 386.4,-102.92 365.77,-100.4"/>
<polygon fill="#ffffff" stroke="#ffffff" points="872.95,-160.08 883.26,-157.64 873.68,-153.12 872.95,-160.08"/>
</g>
<!-- Relation&#45;&gt;Reflexive Closure -->
<g id="edge31" class="edge">
<title>Relation&#45;&gt;Reflexive Closure</title>
<path fill="none" stroke="#ffffff" d="M872.91,-154.85C810.26,-145.62 689.49,-127.22 587.41,-108 578.31,-106.29 568.65,-104.33 559.33,-102.36"/>
<polygon fill="#ffffff" stroke="#ffffff" points="872.79,-158.37 883.19,-156.36 873.8,-151.44 872.79,-158.37"/>
</g>
<!-- Symmetric Relation -->
<g id="node15" class="node">
<title>Symmetric Relation</title>
<g id="a_node15"><a xlink:title="Symmetric Relation">
<ellipse fill="#273434" stroke="#b75867" cx="1207.41" cy="-90" rx="78.59" ry="18"/>
<text text-anchor="middle" x="1207.41" y="-86.9" font-family="sans" font-size="12.00" fill="#c4c7c7">Symmetric Relation</text>
</a>
</g>
</g>
<!-- Relation&#45;&gt;Symmetric Relation -->
<g id="edge29" class="edge">
<title>Relation&#45;&gt;Symmetric Relation</title>
<path fill="none" stroke="#ffffff" d="M957.15,-145.29C958.58,-144.84 960,-144.41 961.41,-144 996.12,-133.9 1088.77,-114.71 1149.93,-102.4"/>
<polygon fill="#ffffff" stroke="#ffffff" points="956.03,-141.97 947.64,-148.44 958.23,-148.62 956.03,-141.97"/>
</g>
<!-- Anti&#45;reflexive relation -->
<g id="node16" class="node">
<title>Anti&#45;reflexive relation</title>
<g id="a_node16"><a xlink:title="Anti&#45;reflexive relation">
<ellipse fill="#273434" stroke="#b75867" cx="1389.41" cy="-90" rx="84.9" ry="18"/>
<text text-anchor="middle" x="1389.41" y="-86.9" font-family="sans" font-size="12.00" fill="#c4c7c7">Anti&#45;reflexive relation</text>
</a>
</g>
</g>
<!-- Relation&#45;&gt;Anti&#45;reflexive relation -->
<g id="edge30" class="edge">
<title>Relation&#45;&gt;Anti&#45;reflexive relation</title>
<path fill="none" stroke="#ffffff" d="M957.09,-145.09C958.54,-144.7 959.98,-144.33 961.41,-144 1106.76,-109.86 1147.63,-129.3 1295.41,-108 1306.16,-106.45 1317.56,-104.58 1328.58,-102.66"/>
<polygon fill="#ffffff" stroke="#ffffff" points="956.07,-141.75 947.52,-148 958.11,-148.44 956.07,-141.75"/>
</g>
<!-- Symmetric Closure -->
<g id="node17" class="node">
<title>Symmetric Closure</title>
<g id="a_node17"><a xlink:title="Symmetric Closure">
<ellipse fill="#273434" stroke="#b75867" cx="1568.41" cy="-90" rx="75.94" ry="18"/>
<text text-anchor="middle" x="1568.41" y="-86.9" font-family="sans" font-size="12.00" fill="#c4c7c7">Symmetric Closure</text>
</a>
</g>
</g>
<!-- Relation&#45;&gt;Symmetric Closure -->
<g id="edge32" class="edge">
<title>Relation&#45;&gt;Symmetric Closure</title>
<path fill="none" stroke="#ffffff" d="M957.51,-144.91C958.82,-144.58 960.12,-144.28 961.41,-144 1188.78,-95.2 1252.91,-138.87 1483.41,-108 1493.55,-106.64 1504.3,-104.81 1514.62,-102.84"/>
<polygon fill="#ffffff" stroke="#ffffff" points="956.1,-141.68 947.48,-147.83 958.06,-148.4 956.1,-141.68"/>
</g>
<!-- Chain -->
<g id="node18" class="node">
<title>Chain</title>
<g id="a_node18"><a xlink:title="Chain">
<ellipse fill="#273434" stroke="#b75867" cx="626.41" cy="-90" rx="30.33" ry="18"/>
<text text-anchor="middle" x="626.41" y="-86.9" font-family="sans" font-size="12.00" fill="#c4c7c7">Chain</text>
</a>
</g>
</g>
<!-- Relation&#45;&gt;Chain -->
<g id="edge34" class="edge">
<title>Relation&#45;&gt;Chain</title>
<path fill="none" stroke="#ffffff" d="M873.33,-153.96C824.12,-145.25 740.47,-128.97 670.41,-108 663.82,-106.03 656.82,-103.52 650.38,-101.04"/>
<polygon fill="#ffffff" stroke="#ffffff" points="872.84,-157.42 883.29,-155.7 874.04,-150.53 872.84,-157.42"/>
</g>
<!-- Partial function -->
<g id="node19" class="node">
<title>Partial function</title>
<g id="a_node19"><a xlink:title="Partial function">
<ellipse fill="#273434" stroke="#b75867" cx="775.41" cy="-90" rx="63.31" ry="18"/>
<text text-anchor="middle" x="775.41" y="-86.9" font-family="sans" font-size="12.00" fill="#c4c7c7">Partial function</text>
</a>
</g>
</g>
<!-- Relation&#45;&gt;Partial function -->
<g id="edge35" class="edge">
<title>Relation&#45;&gt;Partial function</title>
<path fill="none" stroke="#ffffff" d="M874.16,-140.38C852.14,-129.36 825.51,-116.05 805.46,-106.03"/>
<polygon fill="#ffffff" stroke="#ffffff" points="872.78,-143.6 883.29,-144.94 875.91,-137.34 872.78,-143.6"/>
</g>
<!-- Total function -->
<g id="node20" class="node">
<title>Total function</title>
<g id="a_node20"><a xlink:title="Total function">
<ellipse fill="#273434" stroke="#b75867" cx="915.41" cy="-90" rx="58.46" ry="18"/>
<text text-anchor="middle" x="915.41" y="-86.9" font-family="sans" font-size="12.00" fill="#c4c7c7">Total function</text>
</a>
</g>
</g>
<!-- Relation&#45;&gt;Total function -->
<g id="edge37" class="edge">
<title>Relation&#45;&gt;Total function</title>
<path fill="none" stroke="#ffffff" d="M915.41,-133.67C915.41,-125.05 915.41,-115.79 915.41,-108.1"/>
<polygon fill="#ffffff" stroke="#ffffff" points="911.91,-133.7 915.41,-143.7 918.91,-133.7 911.91,-133.7"/>
</g>
<!-- Strongly Anti&#45;symmetric Relation&#45;&gt;Relation -->
<g id="edge11" class="edge">
<title>Strongly Anti&#45;symmetric Relation&#45;&gt;Relation</title>
<path fill="none" stroke="#b75867" d="M1233.74,-216.05C1145.43,-201.34 1021.92,-180.75 957.81,-170.07"/>
<polygon fill="#b75867" stroke="#b75867" points="958.11,-166.57 947.67,-168.38 956.96,-173.47 958.11,-166.57"/>
</g>
<!-- Strongly Anti&#45;symmetric Relation&#45;&gt;Relations -->
<g id="edge38" class="edge">
<title>Strongly Anti&#45;symmetric Relation&#45;&gt;Relations</title>
<path fill="none" stroke="#ffffff" d="M1447.22,-222.17C1584.82,-206.27 1806.44,-171.38 1856.41,-108 1866.31,-95.44 1865.1,-85.43 1856.41,-72 1839.08,-45.23 1804.67,-31.85 1777.46,-25.24"/>
<polygon fill="#ffffff" stroke="#ffffff" points="1446.59,-218.72 1437.05,-223.33 1447.38,-225.68 1446.59,-218.72"/>
</g>
</g>
</svg>
