<?xml version="1.0" encoding="UTF-8" standalone="no"?>
<!DOCTYPE svg PUBLIC "-//W3C//DTD SVG 1.1//EN"
 "http://www.w3.org/Graphics/SVG/1.1/DTD/svg11.dtd">
<!-- Generated by graphviz version 2.44.0 (0)
 -->
<!-- Title: Linear Algebra Pages: 1 -->
<svg width="697pt" height="1006pt"
 viewBox="0.00 0.00 697.00 1006.00" xmlns="http://www.w3.org/2000/svg" xmlns:xlink="http://www.w3.org/1999/xlink">
<g id="page0,1_graph0" class="graph" transform="scale(1 1) rotate(0) translate(4 1002)">
<title>Linear Algebra</title>
<polygon fill="#132020" stroke="transparent" points="-4,4 -4,-1002 693,-1002 693,4 -4,4"/>
<!-- Linear Algebra -->
<g id="node1" class="node">
<title>Linear Algebra</title>
<g id="a_node1"><a xlink:href="../Linear Algebra.html" xlink:title="Linear Algebra" target="_parent">
<path fill="#273434" stroke="#b75867" d="M86,-821C86,-821 12,-821 12,-821 6,-821 0,-815 0,-809 0,-809 0,-797 0,-797 0,-791 6,-785 12,-785 12,-785 86,-785 86,-785 92,-785 98,-791 98,-797 98,-797 98,-809 98,-809 98,-815 92,-821 86,-821"/>
<text text-anchor="middle" x="49" y="-799.9" font-family="sans" font-size="12.00" fill="#c4c7c7">Linear Algebra</text>
</a>
</g>
</g>
<!-- Matrix -->
<g id="node2" class="node">
<title>Matrix</title>
<g id="a_node2"><a xlink:href="../Matrix.html" xlink:title="Matrix" target="_parent">
<path fill="#273434" stroke="#b75867" d="M225.5,-939C225.5,-939 195.5,-939 195.5,-939 189.5,-939 183.5,-933 183.5,-927 183.5,-927 183.5,-915 183.5,-915 183.5,-909 189.5,-903 195.5,-903 195.5,-903 225.5,-903 225.5,-903 231.5,-903 237.5,-909 237.5,-915 237.5,-915 237.5,-927 237.5,-927 237.5,-933 231.5,-939 225.5,-939"/>
<text text-anchor="middle" x="210.5" y="-917.9" font-family="sans" font-size="12.00" fill="#c4c7c7">Matrix</text>
</a>
</g>
</g>
<!-- Linear Algebra&#45;&gt;Matrix -->
<g id="edge1" class="edge">
<title>Linear Algebra&#45;&gt;Matrix</title>
<path fill="none" stroke="#b75867" d="M59.26,-821.18C68.87,-838.42 85.36,-864 106,-880 125.91,-895.44 152.38,-905.79 173.57,-912.22"/>
<polygon fill="#b75867" stroke="#b75867" points="172.61,-915.59 183.19,-914.99 174.55,-908.86 172.61,-915.59"/>
</g>
<!-- Bijective function -->
<g id="node3" class="node">
<title>Bijective function</title>
<g id="a_node3"><a xlink:href="../Bijective function.html" xlink:title="Bijective function" target="_parent">
<path fill="#273434" stroke="#b75867" d="M255.5,-851C255.5,-851 165.5,-851 165.5,-851 159.5,-851 153.5,-845 153.5,-839 153.5,-839 153.5,-827 153.5,-827 153.5,-821 159.5,-815 165.5,-815 165.5,-815 255.5,-815 255.5,-815 261.5,-815 267.5,-821 267.5,-827 267.5,-827 267.5,-839 267.5,-839 267.5,-845 261.5,-851 255.5,-851"/>
<text text-anchor="middle" x="210.5" y="-829.9" font-family="sans" font-size="12.00" fill="#c4c7c7">Bijective function</text>
</a>
</g>
</g>
<!-- Linear Algebra&#45;&gt;Bijective function -->
<g id="edge2" class="edge">
<title>Linear Algebra&#45;&gt;Bijective function</title>
<path fill="none" stroke="#b75867" d="M98.29,-812.08C112.37,-814.73 128.01,-817.67 143,-820.49"/>
<polygon fill="#b75867" stroke="#b75867" points="142.78,-824.01 153.25,-822.42 144.07,-817.13 142.78,-824.01"/>
</g>
<!-- Injective function -->
<g id="node4" class="node">
<title>Injective function</title>
<g id="a_node4"><a xlink:href="../Injective function.html" xlink:title="Injective function" target="_parent">
<path fill="#273434" stroke="#b75867" d="M489,-924C489,-924 399,-924 399,-924 393,-924 387,-918 387,-912 387,-912 387,-900 387,-900 387,-894 393,-888 399,-888 399,-888 489,-888 489,-888 495,-888 501,-894 501,-900 501,-900 501,-912 501,-912 501,-918 495,-924 489,-924"/>
<text text-anchor="middle" x="444" y="-902.9" font-family="sans" font-size="12.00" fill="#c4c7c7">Injective function</text>
</a>
</g>
</g>
<!-- Linear Algebra&#45;&gt;Injective function -->
<g id="edge3" class="edge">
<title>Linear Algebra&#45;&gt;Injective function</title>
<path fill="none" stroke="#b75867" d="M66.37,-821.34C76.7,-831.71 90.91,-843.98 106,-851 193.74,-891.79 306.59,-902.93 376.87,-905.64"/>
<polygon fill="#b75867" stroke="#b75867" points="376.81,-909.14 386.92,-905.98 377.04,-902.14 376.81,-909.14"/>
</g>
<!-- Surjective function -->
<g id="node5" class="node">
<title>Surjective function</title>
<g id="a_node5"><a xlink:href="../Surjective function.html" xlink:title="Surjective function" target="_parent">
<path fill="#273434" stroke="#b75867" d="M493,-850C493,-850 395,-850 395,-850 389,-850 383,-844 383,-838 383,-838 383,-826 383,-826 383,-820 389,-814 395,-814 395,-814 493,-814 493,-814 499,-814 505,-820 505,-826 505,-826 505,-838 505,-838 505,-844 499,-850 493,-850"/>
<text text-anchor="middle" x="444" y="-828.9" font-family="sans" font-size="12.00" fill="#c4c7c7">Surjective function</text>
</a>
</g>
</g>
<!-- Linear Algebra&#45;&gt;Surjective function -->
<g id="edge4" class="edge">
<title>Linear Algebra&#45;&gt;Surjective function</title>
<path fill="none" stroke="#b75867" d="M98.25,-807.44C100.87,-807.64 103.47,-807.83 106,-808 198.78,-814.36 222.29,-810.72 315,-818 333.8,-819.48 354.1,-821.5 372.88,-823.55"/>
<polygon fill="#b75867" stroke="#b75867" points="372.51,-827.03 382.84,-824.65 373.29,-820.07 372.51,-827.03"/>
</g>
<!-- Kronecker Delta -->
<g id="node6" class="node">
<title>Kronecker Delta</title>
<g id="a_node6"><a xlink:href="../Kronecker Delta.html" xlink:title="Kronecker Delta" target="_parent">
<path fill="#273434" stroke="#b75867" d="M252,-811C252,-811 169,-811 169,-811 163,-811 157,-805 157,-799 157,-799 157,-787 157,-787 157,-781 163,-775 169,-775 169,-775 252,-775 252,-775 258,-775 264,-781 264,-787 264,-787 264,-799 264,-799 264,-805 258,-811 252,-811"/>
<text text-anchor="middle" x="210.5" y="-789.9" font-family="sans" font-size="12.00" fill="#c4c7c7">Kronecker Delta</text>
</a>
</g>
</g>
<!-- Linear Algebra&#45;&gt;Kronecker Delta -->
<g id="edge5" class="edge">
<title>Linear Algebra&#45;&gt;Kronecker Delta</title>
<path fill="none" stroke="#b75867" d="M98.29,-799.97C113.48,-799.02 130.49,-797.95 146.55,-796.95"/>
<polygon fill="#b75867" stroke="#b75867" points="147.17,-800.41 156.93,-796.3 146.73,-793.43 147.17,-800.41"/>
</g>
<!-- Fundamental Theorem of Algebra -->
<g id="node7" class="node">
<title>Fundamental Theorem of Algebra</title>
<g id="a_node7"><a xlink:href="../Fundamental Theorem of Algebra.html" xlink:title="Fundamental Theorem of Algebra" target="_parent">
<path fill="#273434" stroke="#b75867" d="M303,-757C303,-757 118,-757 118,-757 112,-757 106,-751 106,-745 106,-745 106,-733 106,-733 106,-727 112,-721 118,-721 118,-721 303,-721 303,-721 309,-721 315,-727 315,-733 315,-733 315,-745 315,-745 315,-751 309,-757 303,-757"/>
<text text-anchor="middle" x="210.5" y="-735.9" font-family="sans" font-size="12.00" fill="#c4c7c7">Fundamental Theorem of Algebra</text>
</a>
</g>
</g>
<!-- Linear Algebra&#45;&gt;Fundamental Theorem of Algebra -->
<g id="edge6" class="edge">
<title>Linear Algebra&#45;&gt;Fundamental Theorem of Algebra</title>
<path fill="none" stroke="#b75867" d="M82.77,-784.98C90.3,-781.13 98.34,-777.26 106,-774 117.36,-769.17 129.64,-764.53 141.63,-760.3"/>
<polygon fill="#b75867" stroke="#b75867" points="142.86,-763.58 151.16,-757 140.57,-756.97 142.86,-763.58"/>
</g>
<!-- Subjects -->
<g id="node8" class="node">
<title>Subjects</title>
<g id="a_node8"><a xlink:href="../Subjects.html" xlink:title="Subjects" target="_parent">
<path fill="none" stroke="#b75867" d="M231,-647C231,-647 190,-647 190,-647 184,-647 178,-641 178,-635 178,-635 178,-623 178,-623 178,-617 184,-611 190,-611 190,-611 231,-611 231,-611 237,-611 243,-617 243,-623 243,-623 243,-635 243,-635 243,-641 237,-647 231,-647"/>
<text text-anchor="middle" x="210.5" y="-625.9" font-family="sans" font-size="12.00" fill="#c4c7c7">Subjects</text>
</a>
</g>
</g>
<!-- Linear Algebra&#45;&gt;Subjects -->
<g id="edge7" class="edge">
<title>Linear Algebra&#45;&gt;Subjects</title>
<path fill="none" stroke="#ffffff" d="M65.71,-776.07C76.14,-759.18 90.69,-737.4 106,-720 130.5,-692.16 163.27,-664.67 185.32,-647.32"/>
<polygon fill="#ffffff" stroke="#ffffff" points="62.56,-774.52 60.36,-784.89 68.54,-778.15 62.56,-774.52"/>
</g>
<!-- Knowledege Base -->
<g id="node9" class="node">
<title>Knowledege Base</title>
<g id="a_node9"><a xlink:href="../Knowledege Base.html" xlink:title="Knowledege Base" target="_parent">
<path fill="none" stroke="#b75867" d="M257,-388C257,-388 164,-388 164,-388 158,-388 152,-382 152,-376 152,-376 152,-364 152,-364 152,-358 158,-352 164,-352 164,-352 257,-352 257,-352 263,-352 269,-358 269,-364 269,-364 269,-376 269,-376 269,-382 263,-388 257,-388"/>
<text text-anchor="middle" x="210.5" y="-366.9" font-family="sans" font-size="12.00" fill="#c4c7c7">Knowledege Base</text>
</a>
</g>
</g>
<!-- Linear Algebra&#45;&gt;Knowledege Base -->
<g id="edge8" class="edge">
<title>Linear Algebra&#45;&gt;Knowledege Base</title>
<path fill="none" stroke="#ffffff" d="M56.92,-775.14C66.57,-737.31 85.25,-667.78 106,-610 136.44,-525.23 181.9,-427.62 200.79,-388.05"/>
<polygon fill="#ffffff" stroke="#ffffff" points="53.5,-774.38 54.44,-784.93 60.28,-776.1 53.5,-774.38"/>
</g>
<!-- Matrix&#45;&gt;Linear Algebra -->
<g id="edge11" class="edge">
<title>Matrix&#45;&gt;Linear Algebra</title>
<path fill="none" stroke="#ffffff" d="M173.28,-913C152.14,-906.69 125.82,-896.37 106,-881 85.1,-864.79 68.45,-838.77 58.9,-821.28"/>
<polygon fill="#ffffff" stroke="#ffffff" points="172.61,-916.45 183.19,-915.79 174.51,-909.71 172.61,-916.45"/>
</g>
<!-- Reflexive Closure -->
<g id="node10" class="node">
<title>Reflexive Closure</title>
<g id="a_node10"><a xlink:href="../Reflexive Closure.html" xlink:title="Reflexive Closure" target="_parent">
<path fill="none" stroke="#b75867" d="M488.5,-961C488.5,-961 399.5,-961 399.5,-961 393.5,-961 387.5,-955 387.5,-949 387.5,-949 387.5,-937 387.5,-937 387.5,-931 393.5,-925 399.5,-925 399.5,-925 488.5,-925 488.5,-925 494.5,-925 500.5,-931 500.5,-937 500.5,-937 500.5,-949 500.5,-949 500.5,-955 494.5,-961 488.5,-961"/>
<text text-anchor="middle" x="444" y="-939.9" font-family="sans" font-size="12.00" fill="#c4c7c7">Reflexive Closure</text>
</a>
</g>
</g>
<!-- Matrix&#45;&gt;Reflexive Closure -->
<g id="edge9" class="edge">
<title>Matrix&#45;&gt;Reflexive Closure</title>
<path fill="none" stroke="#ffffff" d="M248.02,-924.47C285.38,-928.02 343.92,-933.58 387.11,-937.69"/>
<polygon fill="#ffffff" stroke="#ffffff" points="247.89,-920.94 237.61,-923.48 247.23,-927.91 247.89,-920.94"/>
</g>
<!-- Symmetric Closure -->
<g id="node11" class="node">
<title>Symmetric Closure</title>
<g id="a_node11"><a xlink:href="../Symmetric Closure.html" xlink:title="Symmetric Closure" target="_parent">
<path fill="none" stroke="#b75867" d="M493.5,-998C493.5,-998 394.5,-998 394.5,-998 388.5,-998 382.5,-992 382.5,-986 382.5,-986 382.5,-974 382.5,-974 382.5,-968 388.5,-962 394.5,-962 394.5,-962 493.5,-962 493.5,-962 499.5,-962 505.5,-968 505.5,-974 505.5,-974 505.5,-986 505.5,-986 505.5,-992 499.5,-998 493.5,-998"/>
<text text-anchor="middle" x="444" y="-976.9" font-family="sans" font-size="12.00" fill="#c4c7c7">Symmetric Closure</text>
</a>
</g>
</g>
<!-- Matrix&#45;&gt;Symmetric Closure -->
<g id="edge10" class="edge">
<title>Matrix&#45;&gt;Symmetric Closure</title>
<path fill="none" stroke="#ffffff" d="M247.24,-934.27C268.93,-941.97 297.3,-951.41 323,-958 342.08,-962.89 363.14,-967.13 382.21,-970.55"/>
<polygon fill="#ffffff" stroke="#ffffff" points="248.37,-930.96 237.78,-930.87 246,-937.54 248.37,-930.96"/>
</g>
<!-- Bijective function&#45;&gt;Linear Algebra -->
<g id="edge14" class="edge">
<title>Bijective function&#45;&gt;Linear Algebra</title>
<path fill="none" stroke="#ffffff" d="M143,-821.23C128.01,-818.43 112.37,-815.48 98.29,-812.78"/>
<polygon fill="#ffffff" stroke="#ffffff" points="142.78,-824.75 153.25,-823.14 144.06,-817.87 142.78,-824.75"/>
</g>
<!-- Bijective function&#45;&gt;Injective function -->
<g id="edge13" class="edge">
<title>Bijective function&#45;&gt;Injective function</title>
<path fill="none" stroke="#b75867" d="M259.26,-851.03C277.2,-858.5 297.47,-867.8 315,-878 318.84,-880.23 318.93,-882.22 323,-884 339.7,-891.31 358.74,-896.19 376.66,-899.45"/>
<polygon fill="#b75867" stroke="#b75867" points="376.32,-902.94 386.76,-901.14 377.48,-896.04 376.32,-902.94"/>
</g>
<!-- Bijective function&#45;&gt;Surjective function -->
<g id="edge12" class="edge">
<title>Bijective function&#45;&gt;Surjective function</title>
<path fill="none" stroke="#b75867" d="M267.54,-832.76C299.07,-832.62 338.74,-832.45 372.38,-832.31"/>
<polygon fill="#b75867" stroke="#b75867" points="372.63,-835.8 382.61,-832.26 372.6,-828.8 372.63,-835.8"/>
</g>
<!-- Principle of the bijection -->
<g id="node12" class="node">
<title>Principle of the bijection</title>
<g id="a_node12"><a xlink:href="../Principle of the bijection.html" xlink:title="Principle of the bijection" target="_parent">
<path fill="none" stroke="#b75867" d="M509,-887C509,-887 379,-887 379,-887 373,-887 367,-881 367,-875 367,-875 367,-863 367,-863 367,-857 373,-851 379,-851 379,-851 509,-851 509,-851 515,-851 521,-857 521,-863 521,-863 521,-875 521,-875 521,-881 515,-887 509,-887"/>
<text text-anchor="middle" x="444" y="-865.9" font-family="sans" font-size="12.00" fill="#c4c7c7">Principle of the bijection</text>
</a>
</g>
</g>
<!-- Bijective function&#45;&gt;Principle of the bijection -->
<g id="edge15" class="edge">
<title>Bijective function&#45;&gt;Principle of the bijection</title>
<path fill="none" stroke="#ffffff" d="M277.58,-843.28C305.45,-847.61 338.06,-852.68 366.92,-857.17"/>
<polygon fill="#ffffff" stroke="#ffffff" points="277.96,-839.79 267.54,-841.71 276.88,-846.71 277.96,-839.79"/>
</g>
<!-- Injective function&#45;&gt;Linear Algebra -->
<g id="edge17" class="edge">
<title>Injective function&#45;&gt;Linear Algebra</title>
<path fill="none" stroke="#ffffff" d="M376.87,-906.38C306.59,-903.93 193.74,-892.79 106,-852 90.44,-844.77 75.83,-831.95 65.43,-821.24"/>
<polygon fill="#ffffff" stroke="#ffffff" points="376.82,-909.88 386.92,-906.68 377.03,-902.88 376.82,-909.88"/>
</g>
<!-- Injective function&#45;&gt;Bijective function -->
<g id="edge18" class="edge">
<title>Injective function&#45;&gt;Bijective function</title>
<path fill="none" stroke="#ffffff" d="M376.66,-900.41C358.74,-897.19 339.7,-892.31 323,-885 318.93,-883.22 318.84,-881.23 315,-879 296.79,-868.41 275.63,-858.78 257.2,-851.09"/>
<polygon fill="#ffffff" stroke="#ffffff" points="376.32,-903.9 386.76,-902.08 377.46,-897 376.32,-903.9"/>
</g>
<!-- Dirichlet principle -->
<g id="node13" class="node">
<title>Dirichlet principle</title>
<g id="a_node13"><a xlink:href="../Dirichlet principle.html" xlink:title="Dirichlet principle" target="_parent">
<path fill="none" stroke="#b75867" d="M677,-924C677,-924 585,-924 585,-924 579,-924 573,-918 573,-912 573,-912 573,-900 573,-900 573,-894 579,-888 585,-888 585,-888 677,-888 677,-888 683,-888 689,-894 689,-900 689,-900 689,-912 689,-912 689,-918 683,-924 677,-924"/>
<text text-anchor="middle" x="631" y="-902.9" font-family="sans" font-size="12.00" fill="#c4c7c7">Dirichlet principle</text>
</a>
</g>
</g>
<!-- Injective function&#45;&gt;Dirichlet principle -->
<g id="edge16" class="edge">
<title>Injective function&#45;&gt;Dirichlet principle</title>
<path fill="none" stroke="#ffffff" d="M511.08,-906C531.29,-906 553.34,-906 572.9,-906"/>
<polygon fill="#ffffff" stroke="#ffffff" points="511.01,-902.5 501.01,-906 511.01,-909.5 511.01,-902.5"/>
</g>
<!-- Surjective function&#45;&gt;Linear Algebra -->
<g id="edge19" class="edge">
<title>Surjective function&#45;&gt;Linear Algebra</title>
<path fill="none" stroke="#ffffff" d="M372.88,-824.51C354.1,-822.5 333.8,-820.48 315,-819 222.29,-811.72 198.78,-815.36 106,-809 103.47,-808.83 100.87,-808.64 98.25,-808.43"/>
<polygon fill="#ffffff" stroke="#ffffff" points="372.52,-827.99 382.84,-825.59 373.28,-821.04 372.52,-827.99"/>
</g>
<!-- Surjective function&#45;&gt;Bijective function -->
<g id="edge20" class="edge">
<title>Surjective function&#45;&gt;Bijective function</title>
<path fill="none" stroke="#ffffff" d="M372.38,-833C338.74,-833.23 299.07,-833.39 267.54,-833.41"/>
<polygon fill="#ffffff" stroke="#ffffff" points="372.64,-836.5 382.61,-832.93 372.59,-829.5 372.64,-836.5"/>
</g>
<!-- Kronecker Delta&#45;&gt;Linear Algebra -->
<g id="edge22" class="edge">
<title>Kronecker Delta&#45;&gt;Linear Algebra</title>
<path fill="none" stroke="#ffffff" d="M146.55,-797.68C130.49,-798.72 113.48,-799.77 98.29,-800.67"/>
<polygon fill="#ffffff" stroke="#ffffff" points="147.18,-801.15 156.93,-797.01 146.72,-794.16 147.18,-801.15"/>
</g>
<!-- Fundamental polynomials of Lagrange -->
<g id="node14" class="node">
<title>Fundamental polynomials of Lagrange</title>
<g id="a_node14"><a xlink:href="../Fundamental polynomials of Lagrange.html" xlink:title="Fundamental polynomials of Lagrange" target="_parent">
<path fill="none" stroke="#b75867" d="M550,-776C550,-776 338,-776 338,-776 332,-776 326,-770 326,-764 326,-764 326,-752 326,-752 326,-746 332,-740 338,-740 338,-740 550,-740 550,-740 556,-740 562,-746 562,-752 562,-752 562,-764 562,-764 562,-770 556,-776 550,-776"/>
<text text-anchor="middle" x="444" y="-754.9" font-family="sans" font-size="12.00" fill="#c4c7c7">Fundamental polynomials of Lagrange</text>
</a>
</g>
</g>
<!-- Kronecker Delta&#45;&gt;Fundamental polynomials of Lagrange -->
<g id="edge21" class="edge">
<title>Kronecker Delta&#45;&gt;Fundamental polynomials of Lagrange</title>
<path fill="none" stroke="#ffffff" d="M274.31,-783.5C290.36,-781.08 308.14,-778.39 325.97,-775.69"/>
<polygon fill="#ffffff" stroke="#ffffff" points="273.4,-780.1 264.03,-785.06 274.44,-787.02 273.4,-780.1"/>
</g>
<!-- Formula of Lagrange for Interpolation -->
<g id="node15" class="node">
<title>Formula of Lagrange for Interpolation</title>
<g id="a_node15"><a xlink:href="../Formula of Lagrange for Interpolation.html" xlink:title="Formula of Lagrange for Interpolation" target="_parent">
<path fill="none" stroke="#b75867" d="M547.5,-813C547.5,-813 340.5,-813 340.5,-813 334.5,-813 328.5,-807 328.5,-801 328.5,-801 328.5,-789 328.5,-789 328.5,-783 334.5,-777 340.5,-777 340.5,-777 547.5,-777 547.5,-777 553.5,-777 559.5,-783 559.5,-789 559.5,-789 559.5,-801 559.5,-801 559.5,-807 553.5,-813 547.5,-813"/>
<text text-anchor="middle" x="444" y="-791.9" font-family="sans" font-size="12.00" fill="#c4c7c7">Formula of Lagrange for Interpolation</text>
</a>
</g>
</g>
<!-- Kronecker Delta&#45;&gt;Formula of Lagrange for Interpolation -->
<g id="edge23" class="edge">
<title>Kronecker Delta&#45;&gt;Formula of Lagrange for Interpolation</title>
<path fill="none" stroke="#ffffff" d="M274.22,-793.54C290.99,-793.69 309.67,-793.85 328.31,-794.01"/>
<polygon fill="#ffffff" stroke="#ffffff" points="274.06,-790.04 264.03,-793.45 274,-797.04 274.06,-790.04"/>
</g>
<!-- Lagrange Interpolation Problem -->
<g id="node16" class="node">
<title>Lagrange Interpolation Problem</title>
<g id="a_node16"><a xlink:href="../Lagrange Interpolation Problem.html" xlink:title="Lagrange Interpolation Problem" target="_parent">
<path fill="none" stroke="#b75867" d="M531.5,-739C531.5,-739 356.5,-739 356.5,-739 350.5,-739 344.5,-733 344.5,-727 344.5,-727 344.5,-715 344.5,-715 344.5,-709 350.5,-703 356.5,-703 356.5,-703 531.5,-703 531.5,-703 537.5,-703 543.5,-709 543.5,-715 543.5,-715 543.5,-727 543.5,-727 543.5,-733 537.5,-739 531.5,-739"/>
<text text-anchor="middle" x="444" y="-717.9" font-family="sans" font-size="12.00" fill="#c4c7c7">Lagrange Interpolation Problem</text>
</a>
</g>
</g>
<!-- Kronecker Delta&#45;&gt;Lagrange Interpolation Problem -->
<g id="edge24" class="edge">
<title>Kronecker Delta&#45;&gt;Lagrange Interpolation Problem</title>
<path fill="none" stroke="#ffffff" d="M273.74,-779.38C288.36,-774.1 303.12,-766.87 315,-757 320.51,-752.42 317.15,-747.14 323,-743 329.57,-738.35 336.83,-734.59 344.43,-731.57"/>
<polygon fill="#ffffff" stroke="#ffffff" points="272.57,-776.08 264.19,-782.57 274.78,-782.72 272.57,-776.08"/>
</g>
<!-- Fundamental Theorem of Algebra&#45;&gt;Linear Algebra -->
<g id="edge26" class="edge">
<title>Fundamental Theorem of Algebra&#45;&gt;Linear Algebra</title>
<path fill="none" stroke="#ffffff" d="M144.18,-760.39C131.39,-764.87 118.17,-769.83 106,-775 99.05,-777.96 91.77,-781.42 84.86,-784.9"/>
<polygon fill="#ffffff" stroke="#ffffff" points="145.55,-763.62 153.86,-757.05 143.27,-757 145.55,-763.62"/>
</g>
<!-- Fundamental Theorem of Algebra&#45;&gt;Lagrange Interpolation Problem -->
<g id="edge27" class="edge">
<title>Fundamental Theorem of Algebra&#45;&gt;Lagrange Interpolation Problem</title>
<path fill="none" stroke="#ffffff" d="M325.15,-730.16C331.58,-729.66 338.02,-729.16 344.39,-728.67"/>
<polygon fill="#ffffff" stroke="#ffffff" points="324.76,-726.68 315.06,-730.95 325.3,-733.66 324.76,-726.68"/>
</g>
<!-- Recurrent Equations -->
<g id="node17" class="node">
<title>Recurrent Equations</title>
<g id="a_node17"><a xlink:href="../Recurrent Equations.html" xlink:title="Recurrent Equations" target="_parent">
<path fill="none" stroke="#b75867" d="M497.5,-702C497.5,-702 390.5,-702 390.5,-702 384.5,-702 378.5,-696 378.5,-690 378.5,-690 378.5,-678 378.5,-678 378.5,-672 384.5,-666 390.5,-666 390.5,-666 497.5,-666 497.5,-666 503.5,-666 509.5,-672 509.5,-678 509.5,-678 509.5,-690 509.5,-690 509.5,-696 503.5,-702 497.5,-702"/>
<text text-anchor="middle" x="444" y="-680.9" font-family="sans" font-size="12.00" fill="#c4c7c7">Recurrent Equations</text>
</a>
</g>
</g>
<!-- Fundamental Theorem of Algebra&#45;&gt;Recurrent Equations -->
<g id="edge25" class="edge">
<title>Fundamental Theorem of Algebra&#45;&gt;Recurrent Equations</title>
<path fill="none" stroke="#ffffff" d="M278.2,-718C292.88,-713.73 308.4,-709.49 323,-706 340.82,-701.74 360.3,-697.85 378.28,-694.56"/>
<polygon fill="#ffffff" stroke="#ffffff" points="276.8,-714.77 268.2,-720.95 278.78,-721.48 276.8,-714.77"/>
</g>
<!-- Subjects&#45;&gt;Linear Algebra -->
<g id="edge31" class="edge">
<title>Subjects&#45;&gt;Linear Algebra</title>
<path fill="none" stroke="#b75867" d="M186.59,-647.08C164.54,-664.61 130.97,-692.62 106,-721 90.89,-738.18 76.51,-759.63 66.11,-776.29"/>
<polygon fill="#b75867" stroke="#b75867" points="63.01,-774.64 60.76,-784.99 68.98,-778.31 63.01,-774.64"/>
</g>
<!-- Numeric Methods -->
<g id="node18" class="node">
<title>Numeric Methods</title>
<g id="a_node18"><a xlink:href="../Numeric Methods.html" xlink:title="Numeric Methods" target="_parent">
<path fill="#273434" stroke="#b75867" d="M490,-628C490,-628 398,-628 398,-628 392,-628 386,-622 386,-616 386,-616 386,-604 386,-604 386,-598 392,-592 398,-592 398,-592 490,-592 490,-592 496,-592 502,-598 502,-604 502,-604 502,-616 502,-616 502,-622 496,-628 490,-628"/>
<text text-anchor="middle" x="444" y="-606.9" font-family="sans" font-size="12.00" fill="#c4c7c7">Numeric Methods</text>
</a>
</g>
</g>
<!-- Subjects&#45;&gt;Numeric Methods -->
<g id="edge28" class="edge">
<title>Subjects&#45;&gt;Numeric Methods</title>
<path fill="none" stroke="#b75867" d="M243.2,-626.4C277.21,-623.61 332.21,-619.09 375.91,-615.51"/>
<polygon fill="#b75867" stroke="#b75867" points="376.22,-618.99 385.9,-614.69 375.64,-612.02 376.22,-618.99"/>
</g>
<!-- Discrete Structures -->
<g id="node19" class="node">
<title>Discrete Structures</title>
<g id="a_node19"><a xlink:href="../Discrete Structures.html" xlink:title="Discrete Structures" target="_parent">
<path fill="#273434" stroke="#b75867" d="M493,-591C493,-591 395,-591 395,-591 389,-591 383,-585 383,-579 383,-579 383,-567 383,-567 383,-561 389,-555 395,-555 395,-555 493,-555 493,-555 499,-555 505,-561 505,-567 505,-567 505,-579 505,-579 505,-585 499,-591 493,-591"/>
<text text-anchor="middle" x="444" y="-569.9" font-family="sans" font-size="12.00" fill="#c4c7c7">Discrete Structures</text>
</a>
</g>
</g>
<!-- Subjects&#45;&gt;Discrete Structures -->
<g id="edge29" class="edge">
<title>Subjects&#45;&gt;Discrete Structures</title>
<path fill="none" stroke="#b75867" d="M243.43,-618.2C265.58,-610.97 295.86,-601.6 323,-595 339.02,-591.1 356.39,-587.54 372.82,-584.47"/>
<polygon fill="#b75867" stroke="#b75867" points="373.69,-587.87 382.9,-582.63 372.43,-580.98 373.69,-587.87"/>
</g>
<!-- Differential Analysis -->
<g id="node20" class="node">
<title>Differential Analysis</title>
<g id="a_node20"><a xlink:href="../Differential Analysis.html" xlink:title="Differential Analysis" target="_parent">
<path fill="#273434" stroke="#b75867" d="M495.5,-554C495.5,-554 392.5,-554 392.5,-554 386.5,-554 380.5,-548 380.5,-542 380.5,-542 380.5,-530 380.5,-530 380.5,-524 386.5,-518 392.5,-518 392.5,-518 495.5,-518 495.5,-518 501.5,-518 507.5,-524 507.5,-530 507.5,-530 507.5,-542 507.5,-542 507.5,-548 501.5,-554 495.5,-554"/>
<text text-anchor="middle" x="444" y="-532.9" font-family="sans" font-size="12.00" fill="#c4c7c7">Differential Analysis</text>
</a>
</g>
</g>
<!-- Subjects&#45;&gt;Differential Analysis -->
<g id="edge30" class="edge">
<title>Subjects&#45;&gt;Differential Analysis</title>
<path fill="none" stroke="#b75867" d="M233.99,-610.95C255.56,-594.59 289.68,-571.09 323,-558 337.94,-552.13 354.55,-547.81 370.53,-544.64"/>
<polygon fill="#b75867" stroke="#b75867" points="371.19,-548.07 380.38,-542.8 369.91,-541.19 371.19,-548.07"/>
</g>
<!-- index -->
<g id="node21" class="node">
<title>index</title>
<g id="a_node21"><a xlink:href="../index.html" xlink:title="index" target="_parent">
<path fill="none" stroke="#b75867" d="M459,-665C459,-665 429,-665 429,-665 423,-665 417,-659 417,-653 417,-653 417,-641 417,-641 417,-635 423,-629 429,-629 429,-629 459,-629 459,-629 465,-629 471,-635 471,-641 471,-641 471,-653 471,-653 471,-659 465,-665 459,-665"/>
<text text-anchor="middle" x="444" y="-643.9" font-family="sans" font-size="12.00" fill="#c4c7c7">index</text>
</a>
</g>
</g>
<!-- Subjects&#45;&gt;index -->
<g id="edge32" class="edge">
<title>Subjects&#45;&gt;index</title>
<path fill="none" stroke="#ffffff" d="M253.46,-632.26C300.96,-635.96 376.88,-641.86 416.69,-644.95"/>
<polygon fill="#ffffff" stroke="#ffffff" points="253.44,-628.75 243.2,-631.47 252.9,-635.73 253.44,-628.75"/>
</g>
<!-- Knowledege Base&#45;&gt;Linear Algebra -->
<g id="edge47" class="edge">
<title>Knowledege Base&#45;&gt;Linear Algebra</title>
<path fill="none" stroke="#b75867" d="M200.93,-388.29C182.13,-428.13 136.52,-526.02 106,-611 85.36,-668.48 66.76,-737.59 57.07,-775.23"/>
<polygon fill="#b75867" stroke="#b75867" points="53.66,-774.42 54.57,-784.98 60.44,-776.15 53.66,-774.42"/>
</g>
<!-- Knowledege Base&#45;&gt;Numeric Methods -->
<g id="edge34" class="edge">
<title>Knowledege Base&#45;&gt;Numeric Methods</title>
<path fill="none" stroke="#b75867" d="M215.09,-388.17C224.51,-430.64 254.11,-536.74 323,-588 338.2,-599.31 357.42,-605.4 376,-608.54"/>
<polygon fill="#b75867" stroke="#b75867" points="375.54,-612.01 385.93,-609.96 376.53,-605.08 375.54,-612.01"/>
</g>
<!-- Knowledege Base&#45;&gt;Discrete Structures -->
<g id="edge42" class="edge">
<title>Knowledege Base&#45;&gt;Discrete Structures</title>
<path fill="none" stroke="#b75867" d="M217.07,-388.15C229.48,-425.32 263.14,-510.05 323,-551 337.54,-560.95 355.3,-566.75 372.65,-570.06"/>
<polygon fill="#b75867" stroke="#b75867" points="372.36,-573.56 382.79,-571.73 373.49,-566.65 372.36,-573.56"/>
</g>
<!-- Knowledege Base&#45;&gt;Differential Analysis -->
<g id="edge44" class="edge">
<title>Knowledege Base&#45;&gt;Differential Analysis</title>
<path fill="none" stroke="#b75867" d="M219.92,-388.04C235.5,-419.25 271.95,-482.94 323,-514 337.16,-522.62 353.88,-528.02 370.26,-531.37"/>
<polygon fill="#b75867" stroke="#b75867" points="369.94,-534.87 380.4,-533.2 371.18,-527.98 369.94,-534.87"/>
</g>
<!-- Knowledege Base&#45;&gt;Differential Analysis -->
<g id="edge48" class="edge">
<title>Knowledege Base&#45;&gt;Differential Analysis</title>
<path fill="none" stroke="#b75867" d="M219.68,-388.14C235.12,-419.58 271.68,-483.77 323,-515 337.16,-523.62 353.88,-529.02 370.26,-532.34"/>
<polygon fill="#b75867" stroke="#b75867" points="369.94,-535.84 380.4,-534.15 371.17,-528.95 369.94,-535.84"/>
</g>
<!-- Computer Architectures -->
<g id="node22" class="node">
<title>Computer Architectures</title>
<g id="a_node22"><a xlink:href="../Computer Architectures.html" xlink:title="Computer Architectures" target="_parent">
<path fill="#273434" stroke="#b75867" d="M507.5,-110C507.5,-110 380.5,-110 380.5,-110 374.5,-110 368.5,-104 368.5,-98 368.5,-98 368.5,-86 368.5,-86 368.5,-80 374.5,-74 380.5,-74 380.5,-74 507.5,-74 507.5,-74 513.5,-74 519.5,-80 519.5,-86 519.5,-86 519.5,-98 519.5,-98 519.5,-104 513.5,-110 507.5,-110"/>
<text text-anchor="middle" x="444" y="-88.9" font-family="sans" font-size="12.00" fill="#c4c7c7">Computer Architectures</text>
</a>
</g>
</g>
<!-- Knowledege Base&#45;&gt;Computer Architectures -->
<g id="edge33" class="edge">
<title>Knowledege Base&#45;&gt;Computer Architectures</title>
<path fill="none" stroke="#b75867" d="M213.6,-351.97C220.12,-304.63 244.58,-176.22 323,-114 333.31,-105.82 345.69,-100.31 358.53,-96.67"/>
<polygon fill="#b75867" stroke="#b75867" points="359.53,-100.02 368.4,-94.23 357.86,-93.23 359.53,-100.02"/>
</g>
<!-- Design and Analysis of Algorithms -->
<g id="node23" class="node">
<title>Design and Analysis of Algorithms</title>
<g id="a_node23"><a xlink:href="../Design and Analysis of Algorithms.html" xlink:title="Design and Analysis of Algorithms" target="_parent">
<path fill="#273434" stroke="#b75867" d="M535,-73C535,-73 353,-73 353,-73 347,-73 341,-67 341,-61 341,-61 341,-49 341,-49 341,-43 347,-37 353,-37 353,-37 535,-37 535,-37 541,-37 547,-43 547,-49 547,-49 547,-61 547,-61 547,-67 541,-73 535,-73"/>
<text text-anchor="middle" x="444" y="-51.9" font-family="sans" font-size="12.00" fill="#c4c7c7">Design and Analysis of Algorithms</text>
</a>
</g>
</g>
<!-- Knowledege Base&#45;&gt;Design and Analysis of Algorithms -->
<g id="edge35" class="edge">
<title>Knowledege Base&#45;&gt;Design and Analysis of Algorithms</title>
<path fill="none" stroke="#b75867" d="M212.53,-351.73C216.49,-299.73 235.37,-149.95 323,-77 325.9,-74.59 328.97,-72.41 332.18,-70.43"/>
<polygon fill="#b75867" stroke="#b75867" points="333.85,-73.51 340.98,-65.68 330.52,-67.35 333.85,-73.51"/>
</g>
<!-- Logic Programming -->
<g id="node24" class="node">
<title>Logic Programming</title>
<g id="a_node24"><a xlink:href="../Logic Programming.html" xlink:title="Logic Programming" target="_parent">
<path fill="#273434" stroke="#b75867" d="M495,-36C495,-36 393,-36 393,-36 387,-36 381,-30 381,-24 381,-24 381,-12 381,-12 381,-6 387,0 393,0 393,0 495,0 495,0 501,0 507,-6 507,-12 507,-12 507,-24 507,-24 507,-30 501,-36 495,-36"/>
<text text-anchor="middle" x="444" y="-14.9" font-family="sans" font-size="12.00" fill="#c4c7c7">Logic Programming</text>
</a>
</g>
</g>
<!-- Knowledege Base&#45;&gt;Logic Programming -->
<g id="edge36" class="edge">
<title>Knowledege Base&#45;&gt;Logic Programming</title>
<path fill="none" stroke="#b75867" d="M211.65,-351.94C213.14,-295.95 225.81,-124.07 323,-40 336.26,-28.53 353.48,-22.18 370.73,-18.83"/>
<polygon fill="#b75867" stroke="#b75867" points="371.54,-22.25 380.85,-17.2 370.42,-15.34 371.54,-22.25"/>
</g>
<!-- Data Structures -->
<g id="node25" class="node">
<title>Data Structures</title>
<g id="a_node25"><a xlink:href="../Data Structures.html" xlink:title="Data Structures" target="_parent">
<path fill="#273434" stroke="#b75867" d="M484,-517C484,-517 404,-517 404,-517 398,-517 392,-511 392,-505 392,-505 392,-493 392,-493 392,-487 398,-481 404,-481 404,-481 484,-481 484,-481 490,-481 496,-487 496,-493 496,-493 496,-505 496,-505 496,-511 490,-517 484,-517"/>
<text text-anchor="middle" x="444" y="-495.9" font-family="sans" font-size="12.00" fill="#c4c7c7">Data Structures</text>
</a>
</g>
</g>
<!-- Knowledege Base&#45;&gt;Data Structures -->
<g id="edge37" class="edge">
<title>Knowledege Base&#45;&gt;Data Structures</title>
<path fill="none" stroke="#b75867" d="M224.72,-388.1C243.61,-412.5 280.73,-455.36 323,-477 340.98,-486.2 362.22,-491.6 381.8,-494.76"/>
<polygon fill="#b75867" stroke="#b75867" points="381.46,-498.24 391.85,-496.21 382.46,-491.31 381.46,-498.24"/>
</g>
<!-- Languages, Automata and Computation -->
<g id="node26" class="node">
<title>Languages, Automata and Computation</title>
<g id="a_node26"><a xlink:href="../Languages, Automata and Computation.html" xlink:title="Languages, Automata and Computation" target="_parent">
<path fill="#273434" stroke="#b75867" d="M553,-480C553,-480 335,-480 335,-480 329,-480 323,-474 323,-468 323,-468 323,-456 323,-456 323,-450 329,-444 335,-444 335,-444 553,-444 553,-444 559,-444 565,-450 565,-456 565,-456 565,-468 565,-468 565,-474 559,-480 553,-480"/>
<text text-anchor="middle" x="444" y="-458.9" font-family="sans" font-size="12.00" fill="#c4c7c7">Languages, Automata and Computation</text>
</a>
</g>
</g>
<!-- Knowledege Base&#45;&gt;Languages, Automata and Computation -->
<g id="edge38" class="edge">
<title>Knowledege Base&#45;&gt;Languages, Automata and Computation</title>
<path fill="none" stroke="#b75867" d="M234.45,-388.09C256.07,-404.2 289.98,-427.16 323,-440 323.57,-440.22 324.14,-440.44 324.72,-440.66"/>
<polygon fill="#b75867" stroke="#b75867" points="323.62,-443.98 334.22,-444 325.94,-437.38 323.62,-443.98"/>
</g>
<!-- Operations Research -->
<g id="node27" class="node">
<title>Operations Research</title>
<g id="a_node27"><a xlink:href="../Operations Research.html" xlink:title="Operations Research" target="_parent">
<path fill="#273434" stroke="#b75867" d="M498.5,-443C498.5,-443 389.5,-443 389.5,-443 383.5,-443 377.5,-437 377.5,-431 377.5,-431 377.5,-419 377.5,-419 377.5,-413 383.5,-407 389.5,-407 389.5,-407 498.5,-407 498.5,-407 504.5,-407 510.5,-413 510.5,-419 510.5,-419 510.5,-431 510.5,-431 510.5,-437 504.5,-443 498.5,-443"/>
<text text-anchor="middle" x="444" y="-421.9" font-family="sans" font-size="12.00" fill="#c4c7c7">Operations Research</text>
</a>
</g>
</g>
<!-- Knowledege Base&#45;&gt;Operations Research -->
<g id="edge39" class="edge">
<title>Knowledege Base&#45;&gt;Operations Research</title>
<path fill="none" stroke="#b75867" d="M268.2,-388.05C285.67,-393.27 305.03,-398.71 323,-403 337.23,-406.4 352.51,-409.57 367.25,-412.38"/>
<polygon fill="#b75867" stroke="#b75867" points="366.87,-415.87 377.34,-414.27 368.16,-408.99 366.87,-415.87"/>
</g>
<!-- Differential Equations -->
<g id="node28" class="node">
<title>Differential Equations</title>
<g id="a_node28"><a xlink:href="../Differential Equations.html" xlink:title="Differential Equations" target="_parent">
<path fill="#273434" stroke="#b75867" d="M501,-406C501,-406 387,-406 387,-406 381,-406 375,-400 375,-394 375,-394 375,-382 375,-382 375,-376 381,-370 387,-370 387,-370 501,-370 501,-370 507,-370 513,-376 513,-382 513,-382 513,-394 513,-394 513,-400 507,-406 501,-406"/>
<text text-anchor="middle" x="444" y="-384.9" font-family="sans" font-size="12.00" fill="#c4c7c7">Differential Equations</text>
</a>
</g>
</g>
<!-- Knowledege Base&#45;&gt;Differential Equations -->
<g id="edge40" class="edge">
<title>Knowledege Base&#45;&gt;Differential Equations</title>
<path fill="none" stroke="#b75867" d="M269.02,-374.47C297.9,-376.72 333.32,-379.47 364.64,-381.91"/>
<polygon fill="#b75867" stroke="#b75867" points="364.41,-385.4 374.66,-382.69 364.96,-378.42 364.41,-385.4"/>
</g>
<!-- OOP -->
<g id="node29" class="node">
<title>OOP</title>
<g id="a_node29"><a xlink:href="../OOP.html" xlink:title="OOP" target="_parent">
<path fill="#273434" stroke="#b75867" d="M459,-369C459,-369 429,-369 429,-369 423,-369 417,-363 417,-357 417,-357 417,-345 417,-345 417,-339 423,-333 429,-333 429,-333 459,-333 459,-333 465,-333 471,-339 471,-345 471,-345 471,-357 471,-357 471,-363 465,-369 459,-369"/>
<text text-anchor="middle" x="444" y="-347.9" font-family="sans" font-size="12.00" fill="#c4c7c7">OOP</text>
</a>
</g>
</g>
<!-- Knowledege Base&#45;&gt;OOP -->
<g id="edge41" class="edge">
<title>Knowledege Base&#45;&gt;OOP</title>
<path fill="none" stroke="#b75867" d="M269.02,-365.28C312.05,-361.75 369.58,-357.03 406.47,-354"/>
<polygon fill="#b75867" stroke="#b75867" points="407.08,-357.46 416.76,-353.15 406.51,-350.48 407.08,-357.46"/>
</g>
<!-- Advanced Algebra -->
<g id="node30" class="node">
<title>Advanced Algebra</title>
<g id="a_node30"><a xlink:href="../Advanced Algebra.html" xlink:title="Advanced Algebra" target="_parent">
<path fill="#273434" stroke="#b75867" d="M491.5,-332C491.5,-332 396.5,-332 396.5,-332 390.5,-332 384.5,-326 384.5,-320 384.5,-320 384.5,-308 384.5,-308 384.5,-302 390.5,-296 396.5,-296 396.5,-296 491.5,-296 491.5,-296 497.5,-296 503.5,-302 503.5,-308 503.5,-308 503.5,-320 503.5,-320 503.5,-326 497.5,-332 491.5,-332"/>
<text text-anchor="middle" x="444" y="-310.9" font-family="sans" font-size="12.00" fill="#c4c7c7">Advanced Algebra</text>
</a>
</g>
</g>
<!-- Knowledege Base&#45;&gt;Advanced Algebra -->
<g id="edge43" class="edge">
<title>Knowledege Base&#45;&gt;Advanced Algebra</title>
<path fill="none" stroke="#b75867" d="M266.17,-351.96C284.15,-346.4 304.32,-340.54 323,-336 339.45,-332 357.32,-328.35 374.12,-325.23"/>
<polygon fill="#b75867" stroke="#b75867" points="375.22,-328.59 384.43,-323.35 373.96,-321.7 375.22,-328.59"/>
</g>
<!-- Introduction to programming -->
<g id="node31" class="node">
<title>Introduction to programming</title>
<g id="a_node31"><a xlink:href="../Introduction to programming.html" xlink:title="Introduction to programming" target="_parent">
<path fill="#273434" stroke="#b75867" d="M523.5,-295C523.5,-295 364.5,-295 364.5,-295 358.5,-295 352.5,-289 352.5,-283 352.5,-283 352.5,-271 352.5,-271 352.5,-265 358.5,-259 364.5,-259 364.5,-259 523.5,-259 523.5,-259 529.5,-259 535.5,-265 535.5,-271 535.5,-271 535.5,-283 535.5,-283 535.5,-289 529.5,-295 523.5,-295"/>
<text text-anchor="middle" x="444" y="-273.9" font-family="sans" font-size="12.00" fill="#c4c7c7">Introduction to programming</text>
</a>
</g>
</g>
<!-- Knowledege Base&#45;&gt;Introduction to programming -->
<g id="edge45" class="edge">
<title>Knowledege Base&#45;&gt;Introduction to programming</title>
<path fill="none" stroke="#b75867" d="M233.99,-351.95C255.56,-335.59 289.68,-312.09 323,-299 329.29,-296.53 335.88,-294.33 342.59,-292.38"/>
<polygon fill="#b75867" stroke="#b75867" points="343.76,-295.69 352.5,-289.69 341.93,-288.93 343.76,-295.69"/>
</g>
<!-- Analytic Geometry -->
<g id="node32" class="node">
<title>Analytic Geometry</title>
<g id="a_node32"><a xlink:href="../Analytic Geometry.html" xlink:title="Analytic Geometry" target="_parent">
<path fill="#273434" stroke="#b75867" d="M492.5,-258C492.5,-258 395.5,-258 395.5,-258 389.5,-258 383.5,-252 383.5,-246 383.5,-246 383.5,-234 383.5,-234 383.5,-228 389.5,-222 395.5,-222 395.5,-222 492.5,-222 492.5,-222 498.5,-222 504.5,-228 504.5,-234 504.5,-234 504.5,-246 504.5,-246 504.5,-252 498.5,-258 492.5,-258"/>
<text text-anchor="middle" x="444" y="-236.9" font-family="sans" font-size="12.00" fill="#c4c7c7">Analytic Geometry</text>
</a>
</g>
</g>
<!-- Knowledege Base&#45;&gt;Analytic Geometry -->
<g id="edge46" class="edge">
<title>Knowledege Base&#45;&gt;Analytic Geometry</title>
<path fill="none" stroke="#b75867" d="M224.68,-351.73C243.52,-327.1 280.59,-283.83 323,-262 338.43,-254.06 356.27,-248.95 373.4,-245.67"/>
<polygon fill="#b75867" stroke="#b75867" points="374.13,-249.09 383.38,-243.94 372.93,-242.2 374.13,-249.09"/>
</g>
<!-- Org Roam -->
<g id="node33" class="node">
<title>Org Roam</title>
<g id="a_node33"><a xlink:href="../Org Roam.html" xlink:title="Org Roam" target="_parent">
<path fill="#273434" stroke="#b75867" d="M468,-221C468,-221 420,-221 420,-221 414,-221 408,-215 408,-209 408,-209 408,-197 408,-197 408,-191 414,-185 420,-185 420,-185 468,-185 468,-185 474,-185 480,-191 480,-197 480,-197 480,-209 480,-209 480,-215 474,-221 468,-221"/>
<text text-anchor="middle" x="444" y="-199.9" font-family="sans" font-size="12.00" fill="#c4c7c7">Org Roam</text>
</a>
</g>
</g>
<!-- Knowledege Base&#45;&gt;Org Roam -->
<g id="edge49" class="edge">
<title>Knowledege Base&#45;&gt;Org Roam</title>
<path fill="none" stroke="#b75867" d="M219.89,-351.83C235.42,-320.41 271.78,-256.28 323,-225 345.28,-211.39 373.92,-205.79 397.64,-203.63"/>
<polygon fill="#b75867" stroke="#b75867" points="398.09,-207.11 407.81,-202.89 397.58,-200.13 398.09,-207.11"/>
</g>
<!-- Org&#45;mode -->
<g id="node34" class="node">
<title>Org&#45;mode</title>
<g id="a_node34"><a xlink:href="../Org-mode.html" xlink:title="Org&#45;mode" target="_parent">
<path fill="#273434" stroke="#b75867" d="M469,-184C469,-184 419,-184 419,-184 413,-184 407,-178 407,-172 407,-172 407,-160 407,-160 407,-154 413,-148 419,-148 419,-148 469,-148 469,-148 475,-148 481,-154 481,-160 481,-160 481,-172 481,-172 481,-178 475,-184 469,-184"/>
<text text-anchor="middle" x="444" y="-162.9" font-family="sans" font-size="12.00" fill="#c4c7c7">Org&#45;mode</text>
</a>
</g>
</g>
<!-- Knowledege Base&#45;&gt;Org&#45;mode -->
<g id="edge50" class="edge">
<title>Knowledege Base&#45;&gt;Org&#45;mode</title>
<path fill="none" stroke="#b75867" d="M217.04,-351.75C229.4,-314.38 262.95,-229.19 323,-188 344.38,-173.34 372.74,-167.67 396.53,-165.74"/>
<polygon fill="#b75867" stroke="#b75867" points="396.98,-169.22 406.75,-165.11 396.55,-162.23 396.98,-169.22"/>
</g>
<!-- Projects -->
<g id="node35" class="node">
<title>Projects</title>
<g id="a_node35"><a xlink:href="../Projects.html" xlink:title="Projects" target="_parent">
<path fill="none" stroke="#b75867" d="M463,-147C463,-147 425,-147 425,-147 419,-147 413,-141 413,-135 413,-135 413,-123 413,-123 413,-117 419,-111 425,-111 425,-111 463,-111 463,-111 469,-111 475,-117 475,-123 475,-123 475,-135 475,-135 475,-141 469,-147 463,-147"/>
<text text-anchor="middle" x="444" y="-125.9" font-family="sans" font-size="12.00" fill="#c4c7c7">Projects</text>
</a>
</g>
</g>
<!-- Knowledege Base&#45;&gt;Projects -->
<g id="edge51" class="edge">
<title>Knowledege Base&#45;&gt;Projects</title>
<path fill="none" stroke="#ffffff" d="M217.35,-341.85C228.77,-294.37 258.76,-198.89 323,-151 348.98,-131.63 386.77,-127.56 412.97,-127.41"/>
<polygon fill="#ffffff" stroke="#ffffff" points="213.9,-341.22 215.07,-351.75 220.72,-342.79 213.9,-341.22"/>
</g>
</g>
</svg>
