<?xml version="1.0" encoding="UTF-8" standalone="no"?>
<!DOCTYPE svg PUBLIC "-//W3C//DTD SVG 1.1//EN"
 "http://www.w3.org/Graphics/SVG/1.1/DTD/svg11.dtd">
<!-- Generated by graphviz version 2.44.0 (0)
 -->
<!-- Title: Linear extension Pages: 1 -->
<svg width="2033pt" height="404pt"
 viewBox="0.00 0.00 2032.81 404.00" xmlns="http://www.w3.org/2000/svg" xmlns:xlink="http://www.w3.org/1999/xlink">
<g id="page0,1_graph0" class="graph" transform="scale(1 1) rotate(0) translate(4 400)">
<title>Linear extension</title>
<polygon fill="#132020" stroke="transparent" points="-4,4 -4,-400 2028.81,-400 2028.81,4 -4,4"/>
<!-- Linear extension -->
<g id="node1" class="node">
<title>Linear extension</title>
<g id="a_node1"><a xlink:title="Linear extension">
<path fill="#273434" stroke="#b75867" d="M769.81,-396C769.81,-396 683.81,-396 683.81,-396 677.81,-396 671.81,-390 671.81,-384 671.81,-384 671.81,-372 671.81,-372 671.81,-366 677.81,-360 683.81,-360 683.81,-360 769.81,-360 769.81,-360 775.81,-360 781.81,-366 781.81,-372 781.81,-372 781.81,-384 781.81,-384 781.81,-390 775.81,-396 769.81,-396"/>
<text text-anchor="middle" x="726.81" y="-374.9" font-family="sans" font-size="12.00" fill="#c4c7c7">Linear extension</text>
</a>
</g>
</g>
<!-- Linear order -->
<g id="node2" class="node">
<title>Linear order</title>
<g id="a_node2"><a xlink:title="Linear order">
<path fill="#273434" stroke="#b75867" d="M757.81,-324C757.81,-324 695.81,-324 695.81,-324 689.81,-324 683.81,-318 683.81,-312 683.81,-312 683.81,-300 683.81,-300 683.81,-294 689.81,-288 695.81,-288 695.81,-288 757.81,-288 757.81,-288 763.81,-288 769.81,-294 769.81,-300 769.81,-300 769.81,-312 769.81,-312 769.81,-318 763.81,-324 757.81,-324"/>
<text text-anchor="middle" x="726.81" y="-302.9" font-family="sans" font-size="12.00" fill="#c4c7c7">Linear order</text>
</a>
</g>
</g>
<!-- Linear extension&#45;&gt;Linear order -->
<g id="edge1" class="edge">
<title>Linear extension&#45;&gt;Linear order</title>
<path fill="none" stroke="#b75867" d="M726.81,-359.7C726.81,-351.98 726.81,-342.71 726.81,-334.11"/>
<polygon fill="#b75867" stroke="#b75867" points="730.31,-334.1 726.81,-324.1 723.31,-334.1 730.31,-334.1"/>
</g>
<!-- Partial order -->
<g id="node3" class="node">
<title>Partial order</title>
<g id="a_node3"><a xlink:title="Partial order">
<path fill="#273434" stroke="#b75867" d="M494.81,-252C494.81,-252 432.81,-252 432.81,-252 426.81,-252 420.81,-246 420.81,-240 420.81,-240 420.81,-228 420.81,-228 420.81,-222 426.81,-216 432.81,-216 432.81,-216 494.81,-216 494.81,-216 500.81,-216 506.81,-222 506.81,-228 506.81,-228 506.81,-240 506.81,-240 506.81,-246 500.81,-252 494.81,-252"/>
<text text-anchor="middle" x="463.81" y="-230.9" font-family="sans" font-size="12.00" fill="#c4c7c7">Partial order</text>
</a>
</g>
</g>
<!-- Linear extension&#45;&gt;Partial order -->
<g id="edge2" class="edge">
<title>Linear extension&#45;&gt;Partial order</title>
<path fill="none" stroke="#b75867" d="M695.08,-359.87C647.4,-334.12 557.24,-285.45 504.69,-257.07"/>
<polygon fill="#b75867" stroke="#b75867" points="506.11,-253.86 495.64,-252.19 502.78,-260.02 506.11,-253.86"/>
</g>
<!-- Relations -->
<g id="node9" class="node">
<title>Relations</title>
<g id="a_node9"><a xlink:title="Relations">
<ellipse fill="#273434" stroke="#b75867" cx="1608.81" cy="-18" rx="42.45" ry="18"/>
<text text-anchor="middle" x="1608.81" y="-14.9" font-family="sans" font-size="12.00" fill="#c4c7c7">Relations</text>
</a>
</g>
</g>
<!-- Linear extension&#45;&gt;Relations -->
<g id="edge12" class="edge">
<title>Linear extension&#45;&gt;Relations</title>
<path fill="none" stroke="#ffffff" d="M792.35,-376.79C1055.98,-375.1 2024.81,-360.34 2024.81,-235 2024.81,-235 2024.81,-235 2024.81,-161 2024.81,-117.63 2019.48,-98.05 1984.81,-72 1932.89,-33 1738.22,-22.64 1651.24,-19.93"/>
<polygon fill="#ffffff" stroke="#ffffff" points="792.15,-373.29 782.17,-376.85 792.19,-380.29 792.15,-373.29"/>
</g>
<!-- Linear order&#45;&gt;Partial order -->
<g id="edge3" class="edge">
<title>Linear order&#45;&gt;Partial order</title>
<path fill="none" stroke="#b75867" d="M683.62,-291.86C678.97,-290.52 674.29,-289.21 669.81,-288 604.03,-270.26 586.59,-269.74 520.81,-252 519.55,-251.66 518.27,-251.31 516.98,-250.96"/>
<polygon fill="#b75867" stroke="#b75867" points="517.57,-247.49 507,-248.14 515.68,-254.22 517.57,-247.49"/>
</g>
<!-- Transitive Relation -->
<g id="node4" class="node">
<title>Transitive Relation</title>
<g id="a_node4"><a xlink:title="Transitive Relation">
<path fill="#273434" stroke="#b75867" d="M375.31,-108C375.31,-108 278.31,-108 278.31,-108 272.31,-108 266.31,-102 266.31,-96 266.31,-96 266.31,-84 266.31,-84 266.31,-78 272.31,-72 278.31,-72 278.31,-72 375.31,-72 375.31,-72 381.31,-72 387.31,-78 387.31,-84 387.31,-84 387.31,-96 387.31,-96 387.31,-102 381.31,-108 375.31,-108"/>
<text text-anchor="middle" x="326.81" y="-86.9" font-family="sans" font-size="12.00" fill="#c4c7c7">Transitive Relation</text>
</a>
</g>
</g>
<!-- Linear order&#45;&gt;Transitive Relation -->
<g id="edge4" class="edge">
<title>Linear order&#45;&gt;Transitive Relation</title>
<path fill="none" stroke="#b75867" d="M683.61,-302.42C607.74,-297.15 454.56,-282.9 411.81,-252 366.46,-219.22 343.18,-154.79 333.14,-118.15"/>
<polygon fill="#b75867" stroke="#b75867" points="336.45,-116.97 330.54,-108.18 329.67,-118.73 336.45,-116.97"/>
</g>
<!-- Strongly Anti&#45;symmetric Relation -->
<g id="node5" class="node">
<title>Strongly Anti&#45;symmetric Relation</title>
<g id="a_node5"><a xlink:title="Strongly Anti&#45;symmetric Relation">
<path fill="#273434" stroke="#b75867" d="M1946.31,-108C1946.31,-108 1767.31,-108 1767.31,-108 1761.31,-108 1755.31,-102 1755.31,-96 1755.31,-96 1755.31,-84 1755.31,-84 1755.31,-78 1761.31,-72 1767.31,-72 1767.31,-72 1946.31,-72 1946.31,-72 1952.31,-72 1958.31,-78 1958.31,-84 1958.31,-84 1958.31,-96 1958.31,-96 1958.31,-102 1952.31,-108 1946.31,-108"/>
<text text-anchor="middle" x="1856.81" y="-86.9" font-family="sans" font-size="12.00" fill="#c4c7c7">Strongly Anti&#45;symmetric Relation</text>
</a>
</g>
</g>
<!-- Linear order&#45;&gt;Strongly Anti&#45;symmetric Relation -->
<g id="edge5" class="edge">
<title>Linear order&#45;&gt;Strongly Anti&#45;symmetric Relation</title>
<path fill="none" stroke="#b75867" d="M770.07,-296.81C934.11,-265.74 1520.44,-154.7 1756.9,-109.92"/>
<polygon fill="#b75867" stroke="#b75867" points="1757.69,-113.33 1766.87,-108.03 1756.39,-106.46 1757.69,-113.33"/>
</g>
<!-- Reflexive Relation -->
<g id="node6" class="node">
<title>Reflexive Relation</title>
<g id="a_node6"><a xlink:title="Reflexive Relation">
<path fill="#273434" stroke="#b75867" d="M510.31,-108C510.31,-108 417.31,-108 417.31,-108 411.31,-108 405.31,-102 405.31,-96 405.31,-96 405.31,-84 405.31,-84 405.31,-78 411.31,-72 417.31,-72 417.31,-72 510.31,-72 510.31,-72 516.31,-72 522.31,-78 522.31,-84 522.31,-84 522.31,-96 522.31,-96 522.31,-102 516.31,-108 510.31,-108"/>
<text text-anchor="middle" x="463.81" y="-86.9" font-family="sans" font-size="12.00" fill="#c4c7c7">Reflexive Relation</text>
</a>
</g>
</g>
<!-- Linear order&#45;&gt;Reflexive Relation -->
<g id="edge6" class="edge">
<title>Linear order&#45;&gt;Reflexive Relation</title>
<path fill="none" stroke="#b75867" d="M705.73,-287.85C658.99,-249.81 546.55,-158.32 493.05,-114.79"/>
<polygon fill="#b75867" stroke="#b75867" points="494.95,-111.83 484.99,-108.23 490.53,-117.26 494.95,-111.83"/>
</g>
<!-- Relation -->
<g id="node7" class="node">
<title>Relation</title>
<g id="a_node7"><a xlink:title="Relation">
<path fill="#273434" stroke="#b75867" d="M938.81,-180C938.81,-180 898.81,-180 898.81,-180 892.81,-180 886.81,-174 886.81,-168 886.81,-168 886.81,-156 886.81,-156 886.81,-150 892.81,-144 898.81,-144 898.81,-144 938.81,-144 938.81,-144 944.81,-144 950.81,-150 950.81,-156 950.81,-156 950.81,-168 950.81,-168 950.81,-174 944.81,-180 938.81,-180"/>
<text text-anchor="middle" x="918.81" y="-158.9" font-family="sans" font-size="12.00" fill="#c4c7c7">Relation</text>
</a>
</g>
</g>
<!-- Linear order&#45;&gt;Relation -->
<g id="edge7" class="edge">
<title>Linear order&#45;&gt;Relation</title>
<path fill="none" stroke="#b75867" d="M749.97,-287.87C784.28,-262.5 848.7,-214.85 887.28,-186.32"/>
<polygon fill="#b75867" stroke="#b75867" points="889.61,-188.95 895.57,-180.19 885.45,-183.32 889.61,-188.95"/>
</g>
<!-- Linear order&#45;&gt;Relations -->
<g id="edge13" class="edge">
<title>Linear order&#45;&gt;Relations</title>
<path fill="none" stroke="#ffffff" d="M780.22,-305.29C997.66,-305.21 1811.98,-292.45 1967.81,-108 1978.13,-95.78 1978.26,-84.11 1967.81,-72 1927.36,-25.14 1737.49,-18.99 1651.42,-18.66"/>
<polygon fill="#ffffff" stroke="#ffffff" points="780.03,-301.79 770.03,-305.28 780.02,-308.79 780.03,-301.79"/>
</g>
<!-- Partial order&#45;&gt;Transitive Relation -->
<g id="edge8" class="edge">
<title>Partial order&#45;&gt;Transitive Relation</title>
<path fill="none" stroke="#b75867" d="M447.28,-215.87C423.11,-190.82 377.99,-144.05 350.36,-115.41"/>
<polygon fill="#b75867" stroke="#b75867" points="352.85,-112.96 343.39,-108.19 347.82,-117.82 352.85,-112.96"/>
</g>
<!-- Partial order&#45;&gt;Reflexive Relation -->
<g id="edge10" class="edge">
<title>Partial order&#45;&gt;Reflexive Relation</title>
<path fill="none" stroke="#b75867" d="M463.81,-215.87C463.81,-191.67 463.81,-147.21 463.81,-118.39"/>
<polygon fill="#b75867" stroke="#b75867" points="467.31,-118.19 463.81,-108.19 460.31,-118.19 467.31,-118.19"/>
</g>
<!-- Partial order&#45;&gt;Relation -->
<g id="edge11" class="edge">
<title>Partial order&#45;&gt;Relation</title>
<path fill="none" stroke="#b75867" d="M507.02,-226.35C594.21,-212.94 790.19,-182.79 876.56,-169.5"/>
<polygon fill="#b75867" stroke="#b75867" points="877.18,-172.95 886.53,-167.97 876.12,-166.03 877.18,-172.95"/>
</g>
<!-- Anti&#45;symmetric Relation -->
<g id="node8" class="node">
<title>Anti&#45;symmetric Relation</title>
<g id="a_node8"><a xlink:title="Anti&#45;symmetric Relation">
<path fill="#273434" stroke="#b75867" d="M1724.81,-108C1724.81,-108 1596.81,-108 1596.81,-108 1590.81,-108 1584.81,-102 1584.81,-96 1584.81,-96 1584.81,-84 1584.81,-84 1584.81,-78 1590.81,-72 1596.81,-72 1596.81,-72 1724.81,-72 1724.81,-72 1730.81,-72 1736.81,-78 1736.81,-84 1736.81,-84 1736.81,-96 1736.81,-96 1736.81,-102 1730.81,-108 1724.81,-108"/>
<text text-anchor="middle" x="1660.81" y="-86.9" font-family="sans" font-size="12.00" fill="#c4c7c7">Anti&#45;symmetric Relation</text>
</a>
</g>
</g>
<!-- Partial order&#45;&gt;Anti&#45;symmetric Relation -->
<g id="edge9" class="edge">
<title>Partial order&#45;&gt;Anti&#45;symmetric Relation</title>
<path fill="none" stroke="#b75867" d="M506.84,-229.27C654.85,-216.2 1156.52,-169.88 1567.81,-108 1570.05,-107.66 1572.32,-107.31 1574.61,-106.95"/>
<polygon fill="#b75867" stroke="#b75867" points="1575.43,-110.36 1584.74,-105.31 1574.31,-103.45 1575.43,-110.36"/>
</g>
<!-- Partial order&#45;&gt;Relations -->
<g id="edge14" class="edge">
<title>Partial order&#45;&gt;Relations</title>
<path fill="none" stroke="#ffffff" d="M482.73,-207.86C512.61,-170.4 574.7,-101.2 645.81,-72 731.68,-36.74 1391.34,-22.8 1566.32,-19.7"/>
<polygon fill="#ffffff" stroke="#ffffff" points="479.93,-205.76 476.51,-215.79 485.44,-210.08 479.93,-205.76"/>
</g>
<!-- Partial orders have no contours -->
<g id="node10" class="node">
<title>Partial orders have no contours</title>
<g id="a_node10"><a xlink:title="Partial orders have no contours">
<ellipse fill="#273434" stroke="#b75867" cx="118.81" cy="-18" rx="118.62" ry="18"/>
<text text-anchor="middle" x="118.81" y="-14.9" font-family="sans" font-size="12.00" fill="#c4c7c7">Partial orders have no contours</text>
</a>
</g>
</g>
<!-- Partial order&#45;&gt;Partial orders have no contours -->
<g id="edge15" class="edge">
<title>Partial order&#45;&gt;Partial orders have no contours</title>
<path fill="none" stroke="#ffffff" d="M426.4,-210.5C410.76,-201.08 392.4,-190.02 375.81,-180 322.89,-148.05 309.23,-140.76 256.81,-108 217.16,-83.23 171.67,-53.67 144.1,-35.62"/>
<polygon fill="#ffffff" stroke="#ffffff" points="424.89,-213.67 435.26,-215.83 428.5,-207.67 424.89,-213.67"/>
</g>
<!-- Transitive Relation&#45;&gt;Relations -->
<g id="edge18" class="edge">
<title>Transitive Relation&#45;&gt;Relations</title>
<path fill="none" stroke="#ffffff" d="M397.81,-71.91C649.39,-38.1 1382.13,-23.06 1566.4,-19.73"/>
<polygon fill="#ffffff" stroke="#ffffff" points="397.06,-68.48 387.63,-73.32 398.02,-75.41 397.06,-68.48"/>
</g>
<!-- Transitive Relation&#45;&gt;Partial orders have no contours -->
<g id="edge19" class="edge">
<title>Transitive Relation&#45;&gt;Partial orders have no contours</title>
<path fill="none" stroke="#ffffff" d="M266.43,-68.68C234.23,-57.84 195.21,-44.71 165.37,-34.67"/>
<polygon fill="#ffffff" stroke="#ffffff" points="265.6,-72.09 276.19,-71.97 267.83,-65.46 265.6,-72.09"/>
</g>
<!-- Transitive Closure -->
<g id="node11" class="node">
<title>Transitive Closure</title>
<g id="a_node11"><a xlink:title="Transitive Closure">
<ellipse fill="#273434" stroke="#b75867" cx="326.81" cy="-18" rx="71.32" ry="18"/>
<text text-anchor="middle" x="326.81" y="-14.9" font-family="sans" font-size="12.00" fill="#c4c7c7">Transitive Closure</text>
</a>
</g>
</g>
<!-- Transitive Relation&#45;&gt;Transitive Closure -->
<g id="edge16" class="edge">
<title>Transitive Relation&#45;&gt;Transitive Closure</title>
<path fill="none" stroke="#ffffff" d="M326.81,-61.67C326.81,-53.05 326.81,-43.79 326.81,-36.1"/>
<polygon fill="#ffffff" stroke="#ffffff" points="323.31,-61.7 326.81,-71.7 330.31,-61.7 323.31,-61.7"/>
</g>
<!-- Relation of Equivalence -->
<g id="node12" class="node">
<title>Relation of Equivalence</title>
<g id="a_node12"><a xlink:title="Relation of Equivalence">
<ellipse fill="#273434" stroke="#b75867" cx="507.81" cy="-18" rx="91.95" ry="18"/>
<text text-anchor="middle" x="507.81" y="-14.9" font-family="sans" font-size="12.00" fill="#c4c7c7">Relation of Equivalence</text>
</a>
</g>
</g>
<!-- Transitive Relation&#45;&gt;Relation of Equivalence -->
<g id="edge17" class="edge">
<title>Transitive Relation&#45;&gt;Relation of Equivalence</title>
<path fill="none" stroke="#ffffff" d="M380.77,-68.13C408.88,-57.26 442.65,-44.2 468.3,-34.28"/>
<polygon fill="#ffffff" stroke="#ffffff" points="379.15,-65 371.09,-71.88 381.68,-71.53 379.15,-65"/>
</g>
<!-- Strongly Anti&#45;symmetric Relation&#45;&gt;Relations -->
<g id="edge20" class="edge">
<title>Strongly Anti&#45;symmetric Relation&#45;&gt;Relations</title>
<path fill="none" stroke="#ffffff" d="M1786.67,-69.2C1739.84,-55.98 1680.29,-39.18 1643.36,-28.75"/>
<polygon fill="#ffffff" stroke="#ffffff" points="1785.88,-72.62 1796.46,-71.97 1787.78,-65.88 1785.88,-72.62"/>
</g>
<!-- Reflexive Relation&#45;&gt;Relations -->
<g id="edge23" class="edge">
<title>Reflexive Relation&#45;&gt;Relations</title>
<path fill="none" stroke="#ffffff" d="M532.86,-72.58C534.19,-72.38 535.5,-72.18 536.81,-72 741.07,-43.4 1393.69,-24.63 1566.49,-20.08"/>
<polygon fill="#ffffff" stroke="#ffffff" points="531.86,-69.2 522.6,-74.35 533.05,-76.1 531.86,-69.2"/>
</g>
<!-- Reflexive Relation&#45;&gt;Partial orders have no contours -->
<g id="edge24" class="edge">
<title>Reflexive Relation&#45;&gt;Partial orders have no contours</title>
<path fill="none" stroke="#ffffff" d="M395.22,-71.93C320.74,-55.66 246.61,-41.72 193.11,-32.05"/>
<polygon fill="#ffffff" stroke="#ffffff" points="394.73,-75.41 405.25,-74.14 396.24,-68.57 394.73,-75.41"/>
</g>
<!-- Reflexive Relation&#45;&gt;Relation of Equivalence -->
<g id="edge22" class="edge">
<title>Reflexive Relation&#45;&gt;Relation of Equivalence</title>
<path fill="none" stroke="#ffffff" d="M480.1,-63.08C485.76,-54.08 491.96,-44.21 497.06,-36.1"/>
<polygon fill="#ffffff" stroke="#ffffff" points="477.04,-61.37 474.68,-71.7 482.97,-65.09 477.04,-61.37"/>
</g>
<!-- Reflexive Closure -->
<g id="node13" class="node">
<title>Reflexive Closure</title>
<g id="a_node13"><a xlink:title="Reflexive Closure">
<ellipse fill="#273434" stroke="#b75867" cx="686.81" cy="-18" rx="69.62" ry="18"/>
<text text-anchor="middle" x="686.81" y="-14.9" font-family="sans" font-size="12.00" fill="#c4c7c7">Reflexive Closure</text>
</a>
</g>
</g>
<!-- Reflexive Relation&#45;&gt;Reflexive Closure -->
<g id="edge21" class="edge">
<title>Reflexive Relation&#45;&gt;Reflexive Closure</title>
<path fill="none" stroke="#ffffff" d="M527.87,-68.89C565.22,-57.17 611.32,-42.7 644.23,-32.37"/>
<polygon fill="#ffffff" stroke="#ffffff" points="526.57,-65.63 518.08,-71.97 528.66,-72.31 526.57,-65.63"/>
</g>
<!-- Relation&#45;&gt;Transitive Relation -->
<g id="edge27" class="edge">
<title>Relation&#45;&gt;Transitive Relation</title>
<path fill="none" stroke="#ffffff" d="M876.77,-158.75C787.6,-153.54 573.14,-138.67 395.81,-108 393.13,-107.54 390.41,-107.03 387.66,-106.49"/>
<polygon fill="#ffffff" stroke="#ffffff" points="876.57,-162.25 886.76,-159.32 876.98,-155.26 876.57,-162.25"/>
</g>
<!-- Relation&#45;&gt;Strongly Anti&#45;symmetric Relation -->
<g id="edge30" class="edge">
<title>Relation&#45;&gt;Strongly Anti&#45;symmetric Relation</title>
<path fill="none" stroke="#ffffff" d="M960.85,-159.61C1082.61,-155.32 1445.95,-140.51 1745.81,-108 1748.91,-107.66 1752.06,-107.3 1755.23,-106.92"/>
<polygon fill="#ffffff" stroke="#ffffff" points="960.7,-156.12 950.83,-159.96 960.94,-163.11 960.7,-156.12"/>
</g>
<!-- Relation&#45;&gt;Reflexive Relation -->
<g id="edge28" class="edge">
<title>Relation&#45;&gt;Reflexive Relation</title>
<path fill="none" stroke="#ffffff" d="M876.53,-154.5C794.91,-141.94 615.51,-114.34 522.43,-100.02"/>
<polygon fill="#ffffff" stroke="#ffffff" points="876.03,-157.96 886.45,-156.02 877.1,-151.04 876.03,-157.96"/>
</g>
<!-- Relation&#45;&gt;Anti&#45;symmetric Relation -->
<g id="edge25" class="edge">
<title>Relation&#45;&gt;Anti&#45;symmetric Relation</title>
<path fill="none" stroke="#ffffff" d="M960.91,-159.12C1064.84,-154.15 1341.75,-138.85 1570.81,-108 1575.38,-107.38 1580.07,-106.69 1584.79,-105.94"/>
<polygon fill="#ffffff" stroke="#ffffff" points="960.65,-155.63 950.82,-159.6 960.98,-162.62 960.65,-155.63"/>
</g>
<!-- Relation&#45;&gt;Relations -->
<g id="edge36" class="edge">
<title>Relation&#45;&gt;Relations</title>
<path fill="none" stroke="#ffffff" d="M961.08,-159.31C1092.34,-153.79 1487.17,-135.1 1537.81,-108 1553.49,-99.61 1582.22,-59.02 1597.9,-35.66"/>
<polygon fill="#ffffff" stroke="#ffffff" points="960.85,-155.82 951.01,-159.73 961.15,-162.81 960.85,-155.82"/>
</g>
<!-- Relation&#45;&gt;Relation of Equivalence -->
<g id="edge33" class="edge">
<title>Relation&#45;&gt;Relation of Equivalence</title>
<path fill="none" stroke="#ffffff" d="M876.37,-158.7C819.4,-154.37 715.99,-142.12 634.81,-108 592.12,-90.06 549.46,-56.05 526.07,-35.66"/>
<polygon fill="#ffffff" stroke="#ffffff" points="876.22,-162.2 886.45,-159.42 876.72,-155.21 876.22,-162.2"/>
</g>
<!-- Relation&#45;&gt;Reflexive Closure -->
<g id="edge31" class="edge">
<title>Relation&#45;&gt;Reflexive Closure</title>
<path fill="none" stroke="#ffffff" d="M876.15,-159.11C806.82,-155.04 674.51,-142.81 645.81,-108 627.63,-85.95 650.97,-54.51 669.16,-35.5"/>
<polygon fill="#ffffff" stroke="#ffffff" points="876.13,-162.61 886.31,-159.67 876.52,-155.62 876.13,-162.61"/>
</g>
<!-- Symmetric Relation -->
<g id="node14" class="node">
<title>Symmetric Relation</title>
<g id="a_node14"><a xlink:title="Symmetric Relation">
<ellipse fill="#273434" stroke="#b75867" cx="1449.81" cy="-90" rx="78.59" ry="18"/>
<text text-anchor="middle" x="1449.81" y="-86.9" font-family="sans" font-size="12.00" fill="#c4c7c7">Symmetric Relation</text>
</a>
</g>
</g>
<!-- Relation&#45;&gt;Symmetric Relation -->
<g id="edge26" class="edge">
<title>Relation&#45;&gt;Symmetric Relation</title>
<path fill="none" stroke="#ffffff" d="M960.91,-156.98C1039.8,-149.22 1215.14,-130.91 1361.81,-108 1371.96,-106.42 1382.72,-104.52 1393.11,-102.57"/>
<polygon fill="#ffffff" stroke="#ffffff" points="960.49,-153.5 950.88,-157.96 961.18,-160.47 960.49,-153.5"/>
</g>
<!-- Anti&#45;reflexive relation -->
<g id="node15" class="node">
<title>Anti&#45;reflexive relation</title>
<g id="a_node15"><a xlink:title="Anti&#45;reflexive relation">
<ellipse fill="#273434" stroke="#b75867" cx="739.81" cy="-90" rx="84.9" ry="18"/>
<text text-anchor="middle" x="739.81" y="-86.9" font-family="sans" font-size="12.00" fill="#c4c7c7">Anti&#45;reflexive relation</text>
</a>
</g>
</g>
<!-- Relation&#45;&gt;Anti&#45;reflexive relation -->
<g id="edge29" class="edge">
<title>Relation&#45;&gt;Anti&#45;reflexive relation</title>
<path fill="none" stroke="#ffffff" d="M877.11,-144.69C847.29,-133.03 807.46,-117.46 778.38,-106.09"/>
<polygon fill="#ffffff" stroke="#ffffff" points="876.22,-148.1 886.81,-148.49 878.77,-141.58 876.22,-148.1"/>
</g>
<!-- Symmetric Closure -->
<g id="node16" class="node">
<title>Symmetric Closure</title>
<g id="a_node16"><a xlink:title="Symmetric Closure">
<ellipse fill="#273434" stroke="#b75867" cx="918.81" cy="-90" rx="75.94" ry="18"/>
<text text-anchor="middle" x="918.81" y="-86.9" font-family="sans" font-size="12.00" fill="#c4c7c7">Symmetric Closure</text>
</a>
</g>
</g>
<!-- Relation&#45;&gt;Symmetric Closure -->
<g id="edge32" class="edge">
<title>Relation&#45;&gt;Symmetric Closure</title>
<path fill="none" stroke="#ffffff" d="M918.81,-133.67C918.81,-125.05 918.81,-115.79 918.81,-108.1"/>
<polygon fill="#ffffff" stroke="#ffffff" points="915.31,-133.7 918.81,-143.7 922.31,-133.7 915.31,-133.7"/>
</g>
<!-- Chain -->
<g id="node17" class="node">
<title>Chain</title>
<g id="a_node17"><a xlink:title="Chain">
<ellipse fill="#273434" stroke="#b75867" cx="1042.81" cy="-90" rx="30.33" ry="18"/>
<text text-anchor="middle" x="1042.81" y="-86.9" font-family="sans" font-size="12.00" fill="#c4c7c7">Chain</text>
</a>
</g>
</g>
<!-- Relation&#45;&gt;Chain -->
<g id="edge34" class="edge">
<title>Relation&#45;&gt;Chain</title>
<path fill="none" stroke="#ffffff" d="M957.91,-138.93C979.03,-127 1004.28,-112.75 1021.72,-102.9"/>
<polygon fill="#ffffff" stroke="#ffffff" points="956.13,-135.91 949.14,-143.88 959.57,-142.01 956.13,-135.91"/>
</g>
<!-- Partial function -->
<g id="node18" class="node">
<title>Partial function</title>
<g id="a_node18"><a xlink:title="Partial function">
<ellipse fill="#273434" stroke="#b75867" cx="1154.81" cy="-90" rx="63.31" ry="18"/>
<text text-anchor="middle" x="1154.81" y="-86.9" font-family="sans" font-size="12.00" fill="#c4c7c7">Partial function</text>
</a>
</g>
</g>
<!-- Relation&#45;&gt;Partial function -->
<g id="edge35" class="edge">
<title>Relation&#45;&gt;Partial function</title>
<path fill="none" stroke="#ffffff" d="M960.95,-148.5C1003.76,-135.8 1069.67,-116.25 1112.53,-103.54"/>
<polygon fill="#ffffff" stroke="#ffffff" points="959.72,-145.21 951.13,-151.41 961.71,-151.93 959.72,-145.21"/>
</g>
<!-- Total function -->
<g id="node19" class="node">
<title>Total function</title>
<g id="a_node19"><a xlink:title="Total function">
<ellipse fill="#273434" stroke="#b75867" cx="1294.81" cy="-90" rx="58.46" ry="18"/>
<text text-anchor="middle" x="1294.81" y="-86.9" font-family="sans" font-size="12.00" fill="#c4c7c7">Total function</text>
</a>
</g>
</g>
<!-- Relation&#45;&gt;Total function -->
<g id="edge37" class="edge">
<title>Relation&#45;&gt;Total function</title>
<path fill="none" stroke="#ffffff" d="M961.02,-154.76C1020.54,-145.72 1132.4,-127.9 1226.81,-108 1234.91,-106.29 1243.5,-104.29 1251.75,-102.28"/>
<polygon fill="#ffffff" stroke="#ffffff" points="960.25,-151.33 950.88,-156.29 961.29,-158.26 960.25,-151.33"/>
</g>
<!-- Anti&#45;symmetric Relation&#45;&gt;Relations -->
<g id="edge38" class="edge">
<title>Anti&#45;symmetric Relation&#45;&gt;Relations</title>
<path fill="none" stroke="#ffffff" d="M1641.88,-63.51C1634.97,-54.22 1627.34,-43.95 1621.16,-35.62"/>
<polygon fill="#ffffff" stroke="#ffffff" points="1639.18,-65.76 1647.95,-71.7 1644.8,-61.58 1639.18,-65.76"/>
</g>
</g>
</svg>
