<?xml version="1.0" encoding="UTF-8" standalone="no"?>
<!DOCTYPE svg PUBLIC "-//W3C//DTD SVG 1.1//EN"
 "http://www.w3.org/Graphics/SVG/1.1/DTD/svg11.dtd">
<!-- Generated by graphviz version 2.44.0 (0)
 -->
<!-- Title: Linear Algebra Pages: 1 -->
<svg width="1849pt" height="260pt"
 viewBox="0.00 0.00 1849.20 260.00" xmlns="http://www.w3.org/2000/svg" xmlns:xlink="http://www.w3.org/1999/xlink">
<g id="page0,1_graph0" class="graph" transform="scale(1 1) rotate(0) translate(4 256)">
<title>Linear Algebra</title>
<polygon fill="#132020" stroke="transparent" points="-4,4 -4,-256 1845.2,-256 1845.2,4 -4,4"/>
<!-- Linear Algebra -->
<g id="node1" class="node">
<title>Linear Algebra</title>
<g id="a_node1"><a xlink:href="../Linear Algebra.html" xlink:title="Linear Algebra" target="_parent">
<path fill="#273434" stroke="#b75867" d="M933.56,-252C933.56,-252 859.56,-252 859.56,-252 853.56,-252 847.56,-246 847.56,-240 847.56,-240 847.56,-228 847.56,-228 847.56,-222 853.56,-216 859.56,-216 859.56,-216 933.56,-216 933.56,-216 939.56,-216 945.56,-222 945.56,-228 945.56,-228 945.56,-240 945.56,-240 945.56,-246 939.56,-252 933.56,-252"/>
<text text-anchor="middle" x="896.56" y="-230.9" font-family="sans" font-size="12.00" fill="#c4c7c7">Linear Algebra</text>
</a>
</g>
</g>
<!-- Matrix -->
<g id="node2" class="node">
<title>Matrix</title>
<g id="a_node2"><a xlink:href="../Matrix.html" xlink:title="Matrix" target="_parent">
<path fill="#273434" stroke="#b75867" d="M247.56,-180C247.56,-180 217.56,-180 217.56,-180 211.56,-180 205.56,-174 205.56,-168 205.56,-168 205.56,-156 205.56,-156 205.56,-150 211.56,-144 217.56,-144 217.56,-144 247.56,-144 247.56,-144 253.56,-144 259.56,-150 259.56,-156 259.56,-156 259.56,-168 259.56,-168 259.56,-174 253.56,-180 247.56,-180"/>
<text text-anchor="middle" x="232.56" y="-158.9" font-family="sans" font-size="12.00" fill="#c4c7c7">Matrix</text>
</a>
</g>
</g>
<!-- Linear Algebra&#45;&gt;Matrix -->
<g id="edge1" class="edge">
<title>Linear Algebra&#45;&gt;Matrix</title>
<path fill="none" stroke="#b75867" d="M847.47,-227.82C720.45,-214.43 383.09,-178.87 270.06,-166.95"/>
<polygon fill="#b75867" stroke="#b75867" points="270.15,-163.44 259.84,-165.88 269.42,-170.4 270.15,-163.44"/>
</g>
<!-- Bijective function -->
<g id="node3" class="node">
<title>Bijective function</title>
<g id="a_node3"><a xlink:href="../Bijective function.html" xlink:title="Bijective function" target="_parent">
<path fill="#273434" stroke="#b75867" d="M704.56,-180C704.56,-180 614.56,-180 614.56,-180 608.56,-180 602.56,-174 602.56,-168 602.56,-168 602.56,-156 602.56,-156 602.56,-150 608.56,-144 614.56,-144 614.56,-144 704.56,-144 704.56,-144 710.56,-144 716.56,-150 716.56,-156 716.56,-156 716.56,-168 716.56,-168 716.56,-174 710.56,-180 704.56,-180"/>
<text text-anchor="middle" x="659.56" y="-158.9" font-family="sans" font-size="12.00" fill="#c4c7c7">Bijective function</text>
</a>
</g>
</g>
<!-- Linear Algebra&#45;&gt;Bijective function -->
<g id="edge2" class="edge">
<title>Linear Algebra&#45;&gt;Bijective function</title>
<path fill="none" stroke="#b75867" d="M847.45,-218.5C812.61,-208.2 765.39,-194.26 727.01,-182.92"/>
<polygon fill="#b75867" stroke="#b75867" points="727.53,-179.43 716.95,-179.95 725.55,-186.14 727.53,-179.43"/>
</g>
<!-- Surjective function -->
<g id="node4" class="node">
<title>Surjective function</title>
<g id="a_node4"><a xlink:href="../Surjective function.html" xlink:title="Surjective function" target="_parent">
<path fill="#273434" stroke="#b75867" d="M436.56,-108C436.56,-108 338.56,-108 338.56,-108 332.56,-108 326.56,-102 326.56,-96 326.56,-96 326.56,-84 326.56,-84 326.56,-78 332.56,-72 338.56,-72 338.56,-72 436.56,-72 436.56,-72 442.56,-72 448.56,-78 448.56,-84 448.56,-84 448.56,-96 448.56,-96 448.56,-102 442.56,-108 436.56,-108"/>
<text text-anchor="middle" x="387.56" y="-86.9" font-family="sans" font-size="12.00" fill="#c4c7c7">Surjective function</text>
</a>
</g>
</g>
<!-- Linear Algebra&#45;&gt;Surjective function -->
<g id="edge4" class="edge">
<title>Linear Algebra&#45;&gt;Surjective function</title>
<path fill="none" stroke="#b75867" d="M847.47,-228C786.86,-221.02 681.05,-206.16 593.56,-180 534.86,-162.45 470.55,-132.88 429.67,-112.68"/>
<polygon fill="#b75867" stroke="#b75867" points="431.07,-109.47 420.55,-108.14 427.94,-115.73 431.07,-109.47"/>
</g>
<!-- Injective function -->
<g id="node5" class="node">
<title>Injective function</title>
<g id="a_node5"><a xlink:href="../Injective function.html" xlink:title="Injective function" target="_parent">
<path fill="#273434" stroke="#b75867" d="M776.56,-108C776.56,-108 686.56,-108 686.56,-108 680.56,-108 674.56,-102 674.56,-96 674.56,-96 674.56,-84 674.56,-84 674.56,-78 680.56,-72 686.56,-72 686.56,-72 776.56,-72 776.56,-72 782.56,-72 788.56,-78 788.56,-84 788.56,-84 788.56,-96 788.56,-96 788.56,-102 782.56,-108 776.56,-108"/>
<text text-anchor="middle" x="731.56" y="-86.9" font-family="sans" font-size="12.00" fill="#c4c7c7">Injective function</text>
</a>
</g>
</g>
<!-- Linear Algebra&#45;&gt;Injective function -->
<g id="edge3" class="edge">
<title>Linear Algebra&#45;&gt;Injective function</title>
<path fill="none" stroke="#b75867" d="M876.66,-215.87C847.42,-190.71 792.74,-143.65 759.5,-115.04"/>
<polygon fill="#b75867" stroke="#b75867" points="761.4,-112.06 751.53,-108.19 756.83,-117.37 761.4,-112.06"/>
</g>
<!-- Kronecker Delta -->
<g id="node6" class="node">
<title>Kronecker Delta</title>
<g id="a_node6"><a xlink:href="../Kronecker Delta.html" xlink:title="Kronecker Delta" target="_parent">
<path fill="#273434" stroke="#b75867" d="M993.06,-180C993.06,-180 910.06,-180 910.06,-180 904.06,-180 898.06,-174 898.06,-168 898.06,-168 898.06,-156 898.06,-156 898.06,-150 904.06,-144 910.06,-144 910.06,-144 993.06,-144 993.06,-144 999.06,-144 1005.06,-150 1005.06,-156 1005.06,-156 1005.06,-168 1005.06,-168 1005.06,-174 999.06,-180 993.06,-180"/>
<text text-anchor="middle" x="951.56" y="-158.9" font-family="sans" font-size="12.00" fill="#c4c7c7">Kronecker Delta</text>
</a>
</g>
</g>
<!-- Linear Algebra&#45;&gt;Kronecker Delta -->
<g id="edge5" class="edge">
<title>Linear Algebra&#45;&gt;Kronecker Delta</title>
<path fill="none" stroke="#b75867" d="M910.16,-215.7C916.68,-207.39 924.63,-197.28 931.81,-188.14"/>
<polygon fill="#b75867" stroke="#b75867" points="934.7,-190.13 938.12,-180.1 929.19,-185.81 934.7,-190.13"/>
</g>
<!-- Fundamental Theorem of Algebra -->
<g id="node7" class="node">
<title>Fundamental Theorem of Algebra</title>
<g id="a_node7"><a xlink:href="../Fundamental Theorem of Algebra.html" xlink:title="Fundamental Theorem of Algebra" target="_parent">
<path fill="#273434" stroke="#b75867" d="M1220.06,-180C1220.06,-180 1035.06,-180 1035.06,-180 1029.06,-180 1023.06,-174 1023.06,-168 1023.06,-168 1023.06,-156 1023.06,-156 1023.06,-150 1029.06,-144 1035.06,-144 1035.06,-144 1220.06,-144 1220.06,-144 1226.06,-144 1232.06,-150 1232.06,-156 1232.06,-156 1232.06,-168 1232.06,-168 1232.06,-174 1226.06,-180 1220.06,-180"/>
<text text-anchor="middle" x="1127.56" y="-158.9" font-family="sans" font-size="12.00" fill="#c4c7c7">Fundamental Theorem of Algebra</text>
</a>
</g>
</g>
<!-- Linear Algebra&#45;&gt;Fundamental Theorem of Algebra -->
<g id="edge6" class="edge">
<title>Linear Algebra&#45;&gt;Fundamental Theorem of Algebra</title>
<path fill="none" stroke="#b75867" d="M945.83,-218.07C979.53,-207.86 1024.58,-194.21 1061.39,-183.05"/>
<polygon fill="#b75867" stroke="#b75867" points="1062.49,-186.37 1071.05,-180.12 1060.46,-179.68 1062.49,-186.37"/>
</g>
<!-- Subjects -->
<g id="node8" class="node">
<title>Subjects</title>
<g id="a_node8"><a xlink:href="../Subjects.html" xlink:title="Subjects" target="_parent">
<ellipse fill="#273434" stroke="#b75867" cx="1290.56" cy="-162" rx="40.03" ry="18"/>
<text text-anchor="middle" x="1290.56" y="-158.9" font-family="sans" font-size="12.00" fill="#c4c7c7">Subjects</text>
</a>
</g>
</g>
<!-- Linear Algebra&#45;&gt;Subjects -->
<g id="edge9" class="edge">
<title>Linear Algebra&#45;&gt;Subjects</title>
<path fill="none" stroke="#ffffff" d="M955.95,-227.19C1025.22,-219.66 1142.82,-204.5 1241.56,-180 1247.94,-178.42 1254.67,-176.35 1261.02,-174.21"/>
<polygon fill="#ffffff" stroke="#ffffff" points="955.25,-223.75 945.68,-228.29 955.99,-230.71 955.25,-223.75"/>
</g>
<!-- Knowledege Base -->
<g id="node9" class="node">
<title>Knowledege Base</title>
<g id="a_node9"><a xlink:href="../Knowledege Base.html" xlink:title="Knowledege Base" target="_parent">
<ellipse fill="#273434" stroke="#b75867" cx="1420.56" cy="-162" rx="72.05" ry="18"/>
<text text-anchor="middle" x="1420.56" y="-158.9" font-family="sans" font-size="12.00" fill="#c4c7c7">Knowledege Base</text>
</a>
</g>
</g>
<!-- Linear Algebra&#45;&gt;Knowledege Base -->
<g id="edge10" class="edge">
<title>Linear Algebra&#45;&gt;Knowledege Base</title>
<path fill="none" stroke="#ffffff" d="M955.59,-227.6C1040.72,-219.44 1202.77,-202.49 1339.56,-180 1349.06,-178.44 1359.14,-176.53 1368.84,-174.56"/>
<polygon fill="#ffffff" stroke="#ffffff" points="955.22,-224.12 945.6,-228.55 955.88,-231.09 955.22,-224.12"/>
</g>
<!-- Reflexive Closure -->
<g id="node10" class="node">
<title>Reflexive Closure</title>
<g id="a_node10"><a xlink:href="../Reflexive Closure.html" xlink:title="Reflexive Closure" target="_parent">
<ellipse fill="#273434" stroke="#b75867" cx="69.56" cy="-90" rx="69.62" ry="18"/>
<text text-anchor="middle" x="69.56" y="-86.9" font-family="sans" font-size="12.00" fill="#c4c7c7">Reflexive Closure</text>
</a>
</g>
</g>
<!-- Matrix&#45;&gt;Reflexive Closure -->
<g id="edge11" class="edge">
<title>Matrix&#45;&gt;Reflexive Closure</title>
<path fill="none" stroke="#ffffff" d="M195.99,-145.3C168.48,-133.48 131.02,-117.39 104.03,-105.8"/>
<polygon fill="#ffffff" stroke="#ffffff" points="194.71,-148.55 205.28,-149.28 197.47,-142.12 194.71,-148.55"/>
</g>
<!-- Symmetric Closure -->
<g id="node11" class="node">
<title>Symmetric Closure</title>
<g id="a_node11"><a xlink:href="../Symmetric Closure.html" xlink:title="Symmetric Closure" target="_parent">
<ellipse fill="#273434" stroke="#b75867" cx="232.56" cy="-90" rx="75.94" ry="18"/>
<text text-anchor="middle" x="232.56" y="-86.9" font-family="sans" font-size="12.00" fill="#c4c7c7">Symmetric Closure</text>
</a>
</g>
</g>
<!-- Matrix&#45;&gt;Symmetric Closure -->
<g id="edge12" class="edge">
<title>Matrix&#45;&gt;Symmetric Closure</title>
<path fill="none" stroke="#ffffff" d="M232.56,-133.67C232.56,-125.05 232.56,-115.79 232.56,-108.1"/>
<polygon fill="#ffffff" stroke="#ffffff" points="229.06,-133.7 232.56,-143.7 236.06,-133.7 229.06,-133.7"/>
</g>
<!-- Bijective function&#45;&gt;Surjective function -->
<g id="edge7" class="edge">
<title>Bijective function&#45;&gt;Surjective function</title>
<path fill="none" stroke="#b75867" d="M602.54,-146.33C560.69,-135.55 503.56,-120.85 458.71,-109.31"/>
<polygon fill="#b75867" stroke="#b75867" points="459.32,-105.85 448.76,-106.75 457.57,-112.63 459.32,-105.85"/>
</g>
<!-- Bijective function&#45;&gt;Injective function -->
<g id="edge8" class="edge">
<title>Bijective function&#45;&gt;Injective function</title>
<path fill="none" stroke="#b75867" d="M677.36,-143.7C686.17,-135.14 696.94,-124.66 706.56,-115.3"/>
<polygon fill="#b75867" stroke="#b75867" points="709.24,-117.58 713.97,-108.1 704.36,-112.57 709.24,-117.58"/>
</g>
<!-- Principle of the bijection -->
<g id="node12" class="node">
<title>Principle of the bijection</title>
<g id="a_node12"><a xlink:href="../Principle of the bijection.html" xlink:title="Principle of the bijection" target="_parent">
<ellipse fill="#273434" stroke="#b75867" cx="561.56" cy="-90" rx="94.6" ry="18"/>
<text text-anchor="middle" x="561.56" y="-86.9" font-family="sans" font-size="12.00" fill="#c4c7c7">Principle of the bijection</text>
</a>
</g>
</g>
<!-- Bijective function&#45;&gt;Principle of the bijection -->
<g id="edge13" class="edge">
<title>Bijective function&#45;&gt;Principle of the bijection</title>
<path fill="none" stroke="#ffffff" d="M627.22,-137.9C613.29,-127.95 597.32,-116.54 584.61,-107.47"/>
<polygon fill="#ffffff" stroke="#ffffff" points="625.42,-140.91 635.59,-143.88 629.48,-135.22 625.42,-140.91"/>
</g>
<!-- Dirichlet principle -->
<g id="node13" class="node">
<title>Dirichlet principle</title>
<g id="a_node13"><a xlink:href="../Dirichlet principle.html" xlink:title="Dirichlet principle" target="_parent">
<ellipse fill="#273434" stroke="#b75867" cx="731.56" cy="-18" rx="71.32" ry="18"/>
<text text-anchor="middle" x="731.56" y="-14.9" font-family="sans" font-size="12.00" fill="#c4c7c7">Dirichlet principle</text>
</a>
</g>
</g>
<!-- Injective function&#45;&gt;Dirichlet principle -->
<g id="edge14" class="edge">
<title>Injective function&#45;&gt;Dirichlet principle</title>
<path fill="none" stroke="#ffffff" d="M731.56,-61.67C731.56,-53.05 731.56,-43.79 731.56,-36.1"/>
<polygon fill="#ffffff" stroke="#ffffff" points="728.06,-61.7 731.56,-71.7 735.06,-61.7 728.06,-61.7"/>
</g>
<!-- Fundamental polynomials of Lagrange -->
<g id="node14" class="node">
<title>Fundamental polynomials of Lagrange</title>
<g id="a_node14"><a xlink:href="../Fundamental polynomials of Lagrange.html" xlink:title="Fundamental polynomials of Lagrange" target="_parent">
<ellipse fill="#273434" stroke="#b75867" cx="951.56" cy="-90" rx="145.06" ry="18"/>
<text text-anchor="middle" x="951.56" y="-86.9" font-family="sans" font-size="12.00" fill="#c4c7c7">Fundamental polynomials of Lagrange</text>
</a>
</g>
</g>
<!-- Kronecker Delta&#45;&gt;Fundamental polynomials of Lagrange -->
<g id="edge15" class="edge">
<title>Kronecker Delta&#45;&gt;Fundamental polynomials of Lagrange</title>
<path fill="none" stroke="#ffffff" d="M951.56,-133.67C951.56,-125.05 951.56,-115.79 951.56,-108.1"/>
<polygon fill="#ffffff" stroke="#ffffff" points="948.06,-133.7 951.56,-143.7 955.06,-133.7 948.06,-133.7"/>
</g>
<!-- Lagrange Interpolation Problem -->
<g id="node15" class="node">
<title>Lagrange Interpolation Problem</title>
<g id="a_node15"><a xlink:href="../Lagrange Interpolation Problem.html" xlink:title="Lagrange Interpolation Problem" target="_parent">
<ellipse fill="#273434" stroke="#b75867" cx="1539.56" cy="-90" rx="122.5" ry="18"/>
<text text-anchor="middle" x="1539.56" y="-86.9" font-family="sans" font-size="12.00" fill="#c4c7c7">Lagrange Interpolation Problem</text>
</a>
</g>
</g>
<!-- Kronecker Delta&#45;&gt;Lagrange Interpolation Problem -->
<g id="edge16" class="edge">
<title>Kronecker Delta&#45;&gt;Lagrange Interpolation Problem</title>
<path fill="none" stroke="#ffffff" d="M1015.16,-143.88C1188.34,-113.16 1236.02,-126.88 1407.56,-108 1422.03,-106.41 1437.37,-104.57 1452.28,-102.7"/>
<polygon fill="#ffffff" stroke="#ffffff" points="1014.42,-140.46 1005.2,-145.67 1015.66,-147.35 1014.42,-140.46"/>
</g>
<!-- Formula of Lagrange for Interpolation -->
<g id="node16" class="node">
<title>Formula of Lagrange for Interpolation</title>
<g id="a_node16"><a xlink:href="../Formula of Lagrange for Interpolation.html" xlink:title="Formula of Lagrange for Interpolation" target="_parent">
<ellipse fill="#273434" stroke="#b75867" cx="1256.56" cy="-90" rx="142.4" ry="18"/>
<text text-anchor="middle" x="1256.56" y="-86.9" font-family="sans" font-size="12.00" fill="#c4c7c7">Formula of Lagrange for Interpolation</text>
</a>
</g>
</g>
<!-- Kronecker Delta&#45;&gt;Formula of Lagrange for Interpolation -->
<g id="edge17" class="edge">
<title>Kronecker Delta&#45;&gt;Formula of Lagrange for Interpolation</title>
<path fill="none" stroke="#ffffff" d="M1015.28,-143.63C1077.5,-128.47 1138.78,-115.22 1184.83,-105.61"/>
<polygon fill="#ffffff" stroke="#ffffff" points="1014.16,-140.3 1005.28,-146.08 1015.83,-147.1 1014.16,-140.3"/>
</g>
<!-- Fundamental Theorem of Algebra&#45;&gt;Lagrange Interpolation Problem -->
<g id="edge19" class="edge">
<title>Fundamental Theorem of Algebra&#45;&gt;Lagrange Interpolation Problem</title>
<path fill="none" stroke="#ffffff" d="M1237.7,-142.29C1308.69,-130.23 1399.22,-114.85 1462.54,-104.09"/>
<polygon fill="#ffffff" stroke="#ffffff" points="1237.09,-138.84 1227.82,-143.97 1238.27,-145.74 1237.09,-138.84"/>
</g>
<!-- Recurrent Equations -->
<g id="node17" class="node">
<title>Recurrent Equations</title>
<g id="a_node17"><a xlink:href="../Recurrent Equations.html" xlink:title="Recurrent Equations" target="_parent">
<ellipse fill="#273434" stroke="#b75867" cx="1760.56" cy="-90" rx="80.78" ry="18"/>
<text text-anchor="middle" x="1760.56" y="-86.9" font-family="sans" font-size="12.00" fill="#c4c7c7">Recurrent Equations</text>
</a>
</g>
</g>
<!-- Fundamental Theorem of Algebra&#45;&gt;Recurrent Equations -->
<g id="edge18" class="edge">
<title>Fundamental Theorem of Algebra&#45;&gt;Recurrent Equations</title>
<path fill="none" stroke="#ffffff" d="M1242.32,-143.97C1433.79,-122.25 1484.8,-133.58 1671.56,-108 1682,-106.57 1693.08,-104.72 1703.73,-102.78"/>
<polygon fill="#ffffff" stroke="#ffffff" points="1241.74,-140.51 1232.2,-145.13 1242.54,-147.46 1241.74,-140.51"/>
</g>
</g>
</svg>
