<?xml version="1.0" encoding="UTF-8" standalone="no"?>
<!DOCTYPE svg PUBLIC "-//W3C//DTD SVG 1.1//EN"
 "http://www.w3.org/Graphics/SVG/1.1/DTD/svg11.dtd">
<!-- Generated by graphviz version 2.44.0 (0)
 -->
<!-- Title: Logical Operators Pages: 1 -->
<svg width="158pt" height="116pt"
 viewBox="0.00 0.00 158.20 116.00" xmlns="http://www.w3.org/2000/svg" xmlns:xlink="http://www.w3.org/1999/xlink">
<g id="page0,1_graph0" class="graph" transform="scale(1 1) rotate(0) translate(4 112)">
<title>Logical Operators</title>
<polygon fill="#132020" stroke="transparent" points="-4,4 -4,-112 154.2,-112 154.2,4 -4,4"/>
<!-- Logical Operators -->
<g id="node1" class="node">
<title>Logical Operators</title>
<g id="a_node1"><a xlink:href="../Logical Operators.html" xlink:title="Logical Operators" target="_parent">
<path fill="#273434" stroke="#b75867" d="M121.1,-108C121.1,-108 29.1,-108 29.1,-108 23.1,-108 17.1,-102 17.1,-96 17.1,-96 17.1,-84 17.1,-84 17.1,-78 23.1,-72 29.1,-72 29.1,-72 121.1,-72 121.1,-72 127.1,-72 133.1,-78 133.1,-84 133.1,-84 133.1,-96 133.1,-96 133.1,-102 127.1,-108 121.1,-108"/>
<text text-anchor="middle" x="75.1" y="-86.9" font-family="sans" font-size="12.00" fill="#c4c7c7">Logical Operators</text>
</a>
</g>
</g>
<!-- Discrete Structures -->
<g id="node2" class="node">
<title>Discrete Structures</title>
<g id="a_node2"><a xlink:href="../Discrete Structures.html" xlink:title="Discrete Structures" target="_parent">
<ellipse fill="#273434" stroke="#b75867" cx="75.1" cy="-18" rx="75.2" ry="18"/>
<text text-anchor="middle" x="75.1" y="-14.9" font-family="sans" font-size="12.00" fill="#c4c7c7">Discrete Structures</text>
</a>
</g>
</g>
<!-- Logical Operators&#45;&gt;Discrete Structures -->
<g id="edge1" class="edge">
<title>Logical Operators&#45;&gt;Discrete Structures</title>
<path fill="none" stroke="#ffffff" d="M75.1,-61.67C75.1,-53.05 75.1,-43.79 75.1,-36.1"/>
<polygon fill="#ffffff" stroke="#ffffff" points="71.6,-61.7 75.1,-71.7 78.6,-61.7 71.6,-61.7"/>
</g>
</g>
</svg>
