<?xml version="1.0" encoding="UTF-8" standalone="no"?>
<!DOCTYPE svg PUBLIC "-//W3C//DTD SVG 1.1//EN"
 "http://www.w3.org/Graphics/SVG/1.1/DTD/svg11.dtd">
<!-- Generated by graphviz version 2.44.0 (0)
 -->
<!-- Title: Logic Programming Pages: 1 -->
<svg width="152pt" height="116pt"
 viewBox="0.00 0.00 152.05 116.00" xmlns="http://www.w3.org/2000/svg" xmlns:xlink="http://www.w3.org/1999/xlink">
<g id="page0,1_graph0" class="graph" transform="scale(1 1) rotate(0) translate(4 112)">
<title>Logic Programming</title>
<polygon fill="#132020" stroke="transparent" points="-4,4 -4,-112 148.05,-112 148.05,4 -4,4"/>
<!-- Logic Programming -->
<g id="node1" class="node">
<title>Logic Programming</title>
<g id="a_node1"><a xlink:href="../Logic Programming.html" xlink:title="Logic Programming" target="_parent">
<path fill="#273434" stroke="#b75867" d="M123.02,-108C123.02,-108 21.02,-108 21.02,-108 15.02,-108 9.02,-102 9.02,-96 9.02,-96 9.02,-84 9.02,-84 9.02,-78 15.02,-72 21.02,-72 21.02,-72 123.02,-72 123.02,-72 129.02,-72 135.02,-78 135.02,-84 135.02,-84 135.02,-96 135.02,-96 135.02,-102 129.02,-108 123.02,-108"/>
<text text-anchor="middle" x="72.02" y="-86.9" font-family="sans" font-size="12.00" fill="#c4c7c7">Logic Programming</text>
</a>
</g>
</g>
<!-- Knowledege Base -->
<g id="node2" class="node">
<title>Knowledege Base</title>
<g id="a_node2"><a xlink:href="../Knowledege Base.html" xlink:title="Knowledege Base" target="_parent">
<ellipse fill="#273434" stroke="#b75867" cx="72.02" cy="-18" rx="72.05" ry="18"/>
<text text-anchor="middle" x="72.02" y="-14.9" font-family="sans" font-size="12.00" fill="#c4c7c7">Knowledege Base</text>
</a>
</g>
</g>
<!-- Logic Programming&#45;&gt;Knowledege Base -->
<g id="edge1" class="edge">
<title>Logic Programming&#45;&gt;Knowledege Base</title>
<path fill="none" stroke="#ffffff" d="M72.02,-61.67C72.02,-53.05 72.02,-43.79 72.02,-36.1"/>
<polygon fill="#ffffff" stroke="#ffffff" points="68.52,-61.7 72.02,-71.7 75.52,-61.7 68.52,-61.7"/>
</g>
</g>
</svg>
