<?xml version="1.0" encoding="UTF-8" standalone="no"?>
<!DOCTYPE svg PUBLIC "-//W3C//DTD SVG 1.1//EN"
 "http://www.w3.org/Graphics/SVG/1.1/DTD/svg11.dtd">
<!-- Generated by graphviz version 2.44.0 (0)
 -->
<!-- Title: Matrix Pages: 1 -->
<svg width="455pt" height="116pt"
 viewBox="0.00 0.00 454.89 116.00" xmlns="http://www.w3.org/2000/svg" xmlns:xlink="http://www.w3.org/1999/xlink">
<g id="page0,1_graph0" class="graph" transform="scale(1 1) rotate(0) translate(4 112)">
<title>Matrix</title>
<polygon fill="#132020" stroke="transparent" points="-4,4 -4,-112 450.89,-112 450.89,4 -4,4"/>
<!-- Matrix -->
<g id="node1" class="node">
<title>Matrix</title>
<g id="a_node1"><a xlink:href="../Matrix.html" xlink:title="Matrix" target="_parent">
<path fill="#273434" stroke="#b75867" d="M247.56,-108C247.56,-108 217.56,-108 217.56,-108 211.56,-108 205.56,-102 205.56,-96 205.56,-96 205.56,-84 205.56,-84 205.56,-78 211.56,-72 217.56,-72 217.56,-72 247.56,-72 247.56,-72 253.56,-72 259.56,-78 259.56,-84 259.56,-84 259.56,-96 259.56,-96 259.56,-102 253.56,-108 247.56,-108"/>
<text text-anchor="middle" x="232.56" y="-86.9" font-family="sans" font-size="12.00" fill="#c4c7c7">Matrix</text>
</a>
</g>
</g>
<!-- Reflexive Closure -->
<g id="node2" class="node">
<title>Reflexive Closure</title>
<g id="a_node2"><a xlink:href="../Reflexive Closure.html" xlink:title="Reflexive Closure" target="_parent">
<ellipse fill="#273434" stroke="#b75867" cx="69.56" cy="-18" rx="69.62" ry="18"/>
<text text-anchor="middle" x="69.56" y="-14.9" font-family="sans" font-size="12.00" fill="#c4c7c7">Reflexive Closure</text>
</a>
</g>
</g>
<!-- Matrix&#45;&gt;Reflexive Closure -->
<g id="edge1" class="edge">
<title>Matrix&#45;&gt;Reflexive Closure</title>
<path fill="none" stroke="#ffffff" d="M195.99,-73.3C168.48,-61.48 131.02,-45.39 104.03,-33.8"/>
<polygon fill="#ffffff" stroke="#ffffff" points="194.71,-76.55 205.28,-77.28 197.47,-70.12 194.71,-76.55"/>
</g>
<!-- Symmetric Closure -->
<g id="node3" class="node">
<title>Symmetric Closure</title>
<g id="a_node3"><a xlink:href="../Symmetric Closure.html" xlink:title="Symmetric Closure" target="_parent">
<ellipse fill="#273434" stroke="#b75867" cx="232.56" cy="-18" rx="75.94" ry="18"/>
<text text-anchor="middle" x="232.56" y="-14.9" font-family="sans" font-size="12.00" fill="#c4c7c7">Symmetric Closure</text>
</a>
</g>
</g>
<!-- Matrix&#45;&gt;Symmetric Closure -->
<g id="edge2" class="edge">
<title>Matrix&#45;&gt;Symmetric Closure</title>
<path fill="none" stroke="#ffffff" d="M232.56,-61.67C232.56,-53.05 232.56,-43.79 232.56,-36.1"/>
<polygon fill="#ffffff" stroke="#ffffff" points="229.06,-61.7 232.56,-71.7 236.06,-61.7 229.06,-61.7"/>
</g>
<!-- Linear Algebra -->
<g id="node4" class="node">
<title>Linear Algebra</title>
<g id="a_node4"><a xlink:href="../Linear Algebra.html" xlink:title="Linear Algebra" target="_parent">
<ellipse fill="#273434" stroke="#b75867" cx="386.56" cy="-18" rx="60.16" ry="18"/>
<text text-anchor="middle" x="386.56" y="-14.9" font-family="sans" font-size="12.00" fill="#c4c7c7">Linear Algebra</text>
</a>
</g>
</g>
<!-- Matrix&#45;&gt;Linear Algebra -->
<g id="edge3" class="edge">
<title>Matrix&#45;&gt;Linear Algebra</title>
<path fill="none" stroke="#ffffff" d="M268.93,-72.47C295.04,-60.6 329.89,-44.76 354.87,-33.4"/>
<polygon fill="#ffffff" stroke="#ffffff" points="267.39,-69.32 259.74,-76.65 270.29,-75.69 267.39,-69.32"/>
</g>
</g>
</svg>
