<?xml version="1.0" encoding="UTF-8" standalone="no"?>
<!DOCTYPE svg PUBLIC "-//W3C//DTD SVG 1.1//EN"
 "http://www.w3.org/Graphics/SVG/1.1/DTD/svg11.dtd">
<!-- Generated by graphviz version 2.44.0 (0)
 -->
<!-- Title: Metric Criteria Pages: 1 -->
<svg width="268pt" height="116pt"
 viewBox="0.00 0.00 268.18 116.00" xmlns="http://www.w3.org/2000/svg" xmlns:xlink="http://www.w3.org/1999/xlink">
<g id="page0,1_graph0" class="graph" transform="scale(1 1) rotate(0) translate(4 112)">
<title>Metric Criteria</title>
<polygon fill="#132020" stroke="transparent" points="-4,4 -4,-112 264.18,-112 264.18,4 -4,4"/>
<!-- Metric Criteria -->
<g id="node1" class="node">
<title>Metric Criteria</title>
<g id="a_node1"><a xlink:title="Metric Criteria">
<path fill="#273434" stroke="#b75867" d="M131.5,-108C131.5,-108 60.5,-108 60.5,-108 54.5,-108 48.5,-102 48.5,-96 48.5,-96 48.5,-84 48.5,-84 48.5,-78 54.5,-72 60.5,-72 60.5,-72 131.5,-72 131.5,-72 137.5,-72 143.5,-78 143.5,-84 143.5,-84 143.5,-96 143.5,-96 143.5,-102 137.5,-108 131.5,-108"/>
<text text-anchor="middle" x="96" y="-86.9" font-family="sans" font-size="12.00" fill="#c4c7c7">Metric Criteria</text>
</a>
</g>
</g>
<!-- Metric -->
<g id="node2" class="node">
<title>Metric</title>
<g id="a_node2"><a xlink:title="Metric">
<path fill="#273434" stroke="#b75867" d="M42,-36C42,-36 12,-36 12,-36 6,-36 0,-30 0,-24 0,-24 0,-12 0,-12 0,-6 6,0 12,0 12,0 42,0 42,0 48,0 54,-6 54,-12 54,-12 54,-24 54,-24 54,-30 48,-36 42,-36"/>
<text text-anchor="middle" x="27" y="-14.9" font-family="sans" font-size="12.00" fill="#c4c7c7">Metric</text>
</a>
</g>
</g>
<!-- Metric Criteria&#45;&gt;Metric -->
<g id="edge1" class="edge">
<title>Metric Criteria&#45;&gt;Metric</title>
<path fill="none" stroke="#b75867" d="M78.94,-71.7C70.5,-63.14 60.18,-52.66 50.96,-43.3"/>
<polygon fill="#b75867" stroke="#b75867" points="53.37,-40.77 43.86,-36.1 48.39,-45.68 53.37,-40.77"/>
</g>
<!-- Function Approximation -->
<g id="node3" class="node">
<title>Function Approximation</title>
<g id="a_node3"><a xlink:title="Function Approximation">
<ellipse fill="#273434" stroke="#b75867" cx="166" cy="-18" rx="94.37" ry="18"/>
<text text-anchor="middle" x="166" y="-14.9" font-family="sans" font-size="12.00" fill="#c4c7c7">Function Approximation</text>
</a>
</g>
</g>
<!-- Metric Criteria&#45;&gt;Function Approximation -->
<g id="edge2" class="edge">
<title>Metric Criteria&#45;&gt;Function Approximation</title>
<path fill="none" stroke="#ffffff" d="M120.52,-64.48C129.89,-55.11 140.36,-44.64 148.9,-36.1"/>
<polygon fill="#ffffff" stroke="#ffffff" points="117.9,-62.15 113.3,-71.7 122.85,-67.1 117.9,-62.15"/>
</g>
</g>
</svg>
