<?xml version="1.0" encoding="UTF-8" standalone="no"?>
<!DOCTYPE svg PUBLIC "-//W3C//DTD SVG 1.1//EN"
 "http://www.w3.org/Graphics/SVG/1.1/DTD/svg11.dtd">
<!-- Generated by graphviz version 2.44.0 (0)
 -->
<!-- Title: Metric Pages: 1 -->
<svg width="125pt" height="116pt"
 viewBox="0.00 0.00 124.96 116.00" xmlns="http://www.w3.org/2000/svg" xmlns:xlink="http://www.w3.org/1999/xlink">
<g id="page0,1_graph0" class="graph" transform="scale(1 1) rotate(0) translate(4 112)">
<title>Metric</title>
<polygon fill="#132020" stroke="transparent" points="-4,4 -4,-112 120.96,-112 120.96,4 -4,4"/>
<!-- Metric -->
<g id="node1" class="node">
<title>Metric</title>
<g id="a_node1"><a xlink:href="../Metric.html" xlink:title="Metric" target="_parent">
<path fill="#273434" stroke="#b75867" d="M73.48,-108C73.48,-108 43.48,-108 43.48,-108 37.48,-108 31.48,-102 31.48,-96 31.48,-96 31.48,-84 31.48,-84 31.48,-78 37.48,-72 43.48,-72 43.48,-72 73.48,-72 73.48,-72 79.48,-72 85.48,-78 85.48,-84 85.48,-84 85.48,-96 85.48,-96 85.48,-102 79.48,-108 73.48,-108"/>
<text text-anchor="middle" x="58.48" y="-86.9" font-family="sans" font-size="12.00" fill="#c4c7c7">Metric</text>
</a>
</g>
</g>
<!-- Metric Criteria -->
<g id="node2" class="node">
<title>Metric Criteria</title>
<g id="a_node2"><a xlink:href="../Metric Criteria.html" xlink:title="Metric Criteria" target="_parent">
<ellipse fill="#273434" stroke="#b75867" cx="58.48" cy="-18" rx="58.46" ry="18"/>
<text text-anchor="middle" x="58.48" y="-14.9" font-family="sans" font-size="12.00" fill="#c4c7c7">Metric Criteria</text>
</a>
</g>
</g>
<!-- Metric&#45;&gt;Metric Criteria -->
<g id="edge1" class="edge">
<title>Metric&#45;&gt;Metric Criteria</title>
<path fill="none" stroke="#ffffff" d="M58.48,-61.67C58.48,-53.05 58.48,-43.79 58.48,-36.1"/>
<polygon fill="#ffffff" stroke="#ffffff" points="54.98,-61.7 58.48,-71.7 61.98,-61.7 54.98,-61.7"/>
</g>
</g>
</svg>
