<?xml version="1.0" encoding="UTF-8" standalone="no"?>
<!DOCTYPE svg PUBLIC "-//W3C//DTD SVG 1.1//EN"
 "http://www.w3.org/Graphics/SVG/1.1/DTD/svg11.dtd">
<!-- Generated by graphviz version 2.44.0 (0)
 -->
<!-- Title: Numeric Methods Pages: 1 -->
<svg width="1347pt" height="260pt"
 viewBox="0.00 0.00 1347.35 260.00" xmlns="http://www.w3.org/2000/svg" xmlns:xlink="http://www.w3.org/1999/xlink">
<g id="page0,1_graph0" class="graph" transform="scale(1 1) rotate(0) translate(4 256)">
<title>Numeric Methods</title>
<polygon fill="#132020" stroke="transparent" points="-4,4 -4,-256 1343.35,-256 1343.35,4 -4,4"/>
<!-- Numeric Methods -->
<g id="node1" class="node">
<title>Numeric Methods</title>
<g id="a_node1"><a xlink:href="../Numeric Methods.html" xlink:title="Numeric Methods" target="_parent">
<path fill="#273434" stroke="#b75867" d="M1047.35,-252C1047.35,-252 955.35,-252 955.35,-252 949.35,-252 943.35,-246 943.35,-240 943.35,-240 943.35,-228 943.35,-228 943.35,-222 949.35,-216 955.35,-216 955.35,-216 1047.35,-216 1047.35,-216 1053.35,-216 1059.35,-222 1059.35,-228 1059.35,-228 1059.35,-240 1059.35,-240 1059.35,-246 1053.35,-252 1047.35,-252"/>
<text text-anchor="middle" x="1001.35" y="-230.9" font-family="sans" font-size="12.00" fill="#c4c7c7">Numeric Methods</text>
</a>
</g>
</g>
<!-- Lagrange Interpolation -->
<g id="node2" class="node">
<title>Lagrange Interpolation</title>
<g id="a_node2"><a xlink:href="../Lagrange Interpolation.html" xlink:title="Lagrange Interpolation" target="_parent">
<path fill="#273434" stroke="#b75867" d="M652.85,-180C652.85,-180 529.85,-180 529.85,-180 523.85,-180 517.85,-174 517.85,-168 517.85,-168 517.85,-156 517.85,-156 517.85,-150 523.85,-144 529.85,-144 529.85,-144 652.85,-144 652.85,-144 658.85,-144 664.85,-150 664.85,-156 664.85,-156 664.85,-168 664.85,-168 664.85,-174 658.85,-180 652.85,-180"/>
<text text-anchor="middle" x="591.35" y="-158.9" font-family="sans" font-size="12.00" fill="#c4c7c7">Lagrange Interpolation</text>
</a>
</g>
</g>
<!-- Numeric Methods&#45;&gt;Lagrange Interpolation -->
<g id="edge1" class="edge">
<title>Numeric Methods&#45;&gt;Lagrange Interpolation</title>
<path fill="none" stroke="#b75867" d="M943.04,-223.05C872.97,-211.08 754.89,-190.92 675.08,-177.3"/>
<polygon fill="#b75867" stroke="#b75867" points="675.5,-173.82 665.06,-175.58 674.33,-180.72 675.5,-173.82"/>
</g>
<!-- Function Approximation -->
<g id="node4" class="node">
<title>Function Approximation</title>
<g id="a_node4"><a xlink:href="../Function Approximation.html" xlink:title="Function Approximation" target="_parent">
<path fill="#273434" stroke="#b75867" d="M1065.85,-180C1065.85,-180 936.85,-180 936.85,-180 930.85,-180 924.85,-174 924.85,-168 924.85,-168 924.85,-156 924.85,-156 924.85,-150 930.85,-144 936.85,-144 936.85,-144 1065.85,-144 1065.85,-144 1071.85,-144 1077.85,-150 1077.85,-156 1077.85,-156 1077.85,-168 1077.85,-168 1077.85,-174 1071.85,-180 1065.85,-180"/>
<text text-anchor="middle" x="1001.35" y="-158.9" font-family="sans" font-size="12.00" fill="#c4c7c7">Function Approximation</text>
</a>
</g>
</g>
<!-- Numeric Methods&#45;&gt;Function Approximation -->
<g id="edge2" class="edge">
<title>Numeric Methods&#45;&gt;Function Approximation</title>
<path fill="none" stroke="#b75867" d="M1001.35,-215.7C1001.35,-207.98 1001.35,-198.71 1001.35,-190.11"/>
<polygon fill="#b75867" stroke="#b75867" points="1004.85,-190.1 1001.35,-180.1 997.85,-190.1 1004.85,-190.1"/>
</g>
<!-- Subjects -->
<g id="node9" class="node">
<title>Subjects</title>
<g id="a_node9"><a xlink:href="../Subjects.html" xlink:title="Subjects" target="_parent">
<ellipse fill="#273434" stroke="#b75867" cx="1136.35" cy="-162" rx="40.03" ry="18"/>
<text text-anchor="middle" x="1136.35" y="-158.9" font-family="sans" font-size="12.00" fill="#c4c7c7">Subjects</text>
</a>
</g>
</g>
<!-- Numeric Methods&#45;&gt;Subjects -->
<g id="edge8" class="edge">
<title>Numeric Methods&#45;&gt;Subjects</title>
<path fill="none" stroke="#ffffff" d="M1043.54,-211.12C1065.61,-199.68 1091.9,-186.05 1110.86,-176.22"/>
<polygon fill="#ffffff" stroke="#ffffff" points="1041.64,-208.17 1034.38,-215.88 1044.86,-214.38 1041.64,-208.17"/>
</g>
<!-- Lagrange Interpolation Problem -->
<g id="node3" class="node">
<title>Lagrange Interpolation Problem</title>
<g id="a_node3"><a xlink:href="../Lagrange Interpolation Problem.html" xlink:title="Lagrange Interpolation Problem" target="_parent">
<path fill="#273434" stroke="#b75867" d="M408.85,-108C408.85,-108 233.85,-108 233.85,-108 227.85,-108 221.85,-102 221.85,-96 221.85,-96 221.85,-84 221.85,-84 221.85,-78 227.85,-72 233.85,-72 233.85,-72 408.85,-72 408.85,-72 414.85,-72 420.85,-78 420.85,-84 420.85,-84 420.85,-96 420.85,-96 420.85,-102 414.85,-108 408.85,-108"/>
<text text-anchor="middle" x="321.35" y="-86.9" font-family="sans" font-size="12.00" fill="#c4c7c7">Lagrange Interpolation Problem</text>
</a>
</g>
</g>
<!-- Lagrange Interpolation&#45;&gt;Lagrange Interpolation Problem -->
<g id="edge3" class="edge">
<title>Lagrange Interpolation&#45;&gt;Lagrange Interpolation Problem</title>
<path fill="none" stroke="#b75867" d="M525.65,-143.97C486.86,-133.91 437.59,-121.14 397.16,-110.65"/>
<polygon fill="#b75867" stroke="#b75867" points="397.91,-107.23 387.35,-108.11 396.15,-114.01 397.91,-107.23"/>
</g>
<!-- Extrapolation -->
<g id="node10" class="node">
<title>Extrapolation</title>
<g id="a_node10"><a xlink:href="../Extrapolation.html" xlink:title="Extrapolation" target="_parent">
<ellipse fill="#273434" stroke="#b75867" cx="496.35" cy="-90" rx="57.5" ry="18"/>
<text text-anchor="middle" x="496.35" y="-86.9" font-family="sans" font-size="12.00" fill="#c4c7c7">Extrapolation</text>
</a>
</g>
</g>
<!-- Lagrange Interpolation&#45;&gt;Extrapolation -->
<g id="edge9" class="edge">
<title>Lagrange Interpolation&#45;&gt;Extrapolation</title>
<path fill="none" stroke="#ffffff" d="M559.64,-137.63C545.94,-127.54 530.26,-115.99 517.94,-106.91"/>
<polygon fill="#ffffff" stroke="#ffffff" points="557.74,-140.58 567.87,-143.7 561.89,-134.95 557.74,-140.58"/>
</g>
<!-- Evaluating Interpolation Error -->
<g id="node11" class="node">
<title>Evaluating Interpolation Error</title>
<g id="a_node11"><a xlink:href="../Evaluating Interpolation Error.html" xlink:title="Evaluating Interpolation Error" target="_parent">
<ellipse fill="#273434" stroke="#b75867" cx="685.35" cy="-90" rx="113.77" ry="18"/>
<text text-anchor="middle" x="685.35" y="-86.9" font-family="sans" font-size="12.00" fill="#c4c7c7">Evaluating Interpolation Error</text>
</a>
</g>
</g>
<!-- Lagrange Interpolation&#45;&gt;Evaluating Interpolation Error -->
<g id="edge10" class="edge">
<title>Lagrange Interpolation&#45;&gt;Evaluating Interpolation Error</title>
<path fill="none" stroke="#ffffff" d="M622.86,-137.54C635.91,-127.82 650.76,-116.76 662.71,-107.86"/>
<polygon fill="#ffffff" stroke="#ffffff" points="620.52,-134.92 614.59,-143.7 624.7,-140.53 620.52,-134.92"/>
</g>
<!-- Lagrange Interpolation Polynomial -->
<g id="node12" class="node">
<title>Lagrange Interpolation Polynomial</title>
<g id="a_node12"><a xlink:href="../Lagrange Interpolation Polynomial.html" xlink:title="Lagrange Interpolation Polynomial" target="_parent">
<ellipse fill="#273434" stroke="#b75867" cx="132.35" cy="-18" rx="132.2" ry="18"/>
<text text-anchor="middle" x="132.35" y="-14.9" font-family="sans" font-size="12.00" fill="#c4c7c7">Lagrange Interpolation Polynomial</text>
</a>
</g>
</g>
<!-- Lagrange Interpolation Problem&#45;&gt;Lagrange Interpolation Polynomial -->
<g id="edge11" class="edge">
<title>Lagrange Interpolation Problem&#45;&gt;Lagrange Interpolation Polynomial</title>
<path fill="none" stroke="#ffffff" d="M265.63,-68.36C236.96,-57.74 202.52,-44.99 175.84,-35.11"/>
<polygon fill="#ffffff" stroke="#ffffff" points="264.52,-71.68 275.12,-71.88 266.95,-65.12 264.52,-71.68"/>
</g>
<!-- The Lagrange Interpolation Polynomial of a Polynomial is itself -->
<g id="node13" class="node">
<title>The Lagrange Interpolation Polynomial of a Polynomial is itself</title>
<g id="a_node13"><a xlink:href="../The Lagrange Interpolation Polynomial of a Polynomial is itself.html" xlink:title="The Lagrange Interpolation Polynomial of a Polynomial is itself" target="_parent">
<ellipse fill="#273434" stroke="#b75867" cx="511.35" cy="-18" rx="229" ry="18"/>
<text text-anchor="middle" x="511.35" y="-14.9" font-family="sans" font-size="12.00" fill="#c4c7c7">The Lagrange Interpolation Polynomial of a Polynomial is itself</text>
</a>
</g>
</g>
<!-- Lagrange Interpolation Problem&#45;&gt;The Lagrange Interpolation Polynomial of a Polynomial is itself -->
<g id="edge12" class="edge">
<title>Lagrange Interpolation Problem&#45;&gt;The Lagrange Interpolation Polynomial of a Polynomial is itself</title>
<path fill="none" stroke="#ffffff" d="M377.56,-68.29C405.76,-57.9 439.48,-45.48 466.01,-35.71"/>
<polygon fill="#ffffff" stroke="#ffffff" points="376,-65.13 367.83,-71.88 378.42,-71.7 376,-65.13"/>
</g>
<!-- Metric Criteria -->
<g id="node5" class="node">
<title>Metric Criteria</title>
<g id="a_node5"><a xlink:href="../Metric Criteria.html" xlink:title="Metric Criteria" target="_parent">
<path fill="#273434" stroke="#b75867" d="M899.85,-108C899.85,-108 828.85,-108 828.85,-108 822.85,-108 816.85,-102 816.85,-96 816.85,-96 816.85,-84 816.85,-84 816.85,-78 822.85,-72 828.85,-72 828.85,-72 899.85,-72 899.85,-72 905.85,-72 911.85,-78 911.85,-84 911.85,-84 911.85,-96 911.85,-96 911.85,-102 905.85,-108 899.85,-108"/>
<text text-anchor="middle" x="864.35" y="-86.9" font-family="sans" font-size="12.00" fill="#c4c7c7">Metric Criteria</text>
</a>
</g>
</g>
<!-- Function Approximation&#45;&gt;Metric Criteria -->
<g id="edge4" class="edge">
<title>Function Approximation&#45;&gt;Metric Criteria</title>
<path fill="none" stroke="#b75867" d="M967.84,-143.88C949.51,-134.51 926.61,-122.81 907.02,-112.8"/>
<polygon fill="#b75867" stroke="#b75867" points="908.49,-109.62 897.99,-108.19 905.31,-115.86 908.49,-109.62"/>
</g>
<!-- Interpolation Criterion -->
<g id="node6" class="node">
<title>Interpolation Criterion</title>
<g id="a_node6"><a xlink:href="../Interpolation Criterion.html" xlink:title="Interpolation Criterion" target="_parent">
<path fill="#273434" stroke="#b75867" d="M1060.85,-108C1060.85,-108 941.85,-108 941.85,-108 935.85,-108 929.85,-102 929.85,-96 929.85,-96 929.85,-84 929.85,-84 929.85,-78 935.85,-72 941.85,-72 941.85,-72 1060.85,-72 1060.85,-72 1066.85,-72 1072.85,-78 1072.85,-84 1072.85,-84 1072.85,-96 1072.85,-96 1072.85,-102 1066.85,-108 1060.85,-108"/>
<text text-anchor="middle" x="1001.35" y="-86.9" font-family="sans" font-size="12.00" fill="#c4c7c7">Interpolation Criterion</text>
</a>
</g>
</g>
<!-- Function Approximation&#45;&gt;Interpolation Criterion -->
<g id="edge5" class="edge">
<title>Function Approximation&#45;&gt;Interpolation Criterion</title>
<path fill="none" stroke="#b75867" d="M1001.35,-143.7C1001.35,-135.98 1001.35,-126.71 1001.35,-118.11"/>
<polygon fill="#b75867" stroke="#b75867" points="1004.85,-118.1 1001.35,-108.1 997.85,-118.1 1004.85,-118.1"/>
</g>
<!-- Simple Function -->
<g id="node7" class="node">
<title>Simple Function</title>
<g id="a_node7"><a xlink:href="../Simple Function.html" xlink:title="Simple Function" target="_parent">
<path fill="#273434" stroke="#b75867" d="M1189.35,-108C1189.35,-108 1103.35,-108 1103.35,-108 1097.35,-108 1091.35,-102 1091.35,-96 1091.35,-96 1091.35,-84 1091.35,-84 1091.35,-78 1097.35,-72 1103.35,-72 1103.35,-72 1189.35,-72 1189.35,-72 1195.35,-72 1201.35,-78 1201.35,-84 1201.35,-84 1201.35,-96 1201.35,-96 1201.35,-102 1195.35,-108 1189.35,-108"/>
<text text-anchor="middle" x="1146.35" y="-86.9" font-family="sans" font-size="12.00" fill="#c4c7c7">Simple Function</text>
</a>
</g>
</g>
<!-- Function Approximation&#45;&gt;Simple Function -->
<g id="edge6" class="edge">
<title>Function Approximation&#45;&gt;Simple Function</title>
<path fill="none" stroke="#b75867" d="M1036.82,-143.88C1056.47,-134.39 1081.07,-122.51 1101.98,-112.42"/>
<polygon fill="#b75867" stroke="#b75867" points="1103.51,-115.57 1111,-108.07 1100.47,-109.26 1103.51,-115.57"/>
</g>
<!-- Complex Function -->
<g id="node8" class="node">
<title>Complex Function</title>
<g id="a_node8"><a xlink:href="../Complex Function.html" xlink:title="Complex Function" target="_parent">
<path fill="#273434" stroke="#b75867" d="M1327.35,-108C1327.35,-108 1231.35,-108 1231.35,-108 1225.35,-108 1219.35,-102 1219.35,-96 1219.35,-96 1219.35,-84 1219.35,-84 1219.35,-78 1225.35,-72 1231.35,-72 1231.35,-72 1327.35,-72 1327.35,-72 1333.35,-72 1339.35,-78 1339.35,-84 1339.35,-84 1339.35,-96 1339.35,-96 1339.35,-102 1333.35,-108 1327.35,-108"/>
<text text-anchor="middle" x="1279.35" y="-86.9" font-family="sans" font-size="12.00" fill="#c4c7c7">Complex Function</text>
</a>
</g>
</g>
<!-- Function Approximation&#45;&gt;Complex Function -->
<g id="edge7" class="edge">
<title>Function Approximation&#45;&gt;Complex Function</title>
<path fill="none" stroke="#b75867" d="M1069,-143.97C1111.5,-133.27 1166.2,-119.49 1209.17,-108.67"/>
<polygon fill="#b75867" stroke="#b75867" points="1210.14,-112.04 1218.98,-106.2 1208.43,-105.25 1210.14,-112.04"/>
</g>
</g>
</svg>
