<?xml version="1.0" encoding="UTF-8" standalone="no"?>
<!DOCTYPE svg PUBLIC "-//W3C//DTD SVG 1.1//EN"
 "http://www.w3.org/Graphics/SVG/1.1/DTD/svg11.dtd">
<!-- Generated by graphviz version 2.44.0 (0)
 -->
<!-- Title: OOP Pages: 1 -->
<svg width="152pt" height="116pt"
 viewBox="0.00 0.00 152.05 116.00" xmlns="http://www.w3.org/2000/svg" xmlns:xlink="http://www.w3.org/1999/xlink">
<g id="page0,1_graph0" class="graph" transform="scale(1 1) rotate(0) translate(4 112)">
<title>OOP</title>
<polygon fill="#132020" stroke="transparent" points="-4,4 -4,-112 148.05,-112 148.05,4 -4,4"/>
<!-- OOP -->
<g id="node1" class="node">
<title>OOP</title>
<g id="a_node1"><a xlink:href="../OOP.html" xlink:title="OOP" target="_parent">
<path fill="#273434" stroke="#b75867" d="M87.02,-108C87.02,-108 57.02,-108 57.02,-108 51.02,-108 45.02,-102 45.02,-96 45.02,-96 45.02,-84 45.02,-84 45.02,-78 51.02,-72 57.02,-72 57.02,-72 87.02,-72 87.02,-72 93.02,-72 99.02,-78 99.02,-84 99.02,-84 99.02,-96 99.02,-96 99.02,-102 93.02,-108 87.02,-108"/>
<text text-anchor="middle" x="72.02" y="-86.9" font-family="sans" font-size="12.00" fill="#c4c7c7">OOP</text>
</a>
</g>
</g>
<!-- Knowledege Base -->
<g id="node2" class="node">
<title>Knowledege Base</title>
<g id="a_node2"><a xlink:href="../Knowledege Base.html" xlink:title="Knowledege Base" target="_parent">
<ellipse fill="#273434" stroke="#b75867" cx="72.02" cy="-18" rx="72.05" ry="18"/>
<text text-anchor="middle" x="72.02" y="-14.9" font-family="sans" font-size="12.00" fill="#c4c7c7">Knowledege Base</text>
</a>
</g>
</g>
<!-- OOP&#45;&gt;Knowledege Base -->
<g id="edge1" class="edge">
<title>OOP&#45;&gt;Knowledege Base</title>
<path fill="none" stroke="#ffffff" d="M72.02,-61.67C72.02,-53.05 72.02,-43.79 72.02,-36.1"/>
<polygon fill="#ffffff" stroke="#ffffff" points="68.52,-61.7 72.02,-71.7 75.52,-61.7 68.52,-61.7"/>
</g>
</g>
</svg>
