<?xml version="1.0" encoding="UTF-8" standalone="no"?>
<!DOCTYPE svg PUBLIC "-//W3C//DTD SVG 1.1//EN"
 "http://www.w3.org/Graphics/SVG/1.1/DTD/svg11.dtd">
<!-- Generated by graphviz version 2.44.0 (0)
 -->
<!-- Title: Operations Research Pages: 1 -->
<svg width="516pt" height="636pt"
 viewBox="0.00 0.00 516.00 636.00" xmlns="http://www.w3.org/2000/svg" xmlns:xlink="http://www.w3.org/1999/xlink">
<g id="page0,1_graph0" class="graph" transform="scale(1 1) rotate(0) translate(4 632)">
<title>Operations Research</title>
<polygon fill="#132020" stroke="transparent" points="-4,4 -4,-632 512,-632 512,4 -4,4"/>
<!-- Operations Research -->
<g id="node1" class="node">
<title>Operations Research</title>
<g id="a_node1"><a xlink:href="../Operations Research.html" xlink:title="Operations Research" target="_parent">
<path fill="#273434" stroke="#b75867" d="M121,-313C121,-313 12,-313 12,-313 6,-313 0,-307 0,-301 0,-301 0,-289 0,-289 0,-283 6,-277 12,-277 12,-277 121,-277 121,-277 127,-277 133,-283 133,-289 133,-289 133,-301 133,-301 133,-307 127,-313 121,-313"/>
<text text-anchor="middle" x="66.5" y="-291.9" font-family="sans" font-size="12.00" fill="#c4c7c7">Operations Research</text>
</a>
</g>
</g>
<!-- Knowledege Base -->
<g id="node2" class="node">
<title>Knowledege Base</title>
<g id="a_node2"><a xlink:href="../Knowledege Base.html" xlink:title="Knowledege Base" target="_parent">
<path fill="none" stroke="#b75867" d="M246,-313C246,-313 153,-313 153,-313 147,-313 141,-307 141,-301 141,-301 141,-289 141,-289 141,-283 147,-277 153,-277 153,-277 246,-277 246,-277 252,-277 258,-283 258,-289 258,-289 258,-301 258,-301 258,-307 252,-313 246,-313"/>
<text text-anchor="middle" x="199.5" y="-291.9" font-family="sans" font-size="12.00" fill="#c4c7c7">Knowledege Base</text>
</a>
</g>
</g>
<!-- Operations Research&#45;&gt;Knowledege Base -->
<g id="edge1" class="edge">
<title>Operations Research&#45;&gt;Knowledege Base</title>
<path fill="none" stroke="#ffffff" d="M140.18,-295C140.33,-295 140.48,-295 140.63,-295"/>
<polygon fill="#ffffff" stroke="#ffffff" points="143.38,-291.5 133.38,-295 143.38,-298.5 143.38,-291.5"/>
</g>
<!-- Knowledege Base&#45;&gt;Operations Research -->
<g id="edge8" class="edge">
<title>Knowledege Base&#45;&gt;Operations Research</title>
<path fill="none" stroke="#b75867" d="M140.63,-295.75C140.48,-295.75 140.33,-295.75 140.18,-295.75"/>
<polygon fill="#b75867" stroke="#b75867" points="143.38,-292.24 133.38,-295.75 143.39,-299.24 143.38,-292.24"/>
</g>
<!-- Computer Architectures -->
<g id="node3" class="node">
<title>Computer Architectures</title>
<g id="a_node3"><a xlink:href="../Computer Architectures.html" xlink:title="Computer Architectures" target="_parent">
<path fill="#273434" stroke="#b75867" d="M450.5,-628C450.5,-628 323.5,-628 323.5,-628 317.5,-628 311.5,-622 311.5,-616 311.5,-616 311.5,-604 311.5,-604 311.5,-598 317.5,-592 323.5,-592 323.5,-592 450.5,-592 450.5,-592 456.5,-592 462.5,-598 462.5,-604 462.5,-604 462.5,-616 462.5,-616 462.5,-622 456.5,-628 450.5,-628"/>
<text text-anchor="middle" x="387" y="-606.9" font-family="sans" font-size="12.00" fill="#c4c7c7">Computer Architectures</text>
</a>
</g>
</g>
<!-- Knowledege Base&#45;&gt;Computer Architectures -->
<g id="edge2" class="edge">
<title>Knowledege Base&#45;&gt;Computer Architectures</title>
<path fill="none" stroke="#b75867" d="M202,-313.36C207.13,-371.4 225.9,-549.42 266,-588 275.89,-597.51 288.45,-603.62 301.71,-607.44"/>
<polygon fill="#b75867" stroke="#b75867" points="300.91,-610.84 311.46,-609.83 302.58,-604.04 300.91,-610.84"/>
</g>
<!-- Numeric Methods -->
<g id="node4" class="node">
<title>Numeric Methods</title>
<g id="a_node4"><a xlink:href="../Numeric Methods.html" xlink:title="Numeric Methods" target="_parent">
<path fill="#273434" stroke="#b75867" d="M433,-591C433,-591 341,-591 341,-591 335,-591 329,-585 329,-579 329,-579 329,-567 329,-567 329,-561 335,-555 341,-555 341,-555 433,-555 433,-555 439,-555 445,-561 445,-567 445,-567 445,-579 445,-579 445,-585 439,-591 433,-591"/>
<text text-anchor="middle" x="387" y="-569.9" font-family="sans" font-size="12.00" fill="#c4c7c7">Numeric Methods</text>
</a>
</g>
</g>
<!-- Knowledege Base&#45;&gt;Numeric Methods -->
<g id="edge3" class="edge">
<title>Knowledege Base&#45;&gt;Numeric Methods</title>
<path fill="none" stroke="#b75867" d="M202.63,-313.26C209.17,-366.2 230.7,-518.06 266,-551 280.24,-564.29 299.74,-570.87 318.88,-573.85"/>
<polygon fill="#b75867" stroke="#b75867" points="318.46,-577.32 328.82,-575.09 319.33,-570.38 318.46,-577.32"/>
</g>
<!-- Design and Analysis of Algorithms -->
<g id="node5" class="node">
<title>Design and Analysis of Algorithms</title>
<g id="a_node5"><a xlink:href="../Design and Analysis of Algorithms.html" xlink:title="Design and Analysis of Algorithms" target="_parent">
<path fill="#273434" stroke="#b75867" d="M478,-554C478,-554 296,-554 296,-554 290,-554 284,-548 284,-542 284,-542 284,-530 284,-530 284,-524 290,-518 296,-518 296,-518 478,-518 478,-518 484,-518 490,-524 490,-530 490,-530 490,-542 490,-542 490,-548 484,-554 478,-554"/>
<text text-anchor="middle" x="387" y="-532.9" font-family="sans" font-size="12.00" fill="#c4c7c7">Design and Analysis of Algorithms</text>
</a>
</g>
</g>
<!-- Knowledege Base&#45;&gt;Design and Analysis of Algorithms -->
<g id="edge4" class="edge">
<title>Knowledege Base&#45;&gt;Design and Analysis of Algorithms</title>
<path fill="none" stroke="#b75867" d="M200.05,-313.29C200.07,-355.6 206.45,-460.63 266,-514 268.85,-516.55 271.89,-518.86 275.09,-520.93"/>
<polygon fill="#b75867" stroke="#b75867" points="273.46,-524.03 283.89,-525.9 276.9,-517.94 273.46,-524.03"/>
</g>
<!-- Logic Programming -->
<g id="node6" class="node">
<title>Logic Programming</title>
<g id="a_node6"><a xlink:href="../Logic Programming.html" xlink:title="Logic Programming" target="_parent">
<path fill="#273434" stroke="#b75867" d="M438,-517C438,-517 336,-517 336,-517 330,-517 324,-511 324,-505 324,-505 324,-493 324,-493 324,-487 330,-481 336,-481 336,-481 438,-481 438,-481 444,-481 450,-487 450,-493 450,-493 450,-505 450,-505 450,-511 444,-517 438,-517"/>
<text text-anchor="middle" x="387" y="-495.9" font-family="sans" font-size="12.00" fill="#c4c7c7">Logic Programming</text>
</a>
</g>
</g>
<!-- Knowledege Base&#45;&gt;Logic Programming -->
<g id="edge5" class="edge">
<title>Knowledege Base&#45;&gt;Logic Programming</title>
<path fill="none" stroke="#b75867" d="M201.31,-313.01C204.01,-349.93 215.67,-434.32 266,-477 279.3,-488.28 296.46,-494.58 313.62,-497.94"/>
<polygon fill="#b75867" stroke="#b75867" points="313.26,-501.42 323.69,-499.59 314.39,-494.52 313.26,-501.42"/>
</g>
<!-- Data Structures -->
<g id="node7" class="node">
<title>Data Structures</title>
<g id="a_node7"><a xlink:href="../Data Structures.html" xlink:title="Data Structures" target="_parent">
<path fill="#273434" stroke="#b75867" d="M427,-480C427,-480 347,-480 347,-480 341,-480 335,-474 335,-468 335,-468 335,-456 335,-456 335,-450 341,-444 347,-444 347,-444 427,-444 427,-444 433,-444 439,-450 439,-456 439,-456 439,-468 439,-468 439,-474 433,-480 427,-480"/>
<text text-anchor="middle" x="387" y="-458.9" font-family="sans" font-size="12.00" fill="#c4c7c7">Data Structures</text>
</a>
</g>
</g>
<!-- Knowledege Base&#45;&gt;Data Structures -->
<g id="edge6" class="edge">
<title>Knowledege Base&#45;&gt;Data Structures</title>
<path fill="none" stroke="#b75867" d="M203.25,-313.48C208.95,-344.8 225.1,-408 266,-440 282.55,-452.95 304.31,-459.17 324.74,-461.92"/>
<polygon fill="#b75867" stroke="#b75867" points="324.63,-465.43 334.95,-463.04 325.39,-458.47 324.63,-465.43"/>
</g>
<!-- Languages, Automata and Computation -->
<g id="node8" class="node">
<title>Languages, Automata and Computation</title>
<g id="a_node8"><a xlink:href="../Languages, Automata and Computation.html" xlink:title="Languages, Automata and Computation" target="_parent">
<path fill="#273434" stroke="#b75867" d="M496,-443C496,-443 278,-443 278,-443 272,-443 266,-437 266,-431 266,-431 266,-419 266,-419 266,-413 272,-407 278,-407 278,-407 496,-407 496,-407 502,-407 508,-413 508,-419 508,-419 508,-431 508,-431 508,-437 502,-443 496,-443"/>
<text text-anchor="middle" x="387" y="-421.9" font-family="sans" font-size="12.00" fill="#c4c7c7">Languages, Automata and Computation</text>
</a>
</g>
</g>
<!-- Knowledege Base&#45;&gt;Languages, Automata and Computation -->
<g id="edge7" class="edge">
<title>Knowledege Base&#45;&gt;Languages, Automata and Computation</title>
<path fill="none" stroke="#b75867" d="M206.23,-313.21C214.32,-335.95 231.27,-374.66 264.01,-400.87"/>
<polygon fill="#b75867" stroke="#b75867" points="262.07,-403.78 272.19,-406.91 266.23,-398.15 262.07,-403.78"/>
</g>
<!-- Differential Equations -->
<g id="node9" class="node">
<title>Differential Equations</title>
<g id="a_node9"><a xlink:href="../Differential Equations.html" xlink:title="Differential Equations" target="_parent">
<path fill="#273434" stroke="#b75867" d="M444,-406C444,-406 330,-406 330,-406 324,-406 318,-400 318,-394 318,-394 318,-382 318,-382 318,-376 324,-370 330,-370 330,-370 444,-370 444,-370 450,-370 456,-376 456,-382 456,-382 456,-394 456,-394 456,-400 450,-406 444,-406"/>
<text text-anchor="middle" x="387" y="-384.9" font-family="sans" font-size="12.00" fill="#c4c7c7">Differential Equations</text>
</a>
</g>
</g>
<!-- Knowledege Base&#45;&gt;Differential Equations -->
<g id="edge9" class="edge">
<title>Knowledege Base&#45;&gt;Differential Equations</title>
<path fill="none" stroke="#b75867" d="M212.19,-313.26C223.77,-329.77 243.08,-353.38 266,-366 278.74,-373.02 293.27,-377.85 307.73,-381.17"/>
<polygon fill="#b75867" stroke="#b75867" points="307.2,-384.64 317.7,-383.24 308.62,-377.78 307.2,-384.64"/>
</g>
<!-- OOP -->
<g id="node10" class="node">
<title>OOP</title>
<g id="a_node10"><a xlink:href="../OOP.html" xlink:title="OOP" target="_parent">
<path fill="#273434" stroke="#b75867" d="M402,-369C402,-369 372,-369 372,-369 366,-369 360,-363 360,-357 360,-357 360,-345 360,-345 360,-339 366,-333 372,-333 372,-333 402,-333 402,-333 408,-333 414,-339 414,-345 414,-345 414,-357 414,-357 414,-363 408,-369 402,-369"/>
<text text-anchor="middle" x="387" y="-347.9" font-family="sans" font-size="12.00" fill="#c4c7c7">OOP</text>
</a>
</g>
</g>
<!-- Knowledege Base&#45;&gt;OOP -->
<g id="edge10" class="edge">
<title>Knowledege Base&#45;&gt;OOP</title>
<path fill="none" stroke="#b75867" d="M230.65,-313.04C241.49,-318.87 254,-324.89 266,-329 293.23,-338.33 325.36,-343.95 349.52,-347.18"/>
<polygon fill="#b75867" stroke="#b75867" points="349.32,-350.68 359.68,-348.45 350.2,-343.73 349.32,-350.68"/>
</g>
<!-- Discrete Structures -->
<g id="node11" class="node">
<title>Discrete Structures</title>
<g id="a_node11"><a xlink:href="../Discrete Structures.html" xlink:title="Discrete Structures" target="_parent">
<path fill="#273434" stroke="#b75867" d="M436,-332C436,-332 338,-332 338,-332 332,-332 326,-326 326,-320 326,-320 326,-308 326,-308 326,-302 332,-296 338,-296 338,-296 436,-296 436,-296 442,-296 448,-302 448,-308 448,-308 448,-320 448,-320 448,-326 442,-332 436,-332"/>
<text text-anchor="middle" x="387" y="-310.9" font-family="sans" font-size="12.00" fill="#c4c7c7">Discrete Structures</text>
</a>
</g>
</g>
<!-- Knowledege Base&#45;&gt;Discrete Structures -->
<g id="edge11" class="edge">
<title>Knowledege Base&#45;&gt;Discrete Structures</title>
<path fill="none" stroke="#b75867" d="M258.18,-300.91C276.39,-302.77 296.71,-304.85 315.7,-306.8"/>
<polygon fill="#b75867" stroke="#b75867" points="315.49,-310.3 325.79,-307.83 316.2,-303.33 315.49,-310.3"/>
</g>
<!-- Advanced Algebra -->
<g id="node12" class="node">
<title>Advanced Algebra</title>
<g id="a_node12"><a xlink:href="../Advanced Algebra.html" xlink:title="Advanced Algebra" target="_parent">
<path fill="#273434" stroke="#b75867" d="M434.5,-295C434.5,-295 339.5,-295 339.5,-295 333.5,-295 327.5,-289 327.5,-283 327.5,-283 327.5,-271 327.5,-271 327.5,-265 333.5,-259 339.5,-259 339.5,-259 434.5,-259 434.5,-259 440.5,-259 446.5,-265 446.5,-271 446.5,-271 446.5,-283 446.5,-283 446.5,-289 440.5,-295 434.5,-295"/>
<text text-anchor="middle" x="387" y="-273.9" font-family="sans" font-size="12.00" fill="#c4c7c7">Advanced Algebra</text>
</a>
</g>
</g>
<!-- Knowledege Base&#45;&gt;Advanced Algebra -->
<g id="edge12" class="edge">
<title>Knowledege Base&#45;&gt;Advanced Algebra</title>
<path fill="none" stroke="#b75867" d="M258.18,-289.4C276.92,-287.58 297.91,-285.55 317.38,-283.66"/>
<polygon fill="#b75867" stroke="#b75867" points="317.78,-287.14 327.4,-282.69 317.11,-280.17 317.78,-287.14"/>
</g>
<!-- Differential Analysis -->
<g id="node13" class="node">
<title>Differential Analysis</title>
<g id="a_node13"><a xlink:href="../Differential Analysis.html" xlink:title="Differential Analysis" target="_parent">
<path fill="#273434" stroke="#b75867" d="M438.5,-258C438.5,-258 335.5,-258 335.5,-258 329.5,-258 323.5,-252 323.5,-246 323.5,-246 323.5,-234 323.5,-234 323.5,-228 329.5,-222 335.5,-222 335.5,-222 438.5,-222 438.5,-222 444.5,-222 450.5,-228 450.5,-234 450.5,-234 450.5,-246 450.5,-246 450.5,-252 444.5,-258 438.5,-258"/>
<text text-anchor="middle" x="387" y="-236.9" font-family="sans" font-size="12.00" fill="#c4c7c7">Differential Analysis</text>
</a>
</g>
</g>
<!-- Knowledege Base&#45;&gt;Differential Analysis -->
<g id="edge13" class="edge">
<title>Knowledege Base&#45;&gt;Differential Analysis</title>
<path fill="none" stroke="#b75867" d="M232.03,-276.83C242.56,-271.39 254.53,-265.85 266,-262 280.99,-256.97 297.44,-253 313.22,-249.9"/>
<polygon fill="#b75867" stroke="#b75867" points="314.29,-253.26 323.48,-247.99 313.01,-246.38 314.29,-253.26"/>
</g>
<!-- Knowledege Base&#45;&gt;Differential Analysis -->
<g id="edge17" class="edge">
<title>Knowledege Base&#45;&gt;Differential Analysis</title>
<path fill="none" stroke="#b75867" d="M233.7,-276.93C243.82,-271.81 255.14,-266.65 266,-263 280.99,-257.97 297.44,-254 313.22,-250.88"/>
<polygon fill="#b75867" stroke="#b75867" points="314.3,-254.23 323.48,-248.94 313,-247.36 314.3,-254.23"/>
</g>
<!-- Introduction to programming -->
<g id="node14" class="node">
<title>Introduction to programming</title>
<g id="a_node14"><a xlink:href="../Introduction to programming.html" xlink:title="Introduction to programming" target="_parent">
<path fill="#273434" stroke="#b75867" d="M466.5,-221C466.5,-221 307.5,-221 307.5,-221 301.5,-221 295.5,-215 295.5,-209 295.5,-209 295.5,-197 295.5,-197 295.5,-191 301.5,-185 307.5,-185 307.5,-185 466.5,-185 466.5,-185 472.5,-185 478.5,-191 478.5,-197 478.5,-197 478.5,-209 478.5,-209 478.5,-215 472.5,-221 466.5,-221"/>
<text text-anchor="middle" x="387" y="-199.9" font-family="sans" font-size="12.00" fill="#c4c7c7">Introduction to programming</text>
</a>
</g>
</g>
<!-- Knowledege Base&#45;&gt;Introduction to programming -->
<g id="edge14" class="edge">
<title>Knowledege Base&#45;&gt;Introduction to programming</title>
<path fill="none" stroke="#b75867" d="M212.24,-277C223.88,-260.72 243.21,-237.45 266,-225 272.26,-221.58 278.95,-218.68 285.85,-216.22"/>
<polygon fill="#b75867" stroke="#b75867" points="286.94,-219.55 295.37,-213.13 284.78,-212.89 286.94,-219.55"/>
</g>
<!-- Analytic Geometry -->
<g id="node15" class="node">
<title>Analytic Geometry</title>
<g id="a_node15"><a xlink:href="../Analytic Geometry.html" xlink:title="Analytic Geometry" target="_parent">
<path fill="#273434" stroke="#b75867" d="M435.5,-184C435.5,-184 338.5,-184 338.5,-184 332.5,-184 326.5,-178 326.5,-172 326.5,-172 326.5,-160 326.5,-160 326.5,-154 332.5,-148 338.5,-148 338.5,-148 435.5,-148 435.5,-148 441.5,-148 447.5,-154 447.5,-160 447.5,-160 447.5,-172 447.5,-172 447.5,-178 441.5,-184 435.5,-184"/>
<text text-anchor="middle" x="387" y="-162.9" font-family="sans" font-size="12.00" fill="#c4c7c7">Analytic Geometry</text>
</a>
</g>
</g>
<!-- Knowledege Base&#45;&gt;Analytic Geometry -->
<g id="edge15" class="edge">
<title>Knowledege Base&#45;&gt;Analytic Geometry</title>
<path fill="none" stroke="#b75867" d="M206.28,-276.95C215.07,-252.61 234.21,-209.81 266,-188 280.67,-177.93 298.64,-172.1 316.16,-168.81"/>
<polygon fill="#b75867" stroke="#b75867" points="317.08,-172.21 326.39,-167.16 315.96,-165.3 317.08,-172.21"/>
</g>
<!-- Linear Algebra -->
<g id="node16" class="node">
<title>Linear Algebra</title>
<g id="a_node16"><a xlink:href="../Linear Algebra.html" xlink:title="Linear Algebra" target="_parent">
<path fill="#273434" stroke="#b75867" d="M424,-147C424,-147 350,-147 350,-147 344,-147 338,-141 338,-135 338,-135 338,-123 338,-123 338,-117 344,-111 350,-111 350,-111 424,-111 424,-111 430,-111 436,-117 436,-123 436,-123 436,-135 436,-135 436,-141 430,-147 424,-147"/>
<text text-anchor="middle" x="387" y="-125.9" font-family="sans" font-size="12.00" fill="#c4c7c7">Linear Algebra</text>
</a>
</g>
</g>
<!-- Knowledege Base&#45;&gt;Linear Algebra -->
<g id="edge16" class="edge">
<title>Knowledege Base&#45;&gt;Linear Algebra</title>
<path fill="none" stroke="#b75867" d="M203.29,-276.64C209.05,-245.53 225.29,-182.76 266,-151 283.44,-137.39 306.63,-131.22 327.97,-128.69"/>
<polygon fill="#b75867" stroke="#b75867" points="328.31,-132.18 337.94,-127.75 327.65,-125.21 328.31,-132.18"/>
</g>
<!-- Org Roam -->
<g id="node17" class="node">
<title>Org Roam</title>
<g id="a_node17"><a xlink:href="../Org Roam.html" xlink:title="Org Roam" target="_parent">
<path fill="#273434" stroke="#b75867" d="M411,-110C411,-110 363,-110 363,-110 357,-110 351,-104 351,-98 351,-98 351,-86 351,-86 351,-80 357,-74 363,-74 363,-74 411,-74 411,-74 417,-74 423,-80 423,-86 423,-86 423,-98 423,-98 423,-104 417,-110 411,-110"/>
<text text-anchor="middle" x="387" y="-88.9" font-family="sans" font-size="12.00" fill="#c4c7c7">Org Roam</text>
</a>
</g>
</g>
<!-- Knowledege Base&#45;&gt;Org Roam -->
<g id="edge18" class="edge">
<title>Knowledege Base&#45;&gt;Org Roam</title>
<path fill="none" stroke="#b75867" d="M201.37,-276.81C204.17,-239.94 216.01,-156.32 266,-114 286.44,-96.7 315.96,-91.12 340.61,-89.91"/>
<polygon fill="#b75867" stroke="#b75867" points="340.93,-93.4 350.83,-89.63 340.74,-86.4 340.93,-93.4"/>
</g>
<!-- Org&#45;mode -->
<g id="node18" class="node">
<title>Org&#45;mode</title>
<g id="a_node18"><a xlink:href="../Org-mode.html" xlink:title="Org&#45;mode" target="_parent">
<path fill="#273434" stroke="#b75867" d="M412,-73C412,-73 362,-73 362,-73 356,-73 350,-67 350,-61 350,-61 350,-49 350,-49 350,-43 356,-37 362,-37 362,-37 412,-37 412,-37 418,-37 424,-43 424,-49 424,-49 424,-61 424,-61 424,-67 418,-73 412,-73"/>
<text text-anchor="middle" x="387" y="-51.9" font-family="sans" font-size="12.00" fill="#c4c7c7">Org&#45;mode</text>
</a>
</g>
</g>
<!-- Knowledege Base&#45;&gt;Org&#45;mode -->
<g id="edge19" class="edge">
<title>Knowledege Base&#45;&gt;Org&#45;mode</title>
<path fill="none" stroke="#b75867" d="M200.07,-276.79C200.16,-234.67 206.67,-130.11 266,-77 285.82,-59.26 315.06,-53.63 339.72,-52.5"/>
<polygon fill="#b75867" stroke="#b75867" points="340.05,-55.99 349.97,-52.27 339.89,-48.99 340.05,-55.99"/>
</g>
<!-- Projects -->
<g id="node19" class="node">
<title>Projects</title>
<g id="a_node19"><a xlink:href="../Projects.html" xlink:title="Projects" target="_parent">
<path fill="none" stroke="#b75867" d="M406,-36C406,-36 368,-36 368,-36 362,-36 356,-30 356,-24 356,-24 356,-12 356,-12 356,-6 362,0 368,0 368,0 406,0 406,0 412,0 418,-6 418,-12 418,-12 418,-24 418,-24 418,-30 412,-36 406,-36"/>
<text text-anchor="middle" x="387" y="-14.9" font-family="sans" font-size="12.00" fill="#c4c7c7">Projects</text>
</a>
</g>
</g>
<!-- Knowledege Base&#45;&gt;Projects -->
<g id="edge20" class="edge">
<title>Knowledege Base&#45;&gt;Projects</title>
<path fill="none" stroke="#ffffff" d="M203.95,-266.57C211.78,-206.75 232.87,-70.88 266,-40 290.01,-17.61 328.94,-14.27 355.92,-15.12"/>
<polygon fill="#ffffff" stroke="#ffffff" points="200.43,-266.44 202.64,-276.81 207.38,-267.33 200.43,-266.44"/>
</g>
</g>
</svg>
