<?xml version="1.0" encoding="UTF-8" standalone="no"?>
<!DOCTYPE svg PUBLIC "-//W3C//DTD SVG 1.1//EN"
 "http://www.w3.org/Graphics/SVG/1.1/DTD/svg11.dtd">
<!-- Generated by graphviz version 2.44.0 (0)
 -->
<!-- Title: Org Roam Pages: 1 -->
<svg width="455pt" height="673pt"
 viewBox="0.00 0.00 455.00 673.00" xmlns="http://www.w3.org/2000/svg" xmlns:xlink="http://www.w3.org/1999/xlink">
<g id="page0,1_graph0" class="graph" transform="scale(1 1) rotate(0) translate(4 669)">
<title>Org Roam</title>
<polygon fill="#132020" stroke="transparent" points="-4,4 -4,-669 451,-669 451,4 -4,4"/>
<!-- Org Roam -->
<g id="node1" class="node">
<title>Org Roam</title>
<g id="a_node1"><a xlink:href="../Org Roam.html" xlink:title="Org Roam" target="_parent">
<path fill="#273434" stroke="#b75867" d="M60,-507C60,-507 12,-507 12,-507 6,-507 0,-501 0,-495 0,-495 0,-483 0,-483 0,-477 6,-471 12,-471 12,-471 60,-471 60,-471 66,-471 72,-477 72,-483 72,-483 72,-495 72,-495 72,-501 66,-507 60,-507"/>
<text text-anchor="middle" x="36" y="-485.9" font-family="sans" font-size="12.00" fill="#c4c7c7">Org Roam</text>
</a>
</g>
</g>
<!-- index -->
<g id="node2" class="node">
<title>index</title>
<g id="a_node2"><a xlink:href="../index.html" xlink:title="index" target="_parent">
<path fill="none" stroke="#b75867" d="M153.5,-544C153.5,-544 123.5,-544 123.5,-544 117.5,-544 111.5,-538 111.5,-532 111.5,-532 111.5,-520 111.5,-520 111.5,-514 117.5,-508 123.5,-508 123.5,-508 153.5,-508 153.5,-508 159.5,-508 165.5,-514 165.5,-520 165.5,-520 165.5,-532 165.5,-532 165.5,-538 159.5,-544 153.5,-544"/>
<text text-anchor="middle" x="138.5" y="-522.9" font-family="sans" font-size="12.00" fill="#c4c7c7">index</text>
</a>
</g>
</g>
<!-- Org Roam&#45;&gt;index -->
<g id="edge1" class="edge">
<title>Org Roam&#45;&gt;index</title>
<path fill="none" stroke="#ffffff" d="M81.73,-505.47C91.88,-509.2 102.33,-513.05 111.4,-516.39"/>
<polygon fill="#ffffff" stroke="#ffffff" points="82.74,-502.11 72.15,-501.94 80.33,-508.68 82.74,-502.11"/>
</g>
<!-- Bad Habit -->
<g id="node3" class="node">
<title>Bad Habit</title>
<g id="a_node3"><a xlink:href="../Bad Habit.html" xlink:title="Bad Habit" target="_parent">
<path fill="none" stroke="#b75867" d="M163,-507C163,-507 114,-507 114,-507 108,-507 102,-501 102,-495 102,-495 102,-483 102,-483 102,-477 108,-471 114,-471 114,-471 163,-471 163,-471 169,-471 175,-477 175,-483 175,-483 175,-495 175,-495 175,-501 169,-507 163,-507"/>
<text text-anchor="middle" x="138.5" y="-485.9" font-family="sans" font-size="12.00" fill="#c4c7c7">Bad Habit</text>
</a>
</g>
</g>
<!-- Org Roam&#45;&gt;Bad Habit -->
<g id="edge2" class="edge">
<title>Org Roam&#45;&gt;Bad Habit</title>
<path fill="none" stroke="#ffffff" d="M82.3,-489C88.86,-489 95.53,-489 101.86,-489"/>
<polygon fill="#ffffff" stroke="#ffffff" points="82.15,-485.5 72.15,-489 82.15,-492.5 82.15,-485.5"/>
</g>
<!-- Knowledege Base -->
<g id="node4" class="node">
<title>Knowledege Base</title>
<g id="a_node4"><a xlink:href="../Knowledege Base.html" xlink:title="Knowledege Base" target="_parent">
<path fill="none" stroke="#b75867" d="M185,-350C185,-350 92,-350 92,-350 86,-350 80,-344 80,-338 80,-338 80,-326 80,-326 80,-320 86,-314 92,-314 92,-314 185,-314 185,-314 191,-314 197,-320 197,-326 197,-326 197,-338 197,-338 197,-344 191,-350 185,-350"/>
<text text-anchor="middle" x="138.5" y="-328.9" font-family="sans" font-size="12.00" fill="#c4c7c7">Knowledege Base</text>
</a>
</g>
</g>
<!-- Org Roam&#45;&gt;Knowledege Base -->
<g id="edge3" class="edge">
<title>Org Roam&#45;&gt;Knowledege Base</title>
<path fill="none" stroke="#ffffff" d="M54.17,-462.18C74.59,-430.28 108.14,-377.87 125.8,-350.28"/>
<polygon fill="#ffffff" stroke="#ffffff" points="50.97,-460.68 48.53,-470.99 56.87,-464.45 50.97,-460.68"/>
</g>
<!-- index&#45;&gt;Org Roam -->
<g id="edge5" class="edge">
<title>index&#45;&gt;Org Roam</title>
<path fill="none" stroke="#b75867" d="M111.4,-517.06C102.33,-513.78 91.88,-509.96 81.73,-506.21"/>
<polygon fill="#b75867" stroke="#b75867" points="82.74,-502.86 72.15,-502.66 80.31,-509.42 82.74,-502.86"/>
</g>
<!-- Subjects -->
<g id="node5" class="node">
<title>Subjects</title>
<g id="a_node5"><a xlink:href="../Subjects.html" xlink:title="Subjects" target="_parent">
<path fill="#273434" stroke="#b75867" d="M346.5,-665C346.5,-665 305.5,-665 305.5,-665 299.5,-665 293.5,-659 293.5,-653 293.5,-653 293.5,-641 293.5,-641 293.5,-635 299.5,-629 305.5,-629 305.5,-629 346.5,-629 346.5,-629 352.5,-629 358.5,-635 358.5,-641 358.5,-641 358.5,-653 358.5,-653 358.5,-659 352.5,-665 346.5,-665"/>
<text text-anchor="middle" x="326" y="-643.9" font-family="sans" font-size="12.00" fill="#c4c7c7">Subjects</text>
</a>
</g>
</g>
<!-- index&#45;&gt;Subjects -->
<g id="edge4" class="edge">
<title>index&#45;&gt;Subjects</title>
<path fill="none" stroke="#b75867" d="M146.31,-544.27C155.8,-567.05 175.25,-605.35 205,-625 228.04,-640.22 258.74,-645.64 283.31,-647.3"/>
<polygon fill="#b75867" stroke="#b75867" points="283.27,-650.8 293.43,-647.8 283.62,-643.81 283.27,-650.8"/>
</g>
<!-- Bad Habit&#45;&gt;Org Roam -->
<g id="edge7" class="edge">
<title>Bad Habit&#45;&gt;Org Roam</title>
<path fill="none" stroke="#b75867" d="M101.86,-489.72C95.53,-489.75 88.86,-489.76 82.3,-489.75"/>
<polygon fill="#b75867" stroke="#b75867" points="82.16,-486.25 72.15,-489.72 82.14,-493.25 82.16,-486.25"/>
</g>
<!-- Projects -->
<g id="node6" class="node">
<title>Projects</title>
<g id="a_node6"><a xlink:href="../Projects.html" xlink:title="Projects" target="_parent">
<path fill="#273434" stroke="#b75867" d="M345,-628C345,-628 307,-628 307,-628 301,-628 295,-622 295,-616 295,-616 295,-604 295,-604 295,-598 301,-592 307,-592 307,-592 345,-592 345,-592 351,-592 357,-598 357,-604 357,-604 357,-616 357,-616 357,-622 351,-628 345,-628"/>
<text text-anchor="middle" x="326" y="-606.9" font-family="sans" font-size="12.00" fill="#c4c7c7">Projects</text>
</a>
</g>
</g>
<!-- Bad Habit&#45;&gt;Projects -->
<g id="edge6" class="edge">
<title>Bad Habit&#45;&gt;Projects</title>
<path fill="none" stroke="#b75867" d="M175.09,-495.8C183.47,-499.06 191.53,-503.88 197,-511 207.47,-524.65 193.32,-575.37 205,-588 224.87,-609.48 258.25,-614.18 284.76,-613.96"/>
<polygon fill="#b75867" stroke="#b75867" points="285.02,-617.46 294.91,-613.64 284.8,-610.46 285.02,-617.46"/>
</g>
<!-- Knowledege Base&#45;&gt;Org Roam -->
<g id="edge24" class="edge">
<title>Knowledege Base&#45;&gt;Org Roam</title>
<path fill="none" stroke="#b75867" d="M126.21,-350.13C108.72,-377.76 74.96,-430.52 54.36,-462.46"/>
<polygon fill="#b75867" stroke="#b75867" points="51.41,-460.58 48.92,-470.88 57.29,-464.38 51.41,-460.58"/>
</g>
<!-- Knowledege Base&#45;&gt;Projects -->
<g id="edge26" class="edge">
<title>Knowledege Base&#45;&gt;Projects</title>
<path fill="none" stroke="#ffffff" d="M153.87,-359.22C167.58,-386.62 187.51,-430.52 197,-471 199.97,-483.69 196.32,-578.28 205,-588 227.15,-612.8 267.26,-615.46 294.98,-613.8"/>
<polygon fill="#ffffff" stroke="#ffffff" points="156.96,-357.57 149.31,-350.24 150.72,-360.74 156.96,-357.57"/>
</g>
<!-- Computer Architectures -->
<g id="node7" class="node">
<title>Computer Architectures</title>
<g id="a_node7"><a xlink:href="../Computer Architectures.html" xlink:title="Computer Architectures" target="_parent">
<path fill="#273434" stroke="#b75867" d="M389.5,-591C389.5,-591 262.5,-591 262.5,-591 256.5,-591 250.5,-585 250.5,-579 250.5,-579 250.5,-567 250.5,-567 250.5,-561 256.5,-555 262.5,-555 262.5,-555 389.5,-555 389.5,-555 395.5,-555 401.5,-561 401.5,-567 401.5,-567 401.5,-579 401.5,-579 401.5,-585 395.5,-591 389.5,-591"/>
<text text-anchor="middle" x="326" y="-569.9" font-family="sans" font-size="12.00" fill="#c4c7c7">Computer Architectures</text>
</a>
</g>
</g>
<!-- Knowledege Base&#45;&gt;Computer Architectures -->
<g id="edge8" class="edge">
<title>Knowledege Base&#45;&gt;Computer Architectures</title>
<path fill="none" stroke="#b75867" d="M149.11,-350.29C162.3,-376.32 185.68,-425.91 197,-471 201.35,-488.33 192.89,-537.86 205,-551 214.47,-561.28 227.03,-567.72 240.46,-571.62"/>
<polygon fill="#b75867" stroke="#b75867" points="239.82,-575.06 250.36,-574.03 241.47,-568.26 239.82,-575.06"/>
</g>
<!-- Numeric Methods -->
<g id="node8" class="node">
<title>Numeric Methods</title>
<g id="a_node8"><a xlink:href="../Numeric Methods.html" xlink:title="Numeric Methods" target="_parent">
<path fill="#273434" stroke="#b75867" d="M372,-554C372,-554 280,-554 280,-554 274,-554 268,-548 268,-542 268,-542 268,-530 268,-530 268,-524 274,-518 280,-518 280,-518 372,-518 372,-518 378,-518 384,-524 384,-530 384,-530 384,-542 384,-542 384,-548 378,-554 372,-554"/>
<text text-anchor="middle" x="326" y="-532.9" font-family="sans" font-size="12.00" fill="#c4c7c7">Numeric Methods</text>
</a>
</g>
</g>
<!-- Knowledege Base&#45;&gt;Numeric Methods -->
<g id="edge9" class="edge">
<title>Knowledege Base&#45;&gt;Numeric Methods</title>
<path fill="none" stroke="#b75867" d="M148.58,-350.44C161.15,-376.64 183.79,-426.43 197,-471 202.52,-489.64 191.24,-500.27 205,-514 218.92,-527.88 238.52,-534.59 257.85,-537.5"/>
<polygon fill="#b75867" stroke="#b75867" points="257.57,-540.99 267.91,-538.7 258.39,-534.04 257.57,-540.99"/>
</g>
<!-- Design and Analysis of Algorithms -->
<g id="node9" class="node">
<title>Design and Analysis of Algorithms</title>
<g id="a_node9"><a xlink:href="../Design and Analysis of Algorithms.html" xlink:title="Design and Analysis of Algorithms" target="_parent">
<path fill="#273434" stroke="#b75867" d="M417,-517C417,-517 235,-517 235,-517 229,-517 223,-511 223,-505 223,-505 223,-493 223,-493 223,-487 229,-481 235,-481 235,-481 417,-481 417,-481 423,-481 429,-487 429,-493 429,-493 429,-505 429,-505 429,-511 423,-517 417,-517"/>
<text text-anchor="middle" x="326" y="-495.9" font-family="sans" font-size="12.00" fill="#c4c7c7">Design and Analysis of Algorithms</text>
</a>
</g>
</g>
<!-- Knowledege Base&#45;&gt;Design and Analysis of Algorithms -->
<g id="edge10" class="edge">
<title>Knowledege Base&#45;&gt;Design and Analysis of Algorithms</title>
<path fill="none" stroke="#b75867" d="M142.25,-350.48C147.95,-381.8 164.1,-445 205,-477 207.84,-479.22 210.83,-481.24 213.94,-483.08"/>
<polygon fill="#b75867" stroke="#b75867" points="212.51,-486.29 223,-487.81 215.75,-480.08 212.51,-486.29"/>
</g>
<!-- Logic Programming -->
<g id="node10" class="node">
<title>Logic Programming</title>
<g id="a_node10"><a xlink:href="../Logic Programming.html" xlink:title="Logic Programming" target="_parent">
<path fill="#273434" stroke="#b75867" d="M377,-480C377,-480 275,-480 275,-480 269,-480 263,-474 263,-468 263,-468 263,-456 263,-456 263,-450 269,-444 275,-444 275,-444 377,-444 377,-444 383,-444 389,-450 389,-456 389,-456 389,-468 389,-468 389,-474 383,-480 377,-480"/>
<text text-anchor="middle" x="326" y="-458.9" font-family="sans" font-size="12.00" fill="#c4c7c7">Logic Programming</text>
</a>
</g>
</g>
<!-- Knowledege Base&#45;&gt;Logic Programming -->
<g id="edge11" class="edge">
<title>Knowledege Base&#45;&gt;Logic Programming</title>
<path fill="none" stroke="#b75867" d="M145.23,-350.21C153.96,-374.78 173.04,-417.97 205,-440 219.07,-449.7 236.19,-455.47 253.03,-458.82"/>
<polygon fill="#b75867" stroke="#b75867" points="252.45,-462.27 262.9,-460.53 253.64,-455.37 252.45,-462.27"/>
</g>
<!-- Data Structures -->
<g id="node11" class="node">
<title>Data Structures</title>
<g id="a_node11"><a xlink:href="../Data Structures.html" xlink:title="Data Structures" target="_parent">
<path fill="#273434" stroke="#b75867" d="M366,-443C366,-443 286,-443 286,-443 280,-443 274,-437 274,-431 274,-431 274,-419 274,-419 274,-413 280,-407 286,-407 286,-407 366,-407 366,-407 372,-407 378,-413 378,-419 378,-419 378,-431 378,-431 378,-437 372,-443 366,-443"/>
<text text-anchor="middle" x="326" y="-421.9" font-family="sans" font-size="12.00" fill="#c4c7c7">Data Structures</text>
</a>
</g>
</g>
<!-- Knowledege Base&#45;&gt;Data Structures -->
<g id="edge12" class="edge">
<title>Knowledege Base&#45;&gt;Data Structures</title>
<path fill="none" stroke="#b75867" d="M151.19,-350.26C162.77,-366.77 182.08,-390.38 205,-403 222.77,-412.79 244.05,-418.33 263.72,-421.44"/>
<polygon fill="#b75867" stroke="#b75867" points="263.44,-424.93 273.83,-422.85 264.41,-418 263.44,-424.93"/>
</g>
<!-- Languages, Automata and Computation -->
<g id="node12" class="node">
<title>Languages, Automata and Computation</title>
<g id="a_node12"><a xlink:href="../Languages, Automata and Computation.html" xlink:title="Languages, Automata and Computation" target="_parent">
<path fill="#273434" stroke="#b75867" d="M435,-406C435,-406 217,-406 217,-406 211,-406 205,-400 205,-394 205,-394 205,-382 205,-382 205,-376 211,-370 217,-370 217,-370 435,-370 435,-370 441,-370 447,-376 447,-382 447,-382 447,-394 447,-394 447,-400 441,-406 435,-406"/>
<text text-anchor="middle" x="326" y="-384.9" font-family="sans" font-size="12.00" fill="#c4c7c7">Languages, Automata and Computation</text>
</a>
</g>
</g>
<!-- Knowledege Base&#45;&gt;Languages, Automata and Computation -->
<g id="edge13" class="edge">
<title>Knowledege Base&#45;&gt;Languages, Automata and Computation</title>
<path fill="none" stroke="#b75867" d="M169.65,-350.04C180.49,-355.87 193,-361.89 205,-366 205.9,-366.31 206.8,-366.61 207.71,-366.91"/>
<polygon fill="#b75867" stroke="#b75867" points="207.03,-370.36 217.61,-369.97 209.09,-363.68 207.03,-370.36"/>
</g>
<!-- Operations Research -->
<g id="node13" class="node">
<title>Operations Research</title>
<g id="a_node13"><a xlink:href="../Operations Research.html" xlink:title="Operations Research" target="_parent">
<path fill="#273434" stroke="#b75867" d="M380.5,-369C380.5,-369 271.5,-369 271.5,-369 265.5,-369 259.5,-363 259.5,-357 259.5,-357 259.5,-345 259.5,-345 259.5,-339 265.5,-333 271.5,-333 271.5,-333 380.5,-333 380.5,-333 386.5,-333 392.5,-339 392.5,-345 392.5,-345 392.5,-357 392.5,-357 392.5,-363 386.5,-369 380.5,-369"/>
<text text-anchor="middle" x="326" y="-347.9" font-family="sans" font-size="12.00" fill="#c4c7c7">Operations Research</text>
</a>
</g>
</g>
<!-- Knowledege Base&#45;&gt;Operations Research -->
<g id="edge14" class="edge">
<title>Knowledege Base&#45;&gt;Operations Research</title>
<path fill="none" stroke="#b75867" d="M197.18,-337.91C213.62,-339.59 231.8,-341.45 249.15,-343.23"/>
<polygon fill="#b75867" stroke="#b75867" points="248.95,-346.73 259.26,-344.27 249.67,-339.77 248.95,-346.73"/>
</g>
<!-- Differential Equations -->
<g id="node14" class="node">
<title>Differential Equations</title>
<g id="a_node14"><a xlink:href="../Differential Equations.html" xlink:title="Differential Equations" target="_parent">
<path fill="#273434" stroke="#b75867" d="M383,-332C383,-332 269,-332 269,-332 263,-332 257,-326 257,-320 257,-320 257,-308 257,-308 257,-302 263,-296 269,-296 269,-296 383,-296 383,-296 389,-296 395,-302 395,-308 395,-308 395,-320 395,-320 395,-326 389,-332 383,-332"/>
<text text-anchor="middle" x="326" y="-310.9" font-family="sans" font-size="12.00" fill="#c4c7c7">Differential Equations</text>
</a>
</g>
</g>
<!-- Knowledege Base&#45;&gt;Differential Equations -->
<g id="edge15" class="edge">
<title>Knowledege Base&#45;&gt;Differential Equations</title>
<path fill="none" stroke="#b75867" d="M197.18,-326.4C212.85,-324.88 230.1,-323.21 246.71,-321.6"/>
<polygon fill="#b75867" stroke="#b75867" points="247.34,-325.05 256.95,-320.6 246.66,-318.09 247.34,-325.05"/>
</g>
<!-- OOP -->
<g id="node15" class="node">
<title>OOP</title>
<g id="a_node15"><a xlink:href="../OOP.html" xlink:title="OOP" target="_parent">
<path fill="#273434" stroke="#b75867" d="M341,-295C341,-295 311,-295 311,-295 305,-295 299,-289 299,-283 299,-283 299,-271 299,-271 299,-265 305,-259 311,-259 311,-259 341,-259 341,-259 347,-259 353,-265 353,-271 353,-271 353,-283 353,-283 353,-289 347,-295 341,-295"/>
<text text-anchor="middle" x="326" y="-273.9" font-family="sans" font-size="12.00" fill="#c4c7c7">OOP</text>
</a>
</g>
</g>
<!-- Knowledege Base&#45;&gt;OOP -->
<g id="edge16" class="edge">
<title>Knowledege Base&#45;&gt;OOP</title>
<path fill="none" stroke="#b75867" d="M171.03,-313.83C181.56,-308.39 193.53,-302.85 205,-299 232.28,-289.84 264.42,-284.2 288.56,-280.93"/>
<polygon fill="#b75867" stroke="#b75867" points="289.24,-284.37 298.71,-279.63 288.35,-277.43 289.24,-284.37"/>
</g>
<!-- Discrete Structures -->
<g id="node16" class="node">
<title>Discrete Structures</title>
<g id="a_node16"><a xlink:href="../Discrete Structures.html" xlink:title="Discrete Structures" target="_parent">
<path fill="#273434" stroke="#b75867" d="M375,-258C375,-258 277,-258 277,-258 271,-258 265,-252 265,-246 265,-246 265,-234 265,-234 265,-228 271,-222 277,-222 277,-222 375,-222 375,-222 381,-222 387,-228 387,-234 387,-234 387,-246 387,-246 387,-252 381,-258 375,-258"/>
<text text-anchor="middle" x="326" y="-236.9" font-family="sans" font-size="12.00" fill="#c4c7c7">Discrete Structures</text>
</a>
</g>
</g>
<!-- Knowledege Base&#45;&gt;Discrete Structures -->
<g id="edge17" class="edge">
<title>Knowledege Base&#45;&gt;Discrete Structures</title>
<path fill="none" stroke="#b75867" d="M151.24,-314C162.88,-297.72 182.21,-274.45 205,-262 220.15,-253.72 237.82,-248.49 254.86,-245.2"/>
<polygon fill="#b75867" stroke="#b75867" points="255.55,-248.63 264.8,-243.47 254.35,-241.73 255.55,-248.63"/>
</g>
<!-- Advanced Algebra -->
<g id="node17" class="node">
<title>Advanced Algebra</title>
<g id="a_node17"><a xlink:href="../Advanced Algebra.html" xlink:title="Advanced Algebra" target="_parent">
<path fill="#273434" stroke="#b75867" d="M373.5,-221C373.5,-221 278.5,-221 278.5,-221 272.5,-221 266.5,-215 266.5,-209 266.5,-209 266.5,-197 266.5,-197 266.5,-191 272.5,-185 278.5,-185 278.5,-185 373.5,-185 373.5,-185 379.5,-185 385.5,-191 385.5,-197 385.5,-197 385.5,-209 385.5,-209 385.5,-215 379.5,-221 373.5,-221"/>
<text text-anchor="middle" x="326" y="-199.9" font-family="sans" font-size="12.00" fill="#c4c7c7">Advanced Algebra</text>
</a>
</g>
</g>
<!-- Knowledege Base&#45;&gt;Advanced Algebra -->
<g id="edge18" class="edge">
<title>Knowledege Base&#45;&gt;Advanced Algebra</title>
<path fill="none" stroke="#b75867" d="M145.28,-313.95C154.07,-289.61 173.21,-246.81 205,-225 219.89,-214.78 238.17,-208.93 255.94,-205.67"/>
<polygon fill="#b75867" stroke="#b75867" points="256.98,-209.05 266.31,-204.04 255.89,-202.13 256.98,-209.05"/>
</g>
<!-- Differential Analysis -->
<g id="node18" class="node">
<title>Differential Analysis</title>
<g id="a_node18"><a xlink:href="../Differential Analysis.html" xlink:title="Differential Analysis" target="_parent">
<path fill="#273434" stroke="#b75867" d="M377.5,-184C377.5,-184 274.5,-184 274.5,-184 268.5,-184 262.5,-178 262.5,-172 262.5,-172 262.5,-160 262.5,-160 262.5,-154 268.5,-148 274.5,-148 274.5,-148 377.5,-148 377.5,-148 383.5,-148 389.5,-154 389.5,-160 389.5,-160 389.5,-172 389.5,-172 389.5,-178 383.5,-184 377.5,-184"/>
<text text-anchor="middle" x="326" y="-162.9" font-family="sans" font-size="12.00" fill="#c4c7c7">Differential Analysis</text>
</a>
</g>
</g>
<!-- Knowledege Base&#45;&gt;Differential Analysis -->
<g id="edge19" class="edge">
<title>Knowledege Base&#45;&gt;Differential Analysis</title>
<path fill="none" stroke="#b75867" d="M142.29,-313.64C148.05,-282.53 164.29,-219.76 205,-188 218.54,-177.43 235.54,-171.36 252.45,-167.98"/>
<polygon fill="#b75867" stroke="#b75867" points="253.1,-171.42 262.37,-166.29 251.93,-164.52 253.1,-171.42"/>
</g>
<!-- Knowledege Base&#45;&gt;Differential Analysis -->
<g id="edge23" class="edge">
<title>Knowledege Base&#45;&gt;Differential Analysis</title>
<path fill="none" stroke="#b75867" d="M142.39,-313.75C148.22,-282.87 164.51,-220.6 205,-189 218.54,-178.43 235.54,-172.36 252.45,-168.95"/>
<polygon fill="#b75867" stroke="#b75867" points="253.11,-172.39 262.37,-167.24 251.92,-165.49 253.11,-172.39"/>
</g>
<!-- Introduction to programming -->
<g id="node19" class="node">
<title>Introduction to programming</title>
<g id="a_node19"><a xlink:href="../Introduction to programming.html" xlink:title="Introduction to programming" target="_parent">
<path fill="#273434" stroke="#b75867" d="M405.5,-147C405.5,-147 246.5,-147 246.5,-147 240.5,-147 234.5,-141 234.5,-135 234.5,-135 234.5,-123 234.5,-123 234.5,-117 240.5,-111 246.5,-111 246.5,-111 405.5,-111 405.5,-111 411.5,-111 417.5,-117 417.5,-123 417.5,-123 417.5,-135 417.5,-135 417.5,-141 411.5,-147 405.5,-147"/>
<text text-anchor="middle" x="326" y="-125.9" font-family="sans" font-size="12.00" fill="#c4c7c7">Introduction to programming</text>
</a>
</g>
</g>
<!-- Knowledege Base&#45;&gt;Introduction to programming -->
<g id="edge20" class="edge">
<title>Knowledege Base&#45;&gt;Introduction to programming</title>
<path fill="none" stroke="#b75867" d="M140.37,-313.81C143.17,-276.94 155.01,-193.32 205,-151 211.02,-145.9 217.84,-141.82 225.08,-138.57"/>
<polygon fill="#b75867" stroke="#b75867" points="226.44,-141.8 234.46,-134.88 223.88,-135.28 226.44,-141.8"/>
</g>
<!-- Analytic Geometry -->
<g id="node20" class="node">
<title>Analytic Geometry</title>
<g id="a_node20"><a xlink:href="../Analytic Geometry.html" xlink:title="Analytic Geometry" target="_parent">
<path fill="#273434" stroke="#b75867" d="M374.5,-110C374.5,-110 277.5,-110 277.5,-110 271.5,-110 265.5,-104 265.5,-98 265.5,-98 265.5,-86 265.5,-86 265.5,-80 271.5,-74 277.5,-74 277.5,-74 374.5,-74 374.5,-74 380.5,-74 386.5,-80 386.5,-86 386.5,-86 386.5,-98 386.5,-98 386.5,-104 380.5,-110 374.5,-110"/>
<text text-anchor="middle" x="326" y="-88.9" font-family="sans" font-size="12.00" fill="#c4c7c7">Analytic Geometry</text>
</a>
</g>
</g>
<!-- Knowledege Base&#45;&gt;Analytic Geometry -->
<g id="edge21" class="edge">
<title>Knowledege Base&#45;&gt;Analytic Geometry</title>
<path fill="none" stroke="#b75867" d="M139.07,-313.79C139.16,-271.67 145.67,-167.11 205,-114 218.78,-101.66 237.12,-95.18 255.31,-92"/>
<polygon fill="#b75867" stroke="#b75867" points="255.97,-95.44 265.37,-90.55 254.98,-88.51 255.97,-95.44"/>
</g>
<!-- Linear Algebra -->
<g id="node21" class="node">
<title>Linear Algebra</title>
<g id="a_node21"><a xlink:href="../Linear Algebra.html" xlink:title="Linear Algebra" target="_parent">
<path fill="#273434" stroke="#b75867" d="M363,-73C363,-73 289,-73 289,-73 283,-73 277,-67 277,-61 277,-61 277,-49 277,-49 277,-43 283,-37 289,-37 289,-37 363,-37 363,-37 369,-37 375,-43 375,-49 375,-49 375,-61 375,-61 375,-67 369,-73 363,-73"/>
<text text-anchor="middle" x="326" y="-51.9" font-family="sans" font-size="12.00" fill="#c4c7c7">Linear Algebra</text>
</a>
</g>
</g>
<!-- Knowledege Base&#45;&gt;Linear Algebra -->
<g id="edge22" class="edge">
<title>Knowledege Base&#45;&gt;Linear Algebra</title>
<path fill="none" stroke="#b75867" d="M141.64,-313.81C148.21,-261.07 169.81,-109.8 205,-77 221.45,-61.66 244.9,-55.27 266.71,-53.03"/>
<polygon fill="#b75867" stroke="#b75867" points="267.21,-56.5 276.92,-52.26 266.68,-49.52 267.21,-56.5"/>
</g>
<!-- Org&#45;mode -->
<g id="node22" class="node">
<title>Org&#45;mode</title>
<g id="a_node22"><a xlink:href="../Org-mode.html" xlink:title="Org&#45;mode" target="_parent">
<path fill="#273434" stroke="#b75867" d="M351,-36C351,-36 301,-36 301,-36 295,-36 289,-30 289,-24 289,-24 289,-12 289,-12 289,-6 295,0 301,0 301,0 351,0 351,0 357,0 363,-6 363,-12 363,-12 363,-24 363,-24 363,-30 357,-36 351,-36"/>
<text text-anchor="middle" x="326" y="-14.9" font-family="sans" font-size="12.00" fill="#c4c7c7">Org&#45;mode</text>
</a>
</g>
</g>
<!-- Knowledege Base&#45;&gt;Org&#45;mode -->
<g id="edge25" class="edge">
<title>Knowledege Base&#45;&gt;Org&#45;mode</title>
<path fill="none" stroke="#b75867" d="M141.01,-313.71C146.17,-255.86 165.02,-78.44 205,-40 224.32,-21.42 253.87,-15.84 278.81,-14.94"/>
<polygon fill="#b75867" stroke="#b75867" points="278.86,-18.44 288.82,-14.81 278.77,-11.44 278.86,-18.44"/>
</g>
</g>
</svg>
