<?xml version="1.0" encoding="UTF-8" standalone="no"?>
<!DOCTYPE svg PUBLIC "-//W3C//DTD SVG 1.1//EN"
 "http://www.w3.org/Graphics/SVG/1.1/DTD/svg11.dtd">
<!-- Generated by graphviz version 2.44.0 (0)
 -->
<!-- Title: Org Roam Pages: 1 -->
<svg width="432pt" height="116pt"
 viewBox="0.00 0.00 431.96 116.00" xmlns="http://www.w3.org/2000/svg" xmlns:xlink="http://www.w3.org/1999/xlink">
<g id="page0,1_graph0" class="graph" transform="scale(1 1) rotate(0) translate(4 112)">
<title>Org Roam</title>
<polygon fill="#132020" stroke="transparent" points="-4,4 -4,-112 427.96,-112 427.96,4 -4,4"/>
<!-- Org Roam -->
<g id="node1" class="node">
<title>Org Roam</title>
<g id="a_node1"><a xlink:href="../Org Roam.html" xlink:title="Org Roam" target="_parent">
<path fill="#273434" stroke="#b75867" d="M189.93,-108C189.93,-108 141.93,-108 141.93,-108 135.93,-108 129.93,-102 129.93,-96 129.93,-96 129.93,-84 129.93,-84 129.93,-78 135.93,-72 141.93,-72 141.93,-72 189.93,-72 189.93,-72 195.93,-72 201.93,-78 201.93,-84 201.93,-84 201.93,-96 201.93,-96 201.93,-102 195.93,-108 189.93,-108"/>
<text text-anchor="middle" x="165.93" y="-86.9" font-family="sans" font-size="12.00" fill="#c4c7c7">Org Roam</text>
</a>
</g>
</g>
<!-- index -->
<g id="node2" class="node">
<title>index</title>
<g id="a_node2"><a xlink:href="../index.html" xlink:title="index" target="_parent">
<ellipse fill="#273434" stroke="#b75867" cx="28.93" cy="-18" rx="28.87" ry="18"/>
<text text-anchor="middle" x="28.93" y="-14.9" font-family="sans" font-size="12.00" fill="#c4c7c7">index</text>
</a>
</g>
</g>
<!-- Org Roam&#45;&gt;index -->
<g id="edge1" class="edge">
<title>Org Roam&#45;&gt;index</title>
<path fill="none" stroke="#ffffff" d="M123.44,-67.29C99.29,-54.95 70.07,-40.02 50.57,-30.06"/>
<polygon fill="#ffffff" stroke="#ffffff" points="121.92,-70.44 132.42,-71.88 125.11,-64.21 121.92,-70.44"/>
</g>
<!-- README -->
<g id="node3" class="node">
<title>README</title>
<g id="a_node3"><a xlink:href="../README.html" xlink:title="README" target="_parent">
<ellipse fill="#273434" stroke="#b75867" cx="114.93" cy="-18" rx="38.57" ry="18"/>
<text text-anchor="middle" x="114.93" y="-14.9" font-family="sans" font-size="12.00" fill="#c4c7c7">README</text>
</a>
</g>
</g>
<!-- Org Roam&#45;&gt;README -->
<g id="edge2" class="edge">
<title>Org Roam&#45;&gt;README</title>
<path fill="none" stroke="#ffffff" d="M147.36,-63.51C140.59,-54.22 133.11,-43.95 127.04,-35.62"/>
<polygon fill="#ffffff" stroke="#ffffff" points="144.61,-65.68 153.33,-71.7 150.27,-61.55 144.61,-65.68"/>
</g>
<!-- Bad Habit -->
<g id="node4" class="node">
<title>Bad Habit</title>
<g id="a_node4"><a xlink:href="../Bad Habit.html" xlink:title="Bad Habit" target="_parent">
<ellipse fill="#273434" stroke="#b75867" cx="216.93" cy="-18" rx="44.88" ry="18"/>
<text text-anchor="middle" x="216.93" y="-14.9" font-family="sans" font-size="12.00" fill="#c4c7c7">Bad Habit</text>
</a>
</g>
</g>
<!-- Org Roam&#45;&gt;Bad Habit -->
<g id="edge3" class="edge">
<title>Org Roam&#45;&gt;Bad Habit</title>
<path fill="none" stroke="#ffffff" d="M184.5,-63.51C191.27,-54.22 198.75,-43.95 204.82,-35.62"/>
<polygon fill="#ffffff" stroke="#ffffff" points="181.6,-61.55 178.54,-71.7 187.26,-65.68 181.6,-61.55"/>
</g>
<!-- Knowledege Base -->
<g id="node5" class="node">
<title>Knowledege Base</title>
<g id="a_node5"><a xlink:href="../Knowledege Base.html" xlink:title="Knowledege Base" target="_parent">
<ellipse fill="#273434" stroke="#b75867" cx="351.93" cy="-18" rx="72.05" ry="18"/>
<text text-anchor="middle" x="351.93" y="-14.9" font-family="sans" font-size="12.00" fill="#c4c7c7">Knowledege Base</text>
</a>
</g>
</g>
<!-- Org Roam&#45;&gt;Knowledege Base -->
<g id="edge4" class="edge">
<title>Org Roam&#45;&gt;Knowledege Base</title>
<path fill="none" stroke="#ffffff" d="M211.64,-71.8C243.02,-59.99 284.19,-44.5 313.8,-33.35"/>
<polygon fill="#ffffff" stroke="#ffffff" points="210.36,-68.54 202.24,-75.34 212.83,-75.09 210.36,-68.54"/>
</g>
</g>
</svg>
