<?xml version="1.0" encoding="UTF-8" standalone="no"?>
<!DOCTYPE svg PUBLIC "-//W3C//DTD SVG 1.1//EN"
 "http://www.w3.org/Graphics/SVG/1.1/DTD/svg11.dtd">
<!-- Generated by graphviz version 2.44.0 (0)
 -->
<!-- Title: Org&#45;mode Pages: 1 -->
<svg width="457pt" height="636pt"
 viewBox="0.00 0.00 457.00 636.00" xmlns="http://www.w3.org/2000/svg" xmlns:xlink="http://www.w3.org/1999/xlink">
<g id="page0,1_graph0" class="graph" transform="scale(1 1) rotate(0) translate(4 632)">
<title>Org&#45;mode</title>
<polygon fill="#132020" stroke="transparent" points="-4,4 -4,-632 453,-632 453,4 -4,4"/>
<!-- Org&#45;mode -->
<g id="node1" class="node">
<title>Org&#45;mode</title>
<g id="a_node1"><a xlink:href="../Org-mode.html" xlink:title="Org&#45;mode" target="_parent">
<path fill="#273434" stroke="#b75867" d="M62,-313C62,-313 12,-313 12,-313 6,-313 0,-307 0,-301 0,-301 0,-289 0,-289 0,-283 6,-277 12,-277 12,-277 62,-277 62,-277 68,-277 74,-283 74,-289 74,-289 74,-301 74,-301 74,-307 68,-313 62,-313"/>
<text text-anchor="middle" x="37" y="-291.9" font-family="sans" font-size="12.00" fill="#c4c7c7">Org&#45;mode</text>
</a>
</g>
</g>
<!-- Knowledege Base -->
<g id="node2" class="node">
<title>Knowledege Base</title>
<g id="a_node2"><a xlink:href="../Knowledege Base.html" xlink:title="Knowledege Base" target="_parent">
<path fill="none" stroke="#b75867" d="M187,-313C187,-313 94,-313 94,-313 88,-313 82,-307 82,-301 82,-301 82,-289 82,-289 82,-283 88,-277 94,-277 94,-277 187,-277 187,-277 193,-277 199,-283 199,-289 199,-289 199,-301 199,-301 199,-307 193,-313 187,-313"/>
<text text-anchor="middle" x="140.5" y="-291.9" font-family="sans" font-size="12.00" fill="#c4c7c7">Knowledege Base</text>
</a>
</g>
</g>
<!-- Org&#45;mode&#45;&gt;Knowledege Base -->
<g id="edge1" class="edge">
<title>Org&#45;mode&#45;&gt;Knowledege Base</title>
<path fill="none" stroke="#ffffff" d="M81.24,-295C81.4,-295 81.56,-295 81.72,-295"/>
<polygon fill="#ffffff" stroke="#ffffff" points="84.07,-291.5 74.07,-295 84.07,-298.5 84.07,-291.5"/>
</g>
<!-- Knowledege Base&#45;&gt;Org&#45;mode -->
<g id="edge19" class="edge">
<title>Knowledege Base&#45;&gt;Org&#45;mode</title>
<path fill="none" stroke="#b75867" d="M81.72,-295.74C81.56,-295.74 81.4,-295.74 81.24,-295.74"/>
<polygon fill="#b75867" stroke="#b75867" points="84.08,-292.25 74.07,-295.72 84.06,-299.25 84.08,-292.25"/>
</g>
<!-- Computer Architectures -->
<g id="node3" class="node">
<title>Computer Architectures</title>
<g id="a_node3"><a xlink:href="../Computer Architectures.html" xlink:title="Computer Architectures" target="_parent">
<path fill="#273434" stroke="#b75867" d="M391.5,-628C391.5,-628 264.5,-628 264.5,-628 258.5,-628 252.5,-622 252.5,-616 252.5,-616 252.5,-604 252.5,-604 252.5,-598 258.5,-592 264.5,-592 264.5,-592 391.5,-592 391.5,-592 397.5,-592 403.5,-598 403.5,-604 403.5,-604 403.5,-616 403.5,-616 403.5,-622 397.5,-628 391.5,-628"/>
<text text-anchor="middle" x="328" y="-606.9" font-family="sans" font-size="12.00" fill="#c4c7c7">Computer Architectures</text>
</a>
</g>
</g>
<!-- Knowledege Base&#45;&gt;Computer Architectures -->
<g id="edge2" class="edge">
<title>Knowledege Base&#45;&gt;Computer Architectures</title>
<path fill="none" stroke="#b75867" d="M143,-313.36C148.13,-371.4 166.9,-549.42 207,-588 216.89,-597.51 229.45,-603.62 242.71,-607.44"/>
<polygon fill="#b75867" stroke="#b75867" points="241.91,-610.84 252.46,-609.83 243.58,-604.04 241.91,-610.84"/>
</g>
<!-- Numeric Methods -->
<g id="node4" class="node">
<title>Numeric Methods</title>
<g id="a_node4"><a xlink:href="../Numeric Methods.html" xlink:title="Numeric Methods" target="_parent">
<path fill="#273434" stroke="#b75867" d="M374,-591C374,-591 282,-591 282,-591 276,-591 270,-585 270,-579 270,-579 270,-567 270,-567 270,-561 276,-555 282,-555 282,-555 374,-555 374,-555 380,-555 386,-561 386,-567 386,-567 386,-579 386,-579 386,-585 380,-591 374,-591"/>
<text text-anchor="middle" x="328" y="-569.9" font-family="sans" font-size="12.00" fill="#c4c7c7">Numeric Methods</text>
</a>
</g>
</g>
<!-- Knowledege Base&#45;&gt;Numeric Methods -->
<g id="edge3" class="edge">
<title>Knowledege Base&#45;&gt;Numeric Methods</title>
<path fill="none" stroke="#b75867" d="M143.63,-313.26C150.17,-366.2 171.7,-518.06 207,-551 221.24,-564.29 240.74,-570.87 259.88,-573.85"/>
<polygon fill="#b75867" stroke="#b75867" points="259.46,-577.32 269.82,-575.09 260.33,-570.38 259.46,-577.32"/>
</g>
<!-- Design and Analysis of Algorithms -->
<g id="node5" class="node">
<title>Design and Analysis of Algorithms</title>
<g id="a_node5"><a xlink:href="../Design and Analysis of Algorithms.html" xlink:title="Design and Analysis of Algorithms" target="_parent">
<path fill="#273434" stroke="#b75867" d="M419,-554C419,-554 237,-554 237,-554 231,-554 225,-548 225,-542 225,-542 225,-530 225,-530 225,-524 231,-518 237,-518 237,-518 419,-518 419,-518 425,-518 431,-524 431,-530 431,-530 431,-542 431,-542 431,-548 425,-554 419,-554"/>
<text text-anchor="middle" x="328" y="-532.9" font-family="sans" font-size="12.00" fill="#c4c7c7">Design and Analysis of Algorithms</text>
</a>
</g>
</g>
<!-- Knowledege Base&#45;&gt;Design and Analysis of Algorithms -->
<g id="edge4" class="edge">
<title>Knowledege Base&#45;&gt;Design and Analysis of Algorithms</title>
<path fill="none" stroke="#b75867" d="M141.05,-313.29C141.07,-355.6 147.45,-460.63 207,-514 209.85,-516.55 212.89,-518.86 216.09,-520.93"/>
<polygon fill="#b75867" stroke="#b75867" points="214.46,-524.03 224.89,-525.9 217.9,-517.94 214.46,-524.03"/>
</g>
<!-- Logic Programming -->
<g id="node6" class="node">
<title>Logic Programming</title>
<g id="a_node6"><a xlink:href="../Logic Programming.html" xlink:title="Logic Programming" target="_parent">
<path fill="#273434" stroke="#b75867" d="M379,-517C379,-517 277,-517 277,-517 271,-517 265,-511 265,-505 265,-505 265,-493 265,-493 265,-487 271,-481 277,-481 277,-481 379,-481 379,-481 385,-481 391,-487 391,-493 391,-493 391,-505 391,-505 391,-511 385,-517 379,-517"/>
<text text-anchor="middle" x="328" y="-495.9" font-family="sans" font-size="12.00" fill="#c4c7c7">Logic Programming</text>
</a>
</g>
</g>
<!-- Knowledege Base&#45;&gt;Logic Programming -->
<g id="edge5" class="edge">
<title>Knowledege Base&#45;&gt;Logic Programming</title>
<path fill="none" stroke="#b75867" d="M142.31,-313.01C145.01,-349.93 156.67,-434.32 207,-477 220.3,-488.28 237.46,-494.58 254.62,-497.94"/>
<polygon fill="#b75867" stroke="#b75867" points="254.26,-501.42 264.69,-499.59 255.39,-494.52 254.26,-501.42"/>
</g>
<!-- Data Structures -->
<g id="node7" class="node">
<title>Data Structures</title>
<g id="a_node7"><a xlink:href="../Data Structures.html" xlink:title="Data Structures" target="_parent">
<path fill="#273434" stroke="#b75867" d="M368,-480C368,-480 288,-480 288,-480 282,-480 276,-474 276,-468 276,-468 276,-456 276,-456 276,-450 282,-444 288,-444 288,-444 368,-444 368,-444 374,-444 380,-450 380,-456 380,-456 380,-468 380,-468 380,-474 374,-480 368,-480"/>
<text text-anchor="middle" x="328" y="-458.9" font-family="sans" font-size="12.00" fill="#c4c7c7">Data Structures</text>
</a>
</g>
</g>
<!-- Knowledege Base&#45;&gt;Data Structures -->
<g id="edge6" class="edge">
<title>Knowledege Base&#45;&gt;Data Structures</title>
<path fill="none" stroke="#b75867" d="M144.25,-313.48C149.95,-344.8 166.1,-408 207,-440 223.55,-452.95 245.31,-459.17 265.74,-461.92"/>
<polygon fill="#b75867" stroke="#b75867" points="265.63,-465.43 275.95,-463.04 266.39,-458.47 265.63,-465.43"/>
</g>
<!-- Languages, Automata and Computation -->
<g id="node8" class="node">
<title>Languages, Automata and Computation</title>
<g id="a_node8"><a xlink:href="../Languages, Automata and Computation.html" xlink:title="Languages, Automata and Computation" target="_parent">
<path fill="#273434" stroke="#b75867" d="M437,-443C437,-443 219,-443 219,-443 213,-443 207,-437 207,-431 207,-431 207,-419 207,-419 207,-413 213,-407 219,-407 219,-407 437,-407 437,-407 443,-407 449,-413 449,-419 449,-419 449,-431 449,-431 449,-437 443,-443 437,-443"/>
<text text-anchor="middle" x="328" y="-421.9" font-family="sans" font-size="12.00" fill="#c4c7c7">Languages, Automata and Computation</text>
</a>
</g>
</g>
<!-- Knowledege Base&#45;&gt;Languages, Automata and Computation -->
<g id="edge7" class="edge">
<title>Knowledege Base&#45;&gt;Languages, Automata and Computation</title>
<path fill="none" stroke="#b75867" d="M147.23,-313.21C155.32,-335.95 172.27,-374.66 205.01,-400.87"/>
<polygon fill="#b75867" stroke="#b75867" points="203.07,-403.78 213.19,-406.91 207.23,-398.15 203.07,-403.78"/>
</g>
<!-- Operations Research -->
<g id="node9" class="node">
<title>Operations Research</title>
<g id="a_node9"><a xlink:href="../Operations Research.html" xlink:title="Operations Research" target="_parent">
<path fill="#273434" stroke="#b75867" d="M382.5,-406C382.5,-406 273.5,-406 273.5,-406 267.5,-406 261.5,-400 261.5,-394 261.5,-394 261.5,-382 261.5,-382 261.5,-376 267.5,-370 273.5,-370 273.5,-370 382.5,-370 382.5,-370 388.5,-370 394.5,-376 394.5,-382 394.5,-382 394.5,-394 394.5,-394 394.5,-400 388.5,-406 382.5,-406"/>
<text text-anchor="middle" x="328" y="-384.9" font-family="sans" font-size="12.00" fill="#c4c7c7">Operations Research</text>
</a>
</g>
</g>
<!-- Knowledege Base&#45;&gt;Operations Research -->
<g id="edge8" class="edge">
<title>Knowledege Base&#45;&gt;Operations Research</title>
<path fill="none" stroke="#b75867" d="M153.19,-313.26C164.77,-329.77 184.08,-353.38 207,-366 220.47,-373.42 235.95,-378.4 251.22,-381.73"/>
<polygon fill="#b75867" stroke="#b75867" points="250.71,-385.19 261.19,-383.69 252.06,-378.33 250.71,-385.19"/>
</g>
<!-- Differential Equations -->
<g id="node10" class="node">
<title>Differential Equations</title>
<g id="a_node10"><a xlink:href="../Differential Equations.html" xlink:title="Differential Equations" target="_parent">
<path fill="#273434" stroke="#b75867" d="M385,-369C385,-369 271,-369 271,-369 265,-369 259,-363 259,-357 259,-357 259,-345 259,-345 259,-339 265,-333 271,-333 271,-333 385,-333 385,-333 391,-333 397,-339 397,-345 397,-345 397,-357 397,-357 397,-363 391,-369 385,-369"/>
<text text-anchor="middle" x="328" y="-347.9" font-family="sans" font-size="12.00" fill="#c4c7c7">Differential Equations</text>
</a>
</g>
</g>
<!-- Knowledege Base&#45;&gt;Differential Equations -->
<g id="edge9" class="edge">
<title>Knowledege Base&#45;&gt;Differential Equations</title>
<path fill="none" stroke="#b75867" d="M171.65,-313.04C182.49,-318.87 195,-324.89 207,-329 220.22,-333.53 234.6,-337.19 248.66,-340.12"/>
<polygon fill="#b75867" stroke="#b75867" points="248.33,-343.62 258.82,-342.13 249.69,-336.75 248.33,-343.62"/>
</g>
<!-- OOP -->
<g id="node11" class="node">
<title>OOP</title>
<g id="a_node11"><a xlink:href="../OOP.html" xlink:title="OOP" target="_parent">
<path fill="#273434" stroke="#b75867" d="M343,-332C343,-332 313,-332 313,-332 307,-332 301,-326 301,-320 301,-320 301,-308 301,-308 301,-302 307,-296 313,-296 313,-296 343,-296 343,-296 349,-296 355,-302 355,-308 355,-308 355,-320 355,-320 355,-326 349,-332 343,-332"/>
<text text-anchor="middle" x="328" y="-310.9" font-family="sans" font-size="12.00" fill="#c4c7c7">OOP</text>
</a>
</g>
</g>
<!-- Knowledege Base&#45;&gt;OOP -->
<g id="edge10" class="edge">
<title>Knowledege Base&#45;&gt;OOP</title>
<path fill="none" stroke="#b75867" d="M199.18,-300.91C229.09,-303.97 264.71,-307.62 290.74,-310.29"/>
<polygon fill="#b75867" stroke="#b75867" points="290.61,-313.79 300.91,-311.33 291.32,-306.83 290.61,-313.79"/>
</g>
<!-- Discrete Structures -->
<g id="node12" class="node">
<title>Discrete Structures</title>
<g id="a_node12"><a xlink:href="../Discrete Structures.html" xlink:title="Discrete Structures" target="_parent">
<path fill="#273434" stroke="#b75867" d="M377,-295C377,-295 279,-295 279,-295 273,-295 267,-289 267,-283 267,-283 267,-271 267,-271 267,-265 273,-259 279,-259 279,-259 377,-259 377,-259 383,-259 389,-265 389,-271 389,-271 389,-283 389,-283 389,-289 383,-295 377,-295"/>
<text text-anchor="middle" x="328" y="-273.9" font-family="sans" font-size="12.00" fill="#c4c7c7">Discrete Structures</text>
</a>
</g>
</g>
<!-- Knowledege Base&#45;&gt;Discrete Structures -->
<g id="edge11" class="edge">
<title>Knowledege Base&#45;&gt;Discrete Structures</title>
<path fill="none" stroke="#b75867" d="M199.18,-289.4C217.39,-287.64 237.71,-285.66 256.7,-283.82"/>
<polygon fill="#b75867" stroke="#b75867" points="257.18,-287.29 266.79,-282.84 256.5,-280.32 257.18,-287.29"/>
</g>
<!-- Advanced Algebra -->
<g id="node13" class="node">
<title>Advanced Algebra</title>
<g id="a_node13"><a xlink:href="../Advanced Algebra.html" xlink:title="Advanced Algebra" target="_parent">
<path fill="#273434" stroke="#b75867" d="M375.5,-258C375.5,-258 280.5,-258 280.5,-258 274.5,-258 268.5,-252 268.5,-246 268.5,-246 268.5,-234 268.5,-234 268.5,-228 274.5,-222 280.5,-222 280.5,-222 375.5,-222 375.5,-222 381.5,-222 387.5,-228 387.5,-234 387.5,-234 387.5,-246 387.5,-246 387.5,-252 381.5,-258 375.5,-258"/>
<text text-anchor="middle" x="328" y="-236.9" font-family="sans" font-size="12.00" fill="#c4c7c7">Advanced Algebra</text>
</a>
</g>
</g>
<!-- Knowledege Base&#45;&gt;Advanced Algebra -->
<g id="edge12" class="edge">
<title>Knowledege Base&#45;&gt;Advanced Algebra</title>
<path fill="none" stroke="#b75867" d="M173.03,-276.83C183.56,-271.39 195.53,-265.85 207,-262 223.36,-256.5 241.47,-252.28 258.56,-249.07"/>
<polygon fill="#b75867" stroke="#b75867" points="259.25,-252.5 268.47,-247.3 258.01,-245.61 259.25,-252.5"/>
</g>
<!-- Differential Analysis -->
<g id="node14" class="node">
<title>Differential Analysis</title>
<g id="a_node14"><a xlink:href="../Differential Analysis.html" xlink:title="Differential Analysis" target="_parent">
<path fill="#273434" stroke="#b75867" d="M379.5,-221C379.5,-221 276.5,-221 276.5,-221 270.5,-221 264.5,-215 264.5,-209 264.5,-209 264.5,-197 264.5,-197 264.5,-191 270.5,-185 276.5,-185 276.5,-185 379.5,-185 379.5,-185 385.5,-185 391.5,-191 391.5,-197 391.5,-197 391.5,-209 391.5,-209 391.5,-215 385.5,-221 379.5,-221"/>
<text text-anchor="middle" x="328" y="-199.9" font-family="sans" font-size="12.00" fill="#c4c7c7">Differential Analysis</text>
</a>
</g>
</g>
<!-- Knowledege Base&#45;&gt;Differential Analysis -->
<g id="edge13" class="edge">
<title>Knowledege Base&#45;&gt;Differential Analysis</title>
<path fill="none" stroke="#b75867" d="M153.24,-277C164.88,-260.72 184.21,-237.45 207,-225 221.39,-217.14 238.06,-212.02 254.3,-208.7"/>
<polygon fill="#b75867" stroke="#b75867" points="255.13,-212.11 264.34,-206.86 253.87,-205.22 255.13,-212.11"/>
</g>
<!-- Knowledege Base&#45;&gt;Differential Analysis -->
<g id="edge17" class="edge">
<title>Knowledege Base&#45;&gt;Differential Analysis</title>
<path fill="none" stroke="#b75867" d="M153.92,-276.84C165.62,-260.83 184.65,-238.21 207,-226 221.39,-218.14 238.06,-213.02 254.3,-209.68"/>
<polygon fill="#b75867" stroke="#b75867" points="255.14,-213.08 264.34,-207.82 253.87,-206.2 255.14,-213.08"/>
</g>
<!-- Introduction to programming -->
<g id="node15" class="node">
<title>Introduction to programming</title>
<g id="a_node15"><a xlink:href="../Introduction to programming.html" xlink:title="Introduction to programming" target="_parent">
<path fill="#273434" stroke="#b75867" d="M407.5,-184C407.5,-184 248.5,-184 248.5,-184 242.5,-184 236.5,-178 236.5,-172 236.5,-172 236.5,-160 236.5,-160 236.5,-154 242.5,-148 248.5,-148 248.5,-148 407.5,-148 407.5,-148 413.5,-148 419.5,-154 419.5,-160 419.5,-160 419.5,-172 419.5,-172 419.5,-178 413.5,-184 407.5,-184"/>
<text text-anchor="middle" x="328" y="-162.9" font-family="sans" font-size="12.00" fill="#c4c7c7">Introduction to programming</text>
</a>
</g>
</g>
<!-- Knowledege Base&#45;&gt;Introduction to programming -->
<g id="edge14" class="edge">
<title>Knowledege Base&#45;&gt;Introduction to programming</title>
<path fill="none" stroke="#b75867" d="M147.28,-276.95C156.07,-252.61 175.21,-209.81 207,-188 213.06,-183.84 219.69,-180.4 226.61,-177.57"/>
<polygon fill="#b75867" stroke="#b75867" points="228.02,-180.78 236.22,-174.07 225.62,-174.21 228.02,-180.78"/>
</g>
<!-- Analytic Geometry -->
<g id="node16" class="node">
<title>Analytic Geometry</title>
<g id="a_node16"><a xlink:href="../Analytic Geometry.html" xlink:title="Analytic Geometry" target="_parent">
<path fill="#273434" stroke="#b75867" d="M376.5,-147C376.5,-147 279.5,-147 279.5,-147 273.5,-147 267.5,-141 267.5,-135 267.5,-135 267.5,-123 267.5,-123 267.5,-117 273.5,-111 279.5,-111 279.5,-111 376.5,-111 376.5,-111 382.5,-111 388.5,-117 388.5,-123 388.5,-123 388.5,-135 388.5,-135 388.5,-141 382.5,-147 376.5,-147"/>
<text text-anchor="middle" x="328" y="-125.9" font-family="sans" font-size="12.00" fill="#c4c7c7">Analytic Geometry</text>
</a>
</g>
</g>
<!-- Knowledege Base&#45;&gt;Analytic Geometry -->
<g id="edge15" class="edge">
<title>Knowledege Base&#45;&gt;Analytic Geometry</title>
<path fill="none" stroke="#b75867" d="M144.29,-276.64C150.05,-245.53 166.29,-182.76 207,-151 221.37,-139.79 239.64,-133.63 257.57,-130.39"/>
<polygon fill="#b75867" stroke="#b75867" points="258.1,-133.85 267.46,-128.88 257.05,-126.93 258.1,-133.85"/>
</g>
<!-- Linear Algebra -->
<g id="node17" class="node">
<title>Linear Algebra</title>
<g id="a_node17"><a xlink:href="../Linear Algebra.html" xlink:title="Linear Algebra" target="_parent">
<path fill="#273434" stroke="#b75867" d="M365,-110C365,-110 291,-110 291,-110 285,-110 279,-104 279,-98 279,-98 279,-86 279,-86 279,-80 285,-74 291,-74 291,-74 365,-74 365,-74 371,-74 377,-80 377,-86 377,-86 377,-98 377,-98 377,-104 371,-110 365,-110"/>
<text text-anchor="middle" x="328" y="-88.9" font-family="sans" font-size="12.00" fill="#c4c7c7">Linear Algebra</text>
</a>
</g>
</g>
<!-- Knowledege Base&#45;&gt;Linear Algebra -->
<g id="edge16" class="edge">
<title>Knowledege Base&#45;&gt;Linear Algebra</title>
<path fill="none" stroke="#b75867" d="M142.37,-276.81C145.17,-239.94 157.01,-156.32 207,-114 224.03,-99.59 247.35,-93.31 268.92,-90.91"/>
<polygon fill="#b75867" stroke="#b75867" points="269.33,-94.39 279,-90.05 268.73,-87.42 269.33,-94.39"/>
</g>
<!-- Org Roam -->
<g id="node18" class="node">
<title>Org Roam</title>
<g id="a_node18"><a xlink:href="../Org Roam.html" xlink:title="Org Roam" target="_parent">
<path fill="#273434" stroke="#b75867" d="M352,-73C352,-73 304,-73 304,-73 298,-73 292,-67 292,-61 292,-61 292,-49 292,-49 292,-43 298,-37 304,-37 304,-37 352,-37 352,-37 358,-37 364,-43 364,-49 364,-49 364,-61 364,-61 364,-67 358,-73 352,-73"/>
<text text-anchor="middle" x="328" y="-51.9" font-family="sans" font-size="12.00" fill="#c4c7c7">Org Roam</text>
</a>
</g>
</g>
<!-- Knowledege Base&#45;&gt;Org Roam -->
<g id="edge18" class="edge">
<title>Knowledege Base&#45;&gt;Org Roam</title>
<path fill="none" stroke="#b75867" d="M141.07,-276.79C141.16,-234.67 147.67,-130.11 207,-77 227.02,-59.08 256.67,-53.52 281.49,-52.47"/>
<polygon fill="#b75867" stroke="#b75867" points="281.86,-55.96 291.79,-52.27 281.72,-48.96 281.86,-55.96"/>
</g>
<!-- Projects -->
<g id="node19" class="node">
<title>Projects</title>
<g id="a_node19"><a xlink:href="../Projects.html" xlink:title="Projects" target="_parent">
<path fill="none" stroke="#b75867" d="M347,-36C347,-36 309,-36 309,-36 303,-36 297,-30 297,-24 297,-24 297,-12 297,-12 297,-6 303,0 309,0 309,0 347,0 347,0 353,0 359,-6 359,-12 359,-12 359,-24 359,-24 359,-30 353,-36 347,-36"/>
<text text-anchor="middle" x="328" y="-14.9" font-family="sans" font-size="12.00" fill="#c4c7c7">Projects</text>
</a>
</g>
</g>
<!-- Knowledege Base&#45;&gt;Projects -->
<g id="edge20" class="edge">
<title>Knowledege Base&#45;&gt;Projects</title>
<path fill="none" stroke="#ffffff" d="M144.95,-266.57C152.78,-206.75 173.87,-70.88 207,-40 231.01,-17.61 269.94,-14.27 296.92,-15.12"/>
<polygon fill="#ffffff" stroke="#ffffff" points="141.43,-266.44 143.64,-276.81 148.38,-267.33 141.43,-266.44"/>
</g>
</g>
</svg>
