<?xml version="1.0" encoding="UTF-8" standalone="no"?>
<!DOCTYPE svg PUBLIC "-//W3C//DTD SVG 1.1//EN"
 "http://www.w3.org/Graphics/SVG/1.1/DTD/svg11.dtd">
<!-- Generated by graphviz version 2.44.0 (0)
 -->
<!-- Title: Partition Pages: 1 -->
<svg width="557pt" height="116pt"
 viewBox="0.00 0.00 556.98 116.00" xmlns="http://www.w3.org/2000/svg" xmlns:xlink="http://www.w3.org/1999/xlink">
<g id="page0,1_graph0" class="graph" transform="scale(1 1) rotate(0) translate(4 112)">
<title>Partition</title>
<polygon fill="#132020" stroke="transparent" points="-4,4 -4,-112 552.98,-112 552.98,4 -4,4"/>
<!-- Partition -->
<g id="node1" class="node">
<title>Partition</title>
<g id="a_node1"><a xlink:title="Partition">
<path fill="#273434" stroke="#b75867" d="M291.14,-108C291.14,-108 250.14,-108 250.14,-108 244.14,-108 238.14,-102 238.14,-96 238.14,-96 238.14,-84 238.14,-84 238.14,-78 244.14,-72 250.14,-72 250.14,-72 291.14,-72 291.14,-72 297.14,-72 303.14,-78 303.14,-84 303.14,-84 303.14,-96 303.14,-96 303.14,-102 297.14,-108 291.14,-108"/>
<text text-anchor="middle" x="270.64" y="-86.9" font-family="sans" font-size="12.00" fill="#c4c7c7">Partition</text>
</a>
</g>
</g>
<!-- Class of equivalence -->
<g id="node2" class="node">
<title>Class of equivalence</title>
<g id="a_node2"><a xlink:title="Class of equivalence">
<ellipse fill="#273434" stroke="#b75867" cx="80.64" cy="-18" rx="80.78" ry="18"/>
<text text-anchor="middle" x="80.64" y="-14.9" font-family="sans" font-size="12.00" fill="#c4c7c7">Class of equivalence</text>
</a>
</g>
</g>
<!-- Partition&#45;&gt;Class of equivalence -->
<g id="edge1" class="edge">
<title>Partition&#45;&gt;Class of equivalence</title>
<path fill="none" stroke="#ffffff" d="M228.38,-73.43C196.15,-61.56 152.06,-45.31 120.45,-33.67"/>
<polygon fill="#ffffff" stroke="#ffffff" points="227.39,-76.79 237.98,-76.97 229.81,-70.23 227.39,-76.79"/>
</g>
<!-- Relation of Equivalence -->
<g id="node3" class="node">
<title>Relation of Equivalence</title>
<g id="a_node3"><a xlink:title="Relation of Equivalence">
<ellipse fill="#273434" stroke="#b75867" cx="270.64" cy="-18" rx="91.95" ry="18"/>
<text text-anchor="middle" x="270.64" y="-14.9" font-family="sans" font-size="12.00" fill="#c4c7c7">Relation of Equivalence</text>
</a>
</g>
</g>
<!-- Partition&#45;&gt;Relation of Equivalence -->
<g id="edge2" class="edge">
<title>Partition&#45;&gt;Relation of Equivalence</title>
<path fill="none" stroke="#ffffff" d="M270.64,-61.67C270.64,-53.05 270.64,-43.79 270.64,-36.1"/>
<polygon fill="#ffffff" stroke="#ffffff" points="267.14,-61.7 270.64,-71.7 274.14,-61.7 267.14,-61.7"/>
</g>
<!-- Principle of partitions -->
<g id="node4" class="node">
<title>Principle of partitions</title>
<g id="a_node4"><a xlink:title="Principle of partitions">
<ellipse fill="#273434" stroke="#b75867" cx="464.64" cy="-18" rx="84.17" ry="18"/>
<text text-anchor="middle" x="464.64" y="-14.9" font-family="sans" font-size="12.00" fill="#c4c7c7">Principle of partitions</text>
</a>
</g>
</g>
<!-- Partition&#45;&gt;Principle of partitions -->
<g id="edge3" class="edge">
<title>Partition&#45;&gt;Principle of partitions</title>
<path fill="none" stroke="#ffffff" d="M313.3,-73.61C346.07,-61.78 391.06,-45.55 423.46,-33.86"/>
<polygon fill="#ffffff" stroke="#ffffff" points="311.77,-70.44 303.55,-77.13 314.15,-77.02 311.77,-70.44"/>
</g>
</g>
</svg>
