<?xml version="1.0" encoding="UTF-8" standalone="no"?>
<!DOCTYPE svg PUBLIC "-//W3C//DTD SVG 1.1//EN"
 "http://www.w3.org/Graphics/SVG/1.1/DTD/svg11.dtd">
<!-- Generated by graphviz version 2.44.0 (0)
 -->
<!-- Title: Partial order Pages: 1 -->
<svg width="1090pt" height="436pt"
 viewBox="0.00 0.00 1090.00 436.44" xmlns="http://www.w3.org/2000/svg" xmlns:xlink="http://www.w3.org/1999/xlink">
<g id="page0,1_graph0" class="graph" transform="scale(1 1) rotate(0) translate(4 432.44)">
<title>Partial order</title>
<polygon fill="#132020" stroke="transparent" points="-4,4 -4,-432.44 1086,-432.44 1086,4 -4,4"/>
<!-- Partial order -->
<g id="node1" class="node">
<title>Partial order</title>
<g id="a_node1"><a xlink:href="../Partial order.html" xlink:title="Partial order" target="_parent">
<path fill="#273434" stroke="#b75867" d="M74,-86.41C74,-86.41 12,-86.41 12,-86.41 6,-86.41 0,-80.41 0,-74.41 0,-74.41 0,-62.41 0,-62.41 0,-56.41 6,-50.41 12,-50.41 12,-50.41 74,-50.41 74,-50.41 80,-50.41 86,-56.41 86,-62.41 86,-62.41 86,-74.41 86,-74.41 86,-80.41 80,-86.41 74,-86.41"/>
<text text-anchor="middle" x="43" y="-65.31" font-family="sans" font-size="12.00" fill="#c4c7c7">Partial order</text>
</a>
</g>
</g>
<!-- Transitive Relation -->
<g id="node2" class="node">
<title>Transitive Relation</title>
<g id="a_node2"><a xlink:href="../Transitive Relation.html" xlink:title="Transitive Relation" target="_parent">
<path fill="#273434" stroke="#b75867" d="M203,-96.41C203,-96.41 106,-96.41 106,-96.41 100,-96.41 94,-90.41 94,-84.41 94,-84.41 94,-72.41 94,-72.41 94,-66.41 100,-60.41 106,-60.41 106,-60.41 203,-60.41 203,-60.41 209,-60.41 215,-66.41 215,-72.41 215,-72.41 215,-84.41 215,-84.41 215,-90.41 209,-96.41 203,-96.41"/>
<text text-anchor="middle" x="154.5" y="-75.31" font-family="sans" font-size="12.00" fill="#c4c7c7">Transitive Relation</text>
</a>
</g>
</g>
<!-- Partial order&#45;&gt;Transitive Relation -->
<g id="edge1" class="edge">
<title>Partial order&#45;&gt;Transitive Relation</title>
<path fill="none" stroke="#b75867" d="M86.02,-72.25C86.18,-72.26 86.34,-72.28 86.5,-72.29"/>
<polygon fill="#b75867" stroke="#b75867" points="83.44,-75.53 93.71,-72.95 84.07,-68.55 83.44,-75.53"/>
</g>
<!-- Anti&#45;symmetric Relation -->
<g id="node3" class="node">
<title>Anti&#45;symmetric Relation</title>
<g id="a_node3"><a xlink:href="../Anti-symmetric Relation.html" xlink:title="Anti&#45;symmetric Relation" target="_parent">
<path fill="#273434" stroke="#b75867" d="M435,-154.41C435,-154.41 307,-154.41 307,-154.41 301,-154.41 295,-148.41 295,-142.41 295,-142.41 295,-130.41 295,-130.41 295,-124.41 301,-118.41 307,-118.41 307,-118.41 435,-118.41 435,-118.41 441,-118.41 447,-124.41 447,-130.41 447,-130.41 447,-142.41 447,-142.41 447,-148.41 441,-154.41 435,-154.41"/>
<text text-anchor="middle" x="371" y="-133.31" font-family="sans" font-size="12.00" fill="#c4c7c7">Anti&#45;symmetric Relation</text>
</a>
</g>
</g>
<!-- Partial order&#45;&gt;Anti&#45;symmetric Relation -->
<g id="edge2" class="edge">
<title>Partial order&#45;&gt;Anti&#45;symmetric Relation</title>
<path fill="none" stroke="#b75867" d="M64.49,-86.78C73.04,-93.44 83.43,-100.31 94,-104.41 127.74,-117.49 216.75,-126.23 284.64,-131.22"/>
<polygon fill="#b75867" stroke="#b75867" points="284.7,-134.74 294.92,-131.96 285.2,-127.75 284.7,-134.74"/>
</g>
<!-- Reflexive Relation -->
<g id="node4" class="node">
<title>Reflexive Relation</title>
<g id="a_node4"><a xlink:href="../Reflexive Relation.html" xlink:title="Reflexive Relation" target="_parent">
<path fill="#273434" stroke="#b75867" d="M647.5,-96.41C647.5,-96.41 554.5,-96.41 554.5,-96.41 548.5,-96.41 542.5,-90.41 542.5,-84.41 542.5,-84.41 542.5,-72.41 542.5,-72.41 542.5,-66.41 548.5,-60.41 554.5,-60.41 554.5,-60.41 647.5,-60.41 647.5,-60.41 653.5,-60.41 659.5,-66.41 659.5,-72.41 659.5,-72.41 659.5,-84.41 659.5,-84.41 659.5,-90.41 653.5,-96.41 647.5,-96.41"/>
<text text-anchor="middle" x="601" y="-75.31" font-family="sans" font-size="12.00" fill="#c4c7c7">Reflexive Relation</text>
</a>
</g>
</g>
<!-- Partial order&#45;&gt;Reflexive Relation -->
<g id="edge3" class="edge">
<title>Partial order&#45;&gt;Reflexive Relation</title>
<path fill="none" stroke="#b75867" d="M86.27,-63.98C88.88,-63.77 91.48,-63.57 94,-63.41 164.99,-58.76 182.85,-58.41 254,-58.41 254,-58.41 254,-58.41 372,-58.41 426.12,-58.41 487.19,-64.07 532.49,-69.37"/>
<polygon fill="#b75867" stroke="#b75867" points="532.15,-72.85 542.49,-70.56 532.98,-65.9 532.15,-72.85"/>
</g>
<!-- Relation -->
<g id="node5" class="node">
<title>Relation</title>
<g id="a_node5"><a xlink:href="../Relation.html" xlink:title="Relation" target="_parent">
<path fill="#273434" stroke="#b75867" d="M275,-174.41C275,-174.41 235,-174.41 235,-174.41 229,-174.41 223,-168.41 223,-162.41 223,-162.41 223,-150.41 223,-150.41 223,-144.41 229,-138.41 235,-138.41 235,-138.41 275,-138.41 275,-138.41 281,-138.41 287,-144.41 287,-150.41 287,-150.41 287,-162.41 287,-162.41 287,-168.41 281,-174.41 275,-174.41"/>
<text text-anchor="middle" x="255" y="-153.31" font-family="sans" font-size="12.00" fill="#c4c7c7">Relation</text>
</a>
</g>
</g>
<!-- Partial order&#45;&gt;Relation -->
<g id="edge4" class="edge">
<title>Partial order&#45;&gt;Relation</title>
<path fill="none" stroke="#b75867" d="M56.11,-86.44C65.14,-98.47 78.56,-113.64 94,-122.41 130.81,-143.32 179.01,-151.41 212.85,-154.51"/>
<polygon fill="#b75867" stroke="#b75867" points="212.61,-158.01 222.86,-155.33 213.17,-151.03 212.61,-158.01"/>
</g>
<!-- Linear extension -->
<g id="node6" class="node">
<title>Linear extension</title>
<g id="a_node6"><a xlink:href="../Linear extension.html" xlink:title="Linear extension" target="_parent">
<path fill="none" stroke="#b75867" d="M1023.5,-104.41C1023.5,-104.41 937.5,-104.41 937.5,-104.41 931.5,-104.41 925.5,-98.41 925.5,-92.41 925.5,-92.41 925.5,-80.41 925.5,-80.41 925.5,-74.41 931.5,-68.41 937.5,-68.41 937.5,-68.41 1023.5,-68.41 1023.5,-68.41 1029.5,-68.41 1035.5,-74.41 1035.5,-80.41 1035.5,-80.41 1035.5,-92.41 1035.5,-92.41 1035.5,-98.41 1029.5,-104.41 1023.5,-104.41"/>
<text text-anchor="middle" x="980.5" y="-83.31" font-family="sans" font-size="12.00" fill="#c4c7c7">Linear extension</text>
</a>
</g>
</g>
<!-- Partial order&#45;&gt;Linear extension -->
<g id="edge5" class="edge">
<title>Partial order&#45;&gt;Linear extension</title>
<path fill="none" stroke="#ffffff" d="M89.02,-46.89C90.69,-46.35 92.35,-45.86 94,-45.41 162.96,-26.66 182.53,-29.41 254,-29.41 254,-29.41 254,-29.41 602,-29.41 721.58,-29.41 776.86,39.32 871,-34.41 881.86,-42.92 869.02,-54.87 879,-64.41 891.39,-76.26 908.63,-82.31 925.32,-85.25"/>
<polygon fill="#ffffff" stroke="#ffffff" points="87.72,-43.64 79.52,-50.35 90.11,-50.22 87.72,-43.64"/>
</g>
<!-- Relations -->
<g id="node7" class="node">
<title>Relations</title>
<g id="a_node7"><a xlink:href="../Relations.html" xlink:title="Relations" target="_parent">
<path fill="none" stroke="#b75867" d="M512,-156.41C512,-156.41 467,-156.41 467,-156.41 461,-156.41 455,-150.41 455,-144.41 455,-144.41 455,-132.41 455,-132.41 455,-126.41 461,-120.41 467,-120.41 467,-120.41 512,-120.41 512,-120.41 518,-120.41 524,-126.41 524,-132.41 524,-132.41 524,-144.41 524,-144.41 524,-150.41 518,-156.41 512,-156.41"/>
<text text-anchor="middle" x="489.5" y="-135.31" font-family="sans" font-size="12.00" fill="#c4c7c7">Relations</text>
</a>
</g>
</g>
<!-- Partial order&#45;&gt;Relations -->
<g id="edge6" class="edge">
<title>Partial order&#45;&gt;Relations</title>
<path fill="none" stroke="#ffffff" d="M79.02,-91.38C83.9,-93.78 88.96,-95.89 94,-97.41 131.62,-108.74 408.97,-108.53 447,-118.41 449.63,-119.09 452.3,-119.95 454.94,-120.92"/>
<polygon fill="#ffffff" stroke="#ffffff" points="80.4,-88.15 69.93,-86.5 77.08,-94.32 80.4,-88.15"/>
</g>
<!-- Linear order -->
<g id="node8" class="node">
<title>Linear order</title>
<g id="a_node8"><a xlink:href="../Linear order.html" xlink:title="Linear order" target="_parent">
<path fill="none" stroke="#b75867" d="M805.5,-104.41C805.5,-104.41 743.5,-104.41 743.5,-104.41 737.5,-104.41 731.5,-98.41 731.5,-92.41 731.5,-92.41 731.5,-80.41 731.5,-80.41 731.5,-74.41 737.5,-68.41 743.5,-68.41 743.5,-68.41 805.5,-68.41 805.5,-68.41 811.5,-68.41 817.5,-74.41 817.5,-80.41 817.5,-80.41 817.5,-92.41 817.5,-92.41 817.5,-98.41 811.5,-104.41 805.5,-104.41"/>
<text text-anchor="middle" x="774.5" y="-83.31" font-family="sans" font-size="12.00" fill="#c4c7c7">Linear order</text>
</a>
</g>
</g>
<!-- Partial order&#45;&gt;Linear order -->
<g id="edge7" class="edge">
<title>Partial order&#45;&gt;Linear order</title>
<path fill="none" stroke="#ffffff" d="M96.45,-59.26C166.47,-51.61 186.02,-52.41 254,-52.41 254,-52.41 254,-52.41 490.5,-52.41 530.4,-52.41 632.84,-42.85 670,-57.41 674.4,-59.13 673.79,-62.26 678,-64.41 694.36,-72.77 713.91,-78 731.05,-81.24"/>
<polygon fill="#ffffff" stroke="#ffffff" points="95.78,-55.81 86.22,-60.4 96.55,-62.77 95.78,-55.81"/>
</g>
<!-- Partial orders have no contours -->
<g id="node9" class="node">
<title>Partial orders have no contours</title>
<g id="a_node9"><a xlink:href="../Partial orders have no contours.html" xlink:title="Partial orders have no contours" target="_parent">
<path fill="none" stroke="#b75867" d="M859,-67.41C859,-67.41 690,-67.41 690,-67.41 684,-67.41 678,-61.41 678,-55.41 678,-55.41 678,-43.41 678,-43.41 678,-37.41 684,-31.41 690,-31.41 690,-31.41 859,-31.41 859,-31.41 865,-31.41 871,-37.41 871,-43.41 871,-43.41 871,-55.41 871,-55.41 871,-61.41 865,-67.41 859,-67.41"/>
<text text-anchor="middle" x="774.5" y="-46.31" font-family="sans" font-size="12.00" fill="#c4c7c7">Partial orders have no contours</text>
</a>
</g>
</g>
<!-- Partial order&#45;&gt;Partial orders have no contours -->
<g id="edge8" class="edge">
<title>Partial order&#45;&gt;Partial orders have no contours</title>
<path fill="none" stroke="#ffffff" d="M96.24,-52.3C165.88,-40.67 186.04,-46.41 254,-46.41 254,-46.41 254,-46.41 490.5,-46.41 552.9,-46.41 623.04,-47.15 677.88,-47.89"/>
<polygon fill="#ffffff" stroke="#ffffff" points="95.34,-48.9 86.08,-54.06 96.53,-55.8 95.34,-48.9"/>
</g>
<!-- Transitive Relation&#45;&gt;Partial order -->
<g id="edge15" class="edge">
<title>Transitive Relation&#45;&gt;Partial order</title>
<path fill="none" stroke="#ffffff" d="M86.5,-73.02C86.34,-73.01 86.18,-72.99 86.02,-72.98"/>
<polygon fill="#ffffff" stroke="#ffffff" points="83.43,-76.25 93.71,-73.7 84.08,-69.28 83.43,-76.25"/>
</g>
<!-- Transitive Relation&#45;&gt;Relation -->
<g id="edge9" class="edge">
<title>Transitive Relation&#45;&gt;Relation</title>
<path fill="none" stroke="#b75867" d="M178.35,-96.5C191.55,-106.96 208.36,-120.27 222.77,-131.68"/>
<polygon fill="#b75867" stroke="#b75867" points="220.92,-134.68 230.94,-138.15 225.27,-129.19 220.92,-134.68"/>
</g>
<!-- Transitive Relation&#45;&gt;Relations -->
<g id="edge12" class="edge">
<title>Transitive Relation&#45;&gt;Relations</title>
<path fill="none" stroke="#ffffff" d="M225.28,-72.26C286.2,-69.62 375.77,-72.43 447,-102.41 456.49,-106.4 465.36,-113.44 472.45,-120.23"/>
<polygon fill="#ffffff" stroke="#ffffff" points="224.82,-68.78 215,-72.77 225.17,-75.77 224.82,-68.78"/>
</g>
<!-- Transitive Relation&#45;&gt;Linear order -->
<g id="edge13" class="edge">
<title>Transitive Relation&#45;&gt;Linear order</title>
<path fill="none" stroke="#ffffff" d="M225.22,-72.27C337.14,-64.36 575.19,-44.22 670,-61.41 673.74,-62.09 674.36,-63.31 678,-64.41 695.27,-69.61 714.61,-74.28 731.35,-77.96"/>
<polygon fill="#ffffff" stroke="#ffffff" points="224.85,-68.79 215.12,-72.98 225.34,-75.77 224.85,-68.79"/>
</g>
<!-- Transitive Relation&#45;&gt;Partial orders have no contours -->
<g id="edge14" class="edge">
<title>Transitive Relation&#45;&gt;Partial orders have no contours</title>
<path fill="none" stroke="#ffffff" d="M225.38,-64.14C267.15,-56.81 321.4,-49.41 370,-49.41 370,-49.41 370,-49.41 490.5,-49.41 552.9,-49.41 623.03,-49.41 677.87,-49.41"/>
<polygon fill="#ffffff" stroke="#ffffff" points="224.53,-60.73 215.31,-65.94 225.77,-67.62 224.53,-60.73"/>
</g>
<!-- Transitive Closure -->
<g id="node10" class="node">
<title>Transitive Closure</title>
<g id="a_node10"><a xlink:href="../Transitive Closure.html" xlink:title="Transitive Closure" target="_parent">
<path fill="none" stroke="#b75867" d="M647,-133.41C647,-133.41 555,-133.41 555,-133.41 549,-133.41 543,-127.41 543,-121.41 543,-121.41 543,-109.41 543,-109.41 543,-103.41 549,-97.41 555,-97.41 555,-97.41 647,-97.41 647,-97.41 653,-97.41 659,-103.41 659,-109.41 659,-109.41 659,-121.41 659,-121.41 659,-127.41 653,-133.41 647,-133.41"/>
<text text-anchor="middle" x="601" y="-112.31" font-family="sans" font-size="12.00" fill="#c4c7c7">Transitive Closure</text>
</a>
</g>
</g>
<!-- Transitive Relation&#45;&gt;Transitive Closure -->
<g id="edge10" class="edge">
<title>Transitive Relation&#45;&gt;Transitive Closure</title>
<path fill="none" stroke="#ffffff" d="M225.32,-72.4C253.09,-71.38 261.44,-72.33 287,-72.41 358.11,-72.63 376.55,-63.69 447,-73.41 465.55,-75.97 507.58,-87.66 542.89,-98.06"/>
<polygon fill="#ffffff" stroke="#ffffff" points="224.95,-68.91 215.11,-72.82 225.25,-75.9 224.95,-68.91"/>
</g>
<!-- Relation of Equivalence -->
<g id="node11" class="node">
<title>Relation of Equivalence</title>
<g id="a_node11"><a xlink:href="../Relation of Equivalence.html" xlink:title="Relation of Equivalence" target="_parent">
<path fill="none" stroke="#b75867" d="M837,-256.41C837,-256.41 712,-256.41 712,-256.41 706,-256.41 700,-250.41 700,-244.41 700,-244.41 700,-232.41 700,-232.41 700,-226.41 706,-220.41 712,-220.41 712,-220.41 837,-220.41 837,-220.41 843,-220.41 849,-226.41 849,-232.41 849,-232.41 849,-244.41 849,-244.41 849,-250.41 843,-256.41 837,-256.41"/>
<text text-anchor="middle" x="774.5" y="-235.31" font-family="sans" font-size="12.00" fill="#c4c7c7">Relation of Equivalence</text>
</a>
</g>
</g>
<!-- Transitive Relation&#45;&gt;Relation of Equivalence -->
<g id="edge11" class="edge">
<title>Transitive Relation&#45;&gt;Relation of Equivalence</title>
<path fill="none" stroke="#ffffff" d="M158.65,-106.57C167.3,-168.95 197.73,-318.19 295,-380.41 436.12,-470.67 521.28,-419.51 670,-342.41 709.8,-321.77 743.8,-280.36 761.16,-256.48"/>
<polygon fill="#ffffff" stroke="#ffffff" points="162.12,-106.11 157.35,-96.65 155.17,-107.01 162.12,-106.11"/>
</g>
<!-- Anti&#45;symmetric Relation&#45;&gt;Partial order -->
<g id="edge18" class="edge">
<title>Anti&#45;symmetric Relation&#45;&gt;Partial order</title>
<path fill="none" stroke="#ffffff" d="M284.64,-132.02C216.75,-127.23 127.74,-118.49 94,-105.41 82.83,-101.08 71.86,-93.65 63.06,-86.57"/>
<polygon fill="#ffffff" stroke="#ffffff" points="284.7,-135.53 294.92,-132.73 285.19,-128.55 284.7,-135.53"/>
</g>
<!-- Anti&#45;symmetric Relation&#45;&gt;Relation -->
<g id="edge16" class="edge">
<title>Anti&#45;symmetric Relation&#45;&gt;Relation</title>
<path fill="none" stroke="#b75867" d="M294.89,-150.3C294.73,-150.33 294.56,-150.36 294.4,-150.39"/>
<polygon fill="#b75867" stroke="#b75867" points="296.42,-146.49 287.15,-151.62 297.6,-153.39 296.42,-146.49"/>
</g>
<!-- Anti&#45;symmetric Relation&#45;&gt;Relations -->
<g id="edge17" class="edge">
<title>Anti&#45;symmetric Relation&#45;&gt;Relations</title>
<path fill="none" stroke="#ffffff" d="M454.37,-137.82C454.53,-137.83 454.69,-137.83 454.85,-137.83"/>
<polygon fill="#ffffff" stroke="#ffffff" points="457.16,-134.37 447.1,-137.7 457.04,-141.37 457.16,-134.37"/>
</g>
<!-- Reflexive Relation&#45;&gt;Partial order -->
<g id="edge25" class="edge">
<title>Reflexive Relation&#45;&gt;Partial order</title>
<path fill="none" stroke="#ffffff" d="M532.49,-70.22C487.19,-65.07 426.12,-59.41 372,-59.41 254,-59.41 254,-59.41 254,-59.41 182.85,-59.41 164.99,-59.76 94,-64.41 91.48,-64.57 88.88,-64.77 86.27,-64.98"/>
<polygon fill="#ffffff" stroke="#ffffff" points="532.16,-73.7 542.49,-71.37 532.96,-66.75 532.16,-73.7"/>
</g>
<!-- Reflexive Relation&#45;&gt;Relation -->
<g id="edge19" class="edge">
<title>Reflexive Relation&#45;&gt;Relation</title>
<path fill="none" stroke="#b75867" d="M542.21,-76.58C478.55,-76.3 374.64,-82.3 295,-120.41 289.39,-123.09 284.06,-126.89 279.24,-131.01"/>
<polygon fill="#b75867" stroke="#b75867" points="276.55,-128.73 271.66,-138.13 281.35,-133.84 276.55,-128.73"/>
</g>
<!-- Reflexive Relation&#45;&gt;Relations -->
<g id="edge22" class="edge">
<title>Reflexive Relation&#45;&gt;Relations</title>
<path fill="none" stroke="#ffffff" d="M533.8,-99.96C533.19,-100.43 532.59,-100.92 532,-101.41 526.21,-106.26 529.04,-110.78 524,-116.41 522.78,-117.78 521.46,-119.1 520.07,-120.38"/>
<polygon fill="#ffffff" stroke="#ffffff" points="535.8,-102.83 542.25,-94.42 531.97,-96.98 535.8,-102.83"/>
</g>
<!-- Reflexive Relation&#45;&gt;Linear order -->
<g id="edge23" class="edge">
<title>Reflexive Relation&#45;&gt;Linear order</title>
<path fill="none" stroke="#ffffff" d="M669.64,-81.56C690.42,-82.53 712.69,-83.57 731.25,-84.44"/>
<polygon fill="#ffffff" stroke="#ffffff" points="669.74,-78.07 659.58,-81.1 669.41,-85.06 669.74,-78.07"/>
</g>
<!-- Reflexive Relation&#45;&gt;Partial orders have no contours -->
<g id="edge24" class="edge">
<title>Reflexive Relation&#45;&gt;Partial orders have no contours</title>
<path fill="none" stroke="#ffffff" d="M669.48,-67C672.25,-66.53 675.05,-66.06 677.87,-65.58"/>
<polygon fill="#ffffff" stroke="#ffffff" points="668.86,-63.55 659.58,-68.67 670.03,-70.46 668.86,-63.55"/>
</g>
<!-- Reflexive Relation&#45;&gt;Relation of Equivalence -->
<g id="edge21" class="edge">
<title>Reflexive Relation&#45;&gt;Relation of Equivalence</title>
<path fill="none" stroke="#ffffff" d="M667.4,-97.42C668.32,-98.37 669.18,-99.36 670,-100.41 685.91,-120.77 661.22,-196.76 678,-216.41 683.85,-223.27 691.38,-228.23 699.63,-231.79"/>
<polygon fill="#ffffff" stroke="#ffffff" points="669.58,-94.67 659.63,-91.02 665.13,-100.08 669.58,-94.67"/>
</g>
<!-- Reflexive Closure -->
<g id="node12" class="node">
<title>Reflexive Closure</title>
<g id="a_node12"><a xlink:href="../Reflexive Closure.html" xlink:title="Reflexive Closure" target="_parent">
<path fill="none" stroke="#b75867" d="M819,-216.41C819,-216.41 730,-216.41 730,-216.41 724,-216.41 718,-210.41 718,-204.41 718,-204.41 718,-192.41 718,-192.41 718,-186.41 724,-180.41 730,-180.41 730,-180.41 819,-180.41 819,-180.41 825,-180.41 831,-186.41 831,-192.41 831,-192.41 831,-204.41 831,-204.41 831,-210.41 825,-216.41 819,-216.41"/>
<text text-anchor="middle" x="774.5" y="-195.31" font-family="sans" font-size="12.00" fill="#c4c7c7">Reflexive Closure</text>
</a>
</g>
</g>
<!-- Reflexive Relation&#45;&gt;Reflexive Closure -->
<g id="edge20" class="edge">
<title>Reflexive Relation&#45;&gt;Reflexive Closure</title>
<path fill="none" stroke="#ffffff" d="M668.75,-99.68C669.17,-99.92 669.59,-100.16 670,-100.41 706.39,-122 740.35,-158.47 758.88,-180.31"/>
<polygon fill="#ffffff" stroke="#ffffff" points="670.08,-96.43 659.58,-94.97 666.88,-102.65 670.08,-96.43"/>
</g>
<!-- Relation&#45;&gt;Partial order -->
<g id="edge41" class="edge">
<title>Relation&#45;&gt;Partial order</title>
<path fill="none" stroke="#ffffff" d="M212.85,-155.32C179.01,-152.41 130.81,-144.32 94,-123.41 78.22,-114.45 64.57,-98.81 55.53,-86.5"/>
<polygon fill="#ffffff" stroke="#ffffff" points="212.63,-158.81 222.86,-156.06 213.15,-151.83 212.63,-158.81"/>
</g>
<!-- Relation&#45;&gt;Transitive Relation -->
<g id="edge29" class="edge">
<title>Relation&#45;&gt;Transitive Relation</title>
<path fill="none" stroke="#ffffff" d="M222.16,-131.9C207.7,-120.53 190.95,-107.24 177.85,-96.75"/>
<polygon fill="#ffffff" stroke="#ffffff" points="220.34,-134.92 230.36,-138.34 224.66,-129.42 220.34,-134.92"/>
</g>
<!-- Relation&#45;&gt;Anti&#45;symmetric Relation -->
<g id="edge27" class="edge">
<title>Relation&#45;&gt;Anti&#45;symmetric Relation</title>
<path fill="none" stroke="#ffffff" d="M294.4,-149.67C294.56,-149.64 294.73,-149.61 294.89,-149.59"/>
<polygon fill="#ffffff" stroke="#ffffff" points="296.4,-145.77 287.15,-150.94 297.61,-152.66 296.4,-145.77"/>
</g>
<!-- Relation&#45;&gt;Reflexive Relation -->
<g id="edge30" class="edge">
<title>Relation&#45;&gt;Reflexive Relation</title>
<path fill="none" stroke="#ffffff" d="M278.05,-131.07C283.17,-126.53 288.92,-122.32 295,-119.41 374.64,-81.3 478.55,-75.3 542.21,-75.84"/>
<polygon fill="#ffffff" stroke="#ffffff" points="275.28,-128.88 270.55,-138.36 280.16,-133.9 275.28,-128.88"/>
</g>
<!-- Relation&#45;&gt;Relations -->
<g id="edge38" class="edge">
<title>Relation&#45;&gt;Relations</title>
<path fill="none" stroke="#ffffff" d="M297.41,-158.61C336.31,-159.9 396,-159.89 447,-151.41 449.53,-150.99 452.12,-150.45 454.71,-149.83"/>
<polygon fill="#ffffff" stroke="#ffffff" points="297.14,-155.1 287.02,-158.21 296.88,-162.09 297.14,-155.1"/>
</g>
<!-- Relation&#45;&gt;Linear order -->
<g id="edge39" class="edge">
<title>Relation&#45;&gt;Linear order</title>
<path fill="none" stroke="#ffffff" d="M263.14,-128.37C268.9,-111.84 278.77,-92.12 295,-81.41 329.81,-58.43 628.53,-58.86 670,-63.41 681.85,-64.71 708.19,-70.58 731.34,-76.06"/>
<polygon fill="#ffffff" stroke="#ffffff" points="259.73,-127.55 260.07,-138.14 266.41,-129.65 259.73,-127.55"/>
</g>
<!-- Relation&#45;&gt;Relation of Equivalence -->
<g id="edge35" class="edge">
<title>Relation&#45;&gt;Relation of Equivalence</title>
<path fill="none" stroke="#ffffff" d="M257.89,-184.63C261.63,-230.59 271.7,-318.43 295,-337.41 311.15,-350.57 650.7,-347.26 670,-339.41 711.16,-322.65 744.88,-280.79 761.77,-256.54"/>
<polygon fill="#ffffff" stroke="#ffffff" points="261.37,-184.14 257.11,-174.44 254.39,-184.67 261.37,-184.14"/>
</g>
<!-- Relation&#45;&gt;Reflexive Closure -->
<g id="edge33" class="edge">
<title>Relation&#45;&gt;Reflexive Closure</title>
<path fill="none" stroke="#ffffff" d="M268.32,-183.54C274.79,-195.12 283.74,-207.9 295,-216.41 351.41,-259.04 380.22,-240.15 447,-263.41 485.27,-276.74 492.17,-288.95 532,-296.41 547.07,-299.23 658.6,-306.67 670,-296.41 682.62,-285.05 666.74,-233.12 678,-220.41 688.15,-208.94 702.97,-202.82 717.91,-199.7"/>
<polygon fill="#ffffff" stroke="#ffffff" points="271.39,-181.87 263.67,-174.62 265.19,-185.1 271.39,-181.87"/>
</g>
<!-- Descartes Product -->
<g id="node13" class="node">
<title>Descartes Product</title>
<g id="a_node13"><a xlink:href="../Descartes Product.html" xlink:title="Descartes Product" target="_parent">
<path fill="#273434" stroke="#b75867" d="M418.5,-383.41C418.5,-383.41 323.5,-383.41 323.5,-383.41 317.5,-383.41 311.5,-377.41 311.5,-371.41 311.5,-371.41 311.5,-359.41 311.5,-359.41 311.5,-353.41 317.5,-347.41 323.5,-347.41 323.5,-347.41 418.5,-347.41 418.5,-347.41 424.5,-347.41 430.5,-353.41 430.5,-359.41 430.5,-359.41 430.5,-371.41 430.5,-371.41 430.5,-377.41 424.5,-383.41 418.5,-383.41"/>
<text text-anchor="middle" x="371" y="-362.31" font-family="sans" font-size="12.00" fill="#c4c7c7">Descartes Product</text>
</a>
</g>
</g>
<!-- Relation&#45;&gt;Descartes Product -->
<g id="edge26" class="edge">
<title>Relation&#45;&gt;Descartes Product</title>
<path fill="none" stroke="#b75867" d="M257.44,-174.58C261.13,-216.6 272.28,-318.8 295,-343.41 297.3,-345.9 299.87,-348.12 302.63,-350.09"/>
<polygon fill="#b75867" stroke="#b75867" points="301.02,-353.2 311.41,-355.28 304.58,-347.18 301.02,-353.2"/>
</g>
<!-- Symmetric Relation -->
<g id="node14" class="node">
<title>Symmetric Relation</title>
<g id="a_node14"><a xlink:href="../Symmetric Relation.html" xlink:title="Symmetric Relation" target="_parent">
<path fill="none" stroke="#b75867" d="M653,-339.41C653,-339.41 549,-339.41 549,-339.41 543,-339.41 537,-333.41 537,-327.41 537,-327.41 537,-315.41 537,-315.41 537,-309.41 543,-303.41 549,-303.41 549,-303.41 653,-303.41 653,-303.41 659,-303.41 665,-309.41 665,-315.41 665,-315.41 665,-327.41 665,-327.41 665,-333.41 659,-339.41 653,-339.41"/>
<text text-anchor="middle" x="601" y="-318.31" font-family="sans" font-size="12.00" fill="#c4c7c7">Symmetric Relation</text>
</a>
</g>
</g>
<!-- Relation&#45;&gt;Symmetric Relation -->
<g id="edge28" class="edge">
<title>Relation&#45;&gt;Symmetric Relation</title>
<path fill="none" stroke="#ffffff" d="M258.03,-184.7C261.93,-229.87 272.18,-315.07 295,-333.41 313.33,-348.14 452.87,-336.67 536.72,-328.26"/>
<polygon fill="#ffffff" stroke="#ffffff" points="261.51,-184.35 257.21,-174.67 254.54,-184.92 261.51,-184.35"/>
</g>
<!-- Anti&#45;reflexive relation -->
<g id="node15" class="node">
<title>Anti&#45;reflexive relation</title>
<g id="a_node15"><a xlink:href="../Anti-reflexive relation.html" xlink:title="Anti&#45;reflexive relation" target="_parent">
<path fill="none" stroke="#b75867" d="M658,-299.41C658,-299.41 544,-299.41 544,-299.41 538,-299.41 532,-293.41 532,-287.41 532,-287.41 532,-275.41 532,-275.41 532,-269.41 538,-263.41 544,-263.41 544,-263.41 658,-263.41 658,-263.41 664,-263.41 670,-269.41 670,-275.41 670,-275.41 670,-287.41 670,-287.41 670,-293.41 664,-299.41 658,-299.41"/>
<text text-anchor="middle" x="601" y="-278.31" font-family="sans" font-size="12.00" fill="#c4c7c7">Anti&#45;reflexive relation</text>
</a>
</g>
</g>
<!-- Relation&#45;&gt;Anti&#45;reflexive relation -->
<g id="edge31" class="edge">
<title>Relation&#45;&gt;Anti&#45;reflexive relation</title>
<path fill="none" stroke="#ffffff" d="M285.17,-180.56C288.39,-182.69 291.7,-184.69 295,-186.41 371.79,-226.27 468.25,-252.83 531.89,-267.49"/>
<polygon fill="#ffffff" stroke="#ffffff" points="287.11,-177.64 276.94,-174.67 283.04,-183.34 287.11,-177.64"/>
</g>
<!-- Strongly Anti&#45;symmetric Relation -->
<g id="node16" class="node">
<title>Strongly Anti&#45;symmetric Relation</title>
<g id="a_node16"><a xlink:href="../Strongly Anti-symmetric Relation.html" xlink:title="Strongly Anti&#45;symmetric Relation" target="_parent">
<path fill="none" stroke="#b75867" d="M1070,-236.41C1070,-236.41 891,-236.41 891,-236.41 885,-236.41 879,-230.41 879,-224.41 879,-224.41 879,-212.41 879,-212.41 879,-206.41 885,-200.41 891,-200.41 891,-200.41 1070,-200.41 1070,-200.41 1076,-200.41 1082,-206.41 1082,-212.41 1082,-212.41 1082,-224.41 1082,-224.41 1082,-230.41 1076,-236.41 1070,-236.41"/>
<text text-anchor="middle" x="980.5" y="-215.31" font-family="sans" font-size="12.00" fill="#c4c7c7">Strongly Anti&#45;symmetric Relation</text>
</a>
</g>
</g>
<!-- Relation&#45;&gt;Strongly Anti&#45;symmetric Relation -->
<g id="edge32" class="edge">
<title>Relation&#45;&gt;Strongly Anti&#45;symmetric Relation</title>
<path fill="none" stroke="#ffffff" d="M261.84,-184.41C267.24,-203.16 277.22,-226.81 295,-240.41 349.45,-282.04 391.42,-226.3 447,-266.41 453.13,-270.83 450.02,-275.73 455,-281.41 482.74,-313.02 491.95,-323.57 532,-336.41 590.41,-355.13 609.74,-347.83 670,-336.41 764.31,-318.54 800.95,-323.03 871,-257.41 877.09,-251.7 872.47,-245.62 879,-240.41 880.68,-239.07 882.42,-237.81 884.21,-236.63"/>
<polygon fill="#ffffff" stroke="#ffffff" points="265.19,-183.4 259.29,-174.6 258.42,-185.16 265.19,-183.4"/>
</g>
<!-- Symmetric Closure -->
<g id="node17" class="node">
<title>Symmetric Closure</title>
<g id="a_node17"><a xlink:href="../Symmetric Closure.html" xlink:title="Symmetric Closure" target="_parent">
<path fill="none" stroke="#b75867" d="M650.5,-262.41C650.5,-262.41 551.5,-262.41 551.5,-262.41 545.5,-262.41 539.5,-256.41 539.5,-250.41 539.5,-250.41 539.5,-238.41 539.5,-238.41 539.5,-232.41 545.5,-226.41 551.5,-226.41 551.5,-226.41 650.5,-226.41 650.5,-226.41 656.5,-226.41 662.5,-232.41 662.5,-238.41 662.5,-238.41 662.5,-250.41 662.5,-250.41 662.5,-256.41 656.5,-262.41 650.5,-262.41"/>
<text text-anchor="middle" x="601" y="-241.31" font-family="sans" font-size="12.00" fill="#c4c7c7">Symmetric Closure</text>
</a>
</g>
</g>
<!-- Relation&#45;&gt;Symmetric Closure -->
<g id="edge34" class="edge">
<title>Relation&#45;&gt;Symmetric Closure</title>
<path fill="none" stroke="#ffffff" d="M297.03,-166.91C357.19,-182.3 469.74,-211.09 539.43,-228.91"/>
<polygon fill="#ffffff" stroke="#ffffff" points="297.69,-163.46 287.13,-164.37 295.96,-170.24 297.69,-163.46"/>
</g>
<!-- Chain -->
<g id="node18" class="node">
<title>Chain</title>
<g id="a_node18"><a xlink:href="../Chain.html" xlink:title="Chain" target="_parent">
<path fill="none" stroke="#b75867" d="M995.5,-276.41C995.5,-276.41 965.5,-276.41 965.5,-276.41 959.5,-276.41 953.5,-270.41 953.5,-264.41 953.5,-264.41 953.5,-252.41 953.5,-252.41 953.5,-246.41 959.5,-240.41 965.5,-240.41 965.5,-240.41 995.5,-240.41 995.5,-240.41 1001.5,-240.41 1007.5,-246.41 1007.5,-252.41 1007.5,-252.41 1007.5,-264.41 1007.5,-264.41 1007.5,-270.41 1001.5,-276.41 995.5,-276.41"/>
<text text-anchor="middle" x="980.5" y="-255.31" font-family="sans" font-size="12.00" fill="#c4c7c7">Chain</text>
</a>
</g>
</g>
<!-- Relation&#45;&gt;Chain -->
<g id="edge36" class="edge">
<title>Relation&#45;&gt;Chain</title>
<path fill="none" stroke="#ffffff" d="M257.82,-184.77C261.46,-231.36 271.41,-320.92 295,-340.41 308.71,-351.73 437.22,-343.24 455,-343.41 550.55,-344.3 575.07,-354.36 670,-343.41 761.14,-332.9 782.91,-322.05 871,-296.41 899.55,-288.1 931.62,-276.59 953.45,-268.42"/>
<polygon fill="#ffffff" stroke="#ffffff" points="261.3,-184.43 257.08,-174.71 254.32,-184.94 261.3,-184.43"/>
</g>
<!-- Partial function -->
<g id="node19" class="node">
<title>Partial function</title>
<g id="a_node19"><a xlink:href="../Partial function.html" xlink:title="Partial function" target="_parent">
<path fill="none" stroke="#b75867" d="M410.5,-336.41C410.5,-336.41 331.5,-336.41 331.5,-336.41 325.5,-336.41 319.5,-330.41 319.5,-324.41 319.5,-324.41 319.5,-312.41 319.5,-312.41 319.5,-306.41 325.5,-300.41 331.5,-300.41 331.5,-300.41 410.5,-300.41 410.5,-300.41 416.5,-300.41 422.5,-306.41 422.5,-312.41 422.5,-312.41 422.5,-324.41 422.5,-324.41 422.5,-330.41 416.5,-336.41 410.5,-336.41"/>
<text text-anchor="middle" x="371" y="-315.31" font-family="sans" font-size="12.00" fill="#c4c7c7">Partial function</text>
</a>
</g>
</g>
<!-- Relation&#45;&gt;Partial function -->
<g id="edge37" class="edge">
<title>Relation&#45;&gt;Partial function</title>
<path fill="none" stroke="#ffffff" d="M256.15,-184.88C257.89,-216.35 265.52,-266.52 295,-296.41 301.67,-303.17 310.3,-307.88 319.32,-311.15"/>
<polygon fill="#ffffff" stroke="#ffffff" points="259.64,-184.45 255.76,-174.59 252.64,-184.72 259.64,-184.45"/>
</g>
<!-- Total function -->
<g id="node20" class="node">
<title>Total function</title>
<g id="a_node20"><a xlink:href="../Total function.html" xlink:title="Total function" target="_parent">
<path fill="none" stroke="#b75867" d="M406.5,-299.41C406.5,-299.41 335.5,-299.41 335.5,-299.41 329.5,-299.41 323.5,-293.41 323.5,-287.41 323.5,-287.41 323.5,-275.41 323.5,-275.41 323.5,-269.41 329.5,-263.41 335.5,-263.41 335.5,-263.41 406.5,-263.41 406.5,-263.41 412.5,-263.41 418.5,-269.41 418.5,-275.41 418.5,-275.41 418.5,-287.41 418.5,-287.41 418.5,-293.41 412.5,-299.41 406.5,-299.41"/>
<text text-anchor="middle" x="371" y="-278.31" font-family="sans" font-size="12.00" fill="#c4c7c7">Total function</text>
</a>
</g>
</g>
<!-- Relation&#45;&gt;Total function -->
<g id="edge40" class="edge">
<title>Relation&#45;&gt;Total function</title>
<path fill="none" stroke="#ffffff" d="M259.7,-184.73C264.18,-207.9 273.95,-239.92 295,-259.41 302.86,-266.69 313.02,-271.58 323.3,-274.85"/>
<polygon fill="#ffffff" stroke="#ffffff" points="263.13,-184.04 257.99,-174.78 256.23,-185.23 263.13,-184.04"/>
</g>
<!-- Linear extension&#45;&gt;Partial order -->
<g id="edge43" class="edge">
<title>Linear extension&#45;&gt;Partial order</title>
<path fill="none" stroke="#b75867" d="M925.32,-86.2C908.63,-83.31 891.39,-77.26 879,-65.41 869.02,-55.87 881.86,-43.92 871,-35.41 776.86,38.32 721.58,-30.41 602,-30.41 254,-30.41 254,-30.41 254,-30.41 182.53,-30.41 162.96,-27.66 94,-46.41 93.26,-46.61 92.51,-46.82 91.76,-47.04"/>
<polygon fill="#b75867" stroke="#b75867" points="90.34,-43.83 82.01,-50.37 92.6,-50.46 90.34,-43.83"/>
</g>
<!-- Linear extension&#45;&gt;Relations -->
<g id="edge44" class="edge">
<title>Linear extension&#45;&gt;Relations</title>
<path fill="none" stroke="#ffffff" d="M915.52,-98.97C900.9,-101.54 885.43,-104.14 871,-106.41 781.9,-120.41 759.88,-126.92 670,-134.41 619.36,-138.63 560.44,-139.5 524.31,-139.32"/>
<polygon fill="#ffffff" stroke="#ffffff" points="916.24,-102.4 925.48,-97.2 915.02,-95.5 916.24,-102.4"/>
</g>
<!-- Linear extension&#45;&gt;Linear order -->
<g id="edge42" class="edge">
<title>Linear extension&#45;&gt;Linear order</title>
<path fill="none" stroke="#b75867" d="M925.25,-87.08C895.12,-87.19 857.82,-87.19 827.99,-87.07"/>
<polygon fill="#b75867" stroke="#b75867" points="827.78,-83.57 817.77,-87.03 827.75,-90.57 827.78,-83.57"/>
</g>
<!-- Relations&#45;&gt;Partial order -->
<g id="edge48" class="edge">
<title>Relations&#45;&gt;Partial order</title>
<path fill="none" stroke="#b75867" d="M454.94,-121.91C452.3,-120.95 449.63,-120.09 447,-119.41 408.97,-109.53 131.62,-109.74 94,-98.41 88.34,-96.7 82.63,-94.25 77.2,-91.46"/>
<polygon fill="#b75867" stroke="#b75867" points="78.82,-88.36 68.38,-86.54 75.41,-94.47 78.82,-88.36"/>
</g>
<!-- Relations&#45;&gt;Transitive Relation -->
<g id="edge57" class="edge">
<title>Relations&#45;&gt;Transitive Relation</title>
<path fill="none" stroke="#b75867" d="M471.65,-120.41C464.71,-113.92 456.14,-107.26 447,-103.41 375.77,-73.43 286.2,-70.62 225.28,-73.05"/>
<polygon fill="#b75867" stroke="#b75867" points="224.83,-69.57 215,-73.52 225.15,-76.56 224.83,-69.57"/>
</g>
<!-- Relations&#45;&gt;Anti&#45;symmetric Relation -->
<g id="edge59" class="edge">
<title>Relations&#45;&gt;Anti&#45;symmetric Relation</title>
<path fill="none" stroke="#b75867" d="M454.85,-138.52C454.69,-138.52 454.53,-138.51 454.37,-138.51"/>
<polygon fill="#b75867" stroke="#b75867" points="457.14,-135.05 447.1,-138.42 457.05,-142.05 457.14,-135.05"/>
</g>
<!-- Relations&#45;&gt;Reflexive Relation -->
<g id="edge62" class="edge">
<title>Relations&#45;&gt;Reflexive Relation</title>
<path fill="none" stroke="#b75867" d="M519.1,-120.26C520.84,-118.71 522.5,-117.09 524,-115.41 529.04,-109.78 526.21,-105.26 532,-100.41 532.59,-99.92 533.19,-99.43 533.8,-98.96"/>
<polygon fill="#b75867" stroke="#b75867" points="535.8,-101.83 542.25,-93.42 531.96,-95.98 535.8,-101.83"/>
</g>
<!-- Relations&#45;&gt;Relation -->
<g id="edge63" class="edge">
<title>Relations&#45;&gt;Relation</title>
<path fill="none" stroke="#b75867" d="M454.71,-150.83C452.12,-151.45 449.53,-151.99 447,-152.41 396,-160.89 336.31,-160.9 297.41,-159.38"/>
<polygon fill="#b75867" stroke="#b75867" points="297.16,-155.87 287.02,-158.92 296.85,-162.86 297.16,-155.87"/>
</g>
<!-- Relations&#45;&gt;Linear extension -->
<g id="edge46" class="edge">
<title>Relations&#45;&gt;Linear extension</title>
<path fill="none" stroke="#b75867" d="M524.31,-138.58C560.44,-138.5 619.36,-137.63 670,-133.41 759.88,-125.92 781.9,-119.41 871,-105.41 885.43,-103.14 900.9,-100.54 915.52,-98"/>
<polygon fill="#b75867" stroke="#b75867" points="916.23,-101.42 925.48,-96.25 915.02,-94.53 916.23,-101.42"/>
</g>
<!-- Relations&#45;&gt;Linear order -->
<g id="edge47" class="edge">
<title>Relations&#45;&gt;Linear order</title>
<path fill="none" stroke="#b75867" d="M524.29,-138.33C568.43,-137.99 643.23,-136.49 670,-130.41 690.59,-125.73 712.26,-117.16 730.41,-108.81"/>
<polygon fill="#b75867" stroke="#b75867" points="732.02,-111.92 739.56,-104.48 729.03,-105.59 732.02,-111.92"/>
</g>
<!-- Relations&#45;&gt;Transitive Closure -->
<g id="edge51" class="edge">
<title>Relations&#45;&gt;Transitive Closure</title>
<path fill="none" stroke="#b75867" d="M524.25,-131.32C527.02,-130.74 529.87,-130.14 532.77,-129.53"/>
<polygon fill="#b75867" stroke="#b75867" points="533.71,-132.91 542.78,-127.43 532.27,-126.06 533.71,-132.91"/>
</g>
<!-- Relations&#45;&gt;Transitive Closure -->
<g id="edge55" class="edge">
<title>Relations&#45;&gt;Transitive Closure</title>
<path fill="none" stroke="#b75867" d="M524.25,-132.02C527.02,-131.45 529.87,-130.86 532.77,-130.26"/>
<polygon fill="#b75867" stroke="#b75867" points="533.71,-133.64 542.78,-128.18 532.28,-126.79 533.71,-133.64"/>
</g>
<!-- Relations&#45;&gt;Relation of Equivalence -->
<g id="edge50" class="edge">
<title>Relations&#45;&gt;Relation of Equivalence</title>
<path fill="none" stroke="#b75867" d="M500.92,-156.67C507.69,-168.71 516.6,-184.87 524,-199.41 527.79,-206.85 525.12,-211.68 532,-216.41 544.67,-225.11 654.69,-224.97 670,-226.41 676.32,-227 682.86,-227.66 689.43,-228.35"/>
<polygon fill="#b75867" stroke="#b75867" points="689.44,-231.88 699.76,-229.47 690.19,-224.92 689.44,-231.88"/>
</g>
<!-- Relations&#45;&gt;Reflexive Closure -->
<g id="edge53" class="edge">
<title>Relations&#45;&gt;Reflexive Closure</title>
<path fill="none" stroke="#b75867" d="M500.3,-156.44C511.71,-177.26 529.33,-208.87 532,-210.41 560.84,-227.07 646.7,-218.47 707.82,-209.52"/>
<polygon fill="#b75867" stroke="#b75867" points="708.41,-212.97 717.78,-208.03 707.38,-206.05 708.41,-212.97"/>
</g>
<!-- Relations&#45;&gt;Reflexive Closure -->
<g id="edge56" class="edge">
<title>Relations&#45;&gt;Reflexive Closure</title>
<path fill="none" stroke="#b75867" d="M500.1,-156.77C511.5,-177.89 529.31,-209.86 532,-211.41 560.84,-228.07 646.7,-219.47 707.82,-210.28"/>
<polygon fill="#b75867" stroke="#b75867" points="708.43,-213.73 717.78,-208.75 707.37,-206.81 708.43,-213.73"/>
</g>
<!-- Relations&#45;&gt;Symmetric Relation -->
<g id="edge60" class="edge">
<title>Relations&#45;&gt;Symmetric Relation</title>
<path fill="none" stroke="#b75867" d="M489.86,-156.51C489.72,-187.6 493.74,-251.73 530.26,-296.39"/>
<polygon fill="#b75867" stroke="#b75867" points="527.68,-298.76 536.93,-303.94 532.93,-294.13 527.68,-298.76"/>
</g>
<!-- Relations&#45;&gt;Anti&#45;reflexive relation -->
<g id="edge61" class="edge">
<title>Relations&#45;&gt;Anti&#45;reflexive relation</title>
<path fill="none" stroke="#b75867" d="M497.8,-156.71C504.95,-174.97 515.92,-203.89 524,-229.41 527.29,-239.79 524.45,-246.23 529.78,-255.28"/>
<polygon fill="#b75867" stroke="#b75867" points="527.12,-257.56 536.08,-263.22 532.61,-253.21 527.12,-257.56"/>
</g>
<!-- Relations&#45;&gt;Strongly Anti&#45;symmetric Relation -->
<g id="edge58" class="edge">
<title>Relations&#45;&gt;Strongly Anti&#45;symmetric Relation</title>
<path fill="none" stroke="#b75867" d="M500.44,-156.5C512.61,-178.63 531.65,-213.2 532,-213.41 546.25,-221.92 740.85,-221.29 868.69,-219.94"/>
<polygon fill="#b75867" stroke="#b75867" points="868.96,-223.44 878.92,-219.83 868.88,-216.44 868.96,-223.44"/>
</g>
<!-- Relations&#45;&gt;Symmetric Closure -->
<g id="edge52" class="edge">
<title>Relations&#45;&gt;Symmetric Closure</title>
<path fill="none" stroke="#b75867" d="M501.44,-156.42C508.42,-168.36 517.37,-184.51 524,-199.41 527.5,-207.29 525.59,-212.41 532.25,-220.97"/>
<polygon fill="#b75867" stroke="#b75867" points="529.8,-223.48 539.23,-228.3 534.86,-218.65 529.8,-223.48"/>
</g>
<!-- Relations&#45;&gt;Symmetric Closure -->
<g id="edge54" class="edge">
<title>Relations&#45;&gt;Symmetric Closure</title>
<path fill="none" stroke="#b75867" d="M500.97,-156.48C508.02,-168.64 517.22,-185.17 524,-200.41 527.5,-208.29 525.59,-213.41 532.25,-221.97"/>
<polygon fill="#b75867" stroke="#b75867" points="529.8,-224.48 539.23,-229.3 534.86,-219.65 529.8,-224.48"/>
</g>
<!-- Relations&#45;&gt;Chain -->
<g id="edge45" class="edge">
<title>Relations&#45;&gt;Chain</title>
<path fill="none" stroke="#b75867" d="M499.28,-156.63C510.57,-179.92 529.1,-217.49 532,-219.41 557.64,-236.38 645.72,-210.54 670,-229.41 678.88,-236.31 668.93,-246.76 678,-253.41 757.21,-311.51 882.29,-287.12 943.43,-269.96"/>
<polygon fill="#b75867" stroke="#b75867" points="944.76,-273.22 953.38,-267.07 942.8,-266.49 944.76,-273.22"/>
</g>
<!-- Class of equivalence -->
<g id="node21" class="node">
<title>Class of equivalence</title>
<g id="a_node21"><a xlink:href="../Class of equivalence.html" xlink:title="Class of equivalence" target="_parent">
<path fill="#273434" stroke="#b75867" d="M654.5,-176.41C654.5,-176.41 547.5,-176.41 547.5,-176.41 541.5,-176.41 535.5,-170.41 535.5,-164.41 535.5,-164.41 535.5,-152.41 535.5,-152.41 535.5,-146.41 541.5,-140.41 547.5,-140.41 547.5,-140.41 654.5,-140.41 654.5,-140.41 660.5,-140.41 666.5,-146.41 666.5,-152.41 666.5,-152.41 666.5,-164.41 666.5,-164.41 666.5,-170.41 660.5,-176.41 654.5,-176.41"/>
<text text-anchor="middle" x="601" y="-155.31" font-family="sans" font-size="12.00" fill="#c4c7c7">Class of equivalence</text>
</a>
</g>
</g>
<!-- Relations&#45;&gt;Class of equivalence -->
<g id="edge49" class="edge">
<title>Relations&#45;&gt;Class of equivalence</title>
<path fill="none" stroke="#b75867" d="M524.25,-144.57C524.58,-144.63 524.91,-144.69 525.24,-144.75"/>
<polygon fill="#b75867" stroke="#b75867" points="524.68,-148.21 535.14,-146.56 525.93,-141.32 524.68,-148.21"/>
</g>
<!-- Discrete Structures -->
<g id="node22" class="node">
<title>Discrete Structures</title>
<g id="a_node22"><a xlink:href="../Discrete Structures.html" xlink:title="Discrete Structures" target="_parent">
<path fill="none" stroke="#b75867" d="M650,-213.41C650,-213.41 552,-213.41 552,-213.41 546,-213.41 540,-207.41 540,-201.41 540,-201.41 540,-189.41 540,-189.41 540,-183.41 546,-177.41 552,-177.41 552,-177.41 650,-177.41 650,-177.41 656,-177.41 662,-183.41 662,-189.41 662,-189.41 662,-201.41 662,-201.41 662,-207.41 656,-213.41 650,-213.41"/>
<text text-anchor="middle" x="601" y="-192.31" font-family="sans" font-size="12.00" fill="#c4c7c7">Discrete Structures</text>
</a>
</g>
</g>
<!-- Relations&#45;&gt;Discrete Structures -->
<g id="edge64" class="edge">
<title>Relations&#45;&gt;Discrete Structures</title>
<path fill="none" stroke="#ffffff" d="M516.6,-162.99C521.49,-166.82 526.72,-170.48 532,-173.41 534.5,-174.79 537.09,-176.11 539.75,-177.35"/>
<polygon fill="#ffffff" stroke="#ffffff" points="518.69,-160.18 508.77,-156.46 514.21,-165.55 518.69,-160.18"/>
</g>
<!-- Linear order&#45;&gt;Partial order -->
<g id="edge65" class="edge">
<title>Linear order&#45;&gt;Partial order</title>
<path fill="none" stroke="#b75867" d="M731.05,-82.16C713.91,-79 694.36,-73.77 678,-65.41 673.79,-63.26 674.4,-60.13 670,-58.41 632.84,-43.85 530.4,-53.41 490.5,-53.41 254,-53.41 254,-53.41 254,-53.41 186.02,-53.41 166.47,-52.61 96.45,-60.26"/>
<polygon fill="#b75867" stroke="#b75867" points="95.78,-56.81 86.22,-61.4 96.55,-63.77 95.78,-56.81"/>
</g>
<!-- Linear order&#45;&gt;Transitive Relation -->
<g id="edge66" class="edge">
<title>Linear order&#45;&gt;Transitive Relation</title>
<path fill="none" stroke="#b75867" d="M731.35,-78.89C714.61,-75.28 695.27,-70.61 678,-65.41 674.36,-64.31 673.74,-63.09 670,-62.41 575.19,-45.22 337.14,-65.36 225.22,-73.27"/>
<polygon fill="#b75867" stroke="#b75867" points="224.85,-69.79 215.12,-73.97 225.34,-76.77 224.85,-69.79"/>
</g>
<!-- Linear order&#45;&gt;Reflexive Relation -->
<g id="edge68" class="edge">
<title>Linear order&#45;&gt;Reflexive Relation</title>
<path fill="none" stroke="#b75867" d="M731.25,-85.09C712.69,-84.32 690.42,-83.3 669.64,-82.3"/>
<polygon fill="#b75867" stroke="#b75867" points="669.74,-78.8 659.58,-81.81 669.4,-85.79 669.74,-78.8"/>
</g>
<!-- Linear order&#45;&gt;Relation -->
<g id="edge69" class="edge">
<title>Linear order&#45;&gt;Relation</title>
<path fill="none" stroke="#b75867" d="M731.34,-76.93C708.19,-71.58 681.85,-65.71 670,-64.41 628.53,-59.86 329.81,-59.43 295,-82.41 278.98,-92.99 269.14,-112.35 263.36,-128.61"/>
<polygon fill="#b75867" stroke="#b75867" points="260,-127.64 260.26,-138.23 266.66,-129.79 260,-127.64"/>
</g>
<!-- Linear order&#45;&gt;Linear extension -->
<g id="edge70" class="edge">
<title>Linear order&#45;&gt;Linear extension</title>
<path fill="none" stroke="#ffffff" d="M827.99,-86.41C857.82,-86.41 895.12,-86.41 925.25,-86.41"/>
<polygon fill="#ffffff" stroke="#ffffff" points="827.77,-82.91 817.77,-86.41 827.77,-89.91 827.77,-82.91"/>
</g>
<!-- Linear order&#45;&gt;Relations -->
<g id="edge71" class="edge">
<title>Linear order&#45;&gt;Relations</title>
<path fill="none" stroke="#ffffff" d="M732.37,-108.82C713.83,-117.53 691.34,-126.56 670,-131.41 643.23,-137.49 568.43,-138.99 524.29,-139.01"/>
<polygon fill="#ffffff" stroke="#ffffff" points="733.93,-111.95 741.41,-104.45 730.88,-105.65 733.93,-111.95"/>
</g>
<!-- Linear order&#45;&gt;Strongly Anti&#45;symmetric Relation -->
<g id="edge67" class="edge">
<title>Linear order&#45;&gt;Strongly Anti&#45;symmetric Relation</title>
<path fill="none" stroke="#b75867" d="M803.44,-104.49C839.73,-127.97 903.17,-169.02 943.17,-194.9"/>
<polygon fill="#b75867" stroke="#b75867" points="941.28,-197.84 951.57,-200.34 945.08,-191.97 941.28,-197.84"/>
</g>
<!-- Partial orders have no contours&#45;&gt;Partial order -->
<g id="edge73" class="edge">
<title>Partial orders have no contours&#45;&gt;Partial order</title>
<path fill="none" stroke="#b75867" d="M677.88,-48.77C623.04,-48.15 552.9,-47.41 490.5,-47.41 254,-47.41 254,-47.41 254,-47.41 186.04,-47.41 165.88,-41.67 96.24,-53.3"/>
<polygon fill="#b75867" stroke="#b75867" points="95.34,-49.9 86.08,-55.05 96.53,-56.8 95.34,-49.9"/>
</g>
<!-- Partial orders have no contours&#45;&gt;Transitive Relation -->
<g id="edge74" class="edge">
<title>Partial orders have no contours&#45;&gt;Transitive Relation</title>
<path fill="none" stroke="#b75867" d="M677.87,-50.29C623.03,-50.41 552.9,-50.41 490.5,-50.41 370,-50.41 370,-50.41 370,-50.41 321.4,-50.41 267.15,-57.81 225.38,-65.01"/>
<polygon fill="#b75867" stroke="#b75867" points="224.55,-61.6 215.31,-66.78 225.76,-68.49 224.55,-61.6"/>
</g>
<!-- Partial orders have no contours&#45;&gt;Reflexive Relation -->
<g id="edge75" class="edge">
<title>Partial orders have no contours&#45;&gt;Reflexive Relation</title>
<path fill="none" stroke="#b75867" d="M677.87,-66.33C675.05,-66.8 672.25,-67.27 669.48,-67.73"/>
<polygon fill="#b75867" stroke="#b75867" points="668.87,-64.29 659.58,-69.38 670.02,-71.19 668.87,-64.29"/>
</g>
<!-- Partial orders have no contours&#45;&gt;Chain -->
<g id="edge76" class="edge">
<title>Partial orders have no contours&#45;&gt;Chain</title>
<path fill="none" stroke="#ffffff" d="M872.73,-76.5C888.8,-116.08 857.15,-210.57 879,-236.41 896.87,-257.55 929.95,-261.16 953.26,-260.71"/>
<polygon fill="#ffffff" stroke="#ffffff" points="875.64,-74.54 867.55,-67.7 869.6,-78.09 875.64,-74.54"/>
</g>
<!-- Contour -->
<g id="node23" class="node">
<title>Contour</title>
<g id="a_node23"><a xlink:href="../Contour.html" xlink:title="Contour" target="_parent">
<path fill="#273434" stroke="#b75867" d="M1000,-67.41C1000,-67.41 961,-67.41 961,-67.41 955,-67.41 949,-61.41 949,-55.41 949,-55.41 949,-43.41 949,-43.41 949,-37.41 955,-31.41 961,-31.41 961,-31.41 1000,-31.41 1000,-31.41 1006,-31.41 1012,-37.41 1012,-43.41 1012,-43.41 1012,-55.41 1012,-55.41 1012,-61.41 1006,-67.41 1000,-67.41"/>
<text text-anchor="middle" x="980.5" y="-46.31" font-family="sans" font-size="12.00" fill="#c4c7c7">Contour</text>
</a>
</g>
</g>
<!-- Partial orders have no contours&#45;&gt;Contour -->
<g id="edge72" class="edge">
<title>Partial orders have no contours&#45;&gt;Contour</title>
<path fill="none" stroke="#b75867" d="M871.23,-49.41C895.1,-49.41 919.42,-49.41 938.96,-49.41"/>
<polygon fill="#b75867" stroke="#b75867" points="938.99,-52.91 948.99,-49.41 938.99,-45.91 938.99,-52.91"/>
</g>
</g>
</svg>
