<?xml version="1.0" encoding="UTF-8" standalone="no"?>
<!DOCTYPE svg PUBLIC "-//W3C//DTD SVG 1.1//EN"
 "http://www.w3.org/Graphics/SVG/1.1/DTD/svg11.dtd">
<!-- Generated by graphviz version 2.44.0 (0)
 -->
<!-- Title: Partial order Pages: 1 -->
<svg width="1872pt" height="260pt"
 viewBox="0.00 0.00 1872.04 260.00" xmlns="http://www.w3.org/2000/svg" xmlns:xlink="http://www.w3.org/1999/xlink">
<g id="page0,1_graph0" class="graph" transform="scale(1 1) rotate(0) translate(4 256)">
<title>Partial order</title>
<polygon fill="#132020" stroke="transparent" points="-4,4 -4,-256 1868.04,-256 1868.04,4 -4,4"/>
<!-- Partial order -->
<g id="node1" class="node">
<title>Partial order</title>
<g id="a_node1"><a xlink:title="Partial order">
<path fill="#273434" stroke="#b75867" d="M517.48,-252C517.48,-252 455.48,-252 455.48,-252 449.48,-252 443.48,-246 443.48,-240 443.48,-240 443.48,-228 443.48,-228 443.48,-222 449.48,-216 455.48,-216 455.48,-216 517.48,-216 517.48,-216 523.48,-216 529.48,-222 529.48,-228 529.48,-228 529.48,-240 529.48,-240 529.48,-246 523.48,-252 517.48,-252"/>
<text text-anchor="middle" x="486.48" y="-230.9" font-family="sans" font-size="12.00" fill="#c4c7c7">Partial order</text>
</a>
</g>
</g>
<!-- Transitive Relation -->
<g id="node2" class="node">
<title>Transitive Relation</title>
<g id="a_node2"><a xlink:title="Transitive Relation">
<path fill="#273434" stroke="#b75867" d="M490.98,-180C490.98,-180 393.98,-180 393.98,-180 387.98,-180 381.98,-174 381.98,-168 381.98,-168 381.98,-156 381.98,-156 381.98,-150 387.98,-144 393.98,-144 393.98,-144 490.98,-144 490.98,-144 496.98,-144 502.98,-150 502.98,-156 502.98,-156 502.98,-168 502.98,-168 502.98,-174 496.98,-180 490.98,-180"/>
<text text-anchor="middle" x="442.48" y="-158.9" font-family="sans" font-size="12.00" fill="#c4c7c7">Transitive Relation</text>
</a>
</g>
</g>
<!-- Partial order&#45;&gt;Transitive Relation -->
<g id="edge1" class="edge">
<title>Partial order&#45;&gt;Transitive Relation</title>
<path fill="none" stroke="#b75867" d="M475.6,-215.7C470.48,-207.56 464.28,-197.69 458.63,-188.7"/>
<polygon fill="#b75867" stroke="#b75867" points="461.51,-186.71 453.23,-180.1 455.59,-190.43 461.51,-186.71"/>
</g>
<!-- Relation -->
<g id="node3" class="node">
<title>Relation</title>
<g id="a_node3"><a xlink:title="Relation">
<path fill="#273434" stroke="#b75867" d="M573.48,-108C573.48,-108 533.48,-108 533.48,-108 527.48,-108 521.48,-102 521.48,-96 521.48,-96 521.48,-84 521.48,-84 521.48,-78 527.48,-72 533.48,-72 533.48,-72 573.48,-72 573.48,-72 579.48,-72 585.48,-78 585.48,-84 585.48,-84 585.48,-96 585.48,-96 585.48,-102 579.48,-108 573.48,-108"/>
<text text-anchor="middle" x="553.48" y="-86.9" font-family="sans" font-size="12.00" fill="#c4c7c7">Relation</text>
</a>
</g>
</g>
<!-- Partial order&#45;&gt;Relation -->
<g id="edge4" class="edge">
<title>Partial order&#45;&gt;Relation</title>
<path fill="none" stroke="#b75867" d="M494.56,-215.87C506.13,-191.35 527.51,-146.03 541.09,-117.26"/>
<polygon fill="#b75867" stroke="#b75867" points="544.26,-118.73 545.37,-108.19 537.93,-115.74 544.26,-118.73"/>
</g>
<!-- Anti&#45;symmetric Relation -->
<g id="node4" class="node">
<title>Anti&#45;symmetric Relation</title>
<g id="a_node4"><a xlink:title="Anti&#45;symmetric Relation">
<path fill="#273434" stroke="#b75867" d="M351.48,-180C351.48,-180 223.48,-180 223.48,-180 217.48,-180 211.48,-174 211.48,-168 211.48,-168 211.48,-156 211.48,-156 211.48,-150 217.48,-144 223.48,-144 223.48,-144 351.48,-144 351.48,-144 357.48,-144 363.48,-150 363.48,-156 363.48,-156 363.48,-168 363.48,-168 363.48,-174 357.48,-180 351.48,-180"/>
<text text-anchor="middle" x="287.48" y="-158.9" font-family="sans" font-size="12.00" fill="#c4c7c7">Anti&#45;symmetric Relation</text>
</a>
</g>
</g>
<!-- Partial order&#45;&gt;Anti&#45;symmetric Relation -->
<g id="edge2" class="edge">
<title>Partial order&#45;&gt;Anti&#45;symmetric Relation</title>
<path fill="none" stroke="#b75867" d="M443.3,-217.81C414.6,-207.72 376.59,-194.35 345.29,-183.34"/>
<polygon fill="#b75867" stroke="#b75867" points="346.4,-180.02 335.81,-180 344.08,-186.62 346.4,-180.02"/>
</g>
<!-- Reflexive Relation -->
<g id="node5" class="node">
<title>Reflexive Relation</title>
<g id="a_node5"><a xlink:title="Reflexive Relation">
<path fill="#273434" stroke="#b75867" d="M664.98,-180C664.98,-180 571.98,-180 571.98,-180 565.98,-180 559.98,-174 559.98,-168 559.98,-168 559.98,-156 559.98,-156 559.98,-150 565.98,-144 571.98,-144 571.98,-144 664.98,-144 664.98,-144 670.98,-144 676.98,-150 676.98,-156 676.98,-156 676.98,-168 676.98,-168 676.98,-174 670.98,-180 664.98,-180"/>
<text text-anchor="middle" x="618.48" y="-158.9" font-family="sans" font-size="12.00" fill="#c4c7c7">Reflexive Relation</text>
</a>
</g>
</g>
<!-- Partial order&#45;&gt;Reflexive Relation -->
<g id="edge3" class="edge">
<title>Partial order&#45;&gt;Reflexive Relation</title>
<path fill="none" stroke="#b75867" d="M518.77,-215.88C536.34,-206.55 558.28,-194.92 577.1,-184.94"/>
<polygon fill="#b75867" stroke="#b75867" points="578.87,-187.97 586.06,-180.19 575.59,-181.78 578.87,-187.97"/>
</g>
<!-- Linear extension -->
<g id="node7" class="node">
<title>Linear extension</title>
<g id="a_node7"><a xlink:title="Linear extension">
<ellipse fill="#273434" stroke="#b75867" cx="801.48" cy="-162" rx="67.93" ry="18"/>
<text text-anchor="middle" x="801.48" y="-158.9" font-family="sans" font-size="12.00" fill="#c4c7c7">Linear extension</text>
</a>
</g>
</g>
<!-- Partial order&#45;&gt;Linear extension -->
<g id="edge9" class="edge">
<title>Partial order&#45;&gt;Linear extension</title>
<path fill="none" stroke="#ffffff" d="M539.5,-221.22C598.59,-208.09 693.43,-187.01 751.33,-174.14"/>
<polygon fill="#ffffff" stroke="#ffffff" points="538.62,-217.83 529.61,-223.41 540.14,-224.66 538.62,-217.83"/>
</g>
<!-- Relations -->
<g id="node8" class="node">
<title>Relations</title>
<g id="a_node8"><a xlink:title="Relations">
<ellipse fill="#273434" stroke="#b75867" cx="42.48" cy="-18" rx="42.45" ry="18"/>
<text text-anchor="middle" x="42.48" y="-14.9" font-family="sans" font-size="12.00" fill="#c4c7c7">Relations</text>
</a>
</g>
</g>
<!-- Partial order&#45;&gt;Relations -->
<g id="edge10" class="edge">
<title>Partial order&#45;&gt;Relations</title>
<path fill="none" stroke="#ffffff" d="M433.3,-228.6C355.66,-221.4 215.8,-205.35 172.48,-180 111.85,-144.53 68.01,-69.34 50.67,-35.78"/>
<polygon fill="#ffffff" stroke="#ffffff" points="433.09,-232.09 443.37,-229.51 433.73,-225.12 433.09,-232.09"/>
</g>
<!-- Linear order -->
<g id="node9" class="node">
<title>Linear order</title>
<g id="a_node9"><a xlink:title="Linear order">
<ellipse fill="#273434" stroke="#b75867" cx="155.48" cy="-18" rx="52.88" ry="18"/>
<text text-anchor="middle" x="155.48" y="-14.9" font-family="sans" font-size="12.00" fill="#c4c7c7">Linear order</text>
</a>
</g>
</g>
<!-- Partial order&#45;&gt;Linear order -->
<g id="edge11" class="edge">
<title>Partial order&#45;&gt;Linear order</title>
<path fill="none" stroke="#ffffff" d="M432.95,-229.6C360.27,-223.91 235.62,-210 202.48,-180 160.59,-142.09 155.2,-69.18 155.04,-36.09"/>
<polygon fill="#ffffff" stroke="#ffffff" points="433.04,-233.12 443.28,-230.38 433.57,-226.14 433.04,-233.12"/>
</g>
<!-- Partial orders have no contours -->
<g id="node10" class="node">
<title>Partial orders have no contours</title>
<g id="a_node10"><a xlink:title="Partial orders have no contours">
<ellipse fill="#273434" stroke="#b75867" cx="836.48" cy="-90" rx="118.62" ry="18"/>
<text text-anchor="middle" x="836.48" y="-86.9" font-family="sans" font-size="12.00" fill="#c4c7c7">Partial orders have no contours</text>
</a>
</g>
</g>
<!-- Partial order&#45;&gt;Partial orders have no contours -->
<g id="edge12" class="edge">
<title>Partial order&#45;&gt;Partial orders have no contours</title>
<path fill="none" stroke="#ffffff" d="M539.43,-226.05C581.1,-218.94 639.6,-205.23 685.48,-180 706.14,-168.63 704.92,-157.2 724.48,-144 746.5,-129.14 773.34,-116.28 795.22,-106.95"/>
<polygon fill="#ffffff" stroke="#ffffff" points="538.78,-222.61 529.48,-227.68 539.91,-229.52 538.78,-222.61"/>
</g>
<!-- Transitive Relation&#45;&gt;Relation -->
<g id="edge5" class="edge">
<title>Transitive Relation&#45;&gt;Relation</title>
<path fill="none" stroke="#b75867" d="M469.63,-143.88C484.01,-134.81 501.86,-123.55 517.39,-113.76"/>
<polygon fill="#b75867" stroke="#b75867" points="519.63,-116.48 526.22,-108.19 515.89,-110.56 519.63,-116.48"/>
</g>
<!-- Transitive Relation&#45;&gt;Relations -->
<g id="edge15" class="edge">
<title>Transitive Relation&#45;&gt;Relations</title>
<path fill="none" stroke="#ffffff" d="M371.9,-143.75C318.05,-130.4 251.02,-113.32 238.48,-108 210.19,-96.01 207.02,-85.6 179.48,-72 144.83,-54.9 103.21,-39.48 75,-29.74"/>
<polygon fill="#ffffff" stroke="#ffffff" points="371.24,-147.19 381.79,-146.19 372.92,-140.39 371.24,-147.19"/>
</g>
<!-- Transitive Relation&#45;&gt;Linear order -->
<g id="edge16" class="edge">
<title>Transitive Relation&#45;&gt;Linear order</title>
<path fill="none" stroke="#ffffff" d="M435.99,-133.79C429.76,-113.65 418.28,-87.18 398.48,-72 333.38,-22.1 297.3,-54.86 217.48,-36 210.09,-34.26 202.25,-32.24 194.73,-30.22"/>
<polygon fill="#ffffff" stroke="#ffffff" points="432.69,-134.99 438.79,-143.65 439.43,-133.08 432.69,-134.99"/>
</g>
<!-- Transitive Relation&#45;&gt;Partial orders have no contours -->
<g id="edge17" class="edge">
<title>Transitive Relation&#45;&gt;Partial orders have no contours</title>
<path fill="none" stroke="#ffffff" d="M513.28,-148.42C583.67,-135.92 691.17,-116.82 762.6,-104.12"/>
<polygon fill="#ffffff" stroke="#ffffff" points="512.41,-145.02 503.17,-150.22 513.63,-151.91 512.41,-145.02"/>
</g>
<!-- Transitive Closure -->
<g id="node11" class="node">
<title>Transitive Closure</title>
<g id="a_node11"><a xlink:title="Transitive Closure">
<ellipse fill="#273434" stroke="#b75867" cx="318.48" cy="-90" rx="71.32" ry="18"/>
<text text-anchor="middle" x="318.48" y="-86.9" font-family="sans" font-size="12.00" fill="#c4c7c7">Transitive Closure</text>
</a>
</g>
</g>
<!-- Transitive Relation&#45;&gt;Transitive Closure -->
<g id="edge13" class="edge">
<title>Transitive Relation&#45;&gt;Transitive Closure</title>
<path fill="none" stroke="#ffffff" d="M403.35,-138.91C384.85,-128.47 363.18,-116.24 346.38,-106.75"/>
<polygon fill="#ffffff" stroke="#ffffff" points="401.71,-142.01 412.14,-143.88 405.15,-135.91 401.71,-142.01"/>
</g>
<!-- Relation of Equivalence -->
<g id="node12" class="node">
<title>Relation of Equivalence</title>
<g id="a_node12"><a xlink:title="Relation of Equivalence">
<ellipse fill="#273434" stroke="#b75867" cx="1615.48" cy="-18" rx="91.95" ry="18"/>
<text text-anchor="middle" x="1615.48" y="-14.9" font-family="sans" font-size="12.00" fill="#c4c7c7">Relation of Equivalence</text>
</a>
</g>
</g>
<!-- Transitive Relation&#45;&gt;Relation of Equivalence -->
<g id="edge14" class="edge">
<title>Transitive Relation&#45;&gt;Relation of Equivalence</title>
<path fill="none" stroke="#ffffff" d="M512.63,-142.21C539.16,-133.66 569.07,-122.23 594.48,-108 616.52,-95.65 614.86,-80.98 638.48,-72 729.53,-37.37 1417.59,-46.1 1514.48,-36 1526.59,-34.74 1539.45,-32.93 1551.8,-30.97"/>
<polygon fill="#ffffff" stroke="#ffffff" points="511.51,-138.89 503.02,-145.23 513.61,-145.57 511.51,-138.89"/>
</g>
<!-- Descartes Product -->
<g id="node6" class="node">
<title>Descartes Product</title>
<g id="a_node6"><a xlink:title="Descartes Product">
<path fill="#273434" stroke="#b75867" d="M1317.98,-36C1317.98,-36 1222.98,-36 1222.98,-36 1216.98,-36 1210.98,-30 1210.98,-24 1210.98,-24 1210.98,-12 1210.98,-12 1210.98,-6 1216.98,0 1222.98,0 1222.98,0 1317.98,0 1317.98,0 1323.98,0 1329.98,-6 1329.98,-12 1329.98,-12 1329.98,-24 1329.98,-24 1329.98,-30 1323.98,-36 1317.98,-36"/>
<text text-anchor="middle" x="1270.48" y="-14.9" font-family="sans" font-size="12.00" fill="#c4c7c7">Descartes Product</text>
</a>
</g>
</g>
<!-- Relation&#45;&gt;Descartes Product -->
<g id="edge8" class="edge">
<title>Relation&#45;&gt;Descartes Product</title>
<path fill="none" stroke="#b75867" d="M585.54,-75.8C590.16,-74.29 594.89,-72.96 599.48,-72 858.59,-17.62 934.63,-74.8 1200.81,-35.9"/>
<polygon fill="#b75867" stroke="#b75867" points="1201.4,-39.35 1210.77,-34.41 1200.36,-32.43 1201.4,-39.35"/>
</g>
<!-- Relation&#45;&gt;Relations -->
<g id="edge26" class="edge">
<title>Relation&#45;&gt;Relations</title>
<path fill="none" stroke="#ffffff" d="M511.43,-79.6C498.07,-76.85 483.2,-74.04 469.48,-72 303.42,-47.32 257.71,-70.77 93.48,-36 86.81,-34.59 79.8,-32.6 73.18,-30.48"/>
<polygon fill="#ffffff" stroke="#ffffff" points="510.8,-83.04 521.3,-81.67 512.24,-76.19 510.8,-83.04"/>
</g>
<!-- Relation&#45;&gt;Linear order -->
<g id="edge27" class="edge">
<title>Relation&#45;&gt;Linear order</title>
<path fill="none" stroke="#ffffff" d="M511.78,-73.12C510.34,-72.72 508.9,-72.35 507.48,-72 381.28,-41.29 344.88,-61.24 217.48,-36 209.81,-34.48 201.7,-32.52 193.97,-30.48"/>
<polygon fill="#ffffff" stroke="#ffffff" points="510.76,-76.47 521.35,-76.06 512.82,-69.78 510.76,-76.47"/>
</g>
<!-- Relation&#45;&gt;Relation of Equivalence -->
<g id="edge23" class="edge">
<title>Relation&#45;&gt;Relation of Equivalence</title>
<path fill="none" stroke="#ffffff" d="M595.57,-72.86C596.88,-72.55 598.18,-72.26 599.48,-72 998.61,7.52 1109.65,-77.86 1514.48,-36 1526.59,-34.75 1539.45,-32.95 1551.8,-30.98"/>
<polygon fill="#ffffff" stroke="#ffffff" points="594.19,-69.61 585.52,-75.71 596.1,-76.35 594.19,-69.61"/>
</g>
<!-- Symmetric Relation -->
<g id="node13" class="node">
<title>Symmetric Relation</title>
<g id="a_node13"><a xlink:title="Symmetric Relation">
<ellipse fill="#273434" stroke="#b75867" cx="1426.48" cy="-18" rx="78.59" ry="18"/>
<text text-anchor="middle" x="1426.48" y="-14.9" font-family="sans" font-size="12.00" fill="#c4c7c7">Symmetric Relation</text>
</a>
</g>
</g>
<!-- Relation&#45;&gt;Symmetric Relation -->
<g id="edge18" class="edge">
<title>Relation&#45;&gt;Symmetric Relation</title>
<path fill="none" stroke="#ffffff" d="M595.57,-72.88C596.88,-72.56 598.19,-72.26 599.48,-72 922.1,-6.16 1012.6,-75.68 1339.48,-36 1349.86,-34.74 1360.87,-32.95 1371.44,-31"/>
<polygon fill="#ffffff" stroke="#ffffff" points="594.18,-69.63 585.53,-75.75 596.11,-76.36 594.18,-69.63"/>
</g>
<!-- Anti&#45;reflexive relation -->
<g id="node14" class="node">
<title>Anti&#45;reflexive relation</title>
<g id="a_node14"><a xlink:title="Anti&#45;reflexive relation">
<ellipse fill="#273434" stroke="#b75867" cx="311.48" cy="-18" rx="84.9" ry="18"/>
<text text-anchor="middle" x="311.48" y="-14.9" font-family="sans" font-size="12.00" fill="#c4c7c7">Anti&#45;reflexive relation</text>
</a>
</g>
</g>
<!-- Relation&#45;&gt;Anti&#45;reflexive relation -->
<g id="edge19" class="edge">
<title>Relation&#45;&gt;Anti&#45;reflexive relation</title>
<path fill="none" stroke="#ffffff" d="M511.79,-73.41C510.34,-72.92 508.89,-72.45 507.48,-72 459.79,-56.78 404.7,-42.13 365.09,-32.11"/>
<polygon fill="#ffffff" stroke="#ffffff" points="510.84,-76.78 521.43,-76.74 513.12,-70.17 510.84,-76.78"/>
</g>
<!-- Strongly Anti&#45;symmetric Relation -->
<g id="node15" class="node">
<title>Strongly Anti&#45;symmetric Relation</title>
<g id="a_node15"><a xlink:title="Strongly Anti&#45;symmetric Relation">
<ellipse fill="#273434" stroke="#b75867" cx="539.48" cy="-18" rx="124.93" ry="18"/>
<text text-anchor="middle" x="539.48" y="-14.9" font-family="sans" font-size="12.00" fill="#c4c7c7">Strongly Anti&#45;symmetric Relation</text>
</a>
</g>
</g>
<!-- Relation&#45;&gt;Strongly Anti&#45;symmetric Relation -->
<g id="edge20" class="edge">
<title>Relation&#45;&gt;Strongly Anti&#45;symmetric Relation</title>
<path fill="none" stroke="#ffffff" d="M548.01,-61.67C546.29,-53.05 544.43,-43.79 542.9,-36.1"/>
<polygon fill="#ffffff" stroke="#ffffff" points="544.62,-62.58 550.01,-71.7 551.49,-61.2 544.62,-62.58"/>
</g>
<!-- Reflexive Closure -->
<g id="node16" class="node">
<title>Reflexive Closure</title>
<g id="a_node16"><a xlink:title="Reflexive Closure">
<ellipse fill="#273434" stroke="#b75867" cx="1794.48" cy="-18" rx="69.62" ry="18"/>
<text text-anchor="middle" x="1794.48" y="-14.9" font-family="sans" font-size="12.00" fill="#c4c7c7">Reflexive Closure</text>
</a>
</g>
</g>
<!-- Relation&#45;&gt;Reflexive Closure -->
<g id="edge21" class="edge">
<title>Relation&#45;&gt;Reflexive Closure</title>
<path fill="none" stroke="#ffffff" d="M595.45,-82.05C618.92,-78.45 648.75,-74.32 675.48,-72 1136.69,-32 1257.12,-93.52 1716.48,-36 1726.1,-34.79 1736.3,-32.98 1746.03,-30.97"/>
<polygon fill="#ffffff" stroke="#ffffff" points="594.82,-78.61 585.48,-83.61 595.9,-85.53 594.82,-78.61"/>
</g>
<!-- Symmetric Closure -->
<g id="node17" class="node">
<title>Symmetric Closure</title>
<g id="a_node17"><a xlink:title="Symmetric Closure">
<ellipse fill="#273434" stroke="#b75867" cx="758.48" cy="-18" rx="75.94" ry="18"/>
<text text-anchor="middle" x="758.48" y="-14.9" font-family="sans" font-size="12.00" fill="#c4c7c7">Symmetric Closure</text>
</a>
</g>
</g>
<!-- Relation&#45;&gt;Symmetric Closure -->
<g id="edge22" class="edge">
<title>Relation&#45;&gt;Symmetric Closure</title>
<path fill="none" stroke="#ffffff" d="M595.2,-73.51C596.64,-73 598.07,-72.49 599.48,-72 638.59,-58.26 683.43,-43.39 715.5,-32.91"/>
<polygon fill="#ffffff" stroke="#ffffff" points="593.82,-70.29 585.6,-76.98 596.19,-76.88 593.82,-70.29"/>
</g>
<!-- Chain -->
<g id="node18" class="node">
<title>Chain</title>
<g id="a_node18"><a xlink:title="Chain">
<ellipse fill="#273434" stroke="#b75867" cx="882.48" cy="-18" rx="30.33" ry="18"/>
<text text-anchor="middle" x="882.48" y="-14.9" font-family="sans" font-size="12.00" fill="#c4c7c7">Chain</text>
</a>
</g>
</g>
<!-- Relation&#45;&gt;Chain -->
<g id="edge24" class="edge">
<title>Relation&#45;&gt;Chain</title>
<path fill="none" stroke="#ffffff" d="M595.18,-73.17C596.62,-72.75 598.06,-72.36 599.48,-72 705.68,-44.85 738.09,-66.16 843.48,-36 848.87,-34.46 854.5,-32.33 859.75,-30.1"/>
<polygon fill="#ffffff" stroke="#ffffff" points="594.12,-69.83 585.63,-76.16 596.22,-76.51 594.12,-69.83"/>
</g>
<!-- Partial function -->
<g id="node19" class="node">
<title>Partial function</title>
<g id="a_node19"><a xlink:title="Partial function">
<ellipse fill="#273434" stroke="#b75867" cx="994.48" cy="-18" rx="63.31" ry="18"/>
<text text-anchor="middle" x="994.48" y="-14.9" font-family="sans" font-size="12.00" fill="#c4c7c7">Partial function</text>
</a>
</g>
</g>
<!-- Relation&#45;&gt;Partial function -->
<g id="edge25" class="edge">
<title>Relation&#45;&gt;Partial function</title>
<path fill="none" stroke="#ffffff" d="M595.16,-73.1C596.61,-72.71 598.05,-72.34 599.48,-72 739.6,-38.8 779.55,-60.37 921.48,-36 930.32,-34.48 939.71,-32.54 948.69,-30.53"/>
<polygon fill="#ffffff" stroke="#ffffff" points="594.14,-69.75 585.59,-76.01 596.18,-76.45 594.14,-69.75"/>
</g>
<!-- Total function -->
<g id="node20" class="node">
<title>Total function</title>
<g id="a_node20"><a xlink:title="Total function">
<ellipse fill="#273434" stroke="#b75867" cx="1134.48" cy="-18" rx="58.46" ry="18"/>
<text text-anchor="middle" x="1134.48" y="-14.9" font-family="sans" font-size="12.00" fill="#c4c7c7">Total function</text>
</a>
</g>
</g>
<!-- Relation&#45;&gt;Total function -->
<g id="edge28" class="edge">
<title>Relation&#45;&gt;Total function</title>
<path fill="none" stroke="#ffffff" d="M595.15,-73.04C596.6,-72.66 598.05,-72.31 599.48,-72 802.83,-27.49 860.99,-69.36 1066.48,-36 1075,-34.62 1084.03,-32.69 1092.63,-30.63"/>
<polygon fill="#ffffff" stroke="#ffffff" points="594.16,-69.68 585.56,-75.87 596.14,-76.39 594.16,-69.68"/>
</g>
<!-- Anti&#45;symmetric Relation&#45;&gt;Relation -->
<g id="edge6" class="edge">
<title>Anti&#45;symmetric Relation&#45;&gt;Relation</title>
<path fill="none" stroke="#b75867" d="M352.21,-143.97C401.75,-130.93 468.64,-113.33 511.42,-102.07"/>
<polygon fill="#b75867" stroke="#b75867" points="512.45,-105.42 521.23,-99.49 510.66,-98.65 512.45,-105.42"/>
</g>
<!-- Anti&#45;symmetric Relation&#45;&gt;Relations -->
<g id="edge29" class="edge">
<title>Anti&#45;symmetric Relation&#45;&gt;Relations</title>
<path fill="none" stroke="#ffffff" d="M249.15,-138.79C198.09,-109.19 109.23,-57.69 66.62,-33"/>
<polygon fill="#ffffff" stroke="#ffffff" points="247.52,-141.89 257.92,-143.87 251.03,-135.83 247.52,-141.89"/>
</g>
<!-- Reflexive Relation&#45;&gt;Relation -->
<g id="edge7" class="edge">
<title>Reflexive Relation&#45;&gt;Relation</title>
<path fill="none" stroke="#b75867" d="M602.41,-143.7C594.54,-135.22 584.92,-124.86 576.3,-115.58"/>
<polygon fill="#b75867" stroke="#b75867" points="578.73,-113.05 569.36,-108.1 573.6,-117.81 578.73,-113.05"/>
</g>
<!-- Reflexive Relation&#45;&gt;Relations -->
<g id="edge32" class="edge">
<title>Reflexive Relation&#45;&gt;Relations</title>
<path fill="none" stroke="#ffffff" d="M555.76,-140.68C528.89,-131.47 497.34,-119.96 469.48,-108 436.96,-94.04 432.34,-82.23 398.48,-72 267.81,-32.53 226.69,-65.74 93.48,-36 86.92,-34.54 80.01,-32.55 73.48,-30.45"/>
<polygon fill="#ffffff" stroke="#ffffff" points="554.84,-144.07 565.44,-143.97 557.1,-137.44 554.84,-144.07"/>
</g>
<!-- Reflexive Relation&#45;&gt;Linear order -->
<g id="edge33" class="edge">
<title>Reflexive Relation&#45;&gt;Linear order</title>
<path fill="none" stroke="#ffffff" d="M569.86,-139.64C551.37,-130.76 530.43,-119.77 512.48,-108 491.63,-94.33 492.24,-82.15 469.48,-72 366.15,-25.92 328.25,-59 217.48,-36 209.83,-34.41 201.72,-32.42 193.99,-30.37"/>
<polygon fill="#ffffff" stroke="#ffffff" points="568.47,-142.85 579.01,-143.95 571.46,-136.52 568.47,-142.85"/>
</g>
<!-- Reflexive Relation&#45;&gt;Partial orders have no contours -->
<g id="edge34" class="edge">
<title>Reflexive Relation&#45;&gt;Partial orders have no contours</title>
<path fill="none" stroke="#ffffff" d="M681.35,-140.81C715.31,-129.91 756.6,-116.65 788.04,-106.55"/>
<polygon fill="#ffffff" stroke="#ffffff" points="679.98,-137.58 671.53,-143.97 682.12,-144.24 679.98,-137.58"/>
</g>
<!-- Reflexive Relation&#45;&gt;Relation of Equivalence -->
<g id="edge31" class="edge">
<title>Reflexive Relation&#45;&gt;Relation of Equivalence</title>
<path fill="none" stroke="#ffffff" d="M627.54,-134.64C636.28,-113.68 651.72,-85.66 675.48,-72 756.36,-25.47 1421.68,-45.76 1514.48,-36 1526.5,-34.73 1539.26,-32.94 1551.52,-30.99"/>
<polygon fill="#ffffff" stroke="#ffffff" points="624.27,-133.4 623.89,-143.99 630.79,-135.95 624.27,-133.4"/>
</g>
<!-- Reflexive Relation&#45;&gt;Reflexive Closure -->
<g id="edge30" class="edge">
<title>Reflexive Relation&#45;&gt;Reflexive Closure</title>
<path fill="none" stroke="#ffffff" d="M643.95,-136.78C653.3,-127.81 663.93,-117.5 673.48,-108 689.29,-92.26 688.08,-81.05 708.48,-72 810.92,-26.55 1605.28,-49.99 1716.48,-36 1726.1,-34.79 1736.29,-32.97 1746.03,-30.96"/>
<polygon fill="#ffffff" stroke="#ffffff" points="641.26,-134.52 636.45,-143.96 646.1,-139.57 641.26,-134.52"/>
</g>
</g>
</svg>
