<?xml version="1.0" encoding="UTF-8" standalone="no"?>
<!DOCTYPE svg PUBLIC "-//W3C//DTD SVG 1.1//EN"
 "http://www.w3.org/Graphics/SVG/1.1/DTD/svg11.dtd">
<!-- Generated by graphviz version 2.44.0 (0)
 -->
<!-- Title: Partial function Pages: 1 -->
<svg width="402pt" height="599pt"
 viewBox="0.00 0.00 402.00 599.00" xmlns="http://www.w3.org/2000/svg" xmlns:xlink="http://www.w3.org/1999/xlink">
<g id="page0,1_graph0" class="graph" transform="scale(1 1) rotate(0) translate(4 595)">
<title>Partial function</title>
<polygon fill="#132020" stroke="transparent" points="-4,4 -4,-595 398,-595 398,4 -4,4"/>
<!-- Partial function -->
<g id="node1" class="node">
<title>Partial function</title>
<g id="a_node1"><a xlink:href="../Partial function.html" xlink:title="Partial function" target="_parent">
<path fill="#273434" stroke="#b75867" d="M91,-184C91,-184 12,-184 12,-184 6,-184 0,-178 0,-172 0,-172 0,-160 0,-160 0,-154 6,-148 12,-148 12,-148 91,-148 91,-148 97,-148 103,-154 103,-160 103,-160 103,-172 103,-172 103,-178 97,-184 91,-184"/>
<text text-anchor="middle" x="51.5" y="-162.9" font-family="sans" font-size="12.00" fill="#c4c7c7">Partial function</text>
</a>
</g>
</g>
<!-- Relation -->
<g id="node2" class="node">
<title>Relation</title>
<g id="a_node2"><a xlink:href="../Relation.html" xlink:title="Relation" target="_parent">
<path fill="#273434" stroke="#b75867" d="M167,-295C167,-295 127,-295 127,-295 121,-295 115,-289 115,-283 115,-283 115,-271 115,-271 115,-265 121,-259 127,-259 127,-259 167,-259 167,-259 173,-259 179,-265 179,-271 179,-271 179,-283 179,-283 179,-289 173,-295 167,-295"/>
<text text-anchor="middle" x="147" y="-273.9" font-family="sans" font-size="12.00" fill="#c4c7c7">Relation</text>
</a>
</g>
</g>
<!-- Partial function&#45;&gt;Relation -->
<g id="edge1" class="edge">
<title>Partial function&#45;&gt;Relation</title>
<path fill="none" stroke="#b75867" d="M67.94,-184.33C83.23,-202.49 106.8,-230.46 124.04,-250.93"/>
<polygon fill="#b75867" stroke="#b75867" points="121.42,-253.25 130.54,-258.64 126.77,-248.74 121.42,-253.25"/>
</g>
<!-- Functions -->
<g id="node3" class="node">
<title>Functions</title>
<g id="a_node3"><a xlink:href="../Functions.html" xlink:title="Functions" target="_parent">
<path fill="none" stroke="#b75867" d="M171,-166C171,-166 123,-166 123,-166 117,-166 111,-160 111,-154 111,-154 111,-142 111,-142 111,-136 117,-130 123,-130 123,-130 171,-130 171,-130 177,-130 183,-136 183,-142 183,-142 183,-154 183,-154 183,-160 177,-166 171,-166"/>
<text text-anchor="middle" x="147" y="-144.9" font-family="sans" font-size="12.00" fill="#c4c7c7">Functions</text>
</a>
</g>
</g>
<!-- Partial function&#45;&gt;Functions -->
<g id="edge2" class="edge">
<title>Partial function&#45;&gt;Functions</title>
<path fill="none" stroke="#ffffff" d="M110.51,-154.83C110.67,-154.8 110.84,-154.77 111,-154.74"/>
<polygon fill="#ffffff" stroke="#ffffff" points="112.24,-150.94 103.08,-156.26 113.56,-157.81 112.24,-150.94"/>
</g>
<!-- Relation&#45;&gt;Partial function -->
<g id="edge14" class="edge">
<title>Relation&#45;&gt;Partial function</title>
<path fill="none" stroke="#ffffff" d="M123.74,-251.22C106.29,-230.67 82.5,-202.39 67.32,-184.15"/>
<polygon fill="#ffffff" stroke="#ffffff" points="121.17,-253.61 130.32,-258.96 126.51,-249.07 121.17,-253.61"/>
</g>
<!-- Descartes Product -->
<g id="node4" class="node">
<title>Descartes Product</title>
<g id="a_node4"><a xlink:href="../Descartes Product.html" xlink:title="Descartes Product" target="_parent">
<path fill="#273434" stroke="#b75867" d="M340,-591C340,-591 245,-591 245,-591 239,-591 233,-585 233,-579 233,-579 233,-567 233,-567 233,-561 239,-555 245,-555 245,-555 340,-555 340,-555 346,-555 352,-561 352,-567 352,-567 352,-579 352,-579 352,-585 346,-591 340,-591"/>
<text text-anchor="middle" x="292.5" y="-569.9" font-family="sans" font-size="12.00" fill="#c4c7c7">Descartes Product</text>
</a>
</g>
</g>
<!-- Relation&#45;&gt;Descartes Product -->
<g id="edge3" class="edge">
<title>Relation&#45;&gt;Descartes Product</title>
<path fill="none" stroke="#b75867" d="M148.27,-295.21C149.48,-350.32 156,-513.85 191,-551 199.6,-560.13 211.04,-565.91 223.13,-569.48"/>
<polygon fill="#b75867" stroke="#b75867" points="222.36,-572.9 232.91,-571.9 224.04,-566.1 222.36,-572.9"/>
</g>
<!-- Anti&#45;symmetric Relation -->
<g id="node5" class="node">
<title>Anti&#45;symmetric Relation</title>
<g id="a_node5"><a xlink:href="../Anti-symmetric Relation.html" xlink:title="Anti&#45;symmetric Relation" target="_parent">
<path fill="none" stroke="#b75867" d="M356.5,-554C356.5,-554 228.5,-554 228.5,-554 222.5,-554 216.5,-548 216.5,-542 216.5,-542 216.5,-530 216.5,-530 216.5,-524 222.5,-518 228.5,-518 228.5,-518 356.5,-518 356.5,-518 362.5,-518 368.5,-524 368.5,-530 368.5,-530 368.5,-542 368.5,-542 368.5,-548 362.5,-554 356.5,-554"/>
<text text-anchor="middle" x="292.5" y="-532.9" font-family="sans" font-size="12.00" fill="#c4c7c7">Anti&#45;symmetric Relation</text>
</a>
</g>
</g>
<!-- Relation&#45;&gt;Anti&#45;symmetric Relation -->
<g id="edge4" class="edge">
<title>Relation&#45;&gt;Anti&#45;symmetric Relation</title>
<path fill="none" stroke="#ffffff" d="M149.3,-305.2C152.47,-361.4 162.57,-484.52 191,-514 198.01,-521.26 206.81,-526.39 216.29,-529.97"/>
<polygon fill="#ffffff" stroke="#ffffff" points="152.79,-305.01 148.77,-295.21 145.8,-305.38 152.79,-305.01"/>
</g>
<!-- Symmetric Relation -->
<g id="node6" class="node">
<title>Symmetric Relation</title>
<g id="a_node6"><a xlink:href="../Symmetric Relation.html" xlink:title="Symmetric Relation" target="_parent">
<path fill="none" stroke="#b75867" d="M344.5,-517C344.5,-517 240.5,-517 240.5,-517 234.5,-517 228.5,-511 228.5,-505 228.5,-505 228.5,-493 228.5,-493 228.5,-487 234.5,-481 240.5,-481 240.5,-481 344.5,-481 344.5,-481 350.5,-481 356.5,-487 356.5,-493 356.5,-493 356.5,-505 356.5,-505 356.5,-511 350.5,-517 344.5,-517"/>
<text text-anchor="middle" x="292.5" y="-495.9" font-family="sans" font-size="12.00" fill="#c4c7c7">Symmetric Relation</text>
</a>
</g>
</g>
<!-- Relation&#45;&gt;Symmetric Relation -->
<g id="edge5" class="edge">
<title>Relation&#45;&gt;Symmetric Relation</title>
<path fill="none" stroke="#ffffff" d="M150.35,-305.22C155.03,-354.45 167.18,-453.09 191,-477 201.02,-487.06 214.51,-492.99 228.35,-496.39"/>
<polygon fill="#ffffff" stroke="#ffffff" points="153.83,-304.87 149.44,-295.23 146.86,-305.5 153.83,-304.87"/>
</g>
<!-- Transitive Relation -->
<g id="node7" class="node">
<title>Transitive Relation</title>
<g id="a_node7"><a xlink:href="../Transitive Relation.html" xlink:title="Transitive Relation" target="_parent">
<path fill="none" stroke="#b75867" d="M341,-480C341,-480 244,-480 244,-480 238,-480 232,-474 232,-468 232,-468 232,-456 232,-456 232,-450 238,-444 244,-444 244,-444 341,-444 341,-444 347,-444 353,-450 353,-456 353,-456 353,-468 353,-468 353,-474 347,-480 341,-480"/>
<text text-anchor="middle" x="292.5" y="-458.9" font-family="sans" font-size="12.00" fill="#c4c7c7">Transitive Relation</text>
</a>
</g>
</g>
<!-- Relation&#45;&gt;Transitive Relation -->
<g id="edge6" class="edge">
<title>Relation&#45;&gt;Transitive Relation</title>
<path fill="none" stroke="#ffffff" d="M147.09,-305.61C147.58,-342.12 154.24,-404.76 191,-440 202.02,-450.57 216.9,-456.53 231.81,-459.78"/>
<polygon fill="#ffffff" stroke="#ffffff" points="150.59,-305.18 147.11,-295.18 143.59,-305.17 150.59,-305.18"/>
</g>
<!-- Reflexive Relation -->
<g id="node8" class="node">
<title>Reflexive Relation</title>
<g id="a_node8"><a xlink:href="../Reflexive Relation.html" xlink:title="Reflexive Relation" target="_parent">
<path fill="none" stroke="#b75867" d="M339,-443C339,-443 246,-443 246,-443 240,-443 234,-437 234,-431 234,-431 234,-419 234,-419 234,-413 240,-407 246,-407 246,-407 339,-407 339,-407 345,-407 351,-413 351,-419 351,-419 351,-431 351,-431 351,-437 345,-443 339,-443"/>
<text text-anchor="middle" x="292.5" y="-421.9" font-family="sans" font-size="12.00" fill="#c4c7c7">Reflexive Relation</text>
</a>
</g>
</g>
<!-- Relation&#45;&gt;Reflexive Relation -->
<g id="edge7" class="edge">
<title>Relation&#45;&gt;Reflexive Relation</title>
<path fill="none" stroke="#ffffff" d="M149.82,-305.26C153.23,-334.09 163.02,-378.02 191,-403 202.79,-413.53 218.44,-419.4 233.87,-422.59"/>
<polygon fill="#ffffff" stroke="#ffffff" points="153.27,-304.63 148.8,-295.02 146.31,-305.32 153.27,-304.63"/>
</g>
<!-- Anti&#45;reflexive relation -->
<g id="node9" class="node">
<title>Anti&#45;reflexive relation</title>
<g id="a_node9"><a xlink:href="../Anti-reflexive relation.html" xlink:title="Anti&#45;reflexive relation" target="_parent">
<path fill="none" stroke="#b75867" d="M349.5,-406C349.5,-406 235.5,-406 235.5,-406 229.5,-406 223.5,-400 223.5,-394 223.5,-394 223.5,-382 223.5,-382 223.5,-376 229.5,-370 235.5,-370 235.5,-370 349.5,-370 349.5,-370 355.5,-370 361.5,-376 361.5,-382 361.5,-382 361.5,-394 361.5,-394 361.5,-400 355.5,-406 349.5,-406"/>
<text text-anchor="middle" x="292.5" y="-384.9" font-family="sans" font-size="12.00" fill="#c4c7c7">Anti&#45;reflexive relation</text>
</a>
</g>
</g>
<!-- Relation&#45;&gt;Anti&#45;reflexive relation -->
<g id="edge8" class="edge">
<title>Relation&#45;&gt;Anti&#45;reflexive relation</title>
<path fill="none" stroke="#ffffff" d="M154.58,-305.16C160.7,-325.1 171.84,-350.88 191,-366 200.39,-373.41 211.75,-378.45 223.41,-381.85"/>
<polygon fill="#ffffff" stroke="#ffffff" points="157.9,-304.03 151.82,-295.35 151.16,-305.93 157.9,-304.03"/>
</g>
<!-- Strongly Anti&#45;symmetric Relation -->
<g id="node10" class="node">
<title>Strongly Anti&#45;symmetric Relation</title>
<g id="a_node10"><a xlink:href="../Strongly Anti-symmetric Relation.html" xlink:title="Strongly Anti&#45;symmetric Relation" target="_parent">
<path fill="none" stroke="#b75867" d="M382,-369C382,-369 203,-369 203,-369 197,-369 191,-363 191,-357 191,-357 191,-345 191,-345 191,-339 197,-333 203,-333 203,-333 382,-333 382,-333 388,-333 394,-339 394,-345 394,-345 394,-357 394,-357 394,-363 388,-369 382,-369"/>
<text text-anchor="middle" x="292.5" y="-347.9" font-family="sans" font-size="12.00" fill="#c4c7c7">Strongly Anti&#45;symmetric Relation</text>
</a>
</g>
</g>
<!-- Relation&#45;&gt;Strongly Anti&#45;symmetric Relation -->
<g id="edge9" class="edge">
<title>Relation&#45;&gt;Strongly Anti&#45;symmetric Relation</title>
<path fill="none" stroke="#ffffff" d="M164.45,-303.48C171.53,-312.86 180.59,-322.65 191,-329 193.29,-330.4 195.65,-331.7 198.08,-332.93"/>
<polygon fill="#ffffff" stroke="#ffffff" points="167.15,-301.24 158.52,-295.1 161.44,-305.28 167.15,-301.24"/>
</g>
<!-- Reflexive Closure -->
<g id="node11" class="node">
<title>Reflexive Closure</title>
<g id="a_node11"><a xlink:href="../Reflexive Closure.html" xlink:title="Reflexive Closure" target="_parent">
<path fill="none" stroke="#b75867" d="M337,-332C337,-332 248,-332 248,-332 242,-332 236,-326 236,-320 236,-320 236,-308 236,-308 236,-302 242,-296 248,-296 248,-296 337,-296 337,-296 343,-296 349,-302 349,-308 349,-308 349,-320 349,-320 349,-326 343,-332 337,-332"/>
<text text-anchor="middle" x="292.5" y="-310.9" font-family="sans" font-size="12.00" fill="#c4c7c7">Reflexive Closure</text>
</a>
</g>
</g>
<!-- Relation&#45;&gt;Reflexive Closure -->
<g id="edge10" class="edge">
<title>Relation&#45;&gt;Reflexive Closure</title>
<path fill="none" stroke="#ffffff" d="M189.21,-291.49C189.81,-291.66 190.41,-291.83 191,-292 205.44,-296.08 221.22,-299.85 235.91,-303.08"/>
<polygon fill="#ffffff" stroke="#ffffff" points="189.92,-288.04 179.33,-288.42 187.84,-294.73 189.92,-288.04"/>
</g>
<!-- Symmetric Closure -->
<g id="node12" class="node">
<title>Symmetric Closure</title>
<g id="a_node12"><a xlink:href="../Symmetric Closure.html" xlink:title="Symmetric Closure" target="_parent">
<path fill="none" stroke="#b75867" d="M342,-295C342,-295 243,-295 243,-295 237,-295 231,-289 231,-283 231,-283 231,-271 231,-271 231,-265 237,-259 243,-259 243,-259 342,-259 342,-259 348,-259 354,-265 354,-271 354,-271 354,-283 354,-283 354,-289 348,-295 342,-295"/>
<text text-anchor="middle" x="292.5" y="-273.9" font-family="sans" font-size="12.00" fill="#c4c7c7">Symmetric Closure</text>
</a>
</g>
</g>
<!-- Relation&#45;&gt;Symmetric Closure -->
<g id="edge11" class="edge">
<title>Relation&#45;&gt;Symmetric Closure</title>
<path fill="none" stroke="#ffffff" d="M189.17,-277C202.18,-277 216.84,-277 230.92,-277"/>
<polygon fill="#ffffff" stroke="#ffffff" points="189.14,-273.5 179.14,-277 189.14,-280.5 189.14,-273.5"/>
</g>
<!-- Relation of Equivalence -->
<g id="node13" class="node">
<title>Relation of Equivalence</title>
<g id="a_node13"><a xlink:href="../Relation of Equivalence.html" xlink:title="Relation of Equivalence" target="_parent">
<path fill="none" stroke="#b75867" d="M355,-258C355,-258 230,-258 230,-258 224,-258 218,-252 218,-246 218,-246 218,-234 218,-234 218,-228 224,-222 230,-222 230,-222 355,-222 355,-222 361,-222 367,-228 367,-234 367,-234 367,-246 367,-246 367,-252 361,-258 355,-258"/>
<text text-anchor="middle" x="292.5" y="-236.9" font-family="sans" font-size="12.00" fill="#c4c7c7">Relation of Equivalence</text>
</a>
</g>
</g>
<!-- Relation&#45;&gt;Relation of Equivalence -->
<g id="edge12" class="edge">
<title>Relation&#45;&gt;Relation of Equivalence</title>
<path fill="none" stroke="#ffffff" d="M189.21,-262.51C189.81,-262.34 190.41,-262.17 191,-262 199.68,-259.55 208.85,-257.2 217.97,-255.02"/>
<polygon fill="#ffffff" stroke="#ffffff" points="187.84,-259.27 179.33,-265.58 189.92,-265.96 187.84,-259.27"/>
</g>
<!-- Chain -->
<g id="node14" class="node">
<title>Chain</title>
<g id="a_node14"><a xlink:href="../Chain.html" xlink:title="Chain" target="_parent">
<path fill="none" stroke="#b75867" d="M307.5,-221C307.5,-221 277.5,-221 277.5,-221 271.5,-221 265.5,-215 265.5,-209 265.5,-209 265.5,-197 265.5,-197 265.5,-191 271.5,-185 277.5,-185 277.5,-185 307.5,-185 307.5,-185 313.5,-185 319.5,-191 319.5,-197 319.5,-197 319.5,-209 319.5,-209 319.5,-215 313.5,-221 307.5,-221"/>
<text text-anchor="middle" x="292.5" y="-199.9" font-family="sans" font-size="12.00" fill="#c4c7c7">Chain</text>
</a>
</g>
</g>
<!-- Relation&#45;&gt;Chain -->
<g id="edge13" class="edge">
<title>Relation&#45;&gt;Chain</title>
<path fill="none" stroke="#ffffff" d="M164.45,-250.52C171.53,-241.14 180.59,-231.35 191,-225 213.72,-211.14 244.04,-205.96 265.41,-204.05"/>
<polygon fill="#ffffff" stroke="#ffffff" points="161.44,-248.72 158.52,-258.9 167.15,-252.76 161.44,-248.72"/>
</g>
<!-- Relations -->
<g id="node15" class="node">
<title>Relations</title>
<g id="a_node15"><a xlink:href="../Relations.html" xlink:title="Relations" target="_parent">
<path fill="none" stroke="#b75867" d="M315,-184C315,-184 270,-184 270,-184 264,-184 258,-178 258,-172 258,-172 258,-160 258,-160 258,-154 264,-148 270,-148 270,-148 315,-148 315,-148 321,-148 327,-154 327,-160 327,-160 327,-172 327,-172 327,-178 321,-184 315,-184"/>
<text text-anchor="middle" x="292.5" y="-162.9" font-family="sans" font-size="12.00" fill="#c4c7c7">Relations</text>
</a>
</g>
</g>
<!-- Relation&#45;&gt;Relations -->
<g id="edge15" class="edge">
<title>Relation&#45;&gt;Relations</title>
<path fill="none" stroke="#ffffff" d="M154.58,-248.84C160.7,-228.9 171.84,-203.12 191,-188 209.79,-173.17 236.44,-167.84 257.58,-166.12"/>
<polygon fill="#ffffff" stroke="#ffffff" points="151.16,-248.07 151.82,-258.65 157.9,-249.97 151.16,-248.07"/>
</g>
<!-- Linear order -->
<g id="node16" class="node">
<title>Linear order</title>
<g id="a_node16"><a xlink:href="../Linear order.html" xlink:title="Linear order" target="_parent">
<path fill="none" stroke="#b75867" d="M323.5,-147C323.5,-147 261.5,-147 261.5,-147 255.5,-147 249.5,-141 249.5,-135 249.5,-135 249.5,-123 249.5,-123 249.5,-117 255.5,-111 261.5,-111 261.5,-111 323.5,-111 323.5,-111 329.5,-111 335.5,-117 335.5,-123 335.5,-123 335.5,-135 335.5,-135 335.5,-141 329.5,-147 323.5,-147"/>
<text text-anchor="middle" x="292.5" y="-125.9" font-family="sans" font-size="12.00" fill="#c4c7c7">Linear order</text>
</a>
</g>
</g>
<!-- Relation&#45;&gt;Linear order -->
<g id="edge16" class="edge">
<title>Relation&#45;&gt;Linear order</title>
<path fill="none" stroke="#ffffff" d="M156.84,-248.84C168.28,-212.75 187.2,-154.39 191,-151 206.79,-136.91 229.5,-131.15 249.33,-129.02"/>
<polygon fill="#ffffff" stroke="#ffffff" points="153.37,-248.21 153.69,-258.8 160.04,-250.32 153.37,-248.21"/>
</g>
<!-- Total function -->
<g id="node17" class="node">
<title>Total function</title>
<g id="a_node17"><a xlink:href="../Total function.html" xlink:title="Total function" target="_parent">
<path fill="none" stroke="#b75867" d="M328,-73C328,-73 257,-73 257,-73 251,-73 245,-67 245,-61 245,-61 245,-49 245,-49 245,-43 251,-37 257,-37 257,-37 328,-37 328,-37 334,-37 340,-43 340,-49 340,-49 340,-61 340,-61 340,-67 334,-73 328,-73"/>
<text text-anchor="middle" x="292.5" y="-51.9" font-family="sans" font-size="12.00" fill="#c4c7c7">Total function</text>
</a>
</g>
</g>
<!-- Relation&#45;&gt;Total function -->
<g id="edge17" class="edge">
<title>Relation&#45;&gt;Total function</title>
<path fill="none" stroke="#ffffff" d="M158.8,-248.97C166.8,-227.01 177.27,-195.5 183,-167 186.96,-147.31 177.73,-92.07 191,-77 204.34,-61.85 225.48,-55.79 244.94,-53.75"/>
<polygon fill="#ffffff" stroke="#ffffff" points="155.41,-248.05 155.21,-258.64 161.97,-250.49 155.41,-248.05"/>
</g>
<!-- Partial order -->
<g id="node18" class="node">
<title>Partial order</title>
<g id="a_node18"><a xlink:href="../Partial order.html" xlink:title="Partial order" target="_parent">
<path fill="none" stroke="#b75867" d="M323.5,-110C323.5,-110 261.5,-110 261.5,-110 255.5,-110 249.5,-104 249.5,-98 249.5,-98 249.5,-86 249.5,-86 249.5,-80 255.5,-74 261.5,-74 261.5,-74 323.5,-74 323.5,-74 329.5,-74 335.5,-80 335.5,-86 335.5,-86 335.5,-98 335.5,-98 335.5,-104 329.5,-110 323.5,-110"/>
<text text-anchor="middle" x="292.5" y="-88.9" font-family="sans" font-size="12.00" fill="#c4c7c7">Partial order</text>
</a>
</g>
</g>
<!-- Relation&#45;&gt;Partial order -->
<g id="edge18" class="edge">
<title>Relation&#45;&gt;Partial order</title>
<path fill="none" stroke="#ffffff" d="M158.17,-249.26C165.92,-227.22 176.36,-195.48 183,-167 185.7,-155.4 182.86,-122.69 191,-114 205.77,-98.22 229.03,-92.45 249.46,-90.74"/>
<polygon fill="#ffffff" stroke="#ffffff" points="154.78,-248.36 154.72,-258.95 161.37,-250.71 154.78,-248.36"/>
</g>
<!-- Functions&#45;&gt;Partial function -->
<g id="edge20" class="edge">
<title>Functions&#45;&gt;Partial function</title>
<path fill="none" stroke="#b75867" d="M111,-155.47C110.84,-155.5 110.67,-155.53 110.51,-155.56"/>
<polygon fill="#b75867" stroke="#b75867" points="112.23,-151.66 103.08,-157.01 113.57,-158.53 112.23,-151.66"/>
</g>
<!-- Functions&#45;&gt;Total function -->
<g id="edge19" class="edge">
<title>Functions&#45;&gt;Total function</title>
<path fill="none" stroke="#b75867" d="M154.19,-129.95C160.75,-113.58 172.71,-90.08 191,-77 203.75,-67.88 219.57,-62.43 234.86,-59.2"/>
<polygon fill="#b75867" stroke="#b75867" points="235.59,-62.63 244.79,-57.38 234.33,-55.74 235.59,-62.63"/>
</g>
<!-- Discrete Structures -->
<g id="node19" class="node">
<title>Discrete Structures</title>
<g id="a_node19"><a xlink:href="../Discrete Structures.html" xlink:title="Discrete Structures" target="_parent">
<path fill="none" stroke="#b75867" d="M341.5,-36C341.5,-36 243.5,-36 243.5,-36 237.5,-36 231.5,-30 231.5,-24 231.5,-24 231.5,-12 231.5,-12 231.5,-6 237.5,0 243.5,0 243.5,0 341.5,0 341.5,0 347.5,0 353.5,-6 353.5,-12 353.5,-12 353.5,-24 353.5,-24 353.5,-30 347.5,-36 341.5,-36"/>
<text text-anchor="middle" x="292.5" y="-14.9" font-family="sans" font-size="12.00" fill="#c4c7c7">Discrete Structures</text>
</a>
</g>
</g>
<!-- Functions&#45;&gt;Discrete Structures -->
<g id="edge21" class="edge">
<title>Functions&#45;&gt;Discrete Structures</title>
<path fill="none" stroke="#ffffff" d="M151.75,-119.8C156.56,-95.11 167.3,-60.11 191,-40 202.3,-30.41 216.84,-24.72 231.33,-21.42"/>
<polygon fill="#ffffff" stroke="#ffffff" points="148.3,-119.23 150.04,-129.68 155.2,-120.43 148.3,-119.23"/>
</g>
</g>
</svg>
