<?xml version="1.0" encoding="UTF-8" standalone="no"?>
<!DOCTYPE svg PUBLIC "-//W3C//DTD SVG 1.1//EN"
 "http://www.w3.org/Graphics/SVG/1.1/DTD/svg11.dtd">
<!-- Generated by graphviz version 2.44.0 (0)
 -->
<!-- Title: Principle of partitions Pages: 1 -->
<svg width="527pt" height="451pt"
 viewBox="0.00 0.00 527.00 451.00" xmlns="http://www.w3.org/2000/svg" xmlns:xlink="http://www.w3.org/1999/xlink">
<g id="page0,1_graph0" class="graph" transform="scale(1 1) rotate(0) translate(4 447)">
<title>Principle of partitions</title>
<polygon fill="#132020" stroke="transparent" points="-4,4 -4,-447 523,-447 523,4 -4,4"/>
<!-- Principle of partitions -->
<g id="node1" class="node">
<title>Principle of partitions</title>
<g id="a_node1"><a xlink:href="../Principle of partitions.html" xlink:title="Principle of partitions" target="_parent">
<path fill="#273434" stroke="#b75867" d="M125,-258C125,-258 12,-258 12,-258 6,-258 0,-252 0,-246 0,-246 0,-234 0,-234 0,-228 6,-222 12,-222 12,-222 125,-222 125,-222 131,-222 137,-228 137,-234 137,-234 137,-246 137,-246 137,-252 131,-258 125,-258"/>
<text text-anchor="middle" x="68.5" y="-236.9" font-family="sans" font-size="12.00" fill="#c4c7c7">Principle of partitions</text>
</a>
</g>
</g>
<!-- Partition -->
<g id="node2" class="node">
<title>Partition</title>
<g id="a_node2"><a xlink:href="../Partition.html" xlink:title="Partition" target="_parent">
<path fill="#273434" stroke="#b75867" d="M241,-350C241,-350 200,-350 200,-350 194,-350 188,-344 188,-338 188,-338 188,-326 188,-326 188,-320 194,-314 200,-314 200,-314 241,-314 241,-314 247,-314 253,-320 253,-326 253,-326 253,-338 253,-338 253,-344 247,-350 241,-350"/>
<text text-anchor="middle" x="220.5" y="-328.9" font-family="sans" font-size="12.00" fill="#c4c7c7">Partition</text>
</a>
</g>
</g>
<!-- Principle of partitions&#45;&gt;Partition -->
<g id="edge1" class="edge">
<title>Principle of partitions&#45;&gt;Partition</title>
<path fill="none" stroke="#b75867" d="M99.14,-258.18C122.66,-272.6 155.72,-292.88 181.24,-308.53"/>
<polygon fill="#b75867" stroke="#b75867" points="179.57,-311.62 189.93,-313.86 183.23,-305.65 179.57,-311.62"/>
</g>
<!-- Set -->
<g id="node3" class="node">
<title>Set</title>
<g id="a_node3"><a xlink:href="../Set.html" xlink:title="Set" target="_parent">
<path fill="#273434" stroke="#b75867" d="M235.5,-258C235.5,-258 205.5,-258 205.5,-258 199.5,-258 193.5,-252 193.5,-246 193.5,-246 193.5,-234 193.5,-234 193.5,-228 199.5,-222 205.5,-222 205.5,-222 235.5,-222 235.5,-222 241.5,-222 247.5,-228 247.5,-234 247.5,-234 247.5,-246 247.5,-246 247.5,-252 241.5,-258 235.5,-258"/>
<text text-anchor="middle" x="220.5" y="-236.9" font-family="sans" font-size="12.00" fill="#c4c7c7">Set</text>
</a>
</g>
</g>
<!-- Principle of partitions&#45;&gt;Set -->
<g id="edge2" class="edge">
<title>Principle of partitions&#45;&gt;Set</title>
<path fill="none" stroke="#b75867" d="M137.04,-240C152.9,-240 169.22,-240 183.1,-240"/>
<polygon fill="#b75867" stroke="#b75867" points="183.2,-243.5 193.2,-240 183.2,-236.5 183.2,-243.5"/>
</g>
<!-- Combinatoric principles -->
<g id="node4" class="node">
<title>Combinatoric principles</title>
<g id="a_node4"><a xlink:href="../Combinatoric principles.html" xlink:title="Combinatoric principles" target="_parent">
<path fill="none" stroke="#b75867" d="M284,-166C284,-166 157,-166 157,-166 151,-166 145,-160 145,-154 145,-154 145,-142 145,-142 145,-136 151,-130 157,-130 157,-130 284,-130 284,-130 290,-130 296,-136 296,-142 296,-142 296,-154 296,-154 296,-160 290,-166 284,-166"/>
<text text-anchor="middle" x="220.5" y="-144.9" font-family="sans" font-size="12.00" fill="#c4c7c7">Combinatoric principles</text>
</a>
</g>
</g>
<!-- Principle of partitions&#45;&gt;Combinatoric principles -->
<g id="edge3" class="edge">
<title>Principle of partitions&#45;&gt;Combinatoric principles</title>
<path fill="none" stroke="#ffffff" d="M107.83,-216.49C133.36,-200.83 166.42,-180.56 189.93,-166.14"/>
<polygon fill="#ffffff" stroke="#ffffff" points="105.83,-213.61 99.14,-221.82 109.49,-219.58 105.83,-213.61"/>
</g>
<!-- Partition&#45;&gt;Principle of partitions -->
<g id="edge6" class="edge">
<title>Partition&#45;&gt;Principle of partitions</title>
<path fill="none" stroke="#ffffff" d="M180.2,-308.56C154.43,-292.89 121.33,-272.57 98.07,-258.12"/>
<polygon fill="#ffffff" stroke="#ffffff" points="178.61,-311.7 188.98,-313.9 182.25,-305.71 178.61,-311.7"/>
</g>
<!-- Class of equivalence -->
<g id="node5" class="node">
<title>Class of equivalence</title>
<g id="a_node5"><a xlink:href="../Class of equivalence.html" xlink:title="Class of equivalence" target="_parent">
<path fill="none" stroke="#b75867" d="M465,-443C465,-443 358,-443 358,-443 352,-443 346,-437 346,-431 346,-431 346,-419 346,-419 346,-413 352,-407 358,-407 358,-407 465,-407 465,-407 471,-407 477,-413 477,-419 477,-419 477,-431 477,-431 477,-437 471,-443 465,-443"/>
<text text-anchor="middle" x="411.5" y="-421.9" font-family="sans" font-size="12.00" fill="#c4c7c7">Class of equivalence</text>
</a>
</g>
</g>
<!-- Partition&#45;&gt;Class of equivalence -->
<g id="edge4" class="edge">
<title>Partition&#45;&gt;Class of equivalence</title>
<path fill="none" stroke="#ffffff" d="M244.35,-357.37C259.72,-372.88 281.27,-391.82 304,-403 316.96,-409.38 331.68,-413.9 345.96,-417.12"/>
<polygon fill="#ffffff" stroke="#ffffff" points="246.78,-354.85 237.32,-350.08 241.74,-359.71 246.78,-354.85"/>
</g>
<!-- Relation of Equivalence -->
<g id="node6" class="node">
<title>Relation of Equivalence</title>
<g id="a_node6"><a xlink:href="../Relation of Equivalence.html" xlink:title="Relation of Equivalence" target="_parent">
<path fill="none" stroke="#b75867" d="M474,-406C474,-406 349,-406 349,-406 343,-406 337,-400 337,-394 337,-394 337,-382 337,-382 337,-376 343,-370 349,-370 349,-370 474,-370 474,-370 480,-370 486,-376 486,-382 486,-382 486,-394 486,-394 486,-400 480,-406 474,-406"/>
<text text-anchor="middle" x="411.5" y="-384.9" font-family="sans" font-size="12.00" fill="#c4c7c7">Relation of Equivalence</text>
</a>
</g>
</g>
<!-- Partition&#45;&gt;Relation of Equivalence -->
<g id="edge5" class="edge">
<title>Partition&#45;&gt;Relation of Equivalence</title>
<path fill="none" stroke="#ffffff" d="M262.35,-350.61C275.46,-356.1 290.17,-361.76 304,-366 314.56,-369.24 325.86,-372.14 337,-374.7"/>
<polygon fill="#ffffff" stroke="#ffffff" points="263.69,-347.37 253.12,-346.66 260.94,-353.81 263.69,-347.37"/>
</g>
<!-- Set&#45;&gt;Principle of partitions -->
<g id="edge17" class="edge">
<title>Set&#45;&gt;Principle of partitions</title>
<path fill="none" stroke="#ffffff" d="M183.1,-240.65C169.22,-240.73 152.9,-240.76 137.04,-240.75"/>
<polygon fill="#ffffff" stroke="#ffffff" points="183.22,-244.15 193.2,-240.59 183.18,-237.15 183.22,-244.15"/>
</g>
<!-- Set&#45;&gt;Class of equivalence -->
<g id="edge9" class="edge">
<title>Set&#45;&gt;Class of equivalence</title>
<path fill="none" stroke="#ffffff" d="M255.32,-264.51C270.45,-277.43 286.89,-294.61 296,-314 304.44,-331.97 290.78,-388.18 304,-403 314.68,-414.98 330.01,-421.42 345.73,-424.7"/>
<polygon fill="#ffffff" stroke="#ffffff" points="257.53,-261.8 247.58,-258.16 253.09,-267.21 257.53,-261.8"/>
</g>
<!-- Set&#45;&gt;Relation of Equivalence -->
<g id="edge10" class="edge">
<title>Set&#45;&gt;Relation of Equivalence</title>
<path fill="none" stroke="#ffffff" d="M254.46,-264.49C269.55,-277.5 286.21,-294.77 296,-314 306.6,-334.84 287.89,-349.05 304,-366 312.84,-375.31 324.5,-381.22 336.86,-384.89"/>
<polygon fill="#ffffff" stroke="#ffffff" points="256.69,-261.79 246.76,-258.09 252.21,-267.17 256.69,-261.79"/>
</g>
<!-- Reflexive Closure -->
<g id="node7" class="node">
<title>Reflexive Closure</title>
<g id="a_node7"><a xlink:href="../Reflexive Closure.html" xlink:title="Reflexive Closure" target="_parent">
<path fill="none" stroke="#b75867" d="M456,-369C456,-369 367,-369 367,-369 361,-369 355,-363 355,-357 355,-357 355,-345 355,-345 355,-339 361,-333 367,-333 367,-333 456,-333 456,-333 462,-333 468,-339 468,-345 468,-345 468,-357 468,-357 468,-363 462,-369 456,-369"/>
<text text-anchor="middle" x="411.5" y="-347.9" font-family="sans" font-size="12.00" fill="#c4c7c7">Reflexive Closure</text>
</a>
</g>
</g>
<!-- Set&#45;&gt;Reflexive Closure -->
<g id="edge7" class="edge">
<title>Set&#45;&gt;Reflexive Closure</title>
<path fill="none" stroke="#ffffff" d="M250.23,-264.72C265.01,-278.33 282.66,-296.06 296,-314 300.51,-320.06 297.95,-324.47 304,-329 318.59,-339.91 337.31,-345.73 354.98,-348.73"/>
<polygon fill="#ffffff" stroke="#ffffff" points="252.57,-262.12 242.81,-258 247.87,-267.31 252.57,-262.12"/>
</g>
<!-- Symmetric Closure -->
<g id="node8" class="node">
<title>Symmetric Closure</title>
<g id="a_node8"><a xlink:href="../Symmetric Closure.html" xlink:title="Symmetric Closure" target="_parent">
<path fill="none" stroke="#b75867" d="M461,-332C461,-332 362,-332 362,-332 356,-332 350,-326 350,-320 350,-320 350,-308 350,-308 350,-302 356,-296 362,-296 362,-296 461,-296 461,-296 467,-296 473,-302 473,-308 473,-308 473,-320 473,-320 473,-326 467,-332 461,-332"/>
<text text-anchor="middle" x="411.5" y="-310.9" font-family="sans" font-size="12.00" fill="#c4c7c7">Symmetric Closure</text>
</a>
</g>
</g>
<!-- Set&#45;&gt;Symmetric Closure -->
<g id="edge8" class="edge">
<title>Set&#45;&gt;Symmetric Closure</title>
<path fill="none" stroke="#ffffff" d="M253.42,-263.9C268.15,-273.91 286.28,-284.86 304,-292 318.45,-297.82 334.64,-302.18 349.96,-305.4"/>
<polygon fill="#ffffff" stroke="#ffffff" points="255.37,-260.99 245.16,-258.14 251.36,-266.73 255.37,-260.99"/>
</g>
<!-- Recurrent Equations -->
<g id="node9" class="node">
<title>Recurrent Equations</title>
<g id="a_node9"><a xlink:href="../Recurrent Equations.html" xlink:title="Recurrent Equations" target="_parent">
<path fill="none" stroke="#b75867" d="M465,-295C465,-295 358,-295 358,-295 352,-295 346,-289 346,-283 346,-283 346,-271 346,-271 346,-265 352,-259 358,-259 358,-259 465,-259 465,-259 471,-259 477,-265 477,-271 477,-271 477,-283 477,-283 477,-289 471,-295 465,-295"/>
<text text-anchor="middle" x="411.5" y="-273.9" font-family="sans" font-size="12.00" fill="#c4c7c7">Recurrent Equations</text>
</a>
</g>
</g>
<!-- Set&#45;&gt;Recurrent Equations -->
<g id="edge11" class="edge">
<title>Set&#45;&gt;Recurrent Equations</title>
<path fill="none" stroke="#ffffff" d="M257.87,-247.12C282.74,-251.99 316.41,-258.58 345.8,-264.33"/>
<polygon fill="#ffffff" stroke="#ffffff" points="258.27,-243.63 247.78,-245.14 256.92,-250.5 258.27,-243.63"/>
</g>
<!-- Principle of division -->
<g id="node10" class="node">
<title>Principle of division</title>
<g id="a_node10"><a xlink:href="../Principle of division.html" xlink:title="Principle of division" target="_parent">
<path fill="none" stroke="#b75867" d="M462.5,-147C462.5,-147 360.5,-147 360.5,-147 354.5,-147 348.5,-141 348.5,-135 348.5,-135 348.5,-123 348.5,-123 348.5,-117 354.5,-111 360.5,-111 360.5,-111 462.5,-111 462.5,-111 468.5,-111 474.5,-117 474.5,-123 474.5,-123 474.5,-135 474.5,-135 474.5,-141 468.5,-147 462.5,-147"/>
<text text-anchor="middle" x="411.5" y="-125.9" font-family="sans" font-size="12.00" fill="#c4c7c7">Principle of division</text>
</a>
</g>
</g>
<!-- Set&#45;&gt;Principle of division -->
<g id="edge12" class="edge">
<title>Set&#45;&gt;Principle of division</title>
<path fill="none" stroke="#ffffff" d="M251.47,-214.89C266.09,-201.65 283.22,-184.54 296,-167 300.68,-160.57 297.7,-155.85 304,-151 316.72,-141.22 332.74,-135.51 348.46,-132.24"/>
<polygon fill="#ffffff" stroke="#ffffff" points="248.81,-212.57 243.66,-221.83 253.46,-217.81 248.81,-212.57"/>
</g>
<!-- Principle of products -->
<g id="node11" class="node">
<title>Principle of products</title>
<g id="a_node11"><a xlink:href="../Principle of products.html" xlink:title="Principle of products" target="_parent">
<path fill="none" stroke="#b75867" d="M466.5,-110C466.5,-110 356.5,-110 356.5,-110 350.5,-110 344.5,-104 344.5,-98 344.5,-98 344.5,-86 344.5,-86 344.5,-80 350.5,-74 356.5,-74 356.5,-74 466.5,-74 466.5,-74 472.5,-74 478.5,-80 478.5,-86 478.5,-86 478.5,-98 478.5,-98 478.5,-104 472.5,-110 466.5,-110"/>
<text text-anchor="middle" x="411.5" y="-88.9" font-family="sans" font-size="12.00" fill="#c4c7c7">Principle of products</text>
</a>
</g>
</g>
<!-- Set&#45;&gt;Principle of products -->
<g id="edge13" class="edge">
<title>Set&#45;&gt;Principle of products</title>
<path fill="none" stroke="#ffffff" d="M255.22,-215.31C270.12,-202.57 286.4,-185.77 296,-167 306.85,-145.79 287.62,-131.29 304,-114 314.58,-102.83 329.22,-96.54 344.26,-93.16"/>
<polygon fill="#ffffff" stroke="#ffffff" points="252.64,-212.9 247.14,-221.95 257.09,-218.3 252.64,-212.9"/>
</g>
<!-- Dirichlet principle -->
<g id="node12" class="node">
<title>Dirichlet principle</title>
<g id="a_node12"><a xlink:href="../Dirichlet principle.html" xlink:title="Dirichlet principle" target="_parent">
<path fill="none" stroke="#b75867" d="M457.5,-73C457.5,-73 365.5,-73 365.5,-73 359.5,-73 353.5,-67 353.5,-61 353.5,-61 353.5,-49 353.5,-49 353.5,-43 359.5,-37 365.5,-37 365.5,-37 457.5,-37 457.5,-37 463.5,-37 469.5,-43 469.5,-49 469.5,-49 469.5,-61 469.5,-61 469.5,-67 463.5,-73 457.5,-73"/>
<text text-anchor="middle" x="411.5" y="-51.9" font-family="sans" font-size="12.00" fill="#c4c7c7">Dirichlet principle</text>
</a>
</g>
</g>
<!-- Set&#45;&gt;Dirichlet principle -->
<g id="edge14" class="edge">
<title>Set&#45;&gt;Dirichlet principle</title>
<path fill="none" stroke="#ffffff" d="M255.74,-215.56C270.75,-202.88 286.98,-186.06 296,-167 304.59,-148.85 290.64,-91.99 304,-77 316.43,-63.05 335.18,-56.59 353.49,-53.93"/>
<polygon fill="#ffffff" stroke="#ffffff" points="253.15,-213.15 247.58,-222.17 257.55,-218.59 253.15,-213.15"/>
</g>
<!-- Principle of inclusion and exclusion -->
<g id="node13" class="node">
<title>Principle of inclusion and exclusion</title>
<g id="a_node13"><a xlink:href="../Principle of inclusion and exclusion.html" xlink:title="Principle of inclusion and exclusion" target="_parent">
<path fill="none" stroke="#b75867" d="M507,-221C507,-221 316,-221 316,-221 310,-221 304,-215 304,-209 304,-209 304,-197 304,-197 304,-191 310,-185 316,-185 316,-185 507,-185 507,-185 513,-185 519,-191 519,-197 519,-197 519,-209 519,-209 519,-215 513,-221 507,-221"/>
<text text-anchor="middle" x="411.5" y="-199.9" font-family="sans" font-size="12.00" fill="#c4c7c7">Principle of inclusion and exclusion</text>
</a>
</g>
</g>
<!-- Set&#45;&gt;Principle of inclusion and exclusion -->
<g id="edge15" class="edge">
<title>Set&#45;&gt;Principle of inclusion and exclusion</title>
<path fill="none" stroke="#ffffff" d="M257.98,-232.86C275.3,-229.47 296.87,-225.25 318.28,-221.05"/>
<polygon fill="#ffffff" stroke="#ffffff" points="256.92,-229.5 247.78,-234.86 258.27,-236.37 256.92,-229.5"/>
</g>
<!-- Differential Analysis -->
<g id="node14" class="node">
<title>Differential Analysis</title>
<g id="a_node14"><a xlink:href="../Differential Analysis.html" xlink:title="Differential Analysis" target="_parent">
<path fill="none" stroke="#b75867" d="M463,-258C463,-258 360,-258 360,-258 354,-258 348,-252 348,-246 348,-246 348,-234 348,-234 348,-228 354,-222 360,-222 360,-222 463,-222 463,-222 469,-222 475,-228 475,-234 475,-234 475,-246 475,-246 475,-252 469,-258 463,-258"/>
<text text-anchor="middle" x="411.5" y="-236.9" font-family="sans" font-size="12.00" fill="#c4c7c7">Differential Analysis</text>
</a>
</g>
</g>
<!-- Set&#45;&gt;Differential Analysis -->
<g id="edge16" class="edge">
<title>Set&#45;&gt;Differential Analysis</title>
<path fill="none" stroke="#ffffff" d="M258.08,-240C283.51,-240 318.04,-240 347.81,-240"/>
<polygon fill="#ffffff" stroke="#ffffff" points="257.78,-236.5 247.78,-240 257.78,-243.5 257.78,-236.5"/>
</g>
<!-- Principle of the bijection -->
<g id="node15" class="node">
<title>Principle of the bijection</title>
<g id="a_node15"><a xlink:href="../Principle of the bijection.html" xlink:title="Principle of the bijection" target="_parent">
<path fill="none" stroke="#b75867" d="M476.5,-184C476.5,-184 346.5,-184 346.5,-184 340.5,-184 334.5,-178 334.5,-172 334.5,-172 334.5,-160 334.5,-160 334.5,-154 340.5,-148 346.5,-148 346.5,-148 476.5,-148 476.5,-148 482.5,-148 488.5,-154 488.5,-160 488.5,-160 488.5,-172 488.5,-172 488.5,-178 482.5,-184 476.5,-184"/>
<text text-anchor="middle" x="411.5" y="-162.9" font-family="sans" font-size="12.00" fill="#c4c7c7">Principle of the bijection</text>
</a>
</g>
</g>
<!-- Set&#45;&gt;Principle of the bijection -->
<g id="edge18" class="edge">
<title>Set&#45;&gt;Principle of the bijection</title>
<path fill="none" stroke="#ffffff" d="M253.42,-216.1C268.15,-206.09 286.28,-195.14 304,-188 313.63,-184.12 324.04,-180.89 334.45,-178.21"/>
<polygon fill="#ffffff" stroke="#ffffff" points="251.36,-213.27 245.16,-221.86 255.37,-219.01 251.36,-213.27"/>
</g>
<!-- Combinatoric principles&#45;&gt;Principle of partitions -->
<g id="edge23" class="edge">
<title>Combinatoric principles&#45;&gt;Principle of partitions</title>
<path fill="none" stroke="#b75867" d="M190.97,-166.1C167.65,-180.57 134.45,-200.96 108.64,-216.66"/>
<polygon fill="#b75867" stroke="#b75867" points="106.58,-213.82 99.85,-222 110.22,-219.8 106.58,-213.82"/>
</g>
<!-- Combinatoric principles&#45;&gt;Principle of division -->
<g id="edge20" class="edge">
<title>Combinatoric principles&#45;&gt;Principle of division</title>
<path fill="none" stroke="#b75867" d="M296.2,-140.49C309.93,-139.11 324.24,-137.67 337.91,-136.3"/>
<polygon fill="#b75867" stroke="#b75867" points="338.62,-139.74 348.22,-135.26 337.92,-132.78 338.62,-139.74"/>
</g>
<!-- Combinatoric principles&#45;&gt;Principle of products -->
<g id="edge22" class="edge">
<title>Combinatoric principles&#45;&gt;Principle of products</title>
<path fill="none" stroke="#b75867" d="M261.23,-129.86C274.62,-124.23 289.78,-118.36 304,-114 313.78,-111 324.19,-108.29 334.53,-105.87"/>
<polygon fill="#b75867" stroke="#b75867" points="335.41,-109.26 344.39,-103.65 333.87,-102.43 335.41,-109.26"/>
</g>
<!-- Combinatoric principles&#45;&gt;Dirichlet principle -->
<g id="edge24" class="edge">
<title>Combinatoric principles&#45;&gt;Dirichlet principle</title>
<path fill="none" stroke="#b75867" d="M237.32,-129.92C252.7,-113.53 277.55,-90.01 304,-77 316.27,-70.96 330.12,-66.58 343.68,-63.4"/>
<polygon fill="#b75867" stroke="#b75867" points="344.43,-66.82 353.47,-61.29 342.95,-59.98 344.43,-66.82"/>
</g>
<!-- Combinatoric principles&#45;&gt;Principle of inclusion and exclusion -->
<g id="edge19" class="edge">
<title>Combinatoric principles&#45;&gt;Principle of inclusion and exclusion</title>
<path fill="none" stroke="#b75867" d="M262.54,-166.07C275.62,-171.38 290.26,-176.87 304,-181 305.44,-181.43 306.9,-181.86 308.36,-182.28"/>
<polygon fill="#b75867" stroke="#b75867" points="307.6,-185.7 318.17,-184.98 309.46,-178.96 307.6,-185.7"/>
</g>
<!-- Combinatoric principles&#45;&gt;Principle of the bijection -->
<g id="edge21" class="edge">
<title>Combinatoric principles&#45;&gt;Principle of the bijection</title>
<path fill="none" stroke="#b75867" d="M296.2,-155.11C305.44,-155.99 314.95,-156.9 324.35,-157.8"/>
<polygon fill="#b75867" stroke="#b75867" points="324.2,-161.3 334.49,-158.76 324.86,-154.33 324.2,-161.3"/>
</g>
<!-- Combinatorics -->
<g id="node16" class="node">
<title>Combinatorics</title>
<g id="a_node16"><a xlink:href="../Combinatorics.html" xlink:title="Combinatorics" target="_parent">
<path fill="none" stroke="#b75867" d="M448.5,-36C448.5,-36 374.5,-36 374.5,-36 368.5,-36 362.5,-30 362.5,-24 362.5,-24 362.5,-12 362.5,-12 362.5,-6 368.5,0 374.5,0 374.5,0 448.5,0 448.5,0 454.5,0 460.5,-6 460.5,-12 460.5,-12 460.5,-24 460.5,-24 460.5,-30 454.5,-36 448.5,-36"/>
<text text-anchor="middle" x="411.5" y="-14.9" font-family="sans" font-size="12.00" fill="#c4c7c7">Combinatorics</text>
</a>
</g>
</g>
<!-- Combinatoric principles&#45;&gt;Combinatorics -->
<g id="edge25" class="edge">
<title>Combinatoric principles&#45;&gt;Combinatorics</title>
<path fill="none" stroke="#ffffff" d="M234.91,-120.86C248.73,-95.84 272.65,-59.7 304,-40 321.34,-29.1 343.12,-23.49 362.45,-20.64"/>
<polygon fill="#ffffff" stroke="#ffffff" points="231.74,-119.37 230.12,-129.84 237.91,-122.67 231.74,-119.37"/>
</g>
</g>
</svg>
