<?xml version="1.0" encoding="UTF-8" standalone="no"?>
<!DOCTYPE svg PUBLIC "-//W3C//DTD SVG 1.1//EN"
 "http://www.w3.org/Graphics/SVG/1.1/DTD/svg11.dtd">
<!-- Generated by graphviz version 2.44.0 (0)
 -->
<!-- Title: Principle of division Pages: 1 -->
<svg width="3314pt" height="404pt"
 viewBox="0.00 0.00 3314.29 404.00" xmlns="http://www.w3.org/2000/svg" xmlns:xlink="http://www.w3.org/1999/xlink">
<g id="page0,1_graph0" class="graph" transform="scale(1 1) rotate(0) translate(4 400)">
<title>Principle of division</title>
<polygon fill="#132020" stroke="transparent" points="-4,4 -4,-400 3310.29,-400 3310.29,4 -4,4"/>
<!-- Principle of division -->
<g id="node1" class="node">
<title>Principle of division</title>
<g id="a_node1"><a xlink:title="Principle of division">
<path fill="#273434" stroke="#b75867" d="M1963.94,-396C1963.94,-396 1861.94,-396 1861.94,-396 1855.94,-396 1849.94,-390 1849.94,-384 1849.94,-384 1849.94,-372 1849.94,-372 1849.94,-366 1855.94,-360 1861.94,-360 1861.94,-360 1963.94,-360 1963.94,-360 1969.94,-360 1975.94,-366 1975.94,-372 1975.94,-372 1975.94,-384 1975.94,-384 1975.94,-390 1969.94,-396 1963.94,-396"/>
<text text-anchor="middle" x="1912.94" y="-374.9" font-family="sans" font-size="12.00" fill="#c4c7c7">Principle of division</text>
</a>
</g>
</g>
<!-- Class of equivalence -->
<g id="node2" class="node">
<title>Class of equivalence</title>
<g id="a_node2"><a xlink:title="Class of equivalence">
<path fill="#273434" stroke="#b75867" d="M1909.44,-324C1909.44,-324 1802.44,-324 1802.44,-324 1796.44,-324 1790.44,-318 1790.44,-312 1790.44,-312 1790.44,-300 1790.44,-300 1790.44,-294 1796.44,-288 1802.44,-288 1802.44,-288 1909.44,-288 1909.44,-288 1915.44,-288 1921.44,-294 1921.44,-300 1921.44,-300 1921.44,-312 1921.44,-312 1921.44,-318 1915.44,-324 1909.44,-324"/>
<text text-anchor="middle" x="1855.94" y="-302.9" font-family="sans" font-size="12.00" fill="#c4c7c7">Class of equivalence</text>
</a>
</g>
</g>
<!-- Principle of division&#45;&gt;Class of equivalence -->
<g id="edge1" class="edge">
<title>Principle of division&#45;&gt;Class of equivalence</title>
<path fill="none" stroke="#b75867" d="M1898.85,-359.7C1892.02,-351.3 1883.68,-341.07 1876.18,-331.86"/>
<polygon fill="#b75867" stroke="#b75867" points="1878.9,-329.65 1869.87,-324.1 1873.47,-334.07 1878.9,-329.65"/>
</g>
<!-- Set -->
<g id="node4" class="node">
<title>Set</title>
<g id="a_node4"><a xlink:title="Set">
<path fill="#273434" stroke="#b75867" d="M2285.94,-180C2285.94,-180 2255.94,-180 2255.94,-180 2249.94,-180 2243.94,-174 2243.94,-168 2243.94,-168 2243.94,-156 2243.94,-156 2243.94,-150 2249.94,-144 2255.94,-144 2255.94,-144 2285.94,-144 2285.94,-144 2291.94,-144 2297.94,-150 2297.94,-156 2297.94,-156 2297.94,-168 2297.94,-168 2297.94,-174 2291.94,-180 2285.94,-180"/>
<text text-anchor="middle" x="2270.94" y="-158.9" font-family="sans" font-size="12.00" fill="#c4c7c7">Set</text>
</a>
</g>
</g>
<!-- Principle of division&#45;&gt;Set -->
<g id="edge3" class="edge">
<title>Principle of division&#45;&gt;Set</title>
<path fill="none" stroke="#b75867" d="M1921.99,-359.78C1933.08,-340.1 1953.58,-308.03 1978.94,-288 2058.74,-224.96 2175.11,-187.87 2233.94,-172.07"/>
<polygon fill="#b75867" stroke="#b75867" points="2235.12,-175.38 2243.9,-169.45 2233.34,-168.61 2235.12,-175.38"/>
</g>
<!-- Relation of Equivalence -->
<g id="node5" class="node">
<title>Relation of Equivalence</title>
<g id="a_node5"><a xlink:title="Relation of Equivalence">
<path fill="#273434" stroke="#b75867" d="M1792.44,-252C1792.44,-252 1667.44,-252 1667.44,-252 1661.44,-252 1655.44,-246 1655.44,-240 1655.44,-240 1655.44,-228 1655.44,-228 1655.44,-222 1661.44,-216 1667.44,-216 1667.44,-216 1792.44,-216 1792.44,-216 1798.44,-216 1804.44,-222 1804.44,-228 1804.44,-228 1804.44,-240 1804.44,-240 1804.44,-246 1798.44,-252 1792.44,-252"/>
<text text-anchor="middle" x="1729.94" y="-230.9" font-family="sans" font-size="12.00" fill="#c4c7c7">Relation of Equivalence</text>
</a>
</g>
</g>
<!-- Principle of division&#45;&gt;Relation of Equivalence -->
<g id="edge2" class="edge">
<title>Principle of division&#45;&gt;Relation of Equivalence</title>
<path fill="none" stroke="#b75867" d="M1849.76,-361.2C1826.22,-353 1800.5,-341.02 1780.94,-324 1761.52,-307.1 1747.77,-280.9 1739.48,-261.3"/>
<polygon fill="#b75867" stroke="#b75867" points="1742.72,-259.98 1735.74,-252 1736.22,-262.59 1742.72,-259.98"/>
</g>
<!-- Combinatoric principles -->
<g id="node10" class="node">
<title>Combinatoric principles</title>
<g id="a_node10"><a xlink:title="Combinatoric principles">
<ellipse fill="#273434" stroke="#b75867" cx="2080.94" cy="-306" rx="92.91" ry="18"/>
<text text-anchor="middle" x="2080.94" y="-302.9" font-family="sans" font-size="12.00" fill="#c4c7c7">Combinatoric principles</text>
</a>
</g>
</g>
<!-- Principle of division&#45;&gt;Combinatoric principles -->
<g id="edge14" class="edge">
<title>Principle of division&#45;&gt;Combinatoric principles</title>
<path fill="none" stroke="#ffffff" d="M1963.3,-356.02C1989.13,-345.25 2020.05,-332.37 2043.71,-322.51"/>
<polygon fill="#ffffff" stroke="#ffffff" points="1961.92,-352.8 1954.04,-359.88 1964.61,-359.26 1961.92,-352.8"/>
</g>
<!-- Partition -->
<g id="node3" class="node">
<title>Partition</title>
<g id="a_node3"><a xlink:title="Partition">
<path fill="#273434" stroke="#b75867" d="M1927.44,-180C1927.44,-180 1886.44,-180 1886.44,-180 1880.44,-180 1874.44,-174 1874.44,-168 1874.44,-168 1874.44,-156 1874.44,-156 1874.44,-150 1880.44,-144 1886.44,-144 1886.44,-144 1927.44,-144 1927.44,-144 1933.44,-144 1939.44,-150 1939.44,-156 1939.44,-156 1939.44,-168 1939.44,-168 1939.44,-174 1933.44,-180 1927.44,-180"/>
<text text-anchor="middle" x="1906.94" y="-158.9" font-family="sans" font-size="12.00" fill="#c4c7c7">Partition</text>
</a>
</g>
</g>
<!-- Class of equivalence&#45;&gt;Partition -->
<g id="edge4" class="edge">
<title>Class of equivalence&#45;&gt;Partition</title>
<path fill="none" stroke="#b75867" d="M1862.09,-287.87C1870.86,-263.46 1887.03,-218.43 1897.37,-189.64"/>
<polygon fill="#b75867" stroke="#b75867" points="1900.68,-190.78 1900.77,-180.19 1894.09,-188.42 1900.68,-190.78"/>
</g>
<!-- Class of equivalence&#45;&gt;Set -->
<g id="edge5" class="edge">
<title>Class of equivalence&#45;&gt;Set</title>
<path fill="none" stroke="#b75867" d="M1868.04,-287.72C1883.54,-267.03 1912.45,-233.04 1945.94,-216 1995.72,-190.67 2158.84,-173.13 2233.29,-166.25"/>
<polygon fill="#b75867" stroke="#b75867" points="2233.96,-169.7 2243.6,-165.31 2233.33,-162.73 2233.96,-169.7"/>
</g>
<!-- Class of equivalence&#45;&gt;Relation of Equivalence -->
<g id="edge6" class="edge">
<title>Class of equivalence&#45;&gt;Relation of Equivalence</title>
<path fill="none" stroke="#b75867" d="M1819.22,-287.88C1801.79,-278.72 1781.15,-267.34 1764.06,-257.48"/>
<polygon fill="#b75867" stroke="#b75867" points="1765.38,-254.2 1754.98,-252.19 1761.86,-260.25 1765.38,-254.2"/>
</g>
<!-- Relations -->
<g id="node11" class="node">
<title>Relations</title>
<g id="a_node11"><a xlink:title="Relations">
<ellipse fill="#273434" stroke="#b75867" cx="1367.94" cy="-18" rx="42.45" ry="18"/>
<text text-anchor="middle" x="1367.94" y="-14.9" font-family="sans" font-size="12.00" fill="#c4c7c7">Relations</text>
</a>
</g>
</g>
<!-- Class of equivalence&#45;&gt;Relations -->
<g id="edge15" class="edge">
<title>Class of equivalence&#45;&gt;Relations</title>
<path fill="none" stroke="#ffffff" d="M1856.99,-277.72C1857.25,-228.31 1850.03,-124.3 1788.94,-72 1787.13,-70.45 1512.99,-36.75 1408.11,-23.91"/>
<polygon fill="#ffffff" stroke="#ffffff" points="1853.48,-277.89 1856.82,-287.94 1860.48,-278 1853.48,-277.89"/>
</g>
<!-- Principle of partitions -->
<g id="node12" class="node">
<title>Principle of partitions</title>
<g id="a_node12"><a xlink:title="Principle of partitions">
<ellipse fill="#273434" stroke="#b75867" cx="1957.94" cy="-90" rx="84.17" ry="18"/>
<text text-anchor="middle" x="1957.94" y="-86.9" font-family="sans" font-size="12.00" fill="#c4c7c7">Principle of partitions</text>
</a>
</g>
</g>
<!-- Partition&#45;&gt;Principle of partitions -->
<g id="edge16" class="edge">
<title>Partition&#45;&gt;Principle of partitions</title>
<path fill="none" stroke="#ffffff" d="M1925.62,-135.36C1932.24,-126.28 1939.51,-116.3 1945.48,-108.1"/>
<polygon fill="#ffffff" stroke="#ffffff" points="1922.61,-133.55 1919.55,-143.7 1928.26,-137.68 1922.61,-133.55"/>
</g>
<!-- Set&#45;&gt;Principle of partitions -->
<g id="edge24" class="edge">
<title>Set&#45;&gt;Principle of partitions</title>
<path fill="none" stroke="#ffffff" d="M2233.79,-152.69C2179.32,-140.51 2077.36,-117.71 2013.82,-103.5"/>
<polygon fill="#ffffff" stroke="#ffffff" points="2233.19,-156.14 2243.71,-154.91 2234.72,-149.31 2233.19,-156.14"/>
</g>
<!-- Reflexive Closure -->
<g id="node13" class="node">
<title>Reflexive Closure</title>
<g id="a_node13"><a xlink:title="Reflexive Closure">
<ellipse fill="#273434" stroke="#b75867" cx="1585.94" cy="-18" rx="69.62" ry="18"/>
<text text-anchor="middle" x="1585.94" y="-14.9" font-family="sans" font-size="12.00" fill="#c4c7c7">Reflexive Closure</text>
</a>
</g>
</g>
<!-- Set&#45;&gt;Reflexive Closure -->
<g id="edge17" class="edge">
<title>Set&#45;&gt;Reflexive Closure</title>
<path fill="none" stroke="#ffffff" d="M2233.58,-155.46C2195.28,-148.59 2134.99,-134.42 2088.94,-108 2068.76,-96.42 2072.05,-81.78 2050.94,-72 1917.87,-10.35 1868.6,-53.03 1722.94,-36 1698.06,-33.09 1670.67,-29.72 1646.96,-26.76"/>
<polygon fill="#ffffff" stroke="#ffffff" points="2233.31,-158.96 2243.76,-157.2 2234.5,-152.06 2233.31,-158.96"/>
</g>
<!-- Symmetric Closure -->
<g id="node14" class="node">
<title>Symmetric Closure</title>
<g id="a_node14"><a xlink:title="Symmetric Closure">
<ellipse fill="#273434" stroke="#b75867" cx="1807.94" cy="-18" rx="75.94" ry="18"/>
<text text-anchor="middle" x="1807.94" y="-14.9" font-family="sans" font-size="12.00" fill="#c4c7c7">Symmetric Closure</text>
</a>
</g>
</g>
<!-- Set&#45;&gt;Symmetric Closure -->
<g id="edge18" class="edge">
<title>Set&#45;&gt;Symmetric Closure</title>
<path fill="none" stroke="#ffffff" d="M2308.69,-157.46C2379.56,-149.47 2521.09,-126.32 2470.94,-72 2431.78,-29.58 2049.14,-21.09 1883.61,-19.41"/>
<polygon fill="#ffffff" stroke="#ffffff" points="2307.93,-154.02 2298.37,-158.58 2308.68,-160.98 2307.93,-154.02"/>
</g>
<!-- Recurrent Equations -->
<g id="node15" class="node">
<title>Recurrent Equations</title>
<g id="a_node15"><a xlink:title="Recurrent Equations">
<ellipse fill="#273434" stroke="#b75867" cx="2598.94" cy="-90" rx="80.78" ry="18"/>
<text text-anchor="middle" x="2598.94" y="-86.9" font-family="sans" font-size="12.00" fill="#c4c7c7">Recurrent Equations</text>
</a>
</g>
</g>
<!-- Set&#45;&gt;Recurrent Equations -->
<g id="edge19" class="edge">
<title>Set&#45;&gt;Recurrent Equations</title>
<path fill="none" stroke="#ffffff" d="M2308.13,-153.06C2365.45,-140.83 2475.8,-117.28 2542.85,-102.97"/>
<polygon fill="#ffffff" stroke="#ffffff" points="2307.11,-149.7 2298.06,-155.21 2308.57,-156.55 2307.11,-149.7"/>
</g>
<!-- Principle of products -->
<g id="node16" class="node">
<title>Principle of products</title>
<g id="a_node16"><a xlink:title="Principle of products">
<ellipse fill="#273434" stroke="#b75867" cx="2779.94" cy="-90" rx="82.48" ry="18"/>
<text text-anchor="middle" x="2779.94" y="-86.9" font-family="sans" font-size="12.00" fill="#c4c7c7">Principle of products</text>
</a>
</g>
</g>
<!-- Set&#45;&gt;Principle of products -->
<g id="edge20" class="edge">
<title>Set&#45;&gt;Principle of products</title>
<path fill="none" stroke="#ffffff" d="M2308.53,-156.98C2381.87,-148.97 2549.11,-129.91 2688.94,-108 2699.26,-106.38 2710.21,-104.49 2720.8,-102.57"/>
<polygon fill="#ffffff" stroke="#ffffff" points="2307.97,-153.52 2298.41,-158.08 2308.73,-160.48 2307.97,-153.52"/>
</g>
<!-- Dirichlet principle -->
<g id="node17" class="node">
<title>Dirichlet principle</title>
<g id="a_node17"><a xlink:title="Dirichlet principle">
<ellipse fill="#273434" stroke="#b75867" cx="2951.94" cy="-90" rx="71.32" ry="18"/>
<text text-anchor="middle" x="2951.94" y="-86.9" font-family="sans" font-size="12.00" fill="#c4c7c7">Dirichlet principle</text>
</a>
</g>
</g>
<!-- Set&#45;&gt;Dirichlet principle -->
<g id="edge21" class="edge">
<title>Set&#45;&gt;Dirichlet principle</title>
<path fill="none" stroke="#ffffff" d="M2308.18,-159.25C2402.67,-154.48 2659.29,-139.44 2870.94,-108 2880.61,-106.56 2890.85,-104.69 2900.69,-102.72"/>
<polygon fill="#ffffff" stroke="#ffffff" points="2307.8,-155.77 2297.99,-159.76 2308.15,-162.76 2307.8,-155.77"/>
</g>
<!-- Principle of inclusion and exclusion -->
<g id="node18" class="node">
<title>Principle of inclusion and exclusion</title>
<g id="a_node18"><a xlink:title="Principle of inclusion and exclusion">
<ellipse fill="#273434" stroke="#b75867" cx="3173.94" cy="-90" rx="132.2" ry="18"/>
<text text-anchor="middle" x="3173.94" y="-86.9" font-family="sans" font-size="12.00" fill="#c4c7c7">Principle of inclusion and exclusion</text>
</a>
</g>
</g>
<!-- Set&#45;&gt;Principle of inclusion and exclusion -->
<g id="edge22" class="edge">
<title>Set&#45;&gt;Principle of inclusion and exclusion</title>
<path fill="none" stroke="#ffffff" d="M2308.23,-159.06C2418.78,-153.17 2754.41,-134.26 3031.94,-108 3047.76,-106.5 3064.55,-104.69 3080.82,-102.82"/>
<polygon fill="#ffffff" stroke="#ffffff" points="2307.74,-155.58 2297.94,-159.61 2308.11,-162.57 2307.74,-155.58"/>
</g>
<!-- Differential Analysis -->
<g id="node19" class="node">
<title>Differential Analysis</title>
<g id="a_node19"><a xlink:title="Differential Analysis">
<ellipse fill="#273434" stroke="#b75867" cx="2175.94" cy="-90" rx="78.36" ry="18"/>
<text text-anchor="middle" x="2175.94" y="-86.9" font-family="sans" font-size="12.00" fill="#c4c7c7">Differential Analysis</text>
</a>
</g>
</g>
<!-- Set&#45;&gt;Differential Analysis -->
<g id="edge23" class="edge">
<title>Set&#45;&gt;Differential Analysis</title>
<path fill="none" stroke="#ffffff" d="M2239.35,-137.73C2225.86,-127.78 2210.43,-116.42 2198.17,-107.38"/>
<polygon fill="#ffffff" stroke="#ffffff" points="2237.33,-140.58 2247.46,-143.7 2241.48,-134.95 2237.33,-140.58"/>
</g>
<!-- Principle of the bijection -->
<g id="node20" class="node">
<title>Principle of the bijection</title>
<g id="a_node20"><a xlink:title="Principle of the bijection">
<ellipse fill="#273434" stroke="#b75867" cx="2366.94" cy="-90" rx="94.6" ry="18"/>
<text text-anchor="middle" x="2366.94" y="-86.9" font-family="sans" font-size="12.00" fill="#c4c7c7">Principle of the bijection</text>
</a>
</g>
</g>
<!-- Set&#45;&gt;Principle of the bijection -->
<g id="edge25" class="edge">
<title>Set&#45;&gt;Principle of the bijection</title>
<path fill="none" stroke="#ffffff" d="M2302.8,-137.77C2316.33,-127.91 2331.79,-116.63 2344.14,-107.62"/>
<polygon fill="#ffffff" stroke="#ffffff" points="2300.69,-134.98 2294.67,-143.7 2304.81,-140.63 2300.69,-134.98"/>
</g>
<!-- Relation of Equivalence&#45;&gt;Class of equivalence -->
<g id="edge7" class="edge">
<title>Relation of Equivalence&#45;&gt;Class of equivalence</title>
<path fill="none" stroke="#b75867" d="M1766.79,-252.19C1784.23,-261.35 1804.87,-272.74 1821.94,-282.59"/>
<polygon fill="#b75867" stroke="#b75867" points="1820.61,-285.86 1831.01,-287.88 1824.14,-279.82 1820.61,-285.86"/>
</g>
<!-- Relation of Equivalence&#45;&gt;Partition -->
<g id="edge9" class="edge">
<title>Relation of Equivalence&#45;&gt;Partition</title>
<path fill="none" stroke="#b75867" d="M1773.24,-215.88C1801.16,-204.83 1837.29,-190.54 1864.95,-179.61"/>
<polygon fill="#b75867" stroke="#b75867" points="1866.34,-182.82 1874.36,-175.89 1863.77,-176.31 1866.34,-182.82"/>
</g>
<!-- Relation of Equivalence&#45;&gt;Set -->
<g id="edge8" class="edge">
<title>Relation of Equivalence&#45;&gt;Set</title>
<path fill="none" stroke="#b75867" d="M1804.6,-223.34C1922,-208.15 2145.5,-179.23 2233.76,-167.81"/>
<polygon fill="#b75867" stroke="#b75867" points="2234.36,-171.26 2243.83,-166.51 2233.47,-164.32 2234.36,-171.26"/>
</g>
<!-- Transitive Relation -->
<g id="node6" class="node">
<title>Transitive Relation</title>
<g id="a_node6"><a xlink:title="Transitive Relation">
<path fill="#273434" stroke="#b75867" d="M314.44,-108C314.44,-108 217.44,-108 217.44,-108 211.44,-108 205.44,-102 205.44,-96 205.44,-96 205.44,-84 205.44,-84 205.44,-78 211.44,-72 217.44,-72 217.44,-72 314.44,-72 314.44,-72 320.44,-72 326.44,-78 326.44,-84 326.44,-84 326.44,-96 326.44,-96 326.44,-102 320.44,-108 314.44,-108"/>
<text text-anchor="middle" x="265.94" y="-86.9" font-family="sans" font-size="12.00" fill="#c4c7c7">Transitive Relation</text>
</a>
</g>
</g>
<!-- Relation of Equivalence&#45;&gt;Transitive Relation -->
<g id="edge10" class="edge">
<title>Relation of Equivalence&#45;&gt;Transitive Relation</title>
<path fill="none" stroke="#b75867" d="M1655.32,-232.89C1484.73,-231.83 1053.35,-224.56 695.94,-180 567.87,-164.03 421.13,-130.26 336.43,-109.22"/>
<polygon fill="#b75867" stroke="#b75867" points="337.22,-105.81 326.67,-106.78 335.52,-112.6 337.22,-105.81"/>
</g>
<!-- Symmetric Relation -->
<g id="node7" class="node">
<title>Symmetric Relation</title>
<g id="a_node7"><a xlink:title="Symmetric Relation">
<path fill="#273434" stroke="#b75867" d="M1767.94,-108C1767.94,-108 1663.94,-108 1663.94,-108 1657.94,-108 1651.94,-102 1651.94,-96 1651.94,-96 1651.94,-84 1651.94,-84 1651.94,-78 1657.94,-72 1663.94,-72 1663.94,-72 1767.94,-72 1767.94,-72 1773.94,-72 1779.94,-78 1779.94,-84 1779.94,-84 1779.94,-96 1779.94,-96 1779.94,-102 1773.94,-108 1767.94,-108"/>
<text text-anchor="middle" x="1715.94" y="-86.9" font-family="sans" font-size="12.00" fill="#c4c7c7">Symmetric Relation</text>
</a>
</g>
</g>
<!-- Relation of Equivalence&#45;&gt;Symmetric Relation -->
<g id="edge11" class="edge">
<title>Relation of Equivalence&#45;&gt;Symmetric Relation</title>
<path fill="none" stroke="#b75867" d="M1728.25,-215.87C1725.87,-191.67 1721.48,-147.21 1718.64,-118.39"/>
<polygon fill="#b75867" stroke="#b75867" points="1722.1,-117.8 1717.64,-108.19 1715.13,-118.48 1722.1,-117.8"/>
</g>
<!-- Reflexive Relation -->
<g id="node8" class="node">
<title>Reflexive Relation</title>
<g id="a_node8"><a xlink:title="Reflexive Relation">
<path fill="#273434" stroke="#b75867" d="M449.44,-108C449.44,-108 356.44,-108 356.44,-108 350.44,-108 344.44,-102 344.44,-96 344.44,-96 344.44,-84 344.44,-84 344.44,-78 350.44,-72 356.44,-72 356.44,-72 449.44,-72 449.44,-72 455.44,-72 461.44,-78 461.44,-84 461.44,-84 461.44,-96 461.44,-96 461.44,-102 455.44,-108 449.44,-108"/>
<text text-anchor="middle" x="402.94" y="-86.9" font-family="sans" font-size="12.00" fill="#c4c7c7">Reflexive Relation</text>
</a>
</g>
</g>
<!-- Relation of Equivalence&#45;&gt;Reflexive Relation -->
<g id="edge12" class="edge">
<title>Relation of Equivalence&#45;&gt;Reflexive Relation</title>
<path fill="none" stroke="#b75867" d="M1655.17,-230.55C1513.22,-225.33 1195.07,-211.01 928.94,-180 736.47,-157.58 689.9,-140.89 498.94,-108 490.06,-106.47 480.72,-104.84 471.5,-103.22"/>
<polygon fill="#b75867" stroke="#b75867" points="472.02,-99.76 461.56,-101.47 470.8,-106.65 472.02,-99.76"/>
</g>
<!-- Relation -->
<g id="node9" class="node">
<title>Relation</title>
<g id="a_node9"><a xlink:title="Relation">
<path fill="#273434" stroke="#b75867" d="M989.94,-180C989.94,-180 949.94,-180 949.94,-180 943.94,-180 937.94,-174 937.94,-168 937.94,-168 937.94,-156 937.94,-156 937.94,-150 943.94,-144 949.94,-144 949.94,-144 989.94,-144 989.94,-144 995.94,-144 1001.94,-150 1001.94,-156 1001.94,-156 1001.94,-168 1001.94,-168 1001.94,-174 995.94,-180 989.94,-180"/>
<text text-anchor="middle" x="969.94" y="-158.9" font-family="sans" font-size="12.00" fill="#c4c7c7">Relation</text>
</a>
</g>
</g>
<!-- Relation of Equivalence&#45;&gt;Relation -->
<g id="edge13" class="edge">
<title>Relation of Equivalence&#45;&gt;Relation</title>
<path fill="none" stroke="#b75867" d="M1655.34,-226.13C1497.98,-211.64 1136.41,-178.33 1012.51,-166.92"/>
<polygon fill="#b75867" stroke="#b75867" points="1012.57,-163.41 1002.29,-165.98 1011.93,-170.38 1012.57,-163.41"/>
</g>
<!-- Relation of Equivalence&#45;&gt;Relations -->
<g id="edge26" class="edge">
<title>Relation of Equivalence&#45;&gt;Relations</title>
<path fill="none" stroke="#ffffff" d="M1711.62,-208.02C1684.18,-172.42 1628.94,-107.48 1566.94,-72 1516.67,-43.23 1450.33,-29.65 1408.39,-23.55"/>
<polygon fill="#ffffff" stroke="#ffffff" points="1708.84,-210.14 1717.67,-215.99 1714.41,-205.91 1708.84,-210.14"/>
</g>
<!-- Transitive Relation&#45;&gt;Relations -->
<g id="edge28" class="edge">
<title>Transitive Relation&#45;&gt;Relations</title>
<path fill="none" stroke="#ffffff" d="M336.97,-71.89C551.08,-42.49 1159.77,-24.55 1325.73,-20.09"/>
<polygon fill="#ffffff" stroke="#ffffff" points="336.17,-68.47 326.77,-73.35 337.16,-75.4 336.17,-68.47"/>
</g>
<!-- Transitive Closure -->
<g id="node21" class="node">
<title>Transitive Closure</title>
<g id="a_node21"><a xlink:title="Transitive Closure">
<ellipse fill="#273434" stroke="#b75867" cx="194.94" cy="-18" rx="71.32" ry="18"/>
<text text-anchor="middle" x="194.94" y="-14.9" font-family="sans" font-size="12.00" fill="#c4c7c7">Transitive Closure</text>
</a>
</g>
</g>
<!-- Transitive Relation&#45;&gt;Transitive Closure -->
<g id="edge27" class="edge">
<title>Transitive Relation&#45;&gt;Transitive Closure</title>
<path fill="none" stroke="#ffffff" d="M241.24,-64.65C231.51,-55.06 220.59,-44.29 211.8,-35.62"/>
<polygon fill="#ffffff" stroke="#ffffff" points="238.81,-67.17 248.39,-71.7 243.73,-62.18 238.81,-67.17"/>
</g>
<!-- Linear order -->
<g id="node22" class="node">
<title>Linear order</title>
<g id="a_node22"><a xlink:title="Linear order">
<ellipse fill="#273434" stroke="#b75867" cx="592.94" cy="-18" rx="52.88" ry="18"/>
<text text-anchor="middle" x="592.94" y="-14.9" font-family="sans" font-size="12.00" fill="#c4c7c7">Linear order</text>
</a>
</g>
</g>
<!-- Transitive Relation&#45;&gt;Linear order -->
<g id="edge29" class="edge">
<title>Transitive Relation&#45;&gt;Linear order</title>
<path fill="none" stroke="#ffffff" d="M336.5,-71.74C423.28,-53.54 447.72,-55.02 530.94,-36 538.45,-34.28 546.41,-32.26 554.04,-30.21"/>
<polygon fill="#ffffff" stroke="#ffffff" points="335.53,-68.37 326.48,-73.87 336.98,-75.21 335.53,-68.37"/>
</g>
<!-- Partial orders have no contours -->
<g id="node23" class="node">
<title>Partial orders have no contours</title>
<g id="a_node23"><a xlink:title="Partial orders have no contours">
<ellipse fill="#273434" stroke="#b75867" cx="402.94" cy="-18" rx="118.62" ry="18"/>
<text text-anchor="middle" x="402.94" y="-14.9" font-family="sans" font-size="12.00" fill="#c4c7c7">Partial orders have no contours</text>
</a>
</g>
</g>
<!-- Transitive Relation&#45;&gt;Partial orders have no contours -->
<g id="edge30" class="edge">
<title>Transitive Relation&#45;&gt;Partial orders have no contours</title>
<path fill="none" stroke="#ffffff" d="M308.41,-67.3C328.51,-57.03 352.12,-44.97 370.72,-35.47"/>
<polygon fill="#ffffff" stroke="#ffffff" points="306.77,-64.21 299.45,-71.88 309.95,-70.44 306.77,-64.21"/>
</g>
<!-- Partial order -->
<g id="node24" class="node">
<title>Partial order</title>
<g id="a_node24"><a xlink:title="Partial order">
<ellipse fill="#273434" stroke="#b75867" cx="52.94" cy="-18" rx="52.88" ry="18"/>
<text text-anchor="middle" x="52.94" y="-14.9" font-family="sans" font-size="12.00" fill="#c4c7c7">Partial order</text>
</a>
</g>
</g>
<!-- Transitive Relation&#45;&gt;Partial order -->
<g id="edge31" class="edge">
<title>Transitive Relation&#45;&gt;Partial order</title>
<path fill="none" stroke="#ffffff" d="M204.37,-68.77C167.21,-56.55 121.1,-41.4 89.59,-31.04"/>
<polygon fill="#ffffff" stroke="#ffffff" points="203.51,-72.17 214.11,-71.97 205.7,-65.52 203.51,-72.17"/>
</g>
<!-- Symmetric Relation&#45;&gt;Relations -->
<g id="edge33" class="edge">
<title>Symmetric Relation&#45;&gt;Relations</title>
<path fill="none" stroke="#ffffff" d="M1641.75,-72.79C1640.47,-72.53 1639.2,-72.26 1637.94,-72 1555.38,-54.9 1458.32,-36.19 1406,-26.21"/>
<polygon fill="#ffffff" stroke="#ffffff" points="1641.18,-76.25 1651.69,-74.89 1642.63,-69.4 1641.18,-76.25"/>
</g>
<!-- Symmetric Relation&#45;&gt;Symmetric Closure -->
<g id="edge32" class="edge">
<title>Symmetric Relation&#45;&gt;Symmetric Closure</title>
<path fill="none" stroke="#ffffff" d="M1746.9,-65.44C1759.88,-55.57 1774.65,-44.33 1786.41,-35.38"/>
<polygon fill="#ffffff" stroke="#ffffff" points="1744.52,-62.86 1738.68,-71.7 1748.76,-68.43 1744.52,-62.86"/>
</g>
<!-- Reflexive Relation&#45;&gt;Relations -->
<g id="edge35" class="edge">
<title>Reflexive Relation&#45;&gt;Relations</title>
<path fill="none" stroke="#ffffff" d="M471.89,-76.95C484.2,-75.08 496.93,-73.33 508.94,-72 821.18,-37.41 1199.95,-23.89 1325.36,-20.16"/>
<polygon fill="#ffffff" stroke="#ffffff" points="471.02,-73.54 461.67,-78.54 472.09,-80.46 471.02,-73.54"/>
</g>
<!-- Reflexive Relation&#45;&gt;Reflexive Closure -->
<g id="edge34" class="edge">
<title>Reflexive Relation&#45;&gt;Reflexive Closure</title>
<path fill="none" stroke="#ffffff" d="M471.87,-76.72C484.18,-74.88 496.91,-73.2 508.94,-72 911.71,-31.88 1015.18,-64.51 1418.94,-36 1453.68,-33.55 1492.38,-29.68 1523.77,-26.25"/>
<polygon fill="#ffffff" stroke="#ffffff" points="471,-73.32 461.65,-78.3 472.07,-80.23 471,-73.32"/>
</g>
<!-- Reflexive Relation&#45;&gt;Linear order -->
<g id="edge36" class="edge">
<title>Reflexive Relation&#45;&gt;Linear order</title>
<path fill="none" stroke="#ffffff" d="M459.15,-68.29C491.29,-56.45 530.6,-41.97 558.26,-31.78"/>
<polygon fill="#ffffff" stroke="#ffffff" points="457.59,-65.13 449.42,-71.88 460.01,-71.7 457.59,-65.13"/>
</g>
<!-- Reflexive Relation&#45;&gt;Partial orders have no contours -->
<g id="edge37" class="edge">
<title>Reflexive Relation&#45;&gt;Partial orders have no contours</title>
<path fill="none" stroke="#ffffff" d="M402.94,-61.67C402.94,-53.05 402.94,-43.79 402.94,-36.1"/>
<polygon fill="#ffffff" stroke="#ffffff" points="399.44,-61.7 402.94,-71.7 406.44,-61.7 399.44,-61.7"/>
</g>
<!-- Reflexive Relation&#45;&gt;Partial order -->
<g id="edge38" class="edge">
<title>Reflexive Relation&#45;&gt;Partial order</title>
<path fill="none" stroke="#ffffff" d="M334.35,-71.99C236.15,-52.27 208.62,-56.45 114.94,-36 107.42,-34.36 99.44,-32.37 91.81,-30.33"/>
<polygon fill="#ffffff" stroke="#ffffff" points="333.91,-75.47 344.41,-74.04 335.31,-68.61 333.91,-75.47"/>
</g>
<!-- Relation&#45;&gt;Transitive Relation -->
<g id="edge41" class="edge">
<title>Relation&#45;&gt;Transitive Relation</title>
<path fill="none" stroke="#ffffff" d="M927.42,-159.77C824.88,-156.31 556.1,-144.24 334.94,-108 332.26,-107.56 329.53,-107.07 326.79,-106.54"/>
<polygon fill="#ffffff" stroke="#ffffff" points="927.56,-163.28 937.67,-160.11 927.79,-156.28 927.56,-163.28"/>
</g>
<!-- Relation&#45;&gt;Symmetric Relation -->
<g id="edge40" class="edge">
<title>Relation&#45;&gt;Symmetric Relation</title>
<path fill="none" stroke="#ffffff" d="M1012.3,-158.34C1113.88,-151.77 1379.31,-133.42 1599.94,-108 1616.82,-106.05 1635.04,-103.57 1651.91,-101.1"/>
<polygon fill="#ffffff" stroke="#ffffff" points="1011.89,-154.86 1002.14,-158.99 1012.34,-161.85 1011.89,-154.86"/>
</g>
<!-- Relation&#45;&gt;Reflexive Relation -->
<g id="edge42" class="edge">
<title>Relation&#45;&gt;Reflexive Relation</title>
<path fill="none" stroke="#ffffff" d="M927.8,-157.15C824.86,-147.62 562.68,-122.7 475.94,-108 471.32,-107.22 466.56,-106.32 461.78,-105.35"/>
<polygon fill="#ffffff" stroke="#ffffff" points="927.55,-160.64 937.83,-158.07 928.2,-153.67 927.55,-160.64"/>
</g>
<!-- Relation&#45;&gt;Relations -->
<g id="edge49" class="edge">
<title>Relation&#45;&gt;Relations</title>
<path fill="none" stroke="#ffffff" d="M1011.99,-160.74C1070.79,-158.79 1179.5,-149.3 1260.94,-108 1281.69,-97.48 1281.25,-87.11 1298.94,-72 1314.68,-58.56 1333.33,-44.33 1347.28,-34"/>
<polygon fill="#ffffff" stroke="#ffffff" points="1011.86,-157.25 1001.96,-161.02 1012.05,-164.24 1011.86,-157.25"/>
</g>
<!-- Relation&#45;&gt;Reflexive Closure -->
<g id="edge45" class="edge">
<title>Relation&#45;&gt;Reflexive Closure</title>
<path fill="none" stroke="#ffffff" d="M1012.61,-160.09C1142.31,-156.94 1525.59,-144.6 1566.94,-108 1587.17,-90.09 1588.85,-56.4 1587.74,-36"/>
<polygon fill="#ffffff" stroke="#ffffff" points="1012.2,-156.6 1002.28,-160.34 1012.36,-163.6 1012.2,-156.6"/>
</g>
<!-- Relation&#45;&gt;Symmetric Closure -->
<g id="edge46" class="edge">
<title>Relation&#45;&gt;Symmetric Closure</title>
<path fill="none" stroke="#ffffff" d="M1012.69,-161.19C1172.67,-161.53 1729.92,-158.99 1788.94,-108 1809.38,-90.34 1810.99,-56.56 1809.81,-36.08"/>
<polygon fill="#ffffff" stroke="#ffffff" points="1012.31,-157.69 1002.3,-161.17 1012.29,-164.69 1012.31,-157.69"/>
</g>
<!-- Relation&#45;&gt;Linear order -->
<g id="edge50" class="edge">
<title>Relation&#45;&gt;Linear order</title>
<path fill="none" stroke="#ffffff" d="M927.75,-156.9C815.21,-145.85 515.9,-115.81 508.94,-108 498.29,-96.06 501.21,-86.01 508.94,-72 519.35,-53.13 539.62,-40.05 557.64,-31.6"/>
<polygon fill="#ffffff" stroke="#ffffff" points="927.44,-160.38 937.73,-157.87 928.12,-153.42 927.44,-160.38"/>
</g>
<!-- Relation&#45;&gt;Partial order -->
<g id="edge52" class="edge">
<title>Relation&#45;&gt;Partial order</title>
<path fill="none" stroke="#ffffff" d="M927.15,-160.78C785.59,-159.64 333.65,-152.5 195.94,-108 146.97,-92.18 97.74,-56.04 71.76,-35.01"/>
<polygon fill="#ffffff" stroke="#ffffff" points="927.54,-164.28 937.57,-160.86 927.59,-157.28 927.54,-164.28"/>
</g>
<!-- Anti&#45;symmetric Relation -->
<g id="node25" class="node">
<title>Anti&#45;symmetric Relation</title>
<g id="a_node25"><a xlink:title="Anti&#45;symmetric Relation">
<ellipse fill="#273434" stroke="#b75867" cx="969.94" cy="-90" rx="93.64" ry="18"/>
<text text-anchor="middle" x="969.94" y="-86.9" font-family="sans" font-size="12.00" fill="#c4c7c7">Anti&#45;symmetric Relation</text>
</a>
</g>
</g>
<!-- Relation&#45;&gt;Anti&#45;symmetric Relation -->
<g id="edge39" class="edge">
<title>Relation&#45;&gt;Anti&#45;symmetric Relation</title>
<path fill="none" stroke="#ffffff" d="M969.94,-133.67C969.94,-125.05 969.94,-115.79 969.94,-108.1"/>
<polygon fill="#ffffff" stroke="#ffffff" points="966.44,-133.7 969.94,-143.7 973.44,-133.7 966.44,-133.7"/>
</g>
<!-- Anti&#45;reflexive relation -->
<g id="node26" class="node">
<title>Anti&#45;reflexive relation</title>
<g id="a_node26"><a xlink:title="Anti&#45;reflexive relation">
<ellipse fill="#273434" stroke="#b75867" cx="1166.94" cy="-90" rx="84.9" ry="18"/>
<text text-anchor="middle" x="1166.94" y="-86.9" font-family="sans" font-size="12.00" fill="#c4c7c7">Anti&#45;reflexive relation</text>
</a>
</g>
</g>
<!-- Relation&#45;&gt;Anti&#45;reflexive relation -->
<g id="edge43" class="edge">
<title>Relation&#45;&gt;Anti&#45;reflexive relation</title>
<path fill="none" stroke="#ffffff" d="M1011.52,-146.22C1044.98,-134.34 1091.77,-117.71 1125.26,-105.81"/>
<polygon fill="#ffffff" stroke="#ffffff" points="1010.28,-142.95 1002.03,-149.6 1012.63,-149.55 1010.28,-142.95"/>
</g>
<!-- Strongly Anti&#45;symmetric Relation -->
<g id="node27" class="node">
<title>Strongly Anti&#45;symmetric Relation</title>
<g id="a_node27"><a xlink:title="Strongly Anti&#45;symmetric Relation">
<ellipse fill="#273434" stroke="#b75867" cx="1432.94" cy="-90" rx="124.93" ry="18"/>
<text text-anchor="middle" x="1432.94" y="-86.9" font-family="sans" font-size="12.00" fill="#c4c7c7">Strongly Anti&#45;symmetric Relation</text>
</a>
</g>
</g>
<!-- Relation&#45;&gt;Strongly Anti&#45;symmetric Relation -->
<g id="edge44" class="edge">
<title>Relation&#45;&gt;Strongly Anti&#45;symmetric Relation</title>
<path fill="none" stroke="#ffffff" d="M1012.33,-154.59C1088.8,-143.03 1251.04,-118.5 1350.17,-103.51"/>
<polygon fill="#ffffff" stroke="#ffffff" points="1011.49,-151.18 1002.13,-156.13 1012.54,-158.1 1011.49,-151.18"/>
</g>
<!-- Chain -->
<g id="node28" class="node">
<title>Chain</title>
<g id="a_node28"><a xlink:title="Chain">
<ellipse fill="#273434" stroke="#b75867" cx="547.94" cy="-90" rx="30.33" ry="18"/>
<text text-anchor="middle" x="547.94" y="-86.9" font-family="sans" font-size="12.00" fill="#c4c7c7">Chain</text>
</a>
</g>
</g>
<!-- Relation&#45;&gt;Chain -->
<g id="edge47" class="edge">
<title>Relation&#45;&gt;Chain</title>
<path fill="none" stroke="#ffffff" d="M927.57,-158.78C856.29,-154.23 708.4,-141.32 587.94,-108 582.27,-106.43 576.34,-104.24 570.84,-101.95"/>
<polygon fill="#ffffff" stroke="#ffffff" points="927.73,-162.29 937.92,-159.41 928.16,-155.3 927.73,-162.29"/>
</g>
<!-- Partial function -->
<g id="node29" class="node">
<title>Partial function</title>
<g id="a_node29"><a xlink:title="Partial function">
<ellipse fill="#273434" stroke="#b75867" cx="659.94" cy="-90" rx="63.31" ry="18"/>
<text text-anchor="middle" x="659.94" y="-86.9" font-family="sans" font-size="12.00" fill="#c4c7c7">Partial function</text>
</a>
</g>
</g>
<!-- Relation&#45;&gt;Partial function -->
<g id="edge48" class="edge">
<title>Relation&#45;&gt;Partial function</title>
<path fill="none" stroke="#ffffff" d="M927.82,-151.7C880.41,-141.2 801.11,-123.56 732.94,-108 724.69,-106.12 715.93,-104.1 707.44,-102.13"/>
<polygon fill="#ffffff" stroke="#ffffff" points="927.2,-155.15 937.72,-153.89 928.71,-148.31 927.2,-155.15"/>
</g>
<!-- Total function -->
<g id="node30" class="node">
<title>Total function</title>
<g id="a_node30"><a xlink:title="Total function">
<ellipse fill="#273434" stroke="#b75867" cx="799.94" cy="-90" rx="58.46" ry="18"/>
<text text-anchor="middle" x="799.94" y="-86.9" font-family="sans" font-size="12.00" fill="#c4c7c7">Total function</text>
</a>
</g>
</g>
<!-- Relation&#45;&gt;Total function -->
<g id="edge51" class="edge">
<title>Relation&#45;&gt;Total function</title>
<path fill="none" stroke="#ffffff" d="M928.08,-143.77C899.01,-131.79 860.77,-116.05 833.65,-104.88"/>
<polygon fill="#ffffff" stroke="#ffffff" points="926.99,-147.1 937.56,-147.67 929.65,-140.62 926.99,-147.1"/>
</g>
</g>
</svg>
