<?xml version="1.0" encoding="UTF-8" standalone="no"?>
<!DOCTYPE svg PUBLIC "-//W3C//DTD SVG 1.1//EN"
 "http://www.w3.org/Graphics/SVG/1.1/DTD/svg11.dtd">
<!-- Generated by graphviz version 2.44.0 (0)
 -->
<!-- Title: Principle of inclusion and exclusion Pages: 1 -->
<svg width="1961pt" height="188pt"
 viewBox="0.00 0.00 1961.36 188.00" xmlns="http://www.w3.org/2000/svg" xmlns:xlink="http://www.w3.org/1999/xlink">
<g id="page0,1_graph0" class="graph" transform="scale(1 1) rotate(0) translate(4 184)">
<title>Principle of inclusion and exclusion</title>
<polygon fill="#132020" stroke="transparent" points="-4,4 -4,-184 1957.36,-184 1957.36,4 -4,4"/>
<!-- Principle of inclusion and exclusion -->
<g id="node1" class="node">
<title>Principle of inclusion and exclusion</title>
<g id="a_node1"><a xlink:href="../Principle of inclusion and exclusion.html" xlink:title="Principle of inclusion and exclusion" target="_parent">
<path fill="#273434" stroke="#b75867" d="M1127.06,-180C1127.06,-180 936.06,-180 936.06,-180 930.06,-180 924.06,-174 924.06,-168 924.06,-168 924.06,-156 924.06,-156 924.06,-150 930.06,-144 936.06,-144 936.06,-144 1127.06,-144 1127.06,-144 1133.06,-144 1139.06,-150 1139.06,-156 1139.06,-156 1139.06,-168 1139.06,-168 1139.06,-174 1133.06,-180 1127.06,-180"/>
<text text-anchor="middle" x="1031.56" y="-158.9" font-family="sans" font-size="12.00" fill="#c4c7c7">Principle of inclusion and exclusion</text>
</a>
</g>
</g>
<!-- Set -->
<g id="node2" class="node">
<title>Set</title>
<g id="a_node2"><a xlink:href="../Set.html" xlink:title="Set" target="_parent">
<path fill="#273434" stroke="#b75867" d="M977.56,-108C977.56,-108 947.56,-108 947.56,-108 941.56,-108 935.56,-102 935.56,-96 935.56,-96 935.56,-84 935.56,-84 935.56,-78 941.56,-72 947.56,-72 947.56,-72 977.56,-72 977.56,-72 983.56,-72 989.56,-78 989.56,-84 989.56,-84 989.56,-96 989.56,-96 989.56,-102 983.56,-108 977.56,-108"/>
<text text-anchor="middle" x="962.56" y="-86.9" font-family="sans" font-size="12.00" fill="#c4c7c7">Set</text>
</a>
</g>
</g>
<!-- Principle of inclusion and exclusion&#45;&gt;Set -->
<g id="edge1" class="edge">
<title>Principle of inclusion and exclusion&#45;&gt;Set</title>
<path fill="none" stroke="#b75867" d="M1014.51,-143.7C1006.07,-135.14 995.74,-124.66 986.52,-115.3"/>
<polygon fill="#b75867" stroke="#b75867" points="988.93,-112.77 979.42,-108.1 983.95,-117.68 988.93,-112.77"/>
</g>
<!-- Combinatoric principles -->
<g id="node3" class="node">
<title>Combinatoric principles</title>
<g id="a_node3"><a xlink:href="../Combinatoric principles.html" xlink:title="Combinatoric principles" target="_parent">
<ellipse fill="#273434" stroke="#b75867" cx="1100.56" cy="-90" rx="92.91" ry="18"/>
<text text-anchor="middle" x="1100.56" y="-86.9" font-family="sans" font-size="12.00" fill="#c4c7c7">Combinatoric principles</text>
</a>
</g>
</g>
<!-- Principle of inclusion and exclusion&#45;&gt;Combinatoric principles -->
<g id="edge2" class="edge">
<title>Principle of inclusion and exclusion&#45;&gt;Combinatoric principles</title>
<path fill="none" stroke="#ffffff" d="M1055.73,-136.48C1064.97,-127.11 1075.29,-116.64 1083.7,-108.1"/>
<polygon fill="#ffffff" stroke="#ffffff" points="1053.14,-134.12 1048.62,-143.7 1058.13,-139.03 1053.14,-134.12"/>
</g>
<!-- Reflexive Closure -->
<g id="node4" class="node">
<title>Reflexive Closure</title>
<g id="a_node4"><a xlink:href="../Reflexive Closure.html" xlink:title="Reflexive Closure" target="_parent">
<ellipse fill="#273434" stroke="#b75867" cx="69.56" cy="-18" rx="69.62" ry="18"/>
<text text-anchor="middle" x="69.56" y="-14.9" font-family="sans" font-size="12.00" fill="#c4c7c7">Reflexive Closure</text>
</a>
</g>
</g>
<!-- Set&#45;&gt;Reflexive Closure -->
<g id="edge3" class="edge">
<title>Set&#45;&gt;Reflexive Closure</title>
<path fill="none" stroke="#ffffff" d="M925.2,-88.56C809.24,-86.75 445.41,-77.9 147.56,-36 138.09,-34.67 128.06,-32.82 118.46,-30.83"/>
<polygon fill="#ffffff" stroke="#ffffff" points="925.27,-92.06 935.33,-88.7 925.38,-85.06 925.27,-92.06"/>
</g>
<!-- Symmetric Closure -->
<g id="node5" class="node">
<title>Symmetric Closure</title>
<g id="a_node5"><a xlink:href="../Symmetric Closure.html" xlink:title="Symmetric Closure" target="_parent">
<ellipse fill="#273434" stroke="#b75867" cx="232.56" cy="-18" rx="75.94" ry="18"/>
<text text-anchor="middle" x="232.56" y="-14.9" font-family="sans" font-size="12.00" fill="#c4c7c7">Symmetric Closure</text>
</a>
</g>
</g>
<!-- Set&#45;&gt;Symmetric Closure -->
<g id="edge4" class="edge">
<title>Set&#45;&gt;Symmetric Closure</title>
<path fill="none" stroke="#ffffff" d="M925.22,-87.48C825.8,-83.09 546.61,-68.6 316.56,-36 306.69,-34.6 296.23,-32.77 286.17,-30.83"/>
<polygon fill="#ffffff" stroke="#ffffff" points="925.21,-90.98 935.36,-87.92 925.52,-83.99 925.21,-90.98"/>
</g>
<!-- Class of equivalence -->
<g id="node6" class="node">
<title>Class of equivalence</title>
<g id="a_node6"><a xlink:href="../Class of equivalence.html" xlink:title="Class of equivalence" target="_parent">
<ellipse fill="#273434" stroke="#b75867" cx="406.56" cy="-18" rx="80.78" ry="18"/>
<text text-anchor="middle" x="406.56" y="-14.9" font-family="sans" font-size="12.00" fill="#c4c7c7">Class of equivalence</text>
</a>
</g>
</g>
<!-- Set&#45;&gt;Class of equivalence -->
<g id="edge5" class="edge">
<title>Set&#45;&gt;Class of equivalence</title>
<path fill="none" stroke="#ffffff" d="M925.37,-85.74C846.11,-78.59 654.79,-60.21 495.56,-36 485.45,-34.46 474.74,-32.61 464.38,-30.7"/>
<polygon fill="#ffffff" stroke="#ffffff" points="925.08,-89.23 935.36,-86.64 925.71,-82.26 925.08,-89.23"/>
</g>
<!-- Relation of Equivalence -->
<g id="node7" class="node">
<title>Relation of Equivalence</title>
<g id="a_node7"><a xlink:href="../Relation of Equivalence.html" xlink:title="Relation of Equivalence" target="_parent">
<ellipse fill="#273434" stroke="#b75867" cx="596.56" cy="-18" rx="91.95" ry="18"/>
<text text-anchor="middle" x="596.56" y="-14.9" font-family="sans" font-size="12.00" fill="#c4c7c7">Relation of Equivalence</text>
</a>
</g>
</g>
<!-- Set&#45;&gt;Relation of Equivalence -->
<g id="edge6" class="edge">
<title>Set&#45;&gt;Relation of Equivalence</title>
<path fill="none" stroke="#ffffff" d="M925.17,-81.85C862.66,-69.89 736.31,-45.73 659.78,-31.09"/>
<polygon fill="#ffffff" stroke="#ffffff" points="924.87,-85.35 935.35,-83.8 926.19,-78.48 924.87,-85.35"/>
</g>
<!-- Recurrent Equations -->
<g id="node8" class="node">
<title>Recurrent Equations</title>
<g id="a_node8"><a xlink:href="../Recurrent Equations.html" xlink:title="Recurrent Equations" target="_parent">
<ellipse fill="#273434" stroke="#b75867" cx="786.56" cy="-18" rx="80.78" ry="18"/>
<text text-anchor="middle" x="786.56" y="-14.9" font-family="sans" font-size="12.00" fill="#c4c7c7">Recurrent Equations</text>
</a>
</g>
</g>
<!-- Set&#45;&gt;Recurrent Equations -->
<g id="edge7" class="edge">
<title>Set&#45;&gt;Recurrent Equations</title>
<path fill="none" stroke="#ffffff" d="M925.84,-74.39C896.04,-62.54 854.2,-45.9 824.17,-33.96"/>
<polygon fill="#ffffff" stroke="#ffffff" points="924.86,-77.77 935.45,-78.22 927.45,-71.27 924.86,-77.77"/>
</g>
<!-- Principle of division -->
<g id="node9" class="node">
<title>Principle of division</title>
<g id="a_node9"><a xlink:href="../Principle of division.html" xlink:title="Principle of division" target="_parent">
<ellipse fill="#273434" stroke="#b75867" cx="962.56" cy="-18" rx="77.63" ry="18"/>
<text text-anchor="middle" x="962.56" y="-14.9" font-family="sans" font-size="12.00" fill="#c4c7c7">Principle of division</text>
</a>
</g>
</g>
<!-- Set&#45;&gt;Principle of division -->
<g id="edge8" class="edge">
<title>Set&#45;&gt;Principle of division</title>
<path fill="none" stroke="#ffffff" d="M962.56,-61.67C962.56,-53.05 962.56,-43.79 962.56,-36.1"/>
<polygon fill="#ffffff" stroke="#ffffff" points="959.06,-61.7 962.56,-71.7 966.06,-61.7 959.06,-61.7"/>
</g>
<!-- Principle of products -->
<g id="node10" class="node">
<title>Principle of products</title>
<g id="a_node10"><a xlink:href="../Principle of products.html" xlink:title="Principle of products" target="_parent">
<ellipse fill="#273434" stroke="#b75867" cx="1140.56" cy="-18" rx="82.48" ry="18"/>
<text text-anchor="middle" x="1140.56" y="-14.9" font-family="sans" font-size="12.00" fill="#c4c7c7">Principle of products</text>
</a>
</g>
</g>
<!-- Set&#45;&gt;Principle of products -->
<g id="edge9" class="edge">
<title>Set&#45;&gt;Principle of products</title>
<path fill="none" stroke="#ffffff" d="M998.91,-72.01C1037.41,-55.9 1072.22,-43.04 1098.57,-33.63"/>
<polygon fill="#ffffff" stroke="#ffffff" points="997.43,-68.83 989.58,-75.94 1000.15,-75.28 997.43,-68.83"/>
</g>
<!-- Dirichlet principle -->
<g id="node11" class="node">
<title>Dirichlet principle</title>
<g id="a_node11"><a xlink:href="../Dirichlet principle.html" xlink:title="Dirichlet principle" target="_parent">
<ellipse fill="#273434" stroke="#b75867" cx="1312.56" cy="-18" rx="71.32" ry="18"/>
<text text-anchor="middle" x="1312.56" y="-14.9" font-family="sans" font-size="12.00" fill="#c4c7c7">Dirichlet principle</text>
</a>
</g>
</g>
<!-- Set&#45;&gt;Dirichlet principle -->
<g id="edge10" class="edge">
<title>Set&#45;&gt;Dirichlet principle</title>
<path fill="none" stroke="#ffffff" d="M999.44,-72.22C1100.62,-42.1 1131.59,-54.2 1231.56,-36 1240.89,-34.3 1250.79,-32.35 1260.36,-30.39"/>
<polygon fill="#ffffff" stroke="#ffffff" points="998.3,-68.91 989.75,-75.17 1000.34,-75.6 998.3,-68.91"/>
</g>
<!-- Differential Analysis -->
<g id="node12" class="node">
<title>Differential Analysis</title>
<g id="a_node12"><a xlink:href="../Differential Analysis.html" xlink:title="Differential Analysis" target="_parent">
<ellipse fill="#273434" stroke="#b75867" cx="1480.56" cy="-18" rx="78.36" ry="18"/>
<text text-anchor="middle" x="1480.56" y="-14.9" font-family="sans" font-size="12.00" fill="#c4c7c7">Differential Analysis</text>
</a>
</g>
</g>
<!-- Set&#45;&gt;Differential Analysis -->
<g id="edge11" class="edge">
<title>Set&#45;&gt;Differential Analysis</title>
<path fill="none" stroke="#ffffff" d="M999.51,-72.33C1170.12,-27.03 1221.7,-60.25 1392.56,-36 1403.04,-34.51 1414.16,-32.62 1424.84,-30.63"/>
<polygon fill="#ffffff" stroke="#ffffff" points="998.44,-68.99 989.7,-74.98 1000.27,-75.75 998.44,-68.99"/>
</g>
<!-- Principle of partitions -->
<g id="node13" class="node">
<title>Principle of partitions</title>
<g id="a_node13"><a xlink:href="../Principle of partitions.html" xlink:title="Principle of partitions" target="_parent">
<ellipse fill="#273434" stroke="#b75867" cx="1661.56" cy="-18" rx="84.17" ry="18"/>
<text text-anchor="middle" x="1661.56" y="-14.9" font-family="sans" font-size="12.00" fill="#c4c7c7">Principle of partitions</text>
</a>
</g>
</g>
<!-- Set&#45;&gt;Principle of partitions -->
<g id="edge12" class="edge">
<title>Set&#45;&gt;Principle of partitions</title>
<path fill="none" stroke="#ffffff" d="M999.64,-72.34C1245.87,-10.28 1319.34,-66.2 1567.56,-36 1578.76,-34.64 1590.64,-32.8 1602.05,-30.84"/>
<polygon fill="#ffffff" stroke="#ffffff" points="998.5,-69.02 989.68,-74.9 1000.23,-75.81 998.5,-69.02"/>
</g>
<!-- Principle of the bijection -->
<g id="node14" class="node">
<title>Principle of the bijection</title>
<g id="a_node14"><a xlink:href="../Principle of the bijection.html" xlink:title="Principle of the bijection" target="_parent">
<ellipse fill="#273434" stroke="#b75867" cx="1858.56" cy="-18" rx="94.6" ry="18"/>
<text text-anchor="middle" x="1858.56" y="-14.9" font-family="sans" font-size="12.00" fill="#c4c7c7">Principle of the bijection</text>
</a>
</g>
</g>
<!-- Set&#45;&gt;Principle of the bijection -->
<g id="edge13" class="edge">
<title>Set&#45;&gt;Principle of the bijection</title>
<path fill="none" stroke="#ffffff" d="M999.5,-72.49C1177.46,-32.12 1590.4,-53.27 1754.56,-36 1766.84,-34.71 1779.88,-32.92 1792.42,-30.98"/>
<polygon fill="#ffffff" stroke="#ffffff" points="998.58,-69.11 989.67,-74.85 1000.21,-75.92 998.58,-69.11"/>
</g>
</g>
</svg>
