<?xml version="1.0" encoding="UTF-8" standalone="no"?>
<!DOCTYPE svg PUBLIC "-//W3C//DTD SVG 1.1//EN"
 "http://www.w3.org/Graphics/SVG/1.1/DTD/svg11.dtd">
<!-- Generated by graphviz version 2.44.0 (0)
 -->
<!-- Title: Principle of products Pages: 1 -->
<svg width="2061pt" height="188pt"
 viewBox="0.00 0.00 2061.36 188.00" xmlns="http://www.w3.org/2000/svg" xmlns:xlink="http://www.w3.org/1999/xlink">
<g id="page0,1_graph0" class="graph" transform="scale(1 1) rotate(0) translate(4 184)">
<title>Principle of products</title>
<polygon fill="#132020" stroke="transparent" points="-4,4 -4,-184 2057.36,-184 2057.36,4 -4,4"/>
<!-- Principle of products -->
<g id="node1" class="node">
<title>Principle of products</title>
<g id="a_node1"><a xlink:title="Principle of products">
<path fill="#273434" stroke="#b75867" d="M1086.56,-180C1086.56,-180 976.56,-180 976.56,-180 970.56,-180 964.56,-174 964.56,-168 964.56,-168 964.56,-156 964.56,-156 964.56,-150 970.56,-144 976.56,-144 976.56,-144 1086.56,-144 1086.56,-144 1092.56,-144 1098.56,-150 1098.56,-156 1098.56,-156 1098.56,-168 1098.56,-168 1098.56,-174 1092.56,-180 1086.56,-180"/>
<text text-anchor="middle" x="1031.56" y="-158.9" font-family="sans" font-size="12.00" fill="#c4c7c7">Principle of products</text>
</a>
</g>
</g>
<!-- Set -->
<g id="node2" class="node">
<title>Set</title>
<g id="a_node2"><a xlink:title="Set">
<path fill="#273434" stroke="#b75867" d="M977.56,-108C977.56,-108 947.56,-108 947.56,-108 941.56,-108 935.56,-102 935.56,-96 935.56,-96 935.56,-84 935.56,-84 935.56,-78 941.56,-72 947.56,-72 947.56,-72 977.56,-72 977.56,-72 983.56,-72 989.56,-78 989.56,-84 989.56,-84 989.56,-96 989.56,-96 989.56,-102 983.56,-108 977.56,-108"/>
<text text-anchor="middle" x="962.56" y="-86.9" font-family="sans" font-size="12.00" fill="#c4c7c7">Set</text>
</a>
</g>
</g>
<!-- Principle of products&#45;&gt;Set -->
<g id="edge1" class="edge">
<title>Principle of products&#45;&gt;Set</title>
<path fill="none" stroke="#b75867" d="M1014.51,-143.7C1006.07,-135.14 995.74,-124.66 986.52,-115.3"/>
<polygon fill="#b75867" stroke="#b75867" points="988.93,-112.77 979.42,-108.1 983.95,-117.68 988.93,-112.77"/>
</g>
<!-- Combinatoric principles -->
<g id="node3" class="node">
<title>Combinatoric principles</title>
<g id="a_node3"><a xlink:title="Combinatoric principles">
<ellipse fill="#273434" stroke="#b75867" cx="1100.56" cy="-90" rx="92.91" ry="18"/>
<text text-anchor="middle" x="1100.56" y="-86.9" font-family="sans" font-size="12.00" fill="#c4c7c7">Combinatoric principles</text>
</a>
</g>
</g>
<!-- Principle of products&#45;&gt;Combinatoric principles -->
<g id="edge2" class="edge">
<title>Principle of products&#45;&gt;Combinatoric principles</title>
<path fill="none" stroke="#ffffff" d="M1055.73,-136.48C1064.97,-127.11 1075.29,-116.64 1083.7,-108.1"/>
<polygon fill="#ffffff" stroke="#ffffff" points="1053.14,-134.12 1048.62,-143.7 1058.13,-139.03 1053.14,-134.12"/>
</g>
<!-- Reflexive Closure -->
<g id="node4" class="node">
<title>Reflexive Closure</title>
<g id="a_node4"><a xlink:title="Reflexive Closure">
<ellipse fill="#273434" stroke="#b75867" cx="69.56" cy="-18" rx="69.62" ry="18"/>
<text text-anchor="middle" x="69.56" y="-14.9" font-family="sans" font-size="12.00" fill="#c4c7c7">Reflexive Closure</text>
</a>
</g>
</g>
<!-- Set&#45;&gt;Reflexive Closure -->
<g id="edge3" class="edge">
<title>Set&#45;&gt;Reflexive Closure</title>
<path fill="none" stroke="#ffffff" d="M925.2,-88.56C809.24,-86.75 445.41,-77.9 147.56,-36 138.09,-34.67 128.06,-32.82 118.46,-30.83"/>
<polygon fill="#ffffff" stroke="#ffffff" points="925.27,-92.06 935.33,-88.7 925.38,-85.06 925.27,-92.06"/>
</g>
<!-- Symmetric Closure -->
<g id="node5" class="node">
<title>Symmetric Closure</title>
<g id="a_node5"><a xlink:title="Symmetric Closure">
<ellipse fill="#273434" stroke="#b75867" cx="232.56" cy="-18" rx="75.94" ry="18"/>
<text text-anchor="middle" x="232.56" y="-14.9" font-family="sans" font-size="12.00" fill="#c4c7c7">Symmetric Closure</text>
</a>
</g>
</g>
<!-- Set&#45;&gt;Symmetric Closure -->
<g id="edge4" class="edge">
<title>Set&#45;&gt;Symmetric Closure</title>
<path fill="none" stroke="#ffffff" d="M925.22,-87.48C825.8,-83.09 546.61,-68.6 316.56,-36 306.69,-34.6 296.23,-32.77 286.17,-30.83"/>
<polygon fill="#ffffff" stroke="#ffffff" points="925.21,-90.98 935.36,-87.92 925.52,-83.99 925.21,-90.98"/>
</g>
<!-- Class of equivalence -->
<g id="node6" class="node">
<title>Class of equivalence</title>
<g id="a_node6"><a xlink:title="Class of equivalence">
<ellipse fill="#273434" stroke="#b75867" cx="406.56" cy="-18" rx="80.78" ry="18"/>
<text text-anchor="middle" x="406.56" y="-14.9" font-family="sans" font-size="12.00" fill="#c4c7c7">Class of equivalence</text>
</a>
</g>
</g>
<!-- Set&#45;&gt;Class of equivalence -->
<g id="edge5" class="edge">
<title>Set&#45;&gt;Class of equivalence</title>
<path fill="none" stroke="#ffffff" d="M925.37,-85.74C846.11,-78.59 654.79,-60.21 495.56,-36 485.45,-34.46 474.74,-32.61 464.38,-30.7"/>
<polygon fill="#ffffff" stroke="#ffffff" points="925.08,-89.23 935.36,-86.64 925.71,-82.26 925.08,-89.23"/>
</g>
<!-- Relation of Equivalence -->
<g id="node7" class="node">
<title>Relation of Equivalence</title>
<g id="a_node7"><a xlink:title="Relation of Equivalence">
<ellipse fill="#273434" stroke="#b75867" cx="596.56" cy="-18" rx="91.95" ry="18"/>
<text text-anchor="middle" x="596.56" y="-14.9" font-family="sans" font-size="12.00" fill="#c4c7c7">Relation of Equivalence</text>
</a>
</g>
</g>
<!-- Set&#45;&gt;Relation of Equivalence -->
<g id="edge6" class="edge">
<title>Set&#45;&gt;Relation of Equivalence</title>
<path fill="none" stroke="#ffffff" d="M925.17,-81.85C862.66,-69.89 736.31,-45.73 659.78,-31.09"/>
<polygon fill="#ffffff" stroke="#ffffff" points="924.87,-85.35 935.35,-83.8 926.19,-78.48 924.87,-85.35"/>
</g>
<!-- Recurrent Equations -->
<g id="node8" class="node">
<title>Recurrent Equations</title>
<g id="a_node8"><a xlink:title="Recurrent Equations">
<ellipse fill="#273434" stroke="#b75867" cx="786.56" cy="-18" rx="80.78" ry="18"/>
<text text-anchor="middle" x="786.56" y="-14.9" font-family="sans" font-size="12.00" fill="#c4c7c7">Recurrent Equations</text>
</a>
</g>
</g>
<!-- Set&#45;&gt;Recurrent Equations -->
<g id="edge7" class="edge">
<title>Set&#45;&gt;Recurrent Equations</title>
<path fill="none" stroke="#ffffff" d="M925.84,-74.39C896.04,-62.54 854.2,-45.9 824.17,-33.96"/>
<polygon fill="#ffffff" stroke="#ffffff" points="924.86,-77.77 935.45,-78.22 927.45,-71.27 924.86,-77.77"/>
</g>
<!-- Principle of division -->
<g id="node9" class="node">
<title>Principle of division</title>
<g id="a_node9"><a xlink:title="Principle of division">
<ellipse fill="#273434" stroke="#b75867" cx="962.56" cy="-18" rx="77.63" ry="18"/>
<text text-anchor="middle" x="962.56" y="-14.9" font-family="sans" font-size="12.00" fill="#c4c7c7">Principle of division</text>
</a>
</g>
</g>
<!-- Set&#45;&gt;Principle of division -->
<g id="edge8" class="edge">
<title>Set&#45;&gt;Principle of division</title>
<path fill="none" stroke="#ffffff" d="M962.56,-61.67C962.56,-53.05 962.56,-43.79 962.56,-36.1"/>
<polygon fill="#ffffff" stroke="#ffffff" points="959.06,-61.7 962.56,-71.7 966.06,-61.7 959.06,-61.7"/>
</g>
<!-- Dirichlet principle -->
<g id="node10" class="node">
<title>Dirichlet principle</title>
<g id="a_node10"><a xlink:title="Dirichlet principle">
<ellipse fill="#273434" stroke="#b75867" cx="1129.56" cy="-18" rx="71.32" ry="18"/>
<text text-anchor="middle" x="1129.56" y="-14.9" font-family="sans" font-size="12.00" fill="#c4c7c7">Dirichlet principle</text>
</a>
</g>
</g>
<!-- Set&#45;&gt;Dirichlet principle -->
<g id="edge9" class="edge">
<title>Set&#45;&gt;Dirichlet principle</title>
<path fill="none" stroke="#ffffff" d="M998.98,-71.92C1035.49,-56.03 1068.05,-42.96 1092.34,-33.41"/>
<polygon fill="#ffffff" stroke="#ffffff" points="997.37,-68.81 989.61,-76.02 1000.18,-75.22 997.37,-68.81"/>
</g>
<!-- Principle of inclusion and exclusion -->
<g id="node11" class="node">
<title>Principle of inclusion and exclusion</title>
<g id="a_node11"><a xlink:title="Principle of inclusion and exclusion">
<ellipse fill="#273434" stroke="#b75867" cx="1351.56" cy="-18" rx="132.2" ry="18"/>
<text text-anchor="middle" x="1351.56" y="-14.9" font-family="sans" font-size="12.00" fill="#c4c7c7">Principle of inclusion and exclusion</text>
</a>
</g>
</g>
<!-- Set&#45;&gt;Principle of inclusion and exclusion -->
<g id="edge10" class="edge">
<title>Set&#45;&gt;Principle of inclusion and exclusion</title>
<path fill="none" stroke="#ffffff" d="M999.42,-72.32C1058.37,-56.04 1172.12,-40.53 1254.9,-30.3"/>
<polygon fill="#ffffff" stroke="#ffffff" points="998.36,-68.98 989.75,-75.15 1000.33,-75.7 998.36,-68.98"/>
</g>
<!-- Differential Analysis -->
<g id="node12" class="node">
<title>Differential Analysis</title>
<g id="a_node12"><a xlink:title="Differential Analysis">
<ellipse fill="#273434" stroke="#b75867" cx="1580.56" cy="-18" rx="78.36" ry="18"/>
<text text-anchor="middle" x="1580.56" y="-14.9" font-family="sans" font-size="12.00" fill="#c4c7c7">Differential Analysis</text>
</a>
</g>
</g>
<!-- Set&#45;&gt;Differential Analysis -->
<g id="edge11" class="edge">
<title>Set&#45;&gt;Differential Analysis</title>
<path fill="none" stroke="#ffffff" d="M999.65,-72.32C1213.41,-17.52 1277.64,-64.49 1492.56,-36 1503.05,-34.61 1514.18,-32.76 1524.86,-30.79"/>
<polygon fill="#ffffff" stroke="#ffffff" points="998.48,-69.01 989.69,-74.92 1000.24,-75.79 998.48,-69.01"/>
</g>
<!-- Principle of partitions -->
<g id="node13" class="node">
<title>Principle of partitions</title>
<g id="a_node13"><a xlink:title="Principle of partitions">
<ellipse fill="#273434" stroke="#b75867" cx="1761.56" cy="-18" rx="84.17" ry="18"/>
<text text-anchor="middle" x="1761.56" y="-14.9" font-family="sans" font-size="12.00" fill="#c4c7c7">Principle of partitions</text>
</a>
</g>
</g>
<!-- Set&#45;&gt;Principle of partitions -->
<g id="edge12" class="edge">
<title>Set&#45;&gt;Principle of partitions</title>
<path fill="none" stroke="#ffffff" d="M999.62,-72.37C1289.18,-0.65 1375.13,-70.18 1667.56,-36 1678.84,-34.68 1690.82,-32.85 1702.31,-30.88"/>
<polygon fill="#ffffff" stroke="#ffffff" points="998.52,-69.04 989.67,-74.87 1000.22,-75.82 998.52,-69.04"/>
</g>
<!-- Principle of the bijection -->
<g id="node14" class="node">
<title>Principle of the bijection</title>
<g id="a_node14"><a xlink:title="Principle of the bijection">
<ellipse fill="#273434" stroke="#b75867" cx="1958.56" cy="-18" rx="94.6" ry="18"/>
<text text-anchor="middle" x="1958.56" y="-14.9" font-family="sans" font-size="12.00" fill="#c4c7c7">Principle of the bijection</text>
</a>
</g>
</g>
<!-- Set&#45;&gt;Principle of the bijection -->
<g id="edge13" class="edge">
<title>Set&#45;&gt;Principle of the bijection</title>
<path fill="none" stroke="#ffffff" d="M999.55,-72.48C1199.34,-27.39 1668.31,-55.07 1854.56,-36 1866.94,-34.73 1880.08,-32.94 1892.7,-30.99"/>
<polygon fill="#ffffff" stroke="#ffffff" points="998.58,-69.12 989.66,-74.83 1000.2,-75.93 998.58,-69.12"/>
</g>
</g>
</svg>
