<?xml version="1.0" encoding="UTF-8" standalone="no"?>
<!DOCTYPE svg PUBLIC "-//W3C//DTD SVG 1.1//EN"
 "http://www.w3.org/Graphics/SVG/1.1/DTD/svg11.dtd">
<!-- Generated by graphviz version 2.44.0 (0)
 -->
<!-- Title: Principle of products Pages: 1 -->
<svg width="524pt" height="451pt"
 viewBox="0.00 0.00 524.00 451.00" xmlns="http://www.w3.org/2000/svg" xmlns:xlink="http://www.w3.org/1999/xlink">
<g id="page0,1_graph0" class="graph" transform="scale(1 1) rotate(0) translate(4 447)">
<title>Principle of products</title>
<polygon fill="#132020" stroke="transparent" points="-4,4 -4,-447 520,-447 520,4 -4,4"/>
<!-- Principle of products -->
<g id="node1" class="node">
<title>Principle of products</title>
<g id="a_node1"><a xlink:href="../Principle of products.html" xlink:title="Principle of products" target="_parent">
<path fill="#273434" stroke="#b75867" d="M122,-184C122,-184 12,-184 12,-184 6,-184 0,-178 0,-172 0,-172 0,-160 0,-160 0,-154 6,-148 12,-148 12,-148 122,-148 122,-148 128,-148 134,-154 134,-160 134,-160 134,-172 134,-172 134,-178 128,-184 122,-184"/>
<text text-anchor="middle" x="67" y="-162.9" font-family="sans" font-size="12.00" fill="#c4c7c7">Principle of products</text>
</a>
</g>
</g>
<!-- Set -->
<g id="node2" class="node">
<title>Set</title>
<g id="a_node2"><a xlink:href="../Set.html" xlink:title="Set" target="_parent">
<path fill="#273434" stroke="#b75867" d="M232.5,-221C232.5,-221 202.5,-221 202.5,-221 196.5,-221 190.5,-215 190.5,-209 190.5,-209 190.5,-197 190.5,-197 190.5,-191 196.5,-185 202.5,-185 202.5,-185 232.5,-185 232.5,-185 238.5,-185 244.5,-191 244.5,-197 244.5,-197 244.5,-209 244.5,-209 244.5,-215 238.5,-221 232.5,-221"/>
<text text-anchor="middle" x="217.5" y="-199.9" font-family="sans" font-size="12.00" fill="#c4c7c7">Set</text>
</a>
</g>
</g>
<!-- Principle of products&#45;&gt;Set -->
<g id="edge1" class="edge">
<title>Principle of products&#45;&gt;Set</title>
<path fill="none" stroke="#b75867" d="M134.43,-182.55C150.19,-186.48 166.41,-190.52 180.24,-193.97"/>
<polygon fill="#b75867" stroke="#b75867" points="179.74,-197.45 190.29,-196.47 181.44,-190.66 179.74,-197.45"/>
</g>
<!-- Combinatoric principles -->
<g id="node3" class="node">
<title>Combinatoric principles</title>
<g id="a_node3"><a xlink:href="../Combinatoric principles.html" xlink:title="Combinatoric principles" target="_parent">
<path fill="none" stroke="#b75867" d="M281,-166C281,-166 154,-166 154,-166 148,-166 142,-160 142,-154 142,-154 142,-142 142,-142 142,-136 148,-130 154,-130 154,-130 281,-130 281,-130 287,-130 293,-136 293,-142 293,-142 293,-154 293,-154 293,-160 287,-166 281,-166"/>
<text text-anchor="middle" x="217.5" y="-144.9" font-family="sans" font-size="12.00" fill="#c4c7c7">Combinatoric principles</text>
</a>
</g>
</g>
<!-- Principle of products&#45;&gt;Combinatoric principles -->
<g id="edge2" class="edge">
<title>Principle of products&#45;&gt;Combinatoric principles</title>
<path fill="none" stroke="#ffffff" d="M141.4,-157.1C141.56,-157.08 141.71,-157.06 141.87,-157.05"/>
<polygon fill="#ffffff" stroke="#ffffff" points="143.94,-153.27 134.43,-157.95 144.78,-160.22 143.94,-153.27"/>
</g>
<!-- Set&#45;&gt;Principle of products -->
<g id="edge9" class="edge">
<title>Set&#45;&gt;Principle of products</title>
<path fill="none" stroke="#ffffff" d="M180.24,-194.62C166.41,-191.25 150.19,-187.24 134.43,-183.3"/>
<polygon fill="#ffffff" stroke="#ffffff" points="179.75,-198.1 190.29,-197.06 181.4,-191.3 179.75,-198.1"/>
</g>
<!-- Reflexive Closure -->
<g id="node4" class="node">
<title>Reflexive Closure</title>
<g id="a_node4"><a xlink:href="../Reflexive Closure.html" xlink:title="Reflexive Closure" target="_parent">
<path fill="none" stroke="#b75867" d="M453,-443C453,-443 364,-443 364,-443 358,-443 352,-437 352,-431 352,-431 352,-419 352,-419 352,-413 358,-407 364,-407 364,-407 453,-407 453,-407 459,-407 465,-413 465,-419 465,-419 465,-431 465,-431 465,-437 459,-443 453,-443"/>
<text text-anchor="middle" x="408.5" y="-421.9" font-family="sans" font-size="12.00" fill="#c4c7c7">Reflexive Closure</text>
</a>
</g>
</g>
<!-- Set&#45;&gt;Reflexive Closure -->
<g id="edge3" class="edge">
<title>Set&#45;&gt;Reflexive Closure</title>
<path fill="none" stroke="#ffffff" d="M221.79,-231.21C228.47,-275.03 247.82,-358.96 301,-403 315.18,-414.74 334,-420.73 351.88,-423.64"/>
<polygon fill="#ffffff" stroke="#ffffff" points="225.25,-230.65 220.39,-221.24 218.32,-231.63 225.25,-230.65"/>
</g>
<!-- Symmetric Closure -->
<g id="node5" class="node">
<title>Symmetric Closure</title>
<g id="a_node5"><a xlink:href="../Symmetric Closure.html" xlink:title="Symmetric Closure" target="_parent">
<path fill="none" stroke="#b75867" d="M458,-406C458,-406 359,-406 359,-406 353,-406 347,-400 347,-394 347,-394 347,-382 347,-382 347,-376 353,-370 359,-370 359,-370 458,-370 458,-370 464,-370 470,-376 470,-382 470,-382 470,-394 470,-394 470,-400 464,-406 458,-406"/>
<text text-anchor="middle" x="408.5" y="-384.9" font-family="sans" font-size="12.00" fill="#c4c7c7">Symmetric Closure</text>
</a>
</g>
</g>
<!-- Set&#45;&gt;Symmetric Closure -->
<g id="edge4" class="edge">
<title>Set&#45;&gt;Symmetric Closure</title>
<path fill="none" stroke="#ffffff" d="M224.78,-231.37C234.5,-268.34 256.86,-332.24 301,-366 314.12,-376.04 330.71,-381.78 346.87,-385"/>
<polygon fill="#ffffff" stroke="#ffffff" points="228.07,-230.12 222.26,-221.26 221.28,-231.81 228.07,-230.12"/>
</g>
<!-- Class of equivalence -->
<g id="node6" class="node">
<title>Class of equivalence</title>
<g id="a_node6"><a xlink:href="../Class of equivalence.html" xlink:title="Class of equivalence" target="_parent">
<path fill="none" stroke="#b75867" d="M462,-369C462,-369 355,-369 355,-369 349,-369 343,-363 343,-357 343,-357 343,-345 343,-345 343,-339 349,-333 355,-333 355,-333 462,-333 462,-333 468,-333 474,-339 474,-345 474,-345 474,-357 474,-357 474,-363 468,-369 462,-369"/>
<text text-anchor="middle" x="408.5" y="-347.9" font-family="sans" font-size="12.00" fill="#c4c7c7">Class of equivalence</text>
</a>
</g>
</g>
<!-- Set&#45;&gt;Class of equivalence -->
<g id="edge5" class="edge">
<title>Set&#45;&gt;Class of equivalence</title>
<path fill="none" stroke="#ffffff" d="M229.14,-230.94C241.75,-260.12 265.61,-304.92 301,-329 313.33,-337.39 328.19,-342.7 342.85,-346.02"/>
<polygon fill="#ffffff" stroke="#ffffff" points="232.22,-229.22 225.15,-221.33 225.75,-231.91 232.22,-229.22"/>
</g>
<!-- Relation of Equivalence -->
<g id="node7" class="node">
<title>Relation of Equivalence</title>
<g id="a_node7"><a xlink:href="../Relation of Equivalence.html" xlink:title="Relation of Equivalence" target="_parent">
<path fill="none" stroke="#b75867" d="M471,-332C471,-332 346,-332 346,-332 340,-332 334,-326 334,-320 334,-320 334,-308 334,-308 334,-302 340,-296 346,-296 346,-296 471,-296 471,-296 477,-296 483,-302 483,-308 483,-308 483,-320 483,-320 483,-326 477,-332 471,-332"/>
<text text-anchor="middle" x="408.5" y="-310.9" font-family="sans" font-size="12.00" fill="#c4c7c7">Relation of Equivalence</text>
</a>
</g>
</g>
<!-- Set&#45;&gt;Relation of Equivalence -->
<g id="edge6" class="edge">
<title>Set&#45;&gt;Relation of Equivalence</title>
<path fill="none" stroke="#ffffff" d="M235.96,-229.39C250.83,-249.7 274.02,-276.79 301,-292 311.03,-297.66 322.33,-301.87 333.72,-305"/>
<polygon fill="#ffffff" stroke="#ffffff" points="238.76,-227.28 230.11,-221.16 233.05,-231.34 238.76,-227.28"/>
</g>
<!-- Recurrent Equations -->
<g id="node8" class="node">
<title>Recurrent Equations</title>
<g id="a_node8"><a xlink:href="../Recurrent Equations.html" xlink:title="Recurrent Equations" target="_parent">
<path fill="none" stroke="#b75867" d="M462,-295C462,-295 355,-295 355,-295 349,-295 343,-289 343,-283 343,-283 343,-271 343,-271 343,-265 349,-259 355,-259 355,-259 462,-259 462,-259 468,-259 474,-265 474,-271 474,-271 474,-283 474,-283 474,-289 468,-295 462,-295"/>
<text text-anchor="middle" x="408.5" y="-273.9" font-family="sans" font-size="12.00" fill="#c4c7c7">Recurrent Equations</text>
</a>
</g>
</g>
<!-- Set&#45;&gt;Recurrent Equations -->
<g id="edge7" class="edge">
<title>Set&#45;&gt;Recurrent Equations</title>
<path fill="none" stroke="#ffffff" d="M250.42,-226.9C265.15,-236.91 283.28,-247.86 301,-255 314.13,-260.29 328.71,-264.37 342.76,-267.5"/>
<polygon fill="#ffffff" stroke="#ffffff" points="252.37,-223.99 242.16,-221.14 248.36,-229.73 252.37,-223.99"/>
</g>
<!-- Principle of division -->
<g id="node9" class="node">
<title>Principle of division</title>
<g id="a_node9"><a xlink:href="../Principle of division.html" xlink:title="Principle of division" target="_parent">
<path fill="none" stroke="#b75867" d="M459.5,-147C459.5,-147 357.5,-147 357.5,-147 351.5,-147 345.5,-141 345.5,-135 345.5,-135 345.5,-123 345.5,-123 345.5,-117 351.5,-111 357.5,-111 357.5,-111 459.5,-111 459.5,-111 465.5,-111 471.5,-117 471.5,-123 471.5,-123 471.5,-135 471.5,-135 471.5,-141 465.5,-147 459.5,-147"/>
<text text-anchor="middle" x="408.5" y="-125.9" font-family="sans" font-size="12.00" fill="#c4c7c7">Principle of division</text>
</a>
</g>
</g>
<!-- Set&#45;&gt;Principle of division -->
<g id="edge8" class="edge">
<title>Set&#45;&gt;Principle of division</title>
<path fill="none" stroke="#ffffff" d="M254.01,-191.45C267.46,-185.74 282.14,-177.72 293,-167 298.66,-161.42 294.7,-155.85 301,-151 313.72,-141.22 329.74,-135.51 345.46,-132.24"/>
<polygon fill="#ffffff" stroke="#ffffff" points="252.51,-188.28 244.5,-195.22 255.09,-194.79 252.51,-188.28"/>
</g>
<!-- Dirichlet principle -->
<g id="node10" class="node">
<title>Dirichlet principle</title>
<g id="a_node10"><a xlink:href="../Dirichlet principle.html" xlink:title="Dirichlet principle" target="_parent">
<path fill="none" stroke="#b75867" d="M454.5,-110C454.5,-110 362.5,-110 362.5,-110 356.5,-110 350.5,-104 350.5,-98 350.5,-98 350.5,-86 350.5,-86 350.5,-80 356.5,-74 362.5,-74 362.5,-74 454.5,-74 454.5,-74 460.5,-74 466.5,-80 466.5,-86 466.5,-86 466.5,-98 466.5,-98 466.5,-104 460.5,-110 454.5,-110"/>
<text text-anchor="middle" x="408.5" y="-88.9" font-family="sans" font-size="12.00" fill="#c4c7c7">Dirichlet principle</text>
</a>
</g>
</g>
<!-- Set&#45;&gt;Dirichlet principle -->
<g id="edge10" class="edge">
<title>Set&#45;&gt;Dirichlet principle</title>
<path fill="none" stroke="#ffffff" d="M254.21,-193.71C268.41,-188.23 283.58,-179.78 293,-167 307.14,-147.82 284.62,-131.29 301,-114 313.73,-100.57 332.32,-94.2 350.41,-91.45"/>
<polygon fill="#ffffff" stroke="#ffffff" points="252.92,-190.46 244.62,-197.05 255.22,-197.07 252.92,-190.46"/>
</g>
<!-- Principle of inclusion and exclusion -->
<g id="node11" class="node">
<title>Principle of inclusion and exclusion</title>
<g id="a_node11"><a xlink:href="../Principle of inclusion and exclusion.html" xlink:title="Principle of inclusion and exclusion" target="_parent">
<path fill="none" stroke="#b75867" d="M504,-73C504,-73 313,-73 313,-73 307,-73 301,-67 301,-61 301,-61 301,-49 301,-49 301,-43 307,-37 313,-37 313,-37 504,-37 504,-37 510,-37 516,-43 516,-49 516,-49 516,-61 516,-61 516,-67 510,-73 504,-73"/>
<text text-anchor="middle" x="408.5" y="-51.9" font-family="sans" font-size="12.00" fill="#c4c7c7">Principle of inclusion and exclusion</text>
</a>
</g>
</g>
<!-- Set&#45;&gt;Principle of inclusion and exclusion -->
<g id="edge11" class="edge">
<title>Set&#45;&gt;Principle of inclusion and exclusion</title>
<path fill="none" stroke="#ffffff" d="M254.28,-194.11C268.64,-188.68 283.91,-180.15 293,-167 304.41,-150.48 287.64,-91.99 301,-77 302.13,-75.73 303.31,-74.52 304.54,-73.38"/>
<polygon fill="#ffffff" stroke="#ffffff" points="252.93,-190.87 244.58,-197.39 255.17,-197.5 252.93,-190.87"/>
</g>
<!-- Differential Analysis -->
<g id="node12" class="node">
<title>Differential Analysis</title>
<g id="a_node12"><a xlink:href="../Differential Analysis.html" xlink:title="Differential Analysis" target="_parent">
<path fill="none" stroke="#b75867" d="M460,-258C460,-258 357,-258 357,-258 351,-258 345,-252 345,-246 345,-246 345,-234 345,-234 345,-228 351,-222 357,-222 357,-222 460,-222 460,-222 466,-222 472,-228 472,-234 472,-234 472,-246 472,-246 472,-252 466,-258 460,-258"/>
<text text-anchor="middle" x="408.5" y="-236.9" font-family="sans" font-size="12.00" fill="#c4c7c7">Differential Analysis</text>
</a>
</g>
</g>
<!-- Set&#45;&gt;Differential Analysis -->
<g id="edge12" class="edge">
<title>Set&#45;&gt;Differential Analysis</title>
<path fill="none" stroke="#ffffff" d="M254.74,-210.09C280.2,-215.08 314.91,-221.87 344.81,-227.73"/>
<polygon fill="#ffffff" stroke="#ffffff" points="255.27,-206.63 244.78,-208.14 253.92,-213.5 255.27,-206.63"/>
</g>
<!-- Principle of partitions -->
<g id="node13" class="node">
<title>Principle of partitions</title>
<g id="a_node13"><a xlink:href="../Principle of partitions.html" xlink:title="Principle of partitions" target="_parent">
<path fill="none" stroke="#b75867" d="M465,-221C465,-221 352,-221 352,-221 346,-221 340,-215 340,-209 340,-209 340,-197 340,-197 340,-191 346,-185 352,-185 352,-185 465,-185 465,-185 471,-185 477,-191 477,-197 477,-197 477,-209 477,-209 477,-215 471,-221 465,-221"/>
<text text-anchor="middle" x="408.5" y="-199.9" font-family="sans" font-size="12.00" fill="#c4c7c7">Principle of partitions</text>
</a>
</g>
</g>
<!-- Set&#45;&gt;Principle of partitions -->
<g id="edge13" class="edge">
<title>Set&#45;&gt;Principle of partitions</title>
<path fill="none" stroke="#ffffff" d="M254.89,-203C278.96,-203 311.27,-203 339.95,-203"/>
<polygon fill="#ffffff" stroke="#ffffff" points="254.78,-199.5 244.78,-203 254.78,-206.5 254.78,-199.5"/>
</g>
<!-- Principle of the bijection -->
<g id="node14" class="node">
<title>Principle of the bijection</title>
<g id="a_node14"><a xlink:href="../Principle of the bijection.html" xlink:title="Principle of the bijection" target="_parent">
<path fill="none" stroke="#b75867" d="M473.5,-184C473.5,-184 343.5,-184 343.5,-184 337.5,-184 331.5,-178 331.5,-172 331.5,-172 331.5,-160 331.5,-160 331.5,-154 337.5,-148 343.5,-148 343.5,-148 473.5,-148 473.5,-148 479.5,-148 485.5,-154 485.5,-160 485.5,-160 485.5,-172 485.5,-172 485.5,-178 479.5,-184 473.5,-184"/>
<text text-anchor="middle" x="408.5" y="-162.9" font-family="sans" font-size="12.00" fill="#c4c7c7">Principle of the bijection</text>
</a>
</g>
</g>
<!-- Set&#45;&gt;Principle of the bijection -->
<g id="edge14" class="edge">
<title>Set&#45;&gt;Principle of the bijection</title>
<path fill="none" stroke="#ffffff" d="M254.85,-195.88C276.53,-191.64 304.9,-186.09 331.28,-180.92"/>
<polygon fill="#ffffff" stroke="#ffffff" points="253.92,-192.5 244.78,-197.86 255.27,-199.37 253.92,-192.5"/>
</g>
<!-- Combinatoric principles&#45;&gt;Principle of products -->
<g id="edge18" class="edge">
<title>Combinatoric principles&#45;&gt;Principle of products</title>
<path fill="none" stroke="#b75867" d="M141.87,-157.8C141.71,-157.81 141.56,-157.83 141.4,-157.85"/>
<polygon fill="#b75867" stroke="#b75867" points="143.94,-154.02 134.43,-158.69 144.78,-160.97 143.94,-154.02"/>
</g>
<!-- Combinatoric principles&#45;&gt;Principle of division -->
<g id="edge16" class="edge">
<title>Combinatoric principles&#45;&gt;Principle of division</title>
<path fill="none" stroke="#b75867" d="M293.2,-140.49C306.93,-139.11 321.24,-137.67 334.91,-136.3"/>
<polygon fill="#b75867" stroke="#b75867" points="335.62,-139.74 345.22,-135.26 334.92,-132.78 335.62,-139.74"/>
</g>
<!-- Combinatoric principles&#45;&gt;Dirichlet principle -->
<g id="edge20" class="edge">
<title>Combinatoric principles&#45;&gt;Dirichlet principle</title>
<path fill="none" stroke="#b75867" d="M258.23,-129.86C271.62,-124.23 286.78,-118.36 301,-114 313.59,-110.14 327.22,-106.76 340.39,-103.87"/>
<polygon fill="#b75867" stroke="#b75867" points="341.29,-107.25 350.35,-101.76 339.84,-100.41 341.29,-107.25"/>
</g>
<!-- Combinatoric principles&#45;&gt;Principle of inclusion and exclusion -->
<g id="edge15" class="edge">
<title>Combinatoric principles&#45;&gt;Principle of inclusion and exclusion</title>
<path fill="none" stroke="#b75867" d="M234.32,-129.92C248.32,-115 270.16,-94.18 300.61,-77.75"/>
<polygon fill="#b75867" stroke="#b75867" points="302.56,-80.68 309.88,-73.02 299.38,-74.44 302.56,-80.68"/>
</g>
<!-- Combinatoric principles&#45;&gt;Principle of partitions -->
<g id="edge19" class="edge">
<title>Combinatoric principles&#45;&gt;Principle of partitions</title>
<path fill="none" stroke="#b75867" d="M259.54,-166.07C272.62,-171.38 287.26,-176.87 301,-181 310.29,-183.79 320.14,-186.35 329.95,-188.66"/>
<polygon fill="#b75867" stroke="#b75867" points="329.2,-192.07 339.73,-190.88 330.75,-185.25 329.2,-192.07"/>
</g>
<!-- Combinatoric principles&#45;&gt;Principle of the bijection -->
<g id="edge17" class="edge">
<title>Combinatoric principles&#45;&gt;Principle of the bijection</title>
<path fill="none" stroke="#b75867" d="M293.2,-155.11C302.44,-155.99 311.95,-156.9 321.35,-157.8"/>
<polygon fill="#b75867" stroke="#b75867" points="321.2,-161.3 331.49,-158.76 321.86,-154.33 321.2,-161.3"/>
</g>
<!-- Combinatorics -->
<g id="node15" class="node">
<title>Combinatorics</title>
<g id="a_node15"><a xlink:href="../Combinatorics.html" xlink:title="Combinatorics" target="_parent">
<path fill="none" stroke="#b75867" d="M445.5,-36C445.5,-36 371.5,-36 371.5,-36 365.5,-36 359.5,-30 359.5,-24 359.5,-24 359.5,-12 359.5,-12 359.5,-6 365.5,0 371.5,0 371.5,0 445.5,0 445.5,0 451.5,0 457.5,-6 457.5,-12 457.5,-12 457.5,-24 457.5,-24 457.5,-30 451.5,-36 445.5,-36"/>
<text text-anchor="middle" x="408.5" y="-14.9" font-family="sans" font-size="12.00" fill="#c4c7c7">Combinatorics</text>
</a>
</g>
</g>
<!-- Combinatoric principles&#45;&gt;Combinatorics -->
<g id="edge21" class="edge">
<title>Combinatoric principles&#45;&gt;Combinatorics</title>
<path fill="none" stroke="#ffffff" d="M231.91,-120.86C245.73,-95.84 269.65,-59.7 301,-40 318.34,-29.1 340.12,-23.49 359.45,-20.64"/>
<polygon fill="#ffffff" stroke="#ffffff" points="228.74,-119.37 227.12,-129.84 234.91,-122.67 228.74,-119.37"/>
</g>
</g>
</svg>
