<?xml version="1.0" encoding="UTF-8" standalone="no"?>
<!DOCTYPE svg PUBLIC "-//W3C//DTD SVG 1.1//EN"
 "http://www.w3.org/Graphics/SVG/1.1/DTD/svg11.dtd">
<!-- Generated by graphviz version 2.44.0 (0)
 -->
<!-- Title: Principle of the bijection Pages: 1 -->
<svg width="2224pt" height="260pt"
 viewBox="0.00 0.00 2224.34 260.00" xmlns="http://www.w3.org/2000/svg" xmlns:xlink="http://www.w3.org/1999/xlink">
<g id="page0,1_graph0" class="graph" transform="scale(1 1) rotate(0) translate(4 256)">
<title>Principle of the bijection</title>
<polygon fill="#132020" stroke="transparent" points="-4,4 -4,-256 2220.34,-256 2220.34,4 -4,4"/>
<!-- Principle of the bijection -->
<g id="node1" class="node">
<title>Principle of the bijection</title>
<g id="a_node1"><a xlink:title="Principle of the bijection">
<path fill="#273434" stroke="#b75867" d="M1105,-252C1105,-252 975,-252 975,-252 969,-252 963,-246 963,-240 963,-240 963,-228 963,-228 963,-222 969,-216 975,-216 975,-216 1105,-216 1105,-216 1111,-216 1117,-222 1117,-228 1117,-228 1117,-240 1117,-240 1117,-246 1111,-252 1105,-252"/>
<text text-anchor="middle" x="1040" y="-230.9" font-family="sans" font-size="12.00" fill="#c4c7c7">Principle of the bijection</text>
</a>
</g>
</g>
<!-- Bijective function -->
<g id="node2" class="node">
<title>Bijective function</title>
<g id="a_node2"><a xlink:title="Bijective function">
<path fill="#273434" stroke="#b75867" d="M238,-180C238,-180 148,-180 148,-180 142,-180 136,-174 136,-168 136,-168 136,-156 136,-156 136,-150 142,-144 148,-144 148,-144 238,-144 238,-144 244,-144 250,-150 250,-156 250,-156 250,-168 250,-168 250,-174 244,-180 238,-180"/>
<text text-anchor="middle" x="193" y="-158.9" font-family="sans" font-size="12.00" fill="#c4c7c7">Bijective function</text>
</a>
</g>
</g>
<!-- Principle of the bijection&#45;&gt;Bijective function -->
<g id="edge1" class="edge">
<title>Principle of the bijection&#45;&gt;Bijective function</title>
<path fill="none" stroke="#b75867" d="M962.97,-226.63C798.62,-213.05 415.98,-181.43 260.5,-168.58"/>
<polygon fill="#b75867" stroke="#b75867" points="260.4,-165.06 250.14,-167.72 259.82,-172.03 260.4,-165.06"/>
</g>
<!-- Set -->
<g id="node5" class="node">
<title>Set</title>
<g id="a_node5"><a xlink:title="Set">
<path fill="#273434" stroke="#b75867" d="M1055,-180C1055,-180 1025,-180 1025,-180 1019,-180 1013,-174 1013,-168 1013,-168 1013,-156 1013,-156 1013,-150 1019,-144 1025,-144 1025,-144 1055,-144 1055,-144 1061,-144 1067,-150 1067,-156 1067,-156 1067,-168 1067,-168 1067,-174 1061,-180 1055,-180"/>
<text text-anchor="middle" x="1040" y="-158.9" font-family="sans" font-size="12.00" fill="#c4c7c7">Set</text>
</a>
</g>
</g>
<!-- Principle of the bijection&#45;&gt;Set -->
<g id="edge2" class="edge">
<title>Principle of the bijection&#45;&gt;Set</title>
<path fill="none" stroke="#b75867" d="M1040,-215.7C1040,-207.98 1040,-198.71 1040,-190.11"/>
<polygon fill="#b75867" stroke="#b75867" points="1043.5,-190.1 1040,-180.1 1036.5,-190.1 1043.5,-190.1"/>
</g>
<!-- Combinatoric principles -->
<g id="node6" class="node">
<title>Combinatoric principles</title>
<g id="a_node6"><a xlink:title="Combinatoric principles">
<ellipse fill="#273434" stroke="#b75867" cx="1178" cy="-162" rx="92.91" ry="18"/>
<text text-anchor="middle" x="1178" y="-158.9" font-family="sans" font-size="12.00" fill="#c4c7c7">Combinatoric principles</text>
</a>
</g>
</g>
<!-- Principle of the bijection&#45;&gt;Combinatoric principles -->
<g id="edge5" class="edge">
<title>Principle of the bijection&#45;&gt;Combinatoric principles</title>
<path fill="none" stroke="#ffffff" d="M1082.92,-211.23C1103.47,-200.8 1127.65,-188.54 1146.48,-178.99"/>
<polygon fill="#ffffff" stroke="#ffffff" points="1081.09,-208.23 1073.76,-215.88 1084.26,-214.47 1081.09,-208.23"/>
</g>
<!-- Surjective function -->
<g id="node3" class="node">
<title>Surjective function</title>
<g id="a_node3"><a xlink:title="Surjective function">
<path fill="#273434" stroke="#b75867" d="M110,-108C110,-108 12,-108 12,-108 6,-108 0,-102 0,-96 0,-96 0,-84 0,-84 0,-78 6,-72 12,-72 12,-72 110,-72 110,-72 116,-72 122,-78 122,-84 122,-84 122,-96 122,-96 122,-102 116,-108 110,-108"/>
<text text-anchor="middle" x="61" y="-86.9" font-family="sans" font-size="12.00" fill="#c4c7c7">Surjective function</text>
</a>
</g>
</g>
<!-- Bijective function&#45;&gt;Surjective function -->
<g id="edge3" class="edge">
<title>Bijective function&#45;&gt;Surjective function</title>
<path fill="none" stroke="#b75867" d="M160.71,-143.88C143.13,-134.55 121.19,-122.92 102.37,-112.94"/>
<polygon fill="#b75867" stroke="#b75867" points="103.89,-109.78 93.41,-108.19 100.61,-115.97 103.89,-109.78"/>
</g>
<!-- Injective function -->
<g id="node4" class="node">
<title>Injective function</title>
<g id="a_node4"><a xlink:title="Injective function">
<path fill="#273434" stroke="#b75867" d="M280,-108C280,-108 190,-108 190,-108 184,-108 178,-102 178,-96 178,-96 178,-84 178,-84 178,-78 184,-72 190,-72 190,-72 280,-72 280,-72 286,-72 292,-78 292,-84 292,-84 292,-96 292,-96 292,-102 286,-108 280,-108"/>
<text text-anchor="middle" x="235" y="-86.9" font-family="sans" font-size="12.00" fill="#c4c7c7">Injective function</text>
</a>
</g>
</g>
<!-- Bijective function&#45;&gt;Injective function -->
<g id="edge4" class="edge">
<title>Bijective function&#45;&gt;Injective function</title>
<path fill="none" stroke="#b75867" d="M203.38,-143.7C208.26,-135.56 214.19,-125.69 219.58,-116.7"/>
<polygon fill="#b75867" stroke="#b75867" points="222.59,-118.48 224.74,-108.1 216.59,-114.88 222.59,-118.48"/>
</g>
<!-- Linear Algebra -->
<g id="node7" class="node">
<title>Linear Algebra</title>
<g id="a_node7"><a xlink:title="Linear Algebra">
<ellipse fill="#273434" stroke="#b75867" cx="150" cy="-18" rx="60.16" ry="18"/>
<text text-anchor="middle" x="150" y="-14.9" font-family="sans" font-size="12.00" fill="#c4c7c7">Linear Algebra</text>
</a>
</g>
</g>
<!-- Bijective function&#45;&gt;Linear Algebra -->
<g id="edge6" class="edge">
<title>Bijective function&#45;&gt;Linear Algebra</title>
<path fill="none" stroke="#ffffff" d="M179.65,-134.48C175.82,-126.16 171.9,-116.83 169,-108 160.95,-83.54 155.45,-54.14 152.51,-36.02"/>
<polygon fill="#ffffff" stroke="#ffffff" points="176.58,-136.18 184.03,-143.71 182.9,-133.18 176.58,-136.18"/>
</g>
<!-- Surjective function&#45;&gt;Linear Algebra -->
<g id="edge7" class="edge">
<title>Surjective function&#45;&gt;Linear Algebra</title>
<path fill="none" stroke="#ffffff" d="M91.01,-65.4C103.66,-55.45 118.07,-44.12 129.47,-35.14"/>
<polygon fill="#ffffff" stroke="#ffffff" points="88.7,-62.76 83,-71.7 93.02,-68.27 88.7,-62.76"/>
</g>
<!-- Injective function&#45;&gt;Linear Algebra -->
<g id="edge9" class="edge">
<title>Injective function&#45;&gt;Linear Algebra</title>
<path fill="none" stroke="#ffffff" d="M205.99,-65.11C193.99,-55.23 180.4,-44.03 169.6,-35.14"/>
<polygon fill="#ffffff" stroke="#ffffff" points="204.04,-68.04 213.99,-71.7 208.49,-62.64 204.04,-68.04"/>
</g>
<!-- Dirichlet principle -->
<g id="node8" class="node">
<title>Dirichlet principle</title>
<g id="a_node8"><a xlink:title="Dirichlet principle">
<ellipse fill="#273434" stroke="#b75867" cx="310" cy="-18" rx="71.32" ry="18"/>
<text text-anchor="middle" x="310" y="-14.9" font-family="sans" font-size="12.00" fill="#c4c7c7">Dirichlet principle</text>
</a>
</g>
</g>
<!-- Injective function&#45;&gt;Dirichlet principle -->
<g id="edge8" class="edge">
<title>Injective function&#45;&gt;Dirichlet principle</title>
<path fill="none" stroke="#ffffff" d="M261.09,-64.65C271.37,-55.06 282.9,-44.29 292.19,-35.62"/>
<polygon fill="#ffffff" stroke="#ffffff" points="258.46,-62.31 253.54,-71.7 263.24,-67.43 258.46,-62.31"/>
</g>
<!-- Set&#45;&gt;Dirichlet principle -->
<g id="edge17" class="edge">
<title>Set&#45;&gt;Dirichlet principle</title>
<path fill="none" stroke="#ffffff" d="M1002.76,-160.57C865.28,-158.68 391.45,-149.18 339,-108 317.14,-90.84 311.55,-56.89 310.24,-36.24"/>
<polygon fill="#ffffff" stroke="#ffffff" points="1002.76,-164.07 1012.81,-160.71 1002.86,-157.07 1002.76,-164.07"/>
</g>
<!-- Reflexive Closure -->
<g id="node9" class="node">
<title>Reflexive Closure</title>
<g id="a_node9"><a xlink:title="Reflexive Closure">
<ellipse fill="#273434" stroke="#b75867" cx="418" cy="-90" rx="69.62" ry="18"/>
<text text-anchor="middle" x="418" y="-86.9" font-family="sans" font-size="12.00" fill="#c4c7c7">Reflexive Closure</text>
</a>
</g>
</g>
<!-- Set&#45;&gt;Reflexive Closure -->
<g id="edge10" class="edge">
<title>Set&#45;&gt;Reflexive Closure</title>
<path fill="none" stroke="#ffffff" d="M1002.92,-158.89C914.67,-153.56 685.39,-137.76 496,-108 486.83,-106.56 477.11,-104.71 467.77,-102.76"/>
<polygon fill="#ffffff" stroke="#ffffff" points="1002.78,-162.39 1012.97,-159.49 1003.2,-155.41 1002.78,-162.39"/>
</g>
<!-- Symmetric Closure -->
<g id="node10" class="node">
<title>Symmetric Closure</title>
<g id="a_node10"><a xlink:title="Symmetric Closure">
<ellipse fill="#273434" stroke="#b75867" cx="581" cy="-90" rx="75.94" ry="18"/>
<text text-anchor="middle" x="581" y="-86.9" font-family="sans" font-size="12.00" fill="#c4c7c7">Symmetric Closure</text>
</a>
</g>
</g>
<!-- Set&#45;&gt;Symmetric Closure -->
<g id="edge11" class="edge">
<title>Set&#45;&gt;Symmetric Closure</title>
<path fill="none" stroke="#ffffff" d="M1002.46,-156.44C934.81,-148.06 788.02,-129.12 665,-108 655.47,-106.36 645.36,-104.46 635.59,-102.54"/>
<polygon fill="#ffffff" stroke="#ffffff" points="1002.27,-159.95 1012.62,-157.7 1003.13,-153 1002.27,-159.95"/>
</g>
<!-- Class of equivalence -->
<g id="node11" class="node">
<title>Class of equivalence</title>
<g id="a_node11"><a xlink:title="Class of equivalence">
<ellipse fill="#273434" stroke="#b75867" cx="755" cy="-90" rx="80.78" ry="18"/>
<text text-anchor="middle" x="755" y="-86.9" font-family="sans" font-size="12.00" fill="#c4c7c7">Class of equivalence</text>
</a>
</g>
</g>
<!-- Set&#45;&gt;Class of equivalence -->
<g id="edge12" class="edge">
<title>Set&#45;&gt;Class of equivalence</title>
<path fill="none" stroke="#ffffff" d="M1003.2,-151.96C953.28,-139.7 863.82,-117.73 807.04,-103.78"/>
<polygon fill="#ffffff" stroke="#ffffff" points="1002.38,-155.37 1012.93,-154.35 1004.05,-148.57 1002.38,-155.37"/>
</g>
<!-- Relation of Equivalence -->
<g id="node12" class="node">
<title>Relation of Equivalence</title>
<g id="a_node12"><a xlink:title="Relation of Equivalence">
<ellipse fill="#273434" stroke="#b75867" cx="945" cy="-90" rx="91.95" ry="18"/>
<text text-anchor="middle" x="945" y="-86.9" font-family="sans" font-size="12.00" fill="#c4c7c7">Relation of Equivalence</text>
</a>
</g>
</g>
<!-- Set&#45;&gt;Relation of Equivalence -->
<g id="edge13" class="edge">
<title>Set&#45;&gt;Relation of Equivalence</title>
<path fill="none" stroke="#ffffff" d="M1008.09,-137.49C994.8,-127.69 979.67,-116.55 967.56,-107.62"/>
<polygon fill="#ffffff" stroke="#ffffff" points="1006.39,-140.58 1016.52,-143.7 1010.54,-134.95 1006.39,-140.58"/>
</g>
<!-- Recurrent Equations -->
<g id="node13" class="node">
<title>Recurrent Equations</title>
<g id="a_node13"><a xlink:title="Recurrent Equations">
<ellipse fill="#273434" stroke="#b75867" cx="1135" cy="-90" rx="80.78" ry="18"/>
<text text-anchor="middle" x="1135" y="-86.9" font-family="sans" font-size="12.00" fill="#c4c7c7">Recurrent Equations</text>
</a>
</g>
</g>
<!-- Set&#45;&gt;Recurrent Equations -->
<g id="edge14" class="edge">
<title>Set&#45;&gt;Recurrent Equations</title>
<path fill="none" stroke="#ffffff" d="M1071.59,-137.73C1085.08,-127.78 1100.51,-116.42 1112.77,-107.38"/>
<polygon fill="#ffffff" stroke="#ffffff" points="1069.46,-134.95 1063.48,-143.7 1073.61,-140.58 1069.46,-134.95"/>
</g>
<!-- Principle of division -->
<g id="node14" class="node">
<title>Principle of division</title>
<g id="a_node14"><a xlink:title="Principle of division">
<ellipse fill="#273434" stroke="#b75867" cx="1311" cy="-90" rx="77.63" ry="18"/>
<text text-anchor="middle" x="1311" y="-86.9" font-family="sans" font-size="12.00" fill="#c4c7c7">Principle of division</text>
</a>
</g>
</g>
<!-- Set&#45;&gt;Principle of division -->
<g id="edge15" class="edge">
<title>Set&#45;&gt;Principle of division</title>
<path fill="none" stroke="#ffffff" d="M1076.88,-144.16C1120.9,-130.18 1199.98,-113.36 1254.33,-102.29"/>
<polygon fill="#ffffff" stroke="#ffffff" points="1075.64,-140.88 1067.26,-147.37 1077.85,-147.52 1075.64,-140.88"/>
</g>
<!-- Principle of products -->
<g id="node15" class="node">
<title>Principle of products</title>
<g id="a_node15"><a xlink:title="Principle of products">
<ellipse fill="#273434" stroke="#b75867" cx="1489" cy="-90" rx="82.48" ry="18"/>
<text text-anchor="middle" x="1489" y="-86.9" font-family="sans" font-size="12.00" fill="#c4c7c7">Principle of products</text>
</a>
</g>
</g>
<!-- Set&#45;&gt;Principle of products -->
<g id="edge16" class="edge">
<title>Set&#45;&gt;Principle of products</title>
<path fill="none" stroke="#ffffff" d="M1076.93,-144.29C1216.44,-105.8 1258.77,-128.76 1398,-108 1408.33,-106.46 1419.28,-104.61 1429.88,-102.7"/>
<polygon fill="#ffffff" stroke="#ffffff" points="1075.83,-140.96 1067.16,-147.04 1077.73,-147.7 1075.83,-140.96"/>
</g>
<!-- Principle of inclusion and exclusion -->
<g id="node16" class="node">
<title>Principle of inclusion and exclusion</title>
<g id="a_node16"><a xlink:title="Principle of inclusion and exclusion">
<ellipse fill="#273434" stroke="#b75867" cx="1722" cy="-90" rx="132.2" ry="18"/>
<text text-anchor="middle" x="1722" y="-86.9" font-family="sans" font-size="12.00" fill="#c4c7c7">Principle of inclusion and exclusion</text>
</a>
</g>
</g>
<!-- Set&#45;&gt;Principle of inclusion and exclusion -->
<g id="edge18" class="edge">
<title>Set&#45;&gt;Principle of inclusion and exclusion</title>
<path fill="none" stroke="#ffffff" d="M1076.96,-144.36C1295.12,-88.31 1359.72,-129.04 1580,-108 1595.82,-106.49 1612.6,-104.67 1628.88,-102.79"/>
<polygon fill="#ffffff" stroke="#ffffff" points="1075.92,-141.01 1067.12,-146.92 1077.68,-147.78 1075.92,-141.01"/>
</g>
<!-- Differential Analysis -->
<g id="node17" class="node">
<title>Differential Analysis</title>
<g id="a_node17"><a xlink:title="Differential Analysis">
<ellipse fill="#273434" stroke="#b75867" cx="1951" cy="-90" rx="78.36" ry="18"/>
<text text-anchor="middle" x="1951" y="-86.9" font-family="sans" font-size="12.00" fill="#c4c7c7">Differential Analysis</text>
</a>
</g>
</g>
<!-- Set&#45;&gt;Differential Analysis -->
<g id="edge19" class="edge">
<title>Set&#45;&gt;Differential Analysis</title>
<path fill="none" stroke="#ffffff" d="M1077.05,-144.47C1261.84,-102.75 1692.29,-128.28 1863,-108 1873.66,-106.73 1884.97,-104.91 1895.8,-102.93"/>
<polygon fill="#ffffff" stroke="#ffffff" points="1076.02,-141.12 1067.1,-146.84 1077.64,-147.93 1076.02,-141.12"/>
</g>
<!-- Principle of partitions -->
<g id="node18" class="node">
<title>Principle of partitions</title>
<g id="a_node18"><a xlink:title="Principle of partitions">
<ellipse fill="#273434" stroke="#b75867" cx="2132" cy="-90" rx="84.17" ry="18"/>
<text text-anchor="middle" x="2132" y="-86.9" font-family="sans" font-size="12.00" fill="#c4c7c7">Principle of partitions</text>
</a>
</g>
</g>
<!-- Set&#45;&gt;Principle of partitions -->
<g id="edge20" class="edge">
<title>Set&#45;&gt;Principle of partitions</title>
<path fill="none" stroke="#ffffff" d="M1077.16,-144.45C1300.15,-94.43 1828.54,-130.74 2038,-108 2049.46,-106.76 2061.62,-104.93 2073.27,-102.94"/>
<polygon fill="#ffffff" stroke="#ffffff" points="1076.03,-141.12 1067.1,-146.82 1077.63,-147.93 1076.03,-141.12"/>
</g>
</g>
</svg>
