<?xml version="1.0" encoding="UTF-8" standalone="no"?>
<!DOCTYPE svg PUBLIC "-//W3C//DTD SVG 1.1//EN"
 "http://www.w3.org/Graphics/SVG/1.1/DTD/svg11.dtd">
<!-- Generated by graphviz version 2.44.0 (0)
 -->
<!-- Title: pulsebinder Pages: 1 -->
<svg width="92pt" height="116pt"
 viewBox="0.00 0.00 92.00 116.00" xmlns="http://www.w3.org/2000/svg" xmlns:xlink="http://www.w3.org/1999/xlink">
<g id="page0,1_graph0" class="graph" transform="scale(1 1) rotate(0) translate(4 112)">
<title>pulsebinder</title>
<polygon fill="#132020" stroke="transparent" points="-4,4 -4,-112 88,-112 88,4 -4,4"/>
<!-- pulsebinder -->
<g id="node1" class="node">
<title>pulsebinder</title>
<g id="a_node1"><a xlink:href="../pulsebinder.html" xlink:title="pulsebinder" target="_parent">
<path fill="#273434" stroke="#b75867" d="M72,-108C72,-108 12,-108 12,-108 6,-108 0,-102 0,-96 0,-96 0,-84 0,-84 0,-78 6,-72 12,-72 12,-72 72,-72 72,-72 78,-72 84,-78 84,-84 84,-84 84,-96 84,-96 84,-102 78,-108 72,-108"/>
<text text-anchor="middle" x="42" y="-86.9" font-family="sans" font-size="12.00" fill="#c4c7c7">pulsebinder</text>
</a>
</g>
</g>
<!-- Projects -->
<g id="node2" class="node">
<title>Projects</title>
<g id="a_node2"><a xlink:href="../Projects.html" xlink:title="Projects" target="_parent">
<ellipse fill="#273434" stroke="#b75867" cx="42" cy="-18" rx="38.33" ry="18"/>
<text text-anchor="middle" x="42" y="-14.9" font-family="sans" font-size="12.00" fill="#c4c7c7">Projects</text>
</a>
</g>
</g>
<!-- pulsebinder&#45;&gt;Projects -->
<g id="edge1" class="edge">
<title>pulsebinder&#45;&gt;Projects</title>
<path fill="none" stroke="#ffffff" d="M42,-61.67C42,-53.05 42,-43.79 42,-36.1"/>
<polygon fill="#ffffff" stroke="#ffffff" points="38.5,-61.7 42,-71.7 45.5,-61.7 38.5,-61.7"/>
</g>
</g>
</svg>
