<?xml version="1.0" encoding="UTF-8" standalone="no"?>
<!DOCTYPE svg PUBLIC "-//W3C//DTD SVG 1.1//EN"
 "http://www.w3.org/Graphics/SVG/1.1/DTD/svg11.dtd">
<!-- Generated by graphviz version 2.44.0 (0)
 -->
<!-- Title: README Pages: 1 -->
<svg width="286pt" height="266pt"
 viewBox="0.00 0.00 286.00 266.00" xmlns="http://www.w3.org/2000/svg" xmlns:xlink="http://www.w3.org/1999/xlink">
<g id="page0,1_graph0" class="graph" transform="scale(1 1) rotate(0) translate(4 262)">
<title>README</title>
<polygon fill="#132020" stroke="transparent" points="-4,4 -4,-262 282,-262 282,4 -4,4"/>
<!-- README -->
<g id="node1" class="node">
<title>README</title>
<g id="a_node1"><a xlink:href="../README.html" xlink:title="README" target="_parent">
<path fill="#273434" stroke="#b75867" d="M51,-119C51,-119 12,-119 12,-119 6,-119 0,-113 0,-107 0,-107 0,-95 0,-95 0,-89 6,-83 12,-83 12,-83 51,-83 51,-83 57,-83 63,-89 63,-95 63,-95 63,-107 63,-107 63,-113 57,-119 51,-119"/>
<text text-anchor="middle" x="31.5" y="-97.9" font-family="sans" font-size="12.00" fill="#c4c7c7">README</text>
</a>
</g>
</g>
<!-- Subjects -->
<g id="node2" class="node">
<title>Subjects</title>
<g id="a_node2"><a xlink:href="../Subjects.html" xlink:title="Subjects" target="_parent">
<path fill="#273434" stroke="#b75867" d="M127.5,-156C127.5,-156 86.5,-156 86.5,-156 80.5,-156 74.5,-150 74.5,-144 74.5,-144 74.5,-132 74.5,-132 74.5,-126 80.5,-120 86.5,-120 86.5,-120 127.5,-120 127.5,-120 133.5,-120 139.5,-126 139.5,-132 139.5,-132 139.5,-144 139.5,-144 139.5,-150 133.5,-156 127.5,-156"/>
<text text-anchor="middle" x="107" y="-134.9" font-family="sans" font-size="12.00" fill="#c4c7c7">Subjects</text>
</a>
</g>
</g>
<!-- README&#45;&gt;Subjects -->
<g id="edge1" class="edge">
<title>README&#45;&gt;Subjects</title>
<path fill="none" stroke="#b75867" d="M63.24,-116.48C63.81,-116.76 64.38,-117.05 64.95,-117.33"/>
<polygon fill="#b75867" stroke="#b75867" points="63.69,-120.62 74.2,-121.99 66.84,-114.37 63.69,-120.62"/>
</g>
<!-- Org Roam -->
<g id="node3" class="node">
<title>Org Roam</title>
<g id="a_node3"><a xlink:href="../Org Roam.html" xlink:title="Org Roam" target="_parent">
<path fill="#273434" stroke="#b75867" d="M131,-101C131,-101 83,-101 83,-101 77,-101 71,-95 71,-89 71,-89 71,-77 71,-77 71,-71 77,-65 83,-65 83,-65 131,-65 131,-65 137,-65 143,-71 143,-77 143,-77 143,-89 143,-89 143,-95 137,-101 131,-101"/>
<text text-anchor="middle" x="107" y="-79.9" font-family="sans" font-size="12.00" fill="#c4c7c7">Org Roam</text>
</a>
</g>
</g>
<!-- README&#45;&gt;Org Roam -->
<g id="edge2" class="edge">
<title>README&#45;&gt;Org Roam</title>
<path fill="none" stroke="#b75867" d="M63.24,-93.47C63.4,-93.43 63.56,-93.39 63.72,-93.35"/>
<polygon fill="#b75867" stroke="#b75867" points="61.98,-97.38 70.86,-91.6 60.32,-90.58 61.98,-97.38"/>
</g>
<!-- Numeric Methods -->
<g id="node4" class="node">
<title>Numeric Methods</title>
<g id="a_node4"><a xlink:href="../Numeric Methods.html" xlink:title="Numeric Methods" target="_parent">
<path fill="#273434" stroke="#b75867" d="M260.5,-258C260.5,-258 168.5,-258 168.5,-258 162.5,-258 156.5,-252 156.5,-246 156.5,-246 156.5,-234 156.5,-234 156.5,-228 162.5,-222 168.5,-222 168.5,-222 260.5,-222 260.5,-222 266.5,-222 272.5,-228 272.5,-234 272.5,-234 272.5,-246 272.5,-246 272.5,-252 266.5,-258 260.5,-258"/>
<text text-anchor="middle" x="214.5" y="-236.9" font-family="sans" font-size="12.00" fill="#c4c7c7">Numeric Methods</text>
</a>
</g>
</g>
<!-- Subjects&#45;&gt;Numeric Methods -->
<g id="edge3" class="edge">
<title>Subjects&#45;&gt;Numeric Methods</title>
<path fill="none" stroke="#b75867" d="M113.4,-156.05C118.99,-172.13 129.15,-195.61 148.64,-215.04"/>
<polygon fill="#b75867" stroke="#b75867" points="146.51,-217.84 156.25,-222 151.23,-212.67 146.51,-217.84"/>
</g>
<!-- Discrete Structures -->
<g id="node5" class="node">
<title>Discrete Structures</title>
<g id="a_node5"><a xlink:href="../Discrete Structures.html" xlink:title="Discrete Structures" target="_parent">
<path fill="#273434" stroke="#b75867" d="M263.5,-221C263.5,-221 165.5,-221 165.5,-221 159.5,-221 153.5,-215 153.5,-209 153.5,-209 153.5,-197 153.5,-197 153.5,-191 159.5,-185 165.5,-185 165.5,-185 263.5,-185 263.5,-185 269.5,-185 275.5,-191 275.5,-197 275.5,-197 275.5,-209 275.5,-209 275.5,-215 269.5,-221 263.5,-221"/>
<text text-anchor="middle" x="214.5" y="-199.9" font-family="sans" font-size="12.00" fill="#c4c7c7">Discrete Structures</text>
</a>
</g>
</g>
<!-- Subjects&#45;&gt;Discrete Structures -->
<g id="edge4" class="edge">
<title>Subjects&#45;&gt;Discrete Structures</title>
<path fill="none" stroke="#b75867" d="M122.82,-156.23C129.12,-163.18 136.95,-170.93 149.07,-179.27"/>
<polygon fill="#b75867" stroke="#b75867" points="147.38,-182.35 157.67,-184.84 151.18,-176.47 147.38,-182.35"/>
</g>
<!-- Differential Analysis -->
<g id="node6" class="node">
<title>Differential Analysis</title>
<g id="a_node6"><a xlink:href="../Differential Analysis.html" xlink:title="Differential Analysis" target="_parent">
<path fill="#273434" stroke="#b75867" d="M266,-184C266,-184 163,-184 163,-184 157,-184 151,-178 151,-172 151,-172 151,-160 151,-160 151,-154 157,-148 163,-148 163,-148 266,-148 266,-148 272,-148 278,-154 278,-160 278,-160 278,-172 278,-172 278,-178 272,-184 266,-184"/>
<text text-anchor="middle" x="214.5" y="-162.9" font-family="sans" font-size="12.00" fill="#c4c7c7">Differential Analysis</text>
</a>
</g>
</g>
<!-- Subjects&#45;&gt;Differential Analysis -->
<g id="edge5" class="edge">
<title>Subjects&#45;&gt;Differential Analysis</title>
<path fill="none" stroke="#b75867" d="M139.65,-146.4C140.11,-146.52 140.57,-146.64 141.03,-146.77"/>
<polygon fill="#b75867" stroke="#b75867" points="140.41,-150.22 150.97,-149.41 142.21,-143.46 140.41,-150.22"/>
</g>
<!-- Linear Algebra -->
<g id="node7" class="node">
<title>Linear Algebra</title>
<g id="a_node7"><a xlink:href="../Linear Algebra.html" xlink:title="Linear Algebra" target="_parent">
<path fill="#273434" stroke="#b75867" d="M251.5,-147C251.5,-147 177.5,-147 177.5,-147 171.5,-147 165.5,-141 165.5,-135 165.5,-135 165.5,-123 165.5,-123 165.5,-117 171.5,-111 177.5,-111 177.5,-111 251.5,-111 251.5,-111 257.5,-111 263.5,-117 263.5,-123 263.5,-123 263.5,-135 263.5,-135 263.5,-141 257.5,-147 251.5,-147"/>
<text text-anchor="middle" x="214.5" y="-125.9" font-family="sans" font-size="12.00" fill="#c4c7c7">Linear Algebra</text>
</a>
</g>
</g>
<!-- Subjects&#45;&gt;Linear Algebra -->
<g id="edge6" class="edge">
<title>Subjects&#45;&gt;Linear Algebra</title>
<path fill="none" stroke="#b75867" d="M139.65,-135.3C144.61,-134.88 149.86,-134.43 155.19,-133.97"/>
<polygon fill="#b75867" stroke="#b75867" points="155.81,-137.43 165.48,-133.1 155.22,-130.46 155.81,-137.43"/>
</g>
<!-- index -->
<g id="node8" class="node">
<title>index</title>
<g id="a_node8"><a xlink:href="../index.html" xlink:title="index" target="_parent">
<path fill="none" stroke="#b75867" d="M229.5,-110C229.5,-110 199.5,-110 199.5,-110 193.5,-110 187.5,-104 187.5,-98 187.5,-98 187.5,-86 187.5,-86 187.5,-80 193.5,-74 199.5,-74 199.5,-74 229.5,-74 229.5,-74 235.5,-74 241.5,-80 241.5,-86 241.5,-86 241.5,-98 241.5,-98 241.5,-104 235.5,-110 229.5,-110"/>
<text text-anchor="middle" x="214.5" y="-88.9" font-family="sans" font-size="12.00" fill="#c4c7c7">index</text>
</a>
</g>
</g>
<!-- Subjects&#45;&gt;index -->
<g id="edge7" class="edge">
<title>Subjects&#45;&gt;index</title>
<path fill="none" stroke="#ffffff" d="M148.43,-115.18C149.29,-114.78 150.15,-114.38 151,-114 162.64,-108.75 175.94,-103.92 187.26,-100.13"/>
<polygon fill="#ffffff" stroke="#ffffff" points="146.54,-112.21 139.15,-119.8 149.66,-118.48 146.54,-112.21"/>
</g>
<!-- Org Roam&#45;&gt;index -->
<g id="edge8" class="edge">
<title>Org Roam&#45;&gt;index</title>
<path fill="none" stroke="#ffffff" d="M153.15,-86.85C164.77,-87.84 176.9,-88.88 187.2,-89.76"/>
<polygon fill="#ffffff" stroke="#ffffff" points="153.39,-83.36 143.13,-86 152.8,-90.33 153.39,-83.36"/>
</g>
<!-- Bad Habit -->
<g id="node9" class="node">
<title>Bad Habit</title>
<g id="a_node9"><a xlink:href="../Bad Habit.html" xlink:title="Bad Habit" target="_parent">
<path fill="none" stroke="#b75867" d="M239,-73C239,-73 190,-73 190,-73 184,-73 178,-67 178,-61 178,-61 178,-49 178,-49 178,-43 184,-37 190,-37 190,-37 239,-37 239,-37 245,-37 251,-43 251,-49 251,-49 251,-61 251,-61 251,-67 245,-73 239,-73"/>
<text text-anchor="middle" x="214.5" y="-51.9" font-family="sans" font-size="12.00" fill="#c4c7c7">Bad Habit</text>
</a>
</g>
</g>
<!-- Org Roam&#45;&gt;Bad Habit -->
<g id="edge9" class="edge">
<title>Org Roam&#45;&gt;Bad Habit</title>
<path fill="none" stroke="#ffffff" d="M153.04,-71.05C161.31,-68.85 169.85,-66.59 177.8,-64.47"/>
<polygon fill="#ffffff" stroke="#ffffff" points="151.9,-67.73 143.13,-73.68 153.69,-74.49 151.9,-67.73"/>
</g>
<!-- Knowledege Base -->
<g id="node10" class="node">
<title>Knowledege Base</title>
<g id="a_node10"><a xlink:href="../Knowledege Base.html" xlink:title="Knowledege Base" target="_parent">
<path fill="none" stroke="#b75867" d="M261,-36C261,-36 168,-36 168,-36 162,-36 156,-30 156,-24 156,-24 156,-12 156,-12 156,-6 162,0 168,0 168,0 261,0 261,0 267,0 273,-6 273,-12 273,-12 273,-24 273,-24 273,-30 267,-36 261,-36"/>
<text text-anchor="middle" x="214.5" y="-14.9" font-family="sans" font-size="12.00" fill="#c4c7c7">Knowledege Base</text>
</a>
</g>
</g>
<!-- Org Roam&#45;&gt;Knowledege Base -->
<g id="edge10" class="edge">
<title>Org Roam&#45;&gt;Knowledege Base</title>
<path fill="none" stroke="#ffffff" d="M129.8,-57.43C136.15,-51.1 143.42,-44.77 151,-40 153.14,-38.65 155.38,-37.37 157.67,-36.16"/>
<polygon fill="#ffffff" stroke="#ffffff" points="127.18,-55.11 122.82,-64.77 132.25,-59.94 127.18,-55.11"/>
</g>
</g>
</svg>
