<?xml version="1.0" encoding="UTF-8" standalone="no"?>
<!DOCTYPE svg PUBLIC "-//W3C//DTD SVG 1.1//EN"
 "http://www.w3.org/Graphics/SVG/1.1/DTD/svg11.dtd">
<!-- Generated by graphviz version 2.44.0 (0)
 -->
<!-- Title: Recurrent Equations Pages: 1 -->
<svg width="616pt" height="784pt"
 viewBox="0.00 0.00 616.00 784.00" xmlns="http://www.w3.org/2000/svg" xmlns:xlink="http://www.w3.org/1999/xlink">
<g id="page0,1_graph0" class="graph" transform="scale(1 1) rotate(0) translate(4 780)">
<title>Recurrent Equations</title>
<polygon fill="#132020" stroke="transparent" points="-4,4 -4,-780 612,-780 612,4 -4,4"/>
<!-- Recurrent Equations -->
<g id="node1" class="node">
<title>Recurrent Equations</title>
<g id="a_node1"><a xlink:href="../Recurrent Equations.html" xlink:title="Recurrent Equations" target="_parent">
<path fill="#273434" stroke="#b75867" d="M119,-304C119,-304 12,-304 12,-304 6,-304 0,-298 0,-292 0,-292 0,-280 0,-280 0,-274 6,-268 12,-268 12,-268 119,-268 119,-268 125,-268 131,-274 131,-280 131,-280 131,-292 131,-292 131,-298 125,-304 119,-304"/>
<text text-anchor="middle" x="65.5" y="-282.9" font-family="sans" font-size="12.00" fill="#c4c7c7">Recurrent Equations</text>
</a>
</g>
</g>
<!-- Set -->
<g id="node2" class="node">
<title>Set</title>
<g id="a_node2"><a xlink:href="../Set.html" xlink:title="Set" target="_parent">
<path fill="#273434" stroke="#b75867" d="M258.5,-554C258.5,-554 228.5,-554 228.5,-554 222.5,-554 216.5,-548 216.5,-542 216.5,-542 216.5,-530 216.5,-530 216.5,-524 222.5,-518 228.5,-518 228.5,-518 258.5,-518 258.5,-518 264.5,-518 270.5,-524 270.5,-530 270.5,-530 270.5,-542 270.5,-542 270.5,-548 264.5,-554 258.5,-554"/>
<text text-anchor="middle" x="243.5" y="-532.9" font-family="sans" font-size="12.00" fill="#c4c7c7">Set</text>
</a>
</g>
</g>
<!-- Recurrent Equations&#45;&gt;Set -->
<g id="edge1" class="edge">
<title>Recurrent Equations&#45;&gt;Set</title>
<path fill="none" stroke="#b75867" d="M79.44,-304.38C110.28,-348.19 188.21,-458.89 224.01,-509.73"/>
<polygon fill="#b75867" stroke="#b75867" points="221.16,-511.76 229.78,-517.93 226.88,-507.74 221.16,-511.76"/>
</g>
<!-- Multiset -->
<g id="node3" class="node">
<title>Multiset</title>
<g id="a_node3"><a xlink:href="../Multiset.html" xlink:title="Multiset" target="_parent">
<path fill="#273434" stroke="#b75867" d="M262.5,-341C262.5,-341 224.5,-341 224.5,-341 218.5,-341 212.5,-335 212.5,-329 212.5,-329 212.5,-317 212.5,-317 212.5,-311 218.5,-305 224.5,-305 224.5,-305 262.5,-305 262.5,-305 268.5,-305 274.5,-311 274.5,-317 274.5,-317 274.5,-329 274.5,-329 274.5,-335 268.5,-341 262.5,-341"/>
<text text-anchor="middle" x="243.5" y="-319.9" font-family="sans" font-size="12.00" fill="#c4c7c7">Multiset</text>
</a>
</g>
</g>
<!-- Recurrent Equations&#45;&gt;Multiset -->
<g id="edge2" class="edge">
<title>Recurrent Equations&#45;&gt;Multiset</title>
<path fill="none" stroke="#b75867" d="M131.04,-299.57C154.98,-304.6 181.42,-310.16 202.54,-314.6"/>
<polygon fill="#b75867" stroke="#b75867" points="201.94,-318.05 212.45,-316.68 203.38,-311.2 201.94,-318.05"/>
</g>
<!-- Fundamental Theorem of Algebra -->
<g id="node4" class="node">
<title>Fundamental Theorem of Algebra</title>
<g id="a_node4"><a xlink:href="../Fundamental Theorem of Algebra.html" xlink:title="Fundamental Theorem of Algebra" target="_parent">
<path fill="#273434" stroke="#b75867" d="M336,-304C336,-304 151,-304 151,-304 145,-304 139,-298 139,-292 139,-292 139,-280 139,-280 139,-274 145,-268 151,-268 151,-268 336,-268 336,-268 342,-268 348,-274 348,-280 348,-280 348,-292 348,-292 348,-298 342,-304 336,-304"/>
<text text-anchor="middle" x="243.5" y="-282.9" font-family="sans" font-size="12.00" fill="#c4c7c7">Fundamental Theorem of Algebra</text>
</a>
</g>
</g>
<!-- Recurrent Equations&#45;&gt;Fundamental Theorem of Algebra -->
<g id="edge3" class="edge">
<title>Recurrent Equations&#45;&gt;Fundamental Theorem of Algebra</title>
<path fill="none" stroke="#b75867" d="M131.04,-286C131.2,-286 131.36,-286 131.52,-286"/>
<polygon fill="#b75867" stroke="#b75867" points="128.76,-289.5 138.76,-286 128.76,-282.5 128.76,-289.5"/>
</g>
<!-- Discrete Structures -->
<g id="node5" class="node">
<title>Discrete Structures</title>
<g id="a_node5"><a xlink:href="../Discrete Structures.html" xlink:title="Discrete Structures" target="_parent">
<path fill="none" stroke="#b75867" d="M292.5,-240C292.5,-240 194.5,-240 194.5,-240 188.5,-240 182.5,-234 182.5,-228 182.5,-228 182.5,-216 182.5,-216 182.5,-210 188.5,-204 194.5,-204 194.5,-204 292.5,-204 292.5,-204 298.5,-204 304.5,-210 304.5,-216 304.5,-216 304.5,-228 304.5,-228 304.5,-234 298.5,-240 292.5,-240"/>
<text text-anchor="middle" x="243.5" y="-218.9" font-family="sans" font-size="12.00" fill="#c4c7c7">Discrete Structures</text>
</a>
</g>
</g>
<!-- Recurrent Equations&#45;&gt;Discrete Structures -->
<g id="edge4" class="edge">
<title>Recurrent Equations&#45;&gt;Discrete Structures</title>
<path fill="none" stroke="#ffffff" d="M125.91,-264.4C147.62,-256.5 171.93,-247.66 192.72,-240.1"/>
<polygon fill="#ffffff" stroke="#ffffff" points="124.67,-261.12 116.46,-267.83 127.06,-267.7 124.67,-261.12"/>
</g>
<!-- Chebyshev Polynomial -->
<g id="node6" class="node">
<title>Chebyshev Polynomial</title>
<g id="a_node6"><a xlink:href="../Chebyshev Polynomial.html" xlink:title="Chebyshev Polynomial" target="_parent">
<path fill="none" stroke="#b75867" d="M304,-203C304,-203 183,-203 183,-203 177,-203 171,-197 171,-191 171,-191 171,-179 171,-179 171,-173 177,-167 183,-167 183,-167 304,-167 304,-167 310,-167 316,-173 316,-179 316,-179 316,-191 316,-191 316,-197 310,-203 304,-203"/>
<text text-anchor="middle" x="243.5" y="-181.9" font-family="sans" font-size="12.00" fill="#c4c7c7">Chebyshev Polynomial</text>
</a>
</g>
</g>
<!-- Recurrent Equations&#45;&gt;Chebyshev Polynomial -->
<g id="edge5" class="edge">
<title>Recurrent Equations&#45;&gt;Chebyshev Polynomial</title>
<path fill="none" stroke="#ffffff" d="M83.95,-259.7C97.03,-242.09 116.49,-219.85 139,-207 148.73,-201.44 159.7,-197.29 170.77,-194.18"/>
<polygon fill="#ffffff" stroke="#ffffff" points="81.04,-257.75 78.05,-267.92 86.73,-261.83 81.04,-257.75"/>
</g>
<!-- Set&#45;&gt;Recurrent Equations -->
<g id="edge10" class="edge">
<title>Set&#45;&gt;Recurrent Equations</title>
<path fill="none" stroke="#ffffff" d="M223.66,-509.73C187.61,-458.89 109.71,-348.21 79.16,-304.39"/>
<polygon fill="#ffffff" stroke="#ffffff" points="220.84,-511.8 229.48,-517.93 226.55,-507.75 220.84,-511.8"/>
</g>
<!-- Reflexive Closure -->
<g id="node7" class="node">
<title>Reflexive Closure</title>
<g id="a_node7"><a xlink:href="../Reflexive Closure.html" xlink:title="Reflexive Closure" target="_parent">
<path fill="none" stroke="#b75867" d="M526.5,-776C526.5,-776 437.5,-776 437.5,-776 431.5,-776 425.5,-770 425.5,-764 425.5,-764 425.5,-752 425.5,-752 425.5,-746 431.5,-740 437.5,-740 437.5,-740 526.5,-740 526.5,-740 532.5,-740 538.5,-746 538.5,-752 538.5,-752 538.5,-764 538.5,-764 538.5,-770 532.5,-776 526.5,-776"/>
<text text-anchor="middle" x="482" y="-754.9" font-family="sans" font-size="12.00" fill="#c4c7c7">Reflexive Closure</text>
</a>
</g>
</g>
<!-- Set&#45;&gt;Reflexive Closure -->
<g id="edge6" class="edge">
<title>Set&#45;&gt;Reflexive Closure</title>
<path fill="none" stroke="#ffffff" d="M251.71,-564C264.63,-608.19 296.17,-693.45 356,-736 375.93,-750.18 402.08,-756.19 425.31,-758.46"/>
<polygon fill="#ffffff" stroke="#ffffff" points="255.03,-562.89 248.95,-554.21 248.29,-564.78 255.03,-562.89"/>
</g>
<!-- Symmetric Closure -->
<g id="node8" class="node">
<title>Symmetric Closure</title>
<g id="a_node8"><a xlink:href="../Symmetric Closure.html" xlink:title="Symmetric Closure" target="_parent">
<path fill="none" stroke="#b75867" d="M531.5,-739C531.5,-739 432.5,-739 432.5,-739 426.5,-739 420.5,-733 420.5,-727 420.5,-727 420.5,-715 420.5,-715 420.5,-709 426.5,-703 432.5,-703 432.5,-703 531.5,-703 531.5,-703 537.5,-703 543.5,-709 543.5,-715 543.5,-715 543.5,-727 543.5,-727 543.5,-733 537.5,-739 531.5,-739"/>
<text text-anchor="middle" x="482" y="-717.9" font-family="sans" font-size="12.00" fill="#c4c7c7">Symmetric Closure</text>
</a>
</g>
</g>
<!-- Set&#45;&gt;Symmetric Closure -->
<g id="edge7" class="edge">
<title>Set&#45;&gt;Symmetric Closure</title>
<path fill="none" stroke="#ffffff" d="M255.18,-563.49C271.15,-600.66 304.94,-666.09 356,-699 374.89,-711.18 398.57,-717.14 420.23,-719.91"/>
<polygon fill="#ffffff" stroke="#ffffff" points="258.41,-562.13 251.33,-554.24 251.95,-564.82 258.41,-562.13"/>
</g>
<!-- Class of equivalence -->
<g id="node9" class="node">
<title>Class of equivalence</title>
<g id="a_node9"><a xlink:href="../Class of equivalence.html" xlink:title="Class of equivalence" target="_parent">
<path fill="none" stroke="#b75867" d="M535.5,-702C535.5,-702 428.5,-702 428.5,-702 422.5,-702 416.5,-696 416.5,-690 416.5,-690 416.5,-678 416.5,-678 416.5,-672 422.5,-666 428.5,-666 428.5,-666 535.5,-666 535.5,-666 541.5,-666 547.5,-672 547.5,-678 547.5,-678 547.5,-690 547.5,-690 547.5,-696 541.5,-702 535.5,-702"/>
<text text-anchor="middle" x="482" y="-680.9" font-family="sans" font-size="12.00" fill="#c4c7c7">Class of equivalence</text>
</a>
</g>
</g>
<!-- Set&#45;&gt;Class of equivalence -->
<g id="edge8" class="edge">
<title>Set&#45;&gt;Class of equivalence</title>
<path fill="none" stroke="#ffffff" d="M260.21,-562.59C279.06,-591.95 313.5,-638.21 356,-662 374.17,-672.17 395.96,-677.83 416.22,-680.92"/>
<polygon fill="#ffffff" stroke="#ffffff" points="263.14,-560.68 254.87,-554.06 257.21,-564.4 263.14,-560.68"/>
</g>
<!-- Relation of Equivalence -->
<g id="node10" class="node">
<title>Relation of Equivalence</title>
<g id="a_node10"><a xlink:href="../Relation of Equivalence.html" xlink:title="Relation of Equivalence" target="_parent">
<path fill="none" stroke="#b75867" d="M544.5,-665C544.5,-665 419.5,-665 419.5,-665 413.5,-665 407.5,-659 407.5,-653 407.5,-653 407.5,-641 407.5,-641 407.5,-635 413.5,-629 419.5,-629 419.5,-629 544.5,-629 544.5,-629 550.5,-629 556.5,-635 556.5,-641 556.5,-641 556.5,-653 556.5,-653 556.5,-659 550.5,-665 544.5,-665"/>
<text text-anchor="middle" x="482" y="-643.9" font-family="sans" font-size="12.00" fill="#c4c7c7">Relation of Equivalence</text>
</a>
</g>
</g>
<!-- Set&#45;&gt;Relation of Equivalence -->
<g id="edge9" class="edge">
<title>Set&#45;&gt;Relation of Equivalence</title>
<path fill="none" stroke="#ffffff" d="M268.76,-561.43C289.84,-581.93 322.22,-609.76 356,-625 371.97,-632.21 390.07,-637.06 407.45,-640.32"/>
<polygon fill="#ffffff" stroke="#ffffff" points="271.09,-558.81 261.52,-554.25 266.16,-563.78 271.09,-558.81"/>
</g>
<!-- Principle of division -->
<g id="node11" class="node">
<title>Principle of division</title>
<g id="a_node11"><a xlink:href="../Principle of division.html" xlink:title="Principle of division" target="_parent">
<path fill="none" stroke="#b75867" d="M533,-628C533,-628 431,-628 431,-628 425,-628 419,-622 419,-616 419,-616 419,-604 419,-604 419,-598 425,-592 431,-592 431,-592 533,-592 533,-592 539,-592 545,-598 545,-604 545,-604 545,-616 545,-616 545,-622 539,-628 533,-628"/>
<text text-anchor="middle" x="482" y="-606.9" font-family="sans" font-size="12.00" fill="#c4c7c7">Principle of division</text>
</a>
</g>
</g>
<!-- Set&#45;&gt;Principle of division -->
<g id="edge11" class="edge">
<title>Set&#45;&gt;Principle of division</title>
<path fill="none" stroke="#ffffff" d="M279.8,-555.38C301.27,-566.42 329.56,-579.67 356,-588 376.07,-594.33 398.56,-598.99 418.87,-602.36"/>
<polygon fill="#ffffff" stroke="#ffffff" points="281.23,-552.18 270.75,-550.65 277.99,-558.38 281.23,-552.18"/>
</g>
<!-- Principle of products -->
<g id="node12" class="node">
<title>Principle of products</title>
<g id="a_node12"><a xlink:href="../Principle of products.html" xlink:title="Principle of products" target="_parent">
<path fill="none" stroke="#b75867" d="M537,-591C537,-591 427,-591 427,-591 421,-591 415,-585 415,-579 415,-579 415,-567 415,-567 415,-561 421,-555 427,-555 427,-555 537,-555 537,-555 543,-555 549,-561 549,-567 549,-567 549,-579 549,-579 549,-585 543,-591 537,-591"/>
<text text-anchor="middle" x="482" y="-569.9" font-family="sans" font-size="12.00" fill="#c4c7c7">Principle of products</text>
</a>
</g>
</g>
<!-- Set&#45;&gt;Principle of products -->
<g id="edge12" class="edge">
<title>Set&#45;&gt;Principle of products</title>
<path fill="none" stroke="#ffffff" d="M280.65,-541.66C316.24,-547.22 371.41,-555.86 414.86,-562.65"/>
<polygon fill="#ffffff" stroke="#ffffff" points="281.13,-538.19 270.71,-540.1 280.05,-545.1 281.13,-538.19"/>
</g>
<!-- Dirichlet principle -->
<g id="node13" class="node">
<title>Dirichlet principle</title>
<g id="a_node13"><a xlink:href="../Dirichlet principle.html" xlink:title="Dirichlet principle" target="_parent">
<path fill="none" stroke="#b75867" d="M528,-554C528,-554 436,-554 436,-554 430,-554 424,-548 424,-542 424,-542 424,-530 424,-530 424,-524 430,-518 436,-518 436,-518 528,-518 528,-518 534,-518 540,-524 540,-530 540,-530 540,-542 540,-542 540,-548 534,-554 528,-554"/>
<text text-anchor="middle" x="482" y="-532.9" font-family="sans" font-size="12.00" fill="#c4c7c7">Dirichlet principle</text>
</a>
</g>
</g>
<!-- Set&#45;&gt;Dirichlet principle -->
<g id="edge13" class="edge">
<title>Set&#45;&gt;Dirichlet principle</title>
<path fill="none" stroke="#ffffff" d="M280.82,-536C318.87,-536 379.18,-536 423.66,-536"/>
<polygon fill="#ffffff" stroke="#ffffff" points="280.71,-532.5 270.71,-536 280.71,-539.5 280.71,-532.5"/>
</g>
<!-- Principle of inclusion and exclusion -->
<g id="node14" class="node">
<title>Principle of inclusion and exclusion</title>
<g id="a_node14"><a xlink:href="../Principle of inclusion and exclusion.html" xlink:title="Principle of inclusion and exclusion" target="_parent">
<path fill="none" stroke="#b75867" d="M577.5,-517C577.5,-517 386.5,-517 386.5,-517 380.5,-517 374.5,-511 374.5,-505 374.5,-505 374.5,-493 374.5,-493 374.5,-487 380.5,-481 386.5,-481 386.5,-481 577.5,-481 577.5,-481 583.5,-481 589.5,-487 589.5,-493 589.5,-493 589.5,-505 589.5,-505 589.5,-511 583.5,-517 577.5,-517"/>
<text text-anchor="middle" x="482" y="-495.9" font-family="sans" font-size="12.00" fill="#c4c7c7">Principle of inclusion and exclusion</text>
</a>
</g>
</g>
<!-- Set&#45;&gt;Principle of inclusion and exclusion -->
<g id="edge14" class="edge">
<title>Set&#45;&gt;Principle of inclusion and exclusion</title>
<path fill="none" stroke="#ffffff" d="M280.87,-530.31C306.01,-526.38 340.87,-520.92 374.46,-515.67"/>
<polygon fill="#ffffff" stroke="#ffffff" points="280.05,-526.9 270.71,-531.9 281.13,-533.81 280.05,-526.9"/>
</g>
<!-- Differential Analysis -->
<g id="node15" class="node">
<title>Differential Analysis</title>
<g id="a_node15"><a xlink:href="../Differential Analysis.html" xlink:title="Differential Analysis" target="_parent">
<path fill="none" stroke="#b75867" d="M533.5,-480C533.5,-480 430.5,-480 430.5,-480 424.5,-480 418.5,-474 418.5,-468 418.5,-468 418.5,-456 418.5,-456 418.5,-450 424.5,-444 430.5,-444 430.5,-444 533.5,-444 533.5,-444 539.5,-444 545.5,-450 545.5,-456 545.5,-456 545.5,-468 545.5,-468 545.5,-474 539.5,-480 533.5,-480"/>
<text text-anchor="middle" x="482" y="-458.9" font-family="sans" font-size="12.00" fill="#c4c7c7">Differential Analysis</text>
</a>
</g>
</g>
<!-- Set&#45;&gt;Differential Analysis -->
<g id="edge15" class="edge">
<title>Set&#45;&gt;Differential Analysis</title>
<path fill="none" stroke="#ffffff" d="M279.8,-516.62C301.27,-505.58 329.56,-492.33 356,-484 375.86,-477.74 398.09,-473.11 418.24,-469.75"/>
<polygon fill="#ffffff" stroke="#ffffff" points="277.99,-513.62 270.75,-521.35 281.23,-519.82 277.99,-513.62"/>
</g>
<!-- Principle of partitions -->
<g id="node16" class="node">
<title>Principle of partitions</title>
<g id="a_node16"><a xlink:href="../Principle of partitions.html" xlink:title="Principle of partitions" target="_parent">
<path fill="none" stroke="#b75867" d="M538.5,-443C538.5,-443 425.5,-443 425.5,-443 419.5,-443 413.5,-437 413.5,-431 413.5,-431 413.5,-419 413.5,-419 413.5,-413 419.5,-407 425.5,-407 425.5,-407 538.5,-407 538.5,-407 544.5,-407 550.5,-413 550.5,-419 550.5,-419 550.5,-431 550.5,-431 550.5,-437 544.5,-443 538.5,-443"/>
<text text-anchor="middle" x="482" y="-421.9" font-family="sans" font-size="12.00" fill="#c4c7c7">Principle of partitions</text>
</a>
</g>
</g>
<!-- Set&#45;&gt;Principle of partitions -->
<g id="edge16" class="edge">
<title>Set&#45;&gt;Principle of partitions</title>
<path fill="none" stroke="#ffffff" d="M268.76,-510.57C289.84,-490.07 322.22,-462.24 356,-447 373.77,-438.98 394.2,-433.87 413.32,-430.63"/>
<polygon fill="#ffffff" stroke="#ffffff" points="266.16,-508.22 261.52,-517.75 271.09,-513.19 266.16,-508.22"/>
</g>
<!-- Principle of the bijection -->
<g id="node17" class="node">
<title>Principle of the bijection</title>
<g id="a_node17"><a xlink:href="../Principle of the bijection.html" xlink:title="Principle of the bijection" target="_parent">
<path fill="none" stroke="#b75867" d="M547,-406C547,-406 417,-406 417,-406 411,-406 405,-400 405,-394 405,-394 405,-382 405,-382 405,-376 411,-370 417,-370 417,-370 547,-370 547,-370 553,-370 559,-376 559,-382 559,-382 559,-394 559,-394 559,-400 553,-406 547,-406"/>
<text text-anchor="middle" x="482" y="-384.9" font-family="sans" font-size="12.00" fill="#c4c7c7">Principle of the bijection</text>
</a>
</g>
</g>
<!-- Set&#45;&gt;Principle of the bijection -->
<g id="edge17" class="edge">
<title>Set&#45;&gt;Principle of the bijection</title>
<path fill="none" stroke="#ffffff" d="M260.21,-509.41C279.06,-480.05 313.5,-433.79 356,-410 370.81,-401.71 388.01,-396.42 404.84,-393.07"/>
<polygon fill="#ffffff" stroke="#ffffff" points="257.21,-507.6 254.87,-517.94 263.14,-511.32 257.21,-507.6"/>
</g>
<!-- Multiset&#45;&gt;Recurrent Equations -->
<g id="edge18" class="edge">
<title>Multiset&#45;&gt;Recurrent Equations</title>
<path fill="none" stroke="#ffffff" d="M202.54,-315.24C181.42,-310.91 154.98,-305.38 131.04,-300.29"/>
<polygon fill="#ffffff" stroke="#ffffff" points="201.95,-318.69 212.45,-317.26 203.35,-311.83 201.95,-318.69"/>
</g>
<!-- Fundamental Theorem of Algebra&#45;&gt;Recurrent Equations -->
<g id="edge19" class="edge">
<title>Fundamental Theorem of Algebra&#45;&gt;Recurrent Equations</title>
<path fill="none" stroke="#ffffff" d="M131.52,-286.73C131.36,-286.73 131.2,-286.73 131.04,-286.73"/>
<polygon fill="#ffffff" stroke="#ffffff" points="128.76,-290.22 138.76,-286.74 128.77,-283.22 128.76,-290.22"/>
</g>
<!-- Linear Algebra -->
<g id="node18" class="node">
<title>Linear Algebra</title>
<g id="a_node18"><a xlink:href="../Linear Algebra.html" xlink:title="Linear Algebra" target="_parent">
<path fill="none" stroke="#b75867" d="M519,-369C519,-369 445,-369 445,-369 439,-369 433,-363 433,-357 433,-357 433,-345 433,-345 433,-339 439,-333 445,-333 445,-333 519,-333 519,-333 525,-333 531,-339 531,-345 531,-345 531,-357 531,-357 531,-363 525,-369 519,-369"/>
<text text-anchor="middle" x="482" y="-347.9" font-family="sans" font-size="12.00" fill="#c4c7c7">Linear Algebra</text>
</a>
</g>
</g>
<!-- Fundamental Theorem of Algebra&#45;&gt;Linear Algebra -->
<g id="edge20" class="edge">
<title>Fundamental Theorem of Algebra&#45;&gt;Linear Algebra</title>
<path fill="none" stroke="#ffffff" d="M349.76,-312.41C352.67,-318.94 350.47,-324.43 356,-329 377.23,-346.54 407.53,-352.2 432.98,-353.4"/>
<polygon fill="#ffffff" stroke="#ffffff" points="352.22,-309.88 343.23,-304.27 346.76,-314.26 352.22,-309.88"/>
</g>
<!-- Lagrange Interpolation Problem -->
<g id="node19" class="node">
<title>Lagrange Interpolation Problem</title>
<g id="a_node19"><a xlink:href="../Lagrange Interpolation Problem.html" xlink:title="Lagrange Interpolation Problem" target="_parent">
<path fill="none" stroke="#b75867" d="M569.5,-332C569.5,-332 394.5,-332 394.5,-332 388.5,-332 382.5,-326 382.5,-320 382.5,-320 382.5,-308 382.5,-308 382.5,-302 388.5,-296 394.5,-296 394.5,-296 569.5,-296 569.5,-296 575.5,-296 581.5,-302 581.5,-308 581.5,-308 581.5,-320 581.5,-320 581.5,-326 575.5,-332 569.5,-332"/>
<text text-anchor="middle" x="482" y="-310.9" font-family="sans" font-size="12.00" fill="#c4c7c7">Lagrange Interpolation Problem</text>
</a>
</g>
</g>
<!-- Fundamental Theorem of Algebra&#45;&gt;Lagrange Interpolation Problem -->
<g id="edge21" class="edge">
<title>Fundamental Theorem of Algebra&#45;&gt;Lagrange Interpolation Problem</title>
<path fill="none" stroke="#ffffff" d="M358.33,-299.48C366.32,-300.42 374.33,-301.37 382.23,-302.31"/>
<polygon fill="#ffffff" stroke="#ffffff" points="358.57,-295.98 348.23,-298.28 357.75,-302.93 358.57,-295.98"/>
</g>
<!-- Discrete Structures&#45;&gt;Recurrent Equations -->
<g id="edge22" class="edge">
<title>Discrete Structures&#45;&gt;Recurrent Equations</title>
<path fill="none" stroke="#b75867" d="M194.63,-240.08C174.05,-247.65 149.76,-256.5 127.89,-264.4"/>
<polygon fill="#b75867" stroke="#b75867" points="126.57,-261.15 118.35,-267.83 128.95,-267.73 126.57,-261.15"/>
</g>
<!-- Combinatorics -->
<g id="node20" class="node">
<title>Combinatorics</title>
<g id="a_node20"><a xlink:href="../Combinatorics.html" xlink:title="Combinatorics" target="_parent">
<path fill="#273434" stroke="#b75867" d="M519,-295C519,-295 445,-295 445,-295 439,-295 433,-289 433,-283 433,-283 433,-271 433,-271 433,-265 439,-259 445,-259 445,-259 519,-259 519,-259 525,-259 531,-265 531,-271 531,-271 531,-283 531,-283 531,-289 525,-295 519,-295"/>
<text text-anchor="middle" x="482" y="-273.9" font-family="sans" font-size="12.00" fill="#c4c7c7">Combinatorics</text>
</a>
</g>
</g>
<!-- Discrete Structures&#45;&gt;Combinatorics -->
<g id="edge23" class="edge">
<title>Discrete Structures&#45;&gt;Combinatorics</title>
<path fill="none" stroke="#b75867" d="M300.89,-240.04C318.44,-245.29 337.92,-250.75 356,-255 377.66,-260.09 401.68,-264.59 422.83,-268.17"/>
<polygon fill="#b75867" stroke="#b75867" points="422.52,-271.67 432.96,-269.85 423.67,-264.76 422.52,-271.67"/>
</g>
<!-- Functions -->
<g id="node21" class="node">
<title>Functions</title>
<g id="a_node21"><a xlink:href="../Functions.html" xlink:title="Functions" target="_parent">
<path fill="#273434" stroke="#b75867" d="M506,-258C506,-258 458,-258 458,-258 452,-258 446,-252 446,-246 446,-246 446,-234 446,-234 446,-228 452,-222 458,-222 458,-222 506,-222 506,-222 512,-222 518,-228 518,-234 518,-234 518,-246 518,-246 518,-252 512,-258 506,-258"/>
<text text-anchor="middle" x="482" y="-236.9" font-family="sans" font-size="12.00" fill="#c4c7c7">Functions</text>
</a>
</g>
</g>
<!-- Discrete Structures&#45;&gt;Functions -->
<g id="edge24" class="edge">
<title>Discrete Structures&#45;&gt;Functions</title>
<path fill="none" stroke="#b75867" d="M304.79,-226.59C345.57,-229.69 398.57,-233.73 435.75,-236.56"/>
<polygon fill="#b75867" stroke="#b75867" points="435.56,-240.05 445.8,-237.32 436.09,-233.07 435.56,-240.05"/>
</g>
<!-- Relations -->
<g id="node22" class="node">
<title>Relations</title>
<g id="a_node22"><a xlink:href="../Relations.html" xlink:title="Relations" target="_parent">
<path fill="#273434" stroke="#b75867" d="M504.5,-221C504.5,-221 459.5,-221 459.5,-221 453.5,-221 447.5,-215 447.5,-209 447.5,-209 447.5,-197 447.5,-197 447.5,-191 453.5,-185 459.5,-185 459.5,-185 504.5,-185 504.5,-185 510.5,-185 516.5,-191 516.5,-197 516.5,-197 516.5,-209 516.5,-209 516.5,-215 510.5,-221 504.5,-221"/>
<text text-anchor="middle" x="482" y="-199.9" font-family="sans" font-size="12.00" fill="#c4c7c7">Relations</text>
</a>
</g>
</g>
<!-- Discrete Structures&#45;&gt;Relations -->
<g id="edge25" class="edge">
<title>Discrete Structures&#45;&gt;Relations</title>
<path fill="none" stroke="#b75867" d="M304.79,-217.16C346.2,-213.83 400.2,-209.49 437.45,-206.5"/>
<polygon fill="#b75867" stroke="#b75867" points="437.8,-209.98 447.49,-205.69 437.24,-203 437.8,-209.98"/>
</g>
<!-- Logical Equivalences -->
<g id="node23" class="node">
<title>Logical Equivalences</title>
<g id="a_node23"><a xlink:href="../Logical Equivalences.html" xlink:title="Logical Equivalences" target="_parent">
<path fill="#273434" stroke="#b75867" d="M536.5,-184C536.5,-184 427.5,-184 427.5,-184 421.5,-184 415.5,-178 415.5,-172 415.5,-172 415.5,-160 415.5,-160 415.5,-154 421.5,-148 427.5,-148 427.5,-148 536.5,-148 536.5,-148 542.5,-148 548.5,-154 548.5,-160 548.5,-160 548.5,-172 548.5,-172 548.5,-178 542.5,-184 536.5,-184"/>
<text text-anchor="middle" x="482" y="-162.9" font-family="sans" font-size="12.00" fill="#c4c7c7">Logical Equivalences</text>
</a>
</g>
</g>
<!-- Discrete Structures&#45;&gt;Logical Equivalences -->
<g id="edge26" class="edge">
<title>Discrete Structures&#45;&gt;Logical Equivalences</title>
<path fill="none" stroke="#b75867" d="M304.59,-217.28C319.7,-214.01 335.23,-208.66 348,-200 353.3,-196.4 350.63,-191.5 356,-188 370.57,-178.48 388.06,-172.74 405.26,-169.36"/>
<polygon fill="#b75867" stroke="#b75867" points="406.08,-172.77 415.34,-167.63 404.89,-165.87 406.08,-172.77"/>
</g>
<!-- Logical Operators -->
<g id="node24" class="node">
<title>Logical Operators</title>
<g id="a_node24"><a xlink:href="../Logical Operators.html" xlink:title="Logical Operators" target="_parent">
<path fill="#273434" stroke="#b75867" d="M528,-147C528,-147 436,-147 436,-147 430,-147 424,-141 424,-135 424,-135 424,-123 424,-123 424,-117 430,-111 436,-111 436,-111 528,-111 528,-111 534,-111 540,-117 540,-123 540,-123 540,-135 540,-135 540,-141 534,-147 528,-147"/>
<text text-anchor="middle" x="482" y="-125.9" font-family="sans" font-size="12.00" fill="#c4c7c7">Logical Operators</text>
</a>
</g>
</g>
<!-- Discrete Structures&#45;&gt;Logical Operators -->
<g id="edge27" class="edge">
<title>Discrete Structures&#45;&gt;Logical Operators</title>
<path fill="none" stroke="#b75867" d="M304.77,-221.23C320.77,-218.1 336.72,-211.83 348,-200 363.23,-184.03 340.49,-166.7 356,-151 371.11,-135.71 392.85,-128.87 413.98,-126.28"/>
<polygon fill="#b75867" stroke="#b75867" points="414.31,-129.76 423.94,-125.34 413.66,-122.79 414.31,-129.76"/>
</g>
<!-- Subjects -->
<g id="node25" class="node">
<title>Subjects</title>
<g id="a_node25"><a xlink:href="../Subjects.html" xlink:title="Subjects" target="_parent">
<path fill="none" stroke="#b75867" d="M502.5,-110C502.5,-110 461.5,-110 461.5,-110 455.5,-110 449.5,-104 449.5,-98 449.5,-98 449.5,-86 449.5,-86 449.5,-80 455.5,-74 461.5,-74 461.5,-74 502.5,-74 502.5,-74 508.5,-74 514.5,-80 514.5,-86 514.5,-86 514.5,-98 514.5,-98 514.5,-104 508.5,-110 502.5,-110"/>
<text text-anchor="middle" x="482" y="-88.9" font-family="sans" font-size="12.00" fill="#c4c7c7">Subjects</text>
</a>
</g>
</g>
<!-- Discrete Structures&#45;&gt;Subjects -->
<g id="edge28" class="edge">
<title>Discrete Structures&#45;&gt;Subjects</title>
<path fill="none" stroke="#ffffff" d="M314.57,-219.51C327.27,-215.9 339.24,-209.84 348,-200 360.76,-185.66 342.99,-128.11 356,-114 379.3,-88.72 420.62,-86.08 449.35,-87.88"/>
<polygon fill="#ffffff" stroke="#ffffff" points="313.69,-216.13 304.76,-221.83 315.29,-222.94 313.69,-216.13"/>
</g>
<!-- Knowledege Base -->
<g id="node26" class="node">
<title>Knowledege Base</title>
<g id="a_node26"><a xlink:href="../Knowledege Base.html" xlink:title="Knowledege Base" target="_parent">
<path fill="none" stroke="#b75867" d="M528.5,-73C528.5,-73 435.5,-73 435.5,-73 429.5,-73 423.5,-67 423.5,-61 423.5,-61 423.5,-49 423.5,-49 423.5,-43 429.5,-37 435.5,-37 435.5,-37 528.5,-37 528.5,-37 534.5,-37 540.5,-43 540.5,-49 540.5,-49 540.5,-61 540.5,-61 540.5,-67 534.5,-73 528.5,-73"/>
<text text-anchor="middle" x="482" y="-51.9" font-family="sans" font-size="12.00" fill="#c4c7c7">Knowledege Base</text>
</a>
</g>
</g>
<!-- Discrete Structures&#45;&gt;Knowledege Base -->
<g id="edge29" class="edge">
<title>Discrete Structures&#45;&gt;Knowledege Base</title>
<path fill="none" stroke="#ffffff" d="M314.57,-219.76C327.34,-216.14 339.33,-210.02 348,-200 365.92,-179.28 337.72,-97.4 356,-77 372.69,-58.38 399.15,-51.94 423.44,-50.55"/>
<polygon fill="#ffffff" stroke="#ffffff" points="313.64,-216.38 304.7,-222.07 315.24,-223.2 313.64,-216.38"/>
</g>
<!-- Chebyshev Polynomial&#45;&gt;Recurrent Equations -->
<g id="edge30" class="edge">
<title>Chebyshev Polynomial&#45;&gt;Recurrent Equations</title>
<path fill="none" stroke="#b75867" d="M170.77,-195.16C159.7,-198.29 148.73,-202.44 139,-208 116.77,-220.69 97.51,-242.54 84.43,-259.89"/>
<polygon fill="#b75867" stroke="#b75867" points="81.59,-257.85 78.53,-267.99 87.25,-261.97 81.59,-257.85"/>
</g>
<!-- Extreme points of Chebyshev polynomials -->
<g id="node27" class="node">
<title>Extreme points of Chebyshev polynomials</title>
<g id="a_node27"><a xlink:href="../Extreme points of Chebyshev polynomials.html" xlink:title="Extreme points of Chebyshev polynomials" target="_parent">
<path fill="none" stroke="#b75867" d="M596,-36C596,-36 368,-36 368,-36 362,-36 356,-30 356,-24 356,-24 356,-12 356,-12 356,-6 362,0 368,0 368,0 596,0 596,0 602,0 608,-6 608,-12 608,-12 608,-24 608,-24 608,-30 602,-36 596,-36"/>
<text text-anchor="middle" x="482" y="-14.9" font-family="sans" font-size="12.00" fill="#c4c7c7">Extreme points of Chebyshev polynomials</text>
</a>
</g>
</g>
<!-- Chebyshev Polynomial&#45;&gt;Extreme points of Chebyshev polynomials -->
<g id="edge31" class="edge">
<title>Chebyshev Polynomial&#45;&gt;Extreme points of Chebyshev polynomials</title>
<path fill="none" stroke="#ffffff" d="M257.54,-157.56C275,-124.04 309.28,-68.31 356,-40 358.26,-38.63 360.59,-37.34 362.96,-36.13"/>
<polygon fill="#ffffff" stroke="#ffffff" points="254.26,-156.29 252.87,-166.79 260.51,-159.45 254.26,-156.29"/>
</g>
</g>
</svg>
