<?xml version="1.0" encoding="UTF-8" standalone="no"?>
<!DOCTYPE svg PUBLIC "-//W3C//DTD SVG 1.1//EN"
 "http://www.w3.org/Graphics/SVG/1.1/DTD/svg11.dtd">
<!-- Generated by graphviz version 2.44.0 (0)
 -->
<!-- Title: Reflexive Relation Pages: 1 -->
<svg width="2367pt" height="188pt"
 viewBox="0.00 0.00 2366.50 188.00" xmlns="http://www.w3.org/2000/svg" xmlns:xlink="http://www.w3.org/1999/xlink">
<g id="page0,1_graph0" class="graph" transform="scale(1 1) rotate(0) translate(4 184)">
<title>Reflexive Relation</title>
<polygon fill="#132020" stroke="transparent" points="-4,4 -4,-184 2362.5,-184 2362.5,4 -4,4"/>
<!-- Reflexive Relation -->
<g id="node1" class="node">
<title>Reflexive Relation</title>
<g id="a_node1"><a xlink:href="../Reflexive Relation.html" xlink:title="Reflexive Relation" target="_parent">
<path fill="#273434" stroke="#b75867" d="M560.06,-180C560.06,-180 467.06,-180 467.06,-180 461.06,-180 455.06,-174 455.06,-168 455.06,-168 455.06,-156 455.06,-156 455.06,-150 461.06,-144 467.06,-144 467.06,-144 560.06,-144 560.06,-144 566.06,-144 572.06,-150 572.06,-156 572.06,-156 572.06,-168 572.06,-168 572.06,-174 566.06,-180 560.06,-180"/>
<text text-anchor="middle" x="513.56" y="-158.9" font-family="sans" font-size="12.00" fill="#c4c7c7">Reflexive Relation</text>
</a>
</g>
</g>
<!-- Relation -->
<g id="node2" class="node">
<title>Relation</title>
<g id="a_node2"><a xlink:href="../Relation.html" xlink:title="Relation" target="_parent">
<path fill="#273434" stroke="#b75867" d="M1072.56,-108C1072.56,-108 1032.56,-108 1032.56,-108 1026.56,-108 1020.56,-102 1020.56,-96 1020.56,-96 1020.56,-84 1020.56,-84 1020.56,-78 1026.56,-72 1032.56,-72 1032.56,-72 1072.56,-72 1072.56,-72 1078.56,-72 1084.56,-78 1084.56,-84 1084.56,-84 1084.56,-96 1084.56,-96 1084.56,-102 1078.56,-108 1072.56,-108"/>
<text text-anchor="middle" x="1052.56" y="-86.9" font-family="sans" font-size="12.00" fill="#c4c7c7">Relation</text>
</a>
</g>
</g>
<!-- Reflexive Relation&#45;&gt;Relation -->
<g id="edge1" class="edge">
<title>Reflexive Relation&#45;&gt;Relation</title>
<path fill="none" stroke="#b75867" d="M572.27,-153.38C681.8,-139.15 914.85,-108.88 1010.38,-96.48"/>
<polygon fill="#b75867" stroke="#b75867" points="1011.06,-99.92 1020.53,-95.16 1010.16,-92.98 1011.06,-99.92"/>
</g>
<!-- Reflexive Closure -->
<g id="node4" class="node">
<title>Reflexive Closure</title>
<g id="a_node4"><a xlink:href="../Reflexive Closure.html" xlink:title="Reflexive Closure" target="_parent">
<ellipse fill="#273434" stroke="#b75867" cx="69.56" cy="-18" rx="69.62" ry="18"/>
<text text-anchor="middle" x="69.56" y="-14.9" font-family="sans" font-size="12.00" fill="#c4c7c7">Reflexive Closure</text>
</a>
</g>
</g>
<!-- Reflexive Relation&#45;&gt;Reflexive Closure -->
<g id="edge3" class="edge">
<title>Reflexive Relation&#45;&gt;Reflexive Closure</title>
<path fill="none" stroke="#ffffff" d="M449.16,-140.79C417.87,-130.94 379.74,-118.9 345.56,-108 262.34,-81.46 165.15,-50.01 111.15,-32.5"/>
<polygon fill="#ffffff" stroke="#ffffff" points="448.47,-144.24 459.06,-143.9 450.57,-137.56 448.47,-144.24"/>
</g>
<!-- Relation of Equivalence -->
<g id="node5" class="node">
<title>Relation of Equivalence</title>
<g id="a_node5"><a xlink:href="../Relation of Equivalence.html" xlink:title="Relation of Equivalence" target="_parent">
<ellipse fill="#273434" stroke="#b75867" cx="248.56" cy="-18" rx="91.95" ry="18"/>
<text text-anchor="middle" x="248.56" y="-14.9" font-family="sans" font-size="12.00" fill="#c4c7c7">Relation of Equivalence</text>
</a>
</g>
</g>
<!-- Reflexive Relation&#45;&gt;Relation of Equivalence -->
<g id="edge4" class="edge">
<title>Reflexive Relation&#45;&gt;Relation of Equivalence</title>
<path fill="none" stroke="#ffffff" d="M472.7,-139.1C419.08,-110.37 326.21,-60.61 278.6,-35.1"/>
<polygon fill="#ffffff" stroke="#ffffff" points="471.13,-142.23 481.6,-143.87 474.43,-136.06 471.13,-142.23"/>
</g>
<!-- Relations -->
<g id="node6" class="node">
<title>Relations</title>
<g id="a_node6"><a xlink:href="../Relations.html" xlink:title="Relations" target="_parent">
<ellipse fill="#273434" stroke="#b75867" cx="400.56" cy="-18" rx="42.45" ry="18"/>
<text text-anchor="middle" x="400.56" y="-14.9" font-family="sans" font-size="12.00" fill="#c4c7c7">Relations</text>
</a>
</g>
</g>
<!-- Reflexive Relation&#45;&gt;Relations -->
<g id="edge5" class="edge">
<title>Reflexive Relation&#45;&gt;Relations</title>
<path fill="none" stroke="#ffffff" d="M493.54,-135.84C470.44,-106.81 433.14,-59.94 413.54,-35.31"/>
<polygon fill="#ffffff" stroke="#ffffff" points="490.97,-138.23 499.93,-143.87 496.44,-133.87 490.97,-138.23"/>
</g>
<!-- Linear order -->
<g id="node7" class="node">
<title>Linear order</title>
<g id="a_node7"><a xlink:href="../Linear order.html" xlink:title="Linear order" target="_parent">
<ellipse fill="#273434" stroke="#b75867" cx="513.56" cy="-18" rx="52.88" ry="18"/>
<text text-anchor="middle" x="513.56" y="-14.9" font-family="sans" font-size="12.00" fill="#c4c7c7">Linear order</text>
</a>
</g>
</g>
<!-- Reflexive Relation&#45;&gt;Linear order -->
<g id="edge6" class="edge">
<title>Reflexive Relation&#45;&gt;Linear order</title>
<path fill="none" stroke="#ffffff" d="M513.56,-133.68C513.56,-104.89 513.56,-60.42 513.56,-36.19"/>
<polygon fill="#ffffff" stroke="#ffffff" points="510.06,-133.87 513.56,-143.87 517.06,-133.87 510.06,-133.87"/>
</g>
<!-- Partial orders have no contours -->
<g id="node8" class="node">
<title>Partial orders have no contours</title>
<g id="a_node8"><a xlink:href="../Partial orders have no contours.html" xlink:title="Partial orders have no contours" target="_parent">
<ellipse fill="#273434" stroke="#b75867" cx="1221.56" cy="-90" rx="118.62" ry="18"/>
<text text-anchor="middle" x="1221.56" y="-86.9" font-family="sans" font-size="12.00" fill="#c4c7c7">Partial orders have no contours</text>
</a>
</g>
</g>
<!-- Reflexive Relation&#45;&gt;Partial orders have no contours -->
<g id="edge7" class="edge">
<title>Reflexive Relation&#45;&gt;Partial orders have no contours</title>
<path fill="none" stroke="#ffffff" d="M582.26,-155.64C690.93,-146.95 909.09,-128.67 1093.56,-108 1107.71,-106.41 1122.71,-104.57 1137.28,-102.69"/>
<polygon fill="#ffffff" stroke="#ffffff" points="581.78,-152.16 572.09,-156.45 582.34,-159.14 581.78,-152.16"/>
</g>
<!-- Partial order -->
<g id="node9" class="node">
<title>Partial order</title>
<g id="a_node9"><a xlink:href="../Partial order.html" xlink:title="Partial order" target="_parent">
<ellipse fill="#273434" stroke="#b75867" cx="2305.56" cy="-18" rx="52.88" ry="18"/>
<text text-anchor="middle" x="2305.56" y="-14.9" font-family="sans" font-size="12.00" fill="#c4c7c7">Partial order</text>
</a>
</g>
</g>
<!-- Reflexive Relation&#45;&gt;Partial order -->
<g id="edge8" class="edge">
<title>Reflexive Relation&#45;&gt;Partial order</title>
<path fill="none" stroke="#ffffff" d="M582.42,-161.04C816.89,-160.1 1605.02,-148.23 2243.56,-36 2251.37,-34.63 2259.61,-32.71 2267.45,-30.65"/>
<polygon fill="#ffffff" stroke="#ffffff" points="582.32,-157.54 572.34,-161.07 582.35,-164.54 582.32,-157.54"/>
</g>
<!-- Descartes Product -->
<g id="node3" class="node">
<title>Descartes Product</title>
<g id="a_node3"><a xlink:href="../Descartes Product.html" xlink:title="Descartes Product" target="_parent">
<path fill="#273434" stroke="#b75867" d="M1488.06,-36C1488.06,-36 1393.06,-36 1393.06,-36 1387.06,-36 1381.06,-30 1381.06,-24 1381.06,-24 1381.06,-12 1381.06,-12 1381.06,-6 1387.06,0 1393.06,0 1393.06,0 1488.06,0 1488.06,0 1494.06,0 1500.06,-6 1500.06,-12 1500.06,-12 1500.06,-24 1500.06,-24 1500.06,-30 1494.06,-36 1488.06,-36"/>
<text text-anchor="middle" x="1440.56" y="-14.9" font-family="sans" font-size="12.00" fill="#c4c7c7">Descartes Product</text>
</a>
</g>
</g>
<!-- Relation&#45;&gt;Descartes Product -->
<g id="edge2" class="edge">
<title>Relation&#45;&gt;Descartes Product</title>
<path fill="none" stroke="#b75867" d="M1084.96,-74.66C1087.84,-73.66 1090.73,-72.76 1093.56,-72 1210.88,-40.68 1247.26,-58 1370.96,-35.96"/>
<polygon fill="#b75867" stroke="#b75867" points="1371.61,-39.4 1380.81,-34.16 1370.35,-32.52 1371.61,-39.4"/>
</g>
<!-- Relation&#45;&gt;Reflexive Closure -->
<g id="edge14" class="edge">
<title>Relation&#45;&gt;Reflexive Closure</title>
<path fill="none" stroke="#ffffff" d="M1010.02,-88.86C880.13,-87.93 477.42,-81.32 147.56,-36 138.09,-34.7 128.05,-32.86 118.45,-30.88"/>
<polygon fill="#ffffff" stroke="#ffffff" points="1010.3,-92.36 1020.32,-88.93 1010.35,-85.36 1010.3,-92.36"/>
</g>
<!-- Relation&#45;&gt;Relation of Equivalence -->
<g id="edge16" class="edge">
<title>Relation&#45;&gt;Relation of Equivalence</title>
<path fill="none" stroke="#ffffff" d="M1010.23,-87.16C900.7,-82.11 599.09,-66.34 349.56,-36 337.82,-34.57 325.37,-32.74 313.36,-30.81"/>
<polygon fill="#ffffff" stroke="#ffffff" points="1010.08,-90.66 1020.23,-87.62 1010.4,-83.67 1010.08,-90.66"/>
</g>
<!-- Relation&#45;&gt;Relations -->
<g id="edge19" class="edge">
<title>Relation&#45;&gt;Relations</title>
<path fill="none" stroke="#ffffff" d="M1010.05,-88.65C911.06,-87.09 657.87,-78.86 451.56,-36 444.89,-34.61 437.88,-32.64 431.26,-30.52"/>
<polygon fill="#ffffff" stroke="#ffffff" points="1010.2,-92.15 1020.25,-88.79 1010.3,-85.15 1010.2,-92.15"/>
</g>
<!-- Relation&#45;&gt;Linear order -->
<g id="edge20" class="edge">
<title>Relation&#45;&gt;Linear order</title>
<path fill="none" stroke="#ffffff" d="M1010.37,-86.54C926.78,-81.19 734.48,-66.42 575.56,-36 567.89,-34.53 559.78,-32.59 552.04,-30.56"/>
<polygon fill="#ffffff" stroke="#ffffff" points="1010.28,-90.05 1020.48,-87.18 1010.72,-83.06 1010.28,-90.05"/>
</g>
<!-- Relation&#45;&gt;Partial order -->
<g id="edge22" class="edge">
<title>Relation&#45;&gt;Partial order</title>
<path fill="none" stroke="#ffffff" d="M1094.93,-72.27C1359.88,-19.56 1993.94,-73.59 2243.56,-36 2251.62,-34.79 2260.12,-32.88 2268.16,-30.78"/>
<polygon fill="#ffffff" stroke="#ffffff" points="1093.97,-68.89 1084.89,-74.35 1095.4,-75.75 1093.97,-68.89"/>
</g>
<!-- Anti&#45;symmetric Relation -->
<g id="node10" class="node">
<title>Anti&#45;symmetric Relation</title>
<g id="a_node10"><a xlink:href="../Anti-symmetric Relation.html" xlink:title="Anti&#45;symmetric Relation" target="_parent">
<ellipse fill="#273434" stroke="#b75867" cx="1611.56" cy="-18" rx="93.64" ry="18"/>
<text text-anchor="middle" x="1611.56" y="-14.9" font-family="sans" font-size="12.00" fill="#c4c7c7">Anti&#45;symmetric Relation</text>
</a>
</g>
</g>
<!-- Relation&#45;&gt;Anti&#45;symmetric Relation -->
<g id="edge9" class="edge">
<title>Relation&#45;&gt;Anti&#45;symmetric Relation</title>
<path fill="none" stroke="#ffffff" d="M1094.77,-72.14C1275.69,-29.03 1328.68,-58.86 1509.56,-36 1521.23,-34.53 1533.6,-32.69 1545.56,-30.78"/>
<polygon fill="#ffffff" stroke="#ffffff" points="1093.82,-68.77 1084.93,-74.52 1095.47,-75.57 1093.82,-68.77"/>
</g>
<!-- Symmetric Relation -->
<g id="node11" class="node">
<title>Symmetric Relation</title>
<g id="a_node11"><a xlink:href="../Symmetric Relation.html" xlink:title="Symmetric Relation" target="_parent">
<ellipse fill="#273434" stroke="#b75867" cx="1801.56" cy="-18" rx="78.59" ry="18"/>
<text text-anchor="middle" x="1801.56" y="-14.9" font-family="sans" font-size="12.00" fill="#c4c7c7">Symmetric Relation</text>
</a>
</g>
</g>
<!-- Relation&#45;&gt;Symmetric Relation -->
<g id="edge10" class="edge">
<title>Relation&#45;&gt;Symmetric Relation</title>
<path fill="none" stroke="#ffffff" d="M1095.01,-72.14C1364.94,-11.65 1443.62,-70.17 1714.56,-36 1724.94,-34.69 1735.95,-32.88 1746.51,-30.92"/>
<polygon fill="#ffffff" stroke="#ffffff" points="1093.88,-68.8 1084.91,-74.44 1095.44,-75.63 1093.88,-68.8"/>
</g>
<!-- Transitive Relation -->
<g id="node12" class="node">
<title>Transitive Relation</title>
<g id="a_node12"><a xlink:href="../Transitive Relation.html" xlink:title="Transitive Relation" target="_parent">
<ellipse fill="#273434" stroke="#b75867" cx="1972.56" cy="-18" rx="74.47" ry="18"/>
<text text-anchor="middle" x="1972.56" y="-14.9" font-family="sans" font-size="12.00" fill="#c4c7c7">Transitive Relation</text>
</a>
</g>
</g>
<!-- Relation&#45;&gt;Transitive Relation -->
<g id="edge11" class="edge">
<title>Relation&#45;&gt;Transitive Relation</title>
<path fill="none" stroke="#ffffff" d="M1094.7,-72.23C1441.09,3.42 1541.38,-79.26 1889.56,-36 1899.63,-34.75 1910.31,-32.94 1920.52,-30.96"/>
<polygon fill="#ffffff" stroke="#ffffff" points="1093.91,-68.82 1084.9,-74.4 1095.42,-75.65 1093.91,-68.82"/>
</g>
<!-- Anti&#45;reflexive relation -->
<g id="node13" class="node">
<title>Anti&#45;reflexive relation</title>
<g id="a_node13"><a xlink:href="../Anti-reflexive relation.html" xlink:title="Anti&#45;reflexive relation" target="_parent">
<ellipse fill="#273434" stroke="#b75867" cx="2149.56" cy="-18" rx="84.9" ry="18"/>
<text text-anchor="middle" x="2149.56" y="-14.9" font-family="sans" font-size="12.00" fill="#c4c7c7">Anti&#45;reflexive relation</text>
</a>
</g>
</g>
<!-- Relation&#45;&gt;Anti&#45;reflexive relation -->
<g id="edge12" class="edge">
<title>Relation&#45;&gt;Anti&#45;reflexive relation</title>
<path fill="none" stroke="#ffffff" d="M1095,-72.25C1318.84,-27.29 1846.1,-58.74 2055.56,-36 2066.94,-34.76 2079.01,-32.96 2090.58,-30.98"/>
<polygon fill="#ffffff" stroke="#ffffff" points="1093.96,-68.89 1084.9,-74.37 1095.4,-75.74 1093.96,-68.89"/>
</g>
<!-- Strongly Anti&#45;symmetric Relation -->
<g id="node14" class="node">
<title>Strongly Anti&#45;symmetric Relation</title>
<g id="a_node14"><a xlink:href="../Strongly Anti-symmetric Relation.html" xlink:title="Strongly Anti&#45;symmetric Relation" target="_parent">
<ellipse fill="#273434" stroke="#b75867" cx="709.56" cy="-18" rx="124.93" ry="18"/>
<text text-anchor="middle" x="709.56" y="-14.9" font-family="sans" font-size="12.00" fill="#c4c7c7">Strongly Anti&#45;symmetric Relation</text>
</a>
</g>
</g>
<!-- Relation&#45;&gt;Strongly Anti&#45;symmetric Relation -->
<g id="edge13" class="edge">
<title>Relation&#45;&gt;Strongly Anti&#45;symmetric Relation</title>
<path fill="none" stroke="#ffffff" d="M1010.4,-80.4C952.57,-68.59 847.92,-47.24 778.58,-33.08"/>
<polygon fill="#ffffff" stroke="#ffffff" points="1009.79,-83.84 1020.29,-82.41 1011.19,-76.99 1009.79,-83.84"/>
</g>
<!-- Symmetric Closure -->
<g id="node15" class="node">
<title>Symmetric Closure</title>
<g id="a_node15"><a xlink:href="../Symmetric Closure.html" xlink:title="Symmetric Closure" target="_parent">
<ellipse fill="#273434" stroke="#b75867" cx="928.56" cy="-18" rx="75.94" ry="18"/>
<text text-anchor="middle" x="928.56" y="-14.9" font-family="sans" font-size="12.00" fill="#c4c7c7">Symmetric Closure</text>
</a>
</g>
</g>
<!-- Relation&#45;&gt;Symmetric Closure -->
<g id="edge15" class="edge">
<title>Relation&#45;&gt;Symmetric Closure</title>
<path fill="none" stroke="#ffffff" d="M1013.43,-66.91C994.93,-56.47 973.27,-44.24 956.46,-34.75"/>
<polygon fill="#ffffff" stroke="#ffffff" points="1011.8,-70.01 1022.23,-71.88 1015.24,-63.91 1011.8,-70.01"/>
</g>
<!-- Chain -->
<g id="node16" class="node">
<title>Chain</title>
<g id="a_node16"><a xlink:href="../Chain.html" xlink:title="Chain" target="_parent">
<ellipse fill="#273434" stroke="#b75867" cx="1052.56" cy="-18" rx="30.33" ry="18"/>
<text text-anchor="middle" x="1052.56" y="-14.9" font-family="sans" font-size="12.00" fill="#c4c7c7">Chain</text>
</a>
</g>
</g>
<!-- Relation&#45;&gt;Chain -->
<g id="edge17" class="edge">
<title>Relation&#45;&gt;Chain</title>
<path fill="none" stroke="#ffffff" d="M1052.56,-61.67C1052.56,-53.05 1052.56,-43.79 1052.56,-36.1"/>
<polygon fill="#ffffff" stroke="#ffffff" points="1049.06,-61.7 1052.56,-71.7 1056.06,-61.7 1049.06,-61.7"/>
</g>
<!-- Partial function -->
<g id="node17" class="node">
<title>Partial function</title>
<g id="a_node17"><a xlink:href="../Partial function.html" xlink:title="Partial function" target="_parent">
<ellipse fill="#273434" stroke="#b75867" cx="1164.56" cy="-18" rx="63.31" ry="18"/>
<text text-anchor="middle" x="1164.56" y="-14.9" font-family="sans" font-size="12.00" fill="#c4c7c7">Partial function</text>
</a>
</g>
</g>
<!-- Relation&#45;&gt;Partial function -->
<g id="edge18" class="edge">
<title>Relation&#45;&gt;Partial function</title>
<path fill="none" stroke="#ffffff" d="M1088.82,-66.34C1105.32,-56.02 1124.46,-44.07 1139.36,-34.75"/>
<polygon fill="#ffffff" stroke="#ffffff" points="1086.58,-63.61 1079.96,-71.88 1090.29,-69.54 1086.58,-63.61"/>
</g>
<!-- Total function -->
<g id="node18" class="node">
<title>Total function</title>
<g id="a_node18"><a xlink:href="../Total function.html" xlink:title="Total function" target="_parent">
<ellipse fill="#273434" stroke="#b75867" cx="1304.56" cy="-18" rx="58.46" ry="18"/>
<text text-anchor="middle" x="1304.56" y="-14.9" font-family="sans" font-size="12.00" fill="#c4c7c7">Total function</text>
</a>
</g>
</g>
<!-- Relation&#45;&gt;Total function -->
<g id="edge21" class="edge">
<title>Relation&#45;&gt;Total function</title>
<path fill="none" stroke="#ffffff" d="M1094.38,-72.34C1123.93,-64.23 1207.97,-43.17 1260.6,-30"/>
<polygon fill="#ffffff" stroke="#ffffff" points="1093.24,-69.02 1084.62,-75.18 1095.2,-75.74 1093.24,-69.02"/>
</g>
</g>
</svg>
