<?xml version="1.0" encoding="UTF-8" standalone="no"?>
<!DOCTYPE svg PUBLIC "-//W3C//DTD SVG 1.1//EN"
 "http://www.w3.org/Graphics/SVG/1.1/DTD/svg11.dtd">
<!-- Generated by graphviz version 2.44.0 (0)
 -->
<!-- Title: Reflexive Closure Pages: 1 -->
<svg width="3936pt" height="260pt"
 viewBox="0.00 0.00 3935.61 260.00" xmlns="http://www.w3.org/2000/svg" xmlns:xlink="http://www.w3.org/1999/xlink">
<g id="page0,1_graph0" class="graph" transform="scale(1 1) rotate(0) translate(4 256)">
<title>Reflexive Closure</title>
<polygon fill="#132020" stroke="transparent" points="-4,4 -4,-256 3931.61,-256 3931.61,4 -4,4"/>
<!-- Reflexive Closure -->
<g id="node1" class="node">
<title>Reflexive Closure</title>
<g id="a_node1"><a xlink:title="Reflexive Closure">
<path fill="#273434" stroke="#b75867" d="M2166.14,-252C2166.14,-252 2077.14,-252 2077.14,-252 2071.14,-252 2065.14,-246 2065.14,-240 2065.14,-240 2065.14,-228 2065.14,-228 2065.14,-222 2071.14,-216 2077.14,-216 2077.14,-216 2166.14,-216 2166.14,-216 2172.14,-216 2178.14,-222 2178.14,-228 2178.14,-228 2178.14,-240 2178.14,-240 2178.14,-246 2172.14,-252 2166.14,-252"/>
<text text-anchor="middle" x="2121.64" y="-230.9" font-family="sans" font-size="12.00" fill="#c4c7c7">Reflexive Closure</text>
</a>
</g>
</g>
<!-- Matrix -->
<g id="node2" class="node">
<title>Matrix</title>
<g id="a_node2"><a xlink:title="Matrix">
<path fill="#273434" stroke="#b75867" d="M1949.64,-180C1949.64,-180 1919.64,-180 1919.64,-180 1913.64,-180 1907.64,-174 1907.64,-168 1907.64,-168 1907.64,-156 1907.64,-156 1907.64,-150 1913.64,-144 1919.64,-144 1919.64,-144 1949.64,-144 1949.64,-144 1955.64,-144 1961.64,-150 1961.64,-156 1961.64,-156 1961.64,-168 1961.64,-168 1961.64,-174 1955.64,-180 1949.64,-180"/>
<text text-anchor="middle" x="1934.64" y="-158.9" font-family="sans" font-size="12.00" fill="#c4c7c7">Matrix</text>
</a>
</g>
</g>
<!-- Reflexive Closure&#45;&gt;Matrix -->
<g id="edge1" class="edge">
<title>Reflexive Closure&#45;&gt;Matrix</title>
<path fill="none" stroke="#b75867" d="M2075.9,-215.88C2043.74,-203.84 2001.29,-187.95 1971.34,-176.74"/>
<polygon fill="#b75867" stroke="#b75867" points="1972.29,-173.36 1961.7,-173.13 1969.84,-179.91 1972.29,-173.36"/>
</g>
<!-- Relation -->
<g id="node3" class="node">
<title>Relation</title>
<g id="a_node3"><a xlink:title="Relation">
<path fill="#273434" stroke="#b75867" d="M2609.64,-108C2609.64,-108 2569.64,-108 2569.64,-108 2563.64,-108 2557.64,-102 2557.64,-96 2557.64,-96 2557.64,-84 2557.64,-84 2557.64,-78 2563.64,-72 2569.64,-72 2569.64,-72 2609.64,-72 2609.64,-72 2615.64,-72 2621.64,-78 2621.64,-84 2621.64,-84 2621.64,-96 2621.64,-96 2621.64,-102 2615.64,-108 2609.64,-108"/>
<text text-anchor="middle" x="2589.64" y="-86.9" font-family="sans" font-size="12.00" fill="#c4c7c7">Relation</text>
</a>
</g>
</g>
<!-- Reflexive Closure&#45;&gt;Relation -->
<g id="edge2" class="edge">
<title>Reflexive Closure&#45;&gt;Relation</title>
<path fill="none" stroke="#b75867" d="M2178.21,-218.53C2258.71,-197.49 2410.85,-156.01 2548.1,-108.01"/>
<polygon fill="#b75867" stroke="#b75867" points="2549.27,-111.32 2557.54,-104.7 2546.95,-104.71 2549.27,-111.32"/>
</g>
<!-- Set -->
<g id="node5" class="node">
<title>Set</title>
<g id="a_node5"><a xlink:title="Set">
<path fill="#273434" stroke="#b75867" d="M1163.64,-108C1163.64,-108 1133.64,-108 1133.64,-108 1127.64,-108 1121.64,-102 1121.64,-96 1121.64,-96 1121.64,-84 1121.64,-84 1121.64,-78 1127.64,-72 1133.64,-72 1133.64,-72 1163.64,-72 1163.64,-72 1169.64,-72 1175.64,-78 1175.64,-84 1175.64,-84 1175.64,-96 1175.64,-96 1175.64,-102 1169.64,-108 1163.64,-108"/>
<text text-anchor="middle" x="1148.64" y="-86.9" font-family="sans" font-size="12.00" fill="#c4c7c7">Set</text>
</a>
</g>
</g>
<!-- Reflexive Closure&#45;&gt;Set -->
<g id="edge3" class="edge">
<title>Reflexive Closure&#45;&gt;Set</title>
<path fill="none" stroke="#b75867" d="M2065.12,-224.75C1886.09,-198.62 1334.58,-118.14 1185.9,-96.44"/>
<polygon fill="#b75867" stroke="#b75867" points="1186.3,-92.96 1175.9,-94.98 1185.29,-99.89 1186.3,-92.96"/>
</g>
<!-- Reflexive Relation -->
<g id="node6" class="node">
<title>Reflexive Relation</title>
<g id="a_node6"><a xlink:title="Reflexive Relation">
<path fill="#273434" stroke="#b75867" d="M2282.14,-180C2282.14,-180 2189.14,-180 2189.14,-180 2183.14,-180 2177.14,-174 2177.14,-168 2177.14,-168 2177.14,-156 2177.14,-156 2177.14,-150 2183.14,-144 2189.14,-144 2189.14,-144 2282.14,-144 2282.14,-144 2288.14,-144 2294.14,-150 2294.14,-156 2294.14,-156 2294.14,-168 2294.14,-168 2294.14,-174 2288.14,-180 2282.14,-180"/>
<text text-anchor="middle" x="2235.64" y="-158.9" font-family="sans" font-size="12.00" fill="#c4c7c7">Reflexive Relation</text>
</a>
</g>
</g>
<!-- Reflexive Closure&#45;&gt;Reflexive Relation -->
<g id="edge4" class="edge">
<title>Reflexive Closure&#45;&gt;Reflexive Relation</title>
<path fill="none" stroke="#b75867" d="M2149.53,-215.88C2164.43,-206.72 2182.97,-195.34 2199.02,-185.48"/>
<polygon fill="#b75867" stroke="#b75867" points="2200.96,-188.41 2207.65,-180.19 2197.29,-182.44 2200.96,-188.41"/>
</g>
<!-- Relations -->
<g id="node7" class="node">
<title>Relations</title>
<g id="a_node7"><a xlink:title="Relations">
<ellipse fill="#273434" stroke="#b75867" cx="2139.64" cy="-18" rx="42.45" ry="18"/>
<text text-anchor="middle" x="2139.64" y="-14.9" font-family="sans" font-size="12.00" fill="#c4c7c7">Relations</text>
</a>
</g>
</g>
<!-- Reflexive Closure&#45;&gt;Relations -->
<g id="edge7" class="edge">
<title>Reflexive Closure&#45;&gt;Relations</title>
<path fill="none" stroke="#ffffff" d="M2123.94,-205.71C2127.7,-160.98 2135.07,-73.32 2138.19,-36.23"/>
<polygon fill="#ffffff" stroke="#ffffff" points="2120.44,-205.59 2123.08,-215.85 2127.41,-206.18 2120.44,-205.59"/>
</g>
<!-- Symmetric Closure -->
<g id="node8" class="node">
<title>Symmetric Closure</title>
<g id="a_node8"><a xlink:title="Symmetric Closure">
<ellipse fill="#273434" stroke="#b75867" cx="1802.64" cy="-18" rx="75.94" ry="18"/>
<text text-anchor="middle" x="1802.64" y="-14.9" font-family="sans" font-size="12.00" fill="#c4c7c7">Symmetric Closure</text>
</a>
</g>
</g>
<!-- Matrix&#45;&gt;Symmetric Closure -->
<g id="edge8" class="edge">
<title>Matrix&#45;&gt;Symmetric Closure</title>
<path fill="none" stroke="#ffffff" d="M1934.95,-133.51C1933.81,-114.4 1929.42,-89.35 1915.64,-72 1900.01,-52.32 1875.34,-39.59 1853.04,-31.56"/>
<polygon fill="#ffffff" stroke="#ffffff" points="1931.46,-133.82 1935.3,-143.7 1938.46,-133.59 1931.46,-133.82"/>
</g>
<!-- Linear Algebra -->
<g id="node9" class="node">
<title>Linear Algebra</title>
<g id="a_node9"><a xlink:title="Linear Algebra">
<ellipse fill="#273434" stroke="#b75867" cx="1846.64" cy="-90" rx="60.16" ry="18"/>
<text text-anchor="middle" x="1846.64" y="-86.9" font-family="sans" font-size="12.00" fill="#c4c7c7">Linear Algebra</text>
</a>
</g>
</g>
<!-- Matrix&#45;&gt;Linear Algebra -->
<g id="edge9" class="edge">
<title>Matrix&#45;&gt;Linear Algebra</title>
<path fill="none" stroke="#ffffff" d="M1904.97,-137.4C1892.46,-127.45 1878.22,-116.12 1866.94,-107.14"/>
<polygon fill="#ffffff" stroke="#ffffff" points="1902.88,-140.21 1912.89,-143.7 1907.24,-134.73 1902.88,-140.21"/>
</g>
<!-- Descartes Product -->
<g id="node4" class="node">
<title>Descartes Product</title>
<g id="a_node4"><a xlink:title="Descartes Product">
<path fill="#273434" stroke="#b75867" d="M2913.14,-36C2913.14,-36 2818.14,-36 2818.14,-36 2812.14,-36 2806.14,-30 2806.14,-24 2806.14,-24 2806.14,-12 2806.14,-12 2806.14,-6 2812.14,0 2818.14,0 2818.14,0 2913.14,0 2913.14,0 2919.14,0 2925.14,-6 2925.14,-12 2925.14,-12 2925.14,-24 2925.14,-24 2925.14,-30 2919.14,-36 2913.14,-36"/>
<text text-anchor="middle" x="2865.64" y="-14.9" font-family="sans" font-size="12.00" fill="#c4c7c7">Descartes Product</text>
</a>
</g>
</g>
<!-- Relation&#45;&gt;Descartes Product -->
<g id="edge5" class="edge">
<title>Relation&#45;&gt;Descartes Product</title>
<path fill="none" stroke="#b75867" d="M2621.84,-80.83C2664.37,-70.05 2740.39,-50.77 2796.27,-36.6"/>
<polygon fill="#b75867" stroke="#b75867" points="2797.27,-39.95 2806.1,-34.1 2795.55,-33.17 2797.27,-39.95"/>
</g>
<!-- Relation&#45;&gt;Relations -->
<g id="edge19" class="edge">
<title>Relation&#45;&gt;Relations</title>
<path fill="none" stroke="#ffffff" d="M2547.34,-72.11C2391.61,-34.43 2343.8,-68.8 2190.64,-36 2183.98,-34.57 2176.97,-32.58 2170.35,-30.45"/>
<polygon fill="#ffffff" stroke="#ffffff" points="2546.71,-75.56 2557.26,-74.57 2548.4,-68.76 2546.71,-75.56"/>
</g>
<!-- Relation&#45;&gt;Symmetric Closure -->
<g id="edge15" class="edge">
<title>Relation&#45;&gt;Symmetric Closure</title>
<path fill="none" stroke="#ffffff" d="M2547.4,-72.19C2259.45,-8.12 2175.64,-72.9 1886.64,-36 1876.61,-34.72 1865.97,-32.92 1855.77,-30.97"/>
<polygon fill="#ffffff" stroke="#ffffff" points="2546.77,-75.64 2557.3,-74.43 2548.31,-68.81 2546.77,-75.64"/>
</g>
<!-- Anti&#45;symmetric Relation -->
<g id="node10" class="node">
<title>Anti&#45;symmetric Relation</title>
<g id="a_node10"><a xlink:title="Anti&#45;symmetric Relation">
<ellipse fill="#273434" stroke="#b75867" cx="3036.64" cy="-18" rx="93.64" ry="18"/>
<text text-anchor="middle" x="3036.64" y="-14.9" font-family="sans" font-size="12.00" fill="#c4c7c7">Anti&#45;symmetric Relation</text>
</a>
</g>
</g>
<!-- Relation&#45;&gt;Anti&#45;symmetric Relation -->
<g id="edge10" class="edge">
<title>Relation&#45;&gt;Anti&#45;symmetric Relation</title>
<path fill="none" stroke="#ffffff" d="M2632.29,-82.63C2697.49,-72.84 2825.81,-53.43 2934.64,-36 2945.63,-34.24 2957.28,-32.34 2968.63,-30.46"/>
<polygon fill="#ffffff" stroke="#ffffff" points="2631.38,-79.22 2622.01,-84.17 2632.42,-86.15 2631.38,-79.22"/>
</g>
<!-- Symmetric Relation -->
<g id="node11" class="node">
<title>Symmetric Relation</title>
<g id="a_node11"><a xlink:title="Symmetric Relation">
<ellipse fill="#273434" stroke="#b75867" cx="3226.64" cy="-18" rx="78.59" ry="18"/>
<text text-anchor="middle" x="3226.64" y="-14.9" font-family="sans" font-size="12.00" fill="#c4c7c7">Symmetric Relation</text>
</a>
</g>
</g>
<!-- Relation&#45;&gt;Symmetric Relation -->
<g id="edge11" class="edge">
<title>Relation&#45;&gt;Symmetric Relation</title>
<path fill="none" stroke="#ffffff" d="M2631.77,-86.34C2724.1,-80.2 2951.12,-63.44 3139.64,-36 3149.69,-34.54 3160.34,-32.7 3170.62,-30.78"/>
<polygon fill="#ffffff" stroke="#ffffff" points="2631.45,-82.85 2621.7,-87 2631.91,-89.84 2631.45,-82.85"/>
</g>
<!-- Transitive Relation -->
<g id="node12" class="node">
<title>Transitive Relation</title>
<g id="a_node12"><a xlink:title="Transitive Relation">
<ellipse fill="#273434" stroke="#b75867" cx="3397.64" cy="-18" rx="74.47" ry="18"/>
<text text-anchor="middle" x="3397.64" y="-14.9" font-family="sans" font-size="12.00" fill="#c4c7c7">Transitive Relation</text>
</a>
</g>
</g>
<!-- Relation&#45;&gt;Transitive Relation -->
<g id="edge12" class="edge">
<title>Relation&#45;&gt;Transitive Relation</title>
<path fill="none" stroke="#ffffff" d="M2632.17,-87.81C2744.28,-84.25 3056.99,-71.65 3314.64,-36 3324.55,-34.63 3335.05,-32.79 3345.13,-30.82"/>
<polygon fill="#ffffff" stroke="#ffffff" points="2631.84,-84.32 2621.96,-88.12 2632.06,-91.31 2631.84,-84.32"/>
</g>
<!-- Anti&#45;reflexive relation -->
<g id="node13" class="node">
<title>Anti&#45;reflexive relation</title>
<g id="a_node13"><a xlink:title="Anti&#45;reflexive relation">
<ellipse fill="#273434" stroke="#b75867" cx="3574.64" cy="-18" rx="84.9" ry="18"/>
<text text-anchor="middle" x="3574.64" y="-14.9" font-family="sans" font-size="12.00" fill="#c4c7c7">Anti&#45;reflexive relation</text>
</a>
</g>
</g>
<!-- Relation&#45;&gt;Anti&#45;reflexive relation -->
<g id="edge13" class="edge">
<title>Relation&#45;&gt;Anti&#45;reflexive relation</title>
<path fill="none" stroke="#ffffff" d="M2631.9,-88.28C2760.06,-85.7 3155.52,-74.93 3480.64,-36 3491.84,-34.66 3503.72,-32.83 3515.13,-30.87"/>
<polygon fill="#ffffff" stroke="#ffffff" points="2631.66,-84.78 2621.73,-88.48 2631.8,-91.78 2631.66,-84.78"/>
</g>
<!-- Strongly Anti&#45;symmetric Relation -->
<g id="node14" class="node">
<title>Strongly Anti&#45;symmetric Relation</title>
<g id="a_node14"><a xlink:title="Strongly Anti&#45;symmetric Relation">
<ellipse fill="#273434" stroke="#b75867" cx="3802.64" cy="-18" rx="124.93" ry="18"/>
<text text-anchor="middle" x="3802.64" y="-14.9" font-family="sans" font-size="12.00" fill="#c4c7c7">Strongly Anti&#45;symmetric Relation</text>
</a>
</g>
</g>
<!-- Relation&#45;&gt;Strongly Anti&#45;symmetric Relation -->
<g id="edge14" class="edge">
<title>Relation&#45;&gt;Strongly Anti&#45;symmetric Relation</title>
<path fill="none" stroke="#ffffff" d="M2632.16,-88.09C2777.28,-84.73 3266.28,-71.35 3668.64,-36 3683.94,-34.66 3700.19,-32.89 3715.89,-31"/>
<polygon fill="#ffffff" stroke="#ffffff" points="2631.84,-84.6 2621.92,-88.32 2632,-91.59 2631.84,-84.6"/>
</g>
<!-- Relation of Equivalence -->
<g id="node15" class="node">
<title>Relation of Equivalence</title>
<g id="a_node15"><a xlink:title="Relation of Equivalence">
<ellipse fill="#273434" stroke="#b75867" cx="1987.64" cy="-18" rx="91.95" ry="18"/>
<text text-anchor="middle" x="1987.64" y="-14.9" font-family="sans" font-size="12.00" fill="#c4c7c7">Relation of Equivalence</text>
</a>
</g>
</g>
<!-- Relation&#45;&gt;Relation of Equivalence -->
<g id="edge16" class="edge">
<title>Relation&#45;&gt;Relation of Equivalence</title>
<path fill="none" stroke="#ffffff" d="M2547.34,-72.13C2347.36,-25.31 2288.9,-60.64 2088.64,-36 2076.91,-34.56 2064.45,-32.72 2052.44,-30.78"/>
<polygon fill="#ffffff" stroke="#ffffff" points="2546.74,-75.59 2557.28,-74.5 2548.36,-68.78 2546.74,-75.59"/>
</g>
<!-- Chain -->
<g id="node16" class="node">
<title>Chain</title>
<g id="a_node16"><a xlink:title="Chain">
<ellipse fill="#273434" stroke="#b75867" cx="2477.64" cy="-18" rx="30.33" ry="18"/>
<text text-anchor="middle" x="2477.64" y="-14.9" font-family="sans" font-size="12.00" fill="#c4c7c7">Chain</text>
</a>
</g>
</g>
<!-- Relation&#45;&gt;Chain -->
<g id="edge17" class="edge">
<title>Relation&#45;&gt;Chain</title>
<path fill="none" stroke="#ffffff" d="M2553.73,-66.56C2535.19,-54.97 2513.27,-41.27 2497.73,-31.56"/>
<polygon fill="#ffffff" stroke="#ffffff" points="2551.91,-69.54 2562.24,-71.88 2555.62,-63.61 2551.91,-69.54"/>
</g>
<!-- Partial function -->
<g id="node17" class="node">
<title>Partial function</title>
<g id="a_node17"><a xlink:title="Partial function">
<ellipse fill="#273434" stroke="#b75867" cx="2589.64" cy="-18" rx="63.31" ry="18"/>
<text text-anchor="middle" x="2589.64" y="-14.9" font-family="sans" font-size="12.00" fill="#c4c7c7">Partial function</text>
</a>
</g>
</g>
<!-- Relation&#45;&gt;Partial function -->
<g id="edge18" class="edge">
<title>Relation&#45;&gt;Partial function</title>
<path fill="none" stroke="#ffffff" d="M2589.64,-61.67C2589.64,-53.05 2589.64,-43.79 2589.64,-36.1"/>
<polygon fill="#ffffff" stroke="#ffffff" points="2586.14,-61.7 2589.64,-71.7 2593.14,-61.7 2586.14,-61.7"/>
</g>
<!-- Linear order -->
<g id="node18" class="node">
<title>Linear order</title>
<g id="a_node18"><a xlink:title="Linear order">
<ellipse fill="#273434" stroke="#b75867" cx="2252.64" cy="-18" rx="52.88" ry="18"/>
<text text-anchor="middle" x="2252.64" y="-14.9" font-family="sans" font-size="12.00" fill="#c4c7c7">Linear order</text>
</a>
</g>
</g>
<!-- Relation&#45;&gt;Linear order -->
<g id="edge20" class="edge">
<title>Relation&#45;&gt;Linear order</title>
<path fill="none" stroke="#ffffff" d="M2547.45,-72.03C2445.44,-44.48 2414.44,-57.28 2314.64,-36 2307.11,-34.39 2299.13,-32.42 2291.5,-30.39"/>
<polygon fill="#ffffff" stroke="#ffffff" points="2546.65,-75.44 2557.22,-74.73 2548.51,-68.69 2546.65,-75.44"/>
</g>
<!-- Total function -->
<g id="node19" class="node">
<title>Total function</title>
<g id="a_node19"><a xlink:title="Total function">
<ellipse fill="#273434" stroke="#b75867" cx="2729.64" cy="-18" rx="58.46" ry="18"/>
<text text-anchor="middle" x="2729.64" y="-14.9" font-family="sans" font-size="12.00" fill="#c4c7c7">Total function</text>
</a>
</g>
</g>
<!-- Relation&#45;&gt;Total function -->
<g id="edge21" class="edge">
<title>Relation&#45;&gt;Total function</title>
<path fill="none" stroke="#ffffff" d="M2630.95,-68.35C2653.14,-57.25 2679.98,-43.83 2700.06,-33.79"/>
<polygon fill="#ffffff" stroke="#ffffff" points="2629.14,-65.34 2621.76,-72.94 2632.27,-71.6 2629.14,-65.34"/>
</g>
<!-- Partial order -->
<g id="node20" class="node">
<title>Partial order</title>
<g id="a_node20"><a xlink:title="Partial order">
<ellipse fill="#273434" stroke="#b75867" cx="2376.64" cy="-18" rx="52.88" ry="18"/>
<text text-anchor="middle" x="2376.64" y="-14.9" font-family="sans" font-size="12.00" fill="#c4c7c7">Partial order</text>
</a>
</g>
</g>
<!-- Relation&#45;&gt;Partial order -->
<g id="edge22" class="edge">
<title>Relation&#45;&gt;Partial order</title>
<path fill="none" stroke="#ffffff" d="M2548.1,-71.96C2497.73,-54.02 2449.3,-39.54 2416.27,-30.06"/>
<polygon fill="#ffffff" stroke="#ffffff" points="2546.93,-75.26 2557.52,-75.35 2549.3,-68.67 2546.93,-75.26"/>
</g>
<!-- Set&#45;&gt;Symmetric Closure -->
<g id="edge23" class="edge">
<title>Set&#45;&gt;Symmetric Closure</title>
<path fill="none" stroke="#ffffff" d="M1185.88,-86.92C1277.09,-81.53 1518.84,-65.42 1718.64,-36 1728.5,-34.55 1738.96,-32.69 1749.02,-30.74"/>
<polygon fill="#ffffff" stroke="#ffffff" points="1185.54,-83.43 1175.76,-87.51 1185.95,-90.42 1185.54,-83.43"/>
</g>
<!-- Set&#45;&gt;Relation of Equivalence -->
<g id="edge25" class="edge">
<title>Set&#45;&gt;Relation of Equivalence</title>
<path fill="none" stroke="#ffffff" d="M1186.04,-87.6C1294.71,-83.25 1619.77,-68.3 1887.64,-36 1899.18,-34.61 1911.42,-32.8 1923.22,-30.89"/>
<polygon fill="#ffffff" stroke="#ffffff" points="1185.76,-84.11 1175.91,-88 1186.04,-91.1 1185.76,-84.11"/>
</g>
<!-- Class of equivalence -->
<g id="node21" class="node">
<title>Class of equivalence</title>
<g id="a_node21"><a xlink:title="Class of equivalence">
<ellipse fill="#273434" stroke="#b75867" cx="1628.64" cy="-18" rx="80.78" ry="18"/>
<text text-anchor="middle" x="1628.64" y="-14.9" font-family="sans" font-size="12.00" fill="#c4c7c7">Class of equivalence</text>
</a>
</g>
</g>
<!-- Set&#45;&gt;Class of equivalence -->
<g id="edge24" class="edge">
<title>Set&#45;&gt;Class of equivalence</title>
<path fill="none" stroke="#ffffff" d="M1185.76,-84.65C1255.35,-76.33 1410.06,-57.14 1539.64,-36 1549.58,-34.38 1560.11,-32.51 1570.32,-30.61"/>
<polygon fill="#ffffff" stroke="#ffffff" points="1185.25,-81.18 1175.74,-85.84 1186.08,-88.13 1185.25,-81.18"/>
</g>
<!-- Recurrent Equations -->
<g id="node22" class="node">
<title>Recurrent Equations</title>
<g id="a_node22"><a xlink:title="Recurrent Equations">
<ellipse fill="#273434" stroke="#b75867" cx="80.64" cy="-18" rx="80.78" ry="18"/>
<text text-anchor="middle" x="80.64" y="-14.9" font-family="sans" font-size="12.00" fill="#c4c7c7">Recurrent Equations</text>
</a>
</g>
</g>
<!-- Set&#45;&gt;Recurrent Equations -->
<g id="edge26" class="edge">
<title>Set&#45;&gt;Recurrent Equations</title>
<path fill="none" stroke="#ffffff" d="M1111.01,-88.78C980.36,-87.64 534.48,-80.51 169.64,-36 159.02,-34.7 147.77,-32.9 136.96,-30.94"/>
<polygon fill="#ffffff" stroke="#ffffff" points="1111.24,-92.28 1121.27,-88.87 1111.3,-85.28 1111.24,-92.28"/>
</g>
<!-- Principle of division -->
<g id="node23" class="node">
<title>Principle of division</title>
<g id="a_node23"><a xlink:title="Principle of division">
<ellipse fill="#273434" stroke="#b75867" cx="256.64" cy="-18" rx="77.63" ry="18"/>
<text text-anchor="middle" x="256.64" y="-14.9" font-family="sans" font-size="12.00" fill="#c4c7c7">Principle of division</text>
</a>
</g>
</g>
<!-- Set&#45;&gt;Principle of division -->
<g id="edge27" class="edge">
<title>Set&#45;&gt;Principle of division</title>
<path fill="none" stroke="#ffffff" d="M1111.38,-88.23C996.53,-85.5 637.93,-74.28 343.64,-36 333.26,-34.65 322.26,-32.82 311.7,-30.85"/>
<polygon fill="#ffffff" stroke="#ffffff" points="1111.34,-91.73 1121.42,-88.46 1111.5,-84.73 1111.34,-91.73"/>
</g>
<!-- Principle of products -->
<g id="node24" class="node">
<title>Principle of products</title>
<g id="a_node24"><a xlink:title="Principle of products">
<ellipse fill="#273434" stroke="#b75867" cx="434.64" cy="-18" rx="82.48" ry="18"/>
<text text-anchor="middle" x="434.64" y="-14.9" font-family="sans" font-size="12.00" fill="#c4c7c7">Principle of products</text>
</a>
</g>
</g>
<!-- Set&#45;&gt;Principle of products -->
<g id="edge28" class="edge">
<title>Set&#45;&gt;Principle of products</title>
<path fill="none" stroke="#ffffff" d="M1111.41,-87.1C1014.65,-81.89 747.41,-65.73 526.64,-36 515.86,-34.55 504.42,-32.69 493.4,-30.74"/>
<polygon fill="#ffffff" stroke="#ffffff" points="1111.39,-90.6 1121.56,-87.64 1111.76,-83.61 1111.39,-90.6"/>
</g>
<!-- Dirichlet principle -->
<g id="node25" class="node">
<title>Dirichlet principle</title>
<g id="a_node25"><a xlink:title="Dirichlet principle">
<ellipse fill="#273434" stroke="#b75867" cx="606.64" cy="-18" rx="71.32" ry="18"/>
<text text-anchor="middle" x="606.64" y="-14.9" font-family="sans" font-size="12.00" fill="#c4c7c7">Dirichlet principle</text>
</a>
</g>
</g>
<!-- Set&#45;&gt;Dirichlet principle -->
<g id="edge29" class="edge">
<title>Set&#45;&gt;Dirichlet principle</title>
<path fill="none" stroke="#ffffff" d="M1111.13,-85.87C1032.36,-79.04 844.1,-61.36 687.64,-36 678.14,-34.46 668.06,-32.56 658.36,-30.6"/>
<polygon fill="#ffffff" stroke="#ffffff" points="1111.24,-89.39 1121.5,-86.76 1111.84,-82.42 1111.24,-89.39"/>
</g>
<!-- Principle of inclusion and exclusion -->
<g id="node26" class="node">
<title>Principle of inclusion and exclusion</title>
<g id="a_node26"><a xlink:title="Principle of inclusion and exclusion">
<ellipse fill="#273434" stroke="#b75867" cx="828.64" cy="-18" rx="132.2" ry="18"/>
<text text-anchor="middle" x="828.64" y="-14.9" font-family="sans" font-size="12.00" fill="#c4c7c7">Principle of inclusion and exclusion</text>
</a>
</g>
</g>
<!-- Set&#45;&gt;Principle of inclusion and exclusion -->
<g id="edge30" class="edge">
<title>Set&#45;&gt;Principle of inclusion and exclusion</title>
<path fill="none" stroke="#ffffff" d="M1111.71,-80.92C1058.96,-69.38 961.17,-47.99 895.5,-33.62"/>
<polygon fill="#ffffff" stroke="#ffffff" points="1111.12,-84.37 1121.63,-83.09 1112.61,-77.54 1111.12,-84.37"/>
</g>
<!-- Differential Analysis -->
<g id="node27" class="node">
<title>Differential Analysis</title>
<g id="a_node27"><a xlink:title="Differential Analysis">
<ellipse fill="#273434" stroke="#b75867" cx="1057.64" cy="-18" rx="78.36" ry="18"/>
<text text-anchor="middle" x="1057.64" y="-14.9" font-family="sans" font-size="12.00" fill="#c4c7c7">Differential Analysis</text>
</a>
</g>
</g>
<!-- Set&#45;&gt;Differential Analysis -->
<g id="edge31" class="edge">
<title>Set&#45;&gt;Differential Analysis</title>
<path fill="none" stroke="#ffffff" d="M1118.02,-65.44C1105.18,-55.57 1090.57,-44.33 1078.94,-35.38"/>
<polygon fill="#ffffff" stroke="#ffffff" points="1116.09,-68.37 1126.15,-71.7 1120.36,-62.83 1116.09,-68.37"/>
</g>
<!-- Principle of partitions -->
<g id="node28" class="node">
<title>Principle of partitions</title>
<g id="a_node28"><a xlink:title="Principle of partitions">
<ellipse fill="#273434" stroke="#b75867" cx="1238.64" cy="-18" rx="84.17" ry="18"/>
<text text-anchor="middle" x="1238.64" y="-14.9" font-family="sans" font-size="12.00" fill="#c4c7c7">Principle of partitions</text>
</a>
</g>
</g>
<!-- Set&#45;&gt;Principle of partitions -->
<g id="edge32" class="edge">
<title>Set&#45;&gt;Principle of partitions</title>
<path fill="none" stroke="#ffffff" d="M1178.87,-65.49C1191.46,-55.69 1205.8,-44.55 1217.27,-35.62"/>
<polygon fill="#ffffff" stroke="#ffffff" points="1176.63,-62.79 1170.89,-71.7 1180.93,-68.32 1176.63,-62.79"/>
</g>
<!-- Principle of the bijection -->
<g id="node29" class="node">
<title>Principle of the bijection</title>
<g id="a_node29"><a xlink:title="Principle of the bijection">
<ellipse fill="#273434" stroke="#b75867" cx="1435.64" cy="-18" rx="94.6" ry="18"/>
<text text-anchor="middle" x="1435.64" y="-14.9" font-family="sans" font-size="12.00" fill="#c4c7c7">Principle of the bijection</text>
</a>
</g>
</g>
<!-- Set&#45;&gt;Principle of the bijection -->
<g id="edge33" class="edge">
<title>Set&#45;&gt;Principle of the bijection</title>
<path fill="none" stroke="#ffffff" d="M1185.55,-80C1234.81,-67.98 1322.48,-46.6 1379.84,-32.61"/>
<polygon fill="#ffffff" stroke="#ffffff" points="1184.53,-76.64 1175.64,-82.41 1186.19,-83.45 1184.53,-76.64"/>
</g>
<!-- Reflexive Relation&#45;&gt;Relation -->
<g id="edge6" class="edge">
<title>Reflexive Relation&#45;&gt;Relation</title>
<path fill="none" stroke="#b75867" d="M2294.21,-155.08C2355.59,-147.98 2454.72,-134.01 2547.39,-108.03"/>
<polygon fill="#b75867" stroke="#b75867" points="2548.55,-111.34 2557.21,-105.22 2546.63,-104.61 2548.55,-111.34"/>
</g>
<!-- Reflexive Relation&#45;&gt;Relations -->
<g id="edge35" class="edge">
<title>Reflexive Relation&#45;&gt;Relations</title>
<path fill="none" stroke="#ffffff" d="M2218.41,-135.51C2198.89,-106.63 2167.63,-60.4 2150.96,-35.75"/>
<polygon fill="#ffffff" stroke="#ffffff" points="2215.56,-137.55 2224.06,-143.87 2221.36,-133.63 2215.56,-137.55"/>
</g>
<!-- Reflexive Relation&#45;&gt;Relation of Equivalence -->
<g id="edge34" class="edge">
<title>Reflexive Relation&#45;&gt;Relation of Equivalence</title>
<path fill="none" stroke="#ffffff" d="M2196.8,-138.76C2146.67,-110.06 2060.62,-60.78 2016.13,-35.31"/>
<polygon fill="#ffffff" stroke="#ffffff" points="2195.31,-141.94 2205.73,-143.87 2198.79,-135.87 2195.31,-141.94"/>
</g>
<!-- Reflexive Relation&#45;&gt;Linear order -->
<g id="edge36" class="edge">
<title>Reflexive Relation&#45;&gt;Linear order</title>
<path fill="none" stroke="#ffffff" d="M2238.91,-133.68C2242.36,-104.89 2247.68,-60.42 2250.58,-36.19"/>
<polygon fill="#ffffff" stroke="#ffffff" points="2235.41,-133.53 2237.69,-143.87 2242.36,-134.36 2235.41,-133.53"/>
</g>
<!-- Reflexive Relation&#45;&gt;Partial order -->
<g id="edge38" class="edge">
<title>Reflexive Relation&#45;&gt;Partial order</title>
<path fill="none" stroke="#ffffff" d="M2248.49,-134.7C2258.64,-115.74 2274.15,-90.36 2292.64,-72 2308.67,-56.08 2330.29,-42.58 2347.58,-33.18"/>
<polygon fill="#ffffff" stroke="#ffffff" points="2245.32,-133.21 2243.81,-143.69 2251.53,-136.43 2245.32,-133.21"/>
</g>
<!-- Partial orders have no contours -->
<g id="node30" class="node">
<title>Partial orders have no contours</title>
<g id="a_node30"><a xlink:title="Partial orders have no contours">
<ellipse fill="#273434" stroke="#b75867" cx="2420.64" cy="-90" rx="118.62" ry="18"/>
<text text-anchor="middle" x="2420.64" y="-86.9" font-family="sans" font-size="12.00" fill="#c4c7c7">Partial orders have no contours</text>
</a>
</g>
</g>
<!-- Reflexive Relation&#45;&gt;Partial orders have no contours -->
<g id="edge37" class="edge">
<title>Reflexive Relation&#45;&gt;Partial orders have no contours</title>
<path fill="none" stroke="#ffffff" d="M2290.62,-140.2C2318.82,-129.53 2352.63,-116.73 2378.7,-106.87"/>
<polygon fill="#ffffff" stroke="#ffffff" points="2289.01,-137.06 2280.9,-143.88 2291.49,-143.61 2289.01,-137.06"/>
</g>
</g>
</svg>
