<?xml version="1.0" encoding="UTF-8" standalone="no"?>
<!DOCTYPE svg PUBLIC "-//W3C//DTD SVG 1.1//EN"
 "http://www.w3.org/Graphics/SVG/1.1/DTD/svg11.dtd">
<!-- Generated by graphviz version 2.44.0 (0)
 -->
<!-- Title: Reflexive Relation Pages: 1 -->
<svg width="1099pt" height="393pt"
 viewBox="0.00 0.00 1099.00 392.75" xmlns="http://www.w3.org/2000/svg" xmlns:xlink="http://www.w3.org/1999/xlink">
<g id="page0,1_graph0" class="graph" transform="scale(1 1) rotate(0) translate(4 388.75)">
<title>Reflexive Relation</title>
<polygon fill="#132020" stroke="transparent" points="-4,4 -4,-388.75 1095,-388.75 1095,4 -4,4"/>
<!-- Reflexive Relation -->
<g id="node1" class="node">
<title>Reflexive Relation</title>
<g id="a_node1"><a xlink:href="../Reflexive Relation.html" xlink:title="Reflexive Relation" target="_parent">
<path fill="#273434" stroke="#b75867" d="M105,-236.49C105,-236.49 12,-236.49 12,-236.49 6,-236.49 0,-230.49 0,-224.49 0,-224.49 0,-212.49 0,-212.49 0,-206.49 6,-200.49 12,-200.49 12,-200.49 105,-200.49 105,-200.49 111,-200.49 117,-206.49 117,-212.49 117,-212.49 117,-224.49 117,-224.49 117,-230.49 111,-236.49 105,-236.49"/>
<text text-anchor="middle" x="58.5" y="-215.39" font-family="sans" font-size="12.00" fill="#c4c7c7">Reflexive Relation</text>
</a>
</g>
</g>
<!-- Relation -->
<g id="node2" class="node">
<title>Relation</title>
<g id="a_node2"><a xlink:href="../Relation.html" xlink:title="Relation" target="_parent">
<path fill="#273434" stroke="#b75867" d="M177,-269.49C177,-269.49 137,-269.49 137,-269.49 131,-269.49 125,-263.49 125,-257.49 125,-257.49 125,-245.49 125,-245.49 125,-239.49 131,-233.49 137,-233.49 137,-233.49 177,-233.49 177,-233.49 183,-233.49 189,-239.49 189,-245.49 189,-245.49 189,-257.49 189,-257.49 189,-263.49 183,-269.49 177,-269.49"/>
<text text-anchor="middle" x="157" y="-248.39" font-family="sans" font-size="12.00" fill="#c4c7c7">Relation</text>
</a>
</g>
</g>
<!-- Reflexive Relation&#45;&gt;Relation -->
<g id="edge1" class="edge">
<title>Reflexive Relation&#45;&gt;Relation</title>
<path fill="none" stroke="#b75867" d="M112.27,-236.53C113.19,-236.85 114.11,-237.16 115.03,-237.48"/>
<polygon fill="#b75867" stroke="#b75867" points="114.07,-240.85 124.67,-240.77 116.34,-234.23 114.07,-240.85"/>
</g>
<!-- Reflexive Closure -->
<g id="node3" class="node">
<title>Reflexive Closure</title>
<g id="a_node3"><a xlink:href="../Reflexive Closure.html" xlink:title="Reflexive Closure" target="_parent">
<path fill="none" stroke="#b75867" d="M301,-216.49C301,-216.49 212,-216.49 212,-216.49 206,-216.49 200,-210.49 200,-204.49 200,-204.49 200,-192.49 200,-192.49 200,-186.49 206,-180.49 212,-180.49 212,-180.49 301,-180.49 301,-180.49 307,-180.49 313,-186.49 313,-192.49 313,-192.49 313,-204.49 313,-204.49 313,-210.49 307,-216.49 301,-216.49"/>
<text text-anchor="middle" x="256.5" y="-195.39" font-family="sans" font-size="12.00" fill="#c4c7c7">Reflexive Closure</text>
</a>
</g>
</g>
<!-- Reflexive Relation&#45;&gt;Reflexive Closure -->
<g id="edge2" class="edge">
<title>Reflexive Relation&#45;&gt;Reflexive Closure</title>
<path fill="none" stroke="#ffffff" d="M127.23,-211.58C150.93,-209.16 177.25,-206.47 199.85,-204.17"/>
<polygon fill="#ffffff" stroke="#ffffff" points="126.84,-208.1 117.25,-212.6 127.55,-215.06 126.84,-208.1"/>
</g>
<!-- Relation of Equivalence -->
<g id="node4" class="node">
<title>Relation of Equivalence</title>
<g id="a_node4"><a xlink:href="../Relation of Equivalence.html" xlink:title="Relation of Equivalence" target="_parent">
<path fill="none" stroke="#b75867" d="M538,-133.49C538,-133.49 413,-133.49 413,-133.49 407,-133.49 401,-127.49 401,-121.49 401,-121.49 401,-109.49 401,-109.49 401,-103.49 407,-97.49 413,-97.49 413,-97.49 538,-97.49 538,-97.49 544,-97.49 550,-103.49 550,-109.49 550,-109.49 550,-121.49 550,-121.49 550,-127.49 544,-133.49 538,-133.49"/>
<text text-anchor="middle" x="475.5" y="-112.39" font-family="sans" font-size="12.00" fill="#c4c7c7">Relation of Equivalence</text>
</a>
</g>
</g>
<!-- Reflexive Relation&#45;&gt;Relation of Equivalence -->
<g id="edge3" class="edge">
<title>Reflexive Relation&#45;&gt;Relation of Equivalence</title>
<path fill="none" stroke="#ffffff" d="M86.61,-193.64C112.72,-171.44 154.43,-140.34 197,-126.49 263.48,-104.85 343.68,-104.2 400.72,-107.7"/>
<polygon fill="#ffffff" stroke="#ffffff" points="84.29,-191.02 79.02,-200.21 88.87,-196.31 84.29,-191.02"/>
</g>
<!-- Relations -->
<g id="node5" class="node">
<title>Relations</title>
<g id="a_node5"><a xlink:href="../Relations.html" xlink:title="Relations" target="_parent">
<path fill="none" stroke="#b75867" d="M381,-237.49C381,-237.49 336,-237.49 336,-237.49 330,-237.49 324,-231.49 324,-225.49 324,-225.49 324,-213.49 324,-213.49 324,-207.49 330,-201.49 336,-201.49 336,-201.49 381,-201.49 381,-201.49 387,-201.49 393,-207.49 393,-213.49 393,-213.49 393,-225.49 393,-225.49 393,-231.49 387,-237.49 381,-237.49"/>
<text text-anchor="middle" x="358.5" y="-216.39" font-family="sans" font-size="12.00" fill="#c4c7c7">Relations</text>
</a>
</g>
</g>
<!-- Reflexive Relation&#45;&gt;Relations -->
<g id="edge4" class="edge">
<title>Reflexive Relation&#45;&gt;Relations</title>
<path fill="none" stroke="#ffffff" d="M127.68,-218.72C189.01,-218.92 276.55,-219.22 323.92,-219.38"/>
<polygon fill="#ffffff" stroke="#ffffff" points="127.32,-215.22 117.31,-218.68 127.3,-222.22 127.32,-215.22"/>
</g>
<!-- Linear order -->
<g id="node6" class="node">
<title>Linear order</title>
<g id="a_node6"><a xlink:href="../Linear order.html" xlink:title="Linear order" target="_parent">
<path fill="none" stroke="#b75867" d="M506.5,-345.49C506.5,-345.49 444.5,-345.49 444.5,-345.49 438.5,-345.49 432.5,-339.49 432.5,-333.49 432.5,-333.49 432.5,-321.49 432.5,-321.49 432.5,-315.49 438.5,-309.49 444.5,-309.49 444.5,-309.49 506.5,-309.49 506.5,-309.49 512.5,-309.49 518.5,-315.49 518.5,-321.49 518.5,-321.49 518.5,-333.49 518.5,-333.49 518.5,-339.49 512.5,-345.49 506.5,-345.49"/>
<text text-anchor="middle" x="475.5" y="-324.39" font-family="sans" font-size="12.00" fill="#c4c7c7">Linear order</text>
</a>
</g>
</g>
<!-- Reflexive Relation&#45;&gt;Linear order -->
<g id="edge5" class="edge">
<title>Reflexive Relation&#45;&gt;Linear order</title>
<path fill="none" stroke="#ffffff" d="M78.2,-245.03C101.79,-275.95 145.55,-325.36 197,-345.49 238.7,-361.8 365.67,-345.02 432.44,-334.54"/>
<polygon fill="#ffffff" stroke="#ffffff" points="80.88,-242.77 72.09,-236.84 75.27,-246.95 80.88,-242.77"/>
</g>
<!-- Partial orders have no contours -->
<g id="node7" class="node">
<title>Partial orders have no contours</title>
<g id="a_node7"><a xlink:href="../Partial orders have no contours.html" xlink:title="Partial orders have no contours" target="_parent">
<path fill="none" stroke="#b75867" d="M950,-216.49C950,-216.49 781,-216.49 781,-216.49 775,-216.49 769,-210.49 769,-204.49 769,-204.49 769,-192.49 769,-192.49 769,-186.49 775,-180.49 781,-180.49 781,-180.49 950,-180.49 950,-180.49 956,-180.49 962,-186.49 962,-192.49 962,-192.49 962,-204.49 962,-204.49 962,-210.49 956,-216.49 950,-216.49"/>
<text text-anchor="middle" x="865.5" y="-195.39" font-family="sans" font-size="12.00" fill="#c4c7c7">Partial orders have no contours</text>
</a>
</g>
</g>
<!-- Reflexive Relation&#45;&gt;Partial orders have no contours -->
<g id="edge6" class="edge">
<title>Reflexive Relation&#45;&gt;Partial orders have no contours</title>
<path fill="none" stroke="#ffffff" d="M70.39,-191.18C89.1,-148.31 131.75,-66.29 197,-29.49 219.73,-16.67 229.41,-24.49 255.5,-24.49 255.5,-24.49 255.5,-24.49 476.5,-24.49 602.96,-24.49 651.22,33.29 761,-29.49 819.39,-62.88 848.96,-143.83 859.67,-180.23"/>
<polygon fill="#ffffff" stroke="#ffffff" points="67.14,-189.88 66.45,-200.45 73.58,-192.62 67.14,-189.88"/>
</g>
<!-- Partial order -->
<g id="node8" class="node">
<title>Partial order</title>
<g id="a_node8"><a xlink:href="../Partial order.html" xlink:title="Partial order" target="_parent">
<path fill="none" stroke="#b75867" d="M690.5,-345.49C690.5,-345.49 628.5,-345.49 628.5,-345.49 622.5,-345.49 616.5,-339.49 616.5,-333.49 616.5,-333.49 616.5,-321.49 616.5,-321.49 616.5,-315.49 622.5,-309.49 628.5,-309.49 628.5,-309.49 690.5,-309.49 690.5,-309.49 696.5,-309.49 702.5,-315.49 702.5,-321.49 702.5,-321.49 702.5,-333.49 702.5,-333.49 702.5,-339.49 696.5,-345.49 690.5,-345.49"/>
<text text-anchor="middle" x="659.5" y="-324.39" font-family="sans" font-size="12.00" fill="#c4c7c7">Partial order</text>
</a>
</g>
</g>
<!-- Reflexive Relation&#45;&gt;Partial order -->
<g id="edge7" class="edge">
<title>Reflexive Relation&#45;&gt;Partial order</title>
<path fill="none" stroke="#ffffff" d="M71.27,-245.89C82.25,-268.59 100.6,-300.29 125,-320.49 151.58,-342.49 163.13,-342.92 197,-349.49 349.18,-378.98 534.59,-351.41 616.34,-336.12"/>
<polygon fill="#ffffff" stroke="#ffffff" points="74.42,-244.36 67.02,-236.77 68.08,-247.31 74.42,-244.36"/>
</g>
<!-- Relation&#45;&gt;Reflexive Relation -->
<g id="edge12" class="edge">
<title>Relation&#45;&gt;Reflexive Relation</title>
<path fill="none" stroke="#ffffff" d="M115.16,-238.27C113.46,-237.69 111.74,-237.1 110.01,-236.51"/>
<polygon fill="#ffffff" stroke="#ffffff" points="114.15,-241.62 124.74,-241.51 116.39,-234.99 114.15,-241.62"/>
</g>
<!-- Relation&#45;&gt;Reflexive Closure -->
<g id="edge15" class="edge">
<title>Relation&#45;&gt;Reflexive Closure</title>
<path fill="none" stroke="#ffffff" d="M186.46,-227.25C189.91,-224.81 193.46,-222.49 197,-220.49 199.36,-219.15 201.82,-217.86 204.33,-216.63"/>
<polygon fill="#ffffff" stroke="#ffffff" points="184.07,-224.67 178.19,-233.49 188.28,-230.26 184.07,-224.67"/>
</g>
<!-- Relation&#45;&gt;Relation of Equivalence -->
<g id="edge17" class="edge">
<title>Relation&#45;&gt;Relation of Equivalence</title>
<path fill="none" stroke="#ffffff" d="M158.92,-223.21C161.47,-195.81 169.94,-155.43 197,-134.49 199.02,-132.93 319.31,-125.15 400.83,-120.04"/>
<polygon fill="#ffffff" stroke="#ffffff" points="155.42,-223.13 158.19,-233.35 162.4,-223.63 155.42,-223.13"/>
</g>
<!-- Relation&#45;&gt;Relations -->
<g id="edge20" class="edge">
<title>Relation&#45;&gt;Relations</title>
<path fill="none" stroke="#ffffff" d="M191.33,-228.62C193.21,-227.81 195.1,-227.09 197,-226.49 219.73,-219.29 283.71,-218.58 323.69,-218.91"/>
<polygon fill="#ffffff" stroke="#ffffff" points="189.52,-225.61 182.2,-233.27 192.7,-231.85 189.52,-225.61"/>
</g>
<!-- Relation&#45;&gt;Linear order -->
<g id="edge21" class="edge">
<title>Relation&#45;&gt;Linear order</title>
<path fill="none" stroke="#ffffff" d="M199.33,-265.59C250.77,-275.4 267.15,-265 316,-275.49 355.17,-283.9 362.91,-293.07 401,-305.49 411.13,-308.79 422.11,-312.18 432.41,-315.27"/>
<polygon fill="#ffffff" stroke="#ffffff" points="199.8,-262.12 189.3,-263.52 198.38,-268.97 199.8,-262.12"/>
</g>
<!-- Relation&#45;&gt;Partial order -->
<g id="edge23" class="edge">
<title>Relation&#45;&gt;Partial order</title>
<path fill="none" stroke="#ffffff" d="M161.78,-279.68C166.27,-300.91 176.01,-328.65 197,-342.49 213.37,-353.28 530.44,-343.83 550,-342.49 572.01,-340.97 596.35,-337.75 616.39,-334.68"/>
<polygon fill="#ffffff" stroke="#ffffff" points="165.18,-278.78 159.93,-269.57 158.29,-280.04 165.18,-278.78"/>
</g>
<!-- Descartes Product -->
<g id="node9" class="node">
<title>Descartes Product</title>
<g id="a_node9"><a xlink:href="../Descartes Product.html" xlink:title="Descartes Product" target="_parent">
<path fill="#273434" stroke="#b75867" d="M304,-345.49C304,-345.49 209,-345.49 209,-345.49 203,-345.49 197,-339.49 197,-333.49 197,-333.49 197,-321.49 197,-321.49 197,-315.49 203,-309.49 209,-309.49 209,-309.49 304,-309.49 304,-309.49 310,-309.49 316,-315.49 316,-321.49 316,-321.49 316,-333.49 316,-333.49 316,-339.49 310,-345.49 304,-345.49"/>
<text text-anchor="middle" x="256.5" y="-324.39" font-family="sans" font-size="12.00" fill="#c4c7c7">Descartes Product</text>
</a>
</g>
</g>
<!-- Relation&#45;&gt;Descartes Product -->
<g id="edge8" class="edge">
<title>Relation&#45;&gt;Descartes Product</title>
<path fill="none" stroke="#b75867" d="M167.44,-269.67C173.21,-279.48 181.39,-291.44 194.73,-303.02"/>
<polygon fill="#b75867" stroke="#b75867" points="192.7,-305.88 202.69,-309.41 197.08,-300.42 192.7,-305.88"/>
</g>
<!-- Anti&#45;symmetric Relation -->
<g id="node10" class="node">
<title>Anti&#45;symmetric Relation</title>
<g id="a_node10"><a xlink:href="../Anti-symmetric Relation.html" xlink:title="Anti&#45;symmetric Relation" target="_parent">
<path fill="none" stroke="#b75867" d="M929.5,-357.49C929.5,-357.49 801.5,-357.49 801.5,-357.49 795.5,-357.49 789.5,-351.49 789.5,-345.49 789.5,-345.49 789.5,-333.49 789.5,-333.49 789.5,-327.49 795.5,-321.49 801.5,-321.49 801.5,-321.49 929.5,-321.49 929.5,-321.49 935.5,-321.49 941.5,-327.49 941.5,-333.49 941.5,-333.49 941.5,-345.49 941.5,-345.49 941.5,-351.49 935.5,-357.49 929.5,-357.49"/>
<text text-anchor="middle" x="865.5" y="-336.39" font-family="sans" font-size="12.00" fill="#c4c7c7">Anti&#45;symmetric Relation</text>
</a>
</g>
</g>
<!-- Relation&#45;&gt;Anti&#45;symmetric Relation -->
<g id="edge9" class="edge">
<title>Relation&#45;&gt;Anti&#45;symmetric Relation</title>
<path fill="none" stroke="#ffffff" d="M161.43,-279.8C165.74,-301.75 175.4,-330.82 197,-345.49 221.94,-362.43 677.65,-352.11 761,-348.49 770.19,-348.09 779.83,-347.49 789.37,-346.79"/>
<polygon fill="#ffffff" stroke="#ffffff" points="164.84,-278.97 159.72,-269.69 157.94,-280.14 164.84,-278.97"/>
</g>
<!-- Symmetric Relation -->
<g id="node11" class="node">
<title>Symmetric Relation</title>
<g id="a_node11"><a xlink:href="../Symmetric Relation.html" xlink:title="Symmetric Relation" target="_parent">
<path fill="none" stroke="#b75867" d="M711.5,-216.49C711.5,-216.49 607.5,-216.49 607.5,-216.49 601.5,-216.49 595.5,-210.49 595.5,-204.49 595.5,-204.49 595.5,-192.49 595.5,-192.49 595.5,-186.49 601.5,-180.49 607.5,-180.49 607.5,-180.49 711.5,-180.49 711.5,-180.49 717.5,-180.49 723.5,-186.49 723.5,-192.49 723.5,-192.49 723.5,-204.49 723.5,-204.49 723.5,-210.49 717.5,-216.49 711.5,-216.49"/>
<text text-anchor="middle" x="659.5" y="-195.39" font-family="sans" font-size="12.00" fill="#c4c7c7">Symmetric Relation</text>
</a>
</g>
</g>
<!-- Relation&#45;&gt;Symmetric Relation -->
<g id="edge10" class="edge">
<title>Relation&#45;&gt;Symmetric Relation</title>
<path fill="none" stroke="#ffffff" d="M166.37,-223.83C172.44,-208.46 182.22,-190.3 197,-179.49 271.5,-124.98 309.1,-149.19 401,-140.49 433.96,-137.37 524.17,-119.77 550,-140.49 562.79,-150.74 546.39,-164.92 558,-176.49 568.06,-186.51 581.56,-192.43 595.4,-195.83"/>
<polygon fill="#ffffff" stroke="#ffffff" points="163.01,-222.83 162.9,-233.43 169.6,-225.21 163.01,-222.83"/>
</g>
<!-- Transitive Relation -->
<g id="node12" class="node">
<title>Transitive Relation</title>
<g id="a_node12"><a xlink:href="../Transitive Relation.html" xlink:title="Transitive Relation" target="_parent">
<path fill="none" stroke="#b75867" d="M1079,-293.49C1079,-293.49 982,-293.49 982,-293.49 976,-293.49 970,-287.49 970,-281.49 970,-281.49 970,-269.49 970,-269.49 970,-263.49 976,-257.49 982,-257.49 982,-257.49 1079,-257.49 1079,-257.49 1085,-257.49 1091,-263.49 1091,-269.49 1091,-269.49 1091,-281.49 1091,-281.49 1091,-287.49 1085,-293.49 1079,-293.49"/>
<text text-anchor="middle" x="1030.5" y="-272.39" font-family="sans" font-size="12.00" fill="#c4c7c7">Transitive Relation</text>
</a>
</g>
</g>
<!-- Relation&#45;&gt;Transitive Relation -->
<g id="edge11" class="edge">
<title>Relation&#45;&gt;Transitive Relation</title>
<path fill="none" stroke="#ffffff" d="M160.8,-279.73C164.74,-302.91 174.22,-334.43 197,-350.49 297.86,-421.58 351.1,-359.49 474.5,-359.49 474.5,-359.49 474.5,-359.49 660.5,-359.49 794.52,-359.49 840.76,-411.59 962,-354.49 988.93,-341.81 1009.19,-312.65 1020.18,-293.53"/>
<polygon fill="#ffffff" stroke="#ffffff" points="164.25,-279.15 159.35,-269.75 157.33,-280.15 164.25,-279.15"/>
</g>
<!-- Anti&#45;reflexive relation -->
<g id="node13" class="node">
<title>Anti&#45;reflexive relation</title>
<g id="a_node13"><a xlink:href="../Anti-reflexive relation.html" xlink:title="Anti&#45;reflexive relation" target="_parent">
<path fill="none" stroke="#b75867" d="M532.5,-305.49C532.5,-305.49 418.5,-305.49 418.5,-305.49 412.5,-305.49 406.5,-299.49 406.5,-293.49 406.5,-293.49 406.5,-281.49 406.5,-281.49 406.5,-275.49 412.5,-269.49 418.5,-269.49 418.5,-269.49 532.5,-269.49 532.5,-269.49 538.5,-269.49 544.5,-275.49 544.5,-281.49 544.5,-281.49 544.5,-293.49 544.5,-293.49 544.5,-299.49 538.5,-305.49 532.5,-305.49"/>
<text text-anchor="middle" x="475.5" y="-284.39" font-family="sans" font-size="12.00" fill="#c4c7c7">Anti&#45;reflexive relation</text>
</a>
</g>
</g>
<!-- Relation&#45;&gt;Anti&#45;reflexive relation -->
<g id="edge13" class="edge">
<title>Relation&#45;&gt;Anti&#45;reflexive relation</title>
<path fill="none" stroke="#ffffff" d="M199.01,-258.54C285.39,-267.89 309.69,-258.03 393,-269.49 397.31,-270.08 401.72,-270.78 406.16,-271.56"/>
<polygon fill="#ffffff" stroke="#ffffff" points="199.36,-255.06 189.03,-257.41 198.57,-262.02 199.36,-255.06"/>
</g>
<!-- Strongly Anti&#45;symmetric Relation -->
<g id="node14" class="node">
<title>Strongly Anti&#45;symmetric Relation</title>
<g id="a_node14"><a xlink:href="../Strongly Anti-symmetric Relation.html" xlink:title="Strongly Anti&#45;symmetric Relation" target="_parent">
<path fill="none" stroke="#b75867" d="M749,-302.49C749,-302.49 570,-302.49 570,-302.49 564,-302.49 558,-296.49 558,-290.49 558,-290.49 558,-278.49 558,-278.49 558,-272.49 564,-266.49 570,-266.49 570,-266.49 749,-266.49 749,-266.49 755,-266.49 761,-272.49 761,-278.49 761,-278.49 761,-290.49 761,-290.49 761,-296.49 755,-302.49 749,-302.49"/>
<text text-anchor="middle" x="659.5" y="-281.39" font-family="sans" font-size="12.00" fill="#c4c7c7">Strongly Anti&#45;symmetric Relation</text>
</a>
</g>
</g>
<!-- Relation&#45;&gt;Strongly Anti&#45;symmetric Relation -->
<g id="edge14" class="edge">
<title>Relation&#45;&gt;Strongly Anti&#45;symmetric Relation</title>
<path fill="none" stroke="#ffffff" d="M199.59,-261.21C244.56,-265.01 377.36,-265.07 393,-277.49 402.13,-284.74 391.58,-295.61 401,-302.49 427.74,-322.01 517,-305.21 550,-302.49 552.57,-302.28 555.17,-302.04 557.79,-301.77"/>
<polygon fill="#ffffff" stroke="#ffffff" points="199.74,-257.71 189.4,-260.03 198.93,-264.66 199.74,-257.71"/>
</g>
<!-- Symmetric Closure -->
<g id="node15" class="node">
<title>Symmetric Closure</title>
<g id="a_node15"><a xlink:href="../Symmetric Closure.html" xlink:title="Symmetric Closure" target="_parent">
<path fill="none" stroke="#b75867" d="M525,-268.49C525,-268.49 426,-268.49 426,-268.49 420,-268.49 414,-262.49 414,-256.49 414,-256.49 414,-244.49 414,-244.49 414,-238.49 420,-232.49 426,-232.49 426,-232.49 525,-232.49 525,-232.49 531,-232.49 537,-238.49 537,-244.49 537,-244.49 537,-256.49 537,-256.49 537,-262.49 531,-268.49 525,-268.49"/>
<text text-anchor="middle" x="475.5" y="-247.39" font-family="sans" font-size="12.00" fill="#c4c7c7">Symmetric Closure</text>
</a>
</g>
</g>
<!-- Relation&#45;&gt;Symmetric Closure -->
<g id="edge16" class="edge">
<title>Relation&#45;&gt;Symmetric Closure</title>
<path fill="none" stroke="#ffffff" d="M199.21,-256.45C278.55,-260.98 359.85,-257.91 413.81,-254.78"/>
<polygon fill="#ffffff" stroke="#ffffff" points="199.24,-252.95 189.05,-255.83 198.81,-259.94 199.24,-252.95"/>
</g>
<!-- Chain -->
<g id="node16" class="node">
<title>Chain</title>
<g id="a_node16"><a xlink:href="../Chain.html" xlink:title="Chain" target="_parent">
<path fill="none" stroke="#b75867" d="M1045.5,-187.49C1045.5,-187.49 1015.5,-187.49 1015.5,-187.49 1009.5,-187.49 1003.5,-181.49 1003.5,-175.49 1003.5,-175.49 1003.5,-163.49 1003.5,-163.49 1003.5,-157.49 1009.5,-151.49 1015.5,-151.49 1015.5,-151.49 1045.5,-151.49 1045.5,-151.49 1051.5,-151.49 1057.5,-157.49 1057.5,-163.49 1057.5,-163.49 1057.5,-175.49 1057.5,-175.49 1057.5,-181.49 1051.5,-187.49 1045.5,-187.49"/>
<text text-anchor="middle" x="1030.5" y="-166.39" font-family="sans" font-size="12.00" fill="#c4c7c7">Chain</text>
</a>
</g>
</g>
<!-- Relation&#45;&gt;Chain -->
<g id="edge18" class="edge">
<title>Relation&#45;&gt;Chain</title>
<path fill="none" stroke="#ffffff" d="M161.08,-223.04C165.27,-195.84 174.97,-154.86 197,-126.49 248.4,-60.29 273.69,-27.49 357.5,-27.49 357.5,-27.49 357.5,-27.49 660.5,-27.49 705.22,-27.49 717.79,-20.96 761,-32.49 856.56,-57.99 957.37,-120.51 1003.59,-151.49"/>
<polygon fill="#ffffff" stroke="#ffffff" points="157.6,-222.7 159.69,-233.09 164.53,-223.66 157.6,-222.7"/>
</g>
<!-- Partial function -->
<g id="node17" class="node">
<title>Partial function</title>
<g id="a_node17"><a xlink:href="../Partial function.html" xlink:title="Partial function" target="_parent">
<path fill="none" stroke="#b75867" d="M296,-308.49C296,-308.49 217,-308.49 217,-308.49 211,-308.49 205,-302.49 205,-296.49 205,-296.49 205,-284.49 205,-284.49 205,-278.49 211,-272.49 217,-272.49 217,-272.49 296,-272.49 296,-272.49 302,-272.49 308,-278.49 308,-284.49 308,-284.49 308,-296.49 308,-296.49 308,-302.49 302,-308.49 296,-308.49"/>
<text text-anchor="middle" x="256.5" y="-287.39" font-family="sans" font-size="12.00" fill="#c4c7c7">Partial function</text>
</a>
</g>
</g>
<!-- Relation&#45;&gt;Partial function -->
<g id="edge19" class="edge">
<title>Relation&#45;&gt;Partial function</title>
<path fill="none" stroke="#ffffff" d="M198.41,-269.03C202.61,-270.74 204.75,-271.59 206.9,-272.43"/>
<polygon fill="#ffffff" stroke="#ffffff" points="199.6,-265.74 189.02,-265.18 196.94,-272.21 199.6,-265.74"/>
</g>
<!-- Total function -->
<g id="node18" class="node">
<title>Total function</title>
<g id="a_node18"><a xlink:href="../Total function.html" xlink:title="Total function" target="_parent">
<path fill="none" stroke="#b75867" d="M292,-259.49C292,-259.49 221,-259.49 221,-259.49 215,-259.49 209,-253.49 209,-247.49 209,-247.49 209,-235.49 209,-235.49 209,-229.49 215,-223.49 221,-223.49 221,-223.49 292,-223.49 292,-223.49 298,-223.49 304,-229.49 304,-235.49 304,-235.49 304,-247.49 304,-247.49 304,-253.49 298,-259.49 292,-259.49"/>
<text text-anchor="middle" x="256.5" y="-238.39" font-family="sans" font-size="12.00" fill="#c4c7c7">Total function</text>
</a>
</g>
</g>
<!-- Relation&#45;&gt;Total function -->
<g id="edge22" class="edge">
<title>Relation&#45;&gt;Total function</title>
<path fill="none" stroke="#ffffff" d="M199.37,-247.25C202.45,-246.93 205.57,-246.61 208.69,-246.29"/>
<polygon fill="#ffffff" stroke="#ffffff" points="198.71,-243.8 189.12,-248.3 199.42,-250.76 198.71,-243.8"/>
</g>
<!-- Reflexive Closure&#45;&gt;Reflexive Relation -->
<g id="edge27" class="edge">
<title>Reflexive Closure&#45;&gt;Reflexive Relation</title>
<path fill="none" stroke="#b75867" d="M199.85,-204.85C177.25,-207.23 150.93,-209.93 127.23,-212.3"/>
<polygon fill="#b75867" stroke="#b75867" points="126.85,-208.82 117.25,-213.29 127.54,-215.78 126.85,-208.82"/>
</g>
<!-- Reflexive Closure&#45;&gt;Relation -->
<g id="edge25" class="edge">
<title>Reflexive Closure&#45;&gt;Relation</title>
<path fill="none" stroke="#b75867" d="M206.45,-216.61C203.2,-218.15 200.02,-219.78 197,-221.49 193.9,-223.25 190.78,-225.25 187.74,-227.35"/>
<polygon fill="#b75867" stroke="#b75867" points="185.39,-224.73 179.42,-233.49 189.54,-230.37 185.39,-224.73"/>
</g>
<!-- Reflexive Closure&#45;&gt;Relations -->
<g id="edge28" class="edge">
<title>Reflexive Closure&#45;&gt;Relations</title>
<path fill="none" stroke="#ffffff" d="M322.92,-211.51C323.25,-211.58 323.58,-211.65 323.91,-211.72"/>
<polygon fill="#ffffff" stroke="#ffffff" points="323.57,-208.07 313.06,-209.41 322.11,-214.92 323.57,-208.07"/>
</g>
<!-- Reflexive Closure&#45;&gt;Relations -->
<g id="edge29" class="edge">
<title>Reflexive Closure&#45;&gt;Relations</title>
<path fill="none" stroke="#ffffff" d="M322.92,-212.23C323.25,-212.3 323.58,-212.37 323.91,-212.44"/>
<polygon fill="#ffffff" stroke="#ffffff" points="323.56,-208.79 313.06,-210.16 322.12,-215.64 323.56,-208.79"/>
</g>
<!-- Matrix -->
<g id="node19" class="node">
<title>Matrix</title>
<g id="a_node19"><a xlink:href="../Matrix.html" xlink:title="Matrix" target="_parent">
<path fill="#273434" stroke="#b75867" d="M373.5,-200.49C373.5,-200.49 343.5,-200.49 343.5,-200.49 337.5,-200.49 331.5,-194.49 331.5,-188.49 331.5,-188.49 331.5,-176.49 331.5,-176.49 331.5,-170.49 337.5,-164.49 343.5,-164.49 343.5,-164.49 373.5,-164.49 373.5,-164.49 379.5,-164.49 385.5,-170.49 385.5,-176.49 385.5,-176.49 385.5,-188.49 385.5,-188.49 385.5,-194.49 379.5,-200.49 373.5,-200.49"/>
<text text-anchor="middle" x="358.5" y="-179.39" font-family="sans" font-size="12.00" fill="#c4c7c7">Matrix</text>
</a>
</g>
</g>
<!-- Reflexive Closure&#45;&gt;Matrix -->
<g id="edge24" class="edge">
<title>Reflexive Closure&#45;&gt;Matrix</title>
<path fill="none" stroke="#b75867" d="M313.06,-189.6C315.81,-189.16 318.54,-188.72 321.21,-188.29"/>
<polygon fill="#b75867" stroke="#b75867" points="321.85,-191.74 331.18,-186.7 320.75,-184.82 321.85,-191.74"/>
</g>
<!-- Set -->
<g id="node20" class="node">
<title>Set</title>
<g id="a_node20"><a xlink:href="../Set.html" xlink:title="Set" target="_parent">
<path fill="#273434" stroke="#b75867" d="M674.5,-65.49C674.5,-65.49 644.5,-65.49 644.5,-65.49 638.5,-65.49 632.5,-59.49 632.5,-53.49 632.5,-53.49 632.5,-41.49 632.5,-41.49 632.5,-35.49 638.5,-29.49 644.5,-29.49 644.5,-29.49 674.5,-29.49 674.5,-29.49 680.5,-29.49 686.5,-35.49 686.5,-41.49 686.5,-41.49 686.5,-53.49 686.5,-53.49 686.5,-59.49 680.5,-65.49 674.5,-65.49"/>
<text text-anchor="middle" x="659.5" y="-44.39" font-family="sans" font-size="12.00" fill="#c4c7c7">Set</text>
</a>
</g>
</g>
<!-- Reflexive Closure&#45;&gt;Set -->
<g id="edge26" class="edge">
<title>Reflexive Closure&#45;&gt;Set</title>
<path fill="none" stroke="#b75867" d="M277.18,-180.22C303.36,-156.97 352.08,-117.35 401,-96.49 475.45,-64.75 570.74,-53.46 621.97,-49.53"/>
<polygon fill="#b75867" stroke="#b75867" points="622.49,-53 632.22,-48.79 621.99,-46.02 622.49,-53"/>
</g>
<!-- Relation of Equivalence&#45;&gt;Reflexive Relation -->
<g id="edge35" class="edge">
<title>Relation of Equivalence&#45;&gt;Reflexive Relation</title>
<path fill="none" stroke="#b75867" d="M400.72,-108.51C343.68,-105.2 263.48,-105.85 197,-127.49 154.92,-141.18 113.69,-171.71 87.53,-193.64"/>
<polygon fill="#b75867" stroke="#b75867" points="85.24,-190.99 79.91,-200.14 89.79,-196.31 85.24,-190.99"/>
</g>
<!-- Relation of Equivalence&#45;&gt;Relation -->
<g id="edge36" class="edge">
<title>Relation of Equivalence&#45;&gt;Relation</title>
<path fill="none" stroke="#b75867" d="M400.83,-120.75C319.31,-126.15 199.02,-133.93 197,-135.49 170.24,-156.2 161.66,-195.92 159.01,-223.06"/>
<polygon fill="#b75867" stroke="#b75867" points="155.51,-222.89 158.24,-233.13 162.49,-223.42 155.51,-222.89"/>
</g>
<!-- Relation of Equivalence&#45;&gt;Relations -->
<g id="edge38" class="edge">
<title>Relation of Equivalence&#45;&gt;Relations</title>
<path fill="none" stroke="#ffffff" d="M399.87,-141.98C388.44,-162.83 405.69,-178.29 393,-198.49 392.41,-199.43 391.76,-200.34 391.06,-201.22"/>
<polygon fill="#ffffff" stroke="#ffffff" points="402.81,-143.88 405.77,-133.71 397.11,-139.81 402.81,-143.88"/>
</g>
<!-- Relation of Equivalence&#45;&gt;Symmetric Relation -->
<g id="edge34" class="edge">
<title>Relation of Equivalence&#45;&gt;Symmetric Relation</title>
<path fill="none" stroke="#b75867" d="M545.99,-133.61C547.4,-134.82 548.74,-136.11 550,-137.49 561.95,-150.54 545.57,-163.89 558,-176.49 565.64,-184.23 575.32,-189.53 585.65,-193.12"/>
<polygon fill="#b75867" stroke="#b75867" points="584.7,-196.48 595.28,-195.95 586.67,-189.77 584.7,-196.48"/>
</g>
<!-- Relation of Equivalence&#45;&gt;Transitive Relation -->
<g id="edge33" class="edge">
<title>Relation of Equivalence&#45;&gt;Transitive Relation</title>
<path fill="none" stroke="#b75867" d="M541.65,-133.52C547.15,-134.66 552.66,-135.68 558,-136.49 580.33,-139.88 744.49,-131.09 761,-146.49 782.93,-166.94 747.1,-193.01 769,-213.49 784.68,-228.15 941.86,-216.04 962,-223.49 977.67,-229.28 992.65,-240.08 1004.5,-250.35"/>
<polygon fill="#b75867" stroke="#b75867" points="1002.41,-253.18 1012.18,-257.3 1007.11,-247.99 1002.41,-253.18"/>
</g>
<!-- Relation of Equivalence&#45;&gt;Set -->
<g id="edge31" class="edge">
<title>Relation of Equivalence&#45;&gt;Set</title>
<path fill="none" stroke="#b75867" d="M503.78,-97.37C519.15,-87.87 539.03,-76.73 558,-69.49 578.65,-61.61 602.82,-56.2 622.28,-52.72"/>
<polygon fill="#b75867" stroke="#b75867" points="623,-56.15 632.27,-51.03 621.83,-49.25 623,-56.15"/>
</g>
<!-- Class of equivalence -->
<g id="node21" class="node">
<title>Class of equivalence</title>
<g id="a_node21"><a xlink:href="../Class of equivalence.html" xlink:title="Class of equivalence" target="_parent">
<path fill="#273434" stroke="#b75867" d="M713,-179.49C713,-179.49 606,-179.49 606,-179.49 600,-179.49 594,-173.49 594,-167.49 594,-167.49 594,-155.49 594,-155.49 594,-149.49 600,-143.49 606,-143.49 606,-143.49 713,-143.49 713,-143.49 719,-143.49 725,-149.49 725,-155.49 725,-155.49 725,-167.49 725,-167.49 725,-173.49 719,-179.49 713,-179.49"/>
<text text-anchor="middle" x="659.5" y="-158.39" font-family="sans" font-size="12.00" fill="#c4c7c7">Class of equivalence</text>
</a>
</g>
</g>
<!-- Relation of Equivalence&#45;&gt;Class of equivalence -->
<g id="edge30" class="edge">
<title>Relation of Equivalence&#45;&gt;Class of equivalence</title>
<path fill="none" stroke="#b75867" d="M536.01,-133.54C543.39,-135.63 550.86,-137.66 558,-139.49 566.36,-141.63 575.14,-143.75 583.89,-145.78"/>
<polygon fill="#b75867" stroke="#b75867" points="583.21,-149.21 593.73,-148.02 584.76,-142.38 583.21,-149.21"/>
</g>
<!-- Partition -->
<g id="node22" class="node">
<title>Partition</title>
<g id="a_node22"><a xlink:href="../Partition.html" xlink:title="Partition" target="_parent">
<path fill="#273434" stroke="#b75867" d="M680,-102.49C680,-102.49 639,-102.49 639,-102.49 633,-102.49 627,-96.49 627,-90.49 627,-90.49 627,-78.49 627,-78.49 627,-72.49 633,-66.49 639,-66.49 639,-66.49 680,-66.49 680,-66.49 686,-66.49 692,-72.49 692,-78.49 692,-78.49 692,-90.49 692,-90.49 692,-96.49 686,-102.49 680,-102.49"/>
<text text-anchor="middle" x="659.5" y="-81.39" font-family="sans" font-size="12.00" fill="#c4c7c7">Partition</text>
</a>
</g>
</g>
<!-- Relation of Equivalence&#45;&gt;Partition -->
<g id="edge32" class="edge">
<title>Relation of Equivalence&#45;&gt;Partition</title>
<path fill="none" stroke="#b75867" d="M550,-102.97C572.68,-99.11 596.88,-94.99 616.65,-91.62"/>
<polygon fill="#b75867" stroke="#b75867" points="617.28,-95.06 626.55,-89.93 616.1,-88.16 617.28,-95.06"/>
</g>
<!-- Principle of division -->
<g id="node23" class="node">
<title>Principle of division</title>
<g id="a_node23"><a xlink:href="../Principle of division.html" xlink:title="Principle of division" target="_parent">
<path fill="none" stroke="#b75867" d="M710.5,-139.49C710.5,-139.49 608.5,-139.49 608.5,-139.49 602.5,-139.49 596.5,-133.49 596.5,-127.49 596.5,-127.49 596.5,-115.49 596.5,-115.49 596.5,-109.49 602.5,-103.49 608.5,-103.49 608.5,-103.49 710.5,-103.49 710.5,-103.49 716.5,-103.49 722.5,-109.49 722.5,-115.49 722.5,-115.49 722.5,-127.49 722.5,-127.49 722.5,-133.49 716.5,-139.49 710.5,-139.49"/>
<text text-anchor="middle" x="659.5" y="-118.39" font-family="sans" font-size="12.00" fill="#c4c7c7">Principle of division</text>
</a>
</g>
</g>
<!-- Relation of Equivalence&#45;&gt;Principle of division -->
<g id="edge37" class="edge">
<title>Relation of Equivalence&#45;&gt;Principle of division</title>
<path fill="none" stroke="#ffffff" d="M560.18,-118.25C572.37,-118.65 584.74,-119.06 596.4,-119.44"/>
<polygon fill="#ffffff" stroke="#ffffff" points="560.11,-114.74 550,-117.91 559.88,-121.74 560.11,-114.74"/>
</g>
<!-- Relations&#45;&gt;Reflexive Relation -->
<g id="edge56" class="edge">
<title>Relations&#45;&gt;Reflexive Relation</title>
<path fill="none" stroke="#b75867" d="M323.92,-219.87C276.55,-219.99 189.01,-219.75 127.68,-219.36"/>
<polygon fill="#b75867" stroke="#b75867" points="127.33,-215.86 117.31,-219.29 127.29,-222.86 127.33,-215.86"/>
</g>
<!-- Relations&#45;&gt;Relation -->
<g id="edge57" class="edge">
<title>Relations&#45;&gt;Relation</title>
<path fill="none" stroke="#b75867" d="M323.69,-219.61C283.71,-219.58 219.73,-220.29 197,-227.49 195.75,-227.89 194.5,-228.33 193.26,-228.82"/>
<polygon fill="#b75867" stroke="#b75867" points="191.44,-225.81 183.92,-233.27 194.45,-232.13 191.44,-225.81"/>
</g>
<!-- Relations&#45;&gt;Reflexive Closure -->
<g id="edge47" class="edge">
<title>Relations&#45;&gt;Reflexive Closure</title>
<path fill="none" stroke="#b75867" d="M323.91,-213.15C323.58,-213.08 323.25,-213.01 322.92,-212.94"/>
<polygon fill="#b75867" stroke="#b75867" points="323.56,-209.5 313.06,-210.9 322.14,-216.36 323.56,-209.5"/>
</g>
<!-- Relations&#45;&gt;Reflexive Closure -->
<g id="edge50" class="edge">
<title>Relations&#45;&gt;Reflexive Closure</title>
<path fill="none" stroke="#b75867" d="M323.91,-213.86C323.58,-213.79 323.25,-213.73 322.92,-213.66"/>
<polygon fill="#b75867" stroke="#b75867" points="323.55,-210.22 313.06,-211.65 322.15,-217.08 323.55,-210.22"/>
</g>
<!-- Relations&#45;&gt;Relation of Equivalence -->
<g id="edge44" class="edge">
<title>Relations&#45;&gt;Relation of Equivalence</title>
<path fill="none" stroke="#b75867" d="M390.26,-201.2C391.26,-200.02 392.19,-198.78 393,-197.49 405.64,-177.38 388.59,-161.97 399.1,-141.8"/>
<polygon fill="#b75867" stroke="#b75867" points="402.04,-143.7 404.88,-133.5 396.3,-139.71 402.04,-143.7"/>
</g>
<!-- Relations&#45;&gt;Linear order -->
<g id="edge41" class="edge">
<title>Relations&#45;&gt;Linear order</title>
<path fill="none" stroke="#b75867" d="M373.98,-237.53C380.65,-246.65 388.15,-258.15 393,-269.49 399.45,-284.56 389.84,-293.49 401,-305.49 406.87,-311.8 414.46,-316.32 422.54,-319.56"/>
<polygon fill="#b75867" stroke="#b75867" points="421.57,-322.93 432.17,-322.81 423.81,-316.3 421.57,-322.93"/>
</g>
<!-- Relations&#45;&gt;Partial order -->
<g id="edge42" class="edge">
<title>Relations&#45;&gt;Partial order</title>
<path fill="none" stroke="#b75867" d="M393.45,-224.61C396,-224.93 398.54,-225.23 401,-225.49 417.5,-227.23 537.98,-224.05 550,-235.49 572.05,-256.46 537.78,-280.75 558,-303.49 570.11,-317.1 588.43,-323.69 606.12,-326.69"/>
<polygon fill="#b75867" stroke="#b75867" points="606.04,-330.21 616.42,-328.06 606.97,-323.27 606.04,-330.21"/>
</g>
<!-- Relations&#45;&gt;Anti&#45;symmetric Relation -->
<g id="edge53" class="edge">
<title>Relations&#45;&gt;Anti&#45;symmetric Relation</title>
<path fill="none" stroke="#b75867" d="M359.35,-237.89C360.25,-266.42 366.67,-320.65 401,-345.49 417.2,-357.21 741.01,-346.07 761,-345.49 766.88,-345.32 772.94,-345.09 779.05,-344.83"/>
<polygon fill="#b75867" stroke="#b75867" points="779.51,-348.31 789.34,-344.36 779.19,-341.32 779.51,-348.31"/>
</g>
<!-- Relations&#45;&gt;Symmetric Relation -->
<g id="edge54" class="edge">
<title>Relations&#45;&gt;Symmetric Relation</title>
<path fill="none" stroke="#b75867" d="M393.29,-219.5C431.42,-219.27 495.27,-218.12 550,-213.49 561.36,-212.53 573.35,-211.19 585.04,-209.72"/>
<polygon fill="#b75867" stroke="#b75867" points="585.77,-213.15 595.23,-208.38 584.86,-206.21 585.77,-213.15"/>
</g>
<!-- Relations&#45;&gt;Transitive Relation -->
<g id="edge51" class="edge">
<title>Relations&#45;&gt;Transitive Relation</title>
<path fill="none" stroke="#b75867" d="M393.17,-218.84C462.3,-217.85 625.14,-217.31 761,-230.49 828.95,-237.08 905.7,-250.56 959.69,-261.06"/>
<polygon fill="#b75867" stroke="#b75867" points="959.34,-264.56 969.83,-263.05 960.69,-257.69 959.34,-264.56"/>
</g>
<!-- Relations&#45;&gt;Anti&#45;reflexive relation -->
<g id="edge55" class="edge">
<title>Relations&#45;&gt;Anti&#45;reflexive relation</title>
<path fill="none" stroke="#b75867" d="M372.23,-237.88C378.36,-245.72 386.34,-254.62 399.08,-263.67"/>
<polygon fill="#b75867" stroke="#b75867" points="397.38,-266.74 407.65,-269.31 401.23,-260.89 397.38,-266.74"/>
</g>
<!-- Relations&#45;&gt;Strongly Anti&#45;symmetric Relation -->
<g id="edge52" class="edge">
<title>Relations&#45;&gt;Strongly Anti&#45;symmetric Relation</title>
<path fill="none" stroke="#b75867" d="M393.02,-221.93C395.72,-222.12 398.41,-222.31 401,-222.49 467.21,-227.1 485.81,-215.62 550,-232.49 574.35,-238.89 599.83,-250.79 619.97,-261.59"/>
<polygon fill="#b75867" stroke="#b75867" points="618.37,-264.71 628.82,-266.46 621.74,-258.57 618.37,-264.71"/>
</g>
<!-- Relations&#45;&gt;Symmetric Closure -->
<g id="edge46" class="edge">
<title>Relations&#45;&gt;Symmetric Closure</title>
<path fill="none" stroke="#b75867" d="M393.07,-228.54C396.52,-229.47 400.12,-230.44 403.78,-231.43"/>
<polygon fill="#b75867" stroke="#b75867" points="403.06,-234.86 413.62,-234.08 404.88,-228.1 403.06,-234.86"/>
</g>
<!-- Relations&#45;&gt;Symmetric Closure -->
<g id="edge48" class="edge">
<title>Relations&#45;&gt;Symmetric Closure</title>
<path fill="none" stroke="#b75867" d="M393.07,-229.23C396.52,-230.18 400.12,-231.16 403.78,-232.16"/>
<polygon fill="#b75867" stroke="#b75867" points="403.06,-235.59 413.62,-234.83 404.89,-228.83 403.06,-235.59"/>
</g>
<!-- Relations&#45;&gt;Chain -->
<g id="edge39" class="edge">
<title>Relations&#45;&gt;Chain</title>
<path fill="none" stroke="#b75867" d="M390.23,-201.18C391.25,-200.01 392.18,-198.78 393,-197.49 406.06,-177.04 382.63,-159.34 401,-143.49 413.54,-132.67 537.65,-132.47 550,-143.49 573.37,-164.34 534.63,-192.64 558,-213.49 566.42,-221 752.06,-220.36 761,-213.49 771.94,-205.08 758.29,-192.19 769,-183.49 833.25,-131.33 938.49,-146.5 993.48,-159.45"/>
<polygon fill="#b75867" stroke="#b75867" points="992.91,-162.92 1003.46,-161.91 994.59,-156.12 992.91,-162.92"/>
</g>
<!-- Relations&#45;&gt;Class of equivalence -->
<g id="edge43" class="edge">
<title>Relations&#45;&gt;Class of equivalence</title>
<path fill="none" stroke="#b75867" d="M393.39,-219.98C444.85,-220.42 538.01,-219.89 550,-210.49 559.85,-202.77 548.83,-192.01 558,-183.49 565.41,-176.6 574.45,-171.68 584.05,-168.2"/>
<polygon fill="#b75867" stroke="#b75867" points="585.28,-171.49 593.8,-165.18 583.21,-164.8 585.28,-171.49"/>
</g>
<!-- Linear extension -->
<g id="node24" class="node">
<title>Linear extension</title>
<g id="a_node24"><a xlink:href="../Linear extension.html" xlink:title="Linear extension" target="_parent">
<path fill="#273434" stroke="#b75867" d="M908.5,-305.49C908.5,-305.49 822.5,-305.49 822.5,-305.49 816.5,-305.49 810.5,-299.49 810.5,-293.49 810.5,-293.49 810.5,-281.49 810.5,-281.49 810.5,-275.49 816.5,-269.49 822.5,-269.49 822.5,-269.49 908.5,-269.49 908.5,-269.49 914.5,-269.49 920.5,-275.49 920.5,-281.49 920.5,-281.49 920.5,-293.49 920.5,-293.49 920.5,-299.49 914.5,-305.49 908.5,-305.49"/>
<text text-anchor="middle" x="865.5" y="-284.39" font-family="sans" font-size="12.00" fill="#c4c7c7">Linear extension</text>
</a>
</g>
</g>
<!-- Relations&#45;&gt;Linear extension -->
<g id="edge40" class="edge">
<title>Relations&#45;&gt;Linear extension</title>
<path fill="none" stroke="#b75867" d="M393.33,-220.03C431.49,-220.92 495.37,-223.29 550,-229.49 644.6,-240.23 667.45,-248.8 761,-266.49 773.78,-268.9 787.42,-271.59 800.46,-274.22"/>
<polygon fill="#b75867" stroke="#b75867" points="799.8,-277.66 810.3,-276.21 801.19,-270.8 799.8,-277.66"/>
</g>
<!-- Transitive Closure -->
<g id="node25" class="node">
<title>Transitive Closure</title>
<g id="a_node25"><a xlink:href="../Transitive Closure.html" xlink:title="Transitive Closure" target="_parent">
<path fill="#273434" stroke="#b75867" d="M521.5,-176.49C521.5,-176.49 429.5,-176.49 429.5,-176.49 423.5,-176.49 417.5,-170.49 417.5,-164.49 417.5,-164.49 417.5,-152.49 417.5,-152.49 417.5,-146.49 423.5,-140.49 429.5,-140.49 429.5,-140.49 521.5,-140.49 521.5,-140.49 527.5,-140.49 533.5,-146.49 533.5,-152.49 533.5,-152.49 533.5,-164.49 533.5,-164.49 533.5,-170.49 527.5,-176.49 521.5,-176.49"/>
<text text-anchor="middle" x="475.5" y="-155.39" font-family="sans" font-size="12.00" fill="#c4c7c7">Transitive Closure</text>
</a>
</g>
</g>
<!-- Relations&#45;&gt;Transitive Closure -->
<g id="edge45" class="edge">
<title>Relations&#45;&gt;Transitive Closure</title>
<path fill="none" stroke="#b75867" d="M389.16,-201.43C390.52,-200.17 391.81,-198.86 393,-197.49 398.47,-191.18 394.67,-185.94 401,-180.49 403.35,-178.47 405.87,-176.63 408.53,-174.97"/>
<polygon fill="#b75867" stroke="#b75867" points="410.24,-178.02 417.38,-170.2 406.91,-171.86 410.24,-178.02"/>
</g>
<!-- Relations&#45;&gt;Transitive Closure -->
<g id="edge49" class="edge">
<title>Relations&#45;&gt;Transitive Closure</title>
<path fill="none" stroke="#b75867" d="M390.4,-201.25C391.31,-200.36 392.18,-199.43 393,-198.49 398.47,-192.18 394.67,-186.94 401,-181.49 403.35,-179.47 405.87,-177.63 408.53,-175.97"/>
<polygon fill="#b75867" stroke="#b75867" points="410.24,-179.02 417.38,-171.19 406.92,-172.86 410.24,-179.02"/>
</g>
<!-- Discrete Structures -->
<g id="node26" class="node">
<title>Discrete Structures</title>
<g id="a_node26"><a xlink:href="../Discrete Structures.html" xlink:title="Discrete Structures" target="_parent">
<path fill="none" stroke="#b75867" d="M524.5,-213.49C524.5,-213.49 426.5,-213.49 426.5,-213.49 420.5,-213.49 414.5,-207.49 414.5,-201.49 414.5,-201.49 414.5,-189.49 414.5,-189.49 414.5,-183.49 420.5,-177.49 426.5,-177.49 426.5,-177.49 524.5,-177.49 524.5,-177.49 530.5,-177.49 536.5,-183.49 536.5,-189.49 536.5,-189.49 536.5,-201.49 536.5,-201.49 536.5,-207.49 530.5,-213.49 524.5,-213.49"/>
<text text-anchor="middle" x="475.5" y="-192.39" font-family="sans" font-size="12.00" fill="#c4c7c7">Discrete Structures</text>
</a>
</g>
</g>
<!-- Relations&#45;&gt;Discrete Structures -->
<g id="edge58" class="edge">
<title>Relations&#45;&gt;Discrete Structures</title>
<path fill="none" stroke="#ffffff" d="M402.89,-210.43C406.69,-209.64 410.58,-208.83 414.49,-208.01"/>
<polygon fill="#ffffff" stroke="#ffffff" points="402.15,-207.01 393.07,-212.48 403.58,-213.87 402.15,-207.01"/>
</g>
<!-- Linear order&#45;&gt;Reflexive Relation -->
<g id="edge62" class="edge">
<title>Linear order&#45;&gt;Reflexive Relation</title>
<path fill="none" stroke="#b75867" d="M432.44,-335.16C365.67,-346.02 238.7,-362.8 197,-346.49 144.99,-326.15 100.85,-275.89 77.45,-244.74"/>
<polygon fill="#b75867" stroke="#b75867" points="80.14,-242.5 71.41,-236.5 74.5,-246.64 80.14,-242.5"/>
</g>
<!-- Linear order&#45;&gt;Relation -->
<g id="edge63" class="edge">
<title>Linear order&#45;&gt;Relation</title>
<path fill="none" stroke="#b75867" d="M432.41,-316.24C422.11,-313.18 411.13,-309.79 401,-306.49 362.91,-294.07 355.17,-284.9 316,-276.49 267.15,-266 250.77,-276.4 199.33,-266.59"/>
<polygon fill="#b75867" stroke="#b75867" points="199.8,-263.11 189.3,-264.51 198.38,-269.97 199.8,-263.11"/>
</g>
<!-- Linear order&#45;&gt;Relations -->
<g id="edge65" class="edge">
<title>Linear order&#45;&gt;Relations</title>
<path fill="none" stroke="#ffffff" d="M422.54,-320.55C414.46,-317.32 406.87,-312.8 401,-306.49 389.84,-294.49 399.45,-285.56 393,-270.49 387.98,-258.77 380.14,-246.87 373.3,-237.5"/>
<polygon fill="#ffffff" stroke="#ffffff" points="421.57,-323.91 432.17,-323.76 423.79,-317.27 421.57,-323.91"/>
</g>
<!-- Linear order&#45;&gt;Partial order -->
<g id="edge59" class="edge">
<title>Linear order&#45;&gt;Partial order</title>
<path fill="none" stroke="#b75867" d="M518.71,-327.49C544.69,-327.49 578.2,-327.49 605.9,-327.49"/>
<polygon fill="#b75867" stroke="#b75867" points="606.2,-330.99 616.2,-327.49 606.2,-323.99 606.2,-330.99"/>
</g>
<!-- Linear order&#45;&gt;Transitive Relation -->
<g id="edge60" class="edge">
<title>Linear order&#45;&gt;Transitive Relation</title>
<path fill="none" stroke="#b75867" d="M518.62,-318.43C531.22,-316.08 545.12,-313.82 558,-312.49 647.33,-303.22 874.03,-320.56 962,-302.49 968.33,-301.19 974.82,-299.33 981.17,-297.19"/>
<polygon fill="#b75867" stroke="#b75867" points="982.76,-300.33 990.97,-293.62 980.37,-293.75 982.76,-300.33"/>
</g>
<!-- Linear order&#45;&gt;Strongly Anti&#45;symmetric Relation -->
<g id="edge61" class="edge">
<title>Linear order&#45;&gt;Strongly Anti&#45;symmetric Relation</title>
<path fill="none" stroke="#b75867" d="M518.73,-316.29C531.34,-313.04 545.21,-309.54 558,-306.49 560.35,-305.93 562.72,-305.37 565.12,-304.81"/>
<polygon fill="#b75867" stroke="#b75867" points="566.14,-308.17 575.09,-302.5 564.56,-301.35 566.14,-308.17"/>
</g>
<!-- Linear order&#45;&gt;Linear extension -->
<g id="edge64" class="edge">
<title>Linear order&#45;&gt;Linear extension</title>
<path fill="none" stroke="#ffffff" d="M528.53,-314.63C538.27,-312.62 548.41,-310.78 558,-309.49 647.53,-297.48 670.97,-306.92 761,-299.49 777.04,-298.16 794.44,-296.31 810.31,-294.46"/>
<polygon fill="#ffffff" stroke="#ffffff" points="527.6,-311.25 518.56,-316.78 529.07,-318.1 527.6,-311.25"/>
</g>
<!-- Partial orders have no contours&#45;&gt;Reflexive Relation -->
<g id="edge69" class="edge">
<title>Partial orders have no contours&#45;&gt;Reflexive Relation</title>
<path fill="none" stroke="#b75867" d="M859.51,-180.23C848.66,-144 819.09,-63.71 761,-30.49 651.22,32.29 602.96,-25.49 476.5,-25.49 255.5,-25.49 255.5,-25.49 255.5,-25.49 229.41,-25.49 219.73,-17.67 197,-30.49 132.08,-67.11 89.53,-148.49 70.67,-191.17"/>
<polygon fill="#b75867" stroke="#b75867" points="67.44,-189.83 66.7,-200.4 73.87,-192.6 67.44,-189.83"/>
</g>
<!-- Partial orders have no contours&#45;&gt;Partial order -->
<g id="edge67" class="edge">
<title>Partial orders have no contours&#45;&gt;Partial order</title>
<path fill="none" stroke="#b75867" d="M830.46,-216.59C809.65,-228.98 784.2,-247.35 769,-270.49 760.48,-283.46 771.96,-293.49 761,-304.49 748.3,-317.23 730.12,-323.68 712.71,-326.74"/>
<polygon fill="#b75867" stroke="#b75867" points="712,-323.3 702.59,-328.17 712.98,-330.23 712,-323.3"/>
</g>
<!-- Partial orders have no contours&#45;&gt;Transitive Relation -->
<g id="edge68" class="edge">
<title>Partial orders have no contours&#45;&gt;Transitive Relation</title>
<path fill="none" stroke="#b75867" d="M953.03,-216.49C956.1,-217.74 959.1,-219.07 962,-220.49 966.49,-222.69 984.38,-237.31 1000.61,-250.93"/>
<polygon fill="#b75867" stroke="#b75867" points="998.48,-253.71 1008.38,-257.47 1002.99,-248.35 998.48,-253.71"/>
</g>
<!-- Partial orders have no contours&#45;&gt;Chain -->
<g id="edge70" class="edge">
<title>Partial orders have no contours&#45;&gt;Chain</title>
<path fill="none" stroke="#ffffff" d="M972.4,-179.65C983.76,-177.63 994.43,-175.73 1003.39,-174.13"/>
<polygon fill="#ffffff" stroke="#ffffff" points="971.49,-176.25 962.26,-181.45 972.72,-183.15 971.49,-176.25"/>
</g>
<!-- Contour -->
<g id="node27" class="node">
<title>Contour</title>
<g id="a_node27"><a xlink:href="../Contour.html" xlink:title="Contour" target="_parent">
<path fill="#273434" stroke="#b75867" d="M1050,-224.49C1050,-224.49 1011,-224.49 1011,-224.49 1005,-224.49 999,-218.49 999,-212.49 999,-212.49 999,-200.49 999,-200.49 999,-194.49 1005,-188.49 1011,-188.49 1011,-188.49 1050,-188.49 1050,-188.49 1056,-188.49 1062,-194.49 1062,-200.49 1062,-200.49 1062,-212.49 1062,-212.49 1062,-218.49 1056,-224.49 1050,-224.49"/>
<text text-anchor="middle" x="1030.5" y="-203.39" font-family="sans" font-size="12.00" fill="#c4c7c7">Contour</text>
</a>
</g>
</g>
<!-- Partial orders have no contours&#45;&gt;Contour -->
<g id="edge66" class="edge">
<title>Partial orders have no contours&#45;&gt;Contour</title>
<path fill="none" stroke="#b75867" d="M962.26,-203.19C971.52,-203.64 980.52,-204.08 988.78,-204.49"/>
<polygon fill="#b75867" stroke="#b75867" points="988.63,-207.99 998.79,-204.98 988.97,-201 988.63,-207.99"/>
</g>
<!-- Partial order&#45;&gt;Reflexive Relation -->
<g id="edge73" class="edge">
<title>Partial order&#45;&gt;Reflexive Relation</title>
<path fill="none" stroke="#b75867" d="M616.34,-336.69C534.59,-352.41 349.18,-379.98 197,-350.49 163.13,-343.92 151.58,-343.49 125,-321.49 100.32,-301.06 81.83,-268.85 70.89,-245.89"/>
<polygon fill="#b75867" stroke="#b75867" points="74.02,-244.31 66.67,-236.68 67.66,-247.23 74.02,-244.31"/>
</g>
<!-- Partial order&#45;&gt;Relation -->
<g id="edge74" class="edge">
<title>Partial order&#45;&gt;Relation</title>
<path fill="none" stroke="#b75867" d="M616.39,-335.59C596.35,-338.75 572.01,-341.97 550,-343.49 530.44,-344.83 213.37,-354.28 197,-343.49 175.67,-329.42 165.96,-301 161.57,-279.45"/>
<polygon fill="#b75867" stroke="#b75867" points="165,-278.75 159.81,-269.51 158.11,-279.97 165,-278.75"/>
</g>
<!-- Partial order&#45;&gt;Relations -->
<g id="edge76" class="edge">
<title>Partial order&#45;&gt;Relations</title>
<path fill="none" stroke="#ffffff" d="M606.12,-327.63C588.43,-324.69 570.11,-318.1 558,-304.49 537.78,-281.75 572.05,-257.46 550,-236.49 537.98,-225.05 417.5,-228.23 401,-226.49 398.54,-226.23 396,-225.93 393.45,-225.61"/>
<polygon fill="#ffffff" stroke="#ffffff" points="606.05,-331.15 616.42,-328.96 606.95,-324.21 606.05,-331.15"/>
</g>
<!-- Partial order&#45;&gt;Linear order -->
<g id="edge77" class="edge">
<title>Partial order&#45;&gt;Linear order</title>
<path fill="none" stroke="#ffffff" d="M605.9,-328.18C578.2,-328.27 544.69,-328.26 518.71,-328.13"/>
<polygon fill="#ffffff" stroke="#ffffff" points="606.22,-331.67 616.2,-328.13 606.19,-324.67 606.22,-331.67"/>
</g>
<!-- Partial order&#45;&gt;Partial orders have no contours -->
<g id="edge78" class="edge">
<title>Partial order&#45;&gt;Partial orders have no contours</title>
<path fill="none" stroke="#ffffff" d="M712.71,-325.8C730.12,-322.68 748.3,-316.23 761,-303.49 771.96,-292.49 760.48,-282.46 769,-269.49 783.86,-246.87 808.52,-228.81 829.06,-216.56"/>
<polygon fill="#ffffff" stroke="#ffffff" points="711.98,-322.37 702.59,-327.27 712.99,-329.29 711.98,-322.37"/>
</g>
<!-- Partial order&#45;&gt;Anti&#45;symmetric Relation -->
<g id="edge72" class="edge">
<title>Partial order&#45;&gt;Anti&#45;symmetric Relation</title>
<path fill="none" stroke="#b75867" d="M702.77,-329.98C724.91,-331.28 752.86,-332.92 779.26,-334.47"/>
<polygon fill="#b75867" stroke="#b75867" points="779.11,-337.97 789.29,-335.06 779.52,-330.98 779.11,-337.97"/>
</g>
<!-- Partial order&#45;&gt;Transitive Relation -->
<g id="edge71" class="edge">
<title>Partial order&#45;&gt;Transitive Relation</title>
<path fill="none" stroke="#b75867" d="M702.65,-325.05C784.12,-320.29 955.82,-310.12 962,-308.49 971.36,-306.01 980.96,-302.2 989.89,-298.03"/>
<polygon fill="#b75867" stroke="#b75867" points="991.47,-301.15 998.9,-293.6 988.38,-294.87 991.47,-301.15"/>
</g>
<!-- Partial order&#45;&gt;Linear extension -->
<g id="edge75" class="edge">
<title>Partial order&#45;&gt;Linear extension</title>
<path fill="none" stroke="#ffffff" d="M712.6,-317.27C742.5,-311.41 779.99,-304.06 810.25,-298.13"/>
<polygon fill="#ffffff" stroke="#ffffff" points="711.91,-313.84 702.77,-319.2 713.26,-320.71 711.91,-313.84"/>
</g>
</g>
</svg>
