<?xml version="1.0" encoding="UTF-8" standalone="no"?>
<!DOCTYPE svg PUBLIC "-//W3C//DTD SVG 1.1//EN"
 "http://www.w3.org/Graphics/SVG/1.1/DTD/svg11.dtd">
<!-- Generated by graphviz version 2.44.0 (0)
 -->
<!-- Title: Relation Pages: 1 -->
<svg width="1383pt" height="361pt"
 viewBox="0.00 0.00 1383.00 361.25" xmlns="http://www.w3.org/2000/svg" xmlns:xlink="http://www.w3.org/1999/xlink">
<g id="page0,1_graph0" class="graph" transform="scale(1 1) rotate(0) translate(4 357.25)">
<title>Relation</title>
<polygon fill="#132020" stroke="transparent" points="-4,4 -4,-357.25 1379,-357.25 1379,4 -4,4"/>
<!-- Relation -->
<g id="node1" class="node">
<title>Relation</title>
<g id="a_node1"><a xlink:href="../Relation.html" xlink:title="Relation" target="_parent">
<path fill="#273434" stroke="#b75867" d="M52,-166.25C52,-166.25 12,-166.25 12,-166.25 6,-166.25 0,-160.25 0,-154.25 0,-154.25 0,-142.25 0,-142.25 0,-136.25 6,-130.25 12,-130.25 12,-130.25 52,-130.25 52,-130.25 58,-130.25 64,-136.25 64,-142.25 64,-142.25 64,-154.25 64,-154.25 64,-160.25 58,-166.25 52,-166.25"/>
<text text-anchor="middle" x="32" y="-145.15" font-family="sans" font-size="12.00" fill="#c4c7c7">Relation</text>
</a>
</g>
</g>
<!-- Descartes Product -->
<g id="node2" class="node">
<title>Descartes Product</title>
<g id="a_node2"><a xlink:href="../Descartes Product.html" xlink:title="Descartes Product" target="_parent">
<path fill="#273434" stroke="#b75867" d="M195.5,-353.25C195.5,-353.25 100.5,-353.25 100.5,-353.25 94.5,-353.25 88.5,-347.25 88.5,-341.25 88.5,-341.25 88.5,-329.25 88.5,-329.25 88.5,-323.25 94.5,-317.25 100.5,-317.25 100.5,-317.25 195.5,-317.25 195.5,-317.25 201.5,-317.25 207.5,-323.25 207.5,-329.25 207.5,-329.25 207.5,-341.25 207.5,-341.25 207.5,-347.25 201.5,-353.25 195.5,-353.25"/>
<text text-anchor="middle" x="148" y="-332.15" font-family="sans" font-size="12.00" fill="#c4c7c7">Descartes Product</text>
</a>
</g>
</g>
<!-- Relation&#45;&gt;Descartes Product -->
<g id="edge1" class="edge">
<title>Relation&#45;&gt;Descartes Product</title>
<path fill="none" stroke="#b75867" d="M34.98,-166.28C39.52,-204.53 51.9,-292.05 72,-313.25 74.29,-315.67 76.82,-317.82 79.54,-319.74"/>
<polygon fill="#b75867" stroke="#b75867" points="77.77,-322.76 88.16,-324.83 81.33,-316.73 77.77,-322.76"/>
</g>
<!-- Anti&#45;symmetric Relation -->
<g id="node3" class="node">
<title>Anti&#45;symmetric Relation</title>
<g id="a_node3"><a xlink:href="../Anti-symmetric Relation.html" xlink:title="Anti&#45;symmetric Relation" target="_parent">
<path fill="none" stroke="#b75867" d="M212,-208.25C212,-208.25 84,-208.25 84,-208.25 78,-208.25 72,-202.25 72,-196.25 72,-196.25 72,-184.25 72,-184.25 72,-178.25 78,-172.25 84,-172.25 84,-172.25 212,-172.25 212,-172.25 218,-172.25 224,-178.25 224,-184.25 224,-184.25 224,-196.25 224,-196.25 224,-202.25 218,-208.25 212,-208.25"/>
<text text-anchor="middle" x="148" y="-187.15" font-family="sans" font-size="12.00" fill="#c4c7c7">Anti&#45;symmetric Relation</text>
</a>
</g>
</g>
<!-- Relation&#45;&gt;Anti&#45;symmetric Relation -->
<g id="edge2" class="edge">
<title>Relation&#45;&gt;Anti&#45;symmetric Relation</title>
<path fill="none" stroke="#ffffff" d="M73.68,-168.83C77.94,-170.55 80.21,-171.38 82.5,-172.2"/>
<polygon fill="#ffffff" stroke="#ffffff" points="74.84,-165.52 64.27,-164.93 72.17,-171.99 74.84,-165.52"/>
</g>
<!-- Symmetric Relation -->
<g id="node4" class="node">
<title>Symmetric Relation</title>
<g id="a_node4"><a xlink:href="../Symmetric Relation.html" xlink:title="Symmetric Relation" target="_parent">
<path fill="none" stroke="#b75867" d="M728,-156.25C728,-156.25 624,-156.25 624,-156.25 618,-156.25 612,-150.25 612,-144.25 612,-144.25 612,-132.25 612,-132.25 612,-126.25 618,-120.25 624,-120.25 624,-120.25 728,-120.25 728,-120.25 734,-120.25 740,-126.25 740,-132.25 740,-132.25 740,-144.25 740,-144.25 740,-150.25 734,-156.25 728,-156.25"/>
<text text-anchor="middle" x="676" y="-135.15" font-family="sans" font-size="12.00" fill="#c4c7c7">Symmetric Relation</text>
</a>
</g>
</g>
<!-- Relation&#45;&gt;Symmetric Relation -->
<g id="edge3" class="edge">
<title>Relation&#45;&gt;Symmetric Relation</title>
<path fill="none" stroke="#ffffff" d="M74.2,-147.98C122.18,-147.68 203.84,-147.25 274,-147.25 274,-147.25 274,-147.25 387.5,-147.25 464.78,-147.25 553.68,-143.97 611.92,-141.36"/>
<polygon fill="#ffffff" stroke="#ffffff" points="74.17,-144.48 64.2,-148.04 74.22,-151.48 74.17,-144.48"/>
</g>
<!-- Transitive Relation -->
<g id="node5" class="node">
<title>Transitive Relation</title>
<g id="a_node5"><a xlink:href="../Transitive Relation.html" xlink:title="Transitive Relation" target="_parent">
<path fill="none" stroke="#b75867" d="M435,-274.25C435,-274.25 338,-274.25 338,-274.25 332,-274.25 326,-268.25 326,-262.25 326,-262.25 326,-250.25 326,-250.25 326,-244.25 332,-238.25 338,-238.25 338,-238.25 435,-238.25 435,-238.25 441,-238.25 447,-244.25 447,-250.25 447,-250.25 447,-262.25 447,-262.25 447,-268.25 441,-274.25 435,-274.25"/>
<text text-anchor="middle" x="386.5" y="-253.15" font-family="sans" font-size="12.00" fill="#c4c7c7">Transitive Relation</text>
</a>
</g>
</g>
<!-- Relation&#45;&gt;Transitive Relation -->
<g id="edge4" class="edge">
<title>Relation&#45;&gt;Transitive Relation</title>
<path fill="none" stroke="#ffffff" d="M40.17,-176.23C45.97,-193.06 55.87,-213.46 72,-225.25 146.05,-279.42 257.67,-275.91 325.82,-267.05"/>
<polygon fill="#ffffff" stroke="#ffffff" points="43.4,-174.81 37.08,-166.31 36.72,-176.9 43.4,-174.81"/>
</g>
<!-- Reflexive Relation -->
<g id="node6" class="node">
<title>Reflexive Relation</title>
<g id="a_node6"><a xlink:href="../Reflexive Relation.html" xlink:title="Reflexive Relation" target="_parent">
<path fill="none" stroke="#b75867" d="M940.5,-295.25C940.5,-295.25 847.5,-295.25 847.5,-295.25 841.5,-295.25 835.5,-289.25 835.5,-283.25 835.5,-283.25 835.5,-271.25 835.5,-271.25 835.5,-265.25 841.5,-259.25 847.5,-259.25 847.5,-259.25 940.5,-259.25 940.5,-259.25 946.5,-259.25 952.5,-265.25 952.5,-271.25 952.5,-271.25 952.5,-283.25 952.5,-283.25 952.5,-289.25 946.5,-295.25 940.5,-295.25"/>
<text text-anchor="middle" x="894" y="-274.15" font-family="sans" font-size="12.00" fill="#c4c7c7">Reflexive Relation</text>
</a>
</g>
</g>
<!-- Relation&#45;&gt;Reflexive Relation -->
<g id="edge5" class="edge">
<title>Relation&#45;&gt;Reflexive Relation</title>
<path fill="none" stroke="#ffffff" d="M74.14,-153.91C160.15,-157.32 723.82,-168.54 740,-175.25 787.92,-195.13 780.34,-228.85 825,-255.25 828.31,-257.21 831.82,-259.02 835.42,-260.68"/>
<polygon fill="#ffffff" stroke="#ffffff" points="74.21,-150.4 64.04,-153.38 73.84,-157.39 74.21,-150.4"/>
</g>
<!-- Anti&#45;reflexive relation -->
<g id="node7" class="node">
<title>Anti&#45;reflexive relation</title>
<g id="a_node7"><a xlink:href="../Anti-reflexive relation.html" xlink:title="Anti&#45;reflexive relation" target="_parent">
<path fill="none" stroke="#b75867" d="M951,-58.25C951,-58.25 837,-58.25 837,-58.25 831,-58.25 825,-52.25 825,-46.25 825,-46.25 825,-34.25 825,-34.25 825,-28.25 831,-22.25 837,-22.25 837,-22.25 951,-22.25 951,-22.25 957,-22.25 963,-28.25 963,-34.25 963,-34.25 963,-46.25 963,-46.25 963,-52.25 957,-58.25 951,-58.25"/>
<text text-anchor="middle" x="894" y="-37.15" font-family="sans" font-size="12.00" fill="#c4c7c7">Anti&#45;reflexive relation</text>
</a>
</g>
</g>
<!-- Relation&#45;&gt;Anti&#45;reflexive relation -->
<g id="edge6" class="edge">
<title>Relation&#45;&gt;Anti&#45;reflexive relation</title>
<path fill="none" stroke="#ffffff" d="M34.67,-119.89C37.84,-94.45 46.81,-58.41 72,-40.25 108.43,-14 229.1,-35.25 274,-35.25 274,-35.25 274,-35.25 677,-35.25 726.51,-35.25 782.39,-36.58 824.91,-37.87"/>
<polygon fill="#ffffff" stroke="#ffffff" points="31.17,-119.76 33.64,-130.06 38.13,-120.47 31.17,-119.76"/>
</g>
<!-- Strongly Anti&#45;symmetric Relation -->
<g id="node8" class="node">
<title>Strongly Anti&#45;symmetric Relation</title>
<g id="a_node8"><a xlink:href="../Strongly Anti-symmetric Relation.html" xlink:title="Strongly Anti&#45;symmetric Relation" target="_parent">
<path fill="none" stroke="#b75867" d="M1363,-135.25C1363,-135.25 1184,-135.25 1184,-135.25 1178,-135.25 1172,-129.25 1172,-123.25 1172,-123.25 1172,-111.25 1172,-111.25 1172,-105.25 1178,-99.25 1184,-99.25 1184,-99.25 1363,-99.25 1363,-99.25 1369,-99.25 1375,-105.25 1375,-111.25 1375,-111.25 1375,-123.25 1375,-123.25 1375,-129.25 1369,-135.25 1363,-135.25"/>
<text text-anchor="middle" x="1273.5" y="-114.15" font-family="sans" font-size="12.00" fill="#c4c7c7">Strongly Anti&#45;symmetric Relation</text>
</a>
</g>
</g>
<!-- Relation&#45;&gt;Strongly Anti&#45;symmetric Relation -->
<g id="edge7" class="edge">
<title>Relation&#45;&gt;Strongly Anti&#45;symmetric Relation</title>
<path fill="none" stroke="#ffffff" d="M33.46,-119.77C35.61,-91.36 43.74,-48.93 72,-27.25 143.33,27.45 184.11,-17.25 274,-17.25 274,-17.25 274,-17.25 895,-17.25 1015.51,-17.25 1050.59,-10.51 1164,-51.25 1195.54,-62.59 1227.88,-83.73 1248.94,-99.04"/>
<polygon fill="#ffffff" stroke="#ffffff" points="29.96,-119.72 32.9,-129.9 36.95,-120.1 29.96,-119.72"/>
</g>
<!-- Reflexive Closure -->
<g id="node9" class="node">
<title>Reflexive Closure</title>
<g id="a_node9"><a xlink:href="../Reflexive Closure.html" xlink:title="Reflexive Closure" target="_parent">
<path fill="none" stroke="#b75867" d="M1112,-172.25C1112,-172.25 1023,-172.25 1023,-172.25 1017,-172.25 1011,-166.25 1011,-160.25 1011,-160.25 1011,-148.25 1011,-148.25 1011,-142.25 1017,-136.25 1023,-136.25 1023,-136.25 1112,-136.25 1112,-136.25 1118,-136.25 1124,-142.25 1124,-148.25 1124,-148.25 1124,-160.25 1124,-160.25 1124,-166.25 1118,-172.25 1112,-172.25"/>
<text text-anchor="middle" x="1067.5" y="-151.15" font-family="sans" font-size="12.00" fill="#c4c7c7">Reflexive Closure</text>
</a>
</g>
</g>
<!-- Relation&#45;&gt;Reflexive Closure -->
<g id="edge8" class="edge">
<title>Relation&#45;&gt;Reflexive Closure</title>
<path fill="none" stroke="#ffffff" d="M58.99,-124.22C63.1,-121.45 67.5,-118.99 72,-117.25 103.58,-105.06 190.32,-110.66 224,-107.25 492.22,-80.17 556.03,-43.52 825,-25.25 855.6,-23.18 940.52,-4.39 963,-25.25 980.48,-41.47 955.47,-114.16 971,-132.25 980.98,-143.87 995.74,-150.04 1010.69,-153.15"/>
<polygon fill="#ffffff" stroke="#ffffff" points="56.87,-121.44 50.98,-130.24 61.07,-127.03 56.87,-121.44"/>
</g>
<!-- Symmetric Closure -->
<g id="node10" class="node">
<title>Symmetric Closure</title>
<g id="a_node10"><a xlink:href="../Symmetric Closure.html" xlink:title="Symmetric Closure" target="_parent">
<path fill="none" stroke="#b75867" d="M943.5,-95.25C943.5,-95.25 844.5,-95.25 844.5,-95.25 838.5,-95.25 832.5,-89.25 832.5,-83.25 832.5,-83.25 832.5,-71.25 832.5,-71.25 832.5,-65.25 838.5,-59.25 844.5,-59.25 844.5,-59.25 943.5,-59.25 943.5,-59.25 949.5,-59.25 955.5,-65.25 955.5,-71.25 955.5,-71.25 955.5,-83.25 955.5,-83.25 955.5,-89.25 949.5,-95.25 943.5,-95.25"/>
<text text-anchor="middle" x="894" y="-74.15" font-family="sans" font-size="12.00" fill="#c4c7c7">Symmetric Closure</text>
</a>
</g>
</g>
<!-- Relation&#45;&gt;Symmetric Closure -->
<g id="edge9" class="edge">
<title>Relation&#45;&gt;Symmetric Closure</title>
<path fill="none" stroke="#ffffff" d="M62.21,-124.73C65.38,-122.97 68.67,-121.42 72,-120.25 80.97,-117.11 644.03,-89.4 832.38,-80.2"/>
<polygon fill="#ffffff" stroke="#ffffff" points="60.2,-121.86 53.62,-130.17 63.94,-127.78 60.2,-121.86"/>
</g>
<!-- Relation of Equivalence -->
<g id="node11" class="node">
<title>Relation of Equivalence</title>
<g id="a_node11"><a xlink:href="../Relation of Equivalence.html" xlink:title="Relation of Equivalence" target="_parent">
<path fill="none" stroke="#b75867" d="M592,-227.25C592,-227.25 467,-227.25 467,-227.25 461,-227.25 455,-221.25 455,-215.25 455,-215.25 455,-203.25 455,-203.25 455,-197.25 461,-191.25 467,-191.25 467,-191.25 592,-191.25 592,-191.25 598,-191.25 604,-197.25 604,-203.25 604,-203.25 604,-215.25 604,-215.25 604,-221.25 598,-227.25 592,-227.25"/>
<text text-anchor="middle" x="529.5" y="-206.15" font-family="sans" font-size="12.00" fill="#c4c7c7">Relation of Equivalence</text>
</a>
</g>
</g>
<!-- Relation&#45;&gt;Relation of Equivalence -->
<g id="edge10" class="edge">
<title>Relation&#45;&gt;Relation of Equivalence</title>
<path fill="none" stroke="#ffffff" d="M74.18,-165.33C139.65,-180.16 159.72,-169.55 224,-175.25 302.95,-182.26 393.15,-192.62 454.76,-200.07"/>
<polygon fill="#ffffff" stroke="#ffffff" points="74.72,-161.86 64.18,-162.95 73.1,-168.67 74.72,-161.86"/>
</g>
<!-- Chain -->
<g id="node12" class="node">
<title>Chain</title>
<g id="a_node12"><a xlink:href="../Chain.html" xlink:title="Chain" target="_parent">
<path fill="none" stroke="#b75867" d="M909,-132.25C909,-132.25 879,-132.25 879,-132.25 873,-132.25 867,-126.25 867,-120.25 867,-120.25 867,-108.25 867,-108.25 867,-102.25 873,-96.25 879,-96.25 879,-96.25 909,-96.25 909,-96.25 915,-96.25 921,-102.25 921,-108.25 921,-108.25 921,-120.25 921,-120.25 921,-126.25 915,-132.25 909,-132.25"/>
<text text-anchor="middle" x="894" y="-111.15" font-family="sans" font-size="12.00" fill="#c4c7c7">Chain</text>
</a>
</g>
</g>
<!-- Relation&#45;&gt;Chain -->
<g id="edge11" class="edge">
<title>Relation&#45;&gt;Chain</title>
<path fill="none" stroke="#ffffff" d="M74,-140.01C121.81,-131.13 203.29,-118.25 274,-118.25 274,-118.25 274,-118.25 677,-118.25 745.45,-118.25 826.08,-116.22 866.74,-115.05"/>
<polygon fill="#ffffff" stroke="#ffffff" points="73.22,-136.59 64.04,-141.89 74.52,-143.47 73.22,-136.59"/>
</g>
<!-- Partial function -->
<g id="node13" class="node">
<title>Partial function</title>
<g id="a_node13"><a xlink:href="../Partial function.html" xlink:title="Partial function" target="_parent">
<path fill="none" stroke="#b75867" d="M187.5,-110.25C187.5,-110.25 108.5,-110.25 108.5,-110.25 102.5,-110.25 96.5,-104.25 96.5,-98.25 96.5,-98.25 96.5,-86.25 96.5,-86.25 96.5,-80.25 102.5,-74.25 108.5,-74.25 108.5,-74.25 187.5,-74.25 187.5,-74.25 193.5,-74.25 199.5,-80.25 199.5,-86.25 199.5,-86.25 199.5,-98.25 199.5,-98.25 199.5,-104.25 193.5,-110.25 187.5,-110.25"/>
<text text-anchor="middle" x="148" y="-89.15" font-family="sans" font-size="12.00" fill="#c4c7c7">Partial function</text>
</a>
</g>
</g>
<!-- Relation&#45;&gt;Partial function -->
<g id="edge12" class="edge">
<title>Relation&#45;&gt;Partial function</title>
<path fill="none" stroke="#ffffff" d="M58.33,-123.49C62.66,-120.06 67.3,-116.83 72,-114.25 79.5,-110.15 87.85,-106.73 96.17,-103.91"/>
<polygon fill="#ffffff" stroke="#ffffff" points="55.76,-121.08 50.41,-130.22 60.29,-126.41 55.76,-121.08"/>
</g>
<!-- Relations -->
<g id="node14" class="node">
<title>Relations</title>
<g id="a_node14"><a xlink:href="../Relations.html" xlink:title="Relations" target="_parent">
<path fill="none" stroke="#b75867" d="M805,-161.25C805,-161.25 760,-161.25 760,-161.25 754,-161.25 748,-155.25 748,-149.25 748,-149.25 748,-137.25 748,-137.25 748,-131.25 754,-125.25 760,-125.25 760,-125.25 805,-125.25 805,-125.25 811,-125.25 817,-131.25 817,-137.25 817,-137.25 817,-149.25 817,-149.25 817,-155.25 811,-161.25 805,-161.25"/>
<text text-anchor="middle" x="782.5" y="-140.15" font-family="sans" font-size="12.00" fill="#c4c7c7">Relations</text>
</a>
</g>
</g>
<!-- Relation&#45;&gt;Relations -->
<g id="edge13" class="edge">
<title>Relation&#45;&gt;Relations</title>
<path fill="none" stroke="#ffffff" d="M74.18,-151C122.14,-153.96 203.78,-158.25 274,-158.25 274,-158.25 274,-158.25 530.5,-158.25 623.64,-158.25 647.65,-165.34 740,-153.25 742.5,-152.93 745.07,-152.51 747.64,-152.03"/>
<polygon fill="#ffffff" stroke="#ffffff" points="74.38,-147.51 64.18,-150.38 73.94,-154.5 74.38,-147.51"/>
</g>
<!-- Linear order -->
<g id="node15" class="node">
<title>Linear order</title>
<g id="a_node15"><a xlink:href="../Linear order.html" xlink:title="Linear order" target="_parent">
<path fill="none" stroke="#b75867" d="M1098.5,-301.25C1098.5,-301.25 1036.5,-301.25 1036.5,-301.25 1030.5,-301.25 1024.5,-295.25 1024.5,-289.25 1024.5,-289.25 1024.5,-277.25 1024.5,-277.25 1024.5,-271.25 1030.5,-265.25 1036.5,-265.25 1036.5,-265.25 1098.5,-265.25 1098.5,-265.25 1104.5,-265.25 1110.5,-271.25 1110.5,-277.25 1110.5,-277.25 1110.5,-289.25 1110.5,-289.25 1110.5,-295.25 1104.5,-301.25 1098.5,-301.25"/>
<text text-anchor="middle" x="1067.5" y="-280.15" font-family="sans" font-size="12.00" fill="#c4c7c7">Linear order</text>
</a>
</g>
</g>
<!-- Relation&#45;&gt;Linear order -->
<g id="edge14" class="edge">
<title>Relation&#45;&gt;Linear order</title>
<path fill="none" stroke="#ffffff" d="M37.14,-176.57C41.87,-199.14 51.75,-230.05 72,-249.25 140.52,-314.26 179.55,-315.25 274,-315.25 274,-315.25 274,-315.25 783.5,-315.25 863.34,-315.25 883.92,-319.24 963,-308.25 983.42,-305.42 1005.68,-300.31 1024.31,-295.45"/>
<polygon fill="#ffffff" stroke="#ffffff" points="40.55,-175.74 35.27,-166.55 33.67,-177.03 40.55,-175.74"/>
</g>
<!-- Total function -->
<g id="node16" class="node">
<title>Total function</title>
<g id="a_node16"><a xlink:href="../Total function.html" xlink:title="Total function" target="_parent">
<path fill="none" stroke="#b75867" d="M183.5,-73.25C183.5,-73.25 112.5,-73.25 112.5,-73.25 106.5,-73.25 100.5,-67.25 100.5,-61.25 100.5,-61.25 100.5,-49.25 100.5,-49.25 100.5,-43.25 106.5,-37.25 112.5,-37.25 112.5,-37.25 183.5,-37.25 183.5,-37.25 189.5,-37.25 195.5,-43.25 195.5,-49.25 195.5,-49.25 195.5,-61.25 195.5,-61.25 195.5,-67.25 189.5,-73.25 183.5,-73.25"/>
<text text-anchor="middle" x="148" y="-52.15" font-family="sans" font-size="12.00" fill="#c4c7c7">Total function</text>
</a>
</g>
</g>
<!-- Relation&#45;&gt;Total function -->
<g id="edge15" class="edge">
<title>Relation&#45;&gt;Total function</title>
<path fill="none" stroke="#ffffff" d="M42.28,-120.49C48.53,-105.71 58.19,-88.35 72,-77.25 80.14,-70.71 90.18,-66.11 100.22,-62.88"/>
<polygon fill="#ffffff" stroke="#ffffff" points="38.87,-119.61 38.49,-130.2 45.39,-122.16 38.87,-119.61"/>
</g>
<!-- Partial order -->
<g id="node17" class="node">
<title>Partial order</title>
<g id="a_node17"><a xlink:href="../Partial order.html" xlink:title="Partial order" target="_parent">
<path fill="none" stroke="#b75867" d="M306,-254.25C306,-254.25 244,-254.25 244,-254.25 238,-254.25 232,-248.25 232,-242.25 232,-242.25 232,-230.25 232,-230.25 232,-224.25 238,-218.25 244,-218.25 244,-218.25 306,-218.25 306,-218.25 312,-218.25 318,-224.25 318,-230.25 318,-230.25 318,-242.25 318,-242.25 318,-248.25 312,-254.25 306,-254.25"/>
<text text-anchor="middle" x="275" y="-233.15" font-family="sans" font-size="12.00" fill="#c4c7c7">Partial order</text>
</a>
</g>
</g>
<!-- Relation&#45;&gt;Partial order -->
<g id="edge16" class="edge">
<title>Relation&#45;&gt;Partial order</title>
<path fill="none" stroke="#ffffff" d="M43.89,-175.39C50.24,-187.71 59.5,-201.29 72,-209.25 120.34,-240.06 188.39,-242.69 231.85,-240.47"/>
<polygon fill="#ffffff" stroke="#ffffff" points="47.04,-173.86 39.59,-166.33 40.71,-176.86 47.04,-173.86"/>
</g>
<!-- Descartes Product&#45;&gt;Relation -->
<g id="edge17" class="edge">
<title>Descartes Product&#45;&gt;Relation</title>
<path fill="none" stroke="#ffffff" d="M79.54,-320.74C76.82,-318.82 74.29,-316.67 72,-314.25 51.85,-293 39.46,-205.09 34.94,-166.52"/>
<polygon fill="#ffffff" stroke="#ffffff" points="77.77,-323.76 88.16,-325.82 81.33,-317.73 77.77,-323.76"/>
</g>
<!-- Anti&#45;symmetric Relation&#45;&gt;Relation -->
<g id="edge18" class="edge">
<title>Anti&#45;symmetric Relation&#45;&gt;Relation</title>
<path fill="none" stroke="#b75867" d="M79.73,-172.2C78.25,-171.66 76.79,-171.11 73.97,-169.97"/>
<polygon fill="#b75867" stroke="#b75867" points="74.84,-166.54 64.27,-165.93 72.15,-173 74.84,-166.54"/>
</g>
<!-- Anti&#45;symmetric Relation&#45;&gt;Relations -->
<g id="edge19" class="edge">
<title>Anti&#45;symmetric Relation&#45;&gt;Relations</title>
<path fill="none" stroke="#ffffff" d="M234.05,-174.74C278.94,-167.84 335.02,-161.25 385.5,-161.25 385.5,-161.25 385.5,-161.25 530.5,-161.25 623.64,-161.25 648.11,-171.43 740,-156.25 742.53,-155.84 745.12,-155.3 747.72,-154.68"/>
<polygon fill="#ffffff" stroke="#ffffff" points="233.4,-171.3 224.07,-176.31 234.49,-178.21 233.4,-171.3"/>
</g>
<!-- Anti&#45;symmetric Relation&#45;&gt;Partial order -->
<g id="edge20" class="edge">
<title>Anti&#45;symmetric Relation&#45;&gt;Partial order</title>
<path fill="none" stroke="#ffffff" d="M207.62,-211.83C215.84,-214.85 224.15,-217.91 231.98,-220.79"/>
<polygon fill="#ffffff" stroke="#ffffff" points="208.64,-208.47 198.04,-208.3 206.22,-215.04 208.64,-208.47"/>
</g>
<!-- Symmetric Relation&#45;&gt;Relation -->
<g id="edge21" class="edge">
<title>Symmetric Relation&#45;&gt;Relation</title>
<path fill="none" stroke="#b75867" d="M611.92,-142.14C553.68,-144.97 464.78,-148.25 387.5,-148.25 274,-148.25 274,-148.25 274,-148.25 203.84,-148.25 122.18,-148.68 74.2,-148.7"/>
<polygon fill="#b75867" stroke="#b75867" points="74.2,-145.2 64.2,-148.69 74.2,-152.2 74.2,-145.2"/>
</g>
<!-- Symmetric Relation&#45;&gt;Symmetric Closure -->
<g id="edge22" class="edge">
<title>Symmetric Relation&#45;&gt;Symmetric Closure</title>
<path fill="none" stroke="#ffffff" d="M750.12,-124.79C782.4,-118.64 813.84,-112.28 817,-110.25 822.09,-106.99 820.11,-102.8 825,-99.25 827.31,-97.58 829.75,-96.03 832.29,-94.59"/>
<polygon fill="#ffffff" stroke="#ffffff" points="749.27,-121.39 740.1,-126.69 750.58,-128.27 749.27,-121.39"/>
</g>
<!-- Symmetric Relation&#45;&gt;Relation of Equivalence -->
<g id="edge23" class="edge">
<title>Symmetric Relation&#45;&gt;Relation of Equivalence</title>
<path fill="none" stroke="#ffffff" d="M626.23,-160.53C621.4,-162.76 616.59,-165.03 612,-167.25 596.46,-174.8 579.52,-183.63 565.14,-191.25"/>
<polygon fill="#ffffff" stroke="#ffffff" points="627.85,-163.64 635.49,-156.3 624.94,-157.27 627.85,-163.64"/>
</g>
<!-- Symmetric Relation&#45;&gt;Relations -->
<g id="edge24" class="edge">
<title>Symmetric Relation&#45;&gt;Relations</title>
<path fill="none" stroke="#ffffff" d="M747.33,-141.62C747.49,-141.63 747.64,-141.63 747.8,-141.64"/>
<polygon fill="#ffffff" stroke="#ffffff" points="750.35,-138.26 740.2,-141.28 750.02,-145.25 750.35,-138.26"/>
</g>
<!-- Transitive Relation&#45;&gt;Relation -->
<g id="edge25" class="edge">
<title>Transitive Relation&#45;&gt;Relation</title>
<path fill="none" stroke="#b75867" d="M325.82,-267.77C257.67,-276.91 146.05,-280.42 72,-226.25 55.52,-214.2 45.53,-193.16 39.8,-175.97"/>
<polygon fill="#b75867" stroke="#b75867" points="43.15,-174.95 36.9,-166.39 36.45,-176.97 43.15,-174.95"/>
</g>
<!-- Transitive Relation&#45;&gt;Relation of Equivalence -->
<g id="edge27" class="edge">
<title>Transitive Relation&#45;&gt;Relation of Equivalence</title>
<path fill="none" stroke="#ffffff" d="M451.27,-235C458.96,-232.43 466.76,-229.83 474.3,-227.32"/>
<polygon fill="#ffffff" stroke="#ffffff" points="449.99,-231.73 441.61,-238.22 452.2,-238.38 449.99,-231.73"/>
</g>
<!-- Transitive Relation&#45;&gt;Relations -->
<g id="edge28" class="edge">
<title>Transitive Relation&#45;&gt;Relations</title>
<path fill="none" stroke="#ffffff" d="M457.46,-256.22C556.95,-255.89 728.63,-254.17 740,-246.25 767.85,-226.87 777.02,-185.46 780.03,-161.46"/>
<polygon fill="#ffffff" stroke="#ffffff" points="457.17,-252.72 447.18,-256.25 457.19,-259.72 457.17,-252.72"/>
</g>
<!-- Transitive Relation&#45;&gt;Linear order -->
<g id="edge29" class="edge">
<title>Transitive Relation&#45;&gt;Linear order</title>
<path fill="none" stroke="#ffffff" d="M457.31,-271.85C515.29,-283.44 600.09,-297.25 675,-297.25 675,-297.25 675,-297.25 783.5,-297.25 863.31,-297.25 883.32,-296.82 963,-292.25 983.17,-291.1 1005.5,-289.23 1024.24,-287.5"/>
<polygon fill="#ffffff" stroke="#ffffff" points="457.66,-268.35 447.17,-269.79 456.27,-275.21 457.66,-268.35"/>
</g>
<!-- Transitive Relation&#45;&gt;Partial order -->
<g id="edge31" class="edge">
<title>Transitive Relation&#45;&gt;Partial order</title>
<path fill="none" stroke="#ffffff" d="M318.5,-244.75C318.34,-244.72 318.18,-244.69 318.02,-244.66"/>
<polygon fill="#ffffff" stroke="#ffffff" points="315.24,-247.71 325.71,-246.08 316.52,-240.82 315.24,-247.71"/>
</g>
<!-- Transitive Closure -->
<g id="node18" class="node">
<title>Transitive Closure</title>
<g id="a_node18"><a xlink:href="../Transitive Closure.html" xlink:title="Transitive Closure" target="_parent">
<path fill="none" stroke="#b75867" d="M940,-221.25C940,-221.25 848,-221.25 848,-221.25 842,-221.25 836,-215.25 836,-209.25 836,-209.25 836,-197.25 836,-197.25 836,-191.25 842,-185.25 848,-185.25 848,-185.25 940,-185.25 940,-185.25 946,-185.25 952,-191.25 952,-197.25 952,-197.25 952,-209.25 952,-209.25 952,-215.25 946,-221.25 940,-221.25"/>
<text text-anchor="middle" x="894" y="-200.15" font-family="sans" font-size="12.00" fill="#c4c7c7">Transitive Closure</text>
</a>
</g>
</g>
<!-- Transitive Relation&#45;&gt;Transitive Closure -->
<g id="edge26" class="edge">
<title>Transitive Relation&#45;&gt;Transitive Closure</title>
<path fill="none" stroke="#ffffff" d="M457.44,-261.18C528.93,-264.83 642.95,-266.83 740,-251.25 745.07,-250.44 795.09,-234.63 836.58,-221.37"/>
<polygon fill="#ffffff" stroke="#ffffff" points="457.38,-257.67 447.2,-260.63 457,-264.66 457.38,-257.67"/>
</g>
<!-- Partial orders have no contours -->
<g id="node19" class="node">
<title>Partial orders have no contours</title>
<g id="a_node19"><a xlink:href="../Partial orders have no contours.html" xlink:title="Partial orders have no contours" target="_parent">
<path fill="none" stroke="#b75867" d="M1152,-264.25C1152,-264.25 983,-264.25 983,-264.25 977,-264.25 971,-258.25 971,-252.25 971,-252.25 971,-240.25 971,-240.25 971,-234.25 977,-228.25 983,-228.25 983,-228.25 1152,-228.25 1152,-228.25 1158,-228.25 1164,-234.25 1164,-240.25 1164,-240.25 1164,-252.25 1164,-252.25 1164,-258.25 1158,-264.25 1152,-264.25"/>
<text text-anchor="middle" x="1067.5" y="-243.15" font-family="sans" font-size="12.00" fill="#c4c7c7">Partial orders have no contours</text>
</a>
</g>
</g>
<!-- Transitive Relation&#45;&gt;Partial orders have no contours -->
<g id="edge30" class="edge">
<title>Transitive Relation&#45;&gt;Partial orders have no contours</title>
<path fill="none" stroke="#ffffff" d="M418.43,-280.2C429.39,-287.36 442.19,-294.34 455,-298.25 501.79,-312.55 626.08,-306.25 675,-306.25 675,-306.25 675,-306.25 783.5,-306.25 823.45,-306.25 931.79,-321.19 963,-296.25 973.11,-288.18 961.61,-277.17 971,-268.25 972.48,-266.85 974.03,-265.53 975.65,-264.28"/>
<polygon fill="#ffffff" stroke="#ffffff" points="420.31,-277.24 410.08,-274.47 416.35,-283.01 420.31,-277.24"/>
</g>
<!-- Reflexive Relation&#45;&gt;Relation -->
<g id="edge32" class="edge">
<title>Reflexive Relation&#45;&gt;Relation</title>
<path fill="none" stroke="#b75867" d="M835.42,-261.68C831.82,-260.02 828.31,-258.21 825,-256.25 780.34,-229.85 787.92,-196.13 740,-176.25 723.82,-169.54 160.15,-158.32 74.14,-154.9"/>
<polygon fill="#b75867" stroke="#b75867" points="74.21,-151.4 64.04,-154.37 73.84,-158.39 74.21,-151.4"/>
</g>
<!-- Reflexive Relation&#45;&gt;Reflexive Closure -->
<g id="edge33" class="edge">
<title>Reflexive Relation&#45;&gt;Reflexive Closure</title>
<path fill="none" stroke="#ffffff" d="M960.95,-257.23C961.65,-256.59 962.34,-255.93 963,-255.25 971.74,-246.3 963.94,-238.59 971,-228.25 987.1,-204.71 1013.05,-185.29 1033.84,-172.27"/>
<polygon fill="#ffffff" stroke="#ffffff" points="958.69,-254.55 952.75,-263.33 962.87,-260.17 958.69,-254.55"/>
</g>
<!-- Reflexive Relation&#45;&gt;Relation of Equivalence -->
<g id="edge34" class="edge">
<title>Reflexive Relation&#45;&gt;Relation of Equivalence</title>
<path fill="none" stroke="#ffffff" d="M825.24,-267.35C822.46,-266.97 819.7,-266.6 817,-266.25 726.19,-254.67 700.55,-269.49 612,-246.25 595.24,-241.86 577.55,-234.42 562.94,-227.35"/>
<polygon fill="#ffffff" stroke="#ffffff" points="824.98,-270.84 835.37,-268.78 825.96,-263.91 824.98,-270.84"/>
</g>
<!-- Reflexive Relation&#45;&gt;Relations -->
<g id="edge35" class="edge">
<title>Reflexive Relation&#45;&gt;Relations</title>
<path fill="none" stroke="#ffffff" d="M827.11,-258.17C826.39,-257.55 825.69,-256.91 825,-256.25 811.08,-242.91 795.48,-189.83 787.99,-161.42"/>
<polygon fill="#ffffff" stroke="#ffffff" points="825.29,-261.17 835.47,-264.09 829.34,-255.46 825.29,-261.17"/>
</g>
<!-- Reflexive Relation&#45;&gt;Linear order -->
<g id="edge36" class="edge">
<title>Reflexive Relation&#45;&gt;Linear order</title>
<path fill="none" stroke="#ffffff" d="M962.64,-279.62C983.42,-280.35 1005.69,-281.13 1024.25,-281.78"/>
<polygon fill="#ffffff" stroke="#ffffff" points="962.7,-276.12 952.58,-279.27 962.46,-283.12 962.7,-276.12"/>
</g>
<!-- Reflexive Relation&#45;&gt;Partial order -->
<g id="edge38" class="edge">
<title>Reflexive Relation&#45;&gt;Partial order</title>
<path fill="none" stroke="#ffffff" d="M824.98,-271.96C718.85,-263.17 518.59,-246.19 447,-242.25 403.11,-239.84 352.81,-238.55 318.19,-237.69"/>
<polygon fill="#ffffff" stroke="#ffffff" points="825.01,-275.47 835.26,-272.81 825.59,-268.5 825.01,-275.47"/>
</g>
<!-- Reflexive Relation&#45;&gt;Partial orders have no contours -->
<g id="edge37" class="edge">
<title>Reflexive Relation&#45;&gt;Partial orders have no contours</title>
<path fill="none" stroke="#ffffff" d="M962.48,-265.06C965.25,-264.56 968.05,-264.05 970.87,-263.54"/>
<polygon fill="#ffffff" stroke="#ffffff" points="961.8,-261.62 952.58,-266.85 963.05,-268.51 961.8,-261.62"/>
</g>
<!-- Anti&#45;reflexive relation&#45;&gt;Relation -->
<g id="edge39" class="edge">
<title>Anti&#45;reflexive relation&#45;&gt;Relation</title>
<path fill="none" stroke="#b75867" d="M824.91,-38.73C782.39,-37.58 726.51,-36.25 677,-36.25 274,-36.25 274,-36.25 274,-36.25 229.1,-36.25 108.43,-15 72,-41.25 47.09,-59.2 38.04,-94.64 34.78,-119.81"/>
<polygon fill="#b75867" stroke="#b75867" points="31.28,-119.58 33.71,-129.89 38.25,-120.32 31.28,-119.58"/>
</g>
<!-- Anti&#45;reflexive relation&#45;&gt;Relations -->
<g id="edge40" class="edge">
<title>Anti&#45;reflexive relation&#45;&gt;Relations</title>
<path fill="none" stroke="#ffffff" d="M825.02,-65.99C815.26,-79.79 801.83,-106.76 792.74,-125.02"/>
<polygon fill="#ffffff" stroke="#ffffff" points="827.72,-68.21 831.63,-58.36 822.44,-63.62 827.72,-68.21"/>
</g>
<!-- Strongly Anti&#45;symmetric Relation&#45;&gt;Relation -->
<g id="edge41" class="edge">
<title>Strongly Anti&#45;symmetric Relation&#45;&gt;Relation</title>
<path fill="none" stroke="#b75867" d="M1248.11,-99.23C1227.03,-84.17 1195.12,-63.44 1164,-52.25 1050.59,-11.51 1015.51,-18.25 895,-18.25 274,-18.25 274,-18.25 274,-18.25 184.11,-18.25 143.33,26.45 72,-28.25 43.89,-49.81 35.7,-91.9 33.5,-120.05"/>
<polygon fill="#b75867" stroke="#b75867" points="30,-119.9 32.92,-130.09 36.99,-120.31 30,-119.9"/>
</g>
<!-- Strongly Anti&#45;symmetric Relation&#45;&gt;Relations -->
<g id="edge42" class="edge">
<title>Strongly Anti&#45;symmetric Relation&#45;&gt;Relations</title>
<path fill="none" stroke="#ffffff" d="M1161.72,-130.37C1011.95,-140.67 972.31,-133.54 825,-141.25 822.4,-141.39 819.72,-141.55 817.02,-141.71"/>
<polygon fill="#ffffff" stroke="#ffffff" points="1162.01,-133.86 1171.74,-129.67 1161.52,-126.88 1162.01,-133.86"/>
</g>
<!-- Strongly Anti&#45;symmetric Relation&#45;&gt;Linear order -->
<g id="edge43" class="edge">
<title>Strongly Anti&#45;symmetric Relation&#45;&gt;Linear order</title>
<path fill="none" stroke="#ffffff" d="M1171.57,-144.28C1159.19,-176.04 1179.89,-243.58 1164,-262.25 1151.1,-277.42 1130.04,-283.31 1110.98,-285.15"/>
<polygon fill="#ffffff" stroke="#ffffff" points="1174.78,-145.72 1176.84,-135.33 1168.75,-142.17 1174.78,-145.72"/>
</g>
<!-- Reflexive Closure&#45;&gt;Relation -->
<g id="edge45" class="edge">
<title>Reflexive Closure&#45;&gt;Relation</title>
<path fill="none" stroke="#b75867" d="M1010.69,-154.11C995.74,-151.04 980.98,-144.87 971,-133.25 955.47,-115.16 980.48,-42.47 963,-26.25 940.52,-5.39 855.6,-24.18 825,-26.25 556.03,-44.52 492.22,-81.17 224,-108.25 190.32,-111.66 103.58,-106.06 72,-118.25 68.01,-119.8 64.1,-121.9 60.39,-124.29"/>
<polygon fill="#b75867" stroke="#b75867" points="58.23,-121.54 52.17,-130.23 62.33,-127.21 58.23,-121.54"/>
</g>
<!-- Reflexive Closure&#45;&gt;Reflexive Relation -->
<g id="edge47" class="edge">
<title>Reflexive Closure&#45;&gt;Reflexive Relation</title>
<path fill="none" stroke="#b75867" d="M1035.2,-172.26C1014.2,-185.44 987.46,-205.19 971,-229.25 963.94,-239.59 971.74,-247.3 963,-256.25 962.34,-256.93 961.65,-257.59 960.95,-258.23"/>
<polygon fill="#b75867" stroke="#b75867" points="958.69,-255.55 952.75,-264.32 962.87,-261.17 958.69,-255.55"/>
</g>
<!-- Reflexive Closure&#45;&gt;Relations -->
<g id="edge48" class="edge">
<title>Reflexive Closure&#45;&gt;Relations</title>
<path fill="none" stroke="#ffffff" d="M1000.99,-147.8C988.39,-146.78 975.3,-145.86 963,-145.25 912.26,-142.77 853.36,-142.64 817.27,-142.87"/>
<polygon fill="#ffffff" stroke="#ffffff" points="1000.7,-151.29 1010.96,-148.65 1001.29,-144.32 1000.7,-151.29"/>
</g>
<!-- Reflexive Closure&#45;&gt;Relations -->
<g id="edge49" class="edge">
<title>Reflexive Closure&#45;&gt;Relations</title>
<path fill="none" stroke="#ffffff" d="M1000.99,-148.79C988.39,-147.78 975.3,-146.86 963,-146.25 912.26,-143.77 853.36,-143.64 817.27,-143.61"/>
<polygon fill="#ffffff" stroke="#ffffff" points="1000.7,-152.27 1010.96,-149.61 1001.28,-145.3 1000.7,-152.27"/>
</g>
<!-- Matrix -->
<g id="node20" class="node">
<title>Matrix</title>
<g id="a_node20"><a xlink:href="../Matrix.html" xlink:title="Matrix" target="_parent">
<path fill="#273434" stroke="#b75867" d="M1288.5,-172.25C1288.5,-172.25 1258.5,-172.25 1258.5,-172.25 1252.5,-172.25 1246.5,-166.25 1246.5,-160.25 1246.5,-160.25 1246.5,-148.25 1246.5,-148.25 1246.5,-142.25 1252.5,-136.25 1258.5,-136.25 1258.5,-136.25 1288.5,-136.25 1288.5,-136.25 1294.5,-136.25 1300.5,-142.25 1300.5,-148.25 1300.5,-148.25 1300.5,-160.25 1300.5,-160.25 1300.5,-166.25 1294.5,-172.25 1288.5,-172.25"/>
<text text-anchor="middle" x="1273.5" y="-151.15" font-family="sans" font-size="12.00" fill="#c4c7c7">Matrix</text>
</a>
</g>
</g>
<!-- Reflexive Closure&#45;&gt;Matrix -->
<g id="edge44" class="edge">
<title>Reflexive Closure&#45;&gt;Matrix</title>
<path fill="none" stroke="#b75867" d="M1124.24,-154.25C1159.81,-154.25 1204.89,-154.25 1235.95,-154.25"/>
<polygon fill="#b75867" stroke="#b75867" points="1236.31,-157.75 1246.31,-154.25 1236.31,-150.75 1236.31,-157.75"/>
</g>
<!-- Set -->
<g id="node21" class="node">
<title>Set</title>
<g id="a_node21"><a xlink:href="../Set.html" xlink:title="Set" target="_parent">
<path fill="#273434" stroke="#b75867" d="M1288.5,-209.25C1288.5,-209.25 1258.5,-209.25 1258.5,-209.25 1252.5,-209.25 1246.5,-203.25 1246.5,-197.25 1246.5,-197.25 1246.5,-185.25 1246.5,-185.25 1246.5,-179.25 1252.5,-173.25 1258.5,-173.25 1258.5,-173.25 1288.5,-173.25 1288.5,-173.25 1294.5,-173.25 1300.5,-179.25 1300.5,-185.25 1300.5,-185.25 1300.5,-197.25 1300.5,-197.25 1300.5,-203.25 1294.5,-209.25 1288.5,-209.25"/>
<text text-anchor="middle" x="1273.5" y="-188.15" font-family="sans" font-size="12.00" fill="#c4c7c7">Set</text>
</a>
</g>
</g>
<!-- Reflexive Closure&#45;&gt;Set -->
<g id="edge46" class="edge">
<title>Reflexive Closure&#45;&gt;Set</title>
<path fill="none" stroke="#b75867" d="M1124.24,-164.36C1159.96,-170.84 1205.28,-179.06 1236.36,-184.7"/>
<polygon fill="#b75867" stroke="#b75867" points="1235.85,-188.16 1246.31,-186.5 1237.1,-181.28 1235.85,-188.16"/>
</g>
<!-- Symmetric Closure&#45;&gt;Relation -->
<g id="edge51" class="edge">
<title>Symmetric Closure&#45;&gt;Relation</title>
<path fill="none" stroke="#b75867" d="M832.38,-80.63C644.03,-90.4 80.97,-118.11 72,-121.25 69.27,-122.21 66.57,-123.42 63.93,-124.8"/>
<polygon fill="#b75867" stroke="#b75867" points="62.05,-121.84 55.28,-129.99 65.66,-127.85 62.05,-121.84"/>
</g>
<!-- Symmetric Closure&#45;&gt;Symmetric Relation -->
<g id="edge53" class="edge">
<title>Symmetric Closure&#45;&gt;Symmetric Relation</title>
<path fill="none" stroke="#b75867" d="M832.62,-95.4C829.97,-96.89 827.41,-98.51 825,-100.25 820.11,-103.8 822.09,-107.99 817,-111.25 813.84,-113.28 782.4,-119.64 750.12,-125.69"/>
<polygon fill="#b75867" stroke="#b75867" points="749.29,-122.28 740.1,-127.55 750.57,-129.16 749.29,-122.28"/>
</g>
<!-- Symmetric Closure&#45;&gt;Relations -->
<g id="edge54" class="edge">
<title>Symmetric Closure&#45;&gt;Relations</title>
<path fill="none" stroke="#ffffff" d="M824.86,-101.04C819.91,-107.33 820.87,-111.33 817,-116.25 814.6,-119.31 811.79,-122.24 808.84,-124.96"/>
<polygon fill="#ffffff" stroke="#ffffff" points="827.5,-103.36 832.19,-93.86 822.6,-98.36 827.5,-103.36"/>
</g>
<!-- Symmetric Closure&#45;&gt;Relations -->
<g id="edge55" class="edge">
<title>Symmetric Closure&#45;&gt;Relations</title>
<path fill="none" stroke="#ffffff" d="M824.86,-102.04C819.91,-108.33 820.87,-112.33 817,-117.25 814.88,-119.96 812.43,-122.56 809.86,-125"/>
<polygon fill="#ffffff" stroke="#ffffff" points="827.5,-104.36 832.19,-94.86 822.6,-99.36 827.5,-104.36"/>
</g>
<!-- Symmetric Closure&#45;&gt;Matrix -->
<g id="edge50" class="edge">
<title>Symmetric Closure&#45;&gt;Matrix</title>
<path fill="none" stroke="#b75867" d="M955.73,-60.78C1016,-48.42 1107.36,-41.03 1164,-90.25 1178.34,-102.72 1158.75,-118.64 1172,-132.25 1188.49,-149.2 1214.78,-154.5 1236.35,-155.67"/>
<polygon fill="#b75867" stroke="#b75867" points="1236.39,-159.17 1246.49,-155.95 1236.58,-152.18 1236.39,-159.17"/>
</g>
<!-- Symmetric Closure&#45;&gt;Set -->
<g id="edge52" class="edge">
<title>Symmetric Closure&#45;&gt;Set</title>
<path fill="none" stroke="#b75867" d="M955.6,-77.51C1030.33,-78.43 1149.32,-82.13 1164,-96.25 1175.76,-107.57 1161.09,-157.12 1172,-169.25 1187.8,-186.83 1214.13,-192.12 1235.87,-193.12"/>
<polygon fill="#b75867" stroke="#b75867" points="1236.05,-196.62 1246.11,-193.3 1236.17,-189.62 1236.05,-196.62"/>
</g>
<!-- Relation of Equivalence&#45;&gt;Relation -->
<g id="edge62" class="edge">
<title>Relation of Equivalence&#45;&gt;Relation</title>
<path fill="none" stroke="#b75867" d="M454.76,-200.87C393.15,-193.62 302.95,-183.26 224,-176.25 159.72,-170.55 139.65,-181.16 74.18,-166.32"/>
<polygon fill="#b75867" stroke="#b75867" points="74.72,-162.86 64.18,-163.95 73.1,-169.67 74.72,-162.86"/>
</g>
<!-- Relation of Equivalence&#45;&gt;Symmetric Relation -->
<g id="edge60" class="edge">
<title>Relation of Equivalence&#45;&gt;Symmetric Relation</title>
<path fill="none" stroke="#b75867" d="M563.55,-191.17C578.27,-183.29 595.88,-174.08 612,-166.25 615.82,-164.4 619.78,-162.53 623.79,-160.67"/>
<polygon fill="#b75867" stroke="#b75867" points="625.5,-163.73 633.14,-156.39 622.59,-157.37 625.5,-163.73"/>
</g>
<!-- Relation of Equivalence&#45;&gt;Transitive Relation -->
<g id="edge59" class="edge">
<title>Relation of Equivalence&#45;&gt;Transitive Relation</title>
<path fill="none" stroke="#b75867" d="M476.52,-227.31C469.08,-229.81 461.35,-232.39 453.68,-234.94"/>
<polygon fill="#b75867" stroke="#b75867" points="452.42,-231.67 444.04,-238.15 454.63,-238.32 452.42,-231.67"/>
</g>
<!-- Relation of Equivalence&#45;&gt;Reflexive Relation -->
<g id="edge61" class="edge">
<title>Relation of Equivalence&#45;&gt;Reflexive Relation</title>
<path fill="none" stroke="#b75867" d="M564.92,-227.38C579.13,-234.08 595.99,-241.05 612,-245.25 700.55,-268.49 726.19,-253.67 817,-265.25 819.7,-265.6 822.46,-265.97 825.24,-266.35"/>
<polygon fill="#b75867" stroke="#b75867" points="824.98,-269.85 835.37,-267.79 825.96,-262.91 824.98,-269.85"/>
</g>
<!-- Relation of Equivalence&#45;&gt;Relations -->
<g id="edge64" class="edge">
<title>Relation of Equivalence&#45;&gt;Relations</title>
<path fill="none" stroke="#ffffff" d="M572.43,-186.86C584.85,-181.16 598.69,-175.68 612,-172.25 667.26,-158.02 684.76,-176.57 740,-162.25 742.61,-161.58 745.26,-160.75 747.89,-159.81"/>
<polygon fill="#ffffff" stroke="#ffffff" points="570.77,-183.77 563.24,-191.23 573.78,-190.09 570.77,-183.77"/>
</g>
<!-- Relation of Equivalence&#45;&gt;Set -->
<g id="edge57" class="edge">
<title>Relation of Equivalence&#45;&gt;Set</title>
<path fill="none" stroke="#b75867" d="M558.95,-227.31C574.18,-236.28 593.55,-246.58 612,-253.25 763.21,-307.96 810.2,-297.15 971,-298.25 1013.89,-298.55 1130.29,-324.77 1164,-298.25 1175.86,-288.92 1163.64,-277.82 1172,-265.25 1188.24,-240.84 1215.4,-221.55 1237.4,-208.8"/>
<polygon fill="#b75867" stroke="#b75867" points="1239.13,-211.84 1246.15,-203.9 1235.72,-205.73 1239.13,-211.84"/>
</g>
<!-- Class of equivalence -->
<g id="node22" class="node">
<title>Class of equivalence</title>
<g id="a_node22"><a xlink:href="../Class of equivalence.html" xlink:title="Class of equivalence" target="_parent">
<path fill="#273434" stroke="#b75867" d="M947.5,-258.25C947.5,-258.25 840.5,-258.25 840.5,-258.25 834.5,-258.25 828.5,-252.25 828.5,-246.25 828.5,-246.25 828.5,-234.25 828.5,-234.25 828.5,-228.25 834.5,-222.25 840.5,-222.25 840.5,-222.25 947.5,-222.25 947.5,-222.25 953.5,-222.25 959.5,-228.25 959.5,-234.25 959.5,-234.25 959.5,-246.25 959.5,-246.25 959.5,-252.25 953.5,-258.25 947.5,-258.25"/>
<text text-anchor="middle" x="894" y="-237.15" font-family="sans" font-size="12.00" fill="#c4c7c7">Class of equivalence</text>
</a>
</g>
</g>
<!-- Relation of Equivalence&#45;&gt;Class of equivalence -->
<g id="edge56" class="edge">
<title>Relation of Equivalence&#45;&gt;Class of equivalence</title>
<path fill="none" stroke="#b75867" d="M566.5,-227.31C580.36,-233.32 596.57,-239.25 612,-242.25 649.94,-249.64 748.57,-247.12 818.22,-244.12"/>
<polygon fill="#b75867" stroke="#b75867" points="818.45,-247.62 828.28,-243.68 818.14,-240.62 818.45,-247.62"/>
</g>
<!-- Partition -->
<g id="node23" class="node">
<title>Partition</title>
<g id="a_node23"><a xlink:href="../Partition.html" xlink:title="Partition" target="_parent">
<path fill="#273434" stroke="#b75867" d="M696.5,-245.25C696.5,-245.25 655.5,-245.25 655.5,-245.25 649.5,-245.25 643.5,-239.25 643.5,-233.25 643.5,-233.25 643.5,-221.25 643.5,-221.25 643.5,-215.25 649.5,-209.25 655.5,-209.25 655.5,-209.25 696.5,-209.25 696.5,-209.25 702.5,-209.25 708.5,-215.25 708.5,-221.25 708.5,-221.25 708.5,-233.25 708.5,-233.25 708.5,-239.25 702.5,-245.25 696.5,-245.25"/>
<text text-anchor="middle" x="676" y="-224.15" font-family="sans" font-size="12.00" fill="#c4c7c7">Partition</text>
</a>
</g>
</g>
<!-- Relation of Equivalence&#45;&gt;Partition -->
<g id="edge58" class="edge">
<title>Relation of Equivalence&#45;&gt;Partition</title>
<path fill="none" stroke="#b75867" d="M604.02,-218.41C614.05,-219.66 624.05,-220.91 633.24,-222.05"/>
<polygon fill="#b75867" stroke="#b75867" points="632.88,-225.53 643.23,-223.3 633.74,-218.59 632.88,-225.53"/>
</g>
<!-- Principle of division -->
<g id="node24" class="node">
<title>Principle of division</title>
<g id="a_node24"><a xlink:href="../Principle of division.html" xlink:title="Principle of division" target="_parent">
<path fill="none" stroke="#b75867" d="M727,-208.25C727,-208.25 625,-208.25 625,-208.25 619,-208.25 613,-202.25 613,-196.25 613,-196.25 613,-184.25 613,-184.25 613,-178.25 619,-172.25 625,-172.25 625,-172.25 727,-172.25 727,-172.25 733,-172.25 739,-178.25 739,-184.25 739,-184.25 739,-196.25 739,-196.25 739,-202.25 733,-208.25 727,-208.25"/>
<text text-anchor="middle" x="676" y="-187.15" font-family="sans" font-size="12.00" fill="#c4c7c7">Principle of division</text>
</a>
</g>
</g>
<!-- Relation of Equivalence&#45;&gt;Principle of division -->
<g id="edge63" class="edge">
<title>Relation of Equivalence&#45;&gt;Principle of division</title>
<path fill="none" stroke="#ffffff" d="M612.5,-198.47C612.6,-198.46 612.69,-198.45 612.78,-198.44"/>
<polygon fill="#ffffff" stroke="#ffffff" points="613.48,-194.81 604.02,-199.59 614.39,-201.75 613.48,-194.81"/>
</g>
<!-- Chain&#45;&gt;Relation -->
<g id="edge67" class="edge">
<title>Chain&#45;&gt;Relation</title>
<path fill="none" stroke="#b75867" d="M866.74,-115.69C826.08,-117.22 745.45,-119.25 677,-119.25 274,-119.25 274,-119.25 274,-119.25 203.29,-119.25 121.81,-132.13 74,-140.73"/>
<polygon fill="#b75867" stroke="#b75867" points="73.25,-137.31 64.04,-142.54 74.51,-144.19 73.25,-137.31"/>
</g>
<!-- Chain&#45;&gt;Relations -->
<g id="edge68" class="edge">
<title>Chain&#45;&gt;Relations</title>
<path fill="none" stroke="#ffffff" d="M856.98,-124.5C844.18,-127.95 829.84,-131.74 817.25,-135.02"/>
<polygon fill="#ffffff" stroke="#ffffff" points="858.1,-127.83 866.84,-121.83 856.27,-121.07 858.1,-127.83"/>
</g>
<!-- Chain&#45;&gt;Partial orders have no contours -->
<g id="edge65" class="edge">
<title>Chain&#45;&gt;Partial orders have no contours</title>
<path fill="none" stroke="#b75867" d="M921.29,-119.1C935.53,-123.04 952.35,-130.03 963,-142.25 972.34,-152.99 963.14,-161.39 971,-173.25 984.4,-193.47 1005.31,-210.37 1024.15,-222.81"/>
<polygon fill="#b75867" stroke="#b75867" points="1022.32,-225.78 1032.63,-228.2 1026.07,-219.88 1022.32,-225.78"/>
</g>
<!-- Contour -->
<g id="node25" class="node">
<title>Contour</title>
<g id="a_node25"><a xlink:href="../Contour.html" xlink:title="Contour" target="_parent">
<path fill="#273434" stroke="#b75867" d="M1087,-132.25C1087,-132.25 1048,-132.25 1048,-132.25 1042,-132.25 1036,-126.25 1036,-120.25 1036,-120.25 1036,-108.25 1036,-108.25 1036,-102.25 1042,-96.25 1048,-96.25 1048,-96.25 1087,-96.25 1087,-96.25 1093,-96.25 1099,-102.25 1099,-108.25 1099,-108.25 1099,-120.25 1099,-120.25 1099,-126.25 1093,-132.25 1087,-132.25"/>
<text text-anchor="middle" x="1067.5" y="-111.15" font-family="sans" font-size="12.00" fill="#c4c7c7">Contour</text>
</a>
</g>
</g>
<!-- Chain&#45;&gt;Contour -->
<g id="edge66" class="edge">
<title>Chain&#45;&gt;Contour</title>
<path fill="none" stroke="#b75867" d="M921.05,-114.25C948.87,-114.25 993.33,-114.25 1025.78,-114.25"/>
<polygon fill="#b75867" stroke="#b75867" points="1025.85,-117.75 1035.85,-114.25 1025.85,-110.75 1025.85,-117.75"/>
</g>
<!-- Partial function&#45;&gt;Relation -->
<g id="edge69" class="edge">
<title>Partial function&#45;&gt;Relation</title>
<path fill="none" stroke="#b75867" d="M96.17,-104.89C87.85,-107.73 79.5,-111.15 72,-115.25 67.7,-117.61 63.45,-120.51 59.44,-123.6"/>
<polygon fill="#b75867" stroke="#b75867" points="57.05,-121.04 51.59,-130.11 61.52,-126.43 57.05,-121.04"/>
</g>
<!-- Functions -->
<g id="node26" class="node">
<title>Functions</title>
<g id="a_node26"><a xlink:href="../Functions.html" xlink:title="Functions" target="_parent">
<path fill="none" stroke="#b75867" d="M299,-92.25C299,-92.25 251,-92.25 251,-92.25 245,-92.25 239,-86.25 239,-80.25 239,-80.25 239,-68.25 239,-68.25 239,-62.25 245,-56.25 251,-56.25 251,-56.25 299,-56.25 299,-56.25 305,-56.25 311,-62.25 311,-68.25 311,-68.25 311,-80.25 311,-80.25 311,-86.25 305,-92.25 299,-92.25"/>
<text text-anchor="middle" x="275" y="-71.15" font-family="sans" font-size="12.00" fill="#c4c7c7">Functions</text>
</a>
</g>
</g>
<!-- Partial function&#45;&gt;Functions -->
<g id="edge70" class="edge">
<title>Partial function&#45;&gt;Functions</title>
<path fill="none" stroke="#ffffff" d="M209.77,-83.5C219.76,-82.06 229.81,-80.62 238.89,-79.31"/>
<polygon fill="#ffffff" stroke="#ffffff" points="209.24,-80.04 199.84,-84.93 210.24,-86.97 209.24,-80.04"/>
</g>
<!-- Relations&#45;&gt;Relation -->
<g id="edge89" class="edge">
<title>Relations&#45;&gt;Relation</title>
<path fill="none" stroke="#b75867" d="M747.64,-153.03C745.07,-153.51 742.5,-153.93 740,-154.25 647.65,-166.34 623.64,-159.25 530.5,-159.25 274,-159.25 274,-159.25 274,-159.25 203.78,-159.25 122.14,-154.96 74.18,-151.72"/>
<polygon fill="#b75867" stroke="#b75867" points="74.4,-148.23 64.18,-151.03 73.91,-155.21 74.4,-148.23"/>
</g>
<!-- Relations&#45;&gt;Anti&#45;symmetric Relation -->
<g id="edge85" class="edge">
<title>Relations&#45;&gt;Anti&#45;symmetric Relation</title>
<path fill="none" stroke="#b75867" d="M747.72,-155.68C745.12,-156.3 742.53,-156.84 740,-157.25 648.11,-172.43 623.64,-162.25 530.5,-162.25 385.5,-162.25 385.5,-162.25 385.5,-162.25 335.02,-162.25 278.94,-168.84 234.05,-175.63"/>
<polygon fill="#b75867" stroke="#b75867" points="233.42,-172.19 224.07,-177.17 234.49,-179.11 233.42,-172.19"/>
</g>
<!-- Relations&#45;&gt;Symmetric Relation -->
<g id="edge86" class="edge">
<title>Relations&#45;&gt;Symmetric Relation</title>
<path fill="none" stroke="#b75867" d="M747.8,-142.35C747.64,-142.34 747.49,-142.33 747.33,-142.33"/>
<polygon fill="#b75867" stroke="#b75867" points="750.34,-138.96 740.2,-142.01 750.03,-145.95 750.34,-138.96"/>
</g>
<!-- Relations&#45;&gt;Transitive Relation -->
<g id="edge83" class="edge">
<title>Relations&#45;&gt;Transitive Relation</title>
<path fill="none" stroke="#b75867" d="M780.13,-161.32C777.23,-185.51 768.17,-227.65 740,-247.25 728.63,-255.17 556.95,-256.89 457.46,-256.87"/>
<polygon fill="#b75867" stroke="#b75867" points="457.18,-253.37 447.18,-256.86 457.18,-260.37 457.18,-253.37"/>
</g>
<!-- Relations&#45;&gt;Reflexive Relation -->
<g id="edge88" class="edge">
<title>Relations&#45;&gt;Reflexive Relation</title>
<path fill="none" stroke="#b75867" d="M788.11,-161.26C795.65,-189.4 811.16,-241.98 825,-255.25 825.69,-255.91 826.39,-256.55 827.11,-257.17"/>
<polygon fill="#b75867" stroke="#b75867" points="825.29,-260.17 835.47,-263.1 829.34,-254.46 825.29,-260.17"/>
</g>
<!-- Relations&#45;&gt;Anti&#45;reflexive relation -->
<g id="edge87" class="edge">
<title>Relations&#45;&gt;Anti&#45;reflexive relation</title>
<path fill="none" stroke="#b75867" d="M792.35,-125.13C801.24,-107.02 814.55,-80.21 823.63,-66.43"/>
<polygon fill="#b75867" stroke="#b75867" points="826.54,-68.39 830.06,-58.4 821.07,-64.02 826.54,-68.39"/>
</g>
<!-- Relations&#45;&gt;Strongly Anti&#45;symmetric Relation -->
<g id="edge84" class="edge">
<title>Relations&#45;&gt;Strongly Anti&#45;symmetric Relation</title>
<path fill="none" stroke="#b75867" d="M817.02,-140.72C819.72,-140.55 822.4,-140.39 825,-140.25 972.31,-132.54 1011.95,-139.67 1161.72,-129.37"/>
<polygon fill="#b75867" stroke="#b75867" points="1162.01,-132.86 1171.74,-128.67 1161.52,-125.88 1162.01,-132.86"/>
</g>
<!-- Relations&#45;&gt;Reflexive Closure -->
<g id="edge79" class="edge">
<title>Relations&#45;&gt;Reflexive Closure</title>
<path fill="none" stroke="#b75867" d="M817.02,-142.38C819.72,-142.33 822.41,-142.29 825,-142.25 886.33,-141.52 901.77,-138.72 963,-142.25 975.13,-142.96 988.03,-144.12 1000.45,-145.44"/>
<polygon fill="#b75867" stroke="#b75867" points="1000.41,-148.96 1010.74,-146.59 1001.19,-142.01 1000.41,-148.96"/>
</g>
<!-- Relations&#45;&gt;Reflexive Closure -->
<g id="edge82" class="edge">
<title>Relations&#45;&gt;Reflexive Closure</title>
<path fill="none" stroke="#b75867" d="M817.27,-142.13C853.36,-141.64 912.26,-141.77 963,-144.25 975.3,-144.86 988.39,-145.78 1000.99,-146.82"/>
<polygon fill="#b75867" stroke="#b75867" points="1000.69,-150.31 1010.96,-147.68 1001.3,-143.34 1000.69,-150.31"/>
</g>
<!-- Relations&#45;&gt;Symmetric Closure -->
<g id="edge78" class="edge">
<title>Relations&#45;&gt;Symmetric Closure</title>
<path fill="none" stroke="#b75867" d="M808.84,-124.96C811.79,-122.24 814.6,-119.31 817,-116.25 820.87,-111.33 819.91,-107.33 824.86,-101.04"/>
<polygon fill="#b75867" stroke="#b75867" points="827.5,-103.36 832.19,-93.86 822.6,-98.36 827.5,-103.36"/>
</g>
<!-- Relations&#45;&gt;Symmetric Closure -->
<g id="edge80" class="edge">
<title>Relations&#45;&gt;Symmetric Closure</title>
<path fill="none" stroke="#b75867" d="M807.47,-125.22C810.92,-122.13 814.23,-118.78 817,-115.25 820.87,-110.33 819.91,-106.33 824.86,-100.04"/>
<polygon fill="#b75867" stroke="#b75867" points="827.5,-102.36 832.19,-92.86 822.6,-97.36 827.5,-102.36"/>
</g>
<!-- Relations&#45;&gt;Relation of Equivalence -->
<g id="edge76" class="edge">
<title>Relations&#45;&gt;Relation of Equivalence</title>
<path fill="none" stroke="#b75867" d="M747.89,-160.81C745.26,-161.75 742.61,-162.58 740,-163.25 684.76,-177.57 667.26,-159.02 612,-173.25 599.41,-176.5 586.35,-181.57 574.47,-186.9"/>
<polygon fill="#b75867" stroke="#b75867" points="572.82,-183.8 565.22,-191.19 575.77,-190.15 572.82,-183.8"/>
</g>
<!-- Relations&#45;&gt;Chain -->
<g id="edge71" class="edge">
<title>Relations&#45;&gt;Chain</title>
<path fill="none" stroke="#b75867" d="M817.25,-134.32C829.84,-130.98 844.18,-127.18 856.98,-123.8"/>
<polygon fill="#b75867" stroke="#b75867" points="858.07,-127.13 866.84,-121.18 856.28,-120.36 858.07,-127.13"/>
</g>
<!-- Relations&#45;&gt;Linear order -->
<g id="edge73" class="edge">
<title>Relations&#45;&gt;Linear order</title>
<path fill="none" stroke="#b75867" d="M817.26,-141.81C866.35,-140.05 952.76,-138.44 963,-148.25 981.18,-165.67 954.64,-242.12 971,-261.25 981.71,-273.78 998,-279.98 1014.1,-282.84"/>
<polygon fill="#b75867" stroke="#b75867" points="1013.67,-286.31 1024.05,-284.22 1014.63,-279.38 1013.67,-286.31"/>
</g>
<!-- Relations&#45;&gt;Partial order -->
<g id="edge74" class="edge">
<title>Relations&#45;&gt;Partial order</title>
<path fill="none" stroke="#b75867" d="M747.78,-158.17C745.17,-158.97 742.56,-159.67 740,-160.25 684.35,-172.87 668.73,-164.07 612,-170.25 541.96,-177.89 524.15,-178.76 455,-192.25 411.74,-200.7 363.28,-213.06 327.71,-222.54"/>
<polygon fill="#b75867" stroke="#b75867" points="326.78,-219.16 318.03,-225.13 328.59,-225.92 326.78,-219.16"/>
</g>
<!-- Relations&#45;&gt;Transitive Closure -->
<g id="edge77" class="edge">
<title>Relations&#45;&gt;Transitive Closure</title>
<path fill="none" stroke="#b75867" d="M799.93,-161.35C807.07,-168.35 815.88,-175.95 825,-181.25 825.54,-181.57 826.08,-181.87 826.62,-182.18"/>
<polygon fill="#b75867" stroke="#b75867" points="825.3,-185.43 835.8,-186.79 828.44,-179.17 825.3,-185.43"/>
</g>
<!-- Relations&#45;&gt;Transitive Closure -->
<g id="edge81" class="edge">
<title>Relations&#45;&gt;Transitive Closure</title>
<path fill="none" stroke="#b75867" d="M799.14,-161.49C806.42,-168.79 815.54,-176.75 825,-182.25 825.54,-182.57 826.08,-182.87 826.62,-183.18"/>
<polygon fill="#b75867" stroke="#b75867" points="825.3,-186.43 835.8,-187.79 828.44,-180.17 825.3,-186.43"/>
</g>
<!-- Relations&#45;&gt;Class of equivalence -->
<g id="edge75" class="edge">
<title>Relations&#45;&gt;Class of equivalence</title>
<path fill="none" stroke="#b75867" d="M789.23,-161.56C794.72,-176.56 804.34,-197.68 822.66,-215.4"/>
<polygon fill="#b75867" stroke="#b75867" points="820.62,-218.26 830.43,-222.25 825.25,-213.01 820.62,-218.26"/>
</g>
<!-- Linear extension -->
<g id="node27" class="node">
<title>Linear extension</title>
<g id="a_node27"><a xlink:href="../Linear extension.html" xlink:title="Linear extension" target="_parent">
<path fill="#273434" stroke="#b75867" d="M1316.5,-301.25C1316.5,-301.25 1230.5,-301.25 1230.5,-301.25 1224.5,-301.25 1218.5,-295.25 1218.5,-289.25 1218.5,-289.25 1218.5,-277.25 1218.5,-277.25 1218.5,-271.25 1224.5,-265.25 1230.5,-265.25 1230.5,-265.25 1316.5,-265.25 1316.5,-265.25 1322.5,-265.25 1328.5,-271.25 1328.5,-277.25 1328.5,-277.25 1328.5,-289.25 1328.5,-289.25 1328.5,-295.25 1322.5,-301.25 1316.5,-301.25"/>
<text text-anchor="middle" x="1273.5" y="-280.15" font-family="sans" font-size="12.00" fill="#c4c7c7">Linear extension</text>
</a>
</g>
</g>
<!-- Relations&#45;&gt;Linear extension -->
<g id="edge72" class="edge">
<title>Relations&#45;&gt;Linear extension</title>
<path fill="none" stroke="#b75867" d="M800.02,-161.34C807.04,-167.84 815.75,-174.49 825,-178.25 853.48,-189.84 932.53,-184.13 963,-188.25 1053.26,-200.46 1077.91,-198.5 1164,-228.25 1187.89,-236.51 1213.15,-249.07 1233.28,-260.1"/>
<polygon fill="#b75867" stroke="#b75867" points="1231.71,-263.23 1242.15,-265.04 1235.12,-257.11 1231.71,-263.23"/>
</g>
<!-- Discrete Structures -->
<g id="node28" class="node">
<title>Discrete Structures</title>
<g id="a_node28"><a xlink:href="../Discrete Structures.html" xlink:title="Discrete Structures" target="_parent">
<path fill="none" stroke="#b75867" d="M943,-181.25C943,-181.25 845,-181.25 845,-181.25 839,-181.25 833,-175.25 833,-169.25 833,-169.25 833,-157.25 833,-157.25 833,-151.25 839,-145.25 845,-145.25 845,-145.25 943,-145.25 943,-145.25 949,-145.25 955,-151.25 955,-157.25 955,-157.25 955,-169.25 955,-169.25 955,-175.25 949,-181.25 943,-181.25"/>
<text text-anchor="middle" x="894" y="-160.15" font-family="sans" font-size="12.00" fill="#c4c7c7">Discrete Structures</text>
</a>
</g>
</g>
<!-- Relations&#45;&gt;Discrete Structures -->
<g id="edge90" class="edge">
<title>Relations&#45;&gt;Discrete Structures</title>
<path fill="none" stroke="#ffffff" d="M827.44,-151.28C829.27,-151.61 831.11,-151.95 832.95,-152.29"/>
<polygon fill="#ffffff" stroke="#ffffff" points="827.71,-147.77 817.25,-149.42 826.46,-154.66 827.71,-147.77"/>
</g>
<!-- Linear order&#45;&gt;Relation -->
<g id="edge95" class="edge">
<title>Linear order&#45;&gt;Relation</title>
<path fill="none" stroke="#b75867" d="M1024.31,-296.37C1005.68,-301.31 983.42,-306.42 963,-309.25 883.92,-320.24 863.34,-316.25 783.5,-316.25 274,-316.25 274,-316.25 274,-316.25 179.55,-316.25 140.52,-315.26 72,-250.25 51.52,-230.82 41.64,-199.42 36.98,-176.59"/>
<polygon fill="#b75867" stroke="#b75867" points="40.37,-175.67 35.14,-166.46 33.49,-176.93 40.37,-175.67"/>
</g>
<!-- Linear order&#45;&gt;Transitive Relation -->
<g id="edge92" class="edge">
<title>Linear order&#45;&gt;Transitive Relation</title>
<path fill="none" stroke="#b75867" d="M1024.24,-288.41C1005.5,-290.23 983.17,-292.1 963,-293.25 883.32,-297.82 863.31,-298.25 783.5,-298.25 675,-298.25 675,-298.25 675,-298.25 600.09,-298.25 515.29,-284.44 457.31,-272.66"/>
<polygon fill="#b75867" stroke="#b75867" points="457.67,-269.16 447.17,-270.56 456.25,-276.01 457.67,-269.16"/>
</g>
<!-- Linear order&#45;&gt;Reflexive Relation -->
<g id="edge94" class="edge">
<title>Linear order&#45;&gt;Reflexive Relation</title>
<path fill="none" stroke="#b75867" d="M1024.25,-282.43C1005.69,-281.87 983.42,-281.12 962.64,-280.36"/>
<polygon fill="#b75867" stroke="#b75867" points="962.71,-276.86 952.58,-279.98 962.45,-283.85 962.71,-276.86"/>
</g>
<!-- Linear order&#45;&gt;Strongly Anti&#45;symmetric Relation -->
<g id="edge93" class="edge">
<title>Linear order&#45;&gt;Strongly Anti&#45;symmetric Relation</title>
<path fill="none" stroke="#b75867" d="M1110.98,-284.25C1130.04,-282.31 1151.1,-276.42 1164,-261.25 1179.82,-242.66 1159.37,-175.63 1170.57,-144.47"/>
<polygon fill="#b75867" stroke="#b75867" points="1173.82,-145.84 1175.67,-135.41 1167.72,-142.4 1173.82,-145.84"/>
</g>
<!-- Linear order&#45;&gt;Relations -->
<g id="edge97" class="edge">
<title>Linear order&#45;&gt;Relations</title>
<path fill="none" stroke="#ffffff" d="M1014.1,-283.79C998,-280.98 981.71,-274.78 971,-262.25 954.64,-243.12 981.18,-166.67 963,-149.25 952.76,-139.44 866.35,-141.05 817.26,-142.45"/>
<polygon fill="#ffffff" stroke="#ffffff" points="1013.68,-287.26 1024.05,-285.12 1014.61,-280.32 1013.68,-287.26"/>
</g>
<!-- Linear order&#45;&gt;Partial order -->
<g id="edge91" class="edge">
<title>Linear order&#45;&gt;Partial order</title>
<path fill="none" stroke="#b75867" d="M1024.28,-289.91C1005.54,-292.33 983.21,-294.8 963,-296.25 883.4,-301.97 863.31,-301.25 783.5,-301.25 528.5,-301.25 528.5,-301.25 528.5,-301.25 437.82,-301.25 409.78,-310.95 326,-276.25 317.19,-272.6 308.61,-266.96 301.12,-261.04"/>
<polygon fill="#b75867" stroke="#b75867" points="303.37,-258.36 293.46,-254.6 298.86,-263.72 303.37,-258.36"/>
</g>
<!-- Linear order&#45;&gt;Linear extension -->
<g id="edge96" class="edge">
<title>Linear order&#45;&gt;Linear extension</title>
<path fill="none" stroke="#ffffff" d="M1120.99,-283.25C1150.82,-283.25 1188.12,-283.25 1218.25,-283.25"/>
<polygon fill="#ffffff" stroke="#ffffff" points="1120.77,-279.75 1110.77,-283.25 1120.77,-286.75 1120.77,-279.75"/>
</g>
<!-- Total function&#45;&gt;Relation -->
<g id="edge98" class="edge">
<title>Total function&#45;&gt;Relation</title>
<path fill="none" stroke="#b75867" d="M100.22,-63.85C90.18,-67.11 80.14,-71.71 72,-78.25 58.46,-89.13 48.91,-106.04 42.65,-120.51"/>
<polygon fill="#b75867" stroke="#b75867" points="39.3,-119.46 38.83,-130.04 45.8,-122.06 39.3,-119.46"/>
</g>
<!-- Total function&#45;&gt;Functions -->
<g id="edge99" class="edge">
<title>Total function&#45;&gt;Functions</title>
<path fill="none" stroke="#ffffff" d="M205.75,-63.88C216.99,-65.59 228.48,-67.34 238.75,-68.9"/>
<polygon fill="#ffffff" stroke="#ffffff" points="205.96,-60.37 195.55,-62.33 204.91,-67.29 205.96,-60.37"/>
</g>
<!-- Partial order&#45;&gt;Relation -->
<g id="edge103" class="edge">
<title>Partial order&#45;&gt;Relation</title>
<path fill="none" stroke="#b75867" d="M231.85,-241.21C188.39,-243.69 120.34,-241.06 72,-210.25 59.25,-202.13 49.86,-188.16 43.5,-175.54"/>
<polygon fill="#b75867" stroke="#b75867" points="46.59,-173.88 39.22,-166.27 40.24,-176.81 46.59,-173.88"/>
</g>
<!-- Partial order&#45;&gt;Anti&#45;symmetric Relation -->
<g id="edge101" class="edge">
<title>Partial order&#45;&gt;Anti&#45;symmetric Relation</title>
<path fill="none" stroke="#b75867" d="M231.6,-221.37C223.25,-218.33 214.37,-215.07 205.64,-211.84"/>
<polygon fill="#b75867" stroke="#b75867" points="206.85,-208.56 196.26,-208.37 204.42,-215.13 206.85,-208.56"/>
</g>
<!-- Partial order&#45;&gt;Transitive Relation -->
<g id="edge100" class="edge">
<title>Partial order&#45;&gt;Transitive Relation</title>
<path fill="none" stroke="#b75867" d="M318.02,-243.93C318.18,-243.96 318.34,-243.99 318.5,-244.02"/>
<polygon fill="#b75867" stroke="#b75867" points="315.25,-246.98 325.71,-245.33 316.51,-240.09 315.25,-246.98"/>
</g>
<!-- Partial order&#45;&gt;Reflexive Relation -->
<g id="edge102" class="edge">
<title>Partial order&#45;&gt;Reflexive Relation</title>
<path fill="none" stroke="#b75867" d="M318.19,-236.89C352.81,-237.55 403.11,-238.84 447,-241.25 518.59,-245.19 718.85,-262.17 824.98,-271.33"/>
<polygon fill="#b75867" stroke="#b75867" points="825,-274.85 835.26,-272.22 825.6,-267.87 825,-274.85"/>
</g>
<!-- Partial order&#45;&gt;Relations -->
<g id="edge105" class="edge">
<title>Partial order&#45;&gt;Relations</title>
<path fill="none" stroke="#ffffff" d="M327.71,-221.69C363.28,-212.06 411.74,-199.7 455,-191.25 524.15,-177.76 541.96,-176.89 612,-169.25 668.73,-163.07 684.35,-171.87 740,-159.25 742.56,-158.67 745.17,-157.97 747.78,-157.17"/>
<polygon fill="#ffffff" stroke="#ffffff" points="326.76,-218.33 318.03,-224.33 328.6,-225.08 326.76,-218.33"/>
</g>
<!-- Partial order&#45;&gt;Linear order -->
<g id="edge106" class="edge">
<title>Partial order&#45;&gt;Linear order</title>
<path fill="none" stroke="#ffffff" d="M302.35,-261.04C309.54,-266.57 317.67,-271.8 326,-275.25 409.78,-309.95 437.82,-300.25 528.5,-300.25 528.5,-300.25 528.5,-300.25 783.5,-300.25 863.31,-300.25 883.4,-300.97 963,-295.25 983.21,-293.8 1005.54,-291.33 1024.28,-289"/>
<polygon fill="#ffffff" stroke="#ffffff" points="304.34,-258.14 294.38,-254.51 299.9,-263.55 304.34,-258.14"/>
</g>
<!-- Partial order&#45;&gt;Partial orders have no contours -->
<g id="edge107" class="edge">
<title>Partial order&#45;&gt;Partial orders have no contours</title>
<path fill="none" stroke="#ffffff" d="M289.36,-263.3C297.8,-277.26 310.13,-293.05 326,-301.25 366,-321.94 483.46,-309.25 528.5,-309.25 528.5,-309.25 528.5,-309.25 783.5,-309.25 803.45,-309.25 947.61,-316.95 963,-304.25 975.64,-293.82 959.46,-279.89 971,-268.25 972.32,-266.93 973.7,-265.67 975.14,-264.49"/>
<polygon fill="#ffffff" stroke="#ffffff" points="292.34,-261.47 284.37,-254.49 286.25,-264.92 292.34,-261.47"/>
</g>
<!-- Partial order&#45;&gt;Linear extension -->
<g id="edge104" class="edge">
<title>Partial order&#45;&gt;Linear extension</title>
<path fill="none" stroke="#ffffff" d="M287.69,-263.9C295.93,-279.61 308.6,-297.95 326,-307.25 345.85,-317.87 505.99,-312.25 528.5,-312.25 528.5,-312.25 528.5,-312.25 895,-312.25 1014.61,-312.25 1045.12,-317.44 1164,-304.25 1181.83,-302.28 1201.11,-298.94 1218.4,-295.51"/>
<polygon fill="#ffffff" stroke="#ffffff" points="290.67,-262.02 283.14,-254.56 284.38,-265.09 290.67,-262.02"/>
</g>
</g>
</svg>
