<?xml version="1.0" encoding="UTF-8" standalone="no"?>
<!DOCTYPE svg PUBLIC "-//W3C//DTD SVG 1.1//EN"
 "http://www.w3.org/Graphics/SVG/1.1/DTD/svg11.dtd">
<!-- Generated by graphviz version 2.44.0 (0)
 -->
<!-- Title: Relations Pages: 1 -->
<svg width="2302pt" height="476pt"
 viewBox="0.00 0.00 2302.06 476.00" xmlns="http://www.w3.org/2000/svg" xmlns:xlink="http://www.w3.org/1999/xlink">
<g id="page0,1_graph0" class="graph" transform="scale(1 1) rotate(0) translate(4 472)">
<title>Relations</title>
<polygon fill="#132020" stroke="transparent" points="-4,4 -4,-472 2298.06,-472 2298.06,4 -4,4"/>
<!-- Relations -->
<g id="node1" class="node">
<title>Relations</title>
<g id="a_node1"><a xlink:title="Relations">
<path fill="#273434" stroke="#b75867" d="M659,-468C659,-468 614,-468 614,-468 608,-468 602,-462 602,-456 602,-456 602,-444 602,-444 602,-438 608,-432 614,-432 614,-432 659,-432 659,-432 665,-432 671,-438 671,-444 671,-444 671,-456 671,-456 671,-462 665,-468 659,-468"/>
<text text-anchor="middle" x="636.5" y="-446.9" font-family="sans" font-size="12.00" fill="#c4c7c7">Relations</text>
</a>
</g>
</g>
<!-- Chain -->
<g id="node2" class="node">
<title>Chain</title>
<g id="a_node2"><a xlink:title="Chain">
<path fill="#273434" stroke="#b75867" d="M106.5,-252C106.5,-252 76.5,-252 76.5,-252 70.5,-252 64.5,-246 64.5,-240 64.5,-240 64.5,-228 64.5,-228 64.5,-222 70.5,-216 76.5,-216 76.5,-216 106.5,-216 106.5,-216 112.5,-216 118.5,-222 118.5,-228 118.5,-228 118.5,-240 118.5,-240 118.5,-246 112.5,-252 106.5,-252"/>
<text text-anchor="middle" x="91.5" y="-230.9" font-family="sans" font-size="12.00" fill="#c4c7c7">Chain</text>
</a>
</g>
</g>
<!-- Relations&#45;&gt;Chain -->
<g id="edge1" class="edge">
<title>Relations&#45;&gt;Chain</title>
<path fill="none" stroke="#b75867" d="M601.83,-449.25C506,-449.31 239.97,-444.96 170.5,-396 125.33,-364.17 104.82,-299.09 96.49,-262.16"/>
<polygon fill="#b75867" stroke="#b75867" points="99.86,-261.17 94.37,-252.11 93.01,-262.62 99.86,-261.17"/>
</g>
<!-- Relation -->
<g id="node5" class="node">
<title>Relation</title>
<g id="a_node5"><a xlink:title="Relation">
<path fill="#273434" stroke="#b75867" d="M595.5,-108C595.5,-108 555.5,-108 555.5,-108 549.5,-108 543.5,-102 543.5,-96 543.5,-96 543.5,-84 543.5,-84 543.5,-78 549.5,-72 555.5,-72 555.5,-72 595.5,-72 595.5,-72 601.5,-72 607.5,-78 607.5,-84 607.5,-84 607.5,-96 607.5,-96 607.5,-102 601.5,-108 595.5,-108"/>
<text text-anchor="middle" x="575.5" y="-86.9" font-family="sans" font-size="12.00" fill="#c4c7c7">Relation</text>
</a>
</g>
</g>
<!-- Relations&#45;&gt;Relation -->
<g id="edge16" class="edge">
<title>Relations&#45;&gt;Relation</title>
<path fill="none" stroke="#b75867" d="M671.17,-448.46C710.93,-445.88 775.29,-435.37 811.5,-396 838.88,-366.23 830.5,-347.45 830.5,-307 830.5,-307 830.5,-307 830.5,-233 830.5,-125.97 726.94,-142.31 617.19,-107.91"/>
<polygon fill="#b75867" stroke="#b75867" points="618.17,-104.55 607.58,-104.77 615.99,-111.2 618.17,-104.55"/>
</g>
<!-- Linear extension -->
<g id="node6" class="node">
<title>Linear extension</title>
<g id="a_node6"><a xlink:title="Linear extension">
<path fill="#273434" stroke="#b75867" d="M520.5,-396C520.5,-396 434.5,-396 434.5,-396 428.5,-396 422.5,-390 422.5,-384 422.5,-384 422.5,-372 422.5,-372 422.5,-366 428.5,-360 434.5,-360 434.5,-360 520.5,-360 520.5,-360 526.5,-360 532.5,-366 532.5,-372 532.5,-372 532.5,-384 532.5,-384 532.5,-390 526.5,-396 520.5,-396"/>
<text text-anchor="middle" x="477.5" y="-374.9" font-family="sans" font-size="12.00" fill="#c4c7c7">Linear extension</text>
</a>
</g>
</g>
<!-- Relations&#45;&gt;Linear extension -->
<g id="edge2" class="edge">
<title>Relations&#45;&gt;Linear extension</title>
<path fill="none" stroke="#b75867" d="M602,-433.81C579.57,-423.93 550,-410.92 525.32,-400.05"/>
<polygon fill="#b75867" stroke="#b75867" points="526.68,-396.83 516.12,-396 523.86,-403.23 526.68,-396.83"/>
</g>
<!-- Linear order -->
<g id="node7" class="node">
<title>Linear order</title>
<g id="a_node7"><a xlink:title="Linear order">
<path fill="#273434" stroke="#b75867" d="M534.5,-324C534.5,-324 472.5,-324 472.5,-324 466.5,-324 460.5,-318 460.5,-312 460.5,-312 460.5,-300 460.5,-300 460.5,-294 466.5,-288 472.5,-288 472.5,-288 534.5,-288 534.5,-288 540.5,-288 546.5,-294 546.5,-300 546.5,-300 546.5,-312 546.5,-312 546.5,-318 540.5,-324 534.5,-324"/>
<text text-anchor="middle" x="503.5" y="-302.9" font-family="sans" font-size="12.00" fill="#c4c7c7">Linear order</text>
</a>
</g>
</g>
<!-- Relations&#45;&gt;Linear order -->
<g id="edge3" class="edge">
<title>Relations&#45;&gt;Linear order</title>
<path fill="none" stroke="#b75867" d="M619.47,-431.97C609.24,-421.66 596.01,-408.18 584.5,-396 564.34,-374.67 541.91,-349.95 525.78,-331.98"/>
<polygon fill="#b75867" stroke="#b75867" points="528.12,-329.35 518.84,-324.24 522.91,-334.02 528.12,-329.35"/>
</g>
<!-- Partial order -->
<g id="node8" class="node">
<title>Partial order</title>
<g id="a_node8"><a xlink:title="Partial order">
<path fill="#273434" stroke="#b75867" d="M376.5,-252C376.5,-252 314.5,-252 314.5,-252 308.5,-252 302.5,-246 302.5,-240 302.5,-240 302.5,-228 302.5,-228 302.5,-222 308.5,-216 314.5,-216 314.5,-216 376.5,-216 376.5,-216 382.5,-216 388.5,-222 388.5,-228 388.5,-228 388.5,-240 388.5,-240 388.5,-246 382.5,-252 376.5,-252"/>
<text text-anchor="middle" x="345.5" y="-230.9" font-family="sans" font-size="12.00" fill="#c4c7c7">Partial order</text>
</a>
</g>
</g>
<!-- Relations&#45;&gt;Partial order -->
<g id="edge4" class="edge">
<title>Relations&#45;&gt;Partial order</title>
<path fill="none" stroke="#b75867" d="M601.82,-446.43C539.31,-441.07 411.38,-426.58 380.5,-396 344.86,-360.71 341.62,-298.22 343.12,-262.36"/>
<polygon fill="#b75867" stroke="#b75867" points="346.63,-262.32 343.71,-252.14 339.64,-261.92 346.63,-262.32"/>
</g>
<!-- Transitive Relation -->
<g id="node9" class="node">
<title>Transitive Relation</title>
<g id="a_node9"><a xlink:title="Transitive Relation">
<path fill="#273434" stroke="#b75867" d="M267,-180C267,-180 170,-180 170,-180 164,-180 158,-174 158,-168 158,-168 158,-156 158,-156 158,-150 164,-144 170,-144 170,-144 267,-144 267,-144 273,-144 279,-150 279,-156 279,-156 279,-168 279,-168 279,-174 273,-180 267,-180"/>
<text text-anchor="middle" x="218.5" y="-158.9" font-family="sans" font-size="12.00" fill="#c4c7c7">Transitive Relation</text>
</a>
</g>
</g>
<!-- Relations&#45;&gt;Transitive Relation -->
<g id="edge10" class="edge">
<title>Relations&#45;&gt;Transitive Relation</title>
<path fill="none" stroke="#b75867" d="M601.65,-448.91C538.93,-447.59 403.96,-439.43 300.5,-396 251,-375.22 227.63,-371.96 203.5,-324 181.78,-280.82 196.06,-222.89 207.74,-189.59"/>
<polygon fill="#b75867" stroke="#b75867" points="211.07,-190.68 211.24,-180.08 204.5,-188.26 211.07,-190.68"/>
</g>
<!-- Strongly Anti&#45;symmetric Relation -->
<g id="node10" class="node">
<title>Strongly Anti&#45;symmetric Relation</title>
<g id="a_node10"><a xlink:title="Strongly Anti&#45;symmetric Relation">
<path fill="#273434" stroke="#b75867" d="M752,-252C752,-252 573,-252 573,-252 567,-252 561,-246 561,-240 561,-240 561,-228 561,-228 561,-222 567,-216 573,-216 573,-216 752,-216 752,-216 758,-216 764,-222 764,-228 764,-228 764,-240 764,-240 764,-246 758,-252 752,-252"/>
<text text-anchor="middle" x="662.5" y="-230.9" font-family="sans" font-size="12.00" fill="#c4c7c7">Strongly Anti&#45;symmetric Relation</text>
</a>
</g>
</g>
<!-- Relations&#45;&gt;Strongly Anti&#45;symmetric Relation -->
<g id="edge11" class="edge">
<title>Relations&#45;&gt;Strongly Anti&#45;symmetric Relation</title>
<path fill="none" stroke="#b75867" d="M638.58,-431.85C643.08,-394.83 653.73,-307.18 659.17,-262.39"/>
<polygon fill="#b75867" stroke="#b75867" points="662.67,-262.58 660.41,-252.23 655.73,-261.74 662.67,-262.58"/>
</g>
<!-- Reflexive Relation -->
<g id="node11" class="node">
<title>Reflexive Relation</title>
<g id="a_node11"><a xlink:title="Reflexive Relation">
<path fill="#273434" stroke="#b75867" d="M649,-180C649,-180 556,-180 556,-180 550,-180 544,-174 544,-168 544,-168 544,-156 544,-156 544,-150 550,-144 556,-144 556,-144 649,-144 649,-144 655,-144 661,-150 661,-156 661,-156 661,-168 661,-168 661,-174 655,-180 649,-180"/>
<text text-anchor="middle" x="602.5" y="-158.9" font-family="sans" font-size="12.00" fill="#c4c7c7">Reflexive Relation</text>
</a>
</g>
</g>
<!-- Relations&#45;&gt;Reflexive Relation -->
<g id="edge15" class="edge">
<title>Relations&#45;&gt;Reflexive Relation</title>
<path fill="none" stroke="#b75867" d="M601.66,-445.89C544.92,-440.02 436.57,-425.19 413.5,-396 375.08,-347.38 385.07,-301.13 469.5,-216 479.88,-205.53 509.18,-193.39 537.65,-183.37"/>
<polygon fill="#b75867" stroke="#b75867" points="538.94,-186.63 547.25,-180.06 536.65,-180.01 538.94,-186.63"/>
</g>
<!-- Anti&#45;symmetric Relation -->
<g id="node12" class="node">
<title>Anti&#45;symmetric Relation</title>
<g id="a_node12"><a xlink:title="Anti&#45;symmetric Relation">
<path fill="#273434" stroke="#b75867" d="M513.5,-180C513.5,-180 385.5,-180 385.5,-180 379.5,-180 373.5,-174 373.5,-168 373.5,-168 373.5,-156 373.5,-156 373.5,-150 379.5,-144 385.5,-144 385.5,-144 513.5,-144 513.5,-144 519.5,-144 525.5,-150 525.5,-156 525.5,-156 525.5,-168 525.5,-168 525.5,-174 519.5,-180 513.5,-180"/>
<text text-anchor="middle" x="449.5" y="-158.9" font-family="sans" font-size="12.00" fill="#c4c7c7">Anti&#45;symmetric Relation</text>
</a>
</g>
</g>
<!-- Relations&#45;&gt;Anti&#45;symmetric Relation -->
<g id="edge12" class="edge">
<title>Relations&#45;&gt;Anti&#45;symmetric Relation</title>
<path fill="none" stroke="#b75867" d="M629.47,-431.82C616.74,-401.57 588.14,-337.31 555.5,-288 530.7,-250.53 496.16,-211.73 473.34,-187.49"/>
<polygon fill="#b75867" stroke="#b75867" points="475.79,-184.99 466.37,-180.15 470.72,-189.81 475.79,-184.99"/>
</g>
<!-- Class of equivalence -->
<g id="node13" class="node">
<title>Class of equivalence</title>
<g id="a_node13"><a xlink:title="Class of equivalence">
<path fill="#273434" stroke="#b75867" d="M1278,-324C1278,-324 1171,-324 1171,-324 1165,-324 1159,-318 1159,-312 1159,-312 1159,-300 1159,-300 1159,-294 1165,-288 1171,-288 1171,-288 1278,-288 1278,-288 1284,-288 1290,-294 1290,-300 1290,-300 1290,-312 1290,-312 1290,-318 1284,-324 1278,-324"/>
<text text-anchor="middle" x="1224.5" y="-302.9" font-family="sans" font-size="12.00" fill="#c4c7c7">Class of equivalence</text>
</a>
</g>
</g>
<!-- Relations&#45;&gt;Class of equivalence -->
<g id="edge5" class="edge">
<title>Relations&#45;&gt;Class of equivalence</title>
<path fill="none" stroke="#b75867" d="M671.19,-446.31C749.68,-439.84 938.57,-421.98 996.5,-396 1019.24,-385.8 1017.49,-371.69 1039.5,-360 1073.34,-342.04 1113.99,-329.53 1148.55,-321.2"/>
<polygon fill="#b75867" stroke="#b75867" points="1149.66,-324.53 1158.6,-318.85 1148.06,-317.72 1149.66,-324.53"/>
</g>
<!-- Relation of Equivalence -->
<g id="node16" class="node">
<title>Relation of Equivalence</title>
<g id="a_node16"><a xlink:title="Relation of Equivalence">
<path fill="#273434" stroke="#b75867" d="M1165,-252C1165,-252 1040,-252 1040,-252 1034,-252 1028,-246 1028,-240 1028,-240 1028,-228 1028,-228 1028,-222 1034,-216 1040,-216 1040,-216 1165,-216 1165,-216 1171,-216 1177,-222 1177,-228 1177,-228 1177,-240 1177,-240 1177,-246 1171,-252 1165,-252"/>
<text text-anchor="middle" x="1102.5" y="-230.9" font-family="sans" font-size="12.00" fill="#c4c7c7">Relation of Equivalence</text>
</a>
</g>
</g>
<!-- Relations&#45;&gt;Relation of Equivalence -->
<g id="edge6" class="edge">
<title>Relations&#45;&gt;Relation of Equivalence</title>
<path fill="none" stroke="#b75867" d="M671.4,-445.65C735.16,-438.96 867.33,-422.29 904.5,-396 950.05,-363.78 926.05,-324.21 968.5,-288 984.85,-274.05 1005.31,-263.5 1025.29,-255.63"/>
<polygon fill="#b75867" stroke="#b75867" points="1026.59,-258.88 1034.73,-252.09 1024.13,-252.33 1026.59,-258.88"/>
</g>
<!-- Symmetric Relation -->
<g id="node17" class="node">
<title>Symmetric Relation</title>
<g id="a_node17"><a xlink:title="Symmetric Relation">
<path fill="#273434" stroke="#b75867" d="M1050.5,-180C1050.5,-180 946.5,-180 946.5,-180 940.5,-180 934.5,-174 934.5,-168 934.5,-168 934.5,-156 934.5,-156 934.5,-150 940.5,-144 946.5,-144 946.5,-144 1050.5,-144 1050.5,-144 1056.5,-144 1062.5,-150 1062.5,-156 1062.5,-156 1062.5,-168 1062.5,-168 1062.5,-174 1056.5,-180 1050.5,-180"/>
<text text-anchor="middle" x="998.5" y="-158.9" font-family="sans" font-size="12.00" fill="#c4c7c7">Symmetric Relation</text>
</a>
</g>
</g>
<!-- Relations&#45;&gt;Symmetric Relation -->
<g id="edge13" class="edge">
<title>Relations&#45;&gt;Symmetric Relation</title>
<path fill="none" stroke="#b75867" d="M671.31,-444.5C724,-436.99 820.44,-420.29 844.5,-396 902.45,-337.48 836.67,-280 888.5,-216 899.49,-202.44 914.78,-192.11 930.49,-184.35"/>
<polygon fill="#b75867" stroke="#b75867" points="932.14,-187.45 939.75,-180.07 929.2,-181.09 932.14,-187.45"/>
</g>
<!-- Transitive Closure -->
<g id="node18" class="node">
<title>Transitive Closure</title>
<g id="a_node18"><a xlink:title="Transitive Closure">
<path fill="#273434" stroke="#b75867" d="M316.5,-324C316.5,-324 224.5,-324 224.5,-324 218.5,-324 212.5,-318 212.5,-312 212.5,-312 212.5,-300 212.5,-300 212.5,-294 218.5,-288 224.5,-288 224.5,-288 316.5,-288 316.5,-288 322.5,-288 328.5,-294 328.5,-300 328.5,-300 328.5,-312 328.5,-312 328.5,-318 322.5,-324 316.5,-324"/>
<text text-anchor="middle" x="270.5" y="-302.9" font-family="sans" font-size="12.00" fill="#c4c7c7">Transitive Closure</text>
</a>
</g>
</g>
<!-- Relations&#45;&gt;Transitive Closure -->
<g id="edge7" class="edge">
<title>Relations&#45;&gt;Transitive Closure</title>
<path fill="none" stroke="#b75867" d="M601.79,-445.79C533.82,-439.03 386.02,-421.76 342.5,-396 317.14,-380.99 297,-353.5 284.54,-333.04"/>
<polygon fill="#b75867" stroke="#b75867" points="287.44,-331.06 279.37,-324.19 281.4,-334.59 287.44,-331.06"/>
</g>
<!-- Symmetric Closure -->
<g id="node19" class="node">
<title>Symmetric Closure</title>
<g id="a_node19"><a xlink:title="Symmetric Closure">
<path fill="#273434" stroke="#b75867" d="M1306,-252C1306,-252 1207,-252 1207,-252 1201,-252 1195,-246 1195,-240 1195,-240 1195,-228 1195,-228 1195,-222 1201,-216 1207,-216 1207,-216 1306,-216 1306,-216 1312,-216 1318,-222 1318,-228 1318,-228 1318,-240 1318,-240 1318,-246 1312,-252 1306,-252"/>
<text text-anchor="middle" x="1256.5" y="-230.9" font-family="sans" font-size="12.00" fill="#c4c7c7">Symmetric Closure</text>
</a>
</g>
</g>
<!-- Relations&#45;&gt;Symmetric Closure -->
<g id="edge8" class="edge">
<title>Relations&#45;&gt;Symmetric Closure</title>
<path fill="none" stroke="#b75867" d="M671.06,-446.48C727.13,-441.58 840.8,-428.26 931.5,-396 962.61,-384.93 967.16,-375.16 996.5,-360 1070.22,-321.9 1157.43,-280.76 1209.78,-256.47"/>
<polygon fill="#b75867" stroke="#b75867" points="1211.54,-259.51 1219.14,-252.14 1208.59,-253.16 1211.54,-259.51"/>
</g>
<!-- Reflexive Closure -->
<g id="node21" class="node">
<title>Reflexive Closure</title>
<g id="a_node21"><a xlink:title="Reflexive Closure">
<path fill="#273434" stroke="#b75867" d="M998,-252C998,-252 909,-252 909,-252 903,-252 897,-246 897,-240 897,-240 897,-228 897,-228 897,-222 903,-216 909,-216 909,-216 998,-216 998,-216 1004,-216 1010,-222 1010,-228 1010,-228 1010,-240 1010,-240 1010,-246 1004,-252 998,-252"/>
<text text-anchor="middle" x="953.5" y="-230.9" font-family="sans" font-size="12.00" fill="#c4c7c7">Reflexive Closure</text>
</a>
</g>
</g>
<!-- Relations&#45;&gt;Reflexive Closure -->
<g id="edge9" class="edge">
<title>Relations&#45;&gt;Reflexive Closure</title>
<path fill="none" stroke="#b75867" d="M671.18,-445.42C731.03,-438.63 850.41,-422.15 882.5,-396 883.91,-394.85 922.36,-306.67 942.07,-261.32"/>
<polygon fill="#b75867" stroke="#b75867" points="945.31,-262.64 946.09,-252.08 938.89,-259.85 945.31,-262.64"/>
</g>
<!-- Anti&#45;reflexive relation -->
<g id="node22" class="node">
<title>Anti&#45;reflexive relation</title>
<g id="a_node22"><a xlink:title="Anti&#45;reflexive relation">
<path fill="#273434" stroke="#b75867" d="M790.5,-396C790.5,-396 676.5,-396 676.5,-396 670.5,-396 664.5,-390 664.5,-384 664.5,-384 664.5,-372 664.5,-372 664.5,-366 670.5,-360 676.5,-360 676.5,-360 790.5,-360 790.5,-360 796.5,-360 802.5,-366 802.5,-372 802.5,-372 802.5,-384 802.5,-384 802.5,-390 796.5,-396 790.5,-396"/>
<text text-anchor="middle" x="733.5" y="-374.9" font-family="sans" font-size="12.00" fill="#c4c7c7">Anti&#45;reflexive relation</text>
</a>
</g>
</g>
<!-- Relations&#45;&gt;Anti&#45;reflexive relation -->
<g id="edge14" class="edge">
<title>Relations&#45;&gt;Anti&#45;reflexive relation</title>
<path fill="none" stroke="#b75867" d="M660.48,-431.7C672.81,-422.8 688.02,-411.82 701.35,-402.2"/>
<polygon fill="#b75867" stroke="#b75867" points="703.74,-404.79 709.8,-396.1 699.64,-399.12 703.74,-404.79"/>
</g>
<!-- Discrete Structures -->
<g id="node24" class="node">
<title>Discrete Structures</title>
<g id="a_node24"><a xlink:title="Discrete Structures">
<ellipse fill="#273434" stroke="#b75867" cx="1123.5" cy="-378" rx="75.2" ry="18"/>
<text text-anchor="middle" x="1123.5" y="-374.9" font-family="sans" font-size="12.00" fill="#c4c7c7">Discrete Structures</text>
</a>
</g>
</g>
<!-- Relations&#45;&gt;Discrete Structures -->
<g id="edge57" class="edge">
<title>Relations&#45;&gt;Discrete Structures</title>
<path fill="none" stroke="#ffffff" d="M681.53,-443.84C755.41,-435.19 906.94,-416.66 1034.5,-396 1045.21,-394.26 1056.62,-392.23 1067.56,-390.18"/>
<polygon fill="#ffffff" stroke="#ffffff" points="680.73,-440.41 671.2,-445.05 681.54,-447.36 680.73,-440.41"/>
</g>
<!-- Partial orders have no contours -->
<g id="node3" class="node">
<title>Partial orders have no contours</title>
<g id="a_node3"><a xlink:title="Partial orders have no contours">
<path fill="#273434" stroke="#b75867" d="M303,-108C303,-108 134,-108 134,-108 128,-108 122,-102 122,-96 122,-96 122,-84 122,-84 122,-78 128,-72 134,-72 134,-72 303,-72 303,-72 309,-72 315,-78 315,-84 315,-84 315,-96 315,-96 315,-102 309,-108 303,-108"/>
<text text-anchor="middle" x="218.5" y="-86.9" font-family="sans" font-size="12.00" fill="#c4c7c7">Partial orders have no contours</text>
</a>
</g>
</g>
<!-- Chain&#45;&gt;Partial orders have no contours -->
<g id="edge17" class="edge">
<title>Chain&#45;&gt;Partial orders have no contours</title>
<path fill="none" stroke="#b75867" d="M92.1,-215.75C93.61,-196.33 98.71,-164.79 115.5,-144 126.33,-130.6 141.45,-120.23 156.77,-112.36"/>
<polygon fill="#b75867" stroke="#b75867" points="158.3,-115.51 165.79,-108.02 155.26,-109.21 158.3,-115.51"/>
</g>
<!-- Contour -->
<g id="node4" class="node">
<title>Contour</title>
<g id="a_node4"><a xlink:title="Contour">
<path fill="#273434" stroke="#b75867" d="M51,-180C51,-180 12,-180 12,-180 6,-180 0,-174 0,-168 0,-168 0,-156 0,-156 0,-150 6,-144 12,-144 12,-144 51,-144 51,-144 57,-144 63,-150 63,-156 63,-156 63,-168 63,-168 63,-174 57,-180 51,-180"/>
<text text-anchor="middle" x="31.5" y="-158.9" font-family="sans" font-size="12.00" fill="#c4c7c7">Contour</text>
</a>
</g>
</g>
<!-- Chain&#45;&gt;Contour -->
<g id="edge18" class="edge">
<title>Chain&#45;&gt;Contour</title>
<path fill="none" stroke="#b75867" d="M70.75,-215.7C62.78,-207.39 53.91,-197.28 46.54,-188.14"/>
<polygon fill="#b75867" stroke="#b75867" points="49.18,-185.83 40.27,-180.1 43.66,-190.14 49.18,-185.83"/>
</g>
<!-- Chain&#45;&gt;Contour -->
<g id="edge58" class="edge">
<title>Chain&#45;&gt;Contour</title>
<path fill="none" stroke="#ffffff" d="M76.28,-207.64C68.89,-198.49 60.02,-188.38 52.06,-180.1"/>
<polygon fill="#ffffff" stroke="#ffffff" points="73.67,-209.98 82.58,-215.7 79.18,-205.66 73.67,-209.98"/>
</g>
<!-- Chain&#45;&gt;Relation -->
<g id="edge19" class="edge">
<title>Chain&#45;&gt;Relation</title>
<path fill="none" stroke="#b75867" d="M100.3,-215.67C112.52,-192.33 134.68,-152.71 148.5,-144 180.66,-123.73 431.62,-102.19 533.12,-94.21"/>
<polygon fill="#b75867" stroke="#b75867" points="533.62,-97.68 543.31,-93.42 533.07,-90.7 533.62,-97.68"/>
</g>
<!-- Contour&#45;&gt;Partial orders have no contours -->
<g id="edge59" class="edge">
<title>Contour&#45;&gt;Partial orders have no contours</title>
<path fill="none" stroke="#ffffff" d="M72.85,-145.52C102.48,-134.43 142.38,-119.49 172.93,-108.06"/>
<polygon fill="#ffffff" stroke="#ffffff" points="71.36,-142.34 63.22,-149.13 73.81,-148.9 71.36,-142.34"/>
</g>
<!-- Descartes Product -->
<g id="node23" class="node">
<title>Descartes Product</title>
<g id="a_node23"><a xlink:title="Descartes Product">
<path fill="#273434" stroke="#b75867" d="M482,-36C482,-36 387,-36 387,-36 381,-36 375,-30 375,-24 375,-24 375,-12 375,-12 375,-6 381,0 387,0 387,0 482,0 482,0 488,0 494,-6 494,-12 494,-12 494,-24 494,-24 494,-30 488,-36 482,-36"/>
<text text-anchor="middle" x="434.5" y="-14.9" font-family="sans" font-size="12.00" fill="#c4c7c7">Descartes Product</text>
</a>
</g>
</g>
<!-- Relation&#45;&gt;Descartes Product -->
<g id="edge56" class="edge">
<title>Relation&#45;&gt;Descartes Product</title>
<path fill="none" stroke="#b75867" d="M543.15,-72.94C523.89,-63.38 499.18,-51.11 478.2,-40.7"/>
<polygon fill="#b75867" stroke="#b75867" points="479.68,-37.52 469.16,-36.21 476.56,-43.79 479.68,-37.52"/>
</g>
<!-- Partial function -->
<g id="node25" class="node">
<title>Partial function</title>
<g id="a_node25"><a xlink:title="Partial function">
<ellipse fill="#273434" stroke="#b75867" cx="575.5" cy="-18" rx="63.31" ry="18"/>
<text text-anchor="middle" x="575.5" y="-14.9" font-family="sans" font-size="12.00" fill="#c4c7c7">Partial function</text>
</a>
</g>
</g>
<!-- Relation&#45;&gt;Partial function -->
<g id="edge60" class="edge">
<title>Relation&#45;&gt;Partial function</title>
<path fill="none" stroke="#ffffff" d="M575.5,-61.67C575.5,-53.05 575.5,-43.79 575.5,-36.1"/>
<polygon fill="#ffffff" stroke="#ffffff" points="572,-61.7 575.5,-71.7 579,-61.7 572,-61.7"/>
</g>
<!-- Total function -->
<g id="node26" class="node">
<title>Total function</title>
<g id="a_node26"><a xlink:title="Total function">
<ellipse fill="#273434" stroke="#b75867" cx="715.5" cy="-18" rx="58.46" ry="18"/>
<text text-anchor="middle" x="715.5" y="-14.9" font-family="sans" font-size="12.00" fill="#c4c7c7">Total function</text>
</a>
</g>
</g>
<!-- Relation&#45;&gt;Total function -->
<g id="edge61" class="edge">
<title>Relation&#45;&gt;Total function</title>
<path fill="none" stroke="#ffffff" d="M616.81,-68.35C639,-57.25 665.83,-43.83 685.92,-33.79"/>
<polygon fill="#ffffff" stroke="#ffffff" points="615,-65.34 607.62,-72.94 618.13,-71.6 615,-65.34"/>
</g>
<!-- Linear extension&#45;&gt;Linear order -->
<g id="edge20" class="edge">
<title>Linear extension&#45;&gt;Linear order</title>
<path fill="none" stroke="#b75867" d="M483.93,-359.7C486.86,-351.81 490.39,-342.3 493.64,-333.55"/>
<polygon fill="#b75867" stroke="#b75867" points="496.95,-334.7 497.15,-324.1 490.38,-332.26 496.95,-334.7"/>
</g>
<!-- Linear extension&#45;&gt;Partial order -->
<g id="edge21" class="edge">
<title>Linear extension&#45;&gt;Partial order</title>
<path fill="none" stroke="#b75867" d="M461.58,-359.87C438.39,-334.92 395.19,-288.45 368.53,-259.77"/>
<polygon fill="#b75867" stroke="#b75867" points="370.85,-257.13 361.48,-252.19 365.72,-261.9 370.85,-257.13"/>
</g>
<!-- Linear order&#45;&gt;Relation -->
<g id="edge26" class="edge">
<title>Linear order&#45;&gt;Relation</title>
<path fill="none" stroke="#b75867" d="M508.61,-287.66C515.41,-267.56 529.36,-234.79 552.5,-216 595.07,-181.45 637.87,-224.07 670.5,-180 680.02,-167.14 678.6,-157.8 670.5,-144 664.24,-133.34 639.52,-119.71 616.87,-108.95"/>
<polygon fill="#b75867" stroke="#b75867" points="618.23,-105.72 607.68,-104.68 615.28,-112.07 618.23,-105.72"/>
</g>
<!-- Linear order&#45;&gt;Partial order -->
<g id="edge22" class="edge">
<title>Linear order&#45;&gt;Partial order</title>
<path fill="none" stroke="#b75867" d="M464.85,-287.88C443.25,-278.31 416.15,-266.3 393.23,-256.15"/>
<polygon fill="#b75867" stroke="#b75867" points="394.59,-252.92 384.03,-252.07 391.75,-259.32 394.59,-252.92"/>
</g>
<!-- Linear order&#45;&gt;Transitive Relation -->
<g id="edge23" class="edge">
<title>Linear order&#45;&gt;Transitive Relation</title>
<path fill="none" stroke="#b75867" d="M460.24,-301.87C415.52,-296.94 345.15,-284.3 293.5,-252 279.92,-243.51 254.4,-211.4 236.93,-188.19"/>
<polygon fill="#b75867" stroke="#b75867" points="239.68,-186.02 230.9,-180.1 234.07,-190.21 239.68,-186.02"/>
</g>
<!-- Linear order&#45;&gt;Strongly Anti&#45;symmetric Relation -->
<g id="edge24" class="edge">
<title>Linear order&#45;&gt;Strongly Anti&#45;symmetric Relation</title>
<path fill="none" stroke="#b75867" d="M542.4,-287.88C564.13,-278.31 591.4,-266.3 614.46,-256.15"/>
<polygon fill="#b75867" stroke="#b75867" points="615.99,-259.3 623.73,-252.07 613.17,-252.89 615.99,-259.3"/>
</g>
<!-- Linear order&#45;&gt;Reflexive Relation -->
<g id="edge25" class="edge">
<title>Linear order&#45;&gt;Reflexive Relation</title>
<path fill="none" stroke="#b75867" d="M491.58,-287.95C479.96,-269 465.97,-238.15 480.5,-216 487.75,-204.95 512.9,-193.19 538.49,-183.56"/>
<polygon fill="#b75867" stroke="#b75867" points="539.72,-186.84 547.91,-180.11 537.32,-180.26 539.72,-186.84"/>
</g>
<!-- Partial order&#45;&gt;Partial orders have no contours -->
<g id="edge62" class="edge">
<title>Partial order&#45;&gt;Partial orders have no contours</title>
<path fill="none" stroke="#ffffff" d="M331.63,-206.87C321,-188.2 305.18,-163.11 287.5,-144 274.88,-130.36 258.46,-117.6 244.8,-108.01"/>
<polygon fill="#ffffff" stroke="#ffffff" points="328.64,-208.69 336.56,-215.72 334.75,-205.28 328.64,-208.69"/>
</g>
<!-- Partial order&#45;&gt;Relation -->
<g id="edge30" class="edge">
<title>Partial order&#45;&gt;Relation</title>
<path fill="none" stroke="#b75867" d="M344.17,-215.81C343.62,-195.85 345.96,-163.22 364.5,-144 387.54,-120.12 478.32,-104.06 533.02,-96.33"/>
<polygon fill="#b75867" stroke="#b75867" points="533.69,-99.77 543.12,-94.94 532.74,-92.83 533.69,-99.77"/>
</g>
<!-- Partial order&#45;&gt;Transitive Relation -->
<g id="edge27" class="edge">
<title>Partial order&#45;&gt;Transitive Relation</title>
<path fill="none" stroke="#b75867" d="M314.43,-215.88C297.67,-206.64 276.79,-195.13 258.8,-185.21"/>
<polygon fill="#b75867" stroke="#b75867" points="260.13,-181.95 249.69,-180.19 256.76,-188.08 260.13,-181.95"/>
</g>
<!-- Partial order&#45;&gt;Reflexive Relation -->
<g id="edge29" class="edge">
<title>Partial order&#45;&gt;Reflexive Relation</title>
<path fill="none" stroke="#b75867" d="M388.72,-219.96C393.37,-218.6 398.03,-217.26 402.5,-216 445.98,-203.76 495.01,-190.75 533.64,-180.69"/>
<polygon fill="#b75867" stroke="#b75867" points="534.94,-183.97 543.74,-178.06 533.18,-177.19 534.94,-183.97"/>
</g>
<!-- Partial order&#45;&gt;Anti&#45;symmetric Relation -->
<g id="edge28" class="edge">
<title>Partial order&#45;&gt;Anti&#45;symmetric Relation</title>
<path fill="none" stroke="#b75867" d="M370.94,-215.88C384.29,-206.89 400.82,-195.76 415.28,-186.03"/>
<polygon fill="#b75867" stroke="#b75867" points="417.62,-188.68 423.96,-180.19 413.71,-182.87 417.62,-188.68"/>
</g>
<!-- Transitive Relation&#45;&gt;Partial orders have no contours -->
<g id="edge63" class="edge">
<title>Transitive Relation&#45;&gt;Partial orders have no contours</title>
<path fill="none" stroke="#ffffff" d="M218.5,-133.67C218.5,-125.05 218.5,-115.79 218.5,-108.1"/>
<polygon fill="#ffffff" stroke="#ffffff" points="215,-133.7 218.5,-143.7 222,-133.7 215,-133.7"/>
</g>
<!-- Transitive Relation&#45;&gt;Relation -->
<g id="edge50" class="edge">
<title>Transitive Relation&#45;&gt;Relation</title>
<path fill="none" stroke="#b75867" d="M279.06,-149.13C351.23,-134.97 469.97,-111.69 533.04,-99.33"/>
<polygon fill="#b75867" stroke="#b75867" points="533.9,-102.72 543.04,-97.37 532.55,-95.85 533.9,-102.72"/>
</g>
<!-- Strongly Anti&#45;symmetric Relation&#45;&gt;Relation -->
<g id="edge51" class="edge">
<title>Strongly Anti&#45;symmetric Relation&#45;&gt;Relation</title>
<path fill="none" stroke="#b75867" d="M680.59,-215.77C697.82,-197.2 719,-167.2 703.5,-144 681.83,-111.59 658.58,-122.22 617.15,-107.94"/>
<polygon fill="#b75867" stroke="#b75867" points="618.32,-104.64 607.73,-104.37 615.84,-111.18 618.32,-104.64"/>
</g>
<!-- Reflexive Relation&#45;&gt;Partial orders have no contours -->
<g id="edge64" class="edge">
<title>Reflexive Relation&#45;&gt;Partial orders have no contours</title>
<path fill="none" stroke="#ffffff" d="M533.8,-143.94C454.59,-127.63 375.49,-114.53 315.33,-105.22"/>
<polygon fill="#ffffff" stroke="#ffffff" points="533.46,-147.45 543.96,-146.05 534.88,-140.59 533.46,-147.45"/>
</g>
<!-- Reflexive Relation&#45;&gt;Relation -->
<g id="edge55" class="edge">
<title>Reflexive Relation&#45;&gt;Relation</title>
<path fill="none" stroke="#b75867" d="M595.83,-143.7C592.79,-135.81 589.12,-126.3 585.74,-117.55"/>
<polygon fill="#b75867" stroke="#b75867" points="588.96,-116.17 582.1,-108.1 582.43,-118.69 588.96,-116.17"/>
</g>
<!-- Anti&#45;symmetric Relation&#45;&gt;Relation -->
<g id="edge52" class="edge">
<title>Anti&#45;symmetric Relation&#45;&gt;Relation</title>
<path fill="none" stroke="#b75867" d="M480.32,-143.88C496.95,-134.64 517.66,-123.13 535.52,-113.21"/>
<polygon fill="#b75867" stroke="#b75867" points="537.52,-116.11 544.56,-108.19 534.12,-109.99 537.52,-116.11"/>
</g>
<!-- Partition -->
<g id="node14" class="node">
<title>Partition</title>
<g id="a_node14"><a xlink:title="Partition">
<path fill="#273434" stroke="#b75867" d="M1453,-180C1453,-180 1412,-180 1412,-180 1406,-180 1400,-174 1400,-168 1400,-168 1400,-156 1400,-156 1400,-150 1406,-144 1412,-144 1412,-144 1453,-144 1453,-144 1459,-144 1465,-150 1465,-156 1465,-156 1465,-168 1465,-168 1465,-174 1459,-180 1453,-180"/>
<text text-anchor="middle" x="1432.5" y="-158.9" font-family="sans" font-size="12.00" fill="#c4c7c7">Partition</text>
</a>
</g>
</g>
<!-- Class of equivalence&#45;&gt;Partition -->
<g id="edge31" class="edge">
<title>Class of equivalence&#45;&gt;Partition</title>
<path fill="none" stroke="#b75867" d="M1274.28,-287.89C1296.76,-278.96 1323.03,-266.8 1344.5,-252 1370.64,-233.98 1395.61,-207.53 1412.23,-188.15"/>
<polygon fill="#b75867" stroke="#b75867" points="1415.06,-190.23 1418.82,-180.32 1409.7,-185.72 1415.06,-190.23"/>
</g>
<!-- Set -->
<g id="node15" class="node">
<title>Set</title>
<g id="a_node15"><a xlink:title="Set">
<path fill="#273434" stroke="#b75867" d="M1331.5,-180C1331.5,-180 1301.5,-180 1301.5,-180 1295.5,-180 1289.5,-174 1289.5,-168 1289.5,-168 1289.5,-156 1289.5,-156 1289.5,-150 1295.5,-144 1301.5,-144 1301.5,-144 1331.5,-144 1331.5,-144 1337.5,-144 1343.5,-150 1343.5,-156 1343.5,-156 1343.5,-168 1343.5,-168 1343.5,-174 1337.5,-180 1331.5,-180"/>
<text text-anchor="middle" x="1316.5" y="-158.9" font-family="sans" font-size="12.00" fill="#c4c7c7">Set</text>
</a>
</g>
</g>
<!-- Class of equivalence&#45;&gt;Set -->
<g id="edge32" class="edge">
<title>Class of equivalence&#45;&gt;Set</title>
<path fill="none" stroke="#b75867" d="M1283.4,-287.96C1300.62,-279.93 1317.5,-268.4 1327.5,-252 1338.91,-233.3 1334.45,-208.27 1328.13,-189.51"/>
<polygon fill="#b75867" stroke="#b75867" points="1331.38,-188.23 1324.61,-180.09 1324.82,-190.68 1331.38,-188.23"/>
</g>
<!-- Class of equivalence&#45;&gt;Relation of Equivalence -->
<g id="edge33" class="edge">
<title>Class of equivalence&#45;&gt;Relation of Equivalence</title>
<path fill="none" stroke="#b75867" d="M1188.76,-287.88C1171.85,-278.72 1151.86,-267.34 1135.34,-257.48"/>
<polygon fill="#b75867" stroke="#b75867" points="1136.93,-254.36 1126.56,-252.19 1133.31,-260.35 1136.93,-254.36"/>
</g>
<!-- Principle of division -->
<g id="node27" class="node">
<title>Principle of division</title>
<g id="a_node27"><a xlink:title="Principle of division">
<ellipse fill="#273434" stroke="#b75867" cx="2216.5" cy="-90" rx="77.63" ry="18"/>
<text text-anchor="middle" x="2216.5" y="-86.9" font-family="sans" font-size="12.00" fill="#c4c7c7">Principle of division</text>
</a>
</g>
</g>
<!-- Class of equivalence&#45;&gt;Principle of division -->
<g id="edge65" class="edge">
<title>Class of equivalence&#45;&gt;Principle of division</title>
<path fill="none" stroke="#ffffff" d="M1300.37,-288.63C1492.45,-247.2 1994.59,-138.87 2161.6,-102.84"/>
<polygon fill="#ffffff" stroke="#ffffff" points="1299.39,-285.26 1290.36,-290.79 1300.87,-292.11 1299.39,-285.26"/>
</g>
<!-- Principle of partitions -->
<g id="node28" class="node">
<title>Principle of partitions</title>
<g id="a_node28"><a xlink:title="Principle of partitions">
<ellipse fill="#273434" stroke="#b75867" cx="2036.5" cy="-90" rx="84.17" ry="18"/>
<text text-anchor="middle" x="2036.5" y="-86.9" font-family="sans" font-size="12.00" fill="#c4c7c7">Principle of partitions</text>
</a>
</g>
</g>
<!-- Partition&#45;&gt;Principle of partitions -->
<g id="edge66" class="edge">
<title>Partition&#45;&gt;Principle of partitions</title>
<path fill="none" stroke="#ffffff" d="M1475.23,-157.66C1563.02,-150.54 1769.95,-132.53 1942.5,-108 1953.42,-106.45 1965.01,-104.55 1976.18,-102.6"/>
<polygon fill="#ffffff" stroke="#ffffff" points="1474.81,-154.18 1465.12,-158.47 1475.37,-161.15 1474.81,-154.18"/>
</g>
<!-- Set&#45;&gt;Principle of division -->
<g id="edge68" class="edge">
<title>Set&#45;&gt;Principle of division</title>
<path fill="none" stroke="#ffffff" d="M1353.67,-144.95C1354.95,-144.6 1356.23,-144.28 1357.5,-144 1692.72,-69.1 1788.48,-149.05 2129.5,-108 2140.04,-106.73 2151.22,-104.91 2161.93,-102.93"/>
<polygon fill="#ffffff" stroke="#ffffff" points="1352.29,-141.72 1343.86,-148.14 1354.46,-148.38 1352.29,-141.72"/>
</g>
<!-- Set&#45;&gt;Principle of partitions -->
<g id="edge73" class="edge">
<title>Set&#45;&gt;Principle of partitions</title>
<path fill="none" stroke="#ffffff" d="M1353.67,-144.98C1354.96,-144.62 1356.23,-144.29 1357.5,-144 1611.29,-85.31 1683.89,-139.23 1942.5,-108 1953.78,-106.64 1965.75,-104.79 1977.24,-102.81"/>
<polygon fill="#ffffff" stroke="#ffffff" points="1352.29,-141.75 1343.88,-148.2 1354.47,-148.4 1352.29,-141.75"/>
</g>
<!-- Recurrent Equations -->
<g id="node29" class="node">
<title>Recurrent Equations</title>
<g id="a_node29"><a xlink:title="Recurrent Equations">
<ellipse fill="#273434" stroke="#b75867" cx="1509.5" cy="-90" rx="80.78" ry="18"/>
<text text-anchor="middle" x="1509.5" y="-86.9" font-family="sans" font-size="12.00" fill="#c4c7c7">Recurrent Equations</text>
</a>
</g>
</g>
<!-- Set&#45;&gt;Recurrent Equations -->
<g id="edge67" class="edge">
<title>Set&#45;&gt;Recurrent Equations</title>
<path fill="none" stroke="#ffffff" d="M1353.26,-145.64C1354.69,-145.08 1356.1,-144.53 1357.5,-144 1393.93,-130.11 1435.79,-115.62 1466.35,-105.31"/>
<polygon fill="#ffffff" stroke="#ffffff" points="1351.74,-142.48 1343.76,-149.44 1354.34,-148.97 1351.74,-142.48"/>
</g>
<!-- Principle of products -->
<g id="node30" class="node">
<title>Principle of products</title>
<g id="a_node30"><a xlink:title="Principle of products">
<ellipse fill="#273434" stroke="#b75867" cx="1690.5" cy="-90" rx="82.48" ry="18"/>
<text text-anchor="middle" x="1690.5" y="-86.9" font-family="sans" font-size="12.00" fill="#c4c7c7">Principle of products</text>
</a>
</g>
</g>
<!-- Set&#45;&gt;Principle of products -->
<g id="edge69" class="edge">
<title>Set&#45;&gt;Principle of products</title>
<path fill="none" stroke="#ffffff" d="M1353.14,-145.3C1354.61,-144.83 1356.06,-144.4 1357.5,-144 1462.29,-114.96 1492.26,-125.99 1599.5,-108 1609.64,-106.3 1620.4,-104.39 1630.84,-102.47"/>
<polygon fill="#ffffff" stroke="#ffffff" points="1351.78,-142.07 1343.52,-148.71 1354.11,-148.67 1351.78,-142.07"/>
</g>
<!-- Dirichlet principle -->
<g id="node31" class="node">
<title>Dirichlet principle</title>
<g id="a_node31"><a xlink:title="Dirichlet principle">
<ellipse fill="#273434" stroke="#b75867" cx="1862.5" cy="-90" rx="71.32" ry="18"/>
<text text-anchor="middle" x="1862.5" y="-86.9" font-family="sans" font-size="12.00" fill="#c4c7c7">Dirichlet principle</text>
</a>
</g>
</g>
<!-- Set&#45;&gt;Dirichlet principle -->
<g id="edge70" class="edge">
<title>Set&#45;&gt;Dirichlet principle</title>
<path fill="none" stroke="#ffffff" d="M1353.68,-145.02C1354.96,-144.65 1356.24,-144.31 1357.5,-144 1541.25,-99.25 1594.38,-135.47 1781.5,-108 1791.31,-106.56 1801.72,-104.66 1811.68,-102.66"/>
<polygon fill="#ffffff" stroke="#ffffff" points="1352.27,-141.8 1343.9,-148.29 1354.49,-148.44 1352.27,-141.8"/>
</g>
<!-- Principle of inclusion and exclusion -->
<g id="node32" class="node">
<title>Principle of inclusion and exclusion</title>
<g id="a_node32"><a xlink:title="Principle of inclusion and exclusion">
<ellipse fill="#273434" stroke="#b75867" cx="896.5" cy="-90" rx="132.2" ry="18"/>
<text text-anchor="middle" x="896.5" y="-86.9" font-family="sans" font-size="12.00" fill="#c4c7c7">Principle of inclusion and exclusion</text>
</a>
</g>
</g>
<!-- Set&#45;&gt;Principle of inclusion and exclusion -->
<g id="edge71" class="edge">
<title>Set&#45;&gt;Principle of inclusion and exclusion</title>
<path fill="none" stroke="#ffffff" d="M1279.04,-152.22C1266.5,-149.42 1252.43,-146.42 1239.5,-144 1153.92,-127.96 1055.67,-113.14 986.32,-103.27"/>
<polygon fill="#ffffff" stroke="#ffffff" points="1278.62,-155.72 1289.15,-154.51 1280.17,-148.89 1278.62,-155.72"/>
</g>
<!-- Differential Analysis -->
<g id="node33" class="node">
<title>Differential Analysis</title>
<g id="a_node33"><a xlink:title="Differential Analysis">
<ellipse fill="#273434" stroke="#b75867" cx="1125.5" cy="-90" rx="78.36" ry="18"/>
<text text-anchor="middle" x="1125.5" y="-86.9" font-family="sans" font-size="12.00" fill="#c4c7c7">Differential Analysis</text>
</a>
</g>
</g>
<!-- Set&#45;&gt;Differential Analysis -->
<g id="edge72" class="edge">
<title>Set&#45;&gt;Differential Analysis</title>
<path fill="none" stroke="#ffffff" d="M1279.48,-147.43C1246.73,-135.43 1199.06,-117.96 1165.46,-105.64"/>
<polygon fill="#ffffff" stroke="#ffffff" points="1278.54,-150.82 1289.13,-150.97 1280.95,-144.24 1278.54,-150.82"/>
</g>
<!-- Principle of the bijection -->
<g id="node34" class="node">
<title>Principle of the bijection</title>
<g id="a_node34"><a xlink:title="Principle of the bijection">
<ellipse fill="#273434" stroke="#b75867" cx="1316.5" cy="-90" rx="94.6" ry="18"/>
<text text-anchor="middle" x="1316.5" y="-86.9" font-family="sans" font-size="12.00" fill="#c4c7c7">Principle of the bijection</text>
</a>
</g>
</g>
<!-- Set&#45;&gt;Principle of the bijection -->
<g id="edge74" class="edge">
<title>Set&#45;&gt;Principle of the bijection</title>
<path fill="none" stroke="#ffffff" d="M1316.5,-133.67C1316.5,-125.05 1316.5,-115.79 1316.5,-108.1"/>
<polygon fill="#ffffff" stroke="#ffffff" points="1313,-133.7 1316.5,-143.7 1320,-133.7 1313,-133.7"/>
</g>
<!-- Relation of Equivalence&#45;&gt;Relation -->
<g id="edge40" class="edge">
<title>Relation of Equivalence&#45;&gt;Relation</title>
<path fill="none" stroke="#b75867" d="M1027.7,-217.39C995.18,-208.91 957.32,-196.68 925.5,-180 902.82,-168.11 904.04,-154.09 880.5,-144 774.64,-98.6 733.09,-136.72 617.81,-107.92"/>
<polygon fill="#b75867" stroke="#b75867" points="618.47,-104.47 607.91,-105.32 616.7,-111.24 618.47,-104.47"/>
</g>
<!-- Relation of Equivalence&#45;&gt;Transitive Relation -->
<g id="edge37" class="edge">
<title>Relation of Equivalence&#45;&gt;Transitive Relation</title>
<path fill="none" stroke="#b75867" d="M1027.93,-217.19C1025.09,-216.76 1022.27,-216.36 1019.5,-216 730.35,-178.65 654.99,-204.87 364.5,-180 339.92,-177.9 313.08,-174.96 289.19,-172.11"/>
<polygon fill="#b75867" stroke="#b75867" points="289.5,-168.62 279.15,-170.9 288.66,-175.57 289.5,-168.62"/>
</g>
<!-- Relation of Equivalence&#45;&gt;Reflexive Relation -->
<g id="edge39" class="edge">
<title>Relation of Equivalence&#45;&gt;Reflexive Relation</title>
<path fill="none" stroke="#b75867" d="M1027.89,-217.44C1025.06,-216.94 1022.26,-216.46 1019.5,-216 897.34,-195.76 753.93,-179.07 671.1,-170.11"/>
<polygon fill="#b75867" stroke="#b75867" points="671.38,-166.62 661.06,-169.03 670.63,-173.58 671.38,-166.62"/>
</g>
<!-- Relation of Equivalence&#45;&gt;Class of equivalence -->
<g id="edge34" class="edge">
<title>Relation of Equivalence&#45;&gt;Class of equivalence</title>
<path fill="none" stroke="#b75867" d="M1138.36,-252.19C1155.29,-261.35 1175.27,-272.74 1191.78,-282.59"/>
<polygon fill="#b75867" stroke="#b75867" points="1190.18,-285.71 1200.55,-287.88 1193.8,-279.71 1190.18,-285.71"/>
</g>
<!-- Relation of Equivalence&#45;&gt;Partition -->
<g id="edge36" class="edge">
<title>Relation of Equivalence&#45;&gt;Partition</title>
<path fill="none" stroke="#b75867" d="M1177.14,-217.81C1180.3,-217.19 1183.43,-216.59 1186.5,-216 1274.77,-199.08 1298.71,-203.37 1385.5,-180 1386.97,-179.61 1388.45,-179.18 1389.95,-178.74"/>
<polygon fill="#b75867" stroke="#b75867" points="1391.38,-181.96 1399.85,-175.6 1389.26,-175.29 1391.38,-181.96"/>
</g>
<!-- Relation of Equivalence&#45;&gt;Set -->
<g id="edge35" class="edge">
<title>Relation of Equivalence&#45;&gt;Set</title>
<path fill="none" stroke="#b75867" d="M1154.58,-215.97C1193.31,-203.29 1245.22,-186.31 1279.71,-175.03"/>
<polygon fill="#b75867" stroke="#b75867" points="1280.97,-178.3 1289.39,-171.87 1278.79,-171.65 1280.97,-178.3"/>
</g>
<!-- Relation of Equivalence&#45;&gt;Symmetric Relation -->
<g id="edge38" class="edge">
<title>Relation of Equivalence&#45;&gt;Symmetric Relation</title>
<path fill="none" stroke="#b75867" d="M1077.06,-215.88C1063.71,-206.89 1047.18,-195.76 1032.72,-186.03"/>
<polygon fill="#b75867" stroke="#b75867" points="1034.29,-182.87 1024.04,-180.19 1030.38,-188.68 1034.29,-182.87"/>
</g>
<!-- Relation of Equivalence&#45;&gt;Principle of division -->
<g id="edge75" class="edge">
<title>Relation of Equivalence&#45;&gt;Principle of division</title>
<path fill="none" stroke="#ffffff" d="M1187.13,-215.6C1258.16,-200.92 1348.69,-181.97 1352.5,-180 1373.45,-169.17 1369.75,-153.12 1391.5,-144 1542.92,-80.5 1966.5,-127.8 2129.5,-108 2140.04,-106.72 2151.22,-104.89 2161.93,-102.91"/>
<polygon fill="#ffffff" stroke="#ffffff" points="1186.34,-212.19 1177.25,-217.64 1187.75,-219.05 1186.34,-212.19"/>
</g>
<!-- Symmetric Relation&#45;&gt;Relation -->
<g id="edge53" class="edge">
<title>Symmetric Relation&#45;&gt;Relation</title>
<path fill="none" stroke="#b75867" d="M934.32,-146.5C929.65,-145.6 925.01,-144.76 920.5,-144 789.47,-122.01 749.98,-141.42 617.59,-107.89"/>
<polygon fill="#b75867" stroke="#b75867" points="618.45,-104.49 607.89,-105.38 616.7,-111.27 618.45,-104.49"/>
</g>
<!-- Transitive Closure&#45;&gt;Transitive Relation -->
<g id="edge41" class="edge">
<title>Transitive Closure&#45;&gt;Transitive Relation</title>
<path fill="none" stroke="#b75867" d="M264.23,-287.87C255.29,-263.46 238.8,-218.43 228.25,-189.64"/>
<polygon fill="#b75867" stroke="#b75867" points="231.52,-188.38 224.79,-180.19 224.95,-190.78 231.52,-188.38"/>
</g>
<!-- Symmetric Closure&#45;&gt;Relation -->
<g id="edge43" class="edge">
<title>Symmetric Closure&#45;&gt;Relation</title>
<path fill="none" stroke="#b75867" d="M1241.28,-215.9C1221.25,-194.71 1183.81,-159.53 1143.5,-144 927.52,-60.81 847.33,-158.81 617.84,-107.82"/>
<polygon fill="#b75867" stroke="#b75867" points="618.39,-104.36 607.86,-105.53 616.82,-111.18 618.39,-104.36"/>
</g>
<!-- Symmetric Closure&#45;&gt;Set -->
<g id="edge44" class="edge">
<title>Symmetric Closure&#45;&gt;Set</title>
<path fill="none" stroke="#b75867" d="M1271.33,-215.7C1278.52,-207.3 1287.3,-197.07 1295.19,-187.86"/>
<polygon fill="#b75867" stroke="#b75867" points="1297.99,-189.97 1301.84,-180.1 1292.67,-185.42 1297.99,-189.97"/>
</g>
<!-- Symmetric Closure&#45;&gt;Symmetric Relation -->
<g id="edge45" class="edge">
<title>Symmetric Closure&#45;&gt;Symmetric Relation</title>
<path fill="none" stroke="#b75867" d="M1194.7,-216.23C1157.6,-206.17 1110.2,-193.31 1071.28,-182.75"/>
<polygon fill="#b75867" stroke="#b75867" points="1072.15,-179.36 1061.59,-180.12 1070.32,-186.11 1072.15,-179.36"/>
</g>
<!-- Matrix -->
<g id="node20" class="node">
<title>Matrix</title>
<g id="a_node20"><a xlink:title="Matrix">
<path fill="#273434" stroke="#b75867" d="M1122.5,-180C1122.5,-180 1092.5,-180 1092.5,-180 1086.5,-180 1080.5,-174 1080.5,-168 1080.5,-168 1080.5,-156 1080.5,-156 1080.5,-150 1086.5,-144 1092.5,-144 1092.5,-144 1122.5,-144 1122.5,-144 1128.5,-144 1134.5,-150 1134.5,-156 1134.5,-156 1134.5,-168 1134.5,-168 1134.5,-174 1128.5,-180 1122.5,-180"/>
<text text-anchor="middle" x="1107.5" y="-158.9" font-family="sans" font-size="12.00" fill="#c4c7c7">Matrix</text>
</a>
</g>
</g>
<!-- Symmetric Closure&#45;&gt;Matrix -->
<g id="edge42" class="edge">
<title>Symmetric Closure&#45;&gt;Matrix</title>
<path fill="none" stroke="#b75867" d="M1220.05,-215.88C1196.88,-204.99 1167,-190.95 1143.85,-180.07"/>
<polygon fill="#b75867" stroke="#b75867" points="1145.23,-176.86 1134.69,-175.78 1142.26,-183.2 1145.23,-176.86"/>
</g>
<!-- Linear Algebra -->
<g id="node35" class="node">
<title>Linear Algebra</title>
<g id="a_node35"><a xlink:title="Linear Algebra">
<ellipse fill="#273434" stroke="#b75867" cx="685.5" cy="-90" rx="60.16" ry="18"/>
<text text-anchor="middle" x="685.5" y="-86.9" font-family="sans" font-size="12.00" fill="#c4c7c7">Linear Algebra</text>
</a>
</g>
</g>
<!-- Matrix&#45;&gt;Linear Algebra -->
<g id="edge76" class="edge">
<title>Matrix&#45;&gt;Linear Algebra</title>
<path fill="none" stroke="#ffffff" d="M1070.33,-144.22C933.58,-106.56 891.41,-132.15 755.5,-108 747,-106.49 738,-104.56 729.39,-102.54"/>
<polygon fill="#ffffff" stroke="#ffffff" points="1069.77,-147.7 1080.34,-147.05 1071.67,-140.96 1069.77,-147.7"/>
</g>
<!-- Reflexive Closure&#45;&gt;Relation -->
<g id="edge47" class="edge">
<title>Reflexive Closure&#45;&gt;Relation</title>
<path fill="none" stroke="#b75867" d="M933.51,-215.72C904.9,-191.14 854.59,-148.51 844.5,-144 753.78,-103.42 717.52,-133.81 617.78,-107.94"/>
<polygon fill="#b75867" stroke="#b75867" points="618.5,-104.51 607.93,-105.26 616.66,-111.26 618.5,-104.51"/>
</g>
<!-- Reflexive Closure&#45;&gt;Reflexive Relation -->
<g id="edge49" class="edge">
<title>Reflexive Closure&#45;&gt;Reflexive Relation</title>
<path fill="none" stroke="#b75867" d="M896.72,-221.68C835.17,-209.4 736.95,-189.81 671.12,-176.69"/>
<polygon fill="#b75867" stroke="#b75867" points="671.74,-173.24 661.25,-174.72 670.37,-180.11 671.74,-173.24"/>
</g>
<!-- Reflexive Closure&#45;&gt;Set -->
<g id="edge48" class="edge">
<title>Reflexive Closure&#45;&gt;Set</title>
<path fill="none" stroke="#b75867" d="M1010.32,-218.08C1013.42,-217.35 1016.49,-216.65 1019.5,-216 1112.29,-195.8 1222.63,-177.63 1279.11,-168.74"/>
<polygon fill="#b75867" stroke="#b75867" points="1280,-172.15 1289.34,-167.14 1278.92,-165.23 1280,-172.15"/>
</g>
<!-- Reflexive Closure&#45;&gt;Matrix -->
<g id="edge46" class="edge">
<title>Reflexive Closure&#45;&gt;Matrix</title>
<path fill="none" stroke="#b75867" d="M991.85,-216C1012.89,-206.62 1039.65,-194.61 1070.99,-180.2"/>
<polygon fill="#b75867" stroke="#b75867" points="1072.78,-183.23 1080.4,-175.87 1069.85,-176.87 1072.78,-183.23"/>
</g>
<!-- Anti&#45;reflexive relation&#45;&gt;Relation -->
<g id="edge54" class="edge">
<title>Anti&#45;reflexive relation&#45;&gt;Relation</title>
<path fill="none" stroke="#b75867" d="M744.09,-359.83C761.02,-330.12 790.62,-267.37 773.5,-216 760.85,-178.05 751.78,-167.62 719.5,-144 682.74,-117.1 664.13,-124.23 617.12,-107.99"/>
<polygon fill="#b75867" stroke="#b75867" points="618.25,-104.67 607.66,-104.54 615.86,-111.25 618.25,-104.67"/>
</g>
</g>
</svg>
