<?xml version="1.0" encoding="UTF-8" standalone="no"?>
<!DOCTYPE svg PUBLIC "-//W3C//DTD SVG 1.1//EN"
 "http://www.w3.org/Graphics/SVG/1.1/DTD/svg11.dtd">
<!-- Generated by graphviz version 2.44.0 (0)
 -->
<!-- Title: Relation of Equivalence Pages: 1 -->
<svg width="1167pt" height="685pt"
 viewBox="0.00 0.00 1167.00 684.70" xmlns="http://www.w3.org/2000/svg" xmlns:xlink="http://www.w3.org/1999/xlink">
<g id="page0,1_graph0" class="graph" transform="scale(1 1) rotate(0) translate(4 680.7)">
<title>Relation of Equivalence</title>
<polygon fill="#132020" stroke="transparent" points="-4,4 -4,-680.7 1163,-680.7 1163,4 -4,4"/>
<!-- Relation of Equivalence -->
<g id="node1" class="node">
<title>Relation of Equivalence</title>
<g id="a_node1"><a xlink:href="../Relation of Equivalence.html" xlink:title="Relation of Equivalence" target="_parent">
<path fill="#273434" stroke="#b75867" d="M137,-391.7C137,-391.7 12,-391.7 12,-391.7 6,-391.7 0,-385.7 0,-379.7 0,-379.7 0,-367.7 0,-367.7 0,-361.7 6,-355.7 12,-355.7 12,-355.7 137,-355.7 137,-355.7 143,-355.7 149,-361.7 149,-367.7 149,-367.7 149,-379.7 149,-379.7 149,-385.7 143,-391.7 137,-391.7"/>
<text text-anchor="middle" x="74.5" y="-370.6" font-family="sans" font-size="12.00" fill="#c4c7c7">Relation of Equivalence</text>
</a>
</g>
</g>
<!-- Class of equivalence -->
<g id="node2" class="node">
<title>Class of equivalence</title>
<g id="a_node2"><a xlink:href="../Class of equivalence.html" xlink:title="Class of equivalence" target="_parent">
<path fill="#273434" stroke="#b75867" d="M276,-414.7C276,-414.7 169,-414.7 169,-414.7 163,-414.7 157,-408.7 157,-402.7 157,-402.7 157,-390.7 157,-390.7 157,-384.7 163,-378.7 169,-378.7 169,-378.7 276,-378.7 276,-378.7 282,-378.7 288,-384.7 288,-390.7 288,-390.7 288,-402.7 288,-402.7 288,-408.7 282,-414.7 276,-414.7"/>
<text text-anchor="middle" x="222.5" y="-393.6" font-family="sans" font-size="12.00" fill="#c4c7c7">Class of equivalence</text>
</a>
</g>
</g>
<!-- Relation of Equivalence&#45;&gt;Class of equivalence -->
<g id="edge1" class="edge">
<title>Relation of Equivalence&#45;&gt;Class of equivalence</title>
<path fill="none" stroke="#b75867" d="M149.36,-385.33C149.51,-385.36 149.67,-385.38 149.83,-385.41"/>
<polygon fill="#b75867" stroke="#b75867" points="146.55,-388.43 156.98,-386.53 147.64,-381.52 146.55,-388.43"/>
</g>
<!-- Set -->
<g id="node3" class="node">
<title>Set</title>
<g id="a_node3"><a xlink:href="../Set.html" xlink:title="Set" target="_parent">
<path fill="#273434" stroke="#b75867" d="M345.5,-488.7C345.5,-488.7 315.5,-488.7 315.5,-488.7 309.5,-488.7 303.5,-482.7 303.5,-476.7 303.5,-476.7 303.5,-464.7 303.5,-464.7 303.5,-458.7 309.5,-452.7 315.5,-452.7 315.5,-452.7 345.5,-452.7 345.5,-452.7 351.5,-452.7 357.5,-458.7 357.5,-464.7 357.5,-464.7 357.5,-476.7 357.5,-476.7 357.5,-482.7 351.5,-488.7 345.5,-488.7"/>
<text text-anchor="middle" x="330.5" y="-467.6" font-family="sans" font-size="12.00" fill="#c4c7c7">Set</text>
</a>
</g>
</g>
<!-- Relation of Equivalence&#45;&gt;Set -->
<g id="edge2" class="edge">
<title>Relation of Equivalence&#45;&gt;Set</title>
<path fill="none" stroke="#b75867" d="M107.43,-391.73C122.24,-399.67 140.23,-408.76 157,-415.7 203,-434.73 258.1,-451.26 293.44,-461.1"/>
<polygon fill="#b75867" stroke="#b75867" points="292.73,-464.54 303.3,-463.82 294.59,-457.79 292.73,-464.54"/>
</g>
<!-- Partition -->
<g id="node4" class="node">
<title>Partition</title>
<g id="a_node4"><a xlink:href="../Partition.html" xlink:title="Partition" target="_parent">
<path fill="#273434" stroke="#b75867" d="M351,-411.7C351,-411.7 310,-411.7 310,-411.7 304,-411.7 298,-405.7 298,-399.7 298,-399.7 298,-387.7 298,-387.7 298,-381.7 304,-375.7 310,-375.7 310,-375.7 351,-375.7 351,-375.7 357,-375.7 363,-381.7 363,-387.7 363,-387.7 363,-399.7 363,-399.7 363,-405.7 357,-411.7 351,-411.7"/>
<text text-anchor="middle" x="330.5" y="-390.6" font-family="sans" font-size="12.00" fill="#c4c7c7">Partition</text>
</a>
</g>
</g>
<!-- Relation of Equivalence&#45;&gt;Partition -->
<g id="edge3" class="edge">
<title>Relation of Equivalence&#45;&gt;Partition</title>
<path fill="none" stroke="#b75867" d="M149.2,-372.08C190.29,-372.27 242.26,-374.34 288,-381.7 288.1,-381.71 288.2,-381.73 288.31,-381.75"/>
<polygon fill="#b75867" stroke="#b75867" points="287.46,-385.15 297.96,-383.72 288.86,-378.29 287.46,-385.15"/>
</g>
<!-- Transitive Relation -->
<g id="node5" class="node">
<title>Transitive Relation</title>
<g id="a_node5"><a xlink:href="../Transitive Relation.html" xlink:title="Transitive Relation" target="_parent">
<path fill="#273434" stroke="#b75867" d="M529,-238.7C529,-238.7 432,-238.7 432,-238.7 426,-238.7 420,-232.7 420,-226.7 420,-226.7 420,-214.7 420,-214.7 420,-208.7 426,-202.7 432,-202.7 432,-202.7 529,-202.7 529,-202.7 535,-202.7 541,-208.7 541,-214.7 541,-214.7 541,-226.7 541,-226.7 541,-232.7 535,-238.7 529,-238.7"/>
<text text-anchor="middle" x="480.5" y="-217.6" font-family="sans" font-size="12.00" fill="#c4c7c7">Transitive Relation</text>
</a>
</g>
</g>
<!-- Relation of Equivalence&#45;&gt;Transitive Relation -->
<g id="edge4" class="edge">
<title>Relation of Equivalence&#45;&gt;Transitive Relation</title>
<path fill="none" stroke="#b75867" d="M80.56,-355.46C89.99,-325.35 113.37,-265.95 157,-239.7 233.96,-193.4 340.82,-197.59 410.06,-207.22"/>
<polygon fill="#b75867" stroke="#b75867" points="409.6,-210.69 420,-208.67 410.61,-203.76 409.6,-210.69"/>
</g>
<!-- Symmetric Relation -->
<g id="node6" class="node">
<title>Symmetric Relation</title>
<g id="a_node6"><a xlink:href="../Symmetric Relation.html" xlink:title="Symmetric Relation" target="_parent">
<path fill="#273434" stroke="#b75867" d="M908.5,-411.7C908.5,-411.7 804.5,-411.7 804.5,-411.7 798.5,-411.7 792.5,-405.7 792.5,-399.7 792.5,-399.7 792.5,-387.7 792.5,-387.7 792.5,-381.7 798.5,-375.7 804.5,-375.7 804.5,-375.7 908.5,-375.7 908.5,-375.7 914.5,-375.7 920.5,-381.7 920.5,-387.7 920.5,-387.7 920.5,-399.7 920.5,-399.7 920.5,-405.7 914.5,-411.7 908.5,-411.7"/>
<text text-anchor="middle" x="856.5" y="-390.6" font-family="sans" font-size="12.00" fill="#c4c7c7">Symmetric Relation</text>
</a>
</g>
</g>
<!-- Relation of Equivalence&#45;&gt;Symmetric Relation -->
<g id="edge5" class="edge">
<title>Relation of Equivalence&#45;&gt;Symmetric Relation</title>
<path fill="none" stroke="#b75867" d="M149.14,-373.7C199.84,-373.7 268.76,-373.7 329.5,-373.7 329.5,-373.7 329.5,-373.7 481.5,-373.7 585.99,-373.7 706.66,-381.58 782.03,-387.45"/>
<polygon fill="#b75867" stroke="#b75867" points="782.11,-390.96 792.36,-388.26 782.66,-383.99 782.11,-390.96"/>
</g>
<!-- Reflexive Relation -->
<g id="node7" class="node">
<title>Reflexive Relation</title>
<g id="a_node7"><a xlink:href="../Reflexive Relation.html" xlink:title="Reflexive Relation" target="_parent">
<path fill="#273434" stroke="#b75867" d="M903,-91.7C903,-91.7 810,-91.7 810,-91.7 804,-91.7 798,-85.7 798,-79.7 798,-79.7 798,-67.7 798,-67.7 798,-61.7 804,-55.7 810,-55.7 810,-55.7 903,-55.7 903,-55.7 909,-55.7 915,-61.7 915,-67.7 915,-67.7 915,-79.7 915,-79.7 915,-85.7 909,-91.7 903,-91.7"/>
<text text-anchor="middle" x="856.5" y="-70.6" font-family="sans" font-size="12.00" fill="#c4c7c7">Reflexive Relation</text>
</a>
</g>
</g>
<!-- Relation of Equivalence&#45;&gt;Reflexive Relation -->
<g id="edge6" class="edge">
<title>Relation of Equivalence&#45;&gt;Reflexive Relation</title>
<path fill="none" stroke="#b75867" d="M80.94,-355.38C101.51,-290.25 181.07,-73.7 329.5,-73.7 329.5,-73.7 329.5,-73.7 481.5,-73.7 588.47,-73.7 712.66,-73.7 787.6,-73.7"/>
<polygon fill="#b75867" stroke="#b75867" points="787.84,-77.2 797.84,-73.7 787.84,-70.2 787.84,-77.2"/>
</g>
<!-- Relation -->
<g id="node8" class="node">
<title>Relation</title>
<g id="a_node8"><a xlink:href="../Relation.html" xlink:title="Relation" target="_parent">
<path fill="#273434" stroke="#b75867" d="M691.5,-238.7C691.5,-238.7 651.5,-238.7 651.5,-238.7 645.5,-238.7 639.5,-232.7 639.5,-226.7 639.5,-226.7 639.5,-214.7 639.5,-214.7 639.5,-208.7 645.5,-202.7 651.5,-202.7 651.5,-202.7 691.5,-202.7 691.5,-202.7 697.5,-202.7 703.5,-208.7 703.5,-214.7 703.5,-214.7 703.5,-226.7 703.5,-226.7 703.5,-232.7 697.5,-238.7 691.5,-238.7"/>
<text text-anchor="middle" x="671.5" y="-217.6" font-family="sans" font-size="12.00" fill="#c4c7c7">Relation</text>
</a>
</g>
</g>
<!-- Relation of Equivalence&#45;&gt;Relation -->
<g id="edge7" class="edge">
<title>Relation of Equivalence&#45;&gt;Relation</title>
<path fill="none" stroke="#b75867" d="M90.83,-355.69C105.99,-339.01 130.68,-314.73 157,-300.7 327.94,-209.55 395.52,-257.57 588,-235.7 601.47,-234.17 616.05,-231.77 629.16,-229.33"/>
<polygon fill="#b75867" stroke="#b75867" points="630.14,-232.71 639.31,-227.38 628.83,-225.83 630.14,-232.71"/>
</g>
<!-- Principle of division -->
<g id="node9" class="node">
<title>Principle of division</title>
<g id="a_node9"><a xlink:href="../Principle of division.html" xlink:title="Principle of division" target="_parent">
<path fill="none" stroke="#b75867" d="M531.5,-676.7C531.5,-676.7 429.5,-676.7 429.5,-676.7 423.5,-676.7 417.5,-670.7 417.5,-664.7 417.5,-664.7 417.5,-652.7 417.5,-652.7 417.5,-646.7 423.5,-640.7 429.5,-640.7 429.5,-640.7 531.5,-640.7 531.5,-640.7 537.5,-640.7 543.5,-646.7 543.5,-652.7 543.5,-652.7 543.5,-664.7 543.5,-664.7 543.5,-670.7 537.5,-676.7 531.5,-676.7"/>
<text text-anchor="middle" x="480.5" y="-655.6" font-family="sans" font-size="12.00" fill="#c4c7c7">Principle of division</text>
</a>
</g>
</g>
<!-- Relation of Equivalence&#45;&gt;Principle of division -->
<g id="edge8" class="edge">
<title>Relation of Equivalence&#45;&gt;Principle of division</title>
<path fill="none" stroke="#ffffff" d="M96.62,-399.9C141.42,-453.59 251.86,-576.1 373,-636.7 386.68,-643.54 402.36,-648.25 417.41,-651.5"/>
<polygon fill="#ffffff" stroke="#ffffff" points="99.07,-397.38 90,-391.9 93.67,-401.84 99.07,-397.38"/>
</g>
<!-- Relations -->
<g id="node10" class="node">
<title>Relations</title>
<g id="a_node10"><a xlink:href="../Relations.html" xlink:title="Relations" target="_parent">
<path fill="none" stroke="#b75867" d="M353,-303.7C353,-303.7 308,-303.7 308,-303.7 302,-303.7 296,-297.7 296,-291.7 296,-291.7 296,-279.7 296,-279.7 296,-273.7 302,-267.7 308,-267.7 308,-267.7 353,-267.7 353,-267.7 359,-267.7 365,-273.7 365,-279.7 365,-279.7 365,-291.7 365,-291.7 365,-297.7 359,-303.7 353,-303.7"/>
<text text-anchor="middle" x="330.5" y="-282.6" font-family="sans" font-size="12.00" fill="#c4c7c7">Relations</text>
</a>
</g>
</g>
<!-- Relation of Equivalence&#45;&gt;Relations -->
<g id="edge9" class="edge">
<title>Relation of Equivalence&#45;&gt;Relations</title>
<path fill="none" stroke="#ffffff" d="M137.23,-352.31C187.11,-335.03 255.44,-311.36 295.78,-297.38"/>
<polygon fill="#ffffff" stroke="#ffffff" points="135.82,-349.1 127.51,-355.68 138.11,-355.71 135.82,-349.1"/>
</g>
<!-- Class of equivalence&#45;&gt;Relation of Equivalence -->
<g id="edge12" class="edge">
<title>Class of equivalence&#45;&gt;Relation of Equivalence</title>
<path fill="none" stroke="#b75867" d="M156.98,-387.28C156.82,-387.25 156.66,-387.23 156.5,-387.21"/>
<polygon fill="#b75867" stroke="#b75867" points="159.78,-384.18 149.36,-386.08 158.69,-391.09 159.78,-384.18"/>
</g>
<!-- Class of equivalence&#45;&gt;Set -->
<g id="edge11" class="edge">
<title>Class of equivalence&#45;&gt;Set</title>
<path fill="none" stroke="#b75867" d="M249.43,-414.8C263.16,-424.39 280.21,-436.29 295.04,-446.64"/>
<polygon fill="#b75867" stroke="#b75867" points="293.27,-449.67 303.47,-452.53 297.27,-443.93 293.27,-449.67"/>
</g>
<!-- Class of equivalence&#45;&gt;Partition -->
<g id="edge10" class="edge">
<title>Class of equivalence&#45;&gt;Partition</title>
<path fill="none" stroke="#b75867" d="M288.21,-394.87C288.32,-394.86 288.42,-394.86 288.52,-394.86"/>
<polygon fill="#b75867" stroke="#b75867" points="287.9,-398.38 297.8,-394.6 287.7,-391.38 287.9,-398.38"/>
</g>
<!-- Class of equivalence&#45;&gt;Principle of division -->
<g id="edge13" class="edge">
<title>Class of equivalence&#45;&gt;Principle of division</title>
<path fill="none" stroke="#ffffff" d="M243.19,-423.12C272.45,-463.22 327.94,-542.52 365,-615.7 369.51,-624.61 365.39,-630.22 373,-636.7 385.36,-647.22 401.44,-653.16 417.34,-656.4"/>
<polygon fill="#ffffff" stroke="#ffffff" points="245.93,-420.93 237.19,-414.94 240.28,-425.08 245.93,-420.93"/>
</g>
<!-- Class of equivalence&#45;&gt;Relations -->
<g id="edge14" class="edge">
<title>Class of equivalence&#45;&gt;Relations</title>
<path fill="none" stroke="#ffffff" d="M248.11,-370.93C267.67,-350.45 294.55,-322.3 311.97,-304.05"/>
<polygon fill="#ffffff" stroke="#ffffff" points="245.38,-368.72 241,-378.37 250.44,-373.55 245.38,-368.72"/>
</g>
<!-- Set&#45;&gt;Relation of Equivalence -->
<g id="edge18" class="edge">
<title>Set&#45;&gt;Relation of Equivalence</title>
<path fill="none" stroke="#ffffff" d="M293.44,-461.87C258.1,-452.26 203,-435.73 157,-416.7 139.64,-409.52 120.97,-400.03 105.89,-391.8"/>
<polygon fill="#ffffff" stroke="#ffffff" points="292.73,-465.3 303.3,-464.51 294.54,-458.54 292.73,-465.3"/>
</g>
<!-- Set&#45;&gt;Class of equivalence -->
<g id="edge17" class="edge">
<title>Set&#45;&gt;Class of equivalence</title>
<path fill="none" stroke="#ffffff" d="M294.88,-447.24C279.79,-436.78 262.44,-424.64 248.62,-414.88"/>
<polygon fill="#ffffff" stroke="#ffffff" points="293.24,-450.36 303.45,-453.17 297.22,-444.6 293.24,-450.36"/>
</g>
<!-- Set&#45;&gt;Principle of division -->
<g id="edge20" class="edge">
<title>Set&#45;&gt;Principle of division</title>
<path fill="none" stroke="#ffffff" d="M342.36,-498.45C349.79,-518.51 359.31,-546.41 365,-571.7 368.2,-585.9 363.14,-626 373,-636.7 384.45,-649.12 400.92,-655.55 417.48,-658.65"/>
<polygon fill="#ffffff" stroke="#ffffff" points="345.6,-497.12 338.79,-489 339.05,-499.59 345.6,-497.12"/>
</g>
<!-- Reflexive Closure -->
<g id="node11" class="node">
<title>Reflexive Closure</title>
<g id="a_node11"><a xlink:href="../Reflexive Closure.html" xlink:title="Reflexive Closure" target="_parent">
<path fill="none" stroke="#b75867" d="M1107,-364.7C1107,-364.7 1018,-364.7 1018,-364.7 1012,-364.7 1006,-358.7 1006,-352.7 1006,-352.7 1006,-340.7 1006,-340.7 1006,-334.7 1012,-328.7 1018,-328.7 1018,-328.7 1107,-328.7 1107,-328.7 1113,-328.7 1119,-334.7 1119,-340.7 1119,-340.7 1119,-352.7 1119,-352.7 1119,-358.7 1113,-364.7 1107,-364.7"/>
<text text-anchor="middle" x="1062.5" y="-343.6" font-family="sans" font-size="12.00" fill="#c4c7c7">Reflexive Closure</text>
</a>
</g>
</g>
<!-- Set&#45;&gt;Reflexive Closure -->
<g id="edge15" class="edge">
<title>Set&#45;&gt;Reflexive Closure</title>
<path fill="none" stroke="#ffffff" d="M345.94,-444.04C352.75,-434.23 361.86,-424.18 373,-418.7 431.33,-390 908.08,-450.34 958,-408.7 971.92,-397.08 953.37,-381.7 966,-368.7 976.43,-357.96 990.98,-352 1005.57,-348.81"/>
<polygon fill="#ffffff" stroke="#ffffff" points="342.99,-442.17 340.55,-452.48 348.89,-445.94 342.99,-442.17"/>
</g>
<!-- Symmetric Closure -->
<g id="node12" class="node">
<title>Symmetric Closure</title>
<g id="a_node12"><a xlink:href="../Symmetric Closure.html" xlink:title="Symmetric Closure" target="_parent">
<path fill="none" stroke="#b75867" d="M1112,-401.7C1112,-401.7 1013,-401.7 1013,-401.7 1007,-401.7 1001,-395.7 1001,-389.7 1001,-389.7 1001,-377.7 1001,-377.7 1001,-371.7 1007,-365.7 1013,-365.7 1013,-365.7 1112,-365.7 1112,-365.7 1118,-365.7 1124,-371.7 1124,-377.7 1124,-377.7 1124,-389.7 1124,-389.7 1124,-395.7 1118,-401.7 1112,-401.7"/>
<text text-anchor="middle" x="1062.5" y="-380.6" font-family="sans" font-size="12.00" fill="#c4c7c7">Symmetric Closure</text>
</a>
</g>
</g>
<!-- Set&#45;&gt;Symmetric Closure -->
<g id="edge16" class="edge">
<title>Set&#45;&gt;Symmetric Closure</title>
<path fill="none" stroke="#ffffff" d="M363.89,-496.67C364.28,-497.34 364.65,-498.01 365,-498.7 371.76,-512.12 362.07,-623.39 373,-633.7 390.38,-650.08 564.81,-639.44 588,-633.7 775.68,-587.19 970.96,-451.22 1037.6,-401.86"/>
<polygon fill="#ffffff" stroke="#ffffff" points="366.59,-494.44 357.72,-488.66 361.05,-498.72 366.59,-494.44"/>
</g>
<!-- Recurrent Equations -->
<g id="node13" class="node">
<title>Recurrent Equations</title>
<g id="a_node13"><a xlink:href="../Recurrent Equations.html" xlink:title="Recurrent Equations" target="_parent">
<path fill="none" stroke="#b75867" d="M534,-562.7C534,-562.7 427,-562.7 427,-562.7 421,-562.7 415,-556.7 415,-550.7 415,-550.7 415,-538.7 415,-538.7 415,-532.7 421,-526.7 427,-526.7 427,-526.7 534,-526.7 534,-526.7 540,-526.7 546,-532.7 546,-538.7 546,-538.7 546,-550.7 546,-550.7 546,-556.7 540,-562.7 534,-562.7"/>
<text text-anchor="middle" x="480.5" y="-541.6" font-family="sans" font-size="12.00" fill="#c4c7c7">Recurrent Equations</text>
</a>
</g>
</g>
<!-- Set&#45;&gt;Recurrent Equations -->
<g id="edge19" class="edge">
<title>Set&#45;&gt;Recurrent Equations</title>
<path fill="none" stroke="#ffffff" d="M347.17,-497.25C353.97,-506.63 362.75,-516.41 373,-522.7 385.55,-530.4 400.34,-535.45 414.84,-538.75"/>
<polygon fill="#ffffff" stroke="#ffffff" points="349.99,-495.17 341.48,-488.85 344.19,-499.09 349.99,-495.17"/>
</g>
<!-- Principle of products -->
<g id="node14" class="node">
<title>Principle of products</title>
<g id="a_node14"><a xlink:href="../Principle of products.html" xlink:title="Principle of products" target="_parent">
<path fill="none" stroke="#b75867" d="M535.5,-525.7C535.5,-525.7 425.5,-525.7 425.5,-525.7 419.5,-525.7 413.5,-519.7 413.5,-513.7 413.5,-513.7 413.5,-501.7 413.5,-501.7 413.5,-495.7 419.5,-489.7 425.5,-489.7 425.5,-489.7 535.5,-489.7 535.5,-489.7 541.5,-489.7 547.5,-495.7 547.5,-501.7 547.5,-501.7 547.5,-513.7 547.5,-513.7 547.5,-519.7 541.5,-525.7 535.5,-525.7"/>
<text text-anchor="middle" x="480.5" y="-504.6" font-family="sans" font-size="12.00" fill="#c4c7c7">Principle of products</text>
</a>
</g>
</g>
<!-- Set&#45;&gt;Principle of products -->
<g id="edge21" class="edge">
<title>Set&#45;&gt;Principle of products</title>
<path fill="none" stroke="#ffffff" d="M367.27,-483.99C369.2,-484.59 371.12,-485.17 373,-485.7 385.9,-489.34 399.84,-492.66 413.24,-495.54"/>
<polygon fill="#ffffff" stroke="#ffffff" points="368.25,-480.63 357.66,-480.79 366.05,-487.27 368.25,-480.63"/>
</g>
<!-- Dirichlet principle -->
<g id="node15" class="node">
<title>Dirichlet principle</title>
<g id="a_node15"><a xlink:href="../Dirichlet principle.html" xlink:title="Dirichlet principle" target="_parent">
<path fill="none" stroke="#b75867" d="M526.5,-488.7C526.5,-488.7 434.5,-488.7 434.5,-488.7 428.5,-488.7 422.5,-482.7 422.5,-476.7 422.5,-476.7 422.5,-464.7 422.5,-464.7 422.5,-458.7 428.5,-452.7 434.5,-452.7 434.5,-452.7 526.5,-452.7 526.5,-452.7 532.5,-452.7 538.5,-458.7 538.5,-464.7 538.5,-464.7 538.5,-476.7 538.5,-476.7 538.5,-482.7 532.5,-488.7 526.5,-488.7"/>
<text text-anchor="middle" x="480.5" y="-467.6" font-family="sans" font-size="12.00" fill="#c4c7c7">Dirichlet principle</text>
</a>
</g>
</g>
<!-- Set&#45;&gt;Dirichlet principle -->
<g id="edge22" class="edge">
<title>Set&#45;&gt;Dirichlet principle</title>
<path fill="none" stroke="#ffffff" d="M367.87,-470.7C384.28,-470.7 404.05,-470.7 422.37,-470.7"/>
<polygon fill="#ffffff" stroke="#ffffff" points="367.62,-467.2 357.62,-470.7 367.62,-474.2 367.62,-467.2"/>
</g>
<!-- Principle of inclusion and exclusion -->
<g id="node16" class="node">
<title>Principle of inclusion and exclusion</title>
<g id="a_node16"><a xlink:href="../Principle of inclusion and exclusion.html" xlink:title="Principle of inclusion and exclusion" target="_parent">
<path fill="none" stroke="#b75867" d="M576,-451.7C576,-451.7 385,-451.7 385,-451.7 379,-451.7 373,-445.7 373,-439.7 373,-439.7 373,-427.7 373,-427.7 373,-421.7 379,-415.7 385,-415.7 385,-415.7 576,-415.7 576,-415.7 582,-415.7 588,-421.7 588,-427.7 588,-427.7 588,-439.7 588,-439.7 588,-445.7 582,-451.7 576,-451.7"/>
<text text-anchor="middle" x="480.5" y="-430.6" font-family="sans" font-size="12.00" fill="#c4c7c7">Principle of inclusion and exclusion</text>
</a>
</g>
</g>
<!-- Set&#45;&gt;Principle of inclusion and exclusion -->
<g id="edge23" class="edge">
<title>Set&#45;&gt;Principle of inclusion and exclusion</title>
<path fill="none" stroke="#ffffff" d="M367.27,-457.41C369.2,-456.8 371.12,-456.23 373,-455.7 377.81,-454.34 382.77,-453.02 387.8,-451.76"/>
<polygon fill="#ffffff" stroke="#ffffff" points="366.05,-454.13 357.66,-460.6 368.25,-460.77 366.05,-454.13"/>
</g>
<!-- Differential Analysis -->
<g id="node17" class="node">
<title>Differential Analysis</title>
<g id="a_node17"><a xlink:href="../Differential Analysis.html" xlink:title="Differential Analysis" target="_parent">
<path fill="none" stroke="#b75867" d="M532,-636.7C532,-636.7 429,-636.7 429,-636.7 423,-636.7 417,-630.7 417,-624.7 417,-624.7 417,-612.7 417,-612.7 417,-606.7 423,-600.7 429,-600.7 429,-600.7 532,-600.7 532,-600.7 538,-600.7 544,-606.7 544,-612.7 544,-612.7 544,-624.7 544,-624.7 544,-630.7 538,-636.7 532,-636.7"/>
<text text-anchor="middle" x="480.5" y="-615.6" font-family="sans" font-size="12.00" fill="#c4c7c7">Differential Analysis</text>
</a>
</g>
</g>
<!-- Set&#45;&gt;Differential Analysis -->
<g id="edge24" class="edge">
<title>Set&#45;&gt;Differential Analysis</title>
<path fill="none" stroke="#ffffff" d="M340.8,-498.47C347.57,-518.75 356.92,-546.9 365,-571.7 368.61,-582.79 364.33,-588.9 373,-596.7 385.07,-607.56 401.05,-613.6 416.95,-616.84"/>
<polygon fill="#ffffff" stroke="#ffffff" points="344.1,-497.3 337.61,-488.93 337.46,-499.52 344.1,-497.3"/>
</g>
<!-- Principle of partitions -->
<g id="node18" class="node">
<title>Principle of partitions</title>
<g id="a_node18"><a xlink:href="../Principle of partitions.html" xlink:title="Principle of partitions" target="_parent">
<path fill="none" stroke="#b75867" d="M537,-411.7C537,-411.7 424,-411.7 424,-411.7 418,-411.7 412,-405.7 412,-399.7 412,-399.7 412,-387.7 412,-387.7 412,-381.7 418,-375.7 424,-375.7 424,-375.7 537,-375.7 537,-375.7 543,-375.7 549,-381.7 549,-387.7 549,-387.7 549,-399.7 549,-399.7 549,-405.7 543,-411.7 537,-411.7"/>
<text text-anchor="middle" x="480.5" y="-390.6" font-family="sans" font-size="12.00" fill="#c4c7c7">Principle of partitions</text>
</a>
</g>
</g>
<!-- Set&#45;&gt;Principle of partitions -->
<g id="edge25" class="edge">
<title>Set&#45;&gt;Principle of partitions</title>
<path fill="none" stroke="#ffffff" d="M346.07,-443.81C352.94,-433.53 362.05,-422.62 373,-415.7 384.65,-408.33 398.31,-403.38 411.9,-400.06"/>
<polygon fill="#ffffff" stroke="#ffffff" points="342.93,-442.23 340.62,-452.57 348.88,-445.93 342.93,-442.23"/>
</g>
<!-- Principle of the bijection -->
<g id="node19" class="node">
<title>Principle of the bijection</title>
<g id="a_node19"><a xlink:href="../Principle of the bijection.html" xlink:title="Principle of the bijection" target="_parent">
<path fill="none" stroke="#b75867" d="M545.5,-599.7C545.5,-599.7 415.5,-599.7 415.5,-599.7 409.5,-599.7 403.5,-593.7 403.5,-587.7 403.5,-587.7 403.5,-575.7 403.5,-575.7 403.5,-569.7 409.5,-563.7 415.5,-563.7 415.5,-563.7 545.5,-563.7 545.5,-563.7 551.5,-563.7 557.5,-569.7 557.5,-575.7 557.5,-575.7 557.5,-587.7 557.5,-587.7 557.5,-593.7 551.5,-599.7 545.5,-599.7"/>
<text text-anchor="middle" x="480.5" y="-578.6" font-family="sans" font-size="12.00" fill="#c4c7c7">Principle of the bijection</text>
</a>
</g>
</g>
<!-- Set&#45;&gt;Principle of the bijection -->
<g id="edge26" class="edge">
<title>Set&#45;&gt;Principle of the bijection</title>
<path fill="none" stroke="#ffffff" d="M337.43,-498.55C343.16,-518.56 353.87,-544.57 373,-559.7 381.89,-566.72 392.46,-571.67 403.43,-575.11"/>
<polygon fill="#ffffff" stroke="#ffffff" points="340.78,-497.52 334.88,-488.72 334.01,-499.28 340.78,-497.52"/>
</g>
<!-- Partition&#45;&gt;Relation of Equivalence -->
<g id="edge28" class="edge">
<title>Partition&#45;&gt;Relation of Equivalence</title>
<path fill="none" stroke="#ffffff" d="M288.31,-382.75C288.2,-382.73 288.1,-382.71 288,-382.7 242.26,-375.34 190.29,-373.27 149.2,-372.96"/>
<polygon fill="#ffffff" stroke="#ffffff" points="287.46,-386.15 297.96,-384.71 288.86,-379.29 287.46,-386.15"/>
</g>
<!-- Partition&#45;&gt;Class of equivalence -->
<g id="edge27" class="edge">
<title>Partition&#45;&gt;Class of equivalence</title>
<path fill="none" stroke="#ffffff" d="M288.52,-395.59C288.42,-395.59 288.32,-395.6 288.21,-395.6"/>
<polygon fill="#ffffff" stroke="#ffffff" points="287.92,-399.11 297.8,-395.29 287.69,-392.12 287.92,-399.11"/>
</g>
<!-- Partition&#45;&gt;Principle of partitions -->
<g id="edge29" class="edge">
<title>Partition&#45;&gt;Principle of partitions</title>
<path fill="none" stroke="#ffffff" d="M373.39,-393.7C385.39,-393.7 398.78,-393.7 411.91,-393.7"/>
<polygon fill="#ffffff" stroke="#ffffff" points="373.25,-390.2 363.25,-393.7 373.25,-397.2 373.25,-390.2"/>
</g>
<!-- Transitive Relation&#45;&gt;Relation of Equivalence -->
<g id="edge32" class="edge">
<title>Transitive Relation&#45;&gt;Relation of Equivalence</title>
<path fill="none" stroke="#ffffff" d="M410.06,-207.97C340.82,-198.59 233.96,-194.4 157,-240.7 113.6,-266.81 90.24,-325.71 80.71,-355.59"/>
<polygon fill="#ffffff" stroke="#ffffff" points="409.6,-211.44 420,-209.39 410.59,-204.51 409.6,-211.44"/>
</g>
<!-- Transitive Relation&#45;&gt;Relation -->
<g id="edge30" class="edge">
<title>Transitive Relation&#45;&gt;Relation</title>
<path fill="none" stroke="#b75867" d="M541.04,-220.7C569.67,-220.7 603.27,-220.7 629.07,-220.7"/>
<polygon fill="#b75867" stroke="#b75867" points="629.26,-224.2 639.26,-220.7 629.26,-217.2 629.26,-224.2"/>
</g>
<!-- Transitive Relation&#45;&gt;Relations -->
<g id="edge33" class="edge">
<title>Transitive Relation&#45;&gt;Relations</title>
<path fill="none" stroke="#ffffff" d="M410.04,-229.75C397.23,-232.98 384.33,-237.46 373,-243.7 362.46,-249.5 352.95,-258.88 345.7,-267.3"/>
<polygon fill="#ffffff" stroke="#ffffff" points="410.83,-233.16 419.8,-227.52 409.27,-226.34 410.83,-233.16"/>
</g>
<!-- Transitive Closure -->
<g id="node20" class="node">
<title>Transitive Closure</title>
<g id="a_node20"><a xlink:href="../Transitive Closure.html" xlink:title="Transitive Closure" target="_parent">
<path fill="none" stroke="#b75867" d="M717.5,-276.7C717.5,-276.7 625.5,-276.7 625.5,-276.7 619.5,-276.7 613.5,-270.7 613.5,-264.7 613.5,-264.7 613.5,-252.7 613.5,-252.7 613.5,-246.7 619.5,-240.7 625.5,-240.7 625.5,-240.7 717.5,-240.7 717.5,-240.7 723.5,-240.7 729.5,-246.7 729.5,-252.7 729.5,-252.7 729.5,-264.7 729.5,-264.7 729.5,-270.7 723.5,-276.7 717.5,-276.7"/>
<text text-anchor="middle" x="671.5" y="-255.6" font-family="sans" font-size="12.00" fill="#c4c7c7">Transitive Closure</text>
</a>
</g>
</g>
<!-- Transitive Relation&#45;&gt;Transitive Closure -->
<g id="edge31" class="edge">
<title>Transitive Relation&#45;&gt;Transitive Closure</title>
<path fill="none" stroke="#ffffff" d="M550.94,-234.66C571.41,-238.78 593.58,-243.23 613.2,-247.18"/>
<polygon fill="#ffffff" stroke="#ffffff" points="551.54,-231.21 541.04,-232.67 550.16,-238.07 551.54,-231.21"/>
</g>
<!-- Linear order -->
<g id="node21" class="node">
<title>Linear order</title>
<g id="a_node21"><a xlink:href="../Linear order.html" xlink:title="Linear order" target="_parent">
<path fill="none" stroke="#b75867" d="M1093.5,-86.7C1093.5,-86.7 1031.5,-86.7 1031.5,-86.7 1025.5,-86.7 1019.5,-80.7 1019.5,-74.7 1019.5,-74.7 1019.5,-62.7 1019.5,-62.7 1019.5,-56.7 1025.5,-50.7 1031.5,-50.7 1031.5,-50.7 1093.5,-50.7 1093.5,-50.7 1099.5,-50.7 1105.5,-56.7 1105.5,-62.7 1105.5,-62.7 1105.5,-74.7 1105.5,-74.7 1105.5,-80.7 1099.5,-86.7 1093.5,-86.7"/>
<text text-anchor="middle" x="1062.5" y="-65.6" font-family="sans" font-size="12.00" fill="#c4c7c7">Linear order</text>
</a>
</g>
</g>
<!-- Transitive Relation&#45;&gt;Linear order -->
<g id="edge34" class="edge">
<title>Transitive Relation&#45;&gt;Linear order</title>
<path fill="none" stroke="#ffffff" d="M500.23,-194.4C520.75,-167.49 556.12,-126.34 596,-102.7 659.07,-65.3 682.34,-68.57 755,-58.7 844.4,-46.56 867.88,-54.35 958,-58.7 978.2,-59.67 1000.53,-61.71 1019.27,-63.69"/>
<polygon fill="#ffffff" stroke="#ffffff" points="497.28,-192.5 494.1,-202.6 502.89,-196.69 497.28,-192.5"/>
</g>
<!-- Partial orders have no contours -->
<g id="node22" class="node">
<title>Partial orders have no contours</title>
<g id="a_node22"><a xlink:href="../Partial orders have no contours.html" xlink:title="Partial orders have no contours" target="_parent">
<path fill="none" stroke="#b75867" d="M1147,-49.7C1147,-49.7 978,-49.7 978,-49.7 972,-49.7 966,-43.7 966,-37.7 966,-37.7 966,-25.7 966,-25.7 966,-19.7 972,-13.7 978,-13.7 978,-13.7 1147,-13.7 1147,-13.7 1153,-13.7 1159,-19.7 1159,-25.7 1159,-25.7 1159,-37.7 1159,-37.7 1159,-43.7 1153,-49.7 1147,-49.7"/>
<text text-anchor="middle" x="1062.5" y="-28.6" font-family="sans" font-size="12.00" fill="#c4c7c7">Partial orders have no contours</text>
</a>
</g>
</g>
<!-- Transitive Relation&#45;&gt;Partial orders have no contours -->
<g id="edge35" class="edge">
<title>Transitive Relation&#45;&gt;Partial orders have no contours</title>
<path fill="none" stroke="#ffffff" d="M503.51,-194.53C526.32,-166.67 562.18,-120.77 588,-77.7 592.29,-70.54 589.09,-65.39 596,-60.7 711.05,17.43 881.25,3.78 980.81,-13.67"/>
<polygon fill="#ffffff" stroke="#ffffff" points="500.54,-192.63 496.88,-202.57 505.94,-197.08 500.54,-192.63"/>
</g>
<!-- Partial order -->
<g id="node23" class="node">
<title>Partial order</title>
<g id="a_node23"><a xlink:href="../Partial order.html" xlink:title="Partial order" target="_parent">
<path fill="none" stroke="#b75867" d="M1093.5,-123.7C1093.5,-123.7 1031.5,-123.7 1031.5,-123.7 1025.5,-123.7 1019.5,-117.7 1019.5,-111.7 1019.5,-111.7 1019.5,-99.7 1019.5,-99.7 1019.5,-93.7 1025.5,-87.7 1031.5,-87.7 1031.5,-87.7 1093.5,-87.7 1093.5,-87.7 1099.5,-87.7 1105.5,-93.7 1105.5,-99.7 1105.5,-99.7 1105.5,-111.7 1105.5,-111.7 1105.5,-117.7 1099.5,-123.7 1093.5,-123.7"/>
<text text-anchor="middle" x="1062.5" y="-102.6" font-family="sans" font-size="12.00" fill="#c4c7c7">Partial order</text>
</a>
</g>
</g>
<!-- Transitive Relation&#45;&gt;Partial order -->
<g id="edge36" class="edge">
<title>Transitive Relation&#45;&gt;Partial order</title>
<path fill="none" stroke="#ffffff" d="M514.23,-196.72C536.42,-181.33 566.91,-161.84 596,-148.7 743.85,-81.9 795.79,-98.57 958,-101.7 978.14,-102.09 1000.46,-102.9 1019.21,-103.69"/>
<polygon fill="#ffffff" stroke="#ffffff" points="512.02,-193.99 505.85,-202.61 516.05,-199.72 512.02,-193.99"/>
</g>
<!-- Symmetric Relation&#45;&gt;Relation of Equivalence -->
<g id="edge39" class="edge">
<title>Symmetric Relation&#45;&gt;Relation of Equivalence</title>
<path fill="none" stroke="#ffffff" d="M782.03,-388.2C706.66,-382.58 585.99,-374.7 481.5,-374.7 329.5,-374.7 329.5,-374.7 329.5,-374.7 268.76,-374.7 199.84,-374.7 149.14,-374.54"/>
<polygon fill="#ffffff" stroke="#ffffff" points="782.12,-391.72 792.36,-388.98 782.65,-384.74 782.12,-391.72"/>
</g>
<!-- Symmetric Relation&#45;&gt;Relation -->
<g id="edge37" class="edge">
<title>Symmetric Relation&#45;&gt;Relation</title>
<path fill="none" stroke="#b75867" d="M792.42,-391.41C778.15,-387.65 764.44,-381.02 755,-369.7 737.03,-348.15 764.5,-265.63 747,-243.7 738.84,-233.47 726.15,-227.83 713.55,-224.72"/>
<polygon fill="#b75867" stroke="#b75867" points="714.04,-221.25 703.55,-222.73 712.68,-228.12 714.04,-221.25"/>
</g>
<!-- Symmetric Relation&#45;&gt;Relations -->
<g id="edge40" class="edge">
<title>Symmetric Relation&#45;&gt;Relations</title>
<path fill="none" stroke="#ffffff" d="M782.11,-381.11C770.4,-379.36 758.39,-377.79 747,-376.7 726.31,-374.72 390.62,-377.73 373,-366.7 350.99,-352.91 340.07,-323.37 335.12,-304.03"/>
<polygon fill="#ffffff" stroke="#ffffff" points="781.88,-384.61 792.3,-382.68 782.95,-377.69 781.88,-384.61"/>
</g>
<!-- Symmetric Relation&#45;&gt;Symmetric Closure -->
<g id="edge38" class="edge">
<title>Symmetric Relation&#45;&gt;Symmetric Closure</title>
<path fill="none" stroke="#ffffff" d="M930.69,-390.11C953.65,-388.99 978.74,-387.76 1000.74,-386.68"/>
<polygon fill="#ffffff" stroke="#ffffff" points="930.47,-386.62 920.65,-390.6 930.81,-393.61 930.47,-386.62"/>
</g>
<!-- Reflexive Relation&#45;&gt;Relation of Equivalence -->
<g id="edge43" class="edge">
<title>Reflexive Relation&#45;&gt;Relation of Equivalence</title>
<path fill="none" stroke="#ffffff" d="M787.6,-74.43C712.66,-74.7 588.47,-74.7 481.5,-74.7 329.5,-74.7 329.5,-74.7 329.5,-74.7 181.41,-74.7 101.87,-290.25 81.08,-355.32"/>
<polygon fill="#ffffff" stroke="#ffffff" points="787.85,-77.93 797.84,-74.39 787.82,-70.93 787.85,-77.93"/>
</g>
<!-- Reflexive Relation&#45;&gt;Relation -->
<g id="edge41" class="edge">
<title>Reflexive Relation&#45;&gt;Relation</title>
<path fill="none" stroke="#b75867" d="M797.9,-79.44C782.98,-82.73 767.59,-88.06 755,-96.7 720.29,-120.52 696.48,-164.21 683.67,-192.85"/>
<polygon fill="#b75867" stroke="#b75867" points="680.35,-191.73 679.6,-202.3 686.77,-194.5 680.35,-191.73"/>
</g>
<!-- Reflexive Relation&#45;&gt;Relations -->
<g id="edge44" class="edge">
<title>Reflexive Relation&#45;&gt;Relations</title>
<path fill="none" stroke="#ffffff" d="M787.57,-76.43C734.59,-79.46 659.58,-86.47 596,-103.7 491.33,-132.05 451.24,-127.61 373,-202.7 354.22,-220.72 342.71,-249.03 336.71,-267.48"/>
<polygon fill="#ffffff" stroke="#ffffff" points="788.07,-79.91 797.86,-75.88 787.69,-72.92 788.07,-79.91"/>
</g>
<!-- Reflexive Relation&#45;&gt;Reflexive Closure -->
<g id="edge42" class="edge">
<title>Reflexive Relation&#45;&gt;Reflexive Closure</title>
<path fill="none" stroke="#ffffff" d="M924.99,-82.13C937.09,-86.19 948.76,-92.11 958,-100.7 965.92,-108.07 962.09,-113.61 966,-123.7 995.9,-200.87 1036.17,-290.96 1053.27,-328.66"/>
<polygon fill="#ffffff" stroke="#ffffff" points="925.82,-78.73 915.24,-79.26 923.84,-85.44 925.82,-78.73"/>
</g>
<!-- Reflexive Relation&#45;&gt;Linear order -->
<g id="edge45" class="edge">
<title>Reflexive Relation&#45;&gt;Linear order</title>
<path fill="none" stroke="#ffffff" d="M925.45,-72.03C956.44,-71.27 992.16,-70.4 1019.22,-69.73"/>
<polygon fill="#ffffff" stroke="#ffffff" points="925.05,-68.54 915.14,-72.29 925.22,-75.54 925.05,-68.54"/>
</g>
<!-- Reflexive Relation&#45;&gt;Partial orders have no contours -->
<g id="edge46" class="edge">
<title>Reflexive Relation&#45;&gt;Partial orders have no contours</title>
<path fill="none" stroke="#ffffff" d="M925.2,-59.76C940.79,-56.55 957.59,-53.09 973.9,-49.73"/>
<polygon fill="#ffffff" stroke="#ffffff" points="924.23,-56.39 915.14,-61.83 925.64,-63.24 924.23,-56.39"/>
</g>
<!-- Reflexive Relation&#45;&gt;Partial order -->
<g id="edge47" class="edge">
<title>Reflexive Relation&#45;&gt;Partial order</title>
<path fill="none" stroke="#ffffff" d="M925.04,-84.29C956.12,-89.17 992.04,-94.8 1019.22,-99.07"/>
<polygon fill="#ffffff" stroke="#ffffff" points="925.56,-80.83 915.14,-82.74 924.48,-87.75 925.56,-80.83"/>
</g>
<!-- Relation&#45;&gt;Relation of Equivalence -->
<g id="edge57" class="edge">
<title>Relation&#45;&gt;Relation of Equivalence</title>
<path fill="none" stroke="#ffffff" d="M629.16,-230.28C616.05,-232.77 601.47,-235.17 588,-236.7 395.52,-258.57 327.94,-210.55 157,-301.7 131.19,-315.46 106.94,-339.08 91.71,-355.5"/>
<polygon fill="#ffffff" stroke="#ffffff" points="630.17,-233.65 639.31,-228.29 628.82,-226.78 630.17,-233.65"/>
</g>
<!-- Relation&#45;&gt;Transitive Relation -->
<g id="edge51" class="edge">
<title>Relation&#45;&gt;Transitive Relation</title>
<path fill="none" stroke="#ffffff" d="M629.07,-221.33C603.27,-221.46 569.67,-221.48 541.04,-221.4"/>
<polygon fill="#ffffff" stroke="#ffffff" points="629.28,-224.83 639.26,-221.27 629.24,-217.83 629.28,-224.83"/>
</g>
<!-- Relation&#45;&gt;Symmetric Relation -->
<g id="edge50" class="edge">
<title>Relation&#45;&gt;Symmetric Relation</title>
<path fill="none" stroke="#ffffff" d="M713.55,-223.78C726.15,-226.83 738.84,-232.47 747,-242.7 764.5,-264.63 737.03,-347.15 755,-368.7 764.44,-380.02 778.15,-386.65 792.42,-390.44"/>
<polygon fill="#ffffff" stroke="#ffffff" points="714.04,-220.31 703.55,-221.84 712.71,-227.18 714.04,-220.31"/>
</g>
<!-- Relation&#45;&gt;Reflexive Relation -->
<g id="edge52" class="edge">
<title>Relation&#45;&gt;Reflexive Relation</title>
<path fill="none" stroke="#ffffff" d="M683.25,-193.06C695.96,-164.18 719.9,-119.78 755,-95.7 767.59,-87.06 782.98,-81.73 797.9,-78.48"/>
<polygon fill="#ffffff" stroke="#ffffff" points="679.9,-192 679.23,-202.57 686.35,-194.73 679.9,-192"/>
</g>
<!-- Relation&#45;&gt;Relations -->
<g id="edge60" class="edge">
<title>Relation&#45;&gt;Relations</title>
<path fill="none" stroke="#ffffff" d="M629.28,-233.99C610.92,-239.54 592.42,-244.89 588,-245.7 493.71,-262.95 464.53,-234.22 373,-262.7 369.03,-263.93 365.02,-265.6 361.15,-267.48"/>
<polygon fill="#ffffff" stroke="#ffffff" points="630.54,-237.26 639.09,-231 628.5,-230.56 630.54,-237.26"/>
</g>
<!-- Relation&#45;&gt;Reflexive Closure -->
<g id="edge55" class="edge">
<title>Relation&#45;&gt;Reflexive Closure</title>
<path fill="none" stroke="#ffffff" d="M713.84,-218.92C787.68,-216.02 936.56,-211.57 958,-221.7 1005.13,-243.96 1038.19,-299.33 1052.91,-328.32"/>
<polygon fill="#ffffff" stroke="#ffffff" points="713.36,-215.44 703.51,-219.33 713.64,-222.43 713.36,-215.44"/>
</g>
<!-- Relation&#45;&gt;Symmetric Closure -->
<g id="edge56" class="edge">
<title>Relation&#45;&gt;Symmetric Closure</title>
<path fill="none" stroke="#ffffff" d="M713.81,-219.81C790.82,-218.36 949.34,-216.41 958,-224.7 980.04,-245.78 946.32,-338.4 966,-361.7 974.78,-372.1 987.4,-378.14 1000.6,-381.55"/>
<polygon fill="#ffffff" stroke="#ffffff" points="713.44,-216.32 703.51,-220.01 713.57,-223.32 713.44,-216.32"/>
</g>
<!-- Relation&#45;&gt;Linear order -->
<g id="edge61" class="edge">
<title>Relation&#45;&gt;Linear order</title>
<path fill="none" stroke="#ffffff" d="M682.88,-193.08C695.28,-164.43 718.96,-121.04 755,-100.7 774.68,-89.59 935.58,-91.51 958,-88.7 978.34,-86.14 1000.69,-82 1019.4,-78.14"/>
<polygon fill="#ffffff" stroke="#ffffff" points="679.56,-191.96 678.97,-202.54 686.03,-194.64 679.56,-191.96"/>
</g>
<!-- Relation&#45;&gt;Partial order -->
<g id="edge63" class="edge">
<title>Relation&#45;&gt;Partial order</title>
<path fill="none" stroke="#ffffff" d="M713.96,-219.75C790.45,-217.88 947.04,-213.49 958,-208.7 999.11,-190.71 1032.85,-148.36 1049.76,-123.93"/>
<polygon fill="#ffffff" stroke="#ffffff" points="713.63,-216.25 703.72,-219.99 713.8,-223.25 713.63,-216.25"/>
</g>
<!-- Descartes Product -->
<g id="node24" class="node">
<title>Descartes Product</title>
<g id="a_node24"><a xlink:href="../Descartes Product.html" xlink:title="Descartes Product" target="_parent">
<path fill="#273434" stroke="#b75867" d="M904,-211.7C904,-211.7 809,-211.7 809,-211.7 803,-211.7 797,-205.7 797,-199.7 797,-199.7 797,-187.7 797,-187.7 797,-181.7 803,-175.7 809,-175.7 809,-175.7 904,-175.7 904,-175.7 910,-175.7 916,-181.7 916,-187.7 916,-187.7 916,-199.7 916,-199.7 916,-205.7 910,-211.7 904,-211.7"/>
<text text-anchor="middle" x="856.5" y="-190.6" font-family="sans" font-size="12.00" fill="#c4c7c7">Descartes Product</text>
</a>
</g>
</g>
<!-- Relation&#45;&gt;Descartes Product -->
<g id="edge48" class="edge">
<title>Relation&#45;&gt;Descartes Product</title>
<path fill="none" stroke="#b75867" d="M703.54,-216.12C726.35,-212.75 758.22,-208.05 786.89,-203.82"/>
<polygon fill="#b75867" stroke="#b75867" points="787.5,-207.27 796.88,-202.35 786.47,-200.34 787.5,-207.27"/>
</g>
<!-- Anti&#45;symmetric Relation -->
<g id="node25" class="node">
<title>Anti&#45;symmetric Relation</title>
<g id="a_node25"><a xlink:href="../Anti-symmetric Relation.html" xlink:title="Anti&#45;symmetric Relation" target="_parent">
<path fill="none" stroke="#b75867" d="M920.5,-331.7C920.5,-331.7 792.5,-331.7 792.5,-331.7 786.5,-331.7 780.5,-325.7 780.5,-319.7 780.5,-319.7 780.5,-307.7 780.5,-307.7 780.5,-301.7 786.5,-295.7 792.5,-295.7 792.5,-295.7 920.5,-295.7 920.5,-295.7 926.5,-295.7 932.5,-301.7 932.5,-307.7 932.5,-307.7 932.5,-319.7 932.5,-319.7 932.5,-325.7 926.5,-331.7 920.5,-331.7"/>
<text text-anchor="middle" x="856.5" y="-310.6" font-family="sans" font-size="12.00" fill="#c4c7c7">Anti&#45;symmetric Relation</text>
</a>
</g>
</g>
<!-- Relation&#45;&gt;Anti&#45;symmetric Relation -->
<g id="edge49" class="edge">
<title>Relation&#45;&gt;Anti&#45;symmetric Relation</title>
<path fill="none" stroke="#ffffff" d="M713.6,-224.41C725.96,-227.53 738.48,-233.04 747,-242.7 761.6,-259.25 739.82,-275.68 755,-291.7 762,-299.09 770.87,-304.28 780.42,-307.88"/>
<polygon fill="#ffffff" stroke="#ffffff" points="714.3,-220.98 703.8,-222.39 712.88,-227.84 714.3,-220.98"/>
</g>
<!-- Anti&#45;reflexive relation -->
<g id="node26" class="node">
<title>Anti&#45;reflexive relation</title>
<g id="a_node26"><a xlink:href="../Anti-reflexive relation.html" xlink:title="Anti&#45;reflexive relation" target="_parent">
<path fill="none" stroke="#b75867" d="M913.5,-294.7C913.5,-294.7 799.5,-294.7 799.5,-294.7 793.5,-294.7 787.5,-288.7 787.5,-282.7 787.5,-282.7 787.5,-270.7 787.5,-270.7 787.5,-264.7 793.5,-258.7 799.5,-258.7 799.5,-258.7 913.5,-258.7 913.5,-258.7 919.5,-258.7 925.5,-264.7 925.5,-270.7 925.5,-270.7 925.5,-282.7 925.5,-282.7 925.5,-288.7 919.5,-294.7 913.5,-294.7"/>
<text text-anchor="middle" x="856.5" y="-273.6" font-family="sans" font-size="12.00" fill="#c4c7c7">Anti&#45;reflexive relation</text>
</a>
</g>
</g>
<!-- Relation&#45;&gt;Anti&#45;reflexive relation -->
<g id="edge53" class="edge">
<title>Relation&#45;&gt;Anti&#45;reflexive relation</title>
<path fill="none" stroke="#ffffff" d="M713.63,-227.4C725.19,-230.67 737.26,-235.52 747,-242.7 752.16,-246.5 749.71,-251.08 755,-254.7 764.66,-261.3 775.96,-265.96 787.42,-269.24"/>
<polygon fill="#ffffff" stroke="#ffffff" points="714.22,-223.94 703.67,-224.92 712.53,-230.73 714.22,-223.94"/>
</g>
<!-- Strongly Anti&#45;symmetric Relation -->
<g id="node27" class="node">
<title>Strongly Anti&#45;symmetric Relation</title>
<g id="a_node27"><a xlink:href="../Strongly Anti-symmetric Relation.html" xlink:title="Strongly Anti&#45;symmetric Relation" target="_parent">
<path fill="none" stroke="#b75867" d="M946,-257.7C946,-257.7 767,-257.7 767,-257.7 761,-257.7 755,-251.7 755,-245.7 755,-245.7 755,-233.7 755,-233.7 755,-227.7 761,-221.7 767,-221.7 767,-221.7 946,-221.7 946,-221.7 952,-221.7 958,-227.7 958,-233.7 958,-233.7 958,-245.7 958,-245.7 958,-251.7 952,-257.7 946,-257.7"/>
<text text-anchor="middle" x="856.5" y="-236.6" font-family="sans" font-size="12.00" fill="#c4c7c7">Strongly Anti&#45;symmetric Relation</text>
</a>
</g>
</g>
<!-- Relation&#45;&gt;Strongly Anti&#45;symmetric Relation -->
<g id="edge54" class="edge">
<title>Relation&#45;&gt;Strongly Anti&#45;symmetric Relation</title>
<path fill="none" stroke="#ffffff" d="M713.54,-224.96C725.98,-226.25 740.24,-227.73 754.81,-229.24"/>
<polygon fill="#ffffff" stroke="#ffffff" points="713.85,-221.47 703.54,-223.92 713.13,-228.44 713.85,-221.47"/>
</g>
<!-- Chain -->
<g id="node28" class="node">
<title>Chain</title>
<g id="a_node28"><a xlink:href="../Chain.html" xlink:title="Chain" target="_parent">
<path fill="none" stroke="#b75867" d="M871.5,-368.7C871.5,-368.7 841.5,-368.7 841.5,-368.7 835.5,-368.7 829.5,-362.7 829.5,-356.7 829.5,-356.7 829.5,-344.7 829.5,-344.7 829.5,-338.7 835.5,-332.7 841.5,-332.7 841.5,-332.7 871.5,-332.7 871.5,-332.7 877.5,-332.7 883.5,-338.7 883.5,-344.7 883.5,-344.7 883.5,-356.7 883.5,-356.7 883.5,-362.7 877.5,-368.7 871.5,-368.7"/>
<text text-anchor="middle" x="856.5" y="-347.6" font-family="sans" font-size="12.00" fill="#c4c7c7">Chain</text>
</a>
</g>
</g>
<!-- Relation&#45;&gt;Chain -->
<g id="edge58" class="edge">
<title>Relation&#45;&gt;Chain</title>
<path fill="none" stroke="#ffffff" d="M713.69,-223.99C726.18,-227.07 738.75,-232.67 747,-242.7 759.19,-257.52 742.29,-314.32 755,-328.7 773.34,-349.44 806.31,-353.13 829.48,-352.81"/>
<polygon fill="#ffffff" stroke="#ffffff" points="714.27,-220.54 703.78,-222.03 712.9,-227.41 714.27,-220.54"/>
</g>
<!-- Partial function -->
<g id="node29" class="node">
<title>Partial function</title>
<g id="a_node29"><a xlink:href="../Partial function.html" xlink:title="Partial function" target="_parent">
<path fill="none" stroke="#b75867" d="M896,-174.7C896,-174.7 817,-174.7 817,-174.7 811,-174.7 805,-168.7 805,-162.7 805,-162.7 805,-150.7 805,-150.7 805,-144.7 811,-138.7 817,-138.7 817,-138.7 896,-138.7 896,-138.7 902,-138.7 908,-144.7 908,-150.7 908,-150.7 908,-162.7 908,-162.7 908,-168.7 902,-174.7 896,-174.7"/>
<text text-anchor="middle" x="856.5" y="-153.6" font-family="sans" font-size="12.00" fill="#c4c7c7">Partial function</text>
</a>
</g>
</g>
<!-- Relation&#45;&gt;Partial function -->
<g id="edge59" class="edge">
<title>Relation&#45;&gt;Partial function</title>
<path fill="none" stroke="#ffffff" d="M712.26,-197.87C725.53,-190.95 740.61,-183.84 755,-178.7 770.89,-173.02 788.75,-168.53 804.95,-165.14"/>
<polygon fill="#ffffff" stroke="#ffffff" points="710.57,-194.8 703.39,-202.59 713.86,-200.98 710.57,-194.8"/>
</g>
<!-- Total function -->
<g id="node30" class="node">
<title>Total function</title>
<g id="a_node30"><a xlink:href="../Total function.html" xlink:title="Total function" target="_parent">
<path fill="none" stroke="#b75867" d="M892,-137.7C892,-137.7 821,-137.7 821,-137.7 815,-137.7 809,-131.7 809,-125.7 809,-125.7 809,-113.7 809,-113.7 809,-107.7 815,-101.7 821,-101.7 821,-101.7 892,-101.7 892,-101.7 898,-101.7 904,-107.7 904,-113.7 904,-113.7 904,-125.7 904,-125.7 904,-131.7 898,-137.7 892,-137.7"/>
<text text-anchor="middle" x="856.5" y="-116.6" font-family="sans" font-size="12.00" fill="#c4c7c7">Total function</text>
</a>
</g>
</g>
<!-- Relation&#45;&gt;Total function -->
<g id="edge62" class="edge">
<title>Relation&#45;&gt;Total function</title>
<path fill="none" stroke="#ffffff" d="M700.43,-195.56C714.66,-182.48 732.07,-166.05 747,-150.7 750.73,-146.86 750.38,-144.4 755,-141.7 771.26,-132.18 791.19,-126.76 809,-123.69"/>
<polygon fill="#ffffff" stroke="#ffffff" points="697.91,-193.13 692.89,-202.46 702.63,-198.29 697.91,-193.13"/>
</g>
<!-- Principle of division&#45;&gt;Relation of Equivalence -->
<g id="edge65" class="edge">
<title>Principle of division&#45;&gt;Relation of Equivalence</title>
<path fill="none" stroke="#b75867" d="M417.41,-652.47C402.36,-649.25 386.68,-644.54 373,-637.7 251.56,-576.95 140.88,-454 96.29,-400.06"/>
<polygon fill="#b75867" stroke="#b75867" points="98.75,-397.54 89.71,-392.02 93.34,-401.97 98.75,-397.54"/>
</g>
<!-- Principle of division&#45;&gt;Class of equivalence -->
<g id="edge64" class="edge">
<title>Principle of division&#45;&gt;Class of equivalence</title>
<path fill="none" stroke="#b75867" d="M417.34,-657.36C401.44,-654.16 385.36,-648.22 373,-637.7 365.39,-631.22 369.51,-625.61 365,-616.7 327.75,-543.15 271.88,-463.4 242.74,-423.14"/>
<polygon fill="#b75867" stroke="#b75867" points="245.48,-420.97 236.77,-414.94 239.82,-425.08 245.48,-420.97"/>
</g>
<!-- Principle of division&#45;&gt;Set -->
<g id="edge66" class="edge">
<title>Principle of division&#45;&gt;Set</title>
<path fill="none" stroke="#b75867" d="M417.48,-659.61C400.92,-656.55 384.45,-650.12 373,-637.7 363.14,-627 368.2,-586.9 365,-572.7 359.24,-547.1 349.56,-518.83 342.09,-498.55"/>
<polygon fill="#b75867" stroke="#b75867" points="345.3,-497.14 338.51,-489 338.74,-499.6 345.3,-497.14"/>
</g>
<!-- Combinatoric principles -->
<g id="node31" class="node">
<title>Combinatoric principles</title>
<g id="a_node31"><a xlink:href="../Combinatoric principles.html" xlink:title="Combinatoric principles" target="_parent">
<path fill="none" stroke="#b75867" d="M735,-676.7C735,-676.7 608,-676.7 608,-676.7 602,-676.7 596,-670.7 596,-664.7 596,-664.7 596,-652.7 596,-652.7 596,-646.7 602,-640.7 608,-640.7 608,-640.7 735,-640.7 735,-640.7 741,-640.7 747,-646.7 747,-652.7 747,-652.7 747,-664.7 747,-664.7 747,-670.7 741,-676.7 735,-676.7"/>
<text text-anchor="middle" x="671.5" y="-655.6" font-family="sans" font-size="12.00" fill="#c4c7c7">Combinatoric principles</text>
</a>
</g>
</g>
<!-- Principle of division&#45;&gt;Combinatoric principles -->
<g id="edge67" class="edge">
<title>Principle of division&#45;&gt;Combinatoric principles</title>
<path fill="none" stroke="#ffffff" d="M553.98,-658.7C567.68,-658.7 582.04,-658.7 595.81,-658.7"/>
<polygon fill="#ffffff" stroke="#ffffff" points="553.65,-655.2 543.65,-658.7 553.65,-662.2 553.65,-655.2"/>
</g>
<!-- Relations&#45;&gt;Relation of Equivalence -->
<g id="edge73" class="edge">
<title>Relations&#45;&gt;Relation of Equivalence</title>
<path fill="none" stroke="#b75867" d="M295.92,-297.86C256.09,-311.9 188.84,-335.24 139.07,-352.33"/>
<polygon fill="#b75867" stroke="#b75867" points="137.69,-349.11 129.37,-355.66 139.96,-355.73 137.69,-349.11"/>
</g>
<!-- Relations&#45;&gt;Class of equivalence -->
<g id="edge72" class="edge">
<title>Relations&#45;&gt;Class of equivalence</title>
<path fill="none" stroke="#b75867" d="M312.83,-303.72C295.53,-322.05 268.29,-350.61 248.43,-371.24"/>
<polygon fill="#b75867" stroke="#b75867" points="245.9,-368.82 241.48,-378.45 250.94,-373.68 245.9,-368.82"/>
</g>
<!-- Relations&#45;&gt;Transitive Relation -->
<g id="edge80" class="edge">
<title>Relations&#45;&gt;Transitive Relation</title>
<path fill="none" stroke="#b75867" d="M344.96,-267.27C352.29,-258.53 362.09,-248.7 373,-242.7 384.33,-236.46 397.23,-231.98 410.04,-228.77"/>
<polygon fill="#b75867" stroke="#b75867" points="410.82,-232.18 419.8,-226.56 409.27,-225.36 410.82,-232.18"/>
</g>
<!-- Relations&#45;&gt;Symmetric Relation -->
<g id="edge83" class="edge">
<title>Relations&#45;&gt;Symmetric Relation</title>
<path fill="none" stroke="#b75867" d="M335.3,-303.99C340.34,-323.08 351.25,-352.08 373,-365.7 390.62,-376.73 726.31,-373.72 747,-375.7 758.39,-376.79 770.4,-378.36 782.11,-380.12"/>
<polygon fill="#b75867" stroke="#b75867" points="781.88,-383.62 792.3,-381.71 782.95,-376.71 781.88,-383.62"/>
</g>
<!-- Relations&#45;&gt;Reflexive Relation -->
<g id="edge85" class="edge">
<title>Relations&#45;&gt;Reflexive Relation</title>
<path fill="none" stroke="#b75867" d="M336.49,-267.42C342.42,-248.74 353.99,-219.94 373,-201.7 451.24,-126.61 491.33,-131.05 596,-102.7 659.58,-85.47 734.59,-78.46 787.57,-75.61"/>
<polygon fill="#b75867" stroke="#b75867" points="788.05,-79.09 797.86,-75.1 787.7,-72.1 788.05,-79.09"/>
</g>
<!-- Relations&#45;&gt;Relation -->
<g id="edge86" class="edge">
<title>Relations&#45;&gt;Relation</title>
<path fill="none" stroke="#b75867" d="M358.84,-267.64C363.42,-265.29 368.23,-263.18 373,-261.7 464.53,-233.22 493.71,-261.95 588,-244.7 592.42,-243.89 610.92,-238.54 629.28,-233.09"/>
<polygon fill="#b75867" stroke="#b75867" points="630.5,-236.38 639.09,-230.17 628.51,-229.67 630.5,-236.38"/>
</g>
<!-- Relations&#45;&gt;Reflexive Closure -->
<g id="edge76" class="edge">
<title>Relations&#45;&gt;Reflexive Closure</title>
<path fill="none" stroke="#b75867" d="M365.14,-286.11C432.6,-287.05 578.8,-289.76 588,-295.7 594.68,-300.01 590.01,-306.47 596,-311.7 652.24,-360.76 681.37,-353.54 755,-365.7 844.02,-380.4 868.15,-373.88 958,-365.7 970.35,-364.57 983.42,-362.71 995.97,-360.58"/>
<polygon fill="#b75867" stroke="#b75867" points="996.66,-364.01 1005.89,-358.82 995.44,-357.12 996.66,-364.01"/>
</g>
<!-- Relations&#45;&gt;Reflexive Closure -->
<g id="edge79" class="edge">
<title>Relations&#45;&gt;Reflexive Closure</title>
<path fill="none" stroke="#b75867" d="M365.14,-286.65C432.6,-288.05 578.8,-290.76 588,-296.7 594.68,-301.01 590.01,-307.47 596,-312.7 652.24,-361.76 681.37,-354.54 755,-366.7 844.02,-381.4 868.15,-374.88 958,-366.7 970.35,-365.57 983.42,-363.71 995.97,-361.56"/>
<polygon fill="#b75867" stroke="#b75867" points="996.67,-364.99 1005.89,-359.78 995.43,-358.1 996.67,-364.99"/>
</g>
<!-- Relations&#45;&gt;Symmetric Closure -->
<g id="edge75" class="edge">
<title>Relations&#45;&gt;Symmetric Closure</title>
<path fill="none" stroke="#b75867" d="M335.7,-304C341,-322.39 352.05,-349.8 373,-362.7 379.92,-366.96 949.88,-378.39 958,-378.7 968.49,-379.1 979.57,-379.57 990.44,-380.07"/>
<polygon fill="#b75867" stroke="#b75867" points="990.61,-383.58 1000.76,-380.55 990.93,-376.59 990.61,-383.58"/>
</g>
<!-- Relations&#45;&gt;Symmetric Closure -->
<g id="edge77" class="edge">
<title>Relations&#45;&gt;Symmetric Closure</title>
<path fill="none" stroke="#b75867" d="M335.42,-303.72C340.59,-322.37 351.66,-350.56 373,-363.7 379.92,-367.96 949.88,-379.39 958,-379.7 968.49,-380.1 979.57,-380.57 990.44,-381.06"/>
<polygon fill="#b75867" stroke="#b75867" points="990.61,-384.57 1000.76,-381.52 990.93,-377.58 990.61,-384.57"/>
</g>
<!-- Relations&#45;&gt;Transitive Closure -->
<g id="edge74" class="edge">
<title>Relations&#45;&gt;Transitive Closure</title>
<path fill="none" stroke="#b75867" d="M365.42,-278.8C367.98,-278.39 370.53,-278.01 373,-277.7 451.62,-267.65 542.64,-262.83 603.09,-260.57"/>
<polygon fill="#b75867" stroke="#b75867" points="603.4,-264.06 613.26,-260.2 603.14,-257.07 603.4,-264.06"/>
</g>
<!-- Relations&#45;&gt;Transitive Closure -->
<g id="edge78" class="edge">
<title>Relations&#45;&gt;Transitive Closure</title>
<path fill="none" stroke="#b75867" d="M365.42,-279.8C367.98,-279.39 370.53,-279.01 373,-278.7 451.62,-268.65 542.64,-263.83 603.09,-261.36"/>
<polygon fill="#b75867" stroke="#b75867" points="603.41,-264.85 613.26,-260.95 603.13,-257.85 603.41,-264.85"/>
</g>
<!-- Relations&#45;&gt;Linear order -->
<g id="edge70" class="edge">
<title>Relations&#45;&gt;Linear order</title>
<path fill="none" stroke="#b75867" d="M333.22,-267.46C337.49,-226.32 349.9,-128.17 373,-105.7 560.12,76.35 697.7,-32.7 958,-52.7 974.81,-53.99 993.03,-56.45 1009.43,-59.05"/>
<polygon fill="#b75867" stroke="#b75867" points="1008.94,-62.52 1019.37,-60.69 1010.07,-55.61 1008.94,-62.52"/>
</g>
<!-- Relations&#45;&gt;Partial order -->
<g id="edge71" class="edge">
<title>Relations&#45;&gt;Partial order</title>
<path fill="none" stroke="#b75867" d="M346.62,-267.62C353.8,-260.37 362.99,-252.78 373,-248.7 395.14,-239.67 569.74,-254.14 588,-238.7 600.84,-227.83 585.67,-214.98 596,-201.7 642.02,-142.56 697.07,-182.57 747,-126.7 753.93,-118.94 746.48,-110.67 755,-104.7 775.22,-90.54 927.17,-97.43 1009.25,-102.3"/>
<polygon fill="#b75867" stroke="#b75867" points="1009.19,-105.8 1019.38,-102.91 1009.61,-98.81 1009.19,-105.8"/>
</g>
<!-- Relations&#45;&gt;Anti&#45;symmetric Relation -->
<g id="edge82" class="edge">
<title>Relations&#45;&gt;Anti&#45;symmetric Relation</title>
<path fill="none" stroke="#b75867" d="M365.04,-285.01C450.25,-283.41 673.48,-280.29 747,-289.7 750.64,-290.16 751.43,-290.86 755,-291.7 759.98,-292.87 765.1,-294.05 770.28,-295.23"/>
<polygon fill="#b75867" stroke="#b75867" points="769.74,-298.69 780.26,-297.48 771.28,-291.86 769.74,-298.69"/>
</g>
<!-- Relations&#45;&gt;Anti&#45;reflexive relation -->
<g id="edge84" class="edge">
<title>Relations&#45;&gt;Anti&#45;reflexive relation</title>
<path fill="none" stroke="#b75867" d="M365.08,-285.12C447.3,-283.71 660.5,-280.05 776.88,-278.05"/>
<polygon fill="#b75867" stroke="#b75867" points="777.21,-281.54 787.15,-277.87 777.09,-274.54 777.21,-281.54"/>
</g>
<!-- Relations&#45;&gt;Strongly Anti&#45;symmetric Relation -->
<g id="edge81" class="edge">
<title>Relations&#45;&gt;Strongly Anti&#45;symmetric Relation</title>
<path fill="none" stroke="#b75867" d="M365.02,-284.02C367.72,-283.9 370.41,-283.8 373,-283.7 393.77,-282.92 728.81,-283.75 747,-273.7 750.77,-271.62 750.7,-268.55 753.79,-264.46"/>
<polygon fill="#b75867" stroke="#b75867" points="756.23,-266.97 761.4,-257.73 751.59,-261.73 756.23,-266.97"/>
</g>
<!-- Relations&#45;&gt;Chain -->
<g id="edge68" class="edge">
<title>Relations&#45;&gt;Chain</title>
<path fill="none" stroke="#b75867" d="M365.26,-284.66C414.44,-283.58 508.6,-283.21 588,-292.7 659.75,-301.28 676.6,-310.38 747,-326.7 750.57,-327.53 751.43,-327.86 755,-328.7 776.37,-333.71 800.39,-338.98 819.58,-343.1"/>
<polygon fill="#b75867" stroke="#b75867" points="818.91,-346.54 829.42,-345.21 820.38,-339.7 818.91,-346.54"/>
</g>
<!-- Linear extension -->
<g id="node32" class="node">
<title>Linear extension</title>
<g id="a_node32"><a xlink:href="../Linear extension.html" xlink:title="Linear extension" target="_parent">
<path fill="#273434" stroke="#b75867" d="M523.5,-365.7C523.5,-365.7 437.5,-365.7 437.5,-365.7 431.5,-365.7 425.5,-359.7 425.5,-353.7 425.5,-353.7 425.5,-341.7 425.5,-341.7 425.5,-335.7 431.5,-329.7 437.5,-329.7 437.5,-329.7 523.5,-329.7 523.5,-329.7 529.5,-329.7 535.5,-335.7 535.5,-341.7 535.5,-341.7 535.5,-353.7 535.5,-353.7 535.5,-359.7 529.5,-365.7 523.5,-365.7"/>
<text text-anchor="middle" x="480.5" y="-344.6" font-family="sans" font-size="12.00" fill="#c4c7c7">Linear extension</text>
</a>
</g>
</g>
<!-- Relations&#45;&gt;Linear extension -->
<g id="edge69" class="edge">
<title>Relations&#45;&gt;Linear extension</title>
<path fill="none" stroke="#b75867" d="M346.33,-304.05C353.58,-311.86 362.91,-320.38 373,-325.7 386.03,-332.57 401,-337.29 415.53,-340.55"/>
<polygon fill="#b75867" stroke="#b75867" points="414.99,-344.01 425.48,-342.57 416.38,-337.15 414.99,-344.01"/>
</g>
<!-- Discrete Structures -->
<g id="node33" class="node">
<title>Discrete Structures</title>
<g id="a_node33"><a xlink:href="../Discrete Structures.html" xlink:title="Discrete Structures" target="_parent">
<path fill="none" stroke="#b75867" d="M529.5,-328.7C529.5,-328.7 431.5,-328.7 431.5,-328.7 425.5,-328.7 419.5,-322.7 419.5,-316.7 419.5,-316.7 419.5,-304.7 419.5,-304.7 419.5,-298.7 425.5,-292.7 431.5,-292.7 431.5,-292.7 529.5,-292.7 529.5,-292.7 535.5,-292.7 541.5,-298.7 541.5,-304.7 541.5,-304.7 541.5,-316.7 541.5,-316.7 541.5,-322.7 535.5,-328.7 529.5,-328.7"/>
<text text-anchor="middle" x="480.5" y="-307.6" font-family="sans" font-size="12.00" fill="#c4c7c7">Discrete Structures</text>
</a>
</g>
</g>
<!-- Relations&#45;&gt;Discrete Structures -->
<g id="edge87" class="edge">
<title>Relations&#45;&gt;Discrete Structures</title>
<path fill="none" stroke="#ffffff" d="M375.27,-293.09C389.07,-295.42 404.56,-298.04 419.3,-300.53"/>
<polygon fill="#ffffff" stroke="#ffffff" points="375.53,-289.59 365.08,-291.37 374.36,-296.49 375.53,-289.59"/>
</g>
</g>
</svg>
