<?xml version="1.0" encoding="UTF-8" standalone="no"?>
<!DOCTYPE svg PUBLIC "-//W3C//DTD SVG 1.1//EN"
 "http://www.w3.org/Graphics/SVG/1.1/DTD/svg11.dtd">
<!-- Generated by graphviz version 2.44.0 (0)
 -->
<!-- Title: Relation of Equivalence Pages: 1 -->
<svg width="3371pt" height="260pt"
 viewBox="0.00 0.00 3371.28 260.00" xmlns="http://www.w3.org/2000/svg" xmlns:xlink="http://www.w3.org/1999/xlink">
<g id="page0,1_graph0" class="graph" transform="scale(1 1) rotate(0) translate(4 256)">
<title>Relation of Equivalence</title>
<polygon fill="#132020" stroke="transparent" points="-4,4 -4,-256 3367.28,-256 3367.28,4 -4,4"/>
<!-- Relation of Equivalence -->
<g id="node1" class="node">
<title>Relation of Equivalence</title>
<g id="a_node1"><a xlink:title="Relation of Equivalence">
<path fill="#273434" stroke="#b75867" d="M1718.84,-252C1718.84,-252 1593.84,-252 1593.84,-252 1587.84,-252 1581.84,-246 1581.84,-240 1581.84,-240 1581.84,-228 1581.84,-228 1581.84,-222 1587.84,-216 1593.84,-216 1593.84,-216 1718.84,-216 1718.84,-216 1724.84,-216 1730.84,-222 1730.84,-228 1730.84,-228 1730.84,-240 1730.84,-240 1730.84,-246 1724.84,-252 1718.84,-252"/>
<text text-anchor="middle" x="1656.34" y="-230.9" font-family="sans" font-size="12.00" fill="#c4c7c7">Relation of Equivalence</text>
</a>
</g>
</g>
<!-- Class of equivalence -->
<g id="node2" class="node">
<title>Class of equivalence</title>
<g id="a_node2"><a xlink:title="Class of equivalence">
<path fill="#273434" stroke="#b75867" d="M1404.84,-180C1404.84,-180 1297.84,-180 1297.84,-180 1291.84,-180 1285.84,-174 1285.84,-168 1285.84,-168 1285.84,-156 1285.84,-156 1285.84,-150 1291.84,-144 1297.84,-144 1297.84,-144 1404.84,-144 1404.84,-144 1410.84,-144 1416.84,-150 1416.84,-156 1416.84,-156 1416.84,-168 1416.84,-168 1416.84,-174 1410.84,-180 1404.84,-180"/>
<text text-anchor="middle" x="1351.34" y="-158.9" font-family="sans" font-size="12.00" fill="#c4c7c7">Class of equivalence</text>
</a>
</g>
</g>
<!-- Relation of Equivalence&#45;&gt;Class of equivalence -->
<g id="edge1" class="edge">
<title>Relation of Equivalence&#45;&gt;Class of equivalence</title>
<path fill="none" stroke="#b75867" d="M1581.76,-217.2C1534.69,-206.68 1474.13,-192.81 1426.88,-181.73"/>
<polygon fill="#b75867" stroke="#b75867" points="1427.54,-178.29 1417.01,-179.41 1425.94,-185.1 1427.54,-178.29"/>
</g>
<!-- Partition -->
<g id="node3" class="node">
<title>Partition</title>
<g id="a_node3"><a xlink:title="Partition">
<path fill="#273434" stroke="#b75867" d="M1132.84,-108C1132.84,-108 1091.84,-108 1091.84,-108 1085.84,-108 1079.84,-102 1079.84,-96 1079.84,-96 1079.84,-84 1079.84,-84 1079.84,-78 1085.84,-72 1091.84,-72 1091.84,-72 1132.84,-72 1132.84,-72 1138.84,-72 1144.84,-78 1144.84,-84 1144.84,-84 1144.84,-96 1144.84,-96 1144.84,-102 1138.84,-108 1132.84,-108"/>
<text text-anchor="middle" x="1112.34" y="-86.9" font-family="sans" font-size="12.00" fill="#c4c7c7">Partition</text>
</a>
</g>
</g>
<!-- Relation of Equivalence&#45;&gt;Partition -->
<g id="edge3" class="edge">
<title>Relation of Equivalence&#45;&gt;Partition</title>
<path fill="none" stroke="#b75867" d="M1581.63,-233.44C1460.11,-232.8 1226.41,-225.45 1159.34,-180 1138.05,-165.58 1125.71,-138.33 1119.06,-117.77"/>
<polygon fill="#b75867" stroke="#b75867" points="1122.36,-116.6 1116.16,-108.01 1115.65,-118.6 1122.36,-116.6"/>
</g>
<!-- Set -->
<g id="node4" class="node">
<title>Set</title>
<g id="a_node4"><a xlink:title="Set">
<path fill="#273434" stroke="#b75867" d="M1281.34,-108C1281.34,-108 1251.34,-108 1251.34,-108 1245.34,-108 1239.34,-102 1239.34,-96 1239.34,-96 1239.34,-84 1239.34,-84 1239.34,-78 1245.34,-72 1251.34,-72 1251.34,-72 1281.34,-72 1281.34,-72 1287.34,-72 1293.34,-78 1293.34,-84 1293.34,-84 1293.34,-96 1293.34,-96 1293.34,-102 1287.34,-108 1281.34,-108"/>
<text text-anchor="middle" x="1266.34" y="-86.9" font-family="sans" font-size="12.00" fill="#c4c7c7">Set</text>
</a>
</g>
</g>
<!-- Relation of Equivalence&#45;&gt;Set -->
<g id="edge2" class="edge">
<title>Relation of Equivalence&#45;&gt;Set</title>
<path fill="none" stroke="#b75867" d="M1614.18,-215.97C1568.23,-197.57 1492.43,-167.72 1426.34,-144 1384.28,-128.91 1335.46,-112.96 1302.92,-102.55"/>
<polygon fill="#b75867" stroke="#b75867" points="1303.96,-99.21 1293.37,-99.51 1301.83,-105.88 1303.96,-99.21"/>
</g>
<!-- Transitive Relation -->
<g id="node5" class="node">
<title>Transitive Relation</title>
<g id="a_node5"><a xlink:title="Transitive Relation">
<path fill="#273434" stroke="#b75867" d="M2464.84,-180C2464.84,-180 2367.84,-180 2367.84,-180 2361.84,-180 2355.84,-174 2355.84,-168 2355.84,-168 2355.84,-156 2355.84,-156 2355.84,-150 2361.84,-144 2367.84,-144 2367.84,-144 2464.84,-144 2464.84,-144 2470.84,-144 2476.84,-150 2476.84,-156 2476.84,-156 2476.84,-168 2476.84,-168 2476.84,-174 2470.84,-180 2464.84,-180"/>
<text text-anchor="middle" x="2416.34" y="-158.9" font-family="sans" font-size="12.00" fill="#c4c7c7">Transitive Relation</text>
</a>
</g>
</g>
<!-- Relation of Equivalence&#45;&gt;Transitive Relation -->
<g id="edge4" class="edge">
<title>Relation of Equivalence&#45;&gt;Transitive Relation</title>
<path fill="none" stroke="#b75867" d="M1730.89,-226.34C1841.77,-216.42 2056.68,-197.07 2239.34,-180 2274.28,-176.73 2313.1,-173.02 2345.46,-169.89"/>
<polygon fill="#b75867" stroke="#b75867" points="2346.11,-173.34 2355.72,-168.9 2345.43,-166.38 2346.11,-173.34"/>
</g>
<!-- Relation -->
<g id="node6" class="node">
<title>Relation</title>
<g id="a_node6"><a xlink:title="Relation">
<path fill="#273434" stroke="#b75867" d="M2191.34,-108C2191.34,-108 2151.34,-108 2151.34,-108 2145.34,-108 2139.34,-102 2139.34,-96 2139.34,-96 2139.34,-84 2139.34,-84 2139.34,-78 2145.34,-72 2151.34,-72 2151.34,-72 2191.34,-72 2191.34,-72 2197.34,-72 2203.34,-78 2203.34,-84 2203.34,-84 2203.34,-96 2203.34,-96 2203.34,-102 2197.34,-108 2191.34,-108"/>
<text text-anchor="middle" x="2171.34" y="-86.9" font-family="sans" font-size="12.00" fill="#c4c7c7">Relation</text>
</a>
</g>
</g>
<!-- Relation of Equivalence&#45;&gt;Relation -->
<g id="edge7" class="edge">
<title>Relation of Equivalence&#45;&gt;Relation</title>
<path fill="none" stroke="#b75867" d="M1730.98,-221.14C1784.68,-211.89 1858.57,-197.65 1922.34,-180 1996.79,-159.4 2080.95,-127.42 2129.89,-107.93"/>
<polygon fill="#b75867" stroke="#b75867" points="2131.21,-111.17 2139.19,-104.2 2128.61,-104.67 2131.21,-111.17"/>
</g>
<!-- Symmetric Relation -->
<g id="node7" class="node">
<title>Symmetric Relation</title>
<g id="a_node7"><a xlink:title="Symmetric Relation">
<path fill="#273434" stroke="#b75867" d="M1901.34,-180C1901.34,-180 1797.34,-180 1797.34,-180 1791.34,-180 1785.34,-174 1785.34,-168 1785.34,-168 1785.34,-156 1785.34,-156 1785.34,-150 1791.34,-144 1797.34,-144 1797.34,-144 1901.34,-144 1901.34,-144 1907.34,-144 1913.34,-150 1913.34,-156 1913.34,-156 1913.34,-168 1913.34,-168 1913.34,-174 1907.34,-180 1901.34,-180"/>
<text text-anchor="middle" x="1849.34" y="-158.9" font-family="sans" font-size="12.00" fill="#c4c7c7">Symmetric Relation</text>
</a>
</g>
</g>
<!-- Relation of Equivalence&#45;&gt;Symmetric Relation -->
<g id="edge5" class="edge">
<title>Relation of Equivalence&#45;&gt;Symmetric Relation</title>
<path fill="none" stroke="#b75867" d="M1703.55,-215.88C1730.4,-206.14 1764.22,-193.87 1792.52,-183.61"/>
<polygon fill="#b75867" stroke="#b75867" points="1794.07,-186.77 1802.28,-180.07 1791.68,-180.19 1794.07,-186.77"/>
</g>
<!-- Reflexive Relation -->
<g id="node8" class="node">
<title>Reflexive Relation</title>
<g id="a_node8"><a xlink:title="Reflexive Relation">
<path fill="#273434" stroke="#b75867" d="M2217.84,-180C2217.84,-180 2124.84,-180 2124.84,-180 2118.84,-180 2112.84,-174 2112.84,-168 2112.84,-168 2112.84,-156 2112.84,-156 2112.84,-150 2118.84,-144 2124.84,-144 2124.84,-144 2217.84,-144 2217.84,-144 2223.84,-144 2229.84,-150 2229.84,-156 2229.84,-156 2229.84,-168 2229.84,-168 2229.84,-174 2223.84,-180 2217.84,-180"/>
<text text-anchor="middle" x="2171.34" y="-158.9" font-family="sans" font-size="12.00" fill="#c4c7c7">Reflexive Relation</text>
</a>
</g>
</g>
<!-- Relation of Equivalence&#45;&gt;Reflexive Relation -->
<g id="edge6" class="edge">
<title>Relation of Equivalence&#45;&gt;Reflexive Relation</title>
<path fill="none" stroke="#b75867" d="M1730.95,-222.86C1830.7,-209.3 2006.13,-185.46 2102.73,-172.32"/>
<polygon fill="#b75867" stroke="#b75867" points="2103.25,-175.79 2112.68,-170.97 2102.3,-168.85 2103.25,-175.79"/>
</g>
<!-- Principle of division -->
<g id="node10" class="node">
<title>Principle of division</title>
<g id="a_node10"><a xlink:title="Principle of division">
<ellipse fill="#273434" stroke="#b75867" cx="264.34" cy="-18" rx="77.63" ry="18"/>
<text text-anchor="middle" x="264.34" y="-14.9" font-family="sans" font-size="12.00" fill="#c4c7c7">Principle of division</text>
</a>
</g>
</g>
<!-- Relation of Equivalence&#45;&gt;Principle of division -->
<g id="edge15" class="edge">
<title>Relation of Equivalence&#45;&gt;Principle of division</title>
<path fill="none" stroke="#ffffff" d="M1571.56,-226.4C1476.43,-218.08 1328.7,-202.13 1277.34,-180 1230.29,-159.73 1225.01,-142.7 1187.34,-108 1171.15,-93.09 1173.35,-81.16 1153.34,-72 1072.23,-34.86 439.91,-46.58 351.34,-36 340.79,-34.74 329.61,-32.92 318.9,-30.94"/>
<polygon fill="#ffffff" stroke="#ffffff" points="1571.48,-229.91 1581.74,-227.28 1572.08,-222.93 1571.48,-229.91"/>
</g>
<!-- Relations -->
<g id="node11" class="node">
<title>Relations</title>
<g id="a_node11"><a xlink:title="Relations">
<ellipse fill="#273434" stroke="#b75867" cx="1916.34" cy="-18" rx="42.45" ry="18"/>
<text text-anchor="middle" x="1916.34" y="-14.9" font-family="sans" font-size="12.00" fill="#c4c7c7">Relations</text>
</a>
</g>
</g>
<!-- Relation of Equivalence&#45;&gt;Relations -->
<g id="edge16" class="edge">
<title>Relation of Equivalence&#45;&gt;Relations</title>
<path fill="none" stroke="#ffffff" d="M1684.92,-209.47C1738.47,-165.4 1852.53,-71.52 1897.52,-34.48"/>
<polygon fill="#ffffff" stroke="#ffffff" points="1682.67,-206.79 1677.17,-215.85 1687.12,-212.2 1682.67,-206.79"/>
</g>
<!-- Class of equivalence&#45;&gt;Relation of Equivalence -->
<g id="edge10" class="edge">
<title>Class of equivalence&#45;&gt;Relation of Equivalence</title>
<path fill="none" stroke="#b75867" d="M1417.04,-176.82C1464.35,-187.35 1528.3,-201.98 1578.21,-213.67"/>
<polygon fill="#b75867" stroke="#b75867" points="1577.47,-217.09 1588,-215.97 1579.07,-210.27 1577.47,-217.09"/>
</g>
<!-- Class of equivalence&#45;&gt;Partition -->
<g id="edge8" class="edge">
<title>Class of equivalence&#45;&gt;Partition</title>
<path fill="none" stroke="#b75867" d="M1293.18,-143.97C1250.43,-131.45 1193.32,-114.72 1154.81,-103.44"/>
<polygon fill="#b75867" stroke="#b75867" points="1155.53,-100.01 1144.95,-100.55 1153.57,-106.72 1155.53,-100.01"/>
</g>
<!-- Class of equivalence&#45;&gt;Set -->
<g id="edge9" class="edge">
<title>Class of equivalence&#45;&gt;Set</title>
<path fill="none" stroke="#b75867" d="M1330.32,-143.7C1319.62,-134.88 1306.45,-124.03 1294.84,-114.47"/>
<polygon fill="#b75867" stroke="#b75867" points="1297.05,-111.76 1287.1,-108.1 1292.6,-117.16 1297.05,-111.76"/>
</g>
<!-- Class of equivalence&#45;&gt;Principle of division -->
<g id="edge17" class="edge">
<title>Class of equivalence&#45;&gt;Principle of division</title>
<path fill="none" stroke="#ffffff" d="M1294.7,-140.11C1273.81,-131.41 1250.37,-120.42 1230.34,-108 1209.15,-94.87 1210.57,-81.01 1187.34,-72 1013.97,-4.75 535.99,-57.89 351.34,-36 340.79,-34.75 329.61,-32.94 318.9,-30.96"/>
<polygon fill="#ffffff" stroke="#ffffff" points="1293.52,-143.41 1304.1,-143.95 1296.17,-136.93 1293.52,-143.41"/>
</g>
<!-- Class of equivalence&#45;&gt;Relations -->
<g id="edge18" class="edge">
<title>Class of equivalence&#45;&gt;Relations</title>
<path fill="none" stroke="#ffffff" d="M1427.16,-143.38C1549.06,-114.91 1783.25,-59.62 1865.34,-36 1871.61,-34.19 1878.27,-32.1 1884.63,-30.02"/>
<polygon fill="#ffffff" stroke="#ffffff" points="1426.09,-140.03 1417.15,-145.72 1427.69,-146.85 1426.09,-140.03"/>
</g>
<!-- Principle of partitions -->
<g id="node12" class="node">
<title>Principle of partitions</title>
<g id="a_node12"><a xlink:title="Principle of partitions">
<ellipse fill="#273434" stroke="#b75867" cx="84.34" cy="-18" rx="84.17" ry="18"/>
<text text-anchor="middle" x="84.34" y="-14.9" font-family="sans" font-size="12.00" fill="#c4c7c7">Principle of partitions</text>
</a>
</g>
</g>
<!-- Partition&#45;&gt;Principle of partitions -->
<g id="edge19" class="edge">
<title>Partition&#45;&gt;Principle of partitions</title>
<path fill="none" stroke="#ffffff" d="M1069.32,-88.46C936.23,-86.38 519.61,-76.82 177.34,-36 166.25,-34.68 154.5,-32.86 143.21,-30.9"/>
<polygon fill="#ffffff" stroke="#ffffff" points="1069.45,-91.96 1079.5,-88.61 1069.55,-84.96 1069.45,-91.96"/>
</g>
<!-- Set&#45;&gt;Principle of division -->
<g id="edge23" class="edge">
<title>Set&#45;&gt;Principle of division</title>
<path fill="none" stroke="#ffffff" d="M1229.17,-72.95C1227.89,-72.6 1226.61,-72.28 1225.34,-72 1035.51,-30.13 544.39,-58.7 351.34,-36 340.79,-34.76 329.61,-32.95 318.9,-30.98"/>
<polygon fill="#ffffff" stroke="#ffffff" points="1228.38,-76.37 1238.98,-76.12 1230.54,-69.71 1228.38,-76.37"/>
</g>
<!-- Set&#45;&gt;Principle of partitions -->
<g id="edge28" class="edge">
<title>Set&#45;&gt;Principle of partitions</title>
<path fill="none" stroke="#ffffff" d="M1229.12,-82.32C1207.15,-78.65 1178.74,-74.37 1153.34,-72 721.14,-31.65 608.84,-83.15 177.34,-36 166.24,-34.79 154.48,-33.02 143.19,-31.08"/>
<polygon fill="#ffffff" stroke="#ffffff" points="1228.59,-85.79 1239.04,-84.01 1229.77,-78.88 1228.59,-85.79"/>
</g>
<!-- Reflexive Closure -->
<g id="node13" class="node">
<title>Reflexive Closure</title>
<g id="a_node13"><a xlink:title="Reflexive Closure">
<ellipse fill="#273434" stroke="#b75867" cx="1786.34" cy="-18" rx="69.62" ry="18"/>
<text text-anchor="middle" x="1786.34" y="-14.9" font-family="sans" font-size="12.00" fill="#c4c7c7">Reflexive Closure</text>
</a>
</g>
</g>
<!-- Set&#45;&gt;Reflexive Closure -->
<g id="edge20" class="edge">
<title>Set&#45;&gt;Reflexive Closure</title>
<path fill="none" stroke="#ffffff" d="M1303.42,-85.76C1379.61,-78.83 1559.12,-61.15 1708.34,-36 1717.49,-34.46 1727.2,-32.56 1736.54,-30.59"/>
<polygon fill="#ffffff" stroke="#ffffff" points="1303.02,-82.28 1293.37,-86.66 1303.64,-89.25 1303.02,-82.28"/>
</g>
<!-- Symmetric Closure -->
<g id="node14" class="node">
<title>Symmetric Closure</title>
<g id="a_node14"><a xlink:title="Symmetric Closure">
<ellipse fill="#273434" stroke="#b75867" cx="1623.34" cy="-18" rx="75.94" ry="18"/>
<text text-anchor="middle" x="1623.34" y="-14.9" font-family="sans" font-size="12.00" fill="#c4c7c7">Symmetric Closure</text>
</a>
</g>
</g>
<!-- Set&#45;&gt;Symmetric Closure -->
<g id="edge21" class="edge">
<title>Set&#45;&gt;Symmetric Closure</title>
<path fill="none" stroke="#ffffff" d="M1303.19,-81.88C1355.5,-71.76 1454.26,-52.6 1538.34,-36 1547.78,-34.13 1557.82,-32.14 1567.56,-30.2"/>
<polygon fill="#ffffff" stroke="#ffffff" points="1302.52,-78.44 1293.37,-83.78 1303.85,-85.32 1302.52,-78.44"/>
</g>
<!-- Recurrent Equations -->
<g id="node15" class="node">
<title>Recurrent Equations</title>
<g id="a_node15"><a xlink:title="Recurrent Equations">
<ellipse fill="#273434" stroke="#b75867" cx="1266.34" cy="-18" rx="80.78" ry="18"/>
<text text-anchor="middle" x="1266.34" y="-14.9" font-family="sans" font-size="12.00" fill="#c4c7c7">Recurrent Equations</text>
</a>
</g>
</g>
<!-- Set&#45;&gt;Recurrent Equations -->
<g id="edge22" class="edge">
<title>Set&#45;&gt;Recurrent Equations</title>
<path fill="none" stroke="#ffffff" d="M1266.34,-61.67C1266.34,-53.05 1266.34,-43.79 1266.34,-36.1"/>
<polygon fill="#ffffff" stroke="#ffffff" points="1262.84,-61.7 1266.34,-71.7 1269.84,-61.7 1262.84,-61.7"/>
</g>
<!-- Principle of products -->
<g id="node16" class="node">
<title>Principle of products</title>
<g id="a_node16"><a xlink:title="Principle of products">
<ellipse fill="#273434" stroke="#b75867" cx="1447.34" cy="-18" rx="82.48" ry="18"/>
<text text-anchor="middle" x="1447.34" y="-14.9" font-family="sans" font-size="12.00" fill="#c4c7c7">Principle of products</text>
</a>
</g>
</g>
<!-- Set&#45;&gt;Principle of products -->
<g id="edge24" class="edge">
<title>Set&#45;&gt;Principle of products</title>
<path fill="none" stroke="#ffffff" d="M1302.91,-74.85C1333.62,-62.98 1377.36,-46.06 1408.65,-33.96"/>
<polygon fill="#ffffff" stroke="#ffffff" points="1301.5,-71.65 1293.43,-78.52 1304.02,-78.18 1301.5,-71.65"/>
</g>
<!-- Dirichlet principle -->
<g id="node17" class="node">
<title>Dirichlet principle</title>
<g id="a_node17"><a xlink:title="Dirichlet principle">
<ellipse fill="#273434" stroke="#b75867" cx="431.34" cy="-18" rx="71.32" ry="18"/>
<text text-anchor="middle" x="431.34" y="-14.9" font-family="sans" font-size="12.00" fill="#c4c7c7">Dirichlet principle</text>
</a>
</g>
</g>
<!-- Set&#45;&gt;Dirichlet principle -->
<g id="edge25" class="edge">
<title>Set&#45;&gt;Dirichlet principle</title>
<path fill="none" stroke="#ffffff" d="M1229.17,-72.96C1227.88,-72.61 1226.6,-72.29 1225.34,-72 915.81,-2.21 827.01,-76.71 512.34,-36 502.36,-34.71 491.78,-32.85 481.68,-30.84"/>
<polygon fill="#ffffff" stroke="#ffffff" points="1228.38,-76.38 1238.97,-76.15 1230.54,-69.73 1228.38,-76.38"/>
</g>
<!-- Principle of inclusion and exclusion -->
<g id="node18" class="node">
<title>Principle of inclusion and exclusion</title>
<g id="a_node18"><a xlink:title="Principle of inclusion and exclusion">
<ellipse fill="#273434" stroke="#b75867" cx="653.34" cy="-18" rx="132.2" ry="18"/>
<text text-anchor="middle" x="653.34" y="-14.9" font-family="sans" font-size="12.00" fill="#c4c7c7">Principle of inclusion and exclusion</text>
</a>
</g>
</g>
<!-- Set&#45;&gt;Principle of inclusion and exclusion -->
<g id="edge26" class="edge">
<title>Set&#45;&gt;Principle of inclusion and exclusion</title>
<path fill="none" stroke="#ffffff" d="M1229.15,-73.02C1227.87,-72.65 1226.6,-72.31 1225.34,-72 1038.97,-26.73 986.13,-55.4 795.34,-36 779.77,-34.42 763.27,-32.58 747.23,-30.72"/>
<polygon fill="#ffffff" stroke="#ffffff" points="1228.34,-76.43 1238.94,-76.28 1230.56,-69.8 1228.34,-76.43"/>
</g>
<!-- Differential Analysis -->
<g id="node19" class="node">
<title>Differential Analysis</title>
<g id="a_node19"><a xlink:title="Differential Analysis">
<ellipse fill="#273434" stroke="#b75867" cx="882.34" cy="-18" rx="78.36" ry="18"/>
<text text-anchor="middle" x="882.34" y="-14.9" font-family="sans" font-size="12.00" fill="#c4c7c7">Differential Analysis</text>
</a>
</g>
</g>
<!-- Set&#45;&gt;Differential Analysis -->
<g id="edge27" class="edge">
<title>Set&#45;&gt;Differential Analysis</title>
<path fill="none" stroke="#ffffff" d="M1229.7,-73.28C1228.23,-72.82 1226.78,-72.39 1225.34,-72 1114.49,-41.75 1082.65,-55.02 969.34,-36 959.47,-34.34 949.01,-32.43 938.88,-30.5"/>
<polygon fill="#ffffff" stroke="#ffffff" points="1228.73,-76.66 1239.33,-76.68 1231.06,-70.05 1228.73,-76.66"/>
</g>
<!-- Principle of the bijection -->
<g id="node20" class="node">
<title>Principle of the bijection</title>
<g id="a_node20"><a xlink:title="Principle of the bijection">
<ellipse fill="#273434" stroke="#b75867" cx="1073.34" cy="-18" rx="94.6" ry="18"/>
<text text-anchor="middle" x="1073.34" y="-14.9" font-family="sans" font-size="12.00" fill="#c4c7c7">Principle of the bijection</text>
</a>
</g>
</g>
<!-- Set&#45;&gt;Principle of the bijection -->
<g id="edge29" class="edge">
<title>Set&#45;&gt;Principle of the bijection</title>
<path fill="none" stroke="#ffffff" d="M1229.58,-73.64C1228.15,-73.08 1226.73,-72.53 1225.34,-72 1189.56,-58.36 1148.54,-44.14 1118.14,-33.87"/>
<polygon fill="#ffffff" stroke="#ffffff" points="1228.49,-76.97 1239.08,-77.44 1231.09,-70.48 1228.49,-76.97"/>
</g>
<!-- Transitive Relation&#45;&gt;Relation -->
<g id="edge11" class="edge">
<title>Transitive Relation&#45;&gt;Relation</title>
<path fill="none" stroke="#b75867" d="M2356.71,-143.97C2312.28,-131.27 2252.71,-114.25 2213.23,-102.97"/>
<polygon fill="#b75867" stroke="#b75867" points="2213.97,-99.54 2203.39,-100.16 2212.05,-106.27 2213.97,-99.54"/>
</g>
<!-- Transitive Relation&#45;&gt;Relations -->
<g id="edge31" class="edge">
<title>Transitive Relation&#45;&gt;Relations</title>
<path fill="none" stroke="#ffffff" d="M2345.52,-152.12C2287.04,-143.78 2202.26,-129.36 2130.34,-108 2060.71,-87.32 1982.88,-51.56 1943.03,-32.26"/>
<polygon fill="#ffffff" stroke="#ffffff" points="2345.37,-155.63 2355.76,-153.56 2346.34,-148.7 2345.37,-155.63"/>
</g>
<!-- Transitive Closure -->
<g id="node21" class="node">
<title>Transitive Closure</title>
<g id="a_node21"><a xlink:title="Transitive Closure">
<ellipse fill="#273434" stroke="#b75867" cx="2662.34" cy="-90" rx="71.32" ry="18"/>
<text text-anchor="middle" x="2662.34" y="-86.9" font-family="sans" font-size="12.00" fill="#c4c7c7">Transitive Closure</text>
</a>
</g>
</g>
<!-- Transitive Relation&#45;&gt;Transitive Closure -->
<g id="edge30" class="edge">
<title>Transitive Relation&#45;&gt;Transitive Closure</title>
<path fill="none" stroke="#ffffff" d="M2486.08,-141.15C2528.05,-129.21 2580.27,-114.35 2616.93,-103.92"/>
<polygon fill="#ffffff" stroke="#ffffff" points="2484.86,-137.86 2476.2,-143.97 2486.78,-144.59 2484.86,-137.86"/>
</g>
<!-- Linear order -->
<g id="node22" class="node">
<title>Linear order</title>
<g id="a_node22"><a xlink:title="Linear order">
<ellipse fill="#273434" stroke="#b75867" cx="3310.34" cy="-18" rx="52.88" ry="18"/>
<text text-anchor="middle" x="3310.34" y="-14.9" font-family="sans" font-size="12.00" fill="#c4c7c7">Linear order</text>
</a>
</g>
</g>
<!-- Transitive Relation&#45;&gt;Linear order -->
<g id="edge32" class="edge">
<title>Transitive Relation&#45;&gt;Linear order</title>
<path fill="none" stroke="#ffffff" d="M2487.11,-153.24C2631.29,-136.79 2969.05,-95.05 3248.34,-36 3255.87,-34.41 3263.85,-32.44 3271.48,-30.41"/>
<polygon fill="#ffffff" stroke="#ffffff" points="2486.61,-149.77 2477.07,-154.38 2487.4,-156.73 2486.61,-149.77"/>
</g>
<!-- Partial orders have no contours -->
<g id="node23" class="node">
<title>Partial orders have no contours</title>
<g id="a_node23"><a xlink:title="Partial orders have no contours">
<ellipse fill="#273434" stroke="#b75867" cx="2416.34" cy="-90" rx="118.62" ry="18"/>
<text text-anchor="middle" x="2416.34" y="-86.9" font-family="sans" font-size="12.00" fill="#c4c7c7">Partial orders have no contours</text>
</a>
</g>
</g>
<!-- Transitive Relation&#45;&gt;Partial orders have no contours -->
<g id="edge33" class="edge">
<title>Transitive Relation&#45;&gt;Partial orders have no contours</title>
<path fill="none" stroke="#ffffff" d="M2416.34,-133.67C2416.34,-125.05 2416.34,-115.79 2416.34,-108.1"/>
<polygon fill="#ffffff" stroke="#ffffff" points="2412.84,-133.7 2416.34,-143.7 2419.84,-133.7 2412.84,-133.7"/>
</g>
<!-- Partial order -->
<g id="node24" class="node">
<title>Partial order</title>
<g id="a_node24"><a xlink:title="Partial order">
<ellipse fill="#273434" stroke="#b75867" cx="3186.34" cy="-18" rx="52.88" ry="18"/>
<text text-anchor="middle" x="3186.34" y="-14.9" font-family="sans" font-size="12.00" fill="#c4c7c7">Partial order</text>
</a>
</g>
</g>
<!-- Transitive Relation&#45;&gt;Partial order -->
<g id="edge34" class="edge">
<title>Transitive Relation&#45;&gt;Partial order</title>
<path fill="none" stroke="#ffffff" d="M2478.97,-140.35C2500.55,-131.89 2524.3,-121 2544.34,-108 2563.85,-95.34 2561.02,-81.32 2582.34,-72 2692.93,-23.62 3005.3,-56.06 3124.34,-36 3132.26,-34.66 3140.63,-32.74 3148.57,-30.65"/>
<polygon fill="#ffffff" stroke="#ffffff" points="2477.65,-137.11 2469.56,-143.94 2480.15,-143.65 2477.65,-137.11"/>
</g>
<!-- Descartes Product -->
<g id="node9" class="node">
<title>Descartes Product</title>
<g id="a_node9"><a xlink:title="Descartes Product">
<path fill="#273434" stroke="#b75867" d="M2218.84,-36C2218.84,-36 2123.84,-36 2123.84,-36 2117.84,-36 2111.84,-30 2111.84,-24 2111.84,-24 2111.84,-12 2111.84,-12 2111.84,-6 2117.84,0 2123.84,0 2123.84,0 2218.84,0 2218.84,0 2224.84,0 2230.84,-6 2230.84,-12 2230.84,-12 2230.84,-24 2230.84,-24 2230.84,-30 2224.84,-36 2218.84,-36"/>
<text text-anchor="middle" x="2171.34" y="-14.9" font-family="sans" font-size="12.00" fill="#c4c7c7">Descartes Product</text>
</a>
</g>
</g>
<!-- Relation&#45;&gt;Descartes Product -->
<g id="edge14" class="edge">
<title>Relation&#45;&gt;Descartes Product</title>
<path fill="none" stroke="#b75867" d="M2171.34,-71.7C2171.34,-63.98 2171.34,-54.71 2171.34,-46.11"/>
<polygon fill="#b75867" stroke="#b75867" points="2174.84,-46.1 2171.34,-36.1 2167.84,-46.1 2174.84,-46.1"/>
</g>
<!-- Relation&#45;&gt;Relations -->
<g id="edge42" class="edge">
<title>Relation&#45;&gt;Relations</title>
<path fill="none" stroke="#ffffff" d="M2129.22,-78.8C2088.02,-68.63 2023.59,-52.23 1968.34,-36 1961.87,-34.1 1954.98,-31.95 1948.42,-29.83"/>
<polygon fill="#ffffff" stroke="#ffffff" points="2128.63,-82.25 2139.18,-81.24 2130.3,-75.46 2128.63,-82.25"/>
</g>
<!-- Relation&#45;&gt;Reflexive Closure -->
<g id="edge38" class="edge">
<title>Relation&#45;&gt;Reflexive Closure</title>
<path fill="none" stroke="#ffffff" d="M2129.02,-82.23C2069.87,-72.63 1959.2,-54.22 1865.34,-36 1856.25,-34.24 1846.59,-32.25 1837.27,-30.28"/>
<polygon fill="#ffffff" stroke="#ffffff" points="2128.67,-85.71 2139.1,-83.86 2129.78,-78.8 2128.67,-85.71"/>
</g>
<!-- Relation&#45;&gt;Symmetric Closure -->
<g id="edge39" class="edge">
<title>Relation&#45;&gt;Symmetric Closure</title>
<path fill="none" stroke="#ffffff" d="M2129,-85.39C2047.21,-78.15 1861.93,-60.43 1707.34,-36 1697.64,-34.47 1687.35,-32.6 1677.44,-30.66"/>
<polygon fill="#ffffff" stroke="#ffffff" points="2128.87,-88.89 2139.14,-86.28 2129.49,-81.92 2128.87,-88.89"/>
</g>
<!-- Relation&#45;&gt;Linear order -->
<g id="edge43" class="edge">
<title>Relation&#45;&gt;Linear order</title>
<path fill="none" stroke="#ffffff" d="M2213.32,-79.1C2226.68,-76.33 2241.56,-73.63 2255.34,-72 2693.89,-20.03 2811.8,-102.84 3248.34,-36 3256.39,-34.77 3264.89,-32.85 3272.93,-30.75"/>
<polygon fill="#ffffff" stroke="#ffffff" points="2212.49,-75.7 2203.45,-81.22 2213.96,-82.54 2212.49,-75.7"/>
</g>
<!-- Relation&#45;&gt;Partial order -->
<g id="edge45" class="edge">
<title>Relation&#45;&gt;Partial order</title>
<path fill="none" stroke="#ffffff" d="M2213.43,-72.86C2214.74,-72.55 2216.04,-72.26 2217.34,-72 2612.97,6.9 2725.66,-97.74 3124.34,-36 3132.28,-34.77 3140.66,-32.89 3148.6,-30.82"/>
<polygon fill="#ffffff" stroke="#ffffff" points="2212.05,-69.61 2203.38,-75.71 2213.96,-76.35 2212.05,-69.61"/>
</g>
<!-- Anti&#45;symmetric Relation -->
<g id="node25" class="node">
<title>Anti&#45;symmetric Relation</title>
<g id="a_node25"><a xlink:title="Anti&#45;symmetric Relation">
<ellipse fill="#273434" stroke="#b75867" cx="2342.34" cy="-18" rx="93.64" ry="18"/>
<text text-anchor="middle" x="2342.34" y="-14.9" font-family="sans" font-size="12.00" fill="#c4c7c7">Anti&#45;symmetric Relation</text>
</a>
</g>
</g>
<!-- Relation&#45;&gt;Anti&#45;symmetric Relation -->
<g id="edge35" class="edge">
<title>Relation&#45;&gt;Anti&#45;symmetric Relation</title>
<path fill="none" stroke="#ffffff" d="M2212.97,-71.95C2240.85,-60.54 2277.26,-45.64 2304.35,-34.55"/>
<polygon fill="#ffffff" stroke="#ffffff" points="2211.43,-68.81 2203.5,-75.83 2214.08,-75.28 2211.43,-68.81"/>
</g>
<!-- Anti&#45;reflexive relation -->
<g id="node26" class="node">
<title>Anti&#45;reflexive relation</title>
<g id="a_node26"><a xlink:title="Anti&#45;reflexive relation">
<ellipse fill="#273434" stroke="#b75867" cx="2539.34" cy="-18" rx="84.9" ry="18"/>
<text text-anchor="middle" x="2539.34" y="-14.9" font-family="sans" font-size="12.00" fill="#c4c7c7">Anti&#45;reflexive relation</text>
</a>
</g>
</g>
<!-- Relation&#45;&gt;Anti&#45;reflexive relation -->
<g id="edge36" class="edge">
<title>Relation&#45;&gt;Anti&#45;reflexive relation</title>
<path fill="none" stroke="#ffffff" d="M2213.04,-73.18C2214.49,-72.77 2215.92,-72.37 2217.34,-72 2316.6,-46.09 2344.19,-53.13 2445.34,-36 2455.72,-34.24 2466.73,-32.31 2477.43,-30.4"/>
<polygon fill="#ffffff" stroke="#ffffff" points="2211.98,-69.85 2203.5,-76.2 2214.09,-76.53 2211.98,-69.85"/>
</g>
<!-- Strongly Anti&#45;symmetric Relation -->
<g id="node27" class="node">
<title>Strongly Anti&#45;symmetric Relation</title>
<g id="a_node27"><a xlink:title="Strongly Anti&#45;symmetric Relation">
<ellipse fill="#273434" stroke="#b75867" cx="2767.34" cy="-18" rx="124.93" ry="18"/>
<text text-anchor="middle" x="2767.34" y="-14.9" font-family="sans" font-size="12.00" fill="#c4c7c7">Strongly Anti&#45;symmetric Relation</text>
</a>
</g>
</g>
<!-- Relation&#45;&gt;Strongly Anti&#45;symmetric Relation -->
<g id="edge37" class="edge">
<title>Relation&#45;&gt;Strongly Anti&#45;symmetric Relation</title>
<path fill="none" stroke="#ffffff" d="M2213.01,-73.05C2214.46,-72.67 2215.91,-72.32 2217.34,-72 2398.44,-31.47 2448.8,-55.68 2633.34,-36 2648.03,-34.43 2663.6,-32.61 2678.74,-30.75"/>
<polygon fill="#ffffff" stroke="#ffffff" points="2212.01,-69.7 2203.43,-75.91 2214.01,-76.41 2212.01,-69.7"/>
</g>
<!-- Chain -->
<g id="node28" class="node">
<title>Chain</title>
<g id="a_node28"><a xlink:title="Chain">
<ellipse fill="#273434" stroke="#b75867" cx="2940.34" cy="-18" rx="30.33" ry="18"/>
<text text-anchor="middle" x="2940.34" y="-14.9" font-family="sans" font-size="12.00" fill="#c4c7c7">Chain</text>
</a>
</g>
</g>
<!-- Relation&#45;&gt;Chain -->
<g id="edge40" class="edge">
<title>Relation&#45;&gt;Chain</title>
<path fill="none" stroke="#ffffff" d="M2213.44,-72.88C2214.74,-72.56 2216.05,-72.27 2217.34,-72 2515.49,-10.54 2605.06,-105.94 2901.34,-36 2906.94,-34.68 2912.75,-32.58 2918.12,-30.31"/>
<polygon fill="#ffffff" stroke="#ffffff" points="2212.04,-69.64 2203.4,-75.77 2213.97,-76.37 2212.04,-69.64"/>
</g>
<!-- Partial function -->
<g id="node29" class="node">
<title>Partial function</title>
<g id="a_node29"><a xlink:title="Partial function">
<ellipse fill="#273434" stroke="#b75867" cx="3052.34" cy="-18" rx="63.31" ry="18"/>
<text text-anchor="middle" x="3052.34" y="-14.9" font-family="sans" font-size="12.00" fill="#c4c7c7">Partial function</text>
</a>
</g>
</g>
<!-- Relation&#45;&gt;Partial function -->
<g id="edge41" class="edge">
<title>Relation&#45;&gt;Partial function</title>
<path fill="none" stroke="#ffffff" d="M2213.43,-72.87C2214.74,-72.56 2216.04,-72.26 2217.34,-72 2549.58,-4.44 2643.51,-82.64 2979.34,-36 2988.49,-34.73 2998.18,-32.86 3007.4,-30.81"/>
<polygon fill="#ffffff" stroke="#ffffff" points="2212.05,-69.63 2203.39,-75.74 2213.97,-76.36 2212.05,-69.63"/>
</g>
<!-- Total function -->
<g id="node30" class="node">
<title>Total function</title>
<g id="a_node30"><a xlink:title="Total function">
<ellipse fill="#273434" stroke="#b75867" cx="2035.34" cy="-18" rx="58.46" ry="18"/>
<text text-anchor="middle" x="2035.34" y="-14.9" font-family="sans" font-size="12.00" fill="#c4c7c7">Total function</text>
</a>
</g>
</g>
<!-- Relation&#45;&gt;Total function -->
<g id="edge44" class="edge">
<title>Relation&#45;&gt;Total function</title>
<path fill="none" stroke="#ffffff" d="M2129.96,-67.7C2108.66,-56.74 2083.23,-43.65 2064.1,-33.8"/>
<polygon fill="#ffffff" stroke="#ffffff" points="2128.61,-70.95 2139.11,-72.41 2131.82,-64.72 2128.61,-70.95"/>
</g>
<!-- Symmetric Relation&#45;&gt;Relation -->
<g id="edge12" class="edge">
<title>Symmetric Relation&#45;&gt;Relation</title>
<path fill="none" stroke="#b75867" d="M1913.34,-147.09C1977.43,-133.15 2074.23,-112.11 2129.23,-100.15"/>
<polygon fill="#b75867" stroke="#b75867" points="2130.29,-103.5 2139.32,-97.96 2128.8,-96.66 2130.29,-103.5"/>
</g>
<!-- Symmetric Relation&#45;&gt;Relations -->
<g id="edge47" class="edge">
<title>Symmetric Relation&#45;&gt;Relations</title>
<path fill="none" stroke="#ffffff" d="M1861.72,-134.76C1875.36,-105.84 1896.9,-60.18 1908.43,-35.75"/>
<polygon fill="#ffffff" stroke="#ffffff" points="1858.52,-133.33 1857.42,-143.87 1864.85,-136.32 1858.52,-133.33"/>
</g>
<!-- Symmetric Relation&#45;&gt;Symmetric Closure -->
<g id="edge46" class="edge">
<title>Symmetric Relation&#45;&gt;Symmetric Closure</title>
<path fill="none" stroke="#ffffff" d="M1813.35,-138.39C1767.45,-109.55 1689.22,-60.4 1648.95,-35.1"/>
<polygon fill="#ffffff" stroke="#ffffff" points="1811.75,-141.51 1822.07,-143.87 1815.47,-135.59 1811.75,-141.51"/>
</g>
<!-- Reflexive Relation&#45;&gt;Relation -->
<g id="edge13" class="edge">
<title>Reflexive Relation&#45;&gt;Relation</title>
<path fill="none" stroke="#b75867" d="M2171.34,-143.7C2171.34,-135.98 2171.34,-126.71 2171.34,-118.11"/>
<polygon fill="#b75867" stroke="#b75867" points="2174.84,-118.1 2171.34,-108.1 2167.84,-118.1 2174.84,-118.1"/>
</g>
<!-- Reflexive Relation&#45;&gt;Relations -->
<g id="edge49" class="edge">
<title>Reflexive Relation&#45;&gt;Relations</title>
<path fill="none" stroke="#ffffff" d="M2103.02,-143.21C2075.96,-134.65 2045.2,-122.95 2019.34,-108 1984.35,-87.78 1950.14,-54.86 1931.29,-35.23"/>
<polygon fill="#ffffff" stroke="#ffffff" points="2102.22,-146.63 2112.8,-146.23 2104.28,-139.94 2102.22,-146.63"/>
</g>
<!-- Reflexive Relation&#45;&gt;Reflexive Closure -->
<g id="edge48" class="edge">
<title>Reflexive Relation&#45;&gt;Reflexive Closure</title>
<path fill="none" stroke="#ffffff" d="M2102.48,-146.93C2062.17,-137.78 2010.64,-124.48 1966.34,-108 1910.14,-87.1 1848.2,-54.11 1813.6,-34.71"/>
<polygon fill="#ffffff" stroke="#ffffff" points="2101.95,-150.4 2112.47,-149.17 2103.48,-143.57 2101.95,-150.4"/>
</g>
<!-- Reflexive Relation&#45;&gt;Linear order -->
<g id="edge50" class="edge">
<title>Reflexive Relation&#45;&gt;Linear order</title>
<path fill="none" stroke="#ffffff" d="M2207.32,-138.17C2220.82,-129.19 2236.08,-118.52 2249.34,-108 2267.81,-93.33 2266.53,-81 2288.34,-72 2387,-31.27 3142.83,-52.22 3248.34,-36 3256.39,-34.76 3264.89,-32.85 3272.93,-30.74"/>
<polygon fill="#ffffff" stroke="#ffffff" points="2205.18,-135.38 2198.75,-143.8 2209.03,-141.23 2205.18,-135.38"/>
</g>
<!-- Reflexive Relation&#45;&gt;Partial orders have no contours -->
<g id="edge51" class="edge">
<title>Reflexive Relation&#45;&gt;Partial orders have no contours</title>
<path fill="none" stroke="#ffffff" d="M2239.73,-141.46C2278.76,-130.31 2326.96,-116.53 2363.14,-106.2"/>
<polygon fill="#ffffff" stroke="#ffffff" points="2238.67,-138.12 2230.02,-144.23 2240.6,-144.85 2238.67,-138.12"/>
</g>
<!-- Reflexive Relation&#45;&gt;Partial order -->
<g id="edge52" class="edge">
<title>Reflexive Relation&#45;&gt;Partial order</title>
<path fill="none" stroke="#ffffff" d="M2191.34,-135.87C2210.88,-112.1 2239.86,-79.06 2255.34,-72 2343.26,-31.9 3028.85,-50.87 3124.34,-36 3132.28,-34.76 3140.65,-32.88 3148.6,-30.81"/>
<polygon fill="#ffffff" stroke="#ffffff" points="2188.46,-133.86 2184.87,-143.83 2193.89,-138.28 2188.46,-133.86"/>
</g>
</g>
</svg>
