<?xml version="1.0" encoding="UTF-8" standalone="no"?>
<!DOCTYPE svg PUBLIC "-//W3C//DTD SVG 1.1//EN"
 "http://www.w3.org/Graphics/SVG/1.1/DTD/svg11.dtd">
<!-- Generated by graphviz version 2.44.0 (0)
 -->
<!-- Title: Rolle Theorem Pages: 1 -->
<svg width="236pt" height="116pt"
 viewBox="0.00 0.00 235.77 116.00" xmlns="http://www.w3.org/2000/svg" xmlns:xlink="http://www.w3.org/1999/xlink">
<g id="page0,1_graph0" class="graph" transform="scale(1 1) rotate(0) translate(4 112)">
<title>Rolle Theorem</title>
<polygon fill="#132020" stroke="transparent" points="-4,4 -4,-112 231.77,-112 231.77,4 -4,4"/>
<!-- Rolle Theorem -->
<g id="node1" class="node">
<title>Rolle Theorem</title>
<g id="a_node1"><a xlink:title="Rolle Theorem">
<path fill="#273434" stroke="#b75867" d="M152.38,-108C152.38,-108 75.38,-108 75.38,-108 69.38,-108 63.38,-102 63.38,-96 63.38,-96 63.38,-84 63.38,-84 63.38,-78 69.38,-72 75.38,-72 75.38,-72 152.38,-72 152.38,-72 158.38,-72 164.38,-78 164.38,-84 164.38,-84 164.38,-96 164.38,-96 164.38,-102 158.38,-108 152.38,-108"/>
<text text-anchor="middle" x="113.88" y="-86.9" font-family="sans" font-size="12.00" fill="#c4c7c7">Rolle Theorem</text>
</a>
</g>
</g>
<!-- Evaluating Interpolation Error -->
<g id="node2" class="node">
<title>Evaluating Interpolation Error</title>
<g id="a_node2"><a xlink:title="Evaluating Interpolation Error">
<ellipse fill="#273434" stroke="#b75867" cx="113.88" cy="-18" rx="113.77" ry="18"/>
<text text-anchor="middle" x="113.88" y="-14.9" font-family="sans" font-size="12.00" fill="#c4c7c7">Evaluating Interpolation Error</text>
</a>
</g>
</g>
<!-- Rolle Theorem&#45;&gt;Evaluating Interpolation Error -->
<g id="edge1" class="edge">
<title>Rolle Theorem&#45;&gt;Evaluating Interpolation Error</title>
<path fill="none" stroke="#ffffff" d="M113.88,-61.67C113.88,-53.05 113.88,-43.79 113.88,-36.1"/>
<polygon fill="#ffffff" stroke="#ffffff" points="110.38,-61.7 113.88,-71.7 117.38,-61.7 110.38,-61.7"/>
</g>
</g>
</svg>
