<?xml version="1.0" encoding="UTF-8" standalone="no"?>
<!DOCTYPE svg PUBLIC "-//W3C//DTD SVG 1.1//EN"
 "http://www.w3.org/Graphics/SVG/1.1/DTD/svg11.dtd">
<!-- Generated by graphviz version 2.44.0 (0)
 -->
<!-- Title: Set Pages: 1 -->
<svg width="797pt" height="605pt"
 viewBox="0.00 0.00 797.00 605.00" xmlns="http://www.w3.org/2000/svg" xmlns:xlink="http://www.w3.org/1999/xlink">
<g id="page0,1_graph0" class="graph" transform="scale(1 1) rotate(0) translate(4 601)">
<title>Set</title>
<polygon fill="#132020" stroke="transparent" points="-4,4 -4,-601 793,-601 793,4 -4,4"/>
<!-- Set -->
<g id="node1" class="node">
<title>Set</title>
<g id="a_node1"><a xlink:href="../Set.html" xlink:title="Set" target="_parent">
<path fill="#273434" stroke="#b75867" d="M42,-336C42,-336 12,-336 12,-336 6,-336 0,-330 0,-324 0,-324 0,-312 0,-312 0,-306 6,-300 12,-300 12,-300 42,-300 42,-300 48,-300 54,-306 54,-312 54,-312 54,-324 54,-324 54,-330 48,-336 42,-336"/>
<text text-anchor="middle" x="27" y="-314.9" font-family="sans" font-size="12.00" fill="#c4c7c7">Set</text>
</a>
</g>
</g>
<!-- Reflexive Closure -->
<g id="node2" class="node">
<title>Reflexive Closure</title>
<g id="a_node2"><a xlink:href="../Reflexive Closure.html" xlink:title="Reflexive Closure" target="_parent">
<path fill="none" stroke="#b75867" d="M434,-523C434,-523 345,-523 345,-523 339,-523 333,-517 333,-511 333,-511 333,-499 333,-499 333,-493 339,-487 345,-487 345,-487 434,-487 434,-487 440,-487 446,-493 446,-499 446,-499 446,-511 446,-511 446,-517 440,-523 434,-523"/>
<text text-anchor="middle" x="389.5" y="-501.9" font-family="sans" font-size="12.00" fill="#c4c7c7">Reflexive Closure</text>
</a>
</g>
</g>
<!-- Set&#45;&gt;Reflexive Closure -->
<g id="edge1" class="edge">
<title>Set&#45;&gt;Reflexive Closure</title>
<path fill="none" stroke="#ffffff" d="M28.28,-346.45C30.15,-373.38 37.3,-413.03 62,-436 136.02,-504.86 260.83,-511.9 332.8,-509.41"/>
<polygon fill="#ffffff" stroke="#ffffff" points="31.76,-345.93 27.78,-336.11 24.77,-346.27 31.76,-345.93"/>
</g>
<!-- Symmetric Closure -->
<g id="node3" class="node">
<title>Symmetric Closure</title>
<g id="a_node3"><a xlink:href="../Symmetric Closure.html" xlink:title="Symmetric Closure" target="_parent">
<path fill="none" stroke="#b75867" d="M439,-486C439,-486 340,-486 340,-486 334,-486 328,-480 328,-474 328,-474 328,-462 328,-462 328,-456 334,-450 340,-450 340,-450 439,-450 439,-450 445,-450 451,-456 451,-462 451,-462 451,-474 451,-474 451,-480 445,-486 439,-486"/>
<text text-anchor="middle" x="389.5" y="-464.9" font-family="sans" font-size="12.00" fill="#c4c7c7">Symmetric Closure</text>
</a>
</g>
</g>
<!-- Set&#45;&gt;Symmetric Closure -->
<g id="edge2" class="edge">
<title>Set&#45;&gt;Symmetric Closure</title>
<path fill="none" stroke="#ffffff" d="M30.82,-346.08C34.46,-367.13 42.82,-394.96 62,-411 101.39,-443.95 244.59,-458.66 327.68,-464.55"/>
<polygon fill="#ffffff" stroke="#ffffff" points="34.26,-345.47 29.34,-336.09 27.34,-346.49 34.26,-345.47"/>
</g>
<!-- Class of equivalence -->
<g id="node4" class="node">
<title>Class of equivalence</title>
<g id="a_node4"><a xlink:href="../Class of equivalence.html" xlink:title="Class of equivalence" target="_parent">
<path fill="none" stroke="#b75867" d="M223,-395C223,-395 116,-395 116,-395 110,-395 104,-389 104,-383 104,-383 104,-371 104,-371 104,-365 110,-359 116,-359 116,-359 223,-359 223,-359 229,-359 235,-365 235,-371 235,-371 235,-383 235,-383 235,-389 229,-395 223,-395"/>
<text text-anchor="middle" x="169.5" y="-373.9" font-family="sans" font-size="12.00" fill="#c4c7c7">Class of equivalence</text>
</a>
</g>
</g>
<!-- Set&#45;&gt;Class of equivalence -->
<g id="edge3" class="edge">
<title>Set&#45;&gt;Class of equivalence</title>
<path fill="none" stroke="#ffffff" d="M47.5,-343.6C51.85,-347.95 56.75,-352.02 62,-355 74.73,-362.22 89.51,-367.08 103.94,-370.35"/>
<polygon fill="#ffffff" stroke="#ffffff" points="50.05,-341.19 40.73,-336.14 44.86,-345.9 50.05,-341.19"/>
</g>
<!-- Relation of Equivalence -->
<g id="node5" class="node">
<title>Relation of Equivalence</title>
<g id="a_node5"><a xlink:href="../Relation of Equivalence.html" xlink:title="Relation of Equivalence" target="_parent">
<path fill="none" stroke="#b75867" d="M452,-414C452,-414 327,-414 327,-414 321,-414 315,-408 315,-402 315,-402 315,-390 315,-390 315,-384 321,-378 327,-378 327,-378 452,-378 452,-378 458,-378 464,-384 464,-390 464,-390 464,-402 464,-402 464,-408 458,-414 452,-414"/>
<text text-anchor="middle" x="389.5" y="-392.9" font-family="sans" font-size="12.00" fill="#c4c7c7">Relation of Equivalence</text>
</a>
</g>
</g>
<!-- Set&#45;&gt;Relation of Equivalence -->
<g id="edge4" class="edge">
<title>Set&#45;&gt;Relation of Equivalence</title>
<path fill="none" stroke="#ffffff" d="M33.27,-346.39C37.9,-362.7 46.44,-381.89 62,-392 140.67,-443.11 254.08,-429.81 324.43,-414.02"/>
<polygon fill="#ffffff" stroke="#ffffff" points="36.55,-345.08 30.76,-336.21 29.75,-346.76 36.55,-345.08"/>
</g>
<!-- Recurrent Equations -->
<g id="node6" class="node">
<title>Recurrent Equations</title>
<g id="a_node6"><a xlink:href="../Recurrent Equations.html" xlink:title="Recurrent Equations" target="_parent">
<path fill="none" stroke="#b75867" d="M223,-170C223,-170 116,-170 116,-170 110,-170 104,-164 104,-158 104,-158 104,-146 104,-146 104,-140 110,-134 116,-134 116,-134 223,-134 223,-134 229,-134 235,-140 235,-146 235,-146 235,-158 235,-158 235,-164 229,-170 223,-170"/>
<text text-anchor="middle" x="169.5" y="-148.9" font-family="sans" font-size="12.00" fill="#c4c7c7">Recurrent Equations</text>
</a>
</g>
</g>
<!-- Set&#45;&gt;Recurrent Equations -->
<g id="edge5" class="edge">
<title>Set&#45;&gt;Recurrent Equations</title>
<path fill="none" stroke="#ffffff" d="M31.09,-289.58C35.74,-252.31 45.74,-189.81 62,-174 73.3,-163.01 88.56,-156.85 104,-153.54"/>
<polygon fill="#ffffff" stroke="#ffffff" points="27.58,-289.46 29.87,-299.81 34.53,-290.29 27.58,-289.46"/>
</g>
<!-- Principle of division -->
<g id="node7" class="node">
<title>Principle of division</title>
<g id="a_node7"><a xlink:href="../Principle of division.html" xlink:title="Principle of division" target="_parent">
<path fill="none" stroke="#b75867" d="M617,-375C617,-375 515,-375 515,-375 509,-375 503,-369 503,-363 503,-363 503,-351 503,-351 503,-345 509,-339 515,-339 515,-339 617,-339 617,-339 623,-339 629,-345 629,-351 629,-351 629,-363 629,-363 629,-369 623,-375 617,-375"/>
<text text-anchor="middle" x="566" y="-353.9" font-family="sans" font-size="12.00" fill="#c4c7c7">Principle of division</text>
</a>
</g>
</g>
<!-- Set&#45;&gt;Principle of division -->
<g id="edge6" class="edge">
<title>Set&#45;&gt;Principle of division</title>
<path fill="none" stroke="#ffffff" d="M48.5,-343.3C52.58,-346.83 57.12,-349.95 62,-352 81.95,-360.38 372.66,-358.78 502.8,-357.63"/>
<polygon fill="#ffffff" stroke="#ffffff" points="50.84,-340.7 41.26,-336.17 45.93,-345.68 50.84,-340.7"/>
</g>
<!-- Principle of products -->
<g id="node8" class="node">
<title>Principle of products</title>
<g id="a_node8"><a xlink:href="../Principle of products.html" xlink:title="Principle of products" target="_parent">
<path fill="none" stroke="#b75867" d="M224.5,-281C224.5,-281 114.5,-281 114.5,-281 108.5,-281 102.5,-275 102.5,-269 102.5,-269 102.5,-257 102.5,-257 102.5,-251 108.5,-245 114.5,-245 114.5,-245 224.5,-245 224.5,-245 230.5,-245 236.5,-251 236.5,-257 236.5,-257 236.5,-269 236.5,-269 236.5,-275 230.5,-281 224.5,-281"/>
<text text-anchor="middle" x="169.5" y="-259.9" font-family="sans" font-size="12.00" fill="#c4c7c7">Principle of products</text>
</a>
</g>
</g>
<!-- Set&#45;&gt;Principle of products -->
<g id="edge7" class="edge">
<title>Set&#45;&gt;Principle of products</title>
<path fill="none" stroke="#ffffff" d="M50.47,-292.91C54.08,-289.9 57.97,-287.14 62,-285 74.35,-278.46 88.45,-273.86 102.27,-270.63"/>
<polygon fill="#ffffff" stroke="#ffffff" points="48.02,-290.41 43.06,-299.77 52.78,-295.55 48.02,-290.41"/>
</g>
<!-- Dirichlet principle -->
<g id="node9" class="node">
<title>Dirichlet principle</title>
<g id="a_node9"><a xlink:href="../Dirichlet principle.html" xlink:title="Dirichlet principle" target="_parent">
<path fill="none" stroke="#b75867" d="M215.5,-244C215.5,-244 123.5,-244 123.5,-244 117.5,-244 111.5,-238 111.5,-232 111.5,-232 111.5,-220 111.5,-220 111.5,-214 117.5,-208 123.5,-208 123.5,-208 215.5,-208 215.5,-208 221.5,-208 227.5,-214 227.5,-220 227.5,-220 227.5,-232 227.5,-232 227.5,-238 221.5,-244 215.5,-244"/>
<text text-anchor="middle" x="169.5" y="-222.9" font-family="sans" font-size="12.00" fill="#c4c7c7">Dirichlet principle</text>
</a>
</g>
</g>
<!-- Set&#45;&gt;Dirichlet principle -->
<g id="edge8" class="edge">
<title>Set&#45;&gt;Dirichlet principle</title>
<path fill="none" stroke="#ffffff" d="M35.01,-290.24C40.13,-275.56 48.57,-258.45 62,-248 76.01,-237.1 94.09,-231.24 111.36,-228.19"/>
<polygon fill="#ffffff" stroke="#ffffff" points="31.63,-289.33 31.98,-299.91 38.31,-291.42 31.63,-289.33"/>
</g>
<!-- Principle of inclusion and exclusion -->
<g id="node10" class="node">
<title>Principle of inclusion and exclusion</title>
<g id="a_node10"><a xlink:href="../Principle of inclusion and exclusion.html" xlink:title="Principle of inclusion and exclusion" target="_parent">
<path fill="none" stroke="#b75867" d="M265,-207C265,-207 74,-207 74,-207 68,-207 62,-201 62,-195 62,-195 62,-183 62,-183 62,-177 68,-171 74,-171 74,-171 265,-171 265,-171 271,-171 277,-177 277,-183 277,-183 277,-195 277,-195 277,-201 271,-207 265,-207"/>
<text text-anchor="middle" x="169.5" y="-185.9" font-family="sans" font-size="12.00" fill="#c4c7c7">Principle of inclusion and exclusion</text>
</a>
</g>
</g>
<!-- Set&#45;&gt;Principle of inclusion and exclusion -->
<g id="edge9" class="edge">
<title>Set&#45;&gt;Principle of inclusion and exclusion</title>
<path fill="none" stroke="#ffffff" d="M29.31,-289.82C32,-265.42 39.8,-231 62,-211 63.54,-209.61 65.15,-208.3 66.81,-207.06"/>
<polygon fill="#ffffff" stroke="#ffffff" points="25.81,-289.64 28.42,-299.91 32.78,-290.26 25.81,-289.64"/>
</g>
<!-- Differential Analysis -->
<g id="node11" class="node">
<title>Differential Analysis</title>
<g id="a_node11"><a xlink:href="../Differential Analysis.html" xlink:title="Differential Analysis" target="_parent">
<path fill="none" stroke="#b75867" d="M221,-73C221,-73 118,-73 118,-73 112,-73 106,-67 106,-61 106,-61 106,-49 106,-49 106,-43 112,-37 118,-37 118,-37 221,-37 221,-37 227,-37 233,-43 233,-49 233,-49 233,-61 233,-61 233,-67 227,-73 221,-73"/>
<text text-anchor="middle" x="169.5" y="-51.9" font-family="sans" font-size="12.00" fill="#c4c7c7">Differential Analysis</text>
</a>
</g>
</g>
<!-- Set&#45;&gt;Differential Analysis -->
<g id="edge10" class="edge">
<title>Set&#45;&gt;Differential Analysis</title>
<path fill="none" stroke="#ffffff" d="M27.02,-289.61C27.01,-251.38 31.72,-182.54 62,-134 78.63,-107.34 107.8,-86.65 131.42,-73.14"/>
<polygon fill="#ffffff" stroke="#ffffff" points="23.53,-290.03 27.14,-299.99 30.53,-289.95 23.53,-290.03"/>
</g>
<!-- Principle of partitions -->
<g id="node12" class="node">
<title>Principle of partitions</title>
<g id="a_node12"><a xlink:href="../Principle of partitions.html" xlink:title="Principle of partitions" target="_parent">
<path fill="none" stroke="#b75867" d="M226,-355C226,-355 113,-355 113,-355 107,-355 101,-349 101,-343 101,-343 101,-331 101,-331 101,-325 107,-319 113,-319 113,-319 226,-319 226,-319 232,-319 238,-325 238,-331 238,-331 238,-343 238,-343 238,-349 232,-355 226,-355"/>
<text text-anchor="middle" x="169.5" y="-333.9" font-family="sans" font-size="12.00" fill="#c4c7c7">Principle of partitions</text>
</a>
</g>
</g>
<!-- Set&#45;&gt;Principle of partitions -->
<g id="edge11" class="edge">
<title>Set&#45;&gt;Principle of partitions</title>
<path fill="none" stroke="#ffffff" d="M64.29,-322.91C75.47,-324.42 88.15,-326.13 100.72,-327.83"/>
<polygon fill="#ffffff" stroke="#ffffff" points="64.48,-319.4 54.1,-321.53 63.54,-326.34 64.48,-319.4"/>
</g>
<!-- Principle of the bijection -->
<g id="node13" class="node">
<title>Principle of the bijection</title>
<g id="a_node13"><a xlink:href="../Principle of the bijection.html" xlink:title="Principle of the bijection" target="_parent">
<path fill="none" stroke="#b75867" d="M234.5,-318C234.5,-318 104.5,-318 104.5,-318 98.5,-318 92.5,-312 92.5,-306 92.5,-306 92.5,-294 92.5,-294 92.5,-288 98.5,-282 104.5,-282 104.5,-282 234.5,-282 234.5,-282 240.5,-282 246.5,-288 246.5,-294 246.5,-294 246.5,-306 246.5,-306 246.5,-312 240.5,-318 234.5,-318"/>
<text text-anchor="middle" x="169.5" y="-296.9" font-family="sans" font-size="12.00" fill="#c4c7c7">Principle of the bijection</text>
</a>
</g>
</g>
<!-- Set&#45;&gt;Principle of the bijection -->
<g id="edge12" class="edge">
<title>Set&#45;&gt;Principle of the bijection</title>
<path fill="none" stroke="#ffffff" d="M64.22,-313.36C72.94,-312.24 82.58,-311.01 92.38,-309.75"/>
<polygon fill="#ffffff" stroke="#ffffff" points="63.57,-309.91 54.1,-314.66 64.46,-316.86 63.57,-309.91"/>
</g>
<!-- Reflexive Closure&#45;&gt;Set -->
<g id="edge15" class="edge">
<title>Reflexive Closure&#45;&gt;Set</title>
<path fill="none" stroke="#b75867" d="M332.8,-510.09C260.83,-512.9 136.02,-505.86 62,-437 37.06,-413.8 30.01,-373.59 28.23,-346.4"/>
<polygon fill="#b75867" stroke="#b75867" points="31.72,-346.16 27.77,-336.33 24.73,-346.48 31.72,-346.16"/>
</g>
<!-- Matrix -->
<g id="node14" class="node">
<title>Matrix</title>
<g id="a_node14"><a xlink:href="../Matrix.html" xlink:title="Matrix" target="_parent">
<path fill="#273434" stroke="#b75867" d="M581,-597C581,-597 551,-597 551,-597 545,-597 539,-591 539,-585 539,-585 539,-573 539,-573 539,-567 545,-561 551,-561 551,-561 581,-561 581,-561 587,-561 593,-567 593,-573 593,-573 593,-585 593,-585 593,-591 587,-597 581,-597"/>
<text text-anchor="middle" x="566" y="-575.9" font-family="sans" font-size="12.00" fill="#c4c7c7">Matrix</text>
</a>
</g>
</g>
<!-- Reflexive Closure&#45;&gt;Matrix -->
<g id="edge13" class="edge">
<title>Reflexive Closure&#45;&gt;Matrix</title>
<path fill="none" stroke="#b75867" d="M426.75,-523.03C448.36,-533.5 476.48,-546.62 502,-557 510.66,-560.52 520.11,-564 529,-567.13"/>
<polygon fill="#b75867" stroke="#b75867" points="528.13,-570.53 538.73,-570.48 530.41,-563.91 528.13,-570.53"/>
</g>
<!-- Relation -->
<g id="node15" class="node">
<title>Relation</title>
<g id="a_node15"><a xlink:href="../Relation.html" xlink:title="Relation" target="_parent">
<path fill="#273434" stroke="#b75867" d="M586,-486C586,-486 546,-486 546,-486 540,-486 534,-480 534,-474 534,-474 534,-462 534,-462 534,-456 540,-450 546,-450 546,-450 586,-450 586,-450 592,-450 598,-456 598,-462 598,-462 598,-474 598,-474 598,-480 592,-486 586,-486"/>
<text text-anchor="middle" x="566" y="-464.9" font-family="sans" font-size="12.00" fill="#c4c7c7">Relation</text>
</a>
</g>
</g>
<!-- Reflexive Closure&#45;&gt;Relation -->
<g id="edge14" class="edge">
<title>Reflexive Closure&#45;&gt;Relation</title>
<path fill="none" stroke="#b75867" d="M446.19,-493.19C471.48,-487.83 500.85,-481.6 524.06,-476.68"/>
<polygon fill="#b75867" stroke="#b75867" points="524.87,-480.09 533.93,-474.59 523.42,-473.24 524.87,-480.09"/>
</g>
<!-- Reflexive Relation -->
<g id="node16" class="node">
<title>Reflexive Relation</title>
<g id="a_node16"><a xlink:href="../Reflexive Relation.html" xlink:title="Reflexive Relation" target="_parent">
<path fill="#273434" stroke="#b75867" d="M612.5,-523C612.5,-523 519.5,-523 519.5,-523 513.5,-523 507.5,-517 507.5,-511 507.5,-511 507.5,-499 507.5,-499 507.5,-493 513.5,-487 519.5,-487 519.5,-487 612.5,-487 612.5,-487 618.5,-487 624.5,-493 624.5,-499 624.5,-499 624.5,-511 624.5,-511 624.5,-517 618.5,-523 612.5,-523"/>
<text text-anchor="middle" x="566" y="-501.9" font-family="sans" font-size="12.00" fill="#c4c7c7">Reflexive Relation</text>
</a>
</g>
</g>
<!-- Reflexive Closure&#45;&gt;Reflexive Relation -->
<g id="edge16" class="edge">
<title>Reflexive Closure&#45;&gt;Reflexive Relation</title>
<path fill="none" stroke="#b75867" d="M446.19,-505C462.38,-505 480.25,-505 497.1,-505"/>
<polygon fill="#b75867" stroke="#b75867" points="497.44,-508.5 507.44,-505 497.44,-501.5 497.44,-508.5"/>
</g>
<!-- Relations -->
<g id="node17" class="node">
<title>Relations</title>
<g id="a_node17"><a xlink:href="../Relations.html" xlink:title="Relations" target="_parent">
<path fill="none" stroke="#b75867" d="M588.5,-560C588.5,-560 543.5,-560 543.5,-560 537.5,-560 531.5,-554 531.5,-548 531.5,-548 531.5,-536 531.5,-536 531.5,-530 537.5,-524 543.5,-524 543.5,-524 588.5,-524 588.5,-524 594.5,-524 600.5,-530 600.5,-536 600.5,-536 600.5,-548 600.5,-548 600.5,-554 594.5,-560 588.5,-560"/>
<text text-anchor="middle" x="566" y="-538.9" font-family="sans" font-size="12.00" fill="#c4c7c7">Relations</text>
</a>
</g>
</g>
<!-- Reflexive Closure&#45;&gt;Relations -->
<g id="edge17" class="edge">
<title>Reflexive Closure&#45;&gt;Relations</title>
<path fill="none" stroke="#ffffff" d="M456.23,-518.94C481.84,-524.37 510.1,-530.36 531.39,-534.87"/>
<polygon fill="#ffffff" stroke="#ffffff" points="456.7,-515.46 446.19,-516.81 455.25,-522.31 456.7,-515.46"/>
</g>
<!-- Reflexive Closure&#45;&gt;Relations -->
<g id="edge18" class="edge">
<title>Reflexive Closure&#45;&gt;Relations</title>
<path fill="none" stroke="#ffffff" d="M456.23,-519.67C481.84,-525.15 510.1,-531.1 531.39,-535.48"/>
<polygon fill="#ffffff" stroke="#ffffff" points="456.7,-516.19 446.19,-517.51 455.24,-523.03 456.7,-516.19"/>
</g>
<!-- Symmetric Closure&#45;&gt;Set -->
<g id="edge21" class="edge">
<title>Symmetric Closure&#45;&gt;Set</title>
<path fill="none" stroke="#b75867" d="M327.68,-465.21C244.59,-459.66 101.39,-444.95 62,-412 42.6,-395.77 34.27,-367.47 30.69,-346.15"/>
<polygon fill="#b75867" stroke="#b75867" points="34.12,-345.45 29.25,-336.04 27.19,-346.43 34.12,-345.45"/>
</g>
<!-- Symmetric Closure&#45;&gt;Matrix -->
<g id="edge19" class="edge">
<title>Symmetric Closure&#45;&gt;Matrix</title>
<path fill="none" stroke="#b75867" d="M451.09,-468.46C467.11,-471.59 482.97,-477.93 494,-490 514.22,-512.14 483.22,-533.62 502,-557 508.76,-565.42 518.95,-570.62 529.18,-573.84"/>
<polygon fill="#b75867" stroke="#b75867" points="528.32,-577.23 538.88,-576.35 530.08,-570.46 528.32,-577.23"/>
</g>
<!-- Symmetric Closure&#45;&gt;Relation -->
<g id="edge20" class="edge">
<title>Symmetric Closure&#45;&gt;Relation</title>
<path fill="none" stroke="#b75867" d="M451.04,-468C475.07,-468 502.08,-468 523.78,-468"/>
<polygon fill="#b75867" stroke="#b75867" points="523.96,-471.5 533.96,-468 523.96,-464.5 523.96,-471.5"/>
</g>
<!-- Symmetric Closure&#45;&gt;Relations -->
<g id="edge23" class="edge">
<title>Symmetric Closure&#45;&gt;Relations</title>
<path fill="none" stroke="#ffffff" d="M460.97,-472.15C473.18,-475.7 484.86,-481.31 494,-490 504,-499.5 492.62,-509.88 502,-520 509.72,-528.32 520.76,-533.5 531.45,-536.72"/>
<polygon fill="#ffffff" stroke="#ffffff" points="461.66,-468.71 451.12,-469.71 459.99,-475.51 461.66,-468.71"/>
</g>
<!-- Symmetric Closure&#45;&gt;Relations -->
<g id="edge24" class="edge">
<title>Symmetric Closure&#45;&gt;Relations</title>
<path fill="none" stroke="#ffffff" d="M460.97,-473.13C473.18,-476.7 484.86,-482.31 494,-491 504,-500.5 492.62,-510.88 502,-521 509.72,-529.32 520.76,-534.5 531.45,-537.66"/>
<polygon fill="#ffffff" stroke="#ffffff" points="461.66,-469.69 451.12,-470.67 459.97,-476.48 461.66,-469.69"/>
</g>
<!-- Symmetric Relation -->
<g id="node18" class="node">
<title>Symmetric Relation</title>
<g id="a_node18"><a xlink:href="../Symmetric Relation.html" xlink:title="Symmetric Relation" target="_parent">
<path fill="#273434" stroke="#b75867" d="M618,-449C618,-449 514,-449 514,-449 508,-449 502,-443 502,-437 502,-437 502,-425 502,-425 502,-419 508,-413 514,-413 514,-413 618,-413 618,-413 624,-413 630,-419 630,-425 630,-425 630,-437 630,-437 630,-443 624,-449 618,-449"/>
<text text-anchor="middle" x="566" y="-427.9" font-family="sans" font-size="12.00" fill="#c4c7c7">Symmetric Relation</text>
</a>
</g>
</g>
<!-- Symmetric Closure&#45;&gt;Symmetric Relation -->
<g id="edge22" class="edge">
<title>Symmetric Closure&#45;&gt;Symmetric Relation</title>
<path fill="none" stroke="#b75867" d="M451.04,-455.16C464.27,-452.36 478.4,-449.36 492.06,-446.47"/>
<polygon fill="#b75867" stroke="#b75867" points="492.84,-449.88 501.9,-444.38 491.39,-443.03 492.84,-449.88"/>
</g>
<!-- Class of equivalence&#45;&gt;Set -->
<g id="edge26" class="edge">
<title>Class of equivalence&#45;&gt;Set</title>
<path fill="none" stroke="#b75867" d="M103.94,-371.32C89.51,-368.08 74.73,-363.22 62,-356 56.55,-352.91 51.49,-348.65 47.02,-344.09"/>
<polygon fill="#b75867" stroke="#b75867" points="49.36,-341.45 40.1,-336.29 44.12,-346.1 49.36,-341.45"/>
</g>
<!-- Class of equivalence&#45;&gt;Relation of Equivalence -->
<g id="edge27" class="edge">
<title>Class of equivalence&#45;&gt;Relation of Equivalence</title>
<path fill="none" stroke="#b75867" d="M235.02,-382.62C256.9,-384.53 281.65,-386.69 304.8,-388.71"/>
<polygon fill="#b75867" stroke="#b75867" points="304.69,-392.21 314.96,-389.59 305.3,-385.24 304.69,-392.21"/>
</g>
<!-- Class of equivalence&#45;&gt;Principle of division -->
<g id="edge28" class="edge">
<title>Class of equivalence&#45;&gt;Principle of division</title>
<path fill="none" stroke="#ffffff" d="M245.25,-375.23C310.86,-373.38 408.84,-369.9 494,-364 496.84,-363.8 499.75,-363.58 502.68,-363.35"/>
<polygon fill="#ffffff" stroke="#ffffff" points="244.91,-371.74 235.01,-375.51 245.1,-378.73 244.91,-371.74"/>
</g>
<!-- Class of equivalence&#45;&gt;Relations -->
<g id="edge29" class="edge">
<title>Class of equivalence&#45;&gt;Relations</title>
<path fill="none" stroke="#ffffff" d="M242.46,-398.3C254.12,-402.23 265.97,-406.51 277,-411 280.68,-412.5 281.22,-413.77 285,-415 374.55,-444.16 429.16,-381.69 494,-450 515.56,-472.71 482.45,-495.54 502,-520 509.23,-529.05 520.43,-534.39 531.39,-537.53"/>
<polygon fill="#ffffff" stroke="#ffffff" points="243.34,-394.9 232.74,-395.09 241.14,-401.55 243.34,-394.9"/>
</g>
<!-- Partition -->
<g id="node19" class="node">
<title>Partition</title>
<g id="a_node19"><a xlink:href="../Partition.html" xlink:title="Partition" target="_parent">
<path fill="#273434" stroke="#b75867" d="M586.5,-338C586.5,-338 545.5,-338 545.5,-338 539.5,-338 533.5,-332 533.5,-326 533.5,-326 533.5,-314 533.5,-314 533.5,-308 539.5,-302 545.5,-302 545.5,-302 586.5,-302 586.5,-302 592.5,-302 598.5,-308 598.5,-314 598.5,-314 598.5,-326 598.5,-326 598.5,-332 592.5,-338 586.5,-338"/>
<text text-anchor="middle" x="566" y="-316.9" font-family="sans" font-size="12.00" fill="#c4c7c7">Partition</text>
</a>
</g>
</g>
<!-- Class of equivalence&#45;&gt;Partition -->
<g id="edge25" class="edge">
<title>Class of equivalence&#45;&gt;Partition</title>
<path fill="none" stroke="#b75867" d="M235.2,-367.65C316.71,-355.88 454.4,-335.98 523.23,-326.04"/>
<polygon fill="#b75867" stroke="#b75867" points="523.87,-329.48 533.26,-324.59 522.87,-322.55 523.87,-329.48"/>
</g>
<!-- Relation of Equivalence&#45;&gt;Set -->
<g id="edge31" class="edge">
<title>Relation of Equivalence&#45;&gt;Set</title>
<path fill="none" stroke="#b75867" d="M327.59,-414.02C257.52,-430.39 141.86,-444.89 62,-393 46.09,-382.67 37.52,-362.84 32.97,-346.17"/>
<polygon fill="#b75867" stroke="#b75867" points="36.34,-345.22 30.62,-336.3 29.53,-346.84 36.34,-345.22"/>
</g>
<!-- Relation of Equivalence&#45;&gt;Class of equivalence -->
<g id="edge30" class="edge">
<title>Relation of Equivalence&#45;&gt;Class of equivalence</title>
<path fill="none" stroke="#b75867" d="M314.96,-390.3C292.49,-388.39 267.76,-386.24 245.21,-384.23"/>
<polygon fill="#b75867" stroke="#b75867" points="245.29,-380.72 235.02,-383.32 244.67,-387.69 245.29,-380.72"/>
</g>
<!-- Relation of Equivalence&#45;&gt;Principle of division -->
<g id="edge37" class="edge">
<title>Relation of Equivalence&#45;&gt;Principle of division</title>
<path fill="none" stroke="#ffffff" d="M473.99,-378.45C480.76,-376.96 487.5,-375.47 494,-374 496.84,-373.36 499.75,-372.69 502.68,-372.02"/>
<polygon fill="#ffffff" stroke="#ffffff" points="473.08,-375.06 464.05,-380.61 474.57,-381.9 473.08,-375.06"/>
</g>
<!-- Relation of Equivalence&#45;&gt;Relation -->
<g id="edge36" class="edge">
<title>Relation of Equivalence&#45;&gt;Relation</title>
<path fill="none" stroke="#b75867" d="M463.9,-414.05C474.7,-418.76 485.15,-424.65 494,-432 499.51,-436.58 496.49,-441.42 502,-446 508.46,-451.37 516.31,-455.47 524.26,-458.58"/>
<polygon fill="#b75867" stroke="#b75867" points="523.3,-461.95 533.9,-461.9 525.58,-455.33 523.3,-461.95"/>
</g>
<!-- Relation of Equivalence&#45;&gt;Reflexive Relation -->
<g id="edge35" class="edge">
<title>Relation of Equivalence&#45;&gt;Reflexive Relation</title>
<path fill="none" stroke="#b75867" d="M464.13,-410.37C475.5,-415.52 486.07,-422.51 494,-432 506.87,-447.41 492.09,-461.41 501.66,-480.07"/>
<polygon fill="#b75867" stroke="#b75867" points="498.84,-482.14 507.41,-488.37 504.59,-478.15 498.84,-482.14"/>
</g>
<!-- Relation of Equivalence&#45;&gt;Relations -->
<g id="edge38" class="edge">
<title>Relation of Equivalence&#45;&gt;Relations</title>
<path fill="none" stroke="#ffffff" d="M473.08,-414.29C481.08,-418.93 488.32,-424.73 494,-432 506.09,-447.47 489.92,-504.52 502,-520 509.13,-529.13 520.3,-534.49 531.27,-537.62"/>
<polygon fill="#ffffff" stroke="#ffffff" points="474.63,-411.15 464.13,-409.71 471.43,-417.38 474.63,-411.15"/>
</g>
<!-- Relation of Equivalence&#45;&gt;Symmetric Relation -->
<g id="edge34" class="edge">
<title>Relation of Equivalence&#45;&gt;Symmetric Relation</title>
<path fill="none" stroke="#b75867" d="M464.25,-410.79C473.47,-412.64 482.9,-414.53 492.11,-416.38"/>
<polygon fill="#b75867" stroke="#b75867" points="491.5,-419.83 502,-418.36 492.88,-412.96 491.5,-419.83"/>
</g>
<!-- Relation of Equivalence&#45;&gt;Partition -->
<g id="edge32" class="edge">
<title>Relation of Equivalence&#45;&gt;Partition</title>
<path fill="none" stroke="#b75867" d="M464.18,-382.58C475.13,-378.06 485.56,-372.04 494,-364 501.53,-356.83 494.6,-349.31 502,-342 508.1,-335.97 515.95,-331.59 524.01,-328.41"/>
<polygon fill="#b75867" stroke="#b75867" points="525.14,-331.72 533.49,-325.2 522.89,-325.09 525.14,-331.72"/>
</g>
<!-- Transitive Relation -->
<g id="node20" class="node">
<title>Transitive Relation</title>
<g id="a_node20"><a xlink:href="../Transitive Relation.html" xlink:title="Transitive Relation" target="_parent">
<path fill="#273434" stroke="#b75867" d="M614.5,-412C614.5,-412 517.5,-412 517.5,-412 511.5,-412 505.5,-406 505.5,-400 505.5,-400 505.5,-388 505.5,-388 505.5,-382 511.5,-376 517.5,-376 517.5,-376 614.5,-376 614.5,-376 620.5,-376 626.5,-382 626.5,-388 626.5,-388 626.5,-400 626.5,-400 626.5,-406 620.5,-412 614.5,-412"/>
<text text-anchor="middle" x="566" y="-390.9" font-family="sans" font-size="12.00" fill="#c4c7c7">Transitive Relation</text>
</a>
</g>
</g>
<!-- Relation of Equivalence&#45;&gt;Transitive Relation -->
<g id="edge33" class="edge">
<title>Relation of Equivalence&#45;&gt;Transitive Relation</title>
<path fill="none" stroke="#b75867" d="M464.25,-395.15C474.51,-395.04 485.02,-394.92 495.2,-394.8"/>
<polygon fill="#b75867" stroke="#b75867" points="495.28,-398.3 505.24,-394.68 495.2,-391.3 495.28,-398.3"/>
</g>
<!-- Recurrent Equations&#45;&gt;Set -->
<g id="edge39" class="edge">
<title>Recurrent Equations&#45;&gt;Set</title>
<path fill="none" stroke="#b75867" d="M104,-154.5C88.56,-157.85 73.3,-164.01 62,-175 45.82,-190.73 35.84,-252.67 31.16,-289.68"/>
<polygon fill="#b75867" stroke="#b75867" points="27.66,-289.49 29.93,-299.84 34.61,-290.33 27.66,-289.49"/>
</g>
<!-- Multiset -->
<g id="node21" class="node">
<title>Multiset</title>
<g id="a_node21"><a xlink:href="../Multiset.html" xlink:title="Multiset" target="_parent">
<path fill="#273434" stroke="#b75867" d="M408.5,-184C408.5,-184 370.5,-184 370.5,-184 364.5,-184 358.5,-178 358.5,-172 358.5,-172 358.5,-160 358.5,-160 358.5,-154 364.5,-148 370.5,-148 370.5,-148 408.5,-148 408.5,-148 414.5,-148 420.5,-154 420.5,-160 420.5,-160 420.5,-172 420.5,-172 420.5,-178 414.5,-184 408.5,-184"/>
<text text-anchor="middle" x="389.5" y="-162.9" font-family="sans" font-size="12.00" fill="#c4c7c7">Multiset</text>
</a>
</g>
</g>
<!-- Recurrent Equations&#45;&gt;Multiset -->
<g id="edge40" class="edge">
<title>Recurrent Equations&#45;&gt;Multiset</title>
<path fill="none" stroke="#b75867" d="M235.02,-156.14C271.68,-158.5 316.45,-161.37 348.15,-163.41"/>
<polygon fill="#b75867" stroke="#b75867" points="348.16,-166.92 358.36,-164.06 348.61,-159.93 348.16,-166.92"/>
</g>
<!-- Fundamental Theorem of Algebra -->
<g id="node22" class="node">
<title>Fundamental Theorem of Algebra</title>
<g id="a_node22"><a xlink:href="../Fundamental Theorem of Algebra.html" xlink:title="Fundamental Theorem of Algebra" target="_parent">
<path fill="#273434" stroke="#b75867" d="M482,-147C482,-147 297,-147 297,-147 291,-147 285,-141 285,-135 285,-135 285,-123 285,-123 285,-117 291,-111 297,-111 297,-111 482,-111 482,-111 488,-111 494,-117 494,-123 494,-123 494,-135 494,-135 494,-141 488,-147 482,-147"/>
<text text-anchor="middle" x="389.5" y="-125.9" font-family="sans" font-size="12.00" fill="#c4c7c7">Fundamental Theorem of Algebra</text>
</a>
</g>
</g>
<!-- Recurrent Equations&#45;&gt;Fundamental Theorem of Algebra -->
<g id="edge41" class="edge">
<title>Recurrent Equations&#45;&gt;Fundamental Theorem of Algebra</title>
<path fill="none" stroke="#b75867" d="M235.02,-145.19C247.65,-143.86 261.24,-142.43 274.93,-140.98"/>
<polygon fill="#b75867" stroke="#b75867" points="275.32,-144.46 284.9,-139.93 274.59,-137.5 275.32,-144.46"/>
</g>
<!-- Discrete Structures -->
<g id="node23" class="node">
<title>Discrete Structures</title>
<g id="a_node23"><a xlink:href="../Discrete Structures.html" xlink:title="Discrete Structures" target="_parent">
<path fill="none" stroke="#b75867" d="M438.5,-110C438.5,-110 340.5,-110 340.5,-110 334.5,-110 328.5,-104 328.5,-98 328.5,-98 328.5,-86 328.5,-86 328.5,-80 334.5,-74 340.5,-74 340.5,-74 438.5,-74 438.5,-74 444.5,-74 450.5,-80 450.5,-86 450.5,-86 450.5,-98 450.5,-98 450.5,-104 444.5,-110 438.5,-110"/>
<text text-anchor="middle" x="389.5" y="-88.9" font-family="sans" font-size="12.00" fill="#c4c7c7">Discrete Structures</text>
</a>
</g>
</g>
<!-- Recurrent Equations&#45;&gt;Discrete Structures -->
<g id="edge42" class="edge">
<title>Recurrent Equations&#45;&gt;Discrete Structures</title>
<path fill="none" stroke="#ffffff" d="M230.38,-130.74C247.87,-124.91 267.09,-118.86 285,-114 298.92,-110.22 314.03,-106.7 328.3,-103.62"/>
<polygon fill="#ffffff" stroke="#ffffff" points="229.22,-127.43 220.86,-133.94 231.46,-134.07 229.22,-127.43"/>
</g>
<!-- Chebyshev Polynomial -->
<g id="node24" class="node">
<title>Chebyshev Polynomial</title>
<g id="a_node24"><a xlink:href="../Chebyshev Polynomial.html" xlink:title="Chebyshev Polynomial" target="_parent">
<path fill="none" stroke="#b75867" d="M450,-221C450,-221 329,-221 329,-221 323,-221 317,-215 317,-209 317,-209 317,-197 317,-197 317,-191 323,-185 329,-185 329,-185 450,-185 450,-185 456,-185 462,-191 462,-197 462,-197 462,-209 462,-209 462,-215 456,-221 450,-221"/>
<text text-anchor="middle" x="389.5" y="-199.9" font-family="sans" font-size="12.00" fill="#c4c7c7">Chebyshev Polynomial</text>
</a>
</g>
</g>
<!-- Recurrent Equations&#45;&gt;Chebyshev Polynomial -->
<g id="edge43" class="edge">
<title>Recurrent Equations&#45;&gt;Chebyshev Polynomial</title>
<path fill="none" stroke="#ffffff" d="M244.82,-162.2C255.93,-165.18 267,-169.03 277,-174 281.23,-176.1 280.78,-178.89 285,-181 294.94,-185.98 305.96,-189.83 317,-192.81"/>
<polygon fill="#ffffff" stroke="#ffffff" points="245.62,-158.79 235.08,-159.8 243.95,-165.59 245.62,-158.79"/>
</g>
<!-- Principle of division&#45;&gt;Set -->
<g id="edge46" class="edge">
<title>Principle of division&#45;&gt;Set</title>
<path fill="none" stroke="#b75867" d="M502.8,-358.17C372.66,-359.78 81.95,-361.38 62,-353 56.71,-350.78 51.81,-347.3 47.47,-343.37"/>
<polygon fill="#b75867" stroke="#b75867" points="49.79,-340.74 40.3,-336.01 44.77,-345.62 49.79,-340.74"/>
</g>
<!-- Principle of division&#45;&gt;Class of equivalence -->
<g id="edge44" class="edge">
<title>Principle of division&#45;&gt;Class of equivalence</title>
<path fill="none" stroke="#b75867" d="M502.68,-364.35C499.75,-364.58 496.84,-364.8 494,-365 408.84,-370.9 310.86,-374.38 245.25,-376.02"/>
<polygon fill="#b75867" stroke="#b75867" points="244.92,-372.53 235.01,-376.27 245.09,-379.52 244.92,-372.53"/>
</g>
<!-- Principle of division&#45;&gt;Relation of Equivalence -->
<g id="edge45" class="edge">
<title>Principle of division&#45;&gt;Relation of Equivalence</title>
<path fill="none" stroke="#b75867" d="M502.68,-373.02C499.75,-373.69 496.84,-374.36 494,-375 487.5,-376.47 480.76,-377.96 473.99,-379.44"/>
<polygon fill="#b75867" stroke="#b75867" points="473.08,-376.06 464.05,-381.6 474.57,-382.9 473.08,-376.06"/>
</g>
<!-- Combinatoric principles -->
<g id="node25" class="node">
<title>Combinatoric principles</title>
<g id="a_node25"><a xlink:href="../Combinatoric principles.html" xlink:title="Combinatoric principles" target="_parent">
<path fill="none" stroke="#b75867" d="M777,-285C777,-285 650,-285 650,-285 644,-285 638,-279 638,-273 638,-273 638,-261 638,-261 638,-255 644,-249 650,-249 650,-249 777,-249 777,-249 783,-249 789,-255 789,-261 789,-261 789,-273 789,-273 789,-279 783,-285 777,-285"/>
<text text-anchor="middle" x="713.5" y="-263.9" font-family="sans" font-size="12.00" fill="#c4c7c7">Combinatoric principles</text>
</a>
</g>
</g>
<!-- Principle of division&#45;&gt;Combinatoric principles -->
<g id="edge47" class="edge">
<title>Principle of division&#45;&gt;Combinatoric principles</title>
<path fill="none" stroke="#ffffff" d="M631.21,-333.88C658.72,-317.46 679.9,-298.93 694.26,-285.3"/>
<polygon fill="#ffffff" stroke="#ffffff" points="629.4,-330.89 622.47,-338.9 632.89,-336.96 629.4,-330.89"/>
</g>
<!-- Principle of products&#45;&gt;Set -->
<g id="edge48" class="edge">
<title>Principle of products&#45;&gt;Set</title>
<path fill="none" stroke="#b75867" d="M102.27,-271.61C88.45,-274.86 74.35,-279.46 62,-286 58.42,-287.9 54.96,-290.28 51.71,-292.89"/>
<polygon fill="#b75867" stroke="#b75867" points="49.22,-290.42 44.1,-299.7 53.88,-295.64 49.22,-290.42"/>
</g>
<!-- Principle of products&#45;&gt;Combinatoric principles -->
<g id="edge49" class="edge">
<title>Principle of products&#45;&gt;Combinatoric principles</title>
<path fill="none" stroke="#ffffff" d="M246.77,-263.56C350.43,-264.33 534.64,-265.69 637.59,-266.45"/>
<polygon fill="#ffffff" stroke="#ffffff" points="246.71,-260.06 236.69,-263.49 246.66,-267.06 246.71,-260.06"/>
</g>
<!-- Dirichlet principle&#45;&gt;Set -->
<g id="edge51" class="edge">
<title>Dirichlet principle&#45;&gt;Set</title>
<path fill="none" stroke="#b75867" d="M111.36,-229.14C94.09,-232.24 76.01,-238.1 62,-249 48.96,-259.15 40.62,-275.58 35.46,-289.86"/>
<polygon fill="#b75867" stroke="#b75867" points="32.01,-289.17 32.25,-299.76 38.66,-291.33 32.01,-289.17"/>
</g>
<!-- Dirichlet principle&#45;&gt;Combinatoric principles -->
<g id="edge52" class="edge">
<title>Dirichlet principle&#45;&gt;Combinatoric principles</title>
<path fill="none" stroke="#ffffff" d="M237.8,-224.15C303.35,-223.03 405.71,-223.09 494,-231 542.15,-235.32 595.72,-244.08 637.76,-251.88"/>
<polygon fill="#ffffff" stroke="#ffffff" points="237.54,-220.65 227.61,-224.34 237.67,-227.65 237.54,-220.65"/>
</g>
<!-- Injective function -->
<g id="node26" class="node">
<title>Injective function</title>
<g id="a_node26"><a xlink:href="../Injective function.html" xlink:title="Injective function" target="_parent">
<path fill="#273434" stroke="#b75867" d="M434.5,-264C434.5,-264 344.5,-264 344.5,-264 338.5,-264 332.5,-258 332.5,-252 332.5,-252 332.5,-240 332.5,-240 332.5,-234 338.5,-228 344.5,-228 344.5,-228 434.5,-228 434.5,-228 440.5,-228 446.5,-234 446.5,-240 446.5,-240 446.5,-252 446.5,-252 446.5,-258 440.5,-264 434.5,-264"/>
<text text-anchor="middle" x="389.5" y="-242.9" font-family="sans" font-size="12.00" fill="#c4c7c7">Injective function</text>
</a>
</g>
</g>
<!-- Dirichlet principle&#45;&gt;Injective function -->
<g id="edge50" class="edge">
<title>Dirichlet principle&#45;&gt;Injective function</title>
<path fill="none" stroke="#b75867" d="M227.78,-231.25C256.79,-233.92 292.17,-237.16 322.34,-239.93"/>
<polygon fill="#b75867" stroke="#b75867" points="322.08,-243.42 332.36,-240.85 322.72,-236.45 322.08,-243.42"/>
</g>
<!-- Principle of inclusion and exclusion&#45;&gt;Set -->
<g id="edge53" class="edge">
<title>Principle of inclusion and exclusion&#45;&gt;Set</title>
<path fill="none" stroke="#b75867" d="M68.18,-207.07C66.03,-208.59 63.96,-210.23 62,-212 40.05,-231.78 32.18,-265.64 29.4,-289.78"/>
<polygon fill="#b75867" stroke="#b75867" points="25.91,-289.49 28.48,-299.77 32.88,-290.14 25.91,-289.49"/>
</g>
<!-- Principle of inclusion and exclusion&#45;&gt;Combinatoric principles -->
<g id="edge54" class="edge">
<title>Principle of inclusion and exclusion&#45;&gt;Combinatoric principles</title>
<path fill="none" stroke="#ffffff" d="M277.34,-212.14C281.36,-215.02 282.05,-216.83 285,-218 320.65,-232.17 592.6,-222.46 630,-231 646.76,-234.83 664.35,-242.01 678.96,-248.96"/>
<polygon fill="#ffffff" stroke="#ffffff" points="278.83,-208.96 268.4,-207.1 275.39,-215.06 278.83,-208.96"/>
</g>
<!-- Differential Analysis&#45;&gt;Set -->
<g id="edge55" class="edge">
<title>Differential Analysis&#45;&gt;Set</title>
<path fill="none" stroke="#b75867" d="M132.97,-73.1C109.09,-86.74 78.99,-107.75 62,-135 31.96,-183.17 27.09,-251.31 27.02,-289.4"/>
<polygon fill="#b75867" stroke="#b75867" points="23.53,-289.79 27.12,-299.75 30.53,-289.72 23.53,-289.79"/>
</g>
<!-- Subjects -->
<g id="node27" class="node">
<title>Subjects</title>
<g id="a_node27"><a xlink:href="../Subjects.html" xlink:title="Subjects" target="_parent">
<path fill="none" stroke="#b75867" d="M410,-36C410,-36 369,-36 369,-36 363,-36 357,-30 357,-24 357,-24 357,-12 357,-12 357,-6 363,0 369,0 369,0 410,0 410,0 416,0 422,-6 422,-12 422,-12 422,-24 422,-24 422,-30 416,-36 410,-36"/>
<text text-anchor="middle" x="389.5" y="-14.9" font-family="sans" font-size="12.00" fill="#c4c7c7">Subjects</text>
</a>
</g>
</g>
<!-- Differential Analysis&#45;&gt;Subjects -->
<g id="edge56" class="edge">
<title>Differential Analysis&#45;&gt;Subjects</title>
<path fill="none" stroke="#ffffff" d="M243.42,-42.62C282,-36.08 327.37,-28.38 356.97,-23.35"/>
<polygon fill="#ffffff" stroke="#ffffff" points="242.54,-39.22 233.26,-44.35 243.71,-46.12 242.54,-39.22"/>
</g>
<!-- Knowledege Base -->
<g id="node28" class="node">
<title>Knowledege Base</title>
<g id="a_node28"><a xlink:href="../Knowledege Base.html" xlink:title="Knowledege Base" target="_parent">
<path fill="none" stroke="#b75867" d="M436,-73C436,-73 343,-73 343,-73 337,-73 331,-67 331,-61 331,-61 331,-49 331,-49 331,-43 337,-37 343,-37 343,-37 436,-37 436,-37 442,-37 448,-43 448,-49 448,-49 448,-61 448,-61 448,-67 442,-73 436,-73"/>
<text text-anchor="middle" x="389.5" y="-51.9" font-family="sans" font-size="12.00" fill="#c4c7c7">Knowledege Base</text>
</a>
</g>
</g>
<!-- Differential Analysis&#45;&gt;Knowledege Base -->
<g id="edge57" class="edge">
<title>Differential Analysis&#45;&gt;Knowledege Base</title>
<path fill="none" stroke="#ffffff" d="M243.53,-55C271.9,-55 303.93,-55 330.65,-55"/>
<polygon fill="#ffffff" stroke="#ffffff" points="243.26,-51.5 233.26,-55 243.26,-58.5 243.26,-51.5"/>
</g>
<!-- Differential Analysis&#45;&gt;Knowledege Base -->
<g id="edge58" class="edge">
<title>Differential Analysis&#45;&gt;Knowledege Base</title>
<path fill="none" stroke="#ffffff" d="M243.53,-55.71C271.9,-55.77 303.93,-55.76 330.65,-55.67"/>
<polygon fill="#ffffff" stroke="#ffffff" points="243.27,-52.21 233.26,-55.69 243.25,-59.21 243.27,-52.21"/>
</g>
<!-- Principle of partitions&#45;&gt;Set -->
<g id="edge60" class="edge">
<title>Principle of partitions&#45;&gt;Set</title>
<path fill="none" stroke="#b75867" d="M100.72,-328.58C88.15,-326.89 75.47,-325.14 64.29,-323.57"/>
<polygon fill="#b75867" stroke="#b75867" points="64.49,-320.07 54.1,-322.13 63.51,-327 64.49,-320.07"/>
</g>
<!-- Principle of partitions&#45;&gt;Partition -->
<g id="edge59" class="edge">
<title>Principle of partitions&#45;&gt;Partition</title>
<path fill="none" stroke="#b75867" d="M238.32,-334.08C320.08,-330.55 454.97,-324.74 522.99,-321.81"/>
<polygon fill="#b75867" stroke="#b75867" points="523.48,-325.29 533.32,-321.37 523.18,-318.3 523.48,-325.29"/>
</g>
<!-- Principle of partitions&#45;&gt;Combinatoric principles -->
<g id="edge61" class="edge">
<title>Principle of partitions&#45;&gt;Combinatoric principles</title>
<path fill="none" stroke="#ffffff" d="M248.45,-327.14C260.68,-325.69 273.18,-324.26 285,-323 377.75,-313.12 401.51,-316.02 494,-304 542.07,-297.75 595.76,-288.69 637.88,-281.1"/>
<polygon fill="#ffffff" stroke="#ffffff" points="247.78,-323.7 238.27,-328.36 248.62,-330.65 247.78,-323.7"/>
</g>
<!-- Principle of the bijection&#45;&gt;Set -->
<g id="edge63" class="edge">
<title>Principle of the bijection&#45;&gt;Set</title>
<path fill="none" stroke="#b75867" d="M92.38,-310.5C82.58,-311.75 72.94,-312.95 64.22,-314.02"/>
<polygon fill="#b75867" stroke="#b75867" points="63.6,-310.57 54.1,-315.26 64.45,-317.52 63.6,-310.57"/>
</g>
<!-- Principle of the bijection&#45;&gt;Combinatoric principles -->
<g id="edge64" class="edge">
<title>Principle of the bijection&#45;&gt;Combinatoric principles</title>
<path fill="none" stroke="#ffffff" d="M256.21,-284.34C263.31,-282.43 270.32,-280.32 277,-278 280.76,-276.7 281.14,-274.94 285,-274 318.17,-265.88 524.5,-265.82 637.94,-266.42"/>
<polygon fill="#ffffff" stroke="#ffffff" points="255.32,-280.96 246.51,-286.83 257.06,-287.74 255.32,-280.96"/>
</g>
<!-- Bijective function -->
<g id="node29" class="node">
<title>Bijective function</title>
<g id="a_node29"><a xlink:href="../Bijective function.html" xlink:title="Bijective function" target="_parent">
<path fill="#273434" stroke="#b75867" d="M434.5,-307C434.5,-307 344.5,-307 344.5,-307 338.5,-307 332.5,-301 332.5,-295 332.5,-295 332.5,-283 332.5,-283 332.5,-277 338.5,-271 344.5,-271 344.5,-271 434.5,-271 434.5,-271 440.5,-271 446.5,-277 446.5,-283 446.5,-283 446.5,-295 446.5,-295 446.5,-301 440.5,-307 434.5,-307"/>
<text text-anchor="middle" x="389.5" y="-285.9" font-family="sans" font-size="12.00" fill="#c4c7c7">Bijective function</text>
</a>
</g>
</g>
<!-- Principle of the bijection&#45;&gt;Bijective function -->
<g id="edge62" class="edge">
<title>Principle of the bijection&#45;&gt;Bijective function</title>
<path fill="none" stroke="#b75867" d="M246.75,-296.15C271.35,-294.91 298.41,-293.55 322.23,-292.34"/>
<polygon fill="#b75867" stroke="#b75867" points="322.41,-295.84 332.22,-291.84 322.06,-288.85 322.41,-295.84"/>
</g>
</g>
</svg>
