<?xml version="1.0" encoding="UTF-8" standalone="no"?>
<!DOCTYPE svg PUBLIC "-//W3C//DTD SVG 1.1//EN"
 "http://www.w3.org/Graphics/SVG/1.1/DTD/svg11.dtd">
<!-- Generated by graphviz version 2.44.0 (0)
 -->
<!-- Title: Strongly Anti&#45;symmetric Relation Pages: 1 -->
<svg width="699pt" height="478pt"
 viewBox="0.00 0.00 699.00 478.24" xmlns="http://www.w3.org/2000/svg" xmlns:xlink="http://www.w3.org/1999/xlink">
<g id="page0,1_graph0" class="graph" transform="scale(1 1) rotate(0) translate(4 474.24)">
<title>Strongly Anti&#45;symmetric Relation</title>
<polygon fill="#132020" stroke="transparent" points="-4,4 -4,-474.24 695,-474.24 695,4 -4,4"/>
<!-- Strongly Anti&#45;symmetric Relation -->
<g id="node1" class="node">
<title>Strongly Anti&#45;symmetric Relation</title>
<g id="a_node1"><a xlink:href="../Strongly Anti-symmetric Relation.html" xlink:title="Strongly Anti&#45;symmetric Relation" target="_parent">
<path fill="#273434" stroke="#b75867" d="M191,-236.72C191,-236.72 12,-236.72 12,-236.72 6,-236.72 0,-230.72 0,-224.72 0,-224.72 0,-212.72 0,-212.72 0,-206.72 6,-200.72 12,-200.72 12,-200.72 191,-200.72 191,-200.72 197,-200.72 203,-206.72 203,-212.72 203,-212.72 203,-224.72 203,-224.72 203,-230.72 197,-236.72 191,-236.72"/>
<text text-anchor="middle" x="101.5" y="-215.62" font-family="sans" font-size="12.00" fill="#c4c7c7">Strongly Anti&#45;symmetric Relation</text>
</a>
</g>
</g>
<!-- Relation -->
<g id="node2" class="node">
<title>Relation</title>
<g id="a_node2"><a xlink:href="../Relation.html" xlink:title="Relation" target="_parent">
<path fill="#273434" stroke="#b75867" d="M263,-259.72C263,-259.72 223,-259.72 223,-259.72 217,-259.72 211,-253.72 211,-247.72 211,-247.72 211,-235.72 211,-235.72 211,-229.72 217,-223.72 223,-223.72 223,-223.72 263,-223.72 263,-223.72 269,-223.72 275,-229.72 275,-235.72 275,-235.72 275,-247.72 275,-247.72 275,-253.72 269,-259.72 263,-259.72"/>
<text text-anchor="middle" x="243" y="-238.62" font-family="sans" font-size="12.00" fill="#c4c7c7">Relation</text>
</a>
</g>
</g>
<!-- Strongly Anti&#45;symmetric Relation&#45;&gt;Relation -->
<g id="edge1" class="edge">
<title>Strongly Anti&#45;symmetric Relation&#45;&gt;Relation</title>
<path fill="none" stroke="#b75867" d="M203.14,-235.31C203.3,-235.34 203.46,-235.37 203.62,-235.39"/>
<polygon fill="#b75867" stroke="#b75867" points="200.21,-238.38 210.64,-236.55 201.35,-231.47 200.21,-238.38"/>
</g>
<!-- Relations -->
<g id="node3" class="node">
<title>Relations</title>
<g id="a_node3"><a xlink:href="../Relations.html" xlink:title="Relations" target="_parent">
<path fill="none" stroke="#b75867" d="M365,-236.72C365,-236.72 320,-236.72 320,-236.72 314,-236.72 308,-230.72 308,-224.72 308,-224.72 308,-212.72 308,-212.72 308,-206.72 314,-200.72 320,-200.72 320,-200.72 365,-200.72 365,-200.72 371,-200.72 377,-206.72 377,-212.72 377,-212.72 377,-224.72 377,-224.72 377,-230.72 371,-236.72 365,-236.72"/>
<text text-anchor="middle" x="342.5" y="-215.62" font-family="sans" font-size="12.00" fill="#c4c7c7">Relations</text>
</a>
</g>
</g>
<!-- Strongly Anti&#45;symmetric Relation&#45;&gt;Relations -->
<g id="edge2" class="edge">
<title>Strongly Anti&#45;symmetric Relation&#45;&gt;Relations</title>
<path fill="none" stroke="#ffffff" d="M213.29,-218.72C247.61,-218.72 282.9,-218.72 307.74,-218.72"/>
<polygon fill="#ffffff" stroke="#ffffff" points="213.16,-215.22 203.16,-218.72 213.16,-222.22 213.16,-215.22"/>
</g>
<!-- Linear order -->
<g id="node4" class="node">
<title>Linear order</title>
<g id="a_node4"><a xlink:href="../Linear order.html" xlink:title="Linear order" target="_parent">
<path fill="none" stroke="#b75867" d="M517,-59.72C517,-59.72 455,-59.72 455,-59.72 449,-59.72 443,-53.72 443,-47.72 443,-47.72 443,-35.72 443,-35.72 443,-29.72 449,-23.72 455,-23.72 455,-23.72 517,-23.72 517,-23.72 523,-23.72 529,-29.72 529,-35.72 529,-35.72 529,-47.72 529,-47.72 529,-53.72 523,-59.72 517,-59.72"/>
<text text-anchor="middle" x="486" y="-38.62" font-family="sans" font-size="12.00" fill="#c4c7c7">Linear order</text>
</a>
</g>
</g>
<!-- Strongly Anti&#45;symmetric Relation&#45;&gt;Linear order -->
<g id="edge3" class="edge">
<title>Strongly Anti&#45;symmetric Relation&#45;&gt;Linear order</title>
<path fill="none" stroke="#ffffff" d="M120.91,-192.42C150.08,-153.22 211.06,-80.88 283,-50.72 334.8,-29 400.75,-30.92 442.94,-35.41"/>
<polygon fill="#ffffff" stroke="#ffffff" points="117.92,-190.57 114.85,-200.71 123.57,-194.7 117.92,-190.57"/>
</g>
<!-- Relation&#45;&gt;Strongly Anti&#45;symmetric Relation -->
<g id="edge10" class="edge">
<title>Relation&#45;&gt;Strongly Anti&#45;symmetric Relation</title>
<path fill="none" stroke="#ffffff" d="M203.62,-236.07C203.46,-236.05 203.3,-236.02 203.14,-235.99"/>
<polygon fill="#ffffff" stroke="#ffffff" points="200.22,-239.07 210.64,-237.19 201.32,-232.16 200.22,-239.07"/>
</g>
<!-- Relation&#45;&gt;Relations -->
<g id="edge16" class="edge">
<title>Relation&#45;&gt;Relations</title>
<path fill="none" stroke="#ffffff" d="M284.98,-232.05C292.64,-230.24 300.57,-228.37 307.98,-226.63"/>
<polygon fill="#ffffff" stroke="#ffffff" points="284.05,-228.68 275.12,-234.38 285.65,-235.49 284.05,-228.68"/>
</g>
<!-- Relation&#45;&gt;Linear order -->
<g id="edge17" class="edge">
<title>Relation&#45;&gt;Linear order</title>
<path fill="none" stroke="#ffffff" d="M244.79,-213.08C247.14,-182.84 255.38,-135.62 283,-106.72 325.13,-62.64 397.21,-48.39 442.91,-43.82"/>
<polygon fill="#ffffff" stroke="#ffffff" points="241.27,-213.2 244.16,-223.39 248.26,-213.62 241.27,-213.2"/>
</g>
<!-- Descartes Product -->
<g id="node5" class="node">
<title>Descartes Product</title>
<g id="a_node5"><a xlink:href="../Descartes Product.html" xlink:title="Descartes Product" target="_parent">
<path fill="#273434" stroke="#b75867" d="M390,-282.72C390,-282.72 295,-282.72 295,-282.72 289,-282.72 283,-276.72 283,-270.72 283,-270.72 283,-258.72 283,-258.72 283,-252.72 289,-246.72 295,-246.72 295,-246.72 390,-246.72 390,-246.72 396,-246.72 402,-252.72 402,-258.72 402,-258.72 402,-270.72 402,-270.72 402,-276.72 396,-282.72 390,-282.72"/>
<text text-anchor="middle" x="342.5" y="-261.62" font-family="sans" font-size="12.00" fill="#c4c7c7">Descartes Product</text>
</a>
</g>
</g>
<!-- Relation&#45;&gt;Descartes Product -->
<g id="edge4" class="edge">
<title>Relation&#45;&gt;Descartes Product</title>
<path fill="none" stroke="#b75867" d="M275.12,-249.06C275.28,-249.1 275.44,-249.14 275.6,-249.17"/>
<polygon fill="#b75867" stroke="#b75867" points="272.46,-252.03 283,-250.92 274.07,-245.22 272.46,-252.03"/>
</g>
<!-- Anti&#45;symmetric Relation -->
<g id="node6" class="node">
<title>Anti&#45;symmetric Relation</title>
<g id="a_node6"><a xlink:href="../Anti-symmetric Relation.html" xlink:title="Anti&#45;symmetric Relation" target="_parent">
<path fill="none" stroke="#b75867" d="M550,-441.72C550,-441.72 422,-441.72 422,-441.72 416,-441.72 410,-435.72 410,-429.72 410,-429.72 410,-417.72 410,-417.72 410,-411.72 416,-405.72 422,-405.72 422,-405.72 550,-405.72 550,-405.72 556,-405.72 562,-411.72 562,-417.72 562,-417.72 562,-429.72 562,-429.72 562,-435.72 556,-441.72 550,-441.72"/>
<text text-anchor="middle" x="486" y="-420.62" font-family="sans" font-size="12.00" fill="#c4c7c7">Anti&#45;symmetric Relation</text>
</a>
</g>
</g>
<!-- Relation&#45;&gt;Anti&#45;symmetric Relation -->
<g id="edge5" class="edge">
<title>Relation&#45;&gt;Anti&#45;symmetric Relation</title>
<path fill="none" stroke="#ffffff" d="M245.64,-269.92C248.75,-297.48 257.64,-338.83 283,-363.72 316.55,-396.65 367.31,-411.64 409.56,-418.4"/>
<polygon fill="#ffffff" stroke="#ffffff" points="249.1,-269.37 244.68,-259.74 242.13,-270.02 249.1,-269.37"/>
</g>
<!-- Symmetric Relation -->
<g id="node7" class="node">
<title>Symmetric Relation</title>
<g id="a_node7"><a xlink:href="../Symmetric Relation.html" xlink:title="Symmetric Relation" target="_parent">
<path fill="none" stroke="#b75867" d="M538,-404.72C538,-404.72 434,-404.72 434,-404.72 428,-404.72 422,-398.72 422,-392.72 422,-392.72 422,-380.72 422,-380.72 422,-374.72 428,-368.72 434,-368.72 434,-368.72 538,-368.72 538,-368.72 544,-368.72 550,-374.72 550,-380.72 550,-380.72 550,-392.72 550,-392.72 550,-398.72 544,-404.72 538,-404.72"/>
<text text-anchor="middle" x="486" y="-383.62" font-family="sans" font-size="12.00" fill="#c4c7c7">Symmetric Relation</text>
</a>
</g>
</g>
<!-- Relation&#45;&gt;Symmetric Relation -->
<g id="edge6" class="edge">
<title>Relation&#45;&gt;Symmetric Relation</title>
<path fill="none" stroke="#ffffff" d="M250.51,-269.68C256.1,-287.06 266.03,-308.22 283,-319.72 304.97,-334.61 381.96,-312.32 402,-329.72 414.05,-340.18 399.06,-353.1 410,-364.72 413.44,-368.38 417.45,-371.44 421.8,-373.99"/>
<polygon fill="#ffffff" stroke="#ffffff" points="253.84,-268.61 247.7,-259.98 247.12,-270.56 253.84,-268.61"/>
</g>
<!-- Transitive Relation -->
<g id="node8" class="node">
<title>Transitive Relation</title>
<g id="a_node8"><a xlink:href="../Transitive Relation.html" xlink:title="Transitive Relation" target="_parent">
<path fill="none" stroke="#b75867" d="M679,-253.72C679,-253.72 582,-253.72 582,-253.72 576,-253.72 570,-247.72 570,-241.72 570,-241.72 570,-229.72 570,-229.72 570,-223.72 576,-217.72 582,-217.72 582,-217.72 679,-217.72 679,-217.72 685,-217.72 691,-223.72 691,-229.72 691,-229.72 691,-241.72 691,-241.72 691,-247.72 685,-253.72 679,-253.72"/>
<text text-anchor="middle" x="630.5" y="-232.62" font-family="sans" font-size="12.00" fill="#c4c7c7">Transitive Relation</text>
</a>
</g>
</g>
<!-- Relation&#45;&gt;Transitive Relation -->
<g id="edge7" class="edge">
<title>Relation&#45;&gt;Transitive Relation</title>
<path fill="none" stroke="#ffffff" d="M245.24,-270.07C248.09,-319.99 256.99,-420.29 283,-441.72 330.85,-481.14 511.8,-478.1 562,-441.72 623.25,-397.33 629.93,-295.65 629.97,-254.01"/>
<polygon fill="#ffffff" stroke="#ffffff" points="248.73,-269.75 244.71,-259.95 241.74,-270.12 248.73,-269.75"/>
</g>
<!-- Reflexive Relation -->
<g id="node9" class="node">
<title>Reflexive Relation</title>
<g id="a_node9"><a xlink:href="../Reflexive Relation.html" xlink:title="Reflexive Relation" target="_parent">
<path fill="none" stroke="#b75867" d="M677,-216.72C677,-216.72 584,-216.72 584,-216.72 578,-216.72 572,-210.72 572,-204.72 572,-204.72 572,-192.72 572,-192.72 572,-186.72 578,-180.72 584,-180.72 584,-180.72 677,-180.72 677,-180.72 683,-180.72 689,-186.72 689,-192.72 689,-192.72 689,-204.72 689,-204.72 689,-210.72 683,-216.72 677,-216.72"/>
<text text-anchor="middle" x="630.5" y="-195.62" font-family="sans" font-size="12.00" fill="#c4c7c7">Reflexive Relation</text>
</a>
</g>
</g>
<!-- Relation&#45;&gt;Reflexive Relation -->
<g id="edge8" class="edge">
<title>Relation&#45;&gt;Reflexive Relation</title>
<path fill="none" stroke="#ffffff" d="M243.98,-270.07C245.47,-303.01 252.79,-357.15 283,-390.72 323.36,-435.58 350.64,-427.88 410,-438.72 426.61,-441.76 549.84,-450.44 562,-438.72 579.45,-421.9 555.79,-240.35 570,-220.72 570.9,-219.47 571.89,-218.29 572.94,-217.18"/>
<polygon fill="#ffffff" stroke="#ffffff" points="247.47,-269.66 243.68,-259.76 240.47,-269.86 247.47,-269.66"/>
</g>
<!-- Anti&#45;reflexive relation -->
<g id="node10" class="node">
<title>Anti&#45;reflexive relation</title>
<g id="a_node10"><a xlink:href="../Anti-reflexive relation.html" xlink:title="Anti&#45;reflexive relation" target="_parent">
<path fill="none" stroke="#b75867" d="M543,-367.72C543,-367.72 429,-367.72 429,-367.72 423,-367.72 417,-361.72 417,-355.72 417,-355.72 417,-343.72 417,-343.72 417,-337.72 423,-331.72 429,-331.72 429,-331.72 543,-331.72 543,-331.72 549,-331.72 555,-337.72 555,-343.72 555,-343.72 555,-355.72 555,-355.72 555,-361.72 549,-367.72 543,-367.72"/>
<text text-anchor="middle" x="486" y="-346.62" font-family="sans" font-size="12.00" fill="#c4c7c7">Anti&#45;reflexive relation</text>
</a>
</g>
</g>
<!-- Relation&#45;&gt;Anti&#45;reflexive relation -->
<g id="edge9" class="edge">
<title>Relation&#45;&gt;Anti&#45;reflexive relation</title>
<path fill="none" stroke="#ffffff" d="M251.17,-269.72C256.94,-286.23 266.82,-305.94 283,-316.72 305.09,-331.43 375.88,-322.05 402,-326.72 409.51,-328.06 417.32,-329.78 425.01,-331.68"/>
<polygon fill="#ffffff" stroke="#ffffff" points="254.44,-268.44 248.09,-259.96 247.76,-270.55 254.44,-268.44"/>
</g>
<!-- Reflexive Closure -->
<g id="node11" class="node">
<title>Reflexive Closure</title>
<g id="a_node11"><a xlink:href="../Reflexive Closure.html" xlink:title="Reflexive Closure" target="_parent">
<path fill="none" stroke="#b75867" d="M530.5,-293.72C530.5,-293.72 441.5,-293.72 441.5,-293.72 435.5,-293.72 429.5,-287.72 429.5,-281.72 429.5,-281.72 429.5,-269.72 429.5,-269.72 429.5,-263.72 435.5,-257.72 441.5,-257.72 441.5,-257.72 530.5,-257.72 530.5,-257.72 536.5,-257.72 542.5,-263.72 542.5,-269.72 542.5,-269.72 542.5,-281.72 542.5,-281.72 542.5,-287.72 536.5,-293.72 530.5,-293.72"/>
<text text-anchor="middle" x="486" y="-272.62" font-family="sans" font-size="12.00" fill="#c4c7c7">Reflexive Closure</text>
</a>
</g>
</g>
<!-- Relation&#45;&gt;Reflexive Closure -->
<g id="edge11" class="edge">
<title>Relation&#45;&gt;Reflexive Closure</title>
<path fill="none" stroke="#ffffff" d="M285.24,-239.91C324.83,-238.73 381.55,-238.66 402,-246.72 406.4,-248.45 405.86,-251.45 410,-253.72 416.07,-257.05 422.69,-259.93 429.41,-262.4"/>
<polygon fill="#ffffff" stroke="#ffffff" points="284.95,-236.42 275.07,-240.25 285.18,-243.42 284.95,-236.42"/>
</g>
<!-- Symmetric Closure -->
<g id="node12" class="node">
<title>Symmetric Closure</title>
<g id="a_node12"><a xlink:href="../Symmetric Closure.html" xlink:title="Symmetric Closure" target="_parent">
<path fill="none" stroke="#b75867" d="M535.5,-256.72C535.5,-256.72 436.5,-256.72 436.5,-256.72 430.5,-256.72 424.5,-250.72 424.5,-244.72 424.5,-244.72 424.5,-232.72 424.5,-232.72 424.5,-226.72 430.5,-220.72 436.5,-220.72 436.5,-220.72 535.5,-220.72 535.5,-220.72 541.5,-220.72 547.5,-226.72 547.5,-232.72 547.5,-232.72 547.5,-244.72 547.5,-244.72 547.5,-250.72 541.5,-256.72 535.5,-256.72"/>
<text text-anchor="middle" x="486" y="-235.62" font-family="sans" font-size="12.00" fill="#c4c7c7">Symmetric Closure</text>
</a>
</g>
</g>
<!-- Relation&#45;&gt;Symmetric Closure -->
<g id="edge12" class="edge">
<title>Relation&#45;&gt;Symmetric Closure</title>
<path fill="none" stroke="#ffffff" d="M285.24,-241.21C323.39,-240.73 380.6,-240.02 424.02,-239.48"/>
<polygon fill="#ffffff" stroke="#ffffff" points="284.97,-237.71 275.01,-241.33 285.06,-244.71 284.97,-237.71"/>
</g>
<!-- Relation of Equivalence -->
<g id="node13" class="node">
<title>Relation of Equivalence</title>
<g id="a_node13"><a xlink:href="../Relation of Equivalence.html" xlink:title="Relation of Equivalence" target="_parent">
<path fill="none" stroke="#b75867" d="M548.5,-330.72C548.5,-330.72 423.5,-330.72 423.5,-330.72 417.5,-330.72 411.5,-324.72 411.5,-318.72 411.5,-318.72 411.5,-306.72 411.5,-306.72 411.5,-300.72 417.5,-294.72 423.5,-294.72 423.5,-294.72 548.5,-294.72 548.5,-294.72 554.5,-294.72 560.5,-300.72 560.5,-306.72 560.5,-306.72 560.5,-318.72 560.5,-318.72 560.5,-324.72 554.5,-330.72 548.5,-330.72"/>
<text text-anchor="middle" x="486" y="-309.62" font-family="sans" font-size="12.00" fill="#c4c7c7">Relation of Equivalence</text>
</a>
</g>
</g>
<!-- Relation&#45;&gt;Relation of Equivalence -->
<g id="edge13" class="edge">
<title>Relation&#45;&gt;Relation of Equivalence</title>
<path fill="none" stroke="#ffffff" d="M285.15,-241.22C329.02,-241.1 393.36,-242.22 402,-249.72 416.03,-261.88 397.49,-277 410,-290.72 411.28,-292.12 412.64,-293.44 414.08,-294.67"/>
<polygon fill="#ffffff" stroke="#ffffff" points="285.02,-237.72 275.04,-241.28 285.06,-244.72 285.02,-237.72"/>
</g>
<!-- Chain -->
<g id="node14" class="node">
<title>Chain</title>
<g id="a_node14"><a xlink:href="../Chain.html" xlink:title="Chain" target="_parent">
<path fill="none" stroke="#b75867" d="M501,-96.72C501,-96.72 471,-96.72 471,-96.72 465,-96.72 459,-90.72 459,-84.72 459,-84.72 459,-72.72 459,-72.72 459,-66.72 465,-60.72 471,-60.72 471,-60.72 501,-60.72 501,-60.72 507,-60.72 513,-66.72 513,-72.72 513,-72.72 513,-84.72 513,-84.72 513,-90.72 507,-96.72 501,-96.72"/>
<text text-anchor="middle" x="486" y="-75.62" font-family="sans" font-size="12.00" fill="#c4c7c7">Chain</text>
</a>
</g>
</g>
<!-- Relation&#45;&gt;Chain -->
<g id="edge14" class="edge">
<title>Relation&#45;&gt;Chain</title>
<path fill="none" stroke="#ffffff" d="M266.99,-215.94C296.83,-184.08 351.99,-130.46 410,-100.72 425.34,-92.86 443.91,-87.38 458.74,-83.86"/>
<polygon fill="#ffffff" stroke="#ffffff" points="264.18,-213.82 259.96,-223.54 269.32,-218.58 264.18,-213.82"/>
</g>
<!-- Partial function -->
<g id="node15" class="node">
<title>Partial function</title>
<g id="a_node15"><a xlink:href="../Partial function.html" xlink:title="Partial function" target="_parent">
<path fill="none" stroke="#b75867" d="M382,-362.72C382,-362.72 303,-362.72 303,-362.72 297,-362.72 291,-356.72 291,-350.72 291,-350.72 291,-338.72 291,-338.72 291,-332.72 297,-326.72 303,-326.72 303,-326.72 382,-326.72 382,-326.72 388,-326.72 394,-332.72 394,-338.72 394,-338.72 394,-350.72 394,-350.72 394,-356.72 388,-362.72 382,-362.72"/>
<text text-anchor="middle" x="342.5" y="-341.62" font-family="sans" font-size="12.00" fill="#c4c7c7">Partial function</text>
</a>
</g>
</g>
<!-- Relation&#45;&gt;Partial function -->
<g id="edge15" class="edge">
<title>Relation&#45;&gt;Partial function</title>
<path fill="none" stroke="#ffffff" d="M251.54,-269.53C257.52,-286.88 267.5,-308.54 283,-322.72 285.4,-324.92 288.04,-326.9 290.84,-328.69"/>
<polygon fill="#ffffff" stroke="#ffffff" points="254.84,-268.36 248.47,-259.9 248.17,-270.49 254.84,-268.36"/>
</g>
<!-- Total function -->
<g id="node16" class="node">
<title>Total function</title>
<g id="a_node16"><a xlink:href="../Total function.html" xlink:title="Total function" target="_parent">
<path fill="none" stroke="#b75867" d="M378,-319.72C378,-319.72 307,-319.72 307,-319.72 301,-319.72 295,-313.72 295,-307.72 295,-307.72 295,-295.72 295,-295.72 295,-289.72 301,-283.72 307,-283.72 307,-283.72 378,-283.72 378,-283.72 384,-283.72 390,-289.72 390,-295.72 390,-295.72 390,-307.72 390,-307.72 390,-313.72 384,-319.72 378,-319.72"/>
<text text-anchor="middle" x="342.5" y="-298.62" font-family="sans" font-size="12.00" fill="#c4c7c7">Total function</text>
</a>
</g>
</g>
<!-- Relation&#45;&gt;Total function -->
<g id="edge18" class="edge">
<title>Relation&#45;&gt;Total function</title>
<path fill="none" stroke="#ffffff" d="M267.09,-267.22C272.04,-271.78 277.45,-276.19 283,-279.72 286.75,-282.11 290.81,-284.29 294.97,-286.28"/>
<polygon fill="#ffffff" stroke="#ffffff" points="269.36,-264.53 259.77,-260.04 264.46,-269.53 269.36,-264.53"/>
</g>
<!-- Partial order -->
<g id="node17" class="node">
<title>Partial order</title>
<g id="a_node17"><a xlink:href="../Partial order.html" xlink:title="Partial order" target="_parent">
<path fill="none" stroke="#b75867" d="M661.5,-59.72C661.5,-59.72 599.5,-59.72 599.5,-59.72 593.5,-59.72 587.5,-53.72 587.5,-47.72 587.5,-47.72 587.5,-35.72 587.5,-35.72 587.5,-29.72 593.5,-23.72 599.5,-23.72 599.5,-23.72 661.5,-23.72 661.5,-23.72 667.5,-23.72 673.5,-29.72 673.5,-35.72 673.5,-35.72 673.5,-47.72 673.5,-47.72 673.5,-53.72 667.5,-59.72 661.5,-59.72"/>
<text text-anchor="middle" x="630.5" y="-38.62" font-family="sans" font-size="12.00" fill="#c4c7c7">Partial order</text>
</a>
</g>
</g>
<!-- Relation&#45;&gt;Partial order -->
<g id="edge19" class="edge">
<title>Relation&#45;&gt;Partial order</title>
<path fill="none" stroke="#ffffff" d="M245.98,-213.43C249.89,-165.92 260.3,-73.09 283,-50.72 364.01,29.11 514.27,-4.03 587.37,-26.84"/>
<polygon fill="#ffffff" stroke="#ffffff" points="242.47,-213.41 245.18,-223.65 249.45,-213.95 242.47,-213.41"/>
</g>
<!-- Relations&#45;&gt;Strongly Anti&#45;symmetric Relation -->
<g id="edge33" class="edge">
<title>Relations&#45;&gt;Strongly Anti&#45;symmetric Relation</title>
<path fill="none" stroke="#b75867" d="M307.74,-219.26C282.9,-219.41 247.61,-219.48 213.29,-219.47"/>
<polygon fill="#b75867" stroke="#b75867" points="213.17,-215.97 203.16,-219.46 213.16,-222.97 213.17,-215.97"/>
</g>
<!-- Relations&#45;&gt;Relation -->
<g id="edge38" class="edge">
<title>Relations&#45;&gt;Relation</title>
<path fill="none" stroke="#b75867" d="M307.98,-227.34C300.57,-229.12 292.64,-231 284.98,-232.79"/>
<polygon fill="#b75867" stroke="#b75867" points="284.07,-229.41 275.12,-235.08 285.65,-236.23 284.07,-229.41"/>
</g>
<!-- Relations&#45;&gt;Linear order -->
<g id="edge22" class="edge">
<title>Relations&#45;&gt;Linear order</title>
<path fill="none" stroke="#b75867" d="M352.02,-200.38C363.77,-174.87 385.37,-127.16 402,-85.72 405.87,-76.06 402.41,-70.84 410,-63.72 416.54,-57.58 424.71,-53.14 433.22,-49.94"/>
<polygon fill="#b75867" stroke="#b75867" points="434.47,-53.22 442.91,-46.83 432.32,-46.55 434.47,-53.22"/>
</g>
<!-- Relations&#45;&gt;Anti&#45;symmetric Relation -->
<g id="edge34" class="edge">
<title>Relations&#45;&gt;Anti&#45;symmetric Relation</title>
<path fill="none" stroke="#b75867" d="M377.08,-227.59C386.68,-231.8 396.13,-237.91 402,-246.72 419.56,-273.06 393.61,-358.85 408.49,-396.7"/>
<polygon fill="#b75867" stroke="#b75867" points="405.56,-398.63 413.52,-405.63 411.66,-395.2 405.56,-398.63"/>
</g>
<!-- Relations&#45;&gt;Symmetric Relation -->
<g id="edge35" class="edge">
<title>Relations&#45;&gt;Symmetric Relation</title>
<path fill="none" stroke="#b75867" d="M377.3,-227.78C386.79,-231.99 396.12,-238.05 402,-246.72 416.75,-268.47 393.54,-344.23 410,-364.72 411.14,-366.14 412.36,-367.47 413.66,-368.72"/>
<polygon fill="#b75867" stroke="#b75867" points="411.77,-371.68 421.83,-374.99 416.04,-366.12 411.77,-371.68"/>
</g>
<!-- Relations&#45;&gt;Transitive Relation -->
<g id="edge32" class="edge">
<title>Relations&#45;&gt;Transitive Relation</title>
<path fill="none" stroke="#b75867" d="M377.29,-217.9C418.29,-217.24 489.77,-217.22 559.65,-223.63"/>
<polygon fill="#b75867" stroke="#b75867" points="559.65,-227.15 569.94,-224.62 560.32,-220.18 559.65,-227.15"/>
</g>
<!-- Relations&#45;&gt;Reflexive Relation -->
<g id="edge37" class="edge">
<title>Relations&#45;&gt;Reflexive Relation</title>
<path fill="none" stroke="#b75867" d="M377.29,-218.94C418.38,-218.89 490.08,-217.77 561.67,-210.58"/>
<polygon fill="#b75867" stroke="#b75867" points="562.18,-214.05 571.77,-209.53 561.46,-207.09 562.18,-214.05"/>
</g>
<!-- Relations&#45;&gt;Anti&#45;reflexive relation -->
<g id="edge36" class="edge">
<title>Relations&#45;&gt;Anti&#45;reflexive relation</title>
<path fill="none" stroke="#b75867" d="M377.14,-227.89C386.63,-232.11 395.99,-238.15 402,-246.72 411.13,-259.74 401.47,-301.68 411.57,-325.67"/>
<polygon fill="#b75867" stroke="#b75867" points="408.75,-327.76 416.97,-334.44 414.71,-324.09 408.75,-327.76"/>
</g>
<!-- Relations&#45;&gt;Reflexive Closure -->
<g id="edge28" class="edge">
<title>Relations&#45;&gt;Reflexive Closure</title>
<path fill="none" stroke="#b75867" d="M377.1,-227.09C385.84,-230.35 394.8,-234.78 402,-240.72 407.23,-245.04 404.61,-249.6 410,-253.72 413.18,-256.15 416.63,-258.32 420.24,-260.24"/>
<polygon fill="#b75867" stroke="#b75867" points="418.94,-263.5 429.48,-264.55 421.9,-257.15 418.94,-263.5"/>
</g>
<!-- Relations&#45;&gt;Reflexive Closure -->
<g id="edge31" class="edge">
<title>Relations&#45;&gt;Reflexive Closure</title>
<path fill="none" stroke="#b75867" d="M377.1,-228.05C385.84,-231.35 394.8,-235.78 402,-241.72 407.23,-246.04 404.61,-250.6 410,-254.72 413.18,-257.15 416.63,-259.32 420.24,-261.24"/>
<polygon fill="#b75867" stroke="#b75867" points="418.94,-264.49 429.48,-265.54 421.89,-258.15 418.94,-264.49"/>
</g>
<!-- Relations&#45;&gt;Symmetric Closure -->
<g id="edge27" class="edge">
<title>Relations&#45;&gt;Symmetric Closure</title>
<path fill="none" stroke="#b75867" d="M377.03,-223.46C388.3,-225.05 401.33,-226.89 414.35,-228.73"/>
<polygon fill="#b75867" stroke="#b75867" points="413.89,-232.2 424.28,-230.14 414.87,-225.27 413.89,-232.2"/>
</g>
<!-- Relations&#45;&gt;Symmetric Closure -->
<g id="edge29" class="edge">
<title>Relations&#45;&gt;Symmetric Closure</title>
<path fill="none" stroke="#b75867" d="M377.03,-224.11C388.3,-225.77 401.33,-227.64 414.35,-229.48"/>
<polygon fill="#b75867" stroke="#b75867" points="413.89,-232.95 424.28,-230.88 414.86,-226.02 413.89,-232.95"/>
</g>
<!-- Relations&#45;&gt;Relation of Equivalence -->
<g id="edge25" class="edge">
<title>Relations&#45;&gt;Relation of Equivalence</title>
<path fill="none" stroke="#b75867" d="M377.02,-226.53C386.38,-230.27 395.71,-235.74 402,-243.72 413.17,-257.89 400.91,-270.53 408.2,-286.21"/>
<polygon fill="#b75867" stroke="#b75867" points="405.49,-288.45 414.03,-294.72 411.27,-284.49 405.49,-288.45"/>
</g>
<!-- Relations&#45;&gt;Chain -->
<g id="edge20" class="edge">
<title>Relations&#45;&gt;Chain</title>
<path fill="none" stroke="#b75867" d="M369.35,-200.6C381.28,-190.8 394.46,-177.65 402,-162.72 414.53,-137.92 391.95,-121.85 410,-100.72 419.64,-89.43 434.75,-83.77 448.88,-80.99"/>
<polygon fill="#b75867" stroke="#b75867" points="449.57,-84.43 458.91,-79.44 448.49,-77.51 449.57,-84.43"/>
</g>
<!-- Relations&#45;&gt;Partial order -->
<g id="edge23" class="edge">
<title>Relations&#45;&gt;Partial order</title>
<path fill="none" stroke="#b75867" d="M365.3,-200.47C378.08,-188.52 393.36,-171.8 402,-153.72 411.7,-133.41 393.36,-118.88 410,-103.72 435.02,-80.92 534.93,-114.04 562,-93.72 570.32,-87.47 563.09,-79.5 570,-71.72 572.65,-68.74 575.66,-66.02 578.89,-63.54"/>
<polygon fill="#b75867" stroke="#b75867" points="580.96,-66.37 587.29,-57.87 577.04,-60.57 580.96,-66.37"/>
</g>
<!-- Linear extension -->
<g id="node18" class="node">
<title>Linear extension</title>
<g id="a_node18"><a xlink:href="../Linear extension.html" xlink:title="Linear extension" target="_parent">
<path fill="#273434" stroke="#b75867" d="M673.5,-108.72C673.5,-108.72 587.5,-108.72 587.5,-108.72 581.5,-108.72 575.5,-102.72 575.5,-96.72 575.5,-96.72 575.5,-84.72 575.5,-84.72 575.5,-78.72 581.5,-72.72 587.5,-72.72 587.5,-72.72 673.5,-72.72 673.5,-72.72 679.5,-72.72 685.5,-78.72 685.5,-84.72 685.5,-84.72 685.5,-96.72 685.5,-96.72 685.5,-102.72 679.5,-108.72 673.5,-108.72"/>
<text text-anchor="middle" x="630.5" y="-87.62" font-family="sans" font-size="12.00" fill="#c4c7c7">Linear extension</text>
</a>
</g>
</g>
<!-- Relations&#45;&gt;Linear extension -->
<g id="edge21" class="edge">
<title>Relations&#45;&gt;Linear extension</title>
<path fill="none" stroke="#b75867" d="M369.26,-200.56C381.18,-190.75 394.35,-177.6 402,-162.72 413.49,-140.36 391.56,-123.81 410,-106.72 422.42,-95.22 545.12,-98.03 562,-96.72 563.09,-96.64 564.18,-96.55 565.28,-96.46"/>
<polygon fill="#b75867" stroke="#b75867" points="565.67,-99.94 575.35,-95.64 565.1,-92.97 565.67,-99.94"/>
</g>
<!-- Class of equivalence -->
<g id="node19" class="node">
<title>Class of equivalence</title>
<g id="a_node19"><a xlink:href="../Class of equivalence.html" xlink:title="Class of equivalence" target="_parent">
<path fill="#273434" stroke="#b75867" d="M539.5,-213.72C539.5,-213.72 432.5,-213.72 432.5,-213.72 426.5,-213.72 420.5,-207.72 420.5,-201.72 420.5,-201.72 420.5,-189.72 420.5,-189.72 420.5,-183.72 426.5,-177.72 432.5,-177.72 432.5,-177.72 539.5,-177.72 539.5,-177.72 545.5,-177.72 551.5,-183.72 551.5,-189.72 551.5,-189.72 551.5,-201.72 551.5,-201.72 551.5,-207.72 545.5,-213.72 539.5,-213.72"/>
<text text-anchor="middle" x="486" y="-192.62" font-family="sans" font-size="12.00" fill="#c4c7c7">Class of equivalence</text>
</a>
</g>
</g>
<!-- Relations&#45;&gt;Class of equivalence -->
<g id="edge24" class="edge">
<title>Relations&#45;&gt;Class of equivalence</title>
<path fill="none" stroke="#b75867" d="M377.03,-213.27C387.08,-211.64 398.53,-209.77 410.13,-207.89"/>
<polygon fill="#b75867" stroke="#b75867" points="411.02,-211.29 420.33,-206.23 409.9,-204.38 411.02,-211.29"/>
</g>
<!-- Transitive Closure -->
<g id="node20" class="node">
<title>Transitive Closure</title>
<g id="a_node20"><a xlink:href="../Transitive Closure.html" xlink:title="Transitive Closure" target="_parent">
<path fill="#273434" stroke="#b75867" d="M532,-176.72C532,-176.72 440,-176.72 440,-176.72 434,-176.72 428,-170.72 428,-164.72 428,-164.72 428,-152.72 428,-152.72 428,-146.72 434,-140.72 440,-140.72 440,-140.72 532,-140.72 532,-140.72 538,-140.72 544,-146.72 544,-152.72 544,-152.72 544,-164.72 544,-164.72 544,-170.72 538,-176.72 532,-176.72"/>
<text text-anchor="middle" x="486" y="-155.62" font-family="sans" font-size="12.00" fill="#c4c7c7">Transitive Closure</text>
</a>
</g>
</g>
<!-- Relations&#45;&gt;Transitive Closure -->
<g id="edge26" class="edge">
<title>Relations&#45;&gt;Transitive Closure</title>
<path fill="none" stroke="#b75867" d="M371.88,-200.55C383.4,-193.7 397.03,-186.24 410,-180.72 412.78,-179.54 415.65,-178.39 418.56,-177.29"/>
<polygon fill="#b75867" stroke="#b75867" points="419.76,-180.58 427.99,-173.91 417.4,-173.99 419.76,-180.58"/>
</g>
<!-- Relations&#45;&gt;Transitive Closure -->
<g id="edge30" class="edge">
<title>Relations&#45;&gt;Transitive Closure</title>
<path fill="none" stroke="#b75867" d="M373.19,-200.71C384.43,-194.14 397.52,-187.03 410,-181.72 412.78,-180.54 415.65,-179.39 418.56,-178.29"/>
<polygon fill="#b75867" stroke="#b75867" points="419.76,-181.58 427.99,-174.91 417.4,-174.99 419.76,-181.58"/>
</g>
<!-- Discrete Structures -->
<g id="node21" class="node">
<title>Discrete Structures</title>
<g id="a_node21"><a xlink:href="../Discrete Structures.html" xlink:title="Discrete Structures" target="_parent">
<path fill="none" stroke="#b75867" d="M535,-139.72C535,-139.72 437,-139.72 437,-139.72 431,-139.72 425,-133.72 425,-127.72 425,-127.72 425,-115.72 425,-115.72 425,-109.72 431,-103.72 437,-103.72 437,-103.72 535,-103.72 535,-103.72 541,-103.72 547,-109.72 547,-115.72 547,-115.72 547,-127.72 547,-127.72 547,-133.72 541,-139.72 535,-139.72"/>
<text text-anchor="middle" x="486" y="-118.62" font-family="sans" font-size="12.00" fill="#c4c7c7">Discrete Structures</text>
</a>
</g>
</g>
<!-- Relations&#45;&gt;Discrete Structures -->
<g id="edge39" class="edge">
<title>Relations&#45;&gt;Discrete Structures</title>
<path fill="none" stroke="#ffffff" d="M374.2,-193.76C383.98,-184.73 394.26,-173.96 402,-162.72 407.2,-155.17 403.17,-149.82 410,-143.72 414.35,-139.83 419.36,-136.63 424.68,-134"/>
<polygon fill="#ffffff" stroke="#ffffff" points="371.65,-191.35 366.52,-200.61 376.31,-196.57 371.65,-191.35"/>
</g>
<!-- Linear order&#45;&gt;Strongly Anti&#45;symmetric Relation -->
<g id="edge42" class="edge">
<title>Linear order&#45;&gt;Strongly Anti&#45;symmetric Relation</title>
<path fill="none" stroke="#b75867" d="M442.94,-36.16C400.75,-31.92 334.8,-30 283,-51.72 211.43,-81.73 150.71,-153.49 121.36,-192.46"/>
<polygon fill="#b75867" stroke="#b75867" points="118.39,-190.59 115.25,-200.71 124.01,-194.76 118.39,-190.59"/>
</g>
<!-- Linear order&#45;&gt;Relation -->
<g id="edge44" class="edge">
<title>Linear order&#45;&gt;Relation</title>
<path fill="none" stroke="#b75867" d="M442.91,-44.55C397.21,-49.39 325.13,-63.64 283,-107.72 255.53,-136.46 247.23,-183.33 244.82,-213.33"/>
<polygon fill="#b75867" stroke="#b75867" points="241.32,-213.36 244.18,-223.56 248.3,-213.8 241.32,-213.36"/>
</g>
<!-- Linear order&#45;&gt;Relations -->
<g id="edge46" class="edge">
<title>Linear order&#45;&gt;Relations</title>
<path fill="none" stroke="#ffffff" d="M433.22,-50.93C424.71,-54.14 416.54,-58.58 410,-64.72 402.41,-71.84 405.87,-77.06 402,-86.72 385.47,-127.92 364.02,-175.34 352.22,-200.62"/>
<polygon fill="#ffffff" stroke="#ffffff" points="434.48,-54.2 442.91,-47.78 432.32,-47.54 434.48,-54.2"/>
</g>
<!-- Linear order&#45;&gt;Transitive Relation -->
<g id="edge41" class="edge">
<title>Linear order&#45;&gt;Transitive Relation</title>
<path fill="none" stroke="#b75867" d="M529.19,-44.88C541.61,-47.97 554,-53.61 562,-63.72 581.01,-87.75 555.18,-171.42 568.77,-208.85"/>
<polygon fill="#b75867" stroke="#b75867" points="565.68,-210.48 573.42,-217.71 571.87,-207.23 565.68,-210.48"/>
</g>
<!-- Linear order&#45;&gt;Reflexive Relation -->
<g id="edge43" class="edge">
<title>Linear order&#45;&gt;Reflexive Relation</title>
<path fill="none" stroke="#b75867" d="M529.25,-45.69C541.38,-48.85 553.58,-54.32 562,-63.72 575.56,-78.85 562.46,-89.86 570,-108.72 579.23,-131.83 594.9,-155.19 607.85,-172.32"/>
<polygon fill="#b75867" stroke="#b75867" points="605.43,-174.91 614.32,-180.67 610.96,-170.62 605.43,-174.91"/>
</g>
<!-- Linear order&#45;&gt;Partial order -->
<g id="edge40" class="edge">
<title>Linear order&#45;&gt;Partial order</title>
<path fill="none" stroke="#b75867" d="M529.37,-41.72C544.31,-41.72 561.29,-41.72 576.97,-41.72"/>
<polygon fill="#b75867" stroke="#b75867" points="577.05,-45.22 587.05,-41.72 577.05,-38.22 577.05,-45.22"/>
</g>
<!-- Linear order&#45;&gt;Linear extension -->
<g id="edge45" class="edge">
<title>Linear order&#45;&gt;Linear extension</title>
<path fill="none" stroke="#ffffff" d="M538.99,-56.27C546.74,-58.64 554.61,-61.16 562,-63.72 569.87,-66.44 578.17,-69.56 586.16,-72.68"/>
<polygon fill="#ffffff" stroke="#ffffff" points="539.85,-52.88 529.27,-53.35 537.84,-59.58 539.85,-52.88"/>
</g>
</g>
</svg>
