<?xml version="1.0" encoding="UTF-8" standalone="no"?>
<!DOCTYPE svg PUBLIC "-//W3C//DTD SVG 1.1//EN"
 "http://www.w3.org/Graphics/SVG/1.1/DTD/svg11.dtd">
<!-- Generated by graphviz version 2.44.0 (0)
 -->
<!-- Title: Subjects Pages: 1 -->
<svg width="3291pt" height="332pt"
 viewBox="0.00 0.00 3291.45 332.00" xmlns="http://www.w3.org/2000/svg" xmlns:xlink="http://www.w3.org/1999/xlink">
<g id="page0,1_graph0" class="graph" transform="scale(1 1) rotate(0) translate(4 328)">
<title>Subjects</title>
<polygon fill="#132020" stroke="transparent" points="-4,4 -4,-328 3287.45,-328 3287.45,4 -4,4"/>
<!-- Subjects -->
<g id="node1" class="node">
<title>Subjects</title>
<g id="a_node1"><a xlink:href="../Subjects.html" xlink:title="Subjects" target="_parent">
<path fill="#273434" stroke="#b75867" d="M1975.75,-324C1975.75,-324 1934.75,-324 1934.75,-324 1928.75,-324 1922.75,-318 1922.75,-312 1922.75,-312 1922.75,-300 1922.75,-300 1922.75,-294 1928.75,-288 1934.75,-288 1934.75,-288 1975.75,-288 1975.75,-288 1981.75,-288 1987.75,-294 1987.75,-300 1987.75,-300 1987.75,-312 1987.75,-312 1987.75,-318 1981.75,-324 1975.75,-324"/>
<text text-anchor="middle" x="1955.25" y="-302.9" font-family="sans" font-size="12.00" fill="#c4c7c7">Subjects</text>
</a>
</g>
</g>
<!-- Numeric Methods -->
<g id="node2" class="node">
<title>Numeric Methods</title>
<g id="a_node2"><a xlink:href="../Numeric Methods.html" xlink:title="Numeric Methods" target="_parent">
<path fill="#273434" stroke="#b75867" d="M1232.25,-252C1232.25,-252 1140.25,-252 1140.25,-252 1134.25,-252 1128.25,-246 1128.25,-240 1128.25,-240 1128.25,-228 1128.25,-228 1128.25,-222 1134.25,-216 1140.25,-216 1140.25,-216 1232.25,-216 1232.25,-216 1238.25,-216 1244.25,-222 1244.25,-228 1244.25,-228 1244.25,-240 1244.25,-240 1244.25,-246 1238.25,-252 1232.25,-252"/>
<text text-anchor="middle" x="1186.25" y="-230.9" font-family="sans" font-size="12.00" fill="#c4c7c7">Numeric Methods</text>
</a>
</g>
</g>
<!-- Subjects&#45;&gt;Numeric Methods -->
<g id="edge1" class="edge">
<title>Subjects&#45;&gt;Numeric Methods</title>
<path fill="none" stroke="#b75867" d="M1922.56,-303.1C1826.95,-297.36 1539.58,-278.99 1302.25,-252 1286.74,-250.24 1270.11,-248 1254.42,-245.74"/>
<polygon fill="#b75867" stroke="#b75867" points="1254.68,-242.24 1244.27,-244.25 1253.66,-249.17 1254.68,-242.24"/>
</g>
<!-- Discrete Structures -->
<g id="node5" class="node">
<title>Discrete Structures</title>
<g id="a_node5"><a xlink:href="../Discrete Structures.html" xlink:title="Discrete Structures" target="_parent">
<path fill="#273434" stroke="#b75867" d="M1844.25,-252C1844.25,-252 1746.25,-252 1746.25,-252 1740.25,-252 1734.25,-246 1734.25,-240 1734.25,-240 1734.25,-228 1734.25,-228 1734.25,-222 1740.25,-216 1746.25,-216 1746.25,-216 1844.25,-216 1844.25,-216 1850.25,-216 1856.25,-222 1856.25,-228 1856.25,-228 1856.25,-240 1856.25,-240 1856.25,-246 1850.25,-252 1844.25,-252"/>
<text text-anchor="middle" x="1795.25" y="-230.9" font-family="sans" font-size="12.00" fill="#c4c7c7">Discrete Structures</text>
</a>
</g>
</g>
<!-- Subjects&#45;&gt;Discrete Structures -->
<g id="edge2" class="edge">
<title>Subjects&#45;&gt;Discrete Structures</title>
<path fill="none" stroke="#b75867" d="M1922.49,-290.67C1899.79,-280.73 1869.18,-267.35 1843.68,-256.19"/>
<polygon fill="#b75867" stroke="#b75867" points="1844.74,-252.83 1834.18,-252.03 1841.94,-259.25 1844.74,-252.83"/>
</g>
<!-- Differential Analysis -->
<g id="node12" class="node">
<title>Differential Analysis</title>
<g id="a_node12"><a xlink:href="../Differential Analysis.html" xlink:title="Differential Analysis" target="_parent">
<path fill="#273434" stroke="#b75867" d="M1426.75,-252C1426.75,-252 1323.75,-252 1323.75,-252 1317.75,-252 1311.75,-246 1311.75,-240 1311.75,-240 1311.75,-228 1311.75,-228 1311.75,-222 1317.75,-216 1323.75,-216 1323.75,-216 1426.75,-216 1426.75,-216 1432.75,-216 1438.75,-222 1438.75,-228 1438.75,-228 1438.75,-240 1438.75,-240 1438.75,-246 1432.75,-252 1426.75,-252"/>
<text text-anchor="middle" x="1375.25" y="-230.9" font-family="sans" font-size="12.00" fill="#c4c7c7">Differential Analysis</text>
</a>
</g>
</g>
<!-- Subjects&#45;&gt;Differential Analysis -->
<g id="edge3" class="edge">
<title>Subjects&#45;&gt;Differential Analysis</title>
<path fill="none" stroke="#b75867" d="M1922.4,-301.04C1831.76,-290.1 1576.41,-259.28 1449.19,-243.92"/>
<polygon fill="#b75867" stroke="#b75867" points="1449.49,-240.44 1439.15,-242.71 1448.65,-247.38 1449.49,-240.44"/>
</g>
<!-- Linear Algebra -->
<g id="node14" class="node">
<title>Linear Algebra</title>
<g id="a_node14"><a xlink:href="../Linear Algebra.html" xlink:title="Linear Algebra" target="_parent">
<path fill="#273434" stroke="#b75867" d="M2178.25,-252C2178.25,-252 2104.25,-252 2104.25,-252 2098.25,-252 2092.25,-246 2092.25,-240 2092.25,-240 2092.25,-228 2092.25,-228 2092.25,-222 2098.25,-216 2104.25,-216 2104.25,-216 2178.25,-216 2178.25,-216 2184.25,-216 2190.25,-222 2190.25,-228 2190.25,-228 2190.25,-240 2190.25,-240 2190.25,-246 2184.25,-252 2178.25,-252"/>
<text text-anchor="middle" x="2141.25" y="-230.9" font-family="sans" font-size="12.00" fill="#c4c7c7">Linear Algebra</text>
</a>
</g>
</g>
<!-- Subjects&#45;&gt;Linear Algebra -->
<g id="edge4" class="edge">
<title>Subjects&#45;&gt;Linear Algebra</title>
<path fill="none" stroke="#b75867" d="M1988.07,-292.65C2015.2,-282.44 2054.29,-267.73 2086.2,-255.72"/>
<polygon fill="#b75867" stroke="#b75867" points="2087.72,-258.89 2095.85,-252.09 2085.25,-252.33 2087.72,-258.89"/>
</g>
<!-- index -->
<g id="node21" class="node">
<title>index</title>
<g id="a_node21"><a xlink:href="../index.html" xlink:title="index" target="_parent">
<ellipse fill="#273434" stroke="#b75867" cx="2237.25" cy="-234" rx="28.87" ry="18"/>
<text text-anchor="middle" x="2237.25" y="-230.9" font-family="sans" font-size="12.00" fill="#c4c7c7">index</text>
</a>
</g>
</g>
<!-- Subjects&#45;&gt;index -->
<g id="edge20" class="edge">
<title>Subjects&#45;&gt;index</title>
<path fill="none" stroke="#ffffff" d="M1997.77,-298.51C2047.02,-290.37 2130.23,-274.66 2199.25,-252 2204.47,-250.29 2209.94,-248.09 2215.05,-245.85"/>
<polygon fill="#ffffff" stroke="#ffffff" points="1997.1,-295.07 1987.79,-300.13 1998.22,-301.98 1997.1,-295.07"/>
</g>
<!-- README -->
<g id="node22" class="node">
<title>README</title>
<g id="a_node22"><a xlink:href="../README.html" xlink:title="README" target="_parent">
<ellipse fill="#273434" stroke="#b75867" cx="2323.25" cy="-234" rx="38.57" ry="18"/>
<text text-anchor="middle" x="2323.25" y="-230.9" font-family="sans" font-size="12.00" fill="#c4c7c7">README</text>
</a>
</g>
</g>
<!-- Subjects&#45;&gt;README -->
<g id="edge21" class="edge">
<title>Subjects&#45;&gt;README</title>
<path fill="none" stroke="#ffffff" d="M1998.05,-300.34C2059.9,-293.07 2177.57,-277.18 2275.25,-252 2281.5,-250.39 2288.09,-248.31 2294.31,-246.17"/>
<polygon fill="#ffffff" stroke="#ffffff" points="1997.42,-296.89 1987.89,-301.52 1998.23,-303.85 1997.42,-296.89"/>
</g>
<!-- Lagrange Interpolation -->
<g id="node3" class="node">
<title>Lagrange Interpolation</title>
<g id="a_node3"><a xlink:href="../Lagrange Interpolation.html" xlink:title="Lagrange Interpolation" target="_parent">
<path fill="#273434" stroke="#b75867" d="M307.75,-180C307.75,-180 184.75,-180 184.75,-180 178.75,-180 172.75,-174 172.75,-168 172.75,-168 172.75,-156 172.75,-156 172.75,-150 178.75,-144 184.75,-144 184.75,-144 307.75,-144 307.75,-144 313.75,-144 319.75,-150 319.75,-156 319.75,-156 319.75,-168 319.75,-168 319.75,-174 313.75,-180 307.75,-180"/>
<text text-anchor="middle" x="246.25" y="-158.9" font-family="sans" font-size="12.00" fill="#c4c7c7">Lagrange Interpolation</text>
</a>
</g>
</g>
<!-- Numeric Methods&#45;&gt;Lagrange Interpolation -->
<g id="edge5" class="edge">
<title>Numeric Methods&#45;&gt;Lagrange Interpolation</title>
<path fill="none" stroke="#b75867" d="M1128.16,-228.67C967.7,-216.72 517.87,-183.23 330.17,-169.25"/>
<polygon fill="#b75867" stroke="#b75867" points="330.31,-165.75 320.08,-168.5 329.79,-172.73 330.31,-165.75"/>
</g>
<!-- Function Approximation -->
<g id="node4" class="node">
<title>Function Approximation</title>
<g id="a_node4"><a xlink:href="../Function Approximation.html" xlink:title="Function Approximation" target="_parent">
<path fill="#273434" stroke="#b75867" d="M1200.75,-180C1200.75,-180 1071.75,-180 1071.75,-180 1065.75,-180 1059.75,-174 1059.75,-168 1059.75,-168 1059.75,-156 1059.75,-156 1059.75,-150 1065.75,-144 1071.75,-144 1071.75,-144 1200.75,-144 1200.75,-144 1206.75,-144 1212.75,-150 1212.75,-156 1212.75,-156 1212.75,-168 1212.75,-168 1212.75,-174 1206.75,-180 1200.75,-180"/>
<text text-anchor="middle" x="1136.25" y="-158.9" font-family="sans" font-size="12.00" fill="#c4c7c7">Function Approximation</text>
</a>
</g>
</g>
<!-- Numeric Methods&#45;&gt;Function Approximation -->
<g id="edge6" class="edge">
<title>Numeric Methods&#45;&gt;Function Approximation</title>
<path fill="none" stroke="#b75867" d="M1173.89,-215.7C1168.02,-207.47 1160.88,-197.48 1154.41,-188.42"/>
<polygon fill="#b75867" stroke="#b75867" points="1157.13,-186.21 1148.47,-180.1 1151.43,-190.28 1157.13,-186.21"/>
</g>
<!-- Knowledege Base -->
<g id="node23" class="node">
<title>Knowledege Base</title>
<g id="a_node23"><a xlink:href="../Knowledege Base.html" xlink:title="Knowledege Base" target="_parent">
<ellipse fill="#273434" stroke="#b75867" cx="1375.25" cy="-162" rx="72.05" ry="18"/>
<text text-anchor="middle" x="1375.25" y="-158.9" font-family="sans" font-size="12.00" fill="#c4c7c7">Knowledege Base</text>
</a>
</g>
</g>
<!-- Numeric Methods&#45;&gt;Knowledege Base -->
<g id="edge22" class="edge">
<title>Numeric Methods&#45;&gt;Knowledege Base</title>
<path fill="none" stroke="#ffffff" d="M1242.13,-212.3C1272.62,-201.01 1309.58,-187.32 1336.81,-177.24"/>
<polygon fill="#ffffff" stroke="#ffffff" points="1240.65,-209.12 1232.48,-215.88 1243.08,-215.68 1240.65,-209.12"/>
</g>
<!-- Extrapolation -->
<g id="node24" class="node">
<title>Extrapolation</title>
<g id="a_node24"><a xlink:href="../Extrapolation.html" xlink:title="Extrapolation" target="_parent">
<ellipse fill="#273434" stroke="#b75867" cx="57.25" cy="-90" rx="57.5" ry="18"/>
<text text-anchor="middle" x="57.25" y="-86.9" font-family="sans" font-size="12.00" fill="#c4c7c7">Extrapolation</text>
</a>
</g>
</g>
<!-- Lagrange Interpolation&#45;&gt;Extrapolation -->
<g id="edge23" class="edge">
<title>Lagrange Interpolation&#45;&gt;Extrapolation</title>
<path fill="none" stroke="#ffffff" d="M190.47,-140.34C158.93,-128.66 120.43,-114.4 92.94,-104.22"/>
<polygon fill="#ffffff" stroke="#ffffff" points="189.42,-143.68 200.01,-143.88 191.85,-137.12 189.42,-143.68"/>
</g>
<!-- Evaluating Interpolation Error -->
<g id="node25" class="node">
<title>Evaluating Interpolation Error</title>
<g id="a_node25"><a xlink:href="../Evaluating Interpolation Error.html" xlink:title="Evaluating Interpolation Error" target="_parent">
<ellipse fill="#273434" stroke="#b75867" cx="246.25" cy="-90" rx="113.77" ry="18"/>
<text text-anchor="middle" x="246.25" y="-86.9" font-family="sans" font-size="12.00" fill="#c4c7c7">Evaluating Interpolation Error</text>
</a>
</g>
</g>
<!-- Lagrange Interpolation&#45;&gt;Evaluating Interpolation Error -->
<g id="edge24" class="edge">
<title>Lagrange Interpolation&#45;&gt;Evaluating Interpolation Error</title>
<path fill="none" stroke="#ffffff" d="M246.25,-133.67C246.25,-125.05 246.25,-115.79 246.25,-108.1"/>
<polygon fill="#ffffff" stroke="#ffffff" points="242.75,-133.7 246.25,-143.7 249.75,-133.7 242.75,-133.7"/>
</g>
<!-- Recurrent Equations -->
<g id="node6" class="node">
<title>Recurrent Equations</title>
<g id="a_node6"><a xlink:href="../Recurrent Equations.html" xlink:title="Recurrent Equations" target="_parent">
<path fill="#273434" stroke="#b75867" d="M2227.75,-108C2227.75,-108 2120.75,-108 2120.75,-108 2114.75,-108 2108.75,-102 2108.75,-96 2108.75,-96 2108.75,-84 2108.75,-84 2108.75,-78 2114.75,-72 2120.75,-72 2120.75,-72 2227.75,-72 2227.75,-72 2233.75,-72 2239.75,-78 2239.75,-84 2239.75,-84 2239.75,-96 2239.75,-96 2239.75,-102 2233.75,-108 2227.75,-108"/>
<text text-anchor="middle" x="2174.25" y="-86.9" font-family="sans" font-size="12.00" fill="#c4c7c7">Recurrent Equations</text>
</a>
</g>
</g>
<!-- Discrete Structures&#45;&gt;Recurrent Equations -->
<g id="edge7" class="edge">
<title>Discrete Structures&#45;&gt;Recurrent Equations</title>
<path fill="none" stroke="#b75867" d="M1856.52,-227.98C1935.09,-220.63 2066.13,-205.04 2107.25,-180 2131.75,-165.09 2150.34,-137.59 2161.66,-117.09"/>
<polygon fill="#b75867" stroke="#b75867" points="2164.76,-118.71 2166.34,-108.23 2158.57,-115.44 2164.76,-118.71"/>
</g>
<!-- Combinatorics -->
<g id="node7" class="node">
<title>Combinatorics</title>
<g id="a_node7"><a xlink:href="../Combinatorics.html" xlink:title="Combinatorics" target="_parent">
<path fill="#273434" stroke="#b75867" d="M1685.25,-180C1685.25,-180 1611.25,-180 1611.25,-180 1605.25,-180 1599.25,-174 1599.25,-168 1599.25,-168 1599.25,-156 1599.25,-156 1599.25,-150 1605.25,-144 1611.25,-144 1611.25,-144 1685.25,-144 1685.25,-144 1691.25,-144 1697.25,-150 1697.25,-156 1697.25,-156 1697.25,-168 1697.25,-168 1697.25,-174 1691.25,-180 1685.25,-180"/>
<text text-anchor="middle" x="1648.25" y="-158.9" font-family="sans" font-size="12.00" fill="#c4c7c7">Combinatorics</text>
</a>
</g>
</g>
<!-- Discrete Structures&#45;&gt;Combinatorics -->
<g id="edge8" class="edge">
<title>Discrete Structures&#45;&gt;Combinatorics</title>
<path fill="none" stroke="#b75867" d="M1759.29,-215.88C1739.37,-206.39 1714.43,-194.51 1693.23,-184.42"/>
<polygon fill="#b75867" stroke="#b75867" points="1694.63,-181.21 1684.09,-180.07 1691.62,-187.53 1694.63,-181.21"/>
</g>
<!-- Functions -->
<g id="node8" class="node">
<title>Functions</title>
<g id="a_node8"><a xlink:href="../Functions.html" xlink:title="Functions" target="_parent">
<path fill="#273434" stroke="#b75867" d="M1775.25,-180C1775.25,-180 1727.25,-180 1727.25,-180 1721.25,-180 1715.25,-174 1715.25,-168 1715.25,-168 1715.25,-156 1715.25,-156 1715.25,-150 1721.25,-144 1727.25,-144 1727.25,-144 1775.25,-144 1775.25,-144 1781.25,-144 1787.25,-150 1787.25,-156 1787.25,-156 1787.25,-168 1787.25,-168 1787.25,-174 1781.25,-180 1775.25,-180"/>
<text text-anchor="middle" x="1751.25" y="-158.9" font-family="sans" font-size="12.00" fill="#c4c7c7">Functions</text>
</a>
</g>
</g>
<!-- Discrete Structures&#45;&gt;Functions -->
<g id="edge9" class="edge">
<title>Discrete Structures&#45;&gt;Functions</title>
<path fill="none" stroke="#b75867" d="M1784.37,-215.7C1779.26,-207.56 1773.05,-197.69 1767.4,-188.7"/>
<polygon fill="#b75867" stroke="#b75867" points="1770.29,-186.71 1762,-180.1 1764.36,-190.43 1770.29,-186.71"/>
</g>
<!-- Relations -->
<g id="node9" class="node">
<title>Relations</title>
<g id="a_node9"><a xlink:href="../Relations.html" xlink:title="Relations" target="_parent">
<path fill="#273434" stroke="#b75867" d="M1862.75,-180C1862.75,-180 1817.75,-180 1817.75,-180 1811.75,-180 1805.75,-174 1805.75,-168 1805.75,-168 1805.75,-156 1805.75,-156 1805.75,-150 1811.75,-144 1817.75,-144 1817.75,-144 1862.75,-144 1862.75,-144 1868.75,-144 1874.75,-150 1874.75,-156 1874.75,-156 1874.75,-168 1874.75,-168 1874.75,-174 1868.75,-180 1862.75,-180"/>
<text text-anchor="middle" x="1840.25" y="-158.9" font-family="sans" font-size="12.00" fill="#c4c7c7">Relations</text>
</a>
</g>
</g>
<!-- Discrete Structures&#45;&gt;Relations -->
<g id="edge10" class="edge">
<title>Discrete Structures&#45;&gt;Relations</title>
<path fill="none" stroke="#b75867" d="M1806.37,-215.7C1811.6,-207.56 1817.95,-197.69 1823.73,-188.7"/>
<polygon fill="#b75867" stroke="#b75867" points="1826.79,-190.41 1829.25,-180.1 1820.9,-186.62 1826.79,-190.41"/>
</g>
<!-- Logical Equivalences -->
<g id="node10" class="node">
<title>Logical Equivalences</title>
<g id="a_node10"><a xlink:href="../Logical Equivalences.html" xlink:title="Logical Equivalences" target="_parent">
<path fill="#273434" stroke="#b75867" d="M2013.75,-180C2013.75,-180 1904.75,-180 1904.75,-180 1898.75,-180 1892.75,-174 1892.75,-168 1892.75,-168 1892.75,-156 1892.75,-156 1892.75,-150 1898.75,-144 1904.75,-144 1904.75,-144 2013.75,-144 2013.75,-144 2019.75,-144 2025.75,-150 2025.75,-156 2025.75,-156 2025.75,-168 2025.75,-168 2025.75,-174 2019.75,-180 2013.75,-180"/>
<text text-anchor="middle" x="1959.25" y="-158.9" font-family="sans" font-size="12.00" fill="#c4c7c7">Logical Equivalences</text>
</a>
</g>
</g>
<!-- Discrete Structures&#45;&gt;Logical Equivalences -->
<g id="edge11" class="edge">
<title>Discrete Structures&#45;&gt;Logical Equivalences</title>
<path fill="none" stroke="#b75867" d="M1835.37,-215.88C1857.89,-206.26 1886.17,-194.19 1910.02,-184.01"/>
<polygon fill="#b75867" stroke="#b75867" points="1911.44,-187.21 1919.26,-180.07 1908.69,-180.77 1911.44,-187.21"/>
</g>
<!-- Logical Operators -->
<g id="node11" class="node">
<title>Logical Operators</title>
<g id="a_node11"><a xlink:href="../Logical Operators.html" xlink:title="Logical Operators" target="_parent">
<path fill="#273434" stroke="#b75867" d="M1569.25,-180C1569.25,-180 1477.25,-180 1477.25,-180 1471.25,-180 1465.25,-174 1465.25,-168 1465.25,-168 1465.25,-156 1465.25,-156 1465.25,-150 1471.25,-144 1477.25,-144 1477.25,-144 1569.25,-144 1569.25,-144 1575.25,-144 1581.25,-150 1581.25,-156 1581.25,-156 1581.25,-168 1581.25,-168 1581.25,-174 1575.25,-180 1569.25,-180"/>
<text text-anchor="middle" x="1523.25" y="-158.9" font-family="sans" font-size="12.00" fill="#c4c7c7">Logical Operators</text>
</a>
</g>
</g>
<!-- Discrete Structures&#45;&gt;Logical Operators -->
<g id="edge12" class="edge">
<title>Discrete Structures&#45;&gt;Logical Operators</title>
<path fill="none" stroke="#b75867" d="M1734.21,-217.29C1691.69,-206.35 1634.95,-191.75 1591.03,-180.44"/>
<polygon fill="#b75867" stroke="#b75867" points="1591.85,-177.04 1581.29,-177.94 1590.1,-183.82 1591.85,-177.04"/>
</g>
<!-- Discrete Structures&#45;&gt;Knowledege Base -->
<g id="edge25" class="edge">
<title>Discrete Structures&#45;&gt;Knowledege Base</title>
<path fill="none" stroke="#ffffff" d="M1723.88,-222.94C1655.15,-212.99 1548.35,-196.85 1456.25,-180 1447.06,-178.32 1437.32,-176.4 1427.89,-174.46"/>
<polygon fill="#ffffff" stroke="#ffffff" points="1723.76,-226.46 1734.16,-224.42 1724.76,-219.53 1723.76,-226.46"/>
</g>
<!-- Chebyshev Polynomial -->
<g id="node26" class="node">
<title>Chebyshev Polynomial</title>
<g id="a_node26"><a xlink:href="../Chebyshev Polynomial.html" xlink:title="Chebyshev Polynomial" target="_parent">
<ellipse fill="#273434" stroke="#b75867" cx="2113.25" cy="-18" rx="89.02" ry="18"/>
<text text-anchor="middle" x="2113.25" y="-14.9" font-family="sans" font-size="12.00" fill="#c4c7c7">Chebyshev Polynomial</text>
</a>
</g>
</g>
<!-- Recurrent Equations&#45;&gt;Chebyshev Polynomial -->
<g id="edge26" class="edge">
<title>Recurrent Equations&#45;&gt;Chebyshev Polynomial</title>
<path fill="none" stroke="#ffffff" d="M2152.39,-63.92C2144.35,-54.69 2135.44,-44.47 2128.15,-36.1"/>
<polygon fill="#ffffff" stroke="#ffffff" points="2149.96,-66.46 2159.17,-71.7 2155.24,-61.86 2149.96,-66.46"/>
</g>
<!-- Set -->
<g id="node13" class="node">
<title>Set</title>
<g id="a_node13"><a xlink:href="../Set.html" xlink:title="Set" target="_parent">
<path fill="#273434" stroke="#b75867" d="M1273.25,-180C1273.25,-180 1243.25,-180 1243.25,-180 1237.25,-180 1231.25,-174 1231.25,-168 1231.25,-168 1231.25,-156 1231.25,-156 1231.25,-150 1237.25,-144 1243.25,-144 1243.25,-144 1273.25,-144 1273.25,-144 1279.25,-144 1285.25,-150 1285.25,-156 1285.25,-156 1285.25,-168 1285.25,-168 1285.25,-174 1279.25,-180 1273.25,-180"/>
<text text-anchor="middle" x="1258.25" y="-158.9" font-family="sans" font-size="12.00" fill="#c4c7c7">Set</text>
</a>
</g>
</g>
<!-- Differential Analysis&#45;&gt;Set -->
<g id="edge13" class="edge">
<title>Differential Analysis&#45;&gt;Set</title>
<path fill="none" stroke="#b75867" d="M1346.63,-215.88C1330.87,-206.45 1311.17,-194.66 1294.36,-184.61"/>
<polygon fill="#b75867" stroke="#b75867" points="1295.75,-181.36 1285.37,-179.23 1292.15,-187.36 1295.75,-181.36"/>
</g>
<!-- Differential Analysis&#45;&gt;Knowledege Base -->
<g id="edge27" class="edge">
<title>Differential Analysis&#45;&gt;Knowledege Base</title>
<path fill="none" stroke="#ffffff" d="M1375.25,-205.67C1375.25,-197.05 1375.25,-187.79 1375.25,-180.1"/>
<polygon fill="#ffffff" stroke="#ffffff" points="1371.75,-205.7 1375.25,-215.7 1378.75,-205.7 1371.75,-205.7"/>
</g>
<!-- Set&#45;&gt;Recurrent Equations -->
<g id="edge32" class="edge">
<title>Set&#45;&gt;Recurrent Equations</title>
<path fill="none" stroke="#ffffff" d="M1295.23,-144.49C1483.92,-102 1924.9,-131.47 2099.25,-108 2102.29,-107.59 2105.39,-107.12 2108.52,-106.59"/>
<polygon fill="#ffffff" stroke="#ffffff" points="1294.27,-141.12 1285.35,-146.84 1295.89,-147.93 1294.27,-141.12"/>
</g>
<!-- Reflexive Closure -->
<g id="node27" class="node">
<title>Reflexive Closure</title>
<g id="a_node27"><a xlink:href="../Reflexive Closure.html" xlink:title="Reflexive Closure" target="_parent">
<ellipse fill="#273434" stroke="#b75867" cx="1691.25" cy="-90" rx="69.62" ry="18"/>
<text text-anchor="middle" x="1691.25" y="-86.9" font-family="sans" font-size="12.00" fill="#c4c7c7">Reflexive Closure</text>
</a>
</g>
</g>
<!-- Set&#45;&gt;Reflexive Closure -->
<g id="edge28" class="edge">
<title>Set&#45;&gt;Reflexive Closure</title>
<path fill="none" stroke="#ffffff" d="M1295.33,-144.24C1430.84,-106.71 1472.19,-129.39 1607.25,-108 1617.68,-106.35 1628.79,-104.3 1639.4,-102.21"/>
<polygon fill="#ffffff" stroke="#ffffff" points="1294.08,-140.96 1285.41,-147.05 1295.98,-147.69 1294.08,-140.96"/>
</g>
<!-- Symmetric Closure -->
<g id="node28" class="node">
<title>Symmetric Closure</title>
<g id="a_node28"><a xlink:href="../Symmetric Closure.html" xlink:title="Symmetric Closure" target="_parent">
<ellipse fill="#273434" stroke="#b75867" cx="1854.25" cy="-90" rx="75.94" ry="18"/>
<text text-anchor="middle" x="1854.25" y="-86.9" font-family="sans" font-size="12.00" fill="#c4c7c7">Symmetric Closure</text>
</a>
</g>
</g>
<!-- Set&#45;&gt;Symmetric Closure -->
<g id="edge29" class="edge">
<title>Set&#45;&gt;Symmetric Closure</title>
<path fill="none" stroke="#ffffff" d="M1295.3,-144.33C1501.3,-91.26 1563.38,-136.64 1770.25,-108 1780.12,-106.63 1790.58,-104.82 1800.65,-102.88"/>
<polygon fill="#ffffff" stroke="#ffffff" points="1294.16,-141.01 1285.38,-146.93 1295.94,-147.78 1294.16,-141.01"/>
</g>
<!-- Class of equivalence -->
<g id="node29" class="node">
<title>Class of equivalence</title>
<g id="a_node29"><a xlink:href="../Class of equivalence.html" xlink:title="Class of equivalence" target="_parent">
<ellipse fill="#273434" stroke="#b75867" cx="928.25" cy="-90" rx="80.78" ry="18"/>
<text text-anchor="middle" x="928.25" y="-86.9" font-family="sans" font-size="12.00" fill="#c4c7c7">Class of equivalence</text>
</a>
</g>
</g>
<!-- Set&#45;&gt;Class of equivalence -->
<g id="edge30" class="edge">
<title>Set&#45;&gt;Class of equivalence</title>
<path fill="none" stroke="#ffffff" d="M1221.55,-144.1C1221.45,-144.06 1221.35,-144.03 1221.25,-144 1133.37,-116.56 1107.8,-124.64 1017.25,-108 1007.5,-106.21 997.16,-104.27 987.11,-102.36"/>
<polygon fill="#ffffff" stroke="#ffffff" points="1220.48,-147.43 1231.08,-147.57 1222.88,-140.86 1220.48,-147.43"/>
</g>
<!-- Relation of Equivalence -->
<g id="node30" class="node">
<title>Relation of Equivalence</title>
<g id="a_node30"><a xlink:href="../Relation of Equivalence.html" xlink:title="Relation of Equivalence" target="_parent">
<ellipse fill="#273434" stroke="#b75867" cx="1118.25" cy="-90" rx="91.95" ry="18"/>
<text text-anchor="middle" x="1118.25" y="-86.9" font-family="sans" font-size="12.00" fill="#c4c7c7">Relation of Equivalence</text>
</a>
</g>
</g>
<!-- Set&#45;&gt;Relation of Equivalence -->
<g id="edge31" class="edge">
<title>Set&#45;&gt;Relation of Equivalence</title>
<path fill="none" stroke="#ffffff" d="M1221.8,-142.78C1199.6,-131.67 1171.49,-117.62 1150.16,-106.96"/>
<polygon fill="#ffffff" stroke="#ffffff" points="1220.41,-146 1230.92,-147.34 1223.54,-139.73 1220.41,-146"/>
</g>
<!-- Principle of division -->
<g id="node31" class="node">
<title>Principle of division</title>
<g id="a_node31"><a xlink:href="../Principle of division.html" xlink:title="Principle of division" target="_parent">
<ellipse fill="#273434" stroke="#b75867" cx="1305.25" cy="-90" rx="77.63" ry="18"/>
<text text-anchor="middle" x="1305.25" y="-86.9" font-family="sans" font-size="12.00" fill="#c4c7c7">Principle of division</text>
</a>
</g>
</g>
<!-- Set&#45;&gt;Principle of division -->
<g id="edge33" class="edge">
<title>Set&#45;&gt;Principle of division</title>
<path fill="none" stroke="#ffffff" d="M1275.47,-135.36C1281.56,-126.28 1288.26,-116.3 1293.77,-108.1"/>
<polygon fill="#ffffff" stroke="#ffffff" points="1272.54,-133.44 1269.87,-143.7 1278.35,-137.35 1272.54,-133.44"/>
</g>
<!-- Principle of products -->
<g id="node32" class="node">
<title>Principle of products</title>
<g id="a_node32"><a xlink:href="../Principle of products.html" xlink:title="Principle of products" target="_parent">
<ellipse fill="#273434" stroke="#b75867" cx="1483.25" cy="-90" rx="82.48" ry="18"/>
<text text-anchor="middle" x="1483.25" y="-86.9" font-family="sans" font-size="12.00" fill="#c4c7c7">Principle of products</text>
</a>
</g>
</g>
<!-- Set&#45;&gt;Principle of products -->
<g id="edge34" class="edge">
<title>Set&#45;&gt;Principle of products</title>
<path fill="none" stroke="#ffffff" d="M1295.22,-143.93C1345.05,-125.67 1393.22,-112.55 1429.12,-103.61"/>
<polygon fill="#ffffff" stroke="#ffffff" points="1293.71,-140.75 1285.56,-147.52 1296.16,-147.31 1293.71,-140.75"/>
</g>
<!-- Dirichlet principle -->
<g id="node33" class="node">
<title>Dirichlet principle</title>
<g id="a_node33"><a xlink:href="../Dirichlet principle.html" xlink:title="Dirichlet principle" target="_parent">
<ellipse fill="#273434" stroke="#b75867" cx="2019.25" cy="-90" rx="71.32" ry="18"/>
<text text-anchor="middle" x="2019.25" y="-86.9" font-family="sans" font-size="12.00" fill="#c4c7c7">Dirichlet principle</text>
</a>
</g>
</g>
<!-- Set&#45;&gt;Dirichlet principle -->
<g id="edge35" class="edge">
<title>Set&#45;&gt;Dirichlet principle</title>
<path fill="none" stroke="#ffffff" d="M1295.37,-144.35C1574.5,-75.08 1657.99,-145.51 1939.25,-108 1948.96,-106.7 1959.25,-104.87 1969.1,-102.89"/>
<polygon fill="#ffffff" stroke="#ffffff" points="1294.2,-141.03 1285.36,-146.87 1295.91,-147.82 1294.2,-141.03"/>
</g>
<!-- Principle of inclusion and exclusion -->
<g id="node34" class="node">
<title>Principle of inclusion and exclusion</title>
<g id="a_node34"><a xlink:href="../Principle of inclusion and exclusion.html" xlink:title="Principle of inclusion and exclusion" target="_parent">
<ellipse fill="#273434" stroke="#b75867" cx="510.25" cy="-90" rx="132.2" ry="18"/>
<text text-anchor="middle" x="510.25" y="-86.9" font-family="sans" font-size="12.00" fill="#c4c7c7">Principle of inclusion and exclusion</text>
</a>
</g>
</g>
<!-- Set&#45;&gt;Principle of inclusion and exclusion -->
<g id="edge36" class="edge">
<title>Set&#45;&gt;Principle of inclusion and exclusion</title>
<path fill="none" stroke="#ffffff" d="M1221.56,-144.08C1221.46,-144.05 1221.35,-144.03 1221.25,-144 975.54,-82.06 904.59,-131.07 652.25,-108 636.3,-106.54 619.38,-104.74 602.98,-102.86"/>
<polygon fill="#ffffff" stroke="#ffffff" points="1220.59,-147.44 1231.18,-147.21 1222.76,-140.79 1220.59,-147.44"/>
</g>
<!-- Principle of partitions -->
<g id="node35" class="node">
<title>Principle of partitions</title>
<g id="a_node35"><a xlink:href="../Principle of partitions.html" xlink:title="Principle of partitions" target="_parent">
<ellipse fill="#273434" stroke="#b75867" cx="745.25" cy="-90" rx="84.17" ry="18"/>
<text text-anchor="middle" x="745.25" y="-86.9" font-family="sans" font-size="12.00" fill="#c4c7c7">Principle of partitions</text>
</a>
</g>
</g>
<!-- Set&#45;&gt;Principle of partitions -->
<g id="edge37" class="edge">
<title>Set&#45;&gt;Principle of partitions</title>
<path fill="none" stroke="#ffffff" d="M1221.56,-144.08C1221.45,-144.06 1221.35,-144.03 1221.25,-144 1056.12,-99.68 1007.61,-131.39 838.25,-108 827.52,-106.52 816.14,-104.67 805.16,-102.74"/>
<polygon fill="#ffffff" stroke="#ffffff" points="1220.56,-147.44 1231.15,-147.31 1222.79,-140.81 1220.56,-147.44"/>
</g>
<!-- Principle of the bijection -->
<g id="node36" class="node">
<title>Principle of the bijection</title>
<g id="a_node36"><a xlink:href="../Principle of the bijection.html" xlink:title="Principle of the bijection" target="_parent">
<ellipse fill="#273434" stroke="#b75867" cx="2315.25" cy="-18" rx="94.6" ry="18"/>
<text text-anchor="middle" x="2315.25" y="-14.9" font-family="sans" font-size="12.00" fill="#c4c7c7">Principle of the bijection</text>
</a>
</g>
</g>
<!-- Set&#45;&gt;Principle of the bijection -->
<g id="edge38" class="edge">
<title>Set&#45;&gt;Principle of the bijection</title>
<path fill="none" stroke="#ffffff" d="M1295.11,-144.35C1417.06,-111.4 1463.78,-160.43 1574.25,-108 1595.27,-98.03 1590.91,-81.26 1612.25,-72 1734.59,-18.94 2078.72,-50.78 2211.25,-36 2223.43,-34.64 2236.36,-32.83 2248.81,-30.9"/>
<polygon fill="#ffffff" stroke="#ffffff" points="1294.09,-141 1285.42,-147.09 1295.99,-147.73 1294.09,-141"/>
</g>
<!-- Matrix -->
<g id="node15" class="node">
<title>Matrix</title>
<g id="a_node15"><a xlink:href="../Matrix.html" xlink:title="Matrix" target="_parent">
<path fill="#273434" stroke="#b75867" d="M2086.25,-180C2086.25,-180 2056.25,-180 2056.25,-180 2050.25,-180 2044.25,-174 2044.25,-168 2044.25,-168 2044.25,-156 2044.25,-156 2044.25,-150 2050.25,-144 2056.25,-144 2056.25,-144 2086.25,-144 2086.25,-144 2092.25,-144 2098.25,-150 2098.25,-156 2098.25,-156 2098.25,-168 2098.25,-168 2098.25,-174 2092.25,-180 2086.25,-180"/>
<text text-anchor="middle" x="2071.25" y="-158.9" font-family="sans" font-size="12.00" fill="#c4c7c7">Matrix</text>
</a>
</g>
</g>
<!-- Linear Algebra&#45;&gt;Matrix -->
<g id="edge14" class="edge">
<title>Linear Algebra&#45;&gt;Matrix</title>
<path fill="none" stroke="#b75867" d="M2123.95,-215.7C2115.38,-207.14 2104.91,-196.66 2095.55,-187.3"/>
<polygon fill="#b75867" stroke="#b75867" points="2097.9,-184.7 2088.35,-180.1 2092.95,-189.65 2097.9,-184.7"/>
</g>
<!-- Bijective function -->
<g id="node16" class="node">
<title>Bijective function</title>
<g id="a_node16"><a xlink:href="../Bijective function.html" xlink:title="Bijective function" target="_parent">
<path fill="#273434" stroke="#b75867" d="M2360.25,-108C2360.25,-108 2270.25,-108 2270.25,-108 2264.25,-108 2258.25,-102 2258.25,-96 2258.25,-96 2258.25,-84 2258.25,-84 2258.25,-78 2264.25,-72 2270.25,-72 2270.25,-72 2360.25,-72 2360.25,-72 2366.25,-72 2372.25,-78 2372.25,-84 2372.25,-84 2372.25,-96 2372.25,-96 2372.25,-102 2366.25,-108 2360.25,-108"/>
<text text-anchor="middle" x="2315.25" y="-86.9" font-family="sans" font-size="12.00" fill="#c4c7c7">Bijective function</text>
</a>
</g>
</g>
<!-- Linear Algebra&#45;&gt;Bijective function -->
<g id="edge15" class="edge">
<title>Linear Algebra&#45;&gt;Bijective function</title>
<path fill="none" stroke="#b75867" d="M2190.45,-218.28C2223.9,-207.46 2264.33,-192.52 2277.25,-180 2294.54,-163.26 2304.38,-137.38 2309.69,-117.84"/>
<polygon fill="#b75867" stroke="#b75867" points="2313.12,-118.55 2312.13,-108.01 2306.32,-116.87 2313.12,-118.55"/>
</g>
<!-- Injective function -->
<g id="node17" class="node">
<title>Injective function</title>
<g id="a_node17"><a xlink:href="../Injective function.html" xlink:title="Injective function" target="_parent">
<path fill="#273434" stroke="#b75867" d="M2256.25,-180C2256.25,-180 2166.25,-180 2166.25,-180 2160.25,-180 2154.25,-174 2154.25,-168 2154.25,-168 2154.25,-156 2154.25,-156 2154.25,-150 2160.25,-144 2166.25,-144 2166.25,-144 2256.25,-144 2256.25,-144 2262.25,-144 2268.25,-150 2268.25,-156 2268.25,-156 2268.25,-168 2268.25,-168 2268.25,-174 2262.25,-180 2256.25,-180"/>
<text text-anchor="middle" x="2211.25" y="-158.9" font-family="sans" font-size="12.00" fill="#c4c7c7">Injective function</text>
</a>
</g>
</g>
<!-- Linear Algebra&#45;&gt;Injective function -->
<g id="edge16" class="edge">
<title>Linear Algebra&#45;&gt;Injective function</title>
<path fill="none" stroke="#b75867" d="M2158.55,-215.7C2167.11,-207.14 2177.59,-196.66 2186.95,-187.3"/>
<polygon fill="#b75867" stroke="#b75867" points="2189.55,-189.65 2194.15,-180.1 2184.6,-184.7 2189.55,-189.65"/>
</g>
<!-- Surjective function -->
<g id="node18" class="node">
<title>Surjective function</title>
<g id="a_node18"><a xlink:href="../Surjective function.html" xlink:title="Surjective function" target="_parent">
<path fill="#273434" stroke="#b75867" d="M2434.25,-180C2434.25,-180 2336.25,-180 2336.25,-180 2330.25,-180 2324.25,-174 2324.25,-168 2324.25,-168 2324.25,-156 2324.25,-156 2324.25,-150 2330.25,-144 2336.25,-144 2336.25,-144 2434.25,-144 2434.25,-144 2440.25,-144 2446.25,-150 2446.25,-156 2446.25,-156 2446.25,-168 2446.25,-168 2446.25,-174 2440.25,-180 2434.25,-180"/>
<text text-anchor="middle" x="2385.25" y="-158.9" font-family="sans" font-size="12.00" fill="#c4c7c7">Surjective function</text>
</a>
</g>
</g>
<!-- Linear Algebra&#45;&gt;Surjective function -->
<g id="edge17" class="edge">
<title>Linear Algebra&#45;&gt;Surjective function</title>
<path fill="none" stroke="#b75867" d="M2190.29,-218.6C2193.32,-217.72 2196.33,-216.84 2199.25,-216 2237.42,-204.97 2280.04,-192.81 2314.84,-182.93"/>
<polygon fill="#b75867" stroke="#b75867" points="2316.24,-186.17 2324.9,-180.07 2314.33,-179.43 2316.24,-186.17"/>
</g>
<!-- Kronecker Delta -->
<g id="node19" class="node">
<title>Kronecker Delta</title>
<g id="a_node19"><a xlink:href="../Kronecker Delta.html" xlink:title="Kronecker Delta" target="_parent">
<path fill="#273434" stroke="#b75867" d="M2841.75,-180C2841.75,-180 2758.75,-180 2758.75,-180 2752.75,-180 2746.75,-174 2746.75,-168 2746.75,-168 2746.75,-156 2746.75,-156 2746.75,-150 2752.75,-144 2758.75,-144 2758.75,-144 2841.75,-144 2841.75,-144 2847.75,-144 2853.75,-150 2853.75,-156 2853.75,-156 2853.75,-168 2853.75,-168 2853.75,-174 2847.75,-180 2841.75,-180"/>
<text text-anchor="middle" x="2800.25" y="-158.9" font-family="sans" font-size="12.00" fill="#c4c7c7">Kronecker Delta</text>
</a>
</g>
</g>
<!-- Linear Algebra&#45;&gt;Kronecker Delta -->
<g id="edge18" class="edge">
<title>Linear Algebra&#45;&gt;Kronecker Delta</title>
<path fill="none" stroke="#b75867" d="M2190.44,-217.82C2193.41,-217.14 2196.36,-216.53 2199.25,-216 2411.48,-177.45 2468.83,-203.52 2683.25,-180 2700.56,-178.1 2719.25,-175.59 2736.5,-173.09"/>
<polygon fill="#b75867" stroke="#b75867" points="2737.09,-176.54 2746.47,-171.62 2736.07,-169.62 2737.09,-176.54"/>
</g>
<!-- Fundamental Theorem of Algebra -->
<g id="node20" class="node">
<title>Fundamental Theorem of Algebra</title>
<g id="a_node20"><a xlink:href="../Fundamental Theorem of Algebra.html" xlink:title="Fundamental Theorem of Algebra" target="_parent">
<path fill="#273434" stroke="#b75867" d="M2661.75,-180C2661.75,-180 2476.75,-180 2476.75,-180 2470.75,-180 2464.75,-174 2464.75,-168 2464.75,-168 2464.75,-156 2464.75,-156 2464.75,-150 2470.75,-144 2476.75,-144 2476.75,-144 2661.75,-144 2661.75,-144 2667.75,-144 2673.75,-150 2673.75,-156 2673.75,-156 2673.75,-168 2673.75,-168 2673.75,-174 2667.75,-180 2661.75,-180"/>
<text text-anchor="middle" x="2569.25" y="-158.9" font-family="sans" font-size="12.00" fill="#c4c7c7">Fundamental Theorem of Algebra</text>
</a>
</g>
</g>
<!-- Linear Algebra&#45;&gt;Fundamental Theorem of Algebra -->
<g id="edge19" class="edge">
<title>Linear Algebra&#45;&gt;Fundamental Theorem of Algebra</title>
<path fill="none" stroke="#b75867" d="M2190.49,-218.04C2193.44,-217.31 2196.38,-216.62 2199.25,-216 2308.38,-192.46 2339.78,-196.23 2454.35,-180.1"/>
<polygon fill="#b75867" stroke="#b75867" points="2455.18,-183.52 2464.58,-178.64 2454.19,-176.59 2455.18,-183.52"/>
</g>
<!-- Linear Algebra&#45;&gt;Knowledege Base -->
<g id="edge39" class="edge">
<title>Linear Algebra&#45;&gt;Knowledege Base</title>
<path fill="none" stroke="#ffffff" d="M2081.61,-229.38C1938.06,-220.52 1576.34,-197.17 1456.25,-180 1446.58,-178.62 1436.33,-176.77 1426.49,-174.8"/>
<polygon fill="#ffffff" stroke="#ffffff" points="2081.77,-232.9 2091.97,-230.02 2082.2,-225.91 2081.77,-232.9"/>
</g>
<!-- Matrix&#45;&gt;Reflexive Closure -->
<g id="edge40" class="edge">
<title>Matrix&#45;&gt;Reflexive Closure</title>
<path fill="none" stroke="#ffffff" d="M2034.16,-144.2C1918.93,-111.12 1883.52,-128.15 1769.25,-108 1760.24,-106.41 1750.69,-104.51 1741.48,-102.57"/>
<polygon fill="#ffffff" stroke="#ffffff" points="2033.49,-147.65 2044.07,-147.11 2035.47,-140.93 2033.49,-147.65"/>
</g>
<!-- Matrix&#45;&gt;Symmetric Closure -->
<g id="edge41" class="edge">
<title>Matrix&#45;&gt;Symmetric Closure</title>
<path fill="none" stroke="#ffffff" d="M2034.53,-143.99C1986.02,-125.88 1939.34,-112.61 1904.88,-103.55"/>
<polygon fill="#ffffff" stroke="#ffffff" points="2033.33,-147.28 2043.92,-147.56 2035.81,-140.74 2033.33,-147.28"/>
</g>
<!-- Bijective function&#45;&gt;Principle of the bijection -->
<g id="edge42" class="edge">
<title>Bijective function&#45;&gt;Principle of the bijection</title>
<path fill="none" stroke="#ffffff" d="M2315.25,-61.67C2315.25,-53.05 2315.25,-43.79 2315.25,-36.1"/>
<polygon fill="#ffffff" stroke="#ffffff" points="2311.75,-61.7 2315.25,-71.7 2318.75,-61.7 2311.75,-61.7"/>
</g>
<!-- Injective function&#45;&gt;Bijective function -->
<g id="edge44" class="edge">
<title>Injective function&#45;&gt;Bijective function</title>
<path fill="none" stroke="#ffffff" d="M2245.37,-138.04C2259.81,-128.32 2276.35,-117.18 2289.71,-108.19"/>
<polygon fill="#ffffff" stroke="#ffffff" points="2243.03,-135.39 2236.69,-143.88 2246.94,-141.2 2243.03,-135.39"/>
</g>
<!-- Injective function&#45;&gt;Dirichlet principle -->
<g id="edge43" class="edge">
<title>Injective function&#45;&gt;Dirichlet principle</title>
<path fill="none" stroke="#ffffff" d="M2154.85,-140.44C2123.69,-129.08 2085.79,-115.26 2057.99,-105.12"/>
<polygon fill="#ffffff" stroke="#ffffff" points="2153.69,-143.74 2164.28,-143.88 2156.08,-137.16 2153.69,-143.74"/>
</g>
<!-- Surjective function&#45;&gt;Bijective function -->
<g id="edge45" class="edge">
<title>Surjective function&#45;&gt;Bijective function</title>
<path fill="none" stroke="#ffffff" d="M2360.73,-136.48C2351.36,-127.11 2340.89,-116.64 2332.35,-108.1"/>
<polygon fill="#ffffff" stroke="#ffffff" points="2358.4,-139.1 2367.95,-143.7 2363.35,-134.15 2358.4,-139.1"/>
</g>
<!-- Fundamental polynomials of Lagrange -->
<g id="node37" class="node">
<title>Fundamental polynomials of Lagrange</title>
<g id="a_node37"><a xlink:href="../Fundamental polynomials of Lagrange.html" xlink:title="Fundamental polynomials of Lagrange" target="_parent">
<ellipse fill="#273434" stroke="#b75867" cx="2836.25" cy="-90" rx="145.06" ry="18"/>
<text text-anchor="middle" x="2836.25" y="-86.9" font-family="sans" font-size="12.00" fill="#c4c7c7">Fundamental polynomials of Lagrange</text>
</a>
</g>
</g>
<!-- Kronecker Delta&#45;&gt;Fundamental polynomials of Lagrange -->
<g id="edge46" class="edge">
<title>Kronecker Delta&#45;&gt;Fundamental polynomials of Lagrange</title>
<path fill="none" stroke="#ffffff" d="M2813.73,-134.8C2818.32,-125.87 2823.33,-116.13 2827.45,-108.1"/>
<polygon fill="#ffffff" stroke="#ffffff" points="2810.61,-133.2 2809.15,-143.7 2816.83,-136.4 2810.61,-133.2"/>
</g>
<!-- Lagrange Interpolation Problem -->
<g id="node38" class="node">
<title>Lagrange Interpolation Problem</title>
<g id="a_node38"><a xlink:href="../Lagrange Interpolation Problem.html" xlink:title="Lagrange Interpolation Problem" target="_parent">
<ellipse fill="#273434" stroke="#b75867" cx="2550.25" cy="-90" rx="122.5" ry="18"/>
<text text-anchor="middle" x="2550.25" y="-86.9" font-family="sans" font-size="12.00" fill="#c4c7c7">Lagrange Interpolation Problem</text>
</a>
</g>
</g>
<!-- Kronecker Delta&#45;&gt;Lagrange Interpolation Problem -->
<g id="edge47" class="edge">
<title>Kronecker Delta&#45;&gt;Lagrange Interpolation Problem</title>
<path fill="none" stroke="#ffffff" d="M2736.78,-143.23C2695.98,-131.81 2643.54,-117.12 2604.65,-106.23"/>
<polygon fill="#ffffff" stroke="#ffffff" points="2736.04,-146.66 2746.62,-145.98 2737.93,-139.92 2736.04,-146.66"/>
</g>
<!-- Formula of Lagrange for Interpolation -->
<g id="node39" class="node">
<title>Formula of Lagrange for Interpolation</title>
<g id="a_node39"><a xlink:href="../Formula of Lagrange for Interpolation.html" xlink:title="Formula of Lagrange for Interpolation" target="_parent">
<ellipse fill="#273434" stroke="#b75867" cx="3141.25" cy="-90" rx="142.4" ry="18"/>
<text text-anchor="middle" x="3141.25" y="-86.9" font-family="sans" font-size="12.00" fill="#c4c7c7">Formula of Lagrange for Interpolation</text>
</a>
</g>
</g>
<!-- Kronecker Delta&#45;&gt;Formula of Lagrange for Interpolation -->
<g id="edge48" class="edge">
<title>Kronecker Delta&#45;&gt;Formula of Lagrange for Interpolation</title>
<path fill="none" stroke="#ffffff" d="M2863.78,-147.96C2922.38,-135.93 3009.25,-118.1 3070.14,-105.6"/>
<polygon fill="#ffffff" stroke="#ffffff" points="2863,-144.55 2853.91,-149.99 2864.41,-151.4 2863,-144.55"/>
</g>
<!-- Fundamental Theorem of Algebra&#45;&gt;Recurrent Equations -->
<g id="edge49" class="edge">
<title>Fundamental Theorem of Algebra&#45;&gt;Recurrent Equations</title>
<path fill="none" stroke="#ffffff" d="M2454.43,-143.66C2393.34,-134.01 2317.04,-121.28 2249.25,-108 2246.24,-107.41 2243.16,-106.79 2240.05,-106.15"/>
<polygon fill="#ffffff" stroke="#ffffff" points="2454.06,-147.14 2464.48,-145.24 2455.15,-140.23 2454.06,-147.14"/>
</g>
<!-- Fundamental Theorem of Algebra&#45;&gt;Lagrange Interpolation Problem -->
<g id="edge50" class="edge">
<title>Fundamental Theorem of Algebra&#45;&gt;Lagrange Interpolation Problem</title>
<path fill="none" stroke="#ffffff" d="M2561.91,-133.95C2559.55,-125.26 2557,-115.88 2554.89,-108.1"/>
<polygon fill="#ffffff" stroke="#ffffff" points="2558.56,-134.96 2564.55,-143.7 2565.31,-133.13 2558.56,-134.96"/>
</g>
</g>
</svg>
