<?xml version="1.0" encoding="UTF-8" standalone="no"?>
<!DOCTYPE svg PUBLIC "-//W3C//DTD SVG 1.1//EN"
 "http://www.w3.org/Graphics/SVG/1.1/DTD/svg11.dtd">
<!-- Generated by graphviz version 2.44.0 (0)
 -->
<!-- Title: Symmetric Closure Pages: 1 -->
<svg width="3910pt" height="260pt"
 viewBox="0.00 0.00 3910.12 260.00" xmlns="http://www.w3.org/2000/svg" xmlns:xlink="http://www.w3.org/1999/xlink">
<g id="page0,1_graph0" class="graph" transform="scale(1 1) rotate(0) translate(4 256)">
<title>Symmetric Closure</title>
<polygon fill="#132020" stroke="transparent" points="-4,4 -4,-256 3906.12,-256 3906.12,4 -4,4"/>
<!-- Symmetric Closure -->
<g id="node1" class="node">
<title>Symmetric Closure</title>
<g id="a_node1"><a xlink:href="../Symmetric Closure.html" xlink:title="Symmetric Closure" target="_parent">
<path fill="#273434" stroke="#b75867" d="M1239.98,-252C1239.98,-252 1140.98,-252 1140.98,-252 1134.98,-252 1128.98,-246 1128.98,-240 1128.98,-240 1128.98,-228 1128.98,-228 1128.98,-222 1134.98,-216 1140.98,-216 1140.98,-216 1239.98,-216 1239.98,-216 1245.98,-216 1251.98,-222 1251.98,-228 1251.98,-228 1251.98,-240 1251.98,-240 1251.98,-246 1245.98,-252 1239.98,-252"/>
<text text-anchor="middle" x="1190.48" y="-230.9" font-family="sans" font-size="12.00" fill="#c4c7c7">Symmetric Closure</text>
</a>
</g>
</g>
<!-- Matrix -->
<g id="node2" class="node">
<title>Matrix</title>
<g id="a_node2"><a xlink:href="../Matrix.html" xlink:title="Matrix" target="_parent">
<path fill="#273434" stroke="#b75867" d="M1096.48,-180C1096.48,-180 1066.48,-180 1066.48,-180 1060.48,-180 1054.48,-174 1054.48,-168 1054.48,-168 1054.48,-156 1054.48,-156 1054.48,-150 1060.48,-144 1066.48,-144 1066.48,-144 1096.48,-144 1096.48,-144 1102.48,-144 1108.48,-150 1108.48,-156 1108.48,-156 1108.48,-168 1108.48,-168 1108.48,-174 1102.48,-180 1096.48,-180"/>
<text text-anchor="middle" x="1081.48" y="-158.9" font-family="sans" font-size="12.00" fill="#c4c7c7">Matrix</text>
</a>
</g>
</g>
<!-- Symmetric Closure&#45;&gt;Matrix -->
<g id="edge1" class="edge">
<title>Symmetric Closure&#45;&gt;Matrix</title>
<path fill="none" stroke="#b75867" d="M1163.81,-215.88C1149.69,-206.81 1132.16,-195.55 1116.91,-185.76"/>
<polygon fill="#b75867" stroke="#b75867" points="1118.55,-182.65 1108.24,-180.19 1114.77,-188.54 1118.55,-182.65"/>
</g>
<!-- Relation -->
<g id="node3" class="node">
<title>Relation</title>
<g id="a_node3"><a xlink:href="../Relation.html" xlink:title="Relation" target="_parent">
<path fill="#273434" stroke="#b75867" d="M1230.48,-108C1230.48,-108 1190.48,-108 1190.48,-108 1184.48,-108 1178.48,-102 1178.48,-96 1178.48,-96 1178.48,-84 1178.48,-84 1178.48,-78 1184.48,-72 1190.48,-72 1190.48,-72 1230.48,-72 1230.48,-72 1236.48,-72 1242.48,-78 1242.48,-84 1242.48,-84 1242.48,-96 1242.48,-96 1242.48,-102 1236.48,-108 1230.48,-108"/>
<text text-anchor="middle" x="1210.48" y="-86.9" font-family="sans" font-size="12.00" fill="#c4c7c7">Relation</text>
</a>
</g>
</g>
<!-- Symmetric Closure&#45;&gt;Relation -->
<g id="edge2" class="edge">
<title>Symmetric Closure&#45;&gt;Relation</title>
<path fill="none" stroke="#b75867" d="M1226.99,-215.92C1241.07,-207.29 1255.65,-195.35 1263.48,-180 1270.74,-165.75 1269.6,-158.78 1263.48,-144 1258.93,-133.03 1250.89,-123.14 1242.42,-114.96"/>
<polygon fill="#b75867" stroke="#b75867" points="1244.72,-112.33 1234.95,-108.23 1240.04,-117.53 1244.72,-112.33"/>
</g>
<!-- Set -->
<g id="node5" class="node">
<title>Set</title>
<g id="a_node5"><a xlink:href="../Set.html" xlink:title="Set" target="_parent">
<path fill="#273434" stroke="#b75867" d="M2728.48,-108C2728.48,-108 2698.48,-108 2698.48,-108 2692.48,-108 2686.48,-102 2686.48,-96 2686.48,-96 2686.48,-84 2686.48,-84 2686.48,-78 2692.48,-72 2698.48,-72 2698.48,-72 2728.48,-72 2728.48,-72 2734.48,-72 2740.48,-78 2740.48,-84 2740.48,-84 2740.48,-96 2740.48,-96 2740.48,-102 2734.48,-108 2728.48,-108"/>
<text text-anchor="middle" x="2713.48" y="-86.9" font-family="sans" font-size="12.00" fill="#c4c7c7">Set</text>
</a>
</g>
</g>
<!-- Symmetric Closure&#45;&gt;Set -->
<g id="edge3" class="edge">
<title>Symmetric Closure&#45;&gt;Set</title>
<path fill="none" stroke="#b75867" d="M1252.07,-227.26C1506.7,-203.52 2473.38,-113.39 2676.06,-94.49"/>
<polygon fill="#b75867" stroke="#b75867" points="2676.57,-97.96 2686.2,-93.54 2675.92,-90.99 2676.57,-97.96"/>
</g>
<!-- Symmetric Relation -->
<g id="node6" class="node">
<title>Symmetric Relation</title>
<g id="a_node6"><a xlink:href="../Symmetric Relation.html" xlink:title="Symmetric Relation" target="_parent">
<path fill="#273434" stroke="#b75867" d="M1242.48,-180C1242.48,-180 1138.48,-180 1138.48,-180 1132.48,-180 1126.48,-174 1126.48,-168 1126.48,-168 1126.48,-156 1126.48,-156 1126.48,-150 1132.48,-144 1138.48,-144 1138.48,-144 1242.48,-144 1242.48,-144 1248.48,-144 1254.48,-150 1254.48,-156 1254.48,-156 1254.48,-168 1254.48,-168 1254.48,-174 1248.48,-180 1242.48,-180"/>
<text text-anchor="middle" x="1190.48" y="-158.9" font-family="sans" font-size="12.00" fill="#c4c7c7">Symmetric Relation</text>
</a>
</g>
</g>
<!-- Symmetric Closure&#45;&gt;Symmetric Relation -->
<g id="edge4" class="edge">
<title>Symmetric Closure&#45;&gt;Symmetric Relation</title>
<path fill="none" stroke="#b75867" d="M1190.48,-215.7C1190.48,-207.98 1190.48,-198.71 1190.48,-190.11"/>
<polygon fill="#b75867" stroke="#b75867" points="1193.98,-190.1 1190.48,-180.1 1186.98,-190.1 1193.98,-190.1"/>
</g>
<!-- Relations -->
<g id="node7" class="node">
<title>Relations</title>
<g id="a_node7"><a xlink:href="../Relations.html" xlink:title="Relations" target="_parent">
<ellipse fill="#273434" stroke="#b75867" cx="42.48" cy="-18" rx="42.45" ry="18"/>
<text text-anchor="middle" x="42.48" y="-14.9" font-family="sans" font-size="12.00" fill="#c4c7c7">Relations</text>
</a>
</g>
</g>
<!-- Symmetric Closure&#45;&gt;Relations -->
<g id="edge7" class="edge">
<title>Symmetric Closure&#45;&gt;Relations</title>
<path fill="none" stroke="#ffffff" d="M1118.94,-223.79C942.83,-200.35 474.89,-133.28 93.48,-36 87.05,-34.36 80.27,-32.33 73.82,-30.24"/>
<polygon fill="#ffffff" stroke="#ffffff" points="1118.49,-227.27 1128.86,-225.11 1119.41,-220.33 1118.49,-227.27"/>
</g>
<!-- Reflexive Closure -->
<g id="node8" class="node">
<title>Reflexive Closure</title>
<g id="a_node8"><a xlink:href="../Reflexive Closure.html" xlink:title="Reflexive Closure" target="_parent">
<ellipse fill="#273434" stroke="#b75867" cx="1904.48" cy="-18" rx="69.62" ry="18"/>
<text text-anchor="middle" x="1904.48" y="-14.9" font-family="sans" font-size="12.00" fill="#c4c7c7">Reflexive Closure</text>
</a>
</g>
</g>
<!-- Matrix&#45;&gt;Reflexive Closure -->
<g id="edge8" class="edge">
<title>Matrix&#45;&gt;Reflexive Closure</title>
<path fill="none" stroke="#ffffff" d="M1118.68,-144.11C1423.88,-51.97 1515.77,-92.89 1825.48,-36 1834.58,-34.33 1844.24,-32.39 1853.57,-30.43"/>
<polygon fill="#ffffff" stroke="#ffffff" points="1117.21,-140.9 1108.67,-147.16 1119.25,-147.6 1117.21,-140.9"/>
</g>
<!-- Linear Algebra -->
<g id="node9" class="node">
<title>Linear Algebra</title>
<g id="a_node9"><a xlink:href="../Linear Algebra.html" xlink:title="Linear Algebra" target="_parent">
<ellipse fill="#273434" stroke="#b75867" cx="1062.48" cy="-90" rx="60.16" ry="18"/>
<text text-anchor="middle" x="1062.48" y="-86.9" font-family="sans" font-size="12.00" fill="#c4c7c7">Linear Algebra</text>
</a>
</g>
</g>
<!-- Matrix&#45;&gt;Linear Algebra -->
<g id="edge9" class="edge">
<title>Matrix&#45;&gt;Linear Algebra</title>
<path fill="none" stroke="#ffffff" d="M1074.13,-133.95C1071.77,-125.26 1069.23,-115.88 1067.12,-108.1"/>
<polygon fill="#ffffff" stroke="#ffffff" points="1070.78,-134.96 1076.78,-143.7 1077.54,-133.13 1070.78,-134.96"/>
</g>
<!-- Descartes Product -->
<g id="node4" class="node">
<title>Descartes Product</title>
<g id="a_node4"><a xlink:href="../Descartes Product.html" xlink:title="Descartes Product" target="_parent">
<path fill="#273434" stroke="#b75867" d="M332.98,-36C332.98,-36 237.98,-36 237.98,-36 231.98,-36 225.98,-30 225.98,-24 225.98,-24 225.98,-12 225.98,-12 225.98,-6 231.98,0 237.98,0 237.98,0 332.98,0 332.98,0 338.98,0 344.98,-6 344.98,-12 344.98,-12 344.98,-24 344.98,-24 344.98,-30 338.98,-36 332.98,-36"/>
<text text-anchor="middle" x="285.48" y="-14.9" font-family="sans" font-size="12.00" fill="#c4c7c7">Descartes Product</text>
</a>
</g>
</g>
<!-- Relation&#45;&gt;Descartes Product -->
<g id="edge5" class="edge">
<title>Relation&#45;&gt;Descartes Product</title>
<path fill="none" stroke="#b75867" d="M1178.42,-75.73C1173.81,-74.24 1169.07,-72.93 1164.48,-72 814.09,-1.27 712.39,-86.41 355.15,-36.06"/>
<polygon fill="#b75867" stroke="#b75867" points="355.44,-32.57 345.04,-34.61 354.45,-39.5 355.44,-32.57"/>
</g>
<!-- Relation&#45;&gt;Relations -->
<g id="edge19" class="edge">
<title>Relation&#45;&gt;Relations</title>
<path fill="none" stroke="#ffffff" d="M1168.38,-72.85C1167.07,-72.54 1165.77,-72.25 1164.48,-72 697.12,19.72 562.25,-120.18 93.48,-36 86.68,-34.78 79.55,-32.84 72.85,-30.71"/>
<polygon fill="#ffffff" stroke="#ffffff" points="1167.86,-76.34 1178.43,-75.68 1169.76,-69.6 1167.86,-76.34"/>
</g>
<!-- Relation&#45;&gt;Reflexive Closure -->
<g id="edge15" class="edge">
<title>Relation&#45;&gt;Reflexive Closure</title>
<path fill="none" stroke="#ffffff" d="M1252.66,-87.2C1352.62,-82.53 1611.55,-68.1 1825.48,-36 1835.05,-34.56 1845.2,-32.67 1854.92,-30.66"/>
<polygon fill="#ffffff" stroke="#ffffff" points="1252.48,-83.7 1242.65,-87.66 1252.8,-90.7 1252.48,-83.7"/>
</g>
<!-- Anti&#45;symmetric Relation -->
<g id="node10" class="node">
<title>Anti&#45;symmetric Relation</title>
<g id="a_node10"><a xlink:href="../Anti-symmetric Relation.html" xlink:title="Anti&#45;symmetric Relation" target="_parent">
<ellipse fill="#273434" stroke="#b75867" cx="456.48" cy="-18" rx="93.64" ry="18"/>
<text text-anchor="middle" x="456.48" y="-14.9" font-family="sans" font-size="12.00" fill="#c4c7c7">Anti&#45;symmetric Relation</text>
</a>
</g>
</g>
<!-- Relation&#45;&gt;Anti&#45;symmetric Relation -->
<g id="edge10" class="edge">
<title>Relation&#45;&gt;Anti&#45;symmetric Relation</title>
<path fill="none" stroke="#ffffff" d="M1168.37,-72.89C1167.07,-72.57 1165.76,-72.27 1164.48,-72 900.85,-16.71 827.17,-65.97 559.48,-36 547.32,-34.64 534.41,-32.81 521.99,-30.86"/>
<polygon fill="#ffffff" stroke="#ffffff" points="1167.83,-76.38 1178.41,-75.79 1169.77,-69.66 1167.83,-76.38"/>
</g>
<!-- Transitive Relation -->
<g id="node11" class="node">
<title>Transitive Relation</title>
<g id="a_node11"><a xlink:href="../Transitive Relation.html" xlink:title="Transitive Relation" target="_parent">
<ellipse fill="#273434" stroke="#b75867" cx="642.48" cy="-18" rx="74.47" ry="18"/>
<text text-anchor="middle" x="642.48" y="-14.9" font-family="sans" font-size="12.00" fill="#c4c7c7">Transitive Relation</text>
</a>
</g>
</g>
<!-- Relation&#45;&gt;Transitive Relation -->
<g id="edge11" class="edge">
<title>Relation&#45;&gt;Transitive Relation</title>
<path fill="none" stroke="#ffffff" d="M1168.8,-73.05C1167.35,-72.67 1165.9,-72.32 1164.48,-72 973.78,-29.76 919.86,-63.42 726.48,-36 716.46,-34.58 705.84,-32.71 695.64,-30.74"/>
<polygon fill="#ffffff" stroke="#ffffff" points="1167.81,-76.4 1178.39,-75.89 1169.8,-69.69 1167.81,-76.4"/>
</g>
<!-- Reflexive Relation -->
<g id="node12" class="node">
<title>Reflexive Relation</title>
<g id="a_node12"><a xlink:href="../Reflexive Relation.html" xlink:title="Reflexive Relation" target="_parent">
<ellipse fill="#273434" stroke="#b75867" cx="807.48" cy="-18" rx="72.05" ry="18"/>
<text text-anchor="middle" x="807.48" y="-14.9" font-family="sans" font-size="12.00" fill="#c4c7c7">Reflexive Relation</text>
</a>
</g>
</g>
<!-- Relation&#45;&gt;Reflexive Relation -->
<g id="edge12" class="edge">
<title>Relation&#45;&gt;Reflexive Relation</title>
<path fill="none" stroke="#ffffff" d="M1168.78,-73.13C1167.33,-72.73 1165.9,-72.35 1164.48,-72 1044.37,-42.37 1010.43,-56.72 888.48,-36 879.13,-34.41 869.21,-32.51 859.65,-30.57"/>
<polygon fill="#ffffff" stroke="#ffffff" points="1167.75,-76.48 1178.34,-76.09 1169.82,-69.79 1167.75,-76.48"/>
</g>
<!-- Anti&#45;reflexive relation -->
<g id="node13" class="node">
<title>Anti&#45;reflexive relation</title>
<g id="a_node13"><a xlink:href="../Anti-reflexive relation.html" xlink:title="Anti&#45;reflexive relation" target="_parent">
<ellipse fill="#273434" stroke="#b75867" cx="982.48" cy="-18" rx="84.9" ry="18"/>
<text text-anchor="middle" x="982.48" y="-14.9" font-family="sans" font-size="12.00" fill="#c4c7c7">Anti&#45;reflexive relation</text>
</a>
</g>
</g>
<!-- Relation&#45;&gt;Anti&#45;reflexive relation -->
<g id="edge13" class="edge">
<title>Relation&#45;&gt;Anti&#45;reflexive relation</title>
<path fill="none" stroke="#ffffff" d="M1168.78,-73.44C1167.33,-72.95 1165.89,-72.47 1164.48,-72 1120.25,-57.41 1069.31,-42.76 1032.59,-32.57"/>
<polygon fill="#ffffff" stroke="#ffffff" points="1167.81,-76.81 1178.41,-76.82 1170.13,-70.21 1167.81,-76.81"/>
</g>
<!-- Strongly Anti&#45;symmetric Relation -->
<g id="node14" class="node">
<title>Strongly Anti&#45;symmetric Relation</title>
<g id="a_node14"><a xlink:href="../Strongly Anti-symmetric Relation.html" xlink:title="Strongly Anti&#45;symmetric Relation" target="_parent">
<ellipse fill="#273434" stroke="#b75867" cx="1210.48" cy="-18" rx="124.93" ry="18"/>
<text text-anchor="middle" x="1210.48" y="-14.9" font-family="sans" font-size="12.00" fill="#c4c7c7">Strongly Anti&#45;symmetric Relation</text>
</a>
</g>
</g>
<!-- Relation&#45;&gt;Strongly Anti&#45;symmetric Relation -->
<g id="edge14" class="edge">
<title>Relation&#45;&gt;Strongly Anti&#45;symmetric Relation</title>
<path fill="none" stroke="#ffffff" d="M1210.48,-61.67C1210.48,-53.05 1210.48,-43.79 1210.48,-36.1"/>
<polygon fill="#ffffff" stroke="#ffffff" points="1206.98,-61.7 1210.48,-71.7 1213.98,-61.7 1206.98,-61.7"/>
</g>
<!-- Relation of Equivalence -->
<g id="node15" class="node">
<title>Relation of Equivalence</title>
<g id="a_node15"><a xlink:href="../Relation of Equivalence.html" xlink:title="Relation of Equivalence" target="_parent">
<ellipse fill="#273434" stroke="#b75867" cx="2083.48" cy="-18" rx="91.95" ry="18"/>
<text text-anchor="middle" x="2083.48" y="-14.9" font-family="sans" font-size="12.00" fill="#c4c7c7">Relation of Equivalence</text>
</a>
</g>
</g>
<!-- Relation&#45;&gt;Relation of Equivalence -->
<g id="edge16" class="edge">
<title>Relation&#45;&gt;Relation of Equivalence</title>
<path fill="none" stroke="#ffffff" d="M1252.91,-87.58C1369.75,-83.35 1705.96,-69.02 1983.48,-36 1995.1,-34.62 2007.44,-32.8 2019.33,-30.88"/>
<polygon fill="#ffffff" stroke="#ffffff" points="1252.48,-84.09 1242.61,-87.95 1252.73,-91.09 1252.48,-84.09"/>
</g>
<!-- Chain -->
<g id="node16" class="node">
<title>Chain</title>
<g id="a_node16"><a xlink:href="../Chain.html" xlink:title="Chain" target="_parent">
<ellipse fill="#273434" stroke="#b75867" cx="1383.48" cy="-18" rx="30.33" ry="18"/>
<text text-anchor="middle" x="1383.48" y="-14.9" font-family="sans" font-size="12.00" fill="#c4c7c7">Chain</text>
</a>
</g>
</g>
<!-- Relation&#45;&gt;Chain -->
<g id="edge17" class="edge">
<title>Relation&#45;&gt;Chain</title>
<path fill="none" stroke="#ffffff" d="M1251.92,-73.03C1278.47,-62.7 1313.61,-48.83 1344.48,-36 1349.52,-33.9 1354.91,-31.6 1360.02,-29.38"/>
<polygon fill="#ffffff" stroke="#ffffff" points="1250.6,-69.79 1242.55,-76.67 1253.14,-76.31 1250.6,-69.79"/>
</g>
<!-- Partial function -->
<g id="node17" class="node">
<title>Partial function</title>
<g id="a_node17"><a xlink:href="../Partial function.html" xlink:title="Partial function" target="_parent">
<ellipse fill="#273434" stroke="#b75867" cx="1495.48" cy="-18" rx="63.31" ry="18"/>
<text text-anchor="middle" x="1495.48" y="-14.9" font-family="sans" font-size="12.00" fill="#c4c7c7">Partial function</text>
</a>
</g>
</g>
<!-- Relation&#45;&gt;Partial function -->
<g id="edge18" class="edge">
<title>Relation&#45;&gt;Partial function</title>
<path fill="none" stroke="#ffffff" d="M1252.61,-78.65C1305.15,-65.75 1394.66,-43.76 1449.11,-30.39"/>
<polygon fill="#ffffff" stroke="#ffffff" points="1251.49,-75.32 1242.61,-81.11 1253.16,-82.12 1251.49,-75.32"/>
</g>
<!-- Linear order -->
<g id="node18" class="node">
<title>Linear order</title>
<g id="a_node18"><a xlink:href="../Linear order.html" xlink:title="Linear order" target="_parent">
<ellipse fill="#273434" stroke="#b75867" cx="1629.48" cy="-18" rx="52.88" ry="18"/>
<text text-anchor="middle" x="1629.48" y="-14.9" font-family="sans" font-size="12.00" fill="#c4c7c7">Linear order</text>
</a>
</g>
</g>
<!-- Relation&#45;&gt;Linear order -->
<g id="edge20" class="edge">
<title>Relation&#45;&gt;Linear order</title>
<path fill="none" stroke="#ffffff" d="M1252.89,-84.38C1320.07,-76.68 1454.86,-59.71 1567.48,-36 1575.01,-34.41 1582.99,-32.45 1590.62,-30.42"/>
<polygon fill="#ffffff" stroke="#ffffff" points="1252.25,-80.93 1242.71,-85.53 1253.04,-87.88 1252.25,-80.93"/>
</g>
<!-- Total function -->
<g id="node19" class="node">
<title>Total function</title>
<g id="a_node19"><a xlink:href="../Total function.html" xlink:title="Total function" target="_parent">
<ellipse fill="#273434" stroke="#b75867" cx="1758.48" cy="-18" rx="58.46" ry="18"/>
<text text-anchor="middle" x="1758.48" y="-14.9" font-family="sans" font-size="12.00" fill="#c4c7c7">Total function</text>
</a>
</g>
</g>
<!-- Relation&#45;&gt;Total function -->
<g id="edge21" class="edge">
<title>Relation&#45;&gt;Total function</title>
<path fill="none" stroke="#ffffff" d="M1252.66,-86.33C1336.7,-80.57 1530.74,-65.1 1691.48,-36 1699.62,-34.52 1708.25,-32.61 1716.5,-30.6"/>
<polygon fill="#ffffff" stroke="#ffffff" points="1252.24,-82.85 1242.5,-87.01 1252.71,-89.83 1252.24,-82.85"/>
</g>
<!-- Partial order -->
<g id="node20" class="node">
<title>Partial order</title>
<g id="a_node20"><a xlink:href="../Partial order.html" xlink:title="Partial order" target="_parent">
<ellipse fill="#273434" stroke="#b75867" cx="155.48" cy="-18" rx="52.88" ry="18"/>
<text text-anchor="middle" x="155.48" y="-14.9" font-family="sans" font-size="12.00" fill="#c4c7c7">Partial order</text>
</a>
</g>
</g>
<!-- Relation&#45;&gt;Partial order -->
<g id="edge22" class="edge">
<title>Relation&#45;&gt;Partial order</title>
<path fill="none" stroke="#ffffff" d="M1168.38,-72.86C1167.07,-72.54 1165.77,-72.26 1164.48,-72 750.91,10.1 633.07,-101.04 216.48,-36 208.76,-34.8 200.64,-32.95 192.92,-30.92"/>
<polygon fill="#ffffff" stroke="#ffffff" points="1167.85,-76.35 1178.43,-75.7 1169.76,-69.61 1167.85,-76.35"/>
</g>
<!-- Set&#45;&gt;Reflexive Closure -->
<g id="edge23" class="edge">
<title>Set&#45;&gt;Reflexive Closure</title>
<path fill="none" stroke="#ffffff" d="M2676.41,-88.17C2568.69,-85.37 2246.64,-74.17 1982.48,-36 1973.15,-34.65 1963.27,-32.82 1953.8,-30.86"/>
<polygon fill="#ffffff" stroke="#ffffff" points="2676.36,-91.67 2686.44,-88.43 2676.53,-84.67 2676.36,-91.67"/>
</g>
<!-- Set&#45;&gt;Relation of Equivalence -->
<g id="edge25" class="edge">
<title>Set&#45;&gt;Relation of Equivalence</title>
<path fill="none" stroke="#ffffff" d="M2676.25,-86.16C2589.6,-79.37 2367.78,-60.85 2183.48,-36 2172.13,-34.47 2160.1,-32.62 2148.46,-30.71"/>
<polygon fill="#ffffff" stroke="#ffffff" points="2676.13,-89.66 2686.37,-86.95 2676.67,-82.69 2676.13,-89.66"/>
</g>
<!-- Class of equivalence -->
<g id="node21" class="node">
<title>Class of equivalence</title>
<g id="a_node21"><a xlink:href="../Class of equivalence.html" xlink:title="Class of equivalence" target="_parent">
<ellipse fill="#273434" stroke="#b75867" cx="3821.48" cy="-18" rx="80.78" ry="18"/>
<text text-anchor="middle" x="3821.48" y="-14.9" font-family="sans" font-size="12.00" fill="#c4c7c7">Class of equivalence</text>
</a>
</g>
</g>
<!-- Set&#45;&gt;Class of equivalence -->
<g id="edge24" class="edge">
<title>Set&#45;&gt;Class of equivalence</title>
<path fill="none" stroke="#ffffff" d="M2750.87,-88.9C2884.55,-88.14 3351.06,-82.13 3732.48,-36 3743.1,-34.72 3754.35,-32.91 3765.16,-30.96"/>
<polygon fill="#ffffff" stroke="#ffffff" points="2750.74,-85.4 2740.75,-88.95 2750.77,-92.4 2750.74,-85.4"/>
</g>
<!-- Recurrent Equations -->
<g id="node22" class="node">
<title>Recurrent Equations</title>
<g id="a_node22"><a xlink:href="../Recurrent Equations.html" xlink:title="Recurrent Equations" target="_parent">
<ellipse fill="#273434" stroke="#b75867" cx="2273.48" cy="-18" rx="80.78" ry="18"/>
<text text-anchor="middle" x="2273.48" y="-14.9" font-family="sans" font-size="12.00" fill="#c4c7c7">Recurrent Equations</text>
</a>
</g>
</g>
<!-- Set&#45;&gt;Recurrent Equations -->
<g id="edge26" class="edge">
<title>Set&#45;&gt;Recurrent Equations</title>
<path fill="none" stroke="#ffffff" d="M2676.06,-83.84C2611.81,-74.86 2476.41,-55.48 2362.48,-36 2352.55,-34.3 2342.03,-32.39 2331.82,-30.48"/>
<polygon fill="#ffffff" stroke="#ffffff" points="2675.72,-87.32 2686.11,-85.24 2676.69,-80.39 2675.72,-87.32"/>
</g>
<!-- Principle of division -->
<g id="node23" class="node">
<title>Principle of division</title>
<g id="a_node23"><a xlink:href="../Principle of division.html" xlink:title="Principle of division" target="_parent">
<ellipse fill="#273434" stroke="#b75867" cx="2449.48" cy="-18" rx="77.63" ry="18"/>
<text text-anchor="middle" x="2449.48" y="-14.9" font-family="sans" font-size="12.00" fill="#c4c7c7">Principle of division</text>
</a>
</g>
</g>
<!-- Set&#45;&gt;Principle of division -->
<g id="edge27" class="edge">
<title>Set&#45;&gt;Principle of division</title>
<path fill="none" stroke="#ffffff" d="M2676.55,-79.21C2630.06,-66.88 2550.04,-45.67 2498.47,-31.99"/>
<polygon fill="#ffffff" stroke="#ffffff" points="2675.65,-82.59 2686.22,-81.77 2677.45,-75.83 2675.65,-82.59"/>
</g>
<!-- Principle of products -->
<g id="node24" class="node">
<title>Principle of products</title>
<g id="a_node24"><a xlink:href="../Principle of products.html" xlink:title="Principle of products" target="_parent">
<ellipse fill="#273434" stroke="#b75867" cx="2627.48" cy="-18" rx="82.48" ry="18"/>
<text text-anchor="middle" x="2627.48" y="-14.9" font-family="sans" font-size="12.00" fill="#c4c7c7">Principle of products</text>
</a>
</g>
</g>
<!-- Set&#45;&gt;Principle of products -->
<g id="edge28" class="edge">
<title>Set&#45;&gt;Principle of products</title>
<path fill="none" stroke="#ffffff" d="M2684.25,-65.21C2672.3,-55.48 2658.76,-44.46 2647.9,-35.62"/>
<polygon fill="#ffffff" stroke="#ffffff" points="2682.25,-68.1 2692.22,-71.7 2686.67,-62.67 2682.25,-68.1"/>
</g>
<!-- Dirichlet principle -->
<g id="node25" class="node">
<title>Dirichlet principle</title>
<g id="a_node25"><a xlink:href="../Dirichlet principle.html" xlink:title="Dirichlet principle" target="_parent">
<ellipse fill="#273434" stroke="#b75867" cx="2799.48" cy="-18" rx="71.32" ry="18"/>
<text text-anchor="middle" x="2799.48" y="-14.9" font-family="sans" font-size="12.00" fill="#c4c7c7">Dirichlet principle</text>
</a>
</g>
</g>
<!-- Set&#45;&gt;Dirichlet principle -->
<g id="edge29" class="edge">
<title>Set&#45;&gt;Dirichlet principle</title>
<path fill="none" stroke="#ffffff" d="M2742.76,-65.16C2754.81,-55.36 2768.46,-44.25 2779.35,-35.38"/>
<polygon fill="#ffffff" stroke="#ffffff" points="2740.28,-62.67 2734.73,-71.7 2744.7,-68.1 2740.28,-62.67"/>
</g>
<!-- Principle of inclusion and exclusion -->
<g id="node26" class="node">
<title>Principle of inclusion and exclusion</title>
<g id="a_node26"><a xlink:href="../Principle of inclusion and exclusion.html" xlink:title="Principle of inclusion and exclusion" target="_parent">
<ellipse fill="#273434" stroke="#b75867" cx="3021.48" cy="-18" rx="132.2" ry="18"/>
<text text-anchor="middle" x="3021.48" y="-14.9" font-family="sans" font-size="12.00" fill="#c4c7c7">Principle of inclusion and exclusion</text>
</a>
</g>
</g>
<!-- Set&#45;&gt;Principle of inclusion and exclusion -->
<g id="edge30" class="edge">
<title>Set&#45;&gt;Principle of inclusion and exclusion</title>
<path fill="none" stroke="#ffffff" d="M2750.46,-80.59C2801.45,-69.01 2894.14,-47.94 2956.75,-33.71"/>
<polygon fill="#ffffff" stroke="#ffffff" points="2749.51,-77.22 2740.54,-82.85 2751.07,-84.05 2749.51,-77.22"/>
</g>
<!-- Differential Analysis -->
<g id="node27" class="node">
<title>Differential Analysis</title>
<g id="a_node27"><a xlink:href="../Differential Analysis.html" xlink:title="Differential Analysis" target="_parent">
<ellipse fill="#273434" stroke="#b75867" cx="3250.48" cy="-18" rx="78.36" ry="18"/>
<text text-anchor="middle" x="3250.48" y="-14.9" font-family="sans" font-size="12.00" fill="#c4c7c7">Differential Analysis</text>
</a>
</g>
</g>
<!-- Set&#45;&gt;Differential Analysis -->
<g id="edge31" class="edge">
<title>Set&#45;&gt;Differential Analysis</title>
<path fill="none" stroke="#ffffff" d="M2750.82,-85.53C2827.96,-78.15 3010.43,-59.63 3162.48,-36 3172.62,-34.42 3183.39,-32.53 3193.78,-30.59"/>
<polygon fill="#ffffff" stroke="#ffffff" points="2750.27,-82.06 2740.65,-86.49 2750.93,-89.03 2750.27,-82.06"/>
</g>
<!-- Principle of partitions -->
<g id="node28" class="node">
<title>Principle of partitions</title>
<g id="a_node28"><a xlink:href="../Principle of partitions.html" xlink:title="Principle of partitions" target="_parent">
<ellipse fill="#273434" stroke="#b75867" cx="3431.48" cy="-18" rx="84.17" ry="18"/>
<text text-anchor="middle" x="3431.48" y="-14.9" font-family="sans" font-size="12.00" fill="#c4c7c7">Principle of partitions</text>
</a>
</g>
</g>
<!-- Set&#45;&gt;Principle of partitions -->
<g id="edge32" class="edge">
<title>Set&#45;&gt;Principle of partitions</title>
<path fill="none" stroke="#ffffff" d="M2750.82,-87.06C2847.88,-81.75 3115.94,-65.37 3337.48,-36 3348.49,-34.54 3360.18,-32.68 3371.43,-30.73"/>
<polygon fill="#ffffff" stroke="#ffffff" points="2750.44,-83.57 2740.64,-87.61 2750.81,-90.56 2750.44,-83.57"/>
</g>
<!-- Principle of the bijection -->
<g id="node29" class="node">
<title>Principle of the bijection</title>
<g id="a_node29"><a xlink:href="../Principle of the bijection.html" xlink:title="Principle of the bijection" target="_parent">
<ellipse fill="#273434" stroke="#b75867" cx="3628.48" cy="-18" rx="94.6" ry="18"/>
<text text-anchor="middle" x="3628.48" y="-14.9" font-family="sans" font-size="12.00" fill="#c4c7c7">Principle of the bijection</text>
</a>
</g>
</g>
<!-- Set&#45;&gt;Principle of the bijection -->
<g id="edge33" class="edge">
<title>Set&#45;&gt;Principle of the bijection</title>
<path fill="none" stroke="#ffffff" d="M2750.57,-87.85C2865.7,-84.02 3227.1,-69.94 3524.48,-36 3536.65,-34.61 3549.58,-32.78 3562.03,-30.84"/>
<polygon fill="#ffffff" stroke="#ffffff" points="2750.39,-84.36 2740.51,-88.18 2750.62,-91.35 2750.39,-84.36"/>
</g>
<!-- Symmetric Relation&#45;&gt;Relation -->
<g id="edge6" class="edge">
<title>Symmetric Relation&#45;&gt;Relation</title>
<path fill="none" stroke="#b75867" d="M1195.42,-143.7C1197.65,-135.9 1200.33,-126.51 1202.81,-117.83"/>
<polygon fill="#b75867" stroke="#b75867" points="1206.21,-118.68 1205.59,-108.1 1199.48,-116.76 1206.21,-118.68"/>
</g>
<!-- Symmetric Relation&#45;&gt;Relations -->
<g id="edge35" class="edge">
<title>Symmetric Relation&#45;&gt;Relations</title>
<path fill="none" stroke="#ffffff" d="M1180.87,-134.57C1171.69,-113.55 1155.64,-85.52 1131.48,-72 1030.76,-15.66 207.05,-56.46 93.48,-36 86.68,-34.78 79.55,-32.84 72.85,-30.7"/>
<polygon fill="#ffffff" stroke="#ffffff" points="1177.68,-136.02 1184.72,-143.94 1184.16,-133.36 1177.68,-136.02"/>
</g>
<!-- Symmetric Relation&#45;&gt;Relation of Equivalence -->
<g id="edge34" class="edge">
<title>Symmetric Relation&#45;&gt;Relation of Equivalence</title>
<path fill="none" stroke="#ffffff" d="M1264.72,-149.6C1405.15,-127.98 1719.3,-79.27 1983.48,-36 1994.25,-34.24 2005.67,-32.33 2016.79,-30.45"/>
<polygon fill="#ffffff" stroke="#ffffff" points="1263.85,-146.19 1254.5,-151.18 1264.92,-153.11 1263.85,-146.19"/>
</g>
</g>
</svg>
