<?xml version="1.0" encoding="UTF-8" standalone="no"?>
<!DOCTYPE svg PUBLIC "-//W3C//DTD SVG 1.1//EN"
 "http://www.w3.org/Graphics/SVG/1.1/DTD/svg11.dtd">
<!-- Generated by graphviz version 2.44.0 (0)
 -->
<!-- Title: Symmetric Relation Pages: 1 -->
<svg width="2353pt" height="188pt"
 viewBox="0.00 0.00 2353.12 188.00" xmlns="http://www.w3.org/2000/svg" xmlns:xlink="http://www.w3.org/1999/xlink">
<g id="page0,1_graph0" class="graph" transform="scale(1 1) rotate(0) translate(4 184)">
<title>Symmetric Relation</title>
<polygon fill="#132020" stroke="transparent" points="-4,4 -4,-184 2349.12,-184 2349.12,4 -4,4"/>
<!-- Symmetric Relation -->
<g id="node1" class="node">
<title>Symmetric Relation</title>
<g id="a_node1"><a xlink:title="Symmetric Relation">
<path fill="#273434" stroke="#b75867" d="M407.72,-180C407.72,-180 303.72,-180 303.72,-180 297.72,-180 291.72,-174 291.72,-168 291.72,-168 291.72,-156 291.72,-156 291.72,-150 297.72,-144 303.72,-144 303.72,-144 407.72,-144 407.72,-144 413.72,-144 419.72,-150 419.72,-156 419.72,-156 419.72,-168 419.72,-168 419.72,-174 413.72,-180 407.72,-180"/>
<text text-anchor="middle" x="355.72" y="-158.9" font-family="sans" font-size="12.00" fill="#c4c7c7">Symmetric Relation</text>
</a>
</g>
</g>
<!-- Relation -->
<g id="node2" class="node">
<title>Relation</title>
<g id="a_node2"><a xlink:title="Relation">
<path fill="#273434" stroke="#b75867" d="M1018.72,-108C1018.72,-108 978.72,-108 978.72,-108 972.72,-108 966.72,-102 966.72,-96 966.72,-96 966.72,-84 966.72,-84 966.72,-78 972.72,-72 978.72,-72 978.72,-72 1018.72,-72 1018.72,-72 1024.72,-72 1030.72,-78 1030.72,-84 1030.72,-84 1030.72,-96 1030.72,-96 1030.72,-102 1024.72,-108 1018.72,-108"/>
<text text-anchor="middle" x="998.72" y="-86.9" font-family="sans" font-size="12.00" fill="#c4c7c7">Relation</text>
</a>
</g>
</g>
<!-- Symmetric Relation&#45;&gt;Relation -->
<g id="edge1" class="edge">
<title>Symmetric Relation&#45;&gt;Relation</title>
<path fill="none" stroke="#b75867" d="M419.72,-154.03C550.81,-139.76 846.74,-107.54 956.61,-95.58"/>
<polygon fill="#b75867" stroke="#b75867" points="957.09,-99.05 966.65,-94.49 956.33,-92.09 957.09,-99.05"/>
</g>
<!-- Symmetric Closure -->
<g id="node4" class="node">
<title>Symmetric Closure</title>
<g id="a_node4"><a xlink:title="Symmetric Closure">
<ellipse fill="#273434" stroke="#b75867" cx="75.72" cy="-18" rx="75.94" ry="18"/>
<text text-anchor="middle" x="75.72" y="-14.9" font-family="sans" font-size="12.00" fill="#c4c7c7">Symmetric Closure</text>
</a>
</g>
</g>
<!-- Symmetric Relation&#45;&gt;Symmetric Closure -->
<g id="edge3" class="edge">
<title>Symmetric Relation&#45;&gt;Symmetric Closure</title>
<path fill="none" stroke="#ffffff" d="M312.84,-139.26C255.91,-110.38 156.74,-60.09 106.61,-34.67"/>
<polygon fill="#ffffff" stroke="#ffffff" points="311.44,-142.47 321.94,-143.87 314.61,-136.23 311.44,-142.47"/>
</g>
<!-- Relation of Equivalence -->
<g id="node5" class="node">
<title>Relation of Equivalence</title>
<g id="a_node5"><a xlink:title="Relation of Equivalence">
<ellipse fill="#273434" stroke="#b75867" cx="260.72" cy="-18" rx="91.95" ry="18"/>
<text text-anchor="middle" x="260.72" y="-14.9" font-family="sans" font-size="12.00" fill="#c4c7c7">Relation of Equivalence</text>
</a>
</g>
</g>
<!-- Symmetric Relation&#45;&gt;Relation of Equivalence -->
<g id="edge4" class="edge">
<title>Symmetric Relation&#45;&gt;Relation of Equivalence</title>
<path fill="none" stroke="#ffffff" d="M338.7,-135.56C319.49,-106.86 288.79,-60.96 272.22,-36.19"/>
<polygon fill="#ffffff" stroke="#ffffff" points="335.79,-137.51 344.26,-143.87 341.61,-133.61 335.79,-137.51"/>
</g>
<!-- Relations -->
<g id="node6" class="node">
<title>Relations</title>
<g id="a_node6"><a xlink:title="Relations">
<ellipse fill="#273434" stroke="#b75867" cx="412.72" cy="-18" rx="42.45" ry="18"/>
<text text-anchor="middle" x="412.72" y="-14.9" font-family="sans" font-size="12.00" fill="#c4c7c7">Relations</text>
</a>
</g>
</g>
<!-- Symmetric Relation&#45;&gt;Relations -->
<g id="edge5" class="edge">
<title>Symmetric Relation&#45;&gt;Relations</title>
<path fill="none" stroke="#ffffff" d="M366.38,-134.44C377.93,-105.67 396,-60.64 405.82,-36.19"/>
<polygon fill="#ffffff" stroke="#ffffff" points="363.07,-133.29 362.59,-143.87 369.57,-135.9 363.07,-133.29"/>
</g>
<!-- Descartes Product -->
<g id="node3" class="node">
<title>Descartes Product</title>
<g id="a_node3"><a xlink:title="Descartes Product">
<path fill="#273434" stroke="#b75867" d="M961.22,-36C961.22,-36 866.22,-36 866.22,-36 860.22,-36 854.22,-30 854.22,-24 854.22,-24 854.22,-12 854.22,-12 854.22,-6 860.22,0 866.22,0 866.22,0 961.22,0 961.22,0 967.22,0 973.22,-6 973.22,-12 973.22,-12 973.22,-24 973.22,-24 973.22,-30 967.22,-36 961.22,-36"/>
<text text-anchor="middle" x="913.72" y="-14.9" font-family="sans" font-size="12.00" fill="#c4c7c7">Descartes Product</text>
</a>
</g>
</g>
<!-- Relation&#45;&gt;Descartes Product -->
<g id="edge2" class="edge">
<title>Relation&#45;&gt;Descartes Product</title>
<path fill="none" stroke="#b75867" d="M977.71,-71.7C967,-62.88 953.83,-52.03 942.22,-42.47"/>
<polygon fill="#b75867" stroke="#b75867" points="944.43,-39.76 934.49,-36.1 939.98,-45.16 944.43,-39.76"/>
</g>
<!-- Relation&#45;&gt;Symmetric Closure -->
<g id="edge12" class="edge">
<title>Relation&#45;&gt;Symmetric Closure</title>
<path fill="none" stroke="#ffffff" d="M956.41,-88.37C833.08,-86.08 463.4,-76.13 159.72,-36 149.69,-34.67 139.06,-32.85 128.86,-30.89"/>
<polygon fill="#ffffff" stroke="#ffffff" points="956.5,-91.87 966.56,-88.55 956.62,-84.87 956.5,-91.87"/>
</g>
<!-- Relation&#45;&gt;Relation of Equivalence -->
<g id="edge13" class="edge">
<title>Relation&#45;&gt;Relation of Equivalence</title>
<path fill="none" stroke="#ffffff" d="M956.22,-86.7C853.7,-80.88 584.78,-64 361.72,-36 350.07,-34.54 337.72,-32.7 325.8,-30.78"/>
<polygon fill="#ffffff" stroke="#ffffff" points="956.29,-90.21 966.47,-87.27 956.68,-83.22 956.29,-90.21"/>
</g>
<!-- Relation&#45;&gt;Relations -->
<g id="edge16" class="edge">
<title>Relation&#45;&gt;Relations</title>
<path fill="none" stroke="#ffffff" d="M956.49,-88.01C865.46,-85.17 644.38,-74.55 463.72,-36 457.05,-34.58 450.04,-32.58 443.43,-30.46"/>
<polygon fill="#ffffff" stroke="#ffffff" points="956.58,-91.51 966.68,-88.31 956.79,-84.51 956.58,-91.51"/>
</g>
<!-- Anti&#45;symmetric Relation -->
<g id="node7" class="node">
<title>Anti&#45;symmetric Relation</title>
<g id="a_node7"><a xlink:title="Anti&#45;symmetric Relation">
<ellipse fill="#273434" stroke="#b75867" cx="1084.72" cy="-18" rx="93.64" ry="18"/>
<text text-anchor="middle" x="1084.72" y="-14.9" font-family="sans" font-size="12.00" fill="#c4c7c7">Anti&#45;symmetric Relation</text>
</a>
</g>
</g>
<!-- Relation&#45;&gt;Anti&#45;symmetric Relation -->
<g id="edge6" class="edge">
<title>Relation&#45;&gt;Anti&#45;symmetric Relation</title>
<path fill="none" stroke="#ffffff" d="M1027.94,-65.21C1039.9,-55.48 1053.44,-44.46 1064.3,-35.62"/>
<polygon fill="#ffffff" stroke="#ffffff" points="1025.52,-62.67 1019.98,-71.7 1029.94,-68.1 1025.52,-62.67"/>
</g>
<!-- Transitive Relation -->
<g id="node8" class="node">
<title>Transitive Relation</title>
<g id="a_node8"><a xlink:title="Transitive Relation">
<ellipse fill="#273434" stroke="#b75867" cx="1270.72" cy="-18" rx="74.47" ry="18"/>
<text text-anchor="middle" x="1270.72" y="-14.9" font-family="sans" font-size="12.00" fill="#c4c7c7">Transitive Relation</text>
</a>
</g>
</g>
<!-- Relation&#45;&gt;Transitive Relation -->
<g id="edge7" class="edge">
<title>Relation&#45;&gt;Transitive Relation</title>
<path fill="none" stroke="#ffffff" d="M1040.61,-78.22C1089.34,-65.68 1169.67,-45.01 1221.37,-31.7"/>
<polygon fill="#ffffff" stroke="#ffffff" points="1039.53,-74.88 1030.72,-80.76 1041.28,-81.66 1039.53,-74.88"/>
</g>
<!-- Reflexive Relation -->
<g id="node9" class="node">
<title>Reflexive Relation</title>
<g id="a_node9"><a xlink:title="Reflexive Relation">
<ellipse fill="#273434" stroke="#b75867" cx="1435.72" cy="-18" rx="72.05" ry="18"/>
<text text-anchor="middle" x="1435.72" y="-14.9" font-family="sans" font-size="12.00" fill="#c4c7c7">Reflexive Relation</text>
</a>
</g>
</g>
<!-- Relation&#45;&gt;Reflexive Relation -->
<g id="edge8" class="edge">
<title>Relation&#45;&gt;Reflexive Relation</title>
<path fill="none" stroke="#ffffff" d="M1041.25,-83.44C1107.99,-74.53 1241.33,-56.02 1353.72,-36 1363.16,-34.32 1373.19,-32.37 1382.87,-30.41"/>
<polygon fill="#ffffff" stroke="#ffffff" points="1040.57,-80 1031.12,-84.78 1041.5,-86.94 1040.57,-80"/>
</g>
<!-- Anti&#45;reflexive relation -->
<g id="node10" class="node">
<title>Anti&#45;reflexive relation</title>
<g id="a_node10"><a xlink:title="Anti&#45;reflexive relation">
<ellipse fill="#273434" stroke="#b75867" cx="1610.72" cy="-18" rx="84.9" ry="18"/>
<text text-anchor="middle" x="1610.72" y="-14.9" font-family="sans" font-size="12.00" fill="#c4c7c7">Anti&#45;reflexive relation</text>
</a>
</g>
</g>
<!-- Relation&#45;&gt;Anti&#45;reflexive relation -->
<g id="edge9" class="edge">
<title>Relation&#45;&gt;Anti&#45;reflexive relation</title>
<path fill="none" stroke="#ffffff" d="M1041.14,-85.77C1129.74,-78.79 1340.82,-60.87 1516.72,-36 1527.55,-34.47 1539.05,-32.6 1550.15,-30.66"/>
<polygon fill="#ffffff" stroke="#ffffff" points="1040.65,-82.3 1030.95,-86.57 1041.19,-89.28 1040.65,-82.3"/>
</g>
<!-- Strongly Anti&#45;symmetric Relation -->
<g id="node11" class="node">
<title>Strongly Anti&#45;symmetric Relation</title>
<g id="a_node11"><a xlink:title="Strongly Anti&#45;symmetric Relation">
<ellipse fill="#273434" stroke="#b75867" cx="1838.72" cy="-18" rx="124.93" ry="18"/>
<text text-anchor="middle" x="1838.72" y="-14.9" font-family="sans" font-size="12.00" fill="#c4c7c7">Strongly Anti&#45;symmetric Relation</text>
</a>
</g>
</g>
<!-- Relation&#45;&gt;Strongly Anti&#45;symmetric Relation -->
<g id="edge10" class="edge">
<title>Relation&#45;&gt;Strongly Anti&#45;symmetric Relation</title>
<path fill="none" stroke="#ffffff" d="M1040.77,-86.6C1150.29,-80.18 1453.26,-61.37 1704.72,-36 1719.65,-34.49 1735.49,-32.68 1750.85,-30.8"/>
<polygon fill="#ffffff" stroke="#ffffff" points="1040.56,-83.1 1030.79,-87.18 1040.97,-90.09 1040.56,-83.1"/>
</g>
<!-- Reflexive Closure -->
<g id="node12" class="node">
<title>Reflexive Closure</title>
<g id="a_node12"><a xlink:title="Reflexive Closure">
<ellipse fill="#273434" stroke="#b75867" cx="2051.72" cy="-18" rx="69.62" ry="18"/>
<text text-anchor="middle" x="2051.72" y="-14.9" font-family="sans" font-size="12.00" fill="#c4c7c7">Reflexive Closure</text>
</a>
</g>
</g>
<!-- Relation&#45;&gt;Reflexive Closure -->
<g id="edge11" class="edge">
<title>Relation&#45;&gt;Reflexive Closure</title>
<path fill="none" stroke="#ffffff" d="M1041.23,-89.07C1177.41,-88.79 1614.82,-83.94 1972.72,-36 1982.45,-34.7 1992.77,-32.83 2002.62,-30.82"/>
<polygon fill="#ffffff" stroke="#ffffff" points="1040.83,-85.57 1030.84,-89.08 1040.84,-92.57 1040.83,-85.57"/>
</g>
<!-- Chain -->
<g id="node13" class="node">
<title>Chain</title>
<g id="a_node13"><a xlink:title="Chain">
<ellipse fill="#273434" stroke="#b75867" cx="2169.72" cy="-18" rx="30.33" ry="18"/>
<text text-anchor="middle" x="2169.72" y="-14.9" font-family="sans" font-size="12.00" fill="#c4c7c7">Chain</text>
</a>
</g>
</g>
<!-- Relation&#45;&gt;Chain -->
<g id="edge14" class="edge">
<title>Relation&#45;&gt;Chain</title>
<path fill="none" stroke="#ffffff" d="M1040.98,-89.07C1220.16,-89.03 1917.6,-85.66 2130.72,-36 2136.33,-34.69 2142.14,-32.6 2147.51,-30.33"/>
<polygon fill="#ffffff" stroke="#ffffff" points="1040.9,-85.57 1030.9,-89.06 1040.9,-92.57 1040.9,-85.57"/>
</g>
<!-- Partial function -->
<g id="node14" class="node">
<title>Partial function</title>
<g id="a_node14"><a xlink:title="Partial function">
<ellipse fill="#273434" stroke="#b75867" cx="2281.72" cy="-18" rx="63.31" ry="18"/>
<text text-anchor="middle" x="2281.72" y="-14.9" font-family="sans" font-size="12.00" fill="#c4c7c7">Partial function</text>
</a>
</g>
</g>
<!-- Relation&#45;&gt;Partial function -->
<g id="edge15" class="edge">
<title>Relation&#45;&gt;Partial function</title>
<path fill="none" stroke="#ffffff" d="M1040.93,-88.2C1227.09,-84.51 1975.88,-67.93 2208.72,-36 2217.87,-34.74 2227.56,-32.88 2236.79,-30.84"/>
<polygon fill="#ffffff" stroke="#ffffff" points="1040.66,-84.7 1030.73,-88.4 1040.79,-91.7 1040.66,-84.7"/>
</g>
<!-- Linear order -->
<g id="node15" class="node">
<title>Linear order</title>
<g id="a_node15"><a xlink:title="Linear order">
<ellipse fill="#273434" stroke="#b75867" cx="525.72" cy="-18" rx="52.88" ry="18"/>
<text text-anchor="middle" x="525.72" y="-14.9" font-family="sans" font-size="12.00" fill="#c4c7c7">Linear order</text>
</a>
</g>
</g>
<!-- Relation&#45;&gt;Linear order -->
<g id="edge17" class="edge">
<title>Relation&#45;&gt;Linear order</title>
<path fill="none" stroke="#ffffff" d="M956.52,-85.51C881.7,-78.9 721.11,-62.75 587.72,-36 580.06,-34.46 571.95,-32.5 564.21,-30.45"/>
<polygon fill="#ffffff" stroke="#ffffff" points="956.23,-89 966.49,-86.38 956.84,-82.03 956.23,-89"/>
</g>
<!-- Total function -->
<g id="node16" class="node">
<title>Total function</title>
<g id="a_node16"><a xlink:title="Total function">
<ellipse fill="#273434" stroke="#b75867" cx="654.72" cy="-18" rx="58.46" ry="18"/>
<text text-anchor="middle" x="654.72" y="-14.9" font-family="sans" font-size="12.00" fill="#c4c7c7">Total function</text>
</a>
</g>
</g>
<!-- Relation&#45;&gt;Total function -->
<g id="edge18" class="edge">
<title>Relation&#45;&gt;Total function</title>
<path fill="none" stroke="#ffffff" d="M956.63,-81.75C902.21,-72.19 804.56,-54.42 721.72,-36 713.99,-34.28 705.79,-32.32 697.88,-30.35"/>
<polygon fill="#ffffff" stroke="#ffffff" points="956.15,-85.22 966.6,-83.49 957.35,-78.32 956.15,-85.22"/>
</g>
<!-- Partial order -->
<g id="node17" class="node">
<title>Partial order</title>
<g id="a_node17"><a xlink:title="Partial order">
<ellipse fill="#273434" stroke="#b75867" cx="783.72" cy="-18" rx="52.88" ry="18"/>
<text text-anchor="middle" x="783.72" y="-14.9" font-family="sans" font-size="12.00" fill="#c4c7c7">Partial order</text>
</a>
</g>
</g>
<!-- Relation&#45;&gt;Partial order -->
<g id="edge19" class="edge">
<title>Relation&#45;&gt;Partial order</title>
<path fill="none" stroke="#ffffff" d="M956.92,-75.39C917.42,-62.53 858.71,-43.42 820.82,-31.08"/>
<polygon fill="#ffffff" stroke="#ffffff" points="955.94,-78.75 966.53,-78.52 958.1,-72.1 955.94,-78.75"/>
</g>
</g>
</svg>
