<?xml version="1.0" encoding="UTF-8" standalone="no"?>
<!DOCTYPE svg PUBLIC "-//W3C//DTD SVG 1.1//EN"
 "http://www.w3.org/Graphics/SVG/1.1/DTD/svg11.dtd">
<!-- Generated by graphviz version 2.44.0 (0)
 -->
<!-- Title: The Lagrange Interpolation Polynomial of a Polynomial is itself Pages: 1 -->
<svg width="875pt" height="332pt"
 viewBox="0.00 0.00 874.99 332.00" xmlns="http://www.w3.org/2000/svg" xmlns:xlink="http://www.w3.org/1999/xlink">
<g id="page0,1_graph0" class="graph" transform="scale(1 1) rotate(0) translate(4 328)">
<title>The Lagrange Interpolation Polynomial of a Polynomial is itself</title>
<polygon fill="#132020" stroke="transparent" points="-4,4 -4,-328 870.99,-328 870.99,4 -4,4"/>
<!-- The Lagrange Interpolation Polynomial of a Polynomial is itself -->
<g id="node1" class="node">
<title>The Lagrange Interpolation Polynomial of a Polynomial is itself</title>
<g id="a_node1"><a xlink:href="../The Lagrange Interpolation Polynomial of a Polynomial is itself.html" xlink:title="The Lagrange Interpolation Polynomial of a Polynomial is itself" target="_parent">
<path fill="#273434" stroke="#b75867" d="M561.5,-324C561.5,-324 213.5,-324 213.5,-324 207.5,-324 201.5,-318 201.5,-312 201.5,-312 201.5,-300 201.5,-300 201.5,-294 207.5,-288 213.5,-288 213.5,-288 561.5,-288 561.5,-288 567.5,-288 573.5,-294 573.5,-300 573.5,-300 573.5,-312 573.5,-312 573.5,-318 567.5,-324 561.5,-324"/>
<text text-anchor="middle" x="387.5" y="-302.9" font-family="sans" font-size="12.00" fill="#c4c7c7">The Lagrange Interpolation Polynomial of a Polynomial is itself</text>
</a>
</g>
</g>
<!-- Lagrange Interpolation Problem -->
<g id="node2" class="node">
<title>Lagrange Interpolation Problem</title>
<g id="a_node2"><a xlink:href="../Lagrange Interpolation Problem.html" xlink:title="Lagrange Interpolation Problem" target="_parent">
<path fill="#273434" stroke="#b75867" d="M475,-180C475,-180 300,-180 300,-180 294,-180 288,-174 288,-168 288,-168 288,-156 288,-156 288,-150 294,-144 300,-144 300,-144 475,-144 475,-144 481,-144 487,-150 487,-156 487,-156 487,-168 487,-168 487,-174 481,-180 475,-180"/>
<text text-anchor="middle" x="387.5" y="-158.9" font-family="sans" font-size="12.00" fill="#c4c7c7">Lagrange Interpolation Problem</text>
</a>
</g>
</g>
<!-- The Lagrange Interpolation Polynomial of a Polynomial is itself&#45;&gt;Lagrange Interpolation Problem -->
<g id="edge1" class="edge">
<title>The Lagrange Interpolation Polynomial of a Polynomial is itself&#45;&gt;Lagrange Interpolation Problem</title>
<path fill="none" stroke="#b75867" d="M365.35,-287.87C355.09,-278.52 343.98,-266 338.5,-252 332.67,-237.1 332.67,-230.9 338.5,-216 342.7,-205.28 350.19,-195.43 358.08,-187.2"/>
<polygon fill="#b75867" stroke="#b75867" points="360.62,-189.61 365.35,-180.13 355.74,-184.59 360.62,-189.61"/>
</g>
<!-- Lagrange Interpolation Polynomial -->
<g id="node7" class="node">
<title>Lagrange Interpolation Polynomial</title>
<g id="a_node7"><a xlink:href="../Lagrange Interpolation Polynomial.html" xlink:title="Lagrange Interpolation Polynomial" target="_parent">
<path fill="#273434" stroke="#b75867" d="M551,-252C551,-252 360,-252 360,-252 354,-252 348,-246 348,-240 348,-240 348,-228 348,-228 348,-222 354,-216 360,-216 360,-216 551,-216 551,-216 557,-216 563,-222 563,-228 563,-228 563,-240 563,-240 563,-246 557,-252 551,-252"/>
<text text-anchor="middle" x="455.5" y="-230.9" font-family="sans" font-size="12.00" fill="#c4c7c7">Lagrange Interpolation Polynomial</text>
</a>
</g>
</g>
<!-- The Lagrange Interpolation Polynomial of a Polynomial is itself&#45;&gt;Lagrange Interpolation Polynomial -->
<g id="edge2" class="edge">
<title>The Lagrange Interpolation Polynomial of a Polynomial is itself&#45;&gt;Lagrange Interpolation Polynomial</title>
<path fill="none" stroke="#b75867" d="M404.31,-287.7C412.63,-279.14 422.81,-268.66 431.89,-259.3"/>
<polygon fill="#b75867" stroke="#b75867" points="434.43,-261.72 438.88,-252.1 429.41,-256.84 434.43,-261.72"/>
</g>
<!-- Kronecker Delta -->
<g id="node3" class="node">
<title>Kronecker Delta</title>
<g id="a_node3"><a xlink:href="../Kronecker Delta.html" xlink:title="Kronecker Delta" target="_parent">
<path fill="#273434" stroke="#b75867" d="M429,-108C429,-108 346,-108 346,-108 340,-108 334,-102 334,-96 334,-96 334,-84 334,-84 334,-78 340,-72 346,-72 346,-72 429,-72 429,-72 435,-72 441,-78 441,-84 441,-84 441,-96 441,-96 441,-102 435,-108 429,-108"/>
<text text-anchor="middle" x="387.5" y="-86.9" font-family="sans" font-size="12.00" fill="#c4c7c7">Kronecker Delta</text>
</a>
</g>
</g>
<!-- Lagrange Interpolation Problem&#45;&gt;Kronecker Delta -->
<g id="edge3" class="edge">
<title>Lagrange Interpolation Problem&#45;&gt;Kronecker Delta</title>
<path fill="none" stroke="#b75867" d="M387.5,-143.7C387.5,-135.98 387.5,-126.71 387.5,-118.11"/>
<polygon fill="#b75867" stroke="#b75867" points="391,-118.1 387.5,-108.1 384,-118.1 391,-118.1"/>
</g>
<!-- Formula of Lagrange for Interpolation -->
<g id="node4" class="node">
<title>Formula of Lagrange for Interpolation</title>
<g id="a_node4"><a xlink:href="../Formula of Lagrange for Interpolation.html" xlink:title="Formula of Lagrange for Interpolation" target="_parent">
<path fill="#273434" stroke="#b75867" d="M219,-36C219,-36 12,-36 12,-36 6,-36 0,-30 0,-24 0,-24 0,-12 0,-12 0,-6 6,0 12,0 12,0 219,0 219,0 225,0 231,-6 231,-12 231,-12 231,-24 231,-24 231,-30 225,-36 219,-36"/>
<text text-anchor="middle" x="115.5" y="-14.9" font-family="sans" font-size="12.00" fill="#c4c7c7">Formula of Lagrange for Interpolation</text>
</a>
</g>
</g>
<!-- Lagrange Interpolation Problem&#45;&gt;Formula of Lagrange for Interpolation -->
<g id="edge4" class="edge">
<title>Lagrange Interpolation Problem&#45;&gt;Formula of Lagrange for Interpolation</title>
<path fill="none" stroke="#b75867" d="M354.69,-143.87C305.27,-118.07 211.75,-69.25 157.44,-40.9"/>
<polygon fill="#b75867" stroke="#b75867" points="158.91,-37.71 148.43,-36.19 155.67,-43.92 158.91,-37.71"/>
</g>
<!-- Fundamental polynomials of Lagrange -->
<g id="node5" class="node">
<title>Fundamental polynomials of Lagrange</title>
<g id="a_node5"><a xlink:href="../Fundamental polynomials of Lagrange.html" xlink:title="Fundamental polynomials of Lagrange" target="_parent">
<path fill="#273434" stroke="#b75867" d="M473.5,-36C473.5,-36 261.5,-36 261.5,-36 255.5,-36 249.5,-30 249.5,-24 249.5,-24 249.5,-12 249.5,-12 249.5,-6 255.5,0 261.5,0 261.5,0 473.5,0 473.5,0 479.5,0 485.5,-6 485.5,-12 485.5,-12 485.5,-24 485.5,-24 485.5,-30 479.5,-36 473.5,-36"/>
<text text-anchor="middle" x="367.5" y="-14.9" font-family="sans" font-size="12.00" fill="#c4c7c7">Fundamental polynomials of Lagrange</text>
</a>
</g>
</g>
<!-- Lagrange Interpolation Problem&#45;&gt;Fundamental polynomials of Lagrange -->
<g id="edge5" class="edge">
<title>Lagrange Interpolation Problem&#45;&gt;Fundamental polynomials of Lagrange</title>
<path fill="none" stroke="#b75867" d="M357.2,-143.8C344.62,-134.9 331.38,-122.77 324.5,-108 317.75,-93.49 319.15,-87.08 324.5,-72 328.16,-61.68 334.79,-51.9 341.76,-43.61"/>
<polygon fill="#b75867" stroke="#b75867" points="344.37,-45.94 348.46,-36.16 339.17,-41.26 344.37,-45.94"/>
</g>
<!-- Fundamental Theorem of Algebra -->
<g id="node6" class="node">
<title>Fundamental Theorem of Algebra</title>
<g id="a_node6"><a xlink:href="../Fundamental Theorem of Algebra.html" xlink:title="Fundamental Theorem of Algebra" target="_parent">
<path fill="#273434" stroke="#b75867" d="M656,-108C656,-108 471,-108 471,-108 465,-108 459,-102 459,-96 459,-96 459,-84 459,-84 459,-78 465,-72 471,-72 471,-72 656,-72 656,-72 662,-72 668,-78 668,-84 668,-84 668,-96 668,-96 668,-102 662,-108 656,-108"/>
<text text-anchor="middle" x="563.5" y="-86.9" font-family="sans" font-size="12.00" fill="#c4c7c7">Fundamental Theorem of Algebra</text>
</a>
</g>
</g>
<!-- Lagrange Interpolation Problem&#45;&gt;Fundamental Theorem of Algebra -->
<g id="edge6" class="edge">
<title>Lagrange Interpolation Problem&#45;&gt;Fundamental Theorem of Algebra</title>
<path fill="none" stroke="#b75867" d="M430.55,-143.88C454.83,-134.22 485.34,-122.09 511.01,-111.88"/>
<polygon fill="#b75867" stroke="#b75867" points="512.59,-115.02 520.59,-108.07 510,-108.51 512.59,-115.02"/>
</g>
<!-- Lagrange Interpolation -->
<g id="node8" class="node">
<title>Lagrange Interpolation</title>
<g id="a_node8"><a xlink:href="../Lagrange Interpolation.html" xlink:title="Lagrange Interpolation" target="_parent">
<ellipse fill="#273434" stroke="#b75867" cx="776.5" cy="-90" rx="90.48" ry="18"/>
<text text-anchor="middle" x="776.5" y="-86.9" font-family="sans" font-size="12.00" fill="#c4c7c7">Lagrange Interpolation</text>
</a>
</g>
</g>
<!-- Lagrange Interpolation Problem&#45;&gt;Lagrange Interpolation -->
<g id="edge8" class="edge">
<title>Lagrange Interpolation Problem&#45;&gt;Lagrange Interpolation</title>
<path fill="none" stroke="#ffffff" d="M492.33,-142.14C562.24,-129.56 651.93,-113.42 711.66,-102.67"/>
<polygon fill="#ffffff" stroke="#ffffff" points="491.38,-138.75 482.16,-143.97 492.62,-145.64 491.38,-138.75"/>
</g>
<!-- Kronecker Delta&#45;&gt;Formula of Lagrange for Interpolation -->
<g id="edge11" class="edge">
<title>Kronecker Delta&#45;&gt;Formula of Lagrange for Interpolation</title>
<path fill="none" stroke="#ffffff" d="M324.02,-72.66C281.25,-61.66 224.95,-47.17 181.63,-36.02"/>
<polygon fill="#ffffff" stroke="#ffffff" points="323.2,-76.07 333.76,-75.17 324.95,-69.29 323.2,-76.07"/>
</g>
<!-- Kronecker Delta&#45;&gt;Fundamental polynomials of Lagrange -->
<g id="edge9" class="edge">
<title>Kronecker Delta&#45;&gt;Fundamental polynomials of Lagrange</title>
<path fill="none" stroke="#ffffff" d="M379.77,-61.95C377.29,-53.26 374.61,-43.88 372.39,-36.1"/>
<polygon fill="#ffffff" stroke="#ffffff" points="376.44,-63.04 382.56,-71.7 383.17,-61.12 376.44,-63.04"/>
</g>
<!-- Linear Algebra -->
<g id="node9" class="node">
<title>Linear Algebra</title>
<g id="a_node9"><a xlink:href="../Linear Algebra.html" xlink:title="Linear Algebra" target="_parent">
<ellipse fill="#273434" stroke="#b75867" cx="563.5" cy="-18" rx="60.16" ry="18"/>
<text text-anchor="middle" x="563.5" y="-14.9" font-family="sans" font-size="12.00" fill="#c4c7c7">Linear Algebra</text>
</a>
</g>
</g>
<!-- Kronecker Delta&#45;&gt;Linear Algebra -->
<g id="edge10" class="edge">
<title>Kronecker Delta&#45;&gt;Linear Algebra</title>
<path fill="none" stroke="#ffffff" d="M440.04,-68.1C468.76,-56.68 503.53,-42.85 528.85,-32.78"/>
<polygon fill="#ffffff" stroke="#ffffff" points="438.55,-64.93 430.55,-71.88 441.14,-71.43 438.55,-64.93"/>
</g>
<!-- Fundamental Theorem of Algebra&#45;&gt;Linear Algebra -->
<g id="edge13" class="edge">
<title>Fundamental Theorem of Algebra&#45;&gt;Linear Algebra</title>
<path fill="none" stroke="#ffffff" d="M563.5,-61.67C563.5,-53.05 563.5,-43.79 563.5,-36.1"/>
<polygon fill="#ffffff" stroke="#ffffff" points="560,-61.7 563.5,-71.7 567,-61.7 560,-61.7"/>
</g>
<!-- Recurrent Equations -->
<g id="node10" class="node">
<title>Recurrent Equations</title>
<g id="a_node10"><a xlink:href="../Recurrent Equations.html" xlink:title="Recurrent Equations" target="_parent">
<ellipse fill="#273434" stroke="#b75867" cx="722.5" cy="-18" rx="80.78" ry="18"/>
<text text-anchor="middle" x="722.5" y="-14.9" font-family="sans" font-size="12.00" fill="#c4c7c7">Recurrent Equations</text>
</a>
</g>
</g>
<!-- Fundamental Theorem of Algebra&#45;&gt;Recurrent Equations -->
<g id="edge12" class="edge">
<title>Fundamental Theorem of Algebra&#45;&gt;Recurrent Equations</title>
<path fill="none" stroke="#ffffff" d="M611.55,-67.84C636.12,-57.03 665.46,-44.11 687.79,-34.28"/>
<polygon fill="#ffffff" stroke="#ffffff" points="610.14,-64.64 602.4,-71.88 612.96,-71.05 610.14,-64.64"/>
</g>
<!-- Lagrange Interpolation Polynomial&#45;&gt;Lagrange Interpolation Problem -->
<g id="edge7" class="edge">
<title>Lagrange Interpolation Polynomial&#45;&gt;Lagrange Interpolation Problem</title>
<path fill="none" stroke="#b75867" d="M438.69,-215.7C430.37,-207.14 420.19,-196.66 411.11,-187.3"/>
<polygon fill="#b75867" stroke="#b75867" points="413.59,-184.84 404.12,-180.1 408.57,-189.72 413.59,-184.84"/>
</g>
</g>
</svg>
