<?xml version="1.0" encoding="UTF-8" standalone="no"?>
<!DOCTYPE svg PUBLIC "-//W3C//DTD SVG 1.1//EN"
 "http://www.w3.org/Graphics/SVG/1.1/DTD/svg11.dtd">
<!-- Generated by graphviz version 2.44.0 (0)
 -->
<!-- Title: Total function Pages: 1 -->
<svg width="2394pt" height="188pt"
 viewBox="0.00 0.00 2394.44 188.00" xmlns="http://www.w3.org/2000/svg" xmlns:xlink="http://www.w3.org/1999/xlink">
<g id="page0,1_graph0" class="graph" transform="scale(1 1) rotate(0) translate(4 184)">
<title>Total function</title>
<polygon fill="#132020" stroke="transparent" points="-4,4 -4,-184 2390.44,-184 2390.44,4 -4,4"/>
<!-- Total function -->
<g id="node1" class="node">
<title>Total function</title>
<g id="a_node1"><a xlink:href="../Total function.html" xlink:title="Total function" target="_parent">
<path fill="#273434" stroke="#b75867" d="M1455,-180C1455,-180 1384,-180 1384,-180 1378,-180 1372,-174 1372,-168 1372,-168 1372,-156 1372,-156 1372,-150 1378,-144 1384,-144 1384,-144 1455,-144 1455,-144 1461,-144 1467,-150 1467,-156 1467,-156 1467,-168 1467,-168 1467,-174 1461,-180 1455,-180"/>
<text text-anchor="middle" x="1419.5" y="-158.9" font-family="sans" font-size="12.00" fill="#c4c7c7">Total function</text>
</a>
</g>
</g>
<!-- Relation -->
<g id="node2" class="node">
<title>Relation</title>
<g id="a_node2"><a xlink:href="../Relation.html" xlink:title="Relation" target="_parent">
<path fill="#273434" stroke="#b75867" d="M1392.5,-108C1392.5,-108 1352.5,-108 1352.5,-108 1346.5,-108 1340.5,-102 1340.5,-96 1340.5,-96 1340.5,-84 1340.5,-84 1340.5,-78 1346.5,-72 1352.5,-72 1352.5,-72 1392.5,-72 1392.5,-72 1398.5,-72 1404.5,-78 1404.5,-84 1404.5,-84 1404.5,-96 1404.5,-96 1404.5,-102 1398.5,-108 1392.5,-108"/>
<text text-anchor="middle" x="1372.5" y="-86.9" font-family="sans" font-size="12.00" fill="#c4c7c7">Relation</text>
</a>
</g>
</g>
<!-- Total function&#45;&gt;Relation -->
<g id="edge1" class="edge">
<title>Total function&#45;&gt;Relation</title>
<path fill="none" stroke="#b75867" d="M1407.88,-143.7C1402.36,-135.47 1395.65,-125.48 1389.57,-116.42"/>
<polygon fill="#b75867" stroke="#b75867" points="1392.46,-114.46 1383.98,-108.1 1386.65,-118.36 1392.46,-114.46"/>
</g>
<!-- Functions -->
<g id="node4" class="node">
<title>Functions</title>
<g id="a_node4"><a xlink:href="../Functions.html" xlink:title="Functions" target="_parent">
<ellipse fill="#273434" stroke="#b75867" cx="1466.5" cy="-90" rx="44.15" ry="18"/>
<text text-anchor="middle" x="1466.5" y="-86.9" font-family="sans" font-size="12.00" fill="#c4c7c7">Functions</text>
</a>
</g>
</g>
<!-- Total function&#45;&gt;Functions -->
<g id="edge3" class="edge">
<title>Total function&#45;&gt;Functions</title>
<path fill="none" stroke="#ffffff" d="M1436.8,-135.23C1442.99,-126.01 1449.8,-115.87 1455.34,-107.62"/>
<polygon fill="#ffffff" stroke="#ffffff" points="1433.79,-133.44 1431.12,-143.7 1439.6,-137.35 1433.79,-133.44"/>
</g>
<!-- Descartes Product -->
<g id="node3" class="node">
<title>Descartes Product</title>
<g id="a_node3"><a xlink:href="../Descartes Product.html" xlink:title="Descartes Product" target="_parent">
<path fill="#273434" stroke="#b75867" d="M107,-36C107,-36 12,-36 12,-36 6,-36 0,-30 0,-24 0,-24 0,-12 0,-12 0,-6 6,0 12,0 12,0 107,0 107,0 113,0 119,-6 119,-12 119,-12 119,-24 119,-24 119,-30 113,-36 107,-36"/>
<text text-anchor="middle" x="59.5" y="-14.9" font-family="sans" font-size="12.00" fill="#c4c7c7">Descartes Product</text>
</a>
</g>
</g>
<!-- Relation&#45;&gt;Descartes Product -->
<g id="edge2" class="edge">
<title>Relation&#45;&gt;Descartes Product</title>
<path fill="none" stroke="#b75867" d="M1340.4,-88.51C1172.44,-85.84 392.79,-71.75 129.35,-36.06"/>
<polygon fill="#b75867" stroke="#b75867" points="129.46,-32.54 119.07,-34.62 128.48,-39.47 129.46,-32.54"/>
</g>
<!-- Anti&#45;symmetric Relation -->
<g id="node5" class="node">
<title>Anti&#45;symmetric Relation</title>
<g id="a_node5"><a xlink:href="../Anti-symmetric Relation.html" xlink:title="Anti&#45;symmetric Relation" target="_parent">
<ellipse fill="#273434" stroke="#b75867" cx="230.5" cy="-18" rx="93.64" ry="18"/>
<text text-anchor="middle" x="230.5" y="-14.9" font-family="sans" font-size="12.00" fill="#c4c7c7">Anti&#45;symmetric Relation</text>
</a>
</g>
</g>
<!-- Relation&#45;&gt;Anti&#45;symmetric Relation -->
<g id="edge4" class="edge">
<title>Relation&#45;&gt;Anti&#45;symmetric Relation</title>
<path fill="none" stroke="#ffffff" d="M1330.08,-88.57C1188.33,-86.78 718.32,-77.84 332.5,-36 320.54,-34.7 307.86,-32.92 295.64,-31"/>
<polygon fill="#ffffff" stroke="#ffffff" points="1330.44,-92.08 1340.48,-88.7 1330.52,-85.08 1330.44,-92.08"/>
</g>
<!-- Symmetric Relation -->
<g id="node6" class="node">
<title>Symmetric Relation</title>
<g id="a_node6"><a xlink:href="../Symmetric Relation.html" xlink:title="Symmetric Relation" target="_parent">
<ellipse fill="#273434" stroke="#b75867" cx="420.5" cy="-18" rx="78.59" ry="18"/>
<text text-anchor="middle" x="420.5" y="-14.9" font-family="sans" font-size="12.00" fill="#c4c7c7">Symmetric Relation</text>
</a>
</g>
</g>
<!-- Relation&#45;&gt;Symmetric Relation -->
<g id="edge5" class="edge">
<title>Relation&#45;&gt;Symmetric Relation</title>
<path fill="none" stroke="#ffffff" d="M1329.83,-88.34C1203.75,-85.96 822.14,-75.74 508.5,-36 498,-34.67 486.87,-32.85 476.19,-30.89"/>
<polygon fill="#ffffff" stroke="#ffffff" points="1330.13,-91.84 1340.19,-88.53 1330.26,-84.84 1330.13,-91.84"/>
</g>
<!-- Transitive Relation -->
<g id="node7" class="node">
<title>Transitive Relation</title>
<g id="a_node7"><a xlink:href="../Transitive Relation.html" xlink:title="Transitive Relation" target="_parent">
<ellipse fill="#273434" stroke="#b75867" cx="591.5" cy="-18" rx="74.47" ry="18"/>
<text text-anchor="middle" x="591.5" y="-14.9" font-family="sans" font-size="12.00" fill="#c4c7c7">Transitive Relation</text>
</a>
</g>
</g>
<!-- Relation&#45;&gt;Transitive Relation -->
<g id="edge6" class="edge">
<title>Relation&#45;&gt;Transitive Relation</title>
<path fill="none" stroke="#ffffff" d="M1330.14,-87.61C1221.13,-83.62 922.12,-70.2 675.5,-36 665.48,-34.61 654.85,-32.76 644.65,-30.79"/>
<polygon fill="#ffffff" stroke="#ffffff" points="1330.27,-91.11 1340.39,-87.97 1330.52,-84.12 1330.27,-91.11"/>
</g>
<!-- Reflexive Relation -->
<g id="node8" class="node">
<title>Reflexive Relation</title>
<g id="a_node8"><a xlink:href="../Reflexive Relation.html" xlink:title="Reflexive Relation" target="_parent">
<ellipse fill="#273434" stroke="#b75867" cx="756.5" cy="-18" rx="72.05" ry="18"/>
<text text-anchor="middle" x="756.5" y="-14.9" font-family="sans" font-size="12.00" fill="#c4c7c7">Reflexive Relation</text>
</a>
</g>
</g>
<!-- Relation&#45;&gt;Reflexive Relation -->
<g id="edge7" class="edge">
<title>Relation&#45;&gt;Reflexive Relation</title>
<path fill="none" stroke="#ffffff" d="M1330.24,-86.37C1239.58,-80.4 1019.85,-64.08 837.5,-36 827.99,-34.53 817.9,-32.67 808.2,-30.72"/>
<polygon fill="#ffffff" stroke="#ffffff" points="1330.18,-89.88 1340.39,-87.03 1330.64,-82.89 1330.18,-89.88"/>
</g>
<!-- Anti&#45;reflexive relation -->
<g id="node9" class="node">
<title>Anti&#45;reflexive relation</title>
<g id="a_node9"><a xlink:href="../Anti-reflexive relation.html" xlink:title="Anti&#45;reflexive relation" target="_parent">
<ellipse fill="#273434" stroke="#b75867" cx="931.5" cy="-18" rx="84.9" ry="18"/>
<text text-anchor="middle" x="931.5" y="-14.9" font-family="sans" font-size="12.00" fill="#c4c7c7">Anti&#45;reflexive relation</text>
</a>
</g>
</g>
<!-- Relation&#45;&gt;Anti&#45;reflexive relation -->
<g id="edge8" class="edge">
<title>Relation&#45;&gt;Anti&#45;reflexive relation</title>
<path fill="none" stroke="#ffffff" d="M1330.48,-82.96C1265.16,-73.49 1135.34,-54.32 1025.5,-36 1015.03,-34.25 1003.92,-32.32 993.15,-30.4"/>
<polygon fill="#ffffff" stroke="#ffffff" points="1330,-86.43 1340.4,-84.4 1331.01,-79.5 1330,-86.43"/>
</g>
<!-- Strongly Anti&#45;symmetric Relation -->
<g id="node10" class="node">
<title>Strongly Anti&#45;symmetric Relation</title>
<g id="a_node10"><a xlink:href="../Strongly Anti-symmetric Relation.html" xlink:title="Strongly Anti&#45;symmetric Relation" target="_parent">
<ellipse fill="#273434" stroke="#b75867" cx="1159.5" cy="-18" rx="124.93" ry="18"/>
<text text-anchor="middle" x="1159.5" y="-14.9" font-family="sans" font-size="12.00" fill="#c4c7c7">Strongly Anti&#45;symmetric Relation</text>
</a>
</g>
</g>
<!-- Relation&#45;&gt;Strongly Anti&#45;symmetric Relation -->
<g id="edge9" class="edge">
<title>Relation&#45;&gt;Strongly Anti&#45;symmetric Relation</title>
<path fill="none" stroke="#ffffff" d="M1330.57,-75.22C1295.09,-63.56 1244.24,-46.85 1207.2,-34.68"/>
<polygon fill="#ffffff" stroke="#ffffff" points="1329.56,-78.57 1340.15,-78.37 1331.74,-71.92 1329.56,-78.57"/>
</g>
<!-- Reflexive Closure -->
<g id="node11" class="node">
<title>Reflexive Closure</title>
<g id="a_node11"><a xlink:href="../Reflexive Closure.html" xlink:title="Reflexive Closure" target="_parent">
<ellipse fill="#273434" stroke="#b75867" cx="1372.5" cy="-18" rx="69.62" ry="18"/>
<text text-anchor="middle" x="1372.5" y="-14.9" font-family="sans" font-size="12.00" fill="#c4c7c7">Reflexive Closure</text>
</a>
</g>
</g>
<!-- Relation&#45;&gt;Reflexive Closure -->
<g id="edge10" class="edge">
<title>Relation&#45;&gt;Reflexive Closure</title>
<path fill="none" stroke="#ffffff" d="M1372.5,-61.67C1372.5,-53.05 1372.5,-43.79 1372.5,-36.1"/>
<polygon fill="#ffffff" stroke="#ffffff" points="1369,-61.7 1372.5,-71.7 1376,-61.7 1369,-61.7"/>
</g>
<!-- Symmetric Closure -->
<g id="node12" class="node">
<title>Symmetric Closure</title>
<g id="a_node12"><a xlink:href="../Symmetric Closure.html" xlink:title="Symmetric Closure" target="_parent">
<ellipse fill="#273434" stroke="#b75867" cx="1535.5" cy="-18" rx="75.94" ry="18"/>
<text text-anchor="middle" x="1535.5" y="-14.9" font-family="sans" font-size="12.00" fill="#c4c7c7">Symmetric Closure</text>
</a>
</g>
</g>
<!-- Relation&#45;&gt;Symmetric Closure -->
<g id="edge11" class="edge">
<title>Relation&#45;&gt;Symmetric Closure</title>
<path fill="none" stroke="#ffffff" d="M1414.18,-71.1C1440.92,-59.62 1475.23,-44.88 1500.54,-34.01"/>
<polygon fill="#ffffff" stroke="#ffffff" points="1412.51,-68.01 1404.7,-75.17 1415.27,-74.44 1412.51,-68.01"/>
</g>
<!-- Relation of Equivalence -->
<g id="node13" class="node">
<title>Relation of Equivalence</title>
<g id="a_node13"><a xlink:href="../Relation of Equivalence.html" xlink:title="Relation of Equivalence" target="_parent">
<ellipse fill="#273434" stroke="#b75867" cx="1720.5" cy="-18" rx="91.95" ry="18"/>
<text text-anchor="middle" x="1720.5" y="-14.9" font-family="sans" font-size="12.00" fill="#c4c7c7">Relation of Equivalence</text>
</a>
</g>
</g>
<!-- Relation&#45;&gt;Relation of Equivalence -->
<g id="edge12" class="edge">
<title>Relation&#45;&gt;Relation of Equivalence</title>
<path fill="none" stroke="#ffffff" d="M1415.09,-72.42C1452.65,-64.63 1575.41,-43.66 1653.6,-30.36"/>
<polygon fill="#ffffff" stroke="#ffffff" points="1413.89,-69.11 1404.94,-74.79 1415.47,-75.93 1413.89,-69.11"/>
</g>
<!-- Chain -->
<g id="node14" class="node">
<title>Chain</title>
<g id="a_node14"><a xlink:href="../Chain.html" xlink:title="Chain" target="_parent">
<ellipse fill="#273434" stroke="#b75867" cx="1860.5" cy="-18" rx="30.33" ry="18"/>
<text text-anchor="middle" x="1860.5" y="-14.9" font-family="sans" font-size="12.00" fill="#c4c7c7">Chain</text>
</a>
</g>
</g>
<!-- Relation&#45;&gt;Chain -->
<g id="edge13" class="edge">
<title>Relation&#45;&gt;Chain</title>
<path fill="none" stroke="#ffffff" d="M1414.79,-72.14C1592.32,-30.49 1648.29,-80.14 1821.5,-36 1827.08,-34.58 1832.88,-32.44 1838.25,-30.16"/>
<polygon fill="#ffffff" stroke="#ffffff" points="1413.77,-68.78 1404.87,-74.53 1415.41,-75.59 1413.77,-68.78"/>
</g>
<!-- Partial function -->
<g id="node15" class="node">
<title>Partial function</title>
<g id="a_node15"><a xlink:href="../Partial function.html" xlink:title="Partial function" target="_parent">
<ellipse fill="#273434" stroke="#b75867" cx="1972.5" cy="-18" rx="63.31" ry="18"/>
<text text-anchor="middle" x="1972.5" y="-14.9" font-family="sans" font-size="12.00" fill="#c4c7c7">Partial function</text>
</a>
</g>
</g>
<!-- Relation&#45;&gt;Partial function -->
<g id="edge14" class="edge">
<title>Relation&#45;&gt;Partial function</title>
<path fill="none" stroke="#ffffff" d="M1414.71,-72.17C1626.1,-23.28 1688.63,-68.17 1899.5,-36 1908.5,-34.63 1918.04,-32.73 1927.15,-30.71"/>
<polygon fill="#ffffff" stroke="#ffffff" points="1413.79,-68.79 1404.86,-74.49 1415.4,-75.6 1413.79,-68.79"/>
</g>
<!-- Relations -->
<g id="node16" class="node">
<title>Relations</title>
<g id="a_node16"><a xlink:href="../Relations.html" xlink:title="Relations" target="_parent">
<ellipse fill="#273434" stroke="#b75867" cx="2096.5" cy="-18" rx="42.45" ry="18"/>
<text text-anchor="middle" x="2096.5" y="-14.9" font-family="sans" font-size="12.00" fill="#c4c7c7">Relations</text>
</a>
</g>
</g>
<!-- Relation&#45;&gt;Relations -->
<g id="edge15" class="edge">
<title>Relation&#45;&gt;Relations</title>
<path fill="none" stroke="#ffffff" d="M1414.7,-72.2C1689.25,-11.15 1771.7,-87.47 2044.5,-36 2051.5,-34.68 2058.86,-32.67 2065.77,-30.5"/>
<polygon fill="#ffffff" stroke="#ffffff" points="1413.83,-68.81 1404.85,-74.43 1415.37,-75.64 1413.83,-68.81"/>
</g>
<!-- Linear order -->
<g id="node17" class="node">
<title>Linear order</title>
<g id="a_node17"><a xlink:href="../Linear order.html" xlink:title="Linear order" target="_parent">
<ellipse fill="#273434" stroke="#b75867" cx="2209.5" cy="-18" rx="52.88" ry="18"/>
<text text-anchor="middle" x="2209.5" y="-14.9" font-family="sans" font-size="12.00" fill="#c4c7c7">Linear order</text>
</a>
</g>
</g>
<!-- Relation&#45;&gt;Linear order -->
<g id="edge16" class="edge">
<title>Relation&#45;&gt;Linear order</title>
<path fill="none" stroke="#ffffff" d="M1414.84,-72.18C1734.1,-2.17 1828.28,-86.96 2147.5,-36 2155.44,-34.73 2163.81,-32.83 2171.75,-30.76"/>
<polygon fill="#ffffff" stroke="#ffffff" points="1413.84,-68.82 1404.84,-74.41 1415.36,-75.65 1413.84,-68.82"/>
</g>
<!-- Partial order -->
<g id="node18" class="node">
<title>Partial order</title>
<g id="a_node18"><a xlink:href="../Partial order.html" xlink:title="Partial order" target="_parent">
<ellipse fill="#273434" stroke="#b75867" cx="2333.5" cy="-18" rx="52.88" ry="18"/>
<text text-anchor="middle" x="2333.5" y="-14.9" font-family="sans" font-size="12.00" fill="#c4c7c7">Partial order</text>
</a>
</g>
</g>
<!-- Relation&#45;&gt;Partial order -->
<g id="edge17" class="edge">
<title>Relation&#45;&gt;Partial order</title>
<path fill="none" stroke="#ffffff" d="M1414.83,-72.2C1788.1,8.52 1897.71,-94.32 2271.5,-36 2279.44,-34.76 2287.82,-32.87 2295.76,-30.8"/>
<polygon fill="#ffffff" stroke="#ffffff" points="1413.86,-68.83 1404.84,-74.39 1415.36,-75.66 1413.86,-68.83"/>
</g>
</g>
</svg>
