<?xml version="1.0" encoding="UTF-8" standalone="no"?>
<!DOCTYPE svg PUBLIC "-//W3C//DTD SVG 1.1//EN"
 "http://www.w3.org/Graphics/SVG/1.1/DTD/svg11.dtd">
<!-- Generated by graphviz version 2.44.0 (0)
 -->
<!-- Title: Total function Pages: 1 -->
<svg width="394pt" height="599pt"
 viewBox="0.00 0.00 394.00 599.00" xmlns="http://www.w3.org/2000/svg" xmlns:xlink="http://www.w3.org/1999/xlink">
<g id="page0,1_graph0" class="graph" transform="scale(1 1) rotate(0) translate(4 595)">
<title>Total function</title>
<polygon fill="#132020" stroke="transparent" points="-4,4 -4,-595 390,-595 390,4 -4,4"/>
<!-- Total function -->
<g id="node1" class="node">
<title>Total function</title>
<g id="a_node1"><a xlink:href="../Total function.html" xlink:title="Total function" target="_parent">
<path fill="#273434" stroke="#b75867" d="M83,-184C83,-184 12,-184 12,-184 6,-184 0,-178 0,-172 0,-172 0,-160 0,-160 0,-154 6,-148 12,-148 12,-148 83,-148 83,-148 89,-148 95,-154 95,-160 95,-160 95,-172 95,-172 95,-178 89,-184 83,-184"/>
<text text-anchor="middle" x="47.5" y="-162.9" font-family="sans" font-size="12.00" fill="#c4c7c7">Total function</text>
</a>
</g>
</g>
<!-- Relation -->
<g id="node2" class="node">
<title>Relation</title>
<g id="a_node2"><a xlink:href="../Relation.html" xlink:title="Relation" target="_parent">
<path fill="#273434" stroke="#b75867" d="M159,-295C159,-295 119,-295 119,-295 113,-295 107,-289 107,-283 107,-283 107,-271 107,-271 107,-265 113,-259 119,-259 119,-259 159,-259 159,-259 165,-259 171,-265 171,-271 171,-271 171,-283 171,-283 171,-289 165,-295 159,-295"/>
<text text-anchor="middle" x="139" y="-273.9" font-family="sans" font-size="12.00" fill="#c4c7c7">Relation</text>
</a>
</g>
</g>
<!-- Total function&#45;&gt;Relation -->
<g id="edge1" class="edge">
<title>Total function&#45;&gt;Relation</title>
<path fill="none" stroke="#b75867" d="M63.28,-184.33C77.85,-202.41 100.28,-230.22 116.76,-250.66"/>
<polygon fill="#b75867" stroke="#b75867" points="114.2,-253.06 123.2,-258.64 119.65,-248.66 114.2,-253.06"/>
</g>
<!-- Functions -->
<g id="node3" class="node">
<title>Functions</title>
<g id="a_node3"><a xlink:href="../Functions.html" xlink:title="Functions" target="_parent">
<path fill="none" stroke="#b75867" d="M163,-166C163,-166 115,-166 115,-166 109,-166 103,-160 103,-154 103,-154 103,-142 103,-142 103,-136 109,-130 115,-130 115,-130 163,-130 163,-130 169,-130 175,-136 175,-142 175,-142 175,-154 175,-154 175,-160 169,-166 163,-166"/>
<text text-anchor="middle" x="139" y="-144.9" font-family="sans" font-size="12.00" fill="#c4c7c7">Functions</text>
</a>
</g>
</g>
<!-- Total function&#45;&gt;Functions -->
<g id="edge2" class="edge">
<title>Total function&#45;&gt;Functions</title>
<path fill="none" stroke="#ffffff" d="M102.44,-155.15C102.6,-155.12 102.76,-155.09 102.92,-155.05"/>
<polygon fill="#ffffff" stroke="#ffffff" points="104.2,-151.23 95.08,-156.63 105.58,-158.09 104.2,-151.23"/>
</g>
<!-- Relation&#45;&gt;Total function -->
<g id="edge17" class="edge">
<title>Relation&#45;&gt;Total function</title>
<path fill="none" stroke="#ffffff" d="M116.47,-250.95C99.79,-230.42 77.15,-202.31 62.68,-184.15"/>
<polygon fill="#ffffff" stroke="#ffffff" points="113.96,-253.41 122.99,-258.96 119.39,-248.99 113.96,-253.41"/>
</g>
<!-- Descartes Product -->
<g id="node4" class="node">
<title>Descartes Product</title>
<g id="a_node4"><a xlink:href="../Descartes Product.html" xlink:title="Descartes Product" target="_parent">
<path fill="#273434" stroke="#b75867" d="M332,-591C332,-591 237,-591 237,-591 231,-591 225,-585 225,-579 225,-579 225,-567 225,-567 225,-561 231,-555 237,-555 237,-555 332,-555 332,-555 338,-555 344,-561 344,-567 344,-567 344,-579 344,-579 344,-585 338,-591 332,-591"/>
<text text-anchor="middle" x="284.5" y="-569.9" font-family="sans" font-size="12.00" fill="#c4c7c7">Descartes Product</text>
</a>
</g>
</g>
<!-- Relation&#45;&gt;Descartes Product -->
<g id="edge3" class="edge">
<title>Relation&#45;&gt;Descartes Product</title>
<path fill="none" stroke="#b75867" d="M140.27,-295.21C141.48,-350.32 148,-513.85 183,-551 191.6,-560.13 203.04,-565.91 215.13,-569.48"/>
<polygon fill="#b75867" stroke="#b75867" points="214.36,-572.9 224.91,-571.9 216.04,-566.1 214.36,-572.9"/>
</g>
<!-- Anti&#45;symmetric Relation -->
<g id="node5" class="node">
<title>Anti&#45;symmetric Relation</title>
<g id="a_node5"><a xlink:href="../Anti-symmetric Relation.html" xlink:title="Anti&#45;symmetric Relation" target="_parent">
<path fill="none" stroke="#b75867" d="M348.5,-554C348.5,-554 220.5,-554 220.5,-554 214.5,-554 208.5,-548 208.5,-542 208.5,-542 208.5,-530 208.5,-530 208.5,-524 214.5,-518 220.5,-518 220.5,-518 348.5,-518 348.5,-518 354.5,-518 360.5,-524 360.5,-530 360.5,-530 360.5,-542 360.5,-542 360.5,-548 354.5,-554 348.5,-554"/>
<text text-anchor="middle" x="284.5" y="-532.9" font-family="sans" font-size="12.00" fill="#c4c7c7">Anti&#45;symmetric Relation</text>
</a>
</g>
</g>
<!-- Relation&#45;&gt;Anti&#45;symmetric Relation -->
<g id="edge4" class="edge">
<title>Relation&#45;&gt;Anti&#45;symmetric Relation</title>
<path fill="none" stroke="#ffffff" d="M141.3,-305.2C144.47,-361.4 154.57,-484.52 183,-514 190.01,-521.26 198.81,-526.39 208.29,-529.97"/>
<polygon fill="#ffffff" stroke="#ffffff" points="144.79,-305.01 140.77,-295.21 137.8,-305.38 144.79,-305.01"/>
</g>
<!-- Symmetric Relation -->
<g id="node6" class="node">
<title>Symmetric Relation</title>
<g id="a_node6"><a xlink:href="../Symmetric Relation.html" xlink:title="Symmetric Relation" target="_parent">
<path fill="none" stroke="#b75867" d="M336.5,-517C336.5,-517 232.5,-517 232.5,-517 226.5,-517 220.5,-511 220.5,-505 220.5,-505 220.5,-493 220.5,-493 220.5,-487 226.5,-481 232.5,-481 232.5,-481 336.5,-481 336.5,-481 342.5,-481 348.5,-487 348.5,-493 348.5,-493 348.5,-505 348.5,-505 348.5,-511 342.5,-517 336.5,-517"/>
<text text-anchor="middle" x="284.5" y="-495.9" font-family="sans" font-size="12.00" fill="#c4c7c7">Symmetric Relation</text>
</a>
</g>
</g>
<!-- Relation&#45;&gt;Symmetric Relation -->
<g id="edge5" class="edge">
<title>Relation&#45;&gt;Symmetric Relation</title>
<path fill="none" stroke="#ffffff" d="M142.35,-305.22C147.03,-354.45 159.18,-453.09 183,-477 193.02,-487.06 206.51,-492.99 220.35,-496.39"/>
<polygon fill="#ffffff" stroke="#ffffff" points="145.83,-304.87 141.44,-295.23 138.86,-305.5 145.83,-304.87"/>
</g>
<!-- Transitive Relation -->
<g id="node7" class="node">
<title>Transitive Relation</title>
<g id="a_node7"><a xlink:href="../Transitive Relation.html" xlink:title="Transitive Relation" target="_parent">
<path fill="none" stroke="#b75867" d="M333,-480C333,-480 236,-480 236,-480 230,-480 224,-474 224,-468 224,-468 224,-456 224,-456 224,-450 230,-444 236,-444 236,-444 333,-444 333,-444 339,-444 345,-450 345,-456 345,-456 345,-468 345,-468 345,-474 339,-480 333,-480"/>
<text text-anchor="middle" x="284.5" y="-458.9" font-family="sans" font-size="12.00" fill="#c4c7c7">Transitive Relation</text>
</a>
</g>
</g>
<!-- Relation&#45;&gt;Transitive Relation -->
<g id="edge6" class="edge">
<title>Relation&#45;&gt;Transitive Relation</title>
<path fill="none" stroke="#ffffff" d="M139.09,-305.61C139.58,-342.12 146.24,-404.76 183,-440 194.02,-450.57 208.9,-456.53 223.81,-459.78"/>
<polygon fill="#ffffff" stroke="#ffffff" points="142.59,-305.18 139.11,-295.18 135.59,-305.17 142.59,-305.18"/>
</g>
<!-- Reflexive Relation -->
<g id="node8" class="node">
<title>Reflexive Relation</title>
<g id="a_node8"><a xlink:href="../Reflexive Relation.html" xlink:title="Reflexive Relation" target="_parent">
<path fill="none" stroke="#b75867" d="M331,-443C331,-443 238,-443 238,-443 232,-443 226,-437 226,-431 226,-431 226,-419 226,-419 226,-413 232,-407 238,-407 238,-407 331,-407 331,-407 337,-407 343,-413 343,-419 343,-419 343,-431 343,-431 343,-437 337,-443 331,-443"/>
<text text-anchor="middle" x="284.5" y="-421.9" font-family="sans" font-size="12.00" fill="#c4c7c7">Reflexive Relation</text>
</a>
</g>
</g>
<!-- Relation&#45;&gt;Reflexive Relation -->
<g id="edge7" class="edge">
<title>Relation&#45;&gt;Reflexive Relation</title>
<path fill="none" stroke="#ffffff" d="M141.82,-305.26C145.23,-334.09 155.02,-378.02 183,-403 194.79,-413.53 210.44,-419.4 225.87,-422.59"/>
<polygon fill="#ffffff" stroke="#ffffff" points="145.27,-304.63 140.8,-295.02 138.31,-305.32 145.27,-304.63"/>
</g>
<!-- Anti&#45;reflexive relation -->
<g id="node9" class="node">
<title>Anti&#45;reflexive relation</title>
<g id="a_node9"><a xlink:href="../Anti-reflexive relation.html" xlink:title="Anti&#45;reflexive relation" target="_parent">
<path fill="none" stroke="#b75867" d="M341.5,-406C341.5,-406 227.5,-406 227.5,-406 221.5,-406 215.5,-400 215.5,-394 215.5,-394 215.5,-382 215.5,-382 215.5,-376 221.5,-370 227.5,-370 227.5,-370 341.5,-370 341.5,-370 347.5,-370 353.5,-376 353.5,-382 353.5,-382 353.5,-394 353.5,-394 353.5,-400 347.5,-406 341.5,-406"/>
<text text-anchor="middle" x="284.5" y="-384.9" font-family="sans" font-size="12.00" fill="#c4c7c7">Anti&#45;reflexive relation</text>
</a>
</g>
</g>
<!-- Relation&#45;&gt;Anti&#45;reflexive relation -->
<g id="edge8" class="edge">
<title>Relation&#45;&gt;Anti&#45;reflexive relation</title>
<path fill="none" stroke="#ffffff" d="M146.58,-305.16C152.7,-325.1 163.84,-350.88 183,-366 192.39,-373.41 203.75,-378.45 215.41,-381.85"/>
<polygon fill="#ffffff" stroke="#ffffff" points="149.9,-304.03 143.82,-295.35 143.16,-305.93 149.9,-304.03"/>
</g>
<!-- Strongly Anti&#45;symmetric Relation -->
<g id="node10" class="node">
<title>Strongly Anti&#45;symmetric Relation</title>
<g id="a_node10"><a xlink:href="../Strongly Anti-symmetric Relation.html" xlink:title="Strongly Anti&#45;symmetric Relation" target="_parent">
<path fill="none" stroke="#b75867" d="M374,-369C374,-369 195,-369 195,-369 189,-369 183,-363 183,-357 183,-357 183,-345 183,-345 183,-339 189,-333 195,-333 195,-333 374,-333 374,-333 380,-333 386,-339 386,-345 386,-345 386,-357 386,-357 386,-363 380,-369 374,-369"/>
<text text-anchor="middle" x="284.5" y="-347.9" font-family="sans" font-size="12.00" fill="#c4c7c7">Strongly Anti&#45;symmetric Relation</text>
</a>
</g>
</g>
<!-- Relation&#45;&gt;Strongly Anti&#45;symmetric Relation -->
<g id="edge9" class="edge">
<title>Relation&#45;&gt;Strongly Anti&#45;symmetric Relation</title>
<path fill="none" stroke="#ffffff" d="M156.45,-303.48C163.53,-312.86 172.59,-322.65 183,-329 185.29,-330.4 187.65,-331.7 190.08,-332.93"/>
<polygon fill="#ffffff" stroke="#ffffff" points="159.15,-301.24 150.52,-295.1 153.44,-305.28 159.15,-301.24"/>
</g>
<!-- Reflexive Closure -->
<g id="node11" class="node">
<title>Reflexive Closure</title>
<g id="a_node11"><a xlink:href="../Reflexive Closure.html" xlink:title="Reflexive Closure" target="_parent">
<path fill="none" stroke="#b75867" d="M329,-332C329,-332 240,-332 240,-332 234,-332 228,-326 228,-320 228,-320 228,-308 228,-308 228,-302 234,-296 240,-296 240,-296 329,-296 329,-296 335,-296 341,-302 341,-308 341,-308 341,-320 341,-320 341,-326 335,-332 329,-332"/>
<text text-anchor="middle" x="284.5" y="-310.9" font-family="sans" font-size="12.00" fill="#c4c7c7">Reflexive Closure</text>
</a>
</g>
</g>
<!-- Relation&#45;&gt;Reflexive Closure -->
<g id="edge10" class="edge">
<title>Relation&#45;&gt;Reflexive Closure</title>
<path fill="none" stroke="#ffffff" d="M181.21,-291.49C181.81,-291.66 182.41,-291.83 183,-292 197.44,-296.08 213.22,-299.85 227.91,-303.08"/>
<polygon fill="#ffffff" stroke="#ffffff" points="181.92,-288.04 171.33,-288.42 179.84,-294.73 181.92,-288.04"/>
</g>
<!-- Symmetric Closure -->
<g id="node12" class="node">
<title>Symmetric Closure</title>
<g id="a_node12"><a xlink:href="../Symmetric Closure.html" xlink:title="Symmetric Closure" target="_parent">
<path fill="none" stroke="#b75867" d="M334,-295C334,-295 235,-295 235,-295 229,-295 223,-289 223,-283 223,-283 223,-271 223,-271 223,-265 229,-259 235,-259 235,-259 334,-259 334,-259 340,-259 346,-265 346,-271 346,-271 346,-283 346,-283 346,-289 340,-295 334,-295"/>
<text text-anchor="middle" x="284.5" y="-273.9" font-family="sans" font-size="12.00" fill="#c4c7c7">Symmetric Closure</text>
</a>
</g>
</g>
<!-- Relation&#45;&gt;Symmetric Closure -->
<g id="edge11" class="edge">
<title>Relation&#45;&gt;Symmetric Closure</title>
<path fill="none" stroke="#ffffff" d="M181.17,-277C194.18,-277 208.84,-277 222.92,-277"/>
<polygon fill="#ffffff" stroke="#ffffff" points="181.14,-273.5 171.14,-277 181.14,-280.5 181.14,-273.5"/>
</g>
<!-- Relation of Equivalence -->
<g id="node13" class="node">
<title>Relation of Equivalence</title>
<g id="a_node13"><a xlink:href="../Relation of Equivalence.html" xlink:title="Relation of Equivalence" target="_parent">
<path fill="none" stroke="#b75867" d="M347,-258C347,-258 222,-258 222,-258 216,-258 210,-252 210,-246 210,-246 210,-234 210,-234 210,-228 216,-222 222,-222 222,-222 347,-222 347,-222 353,-222 359,-228 359,-234 359,-234 359,-246 359,-246 359,-252 353,-258 347,-258"/>
<text text-anchor="middle" x="284.5" y="-236.9" font-family="sans" font-size="12.00" fill="#c4c7c7">Relation of Equivalence</text>
</a>
</g>
</g>
<!-- Relation&#45;&gt;Relation of Equivalence -->
<g id="edge12" class="edge">
<title>Relation&#45;&gt;Relation of Equivalence</title>
<path fill="none" stroke="#ffffff" d="M181.21,-262.51C181.81,-262.34 182.41,-262.17 183,-262 191.68,-259.55 200.85,-257.2 209.97,-255.02"/>
<polygon fill="#ffffff" stroke="#ffffff" points="179.84,-259.27 171.33,-265.58 181.92,-265.96 179.84,-259.27"/>
</g>
<!-- Chain -->
<g id="node14" class="node">
<title>Chain</title>
<g id="a_node14"><a xlink:href="../Chain.html" xlink:title="Chain" target="_parent">
<path fill="none" stroke="#b75867" d="M299.5,-221C299.5,-221 269.5,-221 269.5,-221 263.5,-221 257.5,-215 257.5,-209 257.5,-209 257.5,-197 257.5,-197 257.5,-191 263.5,-185 269.5,-185 269.5,-185 299.5,-185 299.5,-185 305.5,-185 311.5,-191 311.5,-197 311.5,-197 311.5,-209 311.5,-209 311.5,-215 305.5,-221 299.5,-221"/>
<text text-anchor="middle" x="284.5" y="-199.9" font-family="sans" font-size="12.00" fill="#c4c7c7">Chain</text>
</a>
</g>
</g>
<!-- Relation&#45;&gt;Chain -->
<g id="edge13" class="edge">
<title>Relation&#45;&gt;Chain</title>
<path fill="none" stroke="#ffffff" d="M156.45,-250.52C163.53,-241.14 172.59,-231.35 183,-225 205.72,-211.14 236.04,-205.96 257.41,-204.05"/>
<polygon fill="#ffffff" stroke="#ffffff" points="153.44,-248.72 150.52,-258.9 159.15,-252.76 153.44,-248.72"/>
</g>
<!-- Partial function -->
<g id="node15" class="node">
<title>Partial function</title>
<g id="a_node15"><a xlink:href="../Partial function.html" xlink:title="Partial function" target="_parent">
<path fill="none" stroke="#b75867" d="M324,-73C324,-73 245,-73 245,-73 239,-73 233,-67 233,-61 233,-61 233,-49 233,-49 233,-43 239,-37 245,-37 245,-37 324,-37 324,-37 330,-37 336,-43 336,-49 336,-49 336,-61 336,-61 336,-67 330,-73 324,-73"/>
<text text-anchor="middle" x="284.5" y="-51.9" font-family="sans" font-size="12.00" fill="#c4c7c7">Partial function</text>
</a>
</g>
</g>
<!-- Relation&#45;&gt;Partial function -->
<g id="edge14" class="edge">
<title>Relation&#45;&gt;Partial function</title>
<path fill="none" stroke="#ffffff" d="M150.8,-248.97C158.8,-227.01 169.27,-195.5 175,-167 178.96,-147.31 169.73,-92.07 183,-77 195.39,-62.92 214.53,-56.69 232.79,-54.24"/>
<polygon fill="#ffffff" stroke="#ffffff" points="147.41,-248.05 147.21,-258.64 153.97,-250.49 147.41,-248.05"/>
</g>
<!-- Relations -->
<g id="node16" class="node">
<title>Relations</title>
<g id="a_node16"><a xlink:href="../Relations.html" xlink:title="Relations" target="_parent">
<path fill="none" stroke="#b75867" d="M307,-184C307,-184 262,-184 262,-184 256,-184 250,-178 250,-172 250,-172 250,-160 250,-160 250,-154 256,-148 262,-148 262,-148 307,-148 307,-148 313,-148 319,-154 319,-160 319,-160 319,-172 319,-172 319,-178 313,-184 307,-184"/>
<text text-anchor="middle" x="284.5" y="-162.9" font-family="sans" font-size="12.00" fill="#c4c7c7">Relations</text>
</a>
</g>
</g>
<!-- Relation&#45;&gt;Relations -->
<g id="edge15" class="edge">
<title>Relation&#45;&gt;Relations</title>
<path fill="none" stroke="#ffffff" d="M146.58,-248.84C152.7,-228.9 163.84,-203.12 183,-188 201.79,-173.17 228.44,-167.84 249.58,-166.12"/>
<polygon fill="#ffffff" stroke="#ffffff" points="143.16,-248.07 143.82,-258.65 149.9,-249.97 143.16,-248.07"/>
</g>
<!-- Linear order -->
<g id="node17" class="node">
<title>Linear order</title>
<g id="a_node17"><a xlink:href="../Linear order.html" xlink:title="Linear order" target="_parent">
<path fill="none" stroke="#b75867" d="M315.5,-147C315.5,-147 253.5,-147 253.5,-147 247.5,-147 241.5,-141 241.5,-135 241.5,-135 241.5,-123 241.5,-123 241.5,-117 247.5,-111 253.5,-111 253.5,-111 315.5,-111 315.5,-111 321.5,-111 327.5,-117 327.5,-123 327.5,-123 327.5,-135 327.5,-135 327.5,-141 321.5,-147 315.5,-147"/>
<text text-anchor="middle" x="284.5" y="-125.9" font-family="sans" font-size="12.00" fill="#c4c7c7">Linear order</text>
</a>
</g>
</g>
<!-- Relation&#45;&gt;Linear order -->
<g id="edge16" class="edge">
<title>Relation&#45;&gt;Linear order</title>
<path fill="none" stroke="#ffffff" d="M148.84,-248.84C160.28,-212.75 179.2,-154.39 183,-151 198.79,-136.91 221.5,-131.15 241.33,-129.02"/>
<polygon fill="#ffffff" stroke="#ffffff" points="145.37,-248.21 145.69,-258.8 152.04,-250.32 145.37,-248.21"/>
</g>
<!-- Partial order -->
<g id="node18" class="node">
<title>Partial order</title>
<g id="a_node18"><a xlink:href="../Partial order.html" xlink:title="Partial order" target="_parent">
<path fill="none" stroke="#b75867" d="M315.5,-110C315.5,-110 253.5,-110 253.5,-110 247.5,-110 241.5,-104 241.5,-98 241.5,-98 241.5,-86 241.5,-86 241.5,-80 247.5,-74 253.5,-74 253.5,-74 315.5,-74 315.5,-74 321.5,-74 327.5,-80 327.5,-86 327.5,-86 327.5,-98 327.5,-98 327.5,-104 321.5,-110 315.5,-110"/>
<text text-anchor="middle" x="284.5" y="-88.9" font-family="sans" font-size="12.00" fill="#c4c7c7">Partial order</text>
</a>
</g>
</g>
<!-- Relation&#45;&gt;Partial order -->
<g id="edge18" class="edge">
<title>Relation&#45;&gt;Partial order</title>
<path fill="none" stroke="#ffffff" d="M150.17,-249.26C157.92,-227.22 168.36,-195.48 175,-167 177.7,-155.4 174.86,-122.69 183,-114 197.77,-98.22 221.03,-92.45 241.46,-90.74"/>
<polygon fill="#ffffff" stroke="#ffffff" points="146.78,-248.36 146.72,-258.95 153.37,-250.71 146.78,-248.36"/>
</g>
<!-- Functions&#45;&gt;Total function -->
<g id="edge19" class="edge">
<title>Functions&#45;&gt;Total function</title>
<path fill="none" stroke="#b75867" d="M102.92,-155.79C102.76,-155.82 102.6,-155.85 102.44,-155.89"/>
<polygon fill="#b75867" stroke="#b75867" points="104.19,-151.96 95.08,-157.38 105.58,-158.82 104.19,-151.96"/>
</g>
<!-- Functions&#45;&gt;Partial function -->
<g id="edge20" class="edge">
<title>Functions&#45;&gt;Partial function</title>
<path fill="none" stroke="#b75867" d="M146.19,-129.95C152.75,-113.58 164.71,-90.08 183,-77 194.63,-68.68 208.82,-63.41 222.82,-60.1"/>
<polygon fill="#b75867" stroke="#b75867" points="223.86,-63.46 232.95,-58.02 222.45,-56.61 223.86,-63.46"/>
</g>
<!-- Discrete Structures -->
<g id="node19" class="node">
<title>Discrete Structures</title>
<g id="a_node19"><a xlink:href="../Discrete Structures.html" xlink:title="Discrete Structures" target="_parent">
<path fill="none" stroke="#b75867" d="M333.5,-36C333.5,-36 235.5,-36 235.5,-36 229.5,-36 223.5,-30 223.5,-24 223.5,-24 223.5,-12 223.5,-12 223.5,-6 229.5,0 235.5,0 235.5,0 333.5,0 333.5,0 339.5,0 345.5,-6 345.5,-12 345.5,-12 345.5,-24 345.5,-24 345.5,-30 339.5,-36 333.5,-36"/>
<text text-anchor="middle" x="284.5" y="-14.9" font-family="sans" font-size="12.00" fill="#c4c7c7">Discrete Structures</text>
</a>
</g>
</g>
<!-- Functions&#45;&gt;Discrete Structures -->
<g id="edge21" class="edge">
<title>Functions&#45;&gt;Discrete Structures</title>
<path fill="none" stroke="#ffffff" d="M143.75,-119.8C148.56,-95.11 159.3,-60.11 183,-40 194.3,-30.41 208.84,-24.72 223.33,-21.42"/>
<polygon fill="#ffffff" stroke="#ffffff" points="140.3,-119.23 142.04,-129.68 147.2,-120.43 140.3,-119.23"/>
</g>
</g>
</svg>
