<?xml version="1.0" encoding="UTF-8" standalone="no"?>
<!DOCTYPE svg PUBLIC "-//W3C//DTD SVG 1.1//EN"
 "http://www.w3.org/Graphics/SVG/1.1/DTD/svg11.dtd">
<!-- Generated by graphviz version 2.44.0 (0)
 -->
<!-- Title: Transitive Relation Pages: 1 -->
<svg width="2363pt" height="188pt"
 viewBox="0.00 0.00 2363.22 188.00" xmlns="http://www.w3.org/2000/svg" xmlns:xlink="http://www.w3.org/1999/xlink">
<g id="page0,1_graph0" class="graph" transform="scale(1 1) rotate(0) translate(4 184)">
<title>Transitive Relation</title>
<polygon fill="#132020" stroke="transparent" points="-4,4 -4,-184 2359.22,-184 2359.22,4 -4,4"/>
<!-- Transitive Relation -->
<g id="node1" class="node">
<title>Transitive Relation</title>
<g id="a_node1"><a xlink:title="Transitive Relation">
<path fill="#273434" stroke="#b75867" d="M529.22,-180C529.22,-180 432.22,-180 432.22,-180 426.22,-180 420.22,-174 420.22,-168 420.22,-168 420.22,-156 420.22,-156 420.22,-150 426.22,-144 432.22,-144 432.22,-144 529.22,-144 529.22,-144 535.22,-144 541.22,-150 541.22,-156 541.22,-156 541.22,-168 541.22,-168 541.22,-174 535.22,-180 529.22,-180"/>
<text text-anchor="middle" x="480.72" y="-158.9" font-family="sans" font-size="12.00" fill="#c4c7c7">Transitive Relation</text>
</a>
</g>
</g>
<!-- Relation -->
<g id="node2" class="node">
<title>Relation</title>
<g id="a_node2"><a xlink:title="Relation">
<path fill="#273434" stroke="#b75867" d="M939.72,-108C939.72,-108 899.72,-108 899.72,-108 893.72,-108 887.72,-102 887.72,-96 887.72,-96 887.72,-84 887.72,-84 887.72,-78 893.72,-72 899.72,-72 899.72,-72 939.72,-72 939.72,-72 945.72,-72 951.72,-78 951.72,-84 951.72,-84 951.72,-96 951.72,-96 951.72,-102 945.72,-108 939.72,-108"/>
<text text-anchor="middle" x="919.72" y="-86.9" font-family="sans" font-size="12.00" fill="#c4c7c7">Relation</text>
</a>
</g>
</g>
<!-- Transitive Relation&#45;&gt;Relation -->
<g id="edge1" class="edge">
<title>Transitive Relation&#45;&gt;Relation</title>
<path fill="none" stroke="#b75867" d="M541.3,-151.34C631.68,-136.93 799.54,-110.16 877.68,-97.7"/>
<polygon fill="#b75867" stroke="#b75867" points="878.32,-101.15 887.65,-96.11 877.22,-94.23 878.32,-101.15"/>
</g>
<!-- Transitive Closure -->
<g id="node4" class="node">
<title>Transitive Closure</title>
<g id="a_node4"><a xlink:title="Transitive Closure">
<ellipse fill="#273434" stroke="#b75867" cx="1040.72" cy="-90" rx="71.32" ry="18"/>
<text text-anchor="middle" x="1040.72" y="-86.9" font-family="sans" font-size="12.00" fill="#c4c7c7">Transitive Closure</text>
</a>
</g>
</g>
<!-- Transitive Relation&#45;&gt;Transitive Closure -->
<g id="edge3" class="edge">
<title>Transitive Relation&#45;&gt;Transitive Closure</title>
<path fill="none" stroke="#ffffff" d="M551.45,-155.41C645.34,-147.47 816.12,-131.29 960.72,-108 970.11,-106.49 980.07,-104.6 989.65,-102.64"/>
<polygon fill="#ffffff" stroke="#ffffff" points="550.9,-151.94 541.22,-156.26 551.48,-158.92 550.9,-151.94"/>
</g>
<!-- Relation of Equivalence -->
<g id="node5" class="node">
<title>Relation of Equivalence</title>
<g id="a_node5"><a xlink:title="Relation of Equivalence">
<ellipse fill="#273434" stroke="#b75867" cx="91.72" cy="-18" rx="91.95" ry="18"/>
<text text-anchor="middle" x="91.72" y="-14.9" font-family="sans" font-size="12.00" fill="#c4c7c7">Relation of Equivalence</text>
</a>
</g>
</g>
<!-- Transitive Relation&#45;&gt;Relation of Equivalence -->
<g id="edge4" class="edge">
<title>Transitive Relation&#45;&gt;Relation of Equivalence</title>
<path fill="none" stroke="#ffffff" d="M422.11,-140.55C394.37,-130.8 360.8,-118.91 330.72,-108 260.8,-82.63 179.72,-52.23 132.24,-34.33"/>
<polygon fill="#ffffff" stroke="#ffffff" points="421.08,-143.89 431.67,-143.9 423.39,-137.29 421.08,-143.89"/>
</g>
<!-- Relations -->
<g id="node6" class="node">
<title>Relations</title>
<g id="a_node6"><a xlink:title="Relations">
<ellipse fill="#273434" stroke="#b75867" cx="243.72" cy="-18" rx="42.45" ry="18"/>
<text text-anchor="middle" x="243.72" y="-14.9" font-family="sans" font-size="12.00" fill="#c4c7c7">Relations</text>
</a>
</g>
</g>
<!-- Transitive Relation&#45;&gt;Relations -->
<g id="edge5" class="edge">
<title>Transitive Relation&#45;&gt;Relations</title>
<path fill="none" stroke="#ffffff" d="M443.37,-138.62C394.06,-109.08 308.7,-57.93 267.42,-33.2"/>
<polygon fill="#ffffff" stroke="#ffffff" points="441.76,-141.73 452.13,-143.87 445.36,-135.73 441.76,-141.73"/>
</g>
<!-- Linear order -->
<g id="node7" class="node">
<title>Linear order</title>
<g id="a_node7"><a xlink:title="Linear order">
<ellipse fill="#273434" stroke="#b75867" cx="356.72" cy="-18" rx="52.88" ry="18"/>
<text text-anchor="middle" x="356.72" y="-14.9" font-family="sans" font-size="12.00" fill="#c4c7c7">Linear order</text>
</a>
</g>
</g>
<!-- Transitive Relation&#45;&gt;Linear order -->
<g id="edge6" class="edge">
<title>Transitive Relation&#45;&gt;Linear order</title>
<path fill="none" stroke="#ffffff" d="M459.11,-136.25C433.95,-107.43 393.06,-60.61 371.35,-35.75"/>
<polygon fill="#ffffff" stroke="#ffffff" points="456.55,-138.64 465.77,-143.87 461.82,-134.04 456.55,-138.64"/>
</g>
<!-- Partial orders have no contours -->
<g id="node8" class="node">
<title>Partial orders have no contours</title>
<g id="a_node8"><a xlink:title="Partial orders have no contours">
<ellipse fill="#273434" stroke="#b75867" cx="1248.72" cy="-90" rx="118.62" ry="18"/>
<text text-anchor="middle" x="1248.72" y="-86.9" font-family="sans" font-size="12.00" fill="#c4c7c7">Partial orders have no contours</text>
</a>
</g>
</g>
<!-- Transitive Relation&#45;&gt;Partial orders have no contours -->
<g id="edge7" class="edge">
<title>Transitive Relation&#45;&gt;Partial orders have no contours</title>
<path fill="none" stroke="#ffffff" d="M551.25,-156.3C669.28,-148.19 914.19,-130.25 1120.72,-108 1134.99,-106.46 1150.12,-104.63 1164.79,-102.75"/>
<polygon fill="#ffffff" stroke="#ffffff" points="551,-152.81 541.26,-156.99 551.48,-159.8 551,-152.81"/>
</g>
<!-- Partial order -->
<g id="node9" class="node">
<title>Partial order</title>
<g id="a_node9"><a xlink:title="Partial order">
<ellipse fill="#273434" stroke="#b75867" cx="480.72" cy="-18" rx="52.88" ry="18"/>
<text text-anchor="middle" x="480.72" y="-14.9" font-family="sans" font-size="12.00" fill="#c4c7c7">Partial order</text>
</a>
</g>
</g>
<!-- Transitive Relation&#45;&gt;Partial order -->
<g id="edge8" class="edge">
<title>Transitive Relation&#45;&gt;Partial order</title>
<path fill="none" stroke="#ffffff" d="M480.72,-133.68C480.72,-104.89 480.72,-60.42 480.72,-36.19"/>
<polygon fill="#ffffff" stroke="#ffffff" points="477.22,-133.87 480.72,-143.87 484.22,-133.87 477.22,-133.87"/>
</g>
<!-- Descartes Product -->
<g id="node3" class="node">
<title>Descartes Product</title>
<g id="a_node3"><a xlink:title="Descartes Product">
<path fill="#273434" stroke="#b75867" d="M2343.22,-36C2343.22,-36 2248.22,-36 2248.22,-36 2242.22,-36 2236.22,-30 2236.22,-24 2236.22,-24 2236.22,-12 2236.22,-12 2236.22,-6 2242.22,0 2248.22,0 2248.22,0 2343.22,0 2343.22,0 2349.22,0 2355.22,-6 2355.22,-12 2355.22,-12 2355.22,-24 2355.22,-24 2355.22,-30 2349.22,-36 2343.22,-36"/>
<text text-anchor="middle" x="2295.72" y="-14.9" font-family="sans" font-size="12.00" fill="#c4c7c7">Descartes Product</text>
</a>
</g>
</g>
<!-- Relation&#45;&gt;Descartes Product -->
<g id="edge2" class="edge">
<title>Relation&#45;&gt;Descartes Product</title>
<path fill="none" stroke="#b75867" d="M952.05,-74.35C954.94,-73.42 957.86,-72.61 960.72,-72 1232.72,-13.81 1931.21,-72.47 2225.73,-35.87"/>
<polygon fill="#b75867" stroke="#b75867" points="2226.57,-39.29 2236.03,-34.53 2225.67,-32.35 2226.57,-39.29"/>
</g>
<!-- Relation&#45;&gt;Relation of Equivalence -->
<g id="edge16" class="edge">
<title>Relation&#45;&gt;Relation of Equivalence</title>
<path fill="none" stroke="#ffffff" d="M877.14,-87.3C764.88,-82.5 451.68,-67.16 192.72,-36 180.98,-34.59 168.53,-32.76 156.52,-30.83"/>
<polygon fill="#ffffff" stroke="#ffffff" points="877.23,-90.8 887.37,-87.73 877.53,-83.81 877.23,-90.8"/>
</g>
<!-- Relation&#45;&gt;Relations -->
<g id="edge19" class="edge">
<title>Relation&#45;&gt;Relations</title>
<path fill="none" stroke="#ffffff" d="M877.3,-88.85C775.64,-87.75 510.53,-80.46 294.72,-36 288.05,-34.63 281.04,-32.65 274.42,-30.53"/>
<polygon fill="#ffffff" stroke="#ffffff" points="877.44,-92.35 887.47,-88.95 877.5,-85.35 877.44,-92.35"/>
</g>
<!-- Relation&#45;&gt;Linear order -->
<g id="edge20" class="edge">
<title>Relation&#45;&gt;Linear order</title>
<path fill="none" stroke="#ffffff" d="M877.28,-86.84C790.51,-81.91 586.83,-67.72 418.72,-36 410.94,-34.53 402.7,-32.57 394.86,-30.5"/>
<polygon fill="#ffffff" stroke="#ffffff" points="877.34,-90.35 887.52,-87.41 877.73,-83.36 877.34,-90.35"/>
</g>
<!-- Relation&#45;&gt;Partial order -->
<g id="edge22" class="edge">
<title>Relation&#45;&gt;Partial order</title>
<path fill="none" stroke="#ffffff" d="M877.53,-84.85C807.51,-77.57 663.09,-60.86 542.72,-36 535.07,-34.42 526.97,-32.43 519.23,-30.38"/>
<polygon fill="#ffffff" stroke="#ffffff" points="877.4,-88.36 887.71,-85.9 878.12,-81.39 877.4,-88.36"/>
</g>
<!-- Anti&#45;symmetric Relation -->
<g id="node10" class="node">
<title>Anti&#45;symmetric Relation</title>
<g id="a_node10"><a xlink:title="Anti&#45;symmetric Relation">
<ellipse fill="#273434" stroke="#b75867" cx="645.72" cy="-18" rx="93.64" ry="18"/>
<text text-anchor="middle" x="645.72" y="-14.9" font-family="sans" font-size="12.00" fill="#c4c7c7">Anti&#45;symmetric Relation</text>
</a>
</g>
</g>
<!-- Relation&#45;&gt;Anti&#45;symmetric Relation -->
<g id="edge9" class="edge">
<title>Relation&#45;&gt;Anti&#45;symmetric Relation</title>
<path fill="none" stroke="#ffffff" d="M877.77,-78.28C829.96,-66.07 751.72,-46.08 699.49,-32.74"/>
<polygon fill="#ffffff" stroke="#ffffff" points="876.93,-81.68 887.49,-80.76 878.66,-74.9 876.93,-81.68"/>
</g>
<!-- Symmetric Relation -->
<g id="node11" class="node">
<title>Symmetric Relation</title>
<g id="a_node11"><a xlink:title="Symmetric Relation">
<ellipse fill="#273434" stroke="#b75867" cx="835.72" cy="-18" rx="78.59" ry="18"/>
<text text-anchor="middle" x="835.72" y="-14.9" font-family="sans" font-size="12.00" fill="#c4c7c7">Symmetric Relation</text>
</a>
</g>
</g>
<!-- Relation&#45;&gt;Symmetric Relation -->
<g id="edge10" class="edge">
<title>Relation&#45;&gt;Symmetric Relation</title>
<path fill="none" stroke="#ffffff" d="M891.17,-65.21C879.5,-55.48 866.28,-44.46 855.67,-35.62"/>
<polygon fill="#ffffff" stroke="#ffffff" points="889.04,-67.98 898.96,-71.7 893.52,-62.61 889.04,-67.98"/>
</g>
<!-- Reflexive Relation -->
<g id="node12" class="node">
<title>Reflexive Relation</title>
<g id="a_node12"><a xlink:title="Reflexive Relation">
<ellipse fill="#273434" stroke="#b75867" cx="1004.72" cy="-18" rx="72.05" ry="18"/>
<text text-anchor="middle" x="1004.72" y="-14.9" font-family="sans" font-size="12.00" fill="#c4c7c7">Reflexive Relation</text>
</a>
</g>
</g>
<!-- Relation&#45;&gt;Reflexive Relation -->
<g id="edge11" class="edge">
<title>Relation&#45;&gt;Reflexive Relation</title>
<path fill="none" stroke="#ffffff" d="M948.67,-65.16C960.58,-55.36 974.07,-44.25 984.83,-35.38"/>
<polygon fill="#ffffff" stroke="#ffffff" points="946.23,-62.64 940.73,-71.7 950.68,-68.04 946.23,-62.64"/>
</g>
<!-- Anti&#45;reflexive relation -->
<g id="node13" class="node">
<title>Anti&#45;reflexive relation</title>
<g id="a_node13"><a xlink:title="Anti&#45;reflexive relation">
<ellipse fill="#273434" stroke="#b75867" cx="1179.72" cy="-18" rx="84.9" ry="18"/>
<text text-anchor="middle" x="1179.72" y="-14.9" font-family="sans" font-size="12.00" fill="#c4c7c7">Anti&#45;reflexive relation</text>
</a>
</g>
</g>
<!-- Relation&#45;&gt;Anti&#45;reflexive relation -->
<g id="edge12" class="edge">
<title>Relation&#45;&gt;Anti&#45;reflexive relation</title>
<path fill="none" stroke="#ffffff" d="M961.57,-71.97C1020.19,-53.2 1077.92,-39.76 1120,-30.82"/>
<polygon fill="#ffffff" stroke="#ffffff" points="960.2,-68.74 951.77,-75.16 962.37,-75.39 960.2,-68.74"/>
</g>
<!-- Strongly Anti&#45;symmetric Relation -->
<g id="node14" class="node">
<title>Strongly Anti&#45;symmetric Relation</title>
<g id="a_node14"><a xlink:title="Strongly Anti&#45;symmetric Relation">
<ellipse fill="#273434" stroke="#b75867" cx="1407.72" cy="-18" rx="124.93" ry="18"/>
<text text-anchor="middle" x="1407.72" y="-14.9" font-family="sans" font-size="12.00" fill="#c4c7c7">Strongly Anti&#45;symmetric Relation</text>
</a>
</g>
</g>
<!-- Relation&#45;&gt;Strongly Anti&#45;symmetric Relation -->
<g id="edge13" class="edge">
<title>Relation&#45;&gt;Strongly Anti&#45;symmetric Relation</title>
<path fill="none" stroke="#ffffff" d="M962.08,-72.04C1098.12,-37.57 1137.97,-52.42 1273.72,-36 1288.04,-34.27 1303.21,-32.39 1318,-30.53"/>
<polygon fill="#ffffff" stroke="#ffffff" points="960.92,-68.73 952.11,-74.61 962.67,-75.51 960.92,-68.73"/>
</g>
<!-- Reflexive Closure -->
<g id="node15" class="node">
<title>Reflexive Closure</title>
<g id="a_node15"><a xlink:title="Reflexive Closure">
<ellipse fill="#273434" stroke="#b75867" cx="1620.72" cy="-18" rx="69.62" ry="18"/>
<text text-anchor="middle" x="1620.72" y="-14.9" font-family="sans" font-size="12.00" fill="#c4c7c7">Reflexive Closure</text>
</a>
</g>
</g>
<!-- Relation&#45;&gt;Reflexive Closure -->
<g id="edge14" class="edge">
<title>Relation&#45;&gt;Reflexive Closure</title>
<path fill="none" stroke="#ffffff" d="M961.91,-72.19C1214.65,-15.1 1288.68,-70.86 1541.72,-36 1551.45,-34.66 1561.77,-32.78 1571.62,-30.76"/>
<polygon fill="#ffffff" stroke="#ffffff" points="961.04,-68.8 952.07,-74.45 962.6,-75.62 961.04,-68.8"/>
</g>
<!-- Symmetric Closure -->
<g id="node16" class="node">
<title>Symmetric Closure</title>
<g id="a_node16"><a xlink:title="Symmetric Closure">
<ellipse fill="#273434" stroke="#b75867" cx="1783.72" cy="-18" rx="75.94" ry="18"/>
<text text-anchor="middle" x="1783.72" y="-14.9" font-family="sans" font-size="12.00" fill="#c4c7c7">Symmetric Closure</text>
</a>
</g>
</g>
<!-- Relation&#45;&gt;Symmetric Closure -->
<g id="edge15" class="edge">
<title>Relation&#45;&gt;Symmetric Closure</title>
<path fill="none" stroke="#ffffff" d="M962.13,-72.17C1283.48,-1.52 1376.77,-76.31 1699.72,-36 1709.76,-34.75 1720.4,-32.96 1730.6,-31.01"/>
<polygon fill="#ffffff" stroke="#ffffff" points="961.06,-68.82 952.07,-74.41 962.59,-75.65 961.06,-68.82"/>
</g>
<!-- Chain -->
<g id="node17" class="node">
<title>Chain</title>
<g id="a_node17"><a xlink:title="Chain">
<ellipse fill="#273434" stroke="#b75867" cx="1907.72" cy="-18" rx="30.33" ry="18"/>
<text text-anchor="middle" x="1907.72" y="-14.9" font-family="sans" font-size="12.00" fill="#c4c7c7">Chain</text>
</a>
</g>
</g>
<!-- Relation&#45;&gt;Chain -->
<g id="edge17" class="edge">
<title>Relation&#45;&gt;Chain</title>
<path fill="none" stroke="#ffffff" d="M962.04,-72.21C1357.19,12.37 1478.33,-125.49 1868.72,-36 1874.34,-34.71 1880.15,-32.63 1885.52,-30.36"/>
<polygon fill="#ffffff" stroke="#ffffff" points="961.09,-68.83 952.06,-74.38 962.57,-75.67 961.09,-68.83"/>
</g>
<!-- Partial function -->
<g id="node18" class="node">
<title>Partial function</title>
<g id="a_node18"><a xlink:title="Partial function">
<ellipse fill="#273434" stroke="#b75867" cx="2019.72" cy="-18" rx="63.31" ry="18"/>
<text text-anchor="middle" x="2019.72" y="-14.9" font-family="sans" font-size="12.00" fill="#c4c7c7">Partial function</text>
</a>
</g>
</g>
<!-- Relation&#45;&gt;Partial function -->
<g id="edge18" class="edge">
<title>Relation&#45;&gt;Partial function</title>
<path fill="none" stroke="#ffffff" d="M962.06,-72.27C1191.11,-26.42 1732.58,-64.57 1946.72,-36 1955.88,-34.78 1965.57,-32.93 1974.8,-30.89"/>
<polygon fill="#ffffff" stroke="#ffffff" points="961.12,-68.89 952.06,-74.37 962.56,-75.74 961.12,-68.89"/>
</g>
<!-- Total function -->
<g id="node19" class="node">
<title>Total function</title>
<g id="a_node19"><a xlink:title="Total function">
<ellipse fill="#273434" stroke="#b75867" cx="2159.72" cy="-18" rx="58.46" ry="18"/>
<text text-anchor="middle" x="2159.72" y="-14.9" font-family="sans" font-size="12.00" fill="#c4c7c7">Total function</text>
</a>
</g>
</g>
<!-- Relation&#45;&gt;Total function -->
<g id="edge21" class="edge">
<title>Relation&#45;&gt;Total function</title>
<path fill="none" stroke="#ffffff" d="M961.93,-72.3C1222.62,-20.28 1845.83,-70.25 2091.72,-36 2100.4,-34.79 2109.58,-32.92 2118.28,-30.85"/>
<polygon fill="#ffffff" stroke="#ffffff" points="961.13,-68.89 952.05,-74.36 962.56,-75.74 961.13,-68.89"/>
</g>
</g>
</svg>
