<?xml version="1.0" encoding="UTF-8" standalone="no"?>
<!DOCTYPE svg PUBLIC "-//W3C//DTD SVG 1.1//EN"
 "http://www.w3.org/Graphics/SVG/1.1/DTD/svg11.dtd">
<!-- Generated by graphviz version 2.44.0 (0)
 -->
<!-- Title: Transitive Relation Pages: 1 -->
<svg width="1175pt" height="432pt"
 viewBox="0.00 0.00 1175.00 431.91" xmlns="http://www.w3.org/2000/svg" xmlns:xlink="http://www.w3.org/1999/xlink">
<g id="page0,1_graph0" class="graph" transform="scale(1 1) rotate(0) translate(4 427.91)">
<title>Transitive Relation</title>
<polygon fill="#132020" stroke="transparent" points="-4,4 -4,-427.91 1171,-427.91 1171,4 -4,4"/>
<!-- Transitive Relation -->
<g id="node1" class="node">
<title>Transitive Relation</title>
<g id="a_node1"><a xlink:href="../Transitive Relation.html" xlink:title="Transitive Relation" target="_parent">
<path fill="#273434" stroke="#b75867" d="M109,-313.63C109,-313.63 12,-313.63 12,-313.63 6,-313.63 0,-307.63 0,-301.63 0,-301.63 0,-289.63 0,-289.63 0,-283.63 6,-277.63 12,-277.63 12,-277.63 109,-277.63 109,-277.63 115,-277.63 121,-283.63 121,-289.63 121,-289.63 121,-301.63 121,-301.63 121,-307.63 115,-313.63 109,-313.63"/>
<text text-anchor="middle" x="60.5" y="-292.53" font-family="sans" font-size="12.00" fill="#c4c7c7">Transitive Relation</text>
</a>
</g>
</g>
<!-- Relation -->
<g id="node2" class="node">
<title>Relation</title>
<g id="a_node2"><a xlink:href="../Relation.html" xlink:title="Relation" target="_parent">
<path fill="#273434" stroke="#b75867" d="M181,-247.63C181,-247.63 141,-247.63 141,-247.63 135,-247.63 129,-241.63 129,-235.63 129,-235.63 129,-223.63 129,-223.63 129,-217.63 135,-211.63 141,-211.63 141,-211.63 181,-211.63 181,-211.63 187,-211.63 193,-217.63 193,-223.63 193,-223.63 193,-235.63 193,-235.63 193,-241.63 187,-247.63 181,-247.63"/>
<text text-anchor="middle" x="161" y="-226.53" font-family="sans" font-size="12.00" fill="#c4c7c7">Relation</text>
</a>
</g>
</g>
<!-- Transitive Relation&#45;&gt;Relation -->
<g id="edge1" class="edge">
<title>Transitive Relation&#45;&gt;Relation</title>
<path fill="none" stroke="#b75867" d="M88.42,-277.59C99.6,-270.1 112.73,-261.3 124.68,-253.3"/>
<polygon fill="#b75867" stroke="#b75867" points="126.76,-256.11 133.12,-247.64 122.86,-250.3 126.76,-256.11"/>
</g>
<!-- Transitive Closure -->
<g id="node3" class="node">
<title>Transitive Closure</title>
<g id="a_node3"><a xlink:href="../Transitive Closure.html" xlink:title="Transitive Closure" target="_parent">
<path fill="none" stroke="#b75867" d="M607,-370.63C607,-370.63 515,-370.63 515,-370.63 509,-370.63 503,-364.63 503,-358.63 503,-358.63 503,-346.63 503,-346.63 503,-340.63 509,-334.63 515,-334.63 515,-334.63 607,-334.63 607,-334.63 613,-334.63 619,-340.63 619,-346.63 619,-346.63 619,-358.63 619,-358.63 619,-364.63 613,-370.63 607,-370.63"/>
<text text-anchor="middle" x="561" y="-349.53" font-family="sans" font-size="12.00" fill="#c4c7c7">Transitive Closure</text>
</a>
</g>
</g>
<!-- Transitive Relation&#45;&gt;Transitive Closure -->
<g id="edge2" class="edge">
<title>Transitive Relation&#45;&gt;Transitive Closure</title>
<path fill="none" stroke="#ffffff" d="M114.09,-317.49C172.48,-340.49 270.1,-375.16 358,-388.63 385.68,-392.87 459.78,-402.68 484,-388.63 490.2,-385.03 486.44,-379.15 492,-374.63 495.27,-371.97 498.88,-369.62 502.67,-367.56"/>
<polygon fill="#ffffff" stroke="#ffffff" points="115.3,-314.2 104.71,-313.76 112.72,-320.71 115.3,-314.2"/>
</g>
<!-- Relation of Equivalence -->
<g id="node4" class="node">
<title>Relation of Equivalence</title>
<g id="a_node4"><a xlink:href="../Relation of Equivalence.html" xlink:title="Relation of Equivalence" target="_parent">
<path fill="none" stroke="#b75867" d="M338,-313.63C338,-313.63 213,-313.63 213,-313.63 207,-313.63 201,-307.63 201,-301.63 201,-301.63 201,-289.63 201,-289.63 201,-283.63 207,-277.63 213,-277.63 213,-277.63 338,-277.63 338,-277.63 344,-277.63 350,-283.63 350,-289.63 350,-289.63 350,-301.63 350,-301.63 350,-307.63 344,-313.63 338,-313.63"/>
<text text-anchor="middle" x="275.5" y="-292.53" font-family="sans" font-size="12.00" fill="#c4c7c7">Relation of Equivalence</text>
</a>
</g>
</g>
<!-- Transitive Relation&#45;&gt;Relation of Equivalence -->
<g id="edge3" class="edge">
<title>Transitive Relation&#45;&gt;Relation of Equivalence</title>
<path fill="none" stroke="#ffffff" d="M131.18,-295.63C153.49,-295.63 178.27,-295.63 200.85,-295.63"/>
<polygon fill="#ffffff" stroke="#ffffff" points="131.12,-292.13 121.12,-295.63 131.12,-299.13 131.12,-292.13"/>
</g>
<!-- Relations -->
<g id="node5" class="node">
<title>Relations</title>
<g id="a_node5"><a xlink:href="../Relations.html" xlink:title="Relations" target="_parent">
<path fill="none" stroke="#b75867" d="M443.5,-270.63C443.5,-270.63 398.5,-270.63 398.5,-270.63 392.5,-270.63 386.5,-264.63 386.5,-258.63 386.5,-258.63 386.5,-246.63 386.5,-246.63 386.5,-240.63 392.5,-234.63 398.5,-234.63 398.5,-234.63 443.5,-234.63 443.5,-234.63 449.5,-234.63 455.5,-240.63 455.5,-246.63 455.5,-246.63 455.5,-258.63 455.5,-258.63 455.5,-264.63 449.5,-270.63 443.5,-270.63"/>
<text text-anchor="middle" x="421" y="-249.53" font-family="sans" font-size="12.00" fill="#c4c7c7">Relations</text>
</a>
</g>
</g>
<!-- Transitive Relation&#45;&gt;Relations -->
<g id="edge4" class="edge">
<title>Transitive Relation&#45;&gt;Relations</title>
<path fill="none" stroke="#ffffff" d="M131.16,-287.27C207.88,-278.07 328.04,-263.66 386.21,-256.68"/>
<polygon fill="#ffffff" stroke="#ffffff" points="130.61,-283.81 121.1,-288.48 131.45,-290.76 130.61,-283.81"/>
</g>
<!-- Linear order -->
<g id="node6" class="node">
<title>Linear order</title>
<g id="a_node6"><a xlink:href="../Linear order.html" xlink:title="Linear order" target="_parent">
<path fill="none" stroke="#b75867" d="M592,-410.63C592,-410.63 530,-410.63 530,-410.63 524,-410.63 518,-404.63 518,-398.63 518,-398.63 518,-386.63 518,-386.63 518,-380.63 524,-374.63 530,-374.63 530,-374.63 592,-374.63 592,-374.63 598,-374.63 604,-380.63 604,-386.63 604,-386.63 604,-398.63 604,-398.63 604,-404.63 598,-410.63 592,-410.63"/>
<text text-anchor="middle" x="561" y="-389.53" font-family="sans" font-size="12.00" fill="#c4c7c7">Linear order</text>
</a>
</g>
</g>
<!-- Transitive Relation&#45;&gt;Linear order -->
<g id="edge5" class="edge">
<title>Transitive Relation&#45;&gt;Linear order</title>
<path fill="none" stroke="#ffffff" d="M97.28,-319.12C124.55,-335.81 163.66,-357.22 201,-368.63 311.52,-402.38 449.79,-399.88 517.98,-395.9"/>
<polygon fill="#ffffff" stroke="#ffffff" points="98.84,-315.97 88.5,-313.66 95.15,-321.91 98.84,-315.97"/>
</g>
<!-- Partial orders have no contours -->
<g id="node7" class="node">
<title>Partial orders have no contours</title>
<g id="a_node7"><a xlink:href="../Partial orders have no contours.html" xlink:title="Partial orders have no contours" target="_parent">
<path fill="none" stroke="#b75867" d="M1030,-238.63C1030,-238.63 861,-238.63 861,-238.63 855,-238.63 849,-232.63 849,-226.63 849,-226.63 849,-214.63 849,-214.63 849,-208.63 855,-202.63 861,-202.63 861,-202.63 1030,-202.63 1030,-202.63 1036,-202.63 1042,-208.63 1042,-214.63 1042,-214.63 1042,-226.63 1042,-226.63 1042,-232.63 1036,-238.63 1030,-238.63"/>
<text text-anchor="middle" x="945.5" y="-217.53" font-family="sans" font-size="12.00" fill="#c4c7c7">Partial orders have no contours</text>
</a>
</g>
</g>
<!-- Transitive Relation&#45;&gt;Partial orders have no contours -->
<g id="edge6" class="edge">
<title>Transitive Relation&#45;&gt;Partial orders have no contours</title>
<path fill="none" stroke="#ffffff" d="M70.27,-267.78C86.95,-220.2 128.23,-124.65 201,-85.63 451.6,48.76 810.83,-141.2 915.1,-202.6"/>
<polygon fill="#ffffff" stroke="#ffffff" points="66.9,-266.84 67,-277.43 73.53,-269.09 66.9,-266.84"/>
</g>
<!-- Partial order -->
<g id="node8" class="node">
<title>Partial order</title>
<g id="a_node8"><a xlink:href="../Partial order.html" xlink:title="Partial order" target="_parent">
<path fill="none" stroke="#b75867" d="M770.5,-345.63C770.5,-345.63 708.5,-345.63 708.5,-345.63 702.5,-345.63 696.5,-339.63 696.5,-333.63 696.5,-333.63 696.5,-321.63 696.5,-321.63 696.5,-315.63 702.5,-309.63 708.5,-309.63 708.5,-309.63 770.5,-309.63 770.5,-309.63 776.5,-309.63 782.5,-315.63 782.5,-321.63 782.5,-321.63 782.5,-333.63 782.5,-333.63 782.5,-339.63 776.5,-345.63 770.5,-345.63"/>
<text text-anchor="middle" x="739.5" y="-324.53" font-family="sans" font-size="12.00" fill="#c4c7c7">Partial order</text>
</a>
</g>
</g>
<!-- Transitive Relation&#45;&gt;Partial order -->
<g id="edge7" class="edge">
<title>Transitive Relation&#45;&gt;Partial order</title>
<path fill="none" stroke="#ffffff" d="M86.77,-320.6C124.34,-354.97 198.68,-412.63 274.5,-412.63 274.5,-412.63 274.5,-412.63 422,-412.63 514.47,-412.63 542.51,-437.56 630,-407.63 666.76,-395.05 701.47,-365.14 721.33,-345.67"/>
<polygon fill="#ffffff" stroke="#ffffff" points="89.02,-317.92 79.32,-313.65 84.25,-323.03 89.02,-317.92"/>
</g>
<!-- Relation&#45;&gt;Transitive Relation -->
<g id="edge11" class="edge">
<title>Relation&#45;&gt;Transitive Relation</title>
<path fill="none" stroke="#ffffff" d="M125.65,-253.36C113.82,-261.34 100.72,-270.1 89.46,-277.57"/>
<polygon fill="#ffffff" stroke="#ffffff" points="127.67,-256.22 134,-247.72 123.75,-250.42 127.67,-256.22"/>
</g>
<!-- Relation&#45;&gt;Relation of Equivalence -->
<g id="edge17" class="edge">
<title>Relation&#45;&gt;Relation of Equivalence</title>
<path fill="none" stroke="#ffffff" d="M180.62,-255.43C186.5,-262.13 193.46,-268.81 201,-273.63 203.13,-274.99 205.35,-276.27 207.64,-277.47"/>
<polygon fill="#ffffff" stroke="#ffffff" points="183.3,-253.17 174.24,-247.66 177.89,-257.61 183.3,-253.17"/>
</g>
<!-- Relation&#45;&gt;Relations -->
<g id="edge20" class="edge">
<title>Relation&#45;&gt;Relations</title>
<path fill="none" stroke="#ffffff" d="M203.09,-233.29C253.85,-237.81 339.24,-245.43 386.32,-249.62"/>
<polygon fill="#ffffff" stroke="#ffffff" points="203.39,-229.8 193.12,-232.4 202.77,-236.77 203.39,-229.8"/>
</g>
<!-- Relation&#45;&gt;Linear order -->
<g id="edge21" class="edge">
<title>Relation&#45;&gt;Linear order</title>
<path fill="none" stroke="#ffffff" d="M169.29,-257.47C175.26,-275.66 185.32,-298.87 201,-314.63 255.28,-369.18 283.07,-370.08 358,-387.63 387.2,-394.46 467.52,-394.4 517.64,-393.6"/>
<polygon fill="#ffffff" stroke="#ffffff" points="172.58,-256.25 166.31,-247.7 165.88,-258.29 172.58,-256.25"/>
</g>
<!-- Relation&#45;&gt;Partial order -->
<g id="edge23" class="edge">
<title>Relation&#45;&gt;Partial order</title>
<path fill="none" stroke="#ffffff" d="M203.38,-242.09C271.61,-258.8 290.81,-261.78 358,-270.63 371.92,-272.46 474.01,-270.76 484,-280.63 497.81,-294.27 477.66,-354.54 492,-367.63 503.33,-377.96 617.14,-375.98 630,-367.63 637.34,-362.86 631.21,-355.16 638,-349.63 654.27,-336.36 676.77,-330.64 696.36,-328.33"/>
<polygon fill="#ffffff" stroke="#ffffff" points="203.96,-238.63 193.42,-239.63 202.29,-245.42 203.96,-238.63"/>
</g>
<!-- Descartes Product -->
<g id="node9" class="node">
<title>Descartes Product</title>
<g id="a_node9"><a xlink:href="../Descartes Product.html" xlink:title="Descartes Product" target="_parent">
<path fill="#273434" stroke="#b75867" d="M323,-221.63C323,-221.63 228,-221.63 228,-221.63 222,-221.63 216,-215.63 216,-209.63 216,-209.63 216,-197.63 216,-197.63 216,-191.63 222,-185.63 228,-185.63 228,-185.63 323,-185.63 323,-185.63 329,-185.63 335,-191.63 335,-197.63 335,-197.63 335,-209.63 335,-209.63 335,-215.63 329,-221.63 323,-221.63"/>
<text text-anchor="middle" x="275.5" y="-200.53" font-family="sans" font-size="12.00" fill="#c4c7c7">Descartes Product</text>
</a>
</g>
</g>
<!-- Relation&#45;&gt;Descartes Product -->
<g id="edge8" class="edge">
<title>Relation&#45;&gt;Descartes Product</title>
<path fill="none" stroke="#b75867" d="M193.04,-222.45C197.17,-221.5 201.54,-220.49 206.01,-219.45"/>
<polygon fill="#b75867" stroke="#b75867" points="206.98,-222.82 215.93,-217.16 205.4,-216 206.98,-222.82"/>
</g>
<!-- Anti&#45;symmetric Relation -->
<g id="node10" class="node">
<title>Anti&#45;symmetric Relation</title>
<g id="a_node10"><a xlink:href="../Anti-symmetric Relation.html" xlink:title="Anti&#45;symmetric Relation" target="_parent">
<path fill="none" stroke="#b75867" d="M1009.5,-281.63C1009.5,-281.63 881.5,-281.63 881.5,-281.63 875.5,-281.63 869.5,-275.63 869.5,-269.63 869.5,-269.63 869.5,-257.63 869.5,-257.63 869.5,-251.63 875.5,-245.63 881.5,-245.63 881.5,-245.63 1009.5,-245.63 1009.5,-245.63 1015.5,-245.63 1021.5,-251.63 1021.5,-257.63 1021.5,-257.63 1021.5,-269.63 1021.5,-269.63 1021.5,-275.63 1015.5,-281.63 1009.5,-281.63"/>
<text text-anchor="middle" x="945.5" y="-260.53" font-family="sans" font-size="12.00" fill="#c4c7c7">Anti&#45;symmetric Relation</text>
</a>
</g>
</g>
<!-- Relation&#45;&gt;Anti&#45;symmetric Relation -->
<g id="edge9" class="edge">
<title>Relation&#45;&gt;Anti&#45;symmetric Relation</title>
<path fill="none" stroke="#ffffff" d="M166.17,-201.15C172.05,-165.47 183.99,-107.42 201,-94.63 210.52,-87.46 621.32,-86.46 630,-94.63 650.93,-114.3 618.39,-202.64 638,-223.63 639.98,-225.75 779.26,-243.27 869.36,-254.41"/>
<polygon fill="#ffffff" stroke="#ffffff" points="162.65,-201.01 164.54,-211.43 169.57,-202.1 162.65,-201.01"/>
</g>
<!-- Symmetric Relation -->
<g id="node11" class="node">
<title>Symmetric Relation</title>
<g id="a_node11"><a xlink:href="../Symmetric Relation.html" xlink:title="Symmetric Relation" target="_parent">
<path fill="none" stroke="#b75867" d="M613,-130.63C613,-130.63 509,-130.63 509,-130.63 503,-130.63 497,-124.63 497,-118.63 497,-118.63 497,-106.63 497,-106.63 497,-100.63 503,-94.63 509,-94.63 509,-94.63 613,-94.63 613,-94.63 619,-94.63 625,-100.63 625,-106.63 625,-106.63 625,-118.63 625,-118.63 625,-124.63 619,-130.63 613,-130.63"/>
<text text-anchor="middle" x="561" y="-109.53" font-family="sans" font-size="12.00" fill="#c4c7c7">Symmetric Relation</text>
</a>
</g>
</g>
<!-- Relation&#45;&gt;Symmetric Relation -->
<g id="edge10" class="edge">
<title>Relation&#45;&gt;Symmetric Relation</title>
<path fill="none" stroke="#ffffff" d="M162.51,-201.17C164.71,-173.23 172.9,-131.93 201,-111.63 246.59,-78.68 406.36,-92.69 496.64,-103.82"/>
<polygon fill="#ffffff" stroke="#ffffff" points="158.99,-201.33 161.91,-211.51 165.98,-201.73 158.99,-201.33"/>
</g>
<!-- Reflexive Relation -->
<g id="node12" class="node">
<title>Reflexive Relation</title>
<g id="a_node12"><a xlink:href="../Reflexive Relation.html" xlink:title="Reflexive Relation" target="_parent">
<path fill="none" stroke="#b75867" d="M1155,-339.63C1155,-339.63 1062,-339.63 1062,-339.63 1056,-339.63 1050,-333.63 1050,-327.63 1050,-327.63 1050,-315.63 1050,-315.63 1050,-309.63 1056,-303.63 1062,-303.63 1062,-303.63 1155,-303.63 1155,-303.63 1161,-303.63 1167,-309.63 1167,-315.63 1167,-315.63 1167,-327.63 1167,-327.63 1167,-333.63 1161,-339.63 1155,-339.63"/>
<text text-anchor="middle" x="1108.5" y="-318.53" font-family="sans" font-size="12.00" fill="#c4c7c7">Reflexive Relation</text>
</a>
</g>
</g>
<!-- Relation&#45;&gt;Reflexive Relation -->
<g id="edge12" class="edge">
<title>Relation&#45;&gt;Reflexive Relation</title>
<path fill="none" stroke="#ffffff" d="M170.17,-201.71C176.51,-179.93 185.45,-148.89 193,-121.63 196.68,-108.33 190.06,-100.03 201,-91.63 238.8,-62.59 592.2,-62.59 630,-91.63 640.94,-100.03 629.45,-110.79 638,-121.63 704.03,-205.3 746.37,-206.83 849,-235.63 890.35,-247.23 1003.43,-226.73 1042,-245.63 1067.34,-258.04 1086.84,-285.18 1097.74,-303.43"/>
<polygon fill="#ffffff" stroke="#ffffff" points="166.81,-200.73 167.37,-211.31 173.53,-202.69 166.81,-200.73"/>
</g>
<!-- Anti&#45;reflexive relation -->
<g id="node13" class="node">
<title>Anti&#45;reflexive relation</title>
<g id="a_node13"><a xlink:href="../Anti-reflexive relation.html" xlink:title="Anti&#45;reflexive relation" target="_parent">
<path fill="none" stroke="#b75867" d="M618,-167.63C618,-167.63 504,-167.63 504,-167.63 498,-167.63 492,-161.63 492,-155.63 492,-155.63 492,-143.63 492,-143.63 492,-137.63 498,-131.63 504,-131.63 504,-131.63 618,-131.63 618,-131.63 624,-131.63 630,-137.63 630,-143.63 630,-143.63 630,-155.63 630,-155.63 630,-161.63 624,-167.63 618,-167.63"/>
<text text-anchor="middle" x="561" y="-146.53" font-family="sans" font-size="12.00" fill="#c4c7c7">Anti&#45;reflexive relation</text>
</a>
</g>
</g>
<!-- Relation&#45;&gt;Anti&#45;reflexive relation -->
<g id="edge13" class="edge">
<title>Relation&#45;&gt;Anti&#45;reflexive relation</title>
<path fill="none" stroke="#ffffff" d="M168.12,-201.55C173.56,-183.91 183.48,-162.52 201,-151.63 224.95,-136.73 394.49,-141.9 491.78,-146.21"/>
<polygon fill="#ffffff" stroke="#ffffff" points="164.69,-200.81 165.4,-211.38 171.44,-202.67 164.69,-200.81"/>
</g>
<!-- Strongly Anti&#45;symmetric Relation -->
<g id="node14" class="node">
<title>Strongly Anti&#45;symmetric Relation</title>
<g id="a_node14"><a xlink:href="../Strongly Anti-symmetric Relation.html" xlink:title="Strongly Anti&#45;symmetric Relation" target="_parent">
<path fill="none" stroke="#b75867" d="M829,-287.63C829,-287.63 650,-287.63 650,-287.63 644,-287.63 638,-281.63 638,-275.63 638,-275.63 638,-263.63 638,-263.63 638,-257.63 644,-251.63 650,-251.63 650,-251.63 829,-251.63 829,-251.63 835,-251.63 841,-257.63 841,-263.63 841,-263.63 841,-275.63 841,-275.63 841,-281.63 835,-287.63 829,-287.63"/>
<text text-anchor="middle" x="739.5" y="-266.53" font-family="sans" font-size="12.00" fill="#c4c7c7">Strongly Anti&#45;symmetric Relation</text>
</a>
</g>
</g>
<!-- Relation&#45;&gt;Strongly Anti&#45;symmetric Relation -->
<g id="edge14" class="edge">
<title>Relation&#45;&gt;Strongly Anti&#45;symmetric Relation</title>
<path fill="none" stroke="#ffffff" d="M203.62,-228.24C257.14,-226.31 343.99,-222.59 350,-218.63 356.64,-214.25 352.97,-208.78 358,-202.63 405.86,-144.03 420.48,-122.31 492,-97.63 506.49,-92.62 618.87,-87.08 630,-97.63 642.11,-109.11 627.19,-234.91 638,-247.63 639.16,-248.99 640.38,-250.28 641.65,-251.49"/>
<polygon fill="#ffffff" stroke="#ffffff" points="203.26,-224.75 193.39,-228.61 203.51,-231.75 203.26,-224.75"/>
</g>
<!-- Reflexive Closure -->
<g id="node15" class="node">
<title>Reflexive Closure</title>
<g id="a_node15"><a xlink:href="../Reflexive Closure.html" xlink:title="Reflexive Closure" target="_parent">
<path fill="none" stroke="#b75867" d="M605.5,-241.63C605.5,-241.63 516.5,-241.63 516.5,-241.63 510.5,-241.63 504.5,-235.63 504.5,-229.63 504.5,-229.63 504.5,-217.63 504.5,-217.63 504.5,-211.63 510.5,-205.63 516.5,-205.63 516.5,-205.63 605.5,-205.63 605.5,-205.63 611.5,-205.63 617.5,-211.63 617.5,-217.63 617.5,-217.63 617.5,-229.63 617.5,-229.63 617.5,-235.63 611.5,-241.63 605.5,-241.63"/>
<text text-anchor="middle" x="561" y="-220.53" font-family="sans" font-size="12.00" fill="#c4c7c7">Reflexive Closure</text>
</a>
</g>
</g>
<!-- Relation&#45;&gt;Reflexive Closure -->
<g id="edge15" class="edge">
<title>Relation&#45;&gt;Reflexive Closure</title>
<path fill="none" stroke="#ffffff" d="M203.26,-229C275.13,-227.92 423.31,-225.69 504.25,-224.47"/>
<polygon fill="#ffffff" stroke="#ffffff" points="203.18,-225.5 193.23,-229.16 203.28,-232.5 203.18,-225.5"/>
</g>
<!-- Symmetric Closure -->
<g id="node16" class="node">
<title>Symmetric Closure</title>
<g id="a_node16"><a xlink:href="../Symmetric Closure.html" xlink:title="Symmetric Closure" target="_parent">
<path fill="none" stroke="#b75867" d="M610.5,-204.63C610.5,-204.63 511.5,-204.63 511.5,-204.63 505.5,-204.63 499.5,-198.63 499.5,-192.63 499.5,-192.63 499.5,-180.63 499.5,-180.63 499.5,-174.63 505.5,-168.63 511.5,-168.63 511.5,-168.63 610.5,-168.63 610.5,-168.63 616.5,-168.63 622.5,-174.63 622.5,-180.63 622.5,-180.63 622.5,-192.63 622.5,-192.63 622.5,-198.63 616.5,-204.63 610.5,-204.63"/>
<text text-anchor="middle" x="561" y="-183.53" font-family="sans" font-size="12.00" fill="#c4c7c7">Symmetric Closure</text>
</a>
</g>
</g>
<!-- Relation&#45;&gt;Symmetric Closure -->
<g id="edge16" class="edge">
<title>Relation&#45;&gt;Symmetric Closure</title>
<path fill="none" stroke="#ffffff" d="M203.23,-229.32C241.39,-228.7 299.66,-226.87 350,-221.63 400.55,-216.36 457.38,-206.65 499.16,-198.8"/>
<polygon fill="#ffffff" stroke="#ffffff" points="202.97,-225.83 193.02,-229.47 203.07,-232.83 202.97,-225.83"/>
</g>
<!-- Chain -->
<g id="node17" class="node">
<title>Chain</title>
<g id="a_node17"><a xlink:href="../Chain.html" xlink:title="Chain" target="_parent">
<path fill="none" stroke="#b75867" d="M1123.5,-209.63C1123.5,-209.63 1093.5,-209.63 1093.5,-209.63 1087.5,-209.63 1081.5,-203.63 1081.5,-197.63 1081.5,-197.63 1081.5,-185.63 1081.5,-185.63 1081.5,-179.63 1087.5,-173.63 1093.5,-173.63 1093.5,-173.63 1123.5,-173.63 1123.5,-173.63 1129.5,-173.63 1135.5,-179.63 1135.5,-185.63 1135.5,-185.63 1135.5,-197.63 1135.5,-197.63 1135.5,-203.63 1129.5,-209.63 1123.5,-209.63"/>
<text text-anchor="middle" x="1108.5" y="-188.53" font-family="sans" font-size="12.00" fill="#c4c7c7">Chain</text>
</a>
</g>
</g>
<!-- Relation&#45;&gt;Chain -->
<g id="edge18" class="edge">
<title>Relation&#45;&gt;Chain</title>
<path fill="none" stroke="#ffffff" d="M165.8,-201.28C171.42,-164.19 183.23,-102.3 201,-88.63 481.92,127.44 964.27,-112.87 1081.34,-176.85"/>
<polygon fill="#ffffff" stroke="#ffffff" points="162.29,-201.06 164.32,-211.46 169.22,-202.07 162.29,-201.06"/>
</g>
<!-- Partial function -->
<g id="node18" class="node">
<title>Partial function</title>
<g id="a_node18"><a xlink:href="../Partial function.html" xlink:title="Partial function" target="_parent">
<path fill="none" stroke="#b75867" d="M315,-184.63C315,-184.63 236,-184.63 236,-184.63 230,-184.63 224,-178.63 224,-172.63 224,-172.63 224,-160.63 224,-160.63 224,-154.63 230,-148.63 236,-148.63 236,-148.63 315,-148.63 315,-148.63 321,-148.63 327,-154.63 327,-160.63 327,-160.63 327,-172.63 327,-172.63 327,-178.63 321,-184.63 315,-184.63"/>
<text text-anchor="middle" x="275.5" y="-163.53" font-family="sans" font-size="12.00" fill="#c4c7c7">Partial function</text>
</a>
</g>
</g>
<!-- Relation&#45;&gt;Partial function -->
<g id="edge19" class="edge">
<title>Relation&#45;&gt;Partial function</title>
<path fill="none" stroke="#ffffff" d="M182.51,-203.91C188.02,-198.25 194.32,-192.73 201,-188.63 208.04,-184.31 215.98,-180.79 223.97,-177.94"/>
<polygon fill="#ffffff" stroke="#ffffff" points="179.66,-201.85 175.52,-211.6 184.84,-206.56 179.66,-201.85"/>
</g>
<!-- Total function -->
<g id="node19" class="node">
<title>Total function</title>
<g id="a_node19"><a xlink:href="../Total function.html" xlink:title="Total function" target="_parent">
<path fill="none" stroke="#b75867" d="M311,-144.63C311,-144.63 240,-144.63 240,-144.63 234,-144.63 228,-138.63 228,-132.63 228,-132.63 228,-120.63 228,-120.63 228,-114.63 234,-108.63 240,-108.63 240,-108.63 311,-108.63 311,-108.63 317,-108.63 323,-114.63 323,-120.63 323,-120.63 323,-132.63 323,-132.63 323,-138.63 317,-144.63 311,-144.63"/>
<text text-anchor="middle" x="275.5" y="-123.53" font-family="sans" font-size="12.00" fill="#c4c7c7">Total function</text>
</a>
</g>
</g>
<!-- Relation&#45;&gt;Total function -->
<g id="edge22" class="edge">
<title>Relation&#45;&gt;Total function</title>
<path fill="none" stroke="#ffffff" d="M169.11,-201.78C174.94,-184.22 184.92,-162.35 201,-148.63 208.6,-142.14 218.05,-137.57 227.63,-134.34"/>
<polygon fill="#ffffff" stroke="#ffffff" points="165.7,-200.94 166.13,-211.52 172.4,-202.98 165.7,-200.94"/>
</g>
<!-- Transitive Closure&#45;&gt;Transitive Relation -->
<g id="edge24" class="edge">
<title>Transitive Closure&#45;&gt;Transitive Relation</title>
<path fill="none" stroke="#b75867" d="M502.67,-368.56C498.88,-370.62 495.27,-372.97 492,-375.63 486.44,-380.15 490.2,-386.03 484,-389.63 459.78,-403.68 385.68,-393.87 358,-389.63 269.09,-376.01 170.24,-340.69 112.09,-317.43"/>
<polygon fill="#b75867" stroke="#b75867" points="113.35,-314.16 102.77,-313.66 110.73,-320.65 113.35,-314.16"/>
</g>
<!-- Transitive Closure&#45;&gt;Relations -->
<g id="edge25" class="edge">
<title>Transitive Closure&#45;&gt;Relations</title>
<path fill="none" stroke="#ffffff" d="M494.77,-333.61C493.8,-332.66 492.88,-331.67 492,-330.63 475.81,-311.4 499.92,-294.08 484,-274.63 476.91,-265.96 466.16,-260.71 455.6,-257.52"/>
<polygon fill="#ffffff" stroke="#ffffff" points="492.93,-336.61 502.97,-339.98 497.23,-331.08 492.93,-336.61"/>
</g>
<!-- Transitive Closure&#45;&gt;Relations -->
<g id="edge26" class="edge">
<title>Transitive Closure&#45;&gt;Relations</title>
<path fill="none" stroke="#ffffff" d="M494.77,-334.61C493.8,-333.66 492.88,-332.67 492,-331.63 475.81,-312.4 499.92,-295.08 484,-275.63 476.91,-266.96 466.16,-261.71 455.6,-258.47"/>
<polygon fill="#ffffff" stroke="#ffffff" points="492.93,-337.6 502.97,-340.98 497.22,-332.08 492.93,-337.6"/>
</g>
<!-- Relation of Equivalence&#45;&gt;Transitive Relation -->
<g id="edge30" class="edge">
<title>Relation of Equivalence&#45;&gt;Transitive Relation</title>
<path fill="none" stroke="#b75867" d="M200.85,-296.34C178.27,-296.39 153.49,-296.39 131.18,-296.33"/>
<polygon fill="#b75867" stroke="#b75867" points="131.13,-292.83 121.12,-296.31 131.11,-299.83 131.13,-292.83"/>
</g>
<!-- Relation of Equivalence&#45;&gt;Relation -->
<g id="edge33" class="edge">
<title>Relation of Equivalence&#45;&gt;Relation</title>
<path fill="none" stroke="#b75867" d="M205.85,-277.51C204.19,-276.59 202.57,-275.63 201,-274.63 193.21,-269.65 186.05,-262.69 180.05,-255.73"/>
<polygon fill="#b75867" stroke="#b75867" points="182.56,-253.27 173.57,-247.67 177.11,-257.65 182.56,-253.27"/>
</g>
<!-- Relation of Equivalence&#45;&gt;Relations -->
<g id="edge35" class="edge">
<title>Relation of Equivalence&#45;&gt;Relations</title>
<path fill="none" stroke="#ffffff" d="M346.31,-274.73C347.55,-274.36 348.78,-273.99 350,-273.63 361.79,-270.09 374.69,-266.22 386.18,-262.78"/>
<polygon fill="#ffffff" stroke="#ffffff" points="345.24,-271.4 336.67,-277.62 347.25,-278.1 345.24,-271.4"/>
</g>
<!-- Relation of Equivalence&#45;&gt;Symmetric Relation -->
<g id="edge31" class="edge">
<title>Relation of Equivalence&#45;&gt;Symmetric Relation</title>
<path fill="none" stroke="#b75867" d="M296.08,-277.43C330.99,-245.81 407.51,-180.18 491.28,-135.39"/>
<polygon fill="#b75867" stroke="#b75867" points="492.97,-138.45 500.2,-130.71 489.72,-132.25 492.97,-138.45"/>
</g>
<!-- Relation of Equivalence&#45;&gt;Reflexive Relation -->
<g id="edge32" class="edge">
<title>Relation of Equivalence&#45;&gt;Reflexive Relation</title>
<path fill="none" stroke="#b75867" d="M287.88,-313.85C301.79,-334.47 327.29,-367.43 358,-384.63 410.93,-414.27 431.61,-404.82 492,-410.63 737.12,-434.19 802.96,-402.79 1042,-343.63 1043.46,-343.27 1044.93,-342.89 1046.4,-342.5"/>
<polygon fill="#b75867" stroke="#b75867" points="1047.57,-345.8 1056.25,-339.72 1045.67,-339.07 1047.57,-345.8"/>
</g>
<!-- Class of equivalence -->
<g id="node20" class="node">
<title>Class of equivalence</title>
<g id="a_node20"><a xlink:href="../Class of equivalence.html" xlink:title="Class of equivalence" target="_parent">
<path fill="#273434" stroke="#b75867" d="M614.5,-333.63C614.5,-333.63 507.5,-333.63 507.5,-333.63 501.5,-333.63 495.5,-327.63 495.5,-321.63 495.5,-321.63 495.5,-309.63 495.5,-309.63 495.5,-303.63 501.5,-297.63 507.5,-297.63 507.5,-297.63 614.5,-297.63 614.5,-297.63 620.5,-297.63 626.5,-303.63 626.5,-309.63 626.5,-309.63 626.5,-321.63 626.5,-321.63 626.5,-327.63 620.5,-333.63 614.5,-333.63"/>
<text text-anchor="middle" x="561" y="-312.53" font-family="sans" font-size="12.00" fill="#c4c7c7">Class of equivalence</text>
</a>
</g>
</g>
<!-- Relation of Equivalence&#45;&gt;Class of equivalence -->
<g id="edge27" class="edge">
<title>Relation of Equivalence&#45;&gt;Class of equivalence</title>
<path fill="none" stroke="#b75867" d="M350.12,-278.61C352.78,-278.24 355.41,-277.91 358,-277.63 385.83,-274.59 460.18,-262.91 484,-277.63 488.65,-280.5 487.84,-284.54 490.47,-289.72"/>
<polygon fill="#b75867" stroke="#b75867" points="487.92,-292.12 497.04,-297.5 493.27,-287.6 487.92,-292.12"/>
</g>
<!-- Set -->
<g id="node21" class="node">
<title>Set</title>
<g id="a_node21"><a xlink:href="../Set.html" xlink:title="Set" target="_parent">
<path fill="#273434" stroke="#b75867" d="M436,-350.63C436,-350.63 406,-350.63 406,-350.63 400,-350.63 394,-344.63 394,-338.63 394,-338.63 394,-326.63 394,-326.63 394,-320.63 400,-314.63 406,-314.63 406,-314.63 436,-314.63 436,-314.63 442,-314.63 448,-320.63 448,-326.63 448,-326.63 448,-338.63 448,-338.63 448,-344.63 442,-350.63 436,-350.63"/>
<text text-anchor="middle" x="421" y="-329.53" font-family="sans" font-size="12.00" fill="#c4c7c7">Set</text>
</a>
</g>
</g>
<!-- Relation of Equivalence&#45;&gt;Set -->
<g id="edge28" class="edge">
<title>Relation of Equivalence&#45;&gt;Set</title>
<path fill="none" stroke="#b75867" d="M346.57,-313.69C359.53,-317.04 372.57,-320.4 383.99,-323.34"/>
<polygon fill="#b75867" stroke="#b75867" points="383.41,-326.81 393.97,-325.91 385.16,-320.03 383.41,-326.81"/>
</g>
<!-- Partition -->
<g id="node22" class="node">
<title>Partition</title>
<g id="a_node22"><a xlink:href="../Partition.html" xlink:title="Partition" target="_parent">
<path fill="#273434" stroke="#b75867" d="M441.5,-313.63C441.5,-313.63 400.5,-313.63 400.5,-313.63 394.5,-313.63 388.5,-307.63 388.5,-301.63 388.5,-301.63 388.5,-289.63 388.5,-289.63 388.5,-283.63 394.5,-277.63 400.5,-277.63 400.5,-277.63 441.5,-277.63 441.5,-277.63 447.5,-277.63 453.5,-283.63 453.5,-289.63 453.5,-289.63 453.5,-301.63 453.5,-301.63 453.5,-307.63 447.5,-313.63 441.5,-313.63"/>
<text text-anchor="middle" x="421" y="-292.53" font-family="sans" font-size="12.00" fill="#c4c7c7">Partition</text>
</a>
</g>
</g>
<!-- Relation of Equivalence&#45;&gt;Partition -->
<g id="edge29" class="edge">
<title>Relation of Equivalence&#45;&gt;Partition</title>
<path fill="none" stroke="#b75867" d="M350.35,-295.63C359.82,-295.63 369.25,-295.63 377.96,-295.63"/>
<polygon fill="#b75867" stroke="#b75867" points="378.19,-299.13 388.19,-295.63 378.19,-292.13 378.19,-299.13"/>
</g>
<!-- Principle of division -->
<g id="node23" class="node">
<title>Principle of division</title>
<g id="a_node23"><a xlink:href="../Principle of division.html" xlink:title="Principle of division" target="_parent">
<path fill="none" stroke="#b75867" d="M472,-387.63C472,-387.63 370,-387.63 370,-387.63 364,-387.63 358,-381.63 358,-375.63 358,-375.63 358,-363.63 358,-363.63 358,-357.63 364,-351.63 370,-351.63 370,-351.63 472,-351.63 472,-351.63 478,-351.63 484,-357.63 484,-363.63 484,-363.63 484,-375.63 484,-375.63 484,-381.63 478,-387.63 472,-387.63"/>
<text text-anchor="middle" x="421" y="-366.53" font-family="sans" font-size="12.00" fill="#c4c7c7">Principle of division</text>
</a>
</g>
</g>
<!-- Relation of Equivalence&#45;&gt;Principle of division -->
<g id="edge34" class="edge">
<title>Relation of Equivalence&#45;&gt;Principle of division</title>
<path fill="none" stroke="#ffffff" d="M310.2,-319.56C324.51,-329.08 341.64,-339.63 358,-347.63 360.77,-348.98 363.65,-350.29 366.57,-351.56"/>
<polygon fill="#ffffff" stroke="#ffffff" points="311.93,-316.51 301.69,-313.81 308.01,-322.31 311.93,-316.51"/>
</g>
<!-- Relations&#45;&gt;Transitive Relation -->
<g id="edge48" class="edge">
<title>Relations&#45;&gt;Transitive Relation</title>
<path fill="none" stroke="#b75867" d="M386.21,-257.14C328.04,-264.44 207.88,-278.91 131.16,-287.88"/>
<polygon fill="#b75867" stroke="#b75867" points="130.63,-284.42 121.1,-289.05 131.44,-291.37 130.63,-284.42"/>
</g>
<!-- Relations&#45;&gt;Relation -->
<g id="edge54" class="edge">
<title>Relations&#45;&gt;Relation</title>
<path fill="none" stroke="#b75867" d="M386.32,-250.15C339.24,-246.24 253.85,-238.64 203.09,-233.86"/>
<polygon fill="#b75867" stroke="#b75867" points="203.41,-230.37 193.12,-232.91 202.75,-237.34 203.41,-230.37"/>
</g>
<!-- Relations&#45;&gt;Transitive Closure -->
<g id="edge42" class="edge">
<title>Relations&#45;&gt;Transitive Closure</title>
<path fill="none" stroke="#b75867" d="M455.6,-257.52C466.16,-260.71 476.91,-265.96 484,-274.63 499.92,-294.08 475.81,-311.4 492,-330.63 492.88,-331.67 493.8,-332.66 494.77,-333.61"/>
<polygon fill="#b75867" stroke="#b75867" points="492.93,-336.61 502.97,-339.98 497.23,-331.08 492.93,-336.61"/>
</g>
<!-- Relations&#45;&gt;Transitive Closure -->
<g id="edge46" class="edge">
<title>Relations&#45;&gt;Transitive Closure</title>
<path fill="none" stroke="#b75867" d="M455.6,-256.58C466.16,-259.71 476.91,-264.96 484,-273.63 499.92,-293.08 475.81,-310.4 492,-329.63 492.88,-330.67 493.8,-331.66 494.77,-332.61"/>
<polygon fill="#b75867" stroke="#b75867" points="492.93,-335.61 502.97,-338.98 497.23,-330.08 492.93,-335.61"/>
</g>
<!-- Relations&#45;&gt;Relation of Equivalence -->
<g id="edge41" class="edge">
<title>Relations&#45;&gt;Relation of Equivalence</title>
<path fill="none" stroke="#b75867" d="M386.18,-263.72C374.69,-267.22 361.79,-271.09 350,-274.63 349.9,-274.66 349.8,-274.69 349.7,-274.72"/>
<polygon fill="#b75867" stroke="#b75867" points="348.82,-271.33 340.24,-277.55 350.83,-278.03 348.82,-271.33"/>
</g>
<!-- Relations&#45;&gt;Linear order -->
<g id="edge38" class="edge">
<title>Relations&#45;&gt;Linear order</title>
<path fill="none" stroke="#b75867" d="M455.65,-258.88C466.35,-262.56 477.17,-268.39 484,-277.63 496.33,-294.31 479.09,-354.39 492,-370.63 496.36,-376.11 502.1,-380.24 508.4,-383.35"/>
<polygon fill="#b75867" stroke="#b75867" points="507.36,-386.71 517.94,-387.23 509.99,-380.22 507.36,-386.71"/>
</g>
<!-- Relations&#45;&gt;Partial order -->
<g id="edge39" class="edge">
<title>Relations&#45;&gt;Partial order</title>
<path fill="none" stroke="#b75867" d="M455.72,-259.47C465.68,-262.76 476.04,-267.59 484,-274.63 489.96,-279.89 485.39,-286.2 492,-290.63 517.55,-307.73 599.64,-295.78 630,-300.63 648.51,-303.58 668.49,-308.14 686.2,-312.69"/>
<polygon fill="#b75867" stroke="#b75867" points="685.77,-316.19 696.34,-315.34 687.55,-309.42 685.77,-316.19"/>
</g>
<!-- Relations&#45;&gt;Anti&#45;symmetric Relation -->
<g id="edge50" class="edge">
<title>Relations&#45;&gt;Anti&#45;symmetric Relation</title>
<path fill="none" stroke="#b75867" d="M455.7,-251.85C526.89,-250.42 697.84,-248.07 841,-254.63 846.89,-254.9 852.96,-255.24 859.07,-255.64"/>
<polygon fill="#b75867" stroke="#b75867" points="859.14,-259.16 869.36,-256.36 859.63,-252.17 859.14,-259.16"/>
</g>
<!-- Relations&#45;&gt;Symmetric Relation -->
<g id="edge51" class="edge">
<title>Relations&#45;&gt;Symmetric Relation</title>
<path fill="none" stroke="#b75867" d="M455.57,-248.06C466.26,-244.9 477.1,-239.58 484,-230.63 495.59,-215.59 482.46,-164.93 491.98,-138.39"/>
<polygon fill="#b75867" stroke="#b75867" points="495.1,-139.98 496.83,-129.53 488.96,-136.62 495.1,-139.98"/>
</g>
<!-- Relations&#45;&gt;Reflexive Relation -->
<g id="edge53" class="edge">
<title>Relations&#45;&gt;Reflexive Relation</title>
<path fill="none" stroke="#b75867" d="M455.85,-251.63C581.48,-248.06 1015.12,-236.63 1042,-248.63 1063.12,-258.05 1080.27,-278.03 1091.72,-294.71"/>
<polygon fill="#b75867" stroke="#b75867" points="1089.08,-297.08 1097.48,-303.54 1094.95,-293.26 1089.08,-297.08"/>
</g>
<!-- Relations&#45;&gt;Anti&#45;reflexive relation -->
<g id="edge52" class="edge">
<title>Relations&#45;&gt;Anti&#45;reflexive relation</title>
<path fill="none" stroke="#b75867" d="M455.63,-247.76C466.2,-244.57 476.94,-239.31 484,-230.63 498.67,-212.58 480.62,-196.36 489.99,-176.36"/>
<polygon fill="#b75867" stroke="#b75867" points="493,-178.14 495.57,-167.86 487.16,-174.29 493,-178.14"/>
</g>
<!-- Relations&#45;&gt;Strongly Anti&#45;symmetric Relation -->
<g id="edge49" class="edge">
<title>Relations&#45;&gt;Strongly Anti&#45;symmetric Relation</title>
<path fill="none" stroke="#b75867" d="M455.54,-252.55C494.68,-252.65 561.61,-253.42 627.59,-257.53"/>
<polygon fill="#b75867" stroke="#b75867" points="627.54,-261.03 637.75,-258.18 627.99,-254.04 627.54,-261.03"/>
</g>
<!-- Relations&#45;&gt;Reflexive Closure -->
<g id="edge44" class="edge">
<title>Relations&#45;&gt;Reflexive Closure</title>
<path fill="none" stroke="#b75867" d="M455.76,-245.53C467.39,-243.09 480.86,-240.26 494.17,-237.46"/>
<polygon fill="#b75867" stroke="#b75867" points="495.21,-240.82 504.28,-235.34 493.77,-233.97 495.21,-240.82"/>
</g>
<!-- Relations&#45;&gt;Reflexive Closure -->
<g id="edge47" class="edge">
<title>Relations&#45;&gt;Reflexive Closure</title>
<path fill="none" stroke="#b75867" d="M455.76,-246.19C467.39,-243.81 480.86,-241.01 494.17,-238.21"/>
<polygon fill="#b75867" stroke="#b75867" points="495.22,-241.57 504.28,-236.07 493.77,-234.72 495.22,-241.57"/>
</g>
<!-- Relations&#45;&gt;Symmetric Closure -->
<g id="edge43" class="edge">
<title>Relations&#45;&gt;Symmetric Closure</title>
<path fill="none" stroke="#b75867" d="M455.58,-246.53C465.77,-243.27 476.3,-238.27 484,-230.63 489.83,-224.84 486.78,-218.99 492.48,-210.35"/>
<polygon fill="#b75867" stroke="#b75867" points="495.2,-212.56 499.27,-202.78 489.99,-207.89 495.2,-212.56"/>
</g>
<!-- Relations&#45;&gt;Symmetric Closure -->
<g id="edge45" class="edge">
<title>Relations&#45;&gt;Symmetric Closure</title>
<path fill="none" stroke="#b75867" d="M455.58,-247.48C465.77,-244.27 476.3,-239.27 484,-231.63 489.83,-225.84 486.78,-219.99 492.48,-211.35"/>
<polygon fill="#b75867" stroke="#b75867" points="495.2,-213.56 499.27,-203.78 489.99,-208.89 495.2,-213.56"/>
</g>
<!-- Relations&#45;&gt;Chain -->
<g id="edge36" class="edge">
<title>Relations&#45;&gt;Chain</title>
<path fill="none" stroke="#b75867" d="M455.88,-250.69C505.94,-247.76 597.26,-242.19 630,-238.63 727.85,-227.98 751.08,-215.63 849,-205.63 928.1,-197.54 1021.33,-193.95 1071.38,-192.49"/>
<polygon fill="#b75867" stroke="#b75867" points="1071.49,-195.99 1081.38,-192.22 1071.29,-189 1071.49,-195.99"/>
</g>
<!-- Relations&#45;&gt;Class of equivalence -->
<g id="edge40" class="edge">
<title>Relations&#45;&gt;Class of equivalence</title>
<path fill="none" stroke="#b75867" d="M455.68,-259.05C465.76,-262.33 476.19,-267.26 484,-274.63 488.68,-279.05 487.4,-283.58 490.18,-289.35"/>
<polygon fill="#b75867" stroke="#b75867" points="487.64,-291.79 496.62,-297.41 493.11,-287.42 487.64,-291.79"/>
</g>
<!-- Linear extension -->
<g id="node24" class="node">
<title>Linear extension</title>
<g id="a_node24"><a xlink:href="../Linear extension.html" xlink:title="Linear extension" target="_parent">
<path fill="#273434" stroke="#b75867" d="M988.5,-325.63C988.5,-325.63 902.5,-325.63 902.5,-325.63 896.5,-325.63 890.5,-319.63 890.5,-313.63 890.5,-313.63 890.5,-301.63 890.5,-301.63 890.5,-295.63 896.5,-289.63 902.5,-289.63 902.5,-289.63 988.5,-289.63 988.5,-289.63 994.5,-289.63 1000.5,-295.63 1000.5,-301.63 1000.5,-301.63 1000.5,-313.63 1000.5,-313.63 1000.5,-319.63 994.5,-325.63 988.5,-325.63"/>
<text text-anchor="middle" x="945.5" y="-304.53" font-family="sans" font-size="12.00" fill="#c4c7c7">Linear extension</text>
</a>
</g>
</g>
<!-- Relations&#45;&gt;Linear extension -->
<g id="edge37" class="edge">
<title>Relations&#45;&gt;Linear extension</title>
<path fill="none" stroke="#b75867" d="M455.67,-260.01C465.52,-263.32 475.83,-268.02 484,-274.63 489.27,-278.89 486.15,-284.19 492,-287.63 500.24,-292.47 757.24,-301.5 880.19,-305.56"/>
<polygon fill="#b75867" stroke="#b75867" points="880.12,-309.06 890.23,-305.89 880.35,-302.06 880.12,-309.06"/>
</g>
<!-- Discrete Structures -->
<g id="node25" class="node">
<title>Discrete Structures</title>
<g id="a_node25"><a xlink:href="../Discrete Structures.html" xlink:title="Discrete Structures" target="_parent">
<path fill="none" stroke="#b75867" d="M610,-290.63C610,-290.63 512,-290.63 512,-290.63 506,-290.63 500,-284.63 500,-278.63 500,-278.63 500,-266.63 500,-266.63 500,-260.63 506,-254.63 512,-254.63 512,-254.63 610,-254.63 610,-254.63 616,-254.63 622,-260.63 622,-266.63 622,-266.63 622,-278.63 622,-278.63 622,-284.63 616,-290.63 610,-290.63"/>
<text text-anchor="middle" x="561" y="-269.53" font-family="sans" font-size="12.00" fill="#c4c7c7">Discrete Structures</text>
</a>
</g>
</g>
<!-- Relations&#45;&gt;Discrete Structures -->
<g id="edge55" class="edge">
<title>Relations&#45;&gt;Discrete Structures</title>
<path fill="none" stroke="#ffffff" d="M465.82,-258.98C476.67,-260.55 488.47,-262.26 499.95,-263.92"/>
<polygon fill="#ffffff" stroke="#ffffff" points="466.16,-255.49 455.76,-257.52 465.15,-262.42 466.16,-255.49"/>
</g>
<!-- Linear order&#45;&gt;Transitive Relation -->
<g id="edge57" class="edge">
<title>Linear order&#45;&gt;Transitive Relation</title>
<path fill="none" stroke="#b75867" d="M517.98,-396.52C449.79,-400.88 311.52,-403.38 201,-369.63 163.19,-358.08 123.57,-336.27 96.26,-319.31"/>
<polygon fill="#b75867" stroke="#b75867" points="97.81,-316.15 87.49,-313.76 94.07,-322.07 97.81,-316.15"/>
</g>
<!-- Linear order&#45;&gt;Relation -->
<g id="edge60" class="edge">
<title>Linear order&#45;&gt;Relation</title>
<path fill="none" stroke="#b75867" d="M517.64,-394.3C467.52,-395.4 387.2,-395.46 358,-388.63 283.07,-371.08 255.28,-370.18 201,-315.63 185.06,-299.6 174.92,-275.87 168.99,-257.39"/>
<polygon fill="#b75867" stroke="#b75867" points="172.33,-256.33 166.12,-247.74 165.62,-258.33 172.33,-256.33"/>
</g>
<!-- Linear order&#45;&gt;Relations -->
<g id="edge62" class="edge">
<title>Linear order&#45;&gt;Relations</title>
<path fill="none" stroke="#ffffff" d="M508.4,-384.34C502.1,-381.24 496.36,-377.11 492,-371.63 479.09,-355.39 496.33,-295.31 484,-278.63 477.17,-269.39 466.35,-263.56 455.65,-259.82"/>
<polygon fill="#ffffff" stroke="#ffffff" points="507.36,-387.7 517.94,-388.19 509.98,-381.2 507.36,-387.7"/>
</g>
<!-- Linear order&#45;&gt;Partial order -->
<g id="edge56" class="edge">
<title>Linear order&#45;&gt;Partial order</title>
<path fill="none" stroke="#b75867" d="M604.07,-383.86C613.19,-380.68 622.38,-376.39 630,-370.63 635.11,-366.76 632.86,-362.46 638,-358.63 652.06,-348.14 669.72,-341.16 686.3,-336.52"/>
<polygon fill="#b75867" stroke="#b75867" points="687.61,-339.8 696.44,-333.94 685.88,-333.02 687.61,-339.8"/>
</g>
<!-- Linear order&#45;&gt;Reflexive Relation -->
<g id="edge59" class="edge">
<title>Linear order&#45;&gt;Reflexive Relation</title>
<path fill="none" stroke="#b75867" d="M604.08,-387.47C658.72,-380.75 757.01,-368.57 841,-357.63 908.63,-348.82 985.86,-338.34 1039.71,-330.96"/>
<polygon fill="#b75867" stroke="#b75867" points="1040.38,-334.4 1049.82,-329.58 1039.43,-327.47 1040.38,-334.4"/>
</g>
<!-- Linear order&#45;&gt;Strongly Anti&#45;symmetric Relation -->
<g id="edge58" class="edge">
<title>Linear order&#45;&gt;Strongly Anti&#45;symmetric Relation</title>
<path fill="none" stroke="#b75867" d="M604.16,-386.91C613.95,-383.64 623.41,-378.54 630,-370.63 647.49,-349.61 621.21,-331.21 638,-309.63 643.22,-302.91 649.74,-297.33 656.93,-292.67"/>
<polygon fill="#b75867" stroke="#b75867" points="658.75,-295.67 665.65,-287.63 655.24,-289.61 658.75,-295.67"/>
</g>
<!-- Linear order&#45;&gt;Linear extension -->
<g id="edge61" class="edge">
<title>Linear order&#45;&gt;Linear extension</title>
<path fill="none" stroke="#ffffff" d="M613.92,-376.1C619.36,-374.29 624.8,-372.44 630,-370.63 633.59,-369.37 634.3,-368.5 638,-367.63 726.3,-346.87 752.72,-367.46 841,-346.63 862.31,-341.6 885.16,-333.32 903.96,-325.67"/>
<polygon fill="#ffffff" stroke="#ffffff" points="612.58,-372.86 604.18,-379.31 614.77,-379.51 612.58,-372.86"/>
</g>
<!-- Partial orders have no contours&#45;&gt;Transitive Relation -->
<g id="edge65" class="edge">
<title>Partial orders have no contours&#45;&gt;Transitive Relation</title>
<path fill="none" stroke="#b75867" d="M914.37,-202.57C809.18,-141.32 451.02,47.45 201,-86.63 128.41,-125.55 87.16,-220.73 70.4,-268.03"/>
<polygon fill="#b75867" stroke="#b75867" points="67.04,-267.03 67.1,-277.62 73.66,-269.3 67.04,-267.03"/>
</g>
<!-- Partial orders have no contours&#45;&gt;Partial order -->
<g id="edge64" class="edge">
<title>Partial orders have no contours&#45;&gt;Partial order</title>
<path fill="none" stroke="#b75867" d="M856.61,-238.84C853.89,-240.88 851.34,-243.13 849,-245.63 835.42,-260.14 853.66,-274.3 841,-289.63 828.78,-304.42 810.24,-313.62 792.38,-319.27"/>
<polygon fill="#b75867" stroke="#b75867" points="791.25,-315.95 782.58,-322.06 793.16,-322.69 791.25,-315.95"/>
</g>
<!-- Partial orders have no contours&#45;&gt;Reflexive Relation -->
<g id="edge66" class="edge">
<title>Partial orders have no contours&#45;&gt;Reflexive Relation</title>
<path fill="none" stroke="#b75867" d="M1035.28,-238.85C1037.58,-240.03 1039.83,-241.29 1042,-242.63 1062.92,-255.52 1080.32,-277.46 1091.91,-294.95"/>
<polygon fill="#b75867" stroke="#b75867" points="1089.11,-297.07 1097.43,-303.62 1095.01,-293.31 1089.11,-297.07"/>
</g>
<!-- Partial orders have no contours&#45;&gt;Chain -->
<g id="edge67" class="edge">
<title>Partial orders have no contours&#45;&gt;Chain</title>
<path fill="none" stroke="#ffffff" d="M1052.07,-201.61C1062.84,-199.67 1072.94,-197.85 1081.5,-196.31"/>
<polygon fill="#ffffff" stroke="#ffffff" points="1051.24,-198.2 1042.02,-203.42 1052.48,-205.09 1051.24,-198.2"/>
</g>
<!-- Contour -->
<g id="node26" class="node">
<title>Contour</title>
<g id="a_node26"><a xlink:href="../Contour.html" xlink:title="Contour" target="_parent">
<path fill="#273434" stroke="#b75867" d="M1128,-246.63C1128,-246.63 1089,-246.63 1089,-246.63 1083,-246.63 1077,-240.63 1077,-234.63 1077,-234.63 1077,-222.63 1077,-222.63 1077,-216.63 1083,-210.63 1089,-210.63 1089,-210.63 1128,-210.63 1128,-210.63 1134,-210.63 1140,-216.63 1140,-222.63 1140,-222.63 1140,-234.63 1140,-234.63 1140,-240.63 1134,-246.63 1128,-246.63"/>
<text text-anchor="middle" x="1108.5" y="-225.53" font-family="sans" font-size="12.00" fill="#c4c7c7">Contour</text>
</a>
</g>
</g>
<!-- Partial orders have no contours&#45;&gt;Contour -->
<g id="edge63" class="edge">
<title>Partial orders have no contours&#45;&gt;Contour</title>
<path fill="none" stroke="#b75867" d="M1042.02,-225.37C1050.67,-225.8 1059.09,-226.22 1066.85,-226.61"/>
<polygon fill="#b75867" stroke="#b75867" points="1066.82,-230.11 1076.98,-227.11 1067.17,-223.12 1066.82,-230.11"/>
</g>
<!-- Partial order&#45;&gt;Transitive Relation -->
<g id="edge68" class="edge">
<title>Partial order&#45;&gt;Transitive Relation</title>
<path fill="none" stroke="#b75867" d="M722.04,-345.69C702.3,-365.42 667.2,-395.9 630,-408.63 542.51,-438.56 514.47,-413.63 422,-413.63 274.5,-413.63 274.5,-413.63 274.5,-413.63 198.28,-413.63 123.57,-355.36 86.19,-320.72"/>
<polygon fill="#b75867" stroke="#b75867" points="88.46,-318.05 78.79,-313.71 83.64,-323.13 88.46,-318.05"/>
</g>
<!-- Partial order&#45;&gt;Relation -->
<g id="edge71" class="edge">
<title>Partial order&#45;&gt;Relation</title>
<path fill="none" stroke="#b75867" d="M696.36,-329.23C676.77,-331.64 654.27,-337.36 638,-350.63 631.21,-356.16 637.34,-363.86 630,-368.63 617.14,-376.98 503.33,-378.96 492,-368.63 477.66,-355.54 497.81,-295.27 484,-281.63 474.01,-271.76 371.92,-273.46 358,-271.63 290.81,-262.78 271.61,-259.8 203.38,-243.08"/>
<polygon fill="#b75867" stroke="#b75867" points="203.96,-239.62 193.42,-240.63 202.29,-246.42 203.96,-239.62"/>
</g>
<!-- Partial order&#45;&gt;Relations -->
<g id="edge73" class="edge">
<title>Partial order&#45;&gt;Relations</title>
<path fill="none" stroke="#ffffff" d="M686.2,-313.63C668.49,-309.14 648.51,-304.58 630,-301.63 599.64,-296.78 517.55,-308.73 492,-291.63 485.39,-287.2 489.96,-280.89 484,-275.63 476.04,-268.59 465.68,-263.76 455.72,-260.42"/>
<polygon fill="#ffffff" stroke="#ffffff" points="685.78,-317.14 696.34,-316.25 687.53,-310.36 685.78,-317.14"/>
</g>
<!-- Partial order&#45;&gt;Linear order -->
<g id="edge74" class="edge">
<title>Partial order&#45;&gt;Linear order</title>
<path fill="none" stroke="#ffffff" d="M686.3,-337.47C669.72,-342.16 652.06,-349.14 638,-359.63 632.86,-363.46 635.11,-367.76 630,-371.63 622.38,-377.39 613.19,-381.68 604.07,-384.83"/>
<polygon fill="#ffffff" stroke="#ffffff" points="687.63,-340.74 696.44,-334.84 685.88,-333.96 687.63,-340.74"/>
</g>
<!-- Partial order&#45;&gt;Partial orders have no contours -->
<g id="edge75" class="edge">
<title>Partial order&#45;&gt;Partial orders have no contours</title>
<path fill="none" stroke="#ffffff" d="M792.38,-318.33C810.24,-312.62 828.78,-303.42 841,-288.63 853.66,-273.3 835.42,-259.14 849,-244.63 850.99,-242.5 853.13,-240.56 855.4,-238.77"/>
<polygon fill="#ffffff" stroke="#ffffff" points="791.22,-315.03 782.58,-321.16 793.16,-321.75 791.22,-315.03"/>
</g>
<!-- Partial order&#45;&gt;Anti&#45;symmetric Relation -->
<g id="edge69" class="edge">
<title>Partial order&#45;&gt;Anti&#45;symmetric Relation</title>
<path fill="none" stroke="#b75867" d="M782.52,-312.13C802.54,-304.94 826.89,-296.5 849,-289.63 854.57,-287.89 860.34,-286.16 866.17,-284.47"/>
<polygon fill="#b75867" stroke="#b75867" points="867.35,-287.77 875.99,-281.65 865.41,-281.04 867.35,-287.77"/>
</g>
<!-- Partial order&#45;&gt;Reflexive Relation -->
<g id="edge70" class="edge">
<title>Partial order&#45;&gt;Reflexive Relation</title>
<path fill="none" stroke="#b75867" d="M782.6,-326.94C845.45,-325.91 964.44,-323.96 1039.66,-322.74"/>
<polygon fill="#b75867" stroke="#b75867" points="1040.04,-326.23 1049.98,-322.57 1039.92,-319.23 1040.04,-326.23"/>
</g>
<!-- Partial order&#45;&gt;Linear extension -->
<g id="edge72" class="edge">
<title>Partial order&#45;&gt;Linear extension</title>
<path fill="none" stroke="#ffffff" d="M792.99,-322.48C822.82,-319.56 860.12,-315.9 890.25,-312.94"/>
<polygon fill="#ffffff" stroke="#ffffff" points="792.38,-319.02 782.77,-323.48 793.06,-325.99 792.38,-319.02"/>
</g>
</g>
</svg>
