<?xml version="1.0" encoding="UTF-8" standalone="no"?>
<!DOCTYPE svg PUBLIC "-//W3C//DTD SVG 1.1//EN"
 "http://www.w3.org/Graphics/SVG/1.1/DTD/svg11.dtd">
<!-- Generated by graphviz version 2.44.0 (0)
 -->
<!-- Title: Transitive Closure Pages: 1 -->
<svg width="2226pt" height="260pt"
 viewBox="0.00 0.00 2226.42 260.00" xmlns="http://www.w3.org/2000/svg" xmlns:xlink="http://www.w3.org/1999/xlink">
<g id="page0,1_graph0" class="graph" transform="scale(1 1) rotate(0) translate(4 256)">
<title>Transitive Closure</title>
<polygon fill="#132020" stroke="transparent" points="-4,4 -4,-256 2222.42,-256 2222.42,4 -4,4"/>
<!-- Transitive Closure -->
<g id="node1" class="node">
<title>Transitive Closure</title>
<g id="a_node1"><a xlink:href="../Transitive Closure.html" xlink:title="Transitive Closure" target="_parent">
<path fill="#273434" stroke="#b75867" d="M1676.94,-252C1676.94,-252 1584.94,-252 1584.94,-252 1578.94,-252 1572.94,-246 1572.94,-240 1572.94,-240 1572.94,-228 1572.94,-228 1572.94,-222 1578.94,-216 1584.94,-216 1584.94,-216 1676.94,-216 1676.94,-216 1682.94,-216 1688.94,-222 1688.94,-228 1688.94,-228 1688.94,-240 1688.94,-240 1688.94,-246 1682.94,-252 1676.94,-252"/>
<text text-anchor="middle" x="1630.94" y="-230.9" font-family="sans" font-size="12.00" fill="#c4c7c7">Transitive Closure</text>
</a>
</g>
</g>
<!-- Transitive Relation -->
<g id="node2" class="node">
<title>Transitive Relation</title>
<g id="a_node2"><a xlink:href="../Transitive Relation.html" xlink:title="Transitive Relation" target="_parent">
<path fill="#273434" stroke="#b75867" d="M1513.44,-180C1513.44,-180 1416.44,-180 1416.44,-180 1410.44,-180 1404.44,-174 1404.44,-168 1404.44,-168 1404.44,-156 1404.44,-156 1404.44,-150 1410.44,-144 1416.44,-144 1416.44,-144 1513.44,-144 1513.44,-144 1519.44,-144 1525.44,-150 1525.44,-156 1525.44,-156 1525.44,-168 1525.44,-168 1525.44,-174 1519.44,-180 1513.44,-180"/>
<text text-anchor="middle" x="1464.94" y="-158.9" font-family="sans" font-size="12.00" fill="#c4c7c7">Transitive Relation</text>
</a>
</g>
</g>
<!-- Transitive Closure&#45;&gt;Transitive Relation -->
<g id="edge1" class="edge">
<title>Transitive Closure&#45;&gt;Transitive Relation</title>
<path fill="none" stroke="#b75867" d="M1590.33,-215.88C1567.54,-206.26 1538.91,-194.19 1514.77,-184.01"/>
<polygon fill="#b75867" stroke="#b75867" points="1515.99,-180.73 1505.42,-180.07 1513.27,-187.18 1515.99,-180.73"/>
</g>
<!-- Relations -->
<g id="node4" class="node">
<title>Relations</title>
<g id="a_node4"><a xlink:href="../Relations.html" xlink:title="Relations" target="_parent">
<ellipse fill="#273434" stroke="#b75867" cx="2175.94" cy="-18" rx="42.45" ry="18"/>
<text text-anchor="middle" x="2175.94" y="-14.9" font-family="sans" font-size="12.00" fill="#c4c7c7">Relations</text>
</a>
</g>
</g>
<!-- Transitive Closure&#45;&gt;Relations -->
<g id="edge3" class="edge">
<title>Transitive Closure&#45;&gt;Relations</title>
<path fill="none" stroke="#ffffff" d="M1684.1,-212.13C1796.91,-167.83 2057.17,-65.64 2145.77,-30.85"/>
<polygon fill="#ffffff" stroke="#ffffff" points="1682.65,-208.94 1674.62,-215.85 1685.21,-215.45 1682.65,-208.94"/>
</g>
<!-- Relation -->
<g id="node3" class="node">
<title>Relation</title>
<g id="a_node3"><a xlink:href="../Relation.html" xlink:title="Relation" target="_parent">
<path fill="#273434" stroke="#b75867" d="M1046.94,-108C1046.94,-108 1006.94,-108 1006.94,-108 1000.94,-108 994.94,-102 994.94,-96 994.94,-96 994.94,-84 994.94,-84 994.94,-78 1000.94,-72 1006.94,-72 1006.94,-72 1046.94,-72 1046.94,-72 1052.94,-72 1058.94,-78 1058.94,-84 1058.94,-84 1058.94,-96 1058.94,-96 1058.94,-102 1052.94,-108 1046.94,-108"/>
<text text-anchor="middle" x="1026.94" y="-86.9" font-family="sans" font-size="12.00" fill="#c4c7c7">Relation</text>
</a>
</g>
</g>
<!-- Transitive Relation&#45;&gt;Relation -->
<g id="edge2" class="edge">
<title>Transitive Relation&#45;&gt;Relation</title>
<path fill="none" stroke="#b75867" d="M1404.04,-151.27C1313.83,-136.85 1146.99,-110.19 1069.08,-97.73"/>
<polygon fill="#b75867" stroke="#b75867" points="1069.56,-94.27 1059.14,-96.15 1068.46,-101.18 1069.56,-94.27"/>
</g>
<!-- Transitive Relation&#45;&gt;Relations -->
<g id="edge5" class="edge">
<title>Transitive Relation&#45;&gt;Relations</title>
<path fill="none" stroke="#ffffff" d="M1535.53,-150.83C1657.03,-132.61 1913.07,-91.11 2124.94,-36 2131.35,-34.33 2138.13,-32.28 2144.58,-30.19"/>
<polygon fill="#ffffff" stroke="#ffffff" points="1534.98,-147.37 1525.6,-152.31 1536.01,-154.29 1534.98,-147.37"/>
</g>
<!-- Relation of Equivalence -->
<g id="node5" class="node">
<title>Relation of Equivalence</title>
<g id="a_node5"><a xlink:href="../Relation of Equivalence.html" xlink:title="Relation of Equivalence" target="_parent">
<ellipse fill="#273434" stroke="#b75867" cx="2023.94" cy="-18" rx="91.95" ry="18"/>
<text text-anchor="middle" x="2023.94" y="-14.9" font-family="sans" font-size="12.00" fill="#c4c7c7">Relation of Equivalence</text>
</a>
</g>
</g>
<!-- Transitive Relation&#45;&gt;Relation of Equivalence -->
<g id="edge4" class="edge">
<title>Transitive Relation&#45;&gt;Relation of Equivalence</title>
<path fill="none" stroke="#ffffff" d="M1462.85,-133.82C1462.93,-113.65 1466.74,-87.12 1483.94,-72 1520.7,-39.69 1874.38,-42.07 1922.94,-36 1934.67,-34.53 1947.13,-32.68 1959.13,-30.74"/>
<polygon fill="#ffffff" stroke="#ffffff" points="1459.36,-134.08 1463.12,-143.98 1466.36,-133.89 1459.36,-134.08"/>
</g>
<!-- Linear order -->
<g id="node6" class="node">
<title>Linear order</title>
<g id="a_node6"><a xlink:href="../Linear order.html" xlink:title="Linear order" target="_parent">
<ellipse fill="#273434" stroke="#b75867" cx="52.94" cy="-18" rx="52.88" ry="18"/>
<text text-anchor="middle" x="52.94" y="-14.9" font-family="sans" font-size="12.00" fill="#c4c7c7">Linear order</text>
</a>
</g>
</g>
<!-- Transitive Relation&#45;&gt;Linear order -->
<g id="edge6" class="edge">
<title>Transitive Relation&#45;&gt;Linear order</title>
<path fill="none" stroke="#ffffff" d="M1393.75,-160.84C1229.64,-159.69 812.38,-152.25 466.94,-108 308.55,-87.71 270.25,-73.13 114.94,-36 107.56,-34.24 99.72,-32.21 92.2,-30.18"/>
<polygon fill="#ffffff" stroke="#ffffff" points="1394.17,-164.35 1404.19,-160.91 1394.21,-157.35 1394.17,-164.35"/>
</g>
<!-- Partial orders have no contours -->
<g id="node7" class="node">
<title>Partial orders have no contours</title>
<g id="a_node7"><a xlink:href="../Partial orders have no contours.html" xlink:title="Partial orders have no contours" target="_parent">
<ellipse fill="#273434" stroke="#b75867" cx="1611.94" cy="-90" rx="118.62" ry="18"/>
<text text-anchor="middle" x="1611.94" y="-86.9" font-family="sans" font-size="12.00" fill="#c4c7c7">Partial orders have no contours</text>
</a>
</g>
</g>
<!-- Transitive Relation&#45;&gt;Partial orders have no contours -->
<g id="edge7" class="edge">
<title>Transitive Relation&#45;&gt;Partial orders have no contours</title>
<path fill="none" stroke="#ffffff" d="M1509.96,-139.56C1531.74,-129.19 1557.45,-116.95 1577.62,-107.35"/>
<polygon fill="#ffffff" stroke="#ffffff" points="1508.42,-136.42 1500.9,-143.88 1511.43,-142.74 1508.42,-136.42"/>
</g>
<!-- Partial order -->
<g id="node8" class="node">
<title>Partial order</title>
<g id="a_node8"><a xlink:href="../Partial order.html" xlink:title="Partial order" target="_parent">
<ellipse fill="#273434" stroke="#b75867" cx="176.94" cy="-18" rx="52.88" ry="18"/>
<text text-anchor="middle" x="176.94" y="-14.9" font-family="sans" font-size="12.00" fill="#c4c7c7">Partial order</text>
</a>
</g>
</g>
<!-- Transitive Relation&#45;&gt;Partial order -->
<g id="edge8" class="edge">
<title>Transitive Relation&#45;&gt;Partial order</title>
<path fill="none" stroke="#ffffff" d="M1394.07,-157.89C1205,-148.72 673.4,-117.13 238.94,-36 231.15,-34.55 222.91,-32.59 215.07,-30.52"/>
<polygon fill="#ffffff" stroke="#ffffff" points="1394,-161.39 1404.16,-158.38 1394.34,-154.4 1394,-161.39"/>
</g>
<!-- Relation&#45;&gt;Relations -->
<g id="edge19" class="edge">
<title>Relation&#45;&gt;Relations</title>
<path fill="none" stroke="#ffffff" d="M1069.38,-87.28C1264.97,-79.29 2072.21,-45.87 2124.94,-36 2131.73,-34.73 2138.85,-32.77 2145.55,-30.63"/>
<polygon fill="#ffffff" stroke="#ffffff" points="1069.06,-83.79 1059.21,-87.69 1069.35,-90.78 1069.06,-83.79"/>
</g>
<!-- Relation&#45;&gt;Relation of Equivalence -->
<g id="edge16" class="edge">
<title>Relation&#45;&gt;Relation of Equivalence</title>
<path fill="none" stroke="#ffffff" d="M1069.17,-87.11C1223.14,-80.11 1754.18,-55.14 1922.94,-36 1934.87,-34.65 1947.53,-32.83 1959.7,-30.88"/>
<polygon fill="#ffffff" stroke="#ffffff" points="1068.99,-83.61 1059.16,-87.56 1069.31,-90.6 1068.99,-83.61"/>
</g>
<!-- Relation&#45;&gt;Linear order -->
<g id="edge20" class="edge">
<title>Relation&#45;&gt;Linear order</title>
<path fill="none" stroke="#ffffff" d="M984.41,-87.71C828.1,-82.79 285.71,-64.06 114.94,-36 107.01,-34.7 98.64,-32.78 90.7,-30.7"/>
<polygon fill="#ffffff" stroke="#ffffff" points="984.45,-91.21 994.56,-88.03 984.67,-84.22 984.45,-91.21"/>
</g>
<!-- Relation&#45;&gt;Partial order -->
<g id="edge22" class="edge">
<title>Relation&#45;&gt;Partial order</title>
<path fill="none" stroke="#ffffff" d="M984.43,-86.26C823.2,-75.84 257.48,-39.13 238.94,-36 231.02,-34.66 222.65,-32.73 214.71,-30.65"/>
<polygon fill="#ffffff" stroke="#ffffff" points="984.25,-89.75 994.46,-86.9 984.71,-82.77 984.25,-89.75"/>
</g>
<!-- Anti&#45;symmetric Relation -->
<g id="node9" class="node">
<title>Anti&#45;symmetric Relation</title>
<g id="a_node9"><a xlink:href="../Anti-symmetric Relation.html" xlink:title="Anti&#45;symmetric Relation" target="_parent">
<ellipse fill="#273434" stroke="#b75867" cx="1026.94" cy="-18" rx="93.64" ry="18"/>
<text text-anchor="middle" x="1026.94" y="-14.9" font-family="sans" font-size="12.00" fill="#c4c7c7">Anti&#45;symmetric Relation</text>
</a>
</g>
</g>
<!-- Relation&#45;&gt;Anti&#45;symmetric Relation -->
<g id="edge9" class="edge">
<title>Relation&#45;&gt;Anti&#45;symmetric Relation</title>
<path fill="none" stroke="#ffffff" d="M1026.94,-61.67C1026.94,-53.05 1026.94,-43.79 1026.94,-36.1"/>
<polygon fill="#ffffff" stroke="#ffffff" points="1023.44,-61.7 1026.94,-71.7 1030.44,-61.7 1023.44,-61.7"/>
</g>
<!-- Symmetric Relation -->
<g id="node10" class="node">
<title>Symmetric Relation</title>
<g id="a_node10"><a xlink:href="../Symmetric Relation.html" xlink:title="Symmetric Relation" target="_parent">
<ellipse fill="#273434" stroke="#b75867" cx="1216.94" cy="-18" rx="78.59" ry="18"/>
<text text-anchor="middle" x="1216.94" y="-14.9" font-family="sans" font-size="12.00" fill="#c4c7c7">Symmetric Relation</text>
</a>
</g>
</g>
<!-- Relation&#45;&gt;Symmetric Relation -->
<g id="edge10" class="edge">
<title>Relation&#45;&gt;Symmetric Relation</title>
<path fill="none" stroke="#ffffff" d="M1068.79,-73.58C1101.11,-61.68 1145.54,-45.31 1177.29,-33.61"/>
<polygon fill="#ffffff" stroke="#ffffff" points="1067.34,-70.38 1059.17,-77.13 1069.76,-76.95 1067.34,-70.38"/>
</g>
<!-- Reflexive Relation -->
<g id="node11" class="node">
<title>Reflexive Relation</title>
<g id="a_node11"><a xlink:href="../Reflexive Relation.html" xlink:title="Reflexive Relation" target="_parent">
<ellipse fill="#273434" stroke="#b75867" cx="1385.94" cy="-18" rx="72.05" ry="18"/>
<text text-anchor="middle" x="1385.94" y="-14.9" font-family="sans" font-size="12.00" fill="#c4c7c7">Reflexive Relation</text>
</a>
</g>
</g>
<!-- Relation&#45;&gt;Reflexive Relation -->
<g id="edge11" class="edge">
<title>Relation&#45;&gt;Reflexive Relation</title>
<path fill="none" stroke="#ffffff" d="M1069.07,-81.22C1123.57,-71.1 1221.44,-52.72 1304.94,-36 1313.96,-34.19 1323.53,-32.23 1332.81,-30.3"/>
<polygon fill="#ffffff" stroke="#ffffff" points="1068.28,-77.81 1059.08,-83.07 1069.55,-84.69 1068.28,-77.81"/>
</g>
<!-- Anti&#45;reflexive relation -->
<g id="node12" class="node">
<title>Anti&#45;reflexive relation</title>
<g id="a_node12"><a xlink:href="../Anti-reflexive relation.html" xlink:title="Anti&#45;reflexive relation" target="_parent">
<ellipse fill="#273434" stroke="#b75867" cx="1560.94" cy="-18" rx="84.9" ry="18"/>
<text text-anchor="middle" x="1560.94" y="-14.9" font-family="sans" font-size="12.00" fill="#c4c7c7">Anti&#45;reflexive relation</text>
</a>
</g>
</g>
<!-- Relation&#45;&gt;Anti&#45;reflexive relation -->
<g id="edge12" class="edge">
<title>Relation&#45;&gt;Anti&#45;reflexive relation</title>
<path fill="none" stroke="#ffffff" d="M1069.03,-84.77C1147.48,-76.69 1321.31,-57.92 1466.94,-36 1477.6,-34.4 1488.91,-32.51 1499.84,-30.59"/>
<polygon fill="#ffffff" stroke="#ffffff" points="1068.64,-81.29 1059.05,-85.79 1069.35,-88.25 1068.64,-81.29"/>
</g>
<!-- Strongly Anti&#45;symmetric Relation -->
<g id="node13" class="node">
<title>Strongly Anti&#45;symmetric Relation</title>
<g id="a_node13"><a xlink:href="../Strongly Anti-symmetric Relation.html" xlink:title="Strongly Anti&#45;symmetric Relation" target="_parent">
<ellipse fill="#273434" stroke="#b75867" cx="1788.94" cy="-18" rx="124.93" ry="18"/>
<text text-anchor="middle" x="1788.94" y="-14.9" font-family="sans" font-size="12.00" fill="#c4c7c7">Strongly Anti&#45;symmetric Relation</text>
</a>
</g>
</g>
<!-- Relation&#45;&gt;Strongly Anti&#45;symmetric Relation -->
<g id="edge13" class="edge">
<title>Relation&#45;&gt;Strongly Anti&#45;symmetric Relation</title>
<path fill="none" stroke="#ffffff" d="M1069.13,-86.05C1170.32,-78.86 1434.77,-59.25 1654.94,-36 1669.63,-34.45 1685.21,-32.63 1700.34,-30.77"/>
<polygon fill="#ffffff" stroke="#ffffff" points="1068.74,-82.57 1059.01,-86.77 1069.23,-89.56 1068.74,-82.57"/>
</g>
<!-- Reflexive Closure -->
<g id="node14" class="node">
<title>Reflexive Closure</title>
<g id="a_node14"><a xlink:href="../Reflexive Closure.html" xlink:title="Reflexive Closure" target="_parent">
<ellipse fill="#273434" stroke="#b75867" cx="317.94" cy="-18" rx="69.62" ry="18"/>
<text text-anchor="middle" x="317.94" y="-14.9" font-family="sans" font-size="12.00" fill="#c4c7c7">Reflexive Closure</text>
</a>
</g>
</g>
<!-- Relation&#45;&gt;Reflexive Closure -->
<g id="edge14" class="edge">
<title>Relation&#45;&gt;Reflexive Closure</title>
<path fill="none" stroke="#ffffff" d="M984.84,-86.19C862.81,-77.92 510.29,-53.19 395.94,-36 386.62,-34.6 376.75,-32.74 367.28,-30.77"/>
<polygon fill="#ffffff" stroke="#ffffff" points="984.7,-89.69 994.91,-86.87 985.17,-82.7 984.7,-89.69"/>
</g>
<!-- Symmetric Closure -->
<g id="node15" class="node">
<title>Symmetric Closure</title>
<g id="a_node15"><a xlink:href="../Symmetric Closure.html" xlink:title="Symmetric Closure" target="_parent">
<ellipse fill="#273434" stroke="#b75867" cx="480.94" cy="-18" rx="75.94" ry="18"/>
<text text-anchor="middle" x="480.94" y="-14.9" font-family="sans" font-size="12.00" fill="#c4c7c7">Symmetric Closure</text>
</a>
</g>
</g>
<!-- Relation&#45;&gt;Symmetric Closure -->
<g id="edge15" class="edge">
<title>Relation&#45;&gt;Symmetric Closure</title>
<path fill="none" stroke="#ffffff" d="M984.33,-85.29C902.8,-77.93 719.22,-60.1 565.94,-36 555.98,-34.43 545.41,-32.52 535.23,-30.56"/>
<polygon fill="#ffffff" stroke="#ffffff" points="984.41,-88.81 994.68,-86.22 985.03,-81.84 984.41,-88.81"/>
</g>
<!-- Chain -->
<g id="node16" class="node">
<title>Chain</title>
<g id="a_node16"><a xlink:href="../Chain.html" xlink:title="Chain" target="_parent">
<ellipse fill="#273434" stroke="#b75867" cx="604.94" cy="-18" rx="30.33" ry="18"/>
<text text-anchor="middle" x="604.94" y="-14.9" font-family="sans" font-size="12.00" fill="#c4c7c7">Chain</text>
</a>
</g>
</g>
<!-- Relation&#45;&gt;Chain -->
<g id="edge17" class="edge">
<title>Relation&#45;&gt;Chain</title>
<path fill="none" stroke="#ffffff" d="M984.57,-86.78C913.29,-82.23 765.4,-69.32 644.94,-36 639.27,-34.43 633.34,-32.24 627.84,-29.95"/>
<polygon fill="#ffffff" stroke="#ffffff" points="984.73,-90.29 994.92,-87.41 985.16,-83.3 984.73,-90.29"/>
</g>
<!-- Partial function -->
<g id="node17" class="node">
<title>Partial function</title>
<g id="a_node17"><a xlink:href="../Partial function.html" xlink:title="Partial function" target="_parent">
<ellipse fill="#273434" stroke="#b75867" cx="716.94" cy="-18" rx="63.31" ry="18"/>
<text text-anchor="middle" x="716.94" y="-14.9" font-family="sans" font-size="12.00" fill="#c4c7c7">Partial function</text>
</a>
</g>
</g>
<!-- Relation&#45;&gt;Partial function -->
<g id="edge18" class="edge">
<title>Relation&#45;&gt;Partial function</title>
<path fill="none" stroke="#ffffff" d="M984.82,-79.7C937.41,-69.2 858.11,-51.56 789.94,-36 781.69,-34.12 772.93,-32.1 764.44,-30.13"/>
<polygon fill="#ffffff" stroke="#ffffff" points="984.2,-83.15 994.72,-81.89 985.71,-76.31 984.2,-83.15"/>
</g>
<!-- Total function -->
<g id="node18" class="node">
<title>Total function</title>
<g id="a_node18"><a xlink:href="../Total function.html" xlink:title="Total function" target="_parent">
<ellipse fill="#273434" stroke="#b75867" cx="856.94" cy="-18" rx="58.46" ry="18"/>
<text text-anchor="middle" x="856.94" y="-14.9" font-family="sans" font-size="12.00" fill="#c4c7c7">Total function</text>
</a>
</g>
</g>
<!-- Relation&#45;&gt;Total function -->
<g id="edge21" class="edge">
<title>Relation&#45;&gt;Total function</title>
<path fill="none" stroke="#ffffff" d="M985.08,-71.77C956.01,-59.79 917.77,-44.05 890.65,-32.88"/>
<polygon fill="#ffffff" stroke="#ffffff" points="983.99,-75.1 994.56,-75.67 986.65,-68.62 983.99,-75.1"/>
</g>
</g>
</svg>
