<?xml version="1.0" encoding="UTF-8" standalone="no"?>
<!DOCTYPE svg PUBLIC "-//W3C//DTD SVG 1.1//EN"
 "http://www.w3.org/Graphics/SVG/1.1/DTD/svg11.dtd">
<!-- Generated by graphviz version 2.44.0 (0)
 -->
<!-- Title: Transitive Closure Pages: 1 -->
<svg width="665pt" height="562pt"
 viewBox="0.00 0.00 665.00 562.00" xmlns="http://www.w3.org/2000/svg" xmlns:xlink="http://www.w3.org/1999/xlink">
<g id="page0,1_graph0" class="graph" transform="scale(1 1) rotate(0) translate(4 558)">
<title>Transitive Closure</title>
<polygon fill="#132020" stroke="transparent" points="-4,4 -4,-558 661,-558 661,4 -4,4"/>
<!-- Transitive Closure -->
<g id="node1" class="node">
<title>Transitive Closure</title>
<g id="a_node1"><a xlink:href="../Transitive Closure.html" xlink:title="Transitive Closure" target="_parent">
<path fill="#273434" stroke="#b75867" d="M104,-332C104,-332 12,-332 12,-332 6,-332 0,-326 0,-320 0,-320 0,-308 0,-308 0,-302 6,-296 12,-296 12,-296 104,-296 104,-296 110,-296 116,-302 116,-308 116,-308 116,-320 116,-320 116,-326 110,-332 104,-332"/>
<text text-anchor="middle" x="58" y="-310.9" font-family="sans" font-size="12.00" fill="#c4c7c7">Transitive Closure</text>
</a>
</g>
</g>
<!-- Transitive Relation -->
<g id="node2" class="node">
<title>Transitive Relation</title>
<g id="a_node2"><a xlink:href="../Transitive Relation.html" xlink:title="Transitive Relation" target="_parent">
<path fill="#273434" stroke="#b75867" d="M233,-397C233,-397 136,-397 136,-397 130,-397 124,-391 124,-385 124,-385 124,-373 124,-373 124,-367 130,-361 136,-361 136,-361 233,-361 233,-361 239,-361 245,-367 245,-373 245,-373 245,-385 245,-385 245,-391 239,-397 233,-397"/>
<text text-anchor="middle" x="184.5" y="-375.9" font-family="sans" font-size="12.00" fill="#c4c7c7">Transitive Relation</text>
</a>
</g>
</g>
<!-- Transitive Closure&#45;&gt;Transitive Relation -->
<g id="edge1" class="edge">
<title>Transitive Closure&#45;&gt;Transitive Relation</title>
<path fill="none" stroke="#b75867" d="M93.68,-332.11C107.98,-339.57 124.71,-348.31 139.83,-356.2"/>
<polygon fill="#b75867" stroke="#b75867" points="138.52,-359.47 149.01,-360.99 141.76,-353.26 138.52,-359.47"/>
</g>
<!-- Relations -->
<g id="node3" class="node">
<title>Relations</title>
<g id="a_node3"><a xlink:href="../Relations.html" xlink:title="Relations" target="_parent">
<path fill="none" stroke="#b75867" d="M372,-332C372,-332 327,-332 327,-332 321,-332 315,-326 315,-320 315,-320 315,-308 315,-308 315,-302 321,-296 327,-296 327,-296 372,-296 372,-296 378,-296 384,-302 384,-308 384,-308 384,-320 384,-320 384,-326 378,-332 372,-332"/>
<text text-anchor="middle" x="349.5" y="-310.9" font-family="sans" font-size="12.00" fill="#c4c7c7">Relations</text>
</a>
</g>
</g>
<!-- Transitive Closure&#45;&gt;Relations -->
<g id="edge2" class="edge">
<title>Transitive Closure&#45;&gt;Relations</title>
<path fill="none" stroke="#ffffff" d="M126.2,-313.36C185.32,-313.18 268.93,-313.22 314.92,-313.5"/>
<polygon fill="#ffffff" stroke="#ffffff" points="126.18,-309.86 116.2,-313.39 126.21,-316.86 126.18,-309.86"/>
</g>
<!-- Transitive Closure&#45;&gt;Relations -->
<g id="edge3" class="edge">
<title>Transitive Closure&#45;&gt;Relations</title>
<path fill="none" stroke="#ffffff" d="M126.2,-314C185.32,-314 268.93,-314 314.92,-314"/>
<polygon fill="#ffffff" stroke="#ffffff" points="126.2,-310.5 116.2,-314 126.2,-317.5 126.2,-310.5"/>
</g>
<!-- Transitive Relation&#45;&gt;Transitive Closure -->
<g id="edge5" class="edge">
<title>Transitive Relation&#45;&gt;Transitive Closure</title>
<path fill="none" stroke="#ffffff" d="M138.21,-356.08C123.05,-348.21 106.44,-339.52 92.36,-332.09"/>
<polygon fill="#ffffff" stroke="#ffffff" points="136.93,-359.36 147.42,-360.85 140.15,-353.14 136.93,-359.36"/>
</g>
<!-- Transitive Relation&#45;&gt;Relations -->
<g id="edge7" class="edge">
<title>Transitive Relation&#45;&gt;Relations</title>
<path fill="none" stroke="#ffffff" d="M240.52,-357.06C265.2,-347.22 293.53,-335.92 314.97,-327.37"/>
<polygon fill="#ffffff" stroke="#ffffff" points="238.9,-353.94 230.9,-360.89 241.49,-360.44 238.9,-353.94"/>
</g>
<!-- Relation -->
<g id="node4" class="node">
<title>Relation</title>
<g id="a_node4"><a xlink:href="../Relation.html" xlink:title="Relation" target="_parent">
<path fill="#273434" stroke="#b75867" d="M575.5,-480C575.5,-480 535.5,-480 535.5,-480 529.5,-480 523.5,-474 523.5,-468 523.5,-468 523.5,-456 523.5,-456 523.5,-450 529.5,-444 535.5,-444 535.5,-444 575.5,-444 575.5,-444 581.5,-444 587.5,-450 587.5,-456 587.5,-456 587.5,-468 587.5,-468 587.5,-474 581.5,-480 575.5,-480"/>
<text text-anchor="middle" x="555.5" y="-458.9" font-family="sans" font-size="12.00" fill="#c4c7c7">Relation</text>
</a>
</g>
</g>
<!-- Transitive Relation&#45;&gt;Relation -->
<g id="edge4" class="edge">
<title>Transitive Relation&#45;&gt;Relation</title>
<path fill="none" stroke="#b75867" d="M245.28,-376.88C317.54,-374.92 431.36,-374.01 446,-387 463.82,-402.81 437.72,-422.61 454,-440 468.93,-455.95 492.54,-461.68 513.13,-463.31"/>
<polygon fill="#b75867" stroke="#b75867" points="513.08,-466.82 523.25,-463.82 513.43,-459.83 513.08,-466.82"/>
</g>
<!-- Relation of Equivalence -->
<g id="node5" class="node">
<title>Relation of Equivalence</title>
<g id="a_node5"><a xlink:href="../Relation of Equivalence.html" xlink:title="Relation of Equivalence" target="_parent">
<path fill="none" stroke="#b75867" d="M618,-443C618,-443 493,-443 493,-443 487,-443 481,-437 481,-431 481,-431 481,-419 481,-419 481,-413 487,-407 493,-407 493,-407 618,-407 618,-407 624,-407 630,-413 630,-419 630,-419 630,-431 630,-431 630,-437 624,-443 618,-443"/>
<text text-anchor="middle" x="555.5" y="-421.9" font-family="sans" font-size="12.00" fill="#c4c7c7">Relation of Equivalence</text>
</a>
</g>
</g>
<!-- Transitive Relation&#45;&gt;Relation of Equivalence -->
<g id="edge6" class="edge">
<title>Transitive Relation&#45;&gt;Relation of Equivalence</title>
<path fill="none" stroke="#ffffff" d="M254.96,-361.03C311.31,-350.68 390.28,-346.23 446,-384 453.58,-389.14 446.96,-397.14 454,-403 461.83,-409.51 471.15,-414.21 480.92,-417.59"/>
<polygon fill="#ffffff" stroke="#ffffff" points="254.21,-357.61 245.06,-362.95 255.54,-364.48 254.21,-357.61"/>
</g>
<!-- Linear order -->
<g id="node6" class="node">
<title>Linear order</title>
<g id="a_node6"><a xlink:href="../Linear order.html" xlink:title="Linear order" target="_parent">
<path fill="none" stroke="#b75867" d="M586.5,-554C586.5,-554 524.5,-554 524.5,-554 518.5,-554 512.5,-548 512.5,-542 512.5,-542 512.5,-530 512.5,-530 512.5,-524 518.5,-518 524.5,-518 524.5,-518 586.5,-518 586.5,-518 592.5,-518 598.5,-524 598.5,-530 598.5,-530 598.5,-542 598.5,-542 598.5,-548 592.5,-554 586.5,-554"/>
<text text-anchor="middle" x="555.5" y="-532.9" font-family="sans" font-size="12.00" fill="#c4c7c7">Linear order</text>
</a>
</g>
</g>
<!-- Transitive Relation&#45;&gt;Linear order -->
<g id="edge8" class="edge">
<title>Transitive Relation&#45;&gt;Linear order</title>
<path fill="none" stroke="#ffffff" d="M204.53,-405.27C216.82,-420.55 234.02,-439.08 253,-451 335.9,-503.06 451.28,-523.93 512.48,-531.74"/>
<polygon fill="#ffffff" stroke="#ffffff" points="207.13,-402.92 198.23,-397.18 201.61,-407.22 207.13,-402.92"/>
</g>
<!-- Partial orders have no contours -->
<g id="node7" class="node">
<title>Partial orders have no contours</title>
<g id="a_node7"><a xlink:href="../Partial orders have no contours.html" xlink:title="Partial orders have no contours" target="_parent">
<path fill="none" stroke="#b75867" d="M434,-420C434,-420 265,-420 265,-420 259,-420 253,-414 253,-408 253,-408 253,-396 253,-396 253,-390 259,-384 265,-384 265,-384 434,-384 434,-384 440,-384 446,-390 446,-396 446,-396 446,-408 446,-408 446,-414 440,-420 434,-420"/>
<text text-anchor="middle" x="349.5" y="-398.9" font-family="sans" font-size="12.00" fill="#c4c7c7">Partial orders have no contours</text>
</a>
</g>
</g>
<!-- Transitive Relation&#45;&gt;Partial orders have no contours -->
<g id="edge9" class="edge">
<title>Transitive Relation&#45;&gt;Partial orders have no contours</title>
<path fill="none" stroke="#ffffff" d="M252.5,-388.45C252.66,-388.48 252.82,-388.5 252.98,-388.52"/>
<polygon fill="#ffffff" stroke="#ffffff" points="255.66,-385.37 245.27,-387.43 254.68,-392.3 255.66,-385.37"/>
</g>
<!-- Partial order -->
<g id="node8" class="node">
<title>Partial order</title>
<g id="a_node8"><a xlink:href="../Partial order.html" xlink:title="Partial order" target="_parent">
<path fill="none" stroke="#b75867" d="M586.5,-517C586.5,-517 524.5,-517 524.5,-517 518.5,-517 512.5,-511 512.5,-505 512.5,-505 512.5,-493 512.5,-493 512.5,-487 518.5,-481 524.5,-481 524.5,-481 586.5,-481 586.5,-481 592.5,-481 598.5,-487 598.5,-493 598.5,-493 598.5,-505 598.5,-505 598.5,-511 592.5,-517 586.5,-517"/>
<text text-anchor="middle" x="555.5" y="-495.9" font-family="sans" font-size="12.00" fill="#c4c7c7">Partial order</text>
</a>
</g>
</g>
<!-- Transitive Relation&#45;&gt;Partial order -->
<g id="edge10" class="edge">
<title>Transitive Relation&#45;&gt;Partial order</title>
<path fill="none" stroke="#ffffff" d="M219.28,-402.63C229.75,-409.23 241.55,-415.97 253,-421 341.1,-459.73 452.45,-482.31 512.12,-492.48"/>
<polygon fill="#ffffff" stroke="#ffffff" points="221.13,-399.66 210.83,-397.16 217.32,-405.54 221.13,-399.66"/>
</g>
<!-- Relations&#45;&gt;Transitive Closure -->
<g id="edge17" class="edge">
<title>Relations&#45;&gt;Transitive Closure</title>
<path fill="none" stroke="#b75867" d="M314.92,-314.5C268.93,-314.78 185.32,-314.82 126.2,-314.64"/>
<polygon fill="#b75867" stroke="#b75867" points="126.21,-311.14 116.2,-314.61 126.18,-318.14 126.21,-311.14"/>
</g>
<!-- Relations&#45;&gt;Transitive Closure -->
<g id="edge21" class="edge">
<title>Relations&#45;&gt;Transitive Closure</title>
<path fill="none" stroke="#b75867" d="M314.92,-315C268.93,-315.55 185.32,-315.65 126.2,-315.29"/>
<polygon fill="#b75867" stroke="#b75867" points="126.22,-311.79 116.2,-315.22 126.17,-318.79 126.22,-311.79"/>
</g>
<!-- Relations&#45;&gt;Transitive Relation -->
<g id="edge23" class="edge">
<title>Relations&#45;&gt;Transitive Relation</title>
<path fill="none" stroke="#b75867" d="M314.91,-328.01C293.94,-336.51 266.4,-347.52 242.12,-357.14"/>
<polygon fill="#b75867" stroke="#b75867" points="240.66,-353.95 232.65,-360.89 243.23,-360.46 240.66,-353.95"/>
</g>
<!-- Relations&#45;&gt;Relation -->
<g id="edge29" class="edge">
<title>Relations&#45;&gt;Relation</title>
<path fill="none" stroke="#b75867" d="M384.34,-328.86C405.62,-340.03 431.68,-357.47 446,-381 459.76,-403.6 436.06,-420.55 454,-440 468.81,-456.06 492.42,-461.8 513.03,-463.41"/>
<polygon fill="#b75867" stroke="#b75867" points="513.01,-466.91 523.16,-463.9 513.35,-459.92 513.01,-466.91"/>
</g>
<!-- Relations&#45;&gt;Relation of Equivalence -->
<g id="edge16" class="edge">
<title>Relations&#45;&gt;Relation of Equivalence</title>
<path fill="none" stroke="#b75867" d="M384.4,-329.44C404.89,-340.34 430.04,-356.79 446,-378 453.01,-387.32 445.37,-395.15 454,-403 459.15,-407.68 465.06,-411.45 471.38,-414.47"/>
<polygon fill="#b75867" stroke="#b75867" points="470.31,-417.82 480.89,-418.39 472.97,-411.35 470.31,-417.82"/>
</g>
<!-- Relations&#45;&gt;Linear order -->
<g id="edge13" class="edge">
<title>Relations&#45;&gt;Linear order</title>
<path fill="none" stroke="#b75867" d="M384.47,-329.29C406.1,-340.97 432.5,-359.28 446,-384 459.87,-409.4 435.17,-492.02 454,-514 465.85,-527.83 484.21,-534.14 502.01,-536.71"/>
<polygon fill="#b75867" stroke="#b75867" points="502.06,-540.24 512.37,-537.83 502.8,-533.28 502.06,-540.24"/>
</g>
<!-- Relations&#45;&gt;Partial order -->
<g id="edge14" class="edge">
<title>Relations&#45;&gt;Partial order</title>
<path fill="none" stroke="#b75867" d="M384.28,-329.4C405.82,-341.13 432.2,-359.45 446,-384 456.16,-402.08 440.31,-461.41 454,-477 465.97,-490.63 484.26,-496.91 501.97,-499.52"/>
<polygon fill="#b75867" stroke="#b75867" points="501.96,-503.04 512.28,-500.67 502.73,-496.09 501.96,-503.04"/>
</g>
<!-- Chain -->
<g id="node9" class="node">
<title>Chain</title>
<g id="a_node9"><a xlink:href="../Chain.html" xlink:title="Chain" target="_parent">
<path fill="#273434" stroke="#b75867" d="M570.5,-369C570.5,-369 540.5,-369 540.5,-369 534.5,-369 528.5,-363 528.5,-357 528.5,-357 528.5,-345 528.5,-345 528.5,-339 534.5,-333 540.5,-333 540.5,-333 570.5,-333 570.5,-333 576.5,-333 582.5,-339 582.5,-345 582.5,-345 582.5,-357 582.5,-357 582.5,-363 576.5,-369 570.5,-369"/>
<text text-anchor="middle" x="555.5" y="-347.9" font-family="sans" font-size="12.00" fill="#c4c7c7">Chain</text>
</a>
</g>
</g>
<!-- Relations&#45;&gt;Chain -->
<g id="edge11" class="edge">
<title>Relations&#45;&gt;Chain</title>
<path fill="none" stroke="#b75867" d="M384.19,-320.11C421.12,-326.81 480.15,-337.52 518.12,-344.4"/>
<polygon fill="#b75867" stroke="#b75867" points="517.77,-347.89 528.23,-346.24 519.02,-341.01 517.77,-347.89"/>
</g>
<!-- Linear extension -->
<g id="node10" class="node">
<title>Linear extension</title>
<g id="a_node10"><a xlink:href="../Linear extension.html" xlink:title="Linear extension" target="_parent">
<path fill="#273434" stroke="#b75867" d="M598.5,-332C598.5,-332 512.5,-332 512.5,-332 506.5,-332 500.5,-326 500.5,-320 500.5,-320 500.5,-308 500.5,-308 500.5,-302 506.5,-296 512.5,-296 512.5,-296 598.5,-296 598.5,-296 604.5,-296 610.5,-302 610.5,-308 610.5,-308 610.5,-320 610.5,-320 610.5,-326 604.5,-332 598.5,-332"/>
<text text-anchor="middle" x="555.5" y="-310.9" font-family="sans" font-size="12.00" fill="#c4c7c7">Linear extension</text>
</a>
</g>
</g>
<!-- Relations&#45;&gt;Linear extension -->
<g id="edge12" class="edge">
<title>Relations&#45;&gt;Linear extension</title>
<path fill="none" stroke="#b75867" d="M384.19,-314C412.92,-314 455.05,-314 490.21,-314"/>
<polygon fill="#b75867" stroke="#b75867" points="490.4,-317.5 500.4,-314 490.4,-310.5 490.4,-317.5"/>
</g>
<!-- Class of equivalence -->
<g id="node11" class="node">
<title>Class of equivalence</title>
<g id="a_node11"><a xlink:href="../Class of equivalence.html" xlink:title="Class of equivalence" target="_parent">
<path fill="#273434" stroke="#b75867" d="M609,-295C609,-295 502,-295 502,-295 496,-295 490,-289 490,-283 490,-283 490,-271 490,-271 490,-265 496,-259 502,-259 502,-259 609,-259 609,-259 615,-259 621,-265 621,-271 621,-271 621,-283 621,-283 621,-289 615,-295 609,-295"/>
<text text-anchor="middle" x="555.5" y="-273.9" font-family="sans" font-size="12.00" fill="#c4c7c7">Class of equivalence</text>
</a>
</g>
</g>
<!-- Relations&#45;&gt;Class of equivalence -->
<g id="edge15" class="edge">
<title>Relations&#45;&gt;Class of equivalence</title>
<path fill="none" stroke="#b75867" d="M384.19,-307.89C410.13,-303.18 447,-296.5 479.79,-290.55"/>
<polygon fill="#b75867" stroke="#b75867" points="480.61,-293.96 489.83,-288.73 479.36,-287.07 480.61,-293.96"/>
</g>
<!-- Symmetric Closure -->
<g id="node12" class="node">
<title>Symmetric Closure</title>
<g id="a_node12"><a xlink:href="../Symmetric Closure.html" xlink:title="Symmetric Closure" target="_parent">
<path fill="#273434" stroke="#b75867" d="M605,-258C605,-258 506,-258 506,-258 500,-258 494,-252 494,-246 494,-246 494,-234 494,-234 494,-228 500,-222 506,-222 506,-222 605,-222 605,-222 611,-222 617,-228 617,-234 617,-234 617,-246 617,-246 617,-252 611,-258 605,-258"/>
<text text-anchor="middle" x="555.5" y="-236.9" font-family="sans" font-size="12.00" fill="#c4c7c7">Symmetric Closure</text>
</a>
</g>
</g>
<!-- Relations&#45;&gt;Symmetric Closure -->
<g id="edge18" class="edge">
<title>Relations&#45;&gt;Symmetric Closure</title>
<path fill="none" stroke="#b75867" d="M381.31,-295.96C401.43,-284.83 428.6,-271 454,-262 463.57,-258.61 473.84,-255.64 484.04,-253.07"/>
<polygon fill="#b75867" stroke="#b75867" points="484.86,-256.47 493.76,-250.73 483.22,-249.67 484.86,-256.47"/>
</g>
<!-- Relations&#45;&gt;Symmetric Closure -->
<g id="edge20" class="edge">
<title>Relations&#45;&gt;Symmetric Closure</title>
<path fill="none" stroke="#b75867" d="M383.13,-295.82C403.05,-285 429.36,-271.73 454,-263 463.57,-259.61 473.84,-256.64 484.04,-254.06"/>
<polygon fill="#b75867" stroke="#b75867" points="484.86,-257.46 493.76,-251.71 483.22,-250.66 484.86,-257.46"/>
</g>
<!-- Reflexive Closure -->
<g id="node13" class="node">
<title>Reflexive Closure</title>
<g id="a_node13"><a xlink:href="../Reflexive Closure.html" xlink:title="Reflexive Closure" target="_parent">
<path fill="#273434" stroke="#b75867" d="M600,-221C600,-221 511,-221 511,-221 505,-221 499,-215 499,-209 499,-209 499,-197 499,-197 499,-191 505,-185 511,-185 511,-185 600,-185 600,-185 606,-185 612,-191 612,-197 612,-197 612,-209 612,-209 612,-215 606,-221 600,-221"/>
<text text-anchor="middle" x="555.5" y="-199.9" font-family="sans" font-size="12.00" fill="#c4c7c7">Reflexive Closure</text>
</a>
</g>
</g>
<!-- Relations&#45;&gt;Reflexive Closure -->
<g id="edge19" class="edge">
<title>Relations&#45;&gt;Reflexive Closure</title>
<path fill="none" stroke="#b75867" d="M366.15,-295.98C384.93,-275.55 418.38,-242.78 454,-225 464.8,-219.61 476.9,-215.53 488.86,-212.45"/>
<polygon fill="#b75867" stroke="#b75867" points="489.92,-215.8 498.85,-210.09 488.31,-208.99 489.92,-215.8"/>
</g>
<!-- Relations&#45;&gt;Reflexive Closure -->
<g id="edge22" class="edge">
<title>Relations&#45;&gt;Reflexive Closure</title>
<path fill="none" stroke="#b75867" d="M366.83,-295.97C385.73,-275.77 418.8,-243.57 454,-226 464.8,-220.61 476.9,-216.53 488.86,-213.43"/>
<polygon fill="#b75867" stroke="#b75867" points="489.93,-216.78 498.85,-211.05 488.31,-209.97 489.93,-216.78"/>
</g>
<!-- Strongly Anti&#45;symmetric Relation -->
<g id="node14" class="node">
<title>Strongly Anti&#45;symmetric Relation</title>
<g id="a_node14"><a xlink:href="../Strongly Anti-symmetric Relation.html" xlink:title="Strongly Anti&#45;symmetric Relation" target="_parent">
<path fill="#273434" stroke="#b75867" d="M645,-184C645,-184 466,-184 466,-184 460,-184 454,-178 454,-172 454,-172 454,-160 454,-160 454,-154 460,-148 466,-148 466,-148 645,-148 645,-148 651,-148 657,-154 657,-160 657,-160 657,-172 657,-172 657,-178 651,-184 645,-184"/>
<text text-anchor="middle" x="555.5" y="-162.9" font-family="sans" font-size="12.00" fill="#c4c7c7">Strongly Anti&#45;symmetric Relation</text>
</a>
</g>
</g>
<!-- Relations&#45;&gt;Strongly Anti&#45;symmetric Relation -->
<g id="edge24" class="edge">
<title>Relations&#45;&gt;Strongly Anti&#45;symmetric Relation</title>
<path fill="none" stroke="#b75867" d="M360.17,-295.7C375.02,-269.39 406.03,-220.95 452.53,-189.53"/>
<polygon fill="#b75867" stroke="#b75867" points="454.53,-192.4 461.07,-184.06 450.76,-186.51 454.53,-192.4"/>
</g>
<!-- Anti&#45;symmetric Relation -->
<g id="node15" class="node">
<title>Anti&#45;symmetric Relation</title>
<g id="a_node15"><a xlink:href="../Anti-symmetric Relation.html" xlink:title="Anti&#45;symmetric Relation" target="_parent">
<path fill="#273434" stroke="#b75867" d="M619.5,-147C619.5,-147 491.5,-147 491.5,-147 485.5,-147 479.5,-141 479.5,-135 479.5,-135 479.5,-123 479.5,-123 479.5,-117 485.5,-111 491.5,-111 491.5,-111 619.5,-111 619.5,-111 625.5,-111 631.5,-117 631.5,-123 631.5,-123 631.5,-135 631.5,-135 631.5,-141 625.5,-147 619.5,-147"/>
<text text-anchor="middle" x="555.5" y="-125.9" font-family="sans" font-size="12.00" fill="#c4c7c7">Anti&#45;symmetric Relation</text>
</a>
</g>
</g>
<!-- Relations&#45;&gt;Anti&#45;symmetric Relation -->
<g id="edge25" class="edge">
<title>Relations&#45;&gt;Anti&#45;symmetric Relation</title>
<path fill="none" stroke="#b75867" d="M356.59,-295.98C369.08,-261.89 400.98,-188.08 454,-151 458.88,-147.59 464.18,-144.7 469.73,-142.24"/>
<polygon fill="#b75867" stroke="#b75867" points="471.22,-145.41 479.25,-138.51 468.67,-138.9 471.22,-145.41"/>
</g>
<!-- Symmetric Relation -->
<g id="node16" class="node">
<title>Symmetric Relation</title>
<g id="a_node16"><a xlink:href="../Symmetric Relation.html" xlink:title="Symmetric Relation" target="_parent">
<path fill="#273434" stroke="#b75867" d="M607.5,-110C607.5,-110 503.5,-110 503.5,-110 497.5,-110 491.5,-104 491.5,-98 491.5,-98 491.5,-86 491.5,-86 491.5,-80 497.5,-74 503.5,-74 503.5,-74 607.5,-74 607.5,-74 613.5,-74 619.5,-80 619.5,-86 619.5,-86 619.5,-98 619.5,-98 619.5,-104 613.5,-110 607.5,-110"/>
<text text-anchor="middle" x="555.5" y="-88.9" font-family="sans" font-size="12.00" fill="#c4c7c7">Symmetric Relation</text>
</a>
</g>
</g>
<!-- Relations&#45;&gt;Symmetric Relation -->
<g id="edge26" class="edge">
<title>Relations&#45;&gt;Symmetric Relation</title>
<path fill="none" stroke="#b75867" d="M354.43,-295.71C363.97,-255.94 392.27,-161.35 454,-114 462.16,-107.74 471.74,-103.18 481.68,-99.88"/>
<polygon fill="#b75867" stroke="#b75867" points="482.66,-103.24 491.29,-97.08 480.71,-96.52 482.66,-103.24"/>
</g>
<!-- Anti&#45;reflexive relation -->
<g id="node17" class="node">
<title>Anti&#45;reflexive relation</title>
<g id="a_node17"><a xlink:href="../Anti-reflexive relation.html" xlink:title="Anti&#45;reflexive relation" target="_parent">
<path fill="#273434" stroke="#b75867" d="M612.5,-73C612.5,-73 498.5,-73 498.5,-73 492.5,-73 486.5,-67 486.5,-61 486.5,-61 486.5,-49 486.5,-49 486.5,-43 492.5,-37 498.5,-37 498.5,-37 612.5,-37 612.5,-37 618.5,-37 624.5,-43 624.5,-49 624.5,-49 624.5,-61 624.5,-61 624.5,-67 618.5,-73 612.5,-73"/>
<text text-anchor="middle" x="555.5" y="-51.9" font-family="sans" font-size="12.00" fill="#c4c7c7">Anti&#45;reflexive relation</text>
</a>
</g>
</g>
<!-- Relations&#45;&gt;Anti&#45;reflexive relation -->
<g id="edge27" class="edge">
<title>Relations&#45;&gt;Anti&#45;reflexive relation</title>
<path fill="none" stroke="#b75867" d="M352.81,-295.83C359.51,-251.1 383.2,-135.11 454,-77 460.77,-71.44 468.64,-67.21 476.93,-63.99"/>
<polygon fill="#b75867" stroke="#b75867" points="478.08,-67.3 486.43,-60.78 475.84,-60.66 478.08,-67.3"/>
</g>
<!-- Reflexive Relation -->
<g id="node18" class="node">
<title>Reflexive Relation</title>
<g id="a_node18"><a xlink:href="../Reflexive Relation.html" xlink:title="Reflexive Relation" target="_parent">
<path fill="#273434" stroke="#b75867" d="M602,-36C602,-36 509,-36 509,-36 503,-36 497,-30 497,-24 497,-24 497,-12 497,-12 497,-6 503,0 509,0 509,0 602,0 602,0 608,0 614,-6 614,-12 614,-12 614,-24 614,-24 614,-30 608,-36 602,-36"/>
<text text-anchor="middle" x="555.5" y="-14.9" font-family="sans" font-size="12.00" fill="#c4c7c7">Reflexive Relation</text>
</a>
</g>
</g>
<!-- Relations&#45;&gt;Reflexive Relation -->
<g id="edge28" class="edge">
<title>Relations&#45;&gt;Reflexive Relation</title>
<path fill="none" stroke="#b75867" d="M351.64,-295.65C355.75,-246.15 374.16,-108.98 454,-40 463.29,-31.97 474.84,-26.67 486.77,-23.21"/>
<polygon fill="#b75867" stroke="#b75867" points="487.96,-26.52 496.83,-20.71 486.28,-19.72 487.96,-26.52"/>
</g>
<!-- Discrete Structures -->
<g id="node19" class="node">
<title>Discrete Structures</title>
<g id="a_node19"><a xlink:href="../Discrete Structures.html" xlink:title="Discrete Structures" target="_parent">
<path fill="none" stroke="#b75867" d="M604.5,-406C604.5,-406 506.5,-406 506.5,-406 500.5,-406 494.5,-400 494.5,-394 494.5,-394 494.5,-382 494.5,-382 494.5,-376 500.5,-370 506.5,-370 506.5,-370 604.5,-370 604.5,-370 610.5,-370 616.5,-376 616.5,-382 616.5,-382 616.5,-394 616.5,-394 616.5,-400 610.5,-406 604.5,-406"/>
<text text-anchor="middle" x="555.5" y="-384.9" font-family="sans" font-size="12.00" fill="#c4c7c7">Discrete Structures</text>
</a>
</g>
</g>
<!-- Relations&#45;&gt;Discrete Structures -->
<g id="edge30" class="edge">
<title>Relations&#45;&gt;Discrete Structures</title>
<path fill="none" stroke="#ffffff" d="M390.19,-336.88C409.04,-346.97 432.17,-358.27 454,-366 466.79,-370.53 480.85,-374.31 494.29,-377.39"/>
<polygon fill="#ffffff" stroke="#ffffff" points="391.77,-333.75 381.31,-332.04 388.42,-339.9 391.77,-333.75"/>
</g>
</g>
</svg>
