<?xml version="1.0" encoding="UTF-8" standalone="no"?>
<!DOCTYPE svg PUBLIC "-//W3C//DTD SVG 1.1//EN"
 "http://www.w3.org/Graphics/SVG/1.1/DTD/svg11.dtd">
<!-- Generated by graphviz version 2.44.0 (0)
 -->
<!-- Title: Analytic Geometry Pages: 1 -->
<svg width="504pt" height="636pt"
 viewBox="0.00 0.00 504.00 636.00" xmlns="http://www.w3.org/2000/svg" xmlns:xlink="http://www.w3.org/1999/xlink">
<g id="graph0" class="graph" transform="scale(1 1) rotate(0) translate(4 632)">
<title>Analytic Geometry</title>
<polygon fill="#132020" stroke="transparent" points="-4,4 -4,-632 500,-632 500,4 -4,4"/>
<!-- Analytic Geometry -->
<g id="node1" class="node">
<title>Analytic Geometry</title>
<g id="a_node1"><a xlink:href="../Analytic Geometry.html" xlink:title="Analytic Geometry" target="_parent">
<path fill="#273434" stroke="#b75867" d="M109,-313C109,-313 12,-313 12,-313 6,-313 0,-307 0,-301 0,-301 0,-289 0,-289 0,-283 6,-277 12,-277 12,-277 109,-277 109,-277 115,-277 121,-283 121,-289 121,-289 121,-301 121,-301 121,-307 115,-313 109,-313"/>
<text text-anchor="middle" x="60.5" y="-291.9" font-family="sans" font-size="12.00" fill="#c4c7c7">Analytic Geometry</text>
</a>
</g>
</g>
<!-- Knowledege Base -->
<g id="node2" class="node">
<title>Knowledege Base</title>
<g id="a_node2"><a xlink:href="../Knowledege Base.html" xlink:title="Knowledege Base" target="_parent">
<path fill="none" stroke="#b75867" d="M234,-313C234,-313 141,-313 141,-313 135,-313 129,-307 129,-301 129,-301 129,-289 129,-289 129,-283 135,-277 141,-277 141,-277 234,-277 234,-277 240,-277 246,-283 246,-289 246,-289 246,-301 246,-301 246,-307 240,-313 234,-313"/>
<text text-anchor="middle" x="187.5" y="-291.9" font-family="sans" font-size="12.00" fill="#c4c7c7">Knowledege Base</text>
</a>
</g>
</g>
<!-- Analytic Geometry&#45;&gt;Knowledege Base -->
<g id="edge1" class="edge">
<title>Analytic Geometry&#45;&gt;Knowledege Base</title>
<path fill="none" stroke="#ffffff" d="M128.5,-295C128.67,-295 128.83,-295 129,-295"/>
<polygon fill="#ffffff" stroke="#ffffff" points="131.07,-291.5 121.07,-295 131.07,-298.5 131.07,-291.5"/>
</g>
<!-- Knowledege Base&#45;&gt;Analytic Geometry -->
<g id="edge15" class="edge">
<title>Knowledege Base&#45;&gt;Analytic Geometry</title>
<path fill="none" stroke="#b75867" d="M129,-295.75C128.83,-295.75 128.67,-295.75 128.5,-295.75"/>
<polygon fill="#b75867" stroke="#b75867" points="131.07,-292.25 121.07,-295.75 131.07,-299.25 131.07,-292.25"/>
</g>
<!-- Computer Architectures -->
<g id="node3" class="node">
<title>Computer Architectures</title>
<g id="a_node3"><a xlink:href="../Computer Architectures.html" xlink:title="Computer Architectures" target="_parent">
<path fill="#273434" stroke="#b75867" d="M438.5,-628C438.5,-628 311.5,-628 311.5,-628 305.5,-628 299.5,-622 299.5,-616 299.5,-616 299.5,-604 299.5,-604 299.5,-598 305.5,-592 311.5,-592 311.5,-592 438.5,-592 438.5,-592 444.5,-592 450.5,-598 450.5,-604 450.5,-604 450.5,-616 450.5,-616 450.5,-622 444.5,-628 438.5,-628"/>
<text text-anchor="middle" x="375" y="-606.9" font-family="sans" font-size="12.00" fill="#c4c7c7">Computer Architectures</text>
</a>
</g>
</g>
<!-- Knowledege Base&#45;&gt;Computer Architectures -->
<g id="edge2" class="edge">
<title>Knowledege Base&#45;&gt;Computer Architectures</title>
<path fill="none" stroke="#b75867" d="M190,-313.36C195.13,-371.4 213.9,-549.42 254,-588 263.89,-597.51 276.45,-603.62 289.71,-607.44"/>
<polygon fill="#b75867" stroke="#b75867" points="288.91,-610.84 299.46,-609.83 290.58,-604.04 288.91,-610.84"/>
</g>
<!-- Numeric Methods -->
<g id="node4" class="node">
<title>Numeric Methods</title>
<g id="a_node4"><a xlink:href="../Numeric Methods.html" xlink:title="Numeric Methods" target="_parent">
<path fill="#273434" stroke="#b75867" d="M421,-591C421,-591 329,-591 329,-591 323,-591 317,-585 317,-579 317,-579 317,-567 317,-567 317,-561 323,-555 329,-555 329,-555 421,-555 421,-555 427,-555 433,-561 433,-567 433,-567 433,-579 433,-579 433,-585 427,-591 421,-591"/>
<text text-anchor="middle" x="375" y="-569.9" font-family="sans" font-size="12.00" fill="#c4c7c7">Numeric Methods</text>
</a>
</g>
</g>
<!-- Knowledege Base&#45;&gt;Numeric Methods -->
<g id="edge3" class="edge">
<title>Knowledege Base&#45;&gt;Numeric Methods</title>
<path fill="none" stroke="#b75867" d="M190.63,-313.26C197.17,-366.2 218.7,-518.06 254,-551 268.24,-564.29 287.74,-570.87 306.88,-573.85"/>
<polygon fill="#b75867" stroke="#b75867" points="306.46,-577.32 316.82,-575.09 307.33,-570.38 306.46,-577.32"/>
</g>
<!-- Design and Analysis of Algorithms -->
<g id="node5" class="node">
<title>Design and Analysis of Algorithms</title>
<g id="a_node5"><a xlink:href="../Design and Analysis of Algorithms.html" xlink:title="Design and Analysis of Algorithms" target="_parent">
<path fill="#273434" stroke="#b75867" d="M466,-554C466,-554 284,-554 284,-554 278,-554 272,-548 272,-542 272,-542 272,-530 272,-530 272,-524 278,-518 284,-518 284,-518 466,-518 466,-518 472,-518 478,-524 478,-530 478,-530 478,-542 478,-542 478,-548 472,-554 466,-554"/>
<text text-anchor="middle" x="375" y="-532.9" font-family="sans" font-size="12.00" fill="#c4c7c7">Design and Analysis of Algorithms</text>
</a>
</g>
</g>
<!-- Knowledege Base&#45;&gt;Design and Analysis of Algorithms -->
<g id="edge4" class="edge">
<title>Knowledege Base&#45;&gt;Design and Analysis of Algorithms</title>
<path fill="none" stroke="#b75867" d="M188.05,-313.29C188.07,-355.6 194.45,-460.63 254,-514 256.85,-516.55 259.89,-518.86 263.09,-520.93"/>
<polygon fill="#b75867" stroke="#b75867" points="261.46,-524.03 271.89,-525.9 264.9,-517.94 261.46,-524.03"/>
</g>
<!-- Logic Programming -->
<g id="node6" class="node">
<title>Logic Programming</title>
<g id="a_node6"><a xlink:href="../Logic Programming.html" xlink:title="Logic Programming" target="_parent">
<path fill="#273434" stroke="#b75867" d="M426,-517C426,-517 324,-517 324,-517 318,-517 312,-511 312,-505 312,-505 312,-493 312,-493 312,-487 318,-481 324,-481 324,-481 426,-481 426,-481 432,-481 438,-487 438,-493 438,-493 438,-505 438,-505 438,-511 432,-517 426,-517"/>
<text text-anchor="middle" x="375" y="-495.9" font-family="sans" font-size="12.00" fill="#c4c7c7">Logic Programming</text>
</a>
</g>
</g>
<!-- Knowledege Base&#45;&gt;Logic Programming -->
<g id="edge5" class="edge">
<title>Knowledege Base&#45;&gt;Logic Programming</title>
<path fill="none" stroke="#b75867" d="M189.31,-313.01C192.01,-349.93 203.67,-434.32 254,-477 267.3,-488.28 284.46,-494.58 301.62,-497.94"/>
<polygon fill="#b75867" stroke="#b75867" points="301.26,-501.42 311.69,-499.59 302.39,-494.52 301.26,-501.42"/>
</g>
<!-- Data Structures -->
<g id="node7" class="node">
<title>Data Structures</title>
<g id="a_node7"><a xlink:href="../Data Structures.html" xlink:title="Data Structures" target="_parent">
<path fill="#273434" stroke="#b75867" d="M415,-480C415,-480 335,-480 335,-480 329,-480 323,-474 323,-468 323,-468 323,-456 323,-456 323,-450 329,-444 335,-444 335,-444 415,-444 415,-444 421,-444 427,-450 427,-456 427,-456 427,-468 427,-468 427,-474 421,-480 415,-480"/>
<text text-anchor="middle" x="375" y="-458.9" font-family="sans" font-size="12.00" fill="#c4c7c7">Data Structures</text>
</a>
</g>
</g>
<!-- Knowledege Base&#45;&gt;Data Structures -->
<g id="edge6" class="edge">
<title>Knowledege Base&#45;&gt;Data Structures</title>
<path fill="none" stroke="#b75867" d="M191.25,-313.48C196.95,-344.8 213.1,-408 254,-440 270.55,-452.95 292.31,-459.17 312.74,-461.92"/>
<polygon fill="#b75867" stroke="#b75867" points="312.63,-465.43 322.95,-463.04 313.39,-458.47 312.63,-465.43"/>
</g>
<!-- Languages, Automata and Computation -->
<g id="node8" class="node">
<title>Languages, Automata and Computation</title>
<g id="a_node8"><a xlink:href="../Languages, Automata and Computation.html" xlink:title="Languages, Automata and Computation" target="_parent">
<path fill="#273434" stroke="#b75867" d="M484,-443C484,-443 266,-443 266,-443 260,-443 254,-437 254,-431 254,-431 254,-419 254,-419 254,-413 260,-407 266,-407 266,-407 484,-407 484,-407 490,-407 496,-413 496,-419 496,-419 496,-431 496,-431 496,-437 490,-443 484,-443"/>
<text text-anchor="middle" x="375" y="-421.9" font-family="sans" font-size="12.00" fill="#c4c7c7">Languages, Automata and Computation</text>
</a>
</g>
</g>
<!-- Knowledege Base&#45;&gt;Languages, Automata and Computation -->
<g id="edge7" class="edge">
<title>Knowledege Base&#45;&gt;Languages, Automata and Computation</title>
<path fill="none" stroke="#b75867" d="M194.23,-313.21C202.32,-335.95 219.27,-374.66 252.01,-400.87"/>
<polygon fill="#b75867" stroke="#b75867" points="250.07,-403.78 260.19,-406.91 254.23,-398.15 250.07,-403.78"/>
</g>
<!-- Operations Research -->
<g id="node9" class="node">
<title>Operations Research</title>
<g id="a_node9"><a xlink:href="../Operations Research.html" xlink:title="Operations Research" target="_parent">
<path fill="#273434" stroke="#b75867" d="M429.5,-406C429.5,-406 320.5,-406 320.5,-406 314.5,-406 308.5,-400 308.5,-394 308.5,-394 308.5,-382 308.5,-382 308.5,-376 314.5,-370 320.5,-370 320.5,-370 429.5,-370 429.5,-370 435.5,-370 441.5,-376 441.5,-382 441.5,-382 441.5,-394 441.5,-394 441.5,-400 435.5,-406 429.5,-406"/>
<text text-anchor="middle" x="375" y="-384.9" font-family="sans" font-size="12.00" fill="#c4c7c7">Operations Research</text>
</a>
</g>
</g>
<!-- Knowledege Base&#45;&gt;Operations Research -->
<g id="edge8" class="edge">
<title>Knowledege Base&#45;&gt;Operations Research</title>
<path fill="none" stroke="#b75867" d="M200.19,-313.26C211.77,-329.77 231.08,-353.38 254,-366 267.47,-373.42 282.95,-378.4 298.22,-381.73"/>
<polygon fill="#b75867" stroke="#b75867" points="297.71,-385.19 308.19,-383.69 299.06,-378.33 297.71,-385.19"/>
</g>
<!-- Differential Equations -->
<g id="node10" class="node">
<title>Differential Equations</title>
<g id="a_node10"><a xlink:href="../Differential Equations.html" xlink:title="Differential Equations" target="_parent">
<path fill="#273434" stroke="#b75867" d="M432,-369C432,-369 318,-369 318,-369 312,-369 306,-363 306,-357 306,-357 306,-345 306,-345 306,-339 312,-333 318,-333 318,-333 432,-333 432,-333 438,-333 444,-339 444,-345 444,-345 444,-357 444,-357 444,-363 438,-369 432,-369"/>
<text text-anchor="middle" x="375" y="-347.9" font-family="sans" font-size="12.00" fill="#c4c7c7">Differential Equations</text>
</a>
</g>
</g>
<!-- Knowledege Base&#45;&gt;Differential Equations -->
<g id="edge9" class="edge">
<title>Knowledege Base&#45;&gt;Differential Equations</title>
<path fill="none" stroke="#b75867" d="M218.65,-313.04C229.49,-318.87 242,-324.89 254,-329 267.22,-333.53 281.6,-337.19 295.66,-340.12"/>
<polygon fill="#b75867" stroke="#b75867" points="295.33,-343.62 305.82,-342.13 296.69,-336.75 295.33,-343.62"/>
</g>
<!-- OOP -->
<g id="node11" class="node">
<title>OOP</title>
<g id="a_node11"><a xlink:href="../OOP.html" xlink:title="OOP" target="_parent">
<path fill="#273434" stroke="#b75867" d="M390,-332C390,-332 360,-332 360,-332 354,-332 348,-326 348,-320 348,-320 348,-308 348,-308 348,-302 354,-296 360,-296 360,-296 390,-296 390,-296 396,-296 402,-302 402,-308 402,-308 402,-320 402,-320 402,-326 396,-332 390,-332"/>
<text text-anchor="middle" x="375" y="-310.9" font-family="sans" font-size="12.00" fill="#c4c7c7">OOP</text>
</a>
</g>
</g>
<!-- Knowledege Base&#45;&gt;OOP -->
<g id="edge10" class="edge">
<title>Knowledege Base&#45;&gt;OOP</title>
<path fill="none" stroke="#b75867" d="M246.18,-300.91C276.09,-303.97 311.71,-307.62 337.74,-310.29"/>
<polygon fill="#b75867" stroke="#b75867" points="337.61,-313.79 347.91,-311.33 338.32,-306.83 337.61,-313.79"/>
</g>
<!-- Discrete Structures -->
<g id="node12" class="node">
<title>Discrete Structures</title>
<g id="a_node12"><a xlink:href="../Discrete Structures.html" xlink:title="Discrete Structures" target="_parent">
<path fill="#273434" stroke="#b75867" d="M424,-295C424,-295 326,-295 326,-295 320,-295 314,-289 314,-283 314,-283 314,-271 314,-271 314,-265 320,-259 326,-259 326,-259 424,-259 424,-259 430,-259 436,-265 436,-271 436,-271 436,-283 436,-283 436,-289 430,-295 424,-295"/>
<text text-anchor="middle" x="375" y="-273.9" font-family="sans" font-size="12.00" fill="#c4c7c7">Discrete Structures</text>
</a>
</g>
</g>
<!-- Knowledege Base&#45;&gt;Discrete Structures -->
<g id="edge11" class="edge">
<title>Knowledege Base&#45;&gt;Discrete Structures</title>
<path fill="none" stroke="#b75867" d="M246.18,-289.4C264.39,-287.64 284.71,-285.66 303.7,-283.82"/>
<polygon fill="#b75867" stroke="#b75867" points="304.18,-287.29 313.79,-282.84 303.5,-280.32 304.18,-287.29"/>
</g>
<!-- Advanced Algebra -->
<g id="node13" class="node">
<title>Advanced Algebra</title>
<g id="a_node13"><a xlink:href="../Advanced Algebra.html" xlink:title="Advanced Algebra" target="_parent">
<path fill="#273434" stroke="#b75867" d="M422.5,-258C422.5,-258 327.5,-258 327.5,-258 321.5,-258 315.5,-252 315.5,-246 315.5,-246 315.5,-234 315.5,-234 315.5,-228 321.5,-222 327.5,-222 327.5,-222 422.5,-222 422.5,-222 428.5,-222 434.5,-228 434.5,-234 434.5,-234 434.5,-246 434.5,-246 434.5,-252 428.5,-258 422.5,-258"/>
<text text-anchor="middle" x="375" y="-236.9" font-family="sans" font-size="12.00" fill="#c4c7c7">Advanced Algebra</text>
</a>
</g>
</g>
<!-- Knowledege Base&#45;&gt;Advanced Algebra -->
<g id="edge12" class="edge">
<title>Knowledege Base&#45;&gt;Advanced Algebra</title>
<path fill="none" stroke="#b75867" d="M220.03,-276.83C230.56,-271.39 242.53,-265.85 254,-262 270.36,-256.5 288.47,-252.28 305.56,-249.07"/>
<polygon fill="#b75867" stroke="#b75867" points="306.25,-252.5 315.47,-247.3 305.01,-245.61 306.25,-252.5"/>
</g>
<!-- Differential Analysis -->
<g id="node14" class="node">
<title>Differential Analysis</title>
<g id="a_node14"><a xlink:href="../Differential Analysis.html" xlink:title="Differential Analysis" target="_parent">
<path fill="#273434" stroke="#b75867" d="M426.5,-221C426.5,-221 323.5,-221 323.5,-221 317.5,-221 311.5,-215 311.5,-209 311.5,-209 311.5,-197 311.5,-197 311.5,-191 317.5,-185 323.5,-185 323.5,-185 426.5,-185 426.5,-185 432.5,-185 438.5,-191 438.5,-197 438.5,-197 438.5,-209 438.5,-209 438.5,-215 432.5,-221 426.5,-221"/>
<text text-anchor="middle" x="375" y="-199.9" font-family="sans" font-size="12.00" fill="#c4c7c7">Differential Analysis</text>
</a>
</g>
</g>
<!-- Knowledege Base&#45;&gt;Differential Analysis -->
<g id="edge13" class="edge">
<title>Knowledege Base&#45;&gt;Differential Analysis</title>
<path fill="none" stroke="#b75867" d="M200.24,-277C211.88,-260.72 231.21,-237.45 254,-225 268.39,-217.14 285.06,-212.02 301.3,-208.7"/>
<polygon fill="#b75867" stroke="#b75867" points="302.13,-212.11 311.34,-206.86 300.87,-205.22 302.13,-212.11"/>
</g>
<!-- Knowledege Base&#45;&gt;Differential Analysis -->
<g id="edge17" class="edge">
<title>Knowledege Base&#45;&gt;Differential Analysis</title>
<path fill="none" stroke="#b75867" d="M200.92,-276.84C212.62,-260.83 231.65,-238.21 254,-226 268.39,-218.14 285.06,-213.02 301.3,-209.68"/>
<polygon fill="#b75867" stroke="#b75867" points="302.14,-213.08 311.34,-207.82 300.87,-206.2 302.14,-213.08"/>
</g>
<!-- Introduction to programming -->
<g id="node15" class="node">
<title>Introduction to programming</title>
<g id="a_node15"><a xlink:href="../Introduction to programming.html" xlink:title="Introduction to programming" target="_parent">
<path fill="#273434" stroke="#b75867" d="M454.5,-184C454.5,-184 295.5,-184 295.5,-184 289.5,-184 283.5,-178 283.5,-172 283.5,-172 283.5,-160 283.5,-160 283.5,-154 289.5,-148 295.5,-148 295.5,-148 454.5,-148 454.5,-148 460.5,-148 466.5,-154 466.5,-160 466.5,-160 466.5,-172 466.5,-172 466.5,-178 460.5,-184 454.5,-184"/>
<text text-anchor="middle" x="375" y="-162.9" font-family="sans" font-size="12.00" fill="#c4c7c7">Introduction to programming</text>
</a>
</g>
</g>
<!-- Knowledege Base&#45;&gt;Introduction to programming -->
<g id="edge14" class="edge">
<title>Knowledege Base&#45;&gt;Introduction to programming</title>
<path fill="none" stroke="#b75867" d="M194.28,-276.95C203.07,-252.61 222.21,-209.81 254,-188 260.06,-183.84 266.69,-180.4 273.61,-177.57"/>
<polygon fill="#b75867" stroke="#b75867" points="275.02,-180.78 283.22,-174.07 272.62,-174.21 275.02,-180.78"/>
</g>
<!-- Linear Algebra -->
<g id="node16" class="node">
<title>Linear Algebra</title>
<g id="a_node16"><a xlink:href="../Linear Algebra.html" xlink:title="Linear Algebra" target="_parent">
<path fill="#273434" stroke="#b75867" d="M412,-147C412,-147 338,-147 338,-147 332,-147 326,-141 326,-135 326,-135 326,-123 326,-123 326,-117 332,-111 338,-111 338,-111 412,-111 412,-111 418,-111 424,-117 424,-123 424,-123 424,-135 424,-135 424,-141 418,-147 412,-147"/>
<text text-anchor="middle" x="375" y="-125.9" font-family="sans" font-size="12.00" fill="#c4c7c7">Linear Algebra</text>
</a>
</g>
</g>
<!-- Knowledege Base&#45;&gt;Linear Algebra -->
<g id="edge16" class="edge">
<title>Knowledege Base&#45;&gt;Linear Algebra</title>
<path fill="none" stroke="#b75867" d="M191.29,-276.64C197.05,-245.53 213.29,-182.76 254,-151 271.44,-137.39 294.63,-131.22 315.97,-128.69"/>
<polygon fill="#b75867" stroke="#b75867" points="316.31,-132.18 325.94,-127.75 315.65,-125.21 316.31,-132.18"/>
</g>
<!-- Org Roam -->
<g id="node17" class="node">
<title>Org Roam</title>
<g id="a_node17"><a xlink:href="../Org Roam.html" xlink:title="Org Roam" target="_parent">
<path fill="#273434" stroke="#b75867" d="M399,-110C399,-110 351,-110 351,-110 345,-110 339,-104 339,-98 339,-98 339,-86 339,-86 339,-80 345,-74 351,-74 351,-74 399,-74 399,-74 405,-74 411,-80 411,-86 411,-86 411,-98 411,-98 411,-104 405,-110 399,-110"/>
<text text-anchor="middle" x="375" y="-88.9" font-family="sans" font-size="12.00" fill="#c4c7c7">Org Roam</text>
</a>
</g>
</g>
<!-- Knowledege Base&#45;&gt;Org Roam -->
<g id="edge18" class="edge">
<title>Knowledege Base&#45;&gt;Org Roam</title>
<path fill="none" stroke="#b75867" d="M189.37,-276.81C192.17,-239.94 204.01,-156.32 254,-114 274.44,-96.7 303.96,-91.12 328.61,-89.91"/>
<polygon fill="#b75867" stroke="#b75867" points="328.93,-93.4 338.83,-89.63 328.74,-86.4 328.93,-93.4"/>
</g>
<!-- Org&#45;mode -->
<g id="node18" class="node">
<title>Org&#45;mode</title>
<g id="a_node18"><a xlink:href="../Org-mode.html" xlink:title="Org&#45;mode" target="_parent">
<path fill="#273434" stroke="#b75867" d="M400,-73C400,-73 350,-73 350,-73 344,-73 338,-67 338,-61 338,-61 338,-49 338,-49 338,-43 344,-37 350,-37 350,-37 400,-37 400,-37 406,-37 412,-43 412,-49 412,-49 412,-61 412,-61 412,-67 406,-73 400,-73"/>
<text text-anchor="middle" x="375" y="-51.9" font-family="sans" font-size="12.00" fill="#c4c7c7">Org&#45;mode</text>
</a>
</g>
</g>
<!-- Knowledege Base&#45;&gt;Org&#45;mode -->
<g id="edge19" class="edge">
<title>Knowledege Base&#45;&gt;Org&#45;mode</title>
<path fill="none" stroke="#b75867" d="M188.07,-276.79C188.16,-234.67 194.67,-130.11 254,-77 273.82,-59.26 303.06,-53.63 327.72,-52.5"/>
<polygon fill="#b75867" stroke="#b75867" points="328.05,-55.99 337.97,-52.27 327.89,-48.99 328.05,-55.99"/>
</g>
<!-- Projects -->
<g id="node19" class="node">
<title>Projects</title>
<g id="a_node19"><a xlink:href="../Projects.html" xlink:title="Projects" target="_parent">
<path fill="none" stroke="#b75867" d="M394,-36C394,-36 356,-36 356,-36 350,-36 344,-30 344,-24 344,-24 344,-12 344,-12 344,-6 350,0 356,0 356,0 394,0 394,0 400,0 406,-6 406,-12 406,-12 406,-24 406,-24 406,-30 400,-36 394,-36"/>
<text text-anchor="middle" x="375" y="-14.9" font-family="sans" font-size="12.00" fill="#c4c7c7">Projects</text>
</a>
</g>
</g>
<!-- Knowledege Base&#45;&gt;Projects -->
<g id="edge20" class="edge">
<title>Knowledege Base&#45;&gt;Projects</title>
<path fill="none" stroke="#ffffff" d="M191.95,-266.57C199.78,-206.75 220.87,-70.88 254,-40 278.01,-17.61 316.94,-14.27 343.92,-15.12"/>
<polygon fill="#ffffff" stroke="#ffffff" points="188.43,-266.44 190.64,-276.81 195.38,-267.33 188.43,-266.44"/>
</g>
</g>
</svg>
