<?xml version="1.0" encoding="UTF-8" standalone="no"?>
<!DOCTYPE svg PUBLIC "-//W3C//DTD SVG 1.1//EN"
 "http://www.w3.org/Graphics/SVG/1.1/DTD/svg11.dtd">
<!-- Generated by graphviz version 2.46.1 (0)
 -->
<!-- Title: nil Pages: 1 -->
<svg width="62pt" height="44pt"
 viewBox="0.00 0.00 62.00 44.00" xmlns="http://www.w3.org/2000/svg" xmlns:xlink="http://www.w3.org/1999/xlink">
<g id="graph0" class="graph" transform="scale(1 1) rotate(0) translate(4 40)">
<title>nil</title>
<polygon fill="#132020" stroke="transparent" points="-4,4 -4,-40 58,-40 58,4 -4,4"/>
<!-- nil -->
<g id="node1" class="node">
<title>nil</title>
<g id="a_node1"><a xlink:href="/Knowledge/bad_habit.html" xlink:title="nil" target="_parent">
<path fill="#273434" stroke="#b75867" d="M42,-36C42,-36 12,-36 12,-36 6,-36 0,-30 0,-24 0,-24 0,-12 0,-12 0,-6 6,0 12,0 12,0 42,0 42,0 48,0 54,-6 54,-12 54,-12 54,-24 54,-24 54,-30 48,-36 42,-36"/>
<text text-anchor="middle" x="27" y="-14.9" font-family="sans" font-size="12.00" fill="#c4c7c7">nil</text>
</a>
</g>
</g>
</g>
</svg>
