<?xml version="1.0" encoding="UTF-8" standalone="no"?>
<!DOCTYPE svg PUBLIC "-//W3C//DTD SVG 1.1//EN"
 "http://www.w3.org/Graphics/SVG/1.1/DTD/svg11.dtd">
<!-- Generated by graphviz version 2.44.0 (0)
 -->
<!-- Title: Class of equivalence Pages: 1 -->
<svg width="828pt" height="858pt"
 viewBox="0.00 0.00 828.00 858.00" xmlns="http://www.w3.org/2000/svg" xmlns:xlink="http://www.w3.org/1999/xlink">
<g id="graph0" class="graph" transform="scale(1 1) rotate(0) translate(4 854)">
<title>Class of equivalence</title>
<polygon fill="#132020" stroke="transparent" points="-4,4 -4,-854 824,-854 824,4 -4,4"/>
<!-- Class of equivalence -->
<g id="node1" class="node">
<title>Class of equivalence</title>
<g id="a_node1"><a xlink:href="../Class of equivalence.html" xlink:title="Class of equivalence" target="_parent">
<path fill="#273434" stroke="#b75867" d="M119,-591C119,-591 12,-591 12,-591 6,-591 0,-585 0,-579 0,-579 0,-567 0,-567 0,-561 6,-555 12,-555 12,-555 119,-555 119,-555 125,-555 131,-561 131,-567 131,-567 131,-579 131,-579 131,-585 125,-591 119,-591"/>
<text text-anchor="middle" x="65.5" y="-569.9" font-family="sans" font-size="12.00" fill="#c4c7c7">Class of equivalence</text>
</a>
</g>
</g>
<!-- Partition -->
<g id="node2" class="node">
<title>Partition</title>
<g id="a_node2"><a xlink:href="../Partition.html" xlink:title="Partition" target="_parent">
<path fill="#273434" stroke="#b75867" d="M192,-591C192,-591 151,-591 151,-591 145,-591 139,-585 139,-579 139,-579 139,-567 139,-567 139,-561 145,-555 151,-555 151,-555 192,-555 192,-555 198,-555 204,-561 204,-567 204,-567 204,-579 204,-579 204,-585 198,-591 192,-591"/>
<text text-anchor="middle" x="171.5" y="-569.9" font-family="sans" font-size="12.00" fill="#c4c7c7">Partition</text>
</a>
</g>
</g>
<!-- Class of equivalence&#45;&gt;Partition -->
<g id="edge1" class="edge">
<title>Class of equivalence&#45;&gt;Partition</title>
<path fill="none" stroke="#b75867" d="M131.18,-573C131.35,-573 131.51,-573 131.68,-573"/>
<polygon fill="#b75867" stroke="#b75867" points="128.94,-576.5 138.94,-573 128.94,-569.5 128.94,-576.5"/>
</g>
<!-- Set -->
<g id="node3" class="node">
<title>Set</title>
<g id="a_node3"><a xlink:href="../Set.html" xlink:title="Set" target="_parent">
<path fill="#273434" stroke="#b75867" d="M418.5,-628C418.5,-628 388.5,-628 388.5,-628 382.5,-628 376.5,-622 376.5,-616 376.5,-616 376.5,-604 376.5,-604 376.5,-598 382.5,-592 388.5,-592 388.5,-592 418.5,-592 418.5,-592 424.5,-592 430.5,-598 430.5,-604 430.5,-604 430.5,-616 430.5,-616 430.5,-622 424.5,-628 418.5,-628"/>
<text text-anchor="middle" x="403.5" y="-606.9" font-family="sans" font-size="12.00" fill="#c4c7c7">Set</text>
</a>
</g>
</g>
<!-- Class of equivalence&#45;&gt;Set -->
<g id="edge2" class="edge">
<title>Class of equivalence&#45;&gt;Set</title>
<path fill="none" stroke="#b75867" d="M131.21,-589.65C133.83,-590.14 136.44,-590.59 139,-591 219.35,-603.77 314.86,-607.97 365.94,-609.34"/>
<polygon fill="#b75867" stroke="#b75867" points="366.07,-612.84 376.15,-609.59 366.24,-605.85 366.07,-612.84"/>
</g>
<!-- Relation of Equivalence -->
<g id="node4" class="node">
<title>Relation of Equivalence</title>
<g id="a_node4"><a xlink:href="../Relation of Equivalence.html" xlink:title="Relation of Equivalence" target="_parent">
<path fill="#273434" stroke="#b75867" d="M349,-571C349,-571 224,-571 224,-571 218,-571 212,-565 212,-559 212,-559 212,-547 212,-547 212,-541 218,-535 224,-535 224,-535 349,-535 349,-535 355,-535 361,-541 361,-547 361,-547 361,-559 361,-559 361,-565 355,-571 349,-571"/>
<text text-anchor="middle" x="286.5" y="-549.9" font-family="sans" font-size="12.00" fill="#c4c7c7">Relation of Equivalence</text>
</a>
</g>
</g>
<!-- Class of equivalence&#45;&gt;Relation of Equivalence -->
<g id="edge3" class="edge">
<title>Class of equivalence&#45;&gt;Relation of Equivalence</title>
<path fill="none" stroke="#b75867" d="M131.23,-559.04C133.85,-558.65 136.45,-558.31 139,-558 159.3,-555.57 181.29,-554.17 201.91,-553.4"/>
<polygon fill="#b75867" stroke="#b75867" points="202.03,-556.9 211.91,-553.07 201.8,-549.9 202.03,-556.9"/>
</g>
<!-- Principle of division -->
<g id="node5" class="node">
<title>Principle of division</title>
<g id="a_node5"><a xlink:href="../Principle of division.html" xlink:title="Principle of division" target="_parent">
<path fill="none" stroke="#b75867" d="M604.5,-850C604.5,-850 502.5,-850 502.5,-850 496.5,-850 490.5,-844 490.5,-838 490.5,-838 490.5,-826 490.5,-826 490.5,-820 496.5,-814 502.5,-814 502.5,-814 604.5,-814 604.5,-814 610.5,-814 616.5,-820 616.5,-826 616.5,-826 616.5,-838 616.5,-838 616.5,-844 610.5,-850 604.5,-850"/>
<text text-anchor="middle" x="553.5" y="-828.9" font-family="sans" font-size="12.00" fill="#c4c7c7">Principle of division</text>
</a>
</g>
</g>
<!-- Class of equivalence&#45;&gt;Principle of division -->
<g id="edge4" class="edge">
<title>Class of equivalence&#45;&gt;Principle of division</title>
<path fill="none" stroke="#ffffff" d="M97.08,-597.48C159.04,-645.83 305.51,-753.73 446,-810 459.93,-815.58 475.48,-819.82 490.3,-823.01"/>
<polygon fill="#ffffff" stroke="#ffffff" points="98.93,-594.49 88.91,-591.07 94.61,-600 98.93,-594.49"/>
</g>
<!-- Relations -->
<g id="node6" class="node">
<title>Relations</title>
<g id="a_node6"><a xlink:href="../Relations.html" xlink:title="Relations" target="_parent">
<path fill="none" stroke="#b75867" d="M426,-388C426,-388 381,-388 381,-388 375,-388 369,-382 369,-376 369,-376 369,-364 369,-364 369,-358 375,-352 381,-352 381,-352 426,-352 426,-352 432,-352 438,-358 438,-364 438,-364 438,-376 438,-376 438,-382 432,-388 426,-388"/>
<text text-anchor="middle" x="403.5" y="-366.9" font-family="sans" font-size="12.00" fill="#c4c7c7">Relations</text>
</a>
</g>
</g>
<!-- Class of equivalence&#45;&gt;Relations -->
<g id="edge5" class="edge">
<title>Class of equivalence&#45;&gt;Relations</title>
<path fill="none" stroke="#ffffff" d="M104.97,-549.76C172.51,-508.95 311.05,-425.25 372.27,-388.27"/>
<polygon fill="#ffffff" stroke="#ffffff" points="103.07,-546.82 96.32,-554.99 106.69,-552.81 103.07,-546.82"/>
</g>
<!-- Partition&#45;&gt;Class of equivalence -->
<g id="edge6" class="edge">
<title>Partition&#45;&gt;Class of equivalence</title>
<path fill="none" stroke="#ffffff" d="M131.68,-573.73C131.51,-573.73 131.35,-573.73 131.18,-573.73"/>
<polygon fill="#ffffff" stroke="#ffffff" points="128.96,-577.24 138.94,-573.7 128.93,-570.24 128.96,-577.24"/>
</g>
<!-- Partition&#45;&gt;Relation of Equivalence -->
<g id="edge7" class="edge">
<title>Partition&#45;&gt;Relation of Equivalence</title>
<path fill="none" stroke="#ffffff" d="M211.44,-566.11C211.6,-566.08 211.77,-566.05 211.93,-566.02"/>
<polygon fill="#ffffff" stroke="#ffffff" points="213.51,-562.19 204.28,-567.38 214.73,-569.08 213.51,-562.19"/>
</g>
<!-- Principle of partitions -->
<g id="node7" class="node">
<title>Principle of partitions</title>
<g id="a_node7"><a xlink:href="../Principle of partitions.html" xlink:title="Principle of partitions" target="_parent">
<path fill="none" stroke="#b75867" d="M610,-591C610,-591 497,-591 497,-591 491,-591 485,-585 485,-579 485,-579 485,-567 485,-567 485,-561 491,-555 497,-555 497,-555 610,-555 610,-555 616,-555 622,-561 622,-567 622,-567 622,-579 622,-579 622,-585 616,-591 610,-591"/>
<text text-anchor="middle" x="553.5" y="-569.9" font-family="sans" font-size="12.00" fill="#c4c7c7">Principle of partitions</text>
</a>
</g>
</g>
<!-- Partition&#45;&gt;Principle of partitions -->
<g id="edge8" class="edge">
<title>Partition&#45;&gt;Principle of partitions</title>
<path fill="none" stroke="#ffffff" d="M214.57,-573C279.93,-573 406.48,-573 484.8,-573"/>
<polygon fill="#ffffff" stroke="#ffffff" points="214.25,-569.5 204.24,-573 214.24,-576.5 214.25,-569.5"/>
</g>
<!-- Set&#45;&gt;Class of equivalence -->
<g id="edge12" class="edge">
<title>Set&#45;&gt;Class of equivalence</title>
<path fill="none" stroke="#ffffff" d="M365.94,-610.01C314.86,-608.97 219.35,-604.77 139,-592 136.44,-591.59 133.83,-591.14 131.21,-590.65"/>
<polygon fill="#ffffff" stroke="#ffffff" points="366.09,-613.51 376.15,-610.18 366.21,-606.51 366.09,-613.51"/>
</g>
<!-- Set&#45;&gt;Relation of Equivalence -->
<g id="edge13" class="edge">
<title>Set&#45;&gt;Relation of Equivalence</title>
<path fill="none" stroke="#ffffff" d="M366.97,-593.09C352.87,-586.17 336.69,-578.15 322.63,-571.11"/>
<polygon fill="#ffffff" stroke="#ffffff" points="365.83,-596.43 376.35,-597.68 368.9,-590.14 365.83,-596.43"/>
</g>
<!-- Set&#45;&gt;Principle of division -->
<g id="edge14" class="edge">
<title>Set&#45;&gt;Principle of division</title>
<path fill="none" stroke="#ffffff" d="M413.95,-637.88C421.61,-661.58 432.07,-696.65 438,-728 441.4,-745.99 433.76,-796.38 446,-810 457.3,-822.57 473.71,-829.04 490.28,-832.13"/>
<polygon fill="#ffffff" stroke="#ffffff" points="417.2,-636.56 410.75,-628.15 410.55,-638.74 417.2,-636.56"/>
</g>
<!-- Set&#45;&gt;Principle of partitions -->
<g id="edge19" class="edge">
<title>Set&#45;&gt;Principle of partitions</title>
<path fill="none" stroke="#ffffff" d="M440.27,-596.71C442.2,-596.11 444.12,-595.53 446,-595 458.45,-591.48 471.86,-588.28 484.82,-585.46"/>
<polygon fill="#ffffff" stroke="#ffffff" points="439.05,-593.43 430.66,-599.9 441.25,-600.07 439.05,-593.43"/>
</g>
<!-- Recurrent Equations -->
<g id="node8" class="node">
<title>Recurrent Equations</title>
<g id="a_node8"><a xlink:href="../Recurrent Equations.html" xlink:title="Recurrent Equations" target="_parent">
<path fill="none" stroke="#b75867" d="M607,-628C607,-628 500,-628 500,-628 494,-628 488,-622 488,-616 488,-616 488,-604 488,-604 488,-598 494,-592 500,-592 500,-592 607,-592 607,-592 613,-592 619,-598 619,-604 619,-604 619,-616 619,-616 619,-622 613,-628 607,-628"/>
<text text-anchor="middle" x="553.5" y="-606.9" font-family="sans" font-size="12.00" fill="#c4c7c7">Recurrent Equations</text>
</a>
</g>
</g>
<!-- Set&#45;&gt;Recurrent Equations -->
<g id="edge9" class="edge">
<title>Set&#45;&gt;Recurrent Equations</title>
<path fill="none" stroke="#ffffff" d="M440.92,-610C455.09,-610 471.77,-610 487.85,-610"/>
<polygon fill="#ffffff" stroke="#ffffff" points="440.62,-606.5 430.62,-610 440.62,-613.5 440.62,-606.5"/>
</g>
<!-- Reflexive Closure -->
<g id="node9" class="node">
<title>Reflexive Closure</title>
<g id="a_node9"><a xlink:href="../Reflexive Closure.html" xlink:title="Reflexive Closure" target="_parent">
<path fill="none" stroke="#b75867" d="M598,-406C598,-406 509,-406 509,-406 503,-406 497,-400 497,-394 497,-394 497,-382 497,-382 497,-376 503,-370 509,-370 509,-370 598,-370 598,-370 604,-370 610,-376 610,-382 610,-382 610,-394 610,-394 610,-400 604,-406 598,-406"/>
<text text-anchor="middle" x="553.5" y="-384.9" font-family="sans" font-size="12.00" fill="#c4c7c7">Reflexive Closure</text>
</a>
</g>
</g>
<!-- Set&#45;&gt;Reflexive Closure -->
<g id="edge10" class="edge">
<title>Set&#45;&gt;Reflexive Closure</title>
<path fill="none" stroke="#ffffff" d="M410.69,-581.67C417.55,-550.08 428.86,-497.44 438,-452 441.75,-433.37 432.67,-423.54 446,-410 459.25,-396.55 478.39,-390.25 496.81,-387.56"/>
<polygon fill="#ffffff" stroke="#ffffff" points="407.25,-581.02 408.54,-591.54 414.09,-582.51 407.25,-581.02"/>
</g>
<!-- Symmetric Closure -->
<g id="node10" class="node">
<title>Symmetric Closure</title>
<g id="a_node10"><a xlink:href="../Symmetric Closure.html" xlink:title="Symmetric Closure" target="_parent">
<path fill="none" stroke="#b75867" d="M603,-443C603,-443 504,-443 504,-443 498,-443 492,-437 492,-431 492,-431 492,-419 492,-419 492,-413 498,-407 504,-407 504,-407 603,-407 603,-407 609,-407 615,-413 615,-419 615,-419 615,-431 615,-431 615,-437 609,-443 603,-443"/>
<text text-anchor="middle" x="553.5" y="-421.9" font-family="sans" font-size="12.00" fill="#c4c7c7">Symmetric Closure</text>
</a>
</g>
</g>
<!-- Set&#45;&gt;Symmetric Closure -->
<g id="edge11" class="edge">
<title>Set&#45;&gt;Symmetric Closure</title>
<path fill="none" stroke="#ffffff" d="M408.07,-581.72C413.9,-540.12 426.77,-465.37 446,-447 458.29,-435.26 475.1,-429.06 491.73,-425.95"/>
<polygon fill="#ffffff" stroke="#ffffff" points="404.58,-581.39 406.71,-591.77 411.52,-582.33 404.58,-581.39"/>
</g>
<!-- Principle of products -->
<g id="node11" class="node">
<title>Principle of products</title>
<g id="a_node11"><a xlink:href="../Principle of products.html" xlink:title="Principle of products" target="_parent">
<path fill="none" stroke="#b75867" d="M608.5,-813C608.5,-813 498.5,-813 498.5,-813 492.5,-813 486.5,-807 486.5,-801 486.5,-801 486.5,-789 486.5,-789 486.5,-783 492.5,-777 498.5,-777 498.5,-777 608.5,-777 608.5,-777 614.5,-777 620.5,-783 620.5,-789 620.5,-789 620.5,-801 620.5,-801 620.5,-807 614.5,-813 608.5,-813"/>
<text text-anchor="middle" x="553.5" y="-791.9" font-family="sans" font-size="12.00" fill="#c4c7c7">Principle of products</text>
</a>
</g>
</g>
<!-- Set&#45;&gt;Principle of products -->
<g id="edge15" class="edge">
<title>Set&#45;&gt;Principle of products</title>
<path fill="none" stroke="#ffffff" d="M413.31,-638.01C420.59,-661.79 430.84,-696.91 438,-728 442.56,-747.8 431.84,-758.44 446,-773 456.73,-784.03 471.42,-790.27 486.46,-793.64"/>
<polygon fill="#ffffff" stroke="#ffffff" points="416.59,-636.77 410.3,-628.25 409.9,-638.83 416.59,-636.77"/>
</g>
<!-- Dirichlet principle -->
<g id="node12" class="node">
<title>Dirichlet principle</title>
<g id="a_node12"><a xlink:href="../Dirichlet principle.html" xlink:title="Dirichlet principle" target="_parent">
<path fill="none" stroke="#b75867" d="M599.5,-776C599.5,-776 507.5,-776 507.5,-776 501.5,-776 495.5,-770 495.5,-764 495.5,-764 495.5,-752 495.5,-752 495.5,-746 501.5,-740 507.5,-740 507.5,-740 599.5,-740 599.5,-740 605.5,-740 611.5,-746 611.5,-752 611.5,-752 611.5,-764 611.5,-764 611.5,-770 605.5,-776 599.5,-776"/>
<text text-anchor="middle" x="553.5" y="-754.9" font-family="sans" font-size="12.00" fill="#c4c7c7">Dirichlet principle</text>
</a>
</g>
</g>
<!-- Set&#45;&gt;Dirichlet principle -->
<g id="edge16" class="edge">
<title>Set&#45;&gt;Dirichlet principle</title>
<path fill="none" stroke="#ffffff" d="M405.9,-638.3C408.9,-667.16 418.11,-711.13 446,-736 459.46,-748 477.7,-754.11 495.27,-757.05"/>
<polygon fill="#ffffff" stroke="#ffffff" points="409.36,-637.72 405.03,-628.05 402.39,-638.31 409.36,-637.72"/>
</g>
<!-- Principle of inclusion and exclusion -->
<g id="node13" class="node">
<title>Principle of inclusion and exclusion</title>
<g id="a_node13"><a xlink:href="../Principle of inclusion and exclusion.html" xlink:title="Principle of inclusion and exclusion" target="_parent">
<path fill="none" stroke="#b75867" d="M649,-739C649,-739 458,-739 458,-739 452,-739 446,-733 446,-727 446,-727 446,-715 446,-715 446,-709 452,-703 458,-703 458,-703 649,-703 649,-703 655,-703 661,-709 661,-715 661,-715 661,-727 661,-727 661,-733 655,-739 649,-739"/>
<text text-anchor="middle" x="553.5" y="-717.9" font-family="sans" font-size="12.00" fill="#c4c7c7">Principle of inclusion and exclusion</text>
</a>
</g>
</g>
<!-- Set&#45;&gt;Principle of inclusion and exclusion -->
<g id="edge17" class="edge">
<title>Set&#45;&gt;Principle of inclusion and exclusion</title>
<path fill="none" stroke="#ffffff" d="M410.43,-637.85C416.16,-657.86 426.87,-683.87 446,-699 447.78,-700.41 449.62,-701.73 451.52,-702.97"/>
<polygon fill="#ffffff" stroke="#ffffff" points="413.78,-636.82 407.88,-628.02 407.01,-638.58 413.78,-636.82"/>
</g>
<!-- Differential Analysis -->
<g id="node14" class="node">
<title>Differential Analysis</title>
<g id="a_node14"><a xlink:href="../Differential Analysis.html" xlink:title="Differential Analysis" target="_parent">
<path fill="none" stroke="#b75867" d="M605,-702C605,-702 502,-702 502,-702 496,-702 490,-696 490,-690 490,-690 490,-678 490,-678 490,-672 496,-666 502,-666 502,-666 605,-666 605,-666 611,-666 617,-672 617,-678 617,-678 617,-690 617,-690 617,-696 611,-702 605,-702"/>
<text text-anchor="middle" x="553.5" y="-680.9" font-family="sans" font-size="12.00" fill="#c4c7c7">Differential Analysis</text>
</a>
</g>
</g>
<!-- Set&#45;&gt;Differential Analysis -->
<g id="edge18" class="edge">
<title>Set&#45;&gt;Differential Analysis</title>
<path fill="none" stroke="#ffffff" d="M420.17,-636.55C426.97,-645.93 435.75,-655.71 446,-662 459.11,-670.05 474.67,-675.2 489.79,-678.49"/>
<polygon fill="#ffffff" stroke="#ffffff" points="422.99,-634.47 414.48,-628.15 417.19,-638.39 422.99,-634.47"/>
</g>
<!-- Principle of the bijection -->
<g id="node15" class="node">
<title>Principle of the bijection</title>
<g id="a_node15"><a xlink:href="../Principle of the bijection.html" xlink:title="Principle of the bijection" target="_parent">
<path fill="none" stroke="#b75867" d="M618.5,-665C618.5,-665 488.5,-665 488.5,-665 482.5,-665 476.5,-659 476.5,-653 476.5,-653 476.5,-641 476.5,-641 476.5,-635 482.5,-629 488.5,-629 488.5,-629 618.5,-629 618.5,-629 624.5,-629 630.5,-635 630.5,-641 630.5,-641 630.5,-653 630.5,-653 630.5,-659 624.5,-665 618.5,-665"/>
<text text-anchor="middle" x="553.5" y="-643.9" font-family="sans" font-size="12.00" fill="#c4c7c7">Principle of the bijection</text>
</a>
</g>
</g>
<!-- Set&#45;&gt;Principle of the bijection -->
<g id="edge20" class="edge">
<title>Set&#45;&gt;Principle of the bijection</title>
<path fill="none" stroke="#ffffff" d="M440.27,-623.29C442.2,-623.89 444.12,-624.47 446,-625 455.72,-627.75 466.03,-630.3 476.26,-632.63"/>
<polygon fill="#ffffff" stroke="#ffffff" points="441.25,-619.93 430.66,-620.1 439.05,-626.57 441.25,-619.93"/>
</g>
<!-- Relation of Equivalence&#45;&gt;Class of equivalence -->
<g id="edge21" class="edge">
<title>Relation of Equivalence&#45;&gt;Class of equivalence</title>
<path fill="none" stroke="#b75867" d="M211.91,-554.02C191.09,-554.67 168.26,-555.87 141.34,-558.86"/>
<polygon fill="#b75867" stroke="#b75867" points="140.76,-555.4 131.23,-560.04 141.57,-562.35 140.76,-555.4"/>
</g>
<!-- Relation of Equivalence&#45;&gt;Partition -->
<g id="edge23" class="edge">
<title>Relation of Equivalence&#45;&gt;Partition</title>
<path fill="none" stroke="#b75867" d="M211.93,-566.74C211.77,-566.77 211.6,-566.8 211.44,-566.82"/>
<polygon fill="#b75867" stroke="#b75867" points="213.54,-562.91 204.28,-568.06 214.73,-569.81 213.54,-562.91"/>
</g>
<!-- Relation of Equivalence&#45;&gt;Set -->
<g id="edge22" class="edge">
<title>Relation of Equivalence&#45;&gt;Set</title>
<path fill="none" stroke="#b75867" d="M323.89,-571.04C337.68,-577.87 353.36,-585.64 367.06,-592.44"/>
<polygon fill="#b75867" stroke="#b75867" points="365.67,-595.65 376.19,-596.96 368.78,-589.38 365.67,-595.65"/>
</g>
<!-- Relation of Equivalence&#45;&gt;Principle of division -->
<g id="edge28" class="edge">
<title>Relation of Equivalence&#45;&gt;Principle of division</title>
<path fill="none" stroke="#ffffff" d="M308.73,-579.09C340.95,-619.86 402.2,-702.18 438,-781 443.53,-793.17 436.24,-800.86 446,-810 458.06,-821.29 474.31,-827.44 490.49,-830.63"/>
<polygon fill="#ffffff" stroke="#ffffff" points="311.29,-576.68 302.32,-571.04 305.81,-581.04 311.29,-576.68"/>
</g>
<!-- Relation of Equivalence&#45;&gt;Relations -->
<g id="edge29" class="edge">
<title>Relation of Equivalence&#45;&gt;Relations</title>
<path fill="none" stroke="#ffffff" d="M306.01,-526.47C321.21,-504.41 343.08,-472.03 361,-443 372.33,-424.64 384.43,-403.11 392.62,-388.21"/>
<polygon fill="#ffffff" stroke="#ffffff" points="302.94,-524.75 300.13,-534.97 308.7,-528.73 302.94,-524.75"/>
</g>
<!-- Transitive Relation -->
<g id="node16" class="node">
<title>Transitive Relation</title>
<g id="a_node16"><a xlink:href="../Transitive Relation.html" xlink:title="Transitive Relation" target="_parent">
<path fill="#273434" stroke="#b75867" d="M602,-554C602,-554 505,-554 505,-554 499,-554 493,-548 493,-542 493,-542 493,-530 493,-530 493,-524 499,-518 505,-518 505,-518 602,-518 602,-518 608,-518 614,-524 614,-530 614,-530 614,-542 614,-542 614,-548 608,-554 602,-554"/>
<text text-anchor="middle" x="553.5" y="-532.9" font-family="sans" font-size="12.00" fill="#c4c7c7">Transitive Relation</text>
</a>
</g>
</g>
<!-- Relation of Equivalence&#45;&gt;Transitive Relation -->
<g id="edge24" class="edge">
<title>Relation of Equivalence&#45;&gt;Transitive Relation</title>
<path fill="none" stroke="#b75867" d="M361.32,-548.26C399.25,-545.83 445.23,-542.88 482.59,-540.48"/>
<polygon fill="#b75867" stroke="#b75867" points="483.13,-543.96 492.89,-539.82 482.68,-536.97 483.13,-543.96"/>
</g>
<!-- Symmetric Relation -->
<g id="node17" class="node">
<title>Symmetric Relation</title>
<g id="a_node17"><a xlink:href="../Symmetric Relation.html" xlink:title="Symmetric Relation" target="_parent">
<path fill="#273434" stroke="#b75867" d="M605.5,-517C605.5,-517 501.5,-517 501.5,-517 495.5,-517 489.5,-511 489.5,-505 489.5,-505 489.5,-493 489.5,-493 489.5,-487 495.5,-481 501.5,-481 501.5,-481 605.5,-481 605.5,-481 611.5,-481 617.5,-487 617.5,-493 617.5,-493 617.5,-505 617.5,-505 617.5,-511 611.5,-517 605.5,-517"/>
<text text-anchor="middle" x="553.5" y="-495.9" font-family="sans" font-size="12.00" fill="#c4c7c7">Symmetric Relation</text>
</a>
</g>
</g>
<!-- Relation of Equivalence&#45;&gt;Symmetric Relation -->
<g id="edge25" class="edge">
<title>Relation of Equivalence&#45;&gt;Symmetric Relation</title>
<path fill="none" stroke="#b75867" d="M361.32,-537.96C398.13,-530.46 442.52,-521.41 479.26,-513.92"/>
<polygon fill="#b75867" stroke="#b75867" points="480.31,-517.28 489.41,-511.86 478.91,-510.42 480.31,-517.28"/>
</g>
<!-- Reflexive Relation -->
<g id="node18" class="node">
<title>Reflexive Relation</title>
<g id="a_node18"><a xlink:href="../Reflexive Relation.html" xlink:title="Reflexive Relation" target="_parent">
<path fill="#273434" stroke="#b75867" d="M600,-480C600,-480 507,-480 507,-480 501,-480 495,-474 495,-468 495,-468 495,-456 495,-456 495,-450 501,-444 507,-444 507,-444 600,-444 600,-444 606,-444 612,-450 612,-456 612,-456 612,-468 612,-468 612,-474 606,-480 600,-480"/>
<text text-anchor="middle" x="553.5" y="-458.9" font-family="sans" font-size="12.00" fill="#c4c7c7">Reflexive Relation</text>
</a>
</g>
</g>
<!-- Relation of Equivalence&#45;&gt;Reflexive Relation -->
<g id="edge26" class="edge">
<title>Relation of Equivalence&#45;&gt;Reflexive Relation</title>
<path fill="none" stroke="#b75867" d="M323.19,-534.92C354.79,-519.53 402.52,-497.79 446,-484 458.4,-480.07 471.85,-476.65 484.88,-473.77"/>
<polygon fill="#b75867" stroke="#b75867" points="485.68,-477.18 494.73,-471.67 484.22,-470.33 485.68,-477.18"/>
</g>
<!-- Relation -->
<g id="node19" class="node">
<title>Relation</title>
<g id="a_node19"><a xlink:href="../Relation.html" xlink:title="Relation" target="_parent">
<path fill="#273434" stroke="#b75867" d="M573.5,-369C573.5,-369 533.5,-369 533.5,-369 527.5,-369 521.5,-363 521.5,-357 521.5,-357 521.5,-345 521.5,-345 521.5,-339 527.5,-333 533.5,-333 533.5,-333 573.5,-333 573.5,-333 579.5,-333 585.5,-339 585.5,-345 585.5,-345 585.5,-357 585.5,-357 585.5,-363 579.5,-369 573.5,-369"/>
<text text-anchor="middle" x="553.5" y="-347.9" font-family="sans" font-size="12.00" fill="#c4c7c7">Relation</text>
</a>
</g>
</g>
<!-- Relation of Equivalence&#45;&gt;Relation -->
<g id="edge27" class="edge">
<title>Relation of Equivalence&#45;&gt;Relation</title>
<path fill="none" stroke="#b75867" d="M307,-534.78C337.43,-505.7 396.97,-446.12 438,-388 442.36,-381.83 439.95,-377.53 446,-373 464.58,-359.1 489.86,-353.48 511.13,-351.39"/>
<polygon fill="#b75867" stroke="#b75867" points="511.5,-354.87 521.2,-350.62 510.97,-347.89 511.5,-354.87"/>
</g>
<!-- Principle of division&#45;&gt;Class of equivalence -->
<g id="edge30" class="edge">
<title>Principle of division&#45;&gt;Class of equivalence</title>
<path fill="none" stroke="#b75867" d="M490.3,-823.98C475.48,-820.82 459.93,-816.58 446,-811 305.16,-754.59 158.33,-646.3 96.62,-597.69"/>
<polygon fill="#b75867" stroke="#b75867" points="98.5,-594.71 88.49,-591.23 94.15,-600.19 98.5,-594.71"/>
</g>
<!-- Principle of division&#45;&gt;Set -->
<g id="edge32" class="edge">
<title>Principle of division&#45;&gt;Set</title>
<path fill="none" stroke="#b75867" d="M490.28,-833.09C473.71,-830.04 457.3,-823.57 446,-811 433.76,-797.38 441.4,-746.99 438,-729 432,-697.28 421.36,-661.76 413.68,-637.85"/>
<polygon fill="#b75867" stroke="#b75867" points="416.91,-636.47 410.49,-628.04 410.26,-638.64 416.91,-636.47"/>
</g>
<!-- Principle of division&#45;&gt;Relation of Equivalence -->
<g id="edge31" class="edge">
<title>Principle of division&#45;&gt;Relation of Equivalence</title>
<path fill="none" stroke="#b75867" d="M490.49,-831.59C474.31,-828.44 458.06,-822.29 446,-811 436.24,-801.86 443.53,-794.17 438,-782 402.02,-702.78 340.32,-620.01 308.24,-579.1"/>
<polygon fill="#b75867" stroke="#b75867" points="310.81,-576.7 301.87,-571.02 305.31,-581.04 310.81,-576.7"/>
</g>
<!-- Combinatoric principles -->
<g id="node20" class="node">
<title>Combinatoric principles</title>
<g id="a_node20"><a xlink:href="../Combinatoric principles.html" xlink:title="Combinatoric principles" target="_parent">
<path fill="none" stroke="#b75867" d="M808,-850C808,-850 681,-850 681,-850 675,-850 669,-844 669,-838 669,-838 669,-826 669,-826 669,-820 675,-814 681,-814 681,-814 808,-814 808,-814 814,-814 820,-820 820,-826 820,-826 820,-838 820,-838 820,-844 814,-850 808,-850"/>
<text text-anchor="middle" x="744.5" y="-828.9" font-family="sans" font-size="12.00" fill="#c4c7c7">Combinatoric principles</text>
</a>
</g>
</g>
<!-- Principle of division&#45;&gt;Combinatoric principles -->
<g id="edge33" class="edge">
<title>Principle of division&#45;&gt;Combinatoric principles</title>
<path fill="none" stroke="#ffffff" d="M626.98,-832C640.68,-832 655.04,-832 668.81,-832"/>
<polygon fill="#ffffff" stroke="#ffffff" points="626.65,-828.5 616.65,-832 626.65,-835.5 626.65,-828.5"/>
</g>
<!-- Relations&#45;&gt;Class of equivalence -->
<g id="edge38" class="edge">
<title>Relations&#45;&gt;Class of equivalence</title>
<path fill="none" stroke="#b75867" d="M373.42,-388.01C313.11,-424.84 174.31,-508.72 105.97,-549.66"/>
<polygon fill="#b75867" stroke="#b75867" points="103.99,-546.76 97.21,-554.9 107.59,-552.77 103.99,-546.76"/>
</g>
<!-- Relations&#45;&gt;Relation of Equivalence -->
<g id="edge39" class="edge">
<title>Relations&#45;&gt;Relation of Equivalence</title>
<path fill="none" stroke="#b75867" d="M393.12,-388.11C384.92,-403.24 372.56,-425.27 361,-444 343.29,-472.69 321.73,-504.64 306.55,-526.49"/>
<polygon fill="#b75867" stroke="#b75867" points="303.53,-524.71 300.67,-534.92 309.26,-528.72 303.53,-524.71"/>
</g>
<!-- Relations&#45;&gt;Reflexive Closure -->
<g id="edge42" class="edge">
<title>Relations&#45;&gt;Reflexive Closure</title>
<path fill="none" stroke="#b75867" d="M438.08,-374.08C452.49,-375.84 469.85,-377.95 486.64,-379.99"/>
<polygon fill="#b75867" stroke="#b75867" points="486.64,-383.52 496.99,-381.25 487.48,-376.57 486.64,-383.52"/>
</g>
<!-- Relations&#45;&gt;Reflexive Closure -->
<g id="edge45" class="edge">
<title>Relations&#45;&gt;Reflexive Closure</title>
<path fill="none" stroke="#b75867" d="M438.08,-374.72C452.49,-376.56 469.85,-378.71 486.64,-380.74"/>
<polygon fill="#b75867" stroke="#b75867" points="486.64,-384.26 496.99,-381.98 487.48,-377.31 486.64,-384.26"/>
</g>
<!-- Relations&#45;&gt;Symmetric Closure -->
<g id="edge41" class="edge">
<title>Relations&#45;&gt;Symmetric Closure</title>
<path fill="none" stroke="#b75867" d="M423.49,-388.17C430.16,-393.68 438,-399.25 446,-403 457.2,-408.24 469.64,-412.24 481.95,-415.29"/>
<polygon fill="#b75867" stroke="#b75867" points="481.24,-418.72 491.77,-417.54 482.8,-411.9 481.24,-418.72"/>
</g>
<!-- Relations&#45;&gt;Symmetric Closure -->
<g id="edge43" class="edge">
<title>Relations&#45;&gt;Symmetric Closure</title>
<path fill="none" stroke="#b75867" d="M422.25,-388.07C429.18,-393.97 437.5,-400.02 446,-404 457.2,-409.24 469.64,-413.24 481.95,-416.27"/>
<polygon fill="#b75867" stroke="#b75867" points="481.24,-419.7 491.77,-418.5 482.79,-412.88 481.24,-419.7"/>
</g>
<!-- Relations&#45;&gt;Transitive Relation -->
<g id="edge46" class="edge">
<title>Relations&#45;&gt;Transitive Relation</title>
<path fill="none" stroke="#b75867" d="M404.13,-388.05C404.55,-418.69 410.11,-480.77 446,-514 456.2,-523.44 469.34,-529.28 482.89,-532.79"/>
<polygon fill="#b75867" stroke="#b75867" points="482.27,-536.24 492.79,-534.96 483.77,-529.4 482.27,-536.24"/>
</g>
<!-- Relations&#45;&gt;Symmetric Relation -->
<g id="edge49" class="edge">
<title>Relations&#45;&gt;Symmetric Relation</title>
<path fill="none" stroke="#b75867" d="M406.28,-388.18C409.65,-412.27 419.23,-454.35 446,-477 455.55,-485.08 467.3,-490.46 479.46,-493.98"/>
<polygon fill="#b75867" stroke="#b75867" points="478.72,-497.4 489.27,-496.42 480.41,-490.61 478.72,-497.4"/>
</g>
<!-- Relations&#45;&gt;Reflexive Relation -->
<g id="edge51" class="edge">
<title>Relations&#45;&gt;Reflexive Relation</title>
<path fill="none" stroke="#b75867" d="M410.46,-388.15C416.72,-404.3 428.17,-427.28 446,-440 457.38,-448.12 471.08,-453.38 484.81,-456.76"/>
<polygon fill="#b75867" stroke="#b75867" points="484.27,-460.22 494.79,-458.9 485.74,-453.38 484.27,-460.22"/>
</g>
<!-- Relations&#45;&gt;Relation -->
<g id="edge52" class="edge">
<title>Relations&#45;&gt;Relation</title>
<path fill="none" stroke="#b75867" d="M438.08,-365.69C459.68,-362.92 487.9,-359.29 510.91,-356.34"/>
<polygon fill="#b75867" stroke="#b75867" points="511.6,-359.78 521.07,-355.03 510.71,-352.84 511.6,-359.78"/>
</g>
<!-- Chain -->
<g id="node21" class="node">
<title>Chain</title>
<g id="a_node21"><a xlink:href="../Chain.html" xlink:title="Chain" target="_parent">
<path fill="#273434" stroke="#b75867" d="M568.5,-110C568.5,-110 538.5,-110 538.5,-110 532.5,-110 526.5,-104 526.5,-98 526.5,-98 526.5,-86 526.5,-86 526.5,-80 532.5,-74 538.5,-74 538.5,-74 568.5,-74 568.5,-74 574.5,-74 580.5,-80 580.5,-86 580.5,-86 580.5,-98 580.5,-98 580.5,-104 574.5,-110 568.5,-110"/>
<text text-anchor="middle" x="553.5" y="-88.9" font-family="sans" font-size="12.00" fill="#c4c7c7">Chain</text>
</a>
</g>
</g>
<!-- Relations&#45;&gt;Chain -->
<g id="edge34" class="edge">
<title>Relations&#45;&gt;Chain</title>
<path fill="none" stroke="#b75867" d="M404.86,-351.86C406.29,-299.25 413.22,-148.22 446,-114 463.78,-95.44 492.77,-90.4 516.02,-89.75"/>
<polygon fill="#b75867" stroke="#b75867" points="516.24,-93.24 526.24,-89.72 516.23,-86.24 516.24,-93.24"/>
</g>
<!-- Linear extension -->
<g id="node22" class="node">
<title>Linear extension</title>
<g id="a_node22"><a xlink:href="../Linear extension.html" xlink:title="Linear extension" target="_parent">
<path fill="#273434" stroke="#b75867" d="M596.5,-73C596.5,-73 510.5,-73 510.5,-73 504.5,-73 498.5,-67 498.5,-61 498.5,-61 498.5,-49 498.5,-49 498.5,-43 504.5,-37 510.5,-37 510.5,-37 596.5,-37 596.5,-37 602.5,-37 608.5,-43 608.5,-49 608.5,-49 608.5,-61 608.5,-61 608.5,-67 602.5,-73 596.5,-73"/>
<text text-anchor="middle" x="553.5" y="-51.9" font-family="sans" font-size="12.00" fill="#c4c7c7">Linear extension</text>
</a>
</g>
</g>
<!-- Relations&#45;&gt;Linear extension -->
<g id="edge35" class="edge">
<title>Relations&#45;&gt;Linear extension</title>
<path fill="none" stroke="#b75867" d="M404.45,-351.76C404.67,-294.07 408.46,-116.98 446,-77 456.97,-65.31 472.38,-58.96 488.08,-55.69"/>
<polygon fill="#b75867" stroke="#b75867" points="489.11,-59.06 498.39,-53.95 487.95,-52.16 489.11,-59.06"/>
</g>
<!-- Linear order -->
<g id="node23" class="node">
<title>Linear order</title>
<g id="a_node23"><a xlink:href="../Linear order.html" xlink:title="Linear order" target="_parent">
<path fill="#273434" stroke="#b75867" d="M584.5,-36C584.5,-36 522.5,-36 522.5,-36 516.5,-36 510.5,-30 510.5,-24 510.5,-24 510.5,-12 510.5,-12 510.5,-6 516.5,0 522.5,0 522.5,0 584.5,0 584.5,0 590.5,0 596.5,-6 596.5,-12 596.5,-12 596.5,-24 596.5,-24 596.5,-30 590.5,-36 584.5,-36"/>
<text text-anchor="middle" x="553.5" y="-14.9" font-family="sans" font-size="12.00" fill="#c4c7c7">Linear order</text>
</a>
</g>
</g>
<!-- Relations&#45;&gt;Linear order -->
<g id="edge36" class="edge">
<title>Relations&#45;&gt;Linear order</title>
<path fill="none" stroke="#b75867" d="M404.12,-351.7C403.23,-289.24 403.67,-85.8 446,-40 459.75,-25.12 480.68,-18.85 500.36,-16.59"/>
<polygon fill="#b75867" stroke="#b75867" points="500.82,-20.06 510.49,-15.74 500.24,-13.09 500.82,-20.06"/>
</g>
<!-- Partial order -->
<g id="node24" class="node">
<title>Partial order</title>
<g id="a_node24"><a xlink:href="../Partial order.html" xlink:title="Partial order" target="_parent">
<path fill="#273434" stroke="#b75867" d="M584.5,-332C584.5,-332 522.5,-332 522.5,-332 516.5,-332 510.5,-326 510.5,-320 510.5,-320 510.5,-308 510.5,-308 510.5,-302 516.5,-296 522.5,-296 522.5,-296 584.5,-296 584.5,-296 590.5,-296 596.5,-302 596.5,-308 596.5,-308 596.5,-320 596.5,-320 596.5,-326 590.5,-332 584.5,-332"/>
<text text-anchor="middle" x="553.5" y="-310.9" font-family="sans" font-size="12.00" fill="#c4c7c7">Partial order</text>
</a>
</g>
</g>
<!-- Relations&#45;&gt;Partial order -->
<g id="edge37" class="edge">
<title>Relations&#45;&gt;Partial order</title>
<path fill="none" stroke="#b75867" d="M422.58,-351.98C429.42,-346.07 437.59,-340.01 446,-336 462.74,-328.02 482.31,-322.92 500.08,-319.67"/>
<polygon fill="#b75867" stroke="#b75867" points="501.01,-323.06 510.29,-317.96 499.85,-316.16 501.01,-323.06"/>
</g>
<!-- Transitive Closure -->
<g id="node25" class="node">
<title>Transitive Closure</title>
<g id="a_node25"><a xlink:href="../Transitive Closure.html" xlink:title="Transitive Closure" target="_parent">
<path fill="#273434" stroke="#b75867" d="M599.5,-295C599.5,-295 507.5,-295 507.5,-295 501.5,-295 495.5,-289 495.5,-283 495.5,-283 495.5,-271 495.5,-271 495.5,-265 501.5,-259 507.5,-259 507.5,-259 599.5,-259 599.5,-259 605.5,-259 611.5,-265 611.5,-271 611.5,-271 611.5,-283 611.5,-283 611.5,-289 605.5,-295 599.5,-295"/>
<text text-anchor="middle" x="553.5" y="-273.9" font-family="sans" font-size="12.00" fill="#c4c7c7">Transitive Closure</text>
</a>
</g>
</g>
<!-- Relations&#45;&gt;Transitive Closure -->
<g id="edge40" class="edge">
<title>Relations&#45;&gt;Transitive Closure</title>
<path fill="none" stroke="#b75867" d="M410.27,-351.91C416.46,-335.51 427.91,-311.99 446,-299 457.48,-290.76 471.34,-285.46 485.22,-282.08"/>
<polygon fill="#b75867" stroke="#b75867" points="486.24,-285.44 495.3,-279.94 484.79,-278.59 486.24,-285.44"/>
</g>
<!-- Relations&#45;&gt;Transitive Closure -->
<g id="edge44" class="edge">
<title>Relations&#45;&gt;Transitive Closure</title>
<path fill="none" stroke="#b75867" d="M410.63,-351.74C416.9,-335.61 428.26,-312.74 446,-300 457.48,-291.76 471.34,-286.46 485.22,-283.05"/>
<polygon fill="#b75867" stroke="#b75867" points="486.25,-286.41 495.3,-280.9 484.79,-279.57 486.25,-286.41"/>
</g>
<!-- Strongly Anti&#45;symmetric Relation -->
<g id="node26" class="node">
<title>Strongly Anti&#45;symmetric Relation</title>
<g id="a_node26"><a xlink:href="../Strongly Anti-symmetric Relation.html" xlink:title="Strongly Anti&#45;symmetric Relation" target="_parent">
<path fill="#273434" stroke="#b75867" d="M643,-258C643,-258 464,-258 464,-258 458,-258 452,-252 452,-246 452,-246 452,-234 452,-234 452,-228 458,-222 464,-222 464,-222 643,-222 643,-222 649,-222 655,-228 655,-234 655,-234 655,-246 655,-246 655,-252 649,-258 643,-258"/>
<text text-anchor="middle" x="553.5" y="-236.9" font-family="sans" font-size="12.00" fill="#c4c7c7">Strongly Anti&#45;symmetric Relation</text>
</a>
</g>
</g>
<!-- Relations&#45;&gt;Strongly Anti&#45;symmetric Relation -->
<g id="edge47" class="edge">
<title>Relations&#45;&gt;Strongly Anti&#45;symmetric Relation</title>
<path fill="none" stroke="#b75867" d="M406.23,-351.65C409.27,-329.34 417.53,-291.72 444.24,-264.56"/>
<polygon fill="#b75867" stroke="#b75867" points="446.87,-266.89 451.85,-257.54 442.13,-261.74 446.87,-266.89"/>
</g>
<!-- Anti&#45;symmetric Relation -->
<g id="node27" class="node">
<title>Anti&#45;symmetric Relation</title>
<g id="a_node27"><a xlink:href="../Anti-symmetric Relation.html" xlink:title="Anti&#45;symmetric Relation" target="_parent">
<path fill="#273434" stroke="#b75867" d="M617.5,-221C617.5,-221 489.5,-221 489.5,-221 483.5,-221 477.5,-215 477.5,-209 477.5,-209 477.5,-197 477.5,-197 477.5,-191 483.5,-185 489.5,-185 489.5,-185 617.5,-185 617.5,-185 623.5,-185 629.5,-191 629.5,-197 629.5,-197 629.5,-209 629.5,-209 629.5,-215 623.5,-221 617.5,-221"/>
<text text-anchor="middle" x="553.5" y="-199.9" font-family="sans" font-size="12.00" fill="#c4c7c7">Anti&#45;symmetric Relation</text>
</a>
</g>
</g>
<!-- Relations&#45;&gt;Anti&#45;symmetric Relation -->
<g id="edge48" class="edge">
<title>Relations&#45;&gt;Anti&#45;symmetric Relation</title>
<path fill="none" stroke="#b75867" d="M404.09,-351.83C404.45,-320.98 409.91,-258.48 446,-225 452.32,-219.14 459.77,-214.67 467.75,-211.28"/>
<polygon fill="#b75867" stroke="#b75867" points="469.13,-214.5 477.32,-207.78 466.72,-207.93 469.13,-214.5"/>
</g>
<!-- Anti&#45;reflexive relation -->
<g id="node28" class="node">
<title>Anti&#45;reflexive relation</title>
<g id="a_node28"><a xlink:href="../Anti-reflexive relation.html" xlink:title="Anti&#45;reflexive relation" target="_parent">
<path fill="#273434" stroke="#b75867" d="M610.5,-184C610.5,-184 496.5,-184 496.5,-184 490.5,-184 484.5,-178 484.5,-172 484.5,-172 484.5,-160 484.5,-160 484.5,-154 490.5,-148 496.5,-148 496.5,-148 610.5,-148 610.5,-148 616.5,-148 622.5,-154 622.5,-160 622.5,-160 622.5,-172 622.5,-172 622.5,-178 616.5,-184 610.5,-184"/>
<text text-anchor="middle" x="553.5" y="-162.9" font-family="sans" font-size="12.00" fill="#c4c7c7">Anti&#45;reflexive relation</text>
</a>
</g>
</g>
<!-- Relations&#45;&gt;Anti&#45;reflexive relation -->
<g id="edge50" class="edge">
<title>Relations&#45;&gt;Anti&#45;reflexive relation</title>
<path fill="none" stroke="#b75867" d="M406.17,-351.87C410.36,-310.49 422.68,-210.85 446,-188 453.95,-180.21 463.89,-174.84 474.47,-171.19"/>
<polygon fill="#b75867" stroke="#b75867" points="475.73,-174.47 484.34,-168.3 473.76,-167.75 475.73,-174.47"/>
</g>
<!-- Discrete Structures -->
<g id="node29" class="node">
<title>Discrete Structures</title>
<g id="a_node29"><a xlink:href="../Discrete Structures.html" xlink:title="Discrete Structures" target="_parent">
<path fill="none" stroke="#b75867" d="M602.5,-147C602.5,-147 504.5,-147 504.5,-147 498.5,-147 492.5,-141 492.5,-135 492.5,-135 492.5,-123 492.5,-123 492.5,-117 498.5,-111 504.5,-111 504.5,-111 602.5,-111 602.5,-111 608.5,-111 614.5,-117 614.5,-123 614.5,-123 614.5,-135 614.5,-135 614.5,-141 608.5,-147 602.5,-147"/>
<text text-anchor="middle" x="553.5" y="-125.9" font-family="sans" font-size="12.00" fill="#c4c7c7">Discrete Structures</text>
</a>
</g>
</g>
<!-- Relations&#45;&gt;Discrete Structures -->
<g id="edge53" class="edge">
<title>Relations&#45;&gt;Discrete Structures</title>
<path fill="none" stroke="#ffffff" d="M406.03,-341.73C409.5,-288.8 419.79,-177.65 446,-151 458.18,-138.62 475.36,-132.29 492.37,-129.27"/>
<polygon fill="#ffffff" stroke="#ffffff" points="402.54,-341.6 405.41,-351.8 409.52,-342.03 402.54,-341.6"/>
</g>
</g>
</svg>
