<?xml version="1.0" encoding="UTF-8" standalone="no"?>
<!DOCTYPE svg PUBLIC "-//W3C//DTD SVG 1.1//EN"
 "http://www.w3.org/Graphics/SVG/1.1/DTD/svg11.dtd">
<!-- Generated by graphviz version 2.44.0 (0)
 -->
<!-- Title: Discrete Structures Pages: 1 -->
<svg width="521pt" height="1561pt"
 viewBox="0.00 0.00 521.00 1561.00" xmlns="http://www.w3.org/2000/svg" xmlns:xlink="http://www.w3.org/1999/xlink">
<g id="graph0" class="graph" transform="scale(1 1) rotate(0) translate(4 1557)">
<title>Discrete Structures</title>
<polygon fill="#132020" stroke="transparent" points="-4,4 -4,-1557 517,-1557 517,4 -4,4"/>
<!-- Discrete Structures -->
<g id="node1" class="node">
<title>Discrete Structures</title>
<g id="a_node1"><a xlink:href="/Knowledge/Discrete Structures.html" xlink:title="Discrete Structures" target="_parent">
<path fill="#273434" stroke="#b75867" d="M110,-1016C110,-1016 12,-1016 12,-1016 6,-1016 0,-1010 0,-1004 0,-1004 0,-992 0,-992 0,-986 6,-980 12,-980 12,-980 110,-980 110,-980 116,-980 122,-986 122,-992 122,-992 122,-1004 122,-1004 122,-1010 116,-1016 110,-1016"/>
<text text-anchor="middle" x="61" y="-994.9" font-family="sans" font-size="12.00" fill="#c4c7c7">Discrete Structures</text>
</a>
</g>
</g>
<!-- Recurrent Equations -->
<g id="node2" class="node">
<title>Recurrent Equations</title>
<g id="a_node2"><a xlink:href="/Knowledge/Recurrent Equations.html" xlink:title="Recurrent Equations" target="_parent">
<path fill="#273434" stroke="#b75867" d="M250,-1442C250,-1442 143,-1442 143,-1442 137,-1442 131,-1436 131,-1430 131,-1430 131,-1418 131,-1418 131,-1412 137,-1406 143,-1406 143,-1406 250,-1406 250,-1406 256,-1406 262,-1412 262,-1418 262,-1418 262,-1430 262,-1430 262,-1436 256,-1442 250,-1442"/>
<text text-anchor="middle" x="196.5" y="-1420.9" font-family="sans" font-size="12.00" fill="#c4c7c7">Recurrent Equations</text>
</a>
</g>
</g>
<!-- Discrete Structures&#45;&gt;Recurrent Equations -->
<g id="edge1" class="edge">
<title>Discrete Structures&#45;&gt;Recurrent Equations</title>
<path fill="none" stroke="#b75867" d="M67.65,-1016.03C88.5,-1082.57 161.22,-1314.61 186.64,-1395.74"/>
<polygon fill="#b75867" stroke="#b75867" points="183.44,-1397.23 189.77,-1405.72 190.12,-1395.14 183.44,-1397.23"/>
</g>
<!-- Combinatorics -->
<g id="node3" class="node">
<title>Combinatorics</title>
<g id="a_node3"><a xlink:href="/Knowledge/Combinatorics.html" xlink:title="Combinatorics" target="_parent">
<path fill="#273434" stroke="#b75867" d="M233.5,-1109C233.5,-1109 159.5,-1109 159.5,-1109 153.5,-1109 147.5,-1103 147.5,-1097 147.5,-1097 147.5,-1085 147.5,-1085 147.5,-1079 153.5,-1073 159.5,-1073 159.5,-1073 233.5,-1073 233.5,-1073 239.5,-1073 245.5,-1079 245.5,-1085 245.5,-1085 245.5,-1097 245.5,-1097 245.5,-1103 239.5,-1109 233.5,-1109"/>
<text text-anchor="middle" x="196.5" y="-1087.9" font-family="sans" font-size="12.00" fill="#c4c7c7">Combinatorics</text>
</a>
</g>
</g>
<!-- Discrete Structures&#45;&gt;Combinatorics -->
<g id="edge2" class="edge">
<title>Discrete Structures&#45;&gt;Combinatorics</title>
<path fill="none" stroke="#b75867" d="M75.21,-1016.12C87.71,-1032.08 107.81,-1054.92 130,-1069 132.6,-1070.65 135.34,-1072.19 138.16,-1073.63"/>
<polygon fill="#b75867" stroke="#b75867" points="136.84,-1076.87 147.39,-1077.87 139.76,-1070.51 136.84,-1076.87"/>
</g>
<!-- Functions -->
<g id="node4" class="node">
<title>Functions</title>
<g id="a_node4"><a xlink:href="/Knowledge/Functions.html" xlink:title="Functions" target="_parent">
<path fill="#273434" stroke="#b75867" d="M220.5,-1072C220.5,-1072 172.5,-1072 172.5,-1072 166.5,-1072 160.5,-1066 160.5,-1060 160.5,-1060 160.5,-1048 160.5,-1048 160.5,-1042 166.5,-1036 172.5,-1036 172.5,-1036 220.5,-1036 220.5,-1036 226.5,-1036 232.5,-1042 232.5,-1048 232.5,-1048 232.5,-1060 232.5,-1060 232.5,-1066 226.5,-1072 220.5,-1072"/>
<text text-anchor="middle" x="196.5" y="-1050.9" font-family="sans" font-size="12.00" fill="#c4c7c7">Functions</text>
</a>
</g>
</g>
<!-- Discrete Structures&#45;&gt;Functions -->
<g id="edge3" class="edge">
<title>Discrete Structures&#45;&gt;Functions</title>
<path fill="none" stroke="#b75867" d="M95.81,-1016.07C106.59,-1021.51 118.66,-1027.29 130,-1032 136.7,-1034.78 143.89,-1037.48 150.97,-1039.98"/>
<polygon fill="#b75867" stroke="#b75867" points="149.9,-1043.31 160.49,-1043.25 152.17,-1036.69 149.9,-1043.31"/>
</g>
<!-- Relations -->
<g id="node5" class="node">
<title>Relations</title>
<g id="a_node5"><a xlink:href="/Knowledge/Relations.html" xlink:title="Relations" target="_parent">
<path fill="#273434" stroke="#b75867" d="M219,-1035C219,-1035 174,-1035 174,-1035 168,-1035 162,-1029 162,-1023 162,-1023 162,-1011 162,-1011 162,-1005 168,-999 174,-999 174,-999 219,-999 219,-999 225,-999 231,-1005 231,-1011 231,-1011 231,-1023 231,-1023 231,-1029 225,-1035 219,-1035"/>
<text text-anchor="middle" x="196.5" y="-1013.9" font-family="sans" font-size="12.00" fill="#c4c7c7">Relations</text>
</a>
</g>
</g>
<!-- Discrete Structures&#45;&gt;Relations -->
<g id="edge4" class="edge">
<title>Discrete Structures&#45;&gt;Relations</title>
<path fill="none" stroke="#b75867" d="M122.11,-1006.56C132.07,-1007.97 142.23,-1009.42 151.69,-1010.77"/>
<polygon fill="#b75867" stroke="#b75867" points="151.25,-1014.24 161.64,-1012.18 152.24,-1007.31 151.25,-1014.24"/>
</g>
<!-- Logical Equivalences -->
<g id="node6" class="node">
<title>Logical Equivalences</title>
<g id="a_node6"><a xlink:href="/Knowledge/Logical Equivalences.html" xlink:title="Logical Equivalences" target="_parent">
<path fill="#273434" stroke="#b75867" d="M251,-998C251,-998 142,-998 142,-998 136,-998 130,-992 130,-986 130,-986 130,-974 130,-974 130,-968 136,-962 142,-962 142,-962 251,-962 251,-962 257,-962 263,-968 263,-974 263,-974 263,-986 263,-986 263,-992 257,-998 251,-998"/>
<text text-anchor="middle" x="196.5" y="-976.9" font-family="sans" font-size="12.00" fill="#c4c7c7">Logical Equivalences</text>
</a>
</g>
</g>
<!-- Discrete Structures&#45;&gt;Logical Equivalences -->
<g id="edge5" class="edge">
<title>Discrete Structures&#45;&gt;Logical Equivalences</title>
<path fill="none" stroke="#b75867" d="M122.11,-989.9C122.27,-989.87 122.42,-989.85 122.58,-989.83"/>
<polygon fill="#b75867" stroke="#b75867" points="120.17,-993.69 129.61,-988.88 119.23,-986.75 120.17,-993.69"/>
</g>
<!-- Logical Operators -->
<g id="node7" class="node">
<title>Logical Operators</title>
<g id="a_node7"><a xlink:href="/Knowledge/Logical Operators.html" xlink:title="Logical Operators" target="_parent">
<path fill="#273434" stroke="#b75867" d="M242.5,-961C242.5,-961 150.5,-961 150.5,-961 144.5,-961 138.5,-955 138.5,-949 138.5,-949 138.5,-937 138.5,-937 138.5,-931 144.5,-925 150.5,-925 150.5,-925 242.5,-925 242.5,-925 248.5,-925 254.5,-931 254.5,-937 254.5,-937 254.5,-949 254.5,-949 254.5,-955 248.5,-961 242.5,-961"/>
<text text-anchor="middle" x="196.5" y="-939.9" font-family="sans" font-size="12.00" fill="#c4c7c7">Logical Operators</text>
</a>
</g>
</g>
<!-- Discrete Structures&#45;&gt;Logical Operators -->
<g id="edge6" class="edge">
<title>Discrete Structures&#45;&gt;Logical Operators</title>
<path fill="none" stroke="#b75867" d="M97.26,-979.83C107.68,-974.75 119.19,-969.42 130,-965 130.2,-964.92 130.4,-964.84 130.61,-964.75"/>
<polygon fill="#b75867" stroke="#b75867" points="131.89,-968.01 139.93,-961.11 129.34,-961.49 131.89,-968.01"/>
</g>
<!-- Subjects -->
<g id="node8" class="node">
<title>Subjects</title>
<g id="a_node8"><a xlink:href="/Knowledge/Subjects.html" xlink:title="Subjects" target="_parent">
<path fill="none" stroke="#b75867" d="M217,-647C217,-647 176,-647 176,-647 170,-647 164,-641 164,-635 164,-635 164,-623 164,-623 164,-617 170,-611 176,-611 176,-611 217,-611 217,-611 223,-611 229,-617 229,-623 229,-623 229,-635 229,-635 229,-641 223,-647 217,-647"/>
<text text-anchor="middle" x="196.5" y="-625.9" font-family="sans" font-size="12.00" fill="#c4c7c7">Subjects</text>
</a>
</g>
</g>
<!-- Discrete Structures&#45;&gt;Subjects -->
<g id="edge7" class="edge">
<title>Discrete Structures&#45;&gt;Subjects</title>
<path fill="none" stroke="#ffffff" d="M72.05,-970.22C98.13,-898.15 167.4,-706.68 188.98,-647.01"/>
<polygon fill="#ffffff" stroke="#ffffff" points="68.64,-969.36 68.53,-979.95 75.22,-971.74 68.64,-969.36"/>
</g>
<!-- Knowledege Base -->
<g id="node9" class="node">
<title>Knowledege Base</title>
<g id="a_node9"><a xlink:href="/Knowledge/Knowledege Base.html" xlink:title="Knowledege Base" target="_parent">
<path fill="none" stroke="#b75867" d="M243,-388C243,-388 150,-388 150,-388 144,-388 138,-382 138,-376 138,-376 138,-364 138,-364 138,-358 144,-352 150,-352 150,-352 243,-352 243,-352 249,-352 255,-358 255,-364 255,-364 255,-376 255,-376 255,-382 249,-388 243,-388"/>
<text text-anchor="middle" x="196.5" y="-366.9" font-family="sans" font-size="12.00" fill="#c4c7c7">Knowledege Base</text>
</a>
</g>
</g>
<!-- Discrete Structures&#45;&gt;Knowledege Base -->
<g id="edge8" class="edge">
<title>Discrete Structures&#45;&gt;Knowledege Base</title>
<path fill="none" stroke="#ffffff" d="M66.08,-969.6C75.51,-905.35 100.28,-744.11 130,-611 148.75,-527 177.8,-428.37 189.91,-388.3"/>
<polygon fill="#ffffff" stroke="#ffffff" points="62.58,-969.35 64.6,-979.75 69.51,-970.36 62.58,-969.35"/>
</g>
<!-- Recurrent Equations&#45;&gt;Discrete Structures -->
<g id="edge13" class="edge">
<title>Recurrent Equations&#45;&gt;Discrete Structures</title>
<path fill="none" stroke="#ffffff" d="M186.45,-1395.52C160.82,-1314.22 88.25,-1082.63 67.57,-1016.09"/>
<polygon fill="#ffffff" stroke="#ffffff" points="183.26,-1397.05 189.61,-1405.54 189.94,-1394.95 183.26,-1397.05"/>
</g>
<!-- Set -->
<g id="node10" class="node">
<title>Set</title>
<g id="a_node10"><a xlink:href="/Knowledge/Set.html" xlink:title="Set" target="_parent">
<path fill="#273434" stroke="#b75867" d="M407,-1516C407,-1516 377,-1516 377,-1516 371,-1516 365,-1510 365,-1504 365,-1504 365,-1492 365,-1492 365,-1486 371,-1480 377,-1480 377,-1480 407,-1480 407,-1480 413,-1480 419,-1486 419,-1492 419,-1492 419,-1504 419,-1504 419,-1510 413,-1516 407,-1516"/>
<text text-anchor="middle" x="392" y="-1494.9" font-family="sans" font-size="12.00" fill="#c4c7c7">Set</text>
</a>
</g>
</g>
<!-- Recurrent Equations&#45;&gt;Set -->
<g id="edge9" class="edge">
<title>Recurrent Equations&#45;&gt;Set</title>
<path fill="none" stroke="#b75867" d="M217.89,-1442.13C231.89,-1453.59 251.41,-1467.75 271,-1476 297.7,-1487.24 330.12,-1492.75 354.53,-1495.44"/>
<polygon fill="#b75867" stroke="#b75867" points="354.49,-1498.96 364.79,-1496.46 355.19,-1491.99 354.49,-1498.96"/>
</g>
<!-- Multiset -->
<g id="node11" class="node">
<title>Multiset</title>
<g id="a_node11"><a xlink:href="/Knowledge/Multiset.html" xlink:title="Multiset" target="_parent">
<path fill="#273434" stroke="#b75867" d="M411,-1479C411,-1479 373,-1479 373,-1479 367,-1479 361,-1473 361,-1467 361,-1467 361,-1455 361,-1455 361,-1449 367,-1443 373,-1443 373,-1443 411,-1443 411,-1443 417,-1443 423,-1449 423,-1455 423,-1455 423,-1467 423,-1467 423,-1473 417,-1479 411,-1479"/>
<text text-anchor="middle" x="392" y="-1457.9" font-family="sans" font-size="12.00" fill="#c4c7c7">Multiset</text>
</a>
</g>
</g>
<!-- Recurrent Equations&#45;&gt;Multiset -->
<g id="edge10" class="edge">
<title>Recurrent Equations&#45;&gt;Multiset</title>
<path fill="none" stroke="#b75867" d="M262.02,-1437.24C265.05,-1437.84 268.06,-1438.43 271,-1439 297.63,-1444.16 327.64,-1449.66 350.99,-1453.87"/>
<polygon fill="#b75867" stroke="#b75867" points="350.42,-1457.33 360.89,-1455.65 351.66,-1450.44 350.42,-1457.33"/>
</g>
<!-- Fundamental Theorem of Algebra -->
<g id="node12" class="node">
<title>Fundamental Theorem of Algebra</title>
<g id="a_node12"><a xlink:href="/Knowledge/Fundamental Theorem of Algebra.html" xlink:title="Fundamental Theorem of Algebra" target="_parent">
<path fill="#273434" stroke="#b75867" d="M484.5,-1442C484.5,-1442 299.5,-1442 299.5,-1442 293.5,-1442 287.5,-1436 287.5,-1430 287.5,-1430 287.5,-1418 287.5,-1418 287.5,-1412 293.5,-1406 299.5,-1406 299.5,-1406 484.5,-1406 484.5,-1406 490.5,-1406 496.5,-1412 496.5,-1418 496.5,-1418 496.5,-1430 496.5,-1430 496.5,-1436 490.5,-1442 484.5,-1442"/>
<text text-anchor="middle" x="392" y="-1420.9" font-family="sans" font-size="12.00" fill="#c4c7c7">Fundamental Theorem of Algebra</text>
</a>
</g>
</g>
<!-- Recurrent Equations&#45;&gt;Fundamental Theorem of Algebra -->
<g id="edge11" class="edge">
<title>Recurrent Equations&#45;&gt;Fundamental Theorem of Algebra</title>
<path fill="none" stroke="#b75867" d="M262.2,-1424C267.03,-1424 271.98,-1424 276.99,-1424"/>
<polygon fill="#b75867" stroke="#b75867" points="277.35,-1427.5 287.35,-1424 277.35,-1420.5 277.35,-1427.5"/>
</g>
<!-- Chebyshev Polynomial -->
<g id="node13" class="node">
<title>Chebyshev Polynomial</title>
<g id="a_node13"><a xlink:href="/Knowledge/Chebyshev Polynomial.html" xlink:title="Chebyshev Polynomial" target="_parent">
<path fill="none" stroke="#b75867" d="M452.5,-1405C452.5,-1405 331.5,-1405 331.5,-1405 325.5,-1405 319.5,-1399 319.5,-1393 319.5,-1393 319.5,-1381 319.5,-1381 319.5,-1375 325.5,-1369 331.5,-1369 331.5,-1369 452.5,-1369 452.5,-1369 458.5,-1369 464.5,-1375 464.5,-1381 464.5,-1381 464.5,-1393 464.5,-1393 464.5,-1399 458.5,-1405 452.5,-1405"/>
<text text-anchor="middle" x="392" y="-1383.9" font-family="sans" font-size="12.00" fill="#c4c7c7">Chebyshev Polynomial</text>
</a>
</g>
</g>
<!-- Recurrent Equations&#45;&gt;Chebyshev Polynomial -->
<g id="edge12" class="edge">
<title>Recurrent Equations&#45;&gt;Chebyshev Polynomial</title>
<path fill="none" stroke="#ffffff" d="M271.94,-1408.83C291.29,-1405.1 305.59,-1402.43 319.25,-1399.91"/>
<polygon fill="#ffffff" stroke="#ffffff" points="271.17,-1405.42 262.02,-1410.76 272.5,-1412.29 271.17,-1405.42"/>
</g>
<!-- Divided Differences -->
<g id="node14" class="node">
<title>Divided Differences</title>
<g id="a_node14"><a xlink:href="/Knowledge/Divided Differences.html" xlink:title="Divided Differences" target="_parent">
<path fill="none" stroke="#b75867" d="M442,-1553C442,-1553 342,-1553 342,-1553 336,-1553 330,-1547 330,-1541 330,-1541 330,-1529 330,-1529 330,-1523 336,-1517 342,-1517 342,-1517 442,-1517 442,-1517 448,-1517 454,-1523 454,-1529 454,-1529 454,-1541 454,-1541 454,-1547 448,-1553 442,-1553"/>
<text text-anchor="middle" x="392" y="-1531.9" font-family="sans" font-size="12.00" fill="#c4c7c7">Divided Differences</text>
</a>
</g>
</g>
<!-- Recurrent Equations&#45;&gt;Divided Differences -->
<g id="edge14" class="edge">
<title>Recurrent Equations&#45;&gt;Divided Differences</title>
<path fill="none" stroke="#ffffff" d="M212.48,-1450.83C225.32,-1471.2 245.71,-1498.15 271,-1513 288.63,-1523.35 310.01,-1529.02 329.82,-1532.07"/>
<polygon fill="#ffffff" stroke="#ffffff" points="215.47,-1449.01 207.29,-1442.28 209.49,-1452.64 215.47,-1449.01"/>
</g>
<!-- Combinatorics&#45;&gt;Discrete Structures -->
<g id="edge16" class="edge">
<title>Combinatorics&#45;&gt;Discrete Structures</title>
<path fill="none" stroke="#ffffff" d="M138.16,-1074.63C135.34,-1073.19 132.6,-1071.65 130,-1070 107.52,-1055.73 87.19,-1032.49 74.73,-1016.28"/>
<polygon fill="#ffffff" stroke="#ffffff" points="136.84,-1077.87 147.39,-1078.86 139.75,-1071.51 136.84,-1077.87"/>
</g>
<!-- Combinatoric principles -->
<g id="node15" class="node">
<title>Combinatoric principles</title>
<g id="a_node15"><a xlink:href="/Knowledge/Combinatoric principles.html" xlink:title="Combinatoric principles" target="_parent">
<path fill="#273434" stroke="#b75867" d="M455.5,-1368C455.5,-1368 328.5,-1368 328.5,-1368 322.5,-1368 316.5,-1362 316.5,-1356 316.5,-1356 316.5,-1344 316.5,-1344 316.5,-1338 322.5,-1332 328.5,-1332 328.5,-1332 455.5,-1332 455.5,-1332 461.5,-1332 467.5,-1338 467.5,-1344 467.5,-1344 467.5,-1356 467.5,-1356 467.5,-1362 461.5,-1368 455.5,-1368"/>
<text text-anchor="middle" x="392" y="-1346.9" font-family="sans" font-size="12.00" fill="#c4c7c7">Combinatoric principles</text>
</a>
</g>
</g>
<!-- Combinatorics&#45;&gt;Combinatoric principles -->
<g id="edge15" class="edge">
<title>Combinatorics&#45;&gt;Combinatoric principles</title>
<path fill="none" stroke="#b75867" d="M197.23,-1109.14C197.62,-1153.81 205.26,-1269.68 271,-1328 281.04,-1336.91 293.46,-1342.75 306.46,-1346.5"/>
<polygon fill="#b75867" stroke="#b75867" points="305.94,-1349.98 316.49,-1348.98 307.62,-1343.19 305.94,-1349.98"/>
</g>
<!-- Functions&#45;&gt;Discrete Structures -->
<g id="edge19" class="edge">
<title>Functions&#45;&gt;Discrete Structures</title>
<path fill="none" stroke="#ffffff" d="M150.97,-1040.96C143.89,-1038.48 136.7,-1035.78 130,-1033 118.06,-1028.04 105.29,-1021.89 94.08,-1016.14"/>
<polygon fill="#ffffff" stroke="#ffffff" points="149.9,-1044.3 160.49,-1044.2 152.15,-1037.67 149.9,-1044.3"/>
</g>
<!-- Total function -->
<g id="node16" class="node">
<title>Total function</title>
<g id="a_node16"><a xlink:href="/Knowledge/Total function.html" xlink:title="Total function" target="_parent">
<path fill="#273434" stroke="#b75867" d="M427.5,-1331C427.5,-1331 356.5,-1331 356.5,-1331 350.5,-1331 344.5,-1325 344.5,-1319 344.5,-1319 344.5,-1307 344.5,-1307 344.5,-1301 350.5,-1295 356.5,-1295 356.5,-1295 427.5,-1295 427.5,-1295 433.5,-1295 439.5,-1301 439.5,-1307 439.5,-1307 439.5,-1319 439.5,-1319 439.5,-1325 433.5,-1331 427.5,-1331"/>
<text text-anchor="middle" x="392" y="-1309.9" font-family="sans" font-size="12.00" fill="#c4c7c7">Total function</text>
</a>
</g>
</g>
<!-- Functions&#45;&gt;Total function -->
<g id="edge17" class="edge">
<title>Functions&#45;&gt;Total function</title>
<path fill="none" stroke="#b75867" d="M232.82,-1057.85C244.25,-1060.93 255.82,-1066.39 263,-1076 277.31,-1095.15 255.36,-1272.92 271,-1291 286.45,-1308.86 311.21,-1315.33 334.23,-1316.95"/>
<polygon fill="#b75867" stroke="#b75867" points="334.17,-1320.45 344.31,-1317.38 334.46,-1313.46 334.17,-1320.45"/>
</g>
<!-- Partial function -->
<g id="node17" class="node">
<title>Partial function</title>
<g id="a_node17"><a xlink:href="/Knowledge/Partial function.html" xlink:title="Partial function" target="_parent">
<path fill="#273434" stroke="#b75867" d="M431.5,-1294C431.5,-1294 352.5,-1294 352.5,-1294 346.5,-1294 340.5,-1288 340.5,-1282 340.5,-1282 340.5,-1270 340.5,-1270 340.5,-1264 346.5,-1258 352.5,-1258 352.5,-1258 431.5,-1258 431.5,-1258 437.5,-1258 443.5,-1264 443.5,-1270 443.5,-1270 443.5,-1282 443.5,-1282 443.5,-1288 437.5,-1294 431.5,-1294"/>
<text text-anchor="middle" x="392" y="-1272.9" font-family="sans" font-size="12.00" fill="#c4c7c7">Partial function</text>
</a>
</g>
</g>
<!-- Functions&#45;&gt;Partial function -->
<g id="edge18" class="edge">
<title>Functions&#45;&gt;Partial function</title>
<path fill="none" stroke="#b75867" d="M232.78,-1057.88C244.21,-1060.97 255.78,-1066.42 263,-1076 274.92,-1091.81 257.99,-1239.08 271,-1254 285.6,-1270.74 308.38,-1277.46 330.19,-1279.55"/>
<polygon fill="#b75867" stroke="#b75867" points="330.23,-1283.06 340.44,-1280.22 330.69,-1276.08 330.23,-1283.06"/>
</g>
<!-- Relations&#45;&gt;Discrete Structures -->
<g id="edge39" class="edge">
<title>Relations&#45;&gt;Discrete Structures</title>
<path fill="none" stroke="#ffffff" d="M151.69,-1011.47C142.23,-1010.16 132.07,-1008.73 122.11,-1007.3"/>
<polygon fill="#ffffff" stroke="#ffffff" points="151.26,-1014.95 161.64,-1012.84 152.21,-1008.01 151.26,-1014.95"/>
</g>
<!-- Chain -->
<g id="node18" class="node">
<title>Chain</title>
<g id="a_node18"><a xlink:href="/Knowledge/Chain.html" xlink:title="Chain" target="_parent">
<path fill="#273434" stroke="#b75867" d="M407,-739C407,-739 377,-739 377,-739 371,-739 365,-733 365,-727 365,-727 365,-715 365,-715 365,-709 371,-703 377,-703 377,-703 407,-703 407,-703 413,-703 419,-709 419,-715 419,-715 419,-727 419,-727 419,-733 413,-739 407,-739"/>
<text text-anchor="middle" x="392" y="-717.9" font-family="sans" font-size="12.00" fill="#c4c7c7">Chain</text>
</a>
</g>
</g>
<!-- Relations&#45;&gt;Chain -->
<g id="edge20" class="edge">
<title>Relations&#45;&gt;Chain</title>
<path fill="none" stroke="#b75867" d="M231.14,-1013.62C243.12,-1010.63 255.49,-1005.11 263,-995 279.71,-972.52 252.73,-764.23 271,-743 291.21,-719.51 327.52,-715.69 354.92,-716.72"/>
<polygon fill="#b75867" stroke="#b75867" points="354.74,-720.21 364.93,-717.32 355.16,-713.23 354.74,-720.21"/>
</g>
<!-- Linear extension -->
<g id="node19" class="node">
<title>Linear extension</title>
<g id="a_node19"><a xlink:href="/Knowledge/Linear extension.html" xlink:title="Linear extension" target="_parent">
<path fill="#273434" stroke="#b75867" d="M435,-702C435,-702 349,-702 349,-702 343,-702 337,-696 337,-690 337,-690 337,-678 337,-678 337,-672 343,-666 349,-666 349,-666 435,-666 435,-666 441,-666 447,-672 447,-678 447,-678 447,-690 447,-690 447,-696 441,-702 435,-702"/>
<text text-anchor="middle" x="392" y="-680.9" font-family="sans" font-size="12.00" fill="#c4c7c7">Linear extension</text>
</a>
</g>
</g>
<!-- Relations&#45;&gt;Linear extension -->
<g id="edge21" class="edge">
<title>Relations&#45;&gt;Linear extension</title>
<path fill="none" stroke="#b75867" d="M231.16,-1013.63C243.14,-1010.64 255.51,-1005.12 263,-995 282.11,-969.18 250.1,-730.39 271,-706 284.74,-689.97 305.98,-683.09 326.79,-680.66"/>
<polygon fill="#b75867" stroke="#b75867" points="327.26,-684.13 336.93,-679.8 326.67,-677.16 327.26,-684.13"/>
</g>
<!-- Linear order -->
<g id="node20" class="node">
<title>Linear order</title>
<g id="a_node20"><a xlink:href="/Knowledge/Linear order.html" xlink:title="Linear order" target="_parent">
<path fill="#273434" stroke="#b75867" d="M423,-1257C423,-1257 361,-1257 361,-1257 355,-1257 349,-1251 349,-1245 349,-1245 349,-1233 349,-1233 349,-1227 355,-1221 361,-1221 361,-1221 423,-1221 423,-1221 429,-1221 435,-1227 435,-1233 435,-1233 435,-1245 435,-1245 435,-1251 429,-1257 423,-1257"/>
<text text-anchor="middle" x="392" y="-1235.9" font-family="sans" font-size="12.00" fill="#c4c7c7">Linear order</text>
</a>
</g>
</g>
<!-- Relations&#45;&gt;Linear order -->
<g id="edge22" class="edge">
<title>Relations&#45;&gt;Linear order</title>
<path fill="none" stroke="#b75867" d="M231.07,-1020.43C243.04,-1023.43 255.42,-1028.94 263,-1039 274.92,-1054.81 257.99,-1202.08 271,-1217 287.51,-1235.93 314.46,-1242.04 338.65,-1243.15"/>
<polygon fill="#b75867" stroke="#b75867" points="338.74,-1246.65 348.81,-1243.34 338.87,-1239.65 338.74,-1246.65"/>
</g>
<!-- Partial order -->
<g id="node21" class="node">
<title>Partial order</title>
<g id="a_node21"><a xlink:href="/Knowledge/Partial order.html" xlink:title="Partial order" target="_parent">
<path fill="#273434" stroke="#b75867" d="M423,-1220C423,-1220 361,-1220 361,-1220 355,-1220 349,-1214 349,-1208 349,-1208 349,-1196 349,-1196 349,-1190 355,-1184 361,-1184 361,-1184 423,-1184 423,-1184 429,-1184 435,-1190 435,-1196 435,-1196 435,-1208 435,-1208 435,-1214 429,-1220 423,-1220"/>
<text text-anchor="middle" x="392" y="-1198.9" font-family="sans" font-size="12.00" fill="#c4c7c7">Partial order</text>
</a>
</g>
</g>
<!-- Relations&#45;&gt;Partial order -->
<g id="edge23" class="edge">
<title>Relations&#45;&gt;Partial order</title>
<path fill="none" stroke="#b75867" d="M231.01,-1020.48C242.97,-1023.49 255.36,-1028.99 263,-1039 282.04,-1063.95 250.23,-1156.47 271,-1180 287.62,-1198.83 314.58,-1204.94 338.74,-1206.07"/>
<polygon fill="#b75867" stroke="#b75867" points="338.82,-1209.57 348.89,-1206.27 338.96,-1202.57 338.82,-1209.57"/>
</g>
<!-- Class of equivalence -->
<g id="node22" class="node">
<title>Class of equivalence</title>
<g id="a_node22"><a xlink:href="/Knowledge/Class of equivalence.html" xlink:title="Class of equivalence" target="_parent">
<path fill="#273434" stroke="#b75867" d="M445.5,-1183C445.5,-1183 338.5,-1183 338.5,-1183 332.5,-1183 326.5,-1177 326.5,-1171 326.5,-1171 326.5,-1159 326.5,-1159 326.5,-1153 332.5,-1147 338.5,-1147 338.5,-1147 445.5,-1147 445.5,-1147 451.5,-1147 457.5,-1153 457.5,-1159 457.5,-1159 457.5,-1171 457.5,-1171 457.5,-1177 451.5,-1183 445.5,-1183"/>
<text text-anchor="middle" x="392" y="-1161.9" font-family="sans" font-size="12.00" fill="#c4c7c7">Class of equivalence</text>
</a>
</g>
</g>
<!-- Relations&#45;&gt;Class of equivalence -->
<g id="edge24" class="edge">
<title>Relations&#45;&gt;Class of equivalence</title>
<path fill="none" stroke="#b75867" d="M231.24,-1020.65C243.09,-1023.68 255.33,-1029.16 263,-1039 277.24,-1057.29 255.49,-1125.78 271,-1143 282.67,-1155.96 299.25,-1162.86 316.37,-1166.25"/>
<polygon fill="#b75867" stroke="#b75867" points="316.05,-1169.75 326.48,-1167.87 317.16,-1162.84 316.05,-1169.75"/>
</g>
<!-- Relation of Equivalence -->
<g id="node23" class="node">
<title>Relation of Equivalence</title>
<g id="a_node23"><a xlink:href="/Knowledge/Relation of Equivalence.html" xlink:title="Relation of Equivalence" target="_parent">
<path fill="#273434" stroke="#b75867" d="M454.5,-1146C454.5,-1146 329.5,-1146 329.5,-1146 323.5,-1146 317.5,-1140 317.5,-1134 317.5,-1134 317.5,-1122 317.5,-1122 317.5,-1116 323.5,-1110 329.5,-1110 329.5,-1110 454.5,-1110 454.5,-1110 460.5,-1110 466.5,-1116 466.5,-1122 466.5,-1122 466.5,-1134 466.5,-1134 466.5,-1140 460.5,-1146 454.5,-1146"/>
<text text-anchor="middle" x="392" y="-1124.9" font-family="sans" font-size="12.00" fill="#c4c7c7">Relation of Equivalence</text>
</a>
</g>
</g>
<!-- Relations&#45;&gt;Relation of Equivalence -->
<g id="edge25" class="edge">
<title>Relations&#45;&gt;Relation of Equivalence</title>
<path fill="none" stroke="#b75867" d="M231.03,-1020.82C242.84,-1023.88 255.13,-1029.32 263,-1039 281.92,-1062.27 250.47,-1084.14 271,-1106 280.74,-1116.37 293.64,-1122.82 307.36,-1126.68"/>
<polygon fill="#b75867" stroke="#b75867" points="306.93,-1130.17 317.47,-1129.05 308.53,-1123.36 306.93,-1130.17"/>
</g>
<!-- Transitive Closure -->
<g id="node24" class="node">
<title>Transitive Closure</title>
<g id="a_node24"><a xlink:href="/Knowledge/Transitive Closure.html" xlink:title="Transitive Closure" target="_parent">
<path fill="#273434" stroke="#b75867" d="M438,-1109C438,-1109 346,-1109 346,-1109 340,-1109 334,-1103 334,-1097 334,-1097 334,-1085 334,-1085 334,-1079 340,-1073 346,-1073 346,-1073 438,-1073 438,-1073 444,-1073 450,-1079 450,-1085 450,-1085 450,-1097 450,-1097 450,-1103 444,-1109 438,-1109"/>
<text text-anchor="middle" x="392" y="-1087.9" font-family="sans" font-size="12.00" fill="#c4c7c7">Transitive Closure</text>
</a>
</g>
</g>
<!-- Relations&#45;&gt;Transitive Closure -->
<g id="edge26" class="edge">
<title>Relations&#45;&gt;Transitive Closure</title>
<path fill="none" stroke="#b75867" d="M231,-1021.62C242.53,-1024.77 254.63,-1030.08 263,-1039 272.44,-1049.06 260.86,-1059.64 271,-1069 285.31,-1082.22 304.82,-1088.78 323.96,-1091.76"/>
<polygon fill="#b75867" stroke="#b75867" points="323.54,-1095.23 333.9,-1093.01 324.41,-1088.29 323.54,-1095.23"/>
</g>
<!-- Relations&#45;&gt;Transitive Closure -->
<g id="edge30" class="edge">
<title>Relations&#45;&gt;Transitive Closure</title>
<path fill="none" stroke="#b75867" d="M231,-1022.56C242.53,-1025.77 254.63,-1031.08 263,-1040 272.44,-1050.06 260.86,-1060.64 271,-1070 285.31,-1083.22 304.82,-1089.78 323.96,-1092.71"/>
<polygon fill="#b75867" stroke="#b75867" points="323.55,-1096.19 333.9,-1093.93 324.4,-1089.24 323.55,-1096.19"/>
</g>
<!-- Symmetric Closure -->
<g id="node25" class="node">
<title>Symmetric Closure</title>
<g id="a_node25"><a xlink:href="/Knowledge/Symmetric Closure.html" xlink:title="Symmetric Closure" target="_parent">
<path fill="#273434" stroke="#b75867" d="M441.5,-1072C441.5,-1072 342.5,-1072 342.5,-1072 336.5,-1072 330.5,-1066 330.5,-1060 330.5,-1060 330.5,-1048 330.5,-1048 330.5,-1042 336.5,-1036 342.5,-1036 342.5,-1036 441.5,-1036 441.5,-1036 447.5,-1036 453.5,-1042 453.5,-1048 453.5,-1048 453.5,-1060 453.5,-1060 453.5,-1066 447.5,-1072 441.5,-1072"/>
<text text-anchor="middle" x="392" y="-1050.9" font-family="sans" font-size="12.00" fill="#c4c7c7">Symmetric Closure</text>
</a>
</g>
</g>
<!-- Relations&#45;&gt;Symmetric Closure -->
<g id="edge27" class="edge">
<title>Relations&#45;&gt;Symmetric Closure</title>
<path fill="none" stroke="#b75867" d="M231.13,-1024.01C243.64,-1026.58 257.96,-1029.47 271,-1032 286.93,-1035.09 304.07,-1038.29 320.27,-1041.28"/>
<polygon fill="#b75867" stroke="#b75867" points="319.75,-1044.74 330.22,-1043.1 321.01,-1037.85 319.75,-1044.74"/>
</g>
<!-- Relations&#45;&gt;Symmetric Closure -->
<g id="edge29" class="edge">
<title>Relations&#45;&gt;Symmetric Closure</title>
<path fill="none" stroke="#b75867" d="M231.13,-1024.95C243.64,-1027.58 257.96,-1030.47 271,-1033 286.93,-1036.09 304.07,-1039.29 320.27,-1042.25"/>
<polygon fill="#b75867" stroke="#b75867" points="319.75,-1045.71 330.22,-1044.05 321,-1038.82 319.75,-1045.71"/>
</g>
<!-- Reflexive Closure -->
<g id="node26" class="node">
<title>Reflexive Closure</title>
<g id="a_node26"><a xlink:href="/Knowledge/Reflexive Closure.html" xlink:title="Reflexive Closure" target="_parent">
<path fill="#273434" stroke="#b75867" d="M436.5,-1035C436.5,-1035 347.5,-1035 347.5,-1035 341.5,-1035 335.5,-1029 335.5,-1023 335.5,-1023 335.5,-1011 335.5,-1011 335.5,-1005 341.5,-999 347.5,-999 347.5,-999 436.5,-999 436.5,-999 442.5,-999 448.5,-1005 448.5,-1011 448.5,-1011 448.5,-1023 448.5,-1023 448.5,-1029 442.5,-1035 436.5,-1035"/>
<text text-anchor="middle" x="392" y="-1013.9" font-family="sans" font-size="12.00" fill="#c4c7c7">Reflexive Closure</text>
</a>
</g>
</g>
<!-- Relations&#45;&gt;Reflexive Closure -->
<g id="edge28" class="edge">
<title>Relations&#45;&gt;Reflexive Closure</title>
<path fill="none" stroke="#b75867" d="M231.21,-1017C257.1,-1017 293.66,-1017 325.28,-1017"/>
<polygon fill="#b75867" stroke="#b75867" points="325.35,-1020.5 335.35,-1017 325.35,-1013.5 325.35,-1020.5"/>
</g>
<!-- Relations&#45;&gt;Reflexive Closure -->
<g id="edge31" class="edge">
<title>Relations&#45;&gt;Reflexive Closure</title>
<path fill="none" stroke="#b75867" d="M231.21,-1017.59C257.1,-1017.75 293.66,-1017.79 325.28,-1017.71"/>
<polygon fill="#b75867" stroke="#b75867" points="325.36,-1021.21 335.35,-1017.69 325.34,-1014.21 325.36,-1021.21"/>
</g>
<!-- Transitive Relation -->
<g id="node27" class="node">
<title>Transitive Relation</title>
<g id="a_node27"><a xlink:href="/Knowledge/Transitive Relation.html" xlink:title="Transitive Relation" target="_parent">
<path fill="#273434" stroke="#b75867" d="M440.5,-998C440.5,-998 343.5,-998 343.5,-998 337.5,-998 331.5,-992 331.5,-986 331.5,-986 331.5,-974 331.5,-974 331.5,-968 337.5,-962 343.5,-962 343.5,-962 440.5,-962 440.5,-962 446.5,-962 452.5,-968 452.5,-974 452.5,-974 452.5,-986 452.5,-986 452.5,-992 446.5,-998 440.5,-998"/>
<text text-anchor="middle" x="392" y="-976.9" font-family="sans" font-size="12.00" fill="#c4c7c7">Transitive Relation</text>
</a>
</g>
</g>
<!-- Relations&#45;&gt;Transitive Relation -->
<g id="edge32" class="edge">
<title>Relations&#45;&gt;Transitive Relation</title>
<path fill="none" stroke="#b75867" d="M231.13,-1009.99C243.64,-1007.42 257.96,-1004.53 271,-1002 287.27,-998.85 304.81,-995.57 321.32,-992.53"/>
<polygon fill="#b75867" stroke="#b75867" points="322.24,-995.92 331.44,-990.68 320.98,-989.04 322.24,-995.92"/>
</g>
<!-- Strongly Anti&#45;symmetric Relation -->
<g id="node28" class="node">
<title>Strongly Anti&#45;symmetric Relation</title>
<g id="a_node28"><a xlink:href="/Knowledge/Strongly Anti-symmetric Relation.html" xlink:title="Strongly Anti&#45;symmetric Relation" target="_parent">
<path fill="#273434" stroke="#b75867" d="M481.5,-961C481.5,-961 302.5,-961 302.5,-961 296.5,-961 290.5,-955 290.5,-949 290.5,-949 290.5,-937 290.5,-937 290.5,-931 296.5,-925 302.5,-925 302.5,-925 481.5,-925 481.5,-925 487.5,-925 493.5,-931 493.5,-937 493.5,-937 493.5,-949 493.5,-949 493.5,-955 487.5,-961 481.5,-961"/>
<text text-anchor="middle" x="392" y="-939.9" font-family="sans" font-size="12.00" fill="#c4c7c7">Strongly Anti&#45;symmetric Relation</text>
</a>
</g>
</g>
<!-- Relations&#45;&gt;Strongly Anti&#45;symmetric Relation -->
<g id="edge33" class="edge">
<title>Relations&#45;&gt;Strongly Anti&#45;symmetric Relation</title>
<path fill="none" stroke="#b75867" d="M231,-1012.38C242.53,-1009.23 254.63,-1003.92 263,-995 272.44,-984.94 260.86,-974.36 271,-965 274.24,-962.01 277.74,-959.36 281.45,-957.01"/>
<polygon fill="#b75867" stroke="#b75867" points="283.35,-959.96 290.43,-952.08 279.98,-953.83 283.35,-959.96"/>
</g>
<!-- Anti&#45;symmetric Relation -->
<g id="node29" class="node">
<title>Anti&#45;symmetric Relation</title>
<g id="a_node29"><a xlink:href="/Knowledge/Anti-symmetric Relation.html" xlink:title="Anti&#45;symmetric Relation" target="_parent">
<path fill="#273434" stroke="#b75867" d="M456,-924C456,-924 328,-924 328,-924 322,-924 316,-918 316,-912 316,-912 316,-900 316,-900 316,-894 322,-888 328,-888 328,-888 456,-888 456,-888 462,-888 468,-894 468,-900 468,-900 468,-912 468,-912 468,-918 462,-924 456,-924"/>
<text text-anchor="middle" x="392" y="-902.9" font-family="sans" font-size="12.00" fill="#c4c7c7">Anti&#45;symmetric Relation</text>
</a>
</g>
</g>
<!-- Relations&#45;&gt;Anti&#45;symmetric Relation -->
<g id="edge34" class="edge">
<title>Relations&#45;&gt;Anti&#45;symmetric Relation</title>
<path fill="none" stroke="#b75867" d="M231.03,-1013.18C242.84,-1010.12 255.13,-1004.68 263,-995 281.92,-971.73 250.47,-949.86 271,-928 280.45,-917.94 292.87,-911.57 306.13,-907.68"/>
<polygon fill="#b75867" stroke="#b75867" points="307.04,-911.06 315.91,-905.26 305.36,-904.26 307.04,-911.06"/>
</g>
<!-- Symmetric Relation -->
<g id="node30" class="node">
<title>Symmetric Relation</title>
<g id="a_node30"><a xlink:href="/Knowledge/Symmetric Relation.html" xlink:title="Symmetric Relation" target="_parent">
<path fill="#273434" stroke="#b75867" d="M444,-887C444,-887 340,-887 340,-887 334,-887 328,-881 328,-875 328,-875 328,-863 328,-863 328,-857 334,-851 340,-851 340,-851 444,-851 444,-851 450,-851 456,-857 456,-863 456,-863 456,-875 456,-875 456,-881 450,-887 444,-887"/>
<text text-anchor="middle" x="392" y="-865.9" font-family="sans" font-size="12.00" fill="#c4c7c7">Symmetric Relation</text>
</a>
</g>
</g>
<!-- Relations&#45;&gt;Symmetric Relation -->
<g id="edge35" class="edge">
<title>Relations&#45;&gt;Symmetric Relation</title>
<path fill="none" stroke="#b75867" d="M231.24,-1013.35C243.09,-1010.32 255.33,-1004.84 263,-995 277.24,-976.71 255.49,-908.22 271,-891 282.91,-877.78 299.92,-870.86 317.41,-867.54"/>
<polygon fill="#b75867" stroke="#b75867" points="318.37,-870.94 327.73,-865.98 317.32,-864.02 318.37,-870.94"/>
</g>
<!-- Anti&#45;reflexive relation -->
<g id="node31" class="node">
<title>Anti&#45;reflexive relation</title>
<g id="a_node31"><a xlink:href="/Knowledge/Anti-reflexive relation.html" xlink:title="Anti&#45;reflexive relation" target="_parent">
<path fill="#273434" stroke="#b75867" d="M449,-850C449,-850 335,-850 335,-850 329,-850 323,-844 323,-838 323,-838 323,-826 323,-826 323,-820 329,-814 335,-814 335,-814 449,-814 449,-814 455,-814 461,-820 461,-826 461,-826 461,-838 461,-838 461,-844 455,-850 449,-850"/>
<text text-anchor="middle" x="392" y="-828.9" font-family="sans" font-size="12.00" fill="#c4c7c7">Anti&#45;reflexive relation</text>
</a>
</g>
</g>
<!-- Relations&#45;&gt;Anti&#45;reflexive relation -->
<g id="edge36" class="edge">
<title>Relations&#45;&gt;Anti&#45;reflexive relation</title>
<path fill="none" stroke="#b75867" d="M231.01,-1013.52C242.97,-1010.51 255.36,-1005.01 263,-995 282.04,-970.05 250.23,-877.53 271,-854 281.79,-841.77 296.95,-834.91 312.88,-831.29"/>
<polygon fill="#b75867" stroke="#b75867" points="313.66,-834.7 322.86,-829.44 312.39,-827.82 313.66,-834.7"/>
</g>
<!-- Reflexive Relation -->
<g id="node32" class="node">
<title>Reflexive Relation</title>
<g id="a_node32"><a xlink:href="/Knowledge/Reflexive Relation.html" xlink:title="Reflexive Relation" target="_parent">
<path fill="#273434" stroke="#b75867" d="M438.5,-813C438.5,-813 345.5,-813 345.5,-813 339.5,-813 333.5,-807 333.5,-801 333.5,-801 333.5,-789 333.5,-789 333.5,-783 339.5,-777 345.5,-777 345.5,-777 438.5,-777 438.5,-777 444.5,-777 450.5,-783 450.5,-789 450.5,-789 450.5,-801 450.5,-801 450.5,-807 444.5,-813 438.5,-813"/>
<text text-anchor="middle" x="392" y="-791.9" font-family="sans" font-size="12.00" fill="#c4c7c7">Reflexive Relation</text>
</a>
</g>
</g>
<!-- Relations&#45;&gt;Reflexive Relation -->
<g id="edge37" class="edge">
<title>Relations&#45;&gt;Reflexive Relation</title>
<path fill="none" stroke="#b75867" d="M231.07,-1013.57C243.04,-1010.57 255.42,-1005.06 263,-995 274.92,-979.19 257.99,-831.92 271,-817 284.04,-802.05 303.6,-795.09 323.17,-792.28"/>
<polygon fill="#b75867" stroke="#b75867" points="323.81,-795.73 333.37,-791.17 323.05,-788.78 323.81,-795.73"/>
</g>
<!-- Relation -->
<g id="node33" class="node">
<title>Relation</title>
<g id="a_node33"><a xlink:href="/Knowledge/Relation.html" xlink:title="Relation" target="_parent">
<path fill="#273434" stroke="#b75867" d="M412,-776C412,-776 372,-776 372,-776 366,-776 360,-770 360,-764 360,-764 360,-752 360,-752 360,-746 366,-740 372,-740 372,-740 412,-740 412,-740 418,-740 424,-746 424,-752 424,-752 424,-764 424,-764 424,-770 418,-776 412,-776"/>
<text text-anchor="middle" x="392" y="-754.9" font-family="sans" font-size="12.00" fill="#c4c7c7">Relation</text>
</a>
</g>
</g>
<!-- Relations&#45;&gt;Relation -->
<g id="edge38" class="edge">
<title>Relations&#45;&gt;Relation</title>
<path fill="none" stroke="#b75867" d="M231.11,-1013.6C243.08,-1010.6 255.46,-1005.09 263,-995 277.31,-975.85 255.36,-798.08 271,-780 289.97,-758.08 322.94,-753.31 349.53,-753.62"/>
<polygon fill="#b75867" stroke="#b75867" points="349.62,-757.12 359.73,-753.98 349.86,-750.13 349.62,-757.12"/>
</g>
<!-- Logical Equivalences&#45;&gt;Discrete Structures -->
<g id="edge40" class="edge">
<title>Logical Equivalences&#45;&gt;Discrete Structures</title>
<path fill="none" stroke="#ffffff" d="M122.58,-990.58C122.42,-990.6 122.27,-990.62 122.11,-990.64"/>
<polygon fill="#ffffff" stroke="#ffffff" points="120.16,-994.44 129.61,-989.63 119.23,-987.5 120.16,-994.44"/>
</g>
<!-- Logical Operators&#45;&gt;Discrete Structures -->
<g id="edge41" class="edge">
<title>Logical Operators&#45;&gt;Discrete Structures</title>
<path fill="none" stroke="#ffffff" d="M133.11,-964.75C132.07,-965.16 131.03,-965.58 130,-966 119.8,-970.17 108.97,-975.16 99.02,-979.94"/>
<polygon fill="#ffffff" stroke="#ffffff" points="134.64,-967.91 142.73,-961.07 132.14,-961.37 134.64,-967.91"/>
</g>
<!-- Subjects&#45;&gt;Discrete Structures -->
<g id="edge43" class="edge">
<title>Subjects&#45;&gt;Discrete Structures</title>
<path fill="none" stroke="#b75867" d="M189.01,-647.28C167.51,-707.21 98.51,-897.97 72.26,-970.06"/>
<polygon fill="#b75867" stroke="#b75867" points="68.85,-969.21 68.71,-979.8 75.42,-971.6 68.85,-969.21"/>
</g>
<!-- Numeric Methods -->
<g id="node34" class="node">
<title>Numeric Methods</title>
<g id="a_node34"><a xlink:href="/Knowledge/Numeric Methods.html" xlink:title="Numeric Methods" target="_parent">
<path fill="#273434" stroke="#b75867" d="M438,-628C438,-628 346,-628 346,-628 340,-628 334,-622 334,-616 334,-616 334,-604 334,-604 334,-598 340,-592 346,-592 346,-592 438,-592 438,-592 444,-592 450,-598 450,-604 450,-604 450,-616 450,-616 450,-622 444,-628 438,-628"/>
<text text-anchor="middle" x="392" y="-606.9" font-family="sans" font-size="12.00" fill="#c4c7c7">Numeric Methods</text>
</a>
</g>
</g>
<!-- Subjects&#45;&gt;Numeric Methods -->
<g id="edge42" class="edge">
<title>Subjects&#45;&gt;Numeric Methods</title>
<path fill="none" stroke="#b75867" d="M229.02,-625.91C254.53,-623.4 291.37,-619.78 323.47,-616.63"/>
<polygon fill="#b75867" stroke="#b75867" points="324.09,-620.09 333.7,-615.63 323.41,-613.12 324.09,-620.09"/>
</g>
<!-- Differential Analysis -->
<g id="node35" class="node">
<title>Differential Analysis</title>
<g id="a_node35"><a xlink:href="/Knowledge/Differential Analysis.html" xlink:title="Differential Analysis" target="_parent">
<path fill="#273434" stroke="#b75867" d="M443.5,-554C443.5,-554 340.5,-554 340.5,-554 334.5,-554 328.5,-548 328.5,-542 328.5,-542 328.5,-530 328.5,-530 328.5,-524 334.5,-518 340.5,-518 340.5,-518 443.5,-518 443.5,-518 449.5,-518 455.5,-524 455.5,-530 455.5,-530 455.5,-542 455.5,-542 455.5,-548 449.5,-554 443.5,-554"/>
<text text-anchor="middle" x="392" y="-532.9" font-family="sans" font-size="12.00" fill="#c4c7c7">Differential Analysis</text>
</a>
</g>
</g>
<!-- Subjects&#45;&gt;Differential Analysis -->
<g id="edge44" class="edge">
<title>Subjects&#45;&gt;Differential Analysis</title>
<path fill="none" stroke="#b75867" d="M211.12,-610.75C224.47,-594.25 246.38,-570.65 271,-558 285.51,-550.54 302.15,-545.58 318.32,-542.29"/>
<polygon fill="#b75867" stroke="#b75867" points="319.11,-545.7 328.31,-540.45 317.84,-538.82 319.11,-545.7"/>
</g>
<!-- Linear Algebra -->
<g id="node36" class="node">
<title>Linear Algebra</title>
<g id="a_node36"><a xlink:href="/Knowledge/Linear Algebra.html" xlink:title="Linear Algebra" target="_parent">
<path fill="#273434" stroke="#b75867" d="M429,-591C429,-591 355,-591 355,-591 349,-591 343,-585 343,-579 343,-579 343,-567 343,-567 343,-561 349,-555 355,-555 355,-555 429,-555 429,-555 435,-555 441,-561 441,-567 441,-567 441,-579 441,-579 441,-585 435,-591 429,-591"/>
<text text-anchor="middle" x="392" y="-569.9" font-family="sans" font-size="12.00" fill="#c4c7c7">Linear Algebra</text>
</a>
</g>
</g>
<!-- Subjects&#45;&gt;Linear Algebra -->
<g id="edge45" class="edge">
<title>Subjects&#45;&gt;Linear Algebra</title>
<path fill="none" stroke="#b75867" d="M229,-612.3C241.75,-606.11 256.8,-599.51 271,-595 290.68,-588.75 312.78,-584.07 332.6,-580.67"/>
<polygon fill="#b75867" stroke="#b75867" points="333.43,-584.08 342.73,-579.01 332.29,-577.18 333.43,-584.08"/>
</g>
<!-- index -->
<g id="node37" class="node">
<title>index</title>
<g id="a_node37"><a xlink:href="/Knowledge/index.html" xlink:title="index" target="_parent">
<path fill="none" stroke="#b75867" d="M407,-665C407,-665 377,-665 377,-665 371,-665 365,-659 365,-653 365,-653 365,-641 365,-641 365,-635 371,-629 377,-629 377,-629 407,-629 407,-629 413,-629 419,-635 419,-641 419,-641 419,-653 419,-653 419,-659 413,-665 407,-665"/>
<text text-anchor="middle" x="392" y="-643.9" font-family="sans" font-size="12.00" fill="#c4c7c7">index</text>
</a>
</g>
</g>
<!-- Subjects&#45;&gt;index -->
<g id="edge46" class="edge">
<title>Subjects&#45;&gt;index</title>
<path fill="none" stroke="#ffffff" d="M239.28,-632.89C277.39,-636.43 332.53,-641.56 364.78,-644.56"/>
<polygon fill="#ffffff" stroke="#ffffff" points="239.3,-629.37 229.02,-631.93 238.65,-636.34 239.3,-629.37"/>
</g>
<!-- Knowledege Base&#45;&gt;Discrete Structures -->
<g id="edge56" class="edge">
<title>Knowledege Base&#45;&gt;Discrete Structures</title>
<path fill="none" stroke="#b75867" d="M190.09,-388.23C178.1,-428.38 148.85,-527.58 130,-612 100.35,-744.8 75.62,-905.59 66.15,-969.67"/>
<polygon fill="#b75867" stroke="#b75867" points="62.65,-969.39 64.66,-979.79 69.58,-970.41 62.65,-969.39"/>
</g>
<!-- Knowledege Base&#45;&gt;Numeric Methods -->
<g id="edge48" class="edge">
<title>Knowledege Base&#45;&gt;Numeric Methods</title>
<path fill="none" stroke="#b75867" d="M197.8,-388.27C199.55,-430.51 210.15,-535.33 271,-588 285.53,-600.57 304.82,-607 323.68,-610.05"/>
<polygon fill="#b75867" stroke="#b75867" points="323.41,-613.55 333.78,-611.39 324.33,-606.61 323.41,-613.55"/>
</g>
<!-- Knowledege Base&#45;&gt;Differential Analysis -->
<g id="edge58" class="edge">
<title>Knowledege Base&#45;&gt;Differential Analysis</title>
<path fill="none" stroke="#b75867" d="M201.34,-388.41C208.88,-419.6 228.68,-482.48 271,-514 284.7,-524.2 301.69,-530.16 318.52,-533.54"/>
<polygon fill="#b75867" stroke="#b75867" points="317.94,-536.99 328.39,-535.24 319.13,-530.09 317.94,-536.99"/>
</g>
<!-- Knowledege Base&#45;&gt;Differential Analysis -->
<g id="edge62" class="edge">
<title>Knowledege Base&#45;&gt;Differential Analysis</title>
<path fill="none" stroke="#b75867" d="M201.11,-388.02C208.46,-419.26 228.23,-483.15 271,-515 284.7,-525.2 301.69,-531.16 318.52,-534.51"/>
<polygon fill="#b75867" stroke="#b75867" points="317.94,-537.96 328.39,-536.18 319.12,-531.06 317.94,-537.96"/>
</g>
<!-- Knowledege Base&#45;&gt;Linear Algebra -->
<g id="edge61" class="edge">
<title>Knowledege Base&#45;&gt;Linear Algebra</title>
<path fill="none" stroke="#b75867" d="M199.22,-388.25C203.75,-425.23 219.44,-509.04 271,-551 288.23,-565.02 311.49,-571.25 332.94,-573.71"/>
<polygon fill="#b75867" stroke="#b75867" points="332.69,-577.2 342.96,-574.62 333.32,-570.23 332.69,-577.2"/>
</g>
<!-- Computer Architectures -->
<g id="node38" class="node">
<title>Computer Architectures</title>
<g id="a_node38"><a xlink:href="/Knowledge/Computer Architectures.html" xlink:title="Computer Architectures" target="_parent">
<path fill="#273434" stroke="#b75867" d="M455.5,-517C455.5,-517 328.5,-517 328.5,-517 322.5,-517 316.5,-511 316.5,-505 316.5,-505 316.5,-493 316.5,-493 316.5,-487 322.5,-481 328.5,-481 328.5,-481 455.5,-481 455.5,-481 461.5,-481 467.5,-487 467.5,-493 467.5,-493 467.5,-505 467.5,-505 467.5,-511 461.5,-517 455.5,-517"/>
<text text-anchor="middle" x="392" y="-495.9" font-family="sans" font-size="12.00" fill="#c4c7c7">Computer Architectures</text>
</a>
</g>
</g>
<!-- Knowledege Base&#45;&gt;Computer Architectures -->
<g id="edge47" class="edge">
<title>Knowledege Base&#45;&gt;Computer Architectures</title>
<path fill="none" stroke="#b75867" d="M204.62,-388.08C215.2,-412.46 237.53,-455.3 271,-477 281.66,-483.91 293.91,-488.79 306.42,-492.21"/>
<polygon fill="#b75867" stroke="#b75867" points="305.94,-495.69 316.48,-494.65 307.59,-488.89 305.94,-495.69"/>
</g>
<!-- Design and Analysis of Algorithms -->
<g id="node39" class="node">
<title>Design and Analysis of Algorithms</title>
<g id="a_node39"><a xlink:href="/Knowledge/Design and Analysis of Algorithms.html" xlink:title="Design and Analysis of Algorithms" target="_parent">
<path fill="#273434" stroke="#b75867" d="M483,-480C483,-480 301,-480 301,-480 295,-480 289,-474 289,-468 289,-468 289,-456 289,-456 289,-450 295,-444 301,-444 301,-444 483,-444 483,-444 489,-444 495,-450 495,-456 495,-456 495,-468 495,-468 495,-474 489,-480 483,-480"/>
<text text-anchor="middle" x="392" y="-458.9" font-family="sans" font-size="12.00" fill="#c4c7c7">Design and Analysis of Algorithms</text>
</a>
</g>
</g>
<!-- Knowledege Base&#45;&gt;Design and Analysis of Algorithms -->
<g id="edge49" class="edge">
<title>Knowledege Base&#45;&gt;Design and Analysis of Algorithms</title>
<path fill="none" stroke="#b75867" d="M211.43,-388.3C224.85,-404.56 246.66,-427.6 271,-440 273.74,-441.4 276.56,-442.71 279.44,-443.93"/>
<polygon fill="#b75867" stroke="#b75867" points="278.21,-447.21 288.8,-447.58 280.75,-440.69 278.21,-447.21"/>
</g>
<!-- Logic Programming -->
<g id="node40" class="node">
<title>Logic Programming</title>
<g id="a_node40"><a xlink:href="/Knowledge/Logic Programming.html" xlink:title="Logic Programming" target="_parent">
<path fill="#273434" stroke="#b75867" d="M443,-443C443,-443 341,-443 341,-443 335,-443 329,-437 329,-431 329,-431 329,-419 329,-419 329,-413 335,-407 341,-407 341,-407 443,-407 443,-407 449,-407 455,-413 455,-419 455,-419 455,-431 455,-431 455,-437 449,-443 443,-443"/>
<text text-anchor="middle" x="392" y="-421.9" font-family="sans" font-size="12.00" fill="#c4c7c7">Logic Programming</text>
</a>
</g>
</g>
<!-- Knowledege Base&#45;&gt;Logic Programming -->
<g id="edge50" class="edge">
<title>Knowledege Base&#45;&gt;Logic Programming</title>
<path fill="none" stroke="#b75867" d="M233.09,-388.05C244.92,-393.49 258.31,-399.05 271,-403 286.32,-407.77 303.09,-411.64 319.1,-414.73"/>
<polygon fill="#b75867" stroke="#b75867" points="318.48,-418.18 328.95,-416.56 319.76,-411.29 318.48,-418.18"/>
</g>
<!-- Data Structures -->
<g id="node41" class="node">
<title>Data Structures</title>
<g id="a_node41"><a xlink:href="/Knowledge/Data Structures.html" xlink:title="Data Structures" target="_parent">
<path fill="#273434" stroke="#b75867" d="M432,-406C432,-406 352,-406 352,-406 346,-406 340,-400 340,-394 340,-394 340,-382 340,-382 340,-376 346,-370 352,-370 352,-370 432,-370 432,-370 438,-370 444,-376 444,-382 444,-382 444,-394 444,-394 444,-400 438,-406 432,-406"/>
<text text-anchor="middle" x="392" y="-384.9" font-family="sans" font-size="12.00" fill="#c4c7c7">Data Structures</text>
</a>
</g>
</g>
<!-- Knowledege Base&#45;&gt;Data Structures -->
<g id="edge51" class="edge">
<title>Knowledege Base&#45;&gt;Data Structures</title>
<path fill="none" stroke="#b75867" d="M255.03,-375.35C278.62,-377.55 305.96,-380.09 329.9,-382.32"/>
<polygon fill="#b75867" stroke="#b75867" points="329.66,-385.81 339.94,-383.25 330.3,-378.84 329.66,-385.81"/>
</g>
<!-- Languages, Automata and Computation -->
<g id="node42" class="node">
<title>Languages, Automata and Computation</title>
<g id="a_node42"><a xlink:href="/Knowledge/Languages, Automata and Computation.html" xlink:title="Languages, Automata and Computation" target="_parent">
<path fill="#273434" stroke="#b75867" d="M501,-369C501,-369 283,-369 283,-369 277,-369 271,-363 271,-357 271,-357 271,-345 271,-345 271,-339 277,-333 283,-333 283,-333 501,-333 501,-333 507,-333 513,-339 513,-345 513,-345 513,-357 513,-357 513,-363 507,-369 501,-369"/>
<text text-anchor="middle" x="392" y="-347.9" font-family="sans" font-size="12.00" fill="#c4c7c7">Languages, Automata and Computation</text>
</a>
</g>
</g>
<!-- Knowledege Base&#45;&gt;Languages, Automata and Computation -->
<g id="edge52" class="edge">
<title>Knowledege Base&#45;&gt;Languages, Automata and Computation</title>
<path fill="none" stroke="#b75867" d="M255.03,-364.35C256.95,-364.16 258.9,-363.97 260.87,-363.78"/>
<polygon fill="#b75867" stroke="#b75867" points="261.25,-367.26 270.86,-362.8 260.57,-360.29 261.25,-367.26"/>
</g>
<!-- Operations Research -->
<g id="node43" class="node">
<title>Operations Research</title>
<g id="a_node43"><a xlink:href="/Knowledge/Operations Research.html" xlink:title="Operations Research" target="_parent">
<path fill="#273434" stroke="#b75867" d="M446.5,-332C446.5,-332 337.5,-332 337.5,-332 331.5,-332 325.5,-326 325.5,-320 325.5,-320 325.5,-308 325.5,-308 325.5,-302 331.5,-296 337.5,-296 337.5,-296 446.5,-296 446.5,-296 452.5,-296 458.5,-302 458.5,-308 458.5,-308 458.5,-320 458.5,-320 458.5,-326 452.5,-332 446.5,-332"/>
<text text-anchor="middle" x="392" y="-310.9" font-family="sans" font-size="12.00" fill="#c4c7c7">Operations Research</text>
</a>
</g>
</g>
<!-- Knowledege Base&#45;&gt;Operations Research -->
<g id="edge53" class="edge">
<title>Knowledege Base&#45;&gt;Operations Research</title>
<path fill="none" stroke="#b75867" d="M231.93,-351.9C244.02,-346.13 257.87,-340.17 271,-336 285.11,-331.52 300.45,-327.85 315.31,-324.88"/>
<polygon fill="#b75867" stroke="#b75867" points="316.33,-328.25 325.5,-322.93 315.02,-321.37 316.33,-328.25"/>
</g>
<!-- Differential Equations -->
<g id="node44" class="node">
<title>Differential Equations</title>
<g id="a_node44"><a xlink:href="/Knowledge/Differential Equations.html" xlink:title="Differential Equations" target="_parent">
<path fill="#273434" stroke="#b75867" d="M449,-295C449,-295 335,-295 335,-295 329,-295 323,-289 323,-283 323,-283 323,-271 323,-271 323,-265 329,-259 335,-259 335,-259 449,-259 449,-259 455,-259 461,-265 461,-271 461,-271 461,-283 461,-283 461,-289 455,-295 449,-295"/>
<text text-anchor="middle" x="392" y="-273.9" font-family="sans" font-size="12.00" fill="#c4c7c7">Differential Equations</text>
</a>
</g>
</g>
<!-- Knowledege Base&#45;&gt;Differential Equations -->
<g id="edge54" class="edge">
<title>Knowledege Base&#45;&gt;Differential Equations</title>
<path fill="none" stroke="#b75867" d="M211.12,-351.75C224.47,-335.25 246.38,-311.65 271,-299 283.86,-292.39 298.39,-287.74 312.79,-284.48"/>
<polygon fill="#b75867" stroke="#b75867" points="313.62,-287.88 322.71,-282.44 312.21,-281.03 313.62,-287.88"/>
</g>
<!-- OOP -->
<g id="node45" class="node">
<title>OOP</title>
<g id="a_node45"><a xlink:href="/Knowledge/OOP.html" xlink:title="OOP" target="_parent">
<path fill="#273434" stroke="#b75867" d="M407,-258C407,-258 377,-258 377,-258 371,-258 365,-252 365,-246 365,-246 365,-234 365,-234 365,-228 371,-222 377,-222 377,-222 407,-222 407,-222 413,-222 419,-228 419,-234 419,-234 419,-246 419,-246 419,-252 413,-258 407,-258"/>
<text text-anchor="middle" x="392" y="-236.9" font-family="sans" font-size="12.00" fill="#c4c7c7">OOP</text>
</a>
</g>
</g>
<!-- Knowledege Base&#45;&gt;OOP -->
<g id="edge55" class="edge">
<title>Knowledege Base&#45;&gt;OOP</title>
<path fill="none" stroke="#b75867" d="M204.57,-351.75C215.1,-327.15 237.36,-283.91 271,-262 295.69,-245.92 328.99,-240.82 354.24,-239.51"/>
<polygon fill="#b75867" stroke="#b75867" points="354.65,-243 364.53,-239.17 354.41,-236.01 354.65,-243"/>
</g>
<!-- Advanced Algebra -->
<g id="node46" class="node">
<title>Advanced Algebra</title>
<g id="a_node46"><a xlink:href="/Knowledge/Advanced Algebra.html" xlink:title="Advanced Algebra" target="_parent">
<path fill="#273434" stroke="#b75867" d="M439.5,-221C439.5,-221 344.5,-221 344.5,-221 338.5,-221 332.5,-215 332.5,-209 332.5,-209 332.5,-197 332.5,-197 332.5,-191 338.5,-185 344.5,-185 344.5,-185 439.5,-185 439.5,-185 445.5,-185 451.5,-191 451.5,-197 451.5,-197 451.5,-209 451.5,-209 451.5,-215 445.5,-221 439.5,-221"/>
<text text-anchor="middle" x="392" y="-199.9" font-family="sans" font-size="12.00" fill="#c4c7c7">Advanced Algebra</text>
</a>
</g>
</g>
<!-- Knowledege Base&#45;&gt;Advanced Algebra -->
<g id="edge57" class="edge">
<title>Knowledege Base&#45;&gt;Advanced Algebra</title>
<path fill="none" stroke="#b75867" d="M201.19,-351.96C208.57,-320.74 228.26,-256.92 271,-225 285.75,-213.99 304.31,-207.91 322.4,-204.7"/>
<polygon fill="#b75867" stroke="#b75867" points="323.01,-208.15 332.38,-203.19 321.97,-201.22 323.01,-208.15"/>
</g>
<!-- Introduction to programming -->
<g id="node47" class="node">
<title>Introduction to programming</title>
<g id="a_node47"><a xlink:href="/Knowledge/Introduction to programming.html" xlink:title="Introduction to programming" target="_parent">
<path fill="#273434" stroke="#b75867" d="M471.5,-184C471.5,-184 312.5,-184 312.5,-184 306.5,-184 300.5,-178 300.5,-172 300.5,-172 300.5,-160 300.5,-160 300.5,-154 306.5,-148 312.5,-148 312.5,-148 471.5,-148 471.5,-148 477.5,-148 483.5,-154 483.5,-160 483.5,-160 483.5,-172 483.5,-172 483.5,-178 477.5,-184 471.5,-184"/>
<text text-anchor="middle" x="392" y="-162.9" font-family="sans" font-size="12.00" fill="#c4c7c7">Introduction to programming</text>
</a>
</g>
</g>
<!-- Knowledege Base&#45;&gt;Introduction to programming -->
<g id="edge59" class="edge">
<title>Knowledege Base&#45;&gt;Introduction to programming</title>
<path fill="none" stroke="#b75867" d="M199.16,-351.93C203.57,-314.9 219.11,-230.32 271,-188 277.06,-183.06 283.87,-179.08 291.08,-175.9"/>
<polygon fill="#b75867" stroke="#b75867" points="292.35,-179.16 300.41,-172.28 289.82,-172.64 292.35,-179.16"/>
</g>
<!-- Analytic Geometry -->
<g id="node48" class="node">
<title>Analytic Geometry</title>
<g id="a_node48"><a xlink:href="/Knowledge/Analytic Geometry.html" xlink:title="Analytic Geometry" target="_parent">
<path fill="#273434" stroke="#b75867" d="M440.5,-147C440.5,-147 343.5,-147 343.5,-147 337.5,-147 331.5,-141 331.5,-135 331.5,-135 331.5,-123 331.5,-123 331.5,-117 337.5,-111 343.5,-111 343.5,-111 440.5,-111 440.5,-111 446.5,-111 452.5,-117 452.5,-123 452.5,-123 452.5,-135 452.5,-135 452.5,-141 446.5,-147 440.5,-147"/>
<text text-anchor="middle" x="392" y="-125.9" font-family="sans" font-size="12.00" fill="#c4c7c7">Analytic Geometry</text>
</a>
</g>
</g>
<!-- Knowledege Base&#45;&gt;Analytic Geometry -->
<g id="edge60" class="edge">
<title>Knowledege Base&#45;&gt;Analytic Geometry</title>
<path fill="none" stroke="#b75867" d="M197.76,-351.96C199.41,-309.74 209.78,-204.06 271,-151 284.91,-138.94 303.2,-132.54 321.3,-129.34"/>
<polygon fill="#b75867" stroke="#b75867" points="321.92,-132.78 331.31,-127.87 320.91,-125.86 321.92,-132.78"/>
</g>
<!-- Org Roam -->
<g id="node49" class="node">
<title>Org Roam</title>
<g id="a_node49"><a xlink:href="/Knowledge/Org Roam.html" xlink:title="Org Roam" target="_parent">
<path fill="#273434" stroke="#b75867" d="M416,-110C416,-110 368,-110 368,-110 362,-110 356,-104 356,-98 356,-98 356,-86 356,-86 356,-80 362,-74 368,-74 368,-74 416,-74 416,-74 422,-74 428,-80 428,-86 428,-86 428,-98 428,-98 428,-104 422,-110 416,-110"/>
<text text-anchor="middle" x="392" y="-88.9" font-family="sans" font-size="12.00" fill="#c4c7c7">Org Roam</text>
</a>
</g>
</g>
<!-- Knowledege Base&#45;&gt;Org Roam -->
<g id="edge63" class="edge">
<title>Knowledege Base&#45;&gt;Org Roam</title>
<path fill="none" stroke="#b75867" d="M196.74,-351.84C195.84,-304.75 200.42,-177.97 271,-114 290.98,-95.89 320.77,-90.35 345.66,-89.36"/>
<polygon fill="#b75867" stroke="#b75867" points="346.05,-92.86 355.99,-89.19 345.94,-85.86 346.05,-92.86"/>
</g>
<!-- Org&#45;mode -->
<g id="node50" class="node">
<title>Org&#45;mode</title>
<g id="a_node50"><a xlink:href="/Knowledge/Org-mode.html" xlink:title="Org&#45;mode" target="_parent">
<path fill="#273434" stroke="#b75867" d="M417,-73C417,-73 367,-73 367,-73 361,-73 355,-67 355,-61 355,-61 355,-49 355,-49 355,-43 361,-37 367,-37 367,-37 417,-37 417,-37 423,-37 429,-43 429,-49 429,-49 429,-61 429,-61 429,-67 423,-73 417,-73"/>
<text text-anchor="middle" x="392" y="-51.9" font-family="sans" font-size="12.00" fill="#c4c7c7">Org&#45;mode</text>
</a>
</g>
</g>
<!-- Knowledege Base&#45;&gt;Org&#45;mode -->
<g id="edge64" class="edge">
<title>Knowledege Base&#45;&gt;Org&#45;mode</title>
<path fill="none" stroke="#b75867" d="M199.53,-351.62C206.32,-293.5 230.16,-115.29 271,-77 290.47,-58.75 319.84,-53.13 344.66,-52.14"/>
<polygon fill="#b75867" stroke="#b75867" points="345.03,-55.63 354.97,-51.97 344.91,-48.63 345.03,-55.63"/>
</g>
<!-- Projects -->
<g id="node51" class="node">
<title>Projects</title>
<g id="a_node51"><a xlink:href="/Knowledge/Projects.html" xlink:title="Projects" target="_parent">
<path fill="none" stroke="#b75867" d="M411,-36C411,-36 373,-36 373,-36 367,-36 361,-30 361,-24 361,-24 361,-12 361,-12 361,-6 367,0 373,0 373,0 411,0 411,0 417,0 423,-6 423,-12 423,-12 423,-24 423,-24 423,-30 417,-36 411,-36"/>
<text text-anchor="middle" x="392" y="-14.9" font-family="sans" font-size="12.00" fill="#c4c7c7">Projects</text>
</a>
</g>
</g>
<!-- Knowledege Base&#45;&gt;Projects -->
<g id="edge65" class="edge">
<title>Knowledege Base&#45;&gt;Projects</title>
<path fill="none" stroke="#ffffff" d="M199.88,-341.38C206.51,-269.06 227.57,-81.82 271,-40 294.65,-17.23 333.65,-13.97 360.75,-14.94"/>
<polygon fill="#ffffff" stroke="#ffffff" points="196.38,-341.3 198.98,-351.57 203.35,-341.92 196.38,-341.3"/>
</g>
</g>
</svg>
