<?xml version="1.0" encoding="UTF-8" standalone="no"?>
<!DOCTYPE svg PUBLIC "-//W3C//DTD SVG 1.1//EN"
 "http://www.w3.org/Graphics/SVG/1.1/DTD/svg11.dtd">
<!-- Generated by graphviz version 2.44.0 (0)
 -->
<!-- Title: Evaluating Interpolation Error Pages: 1 -->
<svg width="810pt" height="155pt"
 viewBox="0.00 0.00 810.00 155.00" xmlns="http://www.w3.org/2000/svg" xmlns:xlink="http://www.w3.org/1999/xlink">
<g id="graph0" class="graph" transform="scale(1 1) rotate(0) translate(4 151)">
<title>Evaluating Interpolation Error</title>
<polygon fill="#132020" stroke="transparent" points="-4,4 -4,-151 806,-151 806,4 -4,4"/>
<!-- Evaluating Interpolation Error -->
<g id="node1" class="node">
<title>Evaluating Interpolation Error</title>
<g id="a_node1"><a xlink:href="/Knowledge/Evaluating Interpolation Error.html" xlink:title="Evaluating Interpolation Error" target="_parent">
<path fill="#273434" stroke="#b75867" d="M173,-73C173,-73 12,-73 12,-73 6,-73 0,-67 0,-61 0,-61 0,-49 0,-49 0,-43 6,-37 12,-37 12,-37 173,-37 173,-37 179,-37 185,-43 185,-49 185,-49 185,-61 185,-61 185,-67 179,-73 173,-73"/>
<text text-anchor="middle" x="92.5" y="-51.9" font-family="sans" font-size="12.00" fill="#c4c7c7">Evaluating Interpolation Error</text>
</a>
</g>
</g>
<!-- Lagrange Interpolation -->
<g id="node2" class="node">
<title>Lagrange Interpolation</title>
<g id="a_node2"><a xlink:href="/Knowledge/Lagrange Interpolation.html" xlink:title="Lagrange Interpolation" target="_parent">
<path fill="#273434" stroke="#b75867" d="M429,-110C429,-110 306,-110 306,-110 300,-110 294,-104 294,-98 294,-98 294,-86 294,-86 294,-80 300,-74 306,-74 306,-74 429,-74 429,-74 435,-74 441,-80 441,-86 441,-86 441,-98 441,-98 441,-104 435,-110 429,-110"/>
<text text-anchor="middle" x="367.5" y="-88.9" font-family="sans" font-size="12.00" fill="#c4c7c7">Lagrange Interpolation</text>
</a>
</g>
</g>
<!-- Evaluating Interpolation Error&#45;&gt;Lagrange Interpolation -->
<g id="edge1" class="edge">
<title>Evaluating Interpolation Error&#45;&gt;Lagrange Interpolation</title>
<path fill="none" stroke="#b75867" d="M185.11,-68.89C187.77,-69.27 190.4,-69.64 193,-70 222.59,-74.11 255.07,-78.31 283.84,-81.92"/>
<polygon fill="#b75867" stroke="#b75867" points="283.49,-85.4 293.85,-83.17 284.36,-78.46 283.49,-85.4"/>
</g>
<!-- Rolle Theorem -->
<g id="node3" class="node">
<title>Rolle Theorem</title>
<g id="a_node3"><a xlink:href="/Knowledge/Rolle Theorem.html" xlink:title="Rolle Theorem" target="_parent">
<path fill="#273434" stroke="#b75867" d="M406,-73C406,-73 329,-73 329,-73 323,-73 317,-67 317,-61 317,-61 317,-49 317,-49 317,-43 323,-37 329,-37 329,-37 406,-37 406,-37 412,-37 418,-43 418,-49 418,-49 418,-61 418,-61 418,-67 412,-73 406,-73"/>
<text text-anchor="middle" x="367.5" y="-51.9" font-family="sans" font-size="12.00" fill="#c4c7c7">Rolle Theorem</text>
</a>
</g>
</g>
<!-- Evaluating Interpolation Error&#45;&gt;Rolle Theorem -->
<g id="edge2" class="edge">
<title>Evaluating Interpolation Error&#45;&gt;Rolle Theorem</title>
<path fill="none" stroke="#b75867" d="M185.16,-55C225.2,-55 271.03,-55 306.6,-55"/>
<polygon fill="#b75867" stroke="#b75867" points="306.82,-58.5 316.82,-55 306.82,-51.5 306.82,-58.5"/>
</g>
<!-- Fundamental extremal property of Chebyshev polynomials -->
<g id="node4" class="node">
<title>Fundamental extremal property of Chebyshev polynomials</title>
<g id="a_node4"><a xlink:href="/Knowledge/Fundamental extremal property of Chebyshev polynomials.html" xlink:title="Fundamental extremal property of Chebyshev polynomials" target="_parent">
<path fill="none" stroke="#b75867" d="M530,-36C530,-36 205,-36 205,-36 199,-36 193,-30 193,-24 193,-24 193,-12 193,-12 193,-6 199,0 205,0 205,0 530,0 530,0 536,0 542,-6 542,-12 542,-12 542,-24 542,-24 542,-30 536,-36 530,-36"/>
<text text-anchor="middle" x="367.5" y="-14.9" font-family="sans" font-size="12.00" fill="#c4c7c7">Fundamental extremal property of Chebyshev polynomials</text>
</a>
</g>
</g>
<!-- Evaluating Interpolation Error&#45;&gt;Fundamental extremal property of Chebyshev polynomials -->
<g id="edge3" class="edge">
<title>Evaluating Interpolation Error&#45;&gt;Fundamental extremal property of Chebyshev polynomials</title>
<path fill="none" stroke="#ffffff" d="M195.16,-39.71C206.6,-38.13 214.32,-37.08 222.09,-36.05"/>
<polygon fill="#ffffff" stroke="#ffffff" points="194.54,-36.26 185.11,-41.11 195.5,-43.2 194.54,-36.26"/>
</g>
<!-- Lagrange Interpolation&#45;&gt;Evaluating Interpolation Error -->
<g id="edge7" class="edge">
<title>Lagrange Interpolation&#45;&gt;Evaluating Interpolation Error</title>
<path fill="none" stroke="#ffffff" d="M283.84,-82.86C255.07,-79.31 222.59,-75.11 193,-71 190.4,-70.64 187.77,-70.27 185.11,-69.89"/>
<polygon fill="#ffffff" stroke="#ffffff" points="283.5,-86.35 293.85,-84.09 284.35,-79.4 283.5,-86.35"/>
</g>
<!-- Lagrange Interpolation Problem -->
<g id="node5" class="node">
<title>Lagrange Interpolation Problem</title>
<g id="a_node5"><a xlink:href="/Knowledge/Lagrange Interpolation Problem.html" xlink:title="Lagrange Interpolation Problem" target="_parent">
<path fill="#273434" stroke="#b75867" d="M763.5,-147C763.5,-147 588.5,-147 588.5,-147 582.5,-147 576.5,-141 576.5,-135 576.5,-135 576.5,-123 576.5,-123 576.5,-117 582.5,-111 588.5,-111 588.5,-111 763.5,-111 763.5,-111 769.5,-111 775.5,-117 775.5,-123 775.5,-123 775.5,-135 775.5,-135 775.5,-141 769.5,-147 763.5,-147"/>
<text text-anchor="middle" x="676" y="-125.9" font-family="sans" font-size="12.00" fill="#c4c7c7">Lagrange Interpolation Problem</text>
</a>
</g>
</g>
<!-- Lagrange Interpolation&#45;&gt;Lagrange Interpolation Problem -->
<g id="edge4" class="edge">
<title>Lagrange Interpolation&#45;&gt;Lagrange Interpolation Problem</title>
<path fill="none" stroke="#b75867" d="M441.14,-100.77C478.42,-105.27 524.61,-110.85 566.07,-115.85"/>
<polygon fill="#b75867" stroke="#b75867" points="565.87,-119.35 576.22,-117.07 566.71,-112.4 565.87,-119.35"/>
</g>
<!-- Numeric Methods -->
<g id="node6" class="node">
<title>Numeric Methods</title>
<g id="a_node6"><a xlink:href="/Knowledge/Numeric Methods.html" xlink:title="Numeric Methods" target="_parent">
<path fill="none" stroke="#b75867" d="M722,-110C722,-110 630,-110 630,-110 624,-110 618,-104 618,-98 618,-98 618,-86 618,-86 618,-80 624,-74 630,-74 630,-74 722,-74 722,-74 728,-74 734,-80 734,-86 734,-86 734,-98 734,-98 734,-104 728,-110 722,-110"/>
<text text-anchor="middle" x="676" y="-88.9" font-family="sans" font-size="12.00" fill="#c4c7c7">Numeric Methods</text>
</a>
</g>
</g>
<!-- Lagrange Interpolation&#45;&gt;Numeric Methods -->
<g id="edge5" class="edge">
<title>Lagrange Interpolation&#45;&gt;Numeric Methods</title>
<path fill="none" stroke="#ffffff" d="M451.14,-92C503.84,-92 570.81,-92 617.71,-92"/>
<polygon fill="#ffffff" stroke="#ffffff" points="451.14,-88.5 441.14,-92 451.14,-95.5 451.14,-88.5"/>
</g>
<!-- Extrapolation -->
<g id="node7" class="node">
<title>Extrapolation</title>
<g id="a_node7"><a xlink:href="/Knowledge/Extrapolation.html" xlink:title="Extrapolation" target="_parent">
<path fill="none" stroke="#b75867" d="M710.5,-73C710.5,-73 641.5,-73 641.5,-73 635.5,-73 629.5,-67 629.5,-61 629.5,-61 629.5,-49 629.5,-49 629.5,-43 635.5,-37 641.5,-37 641.5,-37 710.5,-37 710.5,-37 716.5,-37 722.5,-43 722.5,-49 722.5,-49 722.5,-61 722.5,-61 722.5,-67 716.5,-73 710.5,-73"/>
<text text-anchor="middle" x="676" y="-51.9" font-family="sans" font-size="12.00" fill="#c4c7c7">Extrapolation</text>
</a>
</g>
</g>
<!-- Lagrange Interpolation&#45;&gt;Extrapolation -->
<g id="edge6" class="edge">
<title>Lagrange Interpolation&#45;&gt;Extrapolation</title>
<path fill="none" stroke="#ffffff" d="M451.23,-82.01C508.34,-75.12 582.15,-66.21 629.05,-60.55"/>
<polygon fill="#ffffff" stroke="#ffffff" points="450.64,-78.56 441.14,-83.23 451.48,-85.51 450.64,-78.56"/>
</g>
<!-- Rolle Theorem&#45;&gt;Evaluating Interpolation Error -->
<g id="edge8" class="edge">
<title>Rolle Theorem&#45;&gt;Evaluating Interpolation Error</title>
<path fill="none" stroke="#ffffff" d="M306.6,-55.63C271.03,-55.76 225.2,-55.78 185.16,-55.71"/>
<polygon fill="#ffffff" stroke="#ffffff" points="306.83,-59.13 316.82,-55.59 306.81,-52.13 306.83,-59.13"/>
</g>
<!-- Fundamental extremal property of Chebyshev polynomials&#45;&gt;Evaluating Interpolation Error -->
<g id="edge9" class="edge">
<title>Fundamental extremal property of Chebyshev polynomials&#45;&gt;Evaluating Interpolation Error</title>
<path fill="none" stroke="#b75867" d="M229.61,-36.05C219.45,-37.39 209.32,-38.75 195.09,-40.72"/>
<polygon fill="#b75867" stroke="#b75867" points="194.54,-37.26 185.11,-42.11 195.5,-44.2 194.54,-37.26"/>
</g>
<!-- Extreme points of Chebyshev polynomials -->
<g id="node8" class="node">
<title>Extreme points of Chebyshev polynomials</title>
<g id="a_node8"><a xlink:href="/Knowledge/Extreme points of Chebyshev polynomials.html" xlink:title="Extreme points of Chebyshev polynomials" target="_parent">
<path fill="#273434" stroke="#b75867" d="M790,-36C790,-36 562,-36 562,-36 556,-36 550,-30 550,-24 550,-24 550,-12 550,-12 550,-6 556,0 562,0 562,0 790,0 790,0 796,0 802,-6 802,-12 802,-12 802,-24 802,-24 802,-30 796,-36 790,-36"/>
<text text-anchor="middle" x="676" y="-14.9" font-family="sans" font-size="12.00" fill="#c4c7c7">Extreme points of Chebyshev polynomials</text>
</a>
</g>
</g>
<!-- Fundamental extremal property of Chebyshev polynomials&#45;&gt;Extreme points of Chebyshev polynomials -->
<g id="edge10" class="edge">
<title>Fundamental extremal property of Chebyshev polynomials&#45;&gt;Extreme points of Chebyshev polynomials</title>
<path fill="none" stroke="#b75867" d="M542.35,-18C542.5,-18 542.65,-18 542.8,-18"/>
<polygon fill="#b75867" stroke="#b75867" points="539.62,-21.5 549.62,-18 539.62,-14.5 539.62,-21.5"/>
</g>
</g>
</svg>
