<?xml version="1.0" encoding="UTF-8" standalone="no"?>
<!DOCTYPE svg PUBLIC "-//W3C//DTD SVG 1.1//EN"
 "http://www.w3.org/Graphics/SVG/1.1/DTD/svg11.dtd">
<!-- Generated by graphviz version 2.44.0 (0)
 -->
<!-- Title: Fundamental extremal property of Chebyshev polynomials Pages: 1 -->
<svg width="772pt" height="118pt"
 viewBox="0.00 0.00 772.00 118.00" xmlns="http://www.w3.org/2000/svg" xmlns:xlink="http://www.w3.org/1999/xlink">
<g id="graph0" class="graph" transform="scale(1 1) rotate(0) translate(4 114)">
<title>Fundamental extremal property of Chebyshev polynomials</title>
<polygon fill="#132020" stroke="transparent" points="-4,4 -4,-114 768,-114 768,4 -4,4"/>
<!-- Fundamental extremal property of Chebyshev polynomials -->
<g id="node1" class="node">
<title>Fundamental extremal property of Chebyshev polynomials</title>
<g id="a_node1"><a xlink:href="/Knowledge/Fundamental extremal property of Chebyshev polynomials.html" xlink:title="Fundamental extremal property of Chebyshev polynomials" target="_parent">
<path fill="#273434" stroke="#b75867" d="M337,-54C337,-54 12,-54 12,-54 6,-54 0,-48 0,-42 0,-42 0,-30 0,-30 0,-24 6,-18 12,-18 12,-18 337,-18 337,-18 343,-18 349,-24 349,-30 349,-30 349,-42 349,-42 349,-48 343,-54 337,-54"/>
<text text-anchor="middle" x="174.5" y="-32.9" font-family="sans" font-size="12.00" fill="#c4c7c7">Fundamental extremal property of Chebyshev polynomials</text>
</a>
</g>
</g>
<!-- Evaluating Interpolation Error -->
<g id="node2" class="node">
<title>Evaluating Interpolation Error</title>
<g id="a_node2"><a xlink:href="/Knowledge/Evaluating Interpolation Error.html" xlink:title="Evaluating Interpolation Error" target="_parent">
<path fill="#273434" stroke="#b75867" d="M563.5,-73C563.5,-73 402.5,-73 402.5,-73 396.5,-73 390.5,-67 390.5,-61 390.5,-61 390.5,-49 390.5,-49 390.5,-43 396.5,-37 402.5,-37 402.5,-37 563.5,-37 563.5,-37 569.5,-37 575.5,-43 575.5,-49 575.5,-49 575.5,-61 575.5,-61 575.5,-67 569.5,-73 563.5,-73"/>
<text text-anchor="middle" x="483" y="-51.9" font-family="sans" font-size="12.00" fill="#c4c7c7">Evaluating Interpolation Error</text>
</a>
</g>
</g>
<!-- Fundamental extremal property of Chebyshev polynomials&#45;&gt;Evaluating Interpolation Error -->
<g id="edge1" class="edge">
<title>Fundamental extremal property of Chebyshev polynomials&#45;&gt;Evaluating Interpolation Error</title>
<path fill="none" stroke="#b75867" d="M349.35,-46.78C359.78,-47.42 370.08,-48.06 380.05,-48.68"/>
<polygon fill="#b75867" stroke="#b75867" points="380.11,-52.19 390.31,-49.32 380.55,-45.2 380.11,-52.19"/>
</g>
<!-- Extreme points of Chebyshev polynomials -->
<g id="node3" class="node">
<title>Extreme points of Chebyshev polynomials</title>
<g id="a_node3"><a xlink:href="/Knowledge/Extreme points of Chebyshev polynomials.html" xlink:title="Extreme points of Chebyshev polynomials" target="_parent">
<path fill="#273434" stroke="#b75867" d="M597,-36C597,-36 369,-36 369,-36 363,-36 357,-30 357,-24 357,-24 357,-12 357,-12 357,-6 363,0 369,0 369,0 597,0 597,0 603,0 609,-6 609,-12 609,-12 609,-24 609,-24 609,-30 603,-36 597,-36"/>
<text text-anchor="middle" x="483" y="-14.9" font-family="sans" font-size="12.00" fill="#c4c7c7">Extreme points of Chebyshev polynomials</text>
</a>
</g>
</g>
<!-- Fundamental extremal property of Chebyshev polynomials&#45;&gt;Extreme points of Chebyshev polynomials -->
<g id="edge2" class="edge">
<title>Fundamental extremal property of Chebyshev polynomials&#45;&gt;Extreme points of Chebyshev polynomials</title>
<path fill="none" stroke="#b75867" d="M349.35,-25.79C349.5,-25.78 349.65,-25.77 349.8,-25.76"/>
<polygon fill="#b75867" stroke="#b75867" points="346.84,-29.44 356.62,-25.36 346.43,-22.46 346.84,-29.44"/>
</g>
<!-- Evaluating Interpolation Error&#45;&gt;Fundamental extremal property of Chebyshev polynomials -->
<g id="edge5" class="edge">
<title>Evaluating Interpolation Error&#45;&gt;Fundamental extremal property of Chebyshev polynomials</title>
<path fill="none" stroke="#ffffff" d="M380.05,-49.39C370.08,-48.79 359.78,-48.16 349.35,-47.52"/>
<polygon fill="#ffffff" stroke="#ffffff" points="380.12,-52.9 390.31,-50.01 380.54,-45.91 380.12,-52.9"/>
</g>
<!-- Lagrange Interpolation -->
<g id="node4" class="node">
<title>Lagrange Interpolation</title>
<g id="a_node4"><a xlink:href="/Knowledge/Lagrange Interpolation.html" xlink:title="Lagrange Interpolation" target="_parent">
<path fill="#273434" stroke="#b75867" d="M752,-110C752,-110 629,-110 629,-110 623,-110 617,-104 617,-98 617,-98 617,-86 617,-86 617,-80 623,-74 629,-74 629,-74 752,-74 752,-74 758,-74 764,-80 764,-86 764,-86 764,-98 764,-98 764,-104 758,-110 752,-110"/>
<text text-anchor="middle" x="690.5" y="-88.9" font-family="sans" font-size="12.00" fill="#c4c7c7">Lagrange Interpolation</text>
</a>
</g>
</g>
<!-- Evaluating Interpolation Error&#45;&gt;Lagrange Interpolation -->
<g id="edge3" class="edge">
<title>Evaluating Interpolation Error&#45;&gt;Lagrange Interpolation</title>
<path fill="none" stroke="#b75867" d="M575.63,-71.5C585.99,-73.36 596.49,-75.25 606.73,-77.1"/>
<polygon fill="#b75867" stroke="#b75867" points="606.39,-80.59 616.85,-78.92 607.63,-73.7 606.39,-80.59"/>
</g>
<!-- Rolle Theorem -->
<g id="node5" class="node">
<title>Rolle Theorem</title>
<g id="a_node5"><a xlink:href="/Knowledge/Rolle Theorem.html" xlink:title="Rolle Theorem" target="_parent">
<path fill="#273434" stroke="#b75867" d="M729,-73C729,-73 652,-73 652,-73 646,-73 640,-67 640,-61 640,-61 640,-49 640,-49 640,-43 646,-37 652,-37 652,-37 729,-37 729,-37 735,-37 741,-43 741,-49 741,-49 741,-61 741,-61 741,-67 735,-73 729,-73"/>
<text text-anchor="middle" x="690.5" y="-51.9" font-family="sans" font-size="12.00" fill="#c4c7c7">Rolle Theorem</text>
</a>
</g>
</g>
<!-- Evaluating Interpolation Error&#45;&gt;Rolle Theorem -->
<g id="edge4" class="edge">
<title>Evaluating Interpolation Error&#45;&gt;Rolle Theorem</title>
<path fill="none" stroke="#b75867" d="M575.63,-55C593.89,-55 612.62,-55 629.49,-55"/>
<polygon fill="#b75867" stroke="#b75867" points="629.72,-58.5 639.72,-55 629.72,-51.5 629.72,-58.5"/>
</g>
<!-- Extreme points of Chebyshev polynomials&#45;&gt;Fundamental extremal property of Chebyshev polynomials -->
<g id="edge7" class="edge">
<title>Extreme points of Chebyshev polynomials&#45;&gt;Fundamental extremal property of Chebyshev polynomials</title>
<path fill="none" stroke="#ffffff" d="M349.8,-26.51C349.65,-26.52 349.5,-26.53 349.35,-26.53"/>
<polygon fill="#ffffff" stroke="#ffffff" points="346.85,-30.19 356.62,-26.1 346.43,-23.2 346.85,-30.19"/>
</g>
<!-- Chebyshev Polynomial -->
<g id="node6" class="node">
<title>Chebyshev Polynomial</title>
<g id="a_node6"><a xlink:href="/Knowledge/Chebyshev Polynomial.html" xlink:title="Chebyshev Polynomial" target="_parent">
<path fill="#273434" stroke="#b75867" d="M751,-36C751,-36 630,-36 630,-36 624,-36 618,-30 618,-24 618,-24 618,-12 618,-12 618,-6 624,0 630,0 630,0 751,0 751,0 757,0 763,-6 763,-12 763,-12 763,-24 763,-24 763,-30 757,-36 751,-36"/>
<text text-anchor="middle" x="690.5" y="-14.9" font-family="sans" font-size="12.00" fill="#c4c7c7">Chebyshev Polynomial</text>
</a>
</g>
</g>
<!-- Extreme points of Chebyshev polynomials&#45;&gt;Chebyshev Polynomial -->
<g id="edge6" class="edge">
<title>Extreme points of Chebyshev polynomials&#45;&gt;Chebyshev Polynomial</title>
<path fill="none" stroke="#b75867" d="M609.17,-18C609.25,-18 609.34,-18 609.43,-18"/>
<polygon fill="#b75867" stroke="#b75867" points="607.63,-21.5 617.63,-18 607.63,-14.5 607.63,-21.5"/>
</g>
</g>
</svg>
