<?xml version="1.0" encoding="UTF-8" standalone="no"?>
<!DOCTYPE svg PUBLIC "-//W3C//DTD SVG 1.1//EN"
 "http://www.w3.org/Graphics/SVG/1.1/DTD/svg11.dtd">
<!-- Generated by graphviz version 2.44.0 (0)
 -->
<!-- Title: Fundamental Theorem of Algebra Pages: 1 -->
<svg width="804pt" height="636pt"
 viewBox="0.00 0.00 804.00 636.00" xmlns="http://www.w3.org/2000/svg" xmlns:xlink="http://www.w3.org/1999/xlink">
<g id="graph0" class="graph" transform="scale(1 1) rotate(0) translate(4 632)">
<title>Fundamental Theorem of Algebra</title>
<polygon fill="#132020" stroke="transparent" points="-4,4 -4,-632 800,-632 800,4 -4,4"/>
<!-- Fundamental Theorem of Algebra -->
<g id="node1" class="node">
<title>Fundamental Theorem of Algebra</title>
<g id="a_node1"><a xlink:href="/Knowledge/Fundamental Theorem of Algebra.html" xlink:title="Fundamental Theorem of Algebra" target="_parent">
<path fill="#273434" stroke="#b75867" d="M197,-332C197,-332 12,-332 12,-332 6,-332 0,-326 0,-320 0,-320 0,-308 0,-308 0,-302 6,-296 12,-296 12,-296 197,-296 197,-296 203,-296 209,-302 209,-308 209,-308 209,-320 209,-320 209,-326 203,-332 197,-332"/>
<text text-anchor="middle" x="104.5" y="-310.9" font-family="sans" font-size="12.00" fill="#c4c7c7">Fundamental Theorem of Algebra</text>
</a>
</g>
</g>
<!-- Recurrent Equations -->
<g id="node2" class="node">
<title>Recurrent Equations</title>
<g id="a_node2"><a xlink:href="/Knowledge/Recurrent Equations.html" xlink:title="Recurrent Equations" target="_parent">
<path fill="none" stroke="#b75867" d="M370,-517C370,-517 263,-517 263,-517 257,-517 251,-511 251,-505 251,-505 251,-493 251,-493 251,-487 257,-481 263,-481 263,-481 370,-481 370,-481 376,-481 382,-487 382,-493 382,-493 382,-505 382,-505 382,-511 376,-517 370,-517"/>
<text text-anchor="middle" x="316.5" y="-495.9" font-family="sans" font-size="12.00" fill="#c4c7c7">Recurrent Equations</text>
</a>
</g>
</g>
<!-- Fundamental Theorem of Algebra&#45;&gt;Recurrent Equations -->
<g id="edge1" class="edge">
<title>Fundamental Theorem of Algebra&#45;&gt;Recurrent Equations</title>
<path fill="none" stroke="#ffffff" d="M133.55,-338.71C176.37,-376.44 257.04,-447.5 294.9,-480.85"/>
<polygon fill="#ffffff" stroke="#ffffff" points="135.84,-336.06 126.02,-332.08 131.21,-341.31 135.84,-336.06"/>
</g>
<!-- Linear Algebra -->
<g id="node3" class="node">
<title>Linear Algebra</title>
<g id="a_node3"><a xlink:href="/Knowledge/Linear Algebra.html" xlink:title="Linear Algebra" target="_parent">
<path fill="none" stroke="#b75867" d="M353.5,-332C353.5,-332 279.5,-332 279.5,-332 273.5,-332 267.5,-326 267.5,-320 267.5,-320 267.5,-308 267.5,-308 267.5,-302 273.5,-296 279.5,-296 279.5,-296 353.5,-296 353.5,-296 359.5,-296 365.5,-302 365.5,-308 365.5,-308 365.5,-320 365.5,-320 365.5,-326 359.5,-332 353.5,-332"/>
<text text-anchor="middle" x="316.5" y="-310.9" font-family="sans" font-size="12.00" fill="#c4c7c7">Linear Algebra</text>
</a>
</g>
</g>
<!-- Fundamental Theorem of Algebra&#45;&gt;Linear Algebra -->
<g id="edge2" class="edge">
<title>Fundamental Theorem of Algebra&#45;&gt;Linear Algebra</title>
<path fill="none" stroke="#ffffff" d="M219.28,-314C236.25,-314 252.9,-314 267.46,-314"/>
<polygon fill="#ffffff" stroke="#ffffff" points="219.27,-310.5 209.27,-314 219.27,-317.5 219.27,-310.5"/>
</g>
<!-- Lagrange Interpolation Problem -->
<g id="node4" class="node">
<title>Lagrange Interpolation Problem</title>
<g id="a_node4"><a xlink:href="/Knowledge/Lagrange Interpolation Problem.html" xlink:title="Lagrange Interpolation Problem" target="_parent">
<path fill="none" stroke="#b75867" d="M404,-166C404,-166 229,-166 229,-166 223,-166 217,-160 217,-154 217,-154 217,-142 217,-142 217,-136 223,-130 229,-130 229,-130 404,-130 404,-130 410,-130 416,-136 416,-142 416,-142 416,-154 416,-154 416,-160 410,-166 404,-166"/>
<text text-anchor="middle" x="316.5" y="-144.9" font-family="sans" font-size="12.00" fill="#c4c7c7">Lagrange Interpolation Problem</text>
</a>
</g>
</g>
<!-- Fundamental Theorem of Algebra&#45;&gt;Lagrange Interpolation Problem -->
<g id="edge3" class="edge">
<title>Fundamental Theorem of Algebra&#45;&gt;Lagrange Interpolation Problem</title>
<path fill="none" stroke="#ffffff" d="M136.43,-289.55C179.04,-255.87 254.8,-195.98 292.65,-166.06"/>
<polygon fill="#ffffff" stroke="#ffffff" points="134.05,-286.97 128.37,-295.92 138.39,-292.46 134.05,-286.97"/>
</g>
<!-- Recurrent Equations&#45;&gt;Fundamental Theorem of Algebra -->
<g id="edge6" class="edge">
<title>Recurrent Equations&#45;&gt;Fundamental Theorem of Algebra</title>
<path fill="none" stroke="#b75867" d="M294.49,-480.97C256.34,-447.71 175.67,-376.66 133.12,-338.86"/>
<polygon fill="#b75867" stroke="#b75867" points="135.43,-336.23 125.64,-332.2 130.78,-341.46 135.43,-336.23"/>
</g>
<!-- Set -->
<g id="node5" class="node">
<title>Set</title>
<g id="a_node5"><a xlink:href="/Knowledge/Set.html" xlink:title="Set" target="_parent">
<path fill="#273434" stroke="#b75867" d="M625,-628C625,-628 595,-628 595,-628 589,-628 583,-622 583,-616 583,-616 583,-604 583,-604 583,-598 589,-592 595,-592 595,-592 625,-592 625,-592 631,-592 637,-598 637,-604 637,-604 637,-616 637,-616 637,-622 631,-628 625,-628"/>
<text text-anchor="middle" x="610" y="-606.9" font-family="sans" font-size="12.00" fill="#c4c7c7">Set</text>
</a>
</g>
</g>
<!-- Recurrent Equations&#45;&gt;Set -->
<g id="edge4" class="edge">
<title>Recurrent Equations&#45;&gt;Set</title>
<path fill="none" stroke="#b75867" d="M333.08,-517.26C352.17,-538.25 386.61,-571.87 424,-588 472.46,-608.9 534.29,-612.1 572.77,-611.67"/>
<polygon fill="#b75867" stroke="#b75867" points="573.05,-615.16 582.98,-611.46 572.91,-608.16 573.05,-615.16"/>
</g>
<!-- Multiset -->
<g id="node6" class="node">
<title>Multiset</title>
<g id="a_node6"><a xlink:href="/Knowledge/Multiset.html" xlink:title="Multiset" target="_parent">
<path fill="#273434" stroke="#b75867" d="M629,-591C629,-591 591,-591 591,-591 585,-591 579,-585 579,-579 579,-579 579,-567 579,-567 579,-561 585,-555 591,-555 591,-555 629,-555 629,-555 635,-555 641,-561 641,-567 641,-567 641,-579 641,-579 641,-585 635,-591 629,-591"/>
<text text-anchor="middle" x="610" y="-569.9" font-family="sans" font-size="12.00" fill="#c4c7c7">Multiset</text>
</a>
</g>
</g>
<!-- Recurrent Equations&#45;&gt;Multiset -->
<g id="edge5" class="edge">
<title>Recurrent Equations&#45;&gt;Multiset</title>
<path fill="none" stroke="#b75867" d="M347.61,-517.1C368.36,-528.71 396.96,-543.04 424,-551 472.5,-565.28 530.74,-570.32 568.75,-572.08"/>
<polygon fill="#b75867" stroke="#b75867" points="568.77,-575.59 578.91,-572.5 569.06,-568.59 568.77,-575.59"/>
</g>
<!-- Chebyshev Polynomial -->
<g id="node7" class="node">
<title>Chebyshev Polynomial</title>
<g id="a_node7"><a xlink:href="/Knowledge/Chebyshev Polynomial.html" xlink:title="Chebyshev Polynomial" target="_parent">
<path fill="none" stroke="#b75867" d="M670.5,-554C670.5,-554 549.5,-554 549.5,-554 543.5,-554 537.5,-548 537.5,-542 537.5,-542 537.5,-530 537.5,-530 537.5,-524 543.5,-518 549.5,-518 549.5,-518 670.5,-518 670.5,-518 676.5,-518 682.5,-524 682.5,-530 682.5,-530 682.5,-542 682.5,-542 682.5,-548 676.5,-554 670.5,-554"/>
<text text-anchor="middle" x="610" y="-532.9" font-family="sans" font-size="12.00" fill="#c4c7c7">Chebyshev Polynomial</text>
</a>
</g>
</g>
<!-- Recurrent Equations&#45;&gt;Chebyshev Polynomial -->
<g id="edge7" class="edge">
<title>Recurrent Equations&#45;&gt;Chebyshev Polynomial</title>
<path fill="none" stroke="#ffffff" d="M392.35,-509.75C402.97,-511.21 413.76,-512.67 424,-514 461.37,-518.85 503.04,-523.84 537.36,-527.84"/>
<polygon fill="#ffffff" stroke="#ffffff" points="392.62,-506.25 382.24,-508.35 391.66,-513.19 392.62,-506.25"/>
</g>
<!-- Discrete Structures -->
<g id="node8" class="node">
<title>Discrete Structures</title>
<g id="a_node8"><a xlink:href="/Knowledge/Discrete Structures.html" xlink:title="Discrete Structures" target="_parent">
<path fill="none" stroke="#b75867" d="M659,-517C659,-517 561,-517 561,-517 555,-517 549,-511 549,-505 549,-505 549,-493 549,-493 549,-487 555,-481 561,-481 561,-481 659,-481 659,-481 665,-481 671,-487 671,-493 671,-493 671,-505 671,-505 671,-511 665,-517 659,-517"/>
<text text-anchor="middle" x="610" y="-495.9" font-family="sans" font-size="12.00" fill="#c4c7c7">Discrete Structures</text>
</a>
</g>
</g>
<!-- Recurrent Equations&#45;&gt;Discrete Structures -->
<g id="edge8" class="edge">
<title>Recurrent Equations&#45;&gt;Discrete Structures</title>
<path fill="none" stroke="#ffffff" d="M392.35,-499C441,-499 503.58,-499 548.96,-499"/>
<polygon fill="#ffffff" stroke="#ffffff" points="392.19,-495.5 382.19,-499 392.19,-502.5 392.19,-495.5"/>
</g>
<!-- Divided Differences -->
<g id="node9" class="node">
<title>Divided Differences</title>
<g id="a_node9"><a xlink:href="/Knowledge/Divided Differences.html" xlink:title="Divided Differences" target="_parent">
<path fill="none" stroke="#b75867" d="M660,-480C660,-480 560,-480 560,-480 554,-480 548,-474 548,-468 548,-468 548,-456 548,-456 548,-450 554,-444 560,-444 560,-444 660,-444 660,-444 666,-444 672,-450 672,-456 672,-456 672,-468 672,-468 672,-474 666,-480 660,-480"/>
<text text-anchor="middle" x="610" y="-458.9" font-family="sans" font-size="12.00" fill="#c4c7c7">Divided Differences</text>
</a>
</g>
</g>
<!-- Recurrent Equations&#45;&gt;Divided Differences -->
<g id="edge9" class="edge">
<title>Recurrent Equations&#45;&gt;Divided Differences</title>
<path fill="none" stroke="#ffffff" d="M392.35,-488.25C402.97,-486.79 413.76,-485.33 424,-484 465.22,-478.65 511.67,-473.13 547.71,-468.95"/>
<polygon fill="#ffffff" stroke="#ffffff" points="391.66,-484.81 382.24,-489.65 392.62,-491.75 391.66,-484.81"/>
</g>
<!-- Linear Algebra&#45;&gt;Fundamental Theorem of Algebra -->
<g id="edge15" class="edge">
<title>Linear Algebra&#45;&gt;Fundamental Theorem of Algebra</title>
<path fill="none" stroke="#b75867" d="M267.46,-314.64C252.9,-314.7 236.25,-314.74 219.28,-314.75"/>
<polygon fill="#b75867" stroke="#b75867" points="219.27,-311.25 209.27,-314.75 219.27,-318.25 219.27,-311.25"/>
</g>
<!-- Matrix -->
<g id="node10" class="node">
<title>Matrix</title>
<g id="a_node10"><a xlink:href="/Knowledge/Matrix.html" xlink:title="Matrix" target="_parent">
<path fill="#273434" stroke="#b75867" d="M625,-443C625,-443 595,-443 595,-443 589,-443 583,-437 583,-431 583,-431 583,-419 583,-419 583,-413 589,-407 595,-407 595,-407 625,-407 625,-407 631,-407 637,-413 637,-419 637,-419 637,-431 637,-431 637,-437 631,-443 625,-443"/>
<text text-anchor="middle" x="610" y="-421.9" font-family="sans" font-size="12.00" fill="#c4c7c7">Matrix</text>
</a>
</g>
</g>
<!-- Linear Algebra&#45;&gt;Matrix -->
<g id="edge10" class="edge">
<title>Linear Algebra&#45;&gt;Matrix</title>
<path fill="none" stroke="#b75867" d="M333.08,-332.26C352.17,-353.25 386.61,-386.87 424,-403 472.46,-423.9 534.29,-427.1 572.77,-426.67"/>
<polygon fill="#b75867" stroke="#b75867" points="573.05,-430.16 582.98,-426.46 572.91,-423.16 573.05,-430.16"/>
</g>
<!-- Bijective function -->
<g id="node11" class="node">
<title>Bijective function</title>
<g id="a_node11"><a xlink:href="/Knowledge/Bijective function.html" xlink:title="Bijective function" target="_parent">
<path fill="#273434" stroke="#b75867" d="M655,-406C655,-406 565,-406 565,-406 559,-406 553,-400 553,-394 553,-394 553,-382 553,-382 553,-376 559,-370 565,-370 565,-370 655,-370 655,-370 661,-370 667,-376 667,-382 667,-382 667,-394 667,-394 667,-400 661,-406 655,-406"/>
<text text-anchor="middle" x="610" y="-384.9" font-family="sans" font-size="12.00" fill="#c4c7c7">Bijective function</text>
</a>
</g>
</g>
<!-- Linear Algebra&#45;&gt;Bijective function -->
<g id="edge11" class="edge">
<title>Linear Algebra&#45;&gt;Bijective function</title>
<path fill="none" stroke="#b75867" d="M347.61,-332.1C368.36,-343.71 396.96,-358.04 424,-366 462.41,-377.31 506.92,-382.82 542.66,-385.5"/>
<polygon fill="#b75867" stroke="#b75867" points="542.76,-389.02 552.98,-386.22 543.24,-382.04 542.76,-389.02"/>
</g>
<!-- Injective function -->
<g id="node12" class="node">
<title>Injective function</title>
<g id="a_node12"><a xlink:href="/Knowledge/Injective function.html" xlink:title="Injective function" target="_parent">
<path fill="#273434" stroke="#b75867" d="M655,-369C655,-369 565,-369 565,-369 559,-369 553,-363 553,-357 553,-357 553,-345 553,-345 553,-339 559,-333 565,-333 565,-333 655,-333 655,-333 661,-333 667,-339 667,-345 667,-345 667,-357 667,-357 667,-363 661,-369 655,-369"/>
<text text-anchor="middle" x="610" y="-347.9" font-family="sans" font-size="12.00" fill="#c4c7c7">Injective function</text>
</a>
</g>
</g>
<!-- Linear Algebra&#45;&gt;Injective function -->
<g id="edge12" class="edge">
<title>Linear Algebra&#45;&gt;Injective function</title>
<path fill="none" stroke="#b75867" d="M365.71,-321.02C383.96,-323.61 404.93,-326.52 424,-329 463.26,-334.1 507.28,-339.35 542.53,-343.45"/>
<polygon fill="#b75867" stroke="#b75867" points="542.36,-346.95 552.69,-344.62 543.16,-340 542.36,-346.95"/>
</g>
<!-- Surjective function -->
<g id="node13" class="node">
<title>Surjective function</title>
<g id="a_node13"><a xlink:href="/Knowledge/Surjective function.html" xlink:title="Surjective function" target="_parent">
<path fill="#273434" stroke="#b75867" d="M659,-332C659,-332 561,-332 561,-332 555,-332 549,-326 549,-320 549,-320 549,-308 549,-308 549,-302 555,-296 561,-296 561,-296 659,-296 659,-296 665,-296 671,-302 671,-308 671,-308 671,-320 671,-320 671,-326 665,-332 659,-332"/>
<text text-anchor="middle" x="610" y="-310.9" font-family="sans" font-size="12.00" fill="#c4c7c7">Surjective function</text>
</a>
</g>
</g>
<!-- Linear Algebra&#45;&gt;Surjective function -->
<g id="edge13" class="edge">
<title>Linear Algebra&#45;&gt;Surjective function</title>
<path fill="none" stroke="#b75867" d="M365.64,-314C412.81,-314 485.22,-314 538.8,-314"/>
<polygon fill="#b75867" stroke="#b75867" points="538.92,-317.5 548.92,-314 538.92,-310.5 538.92,-317.5"/>
</g>
<!-- Kronecker Delta -->
<g id="node14" class="node">
<title>Kronecker Delta</title>
<g id="a_node14"><a xlink:href="/Knowledge/Kronecker Delta.html" xlink:title="Kronecker Delta" target="_parent">
<path fill="#273434" stroke="#b75867" d="M651.5,-221C651.5,-221 568.5,-221 568.5,-221 562.5,-221 556.5,-215 556.5,-209 556.5,-209 556.5,-197 556.5,-197 556.5,-191 562.5,-185 568.5,-185 568.5,-185 651.5,-185 651.5,-185 657.5,-185 663.5,-191 663.5,-197 663.5,-197 663.5,-209 663.5,-209 663.5,-215 657.5,-221 651.5,-221"/>
<text text-anchor="middle" x="610" y="-199.9" font-family="sans" font-size="12.00" fill="#c4c7c7">Kronecker Delta</text>
</a>
</g>
</g>
<!-- Linear Algebra&#45;&gt;Kronecker Delta -->
<g id="edge14" class="edge">
<title>Linear Algebra&#45;&gt;Kronecker Delta</title>
<path fill="none" stroke="#b75867" d="M333.08,-295.74C352.17,-274.75 386.61,-241.13 424,-225 462.41,-208.43 509.23,-202.99 546.16,-201.66"/>
<polygon fill="#b75867" stroke="#b75867" points="546.4,-205.15 556.3,-201.39 546.21,-198.16 546.4,-205.15"/>
</g>
<!-- Subjects -->
<g id="node15" class="node">
<title>Subjects</title>
<g id="a_node15"><a xlink:href="/Knowledge/Subjects.html" xlink:title="Subjects" target="_parent">
<path fill="none" stroke="#b75867" d="M630.5,-295C630.5,-295 589.5,-295 589.5,-295 583.5,-295 577.5,-289 577.5,-283 577.5,-283 577.5,-271 577.5,-271 577.5,-265 583.5,-259 589.5,-259 589.5,-259 630.5,-259 630.5,-259 636.5,-259 642.5,-265 642.5,-271 642.5,-271 642.5,-283 642.5,-283 642.5,-289 636.5,-295 630.5,-295"/>
<text text-anchor="middle" x="610" y="-273.9" font-family="sans" font-size="12.00" fill="#c4c7c7">Subjects</text>
</a>
</g>
</g>
<!-- Linear Algebra&#45;&gt;Subjects -->
<g id="edge16" class="edge">
<title>Linear Algebra&#45;&gt;Subjects</title>
<path fill="none" stroke="#ffffff" d="M375.79,-305.56C391.44,-303.36 408.35,-301.03 424,-299 477.73,-292.02 540.35,-284.76 577.22,-280.57"/>
<polygon fill="#ffffff" stroke="#ffffff" points="375.13,-302.12 365.71,-306.98 376.11,-309.05 375.13,-302.12"/>
</g>
<!-- Knowledege Base -->
<g id="node16" class="node">
<title>Knowledege Base</title>
<g id="a_node16"><a xlink:href="/Knowledge/Knowledege Base.html" xlink:title="Knowledege Base" target="_parent">
<path fill="none" stroke="#b75867" d="M656.5,-258C656.5,-258 563.5,-258 563.5,-258 557.5,-258 551.5,-252 551.5,-246 551.5,-246 551.5,-234 551.5,-234 551.5,-228 557.5,-222 563.5,-222 563.5,-222 656.5,-222 656.5,-222 662.5,-222 668.5,-228 668.5,-234 668.5,-234 668.5,-246 668.5,-246 668.5,-252 662.5,-258 656.5,-258"/>
<text text-anchor="middle" x="610" y="-236.9" font-family="sans" font-size="12.00" fill="#c4c7c7">Knowledege Base</text>
</a>
</g>
</g>
<!-- Linear Algebra&#45;&gt;Knowledege Base -->
<g id="edge17" class="edge">
<title>Linear Algebra&#45;&gt;Knowledege Base</title>
<path fill="none" stroke="#ffffff" d="M356.54,-291.01C376.15,-280.49 400.66,-268.87 424,-262 465.58,-249.76 514.32,-244.31 551.33,-241.89"/>
<polygon fill="#ffffff" stroke="#ffffff" points="354.7,-288.02 347.61,-295.9 358.07,-294.16 354.7,-288.02"/>
</g>
<!-- Lagrange Interpolation Problem&#45;&gt;Fundamental Theorem of Algebra -->
<g id="edge21" class="edge">
<title>Lagrange Interpolation Problem&#45;&gt;Fundamental Theorem of Algebra</title>
<path fill="none" stroke="#b75867" d="M293.18,-166.13C255.76,-196.03 180.28,-255.72 137.32,-289.4"/>
<polygon fill="#b75867" stroke="#b75867" points="134.9,-286.86 129.18,-295.78 139.21,-292.37 134.9,-286.86"/>
</g>
<!-- Lagrange Interpolation Problem&#45;&gt;Kronecker Delta -->
<g id="edge18" class="edge">
<title>Lagrange Interpolation Problem&#45;&gt;Kronecker Delta</title>
<path fill="none" stroke="#b75867" d="M369,-166.03C386.3,-171.53 405.82,-177.14 424,-181 464.17,-189.54 510,-195.02 546,-198.37"/>
<polygon fill="#b75867" stroke="#b75867" points="546.08,-201.9 556.35,-199.31 546.71,-194.92 546.08,-201.9"/>
</g>
<!-- Formula of Lagrange for Interpolation -->
<g id="node17" class="node">
<title>Formula of Lagrange for Interpolation</title>
<g id="a_node17"><a xlink:href="/Knowledge/Formula of Lagrange for Interpolation.html" xlink:title="Formula of Lagrange for Interpolation" target="_parent">
<path fill="#273434" stroke="#b75867" d="M713.5,-184C713.5,-184 506.5,-184 506.5,-184 500.5,-184 494.5,-178 494.5,-172 494.5,-172 494.5,-160 494.5,-160 494.5,-154 500.5,-148 506.5,-148 506.5,-148 713.5,-148 713.5,-148 719.5,-148 725.5,-154 725.5,-160 725.5,-160 725.5,-172 725.5,-172 725.5,-178 719.5,-184 713.5,-184"/>
<text text-anchor="middle" x="610" y="-162.9" font-family="sans" font-size="12.00" fill="#c4c7c7">Formula of Lagrange for Interpolation</text>
</a>
</g>
</g>
<!-- Lagrange Interpolation Problem&#45;&gt;Formula of Lagrange for Interpolation -->
<g id="edge19" class="edge">
<title>Lagrange Interpolation Problem&#45;&gt;Formula of Lagrange for Interpolation</title>
<path fill="none" stroke="#b75867" d="M416.19,-154.09C438.06,-155.44 461.51,-156.89 484.27,-158.3"/>
<polygon fill="#b75867" stroke="#b75867" points="484.12,-161.8 494.31,-158.92 484.55,-154.81 484.12,-161.8"/>
</g>
<!-- Fundamental polynomials of Lagrange -->
<g id="node18" class="node">
<title>Fundamental polynomials of Lagrange</title>
<g id="a_node18"><a xlink:href="/Knowledge/Fundamental polynomials of Lagrange.html" xlink:title="Fundamental polynomials of Lagrange" target="_parent">
<path fill="#273434" stroke="#b75867" d="M716,-147C716,-147 504,-147 504,-147 498,-147 492,-141 492,-135 492,-135 492,-123 492,-123 492,-117 498,-111 504,-111 504,-111 716,-111 716,-111 722,-111 728,-117 728,-123 728,-123 728,-135 728,-135 728,-141 722,-147 716,-147"/>
<text text-anchor="middle" x="610" y="-125.9" font-family="sans" font-size="12.00" fill="#c4c7c7">Fundamental polynomials of Lagrange</text>
</a>
</g>
</g>
<!-- Lagrange Interpolation Problem&#45;&gt;Fundamental polynomials of Lagrange -->
<g id="edge20" class="edge">
<title>Lagrange Interpolation Problem&#45;&gt;Fundamental polynomials of Lagrange</title>
<path fill="none" stroke="#b75867" d="M416.19,-141.57C437.24,-140.2 459.77,-138.73 481.72,-137.3"/>
<polygon fill="#b75867" stroke="#b75867" points="482.01,-140.78 491.76,-136.64 481.55,-133.8 482.01,-140.78"/>
</g>
<!-- Lagrange Interpolation Polynomial -->
<g id="node19" class="node">
<title>Lagrange Interpolation Polynomial</title>
<g id="a_node19"><a xlink:href="/Knowledge/Lagrange Interpolation Polynomial.html" xlink:title="Lagrange Interpolation Polynomial" target="_parent">
<path fill="none" stroke="#b75867" d="M705.5,-110C705.5,-110 514.5,-110 514.5,-110 508.5,-110 502.5,-104 502.5,-98 502.5,-98 502.5,-86 502.5,-86 502.5,-80 508.5,-74 514.5,-74 514.5,-74 705.5,-74 705.5,-74 711.5,-74 717.5,-80 717.5,-86 717.5,-86 717.5,-98 717.5,-98 717.5,-104 711.5,-110 705.5,-110"/>
<text text-anchor="middle" x="610" y="-88.9" font-family="sans" font-size="12.00" fill="#c4c7c7">Lagrange Interpolation Polynomial</text>
</a>
</g>
</g>
<!-- Lagrange Interpolation Problem&#45;&gt;Lagrange Interpolation Polynomial -->
<g id="edge22" class="edge">
<title>Lagrange Interpolation Problem&#45;&gt;Lagrange Interpolation Polynomial</title>
<path fill="none" stroke="#ffffff" d="M377.1,-126.77C392.25,-121.99 408.6,-117.34 424,-114 449.13,-108.55 476.49,-104.36 502.28,-101.18"/>
<polygon fill="#ffffff" stroke="#ffffff" points="375.79,-123.52 367.35,-129.92 377.94,-130.18 375.79,-123.52"/>
</g>
<!-- Lagrange Interpolation -->
<g id="node20" class="node">
<title>Lagrange Interpolation</title>
<g id="a_node20"><a xlink:href="/Knowledge/Lagrange Interpolation.html" xlink:title="Lagrange Interpolation" target="_parent">
<path fill="none" stroke="#b75867" d="M671.5,-73C671.5,-73 548.5,-73 548.5,-73 542.5,-73 536.5,-67 536.5,-61 536.5,-61 536.5,-49 536.5,-49 536.5,-43 542.5,-37 548.5,-37 548.5,-37 671.5,-37 671.5,-37 677.5,-37 683.5,-43 683.5,-49 683.5,-49 683.5,-61 683.5,-61 683.5,-67 677.5,-73 671.5,-73"/>
<text text-anchor="middle" x="610" y="-51.9" font-family="sans" font-size="12.00" fill="#c4c7c7">Lagrange Interpolation</text>
</a>
</g>
</g>
<!-- Lagrange Interpolation Problem&#45;&gt;Lagrange Interpolation -->
<g id="edge23" class="edge">
<title>Lagrange Interpolation Problem&#45;&gt;Lagrange Interpolation</title>
<path fill="none" stroke="#ffffff" d="M346.19,-123.41C366.53,-107.41 395.23,-87.61 424,-77 459.66,-63.85 501.56,-58.14 536.46,-55.81"/>
<polygon fill="#ffffff" stroke="#ffffff" points="343.87,-120.78 338.28,-129.77 348.26,-126.23 343.87,-120.78"/>
</g>
<!-- The Lagrange Interpolation Polynomial of a Polynomial is itself -->
<g id="node21" class="node">
<title>The Lagrange Interpolation Polynomial of a Polynomial is itself</title>
<g id="a_node21"><a xlink:href="/Knowledge/The Lagrange Interpolation Polynomial of a Polynomial is itself.html" xlink:title="The Lagrange Interpolation Polynomial of a Polynomial is itself" target="_parent">
<path fill="none" stroke="#b75867" d="M784,-36C784,-36 436,-36 436,-36 430,-36 424,-30 424,-24 424,-24 424,-12 424,-12 424,-6 430,0 436,0 436,0 784,0 784,0 790,0 796,-6 796,-12 796,-12 796,-24 796,-24 796,-30 790,-36 784,-36"/>
<text text-anchor="middle" x="610" y="-14.9" font-family="sans" font-size="12.00" fill="#c4c7c7">The Lagrange Interpolation Polynomial of a Polynomial is itself</text>
</a>
</g>
</g>
<!-- Lagrange Interpolation Problem&#45;&gt;The Lagrange Interpolation Polynomial of a Polynomial is itself -->
<g id="edge24" class="edge">
<title>Lagrange Interpolation Problem&#45;&gt;The Lagrange Interpolation Polynomial of a Polynomial is itself</title>
<path fill="none" stroke="#ffffff" d="M335.26,-121.61C354.05,-96.05 386.18,-58.52 424,-40 426.76,-38.65 429.57,-37.37 432.42,-36.15"/>
<polygon fill="#ffffff" stroke="#ffffff" points="332.39,-119.61 329.41,-129.77 338.08,-123.68 332.39,-119.61"/>
</g>
</g>
</svg>
