<?xml version="1.0" encoding="UTF-8" standalone="no"?>
<!DOCTYPE svg PUBLIC "-//W3C//DTD SVG 1.1//EN"
 "http://www.w3.org/Graphics/SVG/1.1/DTD/svg11.dtd">
<!-- Generated by graphviz version 2.44.0 (0)
 -->
<!-- Title: Injective function Pages: 1 -->
<svg width="625pt" height="306pt"
 viewBox="0.00 0.00 625.00 306.00" xmlns="http://www.w3.org/2000/svg" xmlns:xlink="http://www.w3.org/1999/xlink">
<g id="graph0" class="graph" transform="scale(1 1) rotate(0) translate(4 302)">
<title>Injective function</title>
<polygon fill="#132020" stroke="transparent" points="-4,4 -4,-302 621,-302 621,4 -4,4"/>
<!-- Injective function -->
<g id="node1" class="node">
<title>Injective function</title>
<g id="a_node1"><a xlink:href="../Injective function.html" xlink:title="Injective function" target="_parent">
<path fill="#273434" stroke="#b75867" d="M102,-224C102,-224 12,-224 12,-224 6,-224 0,-218 0,-212 0,-212 0,-200 0,-200 0,-194 6,-188 12,-188 12,-188 102,-188 102,-188 108,-188 114,-194 114,-200 114,-200 114,-212 114,-212 114,-218 108,-224 102,-224"/>
<text text-anchor="middle" x="57" y="-202.9" font-family="sans" font-size="12.00" fill="#c4c7c7">Injective function</text>
</a>
</g>
</g>
<!-- Dirichlet principle -->
<g id="node2" class="node">
<title>Dirichlet principle</title>
<g id="a_node2"><a xlink:href="../Dirichlet principle.html" xlink:title="Dirichlet principle" target="_parent">
<path fill="none" stroke="#b75867" d="M226,-252C226,-252 134,-252 134,-252 128,-252 122,-246 122,-240 122,-240 122,-228 122,-228 122,-222 128,-216 134,-216 134,-216 226,-216 226,-216 232,-216 238,-222 238,-228 238,-228 238,-240 238,-240 238,-246 232,-252 226,-252"/>
<text text-anchor="middle" x="180" y="-230.9" font-family="sans" font-size="12.00" fill="#c4c7c7">Dirichlet principle</text>
</a>
</g>
</g>
<!-- Injective function&#45;&gt;Dirichlet principle -->
<g id="edge1" class="edge">
<title>Injective function&#45;&gt;Dirichlet principle</title>
<path fill="none" stroke="#ffffff" d="M121.2,-220.63C121.36,-220.66 121.51,-220.7 121.67,-220.73"/>
<polygon fill="#ffffff" stroke="#ffffff" points="124.78,-217.86 114.25,-219.02 123.2,-224.68 124.78,-217.86"/>
</g>
<!-- Linear Algebra -->
<g id="node3" class="node">
<title>Linear Algebra</title>
<g id="a_node3"><a xlink:href="../Linear Algebra.html" xlink:title="Linear Algebra" target="_parent">
<path fill="none" stroke="#b75867" d="M217,-177C217,-177 143,-177 143,-177 137,-177 131,-171 131,-165 131,-165 131,-153 131,-153 131,-147 137,-141 143,-141 143,-141 217,-141 217,-141 223,-141 229,-147 229,-153 229,-153 229,-165 229,-165 229,-171 223,-177 217,-177"/>
<text text-anchor="middle" x="180" y="-155.9" font-family="sans" font-size="12.00" fill="#c4c7c7">Linear Algebra</text>
</a>
</g>
</g>
<!-- Injective function&#45;&gt;Linear Algebra -->
<g id="edge2" class="edge">
<title>Injective function&#45;&gt;Linear Algebra</title>
<path fill="none" stroke="#ffffff" d="M114.05,-184.23C120.22,-181.83 126.45,-179.41 132.49,-177.07"/>
<polygon fill="#ffffff" stroke="#ffffff" points="112.49,-181.08 104.44,-187.96 115.02,-187.6 112.49,-181.08"/>
</g>
<!-- Bijective function -->
<g id="node4" class="node">
<title>Bijective function</title>
<g id="a_node4"><a xlink:href="../Bijective function.html" xlink:title="Bijective function" target="_parent">
<path fill="none" stroke="#b75867" d="M395.5,-224C395.5,-224 305.5,-224 305.5,-224 299.5,-224 293.5,-218 293.5,-212 293.5,-212 293.5,-200 293.5,-200 293.5,-194 299.5,-188 305.5,-188 305.5,-188 395.5,-188 395.5,-188 401.5,-188 407.5,-194 407.5,-200 407.5,-200 407.5,-212 407.5,-212 407.5,-218 401.5,-224 395.5,-224"/>
<text text-anchor="middle" x="350.5" y="-202.9" font-family="sans" font-size="12.00" fill="#c4c7c7">Bijective function</text>
</a>
</g>
</g>
<!-- Injective function&#45;&gt;Bijective function -->
<g id="edge3" class="edge">
<title>Injective function&#45;&gt;Bijective function</title>
<path fill="none" stroke="#ffffff" d="M124.48,-206C175.53,-206 245.23,-206 293.47,-206"/>
<polygon fill="#ffffff" stroke="#ffffff" points="124.2,-202.5 114.2,-206 124.2,-209.5 124.2,-202.5"/>
</g>
<!-- Dirichlet principle&#45;&gt;Injective function -->
<g id="edge4" class="edge">
<title>Dirichlet principle&#45;&gt;Injective function</title>
<path fill="none" stroke="#b75867" d="M121.67,-221.48C121.51,-221.45 121.36,-221.41 121.2,-221.37"/>
<polygon fill="#b75867" stroke="#b75867" points="124.78,-218.61 114.25,-219.76 123.2,-225.43 124.78,-218.61"/>
</g>
<!-- Set -->
<g id="node5" class="node">
<title>Set</title>
<g id="a_node5"><a xlink:href="../Set.html" xlink:title="Set" target="_parent">
<path fill="#273434" stroke="#b75867" d="M365.5,-298C365.5,-298 335.5,-298 335.5,-298 329.5,-298 323.5,-292 323.5,-286 323.5,-286 323.5,-274 323.5,-274 323.5,-268 329.5,-262 335.5,-262 335.5,-262 365.5,-262 365.5,-262 371.5,-262 377.5,-268 377.5,-274 377.5,-274 377.5,-286 377.5,-286 377.5,-292 371.5,-298 365.5,-298"/>
<text text-anchor="middle" x="350.5" y="-276.9" font-family="sans" font-size="12.00" fill="#c4c7c7">Set</text>
</a>
</g>
</g>
<!-- Dirichlet principle&#45;&gt;Set -->
<g id="edge5" class="edge">
<title>Dirichlet principle&#45;&gt;Set</title>
<path fill="none" stroke="#b75867" d="M227.6,-252.12C233.74,-254.24 239.99,-256.26 246,-258 268.09,-264.39 293.32,-269.79 313.35,-273.64"/>
<polygon fill="#b75867" stroke="#b75867" points="312.82,-277.11 323.3,-275.51 314.11,-270.23 312.82,-277.11"/>
</g>
<!-- Combinatoric principles -->
<g id="node6" class="node">
<title>Combinatoric principles</title>
<g id="a_node6"><a xlink:href="../Combinatoric principles.html" xlink:title="Combinatoric principles" target="_parent">
<path fill="none" stroke="#b75867" d="M414,-261C414,-261 287,-261 287,-261 281,-261 275,-255 275,-249 275,-249 275,-237 275,-237 275,-231 281,-225 287,-225 287,-225 414,-225 414,-225 420,-225 426,-231 426,-237 426,-237 426,-249 426,-249 426,-255 420,-261 414,-261"/>
<text text-anchor="middle" x="350.5" y="-239.9" font-family="sans" font-size="12.00" fill="#c4c7c7">Combinatoric principles</text>
</a>
</g>
</g>
<!-- Dirichlet principle&#45;&gt;Combinatoric principles -->
<g id="edge6" class="edge">
<title>Dirichlet principle&#45;&gt;Combinatoric principles</title>
<path fill="none" stroke="#ffffff" d="M248.2,-237.59C256.97,-238.06 266,-238.54 274.89,-239.01"/>
<polygon fill="#ffffff" stroke="#ffffff" points="248.22,-234.09 238.05,-237.05 247.85,-241.08 248.22,-234.09"/>
</g>
<!-- Linear Algebra&#45;&gt;Injective function -->
<g id="edge9" class="edge">
<title>Linear Algebra&#45;&gt;Injective function</title>
<path fill="none" stroke="#b75867" d="M134.39,-177.05C128.43,-179.39 122.26,-181.79 116.11,-184.18"/>
<polygon fill="#b75867" stroke="#b75867" points="114.58,-181.02 106.52,-187.89 117.11,-187.54 114.58,-181.02"/>
</g>
<!-- Linear Algebra&#45;&gt;Bijective function -->
<g id="edge8" class="edge">
<title>Linear Algebra&#45;&gt;Bijective function</title>
<path fill="none" stroke="#b75867" d="M225.08,-177.03C232.02,-179.55 239.16,-181.97 246,-184 257.95,-187.54 270.84,-190.76 283.33,-193.56"/>
<polygon fill="#b75867" stroke="#b75867" points="282.71,-197.01 293.23,-195.72 284.21,-190.17 282.71,-197.01"/>
</g>
<!-- Matrix -->
<g id="node7" class="node">
<title>Matrix</title>
<g id="a_node7"><a xlink:href="../Matrix.html" xlink:title="Matrix" target="_parent">
<path fill="#273434" stroke="#b75867" d="M365.5,-187C365.5,-187 335.5,-187 335.5,-187 329.5,-187 323.5,-181 323.5,-175 323.5,-175 323.5,-163 323.5,-163 323.5,-157 329.5,-151 335.5,-151 335.5,-151 365.5,-151 365.5,-151 371.5,-151 377.5,-157 377.5,-163 377.5,-163 377.5,-175 377.5,-175 377.5,-181 371.5,-187 365.5,-187"/>
<text text-anchor="middle" x="350.5" y="-165.9" font-family="sans" font-size="12.00" fill="#c4c7c7">Matrix</text>
</a>
</g>
</g>
<!-- Linear Algebra&#45;&gt;Matrix -->
<g id="edge7" class="edge">
<title>Linear Algebra&#45;&gt;Matrix</title>
<path fill="none" stroke="#b75867" d="M229.29,-161.87C255.89,-163.44 288.37,-165.37 312.87,-166.83"/>
<polygon fill="#b75867" stroke="#b75867" points="312.98,-170.34 323.17,-167.44 313.4,-163.35 312.98,-170.34"/>
</g>
<!-- Surjective function -->
<g id="node8" class="node">
<title>Surjective function</title>
<g id="a_node8"><a xlink:href="../Surjective function.html" xlink:title="Surjective function" target="_parent">
<path fill="#273434" stroke="#b75867" d="M589,-177C589,-177 491,-177 491,-177 485,-177 479,-171 479,-165 479,-165 479,-153 479,-153 479,-147 485,-141 491,-141 491,-141 589,-141 589,-141 595,-141 601,-147 601,-153 601,-153 601,-165 601,-165 601,-171 595,-177 589,-177"/>
<text text-anchor="middle" x="540" y="-155.9" font-family="sans" font-size="12.00" fill="#c4c7c7">Surjective function</text>
</a>
</g>
</g>
<!-- Linear Algebra&#45;&gt;Surjective function -->
<g id="edge10" class="edge">
<title>Linear Algebra&#45;&gt;Surjective function</title>
<path fill="none" stroke="#b75867" d="M229.25,-154.87C234.89,-154.51 240.57,-154.21 246,-154 338.82,-150.44 362.15,-151.24 455,-154 459.47,-154.13 464.08,-154.31 468.72,-154.51"/>
<polygon fill="#b75867" stroke="#b75867" points="468.76,-158.01 478.91,-154.99 469.09,-151.02 468.76,-158.01"/>
</g>
<!-- Kronecker Delta -->
<g id="node9" class="node">
<title>Kronecker Delta</title>
<g id="a_node9"><a xlink:href="../Kronecker Delta.html" xlink:title="Kronecker Delta" target="_parent">
<path fill="#273434" stroke="#b75867" d="M392,-147C392,-147 309,-147 309,-147 303,-147 297,-141 297,-135 297,-135 297,-123 297,-123 297,-117 303,-111 309,-111 309,-111 392,-111 392,-111 398,-111 404,-117 404,-123 404,-123 404,-135 404,-135 404,-141 398,-147 392,-147"/>
<text text-anchor="middle" x="350.5" y="-125.9" font-family="sans" font-size="12.00" fill="#c4c7c7">Kronecker Delta</text>
</a>
</g>
</g>
<!-- Linear Algebra&#45;&gt;Kronecker Delta -->
<g id="edge11" class="edge">
<title>Linear Algebra&#45;&gt;Kronecker Delta</title>
<path fill="none" stroke="#b75867" d="M229.29,-150.4C247.17,-147.22 267.72,-143.56 286.72,-140.18"/>
<polygon fill="#b75867" stroke="#b75867" points="287.55,-143.59 296.78,-138.39 286.32,-136.69 287.55,-143.59"/>
</g>
<!-- Fundamental Theorem of Algebra -->
<g id="node10" class="node">
<title>Fundamental Theorem of Algebra</title>
<g id="a_node10"><a xlink:href="../Fundamental Theorem of Algebra.html" xlink:title="Fundamental Theorem of Algebra" target="_parent">
<path fill="#273434" stroke="#b75867" d="M443,-110C443,-110 258,-110 258,-110 252,-110 246,-104 246,-98 246,-98 246,-86 246,-86 246,-80 252,-74 258,-74 258,-74 443,-74 443,-74 449,-74 455,-80 455,-86 455,-86 455,-98 455,-98 455,-104 449,-110 443,-110"/>
<text text-anchor="middle" x="350.5" y="-88.9" font-family="sans" font-size="12.00" fill="#c4c7c7">Fundamental Theorem of Algebra</text>
</a>
</g>
</g>
<!-- Linear Algebra&#45;&gt;Fundamental Theorem of Algebra -->
<g id="edge12" class="edge">
<title>Linear Algebra&#45;&gt;Fundamental Theorem of Algebra</title>
<path fill="none" stroke="#b75867" d="M202.56,-140.83C214.64,-131.51 230.37,-120.74 246,-114 246.21,-113.91 246.41,-113.82 246.62,-113.73"/>
<polygon fill="#b75867" stroke="#b75867" points="248.1,-116.91 256.13,-110 245.54,-110.4 248.1,-116.91"/>
</g>
<!-- Subjects -->
<g id="node11" class="node">
<title>Subjects</title>
<g id="a_node11"><a xlink:href="../Subjects.html" xlink:title="Subjects" target="_parent">
<path fill="none" stroke="#b75867" d="M371,-73C371,-73 330,-73 330,-73 324,-73 318,-67 318,-61 318,-61 318,-49 318,-49 318,-43 324,-37 330,-37 330,-37 371,-37 371,-37 377,-37 383,-43 383,-49 383,-49 383,-61 383,-61 383,-67 377,-73 371,-73"/>
<text text-anchor="middle" x="350.5" y="-51.9" font-family="sans" font-size="12.00" fill="#c4c7c7">Subjects</text>
</a>
</g>
</g>
<!-- Linear Algebra&#45;&gt;Subjects -->
<g id="edge13" class="edge">
<title>Linear Algebra&#45;&gt;Subjects</title>
<path fill="none" stroke="#ffffff" d="M195.56,-132.12C206.9,-113.77 224.34,-90.43 246,-77 267.55,-63.64 295.94,-58.29 317.54,-56.2"/>
<polygon fill="#ffffff" stroke="#ffffff" points="192.43,-130.54 190.34,-140.92 198.45,-134.1 192.43,-130.54"/>
</g>
<!-- Knowledege Base -->
<g id="node12" class="node">
<title>Knowledege Base</title>
<g id="a_node12"><a xlink:href="../Knowledege Base.html" xlink:title="Knowledege Base" target="_parent">
<path fill="none" stroke="#b75867" d="M397,-36C397,-36 304,-36 304,-36 298,-36 292,-30 292,-24 292,-24 292,-12 292,-12 292,-6 298,0 304,0 304,0 397,0 397,0 403,0 409,-6 409,-12 409,-12 409,-24 409,-24 409,-30 403,-36 397,-36"/>
<text text-anchor="middle" x="350.5" y="-14.9" font-family="sans" font-size="12.00" fill="#c4c7c7">Knowledege Base</text>
</a>
</g>
</g>
<!-- Linear Algebra&#45;&gt;Knowledege Base -->
<g id="edge14" class="edge">
<title>Linear Algebra&#45;&gt;Knowledege Base</title>
<path fill="none" stroke="#ffffff" d="M188.74,-131.09C197.84,-103.61 215.7,-62.57 246,-40 259.19,-30.18 275.8,-24.54 291.84,-21.35"/>
<polygon fill="#ffffff" stroke="#ffffff" points="185.32,-130.31 185.67,-140.9 192,-132.4 185.32,-130.31"/>
</g>
<!-- Bijective function&#45;&gt;Injective function -->
<g id="edge16" class="edge">
<title>Bijective function&#45;&gt;Injective function</title>
<path fill="none" stroke="#b75867" d="M293.47,-206.61C245.23,-206.79 175.53,-206.8 124.48,-206.64"/>
<polygon fill="#b75867" stroke="#b75867" points="124.22,-203.14 114.2,-206.61 124.19,-210.14 124.22,-203.14"/>
</g>
<!-- Bijective function&#45;&gt;Linear Algebra -->
<g id="edge17" class="edge">
<title>Bijective function&#45;&gt;Linear Algebra</title>
<path fill="none" stroke="#ffffff" d="M283.33,-194.54C270.84,-191.76 257.95,-188.54 246,-185 238.35,-182.73 230.32,-179.97 222.62,-177.11"/>
<polygon fill="#ffffff" stroke="#ffffff" points="282.72,-197.99 293.23,-196.68 284.2,-191.15 282.72,-197.99"/>
</g>
<!-- Bijective function&#45;&gt;Surjective function -->
<g id="edge15" class="edge">
<title>Bijective function&#45;&gt;Surjective function</title>
<path fill="none" stroke="#b75867" d="M407.55,-194.94C422.99,-191.66 439.69,-187.9 455,-184 460.03,-182.72 465.21,-181.33 470.42,-179.9"/>
<polygon fill="#b75867" stroke="#b75867" points="471.74,-183.16 480.42,-177.08 469.85,-176.42 471.74,-183.16"/>
</g>
<!-- Principle of the bijection -->
<g id="node13" class="node">
<title>Principle of the bijection</title>
<g id="a_node13"><a xlink:href="../Principle of the bijection.html" xlink:title="Principle of the bijection" target="_parent">
<path fill="none" stroke="#b75867" d="M605,-224C605,-224 475,-224 475,-224 469,-224 463,-218 463,-212 463,-212 463,-200 463,-200 463,-194 469,-188 475,-188 475,-188 605,-188 605,-188 611,-188 617,-194 617,-200 617,-200 617,-212 617,-212 617,-218 611,-224 605,-224"/>
<text text-anchor="middle" x="540" y="-202.9" font-family="sans" font-size="12.00" fill="#c4c7c7">Principle of the bijection</text>
</a>
</g>
</g>
<!-- Bijective function&#45;&gt;Principle of the bijection -->
<g id="edge18" class="edge">
<title>Bijective function&#45;&gt;Principle of the bijection</title>
<path fill="none" stroke="#ffffff" d="M417.9,-206C432.44,-206 447.94,-206 462.83,-206"/>
<polygon fill="#ffffff" stroke="#ffffff" points="417.5,-202.5 407.5,-206 417.5,-209.5 417.5,-202.5"/>
</g>
</g>
</svg>
