<?xml version="1.0" encoding="UTF-8" standalone="no"?>
<!DOCTYPE svg PUBLIC "-//W3C//DTD SVG 1.1//EN"
 "http://www.w3.org/Graphics/SVG/1.1/DTD/svg11.dtd">
<!-- Generated by graphviz version 2.44.0 (0)
 -->
<!-- Title: Knowledege Base Pages: 1 -->
<svg width="592pt" height="858pt"
 viewBox="0.00 0.00 592.00 858.00" xmlns="http://www.w3.org/2000/svg" xmlns:xlink="http://www.w3.org/1999/xlink">
<g id="graph0" class="graph" transform="scale(1 1) rotate(0) translate(4 854)">
<title>Knowledege Base</title>
<polygon fill="#132020" stroke="transparent" points="-4,4 -4,-854 588,-854 588,4 -4,4"/>
<!-- Knowledege Base -->
<g id="node1" class="node">
<title>Knowledege Base</title>
<g id="a_node1"><a xlink:href="../Knowledege Base.html" xlink:title="Knowledege Base" target="_parent">
<path fill="#273434" stroke="#b75867" d="M105,-369C105,-369 12,-369 12,-369 6,-369 0,-363 0,-357 0,-357 0,-345 0,-345 0,-339 6,-333 12,-333 12,-333 105,-333 105,-333 111,-333 117,-339 117,-345 117,-345 117,-357 117,-357 117,-363 111,-369 105,-369"/>
<text text-anchor="middle" x="58.5" y="-347.9" font-family="sans" font-size="12.00" fill="#c4c7c7">Knowledege Base</text>
</a>
</g>
</g>
<!-- Computer Architectures -->
<g id="node2" class="node">
<title>Computer Architectures</title>
<g id="a_node2"><a xlink:href="../Computer Architectures.html" xlink:title="Computer Architectures" target="_parent">
<path fill="#273434" stroke="#b75867" d="M309.5,-665C309.5,-665 182.5,-665 182.5,-665 176.5,-665 170.5,-659 170.5,-653 170.5,-653 170.5,-641 170.5,-641 170.5,-635 176.5,-629 182.5,-629 182.5,-629 309.5,-629 309.5,-629 315.5,-629 321.5,-635 321.5,-641 321.5,-641 321.5,-653 321.5,-653 321.5,-659 315.5,-665 309.5,-665"/>
<text text-anchor="middle" x="246" y="-643.9" font-family="sans" font-size="12.00" fill="#c4c7c7">Computer Architectures</text>
</a>
</g>
</g>
<!-- Knowledege Base&#45;&gt;Computer Architectures -->
<g id="edge1" class="edge">
<title>Knowledege Base&#45;&gt;Computer Architectures</title>
<path fill="none" stroke="#b75867" d="M61.31,-369.34C67.15,-424.83 87.38,-589.33 125,-625 134.8,-634.29 147.16,-640.32 160.2,-644.13"/>
<polygon fill="#b75867" stroke="#b75867" points="159.72,-647.62 170.27,-646.63 161.41,-640.83 159.72,-647.62"/>
</g>
<!-- Numeric Methods -->
<g id="node3" class="node">
<title>Numeric Methods</title>
<g id="a_node3"><a xlink:href="../Numeric Methods.html" xlink:title="Numeric Methods" target="_parent">
<path fill="#273434" stroke="#b75867" d="M292,-628C292,-628 200,-628 200,-628 194,-628 188,-622 188,-616 188,-616 188,-604 188,-604 188,-598 194,-592 200,-592 200,-592 292,-592 292,-592 298,-592 304,-598 304,-604 304,-604 304,-616 304,-616 304,-622 298,-628 292,-628"/>
<text text-anchor="middle" x="246" y="-606.9" font-family="sans" font-size="12.00" fill="#c4c7c7">Numeric Methods</text>
</a>
</g>
</g>
<!-- Knowledege Base&#45;&gt;Numeric Methods -->
<g id="edge2" class="edge">
<title>Knowledege Base&#45;&gt;Numeric Methods</title>
<path fill="none" stroke="#b75867" d="M62.04,-369.35C69.37,-419.64 92.17,-557.95 125,-588 139.37,-601.15 158.9,-607.69 178.03,-610.68"/>
<polygon fill="#b75867" stroke="#b75867" points="177.61,-614.15 187.97,-611.93 178.49,-607.21 177.61,-614.15"/>
</g>
<!-- Design and Analysis of Algorithms -->
<g id="node4" class="node">
<title>Design and Analysis of Algorithms</title>
<g id="a_node4"><a xlink:href="../Design and Analysis of Algorithms.html" xlink:title="Design and Analysis of Algorithms" target="_parent">
<path fill="#273434" stroke="#b75867" d="M337,-480C337,-480 155,-480 155,-480 149,-480 143,-474 143,-468 143,-468 143,-456 143,-456 143,-450 149,-444 155,-444 155,-444 337,-444 337,-444 343,-444 349,-450 349,-456 349,-456 349,-468 349,-468 349,-474 343,-480 337,-480"/>
<text text-anchor="middle" x="246" y="-458.9" font-family="sans" font-size="12.00" fill="#c4c7c7">Design and Analysis of Algorithms</text>
</a>
</g>
</g>
<!-- Knowledege Base&#45;&gt;Design and Analysis of Algorithms -->
<g id="edge3" class="edge">
<title>Knowledege Base&#45;&gt;Design and Analysis of Algorithms</title>
<path fill="none" stroke="#b75867" d="M67.71,-369.26C78,-389.92 97.67,-422.91 125,-440 127.78,-441.74 130.67,-443.35 133.64,-444.84"/>
<polygon fill="#b75867" stroke="#b75867" points="132.2,-448.03 142.75,-448.96 135.08,-441.65 132.2,-448.03"/>
</g>
<!-- Logic Programming -->
<g id="node5" class="node">
<title>Logic Programming</title>
<g id="a_node5"><a xlink:href="../Logic Programming.html" xlink:title="Logic Programming" target="_parent">
<path fill="#273434" stroke="#b75867" d="M297,-443C297,-443 195,-443 195,-443 189,-443 183,-437 183,-431 183,-431 183,-419 183,-419 183,-413 189,-407 195,-407 195,-407 297,-407 297,-407 303,-407 309,-413 309,-419 309,-419 309,-431 309,-431 309,-437 303,-443 297,-443"/>
<text text-anchor="middle" x="246" y="-421.9" font-family="sans" font-size="12.00" fill="#c4c7c7">Logic Programming</text>
</a>
</g>
</g>
<!-- Knowledege Base&#45;&gt;Logic Programming -->
<g id="edge4" class="edge">
<title>Knowledege Base&#45;&gt;Logic Programming</title>
<path fill="none" stroke="#b75867" d="M77.33,-369.18C89.66,-380.67 107.02,-394.84 125,-403 139.85,-409.74 156.63,-414.42 172.83,-417.66"/>
<polygon fill="#b75867" stroke="#b75867" points="172.35,-421.13 182.82,-419.5 173.62,-414.25 172.35,-421.13"/>
</g>
<!-- Data Structures -->
<g id="node6" class="node">
<title>Data Structures</title>
<g id="a_node6"><a xlink:href="../Data Structures.html" xlink:title="Data Structures" target="_parent">
<path fill="#273434" stroke="#b75867" d="M286,-406C286,-406 206,-406 206,-406 200,-406 194,-400 194,-394 194,-394 194,-382 194,-382 194,-376 200,-370 206,-370 206,-370 286,-370 286,-370 292,-370 298,-376 298,-382 298,-382 298,-394 298,-394 298,-400 292,-406 286,-406"/>
<text text-anchor="middle" x="246" y="-384.9" font-family="sans" font-size="12.00" fill="#c4c7c7">Data Structures</text>
</a>
</g>
</g>
<!-- Knowledege Base&#45;&gt;Data Structures -->
<g id="edge5" class="edge">
<title>Knowledege Base&#45;&gt;Data Structures</title>
<path fill="none" stroke="#b75867" d="M117.33,-364.39C119.92,-364.94 122.49,-365.48 125,-366 144.08,-369.93 164.94,-373.88 183.83,-377.32"/>
<polygon fill="#b75867" stroke="#b75867" points="183.35,-380.79 193.81,-379.13 184.59,-373.9 183.35,-380.79"/>
</g>
<!-- Languages, Automata and Computation -->
<g id="node7" class="node">
<title>Languages, Automata and Computation</title>
<g id="a_node7"><a xlink:href="../Languages, Automata and Computation.html" xlink:title="Languages, Automata and Computation" target="_parent">
<path fill="#273434" stroke="#b75867" d="M355,-369C355,-369 137,-369 137,-369 131,-369 125,-363 125,-357 125,-357 125,-345 125,-345 125,-339 131,-333 137,-333 137,-333 355,-333 355,-333 361,-333 367,-339 367,-345 367,-345 367,-357 367,-357 367,-363 361,-369 355,-369"/>
<text text-anchor="middle" x="246" y="-347.9" font-family="sans" font-size="12.00" fill="#c4c7c7">Languages, Automata and Computation</text>
</a>
</g>
</g>
<!-- Knowledege Base&#45;&gt;Languages, Automata and Computation -->
<g id="edge6" class="edge">
<title>Knowledege Base&#45;&gt;Languages, Automata and Computation</title>
<path fill="none" stroke="#b75867" d="M117.18,-351C117.34,-351 117.5,-351 117.66,-351"/>
<polygon fill="#b75867" stroke="#b75867" points="114.95,-354.5 124.95,-351 114.95,-347.5 114.95,-354.5"/>
</g>
<!-- Operations Research -->
<g id="node8" class="node">
<title>Operations Research</title>
<g id="a_node8"><a xlink:href="../Operations Research.html" xlink:title="Operations Research" target="_parent">
<path fill="#273434" stroke="#b75867" d="M300.5,-332C300.5,-332 191.5,-332 191.5,-332 185.5,-332 179.5,-326 179.5,-320 179.5,-320 179.5,-308 179.5,-308 179.5,-302 185.5,-296 191.5,-296 191.5,-296 300.5,-296 300.5,-296 306.5,-296 312.5,-302 312.5,-308 312.5,-308 312.5,-320 312.5,-320 312.5,-326 306.5,-332 300.5,-332"/>
<text text-anchor="middle" x="246" y="-310.9" font-family="sans" font-size="12.00" fill="#c4c7c7">Operations Research</text>
</a>
</g>
</g>
<!-- Knowledege Base&#45;&gt;Operations Research -->
<g id="edge7" class="edge">
<title>Knowledege Base&#45;&gt;Operations Research</title>
<path fill="none" stroke="#b75867" d="M117.33,-337.61C119.92,-337.06 122.49,-336.52 125,-336 139.24,-333.07 154.48,-330.12 169.15,-327.39"/>
<polygon fill="#b75867" stroke="#b75867" points="170,-330.79 179.19,-325.53 168.72,-323.91 170,-330.79"/>
</g>
<!-- Differential Equations -->
<g id="node9" class="node">
<title>Differential Equations</title>
<g id="a_node9"><a xlink:href="../Differential Equations.html" xlink:title="Differential Equations" target="_parent">
<path fill="#273434" stroke="#b75867" d="M303,-295C303,-295 189,-295 189,-295 183,-295 177,-289 177,-283 177,-283 177,-271 177,-271 177,-265 183,-259 189,-259 189,-259 303,-259 303,-259 309,-259 315,-265 315,-271 315,-271 315,-283 315,-283 315,-289 309,-295 303,-295"/>
<text text-anchor="middle" x="246" y="-273.9" font-family="sans" font-size="12.00" fill="#c4c7c7">Differential Equations</text>
</a>
</g>
</g>
<!-- Knowledege Base&#45;&gt;Differential Equations -->
<g id="edge8" class="edge">
<title>Knowledege Base&#45;&gt;Differential Equations</title>
<path fill="none" stroke="#b75867" d="M77.33,-332.82C89.66,-321.33 107.02,-307.16 125,-299 138.08,-293.06 152.66,-288.72 167.02,-285.56"/>
<polygon fill="#b75867" stroke="#b75867" points="167.81,-288.97 176.91,-283.55 166.41,-282.11 167.81,-288.97"/>
</g>
<!-- OOP -->
<g id="node10" class="node">
<title>OOP</title>
<g id="a_node10"><a xlink:href="../OOP.html" xlink:title="OOP" target="_parent">
<path fill="#273434" stroke="#b75867" d="M261,-258C261,-258 231,-258 231,-258 225,-258 219,-252 219,-246 219,-246 219,-234 219,-234 219,-228 225,-222 231,-222 231,-222 261,-222 261,-222 267,-222 273,-228 273,-234 273,-234 273,-246 273,-246 273,-252 267,-258 261,-258"/>
<text text-anchor="middle" x="246" y="-236.9" font-family="sans" font-size="12.00" fill="#c4c7c7">OOP</text>
</a>
</g>
</g>
<!-- Knowledege Base&#45;&gt;OOP -->
<g id="edge9" class="edge">
<title>Knowledege Base&#45;&gt;OOP</title>
<path fill="none" stroke="#b75867" d="M67.71,-332.74C78,-312.08 97.67,-279.09 125,-262 149.98,-246.38 183.25,-241.24 208.43,-239.8"/>
<polygon fill="#b75867" stroke="#b75867" points="208.82,-243.29 218.67,-239.39 208.54,-236.29 208.82,-243.29"/>
</g>
<!-- Discrete Structures -->
<g id="node11" class="node">
<title>Discrete Structures</title>
<g id="a_node11"><a xlink:href="../Discrete Structures.html" xlink:title="Discrete Structures" target="_parent">
<path fill="#273434" stroke="#b75867" d="M295,-591C295,-591 197,-591 197,-591 191,-591 185,-585 185,-579 185,-579 185,-567 185,-567 185,-561 191,-555 197,-555 197,-555 295,-555 295,-555 301,-555 307,-561 307,-567 307,-567 307,-579 307,-579 307,-585 301,-591 295,-591"/>
<text text-anchor="middle" x="246" y="-569.9" font-family="sans" font-size="12.00" fill="#c4c7c7">Discrete Structures</text>
</a>
</g>
</g>
<!-- Knowledege Base&#45;&gt;Discrete Structures -->
<g id="edge10" class="edge">
<title>Knowledege Base&#45;&gt;Discrete Structures</title>
<path fill="none" stroke="#b75867" d="M59.65,-369.22C61.03,-408.85 70.23,-503.18 125,-551 138.8,-563.05 156.97,-569.47 174.98,-572.68"/>
<polygon fill="#b75867" stroke="#b75867" points="174.54,-576.16 184.95,-574.16 175.57,-569.23 174.54,-576.16"/>
</g>
<!-- Advanced Algebra -->
<g id="node12" class="node">
<title>Advanced Algebra</title>
<g id="a_node12"><a xlink:href="../Advanced Algebra.html" xlink:title="Advanced Algebra" target="_parent">
<path fill="#273434" stroke="#b75867" d="M293.5,-221C293.5,-221 198.5,-221 198.5,-221 192.5,-221 186.5,-215 186.5,-209 186.5,-209 186.5,-197 186.5,-197 186.5,-191 192.5,-185 198.5,-185 198.5,-185 293.5,-185 293.5,-185 299.5,-185 305.5,-191 305.5,-197 305.5,-197 305.5,-209 305.5,-209 305.5,-215 299.5,-221 293.5,-221"/>
<text text-anchor="middle" x="246" y="-199.9" font-family="sans" font-size="12.00" fill="#c4c7c7">Advanced Algebra</text>
</a>
</g>
</g>
<!-- Knowledege Base&#45;&gt;Advanced Algebra -->
<g id="edge11" class="edge">
<title>Knowledege Base&#45;&gt;Advanced Algebra</title>
<path fill="none" stroke="#b75867" d="M63.59,-332.65C70.84,-304.68 88.71,-251.81 125,-225 139.8,-214.06 158.39,-208.01 176.48,-204.8"/>
<polygon fill="#b75867" stroke="#b75867" points="177.08,-208.25 186.45,-203.29 176.04,-201.32 177.08,-208.25"/>
</g>
<!-- Differential Analysis -->
<g id="node13" class="node">
<title>Differential Analysis</title>
<g id="a_node13"><a xlink:href="../Differential Analysis.html" xlink:title="Differential Analysis" target="_parent">
<path fill="#273434" stroke="#b75867" d="M297.5,-554C297.5,-554 194.5,-554 194.5,-554 188.5,-554 182.5,-548 182.5,-542 182.5,-542 182.5,-530 182.5,-530 182.5,-524 188.5,-518 194.5,-518 194.5,-518 297.5,-518 297.5,-518 303.5,-518 309.5,-524 309.5,-530 309.5,-530 309.5,-542 309.5,-542 309.5,-548 303.5,-554 297.5,-554"/>
<text text-anchor="middle" x="246" y="-532.9" font-family="sans" font-size="12.00" fill="#c4c7c7">Differential Analysis</text>
</a>
</g>
</g>
<!-- Knowledege Base&#45;&gt;Differential Analysis -->
<g id="edge12" class="edge">
<title>Knowledege Base&#45;&gt;Differential Analysis</title>
<path fill="none" stroke="#b75867" d="M61.27,-369.21C65.56,-403.17 79.77,-476.05 125,-513 138.37,-523.92 155.39,-530.12 172.38,-533.53"/>
<polygon fill="#b75867" stroke="#b75867" points="171.91,-537 182.35,-535.22 173.08,-530.09 171.91,-537"/>
</g>
<!-- Knowledege Base&#45;&gt;Differential Analysis -->
<g id="edge16" class="edge">
<title>Knowledege Base&#45;&gt;Differential Analysis</title>
<path fill="none" stroke="#b75867" d="M61.2,-369.26C65.41,-403.41 79.54,-476.86 125,-514 138.37,-524.92 155.39,-531.12 172.38,-534.49"/>
<polygon fill="#b75867" stroke="#b75867" points="171.91,-537.96 182.35,-536.17 173.07,-531.06 171.91,-537.96"/>
</g>
<!-- Introduction to programming -->
<g id="node14" class="node">
<title>Introduction to programming</title>
<g id="a_node14"><a xlink:href="../Introduction to programming.html" xlink:title="Introduction to programming" target="_parent">
<path fill="#273434" stroke="#b75867" d="M325.5,-184C325.5,-184 166.5,-184 166.5,-184 160.5,-184 154.5,-178 154.5,-172 154.5,-172 154.5,-160 154.5,-160 154.5,-154 160.5,-148 166.5,-148 166.5,-148 325.5,-148 325.5,-148 331.5,-148 337.5,-154 337.5,-160 337.5,-160 337.5,-172 337.5,-172 337.5,-178 331.5,-184 325.5,-184"/>
<text text-anchor="middle" x="246" y="-162.9" font-family="sans" font-size="12.00" fill="#c4c7c7">Introduction to programming</text>
</a>
</g>
</g>
<!-- Knowledege Base&#45;&gt;Introduction to programming -->
<g id="edge13" class="edge">
<title>Knowledege Base&#45;&gt;Introduction to programming</title>
<path fill="none" stroke="#b75867" d="M61.2,-332.74C65.41,-298.59 79.54,-225.14 125,-188 131.05,-183.05 137.86,-179.08 145.07,-175.89"/>
<polygon fill="#b75867" stroke="#b75867" points="146.34,-179.15 154.39,-172.27 143.81,-172.63 146.34,-179.15"/>
</g>
<!-- Analytic Geometry -->
<g id="node15" class="node">
<title>Analytic Geometry</title>
<g id="a_node15"><a xlink:href="../Analytic Geometry.html" xlink:title="Analytic Geometry" target="_parent">
<path fill="#273434" stroke="#b75867" d="M294.5,-147C294.5,-147 197.5,-147 197.5,-147 191.5,-147 185.5,-141 185.5,-135 185.5,-135 185.5,-123 185.5,-123 185.5,-117 191.5,-111 197.5,-111 197.5,-111 294.5,-111 294.5,-111 300.5,-111 306.5,-117 306.5,-123 306.5,-123 306.5,-135 306.5,-135 306.5,-141 300.5,-147 294.5,-147"/>
<text text-anchor="middle" x="246" y="-125.9" font-family="sans" font-size="12.00" fill="#c4c7c7">Analytic Geometry</text>
</a>
</g>
</g>
<!-- Knowledege Base&#45;&gt;Analytic Geometry -->
<g id="edge14" class="edge">
<title>Knowledege Base&#45;&gt;Analytic Geometry</title>
<path fill="none" stroke="#b75867" d="M59.65,-332.78C61.03,-293.15 70.23,-198.82 125,-151 138.87,-138.89 157.15,-132.47 175.25,-129.27"/>
<polygon fill="#b75867" stroke="#b75867" points="175.87,-132.72 185.25,-127.81 174.85,-125.79 175.87,-132.72"/>
</g>
<!-- Linear Algebra -->
<g id="node16" class="node">
<title>Linear Algebra</title>
<g id="a_node16"><a xlink:href="../Linear Algebra.html" xlink:title="Linear Algebra" target="_parent">
<path fill="#273434" stroke="#b75867" d="M283,-517C283,-517 209,-517 209,-517 203,-517 197,-511 197,-505 197,-505 197,-493 197,-493 197,-487 203,-481 209,-481 209,-481 283,-481 283,-481 289,-481 295,-487 295,-493 295,-493 295,-505 295,-505 295,-511 289,-517 283,-517"/>
<text text-anchor="middle" x="246" y="-495.9" font-family="sans" font-size="12.00" fill="#c4c7c7">Linear Algebra</text>
</a>
</g>
</g>
<!-- Knowledege Base&#45;&gt;Linear Algebra -->
<g id="edge15" class="edge">
<title>Knowledege Base&#45;&gt;Linear Algebra</title>
<path fill="none" stroke="#b75867" d="M63.59,-369.35C70.84,-397.32 88.71,-450.19 125,-477 142.64,-490.03 165.64,-496.12 186.79,-498.75"/>
<polygon fill="#b75867" stroke="#b75867" points="186.68,-502.26 196.98,-499.78 187.39,-495.3 186.68,-502.26"/>
</g>
<!-- Org Roam -->
<g id="node17" class="node">
<title>Org Roam</title>
<g id="a_node17"><a xlink:href="../Org Roam.html" xlink:title="Org Roam" target="_parent">
<path fill="#273434" stroke="#b75867" d="M270,-73C270,-73 222,-73 222,-73 216,-73 210,-67 210,-61 210,-61 210,-49 210,-49 210,-43 216,-37 222,-37 222,-37 270,-37 270,-37 276,-37 282,-43 282,-49 282,-49 282,-61 282,-61 282,-67 276,-73 270,-73"/>
<text text-anchor="middle" x="246" y="-51.9" font-family="sans" font-size="12.00" fill="#c4c7c7">Org Roam</text>
</a>
</g>
</g>
<!-- Knowledege Base&#45;&gt;Org Roam -->
<g id="edge17" class="edge">
<title>Knowledege Base&#45;&gt;Org Roam</title>
<path fill="none" stroke="#b75867" d="M61.31,-332.66C67.15,-277.17 87.38,-112.67 125,-77 144.66,-58.36 174.62,-52.86 199.69,-52.01"/>
<polygon fill="#b75867" stroke="#b75867" points="199.77,-55.51 209.73,-51.91 199.69,-48.51 199.77,-55.51"/>
</g>
<!-- Org&#45;mode -->
<g id="node18" class="node">
<title>Org&#45;mode</title>
<g id="a_node18"><a xlink:href="../Org-mode.html" xlink:title="Org&#45;mode" target="_parent">
<path fill="#273434" stroke="#b75867" d="M271,-36C271,-36 221,-36 221,-36 215,-36 209,-30 209,-24 209,-24 209,-12 209,-12 209,-6 215,0 221,0 221,0 271,0 271,0 277,0 283,-6 283,-12 283,-12 283,-24 283,-24 283,-30 277,-36 271,-36"/>
<text text-anchor="middle" x="246" y="-14.9" font-family="sans" font-size="12.00" fill="#c4c7c7">Org&#45;mode</text>
</a>
</g>
</g>
<!-- Knowledege Base&#45;&gt;Org&#45;mode -->
<g id="edge18" class="edge">
<title>Knowledege Base&#45;&gt;Org&#45;mode</title>
<path fill="none" stroke="#b75867" d="M60.73,-332.81C65.19,-272.62 82.51,-81.39 125,-40 144.2,-21.3 173.75,-15.71 198.72,-14.84"/>
<polygon fill="#b75867" stroke="#b75867" points="198.78,-18.34 208.74,-14.73 198.7,-11.34 198.78,-18.34"/>
</g>
<!-- Projects -->
<g id="node19" class="node">
<title>Projects</title>
<g id="a_node19"><a xlink:href="../Projects.html" xlink:title="Projects" target="_parent">
<path fill="none" stroke="#b75867" d="M265,-110C265,-110 227,-110 227,-110 221,-110 215,-104 215,-98 215,-98 215,-86 215,-86 215,-80 221,-74 227,-74 227,-74 265,-74 265,-74 271,-74 277,-80 277,-86 277,-86 277,-98 277,-98 277,-104 271,-110 265,-110"/>
<text text-anchor="middle" x="246" y="-88.9" font-family="sans" font-size="12.00" fill="#c4c7c7">Projects</text>
</a>
</g>
</g>
<!-- Knowledege Base&#45;&gt;Projects -->
<g id="edge19" class="edge">
<title>Knowledege Base&#45;&gt;Projects</title>
<path fill="none" stroke="#ffffff" d="M63.54,-322.59C72.17,-266.01 94.16,-142.23 125,-114 149.14,-91.9 187.85,-88.47 214.75,-89.21"/>
<polygon fill="#ffffff" stroke="#ffffff" points="60.05,-322.25 62.04,-332.65 66.98,-323.28 60.05,-322.25"/>
</g>
<!-- Computer Architectures&#45;&gt;Knowledege Base -->
<g id="edge20" class="edge">
<title>Computer Architectures&#45;&gt;Knowledege Base</title>
<path fill="none" stroke="#ffffff" d="M160.2,-645.12C147.16,-641.32 134.8,-635.29 125,-626 87.29,-590.25 67.05,-425.06 61.26,-369.38"/>
<polygon fill="#ffffff" stroke="#ffffff" points="159.72,-648.6 170.27,-647.6 161.4,-641.81 159.72,-648.6"/>
</g>
<!-- Numeric Methods&#45;&gt;Knowledege Base -->
<g id="edge24" class="edge">
<title>Numeric Methods&#45;&gt;Knowledege Base</title>
<path fill="none" stroke="#ffffff" d="M178.03,-611.63C158.9,-608.69 139.37,-602.15 125,-589 92.02,-558.81 69.15,-419.31 61.93,-369.08"/>
<polygon fill="#ffffff" stroke="#ffffff" points="177.62,-615.11 187.97,-612.85 178.47,-608.16 177.62,-615.11"/>
</g>
<!-- Lagrange Interpolation -->
<g id="node20" class="node">
<title>Lagrange Interpolation</title>
<g id="a_node20"><a xlink:href="../Lagrange Interpolation.html" xlink:title="Lagrange Interpolation" target="_parent">
<path fill="#273434" stroke="#b75867" d="M541,-813C541,-813 418,-813 418,-813 412,-813 406,-807 406,-801 406,-801 406,-789 406,-789 406,-783 412,-777 418,-777 418,-777 541,-777 541,-777 547,-777 553,-783 553,-789 553,-789 553,-801 553,-801 553,-807 547,-813 541,-813"/>
<text text-anchor="middle" x="479.5" y="-791.9" font-family="sans" font-size="12.00" fill="#c4c7c7">Lagrange Interpolation</text>
</a>
</g>
</g>
<!-- Numeric Methods&#45;&gt;Lagrange Interpolation -->
<g id="edge21" class="edge">
<title>Numeric Methods&#45;&gt;Lagrange Interpolation</title>
<path fill="none" stroke="#b75867" d="M304.22,-606.24C327.04,-607.95 351.51,-614.45 367,-632 387.77,-655.53 354.57,-749.18 375,-773 380.87,-779.84 388.28,-784.86 396.44,-788.52"/>
<polygon fill="#b75867" stroke="#b75867" points="395.33,-791.84 405.92,-792.09 397.8,-785.29 395.33,-791.84"/>
</g>
<!-- Function Approximation -->
<g id="node21" class="node">
<title>Function Approximation</title>
<g id="a_node21"><a xlink:href="../Function Approximation.html" xlink:title="Function Approximation" target="_parent">
<path fill="#273434" stroke="#b75867" d="M544,-850C544,-850 415,-850 415,-850 409,-850 403,-844 403,-838 403,-838 403,-826 403,-826 403,-820 409,-814 415,-814 415,-814 544,-814 544,-814 550,-814 556,-820 556,-826 556,-826 556,-838 556,-838 556,-844 550,-850 544,-850"/>
<text text-anchor="middle" x="479.5" y="-828.9" font-family="sans" font-size="12.00" fill="#c4c7c7">Function Approximation</text>
</a>
</g>
</g>
<!-- Numeric Methods&#45;&gt;Function Approximation -->
<g id="edge22" class="edge">
<title>Numeric Methods&#45;&gt;Function Approximation</title>
<path fill="none" stroke="#b75867" d="M304.01,-606.13C326.93,-607.79 351.55,-614.28 367,-632 380.01,-646.92 362.2,-794.9 375,-810 380.18,-816.11 386.59,-820.78 393.68,-824.31"/>
<polygon fill="#b75867" stroke="#b75867" points="392.38,-827.57 402.96,-828.21 395.1,-821.11 392.38,-827.57"/>
</g>
<!-- Subjects -->
<g id="node22" class="node">
<title>Subjects</title>
<g id="a_node22"><a xlink:href="../Subjects.html" xlink:title="Subjects" target="_parent">
<path fill="none" stroke="#b75867" d="M500,-554C500,-554 459,-554 459,-554 453,-554 447,-548 447,-542 447,-542 447,-530 447,-530 447,-524 453,-518 459,-518 459,-518 500,-518 500,-518 506,-518 512,-524 512,-530 512,-530 512,-542 512,-542 512,-548 506,-554 500,-554"/>
<text text-anchor="middle" x="479.5" y="-532.9" font-family="sans" font-size="12.00" fill="#c4c7c7">Subjects</text>
</a>
</g>
</g>
<!-- Numeric Methods&#45;&gt;Subjects -->
<g id="edge23" class="edge">
<title>Numeric Methods&#45;&gt;Subjects</title>
<path fill="none" stroke="#ffffff" d="M314.04,-610.76C333.18,-607.78 352.69,-601.22 367,-588 377.14,-578.64 365,-567.5 375,-558 394.04,-539.91 424.11,-535.16 446.94,-534.5"/>
<polygon fill="#ffffff" stroke="#ffffff" points="313.59,-607.29 304.1,-612.01 314.46,-614.23 313.59,-607.29"/>
</g>
<!-- Design and Analysis of Algorithms&#45;&gt;Knowledege Base -->
<g id="edge25" class="edge">
<title>Design and Analysis of Algorithms&#45;&gt;Knowledege Base</title>
<path fill="none" stroke="#ffffff" d="M133.64,-445.84C130.67,-444.35 127.78,-442.74 125,-441 97.35,-423.71 77.54,-390.13 67.35,-369.24"/>
<polygon fill="#ffffff" stroke="#ffffff" points="132.2,-449.03 142.75,-449.96 135.08,-442.65 132.2,-449.03"/>
</g>
<!-- Logic Programming&#45;&gt;Knowledege Base -->
<g id="edge26" class="edge">
<title>Logic Programming&#45;&gt;Knowledege Base</title>
<path fill="none" stroke="#ffffff" d="M172.83,-418.64C156.63,-415.42 139.85,-410.74 125,-404 106.49,-395.6 88.64,-380.83 76.26,-369.02"/>
<polygon fill="#ffffff" stroke="#ffffff" points="172.35,-422.11 182.82,-420.46 173.61,-415.22 172.35,-422.11"/>
</g>
<!-- Data Structures&#45;&gt;Knowledege Base -->
<g id="edge27" class="edge">
<title>Data Structures&#45;&gt;Knowledege Base</title>
<path fill="none" stroke="#ffffff" d="M183.83,-378.27C164.94,-374.88 144.08,-370.93 125,-367 122.49,-366.48 119.92,-365.94 117.33,-365.39"/>
<polygon fill="#ffffff" stroke="#ffffff" points="183.35,-381.74 193.81,-380.05 184.58,-374.85 183.35,-381.74"/>
</g>
<!-- Languages, Automata and Computation&#45;&gt;Knowledege Base -->
<g id="edge28" class="edge">
<title>Languages, Automata and Computation&#45;&gt;Knowledege Base</title>
<path fill="none" stroke="#ffffff" d="M117.66,-351.7C117.5,-351.7 117.34,-351.7 117.18,-351.7"/>
<polygon fill="#ffffff" stroke="#ffffff" points="114.94,-355.19 124.95,-351.72 114.96,-348.19 114.94,-355.19"/>
</g>
<!-- Operations Research&#45;&gt;Knowledege Base -->
<g id="edge29" class="edge">
<title>Operations Research&#45;&gt;Knowledege Base</title>
<path fill="none" stroke="#ffffff" d="M169.15,-328.37C154.48,-331.12 139.24,-334.07 125,-337 122.49,-337.52 119.92,-338.06 117.33,-338.61"/>
<polygon fill="#ffffff" stroke="#ffffff" points="170,-331.77 179.19,-326.49 168.72,-324.89 170,-331.77"/>
</g>
<!-- Differential Equations&#45;&gt;Knowledege Base -->
<g id="edge30" class="edge">
<title>Differential Equations&#45;&gt;Knowledege Base</title>
<path fill="none" stroke="#ffffff" d="M167.02,-286.54C152.66,-289.72 138.08,-294.06 125,-300 107.42,-307.98 90.42,-321.71 78.15,-332.91"/>
<polygon fill="#ffffff" stroke="#ffffff" points="167.81,-289.95 176.91,-284.51 166.41,-283.09 167.81,-289.95"/>
</g>
<!-- OOP&#45;&gt;Knowledege Base -->
<g id="edge31" class="edge">
<title>OOP&#45;&gt;Knowledege Base</title>
<path fill="none" stroke="#ffffff" d="M208.43,-240.64C183.25,-242.24 149.98,-247.38 125,-263 98,-279.89 78.47,-312.29 68.08,-332.72"/>
<polygon fill="#ffffff" stroke="#ffffff" points="208.85,-244.12 218.67,-240.15 208.51,-237.13 208.85,-244.12"/>
</g>
<!-- Discrete Structures&#45;&gt;Knowledege Base -->
<g id="edge39" class="edge">
<title>Discrete Structures&#45;&gt;Knowledege Base</title>
<path fill="none" stroke="#ffffff" d="M174.98,-573.65C156.97,-570.47 138.8,-564.05 125,-552 69.96,-503.94 60.94,-408.9 59.63,-369.15"/>
<polygon fill="#ffffff" stroke="#ffffff" points="174.55,-577.12 184.95,-575.09 175.55,-570.19 174.55,-577.12"/>
</g>
<!-- Discrete Structures&#45;&gt;Subjects -->
<g id="edge38" class="edge">
<title>Discrete Structures&#45;&gt;Subjects</title>
<path fill="none" stroke="#ffffff" d="M317.1,-561.8C360.24,-554.9 413.45,-546.4 446.69,-541.08"/>
<polygon fill="#ffffff" stroke="#ffffff" points="316.54,-558.34 307.22,-563.38 317.65,-565.25 316.54,-558.34"/>
</g>
<!-- Recurrent Equations -->
<g id="node23" class="node">
<title>Recurrent Equations</title>
<g id="a_node23"><a xlink:href="../Recurrent Equations.html" xlink:title="Recurrent Equations" target="_parent">
<path fill="#273434" stroke="#b75867" d="M533,-665C533,-665 426,-665 426,-665 420,-665 414,-659 414,-653 414,-653 414,-641 414,-641 414,-635 420,-629 426,-629 426,-629 533,-629 533,-629 539,-629 545,-635 545,-641 545,-641 545,-653 545,-653 545,-659 539,-665 533,-665"/>
<text text-anchor="middle" x="479.5" y="-643.9" font-family="sans" font-size="12.00" fill="#c4c7c7">Recurrent Equations</text>
</a>
</g>
</g>
<!-- Discrete Structures&#45;&gt;Recurrent Equations -->
<g id="edge32" class="edge">
<title>Discrete Structures&#45;&gt;Recurrent Equations</title>
<path fill="none" stroke="#b75867" d="M307.18,-571.32C328.42,-573.74 350.97,-580.2 367,-595 377.14,-604.36 365,-615.5 375,-625 383.11,-632.7 393.21,-637.98 403.9,-641.56"/>
<polygon fill="#b75867" stroke="#b75867" points="403.27,-645.02 413.84,-644.39 405.18,-638.29 403.27,-645.02"/>
</g>
<!-- Combinatorics -->
<g id="node24" class="node">
<title>Combinatorics</title>
<g id="a_node24"><a xlink:href="../Combinatorics.html" xlink:title="Combinatorics" target="_parent">
<path fill="#273434" stroke="#b75867" d="M516.5,-628C516.5,-628 442.5,-628 442.5,-628 436.5,-628 430.5,-622 430.5,-616 430.5,-616 430.5,-604 430.5,-604 430.5,-598 436.5,-592 442.5,-592 442.5,-592 516.5,-592 516.5,-592 522.5,-592 528.5,-598 528.5,-604 528.5,-604 528.5,-616 528.5,-616 528.5,-622 522.5,-628 516.5,-628"/>
<text text-anchor="middle" x="479.5" y="-606.9" font-family="sans" font-size="12.00" fill="#c4c7c7">Combinatorics</text>
</a>
</g>
</g>
<!-- Discrete Structures&#45;&gt;Combinatorics -->
<g id="edge33" class="edge">
<title>Discrete Structures&#45;&gt;Combinatorics</title>
<path fill="none" stroke="#b75867" d="M307.22,-582.62C342.09,-588.2 385.78,-595.18 420.3,-600.7"/>
<polygon fill="#b75867" stroke="#b75867" points="419.81,-604.16 430.24,-602.29 420.92,-597.25 419.81,-604.16"/>
</g>
<!-- Functions -->
<g id="node25" class="node">
<title>Functions</title>
<g id="a_node25"><a xlink:href="../Functions.html" xlink:title="Functions" target="_parent">
<path fill="#273434" stroke="#b75867" d="M503.5,-591C503.5,-591 455.5,-591 455.5,-591 449.5,-591 443.5,-585 443.5,-579 443.5,-579 443.5,-567 443.5,-567 443.5,-561 449.5,-555 455.5,-555 455.5,-555 503.5,-555 503.5,-555 509.5,-555 515.5,-561 515.5,-567 515.5,-567 515.5,-579 515.5,-579 515.5,-585 509.5,-591 503.5,-591"/>
<text text-anchor="middle" x="479.5" y="-569.9" font-family="sans" font-size="12.00" fill="#c4c7c7">Functions</text>
</a>
</g>
</g>
<!-- Discrete Structures&#45;&gt;Functions -->
<g id="edge34" class="edge">
<title>Discrete Structures&#45;&gt;Functions</title>
<path fill="none" stroke="#b75867" d="M307.22,-573C346.6,-573 397.23,-573 433.2,-573"/>
<polygon fill="#b75867" stroke="#b75867" points="433.4,-576.5 443.4,-573 433.4,-569.5 433.4,-576.5"/>
</g>
<!-- Relations -->
<g id="node26" class="node">
<title>Relations</title>
<g id="a_node26"><a xlink:href="../Relations.html" xlink:title="Relations" target="_parent">
<path fill="#273434" stroke="#b75867" d="M502,-776C502,-776 457,-776 457,-776 451,-776 445,-770 445,-764 445,-764 445,-752 445,-752 445,-746 451,-740 457,-740 457,-740 502,-740 502,-740 508,-740 514,-746 514,-752 514,-752 514,-764 514,-764 514,-770 508,-776 502,-776"/>
<text text-anchor="middle" x="479.5" y="-754.9" font-family="sans" font-size="12.00" fill="#c4c7c7">Relations</text>
</a>
</g>
</g>
<!-- Discrete Structures&#45;&gt;Relations -->
<g id="edge35" class="edge">
<title>Discrete Structures&#45;&gt;Relations</title>
<path fill="none" stroke="#b75867" d="M307.02,-569.47C329.02,-571.5 352.14,-578.17 367,-595 387.77,-618.53 354.57,-712.18 375,-736 389.49,-752.9 413.45,-758.73 434.67,-760.18"/>
<polygon fill="#b75867" stroke="#b75867" points="434.69,-763.68 444.82,-760.57 434.96,-756.69 434.69,-763.68"/>
</g>
<!-- Logical Equivalences -->
<g id="node27" class="node">
<title>Logical Equivalences</title>
<g id="a_node27"><a xlink:href="../Logical Equivalences.html" xlink:title="Logical Equivalences" target="_parent">
<path fill="#273434" stroke="#b75867" d="M534,-739C534,-739 425,-739 425,-739 419,-739 413,-733 413,-727 413,-727 413,-715 413,-715 413,-709 419,-703 425,-703 425,-703 534,-703 534,-703 540,-703 546,-709 546,-715 546,-715 546,-727 546,-727 546,-733 540,-739 534,-739"/>
<text text-anchor="middle" x="479.5" y="-717.9" font-family="sans" font-size="12.00" fill="#c4c7c7">Logical Equivalences</text>
</a>
</g>
</g>
<!-- Discrete Structures&#45;&gt;Logical Equivalences -->
<g id="edge36" class="edge">
<title>Discrete Structures&#45;&gt;Logical Equivalences</title>
<path fill="none" stroke="#b75867" d="M307.15,-569.65C329.04,-571.74 352.05,-578.4 367,-595 382.51,-612.22 359.73,-681.56 375,-699 382.53,-707.61 392.53,-713.33 403.33,-717.06"/>
<polygon fill="#b75867" stroke="#b75867" points="402.42,-720.44 413,-719.85 404.36,-713.71 402.42,-720.44"/>
</g>
<!-- Logical Operators -->
<g id="node28" class="node">
<title>Logical Operators</title>
<g id="a_node28"><a xlink:href="../Logical Operators.html" xlink:title="Logical Operators" target="_parent">
<path fill="#273434" stroke="#b75867" d="M525.5,-702C525.5,-702 433.5,-702 433.5,-702 427.5,-702 421.5,-696 421.5,-690 421.5,-690 421.5,-678 421.5,-678 421.5,-672 427.5,-666 433.5,-666 433.5,-666 525.5,-666 525.5,-666 531.5,-666 537.5,-672 537.5,-678 537.5,-678 537.5,-690 537.5,-690 537.5,-696 531.5,-702 525.5,-702"/>
<text text-anchor="middle" x="479.5" y="-680.9" font-family="sans" font-size="12.00" fill="#c4c7c7">Logical Operators</text>
</a>
</g>
</g>
<!-- Discrete Structures&#45;&gt;Logical Operators -->
<g id="edge37" class="edge">
<title>Discrete Structures&#45;&gt;Logical Operators</title>
<path fill="none" stroke="#b75867" d="M307.1,-570.01C328.85,-572.18 351.77,-578.79 367,-595 387.53,-616.86 354.78,-639.86 375,-662 384.52,-672.42 397.65,-678.57 411.37,-682.07"/>
<polygon fill="#b75867" stroke="#b75867" points="410.91,-685.55 421.41,-684.18 412.34,-678.7 410.91,-685.55"/>
</g>
<!-- Advanced Algebra&#45;&gt;Knowledege Base -->
<g id="edge40" class="edge">
<title>Advanced Algebra&#45;&gt;Knowledege Base</title>
<path fill="none" stroke="#ffffff" d="M176.48,-205.76C158.39,-209.01 139.8,-215.06 125,-226 88.91,-252.67 71.03,-305.1 63.71,-332.83"/>
<polygon fill="#ffffff" stroke="#ffffff" points="177.1,-209.2 186.45,-204.22 176.03,-202.29 177.1,-209.2"/>
</g>
<!-- Differential Analysis&#45;&gt;Knowledege Base -->
<g id="edge43" class="edge">
<title>Differential Analysis&#45;&gt;Knowledege Base</title>
<path fill="none" stroke="#ffffff" d="M172.38,-535.46C155.39,-532.12 138.37,-525.92 125,-515 79.18,-477.57 65.19,-403.26 61.1,-369.03"/>
<polygon fill="#ffffff" stroke="#ffffff" points="171.91,-538.93 182.35,-537.11 173.06,-532.03 171.91,-538.93"/>
</g>
<!-- Differential Analysis&#45;&gt;Knowledege Base -->
<g id="edge44" class="edge">
<title>Differential Analysis&#45;&gt;Knowledege Base</title>
<path fill="none" stroke="#ffffff" d="M172.38,-536.43C155.39,-533.12 138.37,-526.92 125,-516 78.95,-478.37 65.05,-403.49 61.04,-369.06"/>
<polygon fill="#ffffff" stroke="#ffffff" points="171.92,-539.9 182.35,-538.06 173.05,-532.99 171.92,-539.9"/>
</g>
<!-- Differential Analysis&#45;&gt;Subjects -->
<g id="edge42" class="edge">
<title>Differential Analysis&#45;&gt;Subjects</title>
<path fill="none" stroke="#ffffff" d="M319.72,-536C362.39,-536 414.17,-536 446.73,-536"/>
<polygon fill="#ffffff" stroke="#ffffff" points="319.65,-532.5 309.65,-536 319.65,-539.5 319.65,-532.5"/>
</g>
<!-- Set -->
<g id="node29" class="node">
<title>Set</title>
<g id="a_node29"><a xlink:href="../Set.html" xlink:title="Set" target="_parent">
<path fill="#273434" stroke="#b75867" d="M494.5,-517C494.5,-517 464.5,-517 464.5,-517 458.5,-517 452.5,-511 452.5,-505 452.5,-505 452.5,-493 452.5,-493 452.5,-487 458.5,-481 464.5,-481 464.5,-481 494.5,-481 494.5,-481 500.5,-481 506.5,-487 506.5,-493 506.5,-493 506.5,-505 506.5,-505 506.5,-511 500.5,-517 494.5,-517"/>
<text text-anchor="middle" x="479.5" y="-495.9" font-family="sans" font-size="12.00" fill="#c4c7c7">Set</text>
</a>
</g>
</g>
<!-- Differential Analysis&#45;&gt;Set -->
<g id="edge41" class="edge">
<title>Differential Analysis&#45;&gt;Set</title>
<path fill="none" stroke="#b75867" d="M309.65,-525.99C352.18,-519.19 406.93,-510.44 442.37,-504.78"/>
<polygon fill="#b75867" stroke="#b75867" points="442.94,-508.23 452.27,-503.19 441.84,-501.32 442.94,-508.23"/>
</g>
<!-- Introduction to programming&#45;&gt;Knowledege Base -->
<g id="edge45" class="edge">
<title>Introduction to programming&#45;&gt;Knowledege Base</title>
<path fill="none" stroke="#ffffff" d="M145.07,-176.89C137.86,-180.08 131.05,-184.05 125,-189 79.77,-225.95 65.56,-298.83 61.27,-332.79"/>
<polygon fill="#ffffff" stroke="#ffffff" points="146.35,-180.15 154.39,-173.26 143.81,-173.62 146.35,-180.15"/>
</g>
<!-- Analytic Geometry&#45;&gt;Knowledege Base -->
<g id="edge46" class="edge">
<title>Analytic Geometry&#45;&gt;Knowledege Base</title>
<path fill="none" stroke="#ffffff" d="M175.25,-130.23C157.15,-133.47 138.87,-139.89 125,-152 70.51,-199.58 61.13,-293.2 59.67,-332.72"/>
<polygon fill="#ffffff" stroke="#ffffff" points="175.88,-133.67 185.25,-128.74 174.85,-126.75 175.88,-133.67"/>
</g>
<!-- Linear Algebra&#45;&gt;Knowledege Base -->
<g id="edge54" class="edge">
<title>Linear Algebra&#45;&gt;Knowledege Base</title>
<path fill="none" stroke="#ffffff" d="M186.79,-499.69C165.64,-497.12 142.64,-491.03 125,-478 88.32,-450.9 70.45,-397.16 63.36,-369.07"/>
<polygon fill="#ffffff" stroke="#ffffff" points="186.69,-503.19 196.98,-500.68 187.37,-496.23 186.69,-503.19"/>
</g>
<!-- Linear Algebra&#45;&gt;Subjects -->
<g id="edge53" class="edge">
<title>Linear Algebra&#45;&gt;Subjects</title>
<path fill="none" stroke="#ffffff" d="M305.16,-508.3C350.12,-515.48 410.63,-525.15 446.98,-530.96"/>
<polygon fill="#ffffff" stroke="#ffffff" points="305.68,-504.83 295.25,-506.71 304.57,-511.75 305.68,-504.83"/>
</g>
<!-- Matrix -->
<g id="node30" class="node">
<title>Matrix</title>
<g id="a_node30"><a xlink:href="../Matrix.html" xlink:title="Matrix" target="_parent">
<path fill="#273434" stroke="#b75867" d="M494.5,-369C494.5,-369 464.5,-369 464.5,-369 458.5,-369 452.5,-363 452.5,-357 452.5,-357 452.5,-345 452.5,-345 452.5,-339 458.5,-333 464.5,-333 464.5,-333 494.5,-333 494.5,-333 500.5,-333 506.5,-339 506.5,-345 506.5,-345 506.5,-357 506.5,-357 506.5,-363 500.5,-369 494.5,-369"/>
<text text-anchor="middle" x="479.5" y="-347.9" font-family="sans" font-size="12.00" fill="#c4c7c7">Matrix</text>
</a>
</g>
</g>
<!-- Linear Algebra&#45;&gt;Matrix -->
<g id="edge47" class="edge">
<title>Linear Algebra&#45;&gt;Matrix</title>
<path fill="none" stroke="#b75867" d="M295.19,-503.07C320.26,-502.38 349.28,-496.67 367,-477 382.51,-459.78 359.73,-390.44 375,-373 391.37,-354.3 419.34,-349.22 442.08,-348.59"/>
<polygon fill="#b75867" stroke="#b75867" points="442.1,-352.09 452.1,-348.58 442.1,-345.09 442.1,-352.09"/>
</g>
<!-- Bijective function -->
<g id="node31" class="node">
<title>Bijective function</title>
<g id="a_node31"><a xlink:href="../Bijective function.html" xlink:title="Bijective function" target="_parent">
<path fill="#273434" stroke="#b75867" d="M524.5,-332C524.5,-332 434.5,-332 434.5,-332 428.5,-332 422.5,-326 422.5,-320 422.5,-320 422.5,-308 422.5,-308 422.5,-302 428.5,-296 434.5,-296 434.5,-296 524.5,-296 524.5,-296 530.5,-296 536.5,-302 536.5,-308 536.5,-308 536.5,-320 536.5,-320 536.5,-326 530.5,-332 524.5,-332"/>
<text text-anchor="middle" x="479.5" y="-310.9" font-family="sans" font-size="12.00" fill="#c4c7c7">Bijective function</text>
</a>
</g>
</g>
<!-- Linear Algebra&#45;&gt;Bijective function -->
<g id="edge48" class="edge">
<title>Linear Algebra&#45;&gt;Bijective function</title>
<path fill="none" stroke="#b75867" d="M295.05,-503.22C320.23,-502.61 349.41,-496.93 367,-477 387.77,-453.47 354.57,-359.82 375,-336 384.52,-324.9 398.14,-318.57 412.37,-315.13"/>
<polygon fill="#b75867" stroke="#b75867" points="413.15,-318.54 422.28,-313.18 411.8,-311.68 413.15,-318.54"/>
</g>
<!-- Injective function -->
<g id="node32" class="node">
<title>Injective function</title>
<g id="a_node32"><a xlink:href="../Injective function.html" xlink:title="Injective function" target="_parent">
<path fill="#273434" stroke="#b75867" d="M524.5,-295C524.5,-295 434.5,-295 434.5,-295 428.5,-295 422.5,-289 422.5,-283 422.5,-283 422.5,-271 422.5,-271 422.5,-265 428.5,-259 434.5,-259 434.5,-259 524.5,-259 524.5,-259 530.5,-259 536.5,-265 536.5,-271 536.5,-271 536.5,-283 536.5,-283 536.5,-289 530.5,-295 524.5,-295"/>
<text text-anchor="middle" x="479.5" y="-273.9" font-family="sans" font-size="12.00" fill="#c4c7c7">Injective function</text>
</a>
</g>
</g>
<!-- Linear Algebra&#45;&gt;Injective function -->
<g id="edge49" class="edge">
<title>Linear Algebra&#45;&gt;Injective function</title>
<path fill="none" stroke="#b75867" d="M295.14,-503.3C320.35,-502.71 349.53,-497.03 367,-477 380.01,-462.08 362.2,-314.1 375,-299 384.51,-287.79 398.18,-281.43 412.5,-278"/>
<polygon fill="#b75867" stroke="#b75867" points="413.31,-281.4 422.46,-276.06 411.98,-274.53 413.31,-281.4"/>
</g>
<!-- Surjective function -->
<g id="node33" class="node">
<title>Surjective function</title>
<g id="a_node33"><a xlink:href="../Surjective function.html" xlink:title="Surjective function" target="_parent">
<path fill="#273434" stroke="#b75867" d="M528.5,-480C528.5,-480 430.5,-480 430.5,-480 424.5,-480 418.5,-474 418.5,-468 418.5,-468 418.5,-456 418.5,-456 418.5,-450 424.5,-444 430.5,-444 430.5,-444 528.5,-444 528.5,-444 534.5,-444 540.5,-450 540.5,-456 540.5,-456 540.5,-468 540.5,-468 540.5,-474 534.5,-480 528.5,-480"/>
<text text-anchor="middle" x="479.5" y="-458.9" font-family="sans" font-size="12.00" fill="#c4c7c7">Surjective function</text>
</a>
</g>
</g>
<!-- Linear Algebra&#45;&gt;Surjective function -->
<g id="edge50" class="edge">
<title>Linear Algebra&#45;&gt;Surjective function</title>
<path fill="none" stroke="#b75867" d="M295.25,-491.29C327.95,-486.06 371.71,-479.07 408.26,-473.23"/>
<polygon fill="#b75867" stroke="#b75867" points="409.04,-476.65 418.36,-471.61 407.93,-469.73 409.04,-476.65"/>
</g>
<!-- Kronecker Delta -->
<g id="node34" class="node">
<title>Kronecker Delta</title>
<g id="a_node34"><a xlink:href="../Kronecker Delta.html" xlink:title="Kronecker Delta" target="_parent">
<path fill="#273434" stroke="#b75867" d="M521,-443C521,-443 438,-443 438,-443 432,-443 426,-437 426,-431 426,-431 426,-419 426,-419 426,-413 432,-407 438,-407 438,-407 521,-407 521,-407 527,-407 533,-413 533,-419 533,-419 533,-431 533,-431 533,-437 527,-443 521,-443"/>
<text text-anchor="middle" x="479.5" y="-421.9" font-family="sans" font-size="12.00" fill="#c4c7c7">Kronecker Delta</text>
</a>
</g>
</g>
<!-- Linear Algebra&#45;&gt;Kronecker Delta -->
<g id="edge51" class="edge">
<title>Linear Algebra&#45;&gt;Kronecker Delta</title>
<path fill="none" stroke="#b75867" d="M295.02,-501.67C319.41,-500.45 347.86,-494.68 367,-477 377.14,-467.64 365,-456.5 375,-447 386.14,-436.41 401.06,-430.4 416.09,-427.09"/>
<polygon fill="#b75867" stroke="#b75867" points="416.74,-430.53 425.95,-425.29 415.48,-423.65 416.74,-430.53"/>
</g>
<!-- Fundamental Theorem of Algebra -->
<g id="node35" class="node">
<title>Fundamental Theorem of Algebra</title>
<g id="a_node35"><a xlink:href="../Fundamental Theorem of Algebra.html" xlink:title="Fundamental Theorem of Algebra" target="_parent">
<path fill="#273434" stroke="#b75867" d="M572,-406C572,-406 387,-406 387,-406 381,-406 375,-400 375,-394 375,-394 375,-382 375,-382 375,-376 381,-370 387,-370 387,-370 572,-370 572,-370 578,-370 584,-376 584,-382 584,-382 584,-394 584,-394 584,-400 578,-406 572,-406"/>
<text text-anchor="middle" x="479.5" y="-384.9" font-family="sans" font-size="12.00" fill="#c4c7c7">Fundamental Theorem of Algebra</text>
</a>
</g>
</g>
<!-- Linear Algebra&#45;&gt;Fundamental Theorem of Algebra -->
<g id="edge52" class="edge">
<title>Linear Algebra&#45;&gt;Fundamental Theorem of Algebra</title>
<path fill="none" stroke="#b75867" d="M295.17,-502.76C320.07,-501.95 348.95,-496.22 367,-477 385.37,-457.45 361.09,-436.98 373.03,-414.27"/>
<polygon fill="#b75867" stroke="#b75867" points="375.88,-416.3 378.89,-406.14 370.21,-412.21 375.88,-416.3"/>
</g>
<!-- Org Roam&#45;&gt;Knowledege Base -->
<g id="edge57" class="edge">
<title>Org Roam&#45;&gt;Knowledege Base</title>
<path fill="none" stroke="#ffffff" d="M199.69,-52.89C174.62,-53.86 144.66,-59.36 125,-78 87.46,-113.58 67.24,-277.39 61.35,-332.7"/>
<polygon fill="#ffffff" stroke="#ffffff" points="199.79,-56.39 209.73,-52.72 199.67,-49.39 199.79,-56.39"/>
</g>
<!-- Bad Habit -->
<g id="node36" class="node">
<title>Bad Habit</title>
<g id="a_node36"><a xlink:href="../Bad Habit.html" xlink:title="Bad Habit" target="_parent">
<path fill="none" stroke="#b75867" d="M504,-73C504,-73 455,-73 455,-73 449,-73 443,-67 443,-61 443,-61 443,-49 443,-49 443,-43 449,-37 455,-37 455,-37 504,-37 504,-37 510,-37 516,-43 516,-49 516,-49 516,-61 516,-61 516,-67 510,-73 504,-73"/>
<text text-anchor="middle" x="479.5" y="-51.9" font-family="sans" font-size="12.00" fill="#c4c7c7">Bad Habit</text>
</a>
</g>
</g>
<!-- Org Roam&#45;&gt;Bad Habit -->
<g id="edge55" class="edge">
<title>Org Roam&#45;&gt;Bad Habit</title>
<path fill="none" stroke="#ffffff" d="M292.29,-55C336.27,-55 402.16,-55 442.63,-55"/>
<polygon fill="#ffffff" stroke="#ffffff" points="292.16,-51.5 282.16,-55 292.16,-58.5 292.16,-51.5"/>
</g>
<!-- index -->
<g id="node37" class="node">
<title>index</title>
<g id="a_node37"><a xlink:href="../index.html" xlink:title="index" target="_parent">
<path fill="none" stroke="#b75867" d="M494.5,-36C494.5,-36 464.5,-36 464.5,-36 458.5,-36 452.5,-30 452.5,-24 452.5,-24 452.5,-12 452.5,-12 452.5,-6 458.5,0 464.5,0 464.5,0 494.5,0 494.5,0 500.5,0 506.5,-6 506.5,-12 506.5,-12 506.5,-24 506.5,-24 506.5,-30 500.5,-36 494.5,-36"/>
<text text-anchor="middle" x="479.5" y="-14.9" font-family="sans" font-size="12.00" fill="#c4c7c7">index</text>
</a>
</g>
</g>
<!-- Org Roam&#45;&gt;index -->
<g id="edge56" class="edge">
<title>Org Roam&#45;&gt;index</title>
<path fill="none" stroke="#ffffff" d="M292.22,-47.77C339.94,-40.15 413.51,-28.39 452.37,-22.18"/>
<polygon fill="#ffffff" stroke="#ffffff" points="291.48,-44.35 282.16,-49.38 292.59,-51.26 291.48,-44.35"/>
</g>
<!-- Org&#45;mode&#45;&gt;Knowledege Base -->
<g id="edge58" class="edge">
<title>Org&#45;mode&#45;&gt;Knowledege Base</title>
<path fill="none" stroke="#ffffff" d="M198.72,-15.72C173.75,-16.71 144.2,-22.3 125,-41 82.61,-82.29 65.27,-272.73 60.76,-332.8"/>
<polygon fill="#ffffff" stroke="#ffffff" points="198.8,-19.22 208.74,-15.55 198.68,-12.22 198.8,-19.22"/>
</g>
<!-- Projects&#45;&gt;Knowledege Base -->
<g id="edge62" class="edge">
<title>Projects&#45;&gt;Knowledege Base</title>
<path fill="none" stroke="#b75867" d="M214.75,-89.99C187.85,-89.47 149.14,-92.9 125,-115 94.23,-143.16 72.27,-266.42 63.6,-322.74"/>
<polygon fill="#b75867" stroke="#b75867" points="60.12,-322.34 62.09,-332.75 67.04,-323.39 60.12,-322.34"/>
</g>
<!-- Projects&#45;&gt;Bad Habit -->
<g id="edge63" class="edge">
<title>Projects&#45;&gt;Bad Habit</title>
<path fill="none" stroke="#ffffff" d="M287.31,-85.56C331.26,-78.53 400.92,-67.4 442.91,-60.69"/>
<polygon fill="#ffffff" stroke="#ffffff" points="286.59,-82.13 277.26,-87.16 287.69,-89.04 286.59,-82.13"/>
</g>
<!-- pulsebinder -->
<g id="node38" class="node">
<title>pulsebinder</title>
<g id="a_node38"><a xlink:href="../pulsebinder.html" xlink:title="pulsebinder" target="_parent">
<path fill="#273434" stroke="#b75867" d="M509.5,-184C509.5,-184 449.5,-184 449.5,-184 443.5,-184 437.5,-178 437.5,-172 437.5,-172 437.5,-160 437.5,-160 437.5,-154 443.5,-148 449.5,-148 449.5,-148 509.5,-148 509.5,-148 515.5,-148 521.5,-154 521.5,-160 521.5,-160 521.5,-172 521.5,-172 521.5,-178 515.5,-184 509.5,-184"/>
<text text-anchor="middle" x="479.5" y="-162.9" font-family="sans" font-size="12.00" fill="#c4c7c7">pulsebinder</text>
</a>
</g>
</g>
<!-- Projects&#45;&gt;pulsebinder -->
<g id="edge59" class="edge">
<title>Projects&#45;&gt;pulsebinder</title>
<path fill="none" stroke="#b75867" d="M277.04,-89.17C303.98,-88.36 342.88,-91.72 367,-114 377.14,-123.36 365,-134.5 375,-144 388.93,-157.24 408.77,-163.33 427.35,-165.91"/>
<polygon fill="#b75867" stroke="#b75867" points="427.18,-169.41 437.5,-167 427.93,-162.45 427.18,-169.41"/>
</g>
<!-- kaltemplate -->
<g id="node39" class="node">
<title>kaltemplate</title>
<g id="a_node39"><a xlink:href="../kaltemplate.html" xlink:title="kaltemplate" target="_parent">
<path fill="#273434" stroke="#b75867" d="M510.5,-147C510.5,-147 448.5,-147 448.5,-147 442.5,-147 436.5,-141 436.5,-135 436.5,-135 436.5,-123 436.5,-123 436.5,-117 442.5,-111 448.5,-111 448.5,-111 510.5,-111 510.5,-111 516.5,-111 522.5,-117 522.5,-123 522.5,-123 522.5,-135 522.5,-135 522.5,-141 516.5,-147 510.5,-147"/>
<text text-anchor="middle" x="479.5" y="-125.9" font-family="sans" font-size="12.00" fill="#c4c7c7">kaltemplate</text>
</a>
</g>
</g>
<!-- Projects&#45;&gt;kaltemplate -->
<g id="edge60" class="edge">
<title>Projects&#45;&gt;kaltemplate</title>
<path fill="none" stroke="#b75867" d="M277.26,-96.84C315.09,-102.88 380.45,-113.33 426.39,-120.67"/>
<polygon fill="#b75867" stroke="#b75867" points="426.03,-124.16 436.46,-122.28 427.14,-117.25 426.03,-124.16"/>
</g>
<!-- kaltask -->
<g id="node40" class="node">
<title>kaltask</title>
<g id="a_node40"><a xlink:href="../kaltask.html" xlink:title="kaltask" target="_parent">
<path fill="#273434" stroke="#b75867" d="M496,-110C496,-110 463,-110 463,-110 457,-110 451,-104 451,-98 451,-98 451,-86 451,-86 451,-80 457,-74 463,-74 463,-74 496,-74 496,-74 502,-74 508,-80 508,-86 508,-86 508,-98 508,-98 508,-104 502,-110 496,-110"/>
<text text-anchor="middle" x="479.5" y="-88.9" font-family="sans" font-size="12.00" fill="#c4c7c7">kaltask</text>
</a>
</g>
</g>
<!-- Projects&#45;&gt;kaltask -->
<g id="edge61" class="edge">
<title>Projects&#45;&gt;kaltask</title>
<path fill="none" stroke="#b75867" d="M277.26,-92C319.22,-92 395.03,-92 440.67,-92"/>
<polygon fill="#b75867" stroke="#b75867" points="440.76,-95.5 450.76,-92 440.76,-88.5 440.76,-95.5"/>
</g>
</g>
</svg>
