<?xml version="1.0" encoding="UTF-8" standalone="no"?>
<!DOCTYPE svg PUBLIC "-//W3C//DTD SVG 1.1//EN"
 "http://www.w3.org/Graphics/SVG/1.1/DTD/svg11.dtd">
<!-- Generated by graphviz version 2.44.0 (0)
 -->
<!-- Title: Kronecker Delta Pages: 1 -->
<svg width="1178pt" height="306pt"
 viewBox="0.00 0.00 1178.00 306.00" xmlns="http://www.w3.org/2000/svg" xmlns:xlink="http://www.w3.org/1999/xlink">
<g id="graph0" class="graph" transform="scale(1 1) rotate(0) translate(4 302)">
<title>Kronecker Delta</title>
<polygon fill="#132020" stroke="transparent" points="-4,4 -4,-302 1174,-302 1174,4 -4,4"/>
<!-- Kronecker Delta -->
<g id="node1" class="node">
<title>Kronecker Delta</title>
<g id="a_node1"><a xlink:href="/Knowledge/Kronecker Delta.html" xlink:title="Kronecker Delta" target="_parent">
<path fill="#273434" stroke="#b75867" d="M95,-73C95,-73 12,-73 12,-73 6,-73 0,-67 0,-61 0,-61 0,-49 0,-49 0,-43 6,-37 12,-37 12,-37 95,-37 95,-37 101,-37 107,-43 107,-49 107,-49 107,-61 107,-61 107,-67 101,-73 95,-73"/>
<text text-anchor="middle" x="53.5" y="-51.9" font-family="sans" font-size="12.00" fill="#c4c7c7">Kronecker Delta</text>
</a>
</g>
</g>
<!-- Linear Algebra -->
<g id="node2" class="node">
<title>Linear Algebra</title>
<g id="a_node2"><a xlink:href="/Knowledge/Linear Algebra.html" xlink:title="Linear Algebra" target="_parent">
<path fill="none" stroke="#b75867" d="M270,-167C270,-167 196,-167 196,-167 190,-167 184,-161 184,-155 184,-155 184,-143 184,-143 184,-137 190,-131 196,-131 196,-131 270,-131 270,-131 276,-131 282,-137 282,-143 282,-143 282,-155 282,-155 282,-161 276,-167 270,-167"/>
<text text-anchor="middle" x="233" y="-145.9" font-family="sans" font-size="12.00" fill="#c4c7c7">Linear Algebra</text>
</a>
</g>
</g>
<!-- Kronecker Delta&#45;&gt;Linear Algebra -->
<g id="edge1" class="edge">
<title>Kronecker Delta&#45;&gt;Linear Algebra</title>
<path fill="none" stroke="#ffffff" d="M97.93,-78C128.71,-94.3 169.43,-115.86 197.88,-130.93"/>
<polygon fill="#ffffff" stroke="#ffffff" points="99.2,-74.71 88.72,-73.12 95.92,-80.9 99.2,-74.71"/>
</g>
<!-- Fundamental polynomials of Lagrange -->
<g id="node3" class="node">
<title>Fundamental polynomials of Lagrange</title>
<g id="a_node3"><a xlink:href="/Knowledge/Fundamental polynomials of Lagrange.html" xlink:title="Fundamental polynomials of Lagrange" target="_parent">
<path fill="none" stroke="#b75867" d="M339,-83C339,-83 127,-83 127,-83 121,-83 115,-77 115,-71 115,-71 115,-59 115,-59 115,-53 121,-47 127,-47 127,-47 339,-47 339,-47 345,-47 351,-53 351,-59 351,-59 351,-71 351,-71 351,-77 345,-83 339,-83"/>
<text text-anchor="middle" x="233" y="-61.9" font-family="sans" font-size="12.00" fill="#c4c7c7">Fundamental polynomials of Lagrange</text>
</a>
</g>
</g>
<!-- Kronecker Delta&#45;&gt;Fundamental polynomials of Lagrange -->
<g id="edge2" class="edge">
<title>Kronecker Delta&#45;&gt;Fundamental polynomials of Lagrange</title>
<path fill="none" stroke="#ffffff" d="M114.28,-58.37C114.44,-58.38 114.6,-58.39 114.76,-58.39"/>
<polygon fill="#ffffff" stroke="#ffffff" points="117.46,-55.04 107.28,-57.97 117.06,-62.03 117.46,-55.04"/>
</g>
<!-- Lagrange Interpolation Problem -->
<g id="node4" class="node">
<title>Lagrange Interpolation Problem</title>
<g id="a_node4"><a xlink:href="/Knowledge/Lagrange Interpolation Problem.html" xlink:title="Lagrange Interpolation Problem" target="_parent">
<path fill="none" stroke="#b75867" d="M546,-73C546,-73 371,-73 371,-73 365,-73 359,-67 359,-61 359,-61 359,-49 359,-49 359,-43 365,-37 371,-37 371,-37 546,-37 546,-37 552,-37 558,-43 558,-49 558,-49 558,-61 558,-61 558,-67 552,-73 546,-73"/>
<text text-anchor="middle" x="458.5" y="-51.9" font-family="sans" font-size="12.00" fill="#c4c7c7">Lagrange Interpolation Problem</text>
</a>
</g>
</g>
<!-- Kronecker Delta&#45;&gt;Lagrange Interpolation Problem -->
<g id="edge3" class="edge">
<title>Kronecker Delta&#45;&gt;Lagrange Interpolation Problem</title>
<path fill="none" stroke="#ffffff" d="M117.58,-49.96C221.52,-45.79 249.42,-47.62 351,-50 353.59,-50.06 356.22,-50.13 358.87,-50.21"/>
<polygon fill="#ffffff" stroke="#ffffff" points="117.13,-46.47 107.28,-50.38 117.41,-53.47 117.13,-46.47"/>
</g>
<!-- Formula of Lagrange for Interpolation -->
<g id="node5" class="node">
<title>Formula of Lagrange for Interpolation</title>
<g id="a_node5"><a xlink:href="/Knowledge/Formula of Lagrange for Interpolation.html" xlink:title="Formula of Lagrange for Interpolation" target="_parent">
<path fill="none" stroke="#b75867" d="M855.5,-36C855.5,-36 648.5,-36 648.5,-36 642.5,-36 636.5,-30 636.5,-24 636.5,-24 636.5,-12 636.5,-12 636.5,-6 642.5,0 648.5,0 648.5,0 855.5,0 855.5,0 861.5,0 867.5,-6 867.5,-12 867.5,-12 867.5,-24 867.5,-24 867.5,-30 861.5,-36 855.5,-36"/>
<text text-anchor="middle" x="752" y="-14.9" font-family="sans" font-size="12.00" fill="#c4c7c7">Formula of Lagrange for Interpolation</text>
</a>
</g>
</g>
<!-- Kronecker Delta&#45;&gt;Formula of Lagrange for Interpolation -->
<g id="edge4" class="edge">
<title>Kronecker Delta&#45;&gt;Formula of Lagrange for Interpolation</title>
<path fill="none" stroke="#ffffff" d="M117.29,-46.87C304.37,-30.59 511.24,-23.41 636.49,-20.26"/>
<polygon fill="#ffffff" stroke="#ffffff" points="116.92,-43.39 107.26,-47.75 117.53,-50.36 116.92,-43.39"/>
</g>
<!-- Linear Algebra&#45;&gt;Kronecker Delta -->
<g id="edge9" class="edge">
<title>Linear Algebra&#45;&gt;Kronecker Delta</title>
<path fill="none" stroke="#b75867" d="M196.77,-130.96C167.96,-115.87 127.13,-94.26 96.59,-77.94"/>
<polygon fill="#b75867" stroke="#b75867" points="97.94,-74.69 87.47,-73.06 94.64,-80.86 97.94,-74.69"/>
</g>
<!-- Matrix -->
<g id="node6" class="node">
<title>Matrix</title>
<g id="a_node6"><a xlink:href="/Knowledge/Matrix.html" xlink:title="Matrix" target="_parent">
<path fill="#273434" stroke="#b75867" d="M473.5,-298C473.5,-298 443.5,-298 443.5,-298 437.5,-298 431.5,-292 431.5,-286 431.5,-286 431.5,-274 431.5,-274 431.5,-268 437.5,-262 443.5,-262 443.5,-262 473.5,-262 473.5,-262 479.5,-262 485.5,-268 485.5,-274 485.5,-274 485.5,-286 485.5,-286 485.5,-292 479.5,-298 473.5,-298"/>
<text text-anchor="middle" x="458.5" y="-276.9" font-family="sans" font-size="12.00" fill="#c4c7c7">Matrix</text>
</a>
</g>
</g>
<!-- Linear Algebra&#45;&gt;Matrix -->
<g id="edge5" class="edge">
<title>Linear Algebra&#45;&gt;Matrix</title>
<path fill="none" stroke="#b75867" d="M249.37,-167.16C271.18,-191.69 313.53,-234.99 359,-258 378.35,-267.79 402.01,-273.26 421.29,-276.29"/>
<polygon fill="#b75867" stroke="#b75867" points="420.82,-279.76 431.21,-277.7 421.81,-272.83 420.82,-279.76"/>
</g>
<!-- Bijective function -->
<g id="node7" class="node">
<title>Bijective function</title>
<g id="a_node7"><a xlink:href="/Knowledge/Bijective function.html" xlink:title="Bijective function" target="_parent">
<path fill="#273434" stroke="#b75867" d="M503.5,-261C503.5,-261 413.5,-261 413.5,-261 407.5,-261 401.5,-255 401.5,-249 401.5,-249 401.5,-237 401.5,-237 401.5,-231 407.5,-225 413.5,-225 413.5,-225 503.5,-225 503.5,-225 509.5,-225 515.5,-231 515.5,-237 515.5,-237 515.5,-249 515.5,-249 515.5,-255 509.5,-261 503.5,-261"/>
<text text-anchor="middle" x="458.5" y="-239.9" font-family="sans" font-size="12.00" fill="#c4c7c7">Bijective function</text>
</a>
</g>
</g>
<!-- Linear Algebra&#45;&gt;Bijective function -->
<g id="edge6" class="edge">
<title>Linear Algebra&#45;&gt;Bijective function</title>
<path fill="none" stroke="#b75867" d="M260.13,-167.2C284.63,-183.5 322.83,-206.92 359,-221 369.25,-224.99 380.4,-228.35 391.39,-231.14"/>
<polygon fill="#b75867" stroke="#b75867" points="390.86,-234.61 401.4,-233.55 392.5,-227.81 390.86,-234.61"/>
</g>
<!-- Injective function -->
<g id="node8" class="node">
<title>Injective function</title>
<g id="a_node8"><a xlink:href="/Knowledge/Injective function.html" xlink:title="Injective function" target="_parent">
<path fill="#273434" stroke="#b75867" d="M503.5,-224C503.5,-224 413.5,-224 413.5,-224 407.5,-224 401.5,-218 401.5,-212 401.5,-212 401.5,-200 401.5,-200 401.5,-194 407.5,-188 413.5,-188 413.5,-188 503.5,-188 503.5,-188 509.5,-188 515.5,-194 515.5,-200 515.5,-200 515.5,-212 515.5,-212 515.5,-218 509.5,-224 503.5,-224"/>
<text text-anchor="middle" x="458.5" y="-202.9" font-family="sans" font-size="12.00" fill="#c4c7c7">Injective function</text>
</a>
</g>
</g>
<!-- Linear Algebra&#45;&gt;Injective function -->
<g id="edge7" class="edge">
<title>Linear Algebra&#45;&gt;Injective function</title>
<path fill="none" stroke="#b75867" d="M282.22,-163.15C305.36,-169.77 333.54,-177.6 359,-184 369.47,-186.63 380.61,-189.27 391.49,-191.77"/>
<polygon fill="#b75867" stroke="#b75867" points="390.85,-195.21 401.38,-194.01 392.4,-188.38 390.85,-195.21"/>
</g>
<!-- Surjective function -->
<g id="node9" class="node">
<title>Surjective function</title>
<g id="a_node9"><a xlink:href="/Knowledge/Surjective function.html" xlink:title="Surjective function" target="_parent">
<path fill="#273434" stroke="#b75867" d="M507.5,-187C507.5,-187 409.5,-187 409.5,-187 403.5,-187 397.5,-181 397.5,-175 397.5,-175 397.5,-163 397.5,-163 397.5,-157 403.5,-151 409.5,-151 409.5,-151 507.5,-151 507.5,-151 513.5,-151 519.5,-157 519.5,-163 519.5,-163 519.5,-175 519.5,-175 519.5,-181 513.5,-187 507.5,-187"/>
<text text-anchor="middle" x="458.5" y="-165.9" font-family="sans" font-size="12.00" fill="#c4c7c7">Surjective function</text>
</a>
</g>
</g>
<!-- Linear Algebra&#45;&gt;Surjective function -->
<g id="edge8" class="edge">
<title>Linear Algebra&#45;&gt;Surjective function</title>
<path fill="none" stroke="#b75867" d="M282.22,-153.32C312.81,-156.05 352.9,-159.64 387.02,-162.69"/>
<polygon fill="#b75867" stroke="#b75867" points="387.13,-166.22 397.4,-163.62 387.75,-159.24 387.13,-166.22"/>
</g>
<!-- Fundamental Theorem of Algebra -->
<g id="node10" class="node">
<title>Fundamental Theorem of Algebra</title>
<g id="a_node10"><a xlink:href="/Knowledge/Fundamental Theorem of Algebra.html" xlink:title="Fundamental Theorem of Algebra" target="_parent">
<path fill="#273434" stroke="#b75867" d="M844.5,-184C844.5,-184 659.5,-184 659.5,-184 653.5,-184 647.5,-178 647.5,-172 647.5,-172 647.5,-160 647.5,-160 647.5,-154 653.5,-148 659.5,-148 659.5,-148 844.5,-148 844.5,-148 850.5,-148 856.5,-154 856.5,-160 856.5,-160 856.5,-172 856.5,-172 856.5,-178 850.5,-184 844.5,-184"/>
<text text-anchor="middle" x="752" y="-162.9" font-family="sans" font-size="12.00" fill="#c4c7c7">Fundamental Theorem of Algebra</text>
</a>
</g>
</g>
<!-- Linear Algebra&#45;&gt;Fundamental Theorem of Algebra -->
<g id="edge10" class="edge">
<title>Linear Algebra&#45;&gt;Fundamental Theorem of Algebra</title>
<path fill="none" stroke="#b75867" d="M282.05,-149.04C345.33,-149.26 460.05,-150.2 558,-154 583.62,-154.99 611.12,-156.46 637.11,-158.03"/>
<polygon fill="#b75867" stroke="#b75867" points="637.18,-161.54 647.38,-158.66 637.61,-154.56 637.18,-161.54"/>
</g>
<!-- Subjects -->
<g id="node11" class="node">
<title>Subjects</title>
<g id="a_node11"><a xlink:href="/Knowledge/Subjects.html" xlink:title="Subjects" target="_parent">
<path fill="none" stroke="#b75867" d="M479,-147C479,-147 438,-147 438,-147 432,-147 426,-141 426,-135 426,-135 426,-123 426,-123 426,-117 432,-111 438,-111 438,-111 479,-111 479,-111 485,-111 491,-117 491,-123 491,-123 491,-135 491,-135 491,-141 485,-147 479,-147"/>
<text text-anchor="middle" x="458.5" y="-125.9" font-family="sans" font-size="12.00" fill="#c4c7c7">Subjects</text>
</a>
</g>
</g>
<!-- Linear Algebra&#45;&gt;Subjects -->
<g id="edge11" class="edge">
<title>Linear Algebra&#45;&gt;Subjects</title>
<path fill="none" stroke="#ffffff" d="M292.21,-143.79C334.9,-139.97 391.24,-134.93 425.89,-131.83"/>
<polygon fill="#ffffff" stroke="#ffffff" points="291.87,-140.31 282.22,-144.68 292.49,-147.28 291.87,-140.31"/>
</g>
<!-- Knowledege Base -->
<g id="node12" class="node">
<title>Knowledege Base</title>
<g id="a_node12"><a xlink:href="/Knowledge/Knowledege Base.html" xlink:title="Knowledege Base" target="_parent">
<path fill="none" stroke="#b75867" d="M505,-110C505,-110 412,-110 412,-110 406,-110 400,-104 400,-98 400,-98 400,-86 400,-86 400,-80 406,-74 412,-74 412,-74 505,-74 505,-74 511,-74 517,-80 517,-86 517,-86 517,-98 517,-98 517,-104 511,-110 505,-110"/>
<text text-anchor="middle" x="458.5" y="-88.9" font-family="sans" font-size="12.00" fill="#c4c7c7">Knowledege Base</text>
</a>
</g>
</g>
<!-- Linear Algebra&#45;&gt;Knowledege Base -->
<g id="edge12" class="edge">
<title>Linear Algebra&#45;&gt;Knowledege Base</title>
<path fill="none" stroke="#ffffff" d="M291.97,-132.07C313.02,-126.11 337.02,-119.53 359,-114 372.17,-110.69 386.39,-107.37 399.82,-104.34"/>
<polygon fill="#ffffff" stroke="#ffffff" points="290.88,-128.75 282.22,-134.85 292.79,-135.48 290.88,-128.75"/>
</g>
<!-- Fundamental polynomials of Lagrange&#45;&gt;Kronecker Delta -->
<g id="edge13" class="edge">
<title>Fundamental polynomials of Lagrange&#45;&gt;Kronecker Delta</title>
<path fill="none" stroke="#b75867" d="M114.76,-59.11C114.6,-59.1 114.44,-59.09 114.28,-59.08"/>
<polygon fill="#b75867" stroke="#b75867" points="117.47,-55.76 107.28,-58.67 117.05,-62.75 117.47,-55.76"/>
</g>
<!-- Fundamental polynomials of Lagrange&#45;&gt;Lagrange Interpolation Problem -->
<g id="edge14" class="edge">
<title>Fundamental polynomials of Lagrange&#45;&gt;Lagrange Interpolation Problem</title>
<path fill="none" stroke="#ffffff" d="M358.41,-59.43C358.57,-59.43 358.73,-59.42 358.89,-59.41"/>
<polygon fill="#ffffff" stroke="#ffffff" points="361.15,-55.81 351.31,-59.75 361.46,-62.8 361.15,-55.81"/>
</g>
<!-- Lagrange Interpolation Problem&#45;&gt;Kronecker Delta -->
<g id="edge15" class="edge">
<title>Lagrange Interpolation Problem&#45;&gt;Kronecker Delta</title>
<path fill="none" stroke="#b75867" d="M358.87,-51.21C356.22,-51.13 353.59,-51.06 351,-51 249.42,-48.62 221.52,-46.79 117.58,-50.96"/>
<polygon fill="#b75867" stroke="#b75867" points="117.13,-47.47 107.28,-51.38 117.41,-54.47 117.13,-47.47"/>
</g>
<!-- Lagrange Interpolation Problem&#45;&gt;Fundamental polynomials of Lagrange -->
<g id="edge17" class="edge">
<title>Lagrange Interpolation Problem&#45;&gt;Fundamental polynomials of Lagrange</title>
<path fill="none" stroke="#b75867" d="M358.89,-60.16C358.73,-60.16 358.57,-60.17 358.41,-60.18"/>
<polygon fill="#b75867" stroke="#b75867" points="361.15,-56.55 351.31,-60.5 361.46,-63.54 361.15,-56.55"/>
</g>
<!-- Lagrange Interpolation Problem&#45;&gt;Formula of Lagrange for Interpolation -->
<g id="edge16" class="edge">
<title>Lagrange Interpolation Problem&#45;&gt;Formula of Lagrange for Interpolation</title>
<path fill="none" stroke="#b75867" d="M558.13,-41.03C560.78,-40.68 563.41,-40.34 566,-40 585.48,-37.47 606.13,-34.9 626.3,-32.46"/>
<polygon fill="#b75867" stroke="#b75867" points="626.97,-35.9 636.48,-31.23 626.13,-28.95 626.97,-35.9"/>
</g>
<!-- Lagrange Interpolation Problem&#45;&gt;Fundamental Theorem of Algebra -->
<g id="edge18" class="edge">
<title>Lagrange Interpolation Problem&#45;&gt;Fundamental Theorem of Algebra</title>
<path fill="none" stroke="#b75867" d="M554.31,-73.3C555.59,-74.47 556.83,-75.7 558,-77 578.11,-99.25 544.79,-122.8 566,-144 584.86,-162.86 610.77,-171.85 637.23,-175.37"/>
<polygon fill="#b75867" stroke="#b75867" points="637.06,-178.87 647.38,-176.46 637.81,-171.91 637.06,-178.87"/>
</g>
<!-- Lagrange Interpolation Polynomial -->
<g id="node13" class="node">
<title>Lagrange Interpolation Polynomial</title>
<g id="a_node13"><a xlink:href="/Knowledge/Lagrange Interpolation Polynomial.html" xlink:title="Lagrange Interpolation Polynomial" target="_parent">
<path fill="none" stroke="#b75867" d="M847.5,-147C847.5,-147 656.5,-147 656.5,-147 650.5,-147 644.5,-141 644.5,-135 644.5,-135 644.5,-123 644.5,-123 644.5,-117 650.5,-111 656.5,-111 656.5,-111 847.5,-111 847.5,-111 853.5,-111 859.5,-117 859.5,-123 859.5,-123 859.5,-135 859.5,-135 859.5,-141 853.5,-147 847.5,-147"/>
<text text-anchor="middle" x="752" y="-125.9" font-family="sans" font-size="12.00" fill="#c4c7c7">Lagrange Interpolation Polynomial</text>
</a>
</g>
</g>
<!-- Lagrange Interpolation Problem&#45;&gt;Lagrange Interpolation Polynomial -->
<g id="edge19" class="edge">
<title>Lagrange Interpolation Problem&#45;&gt;Lagrange Interpolation Polynomial</title>
<path fill="none" stroke="#ffffff" d="M559.6,-81.39C563.75,-91.26 557.77,-99.87 566,-107 587.51,-125.65 616.09,-134.07 644.34,-137.1"/>
<polygon fill="#ffffff" stroke="#ffffff" points="562.36,-79.24 553.65,-73.21 556.71,-83.36 562.36,-79.24"/>
</g>
<!-- Lagrange Interpolation -->
<g id="node14" class="node">
<title>Lagrange Interpolation</title>
<g id="a_node14"><a xlink:href="/Knowledge/Lagrange Interpolation.html" xlink:title="Lagrange Interpolation" target="_parent">
<path fill="none" stroke="#b75867" d="M813.5,-110C813.5,-110 690.5,-110 690.5,-110 684.5,-110 678.5,-104 678.5,-98 678.5,-98 678.5,-86 678.5,-86 678.5,-80 684.5,-74 690.5,-74 690.5,-74 813.5,-74 813.5,-74 819.5,-74 825.5,-80 825.5,-86 825.5,-86 825.5,-98 825.5,-98 825.5,-104 819.5,-110 813.5,-110"/>
<text text-anchor="middle" x="752" y="-88.9" font-family="sans" font-size="12.00" fill="#c4c7c7">Lagrange Interpolation</text>
</a>
</g>
</g>
<!-- Lagrange Interpolation Problem&#45;&gt;Lagrange Interpolation -->
<g id="edge20" class="edge">
<title>Lagrange Interpolation Problem&#45;&gt;Lagrange Interpolation</title>
<path fill="none" stroke="#ffffff" d="M568.07,-70.25C609.13,-75.54 646.86,-80.05 678.47,-83.74"/>
<polygon fill="#ffffff" stroke="#ffffff" points="568.5,-66.78 558.13,-68.97 567.6,-73.72 568.5,-66.78"/>
</g>
<!-- The Lagrange Interpolation Polynomial of a Polynomial is itself -->
<g id="node15" class="node">
<title>The Lagrange Interpolation Polynomial of a Polynomial is itself</title>
<g id="a_node15"><a xlink:href="/Knowledge/The Lagrange Interpolation Polynomial of a Polynomial is itself.html" xlink:title="The Lagrange Interpolation Polynomial of a Polynomial is itself" target="_parent">
<path fill="none" stroke="#b75867" d="M926,-73C926,-73 578,-73 578,-73 572,-73 566,-67 566,-61 566,-61 566,-49 566,-49 566,-43 572,-37 578,-37 578,-37 926,-37 926,-37 932,-37 938,-43 938,-49 938,-49 938,-61 938,-61 938,-67 932,-73 926,-73"/>
<text text-anchor="middle" x="752" y="-51.9" font-family="sans" font-size="12.00" fill="#c4c7c7">The Lagrange Interpolation Polynomial of a Polynomial is itself</text>
</a>
</g>
</g>
<!-- Lagrange Interpolation Problem&#45;&gt;The Lagrange Interpolation Polynomial of a Polynomial is itself -->
<g id="edge21" class="edge">
<title>Lagrange Interpolation Problem&#45;&gt;The Lagrange Interpolation Polynomial of a Polynomial is itself</title>
<path fill="none" stroke="#ffffff" d="M565.44,-55C565.61,-55 565.77,-55 565.93,-55"/>
<polygon fill="#ffffff" stroke="#ffffff" points="568.19,-51.5 558.19,-55 568.19,-58.5 568.19,-51.5"/>
</g>
<!-- Formula of Lagrange for Interpolation&#45;&gt;Kronecker Delta -->
<g id="edge23" class="edge">
<title>Formula of Lagrange for Interpolation&#45;&gt;Kronecker Delta</title>
<path fill="none" stroke="#b75867" d="M636.49,-20.99C511.24,-24.41 304.37,-31.59 117.29,-47.87"/>
<polygon fill="#b75867" stroke="#b75867" points="116.92,-44.39 107.26,-48.75 117.53,-51.36 116.92,-44.39"/>
</g>
<!-- Formula of Lagrange for Interpolation&#45;&gt;Lagrange Interpolation Problem -->
<g id="edge24" class="edge">
<title>Formula of Lagrange for Interpolation&#45;&gt;Lagrange Interpolation Problem</title>
<path fill="none" stroke="#ffffff" d="M626.3,-33.44C606.13,-35.9 585.48,-38.47 566,-41 563.41,-41.34 560.78,-41.68 558.13,-42.03"/>
<polygon fill="#ffffff" stroke="#ffffff" points="626.97,-36.89 636.48,-32.21 626.13,-29.94 626.97,-36.89"/>
</g>
<!-- Formula of Newton for Interpolation -->
<g id="node16" class="node">
<title>Formula of Newton for Interpolation</title>
<g id="a_node16"><a xlink:href="/Knowledge/Formula of Newton for Interpolation.html" xlink:title="Formula of Newton for Interpolation" target="_parent">
<path fill="#273434" stroke="#b75867" d="M1158,-36C1158,-36 958,-36 958,-36 952,-36 946,-30 946,-24 946,-24 946,-12 946,-12 946,-6 952,0 958,0 958,0 1158,0 1158,0 1164,0 1170,-6 1170,-12 1170,-12 1170,-24 1170,-24 1170,-30 1164,-36 1158,-36"/>
<text text-anchor="middle" x="1058" y="-14.9" font-family="sans" font-size="12.00" fill="#c4c7c7">Formula of Newton for Interpolation</text>
</a>
</g>
</g>
<!-- Formula of Lagrange for Interpolation&#45;&gt;Formula of Newton for Interpolation -->
<g id="edge22" class="edge">
<title>Formula of Lagrange for Interpolation&#45;&gt;Formula of Newton for Interpolation</title>
<path fill="none" stroke="#b75867" d="M867.93,-18C890.09,-18 913.37,-18 935.73,-18"/>
<polygon fill="#b75867" stroke="#b75867" points="935.93,-21.5 945.93,-18 935.93,-14.5 935.93,-21.5"/>
</g>
</g>
</svg>
