<?xml version="1.0" encoding="UTF-8" standalone="no"?>
<!DOCTYPE svg PUBLIC "-//W3C//DTD SVG 1.1//EN"
 "http://www.w3.org/Graphics/SVG/1.1/DTD/svg11.dtd">
<!-- Generated by graphviz version 2.44.0 (0)
 -->
<!-- Title: Lagrange Interpolation Pages: 1 -->
<svg width="742pt" height="414pt"
 viewBox="0.00 0.00 742.00 414.00" xmlns="http://www.w3.org/2000/svg" xmlns:xlink="http://www.w3.org/1999/xlink">
<g id="graph0" class="graph" transform="scale(1 1) rotate(0) translate(4 410)">
<title>Lagrange Interpolation</title>
<polygon fill="#132020" stroke="transparent" points="-4,4 -4,-410 738,-410 738,4 -4,4"/>
<!-- Lagrange Interpolation -->
<g id="node1" class="node">
<title>Lagrange Interpolation</title>
<g id="a_node1"><a xlink:href="/Knowledge/Lagrange Interpolation.html" xlink:title="Lagrange Interpolation" target="_parent">
<path fill="#273434" stroke="#b75867" d="M135,-128C135,-128 12,-128 12,-128 6,-128 0,-122 0,-116 0,-116 0,-104 0,-104 0,-98 6,-92 12,-92 12,-92 135,-92 135,-92 141,-92 147,-98 147,-104 147,-104 147,-116 147,-116 147,-122 141,-128 135,-128"/>
<text text-anchor="middle" x="73.5" y="-106.9" font-family="sans" font-size="12.00" fill="#c4c7c7">Lagrange Interpolation</text>
</a>
</g>
</g>
<!-- Lagrange Interpolation Problem -->
<g id="node2" class="node">
<title>Lagrange Interpolation Problem</title>
<g id="a_node2"><a xlink:href="/Knowledge/Lagrange Interpolation Problem.html" xlink:title="Lagrange Interpolation Problem" target="_parent">
<path fill="#273434" stroke="#b75867" d="M342,-276C342,-276 167,-276 167,-276 161,-276 155,-270 155,-264 155,-264 155,-252 155,-252 155,-246 161,-240 167,-240 167,-240 342,-240 342,-240 348,-240 354,-246 354,-252 354,-252 354,-264 354,-264 354,-270 348,-276 342,-276"/>
<text text-anchor="middle" x="254.5" y="-254.9" font-family="sans" font-size="12.00" fill="#c4c7c7">Lagrange Interpolation Problem</text>
</a>
</g>
</g>
<!-- Lagrange Interpolation&#45;&gt;Lagrange Interpolation Problem -->
<g id="edge1" class="edge">
<title>Lagrange Interpolation&#45;&gt;Lagrange Interpolation Problem</title>
<path fill="none" stroke="#b75867" d="M96.45,-128.15C128.34,-154.52 187.59,-203.5 223.49,-233.19"/>
<polygon fill="#b75867" stroke="#b75867" points="221.71,-236.26 231.65,-239.94 226.18,-230.87 221.71,-236.26"/>
</g>
<!-- Numeric Methods -->
<g id="node3" class="node">
<title>Numeric Methods</title>
<g id="a_node3"><a xlink:href="/Knowledge/Numeric Methods.html" xlink:title="Numeric Methods" target="_parent">
<path fill="none" stroke="#b75867" d="M300.5,-147C300.5,-147 208.5,-147 208.5,-147 202.5,-147 196.5,-141 196.5,-135 196.5,-135 196.5,-123 196.5,-123 196.5,-117 202.5,-111 208.5,-111 208.5,-111 300.5,-111 300.5,-111 306.5,-111 312.5,-117 312.5,-123 312.5,-123 312.5,-135 312.5,-135 312.5,-141 306.5,-147 300.5,-147"/>
<text text-anchor="middle" x="254.5" y="-125.9" font-family="sans" font-size="12.00" fill="#c4c7c7">Numeric Methods</text>
</a>
</g>
</g>
<!-- Lagrange Interpolation&#45;&gt;Numeric Methods -->
<g id="edge2" class="edge">
<title>Lagrange Interpolation&#45;&gt;Numeric Methods</title>
<path fill="none" stroke="#ffffff" d="M157.11,-118.77C170.34,-120.17 183.77,-121.6 196.24,-122.92"/>
<polygon fill="#ffffff" stroke="#ffffff" points="157.36,-115.28 147.05,-117.7 156.62,-122.24 157.36,-115.28"/>
</g>
<!-- Extrapolation -->
<g id="node4" class="node">
<title>Extrapolation</title>
<g id="a_node4"><a xlink:href="/Knowledge/Extrapolation.html" xlink:title="Extrapolation" target="_parent">
<path fill="none" stroke="#b75867" d="M289,-110C289,-110 220,-110 220,-110 214,-110 208,-104 208,-98 208,-98 208,-86 208,-86 208,-80 214,-74 220,-74 220,-74 289,-74 289,-74 295,-74 301,-80 301,-86 301,-86 301,-98 301,-98 301,-104 295,-110 289,-110"/>
<text text-anchor="middle" x="254.5" y="-88.9" font-family="sans" font-size="12.00" fill="#c4c7c7">Extrapolation</text>
</a>
</g>
</g>
<!-- Lagrange Interpolation&#45;&gt;Extrapolation -->
<g id="edge3" class="edge">
<title>Lagrange Interpolation&#45;&gt;Extrapolation</title>
<path fill="none" stroke="#ffffff" d="M157.24,-101.68C174.65,-99.93 192.41,-98.14 207.85,-96.59"/>
<polygon fill="#ffffff" stroke="#ffffff" points="156.65,-98.22 147.05,-102.7 157.35,-105.19 156.65,-98.22"/>
</g>
<!-- Evaluating Interpolation Error -->
<g id="node5" class="node">
<title>Evaluating Interpolation Error</title>
<g id="a_node5"><a xlink:href="/Knowledge/Evaluating Interpolation Error.html" xlink:title="Evaluating Interpolation Error" target="_parent">
<path fill="none" stroke="#b75867" d="M335,-73C335,-73 174,-73 174,-73 168,-73 162,-67 162,-61 162,-61 162,-49 162,-49 162,-43 168,-37 174,-37 174,-37 335,-37 335,-37 341,-37 347,-43 347,-49 347,-49 347,-61 347,-61 347,-67 341,-73 335,-73"/>
<text text-anchor="middle" x="254.5" y="-51.9" font-family="sans" font-size="12.00" fill="#c4c7c7">Evaluating Interpolation Error</text>
</a>
</g>
</g>
<!-- Lagrange Interpolation&#45;&gt;Evaluating Interpolation Error -->
<g id="edge4" class="edge">
<title>Lagrange Interpolation&#45;&gt;Evaluating Interpolation Error</title>
<path fill="none" stroke="#ffffff" d="M124.38,-88.02C134.41,-84.04 144.95,-80.16 155,-77 159.35,-75.63 163.83,-74.32 168.37,-73.06"/>
<polygon fill="#ffffff" stroke="#ffffff" points="122.91,-84.84 114.96,-91.85 125.54,-91.33 122.91,-84.84"/>
</g>
<!-- Lagrange Interpolation Problem&#45;&gt;Lagrange Interpolation -->
<g id="edge10" class="edge">
<title>Lagrange Interpolation Problem&#45;&gt;Lagrange Interpolation</title>
<path fill="none" stroke="#ffffff" d="M223.09,-233.44C186.88,-203.75 127.33,-154.49 95.74,-128.06"/>
<polygon fill="#ffffff" stroke="#ffffff" points="220.93,-236.19 230.88,-239.82 225.37,-230.78 220.93,-236.19"/>
</g>
<!-- Kronecker Delta -->
<g id="node6" class="node">
<title>Kronecker Delta</title>
<g id="a_node6"><a xlink:href="/Knowledge/Kronecker Delta.html" xlink:title="Kronecker Delta" target="_parent">
<path fill="#273434" stroke="#b75867" d="M589.5,-406C589.5,-406 506.5,-406 506.5,-406 500.5,-406 494.5,-400 494.5,-394 494.5,-394 494.5,-382 494.5,-382 494.5,-376 500.5,-370 506.5,-370 506.5,-370 589.5,-370 589.5,-370 595.5,-370 601.5,-376 601.5,-382 601.5,-382 601.5,-394 601.5,-394 601.5,-400 595.5,-406 589.5,-406"/>
<text text-anchor="middle" x="548" y="-384.9" font-family="sans" font-size="12.00" fill="#c4c7c7">Kronecker Delta</text>
</a>
</g>
</g>
<!-- Lagrange Interpolation Problem&#45;&gt;Kronecker Delta -->
<g id="edge5" class="edge">
<title>Lagrange Interpolation Problem&#45;&gt;Kronecker Delta</title>
<path fill="none" stroke="#b75867" d="M267.41,-276.23C284.86,-301.22 319.9,-345.39 362,-366 399.7,-384.46 446.73,-389.86 483.94,-390.69"/>
<polygon fill="#b75867" stroke="#b75867" points="484.11,-394.2 494.15,-390.81 484.2,-387.2 484.11,-394.2"/>
</g>
<!-- Formula of Lagrange for Interpolation -->
<g id="node7" class="node">
<title>Formula of Lagrange for Interpolation</title>
<g id="a_node7"><a xlink:href="/Knowledge/Formula of Lagrange for Interpolation.html" xlink:title="Formula of Lagrange for Interpolation" target="_parent">
<path fill="#273434" stroke="#b75867" d="M651.5,-369C651.5,-369 444.5,-369 444.5,-369 438.5,-369 432.5,-363 432.5,-357 432.5,-357 432.5,-345 432.5,-345 432.5,-339 438.5,-333 444.5,-333 444.5,-333 651.5,-333 651.5,-333 657.5,-333 663.5,-339 663.5,-345 663.5,-345 663.5,-357 663.5,-357 663.5,-363 657.5,-369 651.5,-369"/>
<text text-anchor="middle" x="548" y="-347.9" font-family="sans" font-size="12.00" fill="#c4c7c7">Formula of Lagrange for Interpolation</text>
</a>
</g>
</g>
<!-- Lagrange Interpolation Problem&#45;&gt;Formula of Lagrange for Interpolation -->
<g id="edge6" class="edge">
<title>Lagrange Interpolation Problem&#45;&gt;Formula of Lagrange for Interpolation</title>
<path fill="none" stroke="#b75867" d="M276.28,-276.23C296.63,-292.96 329.27,-316.93 362,-329 380.91,-335.97 401.57,-340.85 422.01,-344.25"/>
<polygon fill="#b75867" stroke="#b75867" points="421.61,-347.72 432.02,-345.8 422.68,-340.81 421.61,-347.72"/>
</g>
<!-- Fundamental polynomials of Lagrange -->
<g id="node8" class="node">
<title>Fundamental polynomials of Lagrange</title>
<g id="a_node8"><a xlink:href="/Knowledge/Fundamental polynomials of Lagrange.html" xlink:title="Fundamental polynomials of Lagrange" target="_parent">
<path fill="#273434" stroke="#b75867" d="M654,-332C654,-332 442,-332 442,-332 436,-332 430,-326 430,-320 430,-320 430,-308 430,-308 430,-302 436,-296 442,-296 442,-296 654,-296 654,-296 660,-296 666,-302 666,-308 666,-308 666,-320 666,-320 666,-326 660,-332 654,-332"/>
<text text-anchor="middle" x="548" y="-310.9" font-family="sans" font-size="12.00" fill="#c4c7c7">Fundamental polynomials of Lagrange</text>
</a>
</g>
</g>
<!-- Lagrange Interpolation Problem&#45;&gt;Fundamental polynomials of Lagrange -->
<g id="edge7" class="edge">
<title>Lagrange Interpolation Problem&#45;&gt;Fundamental polynomials of Lagrange</title>
<path fill="none" stroke="#b75867" d="M305.35,-276.08C323.04,-281.92 343.22,-287.93 362,-292 380.57,-296.03 400.37,-299.37 419.84,-302.12"/>
<polygon fill="#b75867" stroke="#b75867" points="419.6,-305.62 429.99,-303.51 420.55,-298.69 419.6,-305.62"/>
</g>
<!-- Fundamental Theorem of Algebra -->
<g id="node9" class="node">
<title>Fundamental Theorem of Algebra</title>
<g id="a_node9"><a xlink:href="/Knowledge/Fundamental Theorem of Algebra.html" xlink:title="Fundamental Theorem of Algebra" target="_parent">
<path fill="#273434" stroke="#b75867" d="M640.5,-295C640.5,-295 455.5,-295 455.5,-295 449.5,-295 443.5,-289 443.5,-283 443.5,-283 443.5,-271 443.5,-271 443.5,-265 449.5,-259 455.5,-259 455.5,-259 640.5,-259 640.5,-259 646.5,-259 652.5,-265 652.5,-271 652.5,-271 652.5,-283 652.5,-283 652.5,-289 646.5,-295 640.5,-295"/>
<text text-anchor="middle" x="548" y="-273.9" font-family="sans" font-size="12.00" fill="#c4c7c7">Fundamental Theorem of Algebra</text>
</a>
</g>
</g>
<!-- Lagrange Interpolation Problem&#45;&gt;Fundamental Theorem of Algebra -->
<g id="edge8" class="edge">
<title>Lagrange Interpolation Problem&#45;&gt;Fundamental Theorem of Algebra</title>
<path fill="none" stroke="#b75867" d="M354.19,-264.43C379.56,-266.09 407.06,-267.88 433.13,-269.58"/>
<polygon fill="#b75867" stroke="#b75867" points="433.23,-273.09 443.43,-270.25 433.68,-266.11 433.23,-273.09"/>
</g>
<!-- Lagrange Interpolation Polynomial -->
<g id="node10" class="node">
<title>Lagrange Interpolation Polynomial</title>
<g id="a_node10"><a xlink:href="/Knowledge/Lagrange Interpolation Polynomial.html" xlink:title="Lagrange Interpolation Polynomial" target="_parent">
<path fill="none" stroke="#b75867" d="M643.5,-258C643.5,-258 452.5,-258 452.5,-258 446.5,-258 440.5,-252 440.5,-246 440.5,-246 440.5,-234 440.5,-234 440.5,-228 446.5,-222 452.5,-222 452.5,-222 643.5,-222 643.5,-222 649.5,-222 655.5,-228 655.5,-234 655.5,-234 655.5,-246 655.5,-246 655.5,-252 649.5,-258 643.5,-258"/>
<text text-anchor="middle" x="548" y="-236.9" font-family="sans" font-size="12.00" fill="#c4c7c7">Lagrange Interpolation Polynomial</text>
</a>
</g>
</g>
<!-- Lagrange Interpolation Problem&#45;&gt;Lagrange Interpolation Polynomial -->
<g id="edge9" class="edge">
<title>Lagrange Interpolation Problem&#45;&gt;Lagrange Interpolation Polynomial</title>
<path fill="none" stroke="#ffffff" d="M364.37,-251.28C389.24,-249.74 415.65,-248.11 440.42,-246.58"/>
<polygon fill="#ffffff" stroke="#ffffff" points="363.95,-247.8 354.19,-251.91 364.39,-254.78 363.95,-247.8"/>
</g>
<!-- The Lagrange Interpolation Polynomial of a Polynomial is itself -->
<g id="node11" class="node">
<title>The Lagrange Interpolation Polynomial of a Polynomial is itself</title>
<g id="a_node11"><a xlink:href="/Knowledge/The Lagrange Interpolation Polynomial of a Polynomial is itself.html" xlink:title="The Lagrange Interpolation Polynomial of a Polynomial is itself" target="_parent">
<path fill="none" stroke="#b75867" d="M722,-221C722,-221 374,-221 374,-221 368,-221 362,-215 362,-209 362,-209 362,-197 362,-197 362,-191 368,-185 374,-185 374,-185 722,-185 722,-185 728,-185 734,-191 734,-197 734,-197 734,-209 734,-209 734,-215 728,-221 722,-221"/>
<text text-anchor="middle" x="548" y="-199.9" font-family="sans" font-size="12.00" fill="#c4c7c7">The Lagrange Interpolation Polynomial of a Polynomial is itself</text>
</a>
</g>
</g>
<!-- Lagrange Interpolation Problem&#45;&gt;The Lagrange Interpolation Polynomial of a Polynomial is itself -->
<g id="edge11" class="edge">
<title>Lagrange Interpolation Problem&#45;&gt;The Lagrange Interpolation Polynomial of a Polynomial is itself</title>
<path fill="none" stroke="#ffffff" d="M316.94,-236.88C331.58,-232.43 347.23,-228.14 362,-225 368.64,-223.59 375.44,-222.26 382.33,-221.01"/>
<polygon fill="#ffffff" stroke="#ffffff" points="315.51,-233.66 307,-239.97 317.59,-240.34 315.51,-233.66"/>
</g>
<!-- Numeric Methods&#45;&gt;Lagrange Interpolation -->
<g id="edge12" class="edge">
<title>Numeric Methods&#45;&gt;Lagrange Interpolation</title>
<path fill="none" stroke="#b75867" d="M196.24,-123.63C183.77,-122.34 170.34,-120.93 157.11,-119.52"/>
<polygon fill="#b75867" stroke="#b75867" points="157.36,-116.02 147.05,-118.44 156.62,-122.98 157.36,-116.02"/>
</g>
<!-- Function Approximation -->
<g id="node12" class="node">
<title>Function Approximation</title>
<g id="a_node12"><a xlink:href="/Knowledge/Function Approximation.html" xlink:title="Function Approximation" target="_parent">
<path fill="#273434" stroke="#b75867" d="M612.5,-184C612.5,-184 483.5,-184 483.5,-184 477.5,-184 471.5,-178 471.5,-172 471.5,-172 471.5,-160 471.5,-160 471.5,-154 477.5,-148 483.5,-148 483.5,-148 612.5,-148 612.5,-148 618.5,-148 624.5,-154 624.5,-160 624.5,-160 624.5,-172 624.5,-172 624.5,-178 618.5,-184 612.5,-184"/>
<text text-anchor="middle" x="548" y="-162.9" font-family="sans" font-size="12.00" fill="#c4c7c7">Function Approximation</text>
</a>
</g>
</g>
<!-- Numeric Methods&#45;&gt;Function Approximation -->
<g id="edge13" class="edge">
<title>Numeric Methods&#45;&gt;Function Approximation</title>
<path fill="none" stroke="#b75867" d="M312.67,-137.28C328.63,-139.53 345.98,-141.92 362,-144 394.42,-148.21 430.07,-152.52 461.35,-156.2"/>
<polygon fill="#b75867" stroke="#b75867" points="461.01,-159.69 471.35,-157.38 461.82,-152.74 461.01,-159.69"/>
</g>
<!-- Subjects -->
<g id="node13" class="node">
<title>Subjects</title>
<g id="a_node13"><a xlink:href="/Knowledge/Subjects.html" xlink:title="Subjects" target="_parent">
<path fill="none" stroke="#b75867" d="M568.5,-147C568.5,-147 527.5,-147 527.5,-147 521.5,-147 515.5,-141 515.5,-135 515.5,-135 515.5,-123 515.5,-123 515.5,-117 521.5,-111 527.5,-111 527.5,-111 568.5,-111 568.5,-111 574.5,-111 580.5,-117 580.5,-123 580.5,-123 580.5,-135 580.5,-135 580.5,-141 574.5,-147 568.5,-147"/>
<text text-anchor="middle" x="548" y="-125.9" font-family="sans" font-size="12.00" fill="#c4c7c7">Subjects</text>
</a>
</g>
</g>
<!-- Numeric Methods&#45;&gt;Subjects -->
<g id="edge14" class="edge">
<title>Numeric Methods&#45;&gt;Subjects</title>
<path fill="none" stroke="#ffffff" d="M322.95,-129C383.33,-129 469.2,-129 515.12,-129"/>
<polygon fill="#ffffff" stroke="#ffffff" points="322.74,-125.5 312.74,-129 322.74,-132.5 322.74,-125.5"/>
</g>
<!-- Knowledege Base -->
<g id="node14" class="node">
<title>Knowledege Base</title>
<g id="a_node14"><a xlink:href="/Knowledge/Knowledege Base.html" xlink:title="Knowledege Base" target="_parent">
<path fill="none" stroke="#b75867" d="M594.5,-110C594.5,-110 501.5,-110 501.5,-110 495.5,-110 489.5,-104 489.5,-98 489.5,-98 489.5,-86 489.5,-86 489.5,-80 495.5,-74 501.5,-74 501.5,-74 594.5,-74 594.5,-74 600.5,-74 606.5,-80 606.5,-86 606.5,-86 606.5,-98 606.5,-98 606.5,-104 600.5,-110 594.5,-110"/>
<text text-anchor="middle" x="548" y="-88.9" font-family="sans" font-size="12.00" fill="#c4c7c7">Knowledege Base</text>
</a>
</g>
</g>
<!-- Numeric Methods&#45;&gt;Knowledege Base -->
<g id="edge15" class="edge">
<title>Numeric Methods&#45;&gt;Knowledege Base</title>
<path fill="none" stroke="#ffffff" d="M322.93,-119.28C335.89,-117.47 349.36,-115.64 362,-114 404.66,-108.46 452.93,-102.74 489.46,-98.52"/>
<polygon fill="#ffffff" stroke="#ffffff" points="322.09,-115.86 312.67,-120.72 323.06,-122.79 322.09,-115.86"/>
</g>
<!-- Extrapolation&#45;&gt;Lagrange Interpolation -->
<g id="edge16" class="edge">
<title>Extrapolation&#45;&gt;Lagrange Interpolation</title>
<path fill="none" stroke="#b75867" d="M207.85,-97.25C192.41,-98.87 174.65,-100.69 157.24,-102.43"/>
<polygon fill="#b75867" stroke="#b75867" points="156.65,-98.97 147.05,-103.44 157.35,-105.93 156.65,-98.97"/>
</g>
<!-- Evaluating Interpolation Error&#45;&gt;Lagrange Interpolation -->
<g id="edge17" class="edge">
<title>Evaluating Interpolation Error&#45;&gt;Lagrange Interpolation</title>
<path fill="none" stroke="#b75867" d="M172.05,-73.05C166.25,-74.62 160.52,-76.27 155,-78 145.7,-80.92 135.96,-84.47 126.61,-88.13"/>
<polygon fill="#b75867" stroke="#b75867" points="125.02,-84.99 117.04,-91.95 127.62,-91.49 125.02,-84.99"/>
</g>
<!-- Rolle Theorem -->
<g id="node15" class="node">
<title>Rolle Theorem</title>
<g id="a_node15"><a xlink:href="/Knowledge/Rolle Theorem.html" xlink:title="Rolle Theorem" target="_parent">
<path fill="#273434" stroke="#b75867" d="M586.5,-73C586.5,-73 509.5,-73 509.5,-73 503.5,-73 497.5,-67 497.5,-61 497.5,-61 497.5,-49 497.5,-49 497.5,-43 503.5,-37 509.5,-37 509.5,-37 586.5,-37 586.5,-37 592.5,-37 598.5,-43 598.5,-49 598.5,-49 598.5,-61 598.5,-61 598.5,-67 592.5,-73 586.5,-73"/>
<text text-anchor="middle" x="548" y="-51.9" font-family="sans" font-size="12.00" fill="#c4c7c7">Rolle Theorem</text>
</a>
</g>
</g>
<!-- Evaluating Interpolation Error&#45;&gt;Rolle Theorem -->
<g id="edge18" class="edge">
<title>Evaluating Interpolation Error&#45;&gt;Rolle Theorem</title>
<path fill="none" stroke="#b75867" d="M347.33,-55C392.93,-55 446.72,-55 486.97,-55"/>
<polygon fill="#b75867" stroke="#b75867" points="487.16,-58.5 497.16,-55 487.16,-51.5 487.16,-58.5"/>
</g>
<!-- Fundamental extremal property of Chebyshev polynomials -->
<g id="node16" class="node">
<title>Fundamental extremal property of Chebyshev polynomials</title>
<g id="a_node16"><a xlink:href="/Knowledge/Fundamental extremal property of Chebyshev polynomials.html" xlink:title="Fundamental extremal property of Chebyshev polynomials" target="_parent">
<path fill="none" stroke="#b75867" d="M710.5,-36C710.5,-36 385.5,-36 385.5,-36 379.5,-36 373.5,-30 373.5,-24 373.5,-24 373.5,-12 373.5,-12 373.5,-6 379.5,0 385.5,0 385.5,0 710.5,0 710.5,0 716.5,0 722.5,-6 722.5,-12 722.5,-12 722.5,-24 722.5,-24 722.5,-30 716.5,-36 710.5,-36"/>
<text text-anchor="middle" x="548" y="-14.9" font-family="sans" font-size="12.00" fill="#c4c7c7">Fundamental extremal property of Chebyshev polynomials</text>
</a>
</g>
</g>
<!-- Evaluating Interpolation Error&#45;&gt;Fundamental extremal property of Chebyshev polynomials -->
<g id="edge19" class="edge">
<title>Evaluating Interpolation Error&#45;&gt;Fundamental extremal property of Chebyshev polynomials</title>
<path fill="none" stroke="#ffffff" d="M357.45,-40.59C358.98,-40.39 360.5,-40.2 362,-40 372.18,-38.68 382.69,-37.34 393.27,-36.02"/>
<polygon fill="#ffffff" stroke="#ffffff" points="356.72,-37.16 347.27,-41.95 357.64,-44.1 356.72,-37.16"/>
</g>
</g>
</svg>
