<?xml version="1.0" encoding="UTF-8" standalone="no"?>
<!DOCTYPE svg PUBLIC "-//W3C//DTD SVG 1.1//EN"
 "http://www.w3.org/Graphics/SVG/1.1/DTD/svg11.dtd">
<!-- Generated by graphviz version 2.44.0 (0)
 -->
<!-- Title: Multiset Pages: 1 -->
<svg width="426pt" height="192pt"
 viewBox="0.00 0.00 426.00 192.00" xmlns="http://www.w3.org/2000/svg" xmlns:xlink="http://www.w3.org/1999/xlink">
<g id="graph0" class="graph" transform="scale(1 1) rotate(0) translate(4 188)">
<title>Multiset</title>
<polygon fill="#132020" stroke="transparent" points="-4,4 -4,-188 422,-188 422,4 -4,4"/>
<!-- Multiset -->
<g id="node1" class="node">
<title>Multiset</title>
<g id="a_node1"><a xlink:href="/Knowledge/Multiset.html" xlink:title="Multiset" target="_parent">
<path fill="#273434" stroke="#b75867" d="M50,-110C50,-110 12,-110 12,-110 6,-110 0,-104 0,-98 0,-98 0,-86 0,-86 0,-80 6,-74 12,-74 12,-74 50,-74 50,-74 56,-74 62,-80 62,-86 62,-86 62,-98 62,-98 62,-104 56,-110 50,-110"/>
<text text-anchor="middle" x="31" y="-88.9" font-family="sans" font-size="12.00" fill="#c4c7c7">Multiset</text>
</a>
</g>
</g>
<!-- Recurrent Equations -->
<g id="node2" class="node">
<title>Recurrent Equations</title>
<g id="a_node2"><a xlink:href="/Knowledge/Recurrent Equations.html" xlink:title="Recurrent Equations" target="_parent">
<path fill="none" stroke="#b75867" d="M189,-110C189,-110 82,-110 82,-110 76,-110 70,-104 70,-98 70,-98 70,-86 70,-86 70,-80 76,-74 82,-74 82,-74 189,-74 189,-74 195,-74 201,-80 201,-86 201,-86 201,-98 201,-98 201,-104 195,-110 189,-110"/>
<text text-anchor="middle" x="135.5" y="-88.9" font-family="sans" font-size="12.00" fill="#c4c7c7">Recurrent Equations</text>
</a>
</g>
</g>
<!-- Multiset&#45;&gt;Recurrent Equations -->
<g id="edge1" class="edge">
<title>Multiset&#45;&gt;Recurrent Equations</title>
<path fill="none" stroke="#ffffff" d="M69.36,-92C69.52,-92 69.69,-92 69.85,-92"/>
<polygon fill="#ffffff" stroke="#ffffff" points="72.2,-88.5 62.2,-92 72.2,-95.5 72.2,-88.5"/>
</g>
<!-- Recurrent Equations&#45;&gt;Multiset -->
<g id="edge3" class="edge">
<title>Recurrent Equations&#45;&gt;Multiset</title>
<path fill="none" stroke="#b75867" d="M69.85,-92.73C69.69,-92.73 69.52,-92.73 69.36,-92.72"/>
<polygon fill="#b75867" stroke="#b75867" points="72.22,-89.24 62.2,-92.69 72.18,-96.24 72.22,-89.24"/>
</g>
<!-- Set -->
<g id="node3" class="node">
<title>Set</title>
<g id="a_node3"><a xlink:href="/Knowledge/Set.html" xlink:title="Set" target="_parent">
<path fill="#273434" stroke="#b75867" d="M328.5,-184C328.5,-184 298.5,-184 298.5,-184 292.5,-184 286.5,-178 286.5,-172 286.5,-172 286.5,-160 286.5,-160 286.5,-154 292.5,-148 298.5,-148 298.5,-148 328.5,-148 328.5,-148 334.5,-148 340.5,-154 340.5,-160 340.5,-160 340.5,-172 340.5,-172 340.5,-178 334.5,-184 328.5,-184"/>
<text text-anchor="middle" x="313.5" y="-162.9" font-family="sans" font-size="12.00" fill="#c4c7c7">Set</text>
</a>
</g>
</g>
<!-- Recurrent Equations&#45;&gt;Set -->
<g id="edge2" class="edge">
<title>Recurrent Equations&#45;&gt;Set</title>
<path fill="none" stroke="#b75867" d="M156.96,-110.21C170.76,-121.55 189.87,-135.55 209,-144 230.32,-153.42 255.93,-158.9 276.34,-162.04"/>
<polygon fill="#b75867" stroke="#b75867" points="276.1,-165.54 286.49,-163.48 277.08,-158.61 276.1,-165.54"/>
</g>
<!-- Fundamental Theorem of Algebra -->
<g id="node4" class="node">
<title>Fundamental Theorem of Algebra</title>
<g id="a_node4"><a xlink:href="/Knowledge/Fundamental Theorem of Algebra.html" xlink:title="Fundamental Theorem of Algebra" target="_parent">
<path fill="#273434" stroke="#b75867" d="M406,-147C406,-147 221,-147 221,-147 215,-147 209,-141 209,-135 209,-135 209,-123 209,-123 209,-117 215,-111 221,-111 221,-111 406,-111 406,-111 412,-111 418,-117 418,-123 418,-123 418,-135 418,-135 418,-141 412,-147 406,-147"/>
<text text-anchor="middle" x="313.5" y="-125.9" font-family="sans" font-size="12.00" fill="#c4c7c7">Fundamental Theorem of Algebra</text>
</a>
</g>
</g>
<!-- Recurrent Equations&#45;&gt;Fundamental Theorem of Algebra -->
<g id="edge4" class="edge">
<title>Recurrent Equations&#45;&gt;Fundamental Theorem of Algebra</title>
<path fill="none" stroke="#b75867" d="M201.04,-105.57C206.12,-106.64 211.31,-107.73 216.54,-108.83"/>
<polygon fill="#b75867" stroke="#b75867" points="216.13,-112.32 226.63,-110.95 217.57,-105.47 216.13,-112.32"/>
</g>
<!-- Chebyshev Polynomial -->
<g id="node5" class="node">
<title>Chebyshev Polynomial</title>
<g id="a_node5"><a xlink:href="/Knowledge/Chebyshev Polynomial.html" xlink:title="Chebyshev Polynomial" target="_parent">
<path fill="none" stroke="#b75867" d="M374,-110C374,-110 253,-110 253,-110 247,-110 241,-104 241,-98 241,-98 241,-86 241,-86 241,-80 247,-74 253,-74 253,-74 374,-74 374,-74 380,-74 386,-80 386,-86 386,-86 386,-98 386,-98 386,-104 380,-110 374,-110"/>
<text text-anchor="middle" x="313.5" y="-88.9" font-family="sans" font-size="12.00" fill="#c4c7c7">Chebyshev Polynomial</text>
</a>
</g>
</g>
<!-- Recurrent Equations&#45;&gt;Chebyshev Polynomial -->
<g id="edge5" class="edge">
<title>Recurrent Equations&#45;&gt;Chebyshev Polynomial</title>
<path fill="none" stroke="#ffffff" d="M211.18,-92C221.01,-92 231.06,-92 240.84,-92"/>
<polygon fill="#ffffff" stroke="#ffffff" points="211.04,-88.5 201.04,-92 211.04,-95.5 211.04,-88.5"/>
</g>
<!-- Discrete Structures -->
<g id="node6" class="node">
<title>Discrete Structures</title>
<g id="a_node6"><a xlink:href="/Knowledge/Discrete Structures.html" xlink:title="Discrete Structures" target="_parent">
<path fill="none" stroke="#b75867" d="M362.5,-73C362.5,-73 264.5,-73 264.5,-73 258.5,-73 252.5,-67 252.5,-61 252.5,-61 252.5,-49 252.5,-49 252.5,-43 258.5,-37 264.5,-37 264.5,-37 362.5,-37 362.5,-37 368.5,-37 374.5,-43 374.5,-49 374.5,-49 374.5,-61 374.5,-61 374.5,-67 368.5,-73 362.5,-73"/>
<text text-anchor="middle" x="313.5" y="-51.9" font-family="sans" font-size="12.00" fill="#c4c7c7">Discrete Structures</text>
</a>
</g>
</g>
<!-- Recurrent Equations&#45;&gt;Discrete Structures -->
<g id="edge6" class="edge">
<title>Recurrent Equations&#45;&gt;Discrete Structures</title>
<path fill="none" stroke="#ffffff" d="M210.99,-76.34C224.79,-73.44 239.05,-70.44 252.36,-67.64"/>
<polygon fill="#ffffff" stroke="#ffffff" points="210.1,-72.95 201.04,-78.43 211.54,-79.8 210.1,-72.95"/>
</g>
<!-- Divided Differences -->
<g id="node7" class="node">
<title>Divided Differences</title>
<g id="a_node7"><a xlink:href="/Knowledge/Divided Differences.html" xlink:title="Divided Differences" target="_parent">
<path fill="none" stroke="#b75867" d="M363.5,-36C363.5,-36 263.5,-36 263.5,-36 257.5,-36 251.5,-30 251.5,-24 251.5,-24 251.5,-12 251.5,-12 251.5,-6 257.5,0 263.5,0 263.5,0 363.5,0 363.5,0 369.5,0 375.5,-6 375.5,-12 375.5,-12 375.5,-24 375.5,-24 375.5,-30 369.5,-36 363.5,-36"/>
<text text-anchor="middle" x="313.5" y="-14.9" font-family="sans" font-size="12.00" fill="#c4c7c7">Divided Differences</text>
</a>
</g>
</g>
<!-- Recurrent Equations&#45;&gt;Divided Differences -->
<g id="edge7" class="edge">
<title>Recurrent Equations&#45;&gt;Divided Differences</title>
<path fill="none" stroke="#ffffff" d="M164.88,-67.47C177.63,-57.59 193.31,-46.93 209,-40 222.19,-34.17 237.03,-29.85 251.25,-26.66"/>
<polygon fill="#ffffff" stroke="#ffffff" points="162.59,-64.82 156.96,-73.79 166.96,-70.29 162.59,-64.82"/>
</g>
</g>
</svg>
