<?xml version="1.0" encoding="UTF-8" standalone="no"?>
<!DOCTYPE svg PUBLIC "-//W3C//DTD SVG 1.1//EN"
 "http://www.w3.org/Graphics/SVG/1.1/DTD/svg11.dtd">
<!-- Generated by graphviz version 2.44.0 (0)
 -->
<!-- Title: Org Roam Pages: 1 -->
<svg width="455pt" height="673pt"
 viewBox="0.00 0.00 455.00 673.00" xmlns="http://www.w3.org/2000/svg" xmlns:xlink="http://www.w3.org/1999/xlink">
<g id="graph0" class="graph" transform="scale(1 1) rotate(0) translate(4 669)">
<title>Org Roam</title>
<polygon fill="#132020" stroke="transparent" points="-4,4 -4,-669 451,-669 451,4 -4,4"/>
<!-- Org Roam -->
<g id="node1" class="node">
<title>Org Roam</title>
<g id="a_node1"><a xlink:href="../Org Roam.html" xlink:title="Org Roam" target="_parent">
<path fill="#273434" stroke="#b75867" d="M60,-516C60,-516 12,-516 12,-516 6,-516 0,-510 0,-504 0,-504 0,-492 0,-492 0,-486 6,-480 12,-480 12,-480 60,-480 60,-480 66,-480 72,-486 72,-492 72,-492 72,-504 72,-504 72,-510 66,-516 60,-516"/>
<text text-anchor="middle" x="36" y="-494.9" font-family="sans" font-size="12.00" fill="#c4c7c7">Org Roam</text>
</a>
</g>
</g>
<!-- Bad Habit -->
<g id="node2" class="node">
<title>Bad Habit</title>
<g id="a_node2"><a xlink:href="../Bad Habit.html" xlink:title="Bad Habit" target="_parent">
<path fill="none" stroke="#b75867" d="M163,-516C163,-516 114,-516 114,-516 108,-516 102,-510 102,-504 102,-504 102,-492 102,-492 102,-486 108,-480 114,-480 114,-480 163,-480 163,-480 169,-480 175,-486 175,-492 175,-492 175,-504 175,-504 175,-510 169,-516 163,-516"/>
<text text-anchor="middle" x="138.5" y="-494.9" font-family="sans" font-size="12.00" fill="#c4c7c7">Bad Habit</text>
</a>
</g>
</g>
<!-- Org Roam&#45;&gt;Bad Habit -->
<g id="edge1" class="edge">
<title>Org Roam&#45;&gt;Bad Habit</title>
<path fill="none" stroke="#ffffff" d="M82.3,-498C88.86,-498 95.53,-498 101.86,-498"/>
<polygon fill="#ffffff" stroke="#ffffff" points="82.15,-494.5 72.15,-498 82.15,-501.5 82.15,-494.5"/>
</g>
<!-- index -->
<g id="node3" class="node">
<title>index</title>
<g id="a_node3"><a xlink:href="../index.html" xlink:title="index" target="_parent">
<path fill="none" stroke="#b75867" d="M153.5,-553C153.5,-553 123.5,-553 123.5,-553 117.5,-553 111.5,-547 111.5,-541 111.5,-541 111.5,-529 111.5,-529 111.5,-523 117.5,-517 123.5,-517 123.5,-517 153.5,-517 153.5,-517 159.5,-517 165.5,-523 165.5,-529 165.5,-529 165.5,-541 165.5,-541 165.5,-547 159.5,-553 153.5,-553"/>
<text text-anchor="middle" x="138.5" y="-531.9" font-family="sans" font-size="12.00" fill="#c4c7c7">index</text>
</a>
</g>
</g>
<!-- Org Roam&#45;&gt;index -->
<g id="edge2" class="edge">
<title>Org Roam&#45;&gt;index</title>
<path fill="none" stroke="#ffffff" d="M81.73,-514.47C91.88,-518.2 102.33,-522.05 111.4,-525.39"/>
<polygon fill="#ffffff" stroke="#ffffff" points="82.74,-511.11 72.15,-510.94 80.33,-517.68 82.74,-511.11"/>
</g>
<!-- Knowledege Base -->
<g id="node4" class="node">
<title>Knowledege Base</title>
<g id="a_node4"><a xlink:href="../Knowledege Base.html" xlink:title="Knowledege Base" target="_parent">
<path fill="none" stroke="#b75867" d="M185,-350C185,-350 92,-350 92,-350 86,-350 80,-344 80,-338 80,-338 80,-326 80,-326 80,-320 86,-314 92,-314 92,-314 185,-314 185,-314 191,-314 197,-320 197,-326 197,-326 197,-338 197,-338 197,-344 191,-350 185,-350"/>
<text text-anchor="middle" x="138.5" y="-328.9" font-family="sans" font-size="12.00" fill="#c4c7c7">Knowledege Base</text>
</a>
</g>
</g>
<!-- Org Roam&#45;&gt;Knowledege Base -->
<g id="edge3" class="edge">
<title>Org Roam&#45;&gt;Knowledege Base</title>
<path fill="none" stroke="#ffffff" d="M53.36,-470.97C74,-436.89 108.9,-379.23 126.57,-350.06"/>
<polygon fill="#ffffff" stroke="#ffffff" points="50.13,-469.55 47.95,-479.92 56.12,-473.18 50.13,-469.55"/>
</g>
<!-- Bad Habit&#45;&gt;Org Roam -->
<g id="edge5" class="edge">
<title>Bad Habit&#45;&gt;Org Roam</title>
<path fill="none" stroke="#b75867" d="M101.86,-498.72C95.53,-498.75 88.86,-498.76 82.3,-498.75"/>
<polygon fill="#b75867" stroke="#b75867" points="82.16,-495.25 72.15,-498.72 82.14,-502.25 82.16,-495.25"/>
</g>
<!-- Projects -->
<g id="node5" class="node">
<title>Projects</title>
<g id="a_node5"><a xlink:href="../Projects.html" xlink:title="Projects" target="_parent">
<path fill="#273434" stroke="#b75867" d="M345,-628C345,-628 307,-628 307,-628 301,-628 295,-622 295,-616 295,-616 295,-604 295,-604 295,-598 301,-592 307,-592 307,-592 345,-592 345,-592 351,-592 357,-598 357,-604 357,-604 357,-616 357,-616 357,-622 351,-628 345,-628"/>
<text text-anchor="middle" x="326" y="-606.9" font-family="sans" font-size="12.00" fill="#c4c7c7">Projects</text>
</a>
</g>
</g>
<!-- Bad Habit&#45;&gt;Projects -->
<g id="edge4" class="edge">
<title>Bad Habit&#45;&gt;Projects</title>
<path fill="none" stroke="#b75867" d="M175.02,-504.85C183.4,-508.11 191.49,-512.91 197,-520 215.69,-544.02 184.18,-565.8 205,-588 225.02,-609.35 258.38,-614.06 284.85,-613.88"/>
<polygon fill="#b75867" stroke="#b75867" points="285.09,-617.37 294.98,-613.57 284.88,-610.37 285.09,-617.37"/>
</g>
<!-- index&#45;&gt;Org Roam -->
<g id="edge7" class="edge">
<title>index&#45;&gt;Org Roam</title>
<path fill="none" stroke="#b75867" d="M111.4,-526.06C102.33,-522.78 91.88,-518.96 81.73,-515.21"/>
<polygon fill="#b75867" stroke="#b75867" points="82.74,-511.86 72.15,-511.66 80.31,-518.42 82.74,-511.86"/>
</g>
<!-- Subjects -->
<g id="node6" class="node">
<title>Subjects</title>
<g id="a_node6"><a xlink:href="../Subjects.html" xlink:title="Subjects" target="_parent">
<path fill="#273434" stroke="#b75867" d="M346.5,-665C346.5,-665 305.5,-665 305.5,-665 299.5,-665 293.5,-659 293.5,-653 293.5,-653 293.5,-641 293.5,-641 293.5,-635 299.5,-629 305.5,-629 305.5,-629 346.5,-629 346.5,-629 352.5,-629 358.5,-635 358.5,-641 358.5,-641 358.5,-653 358.5,-653 358.5,-659 352.5,-665 346.5,-665"/>
<text text-anchor="middle" x="326" y="-643.9" font-family="sans" font-size="12.00" fill="#c4c7c7">Subjects</text>
</a>
</g>
</g>
<!-- index&#45;&gt;Subjects -->
<g id="edge6" class="edge">
<title>index&#45;&gt;Subjects</title>
<path fill="none" stroke="#b75867" d="M147.47,-553.09C157.66,-573.96 177.36,-607.61 205,-625 228.3,-639.65 258.86,-645.1 283.31,-646.91"/>
<polygon fill="#b75867" stroke="#b75867" points="283.19,-650.41 293.37,-647.48 283.59,-643.42 283.19,-650.41"/>
</g>
<!-- Knowledege Base&#45;&gt;Org Roam -->
<g id="edge24" class="edge">
<title>Knowledege Base&#45;&gt;Org Roam</title>
<path fill="none" stroke="#b75867" d="M126.82,-350.13C109.36,-379.29 74.58,-436.76 53.8,-470.83"/>
<polygon fill="#b75867" stroke="#b75867" points="50.56,-469.42 48.33,-479.78 56.53,-473.07 50.56,-469.42"/>
</g>
<!-- Knowledege Base&#45;&gt;Projects -->
<g id="edge26" class="edge">
<title>Knowledege Base&#45;&gt;Projects</title>
<path fill="none" stroke="#ffffff" d="M152.93,-359.26C166.59,-388.38 187.12,-436.28 197,-480 199.65,-491.74 196.96,-579.05 205,-588 227.15,-612.66 267.06,-615.39 294.74,-613.79"/>
<polygon fill="#ffffff" stroke="#ffffff" points="156.04,-357.66 148.58,-350.13 149.72,-360.67 156.04,-357.66"/>
</g>
<!-- Computer Architectures -->
<g id="node7" class="node">
<title>Computer Architectures</title>
<g id="a_node7"><a xlink:href="../Computer Architectures.html" xlink:title="Computer Architectures" target="_parent">
<path fill="#273434" stroke="#b75867" d="M389.5,-517C389.5,-517 262.5,-517 262.5,-517 256.5,-517 250.5,-511 250.5,-505 250.5,-505 250.5,-493 250.5,-493 250.5,-487 256.5,-481 262.5,-481 262.5,-481 389.5,-481 389.5,-481 395.5,-481 401.5,-487 401.5,-493 401.5,-493 401.5,-505 401.5,-505 401.5,-511 395.5,-517 389.5,-517"/>
<text text-anchor="middle" x="326" y="-495.9" font-family="sans" font-size="12.00" fill="#c4c7c7">Computer Architectures</text>
</a>
</g>
</g>
<!-- Knowledege Base&#45;&gt;Computer Architectures -->
<g id="edge8" class="edge">
<title>Knowledege Base&#45;&gt;Computer Architectures</title>
<path fill="none" stroke="#b75867" d="M142.25,-350.48C147.95,-381.8 164.1,-445 205,-477 215.3,-485.06 227.62,-490.51 240.37,-494.14"/>
<polygon fill="#b75867" stroke="#b75867" points="239.64,-497.57 250.19,-496.58 241.33,-490.78 239.64,-497.57"/>
</g>
<!-- Numeric Methods -->
<g id="node8" class="node">
<title>Numeric Methods</title>
<g id="a_node8"><a xlink:href="../Numeric Methods.html" xlink:title="Numeric Methods" target="_parent">
<path fill="#273434" stroke="#b75867" d="M372,-480C372,-480 280,-480 280,-480 274,-480 268,-474 268,-468 268,-468 268,-456 268,-456 268,-450 274,-444 280,-444 280,-444 372,-444 372,-444 378,-444 384,-450 384,-456 384,-456 384,-468 384,-468 384,-474 378,-480 372,-480"/>
<text text-anchor="middle" x="326" y="-458.9" font-family="sans" font-size="12.00" fill="#c4c7c7">Numeric Methods</text>
</a>
</g>
</g>
<!-- Knowledege Base&#45;&gt;Numeric Methods -->
<g id="edge9" class="edge">
<title>Knowledege Base&#45;&gt;Numeric Methods</title>
<path fill="none" stroke="#b75867" d="M145.23,-350.21C153.96,-374.78 173.04,-417.97 205,-440 220.38,-450.6 239.4,-456.51 257.73,-459.7"/>
<polygon fill="#b75867" stroke="#b75867" points="257.4,-463.19 267.81,-461.2 258.44,-456.26 257.4,-463.19"/>
</g>
<!-- Design and Analysis of Algorithms -->
<g id="node9" class="node">
<title>Design and Analysis of Algorithms</title>
<g id="a_node9"><a xlink:href="../Design and Analysis of Algorithms.html" xlink:title="Design and Analysis of Algorithms" target="_parent">
<path fill="#273434" stroke="#b75867" d="M417,-443C417,-443 235,-443 235,-443 229,-443 223,-437 223,-431 223,-431 223,-419 223,-419 223,-413 229,-407 235,-407 235,-407 417,-407 417,-407 423,-407 429,-413 429,-419 429,-419 429,-431 429,-431 429,-437 423,-443 417,-443"/>
<text text-anchor="middle" x="326" y="-421.9" font-family="sans" font-size="12.00" fill="#c4c7c7">Design and Analysis of Algorithms</text>
</a>
</g>
</g>
<!-- Knowledege Base&#45;&gt;Design and Analysis of Algorithms -->
<g id="edge10" class="edge">
<title>Knowledege Base&#45;&gt;Design and Analysis of Algorithms</title>
<path fill="none" stroke="#b75867" d="M151.19,-350.26C162.77,-366.77 182.08,-390.38 205,-403 207.74,-404.51 210.56,-405.92 213.45,-407.23"/>
<polygon fill="#b75867" stroke="#b75867" points="212.3,-410.54 222.88,-411.12 214.96,-404.07 212.3,-410.54"/>
</g>
<!-- Logic Programming -->
<g id="node10" class="node">
<title>Logic Programming</title>
<g id="a_node10"><a xlink:href="../Logic Programming.html" xlink:title="Logic Programming" target="_parent">
<path fill="#273434" stroke="#b75867" d="M377,-406C377,-406 275,-406 275,-406 269,-406 263,-400 263,-394 263,-394 263,-382 263,-382 263,-376 269,-370 275,-370 275,-370 377,-370 377,-370 383,-370 389,-376 389,-382 389,-382 389,-394 389,-394 389,-400 383,-406 377,-406"/>
<text text-anchor="middle" x="326" y="-384.9" font-family="sans" font-size="12.00" fill="#c4c7c7">Logic Programming</text>
</a>
</g>
</g>
<!-- Knowledege Base&#45;&gt;Logic Programming -->
<g id="edge11" class="edge">
<title>Knowledege Base&#45;&gt;Logic Programming</title>
<path fill="none" stroke="#b75867" d="M169.65,-350.04C180.49,-355.87 193,-361.89 205,-366 220.18,-371.2 236.89,-375.25 252.89,-378.38"/>
<polygon fill="#b75867" stroke="#b75867" points="252.27,-381.82 262.74,-380.2 253.55,-374.94 252.27,-381.82"/>
</g>
<!-- Data Structures -->
<g id="node11" class="node">
<title>Data Structures</title>
<g id="a_node11"><a xlink:href="../Data Structures.html" xlink:title="Data Structures" target="_parent">
<path fill="#273434" stroke="#b75867" d="M366,-369C366,-369 286,-369 286,-369 280,-369 274,-363 274,-357 274,-357 274,-345 274,-345 274,-339 280,-333 286,-333 286,-333 366,-333 366,-333 372,-333 378,-339 378,-345 378,-345 378,-357 378,-357 378,-363 372,-369 366,-369"/>
<text text-anchor="middle" x="326" y="-347.9" font-family="sans" font-size="12.00" fill="#c4c7c7">Data Structures</text>
</a>
</g>
</g>
<!-- Knowledege Base&#45;&gt;Data Structures -->
<g id="edge12" class="edge">
<title>Knowledege Base&#45;&gt;Data Structures</title>
<path fill="none" stroke="#b75867" d="M197.18,-337.91C218.39,-340.08 242.46,-342.55 263.96,-344.75"/>
<polygon fill="#b75867" stroke="#b75867" points="263.65,-348.23 273.96,-345.77 264.37,-341.27 263.65,-348.23"/>
</g>
<!-- Languages, Automata and Computation -->
<g id="node12" class="node">
<title>Languages, Automata and Computation</title>
<g id="a_node12"><a xlink:href="../Languages, Automata and Computation.html" xlink:title="Languages, Automata and Computation" target="_parent">
<path fill="#273434" stroke="#b75867" d="M435,-332C435,-332 217,-332 217,-332 211,-332 205,-326 205,-320 205,-320 205,-308 205,-308 205,-302 211,-296 217,-296 217,-296 435,-296 435,-296 441,-296 447,-302 447,-308 447,-308 447,-320 447,-320 447,-326 441,-332 435,-332"/>
<text text-anchor="middle" x="326" y="-310.9" font-family="sans" font-size="12.00" fill="#c4c7c7">Languages, Automata and Computation</text>
</a>
</g>
</g>
<!-- Knowledege Base&#45;&gt;Languages, Automata and Computation -->
<g id="edge13" class="edge">
<title>Knowledege Base&#45;&gt;Languages, Automata and Computation</title>
<path fill="none" stroke="#b75867" d="M197.18,-326.4C197.34,-326.39 197.5,-326.37 197.66,-326.36"/>
<polygon fill="#b75867" stroke="#b75867" points="195.33,-330.1 204.95,-325.65 194.66,-323.13 195.33,-330.1"/>
</g>
<!-- Operations Research -->
<g id="node13" class="node">
<title>Operations Research</title>
<g id="a_node13"><a xlink:href="../Operations Research.html" xlink:title="Operations Research" target="_parent">
<path fill="#273434" stroke="#b75867" d="M380.5,-295C380.5,-295 271.5,-295 271.5,-295 265.5,-295 259.5,-289 259.5,-283 259.5,-283 259.5,-271 259.5,-271 259.5,-265 265.5,-259 271.5,-259 271.5,-259 380.5,-259 380.5,-259 386.5,-259 392.5,-265 392.5,-271 392.5,-271 392.5,-283 392.5,-283 392.5,-289 386.5,-295 380.5,-295"/>
<text text-anchor="middle" x="326" y="-273.9" font-family="sans" font-size="12.00" fill="#c4c7c7">Operations Research</text>
</a>
</g>
</g>
<!-- Knowledege Base&#45;&gt;Operations Research -->
<g id="edge14" class="edge">
<title>Knowledege Base&#45;&gt;Operations Research</title>
<path fill="none" stroke="#b75867" d="M171.03,-313.83C181.56,-308.39 193.53,-302.85 205,-299 219.03,-294.29 234.34,-290.51 249.19,-287.51"/>
<polygon fill="#b75867" stroke="#b75867" points="250.21,-290.87 259.37,-285.55 248.89,-284 250.21,-290.87"/>
</g>
<!-- Differential Equations -->
<g id="node14" class="node">
<title>Differential Equations</title>
<g id="a_node14"><a xlink:href="../Differential Equations.html" xlink:title="Differential Equations" target="_parent">
<path fill="#273434" stroke="#b75867" d="M383,-258C383,-258 269,-258 269,-258 263,-258 257,-252 257,-246 257,-246 257,-234 257,-234 257,-228 263,-222 269,-222 269,-222 383,-222 383,-222 389,-222 395,-228 395,-234 395,-234 395,-246 395,-246 395,-252 389,-258 383,-258"/>
<text text-anchor="middle" x="326" y="-236.9" font-family="sans" font-size="12.00" fill="#c4c7c7">Differential Equations</text>
</a>
</g>
</g>
<!-- Knowledege Base&#45;&gt;Differential Equations -->
<g id="edge15" class="edge">
<title>Knowledege Base&#45;&gt;Differential Equations</title>
<path fill="none" stroke="#b75867" d="M151.24,-314C162.88,-297.72 182.21,-274.45 205,-262 217.76,-255.03 232.31,-250.21 246.77,-246.9"/>
<polygon fill="#b75867" stroke="#b75867" points="247.66,-250.29 256.74,-244.84 246.24,-243.44 247.66,-250.29"/>
</g>
<!-- OOP -->
<g id="node15" class="node">
<title>OOP</title>
<g id="a_node15"><a xlink:href="../OOP.html" xlink:title="OOP" target="_parent">
<path fill="#273434" stroke="#b75867" d="M341,-221C341,-221 311,-221 311,-221 305,-221 299,-215 299,-209 299,-209 299,-197 299,-197 299,-191 305,-185 311,-185 311,-185 341,-185 341,-185 347,-185 353,-191 353,-197 353,-197 353,-209 353,-209 353,-215 347,-221 341,-221"/>
<text text-anchor="middle" x="326" y="-199.9" font-family="sans" font-size="12.00" fill="#c4c7c7">OOP</text>
</a>
</g>
</g>
<!-- Knowledege Base&#45;&gt;OOP -->
<g id="edge16" class="edge">
<title>Knowledege Base&#45;&gt;OOP</title>
<path fill="none" stroke="#b75867" d="M145.28,-313.95C154.07,-289.61 173.21,-246.81 205,-225 229.56,-208.15 263.35,-203.17 288.81,-202.11"/>
<polygon fill="#b75867" stroke="#b75867" points="288.91,-205.61 298.82,-201.87 288.74,-198.61 288.91,-205.61"/>
</g>
<!-- Discrete Structures -->
<g id="node16" class="node">
<title>Discrete Structures</title>
<g id="a_node16"><a xlink:href="../Discrete Structures.html" xlink:title="Discrete Structures" target="_parent">
<path fill="#273434" stroke="#b75867" d="M375,-184C375,-184 277,-184 277,-184 271,-184 265,-178 265,-172 265,-172 265,-160 265,-160 265,-154 271,-148 277,-148 277,-148 375,-148 375,-148 381,-148 387,-154 387,-160 387,-160 387,-172 387,-172 387,-178 381,-184 375,-184"/>
<text text-anchor="middle" x="326" y="-162.9" font-family="sans" font-size="12.00" fill="#c4c7c7">Discrete Structures</text>
</a>
</g>
</g>
<!-- Knowledege Base&#45;&gt;Discrete Structures -->
<g id="edge17" class="edge">
<title>Knowledege Base&#45;&gt;Discrete Structures</title>
<path fill="none" stroke="#b75867" d="M142.29,-313.64C148.05,-282.53 164.29,-219.76 205,-188 219.1,-177 236.95,-170.86 254.55,-167.58"/>
<polygon fill="#b75867" stroke="#b75867" points="255.51,-170.97 264.85,-165.96 254.42,-164.05 255.51,-170.97"/>
</g>
<!-- Advanced Algebra -->
<g id="node17" class="node">
<title>Advanced Algebra</title>
<g id="a_node17"><a xlink:href="../Advanced Algebra.html" xlink:title="Advanced Algebra" target="_parent">
<path fill="#273434" stroke="#b75867" d="M373.5,-147C373.5,-147 278.5,-147 278.5,-147 272.5,-147 266.5,-141 266.5,-135 266.5,-135 266.5,-123 266.5,-123 266.5,-117 272.5,-111 278.5,-111 278.5,-111 373.5,-111 373.5,-111 379.5,-111 385.5,-117 385.5,-123 385.5,-123 385.5,-135 385.5,-135 385.5,-141 379.5,-147 373.5,-147"/>
<text text-anchor="middle" x="326" y="-125.9" font-family="sans" font-size="12.00" fill="#c4c7c7">Advanced Algebra</text>
</a>
</g>
</g>
<!-- Knowledege Base&#45;&gt;Advanced Algebra -->
<g id="edge18" class="edge">
<title>Knowledege Base&#45;&gt;Advanced Algebra</title>
<path fill="none" stroke="#b75867" d="M140.37,-313.81C143.17,-276.94 155.01,-193.32 205,-151 219.25,-138.93 237.92,-132.57 256.28,-129.41"/>
<polygon fill="#b75867" stroke="#b75867" points="257,-132.84 266.41,-127.97 256.02,-125.91 257,-132.84"/>
</g>
<!-- Differential Analysis -->
<g id="node18" class="node">
<title>Differential Analysis</title>
<g id="a_node18"><a xlink:href="../Differential Analysis.html" xlink:title="Differential Analysis" target="_parent">
<path fill="#273434" stroke="#b75867" d="M377.5,-110C377.5,-110 274.5,-110 274.5,-110 268.5,-110 262.5,-104 262.5,-98 262.5,-98 262.5,-86 262.5,-86 262.5,-80 268.5,-74 274.5,-74 274.5,-74 377.5,-74 377.5,-74 383.5,-74 389.5,-80 389.5,-86 389.5,-86 389.5,-98 389.5,-98 389.5,-104 383.5,-110 377.5,-110"/>
<text text-anchor="middle" x="326" y="-88.9" font-family="sans" font-size="12.00" fill="#c4c7c7">Differential Analysis</text>
</a>
</g>
</g>
<!-- Knowledege Base&#45;&gt;Differential Analysis -->
<g id="edge19" class="edge">
<title>Knowledege Base&#45;&gt;Differential Analysis</title>
<path fill="none" stroke="#b75867" d="M139.07,-313.79C139.16,-271.67 145.67,-167.11 205,-114 217.99,-102.37 235.04,-95.94 252.2,-92.58"/>
<polygon fill="#b75867" stroke="#b75867" points="252.97,-96 262.28,-90.93 251.84,-89.09 252.97,-96"/>
</g>
<!-- Knowledege Base&#45;&gt;Differential Analysis -->
<g id="edge23" class="edge">
<title>Knowledege Base&#45;&gt;Differential Analysis</title>
<path fill="none" stroke="#b75867" d="M139.08,-313.99C139.19,-272.15 145.82,-167.98 205,-115 217.99,-103.37 235.04,-96.94 252.2,-93.55"/>
<polygon fill="#b75867" stroke="#b75867" points="252.98,-96.96 262.28,-91.88 251.84,-90.06 252.98,-96.96"/>
</g>
<!-- Introduction to programming -->
<g id="node19" class="node">
<title>Introduction to programming</title>
<g id="a_node19"><a xlink:href="../Introduction to programming.html" xlink:title="Introduction to programming" target="_parent">
<path fill="#273434" stroke="#b75867" d="M405.5,-73C405.5,-73 246.5,-73 246.5,-73 240.5,-73 234.5,-67 234.5,-61 234.5,-61 234.5,-49 234.5,-49 234.5,-43 240.5,-37 246.5,-37 246.5,-37 405.5,-37 405.5,-37 411.5,-37 417.5,-43 417.5,-49 417.5,-49 417.5,-61 417.5,-61 417.5,-67 411.5,-73 405.5,-73"/>
<text text-anchor="middle" x="326" y="-51.9" font-family="sans" font-size="12.00" fill="#c4c7c7">Introduction to programming</text>
</a>
</g>
</g>
<!-- Knowledege Base&#45;&gt;Introduction to programming -->
<g id="edge20" class="edge">
<title>Knowledege Base&#45;&gt;Introduction to programming</title>
<path fill="none" stroke="#b75867" d="M141.64,-313.81C148.21,-261.07 169.81,-109.8 205,-77 210.88,-71.52 217.66,-67.18 224.94,-63.76"/>
<polygon fill="#b75867" stroke="#b75867" points="226.45,-66.92 234.39,-59.91 223.81,-60.44 226.45,-66.92"/>
</g>
<!-- Analytic Geometry -->
<g id="node20" class="node">
<title>Analytic Geometry</title>
<g id="a_node20"><a xlink:href="../Analytic Geometry.html" xlink:title="Analytic Geometry" target="_parent">
<path fill="#273434" stroke="#b75867" d="M374.5,-36C374.5,-36 277.5,-36 277.5,-36 271.5,-36 265.5,-30 265.5,-24 265.5,-24 265.5,-12 265.5,-12 265.5,-6 271.5,0 277.5,0 277.5,0 374.5,0 374.5,0 380.5,0 386.5,-6 386.5,-12 386.5,-12 386.5,-24 386.5,-24 386.5,-30 380.5,-36 374.5,-36"/>
<text text-anchor="middle" x="326" y="-14.9" font-family="sans" font-size="12.00" fill="#c4c7c7">Analytic Geometry</text>
</a>
</g>
</g>
<!-- Knowledege Base&#45;&gt;Analytic Geometry -->
<g id="edge21" class="edge">
<title>Knowledege Base&#45;&gt;Analytic Geometry</title>
<path fill="none" stroke="#b75867" d="M141.01,-313.71C146.17,-255.86 165.02,-78.44 205,-40 218.52,-27 237.06,-20.36 255.51,-17.24"/>
<polygon fill="#b75867" stroke="#b75867" points="255.99,-20.7 265.43,-15.88 255.04,-13.77 255.99,-20.7"/>
</g>
<!-- Linear Algebra -->
<g id="node21" class="node">
<title>Linear Algebra</title>
<g id="a_node21"><a xlink:href="../Linear Algebra.html" xlink:title="Linear Algebra" target="_parent">
<path fill="#273434" stroke="#b75867" d="M363,-591C363,-591 289,-591 289,-591 283,-591 277,-585 277,-579 277,-579 277,-567 277,-567 277,-561 283,-555 289,-555 289,-555 363,-555 363,-555 369,-555 375,-561 375,-567 375,-567 375,-579 375,-579 375,-585 369,-591 363,-591"/>
<text text-anchor="middle" x="326" y="-569.9" font-family="sans" font-size="12.00" fill="#c4c7c7">Linear Algebra</text>
</a>
</g>
</g>
<!-- Knowledege Base&#45;&gt;Linear Algebra -->
<g id="edge22" class="edge">
<title>Knowledege Base&#45;&gt;Linear Algebra</title>
<path fill="none" stroke="#b75867" d="M148.34,-350.19C161.27,-377.63 185.07,-431.55 197,-480 200.8,-495.42 194.17,-539.39 205,-551 220.6,-567.72 244.39,-574.25 266.68,-576.21"/>
<polygon fill="#b75867" stroke="#b75867" points="266.59,-579.71 276.78,-576.81 267.01,-572.72 266.59,-579.71"/>
</g>
<!-- Org&#45;mode -->
<g id="node22" class="node">
<title>Org&#45;mode</title>
<g id="a_node22"><a xlink:href="../Org-mode.html" xlink:title="Org&#45;mode" target="_parent">
<path fill="#273434" stroke="#b75867" d="M351,-554C351,-554 301,-554 301,-554 295,-554 289,-548 289,-542 289,-542 289,-530 289,-530 289,-524 295,-518 301,-518 301,-518 351,-518 351,-518 357,-518 363,-524 363,-530 363,-530 363,-542 363,-542 363,-548 357,-554 351,-554"/>
<text text-anchor="middle" x="326" y="-532.9" font-family="sans" font-size="12.00" fill="#c4c7c7">Org&#45;mode</text>
</a>
</g>
</g>
<!-- Knowledege Base&#45;&gt;Org&#45;mode -->
<g id="edge25" class="edge">
<title>Knowledege Base&#45;&gt;Org&#45;mode</title>
<path fill="none" stroke="#b75867" d="M147.61,-350.4C159.59,-378.09 182.22,-432.35 197,-480 201.6,-494.83 193.75,-503.3 205,-514 224.33,-532.4 253.71,-538.01 278.55,-538.97"/>
<polygon fill="#b75867" stroke="#b75867" points="278.83,-542.48 288.88,-539.12 278.93,-535.48 278.83,-542.48"/>
</g>
</g>
</svg>
