<?xml version="1.0" encoding="UTF-8" standalone="no"?>
<!DOCTYPE svg PUBLIC "-//W3C//DTD SVG 1.1//EN"
 "http://www.w3.org/Graphics/SVG/1.1/DTD/svg11.dtd">
<!-- Generated by graphviz version 2.44.0 (0)
 -->
<!-- Title: Partial orders have no contours Pages: 1 -->
<svg width="612pt" height="232pt"
 viewBox="0.00 0.00 612.00 232.00" xmlns="http://www.w3.org/2000/svg" xmlns:xlink="http://www.w3.org/1999/xlink">
<g id="graph0" class="graph" transform="scale(1 1) rotate(0) translate(4 228)">
<title>Partial orders have no contours</title>
<polygon fill="#132020" stroke="transparent" points="-4,4 -4,-228 608,-228 608,4 -4,4"/>
<!-- Partial orders have no contours -->
<g id="node1" class="node">
<title>Partial orders have no contours</title>
<g id="a_node1"><a xlink:href="../Partial orders have no contours.html" xlink:title="Partial orders have no contours" target="_parent">
<path fill="#273434" stroke="#b75867" d="M181,-76C181,-76 12,-76 12,-76 6,-76 0,-70 0,-64 0,-64 0,-52 0,-52 0,-46 6,-40 12,-40 12,-40 181,-40 181,-40 187,-40 193,-46 193,-52 193,-52 193,-64 193,-64 193,-70 187,-76 181,-76"/>
<text text-anchor="middle" x="96.5" y="-54.9" font-family="sans" font-size="12.00" fill="#c4c7c7">Partial orders have no contours</text>
</a>
</g>
</g>
<!-- Contour -->
<g id="node2" class="node">
<title>Contour</title>
<g id="a_node2"><a xlink:href="../Contour.html" xlink:title="Contour" target="_parent">
<path fill="#273434" stroke="#b75867" d="M263.5,-56C263.5,-56 224.5,-56 224.5,-56 218.5,-56 212.5,-50 212.5,-44 212.5,-44 212.5,-32 212.5,-32 212.5,-26 218.5,-20 224.5,-20 224.5,-20 263.5,-20 263.5,-20 269.5,-20 275.5,-26 275.5,-32 275.5,-32 275.5,-44 275.5,-44 275.5,-50 269.5,-56 263.5,-56"/>
<text text-anchor="middle" x="244" y="-34.9" font-family="sans" font-size="12.00" fill="#c4c7c7">Contour</text>
</a>
</g>
</g>
<!-- Partial orders have no contours&#45;&gt;Contour -->
<g id="edge1" class="edge">
<title>Partial orders have no contours&#45;&gt;Contour</title>
<path fill="none" stroke="#b75867" d="M193.33,-44.83C196.37,-44.41 199.35,-44 202.24,-43.6"/>
<polygon fill="#b75867" stroke="#b75867" points="202.88,-47.05 212.31,-42.22 201.92,-40.11 202.88,-47.05"/>
</g>
<!-- Partial order -->
<g id="node3" class="node">
<title>Partial order</title>
<g id="a_node3"><a xlink:href="../Partial order.html" xlink:title="Partial order" target="_parent">
<path fill="#273434" stroke="#b75867" d="M275,-113C275,-113 213,-113 213,-113 207,-113 201,-107 201,-101 201,-101 201,-89 201,-89 201,-83 207,-77 213,-77 213,-77 275,-77 275,-77 281,-77 287,-83 287,-89 287,-89 287,-101 287,-101 287,-107 281,-113 275,-113"/>
<text text-anchor="middle" x="244" y="-91.9" font-family="sans" font-size="12.00" fill="#c4c7c7">Partial order</text>
</a>
</g>
</g>
<!-- Partial orders have no contours&#45;&gt;Partial order -->
<g id="edge2" class="edge">
<title>Partial orders have no contours&#45;&gt;Partial order</title>
<path fill="none" stroke="#b75867" d="M168.55,-76.07C176.18,-78.01 183.85,-79.96 191.2,-81.83"/>
<polygon fill="#b75867" stroke="#b75867" points="190.44,-85.25 200.99,-84.32 192.17,-78.46 190.44,-85.25"/>
</g>
<!-- Transitive Relation -->
<g id="node4" class="node">
<title>Transitive Relation</title>
<g id="a_node4"><a xlink:href="../Transitive Relation.html" xlink:title="Transitive Relation" target="_parent">
<path fill="#273434" stroke="#b75867" d="M419.5,-193C419.5,-193 322.5,-193 322.5,-193 316.5,-193 310.5,-187 310.5,-181 310.5,-181 310.5,-169 310.5,-169 310.5,-163 316.5,-157 322.5,-157 322.5,-157 419.5,-157 419.5,-157 425.5,-157 431.5,-163 431.5,-169 431.5,-169 431.5,-181 431.5,-181 431.5,-187 425.5,-193 419.5,-193"/>
<text text-anchor="middle" x="371" y="-171.9" font-family="sans" font-size="12.00" fill="#c4c7c7">Transitive Relation</text>
</a>
</g>
</g>
<!-- Partial orders have no contours&#45;&gt;Transitive Relation -->
<g id="edge3" class="edge">
<title>Partial orders have no contours&#45;&gt;Transitive Relation</title>
<path fill="none" stroke="#b75867" d="M128.77,-76.01C149.09,-87.43 176.29,-102.22 201,-114 241.83,-133.45 252.35,-137.95 295,-153 296.87,-153.66 298.77,-154.32 300.7,-154.97"/>
<polygon fill="#b75867" stroke="#b75867" points="299.86,-158.38 310.45,-158.17 302.04,-151.73 299.86,-158.38"/>
</g>
<!-- Reflexive Relation -->
<g id="node5" class="node">
<title>Reflexive Relation</title>
<g id="a_node5"><a xlink:href="../Reflexive Relation.html" xlink:title="Reflexive Relation" target="_parent">
<path fill="#273434" stroke="#b75867" d="M417.5,-76C417.5,-76 324.5,-76 324.5,-76 318.5,-76 312.5,-70 312.5,-64 312.5,-64 312.5,-52 312.5,-52 312.5,-46 318.5,-40 324.5,-40 324.5,-40 417.5,-40 417.5,-40 423.5,-40 429.5,-46 429.5,-52 429.5,-52 429.5,-64 429.5,-64 429.5,-70 423.5,-76 417.5,-76"/>
<text text-anchor="middle" x="371" y="-54.9" font-family="sans" font-size="12.00" fill="#c4c7c7">Reflexive Relation</text>
</a>
</g>
</g>
<!-- Partial orders have no contours&#45;&gt;Reflexive Relation -->
<g id="edge4" class="edge">
<title>Partial orders have no contours&#45;&gt;Reflexive Relation</title>
<path fill="none" stroke="#b75867" d="M193.19,-58C229.03,-58 268.99,-58 301.84,-58"/>
<polygon fill="#b75867" stroke="#b75867" points="302.24,-61.5 312.24,-58 302.24,-54.5 302.24,-61.5"/>
</g>
<!-- Chain -->
<g id="node6" class="node">
<title>Chain</title>
<g id="a_node6"><a xlink:href="../Chain.html" xlink:title="Chain" target="_parent">
<path fill="none" stroke="#b75867" d="M386,-36C386,-36 356,-36 356,-36 350,-36 344,-30 344,-24 344,-24 344,-12 344,-12 344,-6 350,0 356,0 356,0 386,0 386,0 392,0 398,-6 398,-12 398,-12 398,-24 398,-24 398,-30 392,-36 386,-36"/>
<text text-anchor="middle" x="371" y="-14.9" font-family="sans" font-size="12.00" fill="#c4c7c7">Chain</text>
</a>
</g>
</g>
<!-- Partial orders have no contours&#45;&gt;Chain -->
<g id="edge5" class="edge">
<title>Partial orders have no contours&#45;&gt;Chain</title>
<path fill="none" stroke="#ffffff" d="M150.94,-36.57C166.8,-31.13 184.38,-25.99 201,-23 250.98,-14.02 310.59,-14.89 343.99,-16.4"/>
<polygon fill="#ffffff" stroke="#ffffff" points="149.58,-33.34 141.32,-39.97 151.91,-39.94 149.58,-33.34"/>
</g>
<!-- Contour&#45;&gt;Partial orders have no contours -->
<g id="edge7" class="edge">
<title>Contour&#45;&gt;Partial orders have no contours</title>
<path fill="none" stroke="#ffffff" d="M202.24,-44.28C199.35,-44.69 196.37,-45.12 193.33,-45.54"/>
<polygon fill="#ffffff" stroke="#ffffff" points="202.9,-47.72 212.31,-42.84 201.91,-40.8 202.9,-47.72"/>
</g>
<!-- Contour&#45;&gt;Chain -->
<g id="edge6" class="edge">
<title>Contour&#45;&gt;Chain</title>
<path fill="none" stroke="#b75867" d="M275.58,-33.11C293.18,-30.29 315.4,-26.74 333.87,-23.78"/>
<polygon fill="#b75867" stroke="#b75867" points="334.64,-27.2 343.96,-22.17 333.53,-20.29 334.64,-27.2"/>
</g>
<!-- Partial order&#45;&gt;Partial orders have no contours -->
<g id="edge15" class="edge">
<title>Partial order&#45;&gt;Partial orders have no contours</title>
<path fill="none" stroke="#ffffff" d="M190.91,-82.48C182.69,-80.41 174.08,-78.23 165.56,-76.06"/>
<polygon fill="#ffffff" stroke="#ffffff" points="190.16,-85.9 200.71,-84.93 191.86,-79.11 190.16,-85.9"/>
</g>
<!-- Partial order&#45;&gt;Transitive Relation -->
<g id="edge8" class="edge">
<title>Partial order&#45;&gt;Transitive Relation</title>
<path fill="none" stroke="#b75867" d="M260.58,-113.2C275.05,-130.07 294.44,-152.64 295,-153 296.95,-154.25 298.97,-155.44 301.04,-156.56"/>
<polygon fill="#b75867" stroke="#b75867" points="299.91,-159.89 310.44,-161.05 302.93,-153.58 299.91,-159.89"/>
</g>
<!-- Partial order&#45;&gt;Reflexive Relation -->
<g id="edge10" class="edge">
<title>Partial order&#45;&gt;Reflexive Relation</title>
<path fill="none" stroke="#b75867" d="M287.01,-82.38C289.71,-81.57 292.39,-80.77 295,-80 297.45,-79.27 299.94,-78.54 302.46,-77.79"/>
<polygon fill="#b75867" stroke="#b75867" points="303.65,-81.09 312.25,-74.9 301.67,-74.37 303.65,-81.09"/>
</g>
<!-- Anti&#45;symmetric Relation -->
<g id="node7" class="node">
<title>Anti&#45;symmetric Relation</title>
<g id="a_node7"><a xlink:href="../Anti-symmetric Relation.html" xlink:title="Anti&#45;symmetric Relation" target="_parent">
<path fill="#273434" stroke="#b75867" d="M435,-153C435,-153 307,-153 307,-153 301,-153 295,-147 295,-141 295,-141 295,-129 295,-129 295,-123 301,-117 307,-117 307,-117 435,-117 435,-117 441,-117 447,-123 447,-129 447,-129 447,-141 447,-141 447,-147 441,-153 435,-153"/>
<text text-anchor="middle" x="371" y="-131.9" font-family="sans" font-size="12.00" fill="#c4c7c7">Anti&#45;symmetric Relation</text>
</a>
</g>
</g>
<!-- Partial order&#45;&gt;Anti&#45;symmetric Relation -->
<g id="edge9" class="edge">
<title>Partial order&#45;&gt;Anti&#45;symmetric Relation</title>
<path fill="none" stroke="#b75867" d="M287.22,-110.4C289.85,-111.3 292.46,-112.17 295,-113 295.87,-113.29 296.76,-113.57 297.64,-113.86"/>
<polygon fill="#b75867" stroke="#b75867" points="296.71,-117.23 307.3,-116.91 298.82,-110.56 296.71,-117.23"/>
</g>
<!-- Relation -->
<g id="node8" class="node">
<title>Relation</title>
<g id="a_node8"><a xlink:href="../Relation.html" xlink:title="Relation" target="_parent">
<path fill="#273434" stroke="#b75867" d="M549.5,-39C549.5,-39 509.5,-39 509.5,-39 503.5,-39 497.5,-33 497.5,-27 497.5,-27 497.5,-15 497.5,-15 497.5,-9 503.5,-3 509.5,-3 509.5,-3 549.5,-3 549.5,-3 555.5,-3 561.5,-9 561.5,-15 561.5,-15 561.5,-27 561.5,-27 561.5,-33 555.5,-39 549.5,-39"/>
<text text-anchor="middle" x="529.5" y="-17.9" font-family="sans" font-size="12.00" fill="#c4c7c7">Relation</text>
</a>
</g>
</g>
<!-- Partial order&#45;&gt;Relation -->
<g id="edge11" class="edge">
<title>Partial order&#45;&gt;Relation</title>
<path fill="none" stroke="#b75867" d="M267.65,-76.88C274.31,-70.94 281.33,-64.05 287,-57 291.49,-51.42 288.92,-46.8 295,-43 309.35,-34.03 430.17,-34.79 447,-33 460.13,-31.6 474.39,-29.65 487.25,-27.73"/>
<polygon fill="#b75867" stroke="#b75867" points="487.87,-31.18 497.23,-26.21 486.81,-24.26 487.87,-31.18"/>
</g>
<!-- Linear extension -->
<g id="node9" class="node">
<title>Linear extension</title>
<g id="a_node9"><a xlink:href="../Linear extension.html" xlink:title="Linear extension" target="_parent">
<path fill="none" stroke="#b75867" d="M414,-113C414,-113 328,-113 328,-113 322,-113 316,-107 316,-101 316,-101 316,-89 316,-89 316,-83 322,-77 328,-77 328,-77 414,-77 414,-77 420,-77 426,-83 426,-89 426,-89 426,-101 426,-101 426,-107 420,-113 414,-113"/>
<text text-anchor="middle" x="371" y="-91.9" font-family="sans" font-size="12.00" fill="#c4c7c7">Linear extension</text>
</a>
</g>
</g>
<!-- Partial order&#45;&gt;Linear extension -->
<g id="edge12" class="edge">
<title>Partial order&#45;&gt;Linear extension</title>
<path fill="none" stroke="#ffffff" d="M297.46,-95C303.58,-95 309.84,-95 315.98,-95"/>
<polygon fill="#ffffff" stroke="#ffffff" points="297.32,-91.5 287.32,-95 297.32,-98.5 297.32,-91.5"/>
</g>
<!-- Relations -->
<g id="node10" class="node">
<title>Relations</title>
<g id="a_node10"><a xlink:href="../Relations.html" xlink:title="Relations" target="_parent">
<path fill="none" stroke="#b75867" d="M552,-113C552,-113 507,-113 507,-113 501,-113 495,-107 495,-101 495,-101 495,-89 495,-89 495,-83 501,-77 507,-77 507,-77 552,-77 552,-77 558,-77 564,-83 564,-89 564,-89 564,-101 564,-101 564,-107 558,-113 552,-113"/>
<text text-anchor="middle" x="529.5" y="-91.9" font-family="sans" font-size="12.00" fill="#c4c7c7">Relations</text>
</a>
</g>
</g>
<!-- Partial order&#45;&gt;Relations -->
<g id="edge13" class="edge">
<title>Partial order&#45;&gt;Relations</title>
<path fill="none" stroke="#ffffff" d="M297.23,-110.05C363.62,-119.46 382.88,-115.85 447,-110 462.9,-108.55 480.34,-105.54 494.99,-102.59"/>
<polygon fill="#ffffff" stroke="#ffffff" points="297.49,-106.55 287.09,-108.57 296.47,-113.48 297.49,-106.55"/>
</g>
<!-- Linear order -->
<g id="node11" class="node">
<title>Linear order</title>
<g id="a_node11"><a xlink:href="../Linear order.html" xlink:title="Linear order" target="_parent">
<path fill="none" stroke="#b75867" d="M560.5,-187C560.5,-187 498.5,-187 498.5,-187 492.5,-187 486.5,-181 486.5,-175 486.5,-175 486.5,-163 486.5,-163 486.5,-157 492.5,-151 498.5,-151 498.5,-151 560.5,-151 560.5,-151 566.5,-151 572.5,-157 572.5,-163 572.5,-163 572.5,-175 572.5,-175 572.5,-181 566.5,-187 560.5,-187"/>
<text text-anchor="middle" x="529.5" y="-165.9" font-family="sans" font-size="12.00" fill="#c4c7c7">Linear order</text>
</a>
</g>
</g>
<!-- Partial order&#45;&gt;Linear order -->
<g id="edge14" class="edge">
<title>Partial order&#45;&gt;Linear order</title>
<path fill="none" stroke="#ffffff" d="M267.01,-120.93C278.64,-134.3 291.26,-148.2 295,-150 325.49,-164.7 413.28,-157.03 447,-160 459.76,-161.12 473.62,-162.57 486.24,-163.97"/>
<polygon fill="#ffffff" stroke="#ffffff" points="269.54,-118.5 260.36,-113.21 264.24,-123.07 269.54,-118.5"/>
</g>
<!-- Transitive Relation&#45;&gt;Partial orders have no contours -->
<g id="edge21" class="edge">
<title>Transitive Relation&#45;&gt;Partial orders have no contours</title>
<path fill="none" stroke="#ffffff" d="M300.7,-155.97C298.77,-155.32 296.87,-154.66 295,-154 252.35,-138.95 241.83,-134.45 201,-115 175.73,-102.96 147.87,-87.77 127.42,-76.09"/>
<polygon fill="#ffffff" stroke="#ffffff" points="299.86,-159.38 310.45,-159.17 302.04,-152.73 299.86,-159.38"/>
</g>
<!-- Transitive Relation&#45;&gt;Partial order -->
<g id="edge22" class="edge">
<title>Transitive Relation&#45;&gt;Partial order</title>
<path fill="none" stroke="#ffffff" d="M301.04,-157.56C298.97,-156.44 296.95,-155.25 295,-154 294.43,-153.64 274.56,-130.51 260.04,-113.32"/>
<polygon fill="#ffffff" stroke="#ffffff" points="299.91,-160.89 310.44,-162.05 302.92,-154.58 299.91,-160.89"/>
</g>
<!-- Transitive Relation&#45;&gt;Relation -->
<g id="edge16" class="edge">
<title>Transitive Relation&#45;&gt;Relation</title>
<path fill="none" stroke="#b75867" d="M431.62,-165.26C437.5,-162.17 442.82,-158.17 447,-153 462.39,-133.93 439.66,-62.11 455,-43 462.88,-33.18 474.96,-27.61 487.07,-24.5"/>
<polygon fill="#b75867" stroke="#b75867" points="488.07,-27.86 497.15,-22.41 486.65,-21.01 488.07,-27.86"/>
</g>
<!-- Transitive Relation&#45;&gt;Relations -->
<g id="edge19" class="edge">
<title>Transitive Relation&#45;&gt;Relations</title>
<path fill="none" stroke="#ffffff" d="M440.31,-158.93C442.71,-157.15 444.96,-155.18 447,-153 458.2,-141.03 443.84,-129 455,-117 465.25,-105.98 480.77,-100.4 494.92,-97.61"/>
<polygon fill="#ffffff" stroke="#ffffff" points="438.32,-156.05 431.63,-164.27 441.98,-162.01 438.32,-156.05"/>
</g>
<!-- Transitive Relation&#45;&gt;Linear order -->
<g id="edge20" class="edge">
<title>Transitive Relation&#45;&gt;Linear order</title>
<path fill="none" stroke="#ffffff" d="M441.94,-172.32C456.99,-171.74 472.45,-171.15 486.07,-170.63"/>
<polygon fill="#ffffff" stroke="#ffffff" points="441.47,-168.83 431.61,-172.71 441.74,-175.83 441.47,-168.83"/>
</g>
<!-- Relation of Equivalence -->
<g id="node12" class="node">
<title>Relation of Equivalence</title>
<g id="a_node12"><a xlink:href="../Relation of Equivalence.html" xlink:title="Relation of Equivalence" target="_parent">
<path fill="none" stroke="#b75867" d="M592,-150C592,-150 467,-150 467,-150 461,-150 455,-144 455,-138 455,-138 455,-126 455,-126 455,-120 461,-114 467,-114 467,-114 592,-114 592,-114 598,-114 604,-120 604,-126 604,-126 604,-138 604,-138 604,-144 598,-150 592,-150"/>
<text text-anchor="middle" x="529.5" y="-128.9" font-family="sans" font-size="12.00" fill="#c4c7c7">Relation of Equivalence</text>
</a>
</g>
</g>
<!-- Transitive Relation&#45;&gt;Relation of Equivalence -->
<g id="edge17" class="edge">
<title>Transitive Relation&#45;&gt;Relation of Equivalence</title>
<path fill="none" stroke="#ffffff" d="M441.28,-155.97C448.43,-154 455.68,-152.01 462.79,-150.06"/>
<polygon fill="#ffffff" stroke="#ffffff" points="440.33,-152.6 431.61,-158.62 442.18,-159.35 440.33,-152.6"/>
</g>
<!-- Transitive Closure -->
<g id="node13" class="node">
<title>Transitive Closure</title>
<g id="a_node13"><a xlink:href="../Transitive Closure.html" xlink:title="Transitive Closure" target="_parent">
<path fill="none" stroke="#b75867" d="M575.5,-224C575.5,-224 483.5,-224 483.5,-224 477.5,-224 471.5,-218 471.5,-212 471.5,-212 471.5,-200 471.5,-200 471.5,-194 477.5,-188 483.5,-188 483.5,-188 575.5,-188 575.5,-188 581.5,-188 587.5,-194 587.5,-200 587.5,-200 587.5,-212 587.5,-212 587.5,-218 581.5,-224 575.5,-224"/>
<text text-anchor="middle" x="529.5" y="-202.9" font-family="sans" font-size="12.00" fill="#c4c7c7">Transitive Closure</text>
</a>
</g>
</g>
<!-- Transitive Relation&#45;&gt;Transitive Closure -->
<g id="edge18" class="edge">
<title>Transitive Relation&#45;&gt;Transitive Closure</title>
<path fill="none" stroke="#ffffff" d="M441.51,-188.77C451.49,-190.75 461.67,-192.76 471.38,-194.68"/>
<polygon fill="#ffffff" stroke="#ffffff" points="442.1,-185.32 431.61,-186.81 440.74,-192.18 442.1,-185.32"/>
</g>
<!-- Reflexive Relation&#45;&gt;Partial orders have no contours -->
<g id="edge28" class="edge">
<title>Reflexive Relation&#45;&gt;Partial orders have no contours</title>
<path fill="none" stroke="#ffffff" d="M301.84,-58.66C268.99,-58.75 229.03,-58.77 193.19,-58.72"/>
<polygon fill="#ffffff" stroke="#ffffff" points="302.26,-62.16 312.24,-58.63 302.23,-55.16 302.26,-62.16"/>
</g>
<!-- Reflexive Relation&#45;&gt;Partial order -->
<g id="edge29" class="edge">
<title>Reflexive Relation&#45;&gt;Partial order</title>
<path fill="none" stroke="#ffffff" d="M302.46,-78.79C299.94,-79.54 297.45,-80.27 295,-81 292.39,-81.77 289.71,-82.57 287.01,-83.38"/>
<polygon fill="#ffffff" stroke="#ffffff" points="303.66,-82.09 312.25,-75.9 301.67,-75.37 303.66,-82.09"/>
</g>
<!-- Reflexive Relation&#45;&gt;Relation -->
<g id="edge23" class="edge">
<title>Reflexive Relation&#45;&gt;Relation</title>
<path fill="none" stroke="#b75867" d="M429.83,-44.33C448.9,-39.82 469.71,-34.9 487.28,-30.74"/>
<polygon fill="#b75867" stroke="#b75867" points="488.29,-34.1 497.22,-28.4 486.68,-27.29 488.29,-34.1"/>
</g>
<!-- Reflexive Relation&#45;&gt;Relations -->
<g id="edge26" class="edge">
<title>Reflexive Relation&#45;&gt;Relations</title>
<path fill="none" stroke="#ffffff" d="M439.73,-74.01C458.85,-78.53 478.83,-83.26 494.98,-87.08"/>
<polygon fill="#ffffff" stroke="#ffffff" points="440.37,-70.57 429.83,-71.67 438.76,-77.38 440.37,-70.57"/>
</g>
<!-- Reflexive Relation&#45;&gt;Linear order -->
<g id="edge27" class="edge">
<title>Reflexive Relation&#45;&gt;Linear order</title>
<path fill="none" stroke="#ffffff" d="M438.44,-72.2C441.59,-74.45 444.49,-77.03 447,-80 466.37,-102.9 435.69,-124.05 455,-147 462.89,-156.38 474.6,-161.86 486.37,-165.03"/>
<polygon fill="#ffffff" stroke="#ffffff" points="439.96,-69.04 429.56,-67.03 436.43,-75.09 439.96,-69.04"/>
</g>
<!-- Reflexive Relation&#45;&gt;Relation of Equivalence -->
<g id="edge25" class="edge">
<title>Reflexive Relation&#45;&gt;Relation of Equivalence</title>
<path fill="none" stroke="#ffffff" d="M438.6,-73.06C441.63,-75.1 444.46,-77.4 447,-80 456.64,-89.88 445.39,-100.1 455,-110 456.3,-111.34 457.67,-112.6 459.12,-113.78"/>
<polygon fill="#ffffff" stroke="#ffffff" points="440.02,-69.85 429.59,-68.02 436.6,-75.96 440.02,-69.85"/>
</g>
<!-- Reflexive Closure -->
<g id="node14" class="node">
<title>Reflexive Closure</title>
<g id="a_node14"><a xlink:href="../Reflexive Closure.html" xlink:title="Reflexive Closure" target="_parent">
<path fill="none" stroke="#b75867" d="M574,-76C574,-76 485,-76 485,-76 479,-76 473,-70 473,-64 473,-64 473,-52 473,-52 473,-46 479,-40 485,-40 485,-40 574,-40 574,-40 580,-40 586,-46 586,-52 586,-52 586,-64 586,-64 586,-70 580,-76 574,-76"/>
<text text-anchor="middle" x="529.5" y="-54.9" font-family="sans" font-size="12.00" fill="#c4c7c7">Reflexive Closure</text>
</a>
</g>
</g>
<!-- Reflexive Relation&#45;&gt;Reflexive Closure -->
<g id="edge24" class="edge">
<title>Reflexive Relation&#45;&gt;Reflexive Closure</title>
<path fill="none" stroke="#ffffff" d="M439.88,-58C450.94,-58 462.27,-58 472.99,-58"/>
<polygon fill="#ffffff" stroke="#ffffff" points="439.83,-54.5 429.83,-58 439.83,-61.5 439.83,-54.5"/>
</g>
<!-- Chain&#45;&gt;Partial orders have no contours -->
<g id="edge30" class="edge">
<title>Chain&#45;&gt;Partial orders have no contours</title>
<path fill="none" stroke="#b75867" d="M343.99,-17.09C310.59,-15.89 250.98,-15.02 201,-24 185.3,-26.82 168.75,-31.57 153.6,-36.63"/>
<polygon fill="#b75867" stroke="#b75867" points="152.18,-33.42 143.87,-39.99 154.46,-40.03 152.18,-33.42"/>
</g>
<!-- Chain&#45;&gt;Contour -->
<g id="edge31" class="edge">
<title>Chain&#45;&gt;Contour</title>
<path fill="none" stroke="#b75867" d="M343.96,-22.79C327.08,-25.62 304.74,-29.23 285.56,-32.22"/>
<polygon fill="#b75867" stroke="#b75867" points="284.93,-28.77 275.58,-33.76 286,-35.69 284.93,-28.77"/>
</g>
<!-- Chain&#45;&gt;Relation -->
<g id="edge32" class="edge">
<title>Chain&#45;&gt;Relation</title>
<path fill="none" stroke="#b75867" d="M398.19,-18.5C422.42,-18.97 458.83,-19.66 487.01,-20.2"/>
<polygon fill="#b75867" stroke="#b75867" points="487.3,-23.71 497.37,-20.4 487.44,-16.71 487.3,-23.71"/>
</g>
<!-- Chain&#45;&gt;Relations -->
<g id="edge33" class="edge">
<title>Chain&#45;&gt;Relations</title>
<path fill="none" stroke="#ffffff" d="M408.55,-21.02C422.29,-23.95 437,-29.51 447,-40 457.41,-50.92 444.62,-62.05 455,-73 465.27,-83.82 480.62,-89.39 494.64,-92.22"/>
<polygon fill="#ffffff" stroke="#ffffff" points="408.76,-17.51 398.32,-19.26 407.58,-24.41 408.76,-17.51"/>
</g>
</g>
</svg>
