<?xml version="1.0" encoding="UTF-8" standalone="no"?>
<!DOCTYPE svg PUBLIC "-//W3C//DTD SVG 1.1//EN"
 "http://www.w3.org/Graphics/SVG/1.1/DTD/svg11.dtd">
<!-- Generated by graphviz version 2.44.0 (0)
 -->
<!-- Title: Principle of division Pages: 1 -->
<svg width="812pt" height="377pt"
 viewBox="0.00 0.00 812.00 377.00" xmlns="http://www.w3.org/2000/svg" xmlns:xlink="http://www.w3.org/1999/xlink">
<g id="graph0" class="graph" transform="scale(1 1) rotate(0) translate(4 373)">
<title>Principle of division</title>
<polygon fill="#132020" stroke="transparent" points="-4,4 -4,-373 808,-373 808,4 -4,4"/>
<!-- Principle of division -->
<g id="node1" class="node">
<title>Principle of division</title>
<g id="a_node1"><a xlink:href="../Principle of division.html" xlink:title="Principle of division" target="_parent">
<path fill="#273434" stroke="#b75867" d="M114,-232C114,-232 12,-232 12,-232 6,-232 0,-226 0,-220 0,-220 0,-208 0,-208 0,-202 6,-196 12,-196 12,-196 114,-196 114,-196 120,-196 126,-202 126,-208 126,-208 126,-220 126,-220 126,-226 120,-232 114,-232"/>
<text text-anchor="middle" x="63" y="-210.9" font-family="sans" font-size="12.00" fill="#c4c7c7">Principle of division</text>
</a>
</g>
</g>
<!-- Class of equivalence -->
<g id="node2" class="node">
<title>Class of equivalence</title>
<g id="a_node2"><a xlink:href="../Class of equivalence.html" xlink:title="Class of equivalence" target="_parent">
<path fill="#273434" stroke="#b75867" d="M253,-242C253,-242 146,-242 146,-242 140,-242 134,-236 134,-230 134,-230 134,-218 134,-218 134,-212 140,-206 146,-206 146,-206 253,-206 253,-206 259,-206 265,-212 265,-218 265,-218 265,-230 265,-230 265,-236 259,-242 253,-242"/>
<text text-anchor="middle" x="199.5" y="-220.9" font-family="sans" font-size="12.00" fill="#c4c7c7">Class of equivalence</text>
</a>
</g>
</g>
<!-- Principle of division&#45;&gt;Class of equivalence -->
<g id="edge1" class="edge">
<title>Principle of division&#45;&gt;Class of equivalence</title>
<path fill="none" stroke="#b75867" d="M126.13,-218.62C126.3,-218.63 126.46,-218.64 126.62,-218.66"/>
<polygon fill="#b75867" stroke="#b75867" points="123.76,-221.95 133.99,-219.2 124.28,-214.97 123.76,-221.95"/>
</g>
<!-- Relation of Equivalence -->
<g id="node3" class="node">
<title>Relation of Equivalence</title>
<g id="a_node3"><a xlink:href="../Relation of Equivalence.html" xlink:title="Relation of Equivalence" target="_parent">
<path fill="#273434" stroke="#b75867" d="M410,-222C410,-222 285,-222 285,-222 279,-222 273,-216 273,-210 273,-210 273,-198 273,-198 273,-192 279,-186 285,-186 285,-186 410,-186 410,-186 416,-186 422,-192 422,-198 422,-198 422,-210 422,-210 422,-216 416,-222 410,-222"/>
<text text-anchor="middle" x="347.5" y="-200.9" font-family="sans" font-size="12.00" fill="#c4c7c7">Relation of Equivalence</text>
</a>
</g>
</g>
<!-- Principle of division&#45;&gt;Relation of Equivalence -->
<g id="edge2" class="edge">
<title>Principle of division&#45;&gt;Relation of Equivalence</title>
<path fill="none" stroke="#b75867" d="M126.2,-209.4C128.84,-209.26 131.44,-209.12 134,-209 176.3,-206.99 223.37,-205.78 262.44,-205.05"/>
<polygon fill="#b75867" stroke="#b75867" points="262.78,-208.55 272.71,-204.87 262.65,-201.55 262.78,-208.55"/>
</g>
<!-- Set -->
<g id="node4" class="node">
<title>Set</title>
<g id="a_node4"><a xlink:href="../Set.html" xlink:title="Set" target="_parent">
<path fill="#273434" stroke="#b75867" d="M520.5,-295C520.5,-295 490.5,-295 490.5,-295 484.5,-295 478.5,-289 478.5,-283 478.5,-283 478.5,-271 478.5,-271 478.5,-265 484.5,-259 490.5,-259 490.5,-259 520.5,-259 520.5,-259 526.5,-259 532.5,-265 532.5,-271 532.5,-271 532.5,-283 532.5,-283 532.5,-289 526.5,-295 520.5,-295"/>
<text text-anchor="middle" x="505.5" y="-273.9" font-family="sans" font-size="12.00" fill="#c4c7c7">Set</text>
</a>
</g>
</g>
<!-- Principle of division&#45;&gt;Set -->
<g id="edge3" class="edge">
<title>Principle of division&#45;&gt;Set</title>
<path fill="none" stroke="#b75867" d="M101.81,-232.09C112.05,-236.32 123.27,-240.35 134,-243 253.94,-272.62 401.48,-276.96 468.42,-277.26"/>
<polygon fill="#b75867" stroke="#b75867" points="468.45,-280.76 478.45,-277.28 468.46,-273.76 468.45,-280.76"/>
</g>
<!-- Combinatoric principles -->
<g id="node5" class="node">
<title>Combinatoric principles</title>
<g id="a_node5"><a xlink:href="../Combinatoric principles.html" xlink:title="Combinatoric principles" target="_parent">
<path fill="none" stroke="#b75867" d="M569,-36C569,-36 442,-36 442,-36 436,-36 430,-30 430,-24 430,-24 430,-12 430,-12 430,-6 436,0 442,0 442,0 569,0 569,0 575,0 581,-6 581,-12 581,-12 581,-24 581,-24 581,-30 575,-36 569,-36"/>
<text text-anchor="middle" x="505.5" y="-14.9" font-family="sans" font-size="12.00" fill="#c4c7c7">Combinatoric principles</text>
</a>
</g>
</g>
<!-- Principle of division&#45;&gt;Combinatoric principles -->
<g id="edge4" class="edge">
<title>Principle of division&#45;&gt;Combinatoric principles</title>
<path fill="none" stroke="#ffffff" d="M106.56,-191.07C173.84,-155.44 309.5,-86.11 430,-40 433.53,-38.65 437.17,-37.33 440.87,-36.06"/>
<polygon fill="#ffffff" stroke="#ffffff" points="104.72,-188.08 97.53,-195.86 108,-194.26 104.72,-188.08"/>
</g>
<!-- Class of equivalence&#45;&gt;Principle of division -->
<g id="edge8" class="edge">
<title>Class of equivalence&#45;&gt;Principle of division</title>
<path fill="none" stroke="#ffffff" d="M126.62,-219.4C126.46,-219.39 126.3,-219.38 126.13,-219.37"/>
<polygon fill="#ffffff" stroke="#ffffff" points="123.76,-222.7 133.99,-219.95 124.28,-215.72 123.76,-222.7"/>
</g>
<!-- Class of equivalence&#45;&gt;Relation of Equivalence -->
<g id="edge7" class="edge">
<title>Class of equivalence&#45;&gt;Relation of Equivalence</title>
<path fill="none" stroke="#b75867" d="M265.39,-215.11C265.54,-215.09 265.69,-215.07 265.85,-215.05"/>
<polygon fill="#b75867" stroke="#b75867" points="263.29,-218.93 272.72,-214.11 262.34,-212 263.29,-218.93"/>
</g>
<!-- Class of equivalence&#45;&gt;Set -->
<g id="edge6" class="edge">
<title>Class of equivalence&#45;&gt;Set</title>
<path fill="none" stroke="#b75867" d="M265.32,-231.16C267.92,-231.45 270.48,-231.73 273,-232 339.21,-239.21 360.99,-221.27 422,-248 426.33,-249.9 425.86,-252.72 430,-255 441.84,-261.51 455.83,-266.3 468.47,-269.71"/>
<polygon fill="#b75867" stroke="#b75867" points="467.69,-273.13 478.24,-272.16 469.39,-266.34 467.69,-273.13"/>
</g>
<!-- Partition -->
<g id="node6" class="node">
<title>Partition</title>
<g id="a_node6"><a xlink:href="../Partition.html" xlink:title="Partition" target="_parent">
<path fill="#273434" stroke="#b75867" d="M526,-258C526,-258 485,-258 485,-258 479,-258 473,-252 473,-246 473,-246 473,-234 473,-234 473,-228 479,-222 485,-222 485,-222 526,-222 526,-222 532,-222 538,-228 538,-234 538,-234 538,-246 538,-246 538,-252 532,-258 526,-258"/>
<text text-anchor="middle" x="505.5" y="-236.9" font-family="sans" font-size="12.00" fill="#c4c7c7">Partition</text>
</a>
</g>
</g>
<!-- Class of equivalence&#45;&gt;Partition -->
<g id="edge5" class="edge">
<title>Class of equivalence&#45;&gt;Partition</title>
<path fill="none" stroke="#b75867" d="M265.34,-227.41C325.05,-230.56 411.86,-235.12 462.82,-237.81"/>
<polygon fill="#b75867" stroke="#b75867" points="462.65,-241.3 472.82,-238.33 463.02,-234.31 462.65,-241.3"/>
</g>
<!-- Relations -->
<g id="node7" class="node">
<title>Relations</title>
<g id="a_node7"><a xlink:href="../Relations.html" xlink:title="Relations" target="_parent">
<path fill="none" stroke="#b75867" d="M528,-221C528,-221 483,-221 483,-221 477,-221 471,-215 471,-209 471,-209 471,-197 471,-197 471,-191 477,-185 483,-185 483,-185 528,-185 528,-185 534,-185 540,-191 540,-197 540,-197 540,-209 540,-209 540,-215 534,-221 528,-221"/>
<text text-anchor="middle" x="505.5" y="-199.9" font-family="sans" font-size="12.00" fill="#c4c7c7">Relations</text>
</a>
</g>
</g>
<!-- Class of equivalence&#45;&gt;Relations -->
<g id="edge9" class="edge">
<title>Class of equivalence&#45;&gt;Relations</title>
<path fill="none" stroke="#ffffff" d="M275.25,-225.45C318.28,-225.5 373.32,-224.23 422,-219 438.25,-217.25 456.07,-213.97 470.98,-210.83"/>
<polygon fill="#ffffff" stroke="#ffffff" points="275.15,-221.95 265.14,-225.41 275.13,-228.95 275.15,-221.95"/>
</g>
<!-- Relation of Equivalence&#45;&gt;Principle of division -->
<g id="edge17" class="edge">
<title>Relation of Equivalence&#45;&gt;Principle of division</title>
<path fill="none" stroke="#ffffff" d="M262.44,-205.96C223.37,-206.78 176.3,-207.99 134,-210 131.44,-210.12 128.84,-210.26 126.2,-210.4"/>
<polygon fill="#ffffff" stroke="#ffffff" points="262.79,-209.46 272.71,-205.75 262.64,-202.46 262.79,-209.46"/>
</g>
<!-- Relation of Equivalence&#45;&gt;Class of equivalence -->
<g id="edge10" class="edge">
<title>Relation of Equivalence&#45;&gt;Class of equivalence</title>
<path fill="none" stroke="#b75867" d="M272.72,-214.86C272.57,-214.88 272.42,-214.9 272.27,-214.92"/>
<polygon fill="#b75867" stroke="#b75867" points="274.82,-211.04 265.39,-215.86 275.77,-217.97 274.82,-211.04"/>
</g>
<!-- Relation of Equivalence&#45;&gt;Set -->
<g id="edge11" class="edge">
<title>Relation of Equivalence&#45;&gt;Set</title>
<path fill="none" stroke="#b75867" d="M393.01,-222.1C403.24,-227.54 413.58,-234.18 422,-242 426.97,-246.62 424.61,-250.88 430,-255 440.99,-263.41 455.13,-268.61 468.14,-271.82"/>
<polygon fill="#b75867" stroke="#b75867" points="467.73,-275.32 478.24,-274 469.2,-268.47 467.73,-275.32"/>
</g>
<!-- Relation of Equivalence&#45;&gt;Partition -->
<g id="edge12" class="edge">
<title>Relation of Equivalence&#45;&gt;Partition</title>
<path fill="none" stroke="#b75867" d="M422.39,-221.05C436.29,-224.26 450.37,-227.51 462.85,-230.39"/>
<polygon fill="#b75867" stroke="#b75867" points="462.39,-233.87 472.92,-232.71 463.96,-227.05 462.39,-233.87"/>
</g>
<!-- Relation of Equivalence&#45;&gt;Relations -->
<g id="edge18" class="edge">
<title>Relation of Equivalence&#45;&gt;Relations</title>
<path fill="none" stroke="#ffffff" d="M432.76,-203.46C446.29,-203.37 459.57,-203.29 470.96,-203.22"/>
<polygon fill="#ffffff" stroke="#ffffff" points="432.37,-199.96 422.39,-203.53 432.41,-206.96 432.37,-199.96"/>
</g>
<!-- Transitive Relation -->
<g id="node8" class="node">
<title>Transitive Relation</title>
<g id="a_node8"><a xlink:href="../Transitive Relation.html" xlink:title="Transitive Relation" target="_parent">
<path fill="#273434" stroke="#b75867" d="M554,-110C554,-110 457,-110 457,-110 451,-110 445,-104 445,-98 445,-98 445,-86 445,-86 445,-80 451,-74 457,-74 457,-74 554,-74 554,-74 560,-74 566,-80 566,-86 566,-86 566,-98 566,-98 566,-104 560,-110 554,-110"/>
<text text-anchor="middle" x="505.5" y="-88.9" font-family="sans" font-size="12.00" fill="#c4c7c7">Transitive Relation</text>
</a>
</g>
</g>
<!-- Relation of Equivalence&#45;&gt;Transitive Relation -->
<g id="edge13" class="edge">
<title>Relation of Equivalence&#45;&gt;Transitive Relation</title>
<path fill="none" stroke="#b75867" d="M360.39,-185.72C374.59,-165.32 400.19,-132.73 430,-114 431.71,-112.92 433.48,-111.9 435.29,-110.92"/>
<polygon fill="#b75867" stroke="#b75867" points="437.15,-113.91 444.64,-106.43 434.11,-107.6 437.15,-113.91"/>
</g>
<!-- Symmetric Relation -->
<g id="node9" class="node">
<title>Symmetric Relation</title>
<g id="a_node9"><a xlink:href="../Symmetric Relation.html" xlink:title="Symmetric Relation" target="_parent">
<path fill="#273434" stroke="#b75867" d="M557.5,-73C557.5,-73 453.5,-73 453.5,-73 447.5,-73 441.5,-67 441.5,-61 441.5,-61 441.5,-49 441.5,-49 441.5,-43 447.5,-37 453.5,-37 453.5,-37 557.5,-37 557.5,-37 563.5,-37 569.5,-43 569.5,-49 569.5,-49 569.5,-61 569.5,-61 569.5,-67 563.5,-73 557.5,-73"/>
<text text-anchor="middle" x="505.5" y="-51.9" font-family="sans" font-size="12.00" fill="#c4c7c7">Symmetric Relation</text>
</a>
</g>
</g>
<!-- Relation of Equivalence&#45;&gt;Symmetric Relation -->
<g id="edge14" class="edge">
<title>Relation of Equivalence&#45;&gt;Symmetric Relation</title>
<path fill="none" stroke="#b75867" d="M364.59,-185.86C381.03,-166.52 406.28,-134.42 422,-103 427.41,-92.19 421.4,-85.5 430,-77 430.94,-76.07 431.93,-75.17 432.94,-74.32"/>
<polygon fill="#b75867" stroke="#b75867" points="435.12,-77.06 441.3,-68.46 431.1,-71.33 435.12,-77.06"/>
</g>
<!-- Reflexive Relation -->
<g id="node10" class="node">
<title>Reflexive Relation</title>
<g id="a_node10"><a xlink:href="../Reflexive Relation.html" xlink:title="Reflexive Relation" target="_parent">
<path fill="#273434" stroke="#b75867" d="M552,-184C552,-184 459,-184 459,-184 453,-184 447,-178 447,-172 447,-172 447,-160 447,-160 447,-154 453,-148 459,-148 459,-148 552,-148 552,-148 558,-148 564,-154 564,-160 564,-160 564,-172 564,-172 564,-178 558,-184 552,-184"/>
<text text-anchor="middle" x="505.5" y="-162.9" font-family="sans" font-size="12.00" fill="#c4c7c7">Reflexive Relation</text>
</a>
</g>
</g>
<!-- Relation of Equivalence&#45;&gt;Reflexive Relation -->
<g id="edge15" class="edge">
<title>Relation of Equivalence&#45;&gt;Reflexive Relation</title>
<path fill="none" stroke="#b75867" d="M422.39,-186C427.25,-184.82 432.14,-183.63 436.97,-182.45"/>
<polygon fill="#b75867" stroke="#b75867" points="437.89,-185.83 446.78,-180.06 436.23,-179.03 437.89,-185.83"/>
</g>
<!-- Relation -->
<g id="node11" class="node">
<title>Relation</title>
<g id="a_node11"><a xlink:href="../Relation.html" xlink:title="Relation" target="_parent">
<path fill="#273434" stroke="#b75867" d="M525.5,-147C525.5,-147 485.5,-147 485.5,-147 479.5,-147 473.5,-141 473.5,-135 473.5,-135 473.5,-123 473.5,-123 473.5,-117 479.5,-111 485.5,-111 485.5,-111 525.5,-111 525.5,-111 531.5,-111 537.5,-117 537.5,-123 537.5,-123 537.5,-135 537.5,-135 537.5,-141 531.5,-147 525.5,-147"/>
<text text-anchor="middle" x="505.5" y="-125.9" font-family="sans" font-size="12.00" fill="#c4c7c7">Relation</text>
</a>
</g>
</g>
<!-- Relation of Equivalence&#45;&gt;Relation -->
<g id="edge16" class="edge">
<title>Relation of Equivalence&#45;&gt;Relation</title>
<path fill="none" stroke="#b75867" d="M372.39,-185.81C388.09,-174.54 409.46,-160.47 430,-151 440.5,-146.16 452.33,-142.09 463.41,-138.83"/>
<polygon fill="#b75867" stroke="#b75867" points="464.64,-142.12 473.32,-136.05 462.75,-135.38 464.64,-142.12"/>
</g>
<!-- Set&#45;&gt;Principle of division -->
<g id="edge24" class="edge">
<title>Set&#45;&gt;Principle of division</title>
<path fill="none" stroke="#ffffff" d="M468.42,-277.84C401.48,-277.96 253.94,-273.62 134,-244 122.51,-241.16 110.44,-236.73 99.63,-232.14"/>
<polygon fill="#ffffff" stroke="#ffffff" points="468.47,-281.34 478.45,-277.79 468.44,-274.34 468.47,-281.34"/>
</g>
<!-- Set&#45;&gt;Class of equivalence -->
<g id="edge22" class="edge">
<title>Set&#45;&gt;Class of equivalence</title>
<path fill="none" stroke="#ffffff" d="M468.47,-270.65C455.83,-267.3 441.84,-262.51 430,-256 425.86,-253.72 426.33,-250.9 422,-249 360.99,-222.27 339.21,-240.21 273,-233 270.48,-232.73 267.92,-232.45 265.32,-232.16"/>
<polygon fill="#ffffff" stroke="#ffffff" points="467.7,-274.07 478.24,-273.04 469.36,-267.27 467.7,-274.07"/>
</g>
<!-- Set&#45;&gt;Relation of Equivalence -->
<g id="edge23" class="edge">
<title>Set&#45;&gt;Relation of Equivalence</title>
<path fill="none" stroke="#ffffff" d="M468.14,-272.76C455.13,-269.61 440.99,-264.41 430,-256 424.61,-251.88 426.97,-247.62 422,-243 413.05,-234.69 401.94,-227.71 391.09,-222.06"/>
<polygon fill="#ffffff" stroke="#ffffff" points="467.74,-276.25 478.24,-274.87 469.17,-269.4 467.74,-276.25"/>
</g>
<!-- Recurrent Equations -->
<g id="node12" class="node">
<title>Recurrent Equations</title>
<g id="a_node12"><a xlink:href="../Recurrent Equations.html" xlink:title="Recurrent Equations" target="_parent">
<path fill="none" stroke="#b75867" d="M750,-295C750,-295 643,-295 643,-295 637,-295 631,-289 631,-283 631,-283 631,-271 631,-271 631,-265 637,-259 643,-259 643,-259 750,-259 750,-259 756,-259 762,-265 762,-271 762,-271 762,-283 762,-283 762,-289 756,-295 750,-295"/>
<text text-anchor="middle" x="696.5" y="-273.9" font-family="sans" font-size="12.00" fill="#c4c7c7">Recurrent Equations</text>
</a>
</g>
</g>
<!-- Set&#45;&gt;Recurrent Equations -->
<g id="edge19" class="edge">
<title>Set&#45;&gt;Recurrent Equations</title>
<path fill="none" stroke="#ffffff" d="M542.87,-277C567.74,-277 601.41,-277 630.8,-277"/>
<polygon fill="#ffffff" stroke="#ffffff" points="542.78,-273.5 532.78,-277 542.78,-280.5 542.78,-273.5"/>
</g>
<!-- Reflexive Closure -->
<g id="node13" class="node">
<title>Reflexive Closure</title>
<g id="a_node13"><a xlink:href="../Reflexive Closure.html" xlink:title="Reflexive Closure" target="_parent">
<path fill="none" stroke="#b75867" d="M741,-258C741,-258 652,-258 652,-258 646,-258 640,-252 640,-246 640,-246 640,-234 640,-234 640,-228 646,-222 652,-222 652,-222 741,-222 741,-222 747,-222 753,-228 753,-234 753,-234 753,-246 753,-246 753,-252 747,-258 741,-258"/>
<text text-anchor="middle" x="696.5" y="-236.9" font-family="sans" font-size="12.00" fill="#c4c7c7">Reflexive Closure</text>
</a>
</g>
</g>
<!-- Set&#45;&gt;Reflexive Closure -->
<g id="edge20" class="edge">
<title>Set&#45;&gt;Reflexive Closure</title>
<path fill="none" stroke="#ffffff" d="M542.76,-269.9C570.27,-264.52 608.58,-257.02 639.94,-250.88"/>
<polygon fill="#ffffff" stroke="#ffffff" points="541.92,-266.5 532.78,-271.86 543.27,-273.37 541.92,-266.5"/>
</g>
<!-- Symmetric Closure -->
<g id="node14" class="node">
<title>Symmetric Closure</title>
<g id="a_node14"><a xlink:href="../Symmetric Closure.html" xlink:title="Symmetric Closure" target="_parent">
<path fill="none" stroke="#b75867" d="M746,-369C746,-369 647,-369 647,-369 641,-369 635,-363 635,-357 635,-357 635,-345 635,-345 635,-339 641,-333 647,-333 647,-333 746,-333 746,-333 752,-333 758,-339 758,-345 758,-345 758,-357 758,-357 758,-363 752,-369 746,-369"/>
<text text-anchor="middle" x="696.5" y="-347.9" font-family="sans" font-size="12.00" fill="#c4c7c7">Symmetric Closure</text>
</a>
</g>
</g>
<!-- Set&#45;&gt;Symmetric Closure -->
<g id="edge21" class="edge">
<title>Set&#45;&gt;Symmetric Closure</title>
<path fill="none" stroke="#ffffff" d="M538.42,-300.9C553.15,-310.91 571.28,-321.86 589,-329 603.45,-334.82 619.64,-339.18 634.96,-342.4"/>
<polygon fill="#ffffff" stroke="#ffffff" points="540.37,-297.99 530.16,-295.14 536.36,-303.73 540.37,-297.99"/>
</g>
<!-- Principle of products -->
<g id="node15" class="node">
<title>Principle of products</title>
<g id="a_node15"><a xlink:href="../Principle of products.html" xlink:title="Principle of products" target="_parent">
<path fill="none" stroke="#b75867" d="M751.5,-184C751.5,-184 641.5,-184 641.5,-184 635.5,-184 629.5,-178 629.5,-172 629.5,-172 629.5,-160 629.5,-160 629.5,-154 635.5,-148 641.5,-148 641.5,-148 751.5,-148 751.5,-148 757.5,-148 763.5,-154 763.5,-160 763.5,-160 763.5,-172 763.5,-172 763.5,-178 757.5,-184 751.5,-184"/>
<text text-anchor="middle" x="696.5" y="-162.9" font-family="sans" font-size="12.00" fill="#c4c7c7">Principle of products</text>
</a>
</g>
</g>
<!-- Set&#45;&gt;Principle of products -->
<g id="edge25" class="edge">
<title>Set&#45;&gt;Principle of products</title>
<path fill="none" stroke="#ffffff" d="M542.74,-274.65C556.7,-271.85 571.55,-266.19 581,-255 600.35,-232.09 568.71,-210.09 589,-188 599.47,-176.6 614.16,-170.24 629.3,-166.87"/>
<polygon fill="#ffffff" stroke="#ffffff" points="542.15,-271.2 532.82,-276.22 543.25,-278.11 542.15,-271.2"/>
</g>
<!-- Dirichlet principle -->
<g id="node16" class="node">
<title>Dirichlet principle</title>
<g id="a_node16"><a xlink:href="../Dirichlet principle.html" xlink:title="Dirichlet principle" target="_parent">
<path fill="none" stroke="#b75867" d="M742.5,-147C742.5,-147 650.5,-147 650.5,-147 644.5,-147 638.5,-141 638.5,-135 638.5,-135 638.5,-123 638.5,-123 638.5,-117 644.5,-111 650.5,-111 650.5,-111 742.5,-111 742.5,-111 748.5,-111 754.5,-117 754.5,-123 754.5,-123 754.5,-135 754.5,-135 754.5,-141 748.5,-147 742.5,-147"/>
<text text-anchor="middle" x="696.5" y="-125.9" font-family="sans" font-size="12.00" fill="#c4c7c7">Dirichlet principle</text>
</a>
</g>
</g>
<!-- Set&#45;&gt;Dirichlet principle -->
<g id="edge26" class="edge">
<title>Set&#45;&gt;Dirichlet principle</title>
<path fill="none" stroke="#ffffff" d="M542.67,-274.91C556.76,-272.16 571.72,-266.47 581,-255 595.58,-236.98 573.68,-168.4 589,-151 601.35,-136.97 620.08,-130.5 638.4,-127.85"/>
<polygon fill="#ffffff" stroke="#ffffff" points="542.02,-271.47 532.66,-276.43 543.07,-278.39 542.02,-271.47"/>
</g>
<!-- Principle of inclusion and exclusion -->
<g id="node17" class="node">
<title>Principle of inclusion and exclusion</title>
<g id="a_node17"><a xlink:href="../Principle of inclusion and exclusion.html" xlink:title="Principle of inclusion and exclusion" target="_parent">
<path fill="none" stroke="#b75867" d="M792,-110C792,-110 601,-110 601,-110 595,-110 589,-104 589,-98 589,-98 589,-86 589,-86 589,-80 595,-74 601,-74 601,-74 792,-74 792,-74 798,-74 804,-80 804,-86 804,-86 804,-98 804,-98 804,-104 798,-110 792,-110"/>
<text text-anchor="middle" x="696.5" y="-88.9" font-family="sans" font-size="12.00" fill="#c4c7c7">Principle of inclusion and exclusion</text>
</a>
</g>
</g>
<!-- Set&#45;&gt;Principle of inclusion and exclusion -->
<g id="edge27" class="edge">
<title>Set&#45;&gt;Principle of inclusion and exclusion</title>
<path fill="none" stroke="#ffffff" d="M542.78,-275C556.89,-272.26 571.83,-266.57 581,-255 600.49,-230.4 568.5,-137.76 589,-114 590.11,-112.71 591.27,-111.49 592.49,-110.33"/>
<polygon fill="#ffffff" stroke="#ffffff" points="542.12,-271.56 532.75,-276.51 543.16,-278.48 542.12,-271.56"/>
</g>
<!-- Differential Analysis -->
<g id="node18" class="node">
<title>Differential Analysis</title>
<g id="a_node18"><a xlink:href="../Differential Analysis.html" xlink:title="Differential Analysis" target="_parent">
<path fill="none" stroke="#b75867" d="M748,-332C748,-332 645,-332 645,-332 639,-332 633,-326 633,-320 633,-320 633,-308 633,-308 633,-302 639,-296 645,-296 645,-296 748,-296 748,-296 754,-296 760,-302 760,-308 760,-308 760,-320 760,-320 760,-326 754,-332 748,-332"/>
<text text-anchor="middle" x="696.5" y="-310.9" font-family="sans" font-size="12.00" fill="#c4c7c7">Differential Analysis</text>
</a>
</g>
</g>
<!-- Set&#45;&gt;Differential Analysis -->
<g id="edge28" class="edge">
<title>Set&#45;&gt;Differential Analysis</title>
<path fill="none" stroke="#ffffff" d="M542.74,-284.09C568.2,-289.08 602.91,-295.87 632.81,-301.73"/>
<polygon fill="#ffffff" stroke="#ffffff" points="543.27,-280.63 532.78,-282.14 541.92,-287.5 543.27,-280.63"/>
</g>
<!-- Principle of partitions -->
<g id="node19" class="node">
<title>Principle of partitions</title>
<g id="a_node19"><a xlink:href="../Principle of partitions.html" xlink:title="Principle of partitions" target="_parent">
<path fill="none" stroke="#b75867" d="M753,-73C753,-73 640,-73 640,-73 634,-73 628,-67 628,-61 628,-61 628,-49 628,-49 628,-43 634,-37 640,-37 640,-37 753,-37 753,-37 759,-37 765,-43 765,-49 765,-49 765,-61 765,-61 765,-67 759,-73 753,-73"/>
<text text-anchor="middle" x="696.5" y="-51.9" font-family="sans" font-size="12.00" fill="#c4c7c7">Principle of partitions</text>
</a>
</g>
</g>
<!-- Set&#45;&gt;Principle of partitions -->
<g id="edge29" class="edge">
<title>Set&#45;&gt;Principle of partitions</title>
<path fill="none" stroke="#ffffff" d="M542.85,-275.05C556.97,-272.33 571.9,-266.62 581,-255 593.21,-239.41 576.16,-92.07 589,-77 598.86,-65.43 613.05,-58.97 627.87,-55.54"/>
<polygon fill="#ffffff" stroke="#ffffff" points="542.18,-271.61 532.81,-276.55 543.22,-278.53 542.18,-271.61"/>
</g>
<!-- Principle of the bijection -->
<g id="node20" class="node">
<title>Principle of the bijection</title>
<g id="a_node20"><a xlink:href="../Principle of the bijection.html" xlink:title="Principle of the bijection" target="_parent">
<path fill="none" stroke="#b75867" d="M761.5,-221C761.5,-221 631.5,-221 631.5,-221 625.5,-221 619.5,-215 619.5,-209 619.5,-209 619.5,-197 619.5,-197 619.5,-191 625.5,-185 631.5,-185 631.5,-185 761.5,-185 761.5,-185 767.5,-185 773.5,-191 773.5,-197 773.5,-197 773.5,-209 773.5,-209 773.5,-215 767.5,-221 761.5,-221"/>
<text text-anchor="middle" x="696.5" y="-199.9" font-family="sans" font-size="12.00" fill="#c4c7c7">Principle of the bijection</text>
</a>
</g>
</g>
<!-- Set&#45;&gt;Principle of the bijection -->
<g id="edge30" class="edge">
<title>Set&#45;&gt;Principle of the bijection</title>
<path fill="none" stroke="#ffffff" d="M542.69,-273.81C556.33,-270.85 570.95,-265.32 581,-255 590.63,-245.11 578.97,-234.48 589,-225 597.51,-216.96 608.14,-211.53 619.37,-207.91"/>
<polygon fill="#ffffff" stroke="#ffffff" points="541.78,-270.41 532.54,-275.59 543,-277.3 541.78,-270.41"/>
</g>
<!-- Combinatoric principles&#45;&gt;Principle of division -->
<g id="edge32" class="edge">
<title>Combinatoric principles&#45;&gt;Principle of division</title>
<path fill="none" stroke="#b75867" d="M443.65,-36.1C439,-37.68 434.41,-39.31 430,-41 310.13,-86.87 175.25,-155.72 107.62,-191.15"/>
<polygon fill="#b75867" stroke="#b75867" points="105.76,-188.17 98.53,-195.92 109.01,-194.37 105.76,-188.17"/>
</g>
<!-- Combinatoric principles&#45;&gt;Principle of products -->
<g id="edge34" class="edge">
<title>Combinatoric principles&#45;&gt;Principle of products</title>
<path fill="none" stroke="#b75867" d="M577.46,-36.15C578.71,-37.36 579.9,-38.64 581,-40 595.58,-58.02 573.68,-126.6 589,-144 597.04,-153.13 607.78,-159.06 619.36,-162.82"/>
<polygon fill="#b75867" stroke="#b75867" points="618.67,-166.26 629.24,-165.49 620.5,-159.5 618.67,-166.26"/>
</g>
<!-- Combinatoric principles&#45;&gt;Dirichlet principle -->
<g id="edge36" class="edge">
<title>Combinatoric principles&#45;&gt;Dirichlet principle</title>
<path fill="none" stroke="#b75867" d="M577.39,-36.21C578.66,-37.4 579.87,-38.66 581,-40 600.35,-62.91 568.71,-84.91 589,-107 599.22,-118.13 613.46,-124.45 628.21,-127.88"/>
<polygon fill="#b75867" stroke="#b75867" points="627.98,-131.4 638.45,-129.82 629.28,-124.52 627.98,-131.4"/>
</g>
<!-- Combinatoric principles&#45;&gt;Principle of inclusion and exclusion -->
<g id="edge31" class="edge">
<title>Combinatoric principles&#45;&gt;Principle of inclusion and exclusion</title>
<path fill="none" stroke="#b75867" d="M576.82,-36.18C578.29,-37.38 579.68,-38.65 581,-40 588.6,-47.8 582.94,-56.07 587.25,-65.68"/>
<polygon fill="#b75867" stroke="#b75867" points="584.47,-67.81 593.28,-73.69 590.06,-63.6 584.47,-67.81"/>
</g>
<!-- Combinatoric principles&#45;&gt;Principle of partitions -->
<g id="edge35" class="edge">
<title>Combinatoric principles&#45;&gt;Principle of partitions</title>
<path fill="none" stroke="#b75867" d="M581.2,-32.62C593.21,-34.97 605.67,-37.41 617.75,-39.78"/>
<polygon fill="#b75867" stroke="#b75867" points="617.3,-43.26 627.79,-41.74 618.65,-36.39 617.3,-43.26"/>
</g>
<!-- Combinatoric principles&#45;&gt;Principle of the bijection -->
<g id="edge33" class="edge">
<title>Combinatoric principles&#45;&gt;Principle of the bijection</title>
<path fill="none" stroke="#b75867" d="M577.5,-36.12C578.74,-37.33 579.91,-38.63 581,-40 600.49,-64.6 568.5,-157.24 589,-181 594.82,-187.75 602.12,-192.76 610.16,-196.44"/>
<polygon fill="#b75867" stroke="#b75867" points="608.91,-199.71 619.5,-200.05 611.43,-193.18 608.91,-199.71"/>
</g>
<!-- Combinatorics -->
<g id="node21" class="node">
<title>Combinatorics</title>
<g id="a_node21"><a xlink:href="../Combinatorics.html" xlink:title="Combinatorics" target="_parent">
<path fill="none" stroke="#b75867" d="M733.5,-36C733.5,-36 659.5,-36 659.5,-36 653.5,-36 647.5,-30 647.5,-24 647.5,-24 647.5,-12 647.5,-12 647.5,-6 653.5,0 659.5,0 659.5,0 733.5,0 733.5,0 739.5,0 745.5,-6 745.5,-12 745.5,-12 745.5,-24 745.5,-24 745.5,-30 739.5,-36 733.5,-36"/>
<text text-anchor="middle" x="696.5" y="-14.9" font-family="sans" font-size="12.00" fill="#c4c7c7">Combinatorics</text>
</a>
</g>
</g>
<!-- Combinatoric principles&#45;&gt;Combinatorics -->
<g id="edge37" class="edge">
<title>Combinatoric principles&#45;&gt;Combinatorics</title>
<path fill="none" stroke="#ffffff" d="M591.21,-18C610.48,-18 630.29,-18 647.41,-18"/>
<polygon fill="#ffffff" stroke="#ffffff" points="591.2,-14.5 581.2,-18 591.2,-21.5 591.2,-14.5"/>
</g>
</g>
</svg>
