<?xml version="1.0" encoding="UTF-8" standalone="no"?>
<!DOCTYPE svg PUBLIC "-//W3C//DTD SVG 1.1//EN"
 "http://www.w3.org/Graphics/SVG/1.1/DTD/svg11.dtd">
<!-- Generated by graphviz version 2.44.0 (0)
 -->
<!-- Title: 2^N is not countable Pages: 1 -->
<svg width="141pt" height="44pt"
 viewBox="0.00 0.00 141.00 44.00" xmlns="http://www.w3.org/2000/svg" xmlns:xlink="http://www.w3.org/1999/xlink">
<g id="graph0" class="graph" transform="scale(1 1) rotate(0) translate(4 40)">
<title>2^N is not countable</title>
<polygon fill="#132020" stroke="transparent" points="-4,4 -4,-40 137,-40 137,4 -4,4"/>
<!-- 2^N is not countable -->
<g id="node1" class="node">
<title>2^N is not countable</title>
<g id="a_node1"><a xlink:href="../2^N is not countable.html" xlink:title="2^N is not countable" target="_parent">
<path fill="#273434" stroke="#b75867" d="M121,-36C121,-36 12,-36 12,-36 6,-36 0,-30 0,-24 0,-24 0,-12 0,-12 0,-6 6,0 12,0 12,0 121,0 121,0 127,0 133,-6 133,-12 133,-12 133,-24 133,-24 133,-30 127,-36 121,-36"/>
<text text-anchor="middle" x="66.5" y="-14.9" font-family="sans" font-size="12.00" fill="#c4c7c7">2^N is not countable</text>
</a>
</g>
</g>
</g>
</svg>
