<?xml version="1.0" encoding="UTF-8" standalone="no"?>
<!DOCTYPE svg PUBLIC "-//W3C//DTD SVG 1.1//EN"
 "http://www.w3.org/Graphics/SVG/1.1/DTD/svg11.dtd">
<!-- Generated by graphviz version 2.44.0 (0)
 -->
<!-- Title: Anti&#45;reflexive relation Pages: 1 -->
<svg width="556pt" height="562pt"
 viewBox="0.00 0.00 556.00 562.00" xmlns="http://www.w3.org/2000/svg" xmlns:xlink="http://www.w3.org/1999/xlink">
<g id="graph0" class="graph" transform="scale(1 1) rotate(0) translate(4 558)">
<title>Anti&#45;reflexive relation</title>
<polygon fill="#132020" stroke="transparent" points="-4,4 -4,-558 552,-558 552,4 -4,4"/>
<!-- Anti&#45;reflexive relation -->
<g id="node1" class="node">
<title>Anti&#45;reflexive relation</title>
<g id="a_node1"><a xlink:href="../Anti-reflexive relation.html" xlink:title="Anti&#45;reflexive relation" target="_parent">
<path fill="#273434" stroke="#b75867" d="M126,-283C126,-283 12,-283 12,-283 6,-283 0,-277 0,-271 0,-271 0,-259 0,-259 0,-253 6,-247 12,-247 12,-247 126,-247 126,-247 132,-247 138,-253 138,-259 138,-259 138,-271 138,-271 138,-277 132,-283 126,-283"/>
<text text-anchor="middle" x="69" y="-261.9" font-family="sans" font-size="12.00" fill="#c4c7c7">Anti&#45;reflexive relation</text>
</a>
</g>
</g>
<!-- Relation -->
<g id="node2" class="node">
<title>Relation</title>
<g id="a_node2"><a xlink:href="../Relation.html" xlink:title="Relation" target="_parent">
<path fill="#273434" stroke="#b75867" d="M198,-273C198,-273 158,-273 158,-273 152,-273 146,-267 146,-261 146,-261 146,-249 146,-249 146,-243 152,-237 158,-237 158,-237 198,-237 198,-237 204,-237 210,-243 210,-249 210,-249 210,-261 210,-261 210,-267 204,-273 198,-273"/>
<text text-anchor="middle" x="178" y="-251.9" font-family="sans" font-size="12.00" fill="#c4c7c7">Relation</text>
</a>
</g>
</g>
<!-- Anti&#45;reflexive relation&#45;&gt;Relation -->
<g id="edge1" class="edge">
<title>Anti&#45;reflexive relation&#45;&gt;Relation</title>
<path fill="none" stroke="#b75867" d="M138.07,-258.64C138.23,-258.62 138.4,-258.61 138.56,-258.59"/>
<polygon fill="#b75867" stroke="#b75867" points="136.17,-262.33 145.8,-257.92 135.52,-255.36 136.17,-262.33"/>
</g>
<!-- Relations -->
<g id="node3" class="node">
<title>Relations</title>
<g id="a_node3"><a xlink:href="../Relations.html" xlink:title="Relations" target="_parent">
<path fill="none" stroke="#b75867" d="M300,-295C300,-295 255,-295 255,-295 249,-295 243,-289 243,-283 243,-283 243,-271 243,-271 243,-265 249,-259 255,-259 255,-259 300,-259 300,-259 306,-259 312,-265 312,-271 312,-271 312,-283 312,-283 312,-289 306,-295 300,-295"/>
<text text-anchor="middle" x="277.5" y="-273.9" font-family="sans" font-size="12.00" fill="#c4c7c7">Relations</text>
</a>
</g>
</g>
<!-- Anti&#45;reflexive relation&#45;&gt;Relations -->
<g id="edge2" class="edge">
<title>Anti&#45;reflexive relation&#45;&gt;Relations</title>
<path fill="none" stroke="#ffffff" d="M148.75,-271.14C185.32,-273.34 218.85,-274.8 242.96,-275.76"/>
<polygon fill="#ffffff" stroke="#ffffff" points="148.55,-267.62 138.35,-270.5 148.12,-274.61 148.55,-267.62"/>
</g>
<!-- Relation&#45;&gt;Anti&#45;reflexive relation -->
<g id="edge16" class="edge">
<title>Relation&#45;&gt;Anti&#45;reflexive relation</title>
<path fill="none" stroke="#ffffff" d="M138.56,-259.32C138.4,-259.33 138.23,-259.35 138.07,-259.36"/>
<polygon fill="#ffffff" stroke="#ffffff" points="136.19,-263.07 145.8,-258.6 135.51,-256.1 136.19,-263.07"/>
</g>
<!-- Relation&#45;&gt;Relations -->
<g id="edge11" class="edge">
<title>Relation&#45;&gt;Relations</title>
<path fill="none" stroke="#ffffff" d="M219.98,-264.25C227.64,-265.98 235.57,-267.77 242.98,-269.44"/>
<polygon fill="#ffffff" stroke="#ffffff" points="220.64,-260.81 210.12,-262.02 219.1,-267.64 220.64,-260.81"/>
</g>
<!-- Descartes Product -->
<g id="node4" class="node">
<title>Descartes Product</title>
<g id="a_node4"><a xlink:href="../Descartes Product.html" xlink:title="Descartes Product" target="_parent">
<path fill="#273434" stroke="#b75867" d="M325,-237C325,-237 230,-237 230,-237 224,-237 218,-231 218,-225 218,-225 218,-213 218,-213 218,-207 224,-201 230,-201 230,-201 325,-201 325,-201 331,-201 337,-207 337,-213 337,-213 337,-225 337,-225 337,-231 331,-237 325,-237"/>
<text text-anchor="middle" x="277.5" y="-215.9" font-family="sans" font-size="12.00" fill="#c4c7c7">Descartes Product</text>
</a>
</g>
</g>
<!-- Relation&#45;&gt;Descartes Product -->
<g id="edge3" class="edge">
<title>Relation&#45;&gt;Descartes Product</title>
<path fill="none" stroke="#b75867" d="M210.12,-243.51C212.73,-242.55 215.42,-241.55 218.15,-240.54"/>
<polygon fill="#b75867" stroke="#b75867" points="219.38,-243.82 227.55,-237.07 216.96,-237.25 219.38,-243.82"/>
</g>
<!-- Anti&#45;symmetric Relation -->
<g id="node5" class="node">
<title>Anti&#45;symmetric Relation</title>
<g id="a_node5"><a xlink:href="../Anti-symmetric Relation.html" xlink:title="Anti&#45;symmetric Relation" target="_parent">
<path fill="none" stroke="#b75867" d="M510.5,-554C510.5,-554 382.5,-554 382.5,-554 376.5,-554 370.5,-548 370.5,-542 370.5,-542 370.5,-530 370.5,-530 370.5,-524 376.5,-518 382.5,-518 382.5,-518 510.5,-518 510.5,-518 516.5,-518 522.5,-524 522.5,-530 522.5,-530 522.5,-542 522.5,-542 522.5,-548 516.5,-554 510.5,-554"/>
<text text-anchor="middle" x="446.5" y="-532.9" font-family="sans" font-size="12.00" fill="#c4c7c7">Anti&#45;symmetric Relation</text>
</a>
</g>
</g>
<!-- Relation&#45;&gt;Anti&#45;symmetric Relation -->
<g id="edge4" class="edge">
<title>Relation&#45;&gt;Anti&#45;symmetric Relation</title>
<path fill="none" stroke="#ffffff" d="M178.72,-283.42C179.71,-320.94 186.28,-387.55 218,-433 253.05,-483.22 318.68,-509.38 370.48,-522.74"/>
<polygon fill="#ffffff" stroke="#ffffff" points="182.22,-283.15 178.57,-273.2 175.22,-283.25 182.22,-283.15"/>
</g>
<!-- Chain -->
<g id="node6" class="node">
<title>Chain</title>
<g id="a_node6"><a xlink:href="../Chain.html" xlink:title="Chain" target="_parent">
<path fill="none" stroke="#b75867" d="M461.5,-517C461.5,-517 431.5,-517 431.5,-517 425.5,-517 419.5,-511 419.5,-505 419.5,-505 419.5,-493 419.5,-493 419.5,-487 425.5,-481 431.5,-481 431.5,-481 461.5,-481 461.5,-481 467.5,-481 473.5,-487 473.5,-493 473.5,-493 473.5,-505 473.5,-505 473.5,-511 467.5,-517 461.5,-517"/>
<text text-anchor="middle" x="446.5" y="-495.9" font-family="sans" font-size="12.00" fill="#c4c7c7">Chain</text>
</a>
</g>
</g>
<!-- Relation&#45;&gt;Chain -->
<g id="edge5" class="edge">
<title>Relation&#45;&gt;Chain</title>
<path fill="none" stroke="#ffffff" d="M181.22,-283.44C184.8,-313.25 194.06,-360.23 218,-393 257.92,-447.65 282.67,-450.65 345,-477 369.02,-487.15 398.33,-492.88 419.08,-495.93"/>
<polygon fill="#ffffff" stroke="#ffffff" points="184.68,-282.87 180.15,-273.29 177.72,-283.6 184.68,-282.87"/>
</g>
<!-- Reflexive Closure -->
<g id="node7" class="node">
<title>Reflexive Closure</title>
<g id="a_node7"><a xlink:href="../Reflexive Closure.html" xlink:title="Reflexive Closure" target="_parent">
<path fill="none" stroke="#b75867" d="M491,-480C491,-480 402,-480 402,-480 396,-480 390,-474 390,-468 390,-468 390,-456 390,-456 390,-450 396,-444 402,-444 402,-444 491,-444 491,-444 497,-444 503,-450 503,-456 503,-456 503,-468 503,-468 503,-474 497,-480 491,-480"/>
<text text-anchor="middle" x="446.5" y="-458.9" font-family="sans" font-size="12.00" fill="#c4c7c7">Reflexive Closure</text>
</a>
</g>
</g>
<!-- Relation&#45;&gt;Reflexive Closure -->
<g id="edge6" class="edge">
<title>Relation&#45;&gt;Reflexive Closure</title>
<path fill="none" stroke="#ffffff" d="M185.91,-282.86C191.93,-303.04 202.22,-330.16 218,-350 261.06,-404.14 281.72,-412.04 345,-440 359.05,-446.21 375,-450.73 389.99,-453.99"/>
<polygon fill="#ffffff" stroke="#ffffff" points="189.22,-281.69 183.14,-273.01 182.48,-283.59 189.22,-281.69"/>
</g>
<!-- Symmetric Closure -->
<g id="node8" class="node">
<title>Symmetric Closure</title>
<g id="a_node8"><a xlink:href="../Symmetric Closure.html" xlink:title="Symmetric Closure" target="_parent">
<path fill="none" stroke="#b75867" d="M496,-443C496,-443 397,-443 397,-443 391,-443 385,-437 385,-431 385,-431 385,-419 385,-419 385,-413 391,-407 397,-407 397,-407 496,-407 496,-407 502,-407 508,-413 508,-419 508,-419 508,-431 508,-431 508,-437 502,-443 496,-443"/>
<text text-anchor="middle" x="446.5" y="-421.9" font-family="sans" font-size="12.00" fill="#c4c7c7">Symmetric Closure</text>
</a>
</g>
</g>
<!-- Relation&#45;&gt;Symmetric Closure -->
<g id="edge7" class="edge">
<title>Relation&#45;&gt;Symmetric Closure</title>
<path fill="none" stroke="#ffffff" d="M200.29,-281.28C229.27,-315.14 284.5,-373.19 345,-403 357.34,-409.08 371.34,-413.49 384.9,-416.69"/>
<polygon fill="#ffffff" stroke="#ffffff" points="202.62,-278.62 193.5,-273.23 197.27,-283.13 202.62,-278.62"/>
</g>
<!-- Relation of Equivalence -->
<g id="node9" class="node">
<title>Relation of Equivalence</title>
<g id="a_node9"><a xlink:href="../Relation of Equivalence.html" xlink:title="Relation of Equivalence" target="_parent">
<path fill="none" stroke="#b75867" d="M509,-258C509,-258 384,-258 384,-258 378,-258 372,-252 372,-246 372,-246 372,-234 372,-234 372,-228 378,-222 384,-222 384,-222 509,-222 509,-222 515,-222 521,-228 521,-234 521,-234 521,-246 521,-246 521,-252 515,-258 509,-258"/>
<text text-anchor="middle" x="446.5" y="-236.9" font-family="sans" font-size="12.00" fill="#c4c7c7">Relation of Equivalence</text>
</a>
</g>
</g>
<!-- Relation&#45;&gt;Relation of Equivalence -->
<g id="edge8" class="edge">
<title>Relation&#45;&gt;Relation of Equivalence</title>
<path fill="none" stroke="#ffffff" d="M220.49,-255.24C252.39,-255.18 297.52,-254.55 337,-252 348.25,-251.27 360.14,-250.23 371.75,-249.07"/>
<polygon fill="#ffffff" stroke="#ffffff" points="220.21,-251.74 210.21,-255.25 220.21,-258.74 220.21,-251.74"/>
</g>
<!-- Symmetric Relation -->
<g id="node10" class="node">
<title>Symmetric Relation</title>
<g id="a_node10"><a xlink:href="../Symmetric Relation.html" xlink:title="Symmetric Relation" target="_parent">
<path fill="none" stroke="#b75867" d="M498.5,-221C498.5,-221 394.5,-221 394.5,-221 388.5,-221 382.5,-215 382.5,-209 382.5,-209 382.5,-197 382.5,-197 382.5,-191 388.5,-185 394.5,-185 394.5,-185 498.5,-185 498.5,-185 504.5,-185 510.5,-191 510.5,-197 510.5,-197 510.5,-209 510.5,-209 510.5,-215 504.5,-221 498.5,-221"/>
<text text-anchor="middle" x="446.5" y="-199.9" font-family="sans" font-size="12.00" fill="#c4c7c7">Symmetric Relation</text>
</a>
</g>
</g>
<!-- Relation&#45;&gt;Symmetric Relation -->
<g id="edge9" class="edge">
<title>Relation&#45;&gt;Symmetric Relation</title>
<path fill="none" stroke="#ffffff" d="M220.33,-255.83C264.02,-256.33 327.88,-255.84 337,-249 345.99,-242.25 336.64,-232.52 345,-225 355.36,-215.69 368.74,-210.01 382.33,-206.61"/>
<polygon fill="#ffffff" stroke="#ffffff" points="220.3,-252.33 210.25,-255.69 220.21,-259.33 220.3,-252.33"/>
</g>
<!-- Partial function -->
<g id="node11" class="node">
<title>Partial function</title>
<g id="a_node11"><a xlink:href="../Partial function.html" xlink:title="Partial function" target="_parent">
<path fill="none" stroke="#b75867" d="M317,-200C317,-200 238,-200 238,-200 232,-200 226,-194 226,-188 226,-188 226,-176 226,-176 226,-170 232,-164 238,-164 238,-164 317,-164 317,-164 323,-164 329,-170 329,-176 329,-176 329,-188 329,-188 329,-194 323,-200 317,-200"/>
<text text-anchor="middle" x="277.5" y="-178.9" font-family="sans" font-size="12.00" fill="#c4c7c7">Partial function</text>
</a>
</g>
</g>
<!-- Relation&#45;&gt;Partial function -->
<g id="edge10" class="edge">
<title>Relation&#45;&gt;Partial function</title>
<path fill="none" stroke="#ffffff" d="M195.02,-228.41C201.3,-219.7 209.14,-210.58 218,-204 220.44,-202.19 223.04,-200.51 225.75,-198.96"/>
<polygon fill="#ffffff" stroke="#ffffff" points="191.99,-226.63 189.27,-236.87 197.78,-230.56 191.99,-226.63"/>
</g>
<!-- Linear order -->
<g id="node12" class="node">
<title>Linear order</title>
<g id="a_node12"><a xlink:href="../Linear order.html" xlink:title="Linear order" target="_parent">
<path fill="none" stroke="#b75867" d="M477.5,-184C477.5,-184 415.5,-184 415.5,-184 409.5,-184 403.5,-178 403.5,-172 403.5,-172 403.5,-160 403.5,-160 403.5,-154 409.5,-148 415.5,-148 415.5,-148 477.5,-148 477.5,-148 483.5,-148 489.5,-154 489.5,-160 489.5,-160 489.5,-172 489.5,-172 489.5,-178 483.5,-184 477.5,-184"/>
<text text-anchor="middle" x="446.5" y="-162.9" font-family="sans" font-size="12.00" fill="#c4c7c7">Linear order</text>
</a>
</g>
</g>
<!-- Relation&#45;&gt;Linear order -->
<g id="edge12" class="edge">
<title>Relation&#45;&gt;Linear order</title>
<path fill="none" stroke="#ffffff" d="M220.24,-255.31C264.18,-255.23 328.59,-253.76 337,-246 356.12,-228.35 327.34,-207.11 345,-188 359.67,-172.13 382.93,-166.35 403.37,-164.66"/>
<polygon fill="#ffffff" stroke="#ffffff" points="220.11,-251.81 210.11,-255.31 220.1,-258.81 220.11,-251.81"/>
</g>
<!-- Total function -->
<g id="node13" class="node">
<title>Total function</title>
<g id="a_node13"><a xlink:href="../Total function.html" xlink:title="Total function" target="_parent">
<path fill="none" stroke="#b75867" d="M313,-163C313,-163 242,-163 242,-163 236,-163 230,-157 230,-151 230,-151 230,-139 230,-139 230,-133 236,-127 242,-127 242,-127 313,-127 313,-127 319,-127 325,-133 325,-139 325,-139 325,-151 325,-151 325,-157 319,-163 313,-163"/>
<text text-anchor="middle" x="277.5" y="-141.9" font-family="sans" font-size="12.00" fill="#c4c7c7">Total function</text>
</a>
</g>
</g>
<!-- Relation&#45;&gt;Total function -->
<g id="edge13" class="edge">
<title>Relation&#45;&gt;Total function</title>
<path fill="none" stroke="#ffffff" d="M185.3,-227.01C190.94,-207.83 201.01,-183.05 218,-167 221.47,-163.72 225.48,-160.92 229.73,-158.53"/>
<polygon fill="#ffffff" stroke="#ffffff" points="181.91,-226.16 182.68,-236.72 188.67,-227.98 181.91,-226.16"/>
</g>
<!-- Transitive Relation -->
<g id="node14" class="node">
<title>Transitive Relation</title>
<g id="a_node14"><a xlink:href="../Transitive Relation.html" xlink:title="Transitive Relation" target="_parent">
<path fill="none" stroke="#b75867" d="M495,-147C495,-147 398,-147 398,-147 392,-147 386,-141 386,-135 386,-135 386,-123 386,-123 386,-117 392,-111 398,-111 398,-111 495,-111 495,-111 501,-111 507,-117 507,-123 507,-123 507,-135 507,-135 507,-141 501,-147 495,-147"/>
<text text-anchor="middle" x="446.5" y="-125.9" font-family="sans" font-size="12.00" fill="#c4c7c7">Transitive Relation</text>
</a>
</g>
</g>
<!-- Relation&#45;&gt;Transitive Relation -->
<g id="edge14" class="edge">
<title>Relation&#45;&gt;Transitive Relation</title>
<path fill="none" stroke="#ffffff" d="M220.08,-252.53C266.2,-249.65 334.93,-245.05 337,-243 351.59,-228.57 331.45,-166.41 345,-151 355.38,-139.19 370.49,-132.9 385.87,-129.73"/>
<polygon fill="#ffffff" stroke="#ffffff" points="219.81,-249.04 210.04,-253.15 220.24,-256.02 219.81,-249.04"/>
</g>
<!-- Reflexive Relation -->
<g id="node15" class="node">
<title>Reflexive Relation</title>
<g id="a_node15"><a xlink:href="../Reflexive Relation.html" xlink:title="Reflexive Relation" target="_parent">
<path fill="none" stroke="#b75867" d="M493,-110C493,-110 400,-110 400,-110 394,-110 388,-104 388,-98 388,-98 388,-86 388,-86 388,-80 394,-74 400,-74 400,-74 493,-74 493,-74 499,-74 505,-80 505,-86 505,-86 505,-98 505,-98 505,-104 499,-110 493,-110"/>
<text text-anchor="middle" x="446.5" y="-88.9" font-family="sans" font-size="12.00" fill="#c4c7c7">Reflexive Relation</text>
</a>
</g>
</g>
<!-- Relation&#45;&gt;Reflexive Relation -->
<g id="edge15" class="edge">
<title>Relation&#45;&gt;Reflexive Relation</title>
<path fill="none" stroke="#ffffff" d="M220.34,-250.2C252.62,-248.66 328.8,-248.37 337,-240 356.64,-219.96 326.73,-135.29 345,-114 355.7,-101.53 371.69,-95.18 387.79,-92.17"/>
<polygon fill="#ffffff" stroke="#ffffff" points="219.81,-246.72 210.07,-250.89 220.28,-253.71 219.81,-246.72"/>
</g>
<!-- Strongly Anti&#45;symmetric Relation -->
<g id="node16" class="node">
<title>Strongly Anti&#45;symmetric Relation</title>
<g id="a_node16"><a xlink:href="../Strongly Anti-symmetric Relation.html" xlink:title="Strongly Anti&#45;symmetric Relation" target="_parent">
<path fill="none" stroke="#b75867" d="M536,-73C536,-73 357,-73 357,-73 351,-73 345,-67 345,-61 345,-61 345,-49 345,-49 345,-43 351,-37 357,-37 357,-37 536,-37 536,-37 542,-37 548,-43 548,-49 548,-49 548,-61 548,-61 548,-67 542,-73 536,-73"/>
<text text-anchor="middle" x="446.5" y="-51.9" font-family="sans" font-size="12.00" fill="#c4c7c7">Strongly Anti&#45;symmetric Relation</text>
</a>
</g>
</g>
<!-- Relation&#45;&gt;Strongly Anti&#45;symmetric Relation -->
<g id="edge17" class="edge">
<title>Relation&#45;&gt;Strongly Anti&#45;symmetric Relation</title>
<path fill="none" stroke="#ffffff" d="M220.29,-247.34C252.58,-245.29 328.86,-245.42 337,-237 349.37,-224.2 333.5,-90.58 345,-77 346.15,-75.64 347.37,-74.35 348.65,-73.13"/>
<polygon fill="#ffffff" stroke="#ffffff" points="219.66,-243.88 210.02,-248.29 220.3,-250.85 219.66,-243.88"/>
</g>
<!-- Partial order -->
<g id="node17" class="node">
<title>Partial order</title>
<g id="a_node17"><a xlink:href="../Partial order.html" xlink:title="Partial order" target="_parent">
<path fill="none" stroke="#b75867" d="M477.5,-36C477.5,-36 415.5,-36 415.5,-36 409.5,-36 403.5,-30 403.5,-24 403.5,-24 403.5,-12 403.5,-12 403.5,-6 409.5,0 415.5,0 415.5,0 477.5,0 477.5,0 483.5,0 489.5,-6 489.5,-12 489.5,-12 489.5,-24 489.5,-24 489.5,-30 483.5,-36 477.5,-36"/>
<text text-anchor="middle" x="446.5" y="-14.9" font-family="sans" font-size="12.00" fill="#c4c7c7">Partial order</text>
</a>
</g>
</g>
<!-- Relation&#45;&gt;Partial order -->
<g id="edge18" class="edge">
<title>Relation&#45;&gt;Partial order</title>
<path fill="none" stroke="#ffffff" d="M220.52,-244.42C252.53,-241.93 328.9,-242.46 337,-234 351.93,-218.42 331.13,-56.52 345,-40 359.07,-23.24 382.68,-17.48 403.49,-16.04"/>
<polygon fill="#ffffff" stroke="#ffffff" points="219.91,-240.96 210.38,-245.59 220.72,-247.92 219.91,-240.96"/>
</g>
<!-- Relations&#45;&gt;Anti&#45;reflexive relation -->
<g id="edge35" class="edge">
<title>Relations&#45;&gt;Anti&#45;reflexive relation</title>
<path fill="none" stroke="#b75867" d="M242.96,-276.58C218.85,-275.79 185.32,-274.34 148.75,-272.14"/>
<polygon fill="#b75867" stroke="#b75867" points="148.55,-268.62 138.35,-271.5 148.12,-275.61 148.55,-268.62"/>
</g>
<!-- Relations&#45;&gt;Relation -->
<g id="edge37" class="edge">
<title>Relations&#45;&gt;Relation</title>
<path fill="none" stroke="#b75867" d="M242.98,-270.15C235.57,-268.52 227.64,-266.73 219.98,-264.99"/>
<polygon fill="#b75867" stroke="#b75867" points="220.65,-261.55 210.12,-262.73 219.08,-268.37 220.65,-261.55"/>
</g>
<!-- Relations&#45;&gt;Anti&#45;symmetric Relation -->
<g id="edge33" class="edge">
<title>Relations&#45;&gt;Anti&#45;symmetric Relation</title>
<path fill="none" stroke="#b75867" d="M283.08,-295.29C296.75,-349.54 336.78,-506.25 345,-514 349.73,-518.46 355.15,-522.1 360.97,-525.06"/>
<polygon fill="#b75867" stroke="#b75867" points="359.83,-528.38 370.39,-529.17 362.62,-521.97 359.83,-528.38"/>
</g>
<!-- Relations&#45;&gt;Chain -->
<g id="edge19" class="edge">
<title>Relations&#45;&gt;Chain</title>
<path fill="none" stroke="#b75867" d="M284.45,-295.29C300.44,-344.37 343.23,-475.41 345,-477 362.27,-492.53 387.92,-497.96 408.99,-499.55"/>
<polygon fill="#b75867" stroke="#b75867" points="409.05,-503.05 419.21,-500.05 409.39,-496.06 409.05,-503.05"/>
</g>
<!-- Relations&#45;&gt;Reflexive Closure -->
<g id="edge27" class="edge">
<title>Relations&#45;&gt;Reflexive Closure</title>
<path fill="none" stroke="#b75867" d="M287.22,-295.04C299.38,-320.65 321.68,-369.19 337,-412 341.36,-424.19 335.57,-431.14 345,-440 354.65,-449.06 367.13,-454.72 380,-458.19"/>
<polygon fill="#b75867" stroke="#b75867" points="379.35,-461.63 389.88,-460.43 380.9,-454.8 379.35,-461.63"/>
</g>
<!-- Relations&#45;&gt;Reflexive Closure -->
<g id="edge30" class="edge">
<title>Relations&#45;&gt;Reflexive Closure</title>
<path fill="none" stroke="#b75867" d="M287.01,-295.27C299.13,-321.1 321.6,-369.95 337,-413 341.36,-425.19 335.57,-432.14 345,-441 354.65,-450.06 367.13,-455.72 380,-459.16"/>
<polygon fill="#b75867" stroke="#b75867" points="379.36,-462.6 389.88,-461.38 380.89,-455.77 379.36,-462.6"/>
</g>
<!-- Relations&#45;&gt;Symmetric Closure -->
<g id="edge26" class="edge">
<title>Relations&#45;&gt;Symmetric Closure</title>
<path fill="none" stroke="#b75867" d="M294.73,-295.06C308.16,-311 326.66,-335.47 337,-360 344.55,-377.91 331.47,-389.04 345,-403 353.12,-411.38 363.65,-416.92 374.82,-420.52"/>
<polygon fill="#b75867" stroke="#b75867" points="374.19,-423.97 384.76,-423.2 376.02,-417.22 374.19,-423.97"/>
</g>
<!-- Relations&#45;&gt;Symmetric Closure -->
<g id="edge28" class="edge">
<title>Relations&#45;&gt;Symmetric Closure</title>
<path fill="none" stroke="#b75867" d="M294.2,-295.21C307.67,-311.35 326.52,-336.15 337,-361 344.55,-378.91 331.47,-390.04 345,-404 353.12,-412.38 363.65,-417.92 374.82,-421.5"/>
<polygon fill="#b75867" stroke="#b75867" points="374.2,-424.96 384.76,-424.17 376.01,-418.2 374.2,-424.96"/>
</g>
<!-- Relations&#45;&gt;Relation of Equivalence -->
<g id="edge24" class="edge">
<title>Relations&#45;&gt;Relation of Equivalence</title>
<path fill="none" stroke="#b75867" d="M312.32,-269.33C322.79,-266.96 334.37,-264.36 345,-262 350.58,-260.76 356.35,-259.48 362.15,-258.2"/>
<polygon fill="#b75867" stroke="#b75867" points="362.93,-261.62 371.94,-256.05 361.42,-254.78 362.93,-261.62"/>
</g>
<!-- Relations&#45;&gt;Symmetric Relation -->
<g id="edge34" class="edge">
<title>Relations&#45;&gt;Symmetric Relation</title>
<path fill="none" stroke="#b75867" d="M312.12,-270.38C321.27,-267.11 330.45,-262.24 337,-255 346.26,-244.77 335.02,-234.54 345,-225 352.73,-217.61 362.34,-212.48 372.53,-208.94"/>
<polygon fill="#b75867" stroke="#b75867" points="373.83,-212.21 382.43,-206.03 371.85,-205.49 373.83,-212.21"/>
</g>
<!-- Relations&#45;&gt;Linear order -->
<g id="edge21" class="edge">
<title>Relations&#45;&gt;Linear order</title>
<path fill="none" stroke="#b75867" d="M312.24,-269.36C321.61,-265.63 330.89,-260.12 337,-252 354.25,-229.1 325.67,-209.17 345,-188 357.18,-174.66 375.42,-168.42 393.04,-165.76"/>
<polygon fill="#b75867" stroke="#b75867" points="393.75,-169.2 403.29,-164.58 392.95,-162.25 393.75,-169.2"/>
</g>
<!-- Relations&#45;&gt;Transitive Relation -->
<g id="edge31" class="edge">
<title>Relations&#45;&gt;Transitive Relation</title>
<path fill="none" stroke="#b75867" d="M312.23,-267.89C321.72,-263.68 331.06,-257.63 337,-249 349.39,-231 330.62,-167.45 345,-151 353.08,-141.76 364.07,-135.89 375.82,-132.25"/>
<polygon fill="#b75867" stroke="#b75867" points="377,-135.56 385.83,-129.7 375.27,-128.78 377,-135.56"/>
</g>
<!-- Relations&#45;&gt;Reflexive Relation -->
<g id="edge36" class="edge">
<title>Relations&#45;&gt;Reflexive Relation</title>
<path fill="none" stroke="#b75867" d="M312.1,-266.38C321.71,-261.68 331.15,-255.08 337,-246 352.91,-221.29 325.89,-136.33 345,-114 353.51,-104.05 365.39,-98 378.01,-94.42"/>
<polygon fill="#b75867" stroke="#b75867" points="378.82,-97.83 387.77,-92.15 377.23,-91.01 378.82,-97.83"/>
</g>
<!-- Relations&#45;&gt;Strongly Anti&#45;symmetric Relation -->
<g id="edge32" class="edge">
<title>Relations&#45;&gt;Strongly Anti&#45;symmetric Relation</title>
<path fill="none" stroke="#b75867" d="M312.24,-264.72C321.85,-259.53 331.26,-252.44 337,-243 345.58,-228.89 335.67,-118.48 344.63,-82.47"/>
<polygon fill="#b75867" stroke="#b75867" points="347.91,-83.69 348.64,-73.12 341.48,-80.93 347.91,-83.69"/>
</g>
<!-- Relations&#45;&gt;Partial order -->
<g id="edge22" class="edge">
<title>Relations&#45;&gt;Partial order</title>
<path fill="none" stroke="#b75867" d="M312.04,-263.24C321.77,-257.53 331.29,-249.89 337,-240 348.12,-220.74 330.71,-57.04 345,-40 356.8,-25.92 375.35,-19.6 393.32,-17.08"/>
<polygon fill="#b75867" stroke="#b75867" points="393.89,-20.54 403.48,-16.03 393.17,-13.58 393.89,-20.54"/>
</g>
<!-- Linear extension -->
<g id="node18" class="node">
<title>Linear extension</title>
<g id="a_node18"><a xlink:href="../Linear extension.html" xlink:title="Linear extension" target="_parent">
<path fill="#273434" stroke="#b75867" d="M489.5,-406C489.5,-406 403.5,-406 403.5,-406 397.5,-406 391.5,-400 391.5,-394 391.5,-394 391.5,-382 391.5,-382 391.5,-376 397.5,-370 403.5,-370 403.5,-370 489.5,-370 489.5,-370 495.5,-370 501.5,-376 501.5,-382 501.5,-382 501.5,-394 501.5,-394 501.5,-400 495.5,-406 489.5,-406"/>
<text text-anchor="middle" x="446.5" y="-384.9" font-family="sans" font-size="12.00" fill="#c4c7c7">Linear extension</text>
</a>
</g>
</g>
<!-- Relations&#45;&gt;Linear extension -->
<g id="edge20" class="edge">
<title>Relations&#45;&gt;Linear extension</title>
<path fill="none" stroke="#b75867" d="M290,-295.35C304.95,-318.63 330.81,-356.86 345,-366 355.84,-372.98 368.56,-377.78 381.24,-381.06"/>
<polygon fill="#b75867" stroke="#b75867" points="380.83,-384.56 391.36,-383.39 382.39,-377.74 380.83,-384.56"/>
</g>
<!-- Class of equivalence -->
<g id="node19" class="node">
<title>Class of equivalence</title>
<g id="a_node19"><a xlink:href="../Class of equivalence.html" xlink:title="Class of equivalence" target="_parent">
<path fill="#273434" stroke="#b75867" d="M500,-369C500,-369 393,-369 393,-369 387,-369 381,-363 381,-357 381,-357 381,-345 381,-345 381,-339 387,-333 393,-333 393,-333 500,-333 500,-333 506,-333 512,-339 512,-345 512,-345 512,-357 512,-357 512,-363 506,-369 500,-369"/>
<text text-anchor="middle" x="446.5" y="-347.9" font-family="sans" font-size="12.00" fill="#c4c7c7">Class of equivalence</text>
</a>
</g>
</g>
<!-- Relations&#45;&gt;Class of equivalence -->
<g id="edge23" class="edge">
<title>Relations&#45;&gt;Class of equivalence</title>
<path fill="none" stroke="#b75867" d="M297.03,-295.23C309.58,-306.58 327.1,-320.58 345,-329 353.19,-332.85 362.08,-336.04 371.06,-338.68"/>
<polygon fill="#b75867" stroke="#b75867" points="370.25,-342.08 380.82,-341.33 372.09,-335.33 370.25,-342.08"/>
</g>
<!-- Transitive Closure -->
<g id="node20" class="node">
<title>Transitive Closure</title>
<g id="a_node20"><a xlink:href="../Transitive Closure.html" xlink:title="Transitive Closure" target="_parent">
<path fill="#273434" stroke="#b75867" d="M492.5,-332C492.5,-332 400.5,-332 400.5,-332 394.5,-332 388.5,-326 388.5,-320 388.5,-320 388.5,-308 388.5,-308 388.5,-302 394.5,-296 400.5,-296 400.5,-296 492.5,-296 492.5,-296 498.5,-296 504.5,-302 504.5,-308 504.5,-308 504.5,-320 504.5,-320 504.5,-326 498.5,-332 492.5,-332"/>
<text text-anchor="middle" x="446.5" y="-310.9" font-family="sans" font-size="12.00" fill="#c4c7c7">Transitive Closure</text>
</a>
</g>
</g>
<!-- Relations&#45;&gt;Transitive Closure -->
<g id="edge25" class="edge">
<title>Relations&#45;&gt;Transitive Closure</title>
<path fill="none" stroke="#b75867" d="M312.32,-284.67C322.79,-287.04 334.37,-289.64 345,-292 355.75,-294.39 367.14,-296.9 378.25,-299.34"/>
<polygon fill="#b75867" stroke="#b75867" points="377.83,-302.83 388.35,-301.56 379.33,-295.99 377.83,-302.83"/>
</g>
<!-- Relations&#45;&gt;Transitive Closure -->
<g id="edge29" class="edge">
<title>Relations&#45;&gt;Transitive Closure</title>
<path fill="none" stroke="#b75867" d="M312.32,-285.63C322.79,-288.04 334.37,-290.64 345,-293 355.75,-295.39 367.14,-297.9 378.25,-300.33"/>
<polygon fill="#b75867" stroke="#b75867" points="377.84,-303.82 388.35,-302.52 379.33,-296.98 377.84,-303.82"/>
</g>
<!-- Discrete Structures -->
<g id="node21" class="node">
<title>Discrete Structures</title>
<g id="a_node21"><a xlink:href="../Discrete Structures.html" xlink:title="Discrete Structures" target="_parent">
<path fill="none" stroke="#b75867" d="M495.5,-295C495.5,-295 397.5,-295 397.5,-295 391.5,-295 385.5,-289 385.5,-283 385.5,-283 385.5,-271 385.5,-271 385.5,-265 391.5,-259 397.5,-259 397.5,-259 495.5,-259 495.5,-259 501.5,-259 507.5,-265 507.5,-271 507.5,-271 507.5,-283 507.5,-283 507.5,-289 501.5,-295 495.5,-295"/>
<text text-anchor="middle" x="446.5" y="-273.9" font-family="sans" font-size="12.00" fill="#c4c7c7">Discrete Structures</text>
</a>
</g>
</g>
<!-- Relations&#45;&gt;Discrete Structures -->
<g id="edge38" class="edge">
<title>Relations&#45;&gt;Discrete Structures</title>
<path fill="none" stroke="#ffffff" d="M322.3,-277C341.59,-277 364.55,-277 385.4,-277"/>
<polygon fill="#ffffff" stroke="#ffffff" points="322.29,-273.5 312.29,-277 322.29,-280.5 322.29,-273.5"/>
</g>
</g>
</svg>
