<?xml version="1.0" encoding="UTF-8" standalone="no"?>
<!DOCTYPE svg PUBLIC "-//W3C//DTD SVG 1.1//EN"
 "http://www.w3.org/Graphics/SVG/1.1/DTD/svg11.dtd">
<!-- Generated by graphviz version 2.44.0 (0)
 -->
<!-- Title: Formula of Lagrange for Interpolation Pages: 1 -->
<svg width="941pt" height="192pt"
 viewBox="0.00 0.00 941.00 192.00" xmlns="http://www.w3.org/2000/svg" xmlns:xlink="http://www.w3.org/1999/xlink">
<g id="graph0" class="graph" transform="scale(1 1) rotate(0) translate(4 188)">
<title>Formula of Lagrange for Interpolation</title>
<polygon fill="#132020" stroke="transparent" points="-4,4 -4,-188 937,-188 937,4 -4,4"/>
<!-- Formula of Lagrange for Interpolation -->
<g id="node1" class="node">
<title>Formula of Lagrange for Interpolation</title>
<g id="a_node1"><a xlink:href="../Formula of Lagrange for Interpolation.html" xlink:title="Formula of Lagrange for Interpolation" target="_parent">
<path fill="#273434" stroke="#b75867" d="M219,-95C219,-95 12,-95 12,-95 6,-95 0,-89 0,-83 0,-83 0,-71 0,-71 0,-65 6,-59 12,-59 12,-59 219,-59 219,-59 225,-59 231,-65 231,-71 231,-71 231,-83 231,-83 231,-89 225,-95 219,-95"/>
<text text-anchor="middle" x="115.5" y="-73.9" font-family="sans" font-size="12.00" fill="#c4c7c7">Formula of Lagrange for Interpolation</text>
</a>
</g>
</g>
<!-- Kronecker Delta -->
<g id="node2" class="node">
<title>Kronecker Delta</title>
<g id="a_node2"><a xlink:href="../Kronecker Delta.html" xlink:title="Kronecker Delta" target="_parent">
<path fill="#273434" stroke="#b75867" d="M334,-85C334,-85 251,-85 251,-85 245,-85 239,-79 239,-73 239,-73 239,-61 239,-61 239,-55 245,-49 251,-49 251,-49 334,-49 334,-49 340,-49 346,-55 346,-61 346,-61 346,-73 346,-73 346,-79 340,-85 334,-85"/>
<text text-anchor="middle" x="292.5" y="-63.9" font-family="sans" font-size="12.00" fill="#c4c7c7">Kronecker Delta</text>
</a>
</g>
</g>
<!-- Formula of Lagrange for Interpolation&#45;&gt;Kronecker Delta -->
<g id="edge1" class="edge">
<title>Formula of Lagrange for Interpolation&#45;&gt;Kronecker Delta</title>
<path fill="none" stroke="#b75867" d="M231.27,-70.44C231.44,-70.43 231.6,-70.42 231.76,-70.41"/>
<polygon fill="#b75867" stroke="#b75867" points="229.11,-74.07 238.89,-70.01 228.71,-67.08 229.11,-74.07"/>
</g>
<!-- Lagrange Interpolation Problem -->
<g id="node3" class="node">
<title>Lagrange Interpolation Problem</title>
<g id="a_node3"><a xlink:href="../Lagrange Interpolation Problem.html" xlink:title="Lagrange Interpolation Problem" target="_parent">
<path fill="none" stroke="#b75867" d="M541,-105C541,-105 366,-105 366,-105 360,-105 354,-99 354,-93 354,-93 354,-81 354,-81 354,-75 360,-69 366,-69 366,-69 541,-69 541,-69 547,-69 553,-75 553,-81 553,-81 553,-93 553,-93 553,-99 547,-105 541,-105"/>
<text text-anchor="middle" x="453.5" y="-83.9" font-family="sans" font-size="12.00" fill="#c4c7c7">Lagrange Interpolation Problem</text>
</a>
</g>
</g>
<!-- Formula of Lagrange for Interpolation&#45;&gt;Lagrange Interpolation Problem -->
<g id="edge2" class="edge">
<title>Formula of Lagrange for Interpolation&#45;&gt;Lagrange Interpolation Problem</title>
<path fill="none" stroke="#ffffff" d="M241.27,-82.06C282.61,-83.36 320.44,-84.3 353.9,-85.05"/>
<polygon fill="#ffffff" stroke="#ffffff" points="241.37,-78.56 231.26,-81.74 241.14,-85.56 241.37,-78.56"/>
</g>
<!-- Kronecker Delta&#45;&gt;Formula of Lagrange for Interpolation -->
<g id="edge3" class="edge">
<title>Kronecker Delta&#45;&gt;Formula of Lagrange for Interpolation</title>
<path fill="none" stroke="#ffffff" d="M231.76,-71.13C231.6,-71.14 231.44,-71.15 231.27,-71.16"/>
<polygon fill="#ffffff" stroke="#ffffff" points="229.12,-74.79 238.89,-70.7 228.7,-67.81 229.12,-74.79"/>
</g>
<!-- Kronecker Delta&#45;&gt;Lagrange Interpolation Problem -->
<g id="edge6" class="edge">
<title>Kronecker Delta&#45;&gt;Lagrange Interpolation Problem</title>
<path fill="none" stroke="#ffffff" d="M353.74,-74.58C353.82,-74.59 353.91,-74.6 353.99,-74.61"/>
<polygon fill="#ffffff" stroke="#ffffff" points="356.36,-71.38 346,-73.6 355.49,-78.32 356.36,-71.38"/>
</g>
<!-- Linear Algebra -->
<g id="node4" class="node">
<title>Linear Algebra</title>
<g id="a_node4"><a xlink:href="../Linear Algebra.html" xlink:title="Linear Algebra" target="_parent">
<path fill="none" stroke="#b75867" d="M490.5,-68C490.5,-68 416.5,-68 416.5,-68 410.5,-68 404.5,-62 404.5,-56 404.5,-56 404.5,-44 404.5,-44 404.5,-38 410.5,-32 416.5,-32 416.5,-32 490.5,-32 490.5,-32 496.5,-32 502.5,-38 502.5,-44 502.5,-44 502.5,-56 502.5,-56 502.5,-62 496.5,-68 490.5,-68"/>
<text text-anchor="middle" x="453.5" y="-46.9" font-family="sans" font-size="12.00" fill="#c4c7c7">Linear Algebra</text>
</a>
</g>
</g>
<!-- Kronecker Delta&#45;&gt;Linear Algebra -->
<g id="edge4" class="edge">
<title>Kronecker Delta&#45;&gt;Linear Algebra</title>
<path fill="none" stroke="#ffffff" d="M356.34,-60.28C372.32,-58.57 389.23,-56.76 404.35,-55.15"/>
<polygon fill="#ffffff" stroke="#ffffff" points="355.57,-56.84 346,-61.39 356.32,-63.8 355.57,-56.84"/>
</g>
<!-- Fundamental polynomials of Lagrange -->
<g id="node5" class="node">
<title>Fundamental polynomials of Lagrange</title>
<g id="a_node5"><a xlink:href="../Fundamental polynomials of Lagrange.html" xlink:title="Fundamental polynomials of Lagrange" target="_parent">
<path fill="none" stroke="#b75867" d="M853,-36C853,-36 641,-36 641,-36 635,-36 629,-30 629,-24 629,-24 629,-12 629,-12 629,-6 635,0 641,0 641,0 853,0 853,0 859,0 865,-6 865,-12 865,-12 865,-24 865,-24 865,-30 859,-36 853,-36"/>
<text text-anchor="middle" x="747" y="-14.9" font-family="sans" font-size="12.00" fill="#c4c7c7">Fundamental polynomials of Lagrange</text>
</a>
</g>
</g>
<!-- Kronecker Delta&#45;&gt;Fundamental polynomials of Lagrange -->
<g id="edge5" class="edge">
<title>Kronecker Delta&#45;&gt;Fundamental polynomials of Lagrange</title>
<path fill="none" stroke="#ffffff" d="M326.14,-43.55C334.8,-38.48 344.42,-33.81 354,-31 443.53,-4.78 549.5,-2.9 628.67,-6.82"/>
<polygon fill="#ffffff" stroke="#ffffff" points="324.15,-40.67 317.5,-48.92 327.84,-46.62 324.15,-40.67"/>
</g>
<!-- Lagrange Interpolation Problem&#45;&gt;Formula of Lagrange for Interpolation -->
<g id="edge8" class="edge">
<title>Lagrange Interpolation Problem&#45;&gt;Formula of Lagrange for Interpolation</title>
<path fill="none" stroke="#b75867" d="M353.9,-85.99C320.44,-85.29 282.61,-84.36 241.27,-83.06"/>
<polygon fill="#b75867" stroke="#b75867" points="241.37,-79.56 231.26,-82.74 241.14,-86.56 241.37,-79.56"/>
</g>
<!-- Lagrange Interpolation Problem&#45;&gt;Kronecker Delta -->
<g id="edge7" class="edge">
<title>Lagrange Interpolation Problem&#45;&gt;Kronecker Delta</title>
<path fill="none" stroke="#b75867" d="M353.99,-75.34C353.91,-75.33 353.82,-75.32 353.74,-75.31"/>
<polygon fill="#b75867" stroke="#b75867" points="356.37,-72.12 346,-74.31 355.48,-79.06 356.37,-72.12"/>
</g>
<!-- Lagrange Interpolation Problem&#45;&gt;Fundamental polynomials of Lagrange -->
<g id="edge9" class="edge">
<title>Lagrange Interpolation Problem&#45;&gt;Fundamental polynomials of Lagrange</title>
<path fill="none" stroke="#b75867" d="M548.56,-68.69C550.09,-67.53 551.58,-66.3 553,-65 561.61,-57.13 552,-47.42 561,-40 577.48,-26.41 597.77,-18.36 618.8,-13.91"/>
<polygon fill="#b75867" stroke="#b75867" points="619.64,-17.32 628.84,-12.06 618.37,-10.43 619.64,-17.32"/>
</g>
<!-- Fundamental Theorem of Algebra -->
<g id="node6" class="node">
<title>Fundamental Theorem of Algebra</title>
<g id="a_node6"><a xlink:href="../Fundamental Theorem of Algebra.html" xlink:title="Fundamental Theorem of Algebra" target="_parent">
<path fill="#273434" stroke="#b75867" d="M839.5,-184C839.5,-184 654.5,-184 654.5,-184 648.5,-184 642.5,-178 642.5,-172 642.5,-172 642.5,-160 642.5,-160 642.5,-154 648.5,-148 654.5,-148 654.5,-148 839.5,-148 839.5,-148 845.5,-148 851.5,-154 851.5,-160 851.5,-160 851.5,-172 851.5,-172 851.5,-178 845.5,-184 839.5,-184"/>
<text text-anchor="middle" x="747" y="-162.9" font-family="sans" font-size="12.00" fill="#c4c7c7">Fundamental Theorem of Algebra</text>
</a>
</g>
</g>
<!-- Lagrange Interpolation Problem&#45;&gt;Fundamental Theorem of Algebra -->
<g id="edge10" class="edge">
<title>Lagrange Interpolation Problem&#45;&gt;Fundamental Theorem of Algebra</title>
<path fill="none" stroke="#b75867" d="M481.71,-105.25C502.52,-118.27 532.39,-135 561,-144 583.54,-151.09 608.29,-155.93 632.14,-159.22"/>
<polygon fill="#b75867" stroke="#b75867" points="631.93,-162.72 642.3,-160.54 632.83,-155.78 631.93,-162.72"/>
</g>
<!-- Lagrange Interpolation Polynomial -->
<g id="node7" class="node">
<title>Lagrange Interpolation Polynomial</title>
<g id="a_node7"><a xlink:href="../Lagrange Interpolation Polynomial.html" xlink:title="Lagrange Interpolation Polynomial" target="_parent">
<path fill="none" stroke="#b75867" d="M842.5,-147C842.5,-147 651.5,-147 651.5,-147 645.5,-147 639.5,-141 639.5,-135 639.5,-135 639.5,-123 639.5,-123 639.5,-117 645.5,-111 651.5,-111 651.5,-111 842.5,-111 842.5,-111 848.5,-111 854.5,-117 854.5,-123 854.5,-123 854.5,-135 854.5,-135 854.5,-141 848.5,-147 842.5,-147"/>
<text text-anchor="middle" x="747" y="-125.9" font-family="sans" font-size="12.00" fill="#c4c7c7">Lagrange Interpolation Polynomial</text>
</a>
</g>
</g>
<!-- Lagrange Interpolation Problem&#45;&gt;Lagrange Interpolation Polynomial -->
<g id="edge11" class="edge">
<title>Lagrange Interpolation Problem&#45;&gt;Lagrange Interpolation Polynomial</title>
<path fill="none" stroke="#ffffff" d="M558.69,-106.64C559.46,-106.76 560.23,-106.88 561,-107 586.26,-110.87 613.54,-114.45 639.2,-117.54"/>
<polygon fill="#ffffff" stroke="#ffffff" points="558.95,-103.14 548.52,-105.01 557.84,-110.05 558.95,-103.14"/>
</g>
<!-- Lagrange Interpolation -->
<g id="node8" class="node">
<title>Lagrange Interpolation</title>
<g id="a_node8"><a xlink:href="../Lagrange Interpolation.html" xlink:title="Lagrange Interpolation" target="_parent">
<path fill="none" stroke="#b75867" d="M808.5,-110C808.5,-110 685.5,-110 685.5,-110 679.5,-110 673.5,-104 673.5,-98 673.5,-98 673.5,-86 673.5,-86 673.5,-80 679.5,-74 685.5,-74 685.5,-74 808.5,-74 808.5,-74 814.5,-74 820.5,-80 820.5,-86 820.5,-86 820.5,-98 820.5,-98 820.5,-104 814.5,-110 808.5,-110"/>
<text text-anchor="middle" x="747" y="-88.9" font-family="sans" font-size="12.00" fill="#c4c7c7">Lagrange Interpolation</text>
</a>
</g>
</g>
<!-- Lagrange Interpolation Problem&#45;&gt;Lagrange Interpolation -->
<g id="edge12" class="edge">
<title>Lagrange Interpolation Problem&#45;&gt;Lagrange Interpolation</title>
<path fill="none" stroke="#ffffff" d="M563.43,-88.87C600.07,-89.5 640.04,-90.18 673.22,-90.75"/>
<polygon fill="#ffffff" stroke="#ffffff" points="563.25,-85.36 553.19,-88.69 563.13,-92.36 563.25,-85.36"/>
</g>
<!-- The Lagrange Interpolation Polynomial of a Polynomial is itself -->
<g id="node9" class="node">
<title>The Lagrange Interpolation Polynomial of a Polynomial is itself</title>
<g id="a_node9"><a xlink:href="../The Lagrange Interpolation Polynomial of a Polynomial is itself.html" xlink:title="The Lagrange Interpolation Polynomial of a Polynomial is itself" target="_parent">
<path fill="none" stroke="#b75867" d="M921,-73C921,-73 573,-73 573,-73 567,-73 561,-67 561,-61 561,-61 561,-49 561,-49 561,-43 567,-37 573,-37 573,-37 921,-37 921,-37 927,-37 933,-43 933,-49 933,-49 933,-61 933,-61 933,-67 927,-73 921,-73"/>
<text text-anchor="middle" x="747" y="-51.9" font-family="sans" font-size="12.00" fill="#c4c7c7">The Lagrange Interpolation Polynomial of a Polynomial is itself</text>
</a>
</g>
</g>
<!-- Lagrange Interpolation Problem&#45;&gt;The Lagrange Interpolation Polynomial of a Polynomial is itself -->
<g id="edge13" class="edge">
<title>Lagrange Interpolation Problem&#45;&gt;The Lagrange Interpolation Polynomial of a Polynomial is itself</title>
<path fill="none" stroke="#ffffff" d="M563.35,-75.05C569.45,-74.38 575.64,-73.7 581.87,-73.02"/>
<polygon fill="#ffffff" stroke="#ffffff" points="562.75,-71.6 553.19,-76.17 563.51,-78.55 562.75,-71.6"/>
</g>
</g>
</svg>
