<?xml version="1.0" encoding="UTF-8" standalone="no"?>
<!DOCTYPE svg PUBLIC "-//W3C//DTD SVG 1.1//EN"
 "http://www.w3.org/Graphics/SVG/1.1/DTD/svg11.dtd">
<!-- Generated by graphviz version 2.44.0 (0)
 -->
<!-- Title: Lagrange Interpolation Pages: 1 -->
<svg width="742pt" height="377pt"
 viewBox="0.00 0.00 742.00 377.00" xmlns="http://www.w3.org/2000/svg" xmlns:xlink="http://www.w3.org/1999/xlink">
<g id="graph0" class="graph" transform="scale(1 1) rotate(0) translate(4 373)">
<title>Lagrange Interpolation</title>
<polygon fill="#132020" stroke="transparent" points="-4,4 -4,-373 738,-373 738,4 -4,4"/>
<!-- Lagrange Interpolation -->
<g id="node1" class="node">
<title>Lagrange Interpolation</title>
<g id="a_node1"><a xlink:href="../Lagrange Interpolation.html" xlink:title="Lagrange Interpolation" target="_parent">
<path fill="#273434" stroke="#b75867" d="M135,-128C135,-128 12,-128 12,-128 6,-128 0,-122 0,-116 0,-116 0,-104 0,-104 0,-98 6,-92 12,-92 12,-92 135,-92 135,-92 141,-92 147,-98 147,-104 147,-104 147,-116 147,-116 147,-122 141,-128 135,-128"/>
<text text-anchor="middle" x="73.5" y="-106.9" font-family="sans" font-size="12.00" fill="#c4c7c7">Lagrange Interpolation</text>
</a>
</g>
</g>
<!-- Lagrange Interpolation Problem -->
<g id="node2" class="node">
<title>Lagrange Interpolation Problem</title>
<g id="a_node2"><a xlink:href="../Lagrange Interpolation Problem.html" xlink:title="Lagrange Interpolation Problem" target="_parent">
<path fill="#273434" stroke="#b75867" d="M342,-239C342,-239 167,-239 167,-239 161,-239 155,-233 155,-227 155,-227 155,-215 155,-215 155,-209 161,-203 167,-203 167,-203 342,-203 342,-203 348,-203 354,-209 354,-215 354,-215 354,-227 354,-227 354,-233 348,-239 342,-239"/>
<text text-anchor="middle" x="254.5" y="-217.9" font-family="sans" font-size="12.00" fill="#c4c7c7">Lagrange Interpolation Problem</text>
</a>
</g>
</g>
<!-- Lagrange Interpolation&#45;&gt;Lagrange Interpolation Problem -->
<g id="edge1" class="edge">
<title>Lagrange Interpolation&#45;&gt;Lagrange Interpolation Problem</title>
<path fill="none" stroke="#b75867" d="M103.66,-128.08C134.21,-147.03 182.33,-176.87 215.77,-197.6"/>
<polygon fill="#b75867" stroke="#b75867" points="214.01,-200.63 224.35,-202.93 217.7,-194.68 214.01,-200.63"/>
</g>
<!-- Evaluating Interpolation Error -->
<g id="node3" class="node">
<title>Evaluating Interpolation Error</title>
<g id="a_node3"><a xlink:href="../Evaluating Interpolation Error.html" xlink:title="Evaluating Interpolation Error" target="_parent">
<path fill="none" stroke="#b75867" d="M335,-147C335,-147 174,-147 174,-147 168,-147 162,-141 162,-135 162,-135 162,-123 162,-123 162,-117 168,-111 174,-111 174,-111 335,-111 335,-111 341,-111 347,-117 347,-123 347,-123 347,-135 347,-135 347,-141 341,-147 335,-147"/>
<text text-anchor="middle" x="254.5" y="-125.9" font-family="sans" font-size="12.00" fill="#c4c7c7">Evaluating Interpolation Error</text>
</a>
</g>
</g>
<!-- Lagrange Interpolation&#45;&gt;Evaluating Interpolation Error -->
<g id="edge2" class="edge">
<title>Lagrange Interpolation&#45;&gt;Evaluating Interpolation Error</title>
<path fill="none" stroke="#ffffff" d="M157.12,-118.77C158.66,-118.93 160.19,-119.1 161.73,-119.26"/>
<polygon fill="#ffffff" stroke="#ffffff" points="157.36,-115.28 147.05,-117.7 156.62,-122.24 157.36,-115.28"/>
</g>
<!-- Numeric Methods -->
<g id="node4" class="node">
<title>Numeric Methods</title>
<g id="a_node4"><a xlink:href="../Numeric Methods.html" xlink:title="Numeric Methods" target="_parent">
<path fill="none" stroke="#b75867" d="M300.5,-110C300.5,-110 208.5,-110 208.5,-110 202.5,-110 196.5,-104 196.5,-98 196.5,-98 196.5,-86 196.5,-86 196.5,-80 202.5,-74 208.5,-74 208.5,-74 300.5,-74 300.5,-74 306.5,-74 312.5,-80 312.5,-86 312.5,-86 312.5,-98 312.5,-98 312.5,-104 306.5,-110 300.5,-110"/>
<text text-anchor="middle" x="254.5" y="-88.9" font-family="sans" font-size="12.00" fill="#c4c7c7">Numeric Methods</text>
</a>
</g>
</g>
<!-- Lagrange Interpolation&#45;&gt;Numeric Methods -->
<g id="edge3" class="edge">
<title>Lagrange Interpolation&#45;&gt;Numeric Methods</title>
<path fill="none" stroke="#ffffff" d="M157.11,-101.69C170.34,-100.36 183.77,-99.01 196.24,-97.76"/>
<polygon fill="#ffffff" stroke="#ffffff" points="156.65,-98.22 147.05,-102.7 157.35,-105.19 156.65,-98.22"/>
</g>
<!-- Extrapolation -->
<g id="node5" class="node">
<title>Extrapolation</title>
<g id="a_node5"><a xlink:href="../Extrapolation.html" xlink:title="Extrapolation" target="_parent">
<path fill="none" stroke="#b75867" d="M289,-73C289,-73 220,-73 220,-73 214,-73 208,-67 208,-61 208,-61 208,-49 208,-49 208,-43 214,-37 220,-37 220,-37 289,-37 289,-37 295,-37 301,-43 301,-49 301,-49 301,-61 301,-61 301,-67 295,-73 289,-73"/>
<text text-anchor="middle" x="254.5" y="-51.9" font-family="sans" font-size="12.00" fill="#c4c7c7">Extrapolation</text>
</a>
</g>
</g>
<!-- Lagrange Interpolation&#45;&gt;Extrapolation -->
<g id="edge4" class="edge">
<title>Lagrange Interpolation&#45;&gt;Extrapolation</title>
<path fill="none" stroke="#ffffff" d="M124.38,-88.02C134.41,-84.04 144.95,-80.16 155,-77 172.05,-71.64 191.15,-67.06 207.96,-63.49"/>
<polygon fill="#ffffff" stroke="#ffffff" points="122.91,-84.84 114.96,-91.85 125.54,-91.33 122.91,-84.84"/>
</g>
<!-- Lagrange Interpolation Problem&#45;&gt;Lagrange Interpolation -->
<g id="edge10" class="edge">
<title>Lagrange Interpolation Problem&#45;&gt;Lagrange Interpolation</title>
<path fill="none" stroke="#ffffff" d="M214.82,-197.64C181.13,-176.93 133.09,-147.12 102.86,-128.15"/>
<polygon fill="#ffffff" stroke="#ffffff" points="213.12,-200.71 223.48,-202.96 216.79,-194.75 213.12,-200.71"/>
</g>
<!-- Kronecker Delta -->
<g id="node6" class="node">
<title>Kronecker Delta</title>
<g id="a_node6"><a xlink:href="../Kronecker Delta.html" xlink:title="Kronecker Delta" target="_parent">
<path fill="#273434" stroke="#b75867" d="M589.5,-369C589.5,-369 506.5,-369 506.5,-369 500.5,-369 494.5,-363 494.5,-357 494.5,-357 494.5,-345 494.5,-345 494.5,-339 500.5,-333 506.5,-333 506.5,-333 589.5,-333 589.5,-333 595.5,-333 601.5,-339 601.5,-345 601.5,-345 601.5,-357 601.5,-357 601.5,-363 595.5,-369 589.5,-369"/>
<text text-anchor="middle" x="548" y="-347.9" font-family="sans" font-size="12.00" fill="#c4c7c7">Kronecker Delta</text>
</a>
</g>
</g>
<!-- Lagrange Interpolation Problem&#45;&gt;Kronecker Delta -->
<g id="edge5" class="edge">
<title>Lagrange Interpolation Problem&#45;&gt;Kronecker Delta</title>
<path fill="none" stroke="#b75867" d="M267.41,-239.23C284.86,-264.22 319.9,-308.39 362,-329 399.7,-347.46 446.73,-352.86 483.94,-353.69"/>
<polygon fill="#b75867" stroke="#b75867" points="484.11,-357.2 494.15,-353.81 484.2,-350.2 484.11,-357.2"/>
</g>
<!-- Formula of Lagrange for Interpolation -->
<g id="node7" class="node">
<title>Formula of Lagrange for Interpolation</title>
<g id="a_node7"><a xlink:href="../Formula of Lagrange for Interpolation.html" xlink:title="Formula of Lagrange for Interpolation" target="_parent">
<path fill="#273434" stroke="#b75867" d="M651.5,-332C651.5,-332 444.5,-332 444.5,-332 438.5,-332 432.5,-326 432.5,-320 432.5,-320 432.5,-308 432.5,-308 432.5,-302 438.5,-296 444.5,-296 444.5,-296 651.5,-296 651.5,-296 657.5,-296 663.5,-302 663.5,-308 663.5,-308 663.5,-320 663.5,-320 663.5,-326 657.5,-332 651.5,-332"/>
<text text-anchor="middle" x="548" y="-310.9" font-family="sans" font-size="12.00" fill="#c4c7c7">Formula of Lagrange for Interpolation</text>
</a>
</g>
</g>
<!-- Lagrange Interpolation Problem&#45;&gt;Formula of Lagrange for Interpolation -->
<g id="edge6" class="edge">
<title>Lagrange Interpolation Problem&#45;&gt;Formula of Lagrange for Interpolation</title>
<path fill="none" stroke="#b75867" d="M276.28,-239.23C296.63,-255.96 329.27,-279.93 362,-292 380.91,-298.97 401.57,-303.85 422.01,-307.25"/>
<polygon fill="#b75867" stroke="#b75867" points="421.61,-310.72 432.02,-308.8 422.68,-303.81 421.61,-310.72"/>
</g>
<!-- Fundamental polynomials of Lagrange -->
<g id="node8" class="node">
<title>Fundamental polynomials of Lagrange</title>
<g id="a_node8"><a xlink:href="../Fundamental polynomials of Lagrange.html" xlink:title="Fundamental polynomials of Lagrange" target="_parent">
<path fill="#273434" stroke="#b75867" d="M654,-295C654,-295 442,-295 442,-295 436,-295 430,-289 430,-283 430,-283 430,-271 430,-271 430,-265 436,-259 442,-259 442,-259 654,-259 654,-259 660,-259 666,-265 666,-271 666,-271 666,-283 666,-283 666,-289 660,-295 654,-295"/>
<text text-anchor="middle" x="548" y="-273.9" font-family="sans" font-size="12.00" fill="#c4c7c7">Fundamental polynomials of Lagrange</text>
</a>
</g>
</g>
<!-- Lagrange Interpolation Problem&#45;&gt;Fundamental polynomials of Lagrange -->
<g id="edge7" class="edge">
<title>Lagrange Interpolation Problem&#45;&gt;Fundamental polynomials of Lagrange</title>
<path fill="none" stroke="#b75867" d="M305.35,-239.08C323.04,-244.92 343.22,-250.93 362,-255 380.57,-259.03 400.37,-262.37 419.84,-265.12"/>
<polygon fill="#b75867" stroke="#b75867" points="419.6,-268.62 429.99,-266.51 420.55,-261.69 419.6,-268.62"/>
</g>
<!-- Fundamental Theorem of Algebra -->
<g id="node9" class="node">
<title>Fundamental Theorem of Algebra</title>
<g id="a_node9"><a xlink:href="../Fundamental Theorem of Algebra.html" xlink:title="Fundamental Theorem of Algebra" target="_parent">
<path fill="#273434" stroke="#b75867" d="M640.5,-258C640.5,-258 455.5,-258 455.5,-258 449.5,-258 443.5,-252 443.5,-246 443.5,-246 443.5,-234 443.5,-234 443.5,-228 449.5,-222 455.5,-222 455.5,-222 640.5,-222 640.5,-222 646.5,-222 652.5,-228 652.5,-234 652.5,-234 652.5,-246 652.5,-246 652.5,-252 646.5,-258 640.5,-258"/>
<text text-anchor="middle" x="548" y="-236.9" font-family="sans" font-size="12.00" fill="#c4c7c7">Fundamental Theorem of Algebra</text>
</a>
</g>
</g>
<!-- Lagrange Interpolation Problem&#45;&gt;Fundamental Theorem of Algebra -->
<g id="edge8" class="edge">
<title>Lagrange Interpolation Problem&#45;&gt;Fundamental Theorem of Algebra</title>
<path fill="none" stroke="#b75867" d="M354.19,-227.43C379.56,-229.09 407.06,-230.88 433.13,-232.58"/>
<polygon fill="#b75867" stroke="#b75867" points="433.23,-236.09 443.43,-233.25 433.68,-229.11 433.23,-236.09"/>
</g>
<!-- Lagrange Interpolation Polynomial -->
<g id="node10" class="node">
<title>Lagrange Interpolation Polynomial</title>
<g id="a_node10"><a xlink:href="../Lagrange Interpolation Polynomial.html" xlink:title="Lagrange Interpolation Polynomial" target="_parent">
<path fill="none" stroke="#b75867" d="M643.5,-221C643.5,-221 452.5,-221 452.5,-221 446.5,-221 440.5,-215 440.5,-209 440.5,-209 440.5,-197 440.5,-197 440.5,-191 446.5,-185 452.5,-185 452.5,-185 643.5,-185 643.5,-185 649.5,-185 655.5,-191 655.5,-197 655.5,-197 655.5,-209 655.5,-209 655.5,-215 649.5,-221 643.5,-221"/>
<text text-anchor="middle" x="548" y="-199.9" font-family="sans" font-size="12.00" fill="#c4c7c7">Lagrange Interpolation Polynomial</text>
</a>
</g>
</g>
<!-- Lagrange Interpolation Problem&#45;&gt;Lagrange Interpolation Polynomial -->
<g id="edge9" class="edge">
<title>Lagrange Interpolation Problem&#45;&gt;Lagrange Interpolation Polynomial</title>
<path fill="none" stroke="#ffffff" d="M364.37,-214.28C389.24,-212.74 415.65,-211.11 440.42,-209.58"/>
<polygon fill="#ffffff" stroke="#ffffff" points="363.95,-210.8 354.19,-214.91 364.39,-217.78 363.95,-210.8"/>
</g>
<!-- The Lagrange Interpolation Polynomial of a Polynomial is itself -->
<g id="node11" class="node">
<title>The Lagrange Interpolation Polynomial of a Polynomial is itself</title>
<g id="a_node11"><a xlink:href="../The Lagrange Interpolation Polynomial of a Polynomial is itself.html" xlink:title="The Lagrange Interpolation Polynomial of a Polynomial is itself" target="_parent">
<path fill="none" stroke="#b75867" d="M722,-184C722,-184 374,-184 374,-184 368,-184 362,-178 362,-172 362,-172 362,-160 362,-160 362,-154 368,-148 374,-148 374,-148 722,-148 722,-148 728,-148 734,-154 734,-160 734,-160 734,-172 734,-172 734,-178 728,-184 722,-184"/>
<text text-anchor="middle" x="548" y="-162.9" font-family="sans" font-size="12.00" fill="#c4c7c7">The Lagrange Interpolation Polynomial of a Polynomial is itself</text>
</a>
</g>
</g>
<!-- Lagrange Interpolation Problem&#45;&gt;The Lagrange Interpolation Polynomial of a Polynomial is itself -->
<g id="edge11" class="edge">
<title>Lagrange Interpolation Problem&#45;&gt;The Lagrange Interpolation Polynomial of a Polynomial is itself</title>
<path fill="none" stroke="#ffffff" d="M316.94,-199.88C331.58,-195.43 347.23,-191.14 362,-188 368.64,-186.59 375.44,-185.26 382.33,-184.01"/>
<polygon fill="#ffffff" stroke="#ffffff" points="315.51,-196.66 307,-202.97 317.59,-203.34 315.51,-196.66"/>
</g>
<!-- Evaluating Interpolation Error&#45;&gt;Lagrange Interpolation -->
<g id="edge12" class="edge">
<title>Evaluating Interpolation Error&#45;&gt;Lagrange Interpolation</title>
<path fill="none" stroke="#b75867" d="M161.73,-120.01C160.19,-119.85 158.66,-119.68 157.12,-119.52"/>
<polygon fill="#b75867" stroke="#b75867" points="157.36,-116.02 147.05,-118.44 156.62,-122.98 157.36,-116.02"/>
</g>
<!-- Rolle Theorem -->
<g id="node12" class="node">
<title>Rolle Theorem</title>
<g id="a_node12"><a xlink:href="../Rolle Theorem.html" xlink:title="Rolle Theorem" target="_parent">
<path fill="#273434" stroke="#b75867" d="M586.5,-147C586.5,-147 509.5,-147 509.5,-147 503.5,-147 497.5,-141 497.5,-135 497.5,-135 497.5,-123 497.5,-123 497.5,-117 503.5,-111 509.5,-111 509.5,-111 586.5,-111 586.5,-111 592.5,-111 598.5,-117 598.5,-123 598.5,-123 598.5,-135 598.5,-135 598.5,-141 592.5,-147 586.5,-147"/>
<text text-anchor="middle" x="548" y="-125.9" font-family="sans" font-size="12.00" fill="#c4c7c7">Rolle Theorem</text>
</a>
</g>
</g>
<!-- Evaluating Interpolation Error&#45;&gt;Rolle Theorem -->
<g id="edge13" class="edge">
<title>Evaluating Interpolation Error&#45;&gt;Rolle Theorem</title>
<path fill="none" stroke="#b75867" d="M347.33,-129C392.93,-129 446.72,-129 486.97,-129"/>
<polygon fill="#b75867" stroke="#b75867" points="487.16,-132.5 497.16,-129 487.16,-125.5 487.16,-132.5"/>
</g>
<!-- Numeric Methods&#45;&gt;Lagrange Interpolation -->
<g id="edge14" class="edge">
<title>Numeric Methods&#45;&gt;Lagrange Interpolation</title>
<path fill="none" stroke="#b75867" d="M196.24,-98.46C183.77,-99.75 170.34,-101.12 157.11,-102.44"/>
<polygon fill="#b75867" stroke="#b75867" points="156.65,-98.97 147.05,-103.44 157.35,-105.93 156.65,-98.97"/>
</g>
<!-- Function Approximation -->
<g id="node13" class="node">
<title>Function Approximation</title>
<g id="a_node13"><a xlink:href="../Function Approximation.html" xlink:title="Function Approximation" target="_parent">
<path fill="#273434" stroke="#b75867" d="M612.5,-110C612.5,-110 483.5,-110 483.5,-110 477.5,-110 471.5,-104 471.5,-98 471.5,-98 471.5,-86 471.5,-86 471.5,-80 477.5,-74 483.5,-74 483.5,-74 612.5,-74 612.5,-74 618.5,-74 624.5,-80 624.5,-86 624.5,-86 624.5,-98 624.5,-98 624.5,-104 618.5,-110 612.5,-110"/>
<text text-anchor="middle" x="548" y="-88.9" font-family="sans" font-size="12.00" fill="#c4c7c7">Function Approximation</text>
</a>
</g>
</g>
<!-- Numeric Methods&#45;&gt;Function Approximation -->
<g id="edge15" class="edge">
<title>Numeric Methods&#45;&gt;Function Approximation</title>
<path fill="none" stroke="#b75867" d="M312.74,-92C355.08,-92 413.45,-92 461.33,-92"/>
<polygon fill="#b75867" stroke="#b75867" points="461.38,-95.5 471.38,-92 461.38,-88.5 461.38,-95.5"/>
</g>
<!-- Subjects -->
<g id="node14" class="node">
<title>Subjects</title>
<g id="a_node14"><a xlink:href="../Subjects.html" xlink:title="Subjects" target="_parent">
<path fill="none" stroke="#b75867" d="M568.5,-73C568.5,-73 527.5,-73 527.5,-73 521.5,-73 515.5,-67 515.5,-61 515.5,-61 515.5,-49 515.5,-49 515.5,-43 521.5,-37 527.5,-37 527.5,-37 568.5,-37 568.5,-37 574.5,-37 580.5,-43 580.5,-49 580.5,-49 580.5,-61 580.5,-61 580.5,-67 574.5,-73 568.5,-73"/>
<text text-anchor="middle" x="548" y="-51.9" font-family="sans" font-size="12.00" fill="#c4c7c7">Subjects</text>
</a>
</g>
</g>
<!-- Numeric Methods&#45;&gt;Subjects -->
<g id="edge16" class="edge">
<title>Numeric Methods&#45;&gt;Subjects</title>
<path fill="none" stroke="#ffffff" d="M322.93,-82.28C335.89,-80.47 349.36,-78.64 362,-77 415.73,-70.02 478.35,-62.76 515.22,-58.57"/>
<polygon fill="#ffffff" stroke="#ffffff" points="322.09,-78.86 312.67,-83.72 323.06,-85.79 322.09,-78.86"/>
</g>
<!-- Knowledege Base -->
<g id="node15" class="node">
<title>Knowledege Base</title>
<g id="a_node15"><a xlink:href="../Knowledege Base.html" xlink:title="Knowledege Base" target="_parent">
<path fill="none" stroke="#b75867" d="M594.5,-36C594.5,-36 501.5,-36 501.5,-36 495.5,-36 489.5,-30 489.5,-24 489.5,-24 489.5,-12 489.5,-12 489.5,-6 495.5,0 501.5,0 501.5,0 594.5,0 594.5,0 600.5,0 606.5,-6 606.5,-12 606.5,-12 606.5,-24 606.5,-24 606.5,-30 600.5,-36 594.5,-36"/>
<text text-anchor="middle" x="548" y="-14.9" font-family="sans" font-size="12.00" fill="#c4c7c7">Knowledege Base</text>
</a>
</g>
</g>
<!-- Numeric Methods&#45;&gt;Knowledege Base -->
<g id="edge17" class="edge">
<title>Numeric Methods&#45;&gt;Knowledege Base</title>
<path fill="none" stroke="#ffffff" d="M322.56,-87.3C334.18,-83.79 345.31,-78.34 354,-70 363.95,-60.44 351.57,-49.04 362,-40 396.46,-10.13 449.08,-6.49 489.4,-9.24"/>
<polygon fill="#ffffff" stroke="#ffffff" points="321.54,-83.94 312.71,-89.81 323.27,-90.73 321.54,-83.94"/>
</g>
<!-- Extrapolation&#45;&gt;Lagrange Interpolation -->
<g id="edge18" class="edge">
<title>Extrapolation&#45;&gt;Lagrange Interpolation</title>
<path fill="none" stroke="#b75867" d="M207.96,-64.43C191.15,-68.06 172.05,-72.64 155,-78 145.7,-80.92 135.96,-84.47 126.61,-88.13"/>
<polygon fill="#b75867" stroke="#b75867" points="125.02,-84.99 117.04,-91.95 127.62,-91.49 125.02,-84.99"/>
</g>
</g>
</svg>
