<?xml version="1.0" encoding="UTF-8" standalone="no"?>
<!DOCTYPE svg PUBLIC "-//W3C//DTD SVG 1.1//EN"
 "http://www.w3.org/Graphics/SVG/1.1/DTD/svg11.dtd">
<!-- Generated by graphviz version 2.44.0 (0)
 -->
<!-- Title: Metric Pages: 1 -->
<svg width="326pt" height="44pt"
 viewBox="0.00 0.00 326.00 44.00" xmlns="http://www.w3.org/2000/svg" xmlns:xlink="http://www.w3.org/1999/xlink">
<g id="graph0" class="graph" transform="scale(1 1) rotate(0) translate(4 40)">
<title>Metric</title>
<polygon fill="#132020" stroke="transparent" points="-4,4 -4,-40 322,-40 322,4 -4,4"/>
<!-- Metric -->
<g id="node1" class="node">
<title>Metric</title>
<g id="a_node1"><a xlink:href="../Metric.html" xlink:title="Metric" target="_parent">
<path fill="#273434" stroke="#b75867" d="M42,-36C42,-36 12,-36 12,-36 6,-36 0,-30 0,-24 0,-24 0,-12 0,-12 0,-6 6,0 12,0 12,0 42,0 42,0 48,0 54,-6 54,-12 54,-12 54,-24 54,-24 54,-30 48,-36 42,-36"/>
<text text-anchor="middle" x="27" y="-14.9" font-family="sans" font-size="12.00" fill="#c4c7c7">Metric</text>
</a>
</g>
</g>
<!-- Metric Criteria -->
<g id="node2" class="node">
<title>Metric Criteria</title>
<g id="a_node2"><a xlink:href="../Metric Criteria.html" xlink:title="Metric Criteria" target="_parent">
<path fill="none" stroke="#b75867" d="M145,-36C145,-36 74,-36 74,-36 68,-36 62,-30 62,-24 62,-24 62,-12 62,-12 62,-6 68,0 74,0 74,0 145,0 145,0 151,0 157,-6 157,-12 157,-12 157,-24 157,-24 157,-30 151,-36 145,-36"/>
<text text-anchor="middle" x="109.5" y="-14.9" font-family="sans" font-size="12.00" fill="#c4c7c7">Metric Criteria</text>
</a>
</g>
</g>
<!-- Metric&#45;&gt;Metric Criteria -->
<g id="edge1" class="edge">
<title>Metric&#45;&gt;Metric Criteria</title>
<path fill="none" stroke="#ffffff" d="M61.5,-18C61.66,-18 61.82,-18 61.98,-18"/>
<polygon fill="#ffffff" stroke="#ffffff" points="64.36,-14.5 54.36,-18 64.36,-21.5 64.36,-14.5"/>
</g>
<!-- Metric Criteria&#45;&gt;Metric -->
<g id="edge2" class="edge">
<title>Metric Criteria&#45;&gt;Metric</title>
<path fill="none" stroke="#b75867" d="M61.98,-18.74C61.82,-18.74 61.66,-18.74 61.5,-18.74"/>
<polygon fill="#b75867" stroke="#b75867" points="64.37,-15.25 54.36,-18.71 64.34,-22.25 64.37,-15.25"/>
</g>
<!-- Function Approximation -->
<g id="node3" class="node">
<title>Function Approximation</title>
<g id="a_node3"><a xlink:href="../Function Approximation.html" xlink:title="Function Approximation" target="_parent">
<path fill="none" stroke="#b75867" d="M306,-36C306,-36 177,-36 177,-36 171,-36 165,-30 165,-24 165,-24 165,-12 165,-12 165,-6 171,0 177,0 177,0 306,0 306,0 312,0 318,-6 318,-12 318,-12 318,-24 318,-24 318,-30 312,-36 306,-36"/>
<text text-anchor="middle" x="241.5" y="-14.9" font-family="sans" font-size="12.00" fill="#c4c7c7">Function Approximation</text>
</a>
</g>
</g>
<!-- Metric Criteria&#45;&gt;Function Approximation -->
<g id="edge3" class="edge">
<title>Metric Criteria&#45;&gt;Function Approximation</title>
<path fill="none" stroke="#ffffff" d="M164.12,-18C164.28,-18 164.44,-18 164.6,-18"/>
<polygon fill="#ffffff" stroke="#ffffff" points="167.07,-14.5 157.07,-18 167.07,-21.5 167.07,-14.5"/>
</g>
</g>
</svg>
