<?xml version="1.0" encoding="UTF-8" standalone="no"?>
<!DOCTYPE svg PUBLIC "-//W3C//DTD SVG 1.1//EN"
 "http://www.w3.org/Graphics/SVG/1.1/DTD/svg11.dtd">
<!-- Generated by graphviz version 2.44.0 (0)
 -->
<!-- Title: Multiset Pages: 1 -->
<svg width="426pt" height="155pt"
 viewBox="0.00 0.00 426.00 155.00" xmlns="http://www.w3.org/2000/svg" xmlns:xlink="http://www.w3.org/1999/xlink">
<g id="graph0" class="graph" transform="scale(1 1) rotate(0) translate(4 151)">
<title>Multiset</title>
<polygon fill="#132020" stroke="transparent" points="-4,4 -4,-151 422,-151 422,4 -4,4"/>
<!-- Multiset -->
<g id="node1" class="node">
<title>Multiset</title>
<g id="a_node1"><a xlink:href="../Multiset.html" xlink:title="Multiset" target="_parent">
<path fill="#273434" stroke="#b75867" d="M50,-91C50,-91 12,-91 12,-91 6,-91 0,-85 0,-79 0,-79 0,-67 0,-67 0,-61 6,-55 12,-55 12,-55 50,-55 50,-55 56,-55 62,-61 62,-67 62,-67 62,-79 62,-79 62,-85 56,-91 50,-91"/>
<text text-anchor="middle" x="31" y="-69.9" font-family="sans" font-size="12.00" fill="#c4c7c7">Multiset</text>
</a>
</g>
</g>
<!-- Recurrent Equations -->
<g id="node2" class="node">
<title>Recurrent Equations</title>
<g id="a_node2"><a xlink:href="../Recurrent Equations.html" xlink:title="Recurrent Equations" target="_parent">
<path fill="none" stroke="#b75867" d="M189,-91C189,-91 82,-91 82,-91 76,-91 70,-85 70,-79 70,-79 70,-67 70,-67 70,-61 76,-55 82,-55 82,-55 189,-55 189,-55 195,-55 201,-61 201,-67 201,-67 201,-79 201,-79 201,-85 195,-91 189,-91"/>
<text text-anchor="middle" x="135.5" y="-69.9" font-family="sans" font-size="12.00" fill="#c4c7c7">Recurrent Equations</text>
</a>
</g>
</g>
<!-- Multiset&#45;&gt;Recurrent Equations -->
<g id="edge1" class="edge">
<title>Multiset&#45;&gt;Recurrent Equations</title>
<path fill="none" stroke="#ffffff" d="M69.36,-73C69.52,-73 69.69,-73 69.85,-73"/>
<polygon fill="#ffffff" stroke="#ffffff" points="72.2,-69.5 62.2,-73 72.2,-76.5 72.2,-69.5"/>
</g>
<!-- Recurrent Equations&#45;&gt;Multiset -->
<g id="edge3" class="edge">
<title>Recurrent Equations&#45;&gt;Multiset</title>
<path fill="none" stroke="#b75867" d="M69.85,-73.73C69.69,-73.73 69.52,-73.73 69.36,-73.72"/>
<polygon fill="#b75867" stroke="#b75867" points="72.22,-70.24 62.2,-73.69 72.18,-77.24 72.22,-70.24"/>
</g>
<!-- Set -->
<g id="node3" class="node">
<title>Set</title>
<g id="a_node3"><a xlink:href="../Set.html" xlink:title="Set" target="_parent">
<path fill="#273434" stroke="#b75867" d="M328.5,-147C328.5,-147 298.5,-147 298.5,-147 292.5,-147 286.5,-141 286.5,-135 286.5,-135 286.5,-123 286.5,-123 286.5,-117 292.5,-111 298.5,-111 298.5,-111 328.5,-111 328.5,-111 334.5,-111 340.5,-117 340.5,-123 340.5,-123 340.5,-135 340.5,-135 340.5,-141 334.5,-147 328.5,-147"/>
<text text-anchor="middle" x="313.5" y="-125.9" font-family="sans" font-size="12.00" fill="#c4c7c7">Set</text>
</a>
</g>
</g>
<!-- Recurrent Equations&#45;&gt;Set -->
<g id="edge2" class="edge">
<title>Recurrent Equations&#45;&gt;Set</title>
<path fill="none" stroke="#b75867" d="M170.87,-91.09C182.71,-96.79 196.22,-102.71 209,-107 230.8,-114.32 256.03,-119.74 276.12,-123.37"/>
<polygon fill="#b75867" stroke="#b75867" points="275.66,-126.84 286.11,-125.11 276.86,-119.95 275.66,-126.84"/>
</g>
<!-- Fundamental Theorem of Algebra -->
<g id="node4" class="node">
<title>Fundamental Theorem of Algebra</title>
<g id="a_node4"><a xlink:href="../Fundamental Theorem of Algebra.html" xlink:title="Fundamental Theorem of Algebra" target="_parent">
<path fill="#273434" stroke="#b75867" d="M406,-110C406,-110 221,-110 221,-110 215,-110 209,-104 209,-98 209,-98 209,-86 209,-86 209,-80 215,-74 221,-74 221,-74 406,-74 406,-74 412,-74 418,-80 418,-86 418,-86 418,-98 418,-98 418,-104 412,-110 406,-110"/>
<text text-anchor="middle" x="313.5" y="-88.9" font-family="sans" font-size="12.00" fill="#c4c7c7">Fundamental Theorem of Algebra</text>
</a>
</g>
</g>
<!-- Recurrent Equations&#45;&gt;Fundamental Theorem of Algebra -->
<g id="edge4" class="edge">
<title>Recurrent Equations&#45;&gt;Fundamental Theorem of Algebra</title>
<path fill="none" stroke="#b75867" d="M201.04,-79.97C201.2,-79.98 201.36,-80 201.52,-80.02"/>
<polygon fill="#b75867" stroke="#b75867" points="198.45,-83.21 208.76,-80.8 199.2,-76.25 198.45,-83.21"/>
</g>
<!-- Chebyshev Polynomial -->
<g id="node5" class="node">
<title>Chebyshev Polynomial</title>
<g id="a_node5"><a xlink:href="../Chebyshev Polynomial.html" xlink:title="Chebyshev Polynomial" target="_parent">
<path fill="none" stroke="#b75867" d="M374,-73C374,-73 253,-73 253,-73 247,-73 241,-67 241,-61 241,-61 241,-49 241,-49 241,-43 247,-37 253,-37 253,-37 374,-37 374,-37 380,-37 386,-43 386,-49 386,-49 386,-61 386,-61 386,-67 380,-73 374,-73"/>
<text text-anchor="middle" x="313.5" y="-51.9" font-family="sans" font-size="12.00" fill="#c4c7c7">Chebyshev Polynomial</text>
</a>
</g>
</g>
<!-- Recurrent Equations&#45;&gt;Chebyshev Polynomial -->
<g id="edge5" class="edge">
<title>Recurrent Equations&#45;&gt;Chebyshev Polynomial</title>
<path fill="none" stroke="#ffffff" d="M211.18,-65.36C221.01,-64.36 231.06,-63.33 240.84,-62.33"/>
<polygon fill="#ffffff" stroke="#ffffff" points="210.63,-61.9 201.04,-66.4 211.34,-68.86 210.63,-61.9"/>
</g>
<!-- Discrete Structures -->
<g id="node6" class="node">
<title>Discrete Structures</title>
<g id="a_node6"><a xlink:href="../Discrete Structures.html" xlink:title="Discrete Structures" target="_parent">
<path fill="none" stroke="#b75867" d="M362.5,-36C362.5,-36 264.5,-36 264.5,-36 258.5,-36 252.5,-30 252.5,-24 252.5,-24 252.5,-12 252.5,-12 252.5,-6 258.5,0 264.5,0 264.5,0 362.5,0 362.5,0 368.5,0 374.5,-6 374.5,-12 374.5,-12 374.5,-24 374.5,-24 374.5,-30 368.5,-36 362.5,-36"/>
<text text-anchor="middle" x="313.5" y="-14.9" font-family="sans" font-size="12.00" fill="#c4c7c7">Discrete Structures</text>
</a>
</g>
</g>
<!-- Recurrent Equations&#45;&gt;Discrete Structures -->
<g id="edge6" class="edge">
<title>Recurrent Equations&#45;&gt;Discrete Structures</title>
<path fill="none" stroke="#ffffff" d="M181.23,-50.81C190.28,-46.84 199.84,-43.02 209,-40 222.78,-35.46 237.92,-31.62 252.25,-28.49"/>
<polygon fill="#ffffff" stroke="#ffffff" points="179.7,-47.66 172.02,-54.97 182.58,-54.04 179.7,-47.66"/>
</g>
</g>
</svg>
