<?xml version="1.0" encoding="UTF-8" standalone="no"?>
<!DOCTYPE svg PUBLIC "-//W3C//DTD SVG 1.1//EN"
 "http://www.w3.org/Graphics/SVG/1.1/DTD/svg11.dtd">
<!-- Generated by graphviz version 2.44.0 (0)
 -->
<!-- Title: Partition Pages: 1 -->
<svg width="513pt" height="266pt"
 viewBox="0.00 0.00 513.00 266.00" xmlns="http://www.w3.org/2000/svg" xmlns:xlink="http://www.w3.org/1999/xlink">
<g id="graph0" class="graph" transform="scale(1 1) rotate(0) translate(4 262)">
<title>Partition</title>
<polygon fill="#132020" stroke="transparent" points="-4,4 -4,-262 509,-262 509,4 -4,4"/>
<!-- Partition -->
<g id="node1" class="node">
<title>Partition</title>
<g id="a_node1"><a xlink:href="../Partition.html" xlink:title="Partition" target="_parent">
<path fill="#273434" stroke="#b75867" d="M53,-91C53,-91 12,-91 12,-91 6,-91 0,-85 0,-79 0,-79 0,-67 0,-67 0,-61 6,-55 12,-55 12,-55 53,-55 53,-55 59,-55 65,-61 65,-67 65,-67 65,-79 65,-79 65,-85 59,-91 53,-91"/>
<text text-anchor="middle" x="32.5" y="-69.9" font-family="sans" font-size="12.00" fill="#c4c7c7">Partition</text>
</a>
</g>
</g>
<!-- Class of equivalence -->
<g id="node2" class="node">
<title>Class of equivalence</title>
<g id="a_node2"><a xlink:href="../Class of equivalence.html" xlink:title="Class of equivalence" target="_parent">
<path fill="none" stroke="#b75867" d="M195,-91C195,-91 88,-91 88,-91 82,-91 76,-85 76,-79 76,-79 76,-67 76,-67 76,-61 82,-55 88,-55 88,-55 195,-55 195,-55 201,-55 207,-61 207,-67 207,-67 207,-79 207,-79 207,-85 201,-91 195,-91"/>
<text text-anchor="middle" x="141.5" y="-69.9" font-family="sans" font-size="12.00" fill="#c4c7c7">Class of equivalence</text>
</a>
</g>
</g>
<!-- Partition&#45;&gt;Class of equivalence -->
<g id="edge1" class="edge">
<title>Partition&#45;&gt;Class of equivalence</title>
<path fill="none" stroke="#ffffff" d="M75.06,-73C75.29,-73 75.52,-73 75.75,-73"/>
<polygon fill="#ffffff" stroke="#ffffff" points="75.02,-69.5 65.02,-73 75.02,-76.5 75.02,-69.5"/>
</g>
<!-- Relation of Equivalence -->
<g id="node3" class="node">
<title>Relation of Equivalence</title>
<g id="a_node3"><a xlink:href="../Relation of Equivalence.html" xlink:title="Relation of Equivalence" target="_parent">
<path fill="none" stroke="#b75867" d="M356,-111C356,-111 231,-111 231,-111 225,-111 219,-105 219,-99 219,-99 219,-87 219,-87 219,-81 225,-75 231,-75 231,-75 356,-75 356,-75 362,-75 368,-81 368,-87 368,-87 368,-99 368,-99 368,-105 362,-111 356,-111"/>
<text text-anchor="middle" x="293.5" y="-89.9" font-family="sans" font-size="12.00" fill="#c4c7c7">Relation of Equivalence</text>
</a>
</g>
</g>
<!-- Partition&#45;&gt;Relation of Equivalence -->
<g id="edge2" class="edge">
<title>Partition&#45;&gt;Relation of Equivalence</title>
<path fill="none" stroke="#ffffff" d="M75.27,-88.02C127.59,-97.51 178.58,-98.54 218.92,-97.51"/>
<polygon fill="#ffffff" stroke="#ffffff" points="75.61,-84.52 65.13,-86.07 74.3,-91.39 75.61,-84.52"/>
</g>
<!-- Principle of partitions -->
<g id="node4" class="node">
<title>Principle of partitions</title>
<g id="a_node4"><a xlink:href="../Principle of partitions.html" xlink:title="Principle of partitions" target="_parent">
<path fill="none" stroke="#b75867" d="M198,-54C198,-54 85,-54 85,-54 79,-54 73,-48 73,-42 73,-42 73,-30 73,-30 73,-24 79,-18 85,-18 85,-18 198,-18 198,-18 204,-18 210,-24 210,-30 210,-30 210,-42 210,-42 210,-48 204,-54 198,-54"/>
<text text-anchor="middle" x="141.5" y="-32.9" font-family="sans" font-size="12.00" fill="#c4c7c7">Principle of partitions</text>
</a>
</g>
</g>
<!-- Partition&#45;&gt;Principle of partitions -->
<g id="edge3" class="edge">
<title>Partition&#45;&gt;Principle of partitions</title>
<path fill="none" stroke="#ffffff" d="M75.05,-57.3C79.49,-55.74 81.96,-54.89 84.44,-54.04"/>
<polygon fill="#ffffff" stroke="#ffffff" points="73.61,-54.1 65.36,-60.75 75.95,-60.7 73.61,-54.1"/>
</g>
<!-- Class of equivalence&#45;&gt;Partition -->
<g id="edge4" class="edge">
<title>Class of equivalence&#45;&gt;Partition</title>
<path fill="none" stroke="#b75867" d="M75.75,-73.74C75.52,-73.73 75.29,-73.73 75.06,-73.73"/>
<polygon fill="#b75867" stroke="#b75867" points="75.04,-70.23 65.02,-73.69 75.01,-77.23 75.04,-70.23"/>
</g>
<!-- Class of equivalence&#45;&gt;Relation of Equivalence -->
<g id="edge6" class="edge">
<title>Class of equivalence&#45;&gt;Relation of Equivalence</title>
<path fill="none" stroke="#b75867" d="M207.42,-81.66C207.89,-81.72 208.37,-81.78 208.85,-81.85"/>
<polygon fill="#b75867" stroke="#b75867" points="208.51,-85.33 218.89,-83.18 209.44,-78.39 208.51,-85.33"/>
</g>
<!-- Set -->
<g id="node5" class="node">
<title>Set</title>
<g id="a_node5"><a xlink:href="../Set.html" xlink:title="Set" target="_parent">
<path fill="#273434" stroke="#b75867" d="M456,-36C456,-36 426,-36 426,-36 420,-36 414,-30 414,-24 414,-24 414,-12 414,-12 414,-6 420,0 426,0 426,0 456,0 456,0 462,0 468,-6 468,-12 468,-12 468,-24 468,-24 468,-30 462,-36 456,-36"/>
<text text-anchor="middle" x="441" y="-14.9" font-family="sans" font-size="12.00" fill="#c4c7c7">Set</text>
</a>
</g>
</g>
<!-- Class of equivalence&#45;&gt;Set -->
<g id="edge5" class="edge">
<title>Class of equivalence&#45;&gt;Set</title>
<path fill="none" stroke="#b75867" d="M207.15,-66.89C210.82,-66.58 214.46,-66.28 218,-66 234.76,-64.67 355,-65.31 369,-56 375.62,-51.6 371.03,-45.25 377,-40 384.62,-33.3 394.4,-28.61 403.97,-25.33"/>
<polygon fill="#b75867" stroke="#b75867" points="405.18,-28.63 413.76,-22.41 403.18,-21.92 405.18,-28.63"/>
</g>
<!-- Principle of division -->
<g id="node6" class="node">
<title>Principle of division</title>
<g id="a_node6"><a xlink:href="../Principle of division.html" xlink:title="Principle of division" target="_parent">
<path fill="none" stroke="#b75867" d="M492,-73C492,-73 390,-73 390,-73 384,-73 378,-67 378,-61 378,-61 378,-49 378,-49 378,-43 384,-37 390,-37 390,-37 492,-37 492,-37 498,-37 504,-43 504,-49 504,-49 504,-61 504,-61 504,-67 498,-73 492,-73"/>
<text text-anchor="middle" x="441" y="-51.9" font-family="sans" font-size="12.00" fill="#c4c7c7">Principle of division</text>
</a>
</g>
</g>
<!-- Class of equivalence&#45;&gt;Principle of division -->
<g id="edge7" class="edge">
<title>Class of equivalence&#45;&gt;Principle of division</title>
<path fill="none" stroke="#ffffff" d="M217.55,-70.29C261.68,-68.47 318.55,-65.71 369,-62 371.84,-61.79 374.74,-61.56 377.68,-61.32"/>
<polygon fill="#ffffff" stroke="#ffffff" points="217.33,-66.8 207.48,-70.7 217.61,-73.79 217.33,-66.8"/>
</g>
<!-- Relations -->
<g id="node7" class="node">
<title>Relations</title>
<g id="a_node7"><a xlink:href="../Relations.html" xlink:title="Relations" target="_parent">
<path fill="none" stroke="#b75867" d="M463.5,-110C463.5,-110 418.5,-110 418.5,-110 412.5,-110 406.5,-104 406.5,-98 406.5,-98 406.5,-86 406.5,-86 406.5,-80 412.5,-74 418.5,-74 418.5,-74 463.5,-74 463.5,-74 469.5,-74 475.5,-80 475.5,-86 475.5,-86 475.5,-98 475.5,-98 475.5,-104 469.5,-110 463.5,-110"/>
<text text-anchor="middle" x="441" y="-88.9" font-family="sans" font-size="12.00" fill="#c4c7c7">Relations</text>
</a>
</g>
</g>
<!-- Class of equivalence&#45;&gt;Relations -->
<g id="edge8" class="edge">
<title>Class of equivalence&#45;&gt;Relations</title>
<path fill="none" stroke="#ffffff" d="M217.23,-71.42C261.48,-71.29 318.58,-72.51 369,-78 381.24,-79.33 394.51,-81.7 406.24,-84.11"/>
<polygon fill="#ffffff" stroke="#ffffff" points="217.11,-67.92 207.13,-71.47 217.15,-74.92 217.11,-67.92"/>
</g>
<!-- Relation of Equivalence&#45;&gt;Partition -->
<g id="edge11" class="edge">
<title>Relation of Equivalence&#45;&gt;Partition</title>
<path fill="none" stroke="#b75867" d="M218.92,-98.38C178.58,-99.53 127.59,-98.51 75.27,-89.01"/>
<polygon fill="#b75867" stroke="#b75867" points="75.61,-85.52 65.13,-87.07 74.3,-92.39 75.61,-85.52"/>
</g>
<!-- Relation of Equivalence&#45;&gt;Class of equivalence -->
<g id="edge9" class="edge">
<title>Relation of Equivalence&#45;&gt;Class of equivalence</title>
<path fill="none" stroke="#b75867" d="M218.89,-83.93C218.41,-83.87 217.93,-83.81 217.45,-83.74"/>
<polygon fill="#b75867" stroke="#b75867" points="217.8,-80.26 207.42,-82.4 216.87,-87.2 217.8,-80.26"/>
</g>
<!-- Relation of Equivalence&#45;&gt;Set -->
<g id="edge10" class="edge">
<title>Relation of Equivalence&#45;&gt;Set</title>
<path fill="none" stroke="#b75867" d="M352.18,-74.92C358.37,-71.33 364.16,-67.06 369,-62 376.19,-54.48 369.6,-47.31 377,-40 384.42,-32.67 394.41,-27.78 404.24,-24.51"/>
<polygon fill="#b75867" stroke="#b75867" points="405.27,-27.86 413.93,-21.76 403.35,-21.13 405.27,-27.86"/>
</g>
<!-- Relation of Equivalence&#45;&gt;Principle of division -->
<g id="edge16" class="edge">
<title>Relation of Equivalence&#45;&gt;Principle of division</title>
<path fill="none" stroke="#ffffff" d="M373.94,-72.25C375.26,-71.91 376.57,-71.57 377.87,-71.23"/>
<polygon fill="#ffffff" stroke="#ffffff" points="372.63,-68.98 363.84,-74.89 374.4,-75.75 372.63,-68.98"/>
</g>
<!-- Relation of Equivalence&#45;&gt;Relations -->
<g id="edge17" class="edge">
<title>Relation of Equivalence&#45;&gt;Relations</title>
<path fill="none" stroke="#ffffff" d="M378.11,-92.43C388.06,-92.36 397.72,-92.29 406.35,-92.23"/>
<polygon fill="#ffffff" stroke="#ffffff" points="378.08,-88.93 368.1,-92.49 378.13,-95.93 378.08,-88.93"/>
</g>
<!-- Transitive Relation -->
<g id="node8" class="node">
<title>Transitive Relation</title>
<g id="a_node8"><a xlink:href="../Transitive Relation.html" xlink:title="Transitive Relation" target="_parent">
<path fill="#273434" stroke="#b75867" d="M489.5,-221C489.5,-221 392.5,-221 392.5,-221 386.5,-221 380.5,-215 380.5,-209 380.5,-209 380.5,-197 380.5,-197 380.5,-191 386.5,-185 392.5,-185 392.5,-185 489.5,-185 489.5,-185 495.5,-185 501.5,-191 501.5,-197 501.5,-197 501.5,-209 501.5,-209 501.5,-215 495.5,-221 489.5,-221"/>
<text text-anchor="middle" x="441" y="-199.9" font-family="sans" font-size="12.00" fill="#c4c7c7">Transitive Relation</text>
</a>
</g>
</g>
<!-- Relation of Equivalence&#45;&gt;Transitive Relation -->
<g id="edge12" class="edge">
<title>Relation of Equivalence&#45;&gt;Transitive Relation</title>
<path fill="none" stroke="#b75867" d="M307.38,-111.31C320.93,-129.43 343.86,-157.13 375.1,-179.18"/>
<polygon fill="#b75867" stroke="#b75867" points="373.42,-182.27 383.67,-184.94 377.33,-176.46 373.42,-182.27"/>
</g>
<!-- Symmetric Relation -->
<g id="node9" class="node">
<title>Symmetric Relation</title>
<g id="a_node9"><a xlink:href="../Symmetric Relation.html" xlink:title="Symmetric Relation" target="_parent">
<path fill="#273434" stroke="#b75867" d="M493,-184C493,-184 389,-184 389,-184 383,-184 377,-178 377,-172 377,-172 377,-160 377,-160 377,-154 383,-148 389,-148 389,-148 493,-148 493,-148 499,-148 505,-154 505,-160 505,-160 505,-172 505,-172 505,-178 499,-184 493,-184"/>
<text text-anchor="middle" x="441" y="-162.9" font-family="sans" font-size="12.00" fill="#c4c7c7">Symmetric Relation</text>
</a>
</g>
</g>
<!-- Relation of Equivalence&#45;&gt;Symmetric Relation -->
<g id="edge13" class="edge">
<title>Relation of Equivalence&#45;&gt;Symmetric Relation</title>
<path fill="none" stroke="#b75867" d="M320.42,-111.06C334.54,-120.43 352.71,-131.77 376.65,-143.55"/>
<polygon fill="#b75867" stroke="#b75867" points="375.2,-146.74 385.73,-147.91 378.23,-140.43 375.2,-146.74"/>
</g>
<!-- Reflexive Relation -->
<g id="node10" class="node">
<title>Reflexive Relation</title>
<g id="a_node10"><a xlink:href="../Reflexive Relation.html" xlink:title="Reflexive Relation" target="_parent">
<path fill="#273434" stroke="#b75867" d="M487.5,-147C487.5,-147 394.5,-147 394.5,-147 388.5,-147 382.5,-141 382.5,-135 382.5,-135 382.5,-123 382.5,-123 382.5,-117 388.5,-111 394.5,-111 394.5,-111 487.5,-111 487.5,-111 493.5,-111 499.5,-117 499.5,-123 499.5,-123 499.5,-135 499.5,-135 499.5,-141 493.5,-147 487.5,-147"/>
<text text-anchor="middle" x="441" y="-125.9" font-family="sans" font-size="12.00" fill="#c4c7c7">Reflexive Relation</text>
</a>
</g>
</g>
<!-- Relation of Equivalence&#45;&gt;Reflexive Relation -->
<g id="edge14" class="edge">
<title>Relation of Equivalence&#45;&gt;Reflexive Relation</title>
<path fill="none" stroke="#b75867" d="M367.68,-111.11C369.22,-111.49 370.77,-111.87 372.32,-112.25"/>
<polygon fill="#b75867" stroke="#b75867" points="371.89,-115.75 382.44,-114.76 373.57,-108.96 371.89,-115.75"/>
</g>
<!-- Relation -->
<g id="node11" class="node">
<title>Relation</title>
<g id="a_node11"><a xlink:href="../Relation.html" xlink:title="Relation" target="_parent">
<path fill="#273434" stroke="#b75867" d="M461,-258C461,-258 421,-258 421,-258 415,-258 409,-252 409,-246 409,-246 409,-234 409,-234 409,-228 415,-222 421,-222 421,-222 461,-222 461,-222 467,-222 473,-228 473,-234 473,-234 473,-246 473,-246 473,-252 467,-258 461,-258"/>
<text text-anchor="middle" x="441" y="-236.9" font-family="sans" font-size="12.00" fill="#c4c7c7">Relation</text>
</a>
</g>
</g>
<!-- Relation of Equivalence&#45;&gt;Relation -->
<g id="edge15" class="edge">
<title>Relation of Equivalence&#45;&gt;Relation</title>
<path fill="none" stroke="#b75867" d="M301.84,-111.01C313.72,-138.01 339.66,-188.92 377,-218 383.56,-223.11 391.4,-227.09 399.28,-230.16"/>
<polygon fill="#b75867" stroke="#b75867" points="398.24,-233.5 408.83,-233.48 400.54,-226.89 398.24,-233.5"/>
</g>
<!-- Principle of partitions&#45;&gt;Partition -->
<g id="edge18" class="edge">
<title>Principle of partitions&#45;&gt;Partition</title>
<path fill="none" stroke="#b75867" d="M87.36,-54.05C84.01,-55.18 80.68,-56.32 74.93,-58.35"/>
<polygon fill="#b75867" stroke="#b75867" points="73.61,-55.1 65.36,-61.75 75.95,-61.7 73.61,-55.1"/>
</g>
<!-- Principle of partitions&#45;&gt;Set -->
<g id="edge19" class="edge">
<title>Principle of partitions&#45;&gt;Set</title>
<path fill="none" stroke="#b75867" d="M210.35,-23.83C212.93,-23.52 215.48,-23.24 218,-23 283.23,-16.68 359.71,-16.55 403.75,-17.18"/>
<polygon fill="#b75867" stroke="#b75867" points="403.9,-20.68 413.95,-17.34 404.01,-13.68 403.9,-20.68"/>
</g>
<!-- Combinatoric principles -->
<g id="node12" class="node">
<title>Combinatoric principles</title>
<g id="a_node12"><a xlink:href="../Combinatoric principles.html" xlink:title="Combinatoric principles" target="_parent">
<path fill="none" stroke="#b75867" d="M357,-56C357,-56 230,-56 230,-56 224,-56 218,-50 218,-44 218,-44 218,-32 218,-32 218,-26 224,-20 230,-20 230,-20 357,-20 357,-20 363,-20 369,-26 369,-32 369,-32 369,-44 369,-44 369,-50 363,-56 357,-56"/>
<text text-anchor="middle" x="293.5" y="-34.9" font-family="sans" font-size="12.00" fill="#c4c7c7">Combinatoric principles</text>
</a>
</g>
</g>
<!-- Principle of partitions&#45;&gt;Combinatoric principles -->
<g id="edge20" class="edge">
<title>Principle of partitions&#45;&gt;Combinatoric principles</title>
<path fill="none" stroke="#ffffff" d="M217.5,-37C217.66,-37 217.83,-37 218,-37.01"/>
<polygon fill="#ffffff" stroke="#ffffff" points="220.09,-33.53 210.04,-36.9 219.99,-40.53 220.09,-33.53"/>
</g>
</g>
</svg>
