<?xml version="1.0" encoding="UTF-8" standalone="no"?>
<!DOCTYPE svg PUBLIC "-//W3C//DTD SVG 1.1//EN"
 "http://www.w3.org/Graphics/SVG/1.1/DTD/svg11.dtd">
<!-- Generated by graphviz version 2.44.0 (0)
 -->
<!-- Title: Recurrent Equations Pages: 1 -->
<svg width="616pt" height="784pt"
 viewBox="0.00 0.00 616.00 784.00" xmlns="http://www.w3.org/2000/svg" xmlns:xlink="http://www.w3.org/1999/xlink">
<g id="graph0" class="graph" transform="scale(1 1) rotate(0) translate(4 780)">
<title>Recurrent Equations</title>
<polygon fill="#132020" stroke="transparent" points="-4,4 -4,-780 612,-780 612,4 -4,4"/>
<!-- Recurrent Equations -->
<g id="node1" class="node">
<title>Recurrent Equations</title>
<g id="a_node1"><a xlink:href="../Recurrent Equations.html" xlink:title="Recurrent Equations" target="_parent">
<path fill="#273434" stroke="#b75867" d="M119,-332C119,-332 12,-332 12,-332 6,-332 0,-326 0,-320 0,-320 0,-308 0,-308 0,-302 6,-296 12,-296 12,-296 119,-296 119,-296 125,-296 131,-302 131,-308 131,-308 131,-320 131,-320 131,-326 125,-332 119,-332"/>
<text text-anchor="middle" x="65.5" y="-310.9" font-family="sans" font-size="12.00" fill="#c4c7c7">Recurrent Equations</text>
</a>
</g>
</g>
<!-- Set -->
<g id="node2" class="node">
<title>Set</title>
<g id="a_node2"><a xlink:href="../Set.html" xlink:title="Set" target="_parent">
<path fill="#273434" stroke="#b75867" d="M258.5,-554C258.5,-554 228.5,-554 228.5,-554 222.5,-554 216.5,-548 216.5,-542 216.5,-542 216.5,-530 216.5,-530 216.5,-524 222.5,-518 228.5,-518 228.5,-518 258.5,-518 258.5,-518 264.5,-518 270.5,-524 270.5,-530 270.5,-530 270.5,-542 270.5,-542 270.5,-548 264.5,-554 258.5,-554"/>
<text text-anchor="middle" x="243.5" y="-532.9" font-family="sans" font-size="12.00" fill="#c4c7c7">Set</text>
</a>
</g>
</g>
<!-- Recurrent Equations&#45;&gt;Set -->
<g id="edge1" class="edge">
<title>Recurrent Equations&#45;&gt;Set</title>
<path fill="none" stroke="#b75867" d="M80.9,-332.17C112.05,-371.45 185.76,-464.44 221.86,-509.97"/>
<polygon fill="#b75867" stroke="#b75867" points="219.19,-512.23 228.15,-517.89 224.68,-507.88 219.19,-512.23"/>
</g>
<!-- Multiset -->
<g id="node3" class="node">
<title>Multiset</title>
<g id="a_node3"><a xlink:href="../Multiset.html" xlink:title="Multiset" target="_parent">
<path fill="#273434" stroke="#b75867" d="M262.5,-369C262.5,-369 224.5,-369 224.5,-369 218.5,-369 212.5,-363 212.5,-357 212.5,-357 212.5,-345 212.5,-345 212.5,-339 218.5,-333 224.5,-333 224.5,-333 262.5,-333 262.5,-333 268.5,-333 274.5,-339 274.5,-345 274.5,-345 274.5,-357 274.5,-357 274.5,-363 268.5,-369 262.5,-369"/>
<text text-anchor="middle" x="243.5" y="-347.9" font-family="sans" font-size="12.00" fill="#c4c7c7">Multiset</text>
</a>
</g>
</g>
<!-- Recurrent Equations&#45;&gt;Multiset -->
<g id="edge2" class="edge">
<title>Recurrent Equations&#45;&gt;Multiset</title>
<path fill="none" stroke="#b75867" d="M131.04,-327.57C154.98,-332.6 181.42,-338.16 202.54,-342.6"/>
<polygon fill="#b75867" stroke="#b75867" points="201.94,-346.05 212.45,-344.68 203.38,-339.2 201.94,-346.05"/>
</g>
<!-- Fundamental Theorem of Algebra -->
<g id="node4" class="node">
<title>Fundamental Theorem of Algebra</title>
<g id="a_node4"><a xlink:href="../Fundamental Theorem of Algebra.html" xlink:title="Fundamental Theorem of Algebra" target="_parent">
<path fill="#273434" stroke="#b75867" d="M336,-332C336,-332 151,-332 151,-332 145,-332 139,-326 139,-320 139,-320 139,-308 139,-308 139,-302 145,-296 151,-296 151,-296 336,-296 336,-296 342,-296 348,-302 348,-308 348,-308 348,-320 348,-320 348,-326 342,-332 336,-332"/>
<text text-anchor="middle" x="243.5" y="-310.9" font-family="sans" font-size="12.00" fill="#c4c7c7">Fundamental Theorem of Algebra</text>
</a>
</g>
</g>
<!-- Recurrent Equations&#45;&gt;Fundamental Theorem of Algebra -->
<g id="edge3" class="edge">
<title>Recurrent Equations&#45;&gt;Fundamental Theorem of Algebra</title>
<path fill="none" stroke="#b75867" d="M131.04,-314C131.2,-314 131.36,-314 131.52,-314"/>
<polygon fill="#b75867" stroke="#b75867" points="128.76,-317.5 138.76,-314 128.76,-310.5 128.76,-317.5"/>
</g>
<!-- Chebyshev Polynomial -->
<g id="node5" class="node">
<title>Chebyshev Polynomial</title>
<g id="a_node5"><a xlink:href="../Chebyshev Polynomial.html" xlink:title="Chebyshev Polynomial" target="_parent">
<path fill="none" stroke="#b75867" d="M304,-295C304,-295 183,-295 183,-295 177,-295 171,-289 171,-283 171,-283 171,-271 171,-271 171,-265 177,-259 183,-259 183,-259 304,-259 304,-259 310,-259 316,-265 316,-271 316,-271 316,-283 316,-283 316,-289 310,-295 304,-295"/>
<text text-anchor="middle" x="243.5" y="-273.9" font-family="sans" font-size="12.00" fill="#c4c7c7">Chebyshev Polynomial</text>
</a>
</g>
</g>
<!-- Recurrent Equations&#45;&gt;Chebyshev Polynomial -->
<g id="edge4" class="edge">
<title>Recurrent Equations&#45;&gt;Chebyshev Polynomial</title>
<path fill="none" stroke="#ffffff" d="M140.87,-298.37C150.8,-296.28 160.96,-294.14 170.84,-292.06"/>
<polygon fill="#ffffff" stroke="#ffffff" points="140.1,-294.95 131.04,-300.43 141.54,-301.8 140.1,-294.95"/>
</g>
<!-- Discrete Structures -->
<g id="node6" class="node">
<title>Discrete Structures</title>
<g id="a_node6"><a xlink:href="../Discrete Structures.html" xlink:title="Discrete Structures" target="_parent">
<path fill="none" stroke="#b75867" d="M292.5,-184C292.5,-184 194.5,-184 194.5,-184 188.5,-184 182.5,-178 182.5,-172 182.5,-172 182.5,-160 182.5,-160 182.5,-154 188.5,-148 194.5,-148 194.5,-148 292.5,-148 292.5,-148 298.5,-148 304.5,-154 304.5,-160 304.5,-160 304.5,-172 304.5,-172 304.5,-178 298.5,-184 292.5,-184"/>
<text text-anchor="middle" x="243.5" y="-162.9" font-family="sans" font-size="12.00" fill="#c4c7c7">Discrete Structures</text>
</a>
</g>
</g>
<!-- Recurrent Equations&#45;&gt;Discrete Structures -->
<g id="edge5" class="edge">
<title>Recurrent Equations&#45;&gt;Discrete Structures</title>
<path fill="none" stroke="#ffffff" d="M96.12,-289.1C131.47,-259.37 189.72,-210.39 221.02,-184.06"/>
<polygon fill="#ffffff" stroke="#ffffff" points="93.48,-286.74 88.08,-295.85 97.99,-292.1 93.48,-286.74"/>
</g>
<!-- Set&#45;&gt;Recurrent Equations -->
<g id="edge6" class="edge">
<title>Set&#45;&gt;Recurrent Equations</title>
<path fill="none" stroke="#ffffff" d="M221.5,-510.02C185.16,-464.53 111.48,-371.56 80.61,-332.22"/>
<polygon fill="#ffffff" stroke="#ffffff" points="218.85,-512.31 227.83,-517.94 224.32,-507.94 218.85,-512.31"/>
</g>
<!-- Reflexive Closure -->
<g id="node7" class="node">
<title>Reflexive Closure</title>
<g id="a_node7"><a xlink:href="../Reflexive Closure.html" xlink:title="Reflexive Closure" target="_parent">
<path fill="none" stroke="#b75867" d="M526.5,-776C526.5,-776 437.5,-776 437.5,-776 431.5,-776 425.5,-770 425.5,-764 425.5,-764 425.5,-752 425.5,-752 425.5,-746 431.5,-740 437.5,-740 437.5,-740 526.5,-740 526.5,-740 532.5,-740 538.5,-746 538.5,-752 538.5,-752 538.5,-764 538.5,-764 538.5,-770 532.5,-776 526.5,-776"/>
<text text-anchor="middle" x="482" y="-754.9" font-family="sans" font-size="12.00" fill="#c4c7c7">Reflexive Closure</text>
</a>
</g>
</g>
<!-- Set&#45;&gt;Reflexive Closure -->
<g id="edge7" class="edge">
<title>Set&#45;&gt;Reflexive Closure</title>
<path fill="none" stroke="#ffffff" d="M251.71,-564C264.63,-608.19 296.17,-693.45 356,-736 375.93,-750.18 402.08,-756.19 425.31,-758.46"/>
<polygon fill="#ffffff" stroke="#ffffff" points="255.03,-562.89 248.95,-554.21 248.29,-564.78 255.03,-562.89"/>
</g>
<!-- Symmetric Closure -->
<g id="node8" class="node">
<title>Symmetric Closure</title>
<g id="a_node8"><a xlink:href="../Symmetric Closure.html" xlink:title="Symmetric Closure" target="_parent">
<path fill="none" stroke="#b75867" d="M531.5,-739C531.5,-739 432.5,-739 432.5,-739 426.5,-739 420.5,-733 420.5,-727 420.5,-727 420.5,-715 420.5,-715 420.5,-709 426.5,-703 432.5,-703 432.5,-703 531.5,-703 531.5,-703 537.5,-703 543.5,-709 543.5,-715 543.5,-715 543.5,-727 543.5,-727 543.5,-733 537.5,-739 531.5,-739"/>
<text text-anchor="middle" x="482" y="-717.9" font-family="sans" font-size="12.00" fill="#c4c7c7">Symmetric Closure</text>
</a>
</g>
</g>
<!-- Set&#45;&gt;Symmetric Closure -->
<g id="edge8" class="edge">
<title>Set&#45;&gt;Symmetric Closure</title>
<path fill="none" stroke="#ffffff" d="M255.18,-563.49C271.15,-600.66 304.94,-666.09 356,-699 374.89,-711.18 398.57,-717.14 420.23,-719.91"/>
<polygon fill="#ffffff" stroke="#ffffff" points="258.41,-562.13 251.33,-554.24 251.95,-564.82 258.41,-562.13"/>
</g>
<!-- Class of equivalence -->
<g id="node9" class="node">
<title>Class of equivalence</title>
<g id="a_node9"><a xlink:href="../Class of equivalence.html" xlink:title="Class of equivalence" target="_parent">
<path fill="none" stroke="#b75867" d="M535.5,-702C535.5,-702 428.5,-702 428.5,-702 422.5,-702 416.5,-696 416.5,-690 416.5,-690 416.5,-678 416.5,-678 416.5,-672 422.5,-666 428.5,-666 428.5,-666 535.5,-666 535.5,-666 541.5,-666 547.5,-672 547.5,-678 547.5,-678 547.5,-690 547.5,-690 547.5,-696 541.5,-702 535.5,-702"/>
<text text-anchor="middle" x="482" y="-680.9" font-family="sans" font-size="12.00" fill="#c4c7c7">Class of equivalence</text>
</a>
</g>
</g>
<!-- Set&#45;&gt;Class of equivalence -->
<g id="edge9" class="edge">
<title>Set&#45;&gt;Class of equivalence</title>
<path fill="none" stroke="#ffffff" d="M260.21,-562.59C279.06,-591.95 313.5,-638.21 356,-662 374.17,-672.17 395.96,-677.83 416.22,-680.92"/>
<polygon fill="#ffffff" stroke="#ffffff" points="263.14,-560.68 254.87,-554.06 257.21,-564.4 263.14,-560.68"/>
</g>
<!-- Relation of Equivalence -->
<g id="node10" class="node">
<title>Relation of Equivalence</title>
<g id="a_node10"><a xlink:href="../Relation of Equivalence.html" xlink:title="Relation of Equivalence" target="_parent">
<path fill="none" stroke="#b75867" d="M544.5,-665C544.5,-665 419.5,-665 419.5,-665 413.5,-665 407.5,-659 407.5,-653 407.5,-653 407.5,-641 407.5,-641 407.5,-635 413.5,-629 419.5,-629 419.5,-629 544.5,-629 544.5,-629 550.5,-629 556.5,-635 556.5,-641 556.5,-641 556.5,-653 556.5,-653 556.5,-659 550.5,-665 544.5,-665"/>
<text text-anchor="middle" x="482" y="-643.9" font-family="sans" font-size="12.00" fill="#c4c7c7">Relation of Equivalence</text>
</a>
</g>
</g>
<!-- Set&#45;&gt;Relation of Equivalence -->
<g id="edge10" class="edge">
<title>Set&#45;&gt;Relation of Equivalence</title>
<path fill="none" stroke="#ffffff" d="M268.76,-561.43C289.84,-581.93 322.22,-609.76 356,-625 371.97,-632.21 390.07,-637.06 407.45,-640.32"/>
<polygon fill="#ffffff" stroke="#ffffff" points="271.09,-558.81 261.52,-554.25 266.16,-563.78 271.09,-558.81"/>
</g>
<!-- Principle of division -->
<g id="node11" class="node">
<title>Principle of division</title>
<g id="a_node11"><a xlink:href="../Principle of division.html" xlink:title="Principle of division" target="_parent">
<path fill="none" stroke="#b75867" d="M533,-628C533,-628 431,-628 431,-628 425,-628 419,-622 419,-616 419,-616 419,-604 419,-604 419,-598 425,-592 431,-592 431,-592 533,-592 533,-592 539,-592 545,-598 545,-604 545,-604 545,-616 545,-616 545,-622 539,-628 533,-628"/>
<text text-anchor="middle" x="482" y="-606.9" font-family="sans" font-size="12.00" fill="#c4c7c7">Principle of division</text>
</a>
</g>
</g>
<!-- Set&#45;&gt;Principle of division -->
<g id="edge11" class="edge">
<title>Set&#45;&gt;Principle of division</title>
<path fill="none" stroke="#ffffff" d="M279.8,-555.38C301.27,-566.42 329.56,-579.67 356,-588 376.07,-594.33 398.56,-598.99 418.87,-602.36"/>
<polygon fill="#ffffff" stroke="#ffffff" points="281.23,-552.18 270.75,-550.65 277.99,-558.38 281.23,-552.18"/>
</g>
<!-- Principle of products -->
<g id="node12" class="node">
<title>Principle of products</title>
<g id="a_node12"><a xlink:href="../Principle of products.html" xlink:title="Principle of products" target="_parent">
<path fill="none" stroke="#b75867" d="M537,-591C537,-591 427,-591 427,-591 421,-591 415,-585 415,-579 415,-579 415,-567 415,-567 415,-561 421,-555 427,-555 427,-555 537,-555 537,-555 543,-555 549,-561 549,-567 549,-567 549,-579 549,-579 549,-585 543,-591 537,-591"/>
<text text-anchor="middle" x="482" y="-569.9" font-family="sans" font-size="12.00" fill="#c4c7c7">Principle of products</text>
</a>
</g>
</g>
<!-- Set&#45;&gt;Principle of products -->
<g id="edge12" class="edge">
<title>Set&#45;&gt;Principle of products</title>
<path fill="none" stroke="#ffffff" d="M280.65,-541.66C316.24,-547.22 371.41,-555.86 414.86,-562.65"/>
<polygon fill="#ffffff" stroke="#ffffff" points="281.13,-538.19 270.71,-540.1 280.05,-545.1 281.13,-538.19"/>
</g>
<!-- Dirichlet principle -->
<g id="node13" class="node">
<title>Dirichlet principle</title>
<g id="a_node13"><a xlink:href="../Dirichlet principle.html" xlink:title="Dirichlet principle" target="_parent">
<path fill="none" stroke="#b75867" d="M528,-554C528,-554 436,-554 436,-554 430,-554 424,-548 424,-542 424,-542 424,-530 424,-530 424,-524 430,-518 436,-518 436,-518 528,-518 528,-518 534,-518 540,-524 540,-530 540,-530 540,-542 540,-542 540,-548 534,-554 528,-554"/>
<text text-anchor="middle" x="482" y="-532.9" font-family="sans" font-size="12.00" fill="#c4c7c7">Dirichlet principle</text>
</a>
</g>
</g>
<!-- Set&#45;&gt;Dirichlet principle -->
<g id="edge13" class="edge">
<title>Set&#45;&gt;Dirichlet principle</title>
<path fill="none" stroke="#ffffff" d="M280.82,-536C318.87,-536 379.18,-536 423.66,-536"/>
<polygon fill="#ffffff" stroke="#ffffff" points="280.71,-532.5 270.71,-536 280.71,-539.5 280.71,-532.5"/>
</g>
<!-- Principle of inclusion and exclusion -->
<g id="node14" class="node">
<title>Principle of inclusion and exclusion</title>
<g id="a_node14"><a xlink:href="../Principle of inclusion and exclusion.html" xlink:title="Principle of inclusion and exclusion" target="_parent">
<path fill="none" stroke="#b75867" d="M577.5,-517C577.5,-517 386.5,-517 386.5,-517 380.5,-517 374.5,-511 374.5,-505 374.5,-505 374.5,-493 374.5,-493 374.5,-487 380.5,-481 386.5,-481 386.5,-481 577.5,-481 577.5,-481 583.5,-481 589.5,-487 589.5,-493 589.5,-493 589.5,-505 589.5,-505 589.5,-511 583.5,-517 577.5,-517"/>
<text text-anchor="middle" x="482" y="-495.9" font-family="sans" font-size="12.00" fill="#c4c7c7">Principle of inclusion and exclusion</text>
</a>
</g>
</g>
<!-- Set&#45;&gt;Principle of inclusion and exclusion -->
<g id="edge14" class="edge">
<title>Set&#45;&gt;Principle of inclusion and exclusion</title>
<path fill="none" stroke="#ffffff" d="M280.87,-530.31C306.01,-526.38 340.87,-520.92 374.46,-515.67"/>
<polygon fill="#ffffff" stroke="#ffffff" points="280.05,-526.9 270.71,-531.9 281.13,-533.81 280.05,-526.9"/>
</g>
<!-- Differential Analysis -->
<g id="node15" class="node">
<title>Differential Analysis</title>
<g id="a_node15"><a xlink:href="../Differential Analysis.html" xlink:title="Differential Analysis" target="_parent">
<path fill="none" stroke="#b75867" d="M533.5,-480C533.5,-480 430.5,-480 430.5,-480 424.5,-480 418.5,-474 418.5,-468 418.5,-468 418.5,-456 418.5,-456 418.5,-450 424.5,-444 430.5,-444 430.5,-444 533.5,-444 533.5,-444 539.5,-444 545.5,-450 545.5,-456 545.5,-456 545.5,-468 545.5,-468 545.5,-474 539.5,-480 533.5,-480"/>
<text text-anchor="middle" x="482" y="-458.9" font-family="sans" font-size="12.00" fill="#c4c7c7">Differential Analysis</text>
</a>
</g>
</g>
<!-- Set&#45;&gt;Differential Analysis -->
<g id="edge15" class="edge">
<title>Set&#45;&gt;Differential Analysis</title>
<path fill="none" stroke="#ffffff" d="M279.8,-516.62C301.27,-505.58 329.56,-492.33 356,-484 375.86,-477.74 398.09,-473.11 418.24,-469.75"/>
<polygon fill="#ffffff" stroke="#ffffff" points="277.99,-513.62 270.75,-521.35 281.23,-519.82 277.99,-513.62"/>
</g>
<!-- Principle of partitions -->
<g id="node16" class="node">
<title>Principle of partitions</title>
<g id="a_node16"><a xlink:href="../Principle of partitions.html" xlink:title="Principle of partitions" target="_parent">
<path fill="none" stroke="#b75867" d="M538.5,-443C538.5,-443 425.5,-443 425.5,-443 419.5,-443 413.5,-437 413.5,-431 413.5,-431 413.5,-419 413.5,-419 413.5,-413 419.5,-407 425.5,-407 425.5,-407 538.5,-407 538.5,-407 544.5,-407 550.5,-413 550.5,-419 550.5,-419 550.5,-431 550.5,-431 550.5,-437 544.5,-443 538.5,-443"/>
<text text-anchor="middle" x="482" y="-421.9" font-family="sans" font-size="12.00" fill="#c4c7c7">Principle of partitions</text>
</a>
</g>
</g>
<!-- Set&#45;&gt;Principle of partitions -->
<g id="edge16" class="edge">
<title>Set&#45;&gt;Principle of partitions</title>
<path fill="none" stroke="#ffffff" d="M268.76,-510.57C289.84,-490.07 322.22,-462.24 356,-447 373.77,-438.98 394.2,-433.87 413.32,-430.63"/>
<polygon fill="#ffffff" stroke="#ffffff" points="266.16,-508.22 261.52,-517.75 271.09,-513.19 266.16,-508.22"/>
</g>
<!-- Principle of the bijection -->
<g id="node17" class="node">
<title>Principle of the bijection</title>
<g id="a_node17"><a xlink:href="../Principle of the bijection.html" xlink:title="Principle of the bijection" target="_parent">
<path fill="none" stroke="#b75867" d="M547,-406C547,-406 417,-406 417,-406 411,-406 405,-400 405,-394 405,-394 405,-382 405,-382 405,-376 411,-370 417,-370 417,-370 547,-370 547,-370 553,-370 559,-376 559,-382 559,-382 559,-394 559,-394 559,-400 553,-406 547,-406"/>
<text text-anchor="middle" x="482" y="-384.9" font-family="sans" font-size="12.00" fill="#c4c7c7">Principle of the bijection</text>
</a>
</g>
</g>
<!-- Set&#45;&gt;Principle of the bijection -->
<g id="edge17" class="edge">
<title>Set&#45;&gt;Principle of the bijection</title>
<path fill="none" stroke="#ffffff" d="M260.21,-509.41C279.06,-480.05 313.5,-433.79 356,-410 370.81,-401.71 388.01,-396.42 404.84,-393.07"/>
<polygon fill="#ffffff" stroke="#ffffff" points="257.21,-507.6 254.87,-517.94 263.14,-511.32 257.21,-507.6"/>
</g>
<!-- Multiset&#45;&gt;Recurrent Equations -->
<g id="edge18" class="edge">
<title>Multiset&#45;&gt;Recurrent Equations</title>
<path fill="none" stroke="#ffffff" d="M202.54,-343.24C181.42,-338.91 154.98,-333.38 131.04,-328.29"/>
<polygon fill="#ffffff" stroke="#ffffff" points="201.95,-346.69 212.45,-345.26 203.35,-339.83 201.95,-346.69"/>
</g>
<!-- Fundamental Theorem of Algebra&#45;&gt;Recurrent Equations -->
<g id="edge19" class="edge">
<title>Fundamental Theorem of Algebra&#45;&gt;Recurrent Equations</title>
<path fill="none" stroke="#ffffff" d="M131.52,-314.73C131.36,-314.73 131.2,-314.73 131.04,-314.73"/>
<polygon fill="#ffffff" stroke="#ffffff" points="128.76,-318.22 138.76,-314.74 128.77,-311.22 128.76,-318.22"/>
</g>
<!-- Linear Algebra -->
<g id="node18" class="node">
<title>Linear Algebra</title>
<g id="a_node18"><a xlink:href="../Linear Algebra.html" xlink:title="Linear Algebra" target="_parent">
<path fill="none" stroke="#b75867" d="M519,-369C519,-369 445,-369 445,-369 439,-369 433,-363 433,-357 433,-357 433,-345 433,-345 433,-339 439,-333 445,-333 445,-333 519,-333 519,-333 525,-333 531,-339 531,-345 531,-345 531,-357 531,-357 531,-363 525,-369 519,-369"/>
<text text-anchor="middle" x="482" y="-347.9" font-family="sans" font-size="12.00" fill="#c4c7c7">Linear Algebra</text>
</a>
</g>
</g>
<!-- Fundamental Theorem of Algebra&#45;&gt;Linear Algebra -->
<g id="edge20" class="edge">
<title>Fundamental Theorem of Algebra&#45;&gt;Linear Algebra</title>
<path fill="none" stroke="#ffffff" d="M358.26,-331.8C384.51,-335.9 411.04,-340.06 432.7,-343.44"/>
<polygon fill="#ffffff" stroke="#ffffff" points="358.65,-328.32 348.23,-330.23 357.57,-335.23 358.65,-328.32"/>
</g>
<!-- Lagrange Interpolation Problem -->
<g id="node19" class="node">
<title>Lagrange Interpolation Problem</title>
<g id="a_node19"><a xlink:href="../Lagrange Interpolation Problem.html" xlink:title="Lagrange Interpolation Problem" target="_parent">
<path fill="none" stroke="#b75867" d="M569.5,-332C569.5,-332 394.5,-332 394.5,-332 388.5,-332 382.5,-326 382.5,-320 382.5,-320 382.5,-308 382.5,-308 382.5,-302 388.5,-296 394.5,-296 394.5,-296 569.5,-296 569.5,-296 575.5,-296 581.5,-302 581.5,-308 581.5,-308 581.5,-320 581.5,-320 581.5,-326 575.5,-332 569.5,-332"/>
<text text-anchor="middle" x="482" y="-310.9" font-family="sans" font-size="12.00" fill="#c4c7c7">Lagrange Interpolation Problem</text>
</a>
</g>
</g>
<!-- Fundamental Theorem of Algebra&#45;&gt;Lagrange Interpolation Problem -->
<g id="edge21" class="edge">
<title>Fundamental Theorem of Algebra&#45;&gt;Lagrange Interpolation Problem</title>
<path fill="none" stroke="#ffffff" d="M358.33,-314C366.32,-314 374.33,-314 382.23,-314"/>
<polygon fill="#ffffff" stroke="#ffffff" points="358.23,-310.5 348.23,-314 358.23,-317.5 358.23,-310.5"/>
</g>
<!-- Chebyshev Polynomial&#45;&gt;Recurrent Equations -->
<g id="edge22" class="edge">
<title>Chebyshev Polynomial&#45;&gt;Recurrent Equations</title>
<path fill="none" stroke="#b75867" d="M170.84,-292.8C160.96,-294.89 150.8,-297.03 140.87,-299.11"/>
<polygon fill="#b75867" stroke="#b75867" points="140.11,-295.69 131.04,-301.16 141.54,-302.54 140.11,-295.69"/>
</g>
<!-- Extreme points of Chebyshev polynomials -->
<g id="node20" class="node">
<title>Extreme points of Chebyshev polynomials</title>
<g id="a_node20"><a xlink:href="../Extreme points of Chebyshev polynomials.html" xlink:title="Extreme points of Chebyshev polynomials" target="_parent">
<path fill="none" stroke="#b75867" d="M596,-295C596,-295 368,-295 368,-295 362,-295 356,-289 356,-283 356,-283 356,-271 356,-271 356,-265 362,-259 368,-259 368,-259 596,-259 596,-259 602,-259 608,-265 608,-271 608,-271 608,-283 608,-283 608,-289 602,-295 596,-295"/>
<text text-anchor="middle" x="482" y="-273.9" font-family="sans" font-size="12.00" fill="#c4c7c7">Extreme points of Chebyshev polynomials</text>
</a>
</g>
</g>
<!-- Chebyshev Polynomial&#45;&gt;Extreme points of Chebyshev polynomials -->
<g id="edge23" class="edge">
<title>Chebyshev Polynomial&#45;&gt;Extreme points of Chebyshev polynomials</title>
<path fill="none" stroke="#ffffff" d="M326.34,-277C335.92,-277 345.85,-277 355.85,-277"/>
<polygon fill="#ffffff" stroke="#ffffff" points="326.1,-273.5 316.1,-277 326.1,-280.5 326.1,-273.5"/>
</g>
<!-- Discrete Structures&#45;&gt;Recurrent Equations -->
<g id="edge24" class="edge">
<title>Discrete Structures&#45;&gt;Recurrent Equations</title>
<path fill="none" stroke="#b75867" d="M221.49,-184.18C190.53,-210.51 132.49,-259.33 96.89,-289.02"/>
<polygon fill="#b75867" stroke="#b75867" points="94.23,-286.69 88.79,-295.77 98.71,-292.06 94.23,-286.69"/>
</g>
<!-- Combinatorics -->
<g id="node21" class="node">
<title>Combinatorics</title>
<g id="a_node21"><a xlink:href="../Combinatorics.html" xlink:title="Combinatorics" target="_parent">
<path fill="#273434" stroke="#b75867" d="M519,-258C519,-258 445,-258 445,-258 439,-258 433,-252 433,-246 433,-246 433,-234 433,-234 433,-228 439,-222 445,-222 445,-222 519,-222 519,-222 525,-222 531,-228 531,-234 531,-234 531,-246 531,-246 531,-252 525,-258 519,-258"/>
<text text-anchor="middle" x="482" y="-236.9" font-family="sans" font-size="12.00" fill="#c4c7c7">Combinatorics</text>
</a>
</g>
</g>
<!-- Discrete Structures&#45;&gt;Combinatorics -->
<g id="edge25" class="edge">
<title>Discrete Structures&#45;&gt;Combinatorics</title>
<path fill="none" stroke="#b75867" d="M277.25,-184.06C299,-195.35 328.5,-209.33 356,-218 377.41,-224.75 401.57,-229.61 422.91,-233.02"/>
<polygon fill="#b75867" stroke="#b75867" points="422.4,-236.48 432.81,-234.53 423.45,-229.56 422.4,-236.48"/>
</g>
<!-- Functions -->
<g id="node22" class="node">
<title>Functions</title>
<g id="a_node22"><a xlink:href="../Functions.html" xlink:title="Functions" target="_parent">
<path fill="#273434" stroke="#b75867" d="M506,-221C506,-221 458,-221 458,-221 452,-221 446,-215 446,-209 446,-209 446,-197 446,-197 446,-191 452,-185 458,-185 458,-185 506,-185 506,-185 512,-185 518,-191 518,-197 518,-197 518,-209 518,-209 518,-215 512,-221 506,-221"/>
<text text-anchor="middle" x="482" y="-199.9" font-family="sans" font-size="12.00" fill="#c4c7c7">Functions</text>
</a>
</g>
</g>
<!-- Discrete Structures&#45;&gt;Functions -->
<g id="edge26" class="edge">
<title>Discrete Structures&#45;&gt;Functions</title>
<path fill="none" stroke="#b75867" d="M304.79,-175.43C345.57,-181.81 398.57,-190.1 435.75,-195.92"/>
<polygon fill="#b75867" stroke="#b75867" points="435.37,-199.4 445.8,-197.49 436.46,-192.49 435.37,-199.4"/>
</g>
<!-- Relations -->
<g id="node23" class="node">
<title>Relations</title>
<g id="a_node23"><a xlink:href="../Relations.html" xlink:title="Relations" target="_parent">
<path fill="#273434" stroke="#b75867" d="M504.5,-184C504.5,-184 459.5,-184 459.5,-184 453.5,-184 447.5,-178 447.5,-172 447.5,-172 447.5,-160 447.5,-160 447.5,-154 453.5,-148 459.5,-148 459.5,-148 504.5,-148 504.5,-148 510.5,-148 516.5,-154 516.5,-160 516.5,-160 516.5,-172 516.5,-172 516.5,-178 510.5,-184 504.5,-184"/>
<text text-anchor="middle" x="482" y="-162.9" font-family="sans" font-size="12.00" fill="#c4c7c7">Relations</text>
</a>
</g>
</g>
<!-- Discrete Structures&#45;&gt;Relations -->
<g id="edge27" class="edge">
<title>Discrete Structures&#45;&gt;Relations</title>
<path fill="none" stroke="#b75867" d="M304.79,-166C346.2,-166 400.2,-166 437.45,-166"/>
<polygon fill="#b75867" stroke="#b75867" points="437.49,-169.5 447.49,-166 437.49,-162.5 437.49,-169.5"/>
</g>
<!-- Logical Equivalences -->
<g id="node24" class="node">
<title>Logical Equivalences</title>
<g id="a_node24"><a xlink:href="../Logical Equivalences.html" xlink:title="Logical Equivalences" target="_parent">
<path fill="#273434" stroke="#b75867" d="M536.5,-147C536.5,-147 427.5,-147 427.5,-147 421.5,-147 415.5,-141 415.5,-135 415.5,-135 415.5,-123 415.5,-123 415.5,-117 421.5,-111 427.5,-111 427.5,-111 536.5,-111 536.5,-111 542.5,-111 548.5,-117 548.5,-123 548.5,-123 548.5,-135 548.5,-135 548.5,-141 542.5,-147 536.5,-147"/>
<text text-anchor="middle" x="482" y="-125.9" font-family="sans" font-size="12.00" fill="#c4c7c7">Logical Equivalences</text>
</a>
</g>
</g>
<!-- Discrete Structures&#45;&gt;Logical Equivalences -->
<g id="edge28" class="edge">
<title>Discrete Structures&#45;&gt;Logical Equivalences</title>
<path fill="none" stroke="#b75867" d="M304.79,-156.57C335.42,-151.77 372.95,-145.9 405.49,-140.81"/>
<polygon fill="#b75867" stroke="#b75867" points="406.08,-144.26 415.42,-139.26 405,-137.35 406.08,-144.26"/>
</g>
<!-- Logical Operators -->
<g id="node25" class="node">
<title>Logical Operators</title>
<g id="a_node25"><a xlink:href="../Logical Operators.html" xlink:title="Logical Operators" target="_parent">
<path fill="#273434" stroke="#b75867" d="M528,-110C528,-110 436,-110 436,-110 430,-110 424,-104 424,-98 424,-98 424,-86 424,-86 424,-80 430,-74 436,-74 436,-74 528,-74 528,-74 534,-74 540,-80 540,-86 540,-86 540,-98 540,-98 540,-104 534,-110 528,-110"/>
<text text-anchor="middle" x="482" y="-88.9" font-family="sans" font-size="12.00" fill="#c4c7c7">Logical Operators</text>
</a>
</g>
</g>
<!-- Discrete Structures&#45;&gt;Logical Operators -->
<g id="edge29" class="edge">
<title>Discrete Structures&#45;&gt;Logical Operators</title>
<path fill="none" stroke="#b75867" d="M277.25,-147.94C299,-136.65 328.5,-122.67 356,-114 374.44,-108.19 394.92,-103.78 413.88,-100.49"/>
<polygon fill="#b75867" stroke="#b75867" points="414.64,-103.91 423.93,-98.82 413.49,-97 414.64,-103.91"/>
</g>
<!-- Subjects -->
<g id="node26" class="node">
<title>Subjects</title>
<g id="a_node26"><a xlink:href="../Subjects.html" xlink:title="Subjects" target="_parent">
<path fill="none" stroke="#b75867" d="M502.5,-73C502.5,-73 461.5,-73 461.5,-73 455.5,-73 449.5,-67 449.5,-61 449.5,-61 449.5,-49 449.5,-49 449.5,-43 455.5,-37 461.5,-37 461.5,-37 502.5,-37 502.5,-37 508.5,-37 514.5,-43 514.5,-49 514.5,-49 514.5,-61 514.5,-61 514.5,-67 508.5,-73 502.5,-73"/>
<text text-anchor="middle" x="482" y="-51.9" font-family="sans" font-size="12.00" fill="#c4c7c7">Subjects</text>
</a>
</g>
</g>
<!-- Discrete Structures&#45;&gt;Subjects -->
<g id="edge30" class="edge">
<title>Discrete Structures&#45;&gt;Subjects</title>
<path fill="none" stroke="#ffffff" d="M268.76,-140.57C289.84,-120.07 322.22,-92.24 356,-77 385.93,-63.49 423.36,-58.26 449.43,-56.24"/>
<polygon fill="#ffffff" stroke="#ffffff" points="266.16,-138.22 261.52,-147.75 271.09,-143.19 266.16,-138.22"/>
</g>
<!-- Knowledege Base -->
<g id="node27" class="node">
<title>Knowledege Base</title>
<g id="a_node27"><a xlink:href="../Knowledege Base.html" xlink:title="Knowledege Base" target="_parent">
<path fill="none" stroke="#b75867" d="M528.5,-36C528.5,-36 435.5,-36 435.5,-36 429.5,-36 423.5,-30 423.5,-24 423.5,-24 423.5,-12 423.5,-12 423.5,-6 429.5,0 435.5,0 435.5,0 528.5,0 528.5,0 534.5,0 540.5,-6 540.5,-12 540.5,-12 540.5,-24 540.5,-24 540.5,-30 534.5,-36 528.5,-36"/>
<text text-anchor="middle" x="482" y="-14.9" font-family="sans" font-size="12.00" fill="#c4c7c7">Knowledege Base</text>
</a>
</g>
</g>
<!-- Discrete Structures&#45;&gt;Knowledege Base -->
<g id="edge31" class="edge">
<title>Discrete Structures&#45;&gt;Knowledege Base</title>
<path fill="none" stroke="#ffffff" d="M260.21,-139.41C279.06,-110.05 313.5,-63.79 356,-40 376.29,-28.65 401.08,-22.91 423.22,-20.1"/>
<polygon fill="#ffffff" stroke="#ffffff" points="257.21,-137.6 254.87,-147.94 263.14,-141.32 257.21,-137.6"/>
</g>
</g>
</svg>
