<?xml version="1.0" encoding="UTF-8" standalone="no"?>
<!DOCTYPE svg PUBLIC "-//W3C//DTD SVG 1.1//EN"
 "http://www.w3.org/Graphics/SVG/1.1/DTD/svg11.dtd">
<!-- Generated by graphviz version 2.44.0 (0)
 -->
<!-- Title: Set Pages: 1 -->
<svg width="797pt" height="574pt"
 viewBox="0.00 0.00 797.00 574.00" xmlns="http://www.w3.org/2000/svg" xmlns:xlink="http://www.w3.org/1999/xlink">
<g id="graph0" class="graph" transform="scale(1 1) rotate(0) translate(4 570)">
<title>Set</title>
<polygon fill="#132020" stroke="transparent" points="-4,4 -4,-570 793,-570 793,4 -4,4"/>
<!-- Set -->
<g id="node1" class="node">
<title>Set</title>
<g id="a_node1"><a xlink:href="../Set.html" xlink:title="Set" target="_parent">
<path fill="#273434" stroke="#b75867" d="M42,-268C42,-268 12,-268 12,-268 6,-268 0,-262 0,-256 0,-256 0,-244 0,-244 0,-238 6,-232 12,-232 12,-232 42,-232 42,-232 48,-232 54,-238 54,-244 54,-244 54,-256 54,-256 54,-262 48,-268 42,-268"/>
<text text-anchor="middle" x="27" y="-246.9" font-family="sans" font-size="12.00" fill="#c4c7c7">Set</text>
</a>
</g>
</g>
<!-- Recurrent Equations -->
<g id="node2" class="node">
<title>Recurrent Equations</title>
<g id="a_node2"><a xlink:href="../Recurrent Equations.html" xlink:title="Recurrent Equations" target="_parent">
<path fill="none" stroke="#b75867" d="M223,-473C223,-473 116,-473 116,-473 110,-473 104,-467 104,-461 104,-461 104,-449 104,-449 104,-443 110,-437 116,-437 116,-437 223,-437 223,-437 229,-437 235,-443 235,-449 235,-449 235,-461 235,-461 235,-467 229,-473 223,-473"/>
<text text-anchor="middle" x="169.5" y="-451.9" font-family="sans" font-size="12.00" fill="#c4c7c7">Recurrent Equations</text>
</a>
</g>
</g>
<!-- Set&#45;&gt;Recurrent Equations -->
<g id="edge1" class="edge">
<title>Set&#45;&gt;Recurrent Equations</title>
<path fill="none" stroke="#ffffff" d="M31.37,-277.96C35.44,-302.97 44.11,-339.78 62,-367 81.37,-396.46 113.61,-421.11 137.55,-436.75"/>
<polygon fill="#ffffff" stroke="#ffffff" points="34.83,-277.4 29.89,-268.02 27.9,-278.43 34.83,-277.4"/>
</g>
<!-- Reflexive Closure -->
<g id="node3" class="node">
<title>Reflexive Closure</title>
<g id="a_node3"><a xlink:href="../Reflexive Closure.html" xlink:title="Reflexive Closure" target="_parent">
<path fill="none" stroke="#b75867" d="M434,-418C434,-418 345,-418 345,-418 339,-418 333,-412 333,-406 333,-406 333,-394 333,-394 333,-388 339,-382 345,-382 345,-382 434,-382 434,-382 440,-382 446,-388 446,-394 446,-394 446,-406 446,-406 446,-412 440,-418 434,-418"/>
<text text-anchor="middle" x="389.5" y="-396.9" font-family="sans" font-size="12.00" fill="#c4c7c7">Reflexive Closure</text>
</a>
</g>
</g>
<!-- Set&#45;&gt;Reflexive Closure -->
<g id="edge2" class="edge">
<title>Set&#45;&gt;Reflexive Closure</title>
<path fill="none" stroke="#ffffff" d="M32.31,-278.02C36.65,-296.61 45.23,-320.08 62,-334 139.31,-398.18 262.08,-405.64 332.99,-403.81"/>
<polygon fill="#ffffff" stroke="#ffffff" points="35.7,-277.11 30.26,-268.01 28.84,-278.51 35.7,-277.11"/>
</g>
<!-- Symmetric Closure -->
<g id="node4" class="node">
<title>Symmetric Closure</title>
<g id="a_node4"><a xlink:href="../Symmetric Closure.html" xlink:title="Symmetric Closure" target="_parent">
<path fill="none" stroke="#b75867" d="M439,-381C439,-381 340,-381 340,-381 334,-381 328,-375 328,-369 328,-369 328,-357 328,-357 328,-351 334,-345 340,-345 340,-345 439,-345 439,-345 445,-345 451,-351 451,-357 451,-357 451,-369 451,-369 451,-375 445,-381 439,-381"/>
<text text-anchor="middle" x="389.5" y="-359.9" font-family="sans" font-size="12.00" fill="#c4c7c7">Symmetric Closure</text>
</a>
</g>
</g>
<!-- Set&#45;&gt;Symmetric Closure -->
<g id="edge3" class="edge">
<title>Set&#45;&gt;Symmetric Closure</title>
<path fill="none" stroke="#ffffff" d="M37.04,-277.55C42.41,-289.66 50.47,-302.94 62,-311 103.87,-340.27 245.36,-353.98 327.7,-359.61"/>
<polygon fill="#ffffff" stroke="#ffffff" points="40.27,-276.19 33.3,-268.2 33.77,-278.79 40.27,-276.19"/>
</g>
<!-- Class of equivalence -->
<g id="node5" class="node">
<title>Class of equivalence</title>
<g id="a_node5"><a xlink:href="../Class of equivalence.html" xlink:title="Class of equivalence" target="_parent">
<path fill="none" stroke="#b75867" d="M223,-298C223,-298 116,-298 116,-298 110,-298 104,-292 104,-286 104,-286 104,-274 104,-274 104,-268 110,-262 116,-262 116,-262 223,-262 223,-262 229,-262 235,-268 235,-274 235,-274 235,-286 235,-286 235,-292 229,-298 223,-298"/>
<text text-anchor="middle" x="169.5" y="-276.9" font-family="sans" font-size="12.00" fill="#c4c7c7">Class of equivalence</text>
</a>
</g>
</g>
<!-- Set&#45;&gt;Class of equivalence -->
<g id="edge4" class="edge">
<title>Set&#45;&gt;Class of equivalence</title>
<path fill="none" stroke="#ffffff" d="M64.27,-258.47C80.31,-262 92.37,-264.55 103.95,-266.96"/>
<polygon fill="#ffffff" stroke="#ffffff" points="64.86,-255.02 54.34,-256.27 63.35,-261.85 64.86,-255.02"/>
</g>
<!-- Relation of Equivalence -->
<g id="node6" class="node">
<title>Relation of Equivalence</title>
<g id="a_node6"><a xlink:href="../Relation of Equivalence.html" xlink:title="Relation of Equivalence" target="_parent">
<path fill="none" stroke="#b75867" d="M452,-317C452,-317 327,-317 327,-317 321,-317 315,-311 315,-305 315,-305 315,-293 315,-293 315,-287 321,-281 327,-281 327,-281 452,-281 452,-281 458,-281 464,-287 464,-293 464,-293 464,-305 464,-305 464,-311 458,-317 452,-317"/>
<text text-anchor="middle" x="389.5" y="-295.9" font-family="sans" font-size="12.00" fill="#c4c7c7">Relation of Equivalence</text>
</a>
</g>
</g>
<!-- Set&#45;&gt;Relation of Equivalence -->
<g id="edge5" class="edge">
<title>Set&#45;&gt;Relation of Equivalence</title>
<path fill="none" stroke="#ffffff" d="M42.08,-276.74C47.31,-283.98 53.96,-290.94 62,-295 141.18,-335.02 245.57,-327.6 314.76,-315.79"/>
<polygon fill="#ffffff" stroke="#ffffff" points="44.97,-274.76 36.61,-268.26 39.09,-278.56 44.97,-274.76"/>
</g>
<!-- Principle of division -->
<g id="node7" class="node">
<title>Principle of division</title>
<g id="a_node7"><a xlink:href="../Principle of division.html" xlink:title="Principle of division" target="_parent">
<path fill="none" stroke="#b75867" d="M617,-278C617,-278 515,-278 515,-278 509,-278 503,-272 503,-266 503,-266 503,-254 503,-254 503,-248 509,-242 515,-242 515,-242 617,-242 617,-242 623,-242 629,-248 629,-254 629,-254 629,-266 629,-266 629,-272 623,-278 617,-278"/>
<text text-anchor="middle" x="566" y="-256.9" font-family="sans" font-size="12.00" fill="#c4c7c7">Principle of division</text>
</a>
</g>
</g>
<!-- Set&#45;&gt;Principle of division -->
<g id="edge6" class="edge">
<title>Set&#45;&gt;Principle of division</title>
<path fill="none" stroke="#ffffff" d="M64.57,-255.02C228.11,-267.27 409.79,-264.63 502.93,-262.09"/>
<polygon fill="#ffffff" stroke="#ffffff" points="64.56,-251.51 54.32,-254.23 64.02,-258.49 64.56,-251.51"/>
</g>
<!-- Principle of products -->
<g id="node8" class="node">
<title>Principle of products</title>
<g id="a_node8"><a xlink:href="../Principle of products.html" xlink:title="Principle of products" target="_parent">
<path fill="none" stroke="#b75867" d="M224.5,-184C224.5,-184 114.5,-184 114.5,-184 108.5,-184 102.5,-178 102.5,-172 102.5,-172 102.5,-160 102.5,-160 102.5,-154 108.5,-148 114.5,-148 114.5,-148 224.5,-148 224.5,-148 230.5,-148 236.5,-154 236.5,-160 236.5,-160 236.5,-172 236.5,-172 236.5,-178 230.5,-184 224.5,-184"/>
<text text-anchor="middle" x="169.5" y="-162.9" font-family="sans" font-size="12.00" fill="#c4c7c7">Principle of products</text>
</a>
</g>
</g>
<!-- Set&#45;&gt;Principle of products -->
<g id="edge7" class="edge">
<title>Set&#45;&gt;Principle of products</title>
<path fill="none" stroke="#ffffff" d="M37,-222.49C42.38,-210.17 50.47,-196.52 62,-188 73.69,-179.36 87.98,-173.93 102.26,-170.55"/>
<polygon fill="#ffffff" stroke="#ffffff" points="33.67,-221.39 33.25,-231.97 40.18,-223.96 33.67,-221.39"/>
</g>
<!-- Dirichlet principle -->
<g id="node9" class="node">
<title>Dirichlet principle</title>
<g id="a_node9"><a xlink:href="../Dirichlet principle.html" xlink:title="Dirichlet principle" target="_parent">
<path fill="none" stroke="#b75867" d="M215.5,-147C215.5,-147 123.5,-147 123.5,-147 117.5,-147 111.5,-141 111.5,-135 111.5,-135 111.5,-123 111.5,-123 111.5,-117 117.5,-111 123.5,-111 123.5,-111 215.5,-111 215.5,-111 221.5,-111 227.5,-117 227.5,-123 227.5,-123 227.5,-135 227.5,-135 227.5,-141 221.5,-147 215.5,-147"/>
<text text-anchor="middle" x="169.5" y="-125.9" font-family="sans" font-size="12.00" fill="#c4c7c7">Dirichlet principle</text>
</a>
</g>
</g>
<!-- Set&#45;&gt;Dirichlet principle -->
<g id="edge8" class="edge">
<title>Set&#45;&gt;Dirichlet principle</title>
<path fill="none" stroke="#ffffff" d="M30.24,-221.72C33.55,-199.28 41.75,-168.83 62,-151 75.53,-139.09 93.79,-133 111.36,-130.05"/>
<polygon fill="#ffffff" stroke="#ffffff" points="26.76,-221.33 29,-231.69 33.7,-222.2 26.76,-221.33"/>
</g>
<!-- Principle of inclusion and exclusion -->
<g id="node10" class="node">
<title>Principle of inclusion and exclusion</title>
<g id="a_node10"><a xlink:href="../Principle of inclusion and exclusion.html" xlink:title="Principle of inclusion and exclusion" target="_parent">
<path fill="none" stroke="#b75867" d="M265,-110C265,-110 74,-110 74,-110 68,-110 62,-104 62,-98 62,-98 62,-86 62,-86 62,-80 68,-74 74,-74 74,-74 265,-74 265,-74 271,-74 277,-80 277,-86 277,-86 277,-98 277,-98 277,-104 271,-110 265,-110"/>
<text text-anchor="middle" x="169.5" y="-88.9" font-family="sans" font-size="12.00" fill="#c4c7c7">Principle of inclusion and exclusion</text>
</a>
</g>
</g>
<!-- Set&#45;&gt;Principle of inclusion and exclusion -->
<g id="edge9" class="edge">
<title>Set&#45;&gt;Principle of inclusion and exclusion</title>
<path fill="none" stroke="#ffffff" d="M31.53,-221.59C36.51,-186.22 46.72,-128.66 62,-114 63.36,-112.69 64.78,-111.45 66.25,-110.28"/>
<polygon fill="#ffffff" stroke="#ffffff" points="28.02,-221.4 30.15,-231.78 34.96,-222.34 28.02,-221.4"/>
</g>
<!-- Differential Analysis -->
<g id="node11" class="node">
<title>Differential Analysis</title>
<g id="a_node11"><a xlink:href="../Differential Analysis.html" xlink:title="Differential Analysis" target="_parent">
<path fill="none" stroke="#b75867" d="M221,-73C221,-73 118,-73 118,-73 112,-73 106,-67 106,-61 106,-61 106,-49 106,-49 106,-43 112,-37 118,-37 118,-37 221,-37 221,-37 227,-37 233,-43 233,-49 233,-49 233,-61 233,-61 233,-67 227,-73 221,-73"/>
<text text-anchor="middle" x="169.5" y="-51.9" font-family="sans" font-size="12.00" fill="#c4c7c7">Differential Analysis</text>
</a>
</g>
</g>
<!-- Set&#45;&gt;Differential Analysis -->
<g id="edge10" class="edge">
<title>Set&#45;&gt;Differential Analysis</title>
<path fill="none" stroke="#ffffff" d="M29.83,-221.66C33.25,-177.96 42.14,-97.05 62,-77 73.62,-65.26 89.74,-58.98 105.93,-55.79"/>
<polygon fill="#ffffff" stroke="#ffffff" points="26.32,-221.68 29.08,-231.91 33.3,-222.19 26.32,-221.68"/>
</g>
<!-- Principle of partitions -->
<g id="node12" class="node">
<title>Principle of partitions</title>
<g id="a_node12"><a xlink:href="../Principle of partitions.html" xlink:title="Principle of partitions" target="_parent">
<path fill="none" stroke="#b75867" d="M226,-258C226,-258 113,-258 113,-258 107,-258 101,-252 101,-246 101,-246 101,-234 101,-234 101,-228 107,-222 113,-222 113,-222 226,-222 226,-222 232,-222 238,-228 238,-234 238,-234 238,-246 238,-246 238,-252 232,-258 226,-258"/>
<text text-anchor="middle" x="169.5" y="-236.9" font-family="sans" font-size="12.00" fill="#c4c7c7">Principle of partitions</text>
</a>
</g>
</g>
<!-- Set&#45;&gt;Principle of partitions -->
<g id="edge11" class="edge">
<title>Set&#45;&gt;Principle of partitions</title>
<path fill="none" stroke="#ffffff" d="M64.29,-247.42C75.47,-246.62 88.15,-245.72 100.72,-244.82"/>
<polygon fill="#ffffff" stroke="#ffffff" points="63.82,-243.94 54.1,-248.14 64.32,-250.92 63.82,-243.94"/>
</g>
<!-- Principle of the bijection -->
<g id="node13" class="node">
<title>Principle of the bijection</title>
<g id="a_node13"><a xlink:href="../Principle of the bijection.html" xlink:title="Principle of the bijection" target="_parent">
<path fill="none" stroke="#b75867" d="M234.5,-221C234.5,-221 104.5,-221 104.5,-221 98.5,-221 92.5,-215 92.5,-209 92.5,-209 92.5,-197 92.5,-197 92.5,-191 98.5,-185 104.5,-185 104.5,-185 234.5,-185 234.5,-185 240.5,-185 246.5,-191 246.5,-197 246.5,-197 246.5,-209 246.5,-209 246.5,-215 240.5,-221 234.5,-221"/>
<text text-anchor="middle" x="169.5" y="-199.9" font-family="sans" font-size="12.00" fill="#c4c7c7">Principle of the bijection</text>
</a>
</g>
</g>
<!-- Set&#45;&gt;Principle of the bijection -->
<g id="edge12" class="edge">
<title>Set&#45;&gt;Principle of the bijection</title>
<path fill="none" stroke="#ffffff" d="M58.51,-226.69C59.67,-226.08 60.83,-225.52 62,-225 71.57,-220.74 82,-217.29 92.46,-214.5"/>
<polygon fill="#ffffff" stroke="#ffffff" points="56.62,-223.74 49.83,-231.87 60.21,-229.74 56.62,-223.74"/>
</g>
<!-- Recurrent Equations&#45;&gt;Set -->
<g id="edge13" class="edge">
<title>Recurrent Equations&#45;&gt;Set</title>
<path fill="none" stroke="#b75867" d="M136.57,-436.92C112.73,-421.43 81.1,-397.06 62,-368 44,-340.62 35.34,-303.55 31.3,-278.31"/>
<polygon fill="#b75867" stroke="#b75867" points="34.74,-277.67 29.84,-268.28 27.82,-278.68 34.74,-277.67"/>
</g>
<!-- Multiset -->
<g id="node14" class="node">
<title>Multiset</title>
<g id="a_node14"><a xlink:href="../Multiset.html" xlink:title="Multiset" target="_parent">
<path fill="#273434" stroke="#b75867" d="M408.5,-529C408.5,-529 370.5,-529 370.5,-529 364.5,-529 358.5,-523 358.5,-517 358.5,-517 358.5,-505 358.5,-505 358.5,-499 364.5,-493 370.5,-493 370.5,-493 408.5,-493 408.5,-493 414.5,-493 420.5,-499 420.5,-505 420.5,-505 420.5,-517 420.5,-517 420.5,-523 414.5,-529 408.5,-529"/>
<text text-anchor="middle" x="389.5" y="-507.9" font-family="sans" font-size="12.00" fill="#c4c7c7">Multiset</text>
</a>
</g>
</g>
<!-- Recurrent Equations&#45;&gt;Multiset -->
<g id="edge14" class="edge">
<title>Recurrent Equations&#45;&gt;Multiset</title>
<path fill="none" stroke="#b75867" d="M227.92,-473.02C246.09,-478.46 266.31,-484.25 285,-489 305.83,-494.3 329.23,-499.35 348.51,-503.27"/>
<polygon fill="#b75867" stroke="#b75867" points="347.97,-506.73 358.46,-505.27 349.35,-499.87 347.97,-506.73"/>
</g>
<!-- Fundamental Theorem of Algebra -->
<g id="node15" class="node">
<title>Fundamental Theorem of Algebra</title>
<g id="a_node15"><a xlink:href="../Fundamental Theorem of Algebra.html" xlink:title="Fundamental Theorem of Algebra" target="_parent">
<path fill="#273434" stroke="#b75867" d="M482,-492C482,-492 297,-492 297,-492 291,-492 285,-486 285,-480 285,-480 285,-468 285,-468 285,-462 291,-456 297,-456 297,-456 482,-456 482,-456 488,-456 494,-462 494,-468 494,-468 494,-480 494,-480 494,-486 488,-492 482,-492"/>
<text text-anchor="middle" x="389.5" y="-470.9" font-family="sans" font-size="12.00" fill="#c4c7c7">Fundamental Theorem of Algebra</text>
</a>
</g>
</g>
<!-- Recurrent Equations&#45;&gt;Fundamental Theorem of Algebra -->
<g id="edge15" class="edge">
<title>Recurrent Equations&#45;&gt;Fundamental Theorem of Algebra</title>
<path fill="none" stroke="#b75867" d="M235.02,-460.62C247.65,-461.72 261.24,-462.91 274.93,-464.1"/>
<polygon fill="#b75867" stroke="#b75867" points="274.63,-467.59 284.9,-464.97 275.24,-460.62 274.63,-467.59"/>
</g>
<!-- Chebyshev Polynomial -->
<g id="node16" class="node">
<title>Chebyshev Polynomial</title>
<g id="a_node16"><a xlink:href="../Chebyshev Polynomial.html" xlink:title="Chebyshev Polynomial" target="_parent">
<path fill="none" stroke="#b75867" d="M450,-455C450,-455 329,-455 329,-455 323,-455 317,-449 317,-443 317,-443 317,-431 317,-431 317,-425 323,-419 329,-419 329,-419 450,-419 450,-419 456,-419 462,-425 462,-431 462,-431 462,-443 462,-443 462,-449 456,-455 450,-455"/>
<text text-anchor="middle" x="389.5" y="-433.9" font-family="sans" font-size="12.00" fill="#c4c7c7">Chebyshev Polynomial</text>
</a>
</g>
</g>
<!-- Recurrent Equations&#45;&gt;Chebyshev Polynomial -->
<g id="edge16" class="edge">
<title>Recurrent Equations&#45;&gt;Chebyshev Polynomial</title>
<path fill="none" stroke="#ffffff" d="M245.16,-448.84C268.37,-446.92 293.9,-444.81 316.89,-442.91"/>
<polygon fill="#ffffff" stroke="#ffffff" points="244.7,-445.36 235.02,-449.67 245.28,-452.34 244.7,-445.36"/>
</g>
<!-- Discrete Structures -->
<g id="node17" class="node">
<title>Discrete Structures</title>
<g id="a_node17"><a xlink:href="../Discrete Structures.html" xlink:title="Discrete Structures" target="_parent">
<path fill="none" stroke="#b75867" d="M438.5,-566C438.5,-566 340.5,-566 340.5,-566 334.5,-566 328.5,-560 328.5,-554 328.5,-554 328.5,-542 328.5,-542 328.5,-536 334.5,-530 340.5,-530 340.5,-530 438.5,-530 438.5,-530 444.5,-530 450.5,-536 450.5,-542 450.5,-542 450.5,-554 450.5,-554 450.5,-560 444.5,-566 438.5,-566"/>
<text text-anchor="middle" x="389.5" y="-544.9" font-family="sans" font-size="12.00" fill="#c4c7c7">Discrete Structures</text>
</a>
</g>
</g>
<!-- Recurrent Equations&#45;&gt;Discrete Structures -->
<g id="edge17" class="edge">
<title>Recurrent Equations&#45;&gt;Discrete Structures</title>
<path fill="none" stroke="#ffffff" d="M202.53,-479.07C224.64,-494.6 255.3,-514.06 285,-526 298.64,-531.48 313.86,-535.69 328.34,-538.88"/>
<polygon fill="#ffffff" stroke="#ffffff" points="204.37,-476.08 194.2,-473.12 200.3,-481.78 204.37,-476.08"/>
</g>
<!-- Reflexive Closure&#45;&gt;Set -->
<g id="edge20" class="edge">
<title>Reflexive Closure&#45;&gt;Set</title>
<path fill="none" stroke="#b75867" d="M332.99,-404.5C262.08,-406.64 139.31,-399.18 62,-335 44.94,-320.84 36.36,-296.82 32.09,-277.92"/>
<polygon fill="#b75867" stroke="#b75867" points="35.51,-277.17 30.14,-268.04 28.65,-278.53 35.51,-277.17"/>
</g>
<!-- Matrix -->
<g id="node18" class="node">
<title>Matrix</title>
<g id="a_node18"><a xlink:href="../Matrix.html" xlink:title="Matrix" target="_parent">
<path fill="#273434" stroke="#b75867" d="M581,-500C581,-500 551,-500 551,-500 545,-500 539,-494 539,-488 539,-488 539,-476 539,-476 539,-470 545,-464 551,-464 551,-464 581,-464 581,-464 587,-464 593,-470 593,-476 593,-476 593,-488 593,-488 593,-494 587,-500 581,-500"/>
<text text-anchor="middle" x="566" y="-478.9" font-family="sans" font-size="12.00" fill="#c4c7c7">Matrix</text>
</a>
</g>
</g>
<!-- Reflexive Closure&#45;&gt;Matrix -->
<g id="edge18" class="edge">
<title>Reflexive Closure&#45;&gt;Matrix</title>
<path fill="none" stroke="#b75867" d="M446.11,-400.32C463.5,-403.17 481.41,-409.39 494,-422 506.19,-434.22 490.6,-447.04 502,-460 509,-467.96 519.04,-473.04 529.06,-476.28"/>
<polygon fill="#b75867" stroke="#b75867" points="528.39,-479.73 538.96,-478.95 530.21,-472.97 528.39,-479.73"/>
</g>
<!-- Relation -->
<g id="node19" class="node">
<title>Relation</title>
<g id="a_node19"><a xlink:href="../Relation.html" xlink:title="Relation" target="_parent">
<path fill="#273434" stroke="#b75867" d="M586,-389C586,-389 546,-389 546,-389 540,-389 534,-383 534,-377 534,-377 534,-365 534,-365 534,-359 540,-353 546,-353 546,-353 586,-353 586,-353 592,-353 598,-359 598,-365 598,-365 598,-377 598,-377 598,-383 592,-389 586,-389"/>
<text text-anchor="middle" x="566" y="-367.9" font-family="sans" font-size="12.00" fill="#c4c7c7">Relation</text>
</a>
</g>
</g>
<!-- Reflexive Closure&#45;&gt;Relation -->
<g id="edge19" class="edge">
<title>Reflexive Closure&#45;&gt;Relation</title>
<path fill="none" stroke="#b75867" d="M446.19,-390.74C471.48,-386.54 500.85,-381.66 524.06,-377.8"/>
<polygon fill="#b75867" stroke="#b75867" points="524.64,-381.26 533.93,-376.16 523.49,-374.35 524.64,-381.26"/>
</g>
<!-- Reflexive Relation -->
<g id="node20" class="node">
<title>Reflexive Relation</title>
<g id="a_node20"><a xlink:href="../Reflexive Relation.html" xlink:title="Reflexive Relation" target="_parent">
<path fill="#273434" stroke="#b75867" d="M612.5,-426C612.5,-426 519.5,-426 519.5,-426 513.5,-426 507.5,-420 507.5,-414 507.5,-414 507.5,-402 507.5,-402 507.5,-396 513.5,-390 519.5,-390 519.5,-390 612.5,-390 612.5,-390 618.5,-390 624.5,-396 624.5,-402 624.5,-402 624.5,-414 624.5,-414 624.5,-420 618.5,-426 612.5,-426"/>
<text text-anchor="middle" x="566" y="-404.9" font-family="sans" font-size="12.00" fill="#c4c7c7">Reflexive Relation</text>
</a>
</g>
</g>
<!-- Reflexive Closure&#45;&gt;Reflexive Relation -->
<g id="edge21" class="edge">
<title>Reflexive Closure&#45;&gt;Reflexive Relation</title>
<path fill="none" stroke="#b75867" d="M446.19,-402.55C462.38,-403.3 480.25,-404.11 497.1,-404.89"/>
<polygon fill="#b75867" stroke="#b75867" points="497.29,-408.4 507.44,-405.36 497.61,-401.41 497.29,-408.4"/>
</g>
<!-- Relations -->
<g id="node21" class="node">
<title>Relations</title>
<g id="a_node21"><a xlink:href="../Relations.html" xlink:title="Relations" target="_parent">
<path fill="none" stroke="#b75867" d="M588.5,-463C588.5,-463 543.5,-463 543.5,-463 537.5,-463 531.5,-457 531.5,-451 531.5,-451 531.5,-439 531.5,-439 531.5,-433 537.5,-427 543.5,-427 543.5,-427 588.5,-427 588.5,-427 594.5,-427 600.5,-433 600.5,-439 600.5,-439 600.5,-451 600.5,-451 600.5,-457 594.5,-463 588.5,-463"/>
<text text-anchor="middle" x="566" y="-441.9" font-family="sans" font-size="12.00" fill="#c4c7c7">Relations</text>
</a>
</g>
</g>
<!-- Reflexive Closure&#45;&gt;Relations -->
<g id="edge22" class="edge">
<title>Reflexive Closure&#45;&gt;Relations</title>
<path fill="none" stroke="#ffffff" d="M456.09,-412.87C468.73,-415.65 481.82,-418.74 494,-422 506.27,-425.28 519.55,-429.42 531.27,-433.28"/>
<polygon fill="#ffffff" stroke="#ffffff" points="456.59,-409.39 446.08,-410.71 455.11,-416.24 456.59,-409.39"/>
</g>
<!-- Reflexive Closure&#45;&gt;Relations -->
<g id="edge23" class="edge">
<title>Reflexive Closure&#45;&gt;Relations</title>
<path fill="none" stroke="#ffffff" d="M456.09,-413.85C468.73,-416.65 481.82,-419.74 494,-423 506.27,-426.28 519.55,-430.42 531.27,-434.22"/>
<polygon fill="#ffffff" stroke="#ffffff" points="456.59,-410.38 446.08,-411.67 455.1,-417.21 456.59,-410.38"/>
</g>
<!-- Symmetric Closure&#45;&gt;Set -->
<g id="edge26" class="edge">
<title>Symmetric Closure&#45;&gt;Set</title>
<path fill="none" stroke="#b75867" d="M327.7,-360.28C245.36,-354.98 103.87,-341.27 62,-312 50.24,-303.78 42.09,-290.12 36.72,-277.71"/>
<polygon fill="#b75867" stroke="#b75867" points="39.89,-276.2 32.99,-268.15 33.36,-278.74 39.89,-276.2"/>
</g>
<!-- Symmetric Closure&#45;&gt;Matrix -->
<g id="edge24" class="edge">
<title>Symmetric Closure&#45;&gt;Matrix</title>
<path fill="none" stroke="#b75867" d="M451.19,-363.37C467.21,-366.5 483.05,-372.86 494,-385 516.45,-409.89 481.17,-433.74 502,-460 508.71,-468.46 518.89,-473.68 529.11,-476.89"/>
<polygon fill="#b75867" stroke="#b75867" points="528.27,-480.29 538.83,-479.4 530.02,-473.51 528.27,-480.29"/>
</g>
<!-- Symmetric Closure&#45;&gt;Relation -->
<g id="edge25" class="edge">
<title>Symmetric Closure&#45;&gt;Relation</title>
<path fill="none" stroke="#b75867" d="M451.04,-365.78C475.07,-366.88 502.08,-368.12 523.78,-369.11"/>
<polygon fill="#b75867" stroke="#b75867" points="523.81,-372.62 533.96,-369.58 524.13,-365.62 523.81,-372.62"/>
</g>
<!-- Symmetric Closure&#45;&gt;Relations -->
<g id="edge28" class="edge">
<title>Symmetric Closure&#45;&gt;Relations</title>
<path fill="none" stroke="#ffffff" d="M461.14,-366.7C473.39,-370.29 485.04,-376.02 494,-385 506.19,-397.22 490.6,-410.04 502,-423 509.5,-431.53 520.49,-436.75 531.19,-439.95"/>
<polygon fill="#ffffff" stroke="#ffffff" points="461.78,-363.25 451.23,-364.26 460.11,-370.05 461.78,-363.25"/>
</g>
<!-- Symmetric Closure&#45;&gt;Relations -->
<g id="edge29" class="edge">
<title>Symmetric Closure&#45;&gt;Relations</title>
<path fill="none" stroke="#ffffff" d="M461.14,-367.68C473.39,-371.29 485.04,-377.02 494,-386 506.19,-398.22 490.6,-411.04 502,-424 509.5,-432.53 520.49,-437.75 531.19,-440.89"/>
<polygon fill="#ffffff" stroke="#ffffff" points="461.78,-364.23 451.23,-365.22 460.1,-371.03 461.78,-364.23"/>
</g>
<!-- Symmetric Relation -->
<g id="node22" class="node">
<title>Symmetric Relation</title>
<g id="a_node22"><a xlink:href="../Symmetric Relation.html" xlink:title="Symmetric Relation" target="_parent">
<path fill="#273434" stroke="#b75867" d="M618,-352C618,-352 514,-352 514,-352 508,-352 502,-346 502,-340 502,-340 502,-328 502,-328 502,-322 508,-316 514,-316 514,-316 618,-316 618,-316 624,-316 630,-322 630,-328 630,-328 630,-340 630,-340 630,-346 624,-352 618,-352"/>
<text text-anchor="middle" x="566" y="-330.9" font-family="sans" font-size="12.00" fill="#c4c7c7">Symmetric Relation</text>
</a>
</g>
</g>
<!-- Symmetric Closure&#45;&gt;Symmetric Relation -->
<g id="edge27" class="edge">
<title>Symmetric Closure&#45;&gt;Symmetric Relation</title>
<path fill="none" stroke="#b75867" d="M451.04,-352.94C464.14,-350.76 478.13,-348.44 491.66,-346.19"/>
<polygon fill="#b75867" stroke="#b75867" points="492.61,-349.58 501.9,-344.49 491.46,-342.67 492.61,-349.58"/>
</g>
<!-- Class of equivalence&#45;&gt;Set -->
<g id="edge31" class="edge">
<title>Class of equivalence&#45;&gt;Set</title>
<path fill="none" stroke="#b75867" d="M103.95,-267.94C92.37,-265.55 80.31,-263 64.27,-259.47"/>
<polygon fill="#b75867" stroke="#b75867" points="64.86,-256.01 54.34,-257.27 63.35,-262.85 64.86,-256.01"/>
</g>
<!-- Class of equivalence&#45;&gt;Relation of Equivalence -->
<g id="edge32" class="edge">
<title>Class of equivalence&#45;&gt;Relation of Equivalence</title>
<path fill="none" stroke="#b75867" d="M235.02,-285.62C256.9,-287.53 281.65,-289.69 304.8,-291.71"/>
<polygon fill="#b75867" stroke="#b75867" points="304.69,-295.21 314.96,-292.59 305.3,-288.24 304.69,-295.21"/>
</g>
<!-- Class of equivalence&#45;&gt;Principle of division -->
<g id="edge33" class="edge">
<title>Class of equivalence&#45;&gt;Principle of division</title>
<path fill="none" stroke="#ffffff" d="M245.27,-278.82C310.9,-277.4 408.88,-274.37 494,-268 496.85,-267.79 499.75,-267.55 502.69,-267.29"/>
<polygon fill="#ffffff" stroke="#ffffff" points="244.95,-275.32 235.03,-279.03 245.1,-282.32 244.95,-275.32"/>
</g>
<!-- Class of equivalence&#45;&gt;Relations -->
<g id="edge34" class="edge">
<title>Class of equivalence&#45;&gt;Relations</title>
<path fill="none" stroke="#ffffff" d="M244.84,-297.09C255.94,-300.93 267.01,-305.53 277,-311 281.14,-313.27 280.69,-316.06 285,-318 327.69,-337.25 461.32,-311.45 494,-345 506.16,-357.48 491.2,-409.33 502,-423 509.18,-432.09 520.36,-437.44 531.33,-440.58"/>
<polygon fill="#ffffff" stroke="#ffffff" points="245.69,-293.69 235.1,-293.91 243.52,-300.34 245.69,-293.69"/>
</g>
<!-- Partition -->
<g id="node23" class="node">
<title>Partition</title>
<g id="a_node23"><a xlink:href="../Partition.html" xlink:title="Partition" target="_parent">
<path fill="#273434" stroke="#b75867" d="M586.5,-241C586.5,-241 545.5,-241 545.5,-241 539.5,-241 533.5,-235 533.5,-229 533.5,-229 533.5,-217 533.5,-217 533.5,-211 539.5,-205 545.5,-205 545.5,-205 586.5,-205 586.5,-205 592.5,-205 598.5,-211 598.5,-217 598.5,-217 598.5,-229 598.5,-229 598.5,-235 592.5,-241 586.5,-241"/>
<text text-anchor="middle" x="566" y="-219.9" font-family="sans" font-size="12.00" fill="#c4c7c7">Partition</text>
</a>
</g>
</g>
<!-- Class of equivalence&#45;&gt;Partition -->
<g id="edge30" class="edge">
<title>Class of equivalence&#45;&gt;Partition</title>
<path fill="none" stroke="#b75867" d="M235.2,-270.65C316.71,-258.88 454.4,-238.98 523.23,-229.04"/>
<polygon fill="#b75867" stroke="#b75867" points="523.87,-232.48 533.26,-227.59 522.87,-225.55 523.87,-232.48"/>
</g>
<!-- Relation of Equivalence&#45;&gt;Set -->
<g id="edge36" class="edge">
<title>Relation of Equivalence&#45;&gt;Set</title>
<path fill="none" stroke="#b75867" d="M314.76,-316.57C245.57,-328.6 141.18,-336.02 62,-296 53.71,-291.81 46.89,-284.54 41.6,-277.01"/>
<polygon fill="#b75867" stroke="#b75867" points="44.36,-274.82 36.08,-268.2 38.43,-278.54 44.36,-274.82"/>
</g>
<!-- Relation of Equivalence&#45;&gt;Class of equivalence -->
<g id="edge35" class="edge">
<title>Relation of Equivalence&#45;&gt;Class of equivalence</title>
<path fill="none" stroke="#b75867" d="M314.96,-293.3C292.49,-291.39 267.76,-289.24 245.21,-287.23"/>
<polygon fill="#b75867" stroke="#b75867" points="245.29,-283.72 235.02,-286.32 244.67,-290.69 245.29,-283.72"/>
</g>
<!-- Relation of Equivalence&#45;&gt;Principle of division -->
<g id="edge42" class="edge">
<title>Relation of Equivalence&#45;&gt;Principle of division</title>
<path fill="none" stroke="#ffffff" d="M474.24,-280.28C483.86,-278.13 493.54,-275.97 502.81,-273.9"/>
<polygon fill="#ffffff" stroke="#ffffff" points="473.25,-276.92 464.25,-282.52 474.77,-283.75 473.25,-276.92"/>
</g>
<!-- Relation of Equivalence&#45;&gt;Relation -->
<g id="edge41" class="edge">
<title>Relation of Equivalence&#45;&gt;Relation</title>
<path fill="none" stroke="#b75867" d="M464.09,-309.42C475.05,-313.52 485.5,-319.19 494,-327 501.66,-334.04 494.6,-341.69 502,-349 508.16,-355.08 516.1,-359.49 524.24,-362.68"/>
<polygon fill="#b75867" stroke="#b75867" points="523.22,-366.03 533.81,-365.9 525.45,-359.39 523.22,-366.03"/>
</g>
<!-- Relation of Equivalence&#45;&gt;Reflexive Relation -->
<g id="edge40" class="edge">
<title>Relation of Equivalence&#45;&gt;Reflexive Relation</title>
<path fill="none" stroke="#b75867" d="M464.04,-307.32C475.41,-311.63 486.02,-317.91 494,-327 509.48,-344.63 490.64,-361.27 501.57,-382.87"/>
<polygon fill="#b75867" stroke="#b75867" points="498.85,-385.09 507.36,-391.41 504.64,-381.17 498.85,-385.09"/>
</g>
<!-- Relation of Equivalence&#45;&gt;Relations -->
<g id="edge43" class="edge">
<title>Relation of Equivalence&#45;&gt;Relations</title>
<path fill="none" stroke="#ffffff" d="M473.32,-310.93C481.19,-314.95 488.33,-320.2 494,-327 507.71,-343.44 488.89,-406.08 502,-423 509.09,-432.16 520.26,-437.52 531.23,-440.65"/>
<polygon fill="#ffffff" stroke="#ffffff" points="474.73,-307.72 464.17,-306.88 471.9,-314.13 474.73,-307.72"/>
</g>
<!-- Relation of Equivalence&#45;&gt;Symmetric Relation -->
<g id="edge39" class="edge">
<title>Relation of Equivalence&#45;&gt;Symmetric Relation</title>
<path fill="none" stroke="#b75867" d="M464.25,-313.79C473.47,-315.64 482.9,-317.53 492.11,-319.38"/>
<polygon fill="#b75867" stroke="#b75867" points="491.5,-322.83 502,-321.36 492.88,-315.96 491.5,-322.83"/>
</g>
<!-- Relation of Equivalence&#45;&gt;Partition -->
<g id="edge37" class="edge">
<title>Relation of Equivalence&#45;&gt;Partition</title>
<path fill="none" stroke="#b75867" d="M464.25,-286.43C475.2,-282.01 485.6,-276.04 494,-268 501.82,-260.52 494.35,-252.66 502,-245 508.06,-238.93 515.88,-234.53 523.95,-231.35"/>
<polygon fill="#b75867" stroke="#b75867" points="525.08,-234.66 533.42,-228.13 522.83,-228.03 525.08,-234.66"/>
</g>
<!-- Transitive Relation -->
<g id="node24" class="node">
<title>Transitive Relation</title>
<g id="a_node24"><a xlink:href="../Transitive Relation.html" xlink:title="Transitive Relation" target="_parent">
<path fill="#273434" stroke="#b75867" d="M614.5,-315C614.5,-315 517.5,-315 517.5,-315 511.5,-315 505.5,-309 505.5,-303 505.5,-303 505.5,-291 505.5,-291 505.5,-285 511.5,-279 517.5,-279 517.5,-279 614.5,-279 614.5,-279 620.5,-279 626.5,-285 626.5,-291 626.5,-291 626.5,-303 626.5,-303 626.5,-309 620.5,-315 614.5,-315"/>
<text text-anchor="middle" x="566" y="-293.9" font-family="sans" font-size="12.00" fill="#c4c7c7">Transitive Relation</text>
</a>
</g>
</g>
<!-- Relation of Equivalence&#45;&gt;Transitive Relation -->
<g id="edge38" class="edge">
<title>Relation of Equivalence&#45;&gt;Transitive Relation</title>
<path fill="none" stroke="#b75867" d="M464.25,-298.15C474.51,-298.04 485.02,-297.92 495.2,-297.8"/>
<polygon fill="#b75867" stroke="#b75867" points="495.28,-301.3 505.24,-297.68 495.2,-294.3 495.28,-301.3"/>
</g>
<!-- Principle of division&#45;&gt;Set -->
<g id="edge46" class="edge">
<title>Principle of division&#45;&gt;Set</title>
<path fill="none" stroke="#b75867" d="M502.93,-262.73C409.79,-265.62 228.11,-268.27 64.57,-256.02"/>
<polygon fill="#b75867" stroke="#b75867" points="64.56,-252.51 54.32,-255.23 64.02,-259.48 64.56,-252.51"/>
</g>
<!-- Principle of division&#45;&gt;Class of equivalence -->
<g id="edge44" class="edge">
<title>Principle of division&#45;&gt;Class of equivalence</title>
<path fill="none" stroke="#b75867" d="M502.69,-268.29C499.75,-268.55 496.85,-268.79 494,-269 408.88,-275.37 310.9,-278.4 245.27,-279.61"/>
<polygon fill="#b75867" stroke="#b75867" points="244.96,-276.11 235.03,-279.79 245.09,-283.11 244.96,-276.11"/>
</g>
<!-- Principle of division&#45;&gt;Relation of Equivalence -->
<g id="edge45" class="edge">
<title>Principle of division&#45;&gt;Relation of Equivalence</title>
<path fill="none" stroke="#b75867" d="M502.81,-274.62C493.54,-276.71 483.86,-278.89 474.24,-281.03"/>
<polygon fill="#b75867" stroke="#b75867" points="473.25,-277.67 464.25,-283.26 474.77,-284.5 473.25,-277.67"/>
</g>
<!-- Combinatoric principles -->
<g id="node25" class="node">
<title>Combinatoric principles</title>
<g id="a_node25"><a xlink:href="../Combinatoric principles.html" xlink:title="Combinatoric principles" target="_parent">
<path fill="none" stroke="#b75867" d="M777,-185C777,-185 650,-185 650,-185 644,-185 638,-179 638,-173 638,-173 638,-161 638,-161 638,-155 644,-149 650,-149 650,-149 777,-149 777,-149 783,-149 789,-155 789,-161 789,-161 789,-173 789,-173 789,-179 783,-185 777,-185"/>
<text text-anchor="middle" x="713.5" y="-163.9" font-family="sans" font-size="12.00" fill="#c4c7c7">Combinatoric principles</text>
</a>
</g>
</g>
<!-- Principle of division&#45;&gt;Combinatoric principles -->
<g id="edge47" class="edge">
<title>Principle of division&#45;&gt;Combinatoric principles</title>
<path fill="none" stroke="#ffffff" d="M631.45,-236.69C659.57,-219.38 681.09,-199.53 695.34,-185.22"/>
<polygon fill="#ffffff" stroke="#ffffff" points="629.34,-233.87 622.51,-241.97 632.9,-239.9 629.34,-233.87"/>
</g>
<!-- Principle of products&#45;&gt;Set -->
<g id="edge48" class="edge">
<title>Principle of products&#45;&gt;Set</title>
<path fill="none" stroke="#b75867" d="M102.26,-171.53C87.98,-174.93 73.69,-180.36 62,-189 50.7,-197.35 42.71,-210.62 37.33,-222.65"/>
<polygon fill="#b75867" stroke="#b75867" points="34.09,-221.34 33.56,-231.92 40.57,-223.98 34.09,-221.34"/>
</g>
<!-- Principle of products&#45;&gt;Combinatoric principles -->
<g id="edge49" class="edge">
<title>Principle of products&#45;&gt;Combinatoric principles</title>
<path fill="none" stroke="#ffffff" d="M246.77,-166.14C350.43,-166.33 534.64,-166.67 637.59,-166.86"/>
<polygon fill="#ffffff" stroke="#ffffff" points="246.7,-162.64 236.69,-166.12 246.68,-169.64 246.7,-162.64"/>
</g>
<!-- Dirichlet principle&#45;&gt;Set -->
<g id="edge51" class="edge">
<title>Dirichlet principle&#45;&gt;Set</title>
<path fill="none" stroke="#b75867" d="M111.36,-131C93.79,-134 75.53,-140.09 62,-152 41.96,-169.65 33.72,-199.66 30.34,-221.83"/>
<polygon fill="#b75867" stroke="#b75867" points="26.84,-221.64 29.04,-232 33.78,-222.52 26.84,-221.64"/>
</g>
<!-- Dirichlet principle&#45;&gt;Combinatoric principles -->
<g id="edge52" class="edge">
<title>Dirichlet principle&#45;&gt;Combinatoric principles</title>
<path fill="none" stroke="#ffffff" d="M237.79,-126.35C303.32,-124.49 405.69,-123.5 494,-131 542.17,-135.09 595.74,-143.85 637.78,-151.7"/>
<polygon fill="#ffffff" stroke="#ffffff" points="237.49,-122.85 227.6,-126.65 237.7,-129.85 237.49,-122.85"/>
</g>
<!-- Injective function -->
<g id="node26" class="node">
<title>Injective function</title>
<g id="a_node26"><a xlink:href="../Injective function.html" xlink:title="Injective function" target="_parent">
<path fill="#273434" stroke="#b75867" d="M434.5,-164C434.5,-164 344.5,-164 344.5,-164 338.5,-164 332.5,-158 332.5,-152 332.5,-152 332.5,-140 332.5,-140 332.5,-134 338.5,-128 344.5,-128 344.5,-128 434.5,-128 434.5,-128 440.5,-128 446.5,-134 446.5,-140 446.5,-140 446.5,-152 446.5,-152 446.5,-158 440.5,-164 434.5,-164"/>
<text text-anchor="middle" x="389.5" y="-142.9" font-family="sans" font-size="12.00" fill="#c4c7c7">Injective function</text>
</a>
</g>
</g>
<!-- Dirichlet principle&#45;&gt;Injective function -->
<g id="edge50" class="edge">
<title>Dirichlet principle&#45;&gt;Injective function</title>
<path fill="none" stroke="#b75867" d="M227.78,-133.47C256.79,-135.73 292.17,-138.49 322.34,-140.84"/>
<polygon fill="#b75867" stroke="#b75867" points="322.12,-144.33 332.36,-141.62 322.66,-137.36 322.12,-144.33"/>
</g>
<!-- Principle of inclusion and exclusion&#45;&gt;Set -->
<g id="edge53" class="edge">
<title>Principle of inclusion and exclusion&#45;&gt;Set</title>
<path fill="none" stroke="#b75867" d="M67.58,-110.24C65.64,-111.72 63.77,-113.3 62,-115 46.8,-129.58 36.61,-186.62 31.61,-221.73"/>
<polygon fill="#b75867" stroke="#b75867" points="28.11,-221.46 30.22,-231.85 35.04,-222.41 28.11,-221.46"/>
</g>
<!-- Principle of inclusion and exclusion&#45;&gt;Combinatoric principles -->
<g id="edge54" class="edge">
<title>Principle of inclusion and exclusion&#45;&gt;Combinatoric principles</title>
<path fill="none" stroke="#ffffff" d="M287.16,-91.47C381.08,-93.52 515.81,-102.08 630,-131 646.36,-135.14 663.6,-142.2 678.07,-148.97"/>
<polygon fill="#ffffff" stroke="#ffffff" points="287.12,-87.97 277.05,-91.27 286.98,-94.97 287.12,-87.97"/>
</g>
<!-- Differential Analysis&#45;&gt;Set -->
<g id="edge55" class="edge">
<title>Differential Analysis&#45;&gt;Set</title>
<path fill="none" stroke="#b75867" d="M105.93,-56.75C89.74,-59.98 73.62,-66.26 62,-78 42.24,-97.95 33.34,-178.15 29.88,-221.63"/>
<polygon fill="#b75867" stroke="#b75867" points="26.38,-221.6 29.12,-231.84 33.36,-222.13 26.38,-221.6"/>
</g>
<!-- Subjects -->
<g id="node27" class="node">
<title>Subjects</title>
<g id="a_node27"><a xlink:href="../Subjects.html" xlink:title="Subjects" target="_parent">
<path fill="none" stroke="#b75867" d="M410,-36C410,-36 369,-36 369,-36 363,-36 357,-30 357,-24 357,-24 357,-12 357,-12 357,-6 363,0 369,0 369,0 410,0 410,0 416,0 422,-6 422,-12 422,-12 422,-24 422,-24 422,-30 416,-36 410,-36"/>
<text text-anchor="middle" x="389.5" y="-14.9" font-family="sans" font-size="12.00" fill="#c4c7c7">Subjects</text>
</a>
</g>
</g>
<!-- Differential Analysis&#45;&gt;Subjects -->
<g id="edge56" class="edge">
<title>Differential Analysis&#45;&gt;Subjects</title>
<path fill="none" stroke="#ffffff" d="M243.42,-42.62C282,-36.08 327.37,-28.38 356.97,-23.35"/>
<polygon fill="#ffffff" stroke="#ffffff" points="242.54,-39.22 233.26,-44.35 243.71,-46.12 242.54,-39.22"/>
</g>
<!-- Knowledege Base -->
<g id="node28" class="node">
<title>Knowledege Base</title>
<g id="a_node28"><a xlink:href="../Knowledege Base.html" xlink:title="Knowledege Base" target="_parent">
<path fill="none" stroke="#b75867" d="M436,-73C436,-73 343,-73 343,-73 337,-73 331,-67 331,-61 331,-61 331,-49 331,-49 331,-43 337,-37 343,-37 343,-37 436,-37 436,-37 442,-37 448,-43 448,-49 448,-49 448,-61 448,-61 448,-67 442,-73 436,-73"/>
<text text-anchor="middle" x="389.5" y="-51.9" font-family="sans" font-size="12.00" fill="#c4c7c7">Knowledege Base</text>
</a>
</g>
</g>
<!-- Differential Analysis&#45;&gt;Knowledege Base -->
<g id="edge57" class="edge">
<title>Differential Analysis&#45;&gt;Knowledege Base</title>
<path fill="none" stroke="#ffffff" d="M243.53,-55C271.9,-55 303.93,-55 330.65,-55"/>
<polygon fill="#ffffff" stroke="#ffffff" points="243.26,-51.5 233.26,-55 243.26,-58.5 243.26,-51.5"/>
</g>
<!-- Differential Analysis&#45;&gt;Knowledege Base -->
<g id="edge58" class="edge">
<title>Differential Analysis&#45;&gt;Knowledege Base</title>
<path fill="none" stroke="#ffffff" d="M243.53,-55.71C271.9,-55.77 303.93,-55.76 330.65,-55.67"/>
<polygon fill="#ffffff" stroke="#ffffff" points="243.27,-52.21 233.26,-55.69 243.25,-59.21 243.27,-52.21"/>
</g>
<!-- Principle of partitions&#45;&gt;Set -->
<g id="edge60" class="edge">
<title>Principle of partitions&#45;&gt;Set</title>
<path fill="none" stroke="#b75867" d="M100.72,-245.57C88.15,-246.47 75.47,-247.35 64.29,-248.08"/>
<polygon fill="#b75867" stroke="#b75867" points="63.85,-244.6 54.1,-248.74 64.3,-251.59 63.85,-244.6"/>
</g>
<!-- Principle of partitions&#45;&gt;Partition -->
<g id="edge59" class="edge">
<title>Principle of partitions&#45;&gt;Partition</title>
<path fill="none" stroke="#b75867" d="M238.32,-237.08C320.08,-233.55 454.97,-227.74 522.99,-224.81"/>
<polygon fill="#b75867" stroke="#b75867" points="523.48,-228.29 533.32,-224.37 523.18,-221.3 523.48,-228.29"/>
</g>
<!-- Principle of partitions&#45;&gt;Combinatoric principles -->
<g id="edge61" class="edge">
<title>Principle of partitions&#45;&gt;Combinatoric principles</title>
<path fill="none" stroke="#ffffff" d="M248.47,-230.29C260.69,-228.82 273.19,-227.34 285,-226 377.8,-215.44 401.46,-216.69 494,-204 542.03,-197.41 595.71,-188.35 637.84,-180.84"/>
<polygon fill="#ffffff" stroke="#ffffff" points="247.8,-226.84 238.29,-231.52 248.64,-233.79 247.8,-226.84"/>
</g>
<!-- Principle of the bijection&#45;&gt;Set -->
<g id="edge63" class="edge">
<title>Principle of the bijection&#45;&gt;Set</title>
<path fill="none" stroke="#b75867" d="M92.46,-215.49C82,-218.29 71.57,-221.74 62,-226 61.44,-226.25 60.87,-226.51 60.31,-226.79"/>
<polygon fill="#b75867" stroke="#b75867" points="58.32,-223.89 51.35,-231.86 61.77,-229.98 58.32,-223.89"/>
</g>
<!-- Principle of the bijection&#45;&gt;Combinatoric principles -->
<g id="edge64" class="edge">
<title>Principle of the bijection&#45;&gt;Combinatoric principles</title>
<path fill="none" stroke="#ffffff" d="M256.4,-189.35C263.53,-186.99 270.49,-184.24 277,-181 281.23,-178.9 280.59,-175.7 285,-174 316.86,-161.73 523.77,-163.48 637.64,-165.44"/>
<polygon fill="#ffffff" stroke="#ffffff" points="255.16,-186.07 246.6,-192.31 257.19,-192.77 255.16,-186.07"/>
</g>
<!-- Bijective function -->
<g id="node29" class="node">
<title>Bijective function</title>
<g id="a_node29"><a xlink:href="../Bijective function.html" xlink:title="Bijective function" target="_parent">
<path fill="#273434" stroke="#b75867" d="M434.5,-207C434.5,-207 344.5,-207 344.5,-207 338.5,-207 332.5,-201 332.5,-195 332.5,-195 332.5,-183 332.5,-183 332.5,-177 338.5,-171 344.5,-171 344.5,-171 434.5,-171 434.5,-171 440.5,-171 446.5,-177 446.5,-183 446.5,-183 446.5,-195 446.5,-195 446.5,-201 440.5,-207 434.5,-207"/>
<text text-anchor="middle" x="389.5" y="-185.9" font-family="sans" font-size="12.00" fill="#c4c7c7">Bijective function</text>
</a>
</g>
</g>
<!-- Principle of the bijection&#45;&gt;Bijective function -->
<g id="edge62" class="edge">
<title>Principle of the bijection&#45;&gt;Bijective function</title>
<path fill="none" stroke="#b75867" d="M246.75,-198.1C271.35,-196.52 298.41,-194.79 322.23,-193.26"/>
<polygon fill="#b75867" stroke="#b75867" points="322.47,-196.75 332.22,-192.61 322.02,-189.76 322.47,-196.75"/>
</g>
</g>
</svg>
