<?xml version="1.0" encoding="UTF-8" standalone="no"?>
<!DOCTYPE svg PUBLIC "-//W3C//DTD SVG 1.1//EN"
 "http://www.w3.org/Graphics/SVG/1.1/DTD/svg11.dtd">
<!-- Generated by graphviz version 2.46.1 (0)
 -->
<!-- Title: 2^N is not countable Pages: 1 -->
<svg width="127pt" height="44pt"
 viewBox="0.00 0.00 127.00 44.00" xmlns="http://www.w3.org/2000/svg" xmlns:xlink="http://www.w3.org/1999/xlink">
<g id="graph0" class="graph" transform="scale(1 1) rotate(0) translate(4 40)">
<title>2^N is not countable</title>
<polygon fill="#132020" stroke="transparent" points="-4,4 -4,-40 123,-40 123,4 -4,4"/>
<!-- 2^N is not countable -->
<g id="node1" class="node">
<title>2^N is not countable</title>
<g id="a_node1"><a xlink:href="/Knowledge/2^n_is_not_countable.html" xlink:title="2^N is not countable" target="_parent">
<path fill="#273434" stroke="#b75867" d="M107,-36C107,-36 12,-36 12,-36 6,-36 0,-30 0,-24 0,-24 0,-12 0,-12 0,-6 6,0 12,0 12,0 107,0 107,0 113,0 119,-6 119,-12 119,-12 119,-24 119,-24 119,-30 113,-36 107,-36"/>
<text text-anchor="middle" x="59.5" y="-14.9" font-family="sans" font-size="12.00" fill="#c4c7c7">2^N is not countable</text>
</a>
</g>
</g>
</g>
</svg>
