<?xml version="1.0" encoding="UTF-8" standalone="no"?>
<!DOCTYPE svg PUBLIC "-//W3C//DTD SVG 1.1//EN"
 "http://www.w3.org/Graphics/SVG/1.1/DTD/svg11.dtd">
<!-- Generated by graphviz version 2.46.1 (0)
 -->
<!-- Title: Advanced Algebra Pages: 1 -->
<svg width="115pt" height="44pt"
 viewBox="0.00 0.00 115.00 44.00" xmlns="http://www.w3.org/2000/svg" xmlns:xlink="http://www.w3.org/1999/xlink">
<g id="graph0" class="graph" transform="scale(1 1) rotate(0) translate(4 40)">
<title>Advanced Algebra</title>
<polygon fill="#132020" stroke="transparent" points="-4,4 -4,-40 111,-40 111,4 -4,4"/>
<!-- Advanced Algebra -->
<g id="node1" class="node">
<title>Advanced Algebra</title>
<g id="a_node1"><a xlink:href="/Knowledge/advanced_algebra.html" xlink:title="Advanced Algebra" target="_parent">
<path fill="#273434" stroke="#b75867" d="M95,-36C95,-36 12,-36 12,-36 6,-36 0,-30 0,-24 0,-24 0,-12 0,-12 0,-6 6,0 12,0 12,0 95,0 95,0 101,0 107,-6 107,-12 107,-12 107,-24 107,-24 107,-30 101,-36 95,-36"/>
<text text-anchor="middle" x="53.5" y="-14.9" font-family="sans" font-size="12.00" fill="#c4c7c7">Advanced Algebra</text>
</a>
</g>
</g>
</g>
</svg>
