<?xml version="1.0" encoding="UTF-8" standalone="no"?>
<!DOCTYPE svg PUBLIC "-//W3C//DTD SVG 1.1//EN"
 "http://www.w3.org/Graphics/SVG/1.1/DTD/svg11.dtd">
<!-- Generated by graphviz version 2.44.0 (0)
 -->
<!-- Title: Advanced Algebra Pages: 1 -->
<svg width="502pt" height="636pt"
 viewBox="0.00 0.00 502.00 636.00" xmlns="http://www.w3.org/2000/svg" xmlns:xlink="http://www.w3.org/1999/xlink">
<g id="graph0" class="graph" transform="scale(1 1) rotate(0) translate(4 632)">
<title>Advanced Algebra</title>
<polygon fill="#132020" stroke="transparent" points="-4,4 -4,-632 498,-632 498,4 -4,4"/>
<!-- Advanced Algebra -->
<g id="node1" class="node">
<title>Advanced Algebra</title>
<g id="a_node1"><a xlink:href="/Knowledge/Advanced Algebra.html" xlink:title="Advanced Algebra" target="_parent">
<path fill="#273434" stroke="#b75867" d="M107,-313C107,-313 12,-313 12,-313 6,-313 0,-307 0,-301 0,-301 0,-289 0,-289 0,-283 6,-277 12,-277 12,-277 107,-277 107,-277 113,-277 119,-283 119,-289 119,-289 119,-301 119,-301 119,-307 113,-313 107,-313"/>
<text text-anchor="middle" x="59.5" y="-291.9" font-family="sans" font-size="12.00" fill="#c4c7c7">Advanced Algebra</text>
</a>
</g>
</g>
<!-- Knowledege Base -->
<g id="node2" class="node">
<title>Knowledege Base</title>
<g id="a_node2"><a xlink:href="/Knowledge/Knowledege Base.html" xlink:title="Knowledege Base" target="_parent">
<path fill="none" stroke="#b75867" d="M232,-313C232,-313 139,-313 139,-313 133,-313 127,-307 127,-301 127,-301 127,-289 127,-289 127,-283 133,-277 139,-277 139,-277 232,-277 232,-277 238,-277 244,-283 244,-289 244,-289 244,-301 244,-301 244,-307 238,-313 232,-313"/>
<text text-anchor="middle" x="185.5" y="-291.9" font-family="sans" font-size="12.00" fill="#c4c7c7">Knowledege Base</text>
</a>
</g>
</g>
<!-- Advanced Algebra&#45;&gt;Knowledege Base -->
<g id="edge1" class="edge">
<title>Advanced Algebra&#45;&gt;Knowledege Base</title>
<path fill="none" stroke="#ffffff" d="M126.28,-295C126.44,-295 126.59,-295 126.75,-295"/>
<polygon fill="#ffffff" stroke="#ffffff" points="129.23,-291.5 119.23,-295 129.23,-298.5 129.23,-291.5"/>
</g>
<!-- Knowledege Base&#45;&gt;Advanced Algebra -->
<g id="edge12" class="edge">
<title>Knowledege Base&#45;&gt;Advanced Algebra</title>
<path fill="none" stroke="#b75867" d="M126.75,-295.75C126.59,-295.75 126.44,-295.75 126.28,-295.75"/>
<polygon fill="#b75867" stroke="#b75867" points="129.23,-292.25 119.23,-295.75 129.23,-299.25 129.23,-292.25"/>
</g>
<!-- Computer Architectures -->
<g id="node3" class="node">
<title>Computer Architectures</title>
<g id="a_node3"><a xlink:href="/Knowledge/Computer Architectures.html" xlink:title="Computer Architectures" target="_parent">
<path fill="#273434" stroke="#b75867" d="M436.5,-628C436.5,-628 309.5,-628 309.5,-628 303.5,-628 297.5,-622 297.5,-616 297.5,-616 297.5,-604 297.5,-604 297.5,-598 303.5,-592 309.5,-592 309.5,-592 436.5,-592 436.5,-592 442.5,-592 448.5,-598 448.5,-604 448.5,-604 448.5,-616 448.5,-616 448.5,-622 442.5,-628 436.5,-628"/>
<text text-anchor="middle" x="373" y="-606.9" font-family="sans" font-size="12.00" fill="#c4c7c7">Computer Architectures</text>
</a>
</g>
</g>
<!-- Knowledege Base&#45;&gt;Computer Architectures -->
<g id="edge2" class="edge">
<title>Knowledege Base&#45;&gt;Computer Architectures</title>
<path fill="none" stroke="#b75867" d="M188,-313.36C193.13,-371.4 211.9,-549.42 252,-588 261.89,-597.51 274.45,-603.62 287.71,-607.44"/>
<polygon fill="#b75867" stroke="#b75867" points="286.91,-610.84 297.46,-609.83 288.58,-604.04 286.91,-610.84"/>
</g>
<!-- Numeric Methods -->
<g id="node4" class="node">
<title>Numeric Methods</title>
<g id="a_node4"><a xlink:href="/Knowledge/Numeric Methods.html" xlink:title="Numeric Methods" target="_parent">
<path fill="#273434" stroke="#b75867" d="M419,-591C419,-591 327,-591 327,-591 321,-591 315,-585 315,-579 315,-579 315,-567 315,-567 315,-561 321,-555 327,-555 327,-555 419,-555 419,-555 425,-555 431,-561 431,-567 431,-567 431,-579 431,-579 431,-585 425,-591 419,-591"/>
<text text-anchor="middle" x="373" y="-569.9" font-family="sans" font-size="12.00" fill="#c4c7c7">Numeric Methods</text>
</a>
</g>
</g>
<!-- Knowledege Base&#45;&gt;Numeric Methods -->
<g id="edge3" class="edge">
<title>Knowledege Base&#45;&gt;Numeric Methods</title>
<path fill="none" stroke="#b75867" d="M188.63,-313.26C195.17,-366.2 216.7,-518.06 252,-551 266.24,-564.29 285.74,-570.87 304.88,-573.85"/>
<polygon fill="#b75867" stroke="#b75867" points="304.46,-577.32 314.82,-575.09 305.33,-570.38 304.46,-577.32"/>
</g>
<!-- Design and Analysis of Algorithms -->
<g id="node5" class="node">
<title>Design and Analysis of Algorithms</title>
<g id="a_node5"><a xlink:href="/Knowledge/Design and Analysis of Algorithms.html" xlink:title="Design and Analysis of Algorithms" target="_parent">
<path fill="#273434" stroke="#b75867" d="M464,-554C464,-554 282,-554 282,-554 276,-554 270,-548 270,-542 270,-542 270,-530 270,-530 270,-524 276,-518 282,-518 282,-518 464,-518 464,-518 470,-518 476,-524 476,-530 476,-530 476,-542 476,-542 476,-548 470,-554 464,-554"/>
<text text-anchor="middle" x="373" y="-532.9" font-family="sans" font-size="12.00" fill="#c4c7c7">Design and Analysis of Algorithms</text>
</a>
</g>
</g>
<!-- Knowledege Base&#45;&gt;Design and Analysis of Algorithms -->
<g id="edge4" class="edge">
<title>Knowledege Base&#45;&gt;Design and Analysis of Algorithms</title>
<path fill="none" stroke="#b75867" d="M186.05,-313.29C186.07,-355.6 192.45,-460.63 252,-514 254.85,-516.55 257.89,-518.86 261.09,-520.93"/>
<polygon fill="#b75867" stroke="#b75867" points="259.46,-524.03 269.89,-525.9 262.9,-517.94 259.46,-524.03"/>
</g>
<!-- Logic Programming -->
<g id="node6" class="node">
<title>Logic Programming</title>
<g id="a_node6"><a xlink:href="/Knowledge/Logic Programming.html" xlink:title="Logic Programming" target="_parent">
<path fill="#273434" stroke="#b75867" d="M424,-517C424,-517 322,-517 322,-517 316,-517 310,-511 310,-505 310,-505 310,-493 310,-493 310,-487 316,-481 322,-481 322,-481 424,-481 424,-481 430,-481 436,-487 436,-493 436,-493 436,-505 436,-505 436,-511 430,-517 424,-517"/>
<text text-anchor="middle" x="373" y="-495.9" font-family="sans" font-size="12.00" fill="#c4c7c7">Logic Programming</text>
</a>
</g>
</g>
<!-- Knowledege Base&#45;&gt;Logic Programming -->
<g id="edge5" class="edge">
<title>Knowledege Base&#45;&gt;Logic Programming</title>
<path fill="none" stroke="#b75867" d="M187.31,-313.01C190.01,-349.93 201.67,-434.32 252,-477 265.3,-488.28 282.46,-494.58 299.62,-497.94"/>
<polygon fill="#b75867" stroke="#b75867" points="299.26,-501.42 309.69,-499.59 300.39,-494.52 299.26,-501.42"/>
</g>
<!-- Data Structures -->
<g id="node7" class="node">
<title>Data Structures</title>
<g id="a_node7"><a xlink:href="/Knowledge/Data Structures.html" xlink:title="Data Structures" target="_parent">
<path fill="#273434" stroke="#b75867" d="M413,-480C413,-480 333,-480 333,-480 327,-480 321,-474 321,-468 321,-468 321,-456 321,-456 321,-450 327,-444 333,-444 333,-444 413,-444 413,-444 419,-444 425,-450 425,-456 425,-456 425,-468 425,-468 425,-474 419,-480 413,-480"/>
<text text-anchor="middle" x="373" y="-458.9" font-family="sans" font-size="12.00" fill="#c4c7c7">Data Structures</text>
</a>
</g>
</g>
<!-- Knowledege Base&#45;&gt;Data Structures -->
<g id="edge6" class="edge">
<title>Knowledege Base&#45;&gt;Data Structures</title>
<path fill="none" stroke="#b75867" d="M189.25,-313.48C194.95,-344.8 211.1,-408 252,-440 268.55,-452.95 290.31,-459.17 310.74,-461.92"/>
<polygon fill="#b75867" stroke="#b75867" points="310.63,-465.43 320.95,-463.04 311.39,-458.47 310.63,-465.43"/>
</g>
<!-- Languages, Automata and Computation -->
<g id="node8" class="node">
<title>Languages, Automata and Computation</title>
<g id="a_node8"><a xlink:href="/Knowledge/Languages, Automata and Computation.html" xlink:title="Languages, Automata and Computation" target="_parent">
<path fill="#273434" stroke="#b75867" d="M482,-443C482,-443 264,-443 264,-443 258,-443 252,-437 252,-431 252,-431 252,-419 252,-419 252,-413 258,-407 264,-407 264,-407 482,-407 482,-407 488,-407 494,-413 494,-419 494,-419 494,-431 494,-431 494,-437 488,-443 482,-443"/>
<text text-anchor="middle" x="373" y="-421.9" font-family="sans" font-size="12.00" fill="#c4c7c7">Languages, Automata and Computation</text>
</a>
</g>
</g>
<!-- Knowledege Base&#45;&gt;Languages, Automata and Computation -->
<g id="edge7" class="edge">
<title>Knowledege Base&#45;&gt;Languages, Automata and Computation</title>
<path fill="none" stroke="#b75867" d="M192.23,-313.21C200.32,-335.95 217.27,-374.66 250.01,-400.87"/>
<polygon fill="#b75867" stroke="#b75867" points="248.07,-403.78 258.19,-406.91 252.23,-398.15 248.07,-403.78"/>
</g>
<!-- Operations Research -->
<g id="node9" class="node">
<title>Operations Research</title>
<g id="a_node9"><a xlink:href="/Knowledge/Operations Research.html" xlink:title="Operations Research" target="_parent">
<path fill="#273434" stroke="#b75867" d="M427.5,-406C427.5,-406 318.5,-406 318.5,-406 312.5,-406 306.5,-400 306.5,-394 306.5,-394 306.5,-382 306.5,-382 306.5,-376 312.5,-370 318.5,-370 318.5,-370 427.5,-370 427.5,-370 433.5,-370 439.5,-376 439.5,-382 439.5,-382 439.5,-394 439.5,-394 439.5,-400 433.5,-406 427.5,-406"/>
<text text-anchor="middle" x="373" y="-384.9" font-family="sans" font-size="12.00" fill="#c4c7c7">Operations Research</text>
</a>
</g>
</g>
<!-- Knowledege Base&#45;&gt;Operations Research -->
<g id="edge8" class="edge">
<title>Knowledege Base&#45;&gt;Operations Research</title>
<path fill="none" stroke="#b75867" d="M198.19,-313.26C209.77,-329.77 229.08,-353.38 252,-366 265.47,-373.42 280.95,-378.4 296.22,-381.73"/>
<polygon fill="#b75867" stroke="#b75867" points="295.71,-385.19 306.19,-383.69 297.06,-378.33 295.71,-385.19"/>
</g>
<!-- Differential Equations -->
<g id="node10" class="node">
<title>Differential Equations</title>
<g id="a_node10"><a xlink:href="/Knowledge/Differential Equations.html" xlink:title="Differential Equations" target="_parent">
<path fill="#273434" stroke="#b75867" d="M430,-369C430,-369 316,-369 316,-369 310,-369 304,-363 304,-357 304,-357 304,-345 304,-345 304,-339 310,-333 316,-333 316,-333 430,-333 430,-333 436,-333 442,-339 442,-345 442,-345 442,-357 442,-357 442,-363 436,-369 430,-369"/>
<text text-anchor="middle" x="373" y="-347.9" font-family="sans" font-size="12.00" fill="#c4c7c7">Differential Equations</text>
</a>
</g>
</g>
<!-- Knowledege Base&#45;&gt;Differential Equations -->
<g id="edge9" class="edge">
<title>Knowledege Base&#45;&gt;Differential Equations</title>
<path fill="none" stroke="#b75867" d="M216.65,-313.04C227.49,-318.87 240,-324.89 252,-329 265.22,-333.53 279.6,-337.19 293.66,-340.12"/>
<polygon fill="#b75867" stroke="#b75867" points="293.33,-343.62 303.82,-342.13 294.69,-336.75 293.33,-343.62"/>
</g>
<!-- OOP -->
<g id="node11" class="node">
<title>OOP</title>
<g id="a_node11"><a xlink:href="/Knowledge/OOP.html" xlink:title="OOP" target="_parent">
<path fill="#273434" stroke="#b75867" d="M388,-332C388,-332 358,-332 358,-332 352,-332 346,-326 346,-320 346,-320 346,-308 346,-308 346,-302 352,-296 358,-296 358,-296 388,-296 388,-296 394,-296 400,-302 400,-308 400,-308 400,-320 400,-320 400,-326 394,-332 388,-332"/>
<text text-anchor="middle" x="373" y="-310.9" font-family="sans" font-size="12.00" fill="#c4c7c7">OOP</text>
</a>
</g>
</g>
<!-- Knowledege Base&#45;&gt;OOP -->
<g id="edge10" class="edge">
<title>Knowledege Base&#45;&gt;OOP</title>
<path fill="none" stroke="#b75867" d="M244.18,-300.91C274.09,-303.97 309.71,-307.62 335.74,-310.29"/>
<polygon fill="#b75867" stroke="#b75867" points="335.61,-313.79 345.91,-311.33 336.32,-306.83 335.61,-313.79"/>
</g>
<!-- Discrete Structures -->
<g id="node12" class="node">
<title>Discrete Structures</title>
<g id="a_node12"><a xlink:href="/Knowledge/Discrete Structures.html" xlink:title="Discrete Structures" target="_parent">
<path fill="#273434" stroke="#b75867" d="M422,-295C422,-295 324,-295 324,-295 318,-295 312,-289 312,-283 312,-283 312,-271 312,-271 312,-265 318,-259 324,-259 324,-259 422,-259 422,-259 428,-259 434,-265 434,-271 434,-271 434,-283 434,-283 434,-289 428,-295 422,-295"/>
<text text-anchor="middle" x="373" y="-273.9" font-family="sans" font-size="12.00" fill="#c4c7c7">Discrete Structures</text>
</a>
</g>
</g>
<!-- Knowledege Base&#45;&gt;Discrete Structures -->
<g id="edge11" class="edge">
<title>Knowledege Base&#45;&gt;Discrete Structures</title>
<path fill="none" stroke="#b75867" d="M244.18,-289.4C262.39,-287.64 282.71,-285.66 301.7,-283.82"/>
<polygon fill="#b75867" stroke="#b75867" points="302.18,-287.29 311.79,-282.84 301.5,-280.32 302.18,-287.29"/>
</g>
<!-- Differential Analysis -->
<g id="node13" class="node">
<title>Differential Analysis</title>
<g id="a_node13"><a xlink:href="/Knowledge/Differential Analysis.html" xlink:title="Differential Analysis" target="_parent">
<path fill="#273434" stroke="#b75867" d="M424.5,-258C424.5,-258 321.5,-258 321.5,-258 315.5,-258 309.5,-252 309.5,-246 309.5,-246 309.5,-234 309.5,-234 309.5,-228 315.5,-222 321.5,-222 321.5,-222 424.5,-222 424.5,-222 430.5,-222 436.5,-228 436.5,-234 436.5,-234 436.5,-246 436.5,-246 436.5,-252 430.5,-258 424.5,-258"/>
<text text-anchor="middle" x="373" y="-236.9" font-family="sans" font-size="12.00" fill="#c4c7c7">Differential Analysis</text>
</a>
</g>
</g>
<!-- Knowledege Base&#45;&gt;Differential Analysis -->
<g id="edge13" class="edge">
<title>Knowledege Base&#45;&gt;Differential Analysis</title>
<path fill="none" stroke="#b75867" d="M218.03,-276.83C228.56,-271.39 240.53,-265.85 252,-262 266.99,-256.97 283.44,-253 299.22,-249.9"/>
<polygon fill="#b75867" stroke="#b75867" points="300.29,-253.26 309.48,-247.99 299.01,-246.38 300.29,-253.26"/>
</g>
<!-- Knowledege Base&#45;&gt;Differential Analysis -->
<g id="edge17" class="edge">
<title>Knowledege Base&#45;&gt;Differential Analysis</title>
<path fill="none" stroke="#b75867" d="M219.7,-276.93C229.82,-271.81 241.14,-266.65 252,-263 266.99,-257.97 283.44,-254 299.22,-250.88"/>
<polygon fill="#b75867" stroke="#b75867" points="300.3,-254.23 309.48,-248.94 299,-247.36 300.3,-254.23"/>
</g>
<!-- Introduction to programming -->
<g id="node14" class="node">
<title>Introduction to programming</title>
<g id="a_node14"><a xlink:href="/Knowledge/Introduction to programming.html" xlink:title="Introduction to programming" target="_parent">
<path fill="#273434" stroke="#b75867" d="M452.5,-221C452.5,-221 293.5,-221 293.5,-221 287.5,-221 281.5,-215 281.5,-209 281.5,-209 281.5,-197 281.5,-197 281.5,-191 287.5,-185 293.5,-185 293.5,-185 452.5,-185 452.5,-185 458.5,-185 464.5,-191 464.5,-197 464.5,-197 464.5,-209 464.5,-209 464.5,-215 458.5,-221 452.5,-221"/>
<text text-anchor="middle" x="373" y="-199.9" font-family="sans" font-size="12.00" fill="#c4c7c7">Introduction to programming</text>
</a>
</g>
</g>
<!-- Knowledege Base&#45;&gt;Introduction to programming -->
<g id="edge14" class="edge">
<title>Knowledege Base&#45;&gt;Introduction to programming</title>
<path fill="none" stroke="#b75867" d="M198.24,-277C209.88,-260.72 229.21,-237.45 252,-225 258.26,-221.58 264.95,-218.68 271.85,-216.22"/>
<polygon fill="#b75867" stroke="#b75867" points="272.94,-219.55 281.37,-213.13 270.78,-212.89 272.94,-219.55"/>
</g>
<!-- Analytic Geometry -->
<g id="node15" class="node">
<title>Analytic Geometry</title>
<g id="a_node15"><a xlink:href="/Knowledge/Analytic Geometry.html" xlink:title="Analytic Geometry" target="_parent">
<path fill="#273434" stroke="#b75867" d="M421.5,-184C421.5,-184 324.5,-184 324.5,-184 318.5,-184 312.5,-178 312.5,-172 312.5,-172 312.5,-160 312.5,-160 312.5,-154 318.5,-148 324.5,-148 324.5,-148 421.5,-148 421.5,-148 427.5,-148 433.5,-154 433.5,-160 433.5,-160 433.5,-172 433.5,-172 433.5,-178 427.5,-184 421.5,-184"/>
<text text-anchor="middle" x="373" y="-162.9" font-family="sans" font-size="12.00" fill="#c4c7c7">Analytic Geometry</text>
</a>
</g>
</g>
<!-- Knowledege Base&#45;&gt;Analytic Geometry -->
<g id="edge15" class="edge">
<title>Knowledege Base&#45;&gt;Analytic Geometry</title>
<path fill="none" stroke="#b75867" d="M192.28,-276.95C201.07,-252.61 220.21,-209.81 252,-188 266.67,-177.93 284.64,-172.1 302.16,-168.81"/>
<polygon fill="#b75867" stroke="#b75867" points="303.08,-172.21 312.39,-167.16 301.96,-165.3 303.08,-172.21"/>
</g>
<!-- Linear Algebra -->
<g id="node16" class="node">
<title>Linear Algebra</title>
<g id="a_node16"><a xlink:href="/Knowledge/Linear Algebra.html" xlink:title="Linear Algebra" target="_parent">
<path fill="#273434" stroke="#b75867" d="M410,-147C410,-147 336,-147 336,-147 330,-147 324,-141 324,-135 324,-135 324,-123 324,-123 324,-117 330,-111 336,-111 336,-111 410,-111 410,-111 416,-111 422,-117 422,-123 422,-123 422,-135 422,-135 422,-141 416,-147 410,-147"/>
<text text-anchor="middle" x="373" y="-125.9" font-family="sans" font-size="12.00" fill="#c4c7c7">Linear Algebra</text>
</a>
</g>
</g>
<!-- Knowledege Base&#45;&gt;Linear Algebra -->
<g id="edge16" class="edge">
<title>Knowledege Base&#45;&gt;Linear Algebra</title>
<path fill="none" stroke="#b75867" d="M189.29,-276.64C195.05,-245.53 211.29,-182.76 252,-151 269.44,-137.39 292.63,-131.22 313.97,-128.69"/>
<polygon fill="#b75867" stroke="#b75867" points="314.31,-132.18 323.94,-127.75 313.65,-125.21 314.31,-132.18"/>
</g>
<!-- Org Roam -->
<g id="node17" class="node">
<title>Org Roam</title>
<g id="a_node17"><a xlink:href="/Knowledge/Org Roam.html" xlink:title="Org Roam" target="_parent">
<path fill="#273434" stroke="#b75867" d="M397,-110C397,-110 349,-110 349,-110 343,-110 337,-104 337,-98 337,-98 337,-86 337,-86 337,-80 343,-74 349,-74 349,-74 397,-74 397,-74 403,-74 409,-80 409,-86 409,-86 409,-98 409,-98 409,-104 403,-110 397,-110"/>
<text text-anchor="middle" x="373" y="-88.9" font-family="sans" font-size="12.00" fill="#c4c7c7">Org Roam</text>
</a>
</g>
</g>
<!-- Knowledege Base&#45;&gt;Org Roam -->
<g id="edge18" class="edge">
<title>Knowledege Base&#45;&gt;Org Roam</title>
<path fill="none" stroke="#b75867" d="M187.37,-276.81C190.17,-239.94 202.01,-156.32 252,-114 272.44,-96.7 301.96,-91.12 326.61,-89.91"/>
<polygon fill="#b75867" stroke="#b75867" points="326.93,-93.4 336.83,-89.63 326.74,-86.4 326.93,-93.4"/>
</g>
<!-- Org&#45;mode -->
<g id="node18" class="node">
<title>Org&#45;mode</title>
<g id="a_node18"><a xlink:href="/Knowledge/Org-mode.html" xlink:title="Org&#45;mode" target="_parent">
<path fill="#273434" stroke="#b75867" d="M398,-73C398,-73 348,-73 348,-73 342,-73 336,-67 336,-61 336,-61 336,-49 336,-49 336,-43 342,-37 348,-37 348,-37 398,-37 398,-37 404,-37 410,-43 410,-49 410,-49 410,-61 410,-61 410,-67 404,-73 398,-73"/>
<text text-anchor="middle" x="373" y="-51.9" font-family="sans" font-size="12.00" fill="#c4c7c7">Org&#45;mode</text>
</a>
</g>
</g>
<!-- Knowledege Base&#45;&gt;Org&#45;mode -->
<g id="edge19" class="edge">
<title>Knowledege Base&#45;&gt;Org&#45;mode</title>
<path fill="none" stroke="#b75867" d="M186.07,-276.79C186.16,-234.67 192.67,-130.11 252,-77 271.82,-59.26 301.06,-53.63 325.72,-52.5"/>
<polygon fill="#b75867" stroke="#b75867" points="326.05,-55.99 335.97,-52.27 325.89,-48.99 326.05,-55.99"/>
</g>
<!-- Projects -->
<g id="node19" class="node">
<title>Projects</title>
<g id="a_node19"><a xlink:href="/Knowledge/Projects.html" xlink:title="Projects" target="_parent">
<path fill="none" stroke="#b75867" d="M392,-36C392,-36 354,-36 354,-36 348,-36 342,-30 342,-24 342,-24 342,-12 342,-12 342,-6 348,0 354,0 354,0 392,0 392,0 398,0 404,-6 404,-12 404,-12 404,-24 404,-24 404,-30 398,-36 392,-36"/>
<text text-anchor="middle" x="373" y="-14.9" font-family="sans" font-size="12.00" fill="#c4c7c7">Projects</text>
</a>
</g>
</g>
<!-- Knowledege Base&#45;&gt;Projects -->
<g id="edge20" class="edge">
<title>Knowledege Base&#45;&gt;Projects</title>
<path fill="none" stroke="#ffffff" d="M189.95,-266.57C197.78,-206.75 218.87,-70.88 252,-40 276.01,-17.61 314.94,-14.27 341.92,-15.12"/>
<polygon fill="#ffffff" stroke="#ffffff" points="186.43,-266.44 188.64,-276.81 193.38,-267.33 186.43,-266.44"/>
</g>
</g>
</svg>
