<?xml version="1.0" encoding="UTF-8" standalone="no"?>
<!DOCTYPE svg PUBLIC "-//W3C//DTD SVG 1.1//EN"
 "http://www.w3.org/Graphics/SVG/1.1/DTD/svg11.dtd">
<!-- Generated by graphviz version 2.46.1 (0)
 -->
<!-- Title: Anti&#45;reflexive relation Pages: 1 -->
<svg width="504pt" height="562pt"
 viewBox="0.00 0.00 504.00 562.00" xmlns="http://www.w3.org/2000/svg" xmlns:xlink="http://www.w3.org/1999/xlink">
<g id="graph0" class="graph" transform="scale(1 1) rotate(0) translate(4 558)">
<title>Anti&#45;reflexive relation</title>
<polygon fill="#132020" stroke="transparent" points="-4,4 -4,-558 500,-558 500,4 -4,4"/>
<!-- Anti&#45;reflexive relation -->
<g id="node1" class="node">
<title>Anti&#45;reflexive relation</title>
<g id="a_node1"><a xlink:href="/Knowledge/anti-reflexive_relation.html" xlink:title="Anti&#45;reflexive relation" target="_parent">
<path fill="#273434" stroke="#b75867" d="M112,-278C112,-278 12,-278 12,-278 6,-278 0,-272 0,-266 0,-266 0,-254 0,-254 0,-248 6,-242 12,-242 12,-242 112,-242 112,-242 118,-242 124,-248 124,-254 124,-254 124,-266 124,-266 124,-272 118,-278 112,-278"/>
<text text-anchor="middle" x="62" y="-256.9" font-family="sans" font-size="12.00" fill="#c4c7c7">Anti&#45;reflexive relation</text>
</a>
</g>
</g>
<!-- Relation -->
<g id="node2" class="node">
<title>Relation</title>
<g id="a_node2"><a xlink:href="/Knowledge/relation.html" xlink:title="Relation" target="_parent">
<path fill="#273434" stroke="#b75867" d="M179,-254C179,-254 144,-254 144,-254 138,-254 132,-248 132,-242 132,-242 132,-230 132,-230 132,-224 138,-218 144,-218 144,-218 179,-218 179,-218 185,-218 191,-224 191,-230 191,-230 191,-242 191,-242 191,-248 185,-254 179,-254"/>
<text text-anchor="middle" x="161.5" y="-232.9" font-family="sans" font-size="12.00" fill="#c4c7c7">Relation</text>
</a>
</g>
</g>
<!-- Anti&#45;reflexive relation&#45;&gt;Relation -->
<g id="edge1" class="edge">
<title>Anti&#45;reflexive relation&#45;&gt;Relation</title>
<path fill="none" stroke="#b75867" d="M124.19,-244.94C124.36,-244.9 124.52,-244.86 124.68,-244.82"/>
<polygon fill="#b75867" stroke="#b75867" points="122.94,-248.85 131.82,-243.06 121.27,-242.05 122.94,-248.85"/>
</g>
<!-- Relations -->
<g id="node3" class="node">
<title>Relations</title>
<g id="a_node3"><a xlink:href="/Knowledge/relations.html" xlink:title="Relations" target="_parent">
<path fill="none" stroke="#b75867" d="M273,-321C273,-321 233,-321 233,-321 227,-321 221,-315 221,-309 221,-309 221,-297 221,-297 221,-291 227,-285 233,-285 233,-285 273,-285 273,-285 279,-285 285,-291 285,-297 285,-297 285,-309 285,-309 285,-315 279,-321 273,-321"/>
<text text-anchor="middle" x="253" y="-299.9" font-family="sans" font-size="12.00" fill="#c4c7c7">Relations</text>
</a>
</g>
</g>
<!-- Anti&#45;reflexive relation&#45;&gt;Relations -->
<g id="edge2" class="edge">
<title>Anti&#45;reflexive relation&#45;&gt;Relations</title>
<path fill="none" stroke="#ffffff" d="M134.09,-276.17C163.98,-282.98 197.21,-290.53 220.75,-295.89"/>
<polygon fill="#ffffff" stroke="#ffffff" points="134.63,-272.71 124.1,-273.9 133.08,-279.53 134.63,-272.71"/>
</g>
<!-- Relation&#45;&gt;Anti&#45;reflexive relation -->
<g id="edge14" class="edge">
<title>Relation&#45;&gt;Anti&#45;reflexive relation</title>
<path fill="none" stroke="#ffffff" d="M124.68,-245.54C124.52,-245.58 124.36,-245.62 124.19,-245.66"/>
<polygon fill="#ffffff" stroke="#ffffff" points="122.97,-249.58 131.82,-243.75 121.26,-242.79 122.97,-249.58"/>
</g>
<!-- Relation&#45;&gt;Relations -->
<g id="edge16" class="edge">
<title>Relation&#45;&gt;Relations</title>
<path fill="none" stroke="#ffffff" d="M180.28,-262.38C185.71,-269.08 192.09,-275.84 199,-281 205.55,-285.89 213.34,-289.9 220.9,-293.1"/>
<polygon fill="#ffffff" stroke="#ffffff" points="182.79,-259.89 173.95,-254.05 177.21,-264.13 182.79,-259.89"/>
</g>
<!-- Descartes Product -->
<g id="node4" class="node">
<title>Descartes Product</title>
<g id="a_node4"><a xlink:href="/Knowledge/descartes_product.html" xlink:title="Descartes Product" target="_parent">
<path fill="#273434" stroke="#b75867" d="M295,-186C295,-186 211,-186 211,-186 205,-186 199,-180 199,-174 199,-174 199,-162 199,-162 199,-156 205,-150 211,-150 211,-150 295,-150 295,-150 301,-150 307,-156 307,-162 307,-162 307,-174 307,-174 307,-180 301,-186 295,-186"/>
<text text-anchor="middle" x="253" y="-164.9" font-family="sans" font-size="12.00" fill="#c4c7c7">Descartes Product</text>
</a>
</g>
</g>
<!-- Relation&#45;&gt;Descartes Product -->
<g id="edge3" class="edge">
<title>Relation&#45;&gt;Descartes Product</title>
<path fill="none" stroke="#b75867" d="M173.56,-218C178.87,-210.33 185.8,-201.53 196.86,-192.24"/>
<polygon fill="#b75867" stroke="#b75867" points="199.03,-194.98 204.75,-186.07 194.72,-189.47 199.03,-194.98"/>
</g>
<!-- Partial order -->
<g id="node5" class="node">
<title>Partial order</title>
<g id="a_node5"><a xlink:href="/Knowledge/partial_order.html" xlink:title="Partial order" target="_parent">
<path fill="none" stroke="#b75867" d="M433,-554C433,-554 378,-554 378,-554 372,-554 366,-548 366,-542 366,-542 366,-530 366,-530 366,-524 372,-518 378,-518 378,-518 433,-518 433,-518 439,-518 445,-524 445,-530 445,-530 445,-542 445,-542 445,-548 439,-554 433,-554"/>
<text text-anchor="middle" x="405.5" y="-532.9" font-family="sans" font-size="12.00" fill="#c4c7c7">Partial order</text>
</a>
</g>
</g>
<!-- Relation&#45;&gt;Partial order -->
<g id="edge4" class="edge">
<title>Relation&#45;&gt;Partial order</title>
<path fill="none" stroke="#ffffff" d="M161.9,-264.29C162.34,-303.33 167.85,-374.59 199,-425 233.16,-480.28 256.42,-485.87 315,-514 330.87,-521.62 349.62,-526.75 365.85,-530.13"/>
<polygon fill="#ffffff" stroke="#ffffff" points="165.4,-264.18 161.89,-254.18 158.4,-264.19 165.4,-264.18"/>
</g>
<!-- Chain -->
<g id="node6" class="node">
<title>Chain</title>
<g id="a_node6"><a xlink:href="/Knowledge/chain.html" xlink:title="Chain" target="_parent">
<path fill="none" stroke="#b75867" d="M420.5,-517C420.5,-517 390.5,-517 390.5,-517 384.5,-517 378.5,-511 378.5,-505 378.5,-505 378.5,-493 378.5,-493 378.5,-487 384.5,-481 390.5,-481 390.5,-481 420.5,-481 420.5,-481 426.5,-481 432.5,-487 432.5,-493 432.5,-493 432.5,-505 432.5,-505 432.5,-511 426.5,-517 420.5,-517"/>
<text text-anchor="middle" x="405.5" y="-495.9" font-family="sans" font-size="12.00" fill="#c4c7c7">Chain</text>
</a>
</g>
</g>
<!-- Relation&#45;&gt;Chain -->
<g id="edge5" class="edge">
<title>Relation&#45;&gt;Chain</title>
<path fill="none" stroke="#ffffff" d="M164.76,-264.68C168.24,-294.87 177.04,-342.81 199,-378 234.89,-435.5 254.69,-446.08 315,-477 334.93,-487.22 359.83,-492.84 378.3,-495.84"/>
<polygon fill="#ffffff" stroke="#ffffff" points="168.2,-264 163.7,-254.41 161.24,-264.72 168.2,-264"/>
</g>
<!-- Linear order -->
<g id="node7" class="node">
<title>Linear order</title>
<g id="a_node7"><a xlink:href="/Knowledge/linear_order.html" xlink:title="Linear order" target="_parent">
<path fill="none" stroke="#b75867" d="M433,-258C433,-258 378,-258 378,-258 372,-258 366,-252 366,-246 366,-246 366,-234 366,-234 366,-228 372,-222 378,-222 378,-222 433,-222 433,-222 439,-222 445,-228 445,-234 445,-234 445,-246 445,-246 445,-252 439,-258 433,-258"/>
<text text-anchor="middle" x="405.5" y="-236.9" font-family="sans" font-size="12.00" fill="#c4c7c7">Linear order</text>
</a>
</g>
</g>
<!-- Relation&#45;&gt;Linear order -->
<g id="edge6" class="edge">
<title>Relation&#45;&gt;Linear order</title>
<path fill="none" stroke="#ffffff" d="M193.44,-213.1C195.27,-212.29 197.13,-211.58 199,-211 221.93,-203.9 284.53,-202.56 307,-211 311.42,-212.66 310.81,-215.82 315,-218 330.61,-226.13 349.33,-231.33 365.61,-234.62"/>
<polygon fill="#ffffff" stroke="#ffffff" points="191.73,-210.05 184.57,-217.85 195.04,-216.22 191.73,-210.05"/>
</g>
<!-- Partial function -->
<g id="node8" class="node">
<title>Partial function</title>
<g id="a_node8"><a xlink:href="/Knowledge/partial_function.html" xlink:title="Partial function" target="_parent">
<path fill="none" stroke="#b75867" d="M288,-284C288,-284 218,-284 218,-284 212,-284 206,-278 206,-272 206,-272 206,-260 206,-260 206,-254 212,-248 218,-248 218,-248 288,-248 288,-248 294,-248 300,-254 300,-260 300,-260 300,-272 300,-272 300,-278 294,-284 288,-284"/>
<text text-anchor="middle" x="253" y="-262.9" font-family="sans" font-size="12.00" fill="#c4c7c7">Partial function</text>
</a>
</g>
</g>
<!-- Relation&#45;&gt;Partial function -->
<g id="edge7" class="edge">
<title>Relation&#45;&gt;Partial function</title>
<path fill="none" stroke="#ffffff" d="M200.85,-248.85C202.55,-249.42 204.26,-250 205.98,-250.57"/>
<polygon fill="#ffffff" stroke="#ffffff" points="201.9,-245.52 191.31,-245.66 199.68,-252.15 201.9,-245.52"/>
</g>
<!-- Total function -->
<g id="node9" class="node">
<title>Total function</title>
<g id="a_node9"><a xlink:href="/Knowledge/total_function.html" xlink:title="Total function" target="_parent">
<path fill="none" stroke="#b75867" d="M284,-244C284,-244 222,-244 222,-244 216,-244 210,-238 210,-232 210,-232 210,-220 210,-220 210,-214 216,-208 222,-208 222,-208 284,-208 284,-208 290,-208 296,-214 296,-220 296,-220 296,-232 296,-232 296,-238 290,-244 284,-244"/>
<text text-anchor="middle" x="253" y="-222.9" font-family="sans" font-size="12.00" fill="#c4c7c7">Total function</text>
</a>
</g>
</g>
<!-- Relation&#45;&gt;Total function -->
<g id="edge8" class="edge">
<title>Relation&#45;&gt;Total function</title>
<path fill="none" stroke="#ffffff" d="M201.34,-231.66C204.17,-231.34 207.03,-231.02 209.88,-230.71"/>
<polygon fill="#ffffff" stroke="#ffffff" points="200.86,-228.19 191.31,-232.78 201.64,-235.15 200.86,-228.19"/>
</g>
<!-- Reflexive Relation -->
<g id="node10" class="node">
<title>Reflexive Relation</title>
<g id="a_node10"><a xlink:href="/Knowledge/reflexive_relation.html" xlink:title="Reflexive Relation" target="_parent">
<path fill="none" stroke="#b75867" d="M446.5,-221C446.5,-221 364.5,-221 364.5,-221 358.5,-221 352.5,-215 352.5,-209 352.5,-209 352.5,-197 352.5,-197 352.5,-191 358.5,-185 364.5,-185 364.5,-185 446.5,-185 446.5,-185 452.5,-185 458.5,-191 458.5,-197 458.5,-197 458.5,-209 458.5,-209 458.5,-215 452.5,-221 446.5,-221"/>
<text text-anchor="middle" x="405.5" y="-199.9" font-family="sans" font-size="12.00" fill="#c4c7c7">Reflexive Relation</text>
</a>
</g>
</g>
<!-- Relation&#45;&gt;Reflexive Relation -->
<g id="edge9" class="edge">
<title>Relation&#45;&gt;Reflexive Relation</title>
<path fill="none" stroke="#ffffff" d="M189.96,-212.23C192.88,-210.55 195.91,-209.09 199,-208 226.17,-198.41 300.85,-198.93 352.28,-200.62"/>
<polygon fill="#ffffff" stroke="#ffffff" points="187.98,-209.34 181.61,-217.8 191.87,-215.16 187.98,-209.34"/>
</g>
<!-- Symmetric Closure -->
<g id="node11" class="node">
<title>Symmetric Closure</title>
<g id="a_node11"><a xlink:href="/Knowledge/symmetric_closure.html" xlink:title="Symmetric Closure" target="_parent">
<path fill="none" stroke="#b75867" d="M449,-480C449,-480 362,-480 362,-480 356,-480 350,-474 350,-468 350,-468 350,-456 350,-456 350,-450 356,-444 362,-444 362,-444 449,-444 449,-444 455,-444 461,-450 461,-456 461,-456 461,-468 461,-468 461,-474 455,-480 449,-480"/>
<text text-anchor="middle" x="405.5" y="-458.9" font-family="sans" font-size="12.00" fill="#c4c7c7">Symmetric Closure</text>
</a>
</g>
</g>
<!-- Relation&#45;&gt;Symmetric Closure -->
<g id="edge10" class="edge">
<title>Relation&#45;&gt;Symmetric Closure</title>
<path fill="none" stroke="#ffffff" d="M171.27,-263.76C177.52,-281.3 186.95,-303.96 199,-322 239.86,-383.15 251.09,-403.62 315,-440 325.57,-446.02 337.75,-450.4 349.66,-453.59"/>
<polygon fill="#ffffff" stroke="#ffffff" points="174.52,-262.43 167.97,-254.11 167.9,-264.7 174.52,-262.43"/>
</g>
<!-- Anti&#45;symmetric Relation -->
<g id="node12" class="node">
<title>Anti&#45;symmetric Relation</title>
<g id="a_node12"><a xlink:href="/Knowledge/anti-symmetric_relation.html" xlink:title="Anti&#45;symmetric Relation" target="_parent">
<path fill="none" stroke="#b75867" d="M462,-184C462,-184 349,-184 349,-184 343,-184 337,-178 337,-172 337,-172 337,-160 337,-160 337,-154 343,-148 349,-148 349,-148 462,-148 462,-148 468,-148 474,-154 474,-160 474,-160 474,-172 474,-172 474,-178 468,-184 462,-184"/>
<text text-anchor="middle" x="405.5" y="-162.9" font-family="sans" font-size="12.00" fill="#c4c7c7">Anti&#45;symmetric Relation</text>
</a>
</g>
</g>
<!-- Relation&#45;&gt;Anti&#45;symmetric Relation -->
<g id="edge11" class="edge">
<title>Relation&#45;&gt;Anti&#45;symmetric Relation</title>
<path fill="none" stroke="#ffffff" d="M187.55,-211.47C191.18,-208.93 195.03,-206.67 199,-205 243.43,-186.31 262.71,-214.02 307,-195 311.34,-193.14 310.81,-190.18 315,-188 321.81,-184.45 329.22,-181.46 336.75,-178.95"/>
<polygon fill="#ffffff" stroke="#ffffff" points="185.24,-208.84 179.57,-217.79 189.58,-214.33 185.24,-208.84"/>
</g>
<!-- Symmetric Relation -->
<g id="node13" class="node">
<title>Symmetric Relation</title>
<g id="a_node13"><a xlink:href="/Knowledge/symmetric_relation.html" xlink:title="Symmetric Relation" target="_parent">
<path fill="none" stroke="#b75867" d="M451,-147C451,-147 360,-147 360,-147 354,-147 348,-141 348,-135 348,-135 348,-123 348,-123 348,-117 354,-111 360,-111 360,-111 451,-111 451,-111 457,-111 463,-117 463,-123 463,-123 463,-135 463,-135 463,-141 457,-147 451,-147"/>
<text text-anchor="middle" x="405.5" y="-125.9" font-family="sans" font-size="12.00" fill="#c4c7c7">Symmetric Relation</text>
</a>
</g>
</g>
<!-- Relation&#45;&gt;Symmetric Relation -->
<g id="edge12" class="edge">
<title>Relation&#45;&gt;Symmetric Relation</title>
<path fill="none" stroke="#ffffff" d="M185.14,-210.82C189.41,-207.34 194.09,-204.2 199,-202 221,-192.15 289.12,-208.17 307,-192 320.77,-179.55 302.19,-164.44 315,-151 323.72,-141.85 335.58,-136.25 347.81,-132.88"/>
<polygon fill="#ffffff" stroke="#ffffff" points="182.51,-208.49 177.48,-217.81 187.23,-213.66 182.51,-208.49"/>
</g>
<!-- Reflexive Closure -->
<g id="node14" class="node">
<title>Reflexive Closure</title>
<g id="a_node14"><a xlink:href="/Knowledge/reflexive_closure.html" xlink:title="Reflexive Closure" target="_parent">
<path fill="none" stroke="#b75867" d="M444.5,-295C444.5,-295 366.5,-295 366.5,-295 360.5,-295 354.5,-289 354.5,-283 354.5,-283 354.5,-271 354.5,-271 354.5,-265 360.5,-259 366.5,-259 366.5,-259 444.5,-259 444.5,-259 450.5,-259 456.5,-265 456.5,-271 456.5,-271 456.5,-283 456.5,-283 456.5,-289 450.5,-295 444.5,-295"/>
<text text-anchor="middle" x="405.5" y="-273.9" font-family="sans" font-size="12.00" fill="#c4c7c7">Reflexive Closure</text>
</a>
</g>
</g>
<!-- Relation&#45;&gt;Reflexive Closure -->
<g id="edge13" class="edge">
<title>Relation&#45;&gt;Reflexive Closure</title>
<path fill="none" stroke="#ffffff" d="M201.15,-241.09C248.74,-245.49 263.54,-238.6 307,-251 310.82,-252.09 311.27,-253.63 315,-255 327.46,-259.58 341.25,-263.51 354.2,-266.72"/>
<polygon fill="#ffffff" stroke="#ffffff" points="201.49,-237.61 191.18,-240.05 200.76,-244.57 201.49,-237.61"/>
</g>
<!-- Strongly Anti&#45;symmetric Relation -->
<g id="node15" class="node">
<title>Strongly Anti&#45;symmetric Relation</title>
<g id="a_node15"><a xlink:href="/Knowledge/strongly_anti-symmetric_relation.html" xlink:title="Strongly Anti&#45;symmetric Relation" target="_parent">
<path fill="none" stroke="#b75867" d="M484,-110C484,-110 327,-110 327,-110 321,-110 315,-104 315,-98 315,-98 315,-86 315,-86 315,-80 321,-74 327,-74 327,-74 484,-74 484,-74 490,-74 496,-80 496,-86 496,-86 496,-98 496,-98 496,-104 490,-110 484,-110"/>
<text text-anchor="middle" x="405.5" y="-88.9" font-family="sans" font-size="12.00" fill="#c4c7c7">Strongly Anti&#45;symmetric Relation</text>
</a>
</g>
</g>
<!-- Relation&#45;&gt;Strongly Anti&#45;symmetric Relation -->
<g id="edge15" class="edge">
<title>Relation&#45;&gt;Strongly Anti&#45;symmetric Relation</title>
<path fill="none" stroke="#ffffff" d="M182.83,-210.48C187.64,-205.95 193.11,-201.79 199,-199 220.78,-188.68 289.84,-205.92 307,-189 318.93,-177.23 303.97,-126.62 315,-114 316.16,-112.67 317.38,-111.42 318.66,-110.24"/>
<polygon fill="#ffffff" stroke="#ffffff" points="180.23,-208.13 175.82,-217.77 185.27,-212.98 180.23,-208.13"/>
</g>
<!-- Transitive Relation -->
<g id="node16" class="node">
<title>Transitive Relation</title>
<g id="a_node16"><a xlink:href="/Knowledge/transitive_relation.html" xlink:title="Transitive Relation" target="_parent">
<path fill="none" stroke="#b75867" d="M448.5,-73C448.5,-73 362.5,-73 362.5,-73 356.5,-73 350.5,-67 350.5,-61 350.5,-61 350.5,-49 350.5,-49 350.5,-43 356.5,-37 362.5,-37 362.5,-37 448.5,-37 448.5,-37 454.5,-37 460.5,-43 460.5,-49 460.5,-49 460.5,-61 460.5,-61 460.5,-67 454.5,-73 448.5,-73"/>
<text text-anchor="middle" x="405.5" y="-51.9" font-family="sans" font-size="12.00" fill="#c4c7c7">Transitive Relation</text>
</a>
</g>
</g>
<!-- Relation&#45;&gt;Transitive Relation -->
<g id="edge17" class="edge">
<title>Relation&#45;&gt;Transitive Relation</title>
<path fill="none" stroke="#ffffff" d="M180.77,-210.26C186.01,-204.66 192.17,-199.4 199,-196 220.58,-185.26 290.12,-203.2 307,-186 324.01,-168.66 299.33,-95.55 315,-77 323.88,-66.49 336.9,-60.56 350.26,-57.31"/>
<polygon fill="#ffffff" stroke="#ffffff" points="178.03,-208.08 174.23,-217.97 183.37,-212.61 178.03,-208.08"/>
</g>
<!-- Relation of Equivalence -->
<g id="node17" class="node">
<title>Relation of Equivalence</title>
<g id="a_node17"><a xlink:href="/Knowledge/relation_of_equivalence.html" xlink:title="Relation of Equivalence" target="_parent">
<path fill="none" stroke="#b75867" d="M460.5,-36C460.5,-36 350.5,-36 350.5,-36 344.5,-36 338.5,-30 338.5,-24 338.5,-24 338.5,-12 338.5,-12 338.5,-6 344.5,0 350.5,0 350.5,0 460.5,0 460.5,0 466.5,0 472.5,-6 472.5,-12 472.5,-12 472.5,-24 472.5,-24 472.5,-30 466.5,-36 460.5,-36"/>
<text text-anchor="middle" x="405.5" y="-14.9" font-family="sans" font-size="12.00" fill="#c4c7c7">Relation of Equivalence</text>
</a>
</g>
</g>
<!-- Relation&#45;&gt;Relation of Equivalence -->
<g id="edge18" class="edge">
<title>Relation&#45;&gt;Relation of Equivalence</title>
<path fill="none" stroke="#ffffff" d="M179.3,-209.71C184.78,-203.18 191.43,-196.94 199,-193 220.38,-181.88 290.27,-200.35 307,-183 329.09,-160.09 294.67,-64.49 315,-40 321.13,-32.61 329.31,-27.48 338.23,-23.95"/>
<polygon fill="#ffffff" stroke="#ffffff" points="176.29,-207.89 173.01,-217.96 181.86,-212.13 176.29,-207.89"/>
</g>
<!-- Relations&#45;&gt;Anti&#45;reflexive relation -->
<g id="edge35" class="edge">
<title>Relations&#45;&gt;Anti&#45;reflexive relation</title>
<path fill="none" stroke="#b75867" d="M220.75,-296.47C197.21,-291.27 163.98,-283.76 134.09,-276.9"/>
<polygon fill="#b75867" stroke="#b75867" points="134.63,-273.44 124.1,-274.61 133.06,-280.26 134.63,-273.44"/>
</g>
<!-- Relations&#45;&gt;Relation -->
<g id="edge37" class="edge">
<title>Relations&#45;&gt;Relation</title>
<path fill="none" stroke="#b75867" d="M220.9,-294.07C213.34,-290.9 205.55,-286.89 199,-282 191.7,-276.55 185,-269.32 179.38,-262.22"/>
<polygon fill="#b75867" stroke="#b75867" points="182.09,-259.99 173.32,-254.04 176.47,-264.16 182.09,-259.99"/>
</g>
<!-- Relations&#45;&gt;Partial order -->
<g id="edge22" class="edge">
<title>Relations&#45;&gt;Partial order</title>
<path fill="none" stroke="#b75867" d="M258.95,-321.01C272.84,-371.43 311.4,-510.54 315,-514 325.97,-524.54 341.13,-530.28 355.87,-533.34"/>
<polygon fill="#b75867" stroke="#b75867" points="355.49,-536.83 365.94,-535.05 356.67,-529.93 355.49,-536.83"/>
</g>
<!-- Relations&#45;&gt;Chain -->
<g id="edge19" class="edge">
<title>Relations&#45;&gt;Chain</title>
<path fill="none" stroke="#b75867" d="M261.47,-321.3C272.33,-348.3 292.75,-400.52 307,-446 311.26,-459.58 304.88,-467 315,-477 328.95,-490.79 350.07,-496.42 368.29,-498.54"/>
<polygon fill="#b75867" stroke="#b75867" points="368.07,-502.03 378.33,-499.4 368.67,-495.06 368.07,-502.03"/>
</g>
<!-- Relations&#45;&gt;Linear order -->
<g id="edge21" class="edge">
<title>Relations&#45;&gt;Linear order</title>
<path fill="none" stroke="#b75867" d="M285.04,-294.77C292.95,-291.51 300.93,-287.04 307,-281 313.5,-274.54 308.03,-267.95 315,-262 326.37,-252.29 341.36,-246.74 355.82,-243.6"/>
<polygon fill="#b75867" stroke="#b75867" points="356.49,-247.04 365.69,-241.8 355.23,-240.15 356.49,-247.04"/>
</g>
<!-- Relations&#45;&gt;Reflexive Relation -->
<g id="edge36" class="edge">
<title>Relations&#45;&gt;Reflexive Relation</title>
<path fill="none" stroke="#b75867" d="M285.02,-296.18C293.32,-292.91 301.51,-288.09 307,-281 322.41,-261.13 298.12,-243.64 315,-225 322.32,-216.92 332.08,-211.58 342.47,-208.1"/>
<polygon fill="#b75867" stroke="#b75867" points="343.45,-211.46 352.13,-205.4 341.56,-204.72 343.45,-211.46"/>
</g>
<!-- Relations&#45;&gt;Symmetric Closure -->
<g id="edge26" class="edge">
<title>Relations&#45;&gt;Symmetric Closure</title>
<path fill="none" stroke="#b75867" d="M267.79,-321.17C280.05,-338.26 297.47,-365.05 307,-391 314.61,-411.71 300.03,-423.79 315,-440 321.84,-447.4 330.73,-452.5 340.26,-455.97"/>
<polygon fill="#b75867" stroke="#b75867" points="339.35,-459.35 349.94,-458.92 341.39,-452.65 339.35,-459.35"/>
</g>
<!-- Relations&#45;&gt;Symmetric Closure -->
<g id="edge28" class="edge">
<title>Relations&#45;&gt;Symmetric Closure</title>
<path fill="none" stroke="#b75867" d="M267.32,-321.28C279.6,-338.57 297.35,-365.72 307,-392 314.61,-412.71 300.03,-424.79 315,-441 321.84,-448.4 330.73,-453.5 340.26,-456.95"/>
<polygon fill="#b75867" stroke="#b75867" points="339.35,-460.33 349.94,-459.89 341.38,-453.64 339.35,-460.33"/>
</g>
<!-- Relations&#45;&gt;Anti&#45;symmetric Relation -->
<g id="edge33" class="edge">
<title>Relations&#45;&gt;Anti&#45;symmetric Relation</title>
<path fill="none" stroke="#b75867" d="M285.28,-296.37C293.58,-293.1 301.71,-288.24 307,-281 319.25,-264.26 301.51,-203.76 315,-188 318.64,-183.74 322.96,-180.24 327.7,-177.37"/>
<polygon fill="#b75867" stroke="#b75867" points="329.3,-180.48 336.64,-172.84 326.14,-174.23 329.3,-180.48"/>
</g>
<!-- Relations&#45;&gt;Symmetric Relation -->
<g id="edge34" class="edge">
<title>Relations&#45;&gt;Symmetric Relation</title>
<path fill="none" stroke="#b75867" d="M285.11,-296.56C293.52,-293.3 301.74,-288.38 307,-281 323.8,-257.43 296.45,-173.22 315,-151 321.16,-143.62 329.37,-138.49 338.32,-134.96"/>
<polygon fill="#b75867" stroke="#b75867" points="339.44,-138.28 347.85,-131.84 337.26,-131.62 339.44,-138.28"/>
</g>
<!-- Relations&#45;&gt;Reflexive Closure -->
<g id="edge27" class="edge">
<title>Relations&#45;&gt;Reflexive Closure</title>
<path fill="none" stroke="#b75867" d="M285.18,-297.61C302.27,-294.66 324.04,-290.9 344.29,-287.4"/>
<polygon fill="#b75867" stroke="#b75867" points="345.14,-290.81 354.4,-285.66 343.95,-283.91 345.14,-290.81"/>
</g>
<!-- Relations&#45;&gt;Reflexive Closure -->
<g id="edge30" class="edge">
<title>Relations&#45;&gt;Reflexive Closure</title>
<path fill="none" stroke="#b75867" d="M285.18,-298.23C302.27,-295.4 324.04,-291.67 344.29,-288.14"/>
<polygon fill="#b75867" stroke="#b75867" points="345.15,-291.54 354.4,-286.37 343.94,-284.65 345.15,-291.54"/>
</g>
<!-- Relations&#45;&gt;Strongly Anti&#45;symmetric Relation -->
<g id="edge32" class="edge">
<title>Relations&#45;&gt;Strongly Anti&#45;symmetric Relation</title>
<path fill="none" stroke="#b75867" d="M285.17,-296.61C293.58,-293.34 301.79,-288.42 307,-281 316.56,-267.4 305.97,-155.98 314.63,-119.6"/>
<polygon fill="#b75867" stroke="#b75867" points="317.95,-120.73 318.56,-110.15 311.49,-118.04 317.95,-120.73"/>
</g>
<!-- Relations&#45;&gt;Transitive Relation -->
<g id="edge31" class="edge">
<title>Relations&#45;&gt;Transitive Relation</title>
<path fill="none" stroke="#b75867" d="M285.21,-296.64C293.62,-293.37 301.82,-288.44 307,-281 319.96,-262.38 300.66,-94.57 315,-77 321.67,-68.83 330.84,-63.4 340.78,-59.86"/>
<polygon fill="#b75867" stroke="#b75867" points="341.88,-63.18 350.49,-57 339.91,-56.47 341.88,-63.18"/>
</g>
<!-- Relations&#45;&gt;Relation of Equivalence -->
<g id="edge24" class="edge">
<title>Relations&#45;&gt;Relation of Equivalence</title>
<path fill="none" stroke="#b75867" d="M285.24,-296.65C293.65,-293.39 301.84,-288.46 307,-281 322.24,-258.97 298.12,-60.81 315,-40 318.87,-35.22 323.6,-31.39 328.84,-28.31"/>
<polygon fill="#b75867" stroke="#b75867" points="330.61,-31.34 338.08,-23.83 327.55,-25.05 330.61,-31.34"/>
</g>
<!-- Linear extension -->
<g id="node18" class="node">
<title>Linear extension</title>
<g id="a_node18"><a xlink:href="/Knowledge/linear_extension.html" xlink:title="Linear extension" target="_parent">
<path fill="#273434" stroke="#b75867" d="M444,-369C444,-369 367,-369 367,-369 361,-369 355,-363 355,-357 355,-357 355,-345 355,-345 355,-339 361,-333 367,-333 367,-333 444,-333 444,-333 450,-333 456,-339 456,-345 456,-345 456,-357 456,-357 456,-363 450,-369 444,-369"/>
<text text-anchor="middle" x="405.5" y="-347.9" font-family="sans" font-size="12.00" fill="#c4c7c7">Linear extension</text>
</a>
</g>
</g>
<!-- Relations&#45;&gt;Linear extension -->
<g id="edge20" class="edge">
<title>Relations&#45;&gt;Linear extension</title>
<path fill="none" stroke="#b75867" d="M285.29,-317.48C294.71,-321.53 305.17,-325.72 315,-329 324.56,-332.19 334.84,-335.14 344.9,-337.78"/>
<polygon fill="#b75867" stroke="#b75867" points="344.3,-341.24 354.85,-340.31 346.02,-334.45 344.3,-341.24"/>
</g>
<!-- Class of equivalence -->
<g id="node19" class="node">
<title>Class of equivalence</title>
<g id="a_node19"><a xlink:href="/Knowledge/class_of_equivalence.html" xlink:title="Class of equivalence" target="_parent">
<path fill="#273434" stroke="#b75867" d="M453,-332C453,-332 358,-332 358,-332 352,-332 346,-326 346,-320 346,-320 346,-308 346,-308 346,-302 352,-296 358,-296 358,-296 453,-296 453,-296 459,-296 465,-302 465,-308 465,-308 465,-320 465,-320 465,-326 459,-332 453,-332"/>
<text text-anchor="middle" x="405.5" y="-310.9" font-family="sans" font-size="12.00" fill="#c4c7c7">Class of equivalence</text>
</a>
</g>
</g>
<!-- Relations&#45;&gt;Class of equivalence -->
<g id="edge23" class="edge">
<title>Relations&#45;&gt;Class of equivalence</title>
<path fill="none" stroke="#b75867" d="M285.18,-305.28C299.87,-306.35 318,-307.68 335.67,-308.97"/>
<polygon fill="#b75867" stroke="#b75867" points="335.75,-312.48 345.98,-309.72 336.26,-305.5 335.75,-312.48"/>
</g>
<!-- Transitive Closure -->
<g id="node20" class="node">
<title>Transitive Closure</title>
<g id="a_node20"><a xlink:href="/Knowledge/transitive_closure.html" xlink:title="Transitive Closure" target="_parent">
<path fill="#273434" stroke="#b75867" d="M446.5,-443C446.5,-443 364.5,-443 364.5,-443 358.5,-443 352.5,-437 352.5,-431 352.5,-431 352.5,-419 352.5,-419 352.5,-413 358.5,-407 364.5,-407 364.5,-407 446.5,-407 446.5,-407 452.5,-407 458.5,-413 458.5,-419 458.5,-419 458.5,-431 458.5,-431 458.5,-437 452.5,-443 446.5,-443"/>
<text text-anchor="middle" x="405.5" y="-421.9" font-family="sans" font-size="12.00" fill="#c4c7c7">Transitive Closure</text>
</a>
</g>
</g>
<!-- Relations&#45;&gt;Transitive Closure -->
<g id="edge25" class="edge">
<title>Relations&#45;&gt;Transitive Closure</title>
<path fill="none" stroke="#b75867" d="M264.76,-321.03C281.76,-349.45 313.09,-401.6 315,-403 323.13,-408.96 332.68,-413.31 342.46,-416.5"/>
<polygon fill="#b75867" stroke="#b75867" points="341.69,-419.92 352.27,-419.31 343.62,-413.19 341.69,-419.92"/>
</g>
<!-- Relations&#45;&gt;Transitive Closure -->
<g id="edge29" class="edge">
<title>Relations&#45;&gt;Transitive Closure</title>
<path fill="none" stroke="#b75867" d="M264.49,-321.18C281.42,-349.88 313.08,-402.6 315,-404 323.13,-409.96 332.68,-414.31 342.46,-417.48"/>
<polygon fill="#b75867" stroke="#b75867" points="341.69,-420.9 352.27,-420.27 343.61,-414.17 341.69,-420.9"/>
</g>
<!-- Discrete Structures -->
<g id="node21" class="node">
<title>Discrete Structures</title>
<g id="a_node21"><a xlink:href="/Knowledge/discrete_structures.html" xlink:title="Discrete Structures" target="_parent">
<path fill="none" stroke="#b75867" d="M449,-406C449,-406 362,-406 362,-406 356,-406 350,-400 350,-394 350,-394 350,-382 350,-382 350,-376 356,-370 362,-370 362,-370 449,-370 449,-370 455,-370 461,-376 461,-382 461,-382 461,-394 461,-394 461,-400 455,-406 449,-406"/>
<text text-anchor="middle" x="405.5" y="-384.9" font-family="sans" font-size="12.00" fill="#c4c7c7">Discrete Structures</text>
</a>
</g>
</g>
<!-- Relations&#45;&gt;Discrete Structures -->
<g id="edge38" class="edge">
<title>Relations&#45;&gt;Discrete Structures</title>
<path fill="none" stroke="#ffffff" d="M273.56,-329.3C284.43,-342.15 298.97,-356.8 315,-366 325.55,-372.06 337.72,-376.45 349.62,-379.65"/>
<polygon fill="#ffffff" stroke="#ffffff" points="276,-326.74 266.98,-321.19 270.56,-331.16 276,-326.74"/>
</g>
</g>
</svg>
