<?xml version="1.0" encoding="UTF-8" standalone="no"?>
<!DOCTYPE svg PUBLIC "-//W3C//DTD SVG 1.1//EN"
 "http://www.w3.org/Graphics/SVG/1.1/DTD/svg11.dtd">
<!-- Generated by graphviz version 2.46.1 (0)
 -->
<!-- Title: Anti&#45;symmetric Relation Pages: 1 -->
<svg width="699pt" height="534pt"
 viewBox="0.00 0.00 699.00 534.04" xmlns="http://www.w3.org/2000/svg" xmlns:xlink="http://www.w3.org/1999/xlink">
<g id="graph0" class="graph" transform="scale(1 1) rotate(0) translate(4 530.04)">
<title>Anti&#45;symmetric Relation</title>
<polygon fill="#132020" stroke="transparent" points="-4,4 -4,-530.04 695,-530.04 695,4 -4,4"/>
<!-- Anti&#45;symmetric Relation -->
<g id="node1" class="node">
<title>Anti&#45;symmetric Relation</title>
<g id="a_node1"><a xlink:href="/Knowledge/anti-symmetric_relation.html" xlink:title="Anti&#45;symmetric Relation" target="_parent">
<path fill="#273434" stroke="#b75867" d="M125,-353.04C125,-353.04 12,-353.04 12,-353.04 6,-353.04 0,-347.04 0,-341.04 0,-341.04 0,-329.04 0,-329.04 0,-323.04 6,-317.04 12,-317.04 12,-317.04 125,-317.04 125,-317.04 131,-317.04 137,-323.04 137,-329.04 137,-329.04 137,-341.04 137,-341.04 137,-347.04 131,-353.04 125,-353.04"/>
<text text-anchor="middle" x="68.5" y="-331.94" font-family="sans" font-size="12.00" fill="#c4c7c7">Anti&#45;symmetric Relation</text>
</a>
</g>
</g>
<!-- Relation -->
<g id="node2" class="node">
<title>Relation</title>
<g id="a_node2"><a xlink:href="/Knowledge/relation.html" xlink:title="Relation" target="_parent">
<path fill="#273434" stroke="#b75867" d="M192,-304.04C192,-304.04 157,-304.04 157,-304.04 151,-304.04 145,-298.04 145,-292.04 145,-292.04 145,-280.04 145,-280.04 145,-274.04 151,-268.04 157,-268.04 157,-268.04 192,-268.04 192,-268.04 198,-268.04 204,-274.04 204,-280.04 204,-280.04 204,-292.04 204,-292.04 204,-298.04 198,-304.04 192,-304.04"/>
<text text-anchor="middle" x="174.5" y="-282.94" font-family="sans" font-size="12.00" fill="#c4c7c7">Relation</text>
</a>
</g>
</g>
<!-- Anti&#45;symmetric Relation&#45;&gt;Relation -->
<g id="edge1" class="edge">
<title>Anti&#45;symmetric Relation&#45;&gt;Relation</title>
<path fill="none" stroke="#b75867" d="M107.93,-316.93C117.03,-312.64 126.74,-308.07 135.81,-303.79"/>
<polygon fill="#b75867" stroke="#b75867" points="137.43,-306.9 144.98,-299.47 134.44,-300.57 137.43,-306.9"/>
</g>
<!-- Partial order -->
<g id="node3" class="node">
<title>Partial order</title>
<g id="a_node3"><a xlink:href="/Knowledge/partial_order.html" xlink:title="Partial order" target="_parent">
<path fill="none" stroke="#b75867" d="M293.5,-373.04C293.5,-373.04 238.5,-373.04 238.5,-373.04 232.5,-373.04 226.5,-367.04 226.5,-361.04 226.5,-361.04 226.5,-349.04 226.5,-349.04 226.5,-343.04 232.5,-337.04 238.5,-337.04 238.5,-337.04 293.5,-337.04 293.5,-337.04 299.5,-337.04 305.5,-343.04 305.5,-349.04 305.5,-349.04 305.5,-361.04 305.5,-361.04 305.5,-367.04 299.5,-373.04 293.5,-373.04"/>
<text text-anchor="middle" x="266" y="-351.94" font-family="sans" font-size="12.00" fill="#c4c7c7">Partial order</text>
</a>
</g>
</g>
<!-- Anti&#45;symmetric Relation&#45;&gt;Partial order -->
<g id="edge2" class="edge">
<title>Anti&#45;symmetric Relation&#45;&gt;Partial order</title>
<path fill="none" stroke="#ffffff" d="M147.32,-343C174.44,-345.77 203.69,-348.76 226.24,-351.07"/>
<polygon fill="#ffffff" stroke="#ffffff" points="147.36,-339.48 137.05,-341.95 146.65,-346.45 147.36,-339.48"/>
</g>
<!-- Relations -->
<g id="node4" class="node">
<title>Relations</title>
<g id="a_node4"><a xlink:href="/Knowledge/relations.html" xlink:title="Relations" target="_parent">
<path fill="none" stroke="#b75867" d="M435,-304.04C435,-304.04 395,-304.04 395,-304.04 389,-304.04 383,-298.04 383,-292.04 383,-292.04 383,-280.04 383,-280.04 383,-274.04 389,-268.04 395,-268.04 395,-268.04 435,-268.04 435,-268.04 441,-268.04 447,-274.04 447,-280.04 447,-280.04 447,-292.04 447,-292.04 447,-298.04 441,-304.04 435,-304.04"/>
<text text-anchor="middle" x="415" y="-282.94" font-family="sans" font-size="12.00" fill="#c4c7c7">Relations</text>
</a>
</g>
</g>
<!-- Anti&#45;symmetric Relation&#45;&gt;Relations -->
<g id="edge3" class="edge">
<title>Anti&#45;symmetric Relation&#45;&gt;Relations</title>
<path fill="none" stroke="#ffffff" d="M147.12,-338.93C197.06,-339.72 263.03,-337.57 320,-325.04 341.74,-320.25 364.85,-310.73 382.72,-302.29"/>
<polygon fill="#ffffff" stroke="#ffffff" points="147.11,-335.43 137.04,-338.72 146.96,-342.42 147.11,-335.43"/>
</g>
<!-- Relation&#45;&gt;Anti&#45;symmetric Relation -->
<g id="edge12" class="edge">
<title>Relation&#45;&gt;Anti&#45;symmetric Relation</title>
<path fill="none" stroke="#ffffff" d="M135.79,-304.52C127.22,-308.6 118.08,-312.91 109.41,-316.96"/>
<polygon fill="#ffffff" stroke="#ffffff" points="137.31,-307.68 144.83,-300.22 134.3,-301.36 137.31,-307.68"/>
</g>
<!-- Relation&#45;&gt;Partial order -->
<g id="edge5" class="edge">
<title>Relation&#45;&gt;Partial order</title>
<path fill="none" stroke="#ffffff" d="M192.48,-312.79C198.03,-320.06 204.68,-327.45 212,-333.04 216.36,-336.36 221.29,-339.27 226.34,-341.79"/>
<polygon fill="#ffffff" stroke="#ffffff" points="195.16,-310.52 186.48,-304.44 189.47,-314.6 195.16,-310.52"/>
</g>
<!-- Relation&#45;&gt;Relations -->
<g id="edge17" class="edge">
<title>Relation&#45;&gt;Relations</title>
<path fill="none" stroke="#ffffff" d="M214.37,-286.04C261.4,-286.04 339.62,-286.04 382.86,-286.04"/>
<polygon fill="#ffffff" stroke="#ffffff" points="214.27,-282.54 204.27,-286.04 214.27,-289.54 214.27,-282.54"/>
</g>
<!-- Descartes Product -->
<g id="node5" class="node">
<title>Descartes Product</title>
<g id="a_node5"><a xlink:href="/Knowledge/descartes_product.html" xlink:title="Descartes Product" target="_parent">
<path fill="#273434" stroke="#b75867" d="M308,-324.04C308,-324.04 224,-324.04 224,-324.04 218,-324.04 212,-318.04 212,-312.04 212,-312.04 212,-300.04 212,-300.04 212,-294.04 218,-288.04 224,-288.04 224,-288.04 308,-288.04 308,-288.04 314,-288.04 320,-294.04 320,-300.04 320,-300.04 320,-312.04 320,-312.04 320,-318.04 314,-324.04 308,-324.04"/>
<text text-anchor="middle" x="266" y="-302.94" font-family="sans" font-size="12.00" fill="#c4c7c7">Descartes Product</text>
</a>
</g>
</g>
<!-- Relation&#45;&gt;Descartes Product -->
<g id="edge4" class="edge">
<title>Relation&#45;&gt;Descartes Product</title>
<path fill="none" stroke="#b75867" d="M204.31,-292.47C204.46,-292.51 204.62,-292.54 204.77,-292.58"/>
<polygon fill="#b75867" stroke="#b75867" points="201.33,-295.39 211.85,-294.16 202.86,-288.56 201.33,-295.39"/>
</g>
<!-- Chain -->
<g id="node6" class="node">
<title>Chain</title>
<g id="a_node6"><a xlink:href="/Knowledge/chain.html" xlink:title="Chain" target="_parent">
<path fill="none" stroke="#b75867" d="M615.5,-156.04C615.5,-156.04 585.5,-156.04 585.5,-156.04 579.5,-156.04 573.5,-150.04 573.5,-144.04 573.5,-144.04 573.5,-132.04 573.5,-132.04 573.5,-126.04 579.5,-120.04 585.5,-120.04 585.5,-120.04 615.5,-120.04 615.5,-120.04 621.5,-120.04 627.5,-126.04 627.5,-132.04 627.5,-132.04 627.5,-144.04 627.5,-144.04 627.5,-150.04 621.5,-156.04 615.5,-156.04"/>
<text text-anchor="middle" x="600.5" y="-134.94" font-family="sans" font-size="12.00" fill="#c4c7c7">Chain</text>
</a>
</g>
</g>
<!-- Relation&#45;&gt;Chain -->
<g id="edge6" class="edge">
<title>Relation&#45;&gt;Chain</title>
<path fill="none" stroke="#ffffff" d="M178.31,-257.64C182.1,-235.52 191.02,-205.99 212,-190.04 263.52,-150.86 438.92,-177.53 502,-163.04 505.7,-162.19 506.37,-161.16 510,-160.04 531.1,-153.51 555.46,-147.63 573.43,-143.59"/>
<polygon fill="#ffffff" stroke="#ffffff" points="174.8,-257.41 176.83,-267.81 181.73,-258.42 174.8,-257.41"/>
</g>
<!-- Linear order -->
<g id="node7" class="node">
<title>Linear order</title>
<g id="a_node7"><a xlink:href="/Knowledge/linear_order.html" xlink:title="Linear order" target="_parent">
<path fill="none" stroke="#b75867" d="M628,-452.04C628,-452.04 573,-452.04 573,-452.04 567,-452.04 561,-446.04 561,-440.04 561,-440.04 561,-428.04 561,-428.04 561,-422.04 567,-416.04 573,-416.04 573,-416.04 628,-416.04 628,-416.04 634,-416.04 640,-422.04 640,-428.04 640,-428.04 640,-440.04 640,-440.04 640,-446.04 634,-452.04 628,-452.04"/>
<text text-anchor="middle" x="600.5" y="-430.94" font-family="sans" font-size="12.00" fill="#c4c7c7">Linear order</text>
</a>
</g>
</g>
<!-- Relation&#45;&gt;Linear order -->
<g id="edge7" class="edge">
<title>Relation&#45;&gt;Linear order</title>
<path fill="none" stroke="#ffffff" d="M194.73,-311.66C199.77,-316.63 205.6,-321.18 212,-324.04 241.44,-337.18 478.44,-312.02 502,-334.04 514.73,-345.93 498.56,-398.89 510,-412.04 522.5,-426.4 542.72,-432.16 560.78,-434.22"/>
<polygon fill="#ffffff" stroke="#ffffff" points="197.27,-309.25 187.94,-304.22 192.09,-313.96 197.27,-309.25"/>
</g>
<!-- Partial function -->
<g id="node8" class="node">
<title>Partial function</title>
<g id="a_node8"><a xlink:href="/Knowledge/partial_function.html" xlink:title="Partial function" target="_parent">
<path fill="none" stroke="#b75867" d="M301,-284.04C301,-284.04 231,-284.04 231,-284.04 225,-284.04 219,-278.04 219,-272.04 219,-272.04 219,-260.04 219,-260.04 219,-254.04 225,-248.04 231,-248.04 231,-248.04 301,-248.04 301,-248.04 307,-248.04 313,-254.04 313,-260.04 313,-260.04 313,-272.04 313,-272.04 313,-278.04 307,-284.04 301,-284.04"/>
<text text-anchor="middle" x="266" y="-262.94" font-family="sans" font-size="12.00" fill="#c4c7c7">Partial function</text>
</a>
</g>
</g>
<!-- Relation&#45;&gt;Partial function -->
<g id="edge8" class="edge">
<title>Relation&#45;&gt;Partial function</title>
<path fill="none" stroke="#ffffff" d="M214.31,-277.36C215.86,-277.02 217.42,-276.67 218.98,-276.32"/>
<polygon fill="#ffffff" stroke="#ffffff" points="213.31,-274 204.31,-279.6 214.83,-280.83 213.31,-274"/>
</g>
<!-- Total function -->
<g id="node9" class="node">
<title>Total function</title>
<g id="a_node9"><a xlink:href="/Knowledge/total_function.html" xlink:title="Total function" target="_parent">
<path fill="none" stroke="#b75867" d="M297,-247.04C297,-247.04 235,-247.04 235,-247.04 229,-247.04 223,-241.04 223,-235.04 223,-235.04 223,-223.04 223,-223.04 223,-217.04 229,-211.04 235,-211.04 235,-211.04 297,-211.04 297,-211.04 303,-211.04 309,-217.04 309,-223.04 309,-223.04 309,-235.04 309,-235.04 309,-241.04 303,-247.04 297,-247.04"/>
<text text-anchor="middle" x="266" y="-225.94" font-family="sans" font-size="12.00" fill="#c4c7c7">Total function</text>
</a>
</g>
</g>
<!-- Relation&#45;&gt;Total function -->
<g id="edge9" class="edge">
<title>Relation&#45;&gt;Total function</title>
<path fill="none" stroke="#ffffff" d="M199.23,-260.92C203.28,-257.34 207.61,-253.9 212,-251.04 215.42,-248.8 219.1,-246.72 222.88,-244.79"/>
<polygon fill="#ffffff" stroke="#ffffff" points="196.71,-258.48 191.82,-267.88 201.51,-263.58 196.71,-258.48"/>
</g>
<!-- Reflexive Relation -->
<g id="node10" class="node">
<title>Reflexive Relation</title>
<g id="a_node10"><a xlink:href="/Knowledge/reflexive_relation.html" xlink:title="Reflexive Relation" target="_parent">
<path fill="none" stroke="#b75867" d="M641.5,-415.04C641.5,-415.04 559.5,-415.04 559.5,-415.04 553.5,-415.04 547.5,-409.04 547.5,-403.04 547.5,-403.04 547.5,-391.04 547.5,-391.04 547.5,-385.04 553.5,-379.04 559.5,-379.04 559.5,-379.04 641.5,-379.04 641.5,-379.04 647.5,-379.04 653.5,-385.04 653.5,-391.04 653.5,-391.04 653.5,-403.04 653.5,-403.04 653.5,-409.04 647.5,-415.04 641.5,-415.04"/>
<text text-anchor="middle" x="600.5" y="-393.94" font-family="sans" font-size="12.00" fill="#c4c7c7">Reflexive Relation</text>
</a>
</g>
</g>
<!-- Relation&#45;&gt;Reflexive Relation -->
<g id="edge10" class="edge">
<title>Relation&#45;&gt;Reflexive Relation</title>
<path fill="none" stroke="#ffffff" d="M197.1,-311.49C201.61,-315.34 206.64,-318.77 212,-321.04 271.41,-346.11 453.21,-288.87 502,-331.04 517.04,-344.03 496.38,-360.56 510,-375.04 519.76,-385.41 533.55,-391.23 547.39,-394.41"/>
<polygon fill="#ffffff" stroke="#ffffff" points="199.22,-308.67 189.58,-304.28 194.37,-313.72 199.22,-308.67"/>
</g>
<!-- Symmetric Closure -->
<g id="node11" class="node">
<title>Symmetric Closure</title>
<g id="a_node11"><a xlink:href="/Knowledge/symmetric_closure.html" xlink:title="Symmetric Closure" target="_parent">
<path fill="none" stroke="#b75867" d="M644,-267.04C644,-267.04 557,-267.04 557,-267.04 551,-267.04 545,-261.04 545,-255.04 545,-255.04 545,-243.04 545,-243.04 545,-237.04 551,-231.04 557,-231.04 557,-231.04 644,-231.04 644,-231.04 650,-231.04 656,-237.04 656,-243.04 656,-243.04 656,-255.04 656,-255.04 656,-261.04 650,-267.04 644,-267.04"/>
<text text-anchor="middle" x="600.5" y="-245.94" font-family="sans" font-size="12.00" fill="#c4c7c7">Symmetric Closure</text>
</a>
</g>
</g>
<!-- Relation&#45;&gt;Symmetric Closure -->
<g id="edge11" class="edge">
<title>Relation&#45;&gt;Symmetric Closure</title>
<path fill="none" stroke="#ffffff" d="M181.99,-257.97C187.25,-242.11 196.42,-223.6 212,-214.04 239.7,-197.02 444.85,-225.39 544.92,-240.5"/>
<polygon fill="#ffffff" stroke="#ffffff" points="178.54,-257.3 179.07,-267.88 185.25,-259.27 178.54,-257.3"/>
</g>
<!-- Symmetric Relation -->
<g id="node12" class="node">
<title>Symmetric Relation</title>
<g id="a_node12"><a xlink:href="/Knowledge/symmetric_relation.html" xlink:title="Symmetric Relation" target="_parent">
<path fill="none" stroke="#b75867" d="M646,-119.04C646,-119.04 555,-119.04 555,-119.04 549,-119.04 543,-113.04 543,-107.04 543,-107.04 543,-95.04 543,-95.04 543,-89.04 549,-83.04 555,-83.04 555,-83.04 646,-83.04 646,-83.04 652,-83.04 658,-89.04 658,-95.04 658,-95.04 658,-107.04 658,-107.04 658,-113.04 652,-119.04 646,-119.04"/>
<text text-anchor="middle" x="600.5" y="-97.94" font-family="sans" font-size="12.00" fill="#c4c7c7">Symmetric Relation</text>
</a>
</g>
</g>
<!-- Relation&#45;&gt;Symmetric Relation -->
<g id="edge13" class="edge">
<title>Relation&#45;&gt;Symmetric Relation</title>
<path fill="none" stroke="#ffffff" d="M176.2,-257.68C178.49,-230.53 186.36,-190.48 212,-168.04 310.35,-81.93 373.28,-141.79 502,-119.04 515.22,-116.7 529.44,-114.11 542.81,-111.65"/>
<polygon fill="#ffffff" stroke="#ffffff" points="172.71,-257.53 175.56,-267.73 179.69,-257.98 172.71,-257.53"/>
</g>
<!-- Reflexive Closure -->
<g id="node13" class="node">
<title>Reflexive Closure</title>
<g id="a_node13"><a xlink:href="/Knowledge/reflexive_closure.html" xlink:title="Reflexive Closure" target="_parent">
<path fill="none" stroke="#b75867" d="M639.5,-230.04C639.5,-230.04 561.5,-230.04 561.5,-230.04 555.5,-230.04 549.5,-224.04 549.5,-218.04 549.5,-218.04 549.5,-206.04 549.5,-206.04 549.5,-200.04 555.5,-194.04 561.5,-194.04 561.5,-194.04 639.5,-194.04 639.5,-194.04 645.5,-194.04 651.5,-200.04 651.5,-206.04 651.5,-206.04 651.5,-218.04 651.5,-218.04 651.5,-224.04 645.5,-230.04 639.5,-230.04"/>
<text text-anchor="middle" x="600.5" y="-208.94" font-family="sans" font-size="12.00" fill="#c4c7c7">Reflexive Closure</text>
</a>
</g>
</g>
<!-- Relation&#45;&gt;Reflexive Closure -->
<g id="edge14" class="edge">
<title>Relation&#45;&gt;Reflexive Closure</title>
<path fill="none" stroke="#ffffff" d="M181.34,-257.93C186.41,-241.19 195.63,-221.27 212,-211.04 239.88,-193.6 451.16,-203.38 549.47,-208.97"/>
<polygon fill="#ffffff" stroke="#ffffff" points="177.89,-257.26 178.68,-267.82 184.65,-259.07 177.89,-257.26"/>
</g>
<!-- Anti&#45;reflexive relation -->
<g id="node14" class="node">
<title>Anti&#45;reflexive relation</title>
<g id="a_node14"><a xlink:href="/Knowledge/anti-reflexive_relation.html" xlink:title="Anti&#45;reflexive relation" target="_parent">
<path fill="none" stroke="#b75867" d="M650.5,-82.04C650.5,-82.04 550.5,-82.04 550.5,-82.04 544.5,-82.04 538.5,-76.04 538.5,-70.04 538.5,-70.04 538.5,-58.04 538.5,-58.04 538.5,-52.04 544.5,-46.04 550.5,-46.04 550.5,-46.04 650.5,-46.04 650.5,-46.04 656.5,-46.04 662.5,-52.04 662.5,-58.04 662.5,-58.04 662.5,-70.04 662.5,-70.04 662.5,-76.04 656.5,-82.04 650.5,-82.04"/>
<text text-anchor="middle" x="600.5" y="-60.94" font-family="sans" font-size="12.00" fill="#c4c7c7">Anti&#45;reflexive relation</text>
</a>
</g>
</g>
<!-- Relation&#45;&gt;Anti&#45;reflexive relation -->
<g id="edge15" class="edge">
<title>Relation&#45;&gt;Anti&#45;reflexive relation</title>
<path fill="none" stroke="#ffffff" d="M178.01,-257.98C182.33,-216.33 192.64,-141.1 212,-123.04 300.56,-40.4 453.31,-44.15 538.17,-54.11"/>
<polygon fill="#ffffff" stroke="#ffffff" points="174.51,-257.74 177.01,-268.03 181.48,-258.42 174.51,-257.74"/>
</g>
<!-- Strongly Anti&#45;symmetric Relation -->
<g id="node15" class="node">
<title>Strongly Anti&#45;symmetric Relation</title>
<g id="a_node15"><a xlink:href="/Knowledge/strongly_anti-symmetric_relation.html" xlink:title="Strongly Anti&#45;symmetric Relation" target="_parent">
<path fill="none" stroke="#b75867" d="M679,-45.04C679,-45.04 522,-45.04 522,-45.04 516,-45.04 510,-39.04 510,-33.04 510,-33.04 510,-21.04 510,-21.04 510,-15.04 516,-9.04 522,-9.04 522,-9.04 679,-9.04 679,-9.04 685,-9.04 691,-15.04 691,-21.04 691,-21.04 691,-33.04 691,-33.04 691,-39.04 685,-45.04 679,-45.04"/>
<text text-anchor="middle" x="600.5" y="-23.94" font-family="sans" font-size="12.00" fill="#c4c7c7">Strongly Anti&#45;symmetric Relation</text>
</a>
</g>
</g>
<!-- Relation&#45;&gt;Strongly Anti&#45;symmetric Relation -->
<g id="edge16" class="edge">
<title>Relation&#45;&gt;Strongly Anti&#45;symmetric Relation</title>
<path fill="none" stroke="#ffffff" d="M176.23,-257.68C178.22,-204.6 185.53,-93.22 212,-67.04 291.59,11.67 430.22,5.33 518.3,-8.99"/>
<polygon fill="#ffffff" stroke="#ffffff" points="172.73,-257.66 175.89,-267.78 179.73,-257.9 172.73,-257.66"/>
</g>
<!-- Transitive Relation -->
<g id="node16" class="node">
<title>Transitive Relation</title>
<g id="a_node16"><a xlink:href="/Knowledge/transitive_relation.html" xlink:title="Transitive Relation" target="_parent">
<path fill="none" stroke="#b75867" d="M643.5,-489.04C643.5,-489.04 557.5,-489.04 557.5,-489.04 551.5,-489.04 545.5,-483.04 545.5,-477.04 545.5,-477.04 545.5,-465.04 545.5,-465.04 545.5,-459.04 551.5,-453.04 557.5,-453.04 557.5,-453.04 643.5,-453.04 643.5,-453.04 649.5,-453.04 655.5,-459.04 655.5,-465.04 655.5,-465.04 655.5,-477.04 655.5,-477.04 655.5,-483.04 649.5,-489.04 643.5,-489.04"/>
<text text-anchor="middle" x="600.5" y="-467.94" font-family="sans" font-size="12.00" fill="#c4c7c7">Transitive Relation</text>
</a>
</g>
</g>
<!-- Relation&#45;&gt;Transitive Relation -->
<g id="edge18" class="edge">
<title>Relation&#45;&gt;Transitive Relation</title>
<path fill="none" stroke="#ffffff" d="M193.4,-312.12C198.7,-317.97 204.98,-323.49 212,-327.04 233.51,-337.91 296.02,-334.61 320,-337.04 360.48,-341.13 473.56,-327.94 502,-357.04 516.35,-371.71 496.65,-433.45 510,-449.04 518.95,-459.49 531.99,-465.4 545.36,-468.64"/>
<polygon fill="#ffffff" stroke="#ffffff" points="195.86,-309.6 186.82,-304.09 190.45,-314.04 195.86,-309.6"/>
</g>
<!-- Relation of Equivalence -->
<g id="node17" class="node">
<title>Relation of Equivalence</title>
<g id="a_node17"><a xlink:href="/Knowledge/relation_of_equivalence.html" xlink:title="Relation of Equivalence" target="_parent">
<path fill="none" stroke="#b75867" d="M655.5,-193.04C655.5,-193.04 545.5,-193.04 545.5,-193.04 539.5,-193.04 533.5,-187.04 533.5,-181.04 533.5,-181.04 533.5,-169.04 533.5,-169.04 533.5,-163.04 539.5,-157.04 545.5,-157.04 545.5,-157.04 655.5,-157.04 655.5,-157.04 661.5,-157.04 667.5,-163.04 667.5,-169.04 667.5,-169.04 667.5,-181.04 667.5,-181.04 667.5,-187.04 661.5,-193.04 655.5,-193.04"/>
<text text-anchor="middle" x="600.5" y="-171.94" font-family="sans" font-size="12.00" fill="#c4c7c7">Relation of Equivalence</text>
</a>
</g>
</g>
<!-- Relation&#45;&gt;Relation of Equivalence -->
<g id="edge19" class="edge">
<title>Relation&#45;&gt;Relation of Equivalence</title>
<path fill="none" stroke="#ffffff" d="M180.04,-258.13C184.68,-239.28 193.9,-215.62 212,-203.04 238.5,-184.61 469.84,-188.79 502,-186.04 512.18,-185.16 522.95,-184.1 533.46,-182.97"/>
<polygon fill="#ffffff" stroke="#ffffff" points="176.6,-257.49 177.91,-268 183.44,-258.97 176.6,-257.49"/>
</g>
<!-- Partial order&#45;&gt;Anti&#45;symmetric Relation -->
<g id="edge21" class="edge">
<title>Partial order&#45;&gt;Anti&#45;symmetric Relation</title>
<path fill="none" stroke="#b75867" d="M226.24,-351.68C203.69,-349.5 174.44,-346.55 147.32,-343.73"/>
<polygon fill="#b75867" stroke="#b75867" points="147.36,-340.22 137.05,-342.66 146.64,-347.18 147.36,-340.22"/>
</g>
<!-- Partial order&#45;&gt;Relation -->
<g id="edge23" class="edge">
<title>Partial order&#45;&gt;Relation</title>
<path fill="none" stroke="#b75867" d="M226.34,-342.78C221.29,-340.27 216.36,-337.36 212,-334.04 204.44,-328.27 197.61,-320.58 191.94,-313.04"/>
<polygon fill="#b75867" stroke="#b75867" points="194.48,-310.56 185.87,-304.39 188.75,-314.59 194.48,-310.56"/>
</g>
<!-- Partial order&#45;&gt;Relations -->
<g id="edge26" class="edge">
<title>Partial order&#45;&gt;Relations</title>
<path fill="none" stroke="#ffffff" d="M315.15,-335.22C316.79,-334.49 318.41,-333.76 320,-333.04 341.24,-323.33 364.74,-311.58 382.93,-302.26"/>
<polygon fill="#ffffff" stroke="#ffffff" points="313.41,-332.16 305.64,-339.37 316.2,-338.58 313.41,-332.16"/>
</g>
<!-- Partial order&#45;&gt;Linear order -->
<g id="edge24" class="edge">
<title>Partial order&#45;&gt;Linear order</title>
<path fill="none" stroke="#ffffff" d="M315.63,-352.8C380.38,-350.32 488.36,-348.08 502,-360.04 519.58,-375.45 494.21,-394.79 510,-412.04 522.75,-425.96 542.76,-431.73 560.63,-433.89"/>
<polygon fill="#ffffff" stroke="#ffffff" points="315.49,-349.3 305.63,-353.2 315.77,-356.3 315.49,-349.3"/>
</g>
<!-- Partial order&#45;&gt;Reflexive Relation -->
<g id="edge22" class="edge">
<title>Partial order&#45;&gt;Reflexive Relation</title>
<path fill="none" stroke="#b75867" d="M305.72,-354.31C313.12,-354.19 320.8,-354.09 328,-354.04 405.33,-353.4 438.32,-310.15 502,-354.04 510.22,-359.7 502.52,-368.42 510,-375.04 517.81,-381.94 527.45,-386.76 537.47,-390.1"/>
<polygon fill="#b75867" stroke="#b75867" points="536.58,-393.48 547.15,-392.87 538.5,-386.76 536.58,-393.48"/>
</g>
<!-- Partial order&#45;&gt;Transitive Relation -->
<g id="edge20" class="edge">
<title>Partial order&#45;&gt;Transitive Relation</title>
<path fill="none" stroke="#b75867" d="M291.93,-373.18C302.65,-380.39 315.55,-388.31 328,-394.04 395.92,-425.28 479.33,-446.63 535.63,-458.79"/>
<polygon fill="#b75867" stroke="#b75867" points="534.96,-462.22 545.47,-460.88 536.42,-455.38 534.96,-462.22"/>
</g>
<!-- Linear extension -->
<g id="node18" class="node">
<title>Linear extension</title>
<g id="a_node18"><a xlink:href="/Knowledge/linear_extension.html" xlink:title="Linear extension" target="_parent">
<path fill="none" stroke="#b75867" d="M639,-526.04C639,-526.04 562,-526.04 562,-526.04 556,-526.04 550,-520.04 550,-514.04 550,-514.04 550,-502.04 550,-502.04 550,-496.04 556,-490.04 562,-490.04 562,-490.04 639,-490.04 639,-490.04 645,-490.04 651,-496.04 651,-502.04 651,-502.04 651,-514.04 651,-514.04 651,-520.04 645,-526.04 639,-526.04"/>
<text text-anchor="middle" x="600.5" y="-504.94" font-family="sans" font-size="12.00" fill="#c4c7c7">Linear extension</text>
</a>
</g>
</g>
<!-- Partial order&#45;&gt;Linear extension -->
<g id="edge25" class="edge">
<title>Partial order&#45;&gt;Linear extension</title>
<path fill="none" stroke="#ffffff" d="M285.59,-381.6C296.55,-395.58 311.48,-412.06 328,-423.04 397.11,-468.95 492.44,-491.21 549.81,-501.09"/>
<polygon fill="#ffffff" stroke="#ffffff" points="288.12,-379.15 279.3,-373.28 282.54,-383.37 288.12,-379.15"/>
</g>
<!-- Partial orders have no contours -->
<g id="node19" class="node">
<title>Partial orders have no contours</title>
<g id="a_node19"><a xlink:href="/Knowledge/partial_orders_have_no_contours.html" xlink:title="Partial orders have no contours" target="_parent">
<path fill="none" stroke="#b75867" d="M490,-393.04C490,-393.04 340,-393.04 340,-393.04 334,-393.04 328,-387.04 328,-381.04 328,-381.04 328,-369.04 328,-369.04 328,-363.04 334,-357.04 340,-357.04 340,-357.04 490,-357.04 490,-357.04 496,-357.04 502,-363.04 502,-369.04 502,-369.04 502,-381.04 502,-381.04 502,-387.04 496,-393.04 490,-393.04"/>
<text text-anchor="middle" x="415" y="-371.94" font-family="sans" font-size="12.00" fill="#c4c7c7">Partial orders have no contours</text>
</a>
</g>
</g>
<!-- Partial order&#45;&gt;Partial orders have no contours -->
<g id="edge27" class="edge">
<title>Partial order&#45;&gt;Partial orders have no contours</title>
<path fill="none" stroke="#ffffff" d="M315.75,-361.67C319.69,-362.2 323.73,-362.75 327.83,-363.31"/>
<polygon fill="#ffffff" stroke="#ffffff" points="316,-358.17 305.62,-360.29 315.06,-365.11 316,-358.17"/>
</g>
<!-- Relations&#45;&gt;Anti&#45;symmetric Relation -->
<g id="edge42" class="edge">
<title>Relations&#45;&gt;Anti&#45;symmetric Relation</title>
<path fill="none" stroke="#b75867" d="M382.72,-303.17C364.85,-311.73 341.74,-321.25 320,-326.04 263.03,-338.57 197.06,-340.72 147.12,-339.78"/>
<polygon fill="#b75867" stroke="#b75867" points="147.12,-336.28 137.04,-339.55 146.95,-343.28 147.12,-336.28"/>
</g>
<!-- Relations&#45;&gt;Relation -->
<g id="edge46" class="edge">
<title>Relations&#45;&gt;Relation</title>
<path fill="none" stroke="#b75867" d="M382.86,-286.56C339.62,-286.84 261.4,-286.86 214.37,-286.61"/>
<polygon fill="#b75867" stroke="#b75867" points="214.29,-283.11 204.27,-286.54 214.25,-290.11 214.29,-283.11"/>
</g>
<!-- Relations&#45;&gt;Partial order -->
<g id="edge31" class="edge">
<title>Relations&#45;&gt;Partial order</title>
<path fill="none" stroke="#b75867" d="M382.93,-303.13C364.74,-312.58 341.24,-324.33 320,-334.04 318.41,-334.76 316.79,-335.49 315.15,-336.22"/>
<polygon fill="#b75867" stroke="#b75867" points="313.41,-333.16 305.64,-340.36 316.2,-339.58 313.41,-333.16"/>
</g>
<!-- Relations&#45;&gt;Chain -->
<g id="edge28" class="edge">
<title>Relations&#45;&gt;Chain</title>
<path fill="none" stroke="#b75867" d="M435.74,-267.93C455.13,-249.15 484.29,-218.11 502,-186.04 507.84,-175.45 501.21,-168.34 510,-160.04 524.1,-146.72 544.91,-141.08 562.92,-138.84"/>
<polygon fill="#b75867" stroke="#b75867" points="563.5,-142.3 573.13,-137.87 562.84,-135.33 563.5,-142.3"/>
</g>
<!-- Relations&#45;&gt;Linear order -->
<g id="edge30" class="edge">
<title>Relations&#45;&gt;Linear order</title>
<path fill="none" stroke="#b75867" d="M447.34,-293.09C466.35,-299.08 489.32,-309.73 502,-328.04 512.68,-343.45 497.74,-397.84 510,-412.04 520.21,-423.86 535.65,-429.86 550.84,-432.77"/>
<polygon fill="#b75867" stroke="#b75867" points="550.32,-436.23 560.73,-434.26 551.36,-429.31 550.32,-436.23"/>
</g>
<!-- Relations&#45;&gt;Reflexive Relation -->
<g id="edge45" class="edge">
<title>Relations&#45;&gt;Reflexive Relation</title>
<path fill="none" stroke="#b75867" d="M447.32,-292.39C466.08,-297.85 488.77,-307.7 502,-325.04 515.65,-342.93 494.76,-358.48 510,-375.04 517.39,-383.06 527.18,-388.37 537.58,-391.84"/>
<polygon fill="#b75867" stroke="#b75867" points="536.67,-395.22 547.25,-394.54 538.56,-388.48 536.67,-395.22"/>
</g>
<!-- Relations&#45;&gt;Symmetric Closure -->
<g id="edge35" class="edge">
<title>Relations&#45;&gt;Symmetric Closure</title>
<path fill="none" stroke="#b75867" d="M447.13,-279.76C471.11,-274.92 505.08,-268.07 534.87,-262.07"/>
<polygon fill="#b75867" stroke="#b75867" points="535.68,-265.48 544.79,-260.07 534.29,-258.61 535.68,-265.48"/>
</g>
<!-- Relations&#45;&gt;Symmetric Closure -->
<g id="edge37" class="edge">
<title>Relations&#45;&gt;Symmetric Closure</title>
<path fill="none" stroke="#b75867" d="M447.13,-280.34C471.11,-275.67 505.08,-268.86 534.87,-262.79"/>
<polygon fill="#b75867" stroke="#b75867" points="535.69,-266.19 544.79,-260.76 534.29,-259.33 535.69,-266.19"/>
</g>
<!-- Relations&#45;&gt;Symmetric Relation -->
<g id="edge43" class="edge">
<title>Relations&#45;&gt;Symmetric Relation</title>
<path fill="none" stroke="#b75867" d="M432.36,-267.91C452,-245.12 484.49,-204.01 502,-163.04 509.12,-146.36 497.46,-136.13 510,-123.04 516.42,-116.33 524.53,-111.53 533.22,-108.13"/>
<polygon fill="#b75867" stroke="#b75867" points="534.45,-111.41 542.84,-104.95 532.25,-104.76 534.45,-111.41"/>
</g>
<!-- Relations&#45;&gt;Reflexive Closure -->
<g id="edge36" class="edge">
<title>Relations&#45;&gt;Reflexive Closure</title>
<path fill="none" stroke="#b75867" d="M444.25,-267.82C462.43,-256.76 486.9,-243.08 510,-234.04 519.27,-230.4 529.33,-227.24 539.24,-224.53"/>
<polygon fill="#b75867" stroke="#b75867" points="540.27,-227.87 549.07,-221.96 538.51,-221.1 540.27,-227.87"/>
</g>
<!-- Relations&#45;&gt;Reflexive Closure -->
<g id="edge39" class="edge">
<title>Relations&#45;&gt;Reflexive Closure</title>
<path fill="none" stroke="#b75867" d="M445.49,-267.94C463.54,-257.15 487.42,-243.87 510,-235.04 519.27,-231.4 529.33,-228.24 539.24,-225.51"/>
<polygon fill="#b75867" stroke="#b75867" points="540.28,-228.86 549.07,-222.93 538.51,-222.09 540.28,-228.86"/>
</g>
<!-- Relations&#45;&gt;Anti&#45;reflexive relation -->
<g id="edge44" class="edge">
<title>Relations&#45;&gt;Anti&#45;reflexive relation</title>
<path fill="none" stroke="#b75867" d="M427.31,-267.67C445.4,-237.61 480.93,-175.57 502,-119.04 507.27,-104.89 499.35,-96.72 510,-86.04 515.36,-80.66 521.8,-76.52 528.75,-73.35"/>
<polygon fill="#b75867" stroke="#b75867" points="530.41,-76.46 538.48,-69.59 527.89,-69.93 530.41,-76.46"/>
</g>
<!-- Relations&#45;&gt;Strongly Anti&#45;symmetric Relation -->
<g id="edge41" class="edge">
<title>Relations&#45;&gt;Strongly Anti&#45;symmetric Relation</title>
<path fill="none" stroke="#b75867" d="M417.64,-268.02C422.48,-225.2 440.6,-116.4 507.41,-52.03"/>
<polygon fill="#b75867" stroke="#b75867" points="509.89,-54.51 514.91,-45.18 505.16,-49.34 509.89,-54.51"/>
</g>
<!-- Relations&#45;&gt;Transitive Relation -->
<g id="edge40" class="edge">
<title>Relations&#45;&gt;Transitive Relation</title>
<path fill="none" stroke="#b75867" d="M447.19,-295.01C466.39,-302.26 489.63,-314.55 502,-334.04 515.73,-355.66 493.5,-429.44 510,-449.04 516.71,-457.01 525.81,-462.36 535.64,-465.89"/>
<polygon fill="#b75867" stroke="#b75867" points="534.65,-469.24 545.24,-468.74 536.65,-462.54 534.65,-469.24"/>
</g>
<!-- Relations&#45;&gt;Relation of Equivalence -->
<g id="edge33" class="edge">
<title>Relations&#45;&gt;Relation of Equivalence</title>
<path fill="none" stroke="#b75867" d="M430.24,-267.76C447.09,-247.41 477.06,-215.01 510,-197.04 514.45,-194.61 519.17,-192.44 524.03,-190.51"/>
<polygon fill="#b75867" stroke="#b75867" points="525.28,-193.78 533.49,-187.09 522.9,-187.2 525.28,-193.78"/>
</g>
<!-- Relations&#45;&gt;Linear extension -->
<g id="edge29" class="edge">
<title>Relations&#45;&gt;Linear extension</title>
<path fill="none" stroke="#b75867" d="M447.09,-302.75C466.52,-315 490.04,-333.57 502,-357.04 515.04,-382.63 491.59,-463.99 510,-486.04 517.69,-495.25 528.56,-500.95 540.08,-504.41"/>
<polygon fill="#b75867" stroke="#b75867" points="539.31,-507.82 549.86,-506.81 540.98,-501.02 539.31,-507.82"/>
</g>
<!-- Class of equivalence -->
<g id="node20" class="node">
<title>Class of equivalence</title>
<g id="a_node20"><a xlink:href="/Knowledge/class_of_equivalence.html" xlink:title="Class of equivalence" target="_parent">
<path fill="#273434" stroke="#b75867" d="M648,-341.04C648,-341.04 553,-341.04 553,-341.04 547,-341.04 541,-335.04 541,-329.04 541,-329.04 541,-317.04 541,-317.04 541,-311.04 547,-305.04 553,-305.04 553,-305.04 648,-305.04 648,-305.04 654,-305.04 660,-311.04 660,-317.04 660,-317.04 660,-329.04 660,-329.04 660,-335.04 654,-341.04 648,-341.04"/>
<text text-anchor="middle" x="600.5" y="-319.94" font-family="sans" font-size="12.00" fill="#c4c7c7">Class of equivalence</text>
</a>
</g>
</g>
<!-- Relations&#45;&gt;Class of equivalence -->
<g id="edge32" class="edge">
<title>Relations&#45;&gt;Class of equivalence</title>
<path fill="none" stroke="#b75867" d="M447.13,-292.31C470,-296.92 501.96,-303.37 530.7,-309.16"/>
<polygon fill="#b75867" stroke="#b75867" points="530.22,-312.64 540.72,-311.18 531.61,-305.78 530.22,-312.64"/>
</g>
<!-- Transitive Closure -->
<g id="node21" class="node">
<title>Transitive Closure</title>
<g id="a_node21"><a xlink:href="/Knowledge/transitive_closure.html" xlink:title="Transitive Closure" target="_parent">
<path fill="#273434" stroke="#b75867" d="M641.5,-304.04C641.5,-304.04 559.5,-304.04 559.5,-304.04 553.5,-304.04 547.5,-298.04 547.5,-292.04 547.5,-292.04 547.5,-280.04 547.5,-280.04 547.5,-274.04 553.5,-268.04 559.5,-268.04 559.5,-268.04 641.5,-268.04 641.5,-268.04 647.5,-268.04 653.5,-274.04 653.5,-280.04 653.5,-280.04 653.5,-292.04 653.5,-292.04 653.5,-298.04 647.5,-304.04 641.5,-304.04"/>
<text text-anchor="middle" x="600.5" y="-282.94" font-family="sans" font-size="12.00" fill="#c4c7c7">Transitive Closure</text>
</a>
</g>
</g>
<!-- Relations&#45;&gt;Transitive Closure -->
<g id="edge34" class="edge">
<title>Relations&#45;&gt;Transitive Closure</title>
<path fill="none" stroke="#b75867" d="M447.13,-286.04C471.75,-286.04 506.91,-286.04 537.25,-286.04"/>
<polygon fill="#b75867" stroke="#b75867" points="537.34,-289.54 547.34,-286.04 537.34,-282.54 537.34,-289.54"/>
</g>
<!-- Relations&#45;&gt;Transitive Closure -->
<g id="edge38" class="edge">
<title>Relations&#45;&gt;Transitive Closure</title>
<path fill="none" stroke="#b75867" d="M447.13,-286.62C471.75,-286.78 506.91,-286.83 537.25,-286.75"/>
<polygon fill="#b75867" stroke="#b75867" points="537.35,-290.25 547.34,-286.72 537.33,-283.25 537.35,-290.25"/>
</g>
<!-- Discrete Structures -->
<g id="node22" class="node">
<title>Discrete Structures</title>
<g id="a_node22"><a xlink:href="/Knowledge/discrete_structures.html" xlink:title="Discrete Structures" target="_parent">
<path fill="none" stroke="#b75867" d="M644,-378.04C644,-378.04 557,-378.04 557,-378.04 551,-378.04 545,-372.04 545,-366.04 545,-366.04 545,-354.04 545,-354.04 545,-348.04 551,-342.04 557,-342.04 557,-342.04 644,-342.04 644,-342.04 650,-342.04 656,-348.04 656,-354.04 656,-354.04 656,-366.04 656,-366.04 656,-372.04 650,-378.04 644,-378.04"/>
<text text-anchor="middle" x="600.5" y="-356.94" font-family="sans" font-size="12.00" fill="#c4c7c7">Discrete Structures</text>
</a>
</g>
</g>
<!-- Relations&#45;&gt;Discrete Structures -->
<g id="edge47" class="edge">
<title>Relations&#45;&gt;Discrete Structures</title>
<path fill="none" stroke="#ffffff" d="M456.55,-298.68C471.98,-304.88 488.96,-313.54 502,-325.04 507.09,-329.52 504.52,-334.04 510,-338.04 520.21,-345.48 532.65,-350.43 544.96,-353.71"/>
<polygon fill="#ffffff" stroke="#ffffff" points="457.78,-295.4 447.19,-295.13 455.3,-301.95 457.78,-295.4"/>
</g>
</g>
</svg>
