<?xml version="1.0" encoding="UTF-8" standalone="no"?>
<!DOCTYPE svg PUBLIC "-//W3C//DTD SVG 1.1//EN"
 "http://www.w3.org/Graphics/SVG/1.1/DTD/svg11.dtd">
<!-- Generated by graphviz version 2.46.1 (0)
 -->
<!-- Title: Bad Habit Pages: 1 -->
<svg width="253pt" height="192pt"
 viewBox="0.00 0.00 253.00 192.00" xmlns="http://www.w3.org/2000/svg" xmlns:xlink="http://www.w3.org/1999/xlink">
<g id="graph0" class="graph" transform="scale(1 1) rotate(0) translate(4 188)">
<title>Bad Habit</title>
<polygon fill="#132020" stroke="transparent" points="-4,4 -4,-188 249,-188 249,4 -4,4"/>
<!-- Bad Habit -->
<g id="node1" class="node">
<title>Bad Habit</title>
<g id="a_node1"><a xlink:href="/Knowledge/bad_habit.html" xlink:title="Bad Habit" target="_parent">
<path fill="#273434" stroke="#b75867" d="M53,-91C53,-91 12,-91 12,-91 6,-91 0,-85 0,-79 0,-79 0,-67 0,-67 0,-61 6,-55 12,-55 12,-55 53,-55 53,-55 59,-55 65,-61 65,-67 65,-67 65,-79 65,-79 65,-85 59,-91 53,-91"/>
<text text-anchor="middle" x="32.5" y="-69.9" font-family="sans" font-size="12.00" fill="#c4c7c7">Bad Habit</text>
</a>
</g>
</g>
<!-- Projects -->
<g id="node2" class="node">
<title>Projects</title>
<g id="a_node2"><a xlink:href="/Knowledge/projects.html" xlink:title="Projects" target="_parent">
<path fill="#273434" stroke="#b75867" d="M122,-110C122,-110 89,-110 89,-110 83,-110 77,-104 77,-98 77,-98 77,-86 77,-86 77,-80 83,-74 89,-74 89,-74 122,-74 122,-74 128,-74 134,-80 134,-86 134,-86 134,-98 134,-98 134,-104 128,-110 122,-110"/>
<text text-anchor="middle" x="105.5" y="-88.9" font-family="sans" font-size="12.00" fill="#c4c7c7">Projects</text>
</a>
</g>
</g>
<!-- Bad Habit&#45;&gt;Projects -->
<g id="edge1" class="edge">
<title>Bad Habit&#45;&gt;Projects</title>
<path fill="none" stroke="#b75867" d="M65.26,-81.5C65.86,-81.66 66.46,-81.82 67.07,-81.98"/>
<polygon fill="#b75867" stroke="#b75867" points="66.21,-85.38 76.78,-84.58 68.02,-78.61 66.21,-85.38"/>
</g>
<!-- Org Roam -->
<g id="node3" class="node">
<title>Org Roam</title>
<g id="a_node3"><a xlink:href="/Knowledge/org_roam.html" xlink:title="Org Roam" target="_parent">
<path fill="#273434" stroke="#b75867" d="M126,-73C126,-73 85,-73 85,-73 79,-73 73,-67 73,-61 73,-61 73,-49 73,-49 73,-43 79,-37 85,-37 85,-37 126,-37 126,-37 132,-37 138,-43 138,-49 138,-49 138,-61 138,-61 138,-67 132,-73 126,-73"/>
<text text-anchor="middle" x="105.5" y="-51.9" font-family="sans" font-size="12.00" fill="#c4c7c7">Org Roam</text>
</a>
</g>
</g>
<!-- Bad Habit&#45;&gt;Org Roam -->
<g id="edge2" class="edge">
<title>Bad Habit&#45;&gt;Org Roam</title>
<path fill="none" stroke="#b75867" d="M65.26,-64.95C65.42,-64.91 65.58,-64.87 65.73,-64.83"/>
<polygon fill="#b75867" stroke="#b75867" points="63.99,-68.88 72.82,-63.03 62.27,-62.1 63.99,-68.88"/>
</g>
<!-- Projects&#45;&gt;Bad Habit -->
<g id="edge7" class="edge">
<title>Projects&#45;&gt;Bad Habit</title>
<path fill="none" stroke="#ffffff" d="M67.07,-82.73C66.46,-82.57 65.86,-82.41 65.26,-82.25"/>
<polygon fill="#ffffff" stroke="#ffffff" points="66.21,-86.13 76.78,-85.31 68.01,-79.36 66.21,-86.13"/>
</g>
<!-- pulsebinder -->
<g id="node4" class="node">
<title>pulsebinder</title>
<g id="a_node4"><a xlink:href="/Knowledge/pulsebinder.html" xlink:title="pulsebinder" target="_parent">
<path fill="#273434" stroke="#b75867" d="M222.5,-184C222.5,-184 168.5,-184 168.5,-184 162.5,-184 156.5,-178 156.5,-172 156.5,-172 156.5,-160 156.5,-160 156.5,-154 162.5,-148 168.5,-148 168.5,-148 222.5,-148 222.5,-148 228.5,-148 234.5,-154 234.5,-160 234.5,-160 234.5,-172 234.5,-172 234.5,-178 228.5,-184 222.5,-184"/>
<text text-anchor="middle" x="195.5" y="-162.9" font-family="sans" font-size="12.00" fill="#c4c7c7">pulsebinder</text>
</a>
</g>
</g>
<!-- Projects&#45;&gt;pulsebinder -->
<g id="edge3" class="edge">
<title>Projects&#45;&gt;pulsebinder</title>
<path fill="none" stroke="#b75867" d="M117.09,-110.21C124.17,-121.13 134.3,-134.67 146,-144 146.6,-144.48 147.2,-144.94 147.82,-145.4"/>
<polygon fill="#b75867" stroke="#b75867" points="146.06,-148.43 156.35,-150.95 149.87,-142.56 146.06,-148.43"/>
</g>
<!-- kaltemplate -->
<g id="node5" class="node">
<title>kaltemplate</title>
<g id="a_node5"><a xlink:href="/Knowledge/kaltemplate.html" xlink:title="kaltemplate" target="_parent">
<path fill="#273434" stroke="#b75867" d="M222,-147C222,-147 169,-147 169,-147 163,-147 157,-141 157,-135 157,-135 157,-123 157,-123 157,-117 163,-111 169,-111 169,-111 222,-111 222,-111 228,-111 234,-117 234,-123 234,-123 234,-135 234,-135 234,-141 228,-147 222,-147"/>
<text text-anchor="middle" x="195.5" y="-125.9" font-family="sans" font-size="12.00" fill="#c4c7c7">kaltemplate</text>
</a>
</g>
</g>
<!-- Projects&#45;&gt;kaltemplate -->
<g id="edge4" class="edge">
<title>Projects&#45;&gt;kaltemplate</title>
<path fill="none" stroke="#b75867" d="M134.34,-103.71C138.59,-105.49 143.07,-107.38 147.59,-109.28"/>
<polygon fill="#b75867" stroke="#b75867" points="146.29,-112.52 156.86,-113.17 149,-106.07 146.29,-112.52"/>
</g>
<!-- kaltask -->
<g id="node6" class="node">
<title>kaltask</title>
<g id="a_node6"><a xlink:href="/Knowledge/kaltask.html" xlink:title="kaltask" target="_parent">
<path fill="#273434" stroke="#b75867" d="M210.5,-110C210.5,-110 180.5,-110 180.5,-110 174.5,-110 168.5,-104 168.5,-98 168.5,-98 168.5,-86 168.5,-86 168.5,-80 174.5,-74 180.5,-74 180.5,-74 210.5,-74 210.5,-74 216.5,-74 222.5,-80 222.5,-86 222.5,-86 222.5,-98 222.5,-98 222.5,-104 216.5,-110 210.5,-110"/>
<text text-anchor="middle" x="195.5" y="-88.9" font-family="sans" font-size="12.00" fill="#c4c7c7">kaltask</text>
</a>
</g>
</g>
<!-- Projects&#45;&gt;kaltask -->
<g id="edge5" class="edge">
<title>Projects&#45;&gt;kaltask</title>
<path fill="none" stroke="#b75867" d="M134.34,-92C141.91,-92 150.21,-92 158.17,-92"/>
<polygon fill="#b75867" stroke="#b75867" points="158.34,-95.5 168.34,-92 158.34,-88.5 158.34,-95.5"/>
</g>
<!-- Knowledge Base -->
<g id="node7" class="node">
<title>Knowledge Base</title>
<g id="a_node7"><a xlink:href="/Knowledge/knowledge_base.html" xlink:title="Knowledge Base" target="_parent">
<path fill="#273434" stroke="#b75867" d="M233,-73C233,-73 158,-73 158,-73 152,-73 146,-67 146,-61 146,-61 146,-49 146,-49 146,-43 152,-37 158,-37 158,-37 233,-37 233,-37 239,-37 245,-43 245,-49 245,-49 245,-61 245,-61 245,-67 239,-73 233,-73"/>
<text text-anchor="middle" x="195.5" y="-51.9" font-family="sans" font-size="12.00" fill="#c4c7c7">Knowledge Base</text>
</a>
</g>
</g>
<!-- Projects&#45;&gt;Knowledge Base -->
<g id="edge6" class="edge">
<title>Projects&#45;&gt;Knowledge Base</title>
<path fill="none" stroke="#b75867" d="M134.34,-80.29C136.81,-79.26 139.35,-78.19 141.93,-77.1"/>
<polygon fill="#b75867" stroke="#b75867" points="143.54,-80.22 151.4,-73.12 140.83,-73.77 143.54,-80.22"/>
</g>
<!-- Org Roam&#45;&gt;Bad Habit -->
<g id="edge8" class="edge">
<title>Org Roam&#45;&gt;Bad Habit</title>
<path fill="none" stroke="#ffffff" d="M65.73,-65.58C65.58,-65.61 65.42,-65.65 65.26,-65.69"/>
<polygon fill="#ffffff" stroke="#ffffff" points="63.99,-69.63 72.82,-63.78 62.27,-62.84 63.99,-69.63"/>
</g>
<!-- index -->
<g id="node8" class="node">
<title>index</title>
<g id="a_node8"><a xlink:href="/Knowledge/index.html" xlink:title="index" target="_parent">
<path fill="none" stroke="#b75867" d="M210.5,-36C210.5,-36 180.5,-36 180.5,-36 174.5,-36 168.5,-30 168.5,-24 168.5,-24 168.5,-12 168.5,-12 168.5,-6 174.5,0 180.5,0 180.5,0 210.5,0 210.5,0 216.5,0 222.5,-6 222.5,-12 222.5,-12 222.5,-24 222.5,-24 222.5,-30 216.5,-36 210.5,-36"/>
<text text-anchor="middle" x="195.5" y="-14.9" font-family="sans" font-size="12.00" fill="#c4c7c7">index</text>
</a>
</g>
</g>
<!-- Org Roam&#45;&gt;index -->
<g id="edge9" class="edge">
<title>Org Roam&#45;&gt;index</title>
<path fill="none" stroke="#ffffff" d="M147.69,-37.68C154.7,-34.74 161.8,-31.75 168.28,-29.03"/>
<polygon fill="#ffffff" stroke="#ffffff" points="146.13,-34.54 138.27,-41.64 148.84,-40.99 146.13,-34.54"/>
</g>
</g>
</svg>
