<?xml version="1.0" encoding="UTF-8" standalone="no"?>
<!DOCTYPE svg PUBLIC "-//W3C//DTD SVG 1.1//EN"
 "http://www.w3.org/Graphics/SVG/1.1/DTD/svg11.dtd">
<!-- Generated by graphviz version 2.46.1 (0)
 -->
<!-- Title: Bijective function Pages: 1 -->
<svg width="714pt" height="242pt"
 viewBox="0.00 0.00 714.00 242.00" xmlns="http://www.w3.org/2000/svg" xmlns:xlink="http://www.w3.org/1999/xlink">
<g id="graph0" class="graph" transform="scale(1 1) rotate(0) translate(4 238)">
<title>Bijective function</title>
<polygon fill="#132020" stroke="transparent" points="-4,4 -4,-238 710,-238 710,4 -4,4"/>
<!-- Bijective function -->
<g id="node1" class="node">
<title>Bijective function</title>
<g id="a_node1"><a xlink:href="/Knowledge/bijective_function.html" xlink:title="Bijective function" target="_parent">
<path fill="#273434" stroke="#b75867" d="M92,-94C92,-94 12,-94 12,-94 6,-94 0,-88 0,-82 0,-82 0,-70 0,-70 0,-64 6,-58 12,-58 12,-58 92,-58 92,-58 98,-58 104,-64 104,-70 104,-70 104,-82 104,-82 104,-88 98,-94 92,-94"/>
<text text-anchor="middle" x="52" y="-72.9" font-family="sans" font-size="12.00" fill="#c4c7c7">Bijective function</text>
</a>
</g>
</g>
<!-- Surjective function -->
<g id="node2" class="node">
<title>Surjective function</title>
<g id="a_node2"><a xlink:href="/Knowledge/surjective_function.html" xlink:title="Surjective function" target="_parent">
<path fill="#273434" stroke="#b75867" d="M226,-116C226,-116 138,-116 138,-116 132,-116 126,-110 126,-104 126,-104 126,-92 126,-92 126,-86 132,-80 138,-80 138,-80 226,-80 226,-80 232,-80 238,-86 238,-92 238,-92 238,-104 238,-104 238,-110 232,-116 226,-116"/>
<text text-anchor="middle" x="182" y="-94.9" font-family="sans" font-size="12.00" fill="#c4c7c7">Surjective function</text>
</a>
</g>
</g>
<!-- Bijective function&#45;&gt;Surjective function -->
<g id="edge1" class="edge">
<title>Bijective function&#45;&gt;Surjective function</title>
<path fill="none" stroke="#b75867" d="M104.32,-84.82C108.09,-85.47 111.92,-86.13 115.76,-86.79"/>
<polygon fill="#b75867" stroke="#b75867" points="115.44,-90.28 125.89,-88.53 116.63,-83.38 115.44,-90.28"/>
</g>
<!-- Injective function -->
<g id="node3" class="node">
<title>Injective function</title>
<g id="a_node3"><a xlink:href="/Knowledge/injective_function.html" xlink:title="Injective function" target="_parent">
<path fill="#273434" stroke="#b75867" d="M538.5,-86C538.5,-86 458.5,-86 458.5,-86 452.5,-86 446.5,-80 446.5,-74 446.5,-74 446.5,-62 446.5,-62 446.5,-56 452.5,-50 458.5,-50 458.5,-50 538.5,-50 538.5,-50 544.5,-50 550.5,-56 550.5,-62 550.5,-62 550.5,-74 550.5,-74 550.5,-80 544.5,-86 538.5,-86"/>
<text text-anchor="middle" x="498.5" y="-64.9" font-family="sans" font-size="12.00" fill="#c4c7c7">Injective function</text>
</a>
</g>
</g>
<!-- Bijective function&#45;&gt;Injective function -->
<g id="edge2" class="edge">
<title>Bijective function&#45;&gt;Injective function</title>
<path fill="none" stroke="#b75867" d="M104.15,-75.15C171.5,-74.03 293.63,-71.96 398,-70 410.4,-69.77 423.68,-69.51 436.36,-69.26"/>
<polygon fill="#b75867" stroke="#b75867" points="436.44,-72.75 446.37,-69.05 436.3,-65.76 436.44,-72.75"/>
</g>
<!-- Principle of the bijection -->
<g id="node4" class="node">
<title>Principle of the bijection</title>
<g id="a_node4"><a xlink:href="/Knowledge/principle_of_the_bijection.html" xlink:title="Principle of the bijection" target="_parent">
<path fill="none" stroke="#b75867" d="M240,-73C240,-73 124,-73 124,-73 118,-73 112,-67 112,-61 112,-61 112,-49 112,-49 112,-43 118,-37 124,-37 124,-37 240,-37 240,-37 246,-37 252,-43 252,-49 252,-49 252,-61 252,-61 252,-67 246,-73 240,-73"/>
<text text-anchor="middle" x="182" y="-51.9" font-family="sans" font-size="12.00" fill="#c4c7c7">Principle of the bijection</text>
</a>
</g>
</g>
<!-- Bijective function&#45;&gt;Principle of the bijection -->
<g id="edge3" class="edge">
<title>Bijective function&#45;&gt;Principle of the bijection</title>
<path fill="none" stroke="#ffffff" d="M111.42,-66.41C111.58,-66.39 111.74,-66.36 111.9,-66.34"/>
<polygon fill="#ffffff" stroke="#ffffff" points="113.63,-62.51 104.32,-67.58 114.76,-69.41 113.63,-62.51"/>
</g>
<!-- Linear Algebra -->
<g id="node5" class="node">
<title>Linear Algebra</title>
<g id="a_node5"><a xlink:href="/Knowledge/linear_algebra.html" xlink:title="Linear Algebra" target="_parent">
<path fill="none" stroke="#b75867" d="M361.5,-116C361.5,-116 296.5,-116 296.5,-116 290.5,-116 284.5,-110 284.5,-104 284.5,-104 284.5,-92 284.5,-92 284.5,-86 290.5,-80 296.5,-80 296.5,-80 361.5,-80 361.5,-80 367.5,-80 373.5,-86 373.5,-92 373.5,-92 373.5,-104 373.5,-104 373.5,-110 367.5,-116 361.5,-116"/>
<text text-anchor="middle" x="329" y="-94.9" font-family="sans" font-size="12.00" fill="#c4c7c7">Linear Algebra</text>
</a>
</g>
</g>
<!-- Bijective function&#45;&gt;Linear Algebra -->
<g id="edge4" class="edge">
<title>Bijective function&#45;&gt;Linear Algebra</title>
<path fill="none" stroke="#ffffff" d="M114.54,-75.64C153.96,-76.03 206.13,-77.7 252,-83 262.55,-84.22 273.83,-86.11 284.38,-88.15"/>
<polygon fill="#ffffff" stroke="#ffffff" points="114.32,-72.13 104.29,-75.56 114.27,-79.13 114.32,-72.13"/>
</g>
<!-- Surjective function&#45;&gt;Bijective function -->
<g id="edge5" class="edge">
<title>Surjective function&#45;&gt;Bijective function</title>
<path fill="none" stroke="#ffffff" d="M115.76,-87.54C111.92,-86.88 108.09,-86.21 104.32,-85.56"/>
<polygon fill="#ffffff" stroke="#ffffff" points="115.44,-91.03 125.89,-89.27 116.62,-84.13 115.44,-91.03"/>
</g>
<!-- Surjective function&#45;&gt;Linear Algebra -->
<g id="edge6" class="edge">
<title>Surjective function&#45;&gt;Linear Algebra</title>
<path fill="none" stroke="#ffffff" d="M248.34,-98C260.47,-98 272.88,-98 284.19,-98"/>
<polygon fill="#ffffff" stroke="#ffffff" points="248.23,-94.5 238.23,-98 248.23,-101.5 248.23,-94.5"/>
</g>
<!-- Injective function&#45;&gt;Bijective function -->
<g id="edge7" class="edge">
<title>Injective function&#45;&gt;Bijective function</title>
<path fill="none" stroke="#ffffff" d="M436.36,-70.23C423.68,-70.51 410.4,-70.77 398,-71 293.63,-72.96 171.5,-75.03 104.15,-75.84"/>
<polygon fill="#ffffff" stroke="#ffffff" points="436.45,-73.73 446.37,-70.01 436.3,-66.73 436.45,-73.73"/>
</g>
<!-- Injective function&#45;&gt;Linear Algebra -->
<g id="edge9" class="edge">
<title>Injective function&#45;&gt;Linear Algebra</title>
<path fill="none" stroke="#ffffff" d="M436.39,-79.67C415.57,-83.45 392.73,-87.52 373.57,-90.86"/>
<polygon fill="#ffffff" stroke="#ffffff" points="437.21,-83.08 446.42,-77.85 435.95,-76.19 437.21,-83.08"/>
</g>
<!-- Dirichlet principle -->
<g id="node6" class="node">
<title>Dirichlet principle</title>
<g id="a_node6"><a xlink:href="/Knowledge/dirichlet_principle.html" xlink:title="Dirichlet principle" target="_parent">
<path fill="none" stroke="#b75867" d="M694,-86C694,-86 611,-86 611,-86 605,-86 599,-80 599,-74 599,-74 599,-62 599,-62 599,-56 605,-50 611,-50 611,-50 694,-50 694,-50 700,-50 706,-56 706,-62 706,-62 706,-74 706,-74 706,-80 700,-86 694,-86"/>
<text text-anchor="middle" x="652.5" y="-64.9" font-family="sans" font-size="12.00" fill="#c4c7c7">Dirichlet principle</text>
</a>
</g>
</g>
<!-- Injective function&#45;&gt;Dirichlet principle -->
<g id="edge8" class="edge">
<title>Injective function&#45;&gt;Dirichlet principle</title>
<path fill="none" stroke="#ffffff" d="M560.54,-68C573.2,-68 586.45,-68 598.78,-68"/>
<polygon fill="#ffffff" stroke="#ffffff" points="560.54,-64.5 550.54,-68 560.54,-71.5 560.54,-64.5"/>
</g>
<!-- Principle of the bijection&#45;&gt;Bijective function -->
<g id="edge10" class="edge">
<title>Principle of the bijection&#45;&gt;Bijective function</title>
<path fill="none" stroke="#b75867" d="M111.9,-67.08C111.74,-67.11 111.58,-67.14 111.42,-67.16"/>
<polygon fill="#b75867" stroke="#b75867" points="113.63,-63.26 104.32,-68.32 114.76,-70.17 113.63,-63.26"/>
</g>
<!-- Set -->
<g id="node7" class="node">
<title>Set</title>
<g id="a_node7"><a xlink:href="/Knowledge/set.html" xlink:title="Set" target="_parent">
<path fill="#273434" stroke="#b75867" d="M344,-73C344,-73 314,-73 314,-73 308,-73 302,-67 302,-61 302,-61 302,-49 302,-49 302,-43 308,-37 314,-37 314,-37 344,-37 344,-37 350,-37 356,-43 356,-49 356,-49 356,-61 356,-61 356,-67 350,-73 344,-73"/>
<text text-anchor="middle" x="329" y="-51.9" font-family="sans" font-size="12.00" fill="#c4c7c7">Set</text>
</a>
</g>
</g>
<!-- Principle of the bijection&#45;&gt;Set -->
<g id="edge11" class="edge">
<title>Principle of the bijection&#45;&gt;Set</title>
<path fill="none" stroke="#b75867" d="M252.1,-55C265.76,-55 279.57,-55 291.6,-55"/>
<polygon fill="#b75867" stroke="#b75867" points="291.67,-58.5 301.67,-55 291.67,-51.5 291.67,-58.5"/>
</g>
<!-- Combinatoric principles -->
<g id="node8" class="node">
<title>Combinatoric principles</title>
<g id="a_node8"><a xlink:href="/Knowledge/combinatoric_principles.html" xlink:title="Combinatoric principles" target="_parent">
<path fill="none" stroke="#b75867" d="M386,-36C386,-36 272,-36 272,-36 266,-36 260,-30 260,-24 260,-24 260,-12 260,-12 260,-6 266,0 272,0 272,0 386,0 386,0 392,0 398,-6 398,-12 398,-12 398,-24 398,-24 398,-30 392,-36 386,-36"/>
<text text-anchor="middle" x="329" y="-14.9" font-family="sans" font-size="12.00" fill="#c4c7c7">Combinatoric principles</text>
</a>
</g>
</g>
<!-- Principle of the bijection&#45;&gt;Combinatoric principles -->
<g id="edge12" class="edge">
<title>Principle of the bijection&#45;&gt;Combinatoric principles</title>
<path fill="none" stroke="#ffffff" d="M259.49,-35.48C259.66,-35.44 259.82,-35.4 259.98,-35.36"/>
<polygon fill="#ffffff" stroke="#ffffff" points="260.93,-31.5 252.1,-37.37 262.66,-38.29 260.93,-31.5"/>
</g>
<!-- Linear Algebra&#45;&gt;Bijective function -->
<g id="edge14" class="edge">
<title>Linear Algebra&#45;&gt;Bijective function</title>
<path fill="none" stroke="#b75867" d="M284.38,-89.12C273.83,-87.11 262.55,-85.22 252,-84 206.13,-78.7 153.96,-77.03 114.54,-76.49"/>
<polygon fill="#b75867" stroke="#b75867" points="114.33,-72.99 104.29,-76.38 114.25,-79.99 114.33,-72.99"/>
</g>
<!-- Linear Algebra&#45;&gt;Surjective function -->
<g id="edge16" class="edge">
<title>Linear Algebra&#45;&gt;Surjective function</title>
<path fill="none" stroke="#b75867" d="M284.19,-98.7C272.88,-98.74 260.47,-98.76 248.34,-98.75"/>
<polygon fill="#b75867" stroke="#b75867" points="248.24,-95.25 238.23,-98.73 248.23,-102.25 248.24,-95.25"/>
</g>
<!-- Linear Algebra&#45;&gt;Injective function -->
<g id="edge15" class="edge">
<title>Linear Algebra&#45;&gt;Injective function</title>
<path fill="none" stroke="#b75867" d="M373.57,-90.2C392.73,-86.76 415.57,-82.67 436.39,-78.95"/>
<polygon fill="#b75867" stroke="#b75867" points="437.19,-82.36 446.42,-77.15 435.96,-75.47 437.19,-82.36"/>
</g>
<!-- Matrix -->
<g id="node9" class="node">
<title>Matrix</title>
<g id="a_node9"><a xlink:href="/Knowledge/matrix.html" xlink:title="Matrix" target="_parent">
<path fill="#273434" stroke="#b75867" d="M513.5,-234C513.5,-234 483.5,-234 483.5,-234 477.5,-234 471.5,-228 471.5,-222 471.5,-222 471.5,-210 471.5,-210 471.5,-204 477.5,-198 483.5,-198 483.5,-198 513.5,-198 513.5,-198 519.5,-198 525.5,-204 525.5,-210 525.5,-210 525.5,-222 525.5,-222 525.5,-228 519.5,-234 513.5,-234"/>
<text text-anchor="middle" x="498.5" y="-212.9" font-family="sans" font-size="12.00" fill="#c4c7c7">Matrix</text>
</a>
</g>
</g>
<!-- Linear Algebra&#45;&gt;Matrix -->
<g id="edge13" class="edge">
<title>Linear Algebra&#45;&gt;Matrix</title>
<path fill="none" stroke="#b75867" d="M339.44,-116.25C351.75,-138.17 375.37,-174.43 406,-194 422.46,-204.52 443.5,-210.01 461.25,-212.87"/>
<polygon fill="#b75867" stroke="#b75867" points="460.87,-216.36 471.26,-214.28 461.85,-209.42 460.87,-216.36"/>
</g>
<!-- Kronecker Delta -->
<g id="node10" class="node">
<title>Kronecker Delta</title>
<g id="a_node10"><a xlink:href="/Knowledge/kronecker_delta.html" xlink:title="Kronecker Delta" target="_parent">
<path fill="#273434" stroke="#b75867" d="M535,-197C535,-197 462,-197 462,-197 456,-197 450,-191 450,-185 450,-185 450,-173 450,-173 450,-167 456,-161 462,-161 462,-161 535,-161 535,-161 541,-161 547,-167 547,-173 547,-173 547,-185 547,-185 547,-191 541,-197 535,-197"/>
<text text-anchor="middle" x="498.5" y="-175.9" font-family="sans" font-size="12.00" fill="#c4c7c7">Kronecker Delta</text>
</a>
</g>
</g>
<!-- Linear Algebra&#45;&gt;Kronecker Delta -->
<g id="edge17" class="edge">
<title>Linear Algebra&#45;&gt;Kronecker Delta</title>
<path fill="none" stroke="#b75867" d="M348.46,-116.01C362.98,-129.21 384.32,-146.58 406,-157 416.48,-162.04 428.2,-165.97 439.67,-169.03"/>
<polygon fill="#b75867" stroke="#b75867" points="439.09,-172.49 449.64,-171.5 440.77,-165.7 439.09,-172.49"/>
</g>
<!-- Fundamental Theorem of Algebra -->
<g id="node11" class="node">
<title>Fundamental Theorem of Algebra</title>
<g id="a_node11"><a xlink:href="/Knowledge/fundamental_theorem_of_algebra.html" xlink:title="Fundamental Theorem of Algebra" target="_parent">
<path fill="#273434" stroke="#b75867" d="M579,-160C579,-160 418,-160 418,-160 412,-160 406,-154 406,-148 406,-148 406,-136 406,-136 406,-130 412,-124 418,-124 418,-124 579,-124 579,-124 585,-124 591,-130 591,-136 591,-136 591,-148 591,-148 591,-154 585,-160 579,-160"/>
<text text-anchor="middle" x="498.5" y="-138.9" font-family="sans" font-size="12.00" fill="#c4c7c7">Fundamental Theorem of Algebra</text>
</a>
</g>
</g>
<!-- Linear Algebra&#45;&gt;Fundamental Theorem of Algebra -->
<g id="edge18" class="edge">
<title>Linear Algebra&#45;&gt;Fundamental Theorem of Algebra</title>
<path fill="none" stroke="#b75867" d="M373.71,-111.02C384.26,-114.06 395.51,-117.22 406,-120 407.68,-120.45 409.38,-120.89 411.1,-121.34"/>
<polygon fill="#b75867" stroke="#b75867" points="410.49,-124.8 421.05,-123.89 412.23,-118.02 410.49,-124.8"/>
</g>
<!-- Subjects -->
<g id="node12" class="node">
<title>Subjects</title>
<g id="a_node12"><a xlink:href="/Knowledge/subjects.html" xlink:title="Subjects" target="_parent">
<path fill="none" stroke="#b75867" d="M516.5,-123C516.5,-123 480.5,-123 480.5,-123 474.5,-123 468.5,-117 468.5,-111 468.5,-111 468.5,-99 468.5,-99 468.5,-93 474.5,-87 480.5,-87 480.5,-87 516.5,-87 516.5,-87 522.5,-87 528.5,-93 528.5,-99 528.5,-99 528.5,-111 528.5,-111 528.5,-117 522.5,-123 516.5,-123"/>
<text text-anchor="middle" x="498.5" y="-101.9" font-family="sans" font-size="12.00" fill="#c4c7c7">Subjects</text>
</a>
</g>
</g>
<!-- Linear Algebra&#45;&gt;Subjects -->
<g id="edge19" class="edge">
<title>Linear Algebra&#45;&gt;Subjects</title>
<path fill="none" stroke="#ffffff" d="M383.66,-100.24C411.76,-101.42 445.07,-102.81 468.37,-103.78"/>
<polygon fill="#ffffff" stroke="#ffffff" points="383.71,-96.74 373.57,-99.82 383.42,-103.74 383.71,-96.74"/>
</g>
</g>
</svg>
