<?xml version="1.0" encoding="UTF-8" standalone="no"?>
<!DOCTYPE svg PUBLIC "-//W3C//DTD SVG 1.1//EN"
 "http://www.w3.org/Graphics/SVG/1.1/DTD/svg11.dtd">
<!-- Generated by graphviz version 2.44.0 (0)
 -->
<!-- Title: Bijective function Pages: 1 -->
<svg width="784pt" height="229pt"
 viewBox="0.00 0.00 784.00 229.00" xmlns="http://www.w3.org/2000/svg" xmlns:xlink="http://www.w3.org/1999/xlink">
<g id="graph0" class="graph" transform="scale(1 1) rotate(0) translate(4 225)">
<title>Bijective function</title>
<polygon fill="#132020" stroke="transparent" points="-4,4 -4,-225 780,-225 780,4 -4,4"/>
<!-- Bijective function -->
<g id="node1" class="node">
<title>Bijective function</title>
<g id="a_node1"><a xlink:href="/Knowledge/Bijective function.html" xlink:title="Bijective function" target="_parent">
<path fill="#273434" stroke="#b75867" d="M102,-187C102,-187 12,-187 12,-187 6,-187 0,-181 0,-175 0,-175 0,-163 0,-163 0,-157 6,-151 12,-151 12,-151 102,-151 102,-151 108,-151 114,-157 114,-163 114,-163 114,-175 114,-175 114,-181 108,-187 102,-187"/>
<text text-anchor="middle" x="57" y="-165.9" font-family="sans" font-size="12.00" fill="#c4c7c7">Bijective function</text>
</a>
</g>
</g>
<!-- Surjective function -->
<g id="node2" class="node">
<title>Surjective function</title>
<g id="a_node2"><a xlink:href="/Knowledge/Surjective function.html" xlink:title="Surjective function" target="_parent">
<path fill="#273434" stroke="#b75867" d="M248,-197C248,-197 150,-197 150,-197 144,-197 138,-191 138,-185 138,-185 138,-173 138,-173 138,-167 144,-161 150,-161 150,-161 248,-161 248,-161 254,-161 260,-167 260,-173 260,-173 260,-185 260,-185 260,-191 254,-197 248,-197"/>
<text text-anchor="middle" x="199" y="-175.9" font-family="sans" font-size="12.00" fill="#c4c7c7">Surjective function</text>
</a>
</g>
</g>
<!-- Bijective function&#45;&gt;Surjective function -->
<g id="edge1" class="edge">
<title>Bijective function&#45;&gt;Surjective function</title>
<path fill="none" stroke="#b75867" d="M114.14,-173.01C118.5,-173.32 122.94,-173.64 127.38,-173.96"/>
<polygon fill="#b75867" stroke="#b75867" points="127.5,-177.47 137.72,-174.69 128,-170.49 127.5,-177.47"/>
</g>
<!-- Injective function -->
<g id="node3" class="node">
<title>Injective function</title>
<g id="a_node3"><a xlink:href="/Knowledge/Injective function.html" xlink:title="Injective function" target="_parent">
<path fill="#273434" stroke="#b75867" d="M592.5,-221C592.5,-221 502.5,-221 502.5,-221 496.5,-221 490.5,-215 490.5,-209 490.5,-209 490.5,-197 490.5,-197 490.5,-191 496.5,-185 502.5,-185 502.5,-185 592.5,-185 592.5,-185 598.5,-185 604.5,-191 604.5,-197 604.5,-197 604.5,-209 604.5,-209 604.5,-215 598.5,-221 592.5,-221"/>
<text text-anchor="middle" x="547.5" y="-199.9" font-family="sans" font-size="12.00" fill="#c4c7c7">Injective function</text>
</a>
</g>
</g>
<!-- Bijective function&#45;&gt;Injective function -->
<g id="edge2" class="edge">
<title>Bijective function&#45;&gt;Injective function</title>
<path fill="none" stroke="#b75867" d="M94.11,-187.05C103.01,-190.71 112.68,-194.03 122,-196 246.45,-222.25 395.99,-216.29 480.26,-209.62"/>
<polygon fill="#b75867" stroke="#b75867" points="480.78,-213.09 490.46,-208.78 480.2,-206.11 480.78,-213.09"/>
</g>
<!-- Linear Algebra -->
<g id="node4" class="node">
<title>Linear Algebra</title>
<g id="a_node4"><a xlink:href="/Knowledge/Linear Algebra.html" xlink:title="Linear Algebra" target="_parent">
<path fill="none" stroke="#b75867" d="M396.5,-184C396.5,-184 322.5,-184 322.5,-184 316.5,-184 310.5,-178 310.5,-172 310.5,-172 310.5,-160 310.5,-160 310.5,-154 316.5,-148 322.5,-148 322.5,-148 396.5,-148 396.5,-148 402.5,-148 408.5,-154 408.5,-160 408.5,-160 408.5,-172 408.5,-172 408.5,-178 402.5,-184 396.5,-184"/>
<text text-anchor="middle" x="359.5" y="-162.9" font-family="sans" font-size="12.00" fill="#c4c7c7">Linear Algebra</text>
</a>
</g>
</g>
<!-- Bijective function&#45;&gt;Linear Algebra -->
<g id="edge3" class="edge">
<title>Bijective function&#45;&gt;Linear Algebra</title>
<path fill="none" stroke="#ffffff" d="M124.46,-163.98C194.25,-161.59 264.91,-162.91 310.47,-164.26"/>
<polygon fill="#ffffff" stroke="#ffffff" points="124.04,-160.49 114.18,-164.36 124.3,-167.49 124.04,-160.49"/>
</g>
<!-- Principle of the bijection -->
<g id="node5" class="node">
<title>Principle of the bijection</title>
<g id="a_node5"><a xlink:href="/Knowledge/Principle of the bijection.html" xlink:title="Principle of the bijection" target="_parent">
<path fill="none" stroke="#b75867" d="M264,-154C264,-154 134,-154 134,-154 128,-154 122,-148 122,-142 122,-142 122,-130 122,-130 122,-124 128,-118 134,-118 134,-118 264,-118 264,-118 270,-118 276,-124 276,-130 276,-130 276,-142 276,-142 276,-148 270,-154 264,-154"/>
<text text-anchor="middle" x="199" y="-132.9" font-family="sans" font-size="12.00" fill="#c4c7c7">Principle of the bijection</text>
</a>
</g>
</g>
<!-- Bijective function&#45;&gt;Principle of the bijection -->
<g id="edge4" class="edge">
<title>Bijective function&#45;&gt;Principle of the bijection</title>
<path fill="none" stroke="#ffffff" d="M121.47,-154.04C121.63,-154 121.8,-153.96 121.96,-153.92"/>
<polygon fill="#ffffff" stroke="#ffffff" points="123.07,-150.07 114.14,-155.77 124.67,-156.88 123.07,-150.07"/>
</g>
<!-- Surjective function&#45;&gt;Bijective function -->
<g id="edge6" class="edge">
<title>Surjective function&#45;&gt;Bijective function</title>
<path fill="none" stroke="#ffffff" d="M127.38,-174.71C122.94,-174.39 118.5,-174.07 114.14,-173.75"/>
<polygon fill="#ffffff" stroke="#ffffff" points="127.5,-178.22 137.72,-175.44 127.99,-171.24 127.5,-178.22"/>
</g>
<!-- Surjective function&#45;&gt;Linear Algebra -->
<g id="edge5" class="edge">
<title>Surjective function&#45;&gt;Linear Algebra</title>
<path fill="none" stroke="#ffffff" d="M270.57,-173.21C284.02,-172.11 297.81,-170.98 310.36,-169.95"/>
<polygon fill="#ffffff" stroke="#ffffff" points="270.05,-169.74 260.37,-174.05 270.63,-176.72 270.05,-169.74"/>
</g>
<!-- Injective function&#45;&gt;Bijective function -->
<g id="edge9" class="edge">
<title>Injective function&#45;&gt;Bijective function</title>
<path fill="none" stroke="#ffffff" d="M480.26,-210.31C395.99,-217.29 246.45,-223.25 122,-197 111.85,-194.86 101.3,-191.11 91.76,-187.04"/>
<polygon fill="#ffffff" stroke="#ffffff" points="480.79,-213.78 490.46,-209.44 480.19,-206.81 480.79,-213.78"/>
</g>
<!-- Injective function&#45;&gt;Linear Algebra -->
<g id="edge8" class="edge">
<title>Injective function&#45;&gt;Linear Algebra</title>
<path fill="none" stroke="#ffffff" d="M480.51,-190.59C456.89,-185.95 430.73,-180.73 408.88,-176.29"/>
<polygon fill="#ffffff" stroke="#ffffff" points="479.96,-194.05 490.45,-192.54 481.31,-187.18 479.96,-194.05"/>
</g>
<!-- Dirichlet principle -->
<g id="node6" class="node">
<title>Dirichlet principle</title>
<g id="a_node6"><a xlink:href="/Knowledge/Dirichlet principle.html" xlink:title="Dirichlet principle" target="_parent">
<path fill="none" stroke="#b75867" d="M764,-221C764,-221 672,-221 672,-221 666,-221 660,-215 660,-209 660,-209 660,-197 660,-197 660,-191 666,-185 672,-185 672,-185 764,-185 764,-185 770,-185 776,-191 776,-197 776,-197 776,-209 776,-209 776,-215 770,-221 764,-221"/>
<text text-anchor="middle" x="718" y="-199.9" font-family="sans" font-size="12.00" fill="#c4c7c7">Dirichlet principle</text>
</a>
</g>
</g>
<!-- Injective function&#45;&gt;Dirichlet principle -->
<g id="edge7" class="edge">
<title>Injective function&#45;&gt;Dirichlet principle</title>
<path fill="none" stroke="#ffffff" d="M614.8,-203C629.74,-203 645.47,-203 659.99,-203"/>
<polygon fill="#ffffff" stroke="#ffffff" points="614.61,-199.5 604.61,-203 614.61,-206.5 614.61,-199.5"/>
</g>
<!-- Linear Algebra&#45;&gt;Bijective function -->
<g id="edge11" class="edge">
<title>Linear Algebra&#45;&gt;Bijective function</title>
<path fill="none" stroke="#b75867" d="M310.47,-165.02C264.91,-163.9 194.25,-162.59 124.46,-164.98"/>
<polygon fill="#b75867" stroke="#b75867" points="124.04,-161.49 114.18,-165.36 124.3,-168.49 124.04,-161.49"/>
</g>
<!-- Linear Algebra&#45;&gt;Surjective function -->
<g id="edge13" class="edge">
<title>Linear Algebra&#45;&gt;Surjective function</title>
<path fill="none" stroke="#b75867" d="M310.36,-170.64C297.81,-171.72 284.02,-172.87 270.57,-173.96"/>
<polygon fill="#b75867" stroke="#b75867" points="270.06,-170.49 260.37,-174.78 270.62,-177.46 270.06,-170.49"/>
</g>
<!-- Linear Algebra&#45;&gt;Injective function -->
<g id="edge12" class="edge">
<title>Linear Algebra&#45;&gt;Injective function</title>
<path fill="none" stroke="#b75867" d="M408.88,-175.62C430.73,-179.97 456.89,-185.17 480.51,-189.87"/>
<polygon fill="#b75867" stroke="#b75867" points="479.96,-193.33 490.45,-191.85 481.32,-186.47 479.96,-193.33"/>
</g>
<!-- Matrix -->
<g id="node7" class="node">
<title>Matrix</title>
<g id="a_node7"><a xlink:href="/Knowledge/Matrix.html" xlink:title="Matrix" target="_parent">
<path fill="#273434" stroke="#b75867" d="M562.5,-184C562.5,-184 532.5,-184 532.5,-184 526.5,-184 520.5,-178 520.5,-172 520.5,-172 520.5,-160 520.5,-160 520.5,-154 526.5,-148 532.5,-148 532.5,-148 562.5,-148 562.5,-148 568.5,-148 574.5,-154 574.5,-160 574.5,-160 574.5,-172 574.5,-172 574.5,-178 568.5,-184 562.5,-184"/>
<text text-anchor="middle" x="547.5" y="-162.9" font-family="sans" font-size="12.00" fill="#c4c7c7">Matrix</text>
</a>
</g>
</g>
<!-- Linear Algebra&#45;&gt;Matrix -->
<g id="edge10" class="edge">
<title>Linear Algebra&#45;&gt;Matrix</title>
<path fill="none" stroke="#b75867" d="M408.88,-166C440.62,-166 481.43,-166 510.35,-166"/>
<polygon fill="#b75867" stroke="#b75867" points="510.42,-169.5 520.42,-166 510.42,-162.5 510.42,-169.5"/>
</g>
<!-- Kronecker Delta -->
<g id="node8" class="node">
<title>Kronecker Delta</title>
<g id="a_node8"><a xlink:href="/Knowledge/Kronecker Delta.html" xlink:title="Kronecker Delta" target="_parent">
<path fill="#273434" stroke="#b75867" d="M589,-147C589,-147 506,-147 506,-147 500,-147 494,-141 494,-135 494,-135 494,-123 494,-123 494,-117 500,-111 506,-111 506,-111 589,-111 589,-111 595,-111 601,-117 601,-123 601,-123 601,-135 601,-135 601,-141 595,-147 589,-147"/>
<text text-anchor="middle" x="547.5" y="-125.9" font-family="sans" font-size="12.00" fill="#c4c7c7">Kronecker Delta</text>
</a>
</g>
</g>
<!-- Linear Algebra&#45;&gt;Kronecker Delta -->
<g id="edge14" class="edge">
<title>Linear Algebra&#45;&gt;Kronecker Delta</title>
<path fill="none" stroke="#b75867" d="M408.88,-156.38C431.78,-151.82 459.4,-146.33 483.87,-141.46"/>
<polygon fill="#b75867" stroke="#b75867" points="484.66,-144.87 493.78,-139.49 483.29,-138 484.66,-144.87"/>
</g>
<!-- Fundamental Theorem of Algebra -->
<g id="node9" class="node">
<title>Fundamental Theorem of Algebra</title>
<g id="a_node9"><a xlink:href="/Knowledge/Fundamental Theorem of Algebra.html" xlink:title="Fundamental Theorem of Algebra" target="_parent">
<path fill="#273434" stroke="#b75867" d="M640,-110C640,-110 455,-110 455,-110 449,-110 443,-104 443,-98 443,-98 443,-86 443,-86 443,-80 449,-74 455,-74 455,-74 640,-74 640,-74 646,-74 652,-80 652,-86 652,-86 652,-98 652,-98 652,-104 646,-110 640,-110"/>
<text text-anchor="middle" x="547.5" y="-88.9" font-family="sans" font-size="12.00" fill="#c4c7c7">Fundamental Theorem of Algebra</text>
</a>
</g>
</g>
<!-- Linear Algebra&#45;&gt;Fundamental Theorem of Algebra -->
<g id="edge15" class="edge">
<title>Linear Algebra&#45;&gt;Fundamental Theorem of Algebra</title>
<path fill="none" stroke="#b75867" d="M408.59,-159.56C418.38,-156.27 427.85,-151.34 435,-144 442.6,-136.2 436.96,-127.95 441.41,-118.21"/>
<polygon fill="#b75867" stroke="#b75867" points="444.33,-120.14 447.58,-110.06 438.75,-115.91 444.33,-120.14"/>
</g>
<!-- Subjects -->
<g id="node10" class="node">
<title>Subjects</title>
<g id="a_node10"><a xlink:href="/Knowledge/Subjects.html" xlink:title="Subjects" target="_parent">
<path fill="none" stroke="#b75867" d="M568,-73C568,-73 527,-73 527,-73 521,-73 515,-67 515,-61 515,-61 515,-49 515,-49 515,-43 521,-37 527,-37 527,-37 568,-37 568,-37 574,-37 580,-43 580,-49 580,-49 580,-61 580,-61 580,-67 574,-73 568,-73"/>
<text text-anchor="middle" x="547.5" y="-51.9" font-family="sans" font-size="12.00" fill="#c4c7c7">Subjects</text>
</a>
</g>
</g>
<!-- Linear Algebra&#45;&gt;Subjects -->
<g id="edge16" class="edge">
<title>Linear Algebra&#45;&gt;Subjects</title>
<path fill="none" stroke="#ffffff" d="M418.26,-156.63C424.63,-153.51 430.44,-149.4 435,-144 454.35,-121.09 422.78,-99.14 443,-77 460.84,-57.47 491.36,-52.95 514.65,-52.73"/>
<polygon fill="#ffffff" stroke="#ffffff" points="416.58,-153.54 408.62,-160.54 419.21,-160.03 416.58,-153.54"/>
</g>
<!-- Knowledege Base -->
<g id="node11" class="node">
<title>Knowledege Base</title>
<g id="a_node11"><a xlink:href="/Knowledge/Knowledege Base.html" xlink:title="Knowledege Base" target="_parent">
<path fill="none" stroke="#b75867" d="M594,-36C594,-36 501,-36 501,-36 495,-36 489,-30 489,-24 489,-24 489,-12 489,-12 489,-6 495,0 501,0 501,0 594,0 594,0 600,0 606,-6 606,-12 606,-12 606,-24 606,-24 606,-30 600,-36 594,-36"/>
<text text-anchor="middle" x="547.5" y="-14.9" font-family="sans" font-size="12.00" fill="#c4c7c7">Knowledege Base</text>
</a>
</g>
</g>
<!-- Linear Algebra&#45;&gt;Knowledege Base -->
<g id="edge17" class="edge">
<title>Linear Algebra&#45;&gt;Knowledege Base</title>
<path fill="none" stroke="#ffffff" d="M418.48,-156.81C424.81,-153.66 430.55,-149.49 435,-144 449.58,-125.98 427.73,-57.44 443,-40 454.5,-26.87 471.71,-20.45 488.82,-17.58"/>
<polygon fill="#ffffff" stroke="#ffffff" points="416.8,-153.72 408.87,-160.74 419.45,-160.2 416.8,-153.72"/>
</g>
<!-- Principle of the bijection&#45;&gt;Bijective function -->
<g id="edge18" class="edge">
<title>Principle of the bijection&#45;&gt;Bijective function</title>
<path fill="none" stroke="#b75867" d="M124.74,-154.02C124.52,-154.07 124.3,-154.12 124.08,-154.17"/>
<polygon fill="#b75867" stroke="#b75867" points="123.07,-150.81 114.14,-156.5 124.67,-157.63 123.07,-150.81"/>
</g>
<!-- Set -->
<g id="node12" class="node">
<title>Set</title>
<g id="a_node12"><a xlink:href="/Knowledge/Set.html" xlink:title="Set" target="_parent">
<path fill="#273434" stroke="#b75867" d="M374.5,-147C374.5,-147 344.5,-147 344.5,-147 338.5,-147 332.5,-141 332.5,-135 332.5,-135 332.5,-123 332.5,-123 332.5,-117 338.5,-111 344.5,-111 344.5,-111 374.5,-111 374.5,-111 380.5,-111 386.5,-117 386.5,-123 386.5,-123 386.5,-135 386.5,-135 386.5,-141 380.5,-147 374.5,-147"/>
<text text-anchor="middle" x="359.5" y="-125.9" font-family="sans" font-size="12.00" fill="#c4c7c7">Set</text>
</a>
</g>
</g>
<!-- Principle of the bijection&#45;&gt;Set -->
<g id="edge19" class="edge">
<title>Principle of the bijection&#45;&gt;Set</title>
<path fill="none" stroke="#b75867" d="M276,-132.64C292.08,-131.93 308.34,-131.22 322.13,-130.61"/>
<polygon fill="#b75867" stroke="#b75867" points="322.3,-134.1 332.14,-130.16 321.99,-127.11 322.3,-134.1"/>
</g>
<!-- Combinatoric principles -->
<g id="node13" class="node">
<title>Combinatoric principles</title>
<g id="a_node13"><a xlink:href="/Knowledge/Combinatoric principles.html" xlink:title="Combinatoric principles" target="_parent">
<path fill="none" stroke="#b75867" d="M423,-110C423,-110 296,-110 296,-110 290,-110 284,-104 284,-98 284,-98 284,-86 284,-86 284,-80 290,-74 296,-74 296,-74 423,-74 423,-74 429,-74 435,-80 435,-86 435,-86 435,-98 435,-98 435,-104 429,-110 423,-110"/>
<text text-anchor="middle" x="359.5" y="-88.9" font-family="sans" font-size="12.00" fill="#c4c7c7">Combinatoric principles</text>
</a>
</g>
</g>
<!-- Principle of the bijection&#45;&gt;Combinatoric principles -->
<g id="edge20" class="edge">
<title>Principle of the bijection&#45;&gt;Combinatoric principles</title>
<path fill="none" stroke="#ffffff" d="M274.7,-115.26C280.95,-113.53 287.25,-111.78 293.42,-110.07"/>
<polygon fill="#ffffff" stroke="#ffffff" points="273.62,-111.93 264.93,-117.98 275.5,-118.67 273.62,-111.93"/>
</g>
</g>
</svg>
