<?xml version="1.0" encoding="UTF-8" standalone="no"?>
<!DOCTYPE svg PUBLIC "-//W3C//DTD SVG 1.1//EN"
 "http://www.w3.org/Graphics/SVG/1.1/DTD/svg11.dtd">
<!-- Generated by graphviz version 2.46.1 (0)
 -->
<!-- Title: Chain Pages: 1 -->
<svg width="549pt" height="562pt"
 viewBox="0.00 0.00 549.00 562.00" xmlns="http://www.w3.org/2000/svg" xmlns:xlink="http://www.w3.org/1999/xlink">
<g id="graph0" class="graph" transform="scale(1 1) rotate(0) translate(4 558)">
<title>Chain</title>
<polygon fill="#132020" stroke="transparent" points="-4,4 -4,-558 545,-558 545,4 -4,4"/>
<!-- Chain -->
<g id="node1" class="node">
<title>Chain</title>
<g id="a_node1"><a xlink:href="/Knowledge/chain.html" xlink:title="Chain" target="_parent">
<path fill="#273434" stroke="#b75867" d="M42,-341C42,-341 12,-341 12,-341 6,-341 0,-335 0,-329 0,-329 0,-317 0,-317 0,-311 6,-305 12,-305 12,-305 42,-305 42,-305 48,-305 54,-311 54,-317 54,-317 54,-329 54,-329 54,-335 48,-341 42,-341"/>
<text text-anchor="middle" x="27" y="-319.9" font-family="sans" font-size="12.00" fill="#c4c7c7">Chain</text>
</a>
</g>
</g>
<!-- Partial orders have no contours -->
<g id="node2" class="node">
<title>Partial orders have no contours</title>
<g id="a_node2"><a xlink:href="/Knowledge/partial_orders_have_no_contours.html" xlink:title="Partial orders have no contours" target="_parent">
<path fill="#273434" stroke="#b75867" d="M224,-355C224,-355 74,-355 74,-355 68,-355 62,-349 62,-343 62,-343 62,-331 62,-331 62,-325 68,-319 74,-319 74,-319 224,-319 224,-319 230,-319 236,-325 236,-331 236,-331 236,-343 236,-343 236,-349 230,-355 224,-355"/>
<text text-anchor="middle" x="149" y="-333.9" font-family="sans" font-size="12.00" fill="#c4c7c7">Partial orders have no contours</text>
</a>
</g>
</g>
<!-- Chain&#45;&gt;Partial orders have no contours -->
<g id="edge1" class="edge">
<title>Chain&#45;&gt;Partial orders have no contours</title>
<path fill="none" stroke="#b75867" d="M54.04,-326.04C54.19,-326.06 54.35,-326.07 54.5,-326.09"/>
<polygon fill="#b75867" stroke="#b75867" points="51.46,-329.26 61.8,-326.94 52.27,-322.31 51.46,-329.26"/>
</g>
<!-- Contour -->
<g id="node3" class="node">
<title>Contour</title>
<g id="a_node3"><a xlink:href="/Knowledge/contour.html" xlink:title="Contour" target="_parent">
<path fill="#273434" stroke="#b75867" d="M315.5,-381C315.5,-381 280.5,-381 280.5,-381 274.5,-381 268.5,-375 268.5,-369 268.5,-369 268.5,-357 268.5,-357 268.5,-351 274.5,-345 280.5,-345 280.5,-345 315.5,-345 315.5,-345 321.5,-345 327.5,-351 327.5,-357 327.5,-357 327.5,-369 327.5,-369 327.5,-375 321.5,-381 315.5,-381"/>
<text text-anchor="middle" x="298" y="-359.9" font-family="sans" font-size="12.00" fill="#c4c7c7">Contour</text>
</a>
</g>
</g>
<!-- Chain&#45;&gt;Contour -->
<g id="edge2" class="edge">
<title>Chain&#45;&gt;Contour</title>
<path fill="none" stroke="#b75867" d="M42.49,-341.03C47.97,-346.54 54.67,-351.95 62,-355 126.6,-381.9 210.06,-376.36 258.15,-369.77"/>
<polygon fill="#b75867" stroke="#b75867" points="258.75,-373.22 268.14,-368.31 257.74,-366.29 258.75,-373.22"/>
</g>
<!-- Relation -->
<g id="node4" class="node">
<title>Relation</title>
<g id="a_node4"><a xlink:href="/Knowledge/relation.html" xlink:title="Relation" target="_parent">
<path fill="#273434" stroke="#b75867" d="M166.5,-242C166.5,-242 131.5,-242 131.5,-242 125.5,-242 119.5,-236 119.5,-230 119.5,-230 119.5,-218 119.5,-218 119.5,-212 125.5,-206 131.5,-206 131.5,-206 166.5,-206 166.5,-206 172.5,-206 178.5,-212 178.5,-218 178.5,-218 178.5,-230 178.5,-230 178.5,-236 172.5,-242 166.5,-242"/>
<text text-anchor="middle" x="149" y="-220.9" font-family="sans" font-size="12.00" fill="#c4c7c7">Relation</text>
</a>
</g>
</g>
<!-- Chain&#45;&gt;Relation -->
<g id="edge3" class="edge">
<title>Chain&#45;&gt;Relation</title>
<path fill="none" stroke="#b75867" d="M50.01,-304.84C69.21,-289 97.22,-265.89 118.39,-248.43"/>
<polygon fill="#b75867" stroke="#b75867" points="120.64,-251.11 126.13,-242.04 116.19,-245.71 120.64,-251.11"/>
</g>
<!-- Relations -->
<g id="node5" class="node">
<title>Relations</title>
<g id="a_node5"><a xlink:href="/Knowledge/relations.html" xlink:title="Relations" target="_parent">
<path fill="none" stroke="#b75867" d="M318,-326C318,-326 278,-326 278,-326 272,-326 266,-320 266,-314 266,-314 266,-302 266,-302 266,-296 272,-290 278,-290 278,-290 318,-290 318,-290 324,-290 330,-296 330,-302 330,-302 330,-314 330,-314 330,-320 324,-326 318,-326"/>
<text text-anchor="middle" x="298" y="-304.9" font-family="sans" font-size="12.00" fill="#c4c7c7">Relations</text>
</a>
</g>
</g>
<!-- Chain&#45;&gt;Relations -->
<g id="edge4" class="edge">
<title>Chain&#45;&gt;Relations</title>
<path fill="none" stroke="#ffffff" d="M64.75,-318.87C142.17,-312.76 222.66,-309.97 265.78,-308.76"/>
<polygon fill="#ffffff" stroke="#ffffff" points="64.02,-315.42 54.34,-319.72 64.59,-322.4 64.02,-315.42"/>
</g>
<!-- Partial orders have no contours&#45;&gt;Chain -->
<g id="edge9" class="edge">
<title>Partial orders have no contours&#45;&gt;Chain</title>
<path fill="none" stroke="#ffffff" d="M54.5,-326.73C54.35,-326.71 54.19,-326.69 54.04,-326.67"/>
<polygon fill="#ffffff" stroke="#ffffff" points="51.45,-329.88 61.8,-327.63 52.3,-322.93 51.45,-329.88"/>
</g>
<!-- Partial orders have no contours&#45;&gt;Contour -->
<g id="edge5" class="edge">
<title>Partial orders have no contours&#45;&gt;Contour</title>
<path fill="none" stroke="#b75867" d="M236.36,-352.27C243.91,-353.61 251.27,-354.91 258.11,-356.12"/>
<polygon fill="#b75867" stroke="#b75867" points="257.93,-359.64 268.38,-357.94 259.15,-352.75 257.93,-359.64"/>
</g>
<!-- Partial order -->
<g id="node6" class="node">
<title>Partial order</title>
<g id="a_node6"><a xlink:href="/Knowledge/partial_order.html" xlink:title="Partial order" target="_parent">
<path fill="#273434" stroke="#b75867" d="M478,-554C478,-554 423,-554 423,-554 417,-554 411,-548 411,-542 411,-542 411,-530 411,-530 411,-524 417,-518 423,-518 423,-518 478,-518 478,-518 484,-518 490,-524 490,-530 490,-530 490,-542 490,-542 490,-548 484,-554 478,-554"/>
<text text-anchor="middle" x="450.5" y="-532.9" font-family="sans" font-size="12.00" fill="#c4c7c7">Partial order</text>
</a>
</g>
</g>
<!-- Partial orders have no contours&#45;&gt;Partial order -->
<g id="edge6" class="edge">
<title>Partial orders have no contours&#45;&gt;Partial order</title>
<path fill="none" stroke="#b75867" d="M236.18,-339.11C289.15,-340.83 347.72,-343.69 352,-348 365.02,-361.1 348.26,-499.75 360,-514 370.01,-526.16 385.56,-532.22 400.9,-535.07"/>
<polygon fill="#b75867" stroke="#b75867" points="400.5,-538.55 410.9,-536.52 401.5,-531.62 400.5,-538.55"/>
</g>
<!-- Transitive Relation -->
<g id="node7" class="node">
<title>Transitive Relation</title>
<g id="a_node7"><a xlink:href="/Knowledge/transitive_relation.html" xlink:title="Transitive Relation" target="_parent">
<path fill="#273434" stroke="#b75867" d="M493.5,-517C493.5,-517 407.5,-517 407.5,-517 401.5,-517 395.5,-511 395.5,-505 395.5,-505 395.5,-493 395.5,-493 395.5,-487 401.5,-481 407.5,-481 407.5,-481 493.5,-481 493.5,-481 499.5,-481 505.5,-487 505.5,-493 505.5,-493 505.5,-505 505.5,-505 505.5,-511 499.5,-517 493.5,-517"/>
<text text-anchor="middle" x="450.5" y="-495.9" font-family="sans" font-size="12.00" fill="#c4c7c7">Transitive Relation</text>
</a>
</g>
</g>
<!-- Partial orders have no contours&#45;&gt;Transitive Relation -->
<g id="edge7" class="edge">
<title>Partial orders have no contours&#45;&gt;Transitive Relation</title>
<path fill="none" stroke="#b75867" d="M236.17,-333.8C287.16,-332.82 343.44,-333.73 352,-342 373.61,-362.88 340.77,-453.91 360,-477 366.67,-485.01 375.75,-490.37 385.57,-493.91"/>
<polygon fill="#b75867" stroke="#b75867" points="384.58,-497.27 395.17,-496.77 386.58,-490.56 384.58,-497.27"/>
</g>
<!-- Reflexive Relation -->
<g id="node8" class="node">
<title>Reflexive Relation</title>
<g id="a_node8"><a xlink:href="/Knowledge/reflexive_relation.html" xlink:title="Reflexive Relation" target="_parent">
<path fill="#273434" stroke="#b75867" d="M491.5,-480C491.5,-480 409.5,-480 409.5,-480 403.5,-480 397.5,-474 397.5,-468 397.5,-468 397.5,-456 397.5,-456 397.5,-450 403.5,-444 409.5,-444 409.5,-444 491.5,-444 491.5,-444 497.5,-444 503.5,-450 503.5,-456 503.5,-456 503.5,-468 503.5,-468 503.5,-474 497.5,-480 491.5,-480"/>
<text text-anchor="middle" x="450.5" y="-458.9" font-family="sans" font-size="12.00" fill="#c4c7c7">Reflexive Relation</text>
</a>
</g>
</g>
<!-- Partial orders have no contours&#45;&gt;Reflexive Relation -->
<g id="edge8" class="edge">
<title>Partial orders have no contours&#45;&gt;Reflexive Relation</title>
<path fill="none" stroke="#b75867" d="M236.06,-331.19C287,-328.68 343.27,-327.91 352,-336 369.01,-351.75 345.01,-422.32 360,-440 367.13,-448.41 376.91,-453.89 387.39,-457.4"/>
<polygon fill="#b75867" stroke="#b75867" points="386.58,-460.81 397.16,-460.1 388.45,-454.06 386.58,-460.81"/>
</g>
<!-- Contour&#45;&gt;Chain -->
<g id="edge10" class="edge">
<title>Contour&#45;&gt;Chain</title>
<path fill="none" stroke="#b75867" d="M268.14,-368.94C222.41,-376.37 131.34,-384.87 62,-356 57.47,-354.11 53.18,-351.33 49.27,-348.16"/>
<polygon fill="#b75867" stroke="#b75867" points="51.55,-345.5 41.82,-341.29 46.8,-350.65 51.55,-345.5"/>
</g>
<!-- Contour&#45;&gt;Partial orders have no contours -->
<g id="edge11" class="edge">
<title>Contour&#45;&gt;Partial orders have no contours</title>
<path fill="none" stroke="#ffffff" d="M258.11,-356.79C251.27,-355.62 243.91,-354.34 236.36,-353.01"/>
<polygon fill="#ffffff" stroke="#ffffff" points="257.94,-360.31 268.38,-358.55 259.12,-353.41 257.94,-360.31"/>
</g>
<!-- Relation&#45;&gt;Chain -->
<g id="edge14" class="edge">
<title>Relation&#45;&gt;Chain</title>
<path fill="none" stroke="#ffffff" d="M119.05,-248.53C98.02,-266.03 69.96,-289.17 50.57,-304.98"/>
<polygon fill="#ffffff" stroke="#ffffff" points="121.3,-251.22 126.74,-242.13 116.82,-245.84 121.3,-251.22"/>
</g>
<!-- Relation&#45;&gt;Relations -->
<g id="edge25" class="edge">
<title>Relation&#45;&gt;Relations</title>
<path fill="none" stroke="#ffffff" d="M182.98,-247.97C200.59,-260.2 222.93,-274.81 244,-286 250.95,-289.69 258.66,-293.2 265.99,-296.29"/>
<polygon fill="#ffffff" stroke="#ffffff" points="184.93,-245.07 174.73,-242.19 180.91,-250.8 184.93,-245.07"/>
</g>
<!-- Relation&#45;&gt;Partial order -->
<g id="edge13" class="edge">
<title>Relation&#45;&gt;Partial order</title>
<path fill="none" stroke="#ffffff" d="M176.49,-249.35C194.65,-267.61 218.53,-293.45 236,-319 240.49,-325.56 237.44,-330.51 244,-335 263.9,-348.6 335.34,-327.58 352,-345 364.99,-358.59 348.06,-499.48 360,-514 372.2,-528.83 392.63,-534.59 410.89,-536.52"/>
<polygon fill="#ffffff" stroke="#ffffff" points="178.65,-246.56 169.09,-242 173.72,-251.53 178.65,-246.56"/>
</g>
<!-- Relation&#45;&gt;Transitive Relation -->
<g id="edge26" class="edge">
<title>Relation&#45;&gt;Transitive Relation</title>
<path fill="none" stroke="#ffffff" d="M173.97,-249.63C191.47,-268.53 215.59,-295.03 236,-319 239.69,-323.33 238.99,-326.3 244,-329 265.22,-340.43 335.25,-321.67 352,-339 373.34,-361.09 340.36,-453.38 360,-477 368.8,-487.58 381.79,-493.53 395.16,-496.78"/>
<polygon fill="#ffffff" stroke="#ffffff" points="176.52,-247.22 167.15,-242.27 171.39,-251.98 176.52,-247.22"/>
</g>
<!-- Relation&#45;&gt;Reflexive Relation -->
<g id="edge18" class="edge">
<title>Relation&#45;&gt;Reflexive Relation</title>
<path fill="none" stroke="#ffffff" d="M166.86,-250.5C183.4,-273.98 210.91,-306.94 244,-323 265.68,-333.52 335.11,-315.81 352,-333 368.71,-350.01 344.6,-421.8 360,-440 369.3,-450.99 383.12,-456.98 397.14,-460.11"/>
<polygon fill="#ffffff" stroke="#ffffff" points="169.6,-248.31 161.07,-242.02 163.82,-252.25 169.6,-248.31"/>
</g>
<!-- Descartes Product -->
<g id="node9" class="node">
<title>Descartes Product</title>
<g id="a_node9"><a xlink:href="/Knowledge/descartes_product.html" xlink:title="Descartes Product" target="_parent">
<path fill="#273434" stroke="#b75867" d="M340,-191C340,-191 256,-191 256,-191 250,-191 244,-185 244,-179 244,-179 244,-167 244,-167 244,-161 250,-155 256,-155 256,-155 340,-155 340,-155 346,-155 352,-161 352,-167 352,-167 352,-179 352,-179 352,-185 346,-191 340,-191"/>
<text text-anchor="middle" x="298" y="-169.9" font-family="sans" font-size="12.00" fill="#c4c7c7">Descartes Product</text>
</a>
</g>
</g>
<!-- Relation&#45;&gt;Descartes Product -->
<g id="edge12" class="edge">
<title>Relation&#45;&gt;Descartes Product</title>
<path fill="none" stroke="#b75867" d="M178.69,-214.05C194.85,-208.44 215.67,-201.21 235.34,-194.39"/>
<polygon fill="#b75867" stroke="#b75867" points="236.57,-197.67 244.88,-191.08 234.28,-191.06 236.57,-197.67"/>
</g>
<!-- Linear order -->
<g id="node10" class="node">
<title>Linear order</title>
<g id="a_node10"><a xlink:href="/Knowledge/linear_order.html" xlink:title="Linear order" target="_parent">
<path fill="none" stroke="#b75867" d="M478,-73C478,-73 423,-73 423,-73 417,-73 411,-67 411,-61 411,-61 411,-49 411,-49 411,-43 417,-37 423,-37 423,-37 478,-37 478,-37 484,-37 490,-43 490,-49 490,-49 490,-61 490,-61 490,-67 484,-73 478,-73"/>
<text text-anchor="middle" x="450.5" y="-51.9" font-family="sans" font-size="12.00" fill="#c4c7c7">Linear order</text>
</a>
</g>
</g>
<!-- Relation&#45;&gt;Linear order -->
<g id="edge15" class="edge">
<title>Relation&#45;&gt;Linear order</title>
<path fill="none" stroke="#ffffff" d="M188.62,-213.19C205.5,-208.82 225.61,-204.08 244,-201 267.77,-197.01 335.15,-208.23 352,-191 369.76,-172.84 343.64,-96.43 360,-77 372.27,-62.44 392.47,-56.66 410.58,-54.64"/>
<polygon fill="#ffffff" stroke="#ffffff" points="187.34,-209.9 178.57,-215.84 189.13,-216.67 187.34,-209.9"/>
</g>
<!-- Partial function -->
<g id="node11" class="node">
<title>Partial function</title>
<g id="a_node11"><a xlink:href="/Knowledge/partial_function.html" xlink:title="Partial function" target="_parent">
<path fill="none" stroke="#b75867" d="M333,-289C333,-289 263,-289 263,-289 257,-289 251,-283 251,-277 251,-277 251,-265 251,-265 251,-259 257,-253 263,-253 263,-253 333,-253 333,-253 339,-253 345,-259 345,-265 345,-265 345,-277 345,-277 345,-283 339,-289 333,-289"/>
<text text-anchor="middle" x="298" y="-267.9" font-family="sans" font-size="12.00" fill="#c4c7c7">Partial function</text>
</a>
</g>
</g>
<!-- Relation&#45;&gt;Partial function -->
<g id="edge16" class="edge">
<title>Relation&#45;&gt;Partial function</title>
<path fill="none" stroke="#ffffff" d="M188.26,-236.23C207.37,-242.34 230.64,-249.78 250.74,-256.21"/>
<polygon fill="#ffffff" stroke="#ffffff" points="189.28,-232.89 178.69,-233.17 187.15,-239.55 189.28,-232.89"/>
</g>
<!-- Total function -->
<g id="node12" class="node">
<title>Total function</title>
<g id="a_node12"><a xlink:href="/Knowledge/total_function.html" xlink:title="Total function" target="_parent">
<path fill="none" stroke="#b75867" d="M329,-252C329,-252 267,-252 267,-252 261,-252 255,-246 255,-240 255,-240 255,-228 255,-228 255,-222 261,-216 267,-216 267,-216 329,-216 329,-216 335,-216 341,-222 341,-228 341,-228 341,-240 341,-240 341,-246 335,-252 329,-252"/>
<text text-anchor="middle" x="298" y="-230.9" font-family="sans" font-size="12.00" fill="#c4c7c7">Total function</text>
</a>
</g>
</g>
<!-- Relation&#45;&gt;Total function -->
<g id="edge17" class="edge">
<title>Relation&#45;&gt;Total function</title>
<path fill="none" stroke="#ffffff" d="M188.84,-226.64C209.12,-228.02 233.97,-229.71 254.74,-231.13"/>
<polygon fill="#ffffff" stroke="#ffffff" points="188.91,-223.14 178.69,-225.95 188.43,-230.12 188.91,-223.14"/>
</g>
<!-- Symmetric Closure -->
<g id="node13" class="node">
<title>Symmetric Closure</title>
<g id="a_node13"><a xlink:href="/Knowledge/symmetric_closure.html" xlink:title="Symmetric Closure" target="_parent">
<path fill="none" stroke="#b75867" d="M494,-258C494,-258 407,-258 407,-258 401,-258 395,-252 395,-246 395,-246 395,-234 395,-234 395,-228 401,-222 407,-222 407,-222 494,-222 494,-222 500,-222 506,-228 506,-234 506,-234 506,-246 506,-246 506,-252 500,-258 494,-258"/>
<text text-anchor="middle" x="450.5" y="-236.9" font-family="sans" font-size="12.00" fill="#c4c7c7">Symmetric Closure</text>
</a>
</g>
</g>
<!-- Relation&#45;&gt;Symmetric Closure -->
<g id="edge19" class="edge">
<title>Relation&#45;&gt;Symmetric Closure</title>
<path fill="none" stroke="#ffffff" d="M188.84,-219.95C205.76,-218.38 225.84,-216.77 244,-216 291.96,-213.96 304.36,-210.14 352,-216 355.64,-216.45 356.44,-217.12 360,-218 371.18,-220.77 383.15,-223.73 394.59,-226.54"/>
<polygon fill="#ffffff" stroke="#ffffff" points="188.38,-216.48 178.76,-220.92 189.05,-223.45 188.38,-216.48"/>
</g>
<!-- Anti&#45;symmetric Relation -->
<g id="node14" class="node">
<title>Anti&#45;symmetric Relation</title>
<g id="a_node14"><a xlink:href="/Knowledge/anti-symmetric_relation.html" xlink:title="Anti&#45;symmetric Relation" target="_parent">
<path fill="none" stroke="#b75867" d="M507,-36C507,-36 394,-36 394,-36 388,-36 382,-30 382,-24 382,-24 382,-12 382,-12 382,-6 388,0 394,0 394,0 507,0 507,0 513,0 519,-6 519,-12 519,-12 519,-24 519,-24 519,-30 513,-36 507,-36"/>
<text text-anchor="middle" x="450.5" y="-14.9" font-family="sans" font-size="12.00" fill="#c4c7c7">Anti&#45;symmetric Relation</text>
</a>
</g>
</g>
<!-- Relation&#45;&gt;Anti&#45;symmetric Relation -->
<g id="edge20" class="edge">
<title>Relation&#45;&gt;Anti&#45;symmetric Relation</title>
<path fill="none" stroke="#ffffff" d="M188.91,-211.57C205.7,-206.64 225.66,-201.36 244,-198 267.71,-193.66 335.29,-205.37 352,-188 374.84,-164.27 338.99,-65.36 360,-40 365.82,-32.98 373.48,-27.99 381.88,-24.48"/>
<polygon fill="#ffffff" stroke="#ffffff" points="187.48,-208.34 178.91,-214.57 189.49,-215.05 187.48,-208.34"/>
</g>
<!-- Symmetric Relation -->
<g id="node15" class="node">
<title>Symmetric Relation</title>
<g id="a_node15"><a xlink:href="/Knowledge/symmetric_relation.html" xlink:title="Symmetric Relation" target="_parent">
<path fill="none" stroke="#b75867" d="M496,-221C496,-221 405,-221 405,-221 399,-221 393,-215 393,-209 393,-209 393,-197 393,-197 393,-191 399,-185 405,-185 405,-185 496,-185 496,-185 502,-185 508,-191 508,-197 508,-197 508,-209 508,-209 508,-215 502,-221 496,-221"/>
<text text-anchor="middle" x="450.5" y="-199.9" font-family="sans" font-size="12.00" fill="#c4c7c7">Symmetric Relation</text>
</a>
</g>
</g>
<!-- Relation&#45;&gt;Symmetric Relation -->
<g id="edge21" class="edge">
<title>Relation&#45;&gt;Symmetric Relation</title>
<path fill="none" stroke="#ffffff" d="M188.83,-218.86C205.75,-216.77 225.83,-214.5 244,-213 294.19,-208.85 351.44,-206.23 392.74,-204.73"/>
<polygon fill="#ffffff" stroke="#ffffff" points="188.23,-215.4 178.75,-220.12 189.11,-222.35 188.23,-215.4"/>
</g>
<!-- Reflexive Closure -->
<g id="node16" class="node">
<title>Reflexive Closure</title>
<g id="a_node16"><a xlink:href="/Knowledge/reflexive_closure.html" xlink:title="Reflexive Closure" target="_parent">
<path fill="none" stroke="#b75867" d="M489.5,-295C489.5,-295 411.5,-295 411.5,-295 405.5,-295 399.5,-289 399.5,-283 399.5,-283 399.5,-271 399.5,-271 399.5,-265 405.5,-259 411.5,-259 411.5,-259 489.5,-259 489.5,-259 495.5,-259 501.5,-265 501.5,-271 501.5,-271 501.5,-283 501.5,-283 501.5,-289 495.5,-295 489.5,-295"/>
<text text-anchor="middle" x="450.5" y="-273.9" font-family="sans" font-size="12.00" fill="#c4c7c7">Reflexive Closure</text>
</a>
</g>
</g>
<!-- Relation&#45;&gt;Reflexive Closure -->
<g id="edge22" class="edge">
<title>Relation&#45;&gt;Reflexive Closure</title>
<path fill="none" stroke="#ffffff" d="M188.81,-220.39C243.93,-215.67 339.63,-209.08 352,-219 364.79,-229.26 348.54,-243.28 360,-255 370.29,-265.52 384.75,-271.33 399.04,-274.44"/>
<polygon fill="#ffffff" stroke="#ffffff" points="188.35,-216.92 178.69,-221.28 188.96,-223.89 188.35,-216.92"/>
</g>
<!-- Anti&#45;reflexive relation -->
<g id="node17" class="node">
<title>Anti&#45;reflexive relation</title>
<g id="a_node17"><a xlink:href="/Knowledge/anti-reflexive_relation.html" xlink:title="Anti&#45;reflexive relation" target="_parent">
<path fill="none" stroke="#b75867" d="M500.5,-184C500.5,-184 400.5,-184 400.5,-184 394.5,-184 388.5,-178 388.5,-172 388.5,-172 388.5,-160 388.5,-160 388.5,-154 394.5,-148 400.5,-148 400.5,-148 500.5,-148 500.5,-148 506.5,-148 512.5,-154 512.5,-160 512.5,-160 512.5,-172 512.5,-172 512.5,-178 506.5,-184 500.5,-184"/>
<text text-anchor="middle" x="450.5" y="-162.9" font-family="sans" font-size="12.00" fill="#c4c7c7">Anti&#45;reflexive relation</text>
</a>
</g>
</g>
<!-- Relation&#45;&gt;Anti&#45;reflexive relation -->
<g id="edge23" class="edge">
<title>Relation&#45;&gt;Anti&#45;reflexive relation</title>
<path fill="none" stroke="#ffffff" d="M188.82,-217.72C205.74,-215.12 225.82,-212.19 244,-210 267.93,-207.11 331.3,-212.34 352,-200 357.51,-196.72 354.75,-191.68 360,-188 368.38,-182.12 378.17,-177.8 388.13,-174.64"/>
<polygon fill="#ffffff" stroke="#ffffff" points="188.08,-214.3 178.74,-219.3 189.16,-221.21 188.08,-214.3"/>
</g>
<!-- Strongly Anti&#45;symmetric Relation -->
<g id="node18" class="node">
<title>Strongly Anti&#45;symmetric Relation</title>
<g id="a_node18"><a xlink:href="/Knowledge/strongly_anti-symmetric_relation.html" xlink:title="Strongly Anti&#45;symmetric Relation" target="_parent">
<path fill="none" stroke="#b75867" d="M529,-147C529,-147 372,-147 372,-147 366,-147 360,-141 360,-135 360,-135 360,-123 360,-123 360,-117 366,-111 372,-111 372,-111 529,-111 529,-111 535,-111 541,-117 541,-123 541,-123 541,-135 541,-135 541,-141 535,-147 529,-147"/>
<text text-anchor="middle" x="450.5" y="-125.9" font-family="sans" font-size="12.00" fill="#c4c7c7">Strongly Anti&#45;symmetric Relation</text>
</a>
</g>
</g>
<!-- Relation&#45;&gt;Strongly Anti&#45;symmetric Relation -->
<g id="edge24" class="edge">
<title>Relation&#45;&gt;Strongly Anti&#45;symmetric Relation</title>
<path fill="none" stroke="#ffffff" d="M188.77,-216.21C205.68,-213.01 225.77,-209.49 244,-207 267.88,-203.74 334.29,-213.35 352,-197 367.25,-182.92 345.84,-166.17 360,-151 361.31,-149.6 362.69,-148.28 364.14,-147.03"/>
<polygon fill="#ffffff" stroke="#ffffff" points="187.86,-212.82 178.7,-218.14 189.18,-219.69 187.86,-212.82"/>
</g>
<!-- Relation of Equivalence -->
<g id="node19" class="node">
<title>Relation of Equivalence</title>
<g id="a_node19"><a xlink:href="/Knowledge/relation_of_equivalence.html" xlink:title="Relation of Equivalence" target="_parent">
<path fill="none" stroke="#b75867" d="M505.5,-110C505.5,-110 395.5,-110 395.5,-110 389.5,-110 383.5,-104 383.5,-98 383.5,-98 383.5,-86 383.5,-86 383.5,-80 389.5,-74 395.5,-74 395.5,-74 505.5,-74 505.5,-74 511.5,-74 517.5,-80 517.5,-86 517.5,-86 517.5,-98 517.5,-98 517.5,-104 511.5,-110 505.5,-110"/>
<text text-anchor="middle" x="450.5" y="-88.9" font-family="sans" font-size="12.00" fill="#c4c7c7">Relation of Equivalence</text>
</a>
</g>
</g>
<!-- Relation&#45;&gt;Relation of Equivalence -->
<g id="edge27" class="edge">
<title>Relation&#45;&gt;Relation of Equivalence</title>
<path fill="none" stroke="#ffffff" d="M188.7,-214.7C205.6,-210.91 225.7,-206.78 244,-204 255.91,-202.19 343.45,-202.49 352,-194 364.68,-181.41 348.29,-127.49 360,-114 366.19,-106.87 374.28,-101.86 383.06,-98.37"/>
<polygon fill="#ffffff" stroke="#ffffff" points="187.61,-211.36 178.64,-216.99 189.17,-218.18 187.61,-211.36"/>
</g>
<!-- Relations&#45;&gt;Chain -->
<g id="edge28" class="edge">
<title>Relations&#45;&gt;Chain</title>
<path fill="none" stroke="#b75867" d="M265.78,-309.42C222.66,-310.95 142.17,-313.76 64.75,-319.87"/>
<polygon fill="#b75867" stroke="#b75867" points="64.02,-316.42 54.34,-320.71 64.59,-323.39 64.02,-316.42"/>
</g>
<!-- Relations&#45;&gt;Relation -->
<g id="edge46" class="edge">
<title>Relations&#45;&gt;Relation</title>
<path fill="none" stroke="#b75867" d="M265.99,-297.26C258.66,-294.2 250.95,-290.69 244,-287 222.49,-275.57 199.64,-260.58 181.87,-248.09"/>
<polygon fill="#b75867" stroke="#b75867" points="183.75,-245.13 173.57,-242.18 179.69,-250.83 183.75,-245.13"/>
</g>
<!-- Relations&#45;&gt;Partial order -->
<g id="edge31" class="edge">
<title>Relations&#45;&gt;Partial order</title>
<path fill="none" stroke="#b75867" d="M330.14,-319.53C338.66,-324.24 346.93,-330.61 352,-339 362.07,-355.66 347.64,-498.96 360,-514 370,-526.17 385.54,-532.23 400.89,-535.09"/>
<polygon fill="#b75867" stroke="#b75867" points="400.48,-538.57 410.88,-536.53 401.48,-531.64 400.48,-538.57"/>
</g>
<!-- Relations&#45;&gt;Transitive Relation -->
<g id="edge40" class="edge">
<title>Relations&#45;&gt;Transitive Relation</title>
<path fill="none" stroke="#b75867" d="M330.22,-316.2C338.64,-319.94 346.83,-325.32 352,-333 369.9,-359.58 339.53,-452.34 360,-477 366.66,-485.03 375.73,-490.39 385.55,-493.93"/>
<polygon fill="#b75867" stroke="#b75867" points="384.56,-497.29 395.14,-496.79 386.56,-490.58 384.56,-497.29"/>
</g>
<!-- Relations&#45;&gt;Reflexive Relation -->
<g id="edge45" class="edge">
<title>Relations&#45;&gt;Reflexive Relation</title>
<path fill="none" stroke="#b75867" d="M330.06,-314.47C338.47,-317.74 346.7,-322.65 352,-330 366.34,-349.88 344.19,-421.27 360,-440 367.11,-448.42 376.88,-453.91 387.36,-457.42"/>
<polygon fill="#b75867" stroke="#b75867" points="386.56,-460.83 397.13,-460.13 388.42,-454.08 386.56,-460.83"/>
</g>
<!-- Relations&#45;&gt;Linear order -->
<g id="edge30" class="edge">
<title>Relations&#45;&gt;Linear order</title>
<path fill="none" stroke="#b75867" d="M330.22,-301.64C338.63,-298.37 346.82,-293.44 352,-286 365.27,-266.92 345.31,-95.01 360,-77 369.95,-64.79 385.48,-58.72 400.83,-55.87"/>
<polygon fill="#b75867" stroke="#b75867" points="401.43,-59.32 410.83,-54.43 400.44,-52.39 401.43,-59.32"/>
</g>
<!-- Relations&#45;&gt;Symmetric Closure -->
<g id="edge35" class="edge">
<title>Relations&#45;&gt;Symmetric Closure</title>
<path fill="none" stroke="#b75867" d="M330.08,-300.19C338.08,-296.92 346.09,-292.34 352,-286 359.66,-277.77 351.74,-269.62 360,-262 367.07,-255.48 375.76,-250.81 384.91,-247.47"/>
<polygon fill="#b75867" stroke="#b75867" points="386.06,-250.78 394.57,-244.47 383.98,-244.1 386.06,-250.78"/>
</g>
<!-- Relations&#45;&gt;Symmetric Closure -->
<g id="edge37" class="edge">
<title>Relations&#45;&gt;Symmetric Closure</title>
<path fill="none" stroke="#b75867" d="M330.08,-301.15C338.08,-297.92 346.09,-293.34 352,-287 359.66,-278.77 351.74,-270.62 360,-263 367.07,-256.48 375.76,-251.81 384.91,-248.46"/>
<polygon fill="#b75867" stroke="#b75867" points="386.07,-251.77 394.57,-245.44 383.98,-245.09 386.07,-251.77"/>
</g>
<!-- Relations&#45;&gt;Anti&#45;symmetric Relation -->
<g id="edge42" class="edge">
<title>Relations&#45;&gt;Anti&#45;symmetric Relation</title>
<path fill="none" stroke="#b75867" d="M330.24,-301.66C338.66,-298.39 346.84,-293.46 352,-286 367.55,-263.51 342.78,-61.25 360,-40 363.59,-35.57 367.91,-31.95 372.7,-29"/>
<polygon fill="#b75867" stroke="#b75867" points="374.44,-32.04 381.75,-24.37 371.25,-25.81 374.44,-32.04"/>
</g>
<!-- Relations&#45;&gt;Symmetric Relation -->
<g id="edge43" class="edge">
<title>Relations&#45;&gt;Symmetric Relation</title>
<path fill="none" stroke="#b75867" d="M330.07,-301.22C338.38,-297.95 346.55,-293.12 352,-286 368.63,-264.3 341.76,-245.37 360,-225 366.27,-218 374.37,-213.05 383.14,-209.58"/>
<polygon fill="#b75867" stroke="#b75867" points="384.46,-212.83 392.86,-206.37 382.27,-206.18 384.46,-212.83"/>
</g>
<!-- Relations&#45;&gt;Reflexive Closure -->
<g id="edge36" class="edge">
<title>Relations&#45;&gt;Reflexive Closure</title>
<path fill="none" stroke="#b75867" d="M330.18,-301.58C347.35,-298.04 369.24,-293.53 389.57,-289.34"/>
<polygon fill="#b75867" stroke="#b75867" points="390.31,-292.77 399.4,-287.32 388.9,-285.91 390.31,-292.77"/>
</g>
<!-- Relations&#45;&gt;Reflexive Closure -->
<g id="edge39" class="edge">
<title>Relations&#45;&gt;Reflexive Closure</title>
<path fill="none" stroke="#b75867" d="M330.18,-302.2C347.35,-298.78 369.24,-294.31 389.57,-290.08"/>
<polygon fill="#b75867" stroke="#b75867" points="390.32,-293.5 399.4,-288.03 388.89,-286.65 390.32,-293.5"/>
</g>
<!-- Relations&#45;&gt;Anti&#45;reflexive relation -->
<g id="edge44" class="edge">
<title>Relations&#45;&gt;Anti&#45;reflexive relation</title>
<path fill="none" stroke="#b75867" d="M330.02,-301.5C338.42,-298.23 346.66,-293.33 352,-286 364.86,-268.34 345.83,-204.63 360,-188 365.18,-181.92 371.74,-177.37 378.95,-174"/>
<polygon fill="#b75867" stroke="#b75867" points="380.34,-177.21 388.38,-170.31 377.79,-170.69 380.34,-177.21"/>
</g>
<!-- Relations&#45;&gt;Strongly Anti&#45;symmetric Relation -->
<g id="edge41" class="edge">
<title>Relations&#45;&gt;Strongly Anti&#45;symmetric Relation</title>
<path fill="none" stroke="#b75867" d="M330.12,-301.57C338.53,-298.3 346.75,-293.39 352,-286 367.79,-263.81 345.73,-189.93 358.44,-156.23"/>
<polygon fill="#b75867" stroke="#b75867" points="361.69,-157.59 363.58,-147.17 355.6,-154.14 361.69,-157.59"/>
</g>
<!-- Relations&#45;&gt;Relation of Equivalence -->
<g id="edge33" class="edge">
<title>Relations&#45;&gt;Relation of Equivalence</title>
<path fill="none" stroke="#b75867" d="M330.18,-301.61C338.59,-298.35 346.79,-293.42 352,-286 362.99,-270.34 347.85,-128.78 360,-114 363.91,-109.25 368.66,-105.43 373.91,-102.37"/>
<polygon fill="#b75867" stroke="#b75867" points="375.68,-105.4 383.17,-97.9 372.64,-99.09 375.68,-105.4"/>
</g>
<!-- Linear extension -->
<g id="node20" class="node">
<title>Linear extension</title>
<g id="a_node20"><a xlink:href="/Knowledge/linear_extension.html" xlink:title="Linear extension" target="_parent">
<path fill="#273434" stroke="#b75867" d="M489,-406C489,-406 412,-406 412,-406 406,-406 400,-400 400,-394 400,-394 400,-382 400,-382 400,-376 406,-370 412,-370 412,-370 489,-370 489,-370 495,-370 501,-376 501,-382 501,-382 501,-394 501,-394 501,-400 495,-406 489,-406"/>
<text text-anchor="middle" x="450.5" y="-384.9" font-family="sans" font-size="12.00" fill="#c4c7c7">Linear extension</text>
</a>
</g>
</g>
<!-- Relations&#45;&gt;Linear extension -->
<g id="edge29" class="edge">
<title>Relations&#45;&gt;Linear extension</title>
<path fill="none" stroke="#b75867" d="M330.24,-315.31C338.34,-318.58 346.37,-323.28 352,-330 362.53,-342.56 348.54,-354.28 360,-366 368.13,-374.32 378.87,-379.68 390.06,-383.11"/>
<polygon fill="#b75867" stroke="#b75867" points="389.42,-386.55 399.97,-385.64 391.15,-379.77 389.42,-386.55"/>
</g>
<!-- Class of equivalence -->
<g id="node21" class="node">
<title>Class of equivalence</title>
<g id="a_node21"><a xlink:href="/Knowledge/class_of_equivalence.html" xlink:title="Class of equivalence" target="_parent">
<path fill="#273434" stroke="#b75867" d="M498,-369C498,-369 403,-369 403,-369 397,-369 391,-363 391,-357 391,-357 391,-345 391,-345 391,-339 397,-333 403,-333 403,-333 498,-333 498,-333 504,-333 510,-339 510,-345 510,-345 510,-357 510,-357 510,-363 504,-369 498,-369"/>
<text text-anchor="middle" x="450.5" y="-347.9" font-family="sans" font-size="12.00" fill="#c4c7c7">Class of equivalence</text>
</a>
</g>
</g>
<!-- Relations&#45;&gt;Class of equivalence -->
<g id="edge32" class="edge">
<title>Relations&#45;&gt;Class of equivalence</title>
<path fill="none" stroke="#b75867" d="M330.17,-319.34C339.69,-322.64 350.22,-326.12 360,-329 366.6,-330.94 373.51,-332.85 380.43,-334.69"/>
<polygon fill="#b75867" stroke="#b75867" points="380,-338.19 390.56,-337.32 381.76,-331.42 380,-338.19"/>
</g>
<!-- Transitive Closure -->
<g id="node22" class="node">
<title>Transitive Closure</title>
<g id="a_node22"><a xlink:href="/Knowledge/transitive_closure.html" xlink:title="Transitive Closure" target="_parent">
<path fill="#273434" stroke="#b75867" d="M491.5,-332C491.5,-332 409.5,-332 409.5,-332 403.5,-332 397.5,-326 397.5,-320 397.5,-320 397.5,-308 397.5,-308 397.5,-302 403.5,-296 409.5,-296 409.5,-296 491.5,-296 491.5,-296 497.5,-296 503.5,-302 503.5,-308 503.5,-308 503.5,-320 503.5,-320 503.5,-326 497.5,-332 491.5,-332"/>
<text text-anchor="middle" x="450.5" y="-310.9" font-family="sans" font-size="12.00" fill="#c4c7c7">Transitive Closure</text>
</a>
</g>
</g>
<!-- Relations&#45;&gt;Transitive Closure -->
<g id="edge34" class="edge">
<title>Relations&#45;&gt;Transitive Closure</title>
<path fill="none" stroke="#b75867" d="M330.18,-309.24C346.68,-309.9 367.54,-310.73 387.19,-311.52"/>
<polygon fill="#b75867" stroke="#b75867" points="387.19,-315.02 397.32,-311.92 387.47,-308.02 387.19,-315.02"/>
</g>
<!-- Relations&#45;&gt;Transitive Closure -->
<g id="edge38" class="edge">
<title>Relations&#45;&gt;Transitive Closure</title>
<path fill="none" stroke="#b75867" d="M330.18,-309.86C346.68,-310.63 367.54,-311.5 387.19,-312.26"/>
<polygon fill="#b75867" stroke="#b75867" points="387.19,-315.76 397.32,-312.64 387.46,-308.76 387.19,-315.76"/>
</g>
<!-- Discrete Structures -->
<g id="node23" class="node">
<title>Discrete Structures</title>
<g id="a_node23"><a xlink:href="/Knowledge/discrete_structures.html" xlink:title="Discrete Structures" target="_parent">
<path fill="none" stroke="#b75867" d="M494,-443C494,-443 407,-443 407,-443 401,-443 395,-437 395,-431 395,-431 395,-419 395,-419 395,-413 401,-407 407,-407 407,-407 494,-407 494,-407 500,-407 506,-413 506,-419 506,-419 506,-431 506,-431 506,-437 500,-443 494,-443"/>
<text text-anchor="middle" x="450.5" y="-421.9" font-family="sans" font-size="12.00" fill="#c4c7c7">Discrete Structures</text>
</a>
</g>
</g>
<!-- Relations&#45;&gt;Discrete Structures -->
<g id="edge47" class="edge">
<title>Relations&#45;&gt;Discrete Structures</title>
<path fill="none" stroke="#ffffff" d="M339.31,-319.09C344.2,-321.94 348.64,-325.52 352,-330 371.58,-356.12 338.49,-378.45 360,-403 368.86,-413.11 381.54,-418.95 394.58,-422.24"/>
<polygon fill="#ffffff" stroke="#ffffff" points="340.7,-315.88 330.17,-314.7 337.67,-322.19 340.7,-315.88"/>
</g>
</g>
</svg>
