<?xml version="1.0" encoding="UTF-8" standalone="no"?>
<!DOCTYPE svg PUBLIC "-//W3C//DTD SVG 1.1//EN"
 "http://www.w3.org/Graphics/SVG/1.1/DTD/svg11.dtd">
<!-- Generated by graphviz version 2.44.0 (0)
 -->
<!-- Title: Combinatorics Pages: 1 -->
<svg width="488pt" height="488pt"
 viewBox="0.00 0.00 488.00 488.00" xmlns="http://www.w3.org/2000/svg" xmlns:xlink="http://www.w3.org/1999/xlink">
<g id="graph0" class="graph" transform="scale(1 1) rotate(0) translate(4 484)">
<title>Combinatorics</title>
<polygon fill="#132020" stroke="transparent" points="-4,4 -4,-484 484,-484 484,4 -4,4"/>
<!-- Combinatorics -->
<g id="node1" class="node">
<title>Combinatorics</title>
<g id="a_node1"><a xlink:href="../Combinatorics.html" xlink:title="Combinatorics" target="_parent">
<path fill="#273434" stroke="#b75867" d="M86,-258C86,-258 12,-258 12,-258 6,-258 0,-252 0,-246 0,-246 0,-234 0,-234 0,-228 6,-222 12,-222 12,-222 86,-222 86,-222 92,-222 98,-228 98,-234 98,-234 98,-246 98,-246 98,-252 92,-258 86,-258"/>
<text text-anchor="middle" x="49" y="-236.9" font-family="sans" font-size="12.00" fill="#c4c7c7">Combinatorics</text>
</a>
</g>
</g>
<!-- Combinatoric principles -->
<g id="node2" class="node">
<title>Combinatoric principles</title>
<g id="a_node2"><a xlink:href="../Combinatoric principles.html" xlink:title="Combinatoric principles" target="_parent">
<path fill="#273434" stroke="#b75867" d="M245,-350C245,-350 118,-350 118,-350 112,-350 106,-344 106,-338 106,-338 106,-326 106,-326 106,-320 112,-314 118,-314 118,-314 245,-314 245,-314 251,-314 257,-320 257,-326 257,-326 257,-338 257,-338 257,-344 251,-350 245,-350"/>
<text text-anchor="middle" x="181.5" y="-328.9" font-family="sans" font-size="12.00" fill="#c4c7c7">Combinatoric principles</text>
</a>
</g>
</g>
<!-- Combinatorics&#45;&gt;Combinatoric principles -->
<g id="edge1" class="edge">
<title>Combinatorics&#45;&gt;Combinatoric principles</title>
<path fill="none" stroke="#b75867" d="M75.78,-258.18C95.98,-272.42 124.26,-292.35 146.34,-307.92"/>
<polygon fill="#b75867" stroke="#b75867" points="144.58,-310.96 154.77,-313.86 148.61,-305.24 144.58,-310.96"/>
</g>
<!-- Discrete Structures -->
<g id="node3" class="node">
<title>Discrete Structures</title>
<g id="a_node3"><a xlink:href="../Discrete Structures.html" xlink:title="Discrete Structures" target="_parent">
<path fill="none" stroke="#b75867" d="M230.5,-184C230.5,-184 132.5,-184 132.5,-184 126.5,-184 120.5,-178 120.5,-172 120.5,-172 120.5,-160 120.5,-160 120.5,-154 126.5,-148 132.5,-148 132.5,-148 230.5,-148 230.5,-148 236.5,-148 242.5,-154 242.5,-160 242.5,-160 242.5,-172 242.5,-172 242.5,-178 236.5,-184 230.5,-184"/>
<text text-anchor="middle" x="181.5" y="-162.9" font-family="sans" font-size="12.00" fill="#c4c7c7">Discrete Structures</text>
</a>
</g>
</g>
<!-- Combinatorics&#45;&gt;Discrete Structures -->
<g id="edge2" class="edge">
<title>Combinatorics&#45;&gt;Discrete Structures</title>
<path fill="none" stroke="#ffffff" d="M90.77,-216.88C109.36,-206.34 131.05,-194.04 148.45,-184.17"/>
<polygon fill="#ffffff" stroke="#ffffff" points="88.9,-213.92 81.92,-221.9 92.35,-220.01 88.9,-213.92"/>
</g>
<!-- Combinatoric principles&#45;&gt;Combinatorics -->
<g id="edge9" class="edge">
<title>Combinatoric principles&#45;&gt;Combinatorics</title>
<path fill="none" stroke="#ffffff" d="M145.72,-308.15C123.39,-292.53 94.92,-272.44 74.85,-258.12"/>
<polygon fill="#ffffff" stroke="#ffffff" points="143.74,-311.04 153.95,-313.9 147.75,-305.3 143.74,-311.04"/>
</g>
<!-- Principle of inclusion and exclusion -->
<g id="node4" class="node">
<title>Principle of inclusion and exclusion</title>
<g id="a_node4"><a xlink:href="../Principle of inclusion and exclusion.html" xlink:title="Principle of inclusion and exclusion" target="_parent">
<path fill="#273434" stroke="#b75867" d="M468,-480C468,-480 277,-480 277,-480 271,-480 265,-474 265,-468 265,-468 265,-456 265,-456 265,-450 271,-444 277,-444 277,-444 468,-444 468,-444 474,-444 480,-450 480,-456 480,-456 480,-468 480,-468 480,-474 474,-480 468,-480"/>
<text text-anchor="middle" x="372.5" y="-458.9" font-family="sans" font-size="12.00" fill="#c4c7c7">Principle of inclusion and exclusion</text>
</a>
</g>
</g>
<!-- Combinatoric principles&#45;&gt;Principle of inclusion and exclusion -->
<g id="edge3" class="edge">
<title>Combinatoric principles&#45;&gt;Principle of inclusion and exclusion</title>
<path fill="none" stroke="#b75867" d="M191.12,-350.16C202.85,-372.93 226.06,-411.81 263.24,-438.2"/>
<polygon fill="#b75867" stroke="#b75867" points="261.65,-441.34 271.92,-443.96 265.53,-435.51 261.65,-441.34"/>
</g>
<!-- Principle of division -->
<g id="node5" class="node">
<title>Principle of division</title>
<g id="a_node5"><a xlink:href="../Principle of division.html" xlink:title="Principle of division" target="_parent">
<path fill="#273434" stroke="#b75867" d="M423.5,-443C423.5,-443 321.5,-443 321.5,-443 315.5,-443 309.5,-437 309.5,-431 309.5,-431 309.5,-419 309.5,-419 309.5,-413 315.5,-407 321.5,-407 321.5,-407 423.5,-407 423.5,-407 429.5,-407 435.5,-413 435.5,-419 435.5,-419 435.5,-431 435.5,-431 435.5,-437 429.5,-443 423.5,-443"/>
<text text-anchor="middle" x="372.5" y="-421.9" font-family="sans" font-size="12.00" fill="#c4c7c7">Principle of division</text>
</a>
</g>
</g>
<!-- Combinatoric principles&#45;&gt;Principle of division -->
<g id="edge4" class="edge">
<title>Combinatoric principles&#45;&gt;Principle of division</title>
<path fill="none" stroke="#b75867" d="M198.32,-350.08C213.7,-366.47 238.55,-389.99 265,-403 275.72,-408.27 287.65,-412.28 299.53,-415.33"/>
<polygon fill="#b75867" stroke="#b75867" points="298.94,-418.79 309.48,-417.68 300.55,-411.98 298.94,-418.79"/>
</g>
<!-- Principle of the bijection -->
<g id="node6" class="node">
<title>Principle of the bijection</title>
<g id="a_node6"><a xlink:href="../Principle of the bijection.html" xlink:title="Principle of the bijection" target="_parent">
<path fill="#273434" stroke="#b75867" d="M437.5,-406C437.5,-406 307.5,-406 307.5,-406 301.5,-406 295.5,-400 295.5,-394 295.5,-394 295.5,-382 295.5,-382 295.5,-376 301.5,-370 307.5,-370 307.5,-370 437.5,-370 437.5,-370 443.5,-370 449.5,-376 449.5,-382 449.5,-382 449.5,-394 449.5,-394 449.5,-400 443.5,-406 437.5,-406"/>
<text text-anchor="middle" x="372.5" y="-384.9" font-family="sans" font-size="12.00" fill="#c4c7c7">Principle of the bijection</text>
</a>
</g>
</g>
<!-- Combinatoric principles&#45;&gt;Principle of the bijection -->
<g id="edge5" class="edge">
<title>Combinatoric principles&#45;&gt;Principle of the bijection</title>
<path fill="none" stroke="#b75867" d="M222.23,-350.14C235.62,-355.77 250.78,-361.64 265,-366 271.55,-368.01 278.38,-369.89 285.28,-371.63"/>
<polygon fill="#b75867" stroke="#b75867" points="284.88,-375.14 295.42,-374.1 286.54,-368.34 284.88,-375.14"/>
</g>
<!-- Principle of products -->
<g id="node7" class="node">
<title>Principle of products</title>
<g id="a_node7"><a xlink:href="../Principle of products.html" xlink:title="Principle of products" target="_parent">
<path fill="#273434" stroke="#b75867" d="M427.5,-369C427.5,-369 317.5,-369 317.5,-369 311.5,-369 305.5,-363 305.5,-357 305.5,-357 305.5,-345 305.5,-345 305.5,-339 311.5,-333 317.5,-333 317.5,-333 427.5,-333 427.5,-333 433.5,-333 439.5,-339 439.5,-345 439.5,-345 439.5,-357 439.5,-357 439.5,-363 433.5,-369 427.5,-369"/>
<text text-anchor="middle" x="372.5" y="-347.9" font-family="sans" font-size="12.00" fill="#c4c7c7">Principle of products</text>
</a>
</g>
</g>
<!-- Combinatoric principles&#45;&gt;Principle of products -->
<g id="edge6" class="edge">
<title>Combinatoric principles&#45;&gt;Principle of products</title>
<path fill="none" stroke="#b75867" d="M257.2,-339.51C269.74,-340.77 282.76,-342.08 295.34,-343.34"/>
<polygon fill="#b75867" stroke="#b75867" points="295.01,-346.83 305.31,-344.35 295.71,-339.86 295.01,-346.83"/>
</g>
<!-- Principle of partitions -->
<g id="node8" class="node">
<title>Principle of partitions</title>
<g id="a_node8"><a xlink:href="../Principle of partitions.html" xlink:title="Principle of partitions" target="_parent">
<path fill="#273434" stroke="#b75867" d="M429,-332C429,-332 316,-332 316,-332 310,-332 304,-326 304,-320 304,-320 304,-308 304,-308 304,-302 310,-296 316,-296 316,-296 429,-296 429,-296 435,-296 441,-302 441,-308 441,-308 441,-320 441,-320 441,-326 435,-332 429,-332"/>
<text text-anchor="middle" x="372.5" y="-310.9" font-family="sans" font-size="12.00" fill="#c4c7c7">Principle of partitions</text>
</a>
</g>
</g>
<!-- Combinatoric principles&#45;&gt;Principle of partitions -->
<g id="edge7" class="edge">
<title>Combinatoric principles&#45;&gt;Principle of partitions</title>
<path fill="none" stroke="#b75867" d="M257.2,-324.89C269.21,-323.74 281.67,-322.56 293.75,-321.41"/>
<polygon fill="#b75867" stroke="#b75867" points="294.16,-324.88 303.79,-320.45 293.5,-317.91 294.16,-324.88"/>
</g>
<!-- Dirichlet principle -->
<g id="node9" class="node">
<title>Dirichlet principle</title>
<g id="a_node9"><a xlink:href="../Dirichlet principle.html" xlink:title="Dirichlet principle" target="_parent">
<path fill="#273434" stroke="#b75867" d="M418.5,-295C418.5,-295 326.5,-295 326.5,-295 320.5,-295 314.5,-289 314.5,-283 314.5,-283 314.5,-271 314.5,-271 314.5,-265 320.5,-259 326.5,-259 326.5,-259 418.5,-259 418.5,-259 424.5,-259 430.5,-265 430.5,-271 430.5,-271 430.5,-283 430.5,-283 430.5,-289 424.5,-295 418.5,-295"/>
<text text-anchor="middle" x="372.5" y="-273.9" font-family="sans" font-size="12.00" fill="#c4c7c7">Dirichlet principle</text>
</a>
</g>
</g>
<!-- Combinatoric principles&#45;&gt;Dirichlet principle -->
<g id="edge8" class="edge">
<title>Combinatoric principles&#45;&gt;Dirichlet principle</title>
<path fill="none" stroke="#b75867" d="M223.54,-313.93C236.62,-308.62 251.26,-303.13 265,-299 277.61,-295.21 291.25,-291.85 304.42,-288.97"/>
<polygon fill="#b75867" stroke="#b75867" points="305.32,-292.36 314.38,-286.86 303.87,-285.51 305.32,-292.36"/>
</g>
<!-- Discrete Structures&#45;&gt;Combinatorics -->
<g id="edge11" class="edge">
<title>Discrete Structures&#45;&gt;Combinatorics</title>
<path fill="none" stroke="#b75867" d="M149.82,-184.04C132.55,-193.95 110.73,-206.34 91.9,-216.95"/>
<polygon fill="#b75867" stroke="#b75867" points="89.93,-214.04 82.93,-221.99 93.36,-220.14 89.93,-214.04"/>
</g>
<!-- Recurrent Equations -->
<g id="node10" class="node">
<title>Recurrent Equations</title>
<g id="a_node10"><a xlink:href="../Recurrent Equations.html" xlink:title="Recurrent Equations" target="_parent">
<path fill="#273434" stroke="#b75867" d="M426,-258C426,-258 319,-258 319,-258 313,-258 307,-252 307,-246 307,-246 307,-234 307,-234 307,-228 313,-222 319,-222 319,-222 426,-222 426,-222 432,-222 438,-228 438,-234 438,-234 438,-246 438,-246 438,-252 432,-258 426,-258"/>
<text text-anchor="middle" x="372.5" y="-236.9" font-family="sans" font-size="12.00" fill="#c4c7c7">Recurrent Equations</text>
</a>
</g>
</g>
<!-- Discrete Structures&#45;&gt;Recurrent Equations -->
<g id="edge10" class="edge">
<title>Discrete Structures&#45;&gt;Recurrent Equations</title>
<path fill="none" stroke="#b75867" d="M206.16,-184.14C222.02,-195.46 243.8,-209.46 265,-218 275.06,-222.05 285.96,-225.39 296.82,-228.14"/>
<polygon fill="#b75867" stroke="#b75867" points="296.23,-231.59 306.76,-230.5 297.84,-224.78 296.23,-231.59"/>
</g>
<!-- Functions -->
<g id="node11" class="node">
<title>Functions</title>
<g id="a_node11"><a xlink:href="../Functions.html" xlink:title="Functions" target="_parent">
<path fill="#273434" stroke="#b75867" d="M396.5,-221C396.5,-221 348.5,-221 348.5,-221 342.5,-221 336.5,-215 336.5,-209 336.5,-209 336.5,-197 336.5,-197 336.5,-191 342.5,-185 348.5,-185 348.5,-185 396.5,-185 396.5,-185 402.5,-185 408.5,-191 408.5,-197 408.5,-197 408.5,-209 408.5,-209 408.5,-215 402.5,-221 396.5,-221"/>
<text text-anchor="middle" x="372.5" y="-199.9" font-family="sans" font-size="12.00" fill="#c4c7c7">Functions</text>
</a>
</g>
</g>
<!-- Discrete Structures&#45;&gt;Functions -->
<g id="edge12" class="edge">
<title>Discrete Structures&#45;&gt;Functions</title>
<path fill="none" stroke="#b75867" d="M242.56,-177.76C269.73,-183.08 301.3,-189.26 326.4,-194.17"/>
<polygon fill="#b75867" stroke="#b75867" points="325.89,-197.64 336.38,-196.12 327.24,-190.77 325.89,-197.64"/>
</g>
<!-- Relations -->
<g id="node12" class="node">
<title>Relations</title>
<g id="a_node12"><a xlink:href="../Relations.html" xlink:title="Relations" target="_parent">
<path fill="#273434" stroke="#b75867" d="M395,-184C395,-184 350,-184 350,-184 344,-184 338,-178 338,-172 338,-172 338,-160 338,-160 338,-154 344,-148 350,-148 350,-148 395,-148 395,-148 401,-148 407,-154 407,-160 407,-160 407,-172 407,-172 407,-178 401,-184 395,-184"/>
<text text-anchor="middle" x="372.5" y="-162.9" font-family="sans" font-size="12.00" fill="#c4c7c7">Relations</text>
</a>
</g>
</g>
<!-- Discrete Structures&#45;&gt;Relations -->
<g id="edge13" class="edge">
<title>Discrete Structures&#45;&gt;Relations</title>
<path fill="none" stroke="#b75867" d="M242.56,-166C270.21,-166 302.41,-166 327.71,-166"/>
<polygon fill="#b75867" stroke="#b75867" points="327.75,-169.5 337.75,-166 327.75,-162.5 327.75,-169.5"/>
</g>
<!-- Logical Equivalences -->
<g id="node13" class="node">
<title>Logical Equivalences</title>
<g id="a_node13"><a xlink:href="../Logical Equivalences.html" xlink:title="Logical Equivalences" target="_parent">
<path fill="#273434" stroke="#b75867" d="M427,-147C427,-147 318,-147 318,-147 312,-147 306,-141 306,-135 306,-135 306,-123 306,-123 306,-117 312,-111 318,-111 318,-111 427,-111 427,-111 433,-111 439,-117 439,-123 439,-123 439,-135 439,-135 439,-141 433,-147 427,-147"/>
<text text-anchor="middle" x="372.5" y="-125.9" font-family="sans" font-size="12.00" fill="#c4c7c7">Logical Equivalences</text>
</a>
</g>
</g>
<!-- Discrete Structures&#45;&gt;Logical Equivalences -->
<g id="edge14" class="edge">
<title>Discrete Structures&#45;&gt;Logical Equivalences</title>
<path fill="none" stroke="#b75867" d="M242.56,-154.24C259.37,-150.95 277.86,-147.33 295.46,-143.89"/>
<polygon fill="#b75867" stroke="#b75867" points="296.56,-147.24 305.7,-141.88 295.21,-140.37 296.56,-147.24"/>
</g>
<!-- Logical Operators -->
<g id="node14" class="node">
<title>Logical Operators</title>
<g id="a_node14"><a xlink:href="../Logical Operators.html" xlink:title="Logical Operators" target="_parent">
<path fill="#273434" stroke="#b75867" d="M418.5,-110C418.5,-110 326.5,-110 326.5,-110 320.5,-110 314.5,-104 314.5,-98 314.5,-98 314.5,-86 314.5,-86 314.5,-80 320.5,-74 326.5,-74 326.5,-74 418.5,-74 418.5,-74 424.5,-74 430.5,-80 430.5,-86 430.5,-86 430.5,-98 430.5,-98 430.5,-104 424.5,-110 418.5,-110"/>
<text text-anchor="middle" x="372.5" y="-88.9" font-family="sans" font-size="12.00" fill="#c4c7c7">Logical Operators</text>
</a>
</g>
</g>
<!-- Discrete Structures&#45;&gt;Logical Operators -->
<g id="edge15" class="edge">
<title>Discrete Structures&#45;&gt;Logical Operators</title>
<path fill="none" stroke="#b75867" d="M206.16,-147.86C222.02,-136.54 243.8,-122.54 265,-114 277.35,-109.02 290.98,-105.12 304.24,-102.07"/>
<polygon fill="#b75867" stroke="#b75867" points="305.25,-105.44 314.29,-99.91 303.77,-98.59 305.25,-105.44"/>
</g>
<!-- Subjects -->
<g id="node15" class="node">
<title>Subjects</title>
<g id="a_node15"><a xlink:href="../Subjects.html" xlink:title="Subjects" target="_parent">
<path fill="none" stroke="#b75867" d="M393,-73C393,-73 352,-73 352,-73 346,-73 340,-67 340,-61 340,-61 340,-49 340,-49 340,-43 346,-37 352,-37 352,-37 393,-37 393,-37 399,-37 405,-43 405,-49 405,-49 405,-61 405,-61 405,-67 399,-73 393,-73"/>
<text text-anchor="middle" x="372.5" y="-51.9" font-family="sans" font-size="12.00" fill="#c4c7c7">Subjects</text>
</a>
</g>
</g>
<!-- Discrete Structures&#45;&gt;Subjects -->
<g id="edge16" class="edge">
<title>Discrete Structures&#45;&gt;Subjects</title>
<path fill="none" stroke="#ffffff" d="M199.96,-139.61C214.83,-119.3 238.02,-92.21 265,-77 288.02,-64.02 317.72,-58.65 339.9,-56.46"/>
<polygon fill="#ffffff" stroke="#ffffff" points="197.05,-137.66 194.11,-147.84 202.76,-141.72 197.05,-137.66"/>
</g>
<!-- Knowledege Base -->
<g id="node16" class="node">
<title>Knowledege Base</title>
<g id="a_node16"><a xlink:href="../Knowledege Base.html" xlink:title="Knowledege Base" target="_parent">
<path fill="none" stroke="#b75867" d="M419,-36C419,-36 326,-36 326,-36 320,-36 314,-30 314,-24 314,-24 314,-12 314,-12 314,-6 320,0 326,0 326,0 419,0 419,0 425,0 431,-6 431,-12 431,-12 431,-24 431,-24 431,-30 425,-36 419,-36"/>
<text text-anchor="middle" x="372.5" y="-14.9" font-family="sans" font-size="12.00" fill="#c4c7c7">Knowledege Base</text>
</a>
</g>
</g>
<!-- Discrete Structures&#45;&gt;Knowledege Base -->
<g id="edge17" class="edge">
<title>Discrete Structures&#45;&gt;Knowledege Base</title>
<path fill="none" stroke="#ffffff" d="M193.14,-138.06C205.75,-108.88 229.61,-64.08 265,-40 279.28,-30.28 296.96,-24.7 313.78,-21.54"/>
<polygon fill="#ffffff" stroke="#ffffff" points="189.75,-137.09 189.15,-147.67 196.22,-139.78 189.75,-137.09"/>
</g>
</g>
</svg>
