<?xml version="1.0" encoding="UTF-8" standalone="no"?>
<!DOCTYPE svg PUBLIC "-//W3C//DTD SVG 1.1//EN"
 "http://www.w3.org/Graphics/SVG/1.1/DTD/svg11.dtd">
<!-- Generated by graphviz version 2.46.1 (0)
 -->
<!-- Title: Combinatoric principles Pages: 1 -->
<svg width="491pt" height="284pt"
 viewBox="0.00 0.00 491.00 284.00" xmlns="http://www.w3.org/2000/svg" xmlns:xlink="http://www.w3.org/1999/xlink">
<g id="graph0" class="graph" transform="scale(1 1) rotate(0) translate(4 280)">
<title>Combinatoric principles</title>
<polygon fill="#132020" stroke="transparent" points="-4,4 -4,-280 487,-280 487,4 -4,4"/>
<!-- Combinatoric principles -->
<g id="node1" class="node">
<title>Combinatoric principles</title>
<g id="a_node1"><a xlink:href="/Knowledge/combinatoric_principles.html" xlink:title="Combinatoric principles" target="_parent">
<path fill="#273434" stroke="#b75867" d="M126,-147C126,-147 12,-147 12,-147 6,-147 0,-141 0,-135 0,-135 0,-123 0,-123 0,-117 6,-111 12,-111 12,-111 126,-111 126,-111 132,-111 138,-117 138,-123 138,-123 138,-135 138,-135 138,-141 132,-147 126,-147"/>
<text text-anchor="middle" x="69" y="-125.9" font-family="sans" font-size="12.00" fill="#c4c7c7">Combinatoric principles</text>
</a>
</g>
</g>
<!-- Principle of inclusion and exclusion -->
<g id="node2" class="node">
<title>Principle of inclusion and exclusion</title>
<g id="a_node2"><a xlink:href="/Knowledge/principle_of_inclusion_and_exclusion.html" xlink:title="Principle of inclusion and exclusion" target="_parent">
<path fill="#273434" stroke="#b75867" d="M329,-184C329,-184 158,-184 158,-184 152,-184 146,-178 146,-172 146,-172 146,-160 146,-160 146,-154 152,-148 158,-148 158,-148 329,-148 329,-148 335,-148 341,-154 341,-160 341,-160 341,-172 341,-172 341,-178 335,-184 329,-184"/>
<text text-anchor="middle" x="243.5" y="-162.9" font-family="sans" font-size="12.00" fill="#c4c7c7">Principle of inclusion and exclusion</text>
</a>
</g>
</g>
<!-- Combinatoric principles&#45;&gt;Principle of inclusion and exclusion -->
<g id="edge1" class="edge">
<title>Combinatoric principles&#45;&gt;Principle of inclusion and exclusion</title>
<path fill="none" stroke="#b75867" d="M138.18,-143.62C141.62,-144.36 145.11,-145.11 148.62,-145.86"/>
<polygon fill="#b75867" stroke="#b75867" points="148.01,-149.31 158.52,-147.99 149.48,-142.47 148.01,-149.31"/>
</g>
<!-- Principle of division -->
<g id="node3" class="node">
<title>Principle of division</title>
<g id="a_node3"><a xlink:href="/Knowledge/principle_of_division.html" xlink:title="Principle of division" target="_parent">
<path fill="#273434" stroke="#b75867" d="M289.5,-258C289.5,-258 197.5,-258 197.5,-258 191.5,-258 185.5,-252 185.5,-246 185.5,-246 185.5,-234 185.5,-234 185.5,-228 191.5,-222 197.5,-222 197.5,-222 289.5,-222 289.5,-222 295.5,-222 301.5,-228 301.5,-234 301.5,-234 301.5,-246 301.5,-246 301.5,-252 295.5,-258 289.5,-258"/>
<text text-anchor="middle" x="243.5" y="-236.9" font-family="sans" font-size="12.00" fill="#c4c7c7">Principle of division</text>
</a>
</g>
</g>
<!-- Combinatoric principles&#45;&gt;Principle of division -->
<g id="edge2" class="edge">
<title>Combinatoric principles&#45;&gt;Principle of division</title>
<path fill="none" stroke="#b75867" d="M80.41,-147.06C93.19,-167.52 116.79,-200.33 146,-218 154.97,-223.43 165.14,-227.52 175.44,-230.6"/>
<polygon fill="#b75867" stroke="#b75867" points="174.75,-234.03 185.31,-233.25 176.56,-227.28 174.75,-234.03"/>
</g>
<!-- Principle of the bijection -->
<g id="node4" class="node">
<title>Principle of the bijection</title>
<g id="a_node4"><a xlink:href="/Knowledge/principle_of_the_bijection.html" xlink:title="Principle of the bijection" target="_parent">
<path fill="#273434" stroke="#b75867" d="M301.5,-147C301.5,-147 185.5,-147 185.5,-147 179.5,-147 173.5,-141 173.5,-135 173.5,-135 173.5,-123 173.5,-123 173.5,-117 179.5,-111 185.5,-111 185.5,-111 301.5,-111 301.5,-111 307.5,-111 313.5,-117 313.5,-123 313.5,-123 313.5,-135 313.5,-135 313.5,-141 307.5,-147 301.5,-147"/>
<text text-anchor="middle" x="243.5" y="-125.9" font-family="sans" font-size="12.00" fill="#c4c7c7">Principle of the bijection</text>
</a>
</g>
</g>
<!-- Combinatoric principles&#45;&gt;Principle of the bijection -->
<g id="edge3" class="edge">
<title>Combinatoric principles&#45;&gt;Principle of the bijection</title>
<path fill="none" stroke="#b75867" d="M138.18,-129C146.41,-129 154.88,-129 163.25,-129"/>
<polygon fill="#b75867" stroke="#b75867" points="163.41,-132.5 173.41,-129 163.41,-125.5 163.41,-132.5"/>
</g>
<!-- Principle of products -->
<g id="node5" class="node">
<title>Principle of products</title>
<g id="a_node5"><a xlink:href="/Knowledge/principle_of_products.html" xlink:title="Principle of products" target="_parent">
<path fill="#273434" stroke="#b75867" d="M292.5,-221C292.5,-221 194.5,-221 194.5,-221 188.5,-221 182.5,-215 182.5,-209 182.5,-209 182.5,-197 182.5,-197 182.5,-191 188.5,-185 194.5,-185 194.5,-185 292.5,-185 292.5,-185 298.5,-185 304.5,-191 304.5,-197 304.5,-197 304.5,-209 304.5,-209 304.5,-215 298.5,-221 292.5,-221"/>
<text text-anchor="middle" x="243.5" y="-199.9" font-family="sans" font-size="12.00" fill="#c4c7c7">Principle of products</text>
</a>
</g>
</g>
<!-- Combinatoric principles&#45;&gt;Principle of products -->
<g id="edge4" class="edge">
<title>Combinatoric principles&#45;&gt;Principle of products</title>
<path fill="none" stroke="#b75867" d="M91.63,-147.08C106.17,-158.37 126.22,-172.36 146,-181 154.38,-184.66 163.45,-187.76 172.56,-190.36"/>
<polygon fill="#b75867" stroke="#b75867" points="171.87,-193.79 182.43,-192.99 173.67,-187.03 171.87,-193.79"/>
</g>
<!-- Principle of partitions -->
<g id="node6" class="node">
<title>Principle of partitions</title>
<g id="a_node6"><a xlink:href="/Knowledge/principle_of_partitions.html" xlink:title="Principle of partitions" target="_parent">
<path fill="#273434" stroke="#b75867" d="M294.5,-110C294.5,-110 192.5,-110 192.5,-110 186.5,-110 180.5,-104 180.5,-98 180.5,-98 180.5,-86 180.5,-86 180.5,-80 186.5,-74 192.5,-74 192.5,-74 294.5,-74 294.5,-74 300.5,-74 306.5,-80 306.5,-86 306.5,-86 306.5,-98 306.5,-98 306.5,-104 300.5,-110 294.5,-110"/>
<text text-anchor="middle" x="243.5" y="-88.9" font-family="sans" font-size="12.00" fill="#c4c7c7">Principle of partitions</text>
</a>
</g>
</g>
<!-- Combinatoric principles&#45;&gt;Principle of partitions -->
<g id="edge5" class="edge">
<title>Combinatoric principles&#45;&gt;Principle of partitions</title>
<path fill="none" stroke="#b75867" d="M138.18,-114.38C148.74,-112.11 159.68,-109.76 170.33,-107.48"/>
<polygon fill="#b75867" stroke="#b75867" points="171.38,-110.83 180.42,-105.32 169.91,-103.99 171.38,-110.83"/>
</g>
<!-- Dirichlet principle -->
<g id="node7" class="node">
<title>Dirichlet principle</title>
<g id="a_node7"><a xlink:href="/Knowledge/dirichlet_principle.html" xlink:title="Dirichlet principle" target="_parent">
<path fill="#273434" stroke="#b75867" d="M285,-73C285,-73 202,-73 202,-73 196,-73 190,-67 190,-61 190,-61 190,-49 190,-49 190,-43 196,-37 202,-37 202,-37 285,-37 285,-37 291,-37 297,-43 297,-49 297,-49 297,-61 297,-61 297,-67 291,-73 285,-73"/>
<text text-anchor="middle" x="243.5" y="-51.9" font-family="sans" font-size="12.00" fill="#c4c7c7">Dirichlet principle</text>
</a>
</g>
</g>
<!-- Combinatoric principles&#45;&gt;Dirichlet principle -->
<g id="edge6" class="edge">
<title>Combinatoric principles&#45;&gt;Dirichlet principle</title>
<path fill="none" stroke="#b75867" d="M91.63,-110.92C106.17,-99.63 126.22,-85.64 146,-77 156.59,-72.37 168.29,-68.65 179.77,-65.69"/>
<polygon fill="#b75867" stroke="#b75867" points="180.87,-69.02 189.77,-63.28 179.23,-62.22 180.87,-69.02"/>
</g>
<!-- Combinatorics -->
<g id="node8" class="node">
<title>Combinatorics</title>
<g id="a_node8"><a xlink:href="/Knowledge/combinatorics.html" xlink:title="Combinatorics" target="_parent">
<path fill="none" stroke="#b75867" d="M277,-36C277,-36 210,-36 210,-36 204,-36 198,-30 198,-24 198,-24 198,-12 198,-12 198,-6 204,0 210,0 210,0 277,0 277,0 283,0 289,-6 289,-12 289,-12 289,-24 289,-24 289,-30 283,-36 277,-36"/>
<text text-anchor="middle" x="243.5" y="-14.9" font-family="sans" font-size="12.00" fill="#c4c7c7">Combinatorics</text>
</a>
</g>
</g>
<!-- Combinatoric principles&#45;&gt;Combinatorics -->
<g id="edge7" class="edge">
<title>Combinatoric principles&#45;&gt;Combinatorics</title>
<path fill="none" stroke="#ffffff" d="M85.88,-102.47C99.37,-82.27 120.56,-55.39 146,-40 161.58,-30.57 180.81,-25.18 197.98,-22.1"/>
<polygon fill="#ffffff" stroke="#ffffff" points="82.9,-100.64 80.41,-110.94 88.78,-104.44 82.9,-100.64"/>
</g>
<!-- Principle of inclusion and exclusion&#45;&gt;Combinatoric principles -->
<g id="edge9" class="edge">
<title>Principle of inclusion and exclusion&#45;&gt;Combinatoric principles</title>
<path fill="none" stroke="#ffffff" d="M145.26,-145.89C142.88,-145.38 140.52,-144.87 138.18,-144.36"/>
<polygon fill="#ffffff" stroke="#ffffff" points="144.55,-149.31 155.06,-148 146.02,-142.47 144.55,-149.31"/>
</g>
<!-- Set -->
<g id="node9" class="node">
<title>Set</title>
<g id="a_node9"><a xlink:href="/Knowledge/set.html" xlink:title="Set" target="_parent">
<path fill="#273434" stroke="#b75867" d="M431,-184C431,-184 401,-184 401,-184 395,-184 389,-178 389,-172 389,-172 389,-160 389,-160 389,-154 395,-148 401,-148 401,-148 431,-148 431,-148 437,-148 443,-154 443,-160 443,-160 443,-172 443,-172 443,-178 437,-184 431,-184"/>
<text text-anchor="middle" x="416" y="-162.9" font-family="sans" font-size="12.00" fill="#c4c7c7">Set</text>
</a>
</g>
</g>
<!-- Principle of inclusion and exclusion&#45;&gt;Set -->
<g id="edge8" class="edge">
<title>Principle of inclusion and exclusion&#45;&gt;Set</title>
<path fill="none" stroke="#b75867" d="M341.21,-166C354.54,-166 367.48,-166 378.72,-166"/>
<polygon fill="#b75867" stroke="#b75867" points="378.91,-169.5 388.91,-166 378.91,-162.5 378.91,-169.5"/>
</g>
<!-- Principle of division&#45;&gt;Combinatoric principles -->
<g id="edge13" class="edge">
<title>Principle of division&#45;&gt;Combinatoric principles</title>
<path fill="none" stroke="#ffffff" d="M175.44,-231.58C165.14,-228.52 154.97,-224.43 146,-219 116.45,-201.12 92.63,-167.74 79.96,-147.04"/>
<polygon fill="#ffffff" stroke="#ffffff" points="174.75,-235.02 185.31,-234.22 176.55,-228.26 174.75,-235.02"/>
</g>
<!-- Principle of division&#45;&gt;Set -->
<g id="edge12" class="edge">
<title>Principle of division&#45;&gt;Set</title>
<path fill="none" stroke="#b75867" d="M301.62,-235.3C315.54,-232.02 329.67,-226.66 341,-218 347,-213.41 343.71,-208.4 349,-203 357.67,-194.14 368.92,-186.79 379.66,-181.03"/>
<polygon fill="#b75867" stroke="#b75867" points="381.54,-184.01 388.9,-176.39 378.39,-177.75 381.54,-184.01"/>
</g>
<!-- Class of equivalence -->
<g id="node10" class="node">
<title>Class of equivalence</title>
<g id="a_node10"><a xlink:href="/Knowledge/class_of_equivalence.html" xlink:title="Class of equivalence" target="_parent">
<path fill="#273434" stroke="#b75867" d="M463.5,-239C463.5,-239 368.5,-239 368.5,-239 362.5,-239 356.5,-233 356.5,-227 356.5,-227 356.5,-215 356.5,-215 356.5,-209 362.5,-203 368.5,-203 368.5,-203 463.5,-203 463.5,-203 469.5,-203 475.5,-209 475.5,-215 475.5,-215 475.5,-227 475.5,-227 475.5,-233 469.5,-239 463.5,-239"/>
<text text-anchor="middle" x="416" y="-217.9" font-family="sans" font-size="12.00" fill="#c4c7c7">Class of equivalence</text>
</a>
</g>
</g>
<!-- Principle of division&#45;&gt;Class of equivalence -->
<g id="edge10" class="edge">
<title>Principle of division&#45;&gt;Class of equivalence</title>
<path fill="none" stroke="#b75867" d="M301.75,-233.62C316.05,-232.03 331.54,-230.3 346.34,-228.65"/>
<polygon fill="#b75867" stroke="#b75867" points="346.9,-232.11 356.45,-227.52 346.12,-225.15 346.9,-232.11"/>
</g>
<!-- Relation of Equivalence -->
<g id="node11" class="node">
<title>Relation of Equivalence</title>
<g id="a_node11"><a xlink:href="/Knowledge/relation_of_equivalence.html" xlink:title="Relation of Equivalence" target="_parent">
<path fill="#273434" stroke="#b75867" d="M471,-276C471,-276 361,-276 361,-276 355,-276 349,-270 349,-264 349,-264 349,-252 349,-252 349,-246 355,-240 361,-240 361,-240 471,-240 471,-240 477,-240 483,-246 483,-252 483,-252 483,-264 483,-264 483,-270 477,-276 471,-276"/>
<text text-anchor="middle" x="416" y="-254.9" font-family="sans" font-size="12.00" fill="#c4c7c7">Relation of Equivalence</text>
</a>
</g>
</g>
<!-- Principle of division&#45;&gt;Relation of Equivalence -->
<g id="edge11" class="edge">
<title>Principle of division&#45;&gt;Relation of Equivalence</title>
<path fill="none" stroke="#b75867" d="M301.75,-246.04C313.54,-247.29 326.13,-248.62 338.48,-249.92"/>
<polygon fill="#b75867" stroke="#b75867" points="338.46,-253.44 348.77,-251.01 339.19,-246.48 338.46,-253.44"/>
</g>
<!-- Principle of the bijection&#45;&gt;Combinatoric principles -->
<g id="edge16" class="edge">
<title>Principle of the bijection&#45;&gt;Combinatoric principles</title>
<path fill="none" stroke="#ffffff" d="M163.25,-129.75C154.88,-129.75 146.41,-129.75 138.18,-129.74"/>
<polygon fill="#ffffff" stroke="#ffffff" points="163.41,-133.25 173.41,-129.74 163.4,-126.25 163.41,-133.25"/>
</g>
<!-- Principle of the bijection&#45;&gt;Set -->
<g id="edge15" class="edge">
<title>Principle of the bijection&#45;&gt;Set</title>
<path fill="none" stroke="#b75867" d="M313.85,-144.05C336.1,-148.88 359.84,-154.03 378.73,-158.13"/>
<polygon fill="#b75867" stroke="#b75867" points="378.17,-161.59 388.69,-160.29 379.66,-154.75 378.17,-161.59"/>
</g>
<!-- Bijective function -->
<g id="node12" class="node">
<title>Bijective function</title>
<g id="a_node12"><a xlink:href="/Knowledge/bijective_function.html" xlink:title="Bijective function" target="_parent">
<path fill="#273434" stroke="#b75867" d="M456,-147C456,-147 376,-147 376,-147 370,-147 364,-141 364,-135 364,-135 364,-123 364,-123 364,-117 370,-111 376,-111 376,-111 456,-111 456,-111 462,-111 468,-117 468,-123 468,-123 468,-135 468,-135 468,-141 462,-147 456,-147"/>
<text text-anchor="middle" x="416" y="-125.9" font-family="sans" font-size="12.00" fill="#c4c7c7">Bijective function</text>
</a>
</g>
</g>
<!-- Principle of the bijection&#45;&gt;Bijective function -->
<g id="edge14" class="edge">
<title>Principle of the bijection&#45;&gt;Bijective function</title>
<path fill="none" stroke="#b75867" d="M313.85,-129C327.02,-129 340.71,-129 353.61,-129"/>
<polygon fill="#b75867" stroke="#b75867" points="353.76,-132.5 363.76,-129 353.76,-125.5 353.76,-132.5"/>
</g>
<!-- Principle of products&#45;&gt;Combinatoric principles -->
<g id="edge18" class="edge">
<title>Principle of products&#45;&gt;Combinatoric principles</title>
<path fill="none" stroke="#ffffff" d="M172.56,-191.35C163.45,-188.76 154.38,-185.66 146,-182 125.78,-173.16 105.28,-158.74 90.67,-147.17"/>
<polygon fill="#ffffff" stroke="#ffffff" points="171.87,-194.78 182.43,-193.96 173.66,-188.02 171.87,-194.78"/>
</g>
<!-- Principle of products&#45;&gt;Set -->
<g id="edge17" class="edge">
<title>Principle of products&#45;&gt;Set</title>
<path fill="none" stroke="#b75867" d="M304.61,-189.96C329.33,-184.59 357.14,-178.56 378.67,-173.88"/>
<polygon fill="#b75867" stroke="#b75867" points="379.66,-177.25 388.69,-171.71 378.17,-170.41 379.66,-177.25"/>
</g>
<!-- Principle of partitions&#45;&gt;Combinatoric principles -->
<g id="edge21" class="edge">
<title>Principle of partitions&#45;&gt;Combinatoric principles</title>
<path fill="none" stroke="#ffffff" d="M170.33,-108.22C159.68,-110.52 148.74,-112.86 138.18,-115.11"/>
<polygon fill="#ffffff" stroke="#ffffff" points="171.39,-111.57 180.42,-106.04 169.91,-104.73 171.39,-111.57"/>
</g>
<!-- Principle of partitions&#45;&gt;Set -->
<g id="edge20" class="edge">
<title>Principle of partitions&#45;&gt;Set</title>
<path fill="none" stroke="#b75867" d="M306.59,-95.89C319.27,-99.31 331.6,-104.94 341,-114 350.93,-123.58 339.55,-133.95 349,-144 356.92,-152.42 368.14,-157.62 379.09,-160.83"/>
<polygon fill="#b75867" stroke="#b75867" points="378.42,-164.27 388.97,-163.25 380.09,-157.47 378.42,-164.27"/>
</g>
<!-- Partition -->
<g id="node13" class="node">
<title>Partition</title>
<g id="a_node13"><a xlink:href="/Knowledge/partition.html" xlink:title="Partition" target="_parent">
<path fill="#273434" stroke="#b75867" d="M434,-110C434,-110 398,-110 398,-110 392,-110 386,-104 386,-98 386,-98 386,-86 386,-86 386,-80 392,-74 398,-74 398,-74 434,-74 434,-74 440,-74 446,-80 446,-86 446,-86 446,-98 446,-98 446,-104 440,-110 434,-110"/>
<text text-anchor="middle" x="416" y="-88.9" font-family="sans" font-size="12.00" fill="#c4c7c7">Partition</text>
</a>
</g>
</g>
<!-- Principle of partitions&#45;&gt;Partition -->
<g id="edge19" class="edge">
<title>Principle of partitions&#45;&gt;Partition</title>
<path fill="none" stroke="#b75867" d="M306.54,-92C329.56,-92 355.04,-92 375.51,-92"/>
<polygon fill="#b75867" stroke="#b75867" points="375.72,-95.5 385.72,-92 375.72,-88.5 375.72,-95.5"/>
</g>
<!-- Dirichlet principle&#45;&gt;Combinatoric principles -->
<g id="edge24" class="edge">
<title>Dirichlet principle&#45;&gt;Combinatoric principles</title>
<path fill="none" stroke="#ffffff" d="M179.77,-66.67C168.29,-69.65 156.59,-73.37 146,-78 126.81,-86.39 107.36,-99.81 92.94,-110.78"/>
<polygon fill="#ffffff" stroke="#ffffff" points="180.88,-70 189.77,-64.24 179.23,-63.2 180.88,-70"/>
</g>
<!-- Dirichlet principle&#45;&gt;Set -->
<g id="edge23" class="edge">
<title>Dirichlet principle&#45;&gt;Set</title>
<path fill="none" stroke="#b75867" d="M297.03,-55.58C313.3,-58.45 329.85,-64.61 341,-77 361.06,-99.29 330.05,-120.76 349,-144 356.5,-153.2 367.96,-158.57 379.24,-161.71"/>
<polygon fill="#b75867" stroke="#b75867" points="378.47,-165.12 389,-163.93 380.02,-158.3 378.47,-165.12"/>
</g>
<!-- Injective function -->
<g id="node14" class="node">
<title>Injective function</title>
<g id="a_node14"><a xlink:href="/Knowledge/injective_function.html" xlink:title="Injective function" target="_parent">
<path fill="#273434" stroke="#b75867" d="M456,-73C456,-73 376,-73 376,-73 370,-73 364,-67 364,-61 364,-61 364,-49 364,-49 364,-43 370,-37 376,-37 376,-37 456,-37 456,-37 462,-37 468,-43 468,-49 468,-49 468,-61 468,-61 468,-67 462,-73 456,-73"/>
<text text-anchor="middle" x="416" y="-51.9" font-family="sans" font-size="12.00" fill="#c4c7c7">Injective function</text>
</a>
</g>
</g>
<!-- Dirichlet principle&#45;&gt;Injective function -->
<g id="edge22" class="edge">
<title>Dirichlet principle&#45;&gt;Injective function</title>
<path fill="none" stroke="#b75867" d="M297.05,-55C314.96,-55 335.15,-55 353.69,-55"/>
<polygon fill="#b75867" stroke="#b75867" points="353.8,-58.5 363.8,-55 353.8,-51.5 353.8,-58.5"/>
</g>
<!-- Combinatorics&#45;&gt;Combinatoric principles -->
<g id="edge25" class="edge">
<title>Combinatorics&#45;&gt;Combinatoric principles</title>
<path fill="none" stroke="#b75867" d="M197.98,-23.03C180.81,-26.18 161.58,-31.57 146,-41 120.86,-56.21 99.87,-82.63 86.37,-102.57"/>
<polygon fill="#b75867" stroke="#b75867" points="83.44,-100.65 80.87,-110.94 89.29,-104.5 83.44,-100.65"/>
</g>
<!-- Discrete Structures -->
<g id="node15" class="node">
<title>Discrete Structures</title>
<g id="a_node15"><a xlink:href="/Knowledge/discrete_structures.html" xlink:title="Discrete Structures" target="_parent">
<path fill="none" stroke="#b75867" d="M459.5,-36C459.5,-36 372.5,-36 372.5,-36 366.5,-36 360.5,-30 360.5,-24 360.5,-24 360.5,-12 360.5,-12 360.5,-6 366.5,0 372.5,0 372.5,0 459.5,0 459.5,0 465.5,0 471.5,-6 471.5,-12 471.5,-12 471.5,-24 471.5,-24 471.5,-30 465.5,-36 459.5,-36"/>
<text text-anchor="middle" x="416" y="-14.9" font-family="sans" font-size="12.00" fill="#c4c7c7">Discrete Structures</text>
</a>
</g>
</g>
<!-- Combinatorics&#45;&gt;Discrete Structures -->
<g id="edge26" class="edge">
<title>Combinatorics&#45;&gt;Discrete Structures</title>
<path fill="none" stroke="#ffffff" d="M299.55,-18C319.07,-18 341,-18 360.47,-18"/>
<polygon fill="#ffffff" stroke="#ffffff" points="299.3,-14.5 289.3,-18 299.3,-21.5 299.3,-14.5"/>
</g>
</g>
</svg>
