<?xml version="1.0" encoding="UTF-8" standalone="no"?>
<!DOCTYPE svg PUBLIC "-//W3C//DTD SVG 1.1//EN"
 "http://www.w3.org/Graphics/SVG/1.1/DTD/svg11.dtd">
<!-- Generated by graphviz version 2.46.1 (0)
 -->
<!-- Title: Combinatorics Pages: 1 -->
<svg width="448pt" height="451pt"
 viewBox="0.00 0.00 448.00 451.00" xmlns="http://www.w3.org/2000/svg" xmlns:xlink="http://www.w3.org/1999/xlink">
<g id="graph0" class="graph" transform="scale(1 1) rotate(0) translate(4 447)">
<title>Combinatorics</title>
<polygon fill="#132020" stroke="transparent" points="-4,4 -4,-447 444,-447 444,4 -4,4"/>
<!-- Combinatorics -->
<g id="node1" class="node">
<title>Combinatorics</title>
<g id="a_node1"><a xlink:href="/Knowledge/combinatorics.html" xlink:title="Combinatorics" target="_parent">
<path fill="#273434" stroke="#b75867" d="M79,-221C79,-221 12,-221 12,-221 6,-221 0,-215 0,-209 0,-209 0,-197 0,-197 0,-191 6,-185 12,-185 12,-185 79,-185 79,-185 85,-185 91,-191 91,-197 91,-197 91,-209 91,-209 91,-215 85,-221 79,-221"/>
<text text-anchor="middle" x="45.5" y="-199.9" font-family="sans" font-size="12.00" fill="#c4c7c7">Combinatorics</text>
</a>
</g>
</g>
<!-- Combinatoric principles -->
<g id="node2" class="node">
<title>Combinatoric principles</title>
<g id="a_node2"><a xlink:href="/Knowledge/combinatoric_principles.html" xlink:title="Combinatoric principles" target="_parent">
<path fill="#273434" stroke="#b75867" d="M225,-313C225,-313 111,-313 111,-313 105,-313 99,-307 99,-301 99,-301 99,-289 99,-289 99,-283 105,-277 111,-277 111,-277 225,-277 225,-277 231,-277 237,-283 237,-289 237,-289 237,-301 237,-301 237,-307 231,-313 225,-313"/>
<text text-anchor="middle" x="168" y="-291.9" font-family="sans" font-size="12.00" fill="#c4c7c7">Combinatoric principles</text>
</a>
</g>
</g>
<!-- Combinatorics&#45;&gt;Combinatoric principles -->
<g id="edge1" class="edge">
<title>Combinatorics&#45;&gt;Combinatoric principles</title>
<path fill="none" stroke="#b75867" d="M70.31,-221.18C88.87,-235.35 114.84,-255.17 135.19,-270.71"/>
<polygon fill="#b75867" stroke="#b75867" points="133.17,-273.57 143.24,-276.86 137.42,-268.01 133.17,-273.57"/>
</g>
<!-- Discrete Structures -->
<g id="node3" class="node">
<title>Discrete Structures</title>
<g id="a_node3"><a xlink:href="/Knowledge/discrete_structures.html" xlink:title="Discrete Structures" target="_parent">
<path fill="none" stroke="#b75867" d="M211.5,-166C211.5,-166 124.5,-166 124.5,-166 118.5,-166 112.5,-160 112.5,-154 112.5,-154 112.5,-142 112.5,-142 112.5,-136 118.5,-130 124.5,-130 124.5,-130 211.5,-130 211.5,-130 217.5,-130 223.5,-136 223.5,-142 223.5,-142 223.5,-154 223.5,-154 223.5,-160 217.5,-166 211.5,-166"/>
<text text-anchor="middle" x="168" y="-144.9" font-family="sans" font-size="12.00" fill="#c4c7c7">Discrete Structures</text>
</a>
</g>
</g>
<!-- Combinatorics&#45;&gt;Discrete Structures -->
<g id="edge2" class="edge">
<title>Combinatorics&#45;&gt;Discrete Structures</title>
<path fill="none" stroke="#ffffff" d="M95.21,-180.77C105.93,-175.88 117.15,-170.75 127.46,-166.05"/>
<polygon fill="#ffffff" stroke="#ffffff" points="93.6,-177.65 85.96,-184.99 96.51,-184.02 93.6,-177.65"/>
</g>
<!-- Combinatoric principles&#45;&gt;Combinatorics -->
<g id="edge9" class="edge">
<title>Combinatoric principles&#45;&gt;Combinatorics</title>
<path fill="none" stroke="#ffffff" d="M134.34,-270.74C113.8,-255.18 87.81,-235.31 69.45,-221.12"/>
<polygon fill="#ffffff" stroke="#ffffff" points="132.39,-273.66 142.48,-276.9 136.62,-268.07 132.39,-273.66"/>
</g>
<!-- Principle of inclusion and exclusion -->
<g id="node4" class="node">
<title>Principle of inclusion and exclusion</title>
<g id="a_node4"><a xlink:href="/Knowledge/principle_of_inclusion_and_exclusion.html" xlink:title="Principle of inclusion and exclusion" target="_parent">
<path fill="#273434" stroke="#b75867" d="M428,-443C428,-443 257,-443 257,-443 251,-443 245,-437 245,-431 245,-431 245,-419 245,-419 245,-413 251,-407 257,-407 257,-407 428,-407 428,-407 434,-407 440,-413 440,-419 440,-419 440,-431 440,-431 440,-437 434,-443 428,-443"/>
<text text-anchor="middle" x="342.5" y="-421.9" font-family="sans" font-size="12.00" fill="#c4c7c7">Principle of inclusion and exclusion</text>
</a>
</g>
</g>
<!-- Combinatoric principles&#45;&gt;Principle of inclusion and exclusion -->
<g id="edge3" class="edge">
<title>Combinatoric principles&#45;&gt;Principle of inclusion and exclusion</title>
<path fill="none" stroke="#b75867" d="M176.62,-313.05C187.08,-335.71 208.06,-374.44 243.02,-400.98"/>
<polygon fill="#b75867" stroke="#b75867" points="241.01,-403.85 251.19,-406.78 245.06,-398.14 241.01,-403.85"/>
</g>
<!-- Principle of division -->
<g id="node5" class="node">
<title>Principle of division</title>
<g id="a_node5"><a xlink:href="/Knowledge/principle_of_division.html" xlink:title="Principle of division" target="_parent">
<path fill="#273434" stroke="#b75867" d="M388.5,-406C388.5,-406 296.5,-406 296.5,-406 290.5,-406 284.5,-400 284.5,-394 284.5,-394 284.5,-382 284.5,-382 284.5,-376 290.5,-370 296.5,-370 296.5,-370 388.5,-370 388.5,-370 394.5,-370 400.5,-376 400.5,-382 400.5,-382 400.5,-394 400.5,-394 400.5,-400 394.5,-406 388.5,-406"/>
<text text-anchor="middle" x="342.5" y="-384.9" font-family="sans" font-size="12.00" fill="#c4c7c7">Principle of division</text>
</a>
</g>
</g>
<!-- Combinatoric principles&#45;&gt;Principle of division -->
<g id="edge4" class="edge">
<title>Combinatoric principles&#45;&gt;Principle of division</title>
<path fill="none" stroke="#b75867" d="M183.61,-313.31C197.63,-329.62 220.28,-352.88 245,-366 254.14,-370.85 264.33,-374.64 274.56,-377.59"/>
<polygon fill="#b75867" stroke="#b75867" points="273.79,-381.01 284.35,-380.18 275.57,-374.24 273.79,-381.01"/>
</g>
<!-- Principle of the bijection -->
<g id="node6" class="node">
<title>Principle of the bijection</title>
<g id="a_node6"><a xlink:href="/Knowledge/principle_of_the_bijection.html" xlink:title="Principle of the bijection" target="_parent">
<path fill="#273434" stroke="#b75867" d="M400.5,-369C400.5,-369 284.5,-369 284.5,-369 278.5,-369 272.5,-363 272.5,-357 272.5,-357 272.5,-345 272.5,-345 272.5,-339 278.5,-333 284.5,-333 284.5,-333 400.5,-333 400.5,-333 406.5,-333 412.5,-339 412.5,-345 412.5,-345 412.5,-357 412.5,-357 412.5,-363 406.5,-369 400.5,-369"/>
<text text-anchor="middle" x="342.5" y="-347.9" font-family="sans" font-size="12.00" fill="#c4c7c7">Principle of the bijection</text>
</a>
</g>
</g>
<!-- Combinatoric principles&#45;&gt;Principle of the bijection -->
<g id="edge5" class="edge">
<title>Combinatoric principles&#45;&gt;Principle of the bijection</title>
<path fill="none" stroke="#b75867" d="M205.53,-313.09C217.86,-318.72 231.84,-324.6 245,-329 250.59,-330.87 256.41,-332.63 262.3,-334.28"/>
<polygon fill="#b75867" stroke="#b75867" points="261.68,-337.74 272.25,-336.95 263.5,-330.98 261.68,-337.74"/>
</g>
<!-- Principle of products -->
<g id="node7" class="node">
<title>Principle of products</title>
<g id="a_node7"><a xlink:href="/Knowledge/principle_of_products.html" xlink:title="Principle of products" target="_parent">
<path fill="#273434" stroke="#b75867" d="M391.5,-332C391.5,-332 293.5,-332 293.5,-332 287.5,-332 281.5,-326 281.5,-320 281.5,-320 281.5,-308 281.5,-308 281.5,-302 287.5,-296 293.5,-296 293.5,-296 391.5,-296 391.5,-296 397.5,-296 403.5,-302 403.5,-308 403.5,-308 403.5,-320 403.5,-320 403.5,-326 397.5,-332 391.5,-332"/>
<text text-anchor="middle" x="342.5" y="-310.9" font-family="sans" font-size="12.00" fill="#c4c7c7">Principle of products</text>
</a>
</g>
</g>
<!-- Combinatoric principles&#45;&gt;Principle of products -->
<g id="edge6" class="edge">
<title>Combinatoric principles&#45;&gt;Principle of products</title>
<path fill="none" stroke="#b75867" d="M237.18,-302.51C248.35,-303.74 259.95,-305.02 271.18,-306.25"/>
<polygon fill="#b75867" stroke="#b75867" points="271.04,-309.76 281.36,-307.38 271.8,-302.8 271.04,-309.76"/>
</g>
<!-- Principle of partitions -->
<g id="node8" class="node">
<title>Principle of partitions</title>
<g id="a_node8"><a xlink:href="/Knowledge/principle_of_partitions.html" xlink:title="Principle of partitions" target="_parent">
<path fill="#273434" stroke="#b75867" d="M393.5,-295C393.5,-295 291.5,-295 291.5,-295 285.5,-295 279.5,-289 279.5,-283 279.5,-283 279.5,-271 279.5,-271 279.5,-265 285.5,-259 291.5,-259 291.5,-259 393.5,-259 393.5,-259 399.5,-259 405.5,-265 405.5,-271 405.5,-271 405.5,-283 405.5,-283 405.5,-289 399.5,-295 393.5,-295"/>
<text text-anchor="middle" x="342.5" y="-273.9" font-family="sans" font-size="12.00" fill="#c4c7c7">Principle of partitions</text>
</a>
</g>
</g>
<!-- Combinatoric principles&#45;&gt;Principle of partitions -->
<g id="edge7" class="edge">
<title>Combinatoric principles&#45;&gt;Principle of partitions</title>
<path fill="none" stroke="#b75867" d="M237.18,-287.89C247.74,-286.78 258.68,-285.64 269.33,-284.53"/>
<polygon fill="#b75867" stroke="#b75867" points="269.84,-288 279.42,-283.48 269.11,-281.03 269.84,-288"/>
</g>
<!-- Dirichlet principle -->
<g id="node9" class="node">
<title>Dirichlet principle</title>
<g id="a_node9"><a xlink:href="/Knowledge/dirichlet_principle.html" xlink:title="Dirichlet principle" target="_parent">
<path fill="#273434" stroke="#b75867" d="M384,-258C384,-258 301,-258 301,-258 295,-258 289,-252 289,-246 289,-246 289,-234 289,-234 289,-228 295,-222 301,-222 301,-222 384,-222 384,-222 390,-222 396,-228 396,-234 396,-234 396,-246 396,-246 396,-252 390,-258 384,-258"/>
<text text-anchor="middle" x="342.5" y="-236.9" font-family="sans" font-size="12.00" fill="#c4c7c7">Dirichlet principle</text>
</a>
</g>
</g>
<!-- Combinatoric principles&#45;&gt;Dirichlet principle -->
<g id="edge8" class="edge">
<title>Combinatoric principles&#45;&gt;Dirichlet principle</title>
<path fill="none" stroke="#b75867" d="M206.74,-276.97C218.78,-271.66 232.29,-266.17 245,-262 255.86,-258.44 267.59,-255.24 279.01,-252.46"/>
<polygon fill="#b75867" stroke="#b75867" points="280,-255.83 288.93,-250.13 278.39,-249.01 280,-255.83"/>
</g>
<!-- Discrete Structures&#45;&gt;Combinatorics -->
<g id="edge11" class="edge">
<title>Discrete Structures&#45;&gt;Combinatorics</title>
<path fill="none" stroke="#b75867" d="M128.89,-166.1C118.73,-170.78 107.6,-175.87 96.9,-180.74"/>
<polygon fill="#b75867" stroke="#b75867" points="95.29,-177.62 87.63,-184.94 98.18,-184 95.29,-177.62"/>
</g>
<!-- Recurrent Equations -->
<g id="node10" class="node">
<title>Recurrent Equations</title>
<g id="a_node10"><a xlink:href="/Knowledge/recurrent_equations.html" xlink:title="Recurrent Equations" target="_parent">
<path fill="#273434" stroke="#b75867" d="M390,-221C390,-221 295,-221 295,-221 289,-221 283,-215 283,-209 283,-209 283,-197 283,-197 283,-191 289,-185 295,-185 295,-185 390,-185 390,-185 396,-185 402,-191 402,-197 402,-197 402,-209 402,-209 402,-215 396,-221 390,-221"/>
<text text-anchor="middle" x="342.5" y="-199.9" font-family="sans" font-size="12.00" fill="#c4c7c7">Recurrent Equations</text>
</a>
</g>
</g>
<!-- Discrete Structures&#45;&gt;Recurrent Equations -->
<g id="edge10" class="edge">
<title>Discrete Structures&#45;&gt;Recurrent Equations</title>
<path fill="none" stroke="#b75867" d="M206.74,-166.03C218.78,-171.34 232.29,-176.83 245,-181 253.97,-183.94 263.53,-186.63 273.02,-189.05"/>
<polygon fill="#b75867" stroke="#b75867" points="272.3,-192.48 282.85,-191.46 273.97,-185.68 272.3,-192.48"/>
</g>
<!-- Functions -->
<g id="node11" class="node">
<title>Functions</title>
<g id="a_node11"><a xlink:href="/Knowledge/functions.html" xlink:title="Functions" target="_parent">
<path fill="#273434" stroke="#b75867" d="M364,-184C364,-184 321,-184 321,-184 315,-184 309,-178 309,-172 309,-172 309,-160 309,-160 309,-154 315,-148 321,-148 321,-148 364,-148 364,-148 370,-148 376,-154 376,-160 376,-160 376,-172 376,-172 376,-178 370,-184 364,-184"/>
<text text-anchor="middle" x="342.5" y="-162.9" font-family="sans" font-size="12.00" fill="#c4c7c7">Functions</text>
</a>
</g>
</g>
<!-- Discrete Structures&#45;&gt;Functions -->
<g id="edge12" class="edge">
<title>Discrete Structures&#45;&gt;Functions</title>
<path fill="none" stroke="#b75867" d="M223.58,-153.7C247.89,-156.23 276.1,-159.18 298.83,-161.55"/>
<polygon fill="#b75867" stroke="#b75867" points="298.54,-165.04 308.85,-162.59 299.27,-158.07 298.54,-165.04"/>
</g>
<!-- Relations -->
<g id="node12" class="node">
<title>Relations</title>
<g id="a_node12"><a xlink:href="/Knowledge/relations.html" xlink:title="Relations" target="_parent">
<path fill="#273434" stroke="#b75867" d="M362.5,-147C362.5,-147 322.5,-147 322.5,-147 316.5,-147 310.5,-141 310.5,-135 310.5,-135 310.5,-123 310.5,-123 310.5,-117 316.5,-111 322.5,-111 322.5,-111 362.5,-111 362.5,-111 368.5,-111 374.5,-117 374.5,-123 374.5,-123 374.5,-135 374.5,-135 374.5,-141 368.5,-147 362.5,-147"/>
<text text-anchor="middle" x="342.5" y="-125.9" font-family="sans" font-size="12.00" fill="#c4c7c7">Relations</text>
</a>
</g>
</g>
<!-- Discrete Structures&#45;&gt;Relations -->
<g id="edge13" class="edge">
<title>Discrete Structures&#45;&gt;Relations</title>
<path fill="none" stroke="#b75867" d="M223.58,-141.99C248.4,-139.25 277.29,-136.07 300.26,-133.54"/>
<polygon fill="#b75867" stroke="#b75867" points="300.8,-137 310.36,-132.43 300.04,-130.05 300.8,-137"/>
</g>
<!-- Logical Equivalences -->
<g id="node13" class="node">
<title>Logical Equivalences</title>
<g id="a_node13"><a xlink:href="/Knowledge/logical_equivalences.html" xlink:title="Logical Equivalences" target="_parent">
<path fill="#273434" stroke="#b75867" d="M391,-110C391,-110 294,-110 294,-110 288,-110 282,-104 282,-98 282,-98 282,-86 282,-86 282,-80 288,-74 294,-74 294,-74 391,-74 391,-74 397,-74 403,-80 403,-86 403,-86 403,-98 403,-98 403,-104 397,-110 391,-110"/>
<text text-anchor="middle" x="342.5" y="-88.9" font-family="sans" font-size="12.00" fill="#c4c7c7">Logical Equivalences</text>
</a>
</g>
</g>
<!-- Discrete Structures&#45;&gt;Logical Equivalences -->
<g id="edge14" class="edge">
<title>Discrete Structures&#45;&gt;Logical Equivalences</title>
<path fill="none" stroke="#b75867" d="M205.53,-129.91C217.86,-124.28 231.84,-118.4 245,-114 253.62,-111.12 262.79,-108.49 271.93,-106.13"/>
<polygon fill="#b75867" stroke="#b75867" points="272.93,-109.49 281.79,-103.68 271.24,-102.7 272.93,-109.49"/>
</g>
<!-- Logical Operators -->
<g id="node14" class="node">
<title>Logical Operators</title>
<g id="a_node14"><a xlink:href="/Knowledge/logical_operators.html" xlink:title="Logical Operators" target="_parent">
<path fill="#273434" stroke="#b75867" d="M383.5,-73C383.5,-73 301.5,-73 301.5,-73 295.5,-73 289.5,-67 289.5,-61 289.5,-61 289.5,-49 289.5,-49 289.5,-43 295.5,-37 301.5,-37 301.5,-37 383.5,-37 383.5,-37 389.5,-37 395.5,-43 395.5,-49 395.5,-49 395.5,-61 395.5,-61 395.5,-67 389.5,-73 383.5,-73"/>
<text text-anchor="middle" x="342.5" y="-51.9" font-family="sans" font-size="12.00" fill="#c4c7c7">Logical Operators</text>
</a>
</g>
</g>
<!-- Discrete Structures&#45;&gt;Logical Operators -->
<g id="edge15" class="edge">
<title>Discrete Structures&#45;&gt;Logical Operators</title>
<path fill="none" stroke="#b75867" d="M183.61,-129.69C197.63,-113.38 220.28,-90.12 245,-77 255.55,-71.4 267.49,-67.22 279.29,-64.1"/>
<polygon fill="#b75867" stroke="#b75867" points="280.23,-67.47 289.13,-61.72 278.59,-60.67 280.23,-67.47"/>
</g>
<!-- Subjects -->
<g id="node15" class="node">
<title>Subjects</title>
<g id="a_node15"><a xlink:href="/Knowledge/subjects.html" xlink:title="Subjects" target="_parent">
<path fill="none" stroke="#b75867" d="M360.5,-36C360.5,-36 324.5,-36 324.5,-36 318.5,-36 312.5,-30 312.5,-24 312.5,-24 312.5,-12 312.5,-12 312.5,-6 318.5,0 324.5,0 324.5,0 360.5,0 360.5,0 366.5,0 372.5,-6 372.5,-12 372.5,-12 372.5,-24 372.5,-24 372.5,-30 366.5,-36 360.5,-36"/>
<text text-anchor="middle" x="342.5" y="-14.9" font-family="sans" font-size="12.00" fill="#c4c7c7">Subjects</text>
</a>
</g>
</g>
<!-- Discrete Structures&#45;&gt;Subjects -->
<g id="edge16" class="edge">
<title>Discrete Structures&#45;&gt;Subjects</title>
<path fill="none" stroke="#ffffff" d="M181.07,-120.68C193.5,-95.79 215.25,-59.96 245,-40 264.98,-26.6 291.97,-21.28 312.32,-19.2"/>
<polygon fill="#ffffff" stroke="#ffffff" points="177.79,-119.42 176.62,-129.95 184.1,-122.45 177.79,-119.42"/>
</g>
</g>
</svg>
