<?xml version="1.0" encoding="UTF-8" standalone="no"?>
<!DOCTYPE svg PUBLIC "-//W3C//DTD SVG 1.1//EN"
 "http://www.w3.org/Graphics/SVG/1.1/DTD/svg11.dtd">
<!-- Generated by graphviz version 2.46.1 (0)
 -->
<!-- Title: Complex Function Pages: 1 -->
<svg width="376pt" height="155pt"
 viewBox="0.00 0.00 376.00 155.00" xmlns="http://www.w3.org/2000/svg" xmlns:xlink="http://www.w3.org/1999/xlink">
<g id="graph0" class="graph" transform="scale(1 1) rotate(0) translate(4 151)">
<title>Complex Function</title>
<polygon fill="#132020" stroke="transparent" points="-4,4 -4,-151 372,-151 372,4 -4,4"/>
<!-- Complex Function -->
<g id="node1" class="node">
<title>Complex Function</title>
<g id="a_node1"><a xlink:href="/Knowledge/complex_function.html" xlink:title="Complex Function" target="_parent">
<path fill="#273434" stroke="#b75867" d="M96,-91C96,-91 12,-91 12,-91 6,-91 0,-85 0,-79 0,-79 0,-67 0,-67 0,-61 6,-55 12,-55 12,-55 96,-55 96,-55 102,-55 108,-61 108,-67 108,-67 108,-79 108,-79 108,-85 102,-91 96,-91"/>
<text text-anchor="middle" x="54" y="-69.9" font-family="sans" font-size="12.00" fill="#c4c7c7">Complex Function</text>
</a>
</g>
</g>
<!-- Function Approximation -->
<g id="node2" class="node">
<title>Function Approximation</title>
<g id="a_node2"><a xlink:href="/Knowledge/function_approximation.html" xlink:title="Function Approximation" target="_parent">
<path fill="none" stroke="#b75867" d="M242,-91C242,-91 128,-91 128,-91 122,-91 116,-85 116,-79 116,-79 116,-67 116,-67 116,-61 122,-55 128,-55 128,-55 242,-55 242,-55 248,-55 254,-61 254,-67 254,-67 254,-79 254,-79 254,-85 248,-91 242,-91"/>
<text text-anchor="middle" x="185" y="-69.9" font-family="sans" font-size="12.00" fill="#c4c7c7">Function Approximation</text>
</a>
</g>
</g>
<!-- Complex Function&#45;&gt;Function Approximation -->
<g id="edge1" class="edge">
<title>Complex Function&#45;&gt;Function Approximation</title>
<path fill="none" stroke="#ffffff" d="M115.29,-73C115.45,-73 115.61,-73 115.76,-73"/>
<polygon fill="#ffffff" stroke="#ffffff" points="118.21,-69.5 108.21,-73 118.21,-76.5 118.21,-69.5"/>
</g>
<!-- Function Approximation&#45;&gt;Complex Function -->
<g id="edge5" class="edge">
<title>Function Approximation&#45;&gt;Complex Function</title>
<path fill="none" stroke="#b75867" d="M115.76,-73.75C115.61,-73.75 115.45,-73.75 115.29,-73.75"/>
<polygon fill="#b75867" stroke="#b75867" points="118.22,-70.25 108.21,-73.74 118.21,-77.25 118.22,-70.25"/>
</g>
<!-- Metric Criteria -->
<g id="node3" class="node">
<title>Metric Criteria</title>
<g id="a_node3"><a xlink:href="/Knowledge/metric_criteria.html" xlink:title="Metric Criteria" target="_parent">
<path fill="#273434" stroke="#b75867" d="M347,-147C347,-147 283,-147 283,-147 277,-147 271,-141 271,-135 271,-135 271,-123 271,-123 271,-117 277,-111 283,-111 283,-111 347,-111 347,-111 353,-111 359,-117 359,-123 359,-123 359,-135 359,-135 359,-141 353,-147 347,-147"/>
<text text-anchor="middle" x="315" y="-125.9" font-family="sans" font-size="12.00" fill="#c4c7c7">Metric Criteria</text>
</a>
</g>
</g>
<!-- Function Approximation&#45;&gt;Metric Criteria -->
<g id="edge2" class="edge">
<title>Function Approximation&#45;&gt;Metric Criteria</title>
<path fill="none" stroke="#b75867" d="M226.16,-91.15C235.91,-95.51 246.42,-100.18 261.95,-106.95"/>
<polygon fill="#b75867" stroke="#b75867" points="260.56,-110.16 271.12,-110.94 263.35,-103.74 260.56,-110.16"/>
</g>
<!-- nil -->
<g id="node4" class="node">
<title>nil</title>
<g id="a_node4"><a xlink:href="/Knowledge/Interpolation Criterion.html" xlink:title="nil" target="_parent">
<path fill="#273434" stroke="#b75867" d="M330,-110C330,-110 300,-110 300,-110 294,-110 288,-104 288,-98 288,-98 288,-86 288,-86 288,-80 294,-74 300,-74 300,-74 330,-74 330,-74 336,-74 342,-80 342,-86 342,-86 342,-98 342,-98 342,-104 336,-110 330,-110"/>
<text text-anchor="middle" x="315" y="-88.9" font-family="sans" font-size="12.00" fill="#c4c7c7">nil</text>
</a>
</g>
</g>
<!-- Function Approximation&#45;&gt;nil -->
<g id="edge3" class="edge">
<title>Function Approximation&#45;&gt;nil</title>
<path fill="none" stroke="#b75867" d="M254.12,-83.11C262.32,-84.33 270.43,-85.53 277.9,-86.64"/>
<polygon fill="#b75867" stroke="#b75867" points="277.59,-90.13 287.99,-88.14 278.61,-83.21 277.59,-90.13"/>
</g>
<!-- Simple Function -->
<g id="node5" class="node">
<title>Simple Function</title>
<g id="a_node5"><a xlink:href="/Knowledge/simple_function.html" xlink:title="Simple Function" target="_parent">
<path fill="#273434" stroke="#b75867" d="M352.5,-73C352.5,-73 277.5,-73 277.5,-73 271.5,-73 265.5,-67 265.5,-61 265.5,-61 265.5,-49 265.5,-49 265.5,-43 271.5,-37 277.5,-37 277.5,-37 352.5,-37 352.5,-37 358.5,-37 364.5,-43 364.5,-49 364.5,-49 364.5,-61 364.5,-61 364.5,-67 358.5,-73 352.5,-73"/>
<text text-anchor="middle" x="315" y="-51.9" font-family="sans" font-size="12.00" fill="#c4c7c7">Simple Function</text>
</a>
</g>
</g>
<!-- Function Approximation&#45;&gt;Simple Function -->
<g id="edge4" class="edge">
<title>Function Approximation&#45;&gt;Simple Function</title>
<path fill="none" stroke="#b75867" d="M254.12,-63.42C254.6,-63.35 255.08,-63.29 255.55,-63.22"/>
<polygon fill="#b75867" stroke="#b75867" points="256.06,-66.68 265.47,-61.82 255.08,-59.75 256.06,-66.68"/>
</g>
<!-- Numeric Methods -->
<g id="node6" class="node">
<title>Numeric Methods</title>
<g id="a_node6"><a xlink:href="/Knowledge/numeric_methods.html" xlink:title="Numeric Methods" target="_parent">
<path fill="none" stroke="#b75867" d="M356,-36C356,-36 274,-36 274,-36 268,-36 262,-30 262,-24 262,-24 262,-12 262,-12 262,-6 268,0 274,0 274,0 356,0 356,0 362,0 368,-6 368,-12 368,-12 368,-24 368,-24 368,-30 362,-36 356,-36"/>
<text text-anchor="middle" x="315" y="-14.9" font-family="sans" font-size="12.00" fill="#c4c7c7">Numeric Methods</text>
</a>
</g>
</g>
<!-- Function Approximation&#45;&gt;Numeric Methods -->
<g id="edge6" class="edge">
<title>Function Approximation&#45;&gt;Numeric Methods</title>
<path fill="none" stroke="#ffffff" d="M236.76,-50.88C245.19,-47.23 253.83,-43.5 262,-40 264.97,-38.73 268.04,-37.41 271.14,-36.1"/>
<polygon fill="#ffffff" stroke="#ffffff" points="235.17,-47.76 227.39,-54.95 237.95,-54.18 235.17,-47.76"/>
</g>
</g>
</svg>
