<?xml version="1.0" encoding="UTF-8" standalone="no"?>
<!DOCTYPE svg PUBLIC "-//W3C//DTD SVG 1.1//EN"
 "http://www.w3.org/Graphics/SVG/1.1/DTD/svg11.dtd">
<!-- Generated by graphviz version 2.44.0 (0)
 -->
<!-- Title: Computer Architectures Pages: 1 -->
<svg width="534pt" height="636pt"
 viewBox="0.00 0.00 534.00 636.00" xmlns="http://www.w3.org/2000/svg" xmlns:xlink="http://www.w3.org/1999/xlink">
<g id="graph0" class="graph" transform="scale(1 1) rotate(0) translate(4 632)">
<title>Computer Architectures</title>
<polygon fill="#132020" stroke="transparent" points="-4,4 -4,-632 530,-632 530,4 -4,4"/>
<!-- Computer Architectures -->
<g id="node1" class="node">
<title>Computer Architectures</title>
<g id="a_node1"><a xlink:href="/Knowledge/Computer Architectures.html" xlink:title="Computer Architectures" target="_parent">
<path fill="#273434" stroke="#b75867" d="M139,-313C139,-313 12,-313 12,-313 6,-313 0,-307 0,-301 0,-301 0,-289 0,-289 0,-283 6,-277 12,-277 12,-277 139,-277 139,-277 145,-277 151,-283 151,-289 151,-289 151,-301 151,-301 151,-307 145,-313 139,-313"/>
<text text-anchor="middle" x="75.5" y="-291.9" font-family="sans" font-size="12.00" fill="#c4c7c7">Computer Architectures</text>
</a>
</g>
</g>
<!-- Knowledege Base -->
<g id="node2" class="node">
<title>Knowledege Base</title>
<g id="a_node2"><a xlink:href="/Knowledge/Knowledege Base.html" xlink:title="Knowledege Base" target="_parent">
<path fill="none" stroke="#b75867" d="M264,-313C264,-313 171,-313 171,-313 165,-313 159,-307 159,-301 159,-301 159,-289 159,-289 159,-283 165,-277 171,-277 171,-277 264,-277 264,-277 270,-277 276,-283 276,-289 276,-289 276,-301 276,-301 276,-307 270,-313 264,-313"/>
<text text-anchor="middle" x="217.5" y="-291.9" font-family="sans" font-size="12.00" fill="#c4c7c7">Knowledege Base</text>
</a>
</g>
</g>
<!-- Computer Architectures&#45;&gt;Knowledege Base -->
<g id="edge1" class="edge">
<title>Computer Architectures&#45;&gt;Knowledege Base</title>
<path fill="none" stroke="#ffffff" d="M158.32,-295C158.48,-295 158.64,-295 158.81,-295"/>
<polygon fill="#ffffff" stroke="#ffffff" points="161.01,-291.5 151.01,-295 161.01,-298.5 161.01,-291.5"/>
</g>
<!-- Knowledege Base&#45;&gt;Computer Architectures -->
<g id="edge2" class="edge">
<title>Knowledege Base&#45;&gt;Computer Architectures</title>
<path fill="none" stroke="#b75867" d="M158.81,-295.74C158.64,-295.74 158.48,-295.74 158.32,-295.74"/>
<polygon fill="#b75867" stroke="#b75867" points="161,-292.24 151.01,-295.75 161.01,-299.24 161,-292.24"/>
</g>
<!-- Numeric Methods -->
<g id="node3" class="node">
<title>Numeric Methods</title>
<g id="a_node3"><a xlink:href="/Knowledge/Numeric Methods.html" xlink:title="Numeric Methods" target="_parent">
<path fill="#273434" stroke="#b75867" d="M451,-628C451,-628 359,-628 359,-628 353,-628 347,-622 347,-616 347,-616 347,-604 347,-604 347,-598 353,-592 359,-592 359,-592 451,-592 451,-592 457,-592 463,-598 463,-604 463,-604 463,-616 463,-616 463,-622 457,-628 451,-628"/>
<text text-anchor="middle" x="405" y="-606.9" font-family="sans" font-size="12.00" fill="#c4c7c7">Numeric Methods</text>
</a>
</g>
</g>
<!-- Knowledege Base&#45;&gt;Numeric Methods -->
<g id="edge3" class="edge">
<title>Knowledege Base&#45;&gt;Numeric Methods</title>
<path fill="none" stroke="#b75867" d="M220,-313.36C225.13,-371.4 243.9,-549.42 284,-588 298.1,-601.57 317.66,-608.21 336.89,-611.15"/>
<polygon fill="#b75867" stroke="#b75867" points="336.54,-614.64 346.89,-612.37 337.39,-607.69 336.54,-614.64"/>
</g>
<!-- Design and Analysis of Algorithms -->
<g id="node4" class="node">
<title>Design and Analysis of Algorithms</title>
<g id="a_node4"><a xlink:href="/Knowledge/Design and Analysis of Algorithms.html" xlink:title="Design and Analysis of Algorithms" target="_parent">
<path fill="#273434" stroke="#b75867" d="M496,-591C496,-591 314,-591 314,-591 308,-591 302,-585 302,-579 302,-579 302,-567 302,-567 302,-561 308,-555 314,-555 314,-555 496,-555 496,-555 502,-555 508,-561 508,-567 508,-567 508,-579 508,-579 508,-585 502,-591 496,-591"/>
<text text-anchor="middle" x="405" y="-569.9" font-family="sans" font-size="12.00" fill="#c4c7c7">Design and Analysis of Algorithms</text>
</a>
</g>
</g>
<!-- Knowledege Base&#45;&gt;Design and Analysis of Algorithms -->
<g id="edge4" class="edge">
<title>Knowledege Base&#45;&gt;Design and Analysis of Algorithms</title>
<path fill="none" stroke="#b75867" d="M220.63,-313.26C227.17,-366.2 248.7,-518.06 284,-551 286.84,-553.65 289.89,-556.03 293.1,-558.17"/>
<polygon fill="#b75867" stroke="#b75867" points="291.54,-561.31 301.95,-563.29 295.04,-555.25 291.54,-561.31"/>
</g>
<!-- Logic Programming -->
<g id="node5" class="node">
<title>Logic Programming</title>
<g id="a_node5"><a xlink:href="/Knowledge/Logic Programming.html" xlink:title="Logic Programming" target="_parent">
<path fill="#273434" stroke="#b75867" d="M456,-554C456,-554 354,-554 354,-554 348,-554 342,-548 342,-542 342,-542 342,-530 342,-530 342,-524 348,-518 354,-518 354,-518 456,-518 456,-518 462,-518 468,-524 468,-530 468,-530 468,-542 468,-542 468,-548 462,-554 456,-554"/>
<text text-anchor="middle" x="405" y="-532.9" font-family="sans" font-size="12.00" fill="#c4c7c7">Logic Programming</text>
</a>
</g>
</g>
<!-- Knowledege Base&#45;&gt;Logic Programming -->
<g id="edge5" class="edge">
<title>Knowledege Base&#45;&gt;Logic Programming</title>
<path fill="none" stroke="#b75867" d="M218.05,-313.29C218.07,-355.6 224.45,-460.63 284,-514 297.12,-525.76 314.38,-532.2 331.71,-535.53"/>
<polygon fill="#b75867" stroke="#b75867" points="331.46,-539.04 341.89,-537.16 332.56,-532.13 331.46,-539.04"/>
</g>
<!-- Data Structures -->
<g id="node6" class="node">
<title>Data Structures</title>
<g id="a_node6"><a xlink:href="/Knowledge/Data Structures.html" xlink:title="Data Structures" target="_parent">
<path fill="#273434" stroke="#b75867" d="M445,-517C445,-517 365,-517 365,-517 359,-517 353,-511 353,-505 353,-505 353,-493 353,-493 353,-487 359,-481 365,-481 365,-481 445,-481 445,-481 451,-481 457,-487 457,-493 457,-493 457,-505 457,-505 457,-511 451,-517 445,-517"/>
<text text-anchor="middle" x="405" y="-495.9" font-family="sans" font-size="12.00" fill="#c4c7c7">Data Structures</text>
</a>
</g>
</g>
<!-- Knowledege Base&#45;&gt;Data Structures -->
<g id="edge6" class="edge">
<title>Knowledege Base&#45;&gt;Data Structures</title>
<path fill="none" stroke="#b75867" d="M219.31,-313.01C222.01,-349.93 233.67,-434.32 284,-477 300.17,-490.71 322.05,-497.07 342.7,-499.72"/>
<polygon fill="#b75867" stroke="#b75867" points="342.4,-503.21 352.7,-500.74 343.11,-496.24 342.4,-503.21"/>
</g>
<!-- Languages, Automata and Computation -->
<g id="node7" class="node">
<title>Languages, Automata and Computation</title>
<g id="a_node7"><a xlink:href="/Knowledge/Languages, Automata and Computation.html" xlink:title="Languages, Automata and Computation" target="_parent">
<path fill="#273434" stroke="#b75867" d="M514,-480C514,-480 296,-480 296,-480 290,-480 284,-474 284,-468 284,-468 284,-456 284,-456 284,-450 290,-444 296,-444 296,-444 514,-444 514,-444 520,-444 526,-450 526,-456 526,-456 526,-468 526,-468 526,-474 520,-480 514,-480"/>
<text text-anchor="middle" x="405" y="-458.9" font-family="sans" font-size="12.00" fill="#c4c7c7">Languages, Automata and Computation</text>
</a>
</g>
</g>
<!-- Knowledege Base&#45;&gt;Languages, Automata and Computation -->
<g id="edge7" class="edge">
<title>Knowledege Base&#45;&gt;Languages, Automata and Computation</title>
<path fill="none" stroke="#b75867" d="M221.25,-313.48C226.61,-342.97 241.24,-400.7 281.59,-437.31"/>
<polygon fill="#b75867" stroke="#b75867" points="279.51,-440.14 289.42,-443.89 284.01,-434.78 279.51,-440.14"/>
</g>
<!-- Operations Research -->
<g id="node8" class="node">
<title>Operations Research</title>
<g id="a_node8"><a xlink:href="/Knowledge/Operations Research.html" xlink:title="Operations Research" target="_parent">
<path fill="#273434" stroke="#b75867" d="M459.5,-443C459.5,-443 350.5,-443 350.5,-443 344.5,-443 338.5,-437 338.5,-431 338.5,-431 338.5,-419 338.5,-419 338.5,-413 344.5,-407 350.5,-407 350.5,-407 459.5,-407 459.5,-407 465.5,-407 471.5,-413 471.5,-419 471.5,-419 471.5,-431 471.5,-431 471.5,-437 465.5,-443 459.5,-443"/>
<text text-anchor="middle" x="405" y="-421.9" font-family="sans" font-size="12.00" fill="#c4c7c7">Operations Research</text>
</a>
</g>
</g>
<!-- Knowledege Base&#45;&gt;Operations Research -->
<g id="edge8" class="edge">
<title>Knowledege Base&#45;&gt;Operations Research</title>
<path fill="none" stroke="#b75867" d="M224.23,-313.21C232.96,-337.78 252.04,-380.97 284,-403 297.02,-411.97 312.65,-417.58 328.26,-421.03"/>
<polygon fill="#b75867" stroke="#b75867" points="328.01,-424.54 338.49,-423 329.33,-417.67 328.01,-424.54"/>
</g>
<!-- Differential Equations -->
<g id="node9" class="node">
<title>Differential Equations</title>
<g id="a_node9"><a xlink:href="/Knowledge/Differential Equations.html" xlink:title="Differential Equations" target="_parent">
<path fill="#273434" stroke="#b75867" d="M462,-406C462,-406 348,-406 348,-406 342,-406 336,-400 336,-394 336,-394 336,-382 336,-382 336,-376 342,-370 348,-370 348,-370 462,-370 462,-370 468,-370 474,-376 474,-382 474,-382 474,-394 474,-394 474,-400 468,-406 462,-406"/>
<text text-anchor="middle" x="405" y="-384.9" font-family="sans" font-size="12.00" fill="#c4c7c7">Differential Equations</text>
</a>
</g>
</g>
<!-- Knowledege Base&#45;&gt;Differential Equations -->
<g id="edge9" class="edge">
<title>Knowledege Base&#45;&gt;Differential Equations</title>
<path fill="none" stroke="#b75867" d="M230.19,-313.26C241.77,-329.77 261.08,-353.38 284,-366 296.74,-373.02 311.27,-377.85 325.73,-381.17"/>
<polygon fill="#b75867" stroke="#b75867" points="325.2,-384.64 335.7,-383.24 326.62,-377.78 325.2,-384.64"/>
</g>
<!-- OOP -->
<g id="node10" class="node">
<title>OOP</title>
<g id="a_node10"><a xlink:href="/Knowledge/OOP.html" xlink:title="OOP" target="_parent">
<path fill="#273434" stroke="#b75867" d="M420,-369C420,-369 390,-369 390,-369 384,-369 378,-363 378,-357 378,-357 378,-345 378,-345 378,-339 384,-333 390,-333 390,-333 420,-333 420,-333 426,-333 432,-339 432,-345 432,-345 432,-357 432,-357 432,-363 426,-369 420,-369"/>
<text text-anchor="middle" x="405" y="-347.9" font-family="sans" font-size="12.00" fill="#c4c7c7">OOP</text>
</a>
</g>
</g>
<!-- Knowledege Base&#45;&gt;OOP -->
<g id="edge10" class="edge">
<title>Knowledege Base&#45;&gt;OOP</title>
<path fill="none" stroke="#b75867" d="M248.65,-313.04C259.49,-318.87 272,-324.89 284,-329 311.23,-338.33 343.36,-343.95 367.52,-347.18"/>
<polygon fill="#b75867" stroke="#b75867" points="367.32,-350.68 377.68,-348.45 368.2,-343.73 367.32,-350.68"/>
</g>
<!-- Discrete Structures -->
<g id="node11" class="node">
<title>Discrete Structures</title>
<g id="a_node11"><a xlink:href="/Knowledge/Discrete Structures.html" xlink:title="Discrete Structures" target="_parent">
<path fill="#273434" stroke="#b75867" d="M454,-332C454,-332 356,-332 356,-332 350,-332 344,-326 344,-320 344,-320 344,-308 344,-308 344,-302 350,-296 356,-296 356,-296 454,-296 454,-296 460,-296 466,-302 466,-308 466,-308 466,-320 466,-320 466,-326 460,-332 454,-332"/>
<text text-anchor="middle" x="405" y="-310.9" font-family="sans" font-size="12.00" fill="#c4c7c7">Discrete Structures</text>
</a>
</g>
</g>
<!-- Knowledege Base&#45;&gt;Discrete Structures -->
<g id="edge11" class="edge">
<title>Knowledege Base&#45;&gt;Discrete Structures</title>
<path fill="none" stroke="#b75867" d="M276.18,-300.91C294.39,-302.77 314.71,-304.85 333.7,-306.8"/>
<polygon fill="#b75867" stroke="#b75867" points="333.49,-310.3 343.79,-307.83 334.2,-303.33 333.49,-310.3"/>
</g>
<!-- Advanced Algebra -->
<g id="node12" class="node">
<title>Advanced Algebra</title>
<g id="a_node12"><a xlink:href="/Knowledge/Advanced Algebra.html" xlink:title="Advanced Algebra" target="_parent">
<path fill="#273434" stroke="#b75867" d="M452.5,-295C452.5,-295 357.5,-295 357.5,-295 351.5,-295 345.5,-289 345.5,-283 345.5,-283 345.5,-271 345.5,-271 345.5,-265 351.5,-259 357.5,-259 357.5,-259 452.5,-259 452.5,-259 458.5,-259 464.5,-265 464.5,-271 464.5,-271 464.5,-283 464.5,-283 464.5,-289 458.5,-295 452.5,-295"/>
<text text-anchor="middle" x="405" y="-273.9" font-family="sans" font-size="12.00" fill="#c4c7c7">Advanced Algebra</text>
</a>
</g>
</g>
<!-- Knowledege Base&#45;&gt;Advanced Algebra -->
<g id="edge12" class="edge">
<title>Knowledege Base&#45;&gt;Advanced Algebra</title>
<path fill="none" stroke="#b75867" d="M276.18,-289.4C294.92,-287.58 315.91,-285.55 335.38,-283.66"/>
<polygon fill="#b75867" stroke="#b75867" points="335.78,-287.14 345.4,-282.69 335.11,-280.17 335.78,-287.14"/>
</g>
<!-- Differential Analysis -->
<g id="node13" class="node">
<title>Differential Analysis</title>
<g id="a_node13"><a xlink:href="/Knowledge/Differential Analysis.html" xlink:title="Differential Analysis" target="_parent">
<path fill="#273434" stroke="#b75867" d="M456.5,-258C456.5,-258 353.5,-258 353.5,-258 347.5,-258 341.5,-252 341.5,-246 341.5,-246 341.5,-234 341.5,-234 341.5,-228 347.5,-222 353.5,-222 353.5,-222 456.5,-222 456.5,-222 462.5,-222 468.5,-228 468.5,-234 468.5,-234 468.5,-246 468.5,-246 468.5,-252 462.5,-258 456.5,-258"/>
<text text-anchor="middle" x="405" y="-236.9" font-family="sans" font-size="12.00" fill="#c4c7c7">Differential Analysis</text>
</a>
</g>
</g>
<!-- Knowledege Base&#45;&gt;Differential Analysis -->
<g id="edge13" class="edge">
<title>Knowledege Base&#45;&gt;Differential Analysis</title>
<path fill="none" stroke="#b75867" d="M250.03,-276.83C260.56,-271.39 272.53,-265.85 284,-262 298.99,-256.97 315.44,-253 331.22,-249.9"/>
<polygon fill="#b75867" stroke="#b75867" points="332.29,-253.26 341.48,-247.99 331.01,-246.38 332.29,-253.26"/>
</g>
<!-- Knowledege Base&#45;&gt;Differential Analysis -->
<g id="edge17" class="edge">
<title>Knowledege Base&#45;&gt;Differential Analysis</title>
<path fill="none" stroke="#b75867" d="M251.7,-276.93C261.82,-271.81 273.14,-266.65 284,-263 298.99,-257.97 315.44,-254 331.22,-250.88"/>
<polygon fill="#b75867" stroke="#b75867" points="332.3,-254.23 341.48,-248.94 331,-247.36 332.3,-254.23"/>
</g>
<!-- Introduction to programming -->
<g id="node14" class="node">
<title>Introduction to programming</title>
<g id="a_node14"><a xlink:href="/Knowledge/Introduction to programming.html" xlink:title="Introduction to programming" target="_parent">
<path fill="#273434" stroke="#b75867" d="M484.5,-221C484.5,-221 325.5,-221 325.5,-221 319.5,-221 313.5,-215 313.5,-209 313.5,-209 313.5,-197 313.5,-197 313.5,-191 319.5,-185 325.5,-185 325.5,-185 484.5,-185 484.5,-185 490.5,-185 496.5,-191 496.5,-197 496.5,-197 496.5,-209 496.5,-209 496.5,-215 490.5,-221 484.5,-221"/>
<text text-anchor="middle" x="405" y="-199.9" font-family="sans" font-size="12.00" fill="#c4c7c7">Introduction to programming</text>
</a>
</g>
</g>
<!-- Knowledege Base&#45;&gt;Introduction to programming -->
<g id="edge14" class="edge">
<title>Knowledege Base&#45;&gt;Introduction to programming</title>
<path fill="none" stroke="#b75867" d="M230.24,-277C241.88,-260.72 261.21,-237.45 284,-225 290.26,-221.58 296.95,-218.68 303.85,-216.22"/>
<polygon fill="#b75867" stroke="#b75867" points="304.94,-219.55 313.37,-213.13 302.78,-212.89 304.94,-219.55"/>
</g>
<!-- Analytic Geometry -->
<g id="node15" class="node">
<title>Analytic Geometry</title>
<g id="a_node15"><a xlink:href="/Knowledge/Analytic Geometry.html" xlink:title="Analytic Geometry" target="_parent">
<path fill="#273434" stroke="#b75867" d="M453.5,-184C453.5,-184 356.5,-184 356.5,-184 350.5,-184 344.5,-178 344.5,-172 344.5,-172 344.5,-160 344.5,-160 344.5,-154 350.5,-148 356.5,-148 356.5,-148 453.5,-148 453.5,-148 459.5,-148 465.5,-154 465.5,-160 465.5,-160 465.5,-172 465.5,-172 465.5,-178 459.5,-184 453.5,-184"/>
<text text-anchor="middle" x="405" y="-162.9" font-family="sans" font-size="12.00" fill="#c4c7c7">Analytic Geometry</text>
</a>
</g>
</g>
<!-- Knowledege Base&#45;&gt;Analytic Geometry -->
<g id="edge15" class="edge">
<title>Knowledege Base&#45;&gt;Analytic Geometry</title>
<path fill="none" stroke="#b75867" d="M224.28,-276.95C233.07,-252.61 252.21,-209.81 284,-188 298.67,-177.93 316.64,-172.1 334.16,-168.81"/>
<polygon fill="#b75867" stroke="#b75867" points="335.08,-172.21 344.39,-167.16 333.96,-165.3 335.08,-172.21"/>
</g>
<!-- Linear Algebra -->
<g id="node16" class="node">
<title>Linear Algebra</title>
<g id="a_node16"><a xlink:href="/Knowledge/Linear Algebra.html" xlink:title="Linear Algebra" target="_parent">
<path fill="#273434" stroke="#b75867" d="M442,-147C442,-147 368,-147 368,-147 362,-147 356,-141 356,-135 356,-135 356,-123 356,-123 356,-117 362,-111 368,-111 368,-111 442,-111 442,-111 448,-111 454,-117 454,-123 454,-123 454,-135 454,-135 454,-141 448,-147 442,-147"/>
<text text-anchor="middle" x="405" y="-125.9" font-family="sans" font-size="12.00" fill="#c4c7c7">Linear Algebra</text>
</a>
</g>
</g>
<!-- Knowledege Base&#45;&gt;Linear Algebra -->
<g id="edge16" class="edge">
<title>Knowledege Base&#45;&gt;Linear Algebra</title>
<path fill="none" stroke="#b75867" d="M221.29,-276.64C227.05,-245.53 243.29,-182.76 284,-151 301.44,-137.39 324.63,-131.22 345.97,-128.69"/>
<polygon fill="#b75867" stroke="#b75867" points="346.31,-132.18 355.94,-127.75 345.65,-125.21 346.31,-132.18"/>
</g>
<!-- Org Roam -->
<g id="node17" class="node">
<title>Org Roam</title>
<g id="a_node17"><a xlink:href="/Knowledge/Org Roam.html" xlink:title="Org Roam" target="_parent">
<path fill="#273434" stroke="#b75867" d="M429,-110C429,-110 381,-110 381,-110 375,-110 369,-104 369,-98 369,-98 369,-86 369,-86 369,-80 375,-74 381,-74 381,-74 429,-74 429,-74 435,-74 441,-80 441,-86 441,-86 441,-98 441,-98 441,-104 435,-110 429,-110"/>
<text text-anchor="middle" x="405" y="-88.9" font-family="sans" font-size="12.00" fill="#c4c7c7">Org Roam</text>
</a>
</g>
</g>
<!-- Knowledege Base&#45;&gt;Org Roam -->
<g id="edge18" class="edge">
<title>Knowledege Base&#45;&gt;Org Roam</title>
<path fill="none" stroke="#b75867" d="M219.37,-276.81C222.17,-239.94 234.01,-156.32 284,-114 304.44,-96.7 333.96,-91.12 358.61,-89.91"/>
<polygon fill="#b75867" stroke="#b75867" points="358.93,-93.4 368.83,-89.63 358.74,-86.4 358.93,-93.4"/>
</g>
<!-- Org&#45;mode -->
<g id="node18" class="node">
<title>Org&#45;mode</title>
<g id="a_node18"><a xlink:href="/Knowledge/Org-mode.html" xlink:title="Org&#45;mode" target="_parent">
<path fill="#273434" stroke="#b75867" d="M430,-73C430,-73 380,-73 380,-73 374,-73 368,-67 368,-61 368,-61 368,-49 368,-49 368,-43 374,-37 380,-37 380,-37 430,-37 430,-37 436,-37 442,-43 442,-49 442,-49 442,-61 442,-61 442,-67 436,-73 430,-73"/>
<text text-anchor="middle" x="405" y="-51.9" font-family="sans" font-size="12.00" fill="#c4c7c7">Org&#45;mode</text>
</a>
</g>
</g>
<!-- Knowledege Base&#45;&gt;Org&#45;mode -->
<g id="edge19" class="edge">
<title>Knowledege Base&#45;&gt;Org&#45;mode</title>
<path fill="none" stroke="#b75867" d="M218.07,-276.79C218.16,-234.67 224.67,-130.11 284,-77 303.82,-59.26 333.06,-53.63 357.72,-52.5"/>
<polygon fill="#b75867" stroke="#b75867" points="358.05,-55.99 367.97,-52.27 357.89,-48.99 358.05,-55.99"/>
</g>
<!-- Projects -->
<g id="node19" class="node">
<title>Projects</title>
<g id="a_node19"><a xlink:href="/Knowledge/Projects.html" xlink:title="Projects" target="_parent">
<path fill="none" stroke="#b75867" d="M424,-36C424,-36 386,-36 386,-36 380,-36 374,-30 374,-24 374,-24 374,-12 374,-12 374,-6 380,0 386,0 386,0 424,0 424,0 430,0 436,-6 436,-12 436,-12 436,-24 436,-24 436,-30 430,-36 424,-36"/>
<text text-anchor="middle" x="405" y="-14.9" font-family="sans" font-size="12.00" fill="#c4c7c7">Projects</text>
</a>
</g>
</g>
<!-- Knowledege Base&#45;&gt;Projects -->
<g id="edge20" class="edge">
<title>Knowledege Base&#45;&gt;Projects</title>
<path fill="none" stroke="#ffffff" d="M221.95,-266.57C229.78,-206.75 250.87,-70.88 284,-40 308.01,-17.61 346.94,-14.27 373.92,-15.12"/>
<polygon fill="#ffffff" stroke="#ffffff" points="218.43,-266.44 220.64,-276.81 225.38,-267.33 218.43,-266.44"/>
</g>
</g>
</svg>
