<?xml version="1.0" encoding="UTF-8" standalone="no"?>
<!DOCTYPE svg PUBLIC "-//W3C//DTD SVG 1.1//EN"
 "http://www.w3.org/Graphics/SVG/1.1/DTD/svg11.dtd">
<!-- Generated by graphviz version 2.44.0 (0)
 -->
<!-- Title: Complex Function Pages: 1 -->
<svg width="440pt" height="155pt"
 viewBox="0.00 0.00 440.00 155.00" xmlns="http://www.w3.org/2000/svg" xmlns:xlink="http://www.w3.org/1999/xlink">
<g id="graph0" class="graph" transform="scale(1 1) rotate(0) translate(4 151)">
<title>Complex Function</title>
<polygon fill="#132020" stroke="transparent" points="-4,4 -4,-151 436,-151 436,4 -4,4"/>
<!-- Complex Function -->
<g id="node1" class="node">
<title>Complex Function</title>
<g id="a_node1"><a xlink:href="/Knowledge/Complex Function.html" xlink:title="Complex Function" target="_parent">
<path fill="#273434" stroke="#b75867" d="M108,-91C108,-91 12,-91 12,-91 6,-91 0,-85 0,-79 0,-79 0,-67 0,-67 0,-61 6,-55 12,-55 12,-55 108,-55 108,-55 114,-55 120,-61 120,-67 120,-67 120,-79 120,-79 120,-85 114,-91 108,-91"/>
<text text-anchor="middle" x="60" y="-69.9" font-family="sans" font-size="12.00" fill="#c4c7c7">Complex Function</text>
</a>
</g>
</g>
<!-- Function Approximation -->
<g id="node2" class="node">
<title>Function Approximation</title>
<g id="a_node2"><a xlink:href="/Knowledge/Function Approximation.html" xlink:title="Function Approximation" target="_parent">
<path fill="none" stroke="#b75867" d="M269,-91C269,-91 140,-91 140,-91 134,-91 128,-85 128,-79 128,-79 128,-67 128,-67 128,-61 134,-55 140,-55 140,-55 269,-55 269,-55 275,-55 281,-61 281,-67 281,-67 281,-79 281,-79 281,-85 275,-91 269,-91"/>
<text text-anchor="middle" x="204.5" y="-69.9" font-family="sans" font-size="12.00" fill="#c4c7c7">Function Approximation</text>
</a>
</g>
</g>
<!-- Complex Function&#45;&gt;Function Approximation -->
<g id="edge1" class="edge">
<title>Complex Function&#45;&gt;Function Approximation</title>
<path fill="none" stroke="#ffffff" d="M127.12,-73C127.27,-73 127.43,-73 127.58,-73"/>
<polygon fill="#ffffff" stroke="#ffffff" points="130.19,-69.5 120.19,-73 130.19,-76.5 130.19,-69.5"/>
</g>
<!-- Function Approximation&#45;&gt;Complex Function -->
<g id="edge5" class="edge">
<title>Function Approximation&#45;&gt;Complex Function</title>
<path fill="none" stroke="#b75867" d="M127.58,-73.75C127.43,-73.75 127.27,-73.75 127.12,-73.75"/>
<polygon fill="#b75867" stroke="#b75867" points="130.2,-70.25 120.19,-73.74 130.19,-77.25 130.2,-70.25"/>
</g>
<!-- Metric Criteria -->
<g id="node3" class="node">
<title>Metric Criteria</title>
<g id="a_node3"><a xlink:href="/Knowledge/Metric Criteria.html" xlink:title="Metric Criteria" target="_parent">
<path fill="#273434" stroke="#b75867" d="M396,-147C396,-147 325,-147 325,-147 319,-147 313,-141 313,-135 313,-135 313,-123 313,-123 313,-117 319,-111 325,-111 325,-111 396,-111 396,-111 402,-111 408,-117 408,-123 408,-123 408,-135 408,-135 408,-141 402,-147 396,-147"/>
<text text-anchor="middle" x="360.5" y="-125.9" font-family="sans" font-size="12.00" fill="#c4c7c7">Metric Criteria</text>
</a>
</g>
</g>
<!-- Function Approximation&#45;&gt;Metric Criteria -->
<g id="edge2" class="edge">
<title>Function Approximation&#45;&gt;Metric Criteria</title>
<path fill="none" stroke="#b75867" d="M248.14,-91.17C261.17,-96.5 275.59,-102.19 289,-107 293.51,-108.62 298.21,-110.24 302.95,-111.82"/>
<polygon fill="#b75867" stroke="#b75867" points="302.08,-115.21 312.67,-114.99 304.25,-108.56 302.08,-115.21"/>
</g>
<!-- Interpolation Criterion -->
<g id="node4" class="node">
<title>Interpolation Criterion</title>
<g id="a_node4"><a xlink:href="/Knowledge/Interpolation Criterion.html" xlink:title="Interpolation Criterion" target="_parent">
<path fill="#273434" stroke="#b75867" d="M420,-110C420,-110 301,-110 301,-110 295,-110 289,-104 289,-98 289,-98 289,-86 289,-86 289,-80 295,-74 301,-74 301,-74 420,-74 420,-74 426,-74 432,-80 432,-86 432,-86 432,-98 432,-98 432,-104 426,-110 420,-110"/>
<text text-anchor="middle" x="360.5" y="-88.9" font-family="sans" font-size="12.00" fill="#c4c7c7">Interpolation Criterion</text>
</a>
</g>
</g>
<!-- Function Approximation&#45;&gt;Interpolation Criterion -->
<g id="edge3" class="edge">
<title>Function Approximation&#45;&gt;Interpolation Criterion</title>
<path fill="none" stroke="#b75867" d="M281.15,-82.33C281.31,-82.35 281.47,-82.37 281.63,-82.39"/>
<polygon fill="#b75867" stroke="#b75867" points="278.55,-85.54 288.9,-83.29 279.4,-78.59 278.55,-85.54"/>
</g>
<!-- Simple Function -->
<g id="node5" class="node">
<title>Simple Function</title>
<g id="a_node5"><a xlink:href="/Knowledge/Simple Function.html" xlink:title="Simple Function" target="_parent">
<path fill="#273434" stroke="#b75867" d="M403.5,-73C403.5,-73 317.5,-73 317.5,-73 311.5,-73 305.5,-67 305.5,-61 305.5,-61 305.5,-49 305.5,-49 305.5,-43 311.5,-37 317.5,-37 317.5,-37 403.5,-37 403.5,-37 409.5,-37 415.5,-43 415.5,-49 415.5,-49 415.5,-61 415.5,-61 415.5,-67 409.5,-73 403.5,-73"/>
<text text-anchor="middle" x="360.5" y="-51.9" font-family="sans" font-size="12.00" fill="#c4c7c7">Simple Function</text>
</a>
</g>
</g>
<!-- Function Approximation&#45;&gt;Simple Function -->
<g id="edge4" class="edge">
<title>Function Approximation&#45;&gt;Simple Function</title>
<path fill="none" stroke="#b75867" d="M281.15,-64.16C285.9,-63.6 290.65,-63.05 295.34,-62.5"/>
<polygon fill="#b75867" stroke="#b75867" points="295.95,-65.95 305.48,-61.31 295.14,-59 295.95,-65.95"/>
</g>
<!-- Numeric Methods -->
<g id="node6" class="node">
<title>Numeric Methods</title>
<g id="a_node6"><a xlink:href="/Knowledge/Numeric Methods.html" xlink:title="Numeric Methods" target="_parent">
<path fill="none" stroke="#b75867" d="M406.5,-36C406.5,-36 314.5,-36 314.5,-36 308.5,-36 302.5,-30 302.5,-24 302.5,-24 302.5,-12 302.5,-12 302.5,-6 308.5,0 314.5,0 314.5,0 406.5,0 406.5,0 412.5,0 418.5,-6 418.5,-12 418.5,-12 418.5,-24 418.5,-24 418.5,-30 412.5,-36 406.5,-36"/>
<text text-anchor="middle" x="360.5" y="-14.9" font-family="sans" font-size="12.00" fill="#c4c7c7">Numeric Methods</text>
</a>
</g>
</g>
<!-- Function Approximation&#45;&gt;Numeric Methods -->
<g id="edge6" class="edge">
<title>Function Approximation&#45;&gt;Numeric Methods</title>
<path fill="none" stroke="#ffffff" d="M258.87,-51.23C268.84,-47.36 279.2,-43.46 289,-40 293.35,-38.46 297.87,-36.92 302.43,-35.41"/>
<polygon fill="#ffffff" stroke="#ffffff" points="257.5,-48.01 249.47,-54.92 260.06,-54.52 257.5,-48.01"/>
</g>
</g>
</svg>
