<?xml version="1.0" encoding="UTF-8" standalone="no"?>
<!DOCTYPE svg PUBLIC "-//W3C//DTD SVG 1.1//EN"
 "http://www.w3.org/Graphics/SVG/1.1/DTD/svg11.dtd">
<!-- Generated by graphviz version 2.46.1 (0)
 -->
<!-- Title: Contour Pages: 1 -->
<svg width="429pt" height="155pt"
 viewBox="0.00 0.00 429.00 155.00" xmlns="http://www.w3.org/2000/svg" xmlns:xlink="http://www.w3.org/1999/xlink">
<g id="graph0" class="graph" transform="scale(1 1) rotate(0) translate(4 151)">
<title>Contour</title>
<polygon fill="#132020" stroke="transparent" points="-4,4 -4,-151 425,-151 425,4 -4,4"/>
<!-- Contour -->
<g id="node1" class="node">
<title>Contour</title>
<g id="a_node1"><a xlink:href="/Knowledge/contour.html" xlink:title="Contour" target="_parent">
<path fill="#273434" stroke="#b75867" d="M47,-100C47,-100 12,-100 12,-100 6,-100 0,-94 0,-88 0,-88 0,-76 0,-76 0,-70 6,-64 12,-64 12,-64 47,-64 47,-64 53,-64 59,-70 59,-76 59,-76 59,-88 59,-88 59,-94 53,-100 47,-100"/>
<text text-anchor="middle" x="29.5" y="-78.9" font-family="sans" font-size="12.00" fill="#c4c7c7">Contour</text>
</a>
</g>
</g>
<!-- Chain -->
<g id="node2" class="node">
<title>Chain</title>
<g id="a_node2"><a xlink:href="/Knowledge/chain.html" xlink:title="Chain" target="_parent">
<path fill="#273434" stroke="#b75867" d="M109,-90C109,-90 79,-90 79,-90 73,-90 67,-84 67,-78 67,-78 67,-66 67,-66 67,-60 73,-54 79,-54 79,-54 109,-54 109,-54 115,-54 121,-60 121,-66 121,-66 121,-78 121,-78 121,-84 115,-90 109,-90"/>
<text text-anchor="middle" x="94" y="-68.9" font-family="sans" font-size="12.00" fill="#c4c7c7">Chain</text>
</a>
</g>
</g>
<!-- Contour&#45;&gt;Chain -->
<g id="edge1" class="edge">
<title>Contour&#45;&gt;Chain</title>
<path fill="none" stroke="#b75867" d="M59.19,-77.41C59.35,-77.38 59.51,-77.36 59.67,-77.33"/>
<polygon fill="#b75867" stroke="#b75867" points="57.57,-81.21 66.89,-76.18 56.46,-74.3 57.57,-81.21"/>
</g>
<!-- Partial orders have no contours -->
<g id="node3" class="node">
<title>Partial orders have no contours</title>
<g id="a_node3"><a xlink:href="/Knowledge/partial_orders_have_no_contours.html" xlink:title="Partial orders have no contours" target="_parent">
<path fill="none" stroke="#b75867" d="M291,-110C291,-110 141,-110 141,-110 135,-110 129,-104 129,-98 129,-98 129,-86 129,-86 129,-80 135,-74 141,-74 141,-74 291,-74 291,-74 297,-74 303,-80 303,-86 303,-86 303,-98 303,-98 303,-104 297,-110 291,-110"/>
<text text-anchor="middle" x="216" y="-88.9" font-family="sans" font-size="12.00" fill="#c4c7c7">Partial orders have no contours</text>
</a>
</g>
</g>
<!-- Contour&#45;&gt;Partial orders have no contours -->
<g id="edge2" class="edge">
<title>Contour&#45;&gt;Partial orders have no contours</title>
<path fill="none" stroke="#ffffff" d="M69.31,-87.08C92.35,-88.98 111.06,-89.92 128.83,-90.58"/>
<polygon fill="#ffffff" stroke="#ffffff" points="69.42,-83.58 59.16,-86.21 68.82,-90.55 69.42,-83.58"/>
</g>
<!-- Chain&#45;&gt;Contour -->
<g id="edge4" class="edge">
<title>Chain&#45;&gt;Contour</title>
<path fill="none" stroke="#b75867" d="M66.89,-76.92C66.73,-76.94 66.57,-76.97 66.41,-77"/>
<polygon fill="#b75867" stroke="#b75867" points="68.51,-73.11 59.19,-78.16 69.62,-80.03 68.51,-73.11"/>
</g>
<!-- Chain&#45;&gt;Partial orders have no contours -->
<g id="edge3" class="edge">
<title>Chain&#45;&gt;Partial orders have no contours</title>
<path fill="none" stroke="#b75867" d="M121.04,-76.34C121.19,-76.37 121.35,-76.39 121.5,-76.42"/>
<polygon fill="#b75867" stroke="#b75867" points="118.36,-79.44 128.8,-77.63 119.51,-72.54 118.36,-79.44"/>
</g>
<!-- Relation -->
<g id="node4" class="node">
<title>Relation</title>
<g id="a_node4"><a xlink:href="/Knowledge/relation.html" xlink:title="Relation" target="_parent">
<path fill="#273434" stroke="#b75867" d="M233.5,-73C233.5,-73 198.5,-73 198.5,-73 192.5,-73 186.5,-67 186.5,-61 186.5,-61 186.5,-49 186.5,-49 186.5,-43 192.5,-37 198.5,-37 198.5,-37 233.5,-37 233.5,-37 239.5,-37 245.5,-43 245.5,-49 245.5,-49 245.5,-61 245.5,-61 245.5,-67 239.5,-73 233.5,-73"/>
<text text-anchor="middle" x="216" y="-51.9" font-family="sans" font-size="12.00" fill="#c4c7c7">Relation</text>
</a>
</g>
</g>
<!-- Chain&#45;&gt;Relation -->
<g id="edge5" class="edge">
<title>Chain&#45;&gt;Relation</title>
<path fill="none" stroke="#b75867" d="M121.04,-68.31C137.25,-66.01 158.39,-63.02 176.51,-60.45"/>
<polygon fill="#b75867" stroke="#b75867" points="177.08,-63.91 186.5,-59.04 176.1,-56.98 177.08,-63.91"/>
</g>
<!-- Relations -->
<g id="node5" class="node">
<title>Relations</title>
<g id="a_node5"><a xlink:href="/Knowledge/relations.html" xlink:title="Relations" target="_parent">
<path fill="none" stroke="#b75867" d="M236,-36C236,-36 196,-36 196,-36 190,-36 184,-30 184,-24 184,-24 184,-12 184,-12 184,-6 190,0 196,0 196,0 236,0 236,0 242,0 248,-6 248,-12 248,-12 248,-24 248,-24 248,-30 242,-36 236,-36"/>
<text text-anchor="middle" x="216" y="-14.9" font-family="sans" font-size="12.00" fill="#c4c7c7">Relations</text>
</a>
</g>
</g>
<!-- Chain&#45;&gt;Relations -->
<g id="edge6" class="edge">
<title>Chain&#45;&gt;Relations</title>
<path fill="none" stroke="#ffffff" d="M118.66,-47.03C121.94,-44.39 125.43,-41.97 129,-40 145.88,-30.72 166.78,-25.25 183.75,-22.09"/>
<polygon fill="#ffffff" stroke="#ffffff" points="116.11,-44.61 110.94,-53.85 120.75,-49.85 116.11,-44.61"/>
</g>
<!-- Partial orders have no contours&#45;&gt;Contour -->
<g id="edge7" class="edge">
<title>Partial orders have no contours&#45;&gt;Contour</title>
<path fill="none" stroke="#b75867" d="M128.83,-91.55C111.06,-90.92 92.35,-89.98 69.31,-88.08"/>
<polygon fill="#b75867" stroke="#b75867" points="69.42,-84.58 59.16,-87.2 68.82,-91.55 69.42,-84.58"/>
</g>
<!-- Partial orders have no contours&#45;&gt;Chain -->
<g id="edge11" class="edge">
<title>Partial orders have no contours&#45;&gt;Chain</title>
<path fill="none" stroke="#ffffff" d="M121.5,-77.05C121.35,-77.02 121.19,-77 121.04,-76.97"/>
<polygon fill="#ffffff" stroke="#ffffff" points="118.35,-80.06 128.8,-78.32 119.55,-73.16 118.35,-80.06"/>
</g>
<!-- Partial order -->
<g id="node6" class="node">
<title>Partial order</title>
<g id="a_node6"><a xlink:href="/Knowledge/partial_order.html" xlink:title="Partial order" target="_parent">
<path fill="#273434" stroke="#b75867" d="M393.5,-147C393.5,-147 338.5,-147 338.5,-147 332.5,-147 326.5,-141 326.5,-135 326.5,-135 326.5,-123 326.5,-123 326.5,-117 332.5,-111 338.5,-111 338.5,-111 393.5,-111 393.5,-111 399.5,-111 405.5,-117 405.5,-123 405.5,-123 405.5,-135 405.5,-135 405.5,-141 399.5,-147 393.5,-147"/>
<text text-anchor="middle" x="366" y="-125.9" font-family="sans" font-size="12.00" fill="#c4c7c7">Partial order</text>
</a>
</g>
</g>
<!-- Partial orders have no contours&#45;&gt;Partial order -->
<g id="edge8" class="edge">
<title>Partial orders have no contours&#45;&gt;Partial order</title>
<path fill="none" stroke="#b75867" d="M289.27,-110.07C298.44,-112.36 307.65,-114.66 316.34,-116.83"/>
<polygon fill="#b75867" stroke="#b75867" points="315.7,-120.28 326.25,-119.31 317.4,-113.49 315.7,-120.28"/>
</g>
<!-- Transitive Relation -->
<g id="node7" class="node">
<title>Transitive Relation</title>
<g id="a_node7"><a xlink:href="/Knowledge/transitive_relation.html" xlink:title="Transitive Relation" target="_parent">
<path fill="#273434" stroke="#b75867" d="M409,-110C409,-110 323,-110 323,-110 317,-110 311,-104 311,-98 311,-98 311,-86 311,-86 311,-80 317,-74 323,-74 323,-74 409,-74 409,-74 415,-74 421,-80 421,-86 421,-86 421,-98 421,-98 421,-104 415,-110 409,-110"/>
<text text-anchor="middle" x="366" y="-88.9" font-family="sans" font-size="12.00" fill="#c4c7c7">Transitive Relation</text>
</a>
</g>
</g>
<!-- Partial orders have no contours&#45;&gt;Transitive Relation -->
<g id="edge9" class="edge">
<title>Partial orders have no contours&#45;&gt;Transitive Relation</title>
<path fill="none" stroke="#b75867" d="M303.09,-92C303.25,-92 303.41,-92 303.57,-92"/>
<polygon fill="#b75867" stroke="#b75867" points="300.65,-95.5 310.65,-92 300.65,-88.5 300.65,-95.5"/>
</g>
<!-- Reflexive Relation -->
<g id="node8" class="node">
<title>Reflexive Relation</title>
<g id="a_node8"><a xlink:href="/Knowledge/reflexive_relation.html" xlink:title="Reflexive Relation" target="_parent">
<path fill="#273434" stroke="#b75867" d="M407,-73C407,-73 325,-73 325,-73 319,-73 313,-67 313,-61 313,-61 313,-49 313,-49 313,-43 319,-37 325,-37 325,-37 407,-37 407,-37 413,-37 419,-43 419,-49 419,-49 419,-61 419,-61 419,-67 413,-73 407,-73"/>
<text text-anchor="middle" x="366" y="-51.9" font-family="sans" font-size="12.00" fill="#c4c7c7">Reflexive Relation</text>
</a>
</g>
</g>
<!-- Partial orders have no contours&#45;&gt;Reflexive Relation -->
<g id="edge10" class="edge">
<title>Partial orders have no contours&#45;&gt;Reflexive Relation</title>
<path fill="none" stroke="#b75867" d="M289.27,-73.93C293.85,-72.79 298.44,-71.64 302.97,-70.51"/>
<polygon fill="#b75867" stroke="#b75867" points="303.9,-73.88 312.76,-68.06 302.21,-67.09 303.9,-73.88"/>
</g>
</g>
</svg>
