<?xml version="1.0" encoding="UTF-8" standalone="no"?>
<!DOCTYPE svg PUBLIC "-//W3C//DTD SVG 1.1//EN"
 "http://www.w3.org/Graphics/SVG/1.1/DTD/svg11.dtd">
<!-- Generated by graphviz version 2.46.1 (0)
 -->
<!-- Title: Descartes Product Pages: 1 -->
<svg width="372pt" height="562pt"
 viewBox="0.00 0.00 372.00 562.00" xmlns="http://www.w3.org/2000/svg" xmlns:xlink="http://www.w3.org/1999/xlink">
<g id="graph0" class="graph" transform="scale(1 1) rotate(0) translate(4 558)">
<title>Descartes Product</title>
<polygon fill="#132020" stroke="transparent" points="-4,4 -4,-558 368,-558 368,4 -4,4"/>
<!-- Descartes Product -->
<g id="node1" class="node">
<title>Descartes Product</title>
<g id="a_node1"><a xlink:href="/Knowledge/descartes_product.html" xlink:title="Descartes Product" target="_parent">
<path fill="#273434" stroke="#b75867" d="M96,-295C96,-295 12,-295 12,-295 6,-295 0,-289 0,-283 0,-283 0,-271 0,-271 0,-265 6,-259 12,-259 12,-259 96,-259 96,-259 102,-259 108,-265 108,-271 108,-271 108,-283 108,-283 108,-289 102,-295 96,-295"/>
<text text-anchor="middle" x="54" y="-273.9" font-family="sans" font-size="12.00" fill="#c4c7c7">Descartes Product</text>
</a>
</g>
</g>
<!-- Relation -->
<g id="node2" class="node">
<title>Relation</title>
<g id="a_node2"><a xlink:href="/Knowledge/relation.html" xlink:title="Relation" target="_parent">
<path fill="none" stroke="#b75867" d="M163,-295C163,-295 128,-295 128,-295 122,-295 116,-289 116,-283 116,-283 116,-271 116,-271 116,-265 122,-259 128,-259 128,-259 163,-259 163,-259 169,-259 175,-265 175,-271 175,-271 175,-283 175,-283 175,-289 169,-295 163,-295"/>
<text text-anchor="middle" x="145.5" y="-273.9" font-family="sans" font-size="12.00" fill="#c4c7c7">Relation</text>
</a>
</g>
</g>
<!-- Descartes Product&#45;&gt;Relation -->
<g id="edge1" class="edge">
<title>Descartes Product&#45;&gt;Relation</title>
<path fill="none" stroke="#ffffff" d="M115.17,-277C115.32,-277 115.47,-277 115.63,-277"/>
<polygon fill="#ffffff" stroke="#ffffff" points="118.1,-273.5 108.1,-277 118.1,-280.5 118.1,-273.5"/>
</g>
<!-- Relation&#45;&gt;Descartes Product -->
<g id="edge2" class="edge">
<title>Relation&#45;&gt;Descartes Product</title>
<path fill="none" stroke="#b75867" d="M115.63,-277.71C115.47,-277.71 115.32,-277.71 115.17,-277.71"/>
<polygon fill="#b75867" stroke="#b75867" points="118.08,-274.2 108.1,-277.74 118.11,-281.2 118.08,-274.2"/>
</g>
<!-- Partial order -->
<g id="node3" class="node">
<title>Partial order</title>
<g id="a_node3"><a xlink:href="/Knowledge/partial_order.html" xlink:title="Partial order" target="_parent">
<path fill="none" stroke="#b75867" d="M301,-554C301,-554 246,-554 246,-554 240,-554 234,-548 234,-542 234,-542 234,-530 234,-530 234,-524 240,-518 246,-518 246,-518 301,-518 301,-518 307,-518 313,-524 313,-530 313,-530 313,-542 313,-542 313,-548 307,-554 301,-554"/>
<text text-anchor="middle" x="273.5" y="-532.9" font-family="sans" font-size="12.00" fill="#c4c7c7">Partial order</text>
</a>
</g>
</g>
<!-- Relation&#45;&gt;Partial order -->
<g id="edge3" class="edge">
<title>Relation&#45;&gt;Partial order</title>
<path fill="none" stroke="#ffffff" d="M147.05,-305.45C148.73,-361.63 155.53,-483.99 183,-514 195.75,-527.93 215.76,-533.69 233.63,-535.85"/>
<polygon fill="#ffffff" stroke="#ffffff" points="150.54,-305.05 146.78,-295.14 143.54,-305.23 150.54,-305.05"/>
</g>
<!-- Chain -->
<g id="node4" class="node">
<title>Chain</title>
<g id="a_node4"><a xlink:href="/Knowledge/chain.html" xlink:title="Chain" target="_parent">
<path fill="none" stroke="#b75867" d="M288.5,-517C288.5,-517 258.5,-517 258.5,-517 252.5,-517 246.5,-511 246.5,-505 246.5,-505 246.5,-493 246.5,-493 246.5,-487 252.5,-481 258.5,-481 258.5,-481 288.5,-481 288.5,-481 294.5,-481 300.5,-487 300.5,-493 300.5,-493 300.5,-505 300.5,-505 300.5,-511 294.5,-517 288.5,-517"/>
<text text-anchor="middle" x="273.5" y="-495.9" font-family="sans" font-size="12.00" fill="#c4c7c7">Chain</text>
</a>
</g>
</g>
<!-- Relation&#45;&gt;Chain -->
<g id="edge4" class="edge">
<title>Relation&#45;&gt;Chain</title>
<path fill="none" stroke="#ffffff" d="M147.96,-305.42C151.08,-354.6 160.06,-452.63 183,-477 199.12,-494.13 226.24,-498.84 246.41,-499.75"/>
<polygon fill="#ffffff" stroke="#ffffff" points="151.44,-304.93 147.35,-295.16 144.45,-305.35 151.44,-304.93"/>
</g>
<!-- Linear order -->
<g id="node5" class="node">
<title>Linear order</title>
<g id="a_node5"><a xlink:href="/Knowledge/linear_order.html" xlink:title="Linear order" target="_parent">
<path fill="none" stroke="#b75867" d="M301,-480C301,-480 246,-480 246,-480 240,-480 234,-474 234,-468 234,-468 234,-456 234,-456 234,-450 240,-444 246,-444 246,-444 301,-444 301,-444 307,-444 313,-450 313,-456 313,-456 313,-468 313,-468 313,-474 307,-480 301,-480"/>
<text text-anchor="middle" x="273.5" y="-458.9" font-family="sans" font-size="12.00" fill="#c4c7c7">Linear order</text>
</a>
</g>
</g>
<!-- Relation&#45;&gt;Linear order -->
<g id="edge5" class="edge">
<title>Relation&#45;&gt;Linear order</title>
<path fill="none" stroke="#ffffff" d="M149.25,-305.16C153.86,-346.6 164.52,-421.13 183,-440 196.1,-453.37 215.92,-459.12 233.58,-461.41"/>
<polygon fill="#ffffff" stroke="#ffffff" points="152.72,-304.72 148.18,-295.15 145.76,-305.47 152.72,-304.72"/>
</g>
<!-- Partial function -->
<g id="node6" class="node">
<title>Partial function</title>
<g id="a_node6"><a xlink:href="/Knowledge/partial_function.html" xlink:title="Partial function" target="_parent">
<path fill="none" stroke="#b75867" d="M308.5,-443C308.5,-443 238.5,-443 238.5,-443 232.5,-443 226.5,-437 226.5,-431 226.5,-431 226.5,-419 226.5,-419 226.5,-413 232.5,-407 238.5,-407 238.5,-407 308.5,-407 308.5,-407 314.5,-407 320.5,-413 320.5,-419 320.5,-419 320.5,-431 320.5,-431 320.5,-437 314.5,-443 308.5,-443"/>
<text text-anchor="middle" x="273.5" y="-421.9" font-family="sans" font-size="12.00" fill="#c4c7c7">Partial function</text>
</a>
</g>
</g>
<!-- Relation&#45;&gt;Partial function -->
<g id="edge6" class="edge">
<title>Relation&#45;&gt;Partial function</title>
<path fill="none" stroke="#ffffff" d="M146.91,-305.48C148.89,-334.11 156.48,-377.55 183,-403 194.54,-414.08 210.73,-419.86 226.16,-422.79"/>
<polygon fill="#ffffff" stroke="#ffffff" points="150.39,-305.11 146.39,-295.3 143.4,-305.47 150.39,-305.11"/>
</g>
<!-- Total function -->
<g id="node7" class="node">
<title>Total function</title>
<g id="a_node7"><a xlink:href="/Knowledge/total_function.html" xlink:title="Total function" target="_parent">
<path fill="none" stroke="#b75867" d="M304.5,-406C304.5,-406 242.5,-406 242.5,-406 236.5,-406 230.5,-400 230.5,-394 230.5,-394 230.5,-382 230.5,-382 230.5,-376 236.5,-370 242.5,-370 242.5,-370 304.5,-370 304.5,-370 310.5,-370 316.5,-376 316.5,-382 316.5,-382 316.5,-394 316.5,-394 316.5,-400 310.5,-406 304.5,-406"/>
<text text-anchor="middle" x="273.5" y="-384.9" font-family="sans" font-size="12.00" fill="#c4c7c7">Total function</text>
</a>
</g>
</g>
<!-- Relation&#45;&gt;Total function -->
<g id="edge7" class="edge">
<title>Relation&#45;&gt;Total function</title>
<path fill="none" stroke="#ffffff" d="M151.12,-305.2C155.83,-324.99 165.09,-350.57 183,-366 196.09,-377.28 214.06,-382.96 230.47,-385.75"/>
<polygon fill="#ffffff" stroke="#ffffff" points="154.5,-304.25 149.01,-295.19 147.65,-305.7 154.5,-304.25"/>
</g>
<!-- Reflexive Relation -->
<g id="node8" class="node">
<title>Reflexive Relation</title>
<g id="a_node8"><a xlink:href="/Knowledge/reflexive_relation.html" xlink:title="Reflexive Relation" target="_parent">
<path fill="none" stroke="#b75867" d="M314.5,-369C314.5,-369 232.5,-369 232.5,-369 226.5,-369 220.5,-363 220.5,-357 220.5,-357 220.5,-345 220.5,-345 220.5,-339 226.5,-333 232.5,-333 232.5,-333 314.5,-333 314.5,-333 320.5,-333 326.5,-339 326.5,-345 326.5,-345 326.5,-357 326.5,-357 326.5,-363 320.5,-369 314.5,-369"/>
<text text-anchor="middle" x="273.5" y="-347.9" font-family="sans" font-size="12.00" fill="#c4c7c7">Reflexive Relation</text>
</a>
</g>
</g>
<!-- Relation&#45;&gt;Reflexive Relation -->
<g id="edge8" class="edge">
<title>Relation&#45;&gt;Reflexive Relation</title>
<path fill="none" stroke="#ffffff" d="M160.28,-304.12C166.15,-313.24 173.78,-322.7 183,-329 193.96,-336.5 207.22,-341.45 220.14,-344.71"/>
<polygon fill="#ffffff" stroke="#ffffff" points="163.13,-302.05 155.02,-295.24 157.1,-305.62 163.13,-302.05"/>
</g>
<!-- Symmetric Closure -->
<g id="node9" class="node">
<title>Symmetric Closure</title>
<g id="a_node9"><a xlink:href="/Knowledge/symmetric_closure.html" xlink:title="Symmetric Closure" target="_parent">
<path fill="none" stroke="#b75867" d="M317,-332C317,-332 230,-332 230,-332 224,-332 218,-326 218,-320 218,-320 218,-308 218,-308 218,-302 224,-296 230,-296 230,-296 317,-296 317,-296 323,-296 329,-302 329,-308 329,-308 329,-320 329,-320 329,-326 323,-332 317,-332"/>
<text text-anchor="middle" x="273.5" y="-310.9" font-family="sans" font-size="12.00" fill="#c4c7c7">Symmetric Closure</text>
</a>
</g>
</g>
<!-- Relation&#45;&gt;Symmetric Closure -->
<g id="edge9" class="edge">
<title>Relation&#45;&gt;Symmetric Closure</title>
<path fill="none" stroke="#ffffff" d="M184.68,-292.38C198.42,-296.81 208.23,-299.5 217.7,-301.9"/>
<polygon fill="#ffffff" stroke="#ffffff" points="185.63,-289.01 175.04,-289.2 183.44,-295.66 185.63,-289.01"/>
</g>
<!-- Anti&#45;symmetric Relation -->
<g id="node10" class="node">
<title>Anti&#45;symmetric Relation</title>
<g id="a_node10"><a xlink:href="/Knowledge/anti-symmetric_relation.html" xlink:title="Anti&#45;symmetric Relation" target="_parent">
<path fill="none" stroke="#b75867" d="M330,-295C330,-295 217,-295 217,-295 211,-295 205,-289 205,-283 205,-283 205,-271 205,-271 205,-265 211,-259 217,-259 217,-259 330,-259 330,-259 336,-259 342,-265 342,-271 342,-271 342,-283 342,-283 342,-289 336,-295 330,-295"/>
<text text-anchor="middle" x="273.5" y="-273.9" font-family="sans" font-size="12.00" fill="#c4c7c7">Anti&#45;symmetric Relation</text>
</a>
</g>
</g>
<!-- Relation&#45;&gt;Anti&#45;symmetric Relation -->
<g id="edge10" class="edge">
<title>Relation&#45;&gt;Anti&#45;symmetric Relation</title>
<path fill="none" stroke="#ffffff" d="M185.27,-277C191.56,-277 198.23,-277 204.98,-277"/>
<polygon fill="#ffffff" stroke="#ffffff" points="185.09,-273.5 175.09,-277 185.09,-280.5 185.09,-273.5"/>
</g>
<!-- Symmetric Relation -->
<g id="node11" class="node">
<title>Symmetric Relation</title>
<g id="a_node11"><a xlink:href="/Knowledge/symmetric_relation.html" xlink:title="Symmetric Relation" target="_parent">
<path fill="none" stroke="#b75867" d="M319,-258C319,-258 228,-258 228,-258 222,-258 216,-252 216,-246 216,-246 216,-234 216,-234 216,-228 222,-222 228,-222 228,-222 319,-222 319,-222 325,-222 331,-228 331,-234 331,-234 331,-246 331,-246 331,-252 325,-258 319,-258"/>
<text text-anchor="middle" x="273.5" y="-236.9" font-family="sans" font-size="12.00" fill="#c4c7c7">Symmetric Relation</text>
</a>
</g>
</g>
<!-- Relation&#45;&gt;Symmetric Relation -->
<g id="edge11" class="edge">
<title>Relation&#45;&gt;Symmetric Relation</title>
<path fill="none" stroke="#ffffff" d="M184.72,-261.6C197.73,-257.4 206.89,-254.87 215.8,-252.58"/>
<polygon fill="#ffffff" stroke="#ffffff" points="183.44,-258.34 175.04,-264.8 185.63,-264.98 183.44,-258.34"/>
</g>
<!-- Reflexive Closure -->
<g id="node12" class="node">
<title>Reflexive Closure</title>
<g id="a_node12"><a xlink:href="/Knowledge/reflexive_closure.html" xlink:title="Reflexive Closure" target="_parent">
<path fill="none" stroke="#b75867" d="M312.5,-221C312.5,-221 234.5,-221 234.5,-221 228.5,-221 222.5,-215 222.5,-209 222.5,-209 222.5,-197 222.5,-197 222.5,-191 228.5,-185 234.5,-185 234.5,-185 312.5,-185 312.5,-185 318.5,-185 324.5,-191 324.5,-197 324.5,-197 324.5,-209 324.5,-209 324.5,-215 318.5,-221 312.5,-221"/>
<text text-anchor="middle" x="273.5" y="-199.9" font-family="sans" font-size="12.00" fill="#c4c7c7">Reflexive Closure</text>
</a>
</g>
</g>
<!-- Relation&#45;&gt;Reflexive Closure -->
<g id="edge12" class="edge">
<title>Relation&#45;&gt;Reflexive Closure</title>
<path fill="none" stroke="#ffffff" d="M160.28,-249.88C166.15,-240.76 173.78,-231.3 183,-225 194.62,-217.05 208.83,-211.97 222.47,-208.72"/>
<polygon fill="#ffffff" stroke="#ffffff" points="157.1,-248.38 155.02,-258.76 163.13,-251.95 157.1,-248.38"/>
</g>
<!-- Anti&#45;reflexive relation -->
<g id="node13" class="node">
<title>Anti&#45;reflexive relation</title>
<g id="a_node13"><a xlink:href="/Knowledge/anti-reflexive_relation.html" xlink:title="Anti&#45;reflexive relation" target="_parent">
<path fill="none" stroke="#b75867" d="M323.5,-184C323.5,-184 223.5,-184 223.5,-184 217.5,-184 211.5,-178 211.5,-172 211.5,-172 211.5,-160 211.5,-160 211.5,-154 217.5,-148 223.5,-148 223.5,-148 323.5,-148 323.5,-148 329.5,-148 335.5,-154 335.5,-160 335.5,-160 335.5,-172 335.5,-172 335.5,-178 329.5,-184 323.5,-184"/>
<text text-anchor="middle" x="273.5" y="-162.9" font-family="sans" font-size="12.00" fill="#c4c7c7">Anti&#45;reflexive relation</text>
</a>
</g>
</g>
<!-- Relation&#45;&gt;Anti&#45;reflexive relation -->
<g id="edge13" class="edge">
<title>Relation&#45;&gt;Anti&#45;reflexive relation</title>
<path fill="none" stroke="#ffffff" d="M151.12,-248.8C155.83,-229.01 165.09,-203.43 183,-188 191.12,-181 201.12,-176.16 211.46,-172.82"/>
<polygon fill="#ffffff" stroke="#ffffff" points="147.65,-248.3 149.01,-258.81 154.5,-249.75 147.65,-248.3"/>
</g>
<!-- Strongly Anti&#45;symmetric Relation -->
<g id="node14" class="node">
<title>Strongly Anti&#45;symmetric Relation</title>
<g id="a_node14"><a xlink:href="/Knowledge/strongly_anti-symmetric_relation.html" xlink:title="Strongly Anti&#45;symmetric Relation" target="_parent">
<path fill="none" stroke="#b75867" d="M352,-147C352,-147 195,-147 195,-147 189,-147 183,-141 183,-135 183,-135 183,-123 183,-123 183,-117 189,-111 195,-111 195,-111 352,-111 352,-111 358,-111 364,-117 364,-123 364,-123 364,-135 364,-135 364,-141 358,-147 352,-147"/>
<text text-anchor="middle" x="273.5" y="-125.9" font-family="sans" font-size="12.00" fill="#c4c7c7">Strongly Anti&#45;symmetric Relation</text>
</a>
</g>
</g>
<!-- Relation&#45;&gt;Strongly Anti&#45;symmetric Relation -->
<g id="edge14" class="edge">
<title>Relation&#45;&gt;Strongly Anti&#45;symmetric Relation</title>
<path fill="none" stroke="#ffffff" d="M146.91,-248.52C148.89,-219.89 156.48,-176.45 183,-151 184.39,-149.67 185.84,-148.42 187.35,-147.24"/>
<polygon fill="#ffffff" stroke="#ffffff" points="143.4,-248.53 146.39,-258.7 150.39,-248.89 143.4,-248.53"/>
</g>
<!-- Relations -->
<g id="node15" class="node">
<title>Relations</title>
<g id="a_node15"><a xlink:href="/Knowledge/relations.html" xlink:title="Relations" target="_parent">
<path fill="none" stroke="#b75867" d="M293.5,-110C293.5,-110 253.5,-110 253.5,-110 247.5,-110 241.5,-104 241.5,-98 241.5,-98 241.5,-86 241.5,-86 241.5,-80 247.5,-74 253.5,-74 253.5,-74 293.5,-74 293.5,-74 299.5,-74 305.5,-80 305.5,-86 305.5,-86 305.5,-98 305.5,-98 305.5,-104 299.5,-110 293.5,-110"/>
<text text-anchor="middle" x="273.5" y="-88.9" font-family="sans" font-size="12.00" fill="#c4c7c7">Relations</text>
</a>
</g>
</g>
<!-- Relation&#45;&gt;Relations -->
<g id="edge15" class="edge">
<title>Relation&#45;&gt;Relations</title>
<path fill="none" stroke="#ffffff" d="M149.25,-248.84C153.86,-207.4 164.52,-132.87 183,-114 198,-98.68 221.82,-93.37 241.12,-91.79"/>
<polygon fill="#ffffff" stroke="#ffffff" points="145.76,-248.53 148.18,-258.85 152.72,-249.28 145.76,-248.53"/>
</g>
<!-- Transitive Relation -->
<g id="node16" class="node">
<title>Transitive Relation</title>
<g id="a_node16"><a xlink:href="/Knowledge/transitive_relation.html" xlink:title="Transitive Relation" target="_parent">
<path fill="none" stroke="#b75867" d="M316.5,-73C316.5,-73 230.5,-73 230.5,-73 224.5,-73 218.5,-67 218.5,-61 218.5,-61 218.5,-49 218.5,-49 218.5,-43 224.5,-37 230.5,-37 230.5,-37 316.5,-37 316.5,-37 322.5,-37 328.5,-43 328.5,-49 328.5,-49 328.5,-61 328.5,-61 328.5,-67 322.5,-73 316.5,-73"/>
<text text-anchor="middle" x="273.5" y="-51.9" font-family="sans" font-size="12.00" fill="#c4c7c7">Transitive Relation</text>
</a>
</g>
</g>
<!-- Relation&#45;&gt;Transitive Relation -->
<g id="edge16" class="edge">
<title>Relation&#45;&gt;Transitive Relation</title>
<path fill="none" stroke="#ffffff" d="M147.96,-248.58C151.08,-199.4 160.06,-101.37 183,-77 192.21,-67.21 205.01,-61.48 218.06,-58.19"/>
<polygon fill="#ffffff" stroke="#ffffff" points="144.45,-248.65 147.35,-258.84 151.44,-249.07 144.45,-248.65"/>
</g>
<!-- Relation of Equivalence -->
<g id="node17" class="node">
<title>Relation of Equivalence</title>
<g id="a_node17"><a xlink:href="/Knowledge/relation_of_equivalence.html" xlink:title="Relation of Equivalence" target="_parent">
<path fill="none" stroke="#b75867" d="M328.5,-36C328.5,-36 218.5,-36 218.5,-36 212.5,-36 206.5,-30 206.5,-24 206.5,-24 206.5,-12 206.5,-12 206.5,-6 212.5,0 218.5,0 218.5,0 328.5,0 328.5,0 334.5,0 340.5,-6 340.5,-12 340.5,-12 340.5,-24 340.5,-24 340.5,-30 334.5,-36 328.5,-36"/>
<text text-anchor="middle" x="273.5" y="-14.9" font-family="sans" font-size="12.00" fill="#c4c7c7">Relation of Equivalence</text>
</a>
</g>
</g>
<!-- Relation&#45;&gt;Relation of Equivalence -->
<g id="edge17" class="edge">
<title>Relation&#45;&gt;Relation of Equivalence</title>
<path fill="none" stroke="#ffffff" d="M147.05,-248.55C148.73,-192.37 155.53,-70.01 183,-40 189.37,-33.04 197.56,-28.11 206.39,-24.66"/>
<polygon fill="#ffffff" stroke="#ffffff" points="143.54,-248.77 146.78,-258.86 150.54,-248.95 143.54,-248.77"/>
</g>
</g>
</svg>
