<?xml version="1.0" encoding="UTF-8" standalone="no"?>
<!DOCTYPE svg PUBLIC "-//W3C//DTD SVG 1.1//EN"
 "http://www.w3.org/Graphics/SVG/1.1/DTD/svg11.dtd">
<!-- Generated by graphviz version 2.44.0 (0)
 -->
<!-- Title: Descartes Product Pages: 1 -->
<svg width="410pt" height="562pt"
 viewBox="0.00 0.00 410.00 562.00" xmlns="http://www.w3.org/2000/svg" xmlns:xlink="http://www.w3.org/1999/xlink">
<g id="graph0" class="graph" transform="scale(1 1) rotate(0) translate(4 558)">
<title>Descartes Product</title>
<polygon fill="#132020" stroke="transparent" points="-4,4 -4,-558 406,-558 406,4 -4,4"/>
<!-- Descartes Product -->
<g id="node1" class="node">
<title>Descartes Product</title>
<g id="a_node1"><a xlink:href="../Descartes Product.html" xlink:title="Descartes Product" target="_parent">
<path fill="#273434" stroke="#b75867" d="M107,-295C107,-295 12,-295 12,-295 6,-295 0,-289 0,-283 0,-283 0,-271 0,-271 0,-265 6,-259 12,-259 12,-259 107,-259 107,-259 113,-259 119,-265 119,-271 119,-271 119,-283 119,-283 119,-289 113,-295 107,-295"/>
<text text-anchor="middle" x="59.5" y="-273.9" font-family="sans" font-size="12.00" fill="#c4c7c7">Descartes Product</text>
</a>
</g>
</g>
<!-- Relation -->
<g id="node2" class="node">
<title>Relation</title>
<g id="a_node2"><a xlink:href="../Relation.html" xlink:title="Relation" target="_parent">
<path fill="none" stroke="#b75867" d="M179,-295C179,-295 139,-295 139,-295 133,-295 127,-289 127,-283 127,-283 127,-271 127,-271 127,-265 133,-259 139,-259 139,-259 179,-259 179,-259 185,-259 191,-265 191,-271 191,-271 191,-283 191,-283 191,-289 185,-295 179,-295"/>
<text text-anchor="middle" x="159" y="-273.9" font-family="sans" font-size="12.00" fill="#c4c7c7">Relation</text>
</a>
</g>
</g>
<!-- Descartes Product&#45;&gt;Relation -->
<g id="edge1" class="edge">
<title>Descartes Product&#45;&gt;Relation</title>
<path fill="none" stroke="#ffffff" d="M126.32,-277C126.47,-277 126.63,-277 126.78,-277"/>
<polygon fill="#ffffff" stroke="#ffffff" points="129.19,-273.5 119.19,-277 129.19,-280.5 129.19,-273.5"/>
</g>
<!-- Relation&#45;&gt;Descartes Product -->
<g id="edge2" class="edge">
<title>Relation&#45;&gt;Descartes Product</title>
<path fill="none" stroke="#b75867" d="M126.78,-277.71C126.63,-277.71 126.47,-277.71 126.32,-277.71"/>
<polygon fill="#b75867" stroke="#b75867" points="129.17,-274.2 119.19,-277.74 129.2,-281.2 129.17,-274.2"/>
</g>
<!-- Anti&#45;symmetric Relation -->
<g id="node3" class="node">
<title>Anti&#45;symmetric Relation</title>
<g id="a_node3"><a xlink:href="../Anti-symmetric Relation.html" xlink:title="Anti&#45;symmetric Relation" target="_parent">
<path fill="none" stroke="#b75867" d="M364.5,-554C364.5,-554 236.5,-554 236.5,-554 230.5,-554 224.5,-548 224.5,-542 224.5,-542 224.5,-530 224.5,-530 224.5,-524 230.5,-518 236.5,-518 236.5,-518 364.5,-518 364.5,-518 370.5,-518 376.5,-524 376.5,-530 376.5,-530 376.5,-542 376.5,-542 376.5,-548 370.5,-554 364.5,-554"/>
<text text-anchor="middle" x="300.5" y="-532.9" font-family="sans" font-size="12.00" fill="#c4c7c7">Anti&#45;symmetric Relation</text>
</a>
</g>
</g>
<!-- Relation&#45;&gt;Anti&#45;symmetric Relation -->
<g id="edge3" class="edge">
<title>Relation&#45;&gt;Anti&#45;symmetric Relation</title>
<path fill="none" stroke="#ffffff" d="M160.81,-305.53C163,-361.85 170.95,-484.44 199,-514 206.01,-521.39 214.88,-526.57 224.43,-530.17"/>
<polygon fill="#ffffff" stroke="#ffffff" points="164.29,-305.06 160.44,-295.19 157.3,-305.31 164.29,-305.06"/>
</g>
<!-- Chain -->
<g id="node4" class="node">
<title>Chain</title>
<g id="a_node4"><a xlink:href="../Chain.html" xlink:title="Chain" target="_parent">
<path fill="none" stroke="#b75867" d="M315.5,-517C315.5,-517 285.5,-517 285.5,-517 279.5,-517 273.5,-511 273.5,-505 273.5,-505 273.5,-493 273.5,-493 273.5,-487 279.5,-481 285.5,-481 285.5,-481 315.5,-481 315.5,-481 321.5,-481 327.5,-487 327.5,-493 327.5,-493 327.5,-505 327.5,-505 327.5,-511 321.5,-517 315.5,-517"/>
<text text-anchor="middle" x="300.5" y="-495.9" font-family="sans" font-size="12.00" fill="#c4c7c7">Chain</text>
</a>
</g>
</g>
<!-- Relation&#45;&gt;Chain -->
<g id="edge4" class="edge">
<title>Relation&#45;&gt;Chain</title>
<path fill="none" stroke="#ffffff" d="M161.75,-305.19C165.4,-354.38 175.5,-452.96 199,-477 218.1,-496.54 250.27,-500.58 273.06,-500.67"/>
<polygon fill="#ffffff" stroke="#ffffff" points="165.24,-304.94 161.05,-295.21 158.26,-305.43 165.24,-304.94"/>
</g>
<!-- Reflexive Closure -->
<g id="node5" class="node">
<title>Reflexive Closure</title>
<g id="a_node5"><a xlink:href="../Reflexive Closure.html" xlink:title="Reflexive Closure" target="_parent">
<path fill="none" stroke="#b75867" d="M345,-480C345,-480 256,-480 256,-480 250,-480 244,-474 244,-468 244,-468 244,-456 244,-456 244,-450 250,-444 256,-444 256,-444 345,-444 345,-444 351,-444 357,-450 357,-456 357,-456 357,-468 357,-468 357,-474 351,-480 345,-480"/>
<text text-anchor="middle" x="300.5" y="-458.9" font-family="sans" font-size="12.00" fill="#c4c7c7">Reflexive Closure</text>
</a>
</g>
</g>
<!-- Relation&#45;&gt;Reflexive Closure -->
<g id="edge5" class="edge">
<title>Relation&#45;&gt;Reflexive Closure</title>
<path fill="none" stroke="#ffffff" d="M163.14,-305.24C168.34,-346.78 180.08,-421.44 199,-440 210.92,-451.69 227.54,-457.78 243.84,-460.8"/>
<polygon fill="#ffffff" stroke="#ffffff" points="166.6,-304.71 161.93,-295.2 159.65,-305.55 166.6,-304.71"/>
</g>
<!-- Symmetric Closure -->
<g id="node6" class="node">
<title>Symmetric Closure</title>
<g id="a_node6"><a xlink:href="../Symmetric Closure.html" xlink:title="Symmetric Closure" target="_parent">
<path fill="none" stroke="#b75867" d="M350,-443C350,-443 251,-443 251,-443 245,-443 239,-437 239,-431 239,-431 239,-419 239,-419 239,-413 245,-407 251,-407 251,-407 350,-407 350,-407 356,-407 362,-413 362,-419 362,-419 362,-431 362,-431 362,-437 356,-443 350,-443"/>
<text text-anchor="middle" x="300.5" y="-421.9" font-family="sans" font-size="12.00" fill="#c4c7c7">Symmetric Closure</text>
</a>
</g>
</g>
<!-- Relation&#45;&gt;Symmetric Closure -->
<g id="edge6" class="edge">
<title>Relation&#45;&gt;Symmetric Closure</title>
<path fill="none" stroke="#ffffff" d="M160.89,-305.67C163.39,-334.45 171.79,-378 199,-403 209.92,-413.03 224.32,-418.87 238.8,-422.18"/>
<polygon fill="#ffffff" stroke="#ffffff" points="164.37,-305.17 160.2,-295.43 157.38,-305.64 164.37,-305.17"/>
</g>
<!-- Relation of Equivalence -->
<g id="node7" class="node">
<title>Relation of Equivalence</title>
<g id="a_node7"><a xlink:href="../Relation of Equivalence.html" xlink:title="Relation of Equivalence" target="_parent">
<path fill="none" stroke="#b75867" d="M363,-406C363,-406 238,-406 238,-406 232,-406 226,-400 226,-394 226,-394 226,-382 226,-382 226,-376 232,-370 238,-370 238,-370 363,-370 363,-370 369,-370 375,-376 375,-382 375,-382 375,-394 375,-394 375,-400 369,-406 363,-406"/>
<text text-anchor="middle" x="300.5" y="-384.9" font-family="sans" font-size="12.00" fill="#c4c7c7">Relation of Equivalence</text>
</a>
</g>
</g>
<!-- Relation&#45;&gt;Relation of Equivalence -->
<g id="edge7" class="edge">
<title>Relation&#45;&gt;Relation of Equivalence</title>
<path fill="none" stroke="#ffffff" d="M165.27,-305.11C170.47,-325.01 180.45,-350.79 199,-366 206.8,-372.4 216.06,-377.04 225.74,-380.4"/>
<polygon fill="#ffffff" stroke="#ffffff" points="168.66,-304.25 162.96,-295.32 161.85,-305.85 168.66,-304.25"/>
</g>
<!-- Symmetric Relation -->
<g id="node8" class="node">
<title>Symmetric Relation</title>
<g id="a_node8"><a xlink:href="../Symmetric Relation.html" xlink:title="Symmetric Relation" target="_parent">
<path fill="none" stroke="#b75867" d="M352.5,-369C352.5,-369 248.5,-369 248.5,-369 242.5,-369 236.5,-363 236.5,-357 236.5,-357 236.5,-345 236.5,-345 236.5,-339 242.5,-333 248.5,-333 248.5,-333 352.5,-333 352.5,-333 358.5,-333 364.5,-339 364.5,-345 364.5,-345 364.5,-357 364.5,-357 364.5,-363 358.5,-369 352.5,-369"/>
<text text-anchor="middle" x="300.5" y="-347.9" font-family="sans" font-size="12.00" fill="#c4c7c7">Symmetric Relation</text>
</a>
</g>
</g>
<!-- Relation&#45;&gt;Symmetric Relation -->
<g id="edge8" class="edge">
<title>Relation&#45;&gt;Symmetric Relation</title>
<path fill="none" stroke="#ffffff" d="M174.65,-303.77C180.99,-313.06 189.22,-322.71 199,-329 210.19,-336.2 223.38,-341.07 236.46,-344.36"/>
<polygon fill="#ffffff" stroke="#ffffff" points="177.47,-301.67 169.16,-295.09 171.55,-305.42 177.47,-301.67"/>
</g>
<!-- Partial function -->
<g id="node9" class="node">
<title>Partial function</title>
<g id="a_node9"><a xlink:href="../Partial function.html" xlink:title="Partial function" target="_parent">
<path fill="none" stroke="#b75867" d="M340,-332C340,-332 261,-332 261,-332 255,-332 249,-326 249,-320 249,-320 249,-308 249,-308 249,-302 255,-296 261,-296 261,-296 340,-296 340,-296 346,-296 352,-302 352,-308 352,-308 352,-320 352,-320 352,-326 346,-332 340,-332"/>
<text text-anchor="middle" x="300.5" y="-310.9" font-family="sans" font-size="12.00" fill="#c4c7c7">Partial function</text>
</a>
</g>
</g>
<!-- Relation&#45;&gt;Partial function -->
<g id="edge9" class="edge">
<title>Relation&#45;&gt;Partial function</title>
<path fill="none" stroke="#ffffff" d="M200.99,-292.42C219.95,-297.97 234.97,-301.51 248.76,-304.46"/>
<polygon fill="#ffffff" stroke="#ffffff" points="201.94,-289.05 191.36,-289.53 199.93,-295.76 201.94,-289.05"/>
</g>
<!-- Relations -->
<g id="node10" class="node">
<title>Relations</title>
<g id="a_node10"><a xlink:href="../Relations.html" xlink:title="Relations" target="_parent">
<path fill="none" stroke="#b75867" d="M323,-295C323,-295 278,-295 278,-295 272,-295 266,-289 266,-283 266,-283 266,-271 266,-271 266,-265 272,-259 278,-259 278,-259 323,-259 323,-259 329,-259 335,-265 335,-271 335,-271 335,-283 335,-283 335,-289 329,-295 323,-295"/>
<text text-anchor="middle" x="300.5" y="-273.9" font-family="sans" font-size="12.00" fill="#c4c7c7">Relations</text>
</a>
</g>
</g>
<!-- Relation&#45;&gt;Relations -->
<g id="edge10" class="edge">
<title>Relation&#45;&gt;Relations</title>
<path fill="none" stroke="#ffffff" d="M201.35,-277C221.92,-277 246.46,-277 265.86,-277"/>
<polygon fill="#ffffff" stroke="#ffffff" points="201.31,-273.5 191.31,-277 201.31,-280.5 201.31,-273.5"/>
</g>
<!-- Linear order -->
<g id="node11" class="node">
<title>Linear order</title>
<g id="a_node11"><a xlink:href="../Linear order.html" xlink:title="Linear order" target="_parent">
<path fill="none" stroke="#b75867" d="M331.5,-258C331.5,-258 269.5,-258 269.5,-258 263.5,-258 257.5,-252 257.5,-246 257.5,-246 257.5,-234 257.5,-234 257.5,-228 263.5,-222 269.5,-222 269.5,-222 331.5,-222 331.5,-222 337.5,-222 343.5,-228 343.5,-234 343.5,-234 343.5,-246 343.5,-246 343.5,-252 337.5,-258 331.5,-258"/>
<text text-anchor="middle" x="300.5" y="-236.9" font-family="sans" font-size="12.00" fill="#c4c7c7">Linear order</text>
</a>
</g>
</g>
<!-- Relation&#45;&gt;Linear order -->
<g id="edge11" class="edge">
<title>Relation&#45;&gt;Linear order</title>
<path fill="none" stroke="#ffffff" d="M201.04,-261.58C223.07,-255.16 241.28,-251.04 257.08,-247.8"/>
<polygon fill="#ffffff" stroke="#ffffff" points="199.94,-258.25 191.36,-264.47 201.94,-264.96 199.94,-258.25"/>
</g>
<!-- Total function -->
<g id="node12" class="node">
<title>Total function</title>
<g id="a_node12"><a xlink:href="../Total function.html" xlink:title="Total function" target="_parent">
<path fill="none" stroke="#b75867" d="M336,-221C336,-221 265,-221 265,-221 259,-221 253,-215 253,-209 253,-209 253,-197 253,-197 253,-191 259,-185 265,-185 265,-185 336,-185 336,-185 342,-185 348,-191 348,-197 348,-197 348,-209 348,-209 348,-215 342,-221 336,-221"/>
<text text-anchor="middle" x="300.5" y="-199.9" font-family="sans" font-size="12.00" fill="#c4c7c7">Total function</text>
</a>
</g>
</g>
<!-- Relation&#45;&gt;Total function -->
<g id="edge12" class="edge">
<title>Relation&#45;&gt;Total function</title>
<path fill="none" stroke="#ffffff" d="M174.65,-250.23C180.99,-240.94 189.22,-231.29 199,-225 214.93,-214.76 234.89,-209.23 252.82,-206.26"/>
<polygon fill="#ffffff" stroke="#ffffff" points="171.55,-248.58 169.16,-258.91 177.47,-252.33 171.55,-248.58"/>
</g>
<!-- Transitive Relation -->
<g id="node13" class="node">
<title>Transitive Relation</title>
<g id="a_node13"><a xlink:href="../Transitive Relation.html" xlink:title="Transitive Relation" target="_parent">
<path fill="none" stroke="#b75867" d="M349,-184C349,-184 252,-184 252,-184 246,-184 240,-178 240,-172 240,-172 240,-160 240,-160 240,-154 246,-148 252,-148 252,-148 349,-148 349,-148 355,-148 361,-154 361,-160 361,-160 361,-172 361,-172 361,-178 355,-184 349,-184"/>
<text text-anchor="middle" x="300.5" y="-162.9" font-family="sans" font-size="12.00" fill="#c4c7c7">Transitive Relation</text>
</a>
</g>
</g>
<!-- Relation&#45;&gt;Transitive Relation -->
<g id="edge13" class="edge">
<title>Relation&#45;&gt;Transitive Relation</title>
<path fill="none" stroke="#ffffff" d="M165.27,-248.89C170.47,-228.99 180.45,-203.21 199,-188 210.53,-178.55 225.24,-172.92 239.81,-169.63"/>
<polygon fill="#ffffff" stroke="#ffffff" points="161.85,-248.15 162.96,-258.68 168.66,-249.75 161.85,-248.15"/>
</g>
<!-- Reflexive Relation -->
<g id="node14" class="node">
<title>Reflexive Relation</title>
<g id="a_node14"><a xlink:href="../Reflexive Relation.html" xlink:title="Reflexive Relation" target="_parent">
<path fill="none" stroke="#b75867" d="M347,-147C347,-147 254,-147 254,-147 248,-147 242,-141 242,-135 242,-135 242,-123 242,-123 242,-117 248,-111 254,-111 254,-111 347,-111 347,-111 353,-111 359,-117 359,-123 359,-123 359,-135 359,-135 359,-141 353,-147 347,-147"/>
<text text-anchor="middle" x="300.5" y="-125.9" font-family="sans" font-size="12.00" fill="#c4c7c7">Reflexive Relation</text>
</a>
</g>
</g>
<!-- Relation&#45;&gt;Reflexive Relation -->
<g id="edge14" class="edge">
<title>Relation&#45;&gt;Reflexive Relation</title>
<path fill="none" stroke="#ffffff" d="M160.89,-248.33C163.39,-219.55 171.79,-176 199,-151 210.71,-140.25 226.42,-134.31 241.94,-131.14"/>
<polygon fill="#ffffff" stroke="#ffffff" points="157.38,-248.36 160.2,-258.57 164.37,-248.83 157.38,-248.36"/>
</g>
<!-- Anti&#45;reflexive relation -->
<g id="node15" class="node">
<title>Anti&#45;reflexive relation</title>
<g id="a_node15"><a xlink:href="../Anti-reflexive relation.html" xlink:title="Anti&#45;reflexive relation" target="_parent">
<path fill="none" stroke="#b75867" d="M357.5,-110C357.5,-110 243.5,-110 243.5,-110 237.5,-110 231.5,-104 231.5,-98 231.5,-98 231.5,-86 231.5,-86 231.5,-80 237.5,-74 243.5,-74 243.5,-74 357.5,-74 357.5,-74 363.5,-74 369.5,-80 369.5,-86 369.5,-86 369.5,-98 369.5,-98 369.5,-104 363.5,-110 357.5,-110"/>
<text text-anchor="middle" x="300.5" y="-88.9" font-family="sans" font-size="12.00" fill="#c4c7c7">Anti&#45;reflexive relation</text>
</a>
</g>
</g>
<!-- Relation&#45;&gt;Anti&#45;reflexive relation -->
<g id="edge15" class="edge">
<title>Relation&#45;&gt;Anti&#45;reflexive relation</title>
<path fill="none" stroke="#ffffff" d="M163.14,-248.76C168.34,-207.22 180.08,-132.56 199,-114 207.86,-105.31 219.32,-99.71 231.31,-96.18"/>
<polygon fill="#ffffff" stroke="#ffffff" points="159.65,-248.45 161.93,-258.8 166.6,-249.29 159.65,-248.45"/>
</g>
<!-- Strongly Anti&#45;symmetric Relation -->
<g id="node16" class="node">
<title>Strongly Anti&#45;symmetric Relation</title>
<g id="a_node16"><a xlink:href="../Strongly Anti-symmetric Relation.html" xlink:title="Strongly Anti&#45;symmetric Relation" target="_parent">
<path fill="none" stroke="#b75867" d="M390,-73C390,-73 211,-73 211,-73 205,-73 199,-67 199,-61 199,-61 199,-49 199,-49 199,-43 205,-37 211,-37 211,-37 390,-37 390,-37 396,-37 402,-43 402,-49 402,-49 402,-61 402,-61 402,-67 396,-73 390,-73"/>
<text text-anchor="middle" x="300.5" y="-51.9" font-family="sans" font-size="12.00" fill="#c4c7c7">Strongly Anti&#45;symmetric Relation</text>
</a>
</g>
</g>
<!-- Relation&#45;&gt;Strongly Anti&#45;symmetric Relation -->
<g id="edge16" class="edge">
<title>Relation&#45;&gt;Strongly Anti&#45;symmetric Relation</title>
<path fill="none" stroke="#ffffff" d="M161.75,-248.81C165.4,-199.62 175.5,-101.04 199,-77 200.37,-75.59 201.81,-74.27 203.31,-73.02"/>
<polygon fill="#ffffff" stroke="#ffffff" points="158.26,-248.57 161.05,-258.79 165.24,-249.06 158.26,-248.57"/>
</g>
<!-- Partial order -->
<g id="node17" class="node">
<title>Partial order</title>
<g id="a_node17"><a xlink:href="../Partial order.html" xlink:title="Partial order" target="_parent">
<path fill="none" stroke="#b75867" d="M331.5,-36C331.5,-36 269.5,-36 269.5,-36 263.5,-36 257.5,-30 257.5,-24 257.5,-24 257.5,-12 257.5,-12 257.5,-6 263.5,0 269.5,0 269.5,0 331.5,0 331.5,0 337.5,0 343.5,-6 343.5,-12 343.5,-12 343.5,-24 343.5,-24 343.5,-30 337.5,-36 331.5,-36"/>
<text text-anchor="middle" x="300.5" y="-14.9" font-family="sans" font-size="12.00" fill="#c4c7c7">Partial order</text>
</a>
</g>
</g>
<!-- Relation&#45;&gt;Partial order -->
<g id="edge17" class="edge">
<title>Relation&#45;&gt;Partial order</title>
<path fill="none" stroke="#ffffff" d="M160.81,-248.47C163,-192.15 170.95,-69.56 199,-40 213.81,-24.39 236.95,-18.6 257.29,-16.84"/>
<polygon fill="#ffffff" stroke="#ffffff" points="157.3,-248.69 160.44,-258.81 164.29,-248.94 157.3,-248.69"/>
</g>
</g>
</svg>
