<?xml version="1.0" encoding="UTF-8" standalone="no"?>
<!DOCTYPE svg PUBLIC "-//W3C//DTD SVG 1.1//EN"
 "http://www.w3.org/Graphics/SVG/1.1/DTD/svg11.dtd">
<!-- Generated by graphviz version 2.44.0 (0)
 -->
<!-- Title: Design and Analysis of Algorithms Pages: 1 -->
<svg width="589pt" height="636pt"
 viewBox="0.00 0.00 589.00 636.00" xmlns="http://www.w3.org/2000/svg" xmlns:xlink="http://www.w3.org/1999/xlink">
<g id="graph0" class="graph" transform="scale(1 1) rotate(0) translate(4 632)">
<title>Design and Analysis of Algorithms</title>
<polygon fill="#132020" stroke="transparent" points="-4,4 -4,-632 585,-632 585,4 -4,4"/>
<!-- Design and Analysis of Algorithms -->
<g id="node1" class="node">
<title>Design and Analysis of Algorithms</title>
<g id="a_node1"><a xlink:href="../Design and Analysis of Algorithms.html" xlink:title="Design and Analysis of Algorithms" target="_parent">
<path fill="#273434" stroke="#b75867" d="M194,-313C194,-313 12,-313 12,-313 6,-313 0,-307 0,-301 0,-301 0,-289 0,-289 0,-283 6,-277 12,-277 12,-277 194,-277 194,-277 200,-277 206,-283 206,-289 206,-289 206,-301 206,-301 206,-307 200,-313 194,-313"/>
<text text-anchor="middle" x="103" y="-291.9" font-family="sans" font-size="12.00" fill="#c4c7c7">Design and Analysis of Algorithms</text>
</a>
</g>
</g>
<!-- Knowledege Base -->
<g id="node2" class="node">
<title>Knowledege Base</title>
<g id="a_node2"><a xlink:href="../Knowledege Base.html" xlink:title="Knowledege Base" target="_parent">
<path fill="none" stroke="#b75867" d="M319,-313C319,-313 226,-313 226,-313 220,-313 214,-307 214,-301 214,-301 214,-289 214,-289 214,-283 220,-277 226,-277 226,-277 319,-277 319,-277 325,-277 331,-283 331,-289 331,-289 331,-301 331,-301 331,-307 325,-313 319,-313"/>
<text text-anchor="middle" x="272.5" y="-291.9" font-family="sans" font-size="12.00" fill="#c4c7c7">Knowledege Base</text>
</a>
</g>
</g>
<!-- Design and Analysis of Algorithms&#45;&gt;Knowledege Base -->
<g id="edge1" class="edge">
<title>Design and Analysis of Algorithms&#45;&gt;Knowledege Base</title>
<path fill="none" stroke="#ffffff" d="M213.47,-295C213.62,-295 213.78,-295 213.94,-295"/>
<polygon fill="#ffffff" stroke="#ffffff" points="216.26,-291.5 206.26,-295 216.26,-298.5 216.26,-291.5"/>
</g>
<!-- Knowledege Base&#45;&gt;Design and Analysis of Algorithms -->
<g id="edge4" class="edge">
<title>Knowledege Base&#45;&gt;Design and Analysis of Algorithms</title>
<path fill="none" stroke="#b75867" d="M213.94,-295.72C213.78,-295.72 213.62,-295.72 213.47,-295.72"/>
<polygon fill="#b75867" stroke="#b75867" points="216.25,-292.21 206.26,-295.73 216.27,-299.21 216.25,-292.21"/>
</g>
<!-- Computer Architectures -->
<g id="node3" class="node">
<title>Computer Architectures</title>
<g id="a_node3"><a xlink:href="../Computer Architectures.html" xlink:title="Computer Architectures" target="_parent">
<path fill="#273434" stroke="#b75867" d="M523.5,-628C523.5,-628 396.5,-628 396.5,-628 390.5,-628 384.5,-622 384.5,-616 384.5,-616 384.5,-604 384.5,-604 384.5,-598 390.5,-592 396.5,-592 396.5,-592 523.5,-592 523.5,-592 529.5,-592 535.5,-598 535.5,-604 535.5,-604 535.5,-616 535.5,-616 535.5,-622 529.5,-628 523.5,-628"/>
<text text-anchor="middle" x="460" y="-606.9" font-family="sans" font-size="12.00" fill="#c4c7c7">Computer Architectures</text>
</a>
</g>
</g>
<!-- Knowledege Base&#45;&gt;Computer Architectures -->
<g id="edge2" class="edge">
<title>Knowledege Base&#45;&gt;Computer Architectures</title>
<path fill="none" stroke="#b75867" d="M275,-313.36C280.13,-371.4 298.9,-549.42 339,-588 348.89,-597.51 361.45,-603.62 374.71,-607.44"/>
<polygon fill="#b75867" stroke="#b75867" points="373.91,-610.84 384.46,-609.83 375.58,-604.04 373.91,-610.84"/>
</g>
<!-- Numeric Methods -->
<g id="node4" class="node">
<title>Numeric Methods</title>
<g id="a_node4"><a xlink:href="../Numeric Methods.html" xlink:title="Numeric Methods" target="_parent">
<path fill="#273434" stroke="#b75867" d="M506,-591C506,-591 414,-591 414,-591 408,-591 402,-585 402,-579 402,-579 402,-567 402,-567 402,-561 408,-555 414,-555 414,-555 506,-555 506,-555 512,-555 518,-561 518,-567 518,-567 518,-579 518,-579 518,-585 512,-591 506,-591"/>
<text text-anchor="middle" x="460" y="-569.9" font-family="sans" font-size="12.00" fill="#c4c7c7">Numeric Methods</text>
</a>
</g>
</g>
<!-- Knowledege Base&#45;&gt;Numeric Methods -->
<g id="edge3" class="edge">
<title>Knowledege Base&#45;&gt;Numeric Methods</title>
<path fill="none" stroke="#b75867" d="M275.63,-313.26C282.17,-366.2 303.7,-518.06 339,-551 353.24,-564.29 372.74,-570.87 391.88,-573.85"/>
<polygon fill="#b75867" stroke="#b75867" points="391.46,-577.32 401.82,-575.09 392.33,-570.38 391.46,-577.32"/>
</g>
<!-- Logic Programming -->
<g id="node5" class="node">
<title>Logic Programming</title>
<g id="a_node5"><a xlink:href="../Logic Programming.html" xlink:title="Logic Programming" target="_parent">
<path fill="#273434" stroke="#b75867" d="M511,-554C511,-554 409,-554 409,-554 403,-554 397,-548 397,-542 397,-542 397,-530 397,-530 397,-524 403,-518 409,-518 409,-518 511,-518 511,-518 517,-518 523,-524 523,-530 523,-530 523,-542 523,-542 523,-548 517,-554 511,-554"/>
<text text-anchor="middle" x="460" y="-532.9" font-family="sans" font-size="12.00" fill="#c4c7c7">Logic Programming</text>
</a>
</g>
</g>
<!-- Knowledege Base&#45;&gt;Logic Programming -->
<g id="edge5" class="edge">
<title>Knowledege Base&#45;&gt;Logic Programming</title>
<path fill="none" stroke="#b75867" d="M273.05,-313.29C273.07,-355.6 279.45,-460.63 339,-514 352.12,-525.76 369.38,-532.2 386.71,-535.53"/>
<polygon fill="#b75867" stroke="#b75867" points="386.46,-539.04 396.89,-537.16 387.56,-532.13 386.46,-539.04"/>
</g>
<!-- Data Structures -->
<g id="node6" class="node">
<title>Data Structures</title>
<g id="a_node6"><a xlink:href="../Data Structures.html" xlink:title="Data Structures" target="_parent">
<path fill="#273434" stroke="#b75867" d="M500,-517C500,-517 420,-517 420,-517 414,-517 408,-511 408,-505 408,-505 408,-493 408,-493 408,-487 414,-481 420,-481 420,-481 500,-481 500,-481 506,-481 512,-487 512,-493 512,-493 512,-505 512,-505 512,-511 506,-517 500,-517"/>
<text text-anchor="middle" x="460" y="-495.9" font-family="sans" font-size="12.00" fill="#c4c7c7">Data Structures</text>
</a>
</g>
</g>
<!-- Knowledege Base&#45;&gt;Data Structures -->
<g id="edge6" class="edge">
<title>Knowledege Base&#45;&gt;Data Structures</title>
<path fill="none" stroke="#b75867" d="M274.31,-313.01C277.01,-349.93 288.67,-434.32 339,-477 355.17,-490.71 377.05,-497.07 397.7,-499.72"/>
<polygon fill="#b75867" stroke="#b75867" points="397.4,-503.21 407.7,-500.74 398.11,-496.24 397.4,-503.21"/>
</g>
<!-- Languages, Automata and Computation -->
<g id="node7" class="node">
<title>Languages, Automata and Computation</title>
<g id="a_node7"><a xlink:href="../Languages, Automata and Computation.html" xlink:title="Languages, Automata and Computation" target="_parent">
<path fill="#273434" stroke="#b75867" d="M569,-480C569,-480 351,-480 351,-480 345,-480 339,-474 339,-468 339,-468 339,-456 339,-456 339,-450 345,-444 351,-444 351,-444 569,-444 569,-444 575,-444 581,-450 581,-456 581,-456 581,-468 581,-468 581,-474 575,-480 569,-480"/>
<text text-anchor="middle" x="460" y="-458.9" font-family="sans" font-size="12.00" fill="#c4c7c7">Languages, Automata and Computation</text>
</a>
</g>
</g>
<!-- Knowledege Base&#45;&gt;Languages, Automata and Computation -->
<g id="edge7" class="edge">
<title>Knowledege Base&#45;&gt;Languages, Automata and Computation</title>
<path fill="none" stroke="#b75867" d="M276.25,-313.48C281.61,-342.97 296.24,-400.7 336.59,-437.31"/>
<polygon fill="#b75867" stroke="#b75867" points="334.51,-440.14 344.42,-443.89 339.01,-434.78 334.51,-440.14"/>
</g>
<!-- Operations Research -->
<g id="node8" class="node">
<title>Operations Research</title>
<g id="a_node8"><a xlink:href="../Operations Research.html" xlink:title="Operations Research" target="_parent">
<path fill="#273434" stroke="#b75867" d="M514.5,-443C514.5,-443 405.5,-443 405.5,-443 399.5,-443 393.5,-437 393.5,-431 393.5,-431 393.5,-419 393.5,-419 393.5,-413 399.5,-407 405.5,-407 405.5,-407 514.5,-407 514.5,-407 520.5,-407 526.5,-413 526.5,-419 526.5,-419 526.5,-431 526.5,-431 526.5,-437 520.5,-443 514.5,-443"/>
<text text-anchor="middle" x="460" y="-421.9" font-family="sans" font-size="12.00" fill="#c4c7c7">Operations Research</text>
</a>
</g>
</g>
<!-- Knowledege Base&#45;&gt;Operations Research -->
<g id="edge8" class="edge">
<title>Knowledege Base&#45;&gt;Operations Research</title>
<path fill="none" stroke="#b75867" d="M279.23,-313.21C287.96,-337.78 307.04,-380.97 339,-403 352.02,-411.97 367.65,-417.58 383.26,-421.03"/>
<polygon fill="#b75867" stroke="#b75867" points="383.01,-424.54 393.49,-423 384.33,-417.67 383.01,-424.54"/>
</g>
<!-- Differential Equations -->
<g id="node9" class="node">
<title>Differential Equations</title>
<g id="a_node9"><a xlink:href="../Differential Equations.html" xlink:title="Differential Equations" target="_parent">
<path fill="#273434" stroke="#b75867" d="M517,-406C517,-406 403,-406 403,-406 397,-406 391,-400 391,-394 391,-394 391,-382 391,-382 391,-376 397,-370 403,-370 403,-370 517,-370 517,-370 523,-370 529,-376 529,-382 529,-382 529,-394 529,-394 529,-400 523,-406 517,-406"/>
<text text-anchor="middle" x="460" y="-384.9" font-family="sans" font-size="12.00" fill="#c4c7c7">Differential Equations</text>
</a>
</g>
</g>
<!-- Knowledege Base&#45;&gt;Differential Equations -->
<g id="edge9" class="edge">
<title>Knowledege Base&#45;&gt;Differential Equations</title>
<path fill="none" stroke="#b75867" d="M285.19,-313.26C296.77,-329.77 316.08,-353.38 339,-366 351.74,-373.02 366.27,-377.85 380.73,-381.17"/>
<polygon fill="#b75867" stroke="#b75867" points="380.2,-384.64 390.7,-383.24 381.62,-377.78 380.2,-384.64"/>
</g>
<!-- OOP -->
<g id="node10" class="node">
<title>OOP</title>
<g id="a_node10"><a xlink:href="../OOP.html" xlink:title="OOP" target="_parent">
<path fill="#273434" stroke="#b75867" d="M475,-369C475,-369 445,-369 445,-369 439,-369 433,-363 433,-357 433,-357 433,-345 433,-345 433,-339 439,-333 445,-333 445,-333 475,-333 475,-333 481,-333 487,-339 487,-345 487,-345 487,-357 487,-357 487,-363 481,-369 475,-369"/>
<text text-anchor="middle" x="460" y="-347.9" font-family="sans" font-size="12.00" fill="#c4c7c7">OOP</text>
</a>
</g>
</g>
<!-- Knowledege Base&#45;&gt;OOP -->
<g id="edge10" class="edge">
<title>Knowledege Base&#45;&gt;OOP</title>
<path fill="none" stroke="#b75867" d="M303.65,-313.04C314.49,-318.87 327,-324.89 339,-329 366.23,-338.33 398.36,-343.95 422.52,-347.18"/>
<polygon fill="#b75867" stroke="#b75867" points="422.32,-350.68 432.68,-348.45 423.2,-343.73 422.32,-350.68"/>
</g>
<!-- Discrete Structures -->
<g id="node11" class="node">
<title>Discrete Structures</title>
<g id="a_node11"><a xlink:href="../Discrete Structures.html" xlink:title="Discrete Structures" target="_parent">
<path fill="#273434" stroke="#b75867" d="M509,-332C509,-332 411,-332 411,-332 405,-332 399,-326 399,-320 399,-320 399,-308 399,-308 399,-302 405,-296 411,-296 411,-296 509,-296 509,-296 515,-296 521,-302 521,-308 521,-308 521,-320 521,-320 521,-326 515,-332 509,-332"/>
<text text-anchor="middle" x="460" y="-310.9" font-family="sans" font-size="12.00" fill="#c4c7c7">Discrete Structures</text>
</a>
</g>
</g>
<!-- Knowledege Base&#45;&gt;Discrete Structures -->
<g id="edge11" class="edge">
<title>Knowledege Base&#45;&gt;Discrete Structures</title>
<path fill="none" stroke="#b75867" d="M331.18,-300.91C349.39,-302.77 369.71,-304.85 388.7,-306.8"/>
<polygon fill="#b75867" stroke="#b75867" points="388.49,-310.3 398.79,-307.83 389.2,-303.33 388.49,-310.3"/>
</g>
<!-- Advanced Algebra -->
<g id="node12" class="node">
<title>Advanced Algebra</title>
<g id="a_node12"><a xlink:href="../Advanced Algebra.html" xlink:title="Advanced Algebra" target="_parent">
<path fill="#273434" stroke="#b75867" d="M507.5,-295C507.5,-295 412.5,-295 412.5,-295 406.5,-295 400.5,-289 400.5,-283 400.5,-283 400.5,-271 400.5,-271 400.5,-265 406.5,-259 412.5,-259 412.5,-259 507.5,-259 507.5,-259 513.5,-259 519.5,-265 519.5,-271 519.5,-271 519.5,-283 519.5,-283 519.5,-289 513.5,-295 507.5,-295"/>
<text text-anchor="middle" x="460" y="-273.9" font-family="sans" font-size="12.00" fill="#c4c7c7">Advanced Algebra</text>
</a>
</g>
</g>
<!-- Knowledege Base&#45;&gt;Advanced Algebra -->
<g id="edge12" class="edge">
<title>Knowledege Base&#45;&gt;Advanced Algebra</title>
<path fill="none" stroke="#b75867" d="M331.18,-289.4C349.92,-287.58 370.91,-285.55 390.38,-283.66"/>
<polygon fill="#b75867" stroke="#b75867" points="390.78,-287.14 400.4,-282.69 390.11,-280.17 390.78,-287.14"/>
</g>
<!-- Differential Analysis -->
<g id="node13" class="node">
<title>Differential Analysis</title>
<g id="a_node13"><a xlink:href="../Differential Analysis.html" xlink:title="Differential Analysis" target="_parent">
<path fill="#273434" stroke="#b75867" d="M511.5,-258C511.5,-258 408.5,-258 408.5,-258 402.5,-258 396.5,-252 396.5,-246 396.5,-246 396.5,-234 396.5,-234 396.5,-228 402.5,-222 408.5,-222 408.5,-222 511.5,-222 511.5,-222 517.5,-222 523.5,-228 523.5,-234 523.5,-234 523.5,-246 523.5,-246 523.5,-252 517.5,-258 511.5,-258"/>
<text text-anchor="middle" x="460" y="-236.9" font-family="sans" font-size="12.00" fill="#c4c7c7">Differential Analysis</text>
</a>
</g>
</g>
<!-- Knowledege Base&#45;&gt;Differential Analysis -->
<g id="edge13" class="edge">
<title>Knowledege Base&#45;&gt;Differential Analysis</title>
<path fill="none" stroke="#b75867" d="M305.03,-276.83C315.56,-271.39 327.53,-265.85 339,-262 353.99,-256.97 370.44,-253 386.22,-249.9"/>
<polygon fill="#b75867" stroke="#b75867" points="387.29,-253.26 396.48,-247.99 386.01,-246.38 387.29,-253.26"/>
</g>
<!-- Knowledege Base&#45;&gt;Differential Analysis -->
<g id="edge17" class="edge">
<title>Knowledege Base&#45;&gt;Differential Analysis</title>
<path fill="none" stroke="#b75867" d="M306.7,-276.93C316.82,-271.81 328.14,-266.65 339,-263 353.99,-257.97 370.44,-254 386.22,-250.88"/>
<polygon fill="#b75867" stroke="#b75867" points="387.3,-254.23 396.48,-248.94 386,-247.36 387.3,-254.23"/>
</g>
<!-- Introduction to programming -->
<g id="node14" class="node">
<title>Introduction to programming</title>
<g id="a_node14"><a xlink:href="../Introduction to programming.html" xlink:title="Introduction to programming" target="_parent">
<path fill="#273434" stroke="#b75867" d="M539.5,-221C539.5,-221 380.5,-221 380.5,-221 374.5,-221 368.5,-215 368.5,-209 368.5,-209 368.5,-197 368.5,-197 368.5,-191 374.5,-185 380.5,-185 380.5,-185 539.5,-185 539.5,-185 545.5,-185 551.5,-191 551.5,-197 551.5,-197 551.5,-209 551.5,-209 551.5,-215 545.5,-221 539.5,-221"/>
<text text-anchor="middle" x="460" y="-199.9" font-family="sans" font-size="12.00" fill="#c4c7c7">Introduction to programming</text>
</a>
</g>
</g>
<!-- Knowledege Base&#45;&gt;Introduction to programming -->
<g id="edge14" class="edge">
<title>Knowledege Base&#45;&gt;Introduction to programming</title>
<path fill="none" stroke="#b75867" d="M285.24,-277C296.88,-260.72 316.21,-237.45 339,-225 345.26,-221.58 351.95,-218.68 358.85,-216.22"/>
<polygon fill="#b75867" stroke="#b75867" points="359.94,-219.55 368.37,-213.13 357.78,-212.89 359.94,-219.55"/>
</g>
<!-- Analytic Geometry -->
<g id="node15" class="node">
<title>Analytic Geometry</title>
<g id="a_node15"><a xlink:href="../Analytic Geometry.html" xlink:title="Analytic Geometry" target="_parent">
<path fill="#273434" stroke="#b75867" d="M508.5,-184C508.5,-184 411.5,-184 411.5,-184 405.5,-184 399.5,-178 399.5,-172 399.5,-172 399.5,-160 399.5,-160 399.5,-154 405.5,-148 411.5,-148 411.5,-148 508.5,-148 508.5,-148 514.5,-148 520.5,-154 520.5,-160 520.5,-160 520.5,-172 520.5,-172 520.5,-178 514.5,-184 508.5,-184"/>
<text text-anchor="middle" x="460" y="-162.9" font-family="sans" font-size="12.00" fill="#c4c7c7">Analytic Geometry</text>
</a>
</g>
</g>
<!-- Knowledege Base&#45;&gt;Analytic Geometry -->
<g id="edge15" class="edge">
<title>Knowledege Base&#45;&gt;Analytic Geometry</title>
<path fill="none" stroke="#b75867" d="M279.28,-276.95C288.07,-252.61 307.21,-209.81 339,-188 353.67,-177.93 371.64,-172.1 389.16,-168.81"/>
<polygon fill="#b75867" stroke="#b75867" points="390.08,-172.21 399.39,-167.16 388.96,-165.3 390.08,-172.21"/>
</g>
<!-- Linear Algebra -->
<g id="node16" class="node">
<title>Linear Algebra</title>
<g id="a_node16"><a xlink:href="../Linear Algebra.html" xlink:title="Linear Algebra" target="_parent">
<path fill="#273434" stroke="#b75867" d="M497,-147C497,-147 423,-147 423,-147 417,-147 411,-141 411,-135 411,-135 411,-123 411,-123 411,-117 417,-111 423,-111 423,-111 497,-111 497,-111 503,-111 509,-117 509,-123 509,-123 509,-135 509,-135 509,-141 503,-147 497,-147"/>
<text text-anchor="middle" x="460" y="-125.9" font-family="sans" font-size="12.00" fill="#c4c7c7">Linear Algebra</text>
</a>
</g>
</g>
<!-- Knowledege Base&#45;&gt;Linear Algebra -->
<g id="edge16" class="edge">
<title>Knowledege Base&#45;&gt;Linear Algebra</title>
<path fill="none" stroke="#b75867" d="M276.29,-276.64C282.05,-245.53 298.29,-182.76 339,-151 356.44,-137.39 379.63,-131.22 400.97,-128.69"/>
<polygon fill="#b75867" stroke="#b75867" points="401.31,-132.18 410.94,-127.75 400.65,-125.21 401.31,-132.18"/>
</g>
<!-- Org Roam -->
<g id="node17" class="node">
<title>Org Roam</title>
<g id="a_node17"><a xlink:href="../Org Roam.html" xlink:title="Org Roam" target="_parent">
<path fill="#273434" stroke="#b75867" d="M484,-110C484,-110 436,-110 436,-110 430,-110 424,-104 424,-98 424,-98 424,-86 424,-86 424,-80 430,-74 436,-74 436,-74 484,-74 484,-74 490,-74 496,-80 496,-86 496,-86 496,-98 496,-98 496,-104 490,-110 484,-110"/>
<text text-anchor="middle" x="460" y="-88.9" font-family="sans" font-size="12.00" fill="#c4c7c7">Org Roam</text>
</a>
</g>
</g>
<!-- Knowledege Base&#45;&gt;Org Roam -->
<g id="edge18" class="edge">
<title>Knowledege Base&#45;&gt;Org Roam</title>
<path fill="none" stroke="#b75867" d="M274.37,-276.81C277.17,-239.94 289.01,-156.32 339,-114 359.44,-96.7 388.96,-91.12 413.61,-89.91"/>
<polygon fill="#b75867" stroke="#b75867" points="413.93,-93.4 423.83,-89.63 413.74,-86.4 413.93,-93.4"/>
</g>
<!-- Org&#45;mode -->
<g id="node18" class="node">
<title>Org&#45;mode</title>
<g id="a_node18"><a xlink:href="../Org-mode.html" xlink:title="Org&#45;mode" target="_parent">
<path fill="#273434" stroke="#b75867" d="M485,-73C485,-73 435,-73 435,-73 429,-73 423,-67 423,-61 423,-61 423,-49 423,-49 423,-43 429,-37 435,-37 435,-37 485,-37 485,-37 491,-37 497,-43 497,-49 497,-49 497,-61 497,-61 497,-67 491,-73 485,-73"/>
<text text-anchor="middle" x="460" y="-51.9" font-family="sans" font-size="12.00" fill="#c4c7c7">Org&#45;mode</text>
</a>
</g>
</g>
<!-- Knowledege Base&#45;&gt;Org&#45;mode -->
<g id="edge19" class="edge">
<title>Knowledege Base&#45;&gt;Org&#45;mode</title>
<path fill="none" stroke="#b75867" d="M273.07,-276.79C273.16,-234.67 279.67,-130.11 339,-77 358.82,-59.26 388.06,-53.63 412.72,-52.5"/>
<polygon fill="#b75867" stroke="#b75867" points="413.05,-55.99 422.97,-52.27 412.89,-48.99 413.05,-55.99"/>
</g>
<!-- Projects -->
<g id="node19" class="node">
<title>Projects</title>
<g id="a_node19"><a xlink:href="../Projects.html" xlink:title="Projects" target="_parent">
<path fill="none" stroke="#b75867" d="M479,-36C479,-36 441,-36 441,-36 435,-36 429,-30 429,-24 429,-24 429,-12 429,-12 429,-6 435,0 441,0 441,0 479,0 479,0 485,0 491,-6 491,-12 491,-12 491,-24 491,-24 491,-30 485,-36 479,-36"/>
<text text-anchor="middle" x="460" y="-14.9" font-family="sans" font-size="12.00" fill="#c4c7c7">Projects</text>
</a>
</g>
</g>
<!-- Knowledege Base&#45;&gt;Projects -->
<g id="edge20" class="edge">
<title>Knowledege Base&#45;&gt;Projects</title>
<path fill="none" stroke="#ffffff" d="M276.95,-266.57C284.78,-206.75 305.87,-70.88 339,-40 363.01,-17.61 401.94,-14.27 428.92,-15.12"/>
<polygon fill="#ffffff" stroke="#ffffff" points="273.43,-266.44 275.64,-276.81 280.38,-267.33 273.43,-266.44"/>
</g>
</g>
</svg>
