<?xml version="1.0" encoding="UTF-8" standalone="no"?>
<!DOCTYPE svg PUBLIC "-//W3C//DTD SVG 1.1//EN"
 "http://www.w3.org/Graphics/SVG/1.1/DTD/svg11.dtd">
<!-- Generated by graphviz version 2.46.1 (0)
 -->
<!-- Title: Differential Analysis Pages: 1 -->
<svg width="395pt" height="562pt"
 viewBox="0.00 0.00 395.00 562.00" xmlns="http://www.w3.org/2000/svg" xmlns:xlink="http://www.w3.org/1999/xlink">
<g id="graph0" class="graph" transform="scale(1 1) rotate(0) translate(4 558)">
<title>Differential Analysis</title>
<polygon fill="#132020" stroke="transparent" points="-4,4 -4,-558 391,-558 391,4 -4,4"/>
<!-- Differential Analysis -->
<g id="node1" class="node">
<title>Differential Analysis</title>
<g id="a_node1"><a xlink:href="/Knowledge/differential_analysis.html" xlink:title="Differential Analysis" target="_parent">
<path fill="#273434" stroke="#b75867" d="M104,-221C104,-221 12,-221 12,-221 6,-221 0,-215 0,-209 0,-209 0,-197 0,-197 0,-191 6,-185 12,-185 12,-185 104,-185 104,-185 110,-185 116,-191 116,-197 116,-197 116,-209 116,-209 116,-215 110,-221 104,-221"/>
<text text-anchor="middle" x="58" y="-199.9" font-family="sans" font-size="12.00" fill="#c4c7c7">Differential Analysis</text>
</a>
</g>
</g>
<!-- Set -->
<g id="node2" class="node">
<title>Set</title>
<g id="a_node2"><a xlink:href="/Knowledge/set.html" xlink:title="Set" target="_parent">
<path fill="#273434" stroke="#b75867" d="M169,-332C169,-332 139,-332 139,-332 133,-332 127,-326 127,-320 127,-320 127,-308 127,-308 127,-302 133,-296 139,-296 139,-296 169,-296 169,-296 175,-296 181,-302 181,-308 181,-308 181,-320 181,-320 181,-326 175,-332 169,-332"/>
<text text-anchor="middle" x="154" y="-310.9" font-family="sans" font-size="12.00" fill="#c4c7c7">Set</text>
</a>
</g>
</g>
<!-- Differential Analysis&#45;&gt;Set -->
<g id="edge1" class="edge">
<title>Differential Analysis&#45;&gt;Set</title>
<path fill="none" stroke="#b75867" d="M74.52,-221.33C89.9,-239.49 113.59,-267.46 130.92,-287.93"/>
<polygon fill="#b75867" stroke="#b75867" points="128.32,-290.27 137.45,-295.64 133.66,-285.75 128.32,-290.27"/>
</g>
<!-- Subjects -->
<g id="node3" class="node">
<title>Subjects</title>
<g id="a_node3"><a xlink:href="/Knowledge/subjects.html" xlink:title="Subjects" target="_parent">
<path fill="none" stroke="#b75867" d="M172,-129C172,-129 136,-129 136,-129 130,-129 124,-123 124,-117 124,-117 124,-105 124,-105 124,-99 130,-93 136,-93 136,-93 172,-93 172,-93 178,-93 184,-99 184,-105 184,-105 184,-117 184,-117 184,-123 178,-129 172,-129"/>
<text text-anchor="middle" x="154" y="-107.9" font-family="sans" font-size="12.00" fill="#c4c7c7">Subjects</text>
</a>
</g>
</g>
<!-- Differential Analysis&#45;&gt;Subjects -->
<g id="edge2" class="edge">
<title>Differential Analysis&#45;&gt;Subjects</title>
<path fill="none" stroke="#ffffff" d="M84.93,-177.63C100.64,-162.25 120.32,-142.99 134.47,-129.14"/>
<polygon fill="#ffffff" stroke="#ffffff" points="82.27,-175.33 77.57,-184.82 87.17,-180.33 82.27,-175.33"/>
</g>
<!-- Set&#45;&gt;Differential Analysis -->
<g id="edge13" class="edge">
<title>Set&#45;&gt;Differential Analysis</title>
<path fill="none" stroke="#ffffff" d="M130.62,-288.22C113.08,-267.67 89.16,-239.39 73.89,-221.15"/>
<polygon fill="#ffffff" stroke="#ffffff" points="128.08,-290.63 137.23,-295.96 133.4,-286.08 128.08,-290.63"/>
</g>
<!-- Principle of partitions -->
<g id="node4" class="node">
<title>Principle of partitions</title>
<g id="a_node4"><a xlink:href="/Knowledge/principle_of_partitions.html" xlink:title="Principle of partitions" target="_parent">
<path fill="none" stroke="#b75867" d="M340.5,-554C340.5,-554 238.5,-554 238.5,-554 232.5,-554 226.5,-548 226.5,-542 226.5,-542 226.5,-530 226.5,-530 226.5,-524 232.5,-518 238.5,-518 238.5,-518 340.5,-518 340.5,-518 346.5,-518 352.5,-524 352.5,-530 352.5,-530 352.5,-542 352.5,-542 352.5,-548 346.5,-554 340.5,-554"/>
<text text-anchor="middle" x="289.5" y="-532.9" font-family="sans" font-size="12.00" fill="#c4c7c7">Principle of partitions</text>
</a>
</g>
</g>
<!-- Set&#45;&gt;Principle of partitions -->
<g id="edge3" class="edge">
<title>Set&#45;&gt;Principle of partitions</title>
<path fill="none" stroke="#ffffff" d="M156.5,-342.47C159.68,-391.71 168.82,-489.84 192,-514 201.16,-523.55 213.54,-529.34 226.38,-532.78"/>
<polygon fill="#ffffff" stroke="#ffffff" points="159.97,-341.96 155.87,-332.19 152.98,-342.38 159.97,-341.96"/>
</g>
<!-- Principle of inclusion and exclusion -->
<g id="node5" class="node">
<title>Principle of inclusion and exclusion</title>
<g id="a_node5"><a xlink:href="/Knowledge/principle_of_inclusion_and_exclusion.html" xlink:title="Principle of inclusion and exclusion" target="_parent">
<path fill="none" stroke="#b75867" d="M375,-517C375,-517 204,-517 204,-517 198,-517 192,-511 192,-505 192,-505 192,-493 192,-493 192,-487 198,-481 204,-481 204,-481 375,-481 375,-481 381,-481 387,-487 387,-493 387,-493 387,-505 387,-505 387,-511 381,-517 375,-517"/>
<text text-anchor="middle" x="289.5" y="-495.9" font-family="sans" font-size="12.00" fill="#c4c7c7">Principle of inclusion and exclusion</text>
</a>
</g>
</g>
<!-- Set&#45;&gt;Principle of inclusion and exclusion -->
<g id="edge4" class="edge">
<title>Set&#45;&gt;Principle of inclusion and exclusion</title>
<path fill="none" stroke="#ffffff" d="M157.8,-342.2C162.49,-383.7 173.32,-458.3 192,-477 193.34,-478.34 194.74,-479.6 196.19,-480.79"/>
<polygon fill="#ffffff" stroke="#ffffff" points="161.27,-341.74 156.71,-332.18 154.31,-342.5 161.27,-341.74"/>
</g>
<!-- Principle of the bijection -->
<g id="node6" class="node">
<title>Principle of the bijection</title>
<g id="a_node6"><a xlink:href="/Knowledge/principle_of_the_bijection.html" xlink:title="Principle of the bijection" target="_parent">
<path fill="none" stroke="#b75867" d="M347.5,-480C347.5,-480 231.5,-480 231.5,-480 225.5,-480 219.5,-474 219.5,-468 219.5,-468 219.5,-456 219.5,-456 219.5,-450 225.5,-444 231.5,-444 231.5,-444 347.5,-444 347.5,-444 353.5,-444 359.5,-450 359.5,-456 359.5,-456 359.5,-468 359.5,-468 359.5,-474 353.5,-480 347.5,-480"/>
<text text-anchor="middle" x="289.5" y="-458.9" font-family="sans" font-size="12.00" fill="#c4c7c7">Principle of the bijection</text>
</a>
</g>
</g>
<!-- Set&#45;&gt;Principle of the bijection -->
<g id="edge5" class="edge">
<title>Set&#45;&gt;Principle of the bijection</title>
<path fill="none" stroke="#ffffff" d="M155.44,-342.58C157.48,-371.3 165.2,-414.8 192,-440 199.64,-447.18 209.11,-452.19 219.12,-455.65"/>
<polygon fill="#ffffff" stroke="#ffffff" points="158.93,-342.18 154.91,-332.37 151.94,-342.54 158.93,-342.18"/>
</g>
<!-- Principle of products -->
<g id="node7" class="node">
<title>Principle of products</title>
<g id="a_node7"><a xlink:href="/Knowledge/principle_of_products.html" xlink:title="Principle of products" target="_parent">
<path fill="none" stroke="#b75867" d="M338.5,-443C338.5,-443 240.5,-443 240.5,-443 234.5,-443 228.5,-437 228.5,-431 228.5,-431 228.5,-419 228.5,-419 228.5,-413 234.5,-407 240.5,-407 240.5,-407 338.5,-407 338.5,-407 344.5,-407 350.5,-413 350.5,-419 350.5,-419 350.5,-431 350.5,-431 350.5,-437 344.5,-443 338.5,-443"/>
<text text-anchor="middle" x="289.5" y="-421.9" font-family="sans" font-size="12.00" fill="#c4c7c7">Principle of products</text>
</a>
</g>
</g>
<!-- Set&#45;&gt;Principle of products -->
<g id="edge6" class="edge">
<title>Set&#45;&gt;Principle of products</title>
<path fill="none" stroke="#ffffff" d="M159.71,-342.3C164.49,-362.14 173.89,-387.73 192,-403 202.25,-411.64 215.21,-417.06 228.28,-420.41"/>
<polygon fill="#ffffff" stroke="#ffffff" points="163.08,-341.3 157.56,-332.26 156.24,-342.77 163.08,-341.3"/>
</g>
<!-- Symmetric Closure -->
<g id="node8" class="node">
<title>Symmetric Closure</title>
<g id="a_node8"><a xlink:href="/Knowledge/symmetric_closure.html" xlink:title="Symmetric Closure" target="_parent">
<path fill="none" stroke="#b75867" d="M333,-406C333,-406 246,-406 246,-406 240,-406 234,-400 234,-394 234,-394 234,-382 234,-382 234,-376 240,-370 246,-370 246,-370 333,-370 333,-370 339,-370 345,-376 345,-382 345,-382 345,-394 345,-394 345,-400 339,-406 333,-406"/>
<text text-anchor="middle" x="289.5" y="-384.9" font-family="sans" font-size="12.00" fill="#c4c7c7">Symmetric Closure</text>
</a>
</g>
</g>
<!-- Set&#45;&gt;Symmetric Closure -->
<g id="edge7" class="edge">
<title>Set&#45;&gt;Symmetric Closure</title>
<path fill="none" stroke="#ffffff" d="M168.67,-340.72C174.65,-350 182.5,-359.66 192,-366 204.37,-374.25 219.39,-379.43 233.87,-382.69"/>
<polygon fill="#ffffff" stroke="#ffffff" points="171.63,-338.85 163.5,-332.05 165.62,-342.44 171.63,-338.85"/>
</g>
<!-- Class of equivalence -->
<g id="node9" class="node">
<title>Class of equivalence</title>
<g id="a_node9"><a xlink:href="/Knowledge/class_of_equivalence.html" xlink:title="Class of equivalence" target="_parent">
<path fill="none" stroke="#b75867" d="M337,-369C337,-369 242,-369 242,-369 236,-369 230,-363 230,-357 230,-357 230,-345 230,-345 230,-339 236,-333 242,-333 242,-333 337,-333 337,-333 343,-333 349,-339 349,-345 349,-345 349,-357 349,-357 349,-363 343,-369 337,-369"/>
<text text-anchor="middle" x="289.5" y="-347.9" font-family="sans" font-size="12.00" fill="#c4c7c7">Class of equivalence</text>
</a>
</g>
</g>
<!-- Set&#45;&gt;Class of equivalence -->
<g id="edge8" class="edge">
<title>Set&#45;&gt;Class of equivalence</title>
<path fill="none" stroke="#ffffff" d="M190.65,-328.57C191.11,-328.72 191.55,-328.86 192,-329 204.13,-332.81 217.31,-336.26 229.92,-339.24"/>
<polygon fill="#ffffff" stroke="#ffffff" points="191.68,-325.22 181.09,-325.18 189.34,-331.82 191.68,-325.22"/>
</g>
<!-- Reflexive Closure -->
<g id="node10" class="node">
<title>Reflexive Closure</title>
<g id="a_node10"><a xlink:href="/Knowledge/reflexive_closure.html" xlink:title="Reflexive Closure" target="_parent">
<path fill="none" stroke="#b75867" d="M328.5,-332C328.5,-332 250.5,-332 250.5,-332 244.5,-332 238.5,-326 238.5,-320 238.5,-320 238.5,-308 238.5,-308 238.5,-302 244.5,-296 250.5,-296 250.5,-296 328.5,-296 328.5,-296 334.5,-296 340.5,-302 340.5,-308 340.5,-308 340.5,-320 340.5,-320 340.5,-326 334.5,-332 328.5,-332"/>
<text text-anchor="middle" x="289.5" y="-310.9" font-family="sans" font-size="12.00" fill="#c4c7c7">Reflexive Closure</text>
</a>
</g>
</g>
<!-- Set&#45;&gt;Reflexive Closure -->
<g id="edge9" class="edge">
<title>Set&#45;&gt;Reflexive Closure</title>
<path fill="none" stroke="#ffffff" d="M191.16,-314C205.72,-314 222.74,-314 238.45,-314"/>
<polygon fill="#ffffff" stroke="#ffffff" points="191.06,-310.5 181.06,-314 191.06,-317.5 191.06,-310.5"/>
</g>
<!-- Recurrent Equations -->
<g id="node11" class="node">
<title>Recurrent Equations</title>
<g id="a_node11"><a xlink:href="/Knowledge/recurrent_equations.html" xlink:title="Recurrent Equations" target="_parent">
<path fill="none" stroke="#b75867" d="M337,-295C337,-295 242,-295 242,-295 236,-295 230,-289 230,-283 230,-283 230,-271 230,-271 230,-265 236,-259 242,-259 242,-259 337,-259 337,-259 343,-259 349,-265 349,-271 349,-271 349,-283 349,-283 349,-289 343,-295 337,-295"/>
<text text-anchor="middle" x="289.5" y="-273.9" font-family="sans" font-size="12.00" fill="#c4c7c7">Recurrent Equations</text>
</a>
</g>
</g>
<!-- Set&#45;&gt;Recurrent Equations -->
<g id="edge10" class="edge">
<title>Set&#45;&gt;Recurrent Equations</title>
<path fill="none" stroke="#ffffff" d="M190.65,-299.43C191.11,-299.28 191.55,-299.14 192,-299 204.13,-295.19 217.31,-291.74 229.92,-288.76"/>
<polygon fill="#ffffff" stroke="#ffffff" points="189.34,-296.18 181.09,-302.82 191.68,-302.78 189.34,-296.18"/>
</g>
<!-- Principle of division -->
<g id="node12" class="node">
<title>Principle of division</title>
<g id="a_node12"><a xlink:href="/Knowledge/principle_of_division.html" xlink:title="Principle of division" target="_parent">
<path fill="none" stroke="#b75867" d="M335.5,-258C335.5,-258 243.5,-258 243.5,-258 237.5,-258 231.5,-252 231.5,-246 231.5,-246 231.5,-234 231.5,-234 231.5,-228 237.5,-222 243.5,-222 243.5,-222 335.5,-222 335.5,-222 341.5,-222 347.5,-228 347.5,-234 347.5,-234 347.5,-246 347.5,-246 347.5,-252 341.5,-258 335.5,-258"/>
<text text-anchor="middle" x="289.5" y="-236.9" font-family="sans" font-size="12.00" fill="#c4c7c7">Principle of division</text>
</a>
</g>
</g>
<!-- Set&#45;&gt;Principle of division -->
<g id="edge11" class="edge">
<title>Set&#45;&gt;Principle of division</title>
<path fill="none" stroke="#ffffff" d="M168.67,-287.28C174.65,-278 182.5,-268.34 192,-262 203.65,-254.23 217.66,-249.18 231.35,-245.9"/>
<polygon fill="#ffffff" stroke="#ffffff" points="165.62,-285.56 163.5,-295.95 171.63,-289.15 165.62,-285.56"/>
</g>
<!-- Dirichlet principle -->
<g id="node13" class="node">
<title>Dirichlet principle</title>
<g id="a_node13"><a xlink:href="/Knowledge/dirichlet_principle.html" xlink:title="Dirichlet principle" target="_parent">
<path fill="none" stroke="#b75867" d="M331,-221C331,-221 248,-221 248,-221 242,-221 236,-215 236,-209 236,-209 236,-197 236,-197 236,-191 242,-185 248,-185 248,-185 331,-185 331,-185 337,-185 343,-191 343,-197 343,-197 343,-209 343,-209 343,-215 337,-221 331,-221"/>
<text text-anchor="middle" x="289.5" y="-199.9" font-family="sans" font-size="12.00" fill="#c4c7c7">Dirichlet principle</text>
</a>
</g>
</g>
<!-- Set&#45;&gt;Dirichlet principle -->
<g id="edge12" class="edge">
<title>Set&#45;&gt;Dirichlet principle</title>
<path fill="none" stroke="#ffffff" d="M159.71,-285.7C164.49,-265.86 173.89,-240.27 192,-225 204.22,-214.7 220.29,-208.98 235.81,-205.87"/>
<polygon fill="#ffffff" stroke="#ffffff" points="156.24,-285.23 157.56,-295.74 163.08,-286.7 156.24,-285.23"/>
</g>
<!-- Relation of Equivalence -->
<g id="node14" class="node">
<title>Relation of Equivalence</title>
<g id="a_node14"><a xlink:href="/Knowledge/relation_of_equivalence.html" xlink:title="Relation of Equivalence" target="_parent">
<path fill="none" stroke="#b75867" d="M344.5,-184C344.5,-184 234.5,-184 234.5,-184 228.5,-184 222.5,-178 222.5,-172 222.5,-172 222.5,-160 222.5,-160 222.5,-154 228.5,-148 234.5,-148 234.5,-148 344.5,-148 344.5,-148 350.5,-148 356.5,-154 356.5,-160 356.5,-160 356.5,-172 356.5,-172 356.5,-178 350.5,-184 344.5,-184"/>
<text text-anchor="middle" x="289.5" y="-162.9" font-family="sans" font-size="12.00" fill="#c4c7c7">Relation of Equivalence</text>
</a>
</g>
</g>
<!-- Set&#45;&gt;Relation of Equivalence -->
<g id="edge14" class="edge">
<title>Set&#45;&gt;Relation of Equivalence</title>
<path fill="none" stroke="#ffffff" d="M155.44,-285.42C157.48,-256.7 165.2,-213.2 192,-188 200.39,-180.11 210.99,-174.85 222.08,-171.37"/>
<polygon fill="#ffffff" stroke="#ffffff" points="151.94,-285.46 154.91,-295.63 158.93,-285.82 151.94,-285.46"/>
</g>
<!-- Subjects&#45;&gt;Differential Analysis -->
<g id="edge17" class="edge">
<title>Subjects&#45;&gt;Differential Analysis</title>
<path fill="none" stroke="#b75867" d="M134.96,-129.26C120.93,-143.16 101.25,-162.45 85.43,-177.81"/>
<polygon fill="#b75867" stroke="#b75867" points="82.76,-175.52 78.02,-185 87.64,-180.55 82.76,-175.52"/>
</g>
<!-- Numeric Methods -->
<g id="node15" class="node">
<title>Numeric Methods</title>
<g id="a_node15"><a xlink:href="/Knowledge/numeric_methods.html" xlink:title="Numeric Methods" target="_parent">
<path fill="#273434" stroke="#b75867" d="M330.5,-147C330.5,-147 248.5,-147 248.5,-147 242.5,-147 236.5,-141 236.5,-135 236.5,-135 236.5,-123 236.5,-123 236.5,-117 242.5,-111 248.5,-111 248.5,-111 330.5,-111 330.5,-111 336.5,-111 342.5,-117 342.5,-123 342.5,-123 342.5,-135 342.5,-135 342.5,-141 336.5,-147 330.5,-147"/>
<text text-anchor="middle" x="289.5" y="-125.9" font-family="sans" font-size="12.00" fill="#c4c7c7">Numeric Methods</text>
</a>
</g>
</g>
<!-- Subjects&#45;&gt;Numeric Methods -->
<g id="edge15" class="edge">
<title>Subjects&#45;&gt;Numeric Methods</title>
<path fill="none" stroke="#b75867" d="M184.3,-114.95C196.71,-116.62 211.67,-118.64 226.34,-120.62"/>
<polygon fill="#b75867" stroke="#b75867" points="226.03,-124.11 236.41,-121.98 226.97,-117.17 226.03,-124.11"/>
</g>
<!-- Discrete Structures -->
<g id="node16" class="node">
<title>Discrete Structures</title>
<g id="a_node16"><a xlink:href="/Knowledge/discrete_structures.html" xlink:title="Discrete Structures" target="_parent">
<path fill="#273434" stroke="#b75867" d="M333,-110C333,-110 246,-110 246,-110 240,-110 234,-104 234,-98 234,-98 234,-86 234,-86 234,-80 240,-74 246,-74 246,-74 333,-74 333,-74 339,-74 345,-80 345,-86 345,-86 345,-98 345,-98 345,-104 339,-110 333,-110"/>
<text text-anchor="middle" x="289.5" y="-88.9" font-family="sans" font-size="12.00" fill="#c4c7c7">Discrete Structures</text>
</a>
</g>
</g>
<!-- Subjects&#45;&gt;Discrete Structures -->
<g id="edge16" class="edge">
<title>Subjects&#45;&gt;Discrete Structures</title>
<path fill="none" stroke="#b75867" d="M184.3,-106.83C195.97,-105.17 209.9,-103.19 223.72,-101.22"/>
<polygon fill="#b75867" stroke="#b75867" points="224.32,-104.67 233.73,-99.79 223.34,-97.74 224.32,-104.67"/>
</g>
<!-- Linear Algebra -->
<g id="node17" class="node">
<title>Linear Algebra</title>
<g id="a_node17"><a xlink:href="/Knowledge/linear_algebra.html" xlink:title="Linear Algebra" target="_parent">
<path fill="#273434" stroke="#b75867" d="M322,-73C322,-73 257,-73 257,-73 251,-73 245,-67 245,-61 245,-61 245,-49 245,-49 245,-43 251,-37 257,-37 257,-37 322,-37 322,-37 328,-37 334,-43 334,-49 334,-49 334,-61 334,-61 334,-67 328,-73 322,-73"/>
<text text-anchor="middle" x="289.5" y="-51.9" font-family="sans" font-size="12.00" fill="#c4c7c7">Linear Algebra</text>
</a>
</g>
</g>
<!-- Subjects&#45;&gt;Linear Algebra -->
<g id="edge18" class="edge">
<title>Subjects&#45;&gt;Linear Algebra</title>
<path fill="none" stroke="#b75867" d="M171.24,-92.68C177.24,-86.89 184.43,-80.98 192,-77 205.1,-70.12 220.31,-65.38 234.72,-62.11"/>
<polygon fill="#b75867" stroke="#b75867" points="235.46,-65.54 244.54,-60.08 234.04,-58.68 235.46,-65.54"/>
</g>
<!-- index -->
<g id="node18" class="node">
<title>index</title>
<g id="a_node18"><a xlink:href="/Knowledge/index.html" xlink:title="index" target="_parent">
<path fill="none" stroke="#b75867" d="M304.5,-36C304.5,-36 274.5,-36 274.5,-36 268.5,-36 262.5,-30 262.5,-24 262.5,-24 262.5,-12 262.5,-12 262.5,-6 268.5,0 274.5,0 274.5,0 304.5,0 304.5,0 310.5,0 316.5,-6 316.5,-12 316.5,-12 316.5,-24 316.5,-24 316.5,-30 310.5,-36 304.5,-36"/>
<text text-anchor="middle" x="289.5" y="-14.9" font-family="sans" font-size="12.00" fill="#c4c7c7">index</text>
</a>
</g>
</g>
<!-- Subjects&#45;&gt;index -->
<g id="edge19" class="edge">
<title>Subjects&#45;&gt;index</title>
<path fill="none" stroke="#ffffff" d="M163.22,-82.92C168.96,-68.05 178.14,-50.69 192,-40 212.13,-24.46 241.24,-19.54 262.22,-18.15"/>
<polygon fill="#ffffff" stroke="#ffffff" points="159.79,-82.12 159.77,-92.71 166.39,-84.44 159.79,-82.12"/>
</g>
</g>
</svg>
