<?xml version="1.0" encoding="UTF-8" standalone="no"?>
<!DOCTYPE svg PUBLIC "-//W3C//DTD SVG 1.1//EN"
 "http://www.w3.org/Graphics/SVG/1.1/DTD/svg11.dtd">
<!-- Generated by graphviz version 2.46.1 (0)
 -->
<!-- Title: Dirichlet principle Pages: 1 -->
<svg width="464pt" height="525pt"
 viewBox="0.00 0.00 464.00 525.00" xmlns="http://www.w3.org/2000/svg" xmlns:xlink="http://www.w3.org/1999/xlink">
<g id="graph0" class="graph" transform="scale(1 1) rotate(0) translate(4 521)">
<title>Dirichlet principle</title>
<polygon fill="#132020" stroke="transparent" points="-4,4 -4,-521 460,-521 460,4 -4,4"/>
<!-- Dirichlet principle -->
<g id="node1" class="node">
<title>Dirichlet principle</title>
<g id="a_node1"><a xlink:href="/Knowledge/dirichlet_principle.html" xlink:title="Dirichlet principle" target="_parent">
<path fill="#273434" stroke="#b75867" d="M95,-350C95,-350 12,-350 12,-350 6,-350 0,-344 0,-338 0,-338 0,-326 0,-326 0,-320 6,-314 12,-314 12,-314 95,-314 95,-314 101,-314 107,-320 107,-326 107,-326 107,-338 107,-338 107,-344 101,-350 95,-350"/>
<text text-anchor="middle" x="53.5" y="-328.9" font-family="sans" font-size="12.00" fill="#c4c7c7">Dirichlet principle</text>
</a>
</g>
</g>
<!-- Injective function -->
<g id="node2" class="node">
<title>Injective function</title>
<g id="a_node2"><a xlink:href="/Knowledge/injective_function.html" xlink:title="Injective function" target="_parent">
<path fill="#273434" stroke="#b75867" d="M224,-433C224,-433 144,-433 144,-433 138,-433 132,-427 132,-421 132,-421 132,-409 132,-409 132,-403 138,-397 144,-397 144,-397 224,-397 224,-397 230,-397 236,-403 236,-409 236,-409 236,-421 236,-421 236,-427 230,-433 224,-433"/>
<text text-anchor="middle" x="184" y="-411.9" font-family="sans" font-size="12.00" fill="#c4c7c7">Injective function</text>
</a>
</g>
</g>
<!-- Dirichlet principle&#45;&gt;Injective function -->
<g id="edge1" class="edge">
<title>Dirichlet principle&#45;&gt;Injective function</title>
<path fill="none" stroke="#b75867" d="M82.38,-350.01C101.11,-362.11 125.99,-378.18 146.32,-391.31"/>
<polygon fill="#b75867" stroke="#b75867" points="144.43,-394.25 154.73,-396.74 148.23,-388.37 144.43,-394.25"/>
</g>
<!-- Set -->
<g id="node3" class="node">
<title>Set</title>
<g id="a_node3"><a xlink:href="/Knowledge/set.html" xlink:title="Set" target="_parent">
<path fill="#273434" stroke="#b75867" d="M199,-258C199,-258 169,-258 169,-258 163,-258 157,-252 157,-246 157,-246 157,-234 157,-234 157,-228 163,-222 169,-222 169,-222 199,-222 199,-222 205,-222 211,-228 211,-234 211,-234 211,-246 211,-246 211,-252 205,-258 199,-258"/>
<text text-anchor="middle" x="184" y="-236.9" font-family="sans" font-size="12.00" fill="#c4c7c7">Set</text>
</a>
</g>
</g>
<!-- Dirichlet principle&#45;&gt;Set -->
<g id="edge2" class="edge">
<title>Dirichlet principle&#45;&gt;Set</title>
<path fill="none" stroke="#b75867" d="M79.89,-313.82C99.78,-299.58 127.62,-279.65 149.36,-264.08"/>
<polygon fill="#b75867" stroke="#b75867" points="151.57,-266.81 157.67,-258.14 147.5,-261.11 151.57,-266.81"/>
</g>
<!-- Combinatoric principles -->
<g id="node4" class="node">
<title>Combinatoric principles</title>
<g id="a_node4"><a xlink:href="/Knowledge/combinatoric_principles.html" xlink:title="Combinatoric principles" target="_parent">
<path fill="none" stroke="#b75867" d="M241,-350C241,-350 127,-350 127,-350 121,-350 115,-344 115,-338 115,-338 115,-326 115,-326 115,-320 121,-314 127,-314 127,-314 241,-314 241,-314 247,-314 253,-320 253,-326 253,-326 253,-338 253,-338 253,-344 247,-350 241,-350"/>
<text text-anchor="middle" x="184" y="-328.9" font-family="sans" font-size="12.00" fill="#c4c7c7">Combinatoric principles</text>
</a>
</g>
</g>
<!-- Dirichlet principle&#45;&gt;Combinatoric principles -->
<g id="edge3" class="edge">
<title>Dirichlet principle&#45;&gt;Combinatoric principles</title>
<path fill="none" stroke="#ffffff" d="M114.21,-332C114.36,-332 114.52,-332 114.68,-332"/>
<polygon fill="#ffffff" stroke="#ffffff" points="117.14,-328.5 107.14,-332 117.14,-335.5 117.14,-328.5"/>
</g>
<!-- Injective function&#45;&gt;Dirichlet principle -->
<g id="edge5" class="edge">
<title>Injective function&#45;&gt;Dirichlet principle</title>
<path fill="none" stroke="#ffffff" d="M145.38,-391.39C124.88,-378.25 99.98,-362.14 81.44,-350.02"/>
<polygon fill="#ffffff" stroke="#ffffff" points="143.55,-394.38 153.86,-396.82 147.33,-388.48 143.55,-394.38"/>
</g>
<!-- Bijective function -->
<g id="node5" class="node">
<title>Bijective function</title>
<g id="a_node5"><a xlink:href="/Knowledge/bijective_function.html" xlink:title="Bijective function" target="_parent">
<path fill="none" stroke="#b75867" d="M398.5,-517C398.5,-517 318.5,-517 318.5,-517 312.5,-517 306.5,-511 306.5,-505 306.5,-505 306.5,-493 306.5,-493 306.5,-487 312.5,-481 318.5,-481 318.5,-481 398.5,-481 398.5,-481 404.5,-481 410.5,-487 410.5,-493 410.5,-493 410.5,-505 410.5,-505 410.5,-511 404.5,-517 398.5,-517"/>
<text text-anchor="middle" x="358.5" y="-495.9" font-family="sans" font-size="12.00" fill="#c4c7c7">Bijective function</text>
</a>
</g>
</g>
<!-- Injective function&#45;&gt;Bijective function -->
<g id="edge4" class="edge">
<title>Injective function&#45;&gt;Bijective function</title>
<path fill="none" stroke="#ffffff" d="M209.64,-440.05C223.59,-452.89 242.02,-467.73 261,-477 275.05,-483.86 291.31,-488.62 306.42,-491.91"/>
<polygon fill="#ffffff" stroke="#ffffff" points="212.04,-437.51 202.37,-433.18 207.23,-442.59 212.04,-437.51"/>
</g>
<!-- Linear Algebra -->
<g id="node6" class="node">
<title>Linear Algebra</title>
<g id="a_node6"><a xlink:href="/Knowledge/linear_algebra.html" xlink:title="Linear Algebra" target="_parent">
<path fill="none" stroke="#b75867" d="M391,-480C391,-480 326,-480 326,-480 320,-480 314,-474 314,-468 314,-468 314,-456 314,-456 314,-450 320,-444 326,-444 326,-444 391,-444 391,-444 397,-444 403,-450 403,-456 403,-456 403,-468 403,-468 403,-474 397,-480 391,-480"/>
<text text-anchor="middle" x="358.5" y="-458.9" font-family="sans" font-size="12.00" fill="#c4c7c7">Linear Algebra</text>
</a>
</g>
</g>
<!-- Injective function&#45;&gt;Linear Algebra -->
<g id="edge6" class="edge">
<title>Injective function&#45;&gt;Linear Algebra</title>
<path fill="none" stroke="#ffffff" d="M246.01,-435.62C251.06,-437.16 256.11,-438.64 261,-440 278.05,-444.74 297.01,-449.22 313.57,-452.89"/>
<polygon fill="#ffffff" stroke="#ffffff" points="246.9,-432.23 236.31,-432.6 244.82,-438.92 246.9,-432.23"/>
</g>
<!-- Set&#45;&gt;Dirichlet principle -->
<g id="edge16" class="edge">
<title>Set&#45;&gt;Dirichlet principle</title>
<path fill="none" stroke="#ffffff" d="M150.1,-264.22C128.47,-279.83 100.57,-299.79 80.5,-314"/>
<polygon fill="#ffffff" stroke="#ffffff" points="152.29,-266.95 158.34,-258.26 148.19,-261.28 152.29,-266.95"/>
</g>
<!-- Principle of partitions -->
<g id="node7" class="node">
<title>Principle of partitions</title>
<g id="a_node7"><a xlink:href="/Knowledge/principle_of_partitions.html" xlink:title="Principle of partitions" target="_parent">
<path fill="none" stroke="#b75867" d="M409.5,-295C409.5,-295 307.5,-295 307.5,-295 301.5,-295 295.5,-289 295.5,-283 295.5,-283 295.5,-271 295.5,-271 295.5,-265 301.5,-259 307.5,-259 307.5,-259 409.5,-259 409.5,-259 415.5,-259 421.5,-265 421.5,-271 421.5,-271 421.5,-283 421.5,-283 421.5,-289 415.5,-295 409.5,-295"/>
<text text-anchor="middle" x="358.5" y="-273.9" font-family="sans" font-size="12.00" fill="#c4c7c7">Principle of partitions</text>
</a>
</g>
</g>
<!-- Set&#45;&gt;Principle of partitions -->
<g id="edge7" class="edge">
<title>Set&#45;&gt;Principle of partitions</title>
<path fill="none" stroke="#ffffff" d="M221.17,-247.76C242.6,-252.35 270.33,-258.3 295.19,-263.63"/>
<polygon fill="#ffffff" stroke="#ffffff" points="221.71,-244.29 211.2,-245.62 220.24,-251.14 221.71,-244.29"/>
</g>
<!-- Principle of inclusion and exclusion -->
<g id="node8" class="node">
<title>Principle of inclusion and exclusion</title>
<g id="a_node8"><a xlink:href="/Knowledge/principle_of_inclusion_and_exclusion.html" xlink:title="Principle of inclusion and exclusion" target="_parent">
<path fill="none" stroke="#b75867" d="M444,-258C444,-258 273,-258 273,-258 267,-258 261,-252 261,-246 261,-246 261,-234 261,-234 261,-228 267,-222 273,-222 273,-222 444,-222 444,-222 450,-222 456,-228 456,-234 456,-234 456,-246 456,-246 456,-252 450,-258 444,-258"/>
<text text-anchor="middle" x="358.5" y="-236.9" font-family="sans" font-size="12.00" fill="#c4c7c7">Principle of inclusion and exclusion</text>
</a>
</g>
</g>
<!-- Set&#45;&gt;Principle of inclusion and exclusion -->
<g id="edge8" class="edge">
<title>Set&#45;&gt;Principle of inclusion and exclusion</title>
<path fill="none" stroke="#ffffff" d="M221.42,-240C233.18,-240 246.81,-240 260.82,-240"/>
<polygon fill="#ffffff" stroke="#ffffff" points="221.2,-236.5 211.2,-240 221.2,-243.5 221.2,-236.5"/>
</g>
<!-- Principle of the bijection -->
<g id="node9" class="node">
<title>Principle of the bijection</title>
<g id="a_node9"><a xlink:href="/Knowledge/principle_of_the_bijection.html" xlink:title="Principle of the bijection" target="_parent">
<path fill="none" stroke="#b75867" d="M416.5,-406C416.5,-406 300.5,-406 300.5,-406 294.5,-406 288.5,-400 288.5,-394 288.5,-394 288.5,-382 288.5,-382 288.5,-376 294.5,-370 300.5,-370 300.5,-370 416.5,-370 416.5,-370 422.5,-370 428.5,-376 428.5,-382 428.5,-382 428.5,-394 428.5,-394 428.5,-400 422.5,-406 416.5,-406"/>
<text text-anchor="middle" x="358.5" y="-384.9" font-family="sans" font-size="12.00" fill="#c4c7c7">Principle of the bijection</text>
</a>
</g>
</g>
<!-- Set&#45;&gt;Principle of the bijection -->
<g id="edge9" class="edge">
<title>Set&#45;&gt;Principle of the bijection</title>
<path fill="none" stroke="#ffffff" d="M215.16,-265.11C228.91,-278.23 244.07,-295.42 253,-314 263.13,-335.08 245.07,-348.89 261,-366 268.38,-373.92 277.97,-379.28 288.23,-382.85"/>
<polygon fill="#ffffff" stroke="#ffffff" points="217.44,-262.45 207.72,-258.25 212.7,-267.6 217.44,-262.45"/>
</g>
<!-- Principle of products -->
<g id="node10" class="node">
<title>Principle of products</title>
<g id="a_node10"><a xlink:href="/Knowledge/principle_of_products.html" xlink:title="Principle of products" target="_parent">
<path fill="none" stroke="#b75867" d="M407.5,-369C407.5,-369 309.5,-369 309.5,-369 303.5,-369 297.5,-363 297.5,-357 297.5,-357 297.5,-345 297.5,-345 297.5,-339 303.5,-333 309.5,-333 309.5,-333 407.5,-333 407.5,-333 413.5,-333 419.5,-339 419.5,-345 419.5,-345 419.5,-357 419.5,-357 419.5,-363 413.5,-369 407.5,-369"/>
<text text-anchor="middle" x="358.5" y="-347.9" font-family="sans" font-size="12.00" fill="#c4c7c7">Principle of products</text>
</a>
</g>
</g>
<!-- Set&#45;&gt;Principle of products -->
<g id="edge10" class="edge">
<title>Set&#45;&gt;Principle of products</title>
<path fill="none" stroke="#ffffff" d="M211.16,-265.21C224.58,-278.91 240.66,-296.58 253,-314 257.37,-320.16 255,-324.41 261,-329 271.51,-337.03 284.43,-342.22 297.36,-345.56"/>
<polygon fill="#ffffff" stroke="#ffffff" points="213.55,-262.65 204.02,-258.03 208.59,-267.59 213.55,-262.65"/>
</g>
<!-- Symmetric Closure -->
<g id="node11" class="node">
<title>Symmetric Closure</title>
<g id="a_node11"><a xlink:href="/Knowledge/symmetric_closure.html" xlink:title="Symmetric Closure" target="_parent">
<path fill="none" stroke="#b75867" d="M402,-221C402,-221 315,-221 315,-221 309,-221 303,-215 303,-209 303,-209 303,-197 303,-197 303,-191 309,-185 315,-185 315,-185 402,-185 402,-185 408,-185 414,-191 414,-197 414,-197 414,-209 414,-209 414,-215 408,-221 402,-221"/>
<text text-anchor="middle" x="358.5" y="-199.9" font-family="sans" font-size="12.00" fill="#c4c7c7">Symmetric Closure</text>
</a>
</g>
</g>
<!-- Set&#45;&gt;Symmetric Closure -->
<g id="edge11" class="edge">
<title>Set&#45;&gt;Symmetric Closure</title>
<path fill="none" stroke="#ffffff" d="M221.15,-232.25C244.8,-227.17 276.13,-220.45 302.8,-214.73"/>
<polygon fill="#ffffff" stroke="#ffffff" points="220.24,-228.86 211.2,-234.38 221.71,-235.71 220.24,-228.86"/>
</g>
<!-- Class of equivalence -->
<g id="node12" class="node">
<title>Class of equivalence</title>
<g id="a_node12"><a xlink:href="/Knowledge/class_of_equivalence.html" xlink:title="Class of equivalence" target="_parent">
<path fill="none" stroke="#b75867" d="M406,-184C406,-184 311,-184 311,-184 305,-184 299,-178 299,-172 299,-172 299,-160 299,-160 299,-154 305,-148 311,-148 311,-148 406,-148 406,-148 412,-148 418,-154 418,-160 418,-160 418,-172 418,-172 418,-178 412,-184 406,-184"/>
<text text-anchor="middle" x="358.5" y="-162.9" font-family="sans" font-size="12.00" fill="#c4c7c7">Class of equivalence</text>
</a>
</g>
</g>
<!-- Set&#45;&gt;Class of equivalence -->
<g id="edge12" class="edge">
<title>Set&#45;&gt;Class of equivalence</title>
<path fill="none" stroke="#ffffff" d="M214.97,-215.62C228.37,-205.78 244.78,-195.09 261,-188 272.89,-182.8 286.16,-178.76 298.96,-175.64"/>
<polygon fill="#ffffff" stroke="#ffffff" points="212.5,-213.1 206.63,-221.92 216.72,-218.69 212.5,-213.1"/>
</g>
<!-- Reflexive Closure -->
<g id="node13" class="node">
<title>Reflexive Closure</title>
<g id="a_node13"><a xlink:href="/Knowledge/reflexive_closure.html" xlink:title="Reflexive Closure" target="_parent">
<path fill="none" stroke="#b75867" d="M397.5,-147C397.5,-147 319.5,-147 319.5,-147 313.5,-147 307.5,-141 307.5,-135 307.5,-135 307.5,-123 307.5,-123 307.5,-117 313.5,-111 319.5,-111 319.5,-111 397.5,-111 397.5,-111 403.5,-111 409.5,-117 409.5,-123 409.5,-123 409.5,-135 409.5,-135 409.5,-141 403.5,-147 397.5,-147"/>
<text text-anchor="middle" x="358.5" y="-125.9" font-family="sans" font-size="12.00" fill="#c4c7c7">Reflexive Closure</text>
</a>
</g>
</g>
<!-- Set&#45;&gt;Reflexive Closure -->
<g id="edge13" class="edge">
<title>Set&#45;&gt;Reflexive Closure</title>
<path fill="none" stroke="#ffffff" d="M200.88,-213.47C214.37,-193.27 235.56,-166.39 261,-151 274.82,-142.64 291.5,-137.45 307.08,-134.24"/>
<polygon fill="#ffffff" stroke="#ffffff" points="197.9,-211.64 195.41,-221.94 203.78,-215.44 197.9,-211.64"/>
</g>
<!-- Recurrent Equations -->
<g id="node14" class="node">
<title>Recurrent Equations</title>
<g id="a_node14"><a xlink:href="/Knowledge/recurrent_equations.html" xlink:title="Recurrent Equations" target="_parent">
<path fill="none" stroke="#b75867" d="M406,-110C406,-110 311,-110 311,-110 305,-110 299,-104 299,-98 299,-98 299,-86 299,-86 299,-80 305,-74 311,-74 311,-74 406,-74 406,-74 412,-74 418,-80 418,-86 418,-86 418,-98 418,-98 418,-104 412,-110 406,-110"/>
<text text-anchor="middle" x="358.5" y="-88.9" font-family="sans" font-size="12.00" fill="#c4c7c7">Recurrent Equations</text>
</a>
</g>
</g>
<!-- Set&#45;&gt;Recurrent Equations -->
<g id="edge14" class="edge">
<title>Set&#45;&gt;Recurrent Equations</title>
<path fill="none" stroke="#ffffff" d="M194.3,-212.23C205.49,-183.19 227.11,-138.51 261,-114 272.07,-105.99 285.57,-100.84 298.92,-97.54"/>
<polygon fill="#ffffff" stroke="#ffffff" points="190.95,-211.2 190.77,-221.79 197.52,-213.62 190.95,-211.2"/>
</g>
<!-- Principle of division -->
<g id="node15" class="node">
<title>Principle of division</title>
<g id="a_node15"><a xlink:href="/Knowledge/principle_of_division.html" xlink:title="Principle of division" target="_parent">
<path fill="none" stroke="#b75867" d="M404.5,-332C404.5,-332 312.5,-332 312.5,-332 306.5,-332 300.5,-326 300.5,-320 300.5,-320 300.5,-308 300.5,-308 300.5,-302 306.5,-296 312.5,-296 312.5,-296 404.5,-296 404.5,-296 410.5,-296 416.5,-302 416.5,-308 416.5,-308 416.5,-320 416.5,-320 416.5,-326 410.5,-332 404.5,-332"/>
<text text-anchor="middle" x="358.5" y="-310.9" font-family="sans" font-size="12.00" fill="#c4c7c7">Principle of division</text>
</a>
</g>
</g>
<!-- Set&#45;&gt;Principle of division -->
<g id="edge15" class="edge">
<title>Set&#45;&gt;Principle of division</title>
<path fill="none" stroke="#ffffff" d="M214.97,-264.38C228.37,-274.22 244.78,-284.91 261,-292 273.36,-297.4 287.21,-301.56 300.48,-304.73"/>
<polygon fill="#ffffff" stroke="#ffffff" points="216.72,-261.31 206.63,-258.08 212.5,-266.9 216.72,-261.31"/>
</g>
<!-- Differential Analysis -->
<g id="node16" class="node">
<title>Differential Analysis</title>
<g id="a_node16"><a xlink:href="/Knowledge/differential_analysis.html" xlink:title="Differential Analysis" target="_parent">
<path fill="none" stroke="#b75867" d="M404.5,-73C404.5,-73 312.5,-73 312.5,-73 306.5,-73 300.5,-67 300.5,-61 300.5,-61 300.5,-49 300.5,-49 300.5,-43 306.5,-37 312.5,-37 312.5,-37 404.5,-37 404.5,-37 410.5,-37 416.5,-43 416.5,-49 416.5,-49 416.5,-61 416.5,-61 416.5,-67 410.5,-73 404.5,-73"/>
<text text-anchor="middle" x="358.5" y="-51.9" font-family="sans" font-size="12.00" fill="#c4c7c7">Differential Analysis</text>
</a>
</g>
</g>
<!-- Set&#45;&gt;Differential Analysis -->
<g id="edge17" class="edge">
<title>Set&#45;&gt;Differential Analysis</title>
<path fill="none" stroke="#ffffff" d="M190.21,-211.81C198.54,-175.04 218.44,-111.37 261,-77 272.16,-67.99 286.31,-62.51 300.31,-59.23"/>
<polygon fill="#ffffff" stroke="#ffffff" points="186.73,-211.35 188.08,-221.86 193.58,-212.81 186.73,-211.35"/>
</g>
<!-- Relation of Equivalence -->
<g id="node17" class="node">
<title>Relation of Equivalence</title>
<g id="a_node17"><a xlink:href="/Knowledge/relation_of_equivalence.html" xlink:title="Relation of Equivalence" target="_parent">
<path fill="none" stroke="#b75867" d="M413.5,-36C413.5,-36 303.5,-36 303.5,-36 297.5,-36 291.5,-30 291.5,-24 291.5,-24 291.5,-12 291.5,-12 291.5,-6 297.5,0 303.5,0 303.5,0 413.5,0 413.5,0 419.5,0 425.5,-6 425.5,-12 425.5,-12 425.5,-24 425.5,-24 425.5,-30 419.5,-36 413.5,-36"/>
<text text-anchor="middle" x="358.5" y="-14.9" font-family="sans" font-size="12.00" fill="#c4c7c7">Relation of Equivalence</text>
</a>
</g>
</g>
<!-- Set&#45;&gt;Relation of Equivalence -->
<g id="edge18" class="edge">
<title>Set&#45;&gt;Relation of Equivalence</title>
<path fill="none" stroke="#ffffff" d="M187.46,-211.69C192.83,-168.05 209.59,-84.72 261,-40 269.56,-32.56 280.12,-27.49 291.08,-24.07"/>
<polygon fill="#ffffff" stroke="#ffffff" points="183.96,-211.56 186.33,-221.88 190.91,-212.33 183.96,-211.56"/>
</g>
<!-- Combinatoric principles&#45;&gt;Dirichlet principle -->
<g id="edge24" class="edge">
<title>Combinatoric principles&#45;&gt;Dirichlet principle</title>
<path fill="none" stroke="#b75867" d="M114.68,-332.75C114.52,-332.75 114.36,-332.75 114.21,-332.75"/>
<polygon fill="#b75867" stroke="#b75867" points="117.14,-329.25 107.14,-332.74 117.13,-336.25 117.14,-329.25"/>
</g>
<!-- Combinatoric principles&#45;&gt;Principle of partitions -->
<g id="edge23" class="edge">
<title>Combinatoric principles&#45;&gt;Principle of partitions</title>
<path fill="none" stroke="#b75867" d="M222.74,-313.97C234.78,-308.66 248.29,-303.17 261,-299 268.86,-296.42 277.18,-294.03 285.51,-291.86"/>
<polygon fill="#b75867" stroke="#b75867" points="286.42,-295.24 295.26,-289.4 284.71,-288.45 286.42,-295.24"/>
</g>
<!-- Combinatoric principles&#45;&gt;Principle of inclusion and exclusion -->
<g id="edge19" class="edge">
<title>Combinatoric principles&#45;&gt;Principle of inclusion and exclusion</title>
<path fill="none" stroke="#b75867" d="M199.66,-313.95C212.4,-299.38 232.22,-279.18 260.08,-263.04"/>
<polygon fill="#b75867" stroke="#b75867" points="261.89,-266.04 268.98,-258.17 258.53,-259.89 261.89,-266.04"/>
</g>
<!-- Combinatoric principles&#45;&gt;Principle of the bijection -->
<g id="edge21" class="edge">
<title>Combinatoric principles&#45;&gt;Principle of the bijection</title>
<path fill="none" stroke="#b75867" d="M221.53,-350.09C233.86,-355.72 247.84,-361.6 261,-366 266.59,-367.87 272.41,-369.63 278.3,-371.28"/>
<polygon fill="#b75867" stroke="#b75867" points="277.68,-374.74 288.25,-373.95 279.5,-367.98 277.68,-374.74"/>
</g>
<!-- Combinatoric principles&#45;&gt;Principle of products -->
<g id="edge22" class="edge">
<title>Combinatoric principles&#45;&gt;Principle of products</title>
<path fill="none" stroke="#b75867" d="M253.18,-339.51C264.35,-340.74 275.95,-342.02 287.18,-343.25"/>
<polygon fill="#b75867" stroke="#b75867" points="287.04,-346.76 297.36,-344.38 287.8,-339.8 287.04,-346.76"/>
</g>
<!-- Combinatoric principles&#45;&gt;Principle of division -->
<g id="edge20" class="edge">
<title>Combinatoric principles&#45;&gt;Principle of division</title>
<path fill="none" stroke="#b75867" d="M253.18,-324.89C265.39,-323.61 278.11,-322.28 290.29,-321.01"/>
<polygon fill="#b75867" stroke="#b75867" points="290.8,-324.48 300.38,-319.96 290.07,-317.52 290.8,-324.48"/>
</g>
<!-- Combinatorics -->
<g id="node18" class="node">
<title>Combinatorics</title>
<g id="a_node18"><a xlink:href="/Knowledge/combinatorics.html" xlink:title="Combinatorics" target="_parent">
<path fill="none" stroke="#b75867" d="M392,-443C392,-443 325,-443 325,-443 319,-443 313,-437 313,-431 313,-431 313,-419 313,-419 313,-413 319,-407 325,-407 325,-407 392,-407 392,-407 398,-407 404,-413 404,-419 404,-419 404,-431 404,-431 404,-437 398,-443 392,-443"/>
<text text-anchor="middle" x="358.5" y="-421.9" font-family="sans" font-size="12.00" fill="#c4c7c7">Combinatorics</text>
</a>
</g>
</g>
<!-- Combinatoric principles&#45;&gt;Combinatorics -->
<g id="edge25" class="edge">
<title>Combinatoric principles&#45;&gt;Combinatorics</title>
<path fill="none" stroke="#ffffff" d="M210.63,-357.2C230.3,-376.32 255.06,-399.85 261,-403 276.79,-411.38 295.67,-416.58 312.53,-419.8"/>
<polygon fill="#ffffff" stroke="#ffffff" points="212.99,-354.62 203.39,-350.14 208.11,-359.63 212.99,-354.62"/>
</g>
</g>
</svg>
