<?xml version="1.0" encoding="UTF-8" standalone="no"?>
<!DOCTYPE svg PUBLIC "-//W3C//DTD SVG 1.1//EN"
 "http://www.w3.org/Graphics/SVG/1.1/DTD/svg11.dtd">
<!-- Generated by graphviz version 2.46.1 (0)
 -->
<!-- Title: Discrete Structures Pages: 1 -->
<svg width="441pt" height="1043pt"
 viewBox="0.00 0.00 441.00 1043.00" xmlns="http://www.w3.org/2000/svg" xmlns:xlink="http://www.w3.org/1999/xlink">
<g id="graph0" class="graph" transform="scale(1 1) rotate(0) translate(4 1039)">
<title>Discrete Structures</title>
<polygon fill="#132020" stroke="transparent" points="-4,4 -4,-1039 437,-1039 437,4 -4,4"/>
<!-- Discrete Structures -->
<g id="node1" class="node">
<title>Discrete Structures</title>
<g id="a_node1"><a xlink:href="/Knowledge/discrete_structures.html" xlink:title="Discrete Structures" target="_parent">
<path fill="#273434" stroke="#b75867" d="M99,-498C99,-498 12,-498 12,-498 6,-498 0,-492 0,-486 0,-486 0,-474 0,-474 0,-468 6,-462 12,-462 12,-462 99,-462 99,-462 105,-462 111,-468 111,-474 111,-474 111,-486 111,-486 111,-492 105,-498 99,-498"/>
<text text-anchor="middle" x="55.5" y="-476.9" font-family="sans" font-size="12.00" fill="#c4c7c7">Discrete Structures</text>
</a>
</g>
</g>
<!-- Recurrent Equations -->
<g id="node2" class="node">
<title>Recurrent Equations</title>
<g id="a_node2"><a xlink:href="/Knowledge/recurrent_equations.html" xlink:title="Recurrent Equations" target="_parent">
<path fill="#273434" stroke="#b75867" d="M227,-924C227,-924 132,-924 132,-924 126,-924 120,-918 120,-912 120,-912 120,-900 120,-900 120,-894 126,-888 132,-888 132,-888 227,-888 227,-888 233,-888 239,-894 239,-900 239,-900 239,-912 239,-912 239,-918 233,-924 227,-924"/>
<text text-anchor="middle" x="179.5" y="-902.9" font-family="sans" font-size="12.00" fill="#c4c7c7">Recurrent Equations</text>
</a>
</g>
</g>
<!-- Discrete Structures&#45;&gt;Recurrent Equations -->
<g id="edge1" class="edge">
<title>Discrete Structures&#45;&gt;Recurrent Equations</title>
<path fill="none" stroke="#b75867" d="M61.66,-498.03C80.72,-564.57 147.17,-796.61 170.41,-877.74"/>
<polygon fill="#b75867" stroke="#b75867" points="167.15,-879.07 173.27,-887.72 173.88,-877.15 167.15,-879.07"/>
</g>
<!-- Combinatorics -->
<g id="node3" class="node">
<title>Combinatorics</title>
<g id="a_node3"><a xlink:href="/Knowledge/combinatorics.html" xlink:title="Combinatorics" target="_parent">
<path fill="#273434" stroke="#b75867" d="M213,-572C213,-572 146,-572 146,-572 140,-572 134,-566 134,-560 134,-560 134,-548 134,-548 134,-542 140,-536 146,-536 146,-536 213,-536 213,-536 219,-536 225,-542 225,-548 225,-548 225,-560 225,-560 225,-566 219,-572 213,-572"/>
<text text-anchor="middle" x="179.5" y="-550.9" font-family="sans" font-size="12.00" fill="#c4c7c7">Combinatorics</text>
</a>
</g>
</g>
<!-- Discrete Structures&#45;&gt;Combinatorics -->
<g id="edge2" class="edge">
<title>Discrete Structures&#45;&gt;Combinatorics</title>
<path fill="none" stroke="#b75867" d="M74.93,-498.22C86.76,-509.14 102.87,-522.68 119,-532 120.75,-533.01 122.56,-533.99 124.4,-534.94"/>
<polygon fill="#b75867" stroke="#b75867" points="123.33,-538.31 133.87,-539.41 126.32,-531.97 123.33,-538.31"/>
</g>
<!-- Functions -->
<g id="node4" class="node">
<title>Functions</title>
<g id="a_node4"><a xlink:href="/Knowledge/functions.html" xlink:title="Functions" target="_parent">
<path fill="#273434" stroke="#b75867" d="M201,-535C201,-535 158,-535 158,-535 152,-535 146,-529 146,-523 146,-523 146,-511 146,-511 146,-505 152,-499 158,-499 158,-499 201,-499 201,-499 207,-499 213,-505 213,-511 213,-511 213,-523 213,-523 213,-529 207,-535 201,-535"/>
<text text-anchor="middle" x="179.5" y="-513.9" font-family="sans" font-size="12.00" fill="#c4c7c7">Functions</text>
</a>
</g>
</g>
<!-- Discrete Structures&#45;&gt;Functions -->
<g id="edge3" class="edge">
<title>Discrete Structures&#45;&gt;Functions</title>
<path fill="none" stroke="#b75867" d="M111.08,-496.55C119.37,-499.07 127.83,-501.63 135.83,-504.06"/>
<polygon fill="#b75867" stroke="#b75867" points="135.07,-507.49 145.66,-507.04 137.1,-500.79 135.07,-507.49"/>
</g>
<!-- Relations -->
<g id="node5" class="node">
<title>Relations</title>
<g id="a_node5"><a xlink:href="/Knowledge/relations.html" xlink:title="Relations" target="_parent">
<path fill="#273434" stroke="#b75867" d="M199.5,-498C199.5,-498 159.5,-498 159.5,-498 153.5,-498 147.5,-492 147.5,-486 147.5,-486 147.5,-474 147.5,-474 147.5,-468 153.5,-462 159.5,-462 159.5,-462 199.5,-462 199.5,-462 205.5,-462 211.5,-468 211.5,-474 211.5,-474 211.5,-486 211.5,-486 211.5,-492 205.5,-498 199.5,-498"/>
<text text-anchor="middle" x="179.5" y="-476.9" font-family="sans" font-size="12.00" fill="#c4c7c7">Relations</text>
</a>
</g>
</g>
<!-- Discrete Structures&#45;&gt;Relations -->
<g id="edge4" class="edge">
<title>Discrete Structures&#45;&gt;Relations</title>
<path fill="none" stroke="#b75867" d="M111.08,-480C119.82,-480 128.74,-480 137.11,-480"/>
<polygon fill="#b75867" stroke="#b75867" points="137.36,-483.5 147.36,-480 137.36,-476.5 137.36,-483.5"/>
</g>
<!-- Logical Equivalences -->
<g id="node6" class="node">
<title>Logical Equivalences</title>
<g id="a_node6"><a xlink:href="/Knowledge/logical_equivalences.html" xlink:title="Logical Equivalences" target="_parent">
<path fill="#273434" stroke="#b75867" d="M228,-461C228,-461 131,-461 131,-461 125,-461 119,-455 119,-449 119,-449 119,-437 119,-437 119,-431 125,-425 131,-425 131,-425 228,-425 228,-425 234,-425 240,-431 240,-437 240,-437 240,-449 240,-449 240,-455 234,-461 228,-461"/>
<text text-anchor="middle" x="179.5" y="-439.9" font-family="sans" font-size="12.00" fill="#c4c7c7">Logical Equivalences</text>
</a>
</g>
</g>
<!-- Discrete Structures&#45;&gt;Logical Equivalences -->
<g id="edge5" class="edge">
<title>Discrete Structures&#45;&gt;Logical Equivalences</title>
<path fill="none" stroke="#b75867" d="M111.08,-463.45C111.16,-463.42 111.24,-463.4 111.33,-463.37"/>
<polygon fill="#b75867" stroke="#b75867" points="110.55,-467.27 119.1,-461.01 108.51,-460.57 110.55,-467.27"/>
</g>
<!-- Logical Operators -->
<g id="node7" class="node">
<title>Logical Operators</title>
<g id="a_node7"><a xlink:href="/Knowledge/logical_operators.html" xlink:title="Logical Operators" target="_parent">
<path fill="#273434" stroke="#b75867" d="M220.5,-424C220.5,-424 138.5,-424 138.5,-424 132.5,-424 126.5,-418 126.5,-412 126.5,-412 126.5,-400 126.5,-400 126.5,-394 132.5,-388 138.5,-388 138.5,-388 220.5,-388 220.5,-388 226.5,-388 232.5,-394 232.5,-400 232.5,-400 232.5,-412 232.5,-412 232.5,-418 226.5,-424 220.5,-424"/>
<text text-anchor="middle" x="179.5" y="-402.9" font-family="sans" font-size="12.00" fill="#c4c7c7">Logical Operators</text>
</a>
</g>
</g>
<!-- Discrete Structures&#45;&gt;Logical Operators -->
<g id="edge6" class="edge">
<title>Discrete Structures&#45;&gt;Logical Operators</title>
<path fill="none" stroke="#b75867" d="M74.93,-461.78C85.23,-452.27 98.79,-440.77 117.67,-429.19"/>
<polygon fill="#b75867" stroke="#b75867" points="119.57,-432.13 126.41,-424.05 116.02,-426.1 119.57,-432.13"/>
</g>
<!-- Subjects -->
<g id="node8" class="node">
<title>Subjects</title>
<g id="a_node8"><a xlink:href="/Knowledge/subjects.html" xlink:title="Subjects" target="_parent">
<path fill="none" stroke="#b75867" d="M197.5,-129C197.5,-129 161.5,-129 161.5,-129 155.5,-129 149.5,-123 149.5,-117 149.5,-117 149.5,-105 149.5,-105 149.5,-99 155.5,-93 161.5,-93 161.5,-93 197.5,-93 197.5,-93 203.5,-93 209.5,-99 209.5,-105 209.5,-105 209.5,-117 209.5,-117 209.5,-123 203.5,-129 197.5,-129"/>
<text text-anchor="middle" x="179.5" y="-107.9" font-family="sans" font-size="12.00" fill="#c4c7c7">Subjects</text>
</a>
</g>
</g>
<!-- Discrete Structures&#45;&gt;Subjects -->
<g id="edge7" class="edge">
<title>Discrete Structures&#45;&gt;Subjects</title>
<path fill="none" stroke="#ffffff" d="M65.69,-452.22C89.51,-380.15 152.82,-188.68 172.54,-129.01"/>
<polygon fill="#ffffff" stroke="#ffffff" points="62.28,-451.36 62.47,-461.95 68.93,-453.56 62.28,-451.36"/>
</g>
<!-- Recurrent Equations&#45;&gt;Discrete Structures -->
<g id="edge11" class="edge">
<title>Recurrent Equations&#45;&gt;Discrete Structures</title>
<path fill="none" stroke="#ffffff" d="M170.23,-877.52C146.81,-796.22 80.49,-564.63 61.59,-498.09"/>
<polygon fill="#ffffff" stroke="#ffffff" points="166.98,-878.9 173.12,-887.54 173.71,-876.96 166.98,-878.9"/>
</g>
<!-- Set -->
<g id="node9" class="node">
<title>Set</title>
<g id="a_node9"><a xlink:href="/Knowledge/set.html" xlink:title="Set" target="_parent">
<path fill="#273434" stroke="#b75867" d="M355.5,-1035C355.5,-1035 325.5,-1035 325.5,-1035 319.5,-1035 313.5,-1029 313.5,-1023 313.5,-1023 313.5,-1011 313.5,-1011 313.5,-1005 319.5,-999 325.5,-999 325.5,-999 355.5,-999 355.5,-999 361.5,-999 367.5,-1005 367.5,-1011 367.5,-1011 367.5,-1023 367.5,-1023 367.5,-1029 361.5,-1035 355.5,-1035"/>
<text text-anchor="middle" x="340.5" y="-1013.9" font-family="sans" font-size="12.00" fill="#c4c7c7">Set</text>
</a>
</g>
</g>
<!-- Recurrent Equations&#45;&gt;Set -->
<g id="edge8" class="edge">
<title>Recurrent Equations&#45;&gt;Set</title>
<path fill="none" stroke="#b75867" d="M189.28,-924C200.18,-944.42 220.73,-977.17 248,-995 264.35,-1005.69 285.38,-1011.19 303.16,-1014.02"/>
<polygon fill="#b75867" stroke="#b75867" points="302.8,-1017.5 313.19,-1015.4 303.76,-1010.57 302.8,-1017.5"/>
</g>
<!-- Multiset -->
<g id="node10" class="node">
<title>Multiset</title>
<g id="a_node10"><a xlink:href="/Knowledge/multiset.html" xlink:title="Multiset" target="_parent">
<path fill="#273434" stroke="#b75867" d="M357,-998C357,-998 324,-998 324,-998 318,-998 312,-992 312,-986 312,-986 312,-974 312,-974 312,-968 318,-962 324,-962 324,-962 357,-962 357,-962 363,-962 369,-968 369,-974 369,-974 369,-986 369,-986 369,-992 363,-998 357,-998"/>
<text text-anchor="middle" x="340.5" y="-976.9" font-family="sans" font-size="12.00" fill="#c4c7c7">Multiset</text>
</a>
</g>
</g>
<!-- Recurrent Equations&#45;&gt;Multiset -->
<g id="edge9" class="edge">
<title>Recurrent Equations&#45;&gt;Multiset</title>
<path fill="none" stroke="#b75867" d="M199.41,-924.09C212.2,-935.39 229.98,-949.38 248,-958 264.72,-966 284.59,-971.23 301.54,-974.57"/>
<polygon fill="#b75867" stroke="#b75867" points="301.19,-978.07 311.66,-976.42 302.45,-971.18 301.19,-978.07"/>
</g>
<!-- Fundamental Theorem of Algebra -->
<g id="node11" class="node">
<title>Fundamental Theorem of Algebra</title>
<g id="a_node11"><a xlink:href="/Knowledge/fundamental_theorem_of_algebra.html" xlink:title="Fundamental Theorem of Algebra" target="_parent">
<path fill="#273434" stroke="#b75867" d="M421,-961C421,-961 260,-961 260,-961 254,-961 248,-955 248,-949 248,-949 248,-937 248,-937 248,-931 254,-925 260,-925 260,-925 421,-925 421,-925 427,-925 433,-931 433,-937 433,-937 433,-949 433,-949 433,-955 427,-961 421,-961"/>
<text text-anchor="middle" x="340.5" y="-939.9" font-family="sans" font-size="12.00" fill="#c4c7c7">Fundamental Theorem of Algebra</text>
</a>
</g>
</g>
<!-- Recurrent Equations&#45;&gt;Fundamental Theorem of Algebra -->
<g id="edge10" class="edge">
<title>Recurrent Equations&#45;&gt;Fundamental Theorem of Algebra</title>
<path fill="none" stroke="#b75867" d="M239.25,-919.67C243.43,-920.64 247.7,-921.64 251.99,-922.64"/>
<polygon fill="#b75867" stroke="#b75867" points="251.51,-926.12 262.04,-924.98 253.09,-919.3 251.51,-926.12"/>
</g>
<!-- Divided Differences -->
<g id="node12" class="node">
<title>Divided Differences</title>
<g id="a_node12"><a xlink:href="/Knowledge/divided_differences.html" xlink:title="Divided Differences" target="_parent">
<path fill="none" stroke="#b75867" d="M385,-924C385,-924 296,-924 296,-924 290,-924 284,-918 284,-912 284,-912 284,-900 284,-900 284,-894 290,-888 296,-888 296,-888 385,-888 385,-888 391,-888 397,-894 397,-900 397,-900 397,-912 397,-912 397,-918 391,-924 385,-924"/>
<text text-anchor="middle" x="340.5" y="-902.9" font-family="sans" font-size="12.00" fill="#c4c7c7">Divided Differences</text>
</a>
</g>
</g>
<!-- Recurrent Equations&#45;&gt;Divided Differences -->
<g id="edge12" class="edge">
<title>Recurrent Equations&#45;&gt;Divided Differences</title>
<path fill="none" stroke="#ffffff" d="M249.3,-906C260.86,-906 272.72,-906 283.89,-906"/>
<polygon fill="#ffffff" stroke="#ffffff" points="249.25,-902.5 239.25,-906 249.25,-909.5 249.25,-902.5"/>
</g>
<!-- Chebyshev Polynomial -->
<g id="node13" class="node">
<title>Chebyshev Polynomial</title>
<g id="a_node13"><a xlink:href="/Knowledge/chebyshev_polynomial.html" xlink:title="Chebyshev Polynomial" target="_parent">
<path fill="none" stroke="#b75867" d="M394,-887C394,-887 287,-887 287,-887 281,-887 275,-881 275,-875 275,-875 275,-863 275,-863 275,-857 281,-851 287,-851 287,-851 394,-851 394,-851 400,-851 406,-857 406,-863 406,-863 406,-875 406,-875 406,-881 400,-887 394,-887"/>
<text text-anchor="middle" x="340.5" y="-865.9" font-family="sans" font-size="12.00" fill="#c4c7c7">Chebyshev Polynomial</text>
</a>
</g>
</g>
<!-- Recurrent Equations&#45;&gt;Chebyshev Polynomial -->
<g id="edge13" class="edge">
<title>Recurrent Equations&#45;&gt;Chebyshev Polynomial</title>
<path fill="none" stroke="#ffffff" d="M249.16,-890.02C257.68,-888.04 266.37,-886.02 274.83,-884.05"/>
<polygon fill="#ffffff" stroke="#ffffff" points="248.2,-886.65 239.25,-892.33 249.79,-893.47 248.2,-886.65"/>
</g>
<!-- Combinatorics&#45;&gt;Discrete Structures -->
<g id="edge15" class="edge">
<title>Combinatorics&#45;&gt;Discrete Structures</title>
<path fill="none" stroke="#ffffff" d="M124.4,-535.94C122.56,-534.99 120.75,-534.01 119,-533 102.38,-523.39 85.78,-509.32 73.87,-498.08"/>
<polygon fill="#ffffff" stroke="#ffffff" points="123.33,-539.3 133.87,-540.4 126.31,-532.97 123.33,-539.3"/>
</g>
<!-- Combinatoric principles -->
<g id="node14" class="node">
<title>Combinatoric principles</title>
<g id="a_node14"><a xlink:href="/Knowledge/combinatoric_principles.html" xlink:title="Combinatoric principles" target="_parent">
<path fill="#273434" stroke="#b75867" d="M397.5,-850C397.5,-850 283.5,-850 283.5,-850 277.5,-850 271.5,-844 271.5,-838 271.5,-838 271.5,-826 271.5,-826 271.5,-820 277.5,-814 283.5,-814 283.5,-814 397.5,-814 397.5,-814 403.5,-814 409.5,-820 409.5,-826 409.5,-826 409.5,-838 409.5,-838 409.5,-844 403.5,-850 397.5,-850"/>
<text text-anchor="middle" x="340.5" y="-828.9" font-family="sans" font-size="12.00" fill="#c4c7c7">Combinatoric principles</text>
</a>
</g>
</g>
<!-- Combinatorics&#45;&gt;Combinatoric principles -->
<g id="edge14" class="edge">
<title>Combinatorics&#45;&gt;Combinatoric principles</title>
<path fill="none" stroke="#b75867" d="M182.86,-572.18C190.07,-624.89 213.42,-776.17 248,-810 252.09,-814 256.77,-817.32 261.8,-820.06"/>
<polygon fill="#b75867" stroke="#b75867" points="260.65,-823.39 271.19,-824.41 263.59,-817.03 260.65,-823.39"/>
</g>
<!-- Functions&#45;&gt;Discrete Structures -->
<g id="edge18" class="edge">
<title>Functions&#45;&gt;Discrete Structures</title>
<path fill="none" stroke="#ffffff" d="M135.83,-504.78C127.83,-502.38 119.37,-499.82 111.08,-497.3"/>
<polygon fill="#ffffff" stroke="#ffffff" points="135.07,-508.21 145.66,-507.71 137.08,-501.5 135.07,-508.21"/>
</g>
<!-- Total function -->
<g id="node15" class="node">
<title>Total function</title>
<g id="a_node15"><a xlink:href="/Knowledge/total_function.html" xlink:title="Total function" target="_parent">
<path fill="#273434" stroke="#b75867" d="M371.5,-813C371.5,-813 309.5,-813 309.5,-813 303.5,-813 297.5,-807 297.5,-801 297.5,-801 297.5,-789 297.5,-789 297.5,-783 303.5,-777 309.5,-777 309.5,-777 371.5,-777 371.5,-777 377.5,-777 383.5,-783 383.5,-789 383.5,-789 383.5,-801 383.5,-801 383.5,-807 377.5,-813 371.5,-813"/>
<text text-anchor="middle" x="340.5" y="-791.9" font-family="sans" font-size="12.00" fill="#c4c7c7">Total function</text>
</a>
</g>
</g>
<!-- Functions&#45;&gt;Total function -->
<g id="edge16" class="edge">
<title>Functions&#45;&gt;Total function</title>
<path fill="none" stroke="#b75867" d="M213.3,-521.8C223.48,-524.97 233.68,-530.25 240,-539 255.23,-560.09 231.55,-752.85 248,-773 257.57,-784.72 272.19,-790.84 286.96,-793.88"/>
<polygon fill="#b75867" stroke="#b75867" points="286.72,-797.39 297.14,-795.52 287.83,-790.48 286.72,-797.39"/>
</g>
<!-- Partial function -->
<g id="node16" class="node">
<title>Partial function</title>
<g id="a_node16"><a xlink:href="/Knowledge/partial_function.html" xlink:title="Partial function" target="_parent">
<path fill="#273434" stroke="#b75867" d="M375.5,-776C375.5,-776 305.5,-776 305.5,-776 299.5,-776 293.5,-770 293.5,-764 293.5,-764 293.5,-752 293.5,-752 293.5,-746 299.5,-740 305.5,-740 305.5,-740 375.5,-740 375.5,-740 381.5,-740 387.5,-746 387.5,-752 387.5,-752 387.5,-764 387.5,-764 387.5,-770 381.5,-776 375.5,-776"/>
<text text-anchor="middle" x="340.5" y="-754.9" font-family="sans" font-size="12.00" fill="#c4c7c7">Partial function</text>
</a>
</g>
</g>
<!-- Functions&#45;&gt;Partial function -->
<g id="edge17" class="edge">
<title>Functions&#45;&gt;Partial function</title>
<path fill="none" stroke="#b75867" d="M213.26,-521.82C223.45,-525 233.65,-530.27 240,-539 252.88,-556.72 234.09,-719.07 248,-736 256.85,-746.77 269.96,-752.8 283.5,-756.06"/>
<polygon fill="#b75867" stroke="#b75867" points="282.91,-759.51 293.39,-757.97 284.24,-752.64 282.91,-759.51"/>
</g>
<!-- Relations&#45;&gt;Discrete Structures -->
<g id="edge38" class="edge">
<title>Relations&#45;&gt;Discrete Structures</title>
<path fill="none" stroke="#ffffff" d="M137.11,-480.71C128.74,-480.75 119.82,-480.76 111.08,-480.75"/>
<polygon fill="#ffffff" stroke="#ffffff" points="137.38,-484.21 147.36,-480.66 137.35,-477.21 137.38,-484.21"/>
</g>
<!-- Chain -->
<g id="node17" class="node">
<title>Chain</title>
<g id="a_node17"><a xlink:href="/Knowledge/chain.html" xlink:title="Chain" target="_parent">
<path fill="#273434" stroke="#b75867" d="M355.5,-739C355.5,-739 325.5,-739 325.5,-739 319.5,-739 313.5,-733 313.5,-727 313.5,-727 313.5,-715 313.5,-715 313.5,-709 319.5,-703 325.5,-703 325.5,-703 355.5,-703 355.5,-703 361.5,-703 367.5,-709 367.5,-715 367.5,-715 367.5,-727 367.5,-727 367.5,-733 361.5,-739 355.5,-739"/>
<text text-anchor="middle" x="340.5" y="-717.9" font-family="sans" font-size="12.00" fill="#c4c7c7">Chain</text>
</a>
</g>
</g>
<!-- Relations&#45;&gt;Chain -->
<g id="edge19" class="edge">
<title>Relations&#45;&gt;Chain</title>
<path fill="none" stroke="#b75867" d="M211.71,-484.35C222.39,-487.47 233.33,-492.82 240,-502 252.88,-519.72 234.09,-682.07 248,-699 261.19,-715.05 283.85,-720.59 303.32,-722.09"/>
<polygon fill="#b75867" stroke="#b75867" points="303.28,-725.59 313.43,-722.55 303.6,-718.6 303.28,-725.59"/>
</g>
<!-- Linear extension -->
<g id="node18" class="node">
<title>Linear extension</title>
<g id="a_node18"><a xlink:href="/Knowledge/linear_extension.html" xlink:title="Linear extension" target="_parent">
<path fill="#273434" stroke="#b75867" d="M379,-702C379,-702 302,-702 302,-702 296,-702 290,-696 290,-690 290,-690 290,-678 290,-678 290,-672 296,-666 302,-666 302,-666 379,-666 379,-666 385,-666 391,-672 391,-678 391,-678 391,-690 391,-690 391,-696 385,-702 379,-702"/>
<text text-anchor="middle" x="340.5" y="-680.9" font-family="sans" font-size="12.00" fill="#c4c7c7">Linear extension</text>
</a>
</g>
</g>
<!-- Relations&#45;&gt;Linear extension -->
<g id="edge20" class="edge">
<title>Relations&#45;&gt;Linear extension</title>
<path fill="none" stroke="#b75867" d="M211.66,-484.38C222.34,-487.51 233.29,-492.86 240,-502 261.07,-530.7 225.27,-634.6 248,-662 256.07,-671.72 267.61,-677.58 279.79,-681.02"/>
<polygon fill="#b75867" stroke="#b75867" points="279.11,-684.46 289.64,-683.29 280.68,-677.63 279.11,-684.46"/>
</g>
<!-- Linear order -->
<g id="node19" class="node">
<title>Linear order</title>
<g id="a_node19"><a xlink:href="/Knowledge/linear_order.html" xlink:title="Linear order" target="_parent">
<path fill="#273434" stroke="#b75867" d="M368,-665C368,-665 313,-665 313,-665 307,-665 301,-659 301,-653 301,-653 301,-641 301,-641 301,-635 307,-629 313,-629 313,-629 368,-629 368,-629 374,-629 380,-635 380,-641 380,-641 380,-653 380,-653 380,-659 374,-665 368,-665"/>
<text text-anchor="middle" x="340.5" y="-643.9" font-family="sans" font-size="12.00" fill="#c4c7c7">Linear order</text>
</a>
</g>
</g>
<!-- Relations&#45;&gt;Linear order -->
<g id="edge21" class="edge">
<title>Relations&#45;&gt;Linear order</title>
<path fill="none" stroke="#b75867" d="M211.59,-484.44C222.26,-487.57 233.22,-492.91 240,-502 256.38,-523.96 230.36,-604.05 248,-625 258.45,-637.4 274.55,-643.5 290.35,-646.31"/>
<polygon fill="#b75867" stroke="#b75867" points="290.24,-649.83 300.62,-647.71 291.19,-642.89 290.24,-649.83"/>
</g>
<!-- Partial order -->
<g id="node20" class="node">
<title>Partial order</title>
<g id="a_node20"><a xlink:href="/Knowledge/partial_order.html" xlink:title="Partial order" target="_parent">
<path fill="#273434" stroke="#b75867" d="M368,-628C368,-628 313,-628 313,-628 307,-628 301,-622 301,-616 301,-616 301,-604 301,-604 301,-598 307,-592 313,-592 313,-592 368,-592 368,-592 374,-592 380,-598 380,-604 380,-604 380,-616 380,-616 380,-622 374,-628 368,-628"/>
<text text-anchor="middle" x="340.5" y="-606.9" font-family="sans" font-size="12.00" fill="#c4c7c7">Partial order</text>
</a>
</g>
</g>
<!-- Relations&#45;&gt;Partial order -->
<g id="edge22" class="edge">
<title>Relations&#45;&gt;Partial order</title>
<path fill="none" stroke="#b75867" d="M211.76,-484.63C222.32,-487.79 233.16,-493.09 240,-502 251.69,-517.22 235.43,-573.49 248,-588 258.62,-600.26 274.76,-606.32 290.54,-609.14"/>
<polygon fill="#b75867" stroke="#b75867" points="290.41,-612.66 300.8,-610.57 291.37,-605.73 290.41,-612.66"/>
</g>
<!-- Class of equivalence -->
<g id="node21" class="node">
<title>Class of equivalence</title>
<g id="a_node21"><a xlink:href="/Knowledge/class_of_equivalence.html" xlink:title="Class of equivalence" target="_parent">
<path fill="#273434" stroke="#b75867" d="M388,-591C388,-591 293,-591 293,-591 287,-591 281,-585 281,-579 281,-579 281,-567 281,-567 281,-561 287,-555 293,-555 293,-555 388,-555 388,-555 394,-555 400,-561 400,-567 400,-567 400,-579 400,-579 400,-585 394,-591 388,-591"/>
<text text-anchor="middle" x="340.5" y="-569.9" font-family="sans" font-size="12.00" fill="#c4c7c7">Class of equivalence</text>
</a>
</g>
</g>
<!-- Relations&#45;&gt;Class of equivalence -->
<g id="edge23" class="edge">
<title>Relations&#45;&gt;Class of equivalence</title>
<path fill="none" stroke="#b75867" d="M211.74,-484.99C222.17,-488.18 232.93,-493.42 240,-502 254.03,-519.03 232.99,-534.83 248,-551 254.37,-557.86 262.47,-562.75 271.2,-566.21"/>
<polygon fill="#b75867" stroke="#b75867" points="270.29,-569.59 280.88,-569.43 272.5,-562.95 270.29,-569.59"/>
</g>
<!-- Relation of Equivalence -->
<g id="node22" class="node">
<title>Relation of Equivalence</title>
<g id="a_node22"><a xlink:href="/Knowledge/relation_of_equivalence.html" xlink:title="Relation of Equivalence" target="_parent">
<path fill="#273434" stroke="#b75867" d="M395.5,-554C395.5,-554 285.5,-554 285.5,-554 279.5,-554 273.5,-548 273.5,-542 273.5,-542 273.5,-530 273.5,-530 273.5,-524 279.5,-518 285.5,-518 285.5,-518 395.5,-518 395.5,-518 401.5,-518 407.5,-524 407.5,-530 407.5,-530 407.5,-542 407.5,-542 407.5,-548 401.5,-554 395.5,-554"/>
<text text-anchor="middle" x="340.5" y="-532.9" font-family="sans" font-size="12.00" fill="#c4c7c7">Relation of Equivalence</text>
</a>
</g>
</g>
<!-- Relations&#45;&gt;Relation of Equivalence -->
<g id="edge24" class="edge">
<title>Relations&#45;&gt;Relation of Equivalence</title>
<path fill="none" stroke="#b75867" d="M211.76,-487.47C221.48,-490.81 231.79,-495.52 240,-502 245.03,-505.97 242.74,-510.33 248,-514 252.89,-517.41 258.25,-520.3 263.84,-522.75"/>
<polygon fill="#b75867" stroke="#b75867" points="262.84,-526.11 273.43,-526.45 265.36,-519.58 262.84,-526.11"/>
</g>
<!-- Transitive Closure -->
<g id="node23" class="node">
<title>Transitive Closure</title>
<g id="a_node23"><a xlink:href="/Knowledge/transitive_closure.html" xlink:title="Transitive Closure" target="_parent">
<path fill="#273434" stroke="#b75867" d="M381.5,-517C381.5,-517 299.5,-517 299.5,-517 293.5,-517 287.5,-511 287.5,-505 287.5,-505 287.5,-493 287.5,-493 287.5,-487 293.5,-481 299.5,-481 299.5,-481 381.5,-481 381.5,-481 387.5,-481 393.5,-487 393.5,-493 393.5,-493 393.5,-505 393.5,-505 393.5,-511 387.5,-517 381.5,-517"/>
<text text-anchor="middle" x="340.5" y="-495.9" font-family="sans" font-size="12.00" fill="#c4c7c7">Transitive Closure</text>
</a>
</g>
</g>
<!-- Relations&#45;&gt;Transitive Closure -->
<g id="edge25" class="edge">
<title>Relations&#45;&gt;Transitive Closure</title>
<path fill="none" stroke="#b75867" d="M211.53,-483.71C230.19,-485.94 254.6,-488.85 277.09,-491.54"/>
<polygon fill="#b75867" stroke="#b75867" points="276.92,-495.05 287.26,-492.76 277.75,-488.1 276.92,-495.05"/>
</g>
<!-- Relations&#45;&gt;Transitive Closure -->
<g id="edge29" class="edge">
<title>Relations&#45;&gt;Transitive Closure</title>
<path fill="none" stroke="#b75867" d="M211.53,-484.32C230.19,-486.67 254.6,-489.63 277.09,-492.28"/>
<polygon fill="#b75867" stroke="#b75867" points="276.92,-495.78 287.26,-493.47 277.73,-488.83 276.92,-495.78"/>
</g>
<!-- Symmetric Closure -->
<g id="node24" class="node">
<title>Symmetric Closure</title>
<g id="a_node24"><a xlink:href="/Knowledge/symmetric_closure.html" xlink:title="Symmetric Closure" target="_parent">
<path fill="#273434" stroke="#b75867" d="M384,-480C384,-480 297,-480 297,-480 291,-480 285,-474 285,-468 285,-468 285,-456 285,-456 285,-450 291,-444 297,-444 297,-444 384,-444 384,-444 390,-444 396,-450 396,-456 396,-456 396,-468 396,-468 396,-474 390,-480 384,-480"/>
<text text-anchor="middle" x="340.5" y="-458.9" font-family="sans" font-size="12.00" fill="#c4c7c7">Symmetric Closure</text>
</a>
</g>
</g>
<!-- Relations&#45;&gt;Symmetric Closure -->
<g id="edge26" class="edge">
<title>Relations&#45;&gt;Symmetric Closure</title>
<path fill="none" stroke="#b75867" d="M211.53,-476.49C229.48,-474.46 252.75,-471.82 274.52,-469.36"/>
<polygon fill="#b75867" stroke="#b75867" points="275.18,-472.8 284.72,-468.2 274.39,-465.85 275.18,-472.8"/>
</g>
<!-- Relations&#45;&gt;Symmetric Closure -->
<g id="edge28" class="edge">
<title>Relations&#45;&gt;Symmetric Closure</title>
<path fill="none" stroke="#b75867" d="M211.53,-477.1C229.48,-475.18 252.75,-472.59 274.52,-470.1"/>
<polygon fill="#b75867" stroke="#b75867" points="275.19,-473.54 284.72,-468.92 274.39,-466.59 275.19,-473.54"/>
</g>
<!-- Reflexive Closure -->
<g id="node25" class="node">
<title>Reflexive Closure</title>
<g id="a_node25"><a xlink:href="/Knowledge/reflexive_closure.html" xlink:title="Reflexive Closure" target="_parent">
<path fill="#273434" stroke="#b75867" d="M379.5,-443C379.5,-443 301.5,-443 301.5,-443 295.5,-443 289.5,-437 289.5,-431 289.5,-431 289.5,-419 289.5,-419 289.5,-413 295.5,-407 301.5,-407 301.5,-407 379.5,-407 379.5,-407 385.5,-407 391.5,-413 391.5,-419 391.5,-419 391.5,-431 391.5,-431 391.5,-437 385.5,-443 379.5,-443"/>
<text text-anchor="middle" x="340.5" y="-421.9" font-family="sans" font-size="12.00" fill="#c4c7c7">Reflexive Closure</text>
</a>
</g>
</g>
<!-- Relations&#45;&gt;Reflexive Closure -->
<g id="edge27" class="edge">
<title>Relations&#45;&gt;Reflexive Closure</title>
<path fill="none" stroke="#b75867" d="M211.6,-472.33C221.31,-468.97 231.66,-464.32 240,-458 244.82,-454.35 242.97,-450.36 248,-447 257.46,-440.68 268.54,-436.17 279.66,-432.96"/>
<polygon fill="#b75867" stroke="#b75867" points="280.59,-436.33 289.4,-430.45 278.84,-429.55 280.59,-436.33"/>
</g>
<!-- Relations&#45;&gt;Reflexive Closure -->
<g id="edge30" class="edge">
<title>Relations&#45;&gt;Reflexive Closure</title>
<path fill="none" stroke="#b75867" d="M211.6,-473.28C221.31,-469.97 231.66,-465.32 240,-459 244.82,-455.35 242.97,-451.36 248,-448 257.46,-441.68 268.54,-437.17 279.66,-433.94"/>
<polygon fill="#b75867" stroke="#b75867" points="280.6,-437.31 289.4,-431.41 278.84,-430.53 280.6,-437.31"/>
</g>
<!-- Transitive Relation -->
<g id="node26" class="node">
<title>Transitive Relation</title>
<g id="a_node26"><a xlink:href="/Knowledge/transitive_relation.html" xlink:title="Transitive Relation" target="_parent">
<path fill="#273434" stroke="#b75867" d="M383.5,-406C383.5,-406 297.5,-406 297.5,-406 291.5,-406 285.5,-400 285.5,-394 285.5,-394 285.5,-382 285.5,-382 285.5,-376 291.5,-370 297.5,-370 297.5,-370 383.5,-370 383.5,-370 389.5,-370 395.5,-376 395.5,-382 395.5,-382 395.5,-394 395.5,-394 395.5,-400 389.5,-406 383.5,-406"/>
<text text-anchor="middle" x="340.5" y="-384.9" font-family="sans" font-size="12.00" fill="#c4c7c7">Transitive Relation</text>
</a>
</g>
</g>
<!-- Relations&#45;&gt;Transitive Relation -->
<g id="edge31" class="edge">
<title>Relations&#45;&gt;Transitive Relation</title>
<path fill="none" stroke="#b75867" d="M211.73,-475C222.16,-471.81 232.91,-466.57 240,-458 253.78,-441.33 233.26,-425.82 248,-410 255.42,-402.04 265.17,-396.73 275.54,-393.23"/>
<polygon fill="#b75867" stroke="#b75867" points="276.52,-396.59 285.19,-390.51 274.61,-389.86 276.52,-396.59"/>
</g>
<!-- Strongly Anti&#45;symmetric Relation -->
<g id="node27" class="node">
<title>Strongly Anti&#45;symmetric Relation</title>
<g id="a_node27"><a xlink:href="/Knowledge/strongly_anti-symmetric_relation.html" xlink:title="Strongly Anti&#45;symmetric Relation" target="_parent">
<path fill="#273434" stroke="#b75867" d="M419,-369C419,-369 262,-369 262,-369 256,-369 250,-363 250,-357 250,-357 250,-345 250,-345 250,-339 256,-333 262,-333 262,-333 419,-333 419,-333 425,-333 431,-339 431,-345 431,-345 431,-357 431,-357 431,-363 425,-369 419,-369"/>
<text text-anchor="middle" x="340.5" y="-347.9" font-family="sans" font-size="12.00" fill="#c4c7c7">Strongly Anti&#45;symmetric Relation</text>
</a>
</g>
</g>
<!-- Relations&#45;&gt;Strongly Anti&#45;symmetric Relation -->
<g id="edge32" class="edge">
<title>Relations&#45;&gt;Strongly Anti&#45;symmetric Relation</title>
<path fill="none" stroke="#b75867" d="M211.76,-475.36C222.32,-472.21 233.15,-466.91 240,-458 250.03,-444.95 239.33,-401.39 246.85,-378.19"/>
<polygon fill="#b75867" stroke="#b75867" points="250.06,-379.61 251.73,-369.15 243.9,-376.29 250.06,-379.61"/>
</g>
<!-- Anti&#45;symmetric Relation -->
<g id="node28" class="node">
<title>Anti&#45;symmetric Relation</title>
<g id="a_node28"><a xlink:href="/Knowledge/anti-symmetric_relation.html" xlink:title="Anti&#45;symmetric Relation" target="_parent">
<path fill="#273434" stroke="#b75867" d="M397,-332C397,-332 284,-332 284,-332 278,-332 272,-326 272,-320 272,-320 272,-308 272,-308 272,-302 278,-296 284,-296 284,-296 397,-296 397,-296 403,-296 409,-302 409,-308 409,-308 409,-320 409,-320 409,-326 403,-332 397,-332"/>
<text text-anchor="middle" x="340.5" y="-310.9" font-family="sans" font-size="12.00" fill="#c4c7c7">Anti&#45;symmetric Relation</text>
</a>
</g>
</g>
<!-- Relations&#45;&gt;Anti&#45;symmetric Relation -->
<g id="edge33" class="edge">
<title>Relations&#45;&gt;Anti&#45;symmetric Relation</title>
<path fill="none" stroke="#b75867" d="M211.59,-475.56C222.26,-472.43 233.22,-467.09 240,-458 256.25,-436.22 230.49,-356.78 248,-336 252.15,-331.08 257.18,-327.15 262.73,-324.03"/>
<polygon fill="#b75867" stroke="#b75867" points="264.27,-327.18 271.83,-319.76 261.29,-320.84 264.27,-327.18"/>
</g>
<!-- Symmetric Relation -->
<g id="node29" class="node">
<title>Symmetric Relation</title>
<g id="a_node29"><a xlink:href="/Knowledge/symmetric_relation.html" xlink:title="Symmetric Relation" target="_parent">
<path fill="#273434" stroke="#b75867" d="M386,-295C386,-295 295,-295 295,-295 289,-295 283,-289 283,-283 283,-283 283,-271 283,-271 283,-265 289,-259 295,-259 295,-259 386,-259 386,-259 392,-259 398,-265 398,-271 398,-271 398,-283 398,-283 398,-289 392,-295 386,-295"/>
<text text-anchor="middle" x="340.5" y="-273.9" font-family="sans" font-size="12.00" fill="#c4c7c7">Symmetric Relation</text>
</a>
</g>
</g>
<!-- Relations&#45;&gt;Symmetric Relation -->
<g id="edge34" class="edge">
<title>Relations&#45;&gt;Symmetric Relation</title>
<path fill="none" stroke="#b75867" d="M211.66,-475.62C222.34,-472.49 233.29,-467.14 240,-458 260.94,-429.49 225.41,-326.23 248,-299 254.57,-291.08 263.45,-285.72 273.1,-282.15"/>
<polygon fill="#b75867" stroke="#b75867" points="274.41,-285.41 282.96,-279.14 272.37,-278.72 274.41,-285.41"/>
</g>
<!-- Anti&#45;reflexive relation -->
<g id="node30" class="node">
<title>Anti&#45;reflexive relation</title>
<g id="a_node30"><a xlink:href="/Knowledge/anti-reflexive_relation.html" xlink:title="Anti&#45;reflexive relation" target="_parent">
<path fill="#273434" stroke="#b75867" d="M390.5,-258C390.5,-258 290.5,-258 290.5,-258 284.5,-258 278.5,-252 278.5,-246 278.5,-246 278.5,-234 278.5,-234 278.5,-228 284.5,-222 290.5,-222 290.5,-222 390.5,-222 390.5,-222 396.5,-222 402.5,-228 402.5,-234 402.5,-234 402.5,-246 402.5,-246 402.5,-252 396.5,-258 390.5,-258"/>
<text text-anchor="middle" x="340.5" y="-236.9" font-family="sans" font-size="12.00" fill="#c4c7c7">Anti&#45;reflexive relation</text>
</a>
</g>
</g>
<!-- Relations&#45;&gt;Anti&#45;reflexive relation -->
<g id="edge35" class="edge">
<title>Relations&#45;&gt;Anti&#45;reflexive relation</title>
<path fill="none" stroke="#b75867" d="M211.71,-475.65C222.39,-472.53 233.33,-467.17 240,-458 252.82,-440.37 234.16,-278.84 248,-262 253.52,-255.29 260.69,-250.41 268.6,-246.9"/>
<polygon fill="#b75867" stroke="#b75867" points="269.98,-250.12 278.15,-243.38 267.56,-243.55 269.98,-250.12"/>
</g>
<!-- Reflexive Relation -->
<g id="node31" class="node">
<title>Reflexive Relation</title>
<g id="a_node31"><a xlink:href="/Knowledge/reflexive_relation.html" xlink:title="Reflexive Relation" target="_parent">
<path fill="#273434" stroke="#b75867" d="M381.5,-221C381.5,-221 299.5,-221 299.5,-221 293.5,-221 287.5,-215 287.5,-209 287.5,-209 287.5,-197 287.5,-197 287.5,-191 293.5,-185 299.5,-185 299.5,-185 381.5,-185 381.5,-185 387.5,-185 393.5,-191 393.5,-197 393.5,-197 393.5,-209 393.5,-209 393.5,-215 387.5,-221 381.5,-221"/>
<text text-anchor="middle" x="340.5" y="-199.9" font-family="sans" font-size="12.00" fill="#c4c7c7">Reflexive Relation</text>
</a>
</g>
</g>
<!-- Relations&#45;&gt;Reflexive Relation -->
<g id="edge36" class="edge">
<title>Relations&#45;&gt;Reflexive Relation</title>
<path fill="none" stroke="#b75867" d="M211.74,-475.67C222.43,-472.55 233.36,-467.2 240,-458 255.17,-437 231.62,-245.07 248,-225 255.43,-215.9 265.91,-210.17 277.14,-206.65"/>
<polygon fill="#b75867" stroke="#b75867" points="278.32,-209.96 287.14,-204.08 276.58,-203.17 278.32,-209.96"/>
</g>
<!-- Relation -->
<g id="node32" class="node">
<title>Relation</title>
<g id="a_node32"><a xlink:href="/Knowledge/relation.html" xlink:title="Relation" target="_parent">
<path fill="#273434" stroke="#b75867" d="M358,-184C358,-184 323,-184 323,-184 317,-184 311,-178 311,-172 311,-172 311,-160 311,-160 311,-154 317,-148 323,-148 323,-148 358,-148 358,-148 364,-148 370,-154 370,-160 370,-160 370,-172 370,-172 370,-178 364,-184 358,-184"/>
<text text-anchor="middle" x="340.5" y="-162.9" font-family="sans" font-size="12.00" fill="#c4c7c7">Relation</text>
</a>
</g>
</g>
<!-- Relations&#45;&gt;Relation -->
<g id="edge37" class="edge">
<title>Relations&#45;&gt;Relation</title>
<path fill="none" stroke="#b75867" d="M211.76,-475.69C222.46,-472.57 233.38,-467.21 240,-458 257.52,-433.63 229.08,-211.3 248,-188 260.52,-172.59 281.76,-166.85 300.63,-165.08"/>
<polygon fill="#b75867" stroke="#b75867" points="301.03,-168.56 310.8,-164.46 300.61,-161.57 301.03,-168.56"/>
</g>
<!-- Logical Equivalences&#45;&gt;Discrete Structures -->
<g id="edge39" class="edge">
<title>Logical Equivalences&#45;&gt;Discrete Structures</title>
<path fill="none" stroke="#ffffff" d="M111.72,-464C111.51,-464.06 111.29,-464.13 111.08,-464.19"/>
<polygon fill="#ffffff" stroke="#ffffff" points="112.84,-467.32 121.39,-461.07 110.81,-460.62 112.84,-467.32"/>
</g>
<!-- Logical Operators&#45;&gt;Discrete Structures -->
<g id="edge40" class="edge">
<title>Logical Operators&#45;&gt;Discrete Structures</title>
<path fill="none" stroke="#ffffff" d="M119.57,-428.67C119.38,-428.78 119.19,-428.89 119,-429 103.24,-438.11 87.49,-451.24 75.74,-461.9"/>
<polygon fill="#ffffff" stroke="#ffffff" points="121.3,-431.72 128.57,-424 118.08,-425.5 121.3,-431.72"/>
</g>
<!-- Subjects&#45;&gt;Discrete Structures -->
<g id="edge42" class="edge">
<title>Subjects&#45;&gt;Discrete Structures</title>
<path fill="none" stroke="#b75867" d="M172.57,-129.28C152.93,-189.21 89.86,-379.97 65.88,-452.06"/>
<polygon fill="#b75867" stroke="#b75867" points="62.47,-451.21 62.63,-461.8 69.11,-453.42 62.47,-451.21"/>
</g>
<!-- Numeric Methods -->
<g id="node33" class="node">
<title>Numeric Methods</title>
<g id="a_node33"><a xlink:href="/Knowledge/numeric_methods.html" xlink:title="Numeric Methods" target="_parent">
<path fill="#273434" stroke="#b75867" d="M381.5,-147C381.5,-147 299.5,-147 299.5,-147 293.5,-147 287.5,-141 287.5,-135 287.5,-135 287.5,-123 287.5,-123 287.5,-117 293.5,-111 299.5,-111 299.5,-111 381.5,-111 381.5,-111 387.5,-111 393.5,-117 393.5,-123 393.5,-123 393.5,-135 393.5,-135 393.5,-141 387.5,-147 381.5,-147"/>
<text text-anchor="middle" x="340.5" y="-125.9" font-family="sans" font-size="12.00" fill="#c4c7c7">Numeric Methods</text>
</a>
</g>
</g>
<!-- Subjects&#45;&gt;Numeric Methods -->
<g id="edge41" class="edge">
<title>Subjects&#45;&gt;Numeric Methods</title>
<path fill="none" stroke="#b75867" d="M209.66,-114.3C228.56,-116.44 253.91,-119.31 277.19,-121.95"/>
<polygon fill="#b75867" stroke="#b75867" points="277.03,-125.45 287.36,-123.1 277.82,-118.49 277.03,-125.45"/>
</g>
<!-- Differential Analysis -->
<g id="node34" class="node">
<title>Differential Analysis</title>
<g id="a_node34"><a xlink:href="/Knowledge/differential_analysis.html" xlink:title="Differential Analysis" target="_parent">
<path fill="#273434" stroke="#b75867" d="M386.5,-110C386.5,-110 294.5,-110 294.5,-110 288.5,-110 282.5,-104 282.5,-98 282.5,-98 282.5,-86 282.5,-86 282.5,-80 288.5,-74 294.5,-74 294.5,-74 386.5,-74 386.5,-74 392.5,-74 398.5,-80 398.5,-86 398.5,-86 398.5,-98 398.5,-98 398.5,-104 392.5,-110 386.5,-110"/>
<text text-anchor="middle" x="340.5" y="-88.9" font-family="sans" font-size="12.00" fill="#c4c7c7">Differential Analysis</text>
</a>
</g>
</g>
<!-- Subjects&#45;&gt;Differential Analysis -->
<g id="edge43" class="edge">
<title>Subjects&#45;&gt;Differential Analysis</title>
<path fill="none" stroke="#b75867" d="M209.66,-107.52C227.23,-105.42 250.38,-102.65 272.25,-100.04"/>
<polygon fill="#b75867" stroke="#b75867" points="272.67,-103.51 282.19,-98.85 271.84,-96.56 272.67,-103.51"/>
</g>
<!-- Linear Algebra -->
<g id="node35" class="node">
<title>Linear Algebra</title>
<g id="a_node35"><a xlink:href="/Knowledge/linear_algebra.html" xlink:title="Linear Algebra" target="_parent">
<path fill="#273434" stroke="#b75867" d="M373,-73C373,-73 308,-73 308,-73 302,-73 296,-67 296,-61 296,-61 296,-49 296,-49 296,-43 302,-37 308,-37 308,-37 373,-37 373,-37 379,-37 385,-43 385,-49 385,-49 385,-61 385,-61 385,-67 379,-73 373,-73"/>
<text text-anchor="middle" x="340.5" y="-51.9" font-family="sans" font-size="12.00" fill="#c4c7c7">Linear Algebra</text>
</a>
</g>
</g>
<!-- Subjects&#45;&gt;Linear Algebra -->
<g id="edge44" class="edge">
<title>Subjects&#45;&gt;Linear Algebra</title>
<path fill="none" stroke="#b75867" d="M209.75,-94.42C221.38,-88.31 235.06,-81.74 248,-77 259.98,-72.61 273.17,-68.85 285.72,-65.74"/>
<polygon fill="#b75867" stroke="#b75867" points="286.68,-69.11 295.6,-63.39 285.07,-62.3 286.68,-69.11"/>
</g>
<!-- index -->
<g id="node36" class="node">
<title>index</title>
<g id="a_node36"><a xlink:href="/Knowledge/index.html" xlink:title="index" target="_parent">
<path fill="none" stroke="#b75867" d="M355.5,-36C355.5,-36 325.5,-36 325.5,-36 319.5,-36 313.5,-30 313.5,-24 313.5,-24 313.5,-12 313.5,-12 313.5,-6 319.5,0 325.5,0 325.5,0 355.5,0 355.5,0 361.5,0 367.5,-6 367.5,-12 367.5,-12 367.5,-24 367.5,-24 367.5,-30 361.5,-36 355.5,-36"/>
<text text-anchor="middle" x="340.5" y="-14.9" font-family="sans" font-size="12.00" fill="#c4c7c7">index</text>
</a>
</g>
</g>
<!-- Subjects&#45;&gt;index -->
<g id="edge45" class="edge">
<title>Subjects&#45;&gt;index</title>
<path fill="none" stroke="#ffffff" d="M199.32,-84.64C211.54,-69.4 228.73,-51.12 248,-40 268.1,-28.41 294.05,-22.9 313.18,-20.3"/>
<polygon fill="#ffffff" stroke="#ffffff" points="196.42,-82.67 193.07,-92.72 201.96,-86.95 196.42,-82.67"/>
</g>
</g>
</svg>
