<?xml version="1.0" encoding="UTF-8" standalone="no"?>
<!DOCTYPE svg PUBLIC "-//W3C//DTD SVG 1.1//EN"
 "http://www.w3.org/Graphics/SVG/1.1/DTD/svg11.dtd">
<!-- Generated by graphviz version 2.44.0 (0)
 -->
<!-- Title: Discrete Structures Pages: 1 -->
<svg width="521pt" height="1524pt"
 viewBox="0.00 0.00 521.00 1524.00" xmlns="http://www.w3.org/2000/svg" xmlns:xlink="http://www.w3.org/1999/xlink">
<g id="graph0" class="graph" transform="scale(1 1) rotate(0) translate(4 1520)">
<title>Discrete Structures</title>
<polygon fill="#132020" stroke="transparent" points="-4,4 -4,-1520 517,-1520 517,4 -4,4"/>
<!-- Discrete Structures -->
<g id="node1" class="node">
<title>Discrete Structures</title>
<g id="a_node1"><a xlink:href="../Discrete Structures.html" xlink:title="Discrete Structures" target="_parent">
<path fill="#273434" stroke="#b75867" d="M110,-1035C110,-1035 12,-1035 12,-1035 6,-1035 0,-1029 0,-1023 0,-1023 0,-1011 0,-1011 0,-1005 6,-999 12,-999 12,-999 110,-999 110,-999 116,-999 122,-1005 122,-1011 122,-1011 122,-1023 122,-1023 122,-1029 116,-1035 110,-1035"/>
<text text-anchor="middle" x="61" y="-1013.9" font-family="sans" font-size="12.00" fill="#c4c7c7">Discrete Structures</text>
</a>
</g>
</g>
<!-- Recurrent Equations -->
<g id="node2" class="node">
<title>Recurrent Equations</title>
<g id="a_node2"><a xlink:href="../Recurrent Equations.html" xlink:title="Recurrent Equations" target="_parent">
<path fill="#273434" stroke="#b75867" d="M250,-1423C250,-1423 143,-1423 143,-1423 137,-1423 131,-1417 131,-1411 131,-1411 131,-1399 131,-1399 131,-1393 137,-1387 143,-1387 143,-1387 250,-1387 250,-1387 256,-1387 262,-1393 262,-1399 262,-1399 262,-1411 262,-1411 262,-1417 256,-1423 250,-1423"/>
<text text-anchor="middle" x="196.5" y="-1401.9" font-family="sans" font-size="12.00" fill="#c4c7c7">Recurrent Equations</text>
</a>
</g>
</g>
<!-- Discrete Structures&#45;&gt;Recurrent Equations -->
<g id="edge1" class="edge">
<title>Discrete Structures&#45;&gt;Recurrent Equations</title>
<path fill="none" stroke="#b75867" d="M68.26,-1035.19C89.68,-1097.44 160.12,-1302.16 185.92,-1377.15"/>
<polygon fill="#b75867" stroke="#b75867" points="182.69,-1378.53 189.25,-1386.85 189.31,-1376.25 182.69,-1378.53"/>
</g>
<!-- Combinatorics -->
<g id="node3" class="node">
<title>Combinatorics</title>
<g id="a_node3"><a xlink:href="../Combinatorics.html" xlink:title="Combinatorics" target="_parent">
<path fill="#273434" stroke="#b75867" d="M233.5,-1128C233.5,-1128 159.5,-1128 159.5,-1128 153.5,-1128 147.5,-1122 147.5,-1116 147.5,-1116 147.5,-1104 147.5,-1104 147.5,-1098 153.5,-1092 159.5,-1092 159.5,-1092 233.5,-1092 233.5,-1092 239.5,-1092 245.5,-1098 245.5,-1104 245.5,-1104 245.5,-1116 245.5,-1116 245.5,-1122 239.5,-1128 233.5,-1128"/>
<text text-anchor="middle" x="196.5" y="-1106.9" font-family="sans" font-size="12.00" fill="#c4c7c7">Combinatorics</text>
</a>
</g>
</g>
<!-- Discrete Structures&#45;&gt;Combinatorics -->
<g id="edge2" class="edge">
<title>Discrete Structures&#45;&gt;Combinatorics</title>
<path fill="none" stroke="#b75867" d="M75.21,-1035.12C87.71,-1051.08 107.81,-1073.92 130,-1088 132.6,-1089.65 135.34,-1091.19 138.16,-1092.63"/>
<polygon fill="#b75867" stroke="#b75867" points="136.84,-1095.87 147.39,-1096.87 139.76,-1089.51 136.84,-1095.87"/>
</g>
<!-- Functions -->
<g id="node4" class="node">
<title>Functions</title>
<g id="a_node4"><a xlink:href="../Functions.html" xlink:title="Functions" target="_parent">
<path fill="#273434" stroke="#b75867" d="M220.5,-1091C220.5,-1091 172.5,-1091 172.5,-1091 166.5,-1091 160.5,-1085 160.5,-1079 160.5,-1079 160.5,-1067 160.5,-1067 160.5,-1061 166.5,-1055 172.5,-1055 172.5,-1055 220.5,-1055 220.5,-1055 226.5,-1055 232.5,-1061 232.5,-1067 232.5,-1067 232.5,-1079 232.5,-1079 232.5,-1085 226.5,-1091 220.5,-1091"/>
<text text-anchor="middle" x="196.5" y="-1069.9" font-family="sans" font-size="12.00" fill="#c4c7c7">Functions</text>
</a>
</g>
</g>
<!-- Discrete Structures&#45;&gt;Functions -->
<g id="edge3" class="edge">
<title>Discrete Structures&#45;&gt;Functions</title>
<path fill="none" stroke="#b75867" d="M95.81,-1035.07C106.59,-1040.51 118.66,-1046.29 130,-1051 136.7,-1053.78 143.89,-1056.48 150.97,-1058.98"/>
<polygon fill="#b75867" stroke="#b75867" points="149.9,-1062.31 160.49,-1062.25 152.17,-1055.69 149.9,-1062.31"/>
</g>
<!-- Relations -->
<g id="node5" class="node">
<title>Relations</title>
<g id="a_node5"><a xlink:href="../Relations.html" xlink:title="Relations" target="_parent">
<path fill="#273434" stroke="#b75867" d="M219,-1054C219,-1054 174,-1054 174,-1054 168,-1054 162,-1048 162,-1042 162,-1042 162,-1030 162,-1030 162,-1024 168,-1018 174,-1018 174,-1018 219,-1018 219,-1018 225,-1018 231,-1024 231,-1030 231,-1030 231,-1042 231,-1042 231,-1048 225,-1054 219,-1054"/>
<text text-anchor="middle" x="196.5" y="-1032.9" font-family="sans" font-size="12.00" fill="#c4c7c7">Relations</text>
</a>
</g>
</g>
<!-- Discrete Structures&#45;&gt;Relations -->
<g id="edge4" class="edge">
<title>Discrete Structures&#45;&gt;Relations</title>
<path fill="none" stroke="#b75867" d="M122.11,-1025.56C132.07,-1026.97 142.23,-1028.42 151.69,-1029.77"/>
<polygon fill="#b75867" stroke="#b75867" points="151.25,-1033.24 161.64,-1031.18 152.24,-1026.31 151.25,-1033.24"/>
</g>
<!-- Logical Equivalences -->
<g id="node6" class="node">
<title>Logical Equivalences</title>
<g id="a_node6"><a xlink:href="../Logical Equivalences.html" xlink:title="Logical Equivalences" target="_parent">
<path fill="#273434" stroke="#b75867" d="M251,-1017C251,-1017 142,-1017 142,-1017 136,-1017 130,-1011 130,-1005 130,-1005 130,-993 130,-993 130,-987 136,-981 142,-981 142,-981 251,-981 251,-981 257,-981 263,-987 263,-993 263,-993 263,-1005 263,-1005 263,-1011 257,-1017 251,-1017"/>
<text text-anchor="middle" x="196.5" y="-995.9" font-family="sans" font-size="12.00" fill="#c4c7c7">Logical Equivalences</text>
</a>
</g>
</g>
<!-- Discrete Structures&#45;&gt;Logical Equivalences -->
<g id="edge5" class="edge">
<title>Discrete Structures&#45;&gt;Logical Equivalences</title>
<path fill="none" stroke="#b75867" d="M122.11,-1008.9C122.27,-1008.87 122.42,-1008.85 122.58,-1008.83"/>
<polygon fill="#b75867" stroke="#b75867" points="120.17,-1012.69 129.61,-1007.88 119.23,-1005.75 120.17,-1012.69"/>
</g>
<!-- Logical Operators -->
<g id="node7" class="node">
<title>Logical Operators</title>
<g id="a_node7"><a xlink:href="../Logical Operators.html" xlink:title="Logical Operators" target="_parent">
<path fill="#273434" stroke="#b75867" d="M242.5,-980C242.5,-980 150.5,-980 150.5,-980 144.5,-980 138.5,-974 138.5,-968 138.5,-968 138.5,-956 138.5,-956 138.5,-950 144.5,-944 150.5,-944 150.5,-944 242.5,-944 242.5,-944 248.5,-944 254.5,-950 254.5,-956 254.5,-956 254.5,-968 254.5,-968 254.5,-974 248.5,-980 242.5,-980"/>
<text text-anchor="middle" x="196.5" y="-958.9" font-family="sans" font-size="12.00" fill="#c4c7c7">Logical Operators</text>
</a>
</g>
</g>
<!-- Discrete Structures&#45;&gt;Logical Operators -->
<g id="edge6" class="edge">
<title>Discrete Structures&#45;&gt;Logical Operators</title>
<path fill="none" stroke="#b75867" d="M97.26,-998.83C107.68,-993.75 119.19,-988.42 130,-984 130.2,-983.92 130.4,-983.84 130.61,-983.75"/>
<polygon fill="#b75867" stroke="#b75867" points="131.89,-987.01 139.93,-980.11 129.34,-980.49 131.89,-987.01"/>
</g>
<!-- Subjects -->
<g id="node8" class="node">
<title>Subjects</title>
<g id="a_node8"><a xlink:href="../Subjects.html" xlink:title="Subjects" target="_parent">
<path fill="none" stroke="#b75867" d="M217,-647C217,-647 176,-647 176,-647 170,-647 164,-641 164,-635 164,-635 164,-623 164,-623 164,-617 170,-611 176,-611 176,-611 217,-611 217,-611 223,-611 229,-617 229,-623 229,-623 229,-635 229,-635 229,-641 223,-647 217,-647"/>
<text text-anchor="middle" x="196.5" y="-625.9" font-family="sans" font-size="12.00" fill="#c4c7c7">Subjects</text>
</a>
</g>
</g>
<!-- Discrete Structures&#45;&gt;Subjects -->
<g id="edge7" class="edge">
<title>Discrete Structures&#45;&gt;Subjects</title>
<path fill="none" stroke="#ffffff" d="M71.6,-989.11C97.42,-914.06 167.86,-709.34 189.25,-647.15"/>
<polygon fill="#ffffff" stroke="#ffffff" points="68.2,-988.21 68.26,-998.81 74.82,-990.49 68.2,-988.21"/>
</g>
<!-- Knowledege Base -->
<g id="node9" class="node">
<title>Knowledege Base</title>
<g id="a_node9"><a xlink:href="../Knowledege Base.html" xlink:title="Knowledege Base" target="_parent">
<path fill="none" stroke="#b75867" d="M243,-388C243,-388 150,-388 150,-388 144,-388 138,-382 138,-376 138,-376 138,-364 138,-364 138,-358 144,-352 150,-352 150,-352 243,-352 243,-352 249,-352 255,-358 255,-364 255,-364 255,-376 255,-376 255,-382 249,-388 243,-388"/>
<text text-anchor="middle" x="196.5" y="-366.9" font-family="sans" font-size="12.00" fill="#c4c7c7">Knowledege Base</text>
</a>
</g>
</g>
<!-- Discrete Structures&#45;&gt;Knowledege Base -->
<g id="edge8" class="edge">
<title>Discrete Structures&#45;&gt;Knowledege Base</title>
<path fill="none" stroke="#ffffff" d="M65.77,-988.56C74.8,-922.08 99.21,-751.53 130,-611 148.42,-526.93 177.65,-428.34 189.86,-388.29"/>
<polygon fill="#ffffff" stroke="#ffffff" points="62.28,-988.29 64.41,-998.67 69.21,-989.22 62.28,-988.29"/>
</g>
<!-- Recurrent Equations&#45;&gt;Discrete Structures -->
<g id="edge13" class="edge">
<title>Recurrent Equations&#45;&gt;Discrete Structures</title>
<path fill="none" stroke="#ffffff" d="M185.7,-1376.93C159.65,-1301.68 89.23,-1096.99 68.08,-1035.02"/>
<polygon fill="#ffffff" stroke="#ffffff" points="182.49,-1378.36 189.07,-1386.66 189.1,-1376.07 182.49,-1378.36"/>
</g>
<!-- Set -->
<g id="node10" class="node">
<title>Set</title>
<g id="a_node10"><a xlink:href="../Set.html" xlink:title="Set" target="_parent">
<path fill="#273434" stroke="#b75867" d="M407,-1405C407,-1405 377,-1405 377,-1405 371,-1405 365,-1399 365,-1393 365,-1393 365,-1381 365,-1381 365,-1375 371,-1369 377,-1369 377,-1369 407,-1369 407,-1369 413,-1369 419,-1375 419,-1381 419,-1381 419,-1393 419,-1393 419,-1399 413,-1405 407,-1405"/>
<text text-anchor="middle" x="392" y="-1383.9" font-family="sans" font-size="12.00" fill="#c4c7c7">Set</text>
</a>
</g>
</g>
<!-- Recurrent Equations&#45;&gt;Set -->
<g id="edge9" class="edge">
<title>Recurrent Equations&#45;&gt;Set</title>
<path fill="none" stroke="#b75867" d="M262.2,-1398.98C292.91,-1396.12 328.47,-1392.82 354.44,-1390.4"/>
<polygon fill="#b75867" stroke="#b75867" points="354.95,-1393.87 364.59,-1389.46 354.31,-1386.9 354.95,-1393.87"/>
</g>
<!-- Multiset -->
<g id="node11" class="node">
<title>Multiset</title>
<g id="a_node11"><a xlink:href="../Multiset.html" xlink:title="Multiset" target="_parent">
<path fill="#273434" stroke="#b75867" d="M411,-1516C411,-1516 373,-1516 373,-1516 367,-1516 361,-1510 361,-1504 361,-1504 361,-1492 361,-1492 361,-1486 367,-1480 373,-1480 373,-1480 411,-1480 411,-1480 417,-1480 423,-1486 423,-1492 423,-1492 423,-1504 423,-1504 423,-1510 417,-1516 411,-1516"/>
<text text-anchor="middle" x="392" y="-1494.9" font-family="sans" font-size="12.00" fill="#c4c7c7">Multiset</text>
</a>
</g>
</g>
<!-- Recurrent Equations&#45;&gt;Multiset -->
<g id="edge10" class="edge">
<title>Recurrent Equations&#45;&gt;Multiset</title>
<path fill="none" stroke="#b75867" d="M211.12,-1423.25C224.47,-1439.75 246.38,-1463.35 271,-1476 295.62,-1488.65 326.36,-1494.12 350.57,-1496.44"/>
<polygon fill="#b75867" stroke="#b75867" points="350.6,-1499.95 360.85,-1497.28 351.17,-1492.98 350.6,-1499.95"/>
</g>
<!-- Fundamental Theorem of Algebra -->
<g id="node12" class="node">
<title>Fundamental Theorem of Algebra</title>
<g id="a_node12"><a xlink:href="../Fundamental Theorem of Algebra.html" xlink:title="Fundamental Theorem of Algebra" target="_parent">
<path fill="#273434" stroke="#b75867" d="M484.5,-1479C484.5,-1479 299.5,-1479 299.5,-1479 293.5,-1479 287.5,-1473 287.5,-1467 287.5,-1467 287.5,-1455 287.5,-1455 287.5,-1449 293.5,-1443 299.5,-1443 299.5,-1443 484.5,-1443 484.5,-1443 490.5,-1443 496.5,-1449 496.5,-1455 496.5,-1455 496.5,-1467 496.5,-1467 496.5,-1473 490.5,-1479 484.5,-1479"/>
<text text-anchor="middle" x="392" y="-1457.9" font-family="sans" font-size="12.00" fill="#c4c7c7">Fundamental Theorem of Algebra</text>
</a>
</g>
</g>
<!-- Recurrent Equations&#45;&gt;Fundamental Theorem of Algebra -->
<g id="edge11" class="edge">
<title>Recurrent Equations&#45;&gt;Fundamental Theorem of Algebra</title>
<path fill="none" stroke="#b75867" d="M231.93,-1423.1C244.02,-1428.87 257.87,-1434.83 271,-1439 273.17,-1439.69 275.38,-1440.36 277.6,-1441.01"/>
<polygon fill="#b75867" stroke="#b75867" points="276.92,-1444.45 287.49,-1443.75 278.79,-1437.71 276.92,-1444.45"/>
</g>
<!-- Chebyshev Polynomial -->
<g id="node13" class="node">
<title>Chebyshev Polynomial</title>
<g id="a_node13"><a xlink:href="../Chebyshev Polynomial.html" xlink:title="Chebyshev Polynomial" target="_parent">
<path fill="none" stroke="#b75867" d="M452.5,-1442C452.5,-1442 331.5,-1442 331.5,-1442 325.5,-1442 319.5,-1436 319.5,-1430 319.5,-1430 319.5,-1418 319.5,-1418 319.5,-1412 325.5,-1406 331.5,-1406 331.5,-1406 452.5,-1406 452.5,-1406 458.5,-1406 464.5,-1412 464.5,-1418 464.5,-1418 464.5,-1430 464.5,-1430 464.5,-1436 458.5,-1442 452.5,-1442"/>
<text text-anchor="middle" x="392" y="-1420.9" font-family="sans" font-size="12.00" fill="#c4c7c7">Chebyshev Polynomial</text>
</a>
</g>
</g>
<!-- Recurrent Equations&#45;&gt;Chebyshev Polynomial -->
<g id="edge12" class="edge">
<title>Recurrent Equations&#45;&gt;Chebyshev Polynomial</title>
<path fill="none" stroke="#ffffff" d="M272.24,-1412.34C287.72,-1413.86 304,-1415.46 319.36,-1416.97"/>
<polygon fill="#ffffff" stroke="#ffffff" points="272.5,-1408.85 262.2,-1411.35 271.81,-1415.81 272.5,-1408.85"/>
</g>
<!-- Combinatorics&#45;&gt;Discrete Structures -->
<g id="edge15" class="edge">
<title>Combinatorics&#45;&gt;Discrete Structures</title>
<path fill="none" stroke="#ffffff" d="M138.16,-1093.63C135.34,-1092.19 132.6,-1090.65 130,-1089 107.52,-1074.73 87.19,-1051.49 74.73,-1035.28"/>
<polygon fill="#ffffff" stroke="#ffffff" points="136.84,-1096.87 147.39,-1097.86 139.75,-1090.51 136.84,-1096.87"/>
</g>
<!-- Combinatoric principles -->
<g id="node14" class="node">
<title>Combinatoric principles</title>
<g id="a_node14"><a xlink:href="../Combinatoric principles.html" xlink:title="Combinatoric principles" target="_parent">
<path fill="#273434" stroke="#b75867" d="M455.5,-1368C455.5,-1368 328.5,-1368 328.5,-1368 322.5,-1368 316.5,-1362 316.5,-1356 316.5,-1356 316.5,-1344 316.5,-1344 316.5,-1338 322.5,-1332 328.5,-1332 328.5,-1332 455.5,-1332 455.5,-1332 461.5,-1332 467.5,-1338 467.5,-1344 467.5,-1344 467.5,-1356 467.5,-1356 467.5,-1362 461.5,-1368 455.5,-1368"/>
<text text-anchor="middle" x="392" y="-1346.9" font-family="sans" font-size="12.00" fill="#c4c7c7">Combinatoric principles</text>
</a>
</g>
</g>
<!-- Combinatorics&#45;&gt;Combinatoric principles -->
<g id="edge14" class="edge">
<title>Combinatorics&#45;&gt;Combinatoric principles</title>
<path fill="none" stroke="#b75867" d="M197.8,-1128.27C199.55,-1170.51 210.15,-1275.33 271,-1328 281.08,-1336.73 293.46,-1342.49 306.4,-1346.22"/>
<polygon fill="#b75867" stroke="#b75867" points="305.83,-1349.69 316.37,-1348.7 307.51,-1342.89 305.83,-1349.69"/>
</g>
<!-- Functions&#45;&gt;Discrete Structures -->
<g id="edge18" class="edge">
<title>Functions&#45;&gt;Discrete Structures</title>
<path fill="none" stroke="#ffffff" d="M150.97,-1059.96C143.89,-1057.48 136.7,-1054.78 130,-1052 118.06,-1047.04 105.29,-1040.89 94.08,-1035.14"/>
<polygon fill="#ffffff" stroke="#ffffff" points="149.9,-1063.3 160.49,-1063.2 152.15,-1056.67 149.9,-1063.3"/>
</g>
<!-- Total function -->
<g id="node15" class="node">
<title>Total function</title>
<g id="a_node15"><a xlink:href="../Total function.html" xlink:title="Total function" target="_parent">
<path fill="#273434" stroke="#b75867" d="M427.5,-1294C427.5,-1294 356.5,-1294 356.5,-1294 350.5,-1294 344.5,-1288 344.5,-1282 344.5,-1282 344.5,-1270 344.5,-1270 344.5,-1264 350.5,-1258 356.5,-1258 356.5,-1258 427.5,-1258 427.5,-1258 433.5,-1258 439.5,-1264 439.5,-1270 439.5,-1270 439.5,-1282 439.5,-1282 439.5,-1288 433.5,-1294 427.5,-1294"/>
<text text-anchor="middle" x="392" y="-1272.9" font-family="sans" font-size="12.00" fill="#c4c7c7">Total function</text>
</a>
</g>
</g>
<!-- Functions&#45;&gt;Total function -->
<g id="edge16" class="edge">
<title>Functions&#45;&gt;Total function</title>
<path fill="none" stroke="#b75867" d="M232.75,-1076.9C244.18,-1079.99 255.75,-1085.44 263,-1095 273.68,-1109.1 259.34,-1240.7 271,-1254 286.57,-1271.76 311.34,-1278.22 334.34,-1279.86"/>
<polygon fill="#b75867" stroke="#b75867" points="334.26,-1283.36 344.41,-1280.29 334.56,-1276.36 334.26,-1283.36"/>
</g>
<!-- Partial function -->
<g id="node16" class="node">
<title>Partial function</title>
<g id="a_node16"><a xlink:href="../Partial function.html" xlink:title="Partial function" target="_parent">
<path fill="#273434" stroke="#b75867" d="M431.5,-1331C431.5,-1331 352.5,-1331 352.5,-1331 346.5,-1331 340.5,-1325 340.5,-1319 340.5,-1319 340.5,-1307 340.5,-1307 340.5,-1301 346.5,-1295 352.5,-1295 352.5,-1295 431.5,-1295 431.5,-1295 437.5,-1295 443.5,-1301 443.5,-1307 443.5,-1307 443.5,-1319 443.5,-1319 443.5,-1325 437.5,-1331 431.5,-1331"/>
<text text-anchor="middle" x="392" y="-1309.9" font-family="sans" font-size="12.00" fill="#c4c7c7">Partial function</text>
</a>
</g>
</g>
<!-- Functions&#45;&gt;Partial function -->
<g id="edge17" class="edge">
<title>Functions&#45;&gt;Partial function</title>
<path fill="none" stroke="#b75867" d="M232.8,-1076.86C244.23,-1079.95 255.8,-1085.41 263,-1095 276.08,-1112.43 256.71,-1274.54 271,-1291 285.57,-1307.77 308.34,-1314.49 330.15,-1316.59"/>
<polygon fill="#b75867" stroke="#b75867" points="330.2,-1320.1 340.41,-1317.25 330.66,-1313.11 330.2,-1320.1"/>
</g>
<!-- Relations&#45;&gt;Discrete Structures -->
<g id="edge38" class="edge">
<title>Relations&#45;&gt;Discrete Structures</title>
<path fill="none" stroke="#ffffff" d="M151.69,-1030.47C142.23,-1029.16 132.07,-1027.73 122.11,-1026.3"/>
<polygon fill="#ffffff" stroke="#ffffff" points="151.26,-1033.95 161.64,-1031.84 152.21,-1027.01 151.26,-1033.95"/>
</g>
<!-- Chain -->
<g id="node17" class="node">
<title>Chain</title>
<g id="a_node17"><a xlink:href="../Chain.html" xlink:title="Chain" target="_parent">
<path fill="#273434" stroke="#b75867" d="M407,-850C407,-850 377,-850 377,-850 371,-850 365,-844 365,-838 365,-838 365,-826 365,-826 365,-820 371,-814 377,-814 377,-814 407,-814 407,-814 413,-814 419,-820 419,-826 419,-826 419,-838 419,-838 419,-844 413,-850 407,-850"/>
<text text-anchor="middle" x="392" y="-828.9" font-family="sans" font-size="12.00" fill="#c4c7c7">Chain</text>
</a>
</g>
</g>
<!-- Relations&#45;&gt;Chain -->
<g id="edge19" class="edge">
<title>Relations&#45;&gt;Chain</title>
<path fill="none" stroke="#b75867" d="M231.04,-1032.55C243.01,-1029.54 255.39,-1024.04 263,-1014 273.75,-999.81 259.27,-867.39 271,-854 291.28,-830.87 327.16,-826.9 354.43,-827.8"/>
<polygon fill="#b75867" stroke="#b75867" points="354.59,-831.31 364.77,-828.38 354.98,-824.33 354.59,-831.31"/>
</g>
<!-- Linear extension -->
<g id="node18" class="node">
<title>Linear extension</title>
<g id="a_node18"><a xlink:href="../Linear extension.html" xlink:title="Linear extension" target="_parent">
<path fill="#273434" stroke="#b75867" d="M435,-813C435,-813 349,-813 349,-813 343,-813 337,-807 337,-801 337,-801 337,-789 337,-789 337,-783 343,-777 349,-777 349,-777 435,-777 435,-777 441,-777 447,-783 447,-789 447,-789 447,-801 447,-801 447,-807 441,-813 435,-813"/>
<text text-anchor="middle" x="392" y="-791.9" font-family="sans" font-size="12.00" fill="#c4c7c7">Linear extension</text>
</a>
</g>
</g>
<!-- Relations&#45;&gt;Linear extension -->
<g id="edge20" class="edge">
<title>Relations&#45;&gt;Linear extension</title>
<path fill="none" stroke="#b75867" d="M231.09,-1032.58C243.06,-1029.59 255.44,-1024.08 263,-1014 276.15,-996.48 256.64,-833.54 271,-817 284.78,-801.13 305.92,-794.25 326.63,-791.79"/>
<polygon fill="#b75867" stroke="#b75867" points="327.07,-795.27 336.73,-790.91 326.47,-788.29 327.07,-795.27"/>
</g>
<!-- Linear order -->
<g id="node19" class="node">
<title>Linear order</title>
<g id="a_node19"><a xlink:href="../Linear order.html" xlink:title="Linear order" target="_parent">
<path fill="#273434" stroke="#b75867" d="M423,-776C423,-776 361,-776 361,-776 355,-776 349,-770 349,-764 349,-764 349,-752 349,-752 349,-746 355,-740 361,-740 361,-740 423,-740 423,-740 429,-740 435,-746 435,-752 435,-752 435,-764 435,-764 435,-770 429,-776 423,-776"/>
<text text-anchor="middle" x="392" y="-754.9" font-family="sans" font-size="12.00" fill="#c4c7c7">Linear order</text>
</a>
</g>
</g>
<!-- Relations&#45;&gt;Linear order -->
<g id="edge21" class="edge">
<title>Relations&#45;&gt;Linear order</title>
<path fill="none" stroke="#b75867" d="M231.13,-1032.61C243.1,-1029.62 255.47,-1024.1 263,-1014 278.55,-993.14 254.01,-799.7 271,-780 287.4,-760.99 314.35,-754.86 338.56,-753.77"/>
<polygon fill="#b75867" stroke="#b75867" points="338.79,-757.27 348.73,-753.59 338.67,-750.27 338.79,-757.27"/>
</g>
<!-- Partial order -->
<g id="node20" class="node">
<title>Partial order</title>
<g id="a_node20"><a xlink:href="../Partial order.html" xlink:title="Partial order" target="_parent">
<path fill="#273434" stroke="#b75867" d="M423,-739C423,-739 361,-739 361,-739 355,-739 349,-733 349,-727 349,-727 349,-715 349,-715 349,-709 355,-703 361,-703 361,-703 423,-703 423,-703 429,-703 435,-709 435,-715 435,-715 435,-727 435,-727 435,-733 429,-739 423,-739"/>
<text text-anchor="middle" x="392" y="-717.9" font-family="sans" font-size="12.00" fill="#c4c7c7">Partial order</text>
</a>
</g>
</g>
<!-- Relations&#45;&gt;Partial order -->
<g id="edge22" class="edge">
<title>Relations&#45;&gt;Partial order</title>
<path fill="none" stroke="#b75867" d="M231.15,-1032.63C243.13,-1029.64 255.5,-1024.12 263,-1014 280.94,-989.8 251.38,-765.85 271,-743 287.42,-723.88 314.5,-717.78 338.79,-716.73"/>
<polygon fill="#b75867" stroke="#b75867" points="339.05,-720.22 348.99,-716.56 338.93,-713.23 339.05,-720.22"/>
</g>
<!-- Class of equivalence -->
<g id="node21" class="node">
<title>Class of equivalence</title>
<g id="a_node21"><a xlink:href="../Class of equivalence.html" xlink:title="Class of equivalence" target="_parent">
<path fill="#273434" stroke="#b75867" d="M445.5,-702C445.5,-702 338.5,-702 338.5,-702 332.5,-702 326.5,-696 326.5,-690 326.5,-690 326.5,-678 326.5,-678 326.5,-672 332.5,-666 338.5,-666 338.5,-666 445.5,-666 445.5,-666 451.5,-666 457.5,-672 457.5,-678 457.5,-678 457.5,-690 457.5,-690 457.5,-696 451.5,-702 445.5,-702"/>
<text text-anchor="middle" x="392" y="-680.9" font-family="sans" font-size="12.00" fill="#c4c7c7">Class of equivalence</text>
</a>
</g>
</g>
<!-- Relations&#45;&gt;Class of equivalence -->
<g id="edge23" class="edge">
<title>Relations&#45;&gt;Class of equivalence</title>
<path fill="none" stroke="#b75867" d="M231.17,-1032.64C243.15,-1029.65 255.51,-1024.13 263,-1014 283.34,-986.47 248.74,-732.01 271,-706 282.4,-692.68 298.96,-685.67 316.17,-682.29"/>
<polygon fill="#b75867" stroke="#b75867" points="317,-685.7 326.34,-680.7 315.92,-678.79 317,-685.7"/>
</g>
<!-- Relation of Equivalence -->
<g id="node22" class="node">
<title>Relation of Equivalence</title>
<g id="a_node22"><a xlink:href="../Relation of Equivalence.html" xlink:title="Relation of Equivalence" target="_parent">
<path fill="#273434" stroke="#b75867" d="M454.5,-1257C454.5,-1257 329.5,-1257 329.5,-1257 323.5,-1257 317.5,-1251 317.5,-1245 317.5,-1245 317.5,-1233 317.5,-1233 317.5,-1227 323.5,-1221 329.5,-1221 329.5,-1221 454.5,-1221 454.5,-1221 460.5,-1221 466.5,-1227 466.5,-1233 466.5,-1233 466.5,-1245 466.5,-1245 466.5,-1251 460.5,-1257 454.5,-1257"/>
<text text-anchor="middle" x="392" y="-1235.9" font-family="sans" font-size="12.00" fill="#c4c7c7">Relation of Equivalence</text>
</a>
</g>
</g>
<!-- Relations&#45;&gt;Relation of Equivalence -->
<g id="edge24" class="edge">
<title>Relations&#45;&gt;Relation of Equivalence</title>
<path fill="none" stroke="#b75867" d="M231.04,-1039.46C243.01,-1042.46 255.39,-1047.96 263,-1058 273.68,-1072.1 259.34,-1203.7 271,-1217 280.59,-1227.93 293.66,-1234.59 307.67,-1238.47"/>
<polygon fill="#b75867" stroke="#b75867" points="306.95,-1241.89 317.48,-1240.73 308.52,-1235.07 306.95,-1241.89"/>
</g>
<!-- Transitive Closure -->
<g id="node23" class="node">
<title>Transitive Closure</title>
<g id="a_node23"><a xlink:href="../Transitive Closure.html" xlink:title="Transitive Closure" target="_parent">
<path fill="#273434" stroke="#b75867" d="M438,-1220C438,-1220 346,-1220 346,-1220 340,-1220 334,-1214 334,-1208 334,-1208 334,-1196 334,-1196 334,-1190 340,-1184 346,-1184 346,-1184 438,-1184 438,-1184 444,-1184 450,-1190 450,-1196 450,-1196 450,-1208 450,-1208 450,-1214 444,-1220 438,-1220"/>
<text text-anchor="middle" x="392" y="-1198.9" font-family="sans" font-size="12.00" fill="#c4c7c7">Transitive Closure</text>
</a>
</g>
</g>
<!-- Relations&#45;&gt;Transitive Closure -->
<g id="edge25" class="edge">
<title>Relations&#45;&gt;Transitive Closure</title>
<path fill="none" stroke="#b75867" d="M231.3,-1039.6C243.15,-1042.63 255.39,-1048.11 263,-1058 279.57,-1079.53 252.93,-1159.71 271,-1180 284.31,-1194.95 304.16,-1201.86 323.89,-1204.63"/>
<polygon fill="#b75867" stroke="#b75867" points="323.54,-1208.11 333.85,-1205.7 324.28,-1201.15 323.54,-1208.11"/>
</g>
<!-- Relations&#45;&gt;Transitive Closure -->
<g id="edge29" class="edge">
<title>Relations&#45;&gt;Transitive Closure</title>
<path fill="none" stroke="#b75867" d="M231.3,-1040.54C243.15,-1043.63 255.39,-1049.11 263,-1059 279.57,-1080.53 252.93,-1160.71 271,-1181 284.31,-1195.95 304.16,-1202.86 323.89,-1205.58"/>
<polygon fill="#b75867" stroke="#b75867" points="323.55,-1209.06 333.85,-1206.62 324.27,-1202.1 323.55,-1209.06"/>
</g>
<!-- Symmetric Closure -->
<g id="node24" class="node">
<title>Symmetric Closure</title>
<g id="a_node24"><a xlink:href="../Symmetric Closure.html" xlink:title="Symmetric Closure" target="_parent">
<path fill="#273434" stroke="#b75867" d="M441.5,-1183C441.5,-1183 342.5,-1183 342.5,-1183 336.5,-1183 330.5,-1177 330.5,-1171 330.5,-1171 330.5,-1159 330.5,-1159 330.5,-1153 336.5,-1147 342.5,-1147 342.5,-1147 441.5,-1147 441.5,-1147 447.5,-1147 453.5,-1153 453.5,-1159 453.5,-1159 453.5,-1171 453.5,-1171 453.5,-1177 447.5,-1183 441.5,-1183"/>
<text text-anchor="middle" x="392" y="-1161.9" font-family="sans" font-size="12.00" fill="#c4c7c7">Symmetric Closure</text>
</a>
</g>
</g>
<!-- Relations&#45;&gt;Symmetric Closure -->
<g id="edge26" class="edge">
<title>Relations&#45;&gt;Symmetric Closure</title>
<path fill="none" stroke="#b75867" d="M231.16,-1039.72C242.99,-1042.76 255.25,-1048.22 263,-1058 274.79,-1072.87 258.18,-1129.01 271,-1143 283.67,-1156.83 301.94,-1163.73 320.42,-1166.83"/>
<polygon fill="#b75867" stroke="#b75867" points="320,-1170.3 330.37,-1168.15 320.92,-1163.36 320,-1170.3"/>
</g>
<!-- Relations&#45;&gt;Symmetric Closure -->
<g id="edge28" class="edge">
<title>Relations&#45;&gt;Symmetric Closure</title>
<path fill="none" stroke="#b75867" d="M231.16,-1040.65C242.99,-1043.76 255.25,-1049.22 263,-1059 274.79,-1073.87 258.18,-1130.01 271,-1144 283.67,-1157.83 301.94,-1164.73 320.42,-1167.79"/>
<polygon fill="#b75867" stroke="#b75867" points="320,-1171.26 330.37,-1169.08 320.91,-1164.32 320,-1171.26"/>
</g>
<!-- Reflexive Closure -->
<g id="node25" class="node">
<title>Reflexive Closure</title>
<g id="a_node25"><a xlink:href="../Reflexive Closure.html" xlink:title="Reflexive Closure" target="_parent">
<path fill="#273434" stroke="#b75867" d="M436.5,-1146C436.5,-1146 347.5,-1146 347.5,-1146 341.5,-1146 335.5,-1140 335.5,-1134 335.5,-1134 335.5,-1122 335.5,-1122 335.5,-1116 341.5,-1110 347.5,-1110 347.5,-1110 436.5,-1110 436.5,-1110 442.5,-1110 448.5,-1116 448.5,-1122 448.5,-1122 448.5,-1134 448.5,-1134 448.5,-1140 442.5,-1146 436.5,-1146"/>
<text text-anchor="middle" x="392" y="-1124.9" font-family="sans" font-size="12.00" fill="#c4c7c7">Reflexive Closure</text>
</a>
</g>
</g>
<!-- Relations&#45;&gt;Reflexive Closure -->
<g id="edge27" class="edge">
<title>Relations&#45;&gt;Reflexive Closure</title>
<path fill="none" stroke="#b75867" d="M231.13,-1040.11C242.82,-1043.2 254.98,-1048.6 263,-1058 277.03,-1074.46 255.83,-1090.58 271,-1106 285.17,-1120.4 305.44,-1127.12 325.3,-1129.89"/>
<polygon fill="#b75867" stroke="#b75867" points="324.98,-1133.38 335.29,-1130.97 325.73,-1126.42 324.98,-1133.38"/>
</g>
<!-- Relations&#45;&gt;Reflexive Closure -->
<g id="edge30" class="edge">
<title>Relations&#45;&gt;Reflexive Closure</title>
<path fill="none" stroke="#b75867" d="M231.13,-1041.04C242.82,-1044.2 254.98,-1049.6 263,-1059 277.03,-1075.46 255.83,-1091.58 271,-1107 285.17,-1121.4 305.44,-1128.12 325.3,-1130.84"/>
<polygon fill="#b75867" stroke="#b75867" points="324.98,-1134.33 335.29,-1131.89 325.72,-1127.37 324.98,-1134.33"/>
</g>
<!-- Transitive Relation -->
<g id="node26" class="node">
<title>Transitive Relation</title>
<g id="a_node26"><a xlink:href="../Transitive Relation.html" xlink:title="Transitive Relation" target="_parent">
<path fill="#273434" stroke="#b75867" d="M440.5,-1109C440.5,-1109 343.5,-1109 343.5,-1109 337.5,-1109 331.5,-1103 331.5,-1097 331.5,-1097 331.5,-1085 331.5,-1085 331.5,-1079 337.5,-1073 343.5,-1073 343.5,-1073 440.5,-1073 440.5,-1073 446.5,-1073 452.5,-1079 452.5,-1085 452.5,-1085 452.5,-1097 452.5,-1097 452.5,-1103 446.5,-1109 440.5,-1109"/>
<text text-anchor="middle" x="392" y="-1087.9" font-family="sans" font-size="12.00" fill="#c4c7c7">Transitive Relation</text>
</a>
</g>
</g>
<!-- Relations&#45;&gt;Transitive Relation -->
<g id="edge31" class="edge">
<title>Relations&#45;&gt;Transitive Relation</title>
<path fill="none" stroke="#b75867" d="M231.06,-1042.95C241.94,-1046.29 253.62,-1051.12 263,-1058 267.87,-1061.58 265.88,-1065.78 271,-1069 285.91,-1078.38 303.8,-1083.99 321.16,-1087.29"/>
<polygon fill="#b75867" stroke="#b75867" points="320.85,-1090.78 331.29,-1088.97 322,-1083.88 320.85,-1090.78"/>
</g>
<!-- Strongly Anti&#45;symmetric Relation -->
<g id="node27" class="node">
<title>Strongly Anti&#45;symmetric Relation</title>
<g id="a_node27"><a xlink:href="../Strongly Anti-symmetric Relation.html" xlink:title="Strongly Anti&#45;symmetric Relation" target="_parent">
<path fill="#273434" stroke="#b75867" d="M481.5,-1072C481.5,-1072 302.5,-1072 302.5,-1072 296.5,-1072 290.5,-1066 290.5,-1060 290.5,-1060 290.5,-1048 290.5,-1048 290.5,-1042 296.5,-1036 302.5,-1036 302.5,-1036 481.5,-1036 481.5,-1036 487.5,-1036 493.5,-1042 493.5,-1048 493.5,-1048 493.5,-1060 493.5,-1060 493.5,-1066 487.5,-1072 481.5,-1072"/>
<text text-anchor="middle" x="392" y="-1050.9" font-family="sans" font-size="12.00" fill="#c4c7c7">Strongly Anti&#45;symmetric Relation</text>
</a>
</g>
</g>
<!-- Relations&#45;&gt;Strongly Anti&#45;symmetric Relation -->
<g id="edge32" class="edge">
<title>Relations&#45;&gt;Strongly Anti&#45;symmetric Relation</title>
<path fill="none" stroke="#b75867" d="M231.21,-1039.14C245.27,-1040.44 262.49,-1042.05 280.36,-1043.71"/>
<polygon fill="#b75867" stroke="#b75867" points="280.05,-1047.19 290.34,-1044.64 280.7,-1040.22 280.05,-1047.19"/>
</g>
<!-- Anti&#45;symmetric Relation -->
<g id="node28" class="node">
<title>Anti&#45;symmetric Relation</title>
<g id="a_node28"><a xlink:href="../Anti-symmetric Relation.html" xlink:title="Anti&#45;symmetric Relation" target="_parent">
<path fill="#273434" stroke="#b75867" d="M456,-1035C456,-1035 328,-1035 328,-1035 322,-1035 316,-1029 316,-1023 316,-1023 316,-1011 316,-1011 316,-1005 322,-999 328,-999 328,-999 456,-999 456,-999 462,-999 468,-1005 468,-1011 468,-1011 468,-1023 468,-1023 468,-1029 462,-1035 456,-1035"/>
<text text-anchor="middle" x="392" y="-1013.9" font-family="sans" font-size="12.00" fill="#c4c7c7">Anti&#45;symmetric Relation</text>
</a>
</g>
</g>
<!-- Relations&#45;&gt;Anti&#45;symmetric Relation -->
<g id="edge33" class="edge">
<title>Relations&#45;&gt;Anti&#45;symmetric Relation</title>
<path fill="none" stroke="#b75867" d="M231.21,-1032.69C251.94,-1030.65 279.53,-1027.95 305.93,-1025.35"/>
<polygon fill="#b75867" stroke="#b75867" points="306.37,-1028.83 315.98,-1024.37 305.69,-1021.86 306.37,-1028.83"/>
</g>
<!-- Symmetric Relation -->
<g id="node29" class="node">
<title>Symmetric Relation</title>
<g id="a_node29"><a xlink:href="../Symmetric Relation.html" xlink:title="Symmetric Relation" target="_parent">
<path fill="#273434" stroke="#b75867" d="M444,-998C444,-998 340,-998 340,-998 334,-998 328,-992 328,-986 328,-986 328,-974 328,-974 328,-968 334,-962 340,-962 340,-962 444,-962 444,-962 450,-962 456,-968 456,-974 456,-974 456,-986 456,-986 456,-992 450,-998 444,-998"/>
<text text-anchor="middle" x="392" y="-976.9" font-family="sans" font-size="12.00" fill="#c4c7c7">Symmetric Relation</text>
</a>
</g>
</g>
<!-- Relations&#45;&gt;Symmetric Relation -->
<g id="edge34" class="edge">
<title>Relations&#45;&gt;Symmetric Relation</title>
<path fill="none" stroke="#b75867" d="M231.22,-1029.27C242.12,-1025.95 253.76,-1021.07 263,-1014 268.09,-1010.1 265.65,-1005.52 271,-1002 284.85,-992.89 301.44,-987.29 317.81,-983.91"/>
<polygon fill="#b75867" stroke="#b75867" points="318.73,-987.3 327.95,-982.08 317.48,-980.41 318.73,-987.3"/>
</g>
<!-- Anti&#45;reflexive relation -->
<g id="node30" class="node">
<title>Anti&#45;reflexive relation</title>
<g id="a_node30"><a xlink:href="../Anti-reflexive relation.html" xlink:title="Anti&#45;reflexive relation" target="_parent">
<path fill="#273434" stroke="#b75867" d="M449,-961C449,-961 335,-961 335,-961 329,-961 323,-955 323,-949 323,-949 323,-937 323,-937 323,-931 329,-925 335,-925 335,-925 449,-925 449,-925 455,-925 461,-931 461,-937 461,-937 461,-949 461,-949 461,-955 455,-961 449,-961"/>
<text text-anchor="middle" x="392" y="-939.9" font-family="sans" font-size="12.00" fill="#c4c7c7">Anti&#45;reflexive relation</text>
</a>
</g>
</g>
<!-- Relations&#45;&gt;Anti&#45;reflexive relation -->
<g id="edge35" class="edge">
<title>Relations&#45;&gt;Anti&#45;reflexive relation</title>
<path fill="none" stroke="#b75867" d="M231.15,-1031.91C242.83,-1028.82 255,-1023.42 263,-1014 277.29,-997.18 255.55,-980.75 271,-965 282.13,-953.65 297.05,-947.06 312.58,-943.42"/>
<polygon fill="#b75867" stroke="#b75867" points="313.69,-946.77 322.84,-941.44 312.36,-939.9 313.69,-946.77"/>
</g>
<!-- Reflexive Relation -->
<g id="node31" class="node">
<title>Reflexive Relation</title>
<g id="a_node31"><a xlink:href="../Reflexive Relation.html" xlink:title="Reflexive Relation" target="_parent">
<path fill="#273434" stroke="#b75867" d="M438.5,-924C438.5,-924 345.5,-924 345.5,-924 339.5,-924 333.5,-918 333.5,-912 333.5,-912 333.5,-900 333.5,-900 333.5,-894 339.5,-888 345.5,-888 345.5,-888 438.5,-888 438.5,-888 444.5,-888 450.5,-894 450.5,-900 450.5,-900 450.5,-912 450.5,-912 450.5,-918 444.5,-924 438.5,-924"/>
<text text-anchor="middle" x="392" y="-902.9" font-family="sans" font-size="12.00" fill="#c4c7c7">Reflexive Relation</text>
</a>
</g>
</g>
<!-- Relations&#45;&gt;Reflexive Relation -->
<g id="edge36" class="edge">
<title>Relations&#45;&gt;Reflexive Relation</title>
<path fill="none" stroke="#b75867" d="M231.16,-1032.29C242.99,-1029.25 255.26,-1023.78 263,-1014 274.92,-998.95 258.04,-942.16 271,-928 284.33,-913.43 303.87,-906.56 323.33,-903.7"/>
<polygon fill="#b75867" stroke="#b75867" points="323.92,-907.16 333.47,-902.56 323.14,-900.2 323.92,-907.16"/>
</g>
<!-- Relation -->
<g id="node32" class="node">
<title>Relation</title>
<g id="a_node32"><a xlink:href="../Relation.html" xlink:title="Relation" target="_parent">
<path fill="#273434" stroke="#b75867" d="M412,-887C412,-887 372,-887 372,-887 366,-887 360,-881 360,-875 360,-875 360,-863 360,-863 360,-857 366,-851 372,-851 372,-851 412,-851 412,-851 418,-851 424,-857 424,-863 424,-863 424,-875 424,-875 424,-881 418,-887 412,-887"/>
<text text-anchor="middle" x="392" y="-865.9" font-family="sans" font-size="12.00" fill="#c4c7c7">Relation</text>
</a>
</g>
</g>
<!-- Relations&#45;&gt;Relation -->
<g id="edge37" class="edge">
<title>Relations&#45;&gt;Relation</title>
<path fill="none" stroke="#b75867" d="M231.31,-1032.4C243.16,-1029.37 255.39,-1023.89 263,-1014 279.7,-992.29 252.79,-911.46 271,-891 290.27,-869.35 323.22,-864.56 349.73,-864.79"/>
<polygon fill="#b75867" stroke="#b75867" points="349.79,-868.29 359.89,-865.12 350.01,-861.3 349.79,-868.29"/>
</g>
<!-- Logical Equivalences&#45;&gt;Discrete Structures -->
<g id="edge39" class="edge">
<title>Logical Equivalences&#45;&gt;Discrete Structures</title>
<path fill="none" stroke="#ffffff" d="M122.58,-1009.58C122.42,-1009.6 122.27,-1009.62 122.11,-1009.64"/>
<polygon fill="#ffffff" stroke="#ffffff" points="120.16,-1013.44 129.61,-1008.63 119.23,-1006.5 120.16,-1013.44"/>
</g>
<!-- Logical Operators&#45;&gt;Discrete Structures -->
<g id="edge40" class="edge">
<title>Logical Operators&#45;&gt;Discrete Structures</title>
<path fill="none" stroke="#ffffff" d="M133.11,-983.75C132.07,-984.16 131.03,-984.58 130,-985 119.8,-989.17 108.97,-994.16 99.02,-998.94"/>
<polygon fill="#ffffff" stroke="#ffffff" points="134.64,-986.91 142.73,-980.07 132.14,-980.37 134.64,-986.91"/>
</g>
<!-- Subjects&#45;&gt;Discrete Structures -->
<g id="edge42" class="edge">
<title>Subjects&#45;&gt;Discrete Structures</title>
<path fill="none" stroke="#b75867" d="M189.42,-647.01C168.26,-709.04 97.69,-914.16 71.71,-989.19"/>
<polygon fill="#b75867" stroke="#b75867" points="68.32,-988.3 68.35,-998.89 74.93,-990.59 68.32,-988.3"/>
</g>
<!-- Numeric Methods -->
<g id="node33" class="node">
<title>Numeric Methods</title>
<g id="a_node33"><a xlink:href="../Numeric Methods.html" xlink:title="Numeric Methods" target="_parent">
<path fill="#273434" stroke="#b75867" d="M438,-591C438,-591 346,-591 346,-591 340,-591 334,-585 334,-579 334,-579 334,-567 334,-567 334,-561 340,-555 346,-555 346,-555 438,-555 438,-555 444,-555 450,-561 450,-567 450,-567 450,-579 450,-579 450,-585 444,-591 438,-591"/>
<text text-anchor="middle" x="392" y="-569.9" font-family="sans" font-size="12.00" fill="#c4c7c7">Numeric Methods</text>
</a>
</g>
</g>
<!-- Subjects&#45;&gt;Numeric Methods -->
<g id="edge41" class="edge">
<title>Subjects&#45;&gt;Numeric Methods</title>
<path fill="none" stroke="#b75867" d="M229,-612.3C241.75,-606.11 256.8,-599.51 271,-595 287.79,-589.67 306.34,-585.48 323.73,-582.26"/>
<polygon fill="#b75867" stroke="#b75867" points="324.58,-585.66 333.81,-580.47 323.36,-578.77 324.58,-585.66"/>
</g>
<!-- Differential Analysis -->
<g id="node34" class="node">
<title>Differential Analysis</title>
<g id="a_node34"><a xlink:href="../Differential Analysis.html" xlink:title="Differential Analysis" target="_parent">
<path fill="#273434" stroke="#b75867" d="M443.5,-554C443.5,-554 340.5,-554 340.5,-554 334.5,-554 328.5,-548 328.5,-542 328.5,-542 328.5,-530 328.5,-530 328.5,-524 334.5,-518 340.5,-518 340.5,-518 443.5,-518 443.5,-518 449.5,-518 455.5,-524 455.5,-530 455.5,-530 455.5,-542 455.5,-542 455.5,-548 449.5,-554 443.5,-554"/>
<text text-anchor="middle" x="392" y="-532.9" font-family="sans" font-size="12.00" fill="#c4c7c7">Differential Analysis</text>
</a>
</g>
</g>
<!-- Subjects&#45;&gt;Differential Analysis -->
<g id="edge43" class="edge">
<title>Subjects&#45;&gt;Differential Analysis</title>
<path fill="none" stroke="#b75867" d="M211.12,-610.75C224.47,-594.25 246.38,-570.65 271,-558 285.51,-550.54 302.15,-545.58 318.32,-542.29"/>
<polygon fill="#b75867" stroke="#b75867" points="319.11,-545.7 328.31,-540.45 317.84,-538.82 319.11,-545.7"/>
</g>
<!-- Linear Algebra -->
<g id="node35" class="node">
<title>Linear Algebra</title>
<g id="a_node35"><a xlink:href="../Linear Algebra.html" xlink:title="Linear Algebra" target="_parent">
<path fill="#273434" stroke="#b75867" d="M429,-628C429,-628 355,-628 355,-628 349,-628 343,-622 343,-616 343,-616 343,-604 343,-604 343,-598 349,-592 355,-592 355,-592 429,-592 429,-592 435,-592 441,-598 441,-604 441,-604 441,-616 441,-616 441,-622 435,-628 429,-628"/>
<text text-anchor="middle" x="392" y="-606.9" font-family="sans" font-size="12.00" fill="#c4c7c7">Linear Algebra</text>
</a>
</g>
</g>
<!-- Subjects&#45;&gt;Linear Algebra -->
<g id="edge44" class="edge">
<title>Subjects&#45;&gt;Linear Algebra</title>
<path fill="none" stroke="#b75867" d="M229.02,-625.91C256.97,-623.16 298.52,-619.08 332.53,-615.74"/>
<polygon fill="#b75867" stroke="#b75867" points="333.22,-619.19 342.83,-614.73 332.53,-612.22 333.22,-619.19"/>
</g>
<!-- index -->
<g id="node36" class="node">
<title>index</title>
<g id="a_node36"><a xlink:href="../index.html" xlink:title="index" target="_parent">
<path fill="none" stroke="#b75867" d="M407,-665C407,-665 377,-665 377,-665 371,-665 365,-659 365,-653 365,-653 365,-641 365,-641 365,-635 371,-629 377,-629 377,-629 407,-629 407,-629 413,-629 419,-635 419,-641 419,-641 419,-653 419,-653 419,-659 413,-665 407,-665"/>
<text text-anchor="middle" x="392" y="-643.9" font-family="sans" font-size="12.00" fill="#c4c7c7">index</text>
</a>
</g>
</g>
<!-- Subjects&#45;&gt;index -->
<g id="edge45" class="edge">
<title>Subjects&#45;&gt;index</title>
<path fill="none" stroke="#ffffff" d="M239.28,-632.89C277.39,-636.43 332.53,-641.56 364.78,-644.56"/>
<polygon fill="#ffffff" stroke="#ffffff" points="239.3,-629.37 229.02,-631.93 238.65,-636.34 239.3,-629.37"/>
</g>
<!-- Knowledege Base&#45;&gt;Discrete Structures -->
<g id="edge55" class="edge">
<title>Knowledege Base&#45;&gt;Discrete Structures</title>
<path fill="none" stroke="#b75867" d="M190.04,-388.21C177.95,-428.34 148.51,-527.5 130,-612 99.29,-752.2 74.91,-922.28 65.84,-988.6"/>
<polygon fill="#b75867" stroke="#b75867" points="62.34,-988.31 64.46,-998.69 69.28,-989.25 62.34,-988.31"/>
</g>
<!-- Knowledege Base&#45;&gt;Numeric Methods -->
<g id="edge47" class="edge">
<title>Knowledege Base&#45;&gt;Numeric Methods</title>
<path fill="none" stroke="#b75867" d="M199.22,-388.25C203.75,-425.23 219.44,-509.04 271,-551 285.83,-563.07 305.12,-569.36 323.89,-572.45"/>
<polygon fill="#b75867" stroke="#b75867" points="323.54,-575.94 333.92,-573.82 324.49,-569 323.54,-575.94"/>
</g>
<!-- Knowledege Base&#45;&gt;Differential Analysis -->
<g id="edge57" class="edge">
<title>Knowledege Base&#45;&gt;Differential Analysis</title>
<path fill="none" stroke="#b75867" d="M201.34,-388.41C208.88,-419.6 228.68,-482.48 271,-514 284.7,-524.2 301.69,-530.16 318.52,-533.54"/>
<polygon fill="#b75867" stroke="#b75867" points="317.94,-536.99 328.39,-535.24 319.13,-530.09 317.94,-536.99"/>
</g>
<!-- Knowledege Base&#45;&gt;Differential Analysis -->
<g id="edge61" class="edge">
<title>Knowledege Base&#45;&gt;Differential Analysis</title>
<path fill="none" stroke="#b75867" d="M201.11,-388.02C208.46,-419.26 228.23,-483.15 271,-515 284.7,-525.2 301.69,-531.16 318.52,-534.51"/>
<polygon fill="#b75867" stroke="#b75867" points="317.94,-537.96 328.39,-536.18 319.12,-531.06 317.94,-537.96"/>
</g>
<!-- Knowledege Base&#45;&gt;Linear Algebra -->
<g id="edge60" class="edge">
<title>Knowledege Base&#45;&gt;Linear Algebra</title>
<path fill="none" stroke="#b75867" d="M197.8,-388.27C199.55,-430.51 210.15,-535.33 271,-588 287.87,-602.6 311.17,-608.91 332.75,-611.28"/>
<polygon fill="#b75867" stroke="#b75867" points="332.59,-614.78 342.84,-612.13 333.17,-607.8 332.59,-614.78"/>
</g>
<!-- Computer Architectures -->
<g id="node37" class="node">
<title>Computer Architectures</title>
<g id="a_node37"><a xlink:href="../Computer Architectures.html" xlink:title="Computer Architectures" target="_parent">
<path fill="#273434" stroke="#b75867" d="M455.5,-110C455.5,-110 328.5,-110 328.5,-110 322.5,-110 316.5,-104 316.5,-98 316.5,-98 316.5,-86 316.5,-86 316.5,-80 322.5,-74 328.5,-74 328.5,-74 455.5,-74 455.5,-74 461.5,-74 467.5,-80 467.5,-86 467.5,-86 467.5,-98 467.5,-98 467.5,-104 461.5,-110 455.5,-110"/>
<text text-anchor="middle" x="392" y="-88.9" font-family="sans" font-size="12.00" fill="#c4c7c7">Computer Architectures</text>
</a>
</g>
</g>
<!-- Knowledege Base&#45;&gt;Computer Architectures -->
<g id="edge46" class="edge">
<title>Knowledege Base&#45;&gt;Computer Architectures</title>
<path fill="none" stroke="#b75867" d="M196.74,-351.84C195.84,-304.75 200.42,-177.97 271,-114 280.94,-104.99 293.31,-99.09 306.3,-95.32"/>
<polygon fill="#b75867" stroke="#b75867" points="307.46,-98.63 316.32,-92.83 305.77,-91.84 307.46,-98.63"/>
</g>
<!-- Design and Analysis of Algorithms -->
<g id="node38" class="node">
<title>Design and Analysis of Algorithms</title>
<g id="a_node38"><a xlink:href="../Design and Analysis of Algorithms.html" xlink:title="Design and Analysis of Algorithms" target="_parent">
<path fill="#273434" stroke="#b75867" d="M483,-73C483,-73 301,-73 301,-73 295,-73 289,-67 289,-61 289,-61 289,-49 289,-49 289,-43 295,-37 301,-37 301,-37 483,-37 483,-37 489,-37 495,-43 495,-49 495,-49 495,-61 495,-61 495,-67 489,-73 483,-73"/>
<text text-anchor="middle" x="392" y="-51.9" font-family="sans" font-size="12.00" fill="#c4c7c7">Design and Analysis of Algorithms</text>
</a>
</g>
</g>
<!-- Knowledege Base&#45;&gt;Design and Analysis of Algorithms -->
<g id="edge48" class="edge">
<title>Knowledege Base&#45;&gt;Design and Analysis of Algorithms</title>
<path fill="none" stroke="#b75867" d="M199.53,-351.62C206.32,-293.5 230.16,-115.29 271,-77 273.83,-74.34 276.87,-71.96 280.08,-69.81"/>
<polygon fill="#b75867" stroke="#b75867" points="282.03,-72.73 288.92,-64.68 278.52,-66.67 282.03,-72.73"/>
</g>
<!-- Logic Programming -->
<g id="node39" class="node">
<title>Logic Programming</title>
<g id="a_node39"><a xlink:href="../Logic Programming.html" xlink:title="Logic Programming" target="_parent">
<path fill="#273434" stroke="#b75867" d="M443,-36C443,-36 341,-36 341,-36 335,-36 329,-30 329,-24 329,-24 329,-12 329,-12 329,-6 335,0 341,0 341,0 443,0 443,0 449,0 455,-6 455,-12 455,-12 455,-24 455,-24 455,-30 449,-36 443,-36"/>
<text text-anchor="middle" x="392" y="-14.9" font-family="sans" font-size="12.00" fill="#c4c7c7">Logic Programming</text>
</a>
</g>
</g>
<!-- Knowledege Base&#45;&gt;Logic Programming -->
<g id="edge49" class="edge">
<title>Knowledege Base&#45;&gt;Logic Programming</title>
<path fill="none" stroke="#b75867" d="M198.98,-351.57C204.4,-288.67 225.34,-83.97 271,-40 283.82,-27.66 301.15,-21.05 318.64,-17.74"/>
<polygon fill="#b75867" stroke="#b75867" points="319.58,-21.13 328.93,-16.15 318.52,-14.21 319.58,-21.13"/>
</g>
<!-- Data Structures -->
<g id="node40" class="node">
<title>Data Structures</title>
<g id="a_node40"><a xlink:href="../Data Structures.html" xlink:title="Data Structures" target="_parent">
<path fill="#273434" stroke="#b75867" d="M432,-517C432,-517 352,-517 352,-517 346,-517 340,-511 340,-505 340,-505 340,-493 340,-493 340,-487 346,-481 352,-481 352,-481 432,-481 432,-481 438,-481 444,-487 444,-493 444,-493 444,-505 444,-505 444,-511 438,-517 432,-517"/>
<text text-anchor="middle" x="392" y="-495.9" font-family="sans" font-size="12.00" fill="#c4c7c7">Data Structures</text>
</a>
</g>
</g>
<!-- Knowledege Base&#45;&gt;Data Structures -->
<g id="edge50" class="edge">
<title>Knowledege Base&#45;&gt;Data Structures</title>
<path fill="none" stroke="#b75867" d="M204.62,-388.08C215.2,-412.46 237.53,-455.3 271,-477 288.33,-488.24 309.87,-494.1 329.9,-497.06"/>
<polygon fill="#b75867" stroke="#b75867" points="329.54,-500.54 339.9,-498.33 330.42,-493.6 329.54,-500.54"/>
</g>
<!-- Languages, Automata and Computation -->
<g id="node41" class="node">
<title>Languages, Automata and Computation</title>
<g id="a_node41"><a xlink:href="../Languages, Automata and Computation.html" xlink:title="Languages, Automata and Computation" target="_parent">
<path fill="#273434" stroke="#b75867" d="M501,-480C501,-480 283,-480 283,-480 277,-480 271,-474 271,-468 271,-468 271,-456 271,-456 271,-450 277,-444 283,-444 283,-444 501,-444 501,-444 507,-444 513,-450 513,-456 513,-456 513,-468 513,-468 513,-474 507,-480 501,-480"/>
<text text-anchor="middle" x="392" y="-458.9" font-family="sans" font-size="12.00" fill="#c4c7c7">Languages, Automata and Computation</text>
</a>
</g>
</g>
<!-- Knowledege Base&#45;&gt;Languages, Automata and Computation -->
<g id="edge51" class="edge">
<title>Knowledege Base&#45;&gt;Languages, Automata and Computation</title>
<path fill="none" stroke="#b75867" d="M211.43,-388.3C223.59,-403.03 242.65,-423.34 270.49,-439.17"/>
<polygon fill="#b75867" stroke="#b75867" points="268.95,-442.31 279.42,-443.93 272.24,-436.13 268.95,-442.31"/>
</g>
<!-- Operations Research -->
<g id="node42" class="node">
<title>Operations Research</title>
<g id="a_node42"><a xlink:href="../Operations Research.html" xlink:title="Operations Research" target="_parent">
<path fill="#273434" stroke="#b75867" d="M446.5,-443C446.5,-443 337.5,-443 337.5,-443 331.5,-443 325.5,-437 325.5,-431 325.5,-431 325.5,-419 325.5,-419 325.5,-413 331.5,-407 337.5,-407 337.5,-407 446.5,-407 446.5,-407 452.5,-407 458.5,-413 458.5,-419 458.5,-419 458.5,-431 458.5,-431 458.5,-437 452.5,-443 446.5,-443"/>
<text text-anchor="middle" x="392" y="-421.9" font-family="sans" font-size="12.00" fill="#c4c7c7">Operations Research</text>
</a>
</g>
</g>
<!-- Knowledege Base&#45;&gt;Operations Research -->
<g id="edge52" class="edge">
<title>Knowledege Base&#45;&gt;Operations Research</title>
<path fill="none" stroke="#b75867" d="M233.09,-388.05C244.92,-393.49 258.31,-399.05 271,-403 285.05,-407.37 300.31,-410.99 315.09,-413.94"/>
<polygon fill="#b75867" stroke="#b75867" points="314.75,-417.44 325.23,-415.88 316.06,-410.57 314.75,-417.44"/>
</g>
<!-- Differential Equations -->
<g id="node43" class="node">
<title>Differential Equations</title>
<g id="a_node43"><a xlink:href="../Differential Equations.html" xlink:title="Differential Equations" target="_parent">
<path fill="#273434" stroke="#b75867" d="M449,-406C449,-406 335,-406 335,-406 329,-406 323,-400 323,-394 323,-394 323,-382 323,-382 323,-376 329,-370 335,-370 335,-370 449,-370 449,-370 455,-370 461,-376 461,-382 461,-382 461,-394 461,-394 461,-400 455,-406 449,-406"/>
<text text-anchor="middle" x="392" y="-384.9" font-family="sans" font-size="12.00" fill="#c4c7c7">Differential Equations</text>
</a>
</g>
</g>
<!-- Knowledege Base&#45;&gt;Differential Equations -->
<g id="edge53" class="edge">
<title>Knowledege Base&#45;&gt;Differential Equations</title>
<path fill="none" stroke="#b75867" d="M255.03,-375.35C273.15,-377.04 293.48,-378.93 312.79,-380.72"/>
<polygon fill="#b75867" stroke="#b75867" points="312.49,-384.21 322.77,-381.65 313.14,-377.24 312.49,-384.21"/>
</g>
<!-- OOP -->
<g id="node44" class="node">
<title>OOP</title>
<g id="a_node44"><a xlink:href="../OOP.html" xlink:title="OOP" target="_parent">
<path fill="#273434" stroke="#b75867" d="M407,-369C407,-369 377,-369 377,-369 371,-369 365,-363 365,-357 365,-357 365,-345 365,-345 365,-339 371,-333 377,-333 377,-333 407,-333 407,-333 413,-333 419,-339 419,-345 419,-345 419,-357 419,-357 419,-363 413,-369 407,-369"/>
<text text-anchor="middle" x="392" y="-347.9" font-family="sans" font-size="12.00" fill="#c4c7c7">OOP</text>
</a>
</g>
</g>
<!-- Knowledege Base&#45;&gt;OOP -->
<g id="edge54" class="edge">
<title>Knowledege Base&#45;&gt;OOP</title>
<path fill="none" stroke="#b75867" d="M255.03,-364.35C287.33,-361.18 326.66,-357.32 354.69,-354.57"/>
<polygon fill="#b75867" stroke="#b75867" points="355.23,-358.03 364.84,-353.57 354.55,-351.06 355.23,-358.03"/>
</g>
<!-- Advanced Algebra -->
<g id="node45" class="node">
<title>Advanced Algebra</title>
<g id="a_node45"><a xlink:href="../Advanced Algebra.html" xlink:title="Advanced Algebra" target="_parent">
<path fill="#273434" stroke="#b75867" d="M439.5,-332C439.5,-332 344.5,-332 344.5,-332 338.5,-332 332.5,-326 332.5,-320 332.5,-320 332.5,-308 332.5,-308 332.5,-302 338.5,-296 344.5,-296 344.5,-296 439.5,-296 439.5,-296 445.5,-296 451.5,-302 451.5,-308 451.5,-308 451.5,-320 451.5,-320 451.5,-326 445.5,-332 439.5,-332"/>
<text text-anchor="middle" x="392" y="-310.9" font-family="sans" font-size="12.00" fill="#c4c7c7">Advanced Algebra</text>
</a>
</g>
</g>
<!-- Knowledege Base&#45;&gt;Advanced Algebra -->
<g id="edge56" class="edge">
<title>Knowledege Base&#45;&gt;Advanced Algebra</title>
<path fill="none" stroke="#b75867" d="M231.93,-351.9C244.02,-346.13 257.87,-340.17 271,-336 287.37,-330.81 305.41,-326.69 322.42,-323.5"/>
<polygon fill="#b75867" stroke="#b75867" points="323.07,-326.94 332.29,-321.73 321.83,-320.05 323.07,-326.94"/>
</g>
<!-- Introduction to programming -->
<g id="node46" class="node">
<title>Introduction to programming</title>
<g id="a_node46"><a xlink:href="../Introduction to programming.html" xlink:title="Introduction to programming" target="_parent">
<path fill="#273434" stroke="#b75867" d="M471.5,-295C471.5,-295 312.5,-295 312.5,-295 306.5,-295 300.5,-289 300.5,-283 300.5,-283 300.5,-271 300.5,-271 300.5,-265 306.5,-259 312.5,-259 312.5,-259 471.5,-259 471.5,-259 477.5,-259 483.5,-265 483.5,-271 483.5,-271 483.5,-283 483.5,-283 483.5,-289 477.5,-295 471.5,-295"/>
<text text-anchor="middle" x="392" y="-273.9" font-family="sans" font-size="12.00" fill="#c4c7c7">Introduction to programming</text>
</a>
</g>
</g>
<!-- Knowledege Base&#45;&gt;Introduction to programming -->
<g id="edge58" class="edge">
<title>Knowledege Base&#45;&gt;Introduction to programming</title>
<path fill="none" stroke="#b75867" d="M211.12,-351.75C224.47,-335.25 246.38,-311.65 271,-299 277.14,-295.85 283.66,-293.14 290.36,-290.81"/>
<polygon fill="#b75867" stroke="#b75867" points="291.82,-294.03 300.3,-287.68 289.71,-287.35 291.82,-294.03"/>
</g>
<!-- Analytic Geometry -->
<g id="node47" class="node">
<title>Analytic Geometry</title>
<g id="a_node47"><a xlink:href="../Analytic Geometry.html" xlink:title="Analytic Geometry" target="_parent">
<path fill="#273434" stroke="#b75867" d="M440.5,-258C440.5,-258 343.5,-258 343.5,-258 337.5,-258 331.5,-252 331.5,-246 331.5,-246 331.5,-234 331.5,-234 331.5,-228 337.5,-222 343.5,-222 343.5,-222 440.5,-222 440.5,-222 446.5,-222 452.5,-228 452.5,-234 452.5,-234 452.5,-246 452.5,-246 452.5,-252 446.5,-258 440.5,-258"/>
<text text-anchor="middle" x="392" y="-236.9" font-family="sans" font-size="12.00" fill="#c4c7c7">Analytic Geometry</text>
</a>
</g>
</g>
<!-- Knowledege Base&#45;&gt;Analytic Geometry -->
<g id="edge59" class="edge">
<title>Knowledege Base&#45;&gt;Analytic Geometry</title>
<path fill="none" stroke="#b75867" d="M204.57,-351.75C215.1,-327.15 237.36,-283.91 271,-262 285.84,-252.34 303.78,-246.64 321.22,-243.35"/>
<polygon fill="#b75867" stroke="#b75867" points="322.1,-246.75 331.4,-241.67 320.96,-239.84 322.1,-246.75"/>
</g>
<!-- Org Roam -->
<g id="node48" class="node">
<title>Org Roam</title>
<g id="a_node48"><a xlink:href="../Org Roam.html" xlink:title="Org Roam" target="_parent">
<path fill="#273434" stroke="#b75867" d="M416,-221C416,-221 368,-221 368,-221 362,-221 356,-215 356,-209 356,-209 356,-197 356,-197 356,-191 362,-185 368,-185 368,-185 416,-185 416,-185 422,-185 428,-191 428,-197 428,-197 428,-209 428,-209 428,-215 422,-221 416,-221"/>
<text text-anchor="middle" x="392" y="-199.9" font-family="sans" font-size="12.00" fill="#c4c7c7">Org Roam</text>
</a>
</g>
</g>
<!-- Knowledege Base&#45;&gt;Org Roam -->
<g id="edge62" class="edge">
<title>Knowledege Base&#45;&gt;Org Roam</title>
<path fill="none" stroke="#b75867" d="M201.19,-351.96C208.57,-320.74 228.26,-256.92 271,-225 292.31,-209.09 321.58,-203.49 345.88,-201.92"/>
<polygon fill="#b75867" stroke="#b75867" points="346.12,-205.41 355.95,-201.47 345.81,-198.42 346.12,-205.41"/>
</g>
<!-- Org&#45;mode -->
<g id="node49" class="node">
<title>Org&#45;mode</title>
<g id="a_node49"><a xlink:href="../Org-mode.html" xlink:title="Org&#45;mode" target="_parent">
<path fill="#273434" stroke="#b75867" d="M417,-184C417,-184 367,-184 367,-184 361,-184 355,-178 355,-172 355,-172 355,-160 355,-160 355,-154 361,-148 367,-148 367,-148 417,-148 417,-148 423,-148 429,-154 429,-160 429,-160 429,-172 429,-172 429,-178 423,-184 417,-184"/>
<text text-anchor="middle" x="392" y="-162.9" font-family="sans" font-size="12.00" fill="#c4c7c7">Org&#45;mode</text>
</a>
</g>
</g>
<!-- Knowledege Base&#45;&gt;Org&#45;mode -->
<g id="edge63" class="edge">
<title>Knowledege Base&#45;&gt;Org&#45;mode</title>
<path fill="none" stroke="#b75867" d="M199.16,-351.93C203.57,-314.9 219.11,-230.32 271,-188 291.47,-171.31 320.46,-165.66 344.83,-164.25"/>
<polygon fill="#b75867" stroke="#b75867" points="345.08,-167.75 354.94,-163.89 344.83,-160.75 345.08,-167.75"/>
</g>
<!-- Projects -->
<g id="node50" class="node">
<title>Projects</title>
<g id="a_node50"><a xlink:href="../Projects.html" xlink:title="Projects" target="_parent">
<path fill="none" stroke="#b75867" d="M411,-147C411,-147 373,-147 373,-147 367,-147 361,-141 361,-135 361,-135 361,-123 361,-123 361,-117 367,-111 373,-111 373,-111 411,-111 411,-111 417,-111 423,-117 423,-123 423,-123 423,-135 423,-135 423,-141 417,-147 411,-147"/>
<text text-anchor="middle" x="392" y="-125.9" font-family="sans" font-size="12.00" fill="#c4c7c7">Projects</text>
</a>
</g>
</g>
<!-- Knowledege Base&#45;&gt;Projects -->
<g id="edge64" class="edge">
<title>Knowledege Base&#45;&gt;Projects</title>
<path fill="none" stroke="#ffffff" d="M198.27,-341.86C201.18,-294.74 214.21,-200.23 271,-151 295.65,-129.64 334.07,-126.01 360.77,-126.52"/>
<polygon fill="#ffffff" stroke="#ffffff" points="194.77,-341.8 197.76,-351.96 201.76,-342.15 194.77,-341.8"/>
</g>
</g>
</svg>
