<?xml version="1.0" encoding="UTF-8" standalone="no"?>
<!DOCTYPE svg PUBLIC "-//W3C//DTD SVG 1.1//EN"
 "http://www.w3.org/Graphics/SVG/1.1/DTD/svg11.dtd">
<!-- Generated by graphviz version 2.46.1 (0)
 -->
<!-- Title: Divided Differences Pages: 1 -->
<svg width="441pt" height="192pt"
 viewBox="0.00 0.00 441.00 192.00" xmlns="http://www.w3.org/2000/svg" xmlns:xlink="http://www.w3.org/1999/xlink">
<g id="graph0" class="graph" transform="scale(1 1) rotate(0) translate(4 188)">
<title>Divided Differences</title>
<polygon fill="#132020" stroke="transparent" points="-4,4 -4,-188 437,-188 437,4 -4,4"/>
<!-- Divided Differences -->
<g id="node1" class="node">
<title>Divided Differences</title>
<g id="a_node1"><a xlink:href="/Knowledge/divided_differences.html" xlink:title="Divided Differences" target="_parent">
<path fill="#273434" stroke="#b75867" d="M101,-110C101,-110 12,-110 12,-110 6,-110 0,-104 0,-98 0,-98 0,-86 0,-86 0,-80 6,-74 12,-74 12,-74 101,-74 101,-74 107,-74 113,-80 113,-86 113,-86 113,-98 113,-98 113,-104 107,-110 101,-110"/>
<text text-anchor="middle" x="56.5" y="-88.9" font-family="sans" font-size="12.00" fill="#c4c7c7">Divided Differences</text>
</a>
</g>
</g>
<!-- Recurrent Equations -->
<g id="node2" class="node">
<title>Recurrent Equations</title>
<g id="a_node2"><a xlink:href="/Knowledge/recurrent_equations.html" xlink:title="Recurrent Equations" target="_parent">
<path fill="#273434" stroke="#b75867" d="M228,-110C228,-110 133,-110 133,-110 127,-110 121,-104 121,-98 121,-98 121,-86 121,-86 121,-80 127,-74 133,-74 133,-74 228,-74 228,-74 234,-74 240,-80 240,-86 240,-86 240,-98 240,-98 240,-104 234,-110 228,-110"/>
<text text-anchor="middle" x="180.5" y="-88.9" font-family="sans" font-size="12.00" fill="#c4c7c7">Recurrent Equations</text>
</a>
</g>
</g>
<!-- Divided Differences&#45;&gt;Recurrent Equations -->
<g id="edge1" class="edge">
<title>Divided Differences&#45;&gt;Recurrent Equations</title>
<path fill="none" stroke="#b75867" d="M113.14,-92C113.3,-92 113.46,-92 113.62,-92"/>
<polygon fill="#b75867" stroke="#b75867" points="110.71,-95.5 120.71,-92 110.71,-88.5 110.71,-95.5"/>
</g>
<!-- Recurrent Equations&#45;&gt;Divided Differences -->
<g id="edge6" class="edge">
<title>Recurrent Equations&#45;&gt;Divided Differences</title>
<path fill="none" stroke="#ffffff" d="M113.62,-92.75C113.46,-92.75 113.3,-92.75 113.14,-92.75"/>
<polygon fill="#ffffff" stroke="#ffffff" points="110.7,-96.25 120.71,-92.75 110.71,-89.25 110.7,-96.25"/>
</g>
<!-- Set -->
<g id="node3" class="node">
<title>Set</title>
<g id="a_node3"><a xlink:href="/Knowledge/set.html" xlink:title="Set" target="_parent">
<path fill="#273434" stroke="#b75867" d="M355.5,-184C355.5,-184 325.5,-184 325.5,-184 319.5,-184 313.5,-178 313.5,-172 313.5,-172 313.5,-160 313.5,-160 313.5,-154 319.5,-148 325.5,-148 325.5,-148 355.5,-148 355.5,-148 361.5,-148 367.5,-154 367.5,-160 367.5,-160 367.5,-172 367.5,-172 367.5,-178 361.5,-184 355.5,-184"/>
<text text-anchor="middle" x="340.5" y="-162.9" font-family="sans" font-size="12.00" fill="#c4c7c7">Set</text>
</a>
</g>
</g>
<!-- Recurrent Equations&#45;&gt;Set -->
<g id="edge2" class="edge">
<title>Recurrent Equations&#45;&gt;Set</title>
<path fill="none" stroke="#b75867" d="M200.08,-110.1C212.66,-121.41 230.18,-135.4 248,-144 265.18,-152.29 285.72,-157.6 302.99,-160.92"/>
<polygon fill="#b75867" stroke="#b75867" points="302.8,-164.44 313.25,-162.73 304.02,-157.54 302.8,-164.44"/>
</g>
<!-- Multiset -->
<g id="node4" class="node">
<title>Multiset</title>
<g id="a_node4"><a xlink:href="/Knowledge/multiset.html" xlink:title="Multiset" target="_parent">
<path fill="#273434" stroke="#b75867" d="M357,-147C357,-147 324,-147 324,-147 318,-147 312,-141 312,-135 312,-135 312,-123 312,-123 312,-117 318,-111 324,-111 324,-111 357,-111 357,-111 363,-111 369,-117 369,-123 369,-123 369,-135 369,-135 369,-141 363,-147 357,-147"/>
<text text-anchor="middle" x="340.5" y="-125.9" font-family="sans" font-size="12.00" fill="#c4c7c7">Multiset</text>
</a>
</g>
</g>
<!-- Recurrent Equations&#45;&gt;Multiset -->
<g id="edge3" class="edge">
<title>Recurrent Equations&#45;&gt;Multiset</title>
<path fill="none" stroke="#b75867" d="M240.33,-105.78C260.91,-110.6 283.45,-115.87 301.83,-120.18"/>
<polygon fill="#b75867" stroke="#b75867" points="301.04,-123.59 311.58,-122.46 302.64,-116.77 301.04,-123.59"/>
</g>
<!-- Fundamental Theorem of Algebra -->
<g id="node5" class="node">
<title>Fundamental Theorem of Algebra</title>
<g id="a_node5"><a xlink:href="/Knowledge/fundamental_theorem_of_algebra.html" xlink:title="Fundamental Theorem of Algebra" target="_parent">
<path fill="#273434" stroke="#b75867" d="M421,-110C421,-110 260,-110 260,-110 254,-110 248,-104 248,-98 248,-98 248,-86 248,-86 248,-80 254,-74 260,-74 260,-74 421,-74 421,-74 427,-74 433,-80 433,-86 433,-86 433,-98 433,-98 433,-104 427,-110 421,-110"/>
<text text-anchor="middle" x="340.5" y="-88.9" font-family="sans" font-size="12.00" fill="#c4c7c7">Fundamental Theorem of Algebra</text>
</a>
</g>
</g>
<!-- Recurrent Equations&#45;&gt;Fundamental Theorem of Algebra -->
<g id="edge4" class="edge">
<title>Recurrent Equations&#45;&gt;Fundamental Theorem of Algebra</title>
<path fill="none" stroke="#b75867" d="M240.33,-92C240.49,-92 240.64,-92 240.79,-92"/>
<polygon fill="#b75867" stroke="#b75867" points="237.78,-95.5 247.78,-92 237.78,-88.5 237.78,-95.5"/>
</g>
<!-- Discrete Structures -->
<g id="node6" class="node">
<title>Discrete Structures</title>
<g id="a_node6"><a xlink:href="/Knowledge/discrete_structures.html" xlink:title="Discrete Structures" target="_parent">
<path fill="none" stroke="#b75867" d="M384,-73C384,-73 297,-73 297,-73 291,-73 285,-67 285,-61 285,-61 285,-49 285,-49 285,-43 291,-37 297,-37 297,-37 384,-37 384,-37 390,-37 396,-43 396,-49 396,-49 396,-61 396,-61 396,-67 390,-73 384,-73"/>
<text text-anchor="middle" x="340.5" y="-51.9" font-family="sans" font-size="12.00" fill="#c4c7c7">Discrete Structures</text>
</a>
</g>
</g>
<!-- Recurrent Equations&#45;&gt;Discrete Structures -->
<g id="edge5" class="edge">
<title>Recurrent Equations&#45;&gt;Discrete Structures</title>
<path fill="none" stroke="#ffffff" d="M250.36,-75.87C261.88,-73.18 273.7,-70.41 284.8,-67.81"/>
<polygon fill="#ffffff" stroke="#ffffff" points="249.27,-72.53 240.33,-78.22 250.87,-79.35 249.27,-72.53"/>
</g>
<!-- Chebyshev Polynomial -->
<g id="node7" class="node">
<title>Chebyshev Polynomial</title>
<g id="a_node7"><a xlink:href="/Knowledge/chebyshev_polynomial.html" xlink:title="Chebyshev Polynomial" target="_parent">
<path fill="none" stroke="#b75867" d="M394,-36C394,-36 287,-36 287,-36 281,-36 275,-30 275,-24 275,-24 275,-12 275,-12 275,-6 281,0 287,0 287,0 394,0 394,0 400,0 406,-6 406,-12 406,-12 406,-24 406,-24 406,-30 400,-36 394,-36"/>
<text text-anchor="middle" x="340.5" y="-14.9" font-family="sans" font-size="12.00" fill="#c4c7c7">Chebyshev Polynomial</text>
</a>
</g>
</g>
<!-- Recurrent Equations&#45;&gt;Chebyshev Polynomial -->
<g id="edge7" class="edge">
<title>Recurrent Equations&#45;&gt;Chebyshev Polynomial</title>
<path fill="none" stroke="#ffffff" d="M207.65,-67.31C219.24,-57.54 233.52,-46.99 248,-40 256.39,-35.95 265.57,-32.61 274.79,-29.87"/>
<polygon fill="#ffffff" stroke="#ffffff" points="205.33,-64.69 200.08,-73.9 209.92,-69.97 205.33,-64.69"/>
</g>
</g>
</svg>
