<?xml version="1.0" encoding="UTF-8" standalone="no"?>
<!DOCTYPE svg PUBLIC "-//W3C//DTD SVG 1.1//EN"
 "http://www.w3.org/Graphics/SVG/1.1/DTD/svg11.dtd">
<!-- Generated by graphviz version 2.46.1 (0)
 -->
<!-- Title: Evaluating Interpolation Error Pages: 1 -->
<svg width="726pt" height="155pt"
 viewBox="0.00 0.00 726.00 155.00" xmlns="http://www.w3.org/2000/svg" xmlns:xlink="http://www.w3.org/1999/xlink">
<g id="graph0" class="graph" transform="scale(1 1) rotate(0) translate(4 151)">
<title>Evaluating Interpolation Error</title>
<polygon fill="#132020" stroke="transparent" points="-4,4 -4,-151 722,-151 722,4 -4,4"/>
<!-- Evaluating Interpolation Error -->
<g id="node1" class="node">
<title>Evaluating Interpolation Error</title>
<g id="a_node1"><a xlink:href="/Knowledge/evaluating_interpolation_error.html" xlink:title="Evaluating Interpolation Error" target="_parent">
<path fill="#273434" stroke="#b75867" d="M154,-73C154,-73 12,-73 12,-73 6,-73 0,-67 0,-61 0,-61 0,-49 0,-49 0,-43 6,-37 12,-37 12,-37 154,-37 154,-37 160,-37 166,-43 166,-49 166,-49 166,-61 166,-61 166,-67 160,-73 154,-73"/>
<text text-anchor="middle" x="83" y="-51.9" font-family="sans" font-size="12.00" fill="#c4c7c7">Evaluating Interpolation Error</text>
</a>
</g>
</g>
<!-- Lagrange Interpolation -->
<g id="node2" class="node">
<title>Lagrange Interpolation</title>
<g id="a_node2"><a xlink:href="/Knowledge/lagrange_interpolation.html" xlink:title="Lagrange Interpolation" target="_parent">
<path fill="#273434" stroke="#b75867" d="M383,-110C383,-110 275,-110 275,-110 269,-110 263,-104 263,-98 263,-98 263,-86 263,-86 263,-80 269,-74 275,-74 275,-74 383,-74 383,-74 389,-74 395,-80 395,-86 395,-86 395,-98 395,-98 395,-104 389,-110 383,-110"/>
<text text-anchor="middle" x="329" y="-88.9" font-family="sans" font-size="12.00" fill="#c4c7c7">Lagrange Interpolation</text>
</a>
</g>
</g>
<!-- Evaluating Interpolation Error&#45;&gt;Lagrange Interpolation -->
<g id="edge1" class="edge">
<title>Evaluating Interpolation Error&#45;&gt;Lagrange Interpolation</title>
<path fill="none" stroke="#b75867" d="M166.39,-68.81C168.95,-69.21 171.5,-69.61 174,-70 199.57,-73.96 227.57,-78.03 252.6,-81.59"/>
<polygon fill="#b75867" stroke="#b75867" points="252.37,-85.09 262.76,-83.02 253.35,-78.16 252.37,-85.09"/>
</g>
<!-- Rolle Theorem -->
<g id="node3" class="node">
<title>Rolle Theorem</title>
<g id="a_node3"><a xlink:href="/Knowledge/rolle_theorem.html" xlink:title="Rolle Theorem" target="_parent">
<path fill="#273434" stroke="#b75867" d="M362,-73C362,-73 296,-73 296,-73 290,-73 284,-67 284,-61 284,-61 284,-49 284,-49 284,-43 290,-37 296,-37 296,-37 362,-37 362,-37 368,-37 374,-43 374,-49 374,-49 374,-61 374,-61 374,-67 368,-73 362,-73"/>
<text text-anchor="middle" x="329" y="-51.9" font-family="sans" font-size="12.00" fill="#c4c7c7">Rolle Theorem</text>
</a>
</g>
</g>
<!-- Evaluating Interpolation Error&#45;&gt;Rolle Theorem -->
<g id="edge2" class="edge">
<title>Evaluating Interpolation Error&#45;&gt;Rolle Theorem</title>
<path fill="none" stroke="#b75867" d="M166.27,-55C201.57,-55 241.85,-55 273.38,-55"/>
<polygon fill="#b75867" stroke="#b75867" points="273.72,-58.5 283.72,-55 273.72,-51.5 273.72,-58.5"/>
</g>
<!-- Fundamental extremal property of Chebyshev polynomials -->
<g id="node4" class="node">
<title>Fundamental extremal property of Chebyshev polynomials</title>
<g id="a_node4"><a xlink:href="/Knowledge/fundamental_extremal_property_of_chebyshev_polynomials.html" xlink:title="Fundamental extremal property of Chebyshev polynomials" target="_parent">
<path fill="none" stroke="#b75867" d="M472,-36C472,-36 186,-36 186,-36 180,-36 174,-30 174,-24 174,-24 174,-12 174,-12 174,-6 180,0 186,0 186,0 472,0 472,0 478,0 484,-6 484,-12 484,-12 484,-24 484,-24 484,-30 478,-36 472,-36"/>
<text text-anchor="middle" x="329" y="-14.9" font-family="sans" font-size="12.00" fill="#c4c7c7">Fundamental extremal property of Chebyshev polynomials</text>
</a>
</g>
</g>
<!-- Evaluating Interpolation Error&#45;&gt;Fundamental extremal property of Chebyshev polynomials -->
<g id="edge3" class="edge">
<title>Evaluating Interpolation Error&#45;&gt;Fundamental extremal property of Chebyshev polynomials</title>
<path fill="none" stroke="#ffffff" d="M176.32,-39.65C186.54,-38.07 193.36,-37.04 200.23,-36.02"/>
<polygon fill="#ffffff" stroke="#ffffff" points="175.73,-36.2 166.39,-41.19 176.8,-43.12 175.73,-36.2"/>
</g>
<!-- Lagrange Interpolation&#45;&gt;Evaluating Interpolation Error -->
<g id="edge7" class="edge">
<title>Lagrange Interpolation&#45;&gt;Evaluating Interpolation Error</title>
<path fill="none" stroke="#ffffff" d="M252.6,-82.53C227.57,-79.03 199.57,-74.96 174,-71 171.5,-70.61 168.95,-70.21 166.39,-69.81"/>
<polygon fill="#ffffff" stroke="#ffffff" points="252.37,-86.03 262.76,-83.94 253.34,-79.1 252.37,-86.03"/>
</g>
<!-- Lagrange Interpolation Problem -->
<g id="node5" class="node">
<title>Lagrange Interpolation Problem</title>
<g id="a_node5"><a xlink:href="/Knowledge/lagrange_interpolation_problem.html" xlink:title="Lagrange Interpolation Problem" target="_parent">
<path fill="#273434" stroke="#b75867" d="M681.5,-147C681.5,-147 528.5,-147 528.5,-147 522.5,-147 516.5,-141 516.5,-135 516.5,-135 516.5,-123 516.5,-123 516.5,-117 522.5,-111 528.5,-111 528.5,-111 681.5,-111 681.5,-111 687.5,-111 693.5,-117 693.5,-123 693.5,-123 693.5,-135 693.5,-135 693.5,-141 687.5,-147 681.5,-147"/>
<text text-anchor="middle" x="605" y="-125.9" font-family="sans" font-size="12.00" fill="#c4c7c7">Lagrange Interpolation Problem</text>
</a>
</g>
</g>
<!-- Lagrange Interpolation&#45;&gt;Lagrange Interpolation Problem -->
<g id="edge4" class="edge">
<title>Lagrange Interpolation&#45;&gt;Lagrange Interpolation Problem</title>
<path fill="none" stroke="#b75867" d="M395.28,-100.82C428.41,-105.29 469.34,-110.82 506.15,-115.79"/>
<polygon fill="#b75867" stroke="#b75867" points="506.04,-119.3 516.42,-117.17 506.97,-112.37 506.04,-119.3"/>
</g>
<!-- Numeric Methods -->
<g id="node6" class="node">
<title>Numeric Methods</title>
<g id="a_node6"><a xlink:href="/Knowledge/numeric_methods.html" xlink:title="Numeric Methods" target="_parent">
<path fill="none" stroke="#b75867" d="M646,-110C646,-110 564,-110 564,-110 558,-110 552,-104 552,-98 552,-98 552,-86 552,-86 552,-80 558,-74 564,-74 564,-74 646,-74 646,-74 652,-74 658,-80 658,-86 658,-86 658,-98 658,-98 658,-104 652,-110 646,-110"/>
<text text-anchor="middle" x="605" y="-88.9" font-family="sans" font-size="12.00" fill="#c4c7c7">Numeric Methods</text>
</a>
</g>
</g>
<!-- Lagrange Interpolation&#45;&gt;Numeric Methods -->
<g id="edge5" class="edge">
<title>Lagrange Interpolation&#45;&gt;Numeric Methods</title>
<path fill="none" stroke="#ffffff" d="M405.3,-92C451.75,-92 510.15,-92 551.59,-92"/>
<polygon fill="#ffffff" stroke="#ffffff" points="405.28,-88.5 395.28,-92 405.28,-95.5 405.28,-88.5"/>
</g>
<!-- Extrapolation -->
<g id="node7" class="node">
<title>Extrapolation</title>
<g id="a_node7"><a xlink:href="/Knowledge/extrapolation.html" xlink:title="Extrapolation" target="_parent">
<path fill="none" stroke="#b75867" d="M635,-73C635,-73 575,-73 575,-73 569,-73 563,-67 563,-61 563,-61 563,-49 563,-49 563,-43 569,-37 575,-37 575,-37 635,-37 635,-37 641,-37 647,-43 647,-49 647,-49 647,-61 647,-61 647,-67 641,-73 635,-73"/>
<text text-anchor="middle" x="605" y="-51.9" font-family="sans" font-size="12.00" fill="#c4c7c7">Extrapolation</text>
</a>
</g>
</g>
<!-- Lagrange Interpolation&#45;&gt;Extrapolation -->
<g id="edge6" class="edge">
<title>Lagrange Interpolation&#45;&gt;Extrapolation</title>
<path fill="none" stroke="#ffffff" d="M405.23,-81.84C455.98,-74.99 521.03,-66.2 562.62,-60.59"/>
<polygon fill="#ffffff" stroke="#ffffff" points="404.72,-78.38 395.28,-83.18 405.66,-85.31 404.72,-78.38"/>
</g>
<!-- Rolle Theorem&#45;&gt;Evaluating Interpolation Error -->
<g id="edge8" class="edge">
<title>Rolle Theorem&#45;&gt;Evaluating Interpolation Error</title>
<path fill="none" stroke="#ffffff" d="M273.38,-55.64C241.85,-55.76 201.57,-55.78 166.27,-55.71"/>
<polygon fill="#ffffff" stroke="#ffffff" points="273.74,-59.14 283.72,-55.59 273.71,-52.14 273.74,-59.14"/>
</g>
<!-- Fundamental extremal property of Chebyshev polynomials&#45;&gt;Evaluating Interpolation Error -->
<g id="edge9" class="edge">
<title>Fundamental extremal property of Chebyshev polynomials&#45;&gt;Evaluating Interpolation Error</title>
<path fill="none" stroke="#b75867" d="M206.91,-36.02C197.95,-37.35 189.01,-38.7 176.33,-40.65"/>
<polygon fill="#b75867" stroke="#b75867" points="175.73,-37.2 166.39,-42.19 176.8,-44.12 175.73,-37.2"/>
</g>
<!-- Extreme points of Chebyshev polynomials -->
<g id="node8" class="node">
<title>Extreme points of Chebyshev polynomials</title>
<g id="a_node8"><a xlink:href="/Knowledge/extreme_points_of_chebyshev_polynomials.html" xlink:title="Extreme points of Chebyshev polynomials" target="_parent">
<path fill="#273434" stroke="#b75867" d="M706,-36C706,-36 504,-36 504,-36 498,-36 492,-30 492,-24 492,-24 492,-12 492,-12 492,-6 498,0 504,0 504,0 706,0 706,0 712,0 718,-6 718,-12 718,-12 718,-24 718,-24 718,-30 712,-36 706,-36"/>
<text text-anchor="middle" x="605" y="-14.9" font-family="sans" font-size="12.00" fill="#c4c7c7">Extreme points of Chebyshev polynomials</text>
</a>
</g>
</g>
<!-- Fundamental extremal property of Chebyshev polynomials&#45;&gt;Extreme points of Chebyshev polynomials -->
<g id="edge10" class="edge">
<title>Fundamental extremal property of Chebyshev polynomials&#45;&gt;Extreme points of Chebyshev polynomials</title>
<path fill="none" stroke="#b75867" d="M484.22,-18C484.38,-18 484.54,-18 484.7,-18"/>
<polygon fill="#b75867" stroke="#b75867" points="481.86,-21.5 491.86,-18 481.86,-14.5 481.86,-21.5"/>
</g>
</g>
</svg>
