<?xml version="1.0" encoding="UTF-8" standalone="no"?>
<!DOCTYPE svg PUBLIC "-//W3C//DTD SVG 1.1//EN"
 "http://www.w3.org/Graphics/SVG/1.1/DTD/svg11.dtd">
<!-- Generated by graphviz version 2.46.1 (0)
 -->
<!-- Title: Extreme points of Chebyshev polynomials Pages: 1 -->
<svg width="726pt" height="81pt"
 viewBox="0.00 0.00 726.00 81.00" xmlns="http://www.w3.org/2000/svg" xmlns:xlink="http://www.w3.org/1999/xlink">
<g id="graph0" class="graph" transform="scale(1 1) rotate(0) translate(4 77)">
<title>Extreme points of Chebyshev polynomials</title>
<polygon fill="#132020" stroke="transparent" points="-4,4 -4,-77 722,-77 722,4 -4,4"/>
<!-- Extreme points of Chebyshev polynomials -->
<g id="node1" class="node">
<title>Extreme points of Chebyshev polynomials</title>
<g id="a_node1"><a xlink:href="/Knowledge/extreme_points_of_chebyshev_polynomials.html" xlink:title="Extreme points of Chebyshev polynomials" target="_parent">
<path fill="#273434" stroke="#b75867" d="M214,-54C214,-54 12,-54 12,-54 6,-54 0,-48 0,-42 0,-42 0,-30 0,-30 0,-24 6,-18 12,-18 12,-18 214,-18 214,-18 220,-18 226,-24 226,-30 226,-30 226,-42 226,-42 226,-48 220,-54 214,-54"/>
<text text-anchor="middle" x="113" y="-32.9" font-family="sans" font-size="12.00" fill="#c4c7c7">Extreme points of Chebyshev polynomials</text>
</a>
</g>
</g>
<!-- Chebyshev Polynomial -->
<g id="node2" class="node">
<title>Chebyshev Polynomial</title>
<g id="a_node2"><a xlink:href="/Knowledge/chebyshev_polynomial.html" xlink:title="Chebyshev Polynomial" target="_parent">
<path fill="#273434" stroke="#b75867" d="M442.5,-73C442.5,-73 335.5,-73 335.5,-73 329.5,-73 323.5,-67 323.5,-61 323.5,-61 323.5,-49 323.5,-49 323.5,-43 329.5,-37 335.5,-37 335.5,-37 442.5,-37 442.5,-37 448.5,-37 454.5,-43 454.5,-49 454.5,-49 454.5,-61 454.5,-61 454.5,-67 448.5,-73 442.5,-73"/>
<text text-anchor="middle" x="389" y="-51.9" font-family="sans" font-size="12.00" fill="#c4c7c7">Chebyshev Polynomial</text>
</a>
</g>
</g>
<!-- Extreme points of Chebyshev polynomials&#45;&gt;Chebyshev Polynomial -->
<g id="edge1" class="edge">
<title>Extreme points of Chebyshev polynomials&#45;&gt;Chebyshev Polynomial</title>
<path fill="none" stroke="#b75867" d="M226.24,-43.78C255.59,-45.82 286.52,-47.96 313.37,-49.83"/>
<polygon fill="#b75867" stroke="#b75867" points="313.24,-53.32 323.46,-50.52 313.72,-46.34 313.24,-53.32"/>
</g>
<!-- Fundamental extremal property of Chebyshev polynomials -->
<g id="node3" class="node">
<title>Fundamental extremal property of Chebyshev polynomials</title>
<g id="a_node3"><a xlink:href="/Knowledge/fundamental_extremal_property_of_chebyshev_polynomials.html" xlink:title="Fundamental extremal property of Chebyshev polynomials" target="_parent">
<path fill="none" stroke="#b75867" d="M532,-36C532,-36 246,-36 246,-36 240,-36 234,-30 234,-24 234,-24 234,-12 234,-12 234,-6 240,0 246,0 246,0 532,0 532,0 538,0 544,-6 544,-12 544,-12 544,-24 544,-24 544,-30 538,-36 532,-36"/>
<text text-anchor="middle" x="389" y="-14.9" font-family="sans" font-size="12.00" fill="#c4c7c7">Fundamental extremal property of Chebyshev polynomials</text>
</a>
</g>
</g>
<!-- Extreme points of Chebyshev polynomials&#45;&gt;Fundamental extremal property of Chebyshev polynomials -->
<g id="edge2" class="edge">
<title>Extreme points of Chebyshev polynomials&#45;&gt;Fundamental extremal property of Chebyshev polynomials</title>
<path fill="none" stroke="#ffffff" d="M233.33,-28.16C233.49,-28.15 233.65,-28.14 233.81,-28.13"/>
<polygon fill="#ffffff" stroke="#ffffff" points="235.99,-24.48 226.24,-28.63 236.44,-31.46 235.99,-24.48"/>
</g>
<!-- Chebyshev Polynomial&#45;&gt;Extreme points of Chebyshev polynomials -->
<g id="edge4" class="edge">
<title>Chebyshev Polynomial&#45;&gt;Extreme points of Chebyshev polynomials</title>
<path fill="none" stroke="#ffffff" d="M313.37,-50.5C286.52,-48.71 255.59,-46.58 226.24,-44.52"/>
<polygon fill="#ffffff" stroke="#ffffff" points="313.25,-54 323.46,-51.17 313.71,-47.02 313.25,-54"/>
</g>
<!-- Recurrent Equations -->
<g id="node4" class="node">
<title>Recurrent Equations</title>
<g id="a_node4"><a xlink:href="/Knowledge/recurrent_equations.html" xlink:title="Recurrent Equations" target="_parent">
<path fill="#273434" stroke="#b75867" d="M682.5,-73C682.5,-73 587.5,-73 587.5,-73 581.5,-73 575.5,-67 575.5,-61 575.5,-61 575.5,-49 575.5,-49 575.5,-43 581.5,-37 587.5,-37 587.5,-37 682.5,-37 682.5,-37 688.5,-37 694.5,-43 694.5,-49 694.5,-49 694.5,-61 694.5,-61 694.5,-67 688.5,-73 682.5,-73"/>
<text text-anchor="middle" x="635" y="-51.9" font-family="sans" font-size="12.00" fill="#c4c7c7">Recurrent Equations</text>
</a>
</g>
</g>
<!-- Chebyshev Polynomial&#45;&gt;Recurrent Equations -->
<g id="edge3" class="edge">
<title>Chebyshev Polynomial&#45;&gt;Recurrent Equations</title>
<path fill="none" stroke="#b75867" d="M454.75,-55C488.8,-55 530.55,-55 565.18,-55"/>
<polygon fill="#b75867" stroke="#b75867" points="565.22,-58.5 575.22,-55 565.22,-51.5 565.22,-58.5"/>
</g>
<!-- Fundamental extremal property of Chebyshev polynomials&#45;&gt;Extreme points of Chebyshev polynomials -->
<g id="edge6" class="edge">
<title>Fundamental extremal property of Chebyshev polynomials&#45;&gt;Extreme points of Chebyshev polynomials</title>
<path fill="none" stroke="#b75867" d="M233.81,-28.87C233.65,-28.88 233.49,-28.89 233.33,-28.91"/>
<polygon fill="#b75867" stroke="#b75867" points="235.99,-25.23 226.24,-29.37 236.44,-32.21 235.99,-25.23"/>
</g>
<!-- Evaluating Interpolation Error -->
<g id="node5" class="node">
<title>Evaluating Interpolation Error</title>
<g id="a_node5"><a xlink:href="/Knowledge/evaluating_interpolation_error.html" xlink:title="Evaluating Interpolation Error" target="_parent">
<path fill="#273434" stroke="#b75867" d="M706,-36C706,-36 564,-36 564,-36 558,-36 552,-30 552,-24 552,-24 552,-12 552,-12 552,-6 558,0 564,0 564,0 706,0 706,0 712,0 718,-6 718,-12 718,-12 718,-24 718,-24 718,-30 712,-36 706,-36"/>
<text text-anchor="middle" x="635" y="-14.9" font-family="sans" font-size="12.00" fill="#c4c7c7">Evaluating Interpolation Error</text>
</a>
</g>
</g>
<!-- Fundamental extremal property of Chebyshev polynomials&#45;&gt;Evaluating Interpolation Error -->
<g id="edge5" class="edge">
<title>Fundamental extremal property of Chebyshev polynomials&#45;&gt;Evaluating Interpolation Error</title>
<path fill="none" stroke="#b75867" d="M544.18,-18C544.34,-18 544.5,-18 544.66,-18"/>
<polygon fill="#b75867" stroke="#b75867" points="541.8,-21.5 551.8,-18 541.8,-14.5 541.8,-21.5"/>
</g>
</g>
</svg>
