<?xml version="1.0" encoding="UTF-8" standalone="no"?>
<!DOCTYPE svg PUBLIC "-//W3C//DTD SVG 1.1//EN"
 "http://www.w3.org/Graphics/SVG/1.1/DTD/svg11.dtd">
<!-- Generated by graphviz version 2.44.0 (0)
 -->
<!-- Title: Extrapolation Pages: 1 -->
<svg width="463pt" height="118pt"
 viewBox="0.00 0.00 463.00 118.00" xmlns="http://www.w3.org/2000/svg" xmlns:xlink="http://www.w3.org/1999/xlink">
<g id="graph0" class="graph" transform="scale(1 1) rotate(0) translate(4 114)">
<title>Extrapolation</title>
<polygon fill="#132020" stroke="transparent" points="-4,4 -4,-114 459,-114 459,4 -4,4"/>
<!-- Extrapolation -->
<g id="node1" class="node">
<title>Extrapolation</title>
<g id="a_node1"><a xlink:href="../Extrapolation.html" xlink:title="Extrapolation" target="_parent">
<path fill="#273434" stroke="#b75867" d="M81,-73C81,-73 12,-73 12,-73 6,-73 0,-67 0,-61 0,-61 0,-49 0,-49 0,-43 6,-37 12,-37 12,-37 81,-37 81,-37 87,-37 93,-43 93,-49 93,-49 93,-61 93,-61 93,-67 87,-73 81,-73"/>
<text text-anchor="middle" x="46.5" y="-51.9" font-family="sans" font-size="12.00" fill="#c4c7c7">Extrapolation</text>
</a>
</g>
</g>
<!-- Lagrange Interpolation -->
<g id="node2" class="node">
<title>Lagrange Interpolation</title>
<g id="a_node2"><a xlink:href="../Lagrange Interpolation.html" xlink:title="Lagrange Interpolation" target="_parent">
<path fill="#273434" stroke="#b75867" d="M236,-73C236,-73 113,-73 113,-73 107,-73 101,-67 101,-61 101,-61 101,-49 101,-49 101,-43 107,-37 113,-37 113,-37 236,-37 236,-37 242,-37 248,-43 248,-49 248,-49 248,-61 248,-61 248,-67 242,-73 236,-73"/>
<text text-anchor="middle" x="174.5" y="-51.9" font-family="sans" font-size="12.00" fill="#c4c7c7">Lagrange Interpolation</text>
</a>
</g>
</g>
<!-- Extrapolation&#45;&gt;Lagrange Interpolation -->
<g id="edge1" class="edge">
<title>Extrapolation&#45;&gt;Lagrange Interpolation</title>
<path fill="none" stroke="#b75867" d="M93.35,-55C93.49,-55 93.64,-55 93.79,-55"/>
<polygon fill="#b75867" stroke="#b75867" points="90.61,-58.5 100.61,-55 90.61,-51.5 90.61,-58.5"/>
</g>
<!-- Lagrange Interpolation&#45;&gt;Extrapolation -->
<g id="edge5" class="edge">
<title>Lagrange Interpolation&#45;&gt;Extrapolation</title>
<path fill="none" stroke="#ffffff" d="M93.79,-55.73C93.64,-55.73 93.49,-55.73 93.35,-55.72"/>
<polygon fill="#ffffff" stroke="#ffffff" points="90.61,-59.22 100.61,-55.74 90.62,-52.22 90.61,-59.22"/>
</g>
<!-- Lagrange Interpolation Problem -->
<g id="node3" class="node">
<title>Lagrange Interpolation Problem</title>
<g id="a_node3"><a xlink:href="../Lagrange Interpolation Problem.html" xlink:title="Lagrange Interpolation Problem" target="_parent">
<path fill="#273434" stroke="#b75867" d="M443,-110C443,-110 268,-110 268,-110 262,-110 256,-104 256,-98 256,-98 256,-86 256,-86 256,-80 262,-74 268,-74 268,-74 443,-74 443,-74 449,-74 455,-80 455,-86 455,-86 455,-98 455,-98 455,-104 449,-110 443,-110"/>
<text text-anchor="middle" x="355.5" y="-88.9" font-family="sans" font-size="12.00" fill="#c4c7c7">Lagrange Interpolation Problem</text>
</a>
</g>
</g>
<!-- Lagrange Interpolation&#45;&gt;Lagrange Interpolation Problem -->
<g id="edge2" class="edge">
<title>Lagrange Interpolation&#45;&gt;Lagrange Interpolation Problem</title>
<path fill="none" stroke="#b75867" d="M248.05,-70C251.1,-70.63 254.18,-71.26 257.27,-71.9"/>
<polygon fill="#b75867" stroke="#b75867" points="256.66,-75.35 267.16,-73.95 258.08,-68.5 256.66,-75.35"/>
</g>
<!-- Evaluating Interpolation Error -->
<g id="node4" class="node">
<title>Evaluating Interpolation Error</title>
<g id="a_node4"><a xlink:href="../Evaluating Interpolation Error.html" xlink:title="Evaluating Interpolation Error" target="_parent">
<path fill="none" stroke="#b75867" d="M436,-73C436,-73 275,-73 275,-73 269,-73 263,-67 263,-61 263,-61 263,-49 263,-49 263,-43 269,-37 275,-37 275,-37 436,-37 436,-37 442,-37 448,-43 448,-49 448,-49 448,-61 448,-61 448,-67 442,-73 436,-73"/>
<text text-anchor="middle" x="355.5" y="-51.9" font-family="sans" font-size="12.00" fill="#c4c7c7">Evaluating Interpolation Error</text>
</a>
</g>
</g>
<!-- Lagrange Interpolation&#45;&gt;Evaluating Interpolation Error -->
<g id="edge3" class="edge">
<title>Lagrange Interpolation&#45;&gt;Evaluating Interpolation Error</title>
<path fill="none" stroke="#ffffff" d="M258.12,-55C259.66,-55 261.19,-55 262.73,-55"/>
<polygon fill="#ffffff" stroke="#ffffff" points="258.05,-51.5 248.05,-55 258.05,-58.5 258.05,-51.5"/>
</g>
<!-- Numeric Methods -->
<g id="node5" class="node">
<title>Numeric Methods</title>
<g id="a_node5"><a xlink:href="../Numeric Methods.html" xlink:title="Numeric Methods" target="_parent">
<path fill="none" stroke="#b75867" d="M401.5,-36C401.5,-36 309.5,-36 309.5,-36 303.5,-36 297.5,-30 297.5,-24 297.5,-24 297.5,-12 297.5,-12 297.5,-6 303.5,0 309.5,0 309.5,0 401.5,0 401.5,0 407.5,0 413.5,-6 413.5,-12 413.5,-12 413.5,-24 413.5,-24 413.5,-30 407.5,-36 401.5,-36"/>
<text text-anchor="middle" x="355.5" y="-14.9" font-family="sans" font-size="12.00" fill="#c4c7c7">Numeric Methods</text>
</a>
</g>
</g>
<!-- Lagrange Interpolation&#45;&gt;Numeric Methods -->
<g id="edge4" class="edge">
<title>Lagrange Interpolation&#45;&gt;Numeric Methods</title>
<path fill="none" stroke="#ffffff" d="M258.11,-37.92C271.34,-35.19 284.77,-32.41 297.24,-29.84"/>
<polygon fill="#ffffff" stroke="#ffffff" points="257.13,-34.55 248.05,-40 258.55,-41.41 257.13,-34.55"/>
</g>
</g>
</svg>
