<?xml version="1.0" encoding="UTF-8" standalone="no"?>
<!DOCTYPE svg PUBLIC "-//W3C//DTD SVG 1.1//EN"
 "http://www.w3.org/Graphics/SVG/1.1/DTD/svg11.dtd">
<!-- Generated by graphviz version 2.46.1 (0)
 -->
<!-- Title: Formula of Lagrange for Interpolation Pages: 1 -->
<svg width="947pt" height="192pt"
 viewBox="0.00 0.00 947.00 192.00" xmlns="http://www.w3.org/2000/svg" xmlns:xlink="http://www.w3.org/1999/xlink">
<g id="graph0" class="graph" transform="scale(1 1) rotate(0) translate(4 188)">
<title>Formula of Lagrange for Interpolation</title>
<polygon fill="#132020" stroke="transparent" points="-4,4 -4,-188 943,-188 943,4 -4,4"/>
<!-- Formula of Lagrange for Interpolation -->
<g id="node1" class="node">
<title>Formula of Lagrange for Interpolation</title>
<g id="a_node1"><a xlink:href="/Knowledge/formula_of_lagrange_for_interpolation.html" xlink:title="Formula of Lagrange for Interpolation" target="_parent">
<path fill="#273434" stroke="#b75867" d="M195,-91C195,-91 12,-91 12,-91 6,-91 0,-85 0,-79 0,-79 0,-67 0,-67 0,-61 6,-55 12,-55 12,-55 195,-55 195,-55 201,-55 207,-61 207,-67 207,-67 207,-79 207,-79 207,-85 201,-91 195,-91"/>
<text text-anchor="middle" x="103.5" y="-69.9" font-family="sans" font-size="12.00" fill="#c4c7c7">Formula of Lagrange for Interpolation</text>
</a>
</g>
</g>
<!-- Formula of Newton for Interpolation -->
<g id="node2" class="node">
<title>Formula of Newton for Interpolation</title>
<g id="a_node2"><a xlink:href="/Knowledge/formula_of_newton_for_interpolation.html" xlink:title="Formula of Newton for Interpolation" target="_parent">
<path fill="#273434" stroke="#b75867" d="M403,-111C403,-111 227,-111 227,-111 221,-111 215,-105 215,-99 215,-99 215,-87 215,-87 215,-81 221,-75 227,-75 227,-75 403,-75 403,-75 409,-75 415,-81 415,-87 415,-87 415,-99 415,-99 415,-105 409,-111 403,-111"/>
<text text-anchor="middle" x="315" y="-89.9" font-family="sans" font-size="12.00" fill="#c4c7c7">Formula of Newton for Interpolation</text>
</a>
</g>
</g>
<!-- Formula of Lagrange for Interpolation&#45;&gt;Formula of Newton for Interpolation -->
<g id="edge1" class="edge">
<title>Formula of Lagrange for Interpolation&#45;&gt;Formula of Newton for Interpolation</title>
<path fill="none" stroke="#b75867" d="M207.1,-82.79C207.26,-82.81 207.43,-82.83 207.59,-82.84"/>
<polygon fill="#b75867" stroke="#b75867" points="204.59,-86.07 214.88,-83.54 205.25,-79.1 204.59,-86.07"/>
</g>
<!-- Kronecker Delta -->
<g id="node3" class="node">
<title>Kronecker Delta</title>
<g id="a_node3"><a xlink:href="/Knowledge/kronecker_delta.html" xlink:title="Kronecker Delta" target="_parent">
<path fill="#273434" stroke="#b75867" d="M351.5,-71C351.5,-71 278.5,-71 278.5,-71 272.5,-71 266.5,-65 266.5,-59 266.5,-59 266.5,-47 266.5,-47 266.5,-41 272.5,-35 278.5,-35 278.5,-35 351.5,-35 351.5,-35 357.5,-35 363.5,-41 363.5,-47 363.5,-47 363.5,-59 363.5,-59 363.5,-65 357.5,-71 351.5,-71"/>
<text text-anchor="middle" x="315" y="-49.9" font-family="sans" font-size="12.00" fill="#c4c7c7">Kronecker Delta</text>
</a>
</g>
</g>
<!-- Formula of Lagrange for Interpolation&#45;&gt;Kronecker Delta -->
<g id="edge2" class="edge">
<title>Formula of Lagrange for Interpolation&#45;&gt;Kronecker Delta</title>
<path fill="none" stroke="#b75867" d="M207.1,-63.21C223.95,-61.6 240.87,-59.98 256.12,-58.53"/>
<polygon fill="#b75867" stroke="#b75867" points="256.77,-61.98 266.39,-57.54 256.1,-55.01 256.77,-61.98"/>
</g>
<!-- Lagrange Interpolation Problem -->
<g id="node4" class="node">
<title>Lagrange Interpolation Problem</title>
<g id="a_node4"><a xlink:href="/Knowledge/lagrange_interpolation_problem.html" xlink:title="Lagrange Interpolation Problem" target="_parent">
<path fill="none" stroke="#b75867" d="M588,-91C588,-91 435,-91 435,-91 429,-91 423,-85 423,-79 423,-79 423,-67 423,-67 423,-61 429,-55 435,-55 435,-55 588,-55 588,-55 594,-55 600,-61 600,-67 600,-67 600,-79 600,-79 600,-85 594,-91 588,-91"/>
<text text-anchor="middle" x="511.5" y="-69.9" font-family="sans" font-size="12.00" fill="#c4c7c7">Lagrange Interpolation Problem</text>
</a>
</g>
</g>
<!-- Formula of Lagrange for Interpolation&#45;&gt;Lagrange Interpolation Problem -->
<g id="edge3" class="edge">
<title>Formula of Lagrange for Interpolation&#45;&gt;Lagrange Interpolation Problem</title>
<path fill="none" stroke="#ffffff" d="M217.5,-73C282.47,-73 362.86,-73 422.99,-73"/>
<polygon fill="#ffffff" stroke="#ffffff" points="217.21,-69.5 207.21,-73 217.21,-76.5 217.21,-69.5"/>
</g>
<!-- Formula of Newton for Interpolation&#45;&gt;Formula of Lagrange for Interpolation -->
<g id="edge4" class="edge">
<title>Formula of Newton for Interpolation&#45;&gt;Formula of Lagrange for Interpolation</title>
<path fill="none" stroke="#ffffff" d="M207.59,-83.59C207.43,-83.58 207.26,-83.56 207.1,-83.54"/>
<polygon fill="#ffffff" stroke="#ffffff" points="204.59,-86.82 214.88,-84.29 205.25,-79.85 204.59,-86.82"/>
</g>
<!-- Kronecker Delta&#45;&gt;Formula of Lagrange for Interpolation -->
<g id="edge5" class="edge">
<title>Kronecker Delta&#45;&gt;Formula of Lagrange for Interpolation</title>
<path fill="none" stroke="#ffffff" d="M256.12,-59.2C240.87,-60.71 223.95,-62.35 207.1,-63.95"/>
<polygon fill="#ffffff" stroke="#ffffff" points="256.79,-62.66 266.39,-58.19 256.09,-55.69 256.79,-62.66"/>
</g>
<!-- Kronecker Delta&#45;&gt;Lagrange Interpolation Problem -->
<g id="edge8" class="edge">
<title>Kronecker Delta&#45;&gt;Lagrange Interpolation Problem</title>
<path fill="none" stroke="#ffffff" d="M373.94,-58.96C389.3,-60.54 406.23,-62.28 422.79,-63.98"/>
<polygon fill="#ffffff" stroke="#ffffff" points="373.89,-55.43 363.58,-57.89 373.17,-62.4 373.89,-55.43"/>
</g>
<!-- Fundamental polynomials of Lagrange -->
<g id="node5" class="node">
<title>Fundamental polynomials of Lagrange</title>
<g id="a_node5"><a xlink:href="/Knowledge/fundamental_polynomials_of_lagrange.html" xlink:title="Fundamental polynomials of Lagrange" target="_parent">
<path fill="none" stroke="#b75867" d="M866.5,-36C866.5,-36 680.5,-36 680.5,-36 674.5,-36 668.5,-30 668.5,-24 668.5,-24 668.5,-12 668.5,-12 668.5,-6 674.5,0 680.5,0 680.5,0 866.5,0 866.5,0 872.5,0 878.5,-6 878.5,-12 878.5,-12 878.5,-24 878.5,-24 878.5,-30 872.5,-36 866.5,-36"/>
<text text-anchor="middle" x="773.5" y="-14.9" font-family="sans" font-size="12.00" fill="#c4c7c7">Fundamental polynomials of Lagrange</text>
</a>
</g>
</g>
<!-- Kronecker Delta&#45;&gt;Fundamental polynomials of Lagrange -->
<g id="edge6" class="edge">
<title>Kronecker Delta&#45;&gt;Fundamental polynomials of Lagrange</title>
<path fill="none" stroke="#ffffff" d="M373.7,-54.28C450.72,-55.65 579.83,-56.56 600,-48 604.63,-46.03 603.49,-42.23 608,-40 626.47,-30.87 647.45,-25.12 668.11,-21.58"/>
<polygon fill="#ffffff" stroke="#ffffff" points="373.72,-50.78 363.66,-54.1 373.59,-57.78 373.72,-50.78"/>
</g>
<!-- Linear Algebra -->
<g id="node6" class="node">
<title>Linear Algebra</title>
<g id="a_node6"><a xlink:href="/Knowledge/linear_algebra.html" xlink:title="Linear Algebra" target="_parent">
<path fill="none" stroke="#b75867" d="M544,-51C544,-51 479,-51 479,-51 473,-51 467,-45 467,-39 467,-39 467,-27 467,-27 467,-21 473,-15 479,-15 479,-15 544,-15 544,-15 550,-15 556,-21 556,-27 556,-27 556,-39 556,-39 556,-45 550,-51 544,-51"/>
<text text-anchor="middle" x="511.5" y="-29.9" font-family="sans" font-size="12.00" fill="#c4c7c7">Linear Algebra</text>
</a>
</g>
</g>
<!-- Kronecker Delta&#45;&gt;Linear Algebra -->
<g id="edge7" class="edge">
<title>Kronecker Delta&#45;&gt;Linear Algebra</title>
<path fill="none" stroke="#ffffff" d="M373.84,-47.05C403.6,-43.99 439.29,-40.32 466.74,-37.5"/>
<polygon fill="#ffffff" stroke="#ffffff" points="373.17,-43.6 363.58,-48.11 373.89,-50.57 373.17,-43.6"/>
</g>
<!-- Lagrange Interpolation Problem&#45;&gt;Formula of Lagrange for Interpolation -->
<g id="edge10" class="edge">
<title>Lagrange Interpolation Problem&#45;&gt;Formula of Lagrange for Interpolation</title>
<path fill="none" stroke="#b75867" d="M422.99,-73.63C362.86,-73.77 282.47,-73.79 217.5,-73.68"/>
<polygon fill="#b75867" stroke="#b75867" points="217.22,-70.18 207.21,-73.66 217.21,-77.18 217.22,-70.18"/>
</g>
<!-- Lagrange Interpolation Problem&#45;&gt;Kronecker Delta -->
<g id="edge9" class="edge">
<title>Lagrange Interpolation Problem&#45;&gt;Kronecker Delta</title>
<path fill="none" stroke="#b75867" d="M422.79,-64.73C406.23,-63.04 389.3,-61.28 373.94,-59.65"/>
<polygon fill="#b75867" stroke="#b75867" points="373.89,-56.13 363.58,-58.55 373.15,-63.09 373.89,-56.13"/>
</g>
<!-- Lagrange Interpolation Problem&#45;&gt;Fundamental polynomials of Lagrange -->
<g id="edge11" class="edge">
<title>Lagrange Interpolation Problem&#45;&gt;Fundamental polynomials of Lagrange</title>
<path fill="none" stroke="#b75867" d="M593.54,-54.95C595.76,-53.72 597.92,-52.4 600,-51 605.01,-47.62 602.81,-43.09 608,-40 623.24,-30.91 640.68,-24.93 658.36,-21.07"/>
<polygon fill="#b75867" stroke="#b75867" points="659.06,-24.5 668.2,-19.15 657.71,-17.63 659.06,-24.5"/>
</g>
<!-- Fundamental Theorem of Algebra -->
<g id="node7" class="node">
<title>Fundamental Theorem of Algebra</title>
<g id="a_node7"><a xlink:href="/Knowledge/fundamental_theorem_of_algebra.html" xlink:title="Fundamental Theorem of Algebra" target="_parent">
<path fill="#273434" stroke="#b75867" d="M854,-147C854,-147 693,-147 693,-147 687,-147 681,-141 681,-135 681,-135 681,-123 681,-123 681,-117 687,-111 693,-111 693,-111 854,-111 854,-111 860,-111 866,-117 866,-123 866,-123 866,-135 866,-135 866,-141 860,-147 854,-147"/>
<text text-anchor="middle" x="773.5" y="-125.9" font-family="sans" font-size="12.00" fill="#c4c7c7">Fundamental Theorem of Algebra</text>
</a>
</g>
</g>
<!-- Lagrange Interpolation Problem&#45;&gt;Fundamental Theorem of Algebra -->
<g id="edge12" class="edge">
<title>Lagrange Interpolation Problem&#45;&gt;Fundamental Theorem of Algebra</title>
<path fill="none" stroke="#b75867" d="M557.09,-91.05C572.95,-96.89 591.07,-102.9 608,-107 628.1,-111.86 649.85,-115.73 670.75,-118.78"/>
<polygon fill="#b75867" stroke="#b75867" points="670.55,-122.28 680.94,-120.2 671.52,-115.35 670.55,-122.28"/>
</g>
<!-- Lagrange Interpolation -->
<g id="node8" class="node">
<title>Lagrange Interpolation</title>
<g id="a_node8"><a xlink:href="/Knowledge/lagrange_interpolation.html" xlink:title="Lagrange Interpolation" target="_parent">
<path fill="none" stroke="#b75867" d="M827.5,-110C827.5,-110 719.5,-110 719.5,-110 713.5,-110 707.5,-104 707.5,-98 707.5,-98 707.5,-86 707.5,-86 707.5,-80 713.5,-74 719.5,-74 719.5,-74 827.5,-74 827.5,-74 833.5,-74 839.5,-80 839.5,-86 839.5,-86 839.5,-98 839.5,-98 839.5,-104 833.5,-110 827.5,-110"/>
<text text-anchor="middle" x="773.5" y="-88.9" font-family="sans" font-size="12.00" fill="#c4c7c7">Lagrange Interpolation</text>
</a>
</g>
</g>
<!-- Lagrange Interpolation Problem&#45;&gt;Lagrange Interpolation -->
<g id="edge13" class="edge">
<title>Lagrange Interpolation Problem&#45;&gt;Lagrange Interpolation</title>
<path fill="none" stroke="#ffffff" d="M610.14,-80.14C642.63,-82.51 678,-85.09 707.4,-87.24"/>
<polygon fill="#ffffff" stroke="#ffffff" points="610.39,-76.64 600.16,-79.41 609.88,-83.63 610.39,-76.64"/>
</g>
<!-- Lagrange Interpolation Polynomial -->
<g id="node9" class="node">
<title>Lagrange Interpolation Polynomial</title>
<g id="a_node9"><a xlink:href="/Knowledge/lagrange_interpolation_polynomial.html" xlink:title="Lagrange Interpolation Polynomial" target="_parent">
<path fill="none" stroke="#b75867" d="M857,-73C857,-73 690,-73 690,-73 684,-73 678,-67 678,-61 678,-61 678,-49 678,-49 678,-43 684,-37 690,-37 690,-37 857,-37 857,-37 863,-37 869,-43 869,-49 869,-49 869,-61 869,-61 869,-67 863,-73 857,-73"/>
<text text-anchor="middle" x="773.5" y="-51.9" font-family="sans" font-size="12.00" fill="#c4c7c7">Lagrange Interpolation Polynomial</text>
</a>
</g>
</g>
<!-- Lagrange Interpolation Problem&#45;&gt;Lagrange Interpolation Polynomial -->
<g id="edge14" class="edge">
<title>Lagrange Interpolation Problem&#45;&gt;Lagrange Interpolation Polynomial</title>
<path fill="none" stroke="#ffffff" d="M610.2,-66.24C632.28,-64.71 655.68,-63.09 677.64,-61.57"/>
<polygon fill="#ffffff" stroke="#ffffff" points="609.9,-62.75 600.16,-66.93 610.38,-69.73 609.9,-62.75"/>
</g>
<!-- The Lagrange Interpolation Polynomial of a Polynomial is itself -->
<g id="node10" class="node">
<title>The Lagrange Interpolation Polynomial of a Polynomial is itself</title>
<g id="a_node10"><a xlink:href="/Knowledge/the_lagrange_interpolation_polynomial_of_a_polynomial_is_itself.html" xlink:title="The Lagrange Interpolation Polynomial of a Polynomial is itself" target="_parent">
<path fill="none" stroke="#b75867" d="M927,-184C927,-184 620,-184 620,-184 614,-184 608,-178 608,-172 608,-172 608,-160 608,-160 608,-154 614,-148 620,-148 620,-148 927,-148 927,-148 933,-148 939,-154 939,-160 939,-160 939,-172 939,-172 939,-178 933,-184 927,-184"/>
<text text-anchor="middle" x="773.5" y="-162.9" font-family="sans" font-size="12.00" fill="#c4c7c7">The Lagrange Interpolation Polynomial of a Polynomial is itself</text>
</a>
</g>
</g>
<!-- Lagrange Interpolation Problem&#45;&gt;The Lagrange Interpolation Polynomial of a Polynomial is itself -->
<g id="edge15" class="edge">
<title>Lagrange Interpolation Problem&#45;&gt;The Lagrange Interpolation Polynomial of a Polynomial is itself</title>
<path fill="none" stroke="#ffffff" d="M538.56,-98.15C556.59,-114 581.94,-133.41 608,-144 611.47,-145.41 615.01,-146.73 618.61,-147.98"/>
<polygon fill="#ffffff" stroke="#ffffff" points="540.59,-95.26 530.82,-91.16 535.9,-100.46 540.59,-95.26"/>
</g>
</g>
</svg>
