<?xml version="1.0" encoding="UTF-8" standalone="no"?>
<!DOCTYPE svg PUBLIC "-//W3C//DTD SVG 1.1//EN"
 "http://www.w3.org/Graphics/SVG/1.1/DTD/svg11.dtd">
<!-- Generated by graphviz version 2.46.1 (0)
 -->
<!-- Title: Formula of Newton for Interpolation Pages: 1 -->
<svg width="608pt" height="81pt"
 viewBox="0.00 0.00 608.00 81.00" xmlns="http://www.w3.org/2000/svg" xmlns:xlink="http://www.w3.org/1999/xlink">
<g id="graph0" class="graph" transform="scale(1 1) rotate(0) translate(4 77)">
<title>Formula of Newton for Interpolation</title>
<polygon fill="#132020" stroke="transparent" points="-4,4 -4,-77 604,-77 604,4 -4,4"/>
<!-- Formula of Newton for Interpolation -->
<g id="node1" class="node">
<title>Formula of Newton for Interpolation</title>
<g id="a_node1"><a xlink:href="/Knowledge/formula_of_newton_for_interpolation.html" xlink:title="Formula of Newton for Interpolation" target="_parent">
<path fill="#273434" stroke="#b75867" d="M188,-54C188,-54 12,-54 12,-54 6,-54 0,-48 0,-42 0,-42 0,-30 0,-30 0,-24 6,-18 12,-18 12,-18 188,-18 188,-18 194,-18 200,-24 200,-30 200,-30 200,-42 200,-42 200,-48 194,-54 188,-54"/>
<text text-anchor="middle" x="100" y="-32.9" font-family="sans" font-size="12.00" fill="#c4c7c7">Formula of Newton for Interpolation</text>
</a>
</g>
</g>
<!-- Formula of Lagrange for Interpolation -->
<g id="node2" class="node">
<title>Formula of Lagrange for Interpolation</title>
<g id="a_node2"><a xlink:href="/Knowledge/formula_of_lagrange_for_interpolation.html" xlink:title="Formula of Lagrange for Interpolation" target="_parent">
<path fill="none" stroke="#b75867" d="M403,-54C403,-54 220,-54 220,-54 214,-54 208,-48 208,-42 208,-42 208,-30 208,-30 208,-24 214,-18 220,-18 220,-18 403,-18 403,-18 409,-18 415,-24 415,-30 415,-30 415,-42 415,-42 415,-48 409,-54 403,-54"/>
<text text-anchor="middle" x="311.5" y="-32.9" font-family="sans" font-size="12.00" fill="#c4c7c7">Formula of Lagrange for Interpolation</text>
</a>
</g>
</g>
<!-- Formula of Newton for Interpolation&#45;&gt;Formula of Lagrange for Interpolation -->
<g id="edge1" class="edge">
<title>Formula of Newton for Interpolation&#45;&gt;Formula of Lagrange for Interpolation</title>
<path fill="none" stroke="#ffffff" d="M207.37,-36C207.53,-36 207.69,-36 207.85,-36"/>
<polygon fill="#ffffff" stroke="#ffffff" points="210.23,-32.5 200.23,-36 210.23,-39.5 210.23,-32.5"/>
</g>
<!-- Formula of Lagrange for Interpolation&#45;&gt;Formula of Newton for Interpolation -->
<g id="edge2" class="edge">
<title>Formula of Lagrange for Interpolation&#45;&gt;Formula of Newton for Interpolation</title>
<path fill="none" stroke="#b75867" d="M207.85,-36.75C207.69,-36.75 207.53,-36.75 207.37,-36.75"/>
<polygon fill="#b75867" stroke="#b75867" points="210.23,-33.25 200.23,-36.75 210.23,-40.25 210.23,-33.25"/>
</g>
<!-- Kronecker Delta -->
<g id="node3" class="node">
<title>Kronecker Delta</title>
<g id="a_node3"><a xlink:href="/Knowledge/kronecker_delta.html" xlink:title="Kronecker Delta" target="_parent">
<path fill="#273434" stroke="#b75867" d="M548,-73C548,-73 475,-73 475,-73 469,-73 463,-67 463,-61 463,-61 463,-49 463,-49 463,-43 469,-37 475,-37 475,-37 548,-37 548,-37 554,-37 560,-43 560,-49 560,-49 560,-61 560,-61 560,-67 554,-73 548,-73"/>
<text text-anchor="middle" x="511.5" y="-51.9" font-family="sans" font-size="12.00" fill="#c4c7c7">Kronecker Delta</text>
</a>
</g>
</g>
<!-- Formula of Lagrange for Interpolation&#45;&gt;Kronecker Delta -->
<g id="edge3" class="edge">
<title>Formula of Lagrange for Interpolation&#45;&gt;Kronecker Delta</title>
<path fill="none" stroke="#b75867" d="M415.27,-45.86C428.09,-47.09 440.82,-48.31 452.61,-49.44"/>
<polygon fill="#b75867" stroke="#b75867" points="452.42,-52.94 462.7,-50.41 453.08,-45.97 452.42,-52.94"/>
</g>
<!-- Lagrange Interpolation Problem -->
<g id="node4" class="node">
<title>Lagrange Interpolation Problem</title>
<g id="a_node4"><a xlink:href="/Knowledge/lagrange_interpolation_problem.html" xlink:title="Lagrange Interpolation Problem" target="_parent">
<path fill="none" stroke="#b75867" d="M588,-36C588,-36 435,-36 435,-36 429,-36 423,-30 423,-24 423,-24 423,-12 423,-12 423,-6 429,0 435,0 435,0 588,0 588,0 594,0 600,-6 600,-12 600,-12 600,-24 600,-24 600,-30 594,-36 588,-36"/>
<text text-anchor="middle" x="511.5" y="-14.9" font-family="sans" font-size="12.00" fill="#c4c7c7">Lagrange Interpolation Problem</text>
</a>
</g>
</g>
<!-- Formula of Lagrange for Interpolation&#45;&gt;Lagrange Interpolation Problem -->
<g id="edge4" class="edge">
<title>Formula of Lagrange for Interpolation&#45;&gt;Lagrange Interpolation Problem</title>
<path fill="none" stroke="#ffffff" d="M422.41,-26.01C422.56,-25.99 422.72,-25.98 422.88,-25.97"/>
<polygon fill="#ffffff" stroke="#ffffff" points="424.91,-22.27 415.27,-26.66 425.55,-29.24 424.91,-22.27"/>
</g>
</g>
</svg>
