<?xml version="1.0" encoding="UTF-8" standalone="no"?>
<!DOCTYPE svg PUBLIC "-//W3C//DTD SVG 1.1//EN"
 "http://www.w3.org/Graphics/SVG/1.1/DTD/svg11.dtd">
<!-- Generated by graphviz version 2.46.1 (0)
 -->
<!-- Title: Function Approximation Pages: 1 -->
<svg width="402pt" height="176pt"
 viewBox="0.00 0.00 402.00 176.00" xmlns="http://www.w3.org/2000/svg" xmlns:xlink="http://www.w3.org/1999/xlink">
<g id="graph0" class="graph" transform="scale(1 1) rotate(0) translate(4 172)">
<title>Function Approximation</title>
<polygon fill="#132020" stroke="transparent" points="-4,4 -4,-172 398,-172 398,4 -4,4"/>
<!-- Function Approximation -->
<g id="node1" class="node">
<title>Function Approximation</title>
<g id="a_node1"><a xlink:href="/Knowledge/function_approximation.html" xlink:title="Function Approximation" target="_parent">
<path fill="#273434" stroke="#b75867" d="M126,-128C126,-128 12,-128 12,-128 6,-128 0,-122 0,-116 0,-116 0,-104 0,-104 0,-98 6,-92 12,-92 12,-92 126,-92 126,-92 132,-92 138,-98 138,-104 138,-104 138,-116 138,-116 138,-122 132,-128 126,-128"/>
<text text-anchor="middle" x="69" y="-106.9" font-family="sans" font-size="12.00" fill="#c4c7c7">Function Approximation</text>
</a>
</g>
</g>
<!-- Metric Criteria -->
<g id="node2" class="node">
<title>Metric Criteria</title>
<g id="a_node2"><a xlink:href="/Knowledge/metric_criteria.html" xlink:title="Metric Criteria" target="_parent">
<path fill="#273434" stroke="#b75867" d="M232,-168C232,-168 168,-168 168,-168 162,-168 156,-162 156,-156 156,-156 156,-144 156,-144 156,-138 162,-132 168,-132 168,-132 232,-132 232,-132 238,-132 244,-138 244,-144 244,-144 244,-156 244,-156 244,-162 238,-168 232,-168"/>
<text text-anchor="middle" x="200" y="-146.9" font-family="sans" font-size="12.00" fill="#c4c7c7">Metric Criteria</text>
</a>
</g>
</g>
<!-- Function Approximation&#45;&gt;Metric Criteria -->
<g id="edge1" class="edge">
<title>Function Approximation&#45;&gt;Metric Criteria</title>
<path fill="none" stroke="#b75867" d="M128.08,-128.01C134.08,-129.87 140.16,-131.75 146.09,-133.59"/>
<polygon fill="#b75867" stroke="#b75867" points="145.33,-137.02 155.92,-136.64 147.4,-130.34 145.33,-137.02"/>
</g>
<!-- nil -->
<g id="node3" class="node">
<title>nil</title>
<g id="a_node3"><a xlink:href="/Knowledge/SplineGraph.html" xlink:title="nil" target="_parent">
<path fill="#273434" stroke="#b75867" d="M343,-130C343,-130 313,-130 313,-130 307,-130 301,-124 301,-118 301,-118 301,-106 301,-106 301,-100 307,-94 313,-94 313,-94 343,-94 343,-94 349,-94 355,-100 355,-106 355,-106 355,-118 355,-118 355,-124 349,-130 343,-130"/>
<text text-anchor="middle" x="328" y="-108.9" font-family="sans" font-size="12.00" fill="#c4c7c7">nil</text>
</a>
</g>
</g>
<!-- Function Approximation&#45;&gt;nil -->
<g id="edge2" class="edge">
<title>Function Approximation&#45;&gt;nil</title>
<path fill="none" stroke="#b75867" d="M138.27,-124.13C140.87,-124.46 143.46,-124.75 146,-125 193.77,-129.67 206.19,-129.22 254,-125 266.1,-123.93 279.2,-121.88 290.91,-119.72"/>
<polygon fill="#b75867" stroke="#b75867" points="291.64,-123.15 300.79,-117.82 290.31,-116.28 291.64,-123.15"/>
</g>
<!-- Simple Function -->
<g id="node4" class="node">
<title>Simple Function</title>
<g id="a_node4"><a xlink:href="/Knowledge/simple_function.html" xlink:title="Simple Function" target="_parent">
<path fill="#273434" stroke="#b75867" d="M237.5,-128C237.5,-128 162.5,-128 162.5,-128 156.5,-128 150.5,-122 150.5,-116 150.5,-116 150.5,-104 150.5,-104 150.5,-98 156.5,-92 162.5,-92 162.5,-92 237.5,-92 237.5,-92 243.5,-92 249.5,-98 249.5,-104 249.5,-104 249.5,-116 249.5,-116 249.5,-122 243.5,-128 237.5,-128"/>
<text text-anchor="middle" x="200" y="-106.9" font-family="sans" font-size="12.00" fill="#c4c7c7">Simple Function</text>
</a>
</g>
</g>
<!-- Function Approximation&#45;&gt;Simple Function -->
<g id="edge3" class="edge">
<title>Function Approximation&#45;&gt;Simple Function</title>
<path fill="none" stroke="#b75867" d="M138.28,-110C138.92,-110 139.56,-110 140.2,-110"/>
<polygon fill="#b75867" stroke="#b75867" points="140.48,-113.5 150.48,-110 140.48,-106.5 140.48,-113.5"/>
</g>
<!-- Complex Function -->
<g id="node5" class="node">
<title>Complex Function</title>
<g id="a_node5"><a xlink:href="/Knowledge/complex_function.html" xlink:title="Complex Function" target="_parent">
<path fill="#273434" stroke="#b75867" d="M242,-91C242,-91 158,-91 158,-91 152,-91 146,-85 146,-79 146,-79 146,-67 146,-67 146,-61 152,-55 158,-55 158,-55 242,-55 242,-55 248,-55 254,-61 254,-67 254,-67 254,-79 254,-79 254,-85 248,-91 242,-91"/>
<text text-anchor="middle" x="200" y="-69.9" font-family="sans" font-size="12.00" fill="#c4c7c7">Complex Function</text>
</a>
</g>
</g>
<!-- Function Approximation&#45;&gt;Complex Function -->
<g id="edge4" class="edge">
<title>Function Approximation&#45;&gt;Complex Function</title>
<path fill="none" stroke="#b75867" d="M132.99,-91.93C134.08,-91.62 135.16,-91.31 136.25,-91"/>
<polygon fill="#b75867" stroke="#b75867" points="137.34,-94.33 145.98,-88.21 135.41,-87.6 137.34,-94.33"/>
</g>
<!-- Numeric Methods -->
<g id="node6" class="node">
<title>Numeric Methods</title>
<g id="a_node6"><a xlink:href="/Knowledge/numeric_methods.html" xlink:title="Numeric Methods" target="_parent">
<path fill="none" stroke="#b75867" d="M241,-54C241,-54 159,-54 159,-54 153,-54 147,-48 147,-42 147,-42 147,-30 147,-30 147,-24 153,-18 159,-18 159,-18 241,-18 241,-18 247,-18 253,-24 253,-30 253,-30 253,-42 253,-42 253,-48 247,-54 241,-54"/>
<text text-anchor="middle" x="200" y="-32.9" font-family="sans" font-size="12.00" fill="#c4c7c7">Numeric Methods</text>
</a>
</g>
</g>
<!-- Function Approximation&#45;&gt;Numeric Methods -->
<g id="edge5" class="edge">
<title>Function Approximation&#45;&gt;Numeric Methods</title>
<path fill="none" stroke="#ffffff" d="M102.12,-85.85C115.32,-76.5 131.01,-66.13 146,-58 148.45,-56.67 151,-55.37 153.6,-54.1"/>
<polygon fill="#ffffff" stroke="#ffffff" points="99.91,-83.13 93.83,-91.81 103.99,-88.81 99.91,-83.13"/>
</g>
<!-- Metric Criteria&#45;&gt;Function Approximation -->
<g id="edge7" class="edge">
<title>Metric Criteria&#45;&gt;Function Approximation</title>
<path fill="none" stroke="#ffffff" d="M146.23,-134.38C139.5,-132.3 132.6,-130.16 125.83,-128.06"/>
<polygon fill="#ffffff" stroke="#ffffff" points="145.33,-137.76 155.92,-137.35 147.39,-131.07 145.33,-137.76"/>
</g>
<!-- Metric -->
<g id="node7" class="node">
<title>Metric</title>
<g id="a_node7"><a xlink:href="/Knowledge/metric.html" xlink:title="Metric" target="_parent">
<path fill="#273434" stroke="#b75867" d="M343,-168C343,-168 313,-168 313,-168 307,-168 301,-162 301,-156 301,-156 301,-144 301,-144 301,-138 307,-132 313,-132 313,-132 343,-132 343,-132 349,-132 355,-138 355,-144 355,-144 355,-156 355,-156 355,-162 349,-168 343,-168"/>
<text text-anchor="middle" x="328" y="-146.9" font-family="sans" font-size="12.00" fill="#c4c7c7">Metric</text>
</a>
</g>
</g>
<!-- Metric Criteria&#45;&gt;Metric -->
<g id="edge6" class="edge">
<title>Metric Criteria&#45;&gt;Metric</title>
<path fill="none" stroke="#b75867" d="M244.01,-150C259.15,-150 276.02,-150 290.57,-150"/>
<polygon fill="#b75867" stroke="#b75867" points="290.7,-153.5 300.7,-150 290.7,-146.5 290.7,-153.5"/>
</g>
<!-- Simple Function&#45;&gt;Function Approximation -->
<g id="edge9" class="edge">
<title>Simple Function&#45;&gt;Function Approximation</title>
<path fill="none" stroke="#ffffff" d="M140.2,-110.75C139.56,-110.75 138.92,-110.75 138.28,-110.75"/>
<polygon fill="#ffffff" stroke="#ffffff" points="140.48,-114.25 150.48,-110.73 140.47,-107.25 140.48,-114.25"/>
</g>
<!-- Simple Function&#45;&gt;nil -->
<g id="edge8" class="edge">
<title>Simple Function&#45;&gt;nil</title>
<path fill="none" stroke="#b75867" d="M249.71,-110.77C263.35,-110.99 277.92,-111.22 290.7,-111.42"/>
<polygon fill="#b75867" stroke="#b75867" points="290.9,-114.93 300.95,-111.59 291.01,-107.93 290.9,-114.93"/>
</g>
<!-- Complex Function&#45;&gt;Function Approximation -->
<g id="edge10" class="edge">
<title>Complex Function&#45;&gt;Function Approximation</title>
<path fill="none" stroke="#ffffff" d="M135.95,-91.83C135.84,-91.86 135.74,-91.89 135.63,-91.92"/>
<polygon fill="#ffffff" stroke="#ffffff" points="137.03,-95.17 145.67,-89.04 135.09,-88.44 137.03,-95.17"/>
</g>
<!-- Numeric Methods&#45;&gt;Function Approximation -->
<g id="edge12" class="edge">
<title>Numeric Methods&#45;&gt;Function Approximation</title>
<path fill="none" stroke="#b75867" d="M155.84,-54.03C152.47,-55.63 149.15,-57.29 146,-59 131.36,-66.94 116.05,-77.03 103.04,-86.13"/>
<polygon fill="#b75867" stroke="#b75867" points="100.98,-83.3 94.85,-91.94 105.03,-89.01 100.98,-83.3"/>
</g>
<!-- Lagrange Interpolation -->
<g id="node8" class="node">
<title>Lagrange Interpolation</title>
<g id="a_node8"><a xlink:href="/Knowledge/lagrange_interpolation.html" xlink:title="Lagrange Interpolation" target="_parent">
<path fill="#273434" stroke="#b75867" d="M382,-73C382,-73 274,-73 274,-73 268,-73 262,-67 262,-61 262,-61 262,-49 262,-49 262,-43 268,-37 274,-37 274,-37 382,-37 382,-37 388,-37 394,-43 394,-49 394,-49 394,-61 394,-61 394,-67 388,-73 382,-73"/>
<text text-anchor="middle" x="328" y="-51.9" font-family="sans" font-size="12.00" fill="#c4c7c7">Lagrange Interpolation</text>
</a>
</g>
</g>
<!-- Numeric Methods&#45;&gt;Lagrange Interpolation -->
<g id="edge11" class="edge">
<title>Numeric Methods&#45;&gt;Lagrange Interpolation</title>
<path fill="none" stroke="#b75867" d="M253.34,-43.89C253.43,-43.91 253.52,-43.92 253.61,-43.93"/>
<polygon fill="#b75867" stroke="#b75867" points="251.52,-47.16 261.93,-45.19 252.56,-40.24 251.52,-47.16"/>
</g>
<!-- Subjects -->
<g id="node9" class="node">
<title>Subjects</title>
<g id="a_node9"><a xlink:href="/Knowledge/subjects.html" xlink:title="Subjects" target="_parent">
<path fill="none" stroke="#b75867" d="M346,-36C346,-36 310,-36 310,-36 304,-36 298,-30 298,-24 298,-24 298,-12 298,-12 298,-6 304,0 310,0 310,0 346,0 346,0 352,0 358,-6 358,-12 358,-12 358,-24 358,-24 358,-30 352,-36 346,-36"/>
<text text-anchor="middle" x="328" y="-14.9" font-family="sans" font-size="12.00" fill="#c4c7c7">Subjects</text>
</a>
</g>
</g>
<!-- Numeric Methods&#45;&gt;Subjects -->
<g id="edge13" class="edge">
<title>Numeric Methods&#45;&gt;Subjects</title>
<path fill="none" stroke="#ffffff" d="M263.36,-27.09C275.35,-25.38 287.37,-23.66 297.68,-22.19"/>
<polygon fill="#ffffff" stroke="#ffffff" points="262.75,-23.64 253.34,-28.52 263.74,-30.57 262.75,-23.64"/>
</g>
</g>
</svg>
