<?xml version="1.0" encoding="UTF-8" standalone="no"?>
<!DOCTYPE svg PUBLIC "-//W3C//DTD SVG 1.1//EN"
 "http://www.w3.org/Graphics/SVG/1.1/DTD/svg11.dtd">
<!-- Generated by graphviz version 2.46.1 (0)
 -->
<!-- Title: Functions Pages: 1 -->
<svg width="323pt" height="266pt"
 viewBox="0.00 0.00 323.00 266.00" xmlns="http://www.w3.org/2000/svg" xmlns:xlink="http://www.w3.org/1999/xlink">
<g id="graph0" class="graph" transform="scale(1 1) rotate(0) translate(4 262)">
<title>Functions</title>
<polygon fill="#132020" stroke="transparent" points="-4,4 -4,-262 319,-262 319,4 -4,4"/>
<!-- Functions -->
<g id="node1" class="node">
<title>Functions</title>
<g id="a_node1"><a xlink:href="/Knowledge/functions.html" xlink:title="Functions" target="_parent">
<path fill="#273434" stroke="#b75867" d="M55,-211C55,-211 12,-211 12,-211 6,-211 0,-205 0,-199 0,-199 0,-187 0,-187 0,-181 6,-175 12,-175 12,-175 55,-175 55,-175 61,-175 67,-181 67,-187 67,-187 67,-199 67,-199 67,-205 61,-211 55,-211"/>
<text text-anchor="middle" x="33.5" y="-189.9" font-family="sans" font-size="12.00" fill="#c4c7c7">Functions</text>
</a>
</g>
</g>
<!-- Total function -->
<g id="node2" class="node">
<title>Total function</title>
<g id="a_node2"><a xlink:href="/Knowledge/total_function.html" xlink:title="Total function" target="_parent">
<path fill="#273434" stroke="#b75867" d="M161.5,-248C161.5,-248 99.5,-248 99.5,-248 93.5,-248 87.5,-242 87.5,-236 87.5,-236 87.5,-224 87.5,-224 87.5,-218 93.5,-212 99.5,-212 99.5,-212 161.5,-212 161.5,-212 167.5,-212 173.5,-218 173.5,-224 173.5,-224 173.5,-236 173.5,-236 173.5,-242 167.5,-248 161.5,-248"/>
<text text-anchor="middle" x="130.5" y="-226.9" font-family="sans" font-size="12.00" fill="#c4c7c7">Total function</text>
</a>
</g>
</g>
<!-- Functions&#45;&gt;Total function -->
<g id="edge1" class="edge">
<title>Functions&#45;&gt;Total function</title>
<path fill="none" stroke="#b75867" d="M67.19,-205.73C70.62,-207.07 74.15,-208.44 77.72,-209.83"/>
<polygon fill="#b75867" stroke="#b75867" points="76.59,-213.15 87.18,-213.52 79.14,-206.63 76.59,-213.15"/>
</g>
<!-- Partial function -->
<g id="node3" class="node">
<title>Partial function</title>
<g id="a_node3"><a xlink:href="/Knowledge/partial_function.html" xlink:title="Partial function" target="_parent">
<path fill="#273434" stroke="#b75867" d="M165.5,-211C165.5,-211 95.5,-211 95.5,-211 89.5,-211 83.5,-205 83.5,-199 83.5,-199 83.5,-187 83.5,-187 83.5,-181 89.5,-175 95.5,-175 95.5,-175 165.5,-175 165.5,-175 171.5,-175 177.5,-181 177.5,-187 177.5,-187 177.5,-199 177.5,-199 177.5,-205 171.5,-211 165.5,-211"/>
<text text-anchor="middle" x="130.5" y="-189.9" font-family="sans" font-size="12.00" fill="#c4c7c7">Partial function</text>
</a>
</g>
</g>
<!-- Functions&#45;&gt;Partial function -->
<g id="edge2" class="edge">
<title>Functions&#45;&gt;Partial function</title>
<path fill="none" stroke="#b75867" d="M67.19,-193C69.25,-193 71.34,-193 73.46,-193"/>
<polygon fill="#b75867" stroke="#b75867" points="73.48,-196.5 83.48,-193 73.48,-189.5 73.48,-196.5"/>
</g>
<!-- Discrete Structures -->
<g id="node4" class="node">
<title>Discrete Structures</title>
<g id="a_node4"><a xlink:href="/Knowledge/discrete_structures.html" xlink:title="Discrete Structures" target="_parent">
<path fill="none" stroke="#b75867" d="M174,-165C174,-165 87,-165 87,-165 81,-165 75,-159 75,-153 75,-153 75,-141 75,-141 75,-135 81,-129 87,-129 87,-129 174,-129 174,-129 180,-129 186,-135 186,-141 186,-141 186,-153 186,-153 186,-159 180,-165 174,-165"/>
<text text-anchor="middle" x="130.5" y="-143.9" font-family="sans" font-size="12.00" fill="#c4c7c7">Discrete Structures</text>
</a>
</g>
</g>
<!-- Functions&#45;&gt;Discrete Structures -->
<g id="edge3" class="edge">
<title>Functions&#45;&gt;Discrete Structures</title>
<path fill="none" stroke="#ffffff" d="M76.46,-172.68C81.69,-170.15 87.02,-167.57 92.18,-165.07"/>
<polygon fill="#ffffff" stroke="#ffffff" points="74.67,-169.66 67.19,-177.17 77.72,-175.96 74.67,-169.66"/>
</g>
<!-- Total function&#45;&gt;Functions -->
<g id="edge5" class="edge">
<title>Total function&#45;&gt;Functions</title>
<path fill="none" stroke="#ffffff" d="M77.72,-210.58C74.15,-209.19 70.62,-207.8 67.19,-206.45"/>
<polygon fill="#ffffff" stroke="#ffffff" points="76.59,-213.9 87.18,-214.26 79.13,-207.38 76.59,-213.9"/>
</g>
<!-- Relation -->
<g id="node5" class="node">
<title>Relation</title>
<g id="a_node5"><a xlink:href="/Knowledge/relation.html" xlink:title="Relation" target="_parent">
<path fill="#273434" stroke="#b75867" d="M272,-258C272,-258 237,-258 237,-258 231,-258 225,-252 225,-246 225,-246 225,-234 225,-234 225,-228 231,-222 237,-222 237,-222 272,-222 272,-222 278,-222 284,-228 284,-234 284,-234 284,-246 284,-246 284,-252 278,-258 272,-258"/>
<text text-anchor="middle" x="254.5" y="-236.9" font-family="sans" font-size="12.00" fill="#c4c7c7">Relation</text>
</a>
</g>
</g>
<!-- Total function&#45;&gt;Relation -->
<g id="edge4" class="edge">
<title>Total function&#45;&gt;Relation</title>
<path fill="none" stroke="#b75867" d="M173.83,-233.47C187.08,-234.56 201.63,-235.75 214.63,-236.81"/>
<polygon fill="#b75867" stroke="#b75867" points="214.41,-240.31 224.67,-237.64 214.99,-233.33 214.41,-240.31"/>
</g>
<!-- Partial function&#45;&gt;Functions -->
<g id="edge7" class="edge">
<title>Partial function&#45;&gt;Functions</title>
<path fill="none" stroke="#ffffff" d="M73.46,-193.74C71.34,-193.73 69.25,-193.73 67.19,-193.72"/>
<polygon fill="#ffffff" stroke="#ffffff" points="73.48,-197.24 83.48,-193.75 73.49,-190.24 73.48,-197.24"/>
</g>
<!-- Partial function&#45;&gt;Relation -->
<g id="edge6" class="edge">
<title>Partial function&#45;&gt;Relation</title>
<path fill="none" stroke="#b75867" d="M176.17,-211.03C182.15,-213.4 188.22,-215.78 194,-218 200.93,-220.66 208.33,-223.45 215.47,-226.11"/>
<polygon fill="#b75867" stroke="#b75867" points="214.4,-229.44 224.99,-229.63 216.83,-222.88 214.4,-229.44"/>
</g>
<!-- Discrete Structures&#45;&gt;Functions -->
<g id="edge10" class="edge">
<title>Discrete Structures&#45;&gt;Functions</title>
<path fill="none" stroke="#b75867" d="M93.82,-165C88.09,-167.8 82.11,-170.7 76.25,-173.53"/>
<polygon fill="#b75867" stroke="#b75867" points="74.69,-170.4 67.19,-177.89 77.72,-176.7 74.69,-170.4"/>
</g>
<!-- Recurrent Equations -->
<g id="node6" class="node">
<title>Recurrent Equations</title>
<g id="a_node6"><a xlink:href="/Knowledge/recurrent_equations.html" xlink:title="Recurrent Equations" target="_parent">
<path fill="#273434" stroke="#b75867" d="M302,-221C302,-221 207,-221 207,-221 201,-221 195,-215 195,-209 195,-209 195,-197 195,-197 195,-191 201,-185 207,-185 207,-185 302,-185 302,-185 308,-185 314,-191 314,-197 314,-197 314,-209 314,-209 314,-215 308,-221 302,-221"/>
<text text-anchor="middle" x="254.5" y="-199.9" font-family="sans" font-size="12.00" fill="#c4c7c7">Recurrent Equations</text>
</a>
</g>
</g>
<!-- Discrete Structures&#45;&gt;Recurrent Equations -->
<g id="edge8" class="edge">
<title>Discrete Structures&#45;&gt;Recurrent Equations</title>
<path fill="none" stroke="#b75867" d="M168.91,-165.15C174.72,-168.28 180.59,-171.61 186,-175 188.41,-176.51 189.42,-177.68 192.9,-179.92"/>
<polygon fill="#b75867" stroke="#b75867" points="191.38,-183.07 201.81,-184.95 194.83,-176.98 191.38,-183.07"/>
</g>
<!-- Combinatorics -->
<g id="node7" class="node">
<title>Combinatorics</title>
<g id="a_node7"><a xlink:href="/Knowledge/combinatorics.html" xlink:title="Combinatorics" target="_parent">
<path fill="#273434" stroke="#b75867" d="M288,-184C288,-184 221,-184 221,-184 215,-184 209,-178 209,-172 209,-172 209,-160 209,-160 209,-154 215,-148 221,-148 221,-148 288,-148 288,-148 294,-148 300,-154 300,-160 300,-160 300,-172 300,-172 300,-178 294,-184 288,-184"/>
<text text-anchor="middle" x="254.5" y="-162.9" font-family="sans" font-size="12.00" fill="#c4c7c7">Combinatorics</text>
</a>
</g>
</g>
<!-- Discrete Structures&#45;&gt;Combinatorics -->
<g id="edge9" class="edge">
<title>Discrete Structures&#45;&gt;Combinatorics</title>
<path fill="none" stroke="#b75867" d="M186.08,-155.5C190.24,-156.15 194.44,-156.8 198.61,-157.45"/>
<polygon fill="#b75867" stroke="#b75867" points="198.42,-160.96 208.84,-159.04 199.5,-154.05 198.42,-160.96"/>
</g>
<!-- Relations -->
<g id="node8" class="node">
<title>Relations</title>
<g id="a_node8"><a xlink:href="/Knowledge/relations.html" xlink:title="Relations" target="_parent">
<path fill="#273434" stroke="#b75867" d="M274.5,-147C274.5,-147 234.5,-147 234.5,-147 228.5,-147 222.5,-141 222.5,-135 222.5,-135 222.5,-123 222.5,-123 222.5,-117 228.5,-111 234.5,-111 234.5,-111 274.5,-111 274.5,-111 280.5,-111 286.5,-117 286.5,-123 286.5,-123 286.5,-135 286.5,-135 286.5,-141 280.5,-147 274.5,-147"/>
<text text-anchor="middle" x="254.5" y="-125.9" font-family="sans" font-size="12.00" fill="#c4c7c7">Relations</text>
</a>
</g>
</g>
<!-- Discrete Structures&#45;&gt;Relations -->
<g id="edge11" class="edge">
<title>Discrete Structures&#45;&gt;Relations</title>
<path fill="none" stroke="#b75867" d="M186.08,-138.95C194.92,-137.64 203.94,-136.31 212.39,-135.07"/>
<polygon fill="#b75867" stroke="#b75867" points="212.98,-138.52 222.36,-133.59 211.96,-131.59 212.98,-138.52"/>
</g>
<!-- Logical Equivalences -->
<g id="node9" class="node">
<title>Logical Equivalences</title>
<g id="a_node9"><a xlink:href="/Knowledge/logical_equivalences.html" xlink:title="Logical Equivalences" target="_parent">
<path fill="#273434" stroke="#b75867" d="M303,-110C303,-110 206,-110 206,-110 200,-110 194,-104 194,-98 194,-98 194,-86 194,-86 194,-80 200,-74 206,-74 206,-74 303,-74 303,-74 309,-74 315,-80 315,-86 315,-86 315,-98 315,-98 315,-104 309,-110 303,-110"/>
<text text-anchor="middle" x="254.5" y="-88.9" font-family="sans" font-size="12.00" fill="#c4c7c7">Logical Equivalences</text>
</a>
</g>
</g>
<!-- Discrete Structures&#45;&gt;Logical Equivalences -->
<g id="edge12" class="edge">
<title>Discrete Structures&#45;&gt;Logical Equivalences</title>
<path fill="none" stroke="#b75867" d="M163.86,-128.88C173.44,-123.8 184.03,-118.45 194,-114 194.09,-113.96 194.19,-113.92 194.28,-113.87"/>
<polygon fill="#b75867" stroke="#b75867" points="195.49,-117.16 203.31,-110.01 192.74,-110.73 195.49,-117.16"/>
</g>
<!-- Logical Operators -->
<g id="node10" class="node">
<title>Logical Operators</title>
<g id="a_node10"><a xlink:href="/Knowledge/logical_operators.html" xlink:title="Logical Operators" target="_parent">
<path fill="#273434" stroke="#b75867" d="M295.5,-73C295.5,-73 213.5,-73 213.5,-73 207.5,-73 201.5,-67 201.5,-61 201.5,-61 201.5,-49 201.5,-49 201.5,-43 207.5,-37 213.5,-37 213.5,-37 295.5,-37 295.5,-37 301.5,-37 307.5,-43 307.5,-49 307.5,-49 307.5,-61 307.5,-61 307.5,-67 301.5,-73 295.5,-73"/>
<text text-anchor="middle" x="254.5" y="-51.9" font-family="sans" font-size="12.00" fill="#c4c7c7">Logical Operators</text>
</a>
</g>
</g>
<!-- Discrete Structures&#45;&gt;Logical Operators -->
<g id="edge13" class="edge">
<title>Discrete Structures&#45;&gt;Logical Operators</title>
<path fill="none" stroke="#b75867" d="M143.71,-128.94C153.94,-114.89 169.75,-95.49 193.2,-78.22"/>
<polygon fill="#b75867" stroke="#b75867" points="195.25,-81.06 201.45,-72.46 191.25,-75.32 195.25,-81.06"/>
</g>
<!-- Subjects -->
<g id="node11" class="node">
<title>Subjects</title>
<g id="a_node11"><a xlink:href="/Knowledge/subjects.html" xlink:title="Subjects" target="_parent">
<path fill="none" stroke="#b75867" d="M272.5,-36C272.5,-36 236.5,-36 236.5,-36 230.5,-36 224.5,-30 224.5,-24 224.5,-24 224.5,-12 224.5,-12 224.5,-6 230.5,0 236.5,0 236.5,0 272.5,0 272.5,0 278.5,0 284.5,-6 284.5,-12 284.5,-12 284.5,-24 284.5,-24 284.5,-30 278.5,-36 272.5,-36"/>
<text text-anchor="middle" x="254.5" y="-14.9" font-family="sans" font-size="12.00" fill="#c4c7c7">Subjects</text>
</a>
</g>
</g>
<!-- Discrete Structures&#45;&gt;Subjects -->
<g id="edge14" class="edge">
<title>Discrete Structures&#45;&gt;Subjects</title>
<path fill="none" stroke="#ffffff" d="M141.44,-119.31C151.36,-95.3 168.77,-61.18 194,-40 202.69,-32.71 214.02,-27.72 224.46,-24.37"/>
<polygon fill="#ffffff" stroke="#ffffff" points="138.07,-118.32 137.65,-128.91 144.58,-120.9 138.07,-118.32"/>
</g>
</g>
</svg>
