<?xml version="1.0" encoding="UTF-8" standalone="no"?>
<!DOCTYPE svg PUBLIC "-//W3C//DTD SVG 1.1//EN"
 "http://www.w3.org/Graphics/SVG/1.1/DTD/svg11.dtd">
<!-- Generated by graphviz version 2.44.0 (0)
 -->
<!-- Title: Functions Pages: 1 -->
<svg width="351pt" height="303pt"
 viewBox="0.00 0.00 351.00 303.00" xmlns="http://www.w3.org/2000/svg" xmlns:xlink="http://www.w3.org/1999/xlink">
<g id="graph0" class="graph" transform="scale(1 1) rotate(0) translate(4 299)">
<title>Functions</title>
<polygon fill="#132020" stroke="transparent" points="-4,4 -4,-299 347,-299 347,4 -4,4"/>
<!-- Functions -->
<g id="node1" class="node">
<title>Functions</title>
<g id="a_node1"><a xlink:href="../Functions.html" xlink:title="Functions" target="_parent">
<path fill="#273434" stroke="#b75867" d="M60,-239C60,-239 12,-239 12,-239 6,-239 0,-233 0,-227 0,-227 0,-215 0,-215 0,-209 6,-203 12,-203 12,-203 60,-203 60,-203 66,-203 72,-209 72,-215 72,-215 72,-227 72,-227 72,-233 66,-239 60,-239"/>
<text text-anchor="middle" x="36" y="-217.9" font-family="sans" font-size="12.00" fill="#c4c7c7">Functions</text>
</a>
</g>
</g>
<!-- Total function -->
<g id="node2" class="node">
<title>Total function</title>
<g id="a_node2"><a xlink:href="../Total function.html" xlink:title="Total function" target="_parent">
<path fill="#273434" stroke="#b75867" d="M176.5,-276C176.5,-276 105.5,-276 105.5,-276 99.5,-276 93.5,-270 93.5,-264 93.5,-264 93.5,-252 93.5,-252 93.5,-246 99.5,-240 105.5,-240 105.5,-240 176.5,-240 176.5,-240 182.5,-240 188.5,-246 188.5,-252 188.5,-252 188.5,-264 188.5,-264 188.5,-270 182.5,-276 176.5,-276"/>
<text text-anchor="middle" x="141" y="-254.9" font-family="sans" font-size="12.00" fill="#c4c7c7">Total function</text>
</a>
</g>
</g>
<!-- Functions&#45;&gt;Total function -->
<g id="edge1" class="edge">
<title>Functions&#45;&gt;Total function</title>
<path fill="none" stroke="#b75867" d="M72.16,-233.63C75.86,-234.96 79.68,-236.33 83.54,-237.72"/>
<polygon fill="#b75867" stroke="#b75867" points="82.57,-241.09 93.16,-241.17 84.93,-234.5 82.57,-241.09"/>
</g>
<!-- Partial function -->
<g id="node3" class="node">
<title>Partial function</title>
<g id="a_node3"><a xlink:href="../Partial function.html" xlink:title="Partial function" target="_parent">
<path fill="#273434" stroke="#b75867" d="M180.5,-239C180.5,-239 101.5,-239 101.5,-239 95.5,-239 89.5,-233 89.5,-227 89.5,-227 89.5,-215 89.5,-215 89.5,-209 95.5,-203 101.5,-203 101.5,-203 180.5,-203 180.5,-203 186.5,-203 192.5,-209 192.5,-215 192.5,-215 192.5,-227 192.5,-227 192.5,-233 186.5,-239 180.5,-239"/>
<text text-anchor="middle" x="141" y="-217.9" font-family="sans" font-size="12.00" fill="#c4c7c7">Partial function</text>
</a>
</g>
</g>
<!-- Functions&#45;&gt;Partial function -->
<g id="edge2" class="edge">
<title>Functions&#45;&gt;Partial function</title>
<path fill="none" stroke="#b75867" d="M72.16,-221C74.52,-221 76.93,-221 79.37,-221"/>
<polygon fill="#b75867" stroke="#b75867" points="79.5,-224.5 89.5,-221 79.5,-217.5 79.5,-224.5"/>
</g>
<!-- Discrete Structures -->
<g id="node4" class="node">
<title>Discrete Structures</title>
<g id="a_node4"><a xlink:href="../Discrete Structures.html" xlink:title="Discrete Structures" target="_parent">
<path fill="none" stroke="#b75867" d="M190,-184C190,-184 92,-184 92,-184 86,-184 80,-178 80,-172 80,-172 80,-160 80,-160 80,-154 86,-148 92,-148 92,-148 190,-148 190,-148 196,-148 202,-154 202,-160 202,-160 202,-172 202,-172 202,-178 196,-184 190,-184"/>
<text text-anchor="middle" x="141" y="-162.9" font-family="sans" font-size="12.00" fill="#c4c7c7">Discrete Structures</text>
</a>
</g>
</g>
<!-- Functions&#45;&gt;Discrete Structures -->
<g id="edge3" class="edge">
<title>Functions&#45;&gt;Discrete Structures</title>
<path fill="none" stroke="#ffffff" d="M79.75,-198.17C88.57,-193.46 97.75,-188.56 106.2,-184.05"/>
<polygon fill="#ffffff" stroke="#ffffff" points="77.9,-195.19 70.73,-202.99 81.2,-201.37 77.9,-195.19"/>
</g>
<!-- Total function&#45;&gt;Functions -->
<g id="edge5" class="edge">
<title>Total function&#45;&gt;Functions</title>
<path fill="none" stroke="#ffffff" d="M83.54,-238.46C79.68,-237.07 75.86,-235.69 72.16,-234.35"/>
<polygon fill="#ffffff" stroke="#ffffff" points="82.57,-241.83 93.16,-241.92 84.93,-235.25 82.57,-241.83"/>
</g>
<!-- Relation -->
<g id="node5" class="node">
<title>Relation</title>
<g id="a_node5"><a xlink:href="../Relation.html" xlink:title="Relation" target="_parent">
<path fill="#273434" stroke="#b75867" d="M296.5,-295C296.5,-295 256.5,-295 256.5,-295 250.5,-295 244.5,-289 244.5,-283 244.5,-283 244.5,-271 244.5,-271 244.5,-265 250.5,-259 256.5,-259 256.5,-259 296.5,-259 296.5,-259 302.5,-259 308.5,-265 308.5,-271 308.5,-271 308.5,-283 308.5,-283 308.5,-289 302.5,-295 296.5,-295"/>
<text text-anchor="middle" x="276.5" y="-273.9" font-family="sans" font-size="12.00" fill="#c4c7c7">Relation</text>
</a>
</g>
</g>
<!-- Total function&#45;&gt;Relation -->
<g id="edge4" class="edge">
<title>Total function&#45;&gt;Relation</title>
<path fill="none" stroke="#b75867" d="M188.69,-264.65C203.46,-266.75 219.66,-269.05 234.03,-271.1"/>
<polygon fill="#b75867" stroke="#b75867" points="233.73,-274.59 244.13,-272.53 234.72,-267.66 233.73,-274.59"/>
</g>
<!-- Partial function&#45;&gt;Functions -->
<g id="edge7" class="edge">
<title>Partial function&#45;&gt;Functions</title>
<path fill="none" stroke="#ffffff" d="M79.37,-221.74C76.93,-221.73 74.52,-221.73 72.16,-221.72"/>
<polygon fill="#ffffff" stroke="#ffffff" points="79.5,-225.24 89.5,-221.75 79.5,-218.24 79.5,-225.24"/>
</g>
<!-- Partial function&#45;&gt;Relation -->
<g id="edge6" class="edge">
<title>Partial function&#45;&gt;Relation</title>
<path fill="none" stroke="#b75867" d="M192.72,-236.84C195.99,-238.69 199.12,-240.73 202,-243 207.04,-246.97 204.91,-251.1 210,-255 217.27,-260.56 226.02,-264.76 234.73,-267.92"/>
<polygon fill="#b75867" stroke="#b75867" points="233.86,-271.32 244.46,-271.06 236.01,-264.66 233.86,-271.32"/>
</g>
<!-- Discrete Structures&#45;&gt;Functions -->
<g id="edge10" class="edge">
<title>Discrete Structures&#45;&gt;Functions</title>
<path fill="none" stroke="#b75867" d="M107.43,-184.1C99.09,-188.59 90,-193.46 81.19,-198.15"/>
<polygon fill="#b75867" stroke="#b75867" points="79.35,-195.16 72.16,-202.94 82.63,-201.34 79.35,-195.16"/>
</g>
<!-- Recurrent Equations -->
<g id="node6" class="node">
<title>Recurrent Equations</title>
<g id="a_node6"><a xlink:href="../Recurrent Equations.html" xlink:title="Recurrent Equations" target="_parent">
<path fill="#273434" stroke="#b75867" d="M330,-258C330,-258 223,-258 223,-258 217,-258 211,-252 211,-246 211,-246 211,-234 211,-234 211,-228 217,-222 223,-222 223,-222 330,-222 330,-222 336,-222 342,-228 342,-234 342,-234 342,-246 342,-246 342,-252 336,-258 330,-258"/>
<text text-anchor="middle" x="276.5" y="-236.9" font-family="sans" font-size="12.00" fill="#c4c7c7">Recurrent Equations</text>
</a>
</g>
</g>
<!-- Discrete Structures&#45;&gt;Recurrent Equations -->
<g id="edge8" class="edge">
<title>Discrete Structures&#45;&gt;Recurrent Equations</title>
<path fill="none" stroke="#b75867" d="M178.27,-184.1C186.71,-189.42 195.21,-195.77 202,-203 205.48,-206.7 205.29,-210 208.12,-214.43"/>
<polygon fill="#b75867" stroke="#b75867" points="205.79,-217.06 215.2,-221.93 210.88,-212.26 205.79,-217.06"/>
</g>
<!-- Combinatorics -->
<g id="node7" class="node">
<title>Combinatorics</title>
<g id="a_node7"><a xlink:href="../Combinatorics.html" xlink:title="Combinatorics" target="_parent">
<path fill="#273434" stroke="#b75867" d="M313.5,-221C313.5,-221 239.5,-221 239.5,-221 233.5,-221 227.5,-215 227.5,-209 227.5,-209 227.5,-197 227.5,-197 227.5,-191 233.5,-185 239.5,-185 239.5,-185 313.5,-185 313.5,-185 319.5,-185 325.5,-191 325.5,-197 325.5,-197 325.5,-209 325.5,-209 325.5,-215 319.5,-221 313.5,-221"/>
<text text-anchor="middle" x="276.5" y="-199.9" font-family="sans" font-size="12.00" fill="#c4c7c7">Combinatorics</text>
</a>
</g>
</g>
<!-- Discrete Structures&#45;&gt;Combinatorics -->
<g id="edge9" class="edge">
<title>Discrete Structures&#45;&gt;Combinatorics</title>
<path fill="none" stroke="#b75867" d="M202.11,-182.66C207.26,-184.09 212.45,-185.53 217.58,-186.95"/>
<polygon fill="#b75867" stroke="#b75867" points="216.75,-190.35 227.32,-189.65 218.62,-183.6 216.75,-190.35"/>
</g>
<!-- Relations -->
<g id="node8" class="node">
<title>Relations</title>
<g id="a_node8"><a xlink:href="../Relations.html" xlink:title="Relations" target="_parent">
<path fill="#273434" stroke="#b75867" d="M299,-184C299,-184 254,-184 254,-184 248,-184 242,-178 242,-172 242,-172 242,-160 242,-160 242,-154 248,-148 254,-148 254,-148 299,-148 299,-148 305,-148 311,-154 311,-160 311,-160 311,-172 311,-172 311,-178 305,-184 299,-184"/>
<text text-anchor="middle" x="276.5" y="-162.9" font-family="sans" font-size="12.00" fill="#c4c7c7">Relations</text>
</a>
</g>
</g>
<!-- Discrete Structures&#45;&gt;Relations -->
<g id="edge11" class="edge">
<title>Discrete Structures&#45;&gt;Relations</title>
<path fill="none" stroke="#b75867" d="M202.11,-166C211.97,-166 222.02,-166 231.39,-166"/>
<polygon fill="#b75867" stroke="#b75867" points="231.64,-169.5 241.64,-166 231.64,-162.5 231.64,-169.5"/>
</g>
<!-- Logical Equivalences -->
<g id="node9" class="node">
<title>Logical Equivalences</title>
<g id="a_node9"><a xlink:href="../Logical Equivalences.html" xlink:title="Logical Equivalences" target="_parent">
<path fill="#273434" stroke="#b75867" d="M331,-147C331,-147 222,-147 222,-147 216,-147 210,-141 210,-135 210,-135 210,-123 210,-123 210,-117 216,-111 222,-111 222,-111 331,-111 331,-111 337,-111 343,-117 343,-123 343,-123 343,-135 343,-135 343,-141 337,-147 331,-147"/>
<text text-anchor="middle" x="276.5" y="-125.9" font-family="sans" font-size="12.00" fill="#c4c7c7">Logical Equivalences</text>
</a>
</g>
</g>
<!-- Discrete Structures&#45;&gt;Logical Equivalences -->
<g id="edge12" class="edge">
<title>Discrete Structures&#45;&gt;Logical Equivalences</title>
<path fill="none" stroke="#b75867" d="M202.11,-149.34C202.2,-149.32 202.28,-149.29 202.37,-149.27"/>
<polygon fill="#b75867" stroke="#b75867" points="201.74,-153.07 210.44,-147.03 199.87,-146.33 201.74,-153.07"/>
</g>
<!-- Logical Operators -->
<g id="node10" class="node">
<title>Logical Operators</title>
<g id="a_node10"><a xlink:href="../Logical Operators.html" xlink:title="Logical Operators" target="_parent">
<path fill="#273434" stroke="#b75867" d="M322.5,-110C322.5,-110 230.5,-110 230.5,-110 224.5,-110 218.5,-104 218.5,-98 218.5,-98 218.5,-86 218.5,-86 218.5,-80 224.5,-74 230.5,-74 230.5,-74 322.5,-74 322.5,-74 328.5,-74 334.5,-80 334.5,-86 334.5,-86 334.5,-98 334.5,-98 334.5,-104 328.5,-110 322.5,-110"/>
<text text-anchor="middle" x="276.5" y="-88.9" font-family="sans" font-size="12.00" fill="#c4c7c7">Logical Operators</text>
</a>
</g>
</g>
<!-- Discrete Structures&#45;&gt;Logical Operators -->
<g id="edge13" class="edge">
<title>Discrete Structures&#45;&gt;Logical Operators</title>
<path fill="none" stroke="#b75867" d="M161.92,-147.95C173.3,-138.28 188.33,-126.55 209.24,-114.82"/>
<polygon fill="#b75867" stroke="#b75867" points="211.08,-117.8 218.22,-109.97 207.76,-111.64 211.08,-117.8"/>
</g>
<!-- Subjects -->
<g id="node11" class="node">
<title>Subjects</title>
<g id="a_node11"><a xlink:href="../Subjects.html" xlink:title="Subjects" target="_parent">
<path fill="none" stroke="#b75867" d="M297,-73C297,-73 256,-73 256,-73 250,-73 244,-67 244,-61 244,-61 244,-49 244,-49 244,-43 250,-37 256,-37 256,-37 297,-37 297,-37 303,-37 309,-43 309,-49 309,-49 309,-61 309,-61 309,-67 303,-73 297,-73"/>
<text text-anchor="middle" x="276.5" y="-51.9" font-family="sans" font-size="12.00" fill="#c4c7c7">Subjects</text>
</a>
</g>
</g>
<!-- Discrete Structures&#45;&gt;Subjects -->
<g id="edge14" class="edge">
<title>Discrete Structures&#45;&gt;Subjects</title>
<path fill="none" stroke="#ffffff" d="M156.76,-138.87C168.74,-119.17 187.34,-93.22 210,-77 219.95,-69.88 232.37,-64.94 243.71,-61.57"/>
<polygon fill="#ffffff" stroke="#ffffff" points="153.62,-137.3 151.57,-147.7 159.65,-140.85 153.62,-137.3"/>
</g>
<!-- Knowledege Base -->
<g id="node12" class="node">
<title>Knowledege Base</title>
<g id="a_node12"><a xlink:href="../Knowledege Base.html" xlink:title="Knowledege Base" target="_parent">
<path fill="none" stroke="#b75867" d="M323,-36C323,-36 230,-36 230,-36 224,-36 218,-30 218,-24 218,-24 218,-12 218,-12 218,-6 224,0 230,0 230,0 323,0 323,0 329,0 335,-6 335,-12 335,-12 335,-24 335,-24 335,-30 329,-36 323,-36"/>
<text text-anchor="middle" x="276.5" y="-14.9" font-family="sans" font-size="12.00" fill="#c4c7c7">Knowledege Base</text>
</a>
</g>
</g>
<!-- Discrete Structures&#45;&gt;Knowledege Base -->
<g id="edge15" class="edge">
<title>Discrete Structures&#45;&gt;Knowledege Base</title>
<path fill="none" stroke="#ffffff" d="M150.3,-138.05C160.13,-109.56 179.18,-65.96 210,-40 212.48,-37.91 215.16,-36.02 217.98,-34.31"/>
<polygon fill="#ffffff" stroke="#ffffff" points="146.89,-137.21 147.09,-147.81 153.54,-139.4 146.89,-137.21"/>
</g>
</g>
</svg>
