<?xml version="1.0" encoding="UTF-8" standalone="no"?>
<!DOCTYPE svg PUBLIC "-//W3C//DTD SVG 1.1//EN"
 "http://www.w3.org/Graphics/SVG/1.1/DTD/svg11.dtd">
<!-- Generated by graphviz version 2.46.1 (0)
 -->
<!-- Title: index Pages: 1 -->
<svg width="259pt" height="192pt"
 viewBox="0.00 0.00 259.00 192.00" xmlns="http://www.w3.org/2000/svg" xmlns:xlink="http://www.w3.org/1999/xlink">
<g id="graph0" class="graph" transform="scale(1 1) rotate(0) translate(4 188)">
<title>index</title>
<polygon fill="#132020" stroke="transparent" points="-4,4 -4,-188 255,-188 255,4 -4,4"/>
<!-- index -->
<g id="node1" class="node">
<title>index</title>
<g id="a_node1"><a xlink:href="/Knowledge/index.html" xlink:title="index" target="_parent">
<path fill="#273434" stroke="#b75867" d="M42,-91C42,-91 12,-91 12,-91 6,-91 0,-85 0,-79 0,-79 0,-67 0,-67 0,-61 6,-55 12,-55 12,-55 42,-55 42,-55 48,-55 54,-61 54,-67 54,-67 54,-79 54,-79 54,-85 48,-91 42,-91"/>
<text text-anchor="middle" x="27" y="-69.9" font-family="sans" font-size="12.00" fill="#c4c7c7">index</text>
</a>
</g>
</g>
<!-- Subjects -->
<g id="node2" class="node">
<title>Subjects</title>
<g id="a_node2"><a xlink:href="/Knowledge/subjects.html" xlink:title="Subjects" target="_parent">
<path fill="#273434" stroke="#b75867" d="M112.5,-110C112.5,-110 76.5,-110 76.5,-110 70.5,-110 64.5,-104 64.5,-98 64.5,-98 64.5,-86 64.5,-86 64.5,-80 70.5,-74 76.5,-74 76.5,-74 112.5,-74 112.5,-74 118.5,-74 124.5,-80 124.5,-86 124.5,-86 124.5,-98 124.5,-98 124.5,-104 118.5,-110 112.5,-110"/>
<text text-anchor="middle" x="94.5" y="-88.9" font-family="sans" font-size="12.00" fill="#c4c7c7">Subjects</text>
</a>
</g>
</g>
<!-- index&#45;&gt;Subjects -->
<g id="edge1" class="edge">
<title>index&#45;&gt;Subjects</title>
<path fill="none" stroke="#b75867" d="M54.26,-80.62C54.37,-80.65 54.47,-80.68 54.57,-80.71"/>
<polygon fill="#b75867" stroke="#b75867" points="53.64,-84.08 64.22,-83.51 55.59,-77.36 53.64,-84.08"/>
</g>
<!-- Org Roam -->
<g id="node3" class="node">
<title>Org Roam</title>
<g id="a_node3"><a xlink:href="/Knowledge/org_roam.html" xlink:title="Org Roam" target="_parent">
<path fill="#273434" stroke="#b75867" d="M115,-73C115,-73 74,-73 74,-73 68,-73 62,-67 62,-61 62,-61 62,-49 62,-49 62,-43 68,-37 74,-37 74,-37 115,-37 115,-37 121,-37 127,-43 127,-49 127,-49 127,-61 127,-61 127,-67 121,-73 115,-73"/>
<text text-anchor="middle" x="94.5" y="-51.9" font-family="sans" font-size="12.00" fill="#c4c7c7">Org Roam</text>
</a>
</g>
</g>
<!-- index&#45;&gt;Org Roam -->
<g id="edge2" class="edge">
<title>index&#45;&gt;Org Roam</title>
<path fill="none" stroke="#b75867" d="M54.26,-65.78C54.42,-65.74 54.57,-65.7 54.72,-65.66"/>
<polygon fill="#b75867" stroke="#b75867" points="52.9,-69.79 61.62,-63.76 51.05,-63.04 52.9,-69.79"/>
</g>
<!-- Subjects&#45;&gt;index -->
<g id="edge7" class="edge">
<title>Subjects&#45;&gt;index</title>
<path fill="none" stroke="#ffffff" d="M54.57,-81.45C54.47,-81.42 54.37,-81.39 54.26,-81.36"/>
<polygon fill="#ffffff" stroke="#ffffff" points="53.64,-84.82 64.22,-84.25 55.6,-78.1 53.64,-84.82"/>
</g>
<!-- Numeric Methods -->
<g id="node4" class="node">
<title>Numeric Methods</title>
<g id="a_node4"><a xlink:href="/Knowledge/numeric_methods.html" xlink:title="Numeric Methods" target="_parent">
<path fill="#273434" stroke="#b75867" d="M234,-184C234,-184 152,-184 152,-184 146,-184 140,-178 140,-172 140,-172 140,-160 140,-160 140,-154 146,-148 152,-148 152,-148 234,-148 234,-148 240,-148 246,-154 246,-160 246,-160 246,-172 246,-172 246,-178 240,-184 234,-184"/>
<text text-anchor="middle" x="193" y="-162.9" font-family="sans" font-size="12.00" fill="#c4c7c7">Numeric Methods</text>
</a>
</g>
</g>
<!-- Subjects&#45;&gt;Numeric Methods -->
<g id="edge3" class="edge">
<title>Subjects&#45;&gt;Numeric Methods</title>
<path fill="none" stroke="#b75867" d="M105.91,-110.45C111.76,-119.66 119.8,-130.63 132.69,-141.56"/>
<polygon fill="#b75867" stroke="#b75867" points="130.84,-144.55 140.87,-147.97 135.16,-139.05 130.84,-144.55"/>
</g>
<!-- Discrete Structures -->
<g id="node5" class="node">
<title>Discrete Structures</title>
<g id="a_node5"><a xlink:href="/Knowledge/discrete_structures.html" xlink:title="Discrete Structures" target="_parent">
<path fill="#273434" stroke="#b75867" d="M236.5,-147C236.5,-147 149.5,-147 149.5,-147 143.5,-147 137.5,-141 137.5,-135 137.5,-135 137.5,-123 137.5,-123 137.5,-117 143.5,-111 149.5,-111 149.5,-111 236.5,-111 236.5,-111 242.5,-111 248.5,-117 248.5,-123 248.5,-123 248.5,-135 248.5,-135 248.5,-141 242.5,-147 236.5,-147"/>
<text text-anchor="middle" x="193" y="-125.9" font-family="sans" font-size="12.00" fill="#c4c7c7">Discrete Structures</text>
</a>
</g>
</g>
<!-- Subjects&#45;&gt;Discrete Structures -->
<g id="edge4" class="edge">
<title>Subjects&#45;&gt;Discrete Structures</title>
<path fill="none" stroke="#b75867" d="M124.72,-103.2C128.07,-104.49 131.58,-105.83 135.15,-107.2"/>
<polygon fill="#b75867" stroke="#b75867" points="134.11,-110.55 144.7,-110.86 136.62,-104.02 134.11,-110.55"/>
</g>
<!-- Differential Analysis -->
<g id="node6" class="node">
<title>Differential Analysis</title>
<g id="a_node6"><a xlink:href="/Knowledge/differential_analysis.html" xlink:title="Differential Analysis" target="_parent">
<path fill="#273434" stroke="#b75867" d="M239,-110C239,-110 147,-110 147,-110 141,-110 135,-104 135,-98 135,-98 135,-86 135,-86 135,-80 141,-74 147,-74 147,-74 239,-74 239,-74 245,-74 251,-80 251,-86 251,-86 251,-98 251,-98 251,-104 245,-110 239,-110"/>
<text text-anchor="middle" x="193" y="-88.9" font-family="sans" font-size="12.00" fill="#c4c7c7">Differential Analysis</text>
</a>
</g>
</g>
<!-- Subjects&#45;&gt;Differential Analysis -->
<g id="edge5" class="edge">
<title>Subjects&#45;&gt;Differential Analysis</title>
<path fill="none" stroke="#b75867" d="M124.72,-92C124.82,-92 124.92,-92 125.02,-92"/>
<polygon fill="#b75867" stroke="#b75867" points="124.7,-95.5 134.7,-92 124.7,-88.5 124.7,-95.5"/>
</g>
<!-- Linear Algebra -->
<g id="node7" class="node">
<title>Linear Algebra</title>
<g id="a_node7"><a xlink:href="/Knowledge/linear_algebra.html" xlink:title="Linear Algebra" target="_parent">
<path fill="#273434" stroke="#b75867" d="M225.5,-73C225.5,-73 160.5,-73 160.5,-73 154.5,-73 148.5,-67 148.5,-61 148.5,-61 148.5,-49 148.5,-49 148.5,-43 154.5,-37 160.5,-37 160.5,-37 225.5,-37 225.5,-37 231.5,-37 237.5,-43 237.5,-49 237.5,-49 237.5,-61 237.5,-61 237.5,-67 231.5,-73 225.5,-73"/>
<text text-anchor="middle" x="193" y="-51.9" font-family="sans" font-size="12.00" fill="#c4c7c7">Linear Algebra</text>
</a>
</g>
</g>
<!-- Subjects&#45;&gt;Linear Algebra -->
<g id="edge6" class="edge">
<title>Subjects&#45;&gt;Linear Algebra</title>
<path fill="none" stroke="#b75867" d="M124.72,-80.8C129.24,-79.06 134.04,-77.22 138.9,-75.36"/>
<polygon fill="#b75867" stroke="#b75867" points="140.2,-78.61 148.28,-71.76 137.69,-72.07 140.2,-78.61"/>
</g>
<!-- Org Roam&#45;&gt;index -->
<g id="edge9" class="edge">
<title>Org Roam&#45;&gt;index</title>
<path fill="none" stroke="#ffffff" d="M54.72,-66.4C54.57,-66.44 54.42,-66.48 54.26,-66.52"/>
<polygon fill="#ffffff" stroke="#ffffff" points="52.89,-70.52 61.62,-64.51 51.05,-63.77 52.89,-70.52"/>
</g>
<!-- Bad Habit -->
<g id="node8" class="node">
<title>Bad Habit</title>
<g id="a_node8"><a xlink:href="/Knowledge/bad_habit.html" xlink:title="Bad Habit" target="_parent">
<path fill="none" stroke="#b75867" d="M213.5,-36C213.5,-36 172.5,-36 172.5,-36 166.5,-36 160.5,-30 160.5,-24 160.5,-24 160.5,-12 160.5,-12 160.5,-6 166.5,0 172.5,0 172.5,0 213.5,0 213.5,0 219.5,0 225.5,-6 225.5,-12 225.5,-12 225.5,-24 225.5,-24 225.5,-30 219.5,-36 213.5,-36"/>
<text text-anchor="middle" x="193" y="-14.9" font-family="sans" font-size="12.00" fill="#c4c7c7">Bad Habit</text>
</a>
</g>
</g>
<!-- Org Roam&#45;&gt;Bad Habit -->
<g id="edge8" class="edge">
<title>Org Roam&#45;&gt;Bad Habit</title>
<path fill="none" stroke="#ffffff" d="M136.6,-39.24C144.54,-36.2 152.75,-33.05 160.33,-30.14"/>
<polygon fill="#ffffff" stroke="#ffffff" points="135.18,-36.04 127.1,-42.88 137.69,-42.57 135.18,-36.04"/>
</g>
</g>
</svg>
