<?xml version="1.0" encoding="UTF-8" standalone="no"?>
<!DOCTYPE svg PUBLIC "-//W3C//DTD SVG 1.1//EN"
 "http://www.w3.org/Graphics/SVG/1.1/DTD/svg11.dtd">
<!-- Generated by graphviz version 2.46.1 (0)
 -->
<!-- Title: Interpolation Criteria Pages: 1 -->
<svg width="131pt" height="44pt"
 viewBox="0.00 0.00 131.00 44.00" xmlns="http://www.w3.org/2000/svg" xmlns:xlink="http://www.w3.org/1999/xlink">
<g id="graph0" class="graph" transform="scale(1 1) rotate(0) translate(4 40)">
<title>Interpolation Criteria</title>
<polygon fill="#132020" stroke="transparent" points="-4,4 -4,-40 127,-40 127,4 -4,4"/>
<!-- Interpolation Criteria -->
<g id="node1" class="node">
<title>Interpolation Criteria</title>
<g id="a_node1"><a xlink:href="/Knowledge/interpolation_criterion.html" xlink:title="Interpolation Criteria" target="_parent">
<path fill="#273434" stroke="#b75867" d="M111,-36C111,-36 12,-36 12,-36 6,-36 0,-30 0,-24 0,-24 0,-12 0,-12 0,-6 6,0 12,0 12,0 111,0 111,0 117,0 123,-6 123,-12 123,-12 123,-24 123,-24 123,-30 117,-36 111,-36"/>
<text text-anchor="middle" x="61.5" y="-14.9" font-family="sans" font-size="12.00" fill="#c4c7c7">Interpolation Criteria</text>
</a>
</g>
</g>
</g>
</svg>
