<?xml version="1.0" encoding="UTF-8" standalone="no"?>
<!DOCTYPE svg PUBLIC "-//W3C//DTD SVG 1.1//EN"
 "http://www.w3.org/Graphics/SVG/1.1/DTD/svg11.dtd">
<!-- Generated by graphviz version 2.44.0 (0)
 -->
<!-- Title: Introduction to programming Pages: 1 -->
<svg width="566pt" height="636pt"
 viewBox="0.00 0.00 566.00 636.00" xmlns="http://www.w3.org/2000/svg" xmlns:xlink="http://www.w3.org/1999/xlink">
<g id="graph0" class="graph" transform="scale(1 1) rotate(0) translate(4 632)">
<title>Introduction to programming</title>
<polygon fill="#132020" stroke="transparent" points="-4,4 -4,-632 562,-632 562,4 -4,4"/>
<!-- Introduction to programming -->
<g id="node1" class="node">
<title>Introduction to programming</title>
<g id="a_node1"><a xlink:href="/Knowledge/Introduction to programming.html" xlink:title="Introduction to programming" target="_parent">
<path fill="#273434" stroke="#b75867" d="M171,-313C171,-313 12,-313 12,-313 6,-313 0,-307 0,-301 0,-301 0,-289 0,-289 0,-283 6,-277 12,-277 12,-277 171,-277 171,-277 177,-277 183,-283 183,-289 183,-289 183,-301 183,-301 183,-307 177,-313 171,-313"/>
<text text-anchor="middle" x="91.5" y="-291.9" font-family="sans" font-size="12.00" fill="#c4c7c7">Introduction to programming</text>
</a>
</g>
</g>
<!-- Knowledege Base -->
<g id="node2" class="node">
<title>Knowledege Base</title>
<g id="a_node2"><a xlink:href="/Knowledge/Knowledege Base.html" xlink:title="Knowledege Base" target="_parent">
<path fill="none" stroke="#b75867" d="M296,-313C296,-313 203,-313 203,-313 197,-313 191,-307 191,-301 191,-301 191,-289 191,-289 191,-283 197,-277 203,-277 203,-277 296,-277 296,-277 302,-277 308,-283 308,-289 308,-289 308,-301 308,-301 308,-307 302,-313 296,-313"/>
<text text-anchor="middle" x="249.5" y="-291.9" font-family="sans" font-size="12.00" fill="#c4c7c7">Knowledege Base</text>
</a>
</g>
</g>
<!-- Introduction to programming&#45;&gt;Knowledege Base -->
<g id="edge1" class="edge">
<title>Introduction to programming&#45;&gt;Knowledege Base</title>
<path fill="none" stroke="#ffffff" d="M190.35,-295C190.51,-295 190.66,-295 190.82,-295"/>
<polygon fill="#ffffff" stroke="#ffffff" points="193.25,-291.5 183.25,-295 193.25,-298.5 193.25,-291.5"/>
</g>
<!-- Knowledege Base&#45;&gt;Introduction to programming -->
<g id="edge14" class="edge">
<title>Knowledege Base&#45;&gt;Introduction to programming</title>
<path fill="none" stroke="#b75867" d="M190.82,-295.73C190.66,-295.73 190.51,-295.73 190.35,-295.73"/>
<polygon fill="#b75867" stroke="#b75867" points="193.24,-292.22 183.25,-295.74 193.25,-299.22 193.24,-292.22"/>
</g>
<!-- Computer Architectures -->
<g id="node3" class="node">
<title>Computer Architectures</title>
<g id="a_node3"><a xlink:href="/Knowledge/Computer Architectures.html" xlink:title="Computer Architectures" target="_parent">
<path fill="#273434" stroke="#b75867" d="M500.5,-628C500.5,-628 373.5,-628 373.5,-628 367.5,-628 361.5,-622 361.5,-616 361.5,-616 361.5,-604 361.5,-604 361.5,-598 367.5,-592 373.5,-592 373.5,-592 500.5,-592 500.5,-592 506.5,-592 512.5,-598 512.5,-604 512.5,-604 512.5,-616 512.5,-616 512.5,-622 506.5,-628 500.5,-628"/>
<text text-anchor="middle" x="437" y="-606.9" font-family="sans" font-size="12.00" fill="#c4c7c7">Computer Architectures</text>
</a>
</g>
</g>
<!-- Knowledege Base&#45;&gt;Computer Architectures -->
<g id="edge2" class="edge">
<title>Knowledege Base&#45;&gt;Computer Architectures</title>
<path fill="none" stroke="#b75867" d="M252,-313.36C257.13,-371.4 275.9,-549.42 316,-588 325.89,-597.51 338.45,-603.62 351.71,-607.44"/>
<polygon fill="#b75867" stroke="#b75867" points="350.91,-610.84 361.46,-609.83 352.58,-604.04 350.91,-610.84"/>
</g>
<!-- Numeric Methods -->
<g id="node4" class="node">
<title>Numeric Methods</title>
<g id="a_node4"><a xlink:href="/Knowledge/Numeric Methods.html" xlink:title="Numeric Methods" target="_parent">
<path fill="#273434" stroke="#b75867" d="M483,-591C483,-591 391,-591 391,-591 385,-591 379,-585 379,-579 379,-579 379,-567 379,-567 379,-561 385,-555 391,-555 391,-555 483,-555 483,-555 489,-555 495,-561 495,-567 495,-567 495,-579 495,-579 495,-585 489,-591 483,-591"/>
<text text-anchor="middle" x="437" y="-569.9" font-family="sans" font-size="12.00" fill="#c4c7c7">Numeric Methods</text>
</a>
</g>
</g>
<!-- Knowledege Base&#45;&gt;Numeric Methods -->
<g id="edge3" class="edge">
<title>Knowledege Base&#45;&gt;Numeric Methods</title>
<path fill="none" stroke="#b75867" d="M252.63,-313.26C259.17,-366.2 280.7,-518.06 316,-551 330.24,-564.29 349.74,-570.87 368.88,-573.85"/>
<polygon fill="#b75867" stroke="#b75867" points="368.46,-577.32 378.82,-575.09 369.33,-570.38 368.46,-577.32"/>
</g>
<!-- Design and Analysis of Algorithms -->
<g id="node5" class="node">
<title>Design and Analysis of Algorithms</title>
<g id="a_node5"><a xlink:href="/Knowledge/Design and Analysis of Algorithms.html" xlink:title="Design and Analysis of Algorithms" target="_parent">
<path fill="#273434" stroke="#b75867" d="M528,-554C528,-554 346,-554 346,-554 340,-554 334,-548 334,-542 334,-542 334,-530 334,-530 334,-524 340,-518 346,-518 346,-518 528,-518 528,-518 534,-518 540,-524 540,-530 540,-530 540,-542 540,-542 540,-548 534,-554 528,-554"/>
<text text-anchor="middle" x="437" y="-532.9" font-family="sans" font-size="12.00" fill="#c4c7c7">Design and Analysis of Algorithms</text>
</a>
</g>
</g>
<!-- Knowledege Base&#45;&gt;Design and Analysis of Algorithms -->
<g id="edge4" class="edge">
<title>Knowledege Base&#45;&gt;Design and Analysis of Algorithms</title>
<path fill="none" stroke="#b75867" d="M250.05,-313.29C250.07,-355.6 256.45,-460.63 316,-514 318.85,-516.55 321.89,-518.86 325.09,-520.93"/>
<polygon fill="#b75867" stroke="#b75867" points="323.46,-524.03 333.89,-525.9 326.9,-517.94 323.46,-524.03"/>
</g>
<!-- Logic Programming -->
<g id="node6" class="node">
<title>Logic Programming</title>
<g id="a_node6"><a xlink:href="/Knowledge/Logic Programming.html" xlink:title="Logic Programming" target="_parent">
<path fill="#273434" stroke="#b75867" d="M488,-517C488,-517 386,-517 386,-517 380,-517 374,-511 374,-505 374,-505 374,-493 374,-493 374,-487 380,-481 386,-481 386,-481 488,-481 488,-481 494,-481 500,-487 500,-493 500,-493 500,-505 500,-505 500,-511 494,-517 488,-517"/>
<text text-anchor="middle" x="437" y="-495.9" font-family="sans" font-size="12.00" fill="#c4c7c7">Logic Programming</text>
</a>
</g>
</g>
<!-- Knowledege Base&#45;&gt;Logic Programming -->
<g id="edge5" class="edge">
<title>Knowledege Base&#45;&gt;Logic Programming</title>
<path fill="none" stroke="#b75867" d="M251.31,-313.01C254.01,-349.93 265.67,-434.32 316,-477 329.3,-488.28 346.46,-494.58 363.62,-497.94"/>
<polygon fill="#b75867" stroke="#b75867" points="363.26,-501.42 373.69,-499.59 364.39,-494.52 363.26,-501.42"/>
</g>
<!-- Data Structures -->
<g id="node7" class="node">
<title>Data Structures</title>
<g id="a_node7"><a xlink:href="/Knowledge/Data Structures.html" xlink:title="Data Structures" target="_parent">
<path fill="#273434" stroke="#b75867" d="M477,-480C477,-480 397,-480 397,-480 391,-480 385,-474 385,-468 385,-468 385,-456 385,-456 385,-450 391,-444 397,-444 397,-444 477,-444 477,-444 483,-444 489,-450 489,-456 489,-456 489,-468 489,-468 489,-474 483,-480 477,-480"/>
<text text-anchor="middle" x="437" y="-458.9" font-family="sans" font-size="12.00" fill="#c4c7c7">Data Structures</text>
</a>
</g>
</g>
<!-- Knowledege Base&#45;&gt;Data Structures -->
<g id="edge6" class="edge">
<title>Knowledege Base&#45;&gt;Data Structures</title>
<path fill="none" stroke="#b75867" d="M253.25,-313.48C258.95,-344.8 275.1,-408 316,-440 332.55,-452.95 354.31,-459.17 374.74,-461.92"/>
<polygon fill="#b75867" stroke="#b75867" points="374.63,-465.43 384.95,-463.04 375.39,-458.47 374.63,-465.43"/>
</g>
<!-- Languages, Automata and Computation -->
<g id="node8" class="node">
<title>Languages, Automata and Computation</title>
<g id="a_node8"><a xlink:href="/Knowledge/Languages, Automata and Computation.html" xlink:title="Languages, Automata and Computation" target="_parent">
<path fill="#273434" stroke="#b75867" d="M546,-443C546,-443 328,-443 328,-443 322,-443 316,-437 316,-431 316,-431 316,-419 316,-419 316,-413 322,-407 328,-407 328,-407 546,-407 546,-407 552,-407 558,-413 558,-419 558,-419 558,-431 558,-431 558,-437 552,-443 546,-443"/>
<text text-anchor="middle" x="437" y="-421.9" font-family="sans" font-size="12.00" fill="#c4c7c7">Languages, Automata and Computation</text>
</a>
</g>
</g>
<!-- Knowledege Base&#45;&gt;Languages, Automata and Computation -->
<g id="edge7" class="edge">
<title>Knowledege Base&#45;&gt;Languages, Automata and Computation</title>
<path fill="none" stroke="#b75867" d="M256.23,-313.21C264.32,-335.95 281.27,-374.66 314.01,-400.87"/>
<polygon fill="#b75867" stroke="#b75867" points="312.07,-403.78 322.19,-406.91 316.23,-398.15 312.07,-403.78"/>
</g>
<!-- Operations Research -->
<g id="node9" class="node">
<title>Operations Research</title>
<g id="a_node9"><a xlink:href="/Knowledge/Operations Research.html" xlink:title="Operations Research" target="_parent">
<path fill="#273434" stroke="#b75867" d="M491.5,-406C491.5,-406 382.5,-406 382.5,-406 376.5,-406 370.5,-400 370.5,-394 370.5,-394 370.5,-382 370.5,-382 370.5,-376 376.5,-370 382.5,-370 382.5,-370 491.5,-370 491.5,-370 497.5,-370 503.5,-376 503.5,-382 503.5,-382 503.5,-394 503.5,-394 503.5,-400 497.5,-406 491.5,-406"/>
<text text-anchor="middle" x="437" y="-384.9" font-family="sans" font-size="12.00" fill="#c4c7c7">Operations Research</text>
</a>
</g>
</g>
<!-- Knowledege Base&#45;&gt;Operations Research -->
<g id="edge8" class="edge">
<title>Knowledege Base&#45;&gt;Operations Research</title>
<path fill="none" stroke="#b75867" d="M262.19,-313.26C273.77,-329.77 293.08,-353.38 316,-366 329.47,-373.42 344.95,-378.4 360.22,-381.73"/>
<polygon fill="#b75867" stroke="#b75867" points="359.71,-385.19 370.19,-383.69 361.06,-378.33 359.71,-385.19"/>
</g>
<!-- Differential Equations -->
<g id="node10" class="node">
<title>Differential Equations</title>
<g id="a_node10"><a xlink:href="/Knowledge/Differential Equations.html" xlink:title="Differential Equations" target="_parent">
<path fill="#273434" stroke="#b75867" d="M494,-369C494,-369 380,-369 380,-369 374,-369 368,-363 368,-357 368,-357 368,-345 368,-345 368,-339 374,-333 380,-333 380,-333 494,-333 494,-333 500,-333 506,-339 506,-345 506,-345 506,-357 506,-357 506,-363 500,-369 494,-369"/>
<text text-anchor="middle" x="437" y="-347.9" font-family="sans" font-size="12.00" fill="#c4c7c7">Differential Equations</text>
</a>
</g>
</g>
<!-- Knowledege Base&#45;&gt;Differential Equations -->
<g id="edge9" class="edge">
<title>Knowledege Base&#45;&gt;Differential Equations</title>
<path fill="none" stroke="#b75867" d="M280.65,-313.04C291.49,-318.87 304,-324.89 316,-329 329.22,-333.53 343.6,-337.19 357.66,-340.12"/>
<polygon fill="#b75867" stroke="#b75867" points="357.33,-343.62 367.82,-342.13 358.69,-336.75 357.33,-343.62"/>
</g>
<!-- OOP -->
<g id="node11" class="node">
<title>OOP</title>
<g id="a_node11"><a xlink:href="/Knowledge/OOP.html" xlink:title="OOP" target="_parent">
<path fill="#273434" stroke="#b75867" d="M452,-332C452,-332 422,-332 422,-332 416,-332 410,-326 410,-320 410,-320 410,-308 410,-308 410,-302 416,-296 422,-296 422,-296 452,-296 452,-296 458,-296 464,-302 464,-308 464,-308 464,-320 464,-320 464,-326 458,-332 452,-332"/>
<text text-anchor="middle" x="437" y="-310.9" font-family="sans" font-size="12.00" fill="#c4c7c7">OOP</text>
</a>
</g>
</g>
<!-- Knowledege Base&#45;&gt;OOP -->
<g id="edge10" class="edge">
<title>Knowledege Base&#45;&gt;OOP</title>
<path fill="none" stroke="#b75867" d="M308.18,-300.91C338.09,-303.97 373.71,-307.62 399.74,-310.29"/>
<polygon fill="#b75867" stroke="#b75867" points="399.61,-313.79 409.91,-311.33 400.32,-306.83 399.61,-313.79"/>
</g>
<!-- Discrete Structures -->
<g id="node12" class="node">
<title>Discrete Structures</title>
<g id="a_node12"><a xlink:href="/Knowledge/Discrete Structures.html" xlink:title="Discrete Structures" target="_parent">
<path fill="#273434" stroke="#b75867" d="M486,-295C486,-295 388,-295 388,-295 382,-295 376,-289 376,-283 376,-283 376,-271 376,-271 376,-265 382,-259 388,-259 388,-259 486,-259 486,-259 492,-259 498,-265 498,-271 498,-271 498,-283 498,-283 498,-289 492,-295 486,-295"/>
<text text-anchor="middle" x="437" y="-273.9" font-family="sans" font-size="12.00" fill="#c4c7c7">Discrete Structures</text>
</a>
</g>
</g>
<!-- Knowledege Base&#45;&gt;Discrete Structures -->
<g id="edge11" class="edge">
<title>Knowledege Base&#45;&gt;Discrete Structures</title>
<path fill="none" stroke="#b75867" d="M308.18,-289.4C326.39,-287.64 346.71,-285.66 365.7,-283.82"/>
<polygon fill="#b75867" stroke="#b75867" points="366.18,-287.29 375.79,-282.84 365.5,-280.32 366.18,-287.29"/>
</g>
<!-- Advanced Algebra -->
<g id="node13" class="node">
<title>Advanced Algebra</title>
<g id="a_node13"><a xlink:href="/Knowledge/Advanced Algebra.html" xlink:title="Advanced Algebra" target="_parent">
<path fill="#273434" stroke="#b75867" d="M484.5,-258C484.5,-258 389.5,-258 389.5,-258 383.5,-258 377.5,-252 377.5,-246 377.5,-246 377.5,-234 377.5,-234 377.5,-228 383.5,-222 389.5,-222 389.5,-222 484.5,-222 484.5,-222 490.5,-222 496.5,-228 496.5,-234 496.5,-234 496.5,-246 496.5,-246 496.5,-252 490.5,-258 484.5,-258"/>
<text text-anchor="middle" x="437" y="-236.9" font-family="sans" font-size="12.00" fill="#c4c7c7">Advanced Algebra</text>
</a>
</g>
</g>
<!-- Knowledege Base&#45;&gt;Advanced Algebra -->
<g id="edge12" class="edge">
<title>Knowledege Base&#45;&gt;Advanced Algebra</title>
<path fill="none" stroke="#b75867" d="M282.03,-276.83C292.56,-271.39 304.53,-265.85 316,-262 332.36,-256.5 350.47,-252.28 367.56,-249.07"/>
<polygon fill="#b75867" stroke="#b75867" points="368.25,-252.5 377.47,-247.3 367.01,-245.61 368.25,-252.5"/>
</g>
<!-- Differential Analysis -->
<g id="node14" class="node">
<title>Differential Analysis</title>
<g id="a_node14"><a xlink:href="/Knowledge/Differential Analysis.html" xlink:title="Differential Analysis" target="_parent">
<path fill="#273434" stroke="#b75867" d="M488.5,-221C488.5,-221 385.5,-221 385.5,-221 379.5,-221 373.5,-215 373.5,-209 373.5,-209 373.5,-197 373.5,-197 373.5,-191 379.5,-185 385.5,-185 385.5,-185 488.5,-185 488.5,-185 494.5,-185 500.5,-191 500.5,-197 500.5,-197 500.5,-209 500.5,-209 500.5,-215 494.5,-221 488.5,-221"/>
<text text-anchor="middle" x="437" y="-199.9" font-family="sans" font-size="12.00" fill="#c4c7c7">Differential Analysis</text>
</a>
</g>
</g>
<!-- Knowledege Base&#45;&gt;Differential Analysis -->
<g id="edge13" class="edge">
<title>Knowledege Base&#45;&gt;Differential Analysis</title>
<path fill="none" stroke="#b75867" d="M262.24,-277C273.88,-260.72 293.21,-237.45 316,-225 330.39,-217.14 347.06,-212.02 363.3,-208.7"/>
<polygon fill="#b75867" stroke="#b75867" points="364.13,-212.11 373.34,-206.86 362.87,-205.22 364.13,-212.11"/>
</g>
<!-- Knowledege Base&#45;&gt;Differential Analysis -->
<g id="edge17" class="edge">
<title>Knowledege Base&#45;&gt;Differential Analysis</title>
<path fill="none" stroke="#b75867" d="M262.92,-276.84C274.62,-260.83 293.65,-238.21 316,-226 330.39,-218.14 347.06,-213.02 363.3,-209.68"/>
<polygon fill="#b75867" stroke="#b75867" points="364.14,-213.08 373.34,-207.82 362.87,-206.2 364.14,-213.08"/>
</g>
<!-- Analytic Geometry -->
<g id="node15" class="node">
<title>Analytic Geometry</title>
<g id="a_node15"><a xlink:href="/Knowledge/Analytic Geometry.html" xlink:title="Analytic Geometry" target="_parent">
<path fill="#273434" stroke="#b75867" d="M485.5,-184C485.5,-184 388.5,-184 388.5,-184 382.5,-184 376.5,-178 376.5,-172 376.5,-172 376.5,-160 376.5,-160 376.5,-154 382.5,-148 388.5,-148 388.5,-148 485.5,-148 485.5,-148 491.5,-148 497.5,-154 497.5,-160 497.5,-160 497.5,-172 497.5,-172 497.5,-178 491.5,-184 485.5,-184"/>
<text text-anchor="middle" x="437" y="-162.9" font-family="sans" font-size="12.00" fill="#c4c7c7">Analytic Geometry</text>
</a>
</g>
</g>
<!-- Knowledege Base&#45;&gt;Analytic Geometry -->
<g id="edge15" class="edge">
<title>Knowledege Base&#45;&gt;Analytic Geometry</title>
<path fill="none" stroke="#b75867" d="M256.28,-276.95C265.07,-252.61 284.21,-209.81 316,-188 330.67,-177.93 348.64,-172.1 366.16,-168.81"/>
<polygon fill="#b75867" stroke="#b75867" points="367.08,-172.21 376.39,-167.16 365.96,-165.3 367.08,-172.21"/>
</g>
<!-- Linear Algebra -->
<g id="node16" class="node">
<title>Linear Algebra</title>
<g id="a_node16"><a xlink:href="/Knowledge/Linear Algebra.html" xlink:title="Linear Algebra" target="_parent">
<path fill="#273434" stroke="#b75867" d="M474,-147C474,-147 400,-147 400,-147 394,-147 388,-141 388,-135 388,-135 388,-123 388,-123 388,-117 394,-111 400,-111 400,-111 474,-111 474,-111 480,-111 486,-117 486,-123 486,-123 486,-135 486,-135 486,-141 480,-147 474,-147"/>
<text text-anchor="middle" x="437" y="-125.9" font-family="sans" font-size="12.00" fill="#c4c7c7">Linear Algebra</text>
</a>
</g>
</g>
<!-- Knowledege Base&#45;&gt;Linear Algebra -->
<g id="edge16" class="edge">
<title>Knowledege Base&#45;&gt;Linear Algebra</title>
<path fill="none" stroke="#b75867" d="M253.29,-276.64C259.05,-245.53 275.29,-182.76 316,-151 333.44,-137.39 356.63,-131.22 377.97,-128.69"/>
<polygon fill="#b75867" stroke="#b75867" points="378.31,-132.18 387.94,-127.75 377.65,-125.21 378.31,-132.18"/>
</g>
<!-- Org Roam -->
<g id="node17" class="node">
<title>Org Roam</title>
<g id="a_node17"><a xlink:href="/Knowledge/Org Roam.html" xlink:title="Org Roam" target="_parent">
<path fill="#273434" stroke="#b75867" d="M461,-110C461,-110 413,-110 413,-110 407,-110 401,-104 401,-98 401,-98 401,-86 401,-86 401,-80 407,-74 413,-74 413,-74 461,-74 461,-74 467,-74 473,-80 473,-86 473,-86 473,-98 473,-98 473,-104 467,-110 461,-110"/>
<text text-anchor="middle" x="437" y="-88.9" font-family="sans" font-size="12.00" fill="#c4c7c7">Org Roam</text>
</a>
</g>
</g>
<!-- Knowledege Base&#45;&gt;Org Roam -->
<g id="edge18" class="edge">
<title>Knowledege Base&#45;&gt;Org Roam</title>
<path fill="none" stroke="#b75867" d="M251.37,-276.81C254.17,-239.94 266.01,-156.32 316,-114 336.44,-96.7 365.96,-91.12 390.61,-89.91"/>
<polygon fill="#b75867" stroke="#b75867" points="390.93,-93.4 400.83,-89.63 390.74,-86.4 390.93,-93.4"/>
</g>
<!-- Org&#45;mode -->
<g id="node18" class="node">
<title>Org&#45;mode</title>
<g id="a_node18"><a xlink:href="/Knowledge/Org-mode.html" xlink:title="Org&#45;mode" target="_parent">
<path fill="#273434" stroke="#b75867" d="M462,-73C462,-73 412,-73 412,-73 406,-73 400,-67 400,-61 400,-61 400,-49 400,-49 400,-43 406,-37 412,-37 412,-37 462,-37 462,-37 468,-37 474,-43 474,-49 474,-49 474,-61 474,-61 474,-67 468,-73 462,-73"/>
<text text-anchor="middle" x="437" y="-51.9" font-family="sans" font-size="12.00" fill="#c4c7c7">Org&#45;mode</text>
</a>
</g>
</g>
<!-- Knowledege Base&#45;&gt;Org&#45;mode -->
<g id="edge19" class="edge">
<title>Knowledege Base&#45;&gt;Org&#45;mode</title>
<path fill="none" stroke="#b75867" d="M250.07,-276.79C250.16,-234.67 256.67,-130.11 316,-77 335.82,-59.26 365.06,-53.63 389.72,-52.5"/>
<polygon fill="#b75867" stroke="#b75867" points="390.05,-55.99 399.97,-52.27 389.89,-48.99 390.05,-55.99"/>
</g>
<!-- Projects -->
<g id="node19" class="node">
<title>Projects</title>
<g id="a_node19"><a xlink:href="/Knowledge/Projects.html" xlink:title="Projects" target="_parent">
<path fill="none" stroke="#b75867" d="M456,-36C456,-36 418,-36 418,-36 412,-36 406,-30 406,-24 406,-24 406,-12 406,-12 406,-6 412,0 418,0 418,0 456,0 456,0 462,0 468,-6 468,-12 468,-12 468,-24 468,-24 468,-30 462,-36 456,-36"/>
<text text-anchor="middle" x="437" y="-14.9" font-family="sans" font-size="12.00" fill="#c4c7c7">Projects</text>
</a>
</g>
</g>
<!-- Knowledege Base&#45;&gt;Projects -->
<g id="edge20" class="edge">
<title>Knowledege Base&#45;&gt;Projects</title>
<path fill="none" stroke="#ffffff" d="M253.95,-266.57C261.78,-206.75 282.87,-70.88 316,-40 340.01,-17.61 378.94,-14.27 405.92,-15.12"/>
<polygon fill="#ffffff" stroke="#ffffff" points="250.43,-266.44 252.64,-276.81 257.38,-267.33 250.43,-266.44"/>
</g>
</g>
</svg>
