<?xml version="1.0" encoding="UTF-8" standalone="no"?>
<!DOCTYPE svg PUBLIC "-//W3C//DTD SVG 1.1//EN"
 "http://www.w3.org/Graphics/SVG/1.1/DTD/svg11.dtd">
<!-- Generated by graphviz version 2.46.1 (0)
 -->
<!-- Title: kaltask Pages: 1 -->
<svg width="234pt" height="155pt"
 viewBox="0.00 0.00 234.00 155.00" xmlns="http://www.w3.org/2000/svg" xmlns:xlink="http://www.w3.org/1999/xlink">
<g id="graph0" class="graph" transform="scale(1 1) rotate(0) translate(4 151)">
<title>kaltask</title>
<polygon fill="#132020" stroke="transparent" points="-4,4 -4,-151 230,-151 230,4 -4,4"/>
<!-- kaltask -->
<g id="node1" class="node">
<title>kaltask</title>
<g id="a_node1"><a xlink:href="/Knowledge/kaltask.html" xlink:title="kaltask" target="_parent">
<path fill="#273434" stroke="#b75867" d="M42,-91C42,-91 12,-91 12,-91 6,-91 0,-85 0,-79 0,-79 0,-67 0,-67 0,-61 6,-55 12,-55 12,-55 42,-55 42,-55 48,-55 54,-61 54,-67 54,-67 54,-79 54,-79 54,-85 48,-91 42,-91"/>
<text text-anchor="middle" x="27" y="-69.9" font-family="sans" font-size="12.00" fill="#c4c7c7">kaltask</text>
</a>
</g>
</g>
<!-- Projects -->
<g id="node2" class="node">
<title>Projects</title>
<g id="a_node2"><a xlink:href="/Knowledge/projects.html" xlink:title="Projects" target="_parent">
<path fill="none" stroke="#b75867" d="M107,-91C107,-91 74,-91 74,-91 68,-91 62,-85 62,-79 62,-79 62,-67 62,-67 62,-61 68,-55 74,-55 74,-55 107,-55 107,-55 113,-55 119,-61 119,-67 119,-67 119,-79 119,-79 119,-85 113,-91 107,-91"/>
<text text-anchor="middle" x="90.5" y="-69.9" font-family="sans" font-size="12.00" fill="#c4c7c7">Projects</text>
</a>
</g>
</g>
<!-- kaltask&#45;&gt;Projects -->
<g id="edge1" class="edge">
<title>kaltask&#45;&gt;Projects</title>
<path fill="none" stroke="#ffffff" d="M61.5,-73C61.67,-73 61.83,-73 62,-73"/>
<polygon fill="#ffffff" stroke="#ffffff" points="64.08,-69.5 54.08,-73 64.08,-76.5 64.08,-69.5"/>
</g>
<!-- Projects&#45;&gt;kaltask -->
<g id="edge4" class="edge">
<title>Projects&#45;&gt;kaltask</title>
<path fill="none" stroke="#b75867" d="M62,-73.75C61.83,-73.75 61.67,-73.75 61.5,-73.75"/>
<polygon fill="#b75867" stroke="#b75867" points="64.08,-70.25 54.08,-73.74 64.08,-77.25 64.08,-70.25"/>
</g>
<!-- pulsebinder -->
<g id="node3" class="node">
<title>pulsebinder</title>
<g id="a_node3"><a xlink:href="/Knowledge/pulsebinder.html" xlink:title="pulsebinder" target="_parent">
<path fill="#273434" stroke="#b75867" d="M203.5,-147C203.5,-147 149.5,-147 149.5,-147 143.5,-147 137.5,-141 137.5,-135 137.5,-135 137.5,-123 137.5,-123 137.5,-117 143.5,-111 149.5,-111 149.5,-111 203.5,-111 203.5,-111 209.5,-111 215.5,-117 215.5,-123 215.5,-123 215.5,-135 215.5,-135 215.5,-141 209.5,-147 203.5,-147"/>
<text text-anchor="middle" x="176.5" y="-125.9" font-family="sans" font-size="12.00" fill="#c4c7c7">pulsebinder</text>
</a>
</g>
</g>
<!-- Projects&#45;&gt;pulsebinder -->
<g id="edge2" class="edge">
<title>Projects&#45;&gt;pulsebinder</title>
<path fill="none" stroke="#b75867" d="M108.17,-91.21C113.8,-96.73 120.36,-102.5 127,-107 127.51,-107.35 128.04,-107.69 128.56,-108.03"/>
<polygon fill="#b75867" stroke="#b75867" points="127.09,-111.23 137.48,-113.28 130.64,-105.2 127.09,-111.23"/>
</g>
<!-- kaltemplate -->
<g id="node4" class="node">
<title>kaltemplate</title>
<g id="a_node4"><a xlink:href="/Knowledge/kaltemplate.html" xlink:title="kaltemplate" target="_parent">
<path fill="#273434" stroke="#b75867" d="M203,-110C203,-110 150,-110 150,-110 144,-110 138,-104 138,-98 138,-98 138,-86 138,-86 138,-80 144,-74 150,-74 150,-74 203,-74 203,-74 209,-74 215,-80 215,-86 215,-86 215,-98 215,-98 215,-104 209,-110 203,-110"/>
<text text-anchor="middle" x="176.5" y="-88.9" font-family="sans" font-size="12.00" fill="#c4c7c7">kaltemplate</text>
</a>
</g>
</g>
<!-- Projects&#45;&gt;kaltemplate -->
<g id="edge3" class="edge">
<title>Projects&#45;&gt;kaltemplate</title>
<path fill="none" stroke="#b75867" d="M119,-79.22C121.92,-79.88 124.95,-80.57 128.02,-81.26"/>
<polygon fill="#b75867" stroke="#b75867" points="127.34,-84.69 137.86,-83.49 128.88,-77.87 127.34,-84.69"/>
</g>
<!-- Knowledge Base -->
<g id="node5" class="node">
<title>Knowledge Base</title>
<g id="a_node5"><a xlink:href="/Knowledge/knowledge_base.html" xlink:title="Knowledge Base" target="_parent">
<path fill="#273434" stroke="#b75867" d="M214,-73C214,-73 139,-73 139,-73 133,-73 127,-67 127,-61 127,-61 127,-49 127,-49 127,-43 133,-37 139,-37 139,-37 214,-37 214,-37 220,-37 226,-43 226,-49 226,-49 226,-61 226,-61 226,-67 220,-73 214,-73"/>
<text text-anchor="middle" x="176.5" y="-51.9" font-family="sans" font-size="12.00" fill="#c4c7c7">Knowledge Base</text>
</a>
</g>
</g>
<!-- Projects&#45;&gt;Knowledge Base -->
<g id="edge5" class="edge">
<title>Projects&#45;&gt;Knowledge Base</title>
<path fill="none" stroke="#b75867" d="M119,-67.11C119.17,-67.07 119.33,-67.04 119.49,-67"/>
<polygon fill="#b75867" stroke="#b75867" points="117.92,-70.92 126.96,-65.4 116.45,-64.07 117.92,-70.92"/>
</g>
<!-- Bad Habit -->
<g id="node6" class="node">
<title>Bad Habit</title>
<g id="a_node6"><a xlink:href="/Knowledge/bad_habit.html" xlink:title="Bad Habit" target="_parent">
<path fill="none" stroke="#b75867" d="M197,-36C197,-36 156,-36 156,-36 150,-36 144,-30 144,-24 144,-24 144,-12 144,-12 144,-6 150,0 156,0 156,0 197,0 197,0 203,0 209,-6 209,-12 209,-12 209,-24 209,-24 209,-30 203,-36 197,-36"/>
<text text-anchor="middle" x="176.5" y="-14.9" font-family="sans" font-size="12.00" fill="#c4c7c7">Bad Habit</text>
</a>
</g>
</g>
<!-- Projects&#45;&gt;Bad Habit -->
<g id="edge6" class="edge">
<title>Projects&#45;&gt;Bad Habit</title>
<path fill="none" stroke="#ffffff" d="M116.54,-47.92C119.92,-45.08 123.45,-42.36 127,-40 132.23,-36.52 138.11,-33.33 143.92,-30.53"/>
<polygon fill="#ffffff" stroke="#ffffff" points="114.11,-45.4 108.97,-54.66 118.76,-50.62 114.11,-45.4"/>
</g>
</g>
</svg>
