<?xml version="1.0" encoding="UTF-8" standalone="no"?>
<!DOCTYPE svg PUBLIC "-//W3C//DTD SVG 1.1//EN"
 "http://www.w3.org/Graphics/SVG/1.1/DTD/svg11.dtd">
<!-- Generated by graphviz version 2.46.1 (0)
 -->
<!-- Title: kaltemplate Pages: 1 -->
<svg width="257pt" height="155pt"
 viewBox="0.00 0.00 257.00 155.00" xmlns="http://www.w3.org/2000/svg" xmlns:xlink="http://www.w3.org/1999/xlink">
<g id="graph0" class="graph" transform="scale(1 1) rotate(0) translate(4 151)">
<title>kaltemplate</title>
<polygon fill="#132020" stroke="transparent" points="-4,4 -4,-151 253,-151 253,4 -4,4"/>
<!-- kaltemplate -->
<g id="node1" class="node">
<title>kaltemplate</title>
<g id="a_node1"><a xlink:href="/Knowledge/kaltemplate.html" xlink:title="kaltemplate" target="_parent">
<path fill="#273434" stroke="#b75867" d="M65,-91C65,-91 12,-91 12,-91 6,-91 0,-85 0,-79 0,-79 0,-67 0,-67 0,-61 6,-55 12,-55 12,-55 65,-55 65,-55 71,-55 77,-61 77,-67 77,-67 77,-79 77,-79 77,-85 71,-91 65,-91"/>
<text text-anchor="middle" x="38.5" y="-69.9" font-family="sans" font-size="12.00" fill="#c4c7c7">kaltemplate</text>
</a>
</g>
</g>
<!-- Projects -->
<g id="node2" class="node">
<title>Projects</title>
<g id="a_node2"><a xlink:href="/Knowledge/projects.html" xlink:title="Projects" target="_parent">
<path fill="none" stroke="#b75867" d="M130,-91C130,-91 97,-91 97,-91 91,-91 85,-85 85,-79 85,-79 85,-67 85,-67 85,-61 91,-55 97,-55 97,-55 130,-55 130,-55 136,-55 142,-61 142,-67 142,-67 142,-79 142,-79 142,-85 136,-91 130,-91"/>
<text text-anchor="middle" x="113.5" y="-69.9" font-family="sans" font-size="12.00" fill="#c4c7c7">Projects</text>
</a>
</g>
</g>
<!-- kaltemplate&#45;&gt;Projects -->
<g id="edge1" class="edge">
<title>kaltemplate&#45;&gt;Projects</title>
<path fill="none" stroke="#ffffff" d="M84.27,-73C84.42,-73 84.57,-73 84.73,-73"/>
<polygon fill="#ffffff" stroke="#ffffff" points="87.28,-69.5 77.28,-73 87.28,-76.5 87.28,-69.5"/>
</g>
<!-- Projects&#45;&gt;kaltemplate -->
<g id="edge3" class="edge">
<title>Projects&#45;&gt;kaltemplate</title>
<path fill="none" stroke="#b75867" d="M84.73,-73.73C84.57,-73.73 84.42,-73.73 84.27,-73.73"/>
<polygon fill="#b75867" stroke="#b75867" points="87.27,-70.23 77.28,-73.75 87.29,-77.23 87.27,-70.23"/>
</g>
<!-- pulsebinder -->
<g id="node3" class="node">
<title>pulsebinder</title>
<g id="a_node3"><a xlink:href="/Knowledge/pulsebinder.html" xlink:title="pulsebinder" target="_parent">
<path fill="#273434" stroke="#b75867" d="M226.5,-147C226.5,-147 172.5,-147 172.5,-147 166.5,-147 160.5,-141 160.5,-135 160.5,-135 160.5,-123 160.5,-123 160.5,-117 166.5,-111 172.5,-111 172.5,-111 226.5,-111 226.5,-111 232.5,-111 238.5,-117 238.5,-123 238.5,-123 238.5,-135 238.5,-135 238.5,-141 232.5,-147 226.5,-147"/>
<text text-anchor="middle" x="199.5" y="-125.9" font-family="sans" font-size="12.00" fill="#c4c7c7">pulsebinder</text>
</a>
</g>
</g>
<!-- Projects&#45;&gt;pulsebinder -->
<g id="edge2" class="edge">
<title>Projects&#45;&gt;pulsebinder</title>
<path fill="none" stroke="#b75867" d="M131.17,-91.21C136.8,-96.73 143.36,-102.5 150,-107 150.51,-107.35 151.04,-107.69 151.56,-108.03"/>
<polygon fill="#b75867" stroke="#b75867" points="150.09,-111.23 160.48,-113.28 153.64,-105.2 150.09,-111.23"/>
</g>
<!-- kaltask -->
<g id="node4" class="node">
<title>kaltask</title>
<g id="a_node4"><a xlink:href="/Knowledge/kaltask.html" xlink:title="kaltask" target="_parent">
<path fill="#273434" stroke="#b75867" d="M214.5,-110C214.5,-110 184.5,-110 184.5,-110 178.5,-110 172.5,-104 172.5,-98 172.5,-98 172.5,-86 172.5,-86 172.5,-80 178.5,-74 184.5,-74 184.5,-74 214.5,-74 214.5,-74 220.5,-74 226.5,-80 226.5,-86 226.5,-86 226.5,-98 226.5,-98 226.5,-104 220.5,-110 214.5,-110"/>
<text text-anchor="middle" x="199.5" y="-88.9" font-family="sans" font-size="12.00" fill="#c4c7c7">kaltask</text>
</a>
</g>
</g>
<!-- Projects&#45;&gt;kaltask -->
<g id="edge4" class="edge">
<title>Projects&#45;&gt;kaltask</title>
<path fill="none" stroke="#b75867" d="M142,-79.22C148.56,-80.7 155.66,-82.31 162.53,-83.86"/>
<polygon fill="#b75867" stroke="#b75867" points="161.83,-87.3 172.36,-86.09 163.38,-80.47 161.83,-87.3"/>
</g>
<!-- Knowledge Base -->
<g id="node5" class="node">
<title>Knowledge Base</title>
<g id="a_node5"><a xlink:href="/Knowledge/knowledge_base.html" xlink:title="Knowledge Base" target="_parent">
<path fill="#273434" stroke="#b75867" d="M237,-73C237,-73 162,-73 162,-73 156,-73 150,-67 150,-61 150,-61 150,-49 150,-49 150,-43 156,-37 162,-37 162,-37 237,-37 237,-37 243,-37 249,-43 249,-49 249,-49 249,-61 249,-61 249,-67 243,-73 237,-73"/>
<text text-anchor="middle" x="199.5" y="-51.9" font-family="sans" font-size="12.00" fill="#c4c7c7">Knowledge Base</text>
</a>
</g>
</g>
<!-- Projects&#45;&gt;Knowledge Base -->
<g id="edge5" class="edge">
<title>Projects&#45;&gt;Knowledge Base</title>
<path fill="none" stroke="#b75867" d="M142,-67.11C142.17,-67.07 142.33,-67.04 142.49,-67"/>
<polygon fill="#b75867" stroke="#b75867" points="140.92,-70.92 149.96,-65.4 139.45,-64.07 140.92,-70.92"/>
</g>
<!-- Bad Habit -->
<g id="node6" class="node">
<title>Bad Habit</title>
<g id="a_node6"><a xlink:href="/Knowledge/bad_habit.html" xlink:title="Bad Habit" target="_parent">
<path fill="none" stroke="#b75867" d="M220,-36C220,-36 179,-36 179,-36 173,-36 167,-30 167,-24 167,-24 167,-12 167,-12 167,-6 173,0 179,0 179,0 220,0 220,0 226,0 232,-6 232,-12 232,-12 232,-24 232,-24 232,-30 226,-36 220,-36"/>
<text text-anchor="middle" x="199.5" y="-14.9" font-family="sans" font-size="12.00" fill="#c4c7c7">Bad Habit</text>
</a>
</g>
</g>
<!-- Projects&#45;&gt;Bad Habit -->
<g id="edge6" class="edge">
<title>Projects&#45;&gt;Bad Habit</title>
<path fill="none" stroke="#ffffff" d="M139.54,-47.92C142.92,-45.08 146.45,-42.36 150,-40 155.23,-36.52 161.11,-33.33 166.92,-30.53"/>
<polygon fill="#ffffff" stroke="#ffffff" points="137.11,-45.4 131.97,-54.66 141.76,-50.62 137.11,-45.4"/>
</g>
</g>
</svg>
