<?xml version="1.0" encoding="UTF-8" standalone="no"?>
<!DOCTYPE svg PUBLIC "-//W3C//DTD SVG 1.1//EN"
 "http://www.w3.org/Graphics/SVG/1.1/DTD/svg11.dtd">
<!-- Generated by graphviz version 2.46.1 (0)
 -->
<!-- Title: Kronecker Delta Pages: 1 -->
<svg width="867pt" height="306pt"
 viewBox="0.00 0.00 867.00 306.00" xmlns="http://www.w3.org/2000/svg" xmlns:xlink="http://www.w3.org/1999/xlink">
<g id="graph0" class="graph" transform="scale(1 1) rotate(0) translate(4 302)">
<title>Kronecker Delta</title>
<polygon fill="#132020" stroke="transparent" points="-4,4 -4,-302 863,-302 863,4 -4,4"/>
<!-- Kronecker Delta -->
<g id="node1" class="node">
<title>Kronecker Delta</title>
<g id="a_node1"><a xlink:href="/Knowledge/kronecker_delta.html" xlink:title="Kronecker Delta" target="_parent">
<path fill="#273434" stroke="#b75867" d="M85,-251C85,-251 12,-251 12,-251 6,-251 0,-245 0,-239 0,-239 0,-227 0,-227 0,-221 6,-215 12,-215 12,-215 85,-215 85,-215 91,-215 97,-221 97,-227 97,-227 97,-239 97,-239 97,-245 91,-251 85,-251"/>
<text text-anchor="middle" x="48.5" y="-229.9" font-family="sans" font-size="12.00" fill="#c4c7c7">Kronecker Delta</text>
</a>
</g>
</g>
<!-- Formula of Lagrange for Interpolation -->
<g id="node2" class="node">
<title>Formula of Lagrange for Interpolation</title>
<g id="a_node2"><a xlink:href="/Knowledge/formula_of_lagrange_for_interpolation.html" xlink:title="Formula of Lagrange for Interpolation" target="_parent">
<path fill="none" stroke="#b75867" d="M300,-241C300,-241 117,-241 117,-241 111,-241 105,-235 105,-229 105,-229 105,-217 105,-217 105,-211 111,-205 117,-205 117,-205 300,-205 300,-205 306,-205 312,-211 312,-217 312,-217 312,-229 312,-229 312,-235 306,-241 300,-241"/>
<text text-anchor="middle" x="208.5" y="-219.9" font-family="sans" font-size="12.00" fill="#c4c7c7">Formula of Lagrange for Interpolation</text>
</a>
</g>
</g>
<!-- Kronecker Delta&#45;&gt;Formula of Lagrange for Interpolation -->
<g id="edge1" class="edge">
<title>Kronecker Delta&#45;&gt;Formula of Lagrange for Interpolation</title>
<path fill="none" stroke="#ffffff" d="M104.35,-229.53C104.51,-229.52 104.66,-229.51 104.82,-229.5"/>
<polygon fill="#ffffff" stroke="#ffffff" points="107.09,-225.85 97.33,-229.97 107.54,-232.83 107.09,-225.85"/>
</g>
<!-- Fundamental polynomials of Lagrange -->
<g id="node3" class="node">
<title>Fundamental polynomials of Lagrange</title>
<g id="a_node3"><a xlink:href="/Knowledge/fundamental_polynomials_of_lagrange.html" xlink:title="Fundamental polynomials of Lagrange" target="_parent">
<path fill="none" stroke="#b75867" d="M786.5,-298C786.5,-298 600.5,-298 600.5,-298 594.5,-298 588.5,-292 588.5,-286 588.5,-286 588.5,-274 588.5,-274 588.5,-268 594.5,-262 600.5,-262 600.5,-262 786.5,-262 786.5,-262 792.5,-262 798.5,-268 798.5,-274 798.5,-274 798.5,-286 798.5,-286 798.5,-292 792.5,-298 786.5,-298"/>
<text text-anchor="middle" x="693.5" y="-276.9" font-family="sans" font-size="12.00" fill="#c4c7c7">Fundamental polynomials of Lagrange</text>
</a>
</g>
</g>
<!-- Kronecker Delta&#45;&gt;Fundamental polynomials of Lagrange -->
<g id="edge2" class="edge">
<title>Kronecker Delta&#45;&gt;Fundamental polynomials of Lagrange</title>
<path fill="none" stroke="#ffffff" d="M107.1,-242.19C280.96,-263.45 472.94,-272.88 588.41,-277.03"/>
<polygon fill="#ffffff" stroke="#ffffff" points="107.35,-238.69 97,-240.94 106.49,-245.64 107.35,-238.69"/>
</g>
<!-- Linear Algebra -->
<g id="node4" class="node">
<title>Linear Algebra</title>
<g id="a_node4"><a xlink:href="/Knowledge/linear_algebra.html" xlink:title="Linear Algebra" target="_parent">
<path fill="none" stroke="#b75867" d="M241,-166C241,-166 176,-166 176,-166 170,-166 164,-160 164,-154 164,-154 164,-142 164,-142 164,-136 170,-130 176,-130 176,-130 241,-130 241,-130 247,-130 253,-136 253,-142 253,-142 253,-154 253,-154 253,-160 247,-166 241,-166"/>
<text text-anchor="middle" x="208.5" y="-144.9" font-family="sans" font-size="12.00" fill="#c4c7c7">Linear Algebra</text>
</a>
</g>
</g>
<!-- Kronecker Delta&#45;&gt;Linear Algebra -->
<g id="edge3" class="edge">
<title>Kronecker Delta&#45;&gt;Linear Algebra</title>
<path fill="none" stroke="#ffffff" d="M91.82,-210.23C117.6,-196.37 150.07,-178.9 174.04,-166"/>
<polygon fill="#ffffff" stroke="#ffffff" points="90.16,-207.15 83.01,-214.97 93.47,-213.32 90.16,-207.15"/>
</g>
<!-- Lagrange Interpolation Problem -->
<g id="node5" class="node">
<title>Lagrange Interpolation Problem</title>
<g id="a_node5"><a xlink:href="/Knowledge/lagrange_interpolation_problem.html" xlink:title="Lagrange Interpolation Problem" target="_parent">
<path fill="none" stroke="#b75867" d="M496.5,-261C496.5,-261 343.5,-261 343.5,-261 337.5,-261 331.5,-255 331.5,-249 331.5,-249 331.5,-237 331.5,-237 331.5,-231 337.5,-225 343.5,-225 343.5,-225 496.5,-225 496.5,-225 502.5,-225 508.5,-231 508.5,-237 508.5,-237 508.5,-249 508.5,-249 508.5,-255 502.5,-261 496.5,-261"/>
<text text-anchor="middle" x="420" y="-239.9" font-family="sans" font-size="12.00" fill="#c4c7c7">Lagrange Interpolation Problem</text>
</a>
</g>
</g>
<!-- Kronecker Delta&#45;&gt;Lagrange Interpolation Problem -->
<g id="edge4" class="edge">
<title>Kronecker Delta&#45;&gt;Lagrange Interpolation Problem</title>
<path fill="none" stroke="#ffffff" d="M107.41,-238.05C188.45,-242.13 270.88,-243.16 331.3,-243.34"/>
<polygon fill="#ffffff" stroke="#ffffff" points="107.18,-234.54 97.02,-237.51 106.82,-241.53 107.18,-234.54"/>
</g>
<!-- Formula of Lagrange for Interpolation&#45;&gt;Kronecker Delta -->
<g id="edge6" class="edge">
<title>Formula of Lagrange for Interpolation&#45;&gt;Kronecker Delta</title>
<path fill="none" stroke="#b75867" d="M104.82,-230.22C104.66,-230.23 104.51,-230.24 104.35,-230.25"/>
<polygon fill="#b75867" stroke="#b75867" points="107.11,-226.57 97.33,-230.67 107.53,-233.56 107.11,-226.57"/>
</g>
<!-- Formula of Lagrange for Interpolation&#45;&gt;Lagrange Interpolation Problem -->
<g id="edge7" class="edge">
<title>Formula of Lagrange for Interpolation&#45;&gt;Lagrange Interpolation Problem</title>
<path fill="none" stroke="#ffffff" d="M322.34,-233.77C325.35,-234.06 328.34,-234.35 331.32,-234.63"/>
<polygon fill="#ffffff" stroke="#ffffff" points="322.39,-230.26 312.1,-232.79 321.72,-237.23 322.39,-230.26"/>
</g>
<!-- Formula of Newton for Interpolation -->
<g id="node6" class="node">
<title>Formula of Newton for Interpolation</title>
<g id="a_node6"><a xlink:href="/Knowledge/formula_of_newton_for_interpolation.html" xlink:title="Formula of Newton for Interpolation" target="_parent">
<path fill="#273434" stroke="#b75867" d="M508,-224C508,-224 332,-224 332,-224 326,-224 320,-218 320,-212 320,-212 320,-200 320,-200 320,-194 326,-188 332,-188 332,-188 508,-188 508,-188 514,-188 520,-194 520,-200 520,-200 520,-212 520,-212 520,-218 514,-224 508,-224"/>
<text text-anchor="middle" x="420" y="-202.9" font-family="sans" font-size="12.00" fill="#c4c7c7">Formula of Newton for Interpolation</text>
</a>
</g>
</g>
<!-- Formula of Lagrange for Interpolation&#45;&gt;Formula of Newton for Interpolation -->
<g id="edge5" class="edge">
<title>Formula of Lagrange for Interpolation&#45;&gt;Formula of Newton for Interpolation</title>
<path fill="none" stroke="#b75867" d="M312.1,-214.67C312.26,-214.66 312.43,-214.65 312.59,-214.63"/>
<polygon fill="#b75867" stroke="#b75867" points="310.19,-218.34 319.88,-214.04 309.63,-211.36 310.19,-218.34"/>
</g>
<!-- Fundamental polynomials of Lagrange&#45;&gt;Kronecker Delta -->
<g id="edge8" class="edge">
<title>Fundamental polynomials of Lagrange&#45;&gt;Kronecker Delta</title>
<path fill="none" stroke="#b75867" d="M588.41,-277.76C472.94,-273.88 280.96,-264.45 107.1,-243.19"/>
<polygon fill="#b75867" stroke="#b75867" points="107.35,-239.69 97,-241.93 106.49,-246.64 107.35,-239.69"/>
</g>
<!-- Fundamental polynomials of Lagrange&#45;&gt;Lagrange Interpolation Problem -->
<g id="edge9" class="edge">
<title>Fundamental polynomials of Lagrange&#45;&gt;Lagrange Interpolation Problem</title>
<path fill="none" stroke="#ffffff" d="M577.72,-265.73C561.04,-263.5 544.08,-261.2 528,-259 521.68,-258.13 515.15,-257.23 508.58,-256.32"/>
<polygon fill="#ffffff" stroke="#ffffff" points="577.69,-269.26 588.06,-267.11 578.61,-262.32 577.69,-269.26"/>
</g>
<!-- Linear Algebra&#45;&gt;Kronecker Delta -->
<g id="edge14" class="edge">
<title>Linear Algebra&#45;&gt;Kronecker Delta</title>
<path fill="none" stroke="#b75867" d="M175.06,-166.07C151.37,-178.97 119,-196.4 93.06,-210.25"/>
<polygon fill="#b75867" stroke="#b75867" points="91.35,-207.19 84.17,-214.98 94.64,-213.37 91.35,-207.19"/>
</g>
<!-- Matrix -->
<g id="node7" class="node">
<title>Matrix</title>
<g id="a_node7"><a xlink:href="/Knowledge/matrix.html" xlink:title="Matrix" target="_parent">
<path fill="#273434" stroke="#b75867" d="M435,-184C435,-184 405,-184 405,-184 399,-184 393,-178 393,-172 393,-172 393,-160 393,-160 393,-154 399,-148 405,-148 405,-148 435,-148 435,-148 441,-148 447,-154 447,-160 447,-160 447,-172 447,-172 447,-178 441,-184 435,-184"/>
<text text-anchor="middle" x="420" y="-162.9" font-family="sans" font-size="12.00" fill="#c4c7c7">Matrix</text>
</a>
</g>
</g>
<!-- Linear Algebra&#45;&gt;Matrix -->
<g id="edge10" class="edge">
<title>Linear Algebra&#45;&gt;Matrix</title>
<path fill="none" stroke="#b75867" d="M253.16,-151.75C291.58,-155.05 346.85,-159.8 382.84,-162.89"/>
<polygon fill="#b75867" stroke="#b75867" points="382.64,-166.39 392.9,-163.76 383.24,-159.41 382.64,-166.39"/>
</g>
<!-- Bijective function -->
<g id="node8" class="node">
<title>Bijective function</title>
<g id="a_node8"><a xlink:href="/Knowledge/bijective_function.html" xlink:title="Bijective function" target="_parent">
<path fill="#273434" stroke="#b75867" d="M460,-147C460,-147 380,-147 380,-147 374,-147 368,-141 368,-135 368,-135 368,-123 368,-123 368,-117 374,-111 380,-111 380,-111 460,-111 460,-111 466,-111 472,-117 472,-123 472,-123 472,-135 472,-135 472,-141 466,-147 460,-147"/>
<text text-anchor="middle" x="420" y="-125.9" font-family="sans" font-size="12.00" fill="#c4c7c7">Bijective function</text>
</a>
</g>
</g>
<!-- Linear Algebra&#45;&gt;Bijective function -->
<g id="edge11" class="edge">
<title>Linear Algebra&#45;&gt;Bijective function</title>
<path fill="none" stroke="#b75867" d="M253.16,-144.04C283.38,-141.3 324.01,-137.61 357.49,-134.58"/>
<polygon fill="#b75867" stroke="#b75867" points="357.99,-138.05 367.63,-133.66 357.36,-131.08 357.99,-138.05"/>
</g>
<!-- Injective function -->
<g id="node9" class="node">
<title>Injective function</title>
<g id="a_node9"><a xlink:href="/Knowledge/injective_function.html" xlink:title="Injective function" target="_parent">
<path fill="#273434" stroke="#b75867" d="M460,-110C460,-110 380,-110 380,-110 374,-110 368,-104 368,-98 368,-98 368,-86 368,-86 368,-80 374,-74 380,-74 380,-74 460,-74 460,-74 466,-74 472,-80 472,-86 472,-86 472,-98 472,-98 472,-104 466,-110 460,-110"/>
<text text-anchor="middle" x="420" y="-88.9" font-family="sans" font-size="12.00" fill="#c4c7c7">Injective function</text>
</a>
</g>
</g>
<!-- Linear Algebra&#45;&gt;Injective function -->
<g id="edge12" class="edge">
<title>Linear Algebra&#45;&gt;Injective function</title>
<path fill="none" stroke="#b75867" d="M253.09,-133.71C273.33,-127.3 297.78,-119.88 320,-114 332.22,-110.77 345.38,-107.62 357.98,-104.76"/>
<polygon fill="#b75867" stroke="#b75867" points="358.94,-108.13 367.94,-102.53 357.42,-101.3 358.94,-108.13"/>
</g>
<!-- Surjective function -->
<g id="node10" class="node">
<title>Surjective function</title>
<g id="a_node10"><a xlink:href="/Knowledge/surjective_function.html" xlink:title="Surjective function" target="_parent">
<path fill="#273434" stroke="#b75867" d="M464,-73C464,-73 376,-73 376,-73 370,-73 364,-67 364,-61 364,-61 364,-49 364,-49 364,-43 370,-37 376,-37 376,-37 464,-37 464,-37 470,-37 476,-43 476,-49 476,-49 476,-61 476,-61 476,-67 470,-73 464,-73"/>
<text text-anchor="middle" x="420" y="-51.9" font-family="sans" font-size="12.00" fill="#c4c7c7">Surjective function</text>
</a>
</g>
</g>
<!-- Linear Algebra&#45;&gt;Surjective function -->
<g id="edge13" class="edge">
<title>Linear Algebra&#45;&gt;Surjective function</title>
<path fill="none" stroke="#b75867" d="M232.29,-129.92C253.75,-113.76 287.38,-90.6 320,-77 330.68,-72.55 342.41,-68.93 353.94,-66.01"/>
<polygon fill="#b75867" stroke="#b75867" points="355.06,-69.34 363.99,-63.63 353.45,-62.53 355.06,-69.34"/>
</g>
<!-- Fundamental Theorem of Algebra -->
<g id="node11" class="node">
<title>Fundamental Theorem of Algebra</title>
<g id="a_node11"><a xlink:href="/Knowledge/fundamental_theorem_of_algebra.html" xlink:title="Fundamental Theorem of Algebra" target="_parent">
<path fill="#273434" stroke="#b75867" d="M774,-150C774,-150 613,-150 613,-150 607,-150 601,-144 601,-138 601,-138 601,-126 601,-126 601,-120 607,-114 613,-114 613,-114 774,-114 774,-114 780,-114 786,-120 786,-126 786,-126 786,-138 786,-138 786,-144 780,-150 774,-150"/>
<text text-anchor="middle" x="693.5" y="-128.9" font-family="sans" font-size="12.00" fill="#c4c7c7">Fundamental Theorem of Algebra</text>
</a>
</g>
</g>
<!-- Linear Algebra&#45;&gt;Fundamental Theorem of Algebra -->
<g id="edge15" class="edge">
<title>Linear Algebra&#45;&gt;Fundamental Theorem of Algebra</title>
<path fill="none" stroke="#b75867" d="M253.2,-164.24C273.25,-170.86 297.51,-177.71 320,-181 341.99,-184.21 502.19,-194.3 520,-181 530.03,-173.51 518.49,-162.14 528,-154 545.45,-139.07 567.98,-131.3 590.73,-127.69"/>
<polygon fill="#b75867" stroke="#b75867" points="591.38,-131.13 600.83,-126.34 590.46,-124.19 591.38,-131.13"/>
</g>
<!-- Subjects -->
<g id="node12" class="node">
<title>Subjects</title>
<g id="a_node12"><a xlink:href="/Knowledge/subjects.html" xlink:title="Subjects" target="_parent">
<path fill="none" stroke="#b75867" d="M438,-36C438,-36 402,-36 402,-36 396,-36 390,-30 390,-24 390,-24 390,-12 390,-12 390,-6 396,0 402,0 402,0 438,0 438,0 444,0 450,-6 450,-12 450,-12 450,-24 450,-24 450,-30 444,-36 438,-36"/>
<text text-anchor="middle" x="420" y="-14.9" font-family="sans" font-size="12.00" fill="#c4c7c7">Subjects</text>
</a>
</g>
</g>
<!-- Linear Algebra&#45;&gt;Subjects -->
<g id="edge16" class="edge">
<title>Linear Algebra&#45;&gt;Subjects</title>
<path fill="none" stroke="#ffffff" d="M228.91,-121.99C248.94,-97.06 282.49,-60.31 320,-40 341.68,-28.26 369.25,-22.78 389.79,-20.23"/>
<polygon fill="#ffffff" stroke="#ffffff" points="226.08,-119.93 222.65,-129.95 231.58,-124.26 226.08,-119.93"/>
</g>
<!-- Lagrange Interpolation Problem&#45;&gt;Kronecker Delta -->
<g id="edge17" class="edge">
<title>Lagrange Interpolation Problem&#45;&gt;Kronecker Delta</title>
<path fill="none" stroke="#b75867" d="M331.3,-244.17C270.88,-244.16 188.45,-243.13 107.41,-239.05"/>
<polygon fill="#b75867" stroke="#b75867" points="107.18,-235.54 97.02,-238.51 106.82,-242.53 107.18,-235.54"/>
</g>
<!-- Lagrange Interpolation Problem&#45;&gt;Formula of Lagrange for Interpolation -->
<g id="edge18" class="edge">
<title>Lagrange Interpolation Problem&#45;&gt;Formula of Lagrange for Interpolation</title>
<path fill="none" stroke="#b75867" d="M331.32,-235.37C328.34,-235.09 325.35,-234.81 322.34,-234.52"/>
<polygon fill="#b75867" stroke="#b75867" points="322.39,-231.01 312.1,-233.54 321.72,-237.98 322.39,-231.01"/>
</g>
<!-- Lagrange Interpolation Problem&#45;&gt;Fundamental polynomials of Lagrange -->
<g id="edge19" class="edge">
<title>Lagrange Interpolation Problem&#45;&gt;Fundamental polynomials of Lagrange</title>
<path fill="none" stroke="#b75867" d="M508.58,-255.32C515.15,-256.23 521.68,-257.13 528,-258 544.08,-260.2 561.04,-262.5 577.72,-264.74"/>
<polygon fill="#b75867" stroke="#b75867" points="577.68,-268.27 588.06,-266.13 578.62,-261.33 577.68,-268.27"/>
</g>
<!-- Lagrange Interpolation Problem&#45;&gt;Fundamental Theorem of Algebra -->
<g id="edge20" class="edge">
<title>Lagrange Interpolation Problem&#45;&gt;Fundamental Theorem of Algebra</title>
<path fill="none" stroke="#b75867" d="M508.83,-230.43C512.92,-227.77 516.69,-224.66 520,-221 540.12,-198.76 506.94,-175.35 528,-154 544.55,-137.21 567.32,-128.91 590.65,-125.38"/>
<polygon fill="#b75867" stroke="#b75867" points="591.17,-128.84 600.67,-124.15 590.31,-121.9 591.17,-128.84"/>
</g>
<!-- Lagrange Interpolation -->
<g id="node13" class="node">
<title>Lagrange Interpolation</title>
<g id="a_node13"><a xlink:href="/Knowledge/lagrange_interpolation.html" xlink:title="Lagrange Interpolation" target="_parent">
<path fill="none" stroke="#b75867" d="M747.5,-261C747.5,-261 639.5,-261 639.5,-261 633.5,-261 627.5,-255 627.5,-249 627.5,-249 627.5,-237 627.5,-237 627.5,-231 633.5,-225 639.5,-225 639.5,-225 747.5,-225 747.5,-225 753.5,-225 759.5,-231 759.5,-237 759.5,-237 759.5,-249 759.5,-249 759.5,-255 753.5,-261 747.5,-261"/>
<text text-anchor="middle" x="693.5" y="-239.9" font-family="sans" font-size="12.00" fill="#c4c7c7">Lagrange Interpolation</text>
</a>
</g>
</g>
<!-- Lagrange Interpolation Problem&#45;&gt;Lagrange Interpolation -->
<g id="edge21" class="edge">
<title>Lagrange Interpolation Problem&#45;&gt;Lagrange Interpolation</title>
<path fill="none" stroke="#ffffff" d="M518.84,-243C554.93,-243 594.91,-243 627.41,-243"/>
<polygon fill="#ffffff" stroke="#ffffff" points="518.77,-239.5 508.77,-243 518.77,-246.5 518.77,-239.5"/>
</g>
<!-- Lagrange Interpolation Polynomial -->
<g id="node14" class="node">
<title>Lagrange Interpolation Polynomial</title>
<g id="a_node14"><a xlink:href="/Knowledge/lagrange_interpolation_polynomial.html" xlink:title="Lagrange Interpolation Polynomial" target="_parent">
<path fill="none" stroke="#b75867" d="M777,-224C777,-224 610,-224 610,-224 604,-224 598,-218 598,-212 598,-212 598,-200 598,-200 598,-194 604,-188 610,-188 610,-188 777,-188 777,-188 783,-188 789,-194 789,-200 789,-200 789,-212 789,-212 789,-218 783,-224 777,-224"/>
<text text-anchor="middle" x="693.5" y="-202.9" font-family="sans" font-size="12.00" fill="#c4c7c7">Lagrange Interpolation Polynomial</text>
</a>
</g>
</g>
<!-- Lagrange Interpolation Problem&#45;&gt;Lagrange Interpolation Polynomial -->
<g id="edge22" class="edge">
<title>Lagrange Interpolation Problem&#45;&gt;Lagrange Interpolation Polynomial</title>
<path fill="none" stroke="#ffffff" d="M518.69,-229.28C521.83,-228.85 524.94,-228.42 528,-228 550.55,-224.91 574.85,-221.63 597.67,-218.58"/>
<polygon fill="#ffffff" stroke="#ffffff" points="518.01,-225.84 508.58,-230.68 518.97,-232.77 518.01,-225.84"/>
</g>
<!-- The Lagrange Interpolation Polynomial of a Polynomial is itself -->
<g id="node15" class="node">
<title>The Lagrange Interpolation Polynomial of a Polynomial is itself</title>
<g id="a_node15"><a xlink:href="/Knowledge/the_lagrange_interpolation_polynomial_of_a_polynomial_is_itself.html" xlink:title="The Lagrange Interpolation Polynomial of a Polynomial is itself" target="_parent">
<path fill="none" stroke="#b75867" d="M847,-187C847,-187 540,-187 540,-187 534,-187 528,-181 528,-175 528,-175 528,-163 528,-163 528,-157 534,-151 540,-151 540,-151 847,-151 847,-151 853,-151 859,-157 859,-163 859,-163 859,-175 859,-175 859,-181 853,-187 847,-187"/>
<text text-anchor="middle" x="693.5" y="-165.9" font-family="sans" font-size="12.00" fill="#c4c7c7">The Lagrange Interpolation Polynomial of a Polynomial is itself</text>
</a>
</g>
</g>
<!-- Lagrange Interpolation Problem&#45;&gt;The Lagrange Interpolation Polynomial of a Polynomial is itself -->
<g id="edge23" class="edge">
<title>Lagrange Interpolation Problem&#45;&gt;The Lagrange Interpolation Polynomial of a Polynomial is itself</title>
<path fill="none" stroke="#ffffff" d="M517.02,-223.67C518.04,-222.82 519.03,-221.93 520,-221 529.96,-211.45 517.64,-200.12 528,-191 529.51,-189.67 531.07,-188.39 532.66,-187.17"/>
<polygon fill="#ffffff" stroke="#ffffff" points="514.82,-220.94 508.69,-229.58 518.87,-226.65 514.82,-220.94"/>
</g>
</g>
</svg>
