<?xml version="1.0" encoding="UTF-8" standalone="no"?>
<!DOCTYPE svg PUBLIC "-//W3C//DTD SVG 1.1//EN"
 "http://www.w3.org/Graphics/SVG/1.1/DTD/svg11.dtd">
<!-- Generated by graphviz version 2.44.0 (0)
 -->
<!-- Title: Kronecker Delta Pages: 1 -->
<svg width="941pt" height="306pt"
 viewBox="0.00 0.00 941.00 306.00" xmlns="http://www.w3.org/2000/svg" xmlns:xlink="http://www.w3.org/1999/xlink">
<g id="graph0" class="graph" transform="scale(1 1) rotate(0) translate(4 302)">
<title>Kronecker Delta</title>
<polygon fill="#132020" stroke="transparent" points="-4,4 -4,-302 937,-302 937,4 -4,4"/>
<!-- Kronecker Delta -->
<g id="node1" class="node">
<title>Kronecker Delta</title>
<g id="a_node1"><a xlink:href="/Knowledge/Kronecker Delta.html" xlink:title="Kronecker Delta" target="_parent">
<path fill="#273434" stroke="#b75867" d="M95,-261C95,-261 12,-261 12,-261 6,-261 0,-255 0,-249 0,-249 0,-237 0,-237 0,-231 6,-225 12,-225 12,-225 95,-225 95,-225 101,-225 107,-231 107,-237 107,-237 107,-249 107,-249 107,-255 101,-261 95,-261"/>
<text text-anchor="middle" x="53.5" y="-239.9" font-family="sans" font-size="12.00" fill="#c4c7c7">Kronecker Delta</text>
</a>
</g>
</g>
<!-- Formula of Lagrange for Interpolation -->
<g id="node2" class="node">
<title>Formula of Lagrange for Interpolation</title>
<g id="a_node2"><a xlink:href="/Knowledge/Formula of Lagrange for Interpolation.html" xlink:title="Formula of Lagrange for Interpolation" target="_parent">
<path fill="none" stroke="#b75867" d="M334,-251C334,-251 127,-251 127,-251 121,-251 115,-245 115,-239 115,-239 115,-227 115,-227 115,-221 121,-215 127,-215 127,-215 334,-215 334,-215 340,-215 346,-221 346,-227 346,-227 346,-239 346,-239 346,-245 340,-251 334,-251"/>
<text text-anchor="middle" x="230.5" y="-229.9" font-family="sans" font-size="12.00" fill="#c4c7c7">Formula of Lagrange for Interpolation</text>
</a>
</g>
</g>
<!-- Kronecker Delta&#45;&gt;Formula of Lagrange for Interpolation -->
<g id="edge1" class="edge">
<title>Kronecker Delta&#45;&gt;Formula of Lagrange for Interpolation</title>
<path fill="none" stroke="#ffffff" d="M114.74,-239.56C114.83,-239.55 114.91,-239.55 115,-239.54"/>
<polygon fill="#ffffff" stroke="#ffffff" points="116.79,-235.93 107.01,-240 117.19,-242.92 116.79,-235.93"/>
</g>
<!-- Linear Algebra -->
<g id="node3" class="node">
<title>Linear Algebra</title>
<g id="a_node3"><a xlink:href="/Knowledge/Linear Algebra.html" xlink:title="Linear Algebra" target="_parent">
<path fill="none" stroke="#b75867" d="M267.5,-184C267.5,-184 193.5,-184 193.5,-184 187.5,-184 181.5,-178 181.5,-172 181.5,-172 181.5,-160 181.5,-160 181.5,-154 187.5,-148 193.5,-148 193.5,-148 267.5,-148 267.5,-148 273.5,-148 279.5,-154 279.5,-160 279.5,-160 279.5,-172 279.5,-172 279.5,-178 273.5,-184 267.5,-184"/>
<text text-anchor="middle" x="230.5" y="-162.9" font-family="sans" font-size="12.00" fill="#c4c7c7">Linear Algebra</text>
</a>
</g>
</g>
<!-- Kronecker Delta&#45;&gt;Linear Algebra -->
<g id="edge2" class="edge">
<title>Kronecker Delta&#45;&gt;Linear Algebra</title>
<path fill="none" stroke="#ffffff" d="M100.67,-220.57C105.5,-218.32 110.34,-216.09 115,-214 137.91,-203.72 163.68,-192.85 184.96,-184.06"/>
<polygon fill="#ffffff" stroke="#ffffff" points="99.03,-217.48 91.48,-224.91 102.02,-223.81 99.03,-217.48"/>
</g>
<!-- Fundamental polynomials of Lagrange -->
<g id="node4" class="node">
<title>Fundamental polynomials of Lagrange</title>
<g id="a_node4"><a xlink:href="/Knowledge/Fundamental polynomials of Lagrange.html" xlink:title="Fundamental polynomials of Lagrange" target="_parent">
<path fill="none" stroke="#b75867" d="M853,-298C853,-298 641,-298 641,-298 635,-298 629,-292 629,-286 629,-286 629,-274 629,-274 629,-268 635,-262 641,-262 641,-262 853,-262 853,-262 859,-262 865,-268 865,-274 865,-274 865,-286 865,-286 865,-292 859,-298 853,-298"/>
<text text-anchor="middle" x="747" y="-276.9" font-family="sans" font-size="12.00" fill="#c4c7c7">Fundamental polynomials of Lagrange</text>
</a>
</g>
</g>
<!-- Kronecker Delta&#45;&gt;Fundamental polynomials of Lagrange -->
<g id="edge3" class="edge">
<title>Kronecker Delta&#45;&gt;Fundamental polynomials of Lagrange</title>
<path fill="none" stroke="#ffffff" d="M117.4,-251.14C301.37,-267.17 504.38,-274.39 628.92,-277.61"/>
<polygon fill="#ffffff" stroke="#ffffff" points="117.53,-247.64 107.26,-250.25 116.92,-254.61 117.53,-247.64"/>
</g>
<!-- Lagrange Interpolation Problem -->
<g id="node5" class="node">
<title>Lagrange Interpolation Problem</title>
<g id="a_node5"><a xlink:href="/Knowledge/Lagrange Interpolation Problem.html" xlink:title="Lagrange Interpolation Problem" target="_parent">
<path fill="none" stroke="#b75867" d="M541,-261C541,-261 366,-261 366,-261 360,-261 354,-255 354,-249 354,-249 354,-237 354,-237 354,-231 360,-225 366,-225 366,-225 541,-225 541,-225 547,-225 553,-231 553,-237 553,-237 553,-249 553,-249 553,-255 547,-261 541,-261"/>
<text text-anchor="middle" x="453.5" y="-239.9" font-family="sans" font-size="12.00" fill="#c4c7c7">Lagrange Interpolation Problem</text>
</a>
</g>
</g>
<!-- Kronecker Delta&#45;&gt;Lagrange Interpolation Problem -->
<g id="edge4" class="edge">
<title>Kronecker Delta&#45;&gt;Lagrange Interpolation Problem</title>
<path fill="none" stroke="#ffffff" d="M117.38,-248.03C219.27,-252.12 246.57,-250.33 346,-248 348.59,-247.94 351.22,-247.87 353.87,-247.79"/>
<polygon fill="#ffffff" stroke="#ffffff" points="117.41,-244.53 107.28,-247.62 117.13,-251.53 117.41,-244.53"/>
</g>
<!-- Formula of Lagrange for Interpolation&#45;&gt;Kronecker Delta -->
<g id="edge5" class="edge">
<title>Formula of Lagrange for Interpolation&#45;&gt;Kronecker Delta</title>
<path fill="none" stroke="#b75867" d="M115,-240.26C114.91,-240.26 114.83,-240.27 114.74,-240.27"/>
<polygon fill="#b75867" stroke="#b75867" points="116.8,-236.66 107.01,-240.69 117.18,-243.65 116.8,-236.66"/>
</g>
<!-- Formula of Lagrange for Interpolation&#45;&gt;Lagrange Interpolation Problem -->
<g id="edge6" class="edge">
<title>Formula of Lagrange for Interpolation&#45;&gt;Lagrange Interpolation Problem</title>
<path fill="none" stroke="#ffffff" d="M353.29,-238.51C353.45,-238.52 353.6,-238.53 353.76,-238.53"/>
<polygon fill="#ffffff" stroke="#ffffff" points="356.36,-235.15 346.21,-238.19 356.04,-242.14 356.36,-235.15"/>
</g>
<!-- Linear Algebra&#45;&gt;Kronecker Delta -->
<g id="edge11" class="edge">
<title>Linear Algebra&#45;&gt;Kronecker Delta</title>
<path fill="none" stroke="#b75867" d="M187.14,-184.06C165.45,-193.1 138.69,-204.36 115,-215 110.95,-216.82 106.76,-218.74 102.56,-220.69"/>
<polygon fill="#b75867" stroke="#b75867" points="100.99,-217.56 93.42,-224.97 103.96,-223.9 100.99,-217.56"/>
</g>
<!-- Matrix -->
<g id="node6" class="node">
<title>Matrix</title>
<g id="a_node6"><a xlink:href="/Knowledge/Matrix.html" xlink:title="Matrix" target="_parent">
<path fill="#273434" stroke="#b75867" d="M468.5,-221C468.5,-221 438.5,-221 438.5,-221 432.5,-221 426.5,-215 426.5,-209 426.5,-209 426.5,-197 426.5,-197 426.5,-191 432.5,-185 438.5,-185 438.5,-185 468.5,-185 468.5,-185 474.5,-185 480.5,-191 480.5,-197 480.5,-197 480.5,-209 480.5,-209 480.5,-215 474.5,-221 468.5,-221"/>
<text text-anchor="middle" x="453.5" y="-199.9" font-family="sans" font-size="12.00" fill="#c4c7c7">Matrix</text>
</a>
</g>
</g>
<!-- Linear Algebra&#45;&gt;Matrix -->
<g id="edge7" class="edge">
<title>Linear Algebra&#45;&gt;Matrix</title>
<path fill="none" stroke="#b75867" d="M279.73,-174.07C320.94,-180.97 379.31,-190.75 416.54,-196.98"/>
<polygon fill="#b75867" stroke="#b75867" points="416,-200.44 426.44,-198.64 417.16,-193.53 416,-200.44"/>
</g>
<!-- Bijective function -->
<g id="node7" class="node">
<title>Bijective function</title>
<g id="a_node7"><a xlink:href="/Knowledge/Bijective function.html" xlink:title="Bijective function" target="_parent">
<path fill="#273434" stroke="#b75867" d="M498.5,-184C498.5,-184 408.5,-184 408.5,-184 402.5,-184 396.5,-178 396.5,-172 396.5,-172 396.5,-160 396.5,-160 396.5,-154 402.5,-148 408.5,-148 408.5,-148 498.5,-148 498.5,-148 504.5,-148 510.5,-154 510.5,-160 510.5,-160 510.5,-172 510.5,-172 510.5,-178 504.5,-184 498.5,-184"/>
<text text-anchor="middle" x="453.5" y="-162.9" font-family="sans" font-size="12.00" fill="#c4c7c7">Bijective function</text>
</a>
</g>
</g>
<!-- Linear Algebra&#45;&gt;Bijective function -->
<g id="edge8" class="edge">
<title>Linear Algebra&#45;&gt;Bijective function</title>
<path fill="none" stroke="#b75867" d="M279.73,-166C310.8,-166 351.64,-166 385.8,-166"/>
<polygon fill="#b75867" stroke="#b75867" points="386.18,-169.5 396.18,-166 386.18,-162.5 386.18,-169.5"/>
</g>
<!-- Injective function -->
<g id="node8" class="node">
<title>Injective function</title>
<g id="a_node8"><a xlink:href="/Knowledge/Injective function.html" xlink:title="Injective function" target="_parent">
<path fill="#273434" stroke="#b75867" d="M498.5,-147C498.5,-147 408.5,-147 408.5,-147 402.5,-147 396.5,-141 396.5,-135 396.5,-135 396.5,-123 396.5,-123 396.5,-117 402.5,-111 408.5,-111 408.5,-111 498.5,-111 498.5,-111 504.5,-111 510.5,-117 510.5,-123 510.5,-123 510.5,-135 510.5,-135 510.5,-141 504.5,-147 498.5,-147"/>
<text text-anchor="middle" x="453.5" y="-125.9" font-family="sans" font-size="12.00" fill="#c4c7c7">Injective function</text>
</a>
</g>
</g>
<!-- Linear Algebra&#45;&gt;Injective function -->
<g id="edge9" class="edge">
<title>Linear Algebra&#45;&gt;Injective function</title>
<path fill="none" stroke="#b75867" d="M279.73,-157.93C310.94,-152.7 351.99,-145.83 386.25,-140.09"/>
<polygon fill="#b75867" stroke="#b75867" points="386.89,-143.53 396.18,-138.43 385.73,-136.63 386.89,-143.53"/>
</g>
<!-- Surjective function -->
<g id="node9" class="node">
<title>Surjective function</title>
<g id="a_node9"><a xlink:href="/Knowledge/Surjective function.html" xlink:title="Surjective function" target="_parent">
<path fill="#273434" stroke="#b75867" d="M502.5,-110C502.5,-110 404.5,-110 404.5,-110 398.5,-110 392.5,-104 392.5,-98 392.5,-98 392.5,-86 392.5,-86 392.5,-80 398.5,-74 404.5,-74 404.5,-74 502.5,-74 502.5,-74 508.5,-74 514.5,-80 514.5,-86 514.5,-86 514.5,-98 514.5,-98 514.5,-104 508.5,-110 502.5,-110"/>
<text text-anchor="middle" x="453.5" y="-88.9" font-family="sans" font-size="12.00" fill="#c4c7c7">Surjective function</text>
</a>
</g>
</g>
<!-- Linear Algebra&#45;&gt;Surjective function -->
<g id="edge10" class="edge">
<title>Linear Algebra&#45;&gt;Surjective function</title>
<path fill="none" stroke="#b75867" d="M269.17,-147.9C293.06,-136.96 324.85,-123.36 354,-114 363.1,-111.08 372.8,-108.4 382.42,-106"/>
<polygon fill="#b75867" stroke="#b75867" points="383.49,-109.34 392.39,-103.6 381.85,-102.54 383.49,-109.34"/>
</g>
<!-- Fundamental Theorem of Algebra -->
<g id="node10" class="node">
<title>Fundamental Theorem of Algebra</title>
<g id="a_node10"><a xlink:href="/Knowledge/Fundamental Theorem of Algebra.html" xlink:title="Fundamental Theorem of Algebra" target="_parent">
<path fill="#273434" stroke="#b75867" d="M839.5,-150C839.5,-150 654.5,-150 654.5,-150 648.5,-150 642.5,-144 642.5,-138 642.5,-138 642.5,-126 642.5,-126 642.5,-120 648.5,-114 654.5,-114 654.5,-114 839.5,-114 839.5,-114 845.5,-114 851.5,-120 851.5,-126 851.5,-126 851.5,-138 851.5,-138 851.5,-144 845.5,-150 839.5,-150"/>
<text text-anchor="middle" x="747" y="-128.9" font-family="sans" font-size="12.00" fill="#c4c7c7">Fundamental Theorem of Algebra</text>
</a>
</g>
</g>
<!-- Linear Algebra&#45;&gt;Fundamental Theorem of Algebra -->
<g id="edge12" class="edge">
<title>Linear Algebra&#45;&gt;Fundamental Theorem of Algebra</title>
<path fill="none" stroke="#b75867" d="M276.39,-184.01C297.64,-192.74 323.28,-203.57 346,-214 349.61,-215.66 350.13,-217.09 354,-218 375.52,-223.08 536.42,-232.63 553,-218 574.49,-199.03 540.67,-174.21 561,-154 579.92,-135.2 605.84,-126.22 632.3,-122.7"/>
<polygon fill="#b75867" stroke="#b75867" points="632.88,-126.16 642.45,-121.61 632.14,-119.2 632.88,-126.16"/>
</g>
<!-- Subjects -->
<g id="node11" class="node">
<title>Subjects</title>
<g id="a_node11"><a xlink:href="/Knowledge/Subjects.html" xlink:title="Subjects" target="_parent">
<path fill="none" stroke="#b75867" d="M474,-73C474,-73 433,-73 433,-73 427,-73 421,-67 421,-61 421,-61 421,-49 421,-49 421,-43 427,-37 433,-37 433,-37 474,-37 474,-37 480,-37 486,-43 486,-49 486,-49 486,-61 486,-61 486,-67 480,-73 474,-73"/>
<text text-anchor="middle" x="453.5" y="-51.9" font-family="sans" font-size="12.00" fill="#c4c7c7">Subjects</text>
</a>
</g>
</g>
<!-- Linear Algebra&#45;&gt;Subjects -->
<g id="edge13" class="edge">
<title>Linear Algebra&#45;&gt;Subjects</title>
<path fill="none" stroke="#ffffff" d="M258.92,-140.96C282.47,-120.76 318.21,-93.16 354,-77 375.24,-67.41 401,-61.85 420.84,-58.72"/>
<polygon fill="#ffffff" stroke="#ffffff" points="256.35,-138.55 251.11,-147.76 260.95,-143.83 256.35,-138.55"/>
</g>
<!-- Knowledege Base -->
<g id="node12" class="node">
<title>Knowledege Base</title>
<g id="a_node12"><a xlink:href="/Knowledge/Knowledege Base.html" xlink:title="Knowledege Base" target="_parent">
<path fill="none" stroke="#b75867" d="M500,-36C500,-36 407,-36 407,-36 401,-36 395,-30 395,-24 395,-24 395,-12 395,-12 395,-6 401,0 407,0 407,0 500,0 500,0 506,0 512,-6 512,-12 512,-12 512,-24 512,-24 512,-30 506,-36 500,-36"/>
<text text-anchor="middle" x="453.5" y="-14.9" font-family="sans" font-size="12.00" fill="#c4c7c7">Knowledege Base</text>
</a>
</g>
</g>
<!-- Linear Algebra&#45;&gt;Knowledege Base -->
<g id="edge14" class="edge">
<title>Linear Algebra&#45;&gt;Knowledege Base</title>
<path fill="none" stroke="#ffffff" d="M249.94,-139.31C271.48,-110.27 309.83,-64.68 354,-40 366.47,-33.03 380.98,-28.27 394.97,-25.02"/>
<polygon fill="#ffffff" stroke="#ffffff" points="246.86,-137.6 243.81,-147.75 252.52,-141.72 246.86,-137.6"/>
</g>
<!-- Fundamental polynomials of Lagrange&#45;&gt;Kronecker Delta -->
<g id="edge15" class="edge">
<title>Fundamental polynomials of Lagrange&#45;&gt;Kronecker Delta</title>
<path fill="none" stroke="#b75867" d="M628.92,-278.35C504.38,-275.38 301.37,-268.17 117.4,-252.14"/>
<polygon fill="#b75867" stroke="#b75867" points="117.53,-248.64 107.26,-251.25 116.92,-255.61 117.53,-248.64"/>
</g>
<!-- Fundamental polynomials of Lagrange&#45;&gt;Lagrange Interpolation Problem -->
<g id="edge16" class="edge">
<title>Fundamental polynomials of Lagrange&#45;&gt;Lagrange Interpolation Problem</title>
<path fill="none" stroke="#ffffff" d="M618.48,-266.19C599.21,-263.86 579.57,-261.41 561,-259 558.41,-258.66 555.78,-258.32 553.13,-257.97"/>
<polygon fill="#ffffff" stroke="#ffffff" points="618.17,-269.68 628.51,-267.4 619,-262.73 618.17,-269.68"/>
</g>
<!-- Lagrange Interpolation Problem&#45;&gt;Kronecker Delta -->
<g id="edge17" class="edge">
<title>Lagrange Interpolation Problem&#45;&gt;Kronecker Delta</title>
<path fill="none" stroke="#b75867" d="M353.87,-248.79C351.22,-248.87 348.59,-248.94 346,-249 246.57,-251.33 219.27,-253.12 117.38,-249.03"/>
<polygon fill="#b75867" stroke="#b75867" points="117.41,-245.53 107.28,-248.62 117.13,-252.53 117.41,-245.53"/>
</g>
<!-- Lagrange Interpolation Problem&#45;&gt;Formula of Lagrange for Interpolation -->
<g id="edge18" class="edge">
<title>Lagrange Interpolation Problem&#45;&gt;Formula of Lagrange for Interpolation</title>
<path fill="none" stroke="#b75867" d="M353.76,-239.28C353.6,-239.27 353.45,-239.26 353.29,-239.26"/>
<polygon fill="#b75867" stroke="#b75867" points="356.35,-235.89 346.21,-238.94 356.04,-242.88 356.35,-235.89"/>
</g>
<!-- Lagrange Interpolation Problem&#45;&gt;Fundamental polynomials of Lagrange -->
<g id="edge19" class="edge">
<title>Lagrange Interpolation Problem&#45;&gt;Fundamental polynomials of Lagrange</title>
<path fill="none" stroke="#b75867" d="M553.13,-256.97C555.78,-257.32 558.41,-257.66 561,-258 579.57,-260.41 599.21,-262.86 618.48,-265.2"/>
<polygon fill="#b75867" stroke="#b75867" points="618.16,-268.69 628.51,-266.41 619.01,-261.74 618.16,-268.69"/>
</g>
<!-- Lagrange Interpolation Problem&#45;&gt;Fundamental Theorem of Algebra -->
<g id="edge20" class="edge">
<title>Lagrange Interpolation Problem&#45;&gt;Fundamental Theorem of Algebra</title>
<path fill="none" stroke="#b75867" d="M549.31,-224.7C550.59,-223.53 551.83,-222.3 553,-221 573.11,-198.75 539.79,-175.2 561,-154 579.86,-135.14 605.77,-126.15 632.23,-122.63"/>
<polygon fill="#b75867" stroke="#b75867" points="632.81,-126.09 642.38,-121.54 632.06,-119.13 632.81,-126.09"/>
</g>
<!-- Lagrange Interpolation Polynomial -->
<g id="node13" class="node">
<title>Lagrange Interpolation Polynomial</title>
<g id="a_node13"><a xlink:href="/Knowledge/Lagrange Interpolation Polynomial.html" xlink:title="Lagrange Interpolation Polynomial" target="_parent">
<path fill="none" stroke="#b75867" d="M842.5,-261C842.5,-261 651.5,-261 651.5,-261 645.5,-261 639.5,-255 639.5,-249 639.5,-249 639.5,-237 639.5,-237 639.5,-231 645.5,-225 651.5,-225 651.5,-225 842.5,-225 842.5,-225 848.5,-225 854.5,-231 854.5,-237 854.5,-237 854.5,-249 854.5,-249 854.5,-255 848.5,-261 842.5,-261"/>
<text text-anchor="middle" x="747" y="-239.9" font-family="sans" font-size="12.00" fill="#c4c7c7">Lagrange Interpolation Polynomial</text>
</a>
</g>
</g>
<!-- Lagrange Interpolation Problem&#45;&gt;Lagrange Interpolation Polynomial -->
<g id="edge21" class="edge">
<title>Lagrange Interpolation Problem&#45;&gt;Lagrange Interpolation Polynomial</title>
<path fill="none" stroke="#ffffff" d="M563.37,-243C588.24,-243 614.65,-243 639.42,-243"/>
<polygon fill="#ffffff" stroke="#ffffff" points="563.19,-239.5 553.19,-243 563.19,-246.5 563.19,-239.5"/>
</g>
<!-- Lagrange Interpolation -->
<g id="node14" class="node">
<title>Lagrange Interpolation</title>
<g id="a_node14"><a xlink:href="/Knowledge/Lagrange Interpolation.html" xlink:title="Lagrange Interpolation" target="_parent">
<path fill="none" stroke="#b75867" d="M808.5,-224C808.5,-224 685.5,-224 685.5,-224 679.5,-224 673.5,-218 673.5,-212 673.5,-212 673.5,-200 673.5,-200 673.5,-194 679.5,-188 685.5,-188 685.5,-188 808.5,-188 808.5,-188 814.5,-188 820.5,-194 820.5,-200 820.5,-200 820.5,-212 820.5,-212 820.5,-218 814.5,-224 808.5,-224"/>
<text text-anchor="middle" x="747" y="-202.9" font-family="sans" font-size="12.00" fill="#c4c7c7">Lagrange Interpolation</text>
</a>
</g>
</g>
<!-- Lagrange Interpolation Problem&#45;&gt;Lagrange Interpolation -->
<g id="edge22" class="edge">
<title>Lagrange Interpolation Problem&#45;&gt;Lagrange Interpolation</title>
<path fill="none" stroke="#ffffff" d="M563.07,-227.75C604.13,-222.46 641.86,-217.95 673.47,-214.26"/>
<polygon fill="#ffffff" stroke="#ffffff" points="562.6,-224.28 553.13,-229.03 563.5,-231.22 562.6,-224.28"/>
</g>
<!-- The Lagrange Interpolation Polynomial of a Polynomial is itself -->
<g id="node15" class="node">
<title>The Lagrange Interpolation Polynomial of a Polynomial is itself</title>
<g id="a_node15"><a xlink:href="/Knowledge/The Lagrange Interpolation Polynomial of a Polynomial is itself.html" xlink:title="The Lagrange Interpolation Polynomial of a Polynomial is itself" target="_parent">
<path fill="none" stroke="#b75867" d="M921,-187C921,-187 573,-187 573,-187 567,-187 561,-181 561,-175 561,-175 561,-163 561,-163 561,-157 567,-151 573,-151 573,-151 921,-151 921,-151 927,-151 933,-157 933,-163 933,-163 933,-175 933,-175 933,-181 927,-187 921,-187"/>
<text text-anchor="middle" x="747" y="-165.9" font-family="sans" font-size="12.00" fill="#c4c7c7">The Lagrange Interpolation Polynomial of a Polynomial is itself</text>
</a>
</g>
</g>
<!-- Lagrange Interpolation Problem&#45;&gt;The Lagrange Interpolation Polynomial of a Polynomial is itself -->
<g id="edge23" class="edge">
<title>Lagrange Interpolation Problem&#45;&gt;The Lagrange Interpolation Polynomial of a Polynomial is itself</title>
<path fill="none" stroke="#ffffff" d="M554.6,-216.61C558.75,-206.74 552.77,-198.13 561,-191 562.59,-189.62 564.22,-188.3 565.88,-187.03"/>
<polygon fill="#ffffff" stroke="#ffffff" points="551.71,-214.64 548.65,-224.79 557.36,-218.76 551.71,-214.64"/>
</g>
</g>
</svg>
