<?xml version="1.0" encoding="UTF-8" standalone="no"?>
<!DOCTYPE svg PUBLIC "-//W3C//DTD SVG 1.1//EN"
 "http://www.w3.org/Graphics/SVG/1.1/DTD/svg11.dtd">
<!-- Generated by graphviz version 2.46.1 (0)
 -->
<!-- Title: Lagrange Interpolation Problem Pages: 1 -->
<svg width="931pt" height="303pt"
 viewBox="0.00 0.00 931.00 303.00" xmlns="http://www.w3.org/2000/svg" xmlns:xlink="http://www.w3.org/1999/xlink">
<g id="graph0" class="graph" transform="scale(1 1) rotate(0) translate(4 299)">
<title>Lagrange Interpolation Problem</title>
<polygon fill="#132020" stroke="transparent" points="-4,4 -4,-299 927,-299 927,4 -4,4"/>
<!-- Lagrange Interpolation Problem -->
<g id="node1" class="node">
<title>Lagrange Interpolation Problem</title>
<g id="a_node1"><a xlink:href="/Knowledge/lagrange_interpolation_problem.html" xlink:title="Lagrange Interpolation Problem" target="_parent">
<path fill="#273434" stroke="#b75867" d="M165,-193C165,-193 12,-193 12,-193 6,-193 0,-187 0,-181 0,-181 0,-169 0,-169 0,-163 6,-157 12,-157 12,-157 165,-157 165,-157 171,-157 177,-163 177,-169 177,-169 177,-181 177,-181 177,-187 171,-193 165,-193"/>
<text text-anchor="middle" x="88.5" y="-171.9" font-family="sans" font-size="12.00" fill="#c4c7c7">Lagrange Interpolation Problem</text>
</a>
</g>
</g>
<!-- Kronecker Delta -->
<g id="node2" class="node">
<title>Kronecker Delta</title>
<g id="a_node2"><a xlink:href="/Knowledge/kronecker_delta.html" xlink:title="Kronecker Delta" target="_parent">
<path fill="#273434" stroke="#b75867" d="M317,-258C317,-258 244,-258 244,-258 238,-258 232,-252 232,-246 232,-246 232,-234 232,-234 232,-228 238,-222 244,-222 244,-222 317,-222 317,-222 323,-222 329,-228 329,-234 329,-234 329,-246 329,-246 329,-252 323,-258 317,-258"/>
<text text-anchor="middle" x="280.5" y="-236.9" font-family="sans" font-size="12.00" fill="#c4c7c7">Kronecker Delta</text>
</a>
</g>
</g>
<!-- Lagrange Interpolation Problem&#45;&gt;Kronecker Delta -->
<g id="edge1" class="edge">
<title>Lagrange Interpolation Problem&#45;&gt;Kronecker Delta</title>
<path fill="none" stroke="#b75867" d="M132.42,-193.14C148.75,-199.76 167.6,-207.07 185,-213 196.85,-217.04 209.67,-220.98 221.94,-224.55"/>
<polygon fill="#b75867" stroke="#b75867" points="221.04,-227.94 231.62,-227.33 222.97,-221.21 221.04,-227.94"/>
</g>
<!-- Formula of Lagrange for Interpolation -->
<g id="node3" class="node">
<title>Formula of Lagrange for Interpolation</title>
<g id="a_node3"><a xlink:href="/Knowledge/formula_of_lagrange_for_interpolation.html" xlink:title="Formula of Lagrange for Interpolation" target="_parent">
<path fill="#273434" stroke="#b75867" d="M641,-295C641,-295 458,-295 458,-295 452,-295 446,-289 446,-283 446,-283 446,-271 446,-271 446,-265 452,-259 458,-259 458,-259 641,-259 641,-259 647,-259 653,-265 653,-271 653,-271 653,-283 653,-283 653,-289 647,-295 641,-295"/>
<text text-anchor="middle" x="549.5" y="-273.9" font-family="sans" font-size="12.00" fill="#c4c7c7">Formula of Lagrange for Interpolation</text>
</a>
</g>
</g>
<!-- Lagrange Interpolation Problem&#45;&gt;Formula of Lagrange for Interpolation -->
<g id="edge2" class="edge">
<title>Lagrange Interpolation Problem&#45;&gt;Formula of Lagrange for Interpolation</title>
<path fill="none" stroke="#b75867" d="M103.77,-193.14C120.71,-213.13 150.99,-244.26 185,-258 264.47,-290.1 361.75,-293.52 435.68,-289.64"/>
<polygon fill="#b75867" stroke="#b75867" points="436.17,-293.12 445.95,-289.04 435.76,-286.13 436.17,-293.12"/>
</g>
<!-- Fundamental polynomials of Lagrange -->
<g id="node4" class="node">
<title>Fundamental polynomials of Lagrange</title>
<g id="a_node4"><a xlink:href="/Knowledge/fundamental_polynomials_of_lagrange.html" xlink:title="Fundamental polynomials of Lagrange" target="_parent">
<path fill="#273434" stroke="#b75867" d="M642.5,-258C642.5,-258 456.5,-258 456.5,-258 450.5,-258 444.5,-252 444.5,-246 444.5,-246 444.5,-234 444.5,-234 444.5,-228 450.5,-222 456.5,-222 456.5,-222 642.5,-222 642.5,-222 648.5,-222 654.5,-228 654.5,-234 654.5,-234 654.5,-246 654.5,-246 654.5,-252 648.5,-258 642.5,-258"/>
<text text-anchor="middle" x="549.5" y="-236.9" font-family="sans" font-size="12.00" fill="#c4c7c7">Fundamental polynomials of Lagrange</text>
</a>
</g>
</g>
<!-- Lagrange Interpolation Problem&#45;&gt;Fundamental polynomials of Lagrange -->
<g id="edge3" class="edge">
<title>Lagrange Interpolation Problem&#45;&gt;Fundamental polynomials of Lagrange</title>
<path fill="none" stroke="#b75867" d="M177.15,-191.72C179.8,-192.16 182.42,-192.59 185,-193 268.28,-206.22 362.74,-218.35 434.5,-226.97"/>
<polygon fill="#b75867" stroke="#b75867" points="434.12,-230.45 444.47,-228.17 434.95,-223.5 434.12,-230.45"/>
</g>
<!-- Fundamental Theorem of Algebra -->
<g id="node5" class="node">
<title>Fundamental Theorem of Algebra</title>
<g id="a_node5"><a xlink:href="/Knowledge/fundamental_theorem_of_algebra.html" xlink:title="Fundamental Theorem of Algebra" target="_parent">
<path fill="#273434" stroke="#b75867" d="M361,-193C361,-193 200,-193 200,-193 194,-193 188,-187 188,-181 188,-181 188,-169 188,-169 188,-163 194,-157 200,-157 200,-157 361,-157 361,-157 367,-157 373,-163 373,-169 373,-169 373,-181 373,-181 373,-187 367,-193 361,-193"/>
<text text-anchor="middle" x="280.5" y="-171.9" font-family="sans" font-size="12.00" fill="#c4c7c7">Fundamental Theorem of Algebra</text>
</a>
</g>
</g>
<!-- Lagrange Interpolation Problem&#45;&gt;Fundamental Theorem of Algebra -->
<g id="edge4" class="edge">
<title>Lagrange Interpolation Problem&#45;&gt;Fundamental Theorem of Algebra</title>
<path fill="none" stroke="#b75867" d="M177.27,-175C177.38,-175 177.49,-175 177.6,-175"/>
<polygon fill="#b75867" stroke="#b75867" points="177.79,-178.5 187.79,-175 177.79,-171.5 177.79,-178.5"/>
</g>
<!-- Lagrange Interpolation -->
<g id="node6" class="node">
<title>Lagrange Interpolation</title>
<g id="a_node6"><a xlink:href="/Knowledge/lagrange_interpolation.html" xlink:title="Lagrange Interpolation" target="_parent">
<path fill="none" stroke="#b75867" d="M334.5,-147C334.5,-147 226.5,-147 226.5,-147 220.5,-147 214.5,-141 214.5,-135 214.5,-135 214.5,-123 214.5,-123 214.5,-117 220.5,-111 226.5,-111 226.5,-111 334.5,-111 334.5,-111 340.5,-111 346.5,-117 346.5,-123 346.5,-123 346.5,-135 346.5,-135 346.5,-141 340.5,-147 334.5,-147"/>
<text text-anchor="middle" x="280.5" y="-125.9" font-family="sans" font-size="12.00" fill="#c4c7c7">Lagrange Interpolation</text>
</a>
</g>
</g>
<!-- Lagrange Interpolation Problem&#45;&gt;Lagrange Interpolation -->
<g id="edge5" class="edge">
<title>Lagrange Interpolation Problem&#45;&gt;Lagrange Interpolation</title>
<path fill="none" stroke="#ffffff" d="M173.88,-154.57C187.47,-151.28 201.36,-147.92 214.41,-144.76"/>
<polygon fill="#ffffff" stroke="#ffffff" points="172.94,-151.2 164.05,-156.95 174.59,-158 172.94,-151.2"/>
</g>
<!-- Lagrange Interpolation Polynomial -->
<g id="node7" class="node">
<title>Lagrange Interpolation Polynomial</title>
<g id="a_node7"><a xlink:href="/Knowledge/lagrange_interpolation_polynomial.html" xlink:title="Lagrange Interpolation Polynomial" target="_parent">
<path fill="none" stroke="#b75867" d="M364,-97C364,-97 197,-97 197,-97 191,-97 185,-91 185,-85 185,-85 185,-73 185,-73 185,-67 191,-61 197,-61 197,-61 364,-61 364,-61 370,-61 376,-67 376,-73 376,-73 376,-85 376,-85 376,-91 370,-97 364,-97"/>
<text text-anchor="middle" x="280.5" y="-75.9" font-family="sans" font-size="12.00" fill="#c4c7c7">Lagrange Interpolation Polynomial</text>
</a>
</g>
</g>
<!-- Lagrange Interpolation Problem&#45;&gt;Lagrange Interpolation Polynomial -->
<g id="edge6" class="edge">
<title>Lagrange Interpolation Problem&#45;&gt;Lagrange Interpolation Polynomial</title>
<path fill="none" stroke="#ffffff" d="M120.69,-150.47C138.71,-137.16 162.27,-121.19 185,-110 194.84,-105.16 205.61,-100.81 216.25,-97.01"/>
<polygon fill="#ffffff" stroke="#ffffff" points="118.21,-147.96 112.31,-156.76 122.41,-153.56 118.21,-147.96"/>
</g>
<!-- The Lagrange Interpolation Polynomial of a Polynomial is itself -->
<g id="node8" class="node">
<title>The Lagrange Interpolation Polynomial of a Polynomial is itself</title>
<g id="a_node8"><a xlink:href="/Knowledge/the_lagrange_interpolation_polynomial_of_a_polynomial_is_itself.html" xlink:title="The Lagrange Interpolation Polynomial of a Polynomial is itself" target="_parent">
<path fill="none" stroke="#b75867" d="M703,-36C703,-36 396,-36 396,-36 390,-36 384,-30 384,-24 384,-24 384,-12 384,-12 384,-6 390,0 396,0 396,0 703,0 703,0 709,0 715,-6 715,-12 715,-12 715,-24 715,-24 715,-30 709,-36 703,-36"/>
<text text-anchor="middle" x="549.5" y="-14.9" font-family="sans" font-size="12.00" fill="#c4c7c7">The Lagrange Interpolation Polynomial of a Polynomial is itself</text>
</a>
</g>
</g>
<!-- Lagrange Interpolation Problem&#45;&gt;The Lagrange Interpolation Polynomial of a Polynomial is itself -->
<g id="edge7" class="edge">
<title>Lagrange Interpolation Problem&#45;&gt;The Lagrange Interpolation Polynomial of a Polynomial is itself</title>
<path fill="none" stroke="#ffffff" d="M103.75,-147.93C119.64,-120.71 148.05,-80.01 185,-60 244.91,-27.55 318.42,-14.92 383.62,-11.19"/>
<polygon fill="#ffffff" stroke="#ffffff" points="100.53,-146.5 98.65,-156.93 106.62,-149.95 100.53,-146.5"/>
</g>
<!-- Kronecker Delta&#45;&gt;Lagrange Interpolation Problem -->
<g id="edge11" class="edge">
<title>Kronecker Delta&#45;&gt;Lagrange Interpolation Problem</title>
<path fill="none" stroke="#ffffff" d="M221.94,-225.53C209.67,-221.98 196.85,-218.04 185,-214 166.76,-207.78 146.91,-200.05 130.06,-193.11"/>
<polygon fill="#ffffff" stroke="#ffffff" points="221.04,-228.91 231.62,-228.28 222.96,-222.18 221.04,-228.91"/>
</g>
<!-- Kronecker Delta&#45;&gt;Formula of Lagrange for Interpolation -->
<g id="edge8" class="edge">
<title>Kronecker Delta&#45;&gt;Formula of Lagrange for Interpolation</title>
<path fill="none" stroke="#ffffff" d="M339.13,-248.56C353.76,-250.7 369.46,-252.96 384,-255 403.97,-257.8 425.32,-260.71 445.8,-263.46"/>
<polygon fill="#ffffff" stroke="#ffffff" points="339.6,-245.09 329.2,-247.11 338.59,-252.02 339.6,-245.09"/>
</g>
<!-- Kronecker Delta&#45;&gt;Fundamental polynomials of Lagrange -->
<g id="edge9" class="edge">
<title>Kronecker Delta&#45;&gt;Fundamental polynomials of Lagrange</title>
<path fill="none" stroke="#ffffff" d="M339.33,-240C370.05,-240 408.74,-240 444.47,-240"/>
<polygon fill="#ffffff" stroke="#ffffff" points="339.23,-236.5 329.23,-240 339.23,-243.5 339.23,-236.5"/>
</g>
<!-- Linear Algebra -->
<g id="node9" class="node">
<title>Linear Algebra</title>
<g id="a_node9"><a xlink:href="/Knowledge/linear_algebra.html" xlink:title="Linear Algebra" target="_parent">
<path fill="none" stroke="#b75867" d="M582,-221C582,-221 517,-221 517,-221 511,-221 505,-215 505,-209 505,-209 505,-197 505,-197 505,-191 511,-185 517,-185 517,-185 582,-185 582,-185 588,-185 594,-191 594,-197 594,-197 594,-209 594,-209 594,-215 588,-221 582,-221"/>
<text text-anchor="middle" x="549.5" y="-199.9" font-family="sans" font-size="12.00" fill="#c4c7c7">Linear Algebra</text>
</a>
</g>
</g>
<!-- Kronecker Delta&#45;&gt;Linear Algebra -->
<g id="edge10" class="edge">
<title>Kronecker Delta&#45;&gt;Linear Algebra</title>
<path fill="none" stroke="#ffffff" d="M339.13,-231.44C353.76,-229.3 369.46,-227.04 384,-225 424.95,-219.27 471.68,-213.05 504.84,-208.69"/>
<polygon fill="#ffffff" stroke="#ffffff" points="338.59,-227.98 329.2,-232.89 339.6,-234.91 338.59,-227.98"/>
</g>
<!-- Formula of Lagrange for Interpolation&#45;&gt;Lagrange Interpolation Problem -->
<g id="edge14" class="edge">
<title>Formula of Lagrange for Interpolation&#45;&gt;Lagrange Interpolation Problem</title>
<path fill="none" stroke="#ffffff" d="M435.68,-290.49C361.75,-294.52 264.47,-291.1 185,-259 150.58,-245.1 119.98,-213.38 103.17,-193.14"/>
<polygon fill="#ffffff" stroke="#ffffff" points="436.18,-293.97 445.95,-289.87 435.76,-286.98 436.18,-293.97"/>
</g>
<!-- Formula of Lagrange for Interpolation&#45;&gt;Kronecker Delta -->
<g id="edge13" class="edge">
<title>Formula of Lagrange for Interpolation&#45;&gt;Kronecker Delta</title>
<path fill="none" stroke="#b75867" d="M445.8,-264.44C425.32,-261.71 403.97,-258.8 384,-256 369.46,-253.96 353.76,-251.7 339.13,-249.53"/>
<polygon fill="#b75867" stroke="#b75867" points="339.61,-246.06 329.2,-248.04 338.57,-252.98 339.61,-246.06"/>
</g>
<!-- Formula of Newton for Interpolation -->
<g id="node10" class="node">
<title>Formula of Newton for Interpolation</title>
<g id="a_node10"><a xlink:href="/Knowledge/formula_of_newton_for_interpolation.html" xlink:title="Formula of Newton for Interpolation" target="_parent">
<path fill="#273434" stroke="#b75867" d="M911,-295C911,-295 735,-295 735,-295 729,-295 723,-289 723,-283 723,-283 723,-271 723,-271 723,-265 729,-259 735,-259 735,-259 911,-259 911,-259 917,-259 923,-265 923,-271 923,-271 923,-283 923,-283 923,-289 917,-295 911,-295"/>
<text text-anchor="middle" x="823" y="-273.9" font-family="sans" font-size="12.00" fill="#c4c7c7">Formula of Newton for Interpolation</text>
</a>
</g>
</g>
<!-- Formula of Lagrange for Interpolation&#45;&gt;Formula of Newton for Interpolation -->
<g id="edge12" class="edge">
<title>Formula of Lagrange for Interpolation&#45;&gt;Formula of Newton for Interpolation</title>
<path fill="none" stroke="#b75867" d="M653.14,-277C672.58,-277 692.98,-277 712.62,-277"/>
<polygon fill="#b75867" stroke="#b75867" points="712.81,-280.5 722.81,-277 712.81,-273.5 712.81,-280.5"/>
</g>
<!-- Fundamental polynomials of Lagrange&#45;&gt;Lagrange Interpolation Problem -->
<g id="edge16" class="edge">
<title>Fundamental polynomials of Lagrange&#45;&gt;Lagrange Interpolation Problem</title>
<path fill="none" stroke="#ffffff" d="M434.5,-227.83C362.74,-219.35 268.28,-207.22 185,-194 182.42,-193.59 179.8,-193.16 177.15,-192.72"/>
<polygon fill="#ffffff" stroke="#ffffff" points="434.13,-231.31 444.47,-229.01 434.95,-224.36 434.13,-231.31"/>
</g>
<!-- Fundamental polynomials of Lagrange&#45;&gt;Kronecker Delta -->
<g id="edge15" class="edge">
<title>Fundamental polynomials of Lagrange&#45;&gt;Kronecker Delta</title>
<path fill="none" stroke="#b75867" d="M444.47,-240.73C408.74,-240.77 370.05,-240.74 339.33,-240.63"/>
<polygon fill="#b75867" stroke="#b75867" points="339.25,-237.13 329.23,-240.59 339.22,-244.13 339.25,-237.13"/>
</g>
<!-- Fundamental Theorem of Algebra&#45;&gt;Lagrange Interpolation Problem -->
<g id="edge19" class="edge">
<title>Fundamental Theorem of Algebra&#45;&gt;Lagrange Interpolation Problem</title>
<path fill="none" stroke="#ffffff" d="M177.6,-175.75C177.49,-175.75 177.38,-175.75 177.27,-175.75"/>
<polygon fill="#ffffff" stroke="#ffffff" points="177.79,-179.25 187.79,-175.75 177.79,-172.25 177.79,-179.25"/>
</g>
<!-- Fundamental Theorem of Algebra&#45;&gt;Linear Algebra -->
<g id="edge18" class="edge">
<title>Fundamental Theorem of Algebra&#45;&gt;Linear Algebra</title>
<path fill="none" stroke="#ffffff" d="M383.03,-185.65C425.1,-190.06 471.66,-194.94 504.65,-198.4"/>
<polygon fill="#ffffff" stroke="#ffffff" points="383.32,-182.16 373.01,-184.6 382.59,-189.12 383.32,-182.16"/>
</g>
<!-- Recurrent Equations -->
<g id="node11" class="node">
<title>Recurrent Equations</title>
<g id="a_node11"><a xlink:href="/Knowledge/recurrent_equations.html" xlink:title="Recurrent Equations" target="_parent">
<path fill="none" stroke="#b75867" d="M597,-184C597,-184 502,-184 502,-184 496,-184 490,-178 490,-172 490,-172 490,-160 490,-160 490,-154 496,-148 502,-148 502,-148 597,-148 597,-148 603,-148 609,-154 609,-160 609,-160 609,-172 609,-172 609,-178 603,-184 597,-184"/>
<text text-anchor="middle" x="549.5" y="-162.9" font-family="sans" font-size="12.00" fill="#c4c7c7">Recurrent Equations</text>
</a>
</g>
</g>
<!-- Fundamental Theorem of Algebra&#45;&gt;Recurrent Equations -->
<g id="edge17" class="edge">
<title>Fundamental Theorem of Algebra&#45;&gt;Recurrent Equations</title>
<path fill="none" stroke="#ffffff" d="M383.08,-171.58C419.13,-170.36 458.47,-169.03 489.74,-167.98"/>
<polygon fill="#ffffff" stroke="#ffffff" points="382.89,-168.08 373.01,-171.92 383.12,-175.08 382.89,-168.08"/>
</g>
<!-- Lagrange Interpolation&#45;&gt;Lagrange Interpolation Problem -->
<g id="edge20" class="edge">
<title>Lagrange Interpolation&#45;&gt;Lagrange Interpolation Problem</title>
<path fill="none" stroke="#b75867" d="M214.33,-145.49C202.32,-148.43 189.6,-151.52 177.06,-154.55"/>
<polygon fill="#b75867" stroke="#b75867" points="175.95,-151.22 167.05,-156.96 177.6,-158.02 175.95,-151.22"/>
</g>
<!-- Numeric Methods -->
<g id="node12" class="node">
<title>Numeric Methods</title>
<g id="a_node12"><a xlink:href="/Knowledge/numeric_methods.html" xlink:title="Numeric Methods" target="_parent">
<path fill="none" stroke="#b75867" d="M590.5,-147C590.5,-147 508.5,-147 508.5,-147 502.5,-147 496.5,-141 496.5,-135 496.5,-135 496.5,-123 496.5,-123 496.5,-117 502.5,-111 508.5,-111 508.5,-111 590.5,-111 590.5,-111 596.5,-111 602.5,-117 602.5,-123 602.5,-123 602.5,-135 602.5,-135 602.5,-141 596.5,-147 590.5,-147"/>
<text text-anchor="middle" x="549.5" y="-125.9" font-family="sans" font-size="12.00" fill="#c4c7c7">Numeric Methods</text>
</a>
</g>
</g>
<!-- Lagrange Interpolation&#45;&gt;Numeric Methods -->
<g id="edge21" class="edge">
<title>Lagrange Interpolation&#45;&gt;Numeric Methods</title>
<path fill="none" stroke="#ffffff" d="M357.01,-129C401.51,-129 456.69,-129 496.36,-129"/>
<polygon fill="#ffffff" stroke="#ffffff" points="356.82,-125.5 346.82,-129 356.82,-132.5 356.82,-125.5"/>
</g>
<!-- Extrapolation -->
<g id="node13" class="node">
<title>Extrapolation</title>
<g id="a_node13"><a xlink:href="/Knowledge/extrapolation.html" xlink:title="Extrapolation" target="_parent">
<path fill="none" stroke="#b75867" d="M579.5,-110C579.5,-110 519.5,-110 519.5,-110 513.5,-110 507.5,-104 507.5,-98 507.5,-98 507.5,-86 507.5,-86 507.5,-80 513.5,-74 519.5,-74 519.5,-74 579.5,-74 579.5,-74 585.5,-74 591.5,-80 591.5,-86 591.5,-86 591.5,-98 591.5,-98 591.5,-104 585.5,-110 579.5,-110"/>
<text text-anchor="middle" x="549.5" y="-88.9" font-family="sans" font-size="12.00" fill="#c4c7c7">Extrapolation</text>
</a>
</g>
</g>
<!-- Lagrange Interpolation&#45;&gt;Extrapolation -->
<g id="edge22" class="edge">
<title>Lagrange Interpolation&#45;&gt;Extrapolation</title>
<path fill="none" stroke="#ffffff" d="M356.53,-117.91C365.78,-116.58 375.11,-115.25 384,-114 425.95,-108.13 473.96,-101.74 507.24,-97.37"/>
<polygon fill="#ffffff" stroke="#ffffff" points="355.95,-114.46 346.55,-119.36 356.95,-121.39 355.95,-114.46"/>
</g>
<!-- Evaluating Interpolation Error -->
<g id="node14" class="node">
<title>Evaluating Interpolation Error</title>
<g id="a_node14"><a xlink:href="/Knowledge/evaluating_interpolation_error.html" xlink:title="Evaluating Interpolation Error" target="_parent">
<path fill="none" stroke="#b75867" d="M620.5,-73C620.5,-73 478.5,-73 478.5,-73 472.5,-73 466.5,-67 466.5,-61 466.5,-61 466.5,-49 466.5,-49 466.5,-43 472.5,-37 478.5,-37 478.5,-37 620.5,-37 620.5,-37 626.5,-37 632.5,-43 632.5,-49 632.5,-49 632.5,-61 632.5,-61 632.5,-67 626.5,-73 620.5,-73"/>
<text text-anchor="middle" x="549.5" y="-51.9" font-family="sans" font-size="12.00" fill="#c4c7c7">Evaluating Interpolation Error</text>
</a>
</g>
</g>
<!-- Lagrange Interpolation&#45;&gt;Evaluating Interpolation Error -->
<g id="edge23" class="edge">
<title>Lagrange Interpolation&#45;&gt;Evaluating Interpolation Error</title>
<path fill="none" stroke="#ffffff" d="M356.08,-110.89C363.34,-107.1 370.16,-102.53 376,-97 382.95,-90.42 376.45,-82.88 384,-77 407.07,-59.03 437.71,-51.85 466.29,-49.73"/>
<polygon fill="#ffffff" stroke="#ffffff" points="354.26,-107.87 346.68,-115.28 357.22,-114.22 354.26,-107.87"/>
</g>
<!-- Lagrange Interpolation Polynomial&#45;&gt;Lagrange Interpolation Problem -->
<g id="edge24" class="edge">
<title>Lagrange Interpolation Polynomial&#45;&gt;Lagrange Interpolation Problem</title>
<path fill="none" stroke="#b75867" d="M219.01,-97.02C207.48,-101.06 195.69,-105.74 185,-111 162.58,-122.03 139.36,-137.73 121.43,-150.81"/>
<polygon fill="#b75867" stroke="#b75867" points="119.03,-148.23 113.08,-157 123.2,-153.86 119.03,-148.23"/>
</g>
<!-- Lagrange Interpolation Polynomial&#45;&gt;The Lagrange Interpolation Polynomial of a Polynomial is itself -->
<g id="edge25" class="edge">
<title>Lagrange Interpolation Polynomial&#45;&gt;The Lagrange Interpolation Polynomial of a Polynomial is itself</title>
<path fill="none" stroke="#ffffff" d="M332.04,-57.12C348.37,-50.77 366.72,-44.38 384,-40 389.59,-38.58 395.3,-37.25 401.1,-36.01"/>
<polygon fill="#ffffff" stroke="#ffffff" points="330.69,-53.89 322.69,-60.84 333.27,-60.4 330.69,-53.89"/>
</g>
<!-- The Lagrange Interpolation Polynomial of a Polynomial is itself&#45;&gt;Lagrange Interpolation Problem -->
<g id="edge26" class="edge">
<title>The Lagrange Interpolation Polynomial of a Polynomial is itself&#45;&gt;Lagrange Interpolation Problem</title>
<path fill="none" stroke="#b75867" d="M383.62,-12.12C318.42,-15.92 244.91,-28.55 185,-61 148.46,-80.79 120.27,-120.81 104.28,-147.77"/>
<polygon fill="#b75867" stroke="#b75867" points="101.09,-146.3 99.14,-156.71 107.16,-149.79 101.09,-146.3"/>
</g>
<!-- The Lagrange Interpolation Polynomial of a Polynomial is itself&#45;&gt;Lagrange Interpolation Polynomial -->
<g id="edge27" class="edge">
<title>The Lagrange Interpolation Polynomial of a Polynomial is itself&#45;&gt;Lagrange Interpolation Polynomial</title>
<path fill="none" stroke="#b75867" d="M405.46,-36.09C398.17,-37.6 390.98,-39.23 384,-41 367.49,-45.18 350.01,-51.21 334.25,-57.23"/>
<polygon fill="#b75867" stroke="#b75867" points="332.72,-54.06 324.68,-60.96 335.27,-60.58 332.72,-54.06"/>
</g>
</g>
</svg>
