<?xml version="1.0" encoding="UTF-8" standalone="no"?>
<!DOCTYPE svg PUBLIC "-//W3C//DTD SVG 1.1//EN"
 "http://www.w3.org/Graphics/SVG/1.1/DTD/svg11.dtd">
<!-- Generated by graphviz version 2.44.0 (0)
 -->
<!-- Title: Lagrange Interpolation Problem Pages: 1 -->
<svg width="810pt" height="303pt"
 viewBox="0.00 0.00 810.00 303.00" xmlns="http://www.w3.org/2000/svg" xmlns:xlink="http://www.w3.org/1999/xlink">
<g id="graph0" class="graph" transform="scale(1 1) rotate(0) translate(4 299)">
<title>Lagrange Interpolation Problem</title>
<polygon fill="#132020" stroke="transparent" points="-4,4 -4,-299 806,-299 806,4 -4,4"/>
<!-- Lagrange Interpolation Problem -->
<g id="node1" class="node">
<title>Lagrange Interpolation Problem</title>
<g id="a_node1"><a xlink:href="../Lagrange Interpolation Problem.html" xlink:title="Lagrange Interpolation Problem" target="_parent">
<path fill="#273434" stroke="#b75867" d="M187,-215C187,-215 12,-215 12,-215 6,-215 0,-209 0,-203 0,-203 0,-191 0,-191 0,-185 6,-179 12,-179 12,-179 187,-179 187,-179 193,-179 199,-185 199,-191 199,-191 199,-203 199,-203 199,-209 193,-215 187,-215"/>
<text text-anchor="middle" x="99.5" y="-193.9" font-family="sans" font-size="12.00" fill="#c4c7c7">Lagrange Interpolation Problem</text>
</a>
</g>
</g>
<!-- Kronecker Delta -->
<g id="node2" class="node">
<title>Kronecker Delta</title>
<g id="a_node2"><a xlink:href="../Kronecker Delta.html" xlink:title="Kronecker Delta" target="_parent">
<path fill="#273434" stroke="#b75867" d="M356,-258C356,-258 273,-258 273,-258 267,-258 261,-252 261,-246 261,-246 261,-234 261,-234 261,-228 267,-222 273,-222 273,-222 356,-222 356,-222 362,-222 368,-228 368,-234 368,-234 368,-246 368,-246 368,-252 362,-258 356,-258"/>
<text text-anchor="middle" x="314.5" y="-236.9" font-family="sans" font-size="12.00" fill="#c4c7c7">Kronecker Delta</text>
</a>
</g>
</g>
<!-- Lagrange Interpolation Problem&#45;&gt;Kronecker Delta -->
<g id="edge1" class="edge">
<title>Lagrange Interpolation Problem&#45;&gt;Kronecker Delta</title>
<path fill="none" stroke="#b75867" d="M189.91,-215.05C210.36,-219.18 231.69,-223.48 250.75,-227.33"/>
<polygon fill="#b75867" stroke="#b75867" points="250.29,-230.81 260.79,-229.36 251.68,-223.95 250.29,-230.81"/>
</g>
<!-- Formula of Lagrange for Interpolation -->
<g id="node3" class="node">
<title>Formula of Lagrange for Interpolation</title>
<g id="a_node3"><a xlink:href="../Formula of Lagrange for Interpolation.html" xlink:title="Formula of Lagrange for Interpolation" target="_parent">
<path fill="#273434" stroke="#b75867" d="M719.5,-295C719.5,-295 512.5,-295 512.5,-295 506.5,-295 500.5,-289 500.5,-283 500.5,-283 500.5,-271 500.5,-271 500.5,-265 506.5,-259 512.5,-259 512.5,-259 719.5,-259 719.5,-259 725.5,-259 731.5,-265 731.5,-271 731.5,-271 731.5,-283 731.5,-283 731.5,-289 725.5,-295 719.5,-295"/>
<text text-anchor="middle" x="616" y="-273.9" font-family="sans" font-size="12.00" fill="#c4c7c7">Formula of Lagrange for Interpolation</text>
</a>
</g>
</g>
<!-- Lagrange Interpolation Problem&#45;&gt;Formula of Lagrange for Interpolation -->
<g id="edge2" class="edge">
<title>Lagrange Interpolation Problem&#45;&gt;Formula of Lagrange for Interpolation</title>
<path fill="none" stroke="#b75867" d="M123.91,-215.14C144.52,-229.96 176,-249.9 207,-259 299.24,-286.09 408.23,-289.53 490.35,-286.78"/>
<polygon fill="#b75867" stroke="#b75867" points="490.62,-290.27 500.48,-286.4 490.36,-283.28 490.62,-290.27"/>
</g>
<!-- Fundamental polynomials of Lagrange -->
<g id="node4" class="node">
<title>Fundamental polynomials of Lagrange</title>
<g id="a_node4"><a xlink:href="../Fundamental polynomials of Lagrange.html" xlink:title="Fundamental polynomials of Lagrange" target="_parent">
<path fill="#273434" stroke="#b75867" d="M722,-258C722,-258 510,-258 510,-258 504,-258 498,-252 498,-246 498,-246 498,-234 498,-234 498,-228 504,-222 510,-222 510,-222 722,-222 722,-222 728,-222 734,-228 734,-234 734,-234 734,-246 734,-246 734,-252 728,-258 722,-258"/>
<text text-anchor="middle" x="616" y="-236.9" font-family="sans" font-size="12.00" fill="#c4c7c7">Fundamental polynomials of Lagrange</text>
</a>
</g>
</g>
<!-- Lagrange Interpolation Problem&#45;&gt;Fundamental polynomials of Lagrange -->
<g id="edge3" class="edge">
<title>Lagrange Interpolation Problem&#45;&gt;Fundamental polynomials of Lagrange</title>
<path fill="none" stroke="#b75867" d="M199.09,-213.13C201.75,-213.44 204.39,-213.73 207,-214 302.16,-223.78 326.54,-217.83 422,-224 443.31,-225.38 465.93,-227.06 487.9,-228.8"/>
<polygon fill="#b75867" stroke="#b75867" points="487.69,-232.3 497.93,-229.61 488.25,-225.32 487.69,-232.3"/>
</g>
<!-- Fundamental Theorem of Algebra -->
<g id="node5" class="node">
<title>Fundamental Theorem of Algebra</title>
<g id="a_node5"><a xlink:href="../Fundamental Theorem of Algebra.html" xlink:title="Fundamental Theorem of Algebra" target="_parent">
<path fill="#273434" stroke="#b75867" d="M407,-215C407,-215 222,-215 222,-215 216,-215 210,-209 210,-203 210,-203 210,-191 210,-191 210,-185 216,-179 222,-179 222,-179 407,-179 407,-179 413,-179 419,-185 419,-191 419,-191 419,-203 419,-203 419,-209 413,-215 407,-215"/>
<text text-anchor="middle" x="314.5" y="-193.9" font-family="sans" font-size="12.00" fill="#c4c7c7">Fundamental Theorem of Algebra</text>
</a>
</g>
</g>
<!-- Lagrange Interpolation Problem&#45;&gt;Fundamental Theorem of Algebra -->
<g id="edge4" class="edge">
<title>Lagrange Interpolation Problem&#45;&gt;Fundamental Theorem of Algebra</title>
<path fill="none" stroke="#b75867" d="M199.21,-197C199.43,-197 199.65,-197 199.88,-197"/>
<polygon fill="#b75867" stroke="#b75867" points="200,-200.5 210,-197 200,-193.5 200,-200.5"/>
</g>
<!-- Lagrange Interpolation Polynomial -->
<g id="node6" class="node">
<title>Lagrange Interpolation Polynomial</title>
<g id="a_node6"><a xlink:href="../Lagrange Interpolation Polynomial.html" xlink:title="Lagrange Interpolation Polynomial" target="_parent">
<path fill="none" stroke="#b75867" d="M410,-175C410,-175 219,-175 219,-175 213,-175 207,-169 207,-163 207,-163 207,-151 207,-151 207,-145 213,-139 219,-139 219,-139 410,-139 410,-139 416,-139 422,-145 422,-151 422,-151 422,-163 422,-163 422,-169 416,-175 410,-175"/>
<text text-anchor="middle" x="314.5" y="-153.9" font-family="sans" font-size="12.00" fill="#c4c7c7">Lagrange Interpolation Polynomial</text>
</a>
</g>
</g>
<!-- Lagrange Interpolation Problem&#45;&gt;Lagrange Interpolation Polynomial -->
<g id="edge5" class="edge">
<title>Lagrange Interpolation Problem&#45;&gt;Lagrange Interpolation Polynomial</title>
<path fill="none" stroke="#ffffff" d="M206.55,-177.09C210.15,-176.41 213.75,-175.73 217.34,-175.06"/>
<polygon fill="#ffffff" stroke="#ffffff" points="205.59,-173.7 196.41,-178.99 206.88,-180.58 205.59,-173.7"/>
</g>
<!-- Lagrange Interpolation -->
<g id="node7" class="node">
<title>Lagrange Interpolation</title>
<g id="a_node7"><a xlink:href="../Lagrange Interpolation.html" xlink:title="Lagrange Interpolation" target="_parent">
<path fill="none" stroke="#b75867" d="M376,-110C376,-110 253,-110 253,-110 247,-110 241,-104 241,-98 241,-98 241,-86 241,-86 241,-80 247,-74 253,-74 253,-74 376,-74 376,-74 382,-74 388,-80 388,-86 388,-86 388,-98 388,-98 388,-104 382,-110 376,-110"/>
<text text-anchor="middle" x="314.5" y="-88.9" font-family="sans" font-size="12.00" fill="#c4c7c7">Lagrange Interpolation</text>
</a>
</g>
</g>
<!-- Lagrange Interpolation Problem&#45;&gt;Lagrange Interpolation -->
<g id="edge6" class="edge">
<title>Lagrange Interpolation Problem&#45;&gt;Lagrange Interpolation</title>
<path fill="none" stroke="#ffffff" d="M133.68,-172.96C154.12,-158.88 181.26,-141.47 207,-129 221.71,-121.87 238.15,-115.46 253.63,-110.05"/>
<polygon fill="#ffffff" stroke="#ffffff" points="131.55,-170.17 125.35,-178.76 135.55,-175.92 131.55,-170.17"/>
</g>
<!-- The Lagrange Interpolation Polynomial of a Polynomial is itself -->
<g id="node8" class="node">
<title>The Lagrange Interpolation Polynomial of a Polynomial is itself</title>
<g id="a_node8"><a xlink:href="../The Lagrange Interpolation Polynomial of a Polynomial is itself.html" xlink:title="The Lagrange Interpolation Polynomial of a Polynomial is itself" target="_parent">
<path fill="none" stroke="#b75867" d="M790,-147C790,-147 442,-147 442,-147 436,-147 430,-141 430,-135 430,-135 430,-123 430,-123 430,-117 436,-111 442,-111 442,-111 790,-111 790,-111 796,-111 802,-117 802,-123 802,-123 802,-135 802,-135 802,-141 796,-147 790,-147"/>
<text text-anchor="middle" x="616" y="-125.9" font-family="sans" font-size="12.00" fill="#c4c7c7">The Lagrange Interpolation Polynomial of a Polynomial is itself</text>
</a>
</g>
</g>
<!-- Lagrange Interpolation Problem&#45;&gt;The Lagrange Interpolation Polynomial of a Polynomial is itself -->
<g id="edge7" class="edge">
<title>Lagrange Interpolation Problem&#45;&gt;The Lagrange Interpolation Polynomial of a Polynomial is itself</title>
<path fill="none" stroke="#ffffff" d="M134.2,-173.24C154.32,-160.48 180.96,-145.97 207,-139 278.27,-119.92 359.06,-114.71 429.84,-115.24"/>
<polygon fill="#ffffff" stroke="#ffffff" points="132.19,-170.37 125.72,-178.76 136.01,-176.24 132.19,-170.37"/>
</g>
<!-- Kronecker Delta&#45;&gt;Lagrange Interpolation Problem -->
<g id="edge11" class="edge">
<title>Kronecker Delta&#45;&gt;Lagrange Interpolation Problem</title>
<path fill="none" stroke="#ffffff" d="M250.72,-228.02C230.51,-224 207.77,-219.42 186.21,-215.04"/>
<polygon fill="#ffffff" stroke="#ffffff" points="250.23,-231.49 260.72,-230 251.59,-224.62 250.23,-231.49"/>
</g>
<!-- Kronecker Delta&#45;&gt;Formula of Lagrange for Interpolation -->
<g id="edge8" class="edge">
<title>Kronecker Delta&#45;&gt;Formula of Lagrange for Interpolation</title>
<path fill="none" stroke="#ffffff" d="M378.44,-248.38C395.19,-250.58 413.28,-252.91 430,-255 452.79,-257.85 477.16,-260.81 500.5,-263.6"/>
<polygon fill="#ffffff" stroke="#ffffff" points="378.58,-244.87 368.21,-247.04 377.67,-251.81 378.58,-244.87"/>
</g>
<!-- Kronecker Delta&#45;&gt;Fundamental polynomials of Lagrange -->
<g id="edge10" class="edge">
<title>Kronecker Delta&#45;&gt;Fundamental polynomials of Lagrange</title>
<path fill="none" stroke="#ffffff" d="M378.44,-240C413.07,-240 457.16,-240 497.87,-240"/>
<polygon fill="#ffffff" stroke="#ffffff" points="378.01,-236.5 368.01,-240 378.01,-243.5 378.01,-236.5"/>
</g>
<!-- Linear Algebra -->
<g id="node9" class="node">
<title>Linear Algebra</title>
<g id="a_node9"><a xlink:href="../Linear Algebra.html" xlink:title="Linear Algebra" target="_parent">
<path fill="none" stroke="#b75867" d="M653,-221C653,-221 579,-221 579,-221 573,-221 567,-215 567,-209 567,-209 567,-197 567,-197 567,-191 573,-185 579,-185 579,-185 653,-185 653,-185 659,-185 665,-191 665,-197 665,-197 665,-209 665,-209 665,-215 659,-221 653,-221"/>
<text text-anchor="middle" x="616" y="-199.9" font-family="sans" font-size="12.00" fill="#c4c7c7">Linear Algebra</text>
</a>
</g>
</g>
<!-- Kronecker Delta&#45;&gt;Linear Algebra -->
<g id="edge9" class="edge">
<title>Kronecker Delta&#45;&gt;Linear Algebra</title>
<path fill="none" stroke="#ffffff" d="M378.44,-231.62C395.19,-229.42 413.28,-227.09 430,-225 476.38,-219.2 529.34,-212.94 566.68,-208.59"/>
<polygon fill="#ffffff" stroke="#ffffff" points="377.67,-228.19 368.21,-232.96 378.58,-235.13 377.67,-228.19"/>
</g>
<!-- Formula of Lagrange for Interpolation&#45;&gt;Lagrange Interpolation Problem -->
<g id="edge13" class="edge">
<title>Formula of Lagrange for Interpolation&#45;&gt;Lagrange Interpolation Problem</title>
<path fill="none" stroke="#ffffff" d="M490.35,-287.63C408.23,-290.53 299.24,-287.09 207,-260 175.39,-250.72 143.27,-230.17 122.69,-215.05"/>
<polygon fill="#ffffff" stroke="#ffffff" points="490.63,-291.12 500.48,-287.23 490.35,-284.13 490.63,-291.12"/>
</g>
<!-- Formula of Lagrange for Interpolation&#45;&gt;Kronecker Delta -->
<g id="edge12" class="edge">
<title>Formula of Lagrange for Interpolation&#45;&gt;Kronecker Delta</title>
<path fill="none" stroke="#b75867" d="M500.5,-264.58C477.16,-261.81 452.79,-258.85 430,-256 413.28,-253.91 395.19,-251.58 378.44,-249.35"/>
<polygon fill="#b75867" stroke="#b75867" points="378.59,-245.84 368.21,-247.98 377.66,-252.77 378.59,-245.84"/>
</g>
<!-- Fundamental polynomials of Lagrange&#45;&gt;Lagrange Interpolation Problem -->
<g id="edge15" class="edge">
<title>Fundamental polynomials of Lagrange&#45;&gt;Lagrange Interpolation Problem</title>
<path fill="none" stroke="#ffffff" d="M487.9,-229.79C465.93,-228.06 443.31,-226.38 422,-225 326.54,-218.83 302.16,-224.78 207,-215 204.39,-214.73 201.75,-214.44 199.09,-214.13"/>
<polygon fill="#ffffff" stroke="#ffffff" points="487.69,-233.28 497.93,-230.59 488.24,-226.31 487.69,-233.28"/>
</g>
<!-- Fundamental polynomials of Lagrange&#45;&gt;Kronecker Delta -->
<g id="edge14" class="edge">
<title>Fundamental polynomials of Lagrange&#45;&gt;Kronecker Delta</title>
<path fill="none" stroke="#b75867" d="M497.87,-240.73C457.16,-240.77 413.07,-240.74 378.44,-240.62"/>
<polygon fill="#b75867" stroke="#b75867" points="378.02,-237.12 368.01,-240.59 378,-244.12 378.02,-237.12"/>
</g>
<!-- Fundamental Theorem of Algebra&#45;&gt;Lagrange Interpolation Problem -->
<g id="edge18" class="edge">
<title>Fundamental Theorem of Algebra&#45;&gt;Lagrange Interpolation Problem</title>
<path fill="none" stroke="#ffffff" d="M199.88,-197.75C199.65,-197.75 199.43,-197.75 199.21,-197.75"/>
<polygon fill="#ffffff" stroke="#ffffff" points="200,-201.25 210,-197.75 200,-194.25 200,-201.25"/>
</g>
<!-- Fundamental Theorem of Algebra&#45;&gt;Linear Algebra -->
<g id="edge17" class="edge">
<title>Fundamental Theorem of Algebra&#45;&gt;Linear Algebra</title>
<path fill="none" stroke="#ffffff" d="M429.47,-199.28C476.98,-200.24 529.61,-201.29 566.64,-202.03"/>
<polygon fill="#ffffff" stroke="#ffffff" points="429.48,-195.78 419.41,-199.08 429.34,-202.78 429.48,-195.78"/>
</g>
<!-- Recurrent Equations -->
<g id="node10" class="node">
<title>Recurrent Equations</title>
<g id="a_node10"><a xlink:href="../Recurrent Equations.html" xlink:title="Recurrent Equations" target="_parent">
<path fill="none" stroke="#b75867" d="M669.5,-184C669.5,-184 562.5,-184 562.5,-184 556.5,-184 550.5,-178 550.5,-172 550.5,-172 550.5,-160 550.5,-160 550.5,-154 556.5,-148 562.5,-148 562.5,-148 669.5,-148 669.5,-148 675.5,-148 681.5,-154 681.5,-160 681.5,-160 681.5,-172 681.5,-172 681.5,-178 675.5,-184 669.5,-184"/>
<text text-anchor="middle" x="616" y="-162.9" font-family="sans" font-size="12.00" fill="#c4c7c7">Recurrent Equations</text>
</a>
</g>
</g>
<!-- Fundamental Theorem of Algebra&#45;&gt;Recurrent Equations -->
<g id="edge16" class="edge">
<title>Fundamental Theorem of Algebra&#45;&gt;Recurrent Equations</title>
<path fill="none" stroke="#ffffff" d="M429.42,-185.21C470.25,-180.98 514.85,-176.37 550.09,-172.72"/>
<polygon fill="#ffffff" stroke="#ffffff" points="429,-181.73 419.41,-186.24 429.72,-188.7 429,-181.73"/>
</g>
<!-- Lagrange Interpolation Polynomial&#45;&gt;Lagrange Interpolation Problem -->
<g id="edge19" class="edge">
<title>Lagrange Interpolation Polynomial&#45;&gt;Lagrange Interpolation Problem</title>
<path fill="none" stroke="#b75867" d="M221.41,-175.04C217.39,-175.8 213.34,-176.56 209.28,-177.32"/>
<polygon fill="#b75867" stroke="#b75867" points="208.39,-173.93 199.21,-179.21 209.68,-180.81 208.39,-173.93"/>
</g>
<!-- Lagrange Interpolation Polynomial&#45;&gt;The Lagrange Interpolation Polynomial of a Polynomial is itself -->
<g id="edge20" class="edge">
<title>Lagrange Interpolation Polynomial&#45;&gt;The Lagrange Interpolation Polynomial of a Polynomial is itself</title>
<path fill="none" stroke="#ffffff" d="M429.49,-146.34C429.65,-146.33 429.81,-146.31 429.97,-146.3"/>
<polygon fill="#ffffff" stroke="#ffffff" points="431.99,-142.59 422.36,-147.01 432.64,-149.56 431.99,-142.59"/>
</g>
<!-- Lagrange Interpolation&#45;&gt;Lagrange Interpolation Problem -->
<g id="edge21" class="edge">
<title>Lagrange Interpolation&#45;&gt;Lagrange Interpolation Problem</title>
<path fill="none" stroke="#b75867" d="M256.4,-110.05C240.13,-115.69 222.59,-122.44 207,-130 181.61,-142.31 154.85,-159.41 134.5,-173.26"/>
<polygon fill="#b75867" stroke="#b75867" points="132.45,-170.42 126.2,-178.97 136.42,-176.19 132.45,-170.42"/>
</g>
<!-- Evaluating Interpolation Error -->
<g id="node11" class="node">
<title>Evaluating Interpolation Error</title>
<g id="a_node11"><a xlink:href="../Evaluating Interpolation Error.html" xlink:title="Evaluating Interpolation Error" target="_parent">
<path fill="none" stroke="#b75867" d="M696.5,-110C696.5,-110 535.5,-110 535.5,-110 529.5,-110 523.5,-104 523.5,-98 523.5,-98 523.5,-86 523.5,-86 523.5,-80 529.5,-74 535.5,-74 535.5,-74 696.5,-74 696.5,-74 702.5,-74 708.5,-80 708.5,-86 708.5,-86 708.5,-98 708.5,-98 708.5,-104 702.5,-110 696.5,-110"/>
<text text-anchor="middle" x="616" y="-88.9" font-family="sans" font-size="12.00" fill="#c4c7c7">Evaluating Interpolation Error</text>
</a>
</g>
</g>
<!-- Lagrange Interpolation&#45;&gt;Evaluating Interpolation Error -->
<g id="edge22" class="edge">
<title>Lagrange Interpolation&#45;&gt;Evaluating Interpolation Error</title>
<path fill="none" stroke="#ffffff" d="M398.21,-92C437.03,-92 483.41,-92 523.29,-92"/>
<polygon fill="#ffffff" stroke="#ffffff" points="398,-88.5 388,-92 398,-95.5 398,-88.5"/>
</g>
<!-- Numeric Methods -->
<g id="node12" class="node">
<title>Numeric Methods</title>
<g id="a_node12"><a xlink:href="../Numeric Methods.html" xlink:title="Numeric Methods" target="_parent">
<path fill="none" stroke="#b75867" d="M662,-73C662,-73 570,-73 570,-73 564,-73 558,-67 558,-61 558,-61 558,-49 558,-49 558,-43 564,-37 570,-37 570,-37 662,-37 662,-37 668,-37 674,-43 674,-49 674,-49 674,-61 674,-61 674,-67 668,-73 662,-73"/>
<text text-anchor="middle" x="616" y="-51.9" font-family="sans" font-size="12.00" fill="#c4c7c7">Numeric Methods</text>
</a>
</g>
</g>
<!-- Lagrange Interpolation&#45;&gt;Numeric Methods -->
<g id="edge23" class="edge">
<title>Lagrange Interpolation&#45;&gt;Numeric Methods</title>
<path fill="none" stroke="#ffffff" d="M398.33,-81.03C408.98,-79.65 419.75,-78.28 430,-77 472.85,-71.65 521.32,-65.89 557.89,-61.61"/>
<polygon fill="#ffffff" stroke="#ffffff" points="397.64,-77.59 388.17,-82.35 398.54,-84.53 397.64,-77.59"/>
</g>
<!-- Extrapolation -->
<g id="node13" class="node">
<title>Extrapolation</title>
<g id="a_node13"><a xlink:href="../Extrapolation.html" xlink:title="Extrapolation" target="_parent">
<path fill="none" stroke="#b75867" d="M650.5,-36C650.5,-36 581.5,-36 581.5,-36 575.5,-36 569.5,-30 569.5,-24 569.5,-24 569.5,-12 569.5,-12 569.5,-6 575.5,0 581.5,0 581.5,0 650.5,0 650.5,0 656.5,0 662.5,-6 662.5,-12 662.5,-12 662.5,-24 662.5,-24 662.5,-30 656.5,-36 650.5,-36"/>
<text text-anchor="middle" x="616" y="-14.9" font-family="sans" font-size="12.00" fill="#c4c7c7">Extrapolation</text>
</a>
</g>
</g>
<!-- Lagrange Interpolation&#45;&gt;Extrapolation -->
<g id="edge24" class="edge">
<title>Lagrange Interpolation&#45;&gt;Extrapolation</title>
<path fill="none" stroke="#ffffff" d="M357.1,-69.36C378.32,-58.78 404.91,-47.01 430,-40 476.42,-27.04 531.47,-21.71 569.39,-19.52"/>
<polygon fill="#ffffff" stroke="#ffffff" points="355.38,-66.3 348.05,-73.95 358.55,-72.55 355.38,-66.3"/>
</g>
<!-- The Lagrange Interpolation Polynomial of a Polynomial is itself&#45;&gt;Lagrange Interpolation Problem -->
<g id="edge25" class="edge">
<title>The Lagrange Interpolation Polynomial of a Polynomial is itself&#45;&gt;Lagrange Interpolation Problem</title>
<path fill="none" stroke="#b75867" d="M429.84,-116.17C359.06,-115.71 278.27,-120.92 207,-140 181.49,-146.83 155.41,-160.89 135.44,-173.34"/>
<polygon fill="#b75867" stroke="#b75867" points="133.54,-170.4 127,-178.73 137.31,-176.3 133.54,-170.4"/>
</g>
<!-- The Lagrange Interpolation Polynomial of a Polynomial is itself&#45;&gt;Lagrange Interpolation Polynomial -->
<g id="edge26" class="edge">
<title>The Lagrange Interpolation Polynomial of a Polynomial is itself&#45;&gt;Lagrange Interpolation Polynomial</title>
<path fill="none" stroke="#b75867" d="M430.22,-147.01C430.06,-147.02 429.89,-147.04 429.73,-147.05"/>
<polygon fill="#b75867" stroke="#b75867" points="431.99,-143.33 422.36,-147.73 432.64,-150.3 431.99,-143.33"/>
</g>
</g>
</svg>
