<?xml version="1.0" encoding="UTF-8" standalone="no"?>
<!DOCTYPE svg PUBLIC "-//W3C//DTD SVG 1.1//EN"
 "http://www.w3.org/Graphics/SVG/1.1/DTD/svg11.dtd">
<!-- Generated by graphviz version 2.46.1 (0)
 -->
<!-- Title: Lagrange Interpolation Polynomial Pages: 1 -->
<svg width="723pt" height="229pt"
 viewBox="0.00 0.00 723.00 229.00" xmlns="http://www.w3.org/2000/svg" xmlns:xlink="http://www.w3.org/1999/xlink">
<g id="graph0" class="graph" transform="scale(1 1) rotate(0) translate(4 225)">
<title>Lagrange Interpolation Polynomial</title>
<polygon fill="#132020" stroke="transparent" points="-4,4 -4,-225 719,-225 719,4 -4,4"/>
<!-- Lagrange Interpolation Polynomial -->
<g id="node1" class="node">
<title>Lagrange Interpolation Polynomial</title>
<g id="a_node1"><a xlink:href="/Knowledge/lagrange_interpolation_polynomial.html" xlink:title="Lagrange Interpolation Polynomial" target="_parent">
<path fill="#273434" stroke="#b75867" d="M179,-198C179,-198 12,-198 12,-198 6,-198 0,-192 0,-186 0,-186 0,-174 0,-174 0,-168 6,-162 12,-162 12,-162 179,-162 179,-162 185,-162 191,-168 191,-174 191,-174 191,-186 191,-186 191,-192 185,-198 179,-198"/>
<text text-anchor="middle" x="95.5" y="-176.9" font-family="sans" font-size="12.00" fill="#c4c7c7">Lagrange Interpolation Polynomial</text>
</a>
</g>
</g>
<!-- Lagrange Interpolation Problem -->
<g id="node2" class="node">
<title>Lagrange Interpolation Problem</title>
<g id="a_node2"><a xlink:href="/Knowledge/lagrange_interpolation_problem.html" xlink:title="Lagrange Interpolation Problem" target="_parent">
<path fill="#273434" stroke="#b75867" d="M364,-184C364,-184 211,-184 211,-184 205,-184 199,-178 199,-172 199,-172 199,-160 199,-160 199,-154 205,-148 211,-148 211,-148 364,-148 364,-148 370,-148 376,-154 376,-160 376,-160 376,-172 376,-172 376,-178 370,-184 364,-184"/>
<text text-anchor="middle" x="287.5" y="-162.9" font-family="sans" font-size="12.00" fill="#c4c7c7">Lagrange Interpolation Problem</text>
</a>
</g>
</g>
<!-- Lagrange Interpolation Polynomial&#45;&gt;Lagrange Interpolation Problem -->
<g id="edge1" class="edge">
<title>Lagrange Interpolation Polynomial&#45;&gt;Lagrange Interpolation Problem</title>
<path fill="none" stroke="#b75867" d="M191.22,-173.02C191.38,-173.01 191.54,-173 191.69,-172.99"/>
<polygon fill="#b75867" stroke="#b75867" points="189.03,-176.69 198.74,-172.47 188.51,-169.71 189.03,-176.69"/>
</g>
<!-- The Lagrange Interpolation Polynomial of a Polynomial is itself -->
<g id="node3" class="node">
<title>The Lagrange Interpolation Polynomial of a Polynomial is itself</title>
<g id="a_node3"><a xlink:href="/Knowledge/the_lagrange_interpolation_polynomial_of_a_polynomial_is_itself.html" xlink:title="The Lagrange Interpolation Polynomial of a Polynomial is itself" target="_parent">
<path fill="none" stroke="#b75867" d="M703,-221C703,-221 396,-221 396,-221 390,-221 384,-215 384,-209 384,-209 384,-197 384,-197 384,-191 390,-185 396,-185 396,-185 703,-185 703,-185 709,-185 715,-191 715,-197 715,-197 715,-209 715,-209 715,-215 709,-221 703,-221"/>
<text text-anchor="middle" x="549.5" y="-199.9" font-family="sans" font-size="12.00" fill="#c4c7c7">The Lagrange Interpolation Polynomial of a Polynomial is itself</text>
</a>
</g>
</g>
<!-- Lagrange Interpolation Polynomial&#45;&gt;The Lagrange Interpolation Polynomial of a Polynomial is itself -->
<g id="edge2" class="edge">
<title>Lagrange Interpolation Polynomial&#45;&gt;The Lagrange Interpolation Polynomial of a Polynomial is itself</title>
<path fill="none" stroke="#ffffff" d="M201.56,-185.35C255.75,-188.1 323.08,-191.53 383.97,-194.63"/>
<polygon fill="#ffffff" stroke="#ffffff" points="201.42,-181.83 191.25,-184.82 201.06,-188.83 201.42,-181.83"/>
</g>
<!-- Lagrange Interpolation Problem&#45;&gt;Lagrange Interpolation Polynomial -->
<g id="edge8" class="edge">
<title>Lagrange Interpolation Problem&#45;&gt;Lagrange Interpolation Polynomial</title>
<path fill="none" stroke="#ffffff" d="M191.69,-173.74C191.54,-173.75 191.38,-173.76 191.22,-173.77"/>
<polygon fill="#ffffff" stroke="#ffffff" points="189.03,-177.44 198.74,-173.21 188.51,-170.46 189.03,-177.44"/>
</g>
<!-- Lagrange Interpolation Problem&#45;&gt;The Lagrange Interpolation Polynomial of a Polynomial is itself -->
<g id="edge9" class="edge">
<title>Lagrange Interpolation Problem&#45;&gt;The Lagrange Interpolation Polynomial of a Polynomial is itself</title>
<path fill="none" stroke="#ffffff" d="M386.3,-181.32C397.25,-182.91 404.61,-183.96 412.03,-184.99"/>
<polygon fill="#ffffff" stroke="#ffffff" points="386.58,-177.83 376.18,-179.85 385.57,-184.75 386.58,-177.83"/>
</g>
<!-- Kronecker Delta -->
<g id="node4" class="node">
<title>Kronecker Delta</title>
<g id="a_node4"><a xlink:href="/Knowledge/kronecker_delta.html" xlink:title="Kronecker Delta" target="_parent">
<path fill="#273434" stroke="#b75867" d="M586,-184C586,-184 513,-184 513,-184 507,-184 501,-178 501,-172 501,-172 501,-160 501,-160 501,-154 507,-148 513,-148 513,-148 586,-148 586,-148 592,-148 598,-154 598,-160 598,-160 598,-172 598,-172 598,-178 592,-184 586,-184"/>
<text text-anchor="middle" x="549.5" y="-162.9" font-family="sans" font-size="12.00" fill="#c4c7c7">Kronecker Delta</text>
</a>
</g>
</g>
<!-- Lagrange Interpolation Problem&#45;&gt;Kronecker Delta -->
<g id="edge3" class="edge">
<title>Lagrange Interpolation Problem&#45;&gt;Kronecker Delta</title>
<path fill="none" stroke="#b75867" d="M376.16,-166C413.97,-166 457.14,-166 490.82,-166"/>
<polygon fill="#b75867" stroke="#b75867" points="490.95,-169.5 500.95,-166 490.95,-162.5 490.95,-169.5"/>
</g>
<!-- Formula of Lagrange for Interpolation -->
<g id="node5" class="node">
<title>Formula of Lagrange for Interpolation</title>
<g id="a_node5"><a xlink:href="/Knowledge/formula_of_lagrange_for_interpolation.html" xlink:title="Formula of Lagrange for Interpolation" target="_parent">
<path fill="#273434" stroke="#b75867" d="M641,-147C641,-147 458,-147 458,-147 452,-147 446,-141 446,-135 446,-135 446,-123 446,-123 446,-117 452,-111 458,-111 458,-111 641,-111 641,-111 647,-111 653,-117 653,-123 653,-123 653,-135 653,-135 653,-141 647,-147 641,-147"/>
<text text-anchor="middle" x="549.5" y="-125.9" font-family="sans" font-size="12.00" fill="#c4c7c7">Formula of Lagrange for Interpolation</text>
</a>
</g>
</g>
<!-- Lagrange Interpolation Problem&#45;&gt;Formula of Lagrange for Interpolation -->
<g id="edge4" class="edge">
<title>Lagrange Interpolation Problem&#45;&gt;Formula of Lagrange for Interpolation</title>
<path fill="none" stroke="#b75867" d="M376.18,-152.15C378.81,-151.76 381.43,-151.37 384,-151 400.68,-148.57 418.34,-146.11 435.64,-143.75"/>
<polygon fill="#b75867" stroke="#b75867" points="436.34,-147.18 445.78,-142.37 435.4,-140.25 436.34,-147.18"/>
</g>
<!-- Fundamental polynomials of Lagrange -->
<g id="node6" class="node">
<title>Fundamental polynomials of Lagrange</title>
<g id="a_node6"><a xlink:href="/Knowledge/fundamental_polynomials_of_lagrange.html" xlink:title="Fundamental polynomials of Lagrange" target="_parent">
<path fill="#273434" stroke="#b75867" d="M642.5,-110C642.5,-110 456.5,-110 456.5,-110 450.5,-110 444.5,-104 444.5,-98 444.5,-98 444.5,-86 444.5,-86 444.5,-80 450.5,-74 456.5,-74 456.5,-74 642.5,-74 642.5,-74 648.5,-74 654.5,-80 654.5,-86 654.5,-86 654.5,-98 654.5,-98 654.5,-104 648.5,-110 642.5,-110"/>
<text text-anchor="middle" x="549.5" y="-88.9" font-family="sans" font-size="12.00" fill="#c4c7c7">Fundamental polynomials of Lagrange</text>
</a>
</g>
</g>
<!-- Lagrange Interpolation Problem&#45;&gt;Fundamental polynomials of Lagrange -->
<g id="edge5" class="edge">
<title>Lagrange Interpolation Problem&#45;&gt;Fundamental polynomials of Lagrange</title>
<path fill="none" stroke="#b75867" d="M315.29,-147.94C333.79,-136.36 359.42,-122.03 384,-114 399.91,-108.8 417.07,-104.83 434.1,-101.79"/>
<polygon fill="#b75867" stroke="#b75867" points="434.82,-105.22 444.1,-100.11 433.66,-98.32 434.82,-105.22"/>
</g>
<!-- Fundamental Theorem of Algebra -->
<g id="node7" class="node">
<title>Fundamental Theorem of Algebra</title>
<g id="a_node7"><a xlink:href="/Knowledge/fundamental_theorem_of_algebra.html" xlink:title="Fundamental Theorem of Algebra" target="_parent">
<path fill="#273434" stroke="#b75867" d="M630,-73C630,-73 469,-73 469,-73 463,-73 457,-67 457,-61 457,-61 457,-49 457,-49 457,-43 463,-37 469,-37 469,-37 630,-37 630,-37 636,-37 642,-43 642,-49 642,-49 642,-61 642,-61 642,-67 636,-73 630,-73"/>
<text text-anchor="middle" x="549.5" y="-51.9" font-family="sans" font-size="12.00" fill="#c4c7c7">Fundamental Theorem of Algebra</text>
</a>
</g>
</g>
<!-- Lagrange Interpolation Problem&#45;&gt;Fundamental Theorem of Algebra -->
<g id="edge6" class="edge">
<title>Lagrange Interpolation Problem&#45;&gt;Fundamental Theorem of Algebra</title>
<path fill="none" stroke="#b75867" d="M302.09,-147.82C318.84,-126.91 349.37,-93.37 384,-77 403.34,-67.86 425.3,-62.17 446.73,-58.7"/>
<polygon fill="#b75867" stroke="#b75867" points="447.47,-62.13 456.86,-57.21 446.46,-55.2 447.47,-62.13"/>
</g>
<!-- Lagrange Interpolation -->
<g id="node8" class="node">
<title>Lagrange Interpolation</title>
<g id="a_node8"><a xlink:href="/Knowledge/lagrange_interpolation.html" xlink:title="Lagrange Interpolation" target="_parent">
<path fill="none" stroke="#b75867" d="M603.5,-36C603.5,-36 495.5,-36 495.5,-36 489.5,-36 483.5,-30 483.5,-24 483.5,-24 483.5,-12 483.5,-12 483.5,-6 489.5,0 495.5,0 495.5,0 603.5,0 603.5,0 609.5,0 615.5,-6 615.5,-12 615.5,-12 615.5,-24 615.5,-24 615.5,-30 609.5,-36 603.5,-36"/>
<text text-anchor="middle" x="549.5" y="-14.9" font-family="sans" font-size="12.00" fill="#c4c7c7">Lagrange Interpolation</text>
</a>
</g>
</g>
<!-- Lagrange Interpolation Problem&#45;&gt;Lagrange Interpolation -->
<g id="edge7" class="edge">
<title>Lagrange Interpolation Problem&#45;&gt;Lagrange Interpolation</title>
<path fill="none" stroke="#ffffff" d="M301.01,-138.75C316.15,-109.13 344.62,-62.94 384,-40 413.75,-22.67 451.57,-16.72 483.44,-15.31"/>
<polygon fill="#ffffff" stroke="#ffffff" points="297.86,-137.22 296.56,-147.74 304.13,-140.33 297.86,-137.22"/>
</g>
<!-- The Lagrange Interpolation Polynomial of a Polynomial is itself&#45;&gt;Lagrange Interpolation Polynomial -->
<g id="edge11" class="edge">
<title>The Lagrange Interpolation Polynomial of a Polynomial is itself&#45;&gt;Lagrange Interpolation Polynomial</title>
<path fill="none" stroke="#b75867" d="M383.97,-195.35C323.08,-192.31 255.75,-188.85 201.56,-185.99"/>
<polygon fill="#b75867" stroke="#b75867" points="201.43,-182.48 191.25,-185.45 201.05,-189.47 201.43,-182.48"/>
</g>
<!-- The Lagrange Interpolation Polynomial of a Polynomial is itself&#45;&gt;Lagrange Interpolation Problem -->
<g id="edge10" class="edge">
<title>The Lagrange Interpolation Polynomial of a Polynomial is itself&#45;&gt;Lagrange Interpolation Problem</title>
<path fill="none" stroke="#b75867" d="M404.93,-184.99C399.67,-184.25 394.46,-183.51 386.13,-182.3"/>
<polygon fill="#b75867" stroke="#b75867" points="386.58,-178.83 376.18,-180.85 385.57,-185.76 386.58,-178.83"/>
</g>
</g>
</svg>
