<?xml version="1.0" encoding="UTF-8" standalone="no"?>
<!DOCTYPE svg PUBLIC "-//W3C//DTD SVG 1.1//EN"
 "http://www.w3.org/Graphics/SVG/1.1/DTD/svg11.dtd">
<!-- Generated by graphviz version 2.44.0 (0)
 -->
<!-- Title: Languages, Automata and Computation Pages: 1 -->
<svg width="589pt" height="636pt"
 viewBox="0.00 0.00 589.00 636.00" xmlns="http://www.w3.org/2000/svg" xmlns:xlink="http://www.w3.org/1999/xlink">
<g id="graph0" class="graph" transform="scale(1 1) rotate(0) translate(4 632)">
<title>Languages, Automata and Computation</title>
<polygon fill="#132020" stroke="transparent" points="-4,4 -4,-632 585,-632 585,4 -4,4"/>
<!-- Languages, Automata and Computation -->
<g id="node1" class="node">
<title>Languages, Automata and Computation</title>
<g id="a_node1"><a xlink:href="/Knowledge/Languages, Automata and Computation.html" xlink:title="Languages, Automata and Computation" target="_parent">
<path fill="#273434" stroke="#b75867" d="M230,-313C230,-313 12,-313 12,-313 6,-313 0,-307 0,-301 0,-301 0,-289 0,-289 0,-283 6,-277 12,-277 12,-277 230,-277 230,-277 236,-277 242,-283 242,-289 242,-289 242,-301 242,-301 242,-307 236,-313 230,-313"/>
<text text-anchor="middle" x="121" y="-291.9" font-family="sans" font-size="12.00" fill="#c4c7c7">Languages, Automata and Computation</text>
</a>
</g>
</g>
<!-- Knowledege Base -->
<g id="node2" class="node">
<title>Knowledege Base</title>
<g id="a_node2"><a xlink:href="/Knowledge/Knowledege Base.html" xlink:title="Knowledege Base" target="_parent">
<path fill="none" stroke="#b75867" d="M355,-313C355,-313 262,-313 262,-313 256,-313 250,-307 250,-301 250,-301 250,-289 250,-289 250,-283 256,-277 262,-277 262,-277 355,-277 355,-277 361,-277 367,-283 367,-289 367,-289 367,-301 367,-301 367,-307 361,-313 355,-313"/>
<text text-anchor="middle" x="308.5" y="-291.9" font-family="sans" font-size="12.00" fill="#c4c7c7">Knowledege Base</text>
</a>
</g>
</g>
<!-- Languages, Automata and Computation&#45;&gt;Knowledege Base -->
<g id="edge1" class="edge">
<title>Languages, Automata and Computation&#45;&gt;Knowledege Base</title>
<path fill="none" stroke="#ffffff" d="M249.45,-295C249.61,-295 249.77,-295 249.93,-295"/>
<polygon fill="#ffffff" stroke="#ffffff" points="252.1,-291.5 242.1,-295 252.1,-298.5 252.1,-291.5"/>
</g>
<!-- Knowledege Base&#45;&gt;Languages, Automata and Computation -->
<g id="edge7" class="edge">
<title>Knowledege Base&#45;&gt;Languages, Automata and Computation</title>
<path fill="none" stroke="#b75867" d="M249.93,-295.7C249.77,-295.7 249.61,-295.7 249.45,-295.7"/>
<polygon fill="#b75867" stroke="#b75867" points="252.09,-292.19 242.1,-295.72 252.11,-299.19 252.09,-292.19"/>
</g>
<!-- Computer Architectures -->
<g id="node3" class="node">
<title>Computer Architectures</title>
<g id="a_node3"><a xlink:href="/Knowledge/Computer Architectures.html" xlink:title="Computer Architectures" target="_parent">
<path fill="#273434" stroke="#b75867" d="M541.5,-628C541.5,-628 414.5,-628 414.5,-628 408.5,-628 402.5,-622 402.5,-616 402.5,-616 402.5,-604 402.5,-604 402.5,-598 408.5,-592 414.5,-592 414.5,-592 541.5,-592 541.5,-592 547.5,-592 553.5,-598 553.5,-604 553.5,-604 553.5,-616 553.5,-616 553.5,-622 547.5,-628 541.5,-628"/>
<text text-anchor="middle" x="478" y="-606.9" font-family="sans" font-size="12.00" fill="#c4c7c7">Computer Architectures</text>
</a>
</g>
</g>
<!-- Knowledege Base&#45;&gt;Computer Architectures -->
<g id="edge2" class="edge">
<title>Knowledege Base&#45;&gt;Computer Architectures</title>
<path fill="none" stroke="#b75867" d="M311.05,-313.3C316.33,-371.2 335.51,-548.8 375,-588 380.26,-593.22 386.44,-597.33 393.12,-600.56"/>
<polygon fill="#b75867" stroke="#b75867" points="391.91,-603.85 402.49,-604.43 394.59,-597.38 391.91,-603.85"/>
</g>
<!-- Numeric Methods -->
<g id="node4" class="node">
<title>Numeric Methods</title>
<g id="a_node4"><a xlink:href="/Knowledge/Numeric Methods.html" xlink:title="Numeric Methods" target="_parent">
<path fill="#273434" stroke="#b75867" d="M524,-591C524,-591 432,-591 432,-591 426,-591 420,-585 420,-579 420,-579 420,-567 420,-567 420,-561 426,-555 432,-555 432,-555 524,-555 524,-555 530,-555 536,-561 536,-567 536,-567 536,-579 536,-579 536,-585 530,-591 524,-591"/>
<text text-anchor="middle" x="478" y="-569.9" font-family="sans" font-size="12.00" fill="#c4c7c7">Numeric Methods</text>
</a>
</g>
</g>
<!-- Knowledege Base&#45;&gt;Numeric Methods -->
<g id="edge3" class="edge">
<title>Knowledege Base&#45;&gt;Numeric Methods</title>
<path fill="none" stroke="#b75867" d="M311.68,-313.21C318.35,-366.01 340.21,-517.51 375,-551 384.57,-560.21 397.02,-565.95 409.92,-569.45"/>
<polygon fill="#b75867" stroke="#b75867" points="409.31,-572.9 419.83,-571.71 410.86,-566.08 409.31,-572.9"/>
</g>
<!-- Design and Analysis of Algorithms -->
<g id="node5" class="node">
<title>Design and Analysis of Algorithms</title>
<g id="a_node5"><a xlink:href="/Knowledge/Design and Analysis of Algorithms.html" xlink:title="Design and Analysis of Algorithms" target="_parent">
<path fill="#273434" stroke="#b75867" d="M569,-554C569,-554 387,-554 387,-554 381,-554 375,-548 375,-542 375,-542 375,-530 375,-530 375,-524 381,-518 387,-518 387,-518 569,-518 569,-518 575,-518 581,-524 581,-530 581,-530 581,-542 581,-542 581,-548 575,-554 569,-554"/>
<text text-anchor="middle" x="478" y="-532.9" font-family="sans" font-size="12.00" fill="#c4c7c7">Design and Analysis of Algorithms</text>
</a>
</g>
</g>
<!-- Knowledege Base&#45;&gt;Design and Analysis of Algorithms -->
<g id="edge4" class="edge">
<title>Knowledege Base&#45;&gt;Design and Analysis of Algorithms</title>
<path fill="none" stroke="#b75867" d="M309.16,-313.17C309.41,-353.56 315.76,-451.64 372.41,-510.82"/>
<polygon fill="#b75867" stroke="#b75867" points="369.98,-513.34 379.57,-517.84 374.88,-508.34 369.98,-513.34"/>
</g>
<!-- Logic Programming -->
<g id="node6" class="node">
<title>Logic Programming</title>
<g id="a_node6"><a xlink:href="/Knowledge/Logic Programming.html" xlink:title="Logic Programming" target="_parent">
<path fill="#273434" stroke="#b75867" d="M529,-517C529,-517 427,-517 427,-517 421,-517 415,-511 415,-505 415,-505 415,-493 415,-493 415,-487 421,-481 427,-481 427,-481 529,-481 529,-481 535,-481 541,-487 541,-493 541,-493 541,-505 541,-505 541,-511 535,-517 529,-517"/>
<text text-anchor="middle" x="478" y="-495.9" font-family="sans" font-size="12.00" fill="#c4c7c7">Logic Programming</text>
</a>
</g>
</g>
<!-- Knowledege Base&#45;&gt;Logic Programming -->
<g id="edge5" class="edge">
<title>Knowledege Base&#45;&gt;Logic Programming</title>
<path fill="none" stroke="#b75867" d="M310.44,-313.16C313.39,-350 325.47,-433.66 375,-477 383.59,-484.52 394.14,-489.67 405.15,-493.16"/>
<polygon fill="#b75867" stroke="#b75867" points="404.35,-496.57 414.92,-495.82 406.19,-489.82 404.35,-496.57"/>
</g>
<!-- Data Structures -->
<g id="node7" class="node">
<title>Data Structures</title>
<g id="a_node7"><a xlink:href="/Knowledge/Data Structures.html" xlink:title="Data Structures" target="_parent">
<path fill="#273434" stroke="#b75867" d="M518,-480C518,-480 438,-480 438,-480 432,-480 426,-474 426,-468 426,-468 426,-456 426,-456 426,-450 432,-444 438,-444 438,-444 518,-444 518,-444 524,-444 530,-450 530,-456 530,-456 530,-468 530,-468 530,-474 524,-480 518,-480"/>
<text text-anchor="middle" x="478" y="-458.9" font-family="sans" font-size="12.00" fill="#c4c7c7">Data Structures</text>
</a>
</g>
</g>
<!-- Knowledege Base&#45;&gt;Data Structures -->
<g id="edge6" class="edge">
<title>Knowledege Base&#45;&gt;Data Structures</title>
<path fill="none" stroke="#b75867" d="M312.36,-313.35C318.21,-344.46 334.6,-407.37 375,-440 386.56,-449.34 401.2,-454.95 415.74,-458.27"/>
<polygon fill="#b75867" stroke="#b75867" points="415.27,-461.74 425.76,-460.22 416.61,-454.87 415.27,-461.74"/>
</g>
<!-- Operations Research -->
<g id="node8" class="node">
<title>Operations Research</title>
<g id="a_node8"><a xlink:href="/Knowledge/Operations Research.html" xlink:title="Operations Research" target="_parent">
<path fill="#273434" stroke="#b75867" d="M532.5,-443C532.5,-443 423.5,-443 423.5,-443 417.5,-443 411.5,-437 411.5,-431 411.5,-431 411.5,-419 411.5,-419 411.5,-413 417.5,-407 423.5,-407 423.5,-407 532.5,-407 532.5,-407 538.5,-407 544.5,-413 544.5,-419 544.5,-419 544.5,-431 544.5,-431 544.5,-437 538.5,-443 532.5,-443"/>
<text text-anchor="middle" x="478" y="-421.9" font-family="sans" font-size="12.00" fill="#c4c7c7">Operations Research</text>
</a>
</g>
</g>
<!-- Knowledege Base&#45;&gt;Operations Research -->
<g id="edge8" class="edge">
<title>Knowledege Base&#45;&gt;Operations Research</title>
<path fill="none" stroke="#b75867" d="M315.33,-313.07C324.18,-337.47 343.39,-380.48 375,-403 383.02,-408.72 392.24,-413 401.78,-416.19"/>
<polygon fill="#b75867" stroke="#b75867" points="400.81,-419.56 411.4,-419.04 402.8,-412.84 400.81,-419.56"/>
</g>
<!-- Differential Equations -->
<g id="node9" class="node">
<title>Differential Equations</title>
<g id="a_node9"><a xlink:href="/Knowledge/Differential Equations.html" xlink:title="Differential Equations" target="_parent">
<path fill="#273434" stroke="#b75867" d="M535,-406C535,-406 421,-406 421,-406 415,-406 409,-400 409,-394 409,-394 409,-382 409,-382 409,-376 415,-370 421,-370 421,-370 535,-370 535,-370 541,-370 547,-376 547,-382 547,-382 547,-394 547,-394 547,-400 541,-406 535,-406"/>
<text text-anchor="middle" x="478" y="-384.9" font-family="sans" font-size="12.00" fill="#c4c7c7">Differential Equations</text>
</a>
</g>
</g>
<!-- Knowledege Base&#45;&gt;Differential Equations -->
<g id="edge9" class="edge">
<title>Knowledege Base&#45;&gt;Differential Equations</title>
<path fill="none" stroke="#b75867" d="M321.28,-313.1C332.93,-329.5 352.28,-353.02 375,-366 382.54,-370.31 390.84,-373.78 399.34,-376.56"/>
<polygon fill="#b75867" stroke="#b75867" points="398.42,-379.94 409,-379.43 400.41,-373.23 398.42,-379.94"/>
</g>
<!-- OOP -->
<g id="node10" class="node">
<title>OOP</title>
<g id="a_node10"><a xlink:href="/Knowledge/OOP.html" xlink:title="OOP" target="_parent">
<path fill="#273434" stroke="#b75867" d="M493,-369C493,-369 463,-369 463,-369 457,-369 451,-363 451,-357 451,-357 451,-345 451,-345 451,-339 457,-333 463,-333 463,-333 493,-333 493,-333 499,-333 505,-339 505,-345 505,-345 505,-357 505,-357 505,-363 499,-369 493,-369"/>
<text text-anchor="middle" x="478" y="-347.9" font-family="sans" font-size="12.00" fill="#c4c7c7">OOP</text>
</a>
</g>
</g>
<!-- Knowledege Base&#45;&gt;OOP -->
<g id="edge10" class="edge">
<title>Knowledege Base&#45;&gt;OOP</title>
<path fill="none" stroke="#b75867" d="M340.05,-313.01C350.82,-318.77 363.19,-324.75 375,-329 396.34,-336.68 421.19,-342.11 441.03,-345.66"/>
<polygon fill="#b75867" stroke="#b75867" points="440.45,-349.11 450.9,-347.34 441.63,-342.21 440.45,-349.11"/>
</g>
<!-- Discrete Structures -->
<g id="node11" class="node">
<title>Discrete Structures</title>
<g id="a_node11"><a xlink:href="/Knowledge/Discrete Structures.html" xlink:title="Discrete Structures" target="_parent">
<path fill="#273434" stroke="#b75867" d="M527,-332C527,-332 429,-332 429,-332 423,-332 417,-326 417,-320 417,-320 417,-308 417,-308 417,-302 423,-296 429,-296 429,-296 527,-296 527,-296 533,-296 539,-302 539,-308 539,-308 539,-320 539,-320 539,-326 533,-332 527,-332"/>
<text text-anchor="middle" x="478" y="-310.9" font-family="sans" font-size="12.00" fill="#c4c7c7">Discrete Structures</text>
</a>
</g>
</g>
<!-- Knowledege Base&#45;&gt;Discrete Structures -->
<g id="edge11" class="edge">
<title>Knowledege Base&#45;&gt;Discrete Structures</title>
<path fill="none" stroke="#b75867" d="M367.14,-301.54C379.96,-302.99 393.69,-304.55 406.95,-306.05"/>
<polygon fill="#b75867" stroke="#b75867" points="406.64,-309.54 416.97,-307.19 407.43,-302.59 406.64,-309.54"/>
</g>
<!-- Advanced Algebra -->
<g id="node12" class="node">
<title>Advanced Algebra</title>
<g id="a_node12"><a xlink:href="/Knowledge/Advanced Algebra.html" xlink:title="Advanced Algebra" target="_parent">
<path fill="#273434" stroke="#b75867" d="M525.5,-295C525.5,-295 430.5,-295 430.5,-295 424.5,-295 418.5,-289 418.5,-283 418.5,-283 418.5,-271 418.5,-271 418.5,-265 424.5,-259 430.5,-259 430.5,-259 525.5,-259 525.5,-259 531.5,-259 537.5,-265 537.5,-271 537.5,-271 537.5,-283 537.5,-283 537.5,-289 531.5,-295 525.5,-295"/>
<text text-anchor="middle" x="478" y="-273.9" font-family="sans" font-size="12.00" fill="#c4c7c7">Advanced Algebra</text>
</a>
</g>
</g>
<!-- Knowledege Base&#45;&gt;Advanced Algebra -->
<g id="edge12" class="edge">
<title>Knowledege Base&#45;&gt;Advanced Algebra</title>
<path fill="none" stroke="#b75867" d="M367.14,-288.81C380.34,-287.39 394.5,-285.87 408.11,-284.4"/>
<polygon fill="#b75867" stroke="#b75867" points="408.83,-287.85 418.4,-283.3 408.08,-280.89 408.83,-287.85"/>
</g>
<!-- Differential Analysis -->
<g id="node13" class="node">
<title>Differential Analysis</title>
<g id="a_node13"><a xlink:href="/Knowledge/Differential Analysis.html" xlink:title="Differential Analysis" target="_parent">
<path fill="#273434" stroke="#b75867" d="M529.5,-258C529.5,-258 426.5,-258 426.5,-258 420.5,-258 414.5,-252 414.5,-246 414.5,-246 414.5,-234 414.5,-234 414.5,-228 420.5,-222 426.5,-222 426.5,-222 529.5,-222 529.5,-222 535.5,-222 541.5,-228 541.5,-234 541.5,-234 541.5,-246 541.5,-246 541.5,-252 535.5,-258 529.5,-258"/>
<text text-anchor="middle" x="478" y="-236.9" font-family="sans" font-size="12.00" fill="#c4c7c7">Differential Analysis</text>
</a>
</g>
</g>
<!-- Knowledege Base&#45;&gt;Differential Analysis -->
<g id="edge13" class="edge">
<title>Knowledege Base&#45;&gt;Differential Analysis</title>
<path fill="none" stroke="#b75867" d="M341.43,-276.87C351.89,-271.49 363.71,-265.99 375,-262 384.35,-258.7 394.37,-255.8 404.34,-253.29"/>
<polygon fill="#b75867" stroke="#b75867" points="405.36,-256.64 414.27,-250.9 403.73,-249.83 405.36,-256.64"/>
</g>
<!-- Knowledege Base&#45;&gt;Differential Analysis -->
<g id="edge17" class="edge">
<title>Knowledege Base&#45;&gt;Differential Analysis</title>
<path fill="none" stroke="#b75867" d="M343.11,-276.97C353.14,-271.91 364.31,-266.77 375,-263 384.35,-259.7 394.37,-256.8 404.34,-254.28"/>
<polygon fill="#b75867" stroke="#b75867" points="405.37,-257.63 414.27,-251.88 403.72,-250.82 405.37,-257.63"/>
</g>
<!-- Introduction to programming -->
<g id="node14" class="node">
<title>Introduction to programming</title>
<g id="a_node14"><a xlink:href="/Knowledge/Introduction to programming.html" xlink:title="Introduction to programming" target="_parent">
<path fill="#273434" stroke="#b75867" d="M557.5,-221C557.5,-221 398.5,-221 398.5,-221 392.5,-221 386.5,-215 386.5,-209 386.5,-209 386.5,-197 386.5,-197 386.5,-191 392.5,-185 398.5,-185 398.5,-185 557.5,-185 557.5,-185 563.5,-185 569.5,-191 569.5,-197 569.5,-197 569.5,-209 569.5,-209 569.5,-215 563.5,-221 557.5,-221"/>
<text text-anchor="middle" x="478" y="-199.9" font-family="sans" font-size="12.00" fill="#c4c7c7">Introduction to programming</text>
</a>
</g>
</g>
<!-- Knowledege Base&#45;&gt;Introduction to programming -->
<g id="edge14" class="edge">
<title>Knowledege Base&#45;&gt;Introduction to programming</title>
<path fill="none" stroke="#b75867" d="M321.56,-276.85C333.28,-260.7 352.56,-237.72 375,-225 375.68,-224.61 376.37,-224.24 377.06,-223.86"/>
<polygon fill="#b75867" stroke="#b75867" points="378.84,-226.89 386.33,-219.39 375.8,-220.58 378.84,-226.89"/>
</g>
<!-- Analytic Geometry -->
<g id="node15" class="node">
<title>Analytic Geometry</title>
<g id="a_node15"><a xlink:href="/Knowledge/Analytic Geometry.html" xlink:title="Analytic Geometry" target="_parent">
<path fill="#273434" stroke="#b75867" d="M526.5,-184C526.5,-184 429.5,-184 429.5,-184 423.5,-184 417.5,-178 417.5,-172 417.5,-172 417.5,-160 417.5,-160 417.5,-154 423.5,-148 429.5,-148 429.5,-148 526.5,-148 526.5,-148 532.5,-148 538.5,-154 538.5,-160 538.5,-160 538.5,-172 538.5,-172 538.5,-178 532.5,-184 526.5,-184"/>
<text text-anchor="middle" x="478" y="-162.9" font-family="sans" font-size="12.00" fill="#c4c7c7">Analytic Geometry</text>
</a>
</g>
</g>
<!-- Knowledege Base&#45;&gt;Analytic Geometry -->
<g id="edge15" class="edge">
<title>Knowledege Base&#45;&gt;Analytic Geometry</title>
<path fill="none" stroke="#b75867" d="M315.53,-276.68C324.5,-252.44 343.73,-210.18 375,-188 384.64,-181.16 395.99,-176.38 407.55,-173.05"/>
<polygon fill="#b75867" stroke="#b75867" points="408.45,-176.44 417.28,-170.58 406.73,-169.65 408.45,-176.44"/>
</g>
<!-- Linear Algebra -->
<g id="node16" class="node">
<title>Linear Algebra</title>
<g id="a_node16"><a xlink:href="/Knowledge/Linear Algebra.html" xlink:title="Linear Algebra" target="_parent">
<path fill="#273434" stroke="#b75867" d="M515,-147C515,-147 441,-147 441,-147 435,-147 429,-141 429,-135 429,-135 429,-123 429,-123 429,-117 435,-111 441,-111 441,-111 515,-111 515,-111 521,-111 527,-117 527,-123 527,-123 527,-135 527,-135 527,-141 521,-147 515,-147"/>
<text text-anchor="middle" x="478" y="-125.9" font-family="sans" font-size="12.00" fill="#c4c7c7">Linear Algebra</text>
</a>
</g>
</g>
<!-- Knowledege Base&#45;&gt;Linear Algebra -->
<g id="edge16" class="edge">
<title>Knowledege Base&#45;&gt;Linear Algebra</title>
<path fill="none" stroke="#b75867" d="M312.4,-276.77C318.31,-245.87 334.79,-183.39 375,-151 387.38,-141.02 403.26,-135.3 418.79,-132.09"/>
<polygon fill="#b75867" stroke="#b75867" points="419.65,-135.49 428.9,-130.32 418.45,-128.6 419.65,-135.49"/>
</g>
<!-- Org Roam -->
<g id="node17" class="node">
<title>Org Roam</title>
<g id="a_node17"><a xlink:href="/Knowledge/Org Roam.html" xlink:title="Org Roam" target="_parent">
<path fill="#273434" stroke="#b75867" d="M502,-110C502,-110 454,-110 454,-110 448,-110 442,-104 442,-98 442,-98 442,-86 442,-86 442,-80 448,-74 454,-74 454,-74 502,-74 502,-74 508,-74 514,-80 514,-86 514,-86 514,-98 514,-98 514,-104 508,-110 502,-110"/>
<text text-anchor="middle" x="478" y="-88.9" font-family="sans" font-size="12.00" fill="#c4c7c7">Org Roam</text>
</a>
</g>
</g>
<!-- Knowledege Base&#45;&gt;Org Roam -->
<g id="edge18" class="edge">
<title>Knowledege Base&#45;&gt;Org Roam</title>
<path fill="none" stroke="#b75867" d="M310.48,-276.93C313.48,-240.3 325.67,-157.09 375,-114 390.38,-100.56 412,-94.7 431.37,-92.33"/>
<polygon fill="#b75867" stroke="#b75867" points="431.92,-95.8 441.55,-91.38 431.27,-88.83 431.92,-95.8"/>
</g>
<!-- Org&#45;mode -->
<g id="node18" class="node">
<title>Org&#45;mode</title>
<g id="a_node18"><a xlink:href="/Knowledge/Org-mode.html" xlink:title="Org&#45;mode" target="_parent">
<path fill="#273434" stroke="#b75867" d="M503,-73C503,-73 453,-73 453,-73 447,-73 441,-67 441,-61 441,-61 441,-49 441,-49 441,-43 447,-37 453,-37 453,-37 503,-37 503,-37 509,-37 515,-43 515,-49 515,-49 515,-61 515,-61 515,-67 509,-73 503,-73"/>
<text text-anchor="middle" x="478" y="-51.9" font-family="sans" font-size="12.00" fill="#c4c7c7">Org&#45;mode</text>
</a>
</g>
</g>
<!-- Knowledege Base&#45;&gt;Org&#45;mode -->
<g id="edge19" class="edge">
<title>Knowledege Base&#45;&gt;Org&#45;mode</title>
<path fill="none" stroke="#b75867" d="M309.19,-276.91C309.51,-235.06 316.5,-131.03 375,-77 389.89,-63.25 411.25,-57.31 430.58,-54.99"/>
<polygon fill="#b75867" stroke="#b75867" points="431.11,-58.46 440.75,-54.07 430.48,-51.49 431.11,-58.46"/>
</g>
<!-- Projects -->
<g id="node19" class="node">
<title>Projects</title>
<g id="a_node19"><a xlink:href="/Knowledge/Projects.html" xlink:title="Projects" target="_parent">
<path fill="none" stroke="#b75867" d="M497,-36C497,-36 459,-36 459,-36 453,-36 447,-30 447,-24 447,-24 447,-12 447,-12 447,-6 453,0 459,0 459,0 497,0 497,0 503,0 509,-6 509,-12 509,-12 509,-24 509,-24 509,-30 503,-36 497,-36"/>
<text text-anchor="middle" x="478" y="-14.9" font-family="sans" font-size="12.00" fill="#c4c7c7">Projects</text>
</a>
</g>
</g>
<!-- Knowledege Base&#45;&gt;Projects -->
<g id="edge20" class="edge">
<title>Knowledege Base&#45;&gt;Projects</title>
<path fill="none" stroke="#ffffff" d="M313.02,-266.64C321,-206.98 342.36,-71.39 375,-40 393.93,-21.79 424.14,-17.15 446.78,-16.55"/>
<polygon fill="#ffffff" stroke="#ffffff" points="309.51,-266.49 311.69,-276.86 316.45,-267.4 309.51,-266.49"/>
</g>
</g>
</svg>
