<?xml version="1.0" encoding="UTF-8" standalone="no"?>
<!DOCTYPE svg PUBLIC "-//W3C//DTD SVG 1.1//EN"
 "http://www.w3.org/Graphics/SVG/1.1/DTD/svg11.dtd">
<!-- Generated by graphviz version 2.46.1 (0)
 -->
<!-- Title: Languages, Automata and Computation Pages: 1 -->
<svg width="225pt" height="44pt"
 viewBox="0.00 0.00 225.00 44.00" xmlns="http://www.w3.org/2000/svg" xmlns:xlink="http://www.w3.org/1999/xlink">
<g id="graph0" class="graph" transform="scale(1 1) rotate(0) translate(4 40)">
<title>Languages, Automata and Computation</title>
<polygon fill="#132020" stroke="transparent" points="-4,4 -4,-40 221,-40 221,4 -4,4"/>
<!-- Languages, Automata and Computation -->
<g id="node1" class="node">
<title>Languages, Automata and Computation</title>
<g id="a_node1"><a xlink:href="/Knowledge/languages,_automata_and_computation.html" xlink:title="Languages, Automata and Computation" target="_parent">
<path fill="#273434" stroke="#b75867" d="M205,-36C205,-36 12,-36 12,-36 6,-36 0,-30 0,-24 0,-24 0,-12 0,-12 0,-6 6,0 12,0 12,0 205,0 205,0 211,0 217,-6 217,-12 217,-12 217,-24 217,-24 217,-30 211,-36 205,-36"/>
<text text-anchor="middle" x="108.5" y="-14.9" font-family="sans" font-size="12.00" fill="#c4c7c7">Languages, Automata and Computation</text>
</a>
</g>
</g>
</g>
</svg>
