<?xml version="1.0" encoding="UTF-8" standalone="no"?>
<!DOCTYPE svg PUBLIC "-//W3C//DTD SVG 1.1//EN"
 "http://www.w3.org/Graphics/SVG/1.1/DTD/svg11.dtd">
<!-- Generated by graphviz version 2.46.1 (0)
 -->
<!-- Title: Linear extension Pages: 1 -->
<svg width="654pt" height="525pt"
 viewBox="0.00 0.00 654.00 525.00" xmlns="http://www.w3.org/2000/svg" xmlns:xlink="http://www.w3.org/1999/xlink">
<g id="graph0" class="graph" transform="scale(1 1) rotate(0) translate(4 521)">
<title>Linear extension</title>
<polygon fill="#132020" stroke="transparent" points="-4,4 -4,-521 650,-521 650,4 -4,4"/>
<!-- Linear extension -->
<g id="node1" class="node">
<title>Linear extension</title>
<g id="a_node1"><a xlink:href="/Knowledge/linear_extension.html" xlink:title="Linear extension" target="_parent">
<path fill="#273434" stroke="#b75867" d="M89,-353C89,-353 12,-353 12,-353 6,-353 0,-347 0,-341 0,-341 0,-329 0,-329 0,-323 6,-317 12,-317 12,-317 89,-317 89,-317 95,-317 101,-323 101,-329 101,-329 101,-341 101,-341 101,-347 95,-353 89,-353"/>
<text text-anchor="middle" x="50.5" y="-331.9" font-family="sans" font-size="12.00" fill="#c4c7c7">Linear extension</text>
</a>
</g>
</g>
<!-- Linear order -->
<g id="node2" class="node">
<title>Linear order</title>
<g id="a_node2"><a xlink:href="/Knowledge/linear_order.html" xlink:title="Linear order" target="_parent">
<path fill="#273434" stroke="#b75867" d="M176,-353C176,-353 121,-353 121,-353 115,-353 109,-347 109,-341 109,-341 109,-329 109,-329 109,-323 115,-317 121,-317 121,-317 176,-317 176,-317 182,-317 188,-323 188,-329 188,-329 188,-341 188,-341 188,-347 182,-353 176,-353"/>
<text text-anchor="middle" x="148.5" y="-331.9" font-family="sans" font-size="12.00" fill="#c4c7c7">Linear order</text>
</a>
</g>
</g>
<!-- Linear extension&#45;&gt;Linear order -->
<g id="edge1" class="edge">
<title>Linear extension&#45;&gt;Linear order</title>
<path fill="none" stroke="#b75867" d="M101.19,-335C101.35,-335 101.51,-335 101.67,-335"/>
<polygon fill="#b75867" stroke="#b75867" points="98.82,-338.5 108.82,-335 98.82,-331.5 98.82,-338.5"/>
</g>
<!-- Partial order -->
<g id="node3" class="node">
<title>Partial order</title>
<g id="a_node3"><a xlink:href="/Knowledge/partial_order.html" xlink:title="Partial order" target="_parent">
<path fill="#273434" stroke="#b75867" d="M263,-378C263,-378 208,-378 208,-378 202,-378 196,-372 196,-366 196,-366 196,-354 196,-354 196,-348 202,-342 208,-342 208,-342 263,-342 263,-342 269,-342 275,-348 275,-354 275,-354 275,-366 275,-366 275,-372 269,-378 263,-378"/>
<text text-anchor="middle" x="235.5" y="-356.9" font-family="sans" font-size="12.00" fill="#c4c7c7">Partial order</text>
</a>
</g>
</g>
<!-- Linear extension&#45;&gt;Partial order -->
<g id="edge2" class="edge">
<title>Linear extension&#45;&gt;Partial order</title>
<path fill="none" stroke="#b75867" d="M101.2,-350.43C103.83,-351.02 106.44,-351.55 109,-352 134.09,-356.45 162.39,-358.51 185.76,-359.43"/>
<polygon fill="#b75867" stroke="#b75867" points="185.67,-362.92 195.79,-359.76 185.91,-355.93 185.67,-362.92"/>
</g>
<!-- Relations -->
<g id="node4" class="node">
<title>Relations</title>
<g id="a_node4"><a xlink:href="/Knowledge/relations.html" xlink:title="Relations" target="_parent">
<path fill="none" stroke="#b75867" d="M390,-332C390,-332 350,-332 350,-332 344,-332 338,-326 338,-320 338,-320 338,-308 338,-308 338,-302 344,-296 350,-296 350,-296 390,-296 390,-296 396,-296 402,-302 402,-308 402,-308 402,-320 402,-320 402,-326 396,-332 390,-332"/>
<text text-anchor="middle" x="370" y="-310.9" font-family="sans" font-size="12.00" fill="#c4c7c7">Relations</text>
</a>
</g>
</g>
<!-- Linear extension&#45;&gt;Relations -->
<g id="edge3" class="edge">
<title>Linear extension&#45;&gt;Relations</title>
<path fill="none" stroke="#ffffff" d="M111.23,-318.92C198.18,-307.2 290.83,-309.73 337.98,-312.09"/>
<polygon fill="#ffffff" stroke="#ffffff" points="110.61,-315.48 101.2,-320.34 111.59,-322.41 110.61,-315.48"/>
</g>
<!-- Linear order&#45;&gt;Linear extension -->
<g id="edge9" class="edge">
<title>Linear order&#45;&gt;Linear extension</title>
<path fill="none" stroke="#ffffff" d="M101.67,-335.75C101.51,-335.75 101.35,-335.75 101.19,-335.75"/>
<polygon fill="#ffffff" stroke="#ffffff" points="98.83,-339.25 108.82,-335.74 98.82,-332.25 98.83,-339.25"/>
</g>
<!-- Linear order&#45;&gt;Partial order -->
<g id="edge4" class="edge">
<title>Linear order&#45;&gt;Partial order</title>
<path fill="none" stroke="#b75867" d="M188.02,-346.33C188.19,-346.38 188.35,-346.43 188.52,-346.48"/>
<polygon fill="#b75867" stroke="#b75867" points="185.37,-349.2 195.95,-348.66 187.34,-342.48 185.37,-349.2"/>
</g>
<!-- Linear order&#45;&gt;Relations -->
<g id="edge10" class="edge">
<title>Linear order&#45;&gt;Relations</title>
<path fill="none" stroke="#ffffff" d="M198.38,-330.32C240.95,-326.25 301.4,-320.47 337.75,-316.99"/>
<polygon fill="#ffffff" stroke="#ffffff" points="197.86,-326.86 188.24,-331.29 198.52,-333.83 197.86,-326.86"/>
</g>
<!-- Transitive Relation -->
<g id="node5" class="node">
<title>Transitive Relation</title>
<g id="a_node5"><a xlink:href="/Knowledge/transitive_relation.html" xlink:title="Transitive Relation" target="_parent">
<path fill="#273434" stroke="#b75867" d="M598.5,-406C598.5,-406 512.5,-406 512.5,-406 506.5,-406 500.5,-400 500.5,-394 500.5,-394 500.5,-382 500.5,-382 500.5,-376 506.5,-370 512.5,-370 512.5,-370 598.5,-370 598.5,-370 604.5,-370 610.5,-376 610.5,-382 610.5,-382 610.5,-394 610.5,-394 610.5,-400 604.5,-406 598.5,-406"/>
<text text-anchor="middle" x="555.5" y="-384.9" font-family="sans" font-size="12.00" fill="#c4c7c7">Transitive Relation</text>
</a>
</g>
</g>
<!-- Linear order&#45;&gt;Transitive Relation -->
<g id="edge5" class="edge">
<title>Linear order&#45;&gt;Transitive Relation</title>
<path fill="none" stroke="#b75867" d="M188.08,-334.29C268.28,-332.99 446.46,-331.03 457,-339 466.98,-346.55 455.94,-357.36 465,-366 472.21,-372.88 481.2,-377.71 490.69,-381.08"/>
<polygon fill="#b75867" stroke="#b75867" points="489.7,-384.44 500.29,-384 491.74,-377.75 489.7,-384.44"/>
</g>
<!-- Strongly Anti&#45;symmetric Relation -->
<g id="node6" class="node">
<title>Strongly Anti&#45;symmetric Relation</title>
<g id="a_node6"><a xlink:href="/Knowledge/strongly_anti-symmetric_relation.html" xlink:title="Strongly Anti&#45;symmetric Relation" target="_parent">
<path fill="#273434" stroke="#b75867" d="M634,-36C634,-36 477,-36 477,-36 471,-36 465,-30 465,-24 465,-24 465,-12 465,-12 465,-6 471,0 477,0 477,0 634,0 634,0 640,0 646,-6 646,-12 646,-12 646,-24 646,-24 646,-30 640,-36 634,-36"/>
<text text-anchor="middle" x="555.5" y="-14.9" font-family="sans" font-size="12.00" fill="#c4c7c7">Strongly Anti&#45;symmetric Relation</text>
</a>
</g>
</g>
<!-- Linear order&#45;&gt;Strongly Anti&#45;symmetric Relation -->
<g id="edge6" class="edge">
<title>Linear order&#45;&gt;Strongly Anti&#45;symmetric Relation</title>
<path fill="none" stroke="#b75867" d="M163.27,-316.74C202.7,-265.81 321.84,-120.93 463.88,-41.06"/>
<polygon fill="#b75867" stroke="#b75867" points="465.76,-44.02 472.83,-36.13 462.38,-37.89 465.76,-44.02"/>
</g>
<!-- Reflexive Relation -->
<g id="node7" class="node">
<title>Reflexive Relation</title>
<g id="a_node7"><a xlink:href="/Knowledge/reflexive_relation.html" xlink:title="Reflexive Relation" target="_parent">
<path fill="#273434" stroke="#b75867" d="M596.5,-480C596.5,-480 514.5,-480 514.5,-480 508.5,-480 502.5,-474 502.5,-468 502.5,-468 502.5,-456 502.5,-456 502.5,-450 508.5,-444 514.5,-444 514.5,-444 596.5,-444 596.5,-444 602.5,-444 608.5,-450 608.5,-456 608.5,-456 608.5,-468 608.5,-468 608.5,-474 602.5,-480 596.5,-480"/>
<text text-anchor="middle" x="555.5" y="-458.9" font-family="sans" font-size="12.00" fill="#c4c7c7">Reflexive Relation</text>
</a>
</g>
</g>
<!-- Linear order&#45;&gt;Reflexive Relation -->
<g id="edge7" class="edge">
<title>Linear order&#45;&gt;Reflexive Relation</title>
<path fill="none" stroke="#b75867" d="M188.28,-335.69C266.7,-337.46 438.28,-343.45 457,-362 469.38,-374.26 453.56,-426.85 465,-440 472.24,-448.32 482.06,-453.75 492.56,-457.25"/>
<polygon fill="#b75867" stroke="#b75867" points="491.76,-460.66 502.33,-459.95 493.62,-453.92 491.76,-460.66"/>
</g>
<!-- Relation -->
<g id="node8" class="node">
<title>Relation</title>
<g id="a_node8"><a xlink:href="/Knowledge/relation.html" xlink:title="Relation" target="_parent">
<path fill="#273434" stroke="#b75867" d="M573,-443C573,-443 538,-443 538,-443 532,-443 526,-437 526,-431 526,-431 526,-419 526,-419 526,-413 532,-407 538,-407 538,-407 573,-407 573,-407 579,-407 585,-413 585,-419 585,-419 585,-431 585,-431 585,-437 579,-443 573,-443"/>
<text text-anchor="middle" x="555.5" y="-421.9" font-family="sans" font-size="12.00" fill="#c4c7c7">Relation</text>
</a>
</g>
</g>
<!-- Linear order&#45;&gt;Relation -->
<g id="edge8" class="edge">
<title>Linear order&#45;&gt;Relation</title>
<path fill="none" stroke="#b75867" d="M188.19,-334.56C268.6,-333.81 447.17,-333.17 457,-342 477.35,-360.27 446.76,-382.63 465,-403 477.64,-417.12 497.73,-422.88 515.68,-425"/>
<polygon fill="#b75867" stroke="#b75867" points="515.39,-428.49 525.65,-425.85 515.99,-421.51 515.39,-428.49"/>
</g>
<!-- Partial order&#45;&gt;Linear extension -->
<g id="edge16" class="edge">
<title>Partial order&#45;&gt;Linear extension</title>
<path fill="none" stroke="#ffffff" d="M185.76,-360.33C162.39,-359.51 134.09,-357.45 109,-353 106.44,-352.55 103.83,-352.02 101.2,-351.43"/>
<polygon fill="#ffffff" stroke="#ffffff" points="185.69,-363.83 195.79,-360.62 185.89,-356.83 185.69,-363.83"/>
</g>
<!-- Partial order&#45;&gt;Linear order -->
<g id="edge15" class="edge">
<title>Partial order&#45;&gt;Linear order</title>
<path fill="none" stroke="#ffffff" d="M188.52,-347.22C188.35,-347.17 188.19,-347.13 188.02,-347.08"/>
<polygon fill="#ffffff" stroke="#ffffff" points="185.37,-349.95 195.95,-349.41 187.34,-343.23 185.37,-349.95"/>
</g>
<!-- Partial order&#45;&gt;Relations -->
<g id="edge17" class="edge">
<title>Partial order&#45;&gt;Relations</title>
<path fill="none" stroke="#ffffff" d="M284.81,-338.51C305.98,-330.91 323.28,-325.87 337.61,-321.98"/>
<polygon fill="#ffffff" stroke="#ffffff" points="283.33,-335.32 275.15,-342.05 285.74,-341.89 283.33,-335.32"/>
</g>
<!-- Partial order&#45;&gt;Transitive Relation -->
<g id="edge11" class="edge">
<title>Partial order&#45;&gt;Transitive Relation</title>
<path fill="none" stroke="#b75867" d="M275.07,-359.11C277.75,-359.06 280.42,-359.03 283,-359 360.33,-358.17 384.61,-331.8 457,-359 461.42,-360.66 460.81,-363.82 465,-366 473.03,-370.18 481.87,-373.58 490.79,-376.35"/>
<polygon fill="#b75867" stroke="#b75867" points="489.87,-379.73 500.45,-379.12 491.8,-373 489.87,-379.73"/>
</g>
<!-- Partial order&#45;&gt;Reflexive Relation -->
<g id="edge13" class="edge">
<title>Partial order&#45;&gt;Reflexive Relation</title>
<path fill="none" stroke="#b75867" d="M254.06,-378.13C262.22,-385.61 272.44,-393.73 283,-399 350.08,-432.48 435.42,-448.51 492.34,-455.95"/>
<polygon fill="#b75867" stroke="#b75867" points="491.92,-459.43 502.28,-457.2 492.79,-452.48 491.92,-459.43"/>
</g>
<!-- Partial order&#45;&gt;Relation -->
<g id="edge14" class="edge">
<title>Partial order&#45;&gt;Relation</title>
<path fill="none" stroke="#b75867" d="M275.31,-358.31C334.88,-356.1 443.41,-353.72 457,-365 470.28,-376.03 453,-390.59 465,-403 478.02,-416.46 497.84,-422.21 515.52,-424.49"/>
<polygon fill="#b75867" stroke="#b75867" points="515.33,-427.99 525.62,-425.46 516,-421.02 515.33,-427.99"/>
</g>
<!-- Anti&#45;symmetric Relation -->
<g id="node9" class="node">
<title>Anti&#45;symmetric Relation</title>
<g id="a_node9"><a xlink:href="/Knowledge/anti-symmetric_relation.html" xlink:title="Anti&#45;symmetric Relation" target="_parent">
<path fill="#273434" stroke="#b75867" d="M612,-517C612,-517 499,-517 499,-517 493,-517 487,-511 487,-505 487,-505 487,-493 487,-493 487,-487 493,-481 499,-481 499,-481 612,-481 612,-481 618,-481 624,-487 624,-493 624,-493 624,-505 624,-505 624,-511 618,-517 612,-517"/>
<text text-anchor="middle" x="555.5" y="-495.9" font-family="sans" font-size="12.00" fill="#c4c7c7">Anti&#45;symmetric Relation</text>
</a>
</g>
</g>
<!-- Partial order&#45;&gt;Anti&#45;symmetric Relation -->
<g id="edge12" class="edge">
<title>Partial order&#45;&gt;Anti&#45;symmetric Relation</title>
<path fill="none" stroke="#b75867" d="M245.07,-378.04C252.95,-392.75 265.99,-413.01 283,-425 340.35,-465.43 418.81,-483.79 476.64,-492.11"/>
<polygon fill="#b75867" stroke="#b75867" points="476.44,-495.62 486.82,-493.51 477.39,-488.68 476.44,-495.62"/>
</g>
<!-- Partial orders have no contours -->
<g id="node10" class="node">
<title>Partial orders have no contours</title>
<g id="a_node10"><a xlink:href="/Knowledge/partial_orders_have_no_contours.html" xlink:title="Partial orders have no contours" target="_parent">
<path fill="none" stroke="#b75867" d="M445,-398C445,-398 295,-398 295,-398 289,-398 283,-392 283,-386 283,-386 283,-374 283,-374 283,-368 289,-362 295,-362 295,-362 445,-362 445,-362 451,-362 457,-368 457,-374 457,-374 457,-386 457,-386 457,-392 451,-398 445,-398"/>
<text text-anchor="middle" x="370" y="-376.9" font-family="sans" font-size="12.00" fill="#c4c7c7">Partial orders have no contours</text>
</a>
</g>
</g>
<!-- Partial order&#45;&gt;Partial orders have no contours -->
<g id="edge18" class="edge">
<title>Partial order&#45;&gt;Partial orders have no contours</title>
<path fill="none" stroke="#ffffff" d="M282.2,-366.9C282.36,-366.92 282.52,-366.95 282.68,-366.97"/>
<polygon fill="#ffffff" stroke="#ffffff" points="285.59,-363.87 275.18,-365.84 284.55,-370.79 285.59,-363.87"/>
</g>
<!-- Relations&#45;&gt;Linear extension -->
<g id="edge20" class="edge">
<title>Relations&#45;&gt;Linear extension</title>
<path fill="none" stroke="#b75867" d="M337.98,-312.72C290.83,-310.71 198.18,-308.2 111.23,-319.92"/>
<polygon fill="#b75867" stroke="#b75867" points="110.61,-316.48 101.2,-321.34 111.59,-323.41 110.61,-316.48"/>
</g>
<!-- Relations&#45;&gt;Linear order -->
<g id="edge21" class="edge">
<title>Relations&#45;&gt;Linear order</title>
<path fill="none" stroke="#b75867" d="M337.75,-317.53C301.4,-321.25 240.95,-327.06 198.38,-330.96"/>
<polygon fill="#b75867" stroke="#b75867" points="197.88,-327.49 188.24,-331.88 198.51,-334.46 197.88,-327.49"/>
</g>
<!-- Relations&#45;&gt;Partial order -->
<g id="edge22" class="edge">
<title>Relations&#45;&gt;Partial order</title>
<path fill="none" stroke="#b75867" d="M337.61,-322.87C323.28,-326.86 305.98,-331.91 284.81,-339.51"/>
<polygon fill="#b75867" stroke="#b75867" points="283.33,-336.32 275.15,-343.05 285.74,-342.89 283.33,-336.32"/>
</g>
<!-- Relations&#45;&gt;Transitive Relation -->
<g id="edge31" class="edge">
<title>Relations&#45;&gt;Transitive Relation</title>
<path fill="none" stroke="#b75867" d="M402.23,-314.45C420.47,-316.37 442.65,-321.8 457,-336 466.81,-345.71 455.15,-356.34 465,-366 472.11,-372.97 481.06,-377.86 490.52,-381.25"/>
<polygon fill="#b75867" stroke="#b75867" points="489.53,-384.61 500.11,-384.18 491.57,-377.91 489.53,-384.61"/>
</g>
<!-- Relations&#45;&gt;Strongly Anti&#45;symmetric Relation -->
<g id="edge32" class="edge">
<title>Relations&#45;&gt;Strongly Anti&#45;symmetric Relation</title>
<path fill="none" stroke="#b75867" d="M402.17,-314.75C421.12,-313.38 444.08,-308.11 457,-292 473.16,-271.85 451.34,-93.19 464.41,-45.3"/>
<polygon fill="#b75867" stroke="#b75867" points="467.63,-46.68 468.53,-36.12 461.24,-43.81 467.63,-46.68"/>
</g>
<!-- Relations&#45;&gt;Reflexive Relation -->
<g id="edge36" class="edge">
<title>Relations&#45;&gt;Reflexive Relation</title>
<path fill="none" stroke="#b75867" d="M402.09,-315.77C421,-318.59 443.95,-325.49 457,-342 470.55,-359.14 450.83,-423.37 465,-440 472.15,-448.39 481.94,-453.86 492.42,-457.37"/>
<polygon fill="#b75867" stroke="#b75867" points="491.62,-460.78 502.19,-460.07 493.48,-454.03 491.62,-460.78"/>
</g>
<!-- Relations&#45;&gt;Relation -->
<g id="edge37" class="edge">
<title>Relations&#45;&gt;Relation</title>
<path fill="none" stroke="#b75867" d="M402.13,-313.68C420.81,-315.25 443.49,-320.58 457,-336 476.77,-358.55 445.13,-380.54 465,-403 477.56,-417.19 497.65,-422.96 515.61,-425.06"/>
<polygon fill="#b75867" stroke="#b75867" points="515.34,-428.55 525.59,-425.9 515.92,-421.58 515.34,-428.55"/>
</g>
<!-- Relations&#45;&gt;Anti&#45;symmetric Relation -->
<g id="edge33" class="edge">
<title>Relations&#45;&gt;Anti&#45;symmetric Relation</title>
<path fill="none" stroke="#b75867" d="M402.19,-322.97C421.39,-330.23 444.63,-342.51 457,-362 470.73,-383.63 448.5,-457.4 465,-477 468.67,-481.36 473.05,-484.93 477.88,-487.86"/>
<polygon fill="#b75867" stroke="#b75867" points="476.48,-491.07 486.98,-492.44 479.62,-484.81 476.48,-491.07"/>
</g>
<!-- Chain -->
<g id="node11" class="node">
<title>Chain</title>
<g id="a_node11"><a xlink:href="/Knowledge/chain.html" xlink:title="Chain" target="_parent">
<path fill="#273434" stroke="#b75867" d="M570.5,-110C570.5,-110 540.5,-110 540.5,-110 534.5,-110 528.5,-104 528.5,-98 528.5,-98 528.5,-86 528.5,-86 528.5,-80 534.5,-74 540.5,-74 540.5,-74 570.5,-74 570.5,-74 576.5,-74 582.5,-80 582.5,-86 582.5,-86 582.5,-98 582.5,-98 582.5,-104 576.5,-110 570.5,-110"/>
<text text-anchor="middle" x="555.5" y="-88.9" font-family="sans" font-size="12.00" fill="#c4c7c7">Chain</text>
</a>
</g>
</g>
<!-- Relations&#45;&gt;Chain -->
<g id="edge19" class="edge">
<title>Relations&#45;&gt;Chain</title>
<path fill="none" stroke="#b75867" d="M402.1,-314.69C421.02,-313.3 443.97,-308.02 457,-292 469.49,-276.64 452.44,-129.3 465,-114 477.68,-98.56 499.28,-92.94 518.09,-91.25"/>
<polygon fill="#b75867" stroke="#b75867" points="518.39,-94.74 528.18,-90.67 517.99,-87.75 518.39,-94.74"/>
</g>
<!-- Class of equivalence -->
<g id="node12" class="node">
<title>Class of equivalence</title>
<g id="a_node12"><a xlink:href="/Knowledge/class_of_equivalence.html" xlink:title="Class of equivalence" target="_parent">
<path fill="#273434" stroke="#b75867" d="M603,-369C603,-369 508,-369 508,-369 502,-369 496,-363 496,-357 496,-357 496,-345 496,-345 496,-339 502,-333 508,-333 508,-333 603,-333 603,-333 609,-333 615,-339 615,-345 615,-345 615,-357 615,-357 615,-363 609,-369 603,-369"/>
<text text-anchor="middle" x="555.5" y="-347.9" font-family="sans" font-size="12.00" fill="#c4c7c7">Class of equivalence</text>
</a>
</g>
</g>
<!-- Relations&#45;&gt;Class of equivalence -->
<g id="edge23" class="edge">
<title>Relations&#45;&gt;Class of equivalence</title>
<path fill="none" stroke="#b75867" d="M402.13,-320.28C425,-324.89 456.96,-331.33 485.7,-337.13"/>
<polygon fill="#b75867" stroke="#b75867" points="485.22,-340.6 495.72,-339.15 486.61,-333.74 485.22,-340.6"/>
</g>
<!-- Relation of Equivalence -->
<g id="node13" class="node">
<title>Relation of Equivalence</title>
<g id="a_node13"><a xlink:href="/Knowledge/relation_of_equivalence.html" xlink:title="Relation of Equivalence" target="_parent">
<path fill="#273434" stroke="#b75867" d="M610.5,-295C610.5,-295 500.5,-295 500.5,-295 494.5,-295 488.5,-289 488.5,-283 488.5,-283 488.5,-271 488.5,-271 488.5,-265 494.5,-259 500.5,-259 500.5,-259 610.5,-259 610.5,-259 616.5,-259 622.5,-265 622.5,-271 622.5,-271 622.5,-283 622.5,-283 622.5,-289 616.5,-295 610.5,-295"/>
<text text-anchor="middle" x="555.5" y="-273.9" font-family="sans" font-size="12.00" fill="#c4c7c7">Relation of Equivalence</text>
</a>
</g>
</g>
<!-- Relations&#45;&gt;Relation of Equivalence -->
<g id="edge24" class="edge">
<title>Relations&#45;&gt;Relation of Equivalence</title>
<path fill="none" stroke="#b75867" d="M402.13,-307.72C422.98,-303.52 451.4,-297.79 478.04,-292.42"/>
<polygon fill="#b75867" stroke="#b75867" points="479.04,-295.79 488.15,-290.38 477.66,-288.92 479.04,-295.79"/>
</g>
<!-- Transitive Closure -->
<g id="node14" class="node">
<title>Transitive Closure</title>
<g id="a_node14"><a xlink:href="/Knowledge/transitive_closure.html" xlink:title="Transitive Closure" target="_parent">
<path fill="#273434" stroke="#b75867" d="M596.5,-258C596.5,-258 514.5,-258 514.5,-258 508.5,-258 502.5,-252 502.5,-246 502.5,-246 502.5,-234 502.5,-234 502.5,-228 508.5,-222 514.5,-222 514.5,-222 596.5,-222 596.5,-222 602.5,-222 608.5,-228 608.5,-234 608.5,-234 608.5,-246 608.5,-246 608.5,-252 602.5,-258 596.5,-258"/>
<text text-anchor="middle" x="555.5" y="-236.9" font-family="sans" font-size="12.00" fill="#c4c7c7">Transitive Closure</text>
</a>
</g>
</g>
<!-- Relations&#45;&gt;Transitive Closure -->
<g id="edge25" class="edge">
<title>Relations&#45;&gt;Transitive Closure</title>
<path fill="none" stroke="#b75867" d="M402.23,-313.55C420.47,-311.63 442.65,-306.2 457,-292 466.81,-282.29 455.15,-271.66 465,-262 472.62,-254.53 482.34,-249.46 492.56,-246.04"/>
<polygon fill="#b75867" stroke="#b75867" points="493.77,-249.34 502.45,-243.25 491.87,-242.6 493.77,-249.34"/>
</g>
<!-- Relations&#45;&gt;Transitive Closure -->
<g id="edge29" class="edge">
<title>Relations&#45;&gt;Transitive Closure</title>
<path fill="none" stroke="#b75867" d="M402.23,-314.41C420.47,-312.63 442.65,-307.2 457,-293 466.81,-283.29 455.15,-272.66 465,-263 472.62,-255.53 482.34,-250.46 492.56,-247.02"/>
<polygon fill="#b75867" stroke="#b75867" points="493.78,-250.31 502.45,-244.21 491.87,-243.58 493.78,-250.31"/>
</g>
<!-- Symmetric Closure -->
<g id="node15" class="node">
<title>Symmetric Closure</title>
<g id="a_node15"><a xlink:href="/Knowledge/symmetric_closure.html" xlink:title="Symmetric Closure" target="_parent">
<path fill="#273434" stroke="#b75867" d="M599,-221C599,-221 512,-221 512,-221 506,-221 500,-215 500,-209 500,-209 500,-197 500,-197 500,-191 506,-185 512,-185 512,-185 599,-185 599,-185 605,-185 611,-191 611,-197 611,-197 611,-209 611,-209 611,-215 605,-221 599,-221"/>
<text text-anchor="middle" x="555.5" y="-199.9" font-family="sans" font-size="12.00" fill="#c4c7c7">Symmetric Closure</text>
</a>
</g>
</g>
<!-- Relations&#45;&gt;Symmetric Closure -->
<g id="edge26" class="edge">
<title>Relations&#45;&gt;Symmetric Closure</title>
<path fill="none" stroke="#b75867" d="M402.13,-314.32C420.81,-312.75 443.49,-307.42 457,-292 476.77,-269.45 445.13,-247.46 465,-225 471.68,-217.45 480.49,-212.28 489.98,-208.79"/>
<polygon fill="#b75867" stroke="#b75867" points="491.11,-212.1 499.65,-205.82 489.06,-205.41 491.11,-212.1"/>
</g>
<!-- Relations&#45;&gt;Symmetric Closure -->
<g id="edge28" class="edge">
<title>Relations&#45;&gt;Symmetric Closure</title>
<path fill="none" stroke="#b75867" d="M402.13,-315.18C420.81,-313.75 443.49,-308.42 457,-293 476.77,-270.45 445.13,-248.46 465,-226 471.68,-218.45 480.49,-213.28 489.98,-209.77"/>
<polygon fill="#b75867" stroke="#b75867" points="491.13,-213.08 499.65,-206.78 489.06,-206.39 491.13,-213.08"/>
</g>
<!-- Reflexive Closure -->
<g id="node16" class="node">
<title>Reflexive Closure</title>
<g id="a_node16"><a xlink:href="/Knowledge/reflexive_closure.html" xlink:title="Reflexive Closure" target="_parent">
<path fill="#273434" stroke="#b75867" d="M594.5,-184C594.5,-184 516.5,-184 516.5,-184 510.5,-184 504.5,-178 504.5,-172 504.5,-172 504.5,-160 504.5,-160 504.5,-154 510.5,-148 516.5,-148 516.5,-148 594.5,-148 594.5,-148 600.5,-148 606.5,-154 606.5,-160 606.5,-160 606.5,-172 606.5,-172 606.5,-178 600.5,-184 594.5,-184"/>
<text text-anchor="middle" x="555.5" y="-162.9" font-family="sans" font-size="12.00" fill="#c4c7c7">Reflexive Closure</text>
</a>
</g>
</g>
<!-- Relations&#45;&gt;Reflexive Closure -->
<g id="edge27" class="edge">
<title>Relations&#45;&gt;Reflexive Closure</title>
<path fill="none" stroke="#b75867" d="M402.35,-314.51C421.12,-313.02 443.82,-307.7 457,-292 471.91,-274.25 450.01,-205.68 465,-188 472.6,-179.03 483.21,-173.4 494.48,-169.93"/>
<polygon fill="#b75867" stroke="#b75867" points="495.65,-173.24 504.49,-167.4 493.94,-166.46 495.65,-173.24"/>
</g>
<!-- Relations&#45;&gt;Reflexive Closure -->
<g id="edge30" class="edge">
<title>Relations&#45;&gt;Reflexive Closure</title>
<path fill="none" stroke="#b75867" d="M402.35,-315.37C421.12,-314.02 443.82,-308.7 457,-293 471.91,-275.25 450.01,-206.68 465,-189 472.6,-180.03 483.21,-174.4 494.48,-170.9"/>
<polygon fill="#b75867" stroke="#b75867" points="495.67,-174.21 504.49,-168.35 493.94,-167.43 495.67,-174.21"/>
</g>
<!-- Symmetric Relation -->
<g id="node17" class="node">
<title>Symmetric Relation</title>
<g id="a_node17"><a xlink:href="/Knowledge/symmetric_relation.html" xlink:title="Symmetric Relation" target="_parent">
<path fill="#273434" stroke="#b75867" d="M601,-147C601,-147 510,-147 510,-147 504,-147 498,-141 498,-135 498,-135 498,-123 498,-123 498,-117 504,-111 510,-111 510,-111 601,-111 601,-111 607,-111 613,-117 613,-123 613,-123 613,-135 613,-135 613,-141 607,-147 601,-147"/>
<text text-anchor="middle" x="555.5" y="-125.9" font-family="sans" font-size="12.00" fill="#c4c7c7">Symmetric Relation</text>
</a>
</g>
</g>
<!-- Relations&#45;&gt;Symmetric Relation -->
<g id="edge34" class="edge">
<title>Relations&#45;&gt;Symmetric Relation</title>
<path fill="none" stroke="#b75867" d="M402.04,-314.64C420.93,-313.23 443.88,-307.95 457,-292 476.94,-267.77 444.95,-175.14 465,-151 471.15,-143.6 479.34,-138.46 488.29,-134.93"/>
<polygon fill="#b75867" stroke="#b75867" points="489.41,-138.25 497.82,-131.81 487.23,-131.6 489.41,-138.25"/>
</g>
<!-- Anti&#45;reflexive relation -->
<g id="node18" class="node">
<title>Anti&#45;reflexive relation</title>
<g id="a_node18"><a xlink:href="/Knowledge/anti-reflexive_relation.html" xlink:title="Anti&#45;reflexive relation" target="_parent">
<path fill="#273434" stroke="#b75867" d="M605.5,-73C605.5,-73 505.5,-73 505.5,-73 499.5,-73 493.5,-67 493.5,-61 493.5,-61 493.5,-49 493.5,-49 493.5,-43 499.5,-37 505.5,-37 505.5,-37 605.5,-37 605.5,-37 611.5,-37 617.5,-43 617.5,-49 617.5,-49 617.5,-61 617.5,-61 617.5,-67 611.5,-73 605.5,-73"/>
<text text-anchor="middle" x="555.5" y="-51.9" font-family="sans" font-size="12.00" fill="#c4c7c7">Anti&#45;reflexive relation</text>
</a>
</g>
</g>
<!-- Relations&#45;&gt;Anti&#45;reflexive relation -->
<g id="edge35" class="edge">
<title>Relations&#45;&gt;Anti&#45;reflexive relation</title>
<path fill="none" stroke="#b75867" d="M402.14,-314.72C421.08,-313.35 444.03,-308.07 457,-292 472.01,-273.39 449.9,-95.54 465,-77 470.04,-70.81 476.52,-66.19 483.69,-62.78"/>
<polygon fill="#b75867" stroke="#b75867" points="485.06,-66 493.07,-59.06 482.49,-59.49 485.06,-66"/>
</g>
<!-- Discrete Structures -->
<g id="node19" class="node">
<title>Discrete Structures</title>
<g id="a_node19"><a xlink:href="/Knowledge/discrete_structures.html" xlink:title="Discrete Structures" target="_parent">
<path fill="none" stroke="#b75867" d="M599,-332C599,-332 512,-332 512,-332 506,-332 500,-326 500,-320 500,-320 500,-308 500,-308 500,-302 506,-296 512,-296 512,-296 599,-296 599,-296 605,-296 611,-302 611,-308 611,-308 611,-320 611,-320 611,-326 605,-332 599,-332"/>
<text text-anchor="middle" x="555.5" y="-310.9" font-family="sans" font-size="12.00" fill="#c4c7c7">Discrete Structures</text>
</a>
</g>
</g>
<!-- Relations&#45;&gt;Discrete Structures -->
<g id="edge38" class="edge">
<title>Relations&#45;&gt;Discrete Structures</title>
<path fill="none" stroke="#ffffff" d="M412.33,-314C438.17,-314 471.75,-314 499.79,-314"/>
<polygon fill="#ffffff" stroke="#ffffff" points="412.13,-310.5 402.13,-314 412.13,-317.5 412.13,-310.5"/>
</g>
</g>
</svg>
