<?xml version="1.0" encoding="UTF-8" standalone="no"?>
<!DOCTYPE svg PUBLIC "-//W3C//DTD SVG 1.1//EN"
 "http://www.w3.org/Graphics/SVG/1.1/DTD/svg11.dtd">
<!-- Generated by graphviz version 2.46.1 (0)
 -->
<!-- Title: Linear order Pages: 1 -->
<svg width="947pt" height="412pt"
 viewBox="0.00 0.00 947.00 412.00" xmlns="http://www.w3.org/2000/svg" xmlns:xlink="http://www.w3.org/1999/xlink">
<g id="graph0" class="graph" transform="scale(1 1) rotate(0) translate(4 408)">
<title>Linear order</title>
<polygon fill="#132020" stroke="transparent" points="-4,4 -4,-408 943,-408 943,4 -4,4"/>
<!-- Linear order -->
<g id="node1" class="node">
<title>Linear order</title>
<g id="a_node1"><a xlink:href="/Knowledge/linear_order.html" xlink:title="Linear order" target="_parent">
<path fill="#273434" stroke="#b75867" d="M67,-122C67,-122 12,-122 12,-122 6,-122 0,-116 0,-110 0,-110 0,-98 0,-98 0,-92 6,-86 12,-86 12,-86 67,-86 67,-86 73,-86 79,-92 79,-98 79,-98 79,-110 79,-110 79,-116 73,-122 67,-122"/>
<text text-anchor="middle" x="39.5" y="-100.9" font-family="sans" font-size="12.00" fill="#c4c7c7">Linear order</text>
</a>
</g>
</g>
<!-- Partial order -->
<g id="node2" class="node">
<title>Partial order</title>
<g id="a_node2"><a xlink:href="/Knowledge/partial_order.html" xlink:title="Partial order" target="_parent">
<path fill="#273434" stroke="#b75867" d="M154,-122C154,-122 99,-122 99,-122 93,-122 87,-116 87,-110 87,-110 87,-98 87,-98 87,-92 93,-86 99,-86 99,-86 154,-86 154,-86 160,-86 166,-92 166,-98 166,-98 166,-110 166,-110 166,-116 160,-122 154,-122"/>
<text text-anchor="middle" x="126.5" y="-100.9" font-family="sans" font-size="12.00" fill="#c4c7c7">Partial order</text>
</a>
</g>
</g>
<!-- Linear order&#45;&gt;Partial order -->
<g id="edge1" class="edge">
<title>Linear order&#45;&gt;Partial order</title>
<path fill="none" stroke="#b75867" d="M79.02,-104C79.19,-104 79.35,-104 79.52,-104"/>
<polygon fill="#b75867" stroke="#b75867" points="76.95,-107.5 86.95,-104 76.95,-100.5 76.95,-107.5"/>
</g>
<!-- Transitive Relation -->
<g id="node3" class="node">
<title>Transitive Relation</title>
<g id="a_node3"><a xlink:href="/Knowledge/transitive_relation.html" xlink:title="Transitive Relation" target="_parent">
<path fill="#273434" stroke="#b75867" d="M272,-168C272,-168 186,-168 186,-168 180,-168 174,-162 174,-156 174,-156 174,-144 174,-144 174,-138 180,-132 186,-132 186,-132 272,-132 272,-132 278,-132 284,-138 284,-144 284,-144 284,-156 284,-156 284,-162 278,-168 272,-168"/>
<text text-anchor="middle" x="229" y="-146.9" font-family="sans" font-size="12.00" fill="#c4c7c7">Transitive Relation</text>
</a>
</g>
</g>
<!-- Linear order&#45;&gt;Transitive Relation -->
<g id="edge2" class="edge">
<title>Linear order&#45;&gt;Transitive Relation</title>
<path fill="none" stroke="#b75867" d="M67.68,-122.14C73.82,-125.56 80.46,-128.76 87,-131 111.33,-139.33 139.2,-144.03 163.7,-146.67"/>
<polygon fill="#b75867" stroke="#b75867" points="163.67,-150.19 173.97,-147.68 164.36,-143.22 163.67,-150.19"/>
</g>
<!-- Strongly Anti&#45;symmetric Relation -->
<g id="node4" class="node">
<title>Strongly Anti&#45;symmetric Relation</title>
<g id="a_node4"><a xlink:href="/Knowledge/strongly_anti-symmetric_relation.html" xlink:title="Strongly Anti&#45;symmetric Relation" target="_parent">
<path fill="#273434" stroke="#b75867" d="M528,-142C528,-142 371,-142 371,-142 365,-142 359,-136 359,-130 359,-130 359,-118 359,-118 359,-112 365,-106 371,-106 371,-106 528,-106 528,-106 534,-106 540,-112 540,-118 540,-118 540,-130 540,-130 540,-136 534,-142 528,-142"/>
<text text-anchor="middle" x="449.5" y="-120.9" font-family="sans" font-size="12.00" fill="#c4c7c7">Strongly Anti&#45;symmetric Relation</text>
</a>
</g>
</g>
<!-- Linear order&#45;&gt;Strongly Anti&#45;symmetric Relation -->
<g id="edge3" class="edge">
<title>Linear order&#45;&gt;Strongly Anti&#45;symmetric Relation</title>
<path fill="none" stroke="#b75867" d="M79.11,-117.4C81.76,-118.03 84.41,-118.57 87,-119 135.38,-126.95 259.34,-127.06 348.62,-125.94"/>
<polygon fill="#b75867" stroke="#b75867" points="348.83,-129.44 358.78,-125.8 348.74,-122.44 348.83,-129.44"/>
</g>
<!-- Reflexive Relation -->
<g id="node5" class="node">
<title>Reflexive Relation</title>
<g id="a_node5"><a xlink:href="/Knowledge/reflexive_relation.html" xlink:title="Reflexive Relation" target="_parent">
<path fill="#273434" stroke="#b75867" d="M729.5,-76C729.5,-76 647.5,-76 647.5,-76 641.5,-76 635.5,-70 635.5,-64 635.5,-64 635.5,-52 635.5,-52 635.5,-46 641.5,-40 647.5,-40 647.5,-40 729.5,-40 729.5,-40 735.5,-40 741.5,-46 741.5,-52 741.5,-52 741.5,-64 741.5,-64 741.5,-70 735.5,-76 729.5,-76"/>
<text text-anchor="middle" x="688.5" y="-54.9" font-family="sans" font-size="12.00" fill="#c4c7c7">Reflexive Relation</text>
</a>
</g>
</g>
<!-- Linear order&#45;&gt;Reflexive Relation -->
<g id="edge4" class="edge">
<title>Linear order&#45;&gt;Reflexive Relation</title>
<path fill="none" stroke="#b75867" d="M78.25,-85.95C81.17,-84.86 84.11,-83.86 87,-83 147.79,-64.89 164.58,-61 228,-61 228,-61 228,-61 450.5,-61 509.73,-61 577.28,-60.05 625.07,-59.22"/>
<polygon fill="#b75867" stroke="#b75867" points="625.32,-62.72 635.26,-59.04 625.2,-55.72 625.32,-62.72"/>
</g>
<!-- Relation -->
<g id="node6" class="node">
<title>Relation</title>
<g id="a_node6"><a xlink:href="/Knowledge/relation.html" xlink:title="Relation" target="_parent">
<path fill="#273434" stroke="#b75867" d="M339,-167C339,-167 304,-167 304,-167 298,-167 292,-161 292,-155 292,-155 292,-143 292,-143 292,-137 298,-131 304,-131 304,-131 339,-131 339,-131 345,-131 351,-137 351,-143 351,-143 351,-155 351,-155 351,-161 345,-167 339,-167"/>
<text text-anchor="middle" x="321.5" y="-145.9" font-family="sans" font-size="12.00" fill="#c4c7c7">Relation</text>
</a>
</g>
</g>
<!-- Linear order&#45;&gt;Relation -->
<g id="edge5" class="edge">
<title>Linear order&#45;&gt;Relation</title>
<path fill="none" stroke="#b75867" d="M77.11,-122.03C80.4,-123.19 83.73,-124.21 87,-125 169.13,-144.88 196.27,-118.87 281.79,-135"/>
<polygon fill="#b75867" stroke="#b75867" points="281.17,-138.44 291.66,-137 282.56,-131.58 281.17,-138.44"/>
</g>
<!-- Linear extension -->
<g id="node7" class="node">
<title>Linear extension</title>
<g id="a_node7"><a xlink:href="/Knowledge/linear_extension.html" xlink:title="Linear extension" target="_parent">
<path fill="none" stroke="#b75867" d="M727,-36C727,-36 650,-36 650,-36 644,-36 638,-30 638,-24 638,-24 638,-12 638,-12 638,-6 644,0 650,0 650,0 727,0 727,0 733,0 739,-6 739,-12 739,-12 739,-24 739,-24 739,-30 733,-36 727,-36"/>
<text text-anchor="middle" x="688.5" y="-14.9" font-family="sans" font-size="12.00" fill="#c4c7c7">Linear extension</text>
</a>
</g>
</g>
<!-- Linear order&#45;&gt;Linear extension -->
<g id="edge6" class="edge">
<title>Linear order&#45;&gt;Linear extension</title>
<path fill="none" stroke="#ffffff" d="M65.75,-78.96C72.24,-73.66 79.52,-68.59 87,-65 144.61,-37.38 164.11,-37 228,-37 228,-37 228,-37 450.5,-37 515.31,-37 589.76,-29.85 637.66,-24.33"/>
<polygon fill="#ffffff" stroke="#ffffff" points="63.24,-76.5 57.99,-85.7 67.83,-81.79 63.24,-76.5"/>
</g>
<!-- Relations -->
<g id="node8" class="node">
<title>Relations</title>
<g id="a_node8"><a xlink:href="/Knowledge/relations.html" xlink:title="Relations" target="_parent">
<path fill="none" stroke="#b75867" d="M600,-148C600,-148 560,-148 560,-148 554,-148 548,-142 548,-136 548,-136 548,-124 548,-124 548,-118 554,-112 560,-112 560,-112 600,-112 600,-112 606,-112 612,-118 612,-124 612,-124 612,-136 612,-136 612,-142 606,-148 600,-148"/>
<text text-anchor="middle" x="580" y="-126.9" font-family="sans" font-size="12.00" fill="#c4c7c7">Relations</text>
</a>
</g>
</g>
<!-- Linear order&#45;&gt;Relations -->
<g id="edge7" class="edge">
<title>Linear order&#45;&gt;Relations</title>
<path fill="none" stroke="#ffffff" d="M89.33,-88.89C150.56,-78.74 168.48,-84 228,-84 228,-84 228,-84 322.5,-84 370.85,-84 495.79,-69.43 540,-89 550.78,-93.77 560.02,-103.08 566.8,-111.62"/>
<polygon fill="#ffffff" stroke="#ffffff" points="88.37,-85.51 79.12,-90.66 89.57,-92.41 88.37,-85.51"/>
</g>
<!-- Partial order&#45;&gt;Linear order -->
<g id="edge12" class="edge">
<title>Partial order&#45;&gt;Linear order</title>
<path fill="none" stroke="#ffffff" d="M79.52,-104.75C79.35,-104.75 79.19,-104.75 79.02,-104.75"/>
<polygon fill="#ffffff" stroke="#ffffff" points="76.95,-108.25 86.95,-104.75 76.95,-101.25 76.95,-108.25"/>
</g>
<!-- Partial order&#45;&gt;Transitive Relation -->
<g id="edge8" class="edge">
<title>Partial order&#45;&gt;Transitive Relation</title>
<path fill="none" stroke="#b75867" d="M161.61,-122.05C164.53,-123.5 167.47,-124.93 173.42,-127.67"/>
<polygon fill="#b75867" stroke="#b75867" points="172.24,-130.98 182.79,-131.93 175.14,-124.6 172.24,-130.98"/>
</g>
<!-- Partial order&#45;&gt;Reflexive Relation -->
<g id="edge10" class="edge">
<title>Partial order&#45;&gt;Reflexive Relation</title>
<path fill="none" stroke="#b75867" d="M166.17,-90.94C168.81,-90.23 171.43,-89.58 174,-89 238.07,-74.64 254.84,-70 320.5,-70 320.5,-70 320.5,-70 450.5,-70 509.8,-70 577.34,-66.21 625.11,-62.89"/>
<polygon fill="#b75867" stroke="#b75867" points="625.56,-66.36 635.29,-62.16 625.07,-59.38 625.56,-66.36"/>
</g>
<!-- Partial order&#45;&gt;Relation -->
<g id="edge11" class="edge">
<title>Partial order&#45;&gt;Relation</title>
<path fill="none" stroke="#b75867" d="M166.12,-108.08C196.01,-111.87 238.49,-118.59 282.08,-131.75"/>
<polygon fill="#b75867" stroke="#b75867" points="281.09,-135.11 291.68,-134.76 283.18,-128.43 281.09,-135.11"/>
</g>
<!-- Partial order&#45;&gt;Linear extension -->
<g id="edge13" class="edge">
<title>Partial order&#45;&gt;Linear extension</title>
<path fill="none" stroke="#ffffff" d="M156.26,-80.05C161.86,-76.45 167.89,-73.2 174,-71 357.64,-4.76 419.5,-70.46 612,-38 620.42,-36.58 629.27,-34.65 637.83,-32.54"/>
<polygon fill="#ffffff" stroke="#ffffff" points="154.07,-77.31 147.88,-85.91 158.08,-83.05 154.07,-77.31"/>
</g>
<!-- Partial order&#45;&gt;Relations -->
<g id="edge14" class="edge">
<title>Partial order&#45;&gt;Relations</title>
<path fill="none" stroke="#ffffff" d="M176.16,-97.21C254.34,-87.92 412.09,-75.93 540,-109 542.83,-109.73 545.68,-110.71 548.48,-111.84"/>
<polygon fill="#ffffff" stroke="#ffffff" points="175.62,-93.75 166.12,-98.44 176.47,-100.69 175.62,-93.75"/>
</g>
<!-- Anti&#45;symmetric Relation -->
<g id="node9" class="node">
<title>Anti&#45;symmetric Relation</title>
<g id="a_node9"><a xlink:href="/Knowledge/anti-symmetric_relation.html" xlink:title="Anti&#45;symmetric Relation" target="_parent">
<path fill="#273434" stroke="#b75867" d="M745,-378C745,-378 632,-378 632,-378 626,-378 620,-372 620,-366 620,-366 620,-354 620,-354 620,-348 626,-342 632,-342 632,-342 745,-342 745,-342 751,-342 757,-348 757,-354 757,-354 757,-366 757,-366 757,-372 751,-378 745,-378"/>
<text text-anchor="middle" x="688.5" y="-356.9" font-family="sans" font-size="12.00" fill="#c4c7c7">Anti&#45;symmetric Relation</text>
</a>
</g>
</g>
<!-- Partial order&#45;&gt;Anti&#45;symmetric Relation -->
<g id="edge9" class="edge">
<title>Partial order&#45;&gt;Anti&#45;symmetric Relation</title>
<path fill="none" stroke="#b75867" d="M130.91,-122.11C143.63,-183.51 194.21,-380 320.5,-380 320.5,-380 320.5,-380 450.5,-380 503.88,-380 563.78,-374.9 610,-369.85"/>
<polygon fill="#b75867" stroke="#b75867" points="610.4,-373.33 619.95,-368.74 609.62,-366.37 610.4,-373.33"/>
</g>
<!-- Partial orders have no contours -->
<g id="node10" class="node">
<title>Partial orders have no contours</title>
<g id="a_node10"><a xlink:href="/Knowledge/partial_orders_have_no_contours.html" xlink:title="Partial orders have no contours" target="_parent">
<path fill="none" stroke="#b75867" d="M927,-404C927,-404 777,-404 777,-404 771,-404 765,-398 765,-392 765,-392 765,-380 765,-380 765,-374 771,-368 777,-368 777,-368 927,-368 927,-368 933,-368 939,-374 939,-380 939,-380 939,-392 939,-392 939,-398 933,-404 927,-404"/>
<text text-anchor="middle" x="852" y="-382.9" font-family="sans" font-size="12.00" fill="#c4c7c7">Partial orders have no contours</text>
</a>
</g>
</g>
<!-- Partial order&#45;&gt;Partial orders have no contours -->
<g id="edge15" class="edge">
<title>Partial order&#45;&gt;Partial orders have no contours</title>
<path fill="none" stroke="#ffffff" d="M130.65,-132.26C136.82,-183.16 151.83,-287.56 174,-316 218.73,-373.37 247.75,-389 320.5,-389 320.5,-389 320.5,-389 581,-389 642.53,-389 711.94,-388.21 764.97,-387.44"/>
<polygon fill="#ffffff" stroke="#ffffff" points="134.12,-131.78 129.47,-122.26 127.17,-132.6 134.12,-131.78"/>
</g>
<!-- Transitive Relation&#45;&gt;Linear order -->
<g id="edge18" class="edge">
<title>Transitive Relation&#45;&gt;Linear order</title>
<path fill="none" stroke="#ffffff" d="M163.7,-147.61C139.2,-145.03 111.33,-140.33 87,-132 79.93,-129.58 72.74,-126.04 66.2,-122.28"/>
<polygon fill="#ffffff" stroke="#ffffff" points="163.68,-151.12 173.97,-148.58 164.34,-144.15 163.68,-151.12"/>
</g>
<!-- Transitive Relation&#45;&gt;Partial order -->
<g id="edge17" class="edge">
<title>Transitive Relation&#45;&gt;Partial order</title>
<path fill="none" stroke="#ffffff" d="M171.28,-127.69C166.08,-125.26 162.81,-123.65 159.58,-122.02"/>
<polygon fill="#ffffff" stroke="#ffffff" points="169.94,-130.92 180.48,-131.92 172.86,-124.56 169.94,-130.92"/>
</g>
<!-- Transitive Relation&#45;&gt;Relation -->
<g id="edge16" class="edge">
<title>Transitive Relation&#45;&gt;Relation</title>
<path fill="none" stroke="#b75867" d="M284.21,-149.4C284.37,-149.4 284.53,-149.4 284.69,-149.4"/>
<polygon fill="#b75867" stroke="#b75867" points="281.78,-152.93 291.74,-149.32 281.7,-145.93 281.78,-152.93"/>
</g>
<!-- Transitive Relation&#45;&gt;Relations -->
<g id="edge20" class="edge">
<title>Transitive Relation&#45;&gt;Relations</title>
<path fill="none" stroke="#ffffff" d="M248.98,-176.44C271.46,-205.26 311.88,-249.7 359,-268 433.99,-297.12 475.85,-316.54 540,-268 559.21,-253.47 571.66,-182.06 576.6,-148.06"/>
<polygon fill="#ffffff" stroke="#ffffff" points="251.7,-174.24 242.86,-168.41 246.13,-178.48 251.7,-174.24"/>
</g>
<!-- Transitive Relation&#45;&gt;Partial orders have no contours -->
<g id="edge22" class="edge">
<title>Transitive Relation&#45;&gt;Partial orders have no contours</title>
<path fill="none" stroke="#ffffff" d="M239.05,-177.94C248.56,-203.27 265.82,-240.06 292,-263 316.02,-284.05 329.01,-278.01 359,-289 474.22,-331.2 499.31,-356.89 620,-379 667.36,-387.68 721.08,-389.76 764.78,-389.52"/>
<polygon fill="#ffffff" stroke="#ffffff" points="242.23,-176.42 235.56,-168.18 235.64,-178.78 242.23,-176.42"/>
</g>
<!-- Transitive Closure -->
<g id="node11" class="node">
<title>Transitive Closure</title>
<g id="a_node11"><a xlink:href="/Knowledge/transitive_closure.html" xlink:title="Transitive Closure" target="_parent">
<path fill="none" stroke="#b75867" d="M729.5,-267C729.5,-267 647.5,-267 647.5,-267 641.5,-267 635.5,-261 635.5,-255 635.5,-255 635.5,-243 635.5,-243 635.5,-237 641.5,-231 647.5,-231 647.5,-231 729.5,-231 729.5,-231 735.5,-231 741.5,-237 741.5,-243 741.5,-243 741.5,-255 741.5,-255 741.5,-261 735.5,-267 729.5,-267"/>
<text text-anchor="middle" x="688.5" y="-245.9" font-family="sans" font-size="12.00" fill="#c4c7c7">Transitive Closure</text>
</a>
</g>
</g>
<!-- Transitive Relation&#45;&gt;Transitive Closure -->
<g id="edge19" class="edge">
<title>Transitive Relation&#45;&gt;Transitive Closure</title>
<path fill="none" stroke="#ffffff" d="M243.31,-177.42C254.26,-197.88 271.31,-225.56 292,-245 316.95,-268.44 325.9,-274.27 359,-283 454.35,-308.16 569.87,-284.16 635.4,-265.71"/>
<polygon fill="#ffffff" stroke="#ffffff" points="246.29,-175.56 238.58,-168.3 240.08,-178.79 246.29,-175.56"/>
</g>
<!-- Relation of Equivalence -->
<g id="node12" class="node">
<title>Relation of Equivalence</title>
<g id="a_node12"><a xlink:href="/Knowledge/relation_of_equivalence.html" xlink:title="Relation of Equivalence" target="_parent">
<path fill="none" stroke="#b75867" d="M907,-270C907,-270 797,-270 797,-270 791,-270 785,-264 785,-258 785,-258 785,-246 785,-246 785,-240 791,-234 797,-234 797,-234 907,-234 907,-234 913,-234 919,-240 919,-246 919,-246 919,-258 919,-258 919,-264 913,-270 907,-270"/>
<text text-anchor="middle" x="852" y="-248.9" font-family="sans" font-size="12.00" fill="#c4c7c7">Relation of Equivalence</text>
</a>
</g>
</g>
<!-- Transitive Relation&#45;&gt;Relation of Equivalence -->
<g id="edge21" class="edge">
<title>Transitive Relation&#45;&gt;Relation of Equivalence</title>
<path fill="none" stroke="#ffffff" d="M240.56,-177.81C266.03,-239.62 337.13,-383 448.5,-383 448.5,-383 448.5,-383 581,-383 620.13,-383 722.28,-396.04 757,-378 758.47,-377.24 811.97,-304.9 837.59,-270.19"/>
<polygon fill="#ffffff" stroke="#ffffff" points="243.7,-176.26 236.73,-168.28 237.21,-178.87 243.7,-176.26"/>
</g>
<!-- Strongly Anti&#45;symmetric Relation&#45;&gt;Linear order -->
<g id="edge24" class="edge">
<title>Strongly Anti&#45;symmetric Relation&#45;&gt;Linear order</title>
<path fill="none" stroke="#ffffff" d="M348.62,-126.71C259.34,-128.06 135.38,-127.95 87,-120 84.41,-119.57 81.76,-119.03 79.11,-118.4"/>
<polygon fill="#ffffff" stroke="#ffffff" points="348.84,-130.21 358.78,-126.55 348.73,-123.21 348.84,-130.21"/>
</g>
<!-- Strongly Anti&#45;symmetric Relation&#45;&gt;Relation -->
<g id="edge23" class="edge">
<title>Strongly Anti&#45;symmetric Relation&#45;&gt;Relation</title>
<path fill="none" stroke="#b75867" d="M361.13,-142.03C361.02,-142.05 360.92,-142.07 360.81,-142.1"/>
<polygon fill="#b75867" stroke="#b75867" points="360.25,-138.64 351.09,-143.97 361.57,-145.51 360.25,-138.64"/>
</g>
<!-- Strongly Anti&#45;symmetric Relation&#45;&gt;Relations -->
<g id="edge25" class="edge">
<title>Strongly Anti&#45;symmetric Relation&#45;&gt;Relations</title>
<path fill="none" stroke="#ffffff" d="M547.09,-128.51C547.24,-128.52 547.39,-128.52 547.54,-128.53"/>
<polygon fill="#ffffff" stroke="#ffffff" points="550.25,-125.15 540.1,-128.18 549.92,-132.15 550.25,-125.15"/>
</g>
<!-- Reflexive Relation&#45;&gt;Linear order -->
<g id="edge28" class="edge">
<title>Reflexive Relation&#45;&gt;Linear order</title>
<path fill="none" stroke="#ffffff" d="M625.07,-60.04C577.28,-61.05 509.73,-62 450.5,-62 228,-62 228,-62 228,-62 164.58,-62 147.79,-65.89 87,-84 84.37,-84.78 81.69,-85.69 79.02,-86.66"/>
<polygon fill="#ffffff" stroke="#ffffff" points="625.34,-63.54 635.26,-59.82 625.18,-56.54 625.34,-63.54"/>
</g>
<!-- Reflexive Relation&#45;&gt;Partial order -->
<g id="edge27" class="edge">
<title>Reflexive Relation&#45;&gt;Partial order</title>
<path fill="none" stroke="#ffffff" d="M625.11,-63.71C577.34,-67.21 509.8,-71 450.5,-71 320.5,-71 320.5,-71 320.5,-71 254.84,-71 238.07,-75.64 174,-90 171.43,-90.58 168.81,-91.23 166.17,-91.94"/>
<polygon fill="#ffffff" stroke="#ffffff" points="625.58,-67.18 635.29,-62.94 625.06,-60.2 625.58,-67.18"/>
</g>
<!-- Reflexive Relation&#45;&gt;Relation -->
<g id="edge26" class="edge">
<title>Reflexive Relation&#45;&gt;Relation</title>
<path fill="none" stroke="#b75867" d="M635.28,-75.22C630.08,-77.08 624.91,-79.02 620,-81 587.01,-94.32 571.46,-89.25 548,-116 540.59,-124.45 548.97,-133.22 540,-140 533.01,-145.28 422.1,-148.16 361.44,-148.96"/>
<polygon fill="#b75867" stroke="#b75867" points="361.04,-145.47 351.09,-149.09 361.13,-152.47 361.04,-145.47"/>
</g>
<!-- Reflexive Relation&#45;&gt;Relations -->
<g id="edge30" class="edge">
<title>Reflexive Relation&#45;&gt;Relations</title>
<path fill="none" stroke="#ffffff" d="M626.7,-75.23C624.3,-76.96 622.04,-78.88 620,-81 611.02,-90.32 619.48,-98.44 612,-109 611.31,-109.97 610.57,-110.91 609.78,-111.82"/>
<polygon fill="#ffffff" stroke="#ffffff" points="628.6,-78.17 635.36,-70.01 624.99,-72.17 628.6,-78.17"/>
</g>
<!-- Reflexive Relation&#45;&gt;Partial orders have no contours -->
<g id="edge32" class="edge">
<title>Reflexive Relation&#45;&gt;Partial orders have no contours</title>
<path fill="none" stroke="#ffffff" d="M750.56,-73.34C752.94,-75.3 755.11,-77.51 757,-80 769.83,-96.92 757.88,-250.99 765,-271 778.88,-309.99 810.92,-346.77 831.73,-367.81"/>
<polygon fill="#ffffff" stroke="#ffffff" points="752.03,-70.12 741.75,-67.57 748.19,-75.98 752.03,-70.12"/>
</g>
<!-- Reflexive Relation&#45;&gt;Relation of Equivalence -->
<g id="edge31" class="edge">
<title>Reflexive Relation&#45;&gt;Relation of Equivalence</title>
<path fill="none" stroke="#ffffff" d="M750.68,-75.4C752.89,-76.82 755.01,-78.35 757,-80 807.66,-122.06 835.44,-198.8 845.99,-233.77"/>
<polygon fill="#ffffff" stroke="#ffffff" points="752.2,-72.25 741.76,-70.49 748.83,-78.38 752.2,-72.25"/>
</g>
<!-- Reflexive Closure -->
<g id="node13" class="node">
<title>Reflexive Closure</title>
<g id="a_node13"><a xlink:href="/Knowledge/reflexive_closure.html" xlink:title="Reflexive Closure" target="_parent">
<path fill="none" stroke="#b75867" d="M891,-86C891,-86 813,-86 813,-86 807,-86 801,-80 801,-74 801,-74 801,-62 801,-62 801,-56 807,-50 813,-50 813,-50 891,-50 891,-50 897,-50 903,-56 903,-62 903,-62 903,-74 903,-74 903,-80 897,-86 891,-86"/>
<text text-anchor="middle" x="852" y="-64.9" font-family="sans" font-size="12.00" fill="#c4c7c7">Reflexive Closure</text>
</a>
</g>
</g>
<!-- Reflexive Relation&#45;&gt;Reflexive Closure -->
<g id="edge29" class="edge">
<title>Reflexive Relation&#45;&gt;Reflexive Closure</title>
<path fill="none" stroke="#ffffff" d="M752.31,-61.89C768.37,-62.88 785.42,-63.94 800.75,-64.89"/>
<polygon fill="#ffffff" stroke="#ffffff" points="752.13,-58.37 741.93,-61.25 751.7,-65.36 752.13,-58.37"/>
</g>
<!-- Relation&#45;&gt;Linear order -->
<g id="edge36" class="edge">
<title>Relation&#45;&gt;Linear order</title>
<path fill="none" stroke="#ffffff" d="M281.79,-136C196.27,-119.87 169.13,-145.88 87,-126 82.87,-125 78.65,-123.64 74.52,-122.07"/>
<polygon fill="#ffffff" stroke="#ffffff" points="281.17,-139.44 291.66,-137.99 282.56,-132.58 281.17,-139.44"/>
</g>
<!-- Relation&#45;&gt;Partial order -->
<g id="edge34" class="edge">
<title>Relation&#45;&gt;Partial order</title>
<path fill="none" stroke="#ffffff" d="M282.08,-132.75C238.49,-119.59 196.01,-112.85 166.12,-108.89"/>
<polygon fill="#ffffff" stroke="#ffffff" points="281.09,-136.11 291.68,-135.75 283.18,-129.43 281.09,-136.11"/>
</g>
<!-- Relation&#45;&gt;Transitive Relation -->
<g id="edge47" class="edge">
<title>Relation&#45;&gt;Transitive Relation</title>
<path fill="none" stroke="#ffffff" d="M284.69,-150.13C284.53,-150.13 284.37,-150.14 284.21,-150.14"/>
<polygon fill="#ffffff" stroke="#ffffff" points="281.79,-153.68 291.74,-150.02 281.68,-146.68 281.79,-153.68"/>
</g>
<!-- Relation&#45;&gt;Strongly Anti&#45;symmetric Relation -->
<g id="edge45" class="edge">
<title>Relation&#45;&gt;Strongly Anti&#45;symmetric Relation</title>
<path fill="none" stroke="#ffffff" d="M358.28,-141.9C358.45,-141.87 358.61,-141.83 358.78,-141.8"/>
<polygon fill="#ffffff" stroke="#ffffff" points="360.22,-137.95 351.09,-143.33 361.58,-144.81 360.22,-137.95"/>
</g>
<!-- Relation&#45;&gt;Reflexive Relation -->
<g id="edge39" class="edge">
<title>Relation&#45;&gt;Reflexive Relation</title>
<path fill="none" stroke="#ffffff" d="M361.44,-148.34C422.1,-147.16 533.01,-144.28 540,-139 548.97,-132.22 540.59,-123.45 548,-115 571.46,-88.25 587.01,-93.32 620,-80 624.91,-78.02 630.08,-76.08 635.28,-74.23"/>
<polygon fill="#ffffff" stroke="#ffffff" points="361.02,-144.85 351.09,-148.54 361.15,-151.85 361.02,-144.85"/>
</g>
<!-- Relation&#45;&gt;Relations -->
<g id="edge46" class="edge">
<title>Relation&#45;&gt;Relations</title>
<path fill="none" stroke="#ffffff" d="M361.44,-150.84C405.2,-152.2 478.2,-152.31 540,-142 542.52,-141.58 545.09,-141.04 547.67,-140.42"/>
<polygon fill="#ffffff" stroke="#ffffff" points="361.36,-147.34 351.24,-150.49 361.11,-154.33 361.36,-147.34"/>
</g>
<!-- Relation&#45;&gt;Anti&#45;symmetric Relation -->
<g id="edge41" class="edge">
<title>Relation&#45;&gt;Anti&#45;symmetric Relation</title>
<path fill="none" stroke="#ffffff" d="M323.29,-177.54C325.61,-205.42 333.5,-247.17 359,-272 429.12,-340.27 546.15,-357.02 619.95,-360.35"/>
<polygon fill="#ffffff" stroke="#ffffff" points="326.76,-177 322.62,-167.24 319.77,-177.45 326.76,-177"/>
</g>
<!-- Relation&#45;&gt;Relation of Equivalence -->
<g id="edge48" class="edge">
<title>Relation&#45;&gt;Relation of Equivalence</title>
<path fill="none" stroke="#ffffff" d="M332.08,-176.69C338.32,-195.7 346.17,-221.62 351,-245 354.03,-259.68 349.04,-300.79 359,-312 438.26,-401.21 501.5,-360.9 620,-375 650.23,-378.6 729.71,-388.49 757,-375 768.56,-369.28 815.66,-302.95 838.48,-270.15"/>
<polygon fill="#ffffff" stroke="#ffffff" points="335.39,-175.54 328.9,-167.17 328.75,-177.76 335.39,-175.54"/>
</g>
<!-- Relation&#45;&gt;Reflexive Closure -->
<g id="edge43" class="edge">
<title>Relation&#45;&gt;Reflexive Closure</title>
<path fill="none" stroke="#ffffff" d="M339.81,-122.84C345.24,-116.43 351.73,-110.21 359,-106 408.47,-77.32 566.32,-93.4 612,-59 618.35,-54.22 613.24,-47.18 620,-43 645.9,-26.99 726.81,-39.05 757,-43 771.4,-44.88 786.73,-48.32 800.75,-52.06"/>
<polygon fill="#ffffff" stroke="#ffffff" points="336.91,-120.87 333.54,-130.91 342.44,-125.16 336.91,-120.87"/>
</g>
<!-- Descartes Product -->
<g id="node14" class="node">
<title>Descartes Product</title>
<g id="a_node14"><a xlink:href="/Knowledge/descartes_product.html" xlink:title="Descartes Product" target="_parent">
<path fill="#273434" stroke="#b75867" d="M491.5,-271C491.5,-271 407.5,-271 407.5,-271 401.5,-271 395.5,-265 395.5,-259 395.5,-259 395.5,-247 395.5,-247 395.5,-241 401.5,-235 407.5,-235 407.5,-235 491.5,-235 491.5,-235 497.5,-235 503.5,-241 503.5,-247 503.5,-247 503.5,-259 503.5,-259 503.5,-265 497.5,-271 491.5,-271"/>
<text text-anchor="middle" x="449.5" y="-249.9" font-family="sans" font-size="12.00" fill="#c4c7c7">Descartes Product</text>
</a>
</g>
</g>
<!-- Relation&#45;&gt;Descartes Product -->
<g id="edge33" class="edge">
<title>Relation&#45;&gt;Descartes Product</title>
<path fill="none" stroke="#b75867" d="M325.74,-167.15C330.05,-185.92 339.52,-214.7 359,-231 366.64,-237.39 375.86,-241.97 385.43,-245.25"/>
<polygon fill="#b75867" stroke="#b75867" points="384.5,-248.62 395.08,-248.11 386.49,-241.91 384.5,-248.62"/>
</g>
<!-- Chain -->
<g id="node15" class="node">
<title>Chain</title>
<g id="a_node15"><a xlink:href="/Knowledge/chain.html" xlink:title="Chain" target="_parent">
<path fill="none" stroke="#b75867" d="M703.5,-341C703.5,-341 673.5,-341 673.5,-341 667.5,-341 661.5,-335 661.5,-329 661.5,-329 661.5,-317 661.5,-317 661.5,-311 667.5,-305 673.5,-305 673.5,-305 703.5,-305 703.5,-305 709.5,-305 715.5,-311 715.5,-317 715.5,-317 715.5,-329 715.5,-329 715.5,-335 709.5,-341 703.5,-341"/>
<text text-anchor="middle" x="688.5" y="-319.9" font-family="sans" font-size="12.00" fill="#c4c7c7">Chain</text>
</a>
</g>
</g>
<!-- Relation&#45;&gt;Chain -->
<g id="edge35" class="edge">
<title>Relation&#45;&gt;Chain</title>
<path fill="none" stroke="#ffffff" d="M327.81,-177.09C332.73,-194.8 341.97,-216.43 359,-228 392.32,-250.63 502.31,-223.77 540,-238 582.34,-253.99 580.09,-279.66 620,-301 632.93,-307.92 648.43,-313.16 661.31,-316.78"/>
<polygon fill="#ffffff" stroke="#ffffff" points="331.17,-176.1 325.39,-167.22 324.37,-177.77 331.17,-176.1"/>
</g>
<!-- Partial function -->
<g id="node16" class="node">
<title>Partial function</title>
<g id="a_node16"><a xlink:href="/Knowledge/partial_function.html" xlink:title="Partial function" target="_parent">
<path fill="none" stroke="#b75867" d="M484.5,-231C484.5,-231 414.5,-231 414.5,-231 408.5,-231 402.5,-225 402.5,-219 402.5,-219 402.5,-207 402.5,-207 402.5,-201 408.5,-195 414.5,-195 414.5,-195 484.5,-195 484.5,-195 490.5,-195 496.5,-201 496.5,-207 496.5,-207 496.5,-219 496.5,-219 496.5,-225 490.5,-231 484.5,-231"/>
<text text-anchor="middle" x="449.5" y="-209.9" font-family="sans" font-size="12.00" fill="#c4c7c7">Partial function</text>
</a>
</g>
</g>
<!-- Relation&#45;&gt;Partial function -->
<g id="edge37" class="edge">
<title>Relation&#45;&gt;Partial function</title>
<path fill="none" stroke="#ffffff" d="M340.96,-175.3C346.2,-181.2 352.31,-186.92 359,-191 371.97,-198.92 387.64,-203.99 402.22,-207.24"/>
<polygon fill="#ffffff" stroke="#ffffff" points="343.44,-172.8 334.4,-167.28 338.02,-177.23 343.44,-172.8"/>
</g>
<!-- Total function -->
<g id="node17" class="node">
<title>Total function</title>
<g id="a_node17"><a xlink:href="/Knowledge/total_function.html" xlink:title="Total function" target="_parent">
<path fill="none" stroke="#b75867" d="M480.5,-191C480.5,-191 418.5,-191 418.5,-191 412.5,-191 406.5,-185 406.5,-179 406.5,-179 406.5,-167 406.5,-167 406.5,-161 412.5,-155 418.5,-155 418.5,-155 480.5,-155 480.5,-155 486.5,-155 492.5,-161 492.5,-167 492.5,-167 492.5,-179 492.5,-179 492.5,-185 486.5,-191 480.5,-191"/>
<text text-anchor="middle" x="449.5" y="-169.9" font-family="sans" font-size="12.00" fill="#c4c7c7">Total function</text>
</a>
</g>
</g>
<!-- Relation&#45;&gt;Total function -->
<g id="edge38" class="edge">
<title>Relation&#45;&gt;Total function</title>
<path fill="none" stroke="#ffffff" d="M361.07,-156.35C375.34,-159.06 391.57,-162.16 406.15,-164.93"/>
<polygon fill="#ffffff" stroke="#ffffff" points="361.57,-152.88 351.09,-154.45 360.26,-159.76 361.57,-152.88"/>
</g>
<!-- Symmetric Closure -->
<g id="node18" class="node">
<title>Symmetric Closure</title>
<g id="a_node18"><a xlink:href="/Knowledge/symmetric_closure.html" xlink:title="Symmetric Closure" target="_parent">
<path fill="none" stroke="#b75867" d="M732,-193C732,-193 645,-193 645,-193 639,-193 633,-187 633,-181 633,-181 633,-169 633,-169 633,-163 639,-157 645,-157 645,-157 732,-157 732,-157 738,-157 744,-163 744,-169 744,-169 744,-181 744,-181 744,-187 738,-193 732,-193"/>
<text text-anchor="middle" x="688.5" y="-171.9" font-family="sans" font-size="12.00" fill="#c4c7c7">Symmetric Closure</text>
</a>
</g>
</g>
<!-- Relation&#45;&gt;Symmetric Closure -->
<g id="edge40" class="edge">
<title>Relation&#45;&gt;Symmetric Closure</title>
<path fill="none" stroke="#ffffff" d="M361.16,-146.9C416.9,-144.52 522.91,-142.46 612,-155 618.85,-155.96 625.96,-157.34 632.97,-158.92"/>
<polygon fill="#ffffff" stroke="#ffffff" points="360.86,-143.41 351.03,-147.36 361.18,-150.4 360.86,-143.41"/>
</g>
<!-- Symmetric Relation -->
<g id="node19" class="node">
<title>Symmetric Relation</title>
<g id="a_node19"><a xlink:href="/Knowledge/symmetric_relation.html" xlink:title="Symmetric Relation" target="_parent">
<path fill="none" stroke="#b75867" d="M734,-304C734,-304 643,-304 643,-304 637,-304 631,-298 631,-292 631,-292 631,-280 631,-280 631,-274 637,-268 643,-268 643,-268 734,-268 734,-268 740,-268 746,-274 746,-280 746,-280 746,-292 746,-292 746,-298 740,-304 734,-304"/>
<text text-anchor="middle" x="688.5" y="-282.9" font-family="sans" font-size="12.00" fill="#c4c7c7">Symmetric Relation</text>
</a>
</g>
</g>
<!-- Relation&#45;&gt;Symmetric Relation -->
<g id="edge42" class="edge">
<title>Relation&#45;&gt;Symmetric Relation</title>
<path fill="none" stroke="#ffffff" d="M341.41,-174.92C346.51,-180.13 352.45,-184.94 359,-188 395.5,-205.04 500.95,-188.1 540,-198 574.3,-206.69 589.55,-204.65 612,-232 621.3,-243.33 610,-253.28 620,-264 623.19,-267.43 626.93,-270.32 630.97,-272.76"/>
<polygon fill="#ffffff" stroke="#ffffff" points="343.8,-172.34 334.56,-167.15 338.55,-176.97 343.8,-172.34"/>
</g>
<!-- Anti&#45;reflexive relation -->
<g id="node20" class="node">
<title>Anti&#45;reflexive relation</title>
<g id="a_node20"><a xlink:href="/Knowledge/anti-reflexive_relation.html" xlink:title="Anti&#45;reflexive relation" target="_parent">
<path fill="none" stroke="#b75867" d="M738.5,-230C738.5,-230 638.5,-230 638.5,-230 632.5,-230 626.5,-224 626.5,-218 626.5,-218 626.5,-206 626.5,-206 626.5,-200 632.5,-194 638.5,-194 638.5,-194 738.5,-194 738.5,-194 744.5,-194 750.5,-200 750.5,-206 750.5,-206 750.5,-218 750.5,-218 750.5,-224 744.5,-230 738.5,-230"/>
<text text-anchor="middle" x="688.5" y="-208.9" font-family="sans" font-size="12.00" fill="#c4c7c7">Anti&#45;reflexive relation</text>
</a>
</g>
</g>
<!-- Relation&#45;&gt;Anti&#45;reflexive relation -->
<g id="edge44" class="edge">
<title>Relation&#45;&gt;Anti&#45;reflexive relation</title>
<path fill="none" stroke="#ffffff" d="M361.08,-149.03C414.19,-149.35 507,-150.93 540,-158 577.45,-166.02 584,-176.95 620,-190 623.59,-191.3 627.3,-192.61 631.05,-193.91"/>
<polygon fill="#ffffff" stroke="#ffffff" points="361.03,-145.53 351.02,-148.99 361,-152.53 361.03,-145.53"/>
</g>
<!-- Linear extension&#45;&gt;Linear order -->
<g id="edge49" class="edge">
<title>Linear extension&#45;&gt;Linear order</title>
<path fill="none" stroke="#b75867" d="M637.66,-25.1C589.76,-30.85 515.31,-38 450.5,-38 228,-38 228,-38 228,-38 164.11,-38 144.61,-38.38 87,-66 79.95,-69.38 73.07,-74.08 66.87,-79.03"/>
<polygon fill="#b75867" stroke="#b75867" points="64.22,-76.68 58.87,-85.82 68.75,-82.02 64.22,-76.68"/>
</g>
<!-- Linear extension&#45;&gt;Partial order -->
<g id="edge50" class="edge">
<title>Linear extension&#45;&gt;Partial order</title>
<path fill="none" stroke="#b75867" d="M637.83,-33.53C629.27,-35.65 620.42,-37.58 612,-39 419.5,-71.46 357.64,-5.76 174,-72 168.39,-74.02 162.85,-76.92 157.65,-80.16"/>
<polygon fill="#b75867" stroke="#b75867" points="155.6,-77.32 149.28,-85.82 159.52,-83.12 155.6,-77.32"/>
</g>
<!-- Linear extension&#45;&gt;Relations -->
<g id="edge51" class="edge">
<title>Linear extension&#45;&gt;Relations</title>
<path fill="none" stroke="#ffffff" d="M629.02,-34.25C625.79,-36.24 622.75,-38.47 620,-41 613.26,-47.2 615.61,-51.58 612,-60 604.42,-77.68 595.64,-97.76 589.36,-111.87"/>
<polygon fill="#ffffff" stroke="#ffffff" points="630.69,-37.33 637.92,-29.58 627.44,-31.13 630.69,-37.33"/>
</g>
<!-- Relations&#45;&gt;Linear order -->
<g id="edge54" class="edge">
<title>Relations&#45;&gt;Linear order</title>
<path fill="none" stroke="#b75867" d="M566.12,-111.67C559.41,-103.46 550.42,-94.61 540,-90 495.79,-70.43 370.85,-85 322.5,-85 228,-85 228,-85 228,-85 168.48,-85 150.56,-79.74 89.33,-89.89"/>
<polygon fill="#b75867" stroke="#b75867" points="88.38,-86.51 79.12,-91.66 89.57,-93.4 88.38,-86.51"/>
</g>
<!-- Relations&#45;&gt;Partial order -->
<g id="edge55" class="edge">
<title>Relations&#45;&gt;Partial order</title>
<path fill="none" stroke="#b75867" d="M547.59,-112.49C545.08,-111.51 542.53,-110.65 540,-110 412.09,-76.93 254.34,-88.92 176.16,-97.83"/>
<polygon fill="#b75867" stroke="#b75867" points="175.65,-94.37 166.12,-99.01 176.46,-101.32 175.65,-94.37"/>
</g>
<!-- Relations&#45;&gt;Transitive Relation -->
<g id="edge64" class="edge">
<title>Relations&#45;&gt;Transitive Relation</title>
<path fill="none" stroke="#b75867" d="M576.67,-148.1C571.79,-182.32 559.31,-254.39 540,-269 475.85,-317.54 433.99,-298.12 359,-269 311.36,-250.5 270.58,-205.29 248.25,-176.22"/>
<polygon fill="#b75867" stroke="#b75867" points="250.98,-174.03 242.19,-168.13 245.38,-178.23 250.98,-174.03"/>
</g>
<!-- Relations&#45;&gt;Strongly Anti&#45;symmetric Relation -->
<g id="edge65" class="edge">
<title>Relations&#45;&gt;Strongly Anti&#45;symmetric Relation</title>
<path fill="none" stroke="#b75867" d="M547.54,-129.19C547.39,-129.18 547.24,-129.17 547.09,-129.17"/>
<polygon fill="#b75867" stroke="#b75867" points="550.23,-125.8 540.1,-128.88 549.94,-132.79 550.23,-125.8"/>
</g>
<!-- Relations&#45;&gt;Reflexive Relation -->
<g id="edge69" class="edge">
<title>Relations&#45;&gt;Reflexive Relation</title>
<path fill="none" stroke="#b75867" d="M608.98,-111.73C610.07,-110.54 611.08,-109.29 612,-108 619.48,-97.44 611.02,-89.32 620,-80 622.04,-77.88 624.3,-75.96 626.7,-74.23"/>
<polygon fill="#b75867" stroke="#b75867" points="628.59,-77.17 635.36,-69.02 624.99,-71.17 628.59,-77.17"/>
</g>
<!-- Relations&#45;&gt;Relation -->
<g id="edge70" class="edge">
<title>Relations&#45;&gt;Relation</title>
<path fill="none" stroke="#b75867" d="M547.67,-141.42C545.09,-142.04 542.52,-142.58 540,-143 478.2,-153.31 405.2,-153.2 361.44,-151.57"/>
<polygon fill="#b75867" stroke="#b75867" points="361.38,-148.07 351.24,-151.14 361.08,-155.06 361.38,-148.07"/>
</g>
<!-- Relations&#45;&gt;Linear extension -->
<g id="edge53" class="edge">
<title>Relations&#45;&gt;Linear extension</title>
<path fill="none" stroke="#b75867" d="M588.97,-111.94C595.27,-97.6 604.26,-77.05 612,-59 615.61,-50.58 613.26,-46.2 620,-40 622.75,-37.47 625.79,-35.24 629.02,-33.26"/>
<polygon fill="#b75867" stroke="#b75867" points="630.69,-36.33 637.92,-28.59 627.44,-30.13 630.69,-36.33"/>
</g>
<!-- Relations&#45;&gt;Anti&#45;symmetric Relation -->
<g id="edge66" class="edge">
<title>Relations&#45;&gt;Anti&#45;symmetric Relation</title>
<path fill="none" stroke="#b75867" d="M583.88,-148.08C590.8,-191.2 608.43,-298.76 619.58,-332.41"/>
<polygon fill="#b75867" stroke="#b75867" points="616.58,-334.27 623.91,-341.91 622.94,-331.36 616.58,-334.27"/>
</g>
<!-- Relations&#45;&gt;Transitive Closure -->
<g id="edge58" class="edge">
<title>Relations&#45;&gt;Transitive Closure</title>
<path fill="none" stroke="#b75867" d="M591.56,-148.21C598.2,-160.3 606.52,-176.71 612,-192 617.38,-207.02 609.24,-215.22 620,-227 622.03,-229.22 624.28,-231.21 626.7,-233.01"/>
<polygon fill="#b75867" stroke="#b75867" points="625.1,-236.14 635.46,-238.37 628.75,-230.16 625.1,-236.14"/>
</g>
<!-- Relations&#45;&gt;Transitive Closure -->
<g id="edge62" class="edge">
<title>Relations&#45;&gt;Transitive Closure</title>
<path fill="none" stroke="#b75867" d="M591.12,-148.25C597.83,-160.57 606.4,-177.37 612,-193 617.38,-208.02 609.24,-216.22 620,-228 622.03,-230.22 624.28,-232.21 626.7,-234.01"/>
<polygon fill="#b75867" stroke="#b75867" points="625.1,-237.13 635.46,-239.36 628.75,-231.16 625.1,-237.13"/>
</g>
<!-- Relations&#45;&gt;Relation of Equivalence -->
<g id="edge57" class="edge">
<title>Relations&#45;&gt;Relation of Equivalence</title>
<path fill="none" stroke="#b75867" d="M612.06,-147.29C614.7,-148.33 617.36,-149.26 620,-150 649.39,-158.24 729.17,-147.45 757,-160 788.42,-174.17 815.47,-203.62 832.38,-225.4"/>
<polygon fill="#b75867" stroke="#b75867" points="829.75,-227.73 838.56,-233.62 835.35,-223.52 829.75,-227.73"/>
</g>
<!-- Relations&#45;&gt;Reflexive Closure -->
<g id="edge60" class="edge">
<title>Relations&#45;&gt;Reflexive Closure</title>
<path fill="none" stroke="#b75867" d="M608.65,-111.99C609.86,-110.72 610.99,-109.38 612,-108 618.89,-98.58 610.81,-90.18 620,-83 621.68,-81.69 722.74,-75.52 790.62,-71.51"/>
<polygon fill="#b75867" stroke="#b75867" points="791.01,-74.99 800.79,-70.91 790.6,-68.01 791.01,-74.99"/>
</g>
<!-- Relations&#45;&gt;Reflexive Closure -->
<g id="edge63" class="edge">
<title>Relations&#45;&gt;Reflexive Closure</title>
<path fill="none" stroke="#b75867" d="M609.74,-111.8C610.54,-110.89 611.3,-109.96 612,-109 618.89,-99.58 610.81,-91.18 620,-84 621.68,-82.69 722.74,-76.52 790.62,-72.22"/>
<polygon fill="#b75867" stroke="#b75867" points="791.03,-75.7 800.79,-71.57 790.59,-68.71 791.03,-75.7"/>
</g>
<!-- Relations&#45;&gt;Chain -->
<g id="edge52" class="edge">
<title>Relations&#45;&gt;Chain</title>
<path fill="none" stroke="#b75867" d="M587.61,-148.17C594.7,-168.37 605.78,-202.1 612,-232 615.15,-247.11 610.23,-289.05 620,-301 627.73,-310.45 639.57,-315.88 651.19,-318.98"/>
<polygon fill="#b75867" stroke="#b75867" points="650.73,-322.46 661.24,-321.16 652.21,-315.62 650.73,-322.46"/>
</g>
<!-- Relations&#45;&gt;Symmetric Closure -->
<g id="edge59" class="edge">
<title>Relations&#45;&gt;Symmetric Closure</title>
<path fill="none" stroke="#b75867" d="M610.02,-148.04C613.33,-149.82 616.7,-151.51 620,-153 621.17,-153.53 622.35,-154.05 623.55,-154.56"/>
<polygon fill="#b75867" stroke="#b75867" points="622.37,-157.86 632.95,-158.36 624.99,-151.37 622.37,-157.86"/>
</g>
<!-- Relations&#45;&gt;Symmetric Closure -->
<g id="edge61" class="edge">
<title>Relations&#45;&gt;Symmetric Closure</title>
<path fill="none" stroke="#b75867" d="M608.3,-148.09C612.16,-150.22 616.13,-152.25 620,-154 621.17,-154.53 622.35,-155.05 623.55,-155.56"/>
<polygon fill="#b75867" stroke="#b75867" points="622.37,-158.86 632.95,-159.36 624.99,-152.37 622.37,-158.86"/>
</g>
<!-- Relations&#45;&gt;Symmetric Relation -->
<g id="edge67" class="edge">
<title>Relations&#45;&gt;Symmetric Relation</title>
<path fill="none" stroke="#b75867" d="M592.15,-148.02C599.03,-160.03 607.4,-176.42 612,-192 616.56,-207.44 609.84,-251.51 620,-264 620.85,-265.05 621.76,-266.05 622.71,-267"/>
<polygon fill="#b75867" stroke="#b75867" points="620.76,-269.92 630.76,-273.41 625.12,-264.45 620.76,-269.92"/>
</g>
<!-- Relations&#45;&gt;Anti&#45;reflexive relation -->
<g id="edge68" class="edge">
<title>Relations&#45;&gt;Anti&#45;reflexive relation</title>
<path fill="none" stroke="#b75867" d="M609.09,-148.19C610.15,-149.41 611.13,-150.68 612,-152 619.99,-164.18 611.98,-173.72 619.96,-187.56"/>
<polygon fill="#b75867" stroke="#b75867" points="617.38,-189.94 626.24,-195.74 622.93,-185.68 617.38,-189.94"/>
</g>
<!-- Class of equivalence -->
<g id="node21" class="node">
<title>Class of equivalence</title>
<g id="a_node21"><a xlink:href="/Knowledge/class_of_equivalence.html" xlink:title="Class of equivalence" target="_parent">
<path fill="#273434" stroke="#b75867" d="M736,-153C736,-153 641,-153 641,-153 635,-153 629,-147 629,-141 629,-141 629,-129 629,-129 629,-123 635,-117 641,-117 641,-117 736,-117 736,-117 742,-117 748,-123 748,-129 748,-129 748,-141 748,-141 748,-147 742,-153 736,-153"/>
<text text-anchor="middle" x="688.5" y="-131.9" font-family="sans" font-size="12.00" fill="#c4c7c7">Class of equivalence</text>
</a>
</g>
</g>
<!-- Relations&#45;&gt;Class of equivalence -->
<g id="edge56" class="edge">
<title>Relations&#45;&gt;Class of equivalence</title>
<path fill="none" stroke="#b75867" d="M612.09,-131.46C614.24,-131.56 616.44,-131.66 618.68,-131.77"/>
<polygon fill="#b75867" stroke="#b75867" points="618.57,-135.27 628.72,-132.24 618.9,-128.28 618.57,-135.27"/>
</g>
<!-- Discrete Structures -->
<g id="node22" class="node">
<title>Discrete Structures</title>
<g id="a_node22"><a xlink:href="/Knowledge/discrete_structures.html" xlink:title="Discrete Structures" target="_parent">
<path fill="none" stroke="#b75867" d="M732,-116C732,-116 645,-116 645,-116 639,-116 633,-110 633,-104 633,-104 633,-92 633,-92 633,-86 639,-80 645,-80 645,-80 732,-80 732,-80 738,-80 744,-86 744,-92 744,-92 744,-104 744,-104 744,-110 738,-116 732,-116"/>
<text text-anchor="middle" x="688.5" y="-94.9" font-family="sans" font-size="12.00" fill="#c4c7c7">Discrete Structures</text>
</a>
</g>
</g>
<!-- Relations&#45;&gt;Discrete Structures -->
<g id="edge71" class="edge">
<title>Relations&#45;&gt;Discrete Structures</title>
<path fill="none" stroke="#ffffff" d="M621.87,-117.72C625.43,-116.65 629.07,-115.56 632.73,-114.46"/>
<polygon fill="#ffffff" stroke="#ffffff" points="620.66,-114.43 612.09,-120.66 622.67,-121.13 620.66,-114.43"/>
</g>
</g>
</svg>
