<?xml version="1.0" encoding="UTF-8" standalone="no"?>
<!DOCTYPE svg PUBLIC "-//W3C//DTD SVG 1.1//EN"
 "http://www.w3.org/Graphics/SVG/1.1/DTD/svg11.dtd">
<!-- Generated by graphviz version 2.44.0 (0)
 -->
<!-- Title: Linear order Pages: 1 -->
<svg width="1038pt" height="412pt"
 viewBox="0.00 0.00 1038.00 412.00" xmlns="http://www.w3.org/2000/svg" xmlns:xlink="http://www.w3.org/1999/xlink">
<g id="graph0" class="graph" transform="scale(1 1) rotate(0) translate(4 408)">
<title>Linear order</title>
<polygon fill="#132020" stroke="transparent" points="-4,4 -4,-408 1034,-408 1034,4 -4,4"/>
<!-- Linear order -->
<g id="node1" class="node">
<title>Linear order</title>
<g id="a_node1"><a xlink:href="/Knowledge/Linear order.html" xlink:title="Linear order" target="_parent">
<path fill="#273434" stroke="#b75867" d="M74,-122C74,-122 12,-122 12,-122 6,-122 0,-116 0,-110 0,-110 0,-98 0,-98 0,-92 6,-86 12,-86 12,-86 74,-86 74,-86 80,-86 86,-92 86,-98 86,-98 86,-110 86,-110 86,-116 80,-122 74,-122"/>
<text text-anchor="middle" x="43" y="-100.9" font-family="sans" font-size="12.00" fill="#c4c7c7">Linear order</text>
</a>
</g>
</g>
<!-- Partial order -->
<g id="node2" class="node">
<title>Partial order</title>
<g id="a_node2"><a xlink:href="/Knowledge/Partial order.html" xlink:title="Partial order" target="_parent">
<path fill="#273434" stroke="#b75867" d="M168,-122C168,-122 106,-122 106,-122 100,-122 94,-116 94,-110 94,-110 94,-98 94,-98 94,-92 100,-86 106,-86 106,-86 168,-86 168,-86 174,-86 180,-92 180,-98 180,-98 180,-110 180,-110 180,-116 174,-122 168,-122"/>
<text text-anchor="middle" x="137" y="-100.9" font-family="sans" font-size="12.00" fill="#c4c7c7">Partial order</text>
</a>
</g>
</g>
<!-- Linear order&#45;&gt;Partial order -->
<g id="edge1" class="edge">
<title>Linear order&#45;&gt;Partial order</title>
<path fill="none" stroke="#b75867" d="M86.23,-104C86.39,-104 86.55,-104 86.71,-104"/>
<polygon fill="#b75867" stroke="#b75867" points="83.9,-107.5 93.9,-104 83.9,-100.5 83.9,-107.5"/>
</g>
<!-- Transitive Relation -->
<g id="node3" class="node">
<title>Transitive Relation</title>
<g id="a_node3"><a xlink:href="/Knowledge/Transitive Relation.html" xlink:title="Transitive Relation" target="_parent">
<path fill="#273434" stroke="#b75867" d="M297,-168C297,-168 200,-168 200,-168 194,-168 188,-162 188,-156 188,-156 188,-144 188,-144 188,-138 194,-132 200,-132 200,-132 297,-132 297,-132 303,-132 309,-138 309,-144 309,-144 309,-156 309,-156 309,-162 303,-168 297,-168"/>
<text text-anchor="middle" x="248.5" y="-146.9" font-family="sans" font-size="12.00" fill="#c4c7c7">Transitive Relation</text>
</a>
</g>
</g>
<!-- Linear order&#45;&gt;Transitive Relation -->
<g id="edge2" class="edge">
<title>Linear order&#45;&gt;Transitive Relation</title>
<path fill="none" stroke="#b75867" d="M73.07,-122.03C79.74,-125.5 86.95,-128.75 94,-131 120.65,-139.51 151.03,-144.24 177.7,-146.86"/>
<polygon fill="#b75867" stroke="#b75867" points="177.45,-150.35 187.72,-147.76 178.07,-143.38 177.45,-150.35"/>
</g>
<!-- Strongly Anti&#45;symmetric Relation -->
<g id="node4" class="node">
<title>Strongly Anti&#45;symmetric Relation</title>
<g id="a_node4"><a xlink:href="/Knowledge/Strongly Anti-symmetric Relation.html" xlink:title="Strongly Anti&#45;symmetric Relation" target="_parent">
<path fill="#273434" stroke="#b75867" d="M580,-142C580,-142 401,-142 401,-142 395,-142 389,-136 389,-130 389,-130 389,-118 389,-118 389,-112 395,-106 401,-106 401,-106 580,-106 580,-106 586,-106 592,-112 592,-118 592,-118 592,-130 592,-130 592,-136 586,-142 580,-142"/>
<text text-anchor="middle" x="490.5" y="-120.9" font-family="sans" font-size="12.00" fill="#c4c7c7">Strongly Anti&#45;symmetric Relation</text>
</a>
</g>
</g>
<!-- Linear order&#45;&gt;Strongly Anti&#45;symmetric Relation -->
<g id="edge3" class="edge">
<title>Linear order&#45;&gt;Strongly Anti&#45;symmetric Relation</title>
<path fill="none" stroke="#b75867" d="M86.09,-117.53C88.75,-118.1 91.4,-118.6 94,-119 146.69,-127.07 280.94,-127.19 378.44,-126.04"/>
<polygon fill="#b75867" stroke="#b75867" points="378.69,-129.53 388.65,-125.91 378.6,-122.54 378.69,-129.53"/>
</g>
<!-- Reflexive Relation -->
<g id="node5" class="node">
<title>Reflexive Relation</title>
<g id="a_node5"><a xlink:href="/Knowledge/Reflexive Relation.html" xlink:title="Reflexive Relation" target="_parent">
<path fill="#273434" stroke="#b75867" d="M799.5,-76C799.5,-76 706.5,-76 706.5,-76 700.5,-76 694.5,-70 694.5,-64 694.5,-64 694.5,-52 694.5,-52 694.5,-46 700.5,-40 706.5,-40 706.5,-40 799.5,-40 799.5,-40 805.5,-40 811.5,-46 811.5,-52 811.5,-52 811.5,-64 811.5,-64 811.5,-70 805.5,-76 799.5,-76"/>
<text text-anchor="middle" x="753" y="-54.9" font-family="sans" font-size="12.00" fill="#c4c7c7">Reflexive Relation</text>
</a>
</g>
</g>
<!-- Linear order&#45;&gt;Reflexive Relation -->
<g id="edge4" class="edge">
<title>Linear order&#45;&gt;Reflexive Relation</title>
<path fill="none" stroke="#b75867" d="M84.63,-85.94C87.77,-84.85 90.91,-83.85 94,-83 160.42,-64.62 178.58,-61 247.5,-61 247.5,-61 247.5,-61 491.5,-61 556.9,-61 631.54,-60.04 684.11,-59.21"/>
<polygon fill="#b75867" stroke="#b75867" points="684.38,-62.71 694.32,-59.05 684.26,-55.71 684.38,-62.71"/>
</g>
<!-- Relation -->
<g id="node6" class="node">
<title>Relation</title>
<g id="a_node6"><a xlink:href="/Knowledge/Relation.html" xlink:title="Relation" target="_parent">
<path fill="#273434" stroke="#b75867" d="M369,-167C369,-167 329,-167 329,-167 323,-167 317,-161 317,-155 317,-155 317,-143 317,-143 317,-137 323,-131 329,-131 329,-131 369,-131 369,-131 375,-131 381,-137 381,-143 381,-143 381,-155 381,-155 381,-161 375,-167 369,-167"/>
<text text-anchor="middle" x="349" y="-145.9" font-family="sans" font-size="12.00" fill="#c4c7c7">Relation</text>
</a>
</g>
</g>
<!-- Linear order&#45;&gt;Relation -->
<g id="edge5" class="edge">
<title>Linear order&#45;&gt;Relation</title>
<path fill="none" stroke="#b75867" d="M83.43,-122.04C86.95,-123.2 90.51,-124.21 94,-125 184.21,-145.37 213.24,-118.33 306.85,-134.99"/>
<polygon fill="#b75867" stroke="#b75867" points="306.25,-138.44 316.73,-136.87 307.55,-131.56 306.25,-138.44"/>
</g>
<!-- Linear extension -->
<g id="node7" class="node">
<title>Linear extension</title>
<g id="a_node7"><a xlink:href="/Knowledge/Linear extension.html" xlink:title="Linear extension" target="_parent">
<path fill="none" stroke="#b75867" d="M796,-36C796,-36 710,-36 710,-36 704,-36 698,-30 698,-24 698,-24 698,-12 698,-12 698,-6 704,0 710,0 710,0 796,0 796,0 802,0 808,-6 808,-12 808,-12 808,-24 808,-24 808,-30 802,-36 796,-36"/>
<text text-anchor="middle" x="753" y="-14.9" font-family="sans" font-size="12.00" fill="#c4c7c7">Linear extension</text>
</a>
</g>
</g>
<!-- Linear order&#45;&gt;Linear extension -->
<g id="edge6" class="edge">
<title>Linear order&#45;&gt;Linear extension</title>
<path fill="none" stroke="#ffffff" d="M70.88,-79.26C77.97,-73.83 85.91,-68.63 94,-65 157.28,-36.63 178.15,-37 247.5,-37 247.5,-37 247.5,-37 491.5,-37 563.03,-37 645.32,-29.79 697.95,-24.25"/>
<polygon fill="#ffffff" stroke="#ffffff" points="68.55,-76.64 62.98,-85.65 72.96,-82.07 68.55,-76.64"/>
</g>
<!-- Relations -->
<g id="node8" class="node">
<title>Relations</title>
<g id="a_node8"><a xlink:href="/Knowledge/Relations.html" xlink:title="Relations" target="_parent">
<path fill="none" stroke="#b75867" d="M657,-148C657,-148 612,-148 612,-148 606,-148 600,-142 600,-136 600,-136 600,-124 600,-124 600,-118 606,-112 612,-112 612,-112 657,-112 657,-112 663,-112 669,-118 669,-124 669,-124 669,-136 669,-136 669,-142 663,-148 657,-148"/>
<text text-anchor="middle" x="634.5" y="-126.9" font-family="sans" font-size="12.00" fill="#c4c7c7">Relations</text>
</a>
</g>
</g>
<!-- Linear order&#45;&gt;Relations -->
<g id="edge7" class="edge">
<title>Linear order&#45;&gt;Relations</title>
<path fill="none" stroke="#ffffff" d="M96.32,-88.89C163.15,-78.54 182.44,-84 247.5,-84 247.5,-84 247.5,-84 350,-84 403.79,-84 542.46,-68.05 592,-89 603.19,-93.73 613.01,-103.04 620.29,-111.59"/>
<polygon fill="#ffffff" stroke="#ffffff" points="95.42,-85.49 86.1,-90.53 96.53,-92.4 95.42,-85.49"/>
</g>
<!-- Partial order&#45;&gt;Linear order -->
<g id="edge14" class="edge">
<title>Partial order&#45;&gt;Linear order</title>
<path fill="none" stroke="#ffffff" d="M86.71,-104.75C86.55,-104.75 86.39,-104.75 86.23,-104.75"/>
<polygon fill="#ffffff" stroke="#ffffff" points="83.9,-108.25 93.9,-104.75 83.9,-101.25 83.9,-108.25"/>
</g>
<!-- Partial order&#45;&gt;Transitive Relation -->
<g id="edge8" class="edge">
<title>Partial order&#45;&gt;Transitive Relation</title>
<path fill="none" stroke="#b75867" d="M174.68,-122.09C179.14,-124.14 183.66,-126.16 188,-128 188.1,-128.04 188.2,-128.08 188.3,-128.12"/>
<polygon fill="#b75867" stroke="#b75867" points="187.11,-131.42 197.69,-131.98 189.77,-124.95 187.11,-131.42"/>
</g>
<!-- Partial order&#45;&gt;Reflexive Relation -->
<g id="edge10" class="edge">
<title>Partial order&#45;&gt;Reflexive Relation</title>
<path fill="none" stroke="#b75867" d="M180.12,-89.87C182.77,-89.19 185.42,-88.55 188,-88 257.97,-73.02 276.44,-70 348,-70 348,-70 348,-70 491.5,-70 556.97,-70 631.6,-66.17 684.15,-62.84"/>
<polygon fill="#b75867" stroke="#b75867" points="684.6,-66.32 694.35,-62.18 684.15,-59.33 684.6,-66.32"/>
</g>
<!-- Partial order&#45;&gt;Relation -->
<g id="edge11" class="edge">
<title>Partial order&#45;&gt;Relation</title>
<path fill="none" stroke="#b75867" d="M180.11,-107.94C212.87,-111.66 259.51,-118.38 306.94,-131.73"/>
<polygon fill="#b75867" stroke="#b75867" points="306.17,-135.15 316.75,-134.58 308.12,-128.43 306.17,-135.15"/>
</g>
<!-- Partial order&#45;&gt;Linear extension -->
<g id="edge12" class="edge">
<title>Partial order&#45;&gt;Linear extension</title>
<path fill="none" stroke="#ffffff" d="M168.67,-80.28C174.79,-76.57 181.38,-73.24 188,-71 391,-2.39 457.21,-70.55 669,-38 678.38,-36.56 688.25,-34.59 697.79,-32.44"/>
<polygon fill="#ffffff" stroke="#ffffff" points="166.55,-77.48 160.1,-85.88 170.38,-83.34 166.55,-77.48"/>
</g>
<!-- Partial order&#45;&gt;Relations -->
<g id="edge13" class="edge">
<title>Partial order&#45;&gt;Relations</title>
<path fill="none" stroke="#ffffff" d="M190.07,-97.02C275.47,-87.25 449.99,-74.29 592,-109 594.98,-109.73 597.99,-110.7 600.96,-111.84"/>
<polygon fill="#ffffff" stroke="#ffffff" points="189.63,-93.55 180.1,-98.2 190.44,-100.5 189.63,-93.55"/>
</g>
<!-- Anti&#45;symmetric Relation -->
<g id="node9" class="node">
<title>Anti&#45;symmetric Relation</title>
<g id="a_node9"><a xlink:href="/Knowledge/Anti-symmetric Relation.html" xlink:title="Anti&#45;symmetric Relation" target="_parent">
<path fill="#273434" stroke="#b75867" d="M817,-378C817,-378 689,-378 689,-378 683,-378 677,-372 677,-366 677,-366 677,-354 677,-354 677,-348 683,-342 689,-342 689,-342 817,-342 817,-342 823,-342 829,-348 829,-354 829,-354 829,-366 829,-366 829,-372 823,-378 817,-378"/>
<text text-anchor="middle" x="753" y="-356.9" font-family="sans" font-size="12.00" fill="#c4c7c7">Anti&#45;symmetric Relation</text>
</a>
</g>
</g>
<!-- Partial order&#45;&gt;Anti&#45;symmetric Relation -->
<g id="edge9" class="edge">
<title>Partial order&#45;&gt;Anti&#45;symmetric Relation</title>
<path fill="none" stroke="#b75867" d="M142.25,-122.11C157.86,-183.51 217.95,-380 348,-380 348,-380 348,-380 491.5,-380 550.18,-380 616.08,-374.89 666.92,-369.84"/>
<polygon fill="#b75867" stroke="#b75867" points="667.28,-373.32 676.88,-368.83 666.58,-366.36 667.28,-373.32"/>
</g>
<!-- Partial orders have no contours -->
<g id="node10" class="node">
<title>Partial orders have no contours</title>
<g id="a_node10"><a xlink:href="/Knowledge/Partial orders have no contours.html" xlink:title="Partial orders have no contours" target="_parent">
<path fill="none" stroke="#b75867" d="M1018,-404C1018,-404 849,-404 849,-404 843,-404 837,-398 837,-392 837,-392 837,-380 837,-380 837,-374 843,-368 849,-368 849,-368 1018,-368 1018,-368 1024,-368 1030,-374 1030,-380 1030,-380 1030,-392 1030,-392 1030,-398 1024,-404 1018,-404"/>
<text text-anchor="middle" x="933.5" y="-382.9" font-family="sans" font-size="12.00" fill="#c4c7c7">Partial orders have no contours</text>
</a>
</g>
</g>
<!-- Partial order&#45;&gt;Partial orders have no contours -->
<g id="edge15" class="edge">
<title>Partial order&#45;&gt;Partial orders have no contours</title>
<path fill="none" stroke="#ffffff" d="M137.47,-132.2C138.11,-175.56 145.31,-259.11 188,-312 237.57,-373.41 269.08,-389 348,-389 348,-389 348,-389 635.5,-389 702.79,-389 778.66,-388.22 836.87,-387.46"/>
<polygon fill="#ffffff" stroke="#ffffff" points="140.96,-132.07 137.43,-122.08 133.96,-132.1 140.96,-132.07"/>
</g>
<!-- Transitive Relation&#45;&gt;Linear order -->
<g id="edge20" class="edge">
<title>Transitive Relation&#45;&gt;Linear order</title>
<path fill="none" stroke="#ffffff" d="M177.7,-147.79C151.03,-145.24 120.65,-140.51 94,-132 86.29,-129.54 78.39,-125.88 71.22,-122.02"/>
<polygon fill="#ffffff" stroke="#ffffff" points="177.45,-151.28 187.72,-148.67 178.06,-144.31 177.45,-151.28"/>
</g>
<!-- Transitive Relation&#45;&gt;Partial order -->
<g id="edge22" class="edge">
<title>Transitive Relation&#45;&gt;Partial order</title>
<path fill="none" stroke="#ffffff" d="M185.93,-128.06C179.82,-125.44 176.13,-123.76 172.51,-122.07"/>
<polygon fill="#ffffff" stroke="#ffffff" points="184.58,-131.29 195.15,-131.96 187.3,-124.84 184.58,-131.29"/>
</g>
<!-- Transitive Relation&#45;&gt;Relation -->
<g id="edge16" class="edge">
<title>Transitive Relation&#45;&gt;Relation</title>
<path fill="none" stroke="#b75867" d="M309.07,-149.4C309.23,-149.39 309.39,-149.39 309.56,-149.39"/>
<polygon fill="#b75867" stroke="#b75867" points="306.73,-152.92 316.7,-149.32 306.66,-145.92 306.73,-152.92"/>
</g>
<!-- Transitive Relation&#45;&gt;Relations -->
<g id="edge19" class="edge">
<title>Transitive Relation&#45;&gt;Relations</title>
<path fill="none" stroke="#ffffff" d="M270.2,-176.12C294.9,-204.97 339.18,-249.75 389,-268 473.72,-299.03 519.6,-321.83 592,-268 629.74,-239.94 634.43,-178.67 634.26,-148.1"/>
<polygon fill="#ffffff" stroke="#ffffff" points="272.87,-173.86 263.76,-168.44 267.51,-178.36 272.87,-173.86"/>
</g>
<!-- Transitive Relation&#45;&gt;Partial orders have no contours -->
<g id="edge21" class="edge">
<title>Transitive Relation&#45;&gt;Partial orders have no contours</title>
<path fill="none" stroke="#ffffff" d="M259.77,-177.84C270.5,-203.41 289.59,-240.75 317,-264 343.18,-286.21 356.54,-280.8 389,-292 515.41,-335.6 545,-357.65 677,-379 729.46,-387.49 788.74,-389.56 836.99,-389.37"/>
<polygon fill="#ffffff" stroke="#ffffff" points="262.93,-176.31 255.95,-168.34 256.44,-178.93 262.93,-176.31"/>
</g>
<!-- Relation of Equivalence -->
<g id="node11" class="node">
<title>Relation of Equivalence</title>
<g id="a_node11"><a xlink:href="/Knowledge/Relation of Equivalence.html" xlink:title="Relation of Equivalence" target="_parent">
<path fill="none" stroke="#b75867" d="M996,-270C996,-270 871,-270 871,-270 865,-270 859,-264 859,-258 859,-258 859,-246 859,-246 859,-240 865,-234 871,-234 871,-234 996,-234 996,-234 1002,-234 1008,-240 1008,-246 1008,-246 1008,-258 1008,-258 1008,-264 1002,-270 996,-270"/>
<text text-anchor="middle" x="933.5" y="-248.9" font-family="sans" font-size="12.00" fill="#c4c7c7">Relation of Equivalence</text>
</a>
</g>
</g>
<!-- Transitive Relation&#45;&gt;Relation of Equivalence -->
<g id="edge17" class="edge">
<title>Transitive Relation&#45;&gt;Relation of Equivalence</title>
<path fill="none" stroke="#ffffff" d="M261.71,-177.43C291.2,-239.03 372.64,-383 489.5,-383 489.5,-383 489.5,-383 635.5,-383 657.01,-383 809.74,-387.57 829,-378 834.1,-375.47 833.41,-372.42 837,-368 865.27,-333.16 898.66,-292.77 917.53,-270.02"/>
<polygon fill="#ffffff" stroke="#ffffff" points="264.83,-175.85 257.42,-168.28 258.5,-178.82 264.83,-175.85"/>
</g>
<!-- Transitive Closure -->
<g id="node12" class="node">
<title>Transitive Closure</title>
<g id="a_node12"><a xlink:href="/Knowledge/Transitive Closure.html" xlink:title="Transitive Closure" target="_parent">
<path fill="none" stroke="#b75867" d="M799,-267C799,-267 707,-267 707,-267 701,-267 695,-261 695,-255 695,-255 695,-243 695,-243 695,-237 701,-231 707,-231 707,-231 799,-231 799,-231 805,-231 811,-237 811,-243 811,-243 811,-255 811,-255 811,-261 805,-267 799,-267"/>
<text text-anchor="middle" x="753" y="-245.9" font-family="sans" font-size="12.00" fill="#c4c7c7">Transitive Closure</text>
</a>
</g>
</g>
<!-- Transitive Relation&#45;&gt;Transitive Closure -->
<g id="edge18" class="edge">
<title>Transitive Relation&#45;&gt;Transitive Closure</title>
<path fill="none" stroke="#ffffff" d="M264.4,-176.78C276.61,-197.01 295.37,-224.54 317,-244 344.37,-268.64 353.4,-275.57 389,-285 476.22,-308.09 502.33,-294.96 592,-285 626.52,-281.16 664.48,-272.81 694.76,-265.11"/>
<polygon fill="#ffffff" stroke="#ffffff" points="267.35,-174.89 259.26,-168.05 261.32,-178.44 267.35,-174.89"/>
</g>
<!-- Strongly Anti&#45;symmetric Relation&#45;&gt;Linear order -->
<g id="edge25" class="edge">
<title>Strongly Anti&#45;symmetric Relation&#45;&gt;Linear order</title>
<path fill="none" stroke="#ffffff" d="M378.44,-126.81C280.94,-128.19 146.69,-128.07 94,-120 91.4,-119.6 88.75,-119.1 86.09,-118.53"/>
<polygon fill="#ffffff" stroke="#ffffff" points="378.7,-130.31 388.65,-126.66 378.59,-123.31 378.7,-130.31"/>
</g>
<!-- Strongly Anti&#45;symmetric Relation&#45;&gt;Relation -->
<g id="edge23" class="edge">
<title>Strongly Anti&#45;symmetric Relation&#45;&gt;Relation</title>
<path fill="none" stroke="#b75867" d="M392.95,-142C392.45,-142.09 391.94,-142.18 391.44,-142.27"/>
<polygon fill="#b75867" stroke="#b75867" points="390.56,-138.87 381.31,-144.03 391.76,-145.76 390.56,-138.87"/>
</g>
<!-- Strongly Anti&#45;symmetric Relation&#45;&gt;Relations -->
<g id="edge24" class="edge">
<title>Strongly Anti&#45;symmetric Relation&#45;&gt;Relations</title>
<path fill="none" stroke="#ffffff" d="M599.28,-128.55C599.44,-128.56 599.6,-128.57 599.75,-128.57"/>
<polygon fill="#ffffff" stroke="#ffffff" points="602.18,-125.17 592.05,-128.25 601.89,-132.17 602.18,-125.17"/>
</g>
<!-- Reflexive Relation&#45;&gt;Linear order -->
<g id="edge30" class="edge">
<title>Reflexive Relation&#45;&gt;Linear order</title>
<path fill="none" stroke="#ffffff" d="M684.11,-60.03C631.54,-61.04 556.9,-62 491.5,-62 247.5,-62 247.5,-62 247.5,-62 178.58,-62 160.42,-65.62 94,-84 91.37,-84.73 88.69,-85.56 86.01,-86.46"/>
<polygon fill="#ffffff" stroke="#ffffff" points="684.39,-63.52 694.32,-59.83 684.25,-56.53 684.39,-63.52"/>
</g>
<!-- Reflexive Relation&#45;&gt;Partial order -->
<g id="edge32" class="edge">
<title>Reflexive Relation&#45;&gt;Partial order</title>
<path fill="none" stroke="#ffffff" d="M684.15,-63.66C631.6,-67.17 556.97,-71 491.5,-71 348,-71 348,-71 348,-71 276.44,-71 257.97,-74.02 188,-89 185.42,-89.55 182.77,-90.19 180.12,-90.87"/>
<polygon fill="#ffffff" stroke="#ffffff" points="684.61,-67.13 694.35,-62.96 684.14,-60.15 684.61,-67.13"/>
</g>
<!-- Reflexive Relation&#45;&gt;Relation -->
<g id="edge26" class="edge">
<title>Reflexive Relation&#45;&gt;Relation</title>
<path fill="none" stroke="#b75867" d="M694.4,-74.99C688.48,-76.9 682.6,-78.92 677,-81 641.77,-94.1 625.15,-88.06 600,-116 592.48,-124.36 600.98,-133.24 592,-140 584.15,-145.91 458.64,-148.52 391.56,-149.11"/>
<polygon fill="#b75867" stroke="#b75867" points="391.29,-145.61 381.32,-149.19 391.35,-152.61 391.29,-145.61"/>
</g>
<!-- Reflexive Relation&#45;&gt;Relations -->
<g id="edge29" class="edge">
<title>Reflexive Relation&#45;&gt;Relations</title>
<path fill="none" stroke="#ffffff" d="M685.74,-73.93C682.59,-76 679.64,-78.34 677,-81 667.88,-90.18 676.67,-98.57 669,-109 668.26,-110.01 667.45,-110.98 666.6,-111.93"/>
<polygon fill="#ffffff" stroke="#ffffff" points="687.43,-77 694.5,-69.1 684.05,-70.87 687.43,-77"/>
</g>
<!-- Reflexive Relation&#45;&gt;Partial orders have no contours -->
<g id="edge31" class="edge">
<title>Reflexive Relation&#45;&gt;Partial orders have no contours</title>
<path fill="none" stroke="#ffffff" d="M820.26,-71.65C823.53,-74.02 826.49,-76.78 829,-80 842.08,-96.73 829.37,-251.18 837,-271 852.38,-310.96 887.61,-347.18 910.71,-367.89"/>
<polygon fill="#ffffff" stroke="#ffffff" points="821.99,-68.6 811.6,-66.52 818.42,-74.62 821.99,-68.6"/>
</g>
<!-- Reflexive Relation&#45;&gt;Relation of Equivalence -->
<g id="edge28" class="edge">
<title>Reflexive Relation&#45;&gt;Relation of Equivalence</title>
<path fill="none" stroke="#ffffff" d="M821.06,-74.71C823.84,-76.31 826.5,-78.07 829,-80 882.53,-121.3 914.37,-198.78 926.65,-233.89"/>
<polygon fill="#ffffff" stroke="#ffffff" points="822.37,-71.45 811.87,-70.09 819.23,-77.71 822.37,-71.45"/>
</g>
<!-- Reflexive Closure -->
<g id="node13" class="node">
<title>Reflexive Closure</title>
<g id="a_node13"><a xlink:href="/Knowledge/Reflexive Closure.html" xlink:title="Reflexive Closure" target="_parent">
<path fill="none" stroke="#b75867" d="M978,-86C978,-86 889,-86 889,-86 883,-86 877,-80 877,-74 877,-74 877,-62 877,-62 877,-56 883,-50 889,-50 889,-50 978,-50 978,-50 984,-50 990,-56 990,-62 990,-62 990,-74 990,-74 990,-80 984,-86 978,-86"/>
<text text-anchor="middle" x="933.5" y="-64.9" font-family="sans" font-size="12.00" fill="#c4c7c7">Reflexive Closure</text>
</a>
</g>
</g>
<!-- Reflexive Relation&#45;&gt;Reflexive Closure -->
<g id="edge27" class="edge">
<title>Reflexive Relation&#45;&gt;Reflexive Closure</title>
<path fill="none" stroke="#ffffff" d="M822.16,-61.82C840.27,-62.83 859.61,-63.92 876.96,-64.89"/>
<polygon fill="#ffffff" stroke="#ffffff" points="822.13,-58.31 811.95,-61.25 821.74,-65.3 822.13,-58.31"/>
</g>
<!-- Relation&#45;&gt;Linear order -->
<g id="edge42" class="edge">
<title>Relation&#45;&gt;Linear order</title>
<path fill="none" stroke="#ffffff" d="M306.85,-135.99C213.24,-119.33 184.21,-146.37 94,-126 89.59,-125 85.08,-123.64 80.66,-122.08"/>
<polygon fill="#ffffff" stroke="#ffffff" points="306.25,-139.44 316.73,-137.86 307.55,-132.56 306.25,-139.44"/>
</g>
<!-- Relation&#45;&gt;Partial order -->
<g id="edge48" class="edge">
<title>Relation&#45;&gt;Partial order</title>
<path fill="none" stroke="#ffffff" d="M306.94,-132.72C259.51,-119.38 212.87,-112.65 180.11,-108.75"/>
<polygon fill="#ffffff" stroke="#ffffff" points="306.17,-136.15 316.75,-135.58 308.12,-129.42 306.17,-136.15"/>
</g>
<!-- Relation&#45;&gt;Transitive Relation -->
<g id="edge44" class="edge">
<title>Relation&#45;&gt;Transitive Relation</title>
<path fill="none" stroke="#ffffff" d="M309.56,-150.12C309.39,-150.13 309.23,-150.13 309.07,-150.13"/>
<polygon fill="#ffffff" stroke="#ffffff" points="306.75,-153.66 316.7,-150.02 306.65,-146.67 306.75,-153.66"/>
</g>
<!-- Relation&#45;&gt;Strongly Anti&#45;symmetric Relation -->
<g id="edge47" class="edge">
<title>Relation&#45;&gt;Strongly Anti&#45;symmetric Relation</title>
<path fill="none" stroke="#ffffff" d="M388.54,-142.09C388.71,-142.06 388.88,-142.03 389.04,-142"/>
<polygon fill="#ffffff" stroke="#ffffff" points="390.53,-138.18 381.31,-143.39 391.77,-145.07 390.53,-138.18"/>
</g>
<!-- Relation&#45;&gt;Reflexive Relation -->
<g id="edge45" class="edge">
<title>Relation&#45;&gt;Reflexive Relation</title>
<path fill="none" stroke="#ffffff" d="M391.56,-148.5C458.64,-147.52 584.15,-144.91 592,-139 600.98,-132.24 592.48,-123.36 600,-115 625.15,-87.06 641.77,-93.1 677,-80 682.6,-77.92 688.48,-75.9 694.4,-73.99"/>
<polygon fill="#ffffff" stroke="#ffffff" points="391.27,-145 381.32,-148.64 391.37,-152 391.27,-145"/>
</g>
<!-- Relation&#45;&gt;Relations -->
<g id="edge41" class="edge">
<title>Relation&#45;&gt;Relations</title>
<path fill="none" stroke="#ffffff" d="M391.26,-150.95C439.66,-152.52 522.17,-152.93 592,-142 594.52,-141.61 597.1,-141.1 599.69,-140.53"/>
<polygon fill="#ffffff" stroke="#ffffff" points="391.29,-147.45 381.17,-150.59 391.04,-154.45 391.29,-147.45"/>
</g>
<!-- Relation&#45;&gt;Anti&#45;symmetric Relation -->
<g id="edge34" class="edge">
<title>Relation&#45;&gt;Anti&#45;symmetric Relation</title>
<path fill="none" stroke="#ffffff" d="M351.26,-177.34C354.06,-205.35 362.71,-247.47 389,-272 467.23,-344.99 595.41,-360.45 676.66,-362.22"/>
<polygon fill="#ffffff" stroke="#ffffff" points="354.75,-177.05 350.45,-167.36 347.77,-177.61 354.75,-177.05"/>
</g>
<!-- Relation&#45;&gt;Relation of Equivalence -->
<g id="edge38" class="edge">
<title>Relation&#45;&gt;Relation of Equivalence</title>
<path fill="none" stroke="#ffffff" d="M360.67,-176.66C367.48,-195.4 375.96,-220.87 381,-244 384.33,-259.3 378.5,-302.38 389,-314 432.87,-362.53 611.88,-368.72 677,-375 710.62,-378.24 798.38,-389.25 829,-375 835.1,-372.16 890.83,-303.69 917.89,-270.16"/>
<polygon fill="#ffffff" stroke="#ffffff" points="363.94,-175.42 357.18,-167.26 357.38,-177.86 363.94,-175.42"/>
</g>
<!-- Relation&#45;&gt;Reflexive Closure -->
<g id="edge36" class="edge">
<title>Relation&#45;&gt;Reflexive Closure</title>
<path fill="none" stroke="#ffffff" d="M368.74,-122.75C374.53,-116.34 381.41,-110.15 389,-106 444.36,-75.74 618.27,-96.51 669,-59 675.39,-54.27 670.24,-47.18 677,-43 705.73,-25.24 795.46,-39.01 829,-43 844.69,-44.87 861.45,-48.28 876.81,-51.99"/>
<polygon fill="#ffffff" stroke="#ffffff" points="365.71,-120.91 362,-130.84 371.09,-125.39 365.71,-120.91"/>
</g>
<!-- Descartes Product -->
<g id="node14" class="node">
<title>Descartes Product</title>
<g id="a_node14"><a xlink:href="/Knowledge/Descartes Product.html" xlink:title="Descartes Product" target="_parent">
<path fill="#273434" stroke="#b75867" d="M538,-271C538,-271 443,-271 443,-271 437,-271 431,-265 431,-259 431,-259 431,-247 431,-247 431,-241 437,-235 443,-235 443,-235 538,-235 538,-235 544,-235 550,-241 550,-247 550,-247 550,-259 550,-259 550,-265 544,-271 538,-271"/>
<text text-anchor="middle" x="490.5" y="-249.9" font-family="sans" font-size="12.00" fill="#c4c7c7">Descartes Product</text>
</a>
</g>
</g>
<!-- Relation&#45;&gt;Descartes Product -->
<g id="edge33" class="edge">
<title>Relation&#45;&gt;Descartes Product</title>
<path fill="none" stroke="#b75867" d="M353.73,-167.28C358.57,-186.15 368.88,-215.02 389,-231 398.29,-238.38 409.52,-243.41 421.06,-246.81"/>
<polygon fill="#b75867" stroke="#b75867" points="420.24,-250.21 430.79,-249.3 421.98,-243.43 420.24,-250.21"/>
</g>
<!-- Chain -->
<g id="node15" class="node">
<title>Chain</title>
<g id="a_node15"><a xlink:href="/Knowledge/Chain.html" xlink:title="Chain" target="_parent">
<path fill="none" stroke="#b75867" d="M768,-341C768,-341 738,-341 738,-341 732,-341 726,-335 726,-329 726,-329 726,-317 726,-317 726,-311 732,-305 738,-305 738,-305 768,-305 768,-305 774,-305 780,-311 780,-317 780,-317 780,-329 780,-329 780,-335 774,-341 768,-341"/>
<text text-anchor="middle" x="753" y="-319.9" font-family="sans" font-size="12.00" fill="#c4c7c7">Chain</text>
</a>
</g>
</g>
<!-- Relation&#45;&gt;Chain -->
<g id="edge35" class="edge">
<title>Relation&#45;&gt;Chain</title>
<path fill="none" stroke="#ffffff" d="M356.18,-177.18C361.65,-194.92 371.58,-216.57 389,-228 407.88,-240.39 570.74,-230.39 592,-238 636.28,-253.84 634.9,-280.06 677,-301 692.43,-308.68 711.01,-314.15 725.81,-317.72"/>
<polygon fill="#ffffff" stroke="#ffffff" points="359.48,-176 353.45,-167.29 352.74,-177.86 359.48,-176"/>
</g>
<!-- Symmetric Closure -->
<g id="node16" class="node">
<title>Symmetric Closure</title>
<g id="a_node16"><a xlink:href="/Knowledge/Symmetric Closure.html" xlink:title="Symmetric Closure" target="_parent">
<path fill="none" stroke="#b75867" d="M802.5,-193C802.5,-193 703.5,-193 703.5,-193 697.5,-193 691.5,-187 691.5,-181 691.5,-181 691.5,-169 691.5,-169 691.5,-163 697.5,-157 703.5,-157 703.5,-157 802.5,-157 802.5,-157 808.5,-157 814.5,-163 814.5,-169 814.5,-169 814.5,-181 814.5,-181 814.5,-187 808.5,-193 802.5,-193"/>
<text text-anchor="middle" x="753" y="-171.9" font-family="sans" font-size="12.00" fill="#c4c7c7">Symmetric Closure</text>
</a>
</g>
</g>
<!-- Relation&#45;&gt;Symmetric Closure -->
<g id="edge37" class="edge">
<title>Relation&#45;&gt;Symmetric Closure</title>
<path fill="none" stroke="#ffffff" d="M391.42,-146.92C452.47,-144.5 570.06,-142.3 669,-155 676.2,-155.92 683.69,-157.23 691.09,-158.73"/>
<polygon fill="#ffffff" stroke="#ffffff" points="391.25,-143.42 381.41,-147.34 391.55,-150.42 391.25,-143.42"/>
</g>
<!-- Symmetric Relation -->
<g id="node17" class="node">
<title>Symmetric Relation</title>
<g id="a_node17"><a xlink:href="/Knowledge/Symmetric Relation.html" xlink:title="Symmetric Relation" target="_parent">
<path fill="none" stroke="#b75867" d="M805,-304C805,-304 701,-304 701,-304 695,-304 689,-298 689,-292 689,-292 689,-280 689,-280 689,-274 695,-268 701,-268 701,-268 805,-268 805,-268 811,-268 817,-274 817,-280 817,-280 817,-292 817,-292 817,-298 811,-304 805,-304"/>
<text text-anchor="middle" x="753" y="-282.9" font-family="sans" font-size="12.00" fill="#c4c7c7">Symmetric Relation</text>
</a>
</g>
</g>
<!-- Relation&#45;&gt;Symmetric Relation -->
<g id="edge39" class="edge">
<title>Relation&#45;&gt;Symmetric Relation</title>
<path fill="none" stroke="#ffffff" d="M370.08,-174.6C375.6,-179.95 382.02,-184.9 389,-188 430.29,-206.31 548.05,-187.59 592,-198 628.4,-206.62 644.9,-203.39 669,-232 678.44,-243.21 666.85,-253.43 677,-264 680.48,-267.62 684.52,-270.65 688.88,-273.2"/>
<polygon fill="#ffffff" stroke="#ffffff" points="372.52,-172.09 363.12,-167.19 367.42,-176.88 372.52,-172.09"/>
</g>
<!-- Partial function -->
<g id="node18" class="node">
<title>Partial function</title>
<g id="a_node18"><a xlink:href="/Knowledge/Partial function.html" xlink:title="Partial function" target="_parent">
<path fill="none" stroke="#b75867" d="M530,-231C530,-231 451,-231 451,-231 445,-231 439,-225 439,-219 439,-219 439,-207 439,-207 439,-201 445,-195 451,-195 451,-195 530,-195 530,-195 536,-195 542,-201 542,-207 542,-207 542,-219 542,-219 542,-225 536,-231 530,-231"/>
<text text-anchor="middle" x="490.5" y="-209.9" font-family="sans" font-size="12.00" fill="#c4c7c7">Partial function</text>
</a>
</g>
</g>
<!-- Relation&#45;&gt;Partial function -->
<g id="edge40" class="edge">
<title>Relation&#45;&gt;Partial function</title>
<path fill="none" stroke="#ffffff" d="M369.54,-175.01C375.21,-181.05 381.83,-186.91 389,-191 404.04,-199.59 422.12,-204.83 438.76,-208.03"/>
<polygon fill="#ffffff" stroke="#ffffff" points="372.1,-172.62 362.89,-167.38 366.82,-177.22 372.1,-172.62"/>
</g>
<!-- Total function -->
<g id="node19" class="node">
<title>Total function</title>
<g id="a_node19"><a xlink:href="/Knowledge/Total function.html" xlink:title="Total function" target="_parent">
<path fill="none" stroke="#b75867" d="M526,-191C526,-191 455,-191 455,-191 449,-191 443,-185 443,-179 443,-179 443,-167 443,-167 443,-161 449,-155 455,-155 455,-155 526,-155 526,-155 532,-155 538,-161 538,-167 538,-167 538,-179 538,-179 538,-185 532,-191 526,-191"/>
<text text-anchor="middle" x="490.5" y="-169.9" font-family="sans" font-size="12.00" fill="#c4c7c7">Total function</text>
</a>
</g>
</g>
<!-- Relation&#45;&gt;Total function -->
<g id="edge43" class="edge">
<title>Relation&#45;&gt;Total function</title>
<path fill="none" stroke="#ffffff" d="M391.54,-156.15C407.71,-158.93 426.31,-162.13 442.93,-164.99"/>
<polygon fill="#ffffff" stroke="#ffffff" points="391.76,-152.63 381.31,-154.39 390.57,-159.53 391.76,-152.63"/>
</g>
<!-- Anti&#45;reflexive relation -->
<g id="node20" class="node">
<title>Anti&#45;reflexive relation</title>
<g id="a_node20"><a xlink:href="/Knowledge/Anti-reflexive relation.html" xlink:title="Anti&#45;reflexive relation" target="_parent">
<path fill="none" stroke="#b75867" d="M810,-230C810,-230 696,-230 696,-230 690,-230 684,-224 684,-218 684,-218 684,-206 684,-206 684,-200 690,-194 696,-194 696,-194 810,-194 810,-194 816,-194 822,-200 822,-206 822,-206 822,-218 822,-218 822,-224 816,-230 810,-230"/>
<text text-anchor="middle" x="753" y="-208.9" font-family="sans" font-size="12.00" fill="#c4c7c7">Anti&#45;reflexive relation</text>
</a>
</g>
</g>
<!-- Relation&#45;&gt;Anti&#45;reflexive relation -->
<g id="edge46" class="edge">
<title>Relation&#45;&gt;Anti&#45;reflexive relation</title>
<path fill="none" stroke="#ffffff" d="M391.34,-148.93C450.12,-149.11 554.87,-150.53 592,-158 631.57,-165.96 638.72,-177.2 677,-190 680.99,-191.33 685.11,-192.67 689.28,-193.98"/>
<polygon fill="#ffffff" stroke="#ffffff" points="391.28,-145.43 381.27,-148.91 391.26,-152.43 391.28,-145.43"/>
</g>
<!-- Linear extension&#45;&gt;Linear order -->
<g id="edge49" class="edge">
<title>Linear extension&#45;&gt;Linear order</title>
<path fill="none" stroke="#b75867" d="M697.95,-25.01C645.32,-30.79 563.03,-38 491.5,-38 247.5,-38 247.5,-38 247.5,-38 178.15,-38 157.28,-37.63 94,-66 86.37,-69.42 78.87,-74.24 72.09,-79.31"/>
<polygon fill="#b75867" stroke="#b75867" points="69.6,-76.82 63.93,-85.77 73.95,-82.3 69.6,-76.82"/>
</g>
<!-- Linear extension&#45;&gt;Partial order -->
<g id="edge50" class="edge">
<title>Linear extension&#45;&gt;Partial order</title>
<path fill="none" stroke="#b75867" d="M697.79,-33.43C688.25,-35.59 678.38,-37.56 669,-39 457.21,-71.55 391,-3.39 188,-72 181.86,-74.08 175.74,-77.1 170,-80.47"/>
<polygon fill="#b75867" stroke="#b75867" points="167.91,-77.65 161.35,-85.96 171.67,-83.56 167.91,-77.65"/>
</g>
<!-- Linear extension&#45;&gt;Relations -->
<g id="edge51" class="edge">
<title>Linear extension&#45;&gt;Relations</title>
<path fill="none" stroke="#ffffff" d="M688.42,-32.98C684.32,-35.27 680.45,-37.92 677,-41 670.17,-47.1 672.73,-51.63 669,-60 661.06,-77.8 651.54,-97.87 644.68,-111.94"/>
<polygon fill="#ffffff" stroke="#ffffff" points="690.2,-36.01 697.72,-28.55 687.19,-29.69 690.2,-36.01"/>
</g>
<!-- Relations&#45;&gt;Linear order -->
<g id="edge54" class="edge">
<title>Relations&#45;&gt;Linear order</title>
<path fill="none" stroke="#b75867" d="M619.55,-111.64C612.36,-103.42 602.82,-94.58 592,-90 542.46,-69.05 403.79,-85 350,-85 247.5,-85 247.5,-85 247.5,-85 182.44,-85 163.15,-79.54 96.32,-89.89"/>
<polygon fill="#b75867" stroke="#b75867" points="95.42,-86.49 86.1,-91.53 96.53,-93.4 95.42,-86.49"/>
</g>
<!-- Relations&#45;&gt;Partial order -->
<g id="edge55" class="edge">
<title>Relations&#45;&gt;Partial order</title>
<path fill="none" stroke="#b75867" d="M599.55,-112.31C597.04,-111.4 594.51,-110.61 592,-110 449.99,-75.29 275.47,-88.25 190.07,-97.64"/>
<polygon fill="#b75867" stroke="#b75867" points="189.65,-94.17 180.1,-98.77 190.43,-101.12 189.65,-94.17"/>
</g>
<!-- Relations&#45;&gt;Transitive Relation -->
<g id="edge64" class="edge">
<title>Relations&#45;&gt;Transitive Relation</title>
<path fill="none" stroke="#b75867" d="M634.26,-148.21C634.48,-179.01 629.95,-240.79 592,-269 519.6,-322.83 473.72,-300.03 389,-269 338.63,-250.55 293.94,-204.99 269.4,-175.89"/>
<polygon fill="#b75867" stroke="#b75867" points="272.08,-173.65 263.02,-168.16 266.68,-178.1 272.08,-173.65"/>
</g>
<!-- Relations&#45;&gt;Strongly Anti&#45;symmetric Relation -->
<g id="edge65" class="edge">
<title>Relations&#45;&gt;Strongly Anti&#45;symmetric Relation</title>
<path fill="none" stroke="#b75867" d="M599.75,-129.22C599.6,-129.22 599.44,-129.21 599.28,-129.21"/>
<polygon fill="#b75867" stroke="#b75867" points="602.17,-125.81 592.05,-128.94 601.91,-132.81 602.17,-125.81"/>
</g>
<!-- Relations&#45;&gt;Reflexive Relation -->
<g id="edge69" class="edge">
<title>Relations&#45;&gt;Reflexive Relation</title>
<path fill="none" stroke="#b75867" d="M665.73,-111.86C666.91,-110.63 668.01,-109.35 669,-108 676.67,-97.57 667.88,-89.18 677,-80 679.64,-77.34 682.59,-75 685.74,-72.94"/>
<polygon fill="#b75867" stroke="#b75867" points="687.43,-76 694.5,-68.11 684.05,-69.87 687.43,-76"/>
</g>
<!-- Relations&#45;&gt;Relation -->
<g id="edge70" class="edge">
<title>Relations&#45;&gt;Relation</title>
<path fill="none" stroke="#b75867" d="M599.69,-141.53C597.1,-142.1 594.52,-142.61 592,-143 522.17,-153.93 439.66,-153.52 391.26,-151.67"/>
<polygon fill="#b75867" stroke="#b75867" points="391.31,-148.17 381.17,-151.24 391.02,-155.16 391.31,-148.17"/>
</g>
<!-- Relations&#45;&gt;Linear extension -->
<g id="edge53" class="edge">
<title>Relations&#45;&gt;Linear extension</title>
<path fill="none" stroke="#b75867" d="M644.39,-111.71C651.27,-97.43 660.95,-77.05 669,-59 672.73,-50.63 670.17,-46.1 677,-40 680.45,-36.92 684.32,-34.27 688.42,-31.99"/>
<polygon fill="#b75867" stroke="#b75867" points="690.2,-35.02 697.72,-27.56 687.19,-28.69 690.2,-35.02"/>
</g>
<!-- Relations&#45;&gt;Anti&#45;symmetric Relation -->
<g id="edge66" class="edge">
<title>Relations&#45;&gt;Anti&#45;symmetric Relation</title>
<path fill="none" stroke="#b75867" d="M638.59,-148.09C646.04,-191.43 665.06,-299.82 676.73,-332.92"/>
<polygon fill="#b75867" stroke="#b75867" points="673.59,-334.46 681.09,-341.95 679.89,-331.42 673.59,-334.46"/>
</g>
<!-- Relations&#45;&gt;Relation of Equivalence -->
<g id="edge57" class="edge">
<title>Relations&#45;&gt;Relation of Equivalence</title>
<path fill="none" stroke="#b75867" d="M669.07,-147.47C671.71,-148.45 674.37,-149.31 677,-150 709.74,-158.62 797.77,-146.94 829,-160 862.98,-174.21 893.35,-204.36 912.27,-226.28"/>
<polygon fill="#b75867" stroke="#b75867" points="909.59,-228.53 918.7,-233.94 914.95,-224.03 909.59,-228.53"/>
</g>
<!-- Relations&#45;&gt;Transitive Closure -->
<g id="edge58" class="edge">
<title>Relations&#45;&gt;Transitive Closure</title>
<path fill="none" stroke="#b75867" d="M646.98,-148.1C654.18,-160.15 663.18,-176.54 669,-192 674.62,-206.93 666.06,-215.38 677,-227 679.75,-229.92 682.86,-232.46 686.21,-234.66"/>
<polygon fill="#b75867" stroke="#b75867" points="684.54,-237.73 694.98,-239.49 687.91,-231.6 684.54,-237.73"/>
</g>
<!-- Relations&#45;&gt;Transitive Closure -->
<g id="edge62" class="edge">
<title>Relations&#45;&gt;Transitive Closure</title>
<path fill="none" stroke="#b75867" d="M646.5,-148.15C653.78,-160.42 663.05,-177.2 669,-193 674.62,-207.93 666.06,-216.38 677,-228 679.75,-230.92 682.86,-233.46 686.21,-235.66"/>
<polygon fill="#b75867" stroke="#b75867" points="684.53,-238.73 694.98,-240.48 687.91,-232.6 684.53,-238.73"/>
</g>
<!-- Relations&#45;&gt;Reflexive Closure -->
<g id="edge60" class="edge">
<title>Relations&#45;&gt;Reflexive Closure</title>
<path fill="none" stroke="#b75867" d="M665.68,-111.82C666.87,-110.6 667.99,-109.33 669,-108 676.06,-98.71 667.78,-90.15 677,-83 678.87,-81.55 791.56,-75.38 866.64,-71.42"/>
<polygon fill="#b75867" stroke="#b75867" points="867.17,-74.89 876.97,-70.87 866.8,-67.9 867.17,-74.89"/>
</g>
<!-- Relations&#45;&gt;Reflexive Closure -->
<g id="edge63" class="edge">
<title>Relations&#45;&gt;Reflexive Closure</title>
<path fill="none" stroke="#b75867" d="M666.56,-111.9C667.43,-110.96 668.24,-110 669,-109 676.06,-99.71 667.78,-91.15 677,-84 678.87,-82.55 791.56,-76.38 866.64,-72.12"/>
<polygon fill="#b75867" stroke="#b75867" points="867.18,-75.6 876.97,-71.54 866.79,-68.61 867.18,-75.6"/>
</g>
<!-- Relations&#45;&gt;Chain -->
<g id="edge52" class="edge">
<title>Relations&#45;&gt;Chain</title>
<path fill="none" stroke="#b75867" d="M642.69,-148.12C650.39,-168.27 662.4,-201.96 669,-232 672.31,-247.08 667.05,-289.2 677,-301 686.57,-312.35 701.67,-318.02 715.81,-320.79"/>
<polygon fill="#b75867" stroke="#b75867" points="715.44,-324.27 725.85,-322.33 716.5,-317.35 715.44,-324.27"/>
</g>
<!-- Relations&#45;&gt;Symmetric Closure -->
<g id="edge59" class="edge">
<title>Relations&#45;&gt;Symmetric Closure</title>
<path fill="none" stroke="#b75867" d="M666.4,-148.09C669.92,-149.86 673.5,-151.54 677,-153 678.59,-153.67 680.21,-154.32 681.85,-154.96"/>
<polygon fill="#b75867" stroke="#b75867" points="680.83,-158.31 691.42,-158.49 683.25,-151.75 680.83,-158.31"/>
</g>
<!-- Relations&#45;&gt;Symmetric Closure -->
<g id="edge61" class="edge">
<title>Relations&#45;&gt;Symmetric Closure</title>
<path fill="none" stroke="#b75867" d="M664.57,-148.15C668.68,-150.27 672.9,-152.29 677,-154 678.59,-154.67 680.21,-155.32 681.85,-155.96"/>
<polygon fill="#b75867" stroke="#b75867" points="680.82,-159.31 691.42,-159.49 683.25,-152.74 680.82,-159.31"/>
</g>
<!-- Relations&#45;&gt;Symmetric Relation -->
<g id="edge67" class="edge">
<title>Relations&#45;&gt;Symmetric Relation</title>
<path fill="none" stroke="#b75867" d="M647.74,-148.16C655.16,-160.1 664.11,-176.35 669,-192 673.8,-207.37 666.65,-251.67 677,-264 678.14,-265.36 679.36,-266.63 680.64,-267.83"/>
<polygon fill="#b75867" stroke="#b75867" points="678.59,-270.67 688.68,-273.9 682.81,-265.08 678.59,-270.67"/>
</g>
<!-- Relations&#45;&gt;Anti&#45;reflexive relation -->
<g id="edge68" class="edge">
<title>Relations&#45;&gt;Anti&#45;reflexive relation</title>
<path fill="none" stroke="#b75867" d="M665.85,-148.06C667,-149.31 668.06,-150.62 669,-152 677.28,-164.14 668.76,-173.97 677.59,-188.27"/>
<polygon fill="#b75867" stroke="#b75867" points="674.98,-190.6 683.97,-196.19 680.43,-186.21 674.98,-190.6"/>
</g>
<!-- Class of equivalence -->
<g id="node21" class="node">
<title>Class of equivalence</title>
<g id="a_node21"><a xlink:href="/Knowledge/Class of equivalence.html" xlink:title="Class of equivalence" target="_parent">
<path fill="#273434" stroke="#b75867" d="M806.5,-153C806.5,-153 699.5,-153 699.5,-153 693.5,-153 687.5,-147 687.5,-141 687.5,-141 687.5,-129 687.5,-129 687.5,-123 693.5,-117 699.5,-117 699.5,-117 806.5,-117 806.5,-117 812.5,-117 818.5,-123 818.5,-129 818.5,-129 818.5,-141 818.5,-141 818.5,-147 812.5,-153 806.5,-153"/>
<text text-anchor="middle" x="753" y="-131.9" font-family="sans" font-size="12.00" fill="#c4c7c7">Class of equivalence</text>
</a>
</g>
</g>
<!-- Relations&#45;&gt;Class of equivalence -->
<g id="edge56" class="edge">
<title>Relations&#45;&gt;Class of equivalence</title>
<path fill="none" stroke="#b75867" d="M669.2,-131.45C671.82,-131.56 674.52,-131.67 677.27,-131.79"/>
<polygon fill="#b75867" stroke="#b75867" points="677.28,-135.3 687.42,-132.23 677.58,-128.3 677.28,-135.3"/>
</g>
<!-- Discrete Structures -->
<g id="node22" class="node">
<title>Discrete Structures</title>
<g id="a_node22"><a xlink:href="/Knowledge/Discrete Structures.html" xlink:title="Discrete Structures" target="_parent">
<path fill="none" stroke="#b75867" d="M802,-116C802,-116 704,-116 704,-116 698,-116 692,-110 692,-104 692,-104 692,-92 692,-92 692,-86 698,-80 704,-80 704,-80 802,-80 802,-80 808,-80 814,-86 814,-92 814,-92 814,-104 814,-104 814,-110 808,-116 802,-116"/>
<text text-anchor="middle" x="753" y="-94.9" font-family="sans" font-size="12.00" fill="#c4c7c7">Discrete Structures</text>
</a>
</g>
</g>
<!-- Relations&#45;&gt;Discrete Structures -->
<g id="edge71" class="edge">
<title>Relations&#45;&gt;Discrete Structures</title>
<path fill="none" stroke="#ffffff" d="M678.84,-118.09C683.09,-116.93 687.44,-115.73 691.81,-114.53"/>
<polygon fill="#ffffff" stroke="#ffffff" points="677.91,-114.72 669.2,-120.74 679.77,-121.47 677.91,-114.72"/>
</g>
</g>
</svg>
