<?xml version="1.0" encoding="UTF-8" standalone="no"?>
<!DOCTYPE svg PUBLIC "-//W3C//DTD SVG 1.1//EN"
 "http://www.w3.org/Graphics/SVG/1.1/DTD/svg11.dtd">
<!-- Generated by graphviz version 2.44.0 (0)
 -->
<!-- Title: Logic Programming Pages: 1 -->
<svg width="509pt" height="636pt"
 viewBox="0.00 0.00 509.00 636.00" xmlns="http://www.w3.org/2000/svg" xmlns:xlink="http://www.w3.org/1999/xlink">
<g id="graph0" class="graph" transform="scale(1 1) rotate(0) translate(4 632)">
<title>Logic Programming</title>
<polygon fill="#132020" stroke="transparent" points="-4,4 -4,-632 505,-632 505,4 -4,4"/>
<!-- Logic Programming -->
<g id="node1" class="node">
<title>Logic Programming</title>
<g id="a_node1"><a xlink:href="/Knowledge/Logic Programming.html" xlink:title="Logic Programming" target="_parent">
<path fill="#273434" stroke="#b75867" d="M114,-313C114,-313 12,-313 12,-313 6,-313 0,-307 0,-301 0,-301 0,-289 0,-289 0,-283 6,-277 12,-277 12,-277 114,-277 114,-277 120,-277 126,-283 126,-289 126,-289 126,-301 126,-301 126,-307 120,-313 114,-313"/>
<text text-anchor="middle" x="63" y="-291.9" font-family="sans" font-size="12.00" fill="#c4c7c7">Logic Programming</text>
</a>
</g>
</g>
<!-- Knowledege Base -->
<g id="node2" class="node">
<title>Knowledege Base</title>
<g id="a_node2"><a xlink:href="/Knowledge/Knowledege Base.html" xlink:title="Knowledege Base" target="_parent">
<path fill="none" stroke="#b75867" d="M239,-313C239,-313 146,-313 146,-313 140,-313 134,-307 134,-301 134,-301 134,-289 134,-289 134,-283 140,-277 146,-277 146,-277 239,-277 239,-277 245,-277 251,-283 251,-289 251,-289 251,-301 251,-301 251,-307 245,-313 239,-313"/>
<text text-anchor="middle" x="192.5" y="-291.9" font-family="sans" font-size="12.00" fill="#c4c7c7">Knowledege Base</text>
</a>
</g>
</g>
<!-- Logic Programming&#45;&gt;Knowledege Base -->
<g id="edge1" class="edge">
<title>Logic Programming&#45;&gt;Knowledege Base</title>
<path fill="none" stroke="#ffffff" d="M133.36,-295C133.52,-295 133.68,-295 133.84,-295"/>
<polygon fill="#ffffff" stroke="#ffffff" points="136.26,-291.5 126.26,-295 136.26,-298.5 136.26,-291.5"/>
</g>
<!-- Knowledege Base&#45;&gt;Logic Programming -->
<g id="edge5" class="edge">
<title>Knowledege Base&#45;&gt;Logic Programming</title>
<path fill="none" stroke="#b75867" d="M133.84,-295.75C133.68,-295.75 133.52,-295.75 133.36,-295.75"/>
<polygon fill="#b75867" stroke="#b75867" points="136.25,-292.25 126.26,-295.75 136.26,-299.25 136.25,-292.25"/>
</g>
<!-- Computer Architectures -->
<g id="node3" class="node">
<title>Computer Architectures</title>
<g id="a_node3"><a xlink:href="/Knowledge/Computer Architectures.html" xlink:title="Computer Architectures" target="_parent">
<path fill="#273434" stroke="#b75867" d="M443.5,-628C443.5,-628 316.5,-628 316.5,-628 310.5,-628 304.5,-622 304.5,-616 304.5,-616 304.5,-604 304.5,-604 304.5,-598 310.5,-592 316.5,-592 316.5,-592 443.5,-592 443.5,-592 449.5,-592 455.5,-598 455.5,-604 455.5,-604 455.5,-616 455.5,-616 455.5,-622 449.5,-628 443.5,-628"/>
<text text-anchor="middle" x="380" y="-606.9" font-family="sans" font-size="12.00" fill="#c4c7c7">Computer Architectures</text>
</a>
</g>
</g>
<!-- Knowledege Base&#45;&gt;Computer Architectures -->
<g id="edge2" class="edge">
<title>Knowledege Base&#45;&gt;Computer Architectures</title>
<path fill="none" stroke="#b75867" d="M195,-313.36C200.13,-371.4 218.9,-549.42 259,-588 268.89,-597.51 281.45,-603.62 294.71,-607.44"/>
<polygon fill="#b75867" stroke="#b75867" points="293.91,-610.84 304.46,-609.83 295.58,-604.04 293.91,-610.84"/>
</g>
<!-- Numeric Methods -->
<g id="node4" class="node">
<title>Numeric Methods</title>
<g id="a_node4"><a xlink:href="/Knowledge/Numeric Methods.html" xlink:title="Numeric Methods" target="_parent">
<path fill="#273434" stroke="#b75867" d="M426,-591C426,-591 334,-591 334,-591 328,-591 322,-585 322,-579 322,-579 322,-567 322,-567 322,-561 328,-555 334,-555 334,-555 426,-555 426,-555 432,-555 438,-561 438,-567 438,-567 438,-579 438,-579 438,-585 432,-591 426,-591"/>
<text text-anchor="middle" x="380" y="-569.9" font-family="sans" font-size="12.00" fill="#c4c7c7">Numeric Methods</text>
</a>
</g>
</g>
<!-- Knowledege Base&#45;&gt;Numeric Methods -->
<g id="edge3" class="edge">
<title>Knowledege Base&#45;&gt;Numeric Methods</title>
<path fill="none" stroke="#b75867" d="M195.63,-313.26C202.17,-366.2 223.7,-518.06 259,-551 273.24,-564.29 292.74,-570.87 311.88,-573.85"/>
<polygon fill="#b75867" stroke="#b75867" points="311.46,-577.32 321.82,-575.09 312.33,-570.38 311.46,-577.32"/>
</g>
<!-- Design and Analysis of Algorithms -->
<g id="node5" class="node">
<title>Design and Analysis of Algorithms</title>
<g id="a_node5"><a xlink:href="/Knowledge/Design and Analysis of Algorithms.html" xlink:title="Design and Analysis of Algorithms" target="_parent">
<path fill="#273434" stroke="#b75867" d="M471,-554C471,-554 289,-554 289,-554 283,-554 277,-548 277,-542 277,-542 277,-530 277,-530 277,-524 283,-518 289,-518 289,-518 471,-518 471,-518 477,-518 483,-524 483,-530 483,-530 483,-542 483,-542 483,-548 477,-554 471,-554"/>
<text text-anchor="middle" x="380" y="-532.9" font-family="sans" font-size="12.00" fill="#c4c7c7">Design and Analysis of Algorithms</text>
</a>
</g>
</g>
<!-- Knowledege Base&#45;&gt;Design and Analysis of Algorithms -->
<g id="edge4" class="edge">
<title>Knowledege Base&#45;&gt;Design and Analysis of Algorithms</title>
<path fill="none" stroke="#b75867" d="M193.05,-313.29C193.07,-355.6 199.45,-460.63 259,-514 261.85,-516.55 264.89,-518.86 268.09,-520.93"/>
<polygon fill="#b75867" stroke="#b75867" points="266.46,-524.03 276.89,-525.9 269.9,-517.94 266.46,-524.03"/>
</g>
<!-- Data Structures -->
<g id="node6" class="node">
<title>Data Structures</title>
<g id="a_node6"><a xlink:href="/Knowledge/Data Structures.html" xlink:title="Data Structures" target="_parent">
<path fill="#273434" stroke="#b75867" d="M420,-517C420,-517 340,-517 340,-517 334,-517 328,-511 328,-505 328,-505 328,-493 328,-493 328,-487 334,-481 340,-481 340,-481 420,-481 420,-481 426,-481 432,-487 432,-493 432,-493 432,-505 432,-505 432,-511 426,-517 420,-517"/>
<text text-anchor="middle" x="380" y="-495.9" font-family="sans" font-size="12.00" fill="#c4c7c7">Data Structures</text>
</a>
</g>
</g>
<!-- Knowledege Base&#45;&gt;Data Structures -->
<g id="edge6" class="edge">
<title>Knowledege Base&#45;&gt;Data Structures</title>
<path fill="none" stroke="#b75867" d="M194.31,-313.01C197.01,-349.93 208.67,-434.32 259,-477 275.17,-490.71 297.05,-497.07 317.7,-499.72"/>
<polygon fill="#b75867" stroke="#b75867" points="317.4,-503.21 327.7,-500.74 318.11,-496.24 317.4,-503.21"/>
</g>
<!-- Languages, Automata and Computation -->
<g id="node7" class="node">
<title>Languages, Automata and Computation</title>
<g id="a_node7"><a xlink:href="/Knowledge/Languages, Automata and Computation.html" xlink:title="Languages, Automata and Computation" target="_parent">
<path fill="#273434" stroke="#b75867" d="M489,-480C489,-480 271,-480 271,-480 265,-480 259,-474 259,-468 259,-468 259,-456 259,-456 259,-450 265,-444 271,-444 271,-444 489,-444 489,-444 495,-444 501,-450 501,-456 501,-456 501,-468 501,-468 501,-474 495,-480 489,-480"/>
<text text-anchor="middle" x="380" y="-458.9" font-family="sans" font-size="12.00" fill="#c4c7c7">Languages, Automata and Computation</text>
</a>
</g>
</g>
<!-- Knowledege Base&#45;&gt;Languages, Automata and Computation -->
<g id="edge7" class="edge">
<title>Knowledege Base&#45;&gt;Languages, Automata and Computation</title>
<path fill="none" stroke="#b75867" d="M196.25,-313.48C201.61,-342.97 216.24,-400.7 256.59,-437.31"/>
<polygon fill="#b75867" stroke="#b75867" points="254.51,-440.14 264.42,-443.89 259.01,-434.78 254.51,-440.14"/>
</g>
<!-- Operations Research -->
<g id="node8" class="node">
<title>Operations Research</title>
<g id="a_node8"><a xlink:href="/Knowledge/Operations Research.html" xlink:title="Operations Research" target="_parent">
<path fill="#273434" stroke="#b75867" d="M434.5,-443C434.5,-443 325.5,-443 325.5,-443 319.5,-443 313.5,-437 313.5,-431 313.5,-431 313.5,-419 313.5,-419 313.5,-413 319.5,-407 325.5,-407 325.5,-407 434.5,-407 434.5,-407 440.5,-407 446.5,-413 446.5,-419 446.5,-419 446.5,-431 446.5,-431 446.5,-437 440.5,-443 434.5,-443"/>
<text text-anchor="middle" x="380" y="-421.9" font-family="sans" font-size="12.00" fill="#c4c7c7">Operations Research</text>
</a>
</g>
</g>
<!-- Knowledege Base&#45;&gt;Operations Research -->
<g id="edge8" class="edge">
<title>Knowledege Base&#45;&gt;Operations Research</title>
<path fill="none" stroke="#b75867" d="M199.23,-313.21C207.96,-337.78 227.04,-380.97 259,-403 272.02,-411.97 287.65,-417.58 303.26,-421.03"/>
<polygon fill="#b75867" stroke="#b75867" points="303.01,-424.54 313.49,-423 304.33,-417.67 303.01,-424.54"/>
</g>
<!-- Differential Equations -->
<g id="node9" class="node">
<title>Differential Equations</title>
<g id="a_node9"><a xlink:href="/Knowledge/Differential Equations.html" xlink:title="Differential Equations" target="_parent">
<path fill="#273434" stroke="#b75867" d="M437,-406C437,-406 323,-406 323,-406 317,-406 311,-400 311,-394 311,-394 311,-382 311,-382 311,-376 317,-370 323,-370 323,-370 437,-370 437,-370 443,-370 449,-376 449,-382 449,-382 449,-394 449,-394 449,-400 443,-406 437,-406"/>
<text text-anchor="middle" x="380" y="-384.9" font-family="sans" font-size="12.00" fill="#c4c7c7">Differential Equations</text>
</a>
</g>
</g>
<!-- Knowledege Base&#45;&gt;Differential Equations -->
<g id="edge9" class="edge">
<title>Knowledege Base&#45;&gt;Differential Equations</title>
<path fill="none" stroke="#b75867" d="M205.19,-313.26C216.77,-329.77 236.08,-353.38 259,-366 271.74,-373.02 286.27,-377.85 300.73,-381.17"/>
<polygon fill="#b75867" stroke="#b75867" points="300.2,-384.64 310.7,-383.24 301.62,-377.78 300.2,-384.64"/>
</g>
<!-- OOP -->
<g id="node10" class="node">
<title>OOP</title>
<g id="a_node10"><a xlink:href="/Knowledge/OOP.html" xlink:title="OOP" target="_parent">
<path fill="#273434" stroke="#b75867" d="M395,-369C395,-369 365,-369 365,-369 359,-369 353,-363 353,-357 353,-357 353,-345 353,-345 353,-339 359,-333 365,-333 365,-333 395,-333 395,-333 401,-333 407,-339 407,-345 407,-345 407,-357 407,-357 407,-363 401,-369 395,-369"/>
<text text-anchor="middle" x="380" y="-347.9" font-family="sans" font-size="12.00" fill="#c4c7c7">OOP</text>
</a>
</g>
</g>
<!-- Knowledege Base&#45;&gt;OOP -->
<g id="edge10" class="edge">
<title>Knowledege Base&#45;&gt;OOP</title>
<path fill="none" stroke="#b75867" d="M223.65,-313.04C234.49,-318.87 247,-324.89 259,-329 286.23,-338.33 318.36,-343.95 342.52,-347.18"/>
<polygon fill="#b75867" stroke="#b75867" points="342.32,-350.68 352.68,-348.45 343.2,-343.73 342.32,-350.68"/>
</g>
<!-- Discrete Structures -->
<g id="node11" class="node">
<title>Discrete Structures</title>
<g id="a_node11"><a xlink:href="/Knowledge/Discrete Structures.html" xlink:title="Discrete Structures" target="_parent">
<path fill="#273434" stroke="#b75867" d="M429,-332C429,-332 331,-332 331,-332 325,-332 319,-326 319,-320 319,-320 319,-308 319,-308 319,-302 325,-296 331,-296 331,-296 429,-296 429,-296 435,-296 441,-302 441,-308 441,-308 441,-320 441,-320 441,-326 435,-332 429,-332"/>
<text text-anchor="middle" x="380" y="-310.9" font-family="sans" font-size="12.00" fill="#c4c7c7">Discrete Structures</text>
</a>
</g>
</g>
<!-- Knowledege Base&#45;&gt;Discrete Structures -->
<g id="edge11" class="edge">
<title>Knowledege Base&#45;&gt;Discrete Structures</title>
<path fill="none" stroke="#b75867" d="M251.18,-300.91C269.39,-302.77 289.71,-304.85 308.7,-306.8"/>
<polygon fill="#b75867" stroke="#b75867" points="308.49,-310.3 318.79,-307.83 309.2,-303.33 308.49,-310.3"/>
</g>
<!-- Advanced Algebra -->
<g id="node12" class="node">
<title>Advanced Algebra</title>
<g id="a_node12"><a xlink:href="/Knowledge/Advanced Algebra.html" xlink:title="Advanced Algebra" target="_parent">
<path fill="#273434" stroke="#b75867" d="M427.5,-295C427.5,-295 332.5,-295 332.5,-295 326.5,-295 320.5,-289 320.5,-283 320.5,-283 320.5,-271 320.5,-271 320.5,-265 326.5,-259 332.5,-259 332.5,-259 427.5,-259 427.5,-259 433.5,-259 439.5,-265 439.5,-271 439.5,-271 439.5,-283 439.5,-283 439.5,-289 433.5,-295 427.5,-295"/>
<text text-anchor="middle" x="380" y="-273.9" font-family="sans" font-size="12.00" fill="#c4c7c7">Advanced Algebra</text>
</a>
</g>
</g>
<!-- Knowledege Base&#45;&gt;Advanced Algebra -->
<g id="edge12" class="edge">
<title>Knowledege Base&#45;&gt;Advanced Algebra</title>
<path fill="none" stroke="#b75867" d="M251.18,-289.4C269.92,-287.58 290.91,-285.55 310.38,-283.66"/>
<polygon fill="#b75867" stroke="#b75867" points="310.78,-287.14 320.4,-282.69 310.11,-280.17 310.78,-287.14"/>
</g>
<!-- Differential Analysis -->
<g id="node13" class="node">
<title>Differential Analysis</title>
<g id="a_node13"><a xlink:href="/Knowledge/Differential Analysis.html" xlink:title="Differential Analysis" target="_parent">
<path fill="#273434" stroke="#b75867" d="M431.5,-258C431.5,-258 328.5,-258 328.5,-258 322.5,-258 316.5,-252 316.5,-246 316.5,-246 316.5,-234 316.5,-234 316.5,-228 322.5,-222 328.5,-222 328.5,-222 431.5,-222 431.5,-222 437.5,-222 443.5,-228 443.5,-234 443.5,-234 443.5,-246 443.5,-246 443.5,-252 437.5,-258 431.5,-258"/>
<text text-anchor="middle" x="380" y="-236.9" font-family="sans" font-size="12.00" fill="#c4c7c7">Differential Analysis</text>
</a>
</g>
</g>
<!-- Knowledege Base&#45;&gt;Differential Analysis -->
<g id="edge13" class="edge">
<title>Knowledege Base&#45;&gt;Differential Analysis</title>
<path fill="none" stroke="#b75867" d="M225.03,-276.83C235.56,-271.39 247.53,-265.85 259,-262 273.99,-256.97 290.44,-253 306.22,-249.9"/>
<polygon fill="#b75867" stroke="#b75867" points="307.29,-253.26 316.48,-247.99 306.01,-246.38 307.29,-253.26"/>
</g>
<!-- Knowledege Base&#45;&gt;Differential Analysis -->
<g id="edge17" class="edge">
<title>Knowledege Base&#45;&gt;Differential Analysis</title>
<path fill="none" stroke="#b75867" d="M226.7,-276.93C236.82,-271.81 248.14,-266.65 259,-263 273.99,-257.97 290.44,-254 306.22,-250.88"/>
<polygon fill="#b75867" stroke="#b75867" points="307.3,-254.23 316.48,-248.94 306,-247.36 307.3,-254.23"/>
</g>
<!-- Introduction to programming -->
<g id="node14" class="node">
<title>Introduction to programming</title>
<g id="a_node14"><a xlink:href="/Knowledge/Introduction to programming.html" xlink:title="Introduction to programming" target="_parent">
<path fill="#273434" stroke="#b75867" d="M459.5,-221C459.5,-221 300.5,-221 300.5,-221 294.5,-221 288.5,-215 288.5,-209 288.5,-209 288.5,-197 288.5,-197 288.5,-191 294.5,-185 300.5,-185 300.5,-185 459.5,-185 459.5,-185 465.5,-185 471.5,-191 471.5,-197 471.5,-197 471.5,-209 471.5,-209 471.5,-215 465.5,-221 459.5,-221"/>
<text text-anchor="middle" x="380" y="-199.9" font-family="sans" font-size="12.00" fill="#c4c7c7">Introduction to programming</text>
</a>
</g>
</g>
<!-- Knowledege Base&#45;&gt;Introduction to programming -->
<g id="edge14" class="edge">
<title>Knowledege Base&#45;&gt;Introduction to programming</title>
<path fill="none" stroke="#b75867" d="M205.24,-277C216.88,-260.72 236.21,-237.45 259,-225 265.26,-221.58 271.95,-218.68 278.85,-216.22"/>
<polygon fill="#b75867" stroke="#b75867" points="279.94,-219.55 288.37,-213.13 277.78,-212.89 279.94,-219.55"/>
</g>
<!-- Analytic Geometry -->
<g id="node15" class="node">
<title>Analytic Geometry</title>
<g id="a_node15"><a xlink:href="/Knowledge/Analytic Geometry.html" xlink:title="Analytic Geometry" target="_parent">
<path fill="#273434" stroke="#b75867" d="M428.5,-184C428.5,-184 331.5,-184 331.5,-184 325.5,-184 319.5,-178 319.5,-172 319.5,-172 319.5,-160 319.5,-160 319.5,-154 325.5,-148 331.5,-148 331.5,-148 428.5,-148 428.5,-148 434.5,-148 440.5,-154 440.5,-160 440.5,-160 440.5,-172 440.5,-172 440.5,-178 434.5,-184 428.5,-184"/>
<text text-anchor="middle" x="380" y="-162.9" font-family="sans" font-size="12.00" fill="#c4c7c7">Analytic Geometry</text>
</a>
</g>
</g>
<!-- Knowledege Base&#45;&gt;Analytic Geometry -->
<g id="edge15" class="edge">
<title>Knowledege Base&#45;&gt;Analytic Geometry</title>
<path fill="none" stroke="#b75867" d="M199.28,-276.95C208.07,-252.61 227.21,-209.81 259,-188 273.67,-177.93 291.64,-172.1 309.16,-168.81"/>
<polygon fill="#b75867" stroke="#b75867" points="310.08,-172.21 319.39,-167.16 308.96,-165.3 310.08,-172.21"/>
</g>
<!-- Linear Algebra -->
<g id="node16" class="node">
<title>Linear Algebra</title>
<g id="a_node16"><a xlink:href="/Knowledge/Linear Algebra.html" xlink:title="Linear Algebra" target="_parent">
<path fill="#273434" stroke="#b75867" d="M417,-147C417,-147 343,-147 343,-147 337,-147 331,-141 331,-135 331,-135 331,-123 331,-123 331,-117 337,-111 343,-111 343,-111 417,-111 417,-111 423,-111 429,-117 429,-123 429,-123 429,-135 429,-135 429,-141 423,-147 417,-147"/>
<text text-anchor="middle" x="380" y="-125.9" font-family="sans" font-size="12.00" fill="#c4c7c7">Linear Algebra</text>
</a>
</g>
</g>
<!-- Knowledege Base&#45;&gt;Linear Algebra -->
<g id="edge16" class="edge">
<title>Knowledege Base&#45;&gt;Linear Algebra</title>
<path fill="none" stroke="#b75867" d="M196.29,-276.64C202.05,-245.53 218.29,-182.76 259,-151 276.44,-137.39 299.63,-131.22 320.97,-128.69"/>
<polygon fill="#b75867" stroke="#b75867" points="321.31,-132.18 330.94,-127.75 320.65,-125.21 321.31,-132.18"/>
</g>
<!-- Org Roam -->
<g id="node17" class="node">
<title>Org Roam</title>
<g id="a_node17"><a xlink:href="/Knowledge/Org Roam.html" xlink:title="Org Roam" target="_parent">
<path fill="#273434" stroke="#b75867" d="M404,-110C404,-110 356,-110 356,-110 350,-110 344,-104 344,-98 344,-98 344,-86 344,-86 344,-80 350,-74 356,-74 356,-74 404,-74 404,-74 410,-74 416,-80 416,-86 416,-86 416,-98 416,-98 416,-104 410,-110 404,-110"/>
<text text-anchor="middle" x="380" y="-88.9" font-family="sans" font-size="12.00" fill="#c4c7c7">Org Roam</text>
</a>
</g>
</g>
<!-- Knowledege Base&#45;&gt;Org Roam -->
<g id="edge18" class="edge">
<title>Knowledege Base&#45;&gt;Org Roam</title>
<path fill="none" stroke="#b75867" d="M194.37,-276.81C197.17,-239.94 209.01,-156.32 259,-114 279.44,-96.7 308.96,-91.12 333.61,-89.91"/>
<polygon fill="#b75867" stroke="#b75867" points="333.93,-93.4 343.83,-89.63 333.74,-86.4 333.93,-93.4"/>
</g>
<!-- Org&#45;mode -->
<g id="node18" class="node">
<title>Org&#45;mode</title>
<g id="a_node18"><a xlink:href="/Knowledge/Org-mode.html" xlink:title="Org&#45;mode" target="_parent">
<path fill="#273434" stroke="#b75867" d="M405,-73C405,-73 355,-73 355,-73 349,-73 343,-67 343,-61 343,-61 343,-49 343,-49 343,-43 349,-37 355,-37 355,-37 405,-37 405,-37 411,-37 417,-43 417,-49 417,-49 417,-61 417,-61 417,-67 411,-73 405,-73"/>
<text text-anchor="middle" x="380" y="-51.9" font-family="sans" font-size="12.00" fill="#c4c7c7">Org&#45;mode</text>
</a>
</g>
</g>
<!-- Knowledege Base&#45;&gt;Org&#45;mode -->
<g id="edge19" class="edge">
<title>Knowledege Base&#45;&gt;Org&#45;mode</title>
<path fill="none" stroke="#b75867" d="M193.07,-276.79C193.16,-234.67 199.67,-130.11 259,-77 278.82,-59.26 308.06,-53.63 332.72,-52.5"/>
<polygon fill="#b75867" stroke="#b75867" points="333.05,-55.99 342.97,-52.27 332.89,-48.99 333.05,-55.99"/>
</g>
<!-- Projects -->
<g id="node19" class="node">
<title>Projects</title>
<g id="a_node19"><a xlink:href="/Knowledge/Projects.html" xlink:title="Projects" target="_parent">
<path fill="none" stroke="#b75867" d="M399,-36C399,-36 361,-36 361,-36 355,-36 349,-30 349,-24 349,-24 349,-12 349,-12 349,-6 355,0 361,0 361,0 399,0 399,0 405,0 411,-6 411,-12 411,-12 411,-24 411,-24 411,-30 405,-36 399,-36"/>
<text text-anchor="middle" x="380" y="-14.9" font-family="sans" font-size="12.00" fill="#c4c7c7">Projects</text>
</a>
</g>
</g>
<!-- Knowledege Base&#45;&gt;Projects -->
<g id="edge20" class="edge">
<title>Knowledege Base&#45;&gt;Projects</title>
<path fill="none" stroke="#ffffff" d="M196.95,-266.57C204.78,-206.75 225.87,-70.88 259,-40 283.01,-17.61 321.94,-14.27 348.92,-15.12"/>
<polygon fill="#ffffff" stroke="#ffffff" points="193.43,-266.44 195.64,-276.81 200.38,-267.33 193.43,-266.44"/>
</g>
</g>
</svg>
