<?xml version="1.0" encoding="UTF-8" standalone="no"?>
<!DOCTYPE svg PUBLIC "-//W3C//DTD SVG 1.1//EN"
 "http://www.w3.org/Graphics/SVG/1.1/DTD/svg11.dtd">
<!-- Generated by graphviz version 2.46.1 (0)
 -->
<!-- Title: Logic Programming Pages: 1 -->
<svg width="122pt" height="44pt"
 viewBox="0.00 0.00 122.00 44.00" xmlns="http://www.w3.org/2000/svg" xmlns:xlink="http://www.w3.org/1999/xlink">
<g id="graph0" class="graph" transform="scale(1 1) rotate(0) translate(4 40)">
<title>Logic Programming</title>
<polygon fill="#132020" stroke="transparent" points="-4,4 -4,-40 118,-40 118,4 -4,4"/>
<!-- Logic Programming -->
<g id="node1" class="node">
<title>Logic Programming</title>
<g id="a_node1"><a xlink:href="/Knowledge/logic_programming.html" xlink:title="Logic Programming" target="_parent">
<path fill="#273434" stroke="#b75867" d="M102,-36C102,-36 12,-36 12,-36 6,-36 0,-30 0,-24 0,-24 0,-12 0,-12 0,-6 6,0 12,0 12,0 102,0 102,0 108,0 114,-6 114,-12 114,-12 114,-24 114,-24 114,-30 108,-36 102,-36"/>
<text text-anchor="middle" x="57" y="-14.9" font-family="sans" font-size="12.00" fill="#c4c7c7">Logic Programming</text>
</a>
</g>
</g>
</g>
</svg>
