<?xml version="1.0" encoding="UTF-8" standalone="no"?>
<!DOCTYPE svg PUBLIC "-//W3C//DTD SVG 1.1//EN"
 "http://www.w3.org/Graphics/SVG/1.1/DTD/svg11.dtd">
<!-- Generated by graphviz version 2.46.1 (0)
 -->
<!-- Title: Matrix Pages: 1 -->
<svg width="374pt" height="414pt"
 viewBox="0.00 0.00 374.00 414.00" xmlns="http://www.w3.org/2000/svg" xmlns:xlink="http://www.w3.org/1999/xlink">
<g id="graph0" class="graph" transform="scale(1 1) rotate(0) translate(4 410)">
<title>Matrix</title>
<polygon fill="#132020" stroke="transparent" points="-4,4 -4,-410 370,-410 370,4 -4,4"/>
<!-- Matrix -->
<g id="node1" class="node">
<title>Matrix</title>
<g id="a_node1"><a xlink:href="/Knowledge/matrix.html" xlink:title="Matrix" target="_parent">
<path fill="#273434" stroke="#b75867" d="M42,-295C42,-295 12,-295 12,-295 6,-295 0,-289 0,-283 0,-283 0,-271 0,-271 0,-265 6,-259 12,-259 12,-259 42,-259 42,-259 48,-259 54,-265 54,-271 54,-271 54,-283 54,-283 54,-289 48,-295 42,-295"/>
<text text-anchor="middle" x="27" y="-273.9" font-family="sans" font-size="12.00" fill="#c4c7c7">Matrix</text>
</a>
</g>
</g>
<!-- Symmetric Closure -->
<g id="node2" class="node">
<title>Symmetric Closure</title>
<g id="a_node2"><a xlink:href="/Knowledge/symmetric_closure.html" xlink:title="Symmetric Closure" target="_parent">
<path fill="none" stroke="#b75867" d="M161,-295C161,-295 74,-295 74,-295 68,-295 62,-289 62,-283 62,-283 62,-271 62,-271 62,-265 68,-259 74,-259 74,-259 161,-259 161,-259 167,-259 173,-265 173,-271 173,-271 173,-283 173,-283 173,-289 167,-295 161,-295"/>
<text text-anchor="middle" x="117.5" y="-273.9" font-family="sans" font-size="12.00" fill="#c4c7c7">Symmetric Closure</text>
</a>
</g>
</g>
<!-- Matrix&#45;&gt;Symmetric Closure -->
<g id="edge1" class="edge">
<title>Matrix&#45;&gt;Symmetric Closure</title>
<path fill="none" stroke="#ffffff" d="M61.72,-277C61.8,-277 61.89,-277 61.97,-277"/>
<polygon fill="#ffffff" stroke="#ffffff" points="64.07,-273.5 54.07,-277 64.07,-280.5 64.07,-273.5"/>
</g>
<!-- Reflexive Closure -->
<g id="node3" class="node">
<title>Reflexive Closure</title>
<g id="a_node3"><a xlink:href="/Knowledge/reflexive_closure.html" xlink:title="Reflexive Closure" target="_parent">
<path fill="none" stroke="#b75867" d="M156.5,-332C156.5,-332 78.5,-332 78.5,-332 72.5,-332 66.5,-326 66.5,-320 66.5,-320 66.5,-308 66.5,-308 66.5,-302 72.5,-296 78.5,-296 78.5,-296 156.5,-296 156.5,-296 162.5,-296 168.5,-302 168.5,-308 168.5,-308 168.5,-320 168.5,-320 168.5,-326 162.5,-332 156.5,-332"/>
<text text-anchor="middle" x="117.5" y="-310.9" font-family="sans" font-size="12.00" fill="#c4c7c7">Reflexive Closure</text>
</a>
</g>
</g>
<!-- Matrix&#45;&gt;Reflexive Closure -->
<g id="edge2" class="edge">
<title>Matrix&#45;&gt;Reflexive Closure</title>
<path fill="none" stroke="#ffffff" d="M63.66,-292.68C67.51,-294.31 69.52,-295.15 71.54,-295.98"/>
<polygon fill="#ffffff" stroke="#ffffff" points="64.89,-289.4 54.32,-288.71 62.15,-295.85 64.89,-289.4"/>
</g>
<!-- Linear Algebra -->
<g id="node4" class="node">
<title>Linear Algebra</title>
<g id="a_node4"><a xlink:href="/Knowledge/linear_algebra.html" xlink:title="Linear Algebra" target="_parent">
<path fill="none" stroke="#b75867" d="M150,-166C150,-166 85,-166 85,-166 79,-166 73,-160 73,-154 73,-154 73,-142 73,-142 73,-136 79,-130 85,-130 85,-130 150,-130 150,-130 156,-130 162,-136 162,-142 162,-142 162,-154 162,-154 162,-160 156,-166 150,-166"/>
<text text-anchor="middle" x="117.5" y="-144.9" font-family="sans" font-size="12.00" fill="#c4c7c7">Linear Algebra</text>
</a>
</g>
</g>
<!-- Matrix&#45;&gt;Linear Algebra -->
<g id="edge3" class="edge">
<title>Matrix&#45;&gt;Linear Algebra</title>
<path fill="none" stroke="#ffffff" d="M46.23,-250.42C63.52,-225.23 89.01,-188.07 104.07,-166.12"/>
<polygon fill="#ffffff" stroke="#ffffff" points="43.26,-248.57 40.49,-258.79 49.04,-252.53 43.26,-248.57"/>
</g>
<!-- Symmetric Closure&#45;&gt;Matrix -->
<g id="edge4" class="edge">
<title>Symmetric Closure&#45;&gt;Matrix</title>
<path fill="none" stroke="#b75867" d="M61.97,-277.73C61.89,-277.73 61.8,-277.73 61.72,-277.73"/>
<polygon fill="#b75867" stroke="#b75867" points="64.09,-274.24 54.07,-277.69 64.06,-281.24 64.09,-274.24"/>
</g>
<!-- Relation -->
<g id="node5" class="node">
<title>Relation</title>
<g id="a_node5"><a xlink:href="/Knowledge/relation.html" xlink:title="Relation" target="_parent">
<path fill="#273434" stroke="#b75867" d="M291,-369C291,-369 256,-369 256,-369 250,-369 244,-363 244,-357 244,-357 244,-345 244,-345 244,-339 250,-333 256,-333 256,-333 291,-333 291,-333 297,-333 303,-339 303,-345 303,-345 303,-357 303,-357 303,-363 297,-369 291,-369"/>
<text text-anchor="middle" x="273.5" y="-347.9" font-family="sans" font-size="12.00" fill="#c4c7c7">Relation</text>
</a>
</g>
</g>
<!-- Symmetric Closure&#45;&gt;Relation -->
<g id="edge5" class="edge">
<title>Symmetric Closure&#45;&gt;Relation</title>
<path fill="none" stroke="#b75867" d="M169.08,-295.12C170.47,-296.33 171.78,-297.62 173,-299 182.14,-309.34 171.12,-319.36 181,-329 194.85,-342.51 215.46,-348.23 233.62,-350.47"/>
<polygon fill="#b75867" stroke="#b75867" points="233.4,-353.97 243.68,-351.41 234.05,-347 233.4,-353.97"/>
</g>
<!-- Set -->
<g id="node6" class="node">
<title>Set</title>
<g id="a_node6"><a xlink:href="/Knowledge/set.html" xlink:title="Set" target="_parent">
<path fill="#273434" stroke="#b75867" d="M288.5,-332C288.5,-332 258.5,-332 258.5,-332 252.5,-332 246.5,-326 246.5,-320 246.5,-320 246.5,-308 246.5,-308 246.5,-302 252.5,-296 258.5,-296 258.5,-296 288.5,-296 288.5,-296 294.5,-296 300.5,-302 300.5,-308 300.5,-308 300.5,-320 300.5,-320 300.5,-326 294.5,-332 288.5,-332"/>
<text text-anchor="middle" x="273.5" y="-310.9" font-family="sans" font-size="12.00" fill="#c4c7c7">Set</text>
</a>
</g>
</g>
<!-- Symmetric Closure&#45;&gt;Set -->
<g id="edge6" class="edge">
<title>Symmetric Closure&#45;&gt;Set</title>
<path fill="none" stroke="#b75867" d="M173.23,-290.15C194.24,-295.2 217.66,-300.83 236.48,-305.35"/>
<polygon fill="#b75867" stroke="#b75867" points="235.88,-308.8 246.42,-307.73 237.51,-301.99 235.88,-308.8"/>
</g>
<!-- Symmetric Relation -->
<g id="node7" class="node">
<title>Symmetric Relation</title>
<g id="a_node7"><a xlink:href="/Knowledge/symmetric_relation.html" xlink:title="Symmetric Relation" target="_parent">
<path fill="#273434" stroke="#b75867" d="M319,-258C319,-258 228,-258 228,-258 222,-258 216,-252 216,-246 216,-246 216,-234 216,-234 216,-228 222,-222 228,-222 228,-222 319,-222 319,-222 325,-222 331,-228 331,-234 331,-234 331,-246 331,-246 331,-252 325,-258 319,-258"/>
<text text-anchor="middle" x="273.5" y="-236.9" font-family="sans" font-size="12.00" fill="#c4c7c7">Symmetric Relation</text>
</a>
</g>
</g>
<!-- Symmetric Closure&#45;&gt;Symmetric Relation -->
<g id="edge7" class="edge">
<title>Symmetric Closure&#45;&gt;Symmetric Relation</title>
<path fill="none" stroke="#b75867" d="M173.23,-263.85C183.82,-261.31 195.02,-258.61 205.94,-255.99"/>
<polygon fill="#b75867" stroke="#b75867" points="206.96,-259.35 215.87,-253.61 205.33,-252.54 206.96,-259.35"/>
</g>
<!-- Relations -->
<g id="node8" class="node">
<title>Relations</title>
<g id="a_node8"><a xlink:href="/Knowledge/relations.html" xlink:title="Relations" target="_parent">
<path fill="none" stroke="#b75867" d="M293.5,-295C293.5,-295 253.5,-295 253.5,-295 247.5,-295 241.5,-289 241.5,-283 241.5,-283 241.5,-271 241.5,-271 241.5,-265 247.5,-259 253.5,-259 253.5,-259 293.5,-259 293.5,-259 299.5,-259 305.5,-265 305.5,-271 305.5,-271 305.5,-283 305.5,-283 305.5,-289 299.5,-295 293.5,-295"/>
<text text-anchor="middle" x="273.5" y="-273.9" font-family="sans" font-size="12.00" fill="#c4c7c7">Relations</text>
</a>
</g>
</g>
<!-- Symmetric Closure&#45;&gt;Relations -->
<g id="edge8" class="edge">
<title>Symmetric Closure&#45;&gt;Relations</title>
<path fill="none" stroke="#ffffff" d="M183.28,-277C203.35,-277 224.55,-277 241.25,-277"/>
<polygon fill="#ffffff" stroke="#ffffff" points="183.23,-273.5 173.23,-277 183.23,-280.5 183.23,-273.5"/>
</g>
<!-- Symmetric Closure&#45;&gt;Relations -->
<g id="edge9" class="edge">
<title>Symmetric Closure&#45;&gt;Relations</title>
<path fill="none" stroke="#ffffff" d="M183.28,-277.74C203.35,-277.77 224.55,-277.73 241.25,-277.62"/>
<polygon fill="#ffffff" stroke="#ffffff" points="183.24,-274.24 173.23,-277.72 183.22,-281.24 183.24,-274.24"/>
</g>
<!-- Reflexive Closure&#45;&gt;Matrix -->
<g id="edge10" class="edge">
<title>Reflexive Closure&#45;&gt;Matrix</title>
<path fill="none" stroke="#b75867" d="M68.91,-295.89C67.59,-295.34 66.28,-294.8 63.62,-293.67"/>
<polygon fill="#b75867" stroke="#b75867" points="64.89,-290.41 54.32,-289.71 62.15,-296.85 64.89,-290.41"/>
</g>
<!-- Reflexive Closure&#45;&gt;Relation -->
<g id="edge11" class="edge">
<title>Reflexive Closure&#45;&gt;Relation</title>
<path fill="none" stroke="#b75867" d="M168.93,-326.12C190.14,-331.21 214.42,-337.05 234.14,-341.78"/>
<polygon fill="#b75867" stroke="#b75867" points="233.45,-345.22 244,-344.15 235.09,-338.41 233.45,-345.22"/>
</g>
<!-- Reflexive Closure&#45;&gt;Set -->
<g id="edge12" class="edge">
<title>Reflexive Closure&#45;&gt;Set</title>
<path fill="none" stroke="#b75867" d="M168.93,-314C190.79,-314 215.9,-314 235.93,-314"/>
<polygon fill="#b75867" stroke="#b75867" points="236.19,-317.5 246.19,-314 236.19,-310.5 236.19,-317.5"/>
</g>
<!-- Reflexive Closure&#45;&gt;Relations -->
<g id="edge14" class="edge">
<title>Reflexive Closure&#45;&gt;Relations</title>
<path fill="none" stroke="#ffffff" d="M178.9,-299.49C200.24,-294.36 223.36,-288.81 241.29,-284.5"/>
<polygon fill="#ffffff" stroke="#ffffff" points="177.83,-296.15 168.93,-301.88 179.47,-302.95 177.83,-296.15"/>
</g>
<!-- Reflexive Closure&#45;&gt;Relations -->
<g id="edge15" class="edge">
<title>Reflexive Closure&#45;&gt;Relations</title>
<path fill="none" stroke="#ffffff" d="M178.9,-300.22C200.24,-295.14 223.36,-289.54 241.29,-285.12"/>
<polygon fill="#ffffff" stroke="#ffffff" points="177.84,-296.88 168.93,-302.59 179.46,-303.69 177.84,-296.88"/>
</g>
<!-- Reflexive Relation -->
<g id="node9" class="node">
<title>Reflexive Relation</title>
<g id="a_node9"><a xlink:href="/Knowledge/reflexive_relation.html" xlink:title="Reflexive Relation" target="_parent">
<path fill="#273434" stroke="#b75867" d="M314.5,-406C314.5,-406 232.5,-406 232.5,-406 226.5,-406 220.5,-400 220.5,-394 220.5,-394 220.5,-382 220.5,-382 220.5,-376 226.5,-370 232.5,-370 232.5,-370 314.5,-370 314.5,-370 320.5,-370 326.5,-376 326.5,-382 326.5,-382 326.5,-394 326.5,-394 326.5,-400 320.5,-406 314.5,-406"/>
<text text-anchor="middle" x="273.5" y="-384.9" font-family="sans" font-size="12.00" fill="#c4c7c7">Reflexive Relation</text>
</a>
</g>
</g>
<!-- Reflexive Closure&#45;&gt;Reflexive Relation -->
<g id="edge13" class="edge">
<title>Reflexive Closure&#45;&gt;Reflexive Relation</title>
<path fill="none" stroke="#b75867" d="M135.77,-332.14C147.52,-343.46 163.97,-357.46 181,-366 190.19,-370.61 200.38,-374.28 210.54,-377.2"/>
<polygon fill="#b75867" stroke="#b75867" points="209.66,-380.59 220.22,-379.77 211.46,-373.82 209.66,-380.59"/>
</g>
<!-- Linear Algebra&#45;&gt;Matrix -->
<g id="edge16" class="edge">
<title>Linear Algebra&#45;&gt;Matrix</title>
<path fill="none" stroke="#b75867" d="M104.47,-166.07C89.59,-188.02 64.09,-225.21 46.67,-250.42"/>
<polygon fill="#b75867" stroke="#b75867" points="43.68,-248.58 40.87,-258.79 49.44,-252.56 43.68,-248.58"/>
</g>
<!-- Bijective function -->
<g id="node10" class="node">
<title>Bijective function</title>
<g id="a_node10"><a xlink:href="/Knowledge/bijective_function.html" xlink:title="Bijective function" target="_parent">
<path fill="#273434" stroke="#b75867" d="M313.5,-110C313.5,-110 233.5,-110 233.5,-110 227.5,-110 221.5,-104 221.5,-98 221.5,-98 221.5,-86 221.5,-86 221.5,-80 227.5,-74 233.5,-74 233.5,-74 313.5,-74 313.5,-74 319.5,-74 325.5,-80 325.5,-86 325.5,-86 325.5,-98 325.5,-98 325.5,-104 319.5,-110 313.5,-110"/>
<text text-anchor="middle" x="273.5" y="-88.9" font-family="sans" font-size="12.00" fill="#c4c7c7">Bijective function</text>
</a>
</g>
</g>
<!-- Linear Algebra&#45;&gt;Bijective function -->
<g id="edge17" class="edge">
<title>Linear Algebra&#45;&gt;Bijective function</title>
<path fill="none" stroke="#b75867" d="M147.94,-129.92C158.13,-124.22 169.82,-118.3 181,-114 190.71,-110.27 201.24,-107.03 211.6,-104.27"/>
<polygon fill="#b75867" stroke="#b75867" points="212.6,-107.63 221.44,-101.78 210.88,-100.84 212.6,-107.63"/>
</g>
<!-- Injective function -->
<g id="node11" class="node">
<title>Injective function</title>
<g id="a_node11"><a xlink:href="/Knowledge/injective_function.html" xlink:title="Injective function" target="_parent">
<path fill="#273434" stroke="#b75867" d="M313.5,-73C313.5,-73 233.5,-73 233.5,-73 227.5,-73 221.5,-67 221.5,-61 221.5,-61 221.5,-49 221.5,-49 221.5,-43 227.5,-37 233.5,-37 233.5,-37 313.5,-37 313.5,-37 319.5,-37 325.5,-43 325.5,-49 325.5,-49 325.5,-61 325.5,-61 325.5,-67 319.5,-73 313.5,-73"/>
<text text-anchor="middle" x="273.5" y="-51.9" font-family="sans" font-size="12.00" fill="#c4c7c7">Injective function</text>
</a>
</g>
</g>
<!-- Linear Algebra&#45;&gt;Injective function -->
<g id="edge18" class="edge">
<title>Linear Algebra&#45;&gt;Injective function</title>
<path fill="none" stroke="#b75867" d="M129.83,-129.7C140.89,-113.4 159.2,-90.14 181,-77 190.32,-71.38 200.99,-67.2 211.66,-64.08"/>
<polygon fill="#b75867" stroke="#b75867" points="212.66,-67.44 221.44,-61.51 210.87,-60.67 212.66,-67.44"/>
</g>
<!-- Surjective function -->
<g id="node12" class="node">
<title>Surjective function</title>
<g id="a_node12"><a xlink:href="/Knowledge/surjective_function.html" xlink:title="Surjective function" target="_parent">
<path fill="#273434" stroke="#b75867" d="M317.5,-36C317.5,-36 229.5,-36 229.5,-36 223.5,-36 217.5,-30 217.5,-24 217.5,-24 217.5,-12 217.5,-12 217.5,-6 223.5,0 229.5,0 229.5,0 317.5,0 317.5,0 323.5,0 329.5,-6 329.5,-12 329.5,-12 329.5,-24 329.5,-24 329.5,-30 323.5,-36 317.5,-36"/>
<text text-anchor="middle" x="273.5" y="-14.9" font-family="sans" font-size="12.00" fill="#c4c7c7">Surjective function</text>
</a>
</g>
</g>
<!-- Linear Algebra&#45;&gt;Surjective function -->
<g id="edge19" class="edge">
<title>Linear Algebra&#45;&gt;Surjective function</title>
<path fill="none" stroke="#b75867" d="M124.04,-129.63C132.36,-105.3 150.44,-62.8 181,-40 188.77,-34.2 197.87,-29.9 207.24,-26.73"/>
<polygon fill="#b75867" stroke="#b75867" points="208.48,-30.01 217.08,-23.81 206.49,-23.3 208.48,-30.01"/>
</g>
<!-- Kronecker Delta -->
<g id="node13" class="node">
<title>Kronecker Delta</title>
<g id="a_node13"><a xlink:href="/Knowledge/kronecker_delta.html" xlink:title="Kronecker Delta" target="_parent">
<path fill="#273434" stroke="#b75867" d="M310,-221C310,-221 237,-221 237,-221 231,-221 225,-215 225,-209 225,-209 225,-197 225,-197 225,-191 231,-185 237,-185 237,-185 310,-185 310,-185 316,-185 322,-191 322,-197 322,-197 322,-209 322,-209 322,-215 316,-221 310,-221"/>
<text text-anchor="middle" x="273.5" y="-199.9" font-family="sans" font-size="12.00" fill="#c4c7c7">Kronecker Delta</text>
</a>
</g>
</g>
<!-- Linear Algebra&#45;&gt;Kronecker Delta -->
<g id="edge20" class="edge">
<title>Linear Algebra&#45;&gt;Kronecker Delta</title>
<path fill="none" stroke="#b75867" d="M148.94,-166.03C158.92,-171.4 170.21,-176.93 181,-181 191.76,-185.06 203.52,-188.55 214.91,-191.48"/>
<polygon fill="#b75867" stroke="#b75867" points="214.25,-194.92 224.8,-193.91 215.92,-188.12 214.25,-194.92"/>
</g>
<!-- Fundamental Theorem of Algebra -->
<g id="node14" class="node">
<title>Fundamental Theorem of Algebra</title>
<g id="a_node14"><a xlink:href="/Knowledge/fundamental_theorem_of_algebra.html" xlink:title="Fundamental Theorem of Algebra" target="_parent">
<path fill="#273434" stroke="#b75867" d="M354,-184C354,-184 193,-184 193,-184 187,-184 181,-178 181,-172 181,-172 181,-160 181,-160 181,-154 187,-148 193,-148 193,-148 354,-148 354,-148 360,-148 366,-154 366,-160 366,-160 366,-172 366,-172 366,-178 360,-184 354,-184"/>
<text text-anchor="middle" x="273.5" y="-162.9" font-family="sans" font-size="12.00" fill="#c4c7c7">Fundamental Theorem of Algebra</text>
</a>
</g>
</g>
<!-- Linear Algebra&#45;&gt;Fundamental Theorem of Algebra -->
<g id="edge21" class="edge">
<title>Linear Algebra&#45;&gt;Fundamental Theorem of Algebra</title>
<path fill="none" stroke="#b75867" d="M162.22,-153.11C165.01,-153.44 167.88,-153.77 170.79,-154.11"/>
<polygon fill="#b75867" stroke="#b75867" points="170.55,-157.61 180.89,-155.29 171.37,-150.66 170.55,-157.61"/>
</g>
<!-- Subjects -->
<g id="node15" class="node">
<title>Subjects</title>
<g id="a_node15"><a xlink:href="/Knowledge/subjects.html" xlink:title="Subjects" target="_parent">
<path fill="none" stroke="#b75867" d="M291.5,-147C291.5,-147 255.5,-147 255.5,-147 249.5,-147 243.5,-141 243.5,-135 243.5,-135 243.5,-123 243.5,-123 243.5,-117 249.5,-111 255.5,-111 255.5,-111 291.5,-111 291.5,-111 297.5,-111 303.5,-117 303.5,-123 303.5,-123 303.5,-135 303.5,-135 303.5,-141 297.5,-147 291.5,-147"/>
<text text-anchor="middle" x="273.5" y="-125.9" font-family="sans" font-size="12.00" fill="#c4c7c7">Subjects</text>
</a>
</g>
</g>
<!-- Linear Algebra&#45;&gt;Subjects -->
<g id="edge22" class="edge">
<title>Linear Algebra&#45;&gt;Subjects</title>
<path fill="none" stroke="#ffffff" d="M172.22,-141.37C196.09,-138.43 223.26,-135.07 243.3,-132.6"/>
<polygon fill="#ffffff" stroke="#ffffff" points="171.71,-137.91 162.22,-142.61 172.57,-144.86 171.71,-137.91"/>
</g>
</g>
</svg>
