<?xml version="1.0" encoding="UTF-8" standalone="no"?>
<!DOCTYPE svg PUBLIC "-//W3C//DTD SVG 1.1//EN"
 "http://www.w3.org/Graphics/SVG/1.1/DTD/svg11.dtd">
<!-- Generated by graphviz version 2.46.1 (0)
 -->
<!-- Title: Metric Criteria Pages: 1 -->
<svg width="358pt" height="155pt"
 viewBox="0.00 0.00 358.00 155.00" xmlns="http://www.w3.org/2000/svg" xmlns:xlink="http://www.w3.org/1999/xlink">
<g id="graph0" class="graph" transform="scale(1 1) rotate(0) translate(4 151)">
<title>Metric Criteria</title>
<polygon fill="#132020" stroke="transparent" points="-4,4 -4,-151 354,-151 354,4 -4,4"/>
<!-- Metric Criteria -->
<g id="node1" class="node">
<title>Metric Criteria</title>
<g id="a_node1"><a xlink:href="/Knowledge/metric_criteria.html" xlink:title="Metric Criteria" target="_parent">
<path fill="#273434" stroke="#b75867" d="M76,-109C76,-109 12,-109 12,-109 6,-109 0,-103 0,-97 0,-97 0,-85 0,-85 0,-79 6,-73 12,-73 12,-73 76,-73 76,-73 82,-73 88,-79 88,-85 88,-85 88,-97 88,-97 88,-103 82,-109 76,-109"/>
<text text-anchor="middle" x="44" y="-87.9" font-family="sans" font-size="12.00" fill="#c4c7c7">Metric Criteria</text>
</a>
</g>
</g>
<!-- Metric -->
<g id="node2" class="node">
<title>Metric</title>
<g id="a_node2"><a xlink:href="/Knowledge/metric.html" xlink:title="Metric" target="_parent">
<path fill="#273434" stroke="#b75867" d="M180,-128C180,-128 150,-128 150,-128 144,-128 138,-122 138,-116 138,-116 138,-104 138,-104 138,-98 144,-92 150,-92 150,-92 180,-92 180,-92 186,-92 192,-98 192,-104 192,-104 192,-116 192,-116 192,-122 186,-128 180,-128"/>
<text text-anchor="middle" x="165" y="-106.9" font-family="sans" font-size="12.00" fill="#c4c7c7">Metric</text>
</a>
</g>
</g>
<!-- Metric Criteria&#45;&gt;Metric -->
<g id="edge1" class="edge">
<title>Metric Criteria&#45;&gt;Metric</title>
<path fill="none" stroke="#b75867" d="M88.3,-97.91C101.28,-99.99 115.37,-102.24 127.84,-104.23"/>
<polygon fill="#b75867" stroke="#b75867" points="127.44,-107.71 137.87,-105.83 128.55,-100.8 127.44,-107.71"/>
</g>
<!-- Function Approximation -->
<g id="node3" class="node">
<title>Function Approximation</title>
<g id="a_node3"><a xlink:href="/Knowledge/function_approximation.html" xlink:title="Function Approximation" target="_parent">
<path fill="none" stroke="#b75867" d="M222,-91C222,-91 108,-91 108,-91 102,-91 96,-85 96,-79 96,-79 96,-67 96,-67 96,-61 102,-55 108,-55 108,-55 222,-55 222,-55 228,-55 234,-61 234,-67 234,-67 234,-79 234,-79 234,-85 228,-91 222,-91"/>
<text text-anchor="middle" x="165" y="-69.9" font-family="sans" font-size="12.00" fill="#c4c7c7">Function Approximation</text>
</a>
</g>
</g>
<!-- Metric Criteria&#45;&gt;Function Approximation -->
<g id="edge2" class="edge">
<title>Metric Criteria&#45;&gt;Function Approximation</title>
<path fill="none" stroke="#ffffff" d="M95.5,-83.36C95.66,-83.34 95.82,-83.31 95.98,-83.29"/>
<polygon fill="#ffffff" stroke="#ffffff" points="97.66,-79.49 88.3,-84.45 98.71,-86.42 97.66,-79.49"/>
</g>
<!-- Metric&#45;&gt;Metric Criteria -->
<g id="edge3" class="edge">
<title>Metric&#45;&gt;Metric Criteria</title>
<path fill="none" stroke="#ffffff" d="M127.84,-104.92C115.37,-102.99 101.28,-100.75 88.3,-98.64"/>
<polygon fill="#ffffff" stroke="#ffffff" points="127.45,-108.4 137.87,-106.46 128.52,-101.49 127.45,-108.4"/>
</g>
<!-- Function Approximation&#45;&gt;Metric Criteria -->
<g id="edge4" class="edge">
<title>Function Approximation&#45;&gt;Metric Criteria</title>
<path fill="none" stroke="#b75867" d="M95.98,-84.03C95.82,-84.06 95.66,-84.08 95.5,-84.1"/>
<polygon fill="#b75867" stroke="#b75867" points="97.67,-80.24 88.3,-85.18 98.7,-87.17 97.67,-80.24"/>
</g>
<!-- nil -->
<g id="node4" class="node">
<title>nil</title>
<g id="a_node4"><a xlink:href="/Knowledge/Interpolation Criterion.html" xlink:title="nil" target="_parent">
<path fill="#273434" stroke="#b75867" d="M311,-147C311,-147 281,-147 281,-147 275,-147 269,-141 269,-135 269,-135 269,-123 269,-123 269,-117 275,-111 281,-111 281,-111 311,-111 311,-111 317,-111 323,-117 323,-123 323,-123 323,-135 323,-135 323,-141 317,-147 311,-147"/>
<text text-anchor="middle" x="296" y="-125.9" font-family="sans" font-size="12.00" fill="#c4c7c7">nil</text>
</a>
</g>
</g>
<!-- Function Approximation&#45;&gt;nil -->
<g id="edge5" class="edge">
<title>Function Approximation&#45;&gt;nil</title>
<path fill="none" stroke="#b75867" d="M228.42,-91.19C230.35,-92.39 232.22,-93.65 234,-95 239.11,-98.87 237.05,-102.93 242,-107 247.1,-111.19 253.11,-114.69 259.22,-117.57"/>
<polygon fill="#b75867" stroke="#b75867" points="258.21,-120.94 268.79,-121.6 260.93,-114.49 258.21,-120.94"/>
</g>
<!-- Simple Function -->
<g id="node5" class="node">
<title>Simple Function</title>
<g id="a_node5"><a xlink:href="/Knowledge/simple_function.html" xlink:title="Simple Function" target="_parent">
<path fill="#273434" stroke="#b75867" d="M333.5,-110C333.5,-110 258.5,-110 258.5,-110 252.5,-110 246.5,-104 246.5,-98 246.5,-98 246.5,-86 246.5,-86 246.5,-80 252.5,-74 258.5,-74 258.5,-74 333.5,-74 333.5,-74 339.5,-74 345.5,-80 345.5,-86 345.5,-86 345.5,-98 345.5,-98 345.5,-104 339.5,-110 333.5,-110"/>
<text text-anchor="middle" x="296" y="-88.9" font-family="sans" font-size="12.00" fill="#c4c7c7">Simple Function</text>
</a>
</g>
</g>
<!-- Function Approximation&#45;&gt;Simple Function -->
<g id="edge6" class="edge">
<title>Function Approximation&#45;&gt;Simple Function</title>
<path fill="none" stroke="#b75867" d="M234.28,-83.06C234.92,-83.15 235.56,-83.25 236.2,-83.34"/>
<polygon fill="#b75867" stroke="#b75867" points="236.07,-86.86 246.48,-84.85 237.09,-79.93 236.07,-86.86"/>
</g>
<!-- Complex Function -->
<g id="node6" class="node">
<title>Complex Function</title>
<g id="a_node6"><a xlink:href="/Knowledge/complex_function.html" xlink:title="Complex Function" target="_parent">
<path fill="#273434" stroke="#b75867" d="M338,-73C338,-73 254,-73 254,-73 248,-73 242,-67 242,-61 242,-61 242,-49 242,-49 242,-43 248,-37 254,-37 254,-37 338,-37 338,-37 344,-37 350,-43 350,-49 350,-49 350,-61 350,-61 350,-67 344,-73 338,-73"/>
<text text-anchor="middle" x="296" y="-51.9" font-family="sans" font-size="12.00" fill="#c4c7c7">Complex Function</text>
</a>
</g>
</g>
<!-- Function Approximation&#45;&gt;Complex Function -->
<g id="edge7" class="edge">
<title>Function Approximation&#45;&gt;Complex Function</title>
<path fill="none" stroke="#b75867" d="M234.28,-63.47C234.44,-63.45 234.59,-63.43 234.75,-63.41"/>
<polygon fill="#b75867" stroke="#b75867" points="232.43,-67.26 241.85,-62.42 231.47,-60.33 232.43,-67.26"/>
</g>
<!-- Numeric Methods -->
<g id="node7" class="node">
<title>Numeric Methods</title>
<g id="a_node7"><a xlink:href="/Knowledge/numeric_methods.html" xlink:title="Numeric Methods" target="_parent">
<path fill="none" stroke="#b75867" d="M337,-36C337,-36 255,-36 255,-36 249,-36 243,-30 243,-24 243,-24 243,-12 243,-12 243,-6 249,0 255,0 255,0 337,0 337,0 343,0 349,-6 349,-12 349,-12 349,-24 349,-24 349,-30 343,-36 337,-36"/>
<text text-anchor="middle" x="296" y="-14.9" font-family="sans" font-size="12.00" fill="#c4c7c7">Numeric Methods</text>
</a>
</g>
</g>
<!-- Function Approximation&#45;&gt;Numeric Methods -->
<g id="edge8" class="edge">
<title>Function Approximation&#45;&gt;Numeric Methods</title>
<path fill="none" stroke="#ffffff" d="M216.74,-50.83C225.17,-47.19 233.82,-43.47 242,-40 245.03,-38.72 248.15,-37.4 251.3,-36.07"/>
<polygon fill="#ffffff" stroke="#ffffff" points="215.15,-47.71 207.36,-54.89 217.93,-54.13 215.15,-47.71"/>
</g>
</g>
</svg>
