<?xml version="1.0" encoding="UTF-8" standalone="no"?>
<!DOCTYPE svg PUBLIC "-//W3C//DTD SVG 1.1//EN"
 "http://www.w3.org/Graphics/SVG/1.1/DTD/svg11.dtd">
<!-- Generated by graphviz version 2.46.1 (0)
 -->
<!-- Title: Metric Pages: 1 -->
<svg width="304pt" height="44pt"
 viewBox="0.00 0.00 304.00 44.00" xmlns="http://www.w3.org/2000/svg" xmlns:xlink="http://www.w3.org/1999/xlink">
<g id="graph0" class="graph" transform="scale(1 1) rotate(0) translate(4 40)">
<title>Metric</title>
<polygon fill="#132020" stroke="transparent" points="-4,4 -4,-40 300,-40 300,4 -4,4"/>
<!-- Metric -->
<g id="node1" class="node">
<title>Metric</title>
<g id="a_node1"><a xlink:href="/Knowledge/metric.html" xlink:title="Metric" target="_parent">
<path fill="#273434" stroke="#b75867" d="M42,-36C42,-36 12,-36 12,-36 6,-36 0,-30 0,-24 0,-24 0,-12 0,-12 0,-6 6,0 12,0 12,0 42,0 42,0 48,0 54,-6 54,-12 54,-12 54,-24 54,-24 54,-30 48,-36 42,-36"/>
<text text-anchor="middle" x="27" y="-14.9" font-family="sans" font-size="12.00" fill="#c4c7c7">Metric</text>
</a>
</g>
</g>
<!-- Metric Criteria -->
<g id="node2" class="node">
<title>Metric Criteria</title>
<g id="a_node2"><a xlink:href="/Knowledge/metric_criteria.html" xlink:title="Metric Criteria" target="_parent">
<path fill="none" stroke="#b75867" d="M138,-36C138,-36 74,-36 74,-36 68,-36 62,-30 62,-24 62,-24 62,-12 62,-12 62,-6 68,0 74,0 74,0 138,0 138,0 144,0 150,-6 150,-12 150,-12 150,-24 150,-24 150,-30 144,-36 138,-36"/>
<text text-anchor="middle" x="106" y="-14.9" font-family="sans" font-size="12.00" fill="#c4c7c7">Metric Criteria</text>
</a>
</g>
</g>
<!-- Metric&#45;&gt;Metric Criteria -->
<g id="edge1" class="edge">
<title>Metric&#45;&gt;Metric Criteria</title>
<path fill="none" stroke="#ffffff" d="M61.36,-18C61.52,-18 61.69,-18 61.85,-18"/>
<polygon fill="#ffffff" stroke="#ffffff" points="64.07,-14.5 54.07,-18 64.07,-21.5 64.07,-14.5"/>
</g>
<!-- Metric Criteria&#45;&gt;Metric -->
<g id="edge2" class="edge">
<title>Metric Criteria&#45;&gt;Metric</title>
<path fill="none" stroke="#b75867" d="M61.85,-18.75C61.69,-18.74 61.52,-18.74 61.36,-18.74"/>
<polygon fill="#b75867" stroke="#b75867" points="64.08,-15.26 54.07,-18.71 64.05,-22.26 64.08,-15.26"/>
</g>
<!-- Function Approximation -->
<g id="node3" class="node">
<title>Function Approximation</title>
<g id="a_node3"><a xlink:href="/Knowledge/function_approximation.html" xlink:title="Function Approximation" target="_parent">
<path fill="none" stroke="#b75867" d="M284,-36C284,-36 170,-36 170,-36 164,-36 158,-30 158,-24 158,-24 158,-12 158,-12 158,-6 164,0 170,0 170,0 284,0 284,0 290,0 296,-6 296,-12 296,-12 296,-24 296,-24 296,-30 290,-36 284,-36"/>
<text text-anchor="middle" x="227" y="-14.9" font-family="sans" font-size="12.00" fill="#c4c7c7">Function Approximation</text>
</a>
</g>
</g>
<!-- Metric Criteria&#45;&gt;Function Approximation -->
<g id="edge3" class="edge">
<title>Metric Criteria&#45;&gt;Function Approximation</title>
<path fill="none" stroke="#ffffff" d="M157.5,-18C157.66,-18 157.82,-18 157.98,-18"/>
<polygon fill="#ffffff" stroke="#ffffff" points="160.3,-14.5 150.3,-18 160.3,-21.5 160.3,-14.5"/>
</g>
</g>
</svg>
