<?xml version="1.0" encoding="UTF-8" standalone="no"?>
<!DOCTYPE svg PUBLIC "-//W3C//DTD SVG 1.1//EN"
 "http://www.w3.org/Graphics/SVG/1.1/DTD/svg11.dtd">
<!-- Generated by graphviz version 2.44.0 (0)
 -->
<!-- Title: Metric Criteria Pages: 1 -->
<svg width="415pt" height="155pt"
 viewBox="0.00 0.00 415.00 155.00" xmlns="http://www.w3.org/2000/svg" xmlns:xlink="http://www.w3.org/1999/xlink">
<g id="graph0" class="graph" transform="scale(1 1) rotate(0) translate(4 151)">
<title>Metric Criteria</title>
<polygon fill="#132020" stroke="transparent" points="-4,4 -4,-151 411,-151 411,4 -4,4"/>
<!-- Metric Criteria -->
<g id="node1" class="node">
<title>Metric Criteria</title>
<g id="a_node1"><a xlink:href="/Knowledge/Metric Criteria.html" xlink:title="Metric Criteria" target="_parent">
<path fill="#273434" stroke="#b75867" d="M83,-109C83,-109 12,-109 12,-109 6,-109 0,-103 0,-97 0,-97 0,-85 0,-85 0,-79 6,-73 12,-73 12,-73 83,-73 83,-73 89,-73 95,-79 95,-85 95,-85 95,-97 95,-97 95,-103 89,-109 83,-109"/>
<text text-anchor="middle" x="47.5" y="-87.9" font-family="sans" font-size="12.00" fill="#c4c7c7">Metric Criteria</text>
</a>
</g>
</g>
<!-- Metric -->
<g id="node2" class="node">
<title>Metric</title>
<g id="a_node2"><a xlink:href="/Knowledge/Metric.html" xlink:title="Metric" target="_parent">
<path fill="#273434" stroke="#b75867" d="M194.5,-128C194.5,-128 164.5,-128 164.5,-128 158.5,-128 152.5,-122 152.5,-116 152.5,-116 152.5,-104 152.5,-104 152.5,-98 158.5,-92 164.5,-92 164.5,-92 194.5,-92 194.5,-92 200.5,-92 206.5,-98 206.5,-104 206.5,-104 206.5,-116 206.5,-116 206.5,-122 200.5,-128 194.5,-128"/>
<text text-anchor="middle" x="179.5" y="-106.9" font-family="sans" font-size="12.00" fill="#c4c7c7">Metric</text>
</a>
</g>
</g>
<!-- Metric Criteria&#45;&gt;Metric -->
<g id="edge1" class="edge">
<title>Metric Criteria&#45;&gt;Metric</title>
<path fill="none" stroke="#b75867" d="M95.07,-97.81C110.54,-100.07 127.54,-102.55 142.13,-104.68"/>
<polygon fill="#b75867" stroke="#b75867" points="141.87,-108.18 152.28,-106.17 142.89,-101.26 141.87,-108.18"/>
</g>
<!-- Function Approximation -->
<g id="node3" class="node">
<title>Function Approximation</title>
<g id="a_node3"><a xlink:href="/Knowledge/Function Approximation.html" xlink:title="Function Approximation" target="_parent">
<path fill="none" stroke="#b75867" d="M244,-91C244,-91 115,-91 115,-91 109,-91 103,-85 103,-79 103,-79 103,-67 103,-67 103,-61 109,-55 115,-55 115,-55 244,-55 244,-55 250,-55 256,-61 256,-67 256,-67 256,-79 256,-79 256,-85 250,-91 244,-91"/>
<text text-anchor="middle" x="179.5" y="-69.9" font-family="sans" font-size="12.00" fill="#c4c7c7">Function Approximation</text>
</a>
</g>
</g>
<!-- Metric Criteria&#45;&gt;Function Approximation -->
<g id="edge2" class="edge">
<title>Metric Criteria&#45;&gt;Function Approximation</title>
<path fill="none" stroke="#ffffff" d="M102.12,-83.58C102.28,-83.55 102.44,-83.53 102.6,-83.51"/>
<polygon fill="#ffffff" stroke="#ffffff" points="104.49,-79.71 95.07,-84.55 105.45,-86.65 104.49,-79.71"/>
</g>
<!-- Metric&#45;&gt;Metric Criteria -->
<g id="edge3" class="edge">
<title>Metric&#45;&gt;Metric Criteria</title>
<path fill="none" stroke="#ffffff" d="M142.13,-105.37C127.54,-103.31 110.54,-100.84 95.07,-98.53"/>
<polygon fill="#ffffff" stroke="#ffffff" points="141.89,-108.87 152.28,-106.78 142.86,-101.93 141.89,-108.87"/>
</g>
<!-- Function Approximation&#45;&gt;Metric Criteria -->
<g id="edge4" class="edge">
<title>Function Approximation&#45;&gt;Metric Criteria</title>
<path fill="none" stroke="#b75867" d="M102.6,-84.25C102.44,-84.27 102.28,-84.29 102.12,-84.32"/>
<polygon fill="#b75867" stroke="#b75867" points="104.5,-80.46 95.07,-85.27 105.45,-87.4 104.5,-80.46"/>
</g>
<!-- Interpolation Criterion -->
<g id="node4" class="node">
<title>Interpolation Criterion</title>
<g id="a_node4"><a xlink:href="/Knowledge/Interpolation Criterion.html" xlink:title="Interpolation Criterion" target="_parent">
<path fill="#273434" stroke="#b75867" d="M395,-147C395,-147 276,-147 276,-147 270,-147 264,-141 264,-135 264,-135 264,-123 264,-123 264,-117 270,-111 276,-111 276,-111 395,-111 395,-111 401,-111 407,-117 407,-123 407,-123 407,-135 407,-135 407,-141 401,-147 395,-147"/>
<text text-anchor="middle" x="335.5" y="-125.9" font-family="sans" font-size="12.00" fill="#c4c7c7">Interpolation Criterion</text>
</a>
</g>
</g>
<!-- Function Approximation&#45;&gt;Interpolation Criterion -->
<g id="edge5" class="edge">
<title>Function Approximation&#45;&gt;Interpolation Criterion</title>
<path fill="none" stroke="#b75867" d="M250.15,-91.13C252.17,-92.34 254.13,-93.63 256,-95 259.39,-97.49 259.57,-100.22 262.37,-104"/>
<polygon fill="#b75867" stroke="#b75867" points="260.08,-106.65 269.79,-110.9 264.85,-101.52 260.08,-106.65"/>
</g>
<!-- Simple Function -->
<g id="node5" class="node">
<title>Simple Function</title>
<g id="a_node5"><a xlink:href="/Knowledge/Simple Function.html" xlink:title="Simple Function" target="_parent">
<path fill="#273434" stroke="#b75867" d="M378.5,-110C378.5,-110 292.5,-110 292.5,-110 286.5,-110 280.5,-104 280.5,-98 280.5,-98 280.5,-86 280.5,-86 280.5,-80 286.5,-74 292.5,-74 292.5,-74 378.5,-74 378.5,-74 384.5,-74 390.5,-80 390.5,-86 390.5,-86 390.5,-98 390.5,-98 390.5,-104 384.5,-110 378.5,-110"/>
<text text-anchor="middle" x="335.5" y="-88.9" font-family="sans" font-size="12.00" fill="#c4c7c7">Simple Function</text>
</a>
</g>
</g>
<!-- Function Approximation&#45;&gt;Simple Function -->
<g id="edge6" class="edge">
<title>Function Approximation&#45;&gt;Simple Function</title>
<path fill="none" stroke="#b75867" d="M256.15,-82.33C260.9,-82.92 265.65,-83.51 270.34,-84.08"/>
<polygon fill="#b75867" stroke="#b75867" points="270.13,-87.58 280.48,-85.34 270.98,-80.64 270.13,-87.58"/>
</g>
<!-- Complex Function -->
<g id="node6" class="node">
<title>Complex Function</title>
<g id="a_node6"><a xlink:href="/Knowledge/Complex Function.html" xlink:title="Complex Function" target="_parent">
<path fill="#273434" stroke="#b75867" d="M383.5,-73C383.5,-73 287.5,-73 287.5,-73 281.5,-73 275.5,-67 275.5,-61 275.5,-61 275.5,-49 275.5,-49 275.5,-43 281.5,-37 287.5,-37 287.5,-37 383.5,-37 383.5,-37 389.5,-37 395.5,-43 395.5,-49 395.5,-49 395.5,-61 395.5,-61 395.5,-67 389.5,-73 383.5,-73"/>
<text text-anchor="middle" x="335.5" y="-51.9" font-family="sans" font-size="12.00" fill="#c4c7c7">Complex Function</text>
</a>
</g>
</g>
<!-- Function Approximation&#45;&gt;Complex Function -->
<g id="edge7" class="edge">
<title>Function Approximation&#45;&gt;Complex Function</title>
<path fill="none" stroke="#b75867" d="M256.15,-64.16C259.14,-63.81 262.14,-63.46 265.12,-63.11"/>
<polygon fill="#b75867" stroke="#b75867" points="265.65,-66.57 275.18,-61.93 264.84,-59.62 265.65,-66.57"/>
</g>
<!-- Numeric Methods -->
<g id="node7" class="node">
<title>Numeric Methods</title>
<g id="a_node7"><a xlink:href="/Knowledge/Numeric Methods.html" xlink:title="Numeric Methods" target="_parent">
<path fill="none" stroke="#b75867" d="M381.5,-36C381.5,-36 289.5,-36 289.5,-36 283.5,-36 277.5,-30 277.5,-24 277.5,-24 277.5,-12 277.5,-12 277.5,-6 283.5,0 289.5,0 289.5,0 381.5,0 381.5,0 387.5,0 393.5,-6 393.5,-12 393.5,-12 393.5,-24 393.5,-24 393.5,-30 387.5,-36 381.5,-36"/>
<text text-anchor="middle" x="335.5" y="-14.9" font-family="sans" font-size="12.00" fill="#c4c7c7">Numeric Methods</text>
</a>
</g>
</g>
<!-- Function Approximation&#45;&gt;Numeric Methods -->
<g id="edge8" class="edge">
<title>Function Approximation&#45;&gt;Numeric Methods</title>
<path fill="none" stroke="#ffffff" d="M233.87,-51.23C243.84,-47.36 254.2,-43.46 264,-40 268.35,-38.46 272.87,-36.92 277.43,-35.41"/>
<polygon fill="#ffffff" stroke="#ffffff" points="232.5,-48.01 224.47,-54.92 235.06,-54.52 232.5,-48.01"/>
</g>
</g>
</svg>
