<?xml version="1.0" encoding="UTF-8" standalone="no"?>
<!DOCTYPE svg PUBLIC "-//W3C//DTD SVG 1.1//EN"
 "http://www.w3.org/Graphics/SVG/1.1/DTD/svg11.dtd">
<!-- Generated by graphviz version 2.46.1 (0)
 -->
<!-- Title: Multiset Pages: 1 -->
<svg width="385pt" height="192pt"
 viewBox="0.00 0.00 385.00 192.00" xmlns="http://www.w3.org/2000/svg" xmlns:xlink="http://www.w3.org/1999/xlink">
<g id="graph0" class="graph" transform="scale(1 1) rotate(0) translate(4 188)">
<title>Multiset</title>
<polygon fill="#132020" stroke="transparent" points="-4,4 -4,-188 381,-188 381,4 -4,4"/>
<!-- Multiset -->
<g id="node1" class="node">
<title>Multiset</title>
<g id="a_node1"><a xlink:href="/Knowledge/multiset.html" xlink:title="Multiset" target="_parent">
<path fill="#273434" stroke="#b75867" d="M45,-110C45,-110 12,-110 12,-110 6,-110 0,-104 0,-98 0,-98 0,-86 0,-86 0,-80 6,-74 12,-74 12,-74 45,-74 45,-74 51,-74 57,-80 57,-86 57,-86 57,-98 57,-98 57,-104 51,-110 45,-110"/>
<text text-anchor="middle" x="28.5" y="-88.9" font-family="sans" font-size="12.00" fill="#c4c7c7">Multiset</text>
</a>
</g>
</g>
<!-- Recurrent Equations -->
<g id="node2" class="node">
<title>Recurrent Equations</title>
<g id="a_node2"><a xlink:href="/Knowledge/recurrent_equations.html" xlink:title="Recurrent Equations" target="_parent">
<path fill="none" stroke="#b75867" d="M172,-110C172,-110 77,-110 77,-110 71,-110 65,-104 65,-98 65,-98 65,-86 65,-86 65,-80 71,-74 77,-74 77,-74 172,-74 172,-74 178,-74 184,-80 184,-86 184,-86 184,-98 184,-98 184,-104 178,-110 172,-110"/>
<text text-anchor="middle" x="124.5" y="-88.9" font-family="sans" font-size="12.00" fill="#c4c7c7">Recurrent Equations</text>
</a>
</g>
</g>
<!-- Multiset&#45;&gt;Recurrent Equations -->
<g id="edge1" class="edge">
<title>Multiset&#45;&gt;Recurrent Equations</title>
<path fill="none" stroke="#ffffff" d="M64.4,-92C64.57,-92 64.73,-92 64.9,-92"/>
<polygon fill="#ffffff" stroke="#ffffff" points="67.19,-88.5 57.19,-92 67.19,-95.5 67.19,-88.5"/>
</g>
<!-- Recurrent Equations&#45;&gt;Multiset -->
<g id="edge3" class="edge">
<title>Recurrent Equations&#45;&gt;Multiset</title>
<path fill="none" stroke="#b75867" d="M64.9,-92.73C64.73,-92.73 64.57,-92.73 64.4,-92.73"/>
<polygon fill="#b75867" stroke="#b75867" points="67.21,-89.24 57.19,-92.69 67.18,-96.24 67.21,-89.24"/>
</g>
<!-- Set -->
<g id="node3" class="node">
<title>Set</title>
<g id="a_node3"><a xlink:href="/Knowledge/set.html" xlink:title="Set" target="_parent">
<path fill="#273434" stroke="#b75867" d="M299.5,-184C299.5,-184 269.5,-184 269.5,-184 263.5,-184 257.5,-178 257.5,-172 257.5,-172 257.5,-160 257.5,-160 257.5,-154 263.5,-148 269.5,-148 269.5,-148 299.5,-148 299.5,-148 305.5,-148 311.5,-154 311.5,-160 311.5,-160 311.5,-172 311.5,-172 311.5,-178 305.5,-184 299.5,-184"/>
<text text-anchor="middle" x="284.5" y="-162.9" font-family="sans" font-size="12.00" fill="#c4c7c7">Set</text>
</a>
</g>
</g>
<!-- Recurrent Equations&#45;&gt;Set -->
<g id="edge2" class="edge">
<title>Recurrent Equations&#45;&gt;Set</title>
<path fill="none" stroke="#b75867" d="M144.08,-110.1C156.66,-121.41 174.18,-135.4 192,-144 209.18,-152.29 229.72,-157.6 246.99,-160.92"/>
<polygon fill="#b75867" stroke="#b75867" points="246.8,-164.44 257.25,-162.73 248.02,-157.54 246.8,-164.44"/>
</g>
<!-- Fundamental Theorem of Algebra -->
<g id="node4" class="node">
<title>Fundamental Theorem of Algebra</title>
<g id="a_node4"><a xlink:href="/Knowledge/fundamental_theorem_of_algebra.html" xlink:title="Fundamental Theorem of Algebra" target="_parent">
<path fill="#273434" stroke="#b75867" d="M365,-147C365,-147 204,-147 204,-147 198,-147 192,-141 192,-135 192,-135 192,-123 192,-123 192,-117 198,-111 204,-111 204,-111 365,-111 365,-111 371,-111 377,-117 377,-123 377,-123 377,-135 377,-135 377,-141 371,-147 365,-147"/>
<text text-anchor="middle" x="284.5" y="-125.9" font-family="sans" font-size="12.00" fill="#c4c7c7">Fundamental Theorem of Algebra</text>
</a>
</g>
</g>
<!-- Recurrent Equations&#45;&gt;Fundamental Theorem of Algebra -->
<g id="edge4" class="edge">
<title>Recurrent Equations&#45;&gt;Fundamental Theorem of Algebra</title>
<path fill="none" stroke="#b75867" d="M184.33,-105.78C188.27,-106.7 192.27,-107.64 196.31,-108.58"/>
<polygon fill="#b75867" stroke="#b75867" points="195.84,-112.07 206.37,-110.94 197.43,-105.25 195.84,-112.07"/>
</g>
<!-- Discrete Structures -->
<g id="node5" class="node">
<title>Discrete Structures</title>
<g id="a_node5"><a xlink:href="/Knowledge/discrete_structures.html" xlink:title="Discrete Structures" target="_parent">
<path fill="none" stroke="#b75867" d="M328,-110C328,-110 241,-110 241,-110 235,-110 229,-104 229,-98 229,-98 229,-86 229,-86 229,-80 235,-74 241,-74 241,-74 328,-74 328,-74 334,-74 340,-80 340,-86 340,-86 340,-98 340,-98 340,-104 334,-110 328,-110"/>
<text text-anchor="middle" x="284.5" y="-88.9" font-family="sans" font-size="12.00" fill="#c4c7c7">Discrete Structures</text>
</a>
</g>
</g>
<!-- Recurrent Equations&#45;&gt;Discrete Structures -->
<g id="edge5" class="edge">
<title>Recurrent Equations&#45;&gt;Discrete Structures</title>
<path fill="none" stroke="#ffffff" d="M194.36,-92C205.88,-92 217.7,-92 228.8,-92"/>
<polygon fill="#ffffff" stroke="#ffffff" points="194.33,-88.5 184.33,-92 194.33,-95.5 194.33,-88.5"/>
</g>
<!-- Divided Differences -->
<g id="node6" class="node">
<title>Divided Differences</title>
<g id="a_node6"><a xlink:href="/Knowledge/divided_differences.html" xlink:title="Divided Differences" target="_parent">
<path fill="none" stroke="#b75867" d="M329,-73C329,-73 240,-73 240,-73 234,-73 228,-67 228,-61 228,-61 228,-49 228,-49 228,-43 234,-37 240,-37 240,-37 329,-37 329,-37 335,-37 341,-43 341,-49 341,-49 341,-61 341,-61 341,-67 335,-73 329,-73"/>
<text text-anchor="middle" x="284.5" y="-51.9" font-family="sans" font-size="12.00" fill="#c4c7c7">Divided Differences</text>
</a>
</g>
</g>
<!-- Recurrent Equations&#45;&gt;Divided Differences -->
<g id="edge6" class="edge">
<title>Recurrent Equations&#45;&gt;Divided Differences</title>
<path fill="none" stroke="#ffffff" d="M194.11,-75.93C205.35,-73.3 216.88,-70.6 227.76,-68.05"/>
<polygon fill="#ffffff" stroke="#ffffff" points="193.27,-72.53 184.33,-78.22 194.87,-79.35 193.27,-72.53"/>
</g>
<!-- Chebyshev Polynomial -->
<g id="node7" class="node">
<title>Chebyshev Polynomial</title>
<g id="a_node7"><a xlink:href="/Knowledge/chebyshev_polynomial.html" xlink:title="Chebyshev Polynomial" target="_parent">
<path fill="none" stroke="#b75867" d="M338,-36C338,-36 231,-36 231,-36 225,-36 219,-30 219,-24 219,-24 219,-12 219,-12 219,-6 225,0 231,0 231,0 338,0 338,0 344,0 350,-6 350,-12 350,-12 350,-24 350,-24 350,-30 344,-36 338,-36"/>
<text text-anchor="middle" x="284.5" y="-14.9" font-family="sans" font-size="12.00" fill="#c4c7c7">Chebyshev Polynomial</text>
</a>
</g>
</g>
<!-- Recurrent Equations&#45;&gt;Chebyshev Polynomial -->
<g id="edge7" class="edge">
<title>Recurrent Equations&#45;&gt;Chebyshev Polynomial</title>
<path fill="none" stroke="#ffffff" d="M151.65,-67.31C163.24,-57.54 177.52,-46.99 192,-40 200.39,-35.95 209.57,-32.61 218.79,-29.87"/>
<polygon fill="#ffffff" stroke="#ffffff" points="149.33,-64.69 144.08,-73.9 153.92,-69.97 149.33,-64.69"/>
</g>
</g>
</svg>
