<?xml version="1.0" encoding="UTF-8" standalone="no"?>
<!DOCTYPE svg PUBLIC "-//W3C//DTD SVG 1.1//EN"
 "http://www.w3.org/Graphics/SVG/1.1/DTD/svg11.dtd">
<!-- Generated by graphviz version 2.46.1 (0)
 -->
<!-- Title: Numeric Methods Pages: 1 -->
<svg width="445pt" height="414pt"
 viewBox="0.00 0.00 445.00 414.00" xmlns="http://www.w3.org/2000/svg" xmlns:xlink="http://www.w3.org/1999/xlink">
<g id="graph0" class="graph" transform="scale(1 1) rotate(0) translate(4 410)">
<title>Numeric Methods</title>
<polygon fill="#132020" stroke="transparent" points="-4,4 -4,-410 441,-410 441,4 -4,4"/>
<!-- Numeric Methods -->
<g id="node1" class="node">
<title>Numeric Methods</title>
<g id="a_node1"><a xlink:href="/Knowledge/numeric_methods.html" xlink:title="Numeric Methods" target="_parent">
<path fill="#273434" stroke="#b75867" d="M94,-240C94,-240 12,-240 12,-240 6,-240 0,-234 0,-228 0,-228 0,-216 0,-216 0,-210 6,-204 12,-204 12,-204 94,-204 94,-204 100,-204 106,-210 106,-216 106,-216 106,-228 106,-228 106,-234 100,-240 94,-240"/>
<text text-anchor="middle" x="53" y="-218.9" font-family="sans" font-size="12.00" fill="#c4c7c7">Numeric Methods</text>
</a>
</g>
</g>
<!-- Lagrange Interpolation -->
<g id="node2" class="node">
<title>Lagrange Interpolation</title>
<g id="a_node2"><a xlink:href="/Knowledge/lagrange_interpolation.html" xlink:title="Lagrange Interpolation" target="_parent">
<path fill="#273434" stroke="#b75867" d="M237,-332C237,-332 129,-332 129,-332 123,-332 117,-326 117,-320 117,-320 117,-308 117,-308 117,-302 123,-296 129,-296 129,-296 237,-296 237,-296 243,-296 249,-302 249,-308 249,-308 249,-320 249,-320 249,-326 243,-332 237,-332"/>
<text text-anchor="middle" x="183" y="-310.9" font-family="sans" font-size="12.00" fill="#c4c7c7">Lagrange Interpolation</text>
</a>
</g>
</g>
<!-- Numeric Methods&#45;&gt;Lagrange Interpolation -->
<g id="edge1" class="edge">
<title>Numeric Methods&#45;&gt;Lagrange Interpolation</title>
<path fill="none" stroke="#b75867" d="M79.29,-240.18C99.1,-254.42 126.84,-274.35 148.49,-289.92"/>
<polygon fill="#b75867" stroke="#b75867" points="146.6,-292.87 156.76,-295.86 150.69,-287.18 146.6,-292.87"/>
</g>
<!-- Function Approximation -->
<g id="node3" class="node">
<title>Function Approximation</title>
<g id="a_node3"><a xlink:href="/Knowledge/function_approximation.html" xlink:title="Function Approximation" target="_parent">
<path fill="#273434" stroke="#b75867" d="M240,-240C240,-240 126,-240 126,-240 120,-240 114,-234 114,-228 114,-228 114,-216 114,-216 114,-210 120,-204 126,-204 126,-204 240,-204 240,-204 246,-204 252,-210 252,-216 252,-216 252,-228 252,-228 252,-234 246,-240 240,-240"/>
<text text-anchor="middle" x="183" y="-218.9" font-family="sans" font-size="12.00" fill="#c4c7c7">Function Approximation</text>
</a>
</g>
</g>
<!-- Numeric Methods&#45;&gt;Function Approximation -->
<g id="edge2" class="edge">
<title>Numeric Methods&#45;&gt;Function Approximation</title>
<path fill="none" stroke="#b75867" d="M106.06,-222C106.22,-222 106.37,-222 106.53,-222"/>
<polygon fill="#b75867" stroke="#b75867" points="103.6,-225.5 113.6,-222 103.6,-218.5 103.6,-225.5"/>
</g>
<!-- Subjects -->
<g id="node4" class="node">
<title>Subjects</title>
<g id="a_node4"><a xlink:href="/Knowledge/subjects.html" xlink:title="Subjects" target="_parent">
<path fill="none" stroke="#b75867" d="M201,-129C201,-129 165,-129 165,-129 159,-129 153,-123 153,-117 153,-117 153,-105 153,-105 153,-99 159,-93 165,-93 165,-93 201,-93 201,-93 207,-93 213,-99 213,-105 213,-105 213,-117 213,-117 213,-123 207,-129 201,-129"/>
<text text-anchor="middle" x="183" y="-107.9" font-family="sans" font-size="12.00" fill="#c4c7c7">Subjects</text>
</a>
</g>
</g>
<!-- Numeric Methods&#45;&gt;Subjects -->
<g id="edge3" class="edge">
<title>Numeric Methods&#45;&gt;Subjects</title>
<path fill="none" stroke="#ffffff" d="M82.53,-197.26C106.36,-176.59 139.78,-147.62 161.16,-129.07"/>
<polygon fill="#ffffff" stroke="#ffffff" points="80.11,-194.72 74.85,-203.92 84.7,-200.01 80.11,-194.72"/>
</g>
<!-- Lagrange Interpolation&#45;&gt;Numeric Methods -->
<g id="edge5" class="edge">
<title>Lagrange Interpolation&#45;&gt;Numeric Methods</title>
<path fill="none" stroke="#ffffff" d="M147.59,-289.94C125.74,-274.36 97.97,-254.38 78.38,-240.12"/>
<polygon fill="#ffffff" stroke="#ffffff" points="145.78,-292.95 155.95,-295.9 149.84,-287.25 145.78,-292.95"/>
</g>
<!-- Lagrange Interpolation Problem -->
<g id="node5" class="node">
<title>Lagrange Interpolation Problem</title>
<g id="a_node5"><a xlink:href="/Knowledge/lagrange_interpolation_problem.html" xlink:title="Lagrange Interpolation Problem" target="_parent">
<path fill="#273434" stroke="#b75867" d="M425,-406C425,-406 272,-406 272,-406 266,-406 260,-400 260,-394 260,-394 260,-382 260,-382 260,-376 266,-370 272,-370 272,-370 425,-370 425,-370 431,-370 437,-376 437,-382 437,-382 437,-394 437,-394 437,-400 431,-406 425,-406"/>
<text text-anchor="middle" x="348.5" y="-384.9" font-family="sans" font-size="12.00" fill="#c4c7c7">Lagrange Interpolation Problem</text>
</a>
</g>
</g>
<!-- Lagrange Interpolation&#45;&gt;Lagrange Interpolation Problem -->
<g id="edge4" class="edge">
<title>Lagrange Interpolation&#45;&gt;Lagrange Interpolation Problem</title>
<path fill="none" stroke="#b75867" d="M206.02,-332.18C220.56,-343.37 240.47,-357.2 260,-366 260.09,-366.04 260.19,-366.08 260.28,-366.13"/>
<polygon fill="#b75867" stroke="#b75867" points="258.67,-369.25 269.25,-369.83 261.35,-362.78 258.67,-369.25"/>
</g>
<!-- Extrapolation -->
<g id="node6" class="node">
<title>Extrapolation</title>
<g id="a_node6"><a xlink:href="/Knowledge/extrapolation.html" xlink:title="Extrapolation" target="_parent">
<path fill="none" stroke="#b75867" d="M378.5,-369C378.5,-369 318.5,-369 318.5,-369 312.5,-369 306.5,-363 306.5,-357 306.5,-357 306.5,-345 306.5,-345 306.5,-339 312.5,-333 318.5,-333 318.5,-333 378.5,-333 378.5,-333 384.5,-333 390.5,-339 390.5,-345 390.5,-345 390.5,-357 390.5,-357 390.5,-363 384.5,-369 378.5,-369"/>
<text text-anchor="middle" x="348.5" y="-347.9" font-family="sans" font-size="12.00" fill="#c4c7c7">Extrapolation</text>
</a>
</g>
</g>
<!-- Lagrange Interpolation&#45;&gt;Extrapolation -->
<g id="edge6" class="edge">
<title>Lagrange Interpolation&#45;&gt;Extrapolation</title>
<path fill="none" stroke="#ffffff" d="M259.1,-330.99C275.28,-334.66 291.82,-338.4 306.14,-341.64"/>
<polygon fill="#ffffff" stroke="#ffffff" points="259.62,-327.52 249.09,-328.73 258.07,-334.35 259.62,-327.52"/>
</g>
<!-- Evaluating Interpolation Error -->
<g id="node7" class="node">
<title>Evaluating Interpolation Error</title>
<g id="a_node7"><a xlink:href="/Knowledge/evaluating_interpolation_error.html" xlink:title="Evaluating Interpolation Error" target="_parent">
<path fill="none" stroke="#b75867" d="M419.5,-332C419.5,-332 277.5,-332 277.5,-332 271.5,-332 265.5,-326 265.5,-320 265.5,-320 265.5,-308 265.5,-308 265.5,-302 271.5,-296 277.5,-296 277.5,-296 419.5,-296 419.5,-296 425.5,-296 431.5,-302 431.5,-308 431.5,-308 431.5,-320 431.5,-320 431.5,-326 425.5,-332 419.5,-332"/>
<text text-anchor="middle" x="348.5" y="-310.9" font-family="sans" font-size="12.00" fill="#c4c7c7">Evaluating Interpolation Error</text>
</a>
</g>
</g>
<!-- Lagrange Interpolation&#45;&gt;Evaluating Interpolation Error -->
<g id="edge7" class="edge">
<title>Lagrange Interpolation&#45;&gt;Evaluating Interpolation Error</title>
<path fill="none" stroke="#ffffff" d="M259.2,-314C261.24,-314 263.28,-314 265.32,-314"/>
<polygon fill="#ffffff" stroke="#ffffff" points="259.09,-310.5 249.09,-314 259.09,-317.5 259.09,-310.5"/>
</g>
<!-- Function Approximation&#45;&gt;Numeric Methods -->
<g id="edge12" class="edge">
<title>Function Approximation&#45;&gt;Numeric Methods</title>
<path fill="none" stroke="#ffffff" d="M106.53,-222.74C106.37,-222.74 106.22,-222.74 106.06,-222.74"/>
<polygon fill="#ffffff" stroke="#ffffff" points="103.59,-226.24 113.6,-222.75 103.6,-219.24 103.59,-226.24"/>
</g>
<!-- Metric Criteria -->
<g id="node8" class="node">
<title>Metric Criteria</title>
<g id="a_node8"><a xlink:href="/Knowledge/metric_criteria.html" xlink:title="Metric Criteria" target="_parent">
<path fill="#273434" stroke="#b75867" d="M380.5,-295C380.5,-295 316.5,-295 316.5,-295 310.5,-295 304.5,-289 304.5,-283 304.5,-283 304.5,-271 304.5,-271 304.5,-265 310.5,-259 316.5,-259 316.5,-259 380.5,-259 380.5,-259 386.5,-259 392.5,-265 392.5,-271 392.5,-271 392.5,-283 392.5,-283 392.5,-289 386.5,-295 380.5,-295"/>
<text text-anchor="middle" x="348.5" y="-273.9" font-family="sans" font-size="12.00" fill="#c4c7c7">Metric Criteria</text>
</a>
</g>
</g>
<!-- Function Approximation&#45;&gt;Metric Criteria -->
<g id="edge8" class="edge">
<title>Function Approximation&#45;&gt;Metric Criteria</title>
<path fill="none" stroke="#b75867" d="M222.18,-240.03C234.13,-245.28 247.47,-250.74 260,-255 271.01,-258.75 282.99,-262.17 294.46,-265.14"/>
<polygon fill="#b75867" stroke="#b75867" points="293.82,-268.59 304.37,-267.64 295.52,-261.8 293.82,-268.59"/>
</g>
<!-- nil -->
<g id="node9" class="node">
<title>nil</title>
<g id="a_node9"><a xlink:href="/Knowledge/Interpolation Criterion.html" xlink:title="nil" target="_parent">
<path fill="#273434" stroke="#b75867" d="M363.5,-258C363.5,-258 333.5,-258 333.5,-258 327.5,-258 321.5,-252 321.5,-246 321.5,-246 321.5,-234 321.5,-234 321.5,-228 327.5,-222 333.5,-222 333.5,-222 363.5,-222 363.5,-222 369.5,-222 375.5,-228 375.5,-234 375.5,-234 375.5,-246 375.5,-246 375.5,-252 369.5,-258 363.5,-258"/>
<text text-anchor="middle" x="348.5" y="-236.9" font-family="sans" font-size="12.00" fill="#c4c7c7">nil</text>
</a>
</g>
</g>
<!-- Function Approximation&#45;&gt;nil -->
<g id="edge9" class="edge">
<title>Function Approximation&#45;&gt;nil</title>
<path fill="none" stroke="#b75867" d="M252.39,-229.53C272.54,-231.75 293.79,-234.09 311.09,-235.99"/>
<polygon fill="#b75867" stroke="#b75867" points="310.98,-239.5 321.3,-237.12 311.75,-232.54 310.98,-239.5"/>
</g>
<!-- Simple Function -->
<g id="node10" class="node">
<title>Simple Function</title>
<g id="a_node10"><a xlink:href="/Knowledge/simple_function.html" xlink:title="Simple Function" target="_parent">
<path fill="#273434" stroke="#b75867" d="M386,-221C386,-221 311,-221 311,-221 305,-221 299,-215 299,-209 299,-209 299,-197 299,-197 299,-191 305,-185 311,-185 311,-185 386,-185 386,-185 392,-185 398,-191 398,-197 398,-197 398,-209 398,-209 398,-215 392,-221 386,-221"/>
<text text-anchor="middle" x="348.5" y="-199.9" font-family="sans" font-size="12.00" fill="#c4c7c7">Simple Function</text>
</a>
</g>
</g>
<!-- Function Approximation&#45;&gt;Simple Function -->
<g id="edge10" class="edge">
<title>Function Approximation&#45;&gt;Simple Function</title>
<path fill="none" stroke="#b75867" d="M252.39,-214.05C264.44,-212.65 276.88,-211.21 288.64,-209.84"/>
<polygon fill="#b75867" stroke="#b75867" points="289.24,-213.29 298.77,-208.66 288.43,-206.34 289.24,-213.29"/>
</g>
<!-- Complex Function -->
<g id="node11" class="node">
<title>Complex Function</title>
<g id="a_node11"><a xlink:href="/Knowledge/complex_function.html" xlink:title="Complex Function" target="_parent">
<path fill="#273434" stroke="#b75867" d="M390.5,-184C390.5,-184 306.5,-184 306.5,-184 300.5,-184 294.5,-178 294.5,-172 294.5,-172 294.5,-160 294.5,-160 294.5,-154 300.5,-148 306.5,-148 306.5,-148 390.5,-148 390.5,-148 396.5,-148 402.5,-154 402.5,-160 402.5,-160 402.5,-172 402.5,-172 402.5,-178 396.5,-184 390.5,-184"/>
<text text-anchor="middle" x="348.5" y="-162.9" font-family="sans" font-size="12.00" fill="#c4c7c7">Complex Function</text>
</a>
</g>
</g>
<!-- Function Approximation&#45;&gt;Complex Function -->
<g id="edge11" class="edge">
<title>Function Approximation&#45;&gt;Complex Function</title>
<path fill="none" stroke="#b75867" d="M220.97,-203.91C233.21,-198.34 247.02,-192.5 260,-188 267.87,-185.27 276.25,-182.73 284.58,-180.41"/>
<polygon fill="#b75867" stroke="#b75867" points="285.57,-183.77 294.31,-177.79 283.75,-177.01 285.57,-183.77"/>
</g>
<!-- Subjects&#45;&gt;Numeric Methods -->
<g id="edge13" class="edge">
<title>Subjects&#45;&gt;Numeric Methods</title>
<path fill="none" stroke="#b75867" d="M161.77,-129.1C140.61,-147.67 107.19,-176.68 83.18,-197.34"/>
<polygon fill="#b75867" stroke="#b75867" points="80.73,-194.83 75.42,-204 85.29,-200.14 80.73,-194.83"/>
</g>
<!-- Discrete Structures -->
<g id="node12" class="node">
<title>Discrete Structures</title>
<g id="a_node12"><a xlink:href="/Knowledge/discrete_structures.html" xlink:title="Discrete Structures" target="_parent">
<path fill="#273434" stroke="#b75867" d="M392,-147C392,-147 305,-147 305,-147 299,-147 293,-141 293,-135 293,-135 293,-123 293,-123 293,-117 299,-111 305,-111 305,-111 392,-111 392,-111 398,-111 404,-117 404,-123 404,-123 404,-135 404,-135 404,-141 398,-147 392,-147"/>
<text text-anchor="middle" x="348.5" y="-125.9" font-family="sans" font-size="12.00" fill="#c4c7c7">Discrete Structures</text>
</a>
</g>
</g>
<!-- Subjects&#45;&gt;Discrete Structures -->
<g id="edge14" class="edge">
<title>Subjects&#45;&gt;Discrete Structures</title>
<path fill="none" stroke="#b75867" d="M213.23,-114.22C232.52,-116.34 258.57,-119.21 282.6,-121.85"/>
<polygon fill="#b75867" stroke="#b75867" points="282.42,-125.36 292.74,-122.97 283.19,-118.4 282.42,-125.36"/>
</g>
<!-- Differential Analysis -->
<g id="node13" class="node">
<title>Differential Analysis</title>
<g id="a_node13"><a xlink:href="/Knowledge/differential_analysis.html" xlink:title="Differential Analysis" target="_parent">
<path fill="#273434" stroke="#b75867" d="M394.5,-110C394.5,-110 302.5,-110 302.5,-110 296.5,-110 290.5,-104 290.5,-98 290.5,-98 290.5,-86 290.5,-86 290.5,-80 296.5,-74 302.5,-74 302.5,-74 394.5,-74 394.5,-74 400.5,-74 406.5,-80 406.5,-86 406.5,-86 406.5,-98 406.5,-98 406.5,-104 400.5,-110 394.5,-110"/>
<text text-anchor="middle" x="348.5" y="-88.9" font-family="sans" font-size="12.00" fill="#c4c7c7">Differential Analysis</text>
</a>
</g>
</g>
<!-- Subjects&#45;&gt;Differential Analysis -->
<g id="edge15" class="edge">
<title>Subjects&#45;&gt;Differential Analysis</title>
<path fill="none" stroke="#b75867" d="M213.23,-107.6C231.87,-105.44 256.84,-102.54 280.18,-99.82"/>
<polygon fill="#b75867" stroke="#b75867" points="280.88,-103.27 290.41,-98.63 280.07,-96.31 280.88,-103.27"/>
</g>
<!-- Linear Algebra -->
<g id="node14" class="node">
<title>Linear Algebra</title>
<g id="a_node14"><a xlink:href="/Knowledge/linear_algebra.html" xlink:title="Linear Algebra" target="_parent">
<path fill="#273434" stroke="#b75867" d="M381,-73C381,-73 316,-73 316,-73 310,-73 304,-67 304,-61 304,-61 304,-49 304,-49 304,-43 310,-37 316,-37 316,-37 381,-37 381,-37 387,-37 393,-43 393,-49 393,-49 393,-61 393,-61 393,-67 387,-73 381,-73"/>
<text text-anchor="middle" x="348.5" y="-51.9" font-family="sans" font-size="12.00" fill="#c4c7c7">Linear Algebra</text>
</a>
</g>
</g>
<!-- Subjects&#45;&gt;Linear Algebra -->
<g id="edge16" class="edge">
<title>Subjects&#45;&gt;Linear Algebra</title>
<path fill="none" stroke="#b75867" d="M213.11,-96.54C227.07,-89.98 244.16,-82.49 260,-77 270.88,-73.23 282.72,-69.82 294.07,-66.86"/>
<polygon fill="#b75867" stroke="#b75867" points="295.05,-70.22 303.89,-64.38 293.34,-63.43 295.05,-70.22"/>
</g>
<!-- index -->
<g id="node15" class="node">
<title>index</title>
<g id="a_node15"><a xlink:href="/Knowledge/index.html" xlink:title="index" target="_parent">
<path fill="none" stroke="#b75867" d="M363.5,-36C363.5,-36 333.5,-36 333.5,-36 327.5,-36 321.5,-30 321.5,-24 321.5,-24 321.5,-12 321.5,-12 321.5,-6 327.5,0 333.5,0 333.5,0 363.5,0 363.5,0 369.5,0 375.5,-6 375.5,-12 375.5,-12 375.5,-24 375.5,-24 375.5,-30 369.5,-36 363.5,-36"/>
<text text-anchor="middle" x="348.5" y="-14.9" font-family="sans" font-size="12.00" fill="#c4c7c7">index</text>
</a>
</g>
</g>
<!-- Subjects&#45;&gt;index -->
<g id="edge17" class="edge">
<title>Subjects&#45;&gt;index</title>
<path fill="none" stroke="#ffffff" d="M205.49,-85.19C219.52,-69.92 239.07,-51.4 260,-40 279.12,-29.58 303.27,-23.99 321.36,-21.06"/>
<polygon fill="#ffffff" stroke="#ffffff" points="202.73,-83.03 198.68,-92.82 207.95,-87.69 202.73,-83.03"/>
</g>
</g>
</svg>
