<?xml version="1.0" encoding="UTF-8" standalone="no"?>
<!DOCTYPE svg PUBLIC "-//W3C//DTD SVG 1.1//EN"
 "http://www.w3.org/Graphics/SVG/1.1/DTD/svg11.dtd">
<!-- Generated by graphviz version 2.46.1 (0)
 -->
<!-- Title: Operations Research Pages: 1 -->
<svg width="129pt" height="44pt"
 viewBox="0.00 0.00 129.00 44.00" xmlns="http://www.w3.org/2000/svg" xmlns:xlink="http://www.w3.org/1999/xlink">
<g id="graph0" class="graph" transform="scale(1 1) rotate(0) translate(4 40)">
<title>Operations Research</title>
<polygon fill="#132020" stroke="transparent" points="-4,4 -4,-40 125,-40 125,4 -4,4"/>
<!-- Operations Research -->
<g id="node1" class="node">
<title>Operations Research</title>
<g id="a_node1"><a xlink:href="/Knowledge/operations_research.html" xlink:title="Operations Research" target="_parent">
<path fill="#273434" stroke="#b75867" d="M109,-36C109,-36 12,-36 12,-36 6,-36 0,-30 0,-24 0,-24 0,-12 0,-12 0,-6 6,0 12,0 12,0 109,0 109,0 115,0 121,-6 121,-12 121,-12 121,-24 121,-24 121,-30 115,-36 109,-36"/>
<text text-anchor="middle" x="60.5" y="-14.9" font-family="sans" font-size="12.00" fill="#c4c7c7">Operations Research</text>
</a>
</g>
</g>
</g>
</svg>
