<?xml version="1.0" encoding="UTF-8" standalone="no"?>
<!DOCTYPE svg PUBLIC "-//W3C//DTD SVG 1.1//EN"
 "http://www.w3.org/Graphics/SVG/1.1/DTD/svg11.dtd">
<!-- Generated by graphviz version 2.46.1 (0)
 -->
<!-- Title: Org&#45;mode Pages: 1 -->
<svg width="76pt" height="44pt"
 viewBox="0.00 0.00 76.00 44.00" xmlns="http://www.w3.org/2000/svg" xmlns:xlink="http://www.w3.org/1999/xlink">
<g id="graph0" class="graph" transform="scale(1 1) rotate(0) translate(4 40)">
<title>Org&#45;mode</title>
<polygon fill="#132020" stroke="transparent" points="-4,4 -4,-40 72,-40 72,4 -4,4"/>
<!-- Org&#45;mode -->
<g id="node1" class="node">
<title>Org&#45;mode</title>
<g id="a_node1"><a xlink:href="/Knowledge/org-mode.html" xlink:title="Org&#45;mode" target="_parent">
<path fill="#273434" stroke="#b75867" d="M56,-36C56,-36 12,-36 12,-36 6,-36 0,-30 0,-24 0,-24 0,-12 0,-12 0,-6 6,0 12,0 12,0 56,0 56,0 62,0 68,-6 68,-12 68,-12 68,-24 68,-24 68,-30 62,-36 56,-36"/>
<text text-anchor="middle" x="34" y="-14.9" font-family="sans" font-size="12.00" fill="#c4c7c7">Org&#45;mode</text>
</a>
</g>
</g>
</g>
</svg>
