<?xml version="1.0" encoding="UTF-8" standalone="no"?>
<!DOCTYPE svg PUBLIC "-//W3C//DTD SVG 1.1//EN"
 "http://www.w3.org/Graphics/SVG/1.1/DTD/svg11.dtd">
<!-- Generated by graphviz version 2.46.1 (0)
 -->
<!-- Title: Org Roam Pages: 1 -->
<svg width="214pt" height="81pt"
 viewBox="0.00 0.00 214.00 81.00" xmlns="http://www.w3.org/2000/svg" xmlns:xlink="http://www.w3.org/1999/xlink">
<g id="graph0" class="graph" transform="scale(1 1) rotate(0) translate(4 77)">
<title>Org Roam</title>
<polygon fill="#132020" stroke="transparent" points="-4,4 -4,-77 210,-77 210,4 -4,4"/>
<!-- Org Roam -->
<g id="node1" class="node">
<title>Org Roam</title>
<g id="a_node1"><a xlink:href="/Knowledge/org_roam.html" xlink:title="Org Roam" target="_parent">
<path fill="#273434" stroke="#b75867" d="M53,-54C53,-54 12,-54 12,-54 6,-54 0,-48 0,-42 0,-42 0,-30 0,-30 0,-24 6,-18 12,-18 12,-18 53,-18 53,-18 59,-18 65,-24 65,-30 65,-30 65,-42 65,-42 65,-48 59,-54 53,-54"/>
<text text-anchor="middle" x="32.5" y="-32.9" font-family="sans" font-size="12.00" fill="#c4c7c7">Org Roam</text>
</a>
</g>
</g>
<!-- Bad Habit -->
<g id="node2" class="node">
<title>Bad Habit</title>
<g id="a_node2"><a xlink:href="/Knowledge/bad_habit.html" xlink:title="Bad Habit" target="_parent">
<path fill="none" stroke="#b75867" d="M126,-73C126,-73 85,-73 85,-73 79,-73 73,-67 73,-61 73,-61 73,-49 73,-49 73,-43 79,-37 85,-37 85,-37 126,-37 126,-37 132,-37 138,-43 138,-49 138,-49 138,-61 138,-61 138,-67 132,-73 126,-73"/>
<text text-anchor="middle" x="105.5" y="-51.9" font-family="sans" font-size="12.00" fill="#c4c7c7">Bad Habit</text>
</a>
</g>
</g>
<!-- Org Roam&#45;&gt;Bad Habit -->
<g id="edge1" class="edge">
<title>Org Roam&#45;&gt;Bad Habit</title>
<path fill="none" stroke="#ffffff" d="M72.35,-46.4C72.5,-46.44 72.66,-46.48 72.82,-46.52"/>
<polygon fill="#ffffff" stroke="#ffffff" points="75.83,-43.7 65.26,-44.5 74.02,-50.47 75.83,-43.7"/>
</g>
<!-- index -->
<g id="node3" class="node">
<title>index</title>
<g id="a_node3"><a xlink:href="/Knowledge/index.html" xlink:title="index" target="_parent">
<path fill="none" stroke="#b75867" d="M120.5,-36C120.5,-36 90.5,-36 90.5,-36 84.5,-36 78.5,-30 78.5,-24 78.5,-24 78.5,-12 78.5,-12 78.5,-6 84.5,0 90.5,0 90.5,0 120.5,0 120.5,0 126.5,0 132.5,-6 132.5,-12 132.5,-12 132.5,-24 132.5,-24 132.5,-30 126.5,-36 120.5,-36"/>
<text text-anchor="middle" x="105.5" y="-14.9" font-family="sans" font-size="12.00" fill="#c4c7c7">index</text>
</a>
</g>
</g>
<!-- Org Roam&#45;&gt;index -->
<g id="edge2" class="edge">
<title>Org Roam&#45;&gt;index</title>
<path fill="none" stroke="#ffffff" d="M75.31,-25.4C76.24,-25.16 77.16,-24.93 78.08,-24.7"/>
<polygon fill="#ffffff" stroke="#ffffff" points="74.1,-22.1 65.26,-27.95 75.82,-28.88 74.1,-22.1"/>
</g>
<!-- Bad Habit&#45;&gt;Org Roam -->
<g id="edge4" class="edge">
<title>Bad Habit&#45;&gt;Org Roam</title>
<path fill="none" stroke="#b75867" d="M72.82,-47.27C72.66,-47.23 72.5,-47.18 72.35,-47.14"/>
<polygon fill="#b75867" stroke="#b75867" points="75.83,-44.45 65.26,-45.25 74.02,-51.21 75.83,-44.45"/>
</g>
<!-- Projects -->
<g id="node4" class="node">
<title>Projects</title>
<g id="a_node4"><a xlink:href="/Knowledge/projects.html" xlink:title="Projects" target="_parent">
<path fill="#273434" stroke="#b75867" d="M192.5,-73C192.5,-73 159.5,-73 159.5,-73 153.5,-73 147.5,-67 147.5,-61 147.5,-61 147.5,-49 147.5,-49 147.5,-43 153.5,-37 159.5,-37 159.5,-37 192.5,-37 192.5,-37 198.5,-37 204.5,-43 204.5,-49 204.5,-49 204.5,-61 204.5,-61 204.5,-67 198.5,-73 192.5,-73"/>
<text text-anchor="middle" x="176" y="-51.9" font-family="sans" font-size="12.00" fill="#c4c7c7">Projects</text>
</a>
</g>
</g>
<!-- Bad Habit&#45;&gt;Projects -->
<g id="edge3" class="edge">
<title>Bad Habit&#45;&gt;Projects</title>
<path fill="none" stroke="#b75867" d="M138.34,-55C138.44,-55 138.53,-55 138.62,-55"/>
<polygon fill="#b75867" stroke="#b75867" points="137.13,-58.5 147.13,-55 137.13,-51.5 137.13,-58.5"/>
</g>
<!-- index&#45;&gt;Org Roam -->
<g id="edge6" class="edge">
<title>index&#45;&gt;Org Roam</title>
<path fill="none" stroke="#b75867" d="M78.08,-25.43C77.16,-25.66 76.24,-25.9 75.31,-26.14"/>
<polygon fill="#b75867" stroke="#b75867" points="74.09,-22.84 65.26,-28.69 75.82,-29.62 74.09,-22.84"/>
</g>
<!-- Subjects -->
<g id="node5" class="node">
<title>Subjects</title>
<g id="a_node5"><a xlink:href="/Knowledge/subjects.html" xlink:title="Subjects" target="_parent">
<path fill="#273434" stroke="#b75867" d="M194,-36C194,-36 158,-36 158,-36 152,-36 146,-30 146,-24 146,-24 146,-12 146,-12 146,-6 152,0 158,0 158,0 194,0 194,0 200,0 206,-6 206,-12 206,-12 206,-24 206,-24 206,-30 200,-36 194,-36"/>
<text text-anchor="middle" x="176" y="-14.9" font-family="sans" font-size="12.00" fill="#c4c7c7">Subjects</text>
</a>
</g>
</g>
<!-- index&#45;&gt;Subjects -->
<g id="edge5" class="edge">
<title>index&#45;&gt;Subjects</title>
<path fill="none" stroke="#b75867" d="M132.79,-18C133.71,-18 134.64,-18 135.58,-18"/>
<polygon fill="#b75867" stroke="#b75867" points="135.7,-21.5 145.7,-18 135.7,-14.5 135.7,-21.5"/>
</g>
</g>
</svg>
