<?xml version="1.0" encoding="UTF-8" standalone="no"?>
<!DOCTYPE svg PUBLIC "-//W3C//DTD SVG 1.1//EN"
 "http://www.w3.org/Graphics/SVG/1.1/DTD/svg11.dtd">
<!-- Generated by graphviz version 2.46.1 (0)
 -->
<!-- Title: Partition Pages: 1 -->
<svg width="472pt" height="266pt"
 viewBox="0.00 0.00 472.00 266.00" xmlns="http://www.w3.org/2000/svg" xmlns:xlink="http://www.w3.org/1999/xlink">
<g id="graph0" class="graph" transform="scale(1 1) rotate(0) translate(4 262)">
<title>Partition</title>
<polygon fill="#132020" stroke="transparent" points="-4,4 -4,-262 468,-262 468,4 -4,4"/>
<!-- Partition -->
<g id="node1" class="node">
<title>Partition</title>
<g id="a_node1"><a xlink:href="/Knowledge/partition.html" xlink:title="Partition" target="_parent">
<path fill="#273434" stroke="#b75867" d="M48,-167C48,-167 12,-167 12,-167 6,-167 0,-161 0,-155 0,-155 0,-143 0,-143 0,-137 6,-131 12,-131 12,-131 48,-131 48,-131 54,-131 60,-137 60,-143 60,-143 60,-155 60,-155 60,-161 54,-167 48,-167"/>
<text text-anchor="middle" x="30" y="-145.9" font-family="sans" font-size="12.00" fill="#c4c7c7">Partition</text>
</a>
</g>
</g>
<!-- Principle of partitions -->
<g id="node2" class="node">
<title>Principle of partitions</title>
<g id="a_node2"><a xlink:href="/Knowledge/principle_of_partitions.html" xlink:title="Principle of partitions" target="_parent">
<path fill="none" stroke="#b75867" d="M182,-187C182,-187 80,-187 80,-187 74,-187 68,-181 68,-175 68,-175 68,-163 68,-163 68,-157 74,-151 80,-151 80,-151 182,-151 182,-151 188,-151 194,-157 194,-163 194,-163 194,-175 194,-175 194,-181 188,-187 182,-187"/>
<text text-anchor="middle" x="131" y="-165.9" font-family="sans" font-size="12.00" fill="#c4c7c7">Principle of partitions</text>
</a>
</g>
</g>
<!-- Partition&#45;&gt;Principle of partitions -->
<g id="edge1" class="edge">
<title>Partition&#45;&gt;Principle of partitions</title>
<path fill="none" stroke="#ffffff" d="M67.42,-156.36C67.59,-156.39 67.75,-156.42 67.92,-156.46"/>
<polygon fill="#ffffff" stroke="#ffffff" points="70.66,-153.44 60.17,-154.89 69.28,-160.3 70.66,-153.44"/>
</g>
<!-- Class of equivalence -->
<g id="node3" class="node">
<title>Class of equivalence</title>
<g id="a_node3"><a xlink:href="/Knowledge/class_of_equivalence.html" xlink:title="Class of equivalence" target="_parent">
<path fill="none" stroke="#b75867" d="M178.5,-147C178.5,-147 83.5,-147 83.5,-147 77.5,-147 71.5,-141 71.5,-135 71.5,-135 71.5,-123 71.5,-123 71.5,-117 77.5,-111 83.5,-111 83.5,-111 178.5,-111 178.5,-111 184.5,-111 190.5,-117 190.5,-123 190.5,-123 190.5,-135 190.5,-135 190.5,-141 184.5,-147 178.5,-147"/>
<text text-anchor="middle" x="131" y="-125.9" font-family="sans" font-size="12.00" fill="#c4c7c7">Class of equivalence</text>
</a>
</g>
</g>
<!-- Partition&#45;&gt;Class of equivalence -->
<g id="edge2" class="edge">
<title>Partition&#45;&gt;Class of equivalence</title>
<path fill="none" stroke="#ffffff" d="M70.13,-141.1C70.48,-141.02 70.83,-140.95 71.19,-140.88"/>
<polygon fill="#ffffff" stroke="#ffffff" points="69.28,-137.7 60.17,-143.11 70.66,-144.56 69.28,-137.7"/>
</g>
<!-- Relation of Equivalence -->
<g id="node4" class="node">
<title>Relation of Equivalence</title>
<g id="a_node4"><a xlink:href="/Knowledge/relation_of_equivalence.html" xlink:title="Relation of Equivalence" target="_parent">
<path fill="none" stroke="#b75867" d="M326,-147C326,-147 216,-147 216,-147 210,-147 204,-141 204,-135 204,-135 204,-123 204,-123 204,-117 210,-111 216,-111 216,-111 326,-111 326,-111 332,-111 338,-117 338,-123 338,-123 338,-135 338,-135 338,-141 332,-147 326,-147"/>
<text text-anchor="middle" x="271" y="-125.9" font-family="sans" font-size="12.00" fill="#c4c7c7">Relation of Equivalence</text>
</a>
</g>
</g>
<!-- Partition&#45;&gt;Relation of Equivalence -->
<g id="edge3" class="edge">
<title>Partition&#45;&gt;Relation of Equivalence</title>
<path fill="none" stroke="#ffffff" d="M70.43,-149.6C103.52,-149.67 151.99,-148.76 194,-144 197.21,-143.64 200.48,-143.21 203.78,-142.73"/>
<polygon fill="#ffffff" stroke="#ffffff" points="70.27,-146.1 60.25,-149.54 70.24,-153.1 70.27,-146.1"/>
</g>
<!-- Principle of partitions&#45;&gt;Partition -->
<g id="edge4" class="edge">
<title>Principle of partitions&#45;&gt;Partition</title>
<path fill="none" stroke="#b75867" d="M67.92,-157.19C67.75,-157.15 67.59,-157.12 67.42,-157.08"/>
<polygon fill="#b75867" stroke="#b75867" points="70.67,-154.18 60.17,-155.58 69.25,-161.04 70.67,-154.18"/>
</g>
<!-- Set -->
<g id="node5" class="node">
<title>Set</title>
<g id="a_node5"><a xlink:href="/Knowledge/set.html" xlink:title="Set" target="_parent">
<path fill="#273434" stroke="#b75867" d="M421,-258C421,-258 391,-258 391,-258 385,-258 379,-252 379,-246 379,-246 379,-234 379,-234 379,-228 385,-222 391,-222 391,-222 421,-222 421,-222 427,-222 433,-228 433,-234 433,-234 433,-246 433,-246 433,-252 427,-258 421,-258"/>
<text text-anchor="middle" x="406" y="-236.9" font-family="sans" font-size="12.00" fill="#c4c7c7">Set</text>
</a>
</g>
</g>
<!-- Principle of partitions&#45;&gt;Set -->
<g id="edge5" class="edge">
<title>Principle of partitions&#45;&gt;Set</title>
<path fill="none" stroke="#b75867" d="M194.2,-185.93C196.83,-186.63 199.44,-187.33 202,-188 260.37,-203.4 328.36,-220.68 368.98,-230.94"/>
<polygon fill="#b75867" stroke="#b75867" points="368.14,-234.34 378.69,-233.39 369.85,-227.55 368.14,-234.34"/>
</g>
<!-- Combinatoric principles -->
<g id="node6" class="node">
<title>Combinatoric principles</title>
<g id="a_node6"><a xlink:href="/Knowledge/combinatoric_principles.html" xlink:title="Combinatoric principles" target="_parent">
<path fill="none" stroke="#b75867" d="M328,-187C328,-187 214,-187 214,-187 208,-187 202,-181 202,-175 202,-175 202,-163 202,-163 202,-157 208,-151 214,-151 214,-151 328,-151 328,-151 334,-151 340,-157 340,-163 340,-163 340,-175 340,-175 340,-181 334,-187 328,-187"/>
<text text-anchor="middle" x="271" y="-165.9" font-family="sans" font-size="12.00" fill="#c4c7c7">Combinatoric principles</text>
</a>
</g>
</g>
<!-- Principle of partitions&#45;&gt;Combinatoric principles -->
<g id="edge6" class="edge">
<title>Principle of partitions&#45;&gt;Combinatoric principles</title>
<path fill="none" stroke="#ffffff" d="M201.4,-169C201.56,-169 201.73,-169 201.89,-169"/>
<polygon fill="#ffffff" stroke="#ffffff" points="204.14,-165.5 194.14,-169 204.14,-172.5 204.14,-165.5"/>
</g>
<!-- Class of equivalence&#45;&gt;Partition -->
<g id="edge7" class="edge">
<title>Class of equivalence&#45;&gt;Partition</title>
<path fill="none" stroke="#b75867" d="M71.19,-141.62C70.83,-141.69 70.48,-141.76 70.13,-141.83"/>
<polygon fill="#b75867" stroke="#b75867" points="69.3,-138.43 60.17,-143.8 70.66,-145.29 69.3,-138.43"/>
</g>
<!-- Class of equivalence&#45;&gt;Relation of Equivalence -->
<g id="edge9" class="edge">
<title>Class of equivalence&#45;&gt;Relation of Equivalence</title>
<path fill="none" stroke="#b75867" d="M190.52,-129C191.63,-129 192.73,-129 193.84,-129"/>
<polygon fill="#b75867" stroke="#b75867" points="193.85,-132.5 203.85,-129 193.85,-125.5 193.85,-132.5"/>
</g>
<!-- Class of equivalence&#45;&gt;Set -->
<g id="edge8" class="edge">
<title>Class of equivalence&#45;&gt;Set</title>
<path fill="none" stroke="#b75867" d="M190.71,-142.2C194.52,-142.86 198.31,-143.47 202,-144 217.22,-146.17 328.85,-143.42 340,-154 360.79,-173.74 330.35,-195.41 348,-218 353.35,-224.85 361.12,-229.57 369.2,-232.82"/>
<polygon fill="#b75867" stroke="#b75867" points="368.12,-236.15 378.72,-236 370.34,-229.51 368.12,-236.15"/>
</g>
<!-- Principle of division -->
<g id="node7" class="node">
<title>Principle of division</title>
<g id="a_node7"><a xlink:href="/Knowledge/principle_of_division.html" xlink:title="Principle of division" target="_parent">
<path fill="none" stroke="#b75867" d="M452,-36C452,-36 360,-36 360,-36 354,-36 348,-30 348,-24 348,-24 348,-12 348,-12 348,-6 354,0 360,0 360,0 452,0 452,0 458,0 464,-6 464,-12 464,-12 464,-24 464,-24 464,-30 458,-36 452,-36"/>
<text text-anchor="middle" x="406" y="-14.9" font-family="sans" font-size="12.00" fill="#c4c7c7">Principle of division</text>
</a>
</g>
</g>
<!-- Class of equivalence&#45;&gt;Principle of division -->
<g id="edge10" class="edge">
<title>Class of equivalence&#45;&gt;Principle of division</title>
<path fill="none" stroke="#ffffff" d="M158.11,-103.84C170.56,-93.02 186.18,-81.03 202,-73 248.24,-49.53 305.64,-35.18 347.59,-27.05"/>
<polygon fill="#ffffff" stroke="#ffffff" points="155.53,-101.46 150.41,-110.74 160.2,-106.67 155.53,-101.46"/>
</g>
<!-- Relations -->
<g id="node8" class="node">
<title>Relations</title>
<g id="a_node8"><a xlink:href="/Knowledge/relations.html" xlink:title="Relations" target="_parent">
<path fill="none" stroke="#b75867" d="M426,-73C426,-73 386,-73 386,-73 380,-73 374,-67 374,-61 374,-61 374,-49 374,-49 374,-43 380,-37 386,-37 386,-37 426,-37 426,-37 432,-37 438,-43 438,-49 438,-49 438,-61 438,-61 438,-67 432,-73 426,-73"/>
<text text-anchor="middle" x="406" y="-51.9" font-family="sans" font-size="12.00" fill="#c4c7c7">Relations</text>
</a>
</g>
</g>
<!-- Class of equivalence&#45;&gt;Relations -->
<g id="edge11" class="edge">
<title>Class of equivalence&#45;&gt;Relations</title>
<path fill="none" stroke="#ffffff" d="M200.34,-110.48C255.88,-95.42 331.67,-74.88 373.69,-63.49"/>
<polygon fill="#ffffff" stroke="#ffffff" points="199.3,-107.13 190.57,-113.13 201.13,-113.89 199.3,-107.13"/>
</g>
<!-- Relation of Equivalence&#45;&gt;Partition -->
<g id="edge14" class="edge">
<title>Relation of Equivalence&#45;&gt;Partition</title>
<path fill="none" stroke="#b75867" d="M203.78,-143.73C200.48,-144.21 197.21,-144.64 194,-145 151.99,-149.76 103.52,-150.67 70.43,-150.4"/>
<polygon fill="#b75867" stroke="#b75867" points="70.3,-146.9 60.25,-150.27 70.21,-153.9 70.3,-146.9"/>
</g>
<!-- Relation of Equivalence&#45;&gt;Class of equivalence -->
<g id="edge12" class="edge">
<title>Relation of Equivalence&#45;&gt;Class of equivalence</title>
<path fill="none" stroke="#b75867" d="M203.85,-129.75C202.87,-129.75 201.9,-129.75 200.93,-129.75"/>
<polygon fill="#b75867" stroke="#b75867" points="200.53,-126.25 190.52,-129.74 200.52,-133.25 200.53,-126.25"/>
</g>
<!-- Relation of Equivalence&#45;&gt;Set -->
<g id="edge13" class="edge">
<title>Relation of Equivalence&#45;&gt;Set</title>
<path fill="none" stroke="#b75867" d="M336.45,-147.21C337.71,-148.4 338.9,-149.66 340,-151 359.05,-174.16 329.6,-194.32 348,-218 353.38,-224.92 361.23,-229.67 369.39,-232.92"/>
<polygon fill="#b75867" stroke="#b75867" points="368.39,-236.28 378.99,-236.1 370.59,-229.63 368.39,-236.28"/>
</g>
<!-- Relation of Equivalence&#45;&gt;Principle of division -->
<g id="edge19" class="edge">
<title>Relation of Equivalence&#45;&gt;Principle of division</title>
<path fill="none" stroke="#ffffff" d="M289.21,-102.49C303.07,-82.94 324.13,-56.9 348,-40 349.9,-38.65 351.9,-37.37 353.96,-36.16"/>
<polygon fill="#ffffff" stroke="#ffffff" points="286.17,-100.74 283.37,-110.96 291.93,-104.72 286.17,-100.74"/>
</g>
<!-- Relation of Equivalence&#45;&gt;Relations -->
<g id="edge20" class="edge">
<title>Relation of Equivalence&#45;&gt;Relations</title>
<path fill="none" stroke="#ffffff" d="M316.87,-105.46C324.99,-100.25 333.06,-94.36 340,-88 344.45,-83.91 343.21,-80.68 348,-77 355.57,-71.18 364.86,-66.74 373.73,-63.42"/>
<polygon fill="#ffffff" stroke="#ffffff" points="314.8,-102.63 308.11,-110.84 318.46,-108.59 314.8,-102.63"/>
</g>
<!-- Transitive Relation -->
<g id="node9" class="node">
<title>Transitive Relation</title>
<g id="a_node9"><a xlink:href="/Knowledge/transitive_relation.html" xlink:title="Transitive Relation" target="_parent">
<path fill="#273434" stroke="#b75867" d="M449,-147C449,-147 363,-147 363,-147 357,-147 351,-141 351,-135 351,-135 351,-123 351,-123 351,-117 357,-111 363,-111 363,-111 449,-111 449,-111 455,-111 461,-117 461,-123 461,-123 461,-135 461,-135 461,-141 455,-147 449,-147"/>
<text text-anchor="middle" x="406" y="-125.9" font-family="sans" font-size="12.00" fill="#c4c7c7">Transitive Relation</text>
</a>
</g>
</g>
<!-- Relation of Equivalence&#45;&gt;Transitive Relation -->
<g id="edge15" class="edge">
<title>Relation of Equivalence&#45;&gt;Transitive Relation</title>
<path fill="none" stroke="#b75867" d="M338.11,-129C339.05,-129 339.99,-129 340.93,-129"/>
<polygon fill="#b75867" stroke="#b75867" points="340.95,-132.5 350.95,-129 340.95,-125.5 340.95,-132.5"/>
</g>
<!-- Symmetric Relation -->
<g id="node10" class="node">
<title>Symmetric Relation</title>
<g id="a_node10"><a xlink:href="/Knowledge/symmetric_relation.html" xlink:title="Symmetric Relation" target="_parent">
<path fill="#273434" stroke="#b75867" d="M451.5,-110C451.5,-110 360.5,-110 360.5,-110 354.5,-110 348.5,-104 348.5,-98 348.5,-98 348.5,-86 348.5,-86 348.5,-80 354.5,-74 360.5,-74 360.5,-74 451.5,-74 451.5,-74 457.5,-74 463.5,-80 463.5,-86 463.5,-86 463.5,-98 463.5,-98 463.5,-104 457.5,-110 451.5,-110"/>
<text text-anchor="middle" x="406" y="-88.9" font-family="sans" font-size="12.00" fill="#c4c7c7">Symmetric Relation</text>
</a>
</g>
</g>
<!-- Relation of Equivalence&#45;&gt;Symmetric Relation -->
<g id="edge16" class="edge">
<title>Relation of Equivalence&#45;&gt;Symmetric Relation</title>
<path fill="none" stroke="#b75867" d="M336.94,-110.93C337.54,-110.77 338.14,-110.6 338.73,-110.43"/>
<polygon fill="#b75867" stroke="#b75867" points="339.69,-113.8 348.39,-107.75 337.81,-107.06 339.69,-113.8"/>
</g>
<!-- Reflexive Relation -->
<g id="node11" class="node">
<title>Reflexive Relation</title>
<g id="a_node11"><a xlink:href="/Knowledge/reflexive_relation.html" xlink:title="Reflexive Relation" target="_parent">
<path fill="#273434" stroke="#b75867" d="M447,-221C447,-221 365,-221 365,-221 359,-221 353,-215 353,-209 353,-209 353,-197 353,-197 353,-191 359,-185 365,-185 365,-185 447,-185 447,-185 453,-185 459,-191 459,-197 459,-197 459,-209 459,-209 459,-215 453,-221 447,-221"/>
<text text-anchor="middle" x="406" y="-199.9" font-family="sans" font-size="12.00" fill="#c4c7c7">Reflexive Relation</text>
</a>
</g>
</g>
<!-- Relation of Equivalence&#45;&gt;Reflexive Relation -->
<g id="edge17" class="edge">
<title>Relation of Equivalence&#45;&gt;Reflexive Relation</title>
<path fill="none" stroke="#b75867" d="M335.92,-147.19C337.35,-148.38 338.72,-149.65 340,-151 347.57,-158.98 342.3,-166.77 346.84,-177.03"/>
<polygon fill="#b75867" stroke="#b75867" points="344.05,-179.15 352.6,-185.41 349.82,-175.18 344.05,-179.15"/>
</g>
<!-- Relation -->
<g id="node12" class="node">
<title>Relation</title>
<g id="a_node12"><a xlink:href="/Knowledge/relation.html" xlink:title="Relation" target="_parent">
<path fill="#273434" stroke="#b75867" d="M423.5,-184C423.5,-184 388.5,-184 388.5,-184 382.5,-184 376.5,-178 376.5,-172 376.5,-172 376.5,-160 376.5,-160 376.5,-154 382.5,-148 388.5,-148 388.5,-148 423.5,-148 423.5,-148 429.5,-148 435.5,-154 435.5,-160 435.5,-160 435.5,-172 435.5,-172 435.5,-178 429.5,-184 423.5,-184"/>
<text text-anchor="middle" x="406" y="-162.9" font-family="sans" font-size="12.00" fill="#c4c7c7">Relation</text>
</a>
</g>
</g>
<!-- Relation of Equivalence&#45;&gt;Relation -->
<g id="edge18" class="edge">
<title>Relation of Equivalence&#45;&gt;Relation</title>
<path fill="none" stroke="#b75867" d="M336.94,-147.07C347.11,-149.9 357.33,-152.74 366.64,-155.33"/>
<polygon fill="#b75867" stroke="#b75867" points="365.78,-158.72 376.35,-158.03 367.65,-151.98 365.78,-158.72"/>
</g>
</g>
</svg>
