<?xml version="1.0" encoding="UTF-8" standalone="no"?>
<!DOCTYPE svg PUBLIC "-//W3C//DTD SVG 1.1//EN"
 "http://www.w3.org/Graphics/SVG/1.1/DTD/svg11.dtd">
<!-- Generated by graphviz version 2.46.1 (0)
 -->
<!-- Title: Partial order Pages: 1 -->
<svg width="992pt" height="459pt"
 viewBox="0.00 0.00 992.00 458.58" xmlns="http://www.w3.org/2000/svg" xmlns:xlink="http://www.w3.org/1999/xlink">
<g id="graph0" class="graph" transform="scale(1 1) rotate(0) translate(4 454.58)">
<title>Partial order</title>
<polygon fill="#132020" stroke="transparent" points="-4,4 -4,-454.58 988,-454.58 988,4 -4,4"/>
<!-- Partial order -->
<g id="node1" class="node">
<title>Partial order</title>
<g id="a_node1"><a xlink:href="/Knowledge/partial_order.html" xlink:title="Partial order" target="_parent">
<path fill="#273434" stroke="#b75867" d="M67,-96.25C67,-96.25 12,-96.25 12,-96.25 6,-96.25 0,-90.25 0,-84.25 0,-84.25 0,-72.25 0,-72.25 0,-66.25 6,-60.25 12,-60.25 12,-60.25 67,-60.25 67,-60.25 73,-60.25 79,-66.25 79,-72.25 79,-72.25 79,-84.25 79,-84.25 79,-90.25 73,-96.25 67,-96.25"/>
<text text-anchor="middle" x="39.5" y="-75.15" font-family="sans" font-size="12.00" fill="#c4c7c7">Partial order</text>
</a>
</g>
</g>
<!-- Transitive Relation -->
<g id="node2" class="node">
<title>Transitive Relation</title>
<g id="a_node2"><a xlink:href="/Knowledge/transitive_relation.html" xlink:title="Transitive Relation" target="_parent">
<path fill="#273434" stroke="#b75867" d="M185,-86.25C185,-86.25 99,-86.25 99,-86.25 93,-86.25 87,-80.25 87,-74.25 87,-74.25 87,-62.25 87,-62.25 87,-56.25 93,-50.25 99,-50.25 99,-50.25 185,-50.25 185,-50.25 191,-50.25 197,-56.25 197,-62.25 197,-62.25 197,-74.25 197,-74.25 197,-80.25 191,-86.25 185,-86.25"/>
<text text-anchor="middle" x="142" y="-65.15" font-family="sans" font-size="12.00" fill="#c4c7c7">Transitive Relation</text>
</a>
</g>
</g>
<!-- Partial order&#45;&gt;Transitive Relation -->
<g id="edge1" class="edge">
<title>Partial order&#45;&gt;Transitive Relation</title>
<path fill="none" stroke="#b75867" d="M79.07,-74.41C79.23,-74.39 79.39,-74.38 79.55,-74.36"/>
<polygon fill="#b75867" stroke="#b75867" points="77.2,-78.11 86.81,-73.64 76.51,-71.15 77.2,-78.11"/>
</g>
<!-- Anti&#45;symmetric Relation -->
<g id="node3" class="node">
<title>Anti&#45;symmetric Relation</title>
<g id="a_node3"><a xlink:href="/Knowledge/anti-symmetric_relation.html" xlink:title="Anti&#45;symmetric Relation" target="_parent">
<path fill="#273434" stroke="#b75867" d="M397,-164.25C397,-164.25 284,-164.25 284,-164.25 278,-164.25 272,-158.25 272,-152.25 272,-152.25 272,-140.25 272,-140.25 272,-134.25 278,-128.25 284,-128.25 284,-128.25 397,-128.25 397,-128.25 403,-128.25 409,-134.25 409,-140.25 409,-140.25 409,-152.25 409,-152.25 409,-158.25 403,-164.25 397,-164.25"/>
<text text-anchor="middle" x="340.5" y="-143.15" font-family="sans" font-size="12.00" fill="#c4c7c7">Anti&#45;symmetric Relation</text>
</a>
</g>
</g>
<!-- Partial order&#45;&gt;Anti&#45;symmetric Relation -->
<g id="edge2" class="edge">
<title>Partial order&#45;&gt;Anti&#45;symmetric Relation</title>
<path fill="none" stroke="#b75867" d="M79.06,-87.4C81.75,-88.03 84.41,-88.65 87,-89.25 145.7,-102.82 212.17,-117.8 262.17,-129.01"/>
<polygon fill="#b75867" stroke="#b75867" points="261.42,-132.42 271.94,-131.19 262.95,-125.59 261.42,-132.42"/>
</g>
<!-- Reflexive Relation -->
<g id="node4" class="node">
<title>Reflexive Relation</title>
<g id="a_node4"><a xlink:href="/Knowledge/reflexive_relation.html" xlink:title="Reflexive Relation" target="_parent">
<path fill="#273434" stroke="#b75867" d="M592,-95.25C592,-95.25 510,-95.25 510,-95.25 504,-95.25 498,-89.25 498,-83.25 498,-83.25 498,-71.25 498,-71.25 498,-65.25 504,-59.25 510,-59.25 510,-59.25 592,-59.25 592,-59.25 598,-59.25 604,-65.25 604,-71.25 604,-71.25 604,-83.25 604,-83.25 604,-89.25 598,-95.25 592,-95.25"/>
<text text-anchor="middle" x="551" y="-74.15" font-family="sans" font-size="12.00" fill="#c4c7c7">Reflexive Relation</text>
</a>
</g>
</g>
<!-- Partial order&#45;&gt;Reflexive Relation -->
<g id="edge3" class="edge">
<title>Partial order&#45;&gt;Reflexive Relation</title>
<path fill="none" stroke="#b75867" d="M79.04,-82.71C81.73,-82.93 84.41,-83.11 87,-83.25 135.82,-85.86 148.11,-83.66 197,-83.25 298.94,-82.38 417.42,-80.11 487.92,-78.62"/>
<polygon fill="#b75867" stroke="#b75867" points="488.04,-82.12 497.97,-78.41 487.9,-75.12 488.04,-82.12"/>
</g>
<!-- Relation -->
<g id="node5" class="node">
<title>Relation</title>
<g id="a_node5"><a xlink:href="/Knowledge/relation.html" xlink:title="Relation" target="_parent">
<path fill="#273434" stroke="#b75867" d="M252,-284.25C252,-284.25 217,-284.25 217,-284.25 211,-284.25 205,-278.25 205,-272.25 205,-272.25 205,-260.25 205,-260.25 205,-254.25 211,-248.25 217,-248.25 217,-248.25 252,-248.25 252,-248.25 258,-248.25 264,-254.25 264,-260.25 264,-260.25 264,-272.25 264,-272.25 264,-278.25 258,-284.25 252,-284.25"/>
<text text-anchor="middle" x="234.5" y="-263.15" font-family="sans" font-size="12.00" fill="#c4c7c7">Relation</text>
</a>
</g>
</g>
<!-- Partial order&#45;&gt;Relation -->
<g id="edge4" class="edge">
<title>Partial order&#45;&gt;Relation</title>
<path fill="none" stroke="#b75867" d="M51.62,-96.26C60.41,-109.85 73.43,-128.58 87,-143.25 122.15,-181.23 168.8,-218.55 199.92,-241.94"/>
<polygon fill="#b75867" stroke="#b75867" points="198.15,-244.99 208.26,-248.16 202.33,-239.38 198.15,-244.99"/>
</g>
<!-- Linear order -->
<g id="node6" class="node">
<title>Linear order</title>
<g id="a_node6"><a xlink:href="/Knowledge/linear_order.html" xlink:title="Linear order" target="_parent">
<path fill="none" stroke="#b75867" d="M735.5,-101.25C735.5,-101.25 680.5,-101.25 680.5,-101.25 674.5,-101.25 668.5,-95.25 668.5,-89.25 668.5,-89.25 668.5,-77.25 668.5,-77.25 668.5,-71.25 674.5,-65.25 680.5,-65.25 680.5,-65.25 735.5,-65.25 735.5,-65.25 741.5,-65.25 747.5,-71.25 747.5,-77.25 747.5,-77.25 747.5,-89.25 747.5,-89.25 747.5,-95.25 741.5,-101.25 735.5,-101.25"/>
<text text-anchor="middle" x="708" y="-80.15" font-family="sans" font-size="12.00" fill="#c4c7c7">Linear order</text>
</a>
</g>
</g>
<!-- Partial order&#45;&gt;Linear order -->
<g id="edge5" class="edge">
<title>Partial order&#45;&gt;Linear order</title>
<path fill="none" stroke="#ffffff" d="M78.53,-56.06C81.34,-54.97 84.18,-54.01 87,-53.25 149.9,-36.27 168.35,-48.25 233.5,-48.25 233.5,-48.25 233.5,-48.25 341.5,-48.25 371.68,-48.25 584.12,-47.5 613,-56.25 617.01,-57.46 617.15,-59.6 621,-61.25 636.02,-67.68 653.34,-72.55 668.49,-76.06"/>
<polygon fill="#ffffff" stroke="#ffffff" points="76.88,-52.97 69.16,-60.23 79.72,-59.36 76.88,-52.97"/>
</g>
<!-- Linear extension -->
<g id="node7" class="node">
<title>Linear extension</title>
<g id="a_node7"><a xlink:href="/Knowledge/linear_extension.html" xlink:title="Linear extension" target="_parent">
<path fill="none" stroke="#b75867" d="M932,-101.25C932,-101.25 855,-101.25 855,-101.25 849,-101.25 843,-95.25 843,-89.25 843,-89.25 843,-77.25 843,-77.25 843,-71.25 849,-65.25 855,-65.25 855,-65.25 932,-65.25 932,-65.25 938,-65.25 944,-71.25 944,-77.25 944,-77.25 944,-89.25 944,-89.25 944,-95.25 938,-101.25 932,-101.25"/>
<text text-anchor="middle" x="893.5" y="-80.15" font-family="sans" font-size="12.00" fill="#c4c7c7">Linear extension</text>
</a>
</g>
</g>
<!-- Partial order&#45;&gt;Linear extension -->
<g id="edge6" class="edge">
<title>Partial order&#45;&gt;Linear extension</title>
<path fill="none" stroke="#ffffff" d="M66.46,-53.41C72.76,-48.63 79.78,-44.19 87,-41.25 147.61,-16.54 168.05,-26.25 233.5,-26.25 233.5,-26.25 233.5,-26.25 552,-26.25 660.02,-26.25 710.02,35.44 795,-31.25 805.86,-39.77 793.15,-51.59 803,-61.25 813.62,-71.67 828.34,-77.42 842.78,-80.52"/>
<polygon fill="#ffffff" stroke="#ffffff" points="63.88,-51 58.37,-60.05 68.32,-56.42 63.88,-51"/>
</g>
<!-- Relations -->
<g id="node8" class="node">
<title>Relations</title>
<g id="a_node8"><a xlink:href="/Knowledge/relations.html" xlink:title="Relations" target="_parent">
<path fill="none" stroke="#b75867" d="M469,-164.25C469,-164.25 429,-164.25 429,-164.25 423,-164.25 417,-158.25 417,-152.25 417,-152.25 417,-140.25 417,-140.25 417,-134.25 423,-128.25 429,-128.25 429,-128.25 469,-128.25 469,-128.25 475,-128.25 481,-134.25 481,-140.25 481,-140.25 481,-152.25 481,-152.25 481,-158.25 475,-164.25 469,-164.25"/>
<text text-anchor="middle" x="449" y="-143.15" font-family="sans" font-size="12.00" fill="#c4c7c7">Relations</text>
</a>
</g>
</g>
<!-- Partial order&#45;&gt;Relations -->
<g id="edge7" class="edge">
<title>Partial order&#45;&gt;Relations</title>
<path fill="none" stroke="#ffffff" d="M48.52,-106.32C70.41,-176.74 138.59,-359.83 272,-424.25 326.83,-450.72 363.05,-464.2 409,-424.25 448.17,-390.19 449.16,-220.35 448.38,-164.26"/>
<polygon fill="#ffffff" stroke="#ffffff" points="51.77,-104.96 45.52,-96.4 45.07,-106.99 51.77,-104.96"/>
</g>
<!-- Partial orders have no contours -->
<g id="node9" class="node">
<title>Partial orders have no contours</title>
<g id="a_node9"><a xlink:href="/Knowledge/partial_orders_have_no_contours.html" xlink:title="Partial orders have no contours" target="_parent">
<path fill="none" stroke="#b75867" d="M783,-64.25C783,-64.25 633,-64.25 633,-64.25 627,-64.25 621,-58.25 621,-52.25 621,-52.25 621,-40.25 621,-40.25 621,-34.25 627,-28.25 633,-28.25 633,-28.25 783,-28.25 783,-28.25 789,-28.25 795,-34.25 795,-40.25 795,-40.25 795,-52.25 795,-52.25 795,-58.25 789,-64.25 783,-64.25"/>
<text text-anchor="middle" x="708" y="-43.15" font-family="sans" font-size="12.00" fill="#c4c7c7">Partial orders have no contours</text>
</a>
</g>
</g>
<!-- Partial order&#45;&gt;Partial orders have no contours -->
<g id="edge8" class="edge">
<title>Partial order&#45;&gt;Partial orders have no contours</title>
<path fill="none" stroke="#ffffff" d="M74.28,-55.3C78.43,-53.28 82.72,-51.52 87,-50.25 149.46,-31.74 168.35,-45.25 233.5,-45.25 233.5,-45.25 233.5,-45.25 450,-45.25 506.89,-45.25 570.86,-45.5 620.75,-45.74"/>
<polygon fill="#ffffff" stroke="#ffffff" points="72.6,-52.23 65.48,-60.07 75.94,-58.38 72.6,-52.23"/>
</g>
<!-- Transitive Relation&#45;&gt;Partial order -->
<g id="edge10" class="edge">
<title>Transitive Relation&#45;&gt;Partial order</title>
<path fill="none" stroke="#ffffff" d="M79.55,-75.1C79.39,-75.11 79.23,-75.13 79.07,-75.14"/>
<polygon fill="#ffffff" stroke="#ffffff" points="77.19,-78.84 86.81,-74.39 76.51,-71.87 77.19,-78.84"/>
</g>
<!-- Transitive Relation&#45;&gt;Relation -->
<g id="edge9" class="edge">
<title>Transitive Relation&#45;&gt;Relation</title>
<path fill="none" stroke="#b75867" d="M152.89,-86.38C164.14,-107.28 182.8,-142.82 197,-174.25 206.61,-195.52 216.3,-220.12 223.28,-238.53"/>
<polygon fill="#b75867" stroke="#b75867" points="220.06,-239.93 226.86,-248.06 226.62,-237.47 220.06,-239.93"/>
</g>
<!-- Transitive Relation&#45;&gt;Linear order -->
<g id="edge11" class="edge">
<title>Transitive Relation&#45;&gt;Linear order</title>
<path fill="none" stroke="#ffffff" d="M207.32,-59.12C266.29,-53.87 282.84,-54.25 339.5,-54.25 339.5,-54.25 339.5,-54.25 450,-54.25 522.48,-54.25 541.23,-49.11 613,-59.25 613.37,-59.3 642.66,-66.78 668.44,-73.38"/>
<polygon fill="#ffffff" stroke="#ffffff" points="206.71,-55.66 197.06,-60.05 207.34,-62.63 206.71,-55.66"/>
</g>
<!-- Transitive Relation&#45;&gt;Relations -->
<g id="edge13" class="edge">
<title>Transitive Relation&#45;&gt;Relations</title>
<path fill="none" stroke="#ffffff" d="M206.81,-86.57C296.71,-107.59 324.38,-98.66 409,-127.25 411.57,-128.11 414.19,-129.11 416.79,-130.19"/>
<polygon fill="#ffffff" stroke="#ffffff" points="207.57,-83.15 197.03,-84.22 205.94,-89.96 207.57,-83.15"/>
</g>
<!-- Transitive Relation&#45;&gt;Partial orders have no contours -->
<g id="edge15" class="edge">
<title>Transitive Relation&#45;&gt;Partial orders have no contours</title>
<path fill="none" stroke="#ffffff" d="M207.11,-56.23C298.88,-47.87 503.72,-46.39 620.91,-46.18"/>
<polygon fill="#ffffff" stroke="#ffffff" points="206.63,-52.76 197.02,-57.23 207.32,-59.73 206.63,-52.76"/>
</g>
<!-- Transitive Closure -->
<g id="node10" class="node">
<title>Transitive Closure</title>
<g id="a_node10"><a xlink:href="/Knowledge/transitive_closure.html" xlink:title="Transitive Closure" target="_parent">
<path fill="none" stroke="#b75867" d="M592,-132.25C592,-132.25 510,-132.25 510,-132.25 504,-132.25 498,-126.25 498,-120.25 498,-120.25 498,-108.25 498,-108.25 498,-102.25 504,-96.25 510,-96.25 510,-96.25 592,-96.25 592,-96.25 598,-96.25 604,-102.25 604,-108.25 604,-108.25 604,-120.25 604,-120.25 604,-126.25 598,-132.25 592,-132.25"/>
<text text-anchor="middle" x="551" y="-111.15" font-family="sans" font-size="12.00" fill="#c4c7c7">Transitive Closure</text>
</a>
</g>
</g>
<!-- Transitive Relation&#45;&gt;Transitive Closure -->
<g id="edge12" class="edge">
<title>Transitive Relation&#45;&gt;Transitive Closure</title>
<path fill="none" stroke="#ffffff" d="M207.04,-75.49C287.42,-84.57 423.72,-99.97 497.99,-108.37"/>
<polygon fill="#ffffff" stroke="#ffffff" points="207.38,-72 197.05,-74.36 206.59,-78.96 207.38,-72"/>
</g>
<!-- Relation of Equivalence -->
<g id="node11" class="node">
<title>Relation of Equivalence</title>
<g id="a_node11"><a xlink:href="/Knowledge/relation_of_equivalence.html" xlink:title="Relation of Equivalence" target="_parent">
<path fill="none" stroke="#b75867" d="M763,-138.25C763,-138.25 653,-138.25 653,-138.25 647,-138.25 641,-132.25 641,-126.25 641,-126.25 641,-114.25 641,-114.25 641,-108.25 647,-102.25 653,-102.25 653,-102.25 763,-102.25 763,-102.25 769,-102.25 775,-108.25 775,-114.25 775,-114.25 775,-126.25 775,-126.25 775,-132.25 769,-138.25 763,-138.25"/>
<text text-anchor="middle" x="708" y="-117.15" font-family="sans" font-size="12.00" fill="#c4c7c7">Relation of Equivalence</text>
</a>
</g>
</g>
<!-- Transitive Relation&#45;&gt;Relation of Equivalence -->
<g id="edge14" class="edge">
<title>Transitive Relation&#45;&gt;Relation of Equivalence</title>
<path fill="none" stroke="#ffffff" d="M207.17,-62.84C245.54,-60.06 295.28,-57.25 339.5,-57.25 339.5,-57.25 339.5,-57.25 450,-57.25 468.12,-57.25 599.04,-50.69 613,-62.25 625.63,-72.7 609.6,-86.47 621,-98.25 626.58,-104 633.44,-108.33 640.83,-111.57"/>
<polygon fill="#ffffff" stroke="#ffffff" points="206.88,-59.35 197.17,-63.58 207.4,-66.33 206.88,-59.35"/>
</g>
<!-- Anti&#45;symmetric Relation&#45;&gt;Partial order -->
<g id="edge17" class="edge">
<title>Anti&#45;symmetric Relation&#45;&gt;Partial order</title>
<path fill="none" stroke="#ffffff" d="M262.17,-129.86C212.17,-118.8 145.7,-103.82 87,-90.25 84.41,-89.65 81.75,-89.03 79.06,-88.4"/>
<polygon fill="#ffffff" stroke="#ffffff" points="261.42,-133.28 271.94,-132.02 262.93,-126.45 261.42,-133.28"/>
</g>
<!-- Anti&#45;symmetric Relation&#45;&gt;Relation -->
<g id="edge16" class="edge">
<title>Anti&#45;symmetric Relation&#45;&gt;Relation</title>
<path fill="none" stroke="#b75867" d="M319.47,-164.25C305.41,-176.96 286.59,-194.75 272,-212.25 264.95,-220.7 258.06,-230.54 252.19,-239.5"/>
<polygon fill="#b75867" stroke="#b75867" points="249.15,-237.76 246.7,-248.07 255.04,-241.54 249.15,-237.76"/>
</g>
<!-- Anti&#45;symmetric Relation&#45;&gt;Relations -->
<g id="edge18" class="edge">
<title>Anti&#45;symmetric Relation&#45;&gt;Relations</title>
<path fill="none" stroke="#ffffff" d="M416.48,-146.25C416.63,-146.25 416.79,-146.25 416.95,-146.25"/>
<polygon fill="#ffffff" stroke="#ffffff" points="419.25,-142.75 409.25,-146.25 419.25,-149.75 419.25,-142.75"/>
</g>
<!-- Reflexive Relation&#45;&gt;Partial order -->
<g id="edge20" class="edge">
<title>Reflexive Relation&#45;&gt;Partial order</title>
<path fill="none" stroke="#ffffff" d="M487.92,-79.35C417.42,-81.11 298.94,-83.38 197,-84.25 148.11,-84.66 135.82,-86.86 87,-84.25 84.41,-84.11 81.73,-83.93 79.04,-83.71"/>
<polygon fill="#ffffff" stroke="#ffffff" points="488.06,-82.84 497.97,-79.09 487.88,-75.85 488.06,-82.84"/>
</g>
<!-- Reflexive Relation&#45;&gt;Relation -->
<g id="edge19" class="edge">
<title>Reflexive Relation&#45;&gt;Relation</title>
<path fill="none" stroke="#b75867" d="M497.73,-85.8C419.51,-98.23 280.26,-120.61 272,-128.25 241.68,-156.27 235.3,-206.15 234.59,-237.65"/>
<polygon fill="#b75867" stroke="#b75867" points="231.09,-237.94 234.54,-247.95 238.09,-237.97 231.09,-237.94"/>
</g>
<!-- Reflexive Relation&#45;&gt;Linear order -->
<g id="edge21" class="edge">
<title>Reflexive Relation&#45;&gt;Linear order</title>
<path fill="none" stroke="#ffffff" d="M614.29,-79.66C632.46,-80.36 651.8,-81.11 668.09,-81.74"/>
<polygon fill="#ffffff" stroke="#ffffff" points="614.17,-76.15 604.04,-79.26 613.9,-83.15 614.17,-76.15"/>
</g>
<!-- Reflexive Relation&#45;&gt;Relations -->
<g id="edge23" class="edge">
<title>Reflexive Relation&#45;&gt;Relations</title>
<path fill="none" stroke="#ffffff" d="M489.26,-100.07C489.17,-100.13 489.09,-100.19 489,-100.25 478.41,-107.68 469.06,-118.7 462.17,-128.1"/>
<polygon fill="#ffffff" stroke="#ffffff" points="491.06,-103.07 497.78,-94.87 487.42,-97.09 491.06,-103.07"/>
</g>
<!-- Reflexive Relation&#45;&gt;Partial orders have no contours -->
<g id="edge25" class="edge">
<title>Reflexive Relation&#45;&gt;Partial orders have no contours</title>
<path fill="none" stroke="#ffffff" d="M613.93,-64.86C616.22,-64.4 618.53,-63.94 620.84,-63.48"/>
<polygon fill="#ffffff" stroke="#ffffff" points="613.16,-61.44 604.04,-66.84 614.54,-68.31 613.16,-61.44"/>
</g>
<!-- Reflexive Relation&#45;&gt;Relation of Equivalence -->
<g id="edge24" class="edge">
<title>Reflexive Relation&#45;&gt;Relation of Equivalence</title>
<path fill="none" stroke="#ffffff" d="M614.03,-96.27C616.38,-96.95 618.71,-97.61 621,-98.25 627.38,-100.03 634.05,-101.84 640.72,-103.61"/>
<polygon fill="#ffffff" stroke="#ffffff" points="614.87,-92.87 604.29,-93.43 612.92,-99.59 614.87,-92.87"/>
</g>
<!-- Reflexive Closure -->
<g id="node12" class="node">
<title>Reflexive Closure</title>
<g id="a_node12"><a xlink:href="/Knowledge/reflexive_closure.html" xlink:title="Reflexive Closure" target="_parent">
<path fill="none" stroke="#b75867" d="M747,-181.25C747,-181.25 669,-181.25 669,-181.25 663,-181.25 657,-175.25 657,-169.25 657,-169.25 657,-157.25 657,-157.25 657,-151.25 663,-145.25 669,-145.25 669,-145.25 747,-145.25 747,-145.25 753,-145.25 759,-151.25 759,-157.25 759,-157.25 759,-169.25 759,-169.25 759,-175.25 753,-181.25 747,-181.25"/>
<text text-anchor="middle" x="708" y="-160.15" font-family="sans" font-size="12.00" fill="#c4c7c7">Reflexive Closure</text>
</a>
</g>
</g>
<!-- Reflexive Relation&#45;&gt;Reflexive Closure -->
<g id="edge22" class="edge">
<title>Reflexive Relation&#45;&gt;Reflexive Closure</title>
<path fill="none" stroke="#ffffff" d="M612.01,-98.15C612.35,-98.51 612.68,-98.87 613,-99.25 624.58,-112.63 609,-125.24 621,-138.25 630.38,-148.42 643.64,-154.54 656.93,-158.2"/>
<polygon fill="#ffffff" stroke="#ffffff" points="614.02,-95.26 604.13,-91.47 609.49,-100.6 614.02,-95.26"/>
</g>
<!-- Relation&#45;&gt;Partial order -->
<g id="edge27" class="edge">
<title>Relation&#45;&gt;Partial order</title>
<path fill="none" stroke="#ffffff" d="M198.82,-241.9C167.71,-218.68 121.74,-181.79 87,-144.25 73.24,-129.38 60.05,-110.33 51.26,-96.52"/>
<polygon fill="#ffffff" stroke="#ffffff" points="197.05,-244.94 207.18,-248.07 201.21,-239.31 197.05,-244.94"/>
</g>
<!-- Relation&#45;&gt;Transitive Relation -->
<g id="edge40" class="edge">
<title>Relation&#45;&gt;Transitive Relation</title>
<path fill="none" stroke="#ffffff" d="M223.02,-238.7C216.06,-220.51 206.49,-196.25 197,-175.25 182.63,-143.44 163.7,-107.43 152.49,-86.34"/>
<polygon fill="#ffffff" stroke="#ffffff" points="219.77,-240.01 226.6,-248.12 226.32,-237.52 219.77,-240.01"/>
</g>
<!-- Relation&#45;&gt;Anti&#45;symmetric Relation -->
<g id="edge34" class="edge">
<title>Relation&#45;&gt;Anti&#45;symmetric Relation</title>
<path fill="none" stroke="#ffffff" d="M251.46,-239.68C257.48,-230.37 264.66,-220.05 272,-211.25 286.17,-194.25 304.33,-176.97 318.25,-164.5"/>
<polygon fill="#ffffff" stroke="#ffffff" points="248.45,-237.89 246.08,-248.21 254.37,-241.62 248.45,-237.89"/>
</g>
<!-- Relation&#45;&gt;Reflexive Relation -->
<g id="edge32" class="edge">
<title>Relation&#45;&gt;Reflexive Relation</title>
<path fill="none" stroke="#ffffff" d="M234.58,-237.43C235.24,-205.69 241.51,-155.42 272,-127.25 280.26,-119.61 419.51,-97.23 497.73,-85.17"/>
<polygon fill="#ffffff" stroke="#ffffff" points="231.08,-237.81 234.55,-247.82 238.08,-237.83 231.08,-237.81"/>
</g>
<!-- Relation&#45;&gt;Linear order -->
<g id="edge29" class="edge">
<title>Relation&#45;&gt;Linear order</title>
<path fill="none" stroke="#ffffff" d="M274.02,-272.39C365.28,-286.52 588.9,-318.35 613,-295.25 628.25,-280.62 607.69,-121.66 621,-105.25 632.26,-91.36 650.97,-85.54 668.07,-83.33"/>
<polygon fill="#ffffff" stroke="#ffffff" points="274.49,-268.93 264.07,-270.84 273.41,-275.84 274.49,-268.93"/>
</g>
<!-- Relation&#45;&gt;Relations -->
<g id="edge39" class="edge">
<title>Relation&#45;&gt;Relations</title>
<path fill="none" stroke="#ffffff" d="M273,-245.07C313.85,-222 378.46,-185.52 416.69,-163.93"/>
<polygon fill="#ffffff" stroke="#ffffff" points="271.15,-242.1 264.16,-250.06 274.59,-248.19 271.15,-242.1"/>
</g>
<!-- Relation&#45;&gt;Relation of Equivalence -->
<g id="edge41" class="edge">
<title>Relation&#45;&gt;Relation of Equivalence</title>
<path fill="none" stroke="#ffffff" d="M258.98,-290.95C263.02,-293.92 267.41,-296.52 272,-298.25 289.73,-304.92 599.26,-311.29 613,-298.25 625.43,-286.45 610.29,-157.62 621,-144.25 626.23,-137.71 633.08,-132.87 640.64,-129.29"/>
<polygon fill="#ffffff" stroke="#ffffff" points="261.13,-288.18 251.22,-284.45 256.64,-293.55 261.13,-288.18"/>
</g>
<!-- Relation&#45;&gt;Reflexive Closure -->
<g id="edge36" class="edge">
<title>Relation&#45;&gt;Reflexive Closure</title>
<path fill="none" stroke="#ffffff" d="M257.17,-291.53C261.68,-295.4 266.69,-298.88 272,-301.25 299.89,-313.66 379.08,-305.21 409,-311.25 418.2,-313.1 479.74,-336.73 489,-338.25 516.19,-342.71 589.35,-352.39 613,-338.25 671.31,-303.38 695.54,-218.54 703.61,-181.29"/>
<polygon fill="#ffffff" stroke="#ffffff" points="259.29,-288.71 249.65,-284.32 254.45,-293.77 259.29,-288.71"/>
</g>
<!-- Descartes Product -->
<g id="node13" class="node">
<title>Descartes Product</title>
<g id="a_node13"><a xlink:href="/Knowledge/descartes_product.html" xlink:title="Descartes Product" target="_parent">
<path fill="#273434" stroke="#b75867" d="M382.5,-424.25C382.5,-424.25 298.5,-424.25 298.5,-424.25 292.5,-424.25 286.5,-418.25 286.5,-412.25 286.5,-412.25 286.5,-400.25 286.5,-400.25 286.5,-394.25 292.5,-388.25 298.5,-388.25 298.5,-388.25 382.5,-388.25 382.5,-388.25 388.5,-388.25 394.5,-394.25 394.5,-400.25 394.5,-400.25 394.5,-412.25 394.5,-412.25 394.5,-418.25 388.5,-424.25 382.5,-424.25"/>
<text text-anchor="middle" x="340.5" y="-403.15" font-family="sans" font-size="12.00" fill="#c4c7c7">Descartes Product</text>
</a>
</g>
</g>
<!-- Relation&#45;&gt;Descartes Product -->
<g id="edge26" class="edge">
<title>Relation&#45;&gt;Descartes Product</title>
<path fill="none" stroke="#b75867" d="M236.11,-284.43C237.95,-310.11 245.06,-356.9 272,-384.25 273.82,-386.09 275.79,-387.78 277.88,-389.33"/>
<polygon fill="#b75867" stroke="#b75867" points="276.1,-392.35 286.45,-394.62 279.78,-386.39 276.1,-392.35"/>
</g>
<!-- Chain -->
<g id="node14" class="node">
<title>Chain</title>
<g id="a_node14"><a xlink:href="/Knowledge/chain.html" xlink:title="Chain" target="_parent">
<path fill="none" stroke="#b75867" d="M908.5,-161.25C908.5,-161.25 878.5,-161.25 878.5,-161.25 872.5,-161.25 866.5,-155.25 866.5,-149.25 866.5,-149.25 866.5,-137.25 866.5,-137.25 866.5,-131.25 872.5,-125.25 878.5,-125.25 878.5,-125.25 908.5,-125.25 908.5,-125.25 914.5,-125.25 920.5,-131.25 920.5,-137.25 920.5,-137.25 920.5,-149.25 920.5,-149.25 920.5,-155.25 914.5,-161.25 908.5,-161.25"/>
<text text-anchor="middle" x="893.5" y="-140.15" font-family="sans" font-size="12.00" fill="#c4c7c7">Chain</text>
</a>
</g>
</g>
<!-- Relation&#45;&gt;Chain -->
<g id="edge28" class="edge">
<title>Relation&#45;&gt;Chain</title>
<path fill="none" stroke="#ffffff" d="M254.81,-291.69C259.84,-296.67 265.66,-301.27 272,-304.25 299.63,-317.23 382.32,-299.41 409,-314.25 414.28,-317.18 411.94,-321.93 417,-325.25 444.41,-343.22 456.42,-337.67 489,-341.25 543.78,-347.26 560.53,-358.09 613,-341.25 711.88,-309.51 718.09,-265.04 803,-205.25 824.17,-190.34 848.32,-173.63 866.19,-161.32"/>
<polygon fill="#ffffff" stroke="#ffffff" points="257.35,-289.28 248.02,-284.26 252.18,-294 257.35,-289.28"/>
</g>
<!-- Partial function -->
<g id="node15" class="node">
<title>Partial function</title>
<g id="a_node15"><a xlink:href="/Knowledge/partial_function.html" xlink:title="Partial function" target="_parent">
<path fill="none" stroke="#b75867" d="M375.5,-384.25C375.5,-384.25 305.5,-384.25 305.5,-384.25 299.5,-384.25 293.5,-378.25 293.5,-372.25 293.5,-372.25 293.5,-360.25 293.5,-360.25 293.5,-354.25 299.5,-348.25 305.5,-348.25 305.5,-348.25 375.5,-348.25 375.5,-348.25 381.5,-348.25 387.5,-354.25 387.5,-360.25 387.5,-360.25 387.5,-372.25 387.5,-372.25 387.5,-378.25 381.5,-384.25 375.5,-384.25"/>
<text text-anchor="middle" x="340.5" y="-363.15" font-family="sans" font-size="12.00" fill="#c4c7c7">Partial function</text>
</a>
</g>
</g>
<!-- Relation&#45;&gt;Partial function -->
<g id="edge30" class="edge">
<title>Relation&#45;&gt;Partial function</title>
<path fill="none" stroke="#ffffff" d="M242.53,-294.34C248.02,-310.95 257.25,-331.21 272,-344.25 278.09,-349.64 285.53,-353.71 293.22,-356.79"/>
<polygon fill="#ffffff" stroke="#ffffff" points="245.82,-293.13 239.58,-284.57 239.12,-295.16 245.82,-293.13"/>
</g>
<!-- Total function -->
<g id="node16" class="node">
<title>Total function</title>
<g id="a_node16"><a xlink:href="/Knowledge/total_function.html" xlink:title="Total function" target="_parent">
<path fill="none" stroke="#b75867" d="M371.5,-347.25C371.5,-347.25 309.5,-347.25 309.5,-347.25 303.5,-347.25 297.5,-341.25 297.5,-335.25 297.5,-335.25 297.5,-323.25 297.5,-323.25 297.5,-317.25 303.5,-311.25 309.5,-311.25 309.5,-311.25 371.5,-311.25 371.5,-311.25 377.5,-311.25 383.5,-317.25 383.5,-323.25 383.5,-323.25 383.5,-335.25 383.5,-335.25 383.5,-341.25 377.5,-347.25 371.5,-347.25"/>
<text text-anchor="middle" x="340.5" y="-326.15" font-family="sans" font-size="12.00" fill="#c4c7c7">Total function</text>
</a>
</g>
</g>
<!-- Relation&#45;&gt;Total function -->
<g id="edge31" class="edge">
<title>Relation&#45;&gt;Total function</title>
<path fill="none" stroke="#ffffff" d="M255.15,-292.55C260.17,-297.98 265.89,-303.25 272,-307.25 279.63,-312.24 288.49,-316.18 297.23,-319.27"/>
<polygon fill="#ffffff" stroke="#ffffff" points="257.51,-289.92 248.34,-284.61 252.2,-294.48 257.51,-289.92"/>
</g>
<!-- Symmetric Closure -->
<g id="node17" class="node">
<title>Symmetric Closure</title>
<g id="a_node17"><a xlink:href="/Knowledge/symmetric_closure.html" xlink:title="Symmetric Closure" target="_parent">
<path fill="none" stroke="#b75867" d="M594.5,-261.25C594.5,-261.25 507.5,-261.25 507.5,-261.25 501.5,-261.25 495.5,-255.25 495.5,-249.25 495.5,-249.25 495.5,-237.25 495.5,-237.25 495.5,-231.25 501.5,-225.25 507.5,-225.25 507.5,-225.25 594.5,-225.25 594.5,-225.25 600.5,-225.25 606.5,-231.25 606.5,-237.25 606.5,-237.25 606.5,-249.25 606.5,-249.25 606.5,-255.25 600.5,-261.25 594.5,-261.25"/>
<text text-anchor="middle" x="551" y="-240.15" font-family="sans" font-size="12.00" fill="#c4c7c7">Symmetric Closure</text>
</a>
</g>
</g>
<!-- Relation&#45;&gt;Symmetric Closure -->
<g id="edge33" class="edge">
<title>Relation&#45;&gt;Symmetric Closure</title>
<path fill="none" stroke="#ffffff" d="M274.37,-263.4C329.9,-259.34 432.19,-251.86 495.33,-247.25"/>
<polygon fill="#ffffff" stroke="#ffffff" points="273.96,-259.92 264.24,-264.14 274.47,-266.91 273.96,-259.92"/>
</g>
<!-- Symmetric Relation -->
<g id="node18" class="node">
<title>Symmetric Relation</title>
<g id="a_node18"><a xlink:href="/Knowledge/symmetric_relation.html" xlink:title="Symmetric Relation" target="_parent">
<path fill="none" stroke="#b75867" d="M596.5,-341.25C596.5,-341.25 505.5,-341.25 505.5,-341.25 499.5,-341.25 493.5,-335.25 493.5,-329.25 493.5,-329.25 493.5,-317.25 493.5,-317.25 493.5,-311.25 499.5,-305.25 505.5,-305.25 505.5,-305.25 596.5,-305.25 596.5,-305.25 602.5,-305.25 608.5,-311.25 608.5,-317.25 608.5,-317.25 608.5,-329.25 608.5,-329.25 608.5,-335.25 602.5,-341.25 596.5,-341.25"/>
<text text-anchor="middle" x="551" y="-320.15" font-family="sans" font-size="12.00" fill="#c4c7c7">Symmetric Relation</text>
</a>
</g>
</g>
<!-- Relation&#45;&gt;Symmetric Relation -->
<g id="edge35" class="edge">
<title>Relation&#45;&gt;Symmetric Relation</title>
<path fill="none" stroke="#ffffff" d="M235.65,-294.39C237.48,-321.59 244.99,-361.48 272,-381.25 296.57,-399.23 379.13,-387.15 409,-381.25 447.56,-373.63 488.83,-355.33 516.69,-341.31"/>
<polygon fill="#ffffff" stroke="#ffffff" points="239.14,-294.14 235.18,-284.31 232.15,-294.46 239.14,-294.14"/>
</g>
<!-- Anti&#45;reflexive relation -->
<g id="node19" class="node">
<title>Anti&#45;reflexive relation</title>
<g id="a_node19"><a xlink:href="/Knowledge/anti-reflexive_relation.html" xlink:title="Anti&#45;reflexive relation" target="_parent">
<path fill="none" stroke="#b75867" d="M601,-298.25C601,-298.25 501,-298.25 501,-298.25 495,-298.25 489,-292.25 489,-286.25 489,-286.25 489,-274.25 489,-274.25 489,-268.25 495,-262.25 501,-262.25 501,-262.25 601,-262.25 601,-262.25 607,-262.25 613,-268.25 613,-274.25 613,-274.25 613,-286.25 613,-286.25 613,-292.25 607,-298.25 601,-298.25"/>
<text text-anchor="middle" x="551" y="-277.15" font-family="sans" font-size="12.00" fill="#c4c7c7">Anti&#45;reflexive relation</text>
</a>
</g>
</g>
<!-- Relation&#45;&gt;Anti&#45;reflexive relation -->
<g id="edge37" class="edge">
<title>Relation&#45;&gt;Anti&#45;reflexive relation</title>
<path fill="none" stroke="#ffffff" d="M274.37,-267.98C328.01,-270.37 425.29,-274.7 488.77,-277.52"/>
<polygon fill="#ffffff" stroke="#ffffff" points="274.39,-264.47 264.24,-267.53 274.08,-271.47 274.39,-264.47"/>
</g>
<!-- Strongly Anti&#45;symmetric Relation -->
<g id="node20" class="node">
<title>Strongly Anti&#45;symmetric Relation</title>
<g id="a_node20"><a xlink:href="/Knowledge/strongly_anti-symmetric_relation.html" xlink:title="Strongly Anti&#45;symmetric Relation" target="_parent">
<path fill="none" stroke="#b75867" d="M972,-241.25C972,-241.25 815,-241.25 815,-241.25 809,-241.25 803,-235.25 803,-229.25 803,-229.25 803,-217.25 803,-217.25 803,-211.25 809,-205.25 815,-205.25 815,-205.25 972,-205.25 972,-205.25 978,-205.25 984,-211.25 984,-217.25 984,-217.25 984,-229.25 984,-229.25 984,-235.25 978,-241.25 972,-241.25"/>
<text text-anchor="middle" x="893.5" y="-220.15" font-family="sans" font-size="12.00" fill="#c4c7c7">Strongly Anti&#45;symmetric Relation</text>
</a>
</g>
</g>
<!-- Relation&#45;&gt;Strongly Anti&#45;symmetric Relation -->
<g id="edge38" class="edge">
<title>Relation&#45;&gt;Strongly Anti&#45;symmetric Relation</title>
<path fill="none" stroke="#ffffff" d="M238.08,-294.4C242.41,-334.63 252.63,-405.45 272,-421.25 332.65,-470.69 369.75,-426.25 448,-426.25 448,-426.25 448,-426.25 552,-426.25 665.56,-426.25 701.88,-412.25 795,-347.25 835.65,-318.88 867.56,-268.64 882.76,-241.63"/>
<polygon fill="#ffffff" stroke="#ffffff" points="241.56,-294 237.06,-284.41 234.6,-294.71 241.56,-294"/>
</g>
<!-- Linear order&#45;&gt;Partial order -->
<g id="edge42" class="edge">
<title>Linear order&#45;&gt;Partial order</title>
<path fill="none" stroke="#b75867" d="M668.49,-76.99C653.34,-73.55 636.02,-68.68 621,-62.25 617.15,-60.6 617.01,-58.46 613,-57.25 584.12,-48.5 371.68,-49.25 341.5,-49.25 233.5,-49.25 233.5,-49.25 233.5,-49.25 168.35,-49.25 149.9,-37.27 87,-54.25 84.84,-54.83 82.68,-55.53 80.52,-56.31"/>
<polygon fill="#b75867" stroke="#b75867" points="79.06,-53.13 71.2,-60.23 81.77,-59.58 79.06,-53.13"/>
</g>
<!-- Linear order&#45;&gt;Transitive Relation -->
<g id="edge43" class="edge">
<title>Linear order&#45;&gt;Transitive Relation</title>
<path fill="none" stroke="#b75867" d="M668.44,-74.2C642.66,-67.78 613.37,-60.3 613,-60.25 541.23,-50.11 522.48,-55.25 450,-55.25 339.5,-55.25 339.5,-55.25 339.5,-55.25 282.84,-55.25 266.29,-54.87 207.32,-60.12"/>
<polygon fill="#b75867" stroke="#b75867" points="206.71,-56.66 197.06,-61.05 207.34,-63.63 206.71,-56.66"/>
</g>
<!-- Linear order&#45;&gt;Reflexive Relation -->
<g id="edge45" class="edge">
<title>Linear order&#45;&gt;Reflexive Relation</title>
<path fill="none" stroke="#b75867" d="M668.09,-82.4C651.8,-81.85 632.46,-81.13 614.29,-80.4"/>
<polygon fill="#b75867" stroke="#b75867" points="614.18,-76.89 604.04,-79.97 613.89,-83.88 614.18,-76.89"/>
</g>
<!-- Linear order&#45;&gt;Relation -->
<g id="edge46" class="edge">
<title>Linear order&#45;&gt;Relation</title>
<path fill="none" stroke="#b75867" d="M668.07,-84.24C650.97,-86.54 632.26,-92.36 621,-106.25 607.69,-122.66 628.25,-281.62 613,-296.25 588.9,-319.35 365.28,-287.52 274.02,-272.89"/>
<polygon fill="#b75867" stroke="#b75867" points="274.5,-269.43 264.07,-271.28 273.38,-276.34 274.5,-269.43"/>
</g>
<!-- Linear order&#45;&gt;Linear extension -->
<g id="edge47" class="edge">
<title>Linear order&#45;&gt;Linear extension</title>
<path fill="none" stroke="#ffffff" d="M758.02,-83.25C784.24,-83.25 816.47,-83.25 842.8,-83.25"/>
<polygon fill="#ffffff" stroke="#ffffff" points="757.92,-79.75 747.92,-83.25 757.92,-86.75 757.92,-79.75"/>
</g>
<!-- Linear order&#45;&gt;Relations -->
<g id="edge48" class="edge">
<title>Linear order&#45;&gt;Relations</title>
<path fill="none" stroke="#ffffff" d="M658.24,-88.03C644.81,-91.26 631.16,-96.79 621,-106.25 612.77,-113.91 621.85,-123.31 613,-130.25 602.12,-138.77 502.71,-138.47 489,-140.25 486.41,-140.58 483.73,-140.97 481.04,-141.39"/>
<polygon fill="#ffffff" stroke="#ffffff" points="659.3,-91.39 668.41,-85.98 657.91,-84.53 659.3,-91.39"/>
</g>
<!-- Linear order&#45;&gt;Strongly Anti&#45;symmetric Relation -->
<g id="edge44" class="edge">
<title>Linear order&#45;&gt;Strongly Anti&#45;symmetric Relation</title>
<path fill="none" stroke="#b75867" d="M747.77,-83.9C764.63,-86.26 783.18,-92.04 795,-105.25 812.06,-124.31 789.5,-140.52 803,-162.25 812.62,-177.73 827.8,-190.24 842.94,-199.8"/>
<polygon fill="#b75867" stroke="#b75867" points="841.42,-202.98 851.8,-205.09 845.01,-196.96 841.42,-202.98"/>
</g>
<!-- Linear extension&#45;&gt;Partial order -->
<g id="edge50" class="edge">
<title>Linear extension&#45;&gt;Partial order</title>
<path fill="none" stroke="#b75867" d="M842.78,-81.47C828.34,-78.42 813.62,-72.67 803,-62.25 793.15,-52.59 805.86,-40.77 795,-32.25 710.02,34.44 660.02,-27.25 552,-27.25 233.5,-27.25 233.5,-27.25 233.5,-27.25 168.05,-27.25 147.61,-17.54 87,-42.25 80.04,-45.09 73.27,-49.31 67.15,-53.87"/>
<polygon fill="#b75867" stroke="#b75867" points="64.86,-51.22 59.25,-60.21 69.25,-56.68 64.86,-51.22"/>
</g>
<!-- Linear extension&#45;&gt;Linear order -->
<g id="edge49" class="edge">
<title>Linear extension&#45;&gt;Linear order</title>
<path fill="none" stroke="#b75867" d="M842.8,-83.92C816.47,-84.02 784.24,-84.02 758.02,-83.92"/>
<polygon fill="#b75867" stroke="#b75867" points="757.93,-80.42 747.92,-83.87 757.9,-87.42 757.93,-80.42"/>
</g>
<!-- Linear extension&#45;&gt;Relations -->
<g id="edge51" class="edge">
<title>Linear extension&#45;&gt;Relations</title>
<path fill="none" stroke="#ffffff" d="M834.23,-105.63C823.24,-111.11 812.3,-117.64 803,-125.25 798.32,-129.08 800.34,-133.42 795,-136.25 791.55,-138.07 565.41,-144.21 481.17,-145.89"/>
<polygon fill="#ffffff" stroke="#ffffff" points="835.89,-108.72 843.42,-101.28 832.89,-102.4 835.89,-108.72"/>
</g>
<!-- Relations&#45;&gt;Partial order -->
<g id="edge55" class="edge">
<title>Relations&#45;&gt;Partial order</title>
<path fill="none" stroke="#b75867" d="M448.38,-164.29C449.16,-220.56 448.26,-391.11 409,-425.25 363.05,-465.2 326.83,-451.72 272,-425.25 138.28,-360.68 70.09,-176.89 48.37,-106.32"/>
<polygon fill="#b75867" stroke="#b75867" points="51.62,-104.95 45.39,-96.38 44.91,-106.96 51.62,-104.95"/>
</g>
<!-- Relations&#45;&gt;Transitive Relation -->
<g id="edge64" class="edge">
<title>Relations&#45;&gt;Transitive Relation</title>
<path fill="none" stroke="#b75867" d="M416.79,-131.19C414.19,-130.11 411.57,-129.11 409,-128.25 324.38,-99.66 296.71,-108.59 206.81,-87.57"/>
<polygon fill="#b75867" stroke="#b75867" points="207.57,-84.15 197.03,-85.22 205.94,-90.96 207.57,-84.15"/>
</g>
<!-- Relations&#45;&gt;Anti&#45;symmetric Relation -->
<g id="edge66" class="edge">
<title>Relations&#45;&gt;Anti&#45;symmetric Relation</title>
<path fill="none" stroke="#b75867" d="M416.95,-146.94C416.79,-146.94 416.63,-146.94 416.48,-146.94"/>
<polygon fill="#b75867" stroke="#b75867" points="419.23,-143.43 409.25,-146.97 419.27,-150.43 419.23,-143.43"/>
</g>
<!-- Relations&#45;&gt;Reflexive Relation -->
<g id="edge69" class="edge">
<title>Relations&#45;&gt;Reflexive Relation</title>
<path fill="none" stroke="#b75867" d="M461.5,-128.14C468.45,-118.43 478.07,-106.92 489,-99.25 489.09,-99.19 489.17,-99.13 489.26,-99.07"/>
<polygon fill="#b75867" stroke="#b75867" points="491.06,-102.07 497.78,-93.87 487.42,-96.09 491.06,-102.07"/>
</g>
<!-- Relations&#45;&gt;Relation -->
<g id="edge70" class="edge">
<title>Relations&#45;&gt;Relation</title>
<path fill="none" stroke="#b75867" d="M417.04,-164.28C378.86,-186.09 314,-222.73 273.02,-245.65"/>
<polygon fill="#b75867" stroke="#b75867" points="271.18,-242.66 264.16,-250.6 274.6,-248.78 271.18,-242.66"/>
</g>
<!-- Relations&#45;&gt;Linear order -->
<g id="edge54" class="edge">
<title>Relations&#45;&gt;Linear order</title>
<path fill="none" stroke="#b75867" d="M481.04,-140.4C483.73,-139.97 486.41,-139.58 489,-139.25 502.71,-137.47 602.12,-137.77 613,-129.25 621.85,-122.31 612.77,-112.91 621,-105.25 631.16,-95.79 644.81,-90.26 658.24,-87.07"/>
<polygon fill="#b75867" stroke="#b75867" points="659.28,-90.44 668.41,-85.06 657.92,-83.57 659.28,-90.44"/>
</g>
<!-- Relations&#45;&gt;Linear extension -->
<g id="edge53" class="edge">
<title>Relations&#45;&gt;Linear extension</title>
<path fill="none" stroke="#b75867" d="M481.17,-145.43C565.41,-143.21 791.55,-137.07 795,-135.25 800.34,-132.42 798.32,-128.08 803,-124.25 812.2,-116.72 823,-110.26 833.86,-104.84"/>
<polygon fill="#b75867" stroke="#b75867" points="835.42,-107.97 842.96,-100.53 832.42,-101.65 835.42,-107.97"/>
</g>
<!-- Relations&#45;&gt;Transitive Closure -->
<g id="edge58" class="edge">
<title>Relations&#45;&gt;Transitive Closure</title>
<path fill="none" stroke="#b75867" d="M481.09,-136.3C483.45,-135.54 485.87,-134.77 488.34,-133.98"/>
<polygon fill="#b75867" stroke="#b75867" points="489.53,-137.27 497.98,-130.89 487.39,-130.61 489.53,-137.27"/>
</g>
<!-- Relations&#45;&gt;Transitive Closure -->
<g id="edge62" class="edge">
<title>Relations&#45;&gt;Transitive Closure</title>
<path fill="none" stroke="#b75867" d="M481.09,-137C483.45,-136.26 485.87,-135.49 488.34,-134.71"/>
<polygon fill="#b75867" stroke="#b75867" points="489.52,-138.01 497.98,-131.64 487.39,-131.34 489.52,-138.01"/>
</g>
<!-- Relations&#45;&gt;Relation of Equivalence -->
<g id="edge57" class="edge">
<title>Relations&#45;&gt;Relation of Equivalence</title>
<path fill="none" stroke="#b75867" d="M481.07,-143C483.75,-142.74 486.42,-142.48 489,-142.25 544.06,-137.2 558.01,-137.97 613,-132.25 618.77,-131.65 624.72,-130.98 630.71,-130.29"/>
<polygon fill="#b75867" stroke="#b75867" points="631.28,-133.75 640.8,-129.09 630.45,-126.8 631.28,-133.75"/>
</g>
<!-- Relations&#45;&gt;Reflexive Closure -->
<g id="edge60" class="edge">
<title>Relations&#45;&gt;Reflexive Closure</title>
<path fill="none" stroke="#b75867" d="M481.3,-146.31C514.15,-146.59 567.28,-147.64 613,-151.25 623.92,-152.11 635.53,-153.34 646.72,-154.68"/>
<polygon fill="#b75867" stroke="#b75867" points="646.49,-158.18 656.85,-155.94 647.35,-151.23 646.49,-158.18"/>
</g>
<!-- Relations&#45;&gt;Reflexive Closure -->
<g id="edge63" class="edge">
<title>Relations&#45;&gt;Reflexive Closure</title>
<path fill="none" stroke="#b75867" d="M481.3,-147.06C514.15,-147.59 567.28,-148.64 613,-152.25 623.92,-153.11 635.53,-154.34 646.72,-155.66"/>
<polygon fill="#b75867" stroke="#b75867" points="646.49,-159.16 656.85,-156.9 647.34,-152.21 646.49,-159.16"/>
</g>
<!-- Relations&#45;&gt;Chain -->
<g id="edge52" class="edge">
<title>Relations&#45;&gt;Chain</title>
<path fill="none" stroke="#b75867" d="M481.12,-146.04C560.63,-145.5 771,-144.07 856.05,-143.49"/>
<polygon fill="#b75867" stroke="#b75867" points="856.28,-146.99 866.26,-143.42 856.23,-139.99 856.28,-146.99"/>
</g>
<!-- Relations&#45;&gt;Symmetric Closure -->
<g id="edge59" class="edge">
<title>Relations&#45;&gt;Symmetric Closure</title>
<path fill="none" stroke="#b75867" d="M455.21,-164.41C460.25,-179.33 469.21,-200.38 487.46,-218.81"/>
<polygon fill="#b75867" stroke="#b75867" points="485.51,-221.77 495.23,-225.98 490.26,-216.63 485.51,-221.77"/>
</g>
<!-- Relations&#45;&gt;Symmetric Closure -->
<g id="edge61" class="edge">
<title>Relations&#45;&gt;Symmetric Closure</title>
<path fill="none" stroke="#b75867" d="M454.99,-164.53C459.98,-179.66 468.98,-201.09 487.39,-219.73"/>
<polygon fill="#b75867" stroke="#b75867" points="485.51,-222.76 495.23,-226.98 490.27,-217.62 485.51,-222.76"/>
</g>
<!-- Relations&#45;&gt;Symmetric Relation -->
<g id="edge67" class="edge">
<title>Relations&#45;&gt;Symmetric Relation</title>
<path fill="none" stroke="#b75867" d="M449.58,-164.72C449.84,-194.42 454.35,-253.41 488.71,-297.36"/>
<polygon fill="#b75867" stroke="#b75867" points="486.11,-299.7 495.23,-305.1 491.47,-295.2 486.11,-299.7"/>
</g>
<!-- Relations&#45;&gt;Anti&#45;reflexive relation -->
<g id="edge68" class="edge">
<title>Relations&#45;&gt;Anti&#45;reflexive relation</title>
<path fill="none" stroke="#b75867" d="M451.53,-164.26C454.29,-186.71 461.96,-225.31 486.35,-254.5"/>
<polygon fill="#b75867" stroke="#b75867" points="483.95,-257.07 493.29,-262.08 489.12,-252.35 483.95,-257.07"/>
</g>
<!-- Relations&#45;&gt;Strongly Anti&#45;symmetric Relation -->
<g id="edge65" class="edge">
<title>Relations&#45;&gt;Strongly Anti&#45;symmetric Relation</title>
<path fill="none" stroke="#b75867" d="M454.22,-164.39C459.29,-181.62 469.65,-206.56 489,-218.25 501.81,-225.98 677.23,-225.62 792.51,-224.52"/>
<polygon fill="#b75867" stroke="#b75867" points="792.81,-228.02 802.78,-224.42 792.75,-221.02 792.81,-228.02"/>
</g>
<!-- Class of equivalence -->
<g id="node21" class="node">
<title>Class of equivalence</title>
<g id="a_node21"><a xlink:href="/Knowledge/class_of_equivalence.html" xlink:title="Class of equivalence" target="_parent">
<path fill="#273434" stroke="#b75867" d="M598.5,-221.25C598.5,-221.25 503.5,-221.25 503.5,-221.25 497.5,-221.25 491.5,-215.25 491.5,-209.25 491.5,-209.25 491.5,-197.25 491.5,-197.25 491.5,-191.25 497.5,-185.25 503.5,-185.25 503.5,-185.25 598.5,-185.25 598.5,-185.25 604.5,-185.25 610.5,-191.25 610.5,-197.25 610.5,-197.25 610.5,-209.25 610.5,-209.25 610.5,-215.25 604.5,-221.25 598.5,-221.25"/>
<text text-anchor="middle" x="551" y="-200.15" font-family="sans" font-size="12.00" fill="#c4c7c7">Class of equivalence</text>
</a>
</g>
</g>
<!-- Relations&#45;&gt;Class of equivalence -->
<g id="edge56" class="edge">
<title>Relations&#45;&gt;Class of equivalence</title>
<path fill="none" stroke="#b75867" d="M467.48,-164.56C472.45,-169.18 478.12,-173.97 487.45,-179.92"/>
<polygon fill="#b75867" stroke="#b75867" points="485.85,-183.04 496.22,-185.21 489.47,-177.05 485.85,-183.04"/>
</g>
<!-- Discrete Structures -->
<g id="node22" class="node">
<title>Discrete Structures</title>
<g id="a_node22"><a xlink:href="/Knowledge/discrete_structures.html" xlink:title="Discrete Structures" target="_parent">
<path fill="none" stroke="#b75867" d="M594.5,-184.25C594.5,-184.25 507.5,-184.25 507.5,-184.25 501.5,-184.25 495.5,-178.25 495.5,-172.25 495.5,-172.25 495.5,-160.25 495.5,-160.25 495.5,-154.25 501.5,-148.25 507.5,-148.25 507.5,-148.25 594.5,-148.25 594.5,-148.25 600.5,-148.25 606.5,-154.25 606.5,-160.25 606.5,-160.25 606.5,-172.25 606.5,-172.25 606.5,-178.25 600.5,-184.25 594.5,-184.25"/>
<text text-anchor="middle" x="551" y="-163.15" font-family="sans" font-size="12.00" fill="#c4c7c7">Discrete Structures</text>
</a>
</g>
</g>
<!-- Relations&#45;&gt;Discrete Structures -->
<g id="edge71" class="edge">
<title>Relations&#45;&gt;Discrete Structures</title>
<path fill="none" stroke="#ffffff" d="M491.3,-154.51C492.66,-154.78 494.03,-155.05 495.41,-155.33"/>
<polygon fill="#ffffff" stroke="#ffffff" points="491.58,-150.99 481.09,-152.47 490.21,-157.86 491.58,-150.99"/>
</g>
<!-- Partial orders have no contours&#45;&gt;Partial order -->
<g id="edge73" class="edge">
<title>Partial orders have no contours&#45;&gt;Partial order</title>
<path fill="none" stroke="#b75867" d="M620.75,-46.62C570.86,-46.5 506.89,-46.25 450,-46.25 233.5,-46.25 233.5,-46.25 233.5,-46.25 168.35,-46.25 149.46,-32.74 87,-51.25 83.35,-52.33 79.7,-53.76 76.13,-55.41"/>
<polygon fill="#b75867" stroke="#b75867" points="74.22,-52.46 66.95,-60.18 77.44,-58.68 74.22,-52.46"/>
</g>
<!-- Partial orders have no contours&#45;&gt;Transitive Relation -->
<g id="edge74" class="edge">
<title>Partial orders have no contours&#45;&gt;Transitive Relation</title>
<path fill="none" stroke="#b75867" d="M620.91,-46.84C503.72,-47.38 298.88,-48.87 207.11,-57.23"/>
<polygon fill="#b75867" stroke="#b75867" points="206.63,-53.76 197.02,-58.23 207.32,-60.73 206.63,-53.76"/>
</g>
<!-- Partial orders have no contours&#45;&gt;Reflexive Relation -->
<g id="edge75" class="edge">
<title>Partial orders have no contours&#45;&gt;Reflexive Relation</title>
<path fill="none" stroke="#b75867" d="M620.84,-64.22C618.53,-64.69 616.22,-65.14 613.93,-65.6"/>
<polygon fill="#b75867" stroke="#b75867" points="613.18,-62.18 604.04,-67.55 614.53,-69.05 613.18,-62.18"/>
</g>
<!-- Partial orders have no contours&#45;&gt;Chain -->
<g id="edge76" class="edge">
<title>Partial orders have no contours&#45;&gt;Chain</title>
<path fill="none" stroke="#ffffff" d="M796.95,-72.9C801.56,-83.33 795.39,-91.93 803,-101.25 818.96,-120.79 846.1,-131.74 866.32,-137.52"/>
<polygon fill="#ffffff" stroke="#ffffff" points="799.6,-70.58 790.91,-64.52 793.92,-74.68 799.6,-70.58"/>
</g>
<!-- Contour -->
<g id="node23" class="node">
<title>Contour</title>
<g id="a_node23"><a xlink:href="/Knowledge/contour.html" xlink:title="Contour" target="_parent">
<path fill="#273434" stroke="#b75867" d="M911,-64.25C911,-64.25 876,-64.25 876,-64.25 870,-64.25 864,-58.25 864,-52.25 864,-52.25 864,-40.25 864,-40.25 864,-34.25 870,-28.25 876,-28.25 876,-28.25 911,-28.25 911,-28.25 917,-28.25 923,-34.25 923,-40.25 923,-40.25 923,-52.25 923,-52.25 923,-58.25 917,-64.25 911,-64.25"/>
<text text-anchor="middle" x="893.5" y="-43.15" font-family="sans" font-size="12.00" fill="#c4c7c7">Contour</text>
</a>
</g>
</g>
<!-- Partial orders have no contours&#45;&gt;Contour -->
<g id="edge72" class="edge">
<title>Partial orders have no contours&#45;&gt;Contour</title>
<path fill="none" stroke="#b75867" d="M795.11,-46.25C815.62,-46.25 836.51,-46.25 853.66,-46.25"/>
<polygon fill="#b75867" stroke="#b75867" points="853.81,-49.75 863.81,-46.25 853.81,-42.75 853.81,-49.75"/>
</g>
</g>
</svg>
