<?xml version="1.0" encoding="UTF-8" standalone="no"?>
<!DOCTYPE svg PUBLIC "-//W3C//DTD SVG 1.1//EN"
 "http://www.w3.org/Graphics/SVG/1.1/DTD/svg11.dtd">
<!-- Generated by graphviz version 2.44.0 (0)
 -->
<!-- Title: Partial order Pages: 1 -->
<svg width="1090pt" height="416pt"
 viewBox="0.00 0.00 1090.00 416.15" xmlns="http://www.w3.org/2000/svg" xmlns:xlink="http://www.w3.org/1999/xlink">
<g id="graph0" class="graph" transform="scale(1 1) rotate(0) translate(4 412.15)">
<title>Partial order</title>
<polygon fill="#132020" stroke="transparent" points="-4,4 -4,-412.15 1086,-412.15 1086,4 -4,4"/>
<!-- Partial order -->
<g id="node1" class="node">
<title>Partial order</title>
<g id="a_node1"><a xlink:href="../Partial order.html" xlink:title="Partial order" target="_parent">
<path fill="#273434" stroke="#b75867" d="M74,-113.89C74,-113.89 12,-113.89 12,-113.89 6,-113.89 0,-107.89 0,-101.89 0,-101.89 0,-89.89 0,-89.89 0,-83.89 6,-77.89 12,-77.89 12,-77.89 74,-77.89 74,-77.89 80,-77.89 86,-83.89 86,-89.89 86,-89.89 86,-101.89 86,-101.89 86,-107.89 80,-113.89 74,-113.89"/>
<text text-anchor="middle" x="43" y="-92.79" font-family="sans" font-size="12.00" fill="#c4c7c7">Partial order</text>
</a>
</g>
</g>
<!-- Transitive Relation -->
<g id="node2" class="node">
<title>Transitive Relation</title>
<g id="a_node2"><a xlink:href="../Transitive Relation.html" xlink:title="Transitive Relation" target="_parent">
<path fill="#273434" stroke="#b75867" d="M203,-123.89C203,-123.89 106,-123.89 106,-123.89 100,-123.89 94,-117.89 94,-111.89 94,-111.89 94,-99.89 94,-99.89 94,-93.89 100,-87.89 106,-87.89 106,-87.89 203,-87.89 203,-87.89 209,-87.89 215,-93.89 215,-99.89 215,-99.89 215,-111.89 215,-111.89 215,-117.89 209,-123.89 203,-123.89"/>
<text text-anchor="middle" x="154.5" y="-102.79" font-family="sans" font-size="12.00" fill="#c4c7c7">Transitive Relation</text>
</a>
</g>
</g>
<!-- Partial order&#45;&gt;Transitive Relation -->
<g id="edge1" class="edge">
<title>Partial order&#45;&gt;Transitive Relation</title>
<path fill="none" stroke="#b75867" d="M86.02,-99.73C86.18,-99.74 86.34,-99.75 86.5,-99.77"/>
<polygon fill="#b75867" stroke="#b75867" points="83.44,-103 93.71,-100.43 84.07,-96.03 83.44,-103"/>
</g>
<!-- Anti&#45;symmetric Relation -->
<g id="node3" class="node">
<title>Anti&#45;symmetric Relation</title>
<g id="a_node3"><a xlink:href="../Anti-symmetric Relation.html" xlink:title="Anti&#45;symmetric Relation" target="_parent">
<path fill="#273434" stroke="#b75867" d="M435,-149.89C435,-149.89 307,-149.89 307,-149.89 301,-149.89 295,-143.89 295,-137.89 295,-137.89 295,-125.89 295,-125.89 295,-119.89 301,-113.89 307,-113.89 307,-113.89 435,-113.89 435,-113.89 441,-113.89 447,-119.89 447,-125.89 447,-125.89 447,-137.89 447,-137.89 447,-143.89 441,-149.89 435,-149.89"/>
<text text-anchor="middle" x="371" y="-128.79" font-family="sans" font-size="12.00" fill="#c4c7c7">Anti&#45;symmetric Relation</text>
</a>
</g>
</g>
<!-- Partial order&#45;&gt;Anti&#45;symmetric Relation -->
<g id="edge2" class="edge">
<title>Partial order&#45;&gt;Anti&#45;symmetric Relation</title>
<path fill="none" stroke="#b75867" d="M70.74,-113.95C77.99,-117.97 86.04,-121.69 94,-123.89 128.55,-133.44 216.95,-134.56 284.47,-133.84"/>
<polygon fill="#b75867" stroke="#b75867" points="284.74,-137.34 294.7,-133.72 284.65,-130.34 284.74,-137.34"/>
</g>
<!-- Reflexive Relation -->
<g id="node4" class="node">
<title>Reflexive Relation</title>
<g id="a_node4"><a xlink:href="../Reflexive Relation.html" xlink:title="Reflexive Relation" target="_parent">
<path fill="#273434" stroke="#b75867" d="M647.5,-100.89C647.5,-100.89 554.5,-100.89 554.5,-100.89 548.5,-100.89 542.5,-94.89 542.5,-88.89 542.5,-88.89 542.5,-76.89 542.5,-76.89 542.5,-70.89 548.5,-64.89 554.5,-64.89 554.5,-64.89 647.5,-64.89 647.5,-64.89 653.5,-64.89 659.5,-70.89 659.5,-76.89 659.5,-76.89 659.5,-88.89 659.5,-88.89 659.5,-94.89 653.5,-100.89 647.5,-100.89"/>
<text text-anchor="middle" x="601" y="-79.79" font-family="sans" font-size="12.00" fill="#c4c7c7">Reflexive Relation</text>
</a>
</g>
</g>
<!-- Partial order&#45;&gt;Reflexive Relation -->
<g id="edge3" class="edge">
<title>Partial order&#45;&gt;Reflexive Relation</title>
<path fill="none" stroke="#b75867" d="M73.84,-77.82C80.29,-74.66 87.21,-71.77 94,-69.89 162.65,-50.82 182.75,-59.89 254,-59.89 254,-59.89 254,-59.89 372,-59.89 426,-59.89 486.83,-66.35 532.07,-72.43"/>
<polygon fill="#b75867" stroke="#b75867" points="531.68,-75.91 542.06,-73.8 532.63,-68.97 531.68,-75.91"/>
</g>
<!-- Relation -->
<g id="node5" class="node">
<title>Relation</title>
<g id="a_node5"><a xlink:href="../Relation.html" xlink:title="Relation" target="_parent">
<path fill="#273434" stroke="#b75867" d="M275,-172.89C275,-172.89 235,-172.89 235,-172.89 229,-172.89 223,-166.89 223,-160.89 223,-160.89 223,-148.89 223,-148.89 223,-142.89 229,-136.89 235,-136.89 235,-136.89 275,-136.89 275,-136.89 281,-136.89 287,-142.89 287,-148.89 287,-148.89 287,-160.89 287,-160.89 287,-166.89 281,-172.89 275,-172.89"/>
<text text-anchor="middle" x="255" y="-151.79" font-family="sans" font-size="12.00" fill="#c4c7c7">Relation</text>
</a>
</g>
</g>
<!-- Partial order&#45;&gt;Relation -->
<g id="edge4" class="edge">
<title>Partial order&#45;&gt;Relation</title>
<path fill="none" stroke="#b75867" d="M66.2,-114.08C74.47,-120 84.24,-126.03 94,-129.89 132.46,-145.08 179.54,-151.06 212.64,-153.41"/>
<polygon fill="#b75867" stroke="#b75867" points="212.67,-156.92 222.87,-154.05 213.11,-149.93 212.67,-156.92"/>
</g>
<!-- Linear extension -->
<g id="node6" class="node">
<title>Linear extension</title>
<g id="a_node6"><a xlink:href="../Linear extension.html" xlink:title="Linear extension" target="_parent">
<path fill="none" stroke="#b75867" d="M1023.5,-161.89C1023.5,-161.89 937.5,-161.89 937.5,-161.89 931.5,-161.89 925.5,-155.89 925.5,-149.89 925.5,-149.89 925.5,-137.89 925.5,-137.89 925.5,-131.89 931.5,-125.89 937.5,-125.89 937.5,-125.89 1023.5,-125.89 1023.5,-125.89 1029.5,-125.89 1035.5,-131.89 1035.5,-137.89 1035.5,-137.89 1035.5,-149.89 1035.5,-149.89 1035.5,-155.89 1029.5,-161.89 1023.5,-161.89"/>
<text text-anchor="middle" x="980.5" y="-140.79" font-family="sans" font-size="12.00" fill="#c4c7c7">Linear extension</text>
</a>
</g>
</g>
<!-- Partial order&#45;&gt;Linear extension -->
<g id="edge5" class="edge">
<title>Partial order&#45;&gt;Linear extension</title>
<path fill="none" stroke="#ffffff" d="M64.68,-70.1C72.88,-61.62 82.99,-53.05 94,-47.89 158.79,-17.5 182.44,-29.89 254,-29.89 254,-29.89 254,-29.89 602,-29.89 721.58,-29.89 777.7,39.91 871,-34.89 882.77,-44.33 870.72,-55.27 879,-67.89 895.32,-92.76 922.66,-112.66 944.71,-125.84"/>
<polygon fill="#ffffff" stroke="#ffffff" points="61.85,-68.01 57.71,-77.76 67.02,-72.72 61.85,-68.01"/>
</g>
<!-- Relations -->
<g id="node7" class="node">
<title>Relations</title>
<g id="a_node7"><a xlink:href="../Relations.html" xlink:title="Relations" target="_parent">
<path fill="none" stroke="#b75867" d="M512,-149.89C512,-149.89 467,-149.89 467,-149.89 461,-149.89 455,-143.89 455,-137.89 455,-137.89 455,-125.89 455,-125.89 455,-119.89 461,-113.89 467,-113.89 467,-113.89 512,-113.89 512,-113.89 518,-113.89 524,-119.89 524,-125.89 524,-125.89 524,-137.89 524,-137.89 524,-143.89 518,-149.89 512,-149.89"/>
<text text-anchor="middle" x="489.5" y="-128.79" font-family="sans" font-size="12.00" fill="#c4c7c7">Relations</text>
</a>
</g>
</g>
<!-- Partial order&#45;&gt;Relations -->
<g id="edge6" class="edge">
<title>Partial order&#45;&gt;Relations</title>
<path fill="none" stroke="#ffffff" d="M96.3,-84.3C175.3,-69.32 328.45,-50.17 447,-95.89 456.79,-99.66 465.83,-106.84 472.95,-113.8"/>
<polygon fill="#ffffff" stroke="#ffffff" points="95.26,-80.94 86.11,-86.29 96.6,-87.81 95.26,-80.94"/>
</g>
<!-- Linear order -->
<g id="node8" class="node">
<title>Linear order</title>
<g id="a_node8"><a xlink:href="../Linear order.html" xlink:title="Linear order" target="_parent">
<path fill="none" stroke="#b75867" d="M805.5,-226.89C805.5,-226.89 743.5,-226.89 743.5,-226.89 737.5,-226.89 731.5,-220.89 731.5,-214.89 731.5,-214.89 731.5,-202.89 731.5,-202.89 731.5,-196.89 737.5,-190.89 743.5,-190.89 743.5,-190.89 805.5,-190.89 805.5,-190.89 811.5,-190.89 817.5,-196.89 817.5,-202.89 817.5,-202.89 817.5,-214.89 817.5,-214.89 817.5,-220.89 811.5,-226.89 805.5,-226.89"/>
<text text-anchor="middle" x="774.5" y="-205.79" font-family="sans" font-size="12.00" fill="#c4c7c7">Linear order</text>
</a>
</g>
</g>
<!-- Partial order&#45;&gt;Linear order -->
<g id="edge7" class="edge">
<title>Partial order&#45;&gt;Linear order</title>
<path fill="none" stroke="#ffffff" d="M51.98,-123.99C72.92,-191.05 136.13,-354.89 254,-354.89 254,-354.89 254,-354.89 490.5,-354.89 570.31,-354.89 599.31,-386.93 670,-349.89 720.97,-323.18 753.19,-258.75 766.49,-227.08"/>
<polygon fill="#ffffff" stroke="#ffffff" points="55.23,-122.65 48.98,-114.1 48.53,-124.69 55.23,-122.65"/>
</g>
<!-- Partial orders have no contours -->
<g id="node9" class="node">
<title>Partial orders have no contours</title>
<g id="a_node9"><a xlink:href="../Partial orders have no contours.html" xlink:title="Partial orders have no contours" target="_parent">
<path fill="none" stroke="#b75867" d="M859,-67.89C859,-67.89 690,-67.89 690,-67.89 684,-67.89 678,-61.89 678,-55.89 678,-55.89 678,-43.89 678,-43.89 678,-37.89 684,-31.89 690,-31.89 690,-31.89 859,-31.89 859,-31.89 865,-31.89 871,-37.89 871,-43.89 871,-43.89 871,-55.89 871,-55.89 871,-61.89 865,-67.89 859,-67.89"/>
<text text-anchor="middle" x="774.5" y="-46.79" font-family="sans" font-size="12.00" fill="#c4c7c7">Partial orders have no contours</text>
</a>
</g>
</g>
<!-- Partial order&#45;&gt;Partial orders have no contours -->
<g id="edge8" class="edge">
<title>Partial order&#45;&gt;Partial orders have no contours</title>
<path fill="none" stroke="#ffffff" d="M71.16,-71.25C78.14,-66.25 85.97,-61.68 94,-58.89 161.21,-35.55 182.85,-53.89 254,-53.89 254,-53.89 254,-53.89 490.5,-53.89 552.9,-53.89 623.04,-52.9 677.88,-51.91"/>
<polygon fill="#ffffff" stroke="#ffffff" points="68.59,-68.82 62.82,-77.7 72.87,-74.35 68.59,-68.82"/>
</g>
<!-- Transitive Relation&#45;&gt;Partial order -->
<g id="edge15" class="edge">
<title>Transitive Relation&#45;&gt;Partial order</title>
<path fill="none" stroke="#ffffff" d="M86.5,-100.5C86.34,-100.49 86.18,-100.47 86.02,-100.46"/>
<polygon fill="#ffffff" stroke="#ffffff" points="83.43,-103.73 93.71,-101.18 84.08,-96.76 83.43,-103.73"/>
</g>
<!-- Transitive Relation&#45;&gt;Relation -->
<g id="edge9" class="edge">
<title>Transitive Relation&#45;&gt;Relation</title>
<path fill="none" stroke="#b75867" d="M191.9,-123.99C199.07,-127.56 206.62,-131.32 213.9,-134.94"/>
<polygon fill="#b75867" stroke="#b75867" points="212.42,-138.11 222.93,-139.43 215.53,-131.84 212.42,-138.11"/>
</g>
<!-- Transitive Relation&#45;&gt;Relations -->
<g id="edge12" class="edge">
<title>Transitive Relation&#45;&gt;Relations</title>
<path fill="none" stroke="#ffffff" d="M225.21,-98.43C284.99,-94.07 372.92,-92.54 447,-110.89 449.98,-111.63 452.99,-112.61 455.95,-113.74"/>
<polygon fill="#ffffff" stroke="#ffffff" points="224.83,-94.95 215.13,-99.21 225.37,-101.93 224.83,-94.95"/>
</g>
<!-- Transitive Relation&#45;&gt;Linear order -->
<g id="edge13" class="edge">
<title>Transitive Relation&#45;&gt;Linear order</title>
<path fill="none" stroke="#ffffff" d="M162.96,-133.68C178.26,-184.73 218.36,-292.78 295,-342.89 323.1,-361.26 336.43,-351.89 370,-351.89 370,-351.89 370,-351.89 490.5,-351.89 530.41,-351.89 634.57,-364.27 670,-345.89 719.74,-320.08 752.24,-258.29 766,-227.29"/>
<polygon fill="#ffffff" stroke="#ffffff" points="166.3,-132.61 160.15,-123.98 159.57,-134.56 166.3,-132.61"/>
</g>
<!-- Transitive Relation&#45;&gt;Partial orders have no contours -->
<g id="edge14" class="edge">
<title>Transitive Relation&#45;&gt;Partial orders have no contours</title>
<path fill="none" stroke="#ffffff" d="M192.57,-82.9C202.17,-77.85 212.71,-73.07 223,-69.89 253.76,-60.36 262.88,-64.07 295,-61.89 331.92,-59.38 549.12,-54.55 677.85,-51.85"/>
<polygon fill="#ffffff" stroke="#ffffff" points="190.77,-79.89 183.69,-87.77 194.14,-86.03 190.77,-79.89"/>
</g>
<!-- Relation of Equivalence -->
<g id="node10" class="node">
<title>Relation of Equivalence</title>
<g id="a_node10"><a xlink:href="../Relation of Equivalence.html" xlink:title="Relation of Equivalence" target="_parent">
<path fill="none" stroke="#b75867" d="M837,-104.89C837,-104.89 712,-104.89 712,-104.89 706,-104.89 700,-98.89 700,-92.89 700,-92.89 700,-80.89 700,-80.89 700,-74.89 706,-68.89 712,-68.89 712,-68.89 837,-68.89 837,-68.89 843,-68.89 849,-74.89 849,-80.89 849,-80.89 849,-92.89 849,-92.89 849,-98.89 843,-104.89 837,-104.89"/>
<text text-anchor="middle" x="774.5" y="-83.79" font-family="sans" font-size="12.00" fill="#c4c7c7">Relation of Equivalence</text>
</a>
</g>
</g>
<!-- Transitive Relation&#45;&gt;Relation of Equivalence -->
<g id="edge10" class="edge">
<title>Transitive Relation&#45;&gt;Relation of Equivalence</title>
<path fill="none" stroke="#ffffff" d="M219.03,-84.94C242.62,-78.13 269.77,-71.43 295,-67.89 377.53,-56.32 587.12,-56.18 670,-64.89 679.68,-65.91 689.79,-67.45 699.74,-69.25"/>
<polygon fill="#ffffff" stroke="#ffffff" points="217.76,-81.66 209.16,-87.85 219.74,-88.38 217.76,-81.66"/>
</g>
<!-- Transitive Closure -->
<g id="node11" class="node">
<title>Transitive Closure</title>
<g id="a_node11"><a xlink:href="../Transitive Closure.html" xlink:title="Transitive Closure" target="_parent">
<path fill="none" stroke="#b75867" d="M647,-232.89C647,-232.89 555,-232.89 555,-232.89 549,-232.89 543,-226.89 543,-220.89 543,-220.89 543,-208.89 543,-208.89 543,-202.89 549,-196.89 555,-196.89 555,-196.89 647,-196.89 647,-196.89 653,-196.89 659,-202.89 659,-208.89 659,-208.89 659,-220.89 659,-220.89 659,-226.89 653,-232.89 647,-232.89"/>
<text text-anchor="middle" x="601" y="-211.79" font-family="sans" font-size="12.00" fill="#c4c7c7">Transitive Closure</text>
</a>
</g>
</g>
<!-- Transitive Relation&#45;&gt;Transitive Closure -->
<g id="edge11" class="edge">
<title>Transitive Relation&#45;&gt;Transitive Closure</title>
<path fill="none" stroke="#ffffff" d="M225.51,-106.46C309,-107.45 438.46,-110.07 447,-116.89 457.78,-125.5 445.61,-136.78 455,-146.89 477.09,-170.68 500.88,-148.09 524,-170.89 531.41,-178.19 524.51,-185.66 532,-192.89 535.21,-195.99 538.87,-198.65 542.78,-200.94"/>
<polygon fill="#ffffff" stroke="#ffffff" points="225.35,-102.96 215.31,-106.34 225.27,-109.96 225.35,-102.96"/>
</g>
<!-- Anti&#45;symmetric Relation&#45;&gt;Partial order -->
<g id="edge18" class="edge">
<title>Anti&#45;symmetric Relation&#45;&gt;Partial order</title>
<path fill="none" stroke="#ffffff" d="M284.47,-134.64C216.95,-135.56 128.55,-134.44 94,-124.89 85.47,-122.53 76.82,-118.43 69.18,-114.03"/>
<polygon fill="#ffffff" stroke="#ffffff" points="284.75,-138.14 294.7,-134.49 284.64,-131.14 284.75,-138.14"/>
</g>
<!-- Anti&#45;symmetric Relation&#45;&gt;Relation -->
<g id="edge16" class="edge">
<title>Anti&#45;symmetric Relation&#45;&gt;Relation</title>
<path fill="none" stroke="#b75867" d="M294.89,-147.76C294.73,-147.79 294.56,-147.82 294.4,-147.85"/>
<polygon fill="#b75867" stroke="#b75867" points="296.29,-143.92 287.15,-149.28 297.64,-150.78 296.29,-143.92"/>
</g>
<!-- Anti&#45;symmetric Relation&#45;&gt;Relations -->
<g id="edge17" class="edge">
<title>Anti&#45;symmetric Relation&#45;&gt;Relations</title>
<path fill="none" stroke="#ffffff" d="M454.37,-131.89C454.53,-131.89 454.69,-131.89 454.85,-131.89"/>
<polygon fill="#ffffff" stroke="#ffffff" points="457.1,-128.39 447.1,-131.89 457.1,-135.39 457.1,-128.39"/>
</g>
<!-- Reflexive Relation&#45;&gt;Partial order -->
<g id="edge25" class="edge">
<title>Reflexive Relation&#45;&gt;Partial order</title>
<path fill="none" stroke="#ffffff" d="M532.07,-73.28C486.83,-67.35 426,-60.89 372,-60.89 254,-60.89 254,-60.89 254,-60.89 182.75,-60.89 162.65,-51.82 94,-70.89 87.97,-72.56 81.83,-75.03 76.01,-77.76"/>
<polygon fill="#ffffff" stroke="#ffffff" points="531.69,-76.76 542.06,-74.61 532.61,-69.82 531.69,-76.76"/>
</g>
<!-- Reflexive Relation&#45;&gt;Relation -->
<g id="edge19" class="edge">
<title>Reflexive Relation&#45;&gt;Relation</title>
<path fill="none" stroke="#b75867" d="M542.25,-77.96C478.39,-74.52 374.09,-76.11 295,-114.89 288.09,-118.28 281.75,-123.43 276.29,-128.93"/>
<polygon fill="#b75867" stroke="#b75867" points="273.54,-126.75 269.4,-136.5 278.72,-131.46 273.54,-126.75"/>
</g>
<!-- Reflexive Relation&#45;&gt;Relations -->
<g id="edge22" class="edge">
<title>Reflexive Relation&#45;&gt;Relations</title>
<path fill="none" stroke="#ffffff" d="M533.69,-105.09C533.12,-105.36 532.56,-105.62 532,-105.89 531.15,-106.3 525.98,-109.61 519.56,-113.75"/>
<polygon fill="#ffffff" stroke="#ffffff" points="535.36,-108.19 543.15,-101.02 532.59,-101.76 535.36,-108.19"/>
</g>
<!-- Reflexive Relation&#45;&gt;Linear order -->
<g id="edge23" class="edge">
<title>Reflexive Relation&#45;&gt;Linear order</title>
<path fill="none" stroke="#ffffff" d="M664.38,-107.22C666.39,-108.99 668.27,-110.87 670,-112.89 678.97,-123.37 670.06,-131.6 678,-142.89 692.38,-163.32 715.24,-179.45 734.99,-190.64"/>
<polygon fill="#ffffff" stroke="#ffffff" points="666.18,-104.2 656.08,-101.01 661.99,-109.81 666.18,-104.2"/>
</g>
<!-- Reflexive Relation&#45;&gt;Partial orders have no contours -->
<g id="edge24" class="edge">
<title>Reflexive Relation&#45;&gt;Partial orders have no contours</title>
<path fill="none" stroke="#ffffff" d="M669.53,-69.9C672.89,-69.25 676.28,-68.59 679.7,-67.94"/>
<polygon fill="#ffffff" stroke="#ffffff" points="668.74,-66.48 659.58,-71.81 670.07,-73.36 668.74,-66.48"/>
</g>
<!-- Reflexive Relation&#45;&gt;Relation of Equivalence -->
<g id="edge21" class="edge">
<title>Reflexive Relation&#45;&gt;Relation of Equivalence</title>
<path fill="none" stroke="#ffffff" d="M669.76,-84.47C679.67,-84.7 689.91,-84.94 699.93,-85.17"/>
<polygon fill="#ffffff" stroke="#ffffff" points="669.66,-80.97 659.58,-84.23 669.5,-87.96 669.66,-80.97"/>
</g>
<!-- Reflexive Closure -->
<g id="node12" class="node">
<title>Reflexive Closure</title>
<g id="a_node12"><a xlink:href="../Reflexive Closure.html" xlink:title="Reflexive Closure" target="_parent">
<path fill="none" stroke="#b75867" d="M819,-141.89C819,-141.89 730,-141.89 730,-141.89 724,-141.89 718,-135.89 718,-129.89 718,-129.89 718,-117.89 718,-117.89 718,-111.89 724,-105.89 730,-105.89 730,-105.89 819,-105.89 819,-105.89 825,-105.89 831,-111.89 831,-117.89 831,-117.89 831,-129.89 831,-129.89 831,-135.89 825,-141.89 819,-141.89"/>
<text text-anchor="middle" x="774.5" y="-120.79" font-family="sans" font-size="12.00" fill="#c4c7c7">Reflexive Closure</text>
</a>
</g>
</g>
<!-- Reflexive Relation&#45;&gt;Reflexive Closure -->
<g id="edge20" class="edge">
<title>Reflexive Relation&#45;&gt;Reflexive Closure</title>
<path fill="none" stroke="#ffffff" d="M669.49,-99.83C672.36,-100.53 675.21,-101.22 678,-101.89 690.9,-104.99 704.81,-108.24 717.91,-111.27"/>
<polygon fill="#ffffff" stroke="#ffffff" points="670.2,-96.4 659.65,-97.42 668.53,-103.2 670.2,-96.4"/>
</g>
<!-- Relation&#45;&gt;Partial order -->
<g id="edge41" class="edge">
<title>Relation&#45;&gt;Partial order</title>
<path fill="none" stroke="#ffffff" d="M212.64,-154.22C179.54,-152.06 132.46,-146.08 94,-130.89 83.65,-126.8 73.3,-120.27 64.72,-113.95"/>
<polygon fill="#ffffff" stroke="#ffffff" points="212.69,-157.73 222.87,-154.79 213.08,-150.74 212.69,-157.73"/>
</g>
<!-- Relation&#45;&gt;Transitive Relation -->
<g id="edge37" class="edge">
<title>Relation&#45;&gt;Transitive Relation</title>
<path fill="none" stroke="#ffffff" d="M213.58,-135.52C205.92,-131.73 197.97,-127.77 190.5,-124.02"/>
<polygon fill="#ffffff" stroke="#ffffff" points="212.2,-138.74 222.71,-140.03 215.3,-132.46 212.2,-138.74"/>
</g>
<!-- Relation&#45;&gt;Anti&#45;symmetric Relation -->
<g id="edge27" class="edge">
<title>Relation&#45;&gt;Anti&#45;symmetric Relation</title>
<path fill="none" stroke="#ffffff" d="M294.4,-147.14C294.56,-147.11 294.73,-147.07 294.89,-147.04"/>
<polygon fill="#ffffff" stroke="#ffffff" points="296.26,-143.19 287.15,-148.6 297.65,-150.06 296.26,-143.19"/>
</g>
<!-- Relation&#45;&gt;Reflexive Relation -->
<g id="edge38" class="edge">
<title>Relation&#45;&gt;Reflexive Relation</title>
<path fill="none" stroke="#ffffff" d="M275.05,-129.23C280.78,-123.23 287.56,-117.54 295,-113.89 374.09,-75.11 478.39,-73.52 542.25,-77.23"/>
<polygon fill="#ffffff" stroke="#ffffff" points="272.32,-127.03 268.36,-136.86 277.59,-131.65 272.32,-127.03"/>
</g>
<!-- Relation&#45;&gt;Relations -->
<g id="edge34" class="edge">
<title>Relation&#45;&gt;Relations</title>
<path fill="none" stroke="#ffffff" d="M297.65,-158.32C336.72,-160.48 396.52,-161.05 447,-149.89 449.61,-149.31 452.25,-148.57 454.88,-147.72"/>
<polygon fill="#ffffff" stroke="#ffffff" points="297.4,-154.8 287.21,-157.68 296.97,-161.78 297.4,-154.8"/>
</g>
<!-- Relation&#45;&gt;Linear order -->
<g id="edge35" class="edge">
<title>Relation&#45;&gt;Linear order</title>
<path fill="none" stroke="#ffffff" d="M273.93,-181.46C279.86,-188.44 287.02,-195.29 295,-199.89 354.59,-234.22 395.24,-183.6 447,-228.89 455.46,-236.29 449.41,-243.13 455,-252.89 480.84,-297.98 484.67,-319.41 532,-340.89 559.93,-353.56 642.43,-354.31 670,-340.89 718.97,-317.06 751.62,-257.61 765.67,-227.29"/>
<polygon fill="#ffffff" stroke="#ffffff" points="276.48,-179.04 267.55,-173.34 270.98,-183.37 276.48,-179.04"/>
</g>
<!-- Relation&#45;&gt;Relation of Equivalence -->
<g id="edge31" class="edge">
<title>Relation&#45;&gt;Relation of Equivalence</title>
<path fill="none" stroke="#ffffff" d="M268.98,-127.67C279.38,-106.13 292.61,-79.43 295,-77.89 330.05,-55.32 628.49,-64.11 670,-67.89 679.73,-68.77 689.92,-70.12 699.94,-71.69"/>
<polygon fill="#ffffff" stroke="#ffffff" points="265.78,-126.26 264.6,-136.79 272.08,-129.3 265.78,-126.26"/>
</g>
<!-- Relation&#45;&gt;Reflexive Closure -->
<g id="edge29" class="edge">
<title>Relation&#45;&gt;Reflexive Closure</title>
<path fill="none" stroke="#ffffff" d="M297.16,-155.71C349.82,-156.38 435.62,-156.01 447,-146.89 457.76,-138.25 444.39,-125.71 455,-116.89 472.18,-102.59 626.32,-108.16 670,-110.89 685.54,-111.86 702.32,-113.65 717.76,-115.59"/>
<polygon fill="#ffffff" stroke="#ffffff" points="297.15,-152.21 287.1,-155.57 297.05,-159.21 297.15,-152.21"/>
</g>
<!-- Descartes Product -->
<g id="node13" class="node">
<title>Descartes Product</title>
<g id="a_node13"><a xlink:href="../Descartes Product.html" xlink:title="Descartes Product" target="_parent">
<path fill="#273434" stroke="#b75867" d="M418.5,-261.89C418.5,-261.89 323.5,-261.89 323.5,-261.89 317.5,-261.89 311.5,-255.89 311.5,-249.89 311.5,-249.89 311.5,-237.89 311.5,-237.89 311.5,-231.89 317.5,-225.89 323.5,-225.89 323.5,-225.89 418.5,-225.89 418.5,-225.89 424.5,-225.89 430.5,-231.89 430.5,-237.89 430.5,-237.89 430.5,-249.89 430.5,-249.89 430.5,-255.89 424.5,-261.89 418.5,-261.89"/>
<text text-anchor="middle" x="371" y="-240.79" font-family="sans" font-size="12.00" fill="#c4c7c7">Descartes Product</text>
</a>
</g>
</g>
<!-- Relation&#45;&gt;Descartes Product -->
<g id="edge26" class="edge">
<title>Relation&#45;&gt;Descartes Product</title>
<path fill="none" stroke="#b75867" d="M262.23,-173.13C268.31,-188.3 279,-209.36 295,-221.89 297.3,-223.69 299.75,-225.35 302.3,-226.87"/>
<polygon fill="#b75867" stroke="#b75867" points="300.82,-230.05 311.31,-231.53 304.04,-223.83 300.82,-230.05"/>
</g>
<!-- Chain -->
<g id="node14" class="node">
<title>Chain</title>
<g id="a_node14"><a xlink:href="../Chain.html" xlink:title="Chain" target="_parent">
<path fill="none" stroke="#b75867" d="M995.5,-206.89C995.5,-206.89 965.5,-206.89 965.5,-206.89 959.5,-206.89 953.5,-200.89 953.5,-194.89 953.5,-194.89 953.5,-182.89 953.5,-182.89 953.5,-176.89 959.5,-170.89 965.5,-170.89 965.5,-170.89 995.5,-170.89 995.5,-170.89 1001.5,-170.89 1007.5,-176.89 1007.5,-182.89 1007.5,-182.89 1007.5,-194.89 1007.5,-194.89 1007.5,-200.89 1001.5,-206.89 995.5,-206.89"/>
<text text-anchor="middle" x="980.5" y="-185.79" font-family="sans" font-size="12.00" fill="#c4c7c7">Chain</text>
</a>
</g>
</g>
<!-- Relation&#45;&gt;Chain -->
<g id="edge28" class="edge">
<title>Relation&#45;&gt;Chain</title>
<path fill="none" stroke="#ffffff" d="M257.91,-183.21C261.68,-229.34 271.79,-317.55 295,-336.89 311.01,-350.23 649.87,-349.28 670,-343.89 769.63,-317.2 801.18,-303.8 871,-227.89 876.65,-221.74 872.47,-216.09 879,-210.89 900.09,-194.07 931.26,-189.44 953.29,-188.47"/>
<polygon fill="#ffffff" stroke="#ffffff" points="261.38,-182.68 257.13,-172.98 254.4,-183.22 261.38,-182.68"/>
</g>
<!-- Symmetric Closure -->
<g id="node15" class="node">
<title>Symmetric Closure</title>
<g id="a_node15"><a xlink:href="../Symmetric Closure.html" xlink:title="Symmetric Closure" target="_parent">
<path fill="none" stroke="#b75867" d="M650.5,-269.89C650.5,-269.89 551.5,-269.89 551.5,-269.89 545.5,-269.89 539.5,-263.89 539.5,-257.89 539.5,-257.89 539.5,-245.89 539.5,-245.89 539.5,-239.89 545.5,-233.89 551.5,-233.89 551.5,-233.89 650.5,-233.89 650.5,-233.89 656.5,-233.89 662.5,-239.89 662.5,-245.89 662.5,-245.89 662.5,-257.89 662.5,-257.89 662.5,-263.89 656.5,-269.89 650.5,-269.89"/>
<text text-anchor="middle" x="601" y="-248.79" font-family="sans" font-size="12.00" fill="#c4c7c7">Symmetric Closure</text>
</a>
</g>
</g>
<!-- Relation&#45;&gt;Symmetric Closure -->
<g id="edge30" class="edge">
<title>Relation&#45;&gt;Symmetric Closure</title>
<path fill="none" stroke="#ffffff" d="M297.37,-155.92C364.19,-158.44 491.69,-167.14 524,-196.89 535.1,-207.11 521.74,-218.82 532,-229.89 534.19,-232.25 536.64,-234.37 539.27,-236.25"/>
<polygon fill="#ffffff" stroke="#ffffff" points="297.3,-152.41 287.19,-155.56 297.06,-159.41 297.3,-152.41"/>
</g>
<!-- Symmetric Relation -->
<g id="node16" class="node">
<title>Symmetric Relation</title>
<g id="a_node16"><a xlink:href="../Symmetric Relation.html" xlink:title="Symmetric Relation" target="_parent">
<path fill="none" stroke="#b75867" d="M653,-343.89C653,-343.89 549,-343.89 549,-343.89 543,-343.89 537,-337.89 537,-331.89 537,-331.89 537,-319.89 537,-319.89 537,-313.89 543,-307.89 549,-307.89 549,-307.89 653,-307.89 653,-307.89 659,-307.89 665,-313.89 665,-319.89 665,-319.89 665,-331.89 665,-331.89 665,-337.89 659,-343.89 653,-343.89"/>
<text text-anchor="middle" x="601" y="-322.79" font-family="sans" font-size="12.00" fill="#c4c7c7">Symmetric Relation</text>
</a>
</g>
</g>
<!-- Relation&#45;&gt;Symmetric Relation -->
<g id="edge32" class="edge">
<title>Relation&#45;&gt;Symmetric Relation</title>
<path fill="none" stroke="#ffffff" d="M296.86,-175.35C362.68,-200.95 386.46,-192.66 447,-222.89 484.63,-241.67 499.41,-243.77 524,-277.89 531.07,-287.7 523.51,-295.28 532,-303.89 533.48,-305.39 535.06,-306.79 536.73,-308.09"/>
<polygon fill="#ffffff" stroke="#ffffff" points="297.87,-171.98 287.29,-171.51 295.27,-178.48 297.87,-171.98"/>
</g>
<!-- Partial function -->
<g id="node17" class="node">
<title>Partial function</title>
<g id="a_node17"><a xlink:href="../Partial function.html" xlink:title="Partial function" target="_parent">
<path fill="none" stroke="#b75867" d="M410.5,-335.89C410.5,-335.89 331.5,-335.89 331.5,-335.89 325.5,-335.89 319.5,-329.89 319.5,-323.89 319.5,-323.89 319.5,-311.89 319.5,-311.89 319.5,-305.89 325.5,-299.89 331.5,-299.89 331.5,-299.89 410.5,-299.89 410.5,-299.89 416.5,-299.89 422.5,-305.89 422.5,-311.89 422.5,-311.89 422.5,-323.89 422.5,-323.89 422.5,-329.89 416.5,-335.89 410.5,-335.89"/>
<text text-anchor="middle" x="371" y="-314.79" font-family="sans" font-size="12.00" fill="#c4c7c7">Partial function</text>
</a>
</g>
</g>
<!-- Relation&#45;&gt;Partial function -->
<g id="edge33" class="edge">
<title>Relation&#45;&gt;Partial function</title>
<path fill="none" stroke="#ffffff" d="M256.09,-183.56C257.77,-215.25 265.35,-265.78 295,-295.89 301.66,-302.66 310.29,-307.37 319.31,-310.64"/>
<polygon fill="#ffffff" stroke="#ffffff" points="259.58,-183.07 255.72,-173.2 252.58,-183.32 259.58,-183.07"/>
</g>
<!-- Total function -->
<g id="node18" class="node">
<title>Total function</title>
<g id="a_node18"><a xlink:href="../Total function.html" xlink:title="Total function" target="_parent">
<path fill="none" stroke="#b75867" d="M406.5,-298.89C406.5,-298.89 335.5,-298.89 335.5,-298.89 329.5,-298.89 323.5,-292.89 323.5,-286.89 323.5,-286.89 323.5,-274.89 323.5,-274.89 323.5,-268.89 329.5,-262.89 335.5,-262.89 335.5,-262.89 406.5,-262.89 406.5,-262.89 412.5,-262.89 418.5,-268.89 418.5,-274.89 418.5,-274.89 418.5,-286.89 418.5,-286.89 418.5,-292.89 412.5,-298.89 406.5,-298.89"/>
<text text-anchor="middle" x="371" y="-277.79" font-family="sans" font-size="12.00" fill="#c4c7c7">Total function</text>
</a>
</g>
</g>
<!-- Relation&#45;&gt;Total function -->
<g id="edge36" class="edge">
<title>Relation&#45;&gt;Total function</title>
<path fill="none" stroke="#ffffff" d="M259.54,-183.07C263.95,-206.49 273.68,-239.08 295,-258.89 302.85,-266.19 313,-271.07 323.28,-274.34"/>
<polygon fill="#ffffff" stroke="#ffffff" points="262.97,-182.32 257.87,-173.03 256.06,-183.47 262.97,-182.32"/>
</g>
<!-- Anti&#45;reflexive relation -->
<g id="node19" class="node">
<title>Anti&#45;reflexive relation</title>
<g id="a_node19"><a xlink:href="../Anti-reflexive relation.html" xlink:title="Anti&#45;reflexive relation" target="_parent">
<path fill="none" stroke="#b75867" d="M658,-306.89C658,-306.89 544,-306.89 544,-306.89 538,-306.89 532,-300.89 532,-294.89 532,-294.89 532,-282.89 532,-282.89 532,-276.89 538,-270.89 544,-270.89 544,-270.89 658,-270.89 658,-270.89 664,-270.89 670,-276.89 670,-282.89 670,-282.89 670,-294.89 670,-294.89 670,-300.89 664,-306.89 658,-306.89"/>
<text text-anchor="middle" x="601" y="-285.79" font-family="sans" font-size="12.00" fill="#c4c7c7">Anti&#45;reflexive relation</text>
</a>
</g>
</g>
<!-- Relation&#45;&gt;Anti&#45;reflexive relation -->
<g id="edge39" class="edge">
<title>Relation&#45;&gt;Anti&#45;reflexive relation</title>
<path fill="none" stroke="#ffffff" d="M297.17,-163.04C344.1,-170.52 515.91,-195.38 524,-203.89 543.44,-224.35 513.99,-245.16 532,-266.89 533.11,-268.23 534.3,-269.48 535.56,-270.66"/>
<polygon fill="#ffffff" stroke="#ffffff" points="297.51,-159.54 287.07,-161.33 296.35,-166.45 297.51,-159.54"/>
</g>
<!-- Strongly Anti&#45;symmetric Relation -->
<g id="node20" class="node">
<title>Strongly Anti&#45;symmetric Relation</title>
<g id="a_node20"><a xlink:href="../Strongly Anti-symmetric Relation.html" xlink:title="Strongly Anti&#45;symmetric Relation" target="_parent">
<path fill="none" stroke="#b75867" d="M1070,-246.89C1070,-246.89 891,-246.89 891,-246.89 885,-246.89 879,-240.89 879,-234.89 879,-234.89 879,-222.89 879,-222.89 879,-216.89 885,-210.89 891,-210.89 891,-210.89 1070,-210.89 1070,-210.89 1076,-210.89 1082,-216.89 1082,-222.89 1082,-222.89 1082,-234.89 1082,-234.89 1082,-240.89 1076,-246.89 1070,-246.89"/>
<text text-anchor="middle" x="980.5" y="-225.79" font-family="sans" font-size="12.00" fill="#c4c7c7">Strongly Anti&#45;symmetric Relation</text>
</a>
</g>
</g>
<!-- Relation&#45;&gt;Strongly Anti&#45;symmetric Relation -->
<g id="edge40" class="edge">
<title>Relation&#45;&gt;Strongly Anti&#45;symmetric Relation</title>
<path fill="none" stroke="#ffffff" d="M257.66,-183.17C261.09,-230.59 270.78,-322.92 295,-342.89 497.41,-509.76 850.72,-310.28 951.78,-246.94"/>
<polygon fill="#ffffff" stroke="#ffffff" points="261.13,-182.7 256.97,-172.96 254.15,-183.17 261.13,-182.7"/>
</g>
<!-- Linear extension&#45;&gt;Partial order -->
<g id="edge43" class="edge">
<title>Linear extension&#45;&gt;Partial order</title>
<path fill="none" stroke="#b75867" d="M943.24,-125.82C921.46,-112.78 894.96,-93.22 879,-68.89 870.72,-56.27 882.77,-45.33 871,-35.89 777.7,38.91 721.58,-30.89 602,-30.89 254,-30.89 254,-30.89 254,-30.89 182.44,-30.89 158.79,-18.5 94,-48.89 83.32,-53.9 73.49,-62.1 65.43,-70.27"/>
<polygon fill="#b75867" stroke="#b75867" points="62.79,-67.96 58.54,-77.67 67.92,-72.73 62.79,-67.96"/>
</g>
<!-- Linear extension&#45;&gt;Relations -->
<g id="edge44" class="edge">
<title>Linear extension&#45;&gt;Relations</title>
<path fill="none" stroke="#ffffff" d="M915.55,-162.97C849.67,-178.02 747.13,-189.17 678,-139.89 669.53,-133.85 678.52,-123.86 670,-117.89 644.88,-100.29 562.21,-112.6 532,-117.89 529.43,-118.34 526.82,-118.93 524.21,-119.62"/>
<polygon fill="#ffffff" stroke="#ffffff" points="916.47,-166.35 925.39,-160.63 914.86,-159.54 916.47,-166.35"/>
</g>
<!-- Linear extension&#45;&gt;Linear order -->
<g id="edge42" class="edge">
<title>Linear extension&#45;&gt;Linear order</title>
<path fill="none" stroke="#b75867" d="M925.26,-158.47C910.2,-162.55 893.9,-167.16 879,-171.89 861.92,-177.31 843.49,-183.84 826.98,-189.91"/>
<polygon fill="#b75867" stroke="#b75867" points="825.67,-186.66 817.51,-193.41 828.1,-193.23 825.67,-186.66"/>
</g>
<!-- Relations&#45;&gt;Partial order -->
<g id="edge48" class="edge">
<title>Relations&#45;&gt;Partial order</title>
<path fill="none" stroke="#b75867" d="M471.77,-113.59C464.84,-107.07 456.26,-100.46 447,-96.89 328.45,-51.17 175.3,-70.32 96.3,-84.95"/>
<polygon fill="#b75867" stroke="#b75867" points="95.28,-81.58 86.11,-86.88 96.59,-88.45 95.28,-81.58"/>
</g>
<!-- Relations&#45;&gt;Transitive Relation -->
<g id="edge57" class="edge">
<title>Relations&#45;&gt;Transitive Relation</title>
<path fill="none" stroke="#b75867" d="M454.54,-114.22C452.04,-113.3 449.51,-112.51 447,-111.89 372.92,-93.54 284.99,-95.07 225.21,-99.22"/>
<polygon fill="#b75867" stroke="#b75867" points="224.84,-95.74 215.13,-99.97 225.36,-102.72 224.84,-95.74"/>
</g>
<!-- Relations&#45;&gt;Anti&#45;symmetric Relation -->
<g id="edge59" class="edge">
<title>Relations&#45;&gt;Anti&#45;symmetric Relation</title>
<path fill="none" stroke="#b75867" d="M454.85,-132.58C454.69,-132.58 454.53,-132.58 454.37,-132.58"/>
<polygon fill="#b75867" stroke="#b75867" points="457.08,-129.07 447.1,-132.61 457.11,-136.07 457.08,-129.07"/>
</g>
<!-- Relations&#45;&gt;Reflexive Relation -->
<g id="edge62" class="edge">
<title>Relations&#45;&gt;Reflexive Relation</title>
<path fill="none" stroke="#b75867" d="M518.23,-113.66C525.25,-109.08 531.09,-105.32 532,-104.89 532.32,-104.74 532.63,-104.59 532.95,-104.44"/>
<polygon fill="#b75867" stroke="#b75867" points="534.67,-107.51 542.44,-100.31 531.87,-101.09 534.67,-107.51"/>
</g>
<!-- Relations&#45;&gt;Relation -->
<g id="edge63" class="edge">
<title>Relations&#45;&gt;Relation</title>
<path fill="none" stroke="#b75867" d="M454.88,-148.72C452.25,-149.57 449.61,-150.31 447,-150.89 396.52,-162.05 336.72,-161.48 297.65,-159.09"/>
<polygon fill="#b75867" stroke="#b75867" points="297.42,-155.57 287.21,-158.38 296.94,-162.55 297.42,-155.57"/>
</g>
<!-- Relations&#45;&gt;Linear extension -->
<g id="edge46" class="edge">
<title>Relations&#45;&gt;Linear extension</title>
<path fill="none" stroke="#b75867" d="M524.21,-118.63C526.82,-117.93 529.43,-117.34 532,-116.89 562.21,-111.6 644.88,-99.29 670,-116.89 678.52,-122.86 669.53,-132.85 678,-138.89 747.13,-188.17 849.67,-177.02 915.55,-162.23"/>
<polygon fill="#b75867" stroke="#b75867" points="916.45,-165.61 925.39,-159.93 914.86,-158.79 916.45,-165.61"/>
</g>
<!-- Relations&#45;&gt;Linear order -->
<g id="edge47" class="edge">
<title>Relations&#45;&gt;Linear order</title>
<path fill="none" stroke="#b75867" d="M520.8,-149.98C521.96,-151.22 523.04,-152.52 524,-153.89 532.69,-166.23 520.48,-177.14 532,-186.89 543.73,-196.82 654.69,-195.45 670,-196.89 686.7,-198.46 704.89,-200.47 721.29,-202.39"/>
<polygon fill="#b75867" stroke="#b75867" points="720.9,-205.87 731.24,-203.57 721.73,-198.92 720.9,-205.87"/>
</g>
<!-- Relations&#45;&gt;Relation of Equivalence -->
<g id="edge50" class="edge">
<title>Relations&#45;&gt;Relation of Equivalence</title>
<path fill="none" stroke="#b75867" d="M517.84,-113.81C522.41,-111.45 527.23,-109.36 532,-107.89 590.78,-89.81 608.75,-103.36 670,-97.89 676.32,-97.32 682.85,-96.71 689.42,-96.06"/>
<polygon fill="#b75867" stroke="#b75867" points="690.14,-99.51 699.75,-95.03 689.45,-92.54 690.14,-99.51"/>
</g>
<!-- Relations&#45;&gt;Transitive Closure -->
<g id="edge51" class="edge">
<title>Relations&#45;&gt;Transitive Closure</title>
<path fill="none" stroke="#b75867" d="M520.86,-149.94C522.01,-151.19 523.06,-152.51 524,-153.89 533.93,-168.53 520.2,-179.7 532,-192.89 532.88,-193.88 533.81,-194.82 534.78,-195.72"/>
<polygon fill="#b75867" stroke="#b75867" points="532.8,-198.61 542.89,-201.84 537.02,-193.02 532.8,-198.61"/>
</g>
<!-- Relations&#45;&gt;Transitive Closure -->
<g id="edge55" class="edge">
<title>Relations&#45;&gt;Transitive Closure</title>
<path fill="none" stroke="#b75867" d="M519.99,-150.01C521.47,-151.54 522.83,-153.16 524,-154.89 533.93,-169.53 520.2,-180.7 532,-193.89 532.88,-194.88 533.81,-195.82 534.78,-196.72"/>
<polygon fill="#b75867" stroke="#b75867" points="532.8,-199.61 542.89,-202.84 537.02,-194.02 532.8,-199.61"/>
</g>
<!-- Relations&#45;&gt;Reflexive Closure -->
<g id="edge53" class="edge">
<title>Relations&#45;&gt;Reflexive Closure</title>
<path fill="none" stroke="#b75867" d="M524.1,-115.98C526.73,-115.15 529.39,-114.43 532,-113.89 590.5,-101.75 658.62,-106.2 707.58,-112.55"/>
<polygon fill="#b75867" stroke="#b75867" points="707.34,-116.05 717.72,-113.93 708.28,-109.12 707.34,-116.05"/>
</g>
<!-- Relations&#45;&gt;Reflexive Closure -->
<g id="edge56" class="edge">
<title>Relations&#45;&gt;Reflexive Closure</title>
<path fill="none" stroke="#b75867" d="M524.1,-116.98C526.73,-116.15 529.39,-115.43 532,-114.89 590.5,-102.75 658.62,-107.2 707.58,-113.38"/>
<polygon fill="#b75867" stroke="#b75867" points="707.35,-116.88 717.72,-114.72 708.26,-109.94 707.35,-116.88"/>
</g>
<!-- Relations&#45;&gt;Chain -->
<g id="edge45" class="edge">
<title>Relations&#45;&gt;Chain</title>
<path fill="none" stroke="#b75867" d="M520.76,-150.01C521.93,-151.24 523.02,-152.53 524,-153.89 532.08,-165.08 521.1,-175.42 532,-183.89 548.11,-196.41 839.1,-191.75 943,-189.67"/>
<polygon fill="#b75867" stroke="#b75867" points="943.39,-193.17 953.31,-189.46 943.24,-186.17 943.39,-193.17"/>
</g>
<!-- Relations&#45;&gt;Symmetric Closure -->
<g id="edge52" class="edge">
<title>Relations&#45;&gt;Symmetric Closure</title>
<path fill="none" stroke="#b75867" d="M503.35,-150.08C510.42,-160.9 518.8,-175.15 524,-188.89 530.58,-206.25 519.68,-216 532,-229.89 532.14,-230.05 532.28,-230.2 532.42,-230.36"/>
<polygon fill="#b75867" stroke="#b75867" points="529.64,-232.57 539.44,-236.59 534.29,-227.33 529.64,-232.57"/>
</g>
<!-- Relations&#45;&gt;Symmetric Closure -->
<g id="edge54" class="edge">
<title>Relations&#45;&gt;Symmetric Closure</title>
<path fill="none" stroke="#b75867" d="M502.69,-149.94C509.89,-161.01 518.63,-175.72 524,-189.89 530.58,-207.25 519.68,-217 532,-230.89 532.14,-231.05 532.28,-231.2 532.42,-231.36"/>
<polygon fill="#b75867" stroke="#b75867" points="529.64,-233.57 539.44,-237.59 534.29,-228.33 529.64,-233.57"/>
</g>
<!-- Relations&#45;&gt;Symmetric Relation -->
<g id="edge60" class="edge">
<title>Relations&#45;&gt;Symmetric Relation</title>
<path fill="none" stroke="#b75867" d="M501.22,-150.15C508.97,-164.31 518.94,-184.69 524,-203.89 529.06,-223.09 520.49,-273.54 531.73,-300.3"/>
<polygon fill="#b75867" stroke="#b75867" points="528.75,-302.14 536.83,-308.99 534.78,-298.59 528.75,-302.14"/>
</g>
<!-- Relations&#45;&gt;Anti&#45;reflexive relation -->
<g id="edge61" class="edge">
<title>Relations&#45;&gt;Anti&#45;reflexive relation</title>
<path fill="none" stroke="#b75867" d="M502.05,-149.9C509.57,-162.55 518.91,-180.12 524,-196.89 527.86,-209.59 523.8,-242.35 530.67,-261.73"/>
<polygon fill="#b75867" stroke="#b75867" points="527.68,-263.57 535.54,-270.68 533.83,-260.23 527.68,-263.57"/>
</g>
<!-- Relations&#45;&gt;Strongly Anti&#45;symmetric Relation -->
<g id="edge58" class="edge">
<title>Relations&#45;&gt;Strongly Anti&#45;symmetric Relation</title>
<path fill="none" stroke="#b75867" d="M520.83,-149.96C521.99,-151.2 523.05,-152.51 524,-153.89 533.31,-167.38 519.59,-179.18 532,-189.89 555.27,-209.98 645.72,-181.02 670,-199.89 678.88,-206.79 668.93,-217.24 678,-223.89 744.05,-272.33 841.99,-263.43 908.17,-249.18"/>
<polygon fill="#b75867" stroke="#b75867" points="909.11,-252.55 918.1,-246.95 907.57,-245.72 909.11,-252.55"/>
</g>
<!-- Class of equivalence -->
<g id="node21" class="node">
<title>Class of equivalence</title>
<g id="a_node21"><a xlink:href="../Class of equivalence.html" xlink:title="Class of equivalence" target="_parent">
<path fill="#273434" stroke="#b75867" d="M654.5,-186.89C654.5,-186.89 547.5,-186.89 547.5,-186.89 541.5,-186.89 535.5,-180.89 535.5,-174.89 535.5,-174.89 535.5,-162.89 535.5,-162.89 535.5,-156.89 541.5,-150.89 547.5,-150.89 547.5,-150.89 654.5,-150.89 654.5,-150.89 660.5,-150.89 666.5,-156.89 666.5,-162.89 666.5,-162.89 666.5,-174.89 666.5,-174.89 666.5,-180.89 660.5,-186.89 654.5,-186.89"/>
<text text-anchor="middle" x="601" y="-165.79" font-family="sans" font-size="12.00" fill="#c4c7c7">Class of equivalence</text>
</a>
</g>
</g>
<!-- Relations&#45;&gt;Class of equivalence -->
<g id="edge49" class="edge">
<title>Relations&#45;&gt;Class of equivalence</title>
<path fill="none" stroke="#b75867" d="M524.44,-144.26C526.99,-145.16 529.54,-146.04 532,-146.89 532.59,-147.09 533.18,-147.29 533.77,-147.49"/>
<polygon fill="#b75867" stroke="#b75867" points="532.96,-150.91 543.55,-150.79 535.19,-144.28 532.96,-150.91"/>
</g>
<!-- Discrete Structures -->
<g id="node22" class="node">
<title>Discrete Structures</title>
<g id="a_node22"><a xlink:href="../Discrete Structures.html" xlink:title="Discrete Structures" target="_parent">
<path fill="none" stroke="#b75867" d="M650,-149.89C650,-149.89 552,-149.89 552,-149.89 546,-149.89 540,-143.89 540,-137.89 540,-137.89 540,-125.89 540,-125.89 540,-119.89 546,-113.89 552,-113.89 552,-113.89 650,-113.89 650,-113.89 656,-113.89 662,-119.89 662,-125.89 662,-125.89 662,-137.89 662,-137.89 662,-143.89 656,-149.89 650,-149.89"/>
<text text-anchor="middle" x="601" y="-128.79" font-family="sans" font-size="12.00" fill="#c4c7c7">Discrete Structures</text>
</a>
</g>
</g>
<!-- Relations&#45;&gt;Discrete Structures -->
<g id="edge64" class="edge">
<title>Relations&#45;&gt;Discrete Structures</title>
<path fill="none" stroke="#ffffff" d="M534.44,-131.89C536.27,-131.89 538.11,-131.89 539.95,-131.89"/>
<polygon fill="#ffffff" stroke="#ffffff" points="534.25,-128.39 524.25,-131.89 534.25,-135.39 534.25,-128.39"/>
</g>
<!-- Linear order&#45;&gt;Partial order -->
<g id="edge65" class="edge">
<title>Linear order&#45;&gt;Partial order</title>
<path fill="none" stroke="#b75867" d="M766.81,-226.92C753.7,-258.73 721.37,-323.97 670,-350.89 599.31,-387.93 570.31,-355.89 490.5,-355.89 254,-355.89 254,-355.89 254,-355.89 135.86,-355.89 72.62,-191.29 51.83,-124.02"/>
<polygon fill="#b75867" stroke="#b75867" points="55.08,-122.67 48.86,-114.1 48.38,-124.68 55.08,-122.67"/>
</g>
<!-- Linear order&#45;&gt;Transitive Relation -->
<g id="edge66" class="edge">
<title>Linear order&#45;&gt;Transitive Relation</title>
<path fill="none" stroke="#b75867" d="M766.43,-226.9C752.93,-257.97 720.27,-320.8 670,-346.89 634.57,-365.27 530.41,-352.89 490.5,-352.89 370,-352.89 370,-352.89 370,-352.89 336.43,-352.89 323.1,-362.26 295,-343.89 218.18,-293.65 178.06,-185.2 162.85,-133.89"/>
<polygon fill="#b75867" stroke="#b75867" points="166.18,-132.78 160.06,-124.13 159.45,-134.71 166.18,-132.78"/>
</g>
<!-- Linear order&#45;&gt;Reflexive Relation -->
<g id="edge68" class="edge">
<title>Linear order&#45;&gt;Reflexive Relation</title>
<path fill="none" stroke="#b75867" d="M733.55,-190.72C714.14,-179.67 692.04,-163.83 678,-143.89 670.06,-132.6 678.97,-124.37 670,-113.89 667.82,-111.34 665.38,-109 662.76,-106.85"/>
<polygon fill="#b75867" stroke="#b75867" points="664.6,-103.87 654.41,-100.96 660.56,-109.59 664.6,-103.87"/>
</g>
<!-- Linear order&#45;&gt;Relation -->
<g id="edge69" class="edge">
<title>Linear order&#45;&gt;Relation</title>
<path fill="none" stroke="#b75867" d="M766.11,-226.93C752.32,-257.33 719.49,-317.8 670,-341.89 642.43,-355.31 559.93,-354.56 532,-341.89 484.67,-320.41 480.84,-298.98 455,-253.89 449.41,-244.13 455.46,-237.29 447,-229.89 395.24,-184.6 354.59,-235.22 295,-200.89 286.58,-196.04 279.08,-188.68 272.97,-181.27"/>
<polygon fill="#b75867" stroke="#b75867" points="275.75,-179.14 266.9,-173.31 270.18,-183.38 275.75,-179.14"/>
</g>
<!-- Linear order&#45;&gt;Linear extension -->
<g id="edge70" class="edge">
<title>Linear order&#45;&gt;Linear extension</title>
<path fill="none" stroke="#ffffff" d="M826.98,-188.96C843.49,-182.84 861.92,-176.31 879,-170.89 893.9,-166.16 910.2,-161.55 925.26,-157.51"/>
<polygon fill="#ffffff" stroke="#ffffff" points="825.65,-185.72 817.51,-192.5 828.1,-192.28 825.65,-185.72"/>
</g>
<!-- Linear order&#45;&gt;Relations -->
<g id="edge71" class="edge">
<title>Linear order&#45;&gt;Relations</title>
<path fill="none" stroke="#ffffff" d="M721.29,-203.34C704.89,-201.47 686.7,-199.46 670,-197.89 654.69,-196.45 543.73,-197.82 532,-187.89 520.48,-178.14 532.69,-167.23 524,-154.89 522.8,-153.18 521.42,-151.57 519.92,-150.06"/>
<polygon fill="#ffffff" stroke="#ffffff" points="720.91,-206.82 731.24,-204.49 721.71,-199.87 720.91,-206.82"/>
</g>
<!-- Linear order&#45;&gt;Strongly Anti&#45;symmetric Relation -->
<g id="edge67" class="edge">
<title>Linear order&#45;&gt;Strongly Anti&#45;symmetric Relation</title>
<path fill="none" stroke="#b75867" d="M817.77,-213.03C832.83,-214.51 850.59,-216.25 868.71,-218.03"/>
<polygon fill="#b75867" stroke="#b75867" points="868.51,-221.52 878.8,-219.02 869.19,-214.56 868.51,-221.52"/>
</g>
<!-- Partial orders have no contours&#45;&gt;Partial order -->
<g id="edge73" class="edge">
<title>Partial orders have no contours&#45;&gt;Partial order</title>
<path fill="none" stroke="#b75867" d="M677.88,-52.79C623.04,-53.9 552.9,-54.89 490.5,-54.89 254,-54.89 254,-54.89 254,-54.89 182.85,-54.89 161.21,-36.55 94,-59.89 86.25,-62.58 78.7,-66.93 71.91,-71.69"/>
<polygon fill="#b75867" stroke="#b75867" points="69.63,-69.03 63.76,-77.85 73.85,-74.61 69.63,-69.03"/>
</g>
<!-- Partial orders have no contours&#45;&gt;Transitive Relation -->
<g id="edge74" class="edge">
<title>Partial orders have no contours&#45;&gt;Transitive Relation</title>
<path fill="none" stroke="#b75867" d="M677.85,-52.51C549.12,-55.55 331.92,-60.38 295,-62.89 262.88,-65.07 253.76,-61.36 223,-70.89 213.29,-73.89 203.36,-78.32 194.2,-83.02"/>
<polygon fill="#b75867" stroke="#b75867" points="192.5,-79.96 185.34,-87.77 195.81,-86.13 192.5,-79.96"/>
</g>
<!-- Partial orders have no contours&#45;&gt;Reflexive Relation -->
<g id="edge75" class="edge">
<title>Partial orders have no contours&#45;&gt;Reflexive Relation</title>
<path fill="none" stroke="#b75867" d="M683.68,-67.92C678.95,-68.83 674.24,-69.73 669.6,-70.62"/>
<polygon fill="#b75867" stroke="#b75867" points="668.75,-67.21 659.58,-72.52 670.06,-74.09 668.75,-67.21"/>
</g>
<!-- Partial orders have no contours&#45;&gt;Chain -->
<g id="edge76" class="edge">
<title>Partial orders have no contours&#45;&gt;Chain</title>
<path fill="none" stroke="#ffffff" d="M872.03,-76.88C880.21,-101.55 867.52,-149.33 879,-162.89 897.05,-184.21 930.09,-189.24 953.34,-189.9"/>
<polygon fill="#ffffff" stroke="#ffffff" points="874.98,-74.99 867.11,-67.89 868.84,-78.34 874.98,-74.99"/>
</g>
<!-- Contour -->
<g id="node23" class="node">
<title>Contour</title>
<g id="a_node23"><a xlink:href="../Contour.html" xlink:title="Contour" target="_parent">
<path fill="#273434" stroke="#b75867" d="M1000,-67.89C1000,-67.89 961,-67.89 961,-67.89 955,-67.89 949,-61.89 949,-55.89 949,-55.89 949,-43.89 949,-43.89 949,-37.89 955,-31.89 961,-31.89 961,-31.89 1000,-31.89 1000,-31.89 1006,-31.89 1012,-37.89 1012,-43.89 1012,-43.89 1012,-55.89 1012,-55.89 1012,-61.89 1006,-67.89 1000,-67.89"/>
<text text-anchor="middle" x="980.5" y="-46.79" font-family="sans" font-size="12.00" fill="#c4c7c7">Contour</text>
</a>
</g>
</g>
<!-- Partial orders have no contours&#45;&gt;Contour -->
<g id="edge72" class="edge">
<title>Partial orders have no contours&#45;&gt;Contour</title>
<path fill="none" stroke="#b75867" d="M871.23,-49.89C895.1,-49.89 919.42,-49.89 938.96,-49.89"/>
<polygon fill="#b75867" stroke="#b75867" points="938.99,-53.39 948.99,-49.89 938.99,-46.39 938.99,-53.39"/>
</g>
</g>
</svg>
