<?xml version="1.0" encoding="UTF-8" standalone="no"?>
<!DOCTYPE svg PUBLIC "-//W3C//DTD SVG 1.1//EN"
 "http://www.w3.org/Graphics/SVG/1.1/DTD/svg11.dtd">
<!-- Generated by graphviz version 2.46.1 (0)
 -->
<!-- Title: Principle of partitions Pages: 1 -->
<svg width="483pt" height="451pt"
 viewBox="0.00 0.00 483.00 451.00" xmlns="http://www.w3.org/2000/svg" xmlns:xlink="http://www.w3.org/1999/xlink">
<g id="graph0" class="graph" transform="scale(1 1) rotate(0) translate(4 447)">
<title>Principle of partitions</title>
<polygon fill="#132020" stroke="transparent" points="-4,4 -4,-447 479,-447 479,4 -4,4"/>
<!-- Principle of partitions -->
<g id="node1" class="node">
<title>Principle of partitions</title>
<g id="a_node1"><a xlink:href="/Knowledge/principle_of_partitions.html" xlink:title="Principle of partitions" target="_parent">
<path fill="#273434" stroke="#b75867" d="M114,-258C114,-258 12,-258 12,-258 6,-258 0,-252 0,-246 0,-246 0,-234 0,-234 0,-228 6,-222 12,-222 12,-222 114,-222 114,-222 120,-222 126,-228 126,-234 126,-234 126,-246 126,-246 126,-252 120,-258 114,-258"/>
<text text-anchor="middle" x="63" y="-236.9" font-family="sans" font-size="12.00" fill="#c4c7c7">Principle of partitions</text>
</a>
</g>
</g>
<!-- Partition -->
<g id="node2" class="node">
<title>Partition</title>
<g id="a_node2"><a xlink:href="/Knowledge/partition.html" xlink:title="Partition" target="_parent">
<path fill="#273434" stroke="#b75867" d="M221,-350C221,-350 185,-350 185,-350 179,-350 173,-344 173,-338 173,-338 173,-326 173,-326 173,-320 179,-314 185,-314 185,-314 221,-314 221,-314 227,-314 233,-320 233,-326 233,-326 233,-338 233,-338 233,-344 227,-350 221,-350"/>
<text text-anchor="middle" x="203" y="-328.9" font-family="sans" font-size="12.00" fill="#c4c7c7">Partition</text>
</a>
</g>
</g>
<!-- Principle of partitions&#45;&gt;Partition -->
<g id="edge1" class="edge">
<title>Principle of partitions&#45;&gt;Partition</title>
<path fill="none" stroke="#b75867" d="M91.26,-258.18C112.72,-272.48 142.79,-292.53 166.19,-308.12"/>
<polygon fill="#b75867" stroke="#b75867" points="164.53,-311.23 174.79,-313.86 168.41,-305.4 164.53,-311.23"/>
</g>
<!-- Set -->
<g id="node3" class="node">
<title>Set</title>
<g id="a_node3"><a xlink:href="/Knowledge/set.html" xlink:title="Set" target="_parent">
<path fill="#273434" stroke="#b75867" d="M218,-258C218,-258 188,-258 188,-258 182,-258 176,-252 176,-246 176,-246 176,-234 176,-234 176,-228 182,-222 188,-222 188,-222 218,-222 218,-222 224,-222 230,-228 230,-234 230,-234 230,-246 230,-246 230,-252 224,-258 218,-258"/>
<text text-anchor="middle" x="203" y="-236.9" font-family="sans" font-size="12.00" fill="#c4c7c7">Set</text>
</a>
</g>
</g>
<!-- Principle of partitions&#45;&gt;Set -->
<g id="edge2" class="edge">
<title>Principle of partitions&#45;&gt;Set</title>
<path fill="none" stroke="#b75867" d="M126.14,-240C139.64,-240 153.49,-240 165.61,-240"/>
<polygon fill="#b75867" stroke="#b75867" points="165.75,-243.5 175.75,-240 165.75,-236.5 165.75,-243.5"/>
</g>
<!-- Combinatoric principles -->
<g id="node4" class="node">
<title>Combinatoric principles</title>
<g id="a_node4"><a xlink:href="/Knowledge/combinatoric_principles.html" xlink:title="Combinatoric principles" target="_parent">
<path fill="none" stroke="#b75867" d="M260,-166C260,-166 146,-166 146,-166 140,-166 134,-160 134,-154 134,-154 134,-142 134,-142 134,-136 140,-130 146,-130 146,-130 260,-130 260,-130 266,-130 272,-136 272,-142 272,-142 272,-154 272,-154 272,-160 266,-166 260,-166"/>
<text text-anchor="middle" x="203" y="-144.9" font-family="sans" font-size="12.00" fill="#c4c7c7">Combinatoric principles</text>
</a>
</g>
</g>
<!-- Principle of partitions&#45;&gt;Combinatoric principles -->
<g id="edge3" class="edge">
<title>Principle of partitions&#45;&gt;Combinatoric principles</title>
<path fill="none" stroke="#ffffff" d="M99.88,-216.08C123.28,-200.48 153.35,-180.43 174.79,-166.14"/>
<polygon fill="#ffffff" stroke="#ffffff" points="97.64,-213.36 91.26,-221.82 101.53,-219.19 97.64,-213.36"/>
</g>
<!-- Partition&#45;&gt;Principle of partitions -->
<g id="edge4" class="edge">
<title>Partition&#45;&gt;Principle of partitions</title>
<path fill="none" stroke="#ffffff" d="M165.53,-308.36C141.87,-292.71 111.59,-272.5 90.28,-258.12"/>
<polygon fill="#ffffff" stroke="#ffffff" points="163.65,-311.31 173.92,-313.9 167.5,-305.47 163.65,-311.31"/>
</g>
<!-- Class of equivalence -->
<g id="node5" class="node">
<title>Class of equivalence</title>
<g id="a_node5"><a xlink:href="/Knowledge/class_of_equivalence.html" xlink:title="Class of equivalence" target="_parent">
<path fill="none" stroke="#b75867" d="M425,-443C425,-443 330,-443 330,-443 324,-443 318,-437 318,-431 318,-431 318,-419 318,-419 318,-413 324,-407 330,-407 330,-407 425,-407 425,-407 431,-407 437,-413 437,-419 437,-419 437,-431 437,-431 437,-437 431,-443 425,-443"/>
<text text-anchor="middle" x="377.5" y="-421.9" font-family="sans" font-size="12.00" fill="#c4c7c7">Class of equivalence</text>
</a>
</g>
</g>
<!-- Partition&#45;&gt;Class of equivalence -->
<g id="edge5" class="edge">
<title>Partition&#45;&gt;Class of equivalence</title>
<path fill="none" stroke="#ffffff" d="M225.4,-357.98C239.4,-373.3 258.95,-391.83 280,-403 291.61,-409.16 304.9,-413.6 317.83,-416.81"/>
<polygon fill="#ffffff" stroke="#ffffff" points="227.86,-355.47 218.61,-350.31 222.62,-360.12 227.86,-355.47"/>
</g>
<!-- Relation of Equivalence -->
<g id="node6" class="node">
<title>Relation of Equivalence</title>
<g id="a_node6"><a xlink:href="/Knowledge/relation_of_equivalence.html" xlink:title="Relation of Equivalence" target="_parent">
<path fill="none" stroke="#b75867" d="M432.5,-406C432.5,-406 322.5,-406 322.5,-406 316.5,-406 310.5,-400 310.5,-394 310.5,-394 310.5,-382 310.5,-382 310.5,-376 316.5,-370 322.5,-370 322.5,-370 432.5,-370 432.5,-370 438.5,-370 444.5,-376 444.5,-382 444.5,-382 444.5,-394 444.5,-394 444.5,-400 438.5,-406 432.5,-406"/>
<text text-anchor="middle" x="377.5" y="-384.9" font-family="sans" font-size="12.00" fill="#c4c7c7">Relation of Equivalence</text>
</a>
</g>
</g>
<!-- Partition&#45;&gt;Relation of Equivalence -->
<g id="edge6" class="edge">
<title>Partition&#45;&gt;Relation of Equivalence</title>
<path fill="none" stroke="#ffffff" d="M242.26,-350.88C254.16,-356.27 267.45,-361.81 280,-366 289.7,-369.24 300.1,-372.16 310.36,-374.74"/>
<polygon fill="#ffffff" stroke="#ffffff" points="243.6,-347.64 233.06,-346.62 240.66,-353.99 243.6,-347.64"/>
</g>
<!-- Set&#45;&gt;Principle of partitions -->
<g id="edge7" class="edge">
<title>Set&#45;&gt;Principle of partitions</title>
<path fill="none" stroke="#ffffff" d="M165.61,-240.67C153.49,-240.73 139.64,-240.76 126.14,-240.75"/>
<polygon fill="#ffffff" stroke="#ffffff" points="165.77,-244.17 175.75,-240.6 165.73,-237.17 165.77,-244.17"/>
</g>
<!-- Set&#45;&gt;Class of equivalence -->
<g id="edge12" class="edge">
<title>Set&#45;&gt;Class of equivalence</title>
<path fill="none" stroke="#ffffff" d="M234.67,-264.87C248.54,-277.94 263.66,-295.15 272,-314 280.03,-332.16 266.93,-388.05 280,-403 289.67,-414.06 303.64,-420.19 317.97,-423.45"/>
<polygon fill="#ffffff" stroke="#ffffff" points="236.91,-262.17 227.15,-258.05 232.21,-267.36 236.91,-262.17"/>
</g>
<!-- Set&#45;&gt;Relation of Equivalence -->
<g id="edge18" class="edge">
<title>Set&#45;&gt;Relation of Equivalence</title>
<path fill="none" stroke="#ffffff" d="M234.16,-265.11C247.91,-278.23 263.07,-295.42 272,-314 282.13,-335.08 264.07,-348.89 280,-366 288.08,-374.68 298.81,-380.28 310.18,-383.82"/>
<polygon fill="#ffffff" stroke="#ffffff" points="236.44,-262.45 226.72,-258.25 231.7,-267.6 236.44,-262.45"/>
</g>
<!-- Principle of inclusion and exclusion -->
<g id="node7" class="node">
<title>Principle of inclusion and exclusion</title>
<g id="a_node7"><a xlink:href="/Knowledge/principle_of_inclusion_and_exclusion.html" xlink:title="Principle of inclusion and exclusion" target="_parent">
<path fill="none" stroke="#b75867" d="M463,-147C463,-147 292,-147 292,-147 286,-147 280,-141 280,-135 280,-135 280,-123 280,-123 280,-117 286,-111 292,-111 292,-111 463,-111 463,-111 469,-111 475,-117 475,-123 475,-123 475,-135 475,-135 475,-141 469,-147 463,-147"/>
<text text-anchor="middle" x="377.5" y="-125.9" font-family="sans" font-size="12.00" fill="#c4c7c7">Principle of inclusion and exclusion</text>
</a>
</g>
</g>
<!-- Set&#45;&gt;Principle of inclusion and exclusion -->
<g id="edge8" class="edge">
<title>Set&#45;&gt;Principle of inclusion and exclusion</title>
<path fill="none" stroke="#ffffff" d="M230.93,-214.76C244.29,-201.37 260.08,-184.17 272,-167 276.53,-160.47 273.75,-155.91 280,-151 281.76,-149.62 283.58,-148.32 285.47,-147.11"/>
<polygon fill="#ffffff" stroke="#ffffff" points="228.47,-212.27 223.8,-221.78 233.38,-217.26 228.47,-212.27"/>
</g>
<!-- Principle of the bijection -->
<g id="node8" class="node">
<title>Principle of the bijection</title>
<g id="a_node8"><a xlink:href="/Knowledge/principle_of_the_bijection.html" xlink:title="Principle of the bijection" target="_parent">
<path fill="none" stroke="#b75867" d="M435.5,-110C435.5,-110 319.5,-110 319.5,-110 313.5,-110 307.5,-104 307.5,-98 307.5,-98 307.5,-86 307.5,-86 307.5,-80 313.5,-74 319.5,-74 319.5,-74 435.5,-74 435.5,-74 441.5,-74 447.5,-80 447.5,-86 447.5,-86 447.5,-98 447.5,-98 447.5,-104 441.5,-110 435.5,-110"/>
<text text-anchor="middle" x="377.5" y="-88.9" font-family="sans" font-size="12.00" fill="#c4c7c7">Principle of the bijection</text>
</a>
</g>
</g>
<!-- Set&#45;&gt;Principle of the bijection -->
<g id="edge9" class="edge">
<title>Set&#45;&gt;Principle of the bijection</title>
<path fill="none" stroke="#ffffff" d="M234.48,-215.04C248.15,-202.15 263.17,-185.29 272,-167 282.36,-145.55 263.79,-131.46 280,-114 287.37,-106.07 296.95,-100.7 307.21,-97.13"/>
<polygon fill="#ffffff" stroke="#ffffff" points="232.11,-212.46 227.07,-221.78 236.82,-217.64 232.11,-212.46"/>
</g>
<!-- Principle of products -->
<g id="node9" class="node">
<title>Principle of products</title>
<g id="a_node9"><a xlink:href="/Knowledge/principle_of_products.html" xlink:title="Principle of products" target="_parent">
<path fill="none" stroke="#b75867" d="M426.5,-73C426.5,-73 328.5,-73 328.5,-73 322.5,-73 316.5,-67 316.5,-61 316.5,-61 316.5,-49 316.5,-49 316.5,-43 322.5,-37 328.5,-37 328.5,-37 426.5,-37 426.5,-37 432.5,-37 438.5,-43 438.5,-49 438.5,-49 438.5,-61 438.5,-61 438.5,-67 432.5,-73 426.5,-73"/>
<text text-anchor="middle" x="377.5" y="-51.9" font-family="sans" font-size="12.00" fill="#c4c7c7">Principle of products</text>
</a>
</g>
</g>
<!-- Set&#45;&gt;Principle of products -->
<g id="edge10" class="edge">
<title>Set&#45;&gt;Principle of products</title>
<path fill="none" stroke="#ffffff" d="M234.98,-215.27C248.77,-202.43 263.73,-185.55 272,-167 280.17,-148.66 266.8,-92.13 280,-77 289.32,-66.32 302.66,-60.24 316.45,-56.9"/>
<polygon fill="#ffffff" stroke="#ffffff" points="232.6,-212.7 227.49,-221.97 237.27,-217.91 232.6,-212.7"/>
</g>
<!-- Symmetric Closure -->
<g id="node10" class="node">
<title>Symmetric Closure</title>
<g id="a_node10"><a xlink:href="/Knowledge/symmetric_closure.html" xlink:title="Symmetric Closure" target="_parent">
<path fill="none" stroke="#b75867" d="M421,-369C421,-369 334,-369 334,-369 328,-369 322,-363 322,-357 322,-357 322,-345 322,-345 322,-339 328,-333 334,-333 334,-333 421,-333 421,-333 427,-333 433,-339 433,-345 433,-345 433,-357 433,-357 433,-363 427,-369 421,-369"/>
<text text-anchor="middle" x="377.5" y="-347.9" font-family="sans" font-size="12.00" fill="#c4c7c7">Symmetric Closure</text>
</a>
</g>
</g>
<!-- Set&#45;&gt;Symmetric Closure -->
<g id="edge11" class="edge">
<title>Set&#45;&gt;Symmetric Closure</title>
<path fill="none" stroke="#ffffff" d="M230.16,-265.21C243.58,-278.91 259.66,-296.58 272,-314 276.37,-320.16 274,-324.41 280,-329 292.01,-338.18 307.17,-343.65 321.89,-346.87"/>
<polygon fill="#ffffff" stroke="#ffffff" points="232.55,-262.65 223.02,-258.03 227.59,-267.59 232.55,-262.65"/>
</g>
<!-- Reflexive Closure -->
<g id="node11" class="node">
<title>Reflexive Closure</title>
<g id="a_node11"><a xlink:href="/Knowledge/reflexive_closure.html" xlink:title="Reflexive Closure" target="_parent">
<path fill="none" stroke="#b75867" d="M416.5,-332C416.5,-332 338.5,-332 338.5,-332 332.5,-332 326.5,-326 326.5,-320 326.5,-320 326.5,-308 326.5,-308 326.5,-302 332.5,-296 338.5,-296 338.5,-296 416.5,-296 416.5,-296 422.5,-296 428.5,-302 428.5,-308 428.5,-308 428.5,-320 428.5,-320 428.5,-326 422.5,-332 416.5,-332"/>
<text text-anchor="middle" x="377.5" y="-310.9" font-family="sans" font-size="12.00" fill="#c4c7c7">Reflexive Closure</text>
</a>
</g>
</g>
<!-- Set&#45;&gt;Reflexive Closure -->
<g id="edge13" class="edge">
<title>Set&#45;&gt;Reflexive Closure</title>
<path fill="none" stroke="#ffffff" d="M233.97,-264.38C247.37,-274.22 263.78,-284.91 280,-292 294.49,-298.33 311.02,-302.95 326.27,-306.28"/>
<polygon fill="#ffffff" stroke="#ffffff" points="235.72,-261.31 225.63,-258.08 231.5,-266.9 235.72,-261.31"/>
</g>
<!-- Recurrent Equations -->
<g id="node12" class="node">
<title>Recurrent Equations</title>
<g id="a_node12"><a xlink:href="/Knowledge/recurrent_equations.html" xlink:title="Recurrent Equations" target="_parent">
<path fill="none" stroke="#b75867" d="M425,-295C425,-295 330,-295 330,-295 324,-295 318,-289 318,-283 318,-283 318,-271 318,-271 318,-265 324,-259 330,-259 330,-259 425,-259 425,-259 431,-259 437,-265 437,-271 437,-271 437,-283 437,-283 437,-289 431,-295 425,-295"/>
<text text-anchor="middle" x="377.5" y="-273.9" font-family="sans" font-size="12.00" fill="#c4c7c7">Recurrent Equations</text>
</a>
</g>
</g>
<!-- Set&#45;&gt;Recurrent Equations -->
<g id="edge14" class="edge">
<title>Set&#45;&gt;Recurrent Equations</title>
<path fill="none" stroke="#ffffff" d="M240.01,-247.72C262.51,-252.55 292.02,-258.88 317.84,-264.42"/>
<polygon fill="#ffffff" stroke="#ffffff" points="240.71,-244.29 230.2,-245.62 239.24,-251.14 240.71,-244.29"/>
</g>
<!-- Principle of division -->
<g id="node13" class="node">
<title>Principle of division</title>
<g id="a_node13"><a xlink:href="/Knowledge/principle_of_division.html" xlink:title="Principle of division" target="_parent">
<path fill="none" stroke="#b75867" d="M423.5,-221C423.5,-221 331.5,-221 331.5,-221 325.5,-221 319.5,-215 319.5,-209 319.5,-209 319.5,-197 319.5,-197 319.5,-191 325.5,-185 331.5,-185 331.5,-185 423.5,-185 423.5,-185 429.5,-185 435.5,-191 435.5,-197 435.5,-197 435.5,-209 435.5,-209 435.5,-215 429.5,-221 423.5,-221"/>
<text text-anchor="middle" x="377.5" y="-199.9" font-family="sans" font-size="12.00" fill="#c4c7c7">Principle of division</text>
</a>
</g>
</g>
<!-- Set&#45;&gt;Principle of division -->
<g id="edge15" class="edge">
<title>Set&#45;&gt;Principle of division</title>
<path fill="none" stroke="#ffffff" d="M240.18,-232.24C263.08,-227.33 293.19,-220.87 319.29,-215.27"/>
<polygon fill="#ffffff" stroke="#ffffff" points="239.24,-228.86 230.2,-234.38 240.71,-235.71 239.24,-228.86"/>
</g>
<!-- Dirichlet principle -->
<g id="node14" class="node">
<title>Dirichlet principle</title>
<g id="a_node14"><a xlink:href="/Knowledge/dirichlet_principle.html" xlink:title="Dirichlet principle" target="_parent">
<path fill="none" stroke="#b75867" d="M419,-184C419,-184 336,-184 336,-184 330,-184 324,-178 324,-172 324,-172 324,-160 324,-160 324,-154 330,-148 336,-148 336,-148 419,-148 419,-148 425,-148 431,-154 431,-160 431,-160 431,-172 431,-172 431,-178 425,-184 419,-184"/>
<text text-anchor="middle" x="377.5" y="-162.9" font-family="sans" font-size="12.00" fill="#c4c7c7">Dirichlet principle</text>
</a>
</g>
</g>
<!-- Set&#45;&gt;Dirichlet principle -->
<g id="edge16" class="edge">
<title>Set&#45;&gt;Dirichlet principle</title>
<path fill="none" stroke="#ffffff" d="M233.97,-215.62C247.37,-205.78 263.78,-195.09 280,-188 293.7,-182.01 309.23,-177.55 323.77,-174.28"/>
<polygon fill="#ffffff" stroke="#ffffff" points="231.5,-213.1 225.63,-221.92 235.72,-218.69 231.5,-213.1"/>
</g>
<!-- Differential Analysis -->
<g id="node15" class="node">
<title>Differential Analysis</title>
<g id="a_node15"><a xlink:href="/Knowledge/differential_analysis.html" xlink:title="Differential Analysis" target="_parent">
<path fill="none" stroke="#b75867" d="M423.5,-258C423.5,-258 331.5,-258 331.5,-258 325.5,-258 319.5,-252 319.5,-246 319.5,-246 319.5,-234 319.5,-234 319.5,-228 325.5,-222 331.5,-222 331.5,-222 423.5,-222 423.5,-222 429.5,-222 435.5,-228 435.5,-234 435.5,-234 435.5,-246 435.5,-246 435.5,-252 429.5,-258 423.5,-258"/>
<text text-anchor="middle" x="377.5" y="-236.9" font-family="sans" font-size="12.00" fill="#c4c7c7">Differential Analysis</text>
</a>
</g>
</g>
<!-- Set&#45;&gt;Differential Analysis -->
<g id="edge17" class="edge">
<title>Set&#45;&gt;Differential Analysis</title>
<path fill="none" stroke="#ffffff" d="M240.49,-240C263.35,-240 293.31,-240 319.29,-240"/>
<polygon fill="#ffffff" stroke="#ffffff" points="240.2,-236.5 230.2,-240 240.2,-243.5 240.2,-236.5"/>
</g>
<!-- Combinatoric principles&#45;&gt;Principle of partitions -->
<g id="edge23" class="edge">
<title>Combinatoric principles&#45;&gt;Principle of partitions</title>
<path fill="none" stroke="#b75867" d="M175.52,-166.26C154.17,-180.66 123.91,-200.86 100.3,-216.47"/>
<polygon fill="#b75867" stroke="#b75867" points="98.34,-213.57 91.93,-222 102.2,-219.41 98.34,-213.57"/>
</g>
<!-- Combinatoric principles&#45;&gt;Principle of inclusion and exclusion -->
<g id="edge19" class="edge">
<title>Combinatoric principles&#45;&gt;Principle of inclusion and exclusion</title>
<path fill="none" stroke="#b75867" d="M272.18,-140.49C272.34,-140.47 272.49,-140.46 272.65,-140.44"/>
<polygon fill="#b75867" stroke="#b75867" points="270.3,-144.22 279.86,-139.64 269.54,-137.26 270.3,-144.22"/>
</g>
<!-- Combinatoric principles&#45;&gt;Principle of the bijection -->
<g id="edge21" class="edge">
<title>Combinatoric principles&#45;&gt;Principle of the bijection</title>
<path fill="none" stroke="#b75867" d="M240.53,-129.91C252.86,-124.28 266.84,-118.4 280,-114 285.59,-112.13 291.41,-110.37 297.3,-108.72"/>
<polygon fill="#b75867" stroke="#b75867" points="298.5,-112.02 307.25,-106.05 296.68,-105.26 298.5,-112.02"/>
</g>
<!-- Combinatoric principles&#45;&gt;Principle of products -->
<g id="edge22" class="edge">
<title>Combinatoric principles&#45;&gt;Principle of products</title>
<path fill="none" stroke="#b75867" d="M218.61,-129.69C232.63,-113.38 255.28,-90.12 280,-77 288.28,-72.61 297.41,-69.09 306.66,-66.27"/>
<polygon fill="#b75867" stroke="#b75867" points="307.62,-69.64 316.31,-63.58 305.73,-62.89 307.62,-69.64"/>
</g>
<!-- Combinatoric principles&#45;&gt;Principle of division -->
<g id="edge20" class="edge">
<title>Combinatoric principles&#45;&gt;Principle of division</title>
<path fill="none" stroke="#b75867" d="M241.74,-166.03C253.78,-171.34 267.29,-176.83 280,-181 289.43,-184.09 299.52,-186.91 309.48,-189.42"/>
<polygon fill="#b75867" stroke="#b75867" points="308.84,-192.86 319.38,-191.82 310.49,-186.06 308.84,-192.86"/>
</g>
<!-- Combinatoric principles&#45;&gt;Dirichlet principle -->
<g id="edge24" class="edge">
<title>Combinatoric principles&#45;&gt;Dirichlet principle</title>
<path fill="none" stroke="#b75867" d="M272.18,-155.11C285.91,-156.55 300.28,-158.05 313.82,-159.46"/>
<polygon fill="#b75867" stroke="#b75867" points="313.67,-162.96 323.98,-160.52 314.4,-156 313.67,-162.96"/>
</g>
<!-- Combinatorics -->
<g id="node16" class="node">
<title>Combinatorics</title>
<g id="a_node16"><a xlink:href="/Knowledge/combinatorics.html" xlink:title="Combinatorics" target="_parent">
<path fill="none" stroke="#b75867" d="M411,-36C411,-36 344,-36 344,-36 338,-36 332,-30 332,-24 332,-24 332,-12 332,-12 332,-6 338,0 344,0 344,0 411,0 411,0 417,0 423,-6 423,-12 423,-12 423,-24 423,-24 423,-30 417,-36 411,-36"/>
<text text-anchor="middle" x="377.5" y="-14.9" font-family="sans" font-size="12.00" fill="#c4c7c7">Combinatorics</text>
</a>
</g>
</g>
<!-- Combinatoric principles&#45;&gt;Combinatorics -->
<g id="edge25" class="edge">
<title>Combinatoric principles&#45;&gt;Combinatorics</title>
<path fill="none" stroke="#ffffff" d="M216.07,-120.68C228.5,-95.79 250.25,-59.96 280,-40 295.13,-29.85 314.27,-24.34 331.51,-21.36"/>
<polygon fill="#ffffff" stroke="#ffffff" points="212.79,-119.42 211.62,-129.95 219.1,-122.45 212.79,-119.42"/>
</g>
</g>
</svg>
