<?xml version="1.0" encoding="UTF-8" standalone="no"?>
<!DOCTYPE svg PUBLIC "-//W3C//DTD SVG 1.1//EN"
 "http://www.w3.org/Graphics/SVG/1.1/DTD/svg11.dtd">
<!-- Generated by graphviz version 2.44.0 (0)
 -->
<!-- Title: Principle of the bijection Pages: 1 -->
<svg width="544pt" height="562pt"
 viewBox="0.00 0.00 544.00 562.00" xmlns="http://www.w3.org/2000/svg" xmlns:xlink="http://www.w3.org/1999/xlink">
<g id="graph0" class="graph" transform="scale(1 1) rotate(0) translate(4 558)">
<title>Principle of the bijection</title>
<polygon fill="#132020" stroke="transparent" points="-4,4 -4,-558 540,-558 540,4 -4,4"/>
<!-- Principle of the bijection -->
<g id="node1" class="node">
<title>Principle of the bijection</title>
<g id="a_node1"><a xlink:href="/Knowledge/Principle of the bijection.html" xlink:title="Principle of the bijection" target="_parent">
<path fill="#273434" stroke="#b75867" d="M142,-258C142,-258 12,-258 12,-258 6,-258 0,-252 0,-246 0,-246 0,-234 0,-234 0,-228 6,-222 12,-222 12,-222 142,-222 142,-222 148,-222 154,-228 154,-234 154,-234 154,-246 154,-246 154,-252 148,-258 142,-258"/>
<text text-anchor="middle" x="77" y="-236.9" font-family="sans" font-size="12.00" fill="#c4c7c7">Principle of the bijection</text>
</a>
</g>
</g>
<!-- Bijective function -->
<g id="node2" class="node">
<title>Bijective function</title>
<g id="a_node2"><a xlink:href="/Knowledge/Bijective function.html" xlink:title="Bijective function" target="_parent">
<path fill="#273434" stroke="#b75867" d="M282.5,-480C282.5,-480 192.5,-480 192.5,-480 186.5,-480 180.5,-474 180.5,-468 180.5,-468 180.5,-456 180.5,-456 180.5,-450 186.5,-444 192.5,-444 192.5,-444 282.5,-444 282.5,-444 288.5,-444 294.5,-450 294.5,-456 294.5,-456 294.5,-468 294.5,-468 294.5,-474 288.5,-480 282.5,-480"/>
<text text-anchor="middle" x="237.5" y="-458.9" font-family="sans" font-size="12.00" fill="#c4c7c7">Bijective function</text>
</a>
</g>
</g>
<!-- Principle of the bijection&#45;&gt;Bijective function -->
<g id="edge1" class="edge">
<title>Principle of the bijection&#45;&gt;Bijective function</title>
<path fill="none" stroke="#b75867" d="M90.97,-258.17C118.96,-297.37 185.13,-390.05 217.71,-435.68"/>
<polygon fill="#b75867" stroke="#b75867" points="214.91,-437.79 223.57,-443.89 220.61,-433.72 214.91,-437.79"/>
</g>
<!-- Set -->
<g id="node3" class="node">
<title>Set</title>
<g id="a_node3"><a xlink:href="/Knowledge/Set.html" xlink:title="Set" target="_parent">
<path fill="#273434" stroke="#b75867" d="M252.5,-258C252.5,-258 222.5,-258 222.5,-258 216.5,-258 210.5,-252 210.5,-246 210.5,-246 210.5,-234 210.5,-234 210.5,-228 216.5,-222 222.5,-222 222.5,-222 252.5,-222 252.5,-222 258.5,-222 264.5,-228 264.5,-234 264.5,-234 264.5,-246 264.5,-246 264.5,-252 258.5,-258 252.5,-258"/>
<text text-anchor="middle" x="237.5" y="-236.9" font-family="sans" font-size="12.00" fill="#c4c7c7">Set</text>
</a>
</g>
</g>
<!-- Principle of the bijection&#45;&gt;Set -->
<g id="edge2" class="edge">
<title>Principle of the bijection&#45;&gt;Set</title>
<path fill="none" stroke="#b75867" d="M154,-240C170.08,-240 186.34,-240 200.13,-240"/>
<polygon fill="#b75867" stroke="#b75867" points="200.14,-243.5 210.14,-240 200.14,-236.5 200.14,-243.5"/>
</g>
<!-- Combinatoric principles -->
<g id="node4" class="node">
<title>Combinatoric principles</title>
<g id="a_node4"><a xlink:href="/Knowledge/Combinatoric principles.html" xlink:title="Combinatoric principles" target="_parent">
<path fill="none" stroke="#b75867" d="M301,-166C301,-166 174,-166 174,-166 168,-166 162,-160 162,-154 162,-154 162,-142 162,-142 162,-136 168,-130 174,-130 174,-130 301,-130 301,-130 307,-130 313,-136 313,-142 313,-142 313,-154 313,-154 313,-160 307,-166 301,-166"/>
<text text-anchor="middle" x="237.5" y="-144.9" font-family="sans" font-size="12.00" fill="#c4c7c7">Combinatoric principles</text>
</a>
</g>
</g>
<!-- Principle of the bijection&#45;&gt;Combinatoric principles -->
<g id="edge3" class="edge">
<title>Principle of the bijection&#45;&gt;Combinatoric principles</title>
<path fill="none" stroke="#ffffff" d="M118.14,-216.7C145.17,-201.01 180.3,-180.62 205.25,-166.14"/>
<polygon fill="#ffffff" stroke="#ffffff" points="116.21,-213.78 109.31,-221.82 119.72,-219.83 116.21,-213.78"/>
</g>
<!-- Bijective function&#45;&gt;Principle of the bijection -->
<g id="edge7" class="edge">
<title>Bijective function&#45;&gt;Principle of the bijection</title>
<path fill="none" stroke="#ffffff" d="M217.39,-435.74C184.59,-390.14 118.45,-297.48 90.7,-258.22"/>
<polygon fill="#ffffff" stroke="#ffffff" points="214.61,-437.87 223.29,-443.94 220.29,-433.78 214.61,-437.87"/>
</g>
<!-- Surjective function -->
<g id="node5" class="node">
<title>Surjective function</title>
<g id="a_node5"><a xlink:href="/Knowledge/Surjective function.html" xlink:title="Surjective function" target="_parent">
<path fill="#273434" stroke="#b75867" d="M477.5,-554C477.5,-554 379.5,-554 379.5,-554 373.5,-554 367.5,-548 367.5,-542 367.5,-542 367.5,-530 367.5,-530 367.5,-524 373.5,-518 379.5,-518 379.5,-518 477.5,-518 477.5,-518 483.5,-518 489.5,-524 489.5,-530 489.5,-530 489.5,-542 489.5,-542 489.5,-548 483.5,-554 477.5,-554"/>
<text text-anchor="middle" x="428.5" y="-532.9" font-family="sans" font-size="12.00" fill="#c4c7c7">Surjective function</text>
</a>
</g>
</g>
<!-- Bijective function&#45;&gt;Surjective function -->
<g id="edge4" class="edge">
<title>Bijective function&#45;&gt;Surjective function</title>
<path fill="none" stroke="#b75867" d="M262.16,-480.14C278.02,-491.46 299.8,-505.46 321,-514 332.47,-518.62 345.04,-522.32 357.4,-525.26"/>
<polygon fill="#b75867" stroke="#b75867" points="356.72,-528.69 367.24,-527.46 358.24,-521.86 356.72,-528.69"/>
</g>
<!-- Injective function -->
<g id="node6" class="node">
<title>Injective function</title>
<g id="a_node6"><a xlink:href="/Knowledge/Injective function.html" xlink:title="Injective function" target="_parent">
<path fill="#273434" stroke="#b75867" d="M473.5,-517C473.5,-517 383.5,-517 383.5,-517 377.5,-517 371.5,-511 371.5,-505 371.5,-505 371.5,-493 371.5,-493 371.5,-487 377.5,-481 383.5,-481 383.5,-481 473.5,-481 473.5,-481 479.5,-481 485.5,-487 485.5,-493 485.5,-493 485.5,-505 485.5,-505 485.5,-511 479.5,-517 473.5,-517"/>
<text text-anchor="middle" x="428.5" y="-495.9" font-family="sans" font-size="12.00" fill="#c4c7c7">Injective function</text>
</a>
</g>
</g>
<!-- Bijective function&#45;&gt;Injective function -->
<g id="edge5" class="edge">
<title>Bijective function&#45;&gt;Injective function</title>
<path fill="none" stroke="#b75867" d="M294.69,-473C315.64,-477.1 339.61,-481.79 361.37,-486.05"/>
<polygon fill="#b75867" stroke="#b75867" points="360.71,-489.49 371.2,-487.98 362.05,-482.62 360.71,-489.49"/>
</g>
<!-- Linear Algebra -->
<g id="node7" class="node">
<title>Linear Algebra</title>
<g id="a_node7"><a xlink:href="/Knowledge/Linear Algebra.html" xlink:title="Linear Algebra" target="_parent">
<path fill="none" stroke="#b75867" d="M465.5,-480C465.5,-480 391.5,-480 391.5,-480 385.5,-480 379.5,-474 379.5,-468 379.5,-468 379.5,-456 379.5,-456 379.5,-450 385.5,-444 391.5,-444 391.5,-444 465.5,-444 465.5,-444 471.5,-444 477.5,-450 477.5,-456 477.5,-456 477.5,-468 477.5,-468 477.5,-474 471.5,-480 465.5,-480"/>
<text text-anchor="middle" x="428.5" y="-458.9" font-family="sans" font-size="12.00" fill="#c4c7c7">Linear Algebra</text>
</a>
</g>
</g>
<!-- Bijective function&#45;&gt;Linear Algebra -->
<g id="edge6" class="edge">
<title>Bijective function&#45;&gt;Linear Algebra</title>
<path fill="none" stroke="#ffffff" d="M304.98,-462C329.44,-462 356.65,-462 379.2,-462"/>
<polygon fill="#ffffff" stroke="#ffffff" points="304.69,-458.5 294.69,-462 304.69,-465.5 304.69,-458.5"/>
</g>
<!-- Set&#45;&gt;Principle of the bijection -->
<g id="edge19" class="edge">
<title>Set&#45;&gt;Principle of the bijection</title>
<path fill="none" stroke="#ffffff" d="M200.13,-240.64C186.34,-240.72 170.08,-240.75 154,-240.75"/>
<polygon fill="#ffffff" stroke="#ffffff" points="200.16,-244.14 210.14,-240.58 200.12,-237.14 200.16,-244.14"/>
</g>
<!-- Recurrent Equations -->
<g id="node8" class="node">
<title>Recurrent Equations</title>
<g id="a_node8"><a xlink:href="/Knowledge/Recurrent Equations.html" xlink:title="Recurrent Equations" target="_parent">
<path fill="none" stroke="#b75867" d="M482,-332C482,-332 375,-332 375,-332 369,-332 363,-326 363,-320 363,-320 363,-308 363,-308 363,-302 369,-296 375,-296 375,-296 482,-296 482,-296 488,-296 494,-302 494,-308 494,-308 494,-320 494,-320 494,-326 488,-332 482,-332"/>
<text text-anchor="middle" x="428.5" y="-310.9" font-family="sans" font-size="12.00" fill="#c4c7c7">Recurrent Equations</text>
</a>
</g>
</g>
<!-- Set&#45;&gt;Recurrent Equations -->
<g id="edge8" class="edge">
<title>Set&#45;&gt;Recurrent Equations</title>
<path fill="none" stroke="#ffffff" d="M270.42,-263.9C285.15,-273.91 303.28,-284.86 321,-292 334.13,-297.29 348.71,-301.37 362.76,-304.5"/>
<polygon fill="#ffffff" stroke="#ffffff" points="272.37,-260.99 262.16,-258.14 268.36,-266.73 272.37,-260.99"/>
</g>
<!-- Reflexive Closure -->
<g id="node9" class="node">
<title>Reflexive Closure</title>
<g id="a_node9"><a xlink:href="/Knowledge/Reflexive Closure.html" xlink:title="Reflexive Closure" target="_parent">
<path fill="none" stroke="#b75867" d="M473,-295C473,-295 384,-295 384,-295 378,-295 372,-289 372,-283 372,-283 372,-271 372,-271 372,-265 378,-259 384,-259 384,-259 473,-259 473,-259 479,-259 485,-265 485,-271 485,-271 485,-283 485,-283 485,-289 479,-295 473,-295"/>
<text text-anchor="middle" x="428.5" y="-273.9" font-family="sans" font-size="12.00" fill="#c4c7c7">Reflexive Closure</text>
</a>
</g>
</g>
<!-- Set&#45;&gt;Reflexive Closure -->
<g id="edge9" class="edge">
<title>Set&#45;&gt;Reflexive Closure</title>
<path fill="none" stroke="#ffffff" d="M274.76,-247.1C302.27,-252.48 340.58,-259.98 371.94,-266.12"/>
<polygon fill="#ffffff" stroke="#ffffff" points="275.27,-243.63 264.78,-245.14 273.92,-250.5 275.27,-243.63"/>
</g>
<!-- Symmetric Closure -->
<g id="node10" class="node">
<title>Symmetric Closure</title>
<g id="a_node10"><a xlink:href="/Knowledge/Symmetric Closure.html" xlink:title="Symmetric Closure" target="_parent">
<path fill="none" stroke="#b75867" d="M478,-258C478,-258 379,-258 379,-258 373,-258 367,-252 367,-246 367,-246 367,-234 367,-234 367,-228 373,-222 379,-222 379,-222 478,-222 478,-222 484,-222 490,-228 490,-234 490,-234 490,-246 490,-246 490,-252 484,-258 478,-258"/>
<text text-anchor="middle" x="428.5" y="-236.9" font-family="sans" font-size="12.00" fill="#c4c7c7">Symmetric Closure</text>
</a>
</g>
</g>
<!-- Set&#45;&gt;Symmetric Closure -->
<g id="edge10" class="edge">
<title>Set&#45;&gt;Symmetric Closure</title>
<path fill="none" stroke="#ffffff" d="M274.95,-240C300.96,-240 336.55,-240 366.81,-240"/>
<polygon fill="#ffffff" stroke="#ffffff" points="274.78,-236.5 264.78,-240 274.78,-243.5 274.78,-236.5"/>
</g>
<!-- Class of equivalence -->
<g id="node11" class="node">
<title>Class of equivalence</title>
<g id="a_node11"><a xlink:href="/Knowledge/Class of equivalence.html" xlink:title="Class of equivalence" target="_parent">
<path fill="none" stroke="#b75867" d="M482,-443C482,-443 375,-443 375,-443 369,-443 363,-437 363,-431 363,-431 363,-419 363,-419 363,-413 369,-407 375,-407 375,-407 482,-407 482,-407 488,-407 494,-413 494,-419 494,-419 494,-431 494,-431 494,-437 488,-443 482,-443"/>
<text text-anchor="middle" x="428.5" y="-421.9" font-family="sans" font-size="12.00" fill="#c4c7c7">Class of equivalence</text>
</a>
</g>
</g>
<!-- Set&#45;&gt;Class of equivalence -->
<g id="edge11" class="edge">
<title>Set&#45;&gt;Class of equivalence</title>
<path fill="none" stroke="#ffffff" d="M244.78,-268.37C254.5,-305.34 276.86,-369.24 321,-403 333.07,-412.23 348.08,-417.84 362.99,-421.18"/>
<polygon fill="#ffffff" stroke="#ffffff" points="248.07,-267.12 242.26,-258.26 241.28,-268.81 248.07,-267.12"/>
</g>
<!-- Relation of Equivalence -->
<g id="node12" class="node">
<title>Relation of Equivalence</title>
<g id="a_node12"><a xlink:href="/Knowledge/Relation of Equivalence.html" xlink:title="Relation of Equivalence" target="_parent">
<path fill="none" stroke="#b75867" d="M491,-406C491,-406 366,-406 366,-406 360,-406 354,-400 354,-394 354,-394 354,-382 354,-382 354,-376 360,-370 366,-370 366,-370 491,-370 491,-370 497,-370 503,-376 503,-382 503,-382 503,-394 503,-394 503,-400 497,-406 491,-406"/>
<text text-anchor="middle" x="428.5" y="-384.9" font-family="sans" font-size="12.00" fill="#c4c7c7">Relation of Equivalence</text>
</a>
</g>
</g>
<!-- Set&#45;&gt;Relation of Equivalence -->
<g id="edge12" class="edge">
<title>Set&#45;&gt;Relation of Equivalence</title>
<path fill="none" stroke="#ffffff" d="M249.14,-267.94C261.75,-297.12 285.61,-341.92 321,-366 330.83,-372.69 342.28,-377.42 353.94,-380.75"/>
<polygon fill="#ffffff" stroke="#ffffff" points="252.22,-266.22 245.15,-258.33 245.75,-268.91 252.22,-266.22"/>
</g>
<!-- Principle of division -->
<g id="node13" class="node">
<title>Principle of division</title>
<g id="a_node13"><a xlink:href="/Knowledge/Principle of division.html" xlink:title="Principle of division" target="_parent">
<path fill="none" stroke="#b75867" d="M479.5,-184C479.5,-184 377.5,-184 377.5,-184 371.5,-184 365.5,-178 365.5,-172 365.5,-172 365.5,-160 365.5,-160 365.5,-154 371.5,-148 377.5,-148 377.5,-148 479.5,-148 479.5,-148 485.5,-148 491.5,-154 491.5,-160 491.5,-160 491.5,-172 491.5,-172 491.5,-178 485.5,-184 479.5,-184"/>
<text text-anchor="middle" x="428.5" y="-162.9" font-family="sans" font-size="12.00" fill="#c4c7c7">Principle of division</text>
</a>
</g>
</g>
<!-- Set&#45;&gt;Principle of division -->
<g id="edge13" class="edge">
<title>Set&#45;&gt;Principle of division</title>
<path fill="none" stroke="#ffffff" d="M270.42,-216.1C285.15,-206.09 303.28,-195.14 321,-188 334.92,-182.39 350.47,-178.14 365.29,-174.95"/>
<polygon fill="#ffffff" stroke="#ffffff" points="268.36,-213.27 262.16,-221.86 272.37,-219.01 268.36,-213.27"/>
</g>
<!-- Principle of products -->
<g id="node14" class="node">
<title>Principle of products</title>
<g id="a_node14"><a xlink:href="/Knowledge/Principle of products.html" xlink:title="Principle of products" target="_parent">
<path fill="none" stroke="#b75867" d="M483.5,-147C483.5,-147 373.5,-147 373.5,-147 367.5,-147 361.5,-141 361.5,-135 361.5,-135 361.5,-123 361.5,-123 361.5,-117 367.5,-111 373.5,-111 373.5,-111 483.5,-111 483.5,-111 489.5,-111 495.5,-117 495.5,-123 495.5,-123 495.5,-135 495.5,-135 495.5,-141 489.5,-147 483.5,-147"/>
<text text-anchor="middle" x="428.5" y="-125.9" font-family="sans" font-size="12.00" fill="#c4c7c7">Principle of products</text>
</a>
</g>
</g>
<!-- Set&#45;&gt;Principle of products -->
<g id="edge14" class="edge">
<title>Set&#45;&gt;Principle of products</title>
<path fill="none" stroke="#ffffff" d="M268.47,-214.89C283.09,-201.65 300.22,-184.54 313,-167 317.68,-160.57 314.7,-155.85 321,-151 332.6,-142.08 346.94,-136.55 361.29,-133.16"/>
<polygon fill="#ffffff" stroke="#ffffff" points="265.81,-212.57 260.66,-221.83 270.46,-217.81 265.81,-212.57"/>
</g>
<!-- Dirichlet principle -->
<g id="node15" class="node">
<title>Dirichlet principle</title>
<g id="a_node15"><a xlink:href="/Knowledge/Dirichlet principle.html" xlink:title="Dirichlet principle" target="_parent">
<path fill="none" stroke="#b75867" d="M474.5,-110C474.5,-110 382.5,-110 382.5,-110 376.5,-110 370.5,-104 370.5,-98 370.5,-98 370.5,-86 370.5,-86 370.5,-80 376.5,-74 382.5,-74 382.5,-74 474.5,-74 474.5,-74 480.5,-74 486.5,-80 486.5,-86 486.5,-86 486.5,-98 486.5,-98 486.5,-104 480.5,-110 474.5,-110"/>
<text text-anchor="middle" x="428.5" y="-88.9" font-family="sans" font-size="12.00" fill="#c4c7c7">Dirichlet principle</text>
</a>
</g>
</g>
<!-- Set&#45;&gt;Dirichlet principle -->
<g id="edge15" class="edge">
<title>Set&#45;&gt;Dirichlet principle</title>
<path fill="none" stroke="#ffffff" d="M272.22,-215.31C287.12,-202.57 303.4,-185.77 313,-167 323.85,-145.79 304.62,-131.29 321,-114 333.73,-100.57 352.32,-94.2 370.41,-91.45"/>
<polygon fill="#ffffff" stroke="#ffffff" points="269.64,-212.9 264.14,-221.95 274.09,-218.3 269.64,-212.9"/>
</g>
<!-- Principle of inclusion and exclusion -->
<g id="node16" class="node">
<title>Principle of inclusion and exclusion</title>
<g id="a_node16"><a xlink:href="/Knowledge/Principle of inclusion and exclusion.html" xlink:title="Principle of inclusion and exclusion" target="_parent">
<path fill="none" stroke="#b75867" d="M524,-73C524,-73 333,-73 333,-73 327,-73 321,-67 321,-61 321,-61 321,-49 321,-49 321,-43 327,-37 333,-37 333,-37 524,-37 524,-37 530,-37 536,-43 536,-49 536,-49 536,-61 536,-61 536,-67 530,-73 524,-73"/>
<text text-anchor="middle" x="428.5" y="-51.9" font-family="sans" font-size="12.00" fill="#c4c7c7">Principle of inclusion and exclusion</text>
</a>
</g>
</g>
<!-- Set&#45;&gt;Principle of inclusion and exclusion -->
<g id="edge16" class="edge">
<title>Set&#45;&gt;Principle of inclusion and exclusion</title>
<path fill="none" stroke="#ffffff" d="M272.74,-215.56C287.75,-202.88 303.98,-186.06 313,-167 321.59,-148.85 307.64,-91.99 321,-77 322.13,-75.73 323.31,-74.52 324.54,-73.38"/>
<polygon fill="#ffffff" stroke="#ffffff" points="270.15,-213.15 264.58,-222.17 274.55,-218.59 270.15,-213.15"/>
</g>
<!-- Differential Analysis -->
<g id="node17" class="node">
<title>Differential Analysis</title>
<g id="a_node17"><a xlink:href="/Knowledge/Differential Analysis.html" xlink:title="Differential Analysis" target="_parent">
<path fill="none" stroke="#b75867" d="M480,-369C480,-369 377,-369 377,-369 371,-369 365,-363 365,-357 365,-357 365,-345 365,-345 365,-339 371,-333 377,-333 377,-333 480,-333 480,-333 486,-333 492,-339 492,-345 492,-345 492,-357 492,-357 492,-363 486,-369 480,-369"/>
<text text-anchor="middle" x="428.5" y="-347.9" font-family="sans" font-size="12.00" fill="#c4c7c7">Differential Analysis</text>
</a>
</g>
</g>
<!-- Set&#45;&gt;Differential Analysis -->
<g id="edge17" class="edge">
<title>Set&#45;&gt;Differential Analysis</title>
<path fill="none" stroke="#ffffff" d="M255.96,-266.39C270.83,-286.7 294.02,-313.79 321,-329 334.32,-336.51 349.87,-341.47 364.91,-344.75"/>
<polygon fill="#ffffff" stroke="#ffffff" points="258.76,-264.28 250.11,-258.16 253.05,-268.34 258.76,-264.28"/>
</g>
<!-- Principle of partitions -->
<g id="node18" class="node">
<title>Principle of partitions</title>
<g id="a_node18"><a xlink:href="/Knowledge/Principle of partitions.html" xlink:title="Principle of partitions" target="_parent">
<path fill="none" stroke="#b75867" d="M485,-221C485,-221 372,-221 372,-221 366,-221 360,-215 360,-209 360,-209 360,-197 360,-197 360,-191 366,-185 372,-185 372,-185 485,-185 485,-185 491,-185 497,-191 497,-197 497,-197 497,-209 497,-209 497,-215 491,-221 485,-221"/>
<text text-anchor="middle" x="428.5" y="-199.9" font-family="sans" font-size="12.00" fill="#c4c7c7">Principle of partitions</text>
</a>
</g>
</g>
<!-- Set&#45;&gt;Principle of partitions -->
<g id="edge18" class="edge">
<title>Set&#45;&gt;Principle of partitions</title>
<path fill="none" stroke="#ffffff" d="M274.89,-232.88C298.96,-228.16 331.27,-221.84 359.95,-216.22"/>
<polygon fill="#ffffff" stroke="#ffffff" points="273.92,-229.5 264.78,-234.86 275.27,-236.37 273.92,-229.5"/>
</g>
<!-- Combinatoric principles&#45;&gt;Principle of the bijection -->
<g id="edge22" class="edge">
<title>Combinatoric principles&#45;&gt;Principle of the bijection</title>
<path fill="none" stroke="#b75867" d="M206.35,-166.1C181.61,-180.64 146.32,-201.14 119.01,-216.86"/>
<polygon fill="#b75867" stroke="#b75867" points="117,-213.98 110.07,-222 120.49,-220.05 117,-213.98"/>
</g>
<!-- Combinatoric principles&#45;&gt;Principle of division -->
<g id="edge21" class="edge">
<title>Combinatoric principles&#45;&gt;Principle of division</title>
<path fill="none" stroke="#b75867" d="M313.2,-155.11C326.93,-156.42 341.24,-157.79 354.91,-159.09"/>
<polygon fill="#b75867" stroke="#b75867" points="354.93,-162.6 365.22,-160.07 355.59,-155.64 354.93,-162.6"/>
</g>
<!-- Combinatoric principles&#45;&gt;Principle of products -->
<g id="edge23" class="edge">
<title>Combinatoric principles&#45;&gt;Principle of products</title>
<path fill="none" stroke="#b75867" d="M313.2,-140.49C325.74,-139.23 338.76,-137.92 351.34,-136.66"/>
<polygon fill="#b75867" stroke="#b75867" points="351.71,-140.14 361.31,-135.65 351.01,-133.17 351.71,-140.14"/>
</g>
<!-- Combinatoric principles&#45;&gt;Dirichlet principle -->
<g id="edge25" class="edge">
<title>Combinatoric principles&#45;&gt;Dirichlet principle</title>
<path fill="none" stroke="#b75867" d="M278.23,-129.86C291.62,-124.23 306.78,-118.36 321,-114 333.59,-110.14 347.22,-106.76 360.39,-103.87"/>
<polygon fill="#b75867" stroke="#b75867" points="361.29,-107.25 370.35,-101.76 359.84,-100.41 361.29,-107.25"/>
</g>
<!-- Combinatoric principles&#45;&gt;Principle of inclusion and exclusion -->
<g id="edge20" class="edge">
<title>Combinatoric principles&#45;&gt;Principle of inclusion and exclusion</title>
<path fill="none" stroke="#b75867" d="M254.32,-129.92C268.32,-115 290.16,-94.18 320.61,-77.75"/>
<polygon fill="#b75867" stroke="#b75867" points="322.56,-80.68 329.88,-73.02 319.38,-74.44 322.56,-80.68"/>
</g>
<!-- Combinatoric principles&#45;&gt;Principle of partitions -->
<g id="edge24" class="edge">
<title>Combinatoric principles&#45;&gt;Principle of partitions</title>
<path fill="none" stroke="#b75867" d="M279.54,-166.07C292.62,-171.38 307.26,-176.87 321,-181 330.29,-183.79 340.14,-186.35 349.95,-188.66"/>
<polygon fill="#b75867" stroke="#b75867" points="349.2,-192.07 359.73,-190.88 350.75,-185.25 349.2,-192.07"/>
</g>
<!-- Combinatorics -->
<g id="node19" class="node">
<title>Combinatorics</title>
<g id="a_node19"><a xlink:href="/Knowledge/Combinatorics.html" xlink:title="Combinatorics" target="_parent">
<path fill="none" stroke="#b75867" d="M465.5,-36C465.5,-36 391.5,-36 391.5,-36 385.5,-36 379.5,-30 379.5,-24 379.5,-24 379.5,-12 379.5,-12 379.5,-6 385.5,0 391.5,0 391.5,0 465.5,0 465.5,0 471.5,0 477.5,-6 477.5,-12 477.5,-12 477.5,-24 477.5,-24 477.5,-30 471.5,-36 465.5,-36"/>
<text text-anchor="middle" x="428.5" y="-14.9" font-family="sans" font-size="12.00" fill="#c4c7c7">Combinatorics</text>
</a>
</g>
</g>
<!-- Combinatoric principles&#45;&gt;Combinatorics -->
<g id="edge26" class="edge">
<title>Combinatoric principles&#45;&gt;Combinatorics</title>
<path fill="none" stroke="#ffffff" d="M251.91,-120.86C265.73,-95.84 289.65,-59.7 321,-40 338.34,-29.1 360.12,-23.49 379.45,-20.64"/>
<polygon fill="#ffffff" stroke="#ffffff" points="248.74,-119.37 247.12,-129.84 254.91,-122.67 248.74,-119.37"/>
</g>
</g>
</svg>
