<?xml version="1.0" encoding="UTF-8" standalone="no"?>
<!DOCTYPE svg PUBLIC "-//W3C//DTD SVG 1.1//EN"
 "http://www.w3.org/Graphics/SVG/1.1/DTD/svg11.dtd">
<!-- Generated by graphviz version 2.46.1 (0)
 -->
<!-- Title: Principle of inclusion and exclusion Pages: 1 -->
<svg width="497pt" height="451pt"
 viewBox="0.00 0.00 497.00 451.00" xmlns="http://www.w3.org/2000/svg" xmlns:xlink="http://www.w3.org/1999/xlink">
<g id="graph0" class="graph" transform="scale(1 1) rotate(0) translate(4 447)">
<title>Principle of inclusion and exclusion</title>
<polygon fill="#132020" stroke="transparent" points="-4,4 -4,-447 493,-447 493,4 -4,4"/>
<!-- Principle of inclusion and exclusion -->
<g id="node1" class="node">
<title>Principle of inclusion and exclusion</title>
<g id="a_node1"><a xlink:href="/Knowledge/principle_of_inclusion_and_exclusion.html" xlink:title="Principle of inclusion and exclusion" target="_parent">
<path fill="#273434" stroke="#b75867" d="M183,-276C183,-276 12,-276 12,-276 6,-276 0,-270 0,-264 0,-264 0,-252 0,-252 0,-246 6,-240 12,-240 12,-240 183,-240 183,-240 189,-240 195,-246 195,-252 195,-252 195,-264 195,-264 195,-270 189,-276 183,-276"/>
<text text-anchor="middle" x="97.5" y="-254.9" font-family="sans" font-size="12.00" fill="#c4c7c7">Principle of inclusion and exclusion</text>
</a>
</g>
</g>
<!-- Set -->
<g id="node2" class="node">
<title>Set</title>
<g id="a_node2"><a xlink:href="/Knowledge/set.html" xlink:title="Set" target="_parent">
<path fill="#273434" stroke="#b75867" d="M287,-258C287,-258 257,-258 257,-258 251,-258 245,-252 245,-246 245,-246 245,-234 245,-234 245,-228 251,-222 257,-222 257,-222 287,-222 287,-222 293,-222 299,-228 299,-234 299,-234 299,-246 299,-246 299,-252 293,-258 287,-258"/>
<text text-anchor="middle" x="272" y="-236.9" font-family="sans" font-size="12.00" fill="#c4c7c7">Set</text>
</a>
</g>
</g>
<!-- Principle of inclusion and exclusion&#45;&gt;Set -->
<g id="edge1" class="edge">
<title>Principle of inclusion and exclusion&#45;&gt;Set</title>
<path fill="none" stroke="#b75867" d="M195.09,-247.92C209.12,-246.46 222.77,-245.03 234.55,-243.8"/>
<polygon fill="#b75867" stroke="#b75867" points="235.21,-247.25 244.79,-242.73 234.48,-240.29 235.21,-247.25"/>
</g>
<!-- Combinatoric principles -->
<g id="node3" class="node">
<title>Combinatoric principles</title>
<g id="a_node3"><a xlink:href="/Knowledge/combinatoric_principles.html" xlink:title="Combinatoric principles" target="_parent">
<path fill="none" stroke="#b75867" d="M329,-313C329,-313 215,-313 215,-313 209,-313 203,-307 203,-301 203,-301 203,-289 203,-289 203,-283 209,-277 215,-277 215,-277 329,-277 329,-277 335,-277 341,-283 341,-289 341,-289 341,-301 341,-301 341,-307 335,-313 329,-313"/>
<text text-anchor="middle" x="272" y="-291.9" font-family="sans" font-size="12.00" fill="#c4c7c7">Combinatoric principles</text>
</a>
</g>
</g>
<!-- Principle of inclusion and exclusion&#45;&gt;Combinatoric principles -->
<g id="edge2" class="edge">
<title>Principle of inclusion and exclusion&#45;&gt;Combinatoric principles</title>
<path fill="none" stroke="#ffffff" d="M192.43,-278.15C195.95,-278.9 199.46,-279.66 202.92,-280.4"/>
<polygon fill="#ffffff" stroke="#ffffff" points="192.99,-274.69 182.48,-276.01 191.52,-281.53 192.99,-274.69"/>
</g>
<!-- Set&#45;&gt;Principle of inclusion and exclusion -->
<g id="edge4" class="edge">
<title>Set&#45;&gt;Principle of inclusion and exclusion</title>
<path fill="none" stroke="#ffffff" d="M234.55,-244.43C222.77,-245.72 209.12,-247.19 195.09,-248.67"/>
<polygon fill="#ffffff" stroke="#ffffff" points="235.24,-247.87 244.79,-243.29 234.46,-240.92 235.24,-247.87"/>
</g>
<!-- Principle of partitions -->
<g id="node4" class="node">
<title>Principle of partitions</title>
<g id="a_node4"><a xlink:href="/Knowledge/principle_of_partitions.html" xlink:title="Principle of partitions" target="_parent">
<path fill="none" stroke="#b75867" d="M470,-332C470,-332 368,-332 368,-332 362,-332 356,-326 356,-320 356,-320 356,-308 356,-308 356,-302 362,-296 368,-296 368,-296 470,-296 470,-296 476,-296 482,-302 482,-308 482,-308 482,-320 482,-320 482,-326 476,-332 470,-332"/>
<text text-anchor="middle" x="419" y="-310.9" font-family="sans" font-size="12.00" fill="#c4c7c7">Principle of partitions</text>
</a>
</g>
</g>
<!-- Set&#45;&gt;Principle of partitions -->
<g id="edge3" class="edge">
<title>Set&#45;&gt;Principle of partitions</title>
<path fill="none" stroke="#ffffff" d="M308.53,-254.4C319.87,-260.21 331.83,-267.76 341,-277 346.32,-282.36 343.2,-287.16 349,-292 351.12,-293.77 353.39,-295.4 355.77,-296.9"/>
<polygon fill="#ffffff" stroke="#ffffff" points="309.76,-251.11 299.23,-249.93 306.73,-257.42 309.76,-251.11"/>
</g>
<!-- Principle of the bijection -->
<g id="node5" class="node">
<title>Principle of the bijection</title>
<g id="a_node5"><a xlink:href="/Knowledge/principle_of_the_bijection.html" xlink:title="Principle of the bijection" target="_parent">
<path fill="none" stroke="#b75867" d="M477,-295C477,-295 361,-295 361,-295 355,-295 349,-289 349,-283 349,-283 349,-271 349,-271 349,-265 355,-259 361,-259 361,-259 477,-259 477,-259 483,-259 489,-265 489,-271 489,-271 489,-283 489,-283 489,-289 483,-295 477,-295"/>
<text text-anchor="middle" x="419" y="-273.9" font-family="sans" font-size="12.00" fill="#c4c7c7">Principle of the bijection</text>
</a>
</g>
</g>
<!-- Set&#45;&gt;Principle of the bijection -->
<g id="edge5" class="edge">
<title>Set&#45;&gt;Principle of the bijection</title>
<path fill="none" stroke="#ffffff" d="M309.3,-249.26C321.3,-252.33 335.09,-255.84 348.72,-259.32"/>
<polygon fill="#ffffff" stroke="#ffffff" points="309.81,-245.78 299.26,-246.7 308.08,-252.56 309.81,-245.78"/>
</g>
<!-- Principle of products -->
<g id="node6" class="node">
<title>Principle of products</title>
<g id="a_node6"><a xlink:href="/Knowledge/principle_of_products.html" xlink:title="Principle of products" target="_parent">
<path fill="none" stroke="#b75867" d="M468,-258C468,-258 370,-258 370,-258 364,-258 358,-252 358,-246 358,-246 358,-234 358,-234 358,-228 364,-222 370,-222 370,-222 468,-222 468,-222 474,-222 480,-228 480,-234 480,-234 480,-246 480,-246 480,-252 474,-258 468,-258"/>
<text text-anchor="middle" x="419" y="-236.9" font-family="sans" font-size="12.00" fill="#c4c7c7">Principle of products</text>
</a>
</g>
</g>
<!-- Set&#45;&gt;Principle of products -->
<g id="edge6" class="edge">
<title>Set&#45;&gt;Principle of products</title>
<path fill="none" stroke="#ffffff" d="M309.44,-240C324.14,-240 341.48,-240 357.95,-240"/>
<polygon fill="#ffffff" stroke="#ffffff" points="309.26,-236.5 299.26,-240 309.26,-243.5 309.26,-236.5"/>
</g>
<!-- Symmetric Closure -->
<g id="node7" class="node">
<title>Symmetric Closure</title>
<g id="a_node7"><a xlink:href="/Knowledge/symmetric_closure.html" xlink:title="Symmetric Closure" target="_parent">
<path fill="none" stroke="#b75867" d="M462.5,-221C462.5,-221 375.5,-221 375.5,-221 369.5,-221 363.5,-215 363.5,-209 363.5,-209 363.5,-197 363.5,-197 363.5,-191 369.5,-185 375.5,-185 375.5,-185 462.5,-185 462.5,-185 468.5,-185 474.5,-191 474.5,-197 474.5,-197 474.5,-209 474.5,-209 474.5,-215 468.5,-221 462.5,-221"/>
<text text-anchor="middle" x="419" y="-199.9" font-family="sans" font-size="12.00" fill="#c4c7c7">Symmetric Closure</text>
</a>
</g>
</g>
<!-- Set&#45;&gt;Symmetric Closure -->
<g id="edge7" class="edge">
<title>Set&#45;&gt;Symmetric Closure</title>
<path fill="none" stroke="#ffffff" d="M309,-230.81C325.42,-226.62 345.21,-221.57 363.41,-216.93"/>
<polygon fill="#ffffff" stroke="#ffffff" points="308.08,-227.44 299.26,-233.3 309.81,-234.22 308.08,-227.44"/>
</g>
<!-- Class of equivalence -->
<g id="node8" class="node">
<title>Class of equivalence</title>
<g id="a_node8"><a xlink:href="/Knowledge/class_of_equivalence.html" xlink:title="Class of equivalence" target="_parent">
<path fill="none" stroke="#b75867" d="M466.5,-184C466.5,-184 371.5,-184 371.5,-184 365.5,-184 359.5,-178 359.5,-172 359.5,-172 359.5,-160 359.5,-160 359.5,-154 365.5,-148 371.5,-148 371.5,-148 466.5,-148 466.5,-148 472.5,-148 478.5,-154 478.5,-160 478.5,-160 478.5,-172 478.5,-172 478.5,-178 472.5,-184 466.5,-184"/>
<text text-anchor="middle" x="419" y="-162.9" font-family="sans" font-size="12.00" fill="#c4c7c7">Class of equivalence</text>
</a>
</g>
</g>
<!-- Set&#45;&gt;Class of equivalence -->
<g id="edge8" class="edge">
<title>Set&#45;&gt;Class of equivalence</title>
<path fill="none" stroke="#ffffff" d="M303.87,-215.85C317.21,-206.23 333.33,-195.66 349,-188 352.28,-186.4 355.7,-184.88 359.18,-183.44"/>
<polygon fill="#ffffff" stroke="#ffffff" points="301.52,-213.23 295.54,-221.99 305.67,-218.87 301.52,-213.23"/>
</g>
<!-- Reflexive Closure -->
<g id="node9" class="node">
<title>Reflexive Closure</title>
<g id="a_node9"><a xlink:href="/Knowledge/reflexive_closure.html" xlink:title="Reflexive Closure" target="_parent">
<path fill="none" stroke="#b75867" d="M458,-147C458,-147 380,-147 380,-147 374,-147 368,-141 368,-135 368,-135 368,-123 368,-123 368,-117 374,-111 380,-111 380,-111 458,-111 458,-111 464,-111 470,-117 470,-123 470,-123 470,-135 470,-135 470,-141 464,-147 458,-147"/>
<text text-anchor="middle" x="419" y="-125.9" font-family="sans" font-size="12.00" fill="#c4c7c7">Reflexive Closure</text>
</a>
</g>
</g>
<!-- Set&#45;&gt;Reflexive Closure -->
<g id="edge9" class="edge">
<title>Set&#45;&gt;Reflexive Closure</title>
<path fill="none" stroke="#ffffff" d="M289.75,-213.34C303.45,-193.54 324.53,-167.26 349,-151 354.76,-147.17 361.23,-143.98 367.84,-141.31"/>
<polygon fill="#ffffff" stroke="#ffffff" points="286.83,-211.4 284.16,-221.65 292.64,-215.31 286.83,-211.4"/>
</g>
<!-- Recurrent Equations -->
<g id="node10" class="node">
<title>Recurrent Equations</title>
<g id="a_node10"><a xlink:href="/Knowledge/recurrent_equations.html" xlink:title="Recurrent Equations" target="_parent">
<path fill="none" stroke="#b75867" d="M466.5,-110C466.5,-110 371.5,-110 371.5,-110 365.5,-110 359.5,-104 359.5,-98 359.5,-98 359.5,-86 359.5,-86 359.5,-80 365.5,-74 371.5,-74 371.5,-74 466.5,-74 466.5,-74 472.5,-74 478.5,-80 478.5,-86 478.5,-86 478.5,-98 478.5,-98 478.5,-104 472.5,-110 466.5,-110"/>
<text text-anchor="middle" x="419" y="-88.9" font-family="sans" font-size="12.00" fill="#c4c7c7">Recurrent Equations</text>
</a>
</g>
</g>
<!-- Set&#45;&gt;Recurrent Equations -->
<g id="edge10" class="edge">
<title>Set&#45;&gt;Recurrent Equations</title>
<path fill="none" stroke="#ffffff" d="M282.91,-212.31C294.5,-183.72 316.36,-139.77 349,-114 352.16,-111.51 355.6,-109.29 359.22,-107.33"/>
<polygon fill="#ffffff" stroke="#ffffff" points="279.61,-211.14 279.23,-221.72 286.13,-213.68 279.61,-211.14"/>
</g>
<!-- Principle of division -->
<g id="node11" class="node">
<title>Principle of division</title>
<g id="a_node11"><a xlink:href="/Knowledge/principle_of_division.html" xlink:title="Principle of division" target="_parent">
<path fill="none" stroke="#b75867" d="M465,-406C465,-406 373,-406 373,-406 367,-406 361,-400 361,-394 361,-394 361,-382 361,-382 361,-376 367,-370 373,-370 373,-370 465,-370 465,-370 471,-370 477,-376 477,-382 477,-382 477,-394 477,-394 477,-400 471,-406 465,-406"/>
<text text-anchor="middle" x="419" y="-384.9" font-family="sans" font-size="12.00" fill="#c4c7c7">Principle of division</text>
</a>
</g>
</g>
<!-- Set&#45;&gt;Principle of division -->
<g id="edge11" class="edge">
<title>Set&#45;&gt;Principle of division</title>
<path fill="none" stroke="#ffffff" d="M308.48,-251.35C320.77,-257.08 333.36,-265.36 341,-277 351.9,-293.6 336.58,-350.51 349,-366 352.3,-370.12 356.38,-373.48 360.89,-376.22"/>
<polygon fill="#ffffff" stroke="#ffffff" points="309.81,-248.11 299.23,-247.45 307.09,-254.56 309.81,-248.11"/>
</g>
<!-- Dirichlet principle -->
<g id="node12" class="node">
<title>Dirichlet principle</title>
<g id="a_node12"><a xlink:href="/Knowledge/dirichlet_principle.html" xlink:title="Dirichlet principle" target="_parent">
<path fill="none" stroke="#b75867" d="M460.5,-369C460.5,-369 377.5,-369 377.5,-369 371.5,-369 365.5,-363 365.5,-357 365.5,-357 365.5,-345 365.5,-345 365.5,-339 371.5,-333 377.5,-333 377.5,-333 460.5,-333 460.5,-333 466.5,-333 472.5,-339 472.5,-345 472.5,-345 472.5,-357 472.5,-357 472.5,-363 466.5,-369 460.5,-369"/>
<text text-anchor="middle" x="419" y="-347.9" font-family="sans" font-size="12.00" fill="#c4c7c7">Dirichlet principle</text>
</a>
</g>
</g>
<!-- Set&#45;&gt;Dirichlet principle -->
<g id="edge12" class="edge">
<title>Set&#45;&gt;Dirichlet principle</title>
<path fill="none" stroke="#ffffff" d="M308.73,-251.92C320.77,-257.67 333.13,-265.81 341,-277 354.44,-296.13 333.8,-311.23 349,-329 353.49,-334.26 359.24,-338.27 365.5,-341.33"/>
<polygon fill="#ffffff" stroke="#ffffff" points="309.81,-248.57 299.24,-247.81 307.03,-254.99 309.81,-248.57"/>
</g>
<!-- Differential Analysis -->
<g id="node13" class="node">
<title>Differential Analysis</title>
<g id="a_node13"><a xlink:href="/Knowledge/differential_analysis.html" xlink:title="Differential Analysis" target="_parent">
<path fill="none" stroke="#b75867" d="M465,-73C465,-73 373,-73 373,-73 367,-73 361,-67 361,-61 361,-61 361,-49 361,-49 361,-43 367,-37 373,-37 373,-37 465,-37 465,-37 471,-37 477,-43 477,-49 477,-49 477,-61 477,-61 477,-67 471,-73 465,-73"/>
<text text-anchor="middle" x="419" y="-51.9" font-family="sans" font-size="12.00" fill="#c4c7c7">Differential Analysis</text>
</a>
</g>
</g>
<!-- Set&#45;&gt;Differential Analysis -->
<g id="edge13" class="edge">
<title>Set&#45;&gt;Differential Analysis</title>
<path fill="none" stroke="#ffffff" d="M278.73,-212.06C287.58,-175.83 308.04,-113.04 349,-77 352.59,-73.84 356.63,-71.14 360.91,-68.82"/>
<polygon fill="#ffffff" stroke="#ffffff" points="275.28,-211.42 276.44,-221.96 282.1,-213 275.28,-211.42"/>
</g>
<!-- Relation of Equivalence -->
<g id="node14" class="node">
<title>Relation of Equivalence</title>
<g id="a_node14"><a xlink:href="/Knowledge/relation_of_equivalence.html" xlink:title="Relation of Equivalence" target="_parent">
<path fill="none" stroke="#b75867" d="M474,-36C474,-36 364,-36 364,-36 358,-36 352,-30 352,-24 352,-24 352,-12 352,-12 352,-6 358,0 364,0 364,0 474,0 474,0 480,0 486,-6 486,-12 486,-12 486,-24 486,-24 486,-30 480,-36 474,-36"/>
<text text-anchor="middle" x="419" y="-14.9" font-family="sans" font-size="12.00" fill="#c4c7c7">Relation of Equivalence</text>
</a>
</g>
</g>
<!-- Set&#45;&gt;Relation of Equivalence -->
<g id="edge14" class="edge">
<title>Set&#45;&gt;Relation of Equivalence</title>
<path fill="none" stroke="#ffffff" d="M275.98,-211.88C282.02,-168.85 299.65,-86.74 349,-40 350.46,-38.62 352.01,-37.32 353.63,-36.11"/>
<polygon fill="#ffffff" stroke="#ffffff" points="272.49,-211.57 274.68,-221.94 279.43,-212.47 272.49,-211.57"/>
</g>
<!-- Combinatoric principles&#45;&gt;Principle of inclusion and exclusion -->
<g id="edge15" class="edge">
<title>Combinatoric principles&#45;&gt;Principle of inclusion and exclusion</title>
<path fill="none" stroke="#b75867" d="M202.85,-281.12C198.31,-280.15 193.7,-279.17 189.07,-278.18"/>
<polygon fill="#b75867" stroke="#b75867" points="189.45,-274.68 178.94,-276 187.99,-281.52 189.45,-274.68"/>
</g>
<!-- Combinatoric principles&#45;&gt;Principle of partitions -->
<g id="edge19" class="edge">
<title>Combinatoric principles&#45;&gt;Principle of partitions</title>
<path fill="none" stroke="#b75867" d="M341.25,-303.94C342.77,-304.14 344.29,-304.34 345.8,-304.54"/>
<polygon fill="#b75867" stroke="#b75867" points="345.42,-308.02 355.79,-305.85 346.33,-301.08 345.42,-308.02"/>
</g>
<!-- Combinatoric principles&#45;&gt;Principle of the bijection -->
<g id="edge17" class="edge">
<title>Combinatoric principles&#45;&gt;Principle of the bijection</title>
<path fill="none" stroke="#b75867" d="M341.25,-286.53C341.41,-286.51 341.57,-286.49 341.72,-286.47"/>
<polygon fill="#b75867" stroke="#b75867" points="339.26,-290.3 348.75,-285.6 338.4,-283.35 339.26,-290.3"/>
</g>
<!-- Combinatoric principles&#45;&gt;Principle of products -->
<g id="edge18" class="edge">
<title>Combinatoric principles&#45;&gt;Principle of products</title>
<path fill="none" stroke="#b75867" d="M312.53,-276.94C324.18,-271.86 337.01,-266.5 349,-262 349.44,-261.83 349.88,-261.67 350.33,-261.5"/>
<polygon fill="#b75867" stroke="#b75867" points="351.65,-264.75 359.88,-258.06 349.28,-258.16 351.65,-264.75"/>
</g>
<!-- Combinatoric principles&#45;&gt;Principle of division -->
<g id="edge16" class="edge">
<title>Combinatoric principles&#45;&gt;Principle of division</title>
<path fill="none" stroke="#b75867" d="M288.15,-313.14C302.38,-329.1 325.01,-351.94 349,-366 349.81,-366.47 350.63,-366.94 351.45,-367.39"/>
<polygon fill="#b75867" stroke="#b75867" points="350.13,-370.64 360.65,-371.94 353.24,-364.37 350.13,-370.64"/>
</g>
<!-- Combinatoric principles&#45;&gt;Dirichlet principle -->
<g id="edge20" class="edge">
<title>Combinatoric principles&#45;&gt;Dirichlet principle</title>
<path fill="none" stroke="#b75867" d="M311.31,-313.14C323.27,-318.53 336.58,-324.26 349,-329 351.23,-329.85 353.51,-330.7 355.82,-331.53"/>
<polygon fill="#b75867" stroke="#b75867" points="354.82,-334.9 365.42,-334.91 357.15,-328.29 354.82,-334.9"/>
</g>
<!-- Combinatorics -->
<g id="node15" class="node">
<title>Combinatorics</title>
<g id="a_node15"><a xlink:href="/Knowledge/combinatorics.html" xlink:title="Combinatorics" target="_parent">
<path fill="none" stroke="#b75867" d="M452.5,-443C452.5,-443 385.5,-443 385.5,-443 379.5,-443 373.5,-437 373.5,-431 373.5,-431 373.5,-419 373.5,-419 373.5,-413 379.5,-407 385.5,-407 385.5,-407 452.5,-407 452.5,-407 458.5,-407 464.5,-413 464.5,-419 464.5,-419 464.5,-431 464.5,-431 464.5,-437 458.5,-443 452.5,-443"/>
<text text-anchor="middle" x="419" y="-421.9" font-family="sans" font-size="12.00" fill="#c4c7c7">Combinatorics</text>
</a>
</g>
</g>
<!-- Combinatoric principles&#45;&gt;Combinatorics -->
<g id="edge21" class="edge">
<title>Combinatoric principles&#45;&gt;Combinatorics</title>
<path fill="none" stroke="#ffffff" d="M285.68,-322.17C298.43,-346.65 320.28,-381.92 349,-403 356.2,-408.28 364.71,-412.33 373.25,-415.41"/>
<polygon fill="#ffffff" stroke="#ffffff" points="288.72,-320.41 281.1,-313.05 282.46,-323.56 288.72,-320.41"/>
</g>
</g>
</svg>
