<?xml version="1.0" encoding="UTF-8" standalone="no"?>
<!DOCTYPE svg PUBLIC "-//W3C//DTD SVG 1.1//EN"
 "http://www.w3.org/Graphics/SVG/1.1/DTD/svg11.dtd">
<!-- Generated by graphviz version 2.46.1 (0)
 -->
<!-- Title: Principle of products Pages: 1 -->
<svg width="479pt" height="451pt"
 viewBox="0.00 0.00 479.00 451.00" xmlns="http://www.w3.org/2000/svg" xmlns:xlink="http://www.w3.org/1999/xlink">
<g id="graph0" class="graph" transform="scale(1 1) rotate(0) translate(4 447)">
<title>Principle of products</title>
<polygon fill="#132020" stroke="transparent" points="-4,4 -4,-447 475,-447 475,4 -4,4"/>
<!-- Principle of products -->
<g id="node1" class="node">
<title>Principle of products</title>
<g id="a_node1"><a xlink:href="/Knowledge/principle_of_products.html" xlink:title="Principle of products" target="_parent">
<path fill="#273434" stroke="#b75867" d="M110,-276C110,-276 12,-276 12,-276 6,-276 0,-270 0,-264 0,-264 0,-252 0,-252 0,-246 6,-240 12,-240 12,-240 110,-240 110,-240 116,-240 122,-246 122,-252 122,-252 122,-264 122,-264 122,-270 116,-276 110,-276"/>
<text text-anchor="middle" x="61" y="-254.9" font-family="sans" font-size="12.00" fill="#c4c7c7">Principle of products</text>
</a>
</g>
</g>
<!-- Set -->
<g id="node2" class="node">
<title>Set</title>
<g id="a_node2"><a xlink:href="/Knowledge/set.html" xlink:title="Set" target="_parent">
<path fill="#273434" stroke="#b75867" d="M214,-258C214,-258 184,-258 184,-258 178,-258 172,-252 172,-246 172,-246 172,-234 172,-234 172,-228 178,-222 184,-222 184,-222 214,-222 214,-222 220,-222 226,-228 226,-234 226,-234 226,-246 226,-246 226,-252 220,-258 214,-258"/>
<text text-anchor="middle" x="199" y="-236.9" font-family="sans" font-size="12.00" fill="#c4c7c7">Set</text>
</a>
</g>
</g>
<!-- Principle of products&#45;&gt;Set -->
<g id="edge1" class="edge">
<title>Principle of products&#45;&gt;Set</title>
<path fill="none" stroke="#b75867" d="M122.05,-250.05C135.59,-248.26 149.55,-246.41 161.76,-244.8"/>
<polygon fill="#b75867" stroke="#b75867" points="162.52,-248.23 171.97,-243.44 161.6,-241.29 162.52,-248.23"/>
</g>
<!-- Combinatoric principles -->
<g id="node3" class="node">
<title>Combinatoric principles</title>
<g id="a_node3"><a xlink:href="/Knowledge/combinatoric_principles.html" xlink:title="Combinatoric principles" target="_parent">
<path fill="none" stroke="#b75867" d="M256,-313C256,-313 142,-313 142,-313 136,-313 130,-307 130,-301 130,-301 130,-289 130,-289 130,-283 136,-277 142,-277 142,-277 256,-277 256,-277 262,-277 268,-283 268,-289 268,-289 268,-301 268,-301 268,-307 262,-313 256,-313"/>
<text text-anchor="middle" x="199" y="-291.9" font-family="sans" font-size="12.00" fill="#c4c7c7">Combinatoric principles</text>
</a>
</g>
</g>
<!-- Principle of products&#45;&gt;Combinatoric principles -->
<g id="edge2" class="edge">
<title>Principle of products&#45;&gt;Combinatoric principles</title>
<path fill="none" stroke="#ffffff" d="M131.19,-276.82C131.28,-276.85 131.38,-276.88 131.48,-276.9"/>
<polygon fill="#ffffff" stroke="#ffffff" points="132.62,-273.58 122.05,-274.34 130.78,-280.34 132.62,-273.58"/>
</g>
<!-- Set&#45;&gt;Principle of products -->
<g id="edge6" class="edge">
<title>Set&#45;&gt;Principle of products</title>
<path fill="none" stroke="#ffffff" d="M161.76,-245.47C149.55,-247.15 135.59,-249.02 122.05,-250.8"/>
<polygon fill="#ffffff" stroke="#ffffff" points="162.55,-248.89 171.97,-244.05 161.59,-241.96 162.55,-248.89"/>
</g>
<!-- Principle of partitions -->
<g id="node4" class="node">
<title>Principle of partitions</title>
<g id="a_node4"><a xlink:href="/Knowledge/principle_of_partitions.html" xlink:title="Principle of partitions" target="_parent">
<path fill="none" stroke="#b75867" d="M424.5,-332C424.5,-332 322.5,-332 322.5,-332 316.5,-332 310.5,-326 310.5,-320 310.5,-320 310.5,-308 310.5,-308 310.5,-302 316.5,-296 322.5,-296 322.5,-296 424.5,-296 424.5,-296 430.5,-296 436.5,-302 436.5,-308 436.5,-308 436.5,-320 436.5,-320 436.5,-326 430.5,-332 424.5,-332"/>
<text text-anchor="middle" x="373.5" y="-310.9" font-family="sans" font-size="12.00" fill="#c4c7c7">Principle of partitions</text>
</a>
</g>
</g>
<!-- Set&#45;&gt;Principle of partitions -->
<g id="edge3" class="edge">
<title>Set&#45;&gt;Principle of partitions</title>
<path fill="none" stroke="#ffffff" d="M235.53,-254.4C246.87,-260.21 258.83,-267.76 268,-277 273.32,-282.36 270,-287.41 276,-292 285.97,-299.62 298.1,-304.68 310.34,-308.02"/>
<polygon fill="#ffffff" stroke="#ffffff" points="236.76,-251.11 226.23,-249.93 233.73,-257.42 236.76,-251.11"/>
</g>
<!-- Principle of inclusion and exclusion -->
<g id="node5" class="node">
<title>Principle of inclusion and exclusion</title>
<g id="a_node5"><a xlink:href="/Knowledge/principle_of_inclusion_and_exclusion.html" xlink:title="Principle of inclusion and exclusion" target="_parent">
<path fill="none" stroke="#b75867" d="M459,-295C459,-295 288,-295 288,-295 282,-295 276,-289 276,-283 276,-283 276,-271 276,-271 276,-265 282,-259 288,-259 288,-259 459,-259 459,-259 465,-259 471,-265 471,-271 471,-271 471,-283 471,-283 471,-289 465,-295 459,-295"/>
<text text-anchor="middle" x="373.5" y="-273.9" font-family="sans" font-size="12.00" fill="#c4c7c7">Principle of inclusion and exclusion</text>
</a>
</g>
</g>
<!-- Set&#45;&gt;Principle of inclusion and exclusion -->
<g id="edge4" class="edge">
<title>Set&#45;&gt;Principle of inclusion and exclusion</title>
<path fill="none" stroke="#ffffff" d="M236.23,-247.77C251.52,-251.05 270.01,-255.02 288.37,-258.95"/>
<polygon fill="#ffffff" stroke="#ffffff" points="236.71,-244.29 226.2,-245.62 235.24,-251.14 236.71,-244.29"/>
</g>
<!-- Principle of the bijection -->
<g id="node6" class="node">
<title>Principle of the bijection</title>
<g id="a_node6"><a xlink:href="/Knowledge/principle_of_the_bijection.html" xlink:title="Principle of the bijection" target="_parent">
<path fill="none" stroke="#b75867" d="M431.5,-258C431.5,-258 315.5,-258 315.5,-258 309.5,-258 303.5,-252 303.5,-246 303.5,-246 303.5,-234 303.5,-234 303.5,-228 309.5,-222 315.5,-222 315.5,-222 431.5,-222 431.5,-222 437.5,-222 443.5,-228 443.5,-234 443.5,-234 443.5,-246 443.5,-246 443.5,-252 437.5,-258 431.5,-258"/>
<text text-anchor="middle" x="373.5" y="-236.9" font-family="sans" font-size="12.00" fill="#c4c7c7">Principle of the bijection</text>
</a>
</g>
</g>
<!-- Set&#45;&gt;Principle of the bijection -->
<g id="edge5" class="edge">
<title>Set&#45;&gt;Principle of the bijection</title>
<path fill="none" stroke="#ffffff" d="M236.4,-240C255.78,-240 280.28,-240 303.13,-240"/>
<polygon fill="#ffffff" stroke="#ffffff" points="236.2,-236.5 226.2,-240 236.2,-243.5 236.2,-236.5"/>
</g>
<!-- Symmetric Closure -->
<g id="node7" class="node">
<title>Symmetric Closure</title>
<g id="a_node7"><a xlink:href="/Knowledge/symmetric_closure.html" xlink:title="Symmetric Closure" target="_parent">
<path fill="none" stroke="#b75867" d="M417,-221C417,-221 330,-221 330,-221 324,-221 318,-215 318,-209 318,-209 318,-197 318,-197 318,-191 324,-185 330,-185 330,-185 417,-185 417,-185 423,-185 429,-191 429,-197 429,-197 429,-209 429,-209 429,-215 423,-221 417,-221"/>
<text text-anchor="middle" x="373.5" y="-199.9" font-family="sans" font-size="12.00" fill="#c4c7c7">Symmetric Closure</text>
</a>
</g>
</g>
<!-- Set&#45;&gt;Symmetric Closure -->
<g id="edge7" class="edge">
<title>Set&#45;&gt;Symmetric Closure</title>
<path fill="none" stroke="#ffffff" d="M236.15,-232.25C259.8,-227.17 291.13,-220.45 317.8,-214.73"/>
<polygon fill="#ffffff" stroke="#ffffff" points="235.24,-228.86 226.2,-234.38 236.71,-235.71 235.24,-228.86"/>
</g>
<!-- Class of equivalence -->
<g id="node8" class="node">
<title>Class of equivalence</title>
<g id="a_node8"><a xlink:href="/Knowledge/class_of_equivalence.html" xlink:title="Class of equivalence" target="_parent">
<path fill="none" stroke="#b75867" d="M421,-184C421,-184 326,-184 326,-184 320,-184 314,-178 314,-172 314,-172 314,-160 314,-160 314,-154 320,-148 326,-148 326,-148 421,-148 421,-148 427,-148 433,-154 433,-160 433,-160 433,-172 433,-172 433,-178 427,-184 421,-184"/>
<text text-anchor="middle" x="373.5" y="-162.9" font-family="sans" font-size="12.00" fill="#c4c7c7">Class of equivalence</text>
</a>
</g>
</g>
<!-- Set&#45;&gt;Class of equivalence -->
<g id="edge8" class="edge">
<title>Set&#45;&gt;Class of equivalence</title>
<path fill="none" stroke="#ffffff" d="M229.97,-215.62C243.37,-205.78 259.78,-195.09 276,-188 287.89,-182.8 301.16,-178.76 313.96,-175.64"/>
<polygon fill="#ffffff" stroke="#ffffff" points="227.5,-213.1 221.63,-221.92 231.72,-218.69 227.5,-213.1"/>
</g>
<!-- Reflexive Closure -->
<g id="node9" class="node">
<title>Reflexive Closure</title>
<g id="a_node9"><a xlink:href="/Knowledge/reflexive_closure.html" xlink:title="Reflexive Closure" target="_parent">
<path fill="none" stroke="#b75867" d="M412.5,-147C412.5,-147 334.5,-147 334.5,-147 328.5,-147 322.5,-141 322.5,-135 322.5,-135 322.5,-123 322.5,-123 322.5,-117 328.5,-111 334.5,-111 334.5,-111 412.5,-111 412.5,-111 418.5,-111 424.5,-117 424.5,-123 424.5,-123 424.5,-135 424.5,-135 424.5,-141 418.5,-147 412.5,-147"/>
<text text-anchor="middle" x="373.5" y="-125.9" font-family="sans" font-size="12.00" fill="#c4c7c7">Reflexive Closure</text>
</a>
</g>
</g>
<!-- Set&#45;&gt;Reflexive Closure -->
<g id="edge9" class="edge">
<title>Set&#45;&gt;Reflexive Closure</title>
<path fill="none" stroke="#ffffff" d="M215.88,-213.47C229.37,-193.27 250.56,-166.39 276,-151 289.82,-142.64 306.5,-137.45 322.08,-134.24"/>
<polygon fill="#ffffff" stroke="#ffffff" points="212.9,-211.64 210.41,-221.94 218.78,-215.44 212.9,-211.64"/>
</g>
<!-- Recurrent Equations -->
<g id="node10" class="node">
<title>Recurrent Equations</title>
<g id="a_node10"><a xlink:href="/Knowledge/recurrent_equations.html" xlink:title="Recurrent Equations" target="_parent">
<path fill="none" stroke="#b75867" d="M421,-110C421,-110 326,-110 326,-110 320,-110 314,-104 314,-98 314,-98 314,-86 314,-86 314,-80 320,-74 326,-74 326,-74 421,-74 421,-74 427,-74 433,-80 433,-86 433,-86 433,-98 433,-98 433,-104 427,-110 421,-110"/>
<text text-anchor="middle" x="373.5" y="-88.9" font-family="sans" font-size="12.00" fill="#c4c7c7">Recurrent Equations</text>
</a>
</g>
</g>
<!-- Set&#45;&gt;Recurrent Equations -->
<g id="edge10" class="edge">
<title>Set&#45;&gt;Recurrent Equations</title>
<path fill="none" stroke="#ffffff" d="M209.3,-212.23C220.49,-183.19 242.11,-138.51 276,-114 287.07,-105.99 300.57,-100.84 313.92,-97.54"/>
<polygon fill="#ffffff" stroke="#ffffff" points="205.95,-211.2 205.77,-221.79 212.52,-213.62 205.95,-211.2"/>
</g>
<!-- Principle of division -->
<g id="node11" class="node">
<title>Principle of division</title>
<g id="a_node11"><a xlink:href="/Knowledge/principle_of_division.html" xlink:title="Principle of division" target="_parent">
<path fill="none" stroke="#b75867" d="M419.5,-406C419.5,-406 327.5,-406 327.5,-406 321.5,-406 315.5,-400 315.5,-394 315.5,-394 315.5,-382 315.5,-382 315.5,-376 321.5,-370 327.5,-370 327.5,-370 419.5,-370 419.5,-370 425.5,-370 431.5,-376 431.5,-382 431.5,-382 431.5,-394 431.5,-394 431.5,-400 425.5,-406 419.5,-406"/>
<text text-anchor="middle" x="373.5" y="-384.9" font-family="sans" font-size="12.00" fill="#c4c7c7">Principle of division</text>
</a>
</g>
</g>
<!-- Set&#45;&gt;Principle of division -->
<g id="edge11" class="edge">
<title>Set&#45;&gt;Principle of division</title>
<path fill="none" stroke="#ffffff" d="M235.48,-251.35C247.77,-257.08 260.36,-265.36 268,-277 278.9,-293.6 262.93,-351.05 276,-366 286.01,-377.45 300.63,-383.61 315.48,-386.78"/>
<polygon fill="#ffffff" stroke="#ffffff" points="236.81,-248.11 226.23,-247.45 234.09,-254.56 236.81,-248.11"/>
</g>
<!-- Dirichlet principle -->
<g id="node12" class="node">
<title>Dirichlet principle</title>
<g id="a_node12"><a xlink:href="/Knowledge/dirichlet_principle.html" xlink:title="Dirichlet principle" target="_parent">
<path fill="none" stroke="#b75867" d="M415,-369C415,-369 332,-369 332,-369 326,-369 320,-363 320,-357 320,-357 320,-345 320,-345 320,-339 326,-333 332,-333 332,-333 415,-333 415,-333 421,-333 427,-339 427,-345 427,-345 427,-357 427,-357 427,-363 421,-369 415,-369"/>
<text text-anchor="middle" x="373.5" y="-347.9" font-family="sans" font-size="12.00" fill="#c4c7c7">Dirichlet principle</text>
</a>
</g>
</g>
<!-- Set&#45;&gt;Dirichlet principle -->
<g id="edge12" class="edge">
<title>Set&#45;&gt;Dirichlet principle</title>
<path fill="none" stroke="#ffffff" d="M235.73,-251.92C247.77,-257.67 260.13,-265.81 268,-277 281.44,-296.13 260.07,-311.89 276,-329 287.3,-341.14 303.79,-347.25 319.96,-350.16"/>
<polygon fill="#ffffff" stroke="#ffffff" points="236.81,-248.57 226.24,-247.81 234.03,-254.99 236.81,-248.57"/>
</g>
<!-- Differential Analysis -->
<g id="node13" class="node">
<title>Differential Analysis</title>
<g id="a_node13"><a xlink:href="/Knowledge/differential_analysis.html" xlink:title="Differential Analysis" target="_parent">
<path fill="none" stroke="#b75867" d="M419.5,-73C419.5,-73 327.5,-73 327.5,-73 321.5,-73 315.5,-67 315.5,-61 315.5,-61 315.5,-49 315.5,-49 315.5,-43 321.5,-37 327.5,-37 327.5,-37 419.5,-37 419.5,-37 425.5,-37 431.5,-43 431.5,-49 431.5,-49 431.5,-61 431.5,-61 431.5,-67 425.5,-73 419.5,-73"/>
<text text-anchor="middle" x="373.5" y="-51.9" font-family="sans" font-size="12.00" fill="#c4c7c7">Differential Analysis</text>
</a>
</g>
</g>
<!-- Set&#45;&gt;Differential Analysis -->
<g id="edge13" class="edge">
<title>Set&#45;&gt;Differential Analysis</title>
<path fill="none" stroke="#ffffff" d="M205.21,-211.81C213.54,-175.04 233.44,-111.37 276,-77 287.16,-67.99 301.31,-62.51 315.31,-59.23"/>
<polygon fill="#ffffff" stroke="#ffffff" points="201.73,-211.35 203.08,-221.86 208.58,-212.81 201.73,-211.35"/>
</g>
<!-- Relation of Equivalence -->
<g id="node14" class="node">
<title>Relation of Equivalence</title>
<g id="a_node14"><a xlink:href="/Knowledge/relation_of_equivalence.html" xlink:title="Relation of Equivalence" target="_parent">
<path fill="none" stroke="#b75867" d="M428.5,-36C428.5,-36 318.5,-36 318.5,-36 312.5,-36 306.5,-30 306.5,-24 306.5,-24 306.5,-12 306.5,-12 306.5,-6 312.5,0 318.5,0 318.5,0 428.5,0 428.5,0 434.5,0 440.5,-6 440.5,-12 440.5,-12 440.5,-24 440.5,-24 440.5,-30 434.5,-36 428.5,-36"/>
<text text-anchor="middle" x="373.5" y="-14.9" font-family="sans" font-size="12.00" fill="#c4c7c7">Relation of Equivalence</text>
</a>
</g>
</g>
<!-- Set&#45;&gt;Relation of Equivalence -->
<g id="edge14" class="edge">
<title>Set&#45;&gt;Relation of Equivalence</title>
<path fill="none" stroke="#ffffff" d="M202.46,-211.69C207.83,-168.05 224.59,-84.72 276,-40 284.56,-32.56 295.12,-27.49 306.08,-24.07"/>
<polygon fill="#ffffff" stroke="#ffffff" points="198.96,-211.56 201.33,-221.88 205.91,-212.33 198.96,-211.56"/>
</g>
<!-- Combinatoric principles&#45;&gt;Principle of products -->
<g id="edge18" class="edge">
<title>Combinatoric principles&#45;&gt;Principle of products</title>
<path fill="none" stroke="#b75867" d="M129.76,-277.19C129.6,-277.14 129.44,-277.1 129.28,-277.05"/>
<polygon fill="#b75867" stroke="#b75867" points="132.62,-274.34 122.05,-275.08 130.77,-281.09 132.62,-274.34"/>
</g>
<!-- Combinatoric principles&#45;&gt;Principle of partitions -->
<g id="edge19" class="edge">
<title>Combinatoric principles&#45;&gt;Principle of partitions</title>
<path fill="none" stroke="#b75867" d="M268.18,-302.51C278.74,-303.67 289.68,-304.88 300.33,-306.05"/>
<polygon fill="#b75867" stroke="#b75867" points="300.1,-309.55 310.42,-307.16 300.86,-302.59 300.1,-309.55"/>
</g>
<!-- Combinatoric principles&#45;&gt;Principle of inclusion and exclusion -->
<g id="edge15" class="edge">
<title>Combinatoric principles&#45;&gt;Principle of inclusion and exclusion</title>
<path fill="none" stroke="#b75867" d="M268.18,-287.89C268.34,-287.87 268.49,-287.85 268.65,-287.84"/>
<polygon fill="#b75867" stroke="#b75867" points="266.28,-291.6 275.86,-287.08 265.55,-284.64 266.28,-291.6"/>
</g>
<!-- Combinatoric principles&#45;&gt;Principle of the bijection -->
<g id="edge17" class="edge">
<title>Combinatoric principles&#45;&gt;Principle of the bijection</title>
<path fill="none" stroke="#b75867" d="M237.74,-276.97C249.78,-271.66 263.29,-266.17 276,-262 281.6,-260.16 287.42,-258.43 293.32,-256.79"/>
<polygon fill="#b75867" stroke="#b75867" points="294.52,-260.1 303.28,-254.14 292.72,-253.33 294.52,-260.1"/>
</g>
<!-- Combinatoric principles&#45;&gt;Principle of division -->
<g id="edge16" class="edge">
<title>Combinatoric principles&#45;&gt;Principle of division</title>
<path fill="none" stroke="#b75867" d="M214.61,-313.31C228.63,-329.62 251.28,-352.88 276,-366 285.14,-370.85 295.33,-374.64 305.56,-377.59"/>
<polygon fill="#b75867" stroke="#b75867" points="304.79,-381.01 315.35,-380.18 306.57,-374.24 304.79,-381.01"/>
</g>
<!-- Combinatoric principles&#45;&gt;Dirichlet principle -->
<g id="edge20" class="edge">
<title>Combinatoric principles&#45;&gt;Dirichlet principle</title>
<path fill="none" stroke="#b75867" d="M236.53,-313.09C248.86,-318.72 262.84,-324.6 276,-329 286.84,-332.62 298.56,-335.85 309.98,-338.64"/>
<polygon fill="#b75867" stroke="#b75867" points="309.36,-342.09 319.9,-340.97 310.97,-335.27 309.36,-342.09"/>
</g>
<!-- Combinatorics -->
<g id="node15" class="node">
<title>Combinatorics</title>
<g id="a_node15"><a xlink:href="/Knowledge/combinatorics.html" xlink:title="Combinatorics" target="_parent">
<path fill="none" stroke="#b75867" d="M407,-443C407,-443 340,-443 340,-443 334,-443 328,-437 328,-431 328,-431 328,-419 328,-419 328,-413 334,-407 340,-407 340,-407 407,-407 407,-407 413,-407 419,-413 419,-419 419,-419 419,-431 419,-431 419,-437 413,-443 407,-443"/>
<text text-anchor="middle" x="373.5" y="-421.9" font-family="sans" font-size="12.00" fill="#c4c7c7">Combinatorics</text>
</a>
</g>
</g>
<!-- Combinatoric principles&#45;&gt;Combinatorics -->
<g id="edge21" class="edge">
<title>Combinatoric principles&#45;&gt;Combinatorics</title>
<path fill="none" stroke="#ffffff" d="M212.07,-322.32C224.5,-347.21 246.25,-383.04 276,-403 291.13,-413.15 310.27,-418.66 327.51,-421.64"/>
<polygon fill="#ffffff" stroke="#ffffff" points="215.1,-320.55 207.62,-313.05 208.79,-323.58 215.1,-320.55"/>
</g>
</g>
</svg>
