<?xml version="1.0" encoding="UTF-8" standalone="no"?>
<!DOCTYPE svg PUBLIC "-//W3C//DTD SVG 1.1//EN"
 "http://www.w3.org/Graphics/SVG/1.1/DTD/svg11.dtd">
<!-- Generated by graphviz version 2.46.1 (0)
 -->
<!-- Title: Principle of the bijection Pages: 1 -->
<svg width="497pt" height="562pt"
 viewBox="0.00 0.00 497.00 562.00" xmlns="http://www.w3.org/2000/svg" xmlns:xlink="http://www.w3.org/1999/xlink">
<g id="graph0" class="graph" transform="scale(1 1) rotate(0) translate(4 558)">
<title>Principle of the bijection</title>
<polygon fill="#132020" stroke="transparent" points="-4,4 -4,-558 493,-558 493,4 -4,4"/>
<!-- Principle of the bijection -->
<g id="node1" class="node">
<title>Principle of the bijection</title>
<g id="a_node1"><a xlink:href="/Knowledge/principle_of_the_bijection.html" xlink:title="Principle of the bijection" target="_parent">
<path fill="#273434" stroke="#b75867" d="M128,-351C128,-351 12,-351 12,-351 6,-351 0,-345 0,-339 0,-339 0,-327 0,-327 0,-321 6,-315 12,-315 12,-315 128,-315 128,-315 134,-315 140,-321 140,-327 140,-327 140,-339 140,-339 140,-345 134,-351 128,-351"/>
<text text-anchor="middle" x="70" y="-329.9" font-family="sans" font-size="12.00" fill="#c4c7c7">Principle of the bijection</text>
</a>
</g>
</g>
<!-- Bijective function -->
<g id="node2" class="node">
<title>Bijective function</title>
<g id="a_node2"><a xlink:href="/Knowledge/bijective_function.html" xlink:title="Bijective function" target="_parent">
<path fill="#273434" stroke="#b75867" d="M257,-480C257,-480 177,-480 177,-480 171,-480 165,-474 165,-468 165,-468 165,-456 165,-456 165,-450 171,-444 177,-444 177,-444 257,-444 257,-444 263,-444 269,-450 269,-456 269,-456 269,-468 269,-468 269,-474 263,-480 257,-480"/>
<text text-anchor="middle" x="217" y="-458.9" font-family="sans" font-size="12.00" fill="#c4c7c7">Bijective function</text>
</a>
</g>
</g>
<!-- Principle of the bijection&#45;&gt;Bijective function -->
<g id="edge1" class="edge">
<title>Principle of the bijection&#45;&gt;Bijective function</title>
<path fill="none" stroke="#b75867" d="M91.47,-351.21C116.73,-373.68 159.8,-412 188.08,-437.16"/>
<polygon fill="#b75867" stroke="#b75867" points="185.84,-439.85 195.64,-443.88 190.49,-434.62 185.84,-439.85"/>
</g>
<!-- Set -->
<g id="node3" class="node">
<title>Set</title>
<g id="a_node3"><a xlink:href="/Knowledge/set.html" xlink:title="Set" target="_parent">
<path fill="#273434" stroke="#b75867" d="M232,-258C232,-258 202,-258 202,-258 196,-258 190,-252 190,-246 190,-246 190,-234 190,-234 190,-228 196,-222 202,-222 202,-222 232,-222 232,-222 238,-222 244,-228 244,-234 244,-234 244,-246 244,-246 244,-252 238,-258 232,-258"/>
<text text-anchor="middle" x="217" y="-236.9" font-family="sans" font-size="12.00" fill="#c4c7c7">Set</text>
</a>
</g>
</g>
<!-- Principle of the bijection&#45;&gt;Set -->
<g id="edge2" class="edge">
<title>Principle of the bijection&#45;&gt;Set</title>
<path fill="none" stroke="#b75867" d="M99.3,-314.85C122.75,-299.81 156.16,-278.38 181.23,-262.3"/>
<polygon fill="#b75867" stroke="#b75867" points="183.19,-265.2 189.72,-256.85 179.41,-259.31 183.19,-265.2"/>
</g>
<!-- Combinatoric principles -->
<g id="node4" class="node">
<title>Combinatoric principles</title>
<g id="a_node4"><a xlink:href="/Knowledge/combinatoric_principles.html" xlink:title="Combinatoric principles" target="_parent">
<path fill="none" stroke="#b75867" d="M274,-351C274,-351 160,-351 160,-351 154,-351 148,-345 148,-339 148,-339 148,-327 148,-327 148,-321 154,-315 160,-315 160,-315 274,-315 274,-315 280,-315 286,-321 286,-327 286,-327 286,-339 286,-339 286,-345 280,-351 274,-351"/>
<text text-anchor="middle" x="217" y="-329.9" font-family="sans" font-size="12.00" fill="#c4c7c7">Combinatoric principles</text>
</a>
</g>
</g>
<!-- Principle of the bijection&#45;&gt;Combinatoric principles -->
<g id="edge3" class="edge">
<title>Principle of the bijection&#45;&gt;Combinatoric principles</title>
<path fill="none" stroke="#ffffff" d="M147.49,-333C147.66,-333 147.82,-333 147.98,-333"/>
<polygon fill="#ffffff" stroke="#ffffff" points="150.1,-329.5 140.1,-333 150.1,-336.5 150.1,-329.5"/>
</g>
<!-- Bijective function&#45;&gt;Principle of the bijection -->
<g id="edge6" class="edge">
<title>Bijective function&#45;&gt;Principle of the bijection</title>
<path fill="none" stroke="#ffffff" d="M187.34,-437.12C158.82,-411.95 115.81,-373.66 90.86,-351.2"/>
<polygon fill="#ffffff" stroke="#ffffff" points="185.16,-439.86 194.97,-443.84 189.79,-434.6 185.16,-439.86"/>
</g>
<!-- Surjective function -->
<g id="node5" class="node">
<title>Surjective function</title>
<g id="a_node5"><a xlink:href="/Knowledge/surjective_function.html" xlink:title="Surjective function" target="_parent">
<path fill="#273434" stroke="#b75867" d="M435.5,-554C435.5,-554 347.5,-554 347.5,-554 341.5,-554 335.5,-548 335.5,-542 335.5,-542 335.5,-530 335.5,-530 335.5,-524 341.5,-518 347.5,-518 347.5,-518 435.5,-518 435.5,-518 441.5,-518 447.5,-524 447.5,-530 447.5,-530 447.5,-542 447.5,-542 447.5,-548 441.5,-554 435.5,-554"/>
<text text-anchor="middle" x="391.5" y="-532.9" font-family="sans" font-size="12.00" fill="#c4c7c7">Surjective function</text>
</a>
</g>
</g>
<!-- Bijective function&#45;&gt;Surjective function -->
<g id="edge4" class="edge">
<title>Bijective function&#45;&gt;Surjective function</title>
<path fill="none" stroke="#b75867" d="M239.63,-480.08C254.17,-491.37 274.22,-505.36 294,-514 303.88,-518.32 314.73,-521.85 325.46,-524.7"/>
<polygon fill="#b75867" stroke="#b75867" points="324.7,-528.12 335.25,-527.15 326.4,-521.33 324.7,-528.12"/>
</g>
<!-- Injective function -->
<g id="node6" class="node">
<title>Injective function</title>
<g id="a_node6"><a xlink:href="/Knowledge/injective_function.html" xlink:title="Injective function" target="_parent">
<path fill="#273434" stroke="#b75867" d="M431.5,-517C431.5,-517 351.5,-517 351.5,-517 345.5,-517 339.5,-511 339.5,-505 339.5,-505 339.5,-493 339.5,-493 339.5,-487 345.5,-481 351.5,-481 351.5,-481 431.5,-481 431.5,-481 437.5,-481 443.5,-487 443.5,-493 443.5,-493 443.5,-505 443.5,-505 443.5,-511 437.5,-517 431.5,-517"/>
<text text-anchor="middle" x="391.5" y="-495.9" font-family="sans" font-size="12.00" fill="#c4c7c7">Injective function</text>
</a>
</g>
</g>
<!-- Bijective function&#45;&gt;Injective function -->
<g id="edge5" class="edge">
<title>Bijective function&#45;&gt;Injective function</title>
<path fill="none" stroke="#b75867" d="M269.29,-473C288.23,-477.06 309.89,-481.71 329.6,-485.94"/>
<polygon fill="#b75867" stroke="#b75867" points="328.9,-489.37 339.41,-488.04 330.37,-482.52 328.9,-489.37"/>
</g>
<!-- Linear Algebra -->
<g id="node7" class="node">
<title>Linear Algebra</title>
<g id="a_node7"><a xlink:href="/Knowledge/linear_algebra.html" xlink:title="Linear Algebra" target="_parent">
<path fill="none" stroke="#b75867" d="M424,-480C424,-480 359,-480 359,-480 353,-480 347,-474 347,-468 347,-468 347,-456 347,-456 347,-450 353,-444 359,-444 359,-444 424,-444 424,-444 430,-444 436,-450 436,-456 436,-456 436,-468 436,-468 436,-474 430,-480 424,-480"/>
<text text-anchor="middle" x="391.5" y="-458.9" font-family="sans" font-size="12.00" fill="#c4c7c7">Linear Algebra</text>
</a>
</g>
</g>
<!-- Bijective function&#45;&gt;Linear Algebra -->
<g id="edge7" class="edge">
<title>Bijective function&#45;&gt;Linear Algebra</title>
<path fill="none" stroke="#ffffff" d="M279.36,-462C301.71,-462 326.5,-462 346.98,-462"/>
<polygon fill="#ffffff" stroke="#ffffff" points="279.29,-458.5 269.29,-462 279.29,-465.5 279.29,-458.5"/>
</g>
<!-- Set&#45;&gt;Principle of the bijection -->
<g id="edge10" class="edge">
<title>Set&#45;&gt;Principle of the bijection</title>
<path fill="none" stroke="#ffffff" d="M180.93,-263.15C156.26,-279.11 123.63,-300.02 100.34,-314.8"/>
<polygon fill="#ffffff" stroke="#ffffff" points="183.14,-265.89 189.63,-257.51 179.33,-260.01 183.14,-265.89"/>
</g>
<!-- Principle of partitions -->
<g id="node8" class="node">
<title>Principle of partitions</title>
<g id="a_node8"><a xlink:href="/Knowledge/principle_of_partitions.html" xlink:title="Principle of partitions" target="_parent">
<path fill="none" stroke="#b75867" d="M442.5,-369C442.5,-369 340.5,-369 340.5,-369 334.5,-369 328.5,-363 328.5,-357 328.5,-357 328.5,-345 328.5,-345 328.5,-339 334.5,-333 340.5,-333 340.5,-333 442.5,-333 442.5,-333 448.5,-333 454.5,-339 454.5,-345 454.5,-345 454.5,-357 454.5,-357 454.5,-363 448.5,-369 442.5,-369"/>
<text text-anchor="middle" x="391.5" y="-347.9" font-family="sans" font-size="12.00" fill="#c4c7c7">Principle of partitions</text>
</a>
</g>
</g>
<!-- Set&#45;&gt;Principle of partitions -->
<g id="edge8" class="edge">
<title>Set&#45;&gt;Principle of partitions</title>
<path fill="none" stroke="#ffffff" d="M243.65,-265.47C257.06,-279.45 273.28,-297.48 286,-315 290.21,-320.8 288.24,-324.73 294,-329 304.01,-336.42 316.09,-341.4 328.26,-344.73"/>
<polygon fill="#ffffff" stroke="#ffffff" points="246.01,-262.87 236.53,-258.14 240.99,-267.75 246.01,-262.87"/>
</g>
<!-- Principle of inclusion and exclusion -->
<g id="node9" class="node">
<title>Principle of inclusion and exclusion</title>
<g id="a_node9"><a xlink:href="/Knowledge/principle_of_inclusion_and_exclusion.html" xlink:title="Principle of inclusion and exclusion" target="_parent">
<path fill="none" stroke="#b75867" d="M477,-332C477,-332 306,-332 306,-332 300,-332 294,-326 294,-320 294,-320 294,-308 294,-308 294,-302 300,-296 306,-296 306,-296 477,-296 477,-296 483,-296 489,-302 489,-308 489,-308 489,-320 489,-320 489,-326 483,-332 477,-332"/>
<text text-anchor="middle" x="391.5" y="-310.9" font-family="sans" font-size="12.00" fill="#c4c7c7">Principle of inclusion and exclusion</text>
</a>
</g>
</g>
<!-- Set&#45;&gt;Principle of inclusion and exclusion -->
<g id="edge9" class="edge">
<title>Set&#45;&gt;Principle of inclusion and exclusion</title>
<path fill="none" stroke="#ffffff" d="M247.97,-264.38C261.37,-274.22 277.78,-284.91 294,-292 297.15,-293.38 300.39,-294.67 303.7,-295.89"/>
<polygon fill="#ffffff" stroke="#ffffff" points="249.72,-261.31 239.63,-258.08 245.5,-266.9 249.72,-261.31"/>
</g>
<!-- Principle of products -->
<g id="node10" class="node">
<title>Principle of products</title>
<g id="a_node10"><a xlink:href="/Knowledge/principle_of_products.html" xlink:title="Principle of products" target="_parent">
<path fill="none" stroke="#b75867" d="M440.5,-295C440.5,-295 342.5,-295 342.5,-295 336.5,-295 330.5,-289 330.5,-283 330.5,-283 330.5,-271 330.5,-271 330.5,-265 336.5,-259 342.5,-259 342.5,-259 440.5,-259 440.5,-259 446.5,-259 452.5,-265 452.5,-271 452.5,-271 452.5,-283 452.5,-283 452.5,-289 446.5,-295 440.5,-295"/>
<text text-anchor="middle" x="391.5" y="-273.9" font-family="sans" font-size="12.00" fill="#c4c7c7">Principle of products</text>
</a>
</g>
</g>
<!-- Set&#45;&gt;Principle of products -->
<g id="edge11" class="edge">
<title>Set&#45;&gt;Principle of products</title>
<path fill="none" stroke="#ffffff" d="M254.14,-247.75C276.2,-252.48 304.96,-258.65 330.38,-264.11"/>
<polygon fill="#ffffff" stroke="#ffffff" points="254.71,-244.29 244.2,-245.62 253.24,-251.14 254.71,-244.29"/>
</g>
<!-- Symmetric Closure -->
<g id="node11" class="node">
<title>Symmetric Closure</title>
<g id="a_node11"><a xlink:href="/Knowledge/symmetric_closure.html" xlink:title="Symmetric Closure" target="_parent">
<path fill="none" stroke="#b75867" d="M435,-110C435,-110 348,-110 348,-110 342,-110 336,-104 336,-98 336,-98 336,-86 336,-86 336,-80 342,-74 348,-74 348,-74 435,-74 435,-74 441,-74 447,-80 447,-86 447,-86 447,-98 447,-98 447,-104 441,-110 435,-110"/>
<text text-anchor="middle" x="391.5" y="-88.9" font-family="sans" font-size="12.00" fill="#c4c7c7">Symmetric Closure</text>
</a>
</g>
</g>
<!-- Set&#45;&gt;Symmetric Closure -->
<g id="edge12" class="edge">
<title>Set&#45;&gt;Symmetric Closure</title>
<path fill="none" stroke="#ffffff" d="M227.3,-212.23C238.49,-183.19 260.11,-138.51 294,-114 306.18,-105.19 321.31,-99.83 335.95,-96.6"/>
<polygon fill="#ffffff" stroke="#ffffff" points="223.95,-211.2 223.77,-221.79 230.52,-213.62 223.95,-211.2"/>
</g>
<!-- Class of equivalence -->
<g id="node12" class="node">
<title>Class of equivalence</title>
<g id="a_node12"><a xlink:href="/Knowledge/class_of_equivalence.html" xlink:title="Class of equivalence" target="_parent">
<path fill="none" stroke="#b75867" d="M439,-73C439,-73 344,-73 344,-73 338,-73 332,-67 332,-61 332,-61 332,-49 332,-49 332,-43 338,-37 344,-37 344,-37 439,-37 439,-37 445,-37 451,-43 451,-49 451,-49 451,-61 451,-61 451,-67 445,-73 439,-73"/>
<text text-anchor="middle" x="391.5" y="-51.9" font-family="sans" font-size="12.00" fill="#c4c7c7">Class of equivalence</text>
</a>
</g>
</g>
<!-- Set&#45;&gt;Class of equivalence -->
<g id="edge13" class="edge">
<title>Set&#45;&gt;Class of equivalence</title>
<path fill="none" stroke="#ffffff" d="M223.21,-211.81C231.54,-175.04 251.44,-111.37 294,-77 304.76,-68.31 318.3,-62.91 331.8,-59.59"/>
<polygon fill="#ffffff" stroke="#ffffff" points="219.73,-211.35 221.08,-221.86 226.58,-212.81 219.73,-211.35"/>
</g>
<!-- Reflexive Closure -->
<g id="node13" class="node">
<title>Reflexive Closure</title>
<g id="a_node13"><a xlink:href="/Knowledge/reflexive_closure.html" xlink:title="Reflexive Closure" target="_parent">
<path fill="none" stroke="#b75867" d="M430.5,-36C430.5,-36 352.5,-36 352.5,-36 346.5,-36 340.5,-30 340.5,-24 340.5,-24 340.5,-12 340.5,-12 340.5,-6 346.5,0 352.5,0 352.5,0 430.5,0 430.5,0 436.5,0 442.5,-6 442.5,-12 442.5,-12 442.5,-24 442.5,-24 442.5,-30 436.5,-36 430.5,-36"/>
<text text-anchor="middle" x="391.5" y="-14.9" font-family="sans" font-size="12.00" fill="#c4c7c7">Reflexive Closure</text>
</a>
</g>
</g>
<!-- Set&#45;&gt;Reflexive Closure -->
<g id="edge14" class="edge">
<title>Set&#45;&gt;Reflexive Closure</title>
<path fill="none" stroke="#ffffff" d="M220.46,-211.69C225.83,-168.05 242.59,-84.72 294,-40 306.71,-28.95 323.83,-23.13 340.12,-20.17"/>
<polygon fill="#ffffff" stroke="#ffffff" points="216.96,-211.56 219.33,-221.88 223.91,-212.33 216.96,-211.56"/>
</g>
<!-- Recurrent Equations -->
<g id="node14" class="node">
<title>Recurrent Equations</title>
<g id="a_node14"><a xlink:href="/Knowledge/recurrent_equations.html" xlink:title="Recurrent Equations" target="_parent">
<path fill="none" stroke="#b75867" d="M439,-221C439,-221 344,-221 344,-221 338,-221 332,-215 332,-209 332,-209 332,-197 332,-197 332,-191 338,-185 344,-185 344,-185 439,-185 439,-185 445,-185 451,-191 451,-197 451,-197 451,-209 451,-209 451,-215 445,-221 439,-221"/>
<text text-anchor="middle" x="391.5" y="-199.9" font-family="sans" font-size="12.00" fill="#c4c7c7">Recurrent Equations</text>
</a>
</g>
</g>
<!-- Set&#45;&gt;Recurrent Equations -->
<g id="edge15" class="edge">
<title>Set&#45;&gt;Recurrent Equations</title>
<path fill="none" stroke="#ffffff" d="M254.01,-232.28C276.51,-227.45 306.02,-221.12 331.84,-215.58"/>
<polygon fill="#ffffff" stroke="#ffffff" points="253.24,-228.86 244.2,-234.38 254.71,-235.71 253.24,-228.86"/>
</g>
<!-- Principle of division -->
<g id="node15" class="node">
<title>Principle of division</title>
<g id="a_node15"><a xlink:href="/Knowledge/principle_of_division.html" xlink:title="Principle of division" target="_parent">
<path fill="none" stroke="#b75867" d="M437.5,-258C437.5,-258 345.5,-258 345.5,-258 339.5,-258 333.5,-252 333.5,-246 333.5,-246 333.5,-234 333.5,-234 333.5,-228 339.5,-222 345.5,-222 345.5,-222 437.5,-222 437.5,-222 443.5,-222 449.5,-228 449.5,-234 449.5,-234 449.5,-246 449.5,-246 449.5,-252 443.5,-258 437.5,-258"/>
<text text-anchor="middle" x="391.5" y="-236.9" font-family="sans" font-size="12.00" fill="#c4c7c7">Principle of division</text>
</a>
</g>
</g>
<!-- Set&#45;&gt;Principle of division -->
<g id="edge16" class="edge">
<title>Set&#45;&gt;Principle of division</title>
<path fill="none" stroke="#ffffff" d="M254.49,-240C277.35,-240 307.31,-240 333.29,-240"/>
<polygon fill="#ffffff" stroke="#ffffff" points="254.2,-236.5 244.2,-240 254.2,-243.5 254.2,-236.5"/>
</g>
<!-- Dirichlet principle -->
<g id="node16" class="node">
<title>Dirichlet principle</title>
<g id="a_node16"><a xlink:href="/Knowledge/dirichlet_principle.html" xlink:title="Dirichlet principle" target="_parent">
<path fill="none" stroke="#b75867" d="M433,-406C433,-406 350,-406 350,-406 344,-406 338,-400 338,-394 338,-394 338,-382 338,-382 338,-376 344,-370 350,-370 350,-370 433,-370 433,-370 439,-370 445,-376 445,-382 445,-382 445,-394 445,-394 445,-400 439,-406 433,-406"/>
<text text-anchor="middle" x="391.5" y="-384.9" font-family="sans" font-size="12.00" fill="#c4c7c7">Dirichlet principle</text>
</a>
</g>
</g>
<!-- Set&#45;&gt;Dirichlet principle -->
<g id="edge17" class="edge">
<title>Set&#45;&gt;Dirichlet principle</title>
<path fill="none" stroke="#ffffff" d="M247.84,-265.25C261.66,-278.61 276.98,-296.14 286,-315 295.9,-335.7 278.34,-349.23 294,-366 305.32,-378.12 321.81,-384.23 337.98,-387.14"/>
<polygon fill="#ffffff" stroke="#ffffff" points="250.06,-262.54 240.37,-258.27 245.29,-267.65 250.06,-262.54"/>
</g>
<!-- Differential Analysis -->
<g id="node17" class="node">
<title>Differential Analysis</title>
<g id="a_node17"><a xlink:href="/Knowledge/differential_analysis.html" xlink:title="Differential Analysis" target="_parent">
<path fill="none" stroke="#b75867" d="M437.5,-184C437.5,-184 345.5,-184 345.5,-184 339.5,-184 333.5,-178 333.5,-172 333.5,-172 333.5,-160 333.5,-160 333.5,-154 339.5,-148 345.5,-148 345.5,-148 437.5,-148 437.5,-148 443.5,-148 449.5,-154 449.5,-160 449.5,-160 449.5,-172 449.5,-172 449.5,-178 443.5,-184 437.5,-184"/>
<text text-anchor="middle" x="391.5" y="-162.9" font-family="sans" font-size="12.00" fill="#c4c7c7">Differential Analysis</text>
</a>
</g>
</g>
<!-- Set&#45;&gt;Differential Analysis -->
<g id="edge18" class="edge">
<title>Set&#45;&gt;Differential Analysis</title>
<path fill="none" stroke="#ffffff" d="M247.97,-215.62C261.37,-205.78 277.78,-195.09 294,-188 306.36,-182.6 320.21,-178.44 333.48,-175.27"/>
<polygon fill="#ffffff" stroke="#ffffff" points="245.5,-213.1 239.63,-221.92 249.72,-218.69 245.5,-213.1"/>
</g>
<!-- Relation of Equivalence -->
<g id="node18" class="node">
<title>Relation of Equivalence</title>
<g id="a_node18"><a xlink:href="/Knowledge/relation_of_equivalence.html" xlink:title="Relation of Equivalence" target="_parent">
<path fill="none" stroke="#b75867" d="M446.5,-147C446.5,-147 336.5,-147 336.5,-147 330.5,-147 324.5,-141 324.5,-135 324.5,-135 324.5,-123 324.5,-123 324.5,-117 330.5,-111 336.5,-111 336.5,-111 446.5,-111 446.5,-111 452.5,-111 458.5,-117 458.5,-123 458.5,-123 458.5,-135 458.5,-135 458.5,-141 452.5,-147 446.5,-147"/>
<text text-anchor="middle" x="391.5" y="-125.9" font-family="sans" font-size="12.00" fill="#c4c7c7">Relation of Equivalence</text>
</a>
</g>
</g>
<!-- Set&#45;&gt;Relation of Equivalence -->
<g id="edge19" class="edge">
<title>Set&#45;&gt;Relation of Equivalence</title>
<path fill="none" stroke="#ffffff" d="M233.88,-213.47C247.37,-193.27 268.56,-166.39 294,-151 303.26,-145.4 313.81,-141.22 324.45,-138.1"/>
<polygon fill="#ffffff" stroke="#ffffff" points="230.9,-211.64 228.41,-221.94 236.78,-215.44 230.9,-211.64"/>
</g>
<!-- Combinatoric principles&#45;&gt;Principle of the bijection -->
<g id="edge22" class="edge">
<title>Combinatoric principles&#45;&gt;Principle of the bijection</title>
<path fill="none" stroke="#b75867" d="M147.98,-333.75C147.82,-333.75 147.66,-333.75 147.49,-333.75"/>
<polygon fill="#b75867" stroke="#b75867" points="150.1,-330.25 140.1,-333.75 150.1,-337.25 150.1,-330.25"/>
</g>
<!-- Combinatoric principles&#45;&gt;Principle of partitions -->
<g id="edge24" class="edge">
<title>Combinatoric principles&#45;&gt;Principle of partitions</title>
<path fill="none" stroke="#b75867" d="M286.18,-340.11C296.74,-341.22 307.68,-342.36 318.33,-343.47"/>
<polygon fill="#b75867" stroke="#b75867" points="318.11,-346.97 328.42,-344.52 318.84,-340 318.11,-346.97"/>
</g>
<!-- Combinatoric principles&#45;&gt;Principle of inclusion and exclusion -->
<g id="edge20" class="edge">
<title>Combinatoric principles&#45;&gt;Principle of inclusion and exclusion</title>
<path fill="none" stroke="#b75867" d="M286.18,-325.49C286.34,-325.47 286.49,-325.46 286.65,-325.44"/>
<polygon fill="#b75867" stroke="#b75867" points="284.3,-329.22 293.86,-324.64 283.54,-322.26 284.3,-329.22"/>
</g>
<!-- Combinatoric principles&#45;&gt;Principle of products -->
<g id="edge23" class="edge">
<title>Combinatoric principles&#45;&gt;Principle of products</title>
<path fill="none" stroke="#b75867" d="M254.53,-314.91C266.86,-309.28 280.84,-303.4 294,-299 302.5,-296.16 311.54,-293.57 320.55,-291.23"/>
<polygon fill="#b75867" stroke="#b75867" points="321.42,-294.62 330.28,-288.81 319.73,-287.83 321.42,-294.62"/>
</g>
<!-- Combinatoric principles&#45;&gt;Principle of division -->
<g id="edge21" class="edge">
<title>Combinatoric principles&#45;&gt;Principle of division</title>
<path fill="none" stroke="#b75867" d="M232.61,-314.69C246.63,-298.38 269.28,-275.12 294,-262 303.14,-257.15 313.33,-253.36 323.56,-250.41"/>
<polygon fill="#b75867" stroke="#b75867" points="324.57,-253.76 333.35,-247.82 322.79,-246.99 324.57,-253.76"/>
</g>
<!-- Combinatoric principles&#45;&gt;Dirichlet principle -->
<g id="edge25" class="edge">
<title>Combinatoric principles&#45;&gt;Dirichlet principle</title>
<path fill="none" stroke="#b75867" d="M255.74,-351.03C267.78,-356.34 281.29,-361.83 294,-366 304.86,-369.56 316.59,-372.76 328.01,-375.54"/>
<polygon fill="#b75867" stroke="#b75867" points="327.39,-378.99 337.93,-377.87 329,-372.17 327.39,-378.99"/>
</g>
<!-- Combinatorics -->
<g id="node19" class="node">
<title>Combinatorics</title>
<g id="a_node19"><a xlink:href="/Knowledge/combinatorics.html" xlink:title="Combinatorics" target="_parent">
<path fill="none" stroke="#b75867" d="M425,-443C425,-443 358,-443 358,-443 352,-443 346,-437 346,-431 346,-431 346,-419 346,-419 346,-413 352,-407 358,-407 358,-407 425,-407 425,-407 431,-407 437,-413 437,-419 437,-419 437,-431 437,-431 437,-437 431,-443 425,-443"/>
<text text-anchor="middle" x="391.5" y="-421.9" font-family="sans" font-size="12.00" fill="#c4c7c7">Combinatorics</text>
</a>
</g>
</g>
<!-- Combinatoric principles&#45;&gt;Combinatorics -->
<g id="edge26" class="edge">
<title>Combinatoric principles&#45;&gt;Combinatorics</title>
<path fill="none" stroke="#ffffff" d="M239.47,-358.6C253.49,-373.71 273.04,-391.98 294,-403 309.82,-411.32 328.71,-416.51 345.57,-419.74"/>
<polygon fill="#ffffff" stroke="#ffffff" points="241.96,-356.13 232.66,-351.05 236.76,-360.82 241.96,-356.13"/>
</g>
</g>
</svg>
