<?xml version="1.0" encoding="UTF-8" standalone="no"?>
<!DOCTYPE svg PUBLIC "-//W3C//DTD SVG 1.1//EN"
 "http://www.w3.org/Graphics/SVG/1.1/DTD/svg11.dtd">
<!-- Generated by graphviz version 2.46.1 (0)
 -->
<!-- Title: Principle of division Pages: 1 -->
<svg width="742pt" height="377pt"
 viewBox="0.00 0.00 742.00 377.00" xmlns="http://www.w3.org/2000/svg" xmlns:xlink="http://www.w3.org/1999/xlink">
<g id="graph0" class="graph" transform="scale(1 1) rotate(0) translate(4 373)">
<title>Principle of division</title>
<polygon fill="#132020" stroke="transparent" points="-4,4 -4,-373 738,-373 738,4 -4,4"/>
<!-- Principle of division -->
<g id="node1" class="node">
<title>Principle of division</title>
<g id="a_node1"><a xlink:href="/Knowledge/principle_of_division.html" xlink:title="Principle of division" target="_parent">
<path fill="#273434" stroke="#b75867" d="M104,-232C104,-232 12,-232 12,-232 6,-232 0,-226 0,-220 0,-220 0,-208 0,-208 0,-202 6,-196 12,-196 12,-196 104,-196 104,-196 110,-196 116,-202 116,-208 116,-208 116,-220 116,-220 116,-226 110,-232 104,-232"/>
<text text-anchor="middle" x="58" y="-210.9" font-family="sans" font-size="12.00" fill="#c4c7c7">Principle of division</text>
</a>
</g>
</g>
<!-- Class of equivalence -->
<g id="node2" class="node">
<title>Class of equivalence</title>
<g id="a_node2"><a xlink:href="/Knowledge/class_of_equivalence.html" xlink:title="Class of equivalence" target="_parent">
<path fill="#273434" stroke="#b75867" d="M231,-242C231,-242 136,-242 136,-242 130,-242 124,-236 124,-230 124,-230 124,-218 124,-218 124,-212 130,-206 136,-206 136,-206 231,-206 231,-206 237,-206 243,-212 243,-218 243,-218 243,-230 243,-230 243,-236 237,-242 231,-242"/>
<text text-anchor="middle" x="183.5" y="-220.9" font-family="sans" font-size="12.00" fill="#c4c7c7">Class of equivalence</text>
</a>
</g>
</g>
<!-- Principle of division&#45;&gt;Class of equivalence -->
<g id="edge1" class="edge">
<title>Principle of division&#45;&gt;Class of equivalence</title>
<path fill="none" stroke="#b75867" d="M116.05,-218.62C116.21,-218.63 116.37,-218.65 116.52,-218.66"/>
<polygon fill="#b75867" stroke="#b75867" points="113.4,-221.92 123.65,-219.23 113.96,-214.94 113.4,-221.92"/>
</g>
<!-- Relation of Equivalence -->
<g id="node3" class="node">
<title>Relation of Equivalence</title>
<g id="a_node3"><a xlink:href="/Knowledge/relation_of_equivalence.html" xlink:title="Relation of Equivalence" target="_parent">
<path fill="#273434" stroke="#b75867" d="M373,-222C373,-222 263,-222 263,-222 257,-222 251,-216 251,-210 251,-210 251,-198 251,-198 251,-192 257,-186 263,-186 263,-186 373,-186 373,-186 379,-186 385,-192 385,-198 385,-198 385,-210 385,-210 385,-216 379,-222 373,-222"/>
<text text-anchor="middle" x="318" y="-200.9" font-family="sans" font-size="12.00" fill="#c4c7c7">Relation of Equivalence</text>
</a>
</g>
</g>
<!-- Principle of division&#45;&gt;Relation of Equivalence -->
<g id="edge2" class="edge">
<title>Principle of division&#45;&gt;Relation of Equivalence</title>
<path fill="none" stroke="#b75867" d="M116.06,-209.45C118.74,-209.28 121.4,-209.13 124,-209 162.39,-207.03 205.11,-205.82 240.59,-205.09"/>
<polygon fill="#b75867" stroke="#b75867" points="240.94,-208.58 250.87,-204.88 240.8,-201.58 240.94,-208.58"/>
</g>
<!-- Set -->
<g id="node4" class="node">
<title>Set</title>
<g id="a_node4"><a xlink:href="/Knowledge/set.html" xlink:title="Set" target="_parent">
<path fill="#273434" stroke="#b75867" d="M477,-295C477,-295 447,-295 447,-295 441,-295 435,-289 435,-283 435,-283 435,-271 435,-271 435,-265 441,-259 447,-259 447,-259 477,-259 477,-259 483,-259 489,-265 489,-271 489,-271 489,-283 489,-283 489,-289 483,-295 477,-295"/>
<text text-anchor="middle" x="462" y="-273.9" font-family="sans" font-size="12.00" fill="#c4c7c7">Set</text>
</a>
</g>
</g>
<!-- Principle of division&#45;&gt;Set -->
<g id="edge3" class="edge">
<title>Principle of division&#45;&gt;Set</title>
<path fill="none" stroke="#b75867" d="M94.01,-232.07C103.52,-236.29 113.97,-240.33 124,-243 230.63,-271.38 362,-276.42 424.56,-277.09"/>
<polygon fill="#b75867" stroke="#b75867" points="424.68,-280.59 434.71,-277.17 424.73,-273.59 424.68,-280.59"/>
</g>
<!-- Combinatoric principles -->
<g id="node5" class="node">
<title>Combinatoric principles</title>
<g id="a_node5"><a xlink:href="/Knowledge/combinatoric_principles.html" xlink:title="Combinatoric principles" target="_parent">
<path fill="none" stroke="#b75867" d="M519,-36C519,-36 405,-36 405,-36 399,-36 393,-30 393,-24 393,-24 393,-12 393,-12 393,-6 399,0 405,0 405,0 519,0 519,0 525,0 531,-6 531,-12 531,-12 531,-24 531,-24 531,-30 525,-36 519,-36"/>
<text text-anchor="middle" x="462" y="-14.9" font-family="sans" font-size="12.00" fill="#c4c7c7">Combinatoric principles</text>
</a>
</g>
</g>
<!-- Principle of division&#45;&gt;Combinatoric principles -->
<g id="edge4" class="edge">
<title>Principle of division&#45;&gt;Combinatoric principles</title>
<path fill="none" stroke="#ffffff" d="M98.44,-190.68C159.89,-154.99 282.86,-86.12 393,-40 396.2,-38.66 399.52,-37.35 402.89,-36.07"/>
<polygon fill="#ffffff" stroke="#ffffff" points="96.35,-187.84 89.48,-195.9 99.88,-193.89 96.35,-187.84"/>
</g>
<!-- Class of equivalence&#45;&gt;Principle of division -->
<g id="edge8" class="edge">
<title>Class of equivalence&#45;&gt;Principle of division</title>
<path fill="none" stroke="#ffffff" d="M116.52,-219.41C116.37,-219.39 116.21,-219.38 116.05,-219.37"/>
<polygon fill="#ffffff" stroke="#ffffff" points="113.4,-222.66 123.65,-219.98 113.96,-215.69 113.4,-222.66"/>
</g>
<!-- Class of equivalence&#45;&gt;Relation of Equivalence -->
<g id="edge7" class="edge">
<title>Class of equivalence&#45;&gt;Relation of Equivalence</title>
<path fill="none" stroke="#b75867" d="M243,-215.17C243.17,-215.14 243.33,-215.12 243.5,-215.09"/>
<polygon fill="#b75867" stroke="#b75867" points="241.57,-218.93 250.94,-213.97 240.53,-212 241.57,-218.93"/>
</g>
<!-- Class of equivalence&#45;&gt;Set -->
<g id="edge6" class="edge">
<title>Class of equivalence&#45;&gt;Set</title>
<path fill="none" stroke="#b75867" d="M243.24,-231.07C245.87,-231.38 248.46,-231.7 251,-232 310.55,-239.14 330.21,-223.61 385,-248 389.32,-249.92 388.89,-252.67 393,-255 402.82,-260.57 414.24,-264.95 424.89,-268.3"/>
<polygon fill="#b75867" stroke="#b75867" points="424.2,-271.74 434.78,-271.19 426.17,-265.03 424.2,-271.74"/>
</g>
<!-- Partition -->
<g id="node6" class="node">
<title>Partition</title>
<g id="a_node6"><a xlink:href="/Knowledge/partition.html" xlink:title="Partition" target="_parent">
<path fill="#273434" stroke="#b75867" d="M480,-258C480,-258 444,-258 444,-258 438,-258 432,-252 432,-246 432,-246 432,-234 432,-234 432,-228 438,-222 444,-222 444,-222 480,-222 480,-222 486,-222 492,-228 492,-234 492,-234 492,-246 492,-246 492,-252 486,-258 480,-258"/>
<text text-anchor="middle" x="462" y="-236.9" font-family="sans" font-size="12.00" fill="#c4c7c7">Partition</text>
</a>
</g>
</g>
<!-- Class of equivalence&#45;&gt;Partition -->
<g id="edge5" class="edge">
<title>Class of equivalence&#45;&gt;Partition</title>
<path fill="none" stroke="#b75867" d="M243.14,-227.39C296.93,-230.51 375.12,-235.03 421.73,-237.73"/>
<polygon fill="#b75867" stroke="#b75867" points="421.56,-241.22 431.74,-238.31 421.96,-234.24 421.56,-241.22"/>
</g>
<!-- Relations -->
<g id="node7" class="node">
<title>Relations</title>
<g id="a_node7"><a xlink:href="/Knowledge/relations.html" xlink:title="Relations" target="_parent">
<path fill="none" stroke="#b75867" d="M482,-221C482,-221 442,-221 442,-221 436,-221 430,-215 430,-209 430,-209 430,-197 430,-197 430,-191 436,-185 442,-185 442,-185 482,-185 482,-185 488,-185 494,-191 494,-197 494,-197 494,-209 494,-209 494,-215 488,-221 482,-221"/>
<text text-anchor="middle" x="462" y="-199.9" font-family="sans" font-size="12.00" fill="#c4c7c7">Relations</text>
</a>
</g>
</g>
<!-- Class of equivalence&#45;&gt;Relations -->
<g id="edge9" class="edge">
<title>Class of equivalence&#45;&gt;Relations</title>
<path fill="none" stroke="#ffffff" d="M253.18,-225.38C292,-225.38 341.35,-224.1 385,-219 399.87,-217.26 416.13,-214.03 429.78,-210.91"/>
<polygon fill="#ffffff" stroke="#ffffff" points="253.05,-221.88 243.04,-225.35 253.03,-228.88 253.05,-221.88"/>
</g>
<!-- Relation of Equivalence&#45;&gt;Principle of division -->
<g id="edge17" class="edge">
<title>Relation of Equivalence&#45;&gt;Principle of division</title>
<path fill="none" stroke="#ffffff" d="M240.59,-206C205.11,-206.82 162.39,-208.03 124,-210 121.4,-210.13 118.74,-210.28 116.06,-210.45"/>
<polygon fill="#ffffff" stroke="#ffffff" points="240.95,-209.49 250.87,-205.76 240.79,-202.49 240.95,-209.49"/>
</g>
<!-- Relation of Equivalence&#45;&gt;Class of equivalence -->
<g id="edge10" class="edge">
<title>Relation of Equivalence&#45;&gt;Class of equivalence</title>
<path fill="none" stroke="#b75867" d="M250.94,-214.72C250.77,-214.75 250.61,-214.77 250.44,-214.8"/>
<polygon fill="#b75867" stroke="#b75867" points="252.37,-210.97 243,-215.91 253.41,-217.89 252.37,-210.97"/>
</g>
<!-- Relation of Equivalence&#45;&gt;Set -->
<g id="edge11" class="edge">
<title>Relation of Equivalence&#45;&gt;Set</title>
<path fill="none" stroke="#b75867" d="M357.9,-222.13C367.42,-227.67 377.13,-234.35 385,-242 389.87,-246.73 387.67,-250.81 393,-255 402.19,-262.22 413.82,-267.1 424.85,-270.4"/>
<polygon fill="#b75867" stroke="#b75867" points="424.16,-273.83 434.73,-272.99 425.94,-267.06 424.16,-273.83"/>
</g>
<!-- Relation of Equivalence&#45;&gt;Partition -->
<g id="edge12" class="edge">
<title>Relation of Equivalence&#45;&gt;Partition</title>
<path fill="none" stroke="#b75867" d="M385.01,-220.74C397.54,-223.91 410.28,-227.14 421.66,-230.03"/>
<polygon fill="#b75867" stroke="#b75867" points="421.13,-233.5 431.68,-232.57 422.85,-226.72 421.13,-233.5"/>
</g>
<!-- Relation of Equivalence&#45;&gt;Relations -->
<g id="edge18" class="edge">
<title>Relation of Equivalence&#45;&gt;Relations</title>
<path fill="none" stroke="#ffffff" d="M395.29,-203.46C407.51,-203.38 419.52,-203.29 429.86,-203.22"/>
<polygon fill="#ffffff" stroke="#ffffff" points="394.99,-199.96 385.01,-203.54 395.04,-206.96 394.99,-199.96"/>
</g>
<!-- Transitive Relation -->
<g id="node8" class="node">
<title>Transitive Relation</title>
<g id="a_node8"><a xlink:href="/Knowledge/transitive_relation.html" xlink:title="Transitive Relation" target="_parent">
<path fill="#273434" stroke="#b75867" d="M505,-110C505,-110 419,-110 419,-110 413,-110 407,-104 407,-98 407,-98 407,-86 407,-86 407,-80 413,-74 419,-74 419,-74 505,-74 505,-74 511,-74 517,-80 517,-86 517,-86 517,-98 517,-98 517,-104 511,-110 505,-110"/>
<text text-anchor="middle" x="462" y="-88.9" font-family="sans" font-size="12.00" fill="#c4c7c7">Transitive Relation</text>
</a>
</g>
</g>
<!-- Relation of Equivalence&#45;&gt;Transitive Relation -->
<g id="edge13" class="edge">
<title>Relation of Equivalence&#45;&gt;Transitive Relation</title>
<path fill="none" stroke="#b75867" d="M329.49,-185.82C342.09,-165.52 365.08,-133.01 393,-114 394.62,-112.9 396.29,-111.85 398.01,-110.85"/>
<polygon fill="#b75867" stroke="#b75867" points="399.63,-113.96 406.92,-106.27 396.43,-107.73 399.63,-113.96"/>
</g>
<!-- Symmetric Relation -->
<g id="node9" class="node">
<title>Symmetric Relation</title>
<g id="a_node9"><a xlink:href="/Knowledge/symmetric_relation.html" xlink:title="Symmetric Relation" target="_parent">
<path fill="#273434" stroke="#b75867" d="M507.5,-73C507.5,-73 416.5,-73 416.5,-73 410.5,-73 404.5,-67 404.5,-61 404.5,-61 404.5,-49 404.5,-49 404.5,-43 410.5,-37 416.5,-37 416.5,-37 507.5,-37 507.5,-37 513.5,-37 519.5,-43 519.5,-49 519.5,-49 519.5,-61 519.5,-61 519.5,-67 513.5,-73 507.5,-73"/>
<text text-anchor="middle" x="462" y="-51.9" font-family="sans" font-size="12.00" fill="#c4c7c7">Symmetric Relation</text>
</a>
</g>
</g>
<!-- Relation of Equivalence&#45;&gt;Symmetric Relation -->
<g id="edge14" class="edge">
<title>Relation of Equivalence&#45;&gt;Symmetric Relation</title>
<path fill="none" stroke="#b75867" d="M333.06,-185.93C347.71,-166.4 370.5,-133.91 385,-103 390.13,-92.05 384.51,-85.61 393,-77 393.93,-76.06 394.9,-75.15 395.91,-74.29"/>
<polygon fill="#b75867" stroke="#b75867" points="398.11,-77.02 404.25,-68.38 394.07,-71.3 398.11,-77.02"/>
</g>
<!-- Reflexive Relation -->
<g id="node10" class="node">
<title>Reflexive Relation</title>
<g id="a_node10"><a xlink:href="/Knowledge/reflexive_relation.html" xlink:title="Reflexive Relation" target="_parent">
<path fill="#273434" stroke="#b75867" d="M503,-184C503,-184 421,-184 421,-184 415,-184 409,-178 409,-172 409,-172 409,-160 409,-160 409,-154 415,-148 421,-148 421,-148 503,-148 503,-148 509,-148 515,-154 515,-160 515,-160 515,-172 515,-172 515,-178 509,-184 503,-184"/>
<text text-anchor="middle" x="462" y="-162.9" font-family="sans" font-size="12.00" fill="#c4c7c7">Reflexive Relation</text>
</a>
</g>
</g>
<!-- Relation of Equivalence&#45;&gt;Reflexive Relation -->
<g id="edge15" class="edge">
<title>Relation of Equivalence&#45;&gt;Reflexive Relation</title>
<path fill="none" stroke="#b75867" d="M385.01,-186.33C389.62,-185.1 394.25,-183.86 398.84,-182.64"/>
<polygon fill="#b75867" stroke="#b75867" points="400.01,-185.95 408.76,-179.98 398.2,-179.18 400.01,-185.95"/>
</g>
<!-- Relation -->
<g id="node11" class="node">
<title>Relation</title>
<g id="a_node11"><a xlink:href="/Knowledge/relation.html" xlink:title="Relation" target="_parent">
<path fill="#273434" stroke="#b75867" d="M479.5,-147C479.5,-147 444.5,-147 444.5,-147 438.5,-147 432.5,-141 432.5,-135 432.5,-135 432.5,-123 432.5,-123 432.5,-117 438.5,-111 444.5,-111 444.5,-111 479.5,-111 479.5,-111 485.5,-111 491.5,-117 491.5,-123 491.5,-123 491.5,-135 491.5,-135 491.5,-141 485.5,-147 479.5,-147"/>
<text text-anchor="middle" x="462" y="-125.9" font-family="sans" font-size="12.00" fill="#c4c7c7">Relation</text>
</a>
</g>
</g>
<!-- Relation of Equivalence&#45;&gt;Relation -->
<g id="edge16" class="edge">
<title>Relation of Equivalence&#45;&gt;Relation</title>
<path fill="none" stroke="#b75867" d="M340.52,-185.86C354.71,-174.61 374.09,-160.54 393,-151 402.31,-146.31 412.83,-142.32 422.76,-139.09"/>
<polygon fill="#b75867" stroke="#b75867" points="423.91,-142.4 432.44,-136.11 421.85,-135.71 423.91,-142.4"/>
</g>
<!-- Set&#45;&gt;Principle of division -->
<g id="edge27" class="edge">
<title>Set&#45;&gt;Principle of division</title>
<path fill="none" stroke="#ffffff" d="M424.56,-277.7C362,-277.42 230.63,-272.38 124,-244 113.25,-241.14 102.03,-236.71 91.99,-232.12"/>
<polygon fill="#ffffff" stroke="#ffffff" points="424.7,-281.2 434.71,-277.7 424.71,-274.2 424.7,-281.2"/>
</g>
<!-- Set&#45;&gt;Class of equivalence -->
<g id="edge24" class="edge">
<title>Set&#45;&gt;Class of equivalence</title>
<path fill="none" stroke="#ffffff" d="M424.89,-269.25C414.24,-265.95 402.82,-261.57 393,-256 388.89,-253.67 389.32,-250.92 385,-249 330.21,-224.61 310.55,-240.14 251,-233 248.46,-232.7 245.87,-232.38 243.24,-232.07"/>
<polygon fill="#ffffff" stroke="#ffffff" points="424.21,-272.7 434.78,-272.09 426.13,-265.97 424.21,-272.7"/>
</g>
<!-- Set&#45;&gt;Relation of Equivalence -->
<g id="edge30" class="edge">
<title>Set&#45;&gt;Relation of Equivalence</title>
<path fill="none" stroke="#ffffff" d="M424.85,-271.35C413.82,-268.1 402.19,-263.22 393,-256 387.67,-251.81 389.87,-247.73 385,-243 376.65,-234.89 366.25,-227.87 356.18,-222.1"/>
<polygon fill="#ffffff" stroke="#ffffff" points="424.17,-274.78 434.73,-273.88 425.91,-268 424.17,-274.78"/>
</g>
<!-- Principle of partitions -->
<g id="node12" class="node">
<title>Principle of partitions</title>
<g id="a_node12"><a xlink:href="/Knowledge/principle_of_partitions.html" xlink:title="Principle of partitions" target="_parent">
<path fill="none" stroke="#b75867" d="M687.5,-184C687.5,-184 585.5,-184 585.5,-184 579.5,-184 573.5,-178 573.5,-172 573.5,-172 573.5,-160 573.5,-160 573.5,-154 579.5,-148 585.5,-148 585.5,-148 687.5,-148 687.5,-148 693.5,-148 699.5,-154 699.5,-160 699.5,-160 699.5,-172 699.5,-172 699.5,-178 693.5,-184 687.5,-184"/>
<text text-anchor="middle" x="636.5" y="-162.9" font-family="sans" font-size="12.00" fill="#c4c7c7">Principle of partitions</text>
</a>
</g>
</g>
<!-- Set&#45;&gt;Principle of partitions -->
<g id="edge19" class="edge">
<title>Set&#45;&gt;Principle of partitions</title>
<path fill="none" stroke="#ffffff" d="M498.92,-273.2C510.83,-270.12 523.06,-264.66 531,-255 550.05,-231.84 518.94,-210.29 539,-188 547.97,-178.04 560.43,-172.1 573.42,-168.67"/>
<polygon fill="#ffffff" stroke="#ffffff" points="498.16,-269.78 489.09,-275.26 499.6,-276.63 498.16,-269.78"/>
</g>
<!-- Principle of inclusion and exclusion -->
<g id="node13" class="node">
<title>Principle of inclusion and exclusion</title>
<g id="a_node13"><a xlink:href="/Knowledge/principle_of_inclusion_and_exclusion.html" xlink:title="Principle of inclusion and exclusion" target="_parent">
<path fill="none" stroke="#b75867" d="M722,-147C722,-147 551,-147 551,-147 545,-147 539,-141 539,-135 539,-135 539,-123 539,-123 539,-117 545,-111 551,-111 551,-111 722,-111 722,-111 728,-111 734,-117 734,-123 734,-123 734,-135 734,-135 734,-141 728,-147 722,-147"/>
<text text-anchor="middle" x="636.5" y="-125.9" font-family="sans" font-size="12.00" fill="#c4c7c7">Principle of inclusion and exclusion</text>
</a>
</g>
</g>
<!-- Set&#45;&gt;Principle of inclusion and exclusion -->
<g id="edge20" class="edge">
<title>Set&#45;&gt;Principle of inclusion and exclusion</title>
<path fill="none" stroke="#ffffff" d="M499.15,-273.38C511.08,-270.32 523.26,-264.82 531,-255 545.35,-236.79 523.86,-168.55 539,-151 540.12,-149.7 541.3,-148.47 542.54,-147.3"/>
<polygon fill="#ffffff" stroke="#ffffff" points="498.37,-269.96 489.29,-275.41 499.79,-276.82 498.37,-269.96"/>
</g>
<!-- Principle of the bijection -->
<g id="node14" class="node">
<title>Principle of the bijection</title>
<g id="a_node14"><a xlink:href="/Knowledge/principle_of_the_bijection.html" xlink:title="Principle of the bijection" target="_parent">
<path fill="none" stroke="#b75867" d="M694.5,-110C694.5,-110 578.5,-110 578.5,-110 572.5,-110 566.5,-104 566.5,-98 566.5,-98 566.5,-86 566.5,-86 566.5,-80 572.5,-74 578.5,-74 578.5,-74 694.5,-74 694.5,-74 700.5,-74 706.5,-80 706.5,-86 706.5,-86 706.5,-98 706.5,-98 706.5,-104 700.5,-110 694.5,-110"/>
<text text-anchor="middle" x="636.5" y="-88.9" font-family="sans" font-size="12.00" fill="#c4c7c7">Principle of the bijection</text>
</a>
</g>
</g>
<!-- Set&#45;&gt;Principle of the bijection -->
<g id="edge21" class="edge">
<title>Set&#45;&gt;Principle of the bijection</title>
<path fill="none" stroke="#ffffff" d="M498.98,-273.53C511.01,-270.5 523.3,-264.98 531,-255 550.17,-230.15 518.74,-137.97 539,-114 546.1,-105.6 555.68,-100.03 566.06,-96.39"/>
<polygon fill="#ffffff" stroke="#ffffff" points="498.15,-270.13 489.04,-275.54 499.54,-276.99 498.15,-270.13"/>
</g>
<!-- Principle of products -->
<g id="node15" class="node">
<title>Principle of products</title>
<g id="a_node15"><a xlink:href="/Knowledge/principle_of_products.html" xlink:title="Principle of products" target="_parent">
<path fill="none" stroke="#b75867" d="M685.5,-73C685.5,-73 587.5,-73 587.5,-73 581.5,-73 575.5,-67 575.5,-61 575.5,-61 575.5,-49 575.5,-49 575.5,-43 581.5,-37 587.5,-37 587.5,-37 685.5,-37 685.5,-37 691.5,-37 697.5,-43 697.5,-49 697.5,-49 697.5,-61 697.5,-61 697.5,-67 691.5,-73 685.5,-73"/>
<text text-anchor="middle" x="636.5" y="-51.9" font-family="sans" font-size="12.00" fill="#c4c7c7">Principle of products</text>
</a>
</g>
</g>
<!-- Set&#45;&gt;Principle of products -->
<g id="edge22" class="edge">
<title>Set&#45;&gt;Principle of products</title>
<path fill="none" stroke="#ffffff" d="M499.04,-273.58C511.08,-270.55 523.36,-265.02 531,-255 543,-239.26 526.31,-92.2 539,-77 548.14,-66.05 561.5,-59.89 575.38,-56.56"/>
<polygon fill="#ffffff" stroke="#ffffff" points="498.21,-270.18 489.1,-275.58 499.59,-277.04 498.21,-270.18"/>
</g>
<!-- Symmetric Closure -->
<g id="node16" class="node">
<title>Symmetric Closure</title>
<g id="a_node16"><a xlink:href="/Knowledge/symmetric_closure.html" xlink:title="Symmetric Closure" target="_parent">
<path fill="none" stroke="#b75867" d="M680,-295C680,-295 593,-295 593,-295 587,-295 581,-289 581,-283 581,-283 581,-271 581,-271 581,-265 587,-259 593,-259 593,-259 680,-259 680,-259 686,-259 692,-265 692,-271 692,-271 692,-283 692,-283 692,-289 686,-295 680,-295"/>
<text text-anchor="middle" x="636.5" y="-273.9" font-family="sans" font-size="12.00" fill="#c4c7c7">Symmetric Closure</text>
</a>
</g>
</g>
<!-- Set&#45;&gt;Symmetric Closure -->
<g id="edge23" class="edge">
<title>Set&#45;&gt;Symmetric Closure</title>
<path fill="none" stroke="#ffffff" d="M499.47,-277C523.08,-277 554.25,-277 580.8,-277"/>
<polygon fill="#ffffff" stroke="#ffffff" points="499.2,-273.5 489.2,-277 499.2,-280.5 499.2,-273.5"/>
</g>
<!-- Reflexive Closure -->
<g id="node17" class="node">
<title>Reflexive Closure</title>
<g id="a_node17"><a xlink:href="/Knowledge/reflexive_closure.html" xlink:title="Reflexive Closure" target="_parent">
<path fill="none" stroke="#b75867" d="M675.5,-258C675.5,-258 597.5,-258 597.5,-258 591.5,-258 585.5,-252 585.5,-246 585.5,-246 585.5,-234 585.5,-234 585.5,-228 591.5,-222 597.5,-222 597.5,-222 675.5,-222 675.5,-222 681.5,-222 687.5,-228 687.5,-234 687.5,-234 687.5,-246 687.5,-246 687.5,-252 681.5,-258 675.5,-258"/>
<text text-anchor="middle" x="636.5" y="-236.9" font-family="sans" font-size="12.00" fill="#c4c7c7">Reflexive Closure</text>
</a>
</g>
</g>
<!-- Set&#45;&gt;Reflexive Closure -->
<g id="edge25" class="edge">
<title>Set&#45;&gt;Reflexive Closure</title>
<path fill="none" stroke="#ffffff" d="M499.01,-269.28C524.05,-263.91 557.75,-256.68 585.4,-250.75"/>
<polygon fill="#ffffff" stroke="#ffffff" points="498.24,-265.86 489.2,-271.38 499.71,-272.71 498.24,-265.86"/>
</g>
<!-- Recurrent Equations -->
<g id="node18" class="node">
<title>Recurrent Equations</title>
<g id="a_node18"><a xlink:href="/Knowledge/recurrent_equations.html" xlink:title="Recurrent Equations" target="_parent">
<path fill="none" stroke="#b75867" d="M684,-369C684,-369 589,-369 589,-369 583,-369 577,-363 577,-357 577,-357 577,-345 577,-345 577,-339 583,-333 589,-333 589,-333 684,-333 684,-333 690,-333 696,-339 696,-345 696,-345 696,-357 696,-357 696,-363 690,-369 684,-369"/>
<text text-anchor="middle" x="636.5" y="-347.9" font-family="sans" font-size="12.00" fill="#c4c7c7">Recurrent Equations</text>
</a>
</g>
</g>
<!-- Set&#45;&gt;Recurrent Equations -->
<g id="edge26" class="edge">
<title>Set&#45;&gt;Recurrent Equations</title>
<path fill="none" stroke="#ffffff" d="M492.97,-301.38C506.37,-311.22 522.78,-321.91 539,-329 550.89,-334.2 564.16,-338.24 576.96,-341.36"/>
<polygon fill="#ffffff" stroke="#ffffff" points="494.72,-298.31 484.63,-295.08 490.5,-303.9 494.72,-298.31"/>
</g>
<!-- Dirichlet principle -->
<g id="node19" class="node">
<title>Dirichlet principle</title>
<g id="a_node19"><a xlink:href="/Knowledge/dirichlet_principle.html" xlink:title="Dirichlet principle" target="_parent">
<path fill="none" stroke="#b75867" d="M678,-221C678,-221 595,-221 595,-221 589,-221 583,-215 583,-209 583,-209 583,-197 583,-197 583,-191 589,-185 595,-185 595,-185 678,-185 678,-185 684,-185 690,-191 690,-197 690,-197 690,-209 690,-209 690,-215 684,-221 678,-221"/>
<text text-anchor="middle" x="636.5" y="-199.9" font-family="sans" font-size="12.00" fill="#c4c7c7">Dirichlet principle</text>
</a>
</g>
</g>
<!-- Set&#45;&gt;Dirichlet principle -->
<g id="edge28" class="edge">
<title>Set&#45;&gt;Dirichlet principle</title>
<path fill="none" stroke="#ffffff" d="M499.09,-272.3C510.65,-269.14 522.61,-263.84 531,-255 540.5,-244.99 529.07,-234.58 539,-225 550.75,-213.67 567.07,-207.72 582.95,-204.72"/>
<polygon fill="#ffffff" stroke="#ffffff" points="498.1,-268.94 489.14,-274.58 499.66,-275.76 498.1,-268.94"/>
</g>
<!-- Differential Analysis -->
<g id="node20" class="node">
<title>Differential Analysis</title>
<g id="a_node20"><a xlink:href="/Knowledge/differential_analysis.html" xlink:title="Differential Analysis" target="_parent">
<path fill="none" stroke="#b75867" d="M682.5,-332C682.5,-332 590.5,-332 590.5,-332 584.5,-332 578.5,-326 578.5,-320 578.5,-320 578.5,-308 578.5,-308 578.5,-302 584.5,-296 590.5,-296 590.5,-296 682.5,-296 682.5,-296 688.5,-296 694.5,-302 694.5,-308 694.5,-308 694.5,-320 694.5,-320 694.5,-326 688.5,-332 682.5,-332"/>
<text text-anchor="middle" x="636.5" y="-310.9" font-family="sans" font-size="12.00" fill="#c4c7c7">Differential Analysis</text>
</a>
</g>
</g>
<!-- Set&#45;&gt;Differential Analysis -->
<g id="edge29" class="edge">
<title>Set&#45;&gt;Differential Analysis</title>
<path fill="none" stroke="#ffffff" d="M499.18,-284.76C522.08,-289.67 552.19,-296.13 578.29,-301.73"/>
<polygon fill="#ffffff" stroke="#ffffff" points="499.71,-281.29 489.2,-282.62 498.24,-288.14 499.71,-281.29"/>
</g>
<!-- Combinatoric principles&#45;&gt;Principle of division -->
<g id="edge32" class="edge">
<title>Combinatoric principles&#45;&gt;Principle of division</title>
<path fill="none" stroke="#b75867" d="M405.42,-36.13C401.19,-37.69 397.01,-39.32 393,-41 283.44,-86.88 161.17,-155.27 99.41,-190.76"/>
<polygon fill="#b75867" stroke="#b75867" points="97.3,-187.93 90.38,-195.96 100.8,-194 97.3,-187.93"/>
</g>
<!-- Combinatoric principles&#45;&gt;Principle of partitions -->
<g id="edge35" class="edge">
<title>Combinatoric principles&#45;&gt;Principle of partitions</title>
<path fill="none" stroke="#b75867" d="M527.53,-36.15C528.76,-37.35 529.92,-38.64 531,-40 545.35,-58.21 523.86,-126.45 539,-144 545.57,-151.61 554.17,-156.89 563.54,-160.51"/>
<polygon fill="#b75867" stroke="#b75867" points="562.52,-163.86 573.11,-163.6 564.67,-157.2 562.52,-163.86"/>
</g>
<!-- Combinatoric principles&#45;&gt;Principle of inclusion and exclusion -->
<g id="edge31" class="edge">
<title>Combinatoric principles&#45;&gt;Principle of inclusion and exclusion</title>
<path fill="none" stroke="#b75867" d="M527.45,-36.21C528.71,-37.4 529.9,-38.66 531,-40 548.04,-60.72 524.94,-80.14 537.1,-102.82"/>
<polygon fill="#b75867" stroke="#b75867" points="534.3,-104.92 542.99,-110.98 539.98,-100.82 534.3,-104.92"/>
</g>
<!-- Combinatoric principles&#45;&gt;Principle of the bijection -->
<g id="edge33" class="edge">
<title>Combinatoric principles&#45;&gt;Principle of the bijection</title>
<path fill="none" stroke="#b75867" d="M526.92,-36.19C528.35,-37.38 529.72,-38.65 531,-40 540.5,-50.01 529.07,-60.42 539,-70 544.27,-75.08 550.46,-79.08 557.12,-82.22"/>
<polygon fill="#b75867" stroke="#b75867" points="555.87,-85.49 566.45,-85.99 558.49,-79 555.87,-85.49"/>
</g>
<!-- Combinatoric principles&#45;&gt;Principle of products -->
<g id="edge34" class="edge">
<title>Combinatoric principles&#45;&gt;Principle of products</title>
<path fill="none" stroke="#b75867" d="M531.18,-32.62C542.47,-35.04 554.19,-37.56 565.52,-39.99"/>
<polygon fill="#b75867" stroke="#b75867" points="564.85,-43.43 575.36,-42.1 566.32,-36.58 564.85,-43.43"/>
</g>
<!-- Combinatoric principles&#45;&gt;Dirichlet principle -->
<g id="edge36" class="edge">
<title>Combinatoric principles&#45;&gt;Dirichlet principle</title>
<path fill="none" stroke="#b75867" d="M527.57,-36.12C528.79,-37.33 529.94,-38.62 531,-40 550.17,-64.85 518.74,-157.03 539,-181 547.62,-191.2 559.89,-197.23 572.81,-200.69"/>
<polygon fill="#b75867" stroke="#b75867" points="572.25,-204.15 582.77,-202.86 573.74,-197.31 572.25,-204.15"/>
</g>
<!-- Combinatorics -->
<g id="node21" class="node">
<title>Combinatorics</title>
<g id="a_node21"><a xlink:href="/Knowledge/combinatorics.html" xlink:title="Combinatorics" target="_parent">
<path fill="none" stroke="#b75867" d="M670,-36C670,-36 603,-36 603,-36 597,-36 591,-30 591,-24 591,-24 591,-12 591,-12 591,-6 597,0 603,0 603,0 670,0 670,0 676,0 682,-6 682,-12 682,-12 682,-24 682,-24 682,-30 676,-36 670,-36"/>
<text text-anchor="middle" x="636.5" y="-14.9" font-family="sans" font-size="12.00" fill="#c4c7c7">Combinatorics</text>
</a>
</g>
</g>
<!-- Combinatoric principles&#45;&gt;Combinatorics -->
<g id="edge37" class="edge">
<title>Combinatoric principles&#45;&gt;Combinatorics</title>
<path fill="none" stroke="#ffffff" d="M541.62,-18C558.5,-18 575.78,-18 590.84,-18"/>
<polygon fill="#ffffff" stroke="#ffffff" points="541.18,-14.5 531.18,-18 541.18,-21.5 541.18,-14.5"/>
</g>
</g>
</svg>
