<?xml version="1.0" encoding="UTF-8" standalone="no"?>
<!DOCTYPE svg PUBLIC "-//W3C//DTD SVG 1.1//EN"
 "http://www.w3.org/Graphics/SVG/1.1/DTD/svg11.dtd">
<!-- Generated by graphviz version 2.44.0 (0)
 -->
<!-- Title: Projects Pages: 1 -->
<svg width="445pt" height="636pt"
 viewBox="0.00 0.00 445.00 636.00" xmlns="http://www.w3.org/2000/svg" xmlns:xlink="http://www.w3.org/1999/xlink">
<g id="graph0" class="graph" transform="scale(1 1) rotate(0) translate(4 632)">
<title>Projects</title>
<polygon fill="#132020" stroke="transparent" points="-4,4 -4,-632 441,-632 441,4 -4,4"/>
<!-- Projects -->
<g id="node1" class="node">
<title>Projects</title>
<g id="a_node1"><a xlink:href="/Knowledge/Projects.html" xlink:title="Projects" target="_parent">
<path fill="#273434" stroke="#b75867" d="M50,-332C50,-332 12,-332 12,-332 6,-332 0,-326 0,-320 0,-320 0,-308 0,-308 0,-302 6,-296 12,-296 12,-296 50,-296 50,-296 56,-296 62,-302 62,-308 62,-308 62,-320 62,-320 62,-326 56,-332 50,-332"/>
<text text-anchor="middle" x="31" y="-310.9" font-family="sans" font-size="12.00" fill="#c4c7c7">Projects</text>
</a>
</g>
</g>
<!-- pulsebinder -->
<g id="node2" class="node">
<title>pulsebinder</title>
<g id="a_node2"><a xlink:href="/Knowledge/pulsebinder.html" xlink:title="pulsebinder" target="_parent">
<path fill="#273434" stroke="#b75867" d="M158.5,-406C158.5,-406 98.5,-406 98.5,-406 92.5,-406 86.5,-400 86.5,-394 86.5,-394 86.5,-382 86.5,-382 86.5,-376 92.5,-370 98.5,-370 98.5,-370 158.5,-370 158.5,-370 164.5,-370 170.5,-376 170.5,-382 170.5,-382 170.5,-394 170.5,-394 170.5,-400 164.5,-406 158.5,-406"/>
<text text-anchor="middle" x="128.5" y="-384.9" font-family="sans" font-size="12.00" fill="#c4c7c7">pulsebinder</text>
</a>
</g>
</g>
<!-- Projects&#45;&gt;pulsebinder -->
<g id="edge1" class="edge">
<title>Projects&#45;&gt;pulsebinder</title>
<path fill="none" stroke="#b75867" d="M41.86,-332.47C48.54,-343.49 58.27,-357.04 70,-366 72.31,-367.76 74.78,-369.4 77.34,-370.92"/>
<polygon fill="#b75867" stroke="#b75867" points="75.87,-374.1 86.36,-375.63 79.11,-367.9 75.87,-374.1"/>
</g>
<!-- kaltemplate -->
<g id="node3" class="node">
<title>kaltemplate</title>
<g id="a_node3"><a xlink:href="/Knowledge/kaltemplate.html" xlink:title="kaltemplate" target="_parent">
<path fill="#273434" stroke="#b75867" d="M159.5,-369C159.5,-369 97.5,-369 97.5,-369 91.5,-369 85.5,-363 85.5,-357 85.5,-357 85.5,-345 85.5,-345 85.5,-339 91.5,-333 97.5,-333 97.5,-333 159.5,-333 159.5,-333 165.5,-333 171.5,-339 171.5,-345 171.5,-345 171.5,-357 171.5,-357 171.5,-363 165.5,-369 159.5,-369"/>
<text text-anchor="middle" x="128.5" y="-347.9" font-family="sans" font-size="12.00" fill="#c4c7c7">kaltemplate</text>
</a>
</g>
</g>
<!-- Projects&#45;&gt;kaltemplate -->
<g id="edge2" class="edge">
<title>Projects&#45;&gt;kaltemplate</title>
<path fill="none" stroke="#b75867" d="M62.27,-325.98C64.88,-327.01 67.49,-328.02 70,-329 71.87,-329.73 73.77,-330.46 75.69,-331.21"/>
<polygon fill="#b75867" stroke="#b75867" points="74.81,-334.62 85.4,-334.95 77.33,-328.09 74.81,-334.62"/>
</g>
<!-- kaltask -->
<g id="node4" class="node">
<title>kaltask</title>
<g id="a_node4"><a xlink:href="/Knowledge/kaltask.html" xlink:title="kaltask" target="_parent">
<path fill="#273434" stroke="#b75867" d="M145,-332C145,-332 112,-332 112,-332 106,-332 100,-326 100,-320 100,-320 100,-308 100,-308 100,-302 106,-296 112,-296 112,-296 145,-296 145,-296 151,-296 157,-302 157,-308 157,-308 157,-320 157,-320 157,-326 151,-332 145,-332"/>
<text text-anchor="middle" x="128.5" y="-310.9" font-family="sans" font-size="12.00" fill="#c4c7c7">kaltask</text>
</a>
</g>
</g>
<!-- Projects&#45;&gt;kaltask -->
<g id="edge3" class="edge">
<title>Projects&#45;&gt;kaltask</title>
<path fill="none" stroke="#b75867" d="M62.22,-314C70.95,-314 80.6,-314 89.73,-314"/>
<polygon fill="#b75867" stroke="#b75867" points="89.75,-317.5 99.75,-314 89.75,-310.5 89.75,-317.5"/>
</g>
<!-- Knowledege Base -->
<g id="node5" class="node">
<title>Knowledege Base</title>
<g id="a_node5"><a xlink:href="/Knowledge/Knowledege Base.html" xlink:title="Knowledege Base" target="_parent">
<path fill="#273434" stroke="#b75867" d="M175,-295C175,-295 82,-295 82,-295 76,-295 70,-289 70,-283 70,-283 70,-271 70,-271 70,-265 76,-259 82,-259 82,-259 175,-259 175,-259 181,-259 187,-265 187,-271 187,-271 187,-283 187,-283 187,-289 181,-295 175,-295"/>
<text text-anchor="middle" x="128.5" y="-273.9" font-family="sans" font-size="12.00" fill="#c4c7c7">Knowledege Base</text>
</a>
</g>
</g>
<!-- Projects&#45;&gt;Knowledege Base -->
<g id="edge4" class="edge">
<title>Projects&#45;&gt;Knowledege Base</title>
<path fill="none" stroke="#b75867" d="M62.27,-302.02C64.88,-300.99 67.49,-299.98 70,-299 70.21,-298.92 70.41,-298.84 70.62,-298.76"/>
<polygon fill="#b75867" stroke="#b75867" points="72.04,-301.96 80.1,-295.09 69.51,-295.43 72.04,-301.96"/>
</g>
<!-- Bad Habit -->
<g id="node6" class="node">
<title>Bad Habit</title>
<g id="a_node6"><a xlink:href="/Knowledge/Bad Habit.html" xlink:title="Bad Habit" target="_parent">
<path fill="none" stroke="#b75867" d="M153,-258C153,-258 104,-258 104,-258 98,-258 92,-252 92,-246 92,-246 92,-234 92,-234 92,-228 98,-222 104,-222 104,-222 153,-222 153,-222 159,-222 165,-228 165,-234 165,-234 165,-246 165,-246 165,-252 159,-258 153,-258"/>
<text text-anchor="middle" x="128.5" y="-236.9" font-family="sans" font-size="12.00" fill="#c4c7c7">Bad Habit</text>
</a>
</g>
</g>
<!-- Projects&#45;&gt;Bad Habit -->
<g id="edge5" class="edge">
<title>Projects&#45;&gt;Bad Habit</title>
<path fill="none" stroke="#ffffff" d="M47.42,-286.9C53.53,-278.02 61.2,-268.72 70,-262 76.45,-257.07 84.14,-253.12 91.77,-250.02"/>
<polygon fill="#ffffff" stroke="#ffffff" points="44.34,-285.23 41.86,-295.53 50.22,-289.02 44.34,-285.23"/>
</g>
<!-- pulsebinder&#45;&gt;Projects -->
<g id="edge6" class="edge">
<title>pulsebinder&#45;&gt;Projects</title>
<path fill="none" stroke="#ffffff" d="M77.34,-371.92C74.78,-370.4 72.31,-368.76 70,-367 57.92,-357.77 47.95,-343.67 41.26,-332.33"/>
<polygon fill="#ffffff" stroke="#ffffff" points="75.87,-375.1 86.36,-376.62 79.11,-368.89 75.87,-375.1"/>
</g>
<!-- kaltemplate&#45;&gt;Projects -->
<g id="edge7" class="edge">
<title>kaltemplate&#45;&gt;Projects</title>
<path fill="none" stroke="#ffffff" d="M75.69,-332.21C73.77,-331.46 71.87,-330.73 70,-330 67.49,-329.02 64.88,-328.01 62.27,-326.98"/>
<polygon fill="#ffffff" stroke="#ffffff" points="74.81,-335.62 85.4,-335.94 77.32,-329.08 74.81,-335.62"/>
</g>
<!-- kaltask&#45;&gt;Projects -->
<g id="edge8" class="edge">
<title>kaltask&#45;&gt;Projects</title>
<path fill="none" stroke="#ffffff" d="M89.73,-314.74C80.6,-314.76 70.95,-314.75 62.22,-314.7"/>
<polygon fill="#ffffff" stroke="#ffffff" points="89.77,-318.24 99.75,-314.69 89.73,-311.24 89.77,-318.24"/>
</g>
<!-- Knowledege Base&#45;&gt;Projects -->
<g id="edge27" class="edge">
<title>Knowledege Base&#45;&gt;Projects</title>
<path fill="none" stroke="#ffffff" d="M73.57,-298.62C72.37,-299.08 71.18,-299.54 70,-300 67.49,-300.98 64.88,-301.99 62.27,-303.01"/>
<polygon fill="#ffffff" stroke="#ffffff" points="74.84,-301.88 82.91,-295 72.32,-295.35 74.84,-301.88"/>
</g>
<!-- Computer Architectures -->
<g id="node7" class="node">
<title>Computer Architectures</title>
<g id="a_node7"><a xlink:href="/Knowledge/Computer Architectures.html" xlink:title="Computer Architectures" target="_parent">
<path fill="#273434" stroke="#b75867" d="M379.5,-628C379.5,-628 252.5,-628 252.5,-628 246.5,-628 240.5,-622 240.5,-616 240.5,-616 240.5,-604 240.5,-604 240.5,-598 246.5,-592 252.5,-592 252.5,-592 379.5,-592 379.5,-592 385.5,-592 391.5,-598 391.5,-604 391.5,-604 391.5,-616 391.5,-616 391.5,-622 385.5,-628 379.5,-628"/>
<text text-anchor="middle" x="316" y="-606.9" font-family="sans" font-size="12.00" fill="#c4c7c7">Computer Architectures</text>
</a>
</g>
</g>
<!-- Knowledege Base&#45;&gt;Computer Architectures -->
<g id="edge9" class="edge">
<title>Knowledege Base&#45;&gt;Computer Architectures</title>
<path fill="none" stroke="#b75867" d="M183.75,-295.07C184.92,-296.3 186.01,-297.6 187,-299 205.57,-325.21 174.1,-563.61 195,-588 204.21,-598.74 216.78,-605.38 230.33,-609.31"/>
<polygon fill="#b75867" stroke="#b75867" points="229.79,-612.79 240.34,-611.73 231.43,-605.98 229.79,-612.79"/>
</g>
<!-- Numeric Methods -->
<g id="node8" class="node">
<title>Numeric Methods</title>
<g id="a_node8"><a xlink:href="/Knowledge/Numeric Methods.html" xlink:title="Numeric Methods" target="_parent">
<path fill="#273434" stroke="#b75867" d="M362,-591C362,-591 270,-591 270,-591 264,-591 258,-585 258,-579 258,-579 258,-567 258,-567 258,-561 264,-555 270,-555 270,-555 362,-555 362,-555 368,-555 374,-561 374,-567 374,-567 374,-579 374,-579 374,-585 368,-591 362,-591"/>
<text text-anchor="middle" x="316" y="-569.9" font-family="sans" font-size="12.00" fill="#c4c7c7">Numeric Methods</text>
</a>
</g>
</g>
<!-- Knowledege Base&#45;&gt;Numeric Methods -->
<g id="edge10" class="edge">
<title>Knowledege Base&#45;&gt;Numeric Methods</title>
<path fill="none" stroke="#b75867" d="M183.74,-295.08C184.92,-296.3 186.01,-297.61 187,-299 203.24,-321.82 176.73,-529.77 195,-551 208.12,-566.24 228.02,-573.21 247.86,-575.93"/>
<polygon fill="#b75867" stroke="#b75867" points="247.57,-579.42 257.88,-576.97 248.29,-572.46 247.57,-579.42"/>
</g>
<!-- Design and Analysis of Algorithms -->
<g id="node9" class="node">
<title>Design and Analysis of Algorithms</title>
<g id="a_node9"><a xlink:href="/Knowledge/Design and Analysis of Algorithms.html" xlink:title="Design and Analysis of Algorithms" target="_parent">
<path fill="#273434" stroke="#b75867" d="M407,-554C407,-554 225,-554 225,-554 219,-554 213,-548 213,-542 213,-542 213,-530 213,-530 213,-524 219,-518 225,-518 225,-518 407,-518 407,-518 413,-518 419,-524 419,-530 419,-530 419,-542 419,-542 419,-548 413,-554 407,-554"/>
<text text-anchor="middle" x="316" y="-532.9" font-family="sans" font-size="12.00" fill="#c4c7c7">Design and Analysis of Algorithms</text>
</a>
</g>
</g>
<!-- Knowledege Base&#45;&gt;Design and Analysis of Algorithms -->
<g id="edge11" class="edge">
<title>Knowledege Base&#45;&gt;Design and Analysis of Algorithms</title>
<path fill="none" stroke="#b75867" d="M183.73,-295.09C184.91,-296.31 186,-297.61 187,-299 200.91,-318.44 179.36,-495.92 195,-514 197.77,-517.2 200.83,-520.03 204.13,-522.53"/>
<polygon fill="#b75867" stroke="#b75867" points="202.48,-525.63 212.78,-528.11 206.27,-519.75 202.48,-525.63"/>
</g>
<!-- Logic Programming -->
<g id="node10" class="node">
<title>Logic Programming</title>
<g id="a_node10"><a xlink:href="/Knowledge/Logic Programming.html" xlink:title="Logic Programming" target="_parent">
<path fill="#273434" stroke="#b75867" d="M367,-517C367,-517 265,-517 265,-517 259,-517 253,-511 253,-505 253,-505 253,-493 253,-493 253,-487 259,-481 265,-481 265,-481 367,-481 367,-481 373,-481 379,-487 379,-493 379,-493 379,-505 379,-505 379,-511 373,-517 367,-517"/>
<text text-anchor="middle" x="316" y="-495.9" font-family="sans" font-size="12.00" fill="#c4c7c7">Logic Programming</text>
</a>
</g>
</g>
<!-- Knowledege Base&#45;&gt;Logic Programming -->
<g id="edge12" class="edge">
<title>Knowledege Base&#45;&gt;Logic Programming</title>
<path fill="none" stroke="#b75867" d="M183.72,-295.1C184.9,-296.31 186,-297.61 187,-299 198.59,-315.05 181.99,-462.08 195,-477 207.04,-490.81 224.64,-497.79 242.67,-501"/>
<polygon fill="#b75867" stroke="#b75867" points="242.31,-504.48 252.7,-502.4 243.28,-497.55 242.31,-504.48"/>
</g>
<!-- Data Structures -->
<g id="node11" class="node">
<title>Data Structures</title>
<g id="a_node11"><a xlink:href="/Knowledge/Data Structures.html" xlink:title="Data Structures" target="_parent">
<path fill="#273434" stroke="#b75867" d="M356,-480C356,-480 276,-480 276,-480 270,-480 264,-474 264,-468 264,-468 264,-456 264,-456 264,-450 270,-444 276,-444 276,-444 356,-444 356,-444 362,-444 368,-450 368,-456 368,-456 368,-468 368,-468 368,-474 362,-480 356,-480"/>
<text text-anchor="middle" x="316" y="-458.9" font-family="sans" font-size="12.00" fill="#c4c7c7">Data Structures</text>
</a>
</g>
</g>
<!-- Knowledege Base&#45;&gt;Data Structures -->
<g id="edge13" class="edge">
<title>Knowledege Base&#45;&gt;Data Structures</title>
<path fill="none" stroke="#b75867" d="M183.69,-295.11C184.88,-296.33 185.99,-297.62 187,-299 205.52,-324.34 174.23,-416.47 195,-440 209.58,-456.52 232.12,-463.25 253.75,-465.41"/>
<polygon fill="#b75867" stroke="#b75867" points="253.71,-468.92 263.93,-466.12 254.19,-461.93 253.71,-468.92"/>
</g>
<!-- Languages, Automata and Computation -->
<g id="node12" class="node">
<title>Languages, Automata and Computation</title>
<g id="a_node12"><a xlink:href="/Knowledge/Languages, Automata and Computation.html" xlink:title="Languages, Automata and Computation" target="_parent">
<path fill="#273434" stroke="#b75867" d="M425,-443C425,-443 207,-443 207,-443 201,-443 195,-437 195,-431 195,-431 195,-419 195,-419 195,-413 201,-407 207,-407 207,-407 425,-407 425,-407 431,-407 437,-413 437,-419 437,-419 437,-431 437,-431 437,-437 431,-443 425,-443"/>
<text text-anchor="middle" x="316" y="-421.9" font-family="sans" font-size="12.00" fill="#c4c7c7">Languages, Automata and Computation</text>
</a>
</g>
</g>
<!-- Knowledege Base&#45;&gt;Languages, Automata and Computation -->
<g id="edge14" class="edge">
<title>Knowledege Base&#45;&gt;Languages, Automata and Computation</title>
<path fill="none" stroke="#b75867" d="M183.66,-295.14C184.86,-296.34 185.98,-297.63 187,-299 199.29,-315.47 183.88,-370.96 193.51,-397.85"/>
<polygon fill="#b75867" stroke="#b75867" points="190.52,-399.68 198.54,-406.61 196.6,-396.19 190.52,-399.68"/>
</g>
<!-- Operations Research -->
<g id="node13" class="node">
<title>Operations Research</title>
<g id="a_node13"><a xlink:href="/Knowledge/Operations Research.html" xlink:title="Operations Research" target="_parent">
<path fill="#273434" stroke="#b75867" d="M370.5,-406C370.5,-406 261.5,-406 261.5,-406 255.5,-406 249.5,-400 249.5,-394 249.5,-394 249.5,-382 249.5,-382 249.5,-376 255.5,-370 261.5,-370 261.5,-370 370.5,-370 370.5,-370 376.5,-370 382.5,-376 382.5,-382 382.5,-382 382.5,-394 382.5,-394 382.5,-400 376.5,-406 370.5,-406"/>
<text text-anchor="middle" x="316" y="-384.9" font-family="sans" font-size="12.00" fill="#c4c7c7">Operations Research</text>
</a>
</g>
</g>
<!-- Knowledege Base&#45;&gt;Operations Research -->
<g id="edge15" class="edge">
<title>Knowledege Base&#45;&gt;Operations Research</title>
<path fill="none" stroke="#b75867" d="M183.58,-295.2C184.8,-296.39 185.95,-297.65 187,-299 205.44,-322.65 174.47,-344.14 195,-366 206.53,-378.27 222.47,-385.04 238.97,-388.55"/>
<polygon fill="#b75867" stroke="#b75867" points="238.83,-392.08 249.28,-390.33 240.02,-385.18 238.83,-392.08"/>
</g>
<!-- Differential Equations -->
<g id="node14" class="node">
<title>Differential Equations</title>
<g id="a_node14"><a xlink:href="/Knowledge/Differential Equations.html" xlink:title="Differential Equations" target="_parent">
<path fill="#273434" stroke="#b75867" d="M373,-369C373,-369 259,-369 259,-369 253,-369 247,-363 247,-357 247,-357 247,-345 247,-345 247,-339 253,-333 259,-333 259,-333 373,-333 373,-333 379,-333 385,-339 385,-345 385,-345 385,-357 385,-357 385,-363 379,-369 373,-369"/>
<text text-anchor="middle" x="316" y="-347.9" font-family="sans" font-size="12.00" fill="#c4c7c7">Differential Equations</text>
</a>
</g>
</g>
<!-- Knowledege Base&#45;&gt;Differential Equations -->
<g id="edge16" class="edge">
<title>Knowledege Base&#45;&gt;Differential Equations</title>
<path fill="none" stroke="#b75867" d="M183.34,-295.4C184.63,-296.53 185.86,-297.73 187,-299 196.23,-309.26 184.86,-319.64 195,-329 206.49,-339.61 221.33,-345.93 236.63,-349.55"/>
<polygon fill="#b75867" stroke="#b75867" points="236.24,-353.04 246.73,-351.56 237.6,-346.18 236.24,-353.04"/>
</g>
<!-- OOP -->
<g id="node15" class="node">
<title>OOP</title>
<g id="a_node15"><a xlink:href="/Knowledge/OOP.html" xlink:title="OOP" target="_parent">
<path fill="#273434" stroke="#b75867" d="M331,-332C331,-332 301,-332 301,-332 295,-332 289,-326 289,-320 289,-320 289,-308 289,-308 289,-302 295,-296 301,-296 301,-296 331,-296 331,-296 337,-296 343,-302 343,-308 343,-308 343,-320 343,-320 343,-326 337,-332 331,-332"/>
<text text-anchor="middle" x="316" y="-310.9" font-family="sans" font-size="12.00" fill="#c4c7c7">OOP</text>
</a>
</g>
</g>
<!-- Knowledege Base&#45;&gt;OOP -->
<g id="edge17" class="edge">
<title>Knowledege Base&#45;&gt;OOP</title>
<path fill="none" stroke="#b75867" d="M187.33,-290.39C189.92,-290.94 192.49,-291.48 195,-292 223.01,-297.77 254.85,-303.58 278.7,-307.77"/>
<polygon fill="#b75867" stroke="#b75867" points="278.26,-311.25 288.72,-309.52 279.47,-304.35 278.26,-311.25"/>
</g>
<!-- Discrete Structures -->
<g id="node16" class="node">
<title>Discrete Structures</title>
<g id="a_node16"><a xlink:href="/Knowledge/Discrete Structures.html" xlink:title="Discrete Structures" target="_parent">
<path fill="#273434" stroke="#b75867" d="M365,-295C365,-295 267,-295 267,-295 261,-295 255,-289 255,-283 255,-283 255,-271 255,-271 255,-265 261,-259 267,-259 267,-259 365,-259 365,-259 371,-259 377,-265 377,-271 377,-271 377,-283 377,-283 377,-289 371,-295 365,-295"/>
<text text-anchor="middle" x="316" y="-273.9" font-family="sans" font-size="12.00" fill="#c4c7c7">Discrete Structures</text>
</a>
</g>
</g>
<!-- Knowledege Base&#45;&gt;Discrete Structures -->
<g id="edge18" class="edge">
<title>Knowledege Base&#45;&gt;Discrete Structures</title>
<path fill="none" stroke="#b75867" d="M187.18,-277C205.39,-277 225.71,-277 244.7,-277"/>
<polygon fill="#b75867" stroke="#b75867" points="244.79,-280.5 254.79,-277 244.79,-273.5 244.79,-280.5"/>
</g>
<!-- Advanced Algebra -->
<g id="node17" class="node">
<title>Advanced Algebra</title>
<g id="a_node17"><a xlink:href="/Knowledge/Advanced Algebra.html" xlink:title="Advanced Algebra" target="_parent">
<path fill="#273434" stroke="#b75867" d="M363.5,-258C363.5,-258 268.5,-258 268.5,-258 262.5,-258 256.5,-252 256.5,-246 256.5,-246 256.5,-234 256.5,-234 256.5,-228 262.5,-222 268.5,-222 268.5,-222 363.5,-222 363.5,-222 369.5,-222 375.5,-228 375.5,-234 375.5,-234 375.5,-246 375.5,-246 375.5,-252 369.5,-258 363.5,-258"/>
<text text-anchor="middle" x="316" y="-236.9" font-family="sans" font-size="12.00" fill="#c4c7c7">Advanced Algebra</text>
</a>
</g>
</g>
<!-- Knowledege Base&#45;&gt;Advanced Algebra -->
<g id="edge19" class="edge">
<title>Knowledege Base&#45;&gt;Advanced Algebra</title>
<path fill="none" stroke="#b75867" d="M187.33,-263.61C189.92,-263.06 192.49,-262.52 195,-262 211.49,-258.6 229.31,-255.19 246.05,-252.11"/>
<polygon fill="#b75867" stroke="#b75867" points="247.1,-255.47 256.31,-250.23 245.84,-248.59 247.1,-255.47"/>
</g>
<!-- Differential Analysis -->
<g id="node18" class="node">
<title>Differential Analysis</title>
<g id="a_node18"><a xlink:href="/Knowledge/Differential Analysis.html" xlink:title="Differential Analysis" target="_parent">
<path fill="#273434" stroke="#b75867" d="M367.5,-221C367.5,-221 264.5,-221 264.5,-221 258.5,-221 252.5,-215 252.5,-209 252.5,-209 252.5,-197 252.5,-197 252.5,-191 258.5,-185 264.5,-185 264.5,-185 367.5,-185 367.5,-185 373.5,-185 379.5,-191 379.5,-197 379.5,-197 379.5,-209 379.5,-209 379.5,-215 373.5,-221 367.5,-221"/>
<text text-anchor="middle" x="316" y="-199.9" font-family="sans" font-size="12.00" fill="#c4c7c7">Differential Analysis</text>
</a>
</g>
</g>
<!-- Knowledege Base&#45;&gt;Differential Analysis -->
<g id="edge20" class="edge">
<title>Knowledege Base&#45;&gt;Differential Analysis</title>
<path fill="none" stroke="#b75867" d="M183.34,-258.6C184.63,-257.47 185.86,-256.27 187,-255 196.23,-244.74 184.86,-234.36 195,-225 207.88,-213.11 224.97,-206.6 242.2,-203.25"/>
<polygon fill="#b75867" stroke="#b75867" points="243.02,-206.66 252.34,-201.62 241.91,-199.75 243.02,-206.66"/>
</g>
<!-- Knowledege Base&#45;&gt;Differential Analysis -->
<g id="edge24" class="edge">
<title>Knowledege Base&#45;&gt;Differential Analysis</title>
<path fill="none" stroke="#b75867" d="M184.29,-258.74C185.24,-257.87 186.14,-256.95 187,-256 196.23,-245.74 184.86,-235.36 195,-226 207.88,-214.11 224.97,-207.6 242.2,-204.21"/>
<polygon fill="#b75867" stroke="#b75867" points="243.03,-207.63 252.34,-202.56 241.91,-200.72 243.03,-207.63"/>
</g>
<!-- Introduction to programming -->
<g id="node19" class="node">
<title>Introduction to programming</title>
<g id="a_node19"><a xlink:href="/Knowledge/Introduction to programming.html" xlink:title="Introduction to programming" target="_parent">
<path fill="#273434" stroke="#b75867" d="M395.5,-184C395.5,-184 236.5,-184 236.5,-184 230.5,-184 224.5,-178 224.5,-172 224.5,-172 224.5,-160 224.5,-160 224.5,-154 230.5,-148 236.5,-148 236.5,-148 395.5,-148 395.5,-148 401.5,-148 407.5,-154 407.5,-160 407.5,-160 407.5,-172 407.5,-172 407.5,-178 401.5,-184 395.5,-184"/>
<text text-anchor="middle" x="316" y="-162.9" font-family="sans" font-size="12.00" fill="#c4c7c7">Introduction to programming</text>
</a>
</g>
</g>
<!-- Knowledege Base&#45;&gt;Introduction to programming -->
<g id="edge21" class="edge">
<title>Knowledege Base&#45;&gt;Introduction to programming</title>
<path fill="none" stroke="#b75867" d="M183.58,-258.8C184.8,-257.61 185.95,-256.35 187,-255 205.44,-231.35 174.47,-209.86 195,-188 200.66,-181.98 207.38,-177.28 214.71,-173.64"/>
<polygon fill="#b75867" stroke="#b75867" points="216.45,-176.71 224.29,-169.58 213.71,-170.26 216.45,-176.71"/>
</g>
<!-- Analytic Geometry -->
<g id="node20" class="node">
<title>Analytic Geometry</title>
<g id="a_node20"><a xlink:href="/Knowledge/Analytic Geometry.html" xlink:title="Analytic Geometry" target="_parent">
<path fill="#273434" stroke="#b75867" d="M364.5,-147C364.5,-147 267.5,-147 267.5,-147 261.5,-147 255.5,-141 255.5,-135 255.5,-135 255.5,-123 255.5,-123 255.5,-117 261.5,-111 267.5,-111 267.5,-111 364.5,-111 364.5,-111 370.5,-111 376.5,-117 376.5,-123 376.5,-123 376.5,-135 376.5,-135 376.5,-141 370.5,-147 364.5,-147"/>
<text text-anchor="middle" x="316" y="-125.9" font-family="sans" font-size="12.00" fill="#c4c7c7">Analytic Geometry</text>
</a>
</g>
</g>
<!-- Knowledege Base&#45;&gt;Analytic Geometry -->
<g id="edge22" class="edge">
<title>Knowledege Base&#45;&gt;Analytic Geometry</title>
<path fill="none" stroke="#b75867" d="M183.66,-258.86C184.86,-257.66 185.98,-256.37 187,-255 200.86,-236.42 179.49,-168.22 195,-151 207.8,-136.79 226.49,-129.87 245.33,-126.86"/>
<polygon fill="#b75867" stroke="#b75867" points="245.98,-130.31 255.47,-125.6 245.11,-123.36 245.98,-130.31"/>
</g>
<!-- Linear Algebra -->
<g id="node21" class="node">
<title>Linear Algebra</title>
<g id="a_node21"><a xlink:href="/Knowledge/Linear Algebra.html" xlink:title="Linear Algebra" target="_parent">
<path fill="#273434" stroke="#b75867" d="M353,-110C353,-110 279,-110 279,-110 273,-110 267,-104 267,-98 267,-98 267,-86 267,-86 267,-80 273,-74 279,-74 279,-74 353,-74 353,-74 359,-74 365,-80 365,-86 365,-86 365,-98 365,-98 365,-104 359,-110 353,-110"/>
<text text-anchor="middle" x="316" y="-88.9" font-family="sans" font-size="12.00" fill="#c4c7c7">Linear Algebra</text>
</a>
</g>
</g>
<!-- Knowledege Base&#45;&gt;Linear Algebra -->
<g id="edge23" class="edge">
<title>Knowledege Base&#45;&gt;Linear Algebra</title>
<path fill="none" stroke="#b75867" d="M183.69,-258.89C184.88,-257.67 185.99,-256.38 187,-255 205.52,-229.66 174.23,-137.53 195,-114 210.25,-96.72 234.22,-90.15 256.75,-88.32"/>
<polygon fill="#b75867" stroke="#b75867" points="257.15,-91.8 266.95,-87.78 256.79,-84.81 257.15,-91.8"/>
</g>
<!-- Org Roam -->
<g id="node22" class="node">
<title>Org Roam</title>
<g id="a_node22"><a xlink:href="/Knowledge/Org Roam.html" xlink:title="Org Roam" target="_parent">
<path fill="#273434" stroke="#b75867" d="M340,-36C340,-36 292,-36 292,-36 286,-36 280,-30 280,-24 280,-24 280,-12 280,-12 280,-6 286,0 292,0 292,0 340,0 340,0 346,0 352,-6 352,-12 352,-12 352,-24 352,-24 352,-30 346,-36 340,-36"/>
<text text-anchor="middle" x="316" y="-14.9" font-family="sans" font-size="12.00" fill="#c4c7c7">Org Roam</text>
</a>
</g>
</g>
<!-- Knowledege Base&#45;&gt;Org Roam -->
<g id="edge25" class="edge">
<title>Knowledege Base&#45;&gt;Org Roam</title>
<path fill="none" stroke="#b75867" d="M183.73,-258.91C184.91,-257.69 186,-256.39 187,-255 200.91,-235.56 179.36,-58.08 195,-40 213.11,-19.07 243.99,-13.78 269.89,-13.61"/>
<polygon fill="#b75867" stroke="#b75867" points="269.84,-17.11 279.9,-13.79 269.96,-10.11 269.84,-17.11"/>
</g>
<!-- Org&#45;mode -->
<g id="node23" class="node">
<title>Org&#45;mode</title>
<g id="a_node23"><a xlink:href="/Knowledge/Org-mode.html" xlink:title="Org&#45;mode" target="_parent">
<path fill="#273434" stroke="#b75867" d="M341,-73C341,-73 291,-73 291,-73 285,-73 279,-67 279,-61 279,-61 279,-49 279,-49 279,-43 285,-37 291,-37 291,-37 341,-37 341,-37 347,-37 353,-43 353,-49 353,-49 353,-61 353,-61 353,-67 347,-73 341,-73"/>
<text text-anchor="middle" x="316" y="-51.9" font-family="sans" font-size="12.00" fill="#c4c7c7">Org&#45;mode</text>
</a>
</g>
</g>
<!-- Knowledege Base&#45;&gt;Org&#45;mode -->
<g id="edge26" class="edge">
<title>Knowledege Base&#45;&gt;Org&#45;mode</title>
<path fill="none" stroke="#b75867" d="M183.72,-258.9C184.9,-257.69 186,-256.39 187,-255 198.59,-238.95 181.99,-91.92 195,-77 212.86,-56.52 242.97,-51.04 268.56,-50.67"/>
<polygon fill="#b75867" stroke="#b75867" points="268.79,-54.18 278.83,-50.79 268.87,-47.18 268.79,-54.18"/>
</g>
<!-- Bad Habit&#45;&gt;Projects -->
<g id="edge28" class="edge">
<title>Bad Habit&#45;&gt;Projects</title>
<path fill="none" stroke="#b75867" d="M91.77,-250.99C84.14,-254.12 76.45,-258.07 70,-263 61.34,-269.62 53.76,-278.74 47.7,-287.44"/>
<polygon fill="#b75867" stroke="#b75867" points="44.72,-285.61 42.16,-295.89 50.57,-289.45 44.72,-285.61"/>
</g>
<!-- Bad Habit&#45;&gt;Org Roam -->
<g id="edge29" class="edge">
<title>Bad Habit&#45;&gt;Org Roam</title>
<path fill="none" stroke="#b75867" d="M129.65,-221.78C131.03,-182.15 140.23,-87.82 195,-40 215.24,-22.32 244.89,-16.77 269.66,-15.65"/>
<polygon fill="#b75867" stroke="#b75867" points="270.01,-19.15 279.93,-15.43 269.86,-12.15 270.01,-19.15"/>
</g>
</g>
</svg>
