<?xml version="1.0" encoding="UTF-8" standalone="no"?>
<!DOCTYPE svg PUBLIC "-//W3C//DTD SVG 1.1//EN"
 "http://www.w3.org/Graphics/SVG/1.1/DTD/svg11.dtd">
<!-- Generated by graphviz version 2.46.1 (0)
 -->
<!-- Title: Projects Pages: 1 -->
<svg width="397pt" height="636pt"
 viewBox="0.00 0.00 397.00 636.00" xmlns="http://www.w3.org/2000/svg" xmlns:xlink="http://www.w3.org/1999/xlink">
<g id="graph0" class="graph" transform="scale(1 1) rotate(0) translate(4 632)">
<title>Projects</title>
<polygon fill="#132020" stroke="transparent" points="-4,4 -4,-632 393,-632 393,4 -4,4"/>
<!-- Projects -->
<g id="node1" class="node">
<title>Projects</title>
<g id="a_node1"><a xlink:href="/Knowledge/projects.html" xlink:title="Projects" target="_parent">
<path fill="#273434" stroke="#b75867" d="M45,-332C45,-332 12,-332 12,-332 6,-332 0,-326 0,-320 0,-320 0,-308 0,-308 0,-302 6,-296 12,-296 12,-296 45,-296 45,-296 51,-296 57,-302 57,-308 57,-308 57,-320 57,-320 57,-326 51,-332 45,-332"/>
<text text-anchor="middle" x="28.5" y="-310.9" font-family="sans" font-size="12.00" fill="#c4c7c7">Projects</text>
</a>
</g>
</g>
<!-- pulsebinder -->
<g id="node2" class="node">
<title>pulsebinder</title>
<g id="a_node2"><a xlink:href="/Knowledge/pulsebinder.html" xlink:title="pulsebinder" target="_parent">
<path fill="#273434" stroke="#b75867" d="M141.5,-406C141.5,-406 87.5,-406 87.5,-406 81.5,-406 75.5,-400 75.5,-394 75.5,-394 75.5,-382 75.5,-382 75.5,-376 81.5,-370 87.5,-370 87.5,-370 141.5,-370 141.5,-370 147.5,-370 153.5,-376 153.5,-382 153.5,-382 153.5,-394 153.5,-394 153.5,-400 147.5,-406 141.5,-406"/>
<text text-anchor="middle" x="114.5" y="-384.9" font-family="sans" font-size="12.00" fill="#c4c7c7">pulsebinder</text>
</a>
</g>
</g>
<!-- Projects&#45;&gt;pulsebinder -->
<g id="edge1" class="edge">
<title>Projects&#45;&gt;pulsebinder</title>
<path fill="none" stroke="#b75867" d="M38.64,-332.25C44.86,-343.18 53.95,-356.72 65,-366 65.58,-366.49 66.18,-366.97 66.79,-367.45"/>
<polygon fill="#b75867" stroke="#b75867" points="64.96,-370.44 75.21,-373.11 68.87,-364.63 64.96,-370.44"/>
</g>
<!-- kaltemplate -->
<g id="node3" class="node">
<title>kaltemplate</title>
<g id="a_node3"><a xlink:href="/Knowledge/kaltemplate.html" xlink:title="kaltemplate" target="_parent">
<path fill="#273434" stroke="#b75867" d="M141,-369C141,-369 88,-369 88,-369 82,-369 76,-363 76,-357 76,-357 76,-345 76,-345 76,-339 82,-333 88,-333 88,-333 141,-333 141,-333 147,-333 153,-339 153,-345 153,-345 153,-357 153,-357 153,-363 147,-369 141,-369"/>
<text text-anchor="middle" x="114.5" y="-347.9" font-family="sans" font-size="12.00" fill="#c4c7c7">kaltemplate</text>
</a>
</g>
</g>
<!-- Projects&#45;&gt;kaltemplate -->
<g id="edge2" class="edge">
<title>Projects&#45;&gt;kaltemplate</title>
<path fill="none" stroke="#b75867" d="M57,-326.12C60.11,-327.48 63.34,-328.91 66.61,-330.35"/>
<polygon fill="#b75867" stroke="#b75867" points="65.3,-333.59 75.86,-334.42 68.12,-327.19 65.3,-333.59"/>
</g>
<!-- kaltask -->
<g id="node4" class="node">
<title>kaltask</title>
<g id="a_node4"><a xlink:href="/Knowledge/kaltask.html" xlink:title="kaltask" target="_parent">
<path fill="#273434" stroke="#b75867" d="M129.5,-332C129.5,-332 99.5,-332 99.5,-332 93.5,-332 87.5,-326 87.5,-320 87.5,-320 87.5,-308 87.5,-308 87.5,-302 93.5,-296 99.5,-296 99.5,-296 129.5,-296 129.5,-296 135.5,-296 141.5,-302 141.5,-308 141.5,-308 141.5,-320 141.5,-320 141.5,-326 135.5,-332 129.5,-332"/>
<text text-anchor="middle" x="114.5" y="-310.9" font-family="sans" font-size="12.00" fill="#c4c7c7">kaltask</text>
</a>
</g>
</g>
<!-- Projects&#45;&gt;kaltask -->
<g id="edge3" class="edge">
<title>Projects&#45;&gt;kaltask</title>
<path fill="none" stroke="#b75867" d="M57,-314C63.41,-314 70.33,-314 77.05,-314"/>
<polygon fill="#b75867" stroke="#b75867" points="77.36,-317.5 87.36,-314 77.36,-310.5 77.36,-317.5"/>
</g>
<!-- Knowledge Base -->
<g id="node5" class="node">
<title>Knowledge Base</title>
<g id="a_node5"><a xlink:href="/Knowledge/knowledge_base.html" xlink:title="Knowledge Base" target="_parent">
<path fill="#273434" stroke="#b75867" d="M152,-295C152,-295 77,-295 77,-295 71,-295 65,-289 65,-283 65,-283 65,-271 65,-271 65,-265 71,-259 77,-259 77,-259 152,-259 152,-259 158,-259 164,-265 164,-271 164,-271 164,-283 164,-283 164,-289 158,-295 152,-295"/>
<text text-anchor="middle" x="114.5" y="-273.9" font-family="sans" font-size="12.00" fill="#c4c7c7">Knowledge Base</text>
</a>
</g>
</g>
<!-- Projects&#45;&gt;Knowledge Base -->
<g id="edge4" class="edge">
<title>Projects&#45;&gt;Knowledge Base</title>
<path fill="none" stroke="#b75867" d="M57,-301.88C59.03,-300.99 61.1,-300.08 63.2,-299.16"/>
<polygon fill="#b75867" stroke="#b75867" points="64.79,-302.28 72.53,-295.05 61.97,-295.87 64.79,-302.28"/>
</g>
<!-- Bad Habit -->
<g id="node6" class="node">
<title>Bad Habit</title>
<g id="a_node6"><a xlink:href="/Knowledge/bad_habit.html" xlink:title="Bad Habit" target="_parent">
<path fill="none" stroke="#b75867" d="M135,-258C135,-258 94,-258 94,-258 88,-258 82,-252 82,-246 82,-246 82,-234 82,-234 82,-228 88,-222 94,-222 94,-222 135,-222 135,-222 141,-222 147,-228 147,-234 147,-234 147,-246 147,-246 147,-252 141,-258 135,-258"/>
<text text-anchor="middle" x="114.5" y="-236.9" font-family="sans" font-size="12.00" fill="#c4c7c7">Bad Habit</text>
</a>
</g>
</g>
<!-- Projects&#45;&gt;Bad Habit -->
<g id="edge5" class="edge">
<title>Projects&#45;&gt;Bad Habit</title>
<path fill="none" stroke="#ffffff" d="M43.83,-287.17C49.53,-278.32 56.71,-268.96 65,-262 70.03,-257.78 75.99,-254.2 82,-251.25"/>
<polygon fill="#ffffff" stroke="#ffffff" points="40.82,-285.38 38.64,-295.75 46.81,-289 40.82,-285.38"/>
</g>
<!-- pulsebinder&#45;&gt;Projects -->
<g id="edge6" class="edge">
<title>pulsebinder&#45;&gt;Projects</title>
<path fill="none" stroke="#ffffff" d="M66.79,-368.45C66.18,-367.97 65.58,-367.49 65,-367 53.62,-357.44 44.31,-343.36 38.09,-332.11"/>
<polygon fill="#ffffff" stroke="#ffffff" points="64.96,-371.43 75.21,-374.11 68.86,-365.62 64.96,-371.43"/>
</g>
<!-- kaltemplate&#45;&gt;Projects -->
<g id="edge7" class="edge">
<title>kaltemplate&#45;&gt;Projects</title>
<path fill="none" stroke="#ffffff" d="M66.61,-331.09C63.34,-329.65 60.11,-328.21 57,-326.82"/>
<polygon fill="#ffffff" stroke="#ffffff" points="65.3,-334.34 75.86,-335.17 68.12,-327.93 65.3,-334.34"/>
</g>
<!-- kaltask&#45;&gt;Projects -->
<g id="edge8" class="edge">
<title>kaltask&#45;&gt;Projects</title>
<path fill="none" stroke="#ffffff" d="M77.05,-314.74C70.33,-314.76 63.41,-314.75 57,-314.71"/>
<polygon fill="#ffffff" stroke="#ffffff" points="77.38,-318.24 87.36,-314.7 77.35,-311.24 77.38,-318.24"/>
</g>
<!-- Knowledge Base&#45;&gt;Projects -->
<g id="edge27" class="edge">
<title>Knowledge Base&#45;&gt;Projects</title>
<path fill="none" stroke="#ffffff" d="M64.88,-299.16C62.2,-300.33 59.56,-301.48 57,-302.59"/>
<polygon fill="#ffffff" stroke="#ffffff" points="66.3,-302.36 74.05,-295.13 63.49,-295.95 66.3,-302.36"/>
</g>
<!-- Computer Architectures -->
<g id="node7" class="node">
<title>Computer Architectures</title>
<g id="a_node7"><a xlink:href="/Knowledge/computer_architectures.html" xlink:title="Computer Architectures" target="_parent">
<path fill="#273434" stroke="#b75867" d="M336.5,-628C336.5,-628 224.5,-628 224.5,-628 218.5,-628 212.5,-622 212.5,-616 212.5,-616 212.5,-604 212.5,-604 212.5,-598 218.5,-592 224.5,-592 224.5,-592 336.5,-592 336.5,-592 342.5,-592 348.5,-598 348.5,-604 348.5,-604 348.5,-616 348.5,-616 348.5,-622 342.5,-628 336.5,-628"/>
<text text-anchor="middle" x="280.5" y="-606.9" font-family="sans" font-size="12.00" fill="#c4c7c7">Computer Architectures</text>
</a>
</g>
</g>
<!-- Knowledge Base&#45;&gt;Computer Architectures -->
<g id="edge9" class="edge">
<title>Knowledge Base&#45;&gt;Computer Architectures</title>
<path fill="none" stroke="#b75867" d="M160.93,-295.09C162.05,-296.31 163.08,-297.61 164,-299 181.77,-325.76 151.35,-563.4 172,-588 179.89,-597.4 190.63,-603.47 202.27,-607.28"/>
<polygon fill="#b75867" stroke="#b75867" points="201.65,-610.74 212.22,-609.97 203.48,-603.98 201.65,-610.74"/>
</g>
<!-- Numeric Methods -->
<g id="node8" class="node">
<title>Numeric Methods</title>
<g id="a_node8"><a xlink:href="/Knowledge/numeric_methods.html" xlink:title="Numeric Methods" target="_parent">
<path fill="#273434" stroke="#b75867" d="M321.5,-591C321.5,-591 239.5,-591 239.5,-591 233.5,-591 227.5,-585 227.5,-579 227.5,-579 227.5,-567 227.5,-567 227.5,-561 233.5,-555 239.5,-555 239.5,-555 321.5,-555 321.5,-555 327.5,-555 333.5,-561 333.5,-567 333.5,-567 333.5,-579 333.5,-579 333.5,-585 327.5,-591 321.5,-591"/>
<text text-anchor="middle" x="280.5" y="-569.9" font-family="sans" font-size="12.00" fill="#c4c7c7">Numeric Methods</text>
</a>
</g>
</g>
<!-- Knowledge Base&#45;&gt;Numeric Methods -->
<g id="edge10" class="edge">
<title>Knowledge Base&#45;&gt;Numeric Methods</title>
<path fill="none" stroke="#b75867" d="M160.92,-295.1C162.04,-296.32 163.08,-297.62 164,-299 179.55,-322.3 153.95,-529.58 172,-551 183.24,-564.33 200.18,-570.94 217.32,-573.94"/>
<polygon fill="#b75867" stroke="#b75867" points="217.01,-577.43 227.39,-575.3 217.95,-570.49 217.01,-577.43"/>
</g>
<!-- Design and Analysis of Algorithms -->
<g id="node9" class="node">
<title>Design and Analysis of Algorithms</title>
<g id="a_node9"><a xlink:href="/Knowledge/design_and_analysis_of_algorithms.html" xlink:title="Design and Analysis of Algorithms" target="_parent">
<path fill="#273434" stroke="#b75867" d="M362,-554C362,-554 199,-554 199,-554 193,-554 187,-548 187,-542 187,-542 187,-530 187,-530 187,-524 193,-518 199,-518 199,-518 362,-518 362,-518 368,-518 374,-524 374,-530 374,-530 374,-542 374,-542 374,-548 368,-554 362,-554"/>
<text text-anchor="middle" x="280.5" y="-532.9" font-family="sans" font-size="12.00" fill="#c4c7c7">Design and Analysis of Algorithms</text>
</a>
</g>
</g>
<!-- Knowledge Base&#45;&gt;Design and Analysis of Algorithms -->
<g id="edge11" class="edge">
<title>Knowledge Base&#45;&gt;Design and Analysis of Algorithms</title>
<path fill="none" stroke="#b75867" d="M160.91,-295.11C162.04,-296.32 163.07,-297.62 164,-299 177.32,-318.85 156.54,-495.76 172,-514 173.96,-516.32 176.1,-518.43 178.38,-520.36"/>
<polygon fill="#b75867" stroke="#b75867" points="176.45,-523.28 186.63,-526.21 180.5,-517.57 176.45,-523.28"/>
</g>
<!-- Logic Programming -->
<g id="node10" class="node">
<title>Logic Programming</title>
<g id="a_node10"><a xlink:href="/Knowledge/logic_programming.html" xlink:title="Logic Programming" target="_parent">
<path fill="#273434" stroke="#b75867" d="M325.5,-517C325.5,-517 235.5,-517 235.5,-517 229.5,-517 223.5,-511 223.5,-505 223.5,-505 223.5,-493 223.5,-493 223.5,-487 229.5,-481 235.5,-481 235.5,-481 325.5,-481 325.5,-481 331.5,-481 337.5,-487 337.5,-493 337.5,-493 337.5,-505 337.5,-505 337.5,-511 331.5,-517 325.5,-517"/>
<text text-anchor="middle" x="280.5" y="-495.9" font-family="sans" font-size="12.00" fill="#c4c7c7">Logic Programming</text>
</a>
</g>
</g>
<!-- Knowledge Base&#45;&gt;Logic Programming -->
<g id="edge12" class="edge">
<title>Knowledge Base&#45;&gt;Logic Programming</title>
<path fill="none" stroke="#b75867" d="M160.9,-295.12C162.03,-296.33 163.07,-297.62 164,-299 175.1,-315.4 159.14,-461.95 172,-477 182.35,-489.12 197.42,-495.67 213.02,-498.99"/>
<polygon fill="#b75867" stroke="#b75867" points="212.85,-502.51 223.3,-500.73 214.03,-495.61 212.85,-502.51"/>
</g>
<!-- Data Structures -->
<g id="node11" class="node">
<title>Data Structures</title>
<g id="a_node11"><a xlink:href="/Knowledge/data_structures.html" xlink:title="Data Structures" target="_parent">
<path fill="#273434" stroke="#b75867" d="M315.5,-480C315.5,-480 245.5,-480 245.5,-480 239.5,-480 233.5,-474 233.5,-468 233.5,-468 233.5,-456 233.5,-456 233.5,-450 239.5,-444 245.5,-444 245.5,-444 315.5,-444 315.5,-444 321.5,-444 327.5,-450 327.5,-456 327.5,-456 327.5,-468 327.5,-468 327.5,-474 321.5,-480 315.5,-480"/>
<text text-anchor="middle" x="280.5" y="-458.9" font-family="sans" font-size="12.00" fill="#c4c7c7">Data Structures</text>
</a>
</g>
</g>
<!-- Knowledge Base&#45;&gt;Data Structures -->
<g id="edge13" class="edge">
<title>Knowledge Base&#45;&gt;Data Structures</title>
<path fill="none" stroke="#b75867" d="M160.87,-295.13C162.01,-296.34 163.06,-297.63 164,-299 181.74,-324.89 151.48,-416.26 172,-440 184.67,-454.66 204.25,-461.14 223.24,-463.63"/>
<polygon fill="#b75867" stroke="#b75867" points="223.08,-467.13 233.37,-464.61 223.76,-460.17 223.08,-467.13"/>
</g>
<!-- Languages, Automata and Computation -->
<g id="node12" class="node">
<title>Languages, Automata and Computation</title>
<g id="a_node12"><a xlink:href="/Knowledge/languages,_automata_and_computation.html" xlink:title="Languages, Automata and Computation" target="_parent">
<path fill="#273434" stroke="#b75867" d="M377,-443C377,-443 184,-443 184,-443 178,-443 172,-437 172,-431 172,-431 172,-419 172,-419 172,-413 178,-407 184,-407 184,-407 377,-407 377,-407 383,-407 389,-413 389,-419 389,-419 389,-431 389,-431 389,-437 383,-443 377,-443"/>
<text text-anchor="middle" x="280.5" y="-421.9" font-family="sans" font-size="12.00" fill="#c4c7c7">Languages, Automata and Computation</text>
</a>
</g>
</g>
<!-- Knowledge Base&#45;&gt;Languages, Automata and Computation -->
<g id="edge14" class="edge">
<title>Knowledge Base&#45;&gt;Languages, Automata and Computation</title>
<path fill="none" stroke="#b75867" d="M160.84,-295.15C161.99,-296.36 163.05,-297.64 164,-299 175.79,-315.84 160.9,-370.92 170.55,-397.86"/>
<polygon fill="#b75867" stroke="#b75867" points="167.57,-399.7 175.56,-406.67 173.66,-396.25 167.57,-399.7"/>
</g>
<!-- Operations Research -->
<g id="node13" class="node">
<title>Operations Research</title>
<g id="a_node13"><a xlink:href="/Knowledge/operations_research.html" xlink:title="Operations Research" target="_parent">
<path fill="#273434" stroke="#b75867" d="M329,-406C329,-406 232,-406 232,-406 226,-406 220,-400 220,-394 220,-394 220,-382 220,-382 220,-376 226,-370 232,-370 232,-370 329,-370 329,-370 335,-370 341,-376 341,-382 341,-382 341,-394 341,-394 341,-400 335,-406 329,-406"/>
<text text-anchor="middle" x="280.5" y="-384.9" font-family="sans" font-size="12.00" fill="#c4c7c7">Operations Research</text>
</a>
</g>
</g>
<!-- Knowledge Base&#45;&gt;Operations Research -->
<g id="edge15" class="edge">
<title>Knowledge Base&#45;&gt;Operations Research</title>
<path fill="none" stroke="#b75867" d="M160.77,-295.21C161.93,-296.39 163.02,-297.66 164,-299 181.71,-323.2 151.69,-343.93 172,-366 181.96,-376.82 195.68,-383.12 210,-386.63"/>
<polygon fill="#b75867" stroke="#b75867" points="209.47,-390.09 219.97,-388.64 210.86,-383.23 209.47,-390.09"/>
</g>
<!-- Differential Equations -->
<g id="node14" class="node">
<title>Differential Equations</title>
<g id="a_node14"><a xlink:href="/Knowledge/differential_equations.html" xlink:title="Differential Equations" target="_parent">
<path fill="#273434" stroke="#b75867" d="M331,-369C331,-369 230,-369 230,-369 224,-369 218,-363 218,-357 218,-357 218,-345 218,-345 218,-339 224,-333 230,-333 230,-333 331,-333 331,-333 337,-333 343,-339 343,-345 343,-345 343,-357 343,-357 343,-363 337,-369 331,-369"/>
<text text-anchor="middle" x="280.5" y="-347.9" font-family="sans" font-size="12.00" fill="#c4c7c7">Differential Equations</text>
</a>
</g>
</g>
<!-- Knowledge Base&#45;&gt;Differential Equations -->
<g id="edge16" class="edge">
<title>Knowledge Base&#45;&gt;Differential Equations</title>
<path fill="none" stroke="#b75867" d="M160.11,-295.02C161.5,-296.26 162.8,-297.59 164,-299 172.92,-309.53 161.96,-319.53 172,-329 181.98,-338.41 194.86,-344.27 208.2,-347.83"/>
<polygon fill="#b75867" stroke="#b75867" points="207.45,-351.25 217.97,-350.03 208.99,-344.42 207.45,-351.25"/>
</g>
<!-- OOP -->
<g id="node15" class="node">
<title>OOP</title>
<g id="a_node15"><a xlink:href="/Knowledge/oop.html" xlink:title="OOP" target="_parent">
<path fill="#273434" stroke="#b75867" d="M295.5,-332C295.5,-332 265.5,-332 265.5,-332 259.5,-332 253.5,-326 253.5,-320 253.5,-320 253.5,-308 253.5,-308 253.5,-302 259.5,-296 265.5,-296 265.5,-296 295.5,-296 295.5,-296 301.5,-296 307.5,-302 307.5,-308 307.5,-308 307.5,-320 307.5,-320 307.5,-326 301.5,-332 295.5,-332"/>
<text text-anchor="middle" x="280.5" y="-310.9" font-family="sans" font-size="12.00" fill="#c4c7c7">OOP</text>
</a>
</g>
</g>
<!-- Knowledge Base&#45;&gt;OOP -->
<g id="edge17" class="edge">
<title>Knowledge Base&#45;&gt;OOP</title>
<path fill="none" stroke="#b75867" d="M164.15,-290.11C166.8,-290.76 169.43,-291.4 172,-292 195.64,-297.55 222.39,-303.03 243.29,-307.13"/>
<polygon fill="#b75867" stroke="#b75867" points="242.86,-310.61 253.34,-309.08 244.19,-303.74 242.86,-310.61"/>
</g>
<!-- Discrete Structures -->
<g id="node16" class="node">
<title>Discrete Structures</title>
<g id="a_node16"><a xlink:href="/Knowledge/discrete_structures.html" xlink:title="Discrete Structures" target="_parent">
<path fill="#273434" stroke="#b75867" d="M324,-295C324,-295 237,-295 237,-295 231,-295 225,-289 225,-283 225,-283 225,-271 225,-271 225,-265 231,-259 237,-259 237,-259 324,-259 324,-259 330,-259 336,-265 336,-271 336,-271 336,-283 336,-283 336,-289 330,-295 324,-295"/>
<text text-anchor="middle" x="280.5" y="-273.9" font-family="sans" font-size="12.00" fill="#c4c7c7">Discrete Structures</text>
</a>
</g>
</g>
<!-- Knowledge Base&#45;&gt;Discrete Structures -->
<g id="edge18" class="edge">
<title>Knowledge Base&#45;&gt;Discrete Structures</title>
<path fill="none" stroke="#b75867" d="M164.26,-277C180.06,-277 197.83,-277 214.61,-277"/>
<polygon fill="#b75867" stroke="#b75867" points="214.9,-280.5 224.9,-277 214.9,-273.5 214.9,-280.5"/>
</g>
<!-- Advanced Algebra -->
<g id="node17" class="node">
<title>Advanced Algebra</title>
<g id="a_node17"><a xlink:href="/Knowledge/advanced_algebra.html" xlink:title="Advanced Algebra" target="_parent">
<path fill="#273434" stroke="#b75867" d="M322,-258C322,-258 239,-258 239,-258 233,-258 227,-252 227,-246 227,-246 227,-234 227,-234 227,-228 233,-222 239,-222 239,-222 322,-222 322,-222 328,-222 334,-228 334,-234 334,-234 334,-246 334,-246 334,-252 328,-258 322,-258"/>
<text text-anchor="middle" x="280.5" y="-236.9" font-family="sans" font-size="12.00" fill="#c4c7c7">Advanced Algebra</text>
</a>
</g>
</g>
<!-- Knowledge Base&#45;&gt;Advanced Algebra -->
<g id="edge19" class="edge">
<title>Knowledge Base&#45;&gt;Advanced Algebra</title>
<path fill="none" stroke="#b75867" d="M164.15,-263.89C166.8,-263.24 169.43,-262.6 172,-262 186.47,-258.6 202.1,-255.23 216.84,-252.19"/>
<polygon fill="#b75867" stroke="#b75867" points="217.78,-255.57 226.88,-250.14 216.38,-248.71 217.78,-255.57"/>
</g>
<!-- Differential Analysis -->
<g id="node18" class="node">
<title>Differential Analysis</title>
<g id="a_node18"><a xlink:href="/Knowledge/differential_analysis.html" xlink:title="Differential Analysis" target="_parent">
<path fill="#273434" stroke="#b75867" d="M326.5,-221C326.5,-221 234.5,-221 234.5,-221 228.5,-221 222.5,-215 222.5,-209 222.5,-209 222.5,-197 222.5,-197 222.5,-191 228.5,-185 234.5,-185 234.5,-185 326.5,-185 326.5,-185 332.5,-185 338.5,-191 338.5,-197 338.5,-197 338.5,-209 338.5,-209 338.5,-215 332.5,-221 326.5,-221"/>
<text text-anchor="middle" x="280.5" y="-199.9" font-family="sans" font-size="12.00" fill="#c4c7c7">Differential Analysis</text>
</a>
</g>
</g>
<!-- Knowledge Base&#45;&gt;Differential Analysis -->
<g id="edge20" class="edge">
<title>Knowledge Base&#45;&gt;Differential Analysis</title>
<path fill="none" stroke="#b75867" d="M160.11,-258.98C161.5,-257.74 162.8,-256.41 164,-255 172.92,-244.47 161.96,-234.47 172,-225 182.98,-214.65 197.46,-208.59 212.22,-205.17"/>
<polygon fill="#b75867" stroke="#b75867" points="213.29,-208.53 222.44,-203.2 211.96,-201.66 213.29,-208.53"/>
</g>
<!-- Knowledge Base&#45;&gt;Differential Analysis -->
<g id="edge24" class="edge">
<title>Knowledge Base&#45;&gt;Differential Analysis</title>
<path fill="none" stroke="#b75867" d="M161.34,-258.84C162.27,-257.93 163.16,-256.99 164,-256 172.92,-245.47 161.96,-235.47 172,-226 182.98,-215.65 197.46,-209.59 212.22,-206.14"/>
<polygon fill="#b75867" stroke="#b75867" points="213.3,-209.5 222.44,-204.15 211.96,-202.63 213.3,-209.5"/>
</g>
<!-- Introduction to programming -->
<g id="node19" class="node">
<title>Introduction to programming</title>
<g id="a_node19"><a xlink:href="/Knowledge/introduction_to_programming.html" xlink:title="Introduction to programming" target="_parent">
<path fill="#273434" stroke="#b75867" d="M350,-184C350,-184 211,-184 211,-184 205,-184 199,-178 199,-172 199,-172 199,-160 199,-160 199,-154 205,-148 211,-148 211,-148 350,-148 350,-148 356,-148 362,-154 362,-160 362,-160 362,-172 362,-172 362,-178 356,-184 350,-184"/>
<text text-anchor="middle" x="280.5" y="-162.9" font-family="sans" font-size="12.00" fill="#c4c7c7">Introduction to programming</text>
</a>
</g>
</g>
<!-- Knowledge Base&#45;&gt;Introduction to programming -->
<g id="edge21" class="edge">
<title>Knowledge Base&#45;&gt;Introduction to programming</title>
<path fill="none" stroke="#b75867" d="M160.77,-258.79C161.93,-257.61 163.02,-256.34 164,-255 181.71,-230.8 151.69,-210.07 172,-188 177.06,-182.51 183.08,-178.18 189.66,-174.79"/>
<polygon fill="#b75867" stroke="#b75867" points="191.19,-177.94 198.94,-170.73 188.38,-171.53 191.19,-177.94"/>
</g>
<!-- Analytic Geometry -->
<g id="node20" class="node">
<title>Analytic Geometry</title>
<g id="a_node20"><a xlink:href="/Knowledge/analytic_geometry.html" xlink:title="Analytic Geometry" target="_parent">
<path fill="#273434" stroke="#b75867" d="M322.5,-147C322.5,-147 238.5,-147 238.5,-147 232.5,-147 226.5,-141 226.5,-135 226.5,-135 226.5,-123 226.5,-123 226.5,-117 232.5,-111 238.5,-111 238.5,-111 322.5,-111 322.5,-111 328.5,-111 334.5,-117 334.5,-123 334.5,-123 334.5,-135 334.5,-135 334.5,-141 328.5,-147 322.5,-147"/>
<text text-anchor="middle" x="280.5" y="-125.9" font-family="sans" font-size="12.00" fill="#c4c7c7">Analytic Geometry</text>
</a>
</g>
</g>
<!-- Knowledge Base&#45;&gt;Analytic Geometry -->
<g id="edge22" class="edge">
<title>Knowledge Base&#45;&gt;Analytic Geometry</title>
<path fill="none" stroke="#b75867" d="M160.84,-258.85C161.99,-257.64 163.05,-256.36 164,-255 177.3,-236.01 156.67,-168.38 172,-151 183.17,-138.34 199.48,-131.81 216.04,-128.68"/>
<polygon fill="#b75867" stroke="#b75867" points="216.97,-132.08 226.34,-127.15 215.94,-125.16 216.97,-132.08"/>
</g>
<!-- Linear Algebra -->
<g id="node21" class="node">
<title>Linear Algebra</title>
<g id="a_node21"><a xlink:href="/Knowledge/linear_algebra.html" xlink:title="Linear Algebra" target="_parent">
<path fill="#273434" stroke="#b75867" d="M313,-110C313,-110 248,-110 248,-110 242,-110 236,-104 236,-98 236,-98 236,-86 236,-86 236,-80 242,-74 248,-74 248,-74 313,-74 313,-74 319,-74 325,-80 325,-86 325,-86 325,-98 325,-98 325,-104 319,-110 313,-110"/>
<text text-anchor="middle" x="280.5" y="-88.9" font-family="sans" font-size="12.00" fill="#c4c7c7">Linear Algebra</text>
</a>
</g>
</g>
<!-- Knowledge Base&#45;&gt;Linear Algebra -->
<g id="edge23" class="edge">
<title>Knowledge Base&#45;&gt;Linear Algebra</title>
<path fill="none" stroke="#b75867" d="M160.87,-258.87C162.01,-257.66 163.06,-256.37 164,-255 181.74,-229.11 151.48,-137.74 172,-114 185.21,-98.72 205.91,-92.32 225.64,-90.07"/>
<polygon fill="#b75867" stroke="#b75867" points="226.14,-93.54 235.82,-89.25 225.57,-86.57 226.14,-93.54"/>
</g>
<!-- Org Roam -->
<g id="node22" class="node">
<title>Org Roam</title>
<g id="a_node22"><a xlink:href="/Knowledge/org_roam.html" xlink:title="Org Roam" target="_parent">
<path fill="#273434" stroke="#b75867" d="M301,-36C301,-36 260,-36 260,-36 254,-36 248,-30 248,-24 248,-24 248,-12 248,-12 248,-6 254,0 260,0 260,0 301,0 301,0 307,0 313,-6 313,-12 313,-12 313,-24 313,-24 313,-30 307,-36 301,-36"/>
<text text-anchor="middle" x="280.5" y="-14.9" font-family="sans" font-size="12.00" fill="#c4c7c7">Org Roam</text>
</a>
</g>
</g>
<!-- Knowledge Base&#45;&gt;Org Roam -->
<g id="edge25" class="edge">
<title>Knowledge Base&#45;&gt;Org Roam</title>
<path fill="none" stroke="#b75867" d="M160.91,-258.89C162.04,-257.68 163.07,-256.38 164,-255 177.32,-235.15 156.54,-58.24 172,-40 187.81,-21.35 214.79,-15.87 237.76,-15.04"/>
<polygon fill="#b75867" stroke="#b75867" points="238.01,-18.54 247.98,-14.96 237.95,-11.54 238.01,-18.54"/>
</g>
<!-- Org&#45;mode -->
<g id="node23" class="node">
<title>Org&#45;mode</title>
<g id="a_node23"><a xlink:href="/Knowledge/org-mode.html" xlink:title="Org&#45;mode" target="_parent">
<path fill="#273434" stroke="#b75867" d="M302.5,-73C302.5,-73 258.5,-73 258.5,-73 252.5,-73 246.5,-67 246.5,-61 246.5,-61 246.5,-49 246.5,-49 246.5,-43 252.5,-37 258.5,-37 258.5,-37 302.5,-37 302.5,-37 308.5,-37 314.5,-43 314.5,-49 314.5,-49 314.5,-61 314.5,-61 314.5,-67 308.5,-73 302.5,-73"/>
<text text-anchor="middle" x="280.5" y="-51.9" font-family="sans" font-size="12.00" fill="#c4c7c7">Org&#45;mode</text>
</a>
</g>
</g>
<!-- Knowledge Base&#45;&gt;Org&#45;mode -->
<g id="edge26" class="edge">
<title>Knowledge Base&#45;&gt;Org&#45;mode</title>
<path fill="none" stroke="#b75867" d="M160.9,-258.88C162.03,-257.67 163.07,-256.38 164,-255 175.1,-238.6 159.14,-92.05 172,-77 187.5,-58.85 213.59,-53.2 236.18,-52.16"/>
<polygon fill="#b75867" stroke="#b75867" points="236.33,-55.65 246.26,-51.97 236.2,-48.65 236.33,-55.65"/>
</g>
<!-- Bad Habit&#45;&gt;Projects -->
<g id="edge28" class="edge">
<title>Bad Habit&#45;&gt;Projects</title>
<path fill="none" stroke="#b75867" d="M82,-252.22C75.99,-255.2 70.03,-258.78 65,-263 57.05,-269.68 50.11,-278.56 44.53,-287.04"/>
<polygon fill="#b75867" stroke="#b75867" points="41.5,-285.28 39.22,-295.63 47.46,-288.97 41.5,-285.28"/>
</g>
<!-- Bad Habit&#45;&gt;Org Roam -->
<g id="edge29" class="edge">
<title>Bad Habit&#45;&gt;Org Roam</title>
<path fill="none" stroke="#b75867" d="M114.83,-221.94C114.44,-182.62 119.4,-88.87 172,-40 189.47,-23.77 215.56,-18.15 237.66,-16.65"/>
<polygon fill="#b75867" stroke="#b75867" points="237.97,-20.14 247.81,-16.22 237.67,-13.14 237.97,-20.14"/>
</g>
</g>
</svg>
