<?xml version="1.0" encoding="UTF-8" standalone="no"?>
<!DOCTYPE svg PUBLIC "-//W3C//DTD SVG 1.1//EN"
 "http://www.w3.org/Graphics/SVG/1.1/DTD/svg11.dtd">
<!-- Generated by graphviz version 2.46.1 (0)
 -->
<!-- Title: pulsebinder Pages: 1 -->
<svg width="258pt" height="155pt"
 viewBox="0.00 0.00 258.00 155.00" xmlns="http://www.w3.org/2000/svg" xmlns:xlink="http://www.w3.org/1999/xlink">
<g id="graph0" class="graph" transform="scale(1 1) rotate(0) translate(4 151)">
<title>pulsebinder</title>
<polygon fill="#132020" stroke="transparent" points="-4,4 -4,-151 254,-151 254,4 -4,4"/>
<!-- pulsebinder -->
<g id="node1" class="node">
<title>pulsebinder</title>
<g id="a_node1"><a xlink:href="/Knowledge/pulsebinder.html" xlink:title="pulsebinder" target="_parent">
<path fill="#273434" stroke="#b75867" d="M66,-91C66,-91 12,-91 12,-91 6,-91 0,-85 0,-79 0,-79 0,-67 0,-67 0,-61 6,-55 12,-55 12,-55 66,-55 66,-55 72,-55 78,-61 78,-67 78,-67 78,-79 78,-79 78,-85 72,-91 66,-91"/>
<text text-anchor="middle" x="39" y="-69.9" font-family="sans" font-size="12.00" fill="#c4c7c7">pulsebinder</text>
</a>
</g>
</g>
<!-- Projects -->
<g id="node2" class="node">
<title>Projects</title>
<g id="a_node2"><a xlink:href="/Knowledge/projects.html" xlink:title="Projects" target="_parent">
<path fill="none" stroke="#b75867" d="M131,-91C131,-91 98,-91 98,-91 92,-91 86,-85 86,-79 86,-79 86,-67 86,-67 86,-61 92,-55 98,-55 98,-55 131,-55 131,-55 137,-55 143,-61 143,-67 143,-67 143,-79 143,-79 143,-85 137,-91 131,-91"/>
<text text-anchor="middle" x="114.5" y="-69.9" font-family="sans" font-size="12.00" fill="#c4c7c7">Projects</text>
</a>
</g>
</g>
<!-- pulsebinder&#45;&gt;Projects -->
<g id="edge1" class="edge">
<title>pulsebinder&#45;&gt;Projects</title>
<path fill="none" stroke="#ffffff" d="M85.46,-73C85.62,-73 85.78,-73 85.95,-73"/>
<polygon fill="#ffffff" stroke="#ffffff" points="88.04,-69.5 78.04,-73 88.04,-76.5 88.04,-69.5"/>
</g>
<!-- Projects&#45;&gt;pulsebinder -->
<g id="edge2" class="edge">
<title>Projects&#45;&gt;pulsebinder</title>
<path fill="none" stroke="#b75867" d="M85.95,-73.73C85.78,-73.73 85.62,-73.73 85.46,-73.73"/>
<polygon fill="#b75867" stroke="#b75867" points="88.03,-70.22 78.04,-73.75 88.05,-77.22 88.03,-70.22"/>
</g>
<!-- kaltemplate -->
<g id="node3" class="node">
<title>kaltemplate</title>
<g id="a_node3"><a xlink:href="/Knowledge/kaltemplate.html" xlink:title="kaltemplate" target="_parent">
<path fill="#273434" stroke="#b75867" d="M227,-147C227,-147 174,-147 174,-147 168,-147 162,-141 162,-135 162,-135 162,-123 162,-123 162,-117 168,-111 174,-111 174,-111 227,-111 227,-111 233,-111 239,-117 239,-123 239,-123 239,-135 239,-135 239,-141 233,-147 227,-147"/>
<text text-anchor="middle" x="200.5" y="-125.9" font-family="sans" font-size="12.00" fill="#c4c7c7">kaltemplate</text>
</a>
</g>
</g>
<!-- Projects&#45;&gt;kaltemplate -->
<g id="edge3" class="edge">
<title>Projects&#45;&gt;kaltemplate</title>
<path fill="none" stroke="#b75867" d="M132.17,-91.21C137.8,-96.73 144.36,-102.5 151,-107 151.75,-107.51 152.52,-108.01 153.3,-108.51"/>
<polygon fill="#b75867" stroke="#b75867" points="151.59,-111.56 161.99,-113.55 155.1,-105.51 151.59,-111.56"/>
</g>
<!-- kaltask -->
<g id="node4" class="node">
<title>kaltask</title>
<g id="a_node4"><a xlink:href="/Knowledge/kaltask.html" xlink:title="kaltask" target="_parent">
<path fill="#273434" stroke="#b75867" d="M215.5,-110C215.5,-110 185.5,-110 185.5,-110 179.5,-110 173.5,-104 173.5,-98 173.5,-98 173.5,-86 173.5,-86 173.5,-80 179.5,-74 185.5,-74 185.5,-74 215.5,-74 215.5,-74 221.5,-74 227.5,-80 227.5,-86 227.5,-86 227.5,-98 227.5,-98 227.5,-104 221.5,-110 215.5,-110"/>
<text text-anchor="middle" x="200.5" y="-88.9" font-family="sans" font-size="12.00" fill="#c4c7c7">kaltask</text>
</a>
</g>
</g>
<!-- Projects&#45;&gt;kaltask -->
<g id="edge4" class="edge">
<title>Projects&#45;&gt;kaltask</title>
<path fill="none" stroke="#b75867" d="M143,-79.22C149.56,-80.7 156.66,-82.31 163.53,-83.86"/>
<polygon fill="#b75867" stroke="#b75867" points="162.83,-87.3 173.36,-86.09 164.38,-80.47 162.83,-87.3"/>
</g>
<!-- Knowledge Base -->
<g id="node5" class="node">
<title>Knowledge Base</title>
<g id="a_node5"><a xlink:href="/Knowledge/knowledge_base.html" xlink:title="Knowledge Base" target="_parent">
<path fill="#273434" stroke="#b75867" d="M238,-73C238,-73 163,-73 163,-73 157,-73 151,-67 151,-61 151,-61 151,-49 151,-49 151,-43 157,-37 163,-37 163,-37 238,-37 238,-37 244,-37 250,-43 250,-49 250,-49 250,-61 250,-61 250,-67 244,-73 238,-73"/>
<text text-anchor="middle" x="200.5" y="-51.9" font-family="sans" font-size="12.00" fill="#c4c7c7">Knowledge Base</text>
</a>
</g>
</g>
<!-- Projects&#45;&gt;Knowledge Base -->
<g id="edge5" class="edge">
<title>Projects&#45;&gt;Knowledge Base</title>
<path fill="none" stroke="#b75867" d="M143,-67.11C143.17,-67.07 143.33,-67.04 143.49,-67"/>
<polygon fill="#b75867" stroke="#b75867" points="141.92,-70.92 150.96,-65.4 140.45,-64.07 141.92,-70.92"/>
</g>
<!-- Bad Habit -->
<g id="node6" class="node">
<title>Bad Habit</title>
<g id="a_node6"><a xlink:href="/Knowledge/bad_habit.html" xlink:title="Bad Habit" target="_parent">
<path fill="none" stroke="#b75867" d="M221,-36C221,-36 180,-36 180,-36 174,-36 168,-30 168,-24 168,-24 168,-12 168,-12 168,-6 174,0 180,0 180,0 221,0 221,0 227,0 233,-6 233,-12 233,-12 233,-24 233,-24 233,-30 227,-36 221,-36"/>
<text text-anchor="middle" x="200.5" y="-14.9" font-family="sans" font-size="12.00" fill="#c4c7c7">Bad Habit</text>
</a>
</g>
</g>
<!-- Projects&#45;&gt;Bad Habit -->
<g id="edge6" class="edge">
<title>Projects&#45;&gt;Bad Habit</title>
<path fill="none" stroke="#ffffff" d="M140.54,-47.92C143.92,-45.08 147.45,-42.36 151,-40 156.23,-36.52 162.11,-33.33 167.92,-30.53"/>
<polygon fill="#ffffff" stroke="#ffffff" points="138.11,-45.4 132.97,-54.66 142.76,-50.62 138.11,-45.4"/>
</g>
</g>
</svg>
