<?xml version="1.0" encoding="UTF-8" standalone="no"?>
<!DOCTYPE svg PUBLIC "-//W3C//DTD SVG 1.1//EN"
 "http://www.w3.org/Graphics/SVG/1.1/DTD/svg11.dtd">
<!-- Generated by graphviz version 2.44.0 (0)
 -->
<!-- Title: pulsebinder Pages: 1 -->
<svg width="287pt" height="155pt"
 viewBox="0.00 0.00 287.00 155.00" xmlns="http://www.w3.org/2000/svg" xmlns:xlink="http://www.w3.org/1999/xlink">
<g id="graph0" class="graph" transform="scale(1 1) rotate(0) translate(4 151)">
<title>pulsebinder</title>
<polygon fill="#132020" stroke="transparent" points="-4,4 -4,-151 283,-151 283,4 -4,4"/>
<!-- pulsebinder -->
<g id="node1" class="node">
<title>pulsebinder</title>
<g id="a_node1"><a xlink:href="../pulsebinder.html" xlink:title="pulsebinder" target="_parent">
<path fill="#273434" stroke="#b75867" d="M72,-91C72,-91 12,-91 12,-91 6,-91 0,-85 0,-79 0,-79 0,-67 0,-67 0,-61 6,-55 12,-55 12,-55 72,-55 72,-55 78,-55 84,-61 84,-67 84,-67 84,-79 84,-79 84,-85 78,-91 72,-91"/>
<text text-anchor="middle" x="42" y="-69.9" font-family="sans" font-size="12.00" fill="#c4c7c7">pulsebinder</text>
</a>
</g>
</g>
<!-- Projects -->
<g id="node2" class="node">
<title>Projects</title>
<g id="a_node2"><a xlink:href="../Projects.html" xlink:title="Projects" target="_parent">
<path fill="none" stroke="#b75867" d="M142,-91C142,-91 104,-91 104,-91 98,-91 92,-85 92,-79 92,-79 92,-67 92,-67 92,-61 98,-55 104,-55 104,-55 142,-55 142,-55 148,-55 154,-61 154,-67 154,-67 154,-79 154,-79 154,-85 148,-91 142,-91"/>
<text text-anchor="middle" x="123" y="-69.9" font-family="sans" font-size="12.00" fill="#c4c7c7">Projects</text>
</a>
</g>
</g>
<!-- pulsebinder&#45;&gt;Projects -->
<g id="edge1" class="edge">
<title>pulsebinder&#45;&gt;Projects</title>
<path fill="none" stroke="#ffffff" d="M91.43,-73C91.58,-73 91.74,-73 91.89,-73"/>
<polygon fill="#ffffff" stroke="#ffffff" points="94.35,-69.5 84.35,-73 94.35,-76.5 94.35,-69.5"/>
</g>
<!-- Projects&#45;&gt;pulsebinder -->
<g id="edge2" class="edge">
<title>Projects&#45;&gt;pulsebinder</title>
<path fill="none" stroke="#b75867" d="M91.89,-73.73C91.74,-73.73 91.58,-73.73 91.43,-73.73"/>
<polygon fill="#b75867" stroke="#b75867" points="94.34,-70.23 84.35,-73.75 94.36,-77.23 94.34,-70.23"/>
</g>
<!-- kaltemplate -->
<g id="node3" class="node">
<title>kaltemplate</title>
<g id="a_node3"><a xlink:href="../kaltemplate.html" xlink:title="kaltemplate" target="_parent">
<path fill="#273434" stroke="#b75867" d="M251.5,-147C251.5,-147 189.5,-147 189.5,-147 183.5,-147 177.5,-141 177.5,-135 177.5,-135 177.5,-123 177.5,-123 177.5,-117 183.5,-111 189.5,-111 189.5,-111 251.5,-111 251.5,-111 257.5,-111 263.5,-117 263.5,-123 263.5,-123 263.5,-135 263.5,-135 263.5,-141 257.5,-147 251.5,-147"/>
<text text-anchor="middle" x="220.5" y="-125.9" font-family="sans" font-size="12.00" fill="#c4c7c7">kaltemplate</text>
</a>
</g>
</g>
<!-- Projects&#45;&gt;kaltemplate -->
<g id="edge3" class="edge">
<title>Projects&#45;&gt;kaltemplate</title>
<path fill="none" stroke="#b75867" d="M141.47,-91.06C147.59,-96.69 154.74,-102.57 162,-107 163.96,-108.2 166.01,-109.35 168.1,-110.46"/>
<polygon fill="#b75867" stroke="#b75867" points="166.97,-113.8 177.5,-115 170.02,-107.5 166.97,-113.8"/>
</g>
<!-- kaltask -->
<g id="node4" class="node">
<title>kaltask</title>
<g id="a_node4"><a xlink:href="../kaltask.html" xlink:title="kaltask" target="_parent">
<path fill="#273434" stroke="#b75867" d="M237,-110C237,-110 204,-110 204,-110 198,-110 192,-104 192,-98 192,-98 192,-86 192,-86 192,-80 198,-74 204,-74 204,-74 237,-74 237,-74 243,-74 249,-80 249,-86 249,-86 249,-98 249,-98 249,-104 243,-110 237,-110"/>
<text text-anchor="middle" x="220.5" y="-88.9" font-family="sans" font-size="12.00" fill="#c4c7c7">kaltask</text>
</a>
</g>
</g>
<!-- Projects&#45;&gt;kaltask -->
<g id="edge4" class="edge">
<title>Projects&#45;&gt;kaltask</title>
<path fill="none" stroke="#b75867" d="M154.22,-79.01C162.95,-80.75 172.6,-82.67 181.73,-84.49"/>
<polygon fill="#b75867" stroke="#b75867" points="181.26,-87.96 191.75,-86.48 182.62,-81.09 181.26,-87.96"/>
</g>
<!-- Knowledege Base -->
<g id="node5" class="node">
<title>Knowledege Base</title>
<g id="a_node5"><a xlink:href="../Knowledege Base.html" xlink:title="Knowledege Base" target="_parent">
<path fill="#273434" stroke="#b75867" d="M267,-73C267,-73 174,-73 174,-73 168,-73 162,-67 162,-61 162,-61 162,-49 162,-49 162,-43 168,-37 174,-37 174,-37 267,-37 267,-37 273,-37 279,-43 279,-49 279,-49 279,-61 279,-61 279,-67 273,-73 267,-73"/>
<text text-anchor="middle" x="220.5" y="-51.9" font-family="sans" font-size="12.00" fill="#c4c7c7">Knowledege Base</text>
</a>
</g>
</g>
<!-- Projects&#45;&gt;Knowledege Base -->
<g id="edge5" class="edge">
<title>Projects&#45;&gt;Knowledege Base</title>
<path fill="none" stroke="#b75867" d="M154.22,-67.3C154.37,-67.28 154.53,-67.25 154.69,-67.22"/>
<polygon fill="#b75867" stroke="#b75867" points="152.77,-71.14 161.95,-65.85 151.47,-64.26 152.77,-71.14"/>
</g>
<!-- Bad Habit -->
<g id="node6" class="node">
<title>Bad Habit</title>
<g id="a_node6"><a xlink:href="../Bad Habit.html" xlink:title="Bad Habit" target="_parent">
<path fill="none" stroke="#b75867" d="M245,-36C245,-36 196,-36 196,-36 190,-36 184,-30 184,-24 184,-24 184,-12 184,-12 184,-6 190,0 196,0 196,0 245,0 245,0 251,0 257,-6 257,-12 257,-12 257,-24 257,-24 257,-30 251,-36 245,-36"/>
<text text-anchor="middle" x="220.5" y="-14.9" font-family="sans" font-size="12.00" fill="#c4c7c7">Bad Habit</text>
</a>
</g>
</g>
<!-- Projects&#45;&gt;Bad Habit -->
<g id="edge6" class="edge">
<title>Projects&#45;&gt;Bad Habit</title>
<path fill="none" stroke="#ffffff" d="M150.26,-48.18C154.04,-45.21 158.01,-42.39 162,-40 168.78,-35.93 176.45,-32.38 183.92,-29.38"/>
<polygon fill="#ffffff" stroke="#ffffff" points="147.75,-45.72 142.32,-54.81 152.24,-51.09 147.75,-45.72"/>
</g>
</g>
</svg>
