<?xml version="1.0" encoding="UTF-8" standalone="no"?>
<!DOCTYPE svg PUBLIC "-//W3C//DTD SVG 1.1//EN"
 "http://www.w3.org/Graphics/SVG/1.1/DTD/svg11.dtd">
<!-- Generated by graphviz version 2.46.1 (0)
 -->
<!-- Title: Recurrent Equations Pages: 1 -->
<svg width="554pt" height="747pt"
 viewBox="0.00 0.00 554.00 747.00" xmlns="http://www.w3.org/2000/svg" xmlns:xlink="http://www.w3.org/1999/xlink">
<g id="graph0" class="graph" transform="scale(1 1) rotate(0) translate(4 743)">
<title>Recurrent Equations</title>
<polygon fill="#132020" stroke="transparent" points="-4,4 -4,-743 550,-743 550,4 -4,4"/>
<!-- Recurrent Equations -->
<g id="node1" class="node">
<title>Recurrent Equations</title>
<g id="a_node1"><a xlink:href="/Knowledge/recurrent_equations.html" xlink:title="Recurrent Equations" target="_parent">
<path fill="#273434" stroke="#b75867" d="M107,-239C107,-239 12,-239 12,-239 6,-239 0,-233 0,-227 0,-227 0,-215 0,-215 0,-209 6,-203 12,-203 12,-203 107,-203 107,-203 113,-203 119,-209 119,-215 119,-215 119,-227 119,-227 119,-233 113,-239 107,-239"/>
<text text-anchor="middle" x="59.5" y="-217.9" font-family="sans" font-size="12.00" fill="#c4c7c7">Recurrent Equations</text>
</a>
</g>
</g>
<!-- Set -->
<g id="node2" class="node">
<title>Set</title>
<g id="a_node2"><a xlink:href="/Knowledge/set.html" xlink:title="Set" target="_parent">
<path fill="#273434" stroke="#b75867" d="M234.5,-517C234.5,-517 204.5,-517 204.5,-517 198.5,-517 192.5,-511 192.5,-505 192.5,-505 192.5,-493 192.5,-493 192.5,-487 198.5,-481 204.5,-481 204.5,-481 234.5,-481 234.5,-481 240.5,-481 246.5,-487 246.5,-493 246.5,-493 246.5,-505 246.5,-505 246.5,-511 240.5,-517 234.5,-517"/>
<text text-anchor="middle" x="219.5" y="-495.9" font-family="sans" font-size="12.00" fill="#c4c7c7">Set</text>
</a>
</g>
</g>
<!-- Recurrent Equations&#45;&gt;Set -->
<g id="edge1" class="edge">
<title>Recurrent Equations&#45;&gt;Set</title>
<path fill="none" stroke="#b75867" d="M70.87,-239.24C97.99,-286.96 171.13,-415.66 203.15,-471.98"/>
<polygon fill="#b75867" stroke="#b75867" points="200.11,-473.73 208.1,-480.69 206.2,-470.27 200.11,-473.73"/>
</g>
<!-- Multiset -->
<g id="node3" class="node">
<title>Multiset</title>
<g id="a_node3"><a xlink:href="/Knowledge/multiset.html" xlink:title="Multiset" target="_parent">
<path fill="#273434" stroke="#b75867" d="M236,-295C236,-295 203,-295 203,-295 197,-295 191,-289 191,-283 191,-283 191,-271 191,-271 191,-265 197,-259 203,-259 203,-259 236,-259 236,-259 242,-259 248,-265 248,-271 248,-271 248,-283 248,-283 248,-289 242,-295 236,-295"/>
<text text-anchor="middle" x="219.5" y="-273.9" font-family="sans" font-size="12.00" fill="#c4c7c7">Multiset</text>
</a>
</g>
</g>
<!-- Recurrent Equations&#45;&gt;Multiset -->
<g id="edge2" class="edge">
<title>Recurrent Equations&#45;&gt;Multiset</title>
<path fill="none" stroke="#b75867" d="M91.94,-239.01C102.8,-244.7 115.2,-250.64 127,-255 144.26,-261.38 164.04,-266.41 180.79,-270.03"/>
<polygon fill="#b75867" stroke="#b75867" points="180.27,-273.5 190.77,-272.11 181.69,-266.65 180.27,-273.5"/>
</g>
<!-- Fundamental Theorem of Algebra -->
<g id="node4" class="node">
<title>Fundamental Theorem of Algebra</title>
<g id="a_node4"><a xlink:href="/Knowledge/fundamental_theorem_of_algebra.html" xlink:title="Fundamental Theorem of Algebra" target="_parent">
<path fill="#273434" stroke="#b75867" d="M300,-258C300,-258 139,-258 139,-258 133,-258 127,-252 127,-246 127,-246 127,-234 127,-234 127,-228 133,-222 139,-222 139,-222 300,-222 300,-222 306,-222 312,-228 312,-234 312,-234 312,-246 312,-246 312,-252 306,-258 300,-258"/>
<text text-anchor="middle" x="219.5" y="-236.9" font-family="sans" font-size="12.00" fill="#c4c7c7">Fundamental Theorem of Algebra</text>
</a>
</g>
</g>
<!-- Recurrent Equations&#45;&gt;Fundamental Theorem of Algebra -->
<g id="edge3" class="edge">
<title>Recurrent Equations&#45;&gt;Fundamental Theorem of Algebra</title>
<path fill="none" stroke="#b75867" d="M119.33,-228.07C119.49,-228.09 119.64,-228.11 119.79,-228.13"/>
<polygon fill="#b75867" stroke="#b75867" points="116.43,-231.25 126.78,-228.97 117.27,-224.3 116.43,-231.25"/>
</g>
<!-- Discrete Structures -->
<g id="node5" class="node">
<title>Discrete Structures</title>
<g id="a_node5"><a xlink:href="/Knowledge/discrete_structures.html" xlink:title="Discrete Structures" target="_parent">
<path fill="none" stroke="#b75867" d="M263,-221C263,-221 176,-221 176,-221 170,-221 164,-215 164,-209 164,-209 164,-197 164,-197 164,-191 170,-185 176,-185 176,-185 263,-185 263,-185 269,-185 275,-191 275,-197 275,-197 275,-209 275,-209 275,-215 269,-221 263,-221"/>
<text text-anchor="middle" x="219.5" y="-199.9" font-family="sans" font-size="12.00" fill="#c4c7c7">Discrete Structures</text>
</a>
</g>
</g>
<!-- Recurrent Equations&#45;&gt;Discrete Structures -->
<g id="edge4" class="edge">
<title>Recurrent Equations&#45;&gt;Discrete Structures</title>
<path fill="none" stroke="#ffffff" d="M129.36,-213.16C140.88,-211.84 152.7,-210.5 163.8,-209.23"/>
<polygon fill="#ffffff" stroke="#ffffff" points="128.87,-209.69 119.33,-214.3 129.67,-216.64 128.87,-209.69"/>
</g>
<!-- Divided Differences -->
<g id="node6" class="node">
<title>Divided Differences</title>
<g id="a_node6"><a xlink:href="/Knowledge/divided_differences.html" xlink:title="Divided Differences" target="_parent">
<path fill="none" stroke="#b75867" d="M264,-184C264,-184 175,-184 175,-184 169,-184 163,-178 163,-172 163,-172 163,-160 163,-160 163,-154 169,-148 175,-148 175,-148 264,-148 264,-148 270,-148 276,-154 276,-160 276,-160 276,-172 276,-172 276,-178 270,-184 264,-184"/>
<text text-anchor="middle" x="219.5" y="-162.9" font-family="sans" font-size="12.00" fill="#c4c7c7">Divided Differences</text>
</a>
</g>
</g>
<!-- Recurrent Equations&#45;&gt;Divided Differences -->
<g id="edge5" class="edge">
<title>Recurrent Equations&#45;&gt;Divided Differences</title>
<path fill="none" stroke="#ffffff" d="M102.5,-198.39C110.5,-194.6 118.9,-190.94 127,-188 138.36,-183.87 150.8,-180.29 162.75,-177.29"/>
<polygon fill="#ffffff" stroke="#ffffff" points="100.79,-195.33 93.35,-202.88 103.87,-201.62 100.79,-195.33"/>
</g>
<!-- Chebyshev Polynomial -->
<g id="node7" class="node">
<title>Chebyshev Polynomial</title>
<g id="a_node7"><a xlink:href="/Knowledge/chebyshev_polynomial.html" xlink:title="Chebyshev Polynomial" target="_parent">
<path fill="none" stroke="#b75867" d="M273,-147C273,-147 166,-147 166,-147 160,-147 154,-141 154,-135 154,-135 154,-123 154,-123 154,-117 160,-111 166,-111 166,-111 273,-111 273,-111 279,-111 285,-117 285,-123 285,-123 285,-135 285,-135 285,-141 279,-147 273,-147"/>
<text text-anchor="middle" x="219.5" y="-125.9" font-family="sans" font-size="12.00" fill="#c4c7c7">Chebyshev Polynomial</text>
</a>
</g>
</g>
<!-- Recurrent Equations&#45;&gt;Chebyshev Polynomial -->
<g id="edge6" class="edge">
<title>Recurrent Equations&#45;&gt;Chebyshev Polynomial</title>
<path fill="none" stroke="#ffffff" d="M79.04,-195.01C91.07,-179.99 108.01,-161.96 127,-151 135.21,-146.26 144.39,-142.54 153.69,-139.62"/>
<polygon fill="#ffffff" stroke="#ffffff" points="76.23,-192.92 72.88,-202.98 81.76,-197.2 76.23,-192.92"/>
</g>
<!-- Set&#45;&gt;Recurrent Equations -->
<g id="edge14" class="edge">
<title>Set&#45;&gt;Recurrent Equations</title>
<path fill="none" stroke="#ffffff" d="M202.85,-471.93C170.59,-415.56 97.46,-286.88 70.62,-239.2"/>
<polygon fill="#ffffff" stroke="#ffffff" points="199.83,-473.71 207.84,-480.65 205.91,-470.23 199.83,-473.71"/>
</g>
<!-- Principle of partitions -->
<g id="node8" class="node">
<title>Principle of partitions</title>
<g id="a_node8"><a xlink:href="/Knowledge/principle_of_partitions.html" xlink:title="Principle of partitions" target="_parent">
<path fill="none" stroke="#b75867" d="M484,-739C484,-739 382,-739 382,-739 376,-739 370,-733 370,-727 370,-727 370,-715 370,-715 370,-709 376,-703 382,-703 382,-703 484,-703 484,-703 490,-703 496,-709 496,-715 496,-715 496,-727 496,-727 496,-733 490,-739 484,-739"/>
<text text-anchor="middle" x="433" y="-717.9" font-family="sans" font-size="12.00" fill="#c4c7c7">Principle of partitions</text>
</a>
</g>
</g>
<!-- Set&#45;&gt;Principle of partitions -->
<g id="edge7" class="edge">
<title>Set&#45;&gt;Principle of partitions</title>
<path fill="none" stroke="#ffffff" d="M226.17,-527.08C236.59,-571.06 263.17,-655.66 320,-699 334.26,-709.88 352.43,-715.81 369.97,-718.94"/>
<polygon fill="#ffffff" stroke="#ffffff" points="229.53,-526.05 223.91,-517.07 222.7,-527.59 229.53,-526.05"/>
</g>
<!-- Principle of inclusion and exclusion -->
<g id="node9" class="node">
<title>Principle of inclusion and exclusion</title>
<g id="a_node9"><a xlink:href="/Knowledge/principle_of_inclusion_and_exclusion.html" xlink:title="Principle of inclusion and exclusion" target="_parent">
<path fill="none" stroke="#b75867" d="M518.5,-702C518.5,-702 347.5,-702 347.5,-702 341.5,-702 335.5,-696 335.5,-690 335.5,-690 335.5,-678 335.5,-678 335.5,-672 341.5,-666 347.5,-666 347.5,-666 518.5,-666 518.5,-666 524.5,-666 530.5,-672 530.5,-678 530.5,-678 530.5,-690 530.5,-690 530.5,-696 524.5,-702 518.5,-702"/>
<text text-anchor="middle" x="433" y="-680.9" font-family="sans" font-size="12.00" fill="#c4c7c7">Principle of inclusion and exclusion</text>
</a>
</g>
</g>
<!-- Set&#45;&gt;Principle of inclusion and exclusion -->
<g id="edge8" class="edge">
<title>Set&#45;&gt;Principle of inclusion and exclusion</title>
<path fill="none" stroke="#ffffff" d="M229.45,-526.77C242.91,-563.81 272,-628.57 320,-662 324.8,-665.34 329.98,-668.2 335.38,-670.66"/>
<polygon fill="#ffffff" stroke="#ffffff" points="232.68,-525.39 226.07,-517.11 226.07,-527.71 232.68,-525.39"/>
</g>
<!-- Principle of the bijection -->
<g id="node10" class="node">
<title>Principle of the bijection</title>
<g id="a_node10"><a xlink:href="/Knowledge/principle_of_the_bijection.html" xlink:title="Principle of the bijection" target="_parent">
<path fill="none" stroke="#b75867" d="M491,-665C491,-665 375,-665 375,-665 369,-665 363,-659 363,-653 363,-653 363,-641 363,-641 363,-635 369,-629 375,-629 375,-629 491,-629 491,-629 497,-629 503,-635 503,-641 503,-641 503,-653 503,-653 503,-659 497,-665 491,-665"/>
<text text-anchor="middle" x="433" y="-643.9" font-family="sans" font-size="12.00" fill="#c4c7c7">Principle of the bijection</text>
</a>
</g>
</g>
<!-- Set&#45;&gt;Principle of the bijection -->
<g id="edge9" class="edge">
<title>Set&#45;&gt;Principle of the bijection</title>
<path fill="none" stroke="#ffffff" d="M234.36,-526.29C250.71,-555.55 280.72,-601.01 320,-625 332.85,-632.85 347.95,-637.98 362.82,-641.31"/>
<polygon fill="#ffffff" stroke="#ffffff" points="237.39,-524.53 229.54,-517.41 231.24,-527.87 237.39,-524.53"/>
</g>
<!-- Principle of products -->
<g id="node11" class="node">
<title>Principle of products</title>
<g id="a_node11"><a xlink:href="/Knowledge/principle_of_products.html" xlink:title="Principle of products" target="_parent">
<path fill="none" stroke="#b75867" d="M482,-628C482,-628 384,-628 384,-628 378,-628 372,-622 372,-616 372,-616 372,-604 372,-604 372,-598 378,-592 384,-592 384,-592 482,-592 482,-592 488,-592 494,-598 494,-604 494,-604 494,-616 494,-616 494,-622 488,-628 482,-628"/>
<text text-anchor="middle" x="433" y="-606.9" font-family="sans" font-size="12.00" fill="#c4c7c7">Principle of products</text>
</a>
</g>
</g>
<!-- Set&#45;&gt;Principle of products -->
<g id="edge10" class="edge">
<title>Set&#45;&gt;Principle of products</title>
<path fill="none" stroke="#ffffff" d="M242.17,-524.87C260.71,-545.24 289.23,-572.68 320,-588 335.97,-595.95 354.55,-601.03 371.93,-604.27"/>
<polygon fill="#ffffff" stroke="#ffffff" points="244.59,-522.32 235.33,-517.17 239.36,-526.97 244.59,-522.32"/>
</g>
<!-- Symmetric Closure -->
<g id="node12" class="node">
<title>Symmetric Closure</title>
<g id="a_node12"><a xlink:href="/Knowledge/symmetric_closure.html" xlink:title="Symmetric Closure" target="_parent">
<path fill="none" stroke="#b75867" d="M476.5,-591C476.5,-591 389.5,-591 389.5,-591 383.5,-591 377.5,-585 377.5,-579 377.5,-579 377.5,-567 377.5,-567 377.5,-561 383.5,-555 389.5,-555 389.5,-555 476.5,-555 476.5,-555 482.5,-555 488.5,-561 488.5,-567 488.5,-567 488.5,-579 488.5,-579 488.5,-585 482.5,-591 476.5,-591"/>
<text text-anchor="middle" x="433" y="-569.9" font-family="sans" font-size="12.00" fill="#c4c7c7">Symmetric Closure</text>
</a>
</g>
</g>
<!-- Set&#45;&gt;Symmetric Closure -->
<g id="edge11" class="edge">
<title>Set&#45;&gt;Symmetric Closure</title>
<path fill="none" stroke="#ffffff" d="M255.29,-520.34C273.9,-530.93 297.56,-543.12 320,-551 338.23,-557.4 358.82,-562.12 377.33,-565.51"/>
<polygon fill="#ffffff" stroke="#ffffff" points="256.99,-517.28 246.59,-515.3 253.48,-523.34 256.99,-517.28"/>
</g>
<!-- Class of equivalence -->
<g id="node13" class="node">
<title>Class of equivalence</title>
<g id="a_node13"><a xlink:href="/Knowledge/class_of_equivalence.html" xlink:title="Class of equivalence" target="_parent">
<path fill="none" stroke="#b75867" d="M480.5,-554C480.5,-554 385.5,-554 385.5,-554 379.5,-554 373.5,-548 373.5,-542 373.5,-542 373.5,-530 373.5,-530 373.5,-524 379.5,-518 385.5,-518 385.5,-518 480.5,-518 480.5,-518 486.5,-518 492.5,-524 492.5,-530 492.5,-530 492.5,-542 492.5,-542 492.5,-548 486.5,-554 480.5,-554"/>
<text text-anchor="middle" x="433" y="-532.9" font-family="sans" font-size="12.00" fill="#c4c7c7">Class of equivalence</text>
</a>
</g>
</g>
<!-- Set&#45;&gt;Class of equivalence -->
<g id="edge12" class="edge">
<title>Set&#45;&gt;Class of equivalence</title>
<path fill="none" stroke="#ffffff" d="M257.09,-505.4C289.06,-510.99 336.04,-519.21 373.27,-525.72"/>
<polygon fill="#ffffff" stroke="#ffffff" points="257.31,-501.89 246.86,-503.61 256.11,-508.78 257.31,-501.89"/>
</g>
<!-- Reflexive Closure -->
<g id="node14" class="node">
<title>Reflexive Closure</title>
<g id="a_node14"><a xlink:href="/Knowledge/reflexive_closure.html" xlink:title="Reflexive Closure" target="_parent">
<path fill="none" stroke="#b75867" d="M472,-517C472,-517 394,-517 394,-517 388,-517 382,-511 382,-505 382,-505 382,-493 382,-493 382,-487 388,-481 394,-481 394,-481 472,-481 472,-481 478,-481 484,-487 484,-493 484,-493 484,-505 484,-505 484,-511 478,-517 472,-517"/>
<text text-anchor="middle" x="433" y="-495.9" font-family="sans" font-size="12.00" fill="#c4c7c7">Reflexive Closure</text>
</a>
</g>
</g>
<!-- Set&#45;&gt;Reflexive Closure -->
<g id="edge13" class="edge">
<title>Set&#45;&gt;Reflexive Closure</title>
<path fill="none" stroke="#ffffff" d="M256.96,-499C291.43,-499 343.45,-499 381.83,-499"/>
<polygon fill="#ffffff" stroke="#ffffff" points="256.86,-495.5 246.86,-499 256.86,-502.5 256.86,-495.5"/>
</g>
<!-- Principle of division -->
<g id="node15" class="node">
<title>Principle of division</title>
<g id="a_node15"><a xlink:href="/Knowledge/principle_of_division.html" xlink:title="Principle of division" target="_parent">
<path fill="none" stroke="#b75867" d="M479,-480C479,-480 387,-480 387,-480 381,-480 375,-474 375,-468 375,-468 375,-456 375,-456 375,-450 381,-444 387,-444 387,-444 479,-444 479,-444 485,-444 491,-450 491,-456 491,-456 491,-468 491,-468 491,-474 485,-480 479,-480"/>
<text text-anchor="middle" x="433" y="-458.9" font-family="sans" font-size="12.00" fill="#c4c7c7">Principle of division</text>
</a>
</g>
</g>
<!-- Set&#45;&gt;Principle of division -->
<g id="edge15" class="edge">
<title>Set&#45;&gt;Principle of division</title>
<path fill="none" stroke="#ffffff" d="M256.78,-492.65C289.13,-486.99 337.03,-478.61 374.57,-472.05"/>
<polygon fill="#ffffff" stroke="#ffffff" points="256.11,-489.22 246.86,-494.39 257.31,-496.11 256.11,-489.22"/>
</g>
<!-- Dirichlet principle -->
<g id="node16" class="node">
<title>Dirichlet principle</title>
<g id="a_node16"><a xlink:href="/Knowledge/dirichlet_principle.html" xlink:title="Dirichlet principle" target="_parent">
<path fill="none" stroke="#b75867" d="M474.5,-443C474.5,-443 391.5,-443 391.5,-443 385.5,-443 379.5,-437 379.5,-431 379.5,-431 379.5,-419 379.5,-419 379.5,-413 385.5,-407 391.5,-407 391.5,-407 474.5,-407 474.5,-407 480.5,-407 486.5,-413 486.5,-419 486.5,-419 486.5,-431 486.5,-431 486.5,-437 480.5,-443 474.5,-443"/>
<text text-anchor="middle" x="433" y="-421.9" font-family="sans" font-size="12.00" fill="#c4c7c7">Dirichlet principle</text>
</a>
</g>
</g>
<!-- Set&#45;&gt;Dirichlet principle -->
<g id="edge16" class="edge">
<title>Set&#45;&gt;Dirichlet principle</title>
<path fill="none" stroke="#ffffff" d="M255.29,-477.66C273.9,-467.07 297.56,-454.88 320,-447 338.88,-440.37 360.3,-435.54 379.31,-432.13"/>
<polygon fill="#ffffff" stroke="#ffffff" points="253.48,-474.66 246.59,-482.7 256.99,-480.72 253.48,-474.66"/>
</g>
<!-- Differential Analysis -->
<g id="node17" class="node">
<title>Differential Analysis</title>
<g id="a_node17"><a xlink:href="/Knowledge/differential_analysis.html" xlink:title="Differential Analysis" target="_parent">
<path fill="none" stroke="#b75867" d="M479,-406C479,-406 387,-406 387,-406 381,-406 375,-400 375,-394 375,-394 375,-382 375,-382 375,-376 381,-370 387,-370 387,-370 479,-370 479,-370 485,-370 491,-376 491,-382 491,-382 491,-394 491,-394 491,-400 485,-406 479,-406"/>
<text text-anchor="middle" x="433" y="-384.9" font-family="sans" font-size="12.00" fill="#c4c7c7">Differential Analysis</text>
</a>
</g>
</g>
<!-- Set&#45;&gt;Differential Analysis -->
<g id="edge17" class="edge">
<title>Set&#45;&gt;Differential Analysis</title>
<path fill="none" stroke="#ffffff" d="M242.17,-473.13C260.71,-452.76 289.23,-425.32 320,-410 336.85,-401.61 356.62,-396.42 374.82,-393.21"/>
<polygon fill="#ffffff" stroke="#ffffff" points="239.36,-471.03 235.33,-480.83 244.59,-475.68 239.36,-471.03"/>
</g>
<!-- Relation of Equivalence -->
<g id="node18" class="node">
<title>Relation of Equivalence</title>
<g id="a_node18"><a xlink:href="/Knowledge/relation_of_equivalence.html" xlink:title="Relation of Equivalence" target="_parent">
<path fill="none" stroke="#b75867" d="M488,-369C488,-369 378,-369 378,-369 372,-369 366,-363 366,-357 366,-357 366,-345 366,-345 366,-339 372,-333 378,-333 378,-333 488,-333 488,-333 494,-333 500,-339 500,-345 500,-345 500,-357 500,-357 500,-363 494,-369 488,-369"/>
<text text-anchor="middle" x="433" y="-347.9" font-family="sans" font-size="12.00" fill="#c4c7c7">Relation of Equivalence</text>
</a>
</g>
</g>
<!-- Set&#45;&gt;Relation of Equivalence -->
<g id="edge18" class="edge">
<title>Set&#45;&gt;Relation of Equivalence</title>
<path fill="none" stroke="#ffffff" d="M234.36,-471.71C250.71,-442.45 280.72,-396.99 320,-373 333.7,-364.64 349.94,-359.36 365.75,-356.06"/>
<polygon fill="#ffffff" stroke="#ffffff" points="231.24,-470.13 229.54,-480.59 237.39,-473.47 231.24,-470.13"/>
</g>
<!-- Multiset&#45;&gt;Recurrent Equations -->
<g id="edge19" class="edge">
<title>Multiset&#45;&gt;Recurrent Equations</title>
<path fill="none" stroke="#ffffff" d="M180.79,-270.95C164.04,-267.41 144.26,-262.38 127,-256 114.6,-251.41 101.52,-245.08 90.27,-239.06"/>
<polygon fill="#ffffff" stroke="#ffffff" points="180.28,-274.42 190.77,-272.96 181.66,-267.55 180.28,-274.42"/>
</g>
<!-- Fundamental Theorem of Algebra&#45;&gt;Recurrent Equations -->
<g id="edge20" class="edge">
<title>Fundamental Theorem of Algebra&#45;&gt;Recurrent Equations</title>
<path fill="none" stroke="#ffffff" d="M119.79,-228.86C119.64,-228.84 119.49,-228.82 119.33,-228.8"/>
<polygon fill="#ffffff" stroke="#ffffff" points="116.43,-231.97 126.78,-229.71 117.27,-225.03 116.43,-231.97"/>
</g>
<!-- Linear Algebra -->
<g id="node19" class="node">
<title>Linear Algebra</title>
<g id="a_node19"><a xlink:href="/Knowledge/linear_algebra.html" xlink:title="Linear Algebra" target="_parent">
<path fill="none" stroke="#b75867" d="M465.5,-332C465.5,-332 400.5,-332 400.5,-332 394.5,-332 388.5,-326 388.5,-320 388.5,-320 388.5,-308 388.5,-308 388.5,-302 394.5,-296 400.5,-296 400.5,-296 465.5,-296 465.5,-296 471.5,-296 477.5,-302 477.5,-308 477.5,-308 477.5,-320 477.5,-320 477.5,-326 471.5,-332 465.5,-332"/>
<text text-anchor="middle" x="433" y="-310.9" font-family="sans" font-size="12.00" fill="#c4c7c7">Linear Algebra</text>
</a>
</g>
</g>
<!-- Fundamental Theorem of Algebra&#45;&gt;Linear Algebra -->
<g id="edge21" class="edge">
<title>Fundamental Theorem of Algebra&#45;&gt;Linear Algebra</title>
<path fill="none" stroke="#ffffff" d="M313.58,-266.34C317.81,-276.18 312.05,-284.56 320,-292 338.09,-308.92 365.22,-314.56 388.24,-315.91"/>
<polygon fill="#ffffff" stroke="#ffffff" points="316.31,-264.15 307.59,-258.13 310.66,-268.27 316.31,-264.15"/>
</g>
<!-- Lagrange Interpolation Problem -->
<g id="node20" class="node">
<title>Lagrange Interpolation Problem</title>
<g id="a_node20"><a xlink:href="/Knowledge/lagrange_interpolation_problem.html" xlink:title="Lagrange Interpolation Problem" target="_parent">
<path fill="none" stroke="#b75867" d="M509.5,-295C509.5,-295 356.5,-295 356.5,-295 350.5,-295 344.5,-289 344.5,-283 344.5,-283 344.5,-271 344.5,-271 344.5,-265 350.5,-259 356.5,-259 356.5,-259 509.5,-259 509.5,-259 515.5,-259 521.5,-265 521.5,-271 521.5,-271 521.5,-283 521.5,-283 521.5,-289 515.5,-295 509.5,-295"/>
<text text-anchor="middle" x="433" y="-273.9" font-family="sans" font-size="12.00" fill="#c4c7c7">Lagrange Interpolation Problem</text>
</a>
</g>
</g>
<!-- Fundamental Theorem of Algebra&#45;&gt;Lagrange Interpolation Problem -->
<g id="edge22" class="edge">
<title>Fundamental Theorem of Algebra&#45;&gt;Lagrange Interpolation Problem</title>
<path fill="none" stroke="#ffffff" d="M322.13,-257.78C329.55,-259.08 337,-260.38 344.33,-261.66"/>
<polygon fill="#ffffff" stroke="#ffffff" points="322.49,-254.29 312.04,-256.01 321.28,-261.18 322.49,-254.29"/>
</g>
<!-- Discrete Structures&#45;&gt;Recurrent Equations -->
<g id="edge23" class="edge">
<title>Discrete Structures&#45;&gt;Recurrent Equations</title>
<path fill="none" stroke="#b75867" d="M163.8,-209.95C152.7,-211.24 140.88,-212.6 129.36,-213.9"/>
<polygon fill="#b75867" stroke="#b75867" points="128.88,-210.43 119.33,-215.03 129.66,-217.39 128.88,-210.43"/>
</g>
<!-- Combinatorics -->
<g id="node21" class="node">
<title>Combinatorics</title>
<g id="a_node21"><a xlink:href="/Knowledge/combinatorics.html" xlink:title="Combinatorics" target="_parent">
<path fill="#273434" stroke="#b75867" d="M466.5,-258C466.5,-258 399.5,-258 399.5,-258 393.5,-258 387.5,-252 387.5,-246 387.5,-246 387.5,-234 387.5,-234 387.5,-228 393.5,-222 399.5,-222 399.5,-222 466.5,-222 466.5,-222 472.5,-222 478.5,-228 478.5,-234 478.5,-234 478.5,-246 478.5,-246 478.5,-252 472.5,-258 466.5,-258"/>
<text text-anchor="middle" x="433" y="-236.9" font-family="sans" font-size="12.00" fill="#c4c7c7">Combinatorics</text>
</a>
</g>
</g>
<!-- Discrete Structures&#45;&gt;Combinatorics -->
<g id="edge24" class="edge">
<title>Discrete Structures&#45;&gt;Combinatorics</title>
<path fill="none" stroke="#b75867" d="M275.24,-212.58C306.72,-218.08 346.12,-224.98 377.55,-230.47"/>
<polygon fill="#b75867" stroke="#b75867" points="377,-233.93 387.45,-232.21 378.21,-227.04 377,-233.93"/>
</g>
<!-- Functions -->
<g id="node22" class="node">
<title>Functions</title>
<g id="a_node22"><a xlink:href="/Knowledge/functions.html" xlink:title="Functions" target="_parent">
<path fill="#273434" stroke="#b75867" d="M454.5,-221C454.5,-221 411.5,-221 411.5,-221 405.5,-221 399.5,-215 399.5,-209 399.5,-209 399.5,-197 399.5,-197 399.5,-191 405.5,-185 411.5,-185 411.5,-185 454.5,-185 454.5,-185 460.5,-185 466.5,-191 466.5,-197 466.5,-197 466.5,-209 466.5,-209 466.5,-215 460.5,-221 454.5,-221"/>
<text text-anchor="middle" x="433" y="-199.9" font-family="sans" font-size="12.00" fill="#c4c7c7">Functions</text>
</a>
</g>
</g>
<!-- Discrete Structures&#45;&gt;Functions -->
<g id="edge25" class="edge">
<title>Discrete Structures&#45;&gt;Functions</title>
<path fill="none" stroke="#b75867" d="M275.24,-203C310.69,-203 356.2,-203 389.04,-203"/>
<polygon fill="#b75867" stroke="#b75867" points="389.23,-206.5 399.23,-203 389.23,-199.5 389.23,-206.5"/>
</g>
<!-- Relations -->
<g id="node23" class="node">
<title>Relations</title>
<g id="a_node23"><a xlink:href="/Knowledge/relations.html" xlink:title="Relations" target="_parent">
<path fill="#273434" stroke="#b75867" d="M453,-184C453,-184 413,-184 413,-184 407,-184 401,-178 401,-172 401,-172 401,-160 401,-160 401,-154 407,-148 413,-148 413,-148 453,-148 453,-148 459,-148 465,-154 465,-160 465,-160 465,-172 465,-172 465,-178 459,-184 453,-184"/>
<text text-anchor="middle" x="433" y="-162.9" font-family="sans" font-size="12.00" fill="#c4c7c7">Relations</text>
</a>
</g>
</g>
<!-- Discrete Structures&#45;&gt;Relations -->
<g id="edge26" class="edge">
<title>Discrete Structures&#45;&gt;Relations</title>
<path fill="none" stroke="#b75867" d="M275.24,-193.42C311.25,-187.12 357.62,-179.01 390.57,-173.25"/>
<polygon fill="#b75867" stroke="#b75867" points="391.52,-176.64 400.76,-171.46 390.31,-169.74 391.52,-176.64"/>
</g>
<!-- Logical Equivalences -->
<g id="node24" class="node">
<title>Logical Equivalences</title>
<g id="a_node24"><a xlink:href="/Knowledge/logical_equivalences.html" xlink:title="Logical Equivalences" target="_parent">
<path fill="#273434" stroke="#b75867" d="M481.5,-147C481.5,-147 384.5,-147 384.5,-147 378.5,-147 372.5,-141 372.5,-135 372.5,-135 372.5,-123 372.5,-123 372.5,-117 378.5,-111 384.5,-111 384.5,-111 481.5,-111 481.5,-111 487.5,-111 493.5,-117 493.5,-123 493.5,-123 493.5,-135 493.5,-135 493.5,-141 487.5,-147 481.5,-147"/>
<text text-anchor="middle" x="433" y="-125.9" font-family="sans" font-size="12.00" fill="#c4c7c7">Logical Equivalences</text>
</a>
</g>
</g>
<!-- Discrete Structures&#45;&gt;Logical Equivalences -->
<g id="edge27" class="edge">
<title>Discrete Structures&#45;&gt;Logical Equivalences</title>
<path fill="none" stroke="#b75867" d="M275.13,-199.65C288.63,-196.38 302.06,-190.7 312,-181 321.88,-171.36 309.92,-160.43 320,-151 331.51,-140.23 346.69,-134.03 362.14,-130.6"/>
<polygon fill="#b75867" stroke="#b75867" points="363.1,-133.98 372.3,-128.72 361.83,-127.09 363.1,-133.98"/>
</g>
<!-- Logical Operators -->
<g id="node25" class="node">
<title>Logical Operators</title>
<g id="a_node25"><a xlink:href="/Knowledge/logical_operators.html" xlink:title="Logical Operators" target="_parent">
<path fill="#273434" stroke="#b75867" d="M474,-110C474,-110 392,-110 392,-110 386,-110 380,-104 380,-98 380,-98 380,-86 380,-86 380,-80 386,-74 392,-74 392,-74 474,-74 474,-74 480,-74 486,-80 486,-86 486,-86 486,-98 486,-98 486,-104 480,-110 474,-110"/>
<text text-anchor="middle" x="433" y="-88.9" font-family="sans" font-size="12.00" fill="#c4c7c7">Logical Operators</text>
</a>
</g>
</g>
<!-- Discrete Structures&#45;&gt;Logical Operators -->
<g id="edge28" class="edge">
<title>Discrete Structures&#45;&gt;Logical Operators</title>
<path fill="none" stroke="#b75867" d="M275.13,-200.78C288.96,-197.57 302.55,-191.62 312,-181 331.93,-158.59 299.61,-135.99 320,-114 332.73,-100.27 351.33,-93.68 369.72,-90.83"/>
<polygon fill="#b75867" stroke="#b75867" points="370.37,-94.28 379.88,-89.61 369.54,-87.33 370.37,-94.28"/>
</g>
<!-- Subjects -->
<g id="node26" class="node">
<title>Subjects</title>
<g id="a_node26"><a xlink:href="/Knowledge/subjects.html" xlink:title="Subjects" target="_parent">
<path fill="none" stroke="#b75867" d="M451,-73C451,-73 415,-73 415,-73 409,-73 403,-67 403,-61 403,-61 403,-49 403,-49 403,-43 409,-37 415,-37 415,-37 451,-37 451,-37 457,-37 463,-43 463,-49 463,-49 463,-61 463,-61 463,-67 457,-73 451,-73"/>
<text text-anchor="middle" x="433" y="-51.9" font-family="sans" font-size="12.00" fill="#c4c7c7">Subjects</text>
</a>
</g>
</g>
<!-- Discrete Structures&#45;&gt;Subjects -->
<g id="edge29" class="edge">
<title>Discrete Structures&#45;&gt;Subjects</title>
<path fill="none" stroke="#ffffff" d="M285.05,-198.29C295.36,-194.74 304.94,-189.28 312,-181 327.04,-163.36 304.6,-94.32 320,-77 340.41,-54.05 377.16,-50.82 402.99,-51.85"/>
<polygon fill="#ffffff" stroke="#ffffff" points="284.08,-194.93 275.43,-201.04 286,-201.66 284.08,-194.93"/>
</g>
<!-- Divided Differences&#45;&gt;Recurrent Equations -->
<g id="edge30" class="edge">
<title>Divided Differences&#45;&gt;Recurrent Equations</title>
<path fill="none" stroke="#b75867" d="M162.75,-178.27C150.8,-181.29 138.36,-184.87 127,-189 119.5,-191.72 111.75,-195.06 104.29,-198.53"/>
<polygon fill="#b75867" stroke="#b75867" points="102.55,-195.49 95.05,-202.98 105.58,-201.8 102.55,-195.49"/>
</g>
<!-- Chebyshev Polynomial&#45;&gt;Recurrent Equations -->
<g id="edge31" class="edge">
<title>Chebyshev Polynomial&#45;&gt;Recurrent Equations</title>
<path fill="none" stroke="#b75867" d="M153.69,-140.61C144.39,-143.54 135.21,-147.26 127,-152 108.55,-162.65 92.04,-179.97 80.08,-194.6"/>
<polygon fill="#b75867" stroke="#b75867" points="77.03,-192.81 73.58,-202.83 82.53,-197.14 77.03,-192.81"/>
</g>
<!-- Extreme points of Chebyshev polynomials -->
<g id="node27" class="node">
<title>Extreme points of Chebyshev polynomials</title>
<g id="a_node27"><a xlink:href="/Knowledge/extreme_points_of_chebyshev_polynomials.html" xlink:title="Extreme points of Chebyshev polynomials" target="_parent">
<path fill="none" stroke="#b75867" d="M534,-36C534,-36 332,-36 332,-36 326,-36 320,-30 320,-24 320,-24 320,-12 320,-12 320,-6 326,0 332,0 332,0 534,0 534,0 540,0 546,-6 546,-12 546,-12 546,-24 546,-24 546,-30 540,-36 534,-36"/>
<text text-anchor="middle" x="433" y="-14.9" font-family="sans" font-size="12.00" fill="#c4c7c7">Extreme points of Chebyshev polynomials</text>
</a>
</g>
</g>
<!-- Chebyshev Polynomial&#45;&gt;Extreme points of Chebyshev polynomials -->
<g id="edge32" class="edge">
<title>Chebyshev Polynomial&#45;&gt;Extreme points of Chebyshev polynomials</title>
<path fill="none" stroke="#ffffff" d="M242.17,-103.13C260.71,-82.76 289.23,-55.32 320,-40 322.84,-38.59 325.76,-37.26 328.74,-36.03"/>
<polygon fill="#ffffff" stroke="#ffffff" points="239.36,-101.03 235.33,-110.83 244.59,-105.68 239.36,-101.03"/>
</g>
</g>
</svg>
