<?xml version="1.0" encoding="UTF-8" standalone="no"?>
<!DOCTYPE svg PUBLIC "-//W3C//DTD SVG 1.1//EN"
 "http://www.w3.org/Graphics/SVG/1.1/DTD/svg11.dtd">
<!-- Generated by graphviz version 2.44.0 (0)
 -->
<!-- Title: Reflexive Relation Pages: 1 -->
<svg width="1099pt" height="425pt"
 viewBox="0.00 0.00 1099.00 425.00" xmlns="http://www.w3.org/2000/svg" xmlns:xlink="http://www.w3.org/1999/xlink">
<g id="graph0" class="graph" transform="scale(1 1) rotate(0) translate(4 421)">
<title>Reflexive Relation</title>
<polygon fill="#132020" stroke="transparent" points="-4,4 -4,-421 1095,-421 1095,4 -4,4"/>
<!-- Reflexive Relation -->
<g id="node1" class="node">
<title>Reflexive Relation</title>
<g id="a_node1"><a xlink:href="../Reflexive Relation.html" xlink:title="Reflexive Relation" target="_parent">
<path fill="#273434" stroke="#b75867" d="M105,-154C105,-154 12,-154 12,-154 6,-154 0,-148 0,-142 0,-142 0,-130 0,-130 0,-124 6,-118 12,-118 12,-118 105,-118 105,-118 111,-118 117,-124 117,-130 117,-130 117,-142 117,-142 117,-148 111,-154 105,-154"/>
<text text-anchor="middle" x="58.5" y="-132.9" font-family="sans" font-size="12.00" fill="#c4c7c7">Reflexive Relation</text>
</a>
</g>
</g>
<!-- Relation -->
<g id="node2" class="node">
<title>Relation</title>
<g id="a_node2"><a xlink:href="../Relation.html" xlink:title="Relation" target="_parent">
<path fill="#273434" stroke="#b75867" d="M177,-154C177,-154 137,-154 137,-154 131,-154 125,-148 125,-142 125,-142 125,-130 125,-130 125,-124 131,-118 137,-118 137,-118 177,-118 177,-118 183,-118 189,-124 189,-130 189,-130 189,-142 189,-142 189,-148 183,-154 177,-154"/>
<text text-anchor="middle" x="157" y="-132.9" font-family="sans" font-size="12.00" fill="#c4c7c7">Relation</text>
</a>
</g>
</g>
<!-- Reflexive Relation&#45;&gt;Relation -->
<g id="edge1" class="edge">
<title>Reflexive Relation&#45;&gt;Relation</title>
<path fill="none" stroke="#b75867" d="M117.03,-136C117.19,-136 117.35,-136 117.51,-136"/>
<polygon fill="#b75867" stroke="#b75867" points="114.64,-139.5 124.64,-136 114.64,-132.5 114.64,-139.5"/>
</g>
<!-- Reflexive Closure -->
<g id="node3" class="node">
<title>Reflexive Closure</title>
<g id="a_node3"><a xlink:href="../Reflexive Closure.html" xlink:title="Reflexive Closure" target="_parent">
<path fill="none" stroke="#b75867" d="M301,-236C301,-236 212,-236 212,-236 206,-236 200,-230 200,-224 200,-224 200,-212 200,-212 200,-206 206,-200 212,-200 212,-200 301,-200 301,-200 307,-200 313,-206 313,-212 313,-212 313,-224 313,-224 313,-230 307,-236 301,-236"/>
<text text-anchor="middle" x="256.5" y="-214.9" font-family="sans" font-size="12.00" fill="#c4c7c7">Reflexive Closure</text>
</a>
</g>
</g>
<!-- Reflexive Relation&#45;&gt;Reflexive Closure -->
<g id="edge2" class="edge">
<title>Reflexive Relation&#45;&gt;Reflexive Closure</title>
<path fill="none" stroke="#ffffff" d="M79.71,-162.04C91.46,-175.29 107.4,-190.38 125,-199 148.03,-210.27 175.89,-215.32 199.94,-217.43"/>
<polygon fill="#ffffff" stroke="#ffffff" points="82.1,-159.46 72.96,-154.11 76.77,-163.99 82.1,-159.46"/>
</g>
<!-- Relation of Equivalence -->
<g id="node4" class="node">
<title>Relation of Equivalence</title>
<g id="a_node4"><a xlink:href="../Relation of Equivalence.html" xlink:title="Relation of Equivalence" target="_parent">
<path fill="none" stroke="#b75867" d="M538,-323C538,-323 413,-323 413,-323 407,-323 401,-317 401,-311 401,-311 401,-299 401,-299 401,-293 407,-287 413,-287 413,-287 538,-287 538,-287 544,-287 550,-293 550,-299 550,-299 550,-311 550,-311 550,-317 544,-323 538,-323"/>
<text text-anchor="middle" x="475.5" y="-301.9" font-family="sans" font-size="12.00" fill="#c4c7c7">Relation of Equivalence</text>
</a>
</g>
</g>
<!-- Reflexive Relation&#45;&gt;Relation of Equivalence -->
<g id="edge3" class="edge">
<title>Reflexive Relation&#45;&gt;Relation of Equivalence</title>
<path fill="none" stroke="#ffffff" d="M78.39,-162.06C90.37,-177.1 106.97,-195.46 125,-208 208.49,-266.07 325.73,-289.48 400.92,-298.85"/>
<polygon fill="#ffffff" stroke="#ffffff" points="81.12,-159.87 72.23,-154.1 75.59,-164.15 81.12,-159.87"/>
</g>
<!-- Relations -->
<g id="node5" class="node">
<title>Relations</title>
<g id="a_node5"><a xlink:href="../Relations.html" xlink:title="Relations" target="_parent">
<path fill="none" stroke="#b75867" d="M381,-216C381,-216 336,-216 336,-216 330,-216 324,-210 324,-204 324,-204 324,-192 324,-192 324,-186 330,-180 336,-180 336,-180 381,-180 381,-180 387,-180 393,-186 393,-192 393,-192 393,-204 393,-204 393,-210 387,-216 381,-216"/>
<text text-anchor="middle" x="358.5" y="-194.9" font-family="sans" font-size="12.00" fill="#c4c7c7">Relations</text>
</a>
</g>
</g>
<!-- Reflexive Relation&#45;&gt;Relations -->
<g id="edge4" class="edge">
<title>Reflexive Relation&#45;&gt;Relations</title>
<path fill="none" stroke="#ffffff" d="M102.41,-158.52C128.89,-171.21 164.01,-185.9 197,-193 240.06,-202.27 291.11,-202 323.88,-200.44"/>
<polygon fill="#ffffff" stroke="#ffffff" points="103.94,-155.37 93.41,-154.13 100.87,-161.66 103.94,-155.37"/>
</g>
<!-- Linear order -->
<g id="node6" class="node">
<title>Linear order</title>
<g id="a_node6"><a xlink:href="../Linear order.html" xlink:title="Linear order" target="_parent">
<path fill="none" stroke="#b75867" d="M506.5,-105C506.5,-105 444.5,-105 444.5,-105 438.5,-105 432.5,-99 432.5,-93 432.5,-93 432.5,-81 432.5,-81 432.5,-75 438.5,-69 444.5,-69 444.5,-69 506.5,-69 506.5,-69 512.5,-69 518.5,-75 518.5,-81 518.5,-81 518.5,-93 518.5,-93 518.5,-99 512.5,-105 506.5,-105"/>
<text text-anchor="middle" x="475.5" y="-83.9" font-family="sans" font-size="12.00" fill="#c4c7c7">Linear order</text>
</a>
</g>
</g>
<!-- Reflexive Relation&#45;&gt;Linear order -->
<g id="edge5" class="edge">
<title>Reflexive Relation&#45;&gt;Linear order</title>
<path fill="none" stroke="#ffffff" d="M91.36,-111.9C117.99,-93.36 157.82,-69.22 197,-59 278.52,-37.73 377.42,-58.31 432.42,-73.67"/>
<polygon fill="#ffffff" stroke="#ffffff" points="89.32,-109.06 83.19,-117.7 93.37,-114.77 89.32,-109.06"/>
</g>
<!-- Partial orders have no contours -->
<g id="node7" class="node">
<title>Partial orders have no contours</title>
<g id="a_node7"><a xlink:href="../Partial orders have no contours.html" xlink:title="Partial orders have no contours" target="_parent">
<path fill="none" stroke="#b75867" d="M950,-66C950,-66 781,-66 781,-66 775,-66 769,-60 769,-54 769,-54 769,-42 769,-42 769,-36 775,-30 781,-30 781,-30 950,-30 950,-30 956,-30 962,-36 962,-42 962,-42 962,-54 962,-54 962,-60 956,-66 950,-66"/>
<text text-anchor="middle" x="865.5" y="-44.9" font-family="sans" font-size="12.00" fill="#c4c7c7">Partial orders have no contours</text>
</a>
</g>
</g>
<!-- Reflexive Relation&#45;&gt;Partial orders have no contours -->
<g id="edge6" class="edge">
<title>Reflexive Relation&#45;&gt;Partial orders have no contours</title>
<path fill="none" stroke="#ffffff" d="M72.72,-108.93C83.78,-89.58 101.52,-64.94 125,-53 176.74,-26.69 197.46,-48 255.5,-48 255.5,-48 255.5,-48 476.5,-48 576.19,-48 690.3,-48 768.83,-48"/>
<polygon fill="#ffffff" stroke="#ffffff" points="69.54,-107.46 67.84,-117.92 75.69,-110.8 69.54,-107.46"/>
</g>
<!-- Partial order -->
<g id="node8" class="node">
<title>Partial order</title>
<g id="a_node8"><a xlink:href="../Partial order.html" xlink:title="Partial order" target="_parent">
<path fill="none" stroke="#b75867" d="M690.5,-95C690.5,-95 628.5,-95 628.5,-95 622.5,-95 616.5,-89 616.5,-83 616.5,-83 616.5,-71 616.5,-71 616.5,-65 622.5,-59 628.5,-59 628.5,-59 690.5,-59 690.5,-59 696.5,-59 702.5,-65 702.5,-71 702.5,-71 702.5,-83 702.5,-83 702.5,-89 696.5,-95 690.5,-95"/>
<text text-anchor="middle" x="659.5" y="-73.9" font-family="sans" font-size="12.00" fill="#c4c7c7">Partial order</text>
</a>
</g>
</g>
<!-- Reflexive Relation&#45;&gt;Partial order -->
<g id="edge7" class="edge">
<title>Reflexive Relation&#45;&gt;Partial order</title>
<path fill="none" stroke="#ffffff" d="M75.69,-109C87.22,-92.4 104.3,-72.39 125,-62 177.02,-35.89 197.29,-51 255.5,-51 255.5,-51 255.5,-51 359.5,-51 451.21,-51 558.14,-63.29 616.02,-70.97"/>
<polygon fill="#ffffff" stroke="#ffffff" points="72.48,-107.51 69.87,-117.78 78.31,-111.38 72.48,-107.51"/>
</g>
<!-- Relation&#45;&gt;Reflexive Relation -->
<g id="edge20" class="edge">
<title>Relation&#45;&gt;Reflexive Relation</title>
<path fill="none" stroke="#ffffff" d="M117.51,-136.74C117.35,-136.74 117.19,-136.74 117.03,-136.74"/>
<polygon fill="#ffffff" stroke="#ffffff" points="114.65,-140.25 124.64,-136.71 114.62,-133.25 114.65,-140.25"/>
</g>
<!-- Relation&#45;&gt;Reflexive Closure -->
<g id="edge11" class="edge">
<title>Relation&#45;&gt;Reflexive Closure</title>
<path fill="none" stroke="#ffffff" d="M170.89,-163.41C177.38,-174.77 186.18,-187.3 197,-196 198.69,-197.36 200.48,-198.64 202.33,-199.85"/>
<polygon fill="#ffffff" stroke="#ffffff" points="173.8,-161.41 165.99,-154.24 167.62,-164.71 173.8,-161.41"/>
</g>
<!-- Relation&#45;&gt;Relation of Equivalence -->
<g id="edge13" class="edge">
<title>Relation&#45;&gt;Relation of Equivalence</title>
<path fill="none" stroke="#ffffff" d="M199.14,-152.5C235.55,-157.15 298.29,-146.57 316,-163 332.5,-178.31 307.97,-197.2 324,-213 346.07,-234.75 371.21,-200.96 393,-223 411.91,-242.13 383.54,-262.53 401,-283 402.21,-284.42 403.51,-285.75 404.88,-286.99"/>
<polygon fill="#ffffff" stroke="#ffffff" points="199.66,-149.04 189.19,-150.64 198.38,-155.92 199.66,-149.04"/>
</g>
<!-- Relation&#45;&gt;Relations -->
<g id="edge16" class="edge">
<title>Relation&#45;&gt;Relations</title>
<path fill="none" stroke="#ffffff" d="M199.36,-150C251.14,-158.79 270.23,-139.96 316,-160 326.02,-164.39 335.22,-172.21 342.39,-179.62"/>
<polygon fill="#ffffff" stroke="#ffffff" points="199.78,-146.52 189.3,-148.03 198.43,-153.39 199.78,-146.52"/>
</g>
<!-- Relation&#45;&gt;Linear order -->
<g id="edge17" class="edge">
<title>Relation&#45;&gt;Linear order</title>
<path fill="none" stroke="#ffffff" d="M183.98,-111.97C188.1,-109.19 192.5,-106.74 197,-105 207.77,-100.85 357.32,-92.85 432.29,-89.07"/>
<polygon fill="#ffffff" stroke="#ffffff" points="181.87,-109.18 175.97,-117.99 186.07,-114.78 181.87,-109.18"/>
</g>
<!-- Relation&#45;&gt;Partial order -->
<g id="edge23" class="edge">
<title>Relation&#45;&gt;Partial order</title>
<path fill="none" stroke="#ffffff" d="M182.03,-111.05C186.66,-107.46 191.73,-104.23 197,-102 221.44,-91.66 289.79,-96.16 316,-92 354.33,-85.91 362.45,-76.47 401,-72 466.78,-64.37 483.8,-70.48 550,-72 571.87,-72.5 596.2,-73.58 616.26,-74.6"/>
<polygon fill="#ffffff" stroke="#ffffff" points="179.51,-108.6 174.2,-117.77 184.07,-113.91 179.51,-108.6"/>
</g>
<!-- Descartes Product -->
<g id="node9" class="node">
<title>Descartes Product</title>
<g id="a_node9"><a xlink:href="../Descartes Product.html" xlink:title="Descartes Product" target="_parent">
<path fill="#273434" stroke="#b75867" d="M304,-144C304,-144 209,-144 209,-144 203,-144 197,-138 197,-132 197,-132 197,-120 197,-120 197,-114 203,-108 209,-108 209,-108 304,-108 304,-108 310,-108 316,-114 316,-120 316,-120 316,-132 316,-132 316,-138 310,-144 304,-144"/>
<text text-anchor="middle" x="256.5" y="-122.9" font-family="sans" font-size="12.00" fill="#c4c7c7">Descartes Product</text>
</a>
</g>
</g>
<!-- Relation&#45;&gt;Descartes Product -->
<g id="edge8" class="edge">
<title>Relation&#45;&gt;Descartes Product</title>
<path fill="none" stroke="#b75867" d="M189.12,-132.81C189.28,-132.79 189.44,-132.78 189.6,-132.76"/>
<polygon fill="#b75867" stroke="#b75867" points="187.41,-136.5 197,-132 186.69,-129.54 187.41,-136.5"/>
</g>
<!-- Anti&#45;symmetric Relation -->
<g id="node10" class="node">
<title>Anti&#45;symmetric Relation</title>
<g id="a_node10"><a xlink:href="../Anti-symmetric Relation.html" xlink:title="Anti&#45;symmetric Relation" target="_parent">
<path fill="none" stroke="#b75867" d="M929.5,-172C929.5,-172 801.5,-172 801.5,-172 795.5,-172 789.5,-166 789.5,-160 789.5,-160 789.5,-148 789.5,-148 789.5,-142 795.5,-136 801.5,-136 801.5,-136 929.5,-136 929.5,-136 935.5,-136 941.5,-142 941.5,-148 941.5,-148 941.5,-160 941.5,-160 941.5,-166 935.5,-172 929.5,-172"/>
<text text-anchor="middle" x="865.5" y="-150.9" font-family="sans" font-size="12.00" fill="#c4c7c7">Anti&#45;symmetric Relation</text>
</a>
</g>
</g>
<!-- Relation&#45;&gt;Anti&#45;symmetric Relation -->
<g id="edge9" class="edge">
<title>Relation&#45;&gt;Anti&#45;symmetric Relation</title>
<path fill="none" stroke="#ffffff" d="M199.39,-144.19C235.71,-148.74 296.47,-158.07 316,-144 325.12,-137.43 315.1,-126.87 324,-120 339.69,-107.9 533.85,-102.21 550,-115 562.17,-124.64 545.91,-139.26 558,-149 592.25,-176.58 709.99,-170.64 789.17,-162.96"/>
<polygon fill="#ffffff" stroke="#ffffff" points="199.76,-140.71 189.42,-143.01 198.94,-147.66 199.76,-140.71"/>
</g>
<!-- Chain -->
<g id="node11" class="node">
<title>Chain</title>
<g id="a_node11"><a xlink:href="../Chain.html" xlink:title="Chain" target="_parent">
<path fill="none" stroke="#b75867" d="M1045.5,-73C1045.5,-73 1015.5,-73 1015.5,-73 1009.5,-73 1003.5,-67 1003.5,-61 1003.5,-61 1003.5,-49 1003.5,-49 1003.5,-43 1009.5,-37 1015.5,-37 1015.5,-37 1045.5,-37 1045.5,-37 1051.5,-37 1057.5,-43 1057.5,-49 1057.5,-49 1057.5,-61 1057.5,-61 1057.5,-67 1051.5,-73 1045.5,-73"/>
<text text-anchor="middle" x="1030.5" y="-51.9" font-family="sans" font-size="12.00" fill="#c4c7c7">Chain</text>
</a>
</g>
</g>
<!-- Relation&#45;&gt;Chain -->
<g id="edge10" class="edge">
<title>Relation&#45;&gt;Chain</title>
<path fill="none" stroke="#ffffff" d="M163.87,-108.24C169.28,-89.67 179.26,-66.29 197,-53 254.78,-9.71 285.31,-28 357.5,-28 357.5,-28 357.5,-28 660.5,-28 794.52,-28 829.82,-10.88 962,-33 975.98,-35.34 991.02,-40.02 1003.35,-44.46"/>
<polygon fill="#ffffff" stroke="#ffffff" points="160.47,-107.4 161.31,-117.96 167.24,-109.18 160.47,-107.4"/>
</g>
<!-- Symmetric Closure -->
<g id="node12" class="node">
<title>Symmetric Closure</title>
<g id="a_node12"><a xlink:href="../Symmetric Closure.html" xlink:title="Symmetric Closure" target="_parent">
<path fill="none" stroke="#b75867" d="M525,-188C525,-188 426,-188 426,-188 420,-188 414,-182 414,-176 414,-176 414,-164 414,-164 414,-158 420,-152 426,-152 426,-152 525,-152 525,-152 531,-152 537,-158 537,-164 537,-164 537,-176 537,-176 537,-182 531,-188 525,-188"/>
<text text-anchor="middle" x="475.5" y="-166.9" font-family="sans" font-size="12.00" fill="#c4c7c7">Symmetric Closure</text>
</a>
</g>
</g>
<!-- Relation&#45;&gt;Symmetric Closure -->
<g id="edge12" class="edge">
<title>Relation&#45;&gt;Symmetric Closure</title>
<path fill="none" stroke="#ffffff" d="M190.65,-113.3C192.74,-112.41 194.87,-111.62 197,-111 247.76,-96.13 264.22,-100.22 316,-111 321.04,-112.05 396.16,-146.23 401,-148 405.13,-149.51 409.41,-151 413.75,-152.44"/>
<polygon fill="#ffffff" stroke="#ffffff" points="189.04,-110.19 181.72,-117.84 192.22,-116.43 189.04,-110.19"/>
</g>
<!-- Symmetric Relation -->
<g id="node13" class="node">
<title>Symmetric Relation</title>
<g id="a_node13"><a xlink:href="../Symmetric Relation.html" xlink:title="Symmetric Relation" target="_parent">
<path fill="none" stroke="#b75867" d="M711.5,-266C711.5,-266 607.5,-266 607.5,-266 601.5,-266 595.5,-260 595.5,-254 595.5,-254 595.5,-242 595.5,-242 595.5,-236 601.5,-230 607.5,-230 607.5,-230 711.5,-230 711.5,-230 717.5,-230 723.5,-236 723.5,-242 723.5,-242 723.5,-254 723.5,-254 723.5,-260 717.5,-266 711.5,-266"/>
<text text-anchor="middle" x="659.5" y="-244.9" font-family="sans" font-size="12.00" fill="#c4c7c7">Symmetric Relation</text>
</a>
</g>
</g>
<!-- Relation&#45;&gt;Symmetric Relation -->
<g id="edge14" class="edge">
<title>Relation&#45;&gt;Symmetric Relation</title>
<path fill="none" stroke="#ffffff" d="M199.45,-147.08C251.21,-154.38 266.88,-155.15 316,-147 355.38,-140.47 361.62,-124.53 401,-118 417.33,-115.29 537.12,-107.6 550,-118 563.09,-128.57 549.66,-140.39 558,-155 575.91,-186.38 607.98,-213.29 631.08,-229.96"/>
<polygon fill="#ffffff" stroke="#ffffff" points="199.74,-143.58 189.34,-145.64 198.75,-150.51 199.74,-143.58"/>
</g>
<!-- Partial function -->
<g id="node14" class="node">
<title>Partial function</title>
<g id="a_node14"><a xlink:href="../Partial function.html" xlink:title="Partial function" target="_parent">
<path fill="none" stroke="#b75867" d="M296,-95C296,-95 217,-95 217,-95 211,-95 205,-89 205,-83 205,-83 205,-71 205,-71 205,-65 211,-59 217,-59 217,-59 296,-59 296,-59 302,-59 308,-65 308,-71 308,-71 308,-83 308,-83 308,-89 302,-95 296,-95"/>
<text text-anchor="middle" x="256.5" y="-73.9" font-family="sans" font-size="12.00" fill="#c4c7c7">Partial function</text>
</a>
</g>
</g>
<!-- Relation&#45;&gt;Partial function -->
<g id="edge15" class="edge">
<title>Relation&#45;&gt;Partial function</title>
<path fill="none" stroke="#ffffff" d="M181.8,-110.63C186.56,-106.39 191.73,-102.3 197,-99 199.48,-97.45 202.09,-95.97 204.78,-94.59"/>
<polygon fill="#ffffff" stroke="#ffffff" points="179.08,-108.39 174.22,-117.81 183.89,-113.47 179.08,-108.39"/>
</g>
<!-- Total function -->
<g id="node15" class="node">
<title>Total function</title>
<g id="a_node15"><a xlink:href="../Total function.html" xlink:title="Total function" target="_parent">
<path fill="none" stroke="#b75867" d="M292,-196C292,-196 221,-196 221,-196 215,-196 209,-190 209,-184 209,-184 209,-172 209,-172 209,-166 215,-160 221,-160 221,-160 292,-160 292,-160 298,-160 304,-166 304,-172 304,-172 304,-184 304,-184 304,-190 298,-196 292,-196"/>
<text text-anchor="middle" x="256.5" y="-174.9" font-family="sans" font-size="12.00" fill="#c4c7c7">Total function</text>
</a>
</g>
</g>
<!-- Relation&#45;&gt;Total function -->
<g id="edge18" class="edge">
<title>Relation&#45;&gt;Total function</title>
<path fill="none" stroke="#ffffff" d="M198.78,-156.72C203.48,-158.8 206.08,-159.88 208.69,-160.94"/>
<polygon fill="#ffffff" stroke="#ffffff" points="199.91,-153.39 189.35,-152.47 197.03,-159.77 199.91,-153.39"/>
</g>
<!-- Transitive Relation -->
<g id="node16" class="node">
<title>Transitive Relation</title>
<g id="a_node16"><a xlink:href="../Transitive Relation.html" xlink:title="Transitive Relation" target="_parent">
<path fill="none" stroke="#b75867" d="M1079,-123C1079,-123 982,-123 982,-123 976,-123 970,-117 970,-111 970,-111 970,-99 970,-99 970,-93 976,-87 982,-87 982,-87 1079,-87 1079,-87 1085,-87 1091,-93 1091,-99 1091,-99 1091,-111 1091,-111 1091,-117 1085,-123 1079,-123"/>
<text text-anchor="middle" x="1030.5" y="-101.9" font-family="sans" font-size="12.00" fill="#c4c7c7">Transitive Relation</text>
</a>
</g>
</g>
<!-- Relation&#45;&gt;Transitive Relation -->
<g id="edge19" class="edge">
<title>Relation&#45;&gt;Transitive Relation</title>
<path fill="none" stroke="#ffffff" d="M165.08,-108.07C170.81,-91.66 180.68,-72.2 197,-62 227.26,-43.09 321.82,-57 357.5,-57 357.5,-57 357.5,-57 476.5,-57 602.96,-57 634.85,-53.03 761,-62 764.57,-62.25 765.43,-62.68 769,-63 811.78,-66.78 920.36,-62.49 962,-73 974.2,-76.08 986.84,-81.42 997.84,-86.86"/>
<polygon fill="#ffffff" stroke="#ffffff" points="161.69,-107.19 162.03,-117.78 168.36,-109.29 161.69,-107.19"/>
</g>
<!-- Anti&#45;reflexive relation -->
<g id="node17" class="node">
<title>Anti&#45;reflexive relation</title>
<g id="a_node17"><a xlink:href="../Anti-reflexive relation.html" xlink:title="Anti&#45;reflexive relation" target="_parent">
<path fill="none" stroke="#b75867" d="M532.5,-151C532.5,-151 418.5,-151 418.5,-151 412.5,-151 406.5,-145 406.5,-139 406.5,-139 406.5,-127 406.5,-127 406.5,-121 412.5,-115 418.5,-115 418.5,-115 532.5,-115 532.5,-115 538.5,-115 544.5,-121 544.5,-127 544.5,-127 544.5,-139 544.5,-139 544.5,-145 538.5,-151 532.5,-151"/>
<text text-anchor="middle" x="475.5" y="-129.9" font-family="sans" font-size="12.00" fill="#c4c7c7">Anti&#45;reflexive relation</text>
</a>
</g>
</g>
<!-- Relation&#45;&gt;Anti&#45;reflexive relation -->
<g id="edge21" class="edge">
<title>Relation&#45;&gt;Anti&#45;reflexive relation</title>
<path fill="none" stroke="#ffffff" d="M186.62,-112.59C189.97,-110.73 193.46,-109.14 197,-108 238.52,-94.64 349.91,-111.24 393,-118 397.26,-118.67 401.65,-119.39 406.06,-120.13"/>
<polygon fill="#ffffff" stroke="#ffffff" points="184.7,-109.66 178.13,-117.97 188.45,-115.57 184.7,-109.66"/>
</g>
<!-- Strongly Anti&#45;symmetric Relation -->
<g id="node18" class="node">
<title>Strongly Anti&#45;symmetric Relation</title>
<g id="a_node18"><a xlink:href="../Strongly Anti-symmetric Relation.html" xlink:title="Strongly Anti&#45;symmetric Relation" target="_parent">
<path fill="none" stroke="#b75867" d="M749,-149C749,-149 570,-149 570,-149 564,-149 558,-143 558,-137 558,-137 558,-125 558,-125 558,-119 564,-113 570,-113 570,-113 749,-113 749,-113 755,-113 761,-119 761,-125 761,-125 761,-137 761,-137 761,-143 755,-149 749,-149"/>
<text text-anchor="middle" x="659.5" y="-127.9" font-family="sans" font-size="12.00" fill="#c4c7c7">Strongly Anti&#45;symmetric Relation</text>
</a>
</g>
</g>
<!-- Relation&#45;&gt;Strongly Anti&#45;symmetric Relation -->
<g id="edge22" class="edge">
<title>Relation&#45;&gt;Strongly Anti&#45;symmetric Relation</title>
<path fill="none" stroke="#ffffff" d="M198.92,-142.95C239.56,-148.87 298.29,-154.49 316,-141 326.64,-132.9 313.36,-120.1 324,-112 343.98,-96.79 524.98,-109.83 550,-112 553.24,-112.28 556.53,-112.61 559.84,-112.98"/>
<polygon fill="#ffffff" stroke="#ffffff" points="199.43,-139.48 189.02,-141.45 198.38,-146.41 199.43,-139.48"/>
</g>
<!-- Reflexive Closure&#45;&gt;Reflexive Relation -->
<g id="edge27" class="edge">
<title>Reflexive Closure&#45;&gt;Reflexive Relation</title>
<path fill="none" stroke="#b75867" d="M199.94,-218.35C175.89,-216.32 148.03,-211.27 125,-200 106.88,-191.13 90.51,-175.4 78.67,-161.75"/>
<polygon fill="#b75867" stroke="#b75867" points="81.33,-159.47 72.25,-154.02 75.95,-163.95 81.33,-159.47"/>
</g>
<!-- Reflexive Closure&#45;&gt;Relation -->
<g id="edge25" class="edge">
<title>Reflexive Closure&#45;&gt;Relation</title>
<path fill="none" stroke="#b75867" d="M200.95,-199.93C199.59,-199 198.27,-198.02 197,-197 185.84,-188.03 176.83,-174.99 170.29,-163.26"/>
<polygon fill="#b75867" stroke="#b75867" points="173.31,-161.48 165.58,-154.23 167.11,-164.72 173.31,-161.48"/>
</g>
<!-- Reflexive Closure&#45;&gt;Relations -->
<g id="edge28" class="edge">
<title>Reflexive Closure&#45;&gt;Relations</title>
<path fill="none" stroke="#ffffff" d="M322.92,-204.2C323.25,-204.13 323.58,-204.07 323.91,-204"/>
<polygon fill="#ffffff" stroke="#ffffff" points="322.19,-200.77 313.06,-206.14 323.54,-207.64 322.19,-200.77"/>
</g>
<!-- Reflexive Closure&#45;&gt;Relations -->
<g id="edge29" class="edge">
<title>Reflexive Closure&#45;&gt;Relations</title>
<path fill="none" stroke="#ffffff" d="M322.92,-204.92C323.25,-204.85 323.58,-204.78 323.91,-204.72"/>
<polygon fill="#ffffff" stroke="#ffffff" points="322.18,-201.5 313.06,-206.89 323.55,-208.36 322.18,-201.5"/>
</g>
<!-- Matrix -->
<g id="node19" class="node">
<title>Matrix</title>
<g id="a_node19"><a xlink:href="../Matrix.html" xlink:title="Matrix" target="_parent">
<path fill="#273434" stroke="#b75867" d="M373.5,-256C373.5,-256 343.5,-256 343.5,-256 337.5,-256 331.5,-250 331.5,-244 331.5,-244 331.5,-232 331.5,-232 331.5,-226 337.5,-220 343.5,-220 343.5,-220 373.5,-220 373.5,-220 379.5,-220 385.5,-226 385.5,-232 385.5,-232 385.5,-244 385.5,-244 385.5,-250 379.5,-256 373.5,-256"/>
<text text-anchor="middle" x="358.5" y="-234.9" font-family="sans" font-size="12.00" fill="#c4c7c7">Matrix</text>
</a>
</g>
</g>
<!-- Reflexive Closure&#45;&gt;Matrix -->
<g id="edge24" class="edge">
<title>Reflexive Closure&#45;&gt;Matrix</title>
<path fill="none" stroke="#b75867" d="M313.06,-229.11C315.81,-229.66 318.54,-230.21 321.21,-230.74"/>
<polygon fill="#b75867" stroke="#b75867" points="320.68,-234.21 331.18,-232.74 322.06,-227.34 320.68,-234.21"/>
</g>
<!-- Set -->
<g id="node20" class="node">
<title>Set</title>
<g id="a_node20"><a xlink:href="../Set.html" xlink:title="Set" target="_parent">
<path fill="#273434" stroke="#b75867" d="M674.5,-417C674.5,-417 644.5,-417 644.5,-417 638.5,-417 632.5,-411 632.5,-405 632.5,-405 632.5,-393 632.5,-393 632.5,-387 638.5,-381 644.5,-381 644.5,-381 674.5,-381 674.5,-381 680.5,-381 686.5,-387 686.5,-393 686.5,-393 686.5,-405 686.5,-405 686.5,-411 680.5,-417 674.5,-417"/>
<text text-anchor="middle" x="659.5" y="-395.9" font-family="sans" font-size="12.00" fill="#c4c7c7">Set</text>
</a>
</g>
</g>
<!-- Reflexive Closure&#45;&gt;Set -->
<g id="edge26" class="edge">
<title>Reflexive Closure&#45;&gt;Set</title>
<path fill="none" stroke="#b75867" d="M279.15,-236.24C306.24,-258.37 354.71,-295.72 401,-320 466.74,-354.48 486.7,-356.35 558,-377 579.09,-383.11 603.09,-388.42 622.35,-392.3"/>
<polygon fill="#b75867" stroke="#b75867" points="621.74,-395.74 632.23,-394.24 623.1,-388.88 621.74,-395.74"/>
</g>
<!-- Relation of Equivalence&#45;&gt;Reflexive Relation -->
<g id="edge35" class="edge">
<title>Relation of Equivalence&#45;&gt;Reflexive Relation</title>
<path fill="none" stroke="#b75867" d="M400.92,-299.59C325.73,-290.48 208.49,-267.07 125,-209 106.74,-196.3 89.94,-177.62 77.93,-162.34"/>
<polygon fill="#b75867" stroke="#b75867" points="80.61,-160.09 71.77,-154.26 75.05,-164.33 80.61,-160.09"/>
</g>
<!-- Relation of Equivalence&#45;&gt;Relation -->
<g id="edge36" class="edge">
<title>Relation of Equivalence&#45;&gt;Relation</title>
<path fill="none" stroke="#b75867" d="M403.72,-286.91C402.77,-285.98 401.86,-285.01 401,-284 383.54,-263.53 411.91,-243.13 393,-224 371.21,-201.96 346.07,-235.75 324,-214 307.97,-198.2 332.5,-179.31 316,-164 298.29,-147.57 235.55,-158.15 199.14,-153.5"/>
<polygon fill="#b75867" stroke="#b75867" points="199.66,-150.04 189.19,-151.64 198.38,-156.92 199.66,-150.04"/>
</g>
<!-- Relation of Equivalence&#45;&gt;Relations -->
<g id="edge38" class="edge">
<title>Relation of Equivalence&#45;&gt;Relations</title>
<path fill="none" stroke="#ffffff" d="M398.11,-278.58C388.1,-258.27 406.19,-242.14 393,-221 391.89,-219.23 390.59,-217.57 389.14,-216.02"/>
<polygon fill="#ffffff" stroke="#ffffff" points="395.23,-280.57 403.71,-286.91 401.03,-276.66 395.23,-280.57"/>
</g>
<!-- Relation of Equivalence&#45;&gt;Symmetric Relation -->
<g id="edge34" class="edge">
<title>Relation of Equivalence&#45;&gt;Symmetric Relation</title>
<path fill="none" stroke="#b75867" d="M544.38,-286.88C546.32,-285.67 548.2,-284.38 550,-283 555.38,-278.87 552.47,-273.93 558,-270 566.25,-264.15 575.76,-259.8 585.58,-256.59"/>
<polygon fill="#b75867" stroke="#b75867" points="586.83,-259.88 595.47,-253.75 584.89,-253.15 586.83,-259.88"/>
</g>
<!-- Relation of Equivalence&#45;&gt;Transitive Relation -->
<g id="edge33" class="edge">
<title>Relation of Equivalence&#45;&gt;Transitive Relation</title>
<path fill="none" stroke="#b75867" d="M550.11,-306.38C620.7,-307.22 722.11,-307.02 761,-300 854.24,-283.17 889.9,-290.46 962,-229 992.07,-203.37 1011.03,-160.85 1020.96,-132.87"/>
<polygon fill="#b75867" stroke="#b75867" points="1024.31,-133.88 1024.21,-123.28 1017.68,-131.63 1024.31,-133.88"/>
</g>
<!-- Relation of Equivalence&#45;&gt;Set -->
<g id="edge31" class="edge">
<title>Relation of Equivalence&#45;&gt;Set</title>
<path fill="none" stroke="#b75867" d="M546.07,-323.05C547.46,-324.28 548.77,-325.6 550,-327 564.83,-343.93 542.55,-360.64 558,-377 574.23,-394.18 600.54,-399.48 622.17,-400.59"/>
<polygon fill="#b75867" stroke="#b75867" points="622.27,-404.09 632.35,-400.83 622.43,-397.09 622.27,-404.09"/>
</g>
<!-- Class of equivalence -->
<g id="node21" class="node">
<title>Class of equivalence</title>
<g id="a_node21"><a xlink:href="../Class of equivalence.html" xlink:title="Class of equivalence" target="_parent">
<path fill="#273434" stroke="#b75867" d="M713,-303C713,-303 606,-303 606,-303 600,-303 594,-297 594,-291 594,-291 594,-279 594,-279 594,-273 600,-267 606,-267 606,-267 713,-267 713,-267 719,-267 725,-273 725,-279 725,-279 725,-291 725,-291 725,-297 719,-303 713,-303"/>
<text text-anchor="middle" x="659.5" y="-281.9" font-family="sans" font-size="12.00" fill="#c4c7c7">Class of equivalence</text>
</a>
</g>
</g>
<!-- Relation of Equivalence&#45;&gt;Class of equivalence -->
<g id="edge30" class="edge">
<title>Relation of Equivalence&#45;&gt;Class of equivalence</title>
<path fill="none" stroke="#b75867" d="M550,-296.92C561.11,-295.7 572.57,-294.44 583.7,-293.22"/>
<polygon fill="#b75867" stroke="#b75867" points="584.25,-296.68 593.81,-292.11 583.49,-289.72 584.25,-296.68"/>
</g>
<!-- Partition -->
<g id="node22" class="node">
<title>Partition</title>
<g id="a_node22"><a xlink:href="../Partition.html" xlink:title="Partition" target="_parent">
<path fill="#273434" stroke="#b75867" d="M680,-343C680,-343 639,-343 639,-343 633,-343 627,-337 627,-331 627,-331 627,-319 627,-319 627,-313 633,-307 639,-307 639,-307 680,-307 680,-307 686,-307 692,-313 692,-319 692,-319 692,-331 692,-331 692,-337 686,-343 680,-343"/>
<text text-anchor="middle" x="659.5" y="-321.9" font-family="sans" font-size="12.00" fill="#c4c7c7">Partition</text>
</a>
</g>
</g>
<!-- Relation of Equivalence&#45;&gt;Partition -->
<g id="edge32" class="edge">
<title>Relation of Equivalence&#45;&gt;Partition</title>
<path fill="none" stroke="#b75867" d="M550,-313.08C572.58,-315.56 596.65,-318.2 616.37,-320.37"/>
<polygon fill="#b75867" stroke="#b75867" points="616.23,-323.88 626.55,-321.49 616.99,-316.92 616.23,-323.88"/>
</g>
<!-- Principle of division -->
<g id="node23" class="node">
<title>Principle of division</title>
<g id="a_node23"><a xlink:href="../Principle of division.html" xlink:title="Principle of division" target="_parent">
<path fill="none" stroke="#b75867" d="M710.5,-380C710.5,-380 608.5,-380 608.5,-380 602.5,-380 596.5,-374 596.5,-368 596.5,-368 596.5,-356 596.5,-356 596.5,-350 602.5,-344 608.5,-344 608.5,-344 710.5,-344 710.5,-344 716.5,-344 722.5,-350 722.5,-356 722.5,-356 722.5,-368 722.5,-368 722.5,-374 716.5,-380 710.5,-380"/>
<text text-anchor="middle" x="659.5" y="-358.9" font-family="sans" font-size="12.00" fill="#c4c7c7">Principle of division</text>
</a>
</g>
</g>
<!-- Relation of Equivalence&#45;&gt;Principle of division -->
<g id="edge37" class="edge">
<title>Relation of Equivalence&#45;&gt;Principle of division</title>
<path fill="none" stroke="#ffffff" d="M551.7,-330.38C554.38,-334.41 554.37,-337.42 558,-340 569.21,-347.96 582.78,-353.12 596.26,-356.45"/>
<polygon fill="#ffffff" stroke="#ffffff" points="553.94,-327.67 544.38,-323.12 549.01,-332.64 553.94,-327.67"/>
</g>
<!-- Relations&#45;&gt;Reflexive Relation -->
<g id="edge56" class="edge">
<title>Relations&#45;&gt;Reflexive Relation</title>
<path fill="none" stroke="#b75867" d="M323.88,-201.2C291.11,-203 240.06,-203.27 197,-194 163.33,-186.75 127.45,-171.6 100.78,-158.6"/>
<polygon fill="#b75867" stroke="#b75867" points="102.27,-155.43 91.76,-154.1 99.15,-161.69 102.27,-155.43"/>
</g>
<!-- Relations&#45;&gt;Relation -->
<g id="edge57" class="edge">
<title>Relations&#45;&gt;Relation</title>
<path fill="none" stroke="#b75867" d="M341.62,-179.75C334.56,-172.66 325.67,-165.23 316,-161 270.23,-140.96 251.14,-159.79 199.36,-151"/>
<polygon fill="#b75867" stroke="#b75867" points="199.78,-147.52 189.3,-149.02 198.43,-154.39 199.78,-147.52"/>
</g>
<!-- Relations&#45;&gt;Reflexive Closure -->
<g id="edge47" class="edge">
<title>Relations&#45;&gt;Reflexive Closure</title>
<path fill="none" stroke="#b75867" d="M323.91,-205.43C323.58,-205.5 323.25,-205.57 322.92,-205.63"/>
<polygon fill="#b75867" stroke="#b75867" points="322.16,-202.22 313.06,-207.63 323.55,-209.08 322.16,-202.22"/>
</g>
<!-- Relations&#45;&gt;Reflexive Closure -->
<g id="edge50" class="edge">
<title>Relations&#45;&gt;Reflexive Closure</title>
<path fill="none" stroke="#b75867" d="M323.91,-206.14C323.58,-206.21 323.25,-206.28 322.92,-206.35"/>
<polygon fill="#b75867" stroke="#b75867" points="322.15,-202.94 313.06,-208.38 323.56,-209.79 322.15,-202.94"/>
</g>
<!-- Relations&#45;&gt;Relation of Equivalence -->
<g id="edge44" class="edge">
<title>Relations&#45;&gt;Relation of Equivalence</title>
<path fill="none" stroke="#b75867" d="M390.27,-216.29C391.27,-217.46 392.19,-218.7 393,-220 406.25,-241.23 387.94,-257.42 398.84,-278.43"/>
<polygon fill="#b75867" stroke="#b75867" points="396.02,-280.49 404.58,-286.73 401.78,-276.52 396.02,-280.49"/>
</g>
<!-- Relations&#45;&gt;Linear order -->
<g id="edge41" class="edge">
<title>Relations&#45;&gt;Linear order</title>
<path fill="none" stroke="#b75867" d="M364.14,-179.81C369.85,-160.93 381.28,-131.72 401,-114 407.32,-108.32 414.94,-103.8 422.85,-100.22"/>
<polygon fill="#b75867" stroke="#b75867" points="424.25,-103.43 432.2,-96.43 421.62,-96.94 424.25,-103.43"/>
</g>
<!-- Relations&#45;&gt;Partial order -->
<g id="edge42" class="edge">
<title>Relations&#45;&gt;Partial order</title>
<path fill="none" stroke="#b75867" d="M393.02,-195.56C395.72,-195.37 398.41,-195.18 401,-195 417.55,-193.85 538.02,-196.48 550,-185 561.78,-173.71 547.84,-124.77 558,-112 569.85,-97.12 588.41,-88.55 606.38,-83.62"/>
<polygon fill="#b75867" stroke="#b75867" points="607.36,-86.98 616.26,-81.24 605.72,-80.18 607.36,-86.98"/>
</g>
<!-- Relations&#45;&gt;Anti&#45;symmetric Relation -->
<g id="edge53" class="edge">
<title>Relations&#45;&gt;Anti&#45;symmetric Relation</title>
<path fill="none" stroke="#b75867" d="M393.27,-198.36C431.39,-198.53 495.24,-198.05 550,-194 628.02,-188.24 716.37,-176.54 779.51,-167.28"/>
<polygon fill="#b75867" stroke="#b75867" points="780.04,-170.74 789.42,-165.81 779.02,-163.81 780.04,-170.74"/>
</g>
<!-- Relations&#45;&gt;Chain -->
<g id="edge39" class="edge">
<title>Relations&#45;&gt;Chain</title>
<path fill="none" stroke="#b75867" d="M393.09,-199.15C513.85,-202.93 921.03,-212.62 962,-173 975.96,-159.5 959.18,-102.12 970,-86 975.79,-77.37 984.78,-70.99 994.03,-66.34"/>
<polygon fill="#b75867" stroke="#b75867" points="995.53,-69.5 1003.25,-62.24 992.69,-63.1 995.53,-69.5"/>
</g>
<!-- Relations&#45;&gt;Symmetric Closure -->
<g id="edge46" class="edge">
<title>Relations&#45;&gt;Symmetric Closure</title>
<path fill="none" stroke="#b75867" d="M393.07,-189.83C396.52,-188.99 400.12,-188.11 403.78,-187.22"/>
<polygon fill="#b75867" stroke="#b75867" points="404.74,-190.59 413.62,-184.82 403.08,-183.79 404.74,-190.59"/>
</g>
<!-- Relations&#45;&gt;Symmetric Closure -->
<g id="edge48" class="edge">
<title>Relations&#45;&gt;Symmetric Closure</title>
<path fill="none" stroke="#b75867" d="M393.07,-190.51C396.52,-189.69 400.12,-188.83 403.78,-187.95"/>
<polygon fill="#b75867" stroke="#b75867" points="404.73,-191.32 413.62,-185.57 403.08,-184.52 404.73,-191.32"/>
</g>
<!-- Relations&#45;&gt;Symmetric Relation -->
<g id="edge54" class="edge">
<title>Relations&#45;&gt;Symmetric Relation</title>
<path fill="none" stroke="#b75867" d="M390.25,-216.3C391.26,-217.47 392.18,-218.71 393,-220 406.69,-241.61 381.69,-260.22 401,-277 413.49,-287.86 534.5,-282.82 550,-277 554.42,-275.34 553.78,-272.13 558,-270 566.58,-265.67 575.99,-262.19 585.51,-259.39"/>
<polygon fill="#b75867" stroke="#b75867" points="586.69,-262.7 595.44,-256.72 584.87,-255.94 586.69,-262.7"/>
</g>
<!-- Relations&#45;&gt;Transitive Relation -->
<g id="edge51" class="edge">
<title>Relations&#45;&gt;Transitive Relation</title>
<path fill="none" stroke="#b75867" d="M390.23,-216.31C391.25,-217.48 392.18,-218.71 393,-220 406.06,-240.45 382.63,-258.15 401,-274 413.54,-284.81 537.22,-284.53 550,-274 564.33,-262.2 544.12,-245.33 558,-233 625.32,-173.23 883.91,-247.8 962,-203 989.28,-187.35 1007.99,-155.65 1018.67,-132.53"/>
<polygon fill="#b75867" stroke="#b75867" points="1021.94,-133.78 1022.76,-123.22 1015.53,-130.97 1021.94,-133.78"/>
</g>
<!-- Relations&#45;&gt;Anti&#45;reflexive relation -->
<g id="edge55" class="edge">
<title>Relations&#45;&gt;Anti&#45;reflexive relation</title>
<path fill="none" stroke="#b75867" d="M373.19,-179.97C379.25,-172.88 386.93,-164.98 399.27,-156.63"/>
<polygon fill="#b75867" stroke="#b75867" points="401.48,-159.37 408.08,-151.09 397.75,-153.45 401.48,-159.37"/>
</g>
<!-- Relations&#45;&gt;Strongly Anti&#45;symmetric Relation -->
<g id="edge52" class="edge">
<title>Relations&#45;&gt;Strongly Anti&#45;symmetric Relation</title>
<path fill="none" stroke="#b75867" d="M393.12,-197.28C446.21,-195.99 544.11,-192.96 550,-188 559.92,-179.66 551.52,-169.18 556.45,-157.42"/>
<polygon fill="#b75867" stroke="#b75867" points="559.43,-159.26 562.38,-149.08 553.73,-155.2 559.43,-159.26"/>
</g>
<!-- Relations&#45;&gt;Class of equivalence -->
<g id="edge43" class="edge">
<title>Relations&#45;&gt;Class of equivalence</title>
<path fill="none" stroke="#b75867" d="M390.26,-216.29C391.26,-217.47 392.19,-218.7 393,-220 407.32,-242.78 380.93,-262.08 401,-280 414.39,-291.96 512.32,-290.88 583.45,-288.42"/>
<polygon fill="#b75867" stroke="#b75867" points="583.87,-291.9 593.74,-288.04 583.62,-284.91 583.87,-291.9"/>
</g>
<!-- Linear extension -->
<g id="node24" class="node">
<title>Linear extension</title>
<g id="a_node24"><a xlink:href="../Linear extension.html" xlink:title="Linear extension" target="_parent">
<path fill="#273434" stroke="#b75867" d="M908.5,-109C908.5,-109 822.5,-109 822.5,-109 816.5,-109 810.5,-103 810.5,-97 810.5,-97 810.5,-85 810.5,-85 810.5,-79 816.5,-73 822.5,-73 822.5,-73 908.5,-73 908.5,-73 914.5,-73 920.5,-79 920.5,-85 920.5,-85 920.5,-97 920.5,-97 920.5,-103 914.5,-109 908.5,-109"/>
<text text-anchor="middle" x="865.5" y="-87.9" font-family="sans" font-size="12.00" fill="#c4c7c7">Linear extension</text>
</a>
</g>
</g>
<!-- Relations&#45;&gt;Linear extension -->
<g id="edge40" class="edge">
<title>Relations&#45;&gt;Linear extension</title>
<path fill="none" stroke="#b75867" d="M393.29,-198.75C444.63,-199.6 537.63,-199.87 550,-191 558.12,-185.18 550.12,-176.14 558,-170 629.65,-114.14 682.61,-191.92 761,-146 766.22,-142.94 764.33,-138.83 769,-135 779.24,-126.61 791.34,-119.44 803.42,-113.47"/>
<polygon fill="#b75867" stroke="#b75867" points="805.07,-116.57 812.63,-109.15 802.09,-110.23 805.07,-116.57"/>
</g>
<!-- Transitive Closure -->
<g id="node25" class="node">
<title>Transitive Closure</title>
<g id="a_node25"><a xlink:href="../Transitive Closure.html" xlink:title="Transitive Closure" target="_parent">
<path fill="#273434" stroke="#b75867" d="M521.5,-277C521.5,-277 429.5,-277 429.5,-277 423.5,-277 417.5,-271 417.5,-265 417.5,-265 417.5,-253 417.5,-253 417.5,-247 423.5,-241 429.5,-241 429.5,-241 521.5,-241 521.5,-241 527.5,-241 533.5,-247 533.5,-253 533.5,-253 533.5,-265 533.5,-265 533.5,-271 527.5,-277 521.5,-277"/>
<text text-anchor="middle" x="475.5" y="-255.9" font-family="sans" font-size="12.00" fill="#c4c7c7">Transitive Closure</text>
</a>
</g>
</g>
<!-- Relations&#45;&gt;Transitive Closure -->
<g id="edge45" class="edge">
<title>Relations&#45;&gt;Transitive Closure</title>
<path fill="none" stroke="#b75867" d="M389.16,-216.06C390.52,-217.32 391.81,-218.63 393,-220 398.47,-226.31 394.67,-231.55 401,-237 403.35,-239.02 405.87,-240.86 408.53,-242.52"/>
<polygon fill="#b75867" stroke="#b75867" points="406.91,-245.63 417.38,-247.29 410.24,-239.47 406.91,-245.63"/>
</g>
<!-- Relations&#45;&gt;Transitive Closure -->
<g id="edge49" class="edge">
<title>Relations&#45;&gt;Transitive Closure</title>
<path fill="none" stroke="#b75867" d="M388.21,-216.19C389.92,-217.71 391.54,-219.32 393,-221 398.47,-227.31 394.67,-232.55 401,-238 403.35,-240.02 405.87,-241.86 408.53,-243.52"/>
<polygon fill="#b75867" stroke="#b75867" points="406.91,-246.63 417.38,-248.29 410.23,-240.46 406.91,-246.63"/>
</g>
<!-- Discrete Structures -->
<g id="node26" class="node">
<title>Discrete Structures</title>
<g id="a_node26"><a xlink:href="../Discrete Structures.html" xlink:title="Discrete Structures" target="_parent">
<path fill="none" stroke="#b75867" d="M524.5,-240C524.5,-240 426.5,-240 426.5,-240 420.5,-240 414.5,-234 414.5,-228 414.5,-228 414.5,-216 414.5,-216 414.5,-210 420.5,-204 426.5,-204 426.5,-204 524.5,-204 524.5,-204 530.5,-204 536.5,-210 536.5,-216 536.5,-216 536.5,-228 536.5,-228 536.5,-234 530.5,-240 524.5,-240"/>
<text text-anchor="middle" x="475.5" y="-218.9" font-family="sans" font-size="12.00" fill="#c4c7c7">Discrete Structures</text>
</a>
</g>
</g>
<!-- Relations&#45;&gt;Discrete Structures -->
<g id="edge58" class="edge">
<title>Relations&#45;&gt;Discrete Structures</title>
<path fill="none" stroke="#ffffff" d="M402.89,-207.05C406.69,-207.85 410.58,-208.66 414.49,-209.48"/>
<polygon fill="#ffffff" stroke="#ffffff" points="403.58,-203.62 393.07,-205.01 402.15,-210.48 403.58,-203.62"/>
</g>
<!-- Linear order&#45;&gt;Reflexive Relation -->
<g id="edge62" class="edge">
<title>Linear order&#45;&gt;Reflexive Relation</title>
<path fill="none" stroke="#b75867" d="M432.42,-74.36C377.42,-59.31 278.52,-38.73 197,-60 158.47,-70.05 119.31,-93.57 92.68,-111.8"/>
<polygon fill="#b75867" stroke="#b75867" points="90.35,-109.16 84.15,-117.75 94.36,-114.9 90.35,-109.16"/>
</g>
<!-- Linear order&#45;&gt;Relation -->
<g id="edge63" class="edge">
<title>Linear order&#45;&gt;Relation</title>
<path fill="none" stroke="#b75867" d="M432.29,-89.66C357.32,-93.85 207.77,-101.85 197,-106 193.01,-107.54 189.1,-109.65 185.39,-112.03"/>
<polygon fill="#b75867" stroke="#b75867" points="183.23,-109.28 177.17,-117.97 187.32,-114.95 183.23,-109.28"/>
</g>
<!-- Linear order&#45;&gt;Relations -->
<g id="edge65" class="edge">
<title>Linear order&#45;&gt;Relations</title>
<path fill="none" stroke="#ffffff" d="M422.85,-101.21C414.94,-104.8 407.32,-109.32 401,-115 381.52,-132.5 370.13,-161.21 364.36,-179.86"/>
<polygon fill="#ffffff" stroke="#ffffff" points="424.26,-104.41 432.2,-97.39 421.62,-97.93 424.26,-104.41"/>
</g>
<!-- Linear order&#45;&gt;Partial order -->
<g id="edge59" class="edge">
<title>Linear order&#45;&gt;Partial order</title>
<path fill="none" stroke="#b75867" d="M518.71,-84.68C544.69,-83.25 578.2,-81.41 605.9,-79.89"/>
<polygon fill="#b75867" stroke="#b75867" points="606.41,-83.37 616.2,-79.32 606.03,-76.38 606.41,-83.37"/>
</g>
<!-- Linear order&#45;&gt;Transitive Relation -->
<g id="edge60" class="edge">
<title>Linear order&#45;&gt;Transitive Relation</title>
<path fill="none" stroke="#b75867" d="M518.78,-90.87C531.39,-91.95 545.25,-93.09 558,-94 651.69,-100.69 675.11,-103.33 769,-106 851.56,-108.35 874.54,-106.76 959.74,-106.01"/>
<polygon fill="#b75867" stroke="#b75867" points="959.9,-109.51 969.87,-105.93 959.84,-102.51 959.9,-109.51"/>
</g>
<!-- Linear order&#45;&gt;Strongly Anti&#45;symmetric Relation -->
<g id="edge61" class="edge">
<title>Linear order&#45;&gt;Strongly Anti&#45;symmetric Relation</title>
<path fill="none" stroke="#b75867" d="M518.7,-98.81C531.31,-102.22 545.19,-105.87 558,-109 560.31,-109.56 562.64,-110.13 565,-110.69"/>
<polygon fill="#b75867" stroke="#b75867" points="564.26,-114.11 574.8,-113 565.87,-107.3 564.26,-114.11"/>
</g>
<!-- Linear order&#45;&gt;Linear extension -->
<g id="edge64" class="edge">
<title>Linear order&#45;&gt;Linear extension</title>
<path fill="none" stroke="#ffffff" d="M529.05,-90.7C538.67,-91.24 548.64,-91.71 558,-92 646.29,-94.71 748.95,-93.48 810.23,-92.29"/>
<polygon fill="#ffffff" stroke="#ffffff" points="528.97,-87.19 518.78,-90.09 528.55,-94.18 528.97,-87.19"/>
</g>
<!-- Partial orders have no contours&#45;&gt;Reflexive Relation -->
<g id="edge69" class="edge">
<title>Partial orders have no contours&#45;&gt;Reflexive Relation</title>
<path fill="none" stroke="#b75867" d="M768.83,-48.81C690.3,-49 576.19,-49 476.5,-49 255.5,-49 255.5,-49 255.5,-49 197.46,-49 176.74,-27.69 125,-54 101.8,-65.8 84.21,-89.99 73.12,-109.06"/>
<polygon fill="#b75867" stroke="#b75867" points="69.99,-107.49 68.21,-117.93 76.12,-110.88 69.99,-107.49"/>
</g>
<!-- Partial orders have no contours&#45;&gt;Partial order -->
<g id="edge67" class="edge">
<title>Partial orders have no contours&#45;&gt;Partial order</title>
<path fill="none" stroke="#b75867" d="M768.87,-62.34C749.65,-65.08 730.14,-67.83 713.06,-70.19"/>
<polygon fill="#b75867" stroke="#b75867" points="712.2,-66.78 702.77,-71.61 713.15,-73.71 712.2,-66.78"/>
</g>
<!-- Partial orders have no contours&#45;&gt;Chain -->
<g id="edge70" class="edge">
<title>Partial orders have no contours&#45;&gt;Chain</title>
<path fill="none" stroke="#ffffff" d="M972.4,-52.55C983.76,-53.04 994.43,-53.49 1003.39,-53.88"/>
<polygon fill="#ffffff" stroke="#ffffff" points="972.4,-49.04 962.26,-52.11 972.1,-56.04 972.4,-49.04"/>
</g>
<!-- Partial orders have no contours&#45;&gt;Transitive Relation -->
<g id="edge68" class="edge">
<title>Partial orders have no contours&#45;&gt;Transitive Relation</title>
<path fill="none" stroke="#b75867" d="M950.45,-66.06C954.38,-67.31 958.25,-68.62 962,-70 971.2,-73.38 980.73,-77.74 989.64,-82.23"/>
<polygon fill="#b75867" stroke="#b75867" points="988.17,-85.41 998.65,-86.92 991.4,-79.2 988.17,-85.41"/>
</g>
<!-- Contour -->
<g id="node27" class="node">
<title>Contour</title>
<g id="a_node27"><a xlink:href="../Contour.html" xlink:title="Contour" target="_parent">
<path fill="#273434" stroke="#b75867" d="M1050,-36C1050,-36 1011,-36 1011,-36 1005,-36 999,-30 999,-24 999,-24 999,-12 999,-12 999,-6 1005,0 1011,0 1011,0 1050,0 1050,0 1056,0 1062,-6 1062,-12 1062,-12 1062,-24 1062,-24 1062,-30 1056,-36 1050,-36"/>
<text text-anchor="middle" x="1030.5" y="-14.9" font-family="sans" font-size="12.00" fill="#c4c7c7">Contour</text>
</a>
</g>
</g>
<!-- Partial orders have no contours&#45;&gt;Contour -->
<g id="edge66" class="edge">
<title>Partial orders have no contours&#45;&gt;Contour</title>
<path fill="none" stroke="#b75867" d="M962.26,-30.38C971.52,-28.67 980.52,-27.01 988.78,-25.5"/>
<polygon fill="#b75867" stroke="#b75867" points="989.59,-28.9 998.79,-23.65 988.32,-22.02 989.59,-28.9"/>
</g>
<!-- Partial order&#45;&gt;Reflexive Relation -->
<g id="edge73" class="edge">
<title>Partial order&#45;&gt;Reflexive Relation</title>
<path fill="none" stroke="#b75867" d="M616.02,-71.64C558.14,-64.29 451.21,-52 359.5,-52 255.5,-52 255.5,-52 255.5,-52 197.29,-52 177.02,-36.89 125,-63 104.56,-73.26 87.64,-92.9 76.13,-109.23"/>
<polygon fill="#b75867" stroke="#b75867" points="72.98,-107.63 70.3,-117.88 78.79,-111.55 72.98,-107.63"/>
</g>
<!-- Partial order&#45;&gt;Relation -->
<g id="edge74" class="edge">
<title>Partial order&#45;&gt;Relation</title>
<path fill="none" stroke="#b75867" d="M616.26,-75.51C596.2,-74.58 571.87,-73.5 550,-73 483.8,-71.48 466.78,-65.37 401,-73 362.45,-77.47 354.33,-86.91 316,-93 289.79,-97.16 221.44,-92.66 197,-103 192.06,-105.09 187.3,-108.06 182.91,-111.36"/>
<polygon fill="#b75867" stroke="#b75867" points="180.4,-108.9 174.97,-118 184.88,-114.27 180.4,-108.9"/>
</g>
<!-- Partial order&#45;&gt;Relations -->
<g id="edge76" class="edge">
<title>Partial order&#45;&gt;Relations</title>
<path fill="none" stroke="#ffffff" d="M606.38,-84.55C588.41,-89.55 569.85,-98.12 558,-113 547.84,-125.77 561.78,-174.71 550,-186 538.02,-197.48 417.55,-194.85 401,-196 398.41,-196.18 395.72,-196.37 393.02,-196.56"/>
<polygon fill="#ffffff" stroke="#ffffff" points="607.38,-87.91 616.26,-82.13 605.71,-81.11 607.38,-87.91"/>
</g>
<!-- Partial order&#45;&gt;Linear order -->
<g id="edge77" class="edge">
<title>Partial order&#45;&gt;Linear order</title>
<path fill="none" stroke="#ffffff" d="M605.9,-80.58C578.2,-82.2 544.69,-84.02 518.71,-85.33"/>
<polygon fill="#ffffff" stroke="#ffffff" points="606.43,-84.05 616.2,-79.97 606.01,-77.06 606.43,-84.05"/>
</g>
<!-- Partial order&#45;&gt;Partial orders have no contours -->
<g id="edge78" class="edge">
<title>Partial order&#45;&gt;Partial orders have no contours</title>
<path fill="none" stroke="#ffffff" d="M713.06,-69.53C730.14,-67.1 749.65,-64.33 768.87,-61.59"/>
<polygon fill="#ffffff" stroke="#ffffff" points="712.18,-66.12 702.77,-70.99 713.16,-73.05 712.18,-66.12"/>
</g>
<!-- Partial order&#45;&gt;Anti&#45;symmetric Relation -->
<g id="edge72" class="edge">
<title>Partial order&#45;&gt;Anti&#45;symmetric Relation</title>
<path fill="none" stroke="#b75867" d="M702.72,-91.18C720.75,-97.37 741.98,-104.83 761,-112 777.69,-118.29 795.74,-125.48 812.02,-132.11"/>
<polygon fill="#b75867" stroke="#b75867" points="810.8,-135.39 821.38,-135.94 813.45,-128.91 810.8,-135.39"/>
</g>
<!-- Partial order&#45;&gt;Transitive Relation -->
<g id="edge71" class="edge">
<title>Partial order&#45;&gt;Transitive Relation</title>
<path fill="none" stroke="#b75867" d="M702.53,-74.74C773.42,-71.29 913.74,-66.07 962,-76 969.82,-77.61 977.85,-80.16 985.52,-83.11"/>
<polygon fill="#b75867" stroke="#b75867" points="984.42,-86.44 995,-87 987.08,-79.96 984.42,-86.44"/>
</g>
<!-- Partial order&#45;&gt;Linear extension -->
<g id="edge75" class="edge">
<title>Partial order&#45;&gt;Linear extension</title>
<path fill="none" stroke="#ffffff" d="M712.99,-80.6C742.82,-82.65 780.12,-85.21 810.25,-87.28"/>
<polygon fill="#ffffff" stroke="#ffffff" points="712.99,-77.09 702.77,-79.9 712.51,-84.08 712.99,-77.09"/>
</g>
</g>
</svg>
