<?xml version="1.0" encoding="UTF-8" standalone="no"?>
<!DOCTYPE svg PUBLIC "-//W3C//DTD SVG 1.1//EN"
 "http://www.w3.org/Graphics/SVG/1.1/DTD/svg11.dtd">
<!-- Generated by graphviz version 2.46.1 (0)
 -->
<!-- Title: Reflexive Closure Pages: 1 -->
<svg width="678pt" height="824pt"
 viewBox="0.00 0.00 678.00 824.34" xmlns="http://www.w3.org/2000/svg" xmlns:xlink="http://www.w3.org/1999/xlink">
<g id="graph0" class="graph" transform="scale(1 1) rotate(0) translate(4 820.34)">
<title>Reflexive Closure</title>
<polygon fill="#132020" stroke="transparent" points="-4,4 -4,-820.34 674,-820.34 674,4 -4,4"/>
<!-- Reflexive Closure -->
<g id="node1" class="node">
<title>Reflexive Closure</title>
<g id="a_node1"><a xlink:href="/Knowledge/reflexive_closure.html" xlink:title="Reflexive Closure" target="_parent">
<path fill="#273434" stroke="#b75867" d="M90,-381.34C90,-381.34 12,-381.34 12,-381.34 6,-381.34 0,-375.34 0,-369.34 0,-369.34 0,-357.34 0,-357.34 0,-351.34 6,-345.34 12,-345.34 12,-345.34 90,-345.34 90,-345.34 96,-345.34 102,-351.34 102,-357.34 102,-357.34 102,-369.34 102,-369.34 102,-375.34 96,-381.34 90,-381.34"/>
<text text-anchor="middle" x="51" y="-360.24" font-family="sans" font-size="12.00" fill="#c4c7c7">Reflexive Closure</text>
</a>
</g>
</g>
<!-- Matrix -->
<g id="node2" class="node">
<title>Matrix</title>
<g id="a_node2"><a xlink:href="/Knowledge/matrix.html" xlink:title="Matrix" target="_parent">
<path fill="#273434" stroke="#b75867" d="M154.5,-401.34C154.5,-401.34 124.5,-401.34 124.5,-401.34 118.5,-401.34 112.5,-395.34 112.5,-389.34 112.5,-389.34 112.5,-377.34 112.5,-377.34 112.5,-371.34 118.5,-365.34 124.5,-365.34 124.5,-365.34 154.5,-365.34 154.5,-365.34 160.5,-365.34 166.5,-371.34 166.5,-377.34 166.5,-377.34 166.5,-389.34 166.5,-389.34 166.5,-395.34 160.5,-401.34 154.5,-401.34"/>
<text text-anchor="middle" x="139.5" y="-380.24" font-family="sans" font-size="12.00" fill="#c4c7c7">Matrix</text>
</a>
</g>
</g>
<!-- Reflexive Closure&#45;&gt;Matrix -->
<g id="edge1" class="edge">
<title>Reflexive Closure&#45;&gt;Matrix</title>
<path fill="none" stroke="#b75867" d="M102.07,-374.91C102.17,-374.94 102.28,-374.96 102.39,-374.99"/>
<polygon fill="#b75867" stroke="#b75867" points="101.58,-378.39 112.11,-377.23 103.16,-371.57 101.58,-378.39"/>
</g>
<!-- Relation -->
<g id="node3" class="node">
<title>Relation</title>
<g id="a_node3"><a xlink:href="/Knowledge/relation.html" xlink:title="Relation" target="_parent">
<path fill="#273434" stroke="#b75867" d="M157,-309.34C157,-309.34 122,-309.34 122,-309.34 116,-309.34 110,-303.34 110,-297.34 110,-297.34 110,-285.34 110,-285.34 110,-279.34 116,-273.34 122,-273.34 122,-273.34 157,-273.34 157,-273.34 163,-273.34 169,-279.34 169,-285.34 169,-285.34 169,-297.34 169,-297.34 169,-303.34 163,-309.34 157,-309.34"/>
<text text-anchor="middle" x="139.5" y="-288.24" font-family="sans" font-size="12.00" fill="#c4c7c7">Relation</text>
</a>
</g>
</g>
<!-- Reflexive Closure&#45;&gt;Relation -->
<g id="edge2" class="edge">
<title>Reflexive Closure&#45;&gt;Relation</title>
<path fill="none" stroke="#b75867" d="M73.83,-345.17C84.48,-336.3 97.46,-325.5 108.98,-315.91"/>
<polygon fill="#b75867" stroke="#b75867" points="111.23,-318.59 116.68,-309.5 106.75,-313.21 111.23,-318.59"/>
</g>
<!-- Set -->
<g id="node4" class="node">
<title>Set</title>
<g id="a_node4"><a xlink:href="/Knowledge/set.html" xlink:title="Set" target="_parent">
<path fill="#273434" stroke="#b75867" d="M395,-594.34C395,-594.34 365,-594.34 365,-594.34 359,-594.34 353,-588.34 353,-582.34 353,-582.34 353,-570.34 353,-570.34 353,-564.34 359,-558.34 365,-558.34 365,-558.34 395,-558.34 395,-558.34 401,-558.34 407,-564.34 407,-570.34 407,-570.34 407,-582.34 407,-582.34 407,-588.34 401,-594.34 395,-594.34"/>
<text text-anchor="middle" x="380" y="-573.24" font-family="sans" font-size="12.00" fill="#c4c7c7">Set</text>
</a>
</g>
</g>
<!-- Reflexive Closure&#45;&gt;Set -->
<g id="edge3" class="edge">
<title>Reflexive Closure&#45;&gt;Set</title>
<path fill="none" stroke="#b75867" d="M78.79,-381.49C88.58,-388.09 99.77,-395.59 110,-402.34 193.66,-457.51 292.81,-521.22 344.21,-554.11"/>
<polygon fill="#b75867" stroke="#b75867" points="342.62,-557.25 352.93,-559.69 346.39,-551.35 342.62,-557.25"/>
</g>
<!-- Reflexive Relation -->
<g id="node5" class="node">
<title>Reflexive Relation</title>
<g id="a_node5"><a xlink:href="/Knowledge/reflexive_relation.html" xlink:title="Reflexive Relation" target="_parent">
<path fill="#273434" stroke="#b75867" d="M272,-352.34C272,-352.34 190,-352.34 190,-352.34 184,-352.34 178,-346.34 178,-340.34 178,-340.34 178,-328.34 178,-328.34 178,-322.34 184,-316.34 190,-316.34 190,-316.34 272,-316.34 272,-316.34 278,-316.34 284,-322.34 284,-328.34 284,-328.34 284,-340.34 284,-340.34 284,-346.34 278,-352.34 272,-352.34"/>
<text text-anchor="middle" x="231" y="-331.24" font-family="sans" font-size="12.00" fill="#c4c7c7">Reflexive Relation</text>
</a>
</g>
</g>
<!-- Reflexive Closure&#45;&gt;Reflexive Relation -->
<g id="edge4" class="edge">
<title>Reflexive Closure&#45;&gt;Reflexive Relation</title>
<path fill="none" stroke="#b75867" d="M102.06,-355.18C122.47,-351.85 146.3,-347.97 167.81,-344.47"/>
<polygon fill="#b75867" stroke="#b75867" points="168.53,-347.9 177.84,-342.83 167.41,-340.99 168.53,-347.9"/>
</g>
<!-- Relations -->
<g id="node6" class="node">
<title>Relations</title>
<g id="a_node6"><a xlink:href="/Knowledge/relations.html" xlink:title="Relations" target="_parent">
<path fill="none" stroke="#b75867" d="M400,-352.34C400,-352.34 360,-352.34 360,-352.34 354,-352.34 348,-346.34 348,-340.34 348,-340.34 348,-328.34 348,-328.34 348,-322.34 354,-316.34 360,-316.34 360,-316.34 400,-316.34 400,-316.34 406,-316.34 412,-322.34 412,-328.34 412,-328.34 412,-340.34 412,-340.34 412,-346.34 406,-352.34 400,-352.34"/>
<text text-anchor="middle" x="380" y="-331.24" font-family="sans" font-size="12.00" fill="#c4c7c7">Relations</text>
</a>
</g>
</g>
<!-- Reflexive Closure&#45;&gt;Relations -->
<g id="edge5" class="edge">
<title>Reflexive Closure&#45;&gt;Relations</title>
<path fill="none" stroke="#ffffff" d="M112.23,-362.52C159.4,-361.71 226.59,-359.45 285,-352.34 306.16,-349.76 329.66,-345.01 347.87,-341.03"/>
<polygon fill="#ffffff" stroke="#ffffff" points="112.13,-359.02 102.18,-362.67 112.23,-366.02 112.13,-359.02"/>
</g>
<!-- Reflexive Closure&#45;&gt;Relations -->
<g id="edge6" class="edge">
<title>Reflexive Closure&#45;&gt;Relations</title>
<path fill="none" stroke="#ffffff" d="M112.23,-363.33C159.4,-362.71 226.59,-360.45 285,-353.34 306.16,-350.76 329.66,-346.01 347.87,-341.9"/>
<polygon fill="#ffffff" stroke="#ffffff" points="112.14,-359.83 102.18,-363.44 112.22,-366.83 112.14,-359.83"/>
</g>
<!-- Matrix&#45;&gt;Reflexive Closure -->
<g id="edge8" class="edge">
<title>Matrix&#45;&gt;Reflexive Closure</title>
<path fill="none" stroke="#ffffff" d="M102.39,-375.73C102.28,-375.7 102.17,-375.68 102.07,-375.65"/>
<polygon fill="#ffffff" stroke="#ffffff" points="101.59,-379.13 112.11,-377.93 103.13,-372.31 101.59,-379.13"/>
</g>
<!-- Symmetric Closure -->
<g id="node7" class="node">
<title>Symmetric Closure</title>
<g id="a_node7"><a xlink:href="/Knowledge/symmetric_closure.html" xlink:title="Symmetric Closure" target="_parent">
<path fill="none" stroke="#b75867" d="M616,-483.34C616,-483.34 529,-483.34 529,-483.34 523,-483.34 517,-477.34 517,-471.34 517,-471.34 517,-459.34 517,-459.34 517,-453.34 523,-447.34 529,-447.34 529,-447.34 616,-447.34 616,-447.34 622,-447.34 628,-453.34 628,-459.34 628,-459.34 628,-471.34 628,-471.34 628,-477.34 622,-483.34 616,-483.34"/>
<text text-anchor="middle" x="572.5" y="-462.24" font-family="sans" font-size="12.00" fill="#c4c7c7">Symmetric Closure</text>
</a>
</g>
</g>
<!-- Matrix&#45;&gt;Symmetric Closure -->
<g id="edge7" class="edge">
<title>Matrix&#45;&gt;Symmetric Closure</title>
<path fill="none" stroke="#ffffff" d="M176.72,-382.12C206.1,-381.73 248.46,-382.51 285,-388.34 371.81,-402.18 389.89,-421.33 475,-443.34 488.48,-446.82 503.08,-450.3 516.76,-453.43"/>
<polygon fill="#ffffff" stroke="#ffffff" points="176.46,-378.63 166.53,-382.31 176.59,-385.63 176.46,-378.63"/>
</g>
<!-- Linear Algebra -->
<g id="node8" class="node">
<title>Linear Algebra</title>
<g id="a_node8"><a xlink:href="/Knowledge/linear_algebra.html" xlink:title="Linear Algebra" target="_parent">
<path fill="none" stroke="#b75867" d="M263.5,-421.34C263.5,-421.34 198.5,-421.34 198.5,-421.34 192.5,-421.34 186.5,-415.34 186.5,-409.34 186.5,-409.34 186.5,-397.34 186.5,-397.34 186.5,-391.34 192.5,-385.34 198.5,-385.34 198.5,-385.34 263.5,-385.34 263.5,-385.34 269.5,-385.34 275.5,-391.34 275.5,-397.34 275.5,-397.34 275.5,-409.34 275.5,-409.34 275.5,-415.34 269.5,-421.34 263.5,-421.34"/>
<text text-anchor="middle" x="231" y="-400.24" font-family="sans" font-size="12.00" fill="#c4c7c7">Linear Algebra</text>
</a>
</g>
</g>
<!-- Matrix&#45;&gt;Linear Algebra -->
<g id="edge9" class="edge">
<title>Matrix&#45;&gt;Linear Algebra</title>
<path fill="none" stroke="#ffffff" d="M176.64,-391.41C179.79,-392.11 182.99,-392.83 186.19,-393.55"/>
<polygon fill="#ffffff" stroke="#ffffff" points="177.39,-387.99 166.87,-389.23 175.86,-394.82 177.39,-387.99"/>
</g>
<!-- Relation&#45;&gt;Reflexive Closure -->
<g id="edge20" class="edge">
<title>Relation&#45;&gt;Reflexive Closure</title>
<path fill="none" stroke="#ffffff" d="M109.47,-316.21C98.15,-325.7 85.36,-336.33 74.73,-345.09"/>
<polygon fill="#ffffff" stroke="#ffffff" points="112,-318.66 117.41,-309.55 107.5,-313.3 112,-318.66"/>
</g>
<!-- Relation&#45;&gt;Reflexive Relation -->
<g id="edge16" class="edge">
<title>Relation&#45;&gt;Reflexive Relation</title>
<path fill="none" stroke="#ffffff" d="M178.1,-312.81C181.77,-314.64 183.52,-315.45 185.28,-316.26"/>
<polygon fill="#ffffff" stroke="#ffffff" points="179.5,-309.59 169,-308.2 176.34,-315.84 179.5,-309.59"/>
</g>
<!-- Relation&#45;&gt;Relations -->
<g id="edge23" class="edge">
<title>Relation&#45;&gt;Relations</title>
<path fill="none" stroke="#ffffff" d="M178.91,-309.35C225.25,-321.36 240.16,-313.69 285,-319.34 305.99,-321.98 329.49,-325.73 347.74,-328.82"/>
<polygon fill="#ffffff" stroke="#ffffff" points="179.78,-305.96 169.21,-306.68 177.92,-312.71 179.78,-305.96"/>
</g>
<!-- Relation&#45;&gt;Symmetric Closure -->
<g id="edge17" class="edge">
<title>Relation&#45;&gt;Symmetric Closure</title>
<path fill="none" stroke="#ffffff" d="M149.57,-319.05C155.33,-332.19 164.16,-346.84 177,-355.34 285.22,-426.95 373.85,-298.98 467,-389.34 484.41,-406.23 458.52,-425.53 475,-443.34 485.8,-455 501.39,-461.11 516.91,-464.15"/>
<polygon fill="#ffffff" stroke="#ffffff" points="152.7,-317.43 145.76,-309.42 146.19,-320.01 152.7,-317.43"/>
</g>
<!-- Descartes Product -->
<g id="node9" class="node">
<title>Descartes Product</title>
<g id="a_node9"><a xlink:href="/Knowledge/descartes_product.html" xlink:title="Descartes Product" target="_parent">
<path fill="#273434" stroke="#b75867" d="M273,-309.34C273,-309.34 189,-309.34 189,-309.34 183,-309.34 177,-303.34 177,-297.34 177,-297.34 177,-285.34 177,-285.34 177,-279.34 183,-273.34 189,-273.34 189,-273.34 273,-273.34 273,-273.34 279,-273.34 285,-279.34 285,-285.34 285,-285.34 285,-297.34 285,-297.34 285,-303.34 279,-309.34 273,-309.34"/>
<text text-anchor="middle" x="231" y="-288.24" font-family="sans" font-size="12.00" fill="#c4c7c7">Descartes Product</text>
</a>
</g>
</g>
<!-- Relation&#45;&gt;Descartes Product -->
<g id="edge10" class="edge">
<title>Relation&#45;&gt;Descartes Product</title>
<path fill="none" stroke="#b75867" d="M169.31,-291.34C169.46,-291.34 169.62,-291.34 169.77,-291.34"/>
<polygon fill="#b75867" stroke="#b75867" points="166.85,-294.84 176.85,-291.34 166.85,-287.84 166.85,-294.84"/>
</g>
<!-- Partial order -->
<g id="node10" class="node">
<title>Partial order</title>
<g id="a_node10"><a xlink:href="/Knowledge/partial_order.html" xlink:title="Partial order" target="_parent">
<path fill="none" stroke="#b75867" d="M600,-261.34C600,-261.34 545,-261.34 545,-261.34 539,-261.34 533,-255.34 533,-249.34 533,-249.34 533,-237.34 533,-237.34 533,-231.34 539,-225.34 545,-225.34 545,-225.34 600,-225.34 600,-225.34 606,-225.34 612,-231.34 612,-237.34 612,-237.34 612,-249.34 612,-249.34 612,-255.34 606,-261.34 600,-261.34"/>
<text text-anchor="middle" x="572.5" y="-240.24" font-family="sans" font-size="12.00" fill="#c4c7c7">Partial order</text>
</a>
</g>
</g>
<!-- Relation&#45;&gt;Partial order -->
<g id="edge11" class="edge">
<title>Relation&#45;&gt;Partial order</title>
<path fill="none" stroke="#ffffff" d="M152.83,-264.07C158.69,-254.45 166.69,-244.69 177,-239.34 207.96,-223.24 439.53,-235.3 532.78,-240.89"/>
<polygon fill="#ffffff" stroke="#ffffff" points="149.62,-262.66 147.88,-273.11 155.76,-266.02 149.62,-262.66"/>
</g>
<!-- Chain -->
<g id="node11" class="node">
<title>Chain</title>
<g id="a_node11"><a xlink:href="/Knowledge/chain.html" xlink:title="Chain" target="_parent">
<path fill="none" stroke="#b75867" d="M587.5,-187.34C587.5,-187.34 557.5,-187.34 557.5,-187.34 551.5,-187.34 545.5,-181.34 545.5,-175.34 545.5,-175.34 545.5,-163.34 545.5,-163.34 545.5,-157.34 551.5,-151.34 557.5,-151.34 557.5,-151.34 587.5,-151.34 587.5,-151.34 593.5,-151.34 599.5,-157.34 599.5,-163.34 599.5,-163.34 599.5,-175.34 599.5,-175.34 599.5,-181.34 593.5,-187.34 587.5,-187.34"/>
<text text-anchor="middle" x="572.5" y="-166.24" font-family="sans" font-size="12.00" fill="#c4c7c7">Chain</text>
</a>
</g>
</g>
<!-- Relation&#45;&gt;Chain -->
<g id="edge12" class="edge">
<title>Relation&#45;&gt;Chain</title>
<path fill="none" stroke="#ffffff" d="M142.58,-263.01C145.93,-239.72 154.6,-207.95 177,-191.34 180.71,-188.58 457.73,-174.87 545.28,-170.61"/>
<polygon fill="#ffffff" stroke="#ffffff" points="139.09,-262.68 141.39,-273.03 146.04,-263.51 139.09,-262.68"/>
</g>
<!-- Linear order -->
<g id="node12" class="node">
<title>Linear order</title>
<g id="a_node12"><a xlink:href="/Knowledge/linear_order.html" xlink:title="Linear order" target="_parent">
<path fill="none" stroke="#b75867" d="M600,-224.34C600,-224.34 545,-224.34 545,-224.34 539,-224.34 533,-218.34 533,-212.34 533,-212.34 533,-200.34 533,-200.34 533,-194.34 539,-188.34 545,-188.34 545,-188.34 600,-188.34 600,-188.34 606,-188.34 612,-194.34 612,-200.34 612,-200.34 612,-212.34 612,-212.34 612,-218.34 606,-224.34 600,-224.34"/>
<text text-anchor="middle" x="572.5" y="-203.24" font-family="sans" font-size="12.00" fill="#c4c7c7">Linear order</text>
</a>
</g>
</g>
<!-- Relation&#45;&gt;Linear order -->
<g id="edge13" class="edge">
<title>Relation&#45;&gt;Linear order</title>
<path fill="none" stroke="#ffffff" d="M143.35,-263.2C147.18,-241.74 156.11,-213.52 177,-199.34 205.9,-179.71 439.25,-195.81 532.86,-203.16"/>
<polygon fill="#ffffff" stroke="#ffffff" points="139.89,-262.69 141.86,-273.1 146.81,-263.74 139.89,-262.69"/>
</g>
<!-- Partial function -->
<g id="node13" class="node">
<title>Partial function</title>
<g id="a_node13"><a xlink:href="/Knowledge/partial_function.html" xlink:title="Partial function" target="_parent">
<path fill="none" stroke="#b75867" d="M266,-272.34C266,-272.34 196,-272.34 196,-272.34 190,-272.34 184,-266.34 184,-260.34 184,-260.34 184,-248.34 184,-248.34 184,-242.34 190,-236.34 196,-236.34 196,-236.34 266,-236.34 266,-236.34 272,-236.34 278,-242.34 278,-248.34 278,-248.34 278,-260.34 278,-260.34 278,-266.34 272,-272.34 266,-272.34"/>
<text text-anchor="middle" x="231" y="-251.24" font-family="sans" font-size="12.00" fill="#c4c7c7">Partial function</text>
</a>
</g>
</g>
<!-- Relation&#45;&gt;Partial function -->
<g id="edge14" class="edge">
<title>Relation&#45;&gt;Partial function</title>
<path fill="none" stroke="#ffffff" d="M178.72,-275.53C181.22,-274.5 183.74,-273.46 186.26,-272.42"/>
<polygon fill="#ffffff" stroke="#ffffff" points="177.22,-272.37 169.31,-279.42 179.89,-278.84 177.22,-272.37"/>
</g>
<!-- Total function -->
<g id="node14" class="node">
<title>Total function</title>
<g id="a_node14"><a xlink:href="/Knowledge/total_function.html" xlink:title="Total function" target="_parent">
<path fill="none" stroke="#b75867" d="M262,-232.34C262,-232.34 200,-232.34 200,-232.34 194,-232.34 188,-226.34 188,-220.34 188,-220.34 188,-208.34 188,-208.34 188,-202.34 194,-196.34 200,-196.34 200,-196.34 262,-196.34 262,-196.34 268,-196.34 274,-202.34 274,-208.34 274,-208.34 274,-220.34 274,-220.34 274,-226.34 268,-232.34 262,-232.34"/>
<text text-anchor="middle" x="231" y="-211.24" font-family="sans" font-size="12.00" fill="#c4c7c7">Total function</text>
</a>
</g>
</g>
<!-- Relation&#45;&gt;Total function -->
<g id="edge15" class="edge">
<title>Relation&#45;&gt;Total function</title>
<path fill="none" stroke="#ffffff" d="M153.94,-264.46C159.92,-254.59 167.72,-243.98 177,-236.34 180.31,-233.61 184,-231.18 187.85,-229.02"/>
<polygon fill="#ffffff" stroke="#ffffff" points="150.87,-262.78 148.97,-273.2 156.96,-266.24 150.87,-262.78"/>
</g>
<!-- Anti&#45;symmetric Relation -->
<g id="node15" class="node">
<title>Anti&#45;symmetric Relation</title>
<g id="a_node15"><a xlink:href="/Knowledge/anti-symmetric_relation.html" xlink:title="Anti&#45;symmetric Relation" target="_parent">
<path fill="none" stroke="#b75867" d="M629,-150.34C629,-150.34 516,-150.34 516,-150.34 510,-150.34 504,-144.34 504,-138.34 504,-138.34 504,-126.34 504,-126.34 504,-120.34 510,-114.34 516,-114.34 516,-114.34 629,-114.34 629,-114.34 635,-114.34 641,-120.34 641,-126.34 641,-126.34 641,-138.34 641,-138.34 641,-144.34 635,-150.34 629,-150.34"/>
<text text-anchor="middle" x="572.5" y="-129.24" font-family="sans" font-size="12.00" fill="#c4c7c7">Anti&#45;symmetric Relation</text>
</a>
</g>
</g>
<!-- Relation&#45;&gt;Anti&#45;symmetric Relation -->
<g id="edge18" class="edge">
<title>Relation&#45;&gt;Anti&#45;symmetric Relation</title>
<path fill="none" stroke="#ffffff" d="M142.04,-263.03C145.01,-238.24 153.42,-203.31 177,-184.34 227.53,-143.67 402.84,-160.81 467,-151.34 478.95,-149.57 491.62,-147.47 503.87,-145.31"/>
<polygon fill="#ffffff" stroke="#ffffff" points="138.53,-262.99 141.05,-273.28 145.5,-263.66 138.53,-262.99"/>
</g>
<!-- Symmetric Relation -->
<g id="node16" class="node">
<title>Symmetric Relation</title>
<g id="a_node16"><a xlink:href="/Knowledge/symmetric_relation.html" xlink:title="Symmetric Relation" target="_parent">
<path fill="none" stroke="#b75867" d="M618,-113.34C618,-113.34 527,-113.34 527,-113.34 521,-113.34 515,-107.34 515,-101.34 515,-101.34 515,-89.34 515,-89.34 515,-83.34 521,-77.34 527,-77.34 527,-77.34 618,-77.34 618,-77.34 624,-77.34 630,-83.34 630,-89.34 630,-89.34 630,-101.34 630,-101.34 630,-107.34 624,-113.34 618,-113.34"/>
<text text-anchor="middle" x="572.5" y="-92.24" font-family="sans" font-size="12.00" fill="#c4c7c7">Symmetric Relation</text>
</a>
</g>
</g>
<!-- Relation&#45;&gt;Symmetric Relation -->
<g id="edge19" class="edge">
<title>Relation&#45;&gt;Symmetric Relation</title>
<path fill="none" stroke="#ffffff" d="M139.9,-263.13C140.88,-232.61 147.49,-184.78 177,-158.34 189.49,-147.14 408.49,-116.88 514.67,-102.77"/>
<polygon fill="#ffffff" stroke="#ffffff" points="136.4,-263.09 139.75,-273.14 143.39,-263.19 136.4,-263.09"/>
</g>
<!-- Anti&#45;reflexive relation -->
<g id="node17" class="node">
<title>Anti&#45;reflexive relation</title>
<g id="a_node17"><a xlink:href="/Knowledge/anti-reflexive_relation.html" xlink:title="Anti&#45;reflexive relation" target="_parent">
<path fill="none" stroke="#b75867" d="M622.5,-76.34C622.5,-76.34 522.5,-76.34 522.5,-76.34 516.5,-76.34 510.5,-70.34 510.5,-64.34 510.5,-64.34 510.5,-52.34 510.5,-52.34 510.5,-46.34 516.5,-40.34 522.5,-40.34 522.5,-40.34 622.5,-40.34 622.5,-40.34 628.5,-40.34 634.5,-46.34 634.5,-52.34 634.5,-52.34 634.5,-64.34 634.5,-64.34 634.5,-70.34 628.5,-76.34 622.5,-76.34"/>
<text text-anchor="middle" x="572.5" y="-55.24" font-family="sans" font-size="12.00" fill="#c4c7c7">Anti&#45;reflexive relation</text>
</a>
</g>
</g>
<!-- Relation&#45;&gt;Anti&#45;reflexive relation -->
<g id="edge21" class="edge">
<title>Relation&#45;&gt;Anti&#45;reflexive relation</title>
<path fill="none" stroke="#ffffff" d="M143.53,-263.05C148.37,-223.27 159.17,-153.69 177,-136.34 266.56,-49.18 423.75,-45.77 510.21,-51.61"/>
<polygon fill="#ffffff" stroke="#ffffff" points="140.03,-262.84 142.34,-273.18 146.98,-263.65 140.03,-262.84"/>
</g>
<!-- Strongly Anti&#45;symmetric Relation -->
<g id="node18" class="node">
<title>Strongly Anti&#45;symmetric Relation</title>
<g id="a_node18"><a xlink:href="/Knowledge/strongly_anti-symmetric_relation.html" xlink:title="Strongly Anti&#45;symmetric Relation" target="_parent">
<path fill="none" stroke="#b75867" d="M651,-39.34C651,-39.34 494,-39.34 494,-39.34 488,-39.34 482,-33.34 482,-27.34 482,-27.34 482,-15.34 482,-15.34 482,-9.34 488,-3.34 494,-3.34 494,-3.34 651,-3.34 651,-3.34 657,-3.34 663,-9.34 663,-15.34 663,-15.34 663,-27.34 663,-27.34 663,-33.34 657,-39.34 651,-39.34"/>
<text text-anchor="middle" x="572.5" y="-18.24" font-family="sans" font-size="12.00" fill="#c4c7c7">Strongly Anti&#45;symmetric Relation</text>
</a>
</g>
</g>
<!-- Relation&#45;&gt;Strongly Anti&#45;symmetric Relation -->
<g id="edge22" class="edge">
<title>Relation&#45;&gt;Strongly Anti&#45;symmetric Relation</title>
<path fill="none" stroke="#ffffff" d="M141.46,-262.8C143.83,-210.39 151.73,-101.77 177,-75.34 254.27,5.48 391.39,5.73 481.88,-5.04"/>
<polygon fill="#ffffff" stroke="#ffffff" points="137.95,-262.94 141.04,-273.07 144.95,-263.23 137.95,-262.94"/>
</g>
<!-- Transitive Relation -->
<g id="node19" class="node">
<title>Transitive Relation</title>
<g id="a_node19"><a xlink:href="/Knowledge/transitive_relation.html" xlink:title="Transitive Relation" target="_parent">
<path fill="none" stroke="#b75867" d="M615.5,-298.34C615.5,-298.34 529.5,-298.34 529.5,-298.34 523.5,-298.34 517.5,-292.34 517.5,-286.34 517.5,-286.34 517.5,-274.34 517.5,-274.34 517.5,-268.34 523.5,-262.34 529.5,-262.34 529.5,-262.34 615.5,-262.34 615.5,-262.34 621.5,-262.34 627.5,-268.34 627.5,-274.34 627.5,-274.34 627.5,-286.34 627.5,-286.34 627.5,-292.34 621.5,-298.34 615.5,-298.34"/>
<text text-anchor="middle" x="572.5" y="-277.24" font-family="sans" font-size="12.00" fill="#c4c7c7">Transitive Relation</text>
</a>
</g>
</g>
<!-- Relation&#45;&gt;Transitive Relation -->
<g id="edge24" class="edge">
<title>Relation&#45;&gt;Transitive Relation</title>
<path fill="none" stroke="#ffffff" d="M179.32,-306.34C212.8,-312.59 267.43,-319 285,-306.34 294.12,-299.76 283.9,-288.94 293,-282.34 327.48,-257.3 446.49,-265.79 517.29,-273.51"/>
<polygon fill="#ffffff" stroke="#ffffff" points="179.76,-302.86 169.27,-304.34 178.39,-309.73 179.76,-302.86"/>
</g>
<!-- Relation of Equivalence -->
<g id="node20" class="node">
<title>Relation of Equivalence</title>
<g id="a_node20"><a xlink:href="/Knowledge/relation_of_equivalence.html" xlink:title="Relation of Equivalence" target="_parent">
<path fill="none" stroke="#b75867" d="M627.5,-446.34C627.5,-446.34 517.5,-446.34 517.5,-446.34 511.5,-446.34 505.5,-440.34 505.5,-434.34 505.5,-434.34 505.5,-422.34 505.5,-422.34 505.5,-416.34 511.5,-410.34 517.5,-410.34 517.5,-410.34 627.5,-410.34 627.5,-410.34 633.5,-410.34 639.5,-416.34 639.5,-422.34 639.5,-422.34 639.5,-434.34 639.5,-434.34 639.5,-440.34 633.5,-446.34 627.5,-446.34"/>
<text text-anchor="middle" x="572.5" y="-425.24" font-family="sans" font-size="12.00" fill="#c4c7c7">Relation of Equivalence</text>
</a>
</g>
</g>
<!-- Relation&#45;&gt;Relation of Equivalence -->
<g id="edge25" class="edge">
<title>Relation&#45;&gt;Relation of Equivalence</title>
<path fill="none" stroke="#ffffff" d="M150.01,-319.09C155.79,-331.5 164.5,-344.96 177,-352.34 204.77,-368.72 442.61,-341.25 467,-362.34 482.04,-375.33 461.26,-391.97 475,-406.34 483.2,-414.9 493.98,-420.45 505.37,-423.98"/>
<polygon fill="#ffffff" stroke="#ffffff" points="153.09,-317.37 146,-309.5 146.63,-320.08 153.09,-317.37"/>
</g>
<!-- Set&#45;&gt;Reflexive Closure -->
<g id="edge32" class="edge">
<title>Set&#45;&gt;Reflexive Closure</title>
<path fill="none" stroke="#ffffff" d="M344.21,-554.76C292.81,-522.22 193.66,-458.51 110,-403.34 99.26,-396.25 87.47,-388.35 77.34,-381.45"/>
<polygon fill="#ffffff" stroke="#ffffff" points="342.61,-557.89 352.93,-560.28 346.35,-551.97 342.61,-557.89"/>
</g>
<!-- Set&#45;&gt;Symmetric Closure -->
<g id="edge30" class="edge">
<title>Set&#45;&gt;Symmetric Closure</title>
<path fill="none" stroke="#ffffff" d="M401.54,-550.41C418.96,-530.19 445.74,-502.99 475,-487.34 487.8,-480.49 502.67,-475.76 516.84,-472.51"/>
<polygon fill="#ffffff" stroke="#ffffff" points="398.64,-548.42 394.88,-558.33 404,-552.92 398.64,-548.42"/>
</g>
<!-- Set&#45;&gt;Relation of Equivalence -->
<g id="edge37" class="edge">
<title>Set&#45;&gt;Relation of Equivalence</title>
<path fill="none" stroke="#ffffff" d="M394.04,-548.89C409.32,-519.82 437.39,-474.81 475,-450.34 484.14,-444.38 494.69,-440.03 505.38,-436.85"/>
<polygon fill="#ffffff" stroke="#ffffff" points="390.78,-547.59 389.36,-558.09 397.02,-550.77 390.78,-547.59"/>
</g>
<!-- Principle of partitions -->
<g id="node21" class="node">
<title>Principle of partitions</title>
<g id="a_node21"><a xlink:href="/Knowledge/principle_of_partitions.html" xlink:title="Principle of partitions" target="_parent">
<path fill="none" stroke="#b75867" d="M623.5,-594.34C623.5,-594.34 521.5,-594.34 521.5,-594.34 515.5,-594.34 509.5,-588.34 509.5,-582.34 509.5,-582.34 509.5,-570.34 509.5,-570.34 509.5,-564.34 515.5,-558.34 521.5,-558.34 521.5,-558.34 623.5,-558.34 623.5,-558.34 629.5,-558.34 635.5,-564.34 635.5,-570.34 635.5,-570.34 635.5,-582.34 635.5,-582.34 635.5,-588.34 629.5,-594.34 623.5,-594.34"/>
<text text-anchor="middle" x="572.5" y="-573.24" font-family="sans" font-size="12.00" fill="#c4c7c7">Principle of partitions</text>
</a>
</g>
</g>
<!-- Set&#45;&gt;Principle of partitions -->
<g id="edge26" class="edge">
<title>Set&#45;&gt;Principle of partitions</title>
<path fill="none" stroke="#ffffff" d="M417.23,-576.34C443.19,-576.34 478.8,-576.34 509.26,-576.34"/>
<polygon fill="#ffffff" stroke="#ffffff" points="417.09,-572.84 407.09,-576.34 417.09,-579.84 417.09,-572.84"/>
</g>
<!-- Principle of inclusion and exclusion -->
<g id="node22" class="node">
<title>Principle of inclusion and exclusion</title>
<g id="a_node22"><a xlink:href="/Knowledge/principle_of_inclusion_and_exclusion.html" xlink:title="Principle of inclusion and exclusion" target="_parent">
<path fill="none" stroke="#b75867" d="M658,-557.34C658,-557.34 487,-557.34 487,-557.34 481,-557.34 475,-551.34 475,-545.34 475,-545.34 475,-533.34 475,-533.34 475,-527.34 481,-521.34 487,-521.34 487,-521.34 658,-521.34 658,-521.34 664,-521.34 670,-527.34 670,-533.34 670,-533.34 670,-545.34 670,-545.34 670,-551.34 664,-557.34 658,-557.34"/>
<text text-anchor="middle" x="572.5" y="-536.24" font-family="sans" font-size="12.00" fill="#c4c7c7">Principle of inclusion and exclusion</text>
</a>
</g>
</g>
<!-- Set&#45;&gt;Principle of inclusion and exclusion -->
<g id="edge27" class="edge">
<title>Set&#45;&gt;Principle of inclusion and exclusion</title>
<path fill="none" stroke="#ffffff" d="M416.91,-569.36C434.53,-565.94 456.66,-561.64 478.61,-557.38"/>
<polygon fill="#ffffff" stroke="#ffffff" points="416.24,-565.93 407.09,-571.27 417.57,-572.8 416.24,-565.93"/>
</g>
<!-- Principle of the bijection -->
<g id="node23" class="node">
<title>Principle of the bijection</title>
<g id="a_node23"><a xlink:href="/Knowledge/principle_of_the_bijection.html" xlink:title="Principle of the bijection" target="_parent">
<path fill="none" stroke="#b75867" d="M630.5,-816.34C630.5,-816.34 514.5,-816.34 514.5,-816.34 508.5,-816.34 502.5,-810.34 502.5,-804.34 502.5,-804.34 502.5,-792.34 502.5,-792.34 502.5,-786.34 508.5,-780.34 514.5,-780.34 514.5,-780.34 630.5,-780.34 630.5,-780.34 636.5,-780.34 642.5,-786.34 642.5,-792.34 642.5,-792.34 642.5,-804.34 642.5,-804.34 642.5,-810.34 636.5,-816.34 630.5,-816.34"/>
<text text-anchor="middle" x="572.5" y="-795.24" font-family="sans" font-size="12.00" fill="#c4c7c7">Principle of the bijection</text>
</a>
</g>
</g>
<!-- Set&#45;&gt;Principle of the bijection -->
<g id="edge28" class="edge">
<title>Set&#45;&gt;Principle of the bijection</title>
<path fill="none" stroke="#ffffff" d="M386.1,-604.51C395.55,-648.26 420.06,-732.11 475,-776.34 482.9,-782.69 492.28,-787.29 502.04,-790.6"/>
<polygon fill="#ffffff" stroke="#ffffff" points="389.49,-603.64 384.06,-594.54 382.64,-605.04 389.49,-603.64"/>
</g>
<!-- Principle of products -->
<g id="node24" class="node">
<title>Principle of products</title>
<g id="a_node24"><a xlink:href="/Knowledge/principle_of_products.html" xlink:title="Principle of products" target="_parent">
<path fill="none" stroke="#b75867" d="M621.5,-779.34C621.5,-779.34 523.5,-779.34 523.5,-779.34 517.5,-779.34 511.5,-773.34 511.5,-767.34 511.5,-767.34 511.5,-755.34 511.5,-755.34 511.5,-749.34 517.5,-743.34 523.5,-743.34 523.5,-743.34 621.5,-743.34 621.5,-743.34 627.5,-743.34 633.5,-749.34 633.5,-755.34 633.5,-755.34 633.5,-767.34 633.5,-767.34 633.5,-773.34 627.5,-779.34 621.5,-779.34"/>
<text text-anchor="middle" x="572.5" y="-758.24" font-family="sans" font-size="12.00" fill="#c4c7c7">Principle of products</text>
</a>
</g>
</g>
<!-- Set&#45;&gt;Principle of products -->
<g id="edge29" class="edge">
<title>Set&#45;&gt;Principle of products</title>
<path fill="none" stroke="#ffffff" d="M389.26,-604.16C401.67,-640.98 428.76,-705.2 475,-739.34 485.58,-747.14 498.45,-752.25 511.3,-755.57"/>
<polygon fill="#ffffff" stroke="#ffffff" points="392.56,-602.99 386.14,-594.55 385.9,-605.15 392.56,-602.99"/>
</g>
<!-- Class of equivalence -->
<g id="node25" class="node">
<title>Class of equivalence</title>
<g id="a_node25"><a xlink:href="/Knowledge/class_of_equivalence.html" xlink:title="Class of equivalence" target="_parent">
<path fill="none" stroke="#b75867" d="M620,-520.34C620,-520.34 525,-520.34 525,-520.34 519,-520.34 513,-514.34 513,-508.34 513,-508.34 513,-496.34 513,-496.34 513,-490.34 519,-484.34 525,-484.34 525,-484.34 620,-484.34 620,-484.34 626,-484.34 632,-490.34 632,-496.34 632,-496.34 632,-508.34 632,-508.34 632,-514.34 626,-520.34 620,-520.34"/>
<text text-anchor="middle" x="572.5" y="-499.24" font-family="sans" font-size="12.00" fill="#c4c7c7">Class of equivalence</text>
</a>
</g>
</g>
<!-- Set&#45;&gt;Class of equivalence -->
<g id="edge31" class="edge">
<title>Set&#45;&gt;Class of equivalence</title>
<path fill="none" stroke="#ffffff" d="M415.79,-554.01C433.04,-543.75 454.52,-532.15 475,-524.34 486.96,-519.77 500.13,-516 512.8,-512.94"/>
<polygon fill="#ffffff" stroke="#ffffff" points="413.92,-551.05 407.18,-559.23 417.54,-557.04 413.92,-551.05"/>
</g>
<!-- Recurrent Equations -->
<g id="node26" class="node">
<title>Recurrent Equations</title>
<g id="a_node26"><a xlink:href="/Knowledge/recurrent_equations.html" xlink:title="Recurrent Equations" target="_parent">
<path fill="none" stroke="#b75867" d="M620,-742.34C620,-742.34 525,-742.34 525,-742.34 519,-742.34 513,-736.34 513,-730.34 513,-730.34 513,-718.34 513,-718.34 513,-712.34 519,-706.34 525,-706.34 525,-706.34 620,-706.34 620,-706.34 626,-706.34 632,-712.34 632,-718.34 632,-718.34 632,-730.34 632,-730.34 632,-736.34 626,-742.34 620,-742.34"/>
<text text-anchor="middle" x="572.5" y="-721.24" font-family="sans" font-size="12.00" fill="#c4c7c7">Recurrent Equations</text>
</a>
</g>
</g>
<!-- Set&#45;&gt;Recurrent Equations -->
<g id="edge33" class="edge">
<title>Set&#45;&gt;Recurrent Equations</title>
<path fill="none" stroke="#ffffff" d="M394.04,-603.78C409.32,-632.85 437.39,-677.86 475,-702.34 486.31,-709.69 499.75,-714.61 512.96,-717.89"/>
<polygon fill="#ffffff" stroke="#ffffff" points="397.02,-601.9 389.36,-594.58 390.78,-605.08 397.02,-601.9"/>
</g>
<!-- Principle of division -->
<g id="node27" class="node">
<title>Principle of division</title>
<g id="a_node27"><a xlink:href="/Knowledge/principle_of_division.html" xlink:title="Principle of division" target="_parent">
<path fill="none" stroke="#b75867" d="M618.5,-705.34C618.5,-705.34 526.5,-705.34 526.5,-705.34 520.5,-705.34 514.5,-699.34 514.5,-693.34 514.5,-693.34 514.5,-681.34 514.5,-681.34 514.5,-675.34 520.5,-669.34 526.5,-669.34 526.5,-669.34 618.5,-669.34 618.5,-669.34 624.5,-669.34 630.5,-675.34 630.5,-681.34 630.5,-681.34 630.5,-693.34 630.5,-693.34 630.5,-699.34 624.5,-705.34 618.5,-705.34"/>
<text text-anchor="middle" x="572.5" y="-684.24" font-family="sans" font-size="12.00" fill="#c4c7c7">Principle of division</text>
</a>
</g>
</g>
<!-- Set&#45;&gt;Principle of division -->
<g id="edge34" class="edge">
<title>Set&#45;&gt;Principle of division</title>
<path fill="none" stroke="#ffffff" d="M401.54,-602.26C418.96,-622.48 445.74,-649.69 475,-665.34 487.05,-671.78 500.92,-676.34 514.32,-679.57"/>
<polygon fill="#ffffff" stroke="#ffffff" points="404,-599.75 394.88,-594.34 398.64,-604.25 404,-599.75"/>
</g>
<!-- Dirichlet principle -->
<g id="node28" class="node">
<title>Dirichlet principle</title>
<g id="a_node28"><a xlink:href="/Knowledge/dirichlet_principle.html" xlink:title="Dirichlet principle" target="_parent">
<path fill="none" stroke="#b75867" d="M614,-668.34C614,-668.34 531,-668.34 531,-668.34 525,-668.34 519,-662.34 519,-656.34 519,-656.34 519,-644.34 519,-644.34 519,-638.34 525,-632.34 531,-632.34 531,-632.34 614,-632.34 614,-632.34 620,-632.34 626,-638.34 626,-644.34 626,-644.34 626,-656.34 626,-656.34 626,-662.34 620,-668.34 614,-668.34"/>
<text text-anchor="middle" x="572.5" y="-647.24" font-family="sans" font-size="12.00" fill="#c4c7c7">Dirichlet principle</text>
</a>
</g>
</g>
<!-- Set&#45;&gt;Dirichlet principle -->
<g id="edge35" class="edge">
<title>Set&#45;&gt;Dirichlet principle</title>
<path fill="none" stroke="#ffffff" d="M415.79,-598.66C433.04,-608.92 454.52,-620.52 475,-628.34 488.89,-633.64 504.41,-637.87 518.87,-641.15"/>
<polygon fill="#ffffff" stroke="#ffffff" points="417.54,-595.63 407.18,-593.44 413.92,-601.62 417.54,-595.63"/>
</g>
<!-- Differential Analysis -->
<g id="node29" class="node">
<title>Differential Analysis</title>
<g id="a_node29"><a xlink:href="/Knowledge/differential_analysis.html" xlink:title="Differential Analysis" target="_parent">
<path fill="none" stroke="#b75867" d="M618.5,-631.34C618.5,-631.34 526.5,-631.34 526.5,-631.34 520.5,-631.34 514.5,-625.34 514.5,-619.34 514.5,-619.34 514.5,-607.34 514.5,-607.34 514.5,-601.34 520.5,-595.34 526.5,-595.34 526.5,-595.34 618.5,-595.34 618.5,-595.34 624.5,-595.34 630.5,-601.34 630.5,-607.34 630.5,-607.34 630.5,-619.34 630.5,-619.34 630.5,-625.34 624.5,-631.34 618.5,-631.34"/>
<text text-anchor="middle" x="572.5" y="-610.24" font-family="sans" font-size="12.00" fill="#c4c7c7">Differential Analysis</text>
</a>
</g>
</g>
<!-- Set&#45;&gt;Differential Analysis -->
<g id="edge36" class="edge">
<title>Set&#45;&gt;Differential Analysis</title>
<path fill="none" stroke="#ffffff" d="M417.05,-583.34C444.51,-588.67 482.86,-596.12 514.47,-602.26"/>
<polygon fill="#ffffff" stroke="#ffffff" points="417.57,-579.87 407.09,-581.4 416.24,-586.74 417.57,-579.87"/>
</g>
<!-- Reflexive Relation&#45;&gt;Reflexive Closure -->
<g id="edge41" class="edge">
<title>Reflexive Relation&#45;&gt;Reflexive Closure</title>
<path fill="none" stroke="#ffffff" d="M167.81,-345.19C146.3,-348.74 122.47,-352.61 102.06,-355.86"/>
<polygon fill="#ffffff" stroke="#ffffff" points="168.55,-348.61 177.84,-343.52 167.4,-341.71 168.55,-348.61"/>
</g>
<!-- Reflexive Relation&#45;&gt;Relation -->
<g id="edge38" class="edge">
<title>Reflexive Relation&#45;&gt;Relation</title>
<path fill="none" stroke="#b75867" d="M183.04,-316.22C181.88,-315.69 180.74,-315.15 178.19,-313.87"/>
<polygon fill="#b75867" stroke="#b75867" points="179.5,-310.61 169,-309.19 176.33,-316.85 179.5,-310.61"/>
</g>
<!-- Reflexive Relation&#45;&gt;Relations -->
<g id="edge42" class="edge">
<title>Reflexive Relation&#45;&gt;Relations</title>
<path fill="none" stroke="#ffffff" d="M294.38,-334.34C312.87,-334.34 332.31,-334.34 347.9,-334.34"/>
<polygon fill="#ffffff" stroke="#ffffff" points="294.24,-330.84 284.24,-334.34 294.24,-337.84 294.24,-330.84"/>
</g>
<!-- Reflexive Relation&#45;&gt;Partial order -->
<g id="edge39" class="edge">
<title>Reflexive Relation&#45;&gt;Partial order</title>
<path fill="none" stroke="#ffffff" d="M283.86,-307.96C290.82,-294.92 284.07,-286.19 293,-278.34 310.7,-262.76 460.75,-250.74 532.97,-245.79"/>
<polygon fill="#ffffff" stroke="#ffffff" points="280.95,-306.01 277.96,-316.17 286.64,-310.1 280.95,-306.01"/>
</g>
<!-- Reflexive Relation&#45;&gt;Linear order -->
<g id="edge40" class="edge">
<title>Reflexive Relation&#45;&gt;Linear order</title>
<path fill="none" stroke="#ffffff" d="M284.14,-307.58C295.49,-284.48 276.73,-267.98 293,-251.34 325.65,-217.92 464.27,-209.32 532.81,-207.1"/>
<polygon fill="#ffffff" stroke="#ffffff" points="281.18,-305.72 278.76,-316.04 287.08,-309.48 281.18,-305.72"/>
</g>
<!-- Reflexive Relation&#45;&gt;Relation of Equivalence -->
<g id="edge43" class="edge">
<title>Reflexive Relation&#45;&gt;Relation of Equivalence</title>
<path fill="none" stroke="#ffffff" d="M294.22,-348.78C336.36,-351.33 453.86,-347.58 467,-359.34 482.79,-373.46 460.44,-390.94 475,-406.34 483.15,-414.95 493.91,-420.52 505.29,-424.06"/>
<polygon fill="#ffffff" stroke="#ffffff" points="294.4,-345.28 284.12,-347.82 293.74,-352.25 294.4,-345.28"/>
</g>
<!-- Partial orders have no contours -->
<g id="node30" class="node">
<title>Partial orders have no contours</title>
<g id="a_node30"><a xlink:href="/Knowledge/partial_orders_have_no_contours.html" xlink:title="Partial orders have no contours" target="_parent">
<path fill="none" stroke="#b75867" d="M455,-315.34C455,-315.34 305,-315.34 305,-315.34 299,-315.34 293,-309.34 293,-303.34 293,-303.34 293,-291.34 293,-291.34 293,-285.34 299,-279.34 305,-279.34 305,-279.34 455,-279.34 455,-279.34 461,-279.34 467,-285.34 467,-291.34 467,-291.34 467,-303.34 467,-303.34 467,-309.34 461,-315.34 455,-315.34"/>
<text text-anchor="middle" x="380" y="-294.24" font-family="sans" font-size="12.00" fill="#c4c7c7">Partial orders have no contours</text>
</a>
</g>
</g>
<!-- Reflexive Relation&#45;&gt;Partial orders have no contours -->
<g id="edge44" class="edge">
<title>Reflexive Relation&#45;&gt;Partial orders have no contours</title>
<path fill="none" stroke="#ffffff" d="M294.25,-318.67C298.6,-317.57 303,-316.46 307.39,-315.36"/>
<polygon fill="#ffffff" stroke="#ffffff" points="293.08,-315.35 284.24,-321.19 294.79,-322.14 293.08,-315.35"/>
</g>
<!-- Relations&#45;&gt;Reflexive Closure -->
<g id="edge53" class="edge">
<title>Relations&#45;&gt;Reflexive Closure</title>
<path fill="none" stroke="#b75867" d="M347.87,-342.78C329.66,-347.01 306.16,-351.76 285,-354.34 226.59,-361.45 159.4,-363.71 112.23,-364.15"/>
<polygon fill="#b75867" stroke="#b75867" points="112.16,-360.65 102.18,-364.22 112.21,-367.65 112.16,-360.65"/>
</g>
<!-- Relations&#45;&gt;Reflexive Closure -->
<g id="edge56" class="edge">
<title>Relations&#45;&gt;Reflexive Closure</title>
<path fill="none" stroke="#b75867" d="M347.87,-343.65C329.66,-348.01 306.16,-352.76 285,-355.34 226.59,-362.45 159.4,-364.71 112.23,-364.97"/>
<polygon fill="#b75867" stroke="#b75867" points="112.17,-361.47 102.18,-364.99 112.19,-368.47 112.17,-361.47"/>
</g>
<!-- Relations&#45;&gt;Relation -->
<g id="edge63" class="edge">
<title>Relations&#45;&gt;Relation</title>
<path fill="none" stroke="#b75867" d="M347.74,-329.69C329.49,-326.73 305.99,-322.98 285,-320.34 240.16,-314.69 225.25,-322.36 178.91,-310.35"/>
<polygon fill="#b75867" stroke="#b75867" points="179.78,-306.95 169.21,-307.67 177.92,-313.7 179.78,-306.95"/>
</g>
<!-- Relations&#45;&gt;Reflexive Relation -->
<g id="edge62" class="edge">
<title>Relations&#45;&gt;Reflexive Relation</title>
<path fill="none" stroke="#b75867" d="M347.9,-334.96C332.31,-335.06 312.87,-335.1 294.38,-335.08"/>
<polygon fill="#b75867" stroke="#b75867" points="294.25,-331.58 284.24,-335.06 294.23,-338.58 294.25,-331.58"/>
</g>
<!-- Relations&#45;&gt;Symmetric Closure -->
<g id="edge52" class="edge">
<title>Relations&#45;&gt;Symmetric Closure</title>
<path fill="none" stroke="#b75867" d="M412.35,-335.07C431.12,-337.28 453.81,-343.4 467,-359.34 478.96,-373.78 462.62,-429.25 475,-443.34 483.32,-452.81 494.8,-458.66 506.95,-462.18"/>
<polygon fill="#b75867" stroke="#b75867" points="506.24,-465.61 516.78,-464.54 507.87,-458.81 506.24,-465.61"/>
</g>
<!-- Relations&#45;&gt;Symmetric Closure -->
<g id="edge54" class="edge">
<title>Relations&#45;&gt;Symmetric Closure</title>
<path fill="none" stroke="#b75867" d="M412.35,-335.93C431.12,-338.28 453.81,-344.4 467,-360.34 478.96,-374.78 462.62,-430.25 475,-444.34 483.32,-453.81 494.8,-459.66 506.95,-463.16"/>
<polygon fill="#b75867" stroke="#b75867" points="506.24,-466.59 516.78,-465.49 507.86,-459.78 506.24,-466.59"/>
</g>
<!-- Relations&#45;&gt;Partial order -->
<g id="edge48" class="edge">
<title>Relations&#45;&gt;Partial order</title>
<path fill="none" stroke="#b75867" d="M412.28,-334.38C430.78,-332.68 453.22,-327.3 467,-312.34 481.36,-296.75 460.44,-280.73 475,-265.34 487.24,-252.4 505.39,-246.33 522.66,-243.69"/>
<polygon fill="#b75867" stroke="#b75867" points="523.15,-247.15 532.67,-242.5 522.33,-240.2 523.15,-247.15"/>
</g>
<!-- Relations&#45;&gt;Chain -->
<g id="edge45" class="edge">
<title>Relations&#45;&gt;Chain</title>
<path fill="none" stroke="#b75867" d="M412.41,-334.9C431.2,-333.42 453.9,-328.1 467,-312.34 484.22,-291.61 457.51,-211.84 475,-191.34 489.6,-174.23 514.49,-168.86 535.34,-167.7"/>
<polygon fill="#b75867" stroke="#b75867" points="535.59,-171.2 545.49,-167.44 535.41,-164.2 535.59,-171.2"/>
</g>
<!-- Relations&#45;&gt;Linear order -->
<g id="edge47" class="edge">
<title>Relations&#45;&gt;Linear order</title>
<path fill="none" stroke="#b75867" d="M412.25,-334.77C430.98,-333.24 453.68,-327.91 467,-312.34 479.19,-298.09 462.62,-242.42 475,-228.34 486.85,-214.85 505.1,-208.7 522.56,-206.16"/>
<polygon fill="#b75867" stroke="#b75867" points="523.13,-209.62 532.69,-205.05 522.37,-202.66 523.13,-209.62"/>
</g>
<!-- Relations&#45;&gt;Anti&#45;symmetric Relation -->
<g id="edge59" class="edge">
<title>Relations&#45;&gt;Anti&#45;symmetric Relation</title>
<path fill="none" stroke="#b75867" d="M412.07,-335C430.98,-333.6 453.93,-328.32 467,-312.34 489.26,-285.12 452.39,-181.26 475,-154.34 480.28,-148.04 486.96,-143.34 494.32,-139.84"/>
<polygon fill="#b75867" stroke="#b75867" points="495.95,-142.96 503.97,-136.03 493.38,-136.45 495.95,-142.96"/>
</g>
<!-- Relations&#45;&gt;Symmetric Relation -->
<g id="edge60" class="edge">
<title>Relations&#45;&gt;Symmetric Relation</title>
<path fill="none" stroke="#b75867" d="M412.12,-335.04C431.05,-333.66 454,-328.38 467,-312.34 480.65,-295.48 461.13,-134.01 475,-117.34 482.73,-108.05 493.49,-102.2 505.04,-98.61"/>
<polygon fill="#b75867" stroke="#b75867" points="506.05,-101.96 514.87,-96.09 504.31,-95.18 506.05,-101.96"/>
</g>
<!-- Relations&#45;&gt;Anti&#45;reflexive relation -->
<g id="edge61" class="edge">
<title>Relations&#45;&gt;Anti&#45;reflexive relation</title>
<path fill="none" stroke="#b75867" d="M412.16,-335.07C431.1,-333.7 454.06,-328.43 467,-312.34 483.17,-292.24 458.57,-100.22 475,-80.34 481.72,-72.2 490.76,-66.71 500.63,-63.05"/>
<polygon fill="#b75867" stroke="#b75867" points="501.77,-66.36 510.3,-60.08 499.71,-59.67 501.77,-66.36"/>
</g>
<!-- Relations&#45;&gt;Strongly Anti&#45;symmetric Relation -->
<g id="edge58" class="edge">
<title>Relations&#45;&gt;Strongly Anti&#45;symmetric Relation</title>
<path fill="none" stroke="#b75867" d="M412.19,-335.09C431.14,-333.73 454.09,-328.46 467,-312.34 484.37,-290.63 459.94,-96.74 477.18,-45.54"/>
<polygon fill="#b75867" stroke="#b75867" points="480.37,-47 481.85,-36.51 474.15,-43.79 480.37,-47"/>
</g>
<!-- Relations&#45;&gt;Transitive Relation -->
<g id="edge57" class="edge">
<title>Relations&#45;&gt;Transitive Relation</title>
<path fill="none" stroke="#b75867" d="M412.39,-331.23C429.6,-328.36 450.69,-322.87 467,-312.34 471.78,-309.25 470.18,-305.36 475,-302.34 484.8,-296.19 496.11,-291.76 507.47,-288.56"/>
<polygon fill="#b75867" stroke="#b75867" points="508.58,-291.89 517.42,-286.06 506.87,-285.1 508.58,-291.89"/>
</g>
<!-- Relations&#45;&gt;Relation of Equivalence -->
<g id="edge50" class="edge">
<title>Relations&#45;&gt;Relation of Equivalence</title>
<path fill="none" stroke="#b75867" d="M412.34,-334.24C430.85,-335.93 453.29,-341.31 467,-356.34 482.17,-372.96 459.62,-389.91 475,-406.34 480.83,-412.56 488.02,-417.19 495.82,-420.62"/>
<polygon fill="#b75867" stroke="#b75867" points="494.63,-423.91 505.23,-424.12 497.07,-417.35 494.63,-423.91"/>
</g>
<!-- Relations&#45;&gt;Class of equivalence -->
<g id="edge49" class="edge">
<title>Relations&#45;&gt;Class of equivalence</title>
<path fill="none" stroke="#b75867" d="M387.36,-352.38C399.34,-383.64 428.35,-447.63 475,-480.34 483.42,-486.24 493.18,-490.59 503.2,-493.78"/>
<polygon fill="#b75867" stroke="#b75867" points="502.26,-497.15 512.84,-496.5 504.17,-490.42 502.26,-497.15"/>
</g>
<!-- Linear extension -->
<g id="node31" class="node">
<title>Linear extension</title>
<g id="a_node31"><a xlink:href="/Knowledge/linear_extension.html" xlink:title="Linear extension" target="_parent">
<path fill="#273434" stroke="#b75867" d="M611,-409.34C611,-409.34 534,-409.34 534,-409.34 528,-409.34 522,-403.34 522,-397.34 522,-397.34 522,-385.34 522,-385.34 522,-379.34 528,-373.34 534,-373.34 534,-373.34 611,-373.34 611,-373.34 617,-373.34 623,-379.34 623,-385.34 623,-385.34 623,-397.34 623,-397.34 623,-403.34 617,-409.34 611,-409.34"/>
<text text-anchor="middle" x="572.5" y="-388.24" font-family="sans" font-size="12.00" fill="#c4c7c7">Linear extension</text>
</a>
</g>
</g>
<!-- Relations&#45;&gt;Linear extension -->
<g id="edge46" class="edge">
<title>Relations&#45;&gt;Linear extension</title>
<path fill="none" stroke="#b75867" d="M412.09,-336.56C429.62,-339.14 451.12,-344.64 467,-356.34 472.46,-360.36 469.49,-365.38 475,-369.34 485.8,-377.07 498.87,-382.14 511.86,-385.45"/>
<polygon fill="#b75867" stroke="#b75867" points="511.22,-388.89 521.75,-387.65 512.75,-382.06 511.22,-388.89"/>
</g>
<!-- Transitive Closure -->
<g id="node32" class="node">
<title>Transitive Closure</title>
<g id="a_node32"><a xlink:href="/Knowledge/transitive_closure.html" xlink:title="Transitive Closure" target="_parent">
<path fill="#273434" stroke="#b75867" d="M613.5,-372.34C613.5,-372.34 531.5,-372.34 531.5,-372.34 525.5,-372.34 519.5,-366.34 519.5,-360.34 519.5,-360.34 519.5,-348.34 519.5,-348.34 519.5,-342.34 525.5,-336.34 531.5,-336.34 531.5,-336.34 613.5,-336.34 613.5,-336.34 619.5,-336.34 625.5,-342.34 625.5,-348.34 625.5,-348.34 625.5,-360.34 625.5,-360.34 625.5,-366.34 619.5,-372.34 613.5,-372.34"/>
<text text-anchor="middle" x="572.5" y="-351.24" font-family="sans" font-size="12.00" fill="#c4c7c7">Transitive Closure</text>
</a>
</g>
</g>
<!-- Relations&#45;&gt;Transitive Closure -->
<g id="edge51" class="edge">
<title>Relations&#45;&gt;Transitive Closure</title>
<path fill="none" stroke="#b75867" d="M412.03,-337.59C438.19,-340.34 476.45,-344.36 508.94,-347.77"/>
<polygon fill="#b75867" stroke="#b75867" points="508.95,-351.29 519.26,-348.85 509.68,-344.33 508.95,-351.29"/>
</g>
<!-- Relations&#45;&gt;Transitive Closure -->
<g id="edge55" class="edge">
<title>Relations&#45;&gt;Transitive Closure</title>
<path fill="none" stroke="#b75867" d="M412.03,-338.16C438.19,-341.09 476.45,-345.15 508.94,-348.48"/>
<polygon fill="#b75867" stroke="#b75867" points="508.96,-352 519.26,-349.53 509.67,-345.03 508.96,-352"/>
</g>
<!-- Discrete Structures -->
<g id="node33" class="node">
<title>Discrete Structures</title>
<g id="a_node33"><a xlink:href="/Knowledge/discrete_structures.html" xlink:title="Discrete Structures" target="_parent">
<path fill="none" stroke="#b75867" d="M616,-335.34C616,-335.34 529,-335.34 529,-335.34 523,-335.34 517,-329.34 517,-323.34 517,-323.34 517,-311.34 517,-311.34 517,-305.34 523,-299.34 529,-299.34 529,-299.34 616,-299.34 616,-299.34 622,-299.34 628,-305.34 628,-311.34 628,-311.34 628,-323.34 628,-323.34 628,-329.34 622,-335.34 616,-335.34"/>
<text text-anchor="middle" x="572.5" y="-314.24" font-family="sans" font-size="12.00" fill="#c4c7c7">Discrete Structures</text>
</a>
</g>
</g>
<!-- Relations&#45;&gt;Discrete Structures -->
<g id="edge64" class="edge">
<title>Relations&#45;&gt;Discrete Structures</title>
<path fill="none" stroke="#ffffff" d="M422.18,-330.66C449.93,-328.18 486.83,-324.89 517,-322.2"/>
<polygon fill="#ffffff" stroke="#ffffff" points="421.68,-327.19 412.03,-331.57 422.3,-334.16 421.68,-327.19"/>
</g>
</g>
</svg>
