<?xml version="1.0" encoding="UTF-8" standalone="no"?>
<!DOCTYPE svg PUBLIC "-//W3C//DTD SVG 1.1//EN"
 "http://www.w3.org/Graphics/SVG/1.1/DTD/svg11.dtd">
<!-- Generated by graphviz version 2.44.0 (0)
 -->
<!-- Title: Reflexive Closure Pages: 1 -->
<svg width="744pt" height="821pt"
 viewBox="0.00 0.00 744.00 821.00" xmlns="http://www.w3.org/2000/svg" xmlns:xlink="http://www.w3.org/1999/xlink">
<g id="graph0" class="graph" transform="scale(1 1) rotate(0) translate(4 817)">
<title>Reflexive Closure</title>
<polygon fill="#132020" stroke="transparent" points="-4,4 -4,-817 740,-817 740,4 -4,4"/>
<!-- Reflexive Closure -->
<g id="node1" class="node">
<title>Reflexive Closure</title>
<g id="a_node1"><a xlink:href="../Reflexive Closure.html" xlink:title="Reflexive Closure" target="_parent">
<path fill="#273434" stroke="#b75867" d="M101,-347C101,-347 12,-347 12,-347 6,-347 0,-341 0,-335 0,-335 0,-323 0,-323 0,-317 6,-311 12,-311 12,-311 101,-311 101,-311 107,-311 113,-317 113,-323 113,-323 113,-335 113,-335 113,-341 107,-347 101,-347"/>
<text text-anchor="middle" x="56.5" y="-325.9" font-family="sans" font-size="12.00" fill="#c4c7c7">Reflexive Closure</text>
</a>
</g>
</g>
<!-- Matrix -->
<g id="node2" class="node">
<title>Matrix</title>
<g id="a_node2"><a xlink:href="../Matrix.html" xlink:title="Matrix" target="_parent">
<path fill="#273434" stroke="#b75867" d="M168,-395C168,-395 138,-395 138,-395 132,-395 126,-389 126,-383 126,-383 126,-371 126,-371 126,-365 132,-359 138,-359 138,-359 168,-359 168,-359 174,-359 180,-365 180,-371 180,-371 180,-383 180,-383 180,-389 174,-395 168,-395"/>
<text text-anchor="middle" x="153" y="-373.9" font-family="sans" font-size="12.00" fill="#c4c7c7">Matrix</text>
</a>
</g>
</g>
<!-- Reflexive Closure&#45;&gt;Matrix -->
<g id="edge1" class="edge">
<title>Reflexive Closure&#45;&gt;Matrix</title>
<path fill="none" stroke="#b75867" d="M92.96,-347.01C100.7,-350.94 108.9,-355.11 116.64,-359.04"/>
<polygon fill="#b75867" stroke="#b75867" points="115.29,-362.28 125.79,-363.69 118.46,-356.04 115.29,-362.28"/>
</g>
<!-- Relation -->
<g id="node3" class="node">
<title>Relation</title>
<g id="a_node3"><a xlink:href="../Relation.html" xlink:title="Relation" target="_parent">
<path fill="#273434" stroke="#b75867" d="M173,-321C173,-321 133,-321 133,-321 127,-321 121,-315 121,-309 121,-309 121,-297 121,-297 121,-291 127,-285 133,-285 133,-285 173,-285 173,-285 179,-285 185,-291 185,-297 185,-297 185,-309 185,-309 185,-315 179,-321 173,-321"/>
<text text-anchor="middle" x="153" y="-299.9" font-family="sans" font-size="12.00" fill="#c4c7c7">Relation</text>
</a>
</g>
</g>
<!-- Reflexive Closure&#45;&gt;Relation -->
<g id="edge2" class="edge">
<title>Reflexive Closure&#45;&gt;Relation</title>
<path fill="none" stroke="#b75867" d="M113.02,-313.73C113.18,-313.68 113.34,-313.64 113.5,-313.59"/>
<polygon fill="#b75867" stroke="#b75867" points="111.89,-317.67 120.6,-311.64 110.03,-310.92 111.89,-317.67"/>
</g>
<!-- Set -->
<g id="node4" class="node">
<title>Set</title>
<g id="a_node4"><a xlink:href="../Set.html" xlink:title="Set" target="_parent">
<path fill="#273434" stroke="#b75867" d="M431.5,-591C431.5,-591 401.5,-591 401.5,-591 395.5,-591 389.5,-585 389.5,-579 389.5,-579 389.5,-567 389.5,-567 389.5,-561 395.5,-555 401.5,-555 401.5,-555 431.5,-555 431.5,-555 437.5,-555 443.5,-561 443.5,-567 443.5,-567 443.5,-579 443.5,-579 443.5,-585 437.5,-591 431.5,-591"/>
<text text-anchor="middle" x="416.5" y="-569.9" font-family="sans" font-size="12.00" fill="#c4c7c7">Set</text>
</a>
</g>
</g>
<!-- Reflexive Closure&#45;&gt;Set -->
<g id="edge3" class="edge">
<title>Reflexive Closure&#45;&gt;Set</title>
<path fill="none" stroke="#b75867" d="M72.24,-347.07C84.42,-361.35 102.63,-381.25 121,-396 207.13,-465.18 322.76,-526.89 380.14,-555.74"/>
<polygon fill="#b75867" stroke="#b75867" points="378.65,-558.91 389.16,-560.25 381.78,-552.65 378.65,-558.91"/>
</g>
<!-- Reflexive Relation -->
<g id="node5" class="node">
<title>Reflexive Relation</title>
<g id="a_node5"><a xlink:href="../Reflexive Relation.html" xlink:title="Reflexive Relation" target="_parent">
<path fill="#273434" stroke="#b75867" d="M299,-364C299,-364 206,-364 206,-364 200,-364 194,-358 194,-352 194,-352 194,-340 194,-340 194,-334 200,-328 206,-328 206,-328 299,-328 299,-328 305,-328 311,-334 311,-340 311,-340 311,-352 311,-352 311,-358 305,-364 299,-364"/>
<text text-anchor="middle" x="252.5" y="-342.9" font-family="sans" font-size="12.00" fill="#c4c7c7">Reflexive Relation</text>
</a>
</g>
</g>
<!-- Reflexive Closure&#45;&gt;Reflexive Relation -->
<g id="edge4" class="edge">
<title>Reflexive Closure&#45;&gt;Reflexive Relation</title>
<path fill="none" stroke="#b75867" d="M113.09,-333.87C135.14,-335.8 160.69,-338.04 183.8,-340.07"/>
<polygon fill="#b75867" stroke="#b75867" points="183.61,-343.56 193.87,-340.95 184.22,-336.59 183.61,-343.56"/>
</g>
<!-- Relations -->
<g id="node6" class="node">
<title>Relations</title>
<g id="a_node6"><a xlink:href="../Relations.html" xlink:title="Relations" target="_parent">
<path fill="none" stroke="#b75867" d="M439,-341C439,-341 394,-341 394,-341 388,-341 382,-335 382,-329 382,-329 382,-317 382,-317 382,-311 388,-305 394,-305 394,-305 439,-305 439,-305 445,-305 451,-311 451,-317 451,-317 451,-329 451,-329 451,-335 445,-341 439,-341"/>
<text text-anchor="middle" x="416.5" y="-319.9" font-family="sans" font-size="12.00" fill="#c4c7c7">Relations</text>
</a>
</g>
</g>
<!-- Reflexive Closure&#45;&gt;Relations -->
<g id="edge5" class="edge">
<title>Reflexive Closure&#45;&gt;Relations</title>
<path fill="none" stroke="#ffffff" d="M123.05,-327.31C199.47,-325.78 322.85,-323.76 381.9,-323.1"/>
<polygon fill="#ffffff" stroke="#ffffff" points="122.97,-323.81 113.04,-327.51 123.11,-330.81 122.97,-323.81"/>
</g>
<!-- Reflexive Closure&#45;&gt;Relations -->
<g id="edge6" class="edge">
<title>Reflexive Closure&#45;&gt;Relations</title>
<path fill="none" stroke="#ffffff" d="M123.05,-327.9C199.47,-326.62 322.85,-324.55 381.9,-323.56"/>
<polygon fill="#ffffff" stroke="#ffffff" points="122.98,-324.4 113.04,-328.07 123.1,-331.4 122.98,-324.4"/>
</g>
<!-- Matrix&#45;&gt;Reflexive Closure -->
<g id="edge7" class="edge">
<title>Matrix&#45;&gt;Reflexive Closure</title>
<path fill="none" stroke="#ffffff" d="M116.9,-359.9C108.63,-355.73 99.84,-351.26 91.62,-347.05"/>
<polygon fill="#ffffff" stroke="#ffffff" points="115.44,-363.08 125.94,-364.44 118.58,-356.83 115.44,-363.08"/>
</g>
<!-- Symmetric Closure -->
<g id="node7" class="node">
<title>Symmetric Closure</title>
<g id="a_node7"><a xlink:href="../Symmetric Closure.html" xlink:title="Symmetric Closure" target="_parent">
<path fill="none" stroke="#b75867" d="M678,-480C678,-480 579,-480 579,-480 573,-480 567,-474 567,-468 567,-468 567,-456 567,-456 567,-450 573,-444 579,-444 579,-444 678,-444 678,-444 684,-444 690,-450 690,-456 690,-456 690,-468 690,-468 690,-474 684,-480 678,-480"/>
<text text-anchor="middle" x="628.5" y="-458.9" font-family="sans" font-size="12.00" fill="#c4c7c7">Symmetric Closure</text>
</a>
</g>
</g>
<!-- Matrix&#45;&gt;Symmetric Closure -->
<g id="edge8" class="edge">
<title>Matrix&#45;&gt;Symmetric Closure</title>
<path fill="none" stroke="#ffffff" d="M189.78,-392.16C190.86,-392.46 191.93,-392.74 193,-393 244.6,-405.44 259.4,-395.89 312,-403 360.25,-409.52 489.64,-434.63 566.91,-449.91"/>
<polygon fill="#ffffff" stroke="#ffffff" points="190.66,-388.76 180.07,-388.97 188.48,-395.41 190.66,-388.76"/>
</g>
<!-- Linear Algebra -->
<g id="node8" class="node">
<title>Linear Algebra</title>
<g id="a_node8"><a xlink:href="../Linear Algebra.html" xlink:title="Linear Algebra" target="_parent">
<path fill="none" stroke="#b75867" d="M289.5,-436C289.5,-436 215.5,-436 215.5,-436 209.5,-436 203.5,-430 203.5,-424 203.5,-424 203.5,-412 203.5,-412 203.5,-406 209.5,-400 215.5,-400 215.5,-400 289.5,-400 289.5,-400 295.5,-400 301.5,-406 301.5,-412 301.5,-412 301.5,-424 301.5,-424 301.5,-430 295.5,-436 289.5,-436"/>
<text text-anchor="middle" x="252.5" y="-414.9" font-family="sans" font-size="12.00" fill="#c4c7c7">Linear Algebra</text>
</a>
</g>
</g>
<!-- Matrix&#45;&gt;Linear Algebra -->
<g id="edge9" class="edge">
<title>Matrix&#45;&gt;Linear Algebra</title>
<path fill="none" stroke="#ffffff" d="M189.46,-394.45C190.65,-394.98 191.83,-395.5 193,-396 196.39,-397.46 199.91,-398.92 203.47,-400.35"/>
<polygon fill="#ffffff" stroke="#ffffff" points="190.82,-391.22 180.28,-390.22 187.89,-397.58 190.82,-391.22"/>
</g>
<!-- Relation&#45;&gt;Reflexive Closure -->
<g id="edge13" class="edge">
<title>Relation&#45;&gt;Reflexive Closure</title>
<path fill="none" stroke="#ffffff" d="M113.5,-314.33C113.34,-314.38 113.18,-314.42 113.02,-314.47"/>
<polygon fill="#ffffff" stroke="#ffffff" points="111.91,-318.41 120.6,-312.35 110.03,-311.67 111.91,-318.41"/>
</g>
<!-- Relation&#45;&gt;Reflexive Relation -->
<g id="edge22" class="edge">
<title>Relation&#45;&gt;Reflexive Relation</title>
<path fill="none" stroke="#ffffff" d="M194.5,-324.61C198.27,-326.34 200.2,-327.17 202.15,-327.99"/>
<polygon fill="#ffffff" stroke="#ffffff" points="195.86,-321.39 185.32,-320.33 192.9,-327.73 195.86,-321.39"/>
</g>
<!-- Relation&#45;&gt;Relations -->
<g id="edge18" class="edge">
<title>Relation&#45;&gt;Relations</title>
<path fill="none" stroke="#ffffff" d="M195.13,-306.15C246.61,-310.08 333.81,-316.75 381.63,-320.41"/>
<polygon fill="#ffffff" stroke="#ffffff" points="195.26,-302.65 185.02,-305.37 194.73,-309.63 195.26,-302.65"/>
</g>
<!-- Relation&#45;&gt;Symmetric Closure -->
<g id="edge14" class="edge">
<title>Relation&#45;&gt;Symmetric Closure</title>
<path fill="none" stroke="#ffffff" d="M169.54,-330.22C174.6,-339.31 180.16,-349.53 185,-359 188.8,-366.43 186.21,-371.15 193,-376 239.2,-409.01 263.45,-384.83 320,-390 341.41,-391.96 496.73,-389.95 513,-404 525.41,-414.71 509.32,-428.5 521,-440 533.17,-451.99 550.05,-458.25 566.78,-461.34"/>
<polygon fill="#ffffff" stroke="#ffffff" points="172.45,-328.25 164.5,-321.25 166.34,-331.68 172.45,-328.25"/>
</g>
<!-- Descartes Product -->
<g id="node9" class="node">
<title>Descartes Product</title>
<g id="a_node9"><a xlink:href="../Descartes Product.html" xlink:title="Descartes Product" target="_parent">
<path fill="#273434" stroke="#b75867" d="M300,-292C300,-292 205,-292 205,-292 199,-292 193,-286 193,-280 193,-280 193,-268 193,-268 193,-262 199,-256 205,-256 205,-256 300,-256 300,-256 306,-256 312,-262 312,-268 312,-268 312,-280 312,-280 312,-286 306,-292 300,-292"/>
<text text-anchor="middle" x="252.5" y="-270.9" font-family="sans" font-size="12.00" fill="#c4c7c7">Descartes Product</text>
</a>
</g>
</g>
<!-- Relation&#45;&gt;Descartes Product -->
<g id="edge10" class="edge">
<title>Relation&#45;&gt;Descartes Product</title>
<path fill="none" stroke="#b75867" d="M185.12,-293.74C185.28,-293.7 185.44,-293.65 185.6,-293.6"/>
<polygon fill="#b75867" stroke="#b75867" points="184.41,-297.61 193,-291.4 182.42,-290.9 184.41,-297.61"/>
</g>
<!-- Anti&#45;symmetric Relation -->
<g id="node10" class="node">
<title>Anti&#45;symmetric Relation</title>
<g id="a_node10"><a xlink:href="../Anti-symmetric Relation.html" xlink:title="Anti&#45;symmetric Relation" target="_parent">
<path fill="none" stroke="#b75867" d="M692.5,-221C692.5,-221 564.5,-221 564.5,-221 558.5,-221 552.5,-215 552.5,-209 552.5,-209 552.5,-197 552.5,-197 552.5,-191 558.5,-185 564.5,-185 564.5,-185 692.5,-185 692.5,-185 698.5,-185 704.5,-191 704.5,-197 704.5,-197 704.5,-209 704.5,-209 704.5,-215 698.5,-221 692.5,-221"/>
<text text-anchor="middle" x="628.5" y="-199.9" font-family="sans" font-size="12.00" fill="#c4c7c7">Anti&#45;symmetric Relation</text>
</a>
</g>
</g>
<!-- Relation&#45;&gt;Anti&#45;symmetric Relation -->
<g id="edge11" class="edge">
<title>Relation&#45;&gt;Anti&#45;symmetric Relation</title>
<path fill="none" stroke="#ffffff" d="M195.31,-303.52C287.22,-304.47 501.44,-305.55 513,-295 524.57,-284.45 510.44,-236.56 521,-225 529.41,-215.8 540.56,-209.88 552.48,-206.17"/>
<polygon fill="#ffffff" stroke="#ffffff" points="195.29,-300.02 185.25,-303.41 195.21,-307.02 195.29,-300.02"/>
</g>
<!-- Chain -->
<g id="node11" class="node">
<title>Chain</title>
<g id="a_node11"><a xlink:href="../Chain.html" xlink:title="Chain" target="_parent">
<path fill="none" stroke="#b75867" d="M643.5,-184C643.5,-184 613.5,-184 613.5,-184 607.5,-184 601.5,-178 601.5,-172 601.5,-172 601.5,-160 601.5,-160 601.5,-154 607.5,-148 613.5,-148 613.5,-148 643.5,-148 643.5,-148 649.5,-148 655.5,-154 655.5,-160 655.5,-160 655.5,-172 655.5,-172 655.5,-178 649.5,-184 643.5,-184"/>
<text text-anchor="middle" x="628.5" y="-162.9" font-family="sans" font-size="12.00" fill="#c4c7c7">Chain</text>
</a>
</g>
</g>
<!-- Relation&#45;&gt;Chain -->
<g id="edge12" class="edge">
<title>Relation&#45;&gt;Chain</title>
<path fill="none" stroke="#ffffff" d="M195.47,-302.45C288.72,-301.11 507.33,-297.42 513,-292 529.76,-275.99 505.68,-205.4 521,-188 540.71,-165.61 576.66,-162.48 601.29,-163.36"/>
<polygon fill="#ffffff" stroke="#ffffff" points="195.21,-298.95 185.26,-302.59 195.31,-305.95 195.21,-298.95"/>
</g>
<!-- Relation of Equivalence -->
<g id="node12" class="node">
<title>Relation of Equivalence</title>
<g id="a_node12"><a xlink:href="../Relation of Equivalence.html" xlink:title="Relation of Equivalence" target="_parent">
<path fill="none" stroke="#b75867" d="M691,-443C691,-443 566,-443 566,-443 560,-443 554,-437 554,-431 554,-431 554,-419 554,-419 554,-413 560,-407 566,-407 566,-407 691,-407 691,-407 697,-407 703,-413 703,-419 703,-419 703,-431 703,-431 703,-437 697,-443 691,-443"/>
<text text-anchor="middle" x="628.5" y="-421.9" font-family="sans" font-size="12.00" fill="#c4c7c7">Relation of Equivalence</text>
</a>
</g>
</g>
<!-- Relation&#45;&gt;Relation of Equivalence -->
<g id="edge15" class="edge">
<title>Relation&#45;&gt;Relation of Equivalence</title>
<path fill="none" stroke="#ffffff" d="M164.92,-330.36C171.28,-342.84 180.54,-356.65 193,-365 240.59,-396.89 263.07,-380.62 320,-387 362.68,-391.78 472.62,-382.37 513,-397 517.18,-398.51 516.95,-401.17 521,-403 531.33,-407.66 542.66,-411.34 553.97,-414.25"/>
<polygon fill="#ffffff" stroke="#ffffff" points="168.04,-328.76 160.62,-321.2 161.7,-331.74 168.04,-328.76"/>
</g>
<!-- Symmetric Relation -->
<g id="node13" class="node">
<title>Symmetric Relation</title>
<g id="a_node13"><a xlink:href="../Symmetric Relation.html" xlink:title="Symmetric Relation" target="_parent">
<path fill="none" stroke="#b75867" d="M680.5,-147C680.5,-147 576.5,-147 576.5,-147 570.5,-147 564.5,-141 564.5,-135 564.5,-135 564.5,-123 564.5,-123 564.5,-117 570.5,-111 576.5,-111 576.5,-111 680.5,-111 680.5,-111 686.5,-111 692.5,-117 692.5,-123 692.5,-123 692.5,-135 692.5,-135 692.5,-141 686.5,-147 680.5,-147"/>
<text text-anchor="middle" x="628.5" y="-125.9" font-family="sans" font-size="12.00" fill="#c4c7c7">Symmetric Relation</text>
</a>
</g>
</g>
<!-- Relation&#45;&gt;Symmetric Relation -->
<g id="edge16" class="edge">
<title>Relation&#45;&gt;Symmetric Relation</title>
<path fill="none" stroke="#ffffff" d="M195.11,-300.53C234.33,-297.96 290.51,-293.67 312,-289 404.58,-268.88 453.79,-291.96 513,-218 531.74,-194.59 500.71,-173.09 521,-151 532.18,-138.83 548.15,-132.41 564.34,-129.23"/>
<polygon fill="#ffffff" stroke="#ffffff" points="194.8,-297.04 185.04,-301.18 195.24,-304.03 194.8,-297.04"/>
</g>
<!-- Partial function -->
<g id="node14" class="node">
<title>Partial function</title>
<g id="a_node14"><a xlink:href="../Partial function.html" xlink:title="Partial function" target="_parent">
<path fill="none" stroke="#b75867" d="M292,-255C292,-255 213,-255 213,-255 207,-255 201,-249 201,-243 201,-243 201,-231 201,-231 201,-225 207,-219 213,-219 213,-219 292,-219 292,-219 298,-219 304,-225 304,-231 304,-231 304,-243 304,-243 304,-249 298,-255 292,-255"/>
<text text-anchor="middle" x="252.5" y="-233.9" font-family="sans" font-size="12.00" fill="#c4c7c7">Partial function</text>
</a>
</g>
</g>
<!-- Relation&#45;&gt;Partial function -->
<g id="edge17" class="edge">
<title>Relation&#45;&gt;Partial function</title>
<path fill="none" stroke="#ffffff" d="M173.52,-276.77C179.25,-270.33 185.9,-263.88 193,-259 195.5,-257.28 198.16,-255.67 200.9,-254.17"/>
<polygon fill="#ffffff" stroke="#ffffff" points="170.51,-274.9 166.78,-284.82 175.88,-279.4 170.51,-274.9"/>
</g>
<!-- Linear order -->
<g id="node15" class="node">
<title>Linear order</title>
<g id="a_node15"><a xlink:href="../Linear order.html" xlink:title="Linear order" target="_parent">
<path fill="none" stroke="#b75867" d="M659.5,-369C659.5,-369 597.5,-369 597.5,-369 591.5,-369 585.5,-363 585.5,-357 585.5,-357 585.5,-345 585.5,-345 585.5,-339 591.5,-333 597.5,-333 597.5,-333 659.5,-333 659.5,-333 665.5,-333 671.5,-339 671.5,-345 671.5,-345 671.5,-357 671.5,-357 671.5,-363 665.5,-369 659.5,-369"/>
<text text-anchor="middle" x="628.5" y="-347.9" font-family="sans" font-size="12.00" fill="#c4c7c7">Linear order</text>
</a>
</g>
</g>
<!-- Relation&#45;&gt;Linear order -->
<g id="edge19" class="edge">
<title>Relation&#45;&gt;Linear order</title>
<path fill="none" stroke="#ffffff" d="M195.14,-302.35C286.68,-301.06 500.18,-299.03 513,-308 521.18,-313.72 513.39,-322.53 521,-329 538.68,-344.05 563.96,-349.72 585.45,-351.55"/>
<polygon fill="#ffffff" stroke="#ffffff" points="195.07,-298.85 185.12,-302.49 195.17,-305.85 195.07,-298.85"/>
</g>
<!-- Total function -->
<g id="node16" class="node">
<title>Total function</title>
<g id="a_node16"><a xlink:href="../Total function.html" xlink:title="Total function" target="_parent">
<path fill="none" stroke="#b75867" d="M288,-215C288,-215 217,-215 217,-215 211,-215 205,-209 205,-203 205,-203 205,-191 205,-191 205,-185 211,-179 217,-179 217,-179 288,-179 288,-179 294,-179 300,-185 300,-191 300,-191 300,-203 300,-203 300,-209 294,-215 288,-215"/>
<text text-anchor="middle" x="252.5" y="-193.9" font-family="sans" font-size="12.00" fill="#c4c7c7">Total function</text>
</a>
</g>
</g>
<!-- Relation&#45;&gt;Total function -->
<g id="edge20" class="edge">
<title>Relation&#45;&gt;Total function</title>
<path fill="none" stroke="#ffffff" d="M160.99,-275.09C166.83,-256.95 176.86,-233.97 193,-219 196.5,-215.75 200.53,-212.97 204.79,-210.59"/>
<polygon fill="#ffffff" stroke="#ffffff" points="157.58,-274.27 158.09,-284.85 164.3,-276.26 157.58,-274.27"/>
</g>
<!-- Transitive Relation -->
<g id="node17" class="node">
<title>Transitive Relation</title>
<g id="a_node17"><a xlink:href="../Transitive Relation.html" xlink:title="Transitive Relation" target="_parent">
<path fill="none" stroke="#b75867" d="M677,-110C677,-110 580,-110 580,-110 574,-110 568,-104 568,-98 568,-98 568,-86 568,-86 568,-80 574,-74 580,-74 580,-74 677,-74 677,-74 683,-74 689,-80 689,-86 689,-86 689,-98 689,-98 689,-104 683,-110 677,-110"/>
<text text-anchor="middle" x="628.5" y="-88.9" font-family="sans" font-size="12.00" fill="#c4c7c7">Transitive Relation</text>
</a>
</g>
</g>
<!-- Relation&#45;&gt;Transitive Relation -->
<g id="edge21" class="edge">
<title>Relation&#45;&gt;Transitive Relation</title>
<path fill="none" stroke="#ffffff" d="M159.94,-274.92C165.35,-256.71 175.29,-234.19 193,-222 214.86,-206.95 286.1,-217.8 312,-212 405.04,-191.15 446.34,-205.17 513,-137 520.57,-129.26 512.86,-121.14 521,-114 533.92,-102.67 551.11,-96.62 567.9,-93.52"/>
<polygon fill="#ffffff" stroke="#ffffff" points="156.51,-274.2 157.32,-284.76 163.28,-276 156.51,-274.2"/>
</g>
<!-- Anti&#45;reflexive relation -->
<g id="node18" class="node">
<title>Anti&#45;reflexive relation</title>
<g id="a_node18"><a xlink:href="../Anti-reflexive relation.html" xlink:title="Anti&#45;reflexive relation" target="_parent">
<path fill="none" stroke="#b75867" d="M685.5,-73C685.5,-73 571.5,-73 571.5,-73 565.5,-73 559.5,-67 559.5,-61 559.5,-61 559.5,-49 559.5,-49 559.5,-43 565.5,-37 571.5,-37 571.5,-37 685.5,-37 685.5,-37 691.5,-37 697.5,-43 697.5,-49 697.5,-49 697.5,-61 697.5,-61 697.5,-67 691.5,-73 685.5,-73"/>
<text text-anchor="middle" x="628.5" y="-51.9" font-family="sans" font-size="12.00" fill="#c4c7c7">Anti&#45;reflexive relation</text>
</a>
</g>
</g>
<!-- Relation&#45;&gt;Anti&#45;reflexive relation -->
<g id="edge23" class="edge">
<title>Relation&#45;&gt;Anti&#45;reflexive relation</title>
<path fill="none" stroke="#ffffff" d="M155.44,-274.54C158.39,-246.35 167.15,-203.75 193,-178 292.14,-79.23 464.27,-58.4 559.4,-54.84"/>
<polygon fill="#ffffff" stroke="#ffffff" points="151.95,-274.31 154.58,-284.58 158.92,-274.92 151.95,-274.31"/>
</g>
<!-- Strongly Anti&#45;symmetric Relation -->
<g id="node19" class="node">
<title>Strongly Anti&#45;symmetric Relation</title>
<g id="a_node19"><a xlink:href="../Strongly Anti-symmetric Relation.html" xlink:title="Strongly Anti&#45;symmetric Relation" target="_parent">
<path fill="none" stroke="#b75867" d="M718,-36C718,-36 539,-36 539,-36 533,-36 527,-30 527,-24 527,-24 527,-12 527,-12 527,-6 533,0 539,0 539,0 718,0 718,0 724,0 730,-6 730,-12 730,-12 730,-24 730,-24 730,-30 724,-36 718,-36"/>
<text text-anchor="middle" x="628.5" y="-14.9" font-family="sans" font-size="12.00" fill="#c4c7c7">Strongly Anti&#45;symmetric Relation</text>
</a>
</g>
</g>
<!-- Relation&#45;&gt;Strongly Anti&#45;symmetric Relation -->
<g id="edge24" class="edge">
<title>Relation&#45;&gt;Strongly Anti&#45;symmetric Relation</title>
<path fill="none" stroke="#ffffff" d="M156.14,-274.57C160.34,-225.85 171.24,-129.21 193,-104 274.13,-9.97 425.82,-0.36 526.76,-6.07"/>
<polygon fill="#ffffff" stroke="#ffffff" points="152.63,-274.49 155.3,-284.75 159.61,-275.07 152.63,-274.49"/>
</g>
<!-- Partial order -->
<g id="node20" class="node">
<title>Partial order</title>
<g id="a_node20"><a xlink:href="../Partial order.html" xlink:title="Partial order" target="_parent">
<path fill="none" stroke="#b75867" d="M659.5,-406C659.5,-406 597.5,-406 597.5,-406 591.5,-406 585.5,-400 585.5,-394 585.5,-394 585.5,-382 585.5,-382 585.5,-376 591.5,-370 597.5,-370 597.5,-370 659.5,-370 659.5,-370 665.5,-370 671.5,-376 671.5,-382 671.5,-382 671.5,-394 671.5,-394 671.5,-400 665.5,-406 659.5,-406"/>
<text text-anchor="middle" x="628.5" y="-384.9" font-family="sans" font-size="12.00" fill="#c4c7c7">Partial order</text>
</a>
</g>
</g>
<!-- Relation&#45;&gt;Partial order -->
<g id="edge25" class="edge">
<title>Relation&#45;&gt;Partial order</title>
<path fill="none" stroke="#ffffff" d="M194.95,-312.11C247.93,-320.33 268.33,-305.58 312,-331 316.92,-333.86 314.94,-338.4 320,-341 358.21,-360.6 476.76,-327.96 513,-351 519.38,-355.05 514.95,-361.47 521,-366 539.37,-379.74 564.29,-385.39 585.41,-387.54"/>
<polygon fill="#ffffff" stroke="#ffffff" points="195.49,-308.65 185.04,-310.36 194.28,-315.54 195.49,-308.65"/>
</g>
<!-- Set&#45;&gt;Reflexive Closure -->
<g id="edge27" class="edge">
<title>Set&#45;&gt;Reflexive Closure</title>
<path fill="none" stroke="#ffffff" d="M380.14,-556.37C322.76,-527.89 207.13,-466.18 121,-397 102.26,-381.95 83.68,-361.53 71.51,-347"/>
<polygon fill="#ffffff" stroke="#ffffff" points="378.65,-559.53 389.16,-560.81 381.74,-553.25 378.65,-559.53"/>
</g>
<!-- Set&#45;&gt;Symmetric Closure -->
<g id="edge28" class="edge">
<title>Set&#45;&gt;Symmetric Closure</title>
<path fill="none" stroke="#ffffff" d="M440.03,-547.51C459.46,-527.16 489.32,-499.58 521,-484 535.15,-477.04 551.4,-472.29 566.87,-469.03"/>
<polygon fill="#ffffff" stroke="#ffffff" points="437.39,-545.21 433.12,-554.91 442.5,-549.99 437.39,-545.21"/>
</g>
<!-- Set&#45;&gt;Relation of Equivalence -->
<g id="edge30" class="edge">
<title>Set&#45;&gt;Relation of Equivalence</title>
<path fill="none" stroke="#ffffff" d="M432.24,-545.78C449.53,-516.58 480.99,-471.17 521,-447 531.02,-440.95 542.43,-436.54 553.98,-433.33"/>
<polygon fill="#ffffff" stroke="#ffffff" points="429.09,-544.23 427.13,-554.64 435.16,-547.73 429.09,-544.23"/>
</g>
<!-- Recurrent Equations -->
<g id="node21" class="node">
<title>Recurrent Equations</title>
<g id="a_node21"><a xlink:href="../Recurrent Equations.html" xlink:title="Recurrent Equations" target="_parent">
<path fill="none" stroke="#b75867" d="M682,-665C682,-665 575,-665 575,-665 569,-665 563,-659 563,-653 563,-653 563,-641 563,-641 563,-635 569,-629 575,-629 575,-629 682,-629 682,-629 688,-629 694,-635 694,-641 694,-641 694,-653 694,-653 694,-659 688,-665 682,-665"/>
<text text-anchor="middle" x="628.5" y="-643.9" font-family="sans" font-size="12.00" fill="#c4c7c7">Recurrent Equations</text>
</a>
</g>
</g>
<!-- Set&#45;&gt;Recurrent Equations -->
<g id="edge26" class="edge">
<title>Set&#45;&gt;Recurrent Equations</title>
<path fill="none" stroke="#ffffff" d="M452.74,-593.61C472.3,-604.29 497.39,-616.79 521,-625 534.29,-629.62 548.86,-633.41 562.84,-636.47"/>
<polygon fill="#ffffff" stroke="#ffffff" points="454.33,-590.49 443.89,-588.69 450.93,-596.61 454.33,-590.49"/>
</g>
<!-- Class of equivalence -->
<g id="node22" class="node">
<title>Class of equivalence</title>
<g id="a_node22"><a xlink:href="../Class of equivalence.html" xlink:title="Class of equivalence" target="_parent">
<path fill="none" stroke="#b75867" d="M682,-517C682,-517 575,-517 575,-517 569,-517 563,-511 563,-505 563,-505 563,-493 563,-493 563,-487 569,-481 575,-481 575,-481 682,-481 682,-481 688,-481 694,-487 694,-493 694,-493 694,-505 694,-505 694,-511 688,-517 682,-517"/>
<text text-anchor="middle" x="628.5" y="-495.9" font-family="sans" font-size="12.00" fill="#c4c7c7">Class of equivalence</text>
</a>
</g>
</g>
<!-- Set&#45;&gt;Class of equivalence -->
<g id="edge29" class="edge">
<title>Set&#45;&gt;Class of equivalence</title>
<path fill="none" stroke="#ffffff" d="M452.74,-552.39C472.3,-541.71 497.39,-529.21 521,-521 534.29,-516.38 548.86,-512.59 562.84,-509.53"/>
<polygon fill="#ffffff" stroke="#ffffff" points="450.93,-549.39 443.89,-557.31 454.33,-555.51 450.93,-549.39"/>
</g>
<!-- Principle of division -->
<g id="node23" class="node">
<title>Principle of division</title>
<g id="a_node23"><a xlink:href="../Principle of division.html" xlink:title="Principle of division" target="_parent">
<path fill="none" stroke="#b75867" d="M679.5,-628C679.5,-628 577.5,-628 577.5,-628 571.5,-628 565.5,-622 565.5,-616 565.5,-616 565.5,-604 565.5,-604 565.5,-598 571.5,-592 577.5,-592 577.5,-592 679.5,-592 679.5,-592 685.5,-592 691.5,-598 691.5,-604 691.5,-604 691.5,-616 691.5,-616 691.5,-622 685.5,-628 679.5,-628"/>
<text text-anchor="middle" x="628.5" y="-606.9" font-family="sans" font-size="12.00" fill="#c4c7c7">Principle of division</text>
</a>
</g>
</g>
<!-- Set&#45;&gt;Principle of division -->
<g id="edge31" class="edge">
<title>Set&#45;&gt;Principle of division</title>
<path fill="none" stroke="#ffffff" d="M453.89,-579.41C484.51,-584.81 528.97,-592.64 565.24,-599.03"/>
<polygon fill="#ffffff" stroke="#ffffff" points="454.13,-575.9 443.67,-577.61 452.91,-582.79 454.13,-575.9"/>
</g>
<!-- Principle of products -->
<g id="node24" class="node">
<title>Principle of products</title>
<g id="a_node24"><a xlink:href="../Principle of products.html" xlink:title="Principle of products" target="_parent">
<path fill="none" stroke="#b75867" d="M683.5,-591C683.5,-591 573.5,-591 573.5,-591 567.5,-591 561.5,-585 561.5,-579 561.5,-579 561.5,-567 561.5,-567 561.5,-561 567.5,-555 573.5,-555 573.5,-555 683.5,-555 683.5,-555 689.5,-555 695.5,-561 695.5,-567 695.5,-567 695.5,-579 695.5,-579 695.5,-585 689.5,-591 683.5,-591"/>
<text text-anchor="middle" x="628.5" y="-569.9" font-family="sans" font-size="12.00" fill="#c4c7c7">Principle of products</text>
</a>
</g>
</g>
<!-- Set&#45;&gt;Principle of products -->
<g id="edge32" class="edge">
<title>Set&#45;&gt;Principle of products</title>
<path fill="none" stroke="#ffffff" d="M453.92,-573C483.42,-573 525.75,-573 561.22,-573"/>
<polygon fill="#ffffff" stroke="#ffffff" points="453.67,-569.5 443.67,-573 453.67,-576.5 453.67,-569.5"/>
</g>
<!-- Dirichlet principle -->
<g id="node25" class="node">
<title>Dirichlet principle</title>
<g id="a_node25"><a xlink:href="../Dirichlet principle.html" xlink:title="Dirichlet principle" target="_parent">
<path fill="none" stroke="#b75867" d="M674.5,-554C674.5,-554 582.5,-554 582.5,-554 576.5,-554 570.5,-548 570.5,-542 570.5,-542 570.5,-530 570.5,-530 570.5,-524 576.5,-518 582.5,-518 582.5,-518 674.5,-518 674.5,-518 680.5,-518 686.5,-524 686.5,-530 686.5,-530 686.5,-542 686.5,-542 686.5,-548 680.5,-554 674.5,-554"/>
<text text-anchor="middle" x="628.5" y="-532.9" font-family="sans" font-size="12.00" fill="#c4c7c7">Dirichlet principle</text>
</a>
</g>
</g>
<!-- Set&#45;&gt;Dirichlet principle -->
<g id="edge33" class="edge">
<title>Set&#45;&gt;Dirichlet principle</title>
<path fill="none" stroke="#ffffff" d="M453.52,-566.65C485.64,-560.99 533.2,-552.61 570.48,-546.05"/>
<polygon fill="#ffffff" stroke="#ffffff" points="452.91,-563.21 443.67,-568.39 454.13,-570.1 452.91,-563.21"/>
</g>
<!-- Principle of inclusion and exclusion -->
<g id="node26" class="node">
<title>Principle of inclusion and exclusion</title>
<g id="a_node26"><a xlink:href="../Principle of inclusion and exclusion.html" xlink:title="Principle of inclusion and exclusion" target="_parent">
<path fill="none" stroke="#b75867" d="M724,-813C724,-813 533,-813 533,-813 527,-813 521,-807 521,-801 521,-801 521,-789 521,-789 521,-783 527,-777 533,-777 533,-777 724,-777 724,-777 730,-777 736,-783 736,-789 736,-789 736,-801 736,-801 736,-807 730,-813 724,-813"/>
<text text-anchor="middle" x="628.5" y="-791.9" font-family="sans" font-size="12.00" fill="#c4c7c7">Principle of inclusion and exclusion</text>
</a>
</g>
</g>
<!-- Set&#45;&gt;Principle of inclusion and exclusion -->
<g id="edge34" class="edge">
<title>Set&#45;&gt;Principle of inclusion and exclusion</title>
<path fill="none" stroke="#ffffff" d="M423.72,-600.76C435.07,-644.6 463.45,-729.39 521,-773 522.81,-774.37 524.68,-775.66 526.6,-776.87"/>
<polygon fill="#ffffff" stroke="#ffffff" points="427.12,-599.91 421.32,-591.04 420.32,-601.59 427.12,-599.91"/>
</g>
<!-- Differential Analysis -->
<g id="node27" class="node">
<title>Differential Analysis</title>
<g id="a_node27"><a xlink:href="../Differential Analysis.html" xlink:title="Differential Analysis" target="_parent">
<path fill="none" stroke="#b75867" d="M680,-776C680,-776 577,-776 577,-776 571,-776 565,-770 565,-764 565,-764 565,-752 565,-752 565,-746 571,-740 577,-740 577,-740 680,-740 680,-740 686,-740 692,-746 692,-752 692,-752 692,-764 692,-764 692,-770 686,-776 680,-776"/>
<text text-anchor="middle" x="628.5" y="-754.9" font-family="sans" font-size="12.00" fill="#c4c7c7">Differential Analysis</text>
</a>
</g>
</g>
<!-- Set&#45;&gt;Differential Analysis -->
<g id="edge35" class="edge">
<title>Set&#45;&gt;Differential Analysis</title>
<path fill="none" stroke="#ffffff" d="M427.18,-600.72C441.59,-637.7 472.34,-702.4 521,-736 533.89,-744.9 549.62,-750.35 564.99,-753.64"/>
<polygon fill="#ffffff" stroke="#ffffff" points="430.35,-599.2 423.55,-591.08 423.8,-601.67 430.35,-599.2"/>
</g>
<!-- Principle of partitions -->
<g id="node28" class="node">
<title>Principle of partitions</title>
<g id="a_node28"><a xlink:href="../Principle of partitions.html" xlink:title="Principle of partitions" target="_parent">
<path fill="none" stroke="#b75867" d="M685,-739C685,-739 572,-739 572,-739 566,-739 560,-733 560,-727 560,-727 560,-715 560,-715 560,-709 566,-703 572,-703 572,-703 685,-703 685,-703 691,-703 697,-709 697,-715 697,-715 697,-727 697,-727 697,-733 691,-739 685,-739"/>
<text text-anchor="middle" x="628.5" y="-717.9" font-family="sans" font-size="12.00" fill="#c4c7c7">Principle of partitions</text>
</a>
</g>
</g>
<!-- Set&#45;&gt;Principle of partitions -->
<g id="edge36" class="edge">
<title>Set&#45;&gt;Principle of partitions</title>
<path fill="none" stroke="#ffffff" d="M432.24,-600.22C449.53,-629.42 480.99,-674.83 521,-699 532.72,-706.08 546.34,-710.91 559.85,-714.2"/>
<polygon fill="#ffffff" stroke="#ffffff" points="435.16,-598.27 427.13,-591.36 429.09,-601.77 435.16,-598.27"/>
</g>
<!-- Principle of the bijection -->
<g id="node29" class="node">
<title>Principle of the bijection</title>
<g id="a_node29"><a xlink:href="../Principle of the bijection.html" xlink:title="Principle of the bijection" target="_parent">
<path fill="none" stroke="#b75867" d="M693.5,-702C693.5,-702 563.5,-702 563.5,-702 557.5,-702 551.5,-696 551.5,-690 551.5,-690 551.5,-678 551.5,-678 551.5,-672 557.5,-666 563.5,-666 563.5,-666 693.5,-666 693.5,-666 699.5,-666 705.5,-672 705.5,-678 705.5,-678 705.5,-690 705.5,-690 705.5,-696 699.5,-702 693.5,-702"/>
<text text-anchor="middle" x="628.5" y="-680.9" font-family="sans" font-size="12.00" fill="#c4c7c7">Principle of the bijection</text>
</a>
</g>
</g>
<!-- Set&#45;&gt;Principle of the bijection -->
<g id="edge37" class="edge">
<title>Set&#45;&gt;Principle of the bijection</title>
<path fill="none" stroke="#ffffff" d="M440.03,-598.49C459.46,-618.84 489.32,-646.42 521,-662 530.49,-666.66 540.92,-670.34 551.43,-673.24"/>
<polygon fill="#ffffff" stroke="#ffffff" points="442.5,-596.01 433.12,-591.09 437.39,-600.79 442.5,-596.01"/>
</g>
<!-- Reflexive Relation&#45;&gt;Reflexive Closure -->
<g id="edge39" class="edge">
<title>Reflexive Relation&#45;&gt;Reflexive Closure</title>
<path fill="none" stroke="#ffffff" d="M183.8,-340.79C160.69,-338.81 135.14,-336.56 113.09,-334.56"/>
<polygon fill="#ffffff" stroke="#ffffff" points="183.61,-344.28 193.87,-341.64 184.21,-337.31 183.61,-344.28"/>
</g>
<!-- Reflexive Relation&#45;&gt;Relation -->
<g id="edge38" class="edge">
<title>Reflexive Relation&#45;&gt;Relation</title>
<path fill="none" stroke="#b75867" d="M199.67,-327.94C198.32,-327.36 196.99,-326.78 193.98,-325.39"/>
<polygon fill="#b75867" stroke="#b75867" points="195.43,-322.2 184.89,-321.11 192.45,-328.54 195.43,-322.2"/>
</g>
<!-- Reflexive Relation&#45;&gt;Relations -->
<g id="edge41" class="edge">
<title>Reflexive Relation&#45;&gt;Relations</title>
<path fill="none" stroke="#ffffff" d="M321.19,-336.39C342.07,-333.43 364.15,-330.29 381.69,-327.8"/>
<polygon fill="#ffffff" stroke="#ffffff" points="320.48,-332.96 311.07,-337.83 321.46,-339.89 320.48,-332.96"/>
</g>
<!-- Reflexive Relation&#45;&gt;Relation of Equivalence -->
<g id="edge40" class="edge">
<title>Reflexive Relation&#45;&gt;Relation of Equivalence</title>
<path fill="none" stroke="#ffffff" d="M287.57,-369.5C297.59,-375.27 308.86,-380.73 320,-384 361.21,-396.09 474.29,-375.4 513,-394 517.82,-396.32 516.37,-400.32 521,-403 531.05,-408.81 542.42,-413.1 553.9,-416.26"/>
<polygon fill="#ffffff" stroke="#ffffff" points="289.12,-366.35 278.76,-364.16 285.5,-372.34 289.12,-366.35"/>
</g>
<!-- Reflexive Relation&#45;&gt;Linear order -->
<g id="edge42" class="edge">
<title>Reflexive Relation&#45;&gt;Linear order</title>
<path fill="none" stroke="#ffffff" d="M321.39,-346.18C373.75,-346.4 447.96,-346.9 513,-348 536.96,-348.41 563.73,-349.09 585.36,-349.71"/>
<polygon fill="#ffffff" stroke="#ffffff" points="321.24,-342.68 311.22,-346.14 321.21,-349.68 321.24,-342.68"/>
</g>
<!-- Reflexive Relation&#45;&gt;Partial order -->
<g id="edge44" class="edge">
<title>Reflexive Relation&#45;&gt;Partial order</title>
<path fill="none" stroke="#ffffff" d="M321.31,-344.9C392.58,-344.25 496.66,-344.93 513,-354 518.6,-357.11 515.69,-362.42 521,-366 539.86,-378.72 564.56,-384.34 585.43,-386.72"/>
<polygon fill="#ffffff" stroke="#ffffff" points="321.01,-341.41 311.04,-345.01 321.08,-348.41 321.01,-341.41"/>
</g>
<!-- Partial orders have no contours -->
<g id="node30" class="node">
<title>Partial orders have no contours</title>
<g id="a_node30"><a xlink:href="../Partial orders have no contours.html" xlink:title="Partial orders have no contours" target="_parent">
<path fill="none" stroke="#b75867" d="M501,-387C501,-387 332,-387 332,-387 326,-387 320,-381 320,-375 320,-375 320,-363 320,-363 320,-357 326,-351 332,-351 332,-351 501,-351 501,-351 507,-351 513,-357 513,-363 513,-363 513,-375 513,-375 513,-381 507,-387 501,-387"/>
<text text-anchor="middle" x="416.5" y="-365.9" font-family="sans" font-size="12.00" fill="#c4c7c7">Partial orders have no contours</text>
</a>
</g>
</g>
<!-- Reflexive Relation&#45;&gt;Partial orders have no contours -->
<g id="edge43" class="edge">
<title>Reflexive Relation&#45;&gt;Partial orders have no contours</title>
<path fill="none" stroke="#ffffff" d="M319.64,-355.39C319.73,-355.4 319.82,-355.42 319.92,-355.43"/>
<polygon fill="#ffffff" stroke="#ffffff" points="321.46,-352.11 311.07,-354.17 320.48,-359.04 321.46,-352.11"/>
</g>
<!-- Relations&#45;&gt;Reflexive Closure -->
<g id="edge53" class="edge">
<title>Relations&#45;&gt;Reflexive Closure</title>
<path fill="none" stroke="#b75867" d="M381.9,-324.02C322.85,-325.35 199.47,-327.46 123.05,-328.5"/>
<polygon fill="#b75867" stroke="#b75867" points="123,-325 113.04,-328.63 123.09,-332 123,-325"/>
</g>
<!-- Relations&#45;&gt;Reflexive Closure -->
<g id="edge56" class="edge">
<title>Relations&#45;&gt;Reflexive Closure</title>
<path fill="none" stroke="#b75867" d="M381.9,-324.48C322.85,-326.14 199.47,-328.3 123.05,-329.09"/>
<polygon fill="#b75867" stroke="#b75867" points="123.01,-325.59 113.04,-329.19 123.08,-332.59 123.01,-325.59"/>
</g>
<!-- Relations&#45;&gt;Relation -->
<g id="edge63" class="edge">
<title>Relations&#45;&gt;Relation</title>
<path fill="none" stroke="#b75867" d="M381.63,-320.93C333.81,-317.56 246.61,-310.91 195.13,-306.71"/>
<polygon fill="#b75867" stroke="#b75867" points="195.28,-303.21 185.02,-305.88 194.7,-310.19 195.28,-303.21"/>
</g>
<!-- Relations&#45;&gt;Reflexive Relation -->
<g id="edge62" class="edge">
<title>Relations&#45;&gt;Reflexive Relation</title>
<path fill="none" stroke="#b75867" d="M381.69,-328.42C364.15,-331.02 342.07,-334.2 321.19,-337.13"/>
<polygon fill="#b75867" stroke="#b75867" points="320.49,-333.69 311.07,-338.55 321.46,-340.63 320.49,-333.69"/>
</g>
<!-- Relations&#45;&gt;Symmetric Closure -->
<g id="edge52" class="edge">
<title>Relations&#45;&gt;Symmetric Closure</title>
<path fill="none" stroke="#b75867" d="M451.41,-323.77C472.45,-326.17 498.2,-332.98 513,-351 525.6,-366.35 507.78,-425.18 521,-440 530.35,-450.49 543.27,-456.74 556.89,-460.32"/>
<polygon fill="#b75867" stroke="#b75867" points="556.38,-463.79 566.89,-462.49 557.86,-456.95 556.38,-463.79"/>
</g>
<!-- Relations&#45;&gt;Symmetric Closure -->
<g id="edge54" class="edge">
<title>Relations&#45;&gt;Symmetric Closure</title>
<path fill="none" stroke="#b75867" d="M451.41,-324.63C472.45,-327.17 498.2,-333.98 513,-352 525.6,-367.35 507.78,-426.18 521,-441 530.35,-451.49 543.27,-457.74 556.89,-461.3"/>
<polygon fill="#b75867" stroke="#b75867" points="556.38,-464.77 566.89,-463.44 557.85,-457.92 556.38,-464.77"/>
</g>
<!-- Relations&#45;&gt;Anti&#45;symmetric Relation -->
<g id="edge59" class="edge">
<title>Relations&#45;&gt;Anti&#45;symmetric Relation</title>
<path fill="none" stroke="#b75867" d="M451.13,-324.43C472.05,-323.38 497.77,-318.2 513,-301 535.51,-275.57 498.2,-250.17 521,-225 527.08,-218.29 534.62,-213.32 542.85,-209.68"/>
<polygon fill="#b75867" stroke="#b75867" points="544.27,-212.89 552.41,-206.11 541.82,-206.33 544.27,-212.89"/>
</g>
<!-- Relations&#45;&gt;Chain -->
<g id="edge45" class="edge">
<title>Relations&#45;&gt;Chain</title>
<path fill="none" stroke="#b75867" d="M451.42,-323.45C472.46,-321.77 498.21,-315.79 513,-298 528.67,-279.16 504.84,-206.43 521,-188 538.13,-168.46 567.63,-163.57 591.24,-163.23"/>
<polygon fill="#b75867" stroke="#b75867" points="591.23,-166.73 601.27,-163.34 591.31,-159.73 591.23,-166.73"/>
</g>
<!-- Relations&#45;&gt;Relation of Equivalence -->
<g id="edge50" class="edge">
<title>Relations&#45;&gt;Relation of Equivalence</title>
<path fill="none" stroke="#b75867" d="M451.04,-324.09C471.92,-326.62 497.64,-333.45 513,-351 528.4,-368.59 504.89,-386.05 521,-403 527.49,-409.83 535.51,-414.84 544.2,-418.47"/>
<polygon fill="#b75867" stroke="#b75867" points="543.26,-421.85 553.86,-421.89 545.6,-415.25 543.26,-421.85"/>
</g>
<!-- Relations&#45;&gt;Symmetric Relation -->
<g id="edge60" class="edge">
<title>Relations&#45;&gt;Symmetric Relation</title>
<path fill="none" stroke="#b75867" d="M451.15,-322.45C472.36,-320.16 498.4,-313.41 513,-295 532.92,-269.89 500.08,-175.28 521,-151 529.69,-140.91 541.68,-134.72 554.48,-131.03"/>
<polygon fill="#b75867" stroke="#b75867" points="555.47,-134.39 564.39,-128.67 553.85,-127.58 555.47,-134.39"/>
</g>
<!-- Relations&#45;&gt;Linear order -->
<g id="edge47" class="edge">
<title>Relations&#45;&gt;Linear order</title>
<path fill="none" stroke="#b75867" d="M451.24,-327.5C484.66,-331.95 536.31,-338.84 575.08,-344.01"/>
<polygon fill="#b75867" stroke="#b75867" points="574.77,-347.5 585.14,-345.35 575.69,-340.56 574.77,-347.5"/>
</g>
<!-- Relations&#45;&gt;Transitive Relation -->
<g id="edge57" class="edge">
<title>Relations&#45;&gt;Transitive Relation</title>
<path fill="none" stroke="#b75867" d="M441.56,-304.69C464.4,-285.77 497.48,-253.97 513,-218 522.18,-196.72 505.68,-131.4 521,-114 530.58,-103.12 543.99,-96.79 558.08,-93.25"/>
<polygon fill="#b75867" stroke="#b75867" points="558.81,-96.68 567.9,-91.23 557.4,-89.82 558.81,-96.68"/>
</g>
<!-- Relations&#45;&gt;Anti&#45;reflexive relation -->
<g id="edge61" class="edge">
<title>Relations&#45;&gt;Anti&#45;reflexive relation</title>
<path fill="none" stroke="#b75867" d="M429.49,-304.9C450.22,-272.65 492.5,-202.47 513,-137 517.02,-124.16 511.83,-86.84 521,-77 528.81,-68.61 538.91,-62.96 549.77,-59.23"/>
<polygon fill="#b75867" stroke="#b75867" points="550.84,-62.56 559.47,-56.42 548.89,-55.84 550.84,-62.56"/>
</g>
<!-- Relations&#45;&gt;Strongly Anti&#45;symmetric Relation -->
<g id="edge58" class="edge">
<title>Relations&#45;&gt;Strongly Anti&#45;symmetric Relation</title>
<path fill="none" stroke="#b75867" d="M423.65,-304.68C442.35,-249.19 498.35,-84.46 520.95,-43.86"/>
<polygon fill="#b75867" stroke="#b75867" points="523.94,-45.7 526.82,-35.5 518.21,-41.68 523.94,-45.7"/>
</g>
<!-- Relations&#45;&gt;Partial order -->
<g id="edge48" class="edge">
<title>Relations&#45;&gt;Partial order</title>
<path fill="none" stroke="#b75867" d="M451.09,-323.1C471.2,-324.86 496.07,-330.25 513,-345 520.53,-351.56 513.39,-359.53 521,-366 535.99,-378.76 556.43,-384.78 575.4,-387.42"/>
<polygon fill="#b75867" stroke="#b75867" points="575.12,-390.91 585.45,-388.55 575.9,-383.96 575.12,-390.91"/>
</g>
<!-- Relations&#45;&gt;Class of equivalence -->
<g id="edge49" class="edge">
<title>Relations&#45;&gt;Class of equivalence</title>
<path fill="none" stroke="#b75867" d="M451.11,-323.59C472.29,-325.89 498.33,-332.65 513,-351 530.52,-372.91 502.6,-455.82 521,-477 529.35,-486.62 540.7,-492.69 552.88,-496.42"/>
<polygon fill="#b75867" stroke="#b75867" points="552.24,-499.87 562.79,-498.94 553.96,-493.09 552.24,-499.87"/>
</g>
<!-- Linear extension -->
<g id="node31" class="node">
<title>Linear extension</title>
<g id="a_node31"><a xlink:href="../Linear extension.html" xlink:title="Linear extension" target="_parent">
<path fill="#273434" stroke="#b75867" d="M671.5,-332C671.5,-332 585.5,-332 585.5,-332 579.5,-332 573.5,-326 573.5,-320 573.5,-320 573.5,-308 573.5,-308 573.5,-302 579.5,-296 585.5,-296 585.5,-296 671.5,-296 671.5,-296 677.5,-296 683.5,-302 683.5,-308 683.5,-308 683.5,-320 683.5,-320 683.5,-326 677.5,-332 671.5,-332"/>
<text text-anchor="middle" x="628.5" y="-310.9" font-family="sans" font-size="12.00" fill="#c4c7c7">Linear extension</text>
</a>
</g>
</g>
<!-- Relations&#45;&gt;Linear extension -->
<g id="edge46" class="edge">
<title>Relations&#45;&gt;Linear extension</title>
<path fill="none" stroke="#b75867" d="M451.24,-321.55C481.34,-320.26 526.23,-318.34 563.17,-316.76"/>
<polygon fill="#b75867" stroke="#b75867" points="563.52,-320.25 573.36,-316.32 563.22,-313.25 563.52,-320.25"/>
</g>
<!-- Transitive Closure -->
<g id="node32" class="node">
<title>Transitive Closure</title>
<g id="a_node32"><a xlink:href="../Transitive Closure.html" xlink:title="Transitive Closure" target="_parent">
<path fill="#273434" stroke="#b75867" d="M674.5,-295C674.5,-295 582.5,-295 582.5,-295 576.5,-295 570.5,-289 570.5,-283 570.5,-283 570.5,-271 570.5,-271 570.5,-265 576.5,-259 582.5,-259 582.5,-259 674.5,-259 674.5,-259 680.5,-259 686.5,-265 686.5,-271 686.5,-271 686.5,-283 686.5,-283 686.5,-289 680.5,-295 674.5,-295"/>
<text text-anchor="middle" x="628.5" y="-273.9" font-family="sans" font-size="12.00" fill="#c4c7c7">Transitive Closure</text>
</a>
</g>
</g>
<!-- Relations&#45;&gt;Transitive Closure -->
<g id="edge51" class="edge">
<title>Relations&#45;&gt;Transitive Closure</title>
<path fill="none" stroke="#b75867" d="M451.13,-315.41C469.44,-311.24 492.49,-305.93 513,-301 516.56,-300.14 517.43,-299.82 521,-299 533.76,-296.09 547.42,-293.14 560.56,-290.39"/>
<polygon fill="#b75867" stroke="#b75867" points="561.4,-293.79 570.48,-288.33 559.97,-286.94 561.4,-293.79"/>
</g>
<!-- Relations&#45;&gt;Transitive Closure -->
<g id="edge55" class="edge">
<title>Relations&#45;&gt;Transitive Closure</title>
<path fill="none" stroke="#b75867" d="M451.13,-316.3C469.44,-312.24 492.49,-306.93 513,-302 516.56,-301.14 517.43,-300.82 521,-300 533.76,-297.09 547.42,-294.14 560.56,-291.37"/>
<polygon fill="#b75867" stroke="#b75867" points="561.41,-294.77 570.48,-289.29 559.97,-287.92 561.41,-294.77"/>
</g>
<!-- Discrete Structures -->
<g id="node33" class="node">
<title>Discrete Structures</title>
<g id="a_node33"><a xlink:href="../Discrete Structures.html" xlink:title="Discrete Structures" target="_parent">
<path fill="none" stroke="#b75867" d="M677.5,-258C677.5,-258 579.5,-258 579.5,-258 573.5,-258 567.5,-252 567.5,-246 567.5,-246 567.5,-234 567.5,-234 567.5,-228 573.5,-222 579.5,-222 579.5,-222 677.5,-222 677.5,-222 683.5,-222 689.5,-228 689.5,-234 689.5,-234 689.5,-246 689.5,-246 689.5,-252 683.5,-258 677.5,-258"/>
<text text-anchor="middle" x="628.5" y="-236.9" font-family="sans" font-size="12.00" fill="#c4c7c7">Discrete Structures</text>
</a>
</g>
</g>
<!-- Relations&#45;&gt;Discrete Structures -->
<g id="edge64" class="edge">
<title>Relations&#45;&gt;Discrete Structures</title>
<path fill="none" stroke="#ffffff" d="M461,-322.96C479.37,-320.66 499.56,-314.77 513,-301 525.36,-288.34 508.5,-274.52 521,-262 533.27,-249.71 550.48,-243.41 567.49,-240.39"/>
<polygon fill="#ffffff" stroke="#ffffff" points="460.67,-319.47 451.04,-323.89 461.33,-326.44 460.67,-319.47"/>
</g>
</g>
</svg>
