<?xml version="1.0" encoding="UTF-8" standalone="no"?>
<!DOCTYPE svg PUBLIC "-//W3C//DTD SVG 1.1//EN"
 "http://www.w3.org/Graphics/SVG/1.1/DTD/svg11.dtd">
<!-- Generated by graphviz version 2.46.1 (0)
 -->
<!-- Title: Reflexive Relation Pages: 1 -->
<svg width="867pt" height="480pt"
 viewBox="0.00 0.00 867.00 480.00" xmlns="http://www.w3.org/2000/svg" xmlns:xlink="http://www.w3.org/1999/xlink">
<g id="graph0" class="graph" transform="scale(1 1) rotate(0) translate(4 476)">
<title>Reflexive Relation</title>
<polygon fill="#132020" stroke="transparent" points="-4,4 -4,-476 863,-476 863,4 -4,4"/>
<!-- Reflexive Relation -->
<g id="node1" class="node">
<title>Reflexive Relation</title>
<g id="a_node1"><a xlink:href="/Knowledge/reflexive_relation.html" xlink:title="Reflexive Relation" target="_parent">
<path fill="#273434" stroke="#b75867" d="M94,-247C94,-247 12,-247 12,-247 6,-247 0,-241 0,-235 0,-235 0,-223 0,-223 0,-217 6,-211 12,-211 12,-211 94,-211 94,-211 100,-211 106,-217 106,-223 106,-223 106,-235 106,-235 106,-241 100,-247 94,-247"/>
<text text-anchor="middle" x="53" y="-225.9" font-family="sans" font-size="12.00" fill="#c4c7c7">Reflexive Relation</text>
</a>
</g>
</g>
<!-- Relation -->
<g id="node2" class="node">
<title>Relation</title>
<g id="a_node2"><a xlink:href="/Knowledge/relation.html" xlink:title="Relation" target="_parent">
<path fill="#273434" stroke="#b75867" d="M161,-247C161,-247 126,-247 126,-247 120,-247 114,-241 114,-235 114,-235 114,-223 114,-223 114,-217 120,-211 126,-211 126,-211 161,-211 161,-211 167,-211 173,-217 173,-223 173,-223 173,-235 173,-235 173,-241 167,-247 161,-247"/>
<text text-anchor="middle" x="143.5" y="-225.9" font-family="sans" font-size="12.00" fill="#c4c7c7">Relation</text>
</a>
</g>
</g>
<!-- Reflexive Relation&#45;&gt;Relation -->
<g id="edge1" class="edge">
<title>Reflexive Relation&#45;&gt;Relation</title>
<path fill="none" stroke="#b75867" d="M106.25,-229C106.41,-229 106.57,-229 106.73,-229"/>
<polygon fill="#b75867" stroke="#b75867" points="103.74,-232.5 113.74,-229 103.74,-225.5 103.74,-232.5"/>
</g>
<!-- Partial order -->
<g id="node3" class="node">
<title>Partial order</title>
<g id="a_node3"><a xlink:href="/Knowledge/partial_order.html" xlink:title="Partial order" target="_parent">
<path fill="none" stroke="#b75867" d="M262.5,-319C262.5,-319 207.5,-319 207.5,-319 201.5,-319 195.5,-313 195.5,-307 195.5,-307 195.5,-295 195.5,-295 195.5,-289 201.5,-283 207.5,-283 207.5,-283 262.5,-283 262.5,-283 268.5,-283 274.5,-289 274.5,-295 274.5,-295 274.5,-307 274.5,-307 274.5,-313 268.5,-319 262.5,-319"/>
<text text-anchor="middle" x="235" y="-297.9" font-family="sans" font-size="12.00" fill="#c4c7c7">Partial order</text>
</a>
</g>
</g>
<!-- Reflexive Relation&#45;&gt;Partial order -->
<g id="edge2" class="edge">
<title>Reflexive Relation&#45;&gt;Partial order</title>
<path fill="none" stroke="#ffffff" d="M109.05,-251.02C136.94,-262.18 170.14,-275.46 195.3,-285.52"/>
<polygon fill="#ffffff" stroke="#ffffff" points="110.01,-247.63 99.42,-247.17 107.41,-254.13 110.01,-247.63"/>
</g>
<!-- Linear order -->
<g id="node4" class="node">
<title>Linear order</title>
<g id="a_node4"><a xlink:href="/Knowledge/linear_order.html" xlink:title="Linear order" target="_parent">
<path fill="none" stroke="#b75867" d="M411.5,-319C411.5,-319 356.5,-319 356.5,-319 350.5,-319 344.5,-313 344.5,-307 344.5,-307 344.5,-295 344.5,-295 344.5,-289 350.5,-283 356.5,-283 356.5,-283 411.5,-283 411.5,-283 417.5,-283 423.5,-289 423.5,-295 423.5,-295 423.5,-307 423.5,-307 423.5,-313 417.5,-319 411.5,-319"/>
<text text-anchor="middle" x="384" y="-297.9" font-family="sans" font-size="12.00" fill="#c4c7c7">Linear order</text>
</a>
</g>
</g>
<!-- Reflexive Relation&#45;&gt;Linear order -->
<g id="edge3" class="edge">
<title>Reflexive Relation&#45;&gt;Linear order</title>
<path fill="none" stroke="#ffffff" d="M80.29,-254.15C104.34,-275.29 142.01,-303.92 181,-316 235.92,-333.01 303.09,-322.17 344.45,-312.12"/>
<polygon fill="#ffffff" stroke="#ffffff" points="82.45,-251.39 72.67,-247.31 77.77,-256.6 82.45,-251.39"/>
</g>
<!-- Reflexive Closure -->
<g id="node5" class="node">
<title>Reflexive Closure</title>
<g id="a_node5"><a xlink:href="/Knowledge/reflexive_closure.html" xlink:title="Reflexive Closure" target="_parent">
<path fill="none" stroke="#b75867" d="M680.5,-78C680.5,-78 602.5,-78 602.5,-78 596.5,-78 590.5,-72 590.5,-66 590.5,-66 590.5,-54 590.5,-54 590.5,-48 596.5,-42 602.5,-42 602.5,-42 680.5,-42 680.5,-42 686.5,-42 692.5,-48 692.5,-54 692.5,-54 692.5,-66 692.5,-66 692.5,-72 686.5,-78 680.5,-78"/>
<text text-anchor="middle" x="641.5" y="-56.9" font-family="sans" font-size="12.00" fill="#c4c7c7">Reflexive Closure</text>
</a>
</g>
</g>
<!-- Reflexive Relation&#45;&gt;Reflexive Closure -->
<g id="edge4" class="edge">
<title>Reflexive Relation&#45;&gt;Reflexive Closure</title>
<path fill="none" stroke="#ffffff" d="M64.1,-201.25C73.81,-177.82 90.5,-144.73 114,-123 157.22,-83.05 175.15,-67 234,-67 234,-67 234,-67 385,-67 456.22,-67 538.57,-64.25 590.09,-62.2"/>
<polygon fill="#ffffff" stroke="#ffffff" points="60.81,-200.04 60.36,-210.63 67.31,-202.63 60.81,-200.04"/>
</g>
<!-- Relations -->
<g id="node6" class="node">
<title>Relations</title>
<g id="a_node6"><a xlink:href="/Knowledge/relations.html" xlink:title="Relations" target="_parent">
<path fill="none" stroke="#b75867" d="M531,-230C531,-230 491,-230 491,-230 485,-230 479,-224 479,-218 479,-218 479,-206 479,-206 479,-200 485,-194 491,-194 491,-194 531,-194 531,-194 537,-194 543,-200 543,-206 543,-206 543,-218 543,-218 543,-224 537,-230 531,-230"/>
<text text-anchor="middle" x="511" y="-208.9" font-family="sans" font-size="12.00" fill="#c4c7c7">Relations</text>
</a>
</g>
</g>
<!-- Reflexive Relation&#45;&gt;Relations -->
<g id="edge5" class="edge">
<title>Reflexive Relation&#45;&gt;Relations</title>
<path fill="none" stroke="#ffffff" d="M81.9,-204.5C106.19,-184.92 143.33,-158.99 181,-148 288.25,-116.71 419.69,-168.35 478.7,-196.13"/>
<polygon fill="#ffffff" stroke="#ffffff" points="79.67,-201.81 74.17,-210.87 84.12,-207.21 79.67,-201.81"/>
</g>
<!-- Relation of Equivalence -->
<g id="node7" class="node">
<title>Relation of Equivalence</title>
<g id="a_node7"><a xlink:href="/Knowledge/relation_of_equivalence.html" xlink:title="Relation of Equivalence" target="_parent">
<path fill="none" stroke="#b75867" d="M696.5,-115C696.5,-115 586.5,-115 586.5,-115 580.5,-115 574.5,-109 574.5,-103 574.5,-103 574.5,-91 574.5,-91 574.5,-85 580.5,-79 586.5,-79 586.5,-79 696.5,-79 696.5,-79 702.5,-79 708.5,-85 708.5,-91 708.5,-91 708.5,-103 708.5,-103 708.5,-109 702.5,-115 696.5,-115"/>
<text text-anchor="middle" x="641.5" y="-93.9" font-family="sans" font-size="12.00" fill="#c4c7c7">Relation of Equivalence</text>
</a>
</g>
</g>
<!-- Reflexive Relation&#45;&gt;Relation of Equivalence -->
<g id="edge6" class="edge">
<title>Reflexive Relation&#45;&gt;Relation of Equivalence</title>
<path fill="none" stroke="#ffffff" d="M69.43,-202.23C80.14,-185.61 95.74,-164.85 114,-151 157.97,-117.64 178.8,-119 234,-119 234,-119 234,-119 385,-119 449.56,-119 522.95,-111.94 574.46,-105.82"/>
<polygon fill="#ffffff" stroke="#ffffff" points="66.3,-200.62 63.99,-210.96 72.25,-204.32 66.3,-200.62"/>
</g>
<!-- Partial orders have no contours -->
<g id="node8" class="node">
<title>Partial orders have no contours</title>
<g id="a_node8"><a xlink:href="/Knowledge/partial_orders_have_no_contours.html" xlink:title="Partial orders have no contours" target="_parent">
<path fill="none" stroke="#b75867" d="M459,-452C459,-452 309,-452 309,-452 303,-452 297,-446 297,-440 297,-440 297,-428 297,-428 297,-422 303,-416 309,-416 309,-416 459,-416 459,-416 465,-416 471,-422 471,-428 471,-428 471,-440 471,-440 471,-446 465,-452 459,-452"/>
<text text-anchor="middle" x="384" y="-430.9" font-family="sans" font-size="12.00" fill="#c4c7c7">Partial orders have no contours</text>
</a>
</g>
</g>
<!-- Reflexive Relation&#45;&gt;Partial orders have no contours -->
<g id="edge7" class="edge">
<title>Reflexive Relation&#45;&gt;Partial orders have no contours</title>
<path fill="none" stroke="#ffffff" d="M73.62,-255.13C84.62,-268.8 99.1,-285.29 114,-298 186.91,-360.18 208.88,-374.35 297,-412 300.26,-413.39 303.63,-414.71 307.06,-415.96"/>
<polygon fill="#ffffff" stroke="#ffffff" points="76.19,-252.73 67.25,-247.04 70.69,-257.06 76.19,-252.73"/>
</g>
<!-- Relation&#45;&gt;Reflexive Relation -->
<g id="edge14" class="edge">
<title>Relation&#45;&gt;Reflexive Relation</title>
<path fill="none" stroke="#ffffff" d="M106.73,-229.74C106.57,-229.74 106.41,-229.74 106.25,-229.74"/>
<polygon fill="#ffffff" stroke="#ffffff" points="103.75,-233.25 113.74,-229.71 103.72,-226.25 103.75,-233.25"/>
</g>
<!-- Relation&#45;&gt;Partial order -->
<g id="edge9" class="edge">
<title>Relation&#45;&gt;Partial order</title>
<path fill="none" stroke="#ffffff" d="M159.86,-255.58C165.66,-263.9 172.85,-272.59 181,-279 185.31,-282.39 190.21,-285.34 195.25,-287.88"/>
<polygon fill="#ffffff" stroke="#ffffff" points="162.75,-253.59 154.34,-247.13 156.89,-257.42 162.75,-253.59"/>
</g>
<!-- Relation&#45;&gt;Linear order -->
<g id="edge11" class="edge">
<title>Relation&#45;&gt;Linear order</title>
<path fill="none" stroke="#ffffff" d="M172.61,-255.86C176.93,-265.53 174.5,-270.98 181,-276 200.08,-290.72 265.09,-282.99 289,-286 307.2,-288.29 327.29,-291.42 344.21,-294.22"/>
<polygon fill="#ffffff" stroke="#ffffff" points="175.53,-253.92 167.4,-247.12 169.52,-257.5 175.53,-253.92"/>
</g>
<!-- Relation&#45;&gt;Reflexive Closure -->
<g id="edge18" class="edge">
<title>Relation&#45;&gt;Reflexive Closure</title>
<path fill="none" stroke="#ffffff" d="M146.37,-200.93C149.56,-176.72 158.13,-142.77 181,-124 212.28,-98.32 477.71,-73.51 590.32,-64.04"/>
<polygon fill="#ffffff" stroke="#ffffff" points="142.88,-200.64 145.27,-210.96 149.84,-201.4 142.88,-200.64"/>
</g>
<!-- Relation&#45;&gt;Relations -->
<g id="edge21" class="edge">
<title>Relation&#45;&gt;Relations</title>
<path fill="none" stroke="#ffffff" d="M183.18,-227.87C212.29,-226.97 253.15,-225.59 289,-224 356.75,-220.99 436.13,-216.43 478.9,-213.88"/>
<polygon fill="#ffffff" stroke="#ffffff" points="182.91,-224.37 173.02,-228.18 183.12,-231.37 182.91,-224.37"/>
</g>
<!-- Relation&#45;&gt;Relation of Equivalence -->
<g id="edge23" class="edge">
<title>Relation&#45;&gt;Relation of Equivalence</title>
<path fill="none" stroke="#ffffff" d="M147.59,-200.84C151.55,-179.56 160.54,-151.61 181,-137 213.77,-113.6 503.12,-125.59 543,-120 553.25,-118.56 564,-116.55 574.47,-114.31"/>
<polygon fill="#ffffff" stroke="#ffffff" points="144.1,-200.53 145.99,-210.95 151.01,-201.63 144.1,-200.53"/>
</g>
<!-- Descartes Product -->
<g id="node9" class="node">
<title>Descartes Product</title>
<g id="a_node9"><a xlink:href="/Knowledge/descartes_product.html" xlink:title="Descartes Product" target="_parent">
<path fill="#273434" stroke="#b75867" d="M277,-184C277,-184 193,-184 193,-184 187,-184 181,-178 181,-172 181,-172 181,-160 181,-160 181,-154 187,-148 193,-148 193,-148 277,-148 277,-148 283,-148 289,-154 289,-160 289,-160 289,-172 289,-172 289,-178 283,-184 277,-184"/>
<text text-anchor="middle" x="235" y="-162.9" font-family="sans" font-size="12.00" fill="#c4c7c7">Descartes Product</text>
</a>
</g>
</g>
<!-- Relation&#45;&gt;Descartes Product -->
<g id="edge8" class="edge">
<title>Relation&#45;&gt;Descartes Product</title>
<path fill="none" stroke="#b75867" d="M157.56,-210.96C162.65,-204.71 168.89,-197.84 178.79,-190.12"/>
<polygon fill="#b75867" stroke="#b75867" points="181.1,-192.76 187.11,-184.04 176.97,-187.11 181.1,-192.76"/>
</g>
<!-- Chain -->
<g id="node10" class="node">
<title>Chain</title>
<g id="a_node10"><a xlink:href="/Knowledge/chain.html" xlink:title="Chain" target="_parent">
<path fill="none" stroke="#b75867" d="M656.5,-386C656.5,-386 626.5,-386 626.5,-386 620.5,-386 614.5,-380 614.5,-374 614.5,-374 614.5,-362 614.5,-362 614.5,-356 620.5,-350 626.5,-350 626.5,-350 656.5,-350 656.5,-350 662.5,-350 668.5,-356 668.5,-362 668.5,-362 668.5,-374 668.5,-374 668.5,-380 662.5,-386 656.5,-386"/>
<text text-anchor="middle" x="641.5" y="-364.9" font-family="sans" font-size="12.00" fill="#c4c7c7">Chain</text>
</a>
</g>
</g>
<!-- Relation&#45;&gt;Chain -->
<g id="edge10" class="edge">
<title>Relation&#45;&gt;Chain</title>
<path fill="none" stroke="#ffffff" d="M183.3,-231.71C212.46,-234.01 253.35,-237.76 289,-243 370.58,-254.99 396.62,-243.41 471,-279 512.84,-299.02 509.63,-325.03 551,-346 570.98,-356.13 595.87,-361.76 614.33,-364.78"/>
<polygon fill="#ffffff" stroke="#ffffff" points="183.35,-228.21 173.12,-230.94 182.82,-235.19 183.35,-228.21"/>
</g>
<!-- Partial function -->
<g id="node11" class="node">
<title>Partial function</title>
<g id="a_node11"><a xlink:href="/Knowledge/partial_function.html" xlink:title="Partial function" target="_parent">
<path fill="none" stroke="#b75867" d="M270,-276C270,-276 200,-276 200,-276 194,-276 188,-270 188,-264 188,-264 188,-252 188,-252 188,-246 194,-240 200,-240 200,-240 270,-240 270,-240 276,-240 282,-246 282,-252 282,-252 282,-264 282,-264 282,-270 276,-276 270,-276"/>
<text text-anchor="middle" x="235" y="-254.9" font-family="sans" font-size="12.00" fill="#c4c7c7">Partial function</text>
</a>
</g>
</g>
<!-- Relation&#45;&gt;Partial function -->
<g id="edge12" class="edge">
<title>Relation&#45;&gt;Partial function</title>
<path fill="none" stroke="#ffffff" d="M182.85,-241.42C184.55,-241.98 186.26,-242.53 187.98,-243.09"/>
<polygon fill="#ffffff" stroke="#ffffff" points="183.9,-238.09 173.31,-238.34 181.75,-244.75 183.9,-238.09"/>
</g>
<!-- Total function -->
<g id="node12" class="node">
<title>Total function</title>
<g id="a_node12"><a xlink:href="/Knowledge/total_function.html" xlink:title="Total function" target="_parent">
<path fill="none" stroke="#b75867" d="M266,-227C266,-227 204,-227 204,-227 198,-227 192,-221 192,-215 192,-215 192,-203 192,-203 192,-197 198,-191 204,-191 204,-191 266,-191 266,-191 272,-191 278,-197 278,-203 278,-203 278,-215 278,-215 278,-221 272,-227 266,-227"/>
<text text-anchor="middle" x="235" y="-205.9" font-family="sans" font-size="12.00" fill="#c4c7c7">Total function</text>
</a>
</g>
</g>
<!-- Relation&#45;&gt;Total function -->
<g id="edge13" class="edge">
<title>Relation&#45;&gt;Total function</title>
<path fill="none" stroke="#ffffff" d="M183.34,-220.32C186.17,-219.69 189.03,-219.05 191.88,-218.41"/>
<polygon fill="#ffffff" stroke="#ffffff" points="182.31,-216.97 173.31,-222.56 183.83,-223.8 182.31,-216.97"/>
</g>
<!-- Symmetric Closure -->
<g id="node13" class="node">
<title>Symmetric Closure</title>
<g id="a_node13"><a xlink:href="/Knowledge/symmetric_closure.html" xlink:title="Symmetric Closure" target="_parent">
<path fill="none" stroke="#b75867" d="M685,-192C685,-192 598,-192 598,-192 592,-192 586,-186 586,-180 586,-180 586,-168 586,-168 586,-162 592,-156 598,-156 598,-156 685,-156 685,-156 691,-156 697,-162 697,-168 697,-168 697,-180 697,-180 697,-186 691,-192 685,-192"/>
<text text-anchor="middle" x="641.5" y="-170.9" font-family="sans" font-size="12.00" fill="#c4c7c7">Symmetric Closure</text>
</a>
</g>
</g>
<!-- Relation&#45;&gt;Symmetric Closure -->
<g id="edge15" class="edge">
<title>Relation&#45;&gt;Symmetric Closure</title>
<path fill="none" stroke="#ffffff" d="M166.12,-203.59C170.63,-199.73 175.65,-196.29 181,-194 199.31,-186.17 468.14,-178.4 585.91,-175.35"/>
<polygon fill="#ffffff" stroke="#ffffff" points="163.39,-201.35 158.6,-210.8 168.24,-206.4 163.39,-201.35"/>
</g>
<!-- Anti&#45;symmetric Relation -->
<g id="node14" class="node">
<title>Anti&#45;symmetric Relation</title>
<g id="a_node14"><a xlink:href="/Knowledge/anti-symmetric_relation.html" xlink:title="Anti&#45;symmetric Relation" target="_parent">
<path fill="none" stroke="#b75867" d="M698,-312C698,-312 585,-312 585,-312 579,-312 573,-306 573,-300 573,-300 573,-288 573,-288 573,-282 579,-276 585,-276 585,-276 698,-276 698,-276 704,-276 710,-282 710,-288 710,-288 710,-300 710,-300 710,-306 704,-312 698,-312"/>
<text text-anchor="middle" x="641.5" y="-290.9" font-family="sans" font-size="12.00" fill="#c4c7c7">Anti&#45;symmetric Relation</text>
</a>
</g>
</g>
<!-- Relation&#45;&gt;Anti&#45;symmetric Relation -->
<g id="edge16" class="edge">
<title>Relation&#45;&gt;Anti&#45;symmetric Relation</title>
<path fill="none" stroke="#ffffff" d="M183.55,-228.08C257.95,-226.63 417.38,-225.1 471,-237 508.89,-245.41 514.24,-259.54 551,-272 557.97,-274.36 565.33,-276.59 572.7,-278.64"/>
<polygon fill="#ffffff" stroke="#ffffff" points="183.14,-224.58 173.21,-228.29 183.28,-231.58 183.14,-224.58"/>
</g>
<!-- Symmetric Relation -->
<g id="node15" class="node">
<title>Symmetric Relation</title>
<g id="a_node15"><a xlink:href="/Knowledge/symmetric_relation.html" xlink:title="Symmetric Relation" target="_parent">
<path fill="none" stroke="#b75867" d="M845,-221C845,-221 754,-221 754,-221 748,-221 742,-215 742,-209 742,-209 742,-197 742,-197 742,-191 748,-185 754,-185 754,-185 845,-185 845,-185 851,-185 857,-191 857,-197 857,-197 857,-209 857,-209 857,-215 851,-221 845,-221"/>
<text text-anchor="middle" x="799.5" y="-199.9" font-family="sans" font-size="12.00" fill="#c4c7c7">Symmetric Relation</text>
</a>
</g>
</g>
<!-- Relation&#45;&gt;Symmetric Relation -->
<g id="edge17" class="edge">
<title>Relation&#45;&gt;Symmetric Relation</title>
<path fill="none" stroke="#ffffff" d="M164.47,-203.05C169.35,-198.29 174.94,-193.92 181,-191 202.71,-180.54 265.24,-185.05 289,-181 292.61,-180.38 293.43,-179.85 297,-179 409.57,-152.3 436.01,-134.74 551,-122 570.99,-119.78 716.85,-108.77 732,-122 751.93,-139.41 723.51,-160.31 740,-181 741.08,-182.36 742.26,-183.63 743.51,-184.83"/>
<polygon fill="#ffffff" stroke="#ffffff" points="161.63,-200.96 157.39,-210.68 166.76,-205.72 161.63,-200.96"/>
</g>
<!-- Anti&#45;reflexive relation -->
<g id="node16" class="node">
<title>Anti&#45;reflexive relation</title>
<g id="a_node16"><a xlink:href="/Knowledge/anti-reflexive_relation.html" xlink:title="Anti&#45;reflexive relation" target="_parent">
<path fill="none" stroke="#b75867" d="M691.5,-155C691.5,-155 591.5,-155 591.5,-155 585.5,-155 579.5,-149 579.5,-143 579.5,-143 579.5,-131 579.5,-131 579.5,-125 585.5,-119 591.5,-119 591.5,-119 691.5,-119 691.5,-119 697.5,-119 703.5,-125 703.5,-131 703.5,-131 703.5,-143 703.5,-143 703.5,-149 697.5,-155 691.5,-155"/>
<text text-anchor="middle" x="641.5" y="-133.9" font-family="sans" font-size="12.00" fill="#c4c7c7">Anti&#45;reflexive relation</text>
</a>
</g>
</g>
<!-- Relation&#45;&gt;Anti&#45;reflexive relation -->
<g id="edge19" class="edge">
<title>Relation&#45;&gt;Anti&#45;reflexive relation</title>
<path fill="none" stroke="#ffffff" d="M149.82,-201.12C154.74,-183.57 163.98,-162.19 181,-151 213.42,-129.67 461.82,-132.67 579.3,-135.34"/>
<polygon fill="#ffffff" stroke="#ffffff" points="146.4,-200.35 147.39,-210.9 153.19,-202.04 146.4,-200.35"/>
</g>
<!-- Strongly Anti&#45;symmetric Relation -->
<g id="node17" class="node">
<title>Strongly Anti&#45;symmetric Relation</title>
<g id="a_node17"><a xlink:href="/Knowledge/strongly_anti-symmetric_relation.html" xlink:title="Strongly Anti&#45;symmetric Relation" target="_parent">
<path fill="none" stroke="#b75867" d="M720,-349C720,-349 563,-349 563,-349 557,-349 551,-343 551,-337 551,-337 551,-325 551,-325 551,-319 557,-313 563,-313 563,-313 720,-313 720,-313 726,-313 732,-319 732,-325 732,-325 732,-337 732,-337 732,-343 726,-349 720,-349"/>
<text text-anchor="middle" x="641.5" y="-327.9" font-family="sans" font-size="12.00" fill="#c4c7c7">Strongly Anti&#45;symmetric Relation</text>
</a>
</g>
</g>
<!-- Relation&#45;&gt;Strongly Anti&#45;symmetric Relation -->
<g id="edge20" class="edge">
<title>Relation&#45;&gt;Strongly Anti&#45;symmetric Relation</title>
<path fill="none" stroke="#ffffff" d="M183.43,-229.7C282.42,-231.57 536.45,-236.95 543,-243 564.7,-263.05 531.4,-286.89 551,-309 552.17,-310.32 553.4,-311.56 554.69,-312.74"/>
<polygon fill="#ffffff" stroke="#ffffff" points="183.31,-226.2 173.24,-229.51 183.17,-233.2 183.31,-226.2"/>
</g>
<!-- Transitive Relation -->
<g id="node18" class="node">
<title>Transitive Relation</title>
<g id="a_node18"><a xlink:href="/Knowledge/transitive_relation.html" xlink:title="Transitive Relation" target="_parent">
<path fill="none" stroke="#b75867" d="M842.5,-426C842.5,-426 756.5,-426 756.5,-426 750.5,-426 744.5,-420 744.5,-414 744.5,-414 744.5,-402 744.5,-402 744.5,-396 750.5,-390 756.5,-390 756.5,-390 842.5,-390 842.5,-390 848.5,-390 854.5,-396 854.5,-402 854.5,-402 854.5,-414 854.5,-414 854.5,-420 848.5,-426 842.5,-426"/>
<text text-anchor="middle" x="799.5" y="-404.9" font-family="sans" font-size="12.00" fill="#c4c7c7">Transitive Relation</text>
</a>
</g>
</g>
<!-- Relation&#45;&gt;Transitive Relation -->
<g id="edge22" class="edge">
<title>Relation&#45;&gt;Transitive Relation</title>
<path fill="none" stroke="#ffffff" d="M172.68,-255.74C176.78,-264.25 175.18,-268.96 181,-273 207.49,-291.39 445.66,-265.05 471,-285 481.17,-293.01 471.44,-302.49 479,-313 499.15,-341.03 522.57,-329.18 543,-357 550.16,-366.74 541.48,-375.55 551,-383 566.87,-395.41 712.05,-390.22 732,-393 735.99,-393.56 740.09,-394.23 744.2,-394.98"/>
<polygon fill="#ffffff" stroke="#ffffff" points="175.58,-253.78 167.28,-247.21 169.67,-257.53 175.58,-253.78"/>
</g>
<!-- Partial order&#45;&gt;Reflexive Relation -->
<g id="edge26" class="edge">
<title>Partial order&#45;&gt;Reflexive Relation</title>
<path fill="none" stroke="#b75867" d="M195.42,-286.2C169.6,-276.01 135.3,-262.31 106.94,-250.87"/>
<polygon fill="#b75867" stroke="#b75867" points="108.16,-247.58 97.57,-247.08 105.53,-254.07 108.16,-247.58"/>
</g>
<!-- Partial order&#45;&gt;Relation -->
<g id="edge27" class="edge">
<title>Partial order&#45;&gt;Relation</title>
<path fill="none" stroke="#b75867" d="M195.25,-288.87C190.21,-286.34 185.31,-283.39 181,-280 172.51,-273.32 165.06,-264.18 159.15,-255.48"/>
<polygon fill="#b75867" stroke="#b75867" points="162.09,-253.58 153.76,-247.03 156.19,-257.34 162.09,-253.58"/>
</g>
<!-- Partial order&#45;&gt;Linear order -->
<g id="edge28" class="edge">
<title>Partial order&#45;&gt;Linear order</title>
<path fill="none" stroke="#ffffff" d="M284.78,-301C304.16,-301 326.14,-301 344.38,-301"/>
<polygon fill="#ffffff" stroke="#ffffff" points="284.62,-297.5 274.62,-301 284.62,-304.5 284.62,-297.5"/>
</g>
<!-- Partial order&#45;&gt;Relations -->
<g id="edge30" class="edge">
<title>Partial order&#45;&gt;Relations</title>
<path fill="none" stroke="#ffffff" d="M283.27,-282.74C285.36,-280.99 287.29,-279.08 289,-277 298.86,-265.01 285.2,-253.09 297,-243 326.48,-217.81 433.46,-239.72 471,-230 473.6,-229.33 476.24,-228.49 478.85,-227.54"/>
<polygon fill="#ffffff" stroke="#ffffff" points="280.84,-280.16 274.59,-288.72 284.81,-285.93 280.84,-280.16"/>
</g>
<!-- Partial order&#45;&gt;Partial orders have no contours -->
<g id="edge31" class="edge">
<title>Partial order&#45;&gt;Partial orders have no contours</title>
<path fill="none" stroke="#ffffff" d="M257.54,-327.02C268.39,-341.3 280.92,-359.77 289,-378 295.29,-392.19 286.13,-400.92 297,-412 298.29,-413.32 299.66,-414.57 301.08,-415.74"/>
<polygon fill="#ffffff" stroke="#ffffff" points="260.3,-324.86 251.39,-319.13 254.78,-329.17 260.3,-324.86"/>
</g>
<!-- Partial order&#45;&gt;Anti&#45;symmetric Relation -->
<g id="edge25" class="edge">
<title>Partial order&#45;&gt;Anti&#45;symmetric Relation</title>
<path fill="none" stroke="#b75867" d="M274.68,-287.78C282.01,-285.79 289.68,-284.06 297,-283 387.62,-269.91 493.02,-276.46 562.93,-283.82"/>
<polygon fill="#b75867" stroke="#b75867" points="562.66,-287.31 572.98,-284.91 563.41,-280.35 562.66,-287.31"/>
</g>
<!-- Partial order&#45;&gt;Transitive Relation -->
<g id="edge24" class="edge">
<title>Partial order&#45;&gt;Transitive Relation</title>
<path fill="none" stroke="#b75867" d="M258.14,-319.06C269.29,-327.5 283.32,-337.17 297,-344 403.13,-397 433.82,-407.55 551,-426 630.47,-438.51 652.26,-436.6 732,-426 732.76,-425.9 733.52,-425.79 734.28,-425.68"/>
<polygon fill="#b75867" stroke="#b75867" points="735.06,-429.1 744.3,-423.92 733.85,-422.2 735.06,-429.1"/>
</g>
<!-- Linear extension -->
<g id="node19" class="node">
<title>Linear extension</title>
<g id="a_node19"><a xlink:href="/Knowledge/linear_extension.html" xlink:title="Linear extension" target="_parent">
<path fill="none" stroke="#b75867" d="M680,-426C680,-426 603,-426 603,-426 597,-426 591,-420 591,-414 591,-414 591,-402 591,-402 591,-396 597,-390 603,-390 603,-390 680,-390 680,-390 686,-390 692,-396 692,-402 692,-402 692,-414 692,-414 692,-420 686,-426 680,-426"/>
<text text-anchor="middle" x="641.5" y="-404.9" font-family="sans" font-size="12.00" fill="#c4c7c7">Linear extension</text>
</a>
</g>
</g>
<!-- Partial order&#45;&gt;Linear extension -->
<g id="edge29" class="edge">
<title>Partial order&#45;&gt;Linear extension</title>
<path fill="none" stroke="#ffffff" d="M284.48,-316.26C288.71,-317.55 292.93,-318.81 297,-320 377.5,-343.59 397.71,-349.28 479,-370 516.4,-379.53 558.9,-389.5 590.91,-396.83"/>
<polygon fill="#ffffff" stroke="#ffffff" points="285.25,-312.84 274.66,-313.26 283.2,-319.53 285.25,-312.84"/>
</g>
<!-- Linear order&#45;&gt;Reflexive Relation -->
<g id="edge35" class="edge">
<title>Linear order&#45;&gt;Reflexive Relation</title>
<path fill="none" stroke="#b75867" d="M344.45,-312.86C303.09,-323.17 235.92,-334.01 181,-317 141.55,-304.78 103.45,-275.61 79.45,-254.19"/>
<polygon fill="#b75867" stroke="#b75867" points="81.61,-251.42 71.86,-247.26 76.88,-256.59 81.61,-251.42"/>
</g>
<!-- Linear order&#45;&gt;Relation -->
<g id="edge36" class="edge">
<title>Linear order&#45;&gt;Relation</title>
<path fill="none" stroke="#b75867" d="M344.21,-295.14C327.29,-292.42 307.2,-289.29 289,-287 265.09,-283.99 200.08,-291.72 181,-277 172.76,-270.64 178.87,-263.59 173,-255 172.94,-254.92 172.88,-254.83 172.82,-254.75"/>
<polygon fill="#b75867" stroke="#b75867" points="175.65,-252.67 166.55,-247.23 170.27,-257.15 175.65,-252.67"/>
</g>
<!-- Linear order&#45;&gt;Partial order -->
<g id="edge32" class="edge">
<title>Linear order&#45;&gt;Partial order</title>
<path fill="none" stroke="#b75867" d="M344.38,-301.67C326.14,-301.76 304.16,-301.77 284.78,-301.71"/>
<polygon fill="#b75867" stroke="#b75867" points="284.64,-298.21 274.62,-301.67 284.61,-305.21 284.64,-298.21"/>
</g>
<!-- Linear order&#45;&gt;Relations -->
<g id="edge38" class="edge">
<title>Linear order&#45;&gt;Relations</title>
<path fill="none" stroke="#ffffff" d="M418.5,-277.15C439.17,-262.43 465.28,-243.84 484.31,-230.29"/>
<polygon fill="#ffffff" stroke="#ffffff" points="416.41,-274.34 410.3,-282.99 420.47,-280.04 416.41,-274.34"/>
</g>
<!-- Linear order&#45;&gt;Strongly Anti&#45;symmetric Relation -->
<g id="edge34" class="edge">
<title>Linear order&#45;&gt;Strongly Anti&#45;symmetric Relation</title>
<path fill="none" stroke="#b75867" d="M423.53,-305.52C454.63,-309.18 499.82,-314.48 540.93,-319.31"/>
<polygon fill="#b75867" stroke="#b75867" points="540.66,-322.8 551,-320.49 541.47,-315.85 540.66,-322.8"/>
</g>
<!-- Linear order&#45;&gt;Transitive Relation -->
<g id="edge33" class="edge">
<title>Linear order&#45;&gt;Transitive Relation</title>
<path fill="none" stroke="#b75867" d="M401.72,-319.19C429.44,-347.85 488.13,-402.38 551,-423 589.22,-435.53 692.02,-427.45 732,-423 732.75,-422.92 733.5,-422.83 734.26,-422.73"/>
<polygon fill="#b75867" stroke="#b75867" points="734.84,-426.19 744.23,-421.27 733.83,-419.26 734.84,-426.19"/>
</g>
<!-- Linear order&#45;&gt;Linear extension -->
<g id="edge37" class="edge">
<title>Linear order&#45;&gt;Linear extension</title>
<path fill="none" stroke="#ffffff" d="M422.99,-324.29C455.79,-343.45 505.03,-369.98 551,-386 563.69,-390.42 577.69,-394.31 590.77,-397.54"/>
<polygon fill="#ffffff" stroke="#ffffff" points="424.58,-321.16 414.19,-319.1 421.02,-327.19 424.58,-321.16"/>
</g>
<!-- Reflexive Closure&#45;&gt;Reflexive Relation -->
<g id="edge42" class="edge">
<title>Reflexive Closure&#45;&gt;Reflexive Relation</title>
<path fill="none" stroke="#b75867" d="M590.09,-62.95C538.57,-65.25 456.22,-68 385,-68 234,-68 234,-68 234,-68 175.15,-68 157.22,-84.05 114,-124 90.63,-145.6 74,-178.44 64.26,-201.63"/>
<polygon fill="#b75867" stroke="#b75867" points="61.01,-200.34 60.51,-210.92 67.5,-202.96 61.01,-200.34"/>
</g>
<!-- Reflexive Closure&#45;&gt;Relation -->
<g id="edge40" class="edge">
<title>Reflexive Closure&#45;&gt;Relation</title>
<path fill="none" stroke="#b75867" d="M590.32,-64.55C477.71,-74.51 212.28,-99.32 181,-125 158.49,-143.48 149.84,-176.65 146.52,-200.57"/>
<polygon fill="#b75867" stroke="#b75867" points="143.01,-200.49 145.35,-210.83 149.96,-201.29 143.01,-200.49"/>
</g>
<!-- Reflexive Closure&#45;&gt;Relations -->
<g id="edge43" class="edge">
<title>Reflexive Closure&#45;&gt;Relations</title>
<path fill="none" stroke="#ffffff" d="M580.12,-65.79C569.39,-69.19 559.08,-74.32 551,-82 546.85,-85.95 526.49,-158.94 516.95,-193.78"/>
<polygon fill="#ffffff" stroke="#ffffff" points="581.28,-69.1 590.04,-63.13 579.47,-62.34 581.28,-69.1"/>
</g>
<!-- Reflexive Closure&#45;&gt;Relations -->
<g id="edge44" class="edge">
<title>Reflexive Closure&#45;&gt;Relations</title>
<path fill="none" stroke="#ffffff" d="M580.12,-66.77C569.39,-70.19 559.08,-75.32 551,-83 546.87,-86.93 526.7,-159.19 517.1,-193.81"/>
<polygon fill="#ffffff" stroke="#ffffff" points="581.3,-70.08 590.04,-64.09 579.47,-63.32 581.3,-70.08"/>
</g>
<!-- Matrix -->
<g id="node20" class="node">
<title>Matrix</title>
<g id="a_node20"><a xlink:href="/Knowledge/matrix.html" xlink:title="Matrix" target="_parent">
<path fill="#273434" stroke="#b75867" d="M814.5,-36C814.5,-36 784.5,-36 784.5,-36 778.5,-36 772.5,-30 772.5,-24 772.5,-24 772.5,-12 772.5,-12 772.5,-6 778.5,0 784.5,0 784.5,0 814.5,0 814.5,0 820.5,0 826.5,-6 826.5,-12 826.5,-12 826.5,-24 826.5,-24 826.5,-30 820.5,-36 814.5,-36"/>
<text text-anchor="middle" x="799.5" y="-14.9" font-family="sans" font-size="12.00" fill="#c4c7c7">Matrix</text>
</a>
</g>
</g>
<!-- Reflexive Closure&#45;&gt;Matrix -->
<g id="edge39" class="edge">
<title>Reflexive Closure&#45;&gt;Matrix</title>
<path fill="none" stroke="#b75867" d="M692.72,-46.48C715.53,-40.34 741.98,-33.22 762.73,-27.63"/>
<polygon fill="#b75867" stroke="#b75867" points="763.67,-31 772.42,-25.02 761.85,-24.24 763.67,-31"/>
</g>
<!-- Set -->
<g id="node21" class="node">
<title>Set</title>
<g id="a_node21"><a xlink:href="/Knowledge/set.html" xlink:title="Set" target="_parent">
<path fill="#273434" stroke="#b75867" d="M814.5,-73C814.5,-73 784.5,-73 784.5,-73 778.5,-73 772.5,-67 772.5,-61 772.5,-61 772.5,-49 772.5,-49 772.5,-43 778.5,-37 784.5,-37 784.5,-37 814.5,-37 814.5,-37 820.5,-37 826.5,-43 826.5,-49 826.5,-49 826.5,-61 826.5,-61 826.5,-67 820.5,-73 814.5,-73"/>
<text text-anchor="middle" x="799.5" y="-51.9" font-family="sans" font-size="12.00" fill="#c4c7c7">Set</text>
</a>
</g>
</g>
<!-- Reflexive Closure&#45;&gt;Set -->
<g id="edge41" class="edge">
<title>Reflexive Closure&#45;&gt;Set</title>
<path fill="none" stroke="#b75867" d="M692.72,-58.39C715.32,-57.67 741.5,-56.83 762.17,-56.16"/>
<polygon fill="#b75867" stroke="#b75867" points="762.54,-59.65 772.42,-55.84 762.31,-52.66 762.54,-59.65"/>
</g>
<!-- Relations&#45;&gt;Reflexive Relation -->
<g id="edge62" class="edge">
<title>Relations&#45;&gt;Reflexive Relation</title>
<path fill="none" stroke="#b75867" d="M478.7,-196.71C419.69,-169.35 288.25,-117.71 181,-149 143.95,-159.81 107.4,-185.08 83.1,-204.35"/>
<polygon fill="#b75867" stroke="#b75867" points="80.6,-201.87 75.03,-210.88 85.01,-207.31 80.6,-201.87"/>
</g>
<!-- Relations&#45;&gt;Relation -->
<g id="edge63" class="edge">
<title>Relations&#45;&gt;Relation</title>
<path fill="none" stroke="#b75867" d="M478.9,-214.55C436.13,-217.43 356.75,-221.99 289,-225 253.15,-226.59 212.29,-227.97 183.18,-228.69"/>
<polygon fill="#b75867" stroke="#b75867" points="182.94,-225.2 173.02,-228.93 183.1,-232.2 182.94,-225.2"/>
</g>
<!-- Relations&#45;&gt;Partial order -->
<g id="edge48" class="edge">
<title>Relations&#45;&gt;Partial order</title>
<path fill="none" stroke="#b75867" d="M478.85,-228.54C476.24,-229.49 473.6,-230.33 471,-231 433.46,-240.72 326.48,-218.81 297,-244 285.2,-254.09 298.86,-266.01 289,-278 287.29,-280.08 285.36,-281.99 283.27,-283.74"/>
<polygon fill="#b75867" stroke="#b75867" points="280.85,-281.16 274.59,-289.71 284.82,-286.92 280.85,-281.16"/>
</g>
<!-- Relations&#45;&gt;Linear order -->
<g id="edge47" class="edge">
<title>Relations&#45;&gt;Linear order</title>
<path fill="none" stroke="#b75867" d="M485.53,-230.03C466.71,-243.59 440.48,-262.29 419.53,-277.09"/>
<polygon fill="#b75867" stroke="#b75867" points="417.36,-274.34 411.2,-282.97 421.39,-280.06 417.36,-274.34"/>
</g>
<!-- Relations&#45;&gt;Reflexive Closure -->
<g id="edge53" class="edge">
<title>Relations&#45;&gt;Reflexive Closure</title>
<path fill="none" stroke="#b75867" d="M516.81,-193.76C526.28,-158.69 546.83,-84.97 551,-81 559.08,-73.32 569.39,-68.19 580.12,-64.81"/>
<polygon fill="#b75867" stroke="#b75867" points="581.27,-68.13 590.04,-62.18 579.47,-61.36 581.27,-68.13"/>
</g>
<!-- Relations&#45;&gt;Reflexive Closure -->
<g id="edge56" class="edge">
<title>Relations&#45;&gt;Reflexive Closure</title>
<path fill="none" stroke="#b75867" d="M517.25,-193.84C526.91,-159.44 546.89,-87.91 551,-84 559.08,-76.32 569.39,-71.19 580.12,-67.75"/>
<polygon fill="#b75867" stroke="#b75867" points="581.31,-71.05 590.04,-65.04 579.47,-64.3 581.31,-71.05"/>
</g>
<!-- Relations&#45;&gt;Relation of Equivalence -->
<g id="edge50" class="edge">
<title>Relations&#45;&gt;Relation of Equivalence</title>
<path fill="none" stroke="#b75867" d="M518.69,-193.63C528.16,-168.02 545.01,-124.12 551,-119 555.26,-115.36 560.02,-112.31 565.08,-109.74"/>
<polygon fill="#b75867" stroke="#b75867" points="566.69,-112.86 574.44,-105.64 563.88,-106.45 566.69,-112.86"/>
</g>
<!-- Relations&#45;&gt;Chain -->
<g id="edge45" class="edge">
<title>Relations&#45;&gt;Chain</title>
<path fill="none" stroke="#b75867" d="M536.22,-230.22C538.9,-233.2 541.28,-236.48 543,-240 553.4,-261.21 535.74,-327.97 551,-346 563.91,-361.25 585.52,-366.86 604.27,-368.6"/>
<polygon fill="#b75867" stroke="#b75867" points="604.13,-372.1 614.32,-369.21 604.55,-365.11 604.13,-372.1"/>
</g>
<!-- Relations&#45;&gt;Symmetric Closure -->
<g id="edge52" class="edge">
<title>Relations&#45;&gt;Symmetric Closure</title>
<path fill="none" stroke="#b75867" d="M543.35,-198.67C545.92,-197.72 548.5,-196.82 551,-196 558.98,-193.4 567.45,-190.94 575.87,-188.67"/>
<polygon fill="#b75867" stroke="#b75867" points="576.92,-192.02 585.71,-186.1 575.15,-185.24 576.92,-192.02"/>
</g>
<!-- Relations&#45;&gt;Symmetric Closure -->
<g id="edge54" class="edge">
<title>Relations&#45;&gt;Symmetric Closure</title>
<path fill="none" stroke="#b75867" d="M543.35,-199.67C545.92,-198.72 548.5,-197.82 551,-197 558.98,-194.4 567.45,-191.94 575.87,-189.66"/>
<polygon fill="#b75867" stroke="#b75867" points="576.92,-193.01 585.71,-187.08 575.15,-186.24 576.92,-193.01"/>
</g>
<!-- Relations&#45;&gt;Anti&#45;symmetric Relation -->
<g id="edge59" class="edge">
<title>Relations&#45;&gt;Anti&#45;symmetric Relation</title>
<path fill="none" stroke="#b75867" d="M540.09,-230.19C541.15,-231.41 542.13,-232.68 543,-234 552.47,-248.43 539,-259.59 551,-272 554.73,-275.86 559.01,-279.08 563.65,-281.77"/>
<polygon fill="#b75867" stroke="#b75867" points="562.41,-285.06 572.93,-286.31 565.49,-278.77 562.41,-285.06"/>
</g>
<!-- Relations&#45;&gt;Symmetric Relation -->
<g id="edge60" class="edge">
<title>Relations&#45;&gt;Symmetric Relation</title>
<path fill="none" stroke="#b75867" d="M543.37,-203.24C545.94,-202.74 548.5,-202.31 551,-202 627.77,-192.31 649.89,-200.7 731.88,-201.98"/>
<polygon fill="#b75867" stroke="#b75867" points="731.87,-205.47 741.91,-202.09 731.95,-198.48 731.87,-205.47"/>
</g>
<!-- Relations&#45;&gt;Anti&#45;reflexive relation -->
<g id="edge61" class="edge">
<title>Relations&#45;&gt;Anti&#45;reflexive relation</title>
<path fill="none" stroke="#b75867" d="M521.01,-193.92C527.73,-182.26 537.98,-167.69 551,-159 556.72,-155.18 563.05,-152.02 569.61,-149.41"/>
<polygon fill="#b75867" stroke="#b75867" points="571.09,-152.6 579.36,-145.97 568.76,-146 571.09,-152.6"/>
</g>
<!-- Relations&#45;&gt;Strongly Anti&#45;symmetric Relation -->
<g id="edge58" class="edge">
<title>Relations&#45;&gt;Strongly Anti&#45;symmetric Relation</title>
<path fill="none" stroke="#b75867" d="M538.13,-230.18C540,-232.3 541.67,-234.57 543,-237 549.59,-249.02 543.06,-284.01 549.8,-303.92"/>
<polygon fill="#b75867" stroke="#b75867" points="546.78,-305.69 554.67,-312.75 552.91,-302.31 546.78,-305.69"/>
</g>
<!-- Relations&#45;&gt;Transitive Relation -->
<g id="edge57" class="edge">
<title>Relations&#45;&gt;Transitive Relation</title>
<path fill="none" stroke="#b75867" d="M540.07,-230.21C541.13,-231.42 542.12,-232.68 543,-234 551.87,-247.27 538.8,-258.71 551,-269 581.79,-294.97 698.19,-257.09 732,-279 766.99,-301.68 784.53,-348.94 792.56,-379.53"/>
<polygon fill="#b75867" stroke="#b75867" points="789.25,-380.7 795.02,-389.59 796.05,-379.04 789.25,-380.7"/>
</g>
<!-- Relations&#45;&gt;Linear extension -->
<g id="edge46" class="edge">
<title>Relations&#45;&gt;Linear extension</title>
<path fill="none" stroke="#b75867" d="M513.67,-230.16C517.72,-270.12 529.34,-363.89 551,-386 559.14,-394.31 569.88,-399.67 581.08,-403.1"/>
<polygon fill="#b75867" stroke="#b75867" points="580.43,-406.54 590.98,-405.63 582.16,-399.76 580.43,-406.54"/>
</g>
<!-- Class of equivalence -->
<g id="node22" class="node">
<title>Class of equivalence</title>
<g id="a_node22"><a xlink:href="/Knowledge/class_of_equivalence.html" xlink:title="Class of equivalence" target="_parent">
<path fill="#273434" stroke="#b75867" d="M847,-184C847,-184 752,-184 752,-184 746,-184 740,-178 740,-172 740,-172 740,-160 740,-160 740,-154 746,-148 752,-148 752,-148 847,-148 847,-148 853,-148 859,-154 859,-160 859,-160 859,-172 859,-172 859,-178 853,-184 847,-184"/>
<text text-anchor="middle" x="799.5" y="-162.9" font-family="sans" font-size="12.00" fill="#c4c7c7">Class of equivalence</text>
</a>
</g>
</g>
<!-- Relations&#45;&gt;Class of equivalence -->
<g id="edge49" class="edge">
<title>Relations&#45;&gt;Class of equivalence</title>
<path fill="none" stroke="#b75867" d="M543.31,-200.77C545.89,-200.08 548.48,-199.48 551,-199 630.14,-183.91 652.95,-204.54 732,-189 735.18,-188.38 738.41,-187.63 741.65,-186.81"/>
<polygon fill="#b75867" stroke="#b75867" points="742.67,-190.16 751.36,-184.1 740.78,-183.41 742.67,-190.16"/>
</g>
<!-- Transitive Closure -->
<g id="node23" class="node">
<title>Transitive Closure</title>
<g id="a_node23"><a xlink:href="/Knowledge/transitive_closure.html" xlink:title="Transitive Closure" target="_parent">
<path fill="#273434" stroke="#b75867" d="M682.5,-272C682.5,-272 600.5,-272 600.5,-272 594.5,-272 588.5,-266 588.5,-260 588.5,-260 588.5,-248 588.5,-248 588.5,-242 594.5,-236 600.5,-236 600.5,-236 682.5,-236 682.5,-236 688.5,-236 694.5,-242 694.5,-248 694.5,-248 694.5,-260 694.5,-260 694.5,-266 688.5,-272 682.5,-272"/>
<text text-anchor="middle" x="641.5" y="-250.9" font-family="sans" font-size="12.00" fill="#c4c7c7">Transitive Closure</text>
</a>
</g>
</g>
<!-- Relations&#45;&gt;Transitive Closure -->
<g id="edge51" class="edge">
<title>Relations&#45;&gt;Transitive Closure</title>
<path fill="none" stroke="#b75867" d="M543.22,-228.8C545.82,-229.96 548.43,-231.04 551,-232 559.79,-235.28 569.25,-238.22 578.61,-240.79"/>
<polygon fill="#b75867" stroke="#b75867" points="577.73,-244.18 588.29,-243.33 579.51,-237.41 577.73,-244.18"/>
</g>
<!-- Relations&#45;&gt;Transitive Closure -->
<g id="edge55" class="edge">
<title>Relations&#45;&gt;Transitive Closure</title>
<path fill="none" stroke="#b75867" d="M543.22,-229.8C545.82,-230.96 548.43,-232.04 551,-233 559.79,-236.28 569.25,-239.22 578.61,-241.77"/>
<polygon fill="#b75867" stroke="#b75867" points="577.73,-245.16 588.29,-244.31 579.5,-238.39 577.73,-245.16"/>
</g>
<!-- Discrete Structures -->
<g id="node24" class="node">
<title>Discrete Structures</title>
<g id="a_node24"><a xlink:href="/Knowledge/discrete_structures.html" xlink:title="Discrete Structures" target="_parent">
<path fill="none" stroke="#b75867" d="M685,-235C685,-235 598,-235 598,-235 592,-235 586,-229 586,-223 586,-223 586,-211 586,-211 586,-205 592,-199 598,-199 598,-199 685,-199 685,-199 691,-199 697,-205 697,-211 697,-211 697,-223 697,-223 697,-229 691,-235 685,-235"/>
<text text-anchor="middle" x="641.5" y="-213.9" font-family="sans" font-size="12.00" fill="#c4c7c7">Discrete Structures</text>
</a>
</g>
</g>
<!-- Relations&#45;&gt;Discrete Structures -->
<g id="edge64" class="edge">
<title>Relations&#45;&gt;Discrete Structures</title>
<path fill="none" stroke="#ffffff" d="M553.15,-213.6C563.56,-214.01 574.89,-214.45 585.85,-214.87"/>
<polygon fill="#ffffff" stroke="#ffffff" points="553.23,-210.1 543.11,-213.21 552.96,-217.1 553.23,-210.1"/>
</g>
<!-- Relation of Equivalence&#45;&gt;Reflexive Relation -->
<g id="edge70" class="edge">
<title>Relation of Equivalence&#45;&gt;Reflexive Relation</title>
<path fill="none" stroke="#b75867" d="M574.46,-106.64C522.95,-112.94 449.56,-120 385,-120 234,-120 234,-120 234,-120 178.8,-120 157.97,-118.64 114,-152 96.09,-165.59 80.73,-185.83 70.04,-202.15"/>
<polygon fill="#b75867" stroke="#b75867" points="66.99,-200.42 64.59,-210.74 72.9,-204.17 66.99,-200.42"/>
</g>
<!-- Relation of Equivalence&#45;&gt;Relation -->
<g id="edge71" class="edge">
<title>Relation of Equivalence&#45;&gt;Relation</title>
<path fill="none" stroke="#b75867" d="M575.78,-115.01C564.9,-117.38 553.68,-119.5 543,-121 503.12,-126.59 213.77,-114.6 181,-138 160.78,-152.43 151.76,-179.91 147.73,-200.91"/>
<polygon fill="#b75867" stroke="#b75867" points="144.26,-200.47 146.09,-210.9 151.17,-201.6 144.26,-200.47"/>
</g>
<!-- Relation of Equivalence&#45;&gt;Relations -->
<g id="edge73" class="edge">
<title>Relation of Equivalence&#45;&gt;Relations</title>
<path fill="none" stroke="#ffffff" d="M565.08,-110.74C560.02,-113.31 555.26,-116.36 551,-120 545.04,-125.09 528.35,-168.53 518.85,-193.86"/>
<polygon fill="#ffffff" stroke="#ffffff" points="566.69,-113.85 574.44,-106.63 563.88,-107.44 566.69,-113.85"/>
</g>
<!-- Relation of Equivalence&#45;&gt;Symmetric Relation -->
<g id="edge69" class="edge">
<title>Relation of Equivalence&#45;&gt;Symmetric Relation</title>
<path fill="none" stroke="#b75867" d="M708.76,-103.52C717.57,-107 725.71,-111.96 732,-119 748.41,-137.37 728.45,-154.78 738.18,-176.35"/>
<polygon fill="#b75867" stroke="#b75867" points="735.22,-178.22 743.5,-184.84 741.15,-174.5 735.22,-178.22"/>
</g>
<!-- Relation of Equivalence&#45;&gt;Transitive Relation -->
<g id="edge68" class="edge">
<title>Relation of Equivalence&#45;&gt;Transitive Relation</title>
<path fill="none" stroke="#b75867" d="M708.63,-103.07C717.57,-106.59 725.79,-111.68 732,-119 746.72,-136.33 735.69,-198.68 740,-221 751.2,-279.01 774.13,-344.37 787.72,-380.42"/>
<polygon fill="#b75867" stroke="#b75867" points="784.45,-381.68 791.28,-389.77 790.99,-379.18 784.45,-381.68"/>
</g>
<!-- Relation of Equivalence&#45;&gt;Set -->
<g id="edge66" class="edge">
<title>Relation of Equivalence&#45;&gt;Set</title>
<path fill="none" stroke="#b75867" d="M708.58,-81.16C716.49,-79.15 724.44,-77.07 732,-75 742.03,-72.26 752.85,-69.1 762.79,-66.11"/>
<polygon fill="#b75867" stroke="#b75867" points="763.82,-69.45 772.37,-63.19 761.79,-62.75 763.82,-69.45"/>
</g>
<!-- Relation of Equivalence&#45;&gt;Class of equivalence -->
<g id="edge65" class="edge">
<title>Relation of Equivalence&#45;&gt;Class of equivalence</title>
<path fill="none" stroke="#b75867" d="M708.58,-104.93C717.2,-108.23 725.33,-112.78 732,-119 738.46,-125.03 735.11,-131.42 738.48,-139.58"/>
<polygon fill="#b75867" stroke="#b75867" points="735.74,-141.76 744.32,-147.98 741.49,-137.77 735.74,-141.76"/>
</g>
<!-- Partition -->
<g id="node25" class="node">
<title>Partition</title>
<g id="a_node25"><a xlink:href="/Knowledge/partition.html" xlink:title="Partition" target="_parent">
<path fill="#273434" stroke="#b75867" d="M817.5,-147C817.5,-147 781.5,-147 781.5,-147 775.5,-147 769.5,-141 769.5,-135 769.5,-135 769.5,-123 769.5,-123 769.5,-117 775.5,-111 781.5,-111 781.5,-111 817.5,-111 817.5,-111 823.5,-111 829.5,-117 829.5,-123 829.5,-123 829.5,-135 829.5,-135 829.5,-141 823.5,-147 817.5,-147"/>
<text text-anchor="middle" x="799.5" y="-125.9" font-family="sans" font-size="12.00" fill="#c4c7c7">Partition</text>
</a>
</g>
</g>
<!-- Relation of Equivalence&#45;&gt;Partition -->
<g id="edge67" class="edge">
<title>Relation of Equivalence&#45;&gt;Partition</title>
<path fill="none" stroke="#b75867" d="M708.66,-110.57C725.8,-114.09 743.71,-117.76 759,-120.9"/>
<polygon fill="#b75867" stroke="#b75867" points="758.62,-124.39 769.12,-122.97 760.03,-117.54 758.62,-124.39"/>
</g>
<!-- Principle of division -->
<g id="node26" class="node">
<title>Principle of division</title>
<g id="a_node26"><a xlink:href="/Knowledge/principle_of_division.html" xlink:title="Principle of division" target="_parent">
<path fill="none" stroke="#b75867" d="M845.5,-110C845.5,-110 753.5,-110 753.5,-110 747.5,-110 741.5,-104 741.5,-98 741.5,-98 741.5,-86 741.5,-86 741.5,-80 747.5,-74 753.5,-74 753.5,-74 845.5,-74 845.5,-74 851.5,-74 857.5,-80 857.5,-86 857.5,-86 857.5,-98 857.5,-98 857.5,-104 851.5,-110 845.5,-110"/>
<text text-anchor="middle" x="799.5" y="-88.9" font-family="sans" font-size="12.00" fill="#c4c7c7">Principle of division</text>
</a>
</g>
</g>
<!-- Relation of Equivalence&#45;&gt;Principle of division -->
<g id="edge72" class="edge">
<title>Relation of Equivalence&#45;&gt;Principle of division</title>
<path fill="none" stroke="#ffffff" d="M718.84,-94.55C726.34,-94.31 733.86,-94.07 741.12,-93.84"/>
<polygon fill="#ffffff" stroke="#ffffff" points="718.54,-91.06 708.66,-94.88 718.77,-98.06 718.54,-91.06"/>
</g>
<!-- Partial orders have no contours&#45;&gt;Reflexive Relation -->
<g id="edge77" class="edge">
<title>Partial orders have no contours&#45;&gt;Reflexive Relation</title>
<path fill="none" stroke="#b75867" d="M304.39,-415.97C301.88,-415.02 299.41,-414.03 297,-413 208.88,-375.35 186.91,-361.18 114,-299 98.9,-286.12 84.23,-269.36 73.18,-255.47"/>
<polygon fill="#b75867" stroke="#b75867" points="75.69,-253 66.8,-247.25 70.17,-257.29 75.69,-253"/>
</g>
<!-- Partial orders have no contours&#45;&gt;Partial order -->
<g id="edge75" class="edge">
<title>Partial orders have no contours&#45;&gt;Partial order</title>
<path fill="none" stroke="#b75867" d="M300.02,-415.85C298.98,-414.94 297.97,-413.99 297,-413 286.13,-401.92 295.29,-393.19 289,-379 280.76,-360.39 267.88,-341.54 256.87,-327.03"/>
<polygon fill="#b75867" stroke="#b75867" points="259.56,-324.78 250.66,-319.02 254.03,-329.07 259.56,-324.78"/>
</g>
<!-- Partial orders have no contours&#45;&gt;Chain -->
<g id="edge78" class="edge">
<title>Partial orders have no contours&#45;&gt;Chain</title>
<path fill="none" stroke="#ffffff" d="M461.72,-413.36C489.78,-405.89 521.8,-397.46 551,-390 572.24,-384.58 596.38,-378.66 614.23,-374.33"/>
<polygon fill="#ffffff" stroke="#ffffff" points="460.73,-410 451.97,-415.95 462.53,-416.76 460.73,-410"/>
</g>
<!-- Partial orders have no contours&#45;&gt;Transitive Relation -->
<g id="edge76" class="edge">
<title>Partial orders have no contours&#45;&gt;Transitive Relation</title>
<path fill="none" stroke="#b75867" d="M471.11,-435.62C557.27,-436.72 683.75,-436.79 732,-429 733.46,-428.76 734.93,-428.5 736.4,-428.22"/>
<polygon fill="#b75867" stroke="#b75867" points="737.19,-431.63 746.21,-426.06 735.69,-424.79 737.19,-431.63"/>
</g>
<!-- Contour -->
<g id="node27" class="node">
<title>Contour</title>
<g id="a_node27"><a xlink:href="/Knowledge/contour.html" xlink:title="Contour" target="_parent">
<path fill="#273434" stroke="#b75867" d="M528.5,-472C528.5,-472 493.5,-472 493.5,-472 487.5,-472 481.5,-466 481.5,-460 481.5,-460 481.5,-448 481.5,-448 481.5,-442 487.5,-436 493.5,-436 493.5,-436 528.5,-436 528.5,-436 534.5,-436 540.5,-442 540.5,-448 540.5,-448 540.5,-460 540.5,-460 540.5,-466 534.5,-472 528.5,-472"/>
<text text-anchor="middle" x="511" y="-450.9" font-family="sans" font-size="12.00" fill="#c4c7c7">Contour</text>
</a>
</g>
</g>
<!-- Partial orders have no contours&#45;&gt;Contour -->
<g id="edge74" class="edge">
<title>Partial orders have no contours&#45;&gt;Contour</title>
<path fill="none" stroke="#b75867" d="M471.13,-447.78C471.25,-447.8 471.36,-447.82 471.47,-447.83"/>
<polygon fill="#b75867" stroke="#b75867" points="470.95,-451.3 481.38,-449.42 472.05,-444.38 470.95,-451.3"/>
</g>
</g>
</svg>
