<?xml version="1.0" encoding="UTF-8" standalone="no"?>
<!DOCTYPE svg PUBLIC "-//W3C//DTD SVG 1.1//EN"
 "http://www.w3.org/Graphics/SVG/1.1/DTD/svg11.dtd">
<!-- Generated by graphviz version 2.44.0 (0)
 -->
<!-- Title: Relation Pages: 1 -->
<svg width="1512pt" height="292pt"
 viewBox="0.00 0.00 1512.00 292.11" xmlns="http://www.w3.org/2000/svg" xmlns:xlink="http://www.w3.org/1999/xlink">
<g id="graph0" class="graph" transform="scale(1 1) rotate(0) translate(4 288.11)">
<title>Relation</title>
<polygon fill="#132020" stroke="transparent" points="-4,4 -4,-288.11 1508,-288.11 1508,4 -4,4"/>
<!-- Relation -->
<g id="node1" class="node">
<title>Relation</title>
<g id="a_node1"><a xlink:href="../Relation.html" xlink:title="Relation" target="_parent">
<path fill="#273434" stroke="#b75867" d="M52,-185.11C52,-185.11 12,-185.11 12,-185.11 6,-185.11 0,-179.11 0,-173.11 0,-173.11 0,-161.11 0,-161.11 0,-155.11 6,-149.11 12,-149.11 12,-149.11 52,-149.11 52,-149.11 58,-149.11 64,-155.11 64,-161.11 64,-161.11 64,-173.11 64,-173.11 64,-179.11 58,-185.11 52,-185.11"/>
<text text-anchor="middle" x="32" y="-164.01" font-family="sans" font-size="12.00" fill="#c4c7c7">Relation</text>
</a>
</g>
</g>
<!-- Descartes Product -->
<g id="node2" class="node">
<title>Descartes Product</title>
<g id="a_node2"><a xlink:href="../Descartes Product.html" xlink:title="Descartes Product" target="_parent">
<path fill="#273434" stroke="#b75867" d="M195.5,-284.11C195.5,-284.11 100.5,-284.11 100.5,-284.11 94.5,-284.11 88.5,-278.11 88.5,-272.11 88.5,-272.11 88.5,-260.11 88.5,-260.11 88.5,-254.11 94.5,-248.11 100.5,-248.11 100.5,-248.11 195.5,-248.11 195.5,-248.11 201.5,-248.11 207.5,-254.11 207.5,-260.11 207.5,-260.11 207.5,-272.11 207.5,-272.11 207.5,-278.11 201.5,-284.11 195.5,-284.11"/>
<text text-anchor="middle" x="148" y="-263.01" font-family="sans" font-size="12.00" fill="#c4c7c7">Descartes Product</text>
</a>
</g>
</g>
<!-- Relation&#45;&gt;Descartes Product -->
<g id="edge1" class="edge">
<title>Relation&#45;&gt;Descartes Product</title>
<path fill="none" stroke="#b75867" d="M37.66,-185.34C43.07,-202.87 53.68,-228.88 72,-244.11 74.38,-246.09 76.92,-247.89 79.59,-249.52"/>
<polygon fill="#b75867" stroke="#b75867" points="77.99,-252.63 88.46,-254.22 81.26,-246.45 77.99,-252.63"/>
</g>
<!-- Anti&#45;symmetric Relation -->
<g id="node3" class="node">
<title>Anti&#45;symmetric Relation</title>
<g id="a_node3"><a xlink:href="../Anti-symmetric Relation.html" xlink:title="Anti&#45;symmetric Relation" target="_parent">
<path fill="none" stroke="#b75867" d="M212,-215.11C212,-215.11 84,-215.11 84,-215.11 78,-215.11 72,-209.11 72,-203.11 72,-203.11 72,-191.11 72,-191.11 72,-185.11 78,-179.11 84,-179.11 84,-179.11 212,-179.11 212,-179.11 218,-179.11 224,-185.11 224,-191.11 224,-191.11 224,-203.11 224,-203.11 224,-209.11 218,-215.11 212,-215.11"/>
<text text-anchor="middle" x="148" y="-194.01" font-family="sans" font-size="12.00" fill="#c4c7c7">Anti&#45;symmetric Relation</text>
</a>
</g>
</g>
<!-- Relation&#45;&gt;Anti&#45;symmetric Relation -->
<g id="edge2" class="edge">
<title>Relation&#45;&gt;Anti&#45;symmetric Relation</title>
<path fill="none" stroke="#ffffff" d="M74.18,-177.95C75.53,-178.31 76.89,-178.66 78.26,-179.02"/>
<polygon fill="#ffffff" stroke="#ffffff" points="74.71,-174.47 64.15,-175.31 72.93,-181.24 74.71,-174.47"/>
</g>
<!-- Chain -->
<g id="node4" class="node">
<title>Chain</title>
<g id="a_node4"><a xlink:href="../Chain.html" xlink:title="Chain" target="_parent">
<path fill="none" stroke="#b75867" d="M487,-102.11C487,-102.11 457,-102.11 457,-102.11 451,-102.11 445,-96.11 445,-90.11 445,-90.11 445,-78.11 445,-78.11 445,-72.11 451,-66.11 457,-66.11 457,-66.11 487,-66.11 487,-66.11 493,-66.11 499,-72.11 499,-78.11 499,-78.11 499,-90.11 499,-90.11 499,-96.11 493,-102.11 487,-102.11"/>
<text text-anchor="middle" x="472" y="-81.01" font-family="sans" font-size="12.00" fill="#c4c7c7">Chain</text>
</a>
</g>
</g>
<!-- Relation&#45;&gt;Chain -->
<g id="edge3" class="edge">
<title>Relation&#45;&gt;Chain</title>
<path fill="none" stroke="#ffffff" d="M40.76,-139.24C46.65,-123.71 56.45,-105.63 72,-96.11 134.58,-57.81 366.62,-74.66 444.97,-81.63"/>
<polygon fill="#ffffff" stroke="#ffffff" points="37.36,-138.37 37.44,-148.97 43.99,-140.64 37.36,-138.37"/>
</g>
<!-- Reflexive Closure -->
<g id="node5" class="node">
<title>Reflexive Closure</title>
<g id="a_node5"><a xlink:href="../Reflexive Closure.html" xlink:title="Reflexive Closure" target="_parent">
<path fill="none" stroke="#b75867" d="M516.5,-197.11C516.5,-197.11 427.5,-197.11 427.5,-197.11 421.5,-197.11 415.5,-191.11 415.5,-185.11 415.5,-185.11 415.5,-173.11 415.5,-173.11 415.5,-167.11 421.5,-161.11 427.5,-161.11 427.5,-161.11 516.5,-161.11 516.5,-161.11 522.5,-161.11 528.5,-167.11 528.5,-173.11 528.5,-173.11 528.5,-185.11 528.5,-185.11 528.5,-191.11 522.5,-197.11 516.5,-197.11"/>
<text text-anchor="middle" x="472" y="-176.01" font-family="sans" font-size="12.00" fill="#c4c7c7">Reflexive Closure</text>
</a>
</g>
</g>
<!-- Relation&#45;&gt;Reflexive Closure -->
<g id="edge4" class="edge">
<title>Relation&#45;&gt;Reflexive Closure</title>
<path fill="none" stroke="#ffffff" d="M74.38,-172.15C201.85,-181 340.26,-180.92 415.4,-180.06"/>
<polygon fill="#ffffff" stroke="#ffffff" points="74.27,-168.63 64.05,-171.41 73.77,-175.61 74.27,-168.63"/>
</g>
<!-- Symmetric Closure -->
<g id="node6" class="node">
<title>Symmetric Closure</title>
<g id="a_node6"><a xlink:href="../Symmetric Closure.html" xlink:title="Symmetric Closure" target="_parent">
<path fill="none" stroke="#b75867" d="M1430,-146.11C1430,-146.11 1331,-146.11 1331,-146.11 1325,-146.11 1319,-140.11 1319,-134.11 1319,-134.11 1319,-122.11 1319,-122.11 1319,-116.11 1325,-110.11 1331,-110.11 1331,-110.11 1430,-110.11 1430,-110.11 1436,-110.11 1442,-116.11 1442,-122.11 1442,-122.11 1442,-134.11 1442,-134.11 1442,-140.11 1436,-146.11 1430,-146.11"/>
<text text-anchor="middle" x="1380.5" y="-125.01" font-family="sans" font-size="12.00" fill="#c4c7c7">Symmetric Closure</text>
</a>
</g>
</g>
<!-- Relation&#45;&gt;Symmetric Closure -->
<g id="edge5" class="edge">
<title>Relation&#45;&gt;Symmetric Closure</title>
<path fill="none" stroke="#ffffff" d="M36.83,-138.8C42.48,-101.75 54.33,-39.91 72,-26.11 142.79,29.15 184.19,-21.11 274,-21.11 274,-21.11 274,-21.11 1076.5,-21.11 1119,-21.11 1130.44,-17.19 1172,-26.11 1236.8,-40.02 1252.55,-48.87 1311,-80.11 1327.01,-88.67 1343.72,-100.32 1356.62,-109.99"/>
<polygon fill="#ffffff" stroke="#ffffff" points="33.32,-138.57 35.34,-148.98 40.25,-139.59 33.32,-138.57"/>
</g>
<!-- Relation of Equivalence -->
<g id="node7" class="node">
<title>Relation of Equivalence</title>
<g id="a_node7"><a xlink:href="../Relation of Equivalence.html" xlink:title="Relation of Equivalence" target="_parent">
<path fill="none" stroke="#b75867" d="M1138,-240.11C1138,-240.11 1013,-240.11 1013,-240.11 1007,-240.11 1001,-234.11 1001,-228.11 1001,-228.11 1001,-216.11 1001,-216.11 1001,-210.11 1007,-204.11 1013,-204.11 1013,-204.11 1138,-204.11 1138,-204.11 1144,-204.11 1150,-210.11 1150,-216.11 1150,-216.11 1150,-228.11 1150,-228.11 1150,-234.11 1144,-240.11 1138,-240.11"/>
<text text-anchor="middle" x="1075.5" y="-219.01" font-family="sans" font-size="12.00" fill="#c4c7c7">Relation of Equivalence</text>
</a>
</g>
</g>
<!-- Relation&#45;&gt;Relation of Equivalence -->
<g id="edge6" class="edge">
<title>Relation&#45;&gt;Relation of Equivalence</title>
<path fill="none" stroke="#ffffff" d="M42.33,-195.07C48.48,-208.95 58.04,-224.54 72,-233.11 110.33,-256.65 229.02,-246.11 274,-246.11 274,-246.11 274,-246.11 718,-246.11 830.47,-246.11 859.1,-252.42 971,-241.11 980.72,-240.13 990.9,-238.73 1000.93,-237.13"/>
<polygon fill="#ffffff" stroke="#ffffff" points="45.41,-193.36 38.43,-185.39 38.92,-195.98 45.41,-193.36"/>
</g>
<!-- Symmetric Relation -->
<g id="node8" class="node">
<title>Symmetric Relation</title>
<g id="a_node8"><a xlink:href="../Symmetric Relation.html" xlink:title="Symmetric Relation" target="_parent">
<path fill="none" stroke="#b75867" d="M1297.5,-117.11C1297.5,-117.11 1193.5,-117.11 1193.5,-117.11 1187.5,-117.11 1181.5,-111.11 1181.5,-105.11 1181.5,-105.11 1181.5,-93.11 1181.5,-93.11 1181.5,-87.11 1187.5,-81.11 1193.5,-81.11 1193.5,-81.11 1297.5,-81.11 1297.5,-81.11 1303.5,-81.11 1309.5,-87.11 1309.5,-93.11 1309.5,-93.11 1309.5,-105.11 1309.5,-105.11 1309.5,-111.11 1303.5,-117.11 1297.5,-117.11"/>
<text text-anchor="middle" x="1245.5" y="-96.01" font-family="sans" font-size="12.00" fill="#c4c7c7">Symmetric Relation</text>
</a>
</g>
</g>
<!-- Relation&#45;&gt;Symmetric Relation -->
<g id="edge7" class="edge">
<title>Relation&#45;&gt;Symmetric Relation</title>
<path fill="none" stroke="#ffffff" d="M36.96,-139.11C42.73,-102.82 54.68,-42.56 72,-29.11 89.74,-15.35 251.55,-24.11 274,-24.11 274,-24.11 274,-24.11 870.5,-24.11 1005.16,-24.11 1044.49,-10.82 1172,-54.11 1189.82,-60.16 1207.8,-71.29 1221.4,-80.96"/>
<polygon fill="#ffffff" stroke="#ffffff" points="33.49,-138.68 35.44,-149.1 40.41,-139.74 33.49,-138.68"/>
</g>
<!-- Partial function -->
<g id="node9" class="node">
<title>Partial function</title>
<g id="a_node9"><a xlink:href="../Partial function.html" xlink:title="Partial function" target="_parent">
<path fill="none" stroke="#b75867" d="M187.5,-138.11C187.5,-138.11 108.5,-138.11 108.5,-138.11 102.5,-138.11 96.5,-132.11 96.5,-126.11 96.5,-126.11 96.5,-114.11 96.5,-114.11 96.5,-108.11 102.5,-102.11 108.5,-102.11 108.5,-102.11 187.5,-102.11 187.5,-102.11 193.5,-102.11 199.5,-108.11 199.5,-114.11 199.5,-114.11 199.5,-126.11 199.5,-126.11 199.5,-132.11 193.5,-138.11 187.5,-138.11"/>
<text text-anchor="middle" x="148" y="-117.01" font-family="sans" font-size="12.00" fill="#c4c7c7">Partial function</text>
</a>
</g>
</g>
<!-- Relation&#45;&gt;Partial function -->
<g id="edge8" class="edge">
<title>Relation&#45;&gt;Partial function</title>
<path fill="none" stroke="#ffffff" d="M67.87,-144.11C69.25,-143.41 70.63,-142.74 72,-142.11 79.66,-138.62 88,-135.54 96.26,-132.86"/>
<polygon fill="#ffffff" stroke="#ffffff" points="65.9,-141.2 58.86,-149.11 69.3,-147.32 65.9,-141.2"/>
</g>
<!-- Relations -->
<g id="node10" class="node">
<title>Relations</title>
<g id="a_node10"><a xlink:href="../Relations.html" xlink:title="Relations" target="_parent">
<path fill="none" stroke="#b75867" d="M383,-171.11C383,-171.11 338,-171.11 338,-171.11 332,-171.11 326,-165.11 326,-159.11 326,-159.11 326,-147.11 326,-147.11 326,-141.11 332,-135.11 338,-135.11 338,-135.11 383,-135.11 383,-135.11 389,-135.11 395,-141.11 395,-147.11 395,-147.11 395,-159.11 395,-159.11 395,-165.11 389,-171.11 383,-171.11"/>
<text text-anchor="middle" x="360.5" y="-150.01" font-family="sans" font-size="12.00" fill="#c4c7c7">Relations</text>
</a>
</g>
</g>
<!-- Relation&#45;&gt;Relations -->
<g id="edge9" class="edge">
<title>Relation&#45;&gt;Relations</title>
<path fill="none" stroke="#ffffff" d="M42.97,-139.56C49.19,-126.65 58.61,-112.51 72,-105.11 119.94,-78.63 267.88,-98.03 318,-120.11 326.26,-123.75 334.27,-129.44 341.02,-135.08"/>
<polygon fill="#ffffff" stroke="#ffffff" points="39.61,-138.5 38.82,-149.07 46.03,-141.3 39.61,-138.5"/>
</g>
<!-- Linear order -->
<g id="node11" class="node">
<title>Linear order</title>
<g id="a_node11"><a xlink:href="../Linear order.html" xlink:title="Linear order" target="_parent">
<path fill="none" stroke="#b75867" d="M748,-208.11C748,-208.11 686,-208.11 686,-208.11 680,-208.11 674,-202.11 674,-196.11 674,-196.11 674,-184.11 674,-184.11 674,-178.11 680,-172.11 686,-172.11 686,-172.11 748,-172.11 748,-172.11 754,-172.11 760,-178.11 760,-184.11 760,-184.11 760,-196.11 760,-196.11 760,-202.11 754,-208.11 748,-208.11"/>
<text text-anchor="middle" x="717" y="-187.01" font-family="sans" font-size="12.00" fill="#c4c7c7">Linear order</text>
</a>
</g>
</g>
<!-- Relation&#45;&gt;Linear order -->
<g id="edge10" class="edge">
<title>Relation&#45;&gt;Linear order</title>
<path fill="none" stroke="#ffffff" d="M46.89,-193.98C53.21,-203.34 61.61,-212.82 72,-218.11 92,-228.31 251.55,-223.11 274,-223.11 274,-223.11 274,-223.11 361.5,-223.11 395.36,-223.11 632.95,-218.45 666,-211.11 669.49,-210.34 673.05,-209.33 676.58,-208.18"/>
<polygon fill="#ffffff" stroke="#ffffff" points="49.7,-191.87 41.48,-185.18 43.74,-195.53 49.7,-191.87"/>
</g>
<!-- Total function -->
<g id="node12" class="node">
<title>Total function</title>
<g id="a_node12"><a xlink:href="../Total function.html" xlink:title="Total function" target="_parent">
<path fill="none" stroke="#b75867" d="M183.5,-175.11C183.5,-175.11 112.5,-175.11 112.5,-175.11 106.5,-175.11 100.5,-169.11 100.5,-163.11 100.5,-163.11 100.5,-151.11 100.5,-151.11 100.5,-145.11 106.5,-139.11 112.5,-139.11 112.5,-139.11 183.5,-139.11 183.5,-139.11 189.5,-139.11 195.5,-145.11 195.5,-151.11 195.5,-151.11 195.5,-163.11 195.5,-163.11 195.5,-169.11 189.5,-175.11 183.5,-175.11"/>
<text text-anchor="middle" x="148" y="-154.01" font-family="sans" font-size="12.00" fill="#c4c7c7">Total function</text>
</a>
</g>
</g>
<!-- Relation&#45;&gt;Total function -->
<g id="edge11" class="edge">
<title>Relation&#45;&gt;Total function</title>
<path fill="none" stroke="#ffffff" d="M74.24,-163.5C82.76,-162.75 91.79,-161.96 100.49,-161.19"/>
<polygon fill="#ffffff" stroke="#ffffff" points="73.81,-160.02 64.15,-164.38 74.42,-166.99 73.81,-160.02"/>
</g>
<!-- Transitive Relation -->
<g id="node13" class="node">
<title>Transitive Relation</title>
<g id="a_node13"><a xlink:href="../Transitive Relation.html" xlink:title="Transitive Relation" target="_parent">
<path fill="none" stroke="#b75867" d="M918,-241.11C918,-241.11 821,-241.11 821,-241.11 815,-241.11 809,-235.11 809,-229.11 809,-229.11 809,-217.11 809,-217.11 809,-211.11 815,-205.11 821,-205.11 821,-205.11 918,-205.11 918,-205.11 924,-205.11 930,-211.11 930,-217.11 930,-217.11 930,-229.11 930,-229.11 930,-235.11 924,-241.11 918,-241.11"/>
<text text-anchor="middle" x="869.5" y="-220.01" font-family="sans" font-size="12.00" fill="#c4c7c7">Transitive Relation</text>
</a>
</g>
</g>
<!-- Relation&#45;&gt;Transitive Relation -->
<g id="edge12" class="edge">
<title>Relation&#45;&gt;Transitive Relation</title>
<path fill="none" stroke="#ffffff" d="M45.42,-194.24C51.77,-204.87 60.6,-215.97 72,-222.11 151.08,-264.73 184.17,-229.11 274,-229.11 274,-229.11 274,-229.11 608.5,-229.11 677.24,-229.11 756.18,-226.99 808.87,-225.27"/>
<polygon fill="#ffffff" stroke="#ffffff" points="48.33,-192.27 40.47,-185.16 42.19,-195.62 48.33,-192.27"/>
</g>
<!-- Reflexive Relation -->
<g id="node14" class="node">
<title>Reflexive Relation</title>
<g id="a_node14"><a xlink:href="../Reflexive Relation.html" xlink:title="Reflexive Relation" target="_parent">
<path fill="none" stroke="#b75867" d="M654,-208.11C654,-208.11 561,-208.11 561,-208.11 555,-208.11 549,-202.11 549,-196.11 549,-196.11 549,-184.11 549,-184.11 549,-178.11 555,-172.11 561,-172.11 561,-172.11 654,-172.11 654,-172.11 660,-172.11 666,-178.11 666,-184.11 666,-184.11 666,-196.11 666,-196.11 666,-202.11 660,-208.11 654,-208.11"/>
<text text-anchor="middle" x="607.5" y="-187.01" font-family="sans" font-size="12.00" fill="#c4c7c7">Reflexive Relation</text>
</a>
</g>
</g>
<!-- Relation&#45;&gt;Reflexive Relation -->
<g id="edge13" class="edge">
<title>Relation&#45;&gt;Reflexive Relation</title>
<path fill="none" stroke="#ffffff" d="M47.9,-193.6C54.15,-202.08 62.26,-210.48 72,-215.11 119.07,-237.52 489.24,-208.34 541,-202.11 543.53,-201.81 546.1,-201.47 548.7,-201.1"/>
<polygon fill="#ffffff" stroke="#ffffff" points="50.76,-191.57 42.28,-185.21 44.94,-195.47 50.76,-191.57"/>
</g>
<!-- Anti&#45;reflexive relation -->
<g id="node15" class="node">
<title>Anti&#45;reflexive relation</title>
<g id="a_node15"><a xlink:href="../Anti-reflexive relation.html" xlink:title="Anti&#45;reflexive relation" target="_parent">
<path fill="none" stroke="#b75867" d="M529,-65.11C529,-65.11 415,-65.11 415,-65.11 409,-65.11 403,-59.11 403,-53.11 403,-53.11 403,-41.11 403,-41.11 403,-35.11 409,-29.11 415,-29.11 415,-29.11 529,-29.11 529,-29.11 535,-29.11 541,-35.11 541,-41.11 541,-41.11 541,-53.11 541,-53.11 541,-59.11 535,-65.11 529,-65.11"/>
<text text-anchor="middle" x="472" y="-44.01" font-family="sans" font-size="12.00" fill="#c4c7c7">Anti&#45;reflexive relation</text>
</a>
</g>
</g>
<!-- Relation&#45;&gt;Anti&#45;reflexive relation -->
<g id="edge14" class="edge">
<title>Relation&#45;&gt;Anti&#45;reflexive relation</title>
<path fill="none" stroke="#ffffff" d="M36.63,-139.08C41.05,-117.3 50.76,-88.32 72,-73.11 123.29,-36.39 302.87,-38.71 402.72,-43.14"/>
<polygon fill="#ffffff" stroke="#ffffff" points="33.15,-138.65 34.86,-149.11 40.05,-139.87 33.15,-138.65"/>
</g>
<!-- Strongly Anti&#45;symmetric Relation -->
<g id="node16" class="node">
<title>Strongly Anti&#45;symmetric Relation</title>
<g id="a_node16"><a xlink:href="../Strongly Anti-symmetric Relation.html" xlink:title="Strongly Anti&#45;symmetric Relation" target="_parent">
<path fill="none" stroke="#b75867" d="M959,-128.11C959,-128.11 780,-128.11 780,-128.11 774,-128.11 768,-122.11 768,-116.11 768,-116.11 768,-104.11 768,-104.11 768,-98.11 774,-92.11 780,-92.11 780,-92.11 959,-92.11 959,-92.11 965,-92.11 971,-98.11 971,-104.11 971,-104.11 971,-116.11 971,-116.11 971,-122.11 965,-128.11 959,-128.11"/>
<text text-anchor="middle" x="869.5" y="-107.01" font-family="sans" font-size="12.00" fill="#c4c7c7">Strongly Anti&#45;symmetric Relation</text>
</a>
</g>
</g>
<!-- Relation&#45;&gt;Strongly Anti&#45;symmetric Relation -->
<g id="edge15" class="edge">
<title>Relation&#45;&gt;Strongly Anti&#45;symmetric Relation</title>
<path fill="none" stroke="#ffffff" d="M33.34,-138.59C35.35,-109.64 43.35,-65.93 72,-43.11 107.22,-15.06 228.97,-27.11 274,-27.11 274,-27.11 274,-27.11 361.5,-27.11 497.25,-27.11 533.44,-21.86 666,-51.11 716.78,-62.32 773.53,-79.25 814,-92.1"/>
<polygon fill="#ffffff" stroke="#ffffff" points="29.82,-138.73 32.82,-148.89 36.82,-139.08 29.82,-138.73"/>
</g>
<!-- Partial order -->
<g id="node17" class="node">
<title>Partial order</title>
<g id="a_node17"><a xlink:href="../Partial order.html" xlink:title="Partial order" target="_parent">
<path fill="none" stroke="#b75867" d="M306,-218.11C306,-218.11 244,-218.11 244,-218.11 238,-218.11 232,-212.11 232,-206.11 232,-206.11 232,-194.11 232,-194.11 232,-188.11 238,-182.11 244,-182.11 244,-182.11 306,-182.11 306,-182.11 312,-182.11 318,-188.11 318,-194.11 318,-194.11 318,-206.11 318,-206.11 318,-212.11 312,-218.11 306,-218.11"/>
<text text-anchor="middle" x="275" y="-197.01" font-family="sans" font-size="12.00" fill="#c4c7c7">Partial order</text>
</a>
</g>
</g>
<!-- Relation&#45;&gt;Partial order -->
<g id="edge16" class="edge">
<title>Relation&#45;&gt;Partial order</title>
<path fill="none" stroke="#ffffff" d="M49.47,-193.52C55.55,-200.94 63.16,-208.08 72,-212.11 102.73,-226.14 190.46,-216.08 224,-212.11 226.57,-211.81 229.2,-211.42 231.84,-210.97"/>
<polygon fill="#ffffff" stroke="#ffffff" points="52.26,-191.41 43.47,-185.49 46.65,-195.6 52.26,-191.41"/>
</g>
<!-- Descartes Product&#45;&gt;Relation -->
<g id="edge17" class="edge">
<title>Descartes Product&#45;&gt;Relation</title>
<path fill="none" stroke="#ffffff" d="M79.59,-250.52C76.92,-248.89 74.38,-247.09 72,-245.11 53.45,-229.69 42.81,-203.21 37.46,-185.43"/>
<polygon fill="#ffffff" stroke="#ffffff" points="77.98,-253.63 88.46,-255.21 81.26,-247.45 77.98,-253.63"/>
</g>
<!-- Anti&#45;symmetric Relation&#45;&gt;Relation -->
<g id="edge18" class="edge">
<title>Anti&#45;symmetric Relation&#45;&gt;Relation</title>
<path fill="none" stroke="#b75867" d="M75.69,-179.08C75.07,-178.91 74.45,-178.75 73.84,-178.58"/>
<polygon fill="#b75867" stroke="#b75867" points="74.72,-175.2 64.15,-175.99 72.9,-181.96 74.72,-175.2"/>
</g>
<!-- Anti&#45;symmetric Relation&#45;&gt;Relations -->
<g id="edge19" class="edge">
<title>Anti&#45;symmetric Relation&#45;&gt;Relations</title>
<path fill="none" stroke="#ffffff" d="M234.01,-179.34C266.26,-172.6 301.14,-165.31 325.92,-160.13"/>
<polygon fill="#ffffff" stroke="#ffffff" points="233.18,-175.94 224.1,-181.42 234.61,-182.8 233.18,-175.94"/>
</g>
<!-- Anti&#45;symmetric Relation&#45;&gt;Partial order -->
<g id="edge20" class="edge">
<title>Anti&#45;symmetric Relation&#45;&gt;Partial order</title>
<path fill="none" stroke="#ffffff" d="M231.41,-199.09C231.57,-199.1 231.73,-199.1 231.88,-199.1"/>
<polygon fill="#ffffff" stroke="#ffffff" points="234.32,-195.66 224.24,-198.92 234.15,-202.66 234.32,-195.66"/>
</g>
<!-- Chain&#45;&gt;Relation -->
<g id="edge23" class="edge">
<title>Chain&#45;&gt;Relation</title>
<path fill="none" stroke="#b75867" d="M444.97,-82.07C366.62,-75.66 134.58,-58.81 72,-97.11 56.65,-106.51 46.9,-124.25 40.99,-139.53"/>
<polygon fill="#b75867" stroke="#b75867" points="37.64,-138.5 37.64,-149.09 44.25,-140.81 37.64,-138.5"/>
</g>
<!-- Chain&#45;&gt;Relations -->
<g id="edge24" class="edge">
<title>Chain&#45;&gt;Relations</title>
<path fill="none" stroke="#ffffff" d="M435.01,-92.81C424.17,-96.19 412.61,-100.81 403,-107.11 391.89,-114.39 381.95,-125.41 374.58,-134.84"/>
<polygon fill="#ffffff" stroke="#ffffff" points="436.04,-96.16 444.69,-90.04 434.11,-89.43 436.04,-96.16"/>
</g>
<!-- Partial orders have no contours -->
<g id="node18" class="node">
<title>Partial orders have no contours</title>
<g id="a_node18"><a xlink:href="../Partial orders have no contours.html" xlink:title="Partial orders have no contours" target="_parent">
<path fill="#273434" stroke="#b75867" d="M1160,-192.11C1160,-192.11 991,-192.11 991,-192.11 985,-192.11 979,-186.11 979,-180.11 979,-180.11 979,-168.11 979,-168.11 979,-162.11 985,-156.11 991,-156.11 991,-156.11 1160,-156.11 1160,-156.11 1166,-156.11 1172,-162.11 1172,-168.11 1172,-168.11 1172,-180.11 1172,-180.11 1172,-186.11 1166,-192.11 1160,-192.11"/>
<text text-anchor="middle" x="1075.5" y="-171.01" font-family="sans" font-size="12.00" fill="#c4c7c7">Partial orders have no contours</text>
</a>
</g>
</g>
<!-- Chain&#45;&gt;Partial orders have no contours -->
<g id="edge21" class="edge">
<title>Chain&#45;&gt;Partial orders have no contours</title>
<path fill="none" stroke="#b75867" d="M499.11,-84.47C600.06,-85.88 959.78,-91.18 971,-95.11 1002.08,-106 1031.3,-130.08 1050.71,-148.81"/>
<polygon fill="#b75867" stroke="#b75867" points="1048.34,-151.38 1057.91,-155.94 1053.27,-146.41 1048.34,-151.38"/>
</g>
<!-- Contour -->
<g id="node19" class="node">
<title>Contour</title>
<g id="a_node19"><a xlink:href="../Contour.html" xlink:title="Contour" target="_parent">
<path fill="#273434" stroke="#b75867" d="M627,-88.11C627,-88.11 588,-88.11 588,-88.11 582,-88.11 576,-82.11 576,-76.11 576,-76.11 576,-64.11 576,-64.11 576,-58.11 582,-52.11 588,-52.11 588,-52.11 627,-52.11 627,-52.11 633,-52.11 639,-58.11 639,-64.11 639,-64.11 639,-76.11 639,-76.11 639,-82.11 633,-88.11 627,-88.11"/>
<text text-anchor="middle" x="607.5" y="-67.01" font-family="sans" font-size="12.00" fill="#c4c7c7">Contour</text>
</a>
</g>
</g>
<!-- Chain&#45;&gt;Contour -->
<g id="edge22" class="edge">
<title>Chain&#45;&gt;Contour</title>
<path fill="none" stroke="#b75867" d="M499.06,-81.38C517.97,-79.4 543.93,-76.68 565.59,-74.4"/>
<polygon fill="#b75867" stroke="#b75867" points="566.25,-77.85 575.83,-73.33 565.52,-70.89 566.25,-77.85"/>
</g>
<!-- Reflexive Closure&#45;&gt;Relation -->
<g id="edge26" class="edge">
<title>Reflexive Closure&#45;&gt;Relation</title>
<path fill="none" stroke="#b75867" d="M415.4,-180.73C340.26,-181.91 201.85,-182 74.38,-173.14"/>
<polygon fill="#b75867" stroke="#b75867" points="74.27,-169.63 64.05,-172.4 73.77,-176.61 74.27,-169.63"/>
</g>
<!-- Reflexive Closure&#45;&gt;Relations -->
<g id="edge29" class="edge">
<title>Reflexive Closure&#45;&gt;Relations</title>
<path fill="none" stroke="#ffffff" d="M405.46,-163.55C401.98,-162.73 398.55,-161.91 395.25,-161.13"/>
<polygon fill="#ffffff" stroke="#ffffff" points="404.86,-167.01 415.4,-165.91 406.48,-160.2 404.86,-167.01"/>
</g>
<!-- Reflexive Closure&#45;&gt;Relations -->
<g id="edge30" class="edge">
<title>Reflexive Closure&#45;&gt;Relations</title>
<path fill="none" stroke="#ffffff" d="M405.46,-164.29C401.98,-163.45 398.55,-162.63 395.25,-161.83"/>
<polygon fill="#ffffff" stroke="#ffffff" points="404.86,-167.74 415.4,-166.66 406.49,-160.94 404.86,-167.74"/>
</g>
<!-- Reflexive Closure&#45;&gt;Reflexive Relation -->
<g id="edge28" class="edge">
<title>Reflexive Closure&#45;&gt;Reflexive Relation</title>
<path fill="none" stroke="#b75867" d="M528.84,-183.72C532.03,-183.98 535.24,-184.24 538.47,-184.51"/>
<polygon fill="#b75867" stroke="#b75867" points="538.48,-188.02 548.73,-185.35 539.05,-181.04 538.48,-188.02"/>
</g>
<!-- Matrix -->
<g id="node20" class="node">
<title>Matrix</title>
<g id="a_node20"><a xlink:href="../Matrix.html" xlink:title="Matrix" target="_parent">
<path fill="#273434" stroke="#b75867" d="M1492,-146.11C1492,-146.11 1462,-146.11 1462,-146.11 1456,-146.11 1450,-140.11 1450,-134.11 1450,-134.11 1450,-122.11 1450,-122.11 1450,-116.11 1456,-110.11 1462,-110.11 1462,-110.11 1492,-110.11 1492,-110.11 1498,-110.11 1504,-116.11 1504,-122.11 1504,-122.11 1504,-134.11 1504,-134.11 1504,-140.11 1498,-146.11 1492,-146.11"/>
<text text-anchor="middle" x="1477" y="-125.01" font-family="sans" font-size="12.00" fill="#c4c7c7">Matrix</text>
</a>
</g>
</g>
<!-- Reflexive Closure&#45;&gt;Matrix -->
<g id="edge25" class="edge">
<title>Reflexive Closure&#45;&gt;Matrix</title>
<path fill="none" stroke="#b75867" d="M526.99,-161.01C534.32,-159.07 541.8,-157.36 549,-156.11 622.23,-143.48 641.69,-148.11 716,-148.11 716,-148.11 716,-148.11 1246.5,-148.11 1330.28,-148.11 1355.39,-161.13 1440.19,-142.97"/>
<polygon fill="#b75867" stroke="#b75867" points="1440.99,-146.38 1449.99,-140.79 1439.47,-139.55 1440.99,-146.38"/>
</g>
<!-- Set -->
<g id="node21" class="node">
<title>Set</title>
<g id="a_node21"><a xlink:href="../Set.html" xlink:title="Set" target="_parent">
<path fill="#273434" stroke="#b75867" d="M1492,-183.11C1492,-183.11 1462,-183.11 1462,-183.11 1456,-183.11 1450,-177.11 1450,-171.11 1450,-171.11 1450,-159.11 1450,-159.11 1450,-153.11 1456,-147.11 1462,-147.11 1462,-147.11 1492,-147.11 1492,-147.11 1498,-147.11 1504,-153.11 1504,-159.11 1504,-159.11 1504,-171.11 1504,-171.11 1504,-177.11 1498,-183.11 1492,-183.11"/>
<text text-anchor="middle" x="1477" y="-162.01" font-family="sans" font-size="12.00" fill="#c4c7c7">Set</text>
</a>
</g>
</g>
<!-- Reflexive Closure&#45;&gt;Set -->
<g id="edge27" class="edge">
<title>Reflexive Closure&#45;&gt;Set</title>
<path fill="none" stroke="#b75867" d="M528.86,-166.93C535.62,-165.8 542.45,-164.82 549,-164.11 717.38,-146.07 1141.72,-151.5 1311,-156.11 1355.25,-157.32 1406.1,-160.34 1439.52,-162.55"/>
<polygon fill="#b75867" stroke="#b75867" points="1439.52,-166.06 1449.73,-163.24 1439.98,-159.08 1439.52,-166.06"/>
</g>
<!-- Symmetric Closure&#45;&gt;Relation -->
<g id="edge32" class="edge">
<title>Symmetric Closure&#45;&gt;Relation</title>
<path fill="none" stroke="#b75867" d="M1355.37,-109.95C1342.65,-100.57 1326.5,-89.4 1311,-81.11 1252.55,-49.87 1236.8,-41.02 1172,-27.11 1130.44,-18.19 1119,-22.11 1076.5,-22.11 274,-22.11 274,-22.11 274,-22.11 184.19,-22.11 142.79,28.15 72,-27.11 54.42,-40.84 42.6,-102.12 36.92,-138.9"/>
<polygon fill="#b75867" stroke="#b75867" points="33.42,-138.6 35.41,-149.01 40.35,-139.63 33.42,-138.6"/>
</g>
<!-- Symmetric Closure&#45;&gt;Symmetric Relation -->
<g id="edge34" class="edge">
<title>Symmetric Closure&#45;&gt;Symmetric Relation</title>
<path fill="none" stroke="#b75867" d="M1318.72,-115.61C1318.62,-115.59 1318.53,-115.57 1318.44,-115.55"/>
<polygon fill="#b75867" stroke="#b75867" points="1320.4,-112.39 1309.88,-113.68 1318.91,-119.23 1320.4,-112.39"/>
</g>
<!-- Symmetric Closure&#45;&gt;Relations -->
<g id="edge35" class="edge">
<title>Symmetric Closure&#45;&gt;Relations</title>
<path fill="none" stroke="#ffffff" d="M1308.41,-128.36C1194.39,-128.63 963.57,-128.61 768,-125.11 667.08,-123.31 641.92,-119.67 541,-118.11 479.67,-117.17 460.61,-97.06 403,-118.11 393.44,-121.61 384.56,-128.38 377.49,-135.05"/>
<polygon fill="#ffffff" stroke="#ffffff" points="1308.75,-131.86 1318.74,-128.34 1308.73,-124.86 1308.75,-131.86"/>
</g>
<!-- Symmetric Closure&#45;&gt;Relations -->
<g id="edge36" class="edge">
<title>Symmetric Closure&#45;&gt;Relations</title>
<path fill="none" stroke="#ffffff" d="M1308.41,-128.99C1194.39,-129.63 963.57,-129.61 768,-126.11 667.08,-124.31 641.92,-120.67 541,-119.11 479.67,-118.17 460.61,-98.06 403,-119.11 393.97,-122.41 385.55,-128.64 378.68,-134.87"/>
<polygon fill="#ffffff" stroke="#ffffff" points="1308.76,-132.49 1318.74,-128.93 1308.72,-125.49 1308.76,-132.49"/>
</g>
<!-- Symmetric Closure&#45;&gt;Matrix -->
<g id="edge31" class="edge">
<title>Symmetric Closure&#45;&gt;Matrix</title>
<path fill="none" stroke="#b75867" d="M1442.15,-128.11C1442.31,-128.11 1442.47,-128.11 1442.63,-128.11"/>
<polygon fill="#b75867" stroke="#b75867" points="1439.7,-131.61 1449.7,-128.11 1439.7,-124.61 1439.7,-131.61"/>
</g>
<!-- Symmetric Closure&#45;&gt;Set -->
<g id="edge33" class="edge">
<title>Symmetric Closure&#45;&gt;Set</title>
<path fill="none" stroke="#b75867" d="M1432.1,-146.23C1434.2,-147.04 1436.29,-147.85 1440.23,-149.44"/>
<polygon fill="#b75867" stroke="#b75867" points="1439.13,-152.77 1449.72,-153.31 1441.78,-146.29 1439.13,-152.77"/>
</g>
<!-- Relation of Equivalence&#45;&gt;Relation -->
<g id="edge43" class="edge">
<title>Relation of Equivalence&#45;&gt;Relation</title>
<path fill="none" stroke="#b75867" d="M1000.93,-238.12C990.9,-239.73 980.72,-241.13 971,-242.11 859.1,-253.42 830.47,-247.11 718,-247.11 274,-247.11 274,-247.11 274,-247.11 229.02,-247.11 110.33,-257.65 72,-234.11 57.62,-225.29 47.92,-209.02 41.79,-194.73"/>
<polygon fill="#b75867" stroke="#b75867" points="45,-193.31 38.1,-185.26 38.47,-195.85 45,-193.31"/>
</g>
<!-- Relation of Equivalence&#45;&gt;Symmetric Relation -->
<g id="edge41" class="edge">
<title>Relation of Equivalence&#45;&gt;Symmetric Relation</title>
<path fill="none" stroke="#b75867" d="M1150.15,-208.84C1158.33,-204.87 1165.89,-199.74 1172,-193.11 1183.4,-180.74 1171.49,-170.63 1180,-156.11 1187.22,-143.78 1198.05,-132.71 1208.78,-123.68"/>
<polygon fill="#b75867" stroke="#b75867" points="1211.28,-126.16 1216.91,-117.18 1206.91,-120.69 1211.28,-126.16"/>
</g>
<!-- Relation of Equivalence&#45;&gt;Relations -->
<g id="edge45" class="edge">
<title>Relation of Equivalence&#45;&gt;Relations</title>
<path fill="none" stroke="#ffffff" d="M990.52,-237.2C983.93,-237.97 977.36,-238.63 971,-239.11 881.04,-246.03 858.14,-243.06 768,-239.11 727.33,-237.33 438.79,-226.52 403,-207.11 388.31,-199.15 377.08,-183.54 370.03,-171.15"/>
<polygon fill="#ffffff" stroke="#ffffff" points="991.39,-240.62 1000.88,-235.9 990.52,-233.67 991.39,-240.62"/>
</g>
<!-- Relation of Equivalence&#45;&gt;Transitive Relation -->
<g id="edge40" class="edge">
<title>Relation of Equivalence&#45;&gt;Transitive Relation</title>
<path fill="none" stroke="#b75867" d="M1000.74,-223.2C980.96,-223.33 959.64,-223.44 940.1,-223.49"/>
<polygon fill="#b75867" stroke="#b75867" points="940.05,-219.99 930.05,-223.51 940.06,-226.99 940.05,-219.99"/>
</g>
<!-- Relation of Equivalence&#45;&gt;Reflexive Relation -->
<g id="edge42" class="edge">
<title>Relation of Equivalence&#45;&gt;Reflexive Relation</title>
<path fill="none" stroke="#b75867" d="M1000.72,-208.57C992.76,-204.81 985.29,-200.07 979,-194.11 971.45,-186.96 979.52,-178.08 971,-172.11 952.23,-158.97 754.74,-163.94 676.42,-173.08"/>
<polygon fill="#b75867" stroke="#b75867" points="675.66,-169.65 666.19,-174.39 676.56,-176.59 675.66,-169.65"/>
</g>
<!-- Relation of Equivalence&#45;&gt;Set -->
<g id="edge38" class="edge">
<title>Relation of Equivalence&#45;&gt;Set</title>
<path fill="none" stroke="#b75867" d="M1150.07,-205.22C1160.09,-203.29 1170.27,-201.51 1180,-200.11 1237.8,-191.8 1252.98,-196.71 1311,-190.11 1355.42,-185.06 1406.24,-177.02 1439.6,-171.42"/>
<polygon fill="#b75867" stroke="#b75867" points="1440.51,-174.82 1449.79,-169.7 1439.35,-167.92 1440.51,-174.82"/>
</g>
<!-- Class of equivalence -->
<g id="node22" class="node">
<title>Class of equivalence</title>
<g id="a_node22"><a xlink:href="../Class of equivalence.html" xlink:title="Class of equivalence" target="_parent">
<path fill="#273434" stroke="#b75867" d="M1299,-192.11C1299,-192.11 1192,-192.11 1192,-192.11 1186,-192.11 1180,-186.11 1180,-180.11 1180,-180.11 1180,-168.11 1180,-168.11 1180,-162.11 1186,-156.11 1192,-156.11 1192,-156.11 1299,-156.11 1299,-156.11 1305,-156.11 1311,-162.11 1311,-168.11 1311,-168.11 1311,-180.11 1311,-180.11 1311,-186.11 1305,-192.11 1299,-192.11"/>
<text text-anchor="middle" x="1245.5" y="-171.01" font-family="sans" font-size="12.00" fill="#c4c7c7">Class of equivalence</text>
</a>
</g>
</g>
<!-- Relation of Equivalence&#45;&gt;Class of equivalence -->
<g id="edge37" class="edge">
<title>Relation of Equivalence&#45;&gt;Class of equivalence</title>
<path fill="none" stroke="#b75867" d="M1139.53,-204.1C1150.01,-201.11 1160.96,-197.98 1171.66,-194.93"/>
<polygon fill="#b75867" stroke="#b75867" points="1172.74,-198.26 1181.39,-192.15 1170.81,-191.53 1172.74,-198.26"/>
</g>
<!-- Partition -->
<g id="node23" class="node">
<title>Partition</title>
<g id="a_node23"><a xlink:href="../Partition.html" xlink:title="Partition" target="_parent">
<path fill="#273434" stroke="#b75867" d="M1266,-271.11C1266,-271.11 1225,-271.11 1225,-271.11 1219,-271.11 1213,-265.11 1213,-259.11 1213,-259.11 1213,-247.11 1213,-247.11 1213,-241.11 1219,-235.11 1225,-235.11 1225,-235.11 1266,-235.11 1266,-235.11 1272,-235.11 1278,-241.11 1278,-247.11 1278,-247.11 1278,-259.11 1278,-259.11 1278,-265.11 1272,-271.11 1266,-271.11"/>
<text text-anchor="middle" x="1245.5" y="-250.01" font-family="sans" font-size="12.00" fill="#c4c7c7">Partition</text>
</a>
</g>
</g>
<!-- Relation of Equivalence&#45;&gt;Partition -->
<g id="edge39" class="edge">
<title>Relation of Equivalence&#45;&gt;Partition</title>
<path fill="none" stroke="#b75867" d="M1150.19,-235.71C1168.12,-239.02 1186.7,-242.45 1202.57,-245.38"/>
<polygon fill="#b75867" stroke="#b75867" points="1202.1,-248.85 1212.57,-247.22 1203.37,-241.97 1202.1,-248.85"/>
</g>
<!-- Principle of division -->
<g id="node24" class="node">
<title>Principle of division</title>
<g id="a_node24"><a xlink:href="../Principle of division.html" xlink:title="Principle of division" target="_parent">
<path fill="none" stroke="#b75867" d="M1296.5,-234.11C1296.5,-234.11 1194.5,-234.11 1194.5,-234.11 1188.5,-234.11 1182.5,-228.11 1182.5,-222.11 1182.5,-222.11 1182.5,-210.11 1182.5,-210.11 1182.5,-204.11 1188.5,-198.11 1194.5,-198.11 1194.5,-198.11 1296.5,-198.11 1296.5,-198.11 1302.5,-198.11 1308.5,-204.11 1308.5,-210.11 1308.5,-210.11 1308.5,-222.11 1308.5,-222.11 1308.5,-228.11 1302.5,-234.11 1296.5,-234.11"/>
<text text-anchor="middle" x="1245.5" y="-213.01" font-family="sans" font-size="12.00" fill="#c4c7c7">Principle of division</text>
</a>
</g>
</g>
<!-- Relation of Equivalence&#45;&gt;Principle of division -->
<g id="edge44" class="edge">
<title>Relation of Equivalence&#45;&gt;Principle of division</title>
<path fill="none" stroke="#ffffff" d="M1160.32,-219.12C1167.76,-218.85 1175.21,-218.59 1182.42,-218.33"/>
<polygon fill="#ffffff" stroke="#ffffff" points="1160.06,-215.63 1150.19,-219.48 1160.31,-222.62 1160.06,-215.63"/>
</g>
<!-- Symmetric Relation&#45;&gt;Relation -->
<g id="edge46" class="edge">
<title>Symmetric Relation&#45;&gt;Relation</title>
<path fill="none" stroke="#b75867" d="M1220.1,-80.93C1206.66,-71.59 1189.25,-60.97 1172,-55.11 1044.49,-11.82 1005.16,-25.11 870.5,-25.11 274,-25.11 274,-25.11 274,-25.11 251.55,-25.11 89.74,-16.35 72,-30.11 54.82,-43.45 42.92,-102.88 37.1,-138.95"/>
<polygon fill="#b75867" stroke="#b75867" points="33.63,-138.46 35.55,-148.88 40.55,-139.53 33.63,-138.46"/>
</g>
<!-- Symmetric Relation&#45;&gt;Symmetric Closure -->
<g id="edge47" class="edge">
<title>Symmetric Relation&#45;&gt;Symmetric Closure</title>
<path fill="none" stroke="#ffffff" d="M1318.44,-114.8C1318.53,-114.82 1318.62,-114.84 1318.72,-114.86"/>
<polygon fill="#ffffff" stroke="#ffffff" points="1320.4,-111.65 1309.88,-112.93 1318.91,-118.48 1320.4,-111.65"/>
</g>
<!-- Symmetric Relation&#45;&gt;Relation of Equivalence -->
<g id="edge48" class="edge">
<title>Symmetric Relation&#45;&gt;Relation of Equivalence</title>
<path fill="none" stroke="#ffffff" d="M1209.91,-123.68C1198.81,-132.94 1187.48,-144.35 1180,-157.11 1171.49,-171.63 1183.4,-181.74 1172,-194.11 1165.89,-200.74 1158.33,-205.87 1150.15,-209.83"/>
<polygon fill="#ffffff" stroke="#ffffff" points="1212.24,-126.3 1217.89,-117.33 1207.88,-120.82 1212.24,-126.3"/>
</g>
<!-- Symmetric Relation&#45;&gt;Relations -->
<g id="edge49" class="edge">
<title>Symmetric Relation&#45;&gt;Relations</title>
<path fill="none" stroke="#ffffff" d="M1171.21,-97.56C1116.14,-96.06 1038.85,-93.98 971,-93.11 880.79,-91.96 858.19,-90.65 768,-93.11 762.92,-93.25 407.64,-111.06 403,-113.11 392.26,-117.87 382.73,-126.74 375.52,-134.92"/>
<polygon fill="#ffffff" stroke="#ffffff" points="1171.14,-101.05 1181.23,-97.83 1171.33,-94.06 1171.14,-101.05"/>
</g>
<!-- Partial function&#45;&gt;Relation -->
<g id="edge50" class="edge">
<title>Partial function&#45;&gt;Relation</title>
<path fill="none" stroke="#b75867" d="M96.26,-133.84C88,-136.54 79.66,-139.62 72,-143.11 71.17,-143.49 70.33,-143.89 69.5,-144.3"/>
<polygon fill="#b75867" stroke="#b75867" points="67.73,-141.27 60.58,-149.09 71.04,-147.44 67.73,-141.27"/>
</g>
<!-- Functions -->
<g id="node25" class="node">
<title>Functions</title>
<g id="a_node25"><a xlink:href="../Functions.html" xlink:title="Functions" target="_parent">
<path fill="none" stroke="#b75867" d="M299,-156.11C299,-156.11 251,-156.11 251,-156.11 245,-156.11 239,-150.11 239,-144.11 239,-144.11 239,-132.11 239,-132.11 239,-126.11 245,-120.11 251,-120.11 251,-120.11 299,-120.11 299,-120.11 305,-120.11 311,-126.11 311,-132.11 311,-132.11 311,-144.11 311,-144.11 311,-150.11 305,-156.11 299,-156.11"/>
<text text-anchor="middle" x="275" y="-135.01" font-family="sans" font-size="12.00" fill="#c4c7c7">Functions</text>
</a>
</g>
</g>
<!-- Partial function&#45;&gt;Functions -->
<g id="edge51" class="edge">
<title>Partial function&#45;&gt;Functions</title>
<path fill="none" stroke="#ffffff" d="M209.77,-128.87C219.76,-130.3 229.81,-131.75 238.89,-133.06"/>
<polygon fill="#ffffff" stroke="#ffffff" points="210.24,-125.4 199.84,-127.44 209.24,-132.33 210.24,-125.4"/>
</g>
<!-- Relations&#45;&gt;Relation -->
<g id="edge70" class="edge">
<title>Relations&#45;&gt;Relation</title>
<path fill="none" stroke="#b75867" d="M339.77,-134.99C333.29,-129.75 325.75,-124.53 318,-121.11 267.88,-99.03 119.94,-79.63 72,-106.11 58.87,-113.37 49.56,-127.09 43.34,-139.7"/>
<polygon fill="#b75867" stroke="#b75867" points="40.07,-138.43 39.17,-148.99 46.46,-141.3 40.07,-138.43"/>
</g>
<!-- Relations&#45;&gt;Anti&#45;symmetric Relation -->
<g id="edge66" class="edge">
<title>Relations&#45;&gt;Anti&#45;symmetric Relation</title>
<path fill="none" stroke="#b75867" d="M325.92,-160.7C301.14,-166.03 266.26,-173.38 234.01,-180.08"/>
<polygon fill="#b75867" stroke="#b75867" points="233.18,-176.68 224.1,-182.14 234.61,-183.53 233.18,-176.68"/>
</g>
<!-- Relations&#45;&gt;Chain -->
<g id="edge52" class="edge">
<title>Relations&#45;&gt;Chain</title>
<path fill="none" stroke="#b75867" d="M373.86,-134.88C381.3,-125.14 391.53,-113.63 403,-106.11 412.61,-99.81 424.17,-95.19 435.01,-91.86"/>
<polygon fill="#b75867" stroke="#b75867" points="436,-95.22 444.69,-89.15 434.12,-88.48 436,-95.22"/>
</g>
<!-- Relations&#45;&gt;Reflexive Closure -->
<g id="edge60" class="edge">
<title>Relations&#45;&gt;Reflexive Closure</title>
<path fill="none" stroke="#b75867" d="M395.25,-161.13C398.55,-161.91 401.98,-162.73 405.46,-163.55"/>
<polygon fill="#b75867" stroke="#b75867" points="404.86,-167.01 415.4,-165.91 406.48,-160.2 404.86,-167.01"/>
</g>
<!-- Relations&#45;&gt;Reflexive Closure -->
<g id="edge63" class="edge">
<title>Relations&#45;&gt;Reflexive Closure</title>
<path fill="none" stroke="#b75867" d="M395.25,-160.43C398.55,-161.2 401.98,-162 405.46,-162.82"/>
<polygon fill="#b75867" stroke="#b75867" points="404.86,-166.27 415.4,-165.16 406.47,-159.46 404.86,-166.27"/>
</g>
<!-- Relations&#45;&gt;Symmetric Closure -->
<g id="edge59" class="edge">
<title>Relations&#45;&gt;Symmetric Closure</title>
<path fill="none" stroke="#b75867" d="M376.71,-134.87C383.9,-127.89 393.09,-120.74 403,-117.11 460.61,-96.06 479.67,-116.17 541,-117.11 641.92,-118.67 667.08,-122.31 768,-124.11 963.57,-127.61 1194.39,-127.63 1308.41,-127.74"/>
<polygon fill="#b75867" stroke="#b75867" points="1308.74,-131.24 1318.74,-127.75 1308.74,-124.24 1308.74,-131.24"/>
</g>
<!-- Relations&#45;&gt;Symmetric Closure -->
<g id="edge61" class="edge">
<title>Relations&#45;&gt;Symmetric Closure</title>
<path fill="none" stroke="#b75867" d="M379.5,-135.08C386.21,-129.16 394.32,-123.28 403,-120.11 460.61,-99.06 479.67,-119.17 541,-120.11 641.92,-121.67 667.08,-125.31 768,-127.11 963.57,-130.61 1194.39,-130.63 1308.41,-129.62"/>
<polygon fill="#b75867" stroke="#b75867" points="1308.77,-133.11 1318.74,-129.52 1308.71,-126.11 1308.77,-133.11"/>
</g>
<!-- Relations&#45;&gt;Relation of Equivalence -->
<g id="edge57" class="edge">
<title>Relations&#45;&gt;Relation of Equivalence</title>
<path fill="none" stroke="#b75867" d="M370.63,-171.35C377.71,-183.41 388.72,-198.37 403,-206.11 438.79,-225.52 727.33,-236.33 768,-238.11 858.14,-242.06 881.04,-245.03 971,-238.11 977.36,-237.63 983.93,-236.97 990.52,-236.2"/>
<polygon fill="#b75867" stroke="#b75867" points="991.39,-239.62 1000.88,-234.91 990.52,-232.67 991.39,-239.62"/>
</g>
<!-- Relations&#45;&gt;Symmetric Relation -->
<g id="edge67" class="edge">
<title>Relations&#45;&gt;Symmetric Relation</title>
<path fill="none" stroke="#b75867" d="M374.78,-134.86C382.07,-126.35 391.89,-117.04 403,-112.11 407.64,-110.06 762.92,-92.25 768,-92.11 858.19,-89.65 880.79,-90.96 971,-92.11 1038.85,-92.98 1116.14,-95.06 1171.21,-96.73"/>
<polygon fill="#b75867" stroke="#b75867" points="1171.13,-100.23 1181.23,-97.04 1171.34,-93.23 1171.13,-100.23"/>
</g>
<!-- Relations&#45;&gt;Linear order -->
<g id="edge54" class="edge">
<title>Relations&#45;&gt;Linear order</title>
<path fill="none" stroke="#b75867" d="M395.2,-154.01C459.71,-155.91 599.33,-160.97 663.9,-172.12"/>
<polygon fill="#b75867" stroke="#b75867" points="663.48,-175.6 673.96,-174.04 664.79,-168.73 663.48,-175.6"/>
</g>
<!-- Relations&#45;&gt;Transitive Relation -->
<g id="edge64" class="edge">
<title>Relations&#45;&gt;Transitive Relation</title>
<path fill="none" stroke="#b75867" d="M373.02,-171.27C380.32,-181.07 390.69,-192.32 403,-198.11 437.78,-214.48 677.26,-220.32 798.5,-222.25"/>
<polygon fill="#b75867" stroke="#b75867" points="798.74,-225.75 808.79,-222.41 798.84,-218.75 798.74,-225.75"/>
</g>
<!-- Relations&#45;&gt;Reflexive Relation -->
<g id="edge69" class="edge">
<title>Relations&#45;&gt;Reflexive Relation</title>
<path fill="none" stroke="#b75867" d="M374.31,-171.2C381.61,-179.89 391.57,-189.42 403,-194.11 426.78,-203.88 489.25,-201.25 538.76,-197.17"/>
<polygon fill="#b75867" stroke="#b75867" points="539.12,-200.65 548.79,-196.31 538.52,-193.67 539.12,-200.65"/>
</g>
<!-- Relations&#45;&gt;Anti&#45;reflexive relation -->
<g id="edge68" class="edge">
<title>Relations&#45;&gt;Anti&#45;reflexive relation</title>
<path fill="none" stroke="#b75867" d="M366.01,-134.77C371.01,-117.77 380.61,-92.51 400.54,-72.19"/>
<polygon fill="#b75867" stroke="#b75867" points="403.09,-74.6 408.03,-65.23 398.33,-69.47 403.09,-74.6"/>
</g>
<!-- Relations&#45;&gt;Strongly Anti&#45;symmetric Relation -->
<g id="edge65" class="edge">
<title>Relations&#45;&gt;Strongly Anti&#45;symmetric Relation</title>
<path fill="none" stroke="#b75867" d="M376.08,-134.78C383.28,-127.19 392.64,-119.2 403,-115.11 435,-102.48 630.35,-104.44 757.6,-107.17"/>
<polygon fill="#b75867" stroke="#b75867" points="757.71,-110.67 767.79,-107.39 757.87,-103.67 757.71,-110.67"/>
</g>
<!-- Relations&#45;&gt;Partial order -->
<g id="edge55" class="edge">
<title>Relations&#45;&gt;Partial order</title>
<path fill="none" stroke="#b75867" d="M331.51,-171.27C328.7,-172.95 325.84,-174.63 321.73,-176.97"/>
<polygon fill="#b75867" stroke="#b75867" points="319.72,-174.09 312.72,-182.04 323.15,-180.19 319.72,-174.09"/>
</g>
<!-- Relations&#45;&gt;Class of equivalence -->
<g id="edge56" class="edge">
<title>Relations&#45;&gt;Class of equivalence</title>
<path fill="none" stroke="#b75867" d="M395.03,-152.48C525.25,-150.17 998.26,-143.04 1169.65,-159.06"/>
<polygon fill="#b75867" stroke="#b75867" points="1169.48,-162.55 1179.78,-160.07 1170.17,-155.59 1169.48,-162.55"/>
</g>
<!-- Linear extension -->
<g id="node26" class="node">
<title>Linear extension</title>
<g id="a_node26"><a xlink:href="../Linear extension.html" xlink:title="Linear extension" target="_parent">
<path fill="#273434" stroke="#b75867" d="M912.5,-204.11C912.5,-204.11 826.5,-204.11 826.5,-204.11 820.5,-204.11 814.5,-198.11 814.5,-192.11 814.5,-192.11 814.5,-180.11 814.5,-180.11 814.5,-174.11 820.5,-168.11 826.5,-168.11 826.5,-168.11 912.5,-168.11 912.5,-168.11 918.5,-168.11 924.5,-174.11 924.5,-180.11 924.5,-180.11 924.5,-192.11 924.5,-192.11 924.5,-198.11 918.5,-204.11 912.5,-204.11"/>
<text text-anchor="middle" x="869.5" y="-183.01" font-family="sans" font-size="12.00" fill="#c4c7c7">Linear extension</text>
</a>
</g>
</g>
<!-- Relations&#45;&gt;Linear extension -->
<g id="edge53" class="edge">
<title>Relations&#45;&gt;Linear extension</title>
<path fill="none" stroke="#b75867" d="M395.34,-153.01C451.6,-153.05 567.89,-154.1 666,-161.11 707.96,-164.11 718.25,-166.98 760,-172.11 774.4,-173.89 789.86,-175.85 804.47,-177.72"/>
<polygon fill="#b75867" stroke="#b75867" points="804.07,-181.2 814.43,-179.01 804.96,-174.26 804.07,-181.2"/>
</g>
<!-- Transitive Closure -->
<g id="node27" class="node">
<title>Transitive Closure</title>
<g id="a_node27"><a xlink:href="../Transitive Closure.html" xlink:title="Transitive Closure" target="_parent">
<path fill="#273434" stroke="#b75867" d="M1121.5,-91.11C1121.5,-91.11 1029.5,-91.11 1029.5,-91.11 1023.5,-91.11 1017.5,-85.11 1017.5,-79.11 1017.5,-79.11 1017.5,-67.11 1017.5,-67.11 1017.5,-61.11 1023.5,-55.11 1029.5,-55.11 1029.5,-55.11 1121.5,-55.11 1121.5,-55.11 1127.5,-55.11 1133.5,-61.11 1133.5,-67.11 1133.5,-67.11 1133.5,-79.11 1133.5,-79.11 1133.5,-85.11 1127.5,-91.11 1121.5,-91.11"/>
<text text-anchor="middle" x="1075.5" y="-70.01" font-family="sans" font-size="12.00" fill="#c4c7c7">Transitive Closure</text>
</a>
</g>
</g>
<!-- Relations&#45;&gt;Transitive Closure -->
<g id="edge58" class="edge">
<title>Relations&#45;&gt;Transitive Closure</title>
<path fill="none" stroke="#b75867" d="M373.47,-134.95C380.78,-125.48 391.02,-114.73 403,-109.11 409.83,-105.91 666.47,-92.53 674,-92.11 791.07,-85.67 927.47,-79.48 1007.08,-76"/>
<polygon fill="#b75867" stroke="#b75867" points="1007.61,-79.48 1017.45,-75.55 1007.31,-72.49 1007.61,-79.48"/>
</g>
<!-- Relations&#45;&gt;Transitive Closure -->
<g id="edge62" class="edge">
<title>Relations&#45;&gt;Transitive Closure</title>
<path fill="none" stroke="#b75867" d="M374.17,-134.93C381.43,-125.8 391.4,-115.56 403,-110.11 409.83,-106.91 666.47,-93.53 674,-93.11 791.07,-86.67 927.47,-80.48 1007.08,-76.71"/>
<polygon fill="#b75867" stroke="#b75867" points="1007.63,-80.19 1017.45,-76.22 1007.29,-73.2 1007.63,-80.19"/>
</g>
<!-- Discrete Structures -->
<g id="node28" class="node">
<title>Discrete Structures</title>
<g id="a_node28"><a xlink:href="../Discrete Structures.html" xlink:title="Discrete Structures" target="_parent">
<path fill="none" stroke="#b75867" d="M521,-151.11C521,-151.11 423,-151.11 423,-151.11 417,-151.11 411,-145.11 411,-139.11 411,-139.11 411,-127.11 411,-127.11 411,-121.11 417,-115.11 423,-115.11 423,-115.11 521,-115.11 521,-115.11 527,-115.11 533,-121.11 533,-127.11 533,-127.11 533,-139.11 533,-139.11 533,-145.11 527,-151.11 521,-151.11"/>
<text text-anchor="middle" x="472" y="-130.01" font-family="sans" font-size="12.00" fill="#c4c7c7">Discrete Structures</text>
</a>
</g>
</g>
<!-- Relations&#45;&gt;Discrete Structures -->
<g id="edge71" class="edge">
<title>Relations&#45;&gt;Discrete Structures</title>
<path fill="none" stroke="#ffffff" d="M405.44,-145.09C407.27,-144.75 409.11,-144.42 410.95,-144.08"/>
<polygon fill="#ffffff" stroke="#ffffff" points="404.46,-141.71 395.25,-146.95 405.71,-148.6 404.46,-141.71"/>
</g>
<!-- Linear order&#45;&gt;Relation -->
<g id="edge76" class="edge">
<title>Linear order&#45;&gt;Relation</title>
<path fill="none" stroke="#b75867" d="M679.63,-208.13C675.12,-209.73 670.5,-211.11 666,-212.11 632.95,-219.45 395.36,-224.11 361.5,-224.11 274,-224.11 274,-224.11 274,-224.11 251.55,-224.11 92,-229.31 72,-219.11 61.28,-213.65 52.67,-203.73 46.29,-194"/>
<polygon fill="#b75867" stroke="#b75867" points="49.2,-192.04 41.06,-185.26 43.19,-195.63 49.2,-192.04"/>
</g>
<!-- Linear order&#45;&gt;Relations -->
<g id="edge78" class="edge">
<title>Linear order&#45;&gt;Relations</title>
<path fill="none" stroke="#ffffff" d="M663.9,-173.12C599.33,-161.97 459.71,-156.89 395.2,-154.56"/>
<polygon fill="#ffffff" stroke="#ffffff" points="663.48,-176.6 673.96,-175.04 664.79,-169.73 663.48,-176.6"/>
</g>
<!-- Linear order&#45;&gt;Transitive Relation -->
<g id="edge73" class="edge">
<title>Linear order&#45;&gt;Transitive Relation</title>
<path fill="none" stroke="#b75867" d="M760.01,-199.36C762.71,-199.95 765.4,-200.54 768,-201.11 778.05,-203.32 788.66,-205.65 799.08,-207.93"/>
<polygon fill="#b75867" stroke="#b75867" points="798.46,-211.38 808.98,-210.1 799.96,-204.54 798.46,-211.38"/>
</g>
<!-- Linear order&#45;&gt;Reflexive Relation -->
<g id="edge75" class="edge">
<title>Linear order&#45;&gt;Reflexive Relation</title>
<path fill="none" stroke="#b75867" d="M673.75,-190.85C673.59,-190.85 673.44,-190.85 673.28,-190.85"/>
<polygon fill="#b75867" stroke="#b75867" points="676.02,-187.35 666.03,-190.86 676.03,-194.35 676.02,-187.35"/>
</g>
<!-- Linear order&#45;&gt;Strongly Anti&#45;symmetric Relation -->
<g id="edge74" class="edge">
<title>Linear order&#45;&gt;Strongly Anti&#45;symmetric Relation</title>
<path fill="none" stroke="#b75867" d="M752.15,-171.96C773.89,-160.4 802.24,-145.33 825.51,-132.96"/>
<polygon fill="#b75867" stroke="#b75867" points="827.3,-135.98 834.48,-128.2 824.01,-129.8 827.3,-135.98"/>
</g>
<!-- Linear order&#45;&gt;Partial order -->
<g id="edge72" class="edge">
<title>Linear order&#45;&gt;Partial order</title>
<path fill="none" stroke="#b75867" d="M674,-207.39C671.32,-208.07 668.64,-208.65 666,-209.11 594.4,-221.61 415.78,-209.78 327.99,-205.17"/>
<polygon fill="#b75867" stroke="#b75867" points="328.17,-201.68 318,-204.66 327.81,-208.67 328.17,-201.68"/>
</g>
<!-- Linear order&#45;&gt;Linear extension -->
<g id="edge77" class="edge">
<title>Linear order&#45;&gt;Linear extension</title>
<path fill="none" stroke="#ffffff" d="M770.43,-188.72C784.65,-188.34 800.08,-187.93 814.39,-187.55"/>
<polygon fill="#ffffff" stroke="#ffffff" points="770.23,-185.22 760.32,-188.99 770.41,-192.22 770.23,-185.22"/>
</g>
<!-- Total function&#45;&gt;Relation -->
<g id="edge79" class="edge">
<title>Total function&#45;&gt;Relation</title>
<path fill="none" stroke="#b75867" d="M100.49,-161.93C91.79,-162.71 82.76,-163.5 74.24,-164.22"/>
<polygon fill="#b75867" stroke="#b75867" points="73.83,-160.74 64.15,-165.06 74.41,-167.72 73.83,-160.74"/>
</g>
<!-- Total function&#45;&gt;Functions -->
<g id="edge80" class="edge">
<title>Total function&#45;&gt;Functions</title>
<path fill="none" stroke="#ffffff" d="M205.75,-148.49C216.99,-146.78 228.48,-145.03 238.75,-143.47"/>
<polygon fill="#ffffff" stroke="#ffffff" points="204.91,-145.08 195.55,-150.04 205.96,-152 204.91,-145.08"/>
</g>
<!-- Transitive Relation&#45;&gt;Relation -->
<g id="edge81" class="edge">
<title>Transitive Relation&#45;&gt;Relation</title>
<path fill="none" stroke="#b75867" d="M808.87,-226.06C756.18,-227.99 677.24,-230.11 608.5,-230.11 274,-230.11 274,-230.11 274,-230.11 184.17,-230.11 151.08,-265.73 72,-223.11 60.25,-216.78 51.22,-205.17 44.83,-194.16"/>
<polygon fill="#b75867" stroke="#b75867" points="47.85,-192.38 40.08,-185.18 41.66,-195.65 47.85,-192.38"/>
</g>
<!-- Transitive Relation&#45;&gt;Relation of Equivalence -->
<g id="edge82" class="edge">
<title>Transitive Relation&#45;&gt;Relation of Equivalence</title>
<path fill="none" stroke="#ffffff" d="M940.1,-222.77C959.64,-222.68 980.96,-222.57 1000.74,-222.48"/>
<polygon fill="#ffffff" stroke="#ffffff" points="940.04,-219.27 930.05,-222.82 940.07,-226.27 940.04,-219.27"/>
</g>
<!-- Transitive Relation&#45;&gt;Relations -->
<g id="edge84" class="edge">
<title>Transitive Relation&#45;&gt;Relations</title>
<path fill="none" stroke="#ffffff" d="M798.5,-222.84C677.26,-221.32 437.78,-215.48 403,-199.11 390.31,-193.14 379.67,-181.36 372.34,-171.22"/>
<polygon fill="#ffffff" stroke="#ffffff" points="798.75,-226.34 808.79,-222.96 798.83,-219.34 798.75,-226.34"/>
</g>
<!-- Transitive Relation&#45;&gt;Linear order -->
<g id="edge85" class="edge">
<title>Transitive Relation&#45;&gt;Linear order</title>
<path fill="none" stroke="#ffffff" d="M799.08,-208.92C788.66,-206.65 778.05,-204.32 768,-202.11 765.4,-201.54 762.71,-200.95 760.01,-200.36"/>
<polygon fill="#ffffff" stroke="#ffffff" points="798.46,-212.36 808.98,-211.07 799.95,-205.52 798.46,-212.36"/>
</g>
<!-- Transitive Relation&#45;&gt;Partial order -->
<g id="edge87" class="edge">
<title>Transitive Relation&#45;&gt;Partial order</title>
<path fill="none" stroke="#ffffff" d="M798.74,-223.99C707.66,-224.23 543.31,-223.02 403,-216.11 368.72,-214.43 360.05,-214.49 326,-210.11 323.46,-209.79 320.86,-209.42 318.24,-209.02"/>
<polygon fill="#ffffff" stroke="#ffffff" points="798.95,-227.49 808.94,-223.96 798.93,-220.49 798.95,-227.49"/>
</g>
<!-- Transitive Relation&#45;&gt;Partial orders have no contours -->
<g id="edge86" class="edge">
<title>Transitive Relation&#45;&gt;Partial orders have no contours</title>
<path fill="none" stroke="#ffffff" d="M940,-208.28C950.41,-205.95 961,-203.51 971,-201.11 982.65,-198.32 995,-195.22 1006.95,-192.15"/>
<polygon fill="#ffffff" stroke="#ffffff" points="939.11,-204.89 930.11,-210.47 940.63,-211.72 939.11,-204.89"/>
</g>
<!-- Transitive Relation&#45;&gt;Transitive Closure -->
<g id="edge83" class="edge">
<title>Transitive Relation&#45;&gt;Transitive Closure</title>
<path fill="none" stroke="#ffffff" d="M940.09,-219.05C951.68,-215.46 962.64,-209.82 971,-201.11 985.08,-186.47 968.98,-173.79 979,-156.11 994.49,-128.79 1022.47,-106.09 1044.16,-91.38"/>
<polygon fill="#ffffff" stroke="#ffffff" points="939.05,-215.7 930.25,-221.6 940.81,-222.48 939.05,-215.7"/>
</g>
<!-- Reflexive Relation&#45;&gt;Relation -->
<g id="edge88" class="edge">
<title>Reflexive Relation&#45;&gt;Relation</title>
<path fill="none" stroke="#b75867" d="M548.7,-202.1C546.1,-202.47 543.53,-202.81 541,-203.11 489.24,-209.34 119.07,-238.52 72,-216.11 62.11,-211.41 53.91,-202.83 47.62,-194.15"/>
<polygon fill="#b75867" stroke="#b75867" points="50.4,-192.01 41.98,-185.58 44.56,-195.86 50.4,-192.01"/>
</g>
<!-- Reflexive Relation&#45;&gt;Reflexive Closure -->
<g id="edge89" class="edge">
<title>Reflexive Relation&#45;&gt;Reflexive Closure</title>
<path fill="none" stroke="#ffffff" d="M538.47,-185.26C535.24,-184.99 532.03,-184.72 528.84,-184.46"/>
<polygon fill="#ffffff" stroke="#ffffff" points="538.48,-188.77 548.73,-186.1 539.05,-181.79 538.48,-188.77"/>
</g>
<!-- Reflexive Relation&#45;&gt;Relation of Equivalence -->
<g id="edge90" class="edge">
<title>Reflexive Relation&#45;&gt;Relation of Equivalence</title>
<path fill="none" stroke="#ffffff" d="M676.42,-172.08C754.74,-162.94 952.23,-157.97 971,-171.11 979.52,-177.08 971.45,-185.96 979,-193.11 985.29,-199.07 992.76,-203.81 1000.72,-207.58"/>
<polygon fill="#ffffff" stroke="#ffffff" points="675.66,-168.65 666.19,-173.39 676.56,-175.59 675.66,-168.65"/>
</g>
<!-- Reflexive Relation&#45;&gt;Relations -->
<g id="edge91" class="edge">
<title>Reflexive Relation&#45;&gt;Relations</title>
<path fill="none" stroke="#ffffff" d="M538.76,-197.98C489.25,-202.25 426.78,-204.88 403,-195.11 391.2,-190.27 380.96,-180.26 373.6,-171.23"/>
<polygon fill="#ffffff" stroke="#ffffff" points="539.14,-201.46 548.79,-197.08 538.51,-194.49 539.14,-201.46"/>
</g>
<!-- Reflexive Relation&#45;&gt;Linear order -->
<g id="edge92" class="edge">
<title>Reflexive Relation&#45;&gt;Linear order</title>
<path fill="none" stroke="#ffffff" d="M673.28,-190.11C673.44,-190.11 673.59,-190.11 673.75,-190.11"/>
<polygon fill="#ffffff" stroke="#ffffff" points="676.03,-186.61 666.03,-190.11 676.03,-193.61 676.03,-186.61"/>
</g>
<!-- Reflexive Relation&#45;&gt;Partial order -->
<g id="edge94" class="edge">
<title>Reflexive Relation&#45;&gt;Partial order</title>
<path fill="none" stroke="#ffffff" d="M538.58,-201.16C455.44,-206.91 368.62,-204.98 318.3,-202.79"/>
<polygon fill="#ffffff" stroke="#ffffff" points="538.97,-204.64 548.69,-200.42 538.46,-197.66 538.97,-204.64"/>
</g>
<!-- Reflexive Relation&#45;&gt;Partial orders have no contours -->
<g id="edge93" class="edge">
<title>Reflexive Relation&#45;&gt;Partial orders have no contours</title>
<path fill="none" stroke="#ffffff" d="M666.31,-169.6C668.89,-169.03 671.46,-168.53 674,-168.11 739.14,-157.47 905.03,-166.2 971,-168.11 973.61,-168.19 976.25,-168.28 978.92,-168.37"/>
<polygon fill="#ffffff" stroke="#ffffff" points="665.2,-166.27 656.34,-172.08 666.89,-173.06 665.2,-166.27"/>
</g>
<!-- Anti&#45;reflexive relation&#45;&gt;Relation -->
<g id="edge95" class="edge">
<title>Anti&#45;reflexive relation&#45;&gt;Relation</title>
<path fill="none" stroke="#b75867" d="M402.72,-43.78C302.87,-39.71 123.29,-37.39 72,-74.11 51.01,-89.14 41.28,-117.63 36.79,-139.14"/>
<polygon fill="#b75867" stroke="#b75867" points="33.33,-138.58 34.98,-149.04 40.22,-139.83 33.33,-138.58"/>
</g>
<!-- Anti&#45;reflexive relation&#45;&gt;Relations -->
<g id="edge96" class="edge">
<title>Anti&#45;reflexive relation&#45;&gt;Relations</title>
<path fill="none" stroke="#ffffff" d="M402.01,-72.09C380.94,-92.98 371.3,-117.95 366.22,-134.82"/>
<polygon fill="#ffffff" stroke="#ffffff" points="404.56,-74.5 409.6,-65.18 399.85,-69.32 404.56,-74.5"/>
</g>
<!-- Strongly Anti&#45;symmetric Relation&#45;&gt;Relation -->
<g id="edge97" class="edge">
<title>Strongly Anti&#45;symmetric Relation&#45;&gt;Relation</title>
<path fill="none" stroke="#b75867" d="M810.98,-91.98C770.73,-79.41 715.52,-63.04 666,-52.11 533.44,-22.86 497.25,-28.11 361.5,-28.11 274,-28.11 274,-28.11 274,-28.11 228.97,-28.11 107.22,-16.06 72,-44.11 43.51,-66.8 35.44,-110.16 33.37,-138.87"/>
<polygon fill="#b75867" stroke="#b75867" points="29.86,-138.91 32.84,-149.08 36.85,-139.27 29.86,-138.91"/>
</g>
<!-- Strongly Anti&#45;symmetric Relation&#45;&gt;Relations -->
<g id="edge98" class="edge">
<title>Strongly Anti&#45;symmetric Relation&#45;&gt;Relations</title>
<path fill="none" stroke="#ffffff" d="M757.6,-107.88C630.35,-105.44 435,-103.48 403,-116.11 393.01,-120.06 383.94,-127.63 376.85,-134.9"/>
<polygon fill="#ffffff" stroke="#ffffff" points="757.72,-111.38 767.79,-108.07 757.86,-104.38 757.72,-111.38"/>
</g>
<!-- Strongly Anti&#45;symmetric Relation&#45;&gt;Linear order -->
<g id="edge99" class="edge">
<title>Strongly Anti&#45;symmetric Relation&#45;&gt;Linear order</title>
<path fill="none" stroke="#ffffff" d="M826.86,-132.93C803.74,-145.32 775.3,-160.43 753.29,-172"/>
<polygon fill="#ffffff" stroke="#ffffff" points="828.6,-135.97 835.75,-128.15 825.29,-129.8 828.6,-135.97"/>
</g>
<!-- Partial order&#45;&gt;Relation -->
<g id="edge103" class="edge">
<title>Partial order&#45;&gt;Relation</title>
<path fill="none" stroke="#b75867" d="M231.84,-211.97C229.2,-212.42 226.57,-212.81 224,-213.11 190.46,-217.08 102.73,-227.14 72,-213.11 62.88,-208.95 55.08,-201.49 48.9,-193.77"/>
<polygon fill="#b75867" stroke="#b75867" points="51.56,-191.47 42.85,-185.43 45.89,-195.58 51.56,-191.47"/>
</g>
<!-- Partial order&#45;&gt;Anti&#45;symmetric Relation -->
<g id="edge101" class="edge">
<title>Partial order&#45;&gt;Anti&#45;symmetric Relation</title>
<path fill="none" stroke="#b75867" d="M231.88,-199.82C231.73,-199.81 231.57,-199.81 231.41,-199.81"/>
<polygon fill="#b75867" stroke="#b75867" points="234.31,-196.37 224.24,-199.66 234.16,-203.37 234.31,-196.37"/>
</g>
<!-- Partial order&#45;&gt;Relations -->
<g id="edge105" class="edge">
<title>Partial order&#45;&gt;Relations</title>
<path fill="none" stroke="#ffffff" d="M319.65,-177.14C324.41,-174.46 327.07,-172.91 329.7,-171.35"/>
<polygon fill="#ffffff" stroke="#ffffff" points="317.94,-174.09 310.92,-182.03 321.36,-180.2 317.94,-174.09"/>
</g>
<!-- Partial order&#45;&gt;Linear order -->
<g id="edge106" class="edge">
<title>Partial order&#45;&gt;Linear order</title>
<path fill="none" stroke="#ffffff" d="M327.99,-204.18C415.78,-208.78 594.4,-220.61 666,-208.11 668.64,-207.65 671.32,-207.07 674,-206.39"/>
<polygon fill="#ffffff" stroke="#ffffff" points="328.17,-200.68 318,-203.66 327.81,-207.67 328.17,-200.68"/>
</g>
<!-- Partial order&#45;&gt;Transitive Relation -->
<g id="edge100" class="edge">
<title>Partial order&#45;&gt;Transitive Relation</title>
<path fill="none" stroke="#b75867" d="M318.24,-208.02C320.86,-208.42 323.46,-208.79 326,-209.11 360.05,-213.49 368.72,-213.43 403,-215.11 543.31,-222.02 707.66,-223.23 798.74,-223.3"/>
<polygon fill="#b75867" stroke="#b75867" points="798.94,-226.8 808.94,-223.31 798.94,-219.8 798.94,-226.8"/>
</g>
<!-- Partial order&#45;&gt;Reflexive Relation -->
<g id="edge102" class="edge">
<title>Partial order&#45;&gt;Reflexive Relation</title>
<path fill="none" stroke="#b75867" d="M318.3,-202.08C368.62,-203.99 455.44,-205.91 538.58,-200.16"/>
<polygon fill="#b75867" stroke="#b75867" points="538.97,-203.64 548.69,-199.43 538.46,-196.66 538.97,-203.64"/>
</g>
<!-- Partial order&#45;&gt;Partial orders have no contours -->
<g id="edge107" class="edge">
<title>Partial order&#45;&gt;Partial orders have no contours</title>
<path fill="none" stroke="#ffffff" d="M328.49,-202.76C400.89,-205.92 524.4,-209.38 541,-197.11 550.38,-190.18 539.77,-179.25 549,-172.11 562.1,-161.98 873.88,-160.9 971,-165.11 973.61,-165.23 976.26,-165.36 978.93,-165.5"/>
<polygon fill="#ffffff" stroke="#ffffff" points="328.34,-199.25 318.2,-202.3 328.03,-206.24 328.34,-199.25"/>
</g>
<!-- Partial order&#45;&gt;Linear extension -->
<g id="edge104" class="edge">
<title>Partial order&#45;&gt;Linear extension</title>
<path fill="none" stroke="#ffffff" d="M328.36,-206.29C361.81,-209.4 371.67,-210.1 403,-211.11 561.59,-216.26 602.38,-227.33 760,-209.11 777.88,-207.05 797.18,-203.42 814.47,-199.65"/>
<polygon fill="#ffffff" stroke="#ffffff" points="328.55,-202.79 318.27,-205.35 327.9,-209.76 328.55,-202.79"/>
</g>
</g>
</svg>
