<?xml version="1.0" encoding="UTF-8" standalone="no"?>
<!DOCTYPE svg PUBLIC "-//W3C//DTD SVG 1.1//EN"
 "http://www.w3.org/Graphics/SVG/1.1/DTD/svg11.dtd">
<!-- Generated by graphviz version 2.46.1 (0)
 -->
<!-- Title: Relation of Equivalence Pages: 1 -->
<svg width="1061pt" height="691pt"
 viewBox="0.00 0.00 1061.00 691.28" xmlns="http://www.w3.org/2000/svg" xmlns:xlink="http://www.w3.org/1999/xlink">
<g id="graph0" class="graph" transform="scale(1 1) rotate(0) translate(4 687.28)">
<title>Relation of Equivalence</title>
<polygon fill="#132020" stroke="transparent" points="-4,4 -4,-687.28 1057,-687.28 1057,4 -4,4"/>
<!-- Relation of Equivalence -->
<g id="node1" class="node">
<title>Relation of Equivalence</title>
<g id="a_node1"><a xlink:href="/Knowledge/relation_of_equivalence.html" xlink:title="Relation of Equivalence" target="_parent">
<path fill="#273434" stroke="#b75867" d="M122,-395.28C122,-395.28 12,-395.28 12,-395.28 6,-395.28 0,-389.28 0,-383.28 0,-383.28 0,-371.28 0,-371.28 0,-365.28 6,-359.28 12,-359.28 12,-359.28 122,-359.28 122,-359.28 128,-359.28 134,-365.28 134,-371.28 134,-371.28 134,-383.28 134,-383.28 134,-389.28 128,-395.28 122,-395.28"/>
<text text-anchor="middle" x="67" y="-374.18" font-family="sans" font-size="12.00" fill="#c4c7c7">Relation of Equivalence</text>
</a>
</g>
</g>
<!-- Class of equivalence -->
<g id="node2" class="node">
<title>Class of equivalence</title>
<g id="a_node2"><a xlink:href="/Knowledge/class_of_equivalence.html" xlink:title="Class of equivalence" target="_parent">
<path fill="#273434" stroke="#b75867" d="M249,-418.28C249,-418.28 154,-418.28 154,-418.28 148,-418.28 142,-412.28 142,-406.28 142,-406.28 142,-394.28 142,-394.28 142,-388.28 148,-382.28 154,-382.28 154,-382.28 249,-382.28 249,-382.28 255,-382.28 261,-388.28 261,-394.28 261,-394.28 261,-406.28 261,-406.28 261,-412.28 255,-418.28 249,-418.28"/>
<text text-anchor="middle" x="201.5" y="-397.18" font-family="sans" font-size="12.00" fill="#c4c7c7">Class of equivalence</text>
</a>
</g>
</g>
<!-- Relation of Equivalence&#45;&gt;Class of equivalence -->
<g id="edge1" class="edge">
<title>Relation of Equivalence&#45;&gt;Class of equivalence</title>
<path fill="none" stroke="#b75867" d="M134.25,-388.78C134.41,-388.8 134.57,-388.83 134.74,-388.86"/>
<polygon fill="#b75867" stroke="#b75867" points="131.55,-391.86 142,-390.12 132.74,-384.96 131.55,-391.86"/>
</g>
<!-- Set -->
<g id="node3" class="node">
<title>Set</title>
<g id="a_node3"><a xlink:href="/Knowledge/set.html" xlink:title="Set" target="_parent">
<path fill="#273434" stroke="#b75867" d="M316,-461.28C316,-461.28 286,-461.28 286,-461.28 280,-461.28 274,-455.28 274,-449.28 274,-449.28 274,-437.28 274,-437.28 274,-431.28 280,-425.28 286,-425.28 286,-425.28 316,-425.28 316,-425.28 322,-425.28 328,-431.28 328,-437.28 328,-437.28 328,-449.28 328,-449.28 328,-455.28 322,-461.28 316,-461.28"/>
<text text-anchor="middle" x="301" y="-440.18" font-family="sans" font-size="12.00" fill="#c4c7c7">Set</text>
</a>
</g>
</g>
<!-- Relation of Equivalence&#45;&gt;Set -->
<g id="edge2" class="edge">
<title>Relation of Equivalence&#45;&gt;Set</title>
<path fill="none" stroke="#b75867" d="M94.28,-395.33C107.94,-403.88 125.25,-413.47 142,-419.28 182.33,-433.25 231.25,-439.09 263.87,-441.54"/>
<polygon fill="#b75867" stroke="#b75867" points="263.64,-445.03 273.86,-442.21 264.12,-438.04 263.64,-445.03"/>
</g>
<!-- Partition -->
<g id="node4" class="node">
<title>Partition</title>
<g id="a_node4"><a xlink:href="/Knowledge/partition.html" xlink:title="Partition" target="_parent">
<path fill="#273434" stroke="#b75867" d="M319,-418.28C319,-418.28 283,-418.28 283,-418.28 277,-418.28 271,-412.28 271,-406.28 271,-406.28 271,-394.28 271,-394.28 271,-388.28 277,-382.28 283,-382.28 283,-382.28 319,-382.28 319,-382.28 325,-382.28 331,-388.28 331,-394.28 331,-394.28 331,-406.28 331,-406.28 331,-412.28 325,-418.28 319,-418.28"/>
<text text-anchor="middle" x="301" y="-397.18" font-family="sans" font-size="12.00" fill="#c4c7c7">Partition</text>
</a>
</g>
</g>
<!-- Relation of Equivalence&#45;&gt;Partition -->
<g id="edge3" class="edge">
<title>Relation of Equivalence&#45;&gt;Partition</title>
<path fill="none" stroke="#b75867" d="M134.38,-377.74C180.45,-378.5 237.6,-380.43 261,-385.28 261.1,-385.3 261.2,-385.32 261.31,-385.34"/>
<polygon fill="#b75867" stroke="#b75867" points="260.36,-388.71 270.92,-387.92 262.17,-381.95 260.36,-388.71"/>
</g>
<!-- Transitive Relation -->
<g id="node5" class="node">
<title>Transitive Relation</title>
<g id="a_node5"><a xlink:href="/Knowledge/transitive_relation.html" xlink:title="Transitive Relation" target="_parent">
<path fill="#273434" stroke="#b75867" d="M481.5,-234.28C481.5,-234.28 395.5,-234.28 395.5,-234.28 389.5,-234.28 383.5,-228.28 383.5,-222.28 383.5,-222.28 383.5,-210.28 383.5,-210.28 383.5,-204.28 389.5,-198.28 395.5,-198.28 395.5,-198.28 481.5,-198.28 481.5,-198.28 487.5,-198.28 493.5,-204.28 493.5,-210.28 493.5,-210.28 493.5,-222.28 493.5,-222.28 493.5,-228.28 487.5,-234.28 481.5,-234.28"/>
<text text-anchor="middle" x="438.5" y="-213.18" font-family="sans" font-size="12.00" fill="#c4c7c7">Transitive Relation</text>
</a>
</g>
</g>
<!-- Relation of Equivalence&#45;&gt;Transitive Relation -->
<g id="edge4" class="edge">
<title>Relation of Equivalence&#45;&gt;Transitive Relation</title>
<path fill="none" stroke="#b75867" d="M71.78,-359.01C79.22,-328.16 98.95,-266.35 142,-238.28 211.02,-193.26 309.36,-195.96 373.3,-204.29"/>
<polygon fill="#b75867" stroke="#b75867" points="372.88,-207.77 383.26,-205.67 373.84,-200.83 372.88,-207.77"/>
</g>
<!-- Symmetric Relation -->
<g id="node6" class="node">
<title>Symmetric Relation</title>
<g id="a_node6"><a xlink:href="/Knowledge/symmetric_relation.html" xlink:title="Symmetric Relation" target="_parent">
<path fill="#273434" stroke="#b75867" d="M826,-396.28C826,-396.28 735,-396.28 735,-396.28 729,-396.28 723,-390.28 723,-384.28 723,-384.28 723,-372.28 723,-372.28 723,-366.28 729,-360.28 735,-360.28 735,-360.28 826,-360.28 826,-360.28 832,-360.28 838,-366.28 838,-372.28 838,-372.28 838,-384.28 838,-384.28 838,-390.28 832,-396.28 826,-396.28"/>
<text text-anchor="middle" x="780.5" y="-375.18" font-family="sans" font-size="12.00" fill="#c4c7c7">Symmetric Relation</text>
</a>
</g>
</g>
<!-- Relation of Equivalence&#45;&gt;Symmetric Relation -->
<g id="edge5" class="edge">
<title>Relation of Equivalence&#45;&gt;Symmetric Relation</title>
<path fill="none" stroke="#b75867" d="M134,-377.28C180.43,-377.28 244.01,-377.28 300,-377.28 300,-377.28 300,-377.28 439.5,-377.28 534.39,-377.28 644.17,-377.67 712.73,-377.96"/>
<polygon fill="#b75867" stroke="#b75867" points="712.94,-381.46 722.95,-378.01 712.97,-374.46 712.94,-381.46"/>
</g>
<!-- Reflexive Relation -->
<g id="node7" class="node">
<title>Reflexive Relation</title>
<g id="a_node7"><a xlink:href="/Knowledge/reflexive_relation.html" xlink:title="Reflexive Relation" target="_parent">
<path fill="#273434" stroke="#b75867" d="M821.5,-82.28C821.5,-82.28 739.5,-82.28 739.5,-82.28 733.5,-82.28 727.5,-76.28 727.5,-70.28 727.5,-70.28 727.5,-58.28 727.5,-58.28 727.5,-52.28 733.5,-46.28 739.5,-46.28 739.5,-46.28 821.5,-46.28 821.5,-46.28 827.5,-46.28 833.5,-52.28 833.5,-58.28 833.5,-58.28 833.5,-70.28 833.5,-70.28 833.5,-76.28 827.5,-82.28 821.5,-82.28"/>
<text text-anchor="middle" x="780.5" y="-61.18" font-family="sans" font-size="12.00" fill="#c4c7c7">Reflexive Relation</text>
</a>
</g>
</g>
<!-- Relation of Equivalence&#45;&gt;Reflexive Relation -->
<g id="edge6" class="edge">
<title>Relation of Equivalence&#45;&gt;Reflexive Relation</title>
<path fill="none" stroke="#b75867" d="M71.05,-359.11C77.79,-324.18 97.08,-247.06 142,-201.28 195.79,-146.45 223.19,-131.28 300,-131.28 300,-131.28 300,-131.28 439.5,-131.28 492.76,-131.28 634.98,-99.23 717.63,-79.46"/>
<polygon fill="#b75867" stroke="#b75867" points="718.5,-82.85 727.41,-77.11 716.87,-76.05 718.5,-82.85"/>
</g>
<!-- Relation -->
<g id="node8" class="node">
<title>Relation</title>
<g id="a_node8"><a xlink:href="/Knowledge/relation.html" xlink:title="Relation" target="_parent">
<path fill="#273434" stroke="#b75867" d="M630.5,-243.28C630.5,-243.28 595.5,-243.28 595.5,-243.28 589.5,-243.28 583.5,-237.28 583.5,-231.28 583.5,-231.28 583.5,-219.28 583.5,-219.28 583.5,-213.28 589.5,-207.28 595.5,-207.28 595.5,-207.28 630.5,-207.28 630.5,-207.28 636.5,-207.28 642.5,-213.28 642.5,-219.28 642.5,-219.28 642.5,-231.28 642.5,-231.28 642.5,-237.28 636.5,-243.28 630.5,-243.28"/>
<text text-anchor="middle" x="613" y="-222.18" font-family="sans" font-size="12.00" fill="#c4c7c7">Relation</text>
</a>
</g>
</g>
<!-- Relation of Equivalence&#45;&gt;Relation -->
<g id="edge7" class="edge">
<title>Relation of Equivalence&#45;&gt;Relation</title>
<path fill="none" stroke="#b75867" d="M84,-359.06C98,-344.12 119.54,-323.37 142,-310.28 296.05,-220.42 358.3,-249.34 536,-234.28 548.08,-233.25 561.21,-231.81 573.1,-230.39"/>
<polygon fill="#b75867" stroke="#b75867" points="573.68,-233.84 583.17,-229.15 572.82,-226.89 573.68,-233.84"/>
</g>
<!-- Principle of division -->
<g id="node9" class="node">
<title>Principle of division</title>
<g id="a_node9"><a xlink:href="/Knowledge/principle_of_division.html" xlink:title="Principle of division" target="_parent">
<path fill="none" stroke="#b75867" d="M484.5,-683.28C484.5,-683.28 392.5,-683.28 392.5,-683.28 386.5,-683.28 380.5,-677.28 380.5,-671.28 380.5,-671.28 380.5,-659.28 380.5,-659.28 380.5,-653.28 386.5,-647.28 392.5,-647.28 392.5,-647.28 484.5,-647.28 484.5,-647.28 490.5,-647.28 496.5,-653.28 496.5,-659.28 496.5,-659.28 496.5,-671.28 496.5,-671.28 496.5,-677.28 490.5,-683.28 484.5,-683.28"/>
<text text-anchor="middle" x="438.5" y="-662.18" font-family="sans" font-size="12.00" fill="#c4c7c7">Principle of division</text>
</a>
</g>
</g>
<!-- Relation of Equivalence&#45;&gt;Principle of division -->
<g id="edge8" class="edge">
<title>Relation of Equivalence&#45;&gt;Principle of division</title>
<path fill="none" stroke="#ffffff" d="M86.88,-403.64C127.07,-457.68 226.79,-581.13 341,-643.28 353,-649.8 366.85,-654.4 380.25,-657.63"/>
<polygon fill="#ffffff" stroke="#ffffff" points="89.7,-401.56 80.95,-395.59 84.06,-405.71 89.7,-401.56"/>
</g>
<!-- Relations -->
<g id="node10" class="node">
<title>Relations</title>
<g id="a_node10"><a xlink:href="/Knowledge/relations.html" xlink:title="Relations" target="_parent">
<path fill="none" stroke="#b75867" d="M321,-311.28C321,-311.28 281,-311.28 281,-311.28 275,-311.28 269,-305.28 269,-299.28 269,-299.28 269,-287.28 269,-287.28 269,-281.28 275,-275.28 281,-275.28 281,-275.28 321,-275.28 321,-275.28 327,-275.28 333,-281.28 333,-287.28 333,-287.28 333,-299.28 333,-299.28 333,-305.28 327,-311.28 321,-311.28"/>
<text text-anchor="middle" x="301" y="-290.18" font-family="sans" font-size="12.00" fill="#c4c7c7">Relations</text>
</a>
</g>
</g>
<!-- Relation of Equivalence&#45;&gt;Relations -->
<g id="edge9" class="edge">
<title>Relation of Equivalence&#45;&gt;Relations</title>
<path fill="none" stroke="#ffffff" d="M127.44,-355.75C172.54,-339.43 232.74,-317.63 268.81,-304.57"/>
<polygon fill="#ffffff" stroke="#ffffff" points="125.98,-352.56 117.77,-359.26 128.36,-359.14 125.98,-352.56"/>
</g>
<!-- Class of equivalence&#45;&gt;Relation of Equivalence -->
<g id="edge12" class="edge">
<title>Class of equivalence&#45;&gt;Relation of Equivalence</title>
<path fill="none" stroke="#b75867" d="M142,-390.87C141.84,-390.84 141.68,-390.81 141.52,-390.78"/>
<polygon fill="#b75867" stroke="#b75867" points="144.7,-387.78 134.25,-389.53 143.51,-394.68 144.7,-387.78"/>
</g>
<!-- Class of equivalence&#45;&gt;Set -->
<g id="edge11" class="edge">
<title>Class of equivalence&#45;&gt;Set</title>
<path fill="none" stroke="#b75867" d="M243.57,-418.39C250.49,-421.44 257.63,-424.59 264.39,-427.57"/>
<polygon fill="#b75867" stroke="#b75867" points="263.42,-430.97 273.98,-431.8 266.25,-424.56 263.42,-430.97"/>
</g>
<!-- Class of equivalence&#45;&gt;Partition -->
<g id="edge10" class="edge">
<title>Class of equivalence&#45;&gt;Partition</title>
<path fill="none" stroke="#b75867" d="M261.19,-400.28C261.29,-400.28 261.39,-400.28 261.49,-400.28"/>
<polygon fill="#b75867" stroke="#b75867" points="260.62,-403.78 270.62,-400.28 260.62,-396.78 260.62,-403.78"/>
</g>
<!-- Class of equivalence&#45;&gt;Principle of division -->
<g id="edge13" class="edge">
<title>Class of equivalence&#45;&gt;Principle of division</title>
<path fill="none" stroke="#ffffff" d="M222,-426.72C250.07,-465.88 301.91,-542.43 333,-614.28 338.31,-626.55 331.34,-634.04 341,-643.28 351.68,-653.49 366.08,-659.32 380.49,-662.56"/>
<polygon fill="#ffffff" stroke="#ffffff" points="224.75,-424.55 216.06,-418.49 219.08,-428.65 224.75,-424.55"/>
</g>
<!-- Class of equivalence&#45;&gt;Relations -->
<g id="edge14" class="edge">
<title>Class of equivalence&#45;&gt;Relations</title>
<path fill="none" stroke="#ffffff" d="M225.98,-374.51C243.71,-355.06 267.59,-328.84 283.38,-311.52"/>
<polygon fill="#ffffff" stroke="#ffffff" points="223.19,-372.38 219.04,-382.12 228.36,-377.09 223.19,-372.38"/>
</g>
<!-- Set&#45;&gt;Relation of Equivalence -->
<g id="edge26" class="edge">
<title>Set&#45;&gt;Relation of Equivalence</title>
<path fill="none" stroke="#ffffff" d="M263.87,-442.32C231.25,-440.09 182.33,-434.25 142,-420.28 124.69,-414.28 106.79,-404.24 92.93,-395.36"/>
<polygon fill="#ffffff" stroke="#ffffff" points="263.67,-445.81 273.86,-442.92 264.09,-438.82 263.67,-445.81"/>
</g>
<!-- Set&#45;&gt;Class of equivalence -->
<g id="edge20" class="edge">
<title>Set&#45;&gt;Class of equivalence</title>
<path fill="none" stroke="#ffffff" d="M264.29,-428.25C257,-425.07 249.29,-421.67 241.88,-418.38"/>
<polygon fill="#ffffff" stroke="#ffffff" points="263.34,-431.66 273.91,-432.44 266.14,-425.24 263.34,-431.66"/>
</g>
<!-- Set&#45;&gt;Principle of division -->
<g id="edge23" class="edge">
<title>Set&#45;&gt;Principle of division</title>
<path fill="none" stroke="#ffffff" d="M310.69,-471.21C317.74,-494.94 327.41,-530.04 333,-561.28 336.23,-579.3 328.9,-629.53 341,-643.28 350.99,-654.62 365.52,-660.77 380.28,-663.95"/>
<polygon fill="#ffffff" stroke="#ffffff" points="313.99,-470.03 307.75,-461.47 307.29,-472.05 313.99,-470.03"/>
</g>
<!-- Principle of partitions -->
<g id="node11" class="node">
<title>Principle of partitions</title>
<g id="a_node11"><a xlink:href="/Knowledge/principle_of_partitions.html" xlink:title="Principle of partitions" target="_parent">
<path fill="none" stroke="#b75867" d="M489.5,-418.28C489.5,-418.28 387.5,-418.28 387.5,-418.28 381.5,-418.28 375.5,-412.28 375.5,-406.28 375.5,-406.28 375.5,-394.28 375.5,-394.28 375.5,-388.28 381.5,-382.28 387.5,-382.28 387.5,-382.28 489.5,-382.28 489.5,-382.28 495.5,-382.28 501.5,-388.28 501.5,-394.28 501.5,-394.28 501.5,-406.28 501.5,-406.28 501.5,-412.28 495.5,-418.28 489.5,-418.28"/>
<text text-anchor="middle" x="438.5" y="-397.18" font-family="sans" font-size="12.00" fill="#c4c7c7">Principle of partitions</text>
</a>
</g>
</g>
<!-- Set&#45;&gt;Principle of partitions -->
<g id="edge15" class="edge">
<title>Set&#45;&gt;Principle of partitions</title>
<path fill="none" stroke="#ffffff" d="M337.85,-423.52C338.91,-423.08 339.96,-422.67 341,-422.28 351.86,-418.2 363.7,-414.74 375.25,-411.86"/>
<polygon fill="#ffffff" stroke="#ffffff" points="336.05,-420.49 328.41,-427.83 338.96,-426.86 336.05,-420.49"/>
</g>
<!-- Principle of inclusion and exclusion -->
<g id="node12" class="node">
<title>Principle of inclusion and exclusion</title>
<g id="a_node12"><a xlink:href="/Knowledge/principle_of_inclusion_and_exclusion.html" xlink:title="Principle of inclusion and exclusion" target="_parent">
<path fill="none" stroke="#b75867" d="M524,-609.28C524,-609.28 353,-609.28 353,-609.28 347,-609.28 341,-603.28 341,-597.28 341,-597.28 341,-585.28 341,-585.28 341,-579.28 347,-573.28 353,-573.28 353,-573.28 524,-573.28 524,-573.28 530,-573.28 536,-579.28 536,-585.28 536,-585.28 536,-597.28 536,-597.28 536,-603.28 530,-609.28 524,-609.28"/>
<text text-anchor="middle" x="438.5" y="-588.18" font-family="sans" font-size="12.00" fill="#c4c7c7">Principle of inclusion and exclusion</text>
</a>
</g>
</g>
<!-- Set&#45;&gt;Principle of inclusion and exclusion -->
<g id="edge16" class="edge">
<title>Set&#45;&gt;Principle of inclusion and exclusion</title>
<path fill="none" stroke="#ffffff" d="M302.94,-471.89C305.47,-500.63 313.89,-544.16 341,-569.28 342.51,-570.68 344.1,-572 345.74,-573.24"/>
<polygon fill="#ffffff" stroke="#ffffff" points="306.41,-471.41 302.23,-461.67 299.43,-471.89 306.41,-471.41"/>
</g>
<!-- Principle of the bijection -->
<g id="node13" class="node">
<title>Principle of the bijection</title>
<g id="a_node13"><a xlink:href="/Knowledge/principle_of_the_bijection.html" xlink:title="Principle of the bijection" target="_parent">
<path fill="none" stroke="#b75867" d="M496.5,-572.28C496.5,-572.28 380.5,-572.28 380.5,-572.28 374.5,-572.28 368.5,-566.28 368.5,-560.28 368.5,-560.28 368.5,-548.28 368.5,-548.28 368.5,-542.28 374.5,-536.28 380.5,-536.28 380.5,-536.28 496.5,-536.28 496.5,-536.28 502.5,-536.28 508.5,-542.28 508.5,-548.28 508.5,-548.28 508.5,-560.28 508.5,-560.28 508.5,-566.28 502.5,-572.28 496.5,-572.28"/>
<text text-anchor="middle" x="438.5" y="-551.18" font-family="sans" font-size="12.00" fill="#c4c7c7">Principle of the bijection</text>
</a>
</g>
</g>
<!-- Set&#45;&gt;Principle of the bijection -->
<g id="edge17" class="edge">
<title>Set&#45;&gt;Principle of the bijection</title>
<path fill="none" stroke="#ffffff" d="M307.31,-471.33C312.53,-491.22 322.51,-516.99 341,-532.28 348.95,-538.85 358.47,-543.54 368.39,-546.89"/>
<polygon fill="#ffffff" stroke="#ffffff" points="310.7,-470.48 304.99,-461.56 303.89,-472.09 310.7,-470.48"/>
</g>
<!-- Principle of products -->
<g id="node14" class="node">
<title>Principle of products</title>
<g id="a_node14"><a xlink:href="/Knowledge/principle_of_products.html" xlink:title="Principle of products" target="_parent">
<path fill="none" stroke="#b75867" d="M487.5,-535.28C487.5,-535.28 389.5,-535.28 389.5,-535.28 383.5,-535.28 377.5,-529.28 377.5,-523.28 377.5,-523.28 377.5,-511.28 377.5,-511.28 377.5,-505.28 383.5,-499.28 389.5,-499.28 389.5,-499.28 487.5,-499.28 487.5,-499.28 493.5,-499.28 499.5,-505.28 499.5,-511.28 499.5,-511.28 499.5,-523.28 499.5,-523.28 499.5,-529.28 493.5,-535.28 487.5,-535.28"/>
<text text-anchor="middle" x="438.5" y="-514.18" font-family="sans" font-size="12.00" fill="#c4c7c7">Principle of products</text>
</a>
</g>
</g>
<!-- Set&#45;&gt;Principle of products -->
<g id="edge18" class="edge">
<title>Set&#45;&gt;Principle of products</title>
<path fill="none" stroke="#ffffff" d="M316.68,-470C323.02,-479.28 331.24,-488.94 341,-495.28 351.88,-502.34 364.74,-507.15 377.46,-510.42"/>
<polygon fill="#ffffff" stroke="#ffffff" points="319.5,-467.9 311.19,-461.33 313.59,-471.65 319.5,-467.9"/>
</g>
<!-- Symmetric Closure -->
<g id="node15" class="node">
<title>Symmetric Closure</title>
<g id="a_node15"><a xlink:href="/Knowledge/symmetric_closure.html" xlink:title="Symmetric Closure" target="_parent">
<path fill="none" stroke="#b75867" d="M1009.5,-419.28C1009.5,-419.28 922.5,-419.28 922.5,-419.28 916.5,-419.28 910.5,-413.28 910.5,-407.28 910.5,-407.28 910.5,-395.28 910.5,-395.28 910.5,-389.28 916.5,-383.28 922.5,-383.28 922.5,-383.28 1009.5,-383.28 1009.5,-383.28 1015.5,-383.28 1021.5,-389.28 1021.5,-395.28 1021.5,-395.28 1021.5,-407.28 1021.5,-407.28 1021.5,-413.28 1015.5,-419.28 1009.5,-419.28"/>
<text text-anchor="middle" x="966" y="-398.18" font-family="sans" font-size="12.00" fill="#c4c7c7">Symmetric Closure</text>
</a>
</g>
</g>
<!-- Set&#45;&gt;Symmetric Closure -->
<g id="edge19" class="edge">
<title>Set&#45;&gt;Symmetric Closure</title>
<path fill="none" stroke="#ffffff" d="M337.78,-429.01C338.86,-428.74 339.93,-428.5 341,-428.28 354.85,-425.39 761.03,-409.26 910.49,-403.4"/>
<polygon fill="#ffffff" stroke="#ffffff" points="336.66,-425.7 328.08,-431.92 338.67,-432.4 336.66,-425.7"/>
</g>
<!-- Reflexive Closure -->
<g id="node16" class="node">
<title>Reflexive Closure</title>
<g id="a_node16"><a xlink:href="/Knowledge/reflexive_closure.html" xlink:title="Reflexive Closure" target="_parent">
<path fill="none" stroke="#b75867" d="M1005,-376.28C1005,-376.28 927,-376.28 927,-376.28 921,-376.28 915,-370.28 915,-364.28 915,-364.28 915,-352.28 915,-352.28 915,-346.28 921,-340.28 927,-340.28 927,-340.28 1005,-340.28 1005,-340.28 1011,-340.28 1017,-346.28 1017,-352.28 1017,-352.28 1017,-364.28 1017,-364.28 1017,-370.28 1011,-376.28 1005,-376.28"/>
<text text-anchor="middle" x="966" y="-355.18" font-family="sans" font-size="12.00" fill="#c4c7c7">Reflexive Closure</text>
</a>
</g>
</g>
<!-- Set&#45;&gt;Reflexive Closure -->
<g id="edge21" class="edge">
<title>Set&#45;&gt;Reflexive Closure</title>
<path fill="none" stroke="#ffffff" d="M337.84,-426.13C338.89,-425.82 339.95,-425.53 341,-425.28 383.13,-414.88 492.78,-419.08 536,-415.28 539.57,-414.96 540.43,-414.62 544,-414.28 608.74,-408.02 625.09,-408.47 690,-404.28 710.11,-402.98 853.11,-402.55 871,-393.28 876.05,-390.66 874.27,-386.44 879,-383.28 889.73,-376.1 902.54,-370.95 914.96,-367.27"/>
<polygon fill="#ffffff" stroke="#ffffff" points="336.62,-422.85 328.37,-429.49 338.96,-429.45 336.62,-422.85"/>
</g>
<!-- Recurrent Equations -->
<g id="node17" class="node">
<title>Recurrent Equations</title>
<g id="a_node17"><a xlink:href="/Knowledge/recurrent_equations.html" xlink:title="Recurrent Equations" target="_parent">
<path fill="none" stroke="#b75867" d="M486,-498.28C486,-498.28 391,-498.28 391,-498.28 385,-498.28 379,-492.28 379,-486.28 379,-486.28 379,-474.28 379,-474.28 379,-468.28 385,-462.28 391,-462.28 391,-462.28 486,-462.28 486,-462.28 492,-462.28 498,-468.28 498,-474.28 498,-474.28 498,-486.28 498,-486.28 498,-492.28 492,-498.28 486,-498.28"/>
<text text-anchor="middle" x="438.5" y="-477.18" font-family="sans" font-size="12.00" fill="#c4c7c7">Recurrent Equations</text>
</a>
</g>
</g>
<!-- Set&#45;&gt;Recurrent Equations -->
<g id="edge22" class="edge">
<title>Set&#45;&gt;Recurrent Equations</title>
<path fill="none" stroke="#ffffff" d="M337.85,-457.28C338.91,-457.63 339.96,-457.96 341,-458.28 353.16,-461.98 366.36,-465.38 378.97,-468.35"/>
<polygon fill="#ffffff" stroke="#ffffff" points="338.85,-453.93 328.26,-453.96 336.56,-460.54 338.85,-453.93"/>
</g>
<!-- Dirichlet principle -->
<g id="node18" class="node">
<title>Dirichlet principle</title>
<g id="a_node18"><a xlink:href="/Knowledge/dirichlet_principle.html" xlink:title="Dirichlet principle" target="_parent">
<path fill="none" stroke="#b75867" d="M480,-461.28C480,-461.28 397,-461.28 397,-461.28 391,-461.28 385,-455.28 385,-449.28 385,-449.28 385,-437.28 385,-437.28 385,-431.28 391,-425.28 397,-425.28 397,-425.28 480,-425.28 480,-425.28 486,-425.28 492,-431.28 492,-437.28 492,-437.28 492,-449.28 492,-449.28 492,-455.28 486,-461.28 480,-461.28"/>
<text text-anchor="middle" x="438.5" y="-440.18" font-family="sans" font-size="12.00" fill="#c4c7c7">Dirichlet principle</text>
</a>
</g>
</g>
<!-- Set&#45;&gt;Dirichlet principle -->
<g id="edge24" class="edge">
<title>Set&#45;&gt;Dirichlet principle</title>
<path fill="none" stroke="#ffffff" d="M338.49,-443.28C352.73,-443.28 369.32,-443.28 384.81,-443.28"/>
<polygon fill="#ffffff" stroke="#ffffff" points="338.13,-439.78 328.13,-443.28 338.13,-446.78 338.13,-439.78"/>
</g>
<!-- Differential Analysis -->
<g id="node19" class="node">
<title>Differential Analysis</title>
<g id="a_node19"><a xlink:href="/Knowledge/differential_analysis.html" xlink:title="Differential Analysis" target="_parent">
<path fill="none" stroke="#b75867" d="M484.5,-646.28C484.5,-646.28 392.5,-646.28 392.5,-646.28 386.5,-646.28 380.5,-640.28 380.5,-634.28 380.5,-634.28 380.5,-622.28 380.5,-622.28 380.5,-616.28 386.5,-610.28 392.5,-610.28 392.5,-610.28 484.5,-610.28 484.5,-610.28 490.5,-610.28 496.5,-616.28 496.5,-622.28 496.5,-622.28 496.5,-634.28 496.5,-634.28 496.5,-640.28 490.5,-646.28 484.5,-646.28"/>
<text text-anchor="middle" x="438.5" y="-625.18" font-family="sans" font-size="12.00" fill="#c4c7c7">Differential Analysis</text>
</a>
</g>
</g>
<!-- Set&#45;&gt;Differential Analysis -->
<g id="edge25" class="edge">
<title>Set&#45;&gt;Differential Analysis</title>
<path fill="none" stroke="#ffffff" d="M310.06,-471.34C316.73,-495.15 326.19,-530.28 333,-561.28 337.36,-581.11 326.99,-591.57 341,-606.28 351.31,-617.1 365.76,-623.11 380.34,-626.32"/>
<polygon fill="#ffffff" stroke="#ffffff" points="313.38,-470.23 307.3,-461.56 306.65,-472.13 313.38,-470.23"/>
</g>
<!-- Partition&#45;&gt;Relation of Equivalence -->
<g id="edge29" class="edge">
<title>Partition&#45;&gt;Relation of Equivalence</title>
<path fill="none" stroke="#ffffff" d="M261.31,-386.34C261.2,-386.32 261.1,-386.3 261,-386.28 237.6,-381.43 180.45,-379.5 134.38,-378.57"/>
<polygon fill="#ffffff" stroke="#ffffff" points="260.36,-389.71 270.92,-388.91 262.17,-382.95 260.36,-389.71"/>
</g>
<!-- Partition&#45;&gt;Class of equivalence -->
<g id="edge28" class="edge">
<title>Partition&#45;&gt;Class of equivalence</title>
<path fill="none" stroke="#ffffff" d="M261.49,-401.01C261.39,-401.01 261.29,-401.01 261.19,-401.01"/>
<polygon fill="#ffffff" stroke="#ffffff" points="260.64,-404.51 270.62,-400.97 260.61,-397.51 260.64,-404.51"/>
</g>
<!-- Partition&#45;&gt;Principle of partitions -->
<g id="edge27" class="edge">
<title>Partition&#45;&gt;Principle of partitions</title>
<path fill="none" stroke="#ffffff" d="M341.29,-400.28C351.95,-400.28 363.75,-400.28 375.34,-400.28"/>
<polygon fill="#ffffff" stroke="#ffffff" points="341.07,-396.78 331.07,-400.28 341.07,-403.78 341.07,-396.78"/>
</g>
<!-- Transitive Relation&#45;&gt;Relation of Equivalence -->
<g id="edge35" class="edge">
<title>Transitive Relation&#45;&gt;Relation of Equivalence</title>
<path fill="none" stroke="#ffffff" d="M373.3,-205.05C309.36,-196.96 211.02,-194.26 142,-239.28 99.18,-267.2 79.43,-328.5 71.9,-359.12"/>
<polygon fill="#ffffff" stroke="#ffffff" points="372.88,-208.52 383.26,-206.39 373.82,-201.59 372.88,-208.52"/>
</g>
<!-- Transitive Relation&#45;&gt;Relation -->
<g id="edge30" class="edge">
<title>Transitive Relation&#45;&gt;Relation</title>
<path fill="none" stroke="#b75867" d="M493.61,-219.1C519.31,-220.44 549.46,-222.01 572.9,-223.24"/>
<polygon fill="#b75867" stroke="#b75867" points="572.99,-226.74 583.16,-223.77 573.36,-219.75 572.99,-226.74"/>
</g>
<!-- Transitive Relation&#45;&gt;Relations -->
<g id="edge34" class="edge">
<title>Transitive Relation&#45;&gt;Relations</title>
<path fill="none" stroke="#ffffff" d="M373.36,-224.97C361.97,-228.23 350.67,-232.81 341,-239.28 327.76,-248.12 317.58,-263.09 310.95,-275.03"/>
<polygon fill="#ffffff" stroke="#ffffff" points="374.53,-228.28 383.36,-222.42 372.81,-221.5 374.53,-228.28"/>
</g>
<!-- Partial order -->
<g id="node20" class="node">
<title>Partial order</title>
<g id="a_node20"><a xlink:href="/Knowledge/partial_order.html" xlink:title="Partial order" target="_parent">
<path fill="none" stroke="#b75867" d="M993.5,-168.28C993.5,-168.28 938.5,-168.28 938.5,-168.28 932.5,-168.28 926.5,-162.28 926.5,-156.28 926.5,-156.28 926.5,-144.28 926.5,-144.28 926.5,-138.28 932.5,-132.28 938.5,-132.28 938.5,-132.28 993.5,-132.28 993.5,-132.28 999.5,-132.28 1005.5,-138.28 1005.5,-144.28 1005.5,-144.28 1005.5,-156.28 1005.5,-156.28 1005.5,-162.28 999.5,-168.28 993.5,-168.28"/>
<text text-anchor="middle" x="966" y="-147.18" font-family="sans" font-size="12.00" fill="#c4c7c7">Partial order</text>
</a>
</g>
</g>
<!-- Transitive Relation&#45;&gt;Partial order -->
<g id="edge31" class="edge">
<title>Transitive Relation&#45;&gt;Partial order</title>
<path fill="none" stroke="#ffffff" d="M465.27,-191.32C507.86,-152.02 597.46,-77.29 690,-49.28 709.25,-43.45 855.42,-36.56 871,-49.28 884.71,-60.46 869.39,-73.42 879,-88.28 891,-106.82 910.64,-121.6 928.13,-132.07"/>
<polygon fill="#ffffff" stroke="#ffffff" points="462.79,-188.84 457.88,-198.23 467.57,-193.96 462.79,-188.84"/>
</g>
<!-- Linear order -->
<g id="node21" class="node">
<title>Linear order</title>
<g id="a_node21"><a xlink:href="/Knowledge/linear_order.html" xlink:title="Linear order" target="_parent">
<path fill="none" stroke="#b75867" d="M993.5,-88.28C993.5,-88.28 938.5,-88.28 938.5,-88.28 932.5,-88.28 926.5,-82.28 926.5,-76.28 926.5,-76.28 926.5,-64.28 926.5,-64.28 926.5,-58.28 932.5,-52.28 938.5,-52.28 938.5,-52.28 993.5,-52.28 993.5,-52.28 999.5,-52.28 1005.5,-58.28 1005.5,-64.28 1005.5,-64.28 1005.5,-76.28 1005.5,-76.28 1005.5,-82.28 999.5,-88.28 993.5,-88.28"/>
<text text-anchor="middle" x="966" y="-67.18" font-family="sans" font-size="12.00" fill="#c4c7c7">Linear order</text>
</a>
</g>
</g>
<!-- Transitive Relation&#45;&gt;Linear order -->
<g id="edge32" class="edge">
<title>Transitive Relation&#45;&gt;Linear order</title>
<path fill="none" stroke="#ffffff" d="M448.32,-188.3C461.99,-150.17 492.27,-83.19 544,-53.28 567.67,-39.59 866.05,-45.65 871,-46.28 871.37,-46.32 900.66,-53.81 926.44,-60.4"/>
<polygon fill="#ffffff" stroke="#ffffff" points="444.84,-187.65 444.9,-198.24 451.46,-189.92 444.84,-187.65"/>
</g>
<!-- Transitive Closure -->
<g id="node22" class="node">
<title>Transitive Closure</title>
<g id="a_node22"><a xlink:href="/Knowledge/transitive_closure.html" xlink:title="Transitive Closure" target="_parent">
<path fill="none" stroke="#b75867" d="M654,-283.28C654,-283.28 572,-283.28 572,-283.28 566,-283.28 560,-277.28 560,-271.28 560,-271.28 560,-259.28 560,-259.28 560,-253.28 566,-247.28 572,-247.28 572,-247.28 654,-247.28 654,-247.28 660,-247.28 666,-253.28 666,-259.28 666,-259.28 666,-271.28 666,-271.28 666,-277.28 660,-283.28 654,-283.28"/>
<text text-anchor="middle" x="613" y="-262.18" font-family="sans" font-size="12.00" fill="#c4c7c7">Transitive Closure</text>
</a>
</g>
</g>
<!-- Transitive Relation&#45;&gt;Transitive Closure -->
<g id="edge33" class="edge">
<title>Transitive Relation&#45;&gt;Transitive Closure</title>
<path fill="none" stroke="#ffffff" d="M503.46,-234.44C522.04,-239.72 542.1,-245.42 559.85,-250.46"/>
<polygon fill="#ffffff" stroke="#ffffff" points="504.18,-231.01 493.61,-231.64 502.27,-237.74 504.18,-231.01"/>
</g>
<!-- Partial orders have no contours -->
<g id="node23" class="node">
<title>Partial orders have no contours</title>
<g id="a_node23"><a xlink:href="/Knowledge/partial_orders_have_no_contours.html" xlink:title="Partial orders have no contours" target="_parent">
<path fill="none" stroke="#b75867" d="M1041,-51.28C1041,-51.28 891,-51.28 891,-51.28 885,-51.28 879,-45.28 879,-39.28 879,-39.28 879,-27.28 879,-27.28 879,-21.28 885,-15.28 891,-15.28 891,-15.28 1041,-15.28 1041,-15.28 1047,-15.28 1053,-21.28 1053,-27.28 1053,-27.28 1053,-39.28 1053,-39.28 1053,-45.28 1047,-51.28 1041,-51.28"/>
<text text-anchor="middle" x="966" y="-30.18" font-family="sans" font-size="12.00" fill="#c4c7c7">Partial orders have no contours</text>
</a>
</g>
</g>
<!-- Transitive Relation&#45;&gt;Partial orders have no contours -->
<g id="edge36" class="edge">
<title>Transitive Relation&#45;&gt;Partial orders have no contours</title>
<path fill="none" stroke="#ffffff" d="M447.27,-188.52C460.07,-148.71 489.73,-76.74 544,-45.28 651.38,16.98 801.46,1.95 890.4,-15.25"/>
<polygon fill="#ffffff" stroke="#ffffff" points="443.91,-187.55 444.31,-198.13 450.6,-189.61 443.91,-187.55"/>
</g>
<!-- Symmetric Relation&#45;&gt;Relation of Equivalence -->
<g id="edge40" class="edge">
<title>Symmetric Relation&#45;&gt;Relation of Equivalence</title>
<path fill="none" stroke="#ffffff" d="M712.73,-378.72C644.17,-378.67 534.39,-378.28 439.5,-378.28 300,-378.28 300,-378.28 300,-378.28 244.01,-378.28 180.43,-378.28 134,-378.12"/>
<polygon fill="#ffffff" stroke="#ffffff" points="712.95,-382.22 722.95,-378.72 712.95,-375.22 712.95,-382.22"/>
</g>
<!-- Symmetric Relation&#45;&gt;Relation -->
<g id="edge37" class="edge">
<title>Symmetric Relation&#45;&gt;Relation</title>
<path fill="none" stroke="#b75867" d="M722.83,-374.33C710.29,-370.59 698.29,-364.38 690,-354.28 675.02,-336.01 696.61,-266.84 682,-248.28 674.76,-239.07 663.62,-233.67 652.44,-230.46"/>
<polygon fill="#b75867" stroke="#b75867" points="653.23,-227.05 642.7,-228.16 651.63,-233.86 653.23,-227.05"/>
</g>
<!-- Symmetric Relation&#45;&gt;Relations -->
<g id="edge39" class="edge">
<title>Symmetric Relation&#45;&gt;Relations</title>
<path fill="none" stroke="#ffffff" d="M712.81,-379.27C593.97,-380.18 356.45,-379.93 341,-370.28 320.38,-357.38 310.17,-329.82 305.5,-311.41"/>
<polygon fill="#ffffff" stroke="#ffffff" points="712.92,-382.77 722.9,-379.19 712.87,-375.77 712.92,-382.77"/>
</g>
<!-- Symmetric Relation&#45;&gt;Symmetric Closure -->
<g id="edge38" class="edge">
<title>Symmetric Relation&#45;&gt;Symmetric Closure</title>
<path fill="none" stroke="#ffffff" d="M848.2,-386.64C868.57,-389.19 890.72,-391.97 910.21,-394.41"/>
<polygon fill="#ffffff" stroke="#ffffff" points="848.41,-383.13 838.05,-385.36 847.54,-390.08 848.41,-383.13"/>
</g>
<!-- Reflexive Relation&#45;&gt;Relation of Equivalence -->
<g id="edge46" class="edge">
<title>Reflexive Relation&#45;&gt;Relation of Equivalence</title>
<path fill="none" stroke="#ffffff" d="M717.63,-80.13C634.98,-100.23 492.76,-132.28 439.5,-132.28 300,-132.28 300,-132.28 300,-132.28 223.19,-132.28 195.79,-147.45 142,-202.28 97.31,-247.82 77.99,-324.39 71.15,-359.14"/>
<polygon fill="#ffffff" stroke="#ffffff" points="718.53,-83.52 727.41,-77.74 716.86,-76.72 718.53,-83.52"/>
</g>
<!-- Reflexive Relation&#45;&gt;Relation -->
<g id="edge41" class="edge">
<title>Reflexive Relation&#45;&gt;Relation</title>
<path fill="none" stroke="#b75867" d="M727.1,-67.08C713.08,-70.26 699.27,-76.25 690,-87.28 673.23,-107.22 698.04,-183.74 682,-204.28 674.87,-213.41 663.89,-218.81 652.81,-221.93"/>
<polygon fill="#b75867" stroke="#b75867" points="651.72,-218.59 642.73,-224.2 653.25,-225.42 651.72,-218.59"/>
</g>
<!-- Reflexive Relation&#45;&gt;Relations -->
<g id="edge45" class="edge">
<title>Reflexive Relation&#45;&gt;Relations</title>
<path fill="none" stroke="#ffffff" d="M717.67,-70.53C707.26,-74.02 697.44,-79.3 690,-87.28 675.84,-102.44 693.96,-116.32 682,-133.28 641.39,-190.85 589.93,-157.85 544,-211.28 537.49,-218.85 544.08,-226.4 536,-232.28 500.91,-257.8 379.3,-221.88 341,-242.28 327.55,-249.44 317.44,-263.5 310.89,-275.06"/>
<polygon fill="#ffffff" stroke="#ffffff" points="718.66,-73.89 727.34,-67.81 716.76,-67.15 718.66,-73.89"/>
</g>
<!-- Reflexive Relation&#45;&gt;Reflexive Closure -->
<g id="edge44" class="edge">
<title>Reflexive Relation&#45;&gt;Reflexive Closure</title>
<path fill="none" stroke="#ffffff" d="M843.48,-68.99C853.97,-72.5 863.78,-77.94 871,-86.28 882.98,-100.12 874.27,-150.59 879,-168.28 896.76,-234.74 935.53,-307.2 954.34,-340.15"/>
<polygon fill="#ffffff" stroke="#ffffff" points="844.27,-65.58 833.7,-66.3 842.41,-72.33 844.27,-65.58"/>
</g>
<!-- Reflexive Relation&#45;&gt;Partial order -->
<g id="edge42" class="edge">
<title>Reflexive Relation&#45;&gt;Partial order</title>
<path fill="none" stroke="#ffffff" d="M843.43,-76.43C852.86,-79.15 862.32,-82.41 871,-86.28 897.69,-98.17 924.93,-117.71 943.18,-132.07"/>
<polygon fill="#ffffff" stroke="#ffffff" points="844.23,-73.02 833.66,-73.78 842.4,-79.77 844.23,-73.02"/>
</g>
<!-- Reflexive Relation&#45;&gt;Linear order -->
<g id="edge43" class="edge">
<title>Reflexive Relation&#45;&gt;Linear order</title>
<path fill="none" stroke="#ffffff" d="M843.88,-66.31C871.27,-67.21 902.57,-68.23 926.49,-69.02"/>
<polygon fill="#ffffff" stroke="#ffffff" points="843.7,-62.81 833.59,-65.98 843.47,-69.8 843.7,-62.81"/>
</g>
<!-- Reflexive Relation&#45;&gt;Partial orders have no contours -->
<g id="edge47" class="edge">
<title>Reflexive Relation&#45;&gt;Partial orders have no contours</title>
<path fill="none" stroke="#ffffff" d="M843.73,-53.76C855,-51.86 866.94,-49.84 878.75,-47.85"/>
<polygon fill="#ffffff" stroke="#ffffff" points="842.87,-50.36 833.59,-55.47 844.04,-57.26 842.87,-50.36"/>
</g>
<!-- Relation&#45;&gt;Relation of Equivalence -->
<g id="edge63" class="edge">
<title>Relation&#45;&gt;Relation of Equivalence</title>
<path fill="none" stroke="#ffffff" d="M573.1,-231.34C561.21,-232.81 548.08,-234.25 536,-235.28 358.3,-250.34 296.05,-221.42 142,-311.28 119.84,-324.2 98.57,-344.57 84.57,-359.27"/>
<polygon fill="#ffffff" stroke="#ffffff" points="573.7,-234.79 583.17,-230.05 572.81,-227.85 573.7,-234.79"/>
</g>
<!-- Relation&#45;&gt;Transitive Relation -->
<g id="edge62" class="edge">
<title>Relation&#45;&gt;Transitive Relation</title>
<path fill="none" stroke="#ffffff" d="M572.9,-223.88C549.46,-222.77 519.31,-221.22 493.61,-219.8"/>
<polygon fill="#ffffff" stroke="#ffffff" points="573.01,-227.38 583.16,-224.35 573.33,-220.39 573.01,-227.38"/>
</g>
<!-- Relation&#45;&gt;Symmetric Relation -->
<g id="edge57" class="edge">
<title>Relation&#45;&gt;Symmetric Relation</title>
<path fill="none" stroke="#ffffff" d="M652.78,-229.6C663.84,-232.78 674.83,-238.17 682,-247.28 696.61,-265.84 675.02,-335.01 690,-353.28 698.29,-363.38 710.29,-369.59 722.83,-373.37"/>
<polygon fill="#ffffff" stroke="#ffffff" points="653.23,-226.11 642.7,-227.27 651.65,-232.93 653.23,-226.11"/>
</g>
<!-- Relation&#45;&gt;Reflexive Relation -->
<g id="edge54" class="edge">
<title>Relation&#45;&gt;Reflexive Relation</title>
<path fill="none" stroke="#ffffff" d="M652.81,-220.98C663.89,-217.81 674.87,-212.41 682,-203.28 698.04,-182.74 673.23,-106.22 690,-86.28 699.27,-75.25 713.08,-69.26 727.1,-66.12"/>
<polygon fill="#ffffff" stroke="#ffffff" points="651.69,-217.65 642.73,-223.31 653.26,-224.47 651.69,-217.65"/>
</g>
<!-- Relation&#45;&gt;Relations -->
<g id="edge61" class="edge">
<title>Relation&#45;&gt;Relations</title>
<path fill="none" stroke="#ffffff" d="M573.15,-233.17C561.26,-235.12 548.13,-237.01 536,-238.28 514.42,-240.53 360.45,-238.66 341,-248.28 329.18,-254.12 319.54,-265.36 312.81,-275.14"/>
<polygon fill="#ffffff" stroke="#ffffff" points="573.95,-236.59 583.22,-231.45 572.78,-229.68 573.95,-236.59"/>
</g>
<!-- Relation&#45;&gt;Symmetric Closure -->
<g id="edge55" class="edge">
<title>Relation&#45;&gt;Symmetric Closure</title>
<path fill="none" stroke="#ffffff" d="M652.7,-215.51C664.59,-212.95 677.76,-210.55 690,-209.28 710,-207.19 856.44,-195.4 871,-209.28 884.45,-222.09 867.49,-361.69 879,-376.28 886.8,-386.16 898.27,-392.3 910.32,-396.06"/>
<polygon fill="#ffffff" stroke="#ffffff" points="651.63,-212.16 642.65,-217.78 653.17,-218.99 651.63,-212.16"/>
</g>
<!-- Relation&#45;&gt;Reflexive Closure -->
<g id="edge58" class="edge">
<title>Relation&#45;&gt;Reflexive Closure</title>
<path fill="none" stroke="#ffffff" d="M652.25,-213.77C664.22,-210.7 677.56,-207.81 690,-206.28 729.92,-201.36 835.87,-186.69 871,-206.28 923.17,-235.35 950.03,-306.65 960.15,-340.23"/>
<polygon fill="#ffffff" stroke="#ffffff" points="651.31,-210.4 642.56,-216.37 653.12,-217.16 651.31,-210.4"/>
</g>
<!-- Relation&#45;&gt;Partial order -->
<g id="edge49" class="edge">
<title>Relation&#45;&gt;Partial order</title>
<path fill="none" stroke="#ffffff" d="M652.2,-212.39C664.17,-208.85 677.52,-205.4 690,-203.28 769.43,-189.77 792.78,-212.59 871,-193.28 892.78,-187.9 915.7,-177.52 933.46,-168.31"/>
<polygon fill="#ffffff" stroke="#ffffff" points="651.05,-209.08 642.51,-215.36 653.1,-215.77 651.05,-209.08"/>
</g>
<!-- Relation&#45;&gt;Linear order -->
<g id="edge51" class="edge">
<title>Relation&#45;&gt;Linear order</title>
<path fill="none" stroke="#ffffff" d="M652.8,-220.97C663.87,-217.8 674.86,-212.4 682,-203.28 697.65,-183.27 671.91,-107.1 690,-89.28 704.35,-75.14 850.92,-80.79 871,-79.28 889.15,-77.91 909.23,-76.03 926.16,-74.35"/>
<polygon fill="#ffffff" stroke="#ffffff" points="651.68,-217.64 642.72,-223.3 653.25,-224.46 651.68,-217.64"/>
</g>
<!-- Descartes Product -->
<g id="node24" class="node">
<title>Descartes Product</title>
<g id="a_node24"><a xlink:href="/Knowledge/descartes_product.html" xlink:title="Descartes Product" target="_parent">
<path fill="#273434" stroke="#b75867" d="M822.5,-159.28C822.5,-159.28 738.5,-159.28 738.5,-159.28 732.5,-159.28 726.5,-153.28 726.5,-147.28 726.5,-147.28 726.5,-135.28 726.5,-135.28 726.5,-129.28 732.5,-123.28 738.5,-123.28 738.5,-123.28 822.5,-123.28 822.5,-123.28 828.5,-123.28 834.5,-129.28 834.5,-135.28 834.5,-135.28 834.5,-147.28 834.5,-147.28 834.5,-153.28 828.5,-159.28 822.5,-159.28"/>
<text text-anchor="middle" x="780.5" y="-138.18" font-family="sans" font-size="12.00" fill="#c4c7c7">Descartes Product</text>
</a>
</g>
</g>
<!-- Relation&#45;&gt;Descartes Product -->
<g id="edge48" class="edge">
<title>Relation&#45;&gt;Descartes Product</title>
<path fill="none" stroke="#b75867" d="M642.8,-222.66C656.54,-219.92 672.1,-214.39 682,-203.28 694.06,-189.74 677.46,-176.37 690,-163.28 697.21,-155.74 706.55,-150.62 716.47,-147.17"/>
<polygon fill="#b75867" stroke="#b75867" points="717.49,-150.51 726.1,-144.34 715.52,-143.8 717.49,-150.51"/>
</g>
<!-- Chain -->
<g id="node25" class="node">
<title>Chain</title>
<g id="a_node25"><a xlink:href="/Knowledge/chain.html" xlink:title="Chain" target="_parent">
<path fill="none" stroke="#b75867" d="M795.5,-353.28C795.5,-353.28 765.5,-353.28 765.5,-353.28 759.5,-353.28 753.5,-347.28 753.5,-341.28 753.5,-341.28 753.5,-329.28 753.5,-329.28 753.5,-323.28 759.5,-317.28 765.5,-317.28 765.5,-317.28 795.5,-317.28 795.5,-317.28 801.5,-317.28 807.5,-323.28 807.5,-329.28 807.5,-329.28 807.5,-341.28 807.5,-341.28 807.5,-347.28 801.5,-353.28 795.5,-353.28"/>
<text text-anchor="middle" x="780.5" y="-332.18" font-family="sans" font-size="12.00" fill="#c4c7c7">Chain</text>
</a>
</g>
</g>
<!-- Relation&#45;&gt;Chain -->
<g id="edge50" class="edge">
<title>Relation&#45;&gt;Chain</title>
<path fill="none" stroke="#ffffff" d="M652.8,-229.88C663.77,-233.07 674.69,-238.4 682,-247.28 700.79,-270.08 670.4,-291.16 690,-313.28 705.6,-330.88 732.8,-335.52 753.13,-336.28"/>
<polygon fill="#ffffff" stroke="#ffffff" points="653.36,-226.42 642.82,-227.51 651.74,-233.23 653.36,-226.42"/>
</g>
<!-- Partial function -->
<g id="node26" class="node">
<title>Partial function</title>
<g id="a_node26"><a xlink:href="/Knowledge/partial_function.html" xlink:title="Partial function" target="_parent">
<path fill="none" stroke="#b75867" d="M815.5,-122.28C815.5,-122.28 745.5,-122.28 745.5,-122.28 739.5,-122.28 733.5,-116.28 733.5,-110.28 733.5,-110.28 733.5,-98.28 733.5,-98.28 733.5,-92.28 739.5,-86.28 745.5,-86.28 745.5,-86.28 815.5,-86.28 815.5,-86.28 821.5,-86.28 827.5,-92.28 827.5,-98.28 827.5,-98.28 827.5,-110.28 827.5,-110.28 827.5,-116.28 821.5,-122.28 815.5,-122.28"/>
<text text-anchor="middle" x="780.5" y="-101.18" font-family="sans" font-size="12.00" fill="#c4c7c7">Partial function</text>
</a>
</g>
</g>
<!-- Relation&#45;&gt;Partial function -->
<g id="edge52" class="edge">
<title>Relation&#45;&gt;Partial function</title>
<path fill="none" stroke="#ffffff" d="M652.62,-220.82C663.68,-217.65 674.71,-212.28 682,-203.28 703.65,-176.54 667.4,-152.22 690,-126.28 700.83,-113.85 717.43,-107.86 733.41,-105.14"/>
<polygon fill="#ffffff" stroke="#ffffff" points="651.5,-217.49 642.56,-223.17 653.09,-224.31 651.5,-217.49"/>
</g>
<!-- Total function -->
<g id="node27" class="node">
<title>Total function</title>
<g id="a_node27"><a xlink:href="/Knowledge/total_function.html" xlink:title="Total function" target="_parent">
<path fill="none" stroke="#b75867" d="M811.5,-196.28C811.5,-196.28 749.5,-196.28 749.5,-196.28 743.5,-196.28 737.5,-190.28 737.5,-184.28 737.5,-184.28 737.5,-172.28 737.5,-172.28 737.5,-166.28 743.5,-160.28 749.5,-160.28 749.5,-160.28 811.5,-160.28 811.5,-160.28 817.5,-160.28 823.5,-166.28 823.5,-172.28 823.5,-172.28 823.5,-184.28 823.5,-184.28 823.5,-190.28 817.5,-196.28 811.5,-196.28"/>
<text text-anchor="middle" x="780.5" y="-175.18" font-family="sans" font-size="12.00" fill="#c4c7c7">Total function</text>
</a>
</g>
</g>
<!-- Relation&#45;&gt;Total function -->
<g id="edge53" class="edge">
<title>Relation&#45;&gt;Total function</title>
<path fill="none" stroke="#ffffff" d="M652.35,-213.21C662.06,-210.06 672.44,-206.61 682,-203.28 685.59,-202.02 686.37,-201.4 690,-200.28 705.29,-195.55 722.29,-191.16 737.33,-187.56"/>
<polygon fill="#ffffff" stroke="#ffffff" points="651,-209.97 642.55,-216.36 653.14,-216.63 651,-209.97"/>
</g>
<!-- Anti&#45;symmetric Relation -->
<g id="node28" class="node">
<title>Anti&#45;symmetric Relation</title>
<g id="a_node28"><a xlink:href="/Knowledge/anti-symmetric_relation.html" xlink:title="Anti&#45;symmetric Relation" target="_parent">
<path fill="none" stroke="#b75867" d="M837,-316.28C837,-316.28 724,-316.28 724,-316.28 718,-316.28 712,-310.28 712,-304.28 712,-304.28 712,-292.28 712,-292.28 712,-286.28 718,-280.28 724,-280.28 724,-280.28 837,-280.28 837,-280.28 843,-280.28 849,-286.28 849,-292.28 849,-292.28 849,-304.28 849,-304.28 849,-310.28 843,-316.28 837,-316.28"/>
<text text-anchor="middle" x="780.5" y="-295.18" font-family="sans" font-size="12.00" fill="#c4c7c7">Anti&#45;symmetric Relation</text>
</a>
</g>
</g>
<!-- Relation&#45;&gt;Anti&#45;symmetric Relation -->
<g id="edge56" class="edge">
<title>Relation&#45;&gt;Anti&#45;symmetric Relation</title>
<path fill="none" stroke="#ffffff" d="M652.56,-230.73C663.32,-233.97 674.18,-239.11 682,-247.28 691.25,-256.93 680.41,-266.95 690,-276.28 696.2,-282.3 703.76,-286.76 711.84,-290.05"/>
<polygon fill="#ffffff" stroke="#ffffff" points="653.36,-227.33 642.81,-228.27 651.65,-234.11 653.36,-227.33"/>
</g>
<!-- Anti&#45;reflexive relation -->
<g id="node29" class="node">
<title>Anti&#45;reflexive relation</title>
<g id="a_node29"><a xlink:href="/Knowledge/anti-reflexive_relation.html" xlink:title="Anti&#45;reflexive relation" target="_parent">
<path fill="none" stroke="#b75867" d="M830.5,-279.28C830.5,-279.28 730.5,-279.28 730.5,-279.28 724.5,-279.28 718.5,-273.28 718.5,-267.28 718.5,-267.28 718.5,-255.28 718.5,-255.28 718.5,-249.28 724.5,-243.28 730.5,-243.28 730.5,-243.28 830.5,-243.28 830.5,-243.28 836.5,-243.28 842.5,-249.28 842.5,-255.28 842.5,-255.28 842.5,-267.28 842.5,-267.28 842.5,-273.28 836.5,-279.28 830.5,-279.28"/>
<text text-anchor="middle" x="780.5" y="-258.18" font-family="sans" font-size="12.00" fill="#c4c7c7">Anti&#45;reflexive relation</text>
</a>
</g>
</g>
<!-- Relation&#45;&gt;Anti&#45;reflexive relation -->
<g id="edge59" class="edge">
<title>Relation&#45;&gt;Anti&#45;reflexive relation</title>
<path fill="none" stroke="#ffffff" d="M652.6,-233.67C672.18,-237.93 696.42,-243.2 718.45,-248"/>
<polygon fill="#ffffff" stroke="#ffffff" points="653.34,-230.25 642.83,-231.55 651.86,-237.09 653.34,-230.25"/>
</g>
<!-- Strongly Anti&#45;symmetric Relation -->
<g id="node30" class="node">
<title>Strongly Anti&#45;symmetric Relation</title>
<g id="a_node30"><a xlink:href="/Knowledge/strongly_anti-symmetric_relation.html" xlink:title="Strongly Anti&#45;symmetric Relation" target="_parent">
<path fill="none" stroke="#b75867" d="M859,-242.28C859,-242.28 702,-242.28 702,-242.28 696,-242.28 690,-236.28 690,-230.28 690,-230.28 690,-218.28 690,-218.28 690,-212.28 696,-206.28 702,-206.28 702,-206.28 859,-206.28 859,-206.28 865,-206.28 871,-212.28 871,-218.28 871,-218.28 871,-230.28 871,-230.28 871,-236.28 865,-242.28 859,-242.28"/>
<text text-anchor="middle" x="780.5" y="-221.18" font-family="sans" font-size="12.00" fill="#c4c7c7">Strongly Anti&#45;symmetric Relation</text>
</a>
</g>
</g>
<!-- Relation&#45;&gt;Strongly Anti&#45;symmetric Relation -->
<g id="edge60" class="edge">
<title>Relation&#45;&gt;Strongly Anti&#45;symmetric Relation</title>
<path fill="none" stroke="#ffffff" d="M653.06,-225.04C664.25,-224.97 676.94,-224.89 689.85,-224.82"/>
<polygon fill="#ffffff" stroke="#ffffff" points="652.81,-221.54 642.83,-225.1 652.85,-228.54 652.81,-221.54"/>
</g>
<!-- Principle of division&#45;&gt;Relation of Equivalence -->
<g id="edge65" class="edge">
<title>Principle of division&#45;&gt;Relation of Equivalence</title>
<path fill="none" stroke="#b75867" d="M380.25,-658.6C366.85,-655.4 353,-650.8 341,-644.28 226.47,-581.96 126.52,-458 86.55,-403.74"/>
<polygon fill="#b75867" stroke="#b75867" points="89.16,-401.37 80.44,-395.35 83.5,-405.49 89.16,-401.37"/>
</g>
<!-- Principle of division&#45;&gt;Class of equivalence -->
<g id="edge64" class="edge">
<title>Principle of division&#45;&gt;Class of equivalence</title>
<path fill="none" stroke="#b75867" d="M380.49,-663.53C366.08,-660.32 351.68,-654.49 341,-644.28 331.34,-635.04 338.31,-627.55 333,-615.28 301.75,-543.06 249.54,-466.09 221.57,-426.76"/>
<polygon fill="#b75867" stroke="#b75867" points="224.32,-424.6 215.66,-418.51 218.63,-428.67 224.32,-424.6"/>
</g>
<!-- Principle of division&#45;&gt;Set -->
<g id="edge66" class="edge">
<title>Principle of division&#45;&gt;Set</title>
<path fill="none" stroke="#b75867" d="M380.28,-664.91C365.52,-661.77 350.99,-655.62 341,-644.28 328.9,-630.53 336.23,-580.3 333,-562.28 327.34,-530.67 317.52,-495.13 310.44,-471.18"/>
<polygon fill="#b75867" stroke="#b75867" points="313.73,-469.94 307.51,-461.36 307.02,-471.94 313.73,-469.94"/>
</g>
<!-- Combinatoric principles -->
<g id="node31" class="node">
<title>Combinatoric principles</title>
<g id="a_node31"><a xlink:href="/Knowledge/combinatoric_principles.html" xlink:title="Combinatoric principles" target="_parent">
<path fill="none" stroke="#b75867" d="M670,-683.28C670,-683.28 556,-683.28 556,-683.28 550,-683.28 544,-677.28 544,-671.28 544,-671.28 544,-659.28 544,-659.28 544,-653.28 550,-647.28 556,-647.28 556,-647.28 670,-647.28 670,-647.28 676,-647.28 682,-653.28 682,-659.28 682,-659.28 682,-671.28 682,-671.28 682,-677.28 676,-683.28 670,-683.28"/>
<text text-anchor="middle" x="613" y="-662.18" font-family="sans" font-size="12.00" fill="#c4c7c7">Combinatoric principles</text>
</a>
</g>
</g>
<!-- Principle of division&#45;&gt;Combinatoric principles -->
<g id="edge67" class="edge">
<title>Principle of division&#45;&gt;Combinatoric principles</title>
<path fill="none" stroke="#ffffff" d="M506.95,-665.28C519.03,-665.28 531.63,-665.28 543.74,-665.28"/>
<polygon fill="#ffffff" stroke="#ffffff" points="506.94,-661.78 496.94,-665.28 506.94,-668.78 506.94,-661.78"/>
</g>
<!-- Relations&#45;&gt;Relation of Equivalence -->
<g id="edge73" class="edge">
<title>Relations&#45;&gt;Relation of Equivalence</title>
<path fill="none" stroke="#b75867" d="M268.95,-305.05C233.34,-318.18 174.1,-339.67 129.14,-355.81"/>
<polygon fill="#b75867" stroke="#b75867" points="127.72,-352.6 119.49,-359.27 130.08,-359.19 127.72,-352.6"/>
</g>
<!-- Relations&#45;&gt;Class of equivalence -->
<g id="edge72" class="edge">
<title>Relations&#45;&gt;Class of equivalence</title>
<path fill="none" stroke="#b75867" d="M283.86,-311.56C268.23,-328.92 244.34,-355.17 226.48,-374.61"/>
<polygon fill="#b75867" stroke="#b75867" points="223.68,-372.49 219.48,-382.22 228.83,-377.23 223.68,-372.49"/>
</g>
<!-- Relations&#45;&gt;Transitive Relation -->
<g id="edge80" class="edge">
<title>Relations&#45;&gt;Transitive Relation</title>
<path fill="none" stroke="#b75867" d="M310.37,-275.24C316.99,-262.98 327.37,-247.38 341,-238.28 350.67,-231.81 361.97,-227.23 373.36,-223.99"/>
<polygon fill="#b75867" stroke="#b75867" points="374.52,-227.3 383.36,-221.46 372.81,-220.52 374.52,-227.3"/>
</g>
<!-- Relations&#45;&gt;Symmetric Relation -->
<g id="edge83" class="edge">
<title>Relations&#45;&gt;Symmetric Relation</title>
<path fill="none" stroke="#b75867" d="M305.67,-311.34C310.42,-329.49 320.63,-356.54 341,-369.28 356.45,-378.93 593.97,-379.18 712.81,-378.69"/>
<polygon fill="#b75867" stroke="#b75867" points="712.91,-382.19 722.9,-378.64 712.88,-375.19 712.91,-382.19"/>
</g>
<!-- Relations&#45;&gt;Reflexive Relation -->
<g id="edge85" class="edge">
<title>Relations&#45;&gt;Reflexive Relation</title>
<path fill="none" stroke="#b75867" d="M310.32,-275.24C316.85,-263.34 327.15,-248.65 341,-241.28 379.3,-220.88 500.91,-256.8 536,-231.28 544.08,-225.4 537.49,-217.85 544,-210.28 589.93,-156.85 641.39,-189.85 682,-132.28 693.96,-115.32 675.84,-101.44 690,-86.28 697.44,-78.3 707.26,-73.02 717.67,-69.55"/>
<polygon fill="#b75867" stroke="#b75867" points="718.64,-72.91 727.34,-66.86 716.76,-66.17 718.64,-72.91"/>
</g>
<!-- Relations&#45;&gt;Relation -->
<g id="edge86" class="edge">
<title>Relations&#45;&gt;Relation</title>
<path fill="none" stroke="#b75867" d="M312.18,-275.2C318.93,-265.08 328.8,-253.31 341,-247.28 360.45,-237.66 514.42,-239.53 536,-237.28 548.13,-236.01 561.26,-234.12 573.15,-232.22"/>
<polygon fill="#b75867" stroke="#b75867" points="573.93,-235.64 583.22,-230.55 572.79,-228.73 573.93,-235.64"/>
</g>
<!-- Relations&#45;&gt;Symmetric Closure -->
<g id="edge75" class="edge">
<title>Relations&#45;&gt;Symmetric Closure</title>
<path fill="none" stroke="#b75867" d="M305.08,-311.52C309.42,-330.94 319.37,-360.82 341,-375.28 359.04,-387.33 514.35,-383.95 536,-385.28 604.49,-389.48 621.45,-393.21 690,-396.28 761.97,-399.5 844.61,-400.66 900.36,-401.07"/>
<polygon fill="#b75867" stroke="#b75867" points="900.42,-404.57 910.45,-401.14 900.47,-397.57 900.42,-404.57"/>
</g>
<!-- Relations&#45;&gt;Symmetric Closure -->
<g id="edge77" class="edge">
<title>Relations&#45;&gt;Symmetric Closure</title>
<path fill="none" stroke="#b75867" d="M304.93,-311.54C309.18,-331.21 319.11,-361.65 341,-376.28 359.04,-388.33 514.35,-384.95 536,-386.28 604.49,-390.48 621.45,-394.21 690,-397.28 761.97,-400.5 844.61,-401.66 900.36,-401.86"/>
<polygon fill="#b75867" stroke="#b75867" points="900.44,-405.36 910.45,-401.89 900.46,-398.36 900.44,-405.36"/>
</g>
<!-- Relations&#45;&gt;Reflexive Closure -->
<g id="edge76" class="edge">
<title>Relations&#45;&gt;Reflexive Closure</title>
<path fill="none" stroke="#b75867" d="M333.35,-293.21C392.87,-293.28 517.93,-294.38 536,-302.28 540.61,-304.29 539.68,-307.71 544,-310.28 602.16,-344.82 623.14,-343.01 690,-353.28 763.31,-364.53 848.9,-363.97 904.88,-361.78"/>
<polygon fill="#b75867" stroke="#b75867" points="905.14,-365.28 914.98,-361.36 904.84,-358.28 905.14,-365.28"/>
</g>
<!-- Relations&#45;&gt;Reflexive Closure -->
<g id="edge79" class="edge">
<title>Relations&#45;&gt;Reflexive Closure</title>
<path fill="none" stroke="#b75867" d="M333.35,-293.78C392.87,-294.28 517.93,-295.38 536,-303.28 540.61,-305.29 539.68,-308.71 544,-311.28 602.16,-345.82 623.14,-344.01 690,-354.28 763.31,-365.53 848.9,-364.97 904.88,-362.56"/>
<polygon fill="#b75867" stroke="#b75867" points="905.15,-366.05 914.98,-362.09 904.83,-359.06 905.15,-366.05"/>
</g>
<!-- Relations&#45;&gt;Partial order -->
<g id="edge71" class="edge">
<title>Relations&#45;&gt;Partial order</title>
<path fill="none" stroke="#b75867" d="M326.26,-275.24C330.95,-272.48 335.98,-269.99 341,-268.28 376.9,-256.01 654.12,-224.54 682,-250.28 698.38,-265.4 673.62,-335.15 690,-350.28 704.78,-363.92 854.02,-361.06 871,-350.28 878.91,-345.25 929.48,-231.45 953,-177.79"/>
<polygon fill="#b75867" stroke="#b75867" points="956.26,-179.08 957.06,-168.52 949.85,-176.27 956.26,-179.08"/>
</g>
<!-- Relations&#45;&gt;Linear order -->
<g id="edge70" class="edge">
<title>Relations&#45;&gt;Linear order</title>
<path fill="none" stroke="#b75867" d="M306.21,-275.16C311.65,-254.67 322.65,-221.06 341,-197.28 409.84,-108.03 437.06,-80.88 544,-45.28 681.89,0.63 728,-19.34 871,-45.28 874.74,-45.95 875.38,-47.14 879,-48.28 890.95,-52.03 903.97,-55.62 916.19,-58.77"/>
<polygon fill="#b75867" stroke="#b75867" points="915.67,-62.24 926.22,-61.3 917.38,-55.46 915.67,-62.24"/>
</g>
<!-- Relations&#45;&gt;Transitive Closure -->
<g id="edge74" class="edge">
<title>Relations&#45;&gt;Transitive Closure</title>
<path fill="none" stroke="#b75867" d="M333.42,-285.58C335.98,-285.09 338.53,-284.65 341,-284.28 411.99,-273.66 494.35,-268.95 549.48,-266.88"/>
<polygon fill="#b75867" stroke="#b75867" points="549.92,-270.37 559.78,-266.51 549.66,-263.37 549.92,-270.37"/>
</g>
<!-- Relations&#45;&gt;Transitive Closure -->
<g id="edge78" class="edge">
<title>Relations&#45;&gt;Transitive Closure</title>
<path fill="none" stroke="#b75867" d="M333.42,-286.58C335.98,-286.09 338.53,-285.65 341,-285.28 411.99,-274.66 494.35,-269.95 549.48,-267.67"/>
<polygon fill="#b75867" stroke="#b75867" points="549.93,-271.15 559.78,-267.26 549.65,-264.16 549.93,-271.15"/>
</g>
<!-- Relations&#45;&gt;Chain -->
<g id="edge68" class="edge">
<title>Relations&#45;&gt;Chain</title>
<path fill="none" stroke="#b75867" d="M333.1,-292.88C378,-292.57 463.53,-293.01 536,-299.28 610.02,-305.67 695.8,-319.98 743.24,-328.51"/>
<polygon fill="#b75867" stroke="#b75867" points="742.85,-332 753.32,-330.34 744.1,-325.11 742.85,-332"/>
</g>
<!-- Relations&#45;&gt;Anti&#45;symmetric Relation -->
<g id="edge82" class="edge">
<title>Relations&#45;&gt;Anti&#45;symmetric Relation</title>
<path fill="none" stroke="#b75867" d="M333.03,-293.39C397.86,-293.65 552.37,-294.43 682,-296.28 688.33,-296.37 694.9,-296.47 701.49,-296.59"/>
<polygon fill="#b75867" stroke="#b75867" points="701.78,-300.09 711.84,-296.78 701.91,-293.09 701.78,-300.09"/>
</g>
<!-- Relations&#45;&gt;Anti&#45;reflexive relation -->
<g id="edge84" class="edge">
<title>Relations&#45;&gt;Anti&#45;reflexive relation</title>
<path fill="none" stroke="#b75867" d="M333.24,-293.24C411.58,-293.02 614.88,-291.65 682,-283.28 690.63,-282.2 699.62,-280.7 708.5,-278.99"/>
<polygon fill="#b75867" stroke="#b75867" points="709.34,-282.39 718.45,-276.97 707.95,-275.52 709.34,-282.39"/>
</g>
<!-- Relations&#45;&gt;Strongly Anti&#45;symmetric Relation -->
<g id="edge81" class="edge">
<title>Relations&#45;&gt;Strongly Anti&#45;symmetric Relation</title>
<path fill="none" stroke="#b75867" d="M333.08,-291.63C335.76,-291.5 338.43,-291.38 341,-291.28 359.94,-290.48 667.33,-292.28 682,-280.28 691.67,-272.36 683.88,-262.31 688.38,-250.93"/>
<polygon fill="#b75867" stroke="#b75867" points="691.46,-252.64 694.25,-242.42 685.69,-248.66 691.46,-252.64"/>
</g>
<!-- Linear extension -->
<g id="node32" class="node">
<title>Linear extension</title>
<g id="a_node32"><a xlink:href="/Knowledge/linear_extension.html" xlink:title="Linear extension" target="_parent">
<path fill="#273434" stroke="#b75867" d="M477,-372.28C477,-372.28 400,-372.28 400,-372.28 394,-372.28 388,-366.28 388,-360.28 388,-360.28 388,-348.28 388,-348.28 388,-342.28 394,-336.28 400,-336.28 400,-336.28 477,-336.28 477,-336.28 483,-336.28 489,-342.28 489,-348.28 489,-348.28 489,-360.28 489,-360.28 489,-366.28 483,-372.28 477,-372.28"/>
<text text-anchor="middle" x="438.5" y="-351.18" font-family="sans" font-size="12.00" fill="#c4c7c7">Linear extension</text>
</a>
</g>
</g>
<!-- Relations&#45;&gt;Linear extension -->
<g id="edge69" class="edge">
<title>Relations&#45;&gt;Linear extension</title>
<path fill="none" stroke="#b75867" d="M316.23,-311.49C322.97,-318.98 331.61,-327.09 341,-332.28 352.27,-338.5 365.22,-342.97 377.89,-346.18"/>
<polygon fill="#b75867" stroke="#b75867" points="377.43,-349.66 387.96,-348.48 378.99,-342.84 377.43,-349.66"/>
</g>
<!-- Discrete Structures -->
<g id="node33" class="node">
<title>Discrete Structures</title>
<g id="a_node33"><a xlink:href="/Knowledge/discrete_structures.html" xlink:title="Discrete Structures" target="_parent">
<path fill="none" stroke="#b75867" d="M482,-335.28C482,-335.28 395,-335.28 395,-335.28 389,-335.28 383,-329.28 383,-323.28 383,-323.28 383,-311.28 383,-311.28 383,-305.28 389,-299.28 395,-299.28 395,-299.28 482,-299.28 482,-299.28 488,-299.28 494,-305.28 494,-311.28 494,-311.28 494,-323.28 494,-323.28 494,-329.28 488,-335.28 482,-335.28"/>
<text text-anchor="middle" x="438.5" y="-314.18" font-family="sans" font-size="12.00" fill="#c4c7c7">Discrete Structures</text>
</a>
</g>
</g>
<!-- Relations&#45;&gt;Discrete Structures -->
<g id="edge87" class="edge">
<title>Relations&#45;&gt;Discrete Structures</title>
<path fill="none" stroke="#ffffff" d="M343.21,-300.57C355.71,-302.79 369.65,-305.26 382.9,-307.6"/>
<polygon fill="#ffffff" stroke="#ffffff" points="343.54,-297.08 333.09,-298.78 342.32,-303.97 343.54,-297.08"/>
</g>
</g>
</svg>
