<?xml version="1.0" encoding="UTF-8" standalone="no"?>
<!DOCTYPE svg PUBLIC "-//W3C//DTD SVG 1.1//EN"
 "http://www.w3.org/Graphics/SVG/1.1/DTD/svg11.dtd">
<!-- Generated by graphviz version 2.46.1 (0)
 -->
<!-- Title: Relation Pages: 1 -->
<svg width="1097pt" height="435pt"
 viewBox="0.00 0.00 1097.00 435.00" xmlns="http://www.w3.org/2000/svg" xmlns:xlink="http://www.w3.org/1999/xlink">
<g id="graph0" class="graph" transform="scale(1 1) rotate(0) translate(4 431)">
<title>Relation</title>
<polygon fill="#132020" stroke="transparent" points="-4,4 -4,-431 1093,-431 1093,4 -4,4"/>
<!-- Relation -->
<g id="node1" class="node">
<title>Relation</title>
<g id="a_node1"><a xlink:href="/Knowledge/relation.html" xlink:title="Relation" target="_parent">
<path fill="#273434" stroke="#b75867" d="M47,-204C47,-204 12,-204 12,-204 6,-204 0,-198 0,-192 0,-192 0,-180 0,-180 0,-174 6,-168 12,-168 12,-168 47,-168 47,-168 53,-168 59,-174 59,-180 59,-180 59,-192 59,-192 59,-198 53,-204 47,-204"/>
<text text-anchor="middle" x="29.5" y="-182.9" font-family="sans" font-size="12.00" fill="#c4c7c7">Relation</text>
</a>
</g>
</g>
<!-- Descartes Product -->
<g id="node2" class="node">
<title>Descartes Product</title>
<g id="a_node2"><a xlink:href="/Knowledge/descartes_product.html" xlink:title="Descartes Product" target="_parent">
<path fill="#273434" stroke="#b75867" d="M163,-427C163,-427 79,-427 79,-427 73,-427 67,-421 67,-415 67,-415 67,-403 67,-403 67,-397 73,-391 79,-391 79,-391 163,-391 163,-391 169,-391 175,-397 175,-403 175,-403 175,-415 175,-415 175,-421 169,-427 163,-427"/>
<text text-anchor="middle" x="121" y="-405.9" font-family="sans" font-size="12.00" fill="#c4c7c7">Descartes Product</text>
</a>
</g>
</g>
<!-- Relation&#45;&gt;Descartes Product -->
<g id="edge1" class="edge">
<title>Relation&#45;&gt;Descartes Product</title>
<path fill="none" stroke="#b75867" d="M31.6,-204.02C34.38,-244.66 42.89,-342.74 65.07,-382.54"/>
<polygon fill="#b75867" stroke="#b75867" points="62.2,-384.56 70.67,-390.93 68.03,-380.67 62.2,-384.56"/>
</g>
<!-- Partial order -->
<g id="node3" class="node">
<title>Partial order</title>
<g id="a_node3"><a xlink:href="/Knowledge/partial_order.html" xlink:title="Partial order" target="_parent">
<path fill="none" stroke="#b75867" d="M148.5,-214C148.5,-214 93.5,-214 93.5,-214 87.5,-214 81.5,-208 81.5,-202 81.5,-202 81.5,-190 81.5,-190 81.5,-184 87.5,-178 93.5,-178 93.5,-178 148.5,-178 148.5,-178 154.5,-178 160.5,-184 160.5,-190 160.5,-190 160.5,-202 160.5,-202 160.5,-208 154.5,-214 148.5,-214"/>
<text text-anchor="middle" x="121" y="-192.9" font-family="sans" font-size="12.00" fill="#c4c7c7">Partial order</text>
</a>
</g>
</g>
<!-- Relation&#45;&gt;Partial order -->
<g id="edge2" class="edge">
<title>Relation&#45;&gt;Partial order</title>
<path fill="none" stroke="#ffffff" d="M69.54,-190.36C73.49,-190.8 77.5,-191.25 81.45,-191.69"/>
<polygon fill="#ffffff" stroke="#ffffff" points="69.64,-186.85 59.31,-189.22 68.86,-193.81 69.64,-186.85"/>
</g>
<!-- Chain -->
<g id="node4" class="node">
<title>Chain</title>
<g id="a_node4"><a xlink:href="/Knowledge/chain.html" xlink:title="Chain" target="_parent">
<path fill="none" stroke="#b75867" d="M831.5,-36C831.5,-36 801.5,-36 801.5,-36 795.5,-36 789.5,-30 789.5,-24 789.5,-24 789.5,-12 789.5,-12 789.5,-6 795.5,0 801.5,0 801.5,0 831.5,0 831.5,0 837.5,0 843.5,-6 843.5,-12 843.5,-12 843.5,-24 843.5,-24 843.5,-30 837.5,-36 831.5,-36"/>
<text text-anchor="middle" x="816.5" y="-14.9" font-family="sans" font-size="12.00" fill="#c4c7c7">Chain</text>
</a>
</g>
</g>
<!-- Relation&#45;&gt;Chain -->
<g id="edge3" class="edge">
<title>Relation&#45;&gt;Chain</title>
<path fill="none" stroke="#ffffff" d="M33.39,-157.89C37.23,-136 46.18,-106.77 67,-91 86.21,-76.45 151.01,-83.29 175,-81 413.59,-58.22 702.02,-29.38 789.27,-20.63"/>
<polygon fill="#ffffff" stroke="#ffffff" points="29.9,-157.55 31.89,-167.95 36.83,-158.58 29.9,-157.55"/>
</g>
<!-- Linear order -->
<g id="node5" class="node">
<title>Linear order</title>
<g id="a_node5"><a xlink:href="/Knowledge/linear_order.html" xlink:title="Linear order" target="_parent">
<path fill="none" stroke="#b75867" d="M250,-254C250,-254 195,-254 195,-254 189,-254 183,-248 183,-242 183,-242 183,-230 183,-230 183,-224 189,-218 195,-218 195,-218 250,-218 250,-218 256,-218 262,-224 262,-230 262,-230 262,-242 262,-242 262,-248 256,-254 250,-254"/>
<text text-anchor="middle" x="222.5" y="-232.9" font-family="sans" font-size="12.00" fill="#c4c7c7">Linear order</text>
</a>
</g>
</g>
<!-- Relation&#45;&gt;Linear order -->
<g id="edge4" class="edge">
<title>Relation&#45;&gt;Linear order</title>
<path fill="none" stroke="#ffffff" d="M55.6,-210.41C59.22,-212.98 63.06,-215.27 67,-217 104,-233.22 150.48,-236.98 182.74,-237.29"/>
<polygon fill="#ffffff" stroke="#ffffff" points="57.63,-207.55 47.62,-204.09 53.28,-213.04 57.63,-207.55"/>
</g>
<!-- Partial function -->
<g id="node6" class="node">
<title>Partial function</title>
<g id="a_node6"><a xlink:href="/Knowledge/partial_function.html" xlink:title="Partial function" target="_parent">
<path fill="none" stroke="#b75867" d="M156,-84C156,-84 86,-84 86,-84 80,-84 74,-78 74,-72 74,-72 74,-60 74,-60 74,-54 80,-48 86,-48 86,-48 156,-48 156,-48 162,-48 168,-54 168,-60 168,-60 168,-72 168,-72 168,-78 162,-84 156,-84"/>
<text text-anchor="middle" x="121" y="-62.9" font-family="sans" font-size="12.00" fill="#c4c7c7">Partial function</text>
</a>
</g>
</g>
<!-- Relation&#45;&gt;Partial function -->
<g id="edge5" class="edge">
<title>Relation&#45;&gt;Partial function</title>
<path fill="none" stroke="#ffffff" d="M34.73,-157.88C39.31,-136.31 48.59,-107.1 67,-88 69.07,-85.85 71.39,-83.9 73.86,-82.13"/>
<polygon fill="#ffffff" stroke="#ffffff" points="31.28,-157.3 32.84,-167.78 38.15,-158.61 31.28,-157.3"/>
</g>
<!-- Total function -->
<g id="node7" class="node">
<title>Total function</title>
<g id="a_node7"><a xlink:href="/Knowledge/total_function.html" xlink:title="Total function" target="_parent">
<path fill="none" stroke="#b75867" d="M152,-47C152,-47 90,-47 90,-47 84,-47 78,-41 78,-35 78,-35 78,-23 78,-23 78,-17 84,-11 90,-11 90,-11 152,-11 152,-11 158,-11 164,-17 164,-23 164,-23 164,-35 164,-35 164,-41 158,-47 152,-47"/>
<text text-anchor="middle" x="121" y="-25.9" font-family="sans" font-size="12.00" fill="#c4c7c7">Total function</text>
</a>
</g>
</g>
<!-- Relation&#45;&gt;Total function -->
<g id="edge6" class="edge">
<title>Relation&#45;&gt;Total function</title>
<path fill="none" stroke="#ffffff" d="M31.08,-157.75C33.15,-127.84 40.74,-80.89 67,-51 70.09,-47.48 73.83,-44.51 77.88,-42.01"/>
<polygon fill="#ffffff" stroke="#ffffff" points="27.57,-157.77 30.54,-167.94 34.56,-158.13 27.57,-157.77"/>
</g>
<!-- Reflexive Relation -->
<g id="node8" class="node">
<title>Reflexive Relation</title>
<g id="a_node8"><a xlink:href="/Knowledge/reflexive_relation.html" xlink:title="Reflexive Relation" target="_parent">
<path fill="none" stroke="#b75867" d="M629,-231C629,-231 547,-231 547,-231 541,-231 535,-225 535,-219 535,-219 535,-207 535,-207 535,-201 541,-195 547,-195 547,-195 629,-195 629,-195 635,-195 641,-201 641,-207 641,-207 641,-219 641,-219 641,-225 635,-231 629,-231"/>
<text text-anchor="middle" x="588" y="-209.9" font-family="sans" font-size="12.00" fill="#c4c7c7">Reflexive Relation</text>
</a>
</g>
</g>
<!-- Relation&#45;&gt;Reflexive Relation -->
<g id="edge7" class="edge">
<title>Relation&#45;&gt;Reflexive Relation</title>
<path fill="none" stroke="#ffffff" d="M69.41,-181C116.6,-177.98 130.11,-179.71 175,-181 252.21,-183.22 445.32,-191.75 522,-201 526.22,-201.51 530.57,-202.12 534.94,-202.8"/>
<polygon fill="#ffffff" stroke="#ffffff" points="68.89,-177.53 59.15,-181.7 69.37,-184.52 68.89,-177.53"/>
</g>
<!-- Symmetric Closure -->
<g id="node9" class="node">
<title>Symmetric Closure</title>
<g id="a_node9"><a xlink:href="/Knowledge/symmetric_closure.html" xlink:title="Symmetric Closure" target="_parent">
<path fill="none" stroke="#b75867" d="M860,-276C860,-276 773,-276 773,-276 767,-276 761,-270 761,-264 761,-264 761,-252 761,-252 761,-246 767,-240 773,-240 773,-240 860,-240 860,-240 866,-240 872,-246 872,-252 872,-252 872,-264 872,-264 872,-270 866,-276 860,-276"/>
<text text-anchor="middle" x="816.5" y="-254.9" font-family="sans" font-size="12.00" fill="#c4c7c7">Symmetric Closure</text>
</a>
</g>
</g>
<!-- Relation&#45;&gt;Symmetric Closure -->
<g id="edge8" class="edge">
<title>Relation&#45;&gt;Symmetric Closure</title>
<path fill="none" stroke="#ffffff" d="M37.31,-213.81C42.65,-229.32 51.82,-247.39 67,-257 125.06,-293.74 152.8,-262 221.5,-262 221.5,-262 221.5,-262 589,-262 647.6,-262 714.72,-260.64 760.58,-259.51"/>
<polygon fill="#ffffff" stroke="#ffffff" points="40.6,-212.63 34.32,-204.1 33.91,-214.69 40.6,-212.63"/>
</g>
<!-- Anti&#45;symmetric Relation -->
<g id="node10" class="node">
<title>Anti&#45;symmetric Relation</title>
<g id="a_node10"><a xlink:href="/Knowledge/anti-symmetric_relation.html" xlink:title="Anti&#45;symmetric Relation" target="_parent">
<path fill="none" stroke="#b75867" d="M873,-76C873,-76 760,-76 760,-76 754,-76 748,-70 748,-64 748,-64 748,-52 748,-52 748,-46 754,-40 760,-40 760,-40 873,-40 873,-40 879,-40 885,-46 885,-52 885,-52 885,-64 885,-64 885,-70 879,-76 873,-76"/>
<text text-anchor="middle" x="816.5" y="-54.9" font-family="sans" font-size="12.00" fill="#c4c7c7">Anti&#45;symmetric Relation</text>
</a>
</g>
</g>
<!-- Relation&#45;&gt;Anti&#45;symmetric Relation -->
<g id="edge9" class="edge">
<title>Relation&#45;&gt;Anti&#45;symmetric Relation</title>
<path fill="none" stroke="#ffffff" d="M36.4,-157.82C41.52,-140.63 50.77,-119.78 67,-108 95,-87.68 186.91,-89 221.5,-89 221.5,-89 221.5,-89 589,-89 646.38,-89 662.42,-98.26 718,-84 721.85,-83.01 722.27,-81.37 726,-80 732.91,-77.46 740.22,-75.12 747.58,-73"/>
<polygon fill="#ffffff" stroke="#ffffff" points="32.9,-157.36 33.72,-167.93 39.67,-159.16 32.9,-157.36"/>
</g>
<!-- Symmetric Relation -->
<g id="node11" class="node">
<title>Symmetric Relation</title>
<g id="a_node11"><a xlink:href="/Knowledge/symmetric_relation.html" xlink:title="Symmetric Relation" target="_parent">
<path fill="none" stroke="#b75867" d="M1047.5,-276C1047.5,-276 956.5,-276 956.5,-276 950.5,-276 944.5,-270 944.5,-264 944.5,-264 944.5,-252 944.5,-252 944.5,-246 950.5,-240 956.5,-240 956.5,-240 1047.5,-240 1047.5,-240 1053.5,-240 1059.5,-246 1059.5,-252 1059.5,-252 1059.5,-264 1059.5,-264 1059.5,-270 1053.5,-276 1047.5,-276"/>
<text text-anchor="middle" x="1002" y="-254.9" font-family="sans" font-size="12.00" fill="#c4c7c7">Symmetric Relation</text>
</a>
</g>
</g>
<!-- Relation&#45;&gt;Symmetric Relation -->
<g id="edge10" class="edge">
<title>Relation&#45;&gt;Symmetric Relation</title>
<path fill="none" stroke="#ffffff" d="M34.9,-214.41C39.63,-237.33 49.03,-269.36 67,-292 117.41,-355.51 140.42,-389 221.5,-389 221.5,-389 221.5,-389 687,-389 784.8,-389 836,-451.26 907,-384 923.83,-368.06 900.09,-297.75 915,-280 922.53,-271.03 933.17,-265.45 944.41,-262.03"/>
<polygon fill="#ffffff" stroke="#ffffff" points="38.28,-213.46 32.99,-204.28 31.4,-214.75 38.28,-213.46"/>
</g>
<!-- Reflexive Closure -->
<g id="node12" class="node">
<title>Reflexive Closure</title>
<g id="a_node12"><a xlink:href="/Knowledge/reflexive_closure.html" xlink:title="Reflexive Closure" target="_parent">
<path fill="none" stroke="#b75867" d="M855.5,-313C855.5,-313 777.5,-313 777.5,-313 771.5,-313 765.5,-307 765.5,-301 765.5,-301 765.5,-289 765.5,-289 765.5,-283 771.5,-277 777.5,-277 777.5,-277 855.5,-277 855.5,-277 861.5,-277 867.5,-283 867.5,-289 867.5,-289 867.5,-301 867.5,-301 867.5,-307 861.5,-313 855.5,-313"/>
<text text-anchor="middle" x="816.5" y="-291.9" font-family="sans" font-size="12.00" fill="#c4c7c7">Reflexive Closure</text>
</a>
</g>
</g>
<!-- Relation&#45;&gt;Reflexive Closure -->
<g id="edge11" class="edge">
<title>Relation&#45;&gt;Reflexive Closure</title>
<path fill="none" stroke="#ffffff" d="M48.91,-212.4C54.14,-218.3 60.27,-223.98 67,-228 112.37,-255.07 130.55,-247.65 183,-254 332.6,-272.13 371.65,-250.76 522,-261 607.72,-266.84 706.92,-279.59 765.26,-287.71"/>
<polygon fill="#ffffff" stroke="#ffffff" points="51.38,-209.9 42.35,-204.36 45.96,-214.33 51.38,-209.9"/>
</g>
<!-- Anti&#45;reflexive relation -->
<g id="node13" class="node">
<title>Anti&#45;reflexive relation</title>
<g id="a_node13"><a xlink:href="/Knowledge/anti-reflexive_relation.html" xlink:title="Anti&#45;reflexive relation" target="_parent">
<path fill="none" stroke="#b75867" d="M866.5,-122C866.5,-122 766.5,-122 766.5,-122 760.5,-122 754.5,-116 754.5,-110 754.5,-110 754.5,-98 754.5,-98 754.5,-92 760.5,-86 766.5,-86 766.5,-86 866.5,-86 866.5,-86 872.5,-86 878.5,-92 878.5,-98 878.5,-98 878.5,-110 878.5,-110 878.5,-116 872.5,-122 866.5,-122"/>
<text text-anchor="middle" x="816.5" y="-100.9" font-family="sans" font-size="12.00" fill="#c4c7c7">Anti&#45;reflexive relation</text>
</a>
</g>
</g>
<!-- Relation&#45;&gt;Anti&#45;reflexive relation -->
<g id="edge12" class="edge">
<title>Relation&#45;&gt;Anti&#45;reflexive relation</title>
<path fill="none" stroke="#ffffff" d="M61.96,-162.16C98.34,-137.02 161.02,-101 221.5,-101 221.5,-101 221.5,-101 589,-101 645.04,-101 708.87,-101.93 754.46,-102.75"/>
<polygon fill="#ffffff" stroke="#ffffff" points="59.88,-159.35 53.73,-167.97 63.92,-165.06 59.88,-159.35"/>
</g>
<!-- Strongly Anti&#45;symmetric Relation -->
<g id="node14" class="node">
<title>Strongly Anti&#45;symmetric Relation</title>
<g id="a_node14"><a xlink:href="/Knowledge/strongly_anti-symmetric_relation.html" xlink:title="Strongly Anti&#45;symmetric Relation" target="_parent">
<path fill="none" stroke="#b75867" d="M895,-387C895,-387 738,-387 738,-387 732,-387 726,-381 726,-375 726,-375 726,-363 726,-363 726,-357 732,-351 738,-351 738,-351 895,-351 895,-351 901,-351 907,-357 907,-363 907,-363 907,-375 907,-375 907,-381 901,-387 895,-387"/>
<text text-anchor="middle" x="816.5" y="-365.9" font-family="sans" font-size="12.00" fill="#c4c7c7">Strongly Anti&#45;symmetric Relation</text>
</a>
</g>
</g>
<!-- Relation&#45;&gt;Strongly Anti&#45;symmetric Relation -->
<g id="edge13" class="edge">
<title>Relation&#45;&gt;Strongly Anti&#45;symmetric Relation</title>
<path fill="none" stroke="#ffffff" d="M37.22,-214.08C42.65,-231.2 51.92,-252.33 67,-266 120.77,-314.77 148.91,-319 221.5,-319 221.5,-319 221.5,-319 589,-319 604.3,-319 681.28,-336.63 741.3,-350.95"/>
<polygon fill="#ffffff" stroke="#ffffff" points="40.46,-212.69 34.33,-204.05 33.74,-214.63 40.46,-212.69"/>
</g>
<!-- Relations -->
<g id="node15" class="node">
<title>Relations</title>
<g id="a_node15"><a xlink:href="/Knowledge/relations.html" xlink:title="Relations" target="_parent">
<path fill="none" stroke="#b75867" d="M706,-231C706,-231 666,-231 666,-231 660,-231 654,-225 654,-219 654,-219 654,-207 654,-207 654,-201 660,-195 666,-195 666,-195 706,-195 706,-195 712,-195 718,-201 718,-207 718,-207 718,-219 718,-219 718,-225 712,-231 706,-231"/>
<text text-anchor="middle" x="686" y="-209.9" font-family="sans" font-size="12.00" fill="#c4c7c7">Relations</text>
</a>
</g>
</g>
<!-- Relation&#45;&gt;Relations -->
<g id="edge14" class="edge">
<title>Relation&#45;&gt;Relations</title>
<path fill="none" stroke="#ffffff" d="M69.36,-179.03C116.51,-174.93 130.1,-178.24 175,-179 227.36,-179.89 595.05,-182.9 646,-195 648.61,-195.62 651.26,-196.42 653.88,-197.34"/>
<polygon fill="#ffffff" stroke="#ffffff" points="68.75,-175.57 59.12,-179.98 69.4,-182.54 68.75,-175.57"/>
</g>
<!-- Transitive Relation -->
<g id="node16" class="node">
<title>Transitive Relation</title>
<g id="a_node16"><a xlink:href="/Knowledge/transitive_relation.html" xlink:title="Transitive Relation" target="_parent">
<path fill="none" stroke="#b75867" d="M368,-234C368,-234 282,-234 282,-234 276,-234 270,-228 270,-222 270,-222 270,-210 270,-210 270,-204 276,-198 282,-198 282,-198 368,-198 368,-198 374,-198 380,-204 380,-210 380,-210 380,-222 380,-222 380,-228 374,-234 368,-234"/>
<text text-anchor="middle" x="325" y="-212.9" font-family="sans" font-size="12.00" fill="#c4c7c7">Transitive Relation</text>
</a>
</g>
</g>
<!-- Relation&#45;&gt;Transitive Relation -->
<g id="edge15" class="edge">
<title>Relation&#45;&gt;Transitive Relation</title>
<path fill="none" stroke="#ffffff" d="M61.45,-208.85C63.28,-209.68 65.13,-210.4 67,-211 103.34,-222.64 205.8,-220.96 269.83,-218.56"/>
<polygon fill="#ffffff" stroke="#ffffff" points="63.06,-205.74 52.59,-204.07 59.73,-211.9 63.06,-205.74"/>
</g>
<!-- Relation of Equivalence -->
<g id="node17" class="node">
<title>Relation of Equivalence</title>
<g id="a_node17"><a xlink:href="/Knowledge/relation_of_equivalence.html" xlink:title="Relation of Equivalence" target="_parent">
<path fill="none" stroke="#b75867" d="M510,-185C510,-185 400,-185 400,-185 394,-185 388,-179 388,-173 388,-173 388,-161 388,-161 388,-155 394,-149 400,-149 400,-149 510,-149 510,-149 516,-149 522,-155 522,-161 522,-161 522,-173 522,-173 522,-179 516,-185 510,-185"/>
<text text-anchor="middle" x="455" y="-163.9" font-family="sans" font-size="12.00" fill="#c4c7c7">Relation of Equivalence</text>
</a>
</g>
</g>
<!-- Relation&#45;&gt;Relation of Equivalence -->
<g id="edge16" class="edge">
<title>Relation&#45;&gt;Relation of Equivalence</title>
<path fill="none" stroke="#ffffff" d="M69.43,-171.99C185.47,-150.95 312.48,-155.39 387.9,-160.85"/>
<polygon fill="#ffffff" stroke="#ffffff" points="68.5,-168.6 59.32,-173.89 69.79,-175.48 68.5,-168.6"/>
</g>
<!-- Descartes Product&#45;&gt;Relation -->
<g id="edge17" class="edge">
<title>Descartes Product&#45;&gt;Relation</title>
<path fill="none" stroke="#ffffff" d="M63.77,-382.03C42.77,-342.77 34.32,-244.93 31.57,-204.19"/>
<polygon fill="#ffffff" stroke="#ffffff" points="61,-384.2 69.38,-390.68 66.87,-380.38 61,-384.2"/>
</g>
<!-- Partial order&#45;&gt;Relation -->
<g id="edge21" class="edge">
<title>Partial order&#45;&gt;Relation</title>
<path fill="none" stroke="#b75867" d="M81.45,-192.44C77.5,-192 73.49,-191.56 69.54,-191.11"/>
<polygon fill="#b75867" stroke="#b75867" points="69.65,-187.6 59.31,-189.93 68.84,-194.55 69.65,-187.6"/>
</g>
<!-- Partial order&#45;&gt;Linear order -->
<g id="edge22" class="edge">
<title>Partial order&#45;&gt;Linear order</title>
<path fill="none" stroke="#ffffff" d="M170.34,-215.43C174.48,-217.1 178.64,-218.77 182.69,-220.4"/>
<polygon fill="#ffffff" stroke="#ffffff" points="171.34,-212.06 160.75,-211.58 168.73,-218.56 171.34,-212.06"/>
</g>
<!-- Partial order&#45;&gt;Reflexive Relation -->
<g id="edge20" class="edge">
<title>Partial order&#45;&gt;Reflexive Relation</title>
<path fill="none" stroke="#b75867" d="M160.91,-196.29C211.43,-196.77 302.33,-198 380,-201 428.58,-202.88 483.51,-206.11 524.58,-208.75"/>
<polygon fill="#b75867" stroke="#b75867" points="524.5,-212.26 534.71,-209.41 524.95,-205.27 524.5,-212.26"/>
</g>
<!-- Partial order&#45;&gt;Anti&#45;symmetric Relation -->
<g id="edge19" class="edge">
<title>Partial order&#45;&gt;Anti&#45;symmetric Relation</title>
<path fill="none" stroke="#b75867" d="M160.66,-191.65C188.96,-188.05 228.16,-182.19 262,-174 315.68,-161 342.1,-175.18 380,-135 389.47,-124.96 377.25,-113.65 388,-105 416.59,-81.98 685.29,-106.65 718,-90 723.07,-87.42 721.2,-83.06 726,-80 729.82,-77.56 733.89,-75.39 738.11,-73.46"/>
<polygon fill="#b75867" stroke="#b75867" points="739.61,-76.63 747.54,-69.61 736.96,-70.15 739.61,-76.63"/>
</g>
<!-- Partial order&#45;&gt;Relations -->
<g id="edge24" class="edge">
<title>Partial order&#45;&gt;Relations</title>
<path fill="none" stroke="#ffffff" d="M170.74,-195.42C246.08,-194.63 395.33,-193.47 522,-195 577.12,-195.67 591.92,-187.28 646,-198 648.56,-198.51 651.17,-199.17 653.77,-199.93"/>
<polygon fill="#ffffff" stroke="#ffffff" points="170.58,-191.92 160.62,-195.53 170.65,-198.92 170.58,-191.92"/>
</g>
<!-- Partial order&#45;&gt;Transitive Relation -->
<g id="edge18" class="edge">
<title>Partial order&#45;&gt;Transitive Relation</title>
<path fill="none" stroke="#b75867" d="M160.95,-199.86C188.88,-202.62 227.15,-206.41 259.59,-209.62"/>
<polygon fill="#b75867" stroke="#b75867" points="259.6,-213.14 269.9,-210.64 260.29,-206.18 259.6,-213.14"/>
</g>
<!-- Linear extension -->
<g id="node18" class="node">
<title>Linear extension</title>
<g id="a_node18"><a xlink:href="/Knowledge/linear_extension.html" xlink:title="Linear extension" target="_parent">
<path fill="none" stroke="#b75867" d="M855,-350C855,-350 778,-350 778,-350 772,-350 766,-344 766,-338 766,-338 766,-326 766,-326 766,-320 772,-314 778,-314 778,-314 855,-314 855,-314 861,-314 867,-320 867,-326 867,-326 867,-338 867,-338 867,-344 861,-350 855,-350"/>
<text text-anchor="middle" x="816.5" y="-328.9" font-family="sans" font-size="12.00" fill="#c4c7c7">Linear extension</text>
</a>
</g>
</g>
<!-- Partial order&#45;&gt;Linear extension -->
<g id="edge23" class="edge">
<title>Partial order&#45;&gt;Linear extension</title>
<path fill="none" stroke="#ffffff" d="M143.68,-221.59C154.37,-232.47 168.15,-244.2 183,-251 183.43,-251.19 717.54,-317.94 718,-318 733.59,-320.1 750.57,-322.49 765.92,-324.7"/>
<polygon fill="#ffffff" stroke="#ffffff" points="146.2,-219.16 136.8,-214.26 141.09,-223.95 146.2,-219.16"/>
</g>
<!-- Partial orders have no contours -->
<g id="node19" class="node">
<title>Partial orders have no contours</title>
<g id="a_node19"><a xlink:href="/Knowledge/partial_orders_have_no_contours.html" xlink:title="Partial orders have no contours" target="_parent">
<path fill="none" stroke="#b75867" d="M1077,-85C1077,-85 927,-85 927,-85 921,-85 915,-79 915,-73 915,-73 915,-61 915,-61 915,-55 921,-49 927,-49 927,-49 1077,-49 1077,-49 1083,-49 1089,-55 1089,-61 1089,-61 1089,-73 1089,-73 1089,-79 1083,-85 1077,-85"/>
<text text-anchor="middle" x="1002" y="-63.9" font-family="sans" font-size="12.00" fill="#c4c7c7">Partial orders have no contours</text>
</a>
</g>
</g>
<!-- Partial order&#45;&gt;Partial orders have no contours -->
<g id="edge25" class="edge">
<title>Partial order&#45;&gt;Partial orders have no contours</title>
<path fill="none" stroke="#ffffff" d="M169.99,-177.16C198.9,-165.9 236.48,-151.42 270,-139 322.2,-119.66 333.39,-107.8 388,-97 406.01,-93.44 704.03,-92.91 718,-81 731.13,-69.8 712.6,-53.87 726,-43 741.62,-30.33 887.05,-40.49 907,-43 917.61,-44.33 928.74,-46.48 939.48,-48.96"/>
<polygon fill="#ffffff" stroke="#ffffff" points="168.58,-173.95 160.54,-180.85 171.13,-180.47 168.58,-173.95"/>
</g>
<!-- Chain&#45;&gt;Relation -->
<g id="edge28" class="edge">
<title>Chain&#45;&gt;Relation</title>
<path fill="none" stroke="#b75867" d="M789.27,-21.05C702.02,-30.38 413.59,-59.22 175,-82 151.01,-84.29 86.21,-77.45 67,-92 46.42,-107.58 37.44,-136.32 33.53,-157.94"/>
<polygon fill="#b75867" stroke="#b75867" points="30.06,-157.47 31.98,-167.89 36.98,-158.54 30.06,-157.47"/>
</g>
<!-- Chain&#45;&gt;Relations -->
<g id="edge29" class="edge">
<title>Chain&#45;&gt;Relations</title>
<path fill="none" stroke="#ffffff" d="M779.25,-18.9C760.83,-20.98 739.53,-26.61 726,-41 712.38,-55.48 722.1,-65.55 718,-85 709.68,-124.44 698.25,-170.24 691.85,-194.96"/>
<polygon fill="#ffffff" stroke="#ffffff" points="779.73,-22.37 789.41,-18.06 779.15,-15.4 779.73,-22.37"/>
</g>
<!-- Chain&#45;&gt;Partial orders have no contours -->
<g id="edge26" class="edge">
<title>Chain&#45;&gt;Partial orders have no contours</title>
<path fill="none" stroke="#b75867" d="M843.81,-24.18C861.68,-28.45 885.82,-34.36 907,-40 914.38,-41.97 922.08,-44.08 929.74,-46.22"/>
<polygon fill="#b75867" stroke="#b75867" points="928.83,-49.6 939.41,-48.94 930.73,-42.86 928.83,-49.6"/>
</g>
<!-- Contour -->
<g id="node20" class="node">
<title>Contour</title>
<g id="a_node20"><a xlink:href="/Knowledge/contour.html" xlink:title="Contour" target="_parent">
<path fill="#273434" stroke="#b75867" d="M1019.5,-36C1019.5,-36 984.5,-36 984.5,-36 978.5,-36 972.5,-30 972.5,-24 972.5,-24 972.5,-12 972.5,-12 972.5,-6 978.5,0 984.5,0 984.5,0 1019.5,0 1019.5,0 1025.5,0 1031.5,-6 1031.5,-12 1031.5,-12 1031.5,-24 1031.5,-24 1031.5,-30 1025.5,-36 1019.5,-36"/>
<text text-anchor="middle" x="1002" y="-14.9" font-family="sans" font-size="12.00" fill="#c4c7c7">Contour</text>
</a>
</g>
</g>
<!-- Chain&#45;&gt;Contour -->
<g id="edge27" class="edge">
<title>Chain&#45;&gt;Contour</title>
<path fill="none" stroke="#b75867" d="M843.79,-18C874.82,-18 926.69,-18 962.3,-18"/>
<polygon fill="#b75867" stroke="#b75867" points="962.34,-21.5 972.34,-18 962.34,-14.5 962.34,-21.5"/>
</g>
<!-- Linear order&#45;&gt;Relation -->
<g id="edge34" class="edge">
<title>Linear order&#45;&gt;Relation</title>
<path fill="none" stroke="#b75867" d="M182.74,-238.1C150.48,-237.98 104,-234.22 67,-218 62.57,-216.06 58.27,-213.4 54.26,-210.43"/>
<polygon fill="#b75867" stroke="#b75867" points="56.47,-207.71 46.52,-204.05 52.02,-213.11 56.47,-207.71"/>
</g>
<!-- Linear order&#45;&gt;Partial order -->
<g id="edge30" class="edge">
<title>Linear order&#45;&gt;Partial order</title>
<path fill="none" stroke="#b75867" d="M182.69,-221.13C178.64,-219.51 174.48,-217.85 170.34,-216.18"/>
<polygon fill="#b75867" stroke="#b75867" points="171.34,-212.81 160.75,-212.31 168.72,-219.3 171.34,-212.81"/>
</g>
<!-- Linear order&#45;&gt;Reflexive Relation -->
<g id="edge33" class="edge">
<title>Linear order&#45;&gt;Reflexive Relation</title>
<path fill="none" stroke="#b75867" d="M262.12,-235.36C293.81,-234.68 339.84,-233.39 380,-231 428.63,-228.11 483.56,-223.26 524.61,-219.32"/>
<polygon fill="#b75867" stroke="#b75867" points="525.12,-222.79 534.74,-218.34 524.45,-215.82 525.12,-222.79"/>
</g>
<!-- Linear order&#45;&gt;Strongly Anti&#45;symmetric Relation -->
<g id="edge32" class="edge">
<title>Linear order&#45;&gt;Strongly Anti&#45;symmetric Relation</title>
<path fill="none" stroke="#b75867" d="M262.02,-242.98C264.72,-243.36 267.4,-243.7 270,-244 381.46,-256.64 411.57,-238.33 522,-258 611.69,-273.98 654.49,-252.69 718,-318 725.28,-325.49 720.22,-333.29 724.29,-342.59"/>
<polygon fill="#b75867" stroke="#b75867" points="721.57,-344.81 730.32,-350.79 727.21,-340.66 721.57,-344.81"/>
</g>
<!-- Linear order&#45;&gt;Relations -->
<g id="edge36" class="edge">
<title>Linear order&#45;&gt;Relations</title>
<path fill="none" stroke="#ffffff" d="M272.29,-238.48C367.88,-242.86 576.56,-250.03 646,-233 648.66,-232.35 651.34,-231.48 653.99,-230.48"/>
<polygon fill="#ffffff" stroke="#ffffff" points="272.18,-234.97 262.03,-238 271.85,-241.96 272.18,-234.97"/>
</g>
<!-- Linear order&#45;&gt;Transitive Relation -->
<g id="edge31" class="edge">
<title>Linear order&#45;&gt;Transitive Relation</title>
<path fill="none" stroke="#b75867" d="M262.07,-228.32C262.23,-228.29 262.39,-228.26 262.55,-228.23"/>
<polygon fill="#b75867" stroke="#b75867" points="260.68,-232.17 269.81,-226.78 259.32,-225.3 260.68,-232.17"/>
</g>
<!-- Linear order&#45;&gt;Linear extension -->
<g id="edge35" class="edge">
<title>Linear order&#45;&gt;Linear extension</title>
<path fill="none" stroke="#ffffff" d="M272.24,-241.07C353.32,-246.45 375.39,-246 454,-246 454,-246 454,-246 589,-246 617.79,-246 697.04,-238.26 718,-258 735.02,-274.03 710.21,-292.75 726,-310 736.16,-321.09 750.92,-327.01 765.54,-330.05"/>
<polygon fill="#ffffff" stroke="#ffffff" points="272.26,-237.56 262.05,-240.38 271.79,-244.55 272.26,-237.56"/>
</g>
<!-- Partial function&#45;&gt;Relation -->
<g id="edge37" class="edge">
<title>Partial function&#45;&gt;Relation</title>
<path fill="none" stroke="#b75867" d="M73.86,-83.13C71.39,-84.9 69.07,-86.85 67,-89 48.89,-107.79 39.61,-136.37 34.96,-157.65"/>
<polygon fill="#b75867" stroke="#b75867" points="31.47,-157.24 32.97,-167.72 38.34,-158.59 31.47,-157.24"/>
</g>
<!-- Functions -->
<g id="node21" class="node">
<title>Functions</title>
<g id="a_node21"><a xlink:href="/Knowledge/functions.html" xlink:title="Functions" target="_parent">
<path fill="none" stroke="#b75867" d="M244,-65C244,-65 201,-65 201,-65 195,-65 189,-59 189,-53 189,-53 189,-41 189,-41 189,-35 195,-29 201,-29 201,-29 244,-29 244,-29 250,-29 256,-35 256,-41 256,-41 256,-53 256,-53 256,-59 250,-65 244,-65"/>
<text text-anchor="middle" x="222.5" y="-43.9" font-family="sans" font-size="12.00" fill="#c4c7c7">Functions</text>
</a>
</g>
</g>
<!-- Partial function&#45;&gt;Functions -->
<g id="edge38" class="edge">
<title>Partial function&#45;&gt;Functions</title>
<path fill="none" stroke="#ffffff" d="M178.11,-55.29C181.81,-54.58 185.46,-53.88 188.98,-53.21"/>
<polygon fill="#ffffff" stroke="#ffffff" points="177.42,-51.85 168.25,-57.17 178.73,-58.73 177.42,-51.85"/>
</g>
<!-- Total function&#45;&gt;Relation -->
<g id="edge39" class="edge">
<title>Total function&#45;&gt;Relation</title>
<path fill="none" stroke="#b75867" d="M77.88,-43.01C73.83,-45.51 70.09,-48.48 67,-52 41.03,-81.57 33.31,-127.82 31.15,-157.51"/>
<polygon fill="#b75867" stroke="#b75867" points="27.64,-157.46 30.58,-167.64 34.63,-157.86 27.64,-157.46"/>
</g>
<!-- Total function&#45;&gt;Functions -->
<g id="edge40" class="edge">
<title>Total function&#45;&gt;Functions</title>
<path fill="none" stroke="#ffffff" d="M174.35,-38.47C179.3,-39.37 184.21,-40.25 188.9,-41.1"/>
<polygon fill="#ffffff" stroke="#ffffff" points="174.66,-34.97 164.2,-36.63 173.41,-41.86 174.66,-34.97"/>
</g>
<!-- Reflexive Relation&#45;&gt;Relation -->
<g id="edge41" class="edge">
<title>Reflexive Relation&#45;&gt;Relation</title>
<path fill="none" stroke="#b75867" d="M534.94,-203.79C530.57,-203.12 526.22,-202.51 522,-202 445.32,-192.75 252.21,-184.22 175,-182 130.11,-180.71 116.6,-178.98 69.41,-182"/>
<polygon fill="#b75867" stroke="#b75867" points="68.89,-178.53 59.15,-182.7 69.37,-185.51 68.89,-178.53"/>
</g>
<!-- Reflexive Relation&#45;&gt;Partial order -->
<g id="edge42" class="edge">
<title>Reflexive Relation&#45;&gt;Partial order</title>
<path fill="none" stroke="#ffffff" d="M524.58,-209.61C483.51,-207.11 428.58,-203.88 380,-202 302.33,-199 211.43,-197.77 160.91,-196.98"/>
<polygon fill="#ffffff" stroke="#ffffff" points="524.51,-213.11 534.71,-210.22 524.94,-206.12 524.51,-213.11"/>
</g>
<!-- Reflexive Relation&#45;&gt;Linear order -->
<g id="edge43" class="edge">
<title>Reflexive Relation&#45;&gt;Linear order</title>
<path fill="none" stroke="#ffffff" d="M524.61,-220.18C483.56,-224.26 428.63,-229.11 380,-232 339.84,-234.39 293.81,-235.68 262.12,-236.16"/>
<polygon fill="#ffffff" stroke="#ffffff" points="525.14,-223.64 534.74,-219.15 524.44,-216.68 525.14,-223.64"/>
</g>
<!-- Reflexive Relation&#45;&gt;Reflexive Closure -->
<g id="edge44" class="edge">
<title>Reflexive Relation&#45;&gt;Reflexive Closure</title>
<path fill="none" stroke="#ffffff" d="M650.81,-231.18C651.88,-231.46 652.95,-231.73 654,-232 682.21,-239.2 696.68,-226.17 718,-246 727.17,-254.52 716.94,-264.36 726,-273 736.65,-283.16 751.21,-288.86 765.48,-291.99"/>
<polygon fill="#ffffff" stroke="#ffffff" points="651.63,-227.77 641.07,-228.56 649.82,-234.53 651.63,-227.77"/>
</g>
<!-- Reflexive Relation&#45;&gt;Relations -->
<g id="edge45" class="edge">
<title>Reflexive Relation&#45;&gt;Relations</title>
<path fill="none" stroke="#ffffff" d="M651.35,-213C652.11,-213 652.87,-213 653.62,-213"/>
<polygon fill="#ffffff" stroke="#ffffff" points="651.21,-209.5 641.21,-213 651.21,-216.5 651.21,-209.5"/>
</g>
<!-- Reflexive Relation&#45;&gt;Relation of Equivalence -->
<g id="edge46" class="edge">
<title>Reflexive Relation&#45;&gt;Relation of Equivalence</title>
<path fill="none" stroke="#ffffff" d="M525.19,-192.04C518.6,-189.73 511.95,-187.39 505.53,-185.12"/>
<polygon fill="#ffffff" stroke="#ffffff" points="524.19,-195.4 534.78,-195.4 526.5,-188.8 524.19,-195.4"/>
</g>
<!-- Reflexive Relation&#45;&gt;Partial orders have no contours -->
<g id="edge47" class="edge">
<title>Reflexive Relation&#45;&gt;Partial orders have no contours</title>
<path fill="none" stroke="#ffffff" d="M641.16,-189.52C642.83,-188.38 644.44,-187.21 646,-186 685.62,-155.19 686.32,-137.93 718,-99 721.59,-94.59 720.94,-91.61 726,-89 743.91,-79.78 886.94,-80.83 907,-79 909.62,-78.76 912.28,-78.5 914.97,-78.23"/>
<polygon fill="#ffffff" stroke="#ffffff" points="639.17,-186.63 632.52,-194.88 642.86,-192.58 639.17,-186.63"/>
</g>
<!-- Symmetric Closure&#45;&gt;Relation -->
<g id="edge49" class="edge">
<title>Symmetric Closure&#45;&gt;Relation</title>
<path fill="none" stroke="#b75867" d="M760.58,-260.32C714.72,-261.64 647.6,-263 589,-263 221.5,-263 221.5,-263 221.5,-263 152.8,-263 125.06,-294.74 67,-258 51.63,-248.27 42.42,-229.86 37.1,-214.08"/>
<polygon fill="#b75867" stroke="#b75867" points="40.37,-212.79 34.14,-204.22 33.67,-214.8 40.37,-212.79"/>
</g>
<!-- Symmetric Closure&#45;&gt;Symmetric Relation -->
<g id="edge51" class="edge">
<title>Symmetric Closure&#45;&gt;Symmetric Relation</title>
<path fill="none" stroke="#b75867" d="M872.06,-258C891.58,-258 913.81,-258 934.24,-258"/>
<polygon fill="#b75867" stroke="#b75867" points="934.42,-261.5 944.42,-258 934.42,-254.5 934.42,-261.5"/>
</g>
<!-- Symmetric Closure&#45;&gt;Relations -->
<g id="edge52" class="edge">
<title>Symmetric Closure&#45;&gt;Relations</title>
<path fill="none" stroke="#ffffff" d="M750.82,-244.5C742.35,-242.04 733.88,-239.21 726,-236 722.51,-234.58 718.95,-232.88 715.48,-231.06"/>
<polygon fill="#ffffff" stroke="#ffffff" points="750.17,-247.95 760.74,-247.23 752.02,-241.2 750.17,-247.95"/>
</g>
<!-- Symmetric Closure&#45;&gt;Relations -->
<g id="edge53" class="edge">
<title>Symmetric Closure&#45;&gt;Relations</title>
<path fill="none" stroke="#ffffff" d="M750.82,-245.49C742.35,-243.04 733.88,-240.21 726,-237 721.92,-235.34 717.76,-233.3 713.75,-231.13"/>
<polygon fill="#ffffff" stroke="#ffffff" points="750.17,-248.94 760.74,-248.2 752.02,-242.19 750.17,-248.94"/>
</g>
<!-- Matrix -->
<g id="node22" class="node">
<title>Matrix</title>
<g id="a_node22"><a xlink:href="/Knowledge/matrix.html" xlink:title="Matrix" target="_parent">
<path fill="#273434" stroke="#b75867" d="M1017,-313C1017,-313 987,-313 987,-313 981,-313 975,-307 975,-301 975,-301 975,-289 975,-289 975,-283 981,-277 987,-277 987,-277 1017,-277 1017,-277 1023,-277 1029,-283 1029,-289 1029,-289 1029,-301 1029,-301 1029,-307 1023,-313 1017,-313"/>
<text text-anchor="middle" x="1002" y="-291.9" font-family="sans" font-size="12.00" fill="#c4c7c7">Matrix</text>
</a>
</g>
</g>
<!-- Symmetric Closure&#45;&gt;Matrix -->
<g id="edge48" class="edge">
<title>Symmetric Closure&#45;&gt;Matrix</title>
<path fill="none" stroke="#b75867" d="M872.06,-269C902.09,-275.06 938.52,-282.4 964.99,-287.74"/>
<polygon fill="#b75867" stroke="#b75867" points="964.47,-291.2 974.96,-289.75 965.85,-284.34 964.47,-291.2"/>
</g>
<!-- Set -->
<g id="node23" class="node">
<title>Set</title>
<g id="a_node23"><a xlink:href="/Knowledge/set.html" xlink:title="Set" target="_parent">
<path fill="#273434" stroke="#b75867" d="M1017,-239C1017,-239 987,-239 987,-239 981,-239 975,-233 975,-227 975,-227 975,-215 975,-215 975,-209 981,-203 987,-203 987,-203 1017,-203 1017,-203 1023,-203 1029,-209 1029,-215 1029,-215 1029,-227 1029,-227 1029,-233 1023,-239 1017,-239"/>
<text text-anchor="middle" x="1002" y="-217.9" font-family="sans" font-size="12.00" fill="#c4c7c7">Set</text>
</a>
</g>
</g>
<!-- Symmetric Closure&#45;&gt;Set -->
<g id="edge50" class="edge">
<title>Symmetric Closure&#45;&gt;Set</title>
<path fill="none" stroke="#b75867" d="M872.06,-247C902.09,-240.94 938.52,-233.6 964.99,-228.26"/>
<polygon fill="#b75867" stroke="#b75867" points="965.85,-231.66 974.96,-226.25 964.47,-224.8 965.85,-231.66"/>
</g>
<!-- Anti&#45;symmetric Relation&#45;&gt;Relation -->
<g id="edge54" class="edge">
<title>Anti&#45;symmetric Relation&#45;&gt;Relation</title>
<path fill="none" stroke="#b75867" d="M747.58,-73.99C740.22,-76.12 732.91,-78.46 726,-81 722.27,-82.37 721.85,-84.01 718,-85 662.42,-99.26 646.38,-90 589,-90 221.5,-90 221.5,-90 221.5,-90 186.91,-90 95,-88.68 67,-109 51.07,-120.56 41.87,-140.87 36.69,-157.72"/>
<polygon fill="#b75867" stroke="#b75867" points="33.23,-157.1 33.96,-167.66 39.98,-158.95 33.23,-157.1"/>
</g>
<!-- Anti&#45;symmetric Relation&#45;&gt;Partial order -->
<g id="edge55" class="edge">
<title>Anti&#45;symmetric Relation&#45;&gt;Partial order</title>
<path fill="none" stroke="#ffffff" d="M738.11,-74.46C733.89,-76.39 729.82,-78.56 726,-81 721.2,-84.06 723.07,-88.42 718,-91 685.29,-107.65 416.59,-82.98 388,-106 377.25,-114.65 389.47,-125.96 380,-136 342.1,-176.18 315.68,-162 262,-175 228.16,-183.19 188.96,-189.05 160.66,-192.48"/>
<polygon fill="#ffffff" stroke="#ffffff" points="739.61,-77.63 747.54,-70.6 736.96,-71.15 739.61,-77.63"/>
</g>
<!-- Anti&#45;symmetric Relation&#45;&gt;Relations -->
<g id="edge56" class="edge">
<title>Anti&#45;symmetric Relation&#45;&gt;Relations</title>
<path fill="none" stroke="#ffffff" d="M739.02,-76.86C734.28,-79.75 729.88,-83.1 726,-87 710.71,-102.37 696.84,-163.66 690.56,-194.74"/>
<polygon fill="#ffffff" stroke="#ffffff" points="740.68,-79.94 747.85,-72.14 737.38,-73.77 740.68,-79.94"/>
</g>
<!-- Symmetric Relation&#45;&gt;Relation -->
<g id="edge57" class="edge">
<title>Symmetric Relation&#45;&gt;Relation</title>
<path fill="none" stroke="#b75867" d="M944.41,-263.01C933.17,-266.45 922.53,-272.03 915,-281 900.09,-298.75 923.83,-369.06 907,-385 836,-452.26 784.8,-390 687,-390 221.5,-390 221.5,-390 221.5,-390 140.42,-390 117.41,-356.51 67,-293 48.74,-270 39.33,-237.28 34.67,-214.1"/>
<polygon fill="#b75867" stroke="#b75867" points="38.1,-213.39 32.86,-204.18 31.22,-214.65 38.1,-213.39"/>
</g>
<!-- Symmetric Relation&#45;&gt;Symmetric Closure -->
<g id="edge58" class="edge">
<title>Symmetric Relation&#45;&gt;Symmetric Closure</title>
<path fill="none" stroke="#ffffff" d="M934.24,-258.72C913.81,-258.77 891.58,-258.76 872.06,-258.69"/>
<polygon fill="#ffffff" stroke="#ffffff" points="934.43,-262.22 944.42,-258.7 934.41,-255.22 934.43,-262.22"/>
</g>
<!-- Symmetric Relation&#45;&gt;Relations -->
<g id="edge59" class="edge">
<title>Symmetric Relation&#45;&gt;Relations</title>
<path fill="none" stroke="#ffffff" d="M934.77,-249.96C927.45,-246.78 920.62,-242.56 915,-237 905.19,-227.29 917.94,-215.41 907,-207 891.05,-194.75 746.03,-205.22 726,-207 723.4,-207.23 720.71,-207.55 718.01,-207.92"/>
<polygon fill="#ffffff" stroke="#ffffff" points="933.65,-253.28 944.25,-253.46 936.08,-246.71 933.65,-253.28"/>
</g>
<!-- Symmetric Relation&#45;&gt;Relation of Equivalence -->
<g id="edge60" class="edge">
<title>Symmetric Relation&#45;&gt;Relation of Equivalence</title>
<path fill="none" stroke="#ffffff" d="M934.86,-251.43C927.27,-248.05 920.35,-243.38 915,-237 899.68,-218.72 924.02,-146.7 907,-130 892.62,-115.9 745.47,-125.17 726,-120 722.16,-118.98 721.85,-116.99 718,-116 686.99,-107.99 678.02,-113.67 646,-113 594.46,-111.93 578.95,-96.8 530,-113 508.57,-120.09 488.3,-136.06 474.41,-148.8"/>
<polygon fill="#ffffff" stroke="#ffffff" points="933.8,-254.77 944.4,-254.95 936.23,-248.21 933.8,-254.77"/>
</g>
<!-- Reflexive Closure&#45;&gt;Relation -->
<g id="edge62" class="edge">
<title>Reflexive Closure&#45;&gt;Relation</title>
<path fill="none" stroke="#b75867" d="M765.26,-288.43C706.92,-280.59 607.72,-267.84 522,-262 371.65,-251.76 332.6,-273.13 183,-255 130.55,-248.65 112.37,-256.07 67,-229 59.88,-224.75 53.44,-218.64 48.01,-212.34"/>
<polygon fill="#b75867" stroke="#b75867" points="50.67,-210.06 41.71,-204.4 45.19,-214.41 50.67,-210.06"/>
</g>
<!-- Reflexive Closure&#45;&gt;Reflexive Relation -->
<g id="edge64" class="edge">
<title>Reflexive Closure&#45;&gt;Reflexive Relation</title>
<path fill="none" stroke="#b75867" d="M765.48,-292.95C751.21,-289.86 736.65,-284.16 726,-274 716.94,-265.36 727.17,-255.52 718,-247 696.68,-227.17 682.21,-240.2 654,-233 652.95,-232.73 651.88,-232.46 650.81,-232.18"/>
<polygon fill="#b75867" stroke="#b75867" points="651.63,-228.77 641.07,-229.56 649.82,-235.53 651.63,-228.77"/>
</g>
<!-- Reflexive Closure&#45;&gt;Relations -->
<g id="edge65" class="edge">
<title>Reflexive Closure&#45;&gt;Relations</title>
<path fill="none" stroke="#ffffff" d="M755.47,-289.77C744.52,-286.34 734.04,-281.06 726,-273 715.35,-262.31 725.84,-252.9 718,-240 716.07,-236.83 713.65,-233.83 711.01,-231.07"/>
<polygon fill="#ffffff" stroke="#ffffff" points="754.6,-293.16 765.16,-292.32 756.38,-286.39 754.6,-293.16"/>
</g>
<!-- Reflexive Closure&#45;&gt;Relations -->
<g id="edge66" class="edge">
<title>Reflexive Closure&#45;&gt;Relations</title>
<path fill="none" stroke="#ffffff" d="M755.47,-290.74C744.52,-287.34 734.04,-282.06 726,-274 715.35,-263.31 725.84,-253.9 718,-241 715.85,-237.46 713.08,-234.14 710.09,-231.11"/>
<polygon fill="#ffffff" stroke="#ffffff" points="754.6,-294.14 765.16,-293.27 756.37,-287.36 754.6,-294.14"/>
</g>
<!-- Reflexive Closure&#45;&gt;Matrix -->
<g id="edge61" class="edge">
<title>Reflexive Closure&#45;&gt;Matrix</title>
<path fill="none" stroke="#b75867" d="M867.64,-295C898.41,-295 937.1,-295 964.87,-295"/>
<polygon fill="#b75867" stroke="#b75867" points="964.94,-298.5 974.94,-295 964.94,-291.5 964.94,-298.5"/>
</g>
<!-- Reflexive Closure&#45;&gt;Set -->
<g id="edge63" class="edge">
<title>Reflexive Closure&#45;&gt;Set</title>
<path fill="none" stroke="#b75867" d="M867.69,-292.17C881.97,-289.05 896.49,-283.31 907,-273 916.85,-263.34 905.19,-252.71 915,-243 927.97,-230.16 947.34,-224.49 964.42,-222.11"/>
<polygon fill="#b75867" stroke="#b75867" points="965.11,-225.55 974.68,-221.01 964.36,-218.59 965.11,-225.55"/>
</g>
<!-- Anti&#45;reflexive relation&#45;&gt;Relation -->
<g id="edge67" class="edge">
<title>Anti&#45;reflexive relation&#45;&gt;Relation</title>
<path fill="none" stroke="#b75867" d="M754.46,-103.58C708.87,-102.93 645.04,-102 589,-102 221.5,-102 221.5,-102 221.5,-102 161.69,-102 99.74,-137.22 63.18,-162.05"/>
<polygon fill="#b75867" stroke="#b75867" points="61.12,-159.22 54.9,-167.8 65.11,-164.98 61.12,-159.22"/>
</g>
<!-- Anti&#45;reflexive relation&#45;&gt;Relations -->
<g id="edge68" class="edge">
<title>Anti&#45;reflexive relation&#45;&gt;Relations</title>
<path fill="none" stroke="#ffffff" d="M744.76,-115.72C737.99,-118.66 731.58,-122.35 726,-127 705.15,-144.39 695.01,-175.2 690.41,-194.84"/>
<polygon fill="#ffffff" stroke="#ffffff" points="746.06,-118.97 754.18,-112.17 743.59,-112.42 746.06,-118.97"/>
</g>
<!-- Strongly Anti&#45;symmetric Relation&#45;&gt;Relation -->
<g id="edge69" class="edge">
<title>Strongly Anti&#45;symmetric Relation&#45;&gt;Relation</title>
<path fill="none" stroke="#b75867" d="M738.03,-350.97C678.52,-336.99 604.03,-320 589,-320 221.5,-320 221.5,-320 221.5,-320 148.91,-320 120.77,-315.77 67,-267 51.59,-253.03 42.25,-231.26 36.87,-213.81"/>
<polygon fill="#b75867" stroke="#b75867" points="40.23,-212.81 34.15,-204.13 33.49,-214.7 40.23,-212.81"/>
</g>
<!-- Strongly Anti&#45;symmetric Relation&#45;&gt;Linear order -->
<g id="edge70" class="edge">
<title>Strongly Anti&#45;symmetric Relation&#45;&gt;Linear order</title>
<path fill="none" stroke="#ffffff" d="M723.55,-342.63C720.42,-333.98 725.14,-326.34 718,-319 654.49,-253.69 611.69,-274.98 522,-259 411.57,-239.33 381.46,-257.64 270,-245 267.4,-244.7 264.72,-244.36 262.02,-243.98"/>
<polygon fill="#ffffff" stroke="#ffffff" points="720.67,-344.61 729.21,-350.88 726.44,-340.66 720.67,-344.61"/>
</g>
<!-- Strongly Anti&#45;symmetric Relation&#45;&gt;Relations -->
<g id="edge71" class="edge">
<title>Strongly Anti&#45;symmetric Relation&#45;&gt;Relations</title>
<path fill="none" stroke="#ffffff" d="M723.75,-341.88C715.84,-318.9 723.85,-275.2 718,-259 714.39,-249.01 708.01,-239.14 701.97,-231.13"/>
<polygon fill="#ffffff" stroke="#ffffff" points="720.75,-343.69 728.61,-350.8 726.9,-340.34 720.75,-343.69"/>
</g>
<!-- Relations&#45;&gt;Relation -->
<g id="edge90" class="edge">
<title>Relations&#45;&gt;Relation</title>
<path fill="none" stroke="#b75867" d="M653.88,-198.34C651.26,-197.42 648.61,-196.62 646,-196 595.05,-183.9 227.36,-180.89 175,-180 130.1,-179.24 116.51,-175.93 69.36,-180.02"/>
<polygon fill="#b75867" stroke="#b75867" points="68.75,-176.56 59.12,-180.98 69.4,-183.53 68.75,-176.56"/>
</g>
<!-- Relations&#45;&gt;Partial order -->
<g id="edge75" class="edge">
<title>Relations&#45;&gt;Partial order</title>
<path fill="none" stroke="#b75867" d="M653.77,-200.93C651.17,-200.17 648.56,-199.51 646,-199 591.92,-188.28 577.12,-196.67 522,-196 395.33,-194.47 246.08,-195.63 170.74,-196.06"/>
<polygon fill="#b75867" stroke="#b75867" points="170.6,-192.56 160.62,-196.11 170.63,-199.56 170.6,-192.56"/>
</g>
<!-- Relations&#45;&gt;Chain -->
<g id="edge72" class="edge">
<title>Relations&#45;&gt;Chain</title>
<path fill="none" stroke="#b75867" d="M691.74,-194.7C698.12,-169.76 709.63,-123.67 718,-84 722.1,-64.55 712.38,-54.48 726,-40 739.53,-25.61 760.83,-19.98 779.25,-18.01"/>
<polygon fill="#b75867" stroke="#b75867" points="779.7,-21.49 789.41,-17.25 779.17,-14.51 779.7,-21.49"/>
</g>
<!-- Relations&#45;&gt;Linear order -->
<g id="edge74" class="edge">
<title>Relations&#45;&gt;Linear order</title>
<path fill="none" stroke="#b75867" d="M654.87,-231.14C651.94,-232.29 648.96,-233.28 646,-234 576.56,-251.03 367.88,-243.86 272.29,-239.03"/>
<polygon fill="#b75867" stroke="#b75867" points="272.19,-235.52 262.03,-238.5 271.83,-242.52 272.19,-235.52"/>
</g>
<!-- Relations&#45;&gt;Reflexive Relation -->
<g id="edge89" class="edge">
<title>Relations&#45;&gt;Reflexive Relation</title>
<path fill="none" stroke="#b75867" d="M653.62,-213.71C652.87,-213.71 652.11,-213.72 651.35,-213.72"/>
<polygon fill="#b75867" stroke="#b75867" points="651.2,-210.22 641.21,-213.75 651.22,-217.22 651.2,-210.22"/>
</g>
<!-- Relations&#45;&gt;Symmetric Closure -->
<g id="edge79" class="edge">
<title>Relations&#45;&gt;Symmetric Closure</title>
<path fill="none" stroke="#b75867" d="M717.66,-231.18C720.43,-232.57 723.23,-233.87 726,-235 733.88,-238.21 742.35,-241.04 750.82,-243.51"/>
<polygon fill="#b75867" stroke="#b75867" points="750.17,-246.96 760.74,-246.25 752.03,-240.21 750.17,-246.96"/>
</g>
<!-- Relations&#45;&gt;Symmetric Closure -->
<g id="edge81" class="edge">
<title>Relations&#45;&gt;Symmetric Closure</title>
<path fill="none" stroke="#b75867" d="M712.04,-231.17C716.57,-233.71 721.34,-236.1 726,-238 733.88,-241.21 742.35,-244.04 750.82,-246.48"/>
<polygon fill="#b75867" stroke="#b75867" points="750.17,-249.93 760.74,-249.18 752.01,-243.18 750.17,-249.93"/>
</g>
<!-- Relations&#45;&gt;Anti&#45;symmetric Relation -->
<g id="edge86" class="edge">
<title>Relations&#45;&gt;Anti&#45;symmetric Relation</title>
<path fill="none" stroke="#b75867" d="M690.46,-194.63C696.7,-163.31 710.63,-101.45 726,-86 729.88,-82.1 734.28,-78.75 739.02,-75.86"/>
<polygon fill="#b75867" stroke="#b75867" points="740.68,-78.94 747.85,-71.15 737.38,-72.77 740.68,-78.94"/>
</g>
<!-- Relations&#45;&gt;Symmetric Relation -->
<g id="edge87" class="edge">
<title>Relations&#45;&gt;Symmetric Relation</title>
<path fill="none" stroke="#b75867" d="M718.01,-206.92C720.71,-206.55 723.4,-206.23 726,-206 746.03,-204.22 891.05,-193.75 907,-206 917.94,-214.41 905.19,-226.29 915,-236 920.62,-241.56 927.45,-245.78 934.77,-248.97"/>
<polygon fill="#b75867" stroke="#b75867" points="933.65,-252.29 944.25,-252.48 936.08,-245.73 933.65,-252.29"/>
</g>
<!-- Relations&#45;&gt;Reflexive Closure -->
<g id="edge80" class="edge">
<title>Relations&#45;&gt;Reflexive Closure</title>
<path fill="none" stroke="#b75867" d="M711.92,-231.04C714.2,-233.53 716.3,-236.19 718,-239 725.84,-251.9 715.35,-261.31 726,-272 734.04,-280.06 744.52,-285.34 755.47,-288.79"/>
<polygon fill="#b75867" stroke="#b75867" points="754.6,-292.18 765.16,-291.36 756.4,-285.41 754.6,-292.18"/>
</g>
<!-- Relations&#45;&gt;Reflexive Closure -->
<g id="edge83" class="edge">
<title>Relations&#45;&gt;Reflexive Closure</title>
<path fill="none" stroke="#b75867" d="M709.15,-231.16C712.5,-234.46 715.63,-238.1 718,-242 725.84,-254.9 715.35,-264.31 726,-275 734.04,-283.06 744.52,-288.34 755.47,-291.72"/>
<polygon fill="#b75867" stroke="#b75867" points="754.61,-295.11 765.16,-294.23 756.36,-288.34 754.61,-295.11"/>
</g>
<!-- Relations&#45;&gt;Anti&#45;reflexive relation -->
<g id="edge88" class="edge">
<title>Relations&#45;&gt;Anti&#45;reflexive relation</title>
<path fill="none" stroke="#b75867" d="M690.25,-194.83C694.77,-174.96 704.9,-143.6 726,-126 731.58,-121.35 737.99,-117.66 744.76,-114.73"/>
<polygon fill="#b75867" stroke="#b75867" points="746.05,-117.98 754.18,-111.19 743.59,-111.43 746.05,-117.98"/>
</g>
<!-- Relations&#45;&gt;Strongly Anti&#45;symmetric Relation -->
<g id="edge85" class="edge">
<title>Relations&#45;&gt;Strongly Anti&#45;symmetric Relation</title>
<path fill="none" stroke="#b75867" d="M702.61,-231.07C708.46,-238.85 714.52,-248.36 718,-258 723.87,-274.27 715.77,-318.3 724.53,-341.84"/>
<polygon fill="#b75867" stroke="#b75867" points="721.64,-343.83 729.63,-350.79 727.72,-340.37 721.64,-343.83"/>
</g>
<!-- Relations&#45;&gt;Transitive Relation -->
<g id="edge84" class="edge">
<title>Relations&#45;&gt;Transitive Relation</title>
<path fill="none" stroke="#b75867" d="M653.79,-227.13C651.18,-227.88 648.57,-228.52 646,-229 558.44,-245.26 455.17,-236.47 390.13,-227.37"/>
<polygon fill="#b75867" stroke="#b75867" points="390.43,-223.88 380.03,-225.91 389.43,-230.81 390.43,-223.88"/>
</g>
<!-- Relations&#45;&gt;Relation of Equivalence -->
<g id="edge77" class="edge">
<title>Relations&#45;&gt;Relation of Equivalence</title>
<path fill="none" stroke="#b75867" d="M653.97,-195.88C651.33,-194.78 648.65,-193.79 646,-193 599.32,-179.07 583.12,-189.04 532.05,-183.09"/>
<polygon fill="#b75867" stroke="#b75867" points="532.47,-179.62 522.1,-181.79 531.56,-186.56 532.47,-179.62"/>
</g>
<!-- Relations&#45;&gt;Linear extension -->
<g id="edge73" class="edge">
<title>Relations&#45;&gt;Linear extension</title>
<path fill="none" stroke="#b75867" d="M708.3,-231.04C712.09,-235.25 715.6,-239.98 718,-245 730.56,-271.26 706.67,-288.24 726,-310 733.81,-318.79 744.5,-324.35 755.79,-327.8"/>
<polygon fill="#b75867" stroke="#b75867" points="755.25,-331.28 765.8,-330.33 756.96,-324.49 755.25,-331.28"/>
</g>
<!-- Class of equivalence -->
<g id="node24" class="node">
<title>Class of equivalence</title>
<g id="a_node24"><a xlink:href="/Knowledge/class_of_equivalence.html" xlink:title="Class of equivalence" target="_parent">
<path fill="#273434" stroke="#b75867" d="M864,-162C864,-162 769,-162 769,-162 763,-162 757,-156 757,-150 757,-150 757,-138 757,-138 757,-132 763,-126 769,-126 769,-126 864,-126 864,-126 870,-126 876,-132 876,-138 876,-138 876,-150 876,-150 876,-156 870,-162 864,-162"/>
<text text-anchor="middle" x="816.5" y="-140.9" font-family="sans" font-size="12.00" fill="#c4c7c7">Class of equivalence</text>
</a>
</g>
</g>
<!-- Relations&#45;&gt;Class of equivalence -->
<g id="edge76" class="edge">
<title>Relations&#45;&gt;Class of equivalence</title>
<path fill="none" stroke="#b75867" d="M697.87,-194.9C704.75,-184.95 714.5,-173.2 726,-166 732.58,-161.88 739.88,-158.53 747.39,-155.81"/>
<polygon fill="#b75867" stroke="#b75867" points="748.55,-159.11 756.98,-152.69 746.39,-152.45 748.55,-159.11"/>
</g>
<!-- Transitive Closure -->
<g id="node25" class="node">
<title>Transitive Closure</title>
<g id="a_node25"><a xlink:href="/Knowledge/transitive_closure.html" xlink:title="Transitive Closure" target="_parent">
<path fill="#273434" stroke="#b75867" d="M857.5,-239C857.5,-239 775.5,-239 775.5,-239 769.5,-239 763.5,-233 763.5,-227 763.5,-227 763.5,-215 763.5,-215 763.5,-209 769.5,-203 775.5,-203 775.5,-203 857.5,-203 857.5,-203 863.5,-203 869.5,-209 869.5,-215 869.5,-215 869.5,-227 869.5,-227 869.5,-233 863.5,-239 857.5,-239"/>
<text text-anchor="middle" x="816.5" y="-217.9" font-family="sans" font-size="12.00" fill="#c4c7c7">Transitive Closure</text>
</a>
</g>
</g>
<!-- Relations&#45;&gt;Transitive Closure -->
<g id="edge78" class="edge">
<title>Relations&#45;&gt;Transitive Closure</title>
<path fill="none" stroke="#b75867" d="M718.11,-214.94C728.73,-215.6 741.01,-216.36 753.2,-217.12"/>
<polygon fill="#b75867" stroke="#b75867" points="753.18,-220.63 763.38,-217.75 753.61,-213.64 753.18,-220.63"/>
</g>
<!-- Relations&#45;&gt;Transitive Closure -->
<g id="edge82" class="edge">
<title>Relations&#45;&gt;Transitive Closure</title>
<path fill="none" stroke="#b75867" d="M718.11,-215.59C728.73,-216.32 741.01,-217.12 753.2,-217.87"/>
<polygon fill="#b75867" stroke="#b75867" points="753.18,-221.38 763.38,-218.49 753.61,-214.39 753.18,-221.38"/>
</g>
<!-- Discrete Structures -->
<g id="node26" class="node">
<title>Discrete Structures</title>
<g id="a_node26"><a xlink:href="/Knowledge/discrete_structures.html" xlink:title="Discrete Structures" target="_parent">
<path fill="none" stroke="#b75867" d="M860,-199C860,-199 773,-199 773,-199 767,-199 761,-193 761,-187 761,-187 761,-175 761,-175 761,-169 767,-163 773,-163 773,-163 860,-163 860,-163 866,-163 872,-169 872,-175 872,-175 872,-187 872,-187 872,-193 866,-199 860,-199"/>
<text text-anchor="middle" x="816.5" y="-177.9" font-family="sans" font-size="12.00" fill="#c4c7c7">Discrete Structures</text>
</a>
</g>
</g>
<!-- Relations&#45;&gt;Discrete Structures -->
<g id="edge91" class="edge">
<title>Relations&#45;&gt;Discrete Structures</title>
<path fill="none" stroke="#ffffff" d="M728.11,-202.48C741.64,-199.09 751.29,-196.7 760.57,-194.41"/>
<polygon fill="#ffffff" stroke="#ffffff" points="726.92,-199.17 718.07,-205 728.62,-205.96 726.92,-199.17"/>
</g>
<!-- Transitive Relation&#45;&gt;Relation -->
<g id="edge92" class="edge">
<title>Transitive Relation&#45;&gt;Relation</title>
<path fill="none" stroke="#b75867" d="M269.83,-219.26C205.8,-221.96 103.34,-223.64 67,-212 64.57,-211.22 62.15,-210.22 59.79,-209.07"/>
<polygon fill="#b75867" stroke="#b75867" points="61.43,-205.98 51.01,-204.03 57.94,-212.05 61.43,-205.98"/>
</g>
<!-- Transitive Relation&#45;&gt;Partial order -->
<g id="edge93" class="edge">
<title>Transitive Relation&#45;&gt;Partial order</title>
<path fill="none" stroke="#ffffff" d="M259.59,-210.33C227.15,-207.2 188.88,-203.38 160.95,-200.46"/>
<polygon fill="#ffffff" stroke="#ffffff" points="259.61,-213.85 269.9,-211.32 260.28,-206.88 259.61,-213.85"/>
</g>
<!-- Transitive Relation&#45;&gt;Linear order -->
<g id="edge94" class="edge">
<title>Transitive Relation&#45;&gt;Linear order</title>
<path fill="none" stroke="#ffffff" d="M262.55,-228.96C262.39,-228.99 262.23,-229.03 262.07,-229.06"/>
<polygon fill="#ffffff" stroke="#ffffff" points="260.67,-232.9 269.81,-227.53 259.32,-226.03 260.67,-232.9"/>
</g>
<!-- Transitive Relation&#45;&gt;Relations -->
<g id="edge96" class="edge">
<title>Transitive Relation&#45;&gt;Relations</title>
<path fill="none" stroke="#ffffff" d="M390.13,-226.62C455.17,-235.47 558.44,-244.26 646,-228 648.57,-227.52 651.18,-226.88 653.79,-226.14"/>
<polygon fill="#ffffff" stroke="#ffffff" points="390.42,-223.12 380.03,-225.2 389.45,-230.06 390.42,-223.12"/>
</g>
<!-- Transitive Relation&#45;&gt;Relation of Equivalence -->
<g id="edge97" class="edge">
<title>Transitive Relation&#45;&gt;Relation of Equivalence</title>
<path fill="none" stroke="#ffffff" d="M382.69,-194.3C390.77,-191.2 399.02,-188.05 406.9,-185.03"/>
<polygon fill="#ffffff" stroke="#ffffff" points="381.39,-191.05 373.3,-197.89 383.89,-197.59 381.39,-191.05"/>
</g>
<!-- Transitive Relation&#45;&gt;Partial orders have no contours -->
<g id="edge98" class="edge">
<title>Transitive Relation&#45;&gt;Partial orders have no contours</title>
<path fill="none" stroke="#ffffff" d="M361.39,-191.14C368.23,-185.14 374.86,-178.32 380,-171 385.98,-162.49 380.49,-156.2 388,-149 435.78,-103.18 464.9,-116.03 530,-104 571.15,-96.4 680.83,-112.22 718,-93 723.06,-90.39 720.94,-85.61 726,-83 743.91,-73.78 886.89,-74.2 907,-73 909.61,-72.84 912.26,-72.68 914.94,-72.52"/>
<polygon fill="#ffffff" stroke="#ffffff" points="358.82,-188.73 353.35,-197.8 363.28,-194.12 358.82,-188.73"/>
</g>
<!-- Transitive Relation&#45;&gt;Transitive Closure -->
<g id="edge95" class="edge">
<title>Transitive Relation&#45;&gt;Transitive Closure</title>
<path fill="none" stroke="#ffffff" d="M390.46,-231.11C535.39,-247.92 574.81,-238.32 718,-231 732.78,-230.24 748.78,-228.85 763.46,-227.33"/>
<polygon fill="#ffffff" stroke="#ffffff" points="390.64,-227.61 380.3,-229.91 389.82,-234.56 390.64,-227.61"/>
</g>
<!-- Relation of Equivalence&#45;&gt;Relation -->
<g id="edge105" class="edge">
<title>Relation of Equivalence&#45;&gt;Relation</title>
<path fill="none" stroke="#b75867" d="M387.9,-161.57C312.48,-156.39 185.47,-151.95 69.43,-172.98"/>
<polygon fill="#b75867" stroke="#b75867" points="68.5,-169.6 59.32,-174.89 69.79,-176.48 68.5,-169.6"/>
</g>
<!-- Relation of Equivalence&#45;&gt;Reflexive Relation -->
<g id="edge104" class="edge">
<title>Relation of Equivalence&#45;&gt;Reflexive Relation</title>
<path fill="none" stroke="#b75867" d="M507.4,-185.05C513.42,-187.16 519.61,-189.34 525.75,-191.49"/>
<polygon fill="#b75867" stroke="#b75867" points="524.72,-194.84 535.32,-194.85 527.04,-188.24 524.72,-194.84"/>
</g>
<!-- Relation of Equivalence&#45;&gt;Symmetric Relation -->
<g id="edge103" class="edge">
<title>Relation of Equivalence&#45;&gt;Symmetric Relation</title>
<path fill="none" stroke="#b75867" d="M473.53,-148.79C487.44,-135.74 508.12,-119.24 530,-112 578.95,-95.8 594.46,-110.93 646,-112 678.02,-112.67 686.99,-106.99 718,-115 721.85,-115.99 722.16,-117.98 726,-119 745.47,-124.17 892.62,-114.9 907,-129 924.02,-145.7 899.68,-217.72 915,-236 920.35,-242.38 927.27,-247.05 934.86,-250.44"/>
<polygon fill="#b75867" stroke="#b75867" points="933.8,-253.78 944.4,-253.98 936.24,-247.22 933.8,-253.78"/>
</g>
<!-- Relation of Equivalence&#45;&gt;Relations -->
<g id="edge107" class="edge">
<title>Relation of Equivalence&#45;&gt;Relations</title>
<path fill="none" stroke="#ffffff" d="M532.05,-182.09C583.12,-188.04 599.32,-178.07 646,-192 648.65,-192.79 651.33,-193.78 653.97,-194.88"/>
<polygon fill="#ffffff" stroke="#ffffff" points="532.47,-178.62 522.1,-180.79 531.56,-185.56 532.47,-178.62"/>
</g>
<!-- Relation of Equivalence&#45;&gt;Transitive Relation -->
<g id="edge102" class="edge">
<title>Relation of Equivalence&#45;&gt;Transitive Relation</title>
<path fill="none" stroke="#b75867" d="M408.58,-185.11C400.79,-188.12 392.59,-191.26 384.52,-194.35"/>
<polygon fill="#b75867" stroke="#b75867" points="383.22,-191.1 375.12,-197.93 385.71,-197.64 383.22,-191.1"/>
</g>
<!-- Relation of Equivalence&#45;&gt;Set -->
<g id="edge100" class="edge">
<title>Relation of Equivalence&#45;&gt;Set</title>
<path fill="none" stroke="#b75867" d="M472.6,-148.99C486.47,-135.3 507.53,-117.43 530,-109 569.17,-94.3 682.03,-120.37 718,-99 723.83,-95.53 720.08,-89.31 726,-86 743.56,-76.19 889.17,-76.69 907,-86 950.13,-108.52 977.49,-160.86 990.96,-193.35"/>
<polygon fill="#b75867" stroke="#b75867" points="987.75,-194.75 994.7,-202.75 994.25,-192.16 987.75,-194.75"/>
</g>
<!-- Relation of Equivalence&#45;&gt;Class of equivalence -->
<g id="edge99" class="edge">
<title>Relation of Equivalence&#45;&gt;Class of equivalence</title>
<path fill="none" stroke="#b75867" d="M474.6,-148.99C488.59,-136.77 508.89,-121.68 530,-115 579.16,-99.46 594.63,-110.64 646,-115 679.41,-117.84 716.12,-123.77 746.82,-129.53"/>
<polygon fill="#b75867" stroke="#b75867" points="746.5,-133.03 756.98,-131.47 747.82,-126.16 746.5,-133.03"/>
</g>
<!-- Partition -->
<g id="node27" class="node">
<title>Partition</title>
<g id="a_node27"><a xlink:href="/Knowledge/partition.html" xlink:title="Partition" target="_parent">
<path fill="#273434" stroke="#b75867" d="M606,-185C606,-185 570,-185 570,-185 564,-185 558,-179 558,-173 558,-173 558,-161 558,-161 558,-155 564,-149 570,-149 570,-149 606,-149 606,-149 612,-149 618,-155 618,-161 618,-161 618,-173 618,-173 618,-179 612,-185 606,-185"/>
<text text-anchor="middle" x="588" y="-163.9" font-family="sans" font-size="12.00" fill="#c4c7c7">Partition</text>
</a>
</g>
</g>
<!-- Relation of Equivalence&#45;&gt;Partition -->
<g id="edge101" class="edge">
<title>Relation of Equivalence&#45;&gt;Partition</title>
<path fill="none" stroke="#b75867" d="M522.27,-167C530.92,-167 539.55,-167 547.56,-167"/>
<polygon fill="#b75867" stroke="#b75867" points="547.68,-170.5 557.68,-167 547.68,-163.5 547.68,-170.5"/>
</g>
<!-- Principle of division -->
<g id="node28" class="node">
<title>Principle of division</title>
<g id="a_node28"><a xlink:href="/Knowledge/principle_of_division.html" xlink:title="Principle of division" target="_parent">
<path fill="none" stroke="#b75867" d="M634,-148C634,-148 542,-148 542,-148 536,-148 530,-142 530,-136 530,-136 530,-124 530,-124 530,-118 536,-112 542,-112 542,-112 634,-112 634,-112 640,-112 646,-118 646,-124 646,-124 646,-136 646,-136 646,-142 640,-148 634,-148"/>
<text text-anchor="middle" x="588" y="-126.9" font-family="sans" font-size="12.00" fill="#c4c7c7">Principle of division</text>
</a>
</g>
</g>
<!-- Relation of Equivalence&#45;&gt;Principle of division -->
<g id="edge106" class="edge">
<title>Relation of Equivalence&#45;&gt;Principle of division</title>
<path fill="none" stroke="#ffffff" d="M529.39,-146.27C529.49,-146.24 529.59,-146.22 529.69,-146.19"/>
<polygon fill="#ffffff" stroke="#ffffff" points="528.64,-142.85 519.96,-148.93 530.54,-149.58 528.64,-142.85"/>
</g>
</g>
</svg>
