<?xml version="1.0" encoding="UTF-8" standalone="no"?>
<!DOCTYPE svg PUBLIC "-//W3C//DTD SVG 1.1//EN"
 "http://www.w3.org/Graphics/SVG/1.1/DTD/svg11.dtd">
<!-- Generated by graphviz version 2.46.1 (0)
 -->
<!-- Title: Set Pages: 1 -->
<svg width="727pt" height="463pt"
 viewBox="0.00 0.00 727.00 463.00" xmlns="http://www.w3.org/2000/svg" xmlns:xlink="http://www.w3.org/1999/xlink">
<g id="graph0" class="graph" transform="scale(1 1) rotate(0) translate(4 459)">
<title>Set</title>
<polygon fill="#132020" stroke="transparent" points="-4,4 -4,-459 723,-459 723,4 -4,4"/>
<!-- Set -->
<g id="node1" class="node">
<title>Set</title>
<g id="a_node1"><a xlink:href="/Knowledge/set.html" xlink:title="Set" target="_parent">
<path fill="#273434" stroke="#b75867" d="M42,-277C42,-277 12,-277 12,-277 6,-277 0,-271 0,-265 0,-265 0,-253 0,-253 0,-247 6,-241 12,-241 12,-241 42,-241 42,-241 48,-241 54,-247 54,-253 54,-253 54,-265 54,-265 54,-271 48,-277 42,-277"/>
<text text-anchor="middle" x="27" y="-255.9" font-family="sans" font-size="12.00" fill="#c4c7c7">Set</text>
</a>
</g>
</g>
<!-- Principle of partitions -->
<g id="node2" class="node">
<title>Principle of partitions</title>
<g id="a_node2"><a xlink:href="/Knowledge/principle_of_partitions.html" xlink:title="Principle of partitions" target="_parent">
<path fill="none" stroke="#b75867" d="M210.5,-307C210.5,-307 108.5,-307 108.5,-307 102.5,-307 96.5,-301 96.5,-295 96.5,-295 96.5,-283 96.5,-283 96.5,-277 102.5,-271 108.5,-271 108.5,-271 210.5,-271 210.5,-271 216.5,-271 222.5,-277 222.5,-283 222.5,-283 222.5,-295 222.5,-295 222.5,-301 216.5,-307 210.5,-307"/>
<text text-anchor="middle" x="159.5" y="-285.9" font-family="sans" font-size="12.00" fill="#c4c7c7">Principle of partitions</text>
</a>
</g>
</g>
<!-- Set&#45;&gt;Principle of partitions -->
<g id="edge1" class="edge">
<title>Set&#45;&gt;Principle of partitions</title>
<path fill="none" stroke="#ffffff" d="M64.23,-267.51C77.57,-270.6 87.14,-272.79 96.45,-274.92"/>
<polygon fill="#ffffff" stroke="#ffffff" points="64.89,-264.07 54.35,-265.22 63.3,-270.89 64.89,-264.07"/>
</g>
<!-- Principle of inclusion and exclusion -->
<g id="node3" class="node">
<title>Principle of inclusion and exclusion</title>
<g id="a_node3"><a xlink:href="/Knowledge/principle_of_inclusion_and_exclusion.html" xlink:title="Principle of inclusion and exclusion" target="_parent">
<path fill="none" stroke="#b75867" d="M245,-455C245,-455 74,-455 74,-455 68,-455 62,-449 62,-443 62,-443 62,-431 62,-431 62,-425 68,-419 74,-419 74,-419 245,-419 245,-419 251,-419 257,-425 257,-431 257,-431 257,-443 257,-443 257,-449 251,-455 245,-455"/>
<text text-anchor="middle" x="159.5" y="-433.9" font-family="sans" font-size="12.00" fill="#c4c7c7">Principle of inclusion and exclusion</text>
</a>
</g>
</g>
<!-- Set&#45;&gt;Principle of inclusion and exclusion -->
<g id="edge2" class="edge">
<title>Set&#45;&gt;Principle of inclusion and exclusion</title>
<path fill="none" stroke="#ffffff" d="M30.57,-287.4C34.77,-327.35 44.44,-397.28 62,-415 63.33,-416.34 64.72,-417.61 66.17,-418.81"/>
<polygon fill="#ffffff" stroke="#ffffff" points="34.03,-286.83 29.55,-277.23 27.06,-287.53 34.03,-286.83"/>
</g>
<!-- Principle of the bijection -->
<g id="node4" class="node">
<title>Principle of the bijection</title>
<g id="a_node4"><a xlink:href="/Knowledge/principle_of_the_bijection.html" xlink:title="Principle of the bijection" target="_parent">
<path fill="none" stroke="#b75867" d="M217.5,-418C217.5,-418 101.5,-418 101.5,-418 95.5,-418 89.5,-412 89.5,-406 89.5,-406 89.5,-394 89.5,-394 89.5,-388 95.5,-382 101.5,-382 101.5,-382 217.5,-382 217.5,-382 223.5,-382 229.5,-388 229.5,-394 229.5,-394 229.5,-406 229.5,-406 229.5,-412 223.5,-418 217.5,-418"/>
<text text-anchor="middle" x="159.5" y="-396.9" font-family="sans" font-size="12.00" fill="#c4c7c7">Principle of the bijection</text>
</a>
</g>
</g>
<!-- Set&#45;&gt;Principle of the bijection -->
<g id="edge3" class="edge">
<title>Set&#45;&gt;Principle of the bijection</title>
<path fill="none" stroke="#ffffff" d="M28.27,-287.24C30.1,-314.34 37.21,-354.52 62,-378 69.61,-385.21 79.07,-390.23 89.07,-393.7"/>
<polygon fill="#ffffff" stroke="#ffffff" points="31.76,-287.03 27.79,-277.2 24.77,-287.36 31.76,-287.03"/>
</g>
<!-- Principle of products -->
<g id="node5" class="node">
<title>Principle of products</title>
<g id="a_node5"><a xlink:href="/Knowledge/principle_of_products.html" xlink:title="Principle of products" target="_parent">
<path fill="none" stroke="#b75867" d="M208.5,-344C208.5,-344 110.5,-344 110.5,-344 104.5,-344 98.5,-338 98.5,-332 98.5,-332 98.5,-320 98.5,-320 98.5,-314 104.5,-308 110.5,-308 110.5,-308 208.5,-308 208.5,-308 214.5,-308 220.5,-314 220.5,-320 220.5,-320 220.5,-332 220.5,-332 220.5,-338 214.5,-344 208.5,-344"/>
<text text-anchor="middle" x="159.5" y="-322.9" font-family="sans" font-size="12.00" fill="#c4c7c7">Principle of products</text>
</a>
</g>
</g>
<!-- Set&#45;&gt;Principle of products -->
<g id="edge4" class="edge">
<title>Set&#45;&gt;Principle of products</title>
<path fill="none" stroke="#ffffff" d="M43.5,-285.85C48.6,-292.67 54.83,-299.36 62,-304 72.89,-311.04 85.76,-315.85 98.48,-319.12"/>
<polygon fill="#ffffff" stroke="#ffffff" points="46.19,-283.58 37.66,-277.3 40.41,-287.53 46.19,-283.58"/>
</g>
<!-- Symmetric Closure -->
<g id="node6" class="node">
<title>Symmetric Closure</title>
<g id="a_node6"><a xlink:href="/Knowledge/symmetric_closure.html" xlink:title="Symmetric Closure" target="_parent">
<path fill="none" stroke="#b75867" d="M570.5,-227C570.5,-227 483.5,-227 483.5,-227 477.5,-227 471.5,-221 471.5,-215 471.5,-215 471.5,-203 471.5,-203 471.5,-197 477.5,-191 483.5,-191 483.5,-191 570.5,-191 570.5,-191 576.5,-191 582.5,-197 582.5,-203 582.5,-203 582.5,-215 582.5,-215 582.5,-221 576.5,-227 570.5,-227"/>
<text text-anchor="middle" x="527" y="-205.9" font-family="sans" font-size="12.00" fill="#c4c7c7">Symmetric Closure</text>
</a>
</g>
</g>
<!-- Set&#45;&gt;Symmetric Closure -->
<g id="edge5" class="edge">
<title>Set&#45;&gt;Symmetric Closure</title>
<path fill="none" stroke="#ffffff" d="M53.96,-234.93C56.55,-233.38 59.25,-232.03 62,-231 102.4,-215.92 407.05,-224.93 450,-221 456.92,-220.37 464.16,-219.5 471.31,-218.51"/>
<polygon fill="#ffffff" stroke="#ffffff" points="51.78,-232.19 45.63,-240.82 55.82,-237.91 51.78,-232.19"/>
</g>
<!-- Class of equivalence -->
<g id="node7" class="node">
<title>Class of equivalence</title>
<g id="a_node7"><a xlink:href="/Knowledge/class_of_equivalence.html" xlink:title="Class of equivalence" target="_parent">
<path fill="none" stroke="#b75867" d="M207,-267C207,-267 112,-267 112,-267 106,-267 100,-261 100,-255 100,-255 100,-243 100,-243 100,-237 106,-231 112,-231 112,-231 207,-231 207,-231 213,-231 219,-237 219,-243 219,-243 219,-255 219,-255 219,-261 213,-267 207,-267"/>
<text text-anchor="middle" x="159.5" y="-245.9" font-family="sans" font-size="12.00" fill="#c4c7c7">Class of equivalence</text>
</a>
</g>
</g>
<!-- Set&#45;&gt;Class of equivalence -->
<g id="edge6" class="edge">
<title>Set&#45;&gt;Class of equivalence</title>
<path fill="none" stroke="#ffffff" d="M64.2,-256.23C75.24,-255.38 87.68,-254.43 99.81,-253.5"/>
<polygon fill="#ffffff" stroke="#ffffff" points="63.8,-252.75 54.09,-257 64.33,-259.73 63.8,-252.75"/>
</g>
<!-- Reflexive Closure -->
<g id="node8" class="node">
<title>Reflexive Closure</title>
<g id="a_node8"><a xlink:href="/Knowledge/reflexive_closure.html" xlink:title="Reflexive Closure" target="_parent">
<path fill="none" stroke="#b75867" d="M566,-190C566,-190 488,-190 488,-190 482,-190 476,-184 476,-178 476,-178 476,-166 476,-166 476,-160 482,-154 488,-154 488,-154 566,-154 566,-154 572,-154 578,-160 578,-166 578,-166 578,-178 578,-178 578,-184 572,-190 566,-190"/>
<text text-anchor="middle" x="527" y="-168.9" font-family="sans" font-size="12.00" fill="#c4c7c7">Reflexive Closure</text>
</a>
</g>
</g>
<!-- Set&#45;&gt;Reflexive Closure -->
<g id="edge7" class="edge">
<title>Set&#45;&gt;Reflexive Closure</title>
<path fill="none" stroke="#ffffff" d="M51.14,-234.18C54.54,-231.7 58.19,-229.53 62,-228 82,-219.95 432.67,-230.83 450,-218 459.04,-211.31 450.01,-201.92 458,-194 463.02,-189.02 469.18,-185.17 475.72,-182.19"/>
<polygon fill="#ffffff" stroke="#ffffff" points="48.64,-231.72 43.25,-240.84 53.15,-237.07 48.64,-231.72"/>
</g>
<!-- Recurrent Equations -->
<g id="node9" class="node">
<title>Recurrent Equations</title>
<g id="a_node9"><a xlink:href="/Knowledge/recurrent_equations.html" xlink:title="Recurrent Equations" target="_parent">
<path fill="none" stroke="#b75867" d="M207,-203C207,-203 112,-203 112,-203 106,-203 100,-197 100,-191 100,-191 100,-179 100,-179 100,-173 106,-167 112,-167 112,-167 207,-167 207,-167 213,-167 219,-173 219,-179 219,-179 219,-191 219,-191 219,-197 213,-203 207,-203"/>
<text text-anchor="middle" x="159.5" y="-181.9" font-family="sans" font-size="12.00" fill="#c4c7c7">Recurrent Equations</text>
</a>
</g>
</g>
<!-- Set&#45;&gt;Recurrent Equations -->
<g id="edge8" class="edge">
<title>Set&#45;&gt;Recurrent Equations</title>
<path fill="none" stroke="#ffffff" d="M48.71,-233.27C52.81,-229.14 57.31,-225.19 62,-222 73.5,-214.18 86.88,-207.71 99.95,-202.48"/>
<polygon fill="#ffffff" stroke="#ffffff" points="46.01,-231.03 41.79,-240.75 51.15,-235.78 46.01,-231.03"/>
</g>
<!-- Principle of division -->
<g id="node10" class="node">
<title>Principle of division</title>
<g id="a_node10"><a xlink:href="/Knowledge/principle_of_division.html" xlink:title="Principle of division" target="_parent">
<path fill="none" stroke="#b75867" d="M403.5,-290C403.5,-290 311.5,-290 311.5,-290 305.5,-290 299.5,-284 299.5,-278 299.5,-278 299.5,-266 299.5,-266 299.5,-260 305.5,-254 311.5,-254 311.5,-254 403.5,-254 403.5,-254 409.5,-254 415.5,-260 415.5,-266 415.5,-266 415.5,-278 415.5,-278 415.5,-284 409.5,-290 403.5,-290"/>
<text text-anchor="middle" x="357.5" y="-268.9" font-family="sans" font-size="12.00" fill="#c4c7c7">Principle of division</text>
</a>
</g>
</g>
<!-- Set&#45;&gt;Principle of division -->
<g id="edge9" class="edge">
<title>Set&#45;&gt;Principle of division</title>
<path fill="none" stroke="#ffffff" d="M64.36,-264.04C151.34,-271.24 242.17,-272.46 299.38,-272.45"/>
<polygon fill="#ffffff" stroke="#ffffff" points="64.58,-260.55 54.32,-263.19 63.99,-267.53 64.58,-260.55"/>
</g>
<!-- Dirichlet principle -->
<g id="node11" class="node">
<title>Dirichlet principle</title>
<g id="a_node11"><a xlink:href="/Knowledge/dirichlet_principle.html" xlink:title="Dirichlet principle" target="_parent">
<path fill="none" stroke="#b75867" d="M201,-381C201,-381 118,-381 118,-381 112,-381 106,-375 106,-369 106,-369 106,-357 106,-357 106,-351 112,-345 118,-345 118,-345 201,-345 201,-345 207,-345 213,-351 213,-357 213,-357 213,-369 213,-369 213,-375 207,-381 201,-381"/>
<text text-anchor="middle" x="159.5" y="-359.9" font-family="sans" font-size="12.00" fill="#c4c7c7">Dirichlet principle</text>
</a>
</g>
</g>
<!-- Set&#45;&gt;Dirichlet principle -->
<g id="edge10" class="edge">
<title>Set&#45;&gt;Dirichlet principle</title>
<path fill="none" stroke="#ffffff" d="M32.82,-287.15C37.35,-305.1 45.95,-327.46 62,-341 74.21,-351.31 90.29,-357.03 105.81,-360.14"/>
<polygon fill="#ffffff" stroke="#ffffff" points="36.2,-286.19 30.6,-277.19 29.36,-287.71 36.2,-286.19"/>
</g>
<!-- Differential Analysis -->
<g id="node12" class="node">
<title>Differential Analysis</title>
<g id="a_node12"><a xlink:href="/Knowledge/differential_analysis.html" xlink:title="Differential Analysis" target="_parent">
<path fill="none" stroke="#b75867" d="M205.5,-166C205.5,-166 113.5,-166 113.5,-166 107.5,-166 101.5,-160 101.5,-154 101.5,-154 101.5,-142 101.5,-142 101.5,-136 107.5,-130 113.5,-130 113.5,-130 205.5,-130 205.5,-130 211.5,-130 217.5,-136 217.5,-142 217.5,-142 217.5,-154 217.5,-154 217.5,-160 211.5,-166 205.5,-166"/>
<text text-anchor="middle" x="159.5" y="-144.9" font-family="sans" font-size="12.00" fill="#c4c7c7">Differential Analysis</text>
</a>
</g>
</g>
<!-- Set&#45;&gt;Differential Analysis -->
<g id="edge11" class="edge">
<title>Set&#45;&gt;Differential Analysis</title>
<path fill="none" stroke="#ffffff" d="M31.71,-230.75C35.8,-210.94 44.32,-185.35 62,-170 72.96,-160.48 87.2,-154.85 101.36,-151.57"/>
<polygon fill="#ffffff" stroke="#ffffff" points="28.23,-230.31 29.91,-240.78 35.12,-231.55 28.23,-230.31"/>
</g>
<!-- Relation of Equivalence -->
<g id="node13" class="node">
<title>Relation of Equivalence</title>
<g id="a_node13"><a xlink:href="/Knowledge/relation_of_equivalence.html" xlink:title="Relation of Equivalence" target="_parent">
<path fill="none" stroke="#b75867" d="M582,-267C582,-267 472,-267 472,-267 466,-267 460,-261 460,-255 460,-255 460,-243 460,-243 460,-237 466,-231 472,-231 472,-231 582,-231 582,-231 588,-231 594,-237 594,-243 594,-243 594,-255 594,-255 594,-261 588,-267 582,-267"/>
<text text-anchor="middle" x="527" y="-245.9" font-family="sans" font-size="12.00" fill="#c4c7c7">Relation of Equivalence</text>
</a>
</g>
</g>
<!-- Set&#45;&gt;Relation of Equivalence -->
<g id="edge12" class="edge">
<title>Set&#45;&gt;Relation of Equivalence</title>
<path fill="none" stroke="#ffffff" d="M57.17,-235.91C58.76,-235.18 60.37,-234.53 62,-234 98.71,-221.96 340.75,-236.37 459.93,-244.36"/>
<polygon fill="#ffffff" stroke="#ffffff" points="55.39,-232.89 48.42,-240.87 58.84,-238.98 55.39,-232.89"/>
</g>
<!-- Principle of partitions&#45;&gt;Set -->
<g id="edge14" class="edge">
<title>Principle of partitions&#45;&gt;Set</title>
<path fill="none" stroke="#b75867" d="M96.45,-275.9C87.14,-273.79 77.57,-271.6 64.23,-268.51"/>
<polygon fill="#b75867" stroke="#b75867" points="64.89,-265.07 54.35,-266.22 63.3,-271.88 64.89,-265.07"/>
</g>
<!-- Partition -->
<g id="node14" class="node">
<title>Partition</title>
<g id="a_node14"><a xlink:href="/Knowledge/partition.html" xlink:title="Partition" target="_parent">
<path fill="#273434" stroke="#b75867" d="M679.5,-375C679.5,-375 643.5,-375 643.5,-375 637.5,-375 631.5,-369 631.5,-363 631.5,-363 631.5,-351 631.5,-351 631.5,-345 637.5,-339 643.5,-339 643.5,-339 679.5,-339 679.5,-339 685.5,-339 691.5,-345 691.5,-351 691.5,-351 691.5,-363 691.5,-363 691.5,-369 685.5,-375 679.5,-375"/>
<text text-anchor="middle" x="661.5" y="-353.9" font-family="sans" font-size="12.00" fill="#c4c7c7">Partition</text>
</a>
</g>
</g>
<!-- Principle of partitions&#45;&gt;Partition -->
<g id="edge13" class="edge">
<title>Principle of partitions&#45;&gt;Partition</title>
<path fill="none" stroke="#b75867" d="M222.54,-291.48C339.17,-296.36 580.84,-307.66 596,-318 602.9,-322.71 597.9,-329.3 604,-335 609.12,-339.78 615.39,-343.56 621.87,-346.54"/>
<polygon fill="#b75867" stroke="#b75867" points="620.82,-349.89 631.41,-350.35 623.42,-343.39 620.82,-349.89"/>
</g>
<!-- Combinatoric principles -->
<g id="node15" class="node">
<title>Combinatoric principles</title>
<g id="a_node15"><a xlink:href="/Knowledge/combinatoric_principles.html" xlink:title="Combinatoric principles" target="_parent">
<path fill="none" stroke="#b75867" d="M584,-354C584,-354 470,-354 470,-354 464,-354 458,-348 458,-342 458,-342 458,-330 458,-330 458,-324 464,-318 470,-318 470,-318 584,-318 584,-318 590,-318 596,-324 596,-330 596,-330 596,-342 596,-342 596,-348 590,-354 584,-354"/>
<text text-anchor="middle" x="527" y="-332.9" font-family="sans" font-size="12.00" fill="#c4c7c7">Combinatoric principles</text>
</a>
</g>
</g>
<!-- Principle of partitions&#45;&gt;Combinatoric principles -->
<g id="edge15" class="edge">
<title>Principle of partitions&#45;&gt;Combinatoric principles</title>
<path fill="none" stroke="#ffffff" d="M232.48,-301.98C243.36,-303.77 254.46,-305.51 265,-307 283.65,-309.64 386.98,-320.96 457.89,-328.65"/>
<polygon fill="#ffffff" stroke="#ffffff" points="233.01,-298.52 222.57,-300.32 231.85,-305.42 233.01,-298.52"/>
</g>
<!-- Principle of inclusion and exclusion&#45;&gt;Set -->
<g id="edge16" class="edge">
<title>Principle of inclusion and exclusion&#45;&gt;Set</title>
<path fill="none" stroke="#b75867" d="M65,-418.81C63.97,-417.91 62.97,-416.98 62,-416 44.32,-398.15 34.63,-327.34 30.48,-287.18"/>
<polygon fill="#b75867" stroke="#b75867" points="33.96,-286.82 29.5,-277.21 26.99,-287.5 33.96,-286.82"/>
</g>
<!-- Principle of inclusion and exclusion&#45;&gt;Combinatoric principles -->
<g id="edge17" class="edge">
<title>Principle of inclusion and exclusion&#45;&gt;Combinatoric principles</title>
<path fill="none" stroke="#ffffff" d="M267.42,-450.21C324.27,-452.64 393.83,-448.01 450,-421 479.97,-406.59 503.34,-374.49 515.86,-354.12"/>
<polygon fill="#ffffff" stroke="#ffffff" points="267.49,-446.71 257.32,-449.7 267.13,-453.7 267.49,-446.71"/>
</g>
<!-- Principle of the bijection&#45;&gt;Set -->
<g id="edge19" class="edge">
<title>Principle of the bijection&#45;&gt;Set</title>
<path fill="none" stroke="#b75867" d="M89.07,-394.69C79.07,-391.23 69.61,-386.21 62,-379 37.07,-355.39 30.02,-314.89 28.24,-287.54"/>
<polygon fill="#b75867" stroke="#b75867" points="31.73,-287.25 27.77,-277.42 24.73,-287.57 31.73,-287.25"/>
</g>
<!-- Principle of the bijection&#45;&gt;Combinatoric principles -->
<g id="edge20" class="edge">
<title>Principle of the bijection&#45;&gt;Combinatoric principles</title>
<path fill="none" stroke="#ffffff" d="M239.59,-389.57C248.16,-388.62 256.75,-387.73 265,-387 306.01,-383.35 410.37,-388.15 450,-377 467.46,-372.09 485.4,-362.66 499.45,-354.08"/>
<polygon fill="#ffffff" stroke="#ffffff" points="239.1,-386.1 229.57,-390.72 239.9,-393.06 239.1,-386.1"/>
</g>
<!-- Bijective function -->
<g id="node16" class="node">
<title>Bijective function</title>
<g id="a_node16"><a xlink:href="/Knowledge/bijective_function.html" xlink:title="Bijective function" target="_parent">
<path fill="#273434" stroke="#b75867" d="M397.5,-420C397.5,-420 317.5,-420 317.5,-420 311.5,-420 305.5,-414 305.5,-408 305.5,-408 305.5,-396 305.5,-396 305.5,-390 311.5,-384 317.5,-384 317.5,-384 397.5,-384 397.5,-384 403.5,-384 409.5,-390 409.5,-396 409.5,-396 409.5,-408 409.5,-408 409.5,-414 403.5,-420 397.5,-420"/>
<text text-anchor="middle" x="357.5" y="-398.9" font-family="sans" font-size="12.00" fill="#c4c7c7">Bijective function</text>
</a>
</g>
</g>
<!-- Principle of the bijection&#45;&gt;Bijective function -->
<g id="edge18" class="edge">
<title>Principle of the bijection&#45;&gt;Bijective function</title>
<path fill="none" stroke="#b75867" d="M229.6,-400.71C250.91,-400.92 274.22,-401.16 294.98,-401.37"/>
<polygon fill="#b75867" stroke="#b75867" points="295.23,-404.87 305.27,-401.48 295.3,-397.88 295.23,-404.87"/>
</g>
<!-- Principle of products&#45;&gt;Set -->
<g id="edge21" class="edge">
<title>Principle of products&#45;&gt;Set</title>
<path fill="none" stroke="#b75867" d="M98.48,-320.09C85.76,-316.85 72.89,-312.04 62,-305 54.44,-300.11 47.92,-292.92 42.67,-285.67"/>
<polygon fill="#b75867" stroke="#b75867" points="45.54,-283.68 37.11,-277.27 39.71,-287.54 45.54,-283.68"/>
</g>
<!-- Principle of products&#45;&gt;Combinatoric principles -->
<g id="edge22" class="edge">
<title>Principle of products&#45;&gt;Combinatoric principles</title>
<path fill="none" stroke="#ffffff" d="M231.07,-327.93C296.48,-329.72 393.14,-332.36 457.78,-334.13"/>
<polygon fill="#ffffff" stroke="#ffffff" points="230.95,-324.43 220.85,-327.65 230.76,-331.42 230.95,-324.43"/>
</g>
<!-- Symmetric Closure&#45;&gt;Set -->
<g id="edge25" class="edge">
<title>Symmetric Closure&#45;&gt;Set</title>
<path fill="none" stroke="#b75867" d="M471.31,-219.5C464.16,-220.5 456.92,-221.37 450,-222 407.05,-225.93 102.4,-216.92 62,-232 59.62,-232.89 57.28,-234.02 55.02,-235.31"/>
<polygon fill="#b75867" stroke="#b75867" points="53.04,-232.43 46.71,-240.93 56.96,-238.22 53.04,-232.43"/>
</g>
<!-- Matrix -->
<g id="node17" class="node">
<title>Matrix</title>
<g id="a_node17"><a xlink:href="/Knowledge/matrix.html" xlink:title="Matrix" target="_parent">
<path fill="#273434" stroke="#b75867" d="M676.5,-153C676.5,-153 646.5,-153 646.5,-153 640.5,-153 634.5,-147 634.5,-141 634.5,-141 634.5,-129 634.5,-129 634.5,-123 640.5,-117 646.5,-117 646.5,-117 676.5,-117 676.5,-117 682.5,-117 688.5,-123 688.5,-129 688.5,-129 688.5,-141 688.5,-141 688.5,-147 682.5,-153 676.5,-153"/>
<text text-anchor="middle" x="661.5" y="-131.9" font-family="sans" font-size="12.00" fill="#c4c7c7">Matrix</text>
</a>
</g>
</g>
<!-- Symmetric Closure&#45;&gt;Matrix -->
<g id="edge23" class="edge">
<title>Symmetric Closure&#45;&gt;Matrix</title>
<path fill="none" stroke="#b75867" d="M582.6,-197.05C587.56,-194.36 592.16,-191.05 596,-187 605.5,-176.99 594.8,-167.28 604,-157 609.59,-150.75 617.17,-146.27 624.96,-143.05"/>
<polygon fill="#b75867" stroke="#b75867" points="626.17,-146.33 634.44,-139.71 623.85,-139.72 626.17,-146.33"/>
</g>
<!-- Relation -->
<g id="node18" class="node">
<title>Relation</title>
<g id="a_node18"><a xlink:href="/Knowledge/relation.html" xlink:title="Relation" target="_parent">
<path fill="#273434" stroke="#b75867" d="M679,-264C679,-264 644,-264 644,-264 638,-264 632,-258 632,-252 632,-252 632,-240 632,-240 632,-234 638,-228 644,-228 644,-228 679,-228 679,-228 685,-228 691,-234 691,-240 691,-240 691,-252 691,-252 691,-258 685,-264 679,-264"/>
<text text-anchor="middle" x="661.5" y="-242.9" font-family="sans" font-size="12.00" fill="#c4c7c7">Relation</text>
</a>
</g>
</g>
<!-- Symmetric Closure&#45;&gt;Relation -->
<g id="edge24" class="edge">
<title>Symmetric Closure&#45;&gt;Relation</title>
<path fill="none" stroke="#b75867" d="M582.66,-224.26C595.8,-227.93 609.57,-231.78 621.82,-235.2"/>
<polygon fill="#b75867" stroke="#b75867" points="621.12,-238.64 631.69,-237.96 623,-231.9 621.12,-238.64"/>
</g>
<!-- Symmetric Relation -->
<g id="node19" class="node">
<title>Symmetric Relation</title>
<g id="a_node19"><a xlink:href="/Knowledge/symmetric_relation.html" xlink:title="Symmetric Relation" target="_parent">
<path fill="#273434" stroke="#b75867" d="M707,-301C707,-301 616,-301 616,-301 610,-301 604,-295 604,-289 604,-289 604,-277 604,-277 604,-271 610,-265 616,-265 616,-265 707,-265 707,-265 713,-265 719,-271 719,-277 719,-277 719,-289 719,-289 719,-295 713,-301 707,-301"/>
<text text-anchor="middle" x="661.5" y="-279.9" font-family="sans" font-size="12.00" fill="#c4c7c7">Symmetric Relation</text>
</a>
</g>
</g>
<!-- Symmetric Closure&#45;&gt;Symmetric Relation -->
<g id="edge26" class="edge">
<title>Symmetric Closure&#45;&gt;Symmetric Relation</title>
<path fill="none" stroke="#b75867" d="M582.6,-220.95C587.56,-223.64 592.16,-226.95 596,-231 603.5,-238.9 598.41,-246.61 602.46,-256.51"/>
<polygon fill="#b75867" stroke="#b75867" points="599.63,-258.58 608.08,-264.97 605.46,-254.7 599.63,-258.58"/>
</g>
<!-- Relations -->
<g id="node20" class="node">
<title>Relations</title>
<g id="a_node20"><a xlink:href="/Knowledge/relations.html" xlink:title="Relations" target="_parent">
<path fill="none" stroke="#b75867" d="M681.5,-190C681.5,-190 641.5,-190 641.5,-190 635.5,-190 629.5,-184 629.5,-178 629.5,-178 629.5,-166 629.5,-166 629.5,-160 635.5,-154 641.5,-154 641.5,-154 681.5,-154 681.5,-154 687.5,-154 693.5,-160 693.5,-166 693.5,-166 693.5,-178 693.5,-178 693.5,-184 687.5,-190 681.5,-190"/>
<text text-anchor="middle" x="661.5" y="-168.9" font-family="sans" font-size="12.00" fill="#c4c7c7">Relations</text>
</a>
</g>
</g>
<!-- Symmetric Closure&#45;&gt;Relations -->
<g id="edge27" class="edge">
<title>Symmetric Closure&#45;&gt;Relations</title>
<path fill="none" stroke="#ffffff" d="M592.47,-191C605.37,-187.4 618.36,-183.77 629.48,-180.66"/>
<polygon fill="#ffffff" stroke="#ffffff" points="591.35,-187.68 582.66,-193.74 593.23,-194.42 591.35,-187.68"/>
</g>
<!-- Symmetric Closure&#45;&gt;Relations -->
<g id="edge28" class="edge">
<title>Symmetric Closure&#45;&gt;Relations</title>
<path fill="none" stroke="#ffffff" d="M592.47,-191.75C605.37,-188.15 618.36,-184.49 629.48,-181.31"/>
<polygon fill="#ffffff" stroke="#ffffff" points="591.35,-188.42 582.66,-194.48 593.23,-195.17 591.35,-188.42"/>
</g>
<!-- Class of equivalence&#45;&gt;Set -->
<g id="edge30" class="edge">
<title>Class of equivalence&#45;&gt;Set</title>
<path fill="none" stroke="#b75867" d="M99.81,-254.24C87.68,-255.19 75.24,-256.12 64.2,-256.91"/>
<polygon fill="#b75867" stroke="#b75867" points="63.83,-253.42 54.09,-257.61 64.32,-260.41 63.83,-253.42"/>
</g>
<!-- Class of equivalence&#45;&gt;Principle of division -->
<g id="edge32" class="edge">
<title>Class of equivalence&#45;&gt;Principle of division</title>
<path fill="none" stroke="#ffffff" d="M229.05,-257.04C251.98,-259.74 277.29,-262.71 299.27,-265.28"/>
<polygon fill="#ffffff" stroke="#ffffff" points="229.38,-253.56 219.04,-255.87 228.56,-260.51 229.38,-253.56"/>
</g>
<!-- Class of equivalence&#45;&gt;Relation of Equivalence -->
<g id="edge31" class="edge">
<title>Class of equivalence&#45;&gt;Relation of Equivalence</title>
<path fill="none" stroke="#b75867" d="M219.22,-249C281.7,-249 380.79,-249 449.38,-249"/>
<polygon fill="#b75867" stroke="#b75867" points="449.69,-252.5 459.69,-249 449.69,-245.5 449.69,-252.5"/>
</g>
<!-- Class of equivalence&#45;&gt;Partition -->
<g id="edge29" class="edge">
<title>Class of equivalence&#45;&gt;Partition</title>
<path fill="none" stroke="#b75867" d="M219.28,-248.5C297.71,-248.16 429.2,-248.85 450,-257 454.4,-258.72 453.85,-261.75 458,-264 514.02,-294.4 551.62,-257.25 596,-303 606.21,-313.52 594.31,-324 604,-335 608.88,-340.54 615.33,-344.69 622.11,-347.81"/>
<polygon fill="#b75867" stroke="#b75867" points="620.88,-351.08 631.47,-351.44 623.41,-344.56 620.88,-351.08"/>
</g>
<!-- Class of equivalence&#45;&gt;Relations -->
<g id="edge33" class="edge">
<title>Class of equivalence&#45;&gt;Relations</title>
<path fill="none" stroke="#ffffff" d="M229.45,-245.55C351.35,-239.39 592.49,-226.86 596,-224 606.7,-215.28 594.8,-204.28 604,-194 610.67,-186.55 620.17,-181.6 629.48,-178.32"/>
<polygon fill="#ffffff" stroke="#ffffff" points="228.92,-242.08 219.11,-246.08 229.27,-249.07 228.92,-242.08"/>
</g>
<!-- Reflexive Closure&#45;&gt;Set -->
<g id="edge36" class="edge">
<title>Reflexive Closure&#45;&gt;Set</title>
<path fill="none" stroke="#b75867" d="M475.72,-183.18C469.18,-186.17 463.02,-190.02 458,-195 450.01,-202.92 459.04,-212.31 450,-219 432.67,-231.83 82,-220.95 62,-229 58.54,-230.39 55.2,-232.31 52.07,-234.51"/>
<polygon fill="#b75867" stroke="#b75867" points="49.85,-231.8 44.28,-240.82 54.26,-237.24 49.85,-231.8"/>
</g>
<!-- Reflexive Closure&#45;&gt;Matrix -->
<g id="edge34" class="edge">
<title>Reflexive Closure&#45;&gt;Matrix</title>
<path fill="none" stroke="#b75867" d="M578.09,-158.01C593.54,-153.7 610.24,-149.03 624.54,-145.04"/>
<polygon fill="#b75867" stroke="#b75867" points="625.79,-148.33 634.48,-142.27 623.9,-141.59 625.79,-148.33"/>
</g>
<!-- Reflexive Closure&#45;&gt;Relation -->
<g id="edge35" class="edge">
<title>Reflexive Closure&#45;&gt;Relation</title>
<path fill="none" stroke="#b75867" d="M578.22,-181.76C584.85,-184.8 591.05,-188.78 596,-194 605.5,-204.01 594.8,-213.72 604,-224 608.97,-229.55 615.52,-233.72 622.38,-236.84"/>
<polygon fill="#b75867" stroke="#b75867" points="621.24,-240.15 631.83,-240.48 623.75,-233.62 621.24,-240.15"/>
</g>
<!-- Reflexive Closure&#45;&gt;Relations -->
<g id="edge38" class="edge">
<title>Reflexive Closure&#45;&gt;Relations</title>
<path fill="none" stroke="#ffffff" d="M588.28,-172C602.41,-172 616.9,-172 629.16,-172"/>
<polygon fill="#ffffff" stroke="#ffffff" points="588.09,-168.5 578.09,-172 588.09,-175.5 588.09,-168.5"/>
</g>
<!-- Reflexive Closure&#45;&gt;Relations -->
<g id="edge39" class="edge">
<title>Reflexive Closure&#45;&gt;Relations</title>
<path fill="none" stroke="#ffffff" d="M588.28,-172.75C602.41,-172.76 616.9,-172.73 629.16,-172.65"/>
<polygon fill="#ffffff" stroke="#ffffff" points="588.1,-169.25 578.09,-172.73 588.09,-176.25 588.1,-169.25"/>
</g>
<!-- Reflexive Relation -->
<g id="node21" class="node">
<title>Reflexive Relation</title>
<g id="a_node21"><a xlink:href="/Knowledge/reflexive_relation.html" xlink:title="Reflexive Relation" target="_parent">
<path fill="#273434" stroke="#b75867" d="M702.5,-227C702.5,-227 620.5,-227 620.5,-227 614.5,-227 608.5,-221 608.5,-215 608.5,-215 608.5,-203 608.5,-203 608.5,-197 614.5,-191 620.5,-191 620.5,-191 702.5,-191 702.5,-191 708.5,-191 714.5,-197 714.5,-203 714.5,-203 714.5,-215 714.5,-215 714.5,-221 708.5,-227 702.5,-227"/>
<text text-anchor="middle" x="661.5" y="-205.9" font-family="sans" font-size="12.00" fill="#c4c7c7">Reflexive Relation</text>
</a>
</g>
</g>
<!-- Reflexive Closure&#45;&gt;Reflexive Relation -->
<g id="edge37" class="edge">
<title>Reflexive Closure&#45;&gt;Reflexive Relation</title>
<path fill="none" stroke="#b75867" d="M578.09,-185.99C584.69,-187.83 591.52,-189.74 598.29,-191.63"/>
<polygon fill="#b75867" stroke="#b75867" points="597.56,-195.06 608.13,-194.38 599.44,-188.32 597.56,-195.06"/>
</g>
<!-- Recurrent Equations&#45;&gt;Set -->
<g id="edge40" class="edge">
<title>Recurrent Equations&#45;&gt;Set</title>
<path fill="none" stroke="#b75867" d="M100.96,-203.05C87.57,-208.38 73.8,-214.98 62,-223 57.6,-225.99 53.37,-229.65 49.48,-233.48"/>
<polygon fill="#b75867" stroke="#b75867" points="46.77,-231.25 42.45,-240.93 51.86,-236.06 46.77,-231.25"/>
</g>
<!-- Multiset -->
<g id="node22" class="node">
<title>Multiset</title>
<g id="a_node22"><a xlink:href="/Knowledge/multiset.html" xlink:title="Multiset" target="_parent">
<path fill="#273434" stroke="#b75867" d="M374,-221C374,-221 341,-221 341,-221 335,-221 329,-215 329,-209 329,-209 329,-197 329,-197 329,-191 335,-185 341,-185 341,-185 374,-185 374,-185 380,-185 386,-191 386,-197 386,-197 386,-209 386,-209 386,-215 380,-221 374,-221"/>
<text text-anchor="middle" x="357.5" y="-199.9" font-family="sans" font-size="12.00" fill="#c4c7c7">Multiset</text>
</a>
</g>
</g>
<!-- Recurrent Equations&#45;&gt;Multiset -->
<g id="edge41" class="edge">
<title>Recurrent Equations&#45;&gt;Multiset</title>
<path fill="none" stroke="#b75867" d="M219.04,-190.38C251.25,-193.33 290.28,-196.92 318.51,-199.51"/>
<polygon fill="#b75867" stroke="#b75867" points="318.49,-203.02 328.77,-200.45 319.13,-196.05 318.49,-203.02"/>
</g>
<!-- Fundamental Theorem of Algebra -->
<g id="node23" class="node">
<title>Fundamental Theorem of Algebra</title>
<g id="a_node23"><a xlink:href="/Knowledge/fundamental_theorem_of_algebra.html" xlink:title="Fundamental Theorem of Algebra" target="_parent">
<path fill="#273434" stroke="#b75867" d="M438,-184C438,-184 277,-184 277,-184 271,-184 265,-178 265,-172 265,-172 265,-160 265,-160 265,-154 271,-148 277,-148 277,-148 438,-148 438,-148 444,-148 450,-154 450,-160 450,-160 450,-172 450,-172 450,-178 444,-184 438,-184"/>
<text text-anchor="middle" x="357.5" y="-162.9" font-family="sans" font-size="12.00" fill="#c4c7c7">Fundamental Theorem of Algebra</text>
</a>
</g>
</g>
<!-- Recurrent Equations&#45;&gt;Fundamental Theorem of Algebra -->
<g id="edge42" class="edge">
<title>Recurrent Equations&#45;&gt;Fundamental Theorem of Algebra</title>
<path fill="none" stroke="#b75867" d="M219.04,-179.33C230.32,-178.23 242.44,-177.06 254.64,-175.87"/>
<polygon fill="#b75867" stroke="#b75867" points="255.27,-179.33 264.88,-174.88 254.59,-172.36 255.27,-179.33"/>
</g>
<!-- Discrete Structures -->
<g id="node24" class="node">
<title>Discrete Structures</title>
<g id="a_node24"><a xlink:href="/Knowledge/discrete_structures.html" xlink:title="Discrete Structures" target="_parent">
<path fill="none" stroke="#b75867" d="M401,-147C401,-147 314,-147 314,-147 308,-147 302,-141 302,-135 302,-135 302,-123 302,-123 302,-117 308,-111 314,-111 314,-111 401,-111 401,-111 407,-111 413,-117 413,-123 413,-123 413,-135 413,-135 413,-141 407,-147 401,-147"/>
<text text-anchor="middle" x="357.5" y="-125.9" font-family="sans" font-size="12.00" fill="#c4c7c7">Discrete Structures</text>
</a>
</g>
</g>
<!-- Recurrent Equations&#45;&gt;Discrete Structures -->
<g id="edge43" class="edge">
<title>Recurrent Equations&#45;&gt;Discrete Structures</title>
<path fill="none" stroke="#ffffff" d="M228.72,-176.33C238.74,-173.15 248.53,-168.84 257,-163 262.28,-159.36 259.74,-154.67 265,-151 275.85,-143.43 289,-138.44 301.9,-135.17"/>
<polygon fill="#ffffff" stroke="#ffffff" points="227.75,-172.96 219.07,-179.04 229.65,-179.7 227.75,-172.96"/>
</g>
<!-- Divided Differences -->
<g id="node25" class="node">
<title>Divided Differences</title>
<g id="a_node25"><a xlink:href="/Knowledge/divided_differences.html" xlink:title="Divided Differences" target="_parent">
<path fill="none" stroke="#b75867" d="M402,-110C402,-110 313,-110 313,-110 307,-110 301,-104 301,-98 301,-98 301,-86 301,-86 301,-80 307,-74 313,-74 313,-74 402,-74 402,-74 408,-74 414,-80 414,-86 414,-86 414,-98 414,-98 414,-104 408,-110 402,-110"/>
<text text-anchor="middle" x="357.5" y="-88.9" font-family="sans" font-size="12.00" fill="#c4c7c7">Divided Differences</text>
</a>
</g>
</g>
<!-- Recurrent Equations&#45;&gt;Divided Differences -->
<g id="edge44" class="edge">
<title>Recurrent Equations&#45;&gt;Divided Differences</title>
<path fill="none" stroke="#ffffff" d="M228.87,-180.08C239.46,-176.51 249.39,-171.1 257,-163 272.11,-146.92 249.99,-130.17 265,-114 274.34,-103.94 287.4,-98.12 300.74,-94.83"/>
<polygon fill="#ffffff" stroke="#ffffff" points="227.69,-176.78 219.01,-182.86 229.59,-183.51 227.69,-176.78"/>
</g>
<!-- Chebyshev Polynomial -->
<g id="node26" class="node">
<title>Chebyshev Polynomial</title>
<g id="a_node26"><a xlink:href="/Knowledge/chebyshev_polynomial.html" xlink:title="Chebyshev Polynomial" target="_parent">
<path fill="none" stroke="#b75867" d="M411,-73C411,-73 304,-73 304,-73 298,-73 292,-67 292,-61 292,-61 292,-49 292,-49 292,-43 298,-37 304,-37 304,-37 411,-37 411,-37 417,-37 423,-43 423,-49 423,-49 423,-61 423,-61 423,-67 417,-73 411,-73"/>
<text text-anchor="middle" x="357.5" y="-51.9" font-family="sans" font-size="12.00" fill="#c4c7c7">Chebyshev Polynomial</text>
</a>
</g>
</g>
<!-- Recurrent Equations&#45;&gt;Chebyshev Polynomial -->
<g id="edge45" class="edge">
<title>Recurrent Equations&#45;&gt;Chebyshev Polynomial</title>
<path fill="none" stroke="#ffffff" d="M228.65,-180.75C239.45,-177.14 249.51,-171.55 257,-163 269.65,-148.57 252.43,-91.51 265,-77 272.06,-68.85 281.56,-63.44 291.78,-59.9"/>
<polygon fill="#ffffff" stroke="#ffffff" points="227.71,-177.38 219.01,-183.43 229.58,-184.12 227.71,-177.38"/>
</g>
<!-- Principle of division&#45;&gt;Set -->
<g id="edge48" class="edge">
<title>Principle of division&#45;&gt;Set</title>
<path fill="none" stroke="#b75867" d="M299.38,-273.2C242.17,-273.45 151.34,-272.24 64.36,-265.04"/>
<polygon fill="#b75867" stroke="#b75867" points="64.58,-261.55 54.32,-264.18 63.99,-268.52 64.58,-261.55"/>
</g>
<!-- Principle of division&#45;&gt;Class of equivalence -->
<g id="edge46" class="edge">
<title>Principle of division&#45;&gt;Class of equivalence</title>
<path fill="none" stroke="#b75867" d="M299.27,-265.97C277.29,-263.46 251.98,-260.5 229.05,-257.76"/>
<polygon fill="#b75867" stroke="#b75867" points="229.39,-254.28 219.04,-256.56 228.55,-261.23 229.39,-254.28"/>
</g>
<!-- Principle of division&#45;&gt;Relation of Equivalence -->
<g id="edge47" class="edge">
<title>Principle of division&#45;&gt;Relation of Equivalence</title>
<path fill="none" stroke="#b75867" d="M415.68,-264.15C426.67,-262.64 438.35,-261.04 449.83,-259.46"/>
<polygon fill="#b75867" stroke="#b75867" points="450.42,-262.91 459.85,-258.08 449.47,-255.98 450.42,-262.91"/>
</g>
<!-- Principle of division&#45;&gt;Combinatoric principles -->
<g id="edge49" class="edge">
<title>Principle of division&#45;&gt;Combinatoric principles</title>
<path fill="none" stroke="#ffffff" d="M415.6,-293.82C436.12,-301.66 459.02,-310.41 478.62,-317.9"/>
<polygon fill="#ffffff" stroke="#ffffff" points="416.64,-290.47 406.05,-290.17 414.14,-297.01 416.64,-290.47"/>
</g>
<!-- Dirichlet principle&#45;&gt;Set -->
<g id="edge51" class="edge">
<title>Dirichlet principle&#45;&gt;Set</title>
<path fill="none" stroke="#b75867" d="M105.81,-361.09C90.29,-358.03 74.21,-352.31 62,-342 45.68,-328.23 37.06,-305.34 32.6,-287.08"/>
<polygon fill="#b75867" stroke="#b75867" points="36,-286.27 30.47,-277.23 29.16,-287.75 36,-286.27"/>
</g>
<!-- Dirichlet principle&#45;&gt;Combinatoric principles -->
<g id="edge52" class="edge">
<title>Dirichlet principle&#45;&gt;Combinatoric principles</title>
<path fill="none" stroke="#ffffff" d="M223.04,-350.06C236.8,-347.65 251.35,-345.44 265,-344 330.26,-337.11 405.16,-335.45 457.94,-335.31"/>
<polygon fill="#ffffff" stroke="#ffffff" points="222.39,-346.62 213.17,-351.84 223.64,-353.51 222.39,-346.62"/>
</g>
<!-- Injective function -->
<g id="node27" class="node">
<title>Injective function</title>
<g id="a_node27"><a xlink:href="/Knowledge/injective_function.html" xlink:title="Injective function" target="_parent">
<path fill="#273434" stroke="#b75867" d="M397.5,-380C397.5,-380 317.5,-380 317.5,-380 311.5,-380 305.5,-374 305.5,-368 305.5,-368 305.5,-356 305.5,-356 305.5,-350 311.5,-344 317.5,-344 317.5,-344 397.5,-344 397.5,-344 403.5,-344 409.5,-350 409.5,-356 409.5,-356 409.5,-368 409.5,-368 409.5,-374 403.5,-380 397.5,-380"/>
<text text-anchor="middle" x="357.5" y="-358.9" font-family="sans" font-size="12.00" fill="#c4c7c7">Injective function</text>
</a>
</g>
</g>
<!-- Dirichlet principle&#45;&gt;Injective function -->
<g id="edge50" class="edge">
<title>Dirichlet principle&#45;&gt;Injective function</title>
<path fill="none" stroke="#b75867" d="M213.02,-362.73C238.25,-362.6 268.64,-362.45 294.95,-362.31"/>
<polygon fill="#b75867" stroke="#b75867" points="295.21,-365.81 305.19,-362.26 295.17,-358.81 295.21,-365.81"/>
</g>
<!-- Differential Analysis&#45;&gt;Set -->
<g id="edge53" class="edge">
<title>Differential Analysis&#45;&gt;Set</title>
<path fill="none" stroke="#b75867" d="M101.36,-152.54C87.2,-155.85 72.96,-161.48 62,-171 44.53,-186.17 36,-211.33 31.86,-230.87"/>
<polygon fill="#b75867" stroke="#b75867" points="28.4,-230.3 30.02,-240.77 35.29,-231.58 28.4,-230.3"/>
</g>
<!-- Subjects -->
<g id="node28" class="node">
<title>Subjects</title>
<g id="a_node28"><a xlink:href="/Knowledge/subjects.html" xlink:title="Subjects" target="_parent">
<path fill="none" stroke="#b75867" d="M375.5,-36C375.5,-36 339.5,-36 339.5,-36 333.5,-36 327.5,-30 327.5,-24 327.5,-24 327.5,-12 327.5,-12 327.5,-6 333.5,0 339.5,0 339.5,0 375.5,0 375.5,0 381.5,0 387.5,-6 387.5,-12 387.5,-12 387.5,-24 387.5,-24 387.5,-30 381.5,-36 375.5,-36"/>
<text text-anchor="middle" x="357.5" y="-14.9" font-family="sans" font-size="12.00" fill="#c4c7c7">Subjects</text>
</a>
</g>
</g>
<!-- Differential Analysis&#45;&gt;Subjects -->
<g id="edge54" class="edge">
<title>Differential Analysis&#45;&gt;Subjects</title>
<path fill="none" stroke="#ffffff" d="M179.18,-121.36C198.01,-96.53 229.33,-60.37 265,-40 284.15,-29.06 308.55,-23.54 327.34,-20.77"/>
<polygon fill="#ffffff" stroke="#ffffff" points="176.2,-119.51 173.06,-129.62 181.82,-123.67 176.2,-119.51"/>
</g>
<!-- Relation of Equivalence&#45;&gt;Set -->
<g id="edge56" class="edge">
<title>Relation of Equivalence&#45;&gt;Set</title>
<path fill="none" stroke="#b75867" d="M459.93,-244.94C340.75,-237.37 98.71,-222.96 62,-235 60.96,-235.34 59.92,-235.73 58.89,-236.16"/>
<polygon fill="#b75867" stroke="#b75867" points="57.15,-233.12 49.93,-240.87 60.41,-239.31 57.15,-233.12"/>
</g>
<!-- Relation of Equivalence&#45;&gt;Class of equivalence -->
<g id="edge55" class="edge">
<title>Relation of Equivalence&#45;&gt;Class of equivalence</title>
<path fill="none" stroke="#b75867" d="M459.69,-249.59C394.55,-249.8 295.59,-249.8 229.53,-249.6"/>
<polygon fill="#b75867" stroke="#b75867" points="229.24,-246.1 219.22,-249.57 229.21,-253.1 229.24,-246.1"/>
</g>
<!-- Relation of Equivalence&#45;&gt;Principle of division -->
<g id="edge62" class="edge">
<title>Relation of Equivalence&#45;&gt;Principle of division</title>
<path fill="none" stroke="#ffffff" d="M449.83,-260.21C438.35,-261.79 426.67,-263.38 415.68,-264.86"/>
<polygon fill="#ffffff" stroke="#ffffff" points="450.43,-263.66 459.85,-258.82 449.47,-256.72 450.43,-263.66"/>
</g>
<!-- Relation of Equivalence&#45;&gt;Partition -->
<g id="edge57" class="edge">
<title>Relation of Equivalence&#45;&gt;Partition</title>
<path fill="none" stroke="#b75867" d="M592.44,-267.22C593.7,-268.4 594.89,-269.66 596,-271 614.27,-293.09 586.38,-312.39 604,-335 608.58,-340.88 614.95,-345.19 621.77,-348.35"/>
<polygon fill="#b75867" stroke="#b75867" points="620.63,-351.66 631.22,-351.98 623.14,-345.13 620.63,-351.66"/>
</g>
<!-- Relation of Equivalence&#45;&gt;Relation -->
<g id="edge61" class="edge">
<title>Relation of Equivalence&#45;&gt;Relation</title>
<path fill="none" stroke="#b75867" d="M594.25,-247.5C603.63,-247.29 613.02,-247.08 621.65,-246.88"/>
<polygon fill="#b75867" stroke="#b75867" points="621.83,-250.38 631.75,-246.65 621.67,-243.38 621.83,-250.38"/>
</g>
<!-- Relation of Equivalence&#45;&gt;Symmetric Relation -->
<g id="edge59" class="edge">
<title>Relation of Equivalence&#45;&gt;Symmetric Relation</title>
<path fill="none" stroke="#b75867" d="M594.25,-266C594.35,-266.03 594.45,-266.05 594.55,-266.08"/>
<polygon fill="#b75867" stroke="#b75867" points="593.37,-269.39 603.92,-268.48 595.11,-262.61 593.37,-269.39"/>
</g>
<!-- Relation of Equivalence&#45;&gt;Relations -->
<g id="edge63" class="edge">
<title>Relation of Equivalence&#45;&gt;Relations</title>
<path fill="none" stroke="#ffffff" d="M597.67,-222.57C602.34,-211.77 596,-203.14 604,-194 610.58,-186.47 620.06,-181.5 629.38,-178.23"/>
<polygon fill="#ffffff" stroke="#ffffff" points="594.76,-220.63 591.96,-230.85 600.52,-224.6 594.76,-220.63"/>
</g>
<!-- Relation of Equivalence&#45;&gt;Reflexive Relation -->
<g id="edge60" class="edge">
<title>Relation of Equivalence&#45;&gt;Reflexive Relation</title>
<path fill="none" stroke="#b75867" d="M587.66,-230.99C591.31,-229.89 594.99,-228.78 598.64,-227.67"/>
<polygon fill="#b75867" stroke="#b75867" points="599.69,-231.01 608.25,-224.77 597.67,-224.31 599.69,-231.01"/>
</g>
<!-- Transitive Relation -->
<g id="node29" class="node">
<title>Transitive Relation</title>
<g id="a_node29"><a xlink:href="/Knowledge/transitive_relation.html" xlink:title="Transitive Relation" target="_parent">
<path fill="#273434" stroke="#b75867" d="M704.5,-338C704.5,-338 618.5,-338 618.5,-338 612.5,-338 606.5,-332 606.5,-326 606.5,-326 606.5,-314 606.5,-314 606.5,-308 612.5,-302 618.5,-302 618.5,-302 704.5,-302 704.5,-302 710.5,-302 716.5,-308 716.5,-314 716.5,-314 716.5,-326 716.5,-326 716.5,-332 710.5,-338 704.5,-338"/>
<text text-anchor="middle" x="661.5" y="-316.9" font-family="sans" font-size="12.00" fill="#c4c7c7">Transitive Relation</text>
</a>
</g>
</g>
<!-- Relation of Equivalence&#45;&gt;Transitive Relation -->
<g id="edge58" class="edge">
<title>Relation of Equivalence&#45;&gt;Transitive Relation</title>
<path fill="none" stroke="#b75867" d="M591.58,-267.01C593.14,-268.25 594.61,-269.58 596,-271 602.76,-277.93 598.78,-284.78 602.46,-293.61"/>
<polygon fill="#b75867" stroke="#b75867" points="599.6,-295.63 608.13,-301.93 605.39,-291.69 599.6,-295.63"/>
</g>
</g>
</svg>
