<?xml version="1.0" encoding="UTF-8" standalone="no"?>
<!DOCTYPE svg PUBLIC "-//W3C//DTD SVG 1.1//EN"
 "http://www.w3.org/Graphics/SVG/1.1/DTD/svg11.dtd">
<!-- Generated by graphviz version 2.46.1 (0)
 -->
<!-- Title: Simple Function Pages: 1 -->
<svg width="369pt" height="155pt"
 viewBox="0.00 0.00 369.00 155.00" xmlns="http://www.w3.org/2000/svg" xmlns:xlink="http://www.w3.org/1999/xlink">
<g id="graph0" class="graph" transform="scale(1 1) rotate(0) translate(4 151)">
<title>Simple Function</title>
<polygon fill="#132020" stroke="transparent" points="-4,4 -4,-151 365,-151 365,4 -4,4"/>
<!-- Simple Function -->
<g id="node1" class="node">
<title>Simple Function</title>
<g id="a_node1"><a xlink:href="/Knowledge/simple_function.html" xlink:title="Simple Function" target="_parent">
<path fill="#273434" stroke="#b75867" d="M87,-110C87,-110 12,-110 12,-110 6,-110 0,-104 0,-98 0,-98 0,-86 0,-86 0,-80 6,-74 12,-74 12,-74 87,-74 87,-74 93,-74 99,-80 99,-86 99,-86 99,-98 99,-98 99,-104 93,-110 87,-110"/>
<text text-anchor="middle" x="49.5" y="-88.9" font-family="sans" font-size="12.00" fill="#c4c7c7">Simple Function</text>
</a>
</g>
</g>
<!-- nil -->
<g id="node2" class="node">
<title>nil</title>
<g id="a_node2"><a xlink:href="/Knowledge/Interpolation Criterion.html" xlink:title="nil" target="_parent">
<path fill="#273434" stroke="#b75867" d="M322,-147C322,-147 292,-147 292,-147 286,-147 280,-141 280,-135 280,-135 280,-123 280,-123 280,-117 286,-111 292,-111 292,-111 322,-111 322,-111 328,-111 334,-117 334,-123 334,-123 334,-135 334,-135 334,-141 328,-147 322,-147"/>
<text text-anchor="middle" x="307" y="-125.9" font-family="sans" font-size="12.00" fill="#c4c7c7">nil</text>
</a>
</g>
</g>
<!-- Simple Function&#45;&gt;nil -->
<g id="edge1" class="edge">
<title>Simple Function&#45;&gt;nil</title>
<path fill="none" stroke="#b75867" d="M99.3,-109.19C101.89,-109.86 104.47,-110.47 107,-111 163.09,-122.8 229.68,-126.86 269.84,-128.27"/>
<polygon fill="#b75867" stroke="#b75867" points="269.85,-131.77 279.95,-128.58 270.07,-124.77 269.85,-131.77"/>
</g>
<!-- Function Approximation -->
<g id="node3" class="node">
<title>Function Approximation</title>
<g id="a_node3"><a xlink:href="/Knowledge/function_approximation.html" xlink:title="Function Approximation" target="_parent">
<path fill="none" stroke="#b75867" d="M233,-110C233,-110 119,-110 119,-110 113,-110 107,-104 107,-98 107,-98 107,-86 107,-86 107,-80 113,-74 119,-74 119,-74 233,-74 233,-74 239,-74 245,-80 245,-86 245,-86 245,-98 245,-98 245,-104 239,-110 233,-110"/>
<text text-anchor="middle" x="176" y="-88.9" font-family="sans" font-size="12.00" fill="#c4c7c7">Function Approximation</text>
</a>
</g>
</g>
<!-- Simple Function&#45;&gt;Function Approximation -->
<g id="edge2" class="edge">
<title>Simple Function&#45;&gt;Function Approximation</title>
<path fill="none" stroke="#ffffff" d="M106.31,-92C106.47,-92 106.62,-92 106.78,-92"/>
<polygon fill="#ffffff" stroke="#ffffff" points="109.35,-88.5 99.35,-92 109.35,-95.5 109.35,-88.5"/>
</g>
<!-- Function Approximation&#45;&gt;Simple Function -->
<g id="edge5" class="edge">
<title>Function Approximation&#45;&gt;Simple Function</title>
<path fill="none" stroke="#b75867" d="M106.78,-92.75C106.62,-92.75 106.47,-92.75 106.31,-92.75"/>
<polygon fill="#b75867" stroke="#b75867" points="109.35,-89.25 99.35,-92.73 109.34,-96.25 109.35,-89.25"/>
</g>
<!-- Function Approximation&#45;&gt;nil -->
<g id="edge4" class="edge">
<title>Function Approximation&#45;&gt;nil</title>
<path fill="none" stroke="#b75867" d="M239.99,-110.07C250.32,-113.03 260.71,-116.01 270.08,-118.7"/>
<polygon fill="#b75867" stroke="#b75867" points="269.23,-122.09 279.81,-121.49 271.16,-115.37 269.23,-122.09"/>
</g>
<!-- Metric Criteria -->
<g id="node4" class="node">
<title>Metric Criteria</title>
<g id="a_node4"><a xlink:href="/Knowledge/metric_criteria.html" xlink:title="Metric Criteria" target="_parent">
<path fill="#273434" stroke="#b75867" d="M339,-110C339,-110 275,-110 275,-110 269,-110 263,-104 263,-98 263,-98 263,-86 263,-86 263,-80 269,-74 275,-74 275,-74 339,-74 339,-74 345,-74 351,-80 351,-86 351,-86 351,-98 351,-98 351,-104 345,-110 339,-110"/>
<text text-anchor="middle" x="307" y="-88.9" font-family="sans" font-size="12.00" fill="#c4c7c7">Metric Criteria</text>
</a>
</g>
</g>
<!-- Function Approximation&#45;&gt;Metric Criteria -->
<g id="edge3" class="edge">
<title>Function Approximation&#45;&gt;Metric Criteria</title>
<path fill="none" stroke="#b75867" d="M245.28,-92C247.68,-92 250.08,-92 252.46,-92"/>
<polygon fill="#b75867" stroke="#b75867" points="252.72,-95.5 262.72,-92 252.72,-88.5 252.72,-95.5"/>
</g>
<!-- Complex Function -->
<g id="node5" class="node">
<title>Complex Function</title>
<g id="a_node5"><a xlink:href="/Knowledge/complex_function.html" xlink:title="Complex Function" target="_parent">
<path fill="#273434" stroke="#b75867" d="M349,-73C349,-73 265,-73 265,-73 259,-73 253,-67 253,-61 253,-61 253,-49 253,-49 253,-43 259,-37 265,-37 265,-37 349,-37 349,-37 355,-37 361,-43 361,-49 361,-49 361,-61 361,-61 361,-67 355,-73 349,-73"/>
<text text-anchor="middle" x="307" y="-51.9" font-family="sans" font-size="12.00" fill="#c4c7c7">Complex Function</text>
</a>
</g>
</g>
<!-- Function Approximation&#45;&gt;Complex Function -->
<g id="edge6" class="edge">
<title>Function Approximation&#45;&gt;Complex Function</title>
<path fill="none" stroke="#b75867" d="M239.99,-73.93C241.08,-73.62 242.16,-73.31 243.25,-73"/>
<polygon fill="#b75867" stroke="#b75867" points="244.34,-76.33 252.98,-70.21 242.41,-69.6 244.34,-76.33"/>
</g>
<!-- Numeric Methods -->
<g id="node6" class="node">
<title>Numeric Methods</title>
<g id="a_node6"><a xlink:href="/Knowledge/numeric_methods.html" xlink:title="Numeric Methods" target="_parent">
<path fill="none" stroke="#b75867" d="M348,-36C348,-36 266,-36 266,-36 260,-36 254,-30 254,-24 254,-24 254,-12 254,-12 254,-6 260,0 266,0 266,0 348,0 348,0 354,0 360,-6 360,-12 360,-12 360,-24 360,-24 360,-30 354,-36 348,-36"/>
<text text-anchor="middle" x="307" y="-14.9" font-family="sans" font-size="12.00" fill="#c4c7c7">Numeric Methods</text>
</a>
</g>
</g>
<!-- Function Approximation&#45;&gt;Numeric Methods -->
<g id="edge7" class="edge">
<title>Function Approximation&#45;&gt;Numeric Methods</title>
<path fill="none" stroke="#ffffff" d="M209.12,-67.85C222.32,-58.5 238.01,-48.13 253,-40 255.45,-38.67 258,-37.37 260.6,-36.1"/>
<polygon fill="#ffffff" stroke="#ffffff" points="206.91,-65.13 200.83,-73.81 210.99,-70.81 206.91,-65.13"/>
</g>
</g>
</svg>
