<?xml version="1.0" encoding="UTF-8" standalone="no"?>
<!DOCTYPE svg PUBLIC "-//W3C//DTD SVG 1.1//EN"
 "http://www.w3.org/Graphics/SVG/1.1/DTD/svg11.dtd">
<!-- Generated by graphviz version 2.44.0 (0)
 -->
<!-- Title: Simple Function Pages: 1 -->
<svg width="430pt" height="155pt"
 viewBox="0.00 0.00 430.00 155.00" xmlns="http://www.w3.org/2000/svg" xmlns:xlink="http://www.w3.org/1999/xlink">
<g id="graph0" class="graph" transform="scale(1 1) rotate(0) translate(4 151)">
<title>Simple Function</title>
<polygon fill="#132020" stroke="transparent" points="-4,4 -4,-151 426,-151 426,4 -4,4"/>
<!-- Simple Function -->
<g id="node1" class="node">
<title>Simple Function</title>
<g id="a_node1"><a xlink:href="../Simple Function.html" xlink:title="Simple Function" target="_parent">
<path fill="#273434" stroke="#b75867" d="M98,-91C98,-91 12,-91 12,-91 6,-91 0,-85 0,-79 0,-79 0,-67 0,-67 0,-61 6,-55 12,-55 12,-55 98,-55 98,-55 104,-55 110,-61 110,-67 110,-67 110,-79 110,-79 110,-85 104,-91 98,-91"/>
<text text-anchor="middle" x="55" y="-69.9" font-family="sans" font-size="12.00" fill="#c4c7c7">Simple Function</text>
</a>
</g>
</g>
<!-- SplineGraph -->
<g id="node2" class="node">
<title>SplineGraph</title>
<g id="a_node2"><a xlink:href="../SplineGraph.html" xlink:title="SplineGraph" target="_parent">
<path fill="#273434" stroke="#b75867" d="M226,-128C226,-128 163,-128 163,-128 157,-128 151,-122 151,-116 151,-116 151,-104 151,-104 151,-98 157,-92 163,-92 163,-92 226,-92 226,-92 232,-92 238,-98 238,-104 238,-104 238,-116 238,-116 238,-122 232,-128 226,-128"/>
<text text-anchor="middle" x="194.5" y="-106.9" font-family="sans" font-size="12.00" fill="#c4c7c7">SplineGraph</text>
</a>
</g>
</g>
<!-- Simple Function&#45;&gt;SplineGraph -->
<g id="edge1" class="edge">
<title>Simple Function&#45;&gt;SplineGraph</title>
<path fill="none" stroke="#b75867" d="M110.34,-87.62C120.48,-90.35 131.05,-93.19 141.12,-95.91"/>
<polygon fill="#b75867" stroke="#b75867" points="140.43,-99.34 150.99,-98.56 142.25,-92.58 140.43,-99.34"/>
</g>
<!-- Function Approximation -->
<g id="node3" class="node">
<title>Function Approximation</title>
<g id="a_node3"><a xlink:href="../Function Approximation.html" xlink:title="Function Approximation" target="_parent">
<path fill="none" stroke="#b75867" d="M259,-91C259,-91 130,-91 130,-91 124,-91 118,-85 118,-79 118,-79 118,-67 118,-67 118,-61 124,-55 130,-55 130,-55 259,-55 259,-55 265,-55 271,-61 271,-67 271,-67 271,-79 271,-79 271,-85 265,-91 259,-91"/>
<text text-anchor="middle" x="194.5" y="-69.9" font-family="sans" font-size="12.00" fill="#c4c7c7">Function Approximation</text>
</a>
</g>
</g>
<!-- Simple Function&#45;&gt;Function Approximation -->
<g id="edge2" class="edge">
<title>Simple Function&#45;&gt;Function Approximation</title>
<path fill="none" stroke="#ffffff" d="M117.15,-73C117.31,-73 117.46,-73 117.61,-73"/>
<polygon fill="#ffffff" stroke="#ffffff" points="120.34,-69.5 110.34,-73 120.34,-76.5 120.34,-69.5"/>
</g>
<!-- Function Approximation&#45;&gt;Simple Function -->
<g id="edge5" class="edge">
<title>Function Approximation&#45;&gt;Simple Function</title>
<path fill="none" stroke="#b75867" d="M117.61,-73.75C117.46,-73.75 117.31,-73.75 117.15,-73.75"/>
<polygon fill="#b75867" stroke="#b75867" points="120.35,-70.25 110.34,-73.74 120.34,-77.25 120.35,-70.25"/>
</g>
<!-- Metric Criteria -->
<g id="node4" class="node">
<title>Metric Criteria</title>
<g id="a_node4"><a xlink:href="../Metric Criteria.html" xlink:title="Metric Criteria" target="_parent">
<path fill="#273434" stroke="#b75867" d="M386,-147C386,-147 315,-147 315,-147 309,-147 303,-141 303,-135 303,-135 303,-123 303,-123 303,-117 309,-111 315,-111 315,-111 386,-111 386,-111 392,-111 398,-117 398,-123 398,-123 398,-135 398,-135 398,-141 392,-147 386,-147"/>
<text text-anchor="middle" x="350.5" y="-125.9" font-family="sans" font-size="12.00" fill="#c4c7c7">Metric Criteria</text>
</a>
</g>
</g>
<!-- Function Approximation&#45;&gt;Metric Criteria -->
<g id="edge3" class="edge">
<title>Function Approximation&#45;&gt;Metric Criteria</title>
<path fill="none" stroke="#b75867" d="M265.15,-91.13C267.17,-92.34 269.13,-93.63 271,-95 276.17,-98.79 273.87,-103.16 279,-107 283.43,-110.31 288.36,-113.14 293.51,-115.54"/>
<polygon fill="#b75867" stroke="#b75867" points="292.36,-118.85 302.94,-119.42 295.03,-112.38 292.36,-118.85"/>
</g>
<!-- Interpolation Criterion -->
<g id="node5" class="node">
<title>Interpolation Criterion</title>
<g id="a_node5"><a xlink:href="../Interpolation Criterion.html" xlink:title="Interpolation Criterion" target="_parent">
<path fill="#273434" stroke="#b75867" d="M410,-110C410,-110 291,-110 291,-110 285,-110 279,-104 279,-98 279,-98 279,-86 279,-86 279,-80 285,-74 291,-74 291,-74 410,-74 410,-74 416,-74 422,-80 422,-86 422,-86 422,-98 422,-98 422,-104 416,-110 410,-110"/>
<text text-anchor="middle" x="350.5" y="-88.9" font-family="sans" font-size="12.00" fill="#c4c7c7">Interpolation Criterion</text>
</a>
</g>
</g>
<!-- Function Approximation&#45;&gt;Interpolation Criterion -->
<g id="edge4" class="edge">
<title>Function Approximation&#45;&gt;Interpolation Criterion</title>
<path fill="none" stroke="#b75867" d="M271.15,-82.33C271.31,-82.35 271.47,-82.37 271.63,-82.39"/>
<polygon fill="#b75867" stroke="#b75867" points="268.55,-85.54 278.9,-83.29 269.4,-78.59 268.55,-85.54"/>
</g>
<!-- Complex Function -->
<g id="node6" class="node">
<title>Complex Function</title>
<g id="a_node6"><a xlink:href="../Complex Function.html" xlink:title="Complex Function" target="_parent">
<path fill="#273434" stroke="#b75867" d="M398.5,-73C398.5,-73 302.5,-73 302.5,-73 296.5,-73 290.5,-67 290.5,-61 290.5,-61 290.5,-49 290.5,-49 290.5,-43 296.5,-37 302.5,-37 302.5,-37 398.5,-37 398.5,-37 404.5,-37 410.5,-43 410.5,-49 410.5,-49 410.5,-61 410.5,-61 410.5,-67 404.5,-73 398.5,-73"/>
<text text-anchor="middle" x="350.5" y="-51.9" font-family="sans" font-size="12.00" fill="#c4c7c7">Complex Function</text>
</a>
</g>
</g>
<!-- Function Approximation&#45;&gt;Complex Function -->
<g id="edge6" class="edge">
<title>Function Approximation&#45;&gt;Complex Function</title>
<path fill="none" stroke="#b75867" d="M271.15,-64.16C274.14,-63.81 277.14,-63.46 280.12,-63.11"/>
<polygon fill="#b75867" stroke="#b75867" points="280.65,-66.57 290.18,-61.93 279.84,-59.62 280.65,-66.57"/>
</g>
<!-- Numeric Methods -->
<g id="node7" class="node">
<title>Numeric Methods</title>
<g id="a_node7"><a xlink:href="../Numeric Methods.html" xlink:title="Numeric Methods" target="_parent">
<path fill="none" stroke="#b75867" d="M396.5,-36C396.5,-36 304.5,-36 304.5,-36 298.5,-36 292.5,-30 292.5,-24 292.5,-24 292.5,-12 292.5,-12 292.5,-6 298.5,0 304.5,0 304.5,0 396.5,0 396.5,0 402.5,0 408.5,-6 408.5,-12 408.5,-12 408.5,-24 408.5,-24 408.5,-30 402.5,-36 396.5,-36"/>
<text text-anchor="middle" x="350.5" y="-14.9" font-family="sans" font-size="12.00" fill="#c4c7c7">Numeric Methods</text>
</a>
</g>
</g>
<!-- Function Approximation&#45;&gt;Numeric Methods -->
<g id="edge7" class="edge">
<title>Function Approximation&#45;&gt;Numeric Methods</title>
<path fill="none" stroke="#ffffff" d="M248.87,-51.23C258.84,-47.36 269.2,-43.46 279,-40 283.35,-38.46 287.87,-36.92 292.43,-35.41"/>
<polygon fill="#ffffff" stroke="#ffffff" points="247.5,-48.01 239.47,-54.92 250.06,-54.52 247.5,-48.01"/>
</g>
</g>
</svg>
