<?xml version="1.0" encoding="UTF-8" standalone="no"?>
<!DOCTYPE svg PUBLIC "-//W3C//DTD SVG 1.1//EN"
 "http://www.w3.org/Graphics/SVG/1.1/DTD/svg11.dtd">
<!-- Generated by graphviz version 2.44.0 (0)
 -->
<!-- Title: Strongly Anti&#45;symmetric Relation Pages: 1 -->
<svg width="699pt" height="486pt"
 viewBox="0.00 0.00 699.00 486.00" xmlns="http://www.w3.org/2000/svg" xmlns:xlink="http://www.w3.org/1999/xlink">
<g id="graph0" class="graph" transform="scale(1 1) rotate(0) translate(4 482)">
<title>Strongly Anti&#45;symmetric Relation</title>
<polygon fill="#132020" stroke="transparent" points="-4,4 -4,-482 695,-482 695,4 -4,4"/>
<!-- Strongly Anti&#45;symmetric Relation -->
<g id="node1" class="node">
<title>Strongly Anti&#45;symmetric Relation</title>
<g id="a_node1"><a xlink:href="/Knowledge/Strongly Anti-symmetric Relation.html" xlink:title="Strongly Anti&#45;symmetric Relation" target="_parent">
<path fill="#273434" stroke="#b75867" d="M191,-323C191,-323 12,-323 12,-323 6,-323 0,-317 0,-311 0,-311 0,-299 0,-299 0,-293 6,-287 12,-287 12,-287 191,-287 191,-287 197,-287 203,-293 203,-299 203,-299 203,-311 203,-311 203,-317 197,-323 191,-323"/>
<text text-anchor="middle" x="101.5" y="-301.9" font-family="sans" font-size="12.00" fill="#c4c7c7">Strongly Anti&#45;symmetric Relation</text>
</a>
</g>
</g>
<!-- Relation -->
<g id="node2" class="node">
<title>Relation</title>
<g id="a_node2"><a xlink:href="/Knowledge/Relation.html" xlink:title="Relation" target="_parent">
<path fill="#273434" stroke="#b75867" d="M263,-263C263,-263 223,-263 223,-263 217,-263 211,-257 211,-251 211,-251 211,-239 211,-239 211,-233 217,-227 223,-227 223,-227 263,-227 263,-227 269,-227 275,-233 275,-239 275,-239 275,-251 275,-251 275,-257 269,-263 263,-263"/>
<text text-anchor="middle" x="243" y="-241.9" font-family="sans" font-size="12.00" fill="#c4c7c7">Relation</text>
</a>
</g>
</g>
<!-- Strongly Anti&#45;symmetric Relation&#45;&gt;Relation -->
<g id="edge1" class="edge">
<title>Strongly Anti&#45;symmetric Relation&#45;&gt;Relation</title>
<path fill="none" stroke="#b75867" d="M144.35,-287C162.37,-279.25 183.35,-270.23 201.24,-262.53"/>
<polygon fill="#b75867" stroke="#b75867" points="203.02,-265.58 210.82,-258.41 200.25,-259.15 203.02,-265.58"/>
</g>
<!-- Relations -->
<g id="node3" class="node">
<title>Relations</title>
<g id="a_node3"><a xlink:href="/Knowledge/Relations.html" xlink:title="Relations" target="_parent">
<path fill="none" stroke="#b75867" d="M365,-323C365,-323 320,-323 320,-323 314,-323 308,-317 308,-311 308,-311 308,-299 308,-299 308,-293 314,-287 320,-287 320,-287 365,-287 365,-287 371,-287 377,-293 377,-299 377,-299 377,-311 377,-311 377,-317 371,-323 365,-323"/>
<text text-anchor="middle" x="342.5" y="-301.9" font-family="sans" font-size="12.00" fill="#c4c7c7">Relations</text>
</a>
</g>
</g>
<!-- Strongly Anti&#45;symmetric Relation&#45;&gt;Relations -->
<g id="edge2" class="edge">
<title>Strongly Anti&#45;symmetric Relation&#45;&gt;Relations</title>
<path fill="none" stroke="#ffffff" d="M213.29,-305C247.61,-305 282.9,-305 307.74,-305"/>
<polygon fill="#ffffff" stroke="#ffffff" points="213.16,-301.5 203.16,-305 213.16,-308.5 213.16,-301.5"/>
</g>
<!-- Linear order -->
<g id="node4" class="node">
<title>Linear order</title>
<g id="a_node4"><a xlink:href="/Knowledge/Linear order.html" xlink:title="Linear order" target="_parent">
<path fill="none" stroke="#b75867" d="M517,-461C517,-461 455,-461 455,-461 449,-461 443,-455 443,-449 443,-449 443,-437 443,-437 443,-431 449,-425 455,-425 455,-425 517,-425 517,-425 523,-425 529,-431 529,-437 529,-437 529,-449 529,-449 529,-455 523,-461 517,-461"/>
<text text-anchor="middle" x="486" y="-439.9" font-family="sans" font-size="12.00" fill="#c4c7c7">Linear order</text>
</a>
</g>
</g>
<!-- Strongly Anti&#45;symmetric Relation&#45;&gt;Linear order -->
<g id="edge3" class="edge">
<title>Strongly Anti&#45;symmetric Relation&#45;&gt;Linear order</title>
<path fill="none" stroke="#ffffff" d="M156.63,-326.84C217.71,-351.14 320.25,-390.96 410,-421 420.55,-424.53 432.04,-428.06 442.78,-431.22"/>
<polygon fill="#ffffff" stroke="#ffffff" points="157.78,-323.53 147.19,-323.07 155.18,-330.03 157.78,-323.53"/>
</g>
<!-- Relation&#45;&gt;Strongly Anti&#45;symmetric Relation -->
<g id="edge18" class="edge">
<title>Relation&#45;&gt;Strongly Anti&#45;symmetric Relation</title>
<path fill="none" stroke="#ffffff" d="M201.5,-263.11C184.18,-270.64 163.92,-279.35 146.26,-286.88"/>
<polygon fill="#ffffff" stroke="#ffffff" points="203.01,-266.27 210.78,-259.06 200.22,-259.85 203.01,-266.27"/>
</g>
<!-- Relation&#45;&gt;Relations -->
<g id="edge12" class="edge">
<title>Relation&#45;&gt;Relations</title>
<path fill="none" stroke="#ffffff" d="M267.09,-270.5C272.04,-275.06 277.45,-279.47 283,-283 290.6,-287.83 299.42,-291.84 307.87,-295.06"/>
<polygon fill="#ffffff" stroke="#ffffff" points="269.36,-267.81 259.77,-263.31 264.46,-272.81 269.36,-267.81"/>
</g>
<!-- Relation&#45;&gt;Linear order -->
<g id="edge13" class="edge">
<title>Relation&#45;&gt;Linear order</title>
<path fill="none" stroke="#ffffff" d="M253.99,-272.72C260.63,-288.77 270.44,-308.74 283,-324 328.13,-378.84 346.64,-388.91 410,-421 420.17,-426.15 431.74,-430.29 442.7,-433.53"/>
<polygon fill="#ffffff" stroke="#ffffff" points="257.2,-271.32 250.26,-263.31 250.69,-273.9 257.2,-271.32"/>
</g>
<!-- Descartes Product -->
<g id="node5" class="node">
<title>Descartes Product</title>
<g id="a_node5"><a xlink:href="/Knowledge/Descartes Product.html" xlink:title="Descartes Product" target="_parent">
<path fill="#273434" stroke="#b75867" d="M390,-36C390,-36 295,-36 295,-36 289,-36 283,-30 283,-24 283,-24 283,-12 283,-12 283,-6 289,0 295,0 295,0 390,0 390,0 396,0 402,-6 402,-12 402,-12 402,-24 402,-24 402,-30 396,-36 390,-36"/>
<text text-anchor="middle" x="342.5" y="-14.9" font-family="sans" font-size="12.00" fill="#c4c7c7">Descartes Product</text>
</a>
</g>
</g>
<!-- Relation&#45;&gt;Descartes Product -->
<g id="edge4" class="edge">
<title>Relation&#45;&gt;Descartes Product</title>
<path fill="none" stroke="#b75867" d="M245.2,-226.89C248.27,-185.54 257.61,-84.87 280.77,-44.69"/>
<polygon fill="#b75867" stroke="#b75867" points="283.79,-46.46 286.6,-36.25 278.04,-42.48 283.79,-46.46"/>
</g>
<!-- Anti&#45;symmetric Relation -->
<g id="node6" class="node">
<title>Anti&#45;symmetric Relation</title>
<g id="a_node6"><a xlink:href="/Knowledge/Anti-symmetric Relation.html" xlink:title="Anti&#45;symmetric Relation" target="_parent">
<path fill="none" stroke="#b75867" d="M550,-227C550,-227 422,-227 422,-227 416,-227 410,-221 410,-215 410,-215 410,-203 410,-203 410,-197 416,-191 422,-191 422,-191 550,-191 550,-191 556,-191 562,-197 562,-203 562,-203 562,-215 562,-215 562,-221 556,-227 550,-227"/>
<text text-anchor="middle" x="486" y="-205.9" font-family="sans" font-size="12.00" fill="#c4c7c7">Anti&#45;symmetric Relation</text>
</a>
</g>
</g>
<!-- Relation&#45;&gt;Anti&#45;symmetric Relation -->
<g id="edge5" class="edge">
<title>Relation&#45;&gt;Anti&#45;symmetric Relation</title>
<path fill="none" stroke="#ffffff" d="M266.25,-220.2C271.31,-216.04 276.98,-212.32 283,-210 322.92,-194.6 370.67,-193.65 409.71,-196.88"/>
<polygon fill="#ffffff" stroke="#ffffff" points="263.86,-217.65 258.84,-226.98 268.58,-222.81 263.86,-217.65"/>
</g>
<!-- Chain -->
<g id="node7" class="node">
<title>Chain</title>
<g id="a_node7"><a xlink:href="/Knowledge/Chain.html" xlink:title="Chain" target="_parent">
<path fill="none" stroke="#b75867" d="M501,-190C501,-190 471,-190 471,-190 465,-190 459,-184 459,-178 459,-178 459,-166 459,-166 459,-160 465,-154 471,-154 471,-154 501,-154 501,-154 507,-154 513,-160 513,-166 513,-166 513,-178 513,-178 513,-184 507,-190 501,-190"/>
<text text-anchor="middle" x="486" y="-168.9" font-family="sans" font-size="12.00" fill="#c4c7c7">Chain</text>
</a>
</g>
</g>
<!-- Relation&#45;&gt;Chain -->
<g id="edge6" class="edge">
<title>Relation&#45;&gt;Chain</title>
<path fill="none" stroke="#ffffff" d="M259.4,-218.23C265.63,-209.75 273.6,-201.24 283,-196 339.45,-164.54 418.42,-165.79 458.86,-169.07"/>
<polygon fill="#ffffff" stroke="#ffffff" points="256.47,-216.32 253.76,-226.57 262.27,-220.25 256.47,-216.32"/>
</g>
<!-- Reflexive Closure -->
<g id="node8" class="node">
<title>Reflexive Closure</title>
<g id="a_node8"><a xlink:href="/Knowledge/Reflexive Closure.html" xlink:title="Reflexive Closure" target="_parent">
<path fill="none" stroke="#b75867" d="M530.5,-301C530.5,-301 441.5,-301 441.5,-301 435.5,-301 429.5,-295 429.5,-289 429.5,-289 429.5,-277 429.5,-277 429.5,-271 435.5,-265 441.5,-265 441.5,-265 530.5,-265 530.5,-265 536.5,-265 542.5,-271 542.5,-277 542.5,-277 542.5,-289 542.5,-289 542.5,-295 536.5,-301 530.5,-301"/>
<text text-anchor="middle" x="486" y="-279.9" font-family="sans" font-size="12.00" fill="#c4c7c7">Reflexive Closure</text>
</a>
</g>
</g>
<!-- Relation&#45;&gt;Reflexive Closure -->
<g id="edge7" class="edge">
<title>Relation&#45;&gt;Reflexive Closure</title>
<path fill="none" stroke="#ffffff" d="M285.38,-243.77C325.09,-243.18 381.9,-244.07 402,-253 406.6,-255.04 405.68,-258.43 410,-261 415.95,-264.53 422.51,-267.53 429.19,-270.06"/>
<polygon fill="#ffffff" stroke="#ffffff" points="285.12,-240.27 275.19,-243.96 285.25,-247.27 285.12,-240.27"/>
</g>
<!-- Symmetric Closure -->
<g id="node9" class="node">
<title>Symmetric Closure</title>
<g id="a_node9"><a xlink:href="/Knowledge/Symmetric Closure.html" xlink:title="Symmetric Closure" target="_parent">
<path fill="none" stroke="#b75867" d="M535.5,-264C535.5,-264 436.5,-264 436.5,-264 430.5,-264 424.5,-258 424.5,-252 424.5,-252 424.5,-240 424.5,-240 424.5,-234 430.5,-228 436.5,-228 436.5,-228 535.5,-228 535.5,-228 541.5,-228 547.5,-234 547.5,-240 547.5,-240 547.5,-252 547.5,-252 547.5,-258 541.5,-264 535.5,-264"/>
<text text-anchor="middle" x="486" y="-242.9" font-family="sans" font-size="12.00" fill="#c4c7c7">Symmetric Closure</text>
</a>
</g>
</g>
<!-- Relation&#45;&gt;Symmetric Closure -->
<g id="edge8" class="edge">
<title>Relation&#45;&gt;Symmetric Closure</title>
<path fill="none" stroke="#ffffff" d="M285.24,-245.17C323.39,-245.33 380.6,-245.57 424.02,-245.75"/>
<polygon fill="#ffffff" stroke="#ffffff" points="285.03,-241.67 275.01,-245.13 285,-248.67 285.03,-241.67"/>
</g>
<!-- Relation of Equivalence -->
<g id="node10" class="node">
<title>Relation of Equivalence</title>
<g id="a_node10"><a xlink:href="/Knowledge/Relation of Equivalence.html" xlink:title="Relation of Equivalence" target="_parent">
<path fill="none" stroke="#b75867" d="M548.5,-153C548.5,-153 423.5,-153 423.5,-153 417.5,-153 411.5,-147 411.5,-141 411.5,-141 411.5,-129 411.5,-129 411.5,-123 417.5,-117 423.5,-117 423.5,-117 548.5,-117 548.5,-117 554.5,-117 560.5,-123 560.5,-129 560.5,-129 560.5,-141 560.5,-141 560.5,-147 554.5,-153 548.5,-153"/>
<text text-anchor="middle" x="486" y="-131.9" font-family="sans" font-size="12.00" fill="#c4c7c7">Relation of Equivalence</text>
</a>
</g>
</g>
<!-- Relation&#45;&gt;Relation of Equivalence -->
<g id="edge9" class="edge">
<title>Relation&#45;&gt;Relation of Equivalence</title>
<path fill="none" stroke="#ffffff" d="M251.18,-217.03C256.97,-200.2 266.88,-179.8 283,-168 319.56,-141.24 369.81,-132.95 411.04,-131.37"/>
<polygon fill="#ffffff" stroke="#ffffff" points="247.72,-216.36 248.08,-226.95 254.4,-218.44 247.72,-216.36"/>
</g>
<!-- Symmetric Relation -->
<g id="node11" class="node">
<title>Symmetric Relation</title>
<g id="a_node11"><a xlink:href="/Knowledge/Symmetric Relation.html" xlink:title="Symmetric Relation" target="_parent">
<path fill="none" stroke="#b75867" d="M538,-116C538,-116 434,-116 434,-116 428,-116 422,-110 422,-104 422,-104 422,-92 422,-92 422,-86 428,-80 434,-80 434,-80 538,-80 538,-80 544,-80 550,-86 550,-92 550,-92 550,-104 550,-104 550,-110 544,-116 538,-116"/>
<text text-anchor="middle" x="486" y="-94.9" font-family="sans" font-size="12.00" fill="#c4c7c7">Symmetric Relation</text>
</a>
</g>
</g>
<!-- Relation&#45;&gt;Symmetric Relation -->
<g id="edge10" class="edge">
<title>Relation&#45;&gt;Symmetric Relation</title>
<path fill="none" stroke="#ffffff" d="M245.81,-216.98C249.06,-190.94 258.08,-153.1 283,-132 321,-99.83 377.85,-92.67 421.57,-92.8"/>
<polygon fill="#ffffff" stroke="#ffffff" points="242.32,-216.69 244.77,-227 249.28,-217.41 242.32,-216.69"/>
</g>
<!-- Partial function -->
<g id="node12" class="node">
<title>Partial function</title>
<g id="a_node12"><a xlink:href="/Knowledge/Partial function.html" xlink:title="Partial function" target="_parent">
<path fill="none" stroke="#b75867" d="M382,-286C382,-286 303,-286 303,-286 297,-286 291,-280 291,-274 291,-274 291,-262 291,-262 291,-256 297,-250 303,-250 303,-250 382,-250 382,-250 388,-250 394,-256 394,-262 394,-262 394,-274 394,-274 394,-280 388,-286 382,-286"/>
<text text-anchor="middle" x="342.5" y="-264.9" font-family="sans" font-size="12.00" fill="#c4c7c7">Partial function</text>
</a>
</g>
</g>
<!-- Relation&#45;&gt;Partial function -->
<g id="edge11" class="edge">
<title>Relation&#45;&gt;Partial function</title>
<path fill="none" stroke="#ffffff" d="M285.29,-254.74C287.11,-255.17 288.94,-255.6 290.77,-256.03"/>
<polygon fill="#ffffff" stroke="#ffffff" points="285.65,-251.23 275.12,-252.34 284.05,-258.04 285.65,-251.23"/>
</g>
<!-- Total function -->
<g id="node13" class="node">
<title>Total function</title>
<g id="a_node13"><a xlink:href="/Knowledge/Total function.html" xlink:title="Total function" target="_parent">
<path fill="none" stroke="#b75867" d="M378,-243C378,-243 307,-243 307,-243 301,-243 295,-237 295,-231 295,-231 295,-219 295,-219 295,-213 301,-207 307,-207 307,-207 378,-207 378,-207 384,-207 390,-213 390,-219 390,-219 390,-231 390,-231 390,-237 384,-243 378,-243"/>
<text text-anchor="middle" x="342.5" y="-221.9" font-family="sans" font-size="12.00" fill="#c4c7c7">Total function</text>
</a>
</g>
</g>
<!-- Relation&#45;&gt;Total function -->
<g id="edge14" class="edge">
<title>Relation&#45;&gt;Total function</title>
<path fill="none" stroke="#ffffff" d="M285.06,-236.58C288.24,-235.92 291.47,-235.26 294.69,-234.6"/>
<polygon fill="#ffffff" stroke="#ffffff" points="284.21,-233.18 275.12,-238.62 285.62,-240.04 284.21,-233.18"/>
</g>
<!-- Transitive Relation -->
<g id="node14" class="node">
<title>Transitive Relation</title>
<g id="a_node14"><a xlink:href="/Knowledge/Transitive Relation.html" xlink:title="Transitive Relation" target="_parent">
<path fill="none" stroke="#b75867" d="M679,-478C679,-478 582,-478 582,-478 576,-478 570,-472 570,-466 570,-466 570,-454 570,-454 570,-448 576,-442 582,-442 582,-442 679,-442 679,-442 685,-442 691,-448 691,-454 691,-454 691,-466 691,-466 691,-472 685,-478 679,-478"/>
<text text-anchor="middle" x="630.5" y="-456.9" font-family="sans" font-size="12.00" fill="#c4c7c7">Transitive Relation</text>
</a>
</g>
</g>
<!-- Relation&#45;&gt;Transitive Relation -->
<g id="edge15" class="edge">
<title>Relation&#45;&gt;Transitive Relation</title>
<path fill="none" stroke="#ffffff" d="M247.42,-273.19C251.86,-300.21 261.73,-341.05 283,-370 323.66,-425.34 344.55,-437.21 410,-458 462.12,-474.55 524.78,-473.18 569.78,-468.77"/>
<polygon fill="#ffffff" stroke="#ffffff" points="250.87,-272.59 245.92,-263.22 243.95,-273.63 250.87,-272.59"/>
</g>
<!-- Reflexive Relation -->
<g id="node15" class="node">
<title>Reflexive Relation</title>
<g id="a_node15"><a xlink:href="/Knowledge/Reflexive Relation.html" xlink:title="Reflexive Relation" target="_parent">
<path fill="none" stroke="#b75867" d="M677,-341C677,-341 584,-341 584,-341 578,-341 572,-335 572,-329 572,-329 572,-317 572,-317 572,-311 578,-305 584,-305 584,-305 677,-305 677,-305 683,-305 689,-311 689,-317 689,-317 689,-329 689,-329 689,-335 683,-341 677,-341"/>
<text text-anchor="middle" x="630.5" y="-319.9" font-family="sans" font-size="12.00" fill="#c4c7c7">Reflexive Relation</text>
</a>
</g>
</g>
<!-- Relation&#45;&gt;Reflexive Relation -->
<g id="edge16" class="edge">
<title>Relation&#45;&gt;Reflexive Relation</title>
<path fill="none" stroke="#ffffff" d="M245.74,-216.57C249.29,-168.88 259.15,-75.9 283,-55 302.36,-38.03 561.76,-45.77 562,-46 582.36,-65.73 553.44,-277.99 570,-301 570.9,-302.25 571.88,-303.43 572.93,-304.54"/>
<polygon fill="#ffffff" stroke="#ffffff" points="242.22,-216.62 245.02,-226.84 249.21,-217.11 242.22,-216.62"/>
</g>
<!-- Anti&#45;reflexive relation -->
<g id="node16" class="node">
<title>Anti&#45;reflexive relation</title>
<g id="a_node16"><a xlink:href="/Knowledge/Anti-reflexive relation.html" xlink:title="Anti&#45;reflexive relation" target="_parent">
<path fill="none" stroke="#b75867" d="M543,-79C543,-79 429,-79 429,-79 423,-79 417,-73 417,-67 417,-67 417,-55 417,-55 417,-49 423,-43 429,-43 429,-43 543,-43 543,-43 549,-43 555,-49 555,-55 555,-55 555,-67 555,-67 555,-73 549,-79 543,-79"/>
<text text-anchor="middle" x="486" y="-57.9" font-family="sans" font-size="12.00" fill="#c4c7c7">Anti&#45;reflexive relation</text>
</a>
</g>
</g>
<!-- Relation&#45;&gt;Anti&#45;reflexive relation -->
<g id="edge17" class="edge">
<title>Relation&#45;&gt;Anti&#45;reflexive relation</title>
<path fill="none" stroke="#ffffff" d="M247.59,-216.77C253.15,-177.77 265.09,-110.35 283,-94 318.69,-61.41 373.47,-54.14 416.98,-54.48"/>
<polygon fill="#ffffff" stroke="#ffffff" points="244.09,-216.57 246.19,-226.95 251.02,-217.52 244.09,-216.57"/>
</g>
<!-- Partial order -->
<g id="node17" class="node">
<title>Partial order</title>
<g id="a_node17"><a xlink:href="/Knowledge/Partial order.html" xlink:title="Partial order" target="_parent">
<path fill="none" stroke="#b75867" d="M661.5,-304C661.5,-304 599.5,-304 599.5,-304 593.5,-304 587.5,-298 587.5,-292 587.5,-292 587.5,-280 587.5,-280 587.5,-274 593.5,-268 599.5,-268 599.5,-268 661.5,-268 661.5,-268 667.5,-268 673.5,-274 673.5,-280 673.5,-280 673.5,-292 673.5,-292 673.5,-298 667.5,-304 661.5,-304"/>
<text text-anchor="middle" x="630.5" y="-282.9" font-family="sans" font-size="12.00" fill="#c4c7c7">Partial order</text>
</a>
</g>
</g>
<!-- Relation&#45;&gt;Partial order -->
<g id="edge19" class="edge">
<title>Relation&#45;&gt;Partial order</title>
<path fill="none" stroke="#ffffff" d="M245.18,-216.73C247.93,-166.46 256.7,-64.71 283,-43 294.95,-33.13 549.66,-33.62 562,-43 598.6,-70.82 620.58,-216.52 627.29,-267.98"/>
<polygon fill="#ffffff" stroke="#ffffff" points="241.67,-216.75 244.67,-226.92 248.66,-217.11 241.67,-216.75"/>
</g>
<!-- Relations&#45;&gt;Strongly Anti&#45;symmetric Relation -->
<g id="edge33" class="edge">
<title>Relations&#45;&gt;Strongly Anti&#45;symmetric Relation</title>
<path fill="none" stroke="#b75867" d="M307.74,-305.54C282.9,-305.69 247.61,-305.76 213.29,-305.75"/>
<polygon fill="#b75867" stroke="#b75867" points="213.17,-302.25 203.16,-305.74 213.16,-309.25 213.17,-302.25"/>
</g>
<!-- Relations&#45;&gt;Relation -->
<g id="edge38" class="edge">
<title>Relations&#45;&gt;Relation</title>
<path fill="none" stroke="#b75867" d="M307.87,-296.02C299.42,-292.84 290.6,-288.83 283,-284 277,-280.18 271.15,-275.33 265.89,-270.35"/>
<polygon fill="#b75867" stroke="#b75867" points="268.19,-267.69 258.65,-263.07 263.22,-272.63 268.19,-267.69"/>
</g>
<!-- Relations&#45;&gt;Linear order -->
<g id="edge22" class="edge">
<title>Relations&#45;&gt;Linear order</title>
<path fill="none" stroke="#b75867" d="M361.63,-323.08C374.86,-337.34 392.14,-358.36 402,-380 409.7,-396.89 397.49,-407.28 410,-421 416.24,-427.85 424.49,-432.61 433.23,-435.91"/>
<polygon fill="#b75867" stroke="#b75867" points="432.25,-439.27 442.84,-438.94 434.36,-432.59 432.25,-439.27"/>
</g>
<!-- Relations&#45;&gt;Anti&#45;symmetric Relation -->
<g id="edge34" class="edge">
<title>Relations&#45;&gt;Anti&#45;symmetric Relation</title>
<path fill="none" stroke="#b75867" d="M377.02,-299.02C386.38,-295.77 395.71,-290.75 402,-283 414.66,-267.4 400.1,-253.2 407.87,-235.97"/>
<polygon fill="#b75867" stroke="#b75867" points="411.05,-237.51 413.7,-227.25 405.23,-233.62 411.05,-237.51"/>
</g>
<!-- Relations&#45;&gt;Chain -->
<g id="edge20" class="edge">
<title>Relations&#45;&gt;Chain</title>
<path fill="none" stroke="#b75867" d="M377.02,-299.37C386.5,-296.13 395.89,-291.03 402,-283 414.02,-267.2 397.4,-209.35 410,-194 419.42,-182.52 434.5,-176.84 448.67,-174.09"/>
<polygon fill="#b75867" stroke="#b75867" points="449.37,-177.53 458.73,-172.57 448.32,-170.6 449.37,-177.53"/>
</g>
<!-- Relations&#45;&gt;Reflexive Closure -->
<g id="edge28" class="edge">
<title>Relations&#45;&gt;Reflexive Closure</title>
<path fill="none" stroke="#b75867" d="M377.03,-299.79C389.72,-297.81 404.63,-295.5 419.26,-293.22"/>
<polygon fill="#b75867" stroke="#b75867" points="419.96,-296.65 429.31,-291.66 418.89,-289.74 419.96,-296.65"/>
</g>
<!-- Relations&#45;&gt;Reflexive Closure -->
<g id="edge31" class="edge">
<title>Relations&#45;&gt;Reflexive Closure</title>
<path fill="none" stroke="#b75867" d="M377.03,-300.44C389.72,-298.54 404.63,-296.25 419.26,-293.97"/>
<polygon fill="#b75867" stroke="#b75867" points="419.97,-297.4 429.31,-292.39 418.88,-290.49 419.97,-297.4"/>
</g>
<!-- Relations&#45;&gt;Symmetric Closure -->
<g id="edge27" class="edge">
<title>Relations&#45;&gt;Symmetric Closure</title>
<path fill="none" stroke="#b75867" d="M377.05,-297.04C385.88,-293.76 394.9,-289.23 402,-283 407.68,-278.02 404.14,-272.77 410,-268 411.75,-266.57 413.6,-265.24 415.51,-263.99"/>
<polygon fill="#b75867" stroke="#b75867" points="417.28,-267.01 424.29,-259.06 413.85,-260.91 417.28,-267.01"/>
</g>
<!-- Relations&#45;&gt;Symmetric Closure -->
<g id="edge29" class="edge">
<title>Relations&#45;&gt;Symmetric Closure</title>
<path fill="none" stroke="#b75867" d="M377.05,-298C385.88,-294.76 394.9,-290.23 402,-284 407.68,-279.02 404.14,-273.77 410,-269 411.75,-267.57 413.6,-266.24 415.51,-264.99"/>
<polygon fill="#b75867" stroke="#b75867" points="417.29,-268.01 424.29,-260.05 413.85,-261.91 417.29,-268.01"/>
</g>
<!-- Relations&#45;&gt;Relation of Equivalence -->
<g id="edge25" class="edge">
<title>Relations&#45;&gt;Relation of Equivalence</title>
<path fill="none" stroke="#b75867" d="M377.15,-299.47C386.63,-296.23 396,-291.11 402,-283 417.06,-262.65 397.19,-194.28 408.64,-162.16"/>
<polygon fill="#b75867" stroke="#b75867" points="411.85,-163.57 413.54,-153.11 405.7,-160.24 411.85,-163.57"/>
</g>
<!-- Relations&#45;&gt;Symmetric Relation -->
<g id="edge35" class="edge">
<title>Relations&#45;&gt;Symmetric Relation</title>
<path fill="none" stroke="#b75867" d="M377.22,-299.52C386.71,-296.29 396.05,-291.15 402,-283 423.37,-253.7 387.56,-148.49 410,-120 411.13,-118.57 412.34,-117.23 413.63,-115.98"/>
<polygon fill="#b75867" stroke="#b75867" points="416,-118.56 421.75,-109.66 411.71,-113.04 416,-118.56"/>
</g>
<!-- Relations&#45;&gt;Transitive Relation -->
<g id="edge32" class="edge">
<title>Relations&#45;&gt;Transitive Relation</title>
<path fill="none" stroke="#b75867" d="M370.5,-323.05C382.15,-329.92 396.25,-337.03 410,-341 426.26,-345.69 549.88,-339.19 562,-351 574.11,-362.8 562.23,-408.37 569.08,-432.7"/>
<polygon fill="#b75867" stroke="#b75867" points="566.02,-434.42 573.5,-441.93 572.34,-431.4 566.02,-434.42"/>
</g>
<!-- Relations&#45;&gt;Reflexive Relation -->
<g id="edge37" class="edge">
<title>Relations&#45;&gt;Reflexive Relation</title>
<path fill="none" stroke="#b75867" d="M377.29,-304.38C418.38,-303.96 490.07,-304.32 561.67,-311.15"/>
<polygon fill="#b75867" stroke="#b75867" points="561.47,-314.65 571.77,-312.16 562.17,-307.68 561.47,-314.65"/>
</g>
<!-- Relations&#45;&gt;Anti&#45;reflexive relation -->
<g id="edge36" class="edge">
<title>Relations&#45;&gt;Anti&#45;reflexive relation</title>
<path fill="none" stroke="#b75867" d="M377.26,-299.55C386.76,-296.32 396.09,-291.18 402,-283 413.9,-266.52 399.3,-127.71 412.34,-85.34"/>
<polygon fill="#b75867" stroke="#b75867" points="415.59,-86.66 416.79,-76.13 409.29,-83.61 415.59,-86.66"/>
</g>
<!-- Relations&#45;&gt;Partial order -->
<g id="edge23" class="edge">
<title>Relations&#45;&gt;Partial order</title>
<path fill="none" stroke="#b75867" d="M377.29,-305.42C420.31,-305.61 496.88,-304.8 562,-298 566.85,-297.49 571.88,-296.84 576.9,-296.11"/>
<polygon fill="#b75867" stroke="#b75867" points="577.81,-299.5 587.14,-294.49 576.72,-292.59 577.81,-299.5"/>
</g>
<!-- Linear extension -->
<g id="node18" class="node">
<title>Linear extension</title>
<g id="a_node18"><a xlink:href="/Knowledge/Linear extension.html" xlink:title="Linear extension" target="_parent">
<path fill="#273434" stroke="#b75867" d="M673.5,-441C673.5,-441 587.5,-441 587.5,-441 581.5,-441 575.5,-435 575.5,-429 575.5,-429 575.5,-417 575.5,-417 575.5,-411 581.5,-405 587.5,-405 587.5,-405 673.5,-405 673.5,-405 679.5,-405 685.5,-411 685.5,-417 685.5,-417 685.5,-429 685.5,-429 685.5,-435 679.5,-441 673.5,-441"/>
<text text-anchor="middle" x="630.5" y="-419.9" font-family="sans" font-size="12.00" fill="#c4c7c7">Linear extension</text>
</a>
</g>
</g>
<!-- Relations&#45;&gt;Linear extension -->
<g id="edge21" class="edge">
<title>Relations&#45;&gt;Linear extension</title>
<path fill="none" stroke="#b75867" d="M361.54,-323.12C374.72,-337.4 391.98,-358.43 402,-380 409.27,-395.65 396.72,-406.97 410,-418 421.73,-427.74 504.53,-427.26 564.99,-425.53"/>
<polygon fill="#b75867" stroke="#b75867" points="565.35,-429.02 575.24,-425.22 565.14,-422.02 565.35,-429.02"/>
</g>
<!-- Class of equivalence -->
<g id="node19" class="node">
<title>Class of equivalence</title>
<g id="a_node19"><a xlink:href="/Knowledge/Class of equivalence.html" xlink:title="Class of equivalence" target="_parent">
<path fill="#273434" stroke="#b75867" d="M539.5,-344C539.5,-344 432.5,-344 432.5,-344 426.5,-344 420.5,-338 420.5,-332 420.5,-332 420.5,-320 420.5,-320 420.5,-314 426.5,-308 432.5,-308 432.5,-308 539.5,-308 539.5,-308 545.5,-308 551.5,-314 551.5,-320 551.5,-320 551.5,-332 551.5,-332 551.5,-338 545.5,-344 539.5,-344"/>
<text text-anchor="middle" x="486" y="-322.9" font-family="sans" font-size="12.00" fill="#c4c7c7">Class of equivalence</text>
</a>
</g>
</g>
<!-- Relations&#45;&gt;Class of equivalence -->
<g id="edge24" class="edge">
<title>Relations&#45;&gt;Class of equivalence</title>
<path fill="none" stroke="#b75867" d="M377.03,-309.98C387.08,-311.47 398.53,-313.17 410.13,-314.89"/>
<polygon fill="#b75867" stroke="#b75867" points="409.93,-318.4 420.33,-316.4 410.96,-311.47 409.93,-318.4"/>
</g>
<!-- Transitive Closure -->
<g id="node20" class="node">
<title>Transitive Closure</title>
<g id="a_node20"><a xlink:href="/Knowledge/Transitive Closure.html" xlink:title="Transitive Closure" target="_parent">
<path fill="#273434" stroke="#b75867" d="M532,-421C532,-421 440,-421 440,-421 434,-421 428,-415 428,-409 428,-409 428,-397 428,-397 428,-391 434,-385 440,-385 440,-385 532,-385 532,-385 538,-385 544,-391 544,-397 544,-397 544,-409 544,-409 544,-415 538,-421 532,-421"/>
<text text-anchor="middle" x="486" y="-399.9" font-family="sans" font-size="12.00" fill="#c4c7c7">Transitive Closure</text>
</a>
</g>
</g>
<!-- Relations&#45;&gt;Transitive Closure -->
<g id="edge26" class="edge">
<title>Relations&#45;&gt;Transitive Closure</title>
<path fill="none" stroke="#b75867" d="M355.01,-323.33C366.8,-340.63 386.66,-366.08 410,-381 412.74,-382.75 415.63,-384.37 418.62,-385.86"/>
<polygon fill="#b75867" stroke="#b75867" points="417.23,-389.08 427.79,-389.98 420.1,-382.69 417.23,-389.08"/>
</g>
<!-- Relations&#45;&gt;Transitive Closure -->
<g id="edge30" class="edge">
<title>Relations&#45;&gt;Transitive Closure</title>
<path fill="none" stroke="#b75867" d="M354.35,-323.1C366.04,-340.66 386.22,-366.8 410,-382 412.74,-383.75 415.63,-385.37 418.62,-386.86"/>
<polygon fill="#b75867" stroke="#b75867" points="417.23,-390.08 427.79,-390.97 420.09,-383.69 417.23,-390.08"/>
</g>
<!-- Discrete Structures -->
<g id="node21" class="node">
<title>Discrete Structures</title>
<g id="a_node21"><a xlink:href="/Knowledge/Discrete Structures.html" xlink:title="Discrete Structures" target="_parent">
<path fill="none" stroke="#b75867" d="M535,-384C535,-384 437,-384 437,-384 431,-384 425,-378 425,-372 425,-372 425,-360 425,-360 425,-354 431,-348 437,-348 437,-348 535,-348 535,-348 541,-348 547,-354 547,-360 547,-360 547,-372 547,-372 547,-378 541,-384 535,-384"/>
<text text-anchor="middle" x="486" y="-362.9" font-family="sans" font-size="12.00" fill="#c4c7c7">Discrete Structures</text>
</a>
</g>
</g>
<!-- Relations&#45;&gt;Discrete Structures -->
<g id="edge39" class="edge">
<title>Relations&#45;&gt;Discrete Structures</title>
<path fill="none" stroke="#ffffff" d="M379.43,-328.23C389.11,-333.88 399.75,-339.57 410,-344 414.73,-346.05 419.71,-347.97 424.76,-349.76"/>
<polygon fill="#ffffff" stroke="#ffffff" points="381.23,-325.23 370.85,-323.09 377.63,-331.23 381.23,-325.23"/>
</g>
<!-- Linear order&#45;&gt;Strongly Anti&#45;symmetric Relation -->
<g id="edge42" class="edge">
<title>Linear order&#45;&gt;Strongly Anti&#45;symmetric Relation</title>
<path fill="none" stroke="#b75867" d="M442.78,-432.19C432.04,-429.06 420.55,-425.53 410,-422 319.35,-391.65 215.65,-351.35 154.81,-326.83"/>
<polygon fill="#b75867" stroke="#b75867" points="156,-323.54 145.42,-323.04 153.38,-330.03 156,-323.54"/>
</g>
<!-- Linear order&#45;&gt;Relation -->
<g id="edge44" class="edge">
<title>Linear order&#45;&gt;Relation</title>
<path fill="none" stroke="#b75867" d="M442.7,-434.49C431.74,-431.29 420.17,-427.15 410,-422 346.64,-389.91 328.13,-379.84 283,-325 270.2,-309.45 260.25,-289 253.61,-272.66"/>
<polygon fill="#b75867" stroke="#b75867" points="256.78,-271.16 249.9,-263.1 250.25,-273.69 256.78,-271.16"/>
</g>
<!-- Linear order&#45;&gt;Relations -->
<g id="edge46" class="edge">
<title>Linear order&#45;&gt;Relations</title>
<path fill="none" stroke="#ffffff" d="M433.23,-436.89C424.49,-433.61 416.24,-428.85 410,-422 397.49,-408.28 409.7,-397.89 402,-381 391.93,-358.91 374.14,-337.46 360.81,-323.01"/>
<polygon fill="#ffffff" stroke="#ffffff" points="432.25,-440.25 442.84,-439.9 434.34,-433.57 432.25,-440.25"/>
</g>
<!-- Linear order&#45;&gt;Transitive Relation -->
<g id="edge41" class="edge">
<title>Linear order&#45;&gt;Transitive Relation</title>
<path fill="none" stroke="#b75867" d="M529.37,-448.05C539.01,-449.2 549.49,-450.46 559.93,-451.7"/>
<polygon fill="#b75867" stroke="#b75867" points="559.55,-455.18 569.89,-452.89 560.38,-448.23 559.55,-455.18"/>
</g>
<!-- Linear order&#45;&gt;Reflexive Relation -->
<g id="edge43" class="edge">
<title>Linear order&#45;&gt;Reflexive Relation</title>
<path fill="none" stroke="#b75867" d="M529.28,-437.02C540.85,-433.76 552.73,-428.75 562,-421 568.1,-415.9 565.87,-411.8 570,-405 581.71,-385.72 596.62,-365.18 608.58,-349.47"/>
<polygon fill="#b75867" stroke="#b75867" points="611.56,-351.35 614.89,-341.29 606.01,-347.08 611.56,-351.35"/>
</g>
<!-- Linear order&#45;&gt;Partial order -->
<g id="edge40" class="edge">
<title>Linear order&#45;&gt;Partial order</title>
<path fill="none" stroke="#b75867" d="M529.09,-439.75C541.5,-436.66 553.91,-431.04 562,-421 577.79,-401.39 554.89,-328.14 570,-308 572.42,-304.77 575.37,-302.02 578.64,-299.67"/>
<polygon fill="#b75867" stroke="#b75867" points="580.45,-302.67 587.33,-294.62 576.93,-296.61 580.45,-302.67"/>
</g>
<!-- Linear order&#45;&gt;Linear extension -->
<g id="edge45" class="edge">
<title>Linear order&#45;&gt;Linear extension</title>
<path fill="none" stroke="#ffffff" d="M539.44,-435.64C551.16,-434 563.6,-432.25 575.39,-430.6"/>
<polygon fill="#ffffff" stroke="#ffffff" points="538.79,-432.2 529.37,-437.05 539.76,-439.13 538.79,-432.2"/>
</g>
</g>
</svg>
