<?xml version="1.0" encoding="UTF-8" standalone="no"?>
<!DOCTYPE svg PUBLIC "-//W3C//DTD SVG 1.1//EN"
 "http://www.w3.org/Graphics/SVG/1.1/DTD/svg11.dtd">
<!-- Generated by graphviz version 2.44.0 (0)
 -->
<!-- Title: Subjects Pages: 1 -->
<svg width="425pt" height="636pt"
 viewBox="0.00 0.00 425.00 636.00" xmlns="http://www.w3.org/2000/svg" xmlns:xlink="http://www.w3.org/1999/xlink">
<g id="graph0" class="graph" transform="scale(1 1) rotate(0) translate(4 632)">
<title>Subjects</title>
<polygon fill="#132020" stroke="transparent" points="-4,4 -4,-632 421,-632 421,4 -4,4"/>
<!-- Subjects -->
<g id="node1" class="node">
<title>Subjects</title>
<g id="a_node1"><a xlink:href="/Knowledge/Subjects.html" xlink:title="Subjects" target="_parent">
<path fill="#273434" stroke="#b75867" d="M53,-406C53,-406 12,-406 12,-406 6,-406 0,-400 0,-394 0,-394 0,-382 0,-382 0,-376 6,-370 12,-370 12,-370 53,-370 53,-370 59,-370 65,-376 65,-382 65,-382 65,-394 65,-394 65,-400 59,-406 53,-406"/>
<text text-anchor="middle" x="32.5" y="-384.9" font-family="sans" font-size="12.00" fill="#c4c7c7">Subjects</text>
</a>
</g>
</g>
<!-- Numeric Methods -->
<g id="node2" class="node">
<title>Numeric Methods</title>
<g id="a_node2"><a xlink:href="/Knowledge/Numeric Methods.html" xlink:title="Numeric Methods" target="_parent">
<path fill="#273434" stroke="#b75867" d="M182.5,-535C182.5,-535 90.5,-535 90.5,-535 84.5,-535 78.5,-529 78.5,-523 78.5,-523 78.5,-511 78.5,-511 78.5,-505 84.5,-499 90.5,-499 90.5,-499 182.5,-499 182.5,-499 188.5,-499 194.5,-505 194.5,-511 194.5,-511 194.5,-523 194.5,-523 194.5,-529 188.5,-535 182.5,-535"/>
<text text-anchor="middle" x="136.5" y="-513.9" font-family="sans" font-size="12.00" fill="#c4c7c7">Numeric Methods</text>
</a>
</g>
</g>
<!-- Subjects&#45;&gt;Numeric Methods -->
<g id="edge1" class="edge">
<title>Subjects&#45;&gt;Numeric Methods</title>
<path fill="none" stroke="#b75867" d="M35.45,-406.05C38.63,-427.68 46.81,-464.06 71.3,-492.18"/>
<polygon fill="#b75867" stroke="#b75867" points="68.84,-494.66 78.26,-499.5 73.91,-489.84 68.84,-494.66"/>
</g>
<!-- Discrete Structures -->
<g id="node3" class="node">
<title>Discrete Structures</title>
<g id="a_node3"><a xlink:href="/Knowledge/Discrete Structures.html" xlink:title="Discrete Structures" target="_parent">
<path fill="#273434" stroke="#b75867" d="M185.5,-406C185.5,-406 87.5,-406 87.5,-406 81.5,-406 75.5,-400 75.5,-394 75.5,-394 75.5,-382 75.5,-382 75.5,-376 81.5,-370 87.5,-370 87.5,-370 185.5,-370 185.5,-370 191.5,-370 197.5,-376 197.5,-382 197.5,-382 197.5,-394 197.5,-394 197.5,-400 191.5,-406 185.5,-406"/>
<text text-anchor="middle" x="136.5" y="-384.9" font-family="sans" font-size="12.00" fill="#c4c7c7">Discrete Structures</text>
</a>
</g>
</g>
<!-- Subjects&#45;&gt;Discrete Structures -->
<g id="edge2" class="edge">
<title>Subjects&#45;&gt;Discrete Structures</title>
<path fill="none" stroke="#b75867" d="M65.21,-388C65.32,-388 65.42,-388 65.52,-388"/>
<polygon fill="#b75867" stroke="#b75867" points="65.35,-391.5 75.35,-388 65.35,-384.5 65.35,-391.5"/>
</g>
<!-- Differential Analysis -->
<g id="node4" class="node">
<title>Differential Analysis</title>
<g id="a_node4"><a xlink:href="/Knowledge/Differential Analysis.html" xlink:title="Differential Analysis" target="_parent">
<path fill="#273434" stroke="#b75867" d="M188,-498C188,-498 85,-498 85,-498 79,-498 73,-492 73,-486 73,-486 73,-474 73,-474 73,-468 79,-462 85,-462 85,-462 188,-462 188,-462 194,-462 200,-468 200,-474 200,-474 200,-486 200,-486 200,-492 194,-498 188,-498"/>
<text text-anchor="middle" x="136.5" y="-476.9" font-family="sans" font-size="12.00" fill="#c4c7c7">Differential Analysis</text>
</a>
</g>
</g>
<!-- Subjects&#45;&gt;Differential Analysis -->
<g id="edge3" class="edge">
<title>Subjects&#45;&gt;Differential Analysis</title>
<path fill="none" stroke="#b75867" d="M53.65,-406.18C69.16,-420.16 90.76,-439.65 107.88,-455.09"/>
<polygon fill="#b75867" stroke="#b75867" points="105.62,-457.76 115.39,-461.86 110.31,-452.56 105.62,-457.76"/>
</g>
<!-- Linear Algebra -->
<g id="node5" class="node">
<title>Linear Algebra</title>
<g id="a_node5"><a xlink:href="/Knowledge/Linear Algebra.html" xlink:title="Linear Algebra" target="_parent">
<path fill="#273434" stroke="#b75867" d="M173.5,-240C173.5,-240 99.5,-240 99.5,-240 93.5,-240 87.5,-234 87.5,-228 87.5,-228 87.5,-216 87.5,-216 87.5,-210 93.5,-204 99.5,-204 99.5,-204 173.5,-204 173.5,-204 179.5,-204 185.5,-210 185.5,-216 185.5,-216 185.5,-228 185.5,-228 185.5,-234 179.5,-240 173.5,-240"/>
<text text-anchor="middle" x="136.5" y="-218.9" font-family="sans" font-size="12.00" fill="#c4c7c7">Linear Algebra</text>
</a>
</g>
</g>
<!-- Subjects&#45;&gt;Linear Algebra -->
<g id="edge4" class="edge">
<title>Subjects&#45;&gt;Linear Algebra</title>
<path fill="none" stroke="#b75867" d="M44.61,-369.92C62.54,-340.73 97.98,-283.07 118.91,-249"/>
<polygon fill="#b75867" stroke="#b75867" points="122.15,-250.41 124.4,-240.06 116.19,-246.75 122.15,-250.41"/>
</g>
<!-- index -->
<g id="node6" class="node">
<title>index</title>
<g id="a_node6"><a xlink:href="/Knowledge/index.html" xlink:title="index" target="_parent">
<path fill="none" stroke="#b75867" d="M151.5,-203C151.5,-203 121.5,-203 121.5,-203 115.5,-203 109.5,-197 109.5,-191 109.5,-191 109.5,-179 109.5,-179 109.5,-173 115.5,-167 121.5,-167 121.5,-167 151.5,-167 151.5,-167 157.5,-167 163.5,-173 163.5,-179 163.5,-179 163.5,-191 163.5,-191 163.5,-197 157.5,-203 151.5,-203"/>
<text text-anchor="middle" x="136.5" y="-181.9" font-family="sans" font-size="12.00" fill="#c4c7c7">index</text>
</a>
</g>
</g>
<!-- Subjects&#45;&gt;index -->
<g id="edge5" class="edge">
<title>Subjects&#45;&gt;index</title>
<path fill="none" stroke="#ffffff" d="M36.3,-359.89C41.31,-314.88 53.19,-229.43 73,-207 82.22,-196.57 96.68,-191.08 109.38,-188.2"/>
<polygon fill="#ffffff" stroke="#ffffff" points="32.81,-359.56 35.22,-369.88 39.77,-360.31 32.81,-359.56"/>
</g>
<!-- Numeric Methods&#45;&gt;Subjects -->
<g id="edge8" class="edge">
<title>Numeric Methods&#45;&gt;Subjects</title>
<path fill="none" stroke="#ffffff" d="M71.27,-493.14C46.67,-464.87 38.53,-428.19 35.39,-406.33"/>
<polygon fill="#ffffff" stroke="#ffffff" points="68.84,-495.66 78.26,-500.5 73.91,-490.84 68.84,-495.66"/>
</g>
<!-- Lagrange Interpolation -->
<g id="node7" class="node">
<title>Lagrange Interpolation</title>
<g id="a_node7"><a xlink:href="/Knowledge/Lagrange Interpolation.html" xlink:title="Lagrange Interpolation" target="_parent">
<path fill="#273434" stroke="#b75867" d="M374,-591C374,-591 251,-591 251,-591 245,-591 239,-585 239,-579 239,-579 239,-567 239,-567 239,-561 245,-555 251,-555 251,-555 374,-555 374,-555 380,-555 386,-561 386,-567 386,-567 386,-579 386,-579 386,-585 380,-591 374,-591"/>
<text text-anchor="middle" x="312.5" y="-569.9" font-family="sans" font-size="12.00" fill="#c4c7c7">Lagrange Interpolation</text>
</a>
</g>
</g>
<!-- Numeric Methods&#45;&gt;Lagrange Interpolation -->
<g id="edge6" class="edge">
<title>Numeric Methods&#45;&gt;Lagrange Interpolation</title>
<path fill="none" stroke="#b75867" d="M170.87,-535.12C182.39,-540.82 195.53,-546.74 208,-551 214.75,-553.31 221.84,-555.42 229,-557.35"/>
<polygon fill="#b75867" stroke="#b75867" points="228.24,-560.77 238.79,-559.86 229.97,-553.98 228.24,-560.77"/>
</g>
<!-- Function Approximation -->
<g id="node8" class="node">
<title>Function Approximation</title>
<g id="a_node8"><a xlink:href="/Knowledge/Function Approximation.html" xlink:title="Function Approximation" target="_parent">
<path fill="#273434" stroke="#b75867" d="M377,-628C377,-628 248,-628 248,-628 242,-628 236,-622 236,-616 236,-616 236,-604 236,-604 236,-598 242,-592 248,-592 248,-592 377,-592 377,-592 383,-592 389,-598 389,-604 389,-604 389,-616 389,-616 389,-622 383,-628 377,-628"/>
<text text-anchor="middle" x="312.5" y="-606.9" font-family="sans" font-size="12.00" fill="#c4c7c7">Function Approximation</text>
</a>
</g>
</g>
<!-- Numeric Methods&#45;&gt;Function Approximation -->
<g id="edge7" class="edge">
<title>Numeric Methods&#45;&gt;Function Approximation</title>
<path fill="none" stroke="#b75867" d="M150.48,-535.1C163.23,-551.5 184.21,-575.03 208,-588 213.66,-591.09 219.72,-593.74 225.95,-596.02"/>
<polygon fill="#b75867" stroke="#b75867" points="225.28,-599.49 235.87,-599.31 227.48,-592.84 225.28,-599.49"/>
</g>
<!-- Knowledege Base -->
<g id="node9" class="node">
<title>Knowledege Base</title>
<g id="a_node9"><a xlink:href="/Knowledge/Knowledege Base.html" xlink:title="Knowledege Base" target="_parent">
<path fill="none" stroke="#b75867" d="M359,-517C359,-517 266,-517 266,-517 260,-517 254,-511 254,-505 254,-505 254,-493 254,-493 254,-487 260,-481 266,-481 266,-481 359,-481 359,-481 365,-481 371,-487 371,-493 371,-493 371,-505 371,-505 371,-511 365,-517 359,-517"/>
<text text-anchor="middle" x="312.5" y="-495.9" font-family="sans" font-size="12.00" fill="#c4c7c7">Knowledege Base</text>
</a>
</g>
</g>
<!-- Numeric Methods&#45;&gt;Knowledege Base -->
<g id="edge9" class="edge">
<title>Numeric Methods&#45;&gt;Knowledege Base</title>
<path fill="none" stroke="#ffffff" d="M205.33,-509.98C221.35,-508.33 238.28,-506.57 253.81,-504.97"/>
<polygon fill="#ffffff" stroke="#ffffff" points="204.54,-506.55 194.96,-511.06 205.26,-513.51 204.54,-506.55"/>
</g>
<!-- Discrete Structures&#45;&gt;Subjects -->
<g id="edge16" class="edge">
<title>Discrete Structures&#45;&gt;Subjects</title>
<path fill="none" stroke="#ffffff" d="M65.52,-388.7C65.42,-388.7 65.32,-388.7 65.21,-388.7"/>
<polygon fill="#ffffff" stroke="#ffffff" points="65.33,-392.2 75.35,-388.74 65.36,-385.2 65.33,-392.2"/>
</g>
<!-- Discrete Structures&#45;&gt;Knowledege Base -->
<g id="edge17" class="edge">
<title>Discrete Structures&#45;&gt;Knowledege Base</title>
<path fill="none" stroke="#ffffff" d="M161.72,-413.91C173.95,-427.64 188.56,-445.13 200,-462 204.24,-468.25 201.96,-472.46 208,-477 221.14,-486.89 237.74,-492.55 253.78,-495.73"/>
<polygon fill="#ffffff" stroke="#ffffff" points="164.14,-411.37 154.85,-406.29 158.95,-416.06 164.14,-411.37"/>
</g>
<!-- Recurrent Equations -->
<g id="node10" class="node">
<title>Recurrent Equations</title>
<g id="a_node10"><a xlink:href="/Knowledge/Recurrent Equations.html" xlink:title="Recurrent Equations" target="_parent">
<path fill="#273434" stroke="#b75867" d="M366,-369C366,-369 259,-369 259,-369 253,-369 247,-363 247,-357 247,-357 247,-345 247,-345 247,-339 253,-333 259,-333 259,-333 366,-333 366,-333 372,-333 378,-339 378,-345 378,-345 378,-357 378,-357 378,-363 372,-369 366,-369"/>
<text text-anchor="middle" x="312.5" y="-347.9" font-family="sans" font-size="12.00" fill="#c4c7c7">Recurrent Equations</text>
</a>
</g>
</g>
<!-- Discrete Structures&#45;&gt;Recurrent Equations -->
<g id="edge10" class="edge">
<title>Discrete Structures&#45;&gt;Recurrent Equations</title>
<path fill="none" stroke="#b75867" d="M197.88,-375.15C201.3,-374.42 204.7,-373.7 208,-373 217.34,-371.01 227.14,-368.93 236.85,-366.87"/>
<polygon fill="#b75867" stroke="#b75867" points="237.85,-370.23 246.9,-364.73 236.39,-363.38 237.85,-370.23"/>
</g>
<!-- Combinatorics -->
<g id="node11" class="node">
<title>Combinatorics</title>
<g id="a_node11"><a xlink:href="/Knowledge/Combinatorics.html" xlink:title="Combinatorics" target="_parent">
<path fill="#273434" stroke="#b75867" d="M349.5,-332C349.5,-332 275.5,-332 275.5,-332 269.5,-332 263.5,-326 263.5,-320 263.5,-320 263.5,-308 263.5,-308 263.5,-302 269.5,-296 275.5,-296 275.5,-296 349.5,-296 349.5,-296 355.5,-296 361.5,-302 361.5,-308 361.5,-308 361.5,-320 361.5,-320 361.5,-326 355.5,-332 349.5,-332"/>
<text text-anchor="middle" x="312.5" y="-310.9" font-family="sans" font-size="12.00" fill="#c4c7c7">Combinatorics</text>
</a>
</g>
</g>
<!-- Discrete Structures&#45;&gt;Combinatorics -->
<g id="edge11" class="edge">
<title>Discrete Structures&#45;&gt;Combinatorics</title>
<path fill="none" stroke="#b75867" d="M157.31,-369.77C170.69,-358.42 189.27,-344.42 208,-336 222.16,-329.64 238.24,-325.08 253.44,-321.82"/>
<polygon fill="#b75867" stroke="#b75867" points="254.15,-325.25 263.27,-319.87 252.78,-318.39 254.15,-325.25"/>
</g>
<!-- Functions -->
<g id="node12" class="node">
<title>Functions</title>
<g id="a_node12"><a xlink:href="/Knowledge/Functions.html" xlink:title="Functions" target="_parent">
<path fill="#273434" stroke="#b75867" d="M336.5,-295C336.5,-295 288.5,-295 288.5,-295 282.5,-295 276.5,-289 276.5,-283 276.5,-283 276.5,-271 276.5,-271 276.5,-265 282.5,-259 288.5,-259 288.5,-259 336.5,-259 336.5,-259 342.5,-259 348.5,-265 348.5,-271 348.5,-271 348.5,-283 348.5,-283 348.5,-289 342.5,-295 336.5,-295"/>
<text text-anchor="middle" x="312.5" y="-273.9" font-family="sans" font-size="12.00" fill="#c4c7c7">Functions</text>
</a>
</g>
</g>
<!-- Discrete Structures&#45;&gt;Functions -->
<g id="edge12" class="edge">
<title>Discrete Structures&#45;&gt;Functions</title>
<path fill="none" stroke="#b75867" d="M146.79,-369.87C158.29,-349.33 179.86,-316.45 208,-299 225.34,-288.25 247.11,-282.68 266.2,-279.83"/>
<polygon fill="#b75867" stroke="#b75867" points="266.73,-283.29 276.2,-278.54 265.83,-276.35 266.73,-283.29"/>
</g>
<!-- Relations -->
<g id="node13" class="node">
<title>Relations</title>
<g id="a_node13"><a xlink:href="/Knowledge/Relations.html" xlink:title="Relations" target="_parent">
<path fill="#273434" stroke="#b75867" d="M335,-480C335,-480 290,-480 290,-480 284,-480 278,-474 278,-468 278,-468 278,-456 278,-456 278,-450 284,-444 290,-444 290,-444 335,-444 335,-444 341,-444 347,-450 347,-456 347,-456 347,-468 347,-468 347,-474 341,-480 335,-480"/>
<text text-anchor="middle" x="312.5" y="-458.9" font-family="sans" font-size="12.00" fill="#c4c7c7">Relations</text>
</a>
</g>
</g>
<!-- Discrete Structures&#45;&gt;Relations -->
<g id="edge13" class="edge">
<title>Discrete Structures&#45;&gt;Relations</title>
<path fill="none" stroke="#b75867" d="M157.31,-406.23C170.69,-417.58 189.27,-431.58 208,-440 226.75,-448.43 248.88,-453.69 267.85,-456.95"/>
<polygon fill="#b75867" stroke="#b75867" points="267.32,-460.4 277.74,-458.51 268.41,-453.49 267.32,-460.4"/>
</g>
<!-- Logical Equivalences -->
<g id="node14" class="node">
<title>Logical Equivalences</title>
<g id="a_node14"><a xlink:href="/Knowledge/Logical Equivalences.html" xlink:title="Logical Equivalences" target="_parent">
<path fill="#273434" stroke="#b75867" d="M367,-443C367,-443 258,-443 258,-443 252,-443 246,-437 246,-431 246,-431 246,-419 246,-419 246,-413 252,-407 258,-407 258,-407 367,-407 367,-407 373,-407 379,-413 379,-419 379,-419 379,-431 379,-431 379,-437 373,-443 367,-443"/>
<text text-anchor="middle" x="312.5" y="-421.9" font-family="sans" font-size="12.00" fill="#c4c7c7">Logical Equivalences</text>
</a>
</g>
</g>
<!-- Discrete Structures&#45;&gt;Logical Equivalences -->
<g id="edge14" class="edge">
<title>Discrete Structures&#45;&gt;Logical Equivalences</title>
<path fill="none" stroke="#b75867" d="M197.88,-400.85C201.3,-401.58 204.7,-402.3 208,-403 216.97,-404.91 226.38,-406.91 235.72,-408.89"/>
<polygon fill="#b75867" stroke="#b75867" points="235.29,-412.38 245.8,-411.04 236.74,-405.53 235.29,-412.38"/>
</g>
<!-- Logical Operators -->
<g id="node15" class="node">
<title>Logical Operators</title>
<g id="a_node15"><a xlink:href="/Knowledge/Logical Operators.html" xlink:title="Logical Operators" target="_parent">
<path fill="#273434" stroke="#b75867" d="M358.5,-406C358.5,-406 266.5,-406 266.5,-406 260.5,-406 254.5,-400 254.5,-394 254.5,-394 254.5,-382 254.5,-382 254.5,-376 260.5,-370 266.5,-370 266.5,-370 358.5,-370 358.5,-370 364.5,-370 370.5,-376 370.5,-382 370.5,-382 370.5,-394 370.5,-394 370.5,-400 364.5,-406 358.5,-406"/>
<text text-anchor="middle" x="312.5" y="-384.9" font-family="sans" font-size="12.00" fill="#c4c7c7">Logical Operators</text>
</a>
</g>
</g>
<!-- Discrete Structures&#45;&gt;Logical Operators -->
<g id="edge15" class="edge">
<title>Discrete Structures&#45;&gt;Logical Operators</title>
<path fill="none" stroke="#b75867" d="M197.87,-388C212.78,-388 228.85,-388 244.08,-388"/>
<polygon fill="#b75867" stroke="#b75867" points="244.46,-391.5 254.46,-388 244.46,-384.5 244.46,-391.5"/>
</g>
<!-- Differential Analysis&#45;&gt;Subjects -->
<g id="edge19" class="edge">
<title>Differential Analysis&#45;&gt;Subjects</title>
<path fill="none" stroke="#ffffff" d="M107.28,-455.23C90.08,-439.83 68.53,-420.36 53.17,-406.34"/>
<polygon fill="#ffffff" stroke="#ffffff" points="105.05,-457.93 114.84,-461.99 109.72,-452.71 105.05,-457.93"/>
</g>
<!-- Differential Analysis&#45;&gt;Knowledege Base -->
<g id="edge20" class="edge">
<title>Differential Analysis&#45;&gt;Knowledege Base</title>
<path fill="none" stroke="#ffffff" d="M210.3,-487.95C224.88,-489.54 240.01,-491.19 253.98,-492.72"/>
<polygon fill="#ffffff" stroke="#ffffff" points="210.64,-484.47 200.32,-486.86 209.88,-491.42 210.64,-484.47"/>
</g>
<!-- Differential Analysis&#45;&gt;Knowledege Base -->
<g id="edge21" class="edge">
<title>Differential Analysis&#45;&gt;Knowledege Base</title>
<path fill="none" stroke="#ffffff" d="M210.3,-488.69C224.88,-490.3 240.01,-491.94 253.98,-493.43"/>
<polygon fill="#ffffff" stroke="#ffffff" points="210.64,-485.21 200.32,-487.58 209.87,-492.16 210.64,-485.21"/>
</g>
<!-- Set -->
<g id="node16" class="node">
<title>Set</title>
<g id="a_node16"><a xlink:href="/Knowledge/Set.html" xlink:title="Set" target="_parent">
<path fill="#273434" stroke="#b75867" d="M327.5,-554C327.5,-554 297.5,-554 297.5,-554 291.5,-554 285.5,-548 285.5,-542 285.5,-542 285.5,-530 285.5,-530 285.5,-524 291.5,-518 297.5,-518 297.5,-518 327.5,-518 327.5,-518 333.5,-518 339.5,-524 339.5,-530 339.5,-530 339.5,-542 339.5,-542 339.5,-548 333.5,-554 327.5,-554"/>
<text text-anchor="middle" x="312.5" y="-532.9" font-family="sans" font-size="12.00" fill="#c4c7c7">Set</text>
</a>
</g>
</g>
<!-- Differential Analysis&#45;&gt;Set -->
<g id="edge18" class="edge">
<title>Differential Analysis&#45;&gt;Set</title>
<path fill="none" stroke="#b75867" d="M194.28,-498.02C196.27,-499.26 198.18,-500.59 200,-502 205.06,-505.93 202.7,-510.4 208,-514 227.64,-527.32 253.81,-532.8 274.92,-534.96"/>
<polygon fill="#b75867" stroke="#b75867" points="274.88,-538.47 285.13,-535.79 275.45,-531.49 274.88,-538.47"/>
</g>
<!-- Linear Algebra&#45;&gt;Subjects -->
<g id="edge28" class="edge">
<title>Linear Algebra&#45;&gt;Subjects</title>
<path fill="none" stroke="#ffffff" d="M119.22,-249.06C98.48,-283.08 63.15,-340.56 45,-369.78"/>
<polygon fill="#ffffff" stroke="#ffffff" points="122.45,-250.49 124.66,-240.13 116.47,-246.85 122.45,-250.49"/>
</g>
<!-- Linear Algebra&#45;&gt;Knowledege Base -->
<g id="edge29" class="edge">
<title>Linear Algebra&#45;&gt;Knowledege Base</title>
<path fill="none" stroke="#ffffff" d="M152.13,-249.11C167.01,-278.12 189.35,-325.91 200,-370 205.6,-393.18 192.31,-459.04 208,-477 219.48,-490.14 236.69,-496.56 253.8,-499.44"/>
<polygon fill="#ffffff" stroke="#ffffff" points="155.12,-247.28 147.4,-240.03 148.91,-250.52 155.12,-247.28"/>
</g>
<!-- Matrix -->
<g id="node17" class="node">
<title>Matrix</title>
<g id="a_node17"><a xlink:href="/Knowledge/Matrix.html" xlink:title="Matrix" target="_parent">
<path fill="#273434" stroke="#b75867" d="M327.5,-147C327.5,-147 297.5,-147 297.5,-147 291.5,-147 285.5,-141 285.5,-135 285.5,-135 285.5,-123 285.5,-123 285.5,-117 291.5,-111 297.5,-111 297.5,-111 327.5,-111 327.5,-111 333.5,-111 339.5,-117 339.5,-123 339.5,-123 339.5,-135 339.5,-135 339.5,-141 333.5,-147 327.5,-147"/>
<text text-anchor="middle" x="312.5" y="-125.9" font-family="sans" font-size="12.00" fill="#c4c7c7">Matrix</text>
</a>
</g>
</g>
<!-- Linear Algebra&#45;&gt;Matrix -->
<g id="edge22" class="edge">
<title>Linear Algebra&#45;&gt;Matrix</title>
<path fill="none" stroke="#b75867" d="M185.69,-211.26C191.11,-208.36 196.09,-204.67 200,-200 214.17,-183.08 192.77,-166.97 208,-151 224.96,-133.21 252.47,-128.01 274.86,-127.09"/>
<polygon fill="#b75867" stroke="#b75867" points="275.11,-130.59 285.06,-126.95 275.01,-123.59 275.11,-130.59"/>
</g>
<!-- Bijective function -->
<g id="node18" class="node">
<title>Bijective function</title>
<g id="a_node18"><a xlink:href="/Knowledge/Bijective function.html" xlink:title="Bijective function" target="_parent">
<path fill="#273434" stroke="#b75867" d="M357.5,-110C357.5,-110 267.5,-110 267.5,-110 261.5,-110 255.5,-104 255.5,-98 255.5,-98 255.5,-86 255.5,-86 255.5,-80 261.5,-74 267.5,-74 267.5,-74 357.5,-74 357.5,-74 363.5,-74 369.5,-80 369.5,-86 369.5,-86 369.5,-98 369.5,-98 369.5,-104 363.5,-110 357.5,-110"/>
<text text-anchor="middle" x="312.5" y="-88.9" font-family="sans" font-size="12.00" fill="#c4c7c7">Bijective function</text>
</a>
</g>
</g>
<!-- Linear Algebra&#45;&gt;Bijective function -->
<g id="edge23" class="edge">
<title>Linear Algebra&#45;&gt;Bijective function</title>
<path fill="none" stroke="#b75867" d="M185.69,-211.67C191.19,-208.71 196.18,-204.9 200,-200 211.81,-184.87 195.24,-128.34 208,-114 217.67,-103.13 231.27,-96.88 245.44,-93.43"/>
<polygon fill="#b75867" stroke="#b75867" points="246.17,-96.85 255.29,-91.47 244.8,-89.99 246.17,-96.85"/>
</g>
<!-- Injective function -->
<g id="node19" class="node">
<title>Injective function</title>
<g id="a_node19"><a xlink:href="/Knowledge/Injective function.html" xlink:title="Injective function" target="_parent">
<path fill="#273434" stroke="#b75867" d="M357.5,-73C357.5,-73 267.5,-73 267.5,-73 261.5,-73 255.5,-67 255.5,-61 255.5,-61 255.5,-49 255.5,-49 255.5,-43 261.5,-37 267.5,-37 267.5,-37 357.5,-37 357.5,-37 363.5,-37 369.5,-43 369.5,-49 369.5,-49 369.5,-61 369.5,-61 369.5,-67 363.5,-73 357.5,-73"/>
<text text-anchor="middle" x="312.5" y="-51.9" font-family="sans" font-size="12.00" fill="#c4c7c7">Injective function</text>
</a>
</g>
</g>
<!-- Linear Algebra&#45;&gt;Injective function -->
<g id="edge24" class="edge">
<title>Linear Algebra&#45;&gt;Injective function</title>
<path fill="none" stroke="#b75867" d="M185.52,-211.93C191.11,-208.93 196.18,-205.04 200,-200 216.55,-178.17 190.08,-97.72 208,-77 217.57,-65.94 231.2,-59.63 245.44,-56.19"/>
<polygon fill="#b75867" stroke="#b75867" points="246.21,-59.6 255.35,-54.24 244.86,-52.73 246.21,-59.6"/>
</g>
<!-- Surjective function -->
<g id="node20" class="node">
<title>Surjective function</title>
<g id="a_node20"><a xlink:href="/Knowledge/Surjective function.html" xlink:title="Surjective function" target="_parent">
<path fill="#273434" stroke="#b75867" d="M361.5,-258C361.5,-258 263.5,-258 263.5,-258 257.5,-258 251.5,-252 251.5,-246 251.5,-246 251.5,-234 251.5,-234 251.5,-228 257.5,-222 263.5,-222 263.5,-222 361.5,-222 361.5,-222 367.5,-222 373.5,-228 373.5,-234 373.5,-234 373.5,-246 373.5,-246 373.5,-252 367.5,-258 361.5,-258"/>
<text text-anchor="middle" x="312.5" y="-236.9" font-family="sans" font-size="12.00" fill="#c4c7c7">Surjective function</text>
</a>
</g>
</g>
<!-- Linear Algebra&#45;&gt;Surjective function -->
<g id="edge25" class="edge">
<title>Linear Algebra&#45;&gt;Surjective function</title>
<path fill="none" stroke="#b75867" d="M185.51,-226.97C202.73,-228.75 222.53,-230.8 241.25,-232.73"/>
<polygon fill="#b75867" stroke="#b75867" points="240.91,-236.22 251.21,-233.76 241.63,-229.25 240.91,-236.22"/>
</g>
<!-- Kronecker Delta -->
<g id="node21" class="node">
<title>Kronecker Delta</title>
<g id="a_node21"><a xlink:href="/Knowledge/Kronecker Delta.html" xlink:title="Kronecker Delta" target="_parent">
<path fill="#273434" stroke="#b75867" d="M354,-221C354,-221 271,-221 271,-221 265,-221 259,-215 259,-209 259,-209 259,-197 259,-197 259,-191 265,-185 271,-185 271,-185 354,-185 354,-185 360,-185 366,-191 366,-197 366,-197 366,-209 366,-209 366,-215 360,-221 354,-221"/>
<text text-anchor="middle" x="312.5" y="-199.9" font-family="sans" font-size="12.00" fill="#c4c7c7">Kronecker Delta</text>
</a>
</g>
</g>
<!-- Linear Algebra&#45;&gt;Kronecker Delta -->
<g id="edge26" class="edge">
<title>Linear Algebra&#45;&gt;Kronecker Delta</title>
<path fill="none" stroke="#b75867" d="M185.51,-216.76C205.04,-214.62 227.89,-212.13 248.72,-209.86"/>
<polygon fill="#b75867" stroke="#b75867" points="249.2,-213.32 258.76,-208.76 248.44,-206.37 249.2,-213.32"/>
</g>
<!-- Fundamental Theorem of Algebra -->
<g id="node22" class="node">
<title>Fundamental Theorem of Algebra</title>
<g id="a_node22"><a xlink:href="/Knowledge/Fundamental Theorem of Algebra.html" xlink:title="Fundamental Theorem of Algebra" target="_parent">
<path fill="#273434" stroke="#b75867" d="M405,-184C405,-184 220,-184 220,-184 214,-184 208,-178 208,-172 208,-172 208,-160 208,-160 208,-154 214,-148 220,-148 220,-148 405,-148 405,-148 411,-148 417,-154 417,-160 417,-160 417,-172 417,-172 417,-178 411,-184 405,-184"/>
<text text-anchor="middle" x="312.5" y="-162.9" font-family="sans" font-size="12.00" fill="#c4c7c7">Fundamental Theorem of Algebra</text>
</a>
</g>
</g>
<!-- Linear Algebra&#45;&gt;Fundamental Theorem of Algebra -->
<g id="edge27" class="edge">
<title>Linear Algebra&#45;&gt;Fundamental Theorem of Algebra</title>
<path fill="none" stroke="#b75867" d="M185.6,-208.74C190.72,-206.28 195.64,-203.39 200,-200 203.32,-197.42 203.44,-194.61 206.36,-190.89"/>
<polygon fill="#b75867" stroke="#b75867" points="208.83,-193.39 214.12,-184.21 204.26,-188.09 208.83,-193.39"/>
</g>
<!-- index&#45;&gt;Subjects -->
<g id="edge30" class="edge">
<title>index&#45;&gt;Subjects</title>
<path fill="none" stroke="#b75867" d="M109.38,-189.09C96.68,-192.08 82.22,-197.57 73,-208 53.29,-230.31 41.43,-315.03 36.37,-359.84"/>
<polygon fill="#b75867" stroke="#b75867" points="32.89,-359.47 35.29,-369.79 39.85,-360.23 32.89,-359.47"/>
</g>
<!-- Org Roam -->
<g id="node23" class="node">
<title>Org Roam</title>
<g id="a_node23"><a xlink:href="/Knowledge/Org Roam.html" xlink:title="Org Roam" target="_parent">
<path fill="#273434" stroke="#b75867" d="M336.5,-36C336.5,-36 288.5,-36 288.5,-36 282.5,-36 276.5,-30 276.5,-24 276.5,-24 276.5,-12 276.5,-12 276.5,-6 282.5,0 288.5,0 288.5,0 336.5,0 336.5,0 342.5,0 348.5,-6 348.5,-12 348.5,-12 348.5,-24 348.5,-24 348.5,-30 342.5,-36 336.5,-36"/>
<text text-anchor="middle" x="312.5" y="-14.9" font-family="sans" font-size="12.00" fill="#c4c7c7">Org Roam</text>
</a>
</g>
</g>
<!-- index&#45;&gt;Org Roam -->
<g id="edge31" class="edge">
<title>index&#45;&gt;Org Roam</title>
<path fill="none" stroke="#b75867" d="M141.01,-166.61C147.96,-135.42 166.55,-72.42 208,-40 224.39,-27.18 246.53,-21.4 266.13,-18.94"/>
<polygon fill="#b75867" stroke="#b75867" points="266.51,-22.42 276.11,-17.93 265.81,-15.45 266.51,-22.42"/>
</g>
</g>
</svg>
