<?xml version="1.0" encoding="UTF-8" standalone="no"?>
<!DOCTYPE svg PUBLIC "-//W3C//DTD SVG 1.1//EN"
 "http://www.w3.org/Graphics/SVG/1.1/DTD/svg11.dtd">
<!-- Generated by graphviz version 2.46.1 (0)
 -->
<!-- Title: Subjects Pages: 1 -->
<svg width="385pt" height="599pt"
 viewBox="0.00 0.00 385.00 599.00" xmlns="http://www.w3.org/2000/svg" xmlns:xlink="http://www.w3.org/1999/xlink">
<g id="graph0" class="graph" transform="scale(1 1) rotate(0) translate(4 595)">
<title>Subjects</title>
<polygon fill="#132020" stroke="transparent" points="-4,4 -4,-595 381,-595 381,4 -4,4"/>
<!-- Subjects -->
<g id="node1" class="node">
<title>Subjects</title>
<g id="a_node1"><a xlink:href="/Knowledge/subjects.html" xlink:title="Subjects" target="_parent">
<path fill="#273434" stroke="#b75867" d="M48,-295C48,-295 12,-295 12,-295 6,-295 0,-289 0,-283 0,-283 0,-271 0,-271 0,-265 6,-259 12,-259 12,-259 48,-259 48,-259 54,-259 60,-265 60,-271 60,-271 60,-283 60,-283 60,-289 54,-295 48,-295"/>
<text text-anchor="middle" x="30" y="-273.9" font-family="sans" font-size="12.00" fill="#c4c7c7">Subjects</text>
</a>
</g>
</g>
<!-- Numeric Methods -->
<g id="node2" class="node">
<title>Numeric Methods</title>
<g id="a_node2"><a xlink:href="/Knowledge/numeric_methods.html" xlink:title="Numeric Methods" target="_parent">
<path fill="#273434" stroke="#b75867" d="M167,-489C167,-489 85,-489 85,-489 79,-489 73,-483 73,-477 73,-477 73,-465 73,-465 73,-459 79,-453 85,-453 85,-453 167,-453 167,-453 173,-453 179,-459 179,-465 179,-465 179,-477 179,-477 179,-483 173,-489 167,-489"/>
<text text-anchor="middle" x="126" y="-467.9" font-family="sans" font-size="12.00" fill="#c4c7c7">Numeric Methods</text>
</a>
</g>
</g>
<!-- Subjects&#45;&gt;Numeric Methods -->
<g id="edge1" class="edge">
<title>Subjects&#45;&gt;Numeric Methods</title>
<path fill="none" stroke="#b75867" d="M35.41,-295.3C41.21,-317.82 52.52,-356.9 68,-388 77.99,-408.07 92.27,-428.86 104.05,-444.62"/>
<polygon fill="#b75867" stroke="#b75867" points="101.44,-446.97 110.28,-452.81 107.01,-442.74 101.44,-446.97"/>
</g>
<!-- Discrete Structures -->
<g id="node3" class="node">
<title>Discrete Structures</title>
<g id="a_node3"><a xlink:href="/Knowledge/discrete_structures.html" xlink:title="Discrete Structures" target="_parent">
<path fill="#273434" stroke="#b75867" d="M169.5,-387C169.5,-387 82.5,-387 82.5,-387 76.5,-387 70.5,-381 70.5,-375 70.5,-375 70.5,-363 70.5,-363 70.5,-357 76.5,-351 82.5,-351 82.5,-351 169.5,-351 169.5,-351 175.5,-351 181.5,-357 181.5,-363 181.5,-363 181.5,-375 181.5,-375 181.5,-381 175.5,-387 169.5,-387"/>
<text text-anchor="middle" x="126" y="-365.9" font-family="sans" font-size="12.00" fill="#c4c7c7">Discrete Structures</text>
</a>
</g>
</g>
<!-- Subjects&#45;&gt;Discrete Structures -->
<g id="edge2" class="edge">
<title>Subjects&#45;&gt;Discrete Structures</title>
<path fill="none" stroke="#b75867" d="M49.57,-295.18C63.73,-309.04 83.41,-328.3 99.12,-343.67"/>
<polygon fill="#b75867" stroke="#b75867" points="96.87,-346.37 106.47,-350.86 101.77,-341.37 96.87,-346.37"/>
</g>
<!-- Differential Analysis -->
<g id="node4" class="node">
<title>Differential Analysis</title>
<g id="a_node4"><a xlink:href="/Knowledge/differential_analysis.html" xlink:title="Differential Analysis" target="_parent">
<path fill="#273434" stroke="#b75867" d="M172,-295C172,-295 80,-295 80,-295 74,-295 68,-289 68,-283 68,-283 68,-271 68,-271 68,-265 74,-259 80,-259 80,-259 172,-259 172,-259 178,-259 184,-265 184,-271 184,-271 184,-283 184,-283 184,-289 178,-295 172,-295"/>
<text text-anchor="middle" x="126" y="-273.9" font-family="sans" font-size="12.00" fill="#c4c7c7">Differential Analysis</text>
</a>
</g>
</g>
<!-- Subjects&#45;&gt;Differential Analysis -->
<g id="edge3" class="edge">
<title>Subjects&#45;&gt;Differential Analysis</title>
<path fill="none" stroke="#b75867" d="M60.23,-277C60.38,-277 60.54,-277 60.69,-277"/>
<polygon fill="#b75867" stroke="#b75867" points="57.86,-280.5 67.86,-277 57.86,-273.5 57.86,-280.5"/>
</g>
<!-- Linear Algebra -->
<g id="node5" class="node">
<title>Linear Algebra</title>
<g id="a_node5"><a xlink:href="/Knowledge/linear_algebra.html" xlink:title="Linear Algebra" target="_parent">
<path fill="#273434" stroke="#b75867" d="M158.5,-221C158.5,-221 93.5,-221 93.5,-221 87.5,-221 81.5,-215 81.5,-209 81.5,-209 81.5,-197 81.5,-197 81.5,-191 87.5,-185 93.5,-185 93.5,-185 158.5,-185 158.5,-185 164.5,-185 170.5,-191 170.5,-197 170.5,-197 170.5,-209 170.5,-209 170.5,-215 164.5,-221 158.5,-221"/>
<text text-anchor="middle" x="126" y="-199.9" font-family="sans" font-size="12.00" fill="#c4c7c7">Linear Algebra</text>
</a>
</g>
</g>
<!-- Subjects&#45;&gt;Linear Algebra -->
<g id="edge4" class="edge">
<title>Subjects&#45;&gt;Linear Algebra</title>
<path fill="none" stroke="#b75867" d="M54.24,-258.71C66.19,-249.3 80.92,-237.7 93.85,-227.52"/>
<polygon fill="#b75867" stroke="#b75867" points="96.34,-230.02 102.03,-221.08 92.01,-224.52 96.34,-230.02"/>
</g>
<!-- index -->
<g id="node6" class="node">
<title>index</title>
<g id="a_node6"><a xlink:href="/Knowledge/index.html" xlink:title="index" target="_parent">
<path fill="none" stroke="#b75867" d="M141,-184C141,-184 111,-184 111,-184 105,-184 99,-178 99,-172 99,-172 99,-160 99,-160 99,-154 105,-148 111,-148 111,-148 141,-148 141,-148 147,-148 153,-154 153,-160 153,-160 153,-172 153,-172 153,-178 147,-184 141,-184"/>
<text text-anchor="middle" x="126" y="-162.9" font-family="sans" font-size="12.00" fill="#c4c7c7">index</text>
</a>
</g>
</g>
<!-- Subjects&#45;&gt;index -->
<g id="edge5" class="edge">
<title>Subjects&#45;&gt;index</title>
<path fill="none" stroke="#ffffff" d="M36.49,-249.11C41.63,-229.69 51.14,-204.43 68,-188 76.43,-179.78 88.27,-174.55 98.97,-171.27"/>
<polygon fill="#ffffff" stroke="#ffffff" points="33.07,-248.38 34.13,-258.92 39.87,-250.02 33.07,-248.38"/>
</g>
<!-- Numeric Methods&#45;&gt;Subjects -->
<g id="edge8" class="edge">
<title>Numeric Methods&#45;&gt;Subjects</title>
<path fill="none" stroke="#ffffff" d="M103.58,-444.87C91.9,-429.32 77.86,-408.81 68,-389 52.34,-357.54 40.95,-317.91 35.21,-295.21"/>
<polygon fill="#ffffff" stroke="#ffffff" points="100.92,-447.16 109.78,-452.97 106.48,-442.9 100.92,-447.16"/>
</g>
<!-- Lagrange Interpolation -->
<g id="node7" class="node">
<title>Lagrange Interpolation</title>
<g id="a_node7"><a xlink:href="/Knowledge/lagrange_interpolation.html" xlink:title="Lagrange Interpolation" target="_parent">
<path fill="#273434" stroke="#b75867" d="M338.5,-591C338.5,-591 230.5,-591 230.5,-591 224.5,-591 218.5,-585 218.5,-579 218.5,-579 218.5,-567 218.5,-567 218.5,-561 224.5,-555 230.5,-555 230.5,-555 338.5,-555 338.5,-555 344.5,-555 350.5,-561 350.5,-567 350.5,-567 350.5,-579 350.5,-579 350.5,-585 344.5,-591 338.5,-591"/>
<text text-anchor="middle" x="284.5" y="-569.9" font-family="sans" font-size="12.00" fill="#c4c7c7">Lagrange Interpolation</text>
</a>
</g>
</g>
<!-- Numeric Methods&#45;&gt;Lagrange Interpolation -->
<g id="edge6" class="edge">
<title>Numeric Methods&#45;&gt;Lagrange Interpolation</title>
<path fill="none" stroke="#b75867" d="M136.93,-489.19C147.96,-507.61 167.47,-535.55 192,-551 197.26,-554.31 202.98,-557.13 208.91,-559.52"/>
<polygon fill="#b75867" stroke="#b75867" points="207.76,-562.83 218.35,-562.94 210.14,-556.25 207.76,-562.83"/>
</g>
<!-- Function Approximation -->
<g id="node8" class="node">
<title>Function Approximation</title>
<g id="a_node8"><a xlink:href="/Knowledge/function_approximation.html" xlink:title="Function Approximation" target="_parent">
<path fill="#273434" stroke="#b75867" d="M341.5,-554C341.5,-554 227.5,-554 227.5,-554 221.5,-554 215.5,-548 215.5,-542 215.5,-542 215.5,-530 215.5,-530 215.5,-524 221.5,-518 227.5,-518 227.5,-518 341.5,-518 341.5,-518 347.5,-518 353.5,-524 353.5,-530 353.5,-530 353.5,-542 353.5,-542 353.5,-548 347.5,-554 341.5,-554"/>
<text text-anchor="middle" x="284.5" y="-532.9" font-family="sans" font-size="12.00" fill="#c4c7c7">Function Approximation</text>
</a>
</g>
</g>
<!-- Numeric Methods&#45;&gt;Function Approximation -->
<g id="edge7" class="edge">
<title>Numeric Methods&#45;&gt;Function Approximation</title>
<path fill="none" stroke="#b75867" d="M149.94,-489.03C161.9,-497.67 177.11,-507.52 192,-514 196.36,-515.9 200.91,-517.64 205.55,-519.26"/>
<polygon fill="#b75867" stroke="#b75867" points="204.58,-522.62 215.17,-522.37 206.74,-515.96 204.58,-522.62"/>
</g>
<!-- Discrete Structures&#45;&gt;Subjects -->
<g id="edge15" class="edge">
<title>Discrete Structures&#45;&gt;Subjects</title>
<path fill="none" stroke="#ffffff" d="M98.57,-343.81C82.79,-328.48 63.15,-309.24 49.12,-295.34"/>
<polygon fill="#ffffff" stroke="#ffffff" points="96.35,-346.54 105.96,-350.99 101.22,-341.51 96.35,-346.54"/>
</g>
<!-- Recurrent Equations -->
<g id="node9" class="node">
<title>Recurrent Equations</title>
<g id="a_node9"><a xlink:href="/Knowledge/recurrent_equations.html" xlink:title="Recurrent Equations" target="_parent">
<path fill="#273434" stroke="#b75867" d="M332,-517C332,-517 237,-517 237,-517 231,-517 225,-511 225,-505 225,-505 225,-493 225,-493 225,-487 231,-481 237,-481 237,-481 332,-481 332,-481 338,-481 344,-487 344,-493 344,-493 344,-505 344,-505 344,-511 338,-517 332,-517"/>
<text text-anchor="middle" x="284.5" y="-495.9" font-family="sans" font-size="12.00" fill="#c4c7c7">Recurrent Equations</text>
</a>
</g>
</g>
<!-- Discrete Structures&#45;&gt;Recurrent Equations -->
<g id="edge9" class="edge">
<title>Discrete Structures&#45;&gt;Recurrent Equations</title>
<path fill="none" stroke="#b75867" d="M141.46,-387.11C154.03,-403.54 172.05,-428.83 184,-453 188.98,-463.08 183.72,-469.4 192,-477 198.65,-483.1 206.68,-487.59 215.2,-490.89"/>
<polygon fill="#b75867" stroke="#b75867" points="214.38,-494.3 224.97,-494.12 216.58,-487.65 214.38,-494.3"/>
</g>
<!-- Combinatorics -->
<g id="node10" class="node">
<title>Combinatorics</title>
<g id="a_node10"><a xlink:href="/Knowledge/combinatorics.html" xlink:title="Combinatorics" target="_parent">
<path fill="#273434" stroke="#b75867" d="M318,-480C318,-480 251,-480 251,-480 245,-480 239,-474 239,-468 239,-468 239,-456 239,-456 239,-450 245,-444 251,-444 251,-444 318,-444 318,-444 324,-444 330,-450 330,-456 330,-456 330,-468 330,-468 330,-474 324,-480 318,-480"/>
<text text-anchor="middle" x="284.5" y="-458.9" font-family="sans" font-size="12.00" fill="#c4c7c7">Combinatorics</text>
</a>
</g>
</g>
<!-- Discrete Structures&#45;&gt;Combinatorics -->
<g id="edge10" class="edge">
<title>Discrete Structures&#45;&gt;Combinatorics</title>
<path fill="none" stroke="#b75867" d="M138.95,-387.29C150.56,-403.59 169.69,-426.84 192,-440 203.11,-446.55 216.06,-451.15 228.66,-454.38"/>
<polygon fill="#b75867" stroke="#b75867" points="228.13,-457.85 238.66,-456.69 229.7,-451.03 228.13,-457.85"/>
</g>
<!-- Functions -->
<g id="node11" class="node">
<title>Functions</title>
<g id="a_node11"><a xlink:href="/Knowledge/functions.html" xlink:title="Functions" target="_parent">
<path fill="#273434" stroke="#b75867" d="M306,-443C306,-443 263,-443 263,-443 257,-443 251,-437 251,-431 251,-431 251,-419 251,-419 251,-413 257,-407 263,-407 263,-407 306,-407 306,-407 312,-407 318,-413 318,-419 318,-419 318,-431 318,-431 318,-437 312,-443 306,-443"/>
<text text-anchor="middle" x="284.5" y="-421.9" font-family="sans" font-size="12.00" fill="#c4c7c7">Functions</text>
</a>
</g>
</g>
<!-- Discrete Structures&#45;&gt;Functions -->
<g id="edge11" class="edge">
<title>Discrete Structures&#45;&gt;Functions</title>
<path fill="none" stroke="#b75867" d="M157.69,-387.03C168.3,-392.73 180.43,-398.66 192,-403 207.56,-408.84 225.2,-413.51 240.81,-417.02"/>
<polygon fill="#b75867" stroke="#b75867" points="240.22,-420.47 250.74,-419.16 241.7,-413.63 240.22,-420.47"/>
</g>
<!-- Relations -->
<g id="node12" class="node">
<title>Relations</title>
<g id="a_node12"><a xlink:href="/Knowledge/relations.html" xlink:title="Relations" target="_parent">
<path fill="#273434" stroke="#b75867" d="M304.5,-406C304.5,-406 264.5,-406 264.5,-406 258.5,-406 252.5,-400 252.5,-394 252.5,-394 252.5,-382 252.5,-382 252.5,-376 258.5,-370 264.5,-370 264.5,-370 304.5,-370 304.5,-370 310.5,-370 316.5,-376 316.5,-382 316.5,-382 316.5,-394 316.5,-394 316.5,-400 310.5,-406 304.5,-406"/>
<text text-anchor="middle" x="284.5" y="-384.9" font-family="sans" font-size="12.00" fill="#c4c7c7">Relations</text>
</a>
</g>
</g>
<!-- Discrete Structures&#45;&gt;Relations -->
<g id="edge12" class="edge">
<title>Discrete Structures&#45;&gt;Relations</title>
<path fill="none" stroke="#b75867" d="M181.74,-375.65C201.58,-378.05 223.64,-380.73 242.14,-382.98"/>
<polygon fill="#b75867" stroke="#b75867" points="241.94,-386.48 252.29,-384.21 242.78,-379.53 241.94,-386.48"/>
</g>
<!-- Logical Equivalences -->
<g id="node13" class="node">
<title>Logical Equivalences</title>
<g id="a_node13"><a xlink:href="/Knowledge/logical_equivalences.html" xlink:title="Logical Equivalences" target="_parent">
<path fill="#273434" stroke="#b75867" d="M333,-369C333,-369 236,-369 236,-369 230,-369 224,-363 224,-357 224,-357 224,-345 224,-345 224,-339 230,-333 236,-333 236,-333 333,-333 333,-333 339,-333 345,-339 345,-345 345,-345 345,-357 345,-357 345,-363 339,-369 333,-369"/>
<text text-anchor="middle" x="284.5" y="-347.9" font-family="sans" font-size="12.00" fill="#c4c7c7">Logical Equivalences</text>
</a>
</g>
</g>
<!-- Discrete Structures&#45;&gt;Logical Equivalences -->
<g id="edge13" class="edge">
<title>Discrete Structures&#45;&gt;Logical Equivalences</title>
<path fill="none" stroke="#b75867" d="M181.74,-362.7C192.09,-361.51 203.05,-360.25 213.79,-359.02"/>
<polygon fill="#b75867" stroke="#b75867" points="214.46,-362.46 224,-357.84 213.66,-355.51 214.46,-362.46"/>
</g>
<!-- Logical Operators -->
<g id="node14" class="node">
<title>Logical Operators</title>
<g id="a_node14"><a xlink:href="/Knowledge/logical_operators.html" xlink:title="Logical Operators" target="_parent">
<path fill="#273434" stroke="#b75867" d="M325.5,-332C325.5,-332 243.5,-332 243.5,-332 237.5,-332 231.5,-326 231.5,-320 231.5,-320 231.5,-308 231.5,-308 231.5,-302 237.5,-296 243.5,-296 243.5,-296 325.5,-296 325.5,-296 331.5,-296 337.5,-302 337.5,-308 337.5,-308 337.5,-320 337.5,-320 337.5,-326 331.5,-332 325.5,-332"/>
<text text-anchor="middle" x="284.5" y="-310.9" font-family="sans" font-size="12.00" fill="#c4c7c7">Logical Operators</text>
</a>
</g>
</g>
<!-- Discrete Structures&#45;&gt;Logical Operators -->
<g id="edge14" class="edge">
<title>Discrete Structures&#45;&gt;Logical Operators</title>
<path fill="none" stroke="#b75867" d="M159.06,-350.85C169.36,-345.53 180.96,-340.07 192,-336 201.31,-332.57 211.36,-329.53 221.27,-326.89"/>
<polygon fill="#b75867" stroke="#b75867" points="222.27,-330.24 231.09,-324.37 220.54,-323.46 222.27,-330.24"/>
</g>
<!-- Differential Analysis&#45;&gt;Subjects -->
<g id="edge17" class="edge">
<title>Differential Analysis&#45;&gt;Subjects</title>
<path fill="none" stroke="#ffffff" d="M60.69,-277.7C60.54,-277.7 60.38,-277.7 60.23,-277.7"/>
<polygon fill="#ffffff" stroke="#ffffff" points="57.85,-281.19 67.86,-277.73 57.88,-274.19 57.85,-281.19"/>
</g>
<!-- Set -->
<g id="node15" class="node">
<title>Set</title>
<g id="a_node15"><a xlink:href="/Knowledge/set.html" xlink:title="Set" target="_parent">
<path fill="#273434" stroke="#b75867" d="M299.5,-295C299.5,-295 269.5,-295 269.5,-295 263.5,-295 257.5,-289 257.5,-283 257.5,-283 257.5,-271 257.5,-271 257.5,-265 263.5,-259 269.5,-259 269.5,-259 299.5,-259 299.5,-259 305.5,-259 311.5,-265 311.5,-271 311.5,-271 311.5,-283 311.5,-283 311.5,-289 305.5,-295 299.5,-295"/>
<text text-anchor="middle" x="284.5" y="-273.9" font-family="sans" font-size="12.00" fill="#c4c7c7">Set</text>
</a>
</g>
</g>
<!-- Differential Analysis&#45;&gt;Set -->
<g id="edge16" class="edge">
<title>Differential Analysis&#45;&gt;Set</title>
<path fill="none" stroke="#b75867" d="M184.39,-277C205.34,-277 228.45,-277 247.08,-277"/>
<polygon fill="#b75867" stroke="#b75867" points="247.2,-280.5 257.2,-277 247.2,-273.5 247.2,-280.5"/>
</g>
<!-- Linear Algebra&#45;&gt;Subjects -->
<g id="edge24" class="edge">
<title>Linear Algebra&#45;&gt;Subjects</title>
<path fill="none" stroke="#ffffff" d="M94.72,-227.55C81.76,-237.82 66.86,-249.54 54.72,-258.99"/>
<polygon fill="#ffffff" stroke="#ffffff" points="97.25,-230 102.9,-221.04 92.89,-224.52 97.25,-230"/>
</g>
<!-- Matrix -->
<g id="node16" class="node">
<title>Matrix</title>
<g id="a_node16"><a xlink:href="/Knowledge/matrix.html" xlink:title="Matrix" target="_parent">
<path fill="#273434" stroke="#b75867" d="M299.5,-258C299.5,-258 269.5,-258 269.5,-258 263.5,-258 257.5,-252 257.5,-246 257.5,-246 257.5,-234 257.5,-234 257.5,-228 263.5,-222 269.5,-222 269.5,-222 299.5,-222 299.5,-222 305.5,-222 311.5,-228 311.5,-234 311.5,-234 311.5,-246 311.5,-246 311.5,-252 305.5,-258 299.5,-258"/>
<text text-anchor="middle" x="284.5" y="-236.9" font-family="sans" font-size="12.00" fill="#c4c7c7">Matrix</text>
</a>
</g>
</g>
<!-- Linear Algebra&#45;&gt;Matrix -->
<g id="edge18" class="edge">
<title>Linear Algebra&#45;&gt;Matrix</title>
<path fill="none" stroke="#b75867" d="M170.59,-213.31C194.75,-219.02 224.43,-226.03 247.3,-231.44"/>
<polygon fill="#b75867" stroke="#b75867" points="246.74,-234.91 257.28,-233.8 248.35,-228.09 246.74,-234.91"/>
</g>
<!-- Bijective function -->
<g id="node17" class="node">
<title>Bijective function</title>
<g id="a_node17"><a xlink:href="/Knowledge/bijective_function.html" xlink:title="Bijective function" target="_parent">
<path fill="#273434" stroke="#b75867" d="M324.5,-221C324.5,-221 244.5,-221 244.5,-221 238.5,-221 232.5,-215 232.5,-209 232.5,-209 232.5,-197 232.5,-197 232.5,-191 238.5,-185 244.5,-185 244.5,-185 324.5,-185 324.5,-185 330.5,-185 336.5,-191 336.5,-197 336.5,-197 336.5,-209 336.5,-209 336.5,-215 330.5,-221 324.5,-221"/>
<text text-anchor="middle" x="284.5" y="-199.9" font-family="sans" font-size="12.00" fill="#c4c7c7">Bijective function</text>
</a>
</g>
</g>
<!-- Linear Algebra&#45;&gt;Bijective function -->
<g id="edge19" class="edge">
<title>Linear Algebra&#45;&gt;Bijective function</title>
<path fill="none" stroke="#b75867" d="M170.59,-203C186.62,-203 205.08,-203 222.37,-203"/>
<polygon fill="#b75867" stroke="#b75867" points="222.38,-206.5 232.38,-203 222.38,-199.5 222.38,-206.5"/>
</g>
<!-- Injective function -->
<g id="node18" class="node">
<title>Injective function</title>
<g id="a_node18"><a xlink:href="/Knowledge/injective_function.html" xlink:title="Injective function" target="_parent">
<path fill="#273434" stroke="#b75867" d="M324.5,-184C324.5,-184 244.5,-184 244.5,-184 238.5,-184 232.5,-178 232.5,-172 232.5,-172 232.5,-160 232.5,-160 232.5,-154 238.5,-148 244.5,-148 244.5,-148 324.5,-148 324.5,-148 330.5,-148 336.5,-154 336.5,-160 336.5,-160 336.5,-172 336.5,-172 336.5,-178 330.5,-184 324.5,-184"/>
<text text-anchor="middle" x="284.5" y="-162.9" font-family="sans" font-size="12.00" fill="#c4c7c7">Injective function</text>
</a>
</g>
</g>
<!-- Linear Algebra&#45;&gt;Injective function -->
<g id="edge20" class="edge">
<title>Linear Algebra&#45;&gt;Injective function</title>
<path fill="none" stroke="#b75867" d="M170.59,-192.69C186.62,-188.9 205.08,-184.54 222.37,-180.45"/>
<polygon fill="#b75867" stroke="#b75867" points="223.46,-183.79 232.38,-178.08 221.85,-176.98 223.46,-183.79"/>
</g>
<!-- Surjective function -->
<g id="node19" class="node">
<title>Surjective function</title>
<g id="a_node19"><a xlink:href="/Knowledge/surjective_function.html" xlink:title="Surjective function" target="_parent">
<path fill="#273434" stroke="#b75867" d="M328.5,-147C328.5,-147 240.5,-147 240.5,-147 234.5,-147 228.5,-141 228.5,-135 228.5,-135 228.5,-123 228.5,-123 228.5,-117 234.5,-111 240.5,-111 240.5,-111 328.5,-111 328.5,-111 334.5,-111 340.5,-117 340.5,-123 340.5,-123 340.5,-135 340.5,-135 340.5,-141 334.5,-147 328.5,-147"/>
<text text-anchor="middle" x="284.5" y="-125.9" font-family="sans" font-size="12.00" fill="#c4c7c7">Surjective function</text>
</a>
</g>
</g>
<!-- Linear Algebra&#45;&gt;Surjective function -->
<g id="edge21" class="edge">
<title>Linear Algebra&#45;&gt;Surjective function</title>
<path fill="none" stroke="#b75867" d="M170.6,-191.33C175.6,-188.58 180.24,-185.18 184,-181 193.22,-170.73 182.12,-160.64 192,-151 199.44,-143.74 208.84,-138.73 218.77,-135.3"/>
<polygon fill="#b75867" stroke="#b75867" points="219.78,-138.64 228.39,-132.47 217.81,-131.93 219.78,-138.64"/>
</g>
<!-- Kronecker Delta -->
<g id="node20" class="node">
<title>Kronecker Delta</title>
<g id="a_node20"><a xlink:href="/Knowledge/kronecker_delta.html" xlink:title="Kronecker Delta" target="_parent">
<path fill="#273434" stroke="#b75867" d="M321,-110C321,-110 248,-110 248,-110 242,-110 236,-104 236,-98 236,-98 236,-86 236,-86 236,-80 242,-74 248,-74 248,-74 321,-74 321,-74 327,-74 333,-80 333,-86 333,-86 333,-98 333,-98 333,-104 327,-110 321,-110"/>
<text text-anchor="middle" x="284.5" y="-88.9" font-family="sans" font-size="12.00" fill="#c4c7c7">Kronecker Delta</text>
</a>
</g>
</g>
<!-- Linear Algebra&#45;&gt;Kronecker Delta -->
<g id="edge22" class="edge">
<title>Linear Algebra&#45;&gt;Kronecker Delta</title>
<path fill="none" stroke="#b75867" d="M170.62,-192.13C175.75,-189.25 180.42,-185.61 184,-181 202.4,-157.32 172.07,-136.41 192,-114 200.74,-104.17 213.03,-98.35 225.77,-94.99"/>
<polygon fill="#b75867" stroke="#b75867" points="226.52,-98.41 235.55,-92.87 225.03,-91.56 226.52,-98.41"/>
</g>
<!-- Fundamental Theorem of Algebra -->
<g id="node21" class="node">
<title>Fundamental Theorem of Algebra</title>
<g id="a_node21"><a xlink:href="/Knowledge/fundamental_theorem_of_algebra.html" xlink:title="Fundamental Theorem of Algebra" target="_parent">
<path fill="#273434" stroke="#b75867" d="M365,-73C365,-73 204,-73 204,-73 198,-73 192,-67 192,-61 192,-61 192,-49 192,-49 192,-43 198,-37 204,-37 204,-37 365,-37 365,-37 371,-37 377,-43 377,-49 377,-49 377,-61 377,-61 377,-67 371,-73 365,-73"/>
<text text-anchor="middle" x="284.5" y="-51.9" font-family="sans" font-size="12.00" fill="#c4c7c7">Fundamental Theorem of Algebra</text>
</a>
</g>
</g>
<!-- Linear Algebra&#45;&gt;Fundamental Theorem of Algebra -->
<g id="edge23" class="edge">
<title>Linear Algebra&#45;&gt;Fundamental Theorem of Algebra</title>
<path fill="none" stroke="#b75867" d="M170.52,-192.42C175.73,-189.5 180.45,-185.77 184,-181 196.27,-164.51 181.25,-109.36 190.75,-82.08"/>
<polygon fill="#b75867" stroke="#b75867" points="193.92,-83.57 195.7,-73.12 187.79,-80.18 193.92,-83.57"/>
</g>
<!-- index&#45;&gt;Subjects -->
<g id="edge25" class="edge">
<title>index&#45;&gt;Subjects</title>
<path fill="none" stroke="#b75867" d="M98.97,-172.19C88.27,-175.55 76.43,-180.78 68,-189 51.42,-205.16 41.95,-229.85 36.75,-248.98"/>
<polygon fill="#b75867" stroke="#b75867" points="33.29,-248.39 34.29,-258.94 40.09,-250.07 33.29,-248.39"/>
</g>
<!-- Org Roam -->
<g id="node22" class="node">
<title>Org Roam</title>
<g id="a_node22"><a xlink:href="/Knowledge/org_roam.html" xlink:title="Org Roam" target="_parent">
<path fill="#273434" stroke="#b75867" d="M305,-36C305,-36 264,-36 264,-36 258,-36 252,-30 252,-24 252,-24 252,-12 252,-12 252,-6 258,0 264,0 264,0 305,0 305,0 311,0 317,-6 317,-12 317,-12 317,-24 317,-24 317,-30 311,-36 305,-36"/>
<text text-anchor="middle" x="284.5" y="-14.9" font-family="sans" font-size="12.00" fill="#c4c7c7">Org Roam</text>
</a>
</g>
</g>
<!-- index&#45;&gt;Org Roam -->
<g id="edge26" class="edge">
<title>index&#45;&gt;Org Roam</title>
<path fill="none" stroke="#b75867" d="M131.2,-147.89C138.57,-120.24 156.56,-67.8 192,-40 206.05,-28.98 224.79,-23.36 241.64,-20.53"/>
<polygon fill="#b75867" stroke="#b75867" points="242.41,-23.96 251.84,-19.11 241.45,-17.03 242.41,-23.96"/>
</g>
</g>
</svg>
