<?xml version="1.0" encoding="UTF-8" standalone="no"?>
<!DOCTYPE svg PUBLIC "-//W3C//DTD SVG 1.1//EN"
 "http://www.w3.org/Graphics/SVG/1.1/DTD/svg11.dtd">
<!-- Generated by graphviz version 2.44.0 (0)
 -->
<!-- Title: Surjective function Pages: 1 -->
<svg width="615pt" height="232pt"
 viewBox="0.00 0.00 615.00 232.00" xmlns="http://www.w3.org/2000/svg" xmlns:xlink="http://www.w3.org/1999/xlink">
<g id="graph0" class="graph" transform="scale(1 1) rotate(0) translate(4 228)">
<title>Surjective function</title>
<polygon fill="#132020" stroke="transparent" points="-4,4 -4,-228 611,-228 611,4 -4,4"/>
<!-- Surjective function -->
<g id="node1" class="node">
<title>Surjective function</title>
<g id="a_node1"><a xlink:href="../Surjective function.html" xlink:title="Surjective function" target="_parent">
<path fill="#273434" stroke="#b75867" d="M110,-195C110,-195 12,-195 12,-195 6,-195 0,-189 0,-183 0,-183 0,-171 0,-171 0,-165 6,-159 12,-159 12,-159 110,-159 110,-159 116,-159 122,-165 122,-171 122,-171 122,-183 122,-183 122,-189 116,-195 110,-195"/>
<text text-anchor="middle" x="61" y="-173.9" font-family="sans" font-size="12.00" fill="#c4c7c7">Surjective function</text>
</a>
</g>
</g>
<!-- Linear Algebra -->
<g id="node2" class="node">
<title>Linear Algebra</title>
<g id="a_node2"><a xlink:href="../Linear Algebra.html" xlink:title="Linear Algebra" target="_parent">
<path fill="none" stroke="#b75867" d="M216,-176C216,-176 142,-176 142,-176 136,-176 130,-170 130,-164 130,-164 130,-152 130,-152 130,-146 136,-140 142,-140 142,-140 216,-140 216,-140 222,-140 228,-146 228,-152 228,-152 228,-164 228,-164 228,-170 222,-176 216,-176"/>
<text text-anchor="middle" x="179" y="-154.9" font-family="sans" font-size="12.00" fill="#c4c7c7">Linear Algebra</text>
</a>
</g>
</g>
<!-- Surjective function&#45;&gt;Linear Algebra -->
<g id="edge1" class="edge">
<title>Surjective function&#45;&gt;Linear Algebra</title>
<path fill="none" stroke="#ffffff" d="M129.47,-165.95C129.63,-165.92 129.8,-165.9 129.96,-165.87"/>
<polygon fill="#ffffff" stroke="#ffffff" points="131.34,-162.1 122.04,-167.17 132.47,-169 131.34,-162.1"/>
</g>
<!-- Bijective function -->
<g id="node3" class="node">
<title>Bijective function</title>
<g id="a_node3"><a xlink:href="../Bijective function.html" xlink:title="Bijective function" target="_parent">
<path fill="none" stroke="#b75867" d="M385.5,-224C385.5,-224 295.5,-224 295.5,-224 289.5,-224 283.5,-218 283.5,-212 283.5,-212 283.5,-200 283.5,-200 283.5,-194 289.5,-188 295.5,-188 295.5,-188 385.5,-188 385.5,-188 391.5,-188 397.5,-194 397.5,-200 397.5,-200 397.5,-212 397.5,-212 397.5,-218 391.5,-224 385.5,-224"/>
<text text-anchor="middle" x="340.5" y="-202.9" font-family="sans" font-size="12.00" fill="#c4c7c7">Bijective function</text>
</a>
</g>
</g>
<!-- Surjective function&#45;&gt;Bijective function -->
<g id="edge2" class="edge">
<title>Surjective function&#45;&gt;Bijective function</title>
<path fill="none" stroke="#ffffff" d="M132.27,-184.34C179.02,-189.23 239.61,-195.56 283.19,-200.12"/>
<polygon fill="#ffffff" stroke="#ffffff" points="132.52,-180.85 122.21,-183.29 131.8,-187.81 132.52,-180.85"/>
</g>
<!-- Linear Algebra&#45;&gt;Surjective function -->
<g id="edge6" class="edge">
<title>Linear Algebra&#45;&gt;Surjective function</title>
<path fill="none" stroke="#b75867" d="M129.96,-166.61C129.8,-166.64 129.63,-166.66 129.47,-166.69"/>
<polygon fill="#b75867" stroke="#b75867" points="131.34,-162.83 122.04,-167.92 132.48,-169.74 131.34,-162.83"/>
</g>
<!-- Linear Algebra&#45;&gt;Bijective function -->
<g id="edge4" class="edge">
<title>Linear Algebra&#45;&gt;Bijective function</title>
<path fill="none" stroke="#b75867" d="M215.66,-176.01C222.32,-178.95 229.29,-181.76 236,-184 247.89,-187.97 260.8,-191.38 273.34,-194.26"/>
<polygon fill="#b75867" stroke="#b75867" points="272.77,-197.72 283.29,-196.45 274.28,-190.88 272.77,-197.72"/>
</g>
<!-- Matrix -->
<g id="node4" class="node">
<title>Matrix</title>
<g id="a_node4"><a xlink:href="../Matrix.html" xlink:title="Matrix" target="_parent">
<path fill="#273434" stroke="#b75867" d="M355.5,-187C355.5,-187 325.5,-187 325.5,-187 319.5,-187 313.5,-181 313.5,-175 313.5,-175 313.5,-163 313.5,-163 313.5,-157 319.5,-151 325.5,-151 325.5,-151 355.5,-151 355.5,-151 361.5,-151 367.5,-157 367.5,-163 367.5,-163 367.5,-175 367.5,-175 367.5,-181 361.5,-187 355.5,-187"/>
<text text-anchor="middle" x="340.5" y="-165.9" font-family="sans" font-size="12.00" fill="#c4c7c7">Matrix</text>
</a>
</g>
</g>
<!-- Linear Algebra&#45;&gt;Matrix -->
<g id="edge3" class="edge">
<title>Linear Algebra&#45;&gt;Matrix</title>
<path fill="none" stroke="#b75867" d="M228.29,-161.33C252.35,-162.99 280.96,-164.96 303.14,-166.49"/>
<polygon fill="#b75867" stroke="#b75867" points="302.93,-169.99 313.15,-167.18 303.42,-163 302.93,-169.99"/>
</g>
<!-- Injective function -->
<g id="node5" class="node">
<title>Injective function</title>
<g id="a_node5"><a xlink:href="../Injective function.html" xlink:title="Injective function" target="_parent">
<path fill="#273434" stroke="#b75867" d="M575,-177C575,-177 485,-177 485,-177 479,-177 473,-171 473,-165 473,-165 473,-153 473,-153 473,-147 479,-141 485,-141 485,-141 575,-141 575,-141 581,-141 587,-147 587,-153 587,-153 587,-165 587,-165 587,-171 581,-177 575,-177"/>
<text text-anchor="middle" x="530" y="-155.9" font-family="sans" font-size="12.00" fill="#c4c7c7">Injective function</text>
</a>
</g>
</g>
<!-- Linear Algebra&#45;&gt;Injective function -->
<g id="edge5" class="edge">
<title>Linear Algebra&#45;&gt;Injective function</title>
<path fill="none" stroke="#b75867" d="M228.25,-154.33C230.87,-154.2 233.47,-154.09 236,-154 328.83,-150.69 352.15,-151.24 445,-154 450.8,-154.17 456.82,-154.41 462.86,-154.69"/>
<polygon fill="#b75867" stroke="#b75867" points="462.83,-158.2 472.99,-155.2 463.18,-151.2 462.83,-158.2"/>
</g>
<!-- Kronecker Delta -->
<g id="node6" class="node">
<title>Kronecker Delta</title>
<g id="a_node6"><a xlink:href="../Kronecker Delta.html" xlink:title="Kronecker Delta" target="_parent">
<path fill="#273434" stroke="#b75867" d="M382,-147C382,-147 299,-147 299,-147 293,-147 287,-141 287,-135 287,-135 287,-123 287,-123 287,-117 293,-111 299,-111 299,-111 382,-111 382,-111 388,-111 394,-117 394,-123 394,-123 394,-135 394,-135 394,-141 388,-147 382,-147"/>
<text text-anchor="middle" x="340.5" y="-125.9" font-family="sans" font-size="12.00" fill="#c4c7c7">Kronecker Delta</text>
</a>
</g>
</g>
<!-- Linear Algebra&#45;&gt;Kronecker Delta -->
<g id="edge7" class="edge">
<title>Linear Algebra&#45;&gt;Kronecker Delta</title>
<path fill="none" stroke="#b75867" d="M228.29,-149.22C243.63,-146.43 260.81,-143.31 277,-140.36"/>
<polygon fill="#b75867" stroke="#b75867" points="277.72,-143.79 286.93,-138.56 276.47,-136.9 277.72,-143.79"/>
</g>
<!-- Fundamental Theorem of Algebra -->
<g id="node7" class="node">
<title>Fundamental Theorem of Algebra</title>
<g id="a_node7"><a xlink:href="../Fundamental Theorem of Algebra.html" xlink:title="Fundamental Theorem of Algebra" target="_parent">
<path fill="#273434" stroke="#b75867" d="M433,-110C433,-110 248,-110 248,-110 242,-110 236,-104 236,-98 236,-98 236,-86 236,-86 236,-80 242,-74 248,-74 248,-74 433,-74 433,-74 439,-74 445,-80 445,-86 445,-86 445,-98 445,-98 445,-104 439,-110 433,-110"/>
<text text-anchor="middle" x="340.5" y="-88.9" font-family="sans" font-size="12.00" fill="#c4c7c7">Fundamental Theorem of Algebra</text>
</a>
</g>
</g>
<!-- Linear Algebra&#45;&gt;Fundamental Theorem of Algebra -->
<g id="edge8" class="edge">
<title>Linear Algebra&#45;&gt;Fundamental Theorem of Algebra</title>
<path fill="none" stroke="#b75867" d="M198.49,-139.93C208.76,-130.86 222.23,-120.45 236,-114 236.09,-113.96 236.19,-113.91 236.28,-113.87"/>
<polygon fill="#b75867" stroke="#b75867" points="237.4,-117.2 245.23,-110.05 234.66,-110.76 237.4,-117.2"/>
</g>
<!-- Subjects -->
<g id="node8" class="node">
<title>Subjects</title>
<g id="a_node8"><a xlink:href="../Subjects.html" xlink:title="Subjects" target="_parent">
<path fill="none" stroke="#b75867" d="M361,-73C361,-73 320,-73 320,-73 314,-73 308,-67 308,-61 308,-61 308,-49 308,-49 308,-43 314,-37 320,-37 320,-37 361,-37 361,-37 367,-37 373,-43 373,-49 373,-49 373,-61 373,-61 373,-67 367,-73 361,-73"/>
<text text-anchor="middle" x="340.5" y="-51.9" font-family="sans" font-size="12.00" fill="#c4c7c7">Subjects</text>
</a>
</g>
</g>
<!-- Linear Algebra&#45;&gt;Subjects -->
<g id="edge9" class="edge">
<title>Linear Algebra&#45;&gt;Subjects</title>
<path fill="none" stroke="#ffffff" d="M192.31,-130.39C201.73,-112.44 216.43,-90.04 236,-77 257.25,-62.84 285.94,-57.57 307.72,-55.71"/>
<polygon fill="#ffffff" stroke="#ffffff" points="188.94,-129.3 187.62,-139.81 195.21,-132.42 188.94,-129.3"/>
</g>
<!-- Knowledege Base -->
<g id="node9" class="node">
<title>Knowledege Base</title>
<g id="a_node9"><a xlink:href="../Knowledege Base.html" xlink:title="Knowledege Base" target="_parent">
<path fill="none" stroke="#b75867" d="M387,-36C387,-36 294,-36 294,-36 288,-36 282,-30 282,-24 282,-24 282,-12 282,-12 282,-6 288,0 294,0 294,0 387,0 387,0 393,0 399,-6 399,-12 399,-12 399,-24 399,-24 399,-30 393,-36 387,-36"/>
<text text-anchor="middle" x="340.5" y="-14.9" font-family="sans" font-size="12.00" fill="#c4c7c7">Knowledege Base</text>
</a>
</g>
</g>
<!-- Linear Algebra&#45;&gt;Knowledege Base -->
<g id="edge10" class="edge">
<title>Linear Algebra&#45;&gt;Knowledege Base</title>
<path fill="none" stroke="#ffffff" d="M185.85,-129.59C192.97,-102.41 207.72,-62.34 236,-40 248.97,-29.75 265.62,-23.99 281.75,-20.83"/>
<polygon fill="#ffffff" stroke="#ffffff" points="182.37,-129.12 183.41,-139.66 189.17,-130.77 182.37,-129.12"/>
</g>
<!-- Bijective function&#45;&gt;Surjective function -->
<g id="edge11" class="edge">
<title>Bijective function&#45;&gt;Surjective function</title>
<path fill="none" stroke="#b75867" d="M283.19,-200.73C239.61,-196.34 179.02,-190.02 132.27,-185.01"/>
<polygon fill="#b75867" stroke="#b75867" points="132.53,-181.51 122.21,-183.92 131.78,-188.47 132.53,-181.51"/>
</g>
<!-- Bijective function&#45;&gt;Linear Algebra -->
<g id="edge13" class="edge">
<title>Bijective function&#45;&gt;Linear Algebra</title>
<path fill="none" stroke="#ffffff" d="M273.34,-195.24C260.8,-192.38 247.89,-188.97 236,-185 228.58,-182.52 220.83,-179.34 213.56,-176.04"/>
<polygon fill="#ffffff" stroke="#ffffff" points="272.77,-198.7 283.29,-197.41 274.26,-191.86 272.77,-198.7"/>
</g>
<!-- Bijective function&#45;&gt;Injective function -->
<g id="edge12" class="edge">
<title>Bijective function&#45;&gt;Injective function</title>
<path fill="none" stroke="#b75867" d="M397.55,-194.94C412.99,-191.66 429.69,-187.9 445,-184 450.76,-182.53 456.72,-180.93 462.69,-179.27"/>
<polygon fill="#b75867" stroke="#b75867" points="464.03,-182.53 472.69,-176.43 462.12,-175.79 464.03,-182.53"/>
</g>
<!-- Principle of the bijection -->
<g id="node10" class="node">
<title>Principle of the bijection</title>
<g id="a_node10"><a xlink:href="../Principle of the bijection.html" xlink:title="Principle of the bijection" target="_parent">
<path fill="none" stroke="#b75867" d="M595,-224C595,-224 465,-224 465,-224 459,-224 453,-218 453,-212 453,-212 453,-200 453,-200 453,-194 459,-188 465,-188 465,-188 595,-188 595,-188 601,-188 607,-194 607,-200 607,-200 607,-212 607,-212 607,-218 601,-224 595,-224"/>
<text text-anchor="middle" x="530" y="-202.9" font-family="sans" font-size="12.00" fill="#c4c7c7">Principle of the bijection</text>
</a>
</g>
</g>
<!-- Bijective function&#45;&gt;Principle of the bijection -->
<g id="edge14" class="edge">
<title>Bijective function&#45;&gt;Principle of the bijection</title>
<path fill="none" stroke="#ffffff" d="M407.9,-206C422.44,-206 437.94,-206 452.83,-206"/>
<polygon fill="#ffffff" stroke="#ffffff" points="407.5,-202.5 397.5,-206 407.5,-209.5 407.5,-202.5"/>
</g>
</g>
</svg>
