<?xml version="1.0" encoding="UTF-8" standalone="no"?>
<!DOCTYPE svg PUBLIC "-//W3C//DTD SVG 1.1//EN"
 "http://www.w3.org/Graphics/SVG/1.1/DTD/svg11.dtd">
<!-- Generated by graphviz version 2.46.1 (0)
 -->
<!-- Title: Symmetric Closure Pages: 1 -->
<svg width="584pt" height="821pt"
 viewBox="0.00 0.00 584.00 821.00" xmlns="http://www.w3.org/2000/svg" xmlns:xlink="http://www.w3.org/1999/xlink">
<g id="graph0" class="graph" transform="scale(1 1) rotate(0) translate(4 817)">
<title>Symmetric Closure</title>
<polygon fill="#132020" stroke="transparent" points="-4,4 -4,-817 580,-817 580,4 -4,4"/>
<!-- Symmetric Closure -->
<g id="node1" class="node">
<title>Symmetric Closure</title>
<g id="a_node1"><a xlink:href="/Knowledge/symmetric_closure.html" xlink:title="Symmetric Closure" target="_parent">
<path fill="#273434" stroke="#b75867" d="M99,-311C99,-311 12,-311 12,-311 6,-311 0,-305 0,-299 0,-299 0,-287 0,-287 0,-281 6,-275 12,-275 12,-275 99,-275 99,-275 105,-275 111,-281 111,-287 111,-287 111,-299 111,-299 111,-305 105,-311 99,-311"/>
<text text-anchor="middle" x="55.5" y="-289.9" font-family="sans" font-size="12.00" fill="#c4c7c7">Symmetric Closure</text>
</a>
</g>
</g>
<!-- Matrix -->
<g id="node2" class="node">
<title>Matrix</title>
<g id="a_node2"><a xlink:href="/Knowledge/matrix.html" xlink:title="Matrix" target="_parent">
<path fill="#273434" stroke="#b75867" d="M163.5,-345C163.5,-345 133.5,-345 133.5,-345 127.5,-345 121.5,-339 121.5,-333 121.5,-333 121.5,-321 121.5,-321 121.5,-315 127.5,-309 133.5,-309 133.5,-309 163.5,-309 163.5,-309 169.5,-309 175.5,-315 175.5,-321 175.5,-321 175.5,-333 175.5,-333 175.5,-339 169.5,-345 163.5,-345"/>
<text text-anchor="middle" x="148.5" y="-323.9" font-family="sans" font-size="12.00" fill="#c4c7c7">Matrix</text>
</a>
</g>
</g>
<!-- Symmetric Closure&#45;&gt;Matrix -->
<g id="edge1" class="edge">
<title>Symmetric Closure&#45;&gt;Matrix</title>
<path fill="none" stroke="#b75867" d="M104.93,-311.1C107.21,-311.95 109.47,-312.79 111.71,-313.63"/>
<polygon fill="#b75867" stroke="#b75867" points="110.63,-316.96 121.22,-317.18 113.08,-310.4 110.63,-316.96"/>
</g>
<!-- Relation -->
<g id="node3" class="node">
<title>Relation</title>
<g id="a_node3"><a xlink:href="/Knowledge/relation.html" xlink:title="Relation" target="_parent">
<path fill="#273434" stroke="#b75867" d="M166,-282C166,-282 131,-282 131,-282 125,-282 119,-276 119,-270 119,-270 119,-258 119,-258 119,-252 125,-246 131,-246 131,-246 166,-246 166,-246 172,-246 178,-252 178,-258 178,-258 178,-270 178,-270 178,-276 172,-282 166,-282"/>
<text text-anchor="middle" x="148.5" y="-260.9" font-family="sans" font-size="12.00" fill="#c4c7c7">Relation</text>
</a>
</g>
</g>
<!-- Symmetric Closure&#45;&gt;Relation -->
<g id="edge2" class="edge">
<title>Symmetric Closure&#45;&gt;Relation</title>
<path fill="none" stroke="#b75867" d="M111.01,-275.63C111.17,-275.58 111.33,-275.53 111.49,-275.47"/>
<polygon fill="#b75867" stroke="#b75867" points="110.11,-279.59 118.58,-273.22 107.99,-272.92 110.11,-279.59"/>
</g>
<!-- Set -->
<g id="node4" class="node">
<title>Set</title>
<g id="a_node4"><a xlink:href="/Knowledge/set.html" xlink:title="Set" target="_parent">
<path fill="#273434" stroke="#b75867" d="M356,-591C356,-591 326,-591 326,-591 320,-591 314,-585 314,-579 314,-579 314,-567 314,-567 314,-561 320,-555 326,-555 326,-555 356,-555 356,-555 362,-555 368,-561 368,-567 368,-567 368,-579 368,-579 368,-585 362,-591 356,-591"/>
<text text-anchor="middle" x="341" y="-569.9" font-family="sans" font-size="12.00" fill="#c4c7c7">Set</text>
</a>
</g>
</g>
<!-- Symmetric Closure&#45;&gt;Set -->
<g id="edge3" class="edge">
<title>Symmetric Closure&#45;&gt;Set</title>
<path fill="none" stroke="#b75867" d="M75.1,-311.37C124.28,-359.94 257.82,-491.83 314.26,-547.58"/>
<polygon fill="#b75867" stroke="#b75867" points="312.12,-550.39 321.7,-554.92 317.04,-545.41 312.12,-550.39"/>
</g>
<!-- Symmetric Relation -->
<g id="node5" class="node">
<title>Symmetric Relation</title>
<g id="a_node5"><a xlink:href="/Knowledge/symmetric_relation.html" xlink:title="Symmetric Relation" target="_parent">
<path fill="#273434" stroke="#b75867" d="M289,-328C289,-328 198,-328 198,-328 192,-328 186,-322 186,-316 186,-316 186,-304 186,-304 186,-298 192,-292 198,-292 198,-292 289,-292 289,-292 295,-292 301,-298 301,-304 301,-304 301,-316 301,-316 301,-322 295,-328 289,-328"/>
<text text-anchor="middle" x="243.5" y="-306.9" font-family="sans" font-size="12.00" fill="#c4c7c7">Symmetric Relation</text>
</a>
</g>
</g>
<!-- Symmetric Closure&#45;&gt;Symmetric Relation -->
<g id="edge4" class="edge">
<title>Symmetric Closure&#45;&gt;Symmetric Relation</title>
<path fill="none" stroke="#b75867" d="M111.05,-297.99C131.22,-299.83 154.33,-301.94 175.48,-303.87"/>
<polygon fill="#b75867" stroke="#b75867" points="175.41,-307.38 185.69,-304.81 176.05,-300.41 175.41,-307.38"/>
</g>
<!-- Relations -->
<g id="node6" class="node">
<title>Relations</title>
<g id="a_node6"><a xlink:href="/Knowledge/relations.html" xlink:title="Relations" target="_parent">
<path fill="none" stroke="#b75867" d="M361,-305C361,-305 321,-305 321,-305 315,-305 309,-299 309,-293 309,-293 309,-281 309,-281 309,-275 315,-269 321,-269 321,-269 361,-269 361,-269 367,-269 373,-275 373,-281 373,-281 373,-293 373,-293 373,-299 367,-305 361,-305"/>
<text text-anchor="middle" x="341" y="-283.9" font-family="sans" font-size="12.00" fill="#c4c7c7">Relations</text>
</a>
</g>
</g>
<!-- Symmetric Closure&#45;&gt;Relations -->
<g id="edge5" class="edge">
<title>Symmetric Closure&#45;&gt;Relations</title>
<path fill="none" stroke="#ffffff" d="M121.44,-290.98C180.09,-289.56 263.88,-287.84 308.76,-287.17"/>
<polygon fill="#ffffff" stroke="#ffffff" points="121.07,-287.49 111.16,-291.24 121.24,-294.49 121.07,-287.49"/>
</g>
<!-- Symmetric Closure&#45;&gt;Relations -->
<g id="edge6" class="edge">
<title>Symmetric Closure&#45;&gt;Relations</title>
<path fill="none" stroke="#ffffff" d="M121.44,-291.63C180.09,-290.38 263.88,-288.61 308.76,-287.66"/>
<polygon fill="#ffffff" stroke="#ffffff" points="121.09,-288.13 111.16,-291.84 121.23,-295.13 121.09,-288.13"/>
</g>
<!-- Matrix&#45;&gt;Symmetric Closure -->
<g id="edge7" class="edge">
<title>Matrix&#45;&gt;Symmetric Closure</title>
<path fill="none" stroke="#ffffff" d="M111.63,-314.33C108.72,-313.26 105.76,-312.16 102.8,-311.05"/>
<polygon fill="#ffffff" stroke="#ffffff" points="110.62,-317.69 121.22,-317.87 113.05,-311.12 110.62,-317.69"/>
</g>
<!-- Reflexive Closure -->
<g id="node7" class="node">
<title>Reflexive Closure</title>
<g id="a_node7"><a xlink:href="/Knowledge/reflexive_closure.html" xlink:title="Reflexive Closure" target="_parent">
<path fill="none" stroke="#b75867" d="M517.5,-480C517.5,-480 439.5,-480 439.5,-480 433.5,-480 427.5,-474 427.5,-468 427.5,-468 427.5,-456 427.5,-456 427.5,-450 433.5,-444 439.5,-444 439.5,-444 517.5,-444 517.5,-444 523.5,-444 529.5,-450 529.5,-456 529.5,-456 529.5,-468 529.5,-468 529.5,-474 523.5,-480 517.5,-480"/>
<text text-anchor="middle" x="478.5" y="-458.9" font-family="sans" font-size="12.00" fill="#c4c7c7">Reflexive Closure</text>
</a>
</g>
</g>
<!-- Matrix&#45;&gt;Reflexive Closure -->
<g id="edge8" class="edge">
<title>Matrix&#45;&gt;Reflexive Closure</title>
<path fill="none" stroke="#ffffff" d="M185.55,-328.09C227.13,-329.59 291.07,-332.72 301,-338 351.86,-365.07 332.34,-409.16 381,-440 394.79,-448.74 411.63,-454.02 427.36,-457.21"/>
<polygon fill="#ffffff" stroke="#ffffff" points="185.63,-324.59 175.51,-327.75 185.38,-331.59 185.63,-324.59"/>
</g>
<!-- Linear Algebra -->
<g id="node8" class="node">
<title>Linear Algebra</title>
<g id="a_node8"><a xlink:href="/Knowledge/linear_algebra.html" xlink:title="Linear Algebra" target="_parent">
<path fill="none" stroke="#b75867" d="M276,-371C276,-371 211,-371 211,-371 205,-371 199,-365 199,-359 199,-359 199,-347 199,-347 199,-341 205,-335 211,-335 211,-335 276,-335 276,-335 282,-335 288,-341 288,-347 288,-347 288,-359 288,-359 288,-365 282,-371 276,-371"/>
<text text-anchor="middle" x="243.5" y="-349.9" font-family="sans" font-size="12.00" fill="#c4c7c7">Linear Algebra</text>
</a>
</g>
</g>
<!-- Matrix&#45;&gt;Linear Algebra -->
<g id="edge9" class="edge">
<title>Matrix&#45;&gt;Linear Algebra</title>
<path fill="none" stroke="#ffffff" d="M185.73,-337.13C190.07,-338.34 194.53,-339.59 198.97,-340.83"/>
<polygon fill="#ffffff" stroke="#ffffff" points="186.47,-333.7 175.9,-334.38 184.59,-340.44 186.47,-333.7"/>
</g>
<!-- Relation&#45;&gt;Symmetric Closure -->
<g id="edge17" class="edge">
<title>Relation&#45;&gt;Symmetric Closure</title>
<path fill="none" stroke="#ffffff" d="M111.49,-276.21C111.33,-276.26 111.17,-276.31 111.01,-276.37"/>
<polygon fill="#ffffff" stroke="#ffffff" points="110.14,-280.33 118.58,-273.92 107.99,-273.67 110.14,-280.33"/>
</g>
<!-- Relation&#45;&gt;Symmetric Relation -->
<g id="edge19" class="edge">
<title>Relation&#45;&gt;Symmetric Relation</title>
<path fill="none" stroke="#ffffff" d="M184.73,-287.34C185.16,-287.56 185.58,-287.78 186,-288 188.62,-289.35 191.34,-290.67 194.11,-291.95"/>
<polygon fill="#ffffff" stroke="#ffffff" points="186.24,-284.17 175.82,-282.23 182.76,-290.24 186.24,-284.17"/>
</g>
<!-- Relation&#45;&gt;Relations -->
<g id="edge23" class="edge">
<title>Relation&#45;&gt;Relations</title>
<path fill="none" stroke="#ffffff" d="M188.03,-268.65C223.58,-272.94 275.72,-279.24 308.75,-283.23"/>
<polygon fill="#ffffff" stroke="#ffffff" points="188.37,-265.17 178.02,-267.44 187.53,-272.12 188.37,-265.17"/>
</g>
<!-- Relation&#45;&gt;Reflexive Closure -->
<g id="edge20" class="edge">
<title>Relation&#45;&gt;Reflexive Closure</title>
<path fill="none" stroke="#ffffff" d="M167.21,-290.98C170.89,-296.85 174.66,-303.08 178,-309 181.91,-315.92 179.42,-320.53 186,-325 220.51,-348.46 343.72,-312.27 373,-342 388.33,-357.57 366.69,-423.49 381,-440 392.53,-453.31 410.3,-459.49 427.46,-462.11"/>
<polygon fill="#ffffff" stroke="#ffffff" points="169.9,-288.69 161.57,-282.14 163.99,-292.45 169.9,-288.69"/>
</g>
<!-- Descartes Product -->
<g id="node9" class="node">
<title>Descartes Product</title>
<g id="a_node9"><a xlink:href="/Knowledge/descartes_product.html" xlink:title="Descartes Product" target="_parent">
<path fill="#273434" stroke="#b75867" d="M285.5,-253C285.5,-253 201.5,-253 201.5,-253 195.5,-253 189.5,-247 189.5,-241 189.5,-241 189.5,-229 189.5,-229 189.5,-223 195.5,-217 201.5,-217 201.5,-217 285.5,-217 285.5,-217 291.5,-217 297.5,-223 297.5,-229 297.5,-229 297.5,-241 297.5,-241 297.5,-247 291.5,-253 285.5,-253"/>
<text text-anchor="middle" x="243.5" y="-231.9" font-family="sans" font-size="12.00" fill="#c4c7c7">Descartes Product</text>
</a>
</g>
</g>
<!-- Relation&#45;&gt;Descartes Product -->
<g id="edge10" class="edge">
<title>Relation&#45;&gt;Descartes Product</title>
<path fill="none" stroke="#b75867" d="M178.16,-255.06C178.73,-254.89 179.3,-254.71 179.88,-254.53"/>
<polygon fill="#b75867" stroke="#b75867" points="180.95,-257.86 189.45,-251.54 178.86,-251.18 180.95,-257.86"/>
</g>
<!-- Partial order -->
<g id="node10" class="node">
<title>Partial order</title>
<g id="a_node10"><a xlink:href="/Knowledge/partial_order.html" xlink:title="Partial order" target="_parent">
<path fill="none" stroke="#b75867" d="M506,-73C506,-73 451,-73 451,-73 445,-73 439,-67 439,-61 439,-61 439,-49 439,-49 439,-43 445,-37 451,-37 451,-37 506,-37 506,-37 512,-37 518,-43 518,-49 518,-49 518,-61 518,-61 518,-67 512,-73 506,-73"/>
<text text-anchor="middle" x="478.5" y="-51.9" font-family="sans" font-size="12.00" fill="#c4c7c7">Partial order</text>
</a>
</g>
</g>
<!-- Relation&#45;&gt;Partial order -->
<g id="edge11" class="edge">
<title>Relation&#45;&gt;Partial order</title>
<path fill="none" stroke="#ffffff" d="M152.41,-235.78C157.13,-195.72 167.82,-125.3 186,-108 255.04,-42.33 376.8,-43.95 438.83,-49.86"/>
<polygon fill="#ffffff" stroke="#ffffff" points="148.9,-235.64 151.26,-245.97 155.86,-236.43 148.9,-235.64"/>
</g>
<!-- Chain -->
<g id="node11" class="node">
<title>Chain</title>
<g id="a_node11"><a xlink:href="/Knowledge/chain.html" xlink:title="Chain" target="_parent">
<path fill="none" stroke="#b75867" d="M493.5,-36C493.5,-36 463.5,-36 463.5,-36 457.5,-36 451.5,-30 451.5,-24 451.5,-24 451.5,-12 451.5,-12 451.5,-6 457.5,0 463.5,0 463.5,0 493.5,0 493.5,0 499.5,0 505.5,-6 505.5,-12 505.5,-12 505.5,-24 505.5,-24 505.5,-30 499.5,-36 493.5,-36"/>
<text text-anchor="middle" x="478.5" y="-14.9" font-family="sans" font-size="12.00" fill="#c4c7c7">Chain</text>
</a>
</g>
</g>
<!-- Relation&#45;&gt;Chain -->
<g id="edge12" class="edge">
<title>Relation&#45;&gt;Chain</title>
<path fill="none" stroke="#ffffff" d="M150.44,-235.95C152.77,-185.01 160.59,-80.31 186,-56 259.38,14.21 394.82,-1.77 451.49,-12.37"/>
<polygon fill="#ffffff" stroke="#ffffff" points="146.94,-235.81 150.02,-245.95 153.94,-236.11 146.94,-235.81"/>
</g>
<!-- Linear order -->
<g id="node12" class="node">
<title>Linear order</title>
<g id="a_node12"><a xlink:href="/Knowledge/linear_order.html" xlink:title="Linear order" target="_parent">
<path fill="none" stroke="#b75867" d="M506,-295C506,-295 451,-295 451,-295 445,-295 439,-289 439,-283 439,-283 439,-271 439,-271 439,-265 445,-259 451,-259 451,-259 506,-259 506,-259 512,-259 518,-265 518,-271 518,-271 518,-283 518,-283 518,-289 512,-295 506,-295"/>
<text text-anchor="middle" x="478.5" y="-273.9" font-family="sans" font-size="12.00" fill="#c4c7c7">Linear order</text>
</a>
</g>
</g>
<!-- Relation&#45;&gt;Linear order -->
<g id="edge13" class="edge">
<title>Relation&#45;&gt;Linear order</title>
<path fill="none" stroke="#ffffff" d="M188.18,-265.24C232.75,-266.71 308.18,-269.29 373,-272 394.78,-272.91 419.1,-274.07 438.8,-275.04"/>
<polygon fill="#ffffff" stroke="#ffffff" points="188.19,-261.74 178.08,-264.91 187.96,-268.74 188.19,-261.74"/>
</g>
<!-- Partial function -->
<g id="node13" class="node">
<title>Partial function</title>
<g id="a_node13"><a xlink:href="/Knowledge/partial_function.html" xlink:title="Partial function" target="_parent">
<path fill="none" stroke="#b75867" d="M278.5,-216C278.5,-216 208.5,-216 208.5,-216 202.5,-216 196.5,-210 196.5,-204 196.5,-204 196.5,-192 196.5,-192 196.5,-186 202.5,-180 208.5,-180 208.5,-180 278.5,-180 278.5,-180 284.5,-180 290.5,-186 290.5,-192 290.5,-192 290.5,-204 290.5,-204 290.5,-210 284.5,-216 278.5,-216"/>
<text text-anchor="middle" x="243.5" y="-194.9" font-family="sans" font-size="12.00" fill="#c4c7c7">Partial function</text>
</a>
</g>
</g>
<!-- Relation&#45;&gt;Partial function -->
<g id="edge14" class="edge">
<title>Relation&#45;&gt;Partial function</title>
<path fill="none" stroke="#ffffff" d="M167.56,-237.79C172.93,-231.35 179.21,-224.9 186,-220 189.24,-217.66 192.77,-215.53 196.42,-213.6"/>
<polygon fill="#ffffff" stroke="#ffffff" points="164.67,-235.8 161.28,-245.84 170.19,-240.11 164.67,-235.8"/>
</g>
<!-- Total function -->
<g id="node14" class="node">
<title>Total function</title>
<g id="a_node14"><a xlink:href="/Knowledge/total_function.html" xlink:title="Total function" target="_parent">
<path fill="none" stroke="#b75867" d="M274.5,-179C274.5,-179 212.5,-179 212.5,-179 206.5,-179 200.5,-173 200.5,-167 200.5,-167 200.5,-155 200.5,-155 200.5,-149 206.5,-143 212.5,-143 212.5,-143 274.5,-143 274.5,-143 280.5,-143 286.5,-149 286.5,-155 286.5,-155 286.5,-167 286.5,-167 286.5,-173 280.5,-179 274.5,-179"/>
<text text-anchor="middle" x="243.5" y="-157.9" font-family="sans" font-size="12.00" fill="#c4c7c7">Total function</text>
</a>
</g>
</g>
<!-- Relation&#45;&gt;Total function -->
<g id="edge15" class="edge">
<title>Relation&#45;&gt;Total function</title>
<path fill="none" stroke="#ffffff" d="M156.18,-236.27C161.63,-218.94 170.94,-197.29 186,-183 190.2,-179.01 195.2,-175.73 200.47,-173.02"/>
<polygon fill="#ffffff" stroke="#ffffff" points="152.82,-235.3 153.41,-245.88 159.54,-237.24 152.82,-235.3"/>
</g>
<!-- Reflexive Relation -->
<g id="node15" class="node">
<title>Reflexive Relation</title>
<g id="a_node15"><a xlink:href="/Knowledge/reflexive_relation.html" xlink:title="Reflexive Relation" target="_parent">
<path fill="none" stroke="#b75867" d="M519.5,-258C519.5,-258 437.5,-258 437.5,-258 431.5,-258 425.5,-252 425.5,-246 425.5,-246 425.5,-234 425.5,-234 425.5,-228 431.5,-222 437.5,-222 437.5,-222 519.5,-222 519.5,-222 525.5,-222 531.5,-228 531.5,-234 531.5,-234 531.5,-246 531.5,-246 531.5,-252 525.5,-258 519.5,-258"/>
<text text-anchor="middle" x="478.5" y="-236.9" font-family="sans" font-size="12.00" fill="#c4c7c7">Reflexive Relation</text>
</a>
</g>
</g>
<!-- Relation&#45;&gt;Reflexive Relation -->
<g id="edge16" class="edge">
<title>Relation&#45;&gt;Reflexive Relation</title>
<path fill="none" stroke="#ffffff" d="M188.29,-264.98C232.96,-265.68 308.48,-265.55 373,-259 390.15,-257.26 408.72,-254.26 425.37,-251.14"/>
<polygon fill="#ffffff" stroke="#ffffff" points="188.23,-261.48 178.17,-264.8 188.1,-268.48 188.23,-261.48"/>
</g>
<!-- Anti&#45;symmetric Relation -->
<g id="node16" class="node">
<title>Anti&#45;symmetric Relation</title>
<g id="a_node16"><a xlink:href="/Knowledge/anti-symmetric_relation.html" xlink:title="Anti&#45;symmetric Relation" target="_parent">
<path fill="none" stroke="#b75867" d="M535,-221C535,-221 422,-221 422,-221 416,-221 410,-215 410,-209 410,-209 410,-197 410,-197 410,-191 416,-185 422,-185 422,-185 535,-185 535,-185 541,-185 547,-191 547,-197 547,-197 547,-209 547,-209 547,-215 541,-221 535,-221"/>
<text text-anchor="middle" x="478.5" y="-199.9" font-family="sans" font-size="12.00" fill="#c4c7c7">Anti&#45;symmetric Relation</text>
</a>
</g>
</g>
<!-- Relation&#45;&gt;Anti&#45;symmetric Relation -->
<g id="edge18" class="edge">
<title>Relation&#45;&gt;Anti&#45;symmetric Relation</title>
<path fill="none" stroke="#ffffff" d="M188.41,-265.09C248.64,-266.42 359.01,-267.24 373,-256 384.09,-247.09 370.8,-234.92 381,-225 389.01,-217.22 399.17,-211.97 409.88,-208.46"/>
<polygon fill="#ffffff" stroke="#ffffff" points="188.21,-261.59 178.13,-264.85 188.05,-268.59 188.21,-261.59"/>
</g>
<!-- Anti&#45;reflexive relation -->
<g id="node17" class="node">
<title>Anti&#45;reflexive relation</title>
<g id="a_node17"><a xlink:href="/Knowledge/anti-reflexive_relation.html" xlink:title="Anti&#45;reflexive relation" target="_parent">
<path fill="none" stroke="#b75867" d="M528.5,-184C528.5,-184 428.5,-184 428.5,-184 422.5,-184 416.5,-178 416.5,-172 416.5,-172 416.5,-160 416.5,-160 416.5,-154 422.5,-148 428.5,-148 428.5,-148 528.5,-148 528.5,-148 534.5,-148 540.5,-154 540.5,-160 540.5,-160 540.5,-172 540.5,-172 540.5,-178 534.5,-184 528.5,-184"/>
<text text-anchor="middle" x="478.5" y="-162.9" font-family="sans" font-size="12.00" fill="#c4c7c7">Anti&#45;reflexive relation</text>
</a>
</g>
</g>
<!-- Relation&#45;&gt;Anti&#45;reflexive relation -->
<g id="edge21" class="edge">
<title>Relation&#45;&gt;Anti&#45;reflexive relation</title>
<path fill="none" stroke="#ffffff" d="M188.31,-263.37C250.53,-262.19 366.36,-259.17 373,-253 394.32,-233.19 361.49,-209.6 381,-188 390.21,-177.8 403.09,-171.82 416.45,-168.43"/>
<polygon fill="#ffffff" stroke="#ffffff" points="188.01,-259.88 178.08,-263.56 188.14,-266.88 188.01,-259.88"/>
</g>
<!-- Strongly Anti&#45;symmetric Relation -->
<g id="node18" class="node">
<title>Strongly Anti&#45;symmetric Relation</title>
<g id="a_node18"><a xlink:href="/Knowledge/strongly_anti-symmetric_relation.html" xlink:title="Strongly Anti&#45;symmetric Relation" target="_parent">
<path fill="none" stroke="#b75867" d="M557,-147C557,-147 400,-147 400,-147 394,-147 388,-141 388,-135 388,-135 388,-123 388,-123 388,-117 394,-111 400,-111 400,-111 557,-111 557,-111 563,-111 569,-117 569,-123 569,-123 569,-135 569,-135 569,-141 563,-147 557,-147"/>
<text text-anchor="middle" x="478.5" y="-125.9" font-family="sans" font-size="12.00" fill="#c4c7c7">Strongly Anti&#45;symmetric Relation</text>
</a>
</g>
</g>
<!-- Relation&#45;&gt;Strongly Anti&#45;symmetric Relation -->
<g id="edge22" class="edge">
<title>Relation&#45;&gt;Strongly Anti&#45;symmetric Relation</title>
<path fill="none" stroke="#ffffff" d="M188.2,-260.79C232.26,-257.09 298.52,-251.33 301,-250 350.87,-223.29 333,-180.94 381,-151 383.19,-149.64 385.45,-148.36 387.77,-147.16"/>
<polygon fill="#ffffff" stroke="#ffffff" points="187.75,-257.32 178.08,-261.64 188.33,-264.29 187.75,-257.32"/>
</g>
<!-- Transitive Relation -->
<g id="node19" class="node">
<title>Transitive Relation</title>
<g id="a_node19"><a xlink:href="/Knowledge/transitive_relation.html" xlink:title="Transitive Relation" target="_parent">
<path fill="none" stroke="#b75867" d="M521.5,-110C521.5,-110 435.5,-110 435.5,-110 429.5,-110 423.5,-104 423.5,-98 423.5,-98 423.5,-86 423.5,-86 423.5,-80 429.5,-74 435.5,-74 435.5,-74 521.5,-74 521.5,-74 527.5,-74 533.5,-80 533.5,-86 533.5,-86 533.5,-98 533.5,-98 533.5,-104 527.5,-110 521.5,-110"/>
<text text-anchor="middle" x="478.5" y="-88.9" font-family="sans" font-size="12.00" fill="#c4c7c7">Transitive Relation</text>
</a>
</g>
</g>
<!-- Relation&#45;&gt;Transitive Relation -->
<g id="edge24" class="edge">
<title>Relation&#45;&gt;Transitive Relation</title>
<path fill="none" stroke="#ffffff" d="M149.85,-235.65C151.82,-207.6 159.41,-165.56 186,-142 220.35,-111.57 348.85,-99.26 423.27,-94.6"/>
<polygon fill="#ffffff" stroke="#ffffff" points="146.34,-235.84 149.34,-246 153.33,-236.19 146.34,-235.84"/>
</g>
<!-- Relation of Equivalence -->
<g id="node20" class="node">
<title>Relation of Equivalence</title>
<g id="a_node20"><a xlink:href="/Knowledge/relation_of_equivalence.html" xlink:title="Relation of Equivalence" target="_parent">
<path fill="none" stroke="#b75867" d="M533.5,-443C533.5,-443 423.5,-443 423.5,-443 417.5,-443 411.5,-437 411.5,-431 411.5,-431 411.5,-419 411.5,-419 411.5,-413 417.5,-407 423.5,-407 423.5,-407 533.5,-407 533.5,-407 539.5,-407 545.5,-413 545.5,-419 545.5,-419 545.5,-431 545.5,-431 545.5,-437 539.5,-443 533.5,-443"/>
<text text-anchor="middle" x="478.5" y="-421.9" font-family="sans" font-size="12.00" fill="#c4c7c7">Relation of Equivalence</text>
</a>
</g>
</g>
<!-- Relation&#45;&gt;Relation of Equivalence -->
<g id="edge25" class="edge">
<title>Relation&#45;&gt;Relation of Equivalence</title>
<path fill="none" stroke="#ffffff" d="M187.85,-277.06C238.35,-287.92 256.88,-274.39 301,-295 305.28,-297 304.72,-300 309,-302 335.09,-314.18 353.34,-290.97 373,-312 386.86,-326.83 367.66,-387.7 381,-403 388.91,-412.07 399.7,-417.82 411.22,-421.39"/>
<polygon fill="#ffffff" stroke="#ffffff" points="188.57,-273.63 178.04,-274.73 186.96,-280.44 188.57,-273.63"/>
</g>
<!-- Set&#45;&gt;Symmetric Closure -->
<g id="edge30" class="edge">
<title>Set&#45;&gt;Symmetric Closure</title>
<path fill="none" stroke="#ffffff" d="M314.09,-547.87C257.38,-492.27 123.44,-359.96 74.67,-311.33"/>
<polygon fill="#ffffff" stroke="#ffffff" points="311.66,-550.38 321.25,-554.88 316.55,-545.38 311.66,-550.38"/>
</g>
<!-- Set&#45;&gt;Reflexive Closure -->
<g id="edge32" class="edge">
<title>Set&#45;&gt;Reflexive Closure</title>
<path fill="none" stroke="#ffffff" d="M347.31,-544.94C352.53,-525.06 362.51,-499.29 381,-484 393.98,-473.27 411.16,-467.53 427.43,-464.53"/>
<polygon fill="#ffffff" stroke="#ffffff" points="343.89,-544.18 344.99,-554.72 350.7,-545.79 343.89,-544.18"/>
</g>
<!-- Set&#45;&gt;Relation of Equivalence -->
<g id="edge37" class="edge">
<title>Set&#45;&gt;Relation of Equivalence</title>
<path fill="none" stroke="#ffffff" d="M342.94,-544.38C345.47,-515.64 353.89,-472.12 381,-447 389.44,-439.17 400.08,-433.94 411.18,-430.47"/>
<polygon fill="#ffffff" stroke="#ffffff" points="339.43,-544.39 342.23,-554.6 346.41,-544.87 339.43,-544.39"/>
</g>
<!-- Principle of partitions -->
<g id="node21" class="node">
<title>Principle of partitions</title>
<g id="a_node21"><a xlink:href="/Knowledge/principle_of_partitions.html" xlink:title="Principle of partitions" target="_parent">
<path fill="none" stroke="#b75867" d="M529.5,-665C529.5,-665 427.5,-665 427.5,-665 421.5,-665 415.5,-659 415.5,-653 415.5,-653 415.5,-641 415.5,-641 415.5,-635 421.5,-629 427.5,-629 427.5,-629 529.5,-629 529.5,-629 535.5,-629 541.5,-635 541.5,-641 541.5,-641 541.5,-653 541.5,-653 541.5,-659 535.5,-665 529.5,-665"/>
<text text-anchor="middle" x="478.5" y="-643.9" font-family="sans" font-size="12.00" fill="#c4c7c7">Principle of partitions</text>
</a>
</g>
</g>
<!-- Set&#45;&gt;Principle of partitions -->
<g id="edge26" class="edge">
<title>Set&#45;&gt;Principle of partitions</title>
<path fill="none" stroke="#ffffff" d="M356.68,-599.72C363.02,-609.01 371.24,-618.67 381,-625 391.31,-631.69 403.38,-636.36 415.44,-639.61"/>
<polygon fill="#ffffff" stroke="#ffffff" points="359.5,-597.63 351.19,-591.06 353.59,-601.38 359.5,-597.63"/>
</g>
<!-- Principle of inclusion and exclusion -->
<g id="node22" class="node">
<title>Principle of inclusion and exclusion</title>
<g id="a_node22"><a xlink:href="/Knowledge/principle_of_inclusion_and_exclusion.html" xlink:title="Principle of inclusion and exclusion" target="_parent">
<path fill="none" stroke="#b75867" d="M564,-628C564,-628 393,-628 393,-628 387,-628 381,-622 381,-616 381,-616 381,-604 381,-604 381,-598 387,-592 393,-592 393,-592 564,-592 564,-592 570,-592 576,-598 576,-604 576,-604 576,-616 576,-616 576,-622 570,-628 564,-628"/>
<text text-anchor="middle" x="478.5" y="-606.9" font-family="sans" font-size="12.00" fill="#c4c7c7">Principle of inclusion and exclusion</text>
</a>
</g>
</g>
<!-- Set&#45;&gt;Principle of inclusion and exclusion -->
<g id="edge27" class="edge">
<title>Set&#45;&gt;Principle of inclusion and exclusion</title>
<path fill="none" stroke="#ffffff" d="M377.85,-587.01C378.91,-587.35 379.96,-587.68 381,-588 385.52,-589.38 390.18,-590.71 394.91,-592"/>
<polygon fill="#ffffff" stroke="#ffffff" points="378.85,-583.65 368.26,-583.68 376.56,-590.27 378.85,-583.65"/>
</g>
<!-- Principle of the bijection -->
<g id="node23" class="node">
<title>Principle of the bijection</title>
<g id="a_node23"><a xlink:href="/Knowledge/principle_of_the_bijection.html" xlink:title="Principle of the bijection" target="_parent">
<path fill="none" stroke="#b75867" d="M536.5,-591C536.5,-591 420.5,-591 420.5,-591 414.5,-591 408.5,-585 408.5,-579 408.5,-579 408.5,-567 408.5,-567 408.5,-561 414.5,-555 420.5,-555 420.5,-555 536.5,-555 536.5,-555 542.5,-555 548.5,-561 548.5,-567 548.5,-567 548.5,-579 548.5,-579 548.5,-585 542.5,-591 536.5,-591"/>
<text text-anchor="middle" x="478.5" y="-569.9" font-family="sans" font-size="12.00" fill="#c4c7c7">Principle of the bijection</text>
</a>
</g>
</g>
<!-- Set&#45;&gt;Principle of the bijection -->
<g id="edge28" class="edge">
<title>Set&#45;&gt;Principle of the bijection</title>
<path fill="none" stroke="#ffffff" d="M378.2,-573C387.55,-573 397.94,-573 408.37,-573"/>
<polygon fill="#ffffff" stroke="#ffffff" points="378.13,-569.5 368.13,-573 378.13,-576.5 378.13,-569.5"/>
</g>
<!-- Principle of products -->
<g id="node24" class="node">
<title>Principle of products</title>
<g id="a_node24"><a xlink:href="/Knowledge/principle_of_products.html" xlink:title="Principle of products" target="_parent">
<path fill="none" stroke="#b75867" d="M527.5,-554C527.5,-554 429.5,-554 429.5,-554 423.5,-554 417.5,-548 417.5,-542 417.5,-542 417.5,-530 417.5,-530 417.5,-524 423.5,-518 429.5,-518 429.5,-518 527.5,-518 527.5,-518 533.5,-518 539.5,-524 539.5,-530 539.5,-530 539.5,-542 539.5,-542 539.5,-548 533.5,-554 527.5,-554"/>
<text text-anchor="middle" x="478.5" y="-532.9" font-family="sans" font-size="12.00" fill="#c4c7c7">Principle of products</text>
</a>
</g>
</g>
<!-- Set&#45;&gt;Principle of products -->
<g id="edge29" class="edge">
<title>Set&#45;&gt;Principle of products</title>
<path fill="none" stroke="#ffffff" d="M377.85,-558.99C378.91,-558.65 379.96,-558.32 381,-558 392.67,-554.45 405.29,-551.17 417.44,-548.29"/>
<polygon fill="#ffffff" stroke="#ffffff" points="376.56,-555.73 368.26,-562.32 378.85,-562.35 376.56,-555.73"/>
</g>
<!-- Class of equivalence -->
<g id="node25" class="node">
<title>Class of equivalence</title>
<g id="a_node25"><a xlink:href="/Knowledge/class_of_equivalence.html" xlink:title="Class of equivalence" target="_parent">
<path fill="none" stroke="#b75867" d="M526,-517C526,-517 431,-517 431,-517 425,-517 419,-511 419,-505 419,-505 419,-493 419,-493 419,-487 425,-481 431,-481 431,-481 526,-481 526,-481 532,-481 538,-487 538,-493 538,-493 538,-505 538,-505 538,-511 532,-517 526,-517"/>
<text text-anchor="middle" x="478.5" y="-495.9" font-family="sans" font-size="12.00" fill="#c4c7c7">Class of equivalence</text>
</a>
</g>
</g>
<!-- Set&#45;&gt;Class of equivalence -->
<g id="edge31" class="edge">
<title>Set&#45;&gt;Class of equivalence</title>
<path fill="none" stroke="#ffffff" d="M356.68,-546.28C363.02,-536.99 371.24,-527.33 381,-521 392.31,-513.66 405.76,-508.75 418.97,-505.47"/>
<polygon fill="#ffffff" stroke="#ffffff" points="353.59,-544.62 351.19,-554.94 359.5,-548.37 353.59,-544.62"/>
</g>
<!-- Recurrent Equations -->
<g id="node26" class="node">
<title>Recurrent Equations</title>
<g id="a_node26"><a xlink:href="/Knowledge/recurrent_equations.html" xlink:title="Recurrent Equations" target="_parent">
<path fill="none" stroke="#b75867" d="M526,-813C526,-813 431,-813 431,-813 425,-813 419,-807 419,-801 419,-801 419,-789 419,-789 419,-783 425,-777 431,-777 431,-777 526,-777 526,-777 532,-777 538,-783 538,-789 538,-789 538,-801 538,-801 538,-807 532,-813 526,-813"/>
<text text-anchor="middle" x="478.5" y="-791.9" font-family="sans" font-size="12.00" fill="#c4c7c7">Recurrent Equations</text>
</a>
</g>
</g>
<!-- Set&#45;&gt;Recurrent Equations -->
<g id="edge33" class="edge">
<title>Set&#45;&gt;Recurrent Equations</title>
<path fill="none" stroke="#ffffff" d="M343.8,-601.48C347.5,-650.74 357.66,-748.91 381,-773 391.04,-783.37 404.89,-789.3 418.95,-792.59"/>
<polygon fill="#ffffff" stroke="#ffffff" points="347.27,-600.92 343.07,-591.2 340.28,-601.42 347.27,-600.92"/>
</g>
<!-- Principle of division -->
<g id="node27" class="node">
<title>Principle of division</title>
<g id="a_node27"><a xlink:href="/Knowledge/principle_of_division.html" xlink:title="Principle of division" target="_parent">
<path fill="none" stroke="#b75867" d="M524.5,-776C524.5,-776 432.5,-776 432.5,-776 426.5,-776 420.5,-770 420.5,-764 420.5,-764 420.5,-752 420.5,-752 420.5,-746 426.5,-740 432.5,-740 432.5,-740 524.5,-740 524.5,-740 530.5,-740 536.5,-746 536.5,-752 536.5,-752 536.5,-764 536.5,-764 536.5,-770 530.5,-776 524.5,-776"/>
<text text-anchor="middle" x="478.5" y="-754.9" font-family="sans" font-size="12.00" fill="#c4c7c7">Principle of division</text>
</a>
</g>
</g>
<!-- Set&#45;&gt;Principle of division -->
<g id="edge34" class="edge">
<title>Set&#45;&gt;Principle of division</title>
<path fill="none" stroke="#ffffff" d="M345.16,-601.22C350.39,-642.73 362.16,-717.36 381,-736 391.51,-746.39 405.84,-752.29 420.25,-755.53"/>
<polygon fill="#ffffff" stroke="#ffffff" points="348.62,-600.7 343.95,-591.19 341.67,-601.54 348.62,-600.7"/>
</g>
<!-- Dirichlet principle -->
<g id="node28" class="node">
<title>Dirichlet principle</title>
<g id="a_node28"><a xlink:href="/Knowledge/dirichlet_principle.html" xlink:title="Dirichlet principle" target="_parent">
<path fill="none" stroke="#b75867" d="M520,-739C520,-739 437,-739 437,-739 431,-739 425,-733 425,-727 425,-727 425,-715 425,-715 425,-709 431,-703 437,-703 437,-703 520,-703 520,-703 526,-703 532,-709 532,-715 532,-715 532,-727 532,-727 532,-733 526,-739 520,-739"/>
<text text-anchor="middle" x="478.5" y="-717.9" font-family="sans" font-size="12.00" fill="#c4c7c7">Dirichlet principle</text>
</a>
</g>
</g>
<!-- Set&#45;&gt;Dirichlet principle -->
<g id="edge35" class="edge">
<title>Set&#45;&gt;Dirichlet principle</title>
<path fill="none" stroke="#ffffff" d="M342.94,-601.62C345.47,-630.36 353.89,-673.88 381,-699 392.91,-710.04 409.18,-715.92 424.96,-718.96"/>
<polygon fill="#ffffff" stroke="#ffffff" points="346.41,-601.13 342.23,-591.4 339.43,-601.61 346.41,-601.13"/>
</g>
<!-- Differential Analysis -->
<g id="node29" class="node">
<title>Differential Analysis</title>
<g id="a_node29"><a xlink:href="/Knowledge/differential_analysis.html" xlink:title="Differential Analysis" target="_parent">
<path fill="none" stroke="#b75867" d="M524.5,-702C524.5,-702 432.5,-702 432.5,-702 426.5,-702 420.5,-696 420.5,-690 420.5,-690 420.5,-678 420.5,-678 420.5,-672 426.5,-666 432.5,-666 432.5,-666 524.5,-666 524.5,-666 530.5,-666 536.5,-672 536.5,-678 536.5,-678 536.5,-690 536.5,-690 536.5,-696 530.5,-702 524.5,-702"/>
<text text-anchor="middle" x="478.5" y="-680.9" font-family="sans" font-size="12.00" fill="#c4c7c7">Differential Analysis</text>
</a>
</g>
</g>
<!-- Set&#45;&gt;Differential Analysis -->
<g id="edge36" class="edge">
<title>Set&#45;&gt;Differential Analysis</title>
<path fill="none" stroke="#ffffff" d="M347.31,-601.06C352.53,-620.94 362.51,-646.71 381,-662 392.12,-671.2 406.34,-676.73 420.41,-680.01"/>
<polygon fill="#ffffff" stroke="#ffffff" points="350.7,-600.21 344.99,-591.28 343.89,-601.82 350.7,-600.21"/>
</g>
<!-- Symmetric Relation&#45;&gt;Symmetric Closure -->
<g id="edge39" class="edge">
<title>Symmetric Relation&#45;&gt;Symmetric Closure</title>
<path fill="none" stroke="#ffffff" d="M175.48,-304.6C154.33,-302.71 131.22,-300.59 111.05,-298.68"/>
<polygon fill="#ffffff" stroke="#ffffff" points="175.42,-308.11 185.69,-305.5 176.04,-301.13 175.42,-308.11"/>
</g>
<!-- Symmetric Relation&#45;&gt;Relation -->
<g id="edge38" class="edge">
<title>Symmetric Relation&#45;&gt;Relation</title>
<path fill="none" stroke="#b75867" d="M192.04,-291.98C189.99,-291.01 187.96,-290.01 186,-289 185.02,-288.5 184.04,-287.97 183.05,-287.43"/>
<polygon fill="#b75867" stroke="#b75867" points="184.61,-284.28 174.21,-282.23 181.06,-290.32 184.61,-284.28"/>
</g>
<!-- Symmetric Relation&#45;&gt;Relations -->
<g id="edge40" class="edge">
<title>Symmetric Relation&#45;&gt;Relations</title>
<path fill="none" stroke="#ffffff" d="M308.27,-294.64C308.42,-294.61 308.58,-294.57 308.73,-294.53"/>
<polygon fill="#ffffff" stroke="#ffffff" points="310.06,-290.61 301.16,-296.35 311.7,-297.42 310.06,-290.61"/>
</g>
<!-- Symmetric Relation&#45;&gt;Relation of Equivalence -->
<g id="edge41" class="edge">
<title>Symmetric Relation&#45;&gt;Relation of Equivalence</title>
<path fill="none" stroke="#ffffff" d="M311.37,-312.53C337.87,-315 364.13,-319.78 373,-329 395.93,-352.84 359.01,-378.29 381,-403 389,-411.99 399.83,-417.7 411.36,-421.27"/>
<polygon fill="#ffffff" stroke="#ffffff" points="311.5,-309.03 301.25,-311.7 310.93,-316.01 311.5,-309.03"/>
</g>
<!-- Relations&#45;&gt;Symmetric Closure -->
<g id="edge49" class="edge">
<title>Relations&#45;&gt;Symmetric Closure</title>
<path fill="none" stroke="#b75867" d="M308.76,-288.15C263.88,-289.39 180.09,-291.21 121.44,-292.27"/>
<polygon fill="#b75867" stroke="#b75867" points="121.1,-288.77 111.16,-292.45 121.22,-295.77 121.1,-288.77"/>
</g>
<!-- Relations&#45;&gt;Symmetric Closure -->
<g id="edge51" class="edge">
<title>Relations&#45;&gt;Symmetric Closure</title>
<path fill="none" stroke="#b75867" d="M308.76,-288.64C263.88,-290.16 180.09,-292.04 121.44,-292.91"/>
<polygon fill="#b75867" stroke="#b75867" points="121.11,-289.41 111.16,-293.06 121.21,-296.41 121.11,-289.41"/>
</g>
<!-- Relations&#45;&gt;Relation -->
<g id="edge60" class="edge">
<title>Relations&#45;&gt;Relation</title>
<path fill="none" stroke="#b75867" d="M308.75,-283.8C275.72,-280.03 223.58,-273.75 188.03,-269.27"/>
<polygon fill="#b75867" stroke="#b75867" points="188.38,-265.78 178.02,-268 187.5,-272.73 188.38,-265.78"/>
</g>
<!-- Relations&#45;&gt;Symmetric Relation -->
<g id="edge57" class="edge">
<title>Relations&#45;&gt;Symmetric Relation</title>
<path fill="none" stroke="#b75867" d="M308.73,-295.24C308.58,-295.28 308.42,-295.32 308.27,-295.35"/>
<polygon fill="#b75867" stroke="#b75867" points="310.04,-291.32 301.16,-297.09 311.7,-298.12 310.04,-291.32"/>
</g>
<!-- Relations&#45;&gt;Reflexive Closure -->
<g id="edge50" class="edge">
<title>Relations&#45;&gt;Reflexive Closure</title>
<path fill="none" stroke="#b75867" d="M359.01,-305.31C364.44,-312.23 369.86,-320.5 373,-329 381.57,-352.2 364.89,-421.23 381,-440 390.23,-450.75 403.53,-456.86 417.32,-460.2"/>
<polygon fill="#b75867" stroke="#b75867" points="416.91,-463.69 427.4,-462.17 418.25,-456.82 416.91,-463.69"/>
</g>
<!-- Relations&#45;&gt;Reflexive Closure -->
<g id="edge53" class="edge">
<title>Relations&#45;&gt;Reflexive Closure</title>
<path fill="none" stroke="#b75867" d="M358.03,-305.01C363.78,-312.24 369.67,-320.99 373,-330 381.57,-353.2 364.89,-422.23 381,-441 390.23,-451.75 403.53,-457.86 417.32,-461.17"/>
<polygon fill="#b75867" stroke="#b75867" points="416.91,-464.66 427.4,-463.11 418.24,-457.78 416.91,-464.66"/>
</g>
<!-- Relations&#45;&gt;Partial order -->
<g id="edge45" class="edge">
<title>Relations&#45;&gt;Partial order</title>
<path fill="none" stroke="#b75867" d="M344.23,-268.74C350.33,-220.22 367.68,-90.87 381,-77 393.34,-64.15 411.5,-58.1 428.76,-55.45"/>
<polygon fill="#b75867" stroke="#b75867" points="429.25,-58.92 438.76,-54.26 428.42,-51.97 429.25,-58.92"/>
</g>
<!-- Relations&#45;&gt;Chain -->
<g id="edge42" class="edge">
<title>Relations&#45;&gt;Chain</title>
<path fill="none" stroke="#b75867" d="M342.32,-268.8C343.6,-217.49 349.95,-73.22 381,-40 396.26,-23.68 420.91,-18.26 441.48,-16.88"/>
<polygon fill="#b75867" stroke="#b75867" points="441.63,-20.38 451.49,-16.49 441.36,-13.38 441.63,-20.38"/>
</g>
<!-- Relations&#45;&gt;Linear order -->
<g id="edge44" class="edge">
<title>Relations&#45;&gt;Linear order</title>
<path fill="none" stroke="#b75867" d="M373.09,-284.71C389.57,-283.49 410.19,-281.97 428.75,-280.6"/>
<polygon fill="#b75867" stroke="#b75867" points="429.09,-284.08 438.8,-279.86 428.57,-277.1 429.09,-284.08"/>
</g>
<!-- Relations&#45;&gt;Reflexive Relation -->
<g id="edge59" class="edge">
<title>Relations&#45;&gt;Reflexive Relation</title>
<path fill="none" stroke="#b75867" d="M367.75,-268.76C372.04,-266.23 376.55,-263.87 381,-262 391.89,-257.43 403.9,-253.73 415.63,-250.76"/>
<polygon fill="#b75867" stroke="#b75867" points="416.47,-254.16 425.39,-248.43 414.85,-247.35 416.47,-254.16"/>
</g>
<!-- Relations&#45;&gt;Anti&#45;symmetric Relation -->
<g id="edge56" class="edge">
<title>Relations&#45;&gt;Anti&#45;symmetric Relation</title>
<path fill="none" stroke="#b75867" d="M367.58,-268.98C369.62,-266.81 371.48,-264.47 373,-262 381.83,-247.68 369.17,-236.96 381,-225 386.4,-219.54 392.85,-215.32 399.83,-212.06"/>
<polygon fill="#b75867" stroke="#b75867" points="401.6,-215.13 409.62,-208.2 399.03,-208.61 401.6,-215.13"/>
</g>
<!-- Relations&#45;&gt;Anti&#45;reflexive relation -->
<g id="edge58" class="edge">
<title>Relations&#45;&gt;Anti&#45;reflexive relation</title>
<path fill="none" stroke="#b75867" d="M366.1,-268.72C368.8,-265.74 371.21,-262.48 373,-259 380.25,-244.87 370.42,-199.84 381,-188 387.94,-180.23 397.01,-174.91 406.8,-171.31"/>
<polygon fill="#b75867" stroke="#b75867" points="407.85,-174.65 416.37,-168.36 405.78,-167.96 407.85,-174.65"/>
</g>
<!-- Relations&#45;&gt;Strongly Anti&#45;symmetric Relation -->
<g id="edge55" class="edge">
<title>Relations&#45;&gt;Strongly Anti&#45;symmetric Relation</title>
<path fill="none" stroke="#b75867" d="M364.41,-268.66C367.83,-264.84 370.9,-260.56 373,-256 381.78,-236.9 368.91,-181.67 382.36,-152.94"/>
<polygon fill="#b75867" stroke="#b75867" points="385.46,-154.58 388,-144.3 379.6,-150.76 385.46,-154.58"/>
</g>
<!-- Relations&#45;&gt;Transitive Relation -->
<g id="edge54" class="edge">
<title>Relations&#45;&gt;Transitive Relation</title>
<path fill="none" stroke="#b75867" d="M344.96,-268.94C352,-226.86 369.99,-125.03 381,-114 389.86,-105.12 401.51,-99.52 413.64,-96.04"/>
<polygon fill="#b75867" stroke="#b75867" points="414.52,-99.43 423.43,-93.69 412.89,-92.62 414.52,-99.43"/>
</g>
<!-- Relations&#45;&gt;Relation of Equivalence -->
<g id="edge47" class="edge">
<title>Relations&#45;&gt;Relation of Equivalence</title>
<path fill="none" stroke="#b75867" d="M370.3,-305.07C371.3,-306.31 372.21,-307.62 373,-309 383.4,-327.2 367.24,-387.18 381,-403 386.67,-409.52 393.84,-414.33 401.7,-417.85"/>
<polygon fill="#b75867" stroke="#b75867" points="400.61,-421.18 411.2,-421.41 403.06,-414.62 400.61,-421.18"/>
</g>
<!-- Relations&#45;&gt;Class of equivalence -->
<g id="edge46" class="edge">
<title>Relations&#45;&gt;Class of equivalence</title>
<path fill="none" stroke="#b75867" d="M343.27,-305.23C346.63,-347.93 357.15,-452.63 381,-477 388.68,-484.85 398.55,-490.15 409.02,-493.69"/>
<polygon fill="#b75867" stroke="#b75867" points="408.19,-497.09 418.77,-496.46 410.11,-490.36 408.19,-497.09"/>
</g>
<!-- Linear extension -->
<g id="node30" class="node">
<title>Linear extension</title>
<g id="a_node30"><a xlink:href="/Knowledge/linear_extension.html" xlink:title="Linear extension" target="_parent">
<path fill="#273434" stroke="#b75867" d="M517,-332C517,-332 440,-332 440,-332 434,-332 428,-326 428,-320 428,-320 428,-308 428,-308 428,-302 434,-296 440,-296 440,-296 517,-296 517,-296 523,-296 529,-302 529,-308 529,-308 529,-320 529,-320 529,-326 523,-332 517,-332"/>
<text text-anchor="middle" x="478.5" y="-310.9" font-family="sans" font-size="12.00" fill="#c4c7c7">Linear extension</text>
</a>
</g>
</g>
<!-- Relations&#45;&gt;Linear extension -->
<g id="edge43" class="edge">
<title>Relations&#45;&gt;Linear extension</title>
<path fill="none" stroke="#b75867" d="M373.09,-293.19C386.42,-295.85 402.46,-299.05 417.92,-302.13"/>
<polygon fill="#b75867" stroke="#b75867" points="417.48,-305.61 427.97,-304.13 418.85,-298.74 417.48,-305.61"/>
</g>
<!-- Transitive Closure -->
<g id="node31" class="node">
<title>Transitive Closure</title>
<g id="a_node31"><a xlink:href="/Knowledge/transitive_closure.html" xlink:title="Transitive Closure" target="_parent">
<path fill="#273434" stroke="#b75867" d="M519.5,-406C519.5,-406 437.5,-406 437.5,-406 431.5,-406 425.5,-400 425.5,-394 425.5,-394 425.5,-382 425.5,-382 425.5,-376 431.5,-370 437.5,-370 437.5,-370 519.5,-370 519.5,-370 525.5,-370 531.5,-376 531.5,-382 531.5,-382 531.5,-394 531.5,-394 531.5,-400 525.5,-406 519.5,-406"/>
<text text-anchor="middle" x="478.5" y="-384.9" font-family="sans" font-size="12.00" fill="#c4c7c7">Transitive Closure</text>
</a>
</g>
</g>
<!-- Relations&#45;&gt;Transitive Closure -->
<g id="edge48" class="edge">
<title>Relations&#45;&gt;Transitive Closure</title>
<path fill="none" stroke="#b75867" d="M370.21,-305.12C371.24,-306.35 372.18,-307.65 373,-309 386.3,-330.86 363.69,-347.16 381,-366 390.03,-375.83 402.47,-381.72 415.42,-385.16"/>
<polygon fill="#b75867" stroke="#b75867" points="414.85,-388.62 425.37,-387.33 416.34,-381.78 414.85,-388.62"/>
</g>
<!-- Relations&#45;&gt;Transitive Closure -->
<g id="edge52" class="edge">
<title>Relations&#45;&gt;Transitive Closure</title>
<path fill="none" stroke="#b75867" d="M369.42,-305.21C370.76,-306.71 371.97,-308.31 373,-310 386.3,-331.86 363.69,-348.16 381,-367 390.03,-376.83 402.47,-382.72 415.42,-386.13"/>
<polygon fill="#b75867" stroke="#b75867" points="414.85,-389.59 425.37,-388.28 416.33,-382.75 414.85,-389.59"/>
</g>
<!-- Discrete Structures -->
<g id="node32" class="node">
<title>Discrete Structures</title>
<g id="a_node32"><a xlink:href="/Knowledge/discrete_structures.html" xlink:title="Discrete Structures" target="_parent">
<path fill="none" stroke="#b75867" d="M522,-369C522,-369 435,-369 435,-369 429,-369 423,-363 423,-357 423,-357 423,-345 423,-345 423,-339 429,-333 435,-333 435,-333 522,-333 522,-333 528,-333 534,-339 534,-345 534,-345 534,-357 534,-357 534,-363 528,-369 522,-369"/>
<text text-anchor="middle" x="478.5" y="-347.9" font-family="sans" font-size="12.00" fill="#c4c7c7">Discrete Structures</text>
</a>
</g>
</g>
<!-- Relations&#45;&gt;Discrete Structures -->
<g id="edge61" class="edge">
<title>Relations&#45;&gt;Discrete Structures</title>
<path fill="none" stroke="#ffffff" d="M374.75,-314.04C376.93,-320.23 375.88,-324.63 381,-329 392.69,-338.99 408,-344.69 422.97,-347.87"/>
<polygon fill="#ffffff" stroke="#ffffff" points="377.6,-311.98 369.54,-305.1 371.55,-315.5 377.6,-311.98"/>
</g>
</g>
</svg>
