<?xml version="1.0" encoding="UTF-8" standalone="no"?>
<!DOCTYPE svg PUBLIC "-//W3C//DTD SVG 1.1//EN"
 "http://www.w3.org/Graphics/SVG/1.1/DTD/svg11.dtd">
<!-- Generated by graphviz version 2.44.0 (0)
 -->
<!-- Title: Symmetric Relation Pages: 1 -->
<svg width="766pt" height="489pt"
 viewBox="0.00 0.00 766.00 488.81" xmlns="http://www.w3.org/2000/svg" xmlns:xlink="http://www.w3.org/1999/xlink">
<g id="graph0" class="graph" transform="scale(1 1) rotate(0) translate(4 484.81)">
<title>Symmetric Relation</title>
<polygon fill="#132020" stroke="transparent" points="-4,4 -4,-484.81 762,-484.81 762,4 -4,4"/>
<!-- Symmetric Relation -->
<g id="node1" class="node">
<title>Symmetric Relation</title>
<g id="a_node1"><a xlink:href="/Knowledge/Symmetric Relation.html" xlink:title="Symmetric Relation" target="_parent">
<path fill="#273434" stroke="#b75867" d="M116,-281.81C116,-281.81 12,-281.81 12,-281.81 6,-281.81 0,-275.81 0,-269.81 0,-269.81 0,-257.81 0,-257.81 0,-251.81 6,-245.81 12,-245.81 12,-245.81 116,-245.81 116,-245.81 122,-245.81 128,-251.81 128,-257.81 128,-257.81 128,-269.81 128,-269.81 128,-275.81 122,-281.81 116,-281.81"/>
<text text-anchor="middle" x="64" y="-260.71" font-family="sans" font-size="12.00" fill="#c4c7c7">Symmetric Relation</text>
</a>
</g>
</g>
<!-- Relation -->
<g id="node2" class="node">
<title>Relation</title>
<g id="a_node2"><a xlink:href="/Knowledge/Relation.html" xlink:title="Relation" target="_parent">
<path fill="#273434" stroke="#b75867" d="M188,-240.81C188,-240.81 148,-240.81 148,-240.81 142,-240.81 136,-234.81 136,-228.81 136,-228.81 136,-216.81 136,-216.81 136,-210.81 142,-204.81 148,-204.81 148,-204.81 188,-204.81 188,-204.81 194,-204.81 200,-210.81 200,-216.81 200,-216.81 200,-228.81 200,-228.81 200,-234.81 194,-240.81 188,-240.81"/>
<text text-anchor="middle" x="168" y="-219.71" font-family="sans" font-size="12.00" fill="#c4c7c7">Relation</text>
</a>
</g>
</g>
<!-- Symmetric Relation&#45;&gt;Relation -->
<g id="edge1" class="edge">
<title>Symmetric Relation&#45;&gt;Relation</title>
<path fill="none" stroke="#b75867" d="M110.04,-245.7C115.51,-243.5 121.07,-241.27 126.47,-239.1"/>
<polygon fill="#b75867" stroke="#b75867" points="127.98,-242.26 135.96,-235.28 125.37,-235.77 127.98,-242.26"/>
</g>
<!-- Symmetric Closure -->
<g id="node3" class="node">
<title>Symmetric Closure</title>
<g id="a_node3"><a xlink:href="/Knowledge/Symmetric Closure.html" xlink:title="Symmetric Closure" target="_parent">
<path fill="none" stroke="#b75867" d="M319,-295.81C319,-295.81 220,-295.81 220,-295.81 214,-295.81 208,-289.81 208,-283.81 208,-283.81 208,-271.81 208,-271.81 208,-265.81 214,-259.81 220,-259.81 220,-259.81 319,-259.81 319,-259.81 325,-259.81 331,-265.81 331,-271.81 331,-271.81 331,-283.81 331,-283.81 331,-289.81 325,-295.81 319,-295.81"/>
<text text-anchor="middle" x="269.5" y="-274.71" font-family="sans" font-size="12.00" fill="#c4c7c7">Symmetric Closure</text>
</a>
</g>
</g>
<!-- Symmetric Relation&#45;&gt;Symmetric Closure -->
<g id="edge2" class="edge">
<title>Symmetric Relation&#45;&gt;Symmetric Closure</title>
<path fill="none" stroke="#ffffff" d="M138.54,-268.87C161.24,-270.43 185.97,-272.13 207.7,-273.62"/>
<polygon fill="#ffffff" stroke="#ffffff" points="138.49,-265.35 128.27,-268.16 138.01,-272.34 138.49,-265.35"/>
</g>
<!-- Relation of Equivalence -->
<g id="node4" class="node">
<title>Relation of Equivalence</title>
<g id="a_node4"><a xlink:href="/Knowledge/Relation of Equivalence.html" xlink:title="Relation of Equivalence" target="_parent">
<path fill="none" stroke="#b75867" d="M580,-452.81C580,-452.81 455,-452.81 455,-452.81 449,-452.81 443,-446.81 443,-440.81 443,-440.81 443,-428.81 443,-428.81 443,-422.81 449,-416.81 455,-416.81 455,-416.81 580,-416.81 580,-416.81 586,-416.81 592,-422.81 592,-428.81 592,-428.81 592,-440.81 592,-440.81 592,-446.81 586,-452.81 580,-452.81"/>
<text text-anchor="middle" x="517.5" y="-431.71" font-family="sans" font-size="12.00" fill="#c4c7c7">Relation of Equivalence</text>
</a>
</g>
</g>
<!-- Symmetric Relation&#45;&gt;Relation of Equivalence -->
<g id="edge3" class="edge">
<title>Symmetric Relation&#45;&gt;Relation of Equivalence</title>
<path fill="none" stroke="#ffffff" d="M106.14,-286.68C134.5,-302.2 173.21,-322.89 208,-339.81 265.26,-367.65 278.38,-378.31 339,-397.81 372.41,-408.55 410.39,-416.96 442.62,-423.02"/>
<polygon fill="#ffffff" stroke="#ffffff" points="107.77,-283.58 97.32,-281.83 104.4,-289.71 107.77,-283.58"/>
</g>
<!-- Relations -->
<g id="node5" class="node">
<title>Relations</title>
<g id="a_node5"><a xlink:href="/Knowledge/Relations.html" xlink:title="Relations" target="_parent">
<path fill="none" stroke="#b75867" d="M396,-295.81C396,-295.81 351,-295.81 351,-295.81 345,-295.81 339,-289.81 339,-283.81 339,-283.81 339,-271.81 339,-271.81 339,-265.81 345,-259.81 351,-259.81 351,-259.81 396,-259.81 396,-259.81 402,-259.81 408,-265.81 408,-271.81 408,-271.81 408,-283.81 408,-283.81 408,-289.81 402,-295.81 396,-295.81"/>
<text text-anchor="middle" x="373.5" y="-274.71" font-family="sans" font-size="12.00" fill="#c4c7c7">Relations</text>
</a>
</g>
</g>
<!-- Symmetric Relation&#45;&gt;Relations -->
<g id="edge4" class="edge">
<title>Symmetric Relation&#45;&gt;Relations</title>
<path fill="none" stroke="#ffffff" d="M138.27,-256.63C192.03,-253.03 266.58,-251.52 331,-262.81 333.57,-263.26 336.18,-263.85 338.79,-264.54"/>
<polygon fill="#ffffff" stroke="#ffffff" points="137.87,-253.15 128.14,-257.35 138.37,-260.13 137.87,-253.15"/>
</g>
<!-- Relation&#45;&gt;Symmetric Relation -->
<g id="edge11" class="edge">
<title>Relation&#45;&gt;Symmetric Relation</title>
<path fill="none" stroke="#ffffff" d="M126.35,-239.88C121.57,-241.81 116.67,-243.79 111.82,-245.73"/>
<polygon fill="#ffffff" stroke="#ffffff" points="127.97,-243 135.92,-236 125.33,-236.52 127.97,-243"/>
</g>
<!-- Relation&#45;&gt;Symmetric Closure -->
<g id="edge9" class="edge">
<title>Relation&#45;&gt;Symmetric Closure</title>
<path fill="none" stroke="#ffffff" d="M202.2,-246.34C204.14,-247.55 206.08,-248.71 208,-249.81 214.03,-253.25 220.55,-256.62 227.01,-259.76"/>
<polygon fill="#ffffff" stroke="#ffffff" points="204.06,-243.38 193.76,-240.89 200.26,-249.26 204.06,-243.38"/>
</g>
<!-- Relation&#45;&gt;Relation of Equivalence -->
<g id="edge10" class="edge">
<title>Relation&#45;&gt;Relation of Equivalence</title>
<path fill="none" stroke="#ffffff" d="M179.02,-250.43C185.52,-265.49 195.18,-283.68 208,-296.81 281.95,-372.53 317.02,-375.31 416,-412.81 424.52,-416.03 433.63,-418.85 442.76,-421.29"/>
<polygon fill="#ffffff" stroke="#ffffff" points="182.22,-249.01 175.2,-241.07 175.73,-251.65 182.22,-249.01"/>
</g>
<!-- Relation&#45;&gt;Relations -->
<g id="edge13" class="edge">
<title>Relation&#45;&gt;Relations</title>
<path fill="none" stroke="#ffffff" d="M209.81,-234.04C264.03,-245.73 281.21,-239.94 331,-256.81 333.6,-257.69 336.24,-258.7 338.87,-259.81"/>
<polygon fill="#ffffff" stroke="#ffffff" points="210.54,-230.62 200.01,-231.83 209,-237.44 210.54,-230.62"/>
</g>
<!-- Descartes Product -->
<g id="node6" class="node">
<title>Descartes Product</title>
<g id="a_node6"><a xlink:href="/Knowledge/Descartes Product.html" xlink:title="Descartes Product" target="_parent">
<path fill="#273434" stroke="#b75867" d="M317,-167.81C317,-167.81 222,-167.81 222,-167.81 216,-167.81 210,-161.81 210,-155.81 210,-155.81 210,-143.81 210,-143.81 210,-137.81 216,-131.81 222,-131.81 222,-131.81 317,-131.81 317,-131.81 323,-131.81 329,-137.81 329,-143.81 329,-143.81 329,-155.81 329,-155.81 329,-161.81 323,-167.81 317,-167.81"/>
<text text-anchor="middle" x="269.5" y="-146.71" font-family="sans" font-size="12.00" fill="#c4c7c7">Descartes Product</text>
</a>
</g>
</g>
<!-- Relation&#45;&gt;Descartes Product -->
<g id="edge5" class="edge">
<title>Relation&#45;&gt;Descartes Product</title>
<path fill="none" stroke="#b75867" d="M179.24,-204.63C185.01,-195.58 192.94,-184.81 205.79,-174.13"/>
<polygon fill="#b75867" stroke="#b75867" points="208.14,-176.74 213.94,-167.87 203.87,-171.19 208.14,-176.74"/>
</g>
<!-- Anti&#45;symmetric Relation -->
<g id="node7" class="node">
<title>Anti&#45;symmetric Relation</title>
<g id="a_node7"><a xlink:href="/Knowledge/Anti-symmetric Relation.html" xlink:title="Anti&#45;symmetric Relation" target="_parent">
<path fill="none" stroke="#b75867" d="M581.5,-73.81C581.5,-73.81 453.5,-73.81 453.5,-73.81 447.5,-73.81 441.5,-67.81 441.5,-61.81 441.5,-61.81 441.5,-49.81 441.5,-49.81 441.5,-43.81 447.5,-37.81 453.5,-37.81 453.5,-37.81 581.5,-37.81 581.5,-37.81 587.5,-37.81 593.5,-43.81 593.5,-49.81 593.5,-49.81 593.5,-61.81 593.5,-61.81 593.5,-67.81 587.5,-73.81 581.5,-73.81"/>
<text text-anchor="middle" x="517.5" y="-52.71" font-family="sans" font-size="12.00" fill="#c4c7c7">Anti&#45;symmetric Relation</text>
</a>
</g>
</g>
<!-- Relation&#45;&gt;Anti&#45;symmetric Relation -->
<g id="edge6" class="edge">
<title>Relation&#45;&gt;Anti&#45;symmetric Relation</title>
<path fill="none" stroke="#ffffff" d="M170.61,-194.35C173.96,-146.63 183.54,-53.73 208,-33.81 285.53,29.36 413.54,-11.03 477.54,-37.73"/>
<polygon fill="#ffffff" stroke="#ffffff" points="167.1,-194.41 169.93,-204.62 174.08,-194.87 167.1,-194.41"/>
</g>
<!-- Chain -->
<g id="node8" class="node">
<title>Chain</title>
<g id="a_node8"><a xlink:href="/Knowledge/Chain.html" xlink:title="Chain" target="_parent">
<path fill="none" stroke="#b75867" d="M532.5,-258.81C532.5,-258.81 502.5,-258.81 502.5,-258.81 496.5,-258.81 490.5,-252.81 490.5,-246.81 490.5,-246.81 490.5,-234.81 490.5,-234.81 490.5,-228.81 496.5,-222.81 502.5,-222.81 502.5,-222.81 532.5,-222.81 532.5,-222.81 538.5,-222.81 544.5,-228.81 544.5,-234.81 544.5,-234.81 544.5,-246.81 544.5,-246.81 544.5,-252.81 538.5,-258.81 532.5,-258.81"/>
<text text-anchor="middle" x="517.5" y="-237.71" font-family="sans" font-size="12.00" fill="#c4c7c7">Chain</text>
</a>
</g>
</g>
<!-- Relation&#45;&gt;Chain -->
<g id="edge7" class="edge">
<title>Relation&#45;&gt;Chain</title>
<path fill="none" stroke="#ffffff" d="M210.58,-223.8C258.28,-225.08 338.83,-227.64 408,-231.81 436.11,-233.5 468.26,-236.27 490.21,-238.29"/>
<polygon fill="#ffffff" stroke="#ffffff" points="210.43,-220.3 200.34,-223.54 210.25,-227.3 210.43,-220.3"/>
</g>
<!-- Reflexive Closure -->
<g id="node9" class="node">
<title>Reflexive Closure</title>
<g id="a_node9"><a xlink:href="/Knowledge/Reflexive Closure.html" xlink:title="Reflexive Closure" target="_parent">
<path fill="none" stroke="#b75867" d="M562,-295.81C562,-295.81 473,-295.81 473,-295.81 467,-295.81 461,-289.81 461,-283.81 461,-283.81 461,-271.81 461,-271.81 461,-265.81 467,-259.81 473,-259.81 473,-259.81 562,-259.81 562,-259.81 568,-259.81 574,-265.81 574,-271.81 574,-271.81 574,-283.81 574,-283.81 574,-289.81 568,-295.81 562,-295.81"/>
<text text-anchor="middle" x="517.5" y="-274.71" font-family="sans" font-size="12.00" fill="#c4c7c7">Reflexive Closure</text>
</a>
</g>
</g>
<!-- Relation&#45;&gt;Reflexive Closure -->
<g id="edge8" class="edge">
<title>Relation&#45;&gt;Reflexive Closure</title>
<path fill="none" stroke="#ffffff" d="M210.26,-226.97C264.36,-231.8 279.81,-230.03 331,-237.81 337.51,-238.8 408.35,-254.17 460.55,-265.57"/>
<polygon fill="#ffffff" stroke="#ffffff" points="210.36,-223.47 200.08,-226.03 209.71,-230.44 210.36,-223.47"/>
</g>
<!-- Partial function -->
<g id="node10" class="node">
<title>Partial function</title>
<g id="a_node10"><a xlink:href="/Knowledge/Partial function.html" xlink:title="Partial function" target="_parent">
<path fill="none" stroke="#b75867" d="M309,-124.81C309,-124.81 230,-124.81 230,-124.81 224,-124.81 218,-118.81 218,-112.81 218,-112.81 218,-100.81 218,-100.81 218,-94.81 224,-88.81 230,-88.81 230,-88.81 309,-88.81 309,-88.81 315,-88.81 321,-94.81 321,-100.81 321,-100.81 321,-112.81 321,-112.81 321,-118.81 315,-124.81 309,-124.81"/>
<text text-anchor="middle" x="269.5" y="-103.71" font-family="sans" font-size="12.00" fill="#c4c7c7">Partial function</text>
</a>
</g>
</g>
<!-- Relation&#45;&gt;Partial function -->
<g id="edge12" class="edge">
<title>Relation&#45;&gt;Partial function</title>
<path fill="none" stroke="#ffffff" d="M174.24,-194.92C179.49,-174.16 189.54,-146.46 208,-128.81 210.99,-125.95 214.38,-123.46 217.99,-121.28"/>
<polygon fill="#ffffff" stroke="#ffffff" points="170.81,-194.24 171.97,-204.77 177.63,-195.81 170.81,-194.24"/>
</g>
<!-- Linear order -->
<g id="node11" class="node">
<title>Linear order</title>
<g id="a_node11"><a xlink:href="/Knowledge/Linear order.html" xlink:title="Linear order" target="_parent">
<path fill="none" stroke="#b75867" d="M548.5,-221.81C548.5,-221.81 486.5,-221.81 486.5,-221.81 480.5,-221.81 474.5,-215.81 474.5,-209.81 474.5,-209.81 474.5,-197.81 474.5,-197.81 474.5,-191.81 480.5,-185.81 486.5,-185.81 486.5,-185.81 548.5,-185.81 548.5,-185.81 554.5,-185.81 560.5,-191.81 560.5,-197.81 560.5,-197.81 560.5,-209.81 560.5,-209.81 560.5,-215.81 554.5,-221.81 548.5,-221.81"/>
<text text-anchor="middle" x="517.5" y="-200.71" font-family="sans" font-size="12.00" fill="#c4c7c7">Linear order</text>
</a>
</g>
</g>
<!-- Relation&#45;&gt;Linear order -->
<g id="edge14" class="edge">
<title>Relation&#45;&gt;Linear order</title>
<path fill="none" stroke="#ffffff" d="M210.26,-220.55C276.83,-216.91 407.25,-209.78 474.37,-206.11"/>
<polygon fill="#ffffff" stroke="#ffffff" points="209.94,-217.06 200.14,-221.1 210.32,-224.05 209.94,-217.06"/>
</g>
<!-- Total function -->
<g id="node12" class="node">
<title>Total function</title>
<g id="a_node12"><a xlink:href="/Knowledge/Total function.html" xlink:title="Total function" target="_parent">
<path fill="none" stroke="#b75867" d="M305,-66.81C305,-66.81 234,-66.81 234,-66.81 228,-66.81 222,-60.81 222,-54.81 222,-54.81 222,-42.81 222,-42.81 222,-36.81 228,-30.81 234,-30.81 234,-30.81 305,-30.81 305,-30.81 311,-30.81 317,-36.81 317,-42.81 317,-42.81 317,-54.81 317,-54.81 317,-60.81 311,-66.81 305,-66.81"/>
<text text-anchor="middle" x="269.5" y="-45.71" font-family="sans" font-size="12.00" fill="#c4c7c7">Total function</text>
</a>
</g>
</g>
<!-- Relation&#45;&gt;Total function -->
<g id="edge15" class="edge">
<title>Relation&#45;&gt;Total function</title>
<path fill="none" stroke="#ffffff" d="M168.72,-194.27C169.93,-160.65 176.95,-105.04 208,-70.81 211.9,-66.5 216.72,-63.04 221.91,-60.25"/>
<polygon fill="#ffffff" stroke="#ffffff" points="165.22,-194.29 168.51,-204.36 172.22,-194.44 165.22,-194.29"/>
</g>
<!-- Transitive Relation -->
<g id="node13" class="node">
<title>Transitive Relation</title>
<g id="a_node13"><a xlink:href="/Knowledge/Transitive Relation.html" xlink:title="Transitive Relation" target="_parent">
<path fill="none" stroke="#b75867" d="M741,-284.81C741,-284.81 644,-284.81 644,-284.81 638,-284.81 632,-278.81 632,-272.81 632,-272.81 632,-260.81 632,-260.81 632,-254.81 638,-248.81 644,-248.81 644,-248.81 741,-248.81 741,-248.81 747,-248.81 753,-254.81 753,-260.81 753,-260.81 753,-272.81 753,-272.81 753,-278.81 747,-284.81 741,-284.81"/>
<text text-anchor="middle" x="692.5" y="-263.71" font-family="sans" font-size="12.00" fill="#c4c7c7">Transitive Relation</text>
</a>
</g>
</g>
<!-- Relation&#45;&gt;Transitive Relation -->
<g id="edge16" class="edge">
<title>Relation&#45;&gt;Transitive Relation</title>
<path fill="none" stroke="#ffffff" d="M169.01,-194.33C170.64,-163.49 178.22,-115.06 208,-87.81 249.09,-50.2 282.62,-91.41 331,-63.81 335.65,-61.15 334.38,-57.51 339,-54.81 369.23,-37.07 381.16,-41.61 416,-37.81 505.69,-28.02 546.21,15.5 619,-37.81 687.64,-88.07 692.92,-203.64 692.24,-248.52"/>
<polygon fill="#ffffff" stroke="#ffffff" points="165.51,-194.33 168.65,-204.44 172.5,-194.57 165.51,-194.33"/>
</g>
<!-- Reflexive Relation -->
<g id="node14" class="node">
<title>Reflexive Relation</title>
<g id="a_node14"><a xlink:href="/Knowledge/Reflexive Relation.html" xlink:title="Reflexive Relation" target="_parent">
<path fill="none" stroke="#b75867" d="M739,-321.81C739,-321.81 646,-321.81 646,-321.81 640,-321.81 634,-315.81 634,-309.81 634,-309.81 634,-297.81 634,-297.81 634,-291.81 640,-285.81 646,-285.81 646,-285.81 739,-285.81 739,-285.81 745,-285.81 751,-291.81 751,-297.81 751,-297.81 751,-309.81 751,-309.81 751,-315.81 745,-321.81 739,-321.81"/>
<text text-anchor="middle" x="692.5" y="-300.71" font-family="sans" font-size="12.00" fill="#c4c7c7">Reflexive Relation</text>
</a>
</g>
</g>
<!-- Relation&#45;&gt;Reflexive Relation -->
<g id="edge17" class="edge">
<title>Relation&#45;&gt;Reflexive Relation</title>
<path fill="none" stroke="#ffffff" d="M199.68,-199.2C202.42,-197.58 205.21,-196.09 208,-194.81 259.12,-171.3 284.7,-196.79 331,-164.81 344.74,-155.31 401.22,-48.59 416,-40.81 435.95,-30.29 602.79,-25.12 619,-40.81 638.26,-59.43 611.05,-260.28 627,-281.81 628.97,-284.47 631.28,-286.81 633.84,-288.87"/>
<polygon fill="#ffffff" stroke="#ffffff" points="197.7,-196.31 191.19,-204.67 201.49,-202.19 197.7,-196.31"/>
</g>
<!-- Anti&#45;reflexive relation -->
<g id="node15" class="node">
<title>Anti&#45;reflexive relation</title>
<g id="a_node15"><a xlink:href="/Knowledge/Anti-reflexive relation.html" xlink:title="Anti&#45;reflexive relation" target="_parent">
<path fill="none" stroke="#b75867" d="M574.5,-184.81C574.5,-184.81 460.5,-184.81 460.5,-184.81 454.5,-184.81 448.5,-178.81 448.5,-172.81 448.5,-172.81 448.5,-160.81 448.5,-160.81 448.5,-154.81 454.5,-148.81 460.5,-148.81 460.5,-148.81 574.5,-148.81 574.5,-148.81 580.5,-148.81 586.5,-154.81 586.5,-160.81 586.5,-160.81 586.5,-172.81 586.5,-172.81 586.5,-178.81 580.5,-184.81 574.5,-184.81"/>
<text text-anchor="middle" x="517.5" y="-163.71" font-family="sans" font-size="12.00" fill="#c4c7c7">Anti&#45;reflexive relation</text>
</a>
</g>
</g>
<!-- Relation&#45;&gt;Anti&#45;reflexive relation -->
<g id="edge18" class="edge">
<title>Relation&#45;&gt;Anti&#45;reflexive relation</title>
<path fill="none" stroke="#ffffff" d="M210.13,-214.48C297.44,-198.89 388.04,-185.21 448.33,-176.45"/>
<polygon fill="#ffffff" stroke="#ffffff" points="209.28,-211.08 200.05,-216.3 210.52,-217.97 209.28,-211.08"/>
</g>
<!-- Strongly Anti&#45;symmetric Relation -->
<g id="node16" class="node">
<title>Strongly Anti&#45;symmetric Relation</title>
<g id="a_node16"><a xlink:href="/Knowledge/Strongly Anti-symmetric Relation.html" xlink:title="Strongly Anti&#45;symmetric Relation" target="_parent">
<path fill="none" stroke="#b75867" d="M607,-147.81C607,-147.81 428,-147.81 428,-147.81 422,-147.81 416,-141.81 416,-135.81 416,-135.81 416,-123.81 416,-123.81 416,-117.81 422,-111.81 428,-111.81 428,-111.81 607,-111.81 607,-111.81 613,-111.81 619,-117.81 619,-123.81 619,-123.81 619,-135.81 619,-135.81 619,-141.81 613,-147.81 607,-147.81"/>
<text text-anchor="middle" x="517.5" y="-126.71" font-family="sans" font-size="12.00" fill="#c4c7c7">Strongly Anti&#45;symmetric Relation</text>
</a>
</g>
</g>
<!-- Relation&#45;&gt;Strongly Anti&#45;symmetric Relation -->
<g id="edge19" class="edge">
<title>Relation&#45;&gt;Strongly Anti&#45;symmetric Relation</title>
<path fill="none" stroke="#ffffff" d="M173.35,-194.61C178.12,-174.24 187.95,-148.08 208,-134.81 225.14,-123.46 332.64,-123.92 415.98,-126.11"/>
<polygon fill="#ffffff" stroke="#ffffff" points="169.88,-194.13 171.29,-204.63 176.73,-195.53 169.88,-194.13"/>
</g>
<!-- Partial order -->
<g id="node17" class="node">
<title>Partial order</title>
<g id="a_node17"><a xlink:href="/Knowledge/Partial order.html" xlink:title="Partial order" target="_parent">
<path fill="none" stroke="#b75867" d="M548.5,-110.81C548.5,-110.81 486.5,-110.81 486.5,-110.81 480.5,-110.81 474.5,-104.81 474.5,-98.81 474.5,-98.81 474.5,-86.81 474.5,-86.81 474.5,-80.81 480.5,-74.81 486.5,-74.81 486.5,-74.81 548.5,-74.81 548.5,-74.81 554.5,-74.81 560.5,-80.81 560.5,-86.81 560.5,-86.81 560.5,-98.81 560.5,-98.81 560.5,-104.81 554.5,-110.81 548.5,-110.81"/>
<text text-anchor="middle" x="517.5" y="-89.71" font-family="sans" font-size="12.00" fill="#c4c7c7">Partial order</text>
</a>
</g>
</g>
<!-- Relation&#45;&gt;Partial order -->
<g id="edge20" class="edge">
<title>Relation&#45;&gt;Partial order</title>
<path fill="none" stroke="#ffffff" d="M173.18,-194.71C177.88,-173.78 187.71,-146.4 208,-131.81 230.26,-115.79 303.77,-125.04 331,-121.81 380.36,-115.95 436.74,-106.78 474.26,-100.32"/>
<polygon fill="#ffffff" stroke="#ffffff" points="169.72,-194.18 171.22,-204.67 176.59,-195.54 169.72,-194.18"/>
</g>
<!-- Symmetric Closure&#45;&gt;Symmetric Relation -->
<g id="edge24" class="edge">
<title>Symmetric Closure&#45;&gt;Symmetric Relation</title>
<path fill="none" stroke="#b75867" d="M207.7,-274.32C185.97,-272.88 161.24,-271.19 138.54,-269.59"/>
<polygon fill="#b75867" stroke="#b75867" points="138.5,-266.08 128.27,-268.86 138,-273.06 138.5,-266.08"/>
</g>
<!-- Symmetric Closure&#45;&gt;Relation -->
<g id="edge22" class="edge">
<title>Symmetric Closure&#45;&gt;Relation</title>
<path fill="none" stroke="#b75867" d="M225.07,-259.8C219.25,-256.95 213.43,-253.91 208,-250.81 205.75,-249.52 203.46,-248.14 201.18,-246.71"/>
<polygon fill="#b75867" stroke="#b75867" points="202.78,-243.57 192.5,-241.02 198.94,-249.43 202.78,-243.57"/>
</g>
<!-- Symmetric Closure&#45;&gt;Relations -->
<g id="edge25" class="edge">
<title>Symmetric Closure&#45;&gt;Relations</title>
<path fill="none" stroke="#ffffff" d="M338.14,-277.09C338.3,-277.09 338.45,-277.09 338.61,-277.09"/>
<polygon fill="#ffffff" stroke="#ffffff" points="341.02,-273.6 331.01,-277.07 341,-280.6 341.02,-273.6"/>
</g>
<!-- Symmetric Closure&#45;&gt;Relations -->
<g id="edge26" class="edge">
<title>Symmetric Closure&#45;&gt;Relations</title>
<path fill="none" stroke="#ffffff" d="M338.14,-277.81C338.3,-277.81 338.45,-277.81 338.61,-277.81"/>
<polygon fill="#ffffff" stroke="#ffffff" points="341.01,-274.31 331.01,-277.81 341.01,-281.31 341.01,-274.31"/>
</g>
<!-- Matrix -->
<g id="node18" class="node">
<title>Matrix</title>
<g id="a_node18"><a xlink:href="/Knowledge/Matrix.html" xlink:title="Matrix" target="_parent">
<path fill="#273434" stroke="#b75867" d="M388.5,-332.81C388.5,-332.81 358.5,-332.81 358.5,-332.81 352.5,-332.81 346.5,-326.81 346.5,-320.81 346.5,-320.81 346.5,-308.81 346.5,-308.81 346.5,-302.81 352.5,-296.81 358.5,-296.81 358.5,-296.81 388.5,-296.81 388.5,-296.81 394.5,-296.81 400.5,-302.81 400.5,-308.81 400.5,-308.81 400.5,-320.81 400.5,-320.81 400.5,-326.81 394.5,-332.81 388.5,-332.81"/>
<text text-anchor="middle" x="373.5" y="-311.71" font-family="sans" font-size="12.00" fill="#c4c7c7">Matrix</text>
</a>
</g>
</g>
<!-- Symmetric Closure&#45;&gt;Matrix -->
<g id="edge21" class="edge">
<title>Symmetric Closure&#45;&gt;Matrix</title>
<path fill="none" stroke="#b75867" d="M320.3,-295.87C325.79,-297.86 331.29,-299.86 336.56,-301.77"/>
<polygon fill="#b75867" stroke="#b75867" points="335.74,-305.2 346.34,-305.32 338.13,-298.61 335.74,-305.2"/>
</g>
<!-- Set -->
<g id="node19" class="node">
<title>Set</title>
<g id="a_node19"><a xlink:href="/Knowledge/Set.html" xlink:title="Set" target="_parent">
<path fill="#273434" stroke="#b75867" d="M707.5,-480.81C707.5,-480.81 677.5,-480.81 677.5,-480.81 671.5,-480.81 665.5,-474.81 665.5,-468.81 665.5,-468.81 665.5,-456.81 665.5,-456.81 665.5,-450.81 671.5,-444.81 677.5,-444.81 677.5,-444.81 707.5,-444.81 707.5,-444.81 713.5,-444.81 719.5,-450.81 719.5,-456.81 719.5,-456.81 719.5,-468.81 719.5,-468.81 719.5,-474.81 713.5,-480.81 707.5,-480.81"/>
<text text-anchor="middle" x="692.5" y="-459.71" font-family="sans" font-size="12.00" fill="#c4c7c7">Set</text>
</a>
</g>
</g>
<!-- Symmetric Closure&#45;&gt;Set -->
<g id="edge23" class="edge">
<title>Symmetric Closure&#45;&gt;Set</title>
<path fill="none" stroke="#b75867" d="M279.25,-295.86C298.23,-332.67 347.06,-415.83 416,-449.81 494.08,-488.29 600.19,-478.67 655.15,-469.86"/>
<polygon fill="#b75867" stroke="#b75867" points="655.84,-473.3 665.12,-468.18 654.67,-466.39 655.84,-473.3"/>
</g>
<!-- Relation of Equivalence&#45;&gt;Symmetric Relation -->
<g id="edge31" class="edge">
<title>Relation of Equivalence&#45;&gt;Symmetric Relation</title>
<path fill="none" stroke="#b75867" d="M442.62,-423.94C410.39,-417.96 372.41,-409.55 339,-398.81 278.38,-379.31 265.26,-368.65 208,-340.81 172.64,-323.61 133.23,-302.52 104.76,-286.76"/>
<polygon fill="#b75867" stroke="#b75867" points="106.35,-283.64 95.91,-281.84 102.95,-289.76 106.35,-283.64"/>
</g>
<!-- Relation of Equivalence&#45;&gt;Relation -->
<g id="edge33" class="edge">
<title>Relation of Equivalence&#45;&gt;Relation</title>
<path fill="none" stroke="#b75867" d="M442.76,-422.28C433.63,-419.85 424.52,-417.03 416,-413.81 317.02,-376.31 281.95,-373.53 208,-297.81 194.93,-284.43 185.14,-265.78 178.64,-250.42"/>
<polygon fill="#b75867" stroke="#b75867" points="181.8,-248.89 174.84,-240.9 175.29,-251.48 181.8,-248.89"/>
</g>
<!-- Relation of Equivalence&#45;&gt;Relations -->
<g id="edge35" class="edge">
<title>Relation of Equivalence&#45;&gt;Relations</title>
<path fill="none" stroke="#ffffff" d="M433.48,-427.26C426.89,-423.87 420.9,-419.47 416,-413.81 399.53,-394.76 420.73,-322.52 408,-300.81 407.01,-299.13 405.84,-297.55 404.54,-296.07"/>
<polygon fill="#ffffff" stroke="#ffffff" points="432.24,-430.54 442.8,-431.29 435.01,-424.11 432.24,-430.54"/>
</g>
<!-- Relation of Equivalence&#45;&gt;Transitive Relation -->
<g id="edge30" class="edge">
<title>Relation of Equivalence&#45;&gt;Transitive Relation</title>
<path fill="none" stroke="#b75867" d="M592.24,-430.34C602.48,-426.64 611.9,-421.07 619,-412.81 635.31,-393.83 614.85,-325.42 626.92,-292.59"/>
<polygon fill="#b75867" stroke="#b75867" points="630.08,-294.09 631.79,-283.63 623.93,-290.75 630.08,-294.09"/>
</g>
<!-- Relation of Equivalence&#45;&gt;Reflexive Relation -->
<g id="edge32" class="edge">
<title>Relation of Equivalence&#45;&gt;Reflexive Relation</title>
<path fill="none" stroke="#b75867" d="M592.24,-430.03C602.41,-426.36 611.81,-420.88 619,-412.81 630.88,-399.46 616.56,-347.31 627,-332.81 628.04,-331.37 629.16,-330 630.36,-328.7"/>
<polygon fill="#b75867" stroke="#b75867" points="632.8,-331.21 637.95,-321.95 628.15,-325.97 632.8,-331.21"/>
</g>
<!-- Relation of Equivalence&#45;&gt;Set -->
<g id="edge28" class="edge">
<title>Relation of Equivalence&#45;&gt;Set</title>
<path fill="none" stroke="#b75867" d="M592.12,-446.72C614.05,-450.27 637.12,-454 655.5,-456.98"/>
<polygon fill="#b75867" stroke="#b75867" points="655.04,-460.45 665.47,-458.59 656.15,-453.54 655.04,-460.45"/>
</g>
<!-- Class of equivalence -->
<g id="node20" class="node">
<title>Class of equivalence</title>
<g id="a_node20"><a xlink:href="/Knowledge/Class of equivalence.html" xlink:title="Class of equivalence" target="_parent">
<path fill="#273434" stroke="#b75867" d="M746,-368.81C746,-368.81 639,-368.81 639,-368.81 633,-368.81 627,-362.81 627,-356.81 627,-356.81 627,-344.81 627,-344.81 627,-338.81 633,-332.81 639,-332.81 639,-332.81 746,-332.81 746,-332.81 752,-332.81 758,-338.81 758,-344.81 758,-344.81 758,-356.81 758,-356.81 758,-362.81 752,-368.81 746,-368.81"/>
<text text-anchor="middle" x="692.5" y="-347.71" font-family="sans" font-size="12.00" fill="#c4c7c7">Class of equivalence</text>
</a>
</g>
</g>
<!-- Relation of Equivalence&#45;&gt;Class of equivalence -->
<g id="edge27" class="edge">
<title>Relation of Equivalence&#45;&gt;Class of equivalence</title>
<path fill="none" stroke="#b75867" d="M592.08,-429.22C602.14,-425.63 611.55,-420.39 619,-412.81 629.52,-402.09 619.91,-391.04 625.21,-377.68"/>
<polygon fill="#b75867" stroke="#b75867" points="628.29,-379.35 630.75,-369.04 622.4,-375.57 628.29,-379.35"/>
</g>
<!-- Partition -->
<g id="node21" class="node">
<title>Partition</title>
<g id="a_node21"><a xlink:href="/Knowledge/Partition.html" xlink:title="Partition" target="_parent">
<path fill="#273434" stroke="#b75867" d="M713,-406.81C713,-406.81 672,-406.81 672,-406.81 666,-406.81 660,-400.81 660,-394.81 660,-394.81 660,-382.81 660,-382.81 660,-376.81 666,-370.81 672,-370.81 672,-370.81 713,-370.81 713,-370.81 719,-370.81 725,-376.81 725,-382.81 725,-382.81 725,-394.81 725,-394.81 725,-400.81 719,-406.81 713,-406.81"/>
<text text-anchor="middle" x="692.5" y="-385.71" font-family="sans" font-size="12.00" fill="#c4c7c7">Partition</text>
</a>
</g>
</g>
<!-- Relation of Equivalence&#45;&gt;Partition -->
<g id="edge29" class="edge">
<title>Relation of Equivalence&#45;&gt;Partition</title>
<path fill="none" stroke="#b75867" d="M592.27,-419.58C601.31,-417.45 610.39,-415.17 619,-412.81 629.27,-409.99 640.23,-406.58 650.45,-403.22"/>
<polygon fill="#b75867" stroke="#b75867" points="651.58,-406.53 659.96,-400.04 649.36,-399.89 651.58,-406.53"/>
</g>
<!-- Principle of division -->
<g id="node22" class="node">
<title>Principle of division</title>
<g id="a_node22"><a xlink:href="/Knowledge/Principle of division.html" xlink:title="Principle of division" target="_parent">
<path fill="none" stroke="#b75867" d="M743.5,-443.81C743.5,-443.81 641.5,-443.81 641.5,-443.81 635.5,-443.81 629.5,-437.81 629.5,-431.81 629.5,-431.81 629.5,-419.81 629.5,-419.81 629.5,-413.81 635.5,-407.81 641.5,-407.81 641.5,-407.81 743.5,-407.81 743.5,-407.81 749.5,-407.81 755.5,-413.81 755.5,-419.81 755.5,-419.81 755.5,-431.81 755.5,-431.81 755.5,-437.81 749.5,-443.81 743.5,-443.81"/>
<text text-anchor="middle" x="692.5" y="-422.71" font-family="sans" font-size="12.00" fill="#c4c7c7">Principle of division</text>
</a>
</g>
</g>
<!-- Relation of Equivalence&#45;&gt;Principle of division -->
<g id="edge34" class="edge">
<title>Relation of Equivalence&#45;&gt;Principle of division</title>
<path fill="none" stroke="#ffffff" d="M602.36,-430.44C611.47,-429.97 620.62,-429.49 629.4,-429.04"/>
<polygon fill="#ffffff" stroke="#ffffff" points="601.92,-426.96 592.12,-430.98 602.29,-433.95 601.92,-426.96"/>
</g>
<!-- Relations&#45;&gt;Symmetric Relation -->
<g id="edge51" class="edge">
<title>Relations&#45;&gt;Symmetric Relation</title>
<path fill="none" stroke="#b75867" d="M338.79,-265.54C336.18,-264.85 333.57,-264.26 331,-263.81 266.58,-252.52 192.03,-254.03 138.27,-257.46"/>
<polygon fill="#b75867" stroke="#b75867" points="137.88,-253.98 128.14,-258.14 138.36,-260.96 137.88,-253.98"/>
</g>
<!-- Relations&#45;&gt;Relation -->
<g id="edge54" class="edge">
<title>Relations&#45;&gt;Relation</title>
<path fill="none" stroke="#b75867" d="M338.87,-260.8C336.24,-259.7 333.6,-258.69 331,-257.81 281.21,-240.94 264.03,-246.73 209.81,-235.04"/>
<polygon fill="#b75867" stroke="#b75867" points="210.54,-231.61 200.01,-232.82 209,-238.44 210.54,-231.61"/>
</g>
<!-- Relations&#45;&gt;Symmetric Closure -->
<g id="edge43" class="edge">
<title>Relations&#45;&gt;Symmetric Closure</title>
<path fill="none" stroke="#b75867" d="M338.61,-278.52C338.45,-278.52 338.3,-278.52 338.14,-278.52"/>
<polygon fill="#b75867" stroke="#b75867" points="341,-275.01 331.01,-278.54 341.02,-282.01 341,-275.01"/>
</g>
<!-- Relations&#45;&gt;Symmetric Closure -->
<g id="edge45" class="edge">
<title>Relations&#45;&gt;Symmetric Closure</title>
<path fill="none" stroke="#b75867" d="M338.61,-279.23C338.45,-279.23 338.3,-279.23 338.14,-279.23"/>
<polygon fill="#b75867" stroke="#b75867" points="340.99,-275.71 331.01,-279.28 341.04,-282.71 340.99,-275.71"/>
</g>
<!-- Relations&#45;&gt;Relation of Equivalence -->
<g id="edge41" class="edge">
<title>Relations&#45;&gt;Relation of Equivalence</title>
<path fill="none" stroke="#b75867" d="M405.36,-296.04C406.34,-297.23 407.23,-298.49 408,-299.81 420.73,-321.52 399.53,-393.76 416,-412.81 420.9,-418.47 426.89,-422.87 433.48,-426.27"/>
<polygon fill="#b75867" stroke="#b75867" points="432.24,-429.54 442.8,-430.3 435.02,-423.12 432.24,-429.54"/>
</g>
<!-- Relations&#45;&gt;Anti&#45;symmetric Relation -->
<g id="edge50" class="edge">
<title>Relations&#45;&gt;Anti&#45;symmetric Relation</title>
<path fill="none" stroke="#b75867" d="M375.79,-259.59C379.31,-215.26 390.56,-103.52 416,-77.81 420.66,-73.1 426.07,-69.29 431.93,-66.23"/>
<polygon fill="#b75867" stroke="#b75867" points="433.74,-69.25 441.45,-61.99 430.9,-62.86 433.74,-69.25"/>
</g>
<!-- Relations&#45;&gt;Chain -->
<g id="edge36" class="edge">
<title>Relations&#45;&gt;Chain</title>
<path fill="none" stroke="#b75867" d="M408.35,-265.16C410.93,-264.32 413.5,-263.53 416,-262.81 437.09,-256.71 461.1,-251.4 480.36,-247.52"/>
<polygon fill="#b75867" stroke="#b75867" points="481.1,-250.94 490.24,-245.57 479.75,-244.08 481.1,-250.94"/>
</g>
<!-- Relations&#45;&gt;Reflexive Closure -->
<g id="edge44" class="edge">
<title>Relations&#45;&gt;Reflexive Closure</title>
<path fill="none" stroke="#b75867" d="M408.15,-277.81C420.95,-277.81 436,-277.81 450.75,-277.81"/>
<polygon fill="#b75867" stroke="#b75867" points="450.89,-281.31 460.89,-277.81 450.89,-274.31 450.89,-281.31"/>
</g>
<!-- Relations&#45;&gt;Reflexive Closure -->
<g id="edge47" class="edge">
<title>Relations&#45;&gt;Reflexive Closure</title>
<path fill="none" stroke="#b75867" d="M408.15,-278.45C420.95,-278.53 436,-278.56 450.75,-278.55"/>
<polygon fill="#b75867" stroke="#b75867" points="450.89,-282.05 460.89,-278.54 450.88,-275.05 450.89,-282.05"/>
</g>
<!-- Relations&#45;&gt;Linear order -->
<g id="edge38" class="edge">
<title>Relations&#45;&gt;Linear order</title>
<path fill="none" stroke="#b75867" d="M384.51,-259.71C391.78,-248.26 402.66,-234.1 416,-225.81 430.44,-216.82 448.05,-211.48 464.47,-208.31"/>
<polygon fill="#b75867" stroke="#b75867" points="465.22,-211.73 474.49,-206.6 464.05,-204.83 465.22,-211.73"/>
</g>
<!-- Relations&#45;&gt;Transitive Relation -->
<g id="edge48" class="edge">
<title>Relations&#45;&gt;Transitive Relation</title>
<path fill="none" stroke="#b75867" d="M408.21,-291.07C410.82,-291.76 413.43,-292.36 416,-292.81 460.43,-300.59 575.1,-303.17 619,-292.81 622.87,-291.89 623.33,-290.34 627,-288.81 627.1,-288.76 627.2,-288.72 627.3,-288.68"/>
<polygon fill="#b75867" stroke="#b75867" points="628.77,-291.86 636.76,-284.9 626.18,-285.36 628.77,-291.86"/>
</g>
<!-- Relations&#45;&gt;Reflexive Relation -->
<g id="edge53" class="edge">
<title>Relations&#45;&gt;Reflexive Relation</title>
<path fill="none" stroke="#b75867" d="M408.12,-293.63C410.75,-294.48 413.39,-295.23 416,-295.81 453.98,-304.27 554.91,-305.2 623.47,-304.77"/>
<polygon fill="#b75867" stroke="#b75867" points="623.79,-308.26 633.76,-304.69 623.73,-301.26 623.79,-308.26"/>
</g>
<!-- Relations&#45;&gt;Anti&#45;reflexive relation -->
<g id="edge52" class="edge">
<title>Relations&#45;&gt;Anti&#45;reflexive relation</title>
<path fill="none" stroke="#b75867" d="M378,-259.47C382.88,-239.05 393.77,-206.6 416,-188.81 422.72,-183.43 430.46,-179.3 438.61,-176.13"/>
<polygon fill="#b75867" stroke="#b75867" points="439.98,-179.37 448.33,-172.85 437.73,-172.74 439.98,-179.37"/>
</g>
<!-- Relations&#45;&gt;Strongly Anti&#45;symmetric Relation -->
<g id="edge49" class="edge">
<title>Relations&#45;&gt;Strongly Anti&#45;symmetric Relation</title>
<path fill="none" stroke="#b75867" d="M375.07,-259.8C376.81,-234.23 383.65,-187.27 413.4,-155.1"/>
<polygon fill="#b75867" stroke="#b75867" points="415.87,-157.58 420.55,-148.07 410.96,-152.58 415.87,-157.58"/>
</g>
<!-- Relations&#45;&gt;Partial order -->
<g id="edge39" class="edge">
<title>Relations&#45;&gt;Partial order</title>
<path fill="none" stroke="#b75867" d="M378.02,-259.58C385.98,-219.2 405.48,-124.98 416,-114.81 428.83,-102.4 446.95,-96.33 464.28,-93.54"/>
<polygon fill="#b75867" stroke="#b75867" points="464.87,-96.99 474.34,-92.25 463.98,-90.05 464.87,-96.99"/>
</g>
<!-- Relations&#45;&gt;Class of equivalence -->
<g id="edge40" class="edge">
<title>Relations&#45;&gt;Class of equivalence</title>
<path fill="none" stroke="#b75867" d="M404.83,-295.88C405.99,-297.12 407.05,-298.43 408,-299.81 417.31,-313.29 403.47,-325.24 416,-335.81 423.77,-342.36 572.98,-344.68 616.47,-345.9"/>
<polygon fill="#b75867" stroke="#b75867" points="616.56,-349.41 626.68,-346.27 616.81,-342.41 616.56,-349.41"/>
</g>
<!-- Linear extension -->
<g id="node23" class="node">
<title>Linear extension</title>
<g id="a_node23"><a xlink:href="/Knowledge/Linear extension.html" xlink:title="Linear extension" target="_parent">
<path fill="#273434" stroke="#b75867" d="M560.5,-415.81C560.5,-415.81 474.5,-415.81 474.5,-415.81 468.5,-415.81 462.5,-409.81 462.5,-403.81 462.5,-403.81 462.5,-391.81 462.5,-391.81 462.5,-385.81 468.5,-379.81 474.5,-379.81 474.5,-379.81 560.5,-379.81 560.5,-379.81 566.5,-379.81 572.5,-385.81 572.5,-391.81 572.5,-391.81 572.5,-403.81 572.5,-403.81 572.5,-409.81 566.5,-415.81 560.5,-415.81"/>
<text text-anchor="middle" x="517.5" y="-394.71" font-family="sans" font-size="12.00" fill="#c4c7c7">Linear extension</text>
</a>
</g>
</g>
<!-- Relations&#45;&gt;Linear extension -->
<g id="edge37" class="edge">
<title>Relations&#45;&gt;Linear extension</title>
<path fill="none" stroke="#b75867" d="M405.3,-296.07C406.3,-297.25 407.2,-298.5 408,-299.81 416.84,-314.31 404.67,-363.15 416,-375.81 425.39,-386.3 438.54,-392.42 452.23,-395.86"/>
<polygon fill="#b75867" stroke="#b75867" points="451.75,-399.33 462.25,-397.91 453.16,-392.48 451.75,-399.33"/>
</g>
<!-- Transitive Closure -->
<g id="node24" class="node">
<title>Transitive Closure</title>
<g id="a_node24"><a xlink:href="/Knowledge/Transitive Closure.html" xlink:title="Transitive Closure" target="_parent">
<path fill="#273434" stroke="#b75867" d="M563.5,-378.81C563.5,-378.81 471.5,-378.81 471.5,-378.81 465.5,-378.81 459.5,-372.81 459.5,-366.81 459.5,-366.81 459.5,-354.81 459.5,-354.81 459.5,-348.81 465.5,-342.81 471.5,-342.81 471.5,-342.81 563.5,-342.81 563.5,-342.81 569.5,-342.81 575.5,-348.81 575.5,-354.81 575.5,-354.81 575.5,-366.81 575.5,-366.81 575.5,-372.81 569.5,-378.81 563.5,-378.81"/>
<text text-anchor="middle" x="517.5" y="-357.71" font-family="sans" font-size="12.00" fill="#c4c7c7">Transitive Closure</text>
</a>
</g>
</g>
<!-- Relations&#45;&gt;Transitive Closure -->
<g id="edge42" class="edge">
<title>Relations&#45;&gt;Transitive Closure</title>
<path fill="none" stroke="#b75867" d="M404.86,-295.86C406.01,-297.11 407.06,-298.42 408,-299.81 417.93,-314.45 403.57,-326.21 416,-338.81 425.01,-347.93 436.87,-353.67 449.28,-357.2"/>
<polygon fill="#b75867" stroke="#b75867" points="448.76,-360.68 459.3,-359.59 450.38,-353.87 448.76,-360.68"/>
</g>
<!-- Relations&#45;&gt;Transitive Closure -->
<g id="edge46" class="edge">
<title>Relations&#45;&gt;Transitive Closure</title>
<path fill="none" stroke="#b75867" d="M403.99,-295.93C405.47,-297.45 406.83,-299.08 408,-300.81 417.93,-315.45 403.57,-327.21 416,-339.81 425.01,-348.93 436.87,-354.67 449.28,-358.18"/>
<polygon fill="#b75867" stroke="#b75867" points="448.76,-361.66 459.3,-360.54 450.37,-354.84 448.76,-361.66"/>
</g>
<!-- Discrete Structures -->
<g id="node25" class="node">
<title>Discrete Structures</title>
<g id="a_node25"><a xlink:href="/Knowledge/Discrete Structures.html" xlink:title="Discrete Structures" target="_parent">
<path fill="none" stroke="#b75867" d="M566.5,-338.81C566.5,-338.81 468.5,-338.81 468.5,-338.81 462.5,-338.81 456.5,-332.81 456.5,-326.81 456.5,-326.81 456.5,-314.81 456.5,-314.81 456.5,-308.81 462.5,-302.81 468.5,-302.81 468.5,-302.81 566.5,-302.81 566.5,-302.81 572.5,-302.81 578.5,-308.81 578.5,-314.81 578.5,-314.81 578.5,-326.81 578.5,-326.81 578.5,-332.81 572.5,-338.81 566.5,-338.81"/>
<text text-anchor="middle" x="517.5" y="-317.71" font-family="sans" font-size="12.00" fill="#c4c7c7">Discrete Structures</text>
</a>
</g>
</g>
<!-- Relations&#45;&gt;Discrete Structures -->
<g id="edge55" class="edge">
<title>Relations&#45;&gt;Discrete Structures</title>
<path fill="none" stroke="#ffffff" d="M417.81,-299.18C433.38,-304.58 445.05,-307.65 456.28,-310.22"/>
<polygon fill="#ffffff" stroke="#ffffff" points="418.76,-295.8 408.16,-295.72 416.39,-302.39 418.76,-295.8"/>
</g>
</g>
</svg>
