<?xml version="1.0" encoding="UTF-8" standalone="no"?>
<!DOCTYPE svg PUBLIC "-//W3C//DTD SVG 1.1//EN"
 "http://www.w3.org/Graphics/SVG/1.1/DTD/svg11.dtd">
<!-- Generated by graphviz version 2.46.1 (0)
 -->
<!-- Title: Symmetric Relation Pages: 1 -->
<svg width="697pt" height="507pt"
 viewBox="0.00 0.00 697.00 507.00" xmlns="http://www.w3.org/2000/svg" xmlns:xlink="http://www.w3.org/1999/xlink">
<g id="graph0" class="graph" transform="scale(1 1) rotate(0) translate(4 503)">
<title>Symmetric Relation</title>
<polygon fill="#132020" stroke="transparent" points="-4,4 -4,-503 693,-503 693,4 -4,4"/>
<!-- Symmetric Relation -->
<g id="node1" class="node">
<title>Symmetric Relation</title>
<g id="a_node1"><a xlink:href="/Knowledge/symmetric_relation.html" xlink:title="Symmetric Relation" target="_parent">
<path fill="#273434" stroke="#b75867" d="M103,-274C103,-274 12,-274 12,-274 6,-274 0,-268 0,-262 0,-262 0,-250 0,-250 0,-244 6,-238 12,-238 12,-238 103,-238 103,-238 109,-238 115,-244 115,-250 115,-250 115,-262 115,-262 115,-268 109,-274 103,-274"/>
<text text-anchor="middle" x="57.5" y="-252.9" font-family="sans" font-size="12.00" fill="#c4c7c7">Symmetric Relation</text>
</a>
</g>
</g>
<!-- Relation -->
<g id="node2" class="node">
<title>Relation</title>
<g id="a_node2"><a xlink:href="/Knowledge/relation.html" xlink:title="Relation" target="_parent">
<path fill="#273434" stroke="#b75867" d="M170,-224C170,-224 135,-224 135,-224 129,-224 123,-218 123,-212 123,-212 123,-200 123,-200 123,-194 129,-188 135,-188 135,-188 170,-188 170,-188 176,-188 182,-194 182,-200 182,-200 182,-212 182,-212 182,-218 176,-224 170,-224"/>
<text text-anchor="middle" x="152.5" y="-202.9" font-family="sans" font-size="12.00" fill="#c4c7c7">Relation</text>
</a>
</g>
</g>
<!-- Symmetric Relation&#45;&gt;Relation -->
<g id="edge1" class="edge">
<title>Symmetric Relation&#45;&gt;Relation</title>
<path fill="none" stroke="#b75867" d="M92.08,-237.95C99.17,-234.13 106.71,-230.08 113.94,-226.19"/>
<polygon fill="#b75867" stroke="#b75867" points="115.74,-229.2 122.89,-221.38 112.42,-223.04 115.74,-229.2"/>
</g>
<!-- Symmetric Closure -->
<g id="node3" class="node">
<title>Symmetric Closure</title>
<g id="a_node3"><a xlink:href="/Knowledge/symmetric_closure.html" xlink:title="Symmetric Closure" target="_parent">
<path fill="none" stroke="#b75867" d="M289,-288C289,-288 202,-288 202,-288 196,-288 190,-282 190,-276 190,-276 190,-264 190,-264 190,-258 196,-252 202,-252 202,-252 289,-252 289,-252 295,-252 301,-258 301,-264 301,-264 301,-276 301,-276 301,-282 295,-288 289,-288"/>
<text text-anchor="middle" x="245.5" y="-266.9" font-family="sans" font-size="12.00" fill="#c4c7c7">Symmetric Closure</text>
</a>
</g>
</g>
<!-- Symmetric Relation&#45;&gt;Symmetric Closure -->
<g id="edge2" class="edge">
<title>Symmetric Relation&#45;&gt;Symmetric Closure</title>
<path fill="none" stroke="#ffffff" d="M125.28,-261.03C146.44,-262.62 169.58,-264.36 189.8,-265.88"/>
<polygon fill="#ffffff" stroke="#ffffff" points="125.3,-257.52 115.06,-260.26 124.77,-264.5 125.3,-257.52"/>
</g>
<!-- Relations -->
<g id="node4" class="node">
<title>Relations</title>
<g id="a_node4"><a xlink:href="/Knowledge/relations.html" xlink:title="Relations" target="_parent">
<path fill="none" stroke="#b75867" d="M361,-288C361,-288 321,-288 321,-288 315,-288 309,-282 309,-276 309,-276 309,-264 309,-264 309,-258 315,-252 321,-252 321,-252 361,-252 361,-252 367,-252 373,-258 373,-264 373,-264 373,-276 373,-276 373,-282 367,-288 361,-288"/>
<text text-anchor="middle" x="341" y="-266.9" font-family="sans" font-size="12.00" fill="#c4c7c7">Relations</text>
</a>
</g>
</g>
<!-- Symmetric Relation&#45;&gt;Relations -->
<g id="edge3" class="edge">
<title>Symmetric Relation&#45;&gt;Relations</title>
<path fill="none" stroke="#ffffff" d="M125.55,-249.05C174.58,-245.58 242.45,-244.13 301,-255 303.57,-255.48 306.18,-256.12 308.79,-256.86"/>
<polygon fill="#ffffff" stroke="#ffffff" points="125.09,-245.57 115.39,-249.82 125.62,-252.55 125.09,-245.57"/>
</g>
<!-- Relation of Equivalence -->
<g id="node5" class="node">
<title>Relation of Equivalence</title>
<g id="a_node5"><a xlink:href="/Knowledge/relation_of_equivalence.html" xlink:title="Relation of Equivalence" target="_parent">
<path fill="none" stroke="#b75867" d="M526.5,-445C526.5,-445 416.5,-445 416.5,-445 410.5,-445 404.5,-439 404.5,-433 404.5,-433 404.5,-421 404.5,-421 404.5,-415 410.5,-409 416.5,-409 416.5,-409 526.5,-409 526.5,-409 532.5,-409 538.5,-415 538.5,-421 538.5,-421 538.5,-433 538.5,-433 538.5,-439 532.5,-445 526.5,-445"/>
<text text-anchor="middle" x="471.5" y="-423.9" font-family="sans" font-size="12.00" fill="#c4c7c7">Relation of Equivalence</text>
</a>
</g>
</g>
<!-- Symmetric Relation&#45;&gt;Relation of Equivalence -->
<g id="edge4" class="edge">
<title>Symmetric Relation&#45;&gt;Relation of Equivalence</title>
<path fill="none" stroke="#ffffff" d="M100.86,-278.78C161.5,-310.62 277.19,-368.64 381,-405 388.4,-407.59 396.25,-410 404.1,-412.19"/>
<polygon fill="#ffffff" stroke="#ffffff" points="102.45,-275.65 91.97,-274.08 99.18,-281.85 102.45,-275.65"/>
</g>
<!-- Relation&#45;&gt;Symmetric Relation -->
<g id="edge14" class="edge">
<title>Relation&#45;&gt;Symmetric Relation</title>
<path fill="none" stroke="#ffffff" d="M113.8,-227.01C107.06,-230.65 100.06,-234.41 93.39,-237.97"/>
<polygon fill="#ffffff" stroke="#ffffff" points="115.66,-229.98 122.78,-222.14 112.32,-223.83 115.66,-229.98"/>
</g>
<!-- Relation&#45;&gt;Symmetric Closure -->
<g id="edge12" class="edge">
<title>Relation&#45;&gt;Symmetric Closure</title>
<path fill="none" stroke="#ffffff" d="M172.66,-231.95C177.82,-237.76 183.73,-243.53 190,-248 191.91,-249.36 193.92,-250.66 195.99,-251.89"/>
<polygon fill="#ffffff" stroke="#ffffff" points="175.21,-229.55 166.12,-224.11 169.84,-234.03 175.21,-229.55"/>
</g>
<!-- Relation&#45;&gt;Relations -->
<g id="edge18" class="edge">
<title>Relation&#45;&gt;Relations</title>
<path fill="none" stroke="#ffffff" d="M192.23,-206.64C232.73,-207.59 291.72,-209.84 301,-215 315.53,-223.08 325.94,-239.12 332.33,-251.8"/>
<polygon fill="#ffffff" stroke="#ffffff" points="192.19,-203.14 182.11,-206.43 192.04,-210.14 192.19,-203.14"/>
</g>
<!-- Relation&#45;&gt;Relation of Equivalence -->
<g id="edge20" class="edge">
<title>Relation&#45;&gt;Relation of Equivalence</title>
<path fill="none" stroke="#ffffff" d="M160.43,-234C165.98,-251.58 175.31,-273.73 190,-289 252.71,-354.17 314.52,-309.01 373,-378 381.09,-387.55 371.94,-396.36 381,-405 387.6,-411.3 395.7,-415.88 404.3,-419.2"/>
<polygon fill="#ffffff" stroke="#ffffff" points="163.75,-232.88 157.59,-224.26 157.03,-234.84 163.75,-232.88"/>
</g>
<!-- Descartes Product -->
<g id="node6" class="node">
<title>Descartes Product</title>
<g id="a_node6"><a xlink:href="/Knowledge/descartes_product.html" xlink:title="Descartes Product" target="_parent">
<path fill="#273434" stroke="#b75867" d="M287.5,-81C287.5,-81 203.5,-81 203.5,-81 197.5,-81 191.5,-75 191.5,-69 191.5,-69 191.5,-57 191.5,-57 191.5,-51 197.5,-45 203.5,-45 203.5,-45 287.5,-45 287.5,-45 293.5,-45 299.5,-51 299.5,-57 299.5,-57 299.5,-69 299.5,-69 299.5,-75 293.5,-81 287.5,-81"/>
<text text-anchor="middle" x="245.5" y="-59.9" font-family="sans" font-size="12.00" fill="#c4c7c7">Descartes Product</text>
</a>
</g>
</g>
<!-- Relation&#45;&gt;Descartes Product -->
<g id="edge5" class="edge">
<title>Relation&#45;&gt;Descartes Product</title>
<path fill="none" stroke="#b75867" d="M154.23,-187.62C156.07,-163.64 162.41,-121.31 187.26,-89.12"/>
<polygon fill="#b75867" stroke="#b75867" points="190.19,-91.07 193.98,-81.17 184.85,-86.55 190.19,-91.07"/>
</g>
<!-- Partial order -->
<g id="node7" class="node">
<title>Partial order</title>
<g id="a_node7"><a xlink:href="/Knowledge/partial_order.html" xlink:title="Partial order" target="_parent">
<path fill="none" stroke="#b75867" d="M499,-63C499,-63 444,-63 444,-63 438,-63 432,-57 432,-51 432,-51 432,-39 432,-39 432,-33 438,-27 444,-27 444,-27 499,-27 499,-27 505,-27 511,-33 511,-39 511,-39 511,-51 511,-51 511,-57 505,-63 499,-63"/>
<text text-anchor="middle" x="471.5" y="-41.9" font-family="sans" font-size="12.00" fill="#c4c7c7">Partial order</text>
</a>
</g>
</g>
<!-- Relation&#45;&gt;Partial order -->
<g id="edge6" class="edge">
<title>Relation&#45;&gt;Partial order</title>
<path fill="none" stroke="#ffffff" d="M155.68,-177.57C159.58,-135.42 169.33,-59.55 190,-43 208.39,-28.27 359.23,-36.95 431.79,-42.07"/>
<polygon fill="#ffffff" stroke="#ffffff" points="152.18,-177.48 154.8,-187.75 159.15,-178.09 152.18,-177.48"/>
</g>
<!-- Chain -->
<g id="node8" class="node">
<title>Chain</title>
<g id="a_node8"><a xlink:href="/Knowledge/chain.html" xlink:title="Chain" target="_parent">
<path fill="none" stroke="#b75867" d="M486.5,-251C486.5,-251 456.5,-251 456.5,-251 450.5,-251 444.5,-245 444.5,-239 444.5,-239 444.5,-227 444.5,-227 444.5,-221 450.5,-215 456.5,-215 456.5,-215 486.5,-215 486.5,-215 492.5,-215 498.5,-221 498.5,-227 498.5,-227 498.5,-239 498.5,-239 498.5,-245 492.5,-251 486.5,-251"/>
<text text-anchor="middle" x="471.5" y="-229.9" font-family="sans" font-size="12.00" fill="#c4c7c7">Chain</text>
</a>
</g>
</g>
<!-- Relation&#45;&gt;Chain -->
<g id="edge7" class="edge">
<title>Relation&#45;&gt;Chain</title>
<path fill="none" stroke="#ffffff" d="M192.32,-203.84C236.34,-202.01 310.15,-200.83 373,-209 376.63,-209.47 377.44,-210.12 381,-211 402.28,-216.27 426.41,-222.2 444.25,-226.58"/>
<polygon fill="#ffffff" stroke="#ffffff" points="191.9,-200.35 182.06,-204.3 192.21,-207.34 191.9,-200.35"/>
</g>
<!-- Linear order -->
<g id="node9" class="node">
<title>Linear order</title>
<g id="a_node9"><a xlink:href="/Knowledge/linear_order.html" xlink:title="Linear order" target="_parent">
<path fill="none" stroke="#b75867" d="M499,-214C499,-214 444,-214 444,-214 438,-214 432,-208 432,-202 432,-202 432,-190 432,-190 432,-184 438,-178 444,-178 444,-178 499,-178 499,-178 505,-178 511,-184 511,-190 511,-190 511,-202 511,-202 511,-208 505,-214 499,-214"/>
<text text-anchor="middle" x="471.5" y="-192.9" font-family="sans" font-size="12.00" fill="#c4c7c7">Linear order</text>
</a>
</g>
</g>
<!-- Relation&#45;&gt;Linear order -->
<g id="edge8" class="edge">
<title>Relation&#45;&gt;Linear order</title>
<path fill="none" stroke="#ffffff" d="M192.43,-203.93C283.67,-200.23 379.79,-197.9 431.92,-196.78"/>
<polygon fill="#ffffff" stroke="#ffffff" points="192.04,-200.45 182.19,-204.36 192.32,-207.44 192.04,-200.45"/>
</g>
<!-- Partial function -->
<g id="node10" class="node">
<title>Partial function</title>
<g id="a_node10"><a xlink:href="/Knowledge/partial_function.html" xlink:title="Partial function" target="_parent">
<path fill="none" stroke="#b75867" d="M280.5,-36C280.5,-36 210.5,-36 210.5,-36 204.5,-36 198.5,-30 198.5,-24 198.5,-24 198.5,-12 198.5,-12 198.5,-6 204.5,0 210.5,0 210.5,0 280.5,0 280.5,0 286.5,0 292.5,-6 292.5,-12 292.5,-12 292.5,-24 292.5,-24 292.5,-30 286.5,-36 280.5,-36"/>
<text text-anchor="middle" x="245.5" y="-14.9" font-family="sans" font-size="12.00" fill="#c4c7c7">Partial function</text>
</a>
</g>
</g>
<!-- Relation&#45;&gt;Partial function -->
<g id="edge9" class="edge">
<title>Relation&#45;&gt;Partial function</title>
<path fill="none" stroke="#ffffff" d="M156.53,-177.65C161.51,-135.88 172.65,-60.52 190,-40 192.44,-37.12 195.31,-34.61 198.44,-32.42"/>
<polygon fill="#ffffff" stroke="#ffffff" points="153.03,-177.4 155.37,-187.73 159.99,-178.2 153.03,-177.4"/>
</g>
<!-- Total function -->
<g id="node11" class="node">
<title>Total function</title>
<g id="a_node11"><a xlink:href="/Knowledge/total_function.html" xlink:title="Total function" target="_parent">
<path fill="none" stroke="#b75867" d="M276.5,-248C276.5,-248 214.5,-248 214.5,-248 208.5,-248 202.5,-242 202.5,-236 202.5,-236 202.5,-224 202.5,-224 202.5,-218 208.5,-212 214.5,-212 214.5,-212 276.5,-212 276.5,-212 282.5,-212 288.5,-218 288.5,-224 288.5,-224 288.5,-236 288.5,-236 288.5,-242 282.5,-248 276.5,-248"/>
<text text-anchor="middle" x="245.5" y="-226.9" font-family="sans" font-size="12.00" fill="#c4c7c7">Total function</text>
</a>
</g>
</g>
<!-- Relation&#45;&gt;Total function -->
<g id="edge10" class="edge">
<title>Relation&#45;&gt;Total function</title>
<path fill="none" stroke="#ffffff" d="M192.13,-216.19C195.48,-217.07 198.88,-217.97 202.26,-218.86"/>
<polygon fill="#ffffff" stroke="#ffffff" points="192.85,-212.76 182.29,-213.59 191.07,-219.53 192.85,-212.76"/>
</g>
<!-- Reflexive Relation -->
<g id="node12" class="node">
<title>Reflexive Relation</title>
<g id="a_node12"><a xlink:href="/Knowledge/reflexive_relation.html" xlink:title="Reflexive Relation" target="_parent">
<path fill="none" stroke="#b75867" d="M670.5,-351C670.5,-351 588.5,-351 588.5,-351 582.5,-351 576.5,-345 576.5,-339 576.5,-339 576.5,-327 576.5,-327 576.5,-321 582.5,-315 588.5,-315 588.5,-315 670.5,-315 670.5,-315 676.5,-315 682.5,-321 682.5,-327 682.5,-327 682.5,-339 682.5,-339 682.5,-345 676.5,-351 670.5,-351"/>
<text text-anchor="middle" x="629.5" y="-329.9" font-family="sans" font-size="12.00" fill="#c4c7c7">Reflexive Relation</text>
</a>
</g>
</g>
<!-- Relation&#45;&gt;Reflexive Relation -->
<g id="edge11" class="edge">
<title>Relation&#45;&gt;Reflexive Relation</title>
<path fill="none" stroke="#ffffff" d="M167.76,-179.28C173.69,-170.04 181.24,-160.21 190,-153 261.45,-94.17 290.38,-88.84 381,-70 400.69,-65.91 547.54,-56.02 562,-70 581.1,-88.47 554.83,-287.18 570,-309 571.75,-311.52 573.82,-313.78 576.12,-315.8"/>
<polygon fill="#ffffff" stroke="#ffffff" points="164.76,-177.47 162.59,-187.85 170.76,-181.09 164.76,-177.47"/>
</g>
<!-- Anti&#45;symmetric Relation -->
<g id="node13" class="node">
<title>Anti&#45;symmetric Relation</title>
<g id="a_node13"><a xlink:href="/Knowledge/anti-symmetric_relation.html" xlink:title="Anti&#45;symmetric Relation" target="_parent">
<path fill="none" stroke="#b75867" d="M528,-177C528,-177 415,-177 415,-177 409,-177 403,-171 403,-165 403,-165 403,-153 403,-153 403,-147 409,-141 415,-141 415,-141 528,-141 528,-141 534,-141 540,-147 540,-153 540,-153 540,-165 540,-165 540,-171 534,-177 528,-177"/>
<text text-anchor="middle" x="471.5" y="-155.9" font-family="sans" font-size="12.00" fill="#c4c7c7">Anti&#45;symmetric Relation</text>
</a>
</g>
</g>
<!-- Relation&#45;&gt;Anti&#45;symmetric Relation -->
<g id="edge13" class="edge">
<title>Relation&#45;&gt;Anti&#45;symmetric Relation</title>
<path fill="none" stroke="#ffffff" d="M192.39,-200.23C244.73,-192.47 338.64,-178.55 402.72,-169.05"/>
<polygon fill="#ffffff" stroke="#ffffff" points="191.57,-196.82 182.19,-201.75 192.6,-203.74 191.57,-196.82"/>
</g>
<!-- Reflexive Closure -->
<g id="node14" class="node">
<title>Reflexive Closure</title>
<g id="a_node14"><a xlink:href="/Knowledge/reflexive_closure.html" xlink:title="Reflexive Closure" target="_parent">
<path fill="none" stroke="#b75867" d="M510.5,-288C510.5,-288 432.5,-288 432.5,-288 426.5,-288 420.5,-282 420.5,-276 420.5,-276 420.5,-264 420.5,-264 420.5,-258 426.5,-252 432.5,-252 432.5,-252 510.5,-252 510.5,-252 516.5,-252 522.5,-258 522.5,-264 522.5,-264 522.5,-276 522.5,-276 522.5,-282 516.5,-288 510.5,-288"/>
<text text-anchor="middle" x="471.5" y="-266.9" font-family="sans" font-size="12.00" fill="#c4c7c7">Reflexive Closure</text>
</a>
</g>
</g>
<!-- Relation&#45;&gt;Reflexive Closure -->
<g id="edge15" class="edge">
<title>Relation&#45;&gt;Reflexive Closure</title>
<path fill="none" stroke="#ffffff" d="M192.3,-203.59C222.37,-202.67 264.85,-203.47 301,-212 338.95,-220.96 344.14,-235.29 381,-248 393.56,-252.33 407.38,-256.16 420.33,-259.37"/>
<polygon fill="#ffffff" stroke="#ffffff" points="192.07,-200.1 182.21,-203.98 192.34,-207.09 192.07,-200.1"/>
</g>
<!-- Anti&#45;reflexive relation -->
<g id="node15" class="node">
<title>Anti&#45;reflexive relation</title>
<g id="a_node15"><a xlink:href="/Knowledge/anti-reflexive_relation.html" xlink:title="Anti&#45;reflexive relation" target="_parent">
<path fill="none" stroke="#b75867" d="M521.5,-140C521.5,-140 421.5,-140 421.5,-140 415.5,-140 409.5,-134 409.5,-128 409.5,-128 409.5,-116 409.5,-116 409.5,-110 415.5,-104 421.5,-104 421.5,-104 521.5,-104 521.5,-104 527.5,-104 533.5,-110 533.5,-116 533.5,-116 533.5,-128 533.5,-128 533.5,-134 527.5,-140 521.5,-140"/>
<text text-anchor="middle" x="471.5" y="-118.9" font-family="sans" font-size="12.00" fill="#c4c7c7">Anti&#45;reflexive relation</text>
</a>
</g>
</g>
<!-- Relation&#45;&gt;Anti&#45;reflexive relation -->
<g id="edge16" class="edge">
<title>Relation&#45;&gt;Anti&#45;reflexive relation</title>
<path fill="none" stroke="#ffffff" d="M191.67,-184.78C269.66,-155.31 353.67,-139.06 409.3,-130.3"/>
<polygon fill="#ffffff" stroke="#ffffff" points="190.26,-181.58 182.19,-188.44 192.78,-188.11 190.26,-181.58"/>
</g>
<!-- Strongly Anti&#45;symmetric Relation -->
<g id="node16" class="node">
<title>Strongly Anti&#45;symmetric Relation</title>
<g id="a_node16"><a xlink:href="/Knowledge/strongly_anti-symmetric_relation.html" xlink:title="Strongly Anti&#45;symmetric Relation" target="_parent">
<path fill="none" stroke="#b75867" d="M550,-103C550,-103 393,-103 393,-103 387,-103 381,-97 381,-91 381,-91 381,-79 381,-79 381,-73 387,-67 393,-67 393,-67 550,-67 550,-67 556,-67 562,-73 562,-79 562,-79 562,-91 562,-91 562,-97 556,-103 550,-103"/>
<text text-anchor="middle" x="471.5" y="-81.9" font-family="sans" font-size="12.00" fill="#c4c7c7">Strongly Anti&#45;symmetric Relation</text>
</a>
</g>
</g>
<!-- Relation&#45;&gt;Strongly Anti&#45;symmetric Relation -->
<g id="edge17" class="edge">
<title>Relation&#45;&gt;Strongly Anti&#45;symmetric Relation</title>
<path fill="none" stroke="#ffffff" d="M155.91,-177.55C160.04,-136.51 170.03,-63.89 190,-48 209.31,-32.65 276.48,-45.35 301,-48 319.34,-49.98 358.94,-58.54 395.26,-66.92"/>
<polygon fill="#ffffff" stroke="#ffffff" points="152.4,-177.44 154.94,-187.73 159.37,-178.11 152.4,-177.44"/>
</g>
<!-- Transitive Relation -->
<g id="node17" class="node">
<title>Transitive Relation</title>
<g id="a_node17"><a xlink:href="/Knowledge/transitive_relation.html" xlink:title="Transitive Relation" target="_parent">
<path fill="none" stroke="#b75867" d="M672.5,-308C672.5,-308 586.5,-308 586.5,-308 580.5,-308 574.5,-302 574.5,-296 574.5,-296 574.5,-284 574.5,-284 574.5,-278 580.5,-272 586.5,-272 586.5,-272 672.5,-272 672.5,-272 678.5,-272 684.5,-278 684.5,-284 684.5,-284 684.5,-296 684.5,-296 684.5,-302 678.5,-308 672.5,-308"/>
<text text-anchor="middle" x="629.5" y="-286.9" font-family="sans" font-size="12.00" fill="#c4c7c7">Transitive Relation</text>
</a>
</g>
</g>
<!-- Relation&#45;&gt;Transitive Relation -->
<g id="edge19" class="edge">
<title>Relation&#45;&gt;Transitive Relation</title>
<path fill="none" stroke="#ffffff" d="M153.8,-177.66C155.76,-150.17 163.36,-109.55 190,-88 209.25,-72.42 277.45,-85.68 301,-78 340.42,-65.15 341.04,-41.07 381,-30 458.53,-8.53 498.46,19.33 562,-30 600.92,-60.22 620.92,-217.97 626.7,-271.9"/>
<polygon fill="#ffffff" stroke="#ffffff" points="150.3,-177.67 153.29,-187.84 157.29,-178.03 150.3,-177.67"/>
</g>
<!-- Symmetric Closure&#45;&gt;Symmetric Relation -->
<g id="edge24" class="edge">
<title>Symmetric Closure&#45;&gt;Symmetric Relation</title>
<path fill="none" stroke="#b75867" d="M189.8,-266.57C169.58,-265.12 146.44,-263.39 125.28,-261.75"/>
<polygon fill="#b75867" stroke="#b75867" points="125.31,-258.24 115.06,-260.95 124.76,-265.22 125.31,-258.24"/>
</g>
<!-- Symmetric Closure&#45;&gt;Relation -->
<g id="edge22" class="edge">
<title>Symmetric Closure&#45;&gt;Relation</title>
<path fill="none" stroke="#b75867" d="M194.38,-251.91C192.88,-250.98 191.41,-250.01 190,-249 183.51,-244.37 177.41,-238.37 172.13,-232.32"/>
<polygon fill="#b75867" stroke="#b75867" points="174.51,-229.69 165.47,-224.16 169.09,-234.12 174.51,-229.69"/>
</g>
<!-- Symmetric Closure&#45;&gt;Relations -->
<g id="edge25" class="edge">
<title>Symmetric Closure&#45;&gt;Relations</title>
<path fill="none" stroke="#ffffff" d="M308.24,-269.29C308.4,-269.29 308.55,-269.29 308.7,-269.29"/>
<polygon fill="#ffffff" stroke="#ffffff" points="311.17,-265.8 301.16,-269.26 311.15,-272.8 311.17,-265.8"/>
</g>
<!-- Symmetric Closure&#45;&gt;Relations -->
<g id="edge26" class="edge">
<title>Symmetric Closure&#45;&gt;Relations</title>
<path fill="none" stroke="#ffffff" d="M308.24,-270C308.4,-270 308.55,-270 308.7,-270"/>
<polygon fill="#ffffff" stroke="#ffffff" points="311.16,-266.5 301.16,-270 311.16,-273.5 311.16,-266.5"/>
</g>
<!-- Matrix -->
<g id="node18" class="node">
<title>Matrix</title>
<g id="a_node18"><a xlink:href="/Knowledge/matrix.html" xlink:title="Matrix" target="_parent">
<path fill="#273434" stroke="#b75867" d="M356,-325C356,-325 326,-325 326,-325 320,-325 314,-319 314,-313 314,-313 314,-301 314,-301 314,-295 320,-289 326,-289 326,-289 356,-289 356,-289 362,-289 368,-295 368,-301 368,-301 368,-313 368,-313 368,-319 362,-325 356,-325"/>
<text text-anchor="middle" x="341" y="-303.9" font-family="sans" font-size="12.00" fill="#c4c7c7">Matrix</text>
</a>
</g>
</g>
<!-- Symmetric Closure&#45;&gt;Matrix -->
<g id="edge21" class="edge">
<title>Symmetric Closure&#45;&gt;Matrix</title>
<path fill="none" stroke="#b75867" d="M292.15,-288.07C296.21,-289.67 300.28,-291.28 304.23,-292.85"/>
<polygon fill="#b75867" stroke="#b75867" points="303.18,-296.19 313.77,-296.62 305.76,-289.69 303.18,-296.19"/>
</g>
<!-- Set -->
<g id="node19" class="node">
<title>Set</title>
<g id="a_node19"><a xlink:href="/Knowledge/set.html" xlink:title="Set" target="_parent">
<path fill="#273434" stroke="#b75867" d="M644.5,-499C644.5,-499 614.5,-499 614.5,-499 608.5,-499 602.5,-493 602.5,-487 602.5,-487 602.5,-475 602.5,-475 602.5,-469 608.5,-463 614.5,-463 614.5,-463 644.5,-463 644.5,-463 650.5,-463 656.5,-469 656.5,-475 656.5,-475 656.5,-487 656.5,-487 656.5,-493 650.5,-499 644.5,-499"/>
<text text-anchor="middle" x="629.5" y="-477.9" font-family="sans" font-size="12.00" fill="#c4c7c7">Set</text>
</a>
</g>
</g>
<!-- Symmetric Closure&#45;&gt;Set -->
<g id="edge23" class="edge">
<title>Symmetric Closure&#45;&gt;Set</title>
<path fill="none" stroke="#b75867" d="M254.48,-288.2C271.66,-324.99 315.94,-407.94 381,-446 447.62,-484.98 541.13,-486.69 592.01,-484.1"/>
<polygon fill="#b75867" stroke="#b75867" points="592.42,-487.58 602.2,-483.5 592.01,-480.6 592.42,-487.58"/>
</g>
<!-- Relations&#45;&gt;Symmetric Relation -->
<g id="edge42" class="edge">
<title>Relations&#45;&gt;Symmetric Relation</title>
<path fill="none" stroke="#b75867" d="M308.79,-257.86C306.18,-257.12 303.57,-256.48 301,-256 242.45,-245.13 174.58,-246.58 125.55,-249.88"/>
<polygon fill="#b75867" stroke="#b75867" points="125.11,-246.4 115.39,-250.61 125.61,-253.38 125.11,-246.4"/>
</g>
<!-- Relations&#45;&gt;Relation -->
<g id="edge45" class="edge">
<title>Relations&#45;&gt;Relation</title>
<path fill="none" stroke="#b75867" d="M331.92,-251.83C325.5,-239.44 315.22,-223.91 301,-216 291.72,-210.84 232.73,-208.59 192.23,-207.37"/>
<polygon fill="#b75867" stroke="#b75867" points="192.21,-203.87 182.11,-207.08 192.01,-210.87 192.21,-203.87"/>
</g>
<!-- Relations&#45;&gt;Symmetric Closure -->
<g id="edge34" class="edge">
<title>Relations&#45;&gt;Symmetric Closure</title>
<path fill="none" stroke="#b75867" d="M308.7,-270.71C308.55,-270.71 308.4,-270.71 308.24,-270.71"/>
<polygon fill="#b75867" stroke="#b75867" points="311.15,-267.2 301.16,-270.74 311.17,-274.2 311.15,-267.2"/>
</g>
<!-- Relations&#45;&gt;Symmetric Closure -->
<g id="edge36" class="edge">
<title>Relations&#45;&gt;Symmetric Closure</title>
<path fill="none" stroke="#b75867" d="M308.7,-271.42C308.55,-271.43 308.4,-271.43 308.24,-271.43"/>
<polygon fill="#b75867" stroke="#b75867" points="311.13,-267.91 301.16,-271.48 311.19,-274.91 311.13,-267.91"/>
</g>
<!-- Relations&#45;&gt;Relation of Equivalence -->
<g id="edge32" class="edge">
<title>Relations&#45;&gt;Relation of Equivalence</title>
<path fill="none" stroke="#b75867" d="M370.32,-288.05C371.32,-289.3 372.22,-290.62 373,-292 385.34,-313.94 364.78,-385.75 381,-405 384.96,-409.7 389.75,-413.49 395.03,-416.53"/>
<polygon fill="#b75867" stroke="#b75867" points="393.79,-419.81 404.32,-420.97 396.81,-413.5 393.79,-419.81"/>
</g>
<!-- Relations&#45;&gt;Partial order -->
<g id="edge30" class="edge">
<title>Relations&#45;&gt;Partial order</title>
<path fill="none" stroke="#b75867" d="M343.03,-251.89C345.94,-207.24 355.73,-93.6 381,-67 391.57,-55.88 406.77,-50 421.66,-47"/>
<polygon fill="#b75867" stroke="#b75867" points="422.54,-50.4 431.85,-45.35 421.42,-43.49 422.54,-50.4"/>
</g>
<!-- Relations&#45;&gt;Chain -->
<g id="edge27" class="edge">
<title>Relations&#45;&gt;Chain</title>
<path fill="none" stroke="#b75867" d="M373.38,-257.54C375.95,-256.64 378.51,-255.78 381,-255 398.45,-249.52 418.15,-244.55 434.62,-240.73"/>
<polygon fill="#b75867" stroke="#b75867" points="435.44,-244.13 444.41,-238.5 433.88,-237.31 435.44,-244.13"/>
</g>
<!-- Relations&#45;&gt;Linear order -->
<g id="edge29" class="edge">
<title>Relations&#45;&gt;Linear order</title>
<path fill="none" stroke="#b75867" d="M351.38,-251.76C358.14,-240.4 368.29,-226.4 381,-218 393.03,-210.05 407.68,-204.97 421.62,-201.72"/>
<polygon fill="#b75867" stroke="#b75867" points="422.5,-205.11 431.59,-199.67 421.09,-198.26 422.5,-205.11"/>
</g>
<!-- Relations&#45;&gt;Reflexive Relation -->
<g id="edge44" class="edge">
<title>Relations&#45;&gt;Reflexive Relation</title>
<path fill="none" stroke="#b75867" d="M370.25,-288.1C371.27,-289.34 372.19,-290.64 373,-292 380.96,-305.48 369.32,-351.58 381,-362 396.01,-375.39 543.17,-369.07 562,-362 564.83,-360.94 565.66,-359.36 568.85,-356.67"/>
<polygon fill="#b75867" stroke="#b75867" points="570.92,-359.5 577.25,-351.01 567,-353.7 570.92,-359.5"/>
</g>
<!-- Relations&#45;&gt;Anti&#45;symmetric Relation -->
<g id="edge41" class="edge">
<title>Relations&#45;&gt;Anti&#45;symmetric Relation</title>
<path fill="none" stroke="#b75867" d="M345.05,-251.78C349.41,-231.48 359.44,-199.14 381,-181 384.78,-177.82 388.95,-175.09 393.36,-172.74"/>
<polygon fill="#b75867" stroke="#b75867" points="395.08,-175.8 402.71,-168.44 392.16,-169.44 395.08,-175.8"/>
</g>
<!-- Relations&#45;&gt;Reflexive Closure -->
<g id="edge35" class="edge">
<title>Relations&#45;&gt;Reflexive Closure</title>
<path fill="none" stroke="#b75867" d="M373.11,-270C384.3,-270 397.34,-270 410.18,-270"/>
<polygon fill="#b75867" stroke="#b75867" points="410.38,-273.5 420.38,-270 410.38,-266.5 410.38,-273.5"/>
</g>
<!-- Relations&#45;&gt;Reflexive Closure -->
<g id="edge38" class="edge">
<title>Relations&#45;&gt;Reflexive Closure</title>
<path fill="none" stroke="#b75867" d="M373.11,-270.65C384.3,-270.73 397.34,-270.76 410.18,-270.75"/>
<polygon fill="#b75867" stroke="#b75867" points="410.39,-274.25 420.38,-270.73 410.38,-267.25 410.39,-274.25"/>
</g>
<!-- Relations&#45;&gt;Anti&#45;reflexive relation -->
<g id="edge43" class="edge">
<title>Relations&#45;&gt;Anti&#45;reflexive relation</title>
<path fill="none" stroke="#b75867" d="M342.29,-251.67C343.75,-224.21 350.67,-172.59 381,-144 386.44,-138.87 392.88,-134.88 399.77,-131.78"/>
<polygon fill="#b75867" stroke="#b75867" points="401.32,-134.94 409.4,-128.09 398.81,-128.4 401.32,-134.94"/>
</g>
<!-- Relations&#45;&gt;Strongly Anti&#45;symmetric Relation -->
<g id="edge40" class="edge">
<title>Relations&#45;&gt;Strongly Anti&#45;symmetric Relation</title>
<path fill="none" stroke="#b75867" d="M343.97,-251.84C348.06,-217.19 358.56,-142.56 378.93,-111.12"/>
<polygon fill="#b75867" stroke="#b75867" points="381.78,-113.16 385.26,-103.15 376.3,-108.8 381.78,-113.16"/>
</g>
<!-- Relations&#45;&gt;Transitive Relation -->
<g id="edge39" class="edge">
<title>Relations&#45;&gt;Transitive Relation</title>
<path fill="none" stroke="#b75867" d="M373.23,-283.08C375.82,-283.84 378.44,-284.5 381,-285 414.64,-291.6 502.46,-291.91 563.87,-291.22"/>
<polygon fill="#b75867" stroke="#b75867" points="564.29,-294.71 574.25,-291.09 564.21,-287.71 564.29,-294.71"/>
</g>
<!-- Linear extension -->
<g id="node20" class="node">
<title>Linear extension</title>
<g id="a_node20"><a xlink:href="/Knowledge/linear_extension.html" xlink:title="Linear extension" target="_parent">
<path fill="#273434" stroke="#b75867" d="M510,-365C510,-365 433,-365 433,-365 427,-365 421,-359 421,-353 421,-353 421,-341 421,-341 421,-335 427,-329 433,-329 433,-329 510,-329 510,-329 516,-329 522,-335 522,-341 522,-341 522,-353 522,-353 522,-359 516,-365 510,-365"/>
<text text-anchor="middle" x="471.5" y="-343.9" font-family="sans" font-size="12.00" fill="#c4c7c7">Linear extension</text>
</a>
</g>
</g>
<!-- Relations&#45;&gt;Linear extension -->
<g id="edge28" class="edge">
<title>Relations&#45;&gt;Linear extension</title>
<path fill="none" stroke="#b75867" d="M370.04,-288.23C371.12,-289.43 372.11,-290.69 373,-292 381.47,-304.49 370.35,-314.31 381,-325 389.13,-333.15 399.75,-338.46 410.83,-341.88"/>
<polygon fill="#b75867" stroke="#b75867" points="410.07,-345.3 420.63,-344.42 411.83,-338.52 410.07,-345.3"/>
</g>
<!-- Class of equivalence -->
<g id="node21" class="node">
<title>Class of equivalence</title>
<g id="a_node21"><a xlink:href="/Knowledge/class_of_equivalence.html" xlink:title="Class of equivalence" target="_parent">
<path fill="#273434" stroke="#b75867" d="M677,-388C677,-388 582,-388 582,-388 576,-388 570,-382 570,-376 570,-376 570,-364 570,-364 570,-358 576,-352 582,-352 582,-352 677,-352 677,-352 683,-352 689,-358 689,-364 689,-364 689,-376 689,-376 689,-382 683,-388 677,-388"/>
<text text-anchor="middle" x="629.5" y="-366.9" font-family="sans" font-size="12.00" fill="#c4c7c7">Class of equivalence</text>
</a>
</g>
</g>
<!-- Relations&#45;&gt;Class of equivalence -->
<g id="edge31" class="edge">
<title>Relations&#45;&gt;Class of equivalence</title>
<path fill="none" stroke="#b75867" d="M370.26,-288.09C371.27,-289.33 372.2,-290.63 373,-292 381.27,-306.07 368.96,-353.98 381,-365 393.93,-376.83 490.88,-375.61 559.52,-373.17"/>
<polygon fill="#b75867" stroke="#b75867" points="559.99,-376.66 569.85,-372.79 559.73,-369.66 559.99,-376.66"/>
</g>
<!-- Transitive Closure -->
<g id="node22" class="node">
<title>Transitive Closure</title>
<g id="a_node22"><a xlink:href="/Knowledge/transitive_closure.html" xlink:title="Transitive Closure" target="_parent">
<path fill="#273434" stroke="#b75867" d="M512.5,-328C512.5,-328 430.5,-328 430.5,-328 424.5,-328 418.5,-322 418.5,-316 418.5,-316 418.5,-304 418.5,-304 418.5,-298 424.5,-292 430.5,-292 430.5,-292 512.5,-292 512.5,-292 518.5,-292 524.5,-298 524.5,-304 524.5,-304 524.5,-316 524.5,-316 524.5,-322 518.5,-328 512.5,-328"/>
<text text-anchor="middle" x="471.5" y="-306.9" font-family="sans" font-size="12.00" fill="#c4c7c7">Transitive Closure</text>
</a>
</g>
</g>
<!-- Relations&#45;&gt;Transitive Closure -->
<g id="edge33" class="edge">
<title>Relations&#45;&gt;Transitive Closure</title>
<path fill="none" stroke="#b75867" d="M373.29,-285.07C375.87,-286.12 378.47,-287.11 381,-288 389.85,-291.1 399.35,-293.93 408.72,-296.46"/>
<polygon fill="#b75867" stroke="#b75867" points="407.86,-299.85 418.42,-298.98 409.62,-293.08 407.86,-299.85"/>
</g>
<!-- Relations&#45;&gt;Transitive Closure -->
<g id="edge37" class="edge">
<title>Relations&#45;&gt;Transitive Closure</title>
<path fill="none" stroke="#b75867" d="M373.29,-286.06C375.87,-287.12 378.47,-288.11 381,-289 389.85,-292.1 399.35,-294.93 408.72,-297.45"/>
<polygon fill="#b75867" stroke="#b75867" points="407.86,-300.84 418.42,-299.95 409.61,-294.06 407.86,-300.84"/>
</g>
<!-- Discrete Structures -->
<g id="node23" class="node">
<title>Discrete Structures</title>
<g id="a_node23"><a xlink:href="/Knowledge/discrete_structures.html" xlink:title="Discrete Structures" target="_parent">
<path fill="none" stroke="#b75867" d="M515,-408C515,-408 428,-408 428,-408 422,-408 416,-402 416,-396 416,-396 416,-384 416,-384 416,-378 422,-372 428,-372 428,-372 515,-372 515,-372 521,-372 527,-378 527,-384 527,-384 527,-396 527,-396 527,-402 521,-408 515,-408"/>
<text text-anchor="middle" x="471.5" y="-386.9" font-family="sans" font-size="12.00" fill="#c4c7c7">Discrete Structures</text>
</a>
</g>
</g>
<!-- Relations&#45;&gt;Discrete Structures -->
<g id="edge46" class="edge">
<title>Relations&#45;&gt;Discrete Structures</title>
<path fill="none" stroke="#ffffff" d="M373.8,-297.52C378.73,-319.6 371.41,-357 381,-368 389.84,-378.13 402.51,-383.98 415.55,-387.27"/>
<polygon fill="#ffffff" stroke="#ffffff" points="377.05,-296.22 370.26,-288.09 370.49,-298.68 377.05,-296.22"/>
</g>
<!-- Relation of Equivalence&#45;&gt;Symmetric Relation -->
<g id="edge51" class="edge">
<title>Relation of Equivalence&#45;&gt;Symmetric Relation</title>
<path fill="none" stroke="#b75867" d="M404.1,-413.19C396.25,-411 388.4,-408.59 381,-406 276.63,-369.44 160.26,-311.01 99.9,-278.92"/>
<polygon fill="#b75867" stroke="#b75867" points="101.52,-275.82 91.05,-274.2 98.23,-282 101.52,-275.82"/>
</g>
<!-- Relation of Equivalence&#45;&gt;Relation -->
<g id="edge53" class="edge">
<title>Relation of Equivalence&#45;&gt;Relation</title>
<path fill="none" stroke="#b75867" d="M404.3,-420.19C395.7,-416.88 387.6,-412.3 381,-406 371.94,-397.36 381.09,-388.55 373,-379 314.52,-310.01 252.71,-355.17 190,-290 175.06,-274.47 165.66,-251.82 160.15,-233.95"/>
<polygon fill="#b75867" stroke="#b75867" points="163.51,-232.98 157.41,-224.32 156.78,-234.9 163.51,-232.98"/>
</g>
<!-- Relation of Equivalence&#45;&gt;Relations -->
<g id="edge55" class="edge">
<title>Relation of Equivalence&#45;&gt;Relations</title>
<path fill="none" stroke="#ffffff" d="M395.03,-417.53C389.75,-414.49 384.96,-410.7 381,-406 364.78,-386.75 385.34,-314.94 373,-293 372.03,-291.27 370.86,-289.65 369.55,-288.13"/>
<polygon fill="#ffffff" stroke="#ffffff" points="393.79,-420.81 404.32,-421.96 396.8,-414.49 393.79,-420.81"/>
</g>
<!-- Relation of Equivalence&#45;&gt;Reflexive Relation -->
<g id="edge52" class="edge">
<title>Relation of Equivalence&#45;&gt;Reflexive Relation</title>
<path fill="none" stroke="#b75867" d="M538.57,-420.3C547.4,-416.86 555.61,-411.94 562,-405 575.4,-390.45 560.43,-376.32 570.52,-357.11"/>
<polygon fill="#b75867" stroke="#b75867" points="573.42,-359.08 576.26,-348.87 567.68,-355.08 573.42,-359.08"/>
</g>
<!-- Relation of Equivalence&#45;&gt;Transitive Relation -->
<g id="edge50" class="edge">
<title>Relation of Equivalence&#45;&gt;Transitive Relation</title>
<path fill="none" stroke="#b75867" d="M538.56,-420.87C547.51,-417.36 555.75,-412.29 562,-405 573.59,-391.49 561.64,-343.95 571.38,-317.29"/>
<polygon fill="#b75867" stroke="#b75867" points="574.61,-318.68 576.27,-308.21 568.45,-315.36 574.61,-318.68"/>
</g>
<!-- Relation of Equivalence&#45;&gt;Set -->
<g id="edge48" class="edge">
<title>Relation of Equivalence&#45;&gt;Set</title>
<path fill="none" stroke="#b75867" d="M524.88,-445.13C547.14,-452.84 572.54,-461.63 592.61,-468.58"/>
<polygon fill="#b75867" stroke="#b75867" points="591.7,-471.97 602.29,-471.93 593.99,-465.35 591.7,-471.97"/>
</g>
<!-- Relation of Equivalence&#45;&gt;Class of equivalence -->
<g id="edge47" class="edge">
<title>Relation of Equivalence&#45;&gt;Class of equivalence</title>
<path fill="none" stroke="#b75867" d="M538.69,-417.03C547,-414.01 555.02,-410.09 562,-405 565.6,-402.38 565.66,-399.46 568.26,-395.44"/>
<polygon fill="#b75867" stroke="#b75867" points="570.9,-397.74 575.28,-388.1 565.84,-392.9 570.9,-397.74"/>
</g>
<!-- Partition -->
<g id="node24" class="node">
<title>Partition</title>
<g id="a_node24"><a xlink:href="/Knowledge/partition.html" xlink:title="Partition" target="_parent">
<path fill="#273434" stroke="#b75867" d="M647.5,-425C647.5,-425 611.5,-425 611.5,-425 605.5,-425 599.5,-419 599.5,-413 599.5,-413 599.5,-401 599.5,-401 599.5,-395 605.5,-389 611.5,-389 611.5,-389 647.5,-389 647.5,-389 653.5,-389 659.5,-395 659.5,-401 659.5,-401 659.5,-413 659.5,-413 659.5,-419 653.5,-425 647.5,-425"/>
<text text-anchor="middle" x="629.5" y="-403.9" font-family="sans" font-size="12.00" fill="#c4c7c7">Partition</text>
</a>
</g>
</g>
<!-- Relation of Equivalence&#45;&gt;Partition -->
<g id="edge49" class="edge">
<title>Relation of Equivalence&#45;&gt;Partition</title>
<path fill="none" stroke="#b75867" d="M538.66,-418.52C555.8,-416.32 573.71,-414.02 589,-412.06"/>
<polygon fill="#b75867" stroke="#b75867" points="589.65,-415.51 599.12,-410.77 588.76,-408.57 589.65,-415.51"/>
</g>
<!-- Principle of division -->
<g id="node25" class="node">
<title>Principle of division</title>
<g id="a_node25"><a xlink:href="/Knowledge/principle_of_division.html" xlink:title="Principle of division" target="_parent">
<path fill="none" stroke="#b75867" d="M675.5,-462C675.5,-462 583.5,-462 583.5,-462 577.5,-462 571.5,-456 571.5,-450 571.5,-450 571.5,-438 571.5,-438 571.5,-432 577.5,-426 583.5,-426 583.5,-426 675.5,-426 675.5,-426 681.5,-426 687.5,-432 687.5,-438 687.5,-438 687.5,-450 687.5,-450 687.5,-456 681.5,-462 675.5,-462"/>
<text text-anchor="middle" x="629.5" y="-440.9" font-family="sans" font-size="12.00" fill="#c4c7c7">Principle of division</text>
</a>
</g>
</g>
<!-- Relation of Equivalence&#45;&gt;Principle of division -->
<g id="edge54" class="edge">
<title>Relation of Equivalence&#45;&gt;Principle of division</title>
<path fill="none" stroke="#ffffff" d="M548.84,-435.32C556.34,-436.14 563.86,-436.96 571.12,-437.75"/>
<polygon fill="#ffffff" stroke="#ffffff" points="548.98,-431.81 538.66,-434.21 548.22,-438.77 548.98,-431.81"/>
</g>
</g>
</svg>
