<?xml version="1.0" encoding="UTF-8" standalone="no"?>
<!DOCTYPE svg PUBLIC "-//W3C//DTD SVG 1.1//EN"
 "http://www.w3.org/Graphics/SVG/1.1/DTD/svg11.dtd">
<!-- Generated by graphviz version 2.46.1 (0)
 -->
<!-- Title: The Lagrange Interpolation Polynomial of a Polynomial is itself Pages: 1 -->
<svg width="742pt" height="229pt"
 viewBox="0.00 0.00 742.00 229.00" xmlns="http://www.w3.org/2000/svg" xmlns:xlink="http://www.w3.org/1999/xlink">
<g id="graph0" class="graph" transform="scale(1 1) rotate(0) translate(4 225)">
<title>The Lagrange Interpolation Polynomial of a Polynomial is itself</title>
<polygon fill="#132020" stroke="transparent" points="-4,4 -4,-225 738,-225 738,4 -4,4"/>
<!-- The Lagrange Interpolation Polynomial of a Polynomial is itself -->
<g id="node1" class="node">
<title>The Lagrange Interpolation Polynomial of a Polynomial is itself</title>
<g id="a_node1"><a xlink:href="/Knowledge/the_lagrange_interpolation_polynomial_of_a_polynomial_is_itself.html" xlink:title="The Lagrange Interpolation Polynomial of a Polynomial is itself" target="_parent">
<path fill="#273434" stroke="#b75867" d="M319,-198C319,-198 12,-198 12,-198 6,-198 0,-192 0,-186 0,-186 0,-174 0,-174 0,-168 6,-162 12,-162 12,-162 319,-162 319,-162 325,-162 331,-168 331,-174 331,-174 331,-186 331,-186 331,-192 325,-198 319,-198"/>
<text text-anchor="middle" x="165.5" y="-176.9" font-family="sans" font-size="12.00" fill="#c4c7c7">The Lagrange Interpolation Polynomial of a Polynomial is itself</text>
</a>
</g>
</g>
<!-- Lagrange Interpolation Problem -->
<g id="node2" class="node">
<title>Lagrange Interpolation Problem</title>
<g id="a_node2"><a xlink:href="/Knowledge/lagrange_interpolation_problem.html" xlink:title="Lagrange Interpolation Problem" target="_parent">
<path fill="#273434" stroke="#b75867" d="M504,-184C504,-184 351,-184 351,-184 345,-184 339,-178 339,-172 339,-172 339,-160 339,-160 339,-154 345,-148 351,-148 351,-148 504,-148 504,-148 510,-148 516,-154 516,-160 516,-160 516,-172 516,-172 516,-178 510,-184 504,-184"/>
<text text-anchor="middle" x="427.5" y="-162.9" font-family="sans" font-size="12.00" fill="#c4c7c7">Lagrange Interpolation Problem</text>
</a>
</g>
</g>
<!-- The Lagrange Interpolation Polynomial of a Polynomial is itself&#45;&gt;Lagrange Interpolation Problem -->
<g id="edge1" class="edge">
<title>The Lagrange Interpolation Polynomial of a Polynomial is itself&#45;&gt;Lagrange Interpolation Problem</title>
<path fill="none" stroke="#b75867" d="M331.16,-171.13C331.33,-171.12 331.49,-171.12 331.65,-171.11"/>
<polygon fill="#b75867" stroke="#b75867" points="329.16,-174.75 338.96,-170.71 328.78,-167.76 329.16,-174.75"/>
</g>
<!-- Lagrange Interpolation Polynomial -->
<g id="node3" class="node">
<title>Lagrange Interpolation Polynomial</title>
<g id="a_node3"><a xlink:href="/Knowledge/lagrange_interpolation_polynomial.html" xlink:title="Lagrange Interpolation Polynomial" target="_parent">
<path fill="#273434" stroke="#b75867" d="M712.5,-221C712.5,-221 545.5,-221 545.5,-221 539.5,-221 533.5,-215 533.5,-209 533.5,-209 533.5,-197 533.5,-197 533.5,-191 539.5,-185 545.5,-185 545.5,-185 712.5,-185 712.5,-185 718.5,-185 724.5,-191 724.5,-197 724.5,-197 724.5,-209 724.5,-209 724.5,-215 718.5,-221 712.5,-221"/>
<text text-anchor="middle" x="629" y="-199.9" font-family="sans" font-size="12.00" fill="#c4c7c7">Lagrange Interpolation Polynomial</text>
</a>
</g>
</g>
<!-- The Lagrange Interpolation Polynomial of a Polynomial is itself&#45;&gt;Lagrange Interpolation Polynomial -->
<g id="edge2" class="edge">
<title>The Lagrange Interpolation Polynomial of a Polynomial is itself&#45;&gt;Lagrange Interpolation Polynomial</title>
<path fill="none" stroke="#b75867" d="M331.16,-188.21C395.14,-191.39 466.52,-194.95 523.25,-197.78"/>
<polygon fill="#b75867" stroke="#b75867" points="523.14,-201.28 533.31,-198.28 523.49,-194.29 523.14,-201.28"/>
</g>
<!-- Lagrange Interpolation Problem&#45;&gt;The Lagrange Interpolation Polynomial of a Polynomial is itself -->
<g id="edge9" class="edge">
<title>Lagrange Interpolation Problem&#45;&gt;The Lagrange Interpolation Polynomial of a Polynomial is itself</title>
<path fill="none" stroke="#ffffff" d="M331.65,-171.83C331.49,-171.84 331.33,-171.85 331.16,-171.86"/>
<polygon fill="#ffffff" stroke="#ffffff" points="329.17,-175.48 338.96,-171.43 328.78,-168.49 329.17,-175.48"/>
</g>
<!-- Lagrange Interpolation Problem&#45;&gt;Lagrange Interpolation Polynomial -->
<g id="edge8" class="edge">
<title>Lagrange Interpolation Problem&#45;&gt;Lagrange Interpolation Polynomial</title>
<path fill="none" stroke="#ffffff" d="M526.03,-184.09C528.48,-184.54 530.92,-185 533.37,-185.45"/>
<polygon fill="#ffffff" stroke="#ffffff" points="526.47,-180.61 516,-182.23 525.2,-187.49 526.47,-180.61"/>
</g>
<!-- Kronecker Delta -->
<g id="node4" class="node">
<title>Kronecker Delta</title>
<g id="a_node4"><a xlink:href="/Knowledge/kronecker_delta.html" xlink:title="Kronecker Delta" target="_parent">
<path fill="#273434" stroke="#b75867" d="M665.5,-184C665.5,-184 592.5,-184 592.5,-184 586.5,-184 580.5,-178 580.5,-172 580.5,-172 580.5,-160 580.5,-160 580.5,-154 586.5,-148 592.5,-148 592.5,-148 665.5,-148 665.5,-148 671.5,-148 677.5,-154 677.5,-160 677.5,-160 677.5,-172 677.5,-172 677.5,-178 671.5,-184 665.5,-184"/>
<text text-anchor="middle" x="629" y="-162.9" font-family="sans" font-size="12.00" fill="#c4c7c7">Kronecker Delta</text>
</a>
</g>
</g>
<!-- Lagrange Interpolation Problem&#45;&gt;Kronecker Delta -->
<g id="edge3" class="edge">
<title>Lagrange Interpolation Problem&#45;&gt;Kronecker Delta</title>
<path fill="none" stroke="#b75867" d="M516,-166C534.3,-166 553.15,-166 570.05,-166"/>
<polygon fill="#b75867" stroke="#b75867" points="570.29,-169.5 580.29,-166 570.29,-162.5 570.29,-169.5"/>
</g>
<!-- Formula of Lagrange for Interpolation -->
<g id="node5" class="node">
<title>Formula of Lagrange for Interpolation</title>
<g id="a_node5"><a xlink:href="/Knowledge/formula_of_lagrange_for_interpolation.html" xlink:title="Formula of Lagrange for Interpolation" target="_parent">
<path fill="#273434" stroke="#b75867" d="M720.5,-147C720.5,-147 537.5,-147 537.5,-147 531.5,-147 525.5,-141 525.5,-135 525.5,-135 525.5,-123 525.5,-123 525.5,-117 531.5,-111 537.5,-111 537.5,-111 720.5,-111 720.5,-111 726.5,-111 732.5,-117 732.5,-123 732.5,-123 732.5,-135 732.5,-135 732.5,-141 726.5,-147 720.5,-147"/>
<text text-anchor="middle" x="629" y="-125.9" font-family="sans" font-size="12.00" fill="#c4c7c7">Formula of Lagrange for Interpolation</text>
</a>
</g>
</g>
<!-- Lagrange Interpolation Problem&#45;&gt;Formula of Lagrange for Interpolation -->
<g id="edge4" class="edge">
<title>Lagrange Interpolation Problem&#45;&gt;Formula of Lagrange for Interpolation</title>
<path fill="none" stroke="#b75867" d="M516,-149.77C517.54,-149.49 519.08,-149.2 520.63,-148.91"/>
<polygon fill="#b75867" stroke="#b75867" points="521.64,-152.29 530.84,-147.02 520.37,-145.4 521.64,-152.29"/>
</g>
<!-- Fundamental polynomials of Lagrange -->
<g id="node6" class="node">
<title>Fundamental polynomials of Lagrange</title>
<g id="a_node6"><a xlink:href="/Knowledge/fundamental_polynomials_of_lagrange.html" xlink:title="Fundamental polynomials of Lagrange" target="_parent">
<path fill="#273434" stroke="#b75867" d="M722,-110C722,-110 536,-110 536,-110 530,-110 524,-104 524,-98 524,-98 524,-86 524,-86 524,-80 530,-74 536,-74 536,-74 722,-74 722,-74 728,-74 734,-80 734,-86 734,-86 734,-98 734,-98 734,-104 728,-110 722,-110"/>
<text text-anchor="middle" x="629" y="-88.9" font-family="sans" font-size="12.00" fill="#c4c7c7">Fundamental polynomials of Lagrange</text>
</a>
</g>
</g>
<!-- Lagrange Interpolation Problem&#45;&gt;Fundamental polynomials of Lagrange -->
<g id="edge5" class="edge">
<title>Lagrange Interpolation Problem&#45;&gt;Fundamental polynomials of Lagrange</title>
<path fill="none" stroke="#b75867" d="M456.73,-147.79C475.21,-136.6 500.27,-122.76 524,-114 524.71,-113.74 525.43,-113.48 526.15,-113.22"/>
<polygon fill="#b75867" stroke="#b75867" points="527.35,-116.51 535.72,-110.02 525.13,-109.87 527.35,-116.51"/>
</g>
<!-- Fundamental Theorem of Algebra -->
<g id="node7" class="node">
<title>Fundamental Theorem of Algebra</title>
<g id="a_node7"><a xlink:href="/Knowledge/fundamental_theorem_of_algebra.html" xlink:title="Fundamental Theorem of Algebra" target="_parent">
<path fill="#273434" stroke="#b75867" d="M709.5,-73C709.5,-73 548.5,-73 548.5,-73 542.5,-73 536.5,-67 536.5,-61 536.5,-61 536.5,-49 536.5,-49 536.5,-43 542.5,-37 548.5,-37 548.5,-37 709.5,-37 709.5,-37 715.5,-37 721.5,-43 721.5,-49 721.5,-49 721.5,-61 721.5,-61 721.5,-67 715.5,-73 709.5,-73"/>
<text text-anchor="middle" x="629" y="-51.9" font-family="sans" font-size="12.00" fill="#c4c7c7">Fundamental Theorem of Algebra</text>
</a>
</g>
</g>
<!-- Lagrange Interpolation Problem&#45;&gt;Fundamental Theorem of Algebra -->
<g id="edge6" class="edge">
<title>Lagrange Interpolation Problem&#45;&gt;Fundamental Theorem of Algebra</title>
<path fill="none" stroke="#b75867" d="M442.62,-147.9C459.65,-127.4 490.22,-94.56 524,-77 524.98,-76.49 525.98,-75.99 526.98,-75.5"/>
<polygon fill="#b75867" stroke="#b75867" points="528.51,-78.65 536.25,-71.42 525.69,-72.25 528.51,-78.65"/>
</g>
<!-- Lagrange Interpolation -->
<g id="node8" class="node">
<title>Lagrange Interpolation</title>
<g id="a_node8"><a xlink:href="/Knowledge/lagrange_interpolation.html" xlink:title="Lagrange Interpolation" target="_parent">
<path fill="none" stroke="#b75867" d="M683,-36C683,-36 575,-36 575,-36 569,-36 563,-30 563,-24 563,-24 563,-12 563,-12 563,-6 569,0 575,0 575,0 683,0 683,0 689,0 695,-6 695,-12 695,-12 695,-24 695,-24 695,-30 689,-36 683,-36"/>
<text text-anchor="middle" x="629" y="-14.9" font-family="sans" font-size="12.00" fill="#c4c7c7">Lagrange Interpolation</text>
</a>
</g>
</g>
<!-- Lagrange Interpolation Problem&#45;&gt;Lagrange Interpolation -->
<g id="edge7" class="edge">
<title>Lagrange Interpolation Problem&#45;&gt;Lagrange Interpolation</title>
<path fill="none" stroke="#ffffff" d="M441.79,-138.44C457.34,-109.27 485.89,-64.18 524,-40 535.61,-32.63 549.27,-27.69 562.8,-24.39"/>
<polygon fill="#ffffff" stroke="#ffffff" points="438.5,-137.18 437.02,-147.67 444.72,-140.39 438.5,-137.18"/>
</g>
<!-- Lagrange Interpolation Polynomial&#45;&gt;The Lagrange Interpolation Polynomial of a Polynomial is itself -->
<g id="edge11" class="edge">
<title>Lagrange Interpolation Polynomial&#45;&gt;The Lagrange Interpolation Polynomial of a Polynomial is itself</title>
<path fill="none" stroke="#ffffff" d="M523.25,-198.42C466.52,-195.7 395.14,-192.17 331.16,-188.93"/>
<polygon fill="#ffffff" stroke="#ffffff" points="523.15,-201.92 533.31,-198.9 523.48,-194.93 523.15,-201.92"/>
</g>
<!-- Lagrange Interpolation Polynomial&#45;&gt;Lagrange Interpolation Problem -->
<g id="edge10" class="edge">
<title>Lagrange Interpolation Polynomial&#45;&gt;Lagrange Interpolation Problem</title>
<path fill="none" stroke="#b75867" d="M533.37,-186.2C530.92,-185.75 528.48,-185.29 526.03,-184.84"/>
<polygon fill="#b75867" stroke="#b75867" points="526.47,-181.36 516,-182.97 525.2,-188.24 526.47,-181.36"/>
</g>
</g>
</svg>
