<?xml version="1.0" encoding="UTF-8" standalone="no"?>
<!DOCTYPE svg PUBLIC "-//W3C//DTD SVG 1.1//EN"
 "http://www.w3.org/Graphics/SVG/1.1/DTD/svg11.dtd">
<!-- Generated by graphviz version 2.44.0 (0)
 -->
<!-- Title: Total function Pages: 1 -->
<svg width="394pt" height="599pt"
 viewBox="0.00 0.00 394.00 599.00" xmlns="http://www.w3.org/2000/svg" xmlns:xlink="http://www.w3.org/1999/xlink">
<g id="graph0" class="graph" transform="scale(1 1) rotate(0) translate(4 595)">
<title>Total function</title>
<polygon fill="#132020" stroke="transparent" points="-4,4 -4,-595 390,-595 390,4 -4,4"/>
<!-- Total function -->
<g id="node1" class="node">
<title>Total function</title>
<g id="a_node1"><a xlink:href="/Knowledge/Total function.html" xlink:title="Total function" target="_parent">
<path fill="#273434" stroke="#b75867" d="M83,-184C83,-184 12,-184 12,-184 6,-184 0,-178 0,-172 0,-172 0,-160 0,-160 0,-154 6,-148 12,-148 12,-148 83,-148 83,-148 89,-148 95,-154 95,-160 95,-160 95,-172 95,-172 95,-178 89,-184 83,-184"/>
<text text-anchor="middle" x="47.5" y="-162.9" font-family="sans" font-size="12.00" fill="#c4c7c7">Total function</text>
</a>
</g>
</g>
<!-- Relation -->
<g id="node2" class="node">
<title>Relation</title>
<g id="a_node2"><a xlink:href="/Knowledge/Relation.html" xlink:title="Relation" target="_parent">
<path fill="#273434" stroke="#b75867" d="M159,-295C159,-295 119,-295 119,-295 113,-295 107,-289 107,-283 107,-283 107,-271 107,-271 107,-265 113,-259 119,-259 119,-259 159,-259 159,-259 165,-259 171,-265 171,-271 171,-271 171,-283 171,-283 171,-289 165,-295 159,-295"/>
<text text-anchor="middle" x="139" y="-273.9" font-family="sans" font-size="12.00" fill="#c4c7c7">Relation</text>
</a>
</g>
</g>
<!-- Total function&#45;&gt;Relation -->
<g id="edge1" class="edge">
<title>Total function&#45;&gt;Relation</title>
<path fill="none" stroke="#b75867" d="M63.28,-184.33C77.85,-202.41 100.28,-230.22 116.76,-250.66"/>
<polygon fill="#b75867" stroke="#b75867" points="114.2,-253.06 123.2,-258.64 119.65,-248.66 114.2,-253.06"/>
</g>
<!-- Functions -->
<g id="node3" class="node">
<title>Functions</title>
<g id="a_node3"><a xlink:href="/Knowledge/Functions.html" xlink:title="Functions" target="_parent">
<path fill="none" stroke="#b75867" d="M163,-166C163,-166 115,-166 115,-166 109,-166 103,-160 103,-154 103,-154 103,-142 103,-142 103,-136 109,-130 115,-130 115,-130 163,-130 163,-130 169,-130 175,-136 175,-142 175,-142 175,-154 175,-154 175,-160 169,-166 163,-166"/>
<text text-anchor="middle" x="139" y="-144.9" font-family="sans" font-size="12.00" fill="#c4c7c7">Functions</text>
</a>
</g>
</g>
<!-- Total function&#45;&gt;Functions -->
<g id="edge2" class="edge">
<title>Total function&#45;&gt;Functions</title>
<path fill="none" stroke="#ffffff" d="M102.44,-155.15C102.6,-155.12 102.76,-155.09 102.92,-155.05"/>
<polygon fill="#ffffff" stroke="#ffffff" points="104.2,-151.23 95.08,-156.63 105.58,-158.09 104.2,-151.23"/>
</g>
<!-- Relation&#45;&gt;Total function -->
<g id="edge13" class="edge">
<title>Relation&#45;&gt;Total function</title>
<path fill="none" stroke="#ffffff" d="M116.47,-250.95C99.79,-230.42 77.15,-202.31 62.68,-184.15"/>
<polygon fill="#ffffff" stroke="#ffffff" points="113.96,-253.41 122.99,-258.96 119.39,-248.99 113.96,-253.41"/>
</g>
<!-- Descartes Product -->
<g id="node4" class="node">
<title>Descartes Product</title>
<g id="a_node4"><a xlink:href="/Knowledge/Descartes Product.html" xlink:title="Descartes Product" target="_parent">
<path fill="#273434" stroke="#b75867" d="M332,-591C332,-591 237,-591 237,-591 231,-591 225,-585 225,-579 225,-579 225,-567 225,-567 225,-561 231,-555 237,-555 237,-555 332,-555 332,-555 338,-555 344,-561 344,-567 344,-567 344,-579 344,-579 344,-585 338,-591 332,-591"/>
<text text-anchor="middle" x="284.5" y="-569.9" font-family="sans" font-size="12.00" fill="#c4c7c7">Descartes Product</text>
</a>
</g>
</g>
<!-- Relation&#45;&gt;Descartes Product -->
<g id="edge3" class="edge">
<title>Relation&#45;&gt;Descartes Product</title>
<path fill="none" stroke="#b75867" d="M140.27,-295.21C141.48,-350.32 148,-513.85 183,-551 191.6,-560.13 203.04,-565.91 215.13,-569.48"/>
<polygon fill="#b75867" stroke="#b75867" points="214.36,-572.9 224.91,-571.9 216.04,-566.1 214.36,-572.9"/>
</g>
<!-- Anti&#45;symmetric Relation -->
<g id="node5" class="node">
<title>Anti&#45;symmetric Relation</title>
<g id="a_node5"><a xlink:href="/Knowledge/Anti-symmetric Relation.html" xlink:title="Anti&#45;symmetric Relation" target="_parent">
<path fill="none" stroke="#b75867" d="M348.5,-554C348.5,-554 220.5,-554 220.5,-554 214.5,-554 208.5,-548 208.5,-542 208.5,-542 208.5,-530 208.5,-530 208.5,-524 214.5,-518 220.5,-518 220.5,-518 348.5,-518 348.5,-518 354.5,-518 360.5,-524 360.5,-530 360.5,-530 360.5,-542 360.5,-542 360.5,-548 354.5,-554 348.5,-554"/>
<text text-anchor="middle" x="284.5" y="-532.9" font-family="sans" font-size="12.00" fill="#c4c7c7">Anti&#45;symmetric Relation</text>
</a>
</g>
</g>
<!-- Relation&#45;&gt;Anti&#45;symmetric Relation -->
<g id="edge4" class="edge">
<title>Relation&#45;&gt;Anti&#45;symmetric Relation</title>
<path fill="none" stroke="#ffffff" d="M141.3,-305.2C144.47,-361.4 154.57,-484.52 183,-514 190.01,-521.26 198.81,-526.39 208.29,-529.97"/>
<polygon fill="#ffffff" stroke="#ffffff" points="144.79,-305.01 140.77,-295.21 137.8,-305.38 144.79,-305.01"/>
</g>
<!-- Chain -->
<g id="node6" class="node">
<title>Chain</title>
<g id="a_node6"><a xlink:href="/Knowledge/Chain.html" xlink:title="Chain" target="_parent">
<path fill="none" stroke="#b75867" d="M299.5,-517C299.5,-517 269.5,-517 269.5,-517 263.5,-517 257.5,-511 257.5,-505 257.5,-505 257.5,-493 257.5,-493 257.5,-487 263.5,-481 269.5,-481 269.5,-481 299.5,-481 299.5,-481 305.5,-481 311.5,-487 311.5,-493 311.5,-493 311.5,-505 311.5,-505 311.5,-511 305.5,-517 299.5,-517"/>
<text text-anchor="middle" x="284.5" y="-495.9" font-family="sans" font-size="12.00" fill="#c4c7c7">Chain</text>
</a>
</g>
</g>
<!-- Relation&#45;&gt;Chain -->
<g id="edge5" class="edge">
<title>Relation&#45;&gt;Chain</title>
<path fill="none" stroke="#ffffff" d="M142.35,-305.22C147.03,-354.45 159.18,-453.09 183,-477 202.29,-496.36 234.42,-500.44 257.15,-500.58"/>
<polygon fill="#ffffff" stroke="#ffffff" points="145.83,-304.87 141.44,-295.23 138.86,-305.5 145.83,-304.87"/>
</g>
<!-- Reflexive Closure -->
<g id="node7" class="node">
<title>Reflexive Closure</title>
<g id="a_node7"><a xlink:href="/Knowledge/Reflexive Closure.html" xlink:title="Reflexive Closure" target="_parent">
<path fill="none" stroke="#b75867" d="M329,-480C329,-480 240,-480 240,-480 234,-480 228,-474 228,-468 228,-468 228,-456 228,-456 228,-450 234,-444 240,-444 240,-444 329,-444 329,-444 335,-444 341,-450 341,-456 341,-456 341,-468 341,-468 341,-474 335,-480 329,-480"/>
<text text-anchor="middle" x="284.5" y="-458.9" font-family="sans" font-size="12.00" fill="#c4c7c7">Reflexive Closure</text>
</a>
</g>
</g>
<!-- Relation&#45;&gt;Reflexive Closure -->
<g id="edge6" class="edge">
<title>Relation&#45;&gt;Reflexive Closure</title>
<path fill="none" stroke="#ffffff" d="M139.09,-305.61C139.58,-342.12 146.24,-404.76 183,-440 195.06,-451.56 211.71,-457.6 228,-460.63"/>
<polygon fill="#ffffff" stroke="#ffffff" points="142.59,-305.18 139.11,-295.18 135.59,-305.17 142.59,-305.18"/>
</g>
<!-- Symmetric Closure -->
<g id="node8" class="node">
<title>Symmetric Closure</title>
<g id="a_node8"><a xlink:href="/Knowledge/Symmetric Closure.html" xlink:title="Symmetric Closure" target="_parent">
<path fill="none" stroke="#b75867" d="M334,-443C334,-443 235,-443 235,-443 229,-443 223,-437 223,-431 223,-431 223,-419 223,-419 223,-413 229,-407 235,-407 235,-407 334,-407 334,-407 340,-407 346,-413 346,-419 346,-419 346,-431 346,-431 346,-437 340,-443 334,-443"/>
<text text-anchor="middle" x="284.5" y="-421.9" font-family="sans" font-size="12.00" fill="#c4c7c7">Symmetric Closure</text>
</a>
</g>
</g>
<!-- Relation&#45;&gt;Symmetric Closure -->
<g id="edge7" class="edge">
<title>Relation&#45;&gt;Symmetric Closure</title>
<path fill="none" stroke="#ffffff" d="M141.82,-305.26C145.23,-334.09 155.02,-378.02 183,-403 194.06,-412.87 208.51,-418.66 222.99,-421.96"/>
<polygon fill="#ffffff" stroke="#ffffff" points="145.27,-304.63 140.8,-295.02 138.31,-305.32 145.27,-304.63"/>
</g>
<!-- Relation of Equivalence -->
<g id="node9" class="node">
<title>Relation of Equivalence</title>
<g id="a_node9"><a xlink:href="/Knowledge/Relation of Equivalence.html" xlink:title="Relation of Equivalence" target="_parent">
<path fill="none" stroke="#b75867" d="M347,-406C347,-406 222,-406 222,-406 216,-406 210,-400 210,-394 210,-394 210,-382 210,-382 210,-376 216,-370 222,-370 222,-370 347,-370 347,-370 353,-370 359,-376 359,-382 359,-382 359,-394 359,-394 359,-400 353,-406 347,-406"/>
<text text-anchor="middle" x="284.5" y="-384.9" font-family="sans" font-size="12.00" fill="#c4c7c7">Relation of Equivalence</text>
</a>
</g>
</g>
<!-- Relation&#45;&gt;Relation of Equivalence -->
<g id="edge8" class="edge">
<title>Relation&#45;&gt;Relation of Equivalence</title>
<path fill="none" stroke="#ffffff" d="M146.58,-305.16C152.7,-325.1 163.84,-350.88 183,-366 190.92,-372.25 200.24,-376.82 209.96,-380.13"/>
<polygon fill="#ffffff" stroke="#ffffff" points="149.9,-304.03 143.82,-295.35 143.16,-305.93 149.9,-304.03"/>
</g>
<!-- Symmetric Relation -->
<g id="node10" class="node">
<title>Symmetric Relation</title>
<g id="a_node10"><a xlink:href="/Knowledge/Symmetric Relation.html" xlink:title="Symmetric Relation" target="_parent">
<path fill="none" stroke="#b75867" d="M336.5,-369C336.5,-369 232.5,-369 232.5,-369 226.5,-369 220.5,-363 220.5,-357 220.5,-357 220.5,-345 220.5,-345 220.5,-339 226.5,-333 232.5,-333 232.5,-333 336.5,-333 336.5,-333 342.5,-333 348.5,-339 348.5,-345 348.5,-345 348.5,-357 348.5,-357 348.5,-363 342.5,-369 336.5,-369"/>
<text text-anchor="middle" x="284.5" y="-347.9" font-family="sans" font-size="12.00" fill="#c4c7c7">Symmetric Relation</text>
</a>
</g>
</g>
<!-- Relation&#45;&gt;Symmetric Relation -->
<g id="edge9" class="edge">
<title>Relation&#45;&gt;Symmetric Relation</title>
<path fill="none" stroke="#ffffff" d="M156.45,-303.48C163.53,-312.86 172.59,-322.65 183,-329 194.28,-335.88 207.44,-340.62 220.45,-343.89"/>
<polygon fill="#ffffff" stroke="#ffffff" points="159.15,-301.24 150.52,-295.1 153.44,-305.28 159.15,-301.24"/>
</g>
<!-- Partial function -->
<g id="node11" class="node">
<title>Partial function</title>
<g id="a_node11"><a xlink:href="/Knowledge/Partial function.html" xlink:title="Partial function" target="_parent">
<path fill="none" stroke="#b75867" d="M324,-73C324,-73 245,-73 245,-73 239,-73 233,-67 233,-61 233,-61 233,-49 233,-49 233,-43 239,-37 245,-37 245,-37 324,-37 324,-37 330,-37 336,-43 336,-49 336,-49 336,-61 336,-61 336,-67 330,-73 324,-73"/>
<text text-anchor="middle" x="284.5" y="-51.9" font-family="sans" font-size="12.00" fill="#c4c7c7">Partial function</text>
</a>
</g>
</g>
<!-- Relation&#45;&gt;Partial function -->
<g id="edge10" class="edge">
<title>Relation&#45;&gt;Partial function</title>
<path fill="none" stroke="#ffffff" d="M150.8,-248.97C158.8,-227.01 169.27,-195.5 175,-167 178.96,-147.31 169.73,-92.07 183,-77 195.39,-62.92 214.53,-56.69 232.79,-54.24"/>
<polygon fill="#ffffff" stroke="#ffffff" points="147.41,-248.05 147.21,-258.64 153.97,-250.49 147.41,-248.05"/>
</g>
<!-- Relations -->
<g id="node12" class="node">
<title>Relations</title>
<g id="a_node12"><a xlink:href="/Knowledge/Relations.html" xlink:title="Relations" target="_parent">
<path fill="none" stroke="#b75867" d="M307,-332C307,-332 262,-332 262,-332 256,-332 250,-326 250,-320 250,-320 250,-308 250,-308 250,-302 256,-296 262,-296 262,-296 307,-296 307,-296 313,-296 319,-302 319,-308 319,-308 319,-320 319,-320 319,-326 313,-332 307,-332"/>
<text text-anchor="middle" x="284.5" y="-310.9" font-family="sans" font-size="12.00" fill="#c4c7c7">Relations</text>
</a>
</g>
</g>
<!-- Relation&#45;&gt;Relations -->
<g id="edge11" class="edge">
<title>Relation&#45;&gt;Relations</title>
<path fill="none" stroke="#ffffff" d="M181.21,-291.49C181.81,-291.66 182.41,-291.83 183,-292 205,-298.22 230.12,-303.72 249.75,-307.67"/>
<polygon fill="#ffffff" stroke="#ffffff" points="181.92,-288.04 171.33,-288.42 179.84,-294.73 181.92,-288.04"/>
</g>
<!-- Linear order -->
<g id="node13" class="node">
<title>Linear order</title>
<g id="a_node13"><a xlink:href="/Knowledge/Linear order.html" xlink:title="Linear order" target="_parent">
<path fill="none" stroke="#b75867" d="M315.5,-295C315.5,-295 253.5,-295 253.5,-295 247.5,-295 241.5,-289 241.5,-283 241.5,-283 241.5,-271 241.5,-271 241.5,-265 247.5,-259 253.5,-259 253.5,-259 315.5,-259 315.5,-259 321.5,-259 327.5,-265 327.5,-271 327.5,-271 327.5,-283 327.5,-283 327.5,-289 321.5,-295 315.5,-295"/>
<text text-anchor="middle" x="284.5" y="-273.9" font-family="sans" font-size="12.00" fill="#c4c7c7">Linear order</text>
</a>
</g>
</g>
<!-- Relation&#45;&gt;Linear order -->
<g id="edge12" class="edge">
<title>Relation&#45;&gt;Linear order</title>
<path fill="none" stroke="#ffffff" d="M181.2,-277C200.03,-277 222.31,-277 241.26,-277"/>
<polygon fill="#ffffff" stroke="#ffffff" points="181.14,-273.5 171.14,-277 181.14,-280.5 181.14,-273.5"/>
</g>
<!-- Transitive Relation -->
<g id="node14" class="node">
<title>Transitive Relation</title>
<g id="a_node14"><a xlink:href="/Knowledge/Transitive Relation.html" xlink:title="Transitive Relation" target="_parent">
<path fill="none" stroke="#b75867" d="M333,-258C333,-258 236,-258 236,-258 230,-258 224,-252 224,-246 224,-246 224,-234 224,-234 224,-228 230,-222 236,-222 236,-222 333,-222 333,-222 339,-222 345,-228 345,-234 345,-234 345,-246 345,-246 345,-252 339,-258 333,-258"/>
<text text-anchor="middle" x="284.5" y="-236.9" font-family="sans" font-size="12.00" fill="#c4c7c7">Transitive Relation</text>
</a>
</g>
</g>
<!-- Relation&#45;&gt;Transitive Relation -->
<g id="edge14" class="edge">
<title>Relation&#45;&gt;Transitive Relation</title>
<path fill="none" stroke="#ffffff" d="M181.21,-262.51C181.81,-262.34 182.41,-262.17 183,-262 196.15,-258.28 210.41,-254.82 223.95,-251.8"/>
<polygon fill="#ffffff" stroke="#ffffff" points="179.84,-259.27 171.33,-265.58 181.92,-265.96 179.84,-259.27"/>
</g>
<!-- Reflexive Relation -->
<g id="node15" class="node">
<title>Reflexive Relation</title>
<g id="a_node15"><a xlink:href="/Knowledge/Reflexive Relation.html" xlink:title="Reflexive Relation" target="_parent">
<path fill="none" stroke="#b75867" d="M331,-221C331,-221 238,-221 238,-221 232,-221 226,-215 226,-209 226,-209 226,-197 226,-197 226,-191 232,-185 238,-185 238,-185 331,-185 331,-185 337,-185 343,-191 343,-197 343,-197 343,-209 343,-209 343,-215 337,-221 331,-221"/>
<text text-anchor="middle" x="284.5" y="-199.9" font-family="sans" font-size="12.00" fill="#c4c7c7">Reflexive Relation</text>
</a>
</g>
</g>
<!-- Relation&#45;&gt;Reflexive Relation -->
<g id="edge15" class="edge">
<title>Relation&#45;&gt;Reflexive Relation</title>
<path fill="none" stroke="#ffffff" d="M156.45,-250.52C163.53,-241.14 172.59,-231.35 183,-225 195.89,-217.14 211.21,-212.07 225.97,-208.81"/>
<polygon fill="#ffffff" stroke="#ffffff" points="153.44,-248.72 150.52,-258.9 159.15,-252.76 153.44,-248.72"/>
</g>
<!-- Anti&#45;reflexive relation -->
<g id="node16" class="node">
<title>Anti&#45;reflexive relation</title>
<g id="a_node16"><a xlink:href="/Knowledge/Anti-reflexive relation.html" xlink:title="Anti&#45;reflexive relation" target="_parent">
<path fill="none" stroke="#b75867" d="M341.5,-184C341.5,-184 227.5,-184 227.5,-184 221.5,-184 215.5,-178 215.5,-172 215.5,-172 215.5,-160 215.5,-160 215.5,-154 221.5,-148 227.5,-148 227.5,-148 341.5,-148 341.5,-148 347.5,-148 353.5,-154 353.5,-160 353.5,-160 353.5,-172 353.5,-172 353.5,-178 347.5,-184 341.5,-184"/>
<text text-anchor="middle" x="284.5" y="-162.9" font-family="sans" font-size="12.00" fill="#c4c7c7">Anti&#45;reflexive relation</text>
</a>
</g>
</g>
<!-- Relation&#45;&gt;Anti&#45;reflexive relation -->
<g id="edge16" class="edge">
<title>Relation&#45;&gt;Anti&#45;reflexive relation</title>
<path fill="none" stroke="#ffffff" d="M146.58,-248.84C152.7,-228.9 163.84,-203.12 183,-188 192.39,-180.59 203.75,-175.55 215.41,-172.15"/>
<polygon fill="#ffffff" stroke="#ffffff" points="143.16,-248.07 143.82,-258.65 149.9,-249.97 143.16,-248.07"/>
</g>
<!-- Strongly Anti&#45;symmetric Relation -->
<g id="node17" class="node">
<title>Strongly Anti&#45;symmetric Relation</title>
<g id="a_node17"><a xlink:href="/Knowledge/Strongly Anti-symmetric Relation.html" xlink:title="Strongly Anti&#45;symmetric Relation" target="_parent">
<path fill="none" stroke="#b75867" d="M374,-147C374,-147 195,-147 195,-147 189,-147 183,-141 183,-135 183,-135 183,-123 183,-123 183,-117 189,-111 195,-111 195,-111 374,-111 374,-111 380,-111 386,-117 386,-123 386,-123 386,-135 386,-135 386,-141 380,-147 374,-147"/>
<text text-anchor="middle" x="284.5" y="-125.9" font-family="sans" font-size="12.00" fill="#c4c7c7">Strongly Anti&#45;symmetric Relation</text>
</a>
</g>
</g>
<!-- Relation&#45;&gt;Strongly Anti&#45;symmetric Relation -->
<g id="edge17" class="edge">
<title>Relation&#45;&gt;Strongly Anti&#45;symmetric Relation</title>
<path fill="none" stroke="#ffffff" d="M148.84,-248.84C160.28,-212.75 179.2,-154.39 183,-151 184.47,-149.69 185.99,-148.46 187.57,-147.29"/>
<polygon fill="#ffffff" stroke="#ffffff" points="145.37,-248.21 145.69,-258.8 152.04,-250.32 145.37,-248.21"/>
</g>
<!-- Partial order -->
<g id="node18" class="node">
<title>Partial order</title>
<g id="a_node18"><a xlink:href="/Knowledge/Partial order.html" xlink:title="Partial order" target="_parent">
<path fill="none" stroke="#b75867" d="M315.5,-110C315.5,-110 253.5,-110 253.5,-110 247.5,-110 241.5,-104 241.5,-98 241.5,-98 241.5,-86 241.5,-86 241.5,-80 247.5,-74 253.5,-74 253.5,-74 315.5,-74 315.5,-74 321.5,-74 327.5,-80 327.5,-86 327.5,-86 327.5,-98 327.5,-98 327.5,-104 321.5,-110 315.5,-110"/>
<text text-anchor="middle" x="284.5" y="-88.9" font-family="sans" font-size="12.00" fill="#c4c7c7">Partial order</text>
</a>
</g>
</g>
<!-- Relation&#45;&gt;Partial order -->
<g id="edge18" class="edge">
<title>Relation&#45;&gt;Partial order</title>
<path fill="none" stroke="#ffffff" d="M150.17,-249.26C157.92,-227.22 168.36,-195.48 175,-167 177.7,-155.4 174.86,-122.69 183,-114 197.77,-98.22 221.03,-92.45 241.46,-90.74"/>
<polygon fill="#ffffff" stroke="#ffffff" points="146.78,-248.36 146.72,-258.95 153.37,-250.71 146.78,-248.36"/>
</g>
<!-- Functions&#45;&gt;Total function -->
<g id="edge19" class="edge">
<title>Functions&#45;&gt;Total function</title>
<path fill="none" stroke="#b75867" d="M102.92,-155.79C102.76,-155.82 102.6,-155.85 102.44,-155.89"/>
<polygon fill="#b75867" stroke="#b75867" points="104.19,-151.96 95.08,-157.38 105.58,-158.82 104.19,-151.96"/>
</g>
<!-- Functions&#45;&gt;Partial function -->
<g id="edge20" class="edge">
<title>Functions&#45;&gt;Partial function</title>
<path fill="none" stroke="#b75867" d="M146.19,-129.95C152.75,-113.58 164.71,-90.08 183,-77 194.63,-68.68 208.82,-63.41 222.82,-60.1"/>
<polygon fill="#b75867" stroke="#b75867" points="223.86,-63.46 232.95,-58.02 222.45,-56.61 223.86,-63.46"/>
</g>
<!-- Discrete Structures -->
<g id="node19" class="node">
<title>Discrete Structures</title>
<g id="a_node19"><a xlink:href="/Knowledge/Discrete Structures.html" xlink:title="Discrete Structures" target="_parent">
<path fill="none" stroke="#b75867" d="M333.5,-36C333.5,-36 235.5,-36 235.5,-36 229.5,-36 223.5,-30 223.5,-24 223.5,-24 223.5,-12 223.5,-12 223.5,-6 229.5,0 235.5,0 235.5,0 333.5,0 333.5,0 339.5,0 345.5,-6 345.5,-12 345.5,-12 345.5,-24 345.5,-24 345.5,-30 339.5,-36 333.5,-36"/>
<text text-anchor="middle" x="284.5" y="-14.9" font-family="sans" font-size="12.00" fill="#c4c7c7">Discrete Structures</text>
</a>
</g>
</g>
<!-- Functions&#45;&gt;Discrete Structures -->
<g id="edge21" class="edge">
<title>Functions&#45;&gt;Discrete Structures</title>
<path fill="none" stroke="#ffffff" d="M143.75,-119.8C148.56,-95.11 159.3,-60.11 183,-40 194.3,-30.41 208.84,-24.72 223.33,-21.42"/>
<polygon fill="#ffffff" stroke="#ffffff" points="140.3,-119.23 142.04,-129.68 147.2,-120.43 140.3,-119.23"/>
</g>
</g>
</svg>
