<?xml version="1.0" encoding="UTF-8" standalone="no"?>
<!DOCTYPE svg PUBLIC "-//W3C//DTD SVG 1.1//EN"
 "http://www.w3.org/Graphics/SVG/1.1/DTD/svg11.dtd">
<!-- Generated by graphviz version 2.46.1 (0)
 -->
<!-- Title: Transitive Relation Pages: 1 -->
<svg width="871pt" height="495pt"
 viewBox="0.00 0.00 871.00 495.44" xmlns="http://www.w3.org/2000/svg" xmlns:xlink="http://www.w3.org/1999/xlink">
<g id="graph0" class="graph" transform="scale(1 1) rotate(0) translate(4 491.44)">
<title>Transitive Relation</title>
<polygon fill="#132020" stroke="transparent" points="-4,4 -4,-491.44 867,-491.44 867,4 -4,4"/>
<!-- Transitive Relation -->
<g id="node1" class="node">
<title>Transitive Relation</title>
<g id="a_node1"><a xlink:href="/Knowledge/transitive_relation.html" xlink:title="Transitive Relation" target="_parent">
<path fill="#273434" stroke="#b75867" d="M98,-299C98,-299 12,-299 12,-299 6,-299 0,-293 0,-287 0,-287 0,-275 0,-275 0,-269 6,-263 12,-263 12,-263 98,-263 98,-263 104,-263 110,-269 110,-275 110,-275 110,-287 110,-287 110,-293 104,-299 98,-299"/>
<text text-anchor="middle" x="55" y="-277.9" font-family="sans" font-size="12.00" fill="#c4c7c7">Transitive Relation</text>
</a>
</g>
</g>
<!-- Relation -->
<g id="node2" class="node">
<title>Relation</title>
<g id="a_node2"><a xlink:href="/Knowledge/relation.html" xlink:title="Relation" target="_parent">
<path fill="#273434" stroke="#b75867" d="M165,-230C165,-230 130,-230 130,-230 124,-230 118,-224 118,-218 118,-218 118,-206 118,-206 118,-200 124,-194 130,-194 130,-194 165,-194 165,-194 171,-194 177,-200 177,-206 177,-206 177,-218 177,-218 177,-224 171,-230 165,-230"/>
<text text-anchor="middle" x="147.5" y="-208.9" font-family="sans" font-size="12.00" fill="#c4c7c7">Relation</text>
</a>
</g>
</g>
<!-- Transitive Relation&#45;&gt;Relation -->
<g id="edge1" class="edge">
<title>Transitive Relation&#45;&gt;Relation</title>
<path fill="none" stroke="#b75867" d="M79.78,-262.87C90.48,-254.71 103.27,-244.96 114.78,-236.19"/>
<polygon fill="#b75867" stroke="#b75867" points="117.05,-238.85 122.88,-230.01 112.81,-233.29 117.05,-238.85"/>
</g>
<!-- Partial order -->
<g id="node3" class="node">
<title>Partial order</title>
<g id="a_node3"><a xlink:href="/Knowledge/partial_order.html" xlink:title="Partial order" target="_parent">
<path fill="none" stroke="#b75867" d="M266.5,-319C266.5,-319 211.5,-319 211.5,-319 205.5,-319 199.5,-313 199.5,-307 199.5,-307 199.5,-295 199.5,-295 199.5,-289 205.5,-283 211.5,-283 211.5,-283 266.5,-283 266.5,-283 272.5,-283 278.5,-289 278.5,-295 278.5,-295 278.5,-307 278.5,-307 278.5,-313 272.5,-319 266.5,-319"/>
<text text-anchor="middle" x="239" y="-297.9" font-family="sans" font-size="12.00" fill="#c4c7c7">Partial order</text>
</a>
</g>
</g>
<!-- Transitive Relation&#45;&gt;Partial order -->
<g id="edge2" class="edge">
<title>Transitive Relation&#45;&gt;Partial order</title>
<path fill="none" stroke="#ffffff" d="M120.08,-288.04C146.55,-290.95 176.37,-294.23 199.4,-296.76"/>
<polygon fill="#ffffff" stroke="#ffffff" points="120.44,-284.56 110.11,-286.95 119.67,-291.52 120.44,-284.56"/>
</g>
<!-- Linear order -->
<g id="node4" class="node">
<title>Linear order</title>
<g id="a_node4"><a xlink:href="/Knowledge/linear_order.html" xlink:title="Linear order" target="_parent">
<path fill="none" stroke="#b75867" d="M415.5,-299C415.5,-299 360.5,-299 360.5,-299 354.5,-299 348.5,-293 348.5,-287 348.5,-287 348.5,-275 348.5,-275 348.5,-269 354.5,-263 360.5,-263 360.5,-263 415.5,-263 415.5,-263 421.5,-263 427.5,-269 427.5,-275 427.5,-275 427.5,-287 427.5,-287 427.5,-293 421.5,-299 415.5,-299"/>
<text text-anchor="middle" x="388" y="-277.9" font-family="sans" font-size="12.00" fill="#c4c7c7">Linear order</text>
</a>
</g>
</g>
<!-- Transitive Relation&#45;&gt;Linear order -->
<g id="edge3" class="edge">
<title>Transitive Relation&#45;&gt;Linear order</title>
<path fill="none" stroke="#ffffff" d="M120.41,-281C188.05,-281 292.23,-281 348.22,-281"/>
<polygon fill="#ffffff" stroke="#ffffff" points="120.29,-277.5 110.29,-281 120.29,-284.5 120.29,-277.5"/>
</g>
<!-- Transitive Closure -->
<g id="node5" class="node">
<title>Transitive Closure</title>
<g id="a_node5"><a xlink:href="/Knowledge/transitive_closure.html" xlink:title="Transitive Closure" target="_parent">
<path fill="none" stroke="#b75867" d="M686.5,-288C686.5,-288 604.5,-288 604.5,-288 598.5,-288 592.5,-282 592.5,-276 592.5,-276 592.5,-264 592.5,-264 592.5,-258 598.5,-252 604.5,-252 604.5,-252 686.5,-252 686.5,-252 692.5,-252 698.5,-258 698.5,-264 698.5,-264 698.5,-276 698.5,-276 698.5,-282 692.5,-288 686.5,-288"/>
<text text-anchor="middle" x="645.5" y="-266.9" font-family="sans" font-size="12.00" fill="#c4c7c7">Transitive Closure</text>
</a>
</g>
</g>
<!-- Transitive Relation&#45;&gt;Transitive Closure -->
<g id="edge4" class="edge">
<title>Transitive Relation&#45;&gt;Transitive Closure</title>
<path fill="none" stroke="#ffffff" d="M67.39,-308.59C90.91,-360.61 150.11,-468 238,-468 238,-468 238,-468 389,-468 459.26,-468 496.95,-512.3 547,-463 560.55,-449.65 542.92,-306.69 555,-292 564.25,-280.75 578.23,-274.72 592.41,-271.62"/>
<polygon fill="#ffffff" stroke="#ffffff" points="70.52,-307.02 63.29,-299.27 64.11,-309.83 70.52,-307.02"/>
</g>
<!-- Relations -->
<g id="node6" class="node">
<title>Relations</title>
<g id="a_node6"><a xlink:href="/Knowledge/relations.html" xlink:title="Relations" target="_parent">
<path fill="none" stroke="#b75867" d="M535,-248C535,-248 495,-248 495,-248 489,-248 483,-242 483,-236 483,-236 483,-224 483,-224 483,-218 489,-212 495,-212 495,-212 535,-212 535,-212 541,-212 547,-218 547,-224 547,-224 547,-236 547,-236 547,-242 541,-248 535,-248"/>
<text text-anchor="middle" x="515" y="-226.9" font-family="sans" font-size="12.00" fill="#c4c7c7">Relations</text>
</a>
</g>
</g>
<!-- Transitive Relation&#45;&gt;Relations -->
<g id="edge5" class="edge">
<title>Transitive Relation&#45;&gt;Relations</title>
<path fill="none" stroke="#ffffff" d="M66.73,-253.45C84.33,-212.64 123.65,-137.76 185,-108 298.18,-53.1 442.84,-166.15 494.55,-211.92"/>
<polygon fill="#ffffff" stroke="#ffffff" points="63.45,-252.23 62.82,-262.8 69.9,-254.93 63.45,-252.23"/>
</g>
<!-- Relation of Equivalence -->
<g id="node7" class="node">
<title>Relation of Equivalence</title>
<g id="a_node7"><a xlink:href="/Knowledge/relation_of_equivalence.html" xlink:title="Relation of Equivalence" target="_parent">
<path fill="none" stroke="#b75867" d="M700.5,-91C700.5,-91 590.5,-91 590.5,-91 584.5,-91 578.5,-85 578.5,-79 578.5,-79 578.5,-67 578.5,-67 578.5,-61 584.5,-55 590.5,-55 590.5,-55 700.5,-55 700.5,-55 706.5,-55 712.5,-61 712.5,-67 712.5,-67 712.5,-79 712.5,-79 712.5,-85 706.5,-91 700.5,-91"/>
<text text-anchor="middle" x="645.5" y="-69.9" font-family="sans" font-size="12.00" fill="#c4c7c7">Relation of Equivalence</text>
</a>
</g>
</g>
<!-- Transitive Relation&#45;&gt;Relation of Equivalence -->
<g id="edge6" class="edge">
<title>Transitive Relation&#45;&gt;Relation of Equivalence</title>
<path fill="none" stroke="#ffffff" d="M58.64,-252.71C63.65,-215.38 77.92,-150.1 118,-113 158.51,-75.51 182.8,-81 238,-81 238,-81 238,-81 389,-81 453.35,-81 526.77,-78.43 578.34,-76.21"/>
<polygon fill="#ffffff" stroke="#ffffff" points="55.14,-252.54 57.42,-262.89 62.09,-253.38 55.14,-252.54"/>
</g>
<!-- Partial orders have no contours -->
<g id="node8" class="node">
<title>Partial orders have no contours</title>
<g id="a_node8"><a xlink:href="/Knowledge/partial_orders_have_no_contours.html" xlink:title="Partial orders have no contours" target="_parent">
<path fill="none" stroke="#b75867" d="M463,-451C463,-451 313,-451 313,-451 307,-451 301,-445 301,-439 301,-439 301,-427 301,-427 301,-421 307,-415 313,-415 313,-415 463,-415 463,-415 469,-415 475,-421 475,-427 475,-427 475,-439 475,-439 475,-445 469,-451 463,-451"/>
<text text-anchor="middle" x="388" y="-429.9" font-family="sans" font-size="12.00" fill="#c4c7c7">Partial orders have no contours</text>
</a>
</g>
</g>
<!-- Transitive Relation&#45;&gt;Partial orders have no contours -->
<g id="edge7" class="edge">
<title>Transitive Relation&#45;&gt;Partial orders have no contours</title>
<path fill="none" stroke="#ffffff" d="M93.33,-304.43C140.25,-333.01 224.01,-381.21 301,-411 304.59,-412.39 308.3,-413.72 312.08,-414.98"/>
<polygon fill="#ffffff" stroke="#ffffff" points="95.08,-301.4 84.72,-299.15 91.42,-307.36 95.08,-301.4"/>
</g>
<!-- Relation&#45;&gt;Transitive Relation -->
<g id="edge22" class="edge">
<title>Relation&#45;&gt;Transitive Relation</title>
<path fill="none" stroke="#ffffff" d="M115.66,-236.23C104.26,-244.97 91.51,-254.68 80.73,-262.82"/>
<polygon fill="#ffffff" stroke="#ffffff" points="117.87,-238.94 123.66,-230.07 113.6,-233.4 117.87,-238.94"/>
</g>
<!-- Relation&#45;&gt;Partial order -->
<g id="edge9" class="edge">
<title>Relation&#45;&gt;Partial order</title>
<path fill="none" stroke="#ffffff" d="M165.56,-238.51C171.27,-246.47 177.98,-254.95 185,-262 192.5,-269.53 201.54,-276.73 210.02,-282.86"/>
<polygon fill="#ffffff" stroke="#ffffff" points="168.35,-236.4 159.78,-230.16 162.6,-240.38 168.35,-236.4"/>
</g>
<!-- Relation&#45;&gt;Linear order -->
<g id="edge11" class="edge">
<title>Relation&#45;&gt;Linear order</title>
<path fill="none" stroke="#ffffff" d="M187.27,-211.91C223.27,-212.23 274.09,-213.83 293,-220 320.74,-229.05 348.25,-248.44 366.27,-262.94"/>
<polygon fill="#ffffff" stroke="#ffffff" points="187.1,-208.41 177.08,-211.85 187.06,-215.41 187.1,-208.41"/>
</g>
<!-- Relation&#45;&gt;Relations -->
<g id="edge21" class="edge">
<title>Relation&#45;&gt;Relations</title>
<path fill="none" stroke="#ffffff" d="M187.18,-213.08C216.29,-213.96 257.16,-215.33 293,-217 360.76,-220.16 440.14,-225.15 482.9,-227.93"/>
<polygon fill="#ffffff" stroke="#ffffff" points="187.12,-209.58 177.02,-212.78 186.91,-216.58 187.12,-209.58"/>
</g>
<!-- Relation&#45;&gt;Relation of Equivalence -->
<g id="edge23" class="edge">
<title>Relation&#45;&gt;Relation of Equivalence</title>
<path fill="none" stroke="#ffffff" d="M181.38,-189.41C182.59,-188.89 183.79,-188.42 185,-188 230.49,-172.06 245.75,-187.56 293,-178 412.72,-153.79 437.41,-128.04 555,-95 562.55,-92.88 570.49,-90.76 578.39,-88.73"/>
<polygon fill="#ffffff" stroke="#ffffff" points="179.7,-186.33 172.37,-193.98 182.87,-192.58 179.7,-186.33"/>
</g>
<!-- Descartes Product -->
<g id="node9" class="node">
<title>Descartes Product</title>
<g id="a_node9"><a xlink:href="/Knowledge/descartes_product.html" xlink:title="Descartes Product" target="_parent">
<path fill="#273434" stroke="#b75867" d="M281,-181C281,-181 197,-181 197,-181 191,-181 185,-175 185,-169 185,-169 185,-157 185,-157 185,-151 191,-145 197,-145 197,-145 281,-145 281,-145 287,-145 293,-151 293,-157 293,-157 293,-169 293,-169 293,-175 287,-181 281,-181"/>
<text text-anchor="middle" x="239" y="-159.9" font-family="sans" font-size="12.00" fill="#c4c7c7">Descartes Product</text>
</a>
</g>
</g>
<!-- Relation&#45;&gt;Descartes Product -->
<g id="edge8" class="edge">
<title>Relation&#45;&gt;Descartes Product</title>
<path fill="none" stroke="#b75867" d="M171.1,-193.98C174.24,-191.73 177.53,-189.51 183.36,-186.13"/>
<polygon fill="#b75867" stroke="#b75867" points="185.25,-189.08 192.26,-181.14 181.83,-182.97 185.25,-189.08"/>
</g>
<!-- Chain -->
<g id="node10" class="node">
<title>Chain</title>
<g id="a_node10"><a xlink:href="/Knowledge/chain.html" xlink:title="Chain" target="_parent">
<path fill="none" stroke="#b75867" d="M660.5,-399C660.5,-399 630.5,-399 630.5,-399 624.5,-399 618.5,-393 618.5,-387 618.5,-387 618.5,-375 618.5,-375 618.5,-369 624.5,-363 630.5,-363 630.5,-363 660.5,-363 660.5,-363 666.5,-363 672.5,-369 672.5,-375 672.5,-375 672.5,-387 672.5,-387 672.5,-393 666.5,-399 660.5,-399"/>
<text text-anchor="middle" x="645.5" y="-377.9" font-family="sans" font-size="12.00" fill="#c4c7c7">Chain</text>
</a>
</g>
</g>
<!-- Relation&#45;&gt;Chain -->
<g id="edge10" class="edge">
<title>Relation&#45;&gt;Chain</title>
<path fill="none" stroke="#ffffff" d="M164.42,-238.41C170,-245.37 176.93,-252.04 185,-256 213.94,-270.21 448.62,-247.47 475,-266 482.83,-271.5 477.76,-277.99 483,-286 507.95,-324.13 515.38,-336.49 555,-359 574.62,-370.14 599.77,-375.69 618.42,-378.42"/>
<polygon fill="#ffffff" stroke="#ffffff" points="167.2,-236.29 158.49,-230.25 161.54,-240.4 167.2,-236.29"/>
</g>
<!-- Partial function -->
<g id="node11" class="node">
<title>Partial function</title>
<g id="a_node11"><a xlink:href="/Knowledge/partial_function.html" xlink:title="Partial function" target="_parent">
<path fill="none" stroke="#b75867" d="M274,-144C274,-144 204,-144 204,-144 198,-144 192,-138 192,-132 192,-132 192,-120 192,-120 192,-114 198,-108 204,-108 204,-108 274,-108 274,-108 280,-108 286,-114 286,-120 286,-120 286,-132 286,-132 286,-138 280,-144 274,-144"/>
<text text-anchor="middle" x="239" y="-122.9" font-family="sans" font-size="12.00" fill="#c4c7c7">Partial function</text>
</a>
</g>
</g>
<!-- Relation&#45;&gt;Partial function -->
<g id="edge12" class="edge">
<title>Relation&#45;&gt;Partial function</title>
<path fill="none" stroke="#ffffff" d="M159.15,-184.69C165.17,-172.15 173.76,-157.91 185,-148 187.17,-146.09 189.52,-144.33 192,-142.71"/>
<polygon fill="#ffffff" stroke="#ffffff" points="155.94,-183.28 155.05,-193.84 162.33,-186.14 155.94,-183.28"/>
</g>
<!-- Total function -->
<g id="node12" class="node">
<title>Total function</title>
<g id="a_node12"><a xlink:href="/Knowledge/total_function.html" xlink:title="Total function" target="_parent">
<path fill="none" stroke="#b75867" d="M270,-253C270,-253 208,-253 208,-253 202,-253 196,-247 196,-241 196,-241 196,-229 196,-229 196,-223 202,-217 208,-217 208,-217 270,-217 270,-217 276,-217 282,-223 282,-229 282,-229 282,-241 282,-241 282,-247 276,-253 270,-253"/>
<text text-anchor="middle" x="239" y="-231.9" font-family="sans" font-size="12.00" fill="#c4c7c7">Total function</text>
</a>
</g>
</g>
<!-- Relation&#45;&gt;Total function -->
<g id="edge13" class="edge">
<title>Relation&#45;&gt;Total function</title>
<path fill="none" stroke="#ffffff" d="M187.05,-221.91C189.97,-222.66 192.94,-223.42 195.88,-224.18"/>
<polygon fill="#ffffff" stroke="#ffffff" points="187.87,-218.5 177.31,-219.4 186.13,-225.28 187.87,-218.5"/>
</g>
<!-- Reflexive Relation -->
<g id="node13" class="node">
<title>Reflexive Relation</title>
<g id="a_node13"><a xlink:href="/Knowledge/reflexive_relation.html" xlink:title="Reflexive Relation" target="_parent">
<path fill="none" stroke="#b75867" d="M844.5,-343C844.5,-343 762.5,-343 762.5,-343 756.5,-343 750.5,-337 750.5,-331 750.5,-331 750.5,-319 750.5,-319 750.5,-313 756.5,-307 762.5,-307 762.5,-307 844.5,-307 844.5,-307 850.5,-307 856.5,-313 856.5,-319 856.5,-319 856.5,-331 856.5,-331 856.5,-337 850.5,-343 844.5,-343"/>
<text text-anchor="middle" x="803.5" y="-321.9" font-family="sans" font-size="12.00" fill="#c4c7c7">Reflexive Relation</text>
</a>
</g>
</g>
<!-- Relation&#45;&gt;Reflexive Relation -->
<g id="edge14" class="edge">
<title>Relation&#45;&gt;Reflexive Relation</title>
<path fill="none" stroke="#ffffff" d="M187.05,-195.81C233.45,-183.46 248.1,-187.94 293,-181 374.09,-168.47 397.73,-177.61 475,-150 509.68,-137.61 519.55,-133.55 547,-109 551.51,-104.97 549.61,-100.74 555,-98 572.92,-88.87 721.26,-84.31 736,-98 744.82,-106.19 740.84,-194.39 744,-206 754.33,-243.99 776.96,-284.32 790.85,-306.92"/>
<polygon fill="#ffffff" stroke="#ffffff" points="186.02,-192.46 177.32,-198.51 187.89,-199.2 186.02,-192.46"/>
</g>
<!-- Symmetric Closure -->
<g id="node14" class="node">
<title>Symmetric Closure</title>
<g id="a_node14"><a xlink:href="/Knowledge/symmetric_closure.html" xlink:title="Symmetric Closure" target="_parent">
<path fill="none" stroke="#b75867" d="M689,-205C689,-205 602,-205 602,-205 596,-205 590,-199 590,-193 590,-193 590,-181 590,-181 590,-175 596,-169 602,-169 602,-169 689,-169 689,-169 695,-169 701,-175 701,-181 701,-181 701,-193 701,-193 701,-199 695,-205 689,-205"/>
<text text-anchor="middle" x="645.5" y="-183.9" font-family="sans" font-size="12.00" fill="#c4c7c7">Symmetric Closure</text>
</a>
</g>
</g>
<!-- Relation&#45;&gt;Symmetric Closure -->
<g id="edge15" class="edge">
<title>Relation&#45;&gt;Symmetric Closure</title>
<path fill="none" stroke="#ffffff" d="M187.3,-210.33C258.57,-207.22 415.11,-200.2 547,-193 560.89,-192.24 575.88,-191.35 589.85,-190.5"/>
<polygon fill="#ffffff" stroke="#ffffff" points="186.85,-206.84 177.02,-210.78 187.16,-213.84 186.85,-206.84"/>
</g>
<!-- Anti&#45;symmetric Relation -->
<g id="node15" class="node">
<title>Anti&#45;symmetric Relation</title>
<g id="a_node15"><a xlink:href="/Knowledge/anti-symmetric_relation.html" xlink:title="Anti&#45;symmetric Relation" target="_parent">
<path fill="none" stroke="#b75867" d="M702,-325C702,-325 589,-325 589,-325 583,-325 577,-319 577,-313 577,-313 577,-301 577,-301 577,-295 583,-289 589,-289 589,-289 702,-289 702,-289 708,-289 714,-295 714,-301 714,-301 714,-313 714,-313 714,-319 708,-325 702,-325"/>
<text text-anchor="middle" x="645.5" y="-303.9" font-family="sans" font-size="12.00" fill="#c4c7c7">Anti&#45;symmetric Relation</text>
</a>
</g>
</g>
<!-- Relation&#45;&gt;Anti&#45;symmetric Relation -->
<g id="edge16" class="edge">
<title>Relation&#45;&gt;Anti&#45;symmetric Relation</title>
<path fill="none" stroke="#ffffff" d="M167.71,-237.65C172.75,-242.62 178.59,-247.16 185,-250 221.8,-266.28 514.83,-235.83 547,-260 556.33,-267.01 546.47,-277.04 555,-285 561.2,-290.79 568.67,-295.12 576.61,-298.36"/>
<polygon fill="#ffffff" stroke="#ffffff" points="170.25,-235.24 160.93,-230.21 165.08,-239.96 170.25,-235.24"/>
</g>
<!-- Symmetric Relation -->
<g id="node16" class="node">
<title>Symmetric Relation</title>
<g id="a_node16"><a xlink:href="/Knowledge/symmetric_relation.html" xlink:title="Symmetric Relation" target="_parent">
<path fill="none" stroke="#b75867" d="M849,-110C849,-110 758,-110 758,-110 752,-110 746,-104 746,-98 746,-98 746,-86 746,-86 746,-80 752,-74 758,-74 758,-74 849,-74 849,-74 855,-74 861,-80 861,-86 861,-86 861,-98 861,-98 861,-104 855,-110 849,-110"/>
<text text-anchor="middle" x="803.5" y="-88.9" font-family="sans" font-size="12.00" fill="#c4c7c7">Symmetric Relation</text>
</a>
</g>
</g>
<!-- Relation&#45;&gt;Symmetric Relation -->
<g id="edge17" class="edge">
<title>Relation&#45;&gt;Symmetric Relation</title>
<path fill="none" stroke="#ffffff" d="M150.87,-183.88C154.4,-160.67 163.18,-128.76 185,-111 280.41,-33.35 627.55,0.04 736,-58 741.65,-61.02 738.98,-66.01 744,-70 745.7,-71.35 747.49,-72.62 749.35,-73.82"/>
<polygon fill="#ffffff" stroke="#ffffff" points="147.39,-183.49 149.59,-193.85 154.34,-184.38 147.39,-183.49"/>
</g>
<!-- Reflexive Closure -->
<g id="node17" class="node">
<title>Reflexive Closure</title>
<g id="a_node17"><a xlink:href="/Knowledge/reflexive_closure.html" xlink:title="Reflexive Closure" target="_parent">
<path fill="none" stroke="#b75867" d="M684.5,-168C684.5,-168 606.5,-168 606.5,-168 600.5,-168 594.5,-162 594.5,-156 594.5,-156 594.5,-144 594.5,-144 594.5,-138 600.5,-132 606.5,-132 606.5,-132 684.5,-132 684.5,-132 690.5,-132 696.5,-138 696.5,-144 696.5,-144 696.5,-156 696.5,-156 696.5,-162 690.5,-168 684.5,-168"/>
<text text-anchor="middle" x="645.5" y="-146.9" font-family="sans" font-size="12.00" fill="#c4c7c7">Reflexive Closure</text>
</a>
</g>
</g>
<!-- Relation&#45;&gt;Reflexive Closure -->
<g id="edge18" class="edge">
<title>Relation&#45;&gt;Reflexive Closure</title>
<path fill="none" stroke="#ffffff" d="M187.1,-205.85C238,-199.82 252.4,-199.87 301,-197 328.31,-195.39 523.83,-201.55 547,-187 553.4,-182.98 549.04,-176.64 555,-172 566.24,-163.26 580.48,-157.94 594.28,-154.71"/>
<polygon fill="#ffffff" stroke="#ffffff" points="186.67,-202.38 177.16,-207.05 187.51,-209.33 186.67,-202.38"/>
</g>
<!-- Anti&#45;reflexive relation -->
<g id="node18" class="node">
<title>Anti&#45;reflexive relation</title>
<g id="a_node18"><a xlink:href="/Knowledge/anti-reflexive_relation.html" xlink:title="Anti&#45;reflexive relation" target="_parent">
<path fill="none" stroke="#b75867" d="M695.5,-131C695.5,-131 595.5,-131 595.5,-131 589.5,-131 583.5,-125 583.5,-119 583.5,-119 583.5,-107 583.5,-107 583.5,-101 589.5,-95 595.5,-95 595.5,-95 695.5,-95 695.5,-95 701.5,-95 707.5,-101 707.5,-107 707.5,-107 707.5,-119 707.5,-119 707.5,-125 701.5,-131 695.5,-131"/>
<text text-anchor="middle" x="645.5" y="-109.9" font-family="sans" font-size="12.00" fill="#c4c7c7">Anti&#45;reflexive relation</text>
</a>
</g>
</g>
<!-- Relation&#45;&gt;Anti&#45;reflexive relation -->
<g id="edge19" class="edge">
<title>Relation&#45;&gt;Anti&#45;reflexive relation</title>
<path fill="none" stroke="#ffffff" d="M187.34,-198.82C249.19,-194.35 532.98,-196.39 547,-184 563.53,-169.39 540.03,-151.21 555,-135 562.6,-126.77 572.74,-121.4 583.45,-117.94"/>
<polygon fill="#ffffff" stroke="#ffffff" points="186.87,-195.36 177.33,-199.96 187.66,-202.31 186.87,-195.36"/>
</g>
<!-- Strongly Anti&#45;symmetric Relation -->
<g id="node19" class="node">
<title>Strongly Anti&#45;symmetric Relation</title>
<g id="a_node19"><a xlink:href="/Knowledge/strongly_anti-symmetric_relation.html" xlink:title="Strongly Anti&#45;symmetric Relation" target="_parent">
<path fill="none" stroke="#b75867" d="M724,-362C724,-362 567,-362 567,-362 561,-362 555,-356 555,-350 555,-350 555,-338 555,-338 555,-332 561,-326 567,-326 567,-326 724,-326 724,-326 730,-326 736,-332 736,-338 736,-338 736,-350 736,-350 736,-356 730,-362 724,-362"/>
<text text-anchor="middle" x="645.5" y="-340.9" font-family="sans" font-size="12.00" fill="#c4c7c7">Strongly Anti&#45;symmetric Relation</text>
</a>
</g>
</g>
<!-- Relation&#45;&gt;Strongly Anti&#45;symmetric Relation -->
<g id="edge20" class="edge">
<title>Relation&#45;&gt;Strongly Anti&#45;symmetric Relation</title>
<path fill="none" stroke="#ffffff" d="M166.26,-238.37C171.56,-244.21 177.88,-249.66 185,-253 214.19,-266.7 444.03,-254.05 475,-263 510.59,-273.28 521.98,-277.67 547,-305 552.64,-311.16 548.54,-316.71 555,-322 556.73,-323.42 558.54,-324.75 560.42,-325.99"/>
<polygon fill="#ffffff" stroke="#ffffff" points="168.72,-235.84 159.69,-230.3 163.3,-240.27 168.72,-235.84"/>
</g>
<!-- Partial order&#45;&gt;Transitive Relation -->
<g id="edge24" class="edge">
<title>Partial order&#45;&gt;Transitive Relation</title>
<path fill="none" stroke="#b75867" d="M199.4,-297.38C176.37,-294.98 146.55,-291.73 120.08,-288.76"/>
<polygon fill="#b75867" stroke="#b75867" points="120.44,-285.28 110.11,-287.64 119.66,-292.24 120.44,-285.28"/>
</g>
<!-- Partial order&#45;&gt;Relation -->
<g id="edge27" class="edge">
<title>Partial order&#45;&gt;Relation</title>
<path fill="none" stroke="#b75867" d="M208.65,-282.82C200.58,-276.96 192.1,-270.12 185,-263 177.68,-255.65 170.69,-246.74 164.83,-238.44"/>
<polygon fill="#b75867" stroke="#b75867" points="167.67,-236.39 159.16,-230.09 161.88,-240.33 167.67,-236.39"/>
</g>
<!-- Partial order&#45;&gt;Linear order -->
<g id="edge28" class="edge">
<title>Partial order&#45;&gt;Linear order</title>
<path fill="none" stroke="#ffffff" d="M288.78,-294.36C308.16,-291.73 330.14,-288.74 348.38,-286.25"/>
<polygon fill="#ffffff" stroke="#ffffff" points="288.06,-290.93 278.62,-295.75 289,-297.87 288.06,-290.93"/>
</g>
<!-- Partial order&#45;&gt;Relations -->
<g id="edge30" class="edge">
<title>Partial order&#45;&gt;Relations</title>
<path fill="none" stroke="#ffffff" d="M288.98,-302.47C353.16,-304.02 459.42,-305.11 475,-296 492.69,-285.65 503.21,-263.87 508.79,-248.16"/>
<polygon fill="#ffffff" stroke="#ffffff" points="288.76,-298.97 278.67,-302.21 288.58,-305.96 288.76,-298.97"/>
</g>
<!-- Partial order&#45;&gt;Partial orders have no contours -->
<g id="edge31" class="edge">
<title>Partial order&#45;&gt;Partial orders have no contours</title>
<path fill="none" stroke="#ffffff" d="M262.07,-327.32C272.81,-341.3 285.07,-359.24 293,-377 299.33,-391.17 290.13,-399.92 301,-411 302.29,-412.32 303.66,-413.57 305.08,-414.74"/>
<polygon fill="#ffffff" stroke="#ffffff" points="264.58,-324.85 255.64,-319.16 259.08,-329.18 264.58,-324.85"/>
</g>
<!-- Partial order&#45;&gt;Reflexive Relation -->
<g id="edge26" class="edge">
<title>Partial order&#45;&gt;Reflexive Relation</title>
<path fill="none" stroke="#b75867" d="M257.54,-319.17C268.04,-330.21 281.52,-344.7 293,-358 296.72,-362.31 296.19,-364.96 301,-368 306.93,-371.75 541.07,-422.25 547,-426 551.81,-429.04 549.87,-433.53 555,-436 573.13,-444.71 718.5,-445.91 736,-436 767.2,-418.32 785.34,-379.54 794.58,-352.84"/>
<polygon fill="#b75867" stroke="#b75867" points="797.93,-353.86 797.7,-343.27 791.28,-351.7 797.93,-353.86"/>
</g>
<!-- Partial order&#45;&gt;Anti&#45;symmetric Relation -->
<g id="edge25" class="edge">
<title>Partial order&#45;&gt;Anti&#45;symmetric Relation</title>
<path fill="none" stroke="#b75867" d="M278.79,-301.58C344.88,-302.56 480.55,-304.57 566.78,-305.85"/>
<polygon fill="#b75867" stroke="#b75867" points="566.73,-309.35 576.78,-306 566.84,-302.35 566.73,-309.35"/>
</g>
<!-- Linear extension -->
<g id="node20" class="node">
<title>Linear extension</title>
<g id="a_node20"><a xlink:href="/Knowledge/linear_extension.html" xlink:title="Linear extension" target="_parent">
<path fill="none" stroke="#b75867" d="M684,-439C684,-439 607,-439 607,-439 601,-439 595,-433 595,-427 595,-427 595,-415 595,-415 595,-409 601,-403 607,-403 607,-403 684,-403 684,-403 690,-403 696,-409 696,-415 696,-415 696,-427 696,-427 696,-433 690,-439 684,-439"/>
<text text-anchor="middle" x="645.5" y="-417.9" font-family="sans" font-size="12.00" fill="#c4c7c7">Linear extension</text>
</a>
</g>
</g>
<!-- Partial order&#45;&gt;Linear extension -->
<g id="edge29" class="edge">
<title>Partial order&#45;&gt;Linear extension</title>
<path fill="none" stroke="#ffffff" d="M282.94,-323.83C330.47,-347.97 410.01,-385.14 483,-404 519.71,-413.49 562.43,-417.7 594.71,-419.56"/>
<polygon fill="#ffffff" stroke="#ffffff" points="284.37,-320.63 273.88,-319.18 281.18,-326.86 284.37,-320.63"/>
</g>
<!-- Linear order&#45;&gt;Transitive Relation -->
<g id="edge33" class="edge">
<title>Linear order&#45;&gt;Transitive Relation</title>
<path fill="none" stroke="#b75867" d="M348.22,-281.5C292.23,-281.79 188.05,-281.83 120.41,-281.61"/>
<polygon fill="#b75867" stroke="#b75867" points="120.3,-278.11 110.29,-281.57 120.27,-285.11 120.3,-278.11"/>
</g>
<!-- Linear order&#45;&gt;Relation -->
<g id="edge36" class="edge">
<title>Linear order&#45;&gt;Relation</title>
<path fill="none" stroke="#b75867" d="M365.17,-262.88C347.15,-248.67 320.19,-229.87 293,-221 274.09,-214.83 223.27,-213.23 187.27,-212.67"/>
<polygon fill="#b75867" stroke="#b75867" points="187.13,-209.17 177.08,-212.54 187.03,-216.17 187.13,-209.17"/>
</g>
<!-- Linear order&#45;&gt;Partial order -->
<g id="edge32" class="edge">
<title>Linear order&#45;&gt;Partial order</title>
<path fill="none" stroke="#b75867" d="M348.38,-286.92C330.14,-289.5 308.16,-292.5 288.78,-295.07"/>
<polygon fill="#b75867" stroke="#b75867" points="288.08,-291.64 278.62,-296.41 288.99,-298.58 288.08,-291.64"/>
</g>
<!-- Linear order&#45;&gt;Relations -->
<g id="edge38" class="edge">
<title>Linear order&#45;&gt;Relations</title>
<path fill="none" stroke="#ffffff" d="M436.93,-261.44C452.36,-255.15 469.04,-248.34 482.93,-242.68"/>
<polygon fill="#ffffff" stroke="#ffffff" points="435.46,-258.26 427.52,-265.28 438.11,-264.75 435.46,-258.26"/>
</g>
<!-- Linear order&#45;&gt;Reflexive Relation -->
<g id="edge35" class="edge">
<title>Linear order&#45;&gt;Reflexive Relation</title>
<path fill="none" stroke="#b75867" d="M406.86,-299.05C435.25,-326.32 493.76,-376.86 555,-396 574.2,-402 717.55,-404 736,-396 756.79,-386.99 774.05,-367.92 785.77,-351.82"/>
<polygon fill="#b75867" stroke="#b75867" points="788.89,-353.47 791.7,-343.26 783.13,-349.48 788.89,-353.47"/>
</g>
<!-- Linear order&#45;&gt;Strongly Anti&#45;symmetric Relation -->
<g id="edge34" class="edge">
<title>Linear order&#45;&gt;Strongly Anti&#45;symmetric Relation</title>
<path fill="none" stroke="#b75867" d="M427.57,-290.54C461.21,-298.86 511.33,-311.24 555,-322 557.15,-322.53 559.32,-323.06 561.52,-323.6"/>
<polygon fill="#b75867" stroke="#b75867" points="560.69,-327.01 571.23,-326 562.36,-320.21 560.69,-327.01"/>
</g>
<!-- Linear order&#45;&gt;Linear extension -->
<g id="edge37" class="edge">
<title>Linear order&#45;&gt;Linear extension</title>
<path fill="none" stroke="#ffffff" d="M402.62,-308.25C418.05,-336.03 445.97,-377.96 483,-399 485.47,-400.4 548.32,-408.69 594.87,-414.68"/>
<polygon fill="#ffffff" stroke="#ffffff" points="405.69,-306.57 397.86,-299.42 399.52,-309.88 405.69,-306.57"/>
</g>
<!-- Transitive Closure&#45;&gt;Transitive Relation -->
<g id="edge39" class="edge">
<title>Transitive Closure&#45;&gt;Transitive Relation</title>
<path fill="none" stroke="#b75867" d="M592.41,-272.58C578.23,-275.72 564.25,-281.75 555,-293 542.92,-307.69 560.55,-450.65 547,-464 496.95,-513.3 459.26,-469 389,-469 238,-469 238,-469 238,-469 149.69,-469 90.34,-360.57 67.05,-308.4"/>
<polygon fill="#b75867" stroke="#b75867" points="70.19,-306.84 63,-299.06 63.77,-309.63 70.19,-306.84"/>
</g>
<!-- Transitive Closure&#45;&gt;Relations -->
<g id="edge40" class="edge">
<title>Transitive Closure&#45;&gt;Relations</title>
<path fill="none" stroke="#ffffff" d="M582.72,-256.46C573.35,-253.93 563.85,-251.1 555,-248 552.47,-247.11 549.87,-246.12 547.29,-245.07"/>
<polygon fill="#ffffff" stroke="#ffffff" points="581.86,-259.85 592.42,-258.98 583.62,-253.08 581.86,-259.85"/>
</g>
<!-- Transitive Closure&#45;&gt;Relations -->
<g id="edge41" class="edge">
<title>Transitive Closure&#45;&gt;Relations</title>
<path fill="none" stroke="#ffffff" d="M582.72,-257.45C573.35,-254.93 563.85,-252.1 555,-249 552.47,-248.11 549.87,-247.12 547.29,-246.06"/>
<polygon fill="#ffffff" stroke="#ffffff" points="581.86,-260.84 592.42,-259.95 583.61,-254.06 581.86,-260.84"/>
</g>
<!-- Relations&#45;&gt;Transitive Relation -->
<g id="edge54" class="edge">
<title>Relations&#45;&gt;Transitive Relation</title>
<path fill="none" stroke="#b75867" d="M493.79,-211.73C441.44,-166.06 297.64,-54.36 185,-109 123.96,-138.61 84.73,-212.88 67,-253.47"/>
<polygon fill="#b75867" stroke="#b75867" points="63.73,-252.2 63.05,-262.78 70.18,-254.94 63.73,-252.2"/>
</g>
<!-- Relations&#45;&gt;Relation -->
<g id="edge60" class="edge">
<title>Relations&#45;&gt;Relation</title>
<path fill="none" stroke="#b75867" d="M482.9,-228.61C440.14,-226.15 360.76,-221.16 293,-218 257.16,-216.33 216.29,-214.96 187.18,-213.91"/>
<polygon fill="#b75867" stroke="#b75867" points="187.14,-210.41 177.02,-213.54 186.89,-217.4 187.14,-210.41"/>
</g>
<!-- Relations&#45;&gt;Partial order -->
<g id="edge45" class="edge">
<title>Relations&#45;&gt;Partial order</title>
<path fill="none" stroke="#b75867" d="M509.11,-248.01C503.62,-264.02 493.04,-286.45 475,-297 459.42,-306.11 353.16,-305.02 288.98,-303.14"/>
<polygon fill="#b75867" stroke="#b75867" points="288.78,-299.63 278.67,-302.82 288.56,-306.63 288.78,-299.63"/>
</g>
<!-- Relations&#45;&gt;Linear order -->
<g id="edge44" class="edge">
<title>Relations&#45;&gt;Linear order</title>
<path fill="none" stroke="#b75867" d="M482.93,-243.34C469.04,-249.09 452.36,-255.92 436.93,-262.18"/>
<polygon fill="#b75867" stroke="#b75867" points="435.48,-258.99 427.52,-265.98 438.11,-265.48 435.48,-258.99"/>
</g>
<!-- Relations&#45;&gt;Transitive Closure -->
<g id="edge48" class="edge">
<title>Relations&#45;&gt;Transitive Closure</title>
<path fill="none" stroke="#b75867" d="M547.29,-244.07C549.87,-245.12 552.47,-246.11 555,-247 563.85,-250.1 573.35,-252.93 582.72,-255.47"/>
<polygon fill="#b75867" stroke="#b75867" points="581.86,-258.86 592.42,-258.01 583.63,-252.09 581.86,-258.86"/>
</g>
<!-- Relations&#45;&gt;Transitive Closure -->
<g id="edge52" class="edge">
<title>Relations&#45;&gt;Transitive Closure</title>
<path fill="none" stroke="#b75867" d="M547.29,-247.06C549.87,-248.12 552.47,-249.11 555,-250 563.85,-253.1 573.35,-255.93 582.72,-258.44"/>
<polygon fill="#b75867" stroke="#b75867" points="581.86,-261.83 592.42,-260.92 583.6,-255.05 581.86,-261.83"/>
</g>
<!-- Relations&#45;&gt;Relation of Equivalence -->
<g id="edge47" class="edge">
<title>Relations&#45;&gt;Relation of Equivalence</title>
<path fill="none" stroke="#b75867" d="M531.29,-211.92C537.23,-203.88 543.45,-193.98 547,-184 553.65,-165.29 542.06,-110.06 555,-95 559.01,-90.33 563.83,-86.57 569.13,-83.55"/>
<polygon fill="#b75867" stroke="#b75867" points="570.91,-86.58 578.45,-79.13 567.91,-80.26 570.91,-86.58"/>
</g>
<!-- Relations&#45;&gt;Chain -->
<g id="edge42" class="edge">
<title>Relations&#45;&gt;Chain</title>
<path fill="none" stroke="#b75867" d="M524.41,-248.14C531.41,-263.91 541.15,-287.54 547,-309 552.92,-330.71 539.76,-342.44 555,-359 568.38,-373.53 589.67,-379.16 608.13,-381.1"/>
<polygon fill="#b75867" stroke="#b75867" points="608.08,-384.61 618.31,-381.84 608.59,-377.62 608.08,-384.61"/>
</g>
<!-- Relations&#45;&gt;Reflexive Relation -->
<g id="edge59" class="edge">
<title>Relations&#45;&gt;Reflexive Relation</title>
<path fill="none" stroke="#b75867" d="M547.25,-242.98C549.84,-243.76 552.45,-244.45 555,-245 594.39,-253.44 699.44,-238.09 736,-255 756.28,-264.38 773.47,-282.97 785.29,-298.64"/>
<polygon fill="#b75867" stroke="#b75867" points="782.61,-300.9 791.29,-306.97 788.29,-296.81 782.61,-300.9"/>
</g>
<!-- Relations&#45;&gt;Symmetric Closure -->
<g id="edge49" class="edge">
<title>Relations&#45;&gt;Symmetric Closure</title>
<path fill="none" stroke="#b75867" d="M547.18,-212.33C549.79,-211.12 552.42,-209.99 555,-209 562.94,-205.94 571.45,-203.21 579.94,-200.79"/>
<polygon fill="#b75867" stroke="#b75867" points="581.13,-204.09 589.87,-198.1 579.3,-197.34 581.13,-204.09"/>
</g>
<!-- Relations&#45;&gt;Symmetric Closure -->
<g id="edge51" class="edge">
<title>Relations&#45;&gt;Symmetric Closure</title>
<path fill="none" stroke="#b75867" d="M547.18,-213.33C549.79,-212.12 552.42,-210.99 555,-210 563.03,-206.91 571.63,-204.15 580.22,-201.7"/>
<polygon fill="#b75867" stroke="#b75867" points="581.14,-205.08 589.87,-199.07 579.3,-198.32 581.14,-205.08"/>
</g>
<!-- Relations&#45;&gt;Anti&#45;symmetric Relation -->
<g id="edge56" class="edge">
<title>Relations&#45;&gt;Anti&#45;symmetric Relation</title>
<path fill="none" stroke="#b75867" d="M542.35,-248.18C544.07,-250.01 545.65,-251.95 547,-254 554.82,-265.88 544.88,-275 555,-285 558.74,-288.7 563.01,-291.82 567.59,-294.43"/>
<polygon fill="#b75867" stroke="#b75867" points="566.22,-297.66 576.74,-298.87 569.27,-291.36 566.22,-297.66"/>
</g>
<!-- Relations&#45;&gt;Symmetric Relation -->
<g id="edge57" class="edge">
<title>Relations&#45;&gt;Symmetric Relation</title>
<path fill="none" stroke="#b75867" d="M547.13,-214.4C549.75,-213.47 552.39,-212.65 555,-212 574.55,-207.14 721.51,-215.99 736,-202 748.31,-190.12 736.22,-144.02 743.03,-119.43"/>
<polygon fill="#b75867" stroke="#b75867" points="746.32,-120.65 747.43,-110.11 739.99,-117.66 746.32,-120.65"/>
</g>
<!-- Relations&#45;&gt;Reflexive Closure -->
<g id="edge50" class="edge">
<title>Relations&#45;&gt;Reflexive Closure</title>
<path fill="none" stroke="#b75867" d="M533.38,-211.71C538.22,-206.01 543.18,-199.5 547,-193 552.05,-184.39 547.52,-178.62 555,-172 563.35,-164.62 573.79,-159.62 584.55,-156.26"/>
<polygon fill="#b75867" stroke="#b75867" points="585.72,-159.57 594.48,-153.62 583.92,-152.81 585.72,-159.57"/>
</g>
<!-- Relations&#45;&gt;Reflexive Closure -->
<g id="edge53" class="edge">
<title>Relations&#45;&gt;Reflexive Closure</title>
<path fill="none" stroke="#b75867" d="M534.03,-211.91C538.66,-206.43 543.35,-200.22 547,-194 552.05,-185.39 547.52,-179.62 555,-173 563.35,-165.62 573.79,-160.62 584.55,-157.24"/>
<polygon fill="#b75867" stroke="#b75867" points="585.73,-160.55 594.48,-154.57 583.92,-153.79 585.73,-160.55"/>
</g>
<!-- Relations&#45;&gt;Anti&#45;reflexive relation -->
<g id="edge58" class="edge">
<title>Relations&#45;&gt;Anti&#45;reflexive relation</title>
<path fill="none" stroke="#b75867" d="M533.33,-211.75C538.52,-205.33 543.7,-197.76 547,-190 556.66,-167.27 538.4,-153.29 555,-135 560.29,-129.17 566.86,-124.77 574.01,-121.46"/>
<polygon fill="#b75867" stroke="#b75867" points="575.29,-124.72 583.34,-117.83 572.75,-118.2 575.29,-124.72"/>
</g>
<!-- Relations&#45;&gt;Strongly Anti&#45;symmetric Relation -->
<g id="edge55" class="edge">
<title>Relations&#45;&gt;Strongly Anti&#45;symmetric Relation</title>
<path fill="none" stroke="#b75867" d="M540.66,-248.19C543.12,-250.9 545.33,-253.85 547,-257 559.16,-279.89 540.68,-296.3 552.75,-317.63"/>
<polygon fill="#b75867" stroke="#b75867" points="549.96,-319.74 558.69,-325.73 555.6,-315.6 549.96,-319.74"/>
</g>
<!-- Relations&#45;&gt;Linear extension -->
<g id="edge43" class="edge">
<title>Relations&#45;&gt;Linear extension</title>
<path fill="none" stroke="#b75867" d="M517.81,-248.23C522.07,-287.38 533.97,-377.66 555,-399 563.08,-407.2 573.69,-412.52 584.76,-415.95"/>
<polygon fill="#b75867" stroke="#b75867" points="584,-419.37 594.56,-418.49 585.76,-412.59 584,-419.37"/>
</g>
<!-- Class of equivalence -->
<g id="node21" class="node">
<title>Class of equivalence</title>
<g id="a_node21"><a xlink:href="/Knowledge/class_of_equivalence.html" xlink:title="Class of equivalence" target="_parent">
<path fill="#273434" stroke="#b75867" d="M851,-206C851,-206 756,-206 756,-206 750,-206 744,-200 744,-194 744,-194 744,-182 744,-182 744,-176 750,-170 756,-170 756,-170 851,-170 851,-170 857,-170 863,-176 863,-182 863,-182 863,-194 863,-194 863,-200 857,-206 851,-206"/>
<text text-anchor="middle" x="803.5" y="-184.9" font-family="sans" font-size="12.00" fill="#c4c7c7">Class of equivalence</text>
</a>
</g>
</g>
<!-- Relations&#45;&gt;Class of equivalence -->
<g id="edge46" class="edge">
<title>Relations&#45;&gt;Class of equivalence</title>
<path fill="none" stroke="#b75867" d="M547.25,-217.02C549.84,-216.24 552.45,-215.55 555,-215 630.7,-198.77 654.52,-215.82 733.92,-205.09"/>
<polygon fill="#b75867" stroke="#b75867" points="734.49,-208.55 743.88,-203.65 733.48,-201.62 734.49,-208.55"/>
</g>
<!-- Discrete Structures -->
<g id="node22" class="node">
<title>Discrete Structures</title>
<g id="a_node22"><a xlink:href="/Knowledge/discrete_structures.html" xlink:title="Discrete Structures" target="_parent">
<path fill="none" stroke="#b75867" d="M689,-248C689,-248 602,-248 602,-248 596,-248 590,-242 590,-236 590,-236 590,-224 590,-224 590,-218 596,-212 602,-212 602,-212 689,-212 689,-212 695,-212 701,-218 701,-224 701,-224 701,-236 701,-236 701,-242 695,-248 689,-248"/>
<text text-anchor="middle" x="645.5" y="-226.9" font-family="sans" font-size="12.00" fill="#c4c7c7">Discrete Structures</text>
</a>
</g>
</g>
<!-- Relations&#45;&gt;Discrete Structures -->
<g id="edge61" class="edge">
<title>Relations&#45;&gt;Discrete Structures</title>
<path fill="none" stroke="#ffffff" d="M557.15,-230C567.56,-230 578.89,-230 589.85,-230"/>
<polygon fill="#ffffff" stroke="#ffffff" points="557.11,-226.5 547.11,-230 557.11,-233.5 557.11,-226.5"/>
</g>
<!-- Relation of Equivalence&#45;&gt;Transitive Relation -->
<g id="edge65" class="edge">
<title>Relation of Equivalence&#45;&gt;Transitive Relation</title>
<path fill="none" stroke="#b75867" d="M578.34,-77.03C526.77,-79.43 453.35,-82 389,-82 238,-82 238,-82 238,-82 182.8,-82 158.51,-76.51 118,-114 78.13,-150.9 63.8,-215.71 58.72,-252.81"/>
<polygon fill="#b75867" stroke="#b75867" points="55.23,-252.58 57.47,-262.93 62.17,-253.43 55.23,-252.58"/>
</g>
<!-- Relation of Equivalence&#45;&gt;Relation -->
<g id="edge68" class="edge">
<title>Relation of Equivalence&#45;&gt;Relation</title>
<path fill="none" stroke="#b75867" d="M578.39,-89.72C570.49,-91.76 562.55,-93.88 555,-96 437.41,-129.04 412.72,-154.79 293,-179 245.75,-188.56 230.49,-173.06 185,-189 184.55,-189.16 184.11,-189.32 183.66,-189.49"/>
<polygon fill="#b75867" stroke="#b75867" points="181.99,-186.41 174.41,-193.82 184.96,-192.75 181.99,-186.41"/>
</g>
<!-- Relation of Equivalence&#45;&gt;Relations -->
<g id="edge70" class="edge">
<title>Relation of Equivalence&#45;&gt;Relations</title>
<path fill="none" stroke="#ffffff" d="M569.13,-84.55C563.83,-87.57 559.01,-91.33 555,-96 542.06,-111.06 553.65,-166.29 547,-185 543.58,-194.62 537.68,-204.16 531.94,-211.97"/>
<polygon fill="#ffffff" stroke="#ffffff" points="570.92,-87.58 578.45,-80.12 567.91,-81.25 570.92,-87.58"/>
</g>
<!-- Relation of Equivalence&#45;&gt;Reflexive Relation -->
<g id="edge67" class="edge">
<title>Relation of Equivalence&#45;&gt;Reflexive Relation</title>
<path fill="none" stroke="#b75867" d="M712.67,-79.04C721.6,-82.56 729.81,-87.66 736,-95 751.95,-113.9 737.54,-182.13 744,-206 753.08,-239.55 771.8,-274.91 785.62,-298.28"/>
<polygon fill="#b75867" stroke="#b75867" points="782.67,-300.17 790.84,-306.92 788.67,-296.55 782.67,-300.17"/>
</g>
<!-- Relation of Equivalence&#45;&gt;Symmetric Relation -->
<g id="edge66" class="edge">
<title>Relation of Equivalence&#45;&gt;Symmetric Relation</title>
<path fill="none" stroke="#b75867" d="M712.66,-81.06C720.19,-81.98 727.88,-82.91 735.43,-83.83"/>
<polygon fill="#b75867" stroke="#b75867" points="735.26,-87.34 745.61,-85.07 736.1,-80.39 735.26,-87.34"/>
</g>
<!-- Relation of Equivalence&#45;&gt;Class of equivalence -->
<g id="edge62" class="edge">
<title>Relation of Equivalence&#45;&gt;Class of equivalence</title>
<path fill="none" stroke="#b75867" d="M712.61,-79.66C721.44,-83.11 729.63,-88.04 736,-95 751.79,-112.25 731.66,-127.14 744,-147 747.92,-153.3 753.2,-158.89 758.99,-163.77"/>
<polygon fill="#b75867" stroke="#b75867" points="757.05,-166.69 767.12,-169.97 761.29,-161.12 757.05,-166.69"/>
</g>
<!-- Set -->
<g id="node23" class="node">
<title>Set</title>
<g id="a_node23"><a xlink:href="/Knowledge/set.html" xlink:title="Set" target="_parent">
<path fill="#273434" stroke="#b75867" d="M818.5,-73C818.5,-73 788.5,-73 788.5,-73 782.5,-73 776.5,-67 776.5,-61 776.5,-61 776.5,-49 776.5,-49 776.5,-43 782.5,-37 788.5,-37 788.5,-37 818.5,-37 818.5,-37 824.5,-37 830.5,-43 830.5,-49 830.5,-49 830.5,-61 830.5,-61 830.5,-67 824.5,-73 818.5,-73"/>
<text text-anchor="middle" x="803.5" y="-51.9" font-family="sans" font-size="12.00" fill="#c4c7c7">Set</text>
</a>
</g>
</g>
<!-- Relation of Equivalence&#45;&gt;Set -->
<g id="edge63" class="edge">
<title>Relation of Equivalence&#45;&gt;Set</title>
<path fill="none" stroke="#b75867" d="M712.66,-65.37C731.05,-63.24 750.34,-61.02 766.31,-59.18"/>
<polygon fill="#b75867" stroke="#b75867" points="766.75,-62.65 776.29,-58.02 765.95,-55.69 766.75,-62.65"/>
</g>
<!-- Partition -->
<g id="node24" class="node">
<title>Partition</title>
<g id="a_node24"><a xlink:href="/Knowledge/partition.html" xlink:title="Partition" target="_parent">
<path fill="#273434" stroke="#b75867" d="M821.5,-36C821.5,-36 785.5,-36 785.5,-36 779.5,-36 773.5,-30 773.5,-24 773.5,-24 773.5,-12 773.5,-12 773.5,-6 779.5,0 785.5,0 785.5,0 821.5,0 821.5,0 827.5,0 833.5,-6 833.5,-12 833.5,-12 833.5,-24 833.5,-24 833.5,-30 827.5,-36 821.5,-36"/>
<text text-anchor="middle" x="803.5" y="-14.9" font-family="sans" font-size="12.00" fill="#c4c7c7">Partition</text>
</a>
</g>
</g>
<!-- Relation of Equivalence&#45;&gt;Partition -->
<g id="edge64" class="edge">
<title>Relation of Equivalence&#45;&gt;Partition</title>
<path fill="none" stroke="#b75867" d="M697.58,-54.99C719.02,-47.43 743.55,-38.79 763.49,-31.75"/>
<polygon fill="#b75867" stroke="#b75867" points="764.91,-34.96 773.17,-28.34 762.58,-28.36 764.91,-34.96"/>
</g>
<!-- Principle of division -->
<g id="node25" class="node">
<title>Principle of division</title>
<g id="a_node25"><a xlink:href="/Knowledge/principle_of_division.html" xlink:title="Principle of division" target="_parent">
<path fill="none" stroke="#b75867" d="M849.5,-147C849.5,-147 757.5,-147 757.5,-147 751.5,-147 745.5,-141 745.5,-135 745.5,-135 745.5,-123 745.5,-123 745.5,-117 751.5,-111 757.5,-111 757.5,-111 849.5,-111 849.5,-111 855.5,-111 861.5,-117 861.5,-123 861.5,-123 861.5,-135 861.5,-135 861.5,-141 855.5,-147 849.5,-147"/>
<text text-anchor="middle" x="803.5" y="-125.9" font-family="sans" font-size="12.00" fill="#c4c7c7">Principle of division</text>
</a>
</g>
</g>
<!-- Relation of Equivalence&#45;&gt;Principle of division -->
<g id="edge69" class="edge">
<title>Relation of Equivalence&#45;&gt;Principle of division</title>
<path fill="none" stroke="#ffffff" d="M722.12,-87.11C727.01,-89.36 731.69,-91.98 736,-95 741.25,-98.68 738.98,-103.01 744,-107 745.7,-108.35 747.49,-109.62 749.35,-110.82"/>
<polygon fill="#ffffff" stroke="#ffffff" points="723.1,-83.73 712.52,-83.21 720.47,-90.22 723.1,-83.73"/>
</g>
<!-- Partial orders have no contours&#45;&gt;Transitive Relation -->
<g id="edge73" class="edge">
<title>Partial orders have no contours&#45;&gt;Transitive Relation</title>
<path fill="none" stroke="#b75867" d="M308.92,-414.91C306.24,-413.97 303.59,-413 301,-412 223.37,-381.97 138.87,-333.22 92.18,-304.42"/>
<polygon fill="#b75867" stroke="#b75867" points="93.97,-301.41 83.63,-299.11 90.28,-307.36 93.97,-301.41"/>
</g>
<!-- Partial orders have no contours&#45;&gt;Partial order -->
<g id="edge72" class="edge">
<title>Partial orders have no contours&#45;&gt;Partial order</title>
<path fill="none" stroke="#b75867" d="M304.02,-414.85C302.98,-413.94 301.97,-412.99 301,-412 290.13,-400.92 299.33,-392.17 293,-378 284.83,-359.71 272.06,-341.22 261.11,-326.95"/>
<polygon fill="#b75867" stroke="#b75867" points="263.84,-324.77 254.91,-319.07 258.34,-329.09 263.84,-324.77"/>
</g>
<!-- Partial orders have no contours&#45;&gt;Chain -->
<g id="edge75" class="edge">
<title>Partial orders have no contours&#45;&gt;Chain</title>
<path fill="none" stroke="#ffffff" d="M484.95,-413.47C532.86,-403.72 587.15,-392.67 618.44,-386.3"/>
<polygon fill="#ffffff" stroke="#ffffff" points="484.25,-410.04 475.14,-415.47 485.64,-416.9 484.25,-410.04"/>
</g>
<!-- Partial orders have no contours&#45;&gt;Reflexive Relation -->
<g id="edge74" class="edge">
<title>Partial orders have no contours&#45;&gt;Reflexive Relation</title>
<path fill="none" stroke="#b75867" d="M475.06,-423.13C498.86,-423.04 524.36,-425.45 547,-433 551.22,-434.41 550.78,-437.59 555,-439 631.32,-464.44 666.24,-479.07 736,-439 767.89,-420.68 785.93,-380.53 794.95,-353.11"/>
<polygon fill="#b75867" stroke="#b75867" points="798.38,-353.89 797.98,-343.3 791.69,-351.83 798.38,-353.89"/>
</g>
<!-- Contour -->
<g id="node26" class="node">
<title>Contour</title>
<g id="a_node26"><a xlink:href="/Knowledge/contour.html" xlink:title="Contour" target="_parent">
<path fill="#273434" stroke="#b75867" d="M532.5,-466C532.5,-466 497.5,-466 497.5,-466 491.5,-466 485.5,-460 485.5,-454 485.5,-454 485.5,-442 485.5,-442 485.5,-436 491.5,-430 497.5,-430 497.5,-430 532.5,-430 532.5,-430 538.5,-430 544.5,-436 544.5,-442 544.5,-442 544.5,-454 544.5,-454 544.5,-460 538.5,-466 532.5,-466"/>
<text text-anchor="middle" x="515" y="-444.9" font-family="sans" font-size="12.00" fill="#c4c7c7">Contour</text>
</a>
</g>
</g>
<!-- Partial orders have no contours&#45;&gt;Contour -->
<g id="edge71" class="edge">
<title>Partial orders have no contours&#45;&gt;Contour</title>
<path fill="none" stroke="#b75867" d="M475.13,-443.34C475.25,-443.35 475.36,-443.36 475.47,-443.38"/>
<polygon fill="#b75867" stroke="#b75867" points="475.03,-446.85 485.38,-444.57 475.86,-439.9 475.03,-446.85"/>
</g>
</g>
</svg>
