<?xml version="1.0" encoding="UTF-8" standalone="no"?>
<!DOCTYPE svg PUBLIC "-//W3C//DTD SVG 1.1//EN"
 "http://www.w3.org/Graphics/SVG/1.1/DTD/svg11.dtd">
<!-- Generated by graphviz version 2.46.1 (0)
 -->
<!-- Title: Transitive Closure Pages: 1 -->
<svg width="603pt" height="562pt"
 viewBox="0.00 0.00 603.00 562.00" xmlns="http://www.w3.org/2000/svg" xmlns:xlink="http://www.w3.org/1999/xlink">
<g id="graph0" class="graph" transform="scale(1 1) rotate(0) translate(4 558)">
<title>Transitive Closure</title>
<polygon fill="#132020" stroke="transparent" points="-4,4 -4,-558 599,-558 599,4 -4,4"/>
<!-- Transitive Closure -->
<g id="node1" class="node">
<title>Transitive Closure</title>
<g id="a_node1"><a xlink:href="/Knowledge/transitive_closure.html" xlink:title="Transitive Closure" target="_parent">
<path fill="#273434" stroke="#b75867" d="M94,-332C94,-332 12,-332 12,-332 6,-332 0,-326 0,-320 0,-320 0,-308 0,-308 0,-302 6,-296 12,-296 12,-296 94,-296 94,-296 100,-296 106,-302 106,-308 106,-308 106,-320 106,-320 106,-326 100,-332 94,-332"/>
<text text-anchor="middle" x="53" y="-310.9" font-family="sans" font-size="12.00" fill="#c4c7c7">Transitive Closure</text>
</a>
</g>
</g>
<!-- Transitive Relation -->
<g id="node2" class="node">
<title>Transitive Relation</title>
<g id="a_node2"><a xlink:href="/Knowledge/transitive_relation.html" xlink:title="Transitive Relation" target="_parent">
<path fill="#273434" stroke="#b75867" d="M212,-397C212,-397 126,-397 126,-397 120,-397 114,-391 114,-385 114,-385 114,-373 114,-373 114,-367 120,-361 126,-361 126,-361 212,-361 212,-361 218,-361 224,-367 224,-373 224,-373 224,-385 224,-385 224,-391 218,-397 212,-397"/>
<text text-anchor="middle" x="169" y="-375.9" font-family="sans" font-size="12.00" fill="#c4c7c7">Transitive Relation</text>
</a>
</g>
</g>
<!-- Transitive Closure&#45;&gt;Transitive Relation -->
<g id="edge1" class="edge">
<title>Transitive Closure&#45;&gt;Transitive Relation</title>
<path fill="none" stroke="#b75867" d="M85.76,-332.11C98.73,-339.5 113.88,-348.14 127.63,-355.98"/>
<polygon fill="#b75867" stroke="#b75867" points="125.99,-359.08 136.41,-360.99 129.46,-353 125.99,-359.08"/>
</g>
<!-- Relations -->
<g id="node3" class="node">
<title>Relations</title>
<g id="a_node3"><a xlink:href="/Knowledge/relations.html" xlink:title="Relations" target="_parent">
<path fill="none" stroke="#b75867" d="M339,-332C339,-332 299,-332 299,-332 293,-332 287,-326 287,-320 287,-320 287,-308 287,-308 287,-302 293,-296 299,-296 299,-296 339,-296 339,-296 345,-296 351,-302 351,-308 351,-308 351,-320 351,-320 351,-326 345,-332 339,-332"/>
<text text-anchor="middle" x="319" y="-310.9" font-family="sans" font-size="12.00" fill="#c4c7c7">Relations</text>
</a>
</g>
</g>
<!-- Transitive Closure&#45;&gt;Relations -->
<g id="edge2" class="edge">
<title>Transitive Closure&#45;&gt;Relations</title>
<path fill="none" stroke="#ffffff" d="M116.23,-313.35C169.76,-313.18 244.79,-313.23 286.63,-313.49"/>
<polygon fill="#ffffff" stroke="#ffffff" points="116.15,-309.85 106.16,-313.39 116.17,-316.85 116.15,-309.85"/>
</g>
<!-- Transitive Closure&#45;&gt;Relations -->
<g id="edge3" class="edge">
<title>Transitive Closure&#45;&gt;Relations</title>
<path fill="none" stroke="#ffffff" d="M116.23,-314C169.76,-314 244.79,-314 286.63,-314"/>
<polygon fill="#ffffff" stroke="#ffffff" points="116.16,-310.5 106.16,-314 116.16,-317.5 116.16,-310.5"/>
</g>
<!-- Transitive Relation&#45;&gt;Transitive Closure -->
<g id="edge7" class="edge">
<title>Transitive Relation&#45;&gt;Transitive Closure</title>
<path fill="none" stroke="#ffffff" d="M126.13,-355.86C112.36,-348.05 97.32,-339.45 84.55,-332.09"/>
<polygon fill="#ffffff" stroke="#ffffff" points="124.54,-358.97 134.96,-360.85 127.98,-352.88 124.54,-358.97"/>
</g>
<!-- Transitive Relation&#45;&gt;Relations -->
<g id="edge8" class="edge">
<title>Transitive Relation&#45;&gt;Relations</title>
<path fill="none" stroke="#ffffff" d="M220.45,-356.84C242.48,-347.17 267.61,-336.13 286.85,-327.68"/>
<polygon fill="#ffffff" stroke="#ffffff" points="218.97,-353.67 211.23,-360.89 221.79,-360.08 218.97,-353.67"/>
</g>
<!-- Relation -->
<g id="node4" class="node">
<title>Relation</title>
<g id="a_node4"><a xlink:href="/Knowledge/relation.html" xlink:title="Relation" target="_parent">
<path fill="#273434" stroke="#b75867" d="M522,-480C522,-480 487,-480 487,-480 481,-480 475,-474 475,-468 475,-468 475,-456 475,-456 475,-450 481,-444 487,-444 487,-444 522,-444 522,-444 528,-444 534,-450 534,-456 534,-456 534,-468 534,-468 534,-474 528,-480 522,-480"/>
<text text-anchor="middle" x="504.5" y="-458.9" font-family="sans" font-size="12.00" fill="#c4c7c7">Relation</text>
</a>
</g>
</g>
<!-- Transitive Relation&#45;&gt;Relation -->
<g id="edge4" class="edge">
<title>Transitive Relation&#45;&gt;Relation</title>
<path fill="none" stroke="#b75867" d="M224.16,-377.26C289.64,-375.7 392.76,-375.21 406,-387 423.79,-402.84 397.94,-422.4 414,-440 426.71,-453.93 446.69,-459.7 464.55,-461.86"/>
<polygon fill="#b75867" stroke="#b75867" points="464.48,-465.37 474.75,-462.76 465.1,-458.4 464.48,-465.37"/>
</g>
<!-- Partial order -->
<g id="node5" class="node">
<title>Partial order</title>
<g id="a_node5"><a xlink:href="/Knowledge/partial_order.html" xlink:title="Partial order" target="_parent">
<path fill="none" stroke="#b75867" d="M532,-443C532,-443 477,-443 477,-443 471,-443 465,-437 465,-431 465,-431 465,-419 465,-419 465,-413 471,-407 477,-407 477,-407 532,-407 532,-407 538,-407 544,-413 544,-419 544,-419 544,-431 544,-431 544,-437 538,-443 532,-443"/>
<text text-anchor="middle" x="504.5" y="-421.9" font-family="sans" font-size="12.00" fill="#c4c7c7">Partial order</text>
</a>
</g>
</g>
<!-- Transitive Relation&#45;&gt;Partial order -->
<g id="edge5" class="edge">
<title>Transitive Relation&#45;&gt;Partial order</title>
<path fill="none" stroke="#ffffff" d="M234.14,-362.66C285.12,-353.55 355.95,-350 406,-384 413.58,-389.15 407.03,-397.05 414,-403 427.99,-414.95 447.48,-420.6 464.69,-423.2"/>
<polygon fill="#ffffff" stroke="#ffffff" points="233.39,-359.24 224.22,-364.54 234.69,-366.11 233.39,-359.24"/>
</g>
<!-- Linear order -->
<g id="node6" class="node">
<title>Linear order</title>
<g id="a_node6"><a xlink:href="/Knowledge/linear_order.html" xlink:title="Linear order" target="_parent">
<path fill="none" stroke="#b75867" d="M532,-554C532,-554 477,-554 477,-554 471,-554 465,-548 465,-542 465,-542 465,-530 465,-530 465,-524 471,-518 477,-518 477,-518 532,-518 532,-518 538,-518 544,-524 544,-530 544,-530 544,-542 544,-542 544,-548 538,-554 532,-554"/>
<text text-anchor="middle" x="504.5" y="-532.9" font-family="sans" font-size="12.00" fill="#c4c7c7">Linear order</text>
</a>
</g>
</g>
<!-- Transitive Relation&#45;&gt;Linear order -->
<g id="edge6" class="edge">
<title>Transitive Relation&#45;&gt;Linear order</title>
<path fill="none" stroke="#ffffff" d="M187.8,-405.43C198.98,-420.3 214.56,-438.18 232,-450 305.47,-499.79 409.39,-522.04 464.94,-530.89"/>
<polygon fill="#ffffff" stroke="#ffffff" points="190.46,-403.13 181.75,-397.1 184.79,-407.25 190.46,-403.13"/>
</g>
<!-- Relation of Equivalence -->
<g id="node7" class="node">
<title>Relation of Equivalence</title>
<g id="a_node7"><a xlink:href="/Knowledge/relation_of_equivalence.html" xlink:title="Relation of Equivalence" target="_parent">
<path fill="none" stroke="#b75867" d="M559.5,-517C559.5,-517 449.5,-517 449.5,-517 443.5,-517 437.5,-511 437.5,-505 437.5,-505 437.5,-493 437.5,-493 437.5,-487 443.5,-481 449.5,-481 449.5,-481 559.5,-481 559.5,-481 565.5,-481 571.5,-487 571.5,-493 571.5,-493 571.5,-505 571.5,-505 571.5,-511 565.5,-517 559.5,-517"/>
<text text-anchor="middle" x="504.5" y="-495.9" font-family="sans" font-size="12.00" fill="#c4c7c7">Relation of Equivalence</text>
</a>
</g>
</g>
<!-- Transitive Relation&#45;&gt;Relation of Equivalence -->
<g id="edge9" class="edge">
<title>Transitive Relation&#45;&gt;Relation of Equivalence</title>
<path fill="none" stroke="#ffffff" d="M201.47,-402.96C210.94,-409.43 221.59,-416.01 232,-421 298.67,-452.95 380.97,-474.32 437.37,-486.49"/>
<polygon fill="#ffffff" stroke="#ffffff" points="203.34,-399.99 193.14,-397.1 199.31,-405.71 203.34,-399.99"/>
</g>
<!-- Partial orders have no contours -->
<g id="node8" class="node">
<title>Partial orders have no contours</title>
<g id="a_node8"><a xlink:href="/Knowledge/partial_orders_have_no_contours.html" xlink:title="Partial orders have no contours" target="_parent">
<path fill="none" stroke="#b75867" d="M394,-420C394,-420 244,-420 244,-420 238,-420 232,-414 232,-408 232,-408 232,-396 232,-396 232,-390 238,-384 244,-384 244,-384 394,-384 394,-384 400,-384 406,-390 406,-396 406,-396 406,-408 406,-408 406,-414 400,-420 394,-420"/>
<text text-anchor="middle" x="319" y="-398.9" font-family="sans" font-size="12.00" fill="#c4c7c7">Partial orders have no contours</text>
</a>
</g>
</g>
<!-- Transitive Relation&#45;&gt;Partial orders have no contours -->
<g id="edge10" class="edge">
<title>Transitive Relation&#45;&gt;Partial orders have no contours</title>
<path fill="none" stroke="#ffffff" d="M231.3,-388.53C231.46,-388.55 231.62,-388.58 231.78,-388.6"/>
<polygon fill="#ffffff" stroke="#ffffff" points="234.69,-385.51 224.27,-387.43 233.61,-392.43 234.69,-385.51"/>
</g>
<!-- Relations&#45;&gt;Transitive Closure -->
<g id="edge17" class="edge">
<title>Relations&#45;&gt;Transitive Closure</title>
<path fill="none" stroke="#b75867" d="M286.63,-314.51C244.79,-314.77 169.76,-314.82 116.23,-314.65"/>
<polygon fill="#b75867" stroke="#b75867" points="116.17,-311.15 106.16,-314.61 116.15,-318.15 116.17,-311.15"/>
</g>
<!-- Relations&#45;&gt;Transitive Closure -->
<g id="edge21" class="edge">
<title>Relations&#45;&gt;Transitive Closure</title>
<path fill="none" stroke="#b75867" d="M286.63,-315.01C244.79,-315.55 169.76,-315.64 116.23,-315.3"/>
<polygon fill="#b75867" stroke="#b75867" points="116.18,-311.8 106.16,-315.22 116.13,-318.8 116.18,-311.8"/>
</g>
<!-- Relations&#45;&gt;Transitive Relation -->
<g id="edge23" class="edge">
<title>Relations&#45;&gt;Transitive Relation</title>
<path fill="none" stroke="#b75867" d="M286.57,-328.43C267.87,-336.77 243.66,-347.43 222.15,-356.82"/>
<polygon fill="#b75867" stroke="#b75867" points="220.58,-353.68 212.81,-360.89 223.37,-360.1 220.58,-353.68"/>
</g>
<!-- Relations&#45;&gt;Relation -->
<g id="edge29" class="edge">
<title>Relations&#45;&gt;Relation</title>
<path fill="none" stroke="#b75867" d="M351.36,-330.17C370.39,-341.69 393.36,-359.01 406,-381 419.19,-403.94 396.31,-420.32 414,-440 426.67,-454.09 446.77,-459.85 464.71,-461.98"/>
<polygon fill="#b75867" stroke="#b75867" points="464.41,-465.46 474.68,-462.83 465.01,-458.49 464.41,-465.46"/>
</g>
<!-- Relations&#45;&gt;Partial order -->
<g id="edge14" class="edge">
<title>Relations&#45;&gt;Partial order</title>
<path fill="none" stroke="#b75867" d="M351.35,-330.69C369.64,-341.87 391.83,-358.16 406,-378 412.78,-387.49 405.47,-395.04 414,-403 425.02,-413.29 440.06,-418.99 454.66,-422.08"/>
<polygon fill="#b75867" stroke="#b75867" points="454.19,-425.55 464.65,-423.82 455.4,-418.65 454.19,-425.55"/>
</g>
<!-- Relations&#45;&gt;Linear order -->
<g id="edge13" class="edge">
<title>Relations&#45;&gt;Linear order</title>
<path fill="none" stroke="#b75867" d="M351.09,-330.37C370.51,-342.41 394.04,-360.71 406,-384 419.22,-409.75 395.45,-491.78 414,-514 424.09,-526.09 439.66,-532.14 454.99,-535"/>
<polygon fill="#b75867" stroke="#b75867" points="454.58,-538.47 464.98,-536.45 455.59,-531.55 454.58,-538.47"/>
</g>
<!-- Relations&#45;&gt;Relation of Equivalence -->
<g id="edge16" class="edge">
<title>Relations&#45;&gt;Relation of Equivalence</title>
<path fill="none" stroke="#b75867" d="M351.33,-330.74C370.59,-342.82 393.84,-361.03 406,-384 415.7,-402.33 400.51,-461.24 414,-477 418,-481.67 422.81,-485.44 428.11,-488.46"/>
<polygon fill="#b75867" stroke="#b75867" points="426.89,-491.76 437.42,-492.89 429.89,-485.43 426.89,-491.76"/>
</g>
<!-- Chain -->
<g id="node9" class="node">
<title>Chain</title>
<g id="a_node9"><a xlink:href="/Knowledge/chain.html" xlink:title="Chain" target="_parent">
<path fill="#273434" stroke="#b75867" d="M519.5,-369C519.5,-369 489.5,-369 489.5,-369 483.5,-369 477.5,-363 477.5,-357 477.5,-357 477.5,-345 477.5,-345 477.5,-339 483.5,-333 489.5,-333 489.5,-333 519.5,-333 519.5,-333 525.5,-333 531.5,-339 531.5,-345 531.5,-345 531.5,-357 531.5,-357 531.5,-363 525.5,-369 519.5,-369"/>
<text text-anchor="middle" x="504.5" y="-347.9" font-family="sans" font-size="12.00" fill="#c4c7c7">Chain</text>
</a>
</g>
</g>
<!-- Relations&#45;&gt;Chain -->
<g id="edge11" class="edge">
<title>Relations&#45;&gt;Chain</title>
<path fill="none" stroke="#b75867" d="M351.13,-320.28C383.28,-326.76 433.42,-336.87 467.32,-343.7"/>
<polygon fill="#b75867" stroke="#b75867" points="466.79,-347.17 477.28,-345.71 468.17,-340.31 466.79,-347.17"/>
</g>
<!-- Linear extension -->
<g id="node10" class="node">
<title>Linear extension</title>
<g id="a_node10"><a xlink:href="/Knowledge/linear_extension.html" xlink:title="Linear extension" target="_parent">
<path fill="#273434" stroke="#b75867" d="M543,-332C543,-332 466,-332 466,-332 460,-332 454,-326 454,-320 454,-320 454,-308 454,-308 454,-302 460,-296 466,-296 466,-296 543,-296 543,-296 549,-296 555,-302 555,-308 555,-308 555,-320 555,-320 555,-326 549,-332 543,-332"/>
<text text-anchor="middle" x="504.5" y="-310.9" font-family="sans" font-size="12.00" fill="#c4c7c7">Linear extension</text>
</a>
</g>
</g>
<!-- Relations&#45;&gt;Linear extension -->
<g id="edge12" class="edge">
<title>Relations&#45;&gt;Linear extension</title>
<path fill="none" stroke="#b75867" d="M351.13,-314C376.39,-314 412.75,-314 443.62,-314"/>
<polygon fill="#b75867" stroke="#b75867" points="443.86,-317.5 453.86,-314 443.86,-310.5 443.86,-317.5"/>
</g>
<!-- Class of equivalence -->
<g id="node11" class="node">
<title>Class of equivalence</title>
<g id="a_node11"><a xlink:href="/Knowledge/class_of_equivalence.html" xlink:title="Class of equivalence" target="_parent">
<path fill="#273434" stroke="#b75867" d="M552,-295C552,-295 457,-295 457,-295 451,-295 445,-289 445,-283 445,-283 445,-271 445,-271 445,-265 451,-259 457,-259 457,-259 552,-259 552,-259 558,-259 564,-265 564,-271 564,-271 564,-283 564,-283 564,-289 558,-295 552,-295"/>
<text text-anchor="middle" x="504.5" y="-273.9" font-family="sans" font-size="12.00" fill="#c4c7c7">Class of equivalence</text>
</a>
</g>
</g>
<!-- Relations&#45;&gt;Class of equivalence -->
<g id="edge15" class="edge">
<title>Relations&#45;&gt;Class of equivalence</title>
<path fill="none" stroke="#b75867" d="M351.13,-307.72C374,-303.11 405.96,-296.67 434.7,-290.87"/>
<polygon fill="#b75867" stroke="#b75867" points="435.61,-294.26 444.72,-288.85 434.22,-287.4 435.61,-294.26"/>
</g>
<!-- Symmetric Closure -->
<g id="node12" class="node">
<title>Symmetric Closure</title>
<g id="a_node12"><a xlink:href="/Knowledge/symmetric_closure.html" xlink:title="Symmetric Closure" target="_parent">
<path fill="#273434" stroke="#b75867" d="M548,-258C548,-258 461,-258 461,-258 455,-258 449,-252 449,-246 449,-246 449,-234 449,-234 449,-228 455,-222 461,-222 461,-222 548,-222 548,-222 554,-222 560,-228 560,-234 560,-234 560,-246 560,-246 560,-252 554,-258 548,-258"/>
<text text-anchor="middle" x="504.5" y="-236.9" font-family="sans" font-size="12.00" fill="#c4c7c7">Symmetric Closure</text>
</a>
</g>
</g>
<!-- Relations&#45;&gt;Symmetric Closure -->
<g id="edge18" class="edge">
<title>Relations&#45;&gt;Symmetric Closure</title>
<path fill="none" stroke="#b75867" d="M348.25,-295.79C366.43,-284.73 390.9,-271.04 414,-262 421.92,-258.9 430.42,-256.13 438.91,-253.7"/>
<polygon fill="#b75867" stroke="#b75867" points="440.1,-257.01 448.83,-251 438.26,-250.25 440.1,-257.01"/>
</g>
<!-- Relations&#45;&gt;Symmetric Closure -->
<g id="edge20" class="edge">
<title>Relations&#45;&gt;Symmetric Closure</title>
<path fill="none" stroke="#b75867" d="M349.49,-295.9C367.54,-285.11 391.42,-271.84 414,-263 422.01,-259.86 430.6,-257.07 439.18,-254.62"/>
<polygon fill="#b75867" stroke="#b75867" points="440.11,-257.99 448.83,-251.98 438.26,-251.24 440.11,-257.99"/>
</g>
<!-- Reflexive Closure -->
<g id="node13" class="node">
<title>Reflexive Closure</title>
<g id="a_node13"><a xlink:href="/Knowledge/reflexive_closure.html" xlink:title="Reflexive Closure" target="_parent">
<path fill="#273434" stroke="#b75867" d="M543.5,-221C543.5,-221 465.5,-221 465.5,-221 459.5,-221 453.5,-215 453.5,-209 453.5,-209 453.5,-197 453.5,-197 453.5,-191 459.5,-185 465.5,-185 465.5,-185 543.5,-185 543.5,-185 549.5,-185 555.5,-191 555.5,-197 555.5,-197 555.5,-209 555.5,-209 555.5,-215 549.5,-221 543.5,-221"/>
<text text-anchor="middle" x="504.5" y="-199.9" font-family="sans" font-size="12.00" fill="#c4c7c7">Reflexive Closure</text>
</a>
</g>
</g>
<!-- Relations&#45;&gt;Reflexive Closure -->
<g id="edge19" class="edge">
<title>Relations&#45;&gt;Reflexive Closure</title>
<path fill="none" stroke="#b75867" d="M334.24,-295.73C351.09,-275.38 381.06,-242.98 414,-225 423.15,-220 433.45,-216.13 443.71,-213.12"/>
<polygon fill="#b75867" stroke="#b75867" points="444.74,-216.47 453.49,-210.5 442.93,-209.71 444.74,-216.47"/>
</g>
<!-- Relations&#45;&gt;Reflexive Closure -->
<g id="edge22" class="edge">
<title>Relations&#45;&gt;Reflexive Closure</title>
<path fill="none" stroke="#b75867" d="M334.85,-295.72C351.81,-275.6 381.45,-243.76 414,-226 423.15,-221 433.45,-217.13 443.71,-214.1"/>
<polygon fill="#b75867" stroke="#b75867" points="444.75,-217.45 453.49,-211.46 442.93,-210.69 444.75,-217.45"/>
</g>
<!-- Strongly Anti&#45;symmetric Relation -->
<g id="node14" class="node">
<title>Strongly Anti&#45;symmetric Relation</title>
<g id="a_node14"><a xlink:href="/Knowledge/strongly_anti-symmetric_relation.html" xlink:title="Strongly Anti&#45;symmetric Relation" target="_parent">
<path fill="#273434" stroke="#b75867" d="M583,-184C583,-184 426,-184 426,-184 420,-184 414,-178 414,-172 414,-172 414,-160 414,-160 414,-154 420,-148 426,-148 426,-148 583,-148 583,-148 589,-148 595,-154 595,-160 595,-160 595,-172 595,-172 595,-178 589,-184 583,-184"/>
<text text-anchor="middle" x="504.5" y="-162.9" font-family="sans" font-size="12.00" fill="#c4c7c7">Strongly Anti&#45;symmetric Relation</text>
</a>
</g>
</g>
<!-- Relations&#45;&gt;Strongly Anti&#45;symmetric Relation -->
<g id="edge24" class="edge">
<title>Relations&#45;&gt;Strongly Anti&#45;symmetric Relation</title>
<path fill="none" stroke="#b75867" d="M328.42,-295.84C341.42,-269.75 368.9,-221.67 412.33,-189.78"/>
<polygon fill="#b75867" stroke="#b75867" points="414.41,-192.6 420.63,-184.02 410.42,-186.85 414.41,-192.6"/>
</g>
<!-- Anti&#45;symmetric Relation -->
<g id="node15" class="node">
<title>Anti&#45;symmetric Relation</title>
<g id="a_node15"><a xlink:href="/Knowledge/anti-symmetric_relation.html" xlink:title="Anti&#45;symmetric Relation" target="_parent">
<path fill="#273434" stroke="#b75867" d="M561,-147C561,-147 448,-147 448,-147 442,-147 436,-141 436,-135 436,-135 436,-123 436,-123 436,-117 442,-111 448,-111 448,-111 561,-111 561,-111 567,-111 573,-117 573,-123 573,-123 573,-135 573,-135 573,-141 567,-147 561,-147"/>
<text text-anchor="middle" x="504.5" y="-125.9" font-family="sans" font-size="12.00" fill="#c4c7c7">Anti&#45;symmetric Relation</text>
</a>
</g>
</g>
<!-- Relations&#45;&gt;Anti&#45;symmetric Relation -->
<g id="edge25" class="edge">
<title>Relations&#45;&gt;Anti&#45;symmetric Relation</title>
<path fill="none" stroke="#b75867" d="M325.2,-295.86C335.91,-261.91 363.73,-188.77 414,-151 417.87,-148.09 422.08,-145.56 426.49,-143.36"/>
<polygon fill="#b75867" stroke="#b75867" points="428.03,-146.51 435.79,-139.3 425.23,-140.1 428.03,-146.51"/>
</g>
<!-- Symmetric Relation -->
<g id="node16" class="node">
<title>Symmetric Relation</title>
<g id="a_node16"><a xlink:href="/Knowledge/symmetric_relation.html" xlink:title="Symmetric Relation" target="_parent">
<path fill="#273434" stroke="#b75867" d="M550,-110C550,-110 459,-110 459,-110 453,-110 447,-104 447,-98 447,-98 447,-86 447,-86 447,-80 453,-74 459,-74 459,-74 550,-74 550,-74 556,-74 562,-80 562,-86 562,-86 562,-98 562,-98 562,-104 556,-110 550,-110"/>
<text text-anchor="middle" x="504.5" y="-88.9" font-family="sans" font-size="12.00" fill="#c4c7c7">Symmetric Relation</text>
</a>
</g>
</g>
<!-- Relations&#45;&gt;Symmetric Relation -->
<g id="edge26" class="edge">
<title>Relations&#45;&gt;Symmetric Relation</title>
<path fill="none" stroke="#b75867" d="M323.12,-295.86C330.9,-256.4 354.93,-162.38 414,-114 420.84,-108.4 428.89,-104.19 437.31,-101.04"/>
<polygon fill="#b75867" stroke="#b75867" points="438.51,-104.33 446.93,-97.91 436.34,-97.67 438.51,-104.33"/>
</g>
<!-- Anti&#45;reflexive relation -->
<g id="node17" class="node">
<title>Anti&#45;reflexive relation</title>
<g id="a_node17"><a xlink:href="/Knowledge/anti-reflexive_relation.html" xlink:title="Anti&#45;reflexive relation" target="_parent">
<path fill="#273434" stroke="#b75867" d="M554.5,-73C554.5,-73 454.5,-73 454.5,-73 448.5,-73 442.5,-67 442.5,-61 442.5,-61 442.5,-49 442.5,-49 442.5,-43 448.5,-37 454.5,-37 454.5,-37 554.5,-37 554.5,-37 560.5,-37 566.5,-43 566.5,-49 566.5,-49 566.5,-61 566.5,-61 566.5,-67 560.5,-73 554.5,-73"/>
<text text-anchor="middle" x="504.5" y="-51.9" font-family="sans" font-size="12.00" fill="#c4c7c7">Anti&#45;reflexive relation</text>
</a>
</g>
</g>
<!-- Relations&#45;&gt;Anti&#45;reflexive relation -->
<g id="edge27" class="edge">
<title>Relations&#45;&gt;Anti&#45;reflexive relation</title>
<path fill="none" stroke="#b75867" d="M321.64,-295.98C326.66,-251.61 345.94,-136.35 414,-77 419.56,-72.16 426.01,-68.34 432.86,-65.35"/>
<polygon fill="#b75867" stroke="#b75867" points="434.27,-68.55 442.39,-61.75 431.8,-62 434.27,-68.55"/>
</g>
<!-- Reflexive Relation -->
<g id="node18" class="node">
<title>Reflexive Relation</title>
<g id="a_node18"><a xlink:href="/Knowledge/reflexive_relation.html" xlink:title="Reflexive Relation" target="_parent">
<path fill="#273434" stroke="#b75867" d="M545.5,-36C545.5,-36 463.5,-36 463.5,-36 457.5,-36 451.5,-30 451.5,-24 451.5,-24 451.5,-12 451.5,-12 451.5,-6 457.5,0 463.5,0 463.5,0 545.5,0 545.5,0 551.5,0 557.5,-6 557.5,-12 557.5,-12 557.5,-24 557.5,-24 557.5,-30 551.5,-36 545.5,-36"/>
<text text-anchor="middle" x="504.5" y="-14.9" font-family="sans" font-size="12.00" fill="#c4c7c7">Reflexive Relation</text>
</a>
</g>
</g>
<!-- Relations&#45;&gt;Reflexive Relation -->
<g id="edge28" class="edge">
<title>Relations&#45;&gt;Reflexive Relation</title>
<path fill="none" stroke="#b75867" d="M320.55,-295.8C323.06,-246.7 336.99,-110.42 414,-40 421.79,-32.88 431.5,-27.97 441.63,-24.6"/>
<polygon fill="#b75867" stroke="#b75867" points="442.75,-27.92 451.42,-21.82 440.84,-21.19 442.75,-27.92"/>
</g>
<!-- Discrete Structures -->
<g id="node19" class="node">
<title>Discrete Structures</title>
<g id="a_node19"><a xlink:href="/Knowledge/discrete_structures.html" xlink:title="Discrete Structures" target="_parent">
<path fill="none" stroke="#b75867" d="M548,-406C548,-406 461,-406 461,-406 455,-406 449,-400 449,-394 449,-394 449,-382 449,-382 449,-376 455,-370 461,-370 461,-370 548,-370 548,-370 554,-370 560,-376 560,-382 560,-382 560,-394 560,-394 560,-400 554,-406 548,-406"/>
<text text-anchor="middle" x="504.5" y="-384.9" font-family="sans" font-size="12.00" fill="#c4c7c7">Discrete Structures</text>
</a>
</g>
</g>
<!-- Relations&#45;&gt;Discrete Structures -->
<g id="edge30" class="edge">
<title>Relations&#45;&gt;Discrete Structures</title>
<path fill="none" stroke="#ffffff" d="M357.21,-337.56C374.05,-347.44 394.51,-358.37 414,-366 425.03,-370.32 437.16,-373.98 448.83,-377"/>
<polygon fill="#ffffff" stroke="#ffffff" points="358.63,-334.34 348.25,-332.21 355.04,-340.35 358.63,-334.34"/>
</g>
</g>
</svg>
